<svg width="100" height="100" viewBox="0 0 100 100" fill="none" xmlns="http://www.w3.org/2000/svg">
<rect width="100" height="100" fill="#416831"/>
<rect y="46" width="100" height="54" fill="#94901D"/>
<g clip-path="url(#clip0_1_110)">
<path d="M50.1937 91.6564C73.1688 91.6564 91.7937 73.0371 91.7937 50.0689C91.7937 27.1008 73.1688 8.48145 50.1937 8.48145C27.2187 8.48145 8.59375 27.1008 8.59375 50.0689C8.59375 73.0371 27.2187 91.6564 50.1937 91.6564Z" fill="white"/>
<path d="M3.425 63.8625L10.1313 61.6562L12.0437 67.225C7.6625 66.075 3.34375 64.2 3.34375 64.2L3.425 63.8625Z" fill="#231F20"/>
<path d="M96.3811 64.2C96.3811 64.2 92.0624 66.075 87.6812 67.225L89.5937 61.6562L96.2999 63.8625L96.3811 64.2Z" fill="#231F20"/>
<path fill-rule="evenodd" clip-rule="evenodd" d="M66.6312 87.3876C66.3312 88.0313 65.9875 88.7501 65.9875 88.7501C65.9875 88.7501 58.5625 92.4813 49.525 91.9939C46.1625 91.8126 43.0125 91.2376 40.325 90.5626L41.3437 86.2001C41.8937 86.3313 42.4499 86.4563 43.0062 86.5751C44.5499 86.9126 46.0812 87.1751 47.5812 87.3813C43.9437 89.9188 41.4437 90.4939 41.4437 90.4939L42.6687 90.8001C42.6687 90.8001 45.2562 90.2064 48.9937 87.5564C52.7625 87.9814 56.3125 88.0564 59.4 87.9564C54.6125 90.4501 51.0187 91.5251 51.0187 91.5251L52.2812 91.7813C52.2812 91.7813 56.2312 90.6189 61.3499 87.8689C63.4124 87.7564 65.1999 87.5688 66.6312 87.3876ZM60.275 78.4626C60.3 78.6126 60.3625 78.7251 60.4812 78.7689C60.9625 78.9251 61.5187 79.3251 62.5499 79.1626C63.2624 79.0563 63.525 79.0564 63.775 78.8626C65.25 79.0189 66.6375 79.1376 67.9375 79.2313C68.3375 79.5376 69.3562 79.4876 69.6374 80.1189C69.7624 80.3939 69.7312 80.7626 69.625 81.1688C66.7312 83.6126 63.7249 85.5688 61 87.0938C57.7937 87.2313 54.0437 87.1876 50.0625 86.7626C52.5125 84.8626 55.3562 82.1251 58.2437 78.1876C58.9354 78.2834 59.6125 78.3751 60.275 78.4626ZM64.4 78.0376C64.6687 77.5251 64.7874 77.0126 65.0999 76.6938C65.5 76.3001 66.5312 75.6626 66.5312 75.6626C66.5312 75.6626 67.3312 77.2563 67.4875 77.7313C67.5562 77.9376 67.5812 78.1313 67.6062 78.3251C66.5937 78.2438 65.525 78.1501 64.4 78.0376ZM68.8874 83.0313L68.8437 83.1439C68.4437 84.1001 67.1687 86.0064 67.0124 86.4876L66.9625 86.6126C65.8062 86.7501 64.45 86.8876 62.9375 86.9876C64.8499 85.8876 66.8749 84.5751 68.8874 83.0313ZM59.1687 76.8939C59.6562 77.0064 60.0124 77.1001 60.1624 77.1751C60.2624 77.2251 60.2875 77.3689 60.2812 77.5564L58.8375 77.3626L59.1687 76.8939ZM53.8312 76.5876C54.9874 76.4126 56.0625 76.2376 57.1375 76.4626L57.9187 76.6251L57.525 77.1814C56.3375 77.0064 55.0999 76.8064 53.8312 76.5876ZM43.2812 77.9751C44.0062 78.3251 45.0062 78.6126 45.4375 78.6126C45.9937 78.6126 49.125 79.0063 49.8312 78.4501C50.3437 78.0438 50.525 77.4189 51.275 77.0564C53.25 77.4189 55.1375 77.7313 56.9312 78.0001C54 81.9751 51.125 84.7188 48.6562 86.5938C47.0562 86.3876 45.4187 86.1126 43.7687 85.7563C43.025 85.5938 42.2937 85.4251 41.575 85.2501L43.2812 77.9751ZM34.6062 83.1688L35.25 82.1876C36.125 80.8376 36.9999 79.4064 37.3187 79.2439C37.6374 79.0876 39.4687 77.9751 40.5 77.8939C41.3875 77.8251 41.9249 77.3501 42.4562 77.5126L40.6937 85.0189C38.5624 84.4689 36.525 83.8376 34.6062 83.1688ZM33.5875 84.7001C35.3875 88.1001 37.0312 89.5814 37.0312 89.5814L38.25 89.9001C38.25 89.9001 36.3374 88.1814 34.3812 84.1751C36.2812 84.8251 38.3125 85.4439 40.4687 85.9876L39.4749 90.2188L39.9625 90.4751C34.9875 89.1813 31.6687 87.5751 31.6687 87.5751L33.5875 84.7001Z" fill="#64B345"/>
<path fill-rule="evenodd" clip-rule="evenodd" d="M62.9375 86.9874C64.45 86.8874 65.8063 86.7499 66.9625 86.6124C66.8875 86.8062 66.7625 87.0874 66.6313 87.3874C65.2 87.5686 63.4125 87.7562 61.35 87.8687C56.2313 90.6187 52.2813 91.7812 52.2813 91.7812L51.0188 91.5249C51.0188 91.5249 54.6125 90.4499 59.4 87.9562C56.3125 88.0562 52.7625 87.9812 48.9938 87.5562C45.2563 90.2062 42.6688 90.8062 42.6688 90.8062L41.4438 90.4937C41.4438 90.4937 43.9438 89.9186 47.5813 87.3811C46.0813 87.1749 44.55 86.9124 43.0063 86.5812C42.4479 86.4562 41.8938 86.3291 41.3438 86.1999L40.325 90.5624L39.9688 90.4687L39.475 90.2124L40.4688 85.9874C38.3125 85.4374 36.2813 84.8249 34.3813 84.1749C36.3375 88.1749 38.25 89.8999 38.25 89.8999L37.0313 89.5749C37.0313 89.5749 35.3875 88.0999 33.5875 84.6999L34.6063 83.1686C36.525 83.8374 38.5625 84.4624 40.6938 85.0187L42.4625 77.5124C42.55 77.5374 42.6375 77.5812 42.7313 77.6499C42.875 77.7624 43.0688 77.8687 43.2813 77.9687L41.575 85.2437C42.2938 85.4187 43.025 85.5937 43.7688 85.7499C45.4188 86.1062 47.05 86.3812 48.6563 86.5937C51.125 84.7124 54 81.9687 56.9313 77.9999C55.1375 77.7312 53.25 77.4187 51.275 77.0499C51.55 76.9187 51.8938 76.8187 52.3625 76.7749C52.8688 76.7312 53.3563 76.6562 53.825 76.5874C55.1 76.8062 56.3313 76.9999 57.525 77.1749L57.9188 76.6187C58.3875 76.7187 58.8125 76.8124 59.1688 76.8937L58.8375 77.3624L60.2813 77.5562C60.2813 77.8374 60.2313 78.2062 60.275 78.4624C59.6125 78.3749 58.9354 78.2832 58.2438 78.1874C55.3563 82.1249 52.5125 84.8624 50.0688 86.7624C54.05 87.1874 57.7938 87.2312 61 87.0937C63.725 85.5687 66.7313 83.6124 69.625 81.1686C69.4625 81.7749 69.1313 82.4624 68.8875 83.0312C66.875 84.5749 64.8438 85.8874 62.9375 86.9874ZM67.9375 79.2311C66.6375 79.1374 65.25 79.0187 63.7688 78.8624C63.8875 78.7749 63.9938 78.6499 64.1438 78.4499C64.2438 78.3124 64.3313 78.1749 64.4 78.0374C65.525 78.1499 66.5938 78.2436 67.6063 78.3249C67.6375 78.5686 67.675 78.8124 67.8063 79.0812C67.8375 79.1437 67.8813 79.1874 67.9375 79.2311Z" fill="#E7B809"/>
<path fill-rule="evenodd" clip-rule="evenodd" d="M35.3625 14.2625C38.3813 14.0687 42.1563 13.975 46.275 14.2188C43.9063 16.775 41.1688 20.3062 38.575 24.9937C33.1875 24.55 28.5188 24.5188 24.9125 24.6375C28.3063 20.0938 32.075 16.7 35.3625 14.2625ZM54.2438 27.325C49.1375 26.2125 44.3 25.525 39.9063 25.1125C42.55 20.3875 45.325 16.85 47.7 14.3187C50.6375 14.5437 53.7188 14.9437 56.7875 15.6062L56.9875 15.65L54.2438 27.325ZM57.8688 15.8562C61.4688 16.6875 64.8188 17.7438 67.85 18.8813C69.025 22.2563 70.1313 26.6812 70.5438 32.025C65.9875 30.3875 60.7938 28.8 55.125 27.5187L57.8688 15.8562ZM74.8563 16.9875C76.15 17.9938 77.35 19 78.4813 19.9688C84.4688 25.0625 87.0875 31.8375 87.0875 31.8375L84.3125 29.3625C84.3125 29.3625 82.3875 28.175 81.7938 28.175C81.2 28.175 82.1938 29.8563 82.1938 29.8563L84.4125 37.525C84.4438 37.6313 84.475 37.7875 84.5063 37.975L83.8938 37.6688C83.65 36.6 83.3813 35.5563 83.0938 34.5438C83.0896 34.5438 83.0875 34.5458 83.0875 34.55C83.4688 34.1312 82.8813 32.8188 82.4875 31.8375C82.0938 30.8438 81.9938 30.25 81.4 28.9625C81.2563 28.65 81.075 28.3813 80.875 28.1562C80.2563 26.6562 79.6188 25.275 78.9938 24.025C82.4875 25.95 84.475 27.3875 84.475 27.3875L83.7125 26.075C83.7125 26.075 81.7938 24.5688 78.25 22.5813C76.825 19.8938 75.5438 17.9688 74.8563 16.9875ZM82.7875 37.1375C82.2334 36.8708 81.65 36.5979 81.0375 36.3188C81.1813 36.0938 81.3688 35.8125 81.6938 35.4438C81.9188 35.1938 82.0938 35.0438 82.2438 34.95C82.4354 35.6625 82.6167 36.3917 82.7875 37.1375ZM80.5063 37.0312C81.3625 37.5 82.2313 37.9125 83.0375 38.3062C83.1875 39.0312 83.3229 39.7729 83.4438 40.5312L78.825 39.15L79.4188 38.0187C79.4188 38.0187 80.0375 37.4 80.4375 37.0812C80.7125 36.875 80.8188 36.6812 80.9875 36.4062C80.8188 36.6812 80.7188 36.8687 80.5063 37.0312ZM82.375 34.875C82.6625 34.7375 82.8313 34.8 83.0875 34.55C83.0834 34.55 83.0813 34.55 83.0813 34.55C82.8375 34.8 82.6625 34.7375 82.375 34.875ZM9.37503 42.3187C9.96878 36.3375 14.275 27.8312 19.1688 22.1438C23.225 17.4375 31.3875 11.1625 42.5313 9.14375C41.6688 9.51875 38.725 10.8875 35.0375 13.5125C31.475 13.7812 29.2563 14.1687 29.2563 14.1687L28.3 15.0188C28.3 15.0188 30.4313 14.65 33.8625 14.375C30.6125 16.8313 26.925 20.2188 23.6125 24.7C19.3438 24.8875 16.8625 25.2687 16.8625 25.2687L16.4813 26.1187C16.4813 26.1187 18.8688 25.7563 22.9875 25.5625C20.375 29.2625 18.0375 33.675 16.3938 38.8875C16.1375 38 16.0938 36.6063 15.7625 36.1375C15.2625 35.4438 15.7625 34.1562 15.9563 33.5625C16.1563 32.9688 14.9688 32.6313 13.875 33.0688C12.7875 33.5063 13.875 34.75 14.075 35.3438C14.275 35.9375 13.5813 37.225 13.0875 38.3563C12.5875 39.4875 13.4813 39.6437 13.4813 39.6437L14.6688 40.5375C14.6688 40.5375 9.27503 43.3687 9.37503 42.3187ZM52.325 35.525C47.5438 35.2875 39.1688 35.925 34.9375 36.2938C36.2938 32.375 37.8375 28.9438 39.4438 25.9688C43.9063 26.3813 48.8313 27.0875 54.0375 28.225L52.325 35.525ZM70.7063 37.65L68.8313 37.325C68.8313 37.325 68.8313 36.1375 68.5375 35.4438C68.2375 34.75 67.0063 32.8312 66.3125 32.8312C65.6188 32.8312 65.6188 32.8312 64.925 33.3625C64.2313 33.9 63.7375 36.3375 63.7375 36.3375C63.7375 36.3375 59.3875 35.9625 53.2375 35.575L54.925 28.4188C60.6875 29.7313 65.975 31.3687 70.6188 33.0562C70.7 34.525 70.7375 36.0562 70.7063 37.65ZM74.8375 34.675C73.9 35.4062 72.3 37.9188 72.3 37.9188L71.9313 37.8563C71.9563 36.35 71.925 34.9062 71.85 33.5125C72.8792 33.9 73.875 34.2875 74.8375 34.675ZM79.6188 27.3125C79.2813 27.1938 78.9438 27.1437 78.625 27.1437C77.6375 27.1437 76.7 29.1625 76.8 30.35C76.9 31.5375 77.2 32.925 76.7 33.3625C76.4 33.6312 76.1688 33.8312 75.8313 34.0625C74.55 33.5375 73.2 33.0063 71.7813 32.4813C71.3875 27.175 70.3 22.7687 69.1375 19.3875C72.5125 20.7188 75.4375 22.1187 77.8 23.375C78.4 24.5688 79.0188 25.8875 79.6188 27.3125ZM84.65 39.1C84.7438 40.0063 84.8125 40.9313 84.8125 40.9313L84.5125 40.8438C84.4 40.1688 84.2771 39.5021 84.1438 38.8438L84.65 39.1ZM42.9938 9.075C45.1625 8.70625 47.45 8.5 49.8375 8.5C60.875 8.5 68.0125 12.0125 73.4063 15.9062L73.2438 15.8438C73.2438 15.8438 74.9688 18.0625 77.0438 21.9187C74.775 20.7063 71.9688 19.3687 68.6813 18.1062C67.0625 13.8062 65.4438 11.4938 65.4438 11.4938L64.2188 11.1813C64.2188 11.1813 65.7938 13.4375 67.3938 17.625C64.6 16.6125 61.4875 15.675 58.1 14.9125L59.275 9.90625L58.4188 9.60625L57.2125 14.725C54.2625 14.1062 51.3125 13.7188 48.5063 13.5C51.6063 10.3563 53.8375 9.01875 53.8375 9.01875L52.6188 8.7C52.6188 8.7 50.275 10.0938 47.0625 13.4C43.1188 13.1688 39.4938 13.2438 36.5563 13.4125C40.7813 10.4625 43.9313 9.20625 43.9313 9.20625L42.9938 9.075ZM33.575 36.425L32.3375 36.5438C32.3375 36.5438 32.0438 34.4625 32.0438 34.1625C32.0438 33.8687 31.25 33.0312 30.95 32.5375C30.6563 32.0438 30.1625 31.8438 29.4688 31.15C28.775 30.4562 28.675 30.1625 28.675 29.5688C28.675 28.975 28.0813 28.575 27.3438 27.15C26.6063 25.7188 26.3563 26.1562 25.4625 25.7625C24.5688 25.3625 24.4688 26.1562 23.6813 26.95C22.8875 27.7438 23.775 27.4438 24.175 27.8438C24.5688 28.2375 24.6688 28.775 24.4688 29.4688C24.275 30.1625 24.5688 30.0625 25.2625 31.15C25.9563 32.2437 25.3625 31.9438 24.8688 33.6688C24.3688 35.3938 21.3563 36.3438 20.4688 37.1375C19.575 37.9313 19.275 37.1375 18.4813 37.7313C17.8688 38.1938 17.7938 39.1562 17.3938 39.5187C19.0813 34.0062 21.5375 29.3687 24.2875 25.5187C27.9125 25.3875 32.6438 25.4062 38.1188 25.8563C36.4938 28.9 34.9313 32.4062 33.575 36.425Z" fill="#64B345"/>
<path fill-rule="evenodd" clip-rule="evenodd" d="M58.4125 9.59365L59.2688 9.89365L58.0938 14.8999C61.4875 15.6562 64.5938 16.5999 67.3875 17.6124C65.7875 13.4187 64.2126 11.1687 64.2126 11.1687L65.4375 11.4812C65.4375 11.4812 67.0563 13.7937 68.6751 18.0937C71.9626 19.3499 74.7688 20.6937 77.0375 21.9062C74.9625 18.0437 73.2376 15.8312 73.2376 15.8312L73.4001 15.8874C73.9001 16.2499 74.3813 16.6124 74.8563 16.9812C75.5438 17.9624 76.8251 19.8874 78.25 22.5687C81.7938 24.5562 83.7125 26.0687 83.7125 26.0687L84.475 27.3749C84.475 27.3749 82.4875 25.9437 78.9938 24.0124C79.6188 25.2624 80.2563 26.6499 80.8688 28.1499C80.5063 27.7437 80.0688 27.4687 79.6126 27.3062C79.0126 25.8749 78.4001 24.5624 77.8001 23.3687C75.4313 22.1124 72.5063 20.7062 69.1375 19.3749C70.3 22.7624 71.3813 27.1624 71.7813 32.4749C73.2001 32.9999 74.5501 33.5312 75.8313 34.0499C75.6188 34.1937 75.3626 34.3499 75.0188 34.5437C74.9605 34.577 74.898 34.6187 74.8313 34.6687C73.873 34.2812 72.8792 33.8937 71.85 33.5062C71.925 34.8937 71.9563 36.3437 71.9313 37.8499L70.7063 37.6374C70.7376 36.0437 70.7001 34.5124 70.6126 33.0499C65.9751 31.3624 60.6875 29.7187 54.9188 28.4124L53.2375 35.5687L52.7126 35.5374L52.3251 35.5124L54.0375 28.2124C48.8313 27.0749 43.9063 26.3749 39.4438 25.9562C37.8375 28.9374 36.2938 32.3624 34.9375 36.2874L33.5625 36.4062C34.925 32.3937 36.4813 28.8874 38.1125 25.8437C32.6375 25.3937 27.9063 25.3749 24.2813 25.4999C21.5313 29.3562 19.0688 33.9874 17.3875 39.4999C17.275 39.6062 17.1375 39.6624 16.95 39.6374C16.6813 39.6062 16.5125 39.2999 16.3938 38.8812C18.0375 33.6687 20.375 29.2562 22.9875 25.5562C18.8688 25.7499 16.4813 26.1124 16.4813 26.1124L16.8625 25.2624C16.8625 25.2624 19.3438 24.8812 23.6125 24.6874C26.925 20.2062 30.6125 16.8249 33.8625 14.3687C30.4313 14.6437 28.3 15.0062 28.3 15.0062L29.2563 14.1562C29.2563 14.1562 31.475 13.7749 35.0375 13.5062C38.725 10.8812 41.6688 9.5124 42.5313 9.1374L42.9875 9.05615L43.925 9.19365C43.925 9.19365 40.7751 10.4499 36.5563 13.3999C39.4876 13.2249 43.1125 13.1499 47.0625 13.3874C50.2751 10.0812 52.6125 8.68115 52.6125 8.68115L53.8313 9.00615C53.8313 9.00615 51.6 10.3437 48.5 13.4874C51.3125 13.7062 54.2563 14.0937 57.2063 14.7124L58.4125 9.59365ZM54.25 27.3249L56.9938 15.6562L56.7938 15.6062C53.7188 14.9499 50.6438 14.5437 47.7063 14.3187C45.3313 16.8499 42.55 20.3874 39.9125 25.1124C44.3063 25.5249 49.1438 26.2187 54.25 27.3249ZM57.875 15.8499L55.1313 27.5187C60.8 28.7937 65.9938 30.3874 70.5501 32.0249C70.1376 26.6812 69.0313 22.2562 67.8563 18.8812C64.825 17.7437 61.475 16.6874 57.875 15.8499ZM35.3688 14.2624C32.0813 16.6999 28.3063 20.0999 24.9125 24.6374C28.525 24.5187 33.1875 24.5499 38.5751 24.9937C41.1751 20.3062 43.9126 16.7749 46.2751 14.2187C42.1626 13.9749 38.3876 14.0687 35.3688 14.2624ZM83.1 34.5374C83.3875 35.5499 83.6563 36.5937 83.8938 37.6624L84.5063 37.9687C84.5563 38.2812 84.6063 38.6874 84.65 39.0874L84.15 38.8374C84.2813 39.4937 84.4 40.1624 84.5125 40.8374L83.45 40.5187C83.3292 39.7645 83.1938 39.0249 83.0438 38.2999C82.2375 37.9062 81.3688 37.4937 80.4438 37.0749C80.7438 36.8437 80.8438 36.6374 81.0438 36.3062C81.6521 36.5895 82.2355 36.8645 82.7938 37.1312C82.623 36.3853 82.4417 35.6562 82.25 34.9437C82.6188 34.7062 82.8063 34.8312 83.0875 34.5437C83.0875 34.5437 83.0938 34.5374 83.1 34.5374Z" fill="#E7B809"/>
<path d="M43.6312 55.9002C43.6812 56.1127 43.6812 56.7314 43.8875 56.8314C44.0937 56.9377 43.7375 57.1439 43.475 57.3439C43.2187 57.5564 42.8187 57.9627 42.6125 58.1752C42.4062 58.3814 42.2 58.2752 41.7375 58.2752C41.2687 58.2752 41.6812 58.1189 41.1687 57.8627C40.65 57.6064 40.6 58.3252 40.55 57.4502C40.5 56.5752 40.65 56.3689 40.5 56.1627C40.3437 55.9564 41.0625 55.7002 41.5312 55.7002C41.9937 55.7002 43.5812 55.7002 43.6312 55.9002Z" fill="#64B345"/>
<path fill-rule="evenodd" clip-rule="evenodd" d="M45.3625 65.1564C45.3063 65.0939 45.2813 65.0126 45.2813 64.9064C45.2813 64.5439 45.1813 64.3376 44.9188 64.2314C44.6625 64.1314 45.1813 63.3189 45.3875 63.1126C45.5938 62.9064 44.7125 62.8564 44.6625 62.6439C44.6125 62.4376 44.4563 62.1314 44.7688 61.7689C44.85 61.6751 44.8938 61.5501 44.9188 61.4189L46.1688 61.7189L45.3625 65.1564ZM53.3 63.3439C53.2063 63.8689 53.3125 64.3876 52.6 64.7439C51.7688 65.1626 51.5125 64.5376 51.3063 65.2126C51.1 65.8814 51.6688 65.6751 51.4625 65.9314C51.2563 66.1876 50.8938 66.0876 50.8938 66.4001C50.8938 66.7064 51 67.3751 50.6375 67.3751C50.275 67.3751 50.225 66.6564 50.0688 66.5501C49.9125 66.4501 49.7625 66.7564 49.2438 66.9626C48.7313 67.1689 48.625 66.5501 48.625 66.2939C48.625 66.0376 48.6875 65.8814 47.6563 65.5689C46.625 65.2626 46.9875 65.6251 46.2625 65.4689L47.05 61.9251C48.8125 62.3376 50.7375 62.7751 52.8375 63.2439L53.3 63.3439ZM47.6625 59.3314C47.9688 59.1501 48.2188 58.9814 48.425 58.8814C48.7313 58.7251 49.1438 58.4626 49.6063 58.6189C50.075 58.7751 50.2813 58.5814 50.7938 58.0626C51.3125 57.5501 52.95 56.7251 53.3625 56.4126C53.775 56.1064 53.4125 55.6439 54.0875 55.7439C54.7563 55.8501 55.0125 55.9001 54.9125 56.2626C54.8063 56.6189 54.6 57.1376 54.6 57.1376C54.6 57.1376 55.0625 57.2376 55.0625 57.3939C55.0625 57.5501 55.425 57.6564 55.5813 57.6001C55.7375 57.5501 56.3 57.9626 56.3 57.9626C56.3 57.9626 56.25 58.3876 55.9438 58.4751C55.6313 58.5689 54.7563 58.4126 54.7563 58.6751C54.7563 58.9314 54.9125 58.7751 55.2188 59.0814C55.5313 59.3939 55.0625 59.6501 54.4438 59.5501C53.825 59.4439 54.0875 59.1876 54.0313 60.0626C53.9813 60.9439 54.5 61.3501 54.0875 61.7689C53.8438 62.0064 53.7063 62.2189 53.5938 62.4751L53.225 62.3876C51.0563 61.9064 49.075 61.4564 47.2625 61.0251L47.6625 59.3314ZM45.7563 59.0876C45.9625 59.1376 46.1125 59.1876 46.3188 59.3439C46.4438 59.4376 46.5063 59.5939 46.6563 59.6626L46.3875 60.8189L44.8938 60.4626C44.925 60.2251 45.0063 59.8001 45.1875 59.6564C45.4438 59.4439 45.5438 59.0376 45.7563 59.0876Z" fill="#64B345"/>
<path d="M63.4438 57.3999C63.6 57.3999 63.7563 57.5562 63.8063 57.8124C63.8563 58.0687 63.4438 58.3249 63.4438 58.3249C63.4438 58.3249 62.9938 58.2749 62.9938 57.9124C62.9938 57.5561 63.2875 57.3999 63.4438 57.3999Z" fill="#64B345"/>
<path fill-rule="evenodd" clip-rule="evenodd" d="M58.625 64.3939L58.45 64.8501C58.45 64.8501 58.05 65.3126 57.8937 65.5751C57.7437 65.8314 58.35 66.0376 58.7625 66.6564C59.175 67.2751 58.9687 67.5814 58.8125 67.8939C58.6562 68.2001 58.6562 67.7939 58.2437 67.6876C57.8312 67.5876 58.1562 68.1501 57.7437 68.4626C57.3312 68.7689 57.5875 67.9439 57.6375 67.7939C57.6937 67.6376 57.6375 67.3814 57.275 66.9689C56.9187 66.5564 57.3812 66.5001 57.5375 66.1439C57.6937 65.7814 57.4812 65.7814 57.0687 65.7251C56.6562 65.6751 56.6062 66.4001 56.5562 66.6064C56.5062 66.8126 56.35 67.7376 56.3 68.3064C56.2437 68.8751 56.0375 68.9626 55.7812 69.1689C55.525 69.3751 55.2125 68.6689 55.525 68.5626C55.8312 68.4626 55.8312 67.2251 55.8312 66.9689C55.8312 66.7064 55.6812 66.6564 55.3187 66.3501C54.9562 66.0376 55.2125 65.5251 55.525 64.9564C55.8312 64.3876 55.8875 64.2876 55.8875 64.2876C55.8875 64.2876 56.0437 64.1064 56.15 63.9376C56.9875 64.1001 57.8125 64.2501 58.625 64.3939ZM61.7 61.9251C62.0125 62.1814 61.2875 62.7001 61.1375 62.9064C60.9812 63.1126 60.3125 63.2626 59.95 63.2626C59.7875 63.2626 59.525 63.4251 59.2937 63.5939C58.3187 63.4231 57.327 63.2397 56.3187 63.0439L56.35 62.8001L56.7625 62.1314C56.7625 62.1314 57.225 61.9251 57.4812 61.7189C57.7437 61.5126 58.1 62.0814 58.1 62.0814L58.8625 62.7001C58.8625 62.7001 59.6375 62.8001 59.95 62.8001C60.2562 62.8001 60.5687 62.5939 60.825 62.5439C61.0812 62.4939 61.3937 61.6689 61.7 61.9251Z" fill="#64B345"/>
<path d="M42.8688 64.2315C42.6626 63.9752 42.3563 63.6752 42.2001 63.5752C42.0438 63.469 41.6813 63.419 41.8376 63.0065C41.9938 62.594 41.8876 62.544 41.7376 62.3377C41.5813 62.1315 42.3001 62.3877 42.5626 62.494C42.8188 62.594 42.9501 63.0065 42.9063 63.2627C42.8688 63.5252 43.0751 64.4877 42.8688 64.2315Z" fill="#64B345"/>
<path fill-rule="evenodd" clip-rule="evenodd" d="M40.075 60.2187C40.1 60.4312 40.1812 60.6624 40.2875 60.8437C40.4437 61.0999 40.8062 61.2562 40.8062 61.5124C40.8062 61.7687 41.0125 61.7187 40.9625 62.2312C40.9125 62.7499 41.375 63.3687 41.5312 63.4187C41.6812 63.4749 41.9937 64.8499 41.9937 65.0062C41.9937 65.1624 42.0437 65.5749 41.6312 65.9374C41.2187 66.2937 41.2187 66.6062 40.3937 66.4999C39.5687 66.3999 39.825 66.4999 39.725 65.9874C39.6187 65.4687 39.725 65.4687 39.2062 65.3124C38.6937 65.1624 38.2812 65.0062 38.125 64.5937C37.9687 64.1812 37.9312 63.1624 37.675 62.8562C37.4125 62.5437 36.85 63.1624 36.7937 62.5937C36.7437 62.0312 37.1062 61.2562 36.7437 60.7374C36.3812 60.2249 36.85 59.9624 36.225 59.3437C36.1542 59.2728 36.0937 59.2041 36.0437 59.1374C37.2 59.4624 38.5375 59.8249 40.075 60.2187ZM36.7437 56.4187C37.1562 56.7812 38.075 57.2437 38.075 57.2437L39 57.8124C39 57.8124 39.3125 58.0812 39.5187 58.3249C39.725 58.5687 40.1375 58.5687 40.1375 58.8812L40.1312 59.2687C37.2437 58.5124 35.0625 57.8874 33.4187 57.3749C33.1875 57.2562 33.0187 57.1374 32.975 57.0374C32.825 56.6249 33.2375 56.5749 33.6 56.5749C33.9562 56.5749 36.3312 56.0562 36.7437 56.4187Z" fill="#64B345"/>
<path fill-rule="evenodd" clip-rule="evenodd" d="M34.8875 59.9624C34.8875 59.5499 35.1437 59.8624 35.1437 59.8624C35.1437 59.8624 35.4562 60.2749 35.4 60.5312C35.35 60.7874 35.6062 61.5624 35.6062 61.5624L35.1437 61.0999C34.9874 60.9437 34.8875 60.3749 34.8875 59.9624Z" fill="#64B345"/>
<path fill-rule="evenodd" clip-rule="evenodd" d="M45.6875 67.725L45.9563 67.9438C45.9563 67.9438 46.725 67.8938 47.0375 67.6375C47.3438 67.3813 47.5 67.6875 47.8625 67.6875C48.225 67.6875 49.0375 67.9438 49.0875 68.3063C49.1375 68.6688 49.1938 68.9125 49.1938 68.9125C49.1938 68.9125 49.8125 68.9125 50.325 69.0188C50.8438 69.1188 50.3813 69.275 50.5813 69.4813C50.7875 69.6875 51.5125 69.7375 51.925 69.9938C52.3375 70.2563 51.7688 70.2563 51.5625 70.3563C51.3563 70.4625 51 70.2 50.4313 70.05C50.2438 69.9938 50.1813 69.9813 50.175 69.9875C50.1625 70.0125 50.3938 70.15 50.325 70.3563C50.225 70.6688 49.2438 69.9938 48.675 69.7875C48.1063 69.5813 47.4 69.5313 46.9875 69.325C46.575 69.1188 46.7813 69.225 46.0063 68.8063C45.7813 68.6875 45.6125 68.6375 45.475 68.6125L45.6875 67.725ZM42.6688 66.2938C43.2375 66.1375 43.225 66.4 43.8438 66.4C44.4625 66.4 44.2 66.2938 44.5125 66.5C44.6813 66.6125 44.8063 66.7875 44.9375 66.9688L44.5625 68.575C43.8438 68.3688 44.1 67.9938 43.5813 68.15C43.0688 68.3063 42.9625 68.3063 42.7688 68.15C42.575 67.9938 42.9625 67.5313 42.7188 67.4813C42.475 67.4313 41.8938 67.3813 41.8438 67.1188C41.7938 66.8625 42.1 66.45 42.6688 66.2938Z" fill="#64B345"/>
<path d="M50.2751 68.3064C50.4313 68.3064 50.7375 68.5127 50.7375 68.5127C50.7375 68.5127 50.8438 68.8627 50.4813 68.8064C50.1188 68.7564 49.55 68.7689 49.55 68.6189C49.55 68.4627 49.8313 68.2002 49.8313 68.2002C49.8313 68.2002 50.1188 68.3064 50.2751 68.3064Z" fill="#64B345"/>
<path d="M52.4938 69.7875C52.3876 69.5313 53.1001 69.9438 53.1001 70.1C53.1001 70.2563 53.2001 70.2563 53.5126 70.2C53.8188 70.15 53.8188 70.2563 54.1813 70.5125C54.5438 70.7688 53.8751 71.025 53.7188 71.2313C53.5626 71.4375 52.8001 71.1813 52.5438 70.975C52.2876 70.7688 52.3376 70.3563 52.3376 70.3563C52.3376 70.3563 52.5938 70.05 52.4938 69.7875Z" fill="#64B345"/>
<path d="M55.3188 71.7499C55.6813 71.6437 55.9376 71.5937 56.1938 71.7999C56.4501 72.0062 57.1751 72.6749 56.8126 72.8812C56.4501 73.0874 56.0938 73.0374 56.0938 72.6749C56.0938 72.3187 55.7813 72.3687 55.3188 72.3687C54.8563 72.3687 54.9563 71.8499 55.3188 71.7499Z" fill="#64B345"/>
<path d="M59.0188 70.975C59.0188 70.975 57.7438 71.1813 57.5375 71.2313C57.3313 71.2875 56.2438 71.0812 55.9875 71.0812C55.7313 71.0812 55.6813 70.7188 55.6813 70.7188C55.6813 70.7188 55.8875 70.5625 56.45 70.5625C57.0188 70.5625 57.3313 70.7687 57.5375 70.7687C57.7438 70.7687 59.0188 70.975 59.0188 70.975Z" fill="#64B345"/>
<path d="M55.2687 70.0498L55.1625 70.7186C55.1625 70.7186 54.75 70.9748 54.4437 70.7686C54.1312 70.5623 54.75 70.2561 54.75 70.2561L55.2687 70.0498Z" fill="#64B345"/>
<path fill-rule="evenodd" clip-rule="evenodd" d="M60.0313 73.3311C59.8938 73.2748 59.7688 73.2061 59.6876 73.1436C59.4313 72.9373 59.6876 72.4186 59.8438 72.3686C60.0001 72.3186 60.5126 72.0061 60.7251 71.7498C60.7876 71.6686 60.9251 71.5873 61.0813 71.5123C60.7355 72.1373 60.3855 72.7436 60.0313 73.3311ZM62.9438 72.1061C63.4438 71.9561 63.9626 71.2811 63.9626 71.2811C63.9626 71.2811 63.2001 70.9248 62.7001 71.1061C62.4376 71.5873 62.1813 72.0498 61.8563 72.5248L61.9188 72.5061C62.2876 72.3998 62.4626 72.2561 62.9438 72.1061Z" fill="#64B345"/>
<path fill-rule="evenodd" clip-rule="evenodd" d="M61.3187 71.0874C60.9312 71.1687 60.2 71.2812 60 71.0812C59.7437 70.8249 60.2062 70.8249 60.2062 70.8249C60.2062 70.8249 61.0312 70.8249 61.2375 70.6687C61.3375 70.5937 61.4687 70.5312 61.6375 70.4937L61.3187 71.0874ZM63.6 70.4624C63.6 70.4624 63.1875 70.6812 62.8625 70.8062L63.0375 70.4812C63.3562 70.4812 63.6 70.4624 63.6 70.4624Z" fill="#64B345"/>
<path d="M64.5812 68.4126C64.6812 68.2563 65.0937 68.5626 65.0937 68.5626V69.1188C65.0937 69.1188 64.8375 69.3251 64.425 69.0688C64.0125 68.8063 64.475 68.5626 64.5812 68.4126Z" fill="#64B345"/>
<path fill-rule="evenodd" clip-rule="evenodd" d="M64.1501 65.2439C63.9563 65.7689 63.7501 66.2189 63.5438 66.6627C63.4563 66.5439 63.3938 66.4502 63.3938 66.4502C63.3938 66.4502 63.35 66.0377 62.9438 65.8814C62.525 65.7252 62.2688 65.6252 62.2688 65.4189V64.9814C62.9063 65.0752 63.5313 65.1627 64.1501 65.2439ZM72.975 70.0502C72.4688 69.8439 72.1001 69.3252 71.9938 69.0189C71.8938 68.7064 72.7188 68.8627 72.7688 68.6189C72.8188 68.3689 72.4563 68.3064 71.9438 68.2564C71.425 68.2002 70.3438 67.1189 70.3438 67.1189C70.3438 67.1189 68.5376 66.2939 67.7751 66.0377C67.0126 65.7814 66.8001 66.0377 66.8001 66.0377L66.075 66.2939C66.075 66.2939 65.5563 66.6064 65.4063 66.6564C65.3313 66.6814 65.1563 66.5877 65 66.4752L64.5751 67.3877C64.9126 67.5189 65.3501 67.7189 65.7126 67.7939C66.2313 67.8939 66.5876 67.6877 66.7438 67.8939C66.9001 68.1002 66.95 68.5627 66.95 68.5627C66.95 68.5627 67.2125 69.1189 67.2625 69.2752C67.3125 69.4314 67.0563 69.4814 66.8001 69.7377C66.5376 69.9939 66.95 70.2564 67.4688 70.1002C67.9813 69.9439 68.1375 70.2564 68.1375 70.2564C68.1375 70.2564 69.1563 70.6689 69.3125 70.6689C69.4688 70.6689 69.8813 70.3064 70.0876 70.1002C70.2938 69.8939 70.5 69.7877 71.0688 69.8439C71.6313 69.8939 71.6876 70.4064 71.8938 70.6127C72.1001 70.8252 72.9751 71.3877 73.1813 71.4377C73.3876 71.4939 74.4063 71.4377 74.6126 71.4377C74.8188 71.4377 73.4813 70.2564 72.975 70.0502Z" fill="#64B345"/>
<path d="M64.0126 64.9061C64.0688 64.9436 64.1188 65.0873 64.1501 65.2436C63.5313 65.1623 62.9063 65.0748 62.2688 64.9811V64.7998C62.2688 64.7998 63.8563 64.7998 64.0126 64.9061ZM63.5438 66.6623C63.7521 66.2165 63.9584 65.7644 64.1625 65.3061C64.2 65.5373 64.2188 65.7811 64.2188 65.7811L64.6813 66.2436C64.6813 66.2436 64.8313 66.3686 65 66.4748L64.5751 67.3873C64.4313 67.3311 64.3125 67.2936 64.2188 67.2748C64.0125 67.2436 63.7251 66.8936 63.5438 66.6623Z" fill="#E7B809"/>
<path d="M63.0312 70.481L62.8625 70.7998C62.7187 70.856 62.5937 70.8873 62.525 70.8748C62.3187 70.8185 61.7 70.9748 61.55 71.0248C61.5125 71.0373 61.4312 71.0623 61.3187 71.0873L61.6375 70.4935C61.8312 70.4498 62.075 70.431 62.375 70.4623C62.5937 70.481 62.8312 70.4873 63.0312 70.481Z" fill="#E7B809"/>
<path d="M61.8563 71.2311C61.8563 71.2311 62.3063 71.2311 62.7 71.1123C62.4417 71.5873 62.1813 72.0519 61.9188 72.5061C61.4438 72.6248 60.9813 72.9873 60.825 73.2998C60.7188 73.5123 60.3438 73.4498 60.0312 73.3311C60.3854 72.7436 60.7354 72.1373 61.0812 71.5123C61.425 71.3561 61.8563 71.2311 61.8563 71.2311Z" fill="#E7B809"/>
<path d="M45.475 68.6125C45.1563 68.5625 44.9938 68.6938 44.5563 68.575L44.9375 66.9688C45.05 67.125 45.1688 67.2875 45.3375 67.4313L45.6875 67.725L45.475 68.6125Z" fill="#E7B809"/>
<path d="M33.4187 57.375C35.0625 57.8875 37.2437 58.5125 40.1312 59.2687C40.1312 59.525 40.1187 59.8 40.0875 59.9625C40.0687 60.0438 40.0687 60.1312 40.0812 60.2188C38.5437 59.825 37.2062 59.4625 36.0437 59.1375C35.65 58.65 35.7937 58.3625 35.6124 58.225C35.4562 58.1062 34.1312 57.7312 33.4187 57.375Z" fill="#E7B809"/>
<path d="M56.3188 63.0439C57.3271 63.2398 58.3188 63.4231 59.2938 63.5939C59.0063 63.8002 58.7625 64.0252 58.7625 64.0252L58.625 64.3939C57.8125 64.2502 56.9875 64.1002 56.15 63.9377C56.2063 63.8502 56.2438 63.7689 56.2438 63.7189C56.2438 63.6189 56.2875 63.2814 56.3188 63.0439Z" fill="#E7B809"/>
<path d="M47.05 61.9249L46.2188 65.4624C45.7438 65.3624 45.4813 65.2999 45.3625 65.1562L46.1688 61.7187L44.9188 61.4187C44.9813 61.0562 44.8688 60.6374 44.8688 60.6374L44.8875 60.4624L46.375 60.8186L46.65 59.6624C46.7563 59.7124 46.9 59.7124 47.1375 59.6062C47.3313 59.5187 47.5 59.4249 47.6563 59.3374L47.2563 61.0312C49.0688 61.4562 51.05 61.9124 53.2188 62.3937L53.5875 62.4749C53.5125 62.6561 53.4438 62.8562 53.3563 63.1124C53.3313 63.1916 53.3104 63.2707 53.2938 63.3499L52.8375 63.2437C50.7313 62.7749 48.8063 62.3374 47.05 61.9249Z" fill="#E7B809"/>
<path fill-rule="evenodd" clip-rule="evenodd" d="M53.5938 62.4751C54.5146 62.6751 55.423 62.8647 56.3188 63.0438C56.2875 63.2813 56.2438 63.6189 56.2438 63.7188C56.2438 63.7688 56.2063 63.8501 56.1501 63.9376C55.2126 63.7543 54.2626 63.5584 53.3 63.3501C53.3125 63.2688 53.3313 63.1876 53.3563 63.1126C53.4438 62.8563 53.5126 62.6563 53.5938 62.4751ZM53.3 63.3501C53.2001 63.8751 53.3125 64.3876 52.5938 64.7501C53.3125 64.3876 53.2001 63.8751 53.3 63.3438C53.3 63.3438 53.3 63.3459 53.3 63.3501ZM45.6875 67.7251L45.3376 67.4314C45.1688 67.2876 45.05 67.1251 44.9375 66.9688L45.3625 65.1563C45.4813 65.3001 45.7438 65.3626 46.2188 65.4626C46.2355 65.4668 46.25 65.4688 46.2626 65.4688L45.6875 67.7251ZM47.1188 65.4501C46.7438 65.4126 46.8063 65.5813 46.3 65.4751C46.7938 65.5688 46.7563 65.4126 47.1188 65.4501ZM80.4375 37.0751C78.75 36.3001 76.875 35.4876 74.8375 34.6688C74.9 34.6188 74.9605 34.5772 75.0188 34.5438C75.3625 34.3501 75.6188 34.1938 75.8313 34.0501C77.7313 34.8251 79.4688 35.5876 81.0438 36.3063C80.8375 36.6376 80.7438 36.8438 80.5063 37.0188L80.4375 37.0751ZM43.1875 74.4063L44.5563 68.5813C44.9938 68.6938 45.1626 68.5626 45.4813 68.6189L44.0688 74.6189C44.5813 74.7397 45.0959 74.8563 45.6125 74.9688C48.5 75.6126 51.2438 76.1439 53.8313 76.5876C53.3563 76.6626 52.8688 76.7313 52.3625 76.7813C51.8938 76.8251 51.5501 76.9189 51.2751 77.0564C49.3438 76.7001 47.3251 76.2876 45.2313 75.8251L43.8625 75.5126L43.2813 77.9751C43.0688 77.8751 42.875 77.7626 42.7313 77.6563C42.6438 77.5876 42.5501 77.5438 42.4626 77.5126L42.9813 75.3064C38.5563 74.2314 34.4688 73.0001 30.8 71.7188C31.4375 76.4251 32.5813 80.1001 33.7875 82.8813L34.6063 83.1688L33.5938 84.7001C33.4271 84.3918 33.2625 84.0668 33.1 83.7251C29.1375 82.2813 25.8188 80.7001 23.2313 79.3001C25.05 82.2813 26.4501 83.9813 26.4501 83.9813L25.2188 83.5938C25.2188 83.5938 23.6625 81.7188 21.7125 78.4564C18.55 76.6314 16.8438 75.2938 16.8438 75.2938L16.0875 73.9813C16.0875 73.9813 17.8 75.2251 20.8375 76.9438C19.1625 73.9314 17.3313 70.0251 16.0063 65.5001C12.1813 63.5813 10.0813 62.2376 10.0813 62.2376L10.1688 61.2313C10.1688 61.2313 12.125 62.4688 15.6625 64.2751C14.2938 59.1189 13.6188 53.2251 14.5438 46.9626C14.9688 44.0814 15.6 41.3876 16.3938 38.8813C16.5125 39.3001 16.6813 39.6063 16.95 39.6438C17.1375 39.6626 17.275 39.6063 17.3875 39.5063C16.6625 41.8813 16.0813 44.4188 15.6813 47.1251C14.7375 53.5564 15.4813 59.6251 16.9375 64.9126C20.1313 66.4876 24.3688 68.3876 29.4375 70.2376C29.0063 66.4626 28.9063 62.0626 29.3438 56.9751C28.8063 56.7501 28.6438 56.6438 28.6438 56.6438L28.7313 55.6376C28.7313 55.6376 28.9063 55.7439 29.4313 55.9688C29.575 54.4939 29.7688 52.9563 30.0063 51.3626C30.85 45.7376 32.0875 40.7751 33.5688 36.4126L34.9375 36.2876C33.3938 40.7626 32.1 45.8689 31.225 51.6814C30.9813 53.3314 30.7875 54.9188 30.6376 56.4438C31.3188 56.6938 32.225 57.0001 33.425 57.3751C34.1313 57.7313 35.4563 58.1126 35.6125 58.2251C35.7938 58.3626 35.6501 58.6501 36.0438 59.1438C33.4001 58.4001 31.6688 57.8376 30.55 57.4376C30.125 62.5188 30.2376 66.9126 30.6688 70.6751C34.4375 72.0063 38.6376 73.3001 43.1875 74.4063ZM17.2938 66.1313C18.6938 70.7688 20.6063 74.7438 22.325 77.7626C25.0063 79.2063 28.4563 80.8689 32.5 82.4001C31.3063 79.6251 30.1875 75.9564 29.5625 71.2813C24.6188 69.5063 20.475 67.6751 17.2938 66.1313ZM59.2938 63.5938C61.1125 63.9126 62.8688 64.1751 64.5563 64.4001C65.0938 63.1501 65.6125 61.8438 66.125 60.4751C69.3313 51.8938 70.5751 44.2313 70.7063 37.6438L71.9313 37.8501C71.8125 44.4626 70.575 52.1626 67.35 60.7876C66.8625 62.1001 66.3563 63.3563 65.8438 64.5564C72.0375 65.3064 77.225 65.4564 81.1 65.4001C84.4313 56.4314 84.6375 47.9001 83.45 40.5251L84.5125 40.8376C85.7 48.1189 85.5313 56.5251 82.3375 65.3689C86.525 65.2439 88.8688 64.8813 88.8688 64.8813L88.4875 65.7376C88.4875 65.7376 86.1688 66.0938 82.0188 66.2188C80.1125 71.1751 77.1688 75.2876 73.8626 78.6563C77.9563 78.7563 80.1938 78.5751 80.1938 78.5751L79.8125 79.4251C79.8125 79.4251 77.4063 79.6251 73.0188 79.5001C71.6751 80.7938 70.2875 81.9688 68.8875 83.0376C69.1313 82.4688 69.4626 81.7813 69.625 81.1688C70.2751 80.6188 70.925 80.0438 71.5625 79.4438C70.4501 79.3938 69.2438 79.3313 67.9375 79.2313C67.8813 79.1938 67.8376 79.1439 67.8063 79.0876C67.6751 78.8188 67.6438 78.5751 67.6063 78.3251C69.3875 78.4626 70.9938 78.5563 72.4188 78.6063C75.7813 75.2626 78.7938 71.1688 80.7688 66.2501C76.8938 66.3126 71.6875 66.1626 65.475 65.4126L65 66.4813C64.8313 66.3689 64.6813 66.2439 64.6813 66.2439L64.2188 65.7813C64.2188 65.7813 64.2 65.5376 64.1625 65.3064C64.1188 65.0876 64.0751 64.9438 64.0126 64.9063C63.8563 64.8001 62.2688 64.8001 62.2688 64.8001V64.9876C61.0855 64.8126 59.8709 64.6168 58.625 64.4001L58.7626 64.0313C58.7626 64.0313 59.0126 63.8001 59.2938 63.5938ZM46.6501 59.6688L52.3251 35.5188L52.7126 35.5376L53.2375 35.5688L47.6563 59.3376C47.5063 59.4314 47.3313 59.5188 47.1376 59.6063C46.9063 59.7126 46.7563 59.7126 46.6501 59.6688ZM40.1376 59.2751C41.5438 59.6439 43.125 60.0376 44.8876 60.4688L44.875 60.6376C44.875 60.6376 44.9875 61.0563 44.9188 61.4251C43.1188 60.9938 41.5125 60.5938 40.0813 60.2251C40.0688 60.1313 40.0751 60.0438 40.0876 59.9688C40.1188 59.8001 40.1313 59.5313 40.1376 59.2751ZM61.9188 72.5126C61.0126 74.1063 60.0876 75.5626 59.1688 76.8939C58.8188 76.8126 58.3938 76.7251 57.9188 76.6251C58.625 75.6001 59.3313 74.5064 60.0375 73.3314C60.3438 73.4564 60.7188 73.5126 60.8251 73.3001C60.9813 72.9876 61.4438 72.6314 61.8563 72.5251L61.9188 72.5126ZM62.8625 70.8126L62.7001 71.1189C62.3063 71.2439 61.8563 71.2439 61.8563 71.2439C61.8563 71.2439 61.425 71.3626 61.0813 71.5188L61.3188 71.0938C61.4313 71.0688 61.5126 71.0438 61.55 71.0376C61.7001 70.9813 62.3188 70.8313 62.5313 70.8813C62.5938 70.9001 62.7188 70.8626 62.8625 70.8126ZM64.5751 67.3938C64.0688 68.4751 63.55 69.5063 63.0313 70.4876C62.8313 70.4938 62.5938 70.4876 62.375 70.4688C62.0751 70.4376 61.8313 70.4563 61.6376 70.5001C62.2813 69.2938 62.9188 68.0188 63.5438 66.6688C63.7251 66.9001 64.0188 67.2501 64.2188 67.2813C64.3125 67.3001 64.4375 67.3376 64.5751 67.3938ZM42.5313 9.14385L42.7875 9.0376L42.9875 9.06885L42.5313 9.14385ZM84.5063 37.9688C88.4375 39.9251 90.6313 41.3001 90.6313 41.3001L90.5375 42.3126C90.5375 42.3126 88.425 40.9938 84.65 39.0938C84.6063 38.6876 84.5563 38.2876 84.5063 37.9688ZM80.875 28.1501C81.675 30.0938 82.4375 32.2313 83.0938 34.5376C82.8 34.8313 82.6188 34.7063 82.2438 34.9438C81.4938 32.1501 80.5751 29.5876 79.6188 27.3063C80.0688 27.4688 80.5125 27.7438 80.875 28.1501ZM73.4001 15.8938L74.3188 16.2438C74.3188 16.2438 74.5125 16.5001 74.8563 16.9813C74.3875 16.6188 73.9001 16.2563 73.4001 15.8938ZM66.9688 86.6189C69.6563 86.2939 71.2625 85.9501 71.2625 85.9501L70.3063 86.7938C70.3063 86.7938 68.95 87.0876 66.6313 87.3876C66.7688 87.0938 66.8938 86.8064 66.9688 86.6189ZM63.7751 78.8689C62.6584 78.7522 61.4917 78.6168 60.2751 78.4626C60.2313 78.2064 60.2813 77.8438 60.2875 77.5626C61.7313 77.7501 63.1063 77.9063 64.4063 78.0376C64.3313 78.1751 64.25 78.3126 64.1501 78.4501C64 78.6501 63.8876 78.7813 63.7751 78.8689Z" fill="#231F20"/>
<path fill-rule="evenodd" clip-rule="evenodd" d="M50.0312 92.1875C26.7625 92.1875 7.94995 73.3812 7.94995 50.125C7.94995 26.8625 26.7625 8.0625 50.0312 8.0625C73.2937 8.0625 92.1062 26.8625 92.1062 50.125C92.1062 73.3812 73.2937 92.1875 50.0312 92.1875ZM91.225 50.125C91.225 27.35 72.8125 8.94375 50.025 8.94375C27.2437 8.94375 8.8312 27.35 8.8312 50.125C8.8312 72.9 27.2437 91.3063 50.025 91.3063C72.8125 91.3063 91.225 72.9 91.225 50.125Z" fill="#231F20"/>
<path d="M2.01881 44.8502C2.01881 44.8502 24.5063 35.6377 49.8313 35.6377C75.1563 35.6377 97.6001 44.9689 97.6001 44.9689C97.6001 44.9689 99.9001 54.4439 96.0188 63.5314C96.0188 63.5314 73.6313 55.1564 49.8313 55.1564C26.0313 55.1564 3.58131 63.5314 3.58131 63.5314C3.58131 63.5314 -0.0374395 55.2752 2.01881 44.8502Z" fill="white"/>
<path fill-rule="evenodd" clip-rule="evenodd" d="M37.1063 43.1188L34.7563 43.4126L34.4375 44.6188L32.6125 44.8438L34.3313 37.8626L36.2313 37.6313L39.5251 43.9938L37.6938 44.2188L37.1063 43.1188ZM35.0688 42.0438L36.4938 41.8626L35.5313 39.8501L35.0688 42.0438Z" fill="#ED1C24"/>
<path d="M44.2937 38.7748L43.8624 38.5498C43.6541 38.4373 43.4104 38.3894 43.1312 38.4061C42.9187 38.4186 42.7437 38.4686 42.6062 38.5686C42.4645 38.6644 42.3999 38.804 42.4124 38.9873C42.4124 39.0206 42.4145 39.0436 42.4187 39.0561C42.4354 39.1727 42.4812 39.2644 42.5562 39.3311C42.627 39.3977 42.7062 39.4477 42.7937 39.4811C42.8854 39.5144 43.0208 39.5561 43.2 39.6061L44.1812 39.8873C44.5604 39.9915 44.8583 40.2019 45.075 40.5186C45.2916 40.8352 45.4104 41.2019 45.4312 41.6186C45.4395 41.7894 45.4312 41.9644 45.4062 42.1436C45.3437 42.5186 45.1916 42.8456 44.95 43.1248C44.7083 43.404 44.4083 43.6206 44.0499 43.7748C43.6916 43.929 43.3124 44.0165 42.9124 44.0373C42.4062 44.0623 41.9312 43.9873 41.5 43.8061L40.575 43.4186L41.2312 41.9811L41.95 42.3936C42.2 42.5394 42.4708 42.604 42.7625 42.5873C42.9833 42.5748 43.175 42.5144 43.3375 42.4061C43.5 42.2977 43.5937 42.154 43.6187 41.9748C43.6187 41.9331 43.6187 41.9019 43.6187 41.8811C43.6145 41.7519 43.5645 41.6352 43.4687 41.5311C43.3812 41.4269 43.2687 41.354 43.1312 41.3123L41.8312 40.9248C41.5979 40.8498 41.3895 40.7269 41.2062 40.5561C41.027 40.3811 40.8854 40.179 40.7812 39.9498C40.677 39.7123 40.6187 39.4686 40.6062 39.2186C40.5937 39.0061 40.6187 38.8061 40.6749 38.6123C40.7749 38.2873 40.9333 37.9998 41.15 37.7498C41.3666 37.504 41.6249 37.3102 41.9249 37.1686C42.2249 37.0269 42.5479 36.9456 42.8937 36.9248C43.2895 36.904 43.6812 36.9665 44.0687 37.1123L44.9249 37.4248L44.2937 38.7748Z" fill="#ED1C24"/>
<path d="M48.3 43.6438V38.3813H46.8688V36.9126H51.5125V38.3813H50.075V43.6438H48.3Z" fill="#ED1C24"/>
<path fill-rule="evenodd" clip-rule="evenodd" d="M52.9187 43.6377L53.275 36.9189L55.7249 37.0502C56.0499 37.0669 56.35 37.1189 56.625 37.2064C56.9041 37.2939 57.1479 37.421 57.3562 37.5877C57.5687 37.7544 57.7374 37.9731 57.8624 38.2439C57.9916 38.5106 58.0604 38.8273 58.0687 39.1939C58.0729 39.2439 58.0729 39.3023 58.0687 39.3689C58.0562 39.5939 58.0125 39.8002 57.9312 39.9877C57.852 40.1752 57.7416 40.3419 57.5999 40.4877C57.4624 40.6335 57.302 40.7564 57.1187 40.8564C56.9354 40.9523 56.7333 41.0294 56.5125 41.0877L58.4375 43.9439L56.2874 43.8314L54.775 41.1439L54.6375 43.7252L52.9187 43.6377ZM55.5187 40.0314C55.7124 40.0252 55.8812 39.9502 56.025 39.8002C56.1625 39.6544 56.2375 39.4773 56.25 39.2689C56.2625 39.0564 56.1937 38.8689 56.0625 38.7127C55.925 38.5544 55.7499 38.4627 55.5374 38.4377L54.95 38.3689L54.8624 40.0689L55.5187 40.0314Z" fill="#ED1C24"/>
<path fill-rule="evenodd" clip-rule="evenodd" d="M64.0438 43.2999L61.6937 43.0562L61.1063 44.1624L59.2812 43.9687L62.525 37.5562L64.425 37.7562L66.2063 44.6937L64.3688 44.5062L64.0438 43.2999ZM63.7313 41.9374L63.25 39.7562L62.3063 41.7874L63.7313 41.9374Z" fill="#ED1C24"/>
<path fill-rule="evenodd" clip-rule="evenodd" d="M13.5501 57.225L11.2751 57.875L11.1438 59.1188L9.38135 59.625L9.9876 52.4625L11.8251 51.9375L16.0751 57.7062L14.3001 58.2125L13.5501 57.225ZM12.7501 56.0812L11.4876 54.2438L11.3688 56.4813L12.7501 56.0812Z" fill="#231F20"/>
<path d="M21.7062 51.8624C21.5187 51.5791 21.2854 51.377 21.0062 51.2562C20.727 51.1395 20.4208 51.1083 20.0875 51.1624C20.0666 51.1666 20.0395 51.1728 20.0062 51.1812C19.7145 51.2478 19.475 51.3958 19.2875 51.6249C19.0958 51.8499 18.9645 52.1208 18.8937 52.4374C18.8229 52.7499 18.8104 53.0708 18.8562 53.3999C18.875 53.5187 18.8875 53.5937 18.8937 53.6249C18.9729 53.9541 19.1083 54.2499 19.3 54.5124C19.4916 54.7749 19.7312 54.9749 20.0187 55.1124C20.302 55.2458 20.6145 55.2874 20.9562 55.2374C20.9895 55.2333 21.0375 55.2249 21.1 55.2124C21.3958 55.1458 21.6395 55.0103 21.8312 54.8062C22.0187 54.602 22.1187 54.3562 22.1312 54.0687L22.1437 53.7624L20.7562 54.0812L20.4562 52.7749L23.7625 52.0124L23.9312 52.7562C24.0312 53.1895 24.0375 53.6124 23.95 54.0249C23.8625 54.4374 23.6958 54.8208 23.45 55.1749C23.2083 55.5291 22.9041 55.8312 22.5375 56.0812C22.175 56.3312 21.777 56.5103 21.3437 56.6187L21.2875 56.6312C20.6833 56.7728 20.0895 56.7499 19.5062 56.5624C18.9229 56.3749 18.4166 56.0562 17.9875 55.6062C17.5625 55.1562 17.2729 54.627 17.1187 54.0187L17.1 53.9437C16.9583 53.327 16.9791 52.7166 17.1625 52.1124C17.3458 51.5041 17.6645 50.9812 18.1187 50.5437C18.577 50.102 19.1166 49.8103 19.7375 49.6687C21.0833 49.3812 22.2062 49.7603 23.1062 50.8062L21.7062 51.8624Z" fill="#231F20"/>
<path fill-rule="evenodd" clip-rule="evenodd" d="M26.6751 55.1997L25.5063 48.581L27.9188 48.156C28.2438 48.0976 28.5501 48.081 28.8376 48.106C29.1251 48.1268 29.3918 48.1956 29.6376 48.3122C29.8793 48.4289 30.0918 48.6039 30.2751 48.8372C30.4626 49.0706 30.6001 49.3643 30.6876 49.7185C30.7043 49.7685 30.7188 49.8247 30.7313 49.8872C30.7688 50.1122 30.7688 50.3247 30.7313 50.5247C30.698 50.7206 30.6293 50.906 30.5251 51.081C30.4209 51.256 30.2918 51.4122 30.1376 51.5497C29.9834 51.6872 29.8043 51.8081 29.6001 51.9122L32.1188 54.2622L29.9938 54.6372L27.9188 52.356L28.3688 54.906L26.6751 55.1997ZM28.3876 51.0997C28.5793 51.0497 28.7272 50.9372 28.8313 50.7622C28.9355 50.5872 28.9688 50.3976 28.9313 50.1935C28.8938 49.981 28.7918 49.8143 28.6251 49.6935C28.4543 49.5685 28.2647 49.5185 28.0563 49.5435L27.4626 49.6122L27.7626 51.281L28.3876 51.0997Z" fill="#231F20"/>
<path fill-rule="evenodd" clip-rule="evenodd" d="M36.725 46.8312C37.3833 46.7604 38.0042 46.8458 38.5875 47.0875C39.1708 47.3291 39.6542 47.6958 40.0375 48.1875C40.4208 48.675 40.6542 49.2333 40.7375 49.8625L40.7437 49.9562C40.8104 50.5812 40.7146 51.177 40.4562 51.7437C40.1979 52.3062 39.8167 52.777 39.3125 53.1562C38.8042 53.5312 38.2375 53.7604 37.6125 53.8437C37.5875 53.85 37.5687 53.85 37.5562 53.85C37.5375 53.8562 37.525 53.8562 37.5062 53.8562C37.0271 53.9062 36.5583 53.8645 36.1 53.7312C35.6417 53.5937 35.2271 53.3791 34.8562 53.0875C34.4812 52.8 34.175 52.4479 33.9375 52.0312C33.7 51.6104 33.5562 51.1583 33.5062 50.675C33.5021 50.6083 33.4979 50.5583 33.4937 50.525C33.4687 50.0625 33.525 49.6187 33.6812 49.1937C33.8312 48.7645 34.0542 48.3812 34.35 48.0437C34.65 47.7104 35.0042 47.4375 35.4125 47.225C35.8208 47.0125 36.2583 46.8812 36.725 46.8312ZM35.2812 50.4562C35.2812 50.477 35.2833 50.5083 35.2875 50.55C35.3208 50.8875 35.4396 51.1895 35.6437 51.4562C35.8437 51.7229 36.0979 51.925 36.4062 52.0625C36.7146 52.1958 37.0375 52.2458 37.375 52.2125C37.7083 52.1708 38.0042 52.05 38.2625 51.85C38.525 51.6458 38.7229 51.3895 38.8562 51.0812C38.9896 50.7729 39.0396 50.4479 39.0062 50.1062C38.9604 49.7812 38.8375 49.4895 38.6375 49.2312C38.4333 48.9687 38.1792 48.7729 37.875 48.6437C37.575 48.5145 37.2562 48.4687 36.9187 48.5062C36.5979 48.5437 36.3104 48.6541 36.0562 48.8375C35.7979 49.0208 35.6 49.2562 35.4625 49.5437C35.325 49.827 35.2646 50.1312 35.2812 50.4562Z" fill="#231F20"/>
<path d="M47.1875 46.25H48.9375V51.4813H50.9875V52.9813H47.1875V46.25Z" fill="#231F20"/>
<path d="M52.7876 52.9813L53.1438 46.2563L56.9563 46.4563L56.8751 47.9813L54.7938 47.8689L54.7376 48.9688L56.6688 49.0751L56.5938 50.5376L54.6814 50.4376L54.6189 51.6063L56.6501 51.7126L56.5751 53.1751L52.7876 52.9813Z" fill="#231F20"/>
<path d="M63.0751 48.7314L62.6875 48.4377C62.4959 48.296 62.2605 48.2106 61.9813 48.1814C61.773 48.1606 61.5917 48.1877 61.4375 48.2627C61.2875 48.3377 61.2021 48.4648 61.1813 48.6439C61.1771 48.6773 61.1771 48.7023 61.1813 48.7189C61.1813 48.8356 61.2105 48.9314 61.2688 49.0064C61.3313 49.0856 61.4042 49.1481 61.4875 49.1939C61.5709 49.2398 61.6959 49.3023 61.8625 49.3814L62.7938 49.8127C63.148 49.9752 63.4084 50.2294 63.5751 50.5752C63.7376 50.921 63.798 51.3023 63.7563 51.7189C63.7375 51.8877 63.7 52.0627 63.6438 52.2314C63.5271 52.5939 63.3271 52.8939 63.0438 53.1314C62.7605 53.3689 62.4292 53.5356 62.05 53.6314C61.6709 53.7273 61.2834 53.7544 60.8876 53.7127C60.3834 53.6585 59.9292 53.5085 59.5251 53.2627L58.675 52.7377L59.55 51.4189L60.1938 51.9377C60.4188 52.1169 60.6751 52.2231 60.9626 52.2564C61.1876 52.2773 61.3875 52.2481 61.5625 52.1689C61.7375 52.0856 61.8521 51.9564 61.9063 51.7814C61.9188 51.7439 61.9188 51.7127 61.925 51.6939C61.9375 51.5627 61.9063 51.4439 61.8313 51.3252C61.7605 51.2085 61.6605 51.1189 61.5313 51.0564L60.3063 50.4689C60.0855 50.3606 59.9 50.2064 59.75 50.0064C59.6 49.8064 59.4896 49.5835 59.4188 49.3377C59.3563 49.0919 59.3375 48.8439 59.3625 48.5939C59.3834 48.3814 59.4376 48.1835 59.5251 48.0002C59.6751 47.696 59.8771 47.4398 60.1313 47.2314C60.3813 47.0189 60.6667 46.8669 60.9875 46.7752C61.3084 46.6794 61.6396 46.6502 61.9813 46.6877C62.3771 46.7294 62.7563 46.8523 63.1188 47.0564L63.9125 47.4939L63.0751 48.7314Z" fill="#231F20"/>
<path d="M66.9562 54.2438L67.7812 49.05L66.3687 48.825L66.5999 47.375L71.1812 48.1L70.9499 49.55L69.5312 49.325L68.7062 54.525L66.9562 54.2438Z" fill="#231F20"/>
<path fill-rule="evenodd" clip-rule="evenodd" d="M75.7936 54.575L73.4749 54.125L72.7936 55.175L70.9937 54.825L74.7812 48.7188L76.6562 49.0812L77.8249 56.15L76.0124 55.8L75.7936 54.575ZM75.6061 53.1937L75.3124 50.9813L74.1936 52.9188L75.6061 53.1937Z" fill="#231F20"/>
<path fill-rule="evenodd" clip-rule="evenodd" d="M79.7375 56.6687L81.3688 50.1499L83.75 50.7374C84.0625 50.8166 84.348 50.927 84.6063 51.0686C84.8605 51.2061 85.075 51.377 85.25 51.5812C85.425 51.7853 85.548 52.0311 85.6188 52.3186C85.6938 52.6061 85.7 52.9312 85.6375 53.2937C85.6313 53.3437 85.6188 53.3999 85.6063 53.4624C85.5521 53.6832 85.4667 53.877 85.35 54.0437C85.2375 54.2103 85.098 54.352 84.9313 54.4687C84.7688 54.5895 84.5875 54.6812 84.3875 54.7437C84.1917 54.8062 83.9792 54.8416 83.75 54.8499L85.0938 58.0249L83.0063 57.4999L82.0313 54.5812L81.4063 57.0874L79.7375 56.6687ZM82.975 53.6249C83.1709 53.6541 83.35 53.6103 83.5125 53.4937C83.6792 53.377 83.7875 53.2166 83.8375 53.0124C83.8917 52.8082 83.8667 52.6145 83.7625 52.4312C83.6584 52.2478 83.5042 52.1249 83.3 52.0624L82.7375 51.8874L82.325 53.5312L82.975 53.6249Z" fill="#231F20"/>
<path d="M89.1125 52.2437L90.8063 52.7561L88.8375 59.1874L87.1438 58.6749L89.1125 52.2437Z" fill="#231F20"/>
<path fill-rule="evenodd" clip-rule="evenodd" d="M49.8313 55.7749C28.0063 55.3062 10.3563 61.6874 3.28751 64.2187C-0.493742 56.9624 1.55626 44.6562 1.55626 44.6562C1.55626 44.6562 23.075 35.0562 49.8313 35.0562C76.5875 35.0562 98.1 44.6562 98.1 44.6562C98.1 44.6562 100.156 56.9624 96.375 64.2187C89.3 61.6874 71.65 55.3062 49.8313 55.7749ZM96.2813 61.9812L94.0688 61.3062C93.8813 61.2499 93.7688 61.0499 93.8313 60.8562L93.8625 60.7374C93.925 60.5499 94.125 60.4437 94.3188 60.4999L96.5438 61.1874C96.6313 60.9082 96.7125 60.6291 96.7875 60.3499L94.3938 59.6187C94.2 59.5624 94.0938 59.3562 94.15 59.1624L94.1875 59.0499C94.2438 58.8562 94.4438 58.7499 94.6375 58.8124L96.9875 59.5312C97.0625 59.2062 97.1313 58.8791 97.1938 58.5499L94.8875 57.8499C94.6938 57.7874 94.5875 57.5874 94.6438 57.3937L94.6813 57.2812C94.7375 57.0874 94.9438 56.9812 95.1313 57.0374L97.3438 57.7187C97.3896 57.4312 97.4313 57.1457 97.4688 56.8624L95.0625 56.1312C94.8688 56.0687 94.7625 55.8687 94.8188 55.6749L94.8563 55.5624C94.9125 55.3687 95.1188 55.2624 95.3125 55.3187L97.5688 56.0187C97.6063 55.6437 97.6396 55.2749 97.6688 54.9124L95.3563 54.2062C95.1625 54.1437 95.0563 53.9437 95.1125 53.7499L95.15 53.6374C95.2063 53.4437 95.4063 53.3374 95.6 53.3937L97.725 54.0499C97.7417 53.6916 97.7542 53.3395 97.7625 52.9937L95.3563 52.2562C95.1625 52.1999 95.0563 51.9999 95.1125 51.8062L95.15 51.6937C95.2063 51.4999 95.4063 51.3937 95.6 51.4499L97.7813 52.1249C97.7813 51.7791 97.7792 51.4416 97.775 51.1124L95.325 50.3624C95.1313 50.3062 95.025 50.0999 95.0813 49.9124L95.1188 49.7999C95.175 49.6062 95.3813 49.4999 95.5688 49.5562L97.75 50.2249C97.7313 49.8624 97.7188 49.5124 97.6938 49.1749L95.3813 48.4687C95.1938 48.4124 95.0813 48.2062 95.1438 48.0187L95.175 47.8999C95.2375 47.7124 95.4375 47.6062 95.6313 47.6624L97.6313 48.2812L97.5563 47.4312L95.0625 46.6687C94.8688 46.6124 94.7625 46.4062 94.8188 46.2187L94.8563 46.1062C94.9125 45.9124 95.1188 45.8062 95.3125 45.8624L97.4563 46.5249C97.3625 45.7749 97.2875 45.3437 97.2875 45.3437C92.6813 43.3749 72.9563 35.7062 49.8313 36.1999C26.7063 35.7062 6.98126 43.3749 2.36876 45.3437C2.36876 45.3437 2.29376 45.7749 2.20001 46.5249L4.35001 45.8624C4.54376 45.8062 4.74376 45.9124 4.80001 46.1062L4.83751 46.2187C4.90001 46.4062 4.78751 46.6124 4.60001 46.6687L2.10001 47.4374L2.02501 48.2812L4.03126 47.6624C4.21876 47.6062 4.42501 47.7124 4.48126 47.8999L4.51876 48.0187C4.57501 48.2062 4.46876 48.4124 4.27501 48.4687L1.96251 49.1749C1.94376 49.5124 1.92501 49.8624 1.91251 50.2249L4.08751 49.5562C4.28126 49.4999 4.48126 49.6062 4.53751 49.7999L4.57501 49.9124C4.63126 50.0999 4.52501 50.3062 4.33751 50.3624L1.88751 51.1124C1.88126 51.4437 1.88126 51.7749 1.88126 52.1249L4.05626 51.4499C4.25001 51.3937 4.45001 51.4999 4.51251 51.6937L4.54376 51.8062C4.60626 51.9999 4.49376 52.1999 4.30626 52.2624L1.89376 52.9937C1.90001 53.3437 1.91251 53.6937 1.93126 54.0499L4.05626 53.3937C4.25001 53.3374 4.45001 53.4437 4.51251 53.6374L4.54376 53.7499C4.60626 53.9437 4.49376 54.1437 4.30626 54.2062L1.98751 54.9124C2.01668 55.2749 2.05001 55.6437 2.08751 56.0187L4.35001 55.3187C4.53751 55.2624 4.74376 55.3687 4.80001 55.5624L4.83751 55.6749C4.89376 55.8687 4.78751 56.0687 4.60001 56.1312L2.19376 56.8624C2.23126 57.1457 2.27293 57.4312 2.31876 57.7187L4.52501 57.0374C4.71876 56.9812 4.91876 57.0874 4.97501 57.2812L5.01251 57.3937C5.06876 57.5874 4.96251 57.7874 4.76876 57.8499L2.46251 58.5499C2.52501 58.8791 2.59376 59.2062 2.66876 59.5312L5.01876 58.8124C5.21251 58.7499 5.41251 58.8562 5.47501 59.0499L5.50626 59.1624C5.56876 59.3562 5.45626 59.5624 5.26876 59.6187L2.87501 60.3499C2.95001 60.6291 3.02918 60.9082 3.11251 61.1874L5.33751 60.4999C5.53126 60.4437 5.73751 60.5499 5.79376 60.7374L5.83126 60.8562C5.88751 61.0499 5.78126 61.2499 5.58751 61.3062L3.37501 61.9812C3.51667 62.3895 3.67292 62.7916 3.84376 63.1874C3.84376 63.1874 25.0563 54.6249 49.8313 54.6249C74.6 54.6249 95.8188 63.1874 95.8188 63.1874C95.9854 62.7916 96.1396 62.3895 96.2813 61.9812Z" fill="#231F20"/>
</g>
<defs>
<clipPath id="clip0_1_110">
<rect width="97.6875" height="84.1875" fill="white" transform="translate(1 8)"/>
</clipPath>
</defs>
</svg>
