<svg width="100" height="100" viewBox="0 0 100 100" fill="none" xmlns="http://www.w3.org/2000/svg">
<rect width="100" height="100" fill="white"/>
<path fill-rule="evenodd" clip-rule="evenodd" d="M7.31437 39.5312C7.28537 39.6172 6.69025 42.5281 5.99187 46C5.2935 49.4719 4.57125 53.0601 4.387 53.9739C4.20262 54.8876 4.07762 55.661 4.10925 55.6926C4.14087 55.7241 4.90613 55.75 5.80988 55.75H7.453L8.63275 49.8689C9.54012 45.3454 9.8325 44.083 9.89888 44.4001C9.9465 44.6269 10.1614 47.2031 10.3764 50.125C10.5915 53.0469 10.7899 55.5079 10.8172 55.5938C10.854 55.7086 11.3169 55.75 12.5665 55.75H14.2657L15.4625 53.2812C18.0119 48.0225 19.0356 45.8969 19.5271 44.8416C19.8079 44.239 20.052 43.7609 20.0696 43.7791C20.1186 43.8301 19.5107 47.3808 18.3841 53.625C18.1919 54.6906 18.0582 55.6047 18.0871 55.6562C18.1161 55.7079 19.5849 55.75 21.3511 55.7499H24.5625L25.4338 54.1324C25.9129 53.2428 26.3629 52.4381 26.4338 52.3444C26.5045 52.2506 27.8 51.5582 29.3125 50.8057L32.0625 49.4375L30.2812 49.4029C28.5553 49.3693 28.5 49.3599 28.5 49.1006C28.5 48.7684 31.6361 43.4566 31.7533 43.5904C31.8 43.6437 31.955 44.3625 32.0979 45.1875C32.6385 48.3108 34.0098 55.6764 34.06 55.7266C34.0887 55.7555 35.5604 55.7304 37.3301 55.6707L40.5477 55.5625L41.193 52.625L41.8384 49.6875L45.3109 49.6542L48.7834 49.621L48.7126 50.0292C48.6737 50.2537 48.4647 51.45 48.2482 52.6875C48.0317 53.925 47.8236 55.1213 47.7856 55.3459L47.7166 55.7542L50.9409 55.7209L54.1652 55.6875L55.1314 53.9421L56.0974 52.1968L58.7946 50.7484C60.278 49.9517 61.5358 49.2535 61.5896 49.1966C61.6435 49.1399 60.9141 49.1331 59.9688 49.1817L58.25 49.2701V48.9314C58.25 48.6503 60.7894 43.8061 61.1167 43.4629C61.169 43.4081 61.7609 46.1446 62.432 49.544L63.6521 55.7248L66.7324 55.7746C68.4264 55.802 69.8321 55.8115 69.8561 55.7956C69.8801 55.7799 70.1124 54.6055 70.3724 53.186C70.6322 51.7665 70.8939 50.5611 70.9536 50.5074C71.5124 50.0055 73.0382 48.8839 73.1056 48.9255C73.153 48.9548 74.1751 50.5022 75.3771 52.3644L77.5625 55.7501L80.2308 55.7189L82.899 55.6875L83.823 54.0146C84.3311 53.0946 84.8152 52.2595 84.8988 52.1589C84.9824 52.0581 86.2065 51.3887 87.6191 50.6712L90.1875 49.3666L88.3438 49.4204L86.5 49.474V49.1469C86.5 48.8514 89.5801 43.5 89.7503 43.5C89.8211 43.5 90.0523 44.6171 91.3148 51.0625C91.7591 53.3313 92.1525 55.314 92.1888 55.4688C92.2534 55.7439 92.2929 55.75 94.0024 55.75C95.3174 55.75 95.7499 55.7114 95.7496 55.5938C95.7495 55.5079 95.55 54.4812 95.3065 53.3125C94.9073 51.397 94.3849 48.8826 93.2289 43.3125C93.0149 42.2812 92.7493 40.9875 92.6386 40.4375L92.4375 39.4375L90.4375 39.4065C89.3375 39.3894 88.3804 39.4175 88.3106 39.469C88.2407 39.5204 87.6714 40.4625 87.0451 41.5625C86.419 42.6625 84.8495 45.4187 83.5574 47.6875C82.2653 49.9563 81.0945 52.0235 80.9559 52.2812C80.8171 52.5391 80.6719 52.7455 80.633 52.74C80.5943 52.7345 79.593 51.273 78.4081 49.4921L76.2539 46.2544L80.435 42.9085C82.7346 41.0681 84.6183 39.5204 84.6206 39.4688C84.623 39.4171 83.6129 39.375 82.3757 39.375H80.1266L78.0945 40.9645C76.9769 41.8388 75.1119 43.3023 73.9501 44.2166C72.7883 45.1311 71.8139 45.8555 71.7849 45.8265C71.7559 45.7975 72.0174 44.438 72.366 42.8055C72.7147 41.173 73 39.7316 73 39.6026C73 39.3826 72.8899 39.3702 71.2209 39.4029L69.4417 39.4375L68.242 45.406C67.582 48.6888 67.0146 51.402 66.981 51.4356C66.9277 51.4889 66.6276 50.3186 65.7476 46.625C64.9642 43.3377 64.1045 39.7795 64.0479 39.591C63.9869 39.3878 63.7905 39.3724 61.6619 39.4035L59.3424 39.4375L56.1105 45C54.3329 48.0594 52.6699 50.9406 52.4149 51.4028C52.1599 51.8647 51.939 52.2304 51.9241 52.2153C51.8865 52.1768 52.3229 49.8678 53.7369 42.625C54.0658 40.9406 54.2971 39.5186 54.2513 39.4651C54.2052 39.4115 53.3848 39.3834 52.428 39.4026L50.6883 39.4375L50.4849 40.4375C50.373 40.9875 50.0649 42.6048 49.8 44.0312L49.3185 46.625H45.9092C44.0341 46.625 42.5 46.5977 42.5 46.5644C42.5 46.531 42.8089 44.9499 43.1865 43.0507C43.564 41.1516 43.842 39.5477 43.8041 39.4864C43.7663 39.4251 42.9533 39.375 41.9975 39.375H40.2596L40.1411 39.8438C40.0759 40.1016 39.5624 42.3375 39 44.8125C38.4378 47.2875 37.8445 49.875 37.6816 50.5625C37.5189 51.25 37.348 52.0515 37.3019 52.3438C37.2558 52.636 37.1768 52.875 37.1261 52.875C37.0756 52.875 36.9646 52.4391 36.8794 51.9062C36.6999 50.7831 34.7817 40.075 34.6851 39.6562C34.6209 39.3775 34.6003 39.375 32.392 39.375C30.4245 39.375 30.1419 39.4006 29.9766 39.5938C29.8738 39.714 29.3514 40.5719 28.8159 41.5C25.2311 47.7126 22.3146 52.7244 22.1599 52.9375C21.9896 53.172 21.9833 53.1634 22.0575 52.7996C22.4795 50.7341 24.4611 39.5404 24.4175 39.4688C24.386 39.4171 23.2118 39.375 21.808 39.375C19.2958 39.375 19.253 39.3794 19.0831 39.6562C18.9882 39.8109 17.651 42.5919 16.1115 45.8363L13.3125 51.735L13.2261 51.1488C13.1788 50.8263 12.994 48.2281 12.8158 45.375C12.6374 42.5219 12.4627 40.0046 12.4276 39.7812L12.3636 39.375H9.86538C7.97825 39.375 7.35425 39.4132 7.31437 39.5312ZM4.08337 57.8334C4.0375 57.8791 4 59.7073 4 61.8959V65.875H49.875H95.75V61.8125V57.75H49.9584C24.7729 57.75 4.12912 57.7875 4.08337 57.8334ZM30.317 59.1562C30.2697 59.3034 29.8205 62.2226 29.6772 63.3125C29.6411 63.5875 29.582 63.9673 29.5459 64.1562C29.4832 64.4837 29.5031 64.5 29.968 64.5H30.4559L30.621 63.0938C30.8569 61.0839 30.9513 60.9819 31.0519 62.6278C31.1626 64.4388 31.1811 64.5 31.6205 64.5C31.951 64.5 32.0035 64.4242 32.4212 63.3438C32.6671 62.7078 32.9503 61.9625 33.0504 61.6875C33.2874 61.0366 33.2894 61.1973 33.0613 62.5625C32.9579 63.1812 32.8424 63.8739 32.8045 64.1017C32.7359 64.5151 32.7366 64.5159 33.2108 64.4767C33.7534 64.4319 33.6424 64.8043 34.117 61.4375C34.2624 60.4062 34.4099 59.4329 34.4447 59.2746C34.5054 58.999 34.4799 58.9883 33.8489 59.0246L33.1896 59.0625L32.5734 60.7129C32.2344 61.6205 31.9105 62.3344 31.8535 62.2992C31.7966 62.264 31.7496 61.9714 31.7493 61.6489C31.7489 61.3264 31.7124 60.5984 31.6682 60.0312L31.588 59H30.9775C30.5993 59 30.3481 59.0594 30.317 59.1562ZM41.5773 59.2188C41.5418 59.3391 41.3664 60.4781 41.1875 61.75C41.0086 63.0219 40.8332 64.161 40.7977 64.2812C40.7386 64.4814 40.8668 64.5 42.3041 64.5C43.8494 64.5 43.875 64.4954 43.8768 64.2188C43.8776 64.064 43.9124 63.811 43.9538 63.6562C44.0274 63.3815 44.0057 63.375 43.0146 63.375H42V63.0103C42 62.3013 42.0726 62.25 43.0759 62.25C43.7766 62.25 44 62.2085 44 62.0781C44 61.9836 44.0351 61.7305 44.0781 61.5156L44.1562 61.125H43.1898C42.3597 61.125 42.234 61.0971 42.2991 60.9272C42.3409 60.8185 42.375 60.6216 42.375 60.4897C42.375 60.2733 42.4726 60.25 43.3789 60.25C44.4585 60.25 44.4249 60.2722 44.5584 59.4688L44.6364 59H43.1391C41.8211 59 41.6341 59.0261 41.5773 59.2188ZM51.575 59.3937C51.2984 61.1465 50.875 64.1035 50.875 64.2819C50.875 64.473 51.0122 64.5 51.9815 64.5C53.3657 64.5 53.7681 64.2765 54.3004 63.2114C54.6141 62.5836 54.6645 62.3381 54.6716 61.3989C54.6805 60.2466 54.536 59.7976 53.9997 59.3123C53.7812 59.1144 53.5074 59.0534 52.6825 59.0187L51.641 58.975L51.575 59.3937ZM61.6985 61.4062C61.5075 62.7297 61.3214 63.9673 61.2849 64.1562C61.2214 64.4864 61.2391 64.5 61.7344 64.5C62.018 64.5 62.251 64.4579 62.2523 64.4062C62.2535 64.3546 62.4219 63.1875 62.6265 61.8125C62.8311 60.4375 62.9989 59.2423 62.9992 59.1562C62.9997 59.0584 62.8216 59 62.5229 59H62.0459L61.6985 61.4062ZM70.9475 59.6562C70.4336 60.8244 69 64.3274 69 64.415C69 64.4618 69.2174 64.5 69.483 64.5C69.9404 64.5 69.9775 64.47 70.1809 63.9375L70.3956 63.375H71.0656H71.7356L71.7741 63.9062C71.8114 64.4219 71.8262 64.4386 72.2812 64.4762C72.8446 64.5229 72.8265 64.7314 72.5021 61.9375C72.1388 58.8081 72.1929 59 71.675 59C71.2658 59 71.2169 59.0441 70.9475 59.6562ZM52.2635 61.3375C52.1804 61.9425 52.0799 62.6485 52.0402 62.9062C51.9726 63.3455 51.9884 63.375 52.2906 63.375C53.1256 63.375 53.6174 62.7746 53.7064 61.6466C53.7836 60.668 53.5872 60.324 52.9231 60.275L52.4146 60.2375L52.2635 61.3375ZM71.1432 61.4461C70.9958 61.8318 70.875 62.1704 70.875 62.1986C70.875 62.2269 71.0442 62.25 71.2511 62.25H71.6271L71.5462 61.5312C71.5017 61.136 71.4532 60.7972 71.4385 60.7787C71.4238 60.7601 71.2909 61.0605 71.1432 61.4461Z" fill="black"/>
<path fill-rule="evenodd" clip-rule="evenodd" d="M4.08337 57.8334C4.0375 57.8791 4 59.7073 4 61.8959V65.875H49.875H95.75V61.8125V57.75H49.9584C24.7729 57.75 4.12912 57.7875 4.08337 57.8334ZM30.317 59.1562C30.2697 59.3034 29.8205 62.2226 29.6772 63.3125C29.6411 63.5875 29.582 63.9672 29.5459 64.1562C29.4832 64.4837 29.5031 64.5 29.968 64.5H30.4559L30.621 63.0938C30.8569 61.0839 30.9513 60.9819 31.0519 62.6278C31.1626 64.4388 31.1811 64.5 31.6205 64.5C31.951 64.5 32.0035 64.4243 32.4212 63.3438C32.6671 62.7077 32.9503 61.9625 33.0504 61.6875C33.2874 61.0366 33.2894 61.1972 33.0613 62.5625C32.9579 63.1813 32.8424 63.8739 32.8045 64.1017C32.7359 64.5151 32.7366 64.5159 33.2108 64.4767C33.7534 64.4319 33.6424 64.8042 34.117 61.4375C34.2624 60.4062 34.4099 59.4329 34.4447 59.2746C34.5054 58.999 34.4799 58.9883 33.8489 59.0246L33.1896 59.0625L32.5734 60.7129C32.2344 61.6205 31.9105 62.3344 31.8535 62.2992C31.7966 62.264 31.7496 61.9714 31.7493 61.6489C31.7489 61.3264 31.7124 60.5984 31.6682 60.0312L31.588 59H30.9775C30.5993 59 30.3481 59.0594 30.317 59.1562ZM41.5773 59.2188C41.5418 59.3391 41.3664 60.4781 41.1875 61.75C41.0086 63.0219 40.8332 64.161 40.7977 64.2812C40.7386 64.4814 40.8668 64.5 42.3041 64.5C43.8494 64.5 43.875 64.4954 43.8768 64.2188C43.8776 64.064 43.9124 63.811 43.9538 63.6562C44.0274 63.3815 44.0057 63.375 43.0146 63.375H42V63.0103C42 62.3012 42.0726 62.25 43.0759 62.25C43.7766 62.25 44 62.2085 44 62.0781C44 61.9836 44.0351 61.7305 44.0781 61.5156L44.1562 61.125H43.1898C42.3597 61.125 42.234 61.0971 42.2991 60.9272C42.3409 60.8185 42.375 60.6216 42.375 60.4897C42.375 60.2732 42.4726 60.25 43.3789 60.25C44.4585 60.25 44.4249 60.2722 44.5584 59.4688L44.6364 59H43.1391C41.8211 59 41.6341 59.0261 41.5773 59.2188ZM51.575 59.3937C51.2984 61.1465 50.875 64.1035 50.875 64.2819C50.875 64.473 51.0122 64.5 51.9815 64.5C53.3657 64.5 53.7681 64.2765 54.3004 63.2114C54.6141 62.5836 54.6645 62.3381 54.6716 61.3989C54.6805 60.2466 54.536 59.7976 53.9997 59.3123C53.7812 59.1144 53.5074 59.0534 52.6825 59.0187L51.641 58.975L51.575 59.3937ZM61.6985 61.4062C61.5075 62.7298 61.3214 63.9672 61.2849 64.1562C61.2214 64.4864 61.2391 64.5 61.7344 64.5C62.018 64.5 62.251 64.4579 62.2523 64.4062C62.2535 64.3546 62.4219 63.1875 62.6265 61.8125C62.8311 60.4375 62.9989 59.2422 62.9992 59.1562C62.9997 59.0584 62.8216 59 62.5229 59H62.0459L61.6985 61.4062ZM70.9475 59.6562C70.4336 60.8244 69 64.3274 69 64.415C69 64.4618 69.2174 64.5 69.483 64.5C69.9404 64.5 69.9775 64.47 70.1809 63.9375L70.3956 63.375H71.0656H71.7356L71.7741 63.9062C71.8114 64.4219 71.8262 64.4386 72.2812 64.4762C72.8446 64.5229 72.8265 64.7314 72.5021 61.9375C72.1388 58.8081 72.1929 59 71.675 59C71.2658 59 71.2169 59.0441 70.9475 59.6562ZM52.2635 61.3375C52.1804 61.9425 52.0799 62.6485 52.0402 62.9062C51.9726 63.3455 51.9884 63.375 52.2906 63.375C53.1256 63.375 53.6174 62.7746 53.7064 61.6466C53.7836 60.668 53.5872 60.324 52.9231 60.275L52.4146 60.2375L52.2635 61.3375ZM71.1432 61.4461C70.9958 61.8317 70.875 62.1704 70.875 62.1986C70.875 62.2269 71.0442 62.25 71.2511 62.25H71.6271L71.5462 61.5312C71.5017 61.136 71.4532 60.7972 71.4385 60.7787C71.4238 60.7601 71.2909 61.0605 71.1432 61.4461Z" fill="#E4332D"/>
</svg>
