<svg width="100" height="100" viewBox="0 0 100 100" fill="none" xmlns="http://www.w3.org/2000/svg">
<rect width="100" height="100" fill="#EBF9F6"/>
<g clip-path="url(#clip0_7_2)">
<path fill-rule="evenodd" clip-rule="evenodd" d="M82.352 63.6898C75.0914 68.2119 68.8415 73.7938 64.5266 81.2669C63.6262 82.8274 62.6739 82.5326 61.4348 82.2285C53.6497 80.3187 45.8485 80.3293 38.0926 82.3121C36.5387 82.7092 35.8229 82.2497 35.0858 81.0119C30.9794 74.1086 25.3616 68.6701 18.542 64.5026C17.0492 63.5902 16.9031 62.7721 17.2909 61.2023C19.1834 53.5473 19.1715 45.8498 17.2551 38.2001C16.8912 36.7418 17.0771 35.933 18.4131 35.1349C25.3882 30.9647 31.0006 25.3948 35.2013 18.4224C35.5666 17.8154 35.9172 17.2125 36.7738 17.7198C40.8072 28.4228 45.2735 38.9451 49.9018 49.4024C52.6881 51.8978 56.3895 52.449 59.6512 53.9271C67.1522 57.3297 75.0503 59.8145 82.352 63.6898Z" fill="#0E475F"/>
<path fill-rule="evenodd" clip-rule="evenodd" d="M82.3521 63.6899C75.0503 59.8146 67.1522 57.3297 59.6486 53.9259C56.3868 52.4477 52.6855 51.8966 49.8992 49.4011C54.5527 38.9292 58.9752 28.3631 62.986 17.6269C64.4642 17.2431 64.6275 18.5672 65.1388 19.3494C69.2718 25.6644 74.4619 30.8957 80.931 34.8215C82.109 35.5387 83.1223 35.9729 82.6296 37.9199C80.5804 46.0159 80.4396 54.1636 82.785 62.2635C82.9457 62.816 83.0705 63.3897 82.3521 63.6899Z" fill="#13878A"/>
<path fill-rule="evenodd" clip-rule="evenodd" d="M62.9861 17.6279C58.9754 28.3641 54.5529 38.9303 49.8993 49.4022C45.2723 38.9449 40.8046 28.4225 36.7712 17.7196C38.855 17.2707 40.8431 18.0423 42.7941 18.4447C49.6257 19.8538 56.2754 18.2641 62.9861 17.6279Z" fill="#BED4CF"/>
</g>
<defs>
<clipPath id="clip0_7_2">
<rect width="64" height="64" fill="white" transform="translate(18 18)"/>
</clipPath>
</defs>
</svg>
