<svg width="100" height="100" viewBox="0 0 100 100" fill="none" xmlns="http://www.w3.org/2000/svg">
<rect width="100" height="100" fill="#DBF5FF"/>
<path fill-rule="evenodd" clip-rule="evenodd" d="M77.0983 24.7134C75.9821 26.6268 74.3947 28.0407 72.5476 29.1922C67.2744 32.4842 61.5665 34.5768 55.4043 35.4376C49.7911 36.2207 44.175 36.8332 38.4982 37.066C33.1685 37.2847 28.0308 38.5138 23.6762 41.9201C22.5657 42.7879 21.5398 43.7432 20.5295 44.8805C19.8663 43.2098 19.2313 41.628 18.609 40.042C17.7567 37.8689 16.934 35.6859 16.0479 33.5284C15.8503 33.043 15.9336 32.8172 16.3315 32.5364C19.3865 30.3803 22.79 29.1371 26.456 28.4824C30.4183 27.7754 34.3228 28.2044 38.2258 28.869C42.2982 29.5633 46.3748 30.1362 50.5178 30.2505C53.1621 30.3224 55.815 30.472 58.4452 30.3013C63.6493 29.9612 68.8153 29.3036 73.5452 26.8342C74.7658 26.2007 75.913 25.4401 77.0983 24.7134Z" fill="#26ADE3"/>
<path fill-rule="evenodd" clip-rule="evenodd" d="M71.4782 59.9313C72.1329 57.9177 72.7905 55.904 73.4424 53.889C74.1141 51.8175 74.7928 49.7475 75.4391 47.6704C75.5745 47.2372 75.7509 47.0523 76.2335 47.058C78.5449 47.0848 80.8562 47.0834 83.1676 47.0608C83.66 47.0566 83.8167 47.1793 83.8152 47.7014C83.7955 54.5607 83.7941 61.4171 83.8167 68.2764C83.8195 68.8507 83.6191 68.9438 83.1139 68.9283C81.8313 68.8987 80.5444 68.886 79.2631 68.934C78.662 68.958 78.5505 68.7548 78.5533 68.1974C78.5745 63.0088 78.5646 57.8203 78.5646 52.6317C78.5646 52.3608 78.5646 52.0857 78.5646 51.8302C78.1639 51.7653 78.2584 52.0363 78.2133 52.1731C76.4734 57.531 74.7349 62.8917 73.0177 68.2566C72.8639 68.7378 72.6917 68.9791 72.1315 68.934C71.3399 68.8747 70.5384 68.8874 69.7454 68.9283C69.2614 68.9551 69.1005 68.7646 68.965 68.3201C67.3479 63.0568 65.7012 57.8019 64.0658 52.5428C63.9896 52.3015 63.967 52.0377 63.5945 51.7992C63.5945 52.1294 63.5945 52.3876 63.5945 52.6416C63.5945 57.8048 63.5818 62.9665 63.61 68.1311C63.6128 68.7646 63.4703 68.9763 62.817 68.934C61.8701 68.8747 60.9134 68.8803 59.9666 68.934C59.3429 68.9664 59.1496 68.8027 59.1524 68.1452C59.1778 61.3621 59.175 54.5847 59.1538 47.8016C59.1538 47.2428 59.2624 47.0481 59.8607 47.058C62.1721 47.0932 64.4834 47.0876 66.7948 47.058C67.2731 47.0523 67.4622 47.2231 67.5892 47.6534C68.7703 51.6045 69.9669 55.5513 71.1593 59.5009C71.2002 59.642 71.2595 59.7789 71.3117 59.9186C71.3695 59.9242 71.4246 59.927 71.4782 59.9313Z" fill="#075489"/>
<path fill-rule="evenodd" clip-rule="evenodd" d="M79.0598 24.0518C80.612 27.9407 82.1049 31.7069 83.6233 35.4604C83.8067 35.9119 83.5993 36.0996 83.3001 36.331C79.9163 38.9485 76.1869 40.79 71.9353 41.5097C66.6536 42.4071 61.3395 42.8417 55.9886 42.4988C51.9657 42.242 47.9779 41.6395 43.9916 41.0567C40.8689 40.5995 37.7434 40.1099 34.5755 40.354C30.6357 40.6588 26.9373 41.7947 23.5056 43.7702C23.2473 43.9184 23.0286 44.1879 22.594 44.0143C24.3959 42.2745 26.3729 40.8845 28.6475 39.8954C32.5492 38.1964 36.6611 37.6193 40.8689 37.45C44.4587 37.3046 48.0513 37.179 51.6157 36.6936C55.8645 36.1165 60.0794 35.3404 64.1546 34.0055C68.6912 32.5225 72.9583 30.4877 76.4945 27.159C77.4498 26.2601 78.2202 25.2131 79.0598 24.0518Z" fill="#89C557"/>
<path fill-rule="evenodd" clip-rule="evenodd" d="M52.8024 57.583C53.1115 57.8327 53.5108 57.8609 53.8608 58.0049C56.0437 58.9037 57.3969 60.9272 57.2982 63.168C57.1951 65.5415 55.5216 67.6426 53.1651 68.3735C51.8556 68.7785 50.5151 68.9224 49.1477 68.921C45.7075 68.9125 42.2659 68.9069 38.8257 68.9309C38.2965 68.9337 38.1385 68.8109 38.1399 68.2606C38.1597 61.4296 38.1597 54.5985 38.1399 47.7689C38.1385 47.2172 38.2994 47.0944 38.8271 47.0972C42.5763 47.1226 46.3256 47.1029 50.072 47.124C51.6087 47.1325 53.0691 47.4288 54.3631 48.3503C56.0874 49.5779 56.8551 51.243 56.6406 53.3286C56.4346 55.3379 55.1702 56.5232 53.3923 57.2626C53.1891 57.3473 52.9379 57.3445 52.8024 57.583ZM48.6454 55.757C48.7668 55.7203 48.8825 55.6681 49.0066 55.6484C50.3655 55.4127 51.1501 54.4927 51.1148 53.1691C51.0837 51.9175 50.2258 50.9989 48.8585 50.9311C47.223 50.8507 45.5848 50.8902 43.9479 50.8719C43.677 50.869 43.502 50.9424 43.5119 51.2543C43.5585 52.7585 43.4159 54.2669 43.5895 55.774C43.5839 55.8149 43.5726 55.8586 43.574 55.9024C43.574 55.9151 43.6107 55.9348 43.6304 55.9348C45.2221 55.932 46.8124 55.932 48.4027 55.9193C48.4845 55.9179 48.5621 55.8135 48.6454 55.757ZM48.9192 59.6558C48.9756 59.6206 49.0334 59.5867 49.0913 59.5514C49.0574 59.5274 49.0222 59.4865 48.9869 59.4865C47.2019 59.4837 45.4168 59.4837 43.6318 59.4893C43.55 59.4893 43.5175 59.5669 43.5754 59.6488C43.557 61.2602 43.5387 62.8731 43.5161 64.4888C43.5119 64.7541 43.5754 64.9347 43.8943 64.9305C45.7386 64.8952 47.5927 65.0716 49.4229 64.7879C50.8156 64.5735 51.6722 63.5434 51.6693 62.2692C51.6637 61.1262 50.7521 60.082 49.5118 59.7984C49.3114 59.7546 49.1181 59.7038 48.9192 59.6558ZM48.7809 65.1534C48.7809 65.1294 48.7809 65.104 48.7809 65.0814C47.0989 65.0814 45.4168 65.0814 43.7348 65.0814C43.7348 65.104 43.7348 65.1294 43.7348 65.1534C45.4183 65.1534 47.0989 65.1534 48.7809 65.1534Z" fill="#055389"/>
<path fill-rule="evenodd" clip-rule="evenodd" d="M36.6285 68.9185C34.8068 68.9185 33.0133 68.9129 31.2198 68.9213C30.8671 68.9227 30.8205 68.6814 30.7429 68.4303C30.3915 67.3056 30.0119 66.1895 29.6846 65.0578C29.5519 64.5992 29.36 64.3974 28.8421 64.4059C26.7622 64.4383 24.6823 64.4355 22.6038 64.4087C22.1 64.4002 21.8883 64.5667 21.7515 65.0479C21.4283 66.1796 21.0332 67.2873 20.6833 68.4119C20.5831 68.7351 20.473 68.9354 20.0666 68.927C18.681 68.9016 17.2981 68.9171 15.8179 68.9171C16.2003 67.7544 16.5545 66.6509 16.9284 65.5517C18.9462 59.6138 20.9768 53.6816 22.9791 47.7368C23.1357 47.2711 23.3178 47.0877 23.8258 47.0975C25.5459 47.13 27.266 47.1215 28.9875 47.1018C29.384 47.0975 29.5674 47.2175 29.6959 47.6098C31.9818 54.5932 34.2847 61.571 36.5819 68.553C36.6116 68.6462 36.6073 68.752 36.6285 68.9185ZM25.8676 52.9535C25.7999 52.9535 25.7321 52.9507 25.663 52.9479C24.8996 55.3016 24.1362 57.6553 23.3686 60.0047C23.2402 60.3998 23.4518 60.4266 23.7538 60.4238C25.0619 60.4153 26.3699 60.4083 27.6752 60.4294C28.1253 60.4337 28.2001 60.2785 28.0689 59.8791C27.7641 58.9563 27.4889 58.025 27.1954 57.0951C26.758 55.7164 26.3107 54.335 25.8676 52.9535ZM27.7824 60.6961C27.7937 60.6707 27.805 60.6482 27.8163 60.6213C26.401 60.6213 24.9857 60.6213 23.5689 60.6213C23.5689 60.6482 23.5689 60.6707 23.5704 60.6961C24.9744 60.6961 26.3784 60.6961 27.7824 60.6961Z" fill="#055389"/>
<path fill-rule="evenodd" clip-rule="evenodd" d="M48.9191 59.656C47.1383 59.6532 45.3575 59.6504 43.5754 59.649C43.5161 59.5657 43.55 59.4895 43.6318 59.4895C45.4168 59.4839 47.2032 59.4839 48.9868 59.4867C49.0221 59.4867 49.0574 59.5276 49.0913 59.5516C49.0334 59.5883 48.9756 59.6208 48.9191 59.656Z" fill="#10537D"/>
<path fill-rule="evenodd" clip-rule="evenodd" d="M48.7809 65.1535C47.0989 65.1535 45.4169 65.1535 43.7349 65.1535C43.7349 65.1295 43.7349 65.1041 43.7349 65.0815C45.4169 65.0815 47.0975 65.0815 48.7809 65.0815C48.7809 65.1041 48.7809 65.1295 48.7809 65.1535Z" fill="#074C7B"/>
<path fill-rule="evenodd" clip-rule="evenodd" d="M43.588 55.7728C45.2728 55.7672 46.9591 55.7616 48.6439 55.7573C48.5606 55.8138 48.483 55.9182 48.3998 55.9182C46.8095 55.9309 45.2192 55.9309 43.6275 55.9337C43.6077 55.9337 43.571 55.9125 43.571 55.9013C43.571 55.8561 43.5823 55.8138 43.588 55.7728Z" fill="#10537D"/>
<path fill-rule="evenodd" clip-rule="evenodd" d="M27.7826 60.6959C26.3786 60.6959 24.9745 60.6959 23.5705 60.6959C23.5705 60.6705 23.5691 60.6479 23.5691 60.6211C24.9844 60.6211 26.3997 60.6211 27.8164 60.6211C27.8052 60.6479 27.7939 60.6705 27.7826 60.6959Z" fill="#074C7B"/>
</svg>
