<svg width="100" height="100" viewBox="0 0 100 100" fill="none" xmlns="http://www.w3.org/2000/svg">
<rect width="100" height="100" fill="#595C62"/>
<path d="M32.6787 58H28.9053L27.4053 54.0977H20.5381L19.1202 58H15.4405L22.1319 40.8203H25.7998L32.6787 58ZM26.292 51.2031L23.9248 44.8281L21.6045 51.2031H26.292ZM45.8825 51.6836L49.2458 52.75C48.7302 54.625 47.8708 56.0195 46.6677 56.9336C45.4723 57.8398 43.9528 58.293 42.1091 58.293C39.8278 58.293 37.9528 57.5156 36.4841 55.9609C35.0153 54.3984 34.2809 52.2656 34.2809 49.5625C34.2809 46.7031 35.0192 44.4844 36.4958 42.9062C37.9723 41.3203 39.9137 40.5273 42.32 40.5273C44.4216 40.5273 46.1286 41.1484 47.4411 42.3906C48.2223 43.125 48.8083 44.1797 49.1989 45.5547L45.7653 46.375C45.5622 45.4844 45.1364 44.7812 44.488 44.2656C43.8473 43.75 43.0661 43.4922 42.1442 43.4922C40.8708 43.4922 39.8356 43.9492 39.0387 44.8633C38.2497 45.7773 37.8552 47.2578 37.8552 49.3047C37.8552 51.4766 38.2458 53.0234 39.027 53.9453C39.8083 54.8672 40.8239 55.3281 42.0739 55.3281C42.9958 55.3281 43.7887 55.0352 44.4528 54.4492C45.1169 53.8633 45.5934 52.9414 45.8825 51.6836ZM68.0863 58H64.3128L62.8128 54.0977H55.9456L54.5277 58H50.848L57.5394 40.8203H61.2073L68.0863 58ZM61.6995 51.2031L59.3323 44.8281L57.012 51.2031H61.6995ZM70.2978 58V40.8203H75.8642C77.9736 40.8203 79.3486 40.9062 79.9892 41.0781C80.9736 41.3359 81.7978 41.8984 82.4619 42.7656C83.1259 43.625 83.458 44.7383 83.458 46.1055C83.458 47.1602 83.2666 48.0469 82.8838 48.7656C82.5009 49.4844 82.0127 50.0508 81.4189 50.4648C80.833 50.8711 80.2353 51.1406 79.6259 51.2734C78.7978 51.4375 77.5986 51.5195 76.0283 51.5195H73.7666V58H70.2978ZM73.7666 43.7266V48.6016H75.665C77.0322 48.6016 77.9463 48.5117 78.4072 48.332C78.8681 48.1523 79.2275 47.8711 79.4853 47.4883C79.7509 47.1055 79.8838 46.6602 79.8838 46.1523C79.8838 45.5273 79.7002 45.0117 79.333 44.6055C78.9658 44.1992 78.5009 43.9453 77.9384 43.8438C77.5244 43.7656 76.6923 43.7266 75.4423 43.7266H73.7666Z" fill="#F8F8F8"/>
</svg>
