<svg width="100" height="100" viewBox="0 0 100 100" fill="none" xmlns="http://www.w3.org/2000/svg">
<rect width="100" height="100" fill="white"/>
<path fill-rule="evenodd" clip-rule="evenodd" d="M60.055 48.3612C59.3737 48.3612 58.6286 48.5365 58.031 48.3147C57.3417 48.0584 57.5994 47.146 57.3484 46.5471C56.4732 44.4553 54.9127 43.3597 52.7107 43.0569C52.2193 42.9892 52.0361 43.1485 51.9365 43.6346C51.0891 47.7277 50.2312 51.8169 49.3321 55.8981C49.2179 56.4213 49.3786 56.5169 49.8049 56.6219C52.3123 57.2368 54.8914 56.1544 56.2341 53.6855C56.7614 52.7173 57.3364 52.4119 58.3604 52.5194C59.1891 52.6058 60.0364 52.5619 60.8718 52.5274C61.3631 52.5075 61.4282 52.6801 61.3339 53.1171C60.4348 57.2593 56.8198 60.6313 52.5607 61.2821C47.0903 62.1161 42.5722 58.934 41.2853 53.3415C40.1099 48.2351 42.5881 42.4194 47.0598 39.9213C50.866 37.7937 56.011 37.8933 59.2422 41.0435C61.1666 42.9188 62.1759 45.1977 62.4083 47.8512C62.4389 48.2058 62.3433 48.3865 61.9422 48.3718C61.3153 48.3479 60.6872 48.3652 60.0576 48.3652C60.055 48.3652 60.055 48.3612 60.055 48.3612Z" fill="#EC2733"/>
<path fill-rule="evenodd" clip-rule="evenodd" d="M67.9861 60.93C65.6288 60.93 63.2701 60.918 60.9141 60.9366C60.3882 60.9406 60.1837 60.8915 60.3231 60.2487C61.7335 53.7066 63.1107 47.1591 64.476 40.6077C64.5889 40.0699 64.8014 39.9092 65.3552 39.9132C70.0699 39.9371 74.7845 39.9384 79.4979 39.9132C80.1261 39.9105 80.2469 40.0407 80.0743 40.6516C79.8033 41.6051 79.6001 42.5813 79.4501 43.5614C79.3691 44.0886 79.1313 44.171 78.6692 44.167C76.5748 44.1471 74.4791 44.1776 72.3834 44.1444C71.8216 44.1364 71.5361 44.2573 71.4431 44.8642C71.2917 45.8443 71.0699 46.8178 70.8282 47.7807C70.7073 48.2628 70.8548 48.3624 71.3076 48.3597C73.4551 48.3425 75.604 48.3743 77.7515 48.3385C78.3517 48.3278 78.4434 48.5032 78.3079 49.041C78.0675 50.0065 77.8524 50.9787 77.6943 51.9615C77.6147 52.4595 77.4154 52.5976 76.928 52.5936C74.8058 52.5684 72.6848 52.6149 70.5639 52.5644C69.9397 52.5485 69.7644 52.8035 69.6688 53.3241C69.4988 54.2484 69.3155 55.1714 69.0884 56.0825C68.9662 56.5792 69.0818 56.716 69.5971 56.7107C71.7459 56.6854 73.8934 56.7213 76.0422 56.6854C76.6146 56.6748 76.681 56.8714 76.5681 57.3508C76.3344 58.3429 76.11 59.3363 75.924 60.3376C75.835 60.8144 75.6159 60.9472 75.1378 60.9406C72.7539 60.9154 70.3687 60.9286 67.9861 60.93Z" fill="#EC2733"/>
<path fill-rule="evenodd" clip-rule="evenodd" d="M37.3461 34.6753C37.872 37.4935 38.3647 40.1005 38.8455 42.7102C39.9212 48.5444 40.9757 54.3826 42.0833 60.2089C42.2161 60.9088 42.0089 60.9792 41.4126 60.9725C39.0832 60.946 36.7524 60.942 34.423 60.9765C33.8386 60.9845 33.6221 60.8172 33.5172 60.2288C32.6194 55.2113 31.6871 50.2018 30.7575 45.1897C30.7097 44.9267 30.6619 44.6943 30.8292 44.4446C32.9661 41.2533 35.0936 38.0552 37.3461 34.6753Z" fill="#EC2733"/>
<path fill-rule="evenodd" clip-rule="evenodd" d="M28.7973 47.5244C29.4547 51.0398 30.0682 54.3268 30.6831 57.6112C30.8611 58.5607 31.0338 59.513 31.225 60.4599C31.2834 60.7454 31.3618 60.9672 30.9275 60.9659C27.2965 60.9592 23.6669 60.9632 19.854 60.9632C22.8555 56.4517 25.7732 52.0704 28.7973 47.5244Z" fill="#EC2733"/>
</svg>
