<svg width="100" height="100" viewBox="0 0 100 100" fill="none" xmlns="http://www.w3.org/2000/svg">
<g clip-path="url(#clip0_7_64)">
<rect width="100" height="100" fill="white"/>
<rect width="100" height="100" fill="#FFF29F"/>
<path fill-rule="evenodd" clip-rule="evenodd" d="M58.6756 47.0008C57.4083 47.3649 56.1053 47.072 54.8266 47.1982L54.7554 47.1853C54.163 45.7285 53.242 44.9532 51.6056 45.6832C50.1861 45.9373 50.2509 46.5815 51.2285 47.3358C52.1381 48.0367 53.3262 48.0189 54.3669 48.3879C56.6945 49.2134 57.5248 50.3383 57.5718 52.7629C57.5847 53.4088 57.2917 54.142 57.9392 54.6777C57.2432 56.1167 55.6424 56.4242 54.566 57.384C52.6367 58.0218 50.683 57.9813 48.7472 57.4552C45.9729 56.6994 44.7687 54.7004 45.2089 51.7141C45.455 51.6979 45.701 51.6688 45.947 51.672C47.3342 51.6914 48.7456 51.2738 49.4027 53.3149C49.8268 54.6373 51.5571 54.6292 52.6852 53.6079C53.8975 53.3699 54.0497 52.7451 53.0494 52.109C52.1964 51.57 51.2058 51.146 50.11 51.3629C49.8851 50.976 49.4934 50.9129 49.1065 50.8368C48.438 50.2994 47.7696 49.7621 47.1011 49.2263C45.9405 46.1575 46.2983 45.0147 49.2813 42.2648C49.8511 42.5108 50.1651 41.8148 50.6879 41.886C56.6799 42.1434 57.002 42.3505 58.6756 47.0008Z" fill="#2B3672"/>
<path fill-rule="evenodd" clip-rule="evenodd" d="M28.4241 57.4018C27.2798 57.8372 26.0917 57.5685 24.9264 57.5847C23.6007 57.6025 24.1705 56.4404 23.9228 55.7816C23.6768 55.1309 24.4035 53.9218 23.0682 53.9121C21.9562 53.904 20.6695 53.3197 19.9637 55.0646C18.8 57.9441 18.6737 57.8939 14.3877 57.4504C16.9111 52.3162 19.3924 47.2694 21.8721 42.2227C22.6134 42.2372 23.3547 42.2615 24.096 42.2631C26.6 42.2696 26.6097 42.344 26.88 44.7881C27.3445 48.9981 27.9029 53.1967 28.4241 57.4018ZM22.1715 50.0259C23.8014 50.1198 23.8775 49.9466 23.0601 48.0334C22.5762 48.6307 22.3091 49.2943 22.1715 50.0259Z" fill="#2B3672"/>
<path fill-rule="evenodd" clip-rule="evenodd" d="M69.1626 51.2543C67.7819 51.8435 66.2928 51.1879 64.9008 51.6379C63.3891 50.9824 63.7727 52.4488 63.6416 52.949C63.3632 53.9994 64.2842 53.8975 64.9575 53.9088C66.1358 53.9282 67.489 53.5673 68.4504 54.0286C69.857 54.7035 68.3047 56.2072 68.7968 57.2868L68.7936 57.2884C68.6786 57.3192 68.5831 57.3791 68.5071 57.4681C65.5321 57.5102 62.5571 57.5522 59.5821 57.6008C58.9978 57.6089 58.632 57.4794 58.7648 56.7559C59.6436 51.9989 60.4999 47.2353 61.3739 42.4767C61.4338 42.1513 61.6815 41.9522 62.0003 41.8535C63.6853 42.7972 65.5094 42.0898 67.2575 42.2954C68.418 42.4314 69.9007 41.7969 70.6533 42.5981C71.1551 43.1306 70.6808 44.5792 70.642 45.6167C69.1092 46.3807 67.4307 45.6491 65.8639 46.0813C65.0983 46.0376 64.6904 46.4099 64.7066 47.1657C64.7228 47.9961 65.3751 47.8795 65.9189 47.9168C67.0163 47.9945 68.3387 47.4797 69.1577 48.1418C70.1321 48.9251 68.7774 50.186 69.1626 51.2543Z" fill="#2C3874"/>
<path fill-rule="evenodd" clip-rule="evenodd" d="M40.9957 56.9485C38.4658 58.3939 35.8437 58.279 33.288 57.1784C30.3518 55.9142 29.0845 52.5686 29.9763 48.8928C30.4263 47.0411 31.3732 45.4614 32.7036 44.1066C32.8493 43.9642 32.9966 43.8201 33.1423 43.6761L33.1083 43.7036C33.7201 43.7424 34.2623 43.7019 34.1005 42.8457L34.1782 42.8004C36.3115 42.6272 38.4108 42.0461 40.5813 42.2889C41.4538 42.3877 42.3715 42.3456 42.59 43.4996C42.3634 44.5825 42.0365 45.6297 41.4619 46.5863C40.2366 45.8854 38.9773 45.8304 37.6857 46.3872C37.1078 46.1072 37.0933 46.541 37.0285 46.9084L37.0641 46.8744C35.4925 47.0751 34.6702 48.2097 34.4291 49.537C34.1652 50.9953 33.9111 52.6269 35.4617 53.7469C36.7987 54.7132 38.134 54.2827 39.4872 53.857C39.9906 54.8864 40.4939 55.9175 40.9957 56.9485Z" fill="#2B3672"/>
<path fill-rule="evenodd" clip-rule="evenodd" d="M77.8236 57.4501C73.6752 57.981 73.6703 57.9794 74.3533 54.0316C74.758 51.7009 75.1724 49.3701 75.6013 47.0442C75.7146 46.4291 75.7729 46.0406 74.9085 45.929C71.8089 45.5211 71.8138 45.4822 72.8642 42.2612C75.4815 42.2742 78.0972 42.292 80.716 42.2968C84.128 42.3033 84.128 42.2985 84.1167 45.6085C83.1488 46.3482 81.9915 45.6959 80.9718 46.0406C80.1528 45.9953 79.7514 46.3627 79.6348 47.1979C79.4584 48.4653 79.01 49.7165 78.9858 50.9806C78.9437 53.0378 77.6051 54.9737 78.4322 57.0956L78.3027 57.1928C77.966 56.95 77.8673 57.1491 77.8236 57.4501Z" fill="#2C3874"/>
<path fill-rule="evenodd" clip-rule="evenodd" d="M41.462 46.5845C42.0366 45.6279 42.3652 44.5823 42.5901 43.4978C42.6743 43.4638 42.7504 43.4185 42.8184 43.3635C43.6115 43.3797 43.9368 43.9559 44.2783 44.5435C44.4337 44.8089 44.5357 45.3527 45.0116 45.008C45.1977 44.8736 45.1896 44.4674 45.2705 44.1841C46.0928 43.5367 46.9166 42.8892 47.7373 42.2418C48.2487 42.4571 48.7716 41.6737 49.2782 42.2612C46.2951 45.0112 45.939 46.1539 47.0979 49.2228C46.6431 49.676 46.2207 50.1405 46.4812 50.8624C45.9827 51.034 45.4405 51.1408 45.2074 51.7106C44.7672 54.6969 45.9714 56.6958 48.7457 57.4517C50.6799 57.9778 52.6335 58.0182 54.5645 57.3805C55.4078 57.4436 55.2459 57.79 54.885 58.3209C53.0285 61.0563 49.4627 61.5889 46.9361 59.4717C45.8225 58.5427 44.9177 57.421 44.3512 56.097C43.7976 54.8037 43.2942 54.8798 42.4785 55.8639C42.1013 56.3187 41.496 56.589 40.9942 56.9451C40.4908 55.9141 39.9891 54.8846 39.4873 53.8536C39.5262 53.7872 39.5423 53.716 39.5359 53.6383C42.9916 50.6747 43.3007 49.5368 41.462 46.5845Z" fill="#F0D41B"/>
<path fill-rule="evenodd" clip-rule="evenodd" d="M28.403 57.4341C27.8835 53.229 27.3234 49.0303 26.8573 44.8188C26.587 42.3763 26.5789 42.3018 24.0733 42.2937C23.332 42.2921 22.5907 42.2662 21.8494 42.2517C22.6004 41.4003 26.3183 40.7172 27.3121 41.2222C27.8155 41.478 27.7119 41.9619 27.7637 42.3472C28.3448 46.6364 28.8951 50.9306 29.4551 55.2247C29.5798 56.1878 29.0796 56.8514 28.403 57.4341Z" fill="#252857"/>
<path fill-rule="evenodd" clip-rule="evenodd" d="M84.1184 45.6088C84.1314 42.2987 84.1314 42.3036 80.7178 42.2971C78.1005 42.2923 75.4849 42.2745 72.866 42.2615C73.2237 41.4037 73.8954 41.1495 74.7824 41.1576C77.9953 41.1835 81.2098 41.1932 84.4243 41.1528C85.3777 41.1414 85.873 41.3502 85.4732 42.3894C85.0588 43.4755 85.5978 44.9678 84.1184 45.6088Z" fill="#262A5C"/>
<path fill-rule="evenodd" clip-rule="evenodd" d="M57.9393 54.6762C57.2935 54.1404 57.5848 53.4088 57.5719 52.7614C57.5249 50.3351 56.6946 49.2118 54.3671 48.3863C53.3247 48.0157 52.1366 48.0351 51.2286 47.3342C50.251 46.5816 50.1862 45.9358 51.6057 45.6816C52.1544 47.2339 53.4687 47.1821 54.7555 47.1853L54.8267 47.1983C58.4831 49.1212 59.171 50.115 58.7551 52.8536C58.6498 53.5399 58.4864 54.1922 57.9393 54.6762Z" fill="#252857"/>
<path fill-rule="evenodd" clip-rule="evenodd" d="M70.6419 45.6133C70.6791 44.5742 71.1534 43.1255 70.6532 42.5946C69.9006 41.7934 68.418 42.4279 67.2574 42.292C65.5094 42.0864 63.6852 42.7937 62.0002 41.8501C62.6056 41.1978 63.3906 41.1541 64.208 41.1606C66.1989 41.1768 68.1962 41.2512 70.1806 41.1379C71.7539 41.0489 72.5632 41.2868 71.8785 43.1094C71.5467 43.998 71.8348 45.1569 70.6419 45.6133Z" fill="#262A5C"/>
<path fill-rule="evenodd" clip-rule="evenodd" d="M68.7951 57.2854C68.303 56.2058 69.8552 54.7021 68.4487 54.0271C67.4872 53.5658 66.1325 53.9252 64.9557 53.9074C64.284 53.896 63.363 53.9996 63.6398 52.9475C63.7709 52.4474 63.3889 50.9809 64.8991 51.6365C64.6531 52.4085 64.6612 52.9783 65.7424 52.8812C66.3558 52.8261 66.9903 52.7954 67.5957 52.8893C68.4988 53.0301 70.0818 52.3309 70.166 53.3748C70.2696 54.6487 70.4573 56.4227 68.7951 57.2854Z" fill="#2A2D5C"/>
<path fill-rule="evenodd" clip-rule="evenodd" d="M78.4323 57.0958C77.6052 54.9722 78.9421 53.038 78.9858 50.9808C79.0117 49.7167 79.4585 48.4655 79.6349 47.1981C79.7514 46.3629 80.1529 45.9955 80.9719 46.0408C80.4005 49.2068 79.8291 52.3712 79.2642 55.5371C79.1542 56.1522 79.0862 56.777 78.4323 57.0958Z" fill="#2A2D5C"/>
<path fill-rule="evenodd" clip-rule="evenodd" d="M58.6757 47.0007C57.002 42.3505 56.6799 42.145 50.6863 41.8827C51.1282 41.6626 51.57 41.4425 52.0119 41.2207C53.4427 41.1252 54.8752 41.067 56.2559 41.5542C58.1059 42.2048 59.2551 43.4528 59.5546 45.4469C59.6759 46.2384 59.5238 46.7952 58.6757 47.0007Z" fill="#2A2D5C"/>
<path fill-rule="evenodd" clip-rule="evenodd" d="M69.1625 51.2543C68.7789 50.1876 70.1337 48.9267 69.1576 48.1401C68.3386 47.4797 67.0163 47.9928 65.9188 47.9151C65.375 47.8779 64.7227 47.9944 64.7065 47.1641C64.6903 46.4082 65.0982 46.0359 65.8638 46.0796C65.8428 46.4778 65.88 46.8258 66.4125 46.8226C66.9726 46.8193 67.5423 46.7643 68.0894 46.8485C68.9618 46.9828 70.4898 46.3564 70.582 47.1965C70.7358 48.5755 70.9171 50.3673 69.1625 51.2543Z" fill="#2A2D5C"/>
<path fill-rule="evenodd" clip-rule="evenodd" d="M42.8183 43.3653C42.7503 43.4203 42.6742 43.4657 42.5901 43.4997C42.3715 42.3456 41.4538 42.3861 40.5814 42.2889C38.4108 42.0462 36.3115 42.6272 34.1782 42.8004C37.1322 40.9973 40.1783 40.4729 43.3832 42.1368C43.1954 42.5463 43.006 42.9558 42.8183 43.3653Z" fill="#2A2D5C"/>
<path fill-rule="evenodd" clip-rule="evenodd" d="M42.8184 43.3651C43.0061 42.9556 43.1939 42.5477 43.3832 42.1382C44.3269 42.5299 44.9306 43.2356 45.2721 44.1857C45.1912 44.469 45.1993 44.8752 45.0132 45.0096C44.5373 45.3543 44.4353 44.8105 44.2799 44.545C43.9384 43.9559 43.6115 43.3813 42.8184 43.3651Z" fill="#AE9C37"/>
<path fill-rule="evenodd" clip-rule="evenodd" d="M52.0136 41.2205C51.5717 41.4423 51.1298 41.6624 50.6879 41.8825C50.1651 41.8129 49.8495 42.5073 49.2814 42.2613C48.7748 41.6737 48.252 42.4587 47.7405 42.2418C48.8751 40.6945 50.505 41.2124 52.0136 41.2205Z" fill="#AE9C37"/>
<path fill-rule="evenodd" clip-rule="evenodd" d="M34.1006 42.8457C34.2625 43.7003 33.7202 43.7424 33.1084 43.7036C33.4386 43.4171 33.7704 43.1306 34.1006 42.8457Z" fill="#2A2D5C"/>
<path fill-rule="evenodd" clip-rule="evenodd" d="M77.8235 57.4504C77.8656 57.1478 77.9659 56.9487 78.3026 57.1931C78.1424 57.2805 77.9837 57.3663 77.8235 57.4504Z" fill="#2A2D5C"/>
<path fill-rule="evenodd" clip-rule="evenodd" d="M68.5054 57.4663C68.5814 57.3756 68.6753 57.3158 68.7919 57.2866C68.6964 57.3465 68.6009 57.4064 68.5054 57.4663Z" fill="#2A2D5C"/>
<path fill-rule="evenodd" clip-rule="evenodd" d="M45.2104 51.7126C45.4451 51.1428 45.9858 51.036 46.4843 50.8644C46.5863 50.8968 46.6834 50.9373 46.7756 50.9891C47.3697 51.4455 47.9621 51.3872 48.5545 50.9858C48.739 50.9356 48.9235 50.8855 49.108 50.8369C49.4949 50.913 49.8866 50.9761 50.1115 51.363C50.0549 53.1612 51.2397 53.5367 52.6884 53.6079C51.5602 54.6293 49.8283 54.639 49.4058 53.315C48.7503 51.2739 47.3389 51.6915 45.9501 51.6721C45.7009 51.6673 45.4565 51.698 45.2104 51.7126Z" fill="#252857"/>
<path fill-rule="evenodd" clip-rule="evenodd" d="M37.0658 46.8726C36.768 47.4051 36.4491 47.9279 36.174 48.4717C34.8208 51.1586 35.4909 53.9749 39.539 53.6399C39.5455 53.7176 39.5293 53.7888 39.4905 53.8552C38.1357 54.2809 36.8004 54.7098 35.4634 53.7451C33.9128 52.625 34.1669 50.9935 34.4307 49.5351C34.6719 48.2079 35.4942 47.0733 37.0658 46.8726Z" fill="#252857"/>
<path fill-rule="evenodd" clip-rule="evenodd" d="M37.6857 46.3854C37.4656 46.5586 37.2471 46.7318 37.0286 46.9066C37.0933 46.5392 37.1079 46.1054 37.6857 46.3854Z" fill="#252857"/>
<path fill-rule="evenodd" clip-rule="evenodd" d="M46.7756 50.9886C47.368 50.987 47.9604 50.987 48.5545 50.9854C47.9621 51.3868 47.3697 51.4434 46.7756 50.9886Z" fill="#2B3672"/>
</g>
<defs>
<clipPath id="clip0_7_64">
<rect width="100" height="100" fill="white"/>
</clipPath>
</defs>
</svg>
