<svg width="100" height="100" viewBox="0 0 100 100" fill="none" xmlns="http://www.w3.org/2000/svg">
<rect width="100" height="100" fill="#F3F9FF"/>
<path fill-rule="evenodd" clip-rule="evenodd" d="M60.5476 51.5391C60.6459 51.6839 60.6565 51.8552 60.6923 52.0199C60.6405 52.0478 60.6432 52.0916 60.6459 52.1447C60.6698 52.506 60.7388 52.8619 60.6977 53.2351C60.6498 53.6813 60.606 54.1196 60.4652 54.5552C60.3988 54.765 60.2846 54.9908 60.3484 55.2352L60.3497 55.2325C60.1903 55.2644 60.0442 55.3613 59.9898 55.4942C59.8596 55.8182 59.5263 55.9152 59.3257 56.1569C59.1186 56.4052 58.7334 56.3614 58.5276 56.6257C58.505 56.6536 58.4094 56.6496 58.3655 56.627C58.2885 56.5898 58.2274 56.6137 58.1544 56.6177C57.9512 56.6283 57.7945 56.7704 57.6218 56.797C57.0614 56.8807 56.493 56.8329 55.9299 56.8249C55.9139 56.8249 55.902 56.8063 55.886 56.801C55.6988 56.7465 55.5102 56.6483 55.3229 56.6509C54.7917 56.6615 54.3906 56.4172 53.9962 56.0984C53.8859 56.0108 53.7983 55.8873 53.6429 55.8209C53.3574 55.696 53.3175 55.5406 53.4158 55.271C53.202 55.3507 53.1768 55.2006 53.109 55.0665C52.9404 54.7398 52.9921 54.3427 52.7717 54.0373C52.7597 54.0187 52.7637 53.9894 52.7637 53.9642C52.7624 53.3573 52.7624 52.7503 52.7571 52.1434C52.7571 52.0159 52.8089 51.9721 52.9324 51.9748C53.2339 51.9814 53.526 52.0584 53.8395 51.9867C54.0772 51.9309 54.3388 51.9774 54.5885 51.9774C54.955 51.9747 55.1157 52.2271 54.9484 52.5564C54.8953 52.66 54.874 52.7769 54.9125 52.8579C55.0507 53.1461 54.9763 53.4463 55.0029 53.7384C55.0175 53.9005 54.9882 54.1023 55.0746 54.2165C55.4305 54.696 55.8834 55.0253 56.5262 54.9895C56.6935 54.9802 56.8648 55.0028 57.0335 55.0001C57.1464 55.0001 57.2951 55.028 57.3655 54.9696C57.5886 54.7796 57.8383 54.6641 58.1172 54.599C58.1624 54.5884 58.165 54.5738 58.1398 54.5366C58.0747 54.4476 58.165 54.4091 58.2075 54.3586C58.3018 54.2484 58.3815 54.1209 58.3974 53.9815C58.4359 53.6322 58.513 53.2922 58.4598 52.9283C58.3868 52.413 58.1929 51.9628 57.7546 51.7091C57.2725 51.4276 56.7732 51.1686 56.303 50.8685C55.8807 50.5989 55.4451 50.3718 54.9736 50.2058C54.9033 50.1818 54.8475 50.1208 54.8608 50.0371C54.8807 49.9069 54.801 49.8591 54.7001 49.8432C54.4039 49.7967 54.206 49.6041 54.0161 49.3983C53.8873 49.2588 53.8049 49.0424 53.546 49.1566C53.5831 49.0663 53.5566 48.9746 53.5181 48.8989C53.2445 48.3451 52.9749 47.786 52.9696 47.1538C52.9643 46.6359 52.8474 46.094 53.2193 45.6319C53.2525 45.588 53.2339 45.5057 53.2498 45.4446C53.3786 44.9917 53.4742 44.5123 54.044 44.3914C54.0745 44.3848 54.121 44.3649 54.0905 44.333C53.9205 44.1497 54.1476 44.1603 54.2087 44.1139C54.2591 44.0754 54.3508 44.0807 54.3986 44.0182C54.5672 43.7818 54.8515 43.657 55.0865 43.6424C55.5686 43.6119 56.0016 43.3861 56.4876 43.3794C56.8967 43.3741 57.2991 43.41 57.7068 43.4219C57.9472 43.4286 58.1597 43.5906 58.3881 43.6052C58.6564 43.6211 58.8862 43.7061 59.1159 43.8177C59.4346 43.9731 59.6219 44.2812 59.8902 44.4977C60.1053 44.6717 60.1757 44.9771 60.2594 45.252C60.4745 45.9692 60.4692 46.7036 60.448 47.4407C60.444 47.5948 60.3643 47.6067 60.2461 47.6067C59.8331 47.6054 59.42 47.6067 59.007 47.6067C58.752 47.6067 58.497 47.6067 58.1823 47.6067C58.3084 47.4726 58.2991 47.361 58.3045 47.2495C58.3257 46.8218 58.1995 46.4194 58.0973 46.013C58.011 45.6624 57.8064 45.3848 57.4425 45.2945C57.1796 45.2294 56.9073 45.2188 56.6244 45.2241C55.8542 45.2361 55.5407 45.5216 55.303 46.1525C55.1317 46.6053 55.0932 47.0927 55.3867 47.5151C55.5925 47.8126 55.6868 48.2256 56.1357 48.3146C56.3243 48.3518 56.4345 48.5709 56.5992 48.6413C57.0308 48.8272 57.4306 49.0609 57.8277 49.3066C58.0375 49.4368 58.3071 49.4647 58.505 49.5988C58.8994 49.8697 59.339 50.0809 59.6631 50.4568C59.9274 50.7609 60.2368 51.0292 60.3563 51.4329C60.3842 51.5312 60.4666 51.5338 60.5476 51.5391Z" fill="#115EA8"/>
<path fill-rule="evenodd" clip-rule="evenodd" d="M45.6001 48.7516C45.604 48.6919 45.6094 48.6334 45.6147 48.5737C45.863 48.49 45.8232 48.2536 45.8524 48.0743C45.8803 47.9017 45.8683 47.725 45.9666 47.5683C46.0848 47.385 46.1313 47.1832 46.1751 46.9693C46.2282 46.7157 46.2442 46.4594 46.2774 46.2057C46.3146 45.9308 46.5005 45.7103 46.5297 45.4474C46.5656 45.1339 46.5098 44.8179 46.7342 44.539C46.8909 44.3451 46.8232 44.0887 46.8338 43.8563C46.8445 43.5549 46.9613 43.3928 47.211 43.3756C47.7808 43.3357 48.3478 43.4194 48.9163 43.4101C49.1752 43.4061 49.4289 43.4234 49.6573 43.5615H49.6547C49.668 43.8882 49.6135 44.2149 49.729 44.5416C49.7729 44.6691 49.8287 44.8046 49.8539 44.9454C49.9163 45.2986 49.8738 45.6824 50.1222 45.9906C50.1394 46.0118 50.1381 46.0516 50.1394 46.0835C50.1447 46.3558 50.2311 46.6161 50.259 46.887C50.2789 47.0729 50.2749 47.2987 50.3665 47.4621C50.5657 47.8193 50.6149 48.2005 50.6202 48.5883C50.6228 48.8247 50.7238 48.9601 50.9177 49.0558C50.9203 49.081 50.9243 49.1075 50.927 49.1328C50.826 49.3121 50.9137 49.4993 50.9256 49.676C50.9509 50.081 51.162 50.4555 51.1381 50.8726C51.1368 50.8845 51.162 50.8951 51.166 50.9097C51.247 51.182 51.3719 51.4516 51.3891 51.7265C51.4157 52.1369 51.5671 52.5101 51.6468 52.9019C51.753 53.4092 51.9164 53.9059 51.8925 54.4345C51.8858 54.5381 51.8951 54.6323 51.9642 54.7306C52.1674 55.0135 52.1767 55.3708 52.2975 55.6842C52.3892 55.9219 52.3812 56.1676 52.4516 56.408C52.5512 56.7493 52.4782 56.8436 52.1515 56.837C51.688 56.829 51.2284 56.837 50.7663 56.8343C50.49 56.8316 50.3227 56.6789 50.3386 56.4067C50.3532 56.1636 50.2629 55.9498 50.1899 55.7373C50.0398 55.3017 49.9907 54.8528 49.9495 54.4026C49.9216 54.0905 49.7662 53.9152 49.4435 53.9139C48.5298 53.9099 47.6108 53.951 46.701 53.8023C46.636 53.7917 46.6041 53.8182 46.5549 53.8488C46.381 53.9577 46.361 54.1224 46.3504 54.303C46.3398 54.4956 46.3836 54.6921 46.3132 54.8794C46.2269 55.1051 46.1499 55.3468 46.0901 55.57C46.0224 55.8196 45.948 56.0946 45.956 56.3721C45.9653 56.6444 45.7554 56.8383 45.4872 56.8383C44.9772 56.8383 44.4659 56.8383 43.9572 56.8356C43.8722 56.8343 43.7753 56.8635 43.7102 56.7745C43.7288 56.7307 43.7461 56.6882 43.766 56.6444C44.0117 56.2247 44.1458 55.7705 44.2135 55.2897C44.2454 55.0693 44.3185 54.8581 44.3557 54.639C44.4141 54.2804 44.681 53.971 44.6 53.5805C44.5947 53.5566 44.5934 53.5261 44.6067 53.5075C44.8072 53.2113 44.8816 52.878 44.8709 52.53C44.8656 52.3534 45.0011 52.2245 44.9891 52.0453C44.9772 51.8739 44.9347 51.6827 45.1419 51.5698C45.203 51.5353 45.1751 51.4516 45.1804 51.3879C45.1857 51.2989 45.1644 51.194 45.2043 51.1262C45.361 50.8553 45.2216 50.5432 45.3597 50.259C45.4287 50.1209 45.3876 49.9057 45.4779 49.753C45.5855 49.5737 45.5669 49.3851 45.5735 49.1939C45.5775 49.0836 45.5536 48.9708 45.6452 48.8738C45.6824 48.8326 45.6426 48.7822 45.6001 48.7516ZM47.0809 51.5339C47.0291 51.692 46.9985 51.8553 47.2309 51.8739C47.5723 51.9018 47.9096 51.8872 48.2549 51.9496C48.4979 51.9921 48.7755 51.9363 49.0411 51.9682C49.312 52.0014 49.3612 51.8859 49.32 51.6176C49.2403 51.1262 49.069 50.6494 49.069 50.1434C49.069 50.0877 49.0624 50.0306 49.0477 49.9774C48.9508 49.6268 48.8525 49.2762 48.7529 48.9256C48.7104 48.9322 48.7569 49.0106 48.6892 49.0079C48.6799 48.8101 48.7131 48.5962 48.6507 48.4156C48.5471 48.1102 48.5856 47.7901 48.4966 47.4807C48.3917 47.1168 48.3996 46.713 48.0344 46.5072C47.8724 46.9029 48.0543 47.3837 47.729 47.7542C47.6984 47.7874 47.7064 47.8645 47.7104 47.9202C47.7422 48.2961 47.5218 48.6162 47.4753 48.9801C47.4461 49.2151 47.3943 49.4608 47.3279 49.6999C47.2442 49.9974 47.2123 50.3081 47.1526 50.6136C47.0968 50.9071 46.9454 51.1913 47.0769 51.5007C47.0835 51.5074 47.0862 51.5207 47.0809 51.5339Z" fill="#115EA8"/>
<path fill-rule="evenodd" clip-rule="evenodd" d="M35.2091 56.2524C35.1813 56.089 35.1813 55.9257 35.2091 55.7623C35.3207 55.6561 35.2663 55.518 35.2676 55.3971C35.326 51.4899 35.16 47.5801 35.3566 43.6729C35.3672 43.4431 35.4256 43.3661 35.6607 43.3661C36.1308 43.3661 36.597 43.4019 37.0671 43.3342C37.3832 43.2864 37.5054 43.4192 37.5054 43.7326C37.5054 45.1497 37.4921 46.5667 37.5134 47.9838C37.5213 48.5336 37.4775 49.0755 37.6249 49.6372C37.7936 50.284 37.7086 50.9852 37.6409 51.6586C37.5811 52.2456 37.5957 52.8379 37.5227 53.4263C37.4456 54.0651 37.5054 54.7211 37.5054 55.3692C37.5054 55.7982 37.508 56.2272 37.5041 56.6561C37.5014 56.8487 37.3686 56.9828 37.2504 56.9058C37.1256 56.8248 37.0034 56.8407 36.8799 56.8407C36.4509 56.8354 36.0206 56.8288 35.5916 56.8407C35.4044 56.846 35.3406 56.781 35.3659 56.6017C35.3858 56.4516 35.3459 56.3294 35.2091 56.2524Z" fill="#115EA8"/>
<path fill-rule="evenodd" clip-rule="evenodd" d="M43.4832 56.5499C43.4898 56.6588 43.6027 56.6881 43.6466 56.7677C43.6054 56.8302 43.539 56.8355 43.4739 56.8355C42.859 56.8355 42.2441 56.8355 41.6292 56.8342C41.4911 56.8328 41.3875 56.7664 41.2839 56.6801C41.1206 56.542 41.0528 56.3481 40.9492 56.1714C40.7235 55.7903 40.4432 55.441 40.1723 55.0904C40.078 54.9682 40.074 54.7916 39.9638 54.7013C39.7407 54.522 39.6039 54.2657 39.4751 54.0412C39.2413 53.6361 38.9239 53.2895 38.7247 52.8645C38.6902 52.7888 38.6052 52.7291 38.5016 52.7663L38.4883 52.7702L38.479 52.7609C38.4843 52.7224 38.5016 52.6799 38.4936 52.6441C38.4365 52.2842 38.151 52.0478 37.9836 51.7436C37.9066 51.6055 37.8349 51.4926 37.8389 51.3279C37.8468 50.9162 37.8349 50.5032 37.8442 50.0915C37.8469 49.9361 37.7884 49.7741 37.9637 49.6413C38.151 49.4979 38.0912 49.2615 38.0872 49.0556L38.0846 49.0569C38.139 49.0583 38.1682 49.0211 38.2068 48.9919C38.5149 48.7568 38.6025 48.3796 38.7898 48.0702C38.9558 47.7939 39.1523 47.5336 39.2546 47.2176C39.3104 47.0502 39.4844 46.9333 39.4937 46.7368C39.8283 46.6704 39.8748 46.4353 39.8443 46.1511C39.8416 46.1245 39.8762 46.0953 39.8854 46.0661C40.0793 45.4791 40.5203 45.0276 40.7514 44.4512C40.8762 44.1377 41.0741 43.8163 41.2733 43.5175C41.3596 43.3861 41.4738 43.3024 41.6345 43.325C41.9466 43.3688 42.2614 43.3675 42.5761 43.3701C42.8497 43.3728 43.122 43.3502 43.3956 43.4126C43.6266 43.4657 43.6598 43.5361 43.5709 43.7579C43.4872 43.9664 43.3145 44.1006 43.2003 44.2825C43.1206 44.4047 43.1273 44.5508 43.0476 44.6769C42.8351 45.0103 42.6226 45.3436 42.4566 45.7049C42.4194 45.7859 42.3185 45.9227 42.3039 45.9147C42.102 45.8178 42.1923 45.9931 42.175 46.0528C42.1578 46.1126 42.1923 46.1976 42.1392 46.2374C41.94 46.3875 41.8988 46.6266 41.7899 46.8271C41.5469 47.276 41.3344 47.7408 41.0422 48.1631C40.7925 48.5217 40.6092 48.9188 40.3636 49.2827C40.2865 49.3983 40.1643 49.4979 40.1351 49.6413C40.0674 49.98 39.8283 50.2456 39.7526 50.5856C39.7088 50.7781 39.742 51.1101 39.9279 51.1898C40.0608 51.2456 40.1338 51.3505 40.1816 51.4647C40.2639 51.656 40.3662 51.8233 40.4857 51.9946C40.8058 52.4515 41.0834 52.9389 41.3755 53.4157C41.5894 53.761 41.847 54.081 42.0157 54.4635C42.1272 54.7199 42.3118 54.9589 42.4712 55.2033C42.7328 55.603 42.8896 56.0665 43.2428 56.4118C43.3145 56.4835 43.3743 56.5499 43.4832 56.5499Z" fill="#115EA8"/>
<path fill-rule="evenodd" clip-rule="evenodd" d="M70.2531 54.1076C70.2691 53.6999 70.4032 53.3134 70.4895 52.9216C70.7697 51.6573 71.0672 50.397 71.3554 49.1353C71.7724 47.3145 72.1881 45.495 72.6052 43.6742C72.7087 43.2253 72.7114 43.2253 73.1749 43.2253C73.8801 43.2253 74.5853 43.228 75.2892 43.2227C75.4552 43.2214 75.5309 43.2639 75.5641 43.4431C75.6504 43.912 75.7793 44.3728 75.8696 44.8403C75.9891 45.4552 76.1485 46.0608 76.2733 46.6744C76.3663 47.1418 76.5044 47.6106 76.6146 48.0808C77.0077 49.7834 77.3955 51.4873 77.786 53.1926C78.0529 54.3586 78.3199 55.526 78.5881 56.692C78.6545 56.9869 78.6479 56.9975 78.3557 56.9975C77.7103 56.9948 77.0608 56.9895 76.4127 57.0028C76.2242 57.0055 76.1644 56.9364 76.1312 56.7598C75.9639 55.9018 75.7819 55.0465 75.6093 54.1899C75.5787 54.0346 75.5057 53.9788 75.3436 53.9801C74.4698 53.9867 73.5972 53.9854 72.7194 53.9788C72.5746 53.9774 72.5069 54.0199 72.475 54.1727C72.2944 55.0452 72.0978 55.9138 71.9199 56.785C71.888 56.9457 71.8269 57.0001 71.6675 56.9988C71.0367 56.9948 70.4045 56.9948 69.7737 57.0028C69.6263 57.0041 69.5546 56.963 69.5904 56.8089C69.7963 55.9271 70.0021 55.0439 70.2093 54.1634C70.2146 54.1408 70.2372 54.1275 70.2531 54.1076C70.2146 54.4556 70.3912 54.8354 70.0791 55.1395C70.0566 55.1621 70.0685 55.2165 70.0645 55.2564C70.0247 55.6787 69.9463 56.0931 69.7883 56.4902C69.698 56.7159 69.783 56.8381 70.03 56.8395C70.5241 56.8408 71.0181 56.8275 71.5121 56.8434C71.7459 56.8514 71.8216 56.7385 71.807 56.542C71.7924 56.3627 71.8561 56.2073 71.9132 56.0519C72.0341 55.7279 72.1071 55.4011 72.1071 55.0558C72.1071 54.9987 72.1084 54.9403 72.1257 54.8872C72.212 54.6096 72.2997 54.332 72.3023 54.0359C72.3037 53.8128 72.5587 53.6494 72.7565 53.761C72.8575 53.8207 72.9504 53.8247 73.054 53.826C73.4432 53.8287 73.8323 53.8287 74.2214 53.8247C74.7434 53.8207 75.2653 53.8553 75.8018 53.7304C75.7753 53.8619 75.746 53.9376 75.766 54.0465C75.8178 54.3453 75.7939 54.6534 75.9891 54.9137C76.001 54.931 75.9957 54.9616 75.9931 54.9855C75.936 55.3201 76.1405 55.6256 76.0953 55.9576C76.0913 55.9855 76.1139 56.0174 76.1272 56.0453C76.2202 56.2352 76.2786 56.4344 76.2813 56.6456C76.2852 56.8514 76.3902 56.9191 76.5854 56.9351C76.8072 56.9523 76.9905 56.8049 77.2189 56.8288C77.515 56.8594 77.8152 56.8395 78.1167 56.8381C78.3411 56.8341 78.4593 56.6442 78.373 56.437C78.2136 56.0466 78.1724 55.6243 78.0556 55.2205C77.9759 54.9496 77.9374 54.6495 77.9175 54.3533C77.9028 54.1554 77.8657 53.9164 77.7156 53.7278C77.6664 53.664 77.531 53.749 77.5496 53.5897C77.6147 53.0491 77.527 52.5166 77.3451 52.0132C77.2614 51.7835 77.3079 51.5497 77.2362 51.3332C77.1286 51.0012 77.0117 50.6798 76.9519 50.3305C76.9028 50.0463 76.8935 49.7435 76.7527 49.4726C76.6491 49.2707 76.5894 49.0423 76.5894 48.8165C76.5894 48.6226 76.5349 48.4566 76.4473 48.2933C76.3742 48.1552 76.3291 48.017 76.3742 47.8617C76.3941 47.7953 76.3689 47.7355 76.349 47.6731C76.187 47.1671 76.1431 46.6319 76.0316 46.1166C75.9506 45.754 75.7381 45.4406 75.7275 45.0421C75.7168 44.653 75.5017 44.2772 75.5004 43.8602C75.5004 43.4564 75.3436 43.3249 74.9651 43.3754C74.3834 43.4524 73.8004 43.4219 73.2214 43.4073C72.8681 43.398 72.7207 43.5428 72.7008 43.9332C72.6782 44.3383 72.5348 44.7128 72.467 45.1059C72.4113 45.4207 72.293 45.742 72.224 46.0595C72.1403 46.4486 72.0739 46.8364 71.9159 47.2069C71.8774 47.2986 71.8163 47.3782 71.8163 47.4951C71.8189 47.9918 71.5852 48.4593 71.6157 48.9613C71.6184 48.9759 71.6144 48.9958 71.6038 49.0065C71.4285 49.2229 71.4086 49.4965 71.3249 49.7475C71.22 50.0689 71.2412 50.4089 71.1602 50.7383C71.0818 51.061 70.9889 51.3837 70.9158 51.7064C70.8587 51.9521 70.9198 52.2284 70.7498 52.4488C70.6462 52.5843 70.633 52.745 70.6529 52.9083C70.702 53.2868 70.5466 53.6109 70.3859 53.9336C70.3527 53.9974 70.3793 54.1142 70.2531 54.1076Z" fill="#296191"/>
<path fill-rule="evenodd" clip-rule="evenodd" d="M26.5142 54.8275C26.5687 54.3215 26.7015 53.8314 26.8396 53.344C26.8794 53.4197 26.9166 53.4476 26.9684 53.3493C27.0176 53.259 27.0056 53.1594 27.0056 53.0651C27.0096 52.8646 27.0879 52.7052 27.2792 52.5498C27.3283 52.9642 27.6351 53.1806 27.8609 53.4343C28.0096 53.599 28.1504 53.7995 28.4067 53.8912C28.5555 53.943 28.7587 54.1196 28.667 54.4104C28.5395 54.8089 28.4359 55.2192 28.3815 55.6363C28.3363 55.9962 28.2381 56.3388 28.1743 56.6934C28.1557 56.789 28.1265 56.8355 28.0242 56.8355C27.5063 56.8329 26.9897 56.8355 26.4704 56.8355C26.3894 56.8355 26.3243 56.8182 26.3256 56.7186C26.327 56.5247 26.2778 56.3109 26.3429 56.1396C26.5009 55.712 26.5461 55.2763 26.5142 54.8275ZM26.8754 53.5565C26.8569 53.6056 26.8462 53.6402 26.8369 53.6734C26.8356 53.6773 26.8635 53.6959 26.8662 53.692C26.914 53.6614 26.91 53.6189 26.8754 53.5565Z" fill="#115EA8"/>
<path fill-rule="evenodd" clip-rule="evenodd" d="M63.7575 51.8669C64.6938 51.7979 65.6327 51.8337 66.5717 51.8337C66.7696 51.8324 66.7682 51.7315 66.7682 51.588C66.7656 50.3423 66.7669 49.0939 66.7669 47.8468C66.7669 46.4059 66.7709 44.9636 66.7603 43.5213C66.7589 43.2783 66.8187 43.2026 67.071 43.2105C67.7351 43.2304 68.3991 43.2238 69.0632 43.2145C69.2371 43.2118 69.3049 43.2477 69.3049 43.4376C69.2996 47.884 69.2996 52.3304 69.3022 56.7781C69.3022 56.9508 69.265 57.0185 69.0725 57.0145C68.3832 57.0026 67.6966 57.0026 67.0073 57.0145C66.8081 57.0172 66.7589 56.9495 66.7616 56.7635C66.7696 55.9468 66.7589 55.1287 66.7696 54.3093C66.7749 54.0915 66.7257 54.0131 66.488 54.0171C65.5743 54.029 64.6579 54.0171 63.7442 54.0158L63.7402 54.0104C63.788 53.9454 63.6645 53.7926 63.8505 53.8033C64.6513 53.8537 65.4534 53.8112 66.2543 53.8258C66.3087 53.8272 66.399 53.8311 66.411 53.8059C66.4867 53.6346 66.5783 53.7329 66.6633 53.7807C66.8572 53.8909 66.9635 54.041 66.9582 54.2867C66.9435 55.0556 66.9582 55.8259 66.9475 56.5949C66.9449 56.7914 67.0113 56.8432 67.1972 56.8406C67.7391 56.8299 68.2809 56.8353 68.8254 56.8353C69.1535 56.8353 69.1654 56.814 69.188 56.4793C69.2053 56.2403 69.1335 56.0119 69.1415 55.7794C69.1535 55.4408 69.1707 55.1034 69.188 54.7648C69.2119 54.2668 69.1256 53.7767 69.1282 53.276C69.1495 50.1497 69.1336 47.0234 69.1482 43.8971C69.1482 43.4456 69.1189 43.3725 68.6103 43.3725C68.2318 43.3725 67.8533 43.3712 67.4735 43.3938C67.01 43.4204 66.9515 43.4456 66.9515 43.9104C66.9515 46.2027 66.9515 48.4949 66.9515 50.7872C66.9515 51.0302 66.9568 51.2746 66.9515 51.515C66.9462 51.7833 66.7855 51.9718 66.5611 51.9745C65.6859 51.9772 64.812 51.9745 63.9355 51.9745C63.8584 51.9745 63.7655 51.9971 63.7416 51.8815L63.7575 51.8669Z" fill="#296191"/>
<path fill-rule="evenodd" clip-rule="evenodd" d="M34.8028 55.7772C34.5997 55.2353 34.4204 54.6935 34.103 54.2154C33.5465 53.3827 32.8466 52.6881 32.0604 52.0705C30.6088 50.9297 28.9686 50.1063 27.355 49.2364C26.8038 48.9389 26.2819 48.6096 25.9393 48.0597C25.752 47.7583 25.6458 47.4302 25.5634 47.0916C25.5475 47.0305 25.5236 46.9574 25.5887 46.9136C25.6471 46.8724 25.6909 46.9335 25.7414 46.9561C26.3138 47.2324 26.849 47.5737 27.4015 47.8831C27.513 47.9455 27.6392 47.9894 27.7415 48.0531C27.9779 48.2019 27.9925 48.085 28.0363 47.8884C28.363 46.3943 28.7043 44.9042 29.035 43.4115C29.0682 43.2588 29.1399 43.2202 29.2847 43.2216C30.0696 43.2255 30.8545 43.2255 31.6394 43.2202C31.7961 43.2189 31.8452 43.28 31.8784 43.4234C32.148 44.6639 32.4256 45.9016 32.7032 47.1394C33.0206 48.5511 33.3459 49.9616 33.6554 51.3733C33.7377 51.7438 33.7988 52.121 33.8878 52.4862C34.014 53.0082 34.0578 53.5606 34.2809 54.0467C34.52 54.5673 34.7006 55.0959 34.8374 55.6484C34.844 55.6909 34.8507 55.7294 34.8028 55.7772ZM25.7334 47.1713C25.9114 47.4515 25.8941 47.8114 26.1411 48.0558C26.3842 48.2948 26.5303 48.6056 26.9008 48.7477C27.1704 48.8513 27.3603 49.1368 27.6857 49.2205C28.0336 49.3095 28.3192 49.5565 28.6167 49.7557C28.7601 49.8513 28.9447 49.846 29.0735 49.9469C29.2382 50.0758 29.4002 50.1701 29.6167 50.1342C29.6672 50.1262 29.7083 50.1541 29.7203 50.2126C29.7708 50.4596 29.9474 50.522 30.1679 50.522C30.2024 50.522 30.2382 50.5552 30.2622 50.5698C30.4069 50.6535 30.4999 50.8208 30.6486 50.8686C31.1586 51.0333 31.488 51.461 31.913 51.7438C32.245 51.9643 32.6195 52.2047 32.8745 52.55C32.9648 52.6722 33.0352 52.8169 33.2331 52.7611C33.2756 52.7492 33.3167 52.7837 33.2849 52.8355C33.2238 52.9364 33.3127 52.9922 33.3645 53.036C33.5558 53.2047 33.7005 53.4053 33.8041 53.631C33.84 53.712 33.8878 53.6855 33.9369 53.6895C34.0166 53.6934 34.002 53.631 34.002 53.5899C33.9994 53.5022 34.0233 53.4159 33.9555 53.3349C33.8068 53.1569 33.763 52.9577 33.8055 52.724C33.8334 52.5686 33.7776 52.4158 33.7112 52.2618C33.6182 52.0426 33.5066 51.8341 33.5093 51.5699C33.5159 51.1953 33.3247 50.8474 33.2915 50.4636C33.2689 50.2258 33.1109 49.9948 33.1308 49.7318C33.1374 49.6654 33.1268 49.5937 33.0604 49.5631C32.9289 49.5007 32.9409 49.3865 32.9382 49.2723C32.9289 48.8446 32.8705 48.429 32.5943 48.077C32.5159 47.9801 32.5106 47.8194 32.569 47.7609C32.7231 47.6109 32.6381 47.4648 32.6009 47.3253C32.585 47.2589 32.5385 47.1925 32.5504 47.1221C32.6128 46.7343 32.3539 46.4289 32.2941 46.0743C32.2357 45.7316 32.0205 45.4302 32.0577 45.0636C32.071 44.9481 32.0564 44.794 31.9887 44.7156C31.8492 44.551 31.8612 44.373 31.8691 44.1897C31.8784 43.9759 31.8359 43.774 31.7735 43.5722C31.7456 43.4832 31.7137 43.4314 31.6168 43.4194C30.8744 43.3198 30.132 43.3876 29.387 43.3796C29.3418 43.3796 29.2966 43.4115 29.2488 43.4194C29.1811 43.4301 29.1492 43.4659 29.1479 43.531C29.1359 43.8896 29.043 44.2336 28.9434 44.5722C28.8159 44.9959 28.8398 45.4421 28.6738 45.8658C28.456 46.4182 28.3989 47.0212 28.2634 47.5989C28.2169 47.7994 28.1439 47.9933 28.0722 48.1859C28.0257 48.3094 27.8278 48.3612 27.8105 48.3108C27.7508 48.1394 27.5861 48.1686 27.4944 48.085C27.3723 47.9747 27.2408 48.1195 27.173 48.0651C27.0681 47.9814 27.0323 47.7968 26.9034 47.7463C26.4984 47.5909 26.177 47.2855 25.7334 47.1713Z" fill="#296191"/>
<path fill-rule="evenodd" clip-rule="evenodd" d="M60.5477 51.5389C60.4653 51.5336 60.3843 51.531 60.3538 51.43C60.2329 51.0263 59.9248 50.7593 59.6605 50.4539C59.3365 50.078 58.8969 49.8669 58.5024 49.5959C58.3059 49.4618 58.0349 49.4326 57.8251 49.3038C57.428 49.0581 57.0283 48.8243 56.5966 48.6384C56.432 48.568 56.3217 48.3489 56.1331 48.3117C55.6829 48.2227 55.59 47.8097 55.3841 47.5122C55.0893 47.0899 55.1291 46.6025 55.3004 46.1496C55.5382 45.5187 55.8516 45.2332 56.6219 45.2213C56.9048 45.2159 57.177 45.2252 57.44 45.2916C57.8039 45.382 58.0084 45.6595 58.0947 46.0101C58.197 46.4165 58.3231 46.8189 58.3019 47.2466C58.2966 47.3581 58.3059 47.4697 58.1797 47.6038C58.4945 47.6038 58.7494 47.6038 59.0044 47.6038C59.4175 47.6038 59.8305 47.6025 60.2435 47.6038C60.3617 47.6038 60.4414 47.5932 60.4454 47.4378C60.468 46.7007 60.4733 45.9663 60.2568 45.2491C60.1731 44.9729 60.1028 44.6675 59.8876 44.4948C59.6193 44.277 59.4321 43.9689 59.1133 43.8148C58.8836 43.7033 58.6538 43.6183 58.3856 43.6023C58.1571 43.5877 57.9446 43.4257 57.7043 43.4191C57.2965 43.4071 56.8941 43.3712 56.4851 43.3766C56.0003 43.3832 55.5674 43.609 55.084 43.6395C54.8489 43.6541 54.5647 43.779 54.396 44.0154C54.3495 44.0778 54.2579 44.0711 54.2061 44.111C54.145 44.1575 53.9179 44.1455 54.0879 44.3301C54.1171 44.362 54.072 44.3832 54.0414 44.3886C53.4717 44.5107 53.3761 44.9902 53.2472 45.4417C53.23 45.5028 53.2499 45.5852 53.2167 45.629C52.8448 46.0898 52.9617 46.633 52.967 47.151C52.9723 47.7831 53.2419 48.3422 53.5155 48.896C53.5527 48.9717 53.5792 49.0621 53.5421 49.1537C53.1901 48.734 53.0108 48.2386 52.9033 47.7114C52.7412 46.9159 52.7917 46.1283 53.0493 45.3647C53.388 44.3593 54.1224 43.7471 55.1211 43.4562C56.2819 43.1189 57.4639 43.1056 58.6166 43.4562C59.3325 43.674 59.9713 44.0565 60.2674 44.8228C60.5065 45.4404 60.6287 46.0726 60.5968 46.7366C60.5835 46.9942 60.6513 47.2479 60.6459 47.5082C60.6406 47.7008 60.5995 47.7805 60.387 47.7765C59.6844 47.7659 58.9779 47.7698 58.274 47.7818C58.1213 47.7831 58.096 47.7194 58.0974 47.5972C58.1013 47.2399 58.0907 46.8853 58.0655 46.5307C58.0097 45.7591 57.6511 45.3992 56.8808 45.382C56.5236 45.374 56.1663 45.4019 55.8582 45.6144C55.3602 45.9557 55.1968 46.7671 55.4904 47.3927C55.7334 47.908 56.1982 48.1722 56.6564 48.4485C57.5077 48.9638 58.4347 49.3476 59.2608 49.9054C59.8053 50.2746 60.2289 50.7514 60.5025 51.3543C60.5291 51.4114 60.5623 51.4699 60.5477 51.5389Z" fill="#296191"/>
<path fill-rule="evenodd" clip-rule="evenodd" d="M38.0859 49.0554C38.0899 49.2613 38.1497 49.4977 37.9624 49.6411C37.7871 49.7753 37.8455 49.936 37.8429 50.0913C37.8336 50.503 37.8455 50.9161 37.8376 51.3278C37.8336 51.4911 37.9066 51.6054 37.9823 51.7435C38.1496 52.0476 38.4352 52.2827 38.4923 52.6439C38.5003 52.6798 38.483 52.7223 38.4777 52.7608C38.2386 52.5031 38.0846 52.187 37.8827 51.9042C37.8429 51.8471 37.7951 51.6784 37.6994 51.871C37.6051 51.9772 37.6636 52.0914 37.6848 52.203C37.6915 52.1087 37.6981 52.0117 37.7061 51.9174C37.7459 51.9639 37.7406 52.021 37.7406 52.0781C37.7393 53.6293 37.7353 55.1832 37.7406 56.7344C37.7419 56.9323 37.6901 57.004 37.4816 56.9987C36.7937 56.9854 36.1071 56.9854 35.4191 56.996C35.2332 56.9987 35.1708 56.9362 35.1867 56.7596C35.2013 56.5909 35.2 56.421 35.208 56.251C35.3448 56.3293 35.3846 56.4502 35.3633 56.5989C35.3368 56.7782 35.4019 56.8433 35.5891 56.838C36.0168 56.826 36.4471 56.8327 36.8774 56.838C37.0022 56.838 37.1244 56.822 37.2479 56.903C37.3674 56.9814 37.4989 56.8459 37.5015 56.6534C37.5055 56.2244 37.5029 55.7954 37.5029 55.3665C37.5029 54.7184 37.4431 54.0636 37.5201 53.4235C37.5932 52.8351 37.5786 52.2428 37.6383 51.6558C37.7061 50.9825 37.7911 50.2813 37.6224 49.6345C37.475 49.0727 37.5188 48.5309 37.5108 47.981C37.4896 46.564 37.5029 45.1469 37.5029 43.7299C37.5029 43.4164 37.3807 43.2836 37.0646 43.3314C36.5945 43.4005 36.1283 43.3633 35.6582 43.3633C35.4231 43.3633 35.3647 43.4417 35.354 43.6701C35.1575 47.5773 35.3235 51.4858 35.2651 55.3944C35.2637 55.5165 35.3182 55.6533 35.2066 55.7596C35.2 55.1526 35.1907 54.5457 35.1907 53.9388C35.1907 50.4406 35.1934 46.9425 35.1894 43.4443C35.188 43.2425 35.2544 43.1986 35.439 43.2013C36.119 43.2106 36.799 43.2132 37.4803 43.2013C37.6795 43.1986 37.7433 43.2584 37.7419 43.4629C37.7326 45.4232 37.7326 47.3821 37.7313 49.341C37.7313 49.3875 37.7419 49.4326 37.7526 49.5136C37.9332 49.3835 37.9584 49.1816 38.0859 49.0554Z" fill="#296191"/>
<path fill-rule="evenodd" clip-rule="evenodd" d="M53.5459 49.1537C53.8035 49.0395 53.8872 49.256 54.016 49.3954C54.2059 49.6026 54.4038 49.7938 54.7 49.8403C54.8009 49.8563 54.8806 49.9054 54.8607 50.0342C54.8474 50.1179 54.9032 50.179 54.9736 50.2029C55.4437 50.3689 55.8806 50.5947 56.303 50.8656C56.7731 51.1657 57.2711 51.4247 57.7546 51.7063C58.1928 51.9599 58.3881 52.4101 58.4598 52.9254C58.5129 53.2893 58.4359 53.6293 58.3973 53.9786C58.3814 54.118 58.3031 54.2455 58.2074 54.3558C58.1649 54.4062 58.0746 54.4434 58.1397 54.5337C58.1663 54.5709 58.1636 54.5855 58.1171 54.5962C57.8382 54.6612 57.5886 54.7781 57.3654 54.9667C57.295 55.0265 57.1463 54.9972 57.0334 54.9972C56.8647 54.9999 56.6934 54.9773 56.5261 54.9866C55.8846 55.0225 55.4304 54.6931 55.0745 54.2137C54.9895 54.0995 55.0174 53.8976 55.0028 53.7356C54.9749 53.4434 55.0493 53.1432 54.9125 52.855C54.8753 52.774 54.8952 52.6585 54.9483 52.5536C55.117 52.2255 54.9563 51.9719 54.5884 51.9745C54.3387 51.9745 54.0758 51.9281 53.8394 51.9838C53.5273 52.0569 53.2338 51.9785 52.9323 51.9719C52.8088 51.9692 52.757 52.013 52.757 52.1405C52.7623 52.7475 52.7623 53.3544 52.7636 53.9613C52.7636 53.9866 52.7597 54.0158 52.7716 54.0344C52.9921 54.3398 52.9403 54.7369 53.1089 55.0636C53.178 55.1991 53.2019 55.3478 53.4157 55.2682C53.3175 55.5378 53.3573 55.6931 53.6428 55.818C53.7969 55.8844 53.8859 56.0079 53.9961 56.0956C54.3905 56.4143 54.7916 56.6587 55.3229 56.648C55.5101 56.6454 55.6987 56.7437 55.886 56.7981C55.9019 56.8034 55.9138 56.822 55.9298 56.822C56.4942 56.83 57.0626 56.8765 57.6218 56.7941C57.7957 56.7676 57.9511 56.6255 58.1543 56.6148C58.2287 56.6108 58.2898 56.5869 58.3655 56.6241C58.4093 56.6467 58.5049 56.652 58.5275 56.6228C58.732 56.3598 59.1172 56.4023 59.3257 56.154C59.5262 55.9123 59.8596 55.8153 59.9897 55.4913C60.0428 55.3571 60.1889 55.2615 60.3496 55.2296C60.0654 55.8485 59.5807 56.2709 58.9777 56.5365C57.7001 57.0996 56.3654 57.1394 55.0333 56.8087C53.5459 56.4382 52.6654 55.2496 52.6215 53.6758C52.6056 53.126 52.6069 52.5748 52.591 52.0237C52.5857 51.8763 52.6295 51.8218 52.7783 51.8218C53.4994 51.8271 54.2205 51.8271 54.9417 51.8245C55.0865 51.8231 55.1396 51.8829 55.1369 52.0277C55.1316 52.434 55.1356 52.8378 55.1369 53.2428C55.1409 53.5881 55.2458 53.9095 55.3693 54.2256C55.4769 54.5005 55.6934 54.6506 55.9484 54.7343C56.4225 54.8897 56.9059 54.8737 57.3827 54.7237C58.0228 54.5218 58.2499 54.0264 58.3057 53.4089C58.3734 52.6758 58.0879 52.1352 57.4624 51.7381C56.7439 51.2839 55.9829 50.9054 55.2432 50.4871C54.6495 50.1511 54.0877 49.7739 53.6256 49.2679C53.5937 49.2374 53.5711 49.1922 53.5459 49.1537Z" fill="#296191"/>
<path fill-rule="evenodd" clip-rule="evenodd" d="M38.5015 52.7663C38.6051 52.7304 38.6901 52.7902 38.7246 52.8646C38.9239 53.2882 39.2426 53.6362 39.475 54.0412C39.6038 54.2657 39.7406 54.522 39.9637 54.7013C40.074 54.7916 40.078 54.9682 40.1723 55.0904C40.4432 55.4424 40.7234 55.7903 40.9492 56.1715C41.0528 56.3481 41.1205 56.5407 41.2839 56.6801C41.3874 56.7665 41.491 56.8329 41.6292 56.8342C42.2441 56.8355 42.8589 56.8355 43.4738 56.8355C43.5389 56.8355 43.6053 56.8302 43.6465 56.7678C43.6691 56.7704 43.6877 56.7704 43.7102 56.7731C43.7753 56.8608 43.8709 56.8329 43.9573 56.8342C44.4673 56.8368 44.9786 56.8368 45.4872 56.8368C45.7542 56.8368 45.964 56.6429 45.956 56.3707C45.9467 56.0931 46.0224 55.8182 46.0902 55.5685C46.1499 55.3454 46.227 55.1037 46.3133 54.8779C46.385 54.6907 46.3412 54.4941 46.3505 54.3015C46.3611 54.1209 46.381 53.9563 46.555 53.8473C46.6041 53.8168 46.6373 53.7902 46.7011 53.8009C47.6121 53.9496 48.5298 53.9084 49.4436 53.9124C49.7663 53.9138 49.9203 54.0891 49.9495 54.4012C49.9894 54.8514 50.0385 55.3003 50.1899 55.7359C50.2643 55.9484 50.3533 56.1622 50.3387 56.4052C50.3227 56.6775 50.4901 56.8302 50.7663 56.8329C51.2285 56.8355 51.688 56.8276 52.1515 56.8355C52.4769 56.8422 52.5513 56.7479 52.4516 56.4066C52.3799 56.1662 52.3892 55.9205 52.2976 55.6827C52.1767 55.3707 52.1674 55.0121 51.9642 54.7292C51.8952 54.6322 51.8859 54.5366 51.8925 54.433C51.9178 53.9045 51.7544 53.4078 51.6468 52.9004C51.5658 52.5086 51.4144 52.1355 51.3892 51.7251C51.3719 51.4502 51.2471 51.1792 51.1661 50.9083C51.1621 50.8937 51.1382 50.8818 51.1382 50.8711C51.1621 50.4541 50.9496 50.0796 50.9257 49.6745C50.9137 49.4979 50.8261 49.3106 50.927 49.1313C51.0811 49.5497 51.1488 49.9893 51.2484 50.4222C51.4476 51.2802 51.6349 52.1408 51.8314 53C52.1037 54.1887 52.3799 55.3746 52.6535 56.5646C52.6615 56.5951 52.6655 56.6283 52.6695 56.6589C52.7133 56.9736 52.7 56.9922 52.3959 56.9936C51.8049 56.9949 51.2139 56.9909 50.6229 56.9949C50.3878 56.9975 50.259 56.9165 50.2112 56.6642C50.0624 55.8541 49.8845 55.0466 49.7224 54.2378C49.6879 54.0559 49.6122 53.9695 49.4024 53.9735C48.5537 53.9868 47.7038 53.9868 46.8525 53.9762C46.6572 53.9748 46.5895 54.0492 46.551 54.2325C46.3797 55.0891 46.1911 55.9391 46.0184 56.7957C45.9892 56.9457 45.9255 56.9949 45.7754 56.9949C44.3265 56.9922 42.8775 56.9922 41.4299 56.9975C41.2799 56.9975 41.2135 56.9165 41.1444 56.8143C40.5667 55.947 39.9916 55.0771 39.4126 54.2086C39.1443 53.8048 38.8734 53.4051 38.6064 53C38.5573 52.9296 38.4856 52.8672 38.5015 52.7663Z" fill="#296191"/>
<path fill-rule="evenodd" clip-rule="evenodd" d="M63.7457 54.0157C63.7085 54.0981 63.7072 54.1857 63.7072 54.2747C63.7098 55.1008 63.7045 55.9255 63.7138 56.7516C63.7165 56.9362 63.6793 57.0079 63.4721 57.0026C62.7775 56.9906 62.0803 56.9946 61.3857 57.0026C61.217 57.0052 61.1626 56.9534 61.1626 56.7808C61.1666 52.3291 61.1666 47.8774 61.1626 43.4256C61.1626 43.2703 61.2064 43.2105 61.3684 43.2131C62.0803 43.2185 62.7921 43.2211 63.5053 43.2105C63.7231 43.2078 63.7085 43.3287 63.7085 43.4748C63.7072 46.0977 63.7072 48.7207 63.7098 51.3436C63.7098 51.5176 63.6673 51.6996 63.7563 51.8669L63.7431 51.8815C63.6634 51.9293 63.5877 51.8682 63.5067 51.8749C63.4535 51.8788 63.3885 51.8868 63.3672 51.8124C63.3473 51.7434 63.3672 51.661 63.4177 51.6358C63.5824 51.5561 63.5518 51.4167 63.5518 51.2839C63.5531 48.896 63.5531 46.5081 63.5531 44.1202C63.5531 44.0073 63.5571 43.8931 63.5492 43.7802C63.5292 43.4748 63.4163 43.3712 63.1109 43.3712C62.9821 43.3712 62.8506 43.3845 62.7244 43.3619C62.33 43.2888 61.9342 43.3367 61.5384 43.3327C61.3777 43.3313 61.3007 43.419 61.31 43.5983C61.3246 43.8732 61.3127 44.1494 61.3127 44.4244C61.3127 44.9144 61.3127 45.4045 61.3127 45.8945C61.2967 45.8945 61.2835 45.8945 61.2688 45.8945C61.2688 45.2836 61.2688 44.6714 61.2688 44.0605C61.2569 44.0605 61.2463 44.0605 61.2356 44.0605C61.2356 45.01 61.2356 45.9609 61.2356 46.9105C61.2476 46.9105 61.2609 46.9118 61.2715 46.9118C61.2715 46.7219 61.2715 46.5333 61.2715 46.3434C61.3127 46.4231 61.3127 46.5028 61.3127 46.5825C61.3127 48.3302 61.314 50.0793 61.314 51.8284C61.314 51.8921 61.318 52.0077 61.3034 52.0117C61.1493 52.0395 61.2197 52.1192 61.2675 52.1724C61.3313 52.2454 61.3127 52.3251 61.3127 52.4034C61.3153 52.8576 61.314 53.3105 61.314 53.7621C61.314 54.7103 61.314 55.6586 61.3153 56.6055C61.3153 56.7104 61.2795 56.8419 61.4667 56.8419C62.0166 56.8366 62.5677 56.8525 63.1175 56.8339C63.4774 56.8233 63.5505 56.721 63.5505 56.3571C63.5505 55.6519 63.5531 54.9467 63.5505 54.2428C63.5492 54.1047 63.5664 53.9971 63.7404 54.0144L63.7457 54.0157ZM61.2317 51.1457C61.2396 51.1431 61.2463 51.1391 61.2542 51.1365C61.2542 51.0475 61.2542 50.9572 61.2542 50.8682C61.2463 50.8682 61.2396 50.8695 61.2317 50.8708C61.2317 50.9611 61.2317 51.0528 61.2317 51.1457ZM61.2476 48.127C61.2396 48.1403 61.225 48.1536 61.2263 48.1655C61.2263 48.1908 61.2144 48.2426 61.2516 48.228C61.2848 48.216 61.2755 48.1616 61.2476 48.127Z" fill="#296191"/>
<path fill-rule="evenodd" clip-rule="evenodd" d="M43.4832 56.5499C43.3756 56.5499 43.3145 56.4822 43.2415 56.4118C42.8882 56.0665 42.7315 55.603 42.4699 55.2033C42.3105 54.9589 42.1259 54.7212 42.0144 54.4635C41.8457 54.0811 41.588 53.761 41.3742 53.4157C41.082 52.9389 40.8045 52.4502 40.4844 51.9946C40.3649 51.822 40.2626 51.6547 40.1803 51.4647C40.1325 51.3505 40.0581 51.2456 39.9266 51.1898C39.7407 51.1101 39.7075 50.7781 39.7513 50.5856C39.827 50.2442 40.0661 49.98 40.1338 49.6413C40.1617 49.4992 40.2852 49.3983 40.3622 49.2827C40.6079 48.9188 40.7912 48.5217 41.0409 48.1631C41.3331 47.7408 41.5455 47.276 41.7886 46.8271C41.8975 46.6266 41.9373 46.3862 42.1379 46.2374C42.191 46.1976 42.1578 46.1126 42.1737 46.0528C42.191 45.9944 42.0994 45.8191 42.3026 45.9147C42.3185 45.9214 42.4181 45.7846 42.4553 45.7049C42.6213 45.345 42.8338 45.0103 43.0463 44.6769C43.1273 44.5508 43.1206 44.4047 43.199 44.2825C43.3132 44.1019 43.4859 43.9664 43.5695 43.7579C43.6585 43.5361 43.6253 43.4657 43.3942 43.4126C43.1206 43.3502 42.8484 43.3741 42.5748 43.3701C42.2601 43.3675 41.9453 43.3688 41.6332 43.325C41.4725 43.3024 41.3583 43.3861 41.272 43.5175C41.0741 43.8164 40.8749 44.1377 40.75 44.4512C40.5176 45.0289 40.0767 45.4791 39.8841 46.0661C39.8748 46.0953 39.8403 46.1245 39.843 46.1511C39.8735 46.4353 39.827 46.6717 39.4923 46.7368C39.483 46.932 39.3091 47.0489 39.2533 47.2176C39.1524 47.5336 38.9545 47.7939 38.7885 48.0702C38.5999 48.3796 38.5135 48.7568 38.2054 48.9919C38.1669 49.0211 38.1377 49.0596 38.0833 49.0569C38.2997 48.6532 38.5096 48.2481 38.7287 47.8457C39.2958 46.8019 39.8629 45.7607 40.43 44.7181C40.6664 44.2825 40.9014 43.8482 41.1378 43.4126C41.1976 43.3037 41.2587 43.2121 41.4088 43.2134C42.2043 43.2174 42.9971 43.2174 43.79 43.2134C43.9773 43.2121 44.0317 43.2586 43.9268 43.4352C42.7355 45.4313 41.6571 47.4925 40.4818 49.4979C40.2905 49.8259 40.1033 50.1553 39.9054 50.4793C39.8363 50.5922 39.839 50.6812 39.912 50.7914C40.1736 51.1925 40.4326 51.5976 40.6863 52.0039C41.0807 52.6335 41.4513 53.2762 41.8537 53.8991C42.4035 54.7451 42.9148 55.6137 43.4686 56.457C43.4845 56.4809 43.4792 56.5194 43.4832 56.5499Z" fill="#296191"/>
<path fill-rule="evenodd" clip-rule="evenodd" d="M25.2315 46.7179C25.2554 46.7392 25.278 46.7604 25.3006 46.7804C25.1625 47.208 25.2939 47.6277 25.3803 48.0314C25.4599 48.4099 25.6631 48.7632 25.8185 49.1443C25.6246 49.1337 25.4985 49.0288 25.3736 48.9345C25.0814 48.714 24.7853 48.4989 24.5144 48.2545C24.2926 48.054 24.0044 47.9451 23.8198 47.6888C23.7095 47.536 23.6392 47.3262 23.4692 47.2399C23.2872 47.1482 23.185 47.0181 23.1239 46.8415C23.1026 46.7844 23.0548 46.7578 23.0296 46.7206C22.9127 46.5559 22.7002 46.5055 22.6099 46.3023C22.5501 46.1641 22.4598 46.026 22.3682 45.8999C22.0083 45.4018 21.8781 44.8095 21.6763 44.2464C21.6524 44.1813 21.6298 44.0897 21.7041 44.0312C21.9857 44.3168 22.0667 44.7219 22.3337 45.0127C22.4173 45.107 22.5621 45.1694 22.5023 45.35C22.4811 45.4151 22.5687 45.4377 22.6351 45.4603C22.8928 45.5506 23.1491 45.6515 23.3496 45.8507C23.3935 45.8959 23.4466 45.9344 23.501 45.9649C23.8277 46.1402 24.1664 46.2969 24.4812 46.4922C24.7176 46.6383 24.9473 46.7538 25.2315 46.7179Z" fill="#115EA8"/>
<path fill-rule="evenodd" clip-rule="evenodd" d="M25.2314 46.7182C24.9472 46.754 24.7161 46.6385 24.4784 46.4937C24.1636 46.2998 23.825 46.1418 23.4983 45.9665C23.4438 45.9372 23.3907 45.8974 23.3469 45.8523C23.1463 45.653 22.89 45.5521 22.6324 45.4618C22.5659 45.4392 22.4796 45.4166 22.4995 45.3516C22.5593 45.1709 22.4159 45.1085 22.3309 45.0142C22.0653 44.7234 21.9829 44.3183 21.7014 44.0328C21.627 44.0912 21.6509 44.1829 21.6735 44.2479C21.8753 44.8097 22.0055 45.4034 22.3654 45.9014C22.4557 46.0276 22.5474 46.167 22.6071 46.3038C22.6974 46.5083 22.9112 46.5588 23.0268 46.7221C23.0534 46.7593 23.1012 46.7859 23.1211 46.843C23.1822 47.0196 23.2844 47.1498 23.4664 47.2414C23.6364 47.3277 23.7068 47.5376 23.817 47.6903C24.0029 47.9466 24.2898 48.0555 24.5116 48.2561C24.7825 48.5004 25.08 48.7156 25.3708 48.936C25.4957 49.0303 25.6219 49.1339 25.8158 49.1459C25.6604 48.7647 25.4558 48.4115 25.3775 48.033C25.2925 47.6292 25.1597 47.2082 25.2978 46.7819C25.3682 46.7819 25.4001 46.8151 25.3961 46.8868C25.3536 47.8298 25.6736 48.6638 26.1637 49.446C26.185 49.4819 26.2474 49.5058 26.1916 49.5629C26.1318 49.6227 26.0946 49.5775 26.0468 49.5443C25.3071 49.0383 24.5541 48.5522 23.8834 47.9506C22.7227 46.9081 21.8302 45.6916 21.5008 44.135C21.3322 43.3382 21.3136 42.5307 21.5925 41.7339C21.5925 41.7897 21.5951 41.8454 21.5911 41.9012C21.5898 41.9663 21.5832 42.03 21.5752 42.0951C21.5088 42.7592 21.5951 43.4126 21.878 44.0062C22.2605 44.811 22.8794 45.4233 23.6669 45.8509C24.1357 46.1059 24.6085 46.3503 25.0773 46.6026C25.1344 46.6332 25.1809 46.6796 25.2314 46.7182Z" fill="#296191"/>
<path fill-rule="evenodd" clip-rule="evenodd" d="M26.5143 54.8275C26.5448 55.2764 26.501 55.7107 26.3429 56.1397C26.2779 56.311 26.327 56.5235 26.3257 56.7187C26.3243 56.8183 26.3907 56.8356 26.4704 56.8356C26.9897 56.8356 27.5063 56.8329 28.0243 56.8356C28.1265 56.8356 28.1571 56.7891 28.1743 56.6935C28.2381 56.3389 28.3364 55.9962 28.3815 55.6363C28.436 55.2207 28.5396 54.8089 28.6671 54.4105C28.7574 54.1197 28.5555 53.943 28.4068 53.8912C28.1504 53.8009 28.0097 53.5991 27.8609 53.4344C27.6338 53.1807 27.3284 52.9642 27.2792 52.5499C27.0867 52.7039 27.0096 52.8633 27.0056 53.0652C27.0056 53.1595 27.0176 53.2591 26.9685 53.3494C26.9167 53.4477 26.8808 53.4198 26.8396 53.3441C26.8569 53.0028 26.9764 52.6827 27.0375 52.3507C27.0495 52.2896 27.1013 52.2365 27.0734 52.1674C27.0428 52.0904 27.0455 52.0187 27.1464 52.0014C27.2394 51.9855 27.2327 52.0744 27.2527 52.1302C27.497 52.8142 27.9273 53.3494 28.5449 53.7279C28.9154 53.9563 28.9221 53.943 28.8304 54.3694C28.6591 55.1742 28.4891 55.9803 28.3297 56.7878C28.2992 56.9432 28.2421 57.0082 28.0787 57.0069C27.4466 56.9976 26.8171 57.0003 26.1862 57.0003C26.0707 57.0016 25.991 56.9923 26.0242 56.8436C26.1729 56.1981 26.3164 55.5513 26.4638 54.9059C26.4704 54.8793 26.497 54.8541 26.5143 54.8275Z" fill="#296191"/>
<path fill-rule="evenodd" clip-rule="evenodd" d="M49.6586 43.5626C49.4302 43.4245 49.1779 43.4059 48.9176 43.4112C48.3491 43.4205 47.7821 43.3368 47.2123 43.3767C46.9626 43.3939 46.8458 43.5559 46.8351 43.8574C46.8245 44.0898 46.8922 44.3462 46.7355 44.5401C46.5111 44.8189 46.5669 45.135 46.531 45.4485C46.5018 45.7114 46.3159 45.9319 46.2787 46.2068C46.2455 46.4605 46.2295 46.7154 46.1764 46.9704C46.1326 47.1856 46.0861 47.3861 45.9679 47.5694C45.8696 47.7261 45.8829 47.9014 45.8537 48.0754C45.8258 48.2547 45.8643 48.4911 45.616 48.5747C45.6306 48.1763 45.7674 47.8018 45.8524 47.418C46.1445 46.0992 46.454 44.7857 46.7488 43.467C46.7887 43.281 46.863 43.2186 47.0543 43.2213C47.806 43.2332 48.5616 43.2266 49.3133 43.2266C49.6268 43.2253 49.6268 43.2253 49.6586 43.5626Z" fill="#296191"/>
<path fill-rule="evenodd" clip-rule="evenodd" d="M45.6 48.7515C45.6425 48.782 45.6824 48.8325 45.6439 48.8723C45.5536 48.9679 45.5761 49.0822 45.5722 49.1924C45.5655 49.3836 45.5841 49.5722 45.4765 49.7515C45.3862 49.9042 45.4274 50.1194 45.3583 50.2575C45.2202 50.5404 45.3597 50.8538 45.203 51.1247C45.1644 51.1938 45.1844 51.2974 45.1791 51.3864C45.1737 51.4501 45.2016 51.5325 45.1405 51.5683C44.9334 51.6812 44.9759 51.8724 44.9878 52.0438C44.9998 52.2231 44.8643 52.3519 44.8696 52.5285C44.8802 52.8778 44.8059 53.2111 44.6053 53.506C44.592 53.5246 44.5934 53.5551 44.5987 53.579C44.681 53.9695 44.4128 54.2789 44.3543 54.6375C44.3171 54.8566 44.2441 55.0678 44.2122 55.2883C44.1445 55.7677 44.0103 56.2219 43.7646 56.6429C43.8271 56.1183 43.9758 55.615 44.0887 55.1023C44.3278 54.016 44.5854 52.9309 44.8364 51.8446C45.0609 50.8631 45.2866 49.8803 45.5124 48.8989C45.5257 48.8418 45.5031 48.7608 45.6 48.7515Z" fill="#296191"/>
<path fill-rule="evenodd" clip-rule="evenodd" d="M33.6726 56.9973C33.3419 56.9973 33.0085 56.992 32.6778 57.0013C32.5331 57.004 32.4653 56.9628 32.4348 56.8074C32.3471 56.3227 32.2409 55.8406 32.1386 55.3571C32.1267 55.2947 32.0988 55.2283 32.1479 55.1725C32.2103 55.1048 32.2675 55.1686 32.3232 55.1871C32.9488 55.3903 33.5544 55.6347 34.0949 56.0145C34.4057 56.2337 34.6726 56.4873 34.832 56.8459C34.897 56.9907 34.816 56.996 34.7164 56.996C34.3685 56.9973 34.0205 56.9973 33.6726 56.9973ZM34.488 56.6414C34.3685 56.4926 34.2157 56.2961 34.0125 56.1699C33.7137 55.9853 33.4136 55.802 33.0869 55.6653C32.8943 55.5856 32.7336 55.4169 32.4946 55.4674C32.387 55.4913 32.302 55.5351 32.3803 55.6347C32.472 55.7556 32.4521 55.8831 32.4441 56.0039C32.4268 56.3001 32.5809 56.5511 32.6951 56.7875C32.7495 56.8977 33.0683 56.8419 33.2715 56.8366C33.3605 56.834 33.4494 56.8313 33.5371 56.8379C33.7576 56.8499 33.9767 56.8074 34.1945 56.9203C34.3459 56.996 34.488 56.8711 34.488 56.6414Z" fill="#296191"/>
<path fill-rule="evenodd" clip-rule="evenodd" d="M50.9176 49.0568C50.7237 48.9611 50.6228 48.8257 50.6201 48.5893C50.6135 48.2015 50.5657 47.819 50.3665 47.4631C50.2748 47.2997 50.2788 47.0753 50.2589 46.888C50.231 46.6171 50.1447 46.3554 50.1394 46.0845C50.1381 46.0526 50.1394 46.0128 50.1221 45.9916C49.8724 45.6834 49.9163 45.2996 49.8538 44.9464C49.8286 44.8056 49.7728 44.6701 49.729 44.5426C49.6135 44.2146 49.6679 43.8892 49.6546 43.5625C49.8153 44.0287 49.899 44.5134 50.0092 44.9902C50.3094 46.2811 50.5976 47.5746 50.8911 48.8655C50.9057 48.9293 50.9097 48.993 50.9176 49.0568Z" fill="#296191"/>
<path fill-rule="evenodd" clip-rule="evenodd" d="M60.3498 55.2353C60.286 54.9909 60.4002 54.7652 60.4666 54.5553C60.6061 54.1197 60.6512 53.6814 60.6991 53.2352C60.7402 52.862 60.6712 52.5061 60.6473 52.1449C60.6446 52.0917 60.6419 52.0492 60.6937 52.02C60.792 52.1409 60.7933 52.2936 60.808 52.4317C60.8996 53.3574 60.8531 54.2685 60.4348 55.1237C60.4135 55.1649 60.4042 55.218 60.3498 55.2353Z" fill="#296191"/>
<path fill-rule="evenodd" clip-rule="evenodd" d="M37.7074 51.9176C37.6994 52.0119 37.6928 52.1088 37.6861 52.2031C37.6635 52.0916 37.6051 51.9773 37.7007 51.8711C37.7021 51.887 37.7047 51.9016 37.7074 51.9176Z" fill="#115EA8"/>
<path fill-rule="evenodd" clip-rule="evenodd" d="M47.081 51.534C47.0783 51.7438 47.1872 51.785 47.3851 51.7783C47.8938 51.7624 48.4037 51.7704 48.9124 51.777C49.1103 51.781 49.1847 51.7318 49.1395 51.5114C48.834 49.9974 48.5392 48.4834 48.2431 46.9694C48.2324 46.9136 48.2298 46.8565 48.1687 46.818C48.0478 46.8698 48.0744 46.9933 48.0545 47.0862C47.7583 48.4767 47.4701 49.8685 47.1793 51.2604C47.1607 51.3454 47.1567 51.4397 47.077 51.4994C46.9442 51.19 47.0969 50.9058 47.1527 50.6123C47.2125 50.3081 47.2443 49.996 47.328 49.6986C47.3957 49.4608 47.4462 49.2151 47.4754 48.9787C47.5219 48.6148 47.7424 48.2948 47.7105 47.9189C47.7065 47.8632 47.6972 47.7875 47.7291 47.7529C48.0545 47.3824 47.8725 46.9016 48.0345 46.5059C48.3984 46.7117 48.3918 47.1154 48.4967 47.4793C48.5857 47.7888 48.5472 48.1088 48.6508 48.4143C48.7132 48.5949 48.68 48.8074 48.6893 49.0066C48.757 49.0093 48.7105 48.9323 48.753 48.9243C48.8513 49.2762 48.9496 49.6255 49.0479 49.9761C49.0625 50.0306 49.0691 50.0864 49.0691 50.1421C49.0691 50.6468 49.2418 51.1249 49.3201 51.6163C49.3613 51.8846 49.3122 52.0001 49.0412 51.9669C48.7756 51.9364 48.498 51.9921 48.255 51.9483C47.9097 51.8859 47.5724 51.9018 47.2311 51.8726C47 51.8553 47.0292 51.692 47.081 51.534Z" fill="#296191"/>
<path fill-rule="evenodd" clip-rule="evenodd" d="M70.2532 54.1073C70.3807 54.1153 70.3528 53.9984 70.3847 53.9347C70.5454 53.612 70.7008 53.2879 70.6517 52.9094C70.6317 52.7461 70.645 52.5854 70.7486 52.4499C70.9186 52.2294 70.8575 51.9532 70.9146 51.7075C70.9877 51.3861 71.0806 51.0621 71.159 50.7393C71.24 50.41 71.2187 50.0713 71.3237 49.7486C71.4073 49.4976 71.4273 49.224 71.6026 49.0075C71.6132 48.9969 71.6172 48.977 71.6145 48.9624C71.5853 48.4604 71.8177 47.9929 71.815 47.4962C71.815 47.3793 71.8761 47.2996 71.9147 47.208C72.0727 46.8388 72.1404 46.4496 72.2228 46.0605C72.2918 45.7431 72.41 45.4217 72.4658 45.107C72.5335 44.7139 72.677 44.3393 72.6995 43.9343C72.7195 43.5438 72.8669 43.3991 73.2202 43.4084C73.8005 43.423 74.3822 43.4535 74.9639 43.3765C75.3424 43.326 75.4991 43.4575 75.4991 43.8612C75.5005 44.2782 75.7156 44.6528 75.7262 45.0432C75.7369 45.4403 75.9494 45.7537 76.0304 46.1176C76.1419 46.6343 76.1857 47.1681 76.3478 47.6741C76.3677 47.7366 76.3916 47.795 76.373 47.8627C76.3279 48.0181 76.373 48.1576 76.4461 48.2943C76.5337 48.4564 76.5882 48.6224 76.5882 48.8176C76.5882 49.0434 76.6479 49.2718 76.7515 49.4737C76.8923 49.7446 76.9016 50.0487 76.9507 50.3316C77.0105 50.6822 77.1274 51.0036 77.2349 51.3343C77.3066 51.5508 77.2615 51.7845 77.3438 52.0143C77.5271 52.5176 77.6134 53.0489 77.5484 53.5907C77.5298 53.7488 77.6652 53.6651 77.7144 53.7288C77.8644 53.9174 77.903 54.1551 77.9162 54.3544C77.9375 54.6518 77.976 54.9507 78.0544 55.2216C78.1712 55.6253 78.2124 56.0477 78.3718 56.4381C78.4568 56.644 78.3399 56.8352 78.1154 56.8392C77.814 56.8405 77.5138 56.8618 77.2177 56.8299C76.9892 56.806 76.806 56.9534 76.5842 56.9361C76.3903 56.9202 76.284 56.8525 76.28 56.6466C76.2774 56.4355 76.2189 56.2349 76.126 56.0463C76.1114 56.0184 76.0901 55.9866 76.0941 55.9587C76.1393 55.6267 75.9347 55.3212 75.9918 54.9865C75.9945 54.9626 75.9998 54.9321 75.9879 54.9148C75.7926 54.6545 75.8165 54.3451 75.7647 54.0476C75.7448 53.9387 75.7754 53.8616 75.8006 53.7315C75.2641 53.8577 74.7408 53.8218 74.2202 53.8258C73.8311 53.8298 73.4419 53.8298 73.0528 53.8271C72.9506 53.8258 72.8576 53.8218 72.7553 53.762C72.5588 53.6505 72.3025 53.8138 72.3011 54.037C72.2985 54.3331 72.2121 54.6107 72.1245 54.8882C72.1072 54.9414 72.1059 54.9998 72.1059 55.0569C72.1072 55.4022 72.0329 55.7289 71.912 56.053C71.8549 56.2084 71.7911 56.3637 71.8058 56.543C71.8217 56.7383 71.7447 56.8511 71.5109 56.8445C71.0169 56.8286 70.5228 56.8418 70.0288 56.8405C69.7818 56.8392 69.6968 56.717 69.7871 56.4912C69.9451 56.0941 70.0235 55.6811 70.0633 55.2575C70.0673 55.2176 70.0553 55.1632 70.0779 55.1406C70.3887 54.8365 70.2147 54.454 70.2532 54.1073ZM72.9957 51.7792C73.0409 51.7859 73.0847 51.7938 73.1298 51.7991C73.3317 51.9678 73.5508 52.0262 73.8072 51.9266C74.0316 51.8416 74.2893 51.827 74.4924 51.9134C74.7275 52.0116 74.8563 51.9346 75.0051 51.7965C75.0237 51.7885 75.0409 51.7779 75.0582 51.7699C75.1419 51.7673 75.2441 51.8217 75.2999 51.7221C75.3517 51.6278 75.2521 51.5787 75.207 51.5189C75.1525 51.4445 75.122 51.3715 75.1193 51.2759C75.1113 50.8748 75.0051 50.4897 74.9427 50.0979C74.9227 49.9677 74.8271 49.8708 74.8298 49.734C74.8364 49.3502 74.7368 48.9863 74.6292 48.6224C74.4964 48.1695 74.515 47.6927 74.4407 47.2319C74.4088 47.0154 74.345 46.8268 74.1139 46.7471C74.11 46.7378 74.1113 46.7299 74.1179 46.7232C74.1498 46.6489 74.1418 46.5971 74.0475 46.5864C73.9745 46.5785 73.932 46.6037 73.9028 46.6781C73.7766 46.9995 73.6571 47.3195 73.6624 47.6741C73.6651 47.791 73.6531 47.9012 73.6066 48.0221C73.5017 48.2997 73.4141 48.5932 73.3848 48.8867C73.3623 49.0965 73.341 49.305 73.2627 49.4963C73.1471 49.7791 73.163 50.0846 73.0847 50.3741C72.9824 50.7593 73.001 51.1696 72.8111 51.5388C72.7301 51.6889 72.7925 51.8084 72.9957 51.7792Z" fill="#115EA8"/>
<path fill-rule="evenodd" clip-rule="evenodd" d="M26.8755 53.5566C26.91 53.6191 26.914 53.6602 26.8662 53.6921C26.8622 53.6961 26.8356 53.6775 26.837 53.6735C26.8449 53.6403 26.8569 53.6071 26.8755 53.5566Z" fill="#296191"/>
<path fill-rule="evenodd" clip-rule="evenodd" d="M63.7417 54.0108C63.5677 53.9936 63.5504 54.0998 63.5518 54.2392C63.5544 54.9431 63.5518 55.6483 63.5518 56.3535C63.5518 56.7174 63.4787 56.821 63.1188 56.8303C62.569 56.8489 62.0178 56.833 61.468 56.8383C61.2794 56.8383 61.3166 56.7068 61.3166 56.6019C61.3153 55.655 61.3153 54.7067 61.3153 53.7585C61.3153 53.3056 61.3166 52.8527 61.3139 52.3999C61.3139 52.3215 61.3325 52.2418 61.2688 52.1688C61.2223 52.1157 61.1506 52.036 61.3046 52.0081C61.3193 52.0041 61.3153 51.8885 61.3153 51.8248C61.3153 50.0757 61.3139 48.328 61.3139 46.5789C61.3139 46.4992 61.3139 46.4195 61.2728 46.3398C61.2728 46.5298 61.2728 46.7197 61.2728 46.9083C61.2608 46.9083 61.2475 46.9083 61.2369 46.9069C61.2369 45.9574 61.2369 45.0078 61.2369 44.0569C61.2489 44.0569 61.2595 44.0569 61.2701 44.0569C61.2701 44.6678 61.2701 45.28 61.2701 45.891C61.2847 45.891 61.298 45.891 61.3139 45.891C61.3139 45.4009 61.3139 44.9108 61.3139 44.4208C61.3139 44.1459 61.3259 43.8696 61.3113 43.5947C61.302 43.4168 61.379 43.3278 61.5397 43.3291C61.9355 43.3331 62.3312 43.2853 62.7257 43.3583C62.8519 43.3822 62.9833 43.3676 63.1122 43.3676C63.4176 43.3676 63.5305 43.4712 63.5504 43.7767C63.5584 43.8895 63.5544 44.0038 63.5544 44.1166C63.5544 46.5045 63.5544 48.8924 63.5531 51.2803C63.5531 51.4131 63.5836 51.5525 63.4189 51.6322C63.3685 51.6575 63.3486 51.7398 63.3685 51.8089C63.3911 51.8832 63.4548 51.8753 63.5079 51.8713C63.5889 51.8646 63.6646 51.9257 63.7443 51.8779C63.7682 51.9935 63.8612 51.9709 63.9382 51.9709C64.8134 51.9709 65.6873 51.9735 66.5638 51.9709C66.7883 51.9682 66.949 51.7796 66.9543 51.5114C66.9596 51.2697 66.9543 51.0266 66.9543 50.7836C66.9543 48.4913 66.9543 46.1991 66.9543 43.9068C66.9543 43.442 67.0127 43.4168 67.4762 43.3902C67.8561 43.3676 68.2346 43.3689 68.6131 43.3689C69.1217 43.3689 69.1509 43.442 69.1509 43.8935C69.1363 47.0198 69.1523 50.1461 69.131 53.2724C69.1283 53.7731 69.2147 54.2632 69.1908 54.7612C69.1735 55.0998 69.1562 55.4372 69.1443 55.7758C69.1363 56.0096 69.208 56.238 69.1908 56.4757C69.1669 56.8104 69.1562 56.8317 68.8282 56.8317C68.285 56.8317 67.7432 56.8263 67.2 56.837C67.0127 56.8396 66.9476 56.7892 66.9503 56.5913C66.9609 55.8223 66.9463 55.052 66.9609 54.2831C66.9662 54.0374 66.8613 53.8873 66.6661 53.7771C66.5811 53.7293 66.4881 53.631 66.4138 53.8023C66.4018 53.8275 66.3115 53.8236 66.257 53.8222C65.4562 53.8076 64.6541 53.8501 63.8532 53.7997C63.6673 53.793 63.7908 53.9457 63.7417 54.0108Z" fill="#115EA8"/>
<path fill-rule="evenodd" clip-rule="evenodd" d="M25.7334 47.1711C26.177 47.2853 26.4984 47.5907 26.9008 47.7461C27.0296 47.7966 27.0655 47.9812 27.1704 48.0649C27.2381 48.1193 27.3696 47.9746 27.4918 48.0848C27.5834 48.1685 27.7481 48.1392 27.8079 48.3106C27.8264 48.361 28.023 48.3092 28.0695 48.1857C28.1412 47.9932 28.2129 47.7993 28.2607 47.5987C28.3962 47.021 28.4533 46.4181 28.6711 45.8656C28.8371 45.4419 28.8132 44.9957 28.9407 44.572C29.0403 44.2347 29.1346 43.8894 29.1452 43.5308C29.1466 43.4644 29.1784 43.4299 29.2462 43.4193C29.294 43.4113 29.3391 43.3794 29.3843 43.3794C30.1293 43.3874 30.8717 43.3196 31.6141 43.4193C31.7111 43.4312 31.7429 43.483 31.7708 43.572C31.8333 43.7739 31.8758 43.9757 31.8665 44.1895C31.8585 44.3715 31.8452 44.5494 31.986 44.7155C32.0537 44.7951 32.0683 44.9479 32.055 45.0634C32.0179 45.43 32.233 45.7314 32.2914 46.0741C32.3512 46.4273 32.6102 46.7341 32.5478 47.1219C32.5358 47.1923 32.5823 47.2587 32.5982 47.3251C32.6341 47.4632 32.7204 47.6107 32.5664 47.7607C32.5079 47.8178 32.5132 47.9799 32.5916 48.0768C32.8678 48.4288 32.9263 48.8444 32.9356 49.2721C32.9382 49.3863 32.9263 49.5005 33.0577 49.5629C33.1241 49.5935 33.1348 49.6652 33.1281 49.7316C33.1082 49.9946 33.2662 50.2256 33.2888 50.4634C33.322 50.8472 33.5133 51.1951 33.5066 51.5697C33.504 51.8339 33.6155 52.0425 33.7085 52.2616C33.7749 52.4143 33.832 52.567 33.8028 52.7238C33.7616 52.9575 33.8041 53.1567 33.9529 53.3347C34.0206 53.417 33.9967 53.502 33.9993 53.5897C33.9993 53.6308 34.014 53.6933 33.9343 53.6893C33.8851 53.6853 33.8386 53.7118 33.8015 53.6308C33.6979 53.4051 33.5518 53.2045 33.3619 53.0359C33.3114 52.992 33.2224 52.9363 33.2822 52.8353C33.3127 52.7835 33.2729 52.7503 33.2304 52.7609C33.0338 52.8167 32.9634 52.672 32.8718 52.5498C32.6181 52.2032 32.2423 51.9641 31.9103 51.7436C31.4853 51.4608 31.1559 51.0331 30.646 50.8684C30.4972 50.8206 30.4042 50.6533 30.2595 50.5696C30.2342 50.555 30.1997 50.5218 30.1652 50.5218C29.9447 50.5218 29.7681 50.4594 29.7176 50.2124C29.7057 50.1539 29.6645 50.126 29.614 50.134C29.3976 50.1699 29.2355 50.0769 29.0709 49.9468C28.942 49.8458 28.7588 49.8525 28.614 49.7555C28.3152 49.5563 28.031 49.3106 27.683 49.2203C27.3576 49.1366 27.1677 48.8511 26.8981 48.7475C26.5276 48.6054 26.3802 48.2946 26.1385 48.0556C25.8941 47.8125 25.9114 47.4526 25.7334 47.1711ZM30.4574 46.7328C30.3153 46.7248 30.3803 46.8709 30.3179 46.9227C30.2236 46.9254 30.1559 46.9971 30.1386 47.0635C30.055 47.3769 29.9899 47.6957 29.9235 48.0131C29.8664 48.2906 29.8425 48.5788 29.7575 48.8471C29.5901 49.3637 29.6061 49.4261 30.0643 49.7489C30.1798 49.8312 30.3099 49.8843 30.4255 49.9693C30.6021 50.1008 30.6792 50.3744 30.974 50.3611C31.1028 50.3558 31.2861 50.2416 31.2476 50.1128C31.1254 49.7064 31.0497 49.2933 30.9939 48.875C30.9182 48.3052 30.7482 47.7501 30.7814 47.1618C30.7907 46.9971 30.7217 46.758 30.4574 46.7328Z" fill="#115EA8"/>
<path fill-rule="evenodd" clip-rule="evenodd" d="M61.2314 51.1457C61.2314 51.0541 61.2314 50.9625 61.2314 50.8708C61.2394 50.8708 61.2461 50.8695 61.254 50.8682C61.254 50.9571 61.254 51.0475 61.254 51.1364C61.2461 51.1391 61.2394 51.1417 61.2314 51.1457Z" fill="#115EA8"/>
<path fill-rule="evenodd" clip-rule="evenodd" d="M61.2476 48.1274C61.2755 48.1633 61.2834 48.2164 61.2516 48.2297C61.2157 48.243 61.2263 48.1912 61.2263 48.1673C61.2263 48.1527 61.2409 48.1407 61.2476 48.1274Z" fill="#115EA8"/>
<path fill-rule="evenodd" clip-rule="evenodd" d="M34.4881 56.6417C34.4881 56.8714 34.346 56.9976 34.1933 56.9193C33.9755 56.8064 33.7564 56.8489 33.5359 56.8369C33.4482 56.8303 33.3593 56.8329 33.2703 56.8356C33.0684 56.8409 32.7484 56.8967 32.6939 56.7864C32.5784 56.55 32.4256 56.299 32.4429 56.0029C32.4509 55.8807 32.4708 55.7532 32.3791 55.6337C32.3008 55.5341 32.3858 55.4902 32.4934 55.4663C32.7337 55.4172 32.8944 55.5859 33.0857 55.6642C33.4124 55.801 33.7139 55.9843 34.0114 56.1689C34.2159 56.2964 34.3686 56.4916 34.4881 56.6417ZM33.5133 56.6204C33.5107 56.5925 33.4907 56.5527 33.4297 56.5487C33.3779 56.5447 33.3354 56.5607 33.3287 56.6204C33.3234 56.6829 33.346 56.7293 33.419 56.7293C33.4748 56.7293 33.5067 56.7028 33.5133 56.6204Z" fill="#115EA8"/>
<path fill-rule="evenodd" clip-rule="evenodd" d="M74.1153 46.7207C73.9984 46.6941 74.0011 46.7964 73.9904 46.8561C73.9108 47.2997 73.766 47.7327 73.6956 48.1722C73.5562 49.0581 73.3291 49.924 73.175 50.8058C73.1179 51.1312 73.0037 51.4446 72.9944 51.778C72.7912 51.8072 72.7288 51.689 72.8071 51.5363C72.9984 51.1671 72.9784 50.7567 73.0807 50.3715C73.1591 50.082 73.1431 49.7766 73.2587 49.4937C73.337 49.3011 73.3583 49.0939 73.3809 48.8841C73.4101 48.5906 73.4977 48.2971 73.6026 48.0195C73.6491 47.8987 73.6611 47.7884 73.6584 47.6716C73.6531 47.317 73.7726 46.9969 73.8988 46.6755C73.928 46.5998 73.9718 46.5746 74.0436 46.5839C74.1392 46.5958 74.1471 46.6476 74.1153 46.7207Z" fill="#296191"/>
<path fill-rule="evenodd" clip-rule="evenodd" d="M75.0569 51.7701C75.0622 51.4673 74.9746 51.1791 74.9188 50.8882C74.6545 49.5057 74.3823 48.1258 74.1113 46.7446C74.3424 46.8256 74.4062 47.0142 74.438 47.2307C74.5124 47.6929 74.4938 48.1697 74.6266 48.6212C74.7342 48.9851 74.8338 49.349 74.8272 49.7328C74.8245 49.8709 74.9201 49.9665 74.94 50.0967C75.0025 50.4885 75.1087 50.8736 75.1167 51.2747C75.1193 51.369 75.1499 51.4434 75.2043 51.5177C75.2495 51.5775 75.3491 51.6266 75.2973 51.7209C75.2429 51.8219 75.1406 51.7674 75.0569 51.7701Z" fill="#296191"/>
<path fill-rule="evenodd" clip-rule="evenodd" d="M73.1299 51.7981C73.7554 51.7663 74.3796 51.7716 75.0038 51.7955C74.8564 51.9336 74.7262 52.0106 74.4912 51.9124C74.2893 51.826 74.0303 51.8393 73.8059 51.9256C73.5509 52.0252 73.3318 51.9668 73.1299 51.7981Z" fill="#296191"/>
<path fill-rule="evenodd" clip-rule="evenodd" d="M30.3166 46.9228C30.2263 47.6108 30.0736 48.2868 29.9062 48.9601C29.8518 49.1859 29.8159 49.3877 30.0909 49.5471C30.4362 49.7476 30.7416 50.0146 31.1161 50.2908C30.889 49.0703 30.6725 47.9016 30.4561 46.7329C30.7204 46.7595 30.7894 46.9972 30.7801 47.1632C30.7482 47.7515 30.9182 48.3054 30.9926 48.8764C31.0484 49.2948 31.1254 49.7078 31.2463 50.1142C31.2848 50.243 31.1015 50.3559 30.9727 50.3625C30.6779 50.3745 30.6008 50.1022 30.4242 49.9708C30.3073 49.8858 30.1772 49.8326 30.063 49.7503C29.6034 49.4276 29.5888 49.3652 29.7562 48.8485C29.8412 48.5803 29.8651 48.2921 29.9222 48.0145C29.9886 47.6971 30.055 47.3784 30.1373 47.0649C30.1546 46.9972 30.2223 46.9255 30.3166 46.9228Z" fill="#296191"/>
<path fill-rule="evenodd" clip-rule="evenodd" d="M33.5134 56.6201C33.5068 56.7025 33.4762 56.729 33.4204 56.729C33.3461 56.729 33.3248 56.6826 33.3301 56.6201C33.3368 56.5604 33.3793 56.5444 33.4311 56.5484C33.4908 56.5524 33.5107 56.5923 33.5134 56.6201Z" fill="#296191"/>
<path fill-rule="evenodd" clip-rule="evenodd" d="M34.9451 56.9087C34.9451 56.9087 35.7299 53.1476 27.8651 49.5564C27.8651 49.5564 25.5396 48.7357 25.5396 46.5815C25.5396 46.5815 24.8902 48.1208 26.8398 50.344C26.8398 50.344 28.7536 52.02 31.8666 53.627C31.8666 53.627 34.4311 54.9936 34.9451 56.9087Z" fill="#FAFAF8" stroke="#FAFAF8" stroke-miterlimit="10"/>
<path fill-rule="evenodd" clip-rule="evenodd" d="M26.4507 49.8643C26.4507 49.8643 26.7694 53.8339 30.8041 54.7888C30.8041 54.7888 34.6011 55.4209 34.9437 56.9084C34.9437 56.9084 34.4324 55.1168 32.4802 54.0039C32.4802 54.0039 28.6593 51.9042 28.0391 51.276C28.0391 51.276 26.9474 50.6359 26.4507 49.8643Z" fill="#FCD20A"/>
</svg>
