<svg width="100" height="100" viewBox="0 0 100 100" fill="none" xmlns="http://www.w3.org/2000/svg">
<rect width="100" height="100" fill="#F8D82E"/>
<path d="M29.1425 39.1882C29.1425 39.2673 29.2414 39.8406 29.3402 40.4139C29.5379 41.4617 29.5182 41.5408 28.0156 45.6728C27.1655 47.9859 26.434 49.8047 26.355 49.7257C26.2956 49.6466 26.0979 48.836 25.9002 47.9266C25.7223 47.0171 25.5642 46.2263 25.5246 46.2066C25.4851 46.167 24.0616 46.5822 22.3416 47.116C20.6216 47.6696 19.1784 48.1045 19.1191 48.1045C19.0202 48.1045 19.1586 48.8558 19.475 50.1408L19.6727 50.8921L29.5973 50.8328C40.6488 50.7339 40.5697 50.7537 43.2386 49.35C47.0543 47.3335 49.0906 42.8457 47.1927 40.5919C46.5402 39.8011 45.6704 39.465 43.7131 39.208C41.7559 38.9707 29.1425 38.9312 29.1425 39.1882ZM40.5499 42.0746C41.6768 42.5491 41.6768 44.0121 40.5499 45.6728C39.4032 47.373 37.3471 48.5394 34.9747 48.8162C34.0455 48.9348 33.8874 48.8953 33.8874 48.6185C33.8874 48.144 36.2796 41.8967 36.5366 41.7188C36.8529 41.5013 39.7986 41.7583 40.5499 42.0746Z" fill="black"/>
<path d="M50.8106 39.1879C50.7117 39.3263 49.6244 42.2128 46.8566 49.5277L46.3623 50.8721H49.8814H53.3807L55.5554 45.0399C56.7614 41.8371 57.6906 39.1682 57.651 39.1089C57.4731 38.9309 50.9094 39.01 50.8106 39.1879Z" fill="black"/>
<path d="M59.4895 39.2472C59.45 39.3856 58.5999 41.5999 57.6312 44.1502C56.6624 46.7006 55.6937 49.2707 55.4762 49.844L55.0808 50.8721L58.6394 50.8325L62.1981 50.7732L63.2261 48.1043C63.7994 46.6413 64.5902 44.5852 65.0054 43.5374L65.7369 41.6394L67.7535 41.5406C68.8606 41.4813 69.8095 41.4615 69.8491 41.501C69.8886 41.5406 69.0187 42.5291 67.9116 43.7153L65.9148 45.8702L66.9429 48.3613L67.9709 50.8721H72.7355H77.4803L80.7029 47.1157C82.4624 45.0399 83.9847 43.3594 84.0638 43.3594C84.1429 43.3594 84.4592 44.6247 84.7558 46.1668C85.0721 47.7286 85.4082 49.4091 85.507 49.9231L85.7245 50.8721H89.2633H92.8022L92.6836 50.3383C92.6045 50.0615 92.0312 47.4518 91.4183 44.5654L90.2914 39.3066L87.4049 39.2472C84.8348 39.2077 84.4197 39.2472 83.7475 39.5833C83.2928 39.8206 81.2762 41.758 78.8445 44.3084C76.5709 46.7006 74.6137 48.6578 74.5148 48.6776C74.3962 48.6974 74.0206 48.1043 73.6647 47.3925L73.0321 46.1075L74.5148 44.5061C76.5709 42.2918 76.8675 41.1254 75.701 39.9392C75.3847 39.6426 74.7718 39.3461 74.1985 39.2275C72.7158 38.9111 59.6082 38.9309 59.4895 39.2472Z" fill="black"/>
<path d="M17.6759 39.5836C17.3002 39.8011 16.4897 40.4733 15.9163 41.1257C15.3232 41.7583 14.2556 42.8852 13.5241 43.6562C9.96552 47.4323 7 50.6549 7 50.7537C7 50.813 8.04782 50.8723 9.33287 50.8526H11.646L14.8092 47.116L17.9724 43.3795L18.2097 44.2691C18.3283 44.7634 18.4667 45.1983 18.5062 45.2379C18.6051 45.3367 25.1885 45.4158 25.2874 45.3169C25.3269 45.2774 25.0699 43.8737 24.7338 42.213L24.1209 39.208H21.2543C18.8423 39.2277 18.2492 39.287 17.6759 39.5836Z" fill="black"/>
<path d="M11.7449 50.4767L16.1079 45.5342H27.561L11.7449 50.4767Z" fill="white"/>
<path d="M37.2451 59.8691V54.1426H41.1709V55.1113H38.4014V56.4668H40.792V57.4355H38.4014V59.8691H37.2451ZM45.5993 59.8691V54.1426H46.7556V59.8691H45.5993ZM51.3793 59.8691V54.1426H52.5043L54.8481 57.9668V54.1426H55.9223V59.8691H54.7621L52.4536 56.1348V59.8691H51.3793ZM65.5226 59.8691H64.2648L63.7648 58.5684H61.4757L61.0031 59.8691H59.7765L62.007 54.1426H63.2296L65.5226 59.8691ZM63.3937 57.6035L62.6046 55.4785L61.8312 57.6035H63.3937ZM69.3612 59.8691V54.1426H70.4862L72.83 57.9668V54.1426H73.9042V59.8691H72.744L70.4354 56.1348V59.8691H69.3612ZM82.3014 57.7637L83.4225 58.1191C83.2506 58.7441 82.9641 59.209 82.5631 59.5137C82.1646 59.8158 81.6581 59.9668 81.0436 59.9668C80.2831 59.9668 79.6581 59.7077 79.1686 59.1895C78.679 58.6686 78.4342 57.9577 78.4342 57.0566C78.4342 56.1035 78.6803 55.3639 79.1725 54.8379C79.6646 54.3092 80.3118 54.0449 81.1139 54.0449C81.8144 54.0449 82.3834 54.252 82.8209 54.666C83.0813 54.9108 83.2766 55.2624 83.4068 55.7207L82.2623 55.9941C82.1946 55.6973 82.0527 55.4629 81.8365 55.291C81.623 55.1191 81.3626 55.0332 81.0553 55.0332C80.6308 55.0332 80.2857 55.1855 80.0201 55.4902C79.7571 55.7949 79.6256 56.2884 79.6256 56.9707C79.6256 57.6947 79.7558 58.2103 80.0162 58.5176C80.2766 58.8249 80.6152 58.9785 81.0318 58.9785C81.3391 58.9785 81.6035 58.8809 81.8248 58.6855C82.0462 58.4902 82.205 58.1829 82.3014 57.7637ZM87.9251 59.8691V54.1426H92.1712V55.1113H89.0814V56.3809H91.9564V57.3457H89.0814V58.9043H92.2806V59.8691H87.9251Z" fill="black"/>
</svg>
