<svg width="100" height="100" viewBox="0 0 100 100" fill="none" xmlns="http://www.w3.org/2000/svg">
<rect width="100" height="100" fill="white"/>
<circle cx="50" cy="51" r="41.5385" stroke="#915A97" stroke-width="3.07692"/>
<path d="M15 55.8351V46.1649H17.7187C18.749 46.1649 19.4205 46.2133 19.7334 46.31C20.2142 46.4551 20.6168 46.7718 20.9411 47.2599C21.2654 47.7436 21.4276 48.3703 21.4276 49.1398C21.4276 49.7335 21.3341 50.2326 21.1471 50.6372C20.9602 51.0418 20.7217 51.3606 20.4317 51.5937C20.1455 51.8223 19.8536 51.9741 19.556 52.0488C19.1515 52.1412 18.5658 52.1873 17.7988 52.1873H16.6942V55.8351H15ZM16.6942 47.8008V50.5449H17.6214C18.2892 50.5449 18.7356 50.4943 18.9607 50.3931C19.1859 50.292 19.3614 50.1337 19.4873 49.9182C19.617 49.7027 19.6819 49.4521 19.6819 49.1662C19.6819 48.8144 19.5922 48.5242 19.4129 48.2955C19.2336 48.0668 19.0065 47.9239 18.7318 47.8668C18.5295 47.8228 18.1232 47.8008 17.5127 47.8008H16.6942Z" fill="#905A96"/>
<path d="M23.4128 51.0594C23.4128 50.0743 23.5406 49.2476 23.7962 48.5792C23.987 48.0866 24.2465 47.6447 24.5747 47.2533C24.9066 46.8619 25.2691 46.5717 25.6621 46.3826C26.1849 46.1275 26.7878 46 27.4708 46C28.7071 46 29.6954 46.442 30.4356 47.3259C31.1797 48.2098 31.5517 49.4389 31.5517 51.0132C31.5517 52.5743 31.1835 53.7968 30.4471 54.6807C29.7106 55.5602 28.7262 56 27.4937 56C26.2459 56 25.2539 55.5624 24.5174 54.6873C23.781 53.8078 23.4128 52.5985 23.4128 51.0594ZM25.1585 50.9934C25.1585 52.0884 25.3779 52.9195 25.8167 53.4868C26.2555 54.0497 26.8126 54.3311 27.488 54.3311C28.1633 54.3311 28.7166 54.0519 29.1478 53.4934C29.5828 52.9305 29.8003 52.0884 29.8003 50.967C29.8003 49.8588 29.5885 49.0321 29.165 48.4868C28.7452 47.9415 28.1862 47.6689 27.488 47.6689C26.7897 47.6689 26.2269 47.9459 25.7995 48.5C25.3721 49.0497 25.1585 49.8808 25.1585 50.9934Z" fill="#905A96"/>
<path d="M33.8631 55.8351V46.2441H35.5573V54.2058H39.7699V55.8351H33.8631Z" fill="#905A96"/>
<path d="M43.0486 55.8351V51.7652L39.975 46.1649H41.9611L43.9357 49.9908L45.8703 46.1649H47.8221L44.737 51.7784V55.8351H43.0486Z" fill="#905A96"/>
<path d="M54.9699 52.2797L56.6126 52.8799C56.3607 53.9354 55.941 54.7203 55.3534 55.2348C54.7696 55.7449 54.0274 56 53.1269 56C52.0127 56 51.0969 55.5624 50.3796 54.6873C49.6622 53.8078 49.3036 52.6073 49.3036 51.0858C49.3036 49.4763 49.6641 48.2274 50.3853 47.3391C51.1065 46.4464 52.0547 46 53.2299 46C54.2564 46 55.0901 46.3496 55.7311 47.0488C56.1127 47.4622 56.3989 48.0558 56.5897 48.8298L54.9127 49.2916C54.8135 48.7902 54.6055 48.3945 54.2888 48.1042C53.9759 47.814 53.5943 47.6689 53.1441 47.6689C52.5221 47.6689 52.0165 47.9261 51.6273 48.4406C51.2419 48.9551 51.0492 49.7885 51.0492 50.9406C51.0492 52.1631 51.24 53.0339 51.6216 53.5528C52.0032 54.0717 52.4992 54.3311 53.1097 54.3311C53.56 54.3311 53.9473 54.1662 54.2716 53.8364C54.596 53.5066 54.8287 52.9877 54.9699 52.2797Z" fill="#4D183C"/>
<path d="M59.0156 55.8351V46.1649H60.7098V49.971H64.0294V46.1649H65.7236V55.8351H64.0294V51.6069H60.7098V55.8351H59.0156Z" fill="#4D183C"/>
<path d="M68.4185 55.8351V51V46.1649H74.6401V47.8008H70.1127V49.9446H74.3253V51.5739H70.1127V54.2058H74.8003V55.8351H68.4185Z" fill="#4D183C"/>
<path d="M77.1518 55.8351V46.1649H79.6874L81.2098 52.7612L82.7151 46.1649H85.2564V55.8351H83.6824V48.223L82.0169 55.8351H80.3856L78.7258 48.223V55.8351H77.1518Z" fill="#4D183C"/>
</svg>
