<svg width="100" height="100" viewBox="0 0 100 100" fill="none" xmlns="http://www.w3.org/2000/svg">
<rect width="100" height="100" fill="white"/>
<path fill-rule="evenodd" clip-rule="evenodd" d="M57.4776 15L59.1321 39.5903L48.416 26.6363L57.4776 15Z" fill="#50B849"/>
<path fill-rule="evenodd" clip-rule="evenodd" d="M34.6318 28.9644L36.719 34.7171L48.4145 26.6377L57.4775 15H53.2525C53.2525 15 36.9599 23.8178 34.6318 28.9644Z" fill="#CCDC31"/>
<path fill-rule="evenodd" clip-rule="evenodd" d="M67.2787 31.5969L59.1318 39.4987L57.4773 15C57.4773 15 65.6849 20.6948 67.2787 31.5969Z" fill="#BAE3E3"/>
<path fill-rule="evenodd" clip-rule="evenodd" d="M59.2547 52.8526L59.1321 39.4984L67.279 31.5967V43.6008C67.279 43.6008 66.4842 49.0561 59.2547 52.8526Z" fill="#24793F"/>
<path fill-rule="evenodd" clip-rule="evenodd" d="M36.1299 61.0619H42.2278L59.2545 52.853L55.2762 43.6646L36.1299 61.0619Z" fill="#CCDC31"/>
<path fill-rule="evenodd" clip-rule="evenodd" d="M33.2845 55.6685L36.1298 61.0603L41.3694 47.7047L34.6332 28.9629C34.6332 28.9629 32.1838 33.1287 33.2845 55.6685Z" fill="#24793F"/>
<path fill-rule="evenodd" clip-rule="evenodd" d="M46.3936 37.9893L48.9965 27.3409L48.4159 26.6362L36.7007 34.717L46.3936 37.9893Z" fill="#57B949"/>
<path fill-rule="evenodd" clip-rule="evenodd" d="M51.3302 33.6755L46.3936 37.9892L48.9965 27.3408L51.3302 33.6755Z" fill="#24793F"/>
<path fill-rule="evenodd" clip-rule="evenodd" d="M53.7709 40.3159L55.276 43.6644L59.1318 39.5902L48.9963 27.3408L53.7709 40.3159Z" fill="#CCDC31"/>
<path fill-rule="evenodd" clip-rule="evenodd" d="M49.4968 42.8484L41.3695 47.7061L36.1299 61.0617L55.2762 43.6643L53.7711 40.3159L49.4968 42.8484Z" fill="#50B849"/>
<path fill-rule="evenodd" clip-rule="evenodd" d="M59.1319 39.5898L55.2761 43.664L59.2545 52.8525L59.1319 39.5898Z" fill="#50B849"/>
<path fill-rule="evenodd" clip-rule="evenodd" d="M47.1884 41.2755L46.3936 37.9891L36.7007 34.7168L41.3696 47.706L47.8931 43.97L47.1884 41.2755Z" fill="#BAE3E3"/>
<g clip-path="url(#clip0_16_6098)">
<path d="M39.6607 66.5068V68.265L36.4556 68.309C33.3242 68.3529 33.206 68.3676 32.3937 68.7485C31.3154 69.2467 30.2963 70.2577 29.7941 71.3273C29.41 72.1185 29.3953 72.265 29.3953 74.5068V76.8511L29.8827 77.8328C30.444 78.961 31.2416 79.7375 32.4084 80.2797C33.1913 80.646 33.3538 80.6606 35.4512 80.6606C37.7258 80.646 37.6372 80.6606 39.3949 79.928C39.5869 79.8548 39.646 79.928 39.6903 80.2504L39.7346 80.6606L41.1082 80.7046L42.4671 80.7485L42.4376 72.7925L42.3933 64.8364L41.0344 64.7925L39.6607 64.7485V66.5068ZM39.5278 71.3712C39.6312 71.5764 39.6755 72.3529 39.6312 73.613C39.5721 75.6936 39.4096 76.2504 38.6564 77.0123C37.8735 77.7742 37.5043 77.8767 35.5841 77.8767C33.9298 77.8767 33.7673 77.8474 33.2651 77.5104C32.4084 76.939 32.1278 76.2064 32.1278 74.5361C32.1278 72.983 32.305 72.3676 32.8811 71.8548C33.6935 71.1368 33.9741 71.0782 36.7362 71.0636C39.2472 71.0636 39.3653 71.0782 39.5278 71.3712Z" fill="#495A62"/>
<path d="M16.6335 68.4995C15.2599 68.9244 13.9601 70.0819 13.325 71.4738C13.0295 72.0892 13 72.4115 13 74.5068C13 76.7339 13.0148 76.8951 13.384 77.657C13.9601 78.8584 14.7134 79.635 15.8507 80.1771C16.7665 80.6313 16.9585 80.6606 18.5537 80.7192C20.4 80.7632 21.5669 80.602 22.4679 80.1478C23.1916 79.7669 23.2359 79.7815 23.295 80.2504L23.3393 80.6606L24.713 80.7046L26.0719 80.7485L26.0423 74.5507L25.998 68.3529L21.6407 68.3236C18.2878 68.309 17.1357 68.3383 16.6335 68.4995ZM23.1178 71.2687C23.4132 71.635 23.2655 75.4005 22.9258 76.0745C22.2315 77.4518 21.1976 77.9793 19.1888 77.9647C17.6379 77.95 17.0471 77.7742 16.4415 77.1295C15.8655 76.4995 15.7325 76.0306 15.7325 74.4921C15.7325 72.602 16.0575 71.928 17.2834 71.298C17.9038 70.9756 22.8371 70.961 23.1178 71.2687Z" fill="#495A62"/>
<path d="M49.616 68.4115C48.907 68.5873 47.9026 69.1294 47.3118 69.6862C45.9972 70.873 45.5688 72.0452 45.5688 74.5067C45.5688 75.4445 45.6575 76.4554 45.7756 76.9097C46.1597 78.2869 47.2084 79.547 48.5968 80.265C49.9409 80.9536 53.7221 80.8803 55.1992 80.1331C55.8639 79.7961 56.115 79.7814 55.9968 80.0745C55.79 80.6166 56.0411 80.7338 57.4 80.7338H58.7146L58.685 74.536L58.6407 68.3529L54.3573 68.3236C52.0088 68.3236 49.8671 68.3529 49.616 68.4115ZM55.7309 71.2393C55.9525 71.4591 55.982 74.8584 55.7605 75.591C55.5389 76.3675 54.9333 77.1294 54.2391 77.5104C53.7517 77.7888 53.3381 77.8767 52.2599 77.9206C50.5613 77.9939 49.9852 77.8913 49.3944 77.4078C48.6411 76.7778 48.3752 76.0305 48.3752 74.4628C48.3752 72.6459 48.715 71.9426 49.9261 71.3126C50.4874 71.0049 55.4355 70.9463 55.7309 71.2393Z" fill="#495A62"/>
<path d="M62.2595 74.5068V80.7339H63.5741H64.8887L64.9477 77.2467C64.9921 74.0819 65.0216 73.7156 65.3022 73.1148C65.7158 72.2357 66.1294 71.8401 67.0452 71.4152C67.7246 71.0929 68.0052 71.0636 69.8959 71.0636C72.3625 71.0636 72.2739 71.1368 72.1853 69.4079L72.1262 68.2797H70.014C67.7541 68.2797 66.6611 68.4408 65.7749 68.8804C65.0364 69.2614 64.9182 69.2321 64.9182 68.7192V68.2797H63.5889H62.2595V74.5068Z" fill="#495A62"/>
<path d="M77.8127 68.4846C76.3357 68.9535 75.0654 70.0377 74.4598 71.3418C74.1792 71.9425 74.1497 72.2649 74.1497 74.5066C74.1497 76.763 74.1792 77.0707 74.4746 77.6861C74.8586 78.492 75.7153 79.4736 76.4391 79.9279C77.5616 80.6312 78.3297 80.763 80.9145 80.7044C83.1744 80.6605 83.3517 80.6312 84.1345 80.2502C85.1241 79.7813 86.2171 78.6678 86.675 77.7007C86.9704 77.0561 87 76.763 87 74.5066V72.0158L86.5273 71.122C85.966 70.0671 85.1241 69.2612 83.9868 68.7337C83.2187 68.3821 82.9972 68.3528 80.7964 68.3235C79.1273 68.2942 78.2559 68.3381 77.8127 68.4846ZM82.9972 71.415C84.0016 72.0011 84.2674 72.6458 84.2674 74.492C84.2674 76.3967 84.0163 76.9975 83.0415 77.5835C82.4507 77.9205 82.2586 77.9498 80.5748 77.9498C78.891 77.9498 78.699 77.9205 78.1081 77.5835C77.1185 76.9975 76.8083 76.2942 76.8083 74.5066C76.8083 73.2172 76.8527 72.9681 77.1776 72.4114C77.3844 72.0451 77.798 71.6202 78.1377 71.415C78.6694 71.0927 78.891 71.0634 80.56 71.0634C82.2291 71.0634 82.4507 71.0927 82.9972 71.415Z" fill="#495A62"/>
</g>
<defs>
<clipPath id="clip0_16_6098">
<rect width="74" height="16" fill="white" transform="translate(13 64.7485)"/>
</clipPath>
</defs>
</svg>
