<svg width="100" height="100" viewBox="0 0 100 100" fill="none" xmlns="http://www.w3.org/2000/svg">
<rect width="100" height="100" fill="#2C9CCE"/>
<path d="M18.1868 70.7694H14.5962L12.3459 77.9712H10L15.1466 61.167H17.3968L22.5434 77.9712H20.2214L18.1868 70.7694ZM17.8876 69.233L16.2717 64.5518L14.927 69.233H17.8876Z" fill="white"/>
<path d="M27.0925 78.2112C25.7201 78.2112 24.5312 77.8912 23.5258 77.251L23.6574 76.1947C23.7154 75.7299 24.2488 75.518 24.6063 75.8206C25.2329 76.3508 25.794 76.7709 26.565 76.7709C27.1395 76.7709 27.7619 76.7709 28.3604 76.1707C28.7164 75.8137 28.9588 75.4345 28.9588 74.9704C28.9588 74.6183 28.7123 74.2823 28.5527 74.0582C28.4091 73.8341 28.1617 73.6181 27.8106 73.41C27.4595 73.202 26.917 72.9299 26.1829 72.5938C25.3211 72.1937 24.6907 71.7376 24.2918 71.2255C23.8928 70.7134 23.6933 70.0492 23.6933 69.233C23.6933 68.2728 24.0285 67.4886 24.6987 66.8804C25.369 66.2723 26.2706 65.9682 27.4037 65.9682C28.5527 65.9682 29.5581 66.2243 30.4198 66.7364L30.2882 67.7086C30.2274 68.1574 29.7158 68.3855 29.3024 68.2005C29.1778 68.1447 29.0556 68.0968 28.9357 68.0567C28.5527 67.9127 28.0979 67.8407 27.5713 67.8407C27.0127 67.8407 26.5738 67.9607 26.2547 68.2007C25.9355 68.4408 25.7759 68.7769 25.7759 69.209C25.7759 69.6411 25.9116 69.9692 26.1829 70.1932C26.4701 70.4173 27.0207 70.7134 27.8346 71.0815C28.9676 71.5936 29.7655 72.1137 30.2283 72.6418C30.6911 73.154 30.9225 73.8341 30.9225 74.6824C30.9225 75.7866 30.5794 76.6508 29.8932 77.275C29.207 77.8992 28.2734 78.2112 27.0925 78.2112Z" fill="white"/>
<path d="M32.7502 62.2083C32.7502 61.6332 33.2164 61.167 33.7915 61.167C34.3666 61.167 34.8328 61.6332 34.8328 62.2083V62.5023C34.8328 63.0774 34.3666 63.5436 33.7915 63.5436C33.2164 63.5436 32.7502 63.0774 32.7502 62.5023V62.2083ZM32.7502 66.2082H34.8328V77.9712H32.7502V66.2082Z" fill="white"/>
<path d="M39.8861 78.2112C38.9924 78.2112 38.2583 77.8912 37.6838 77.251C37.1093 76.6108 36.8221 75.7946 36.8221 74.8024C36.8221 73.33 37.4365 72.2738 38.6653 71.6336C39.7805 71.0381 41.014 70.6996 42.3657 70.6182C42.5971 70.6043 42.782 70.4157 42.7948 70.1842C42.8401 69.3587 42.9838 68.7128 42.723 68.3688C42.4198 67.9687 41.6458 67.1685 40.9277 67.1685C40.1836 67.1685 39.3439 67.8512 38.5457 68.4931C38.2459 68.7341 37.8067 68.64 37.6242 68.3014C37.447 67.9727 37.4625 67.5737 37.6646 67.2597L37.7078 67.1925C38.7132 66.3763 39.8781 65.9682 41.2027 65.9682C42.4634 65.9682 43.397 66.3363 44.0034 67.0725C44.6098 67.7926 44.913 68.9609 44.913 70.5773V74.0102C44.913 74.9224 44.913 76.4151 44.913 76.4151C45.0407 76.7832 45.2844 76.7709 45.7152 76.7709H46.2057V77.4182C45.4899 77.7817 44.7089 77.8899 43.9103 77.8078C43.894 77.8061 43.8772 77.8046 43.8598 77.8031C43.2727 77.7551 42.9464 77.379 42.723 76.7709C42.356 77.299 42.1762 77.435 41.6336 77.7551C41.091 78.0592 40.5085 78.2112 39.8861 78.2112ZM40.5324 76.5068C40.9154 76.5068 41.3144 76.3628 41.7293 76.0747C42.1442 75.7706 42.4953 75.3785 42.7826 74.8984V72.0897C41.5538 72.1537 40.6202 72.3938 39.9819 72.8099C39.3435 73.21 39.0244 73.8341 39.0244 74.6824C39.0244 75.8987 39.527 76.5068 40.5324 76.5068Z" fill="white"/>
<path d="M60.204 77.9712L59.1029 65.8242L55.0574 77.8271L51.0119 65.8242L49.8869 77.9712H47.5649L49.3842 61.167H51.2274L55.0574 73.17L58.8875 61.167H60.7307L62.5499 77.9712H60.204Z" fill="white"/>
<path d="M64.5893 62.2083C64.5893 61.6332 65.0555 61.167 65.6306 61.167C66.2057 61.167 66.6719 61.6332 66.6719 62.2083V62.5023C66.6719 63.0774 66.2057 63.5436 65.6306 63.5436C65.0555 63.5436 64.5893 63.0774 64.5893 62.5023V62.2083ZM64.5893 66.2082H66.6719V77.9712H64.5893V66.2082Z" fill="white"/>
<path d="M74.4302 65.9682C75.643 65.9682 76.5686 66.4483 77.207 67.4085C77.8613 68.3528 78.1884 69.6331 78.1884 71.2495V77.9712H76.1058V71.5136C76.1058 70.2653 75.9223 69.345 75.5553 68.7529C75.2042 68.1447 74.6696 67.8407 73.9514 67.8407C73.4248 67.8407 72.9381 67.9927 72.4912 68.2968C72.0444 68.5848 71.6694 68.9929 71.3661 69.5211V77.9712H69.2836V66.2082H71.055L71.1986 67.6726C71.5337 67.1445 71.9805 66.7284 72.5391 66.4243C73.1136 66.1202 73.744 65.9682 74.4302 65.9682Z" fill="white"/>
<path d="M83.6804 77.9712C82.7868 77.9712 82.0527 77.6511 81.4782 77.0109C80.9037 76.3708 80.6164 75.5546 80.6164 74.5623C80.6164 73.09 81.2308 72.0337 82.4596 71.3935C83.5748 70.798 84.8083 70.4596 86.16 70.3782C86.3915 70.3642 86.5764 70.1756 86.5891 69.9441C86.6344 69.1186 86.7781 68.4728 86.5174 68.1287C86.2141 67.7286 85.4402 66.9284 84.722 66.9284C83.9779 66.9284 83.1382 67.6111 82.34 68.253C82.0402 68.4941 81.6011 68.4 81.4185 68.0614C81.2414 67.7326 81.2568 67.3336 81.4589 67.0196L81.5021 66.9524C82.5075 66.1362 83.6725 65.7281 84.997 65.7281C86.2577 65.7281 87.1913 66.0962 87.7977 66.8324C88.4042 67.5526 88.7074 68.7209 88.7074 70.3373V73.7701C88.7074 74.6824 88.7074 76.1751 88.7074 76.1751C88.835 76.5431 89.0787 76.5308 89.5096 76.5308H90V77.1782C89.2842 77.5417 88.5032 77.6498 87.7046 77.5677C87.6883 77.5661 87.6715 77.5645 87.6541 77.5631C87.067 77.5151 86.7408 77.139 86.5174 76.5308C86.1503 77.0589 85.9705 77.195 85.4279 77.5151C84.8853 77.8191 84.3028 77.9712 83.6804 77.9712ZM84.3268 76.2668C84.7098 76.2668 85.1087 76.1227 85.5236 75.8346C85.9386 75.5306 86.2896 75.1385 86.5769 74.6584V71.8497C85.3481 71.9137 84.4145 72.1537 83.7762 72.5698C83.1378 72.9699 82.8187 73.5941 82.8187 74.4423C82.8187 75.6586 83.3214 76.2668 84.3268 76.2668Z" fill="white"/>
<rect x="32" y="21.7876" width="36" height="36" rx="18" fill="white"/>
<path d="M50 21.7876L52.6311 33.4356L62.7279 27.0597L56.352 37.1565L68 39.7876L56.352 42.4187L62.7279 52.5155L52.6311 46.1396L50 57.7876L47.3689 46.1396L37.2721 52.5155L43.648 42.4187L32 39.7876L43.648 37.1565L37.2721 27.0597L47.3689 33.4356L50 21.7876Z" fill="#2C9CCE"/>
</svg>
