<svg width="100" height="100" viewBox="0 0 100 100" fill="none" xmlns="http://www.w3.org/2000/svg">
<rect width="100" height="100" fill="white"/>
<path d="M73.3064 65.1448C72.9263 65.215 72.2343 65.4757 71.7372 65.7264C71.0063 66.1074 70.7237 66.318 70.0707 67.0198C68.8134 68.3634 68.3359 69.6168 68.3456 71.5519C68.3456 73.2364 68.6867 74.2993 69.5834 75.5025C70.8698 77.2271 72.7996 78.1095 75.0022 77.9891C76.776 77.8989 78.004 77.3374 79.2612 76.054C81.1422 74.1389 81.5808 71.0205 80.343 68.3935C79.8752 67.4009 78.7057 66.2378 77.6434 65.7063C76.2789 65.0245 74.8268 64.834 73.3064 65.1448ZM76.3569 67.9824C76.6883 68.1729 77.1171 68.4938 77.3023 68.7043C78.2964 69.8374 78.5887 71.6121 78.0235 73.1663C77.7213 73.9784 76.8442 74.8909 76.0353 75.2117C75.1581 75.5627 74.0861 75.5526 73.3161 75.1816C72.4585 74.7705 71.9711 74.3193 71.5716 73.5372C71.094 72.5947 70.9576 71.8026 71.1037 70.8701C71.3084 69.5867 71.8639 68.6542 72.7411 68.1228C73.5013 67.6616 73.8229 67.5914 74.817 67.6214C75.6552 67.6415 75.8014 67.6816 76.3569 67.9824Z" fill="#3F4041"/>
<path d="M9.32342 65.2651C8.18312 65.6561 7.42293 66.2778 6.9941 67.1501C6.35086 68.4937 6.65299 70.5592 7.6276 71.3814C8.2416 71.9028 8.8556 72.1836 10.4345 72.6548C12.7053 73.3266 13.0269 73.5472 13.0269 74.3895C13.0269 74.7504 12.9782 74.8808 12.7248 75.1214C12.5591 75.2718 12.2765 75.4322 12.0816 75.4723C11.5065 75.5826 10.1908 75.4523 9.63529 75.2217C8.90433 74.9209 8.08566 74.3594 8.00769 74.1087C7.96871 73.9884 7.90049 73.9082 7.85176 73.9282C7.81277 73.9483 7.3742 74.4496 6.88689 75.0612L6 76.1542L6.34111 76.2845C6.53603 76.3447 6.83816 76.5151 7.00385 76.6455C7.51064 77.0365 8.46576 77.4978 9.22596 77.7083C11.8477 78.4603 14.4694 77.6582 15.3368 75.8333C15.5804 75.3119 15.6096 75.1615 15.6096 74.1588C15.6096 73.1461 15.5902 73.0058 15.3368 72.4844C14.8494 71.4616 14.0308 70.9503 11.7599 70.2484C9.50859 69.5465 9.32342 69.4162 9.32342 68.5639C9.32342 67.862 9.8692 67.491 10.8828 67.491C11.7794 67.491 13.2511 68.0726 13.5532 68.5438C13.6409 68.6842 13.7579 68.7945 13.8066 68.7945C13.8943 68.7945 15.2198 66.8293 15.3368 66.5385C15.366 66.4382 15.327 66.3881 15.2003 66.3881C15.1028 66.3881 14.7812 66.2277 14.4888 66.0371C13.5727 65.4255 12.5884 65.1648 11.1264 65.1147C10.0934 65.0946 9.76199 65.1147 9.32342 65.2651Z" fill="#3F4041"/>
<path d="M21.467 65.4052C21.506 65.5356 21.5352 65.706 21.5352 65.7862C21.5352 65.8664 20.4924 68.4834 19.2254 71.6018C17.6173 75.5623 16.8473 77.3371 16.6816 77.4875C16.5452 77.6078 16.438 77.7381 16.438 77.7682C16.438 77.7983 17.1689 77.8184 18.0558 77.8184H19.6737L19.6152 77.5877C19.5762 77.4373 20.0733 76.0436 21.2038 73.1058C22.1102 70.7595 22.8704 68.7742 22.8996 68.694C22.9484 68.5135 23.0263 68.6639 23.923 70.8498L24.5857 72.454L23.348 72.5042C22.617 72.5342 22.0517 72.6044 21.9933 72.6646C21.9055 72.7548 21.1161 74.8404 21.1161 74.9808C21.1161 75.0008 22.12 75.0109 23.348 75.0109H25.5798L26.0379 76.184C26.2913 76.8558 26.4765 77.4574 26.4472 77.5877L26.4082 77.8184H28.0651H29.7317L29.4685 77.5376C29.3321 77.3872 29.0592 76.8859 28.8643 76.4146C28.2113 74.8605 26.0769 69.5764 25.1997 67.3905L24.3421 65.2348L22.8704 65.2047L21.389 65.1746L21.467 65.4052Z" fill="#3F4041"/>
<path d="M30.8623 65.2548C30.8623 65.3049 30.95 65.4453 31.0572 65.5857C31.2424 65.8263 31.2521 66.0369 31.2521 71.5617C31.2521 77.1566 31.2521 77.2869 31.0572 77.4674C30.95 77.5677 30.8623 77.688 30.8623 77.7381C30.8623 77.7783 31.6322 77.8184 32.5679 77.8184C33.5035 77.8184 34.2734 77.7883 34.2734 77.7482C34.2734 77.7081 34.1857 77.5877 34.0785 77.4674C33.8836 77.2569 33.8836 77.1365 33.9031 73.5068L33.9323 69.7568L35.3065 71.9026C36.057 73.0857 36.7782 74.2488 36.9146 74.4794C37.0413 74.7201 37.1973 74.9106 37.246 74.9106C37.3045 74.9106 38.0647 73.7575 38.9418 72.3538C39.819 70.95 40.5792 69.7969 40.6279 69.7969C40.6669 69.7969 40.7059 71.4614 40.7059 73.4968C40.7059 77.1065 40.7059 77.1967 40.5012 77.4574C40.3842 77.6078 40.316 77.7482 40.3355 77.7783C40.3647 77.7983 41.1444 77.8083 42.0606 77.7983L43.7466 77.7682L43.542 77.4975C43.3373 77.2368 43.3373 77.1666 43.3373 71.5215C43.3373 65.9467 43.3373 65.8163 43.5322 65.6358C43.9708 65.2247 43.8246 65.1846 42.0995 65.1846H40.4622L40.3063 65.4654C39.8287 66.3076 37.6456 69.9674 37.4799 70.2181L37.2752 70.5088L36.3786 68.9747C35.8815 68.1325 35.1701 66.9293 34.7997 66.3176L34.1272 65.1846H32.4996C31.5933 65.1846 30.8623 65.2147 30.8623 65.2548Z" fill="#3F4041"/>
<path d="M49.8867 65.4654C49.9841 65.7261 49.8574 66.0971 48.5222 69.3558C47.7133 71.331 46.7484 73.7174 46.3781 74.6599C45.345 77.2368 45.2963 77.3471 45.0136 77.5877L44.7505 77.8083L46.4366 77.8184C47.3527 77.8184 48.1129 77.7783 48.1129 77.7381C48.1129 77.698 48.0739 77.6178 48.0252 77.5677C47.9667 77.5075 48.1421 76.926 48.493 76.0135C48.8049 75.2114 49.5748 73.2161 50.2083 71.5717C50.8418 69.9373 51.3876 68.5937 51.4168 68.5937C51.4655 68.5937 52.5766 71.321 52.9469 72.3237C53.0054 72.4941 52.908 72.5042 51.6994 72.5042H50.3837L49.9354 73.7274L49.4968 74.9607L51.7482 74.9908L54.0093 75.0209L54.4478 76.194C54.6915 76.8357 54.8767 77.4674 54.8572 77.5877L54.8279 77.8184H56.4458C57.3327 77.8184 58.0539 77.7883 58.0539 77.7582C58.0539 77.7181 57.9564 77.5978 57.8297 77.4774C57.703 77.3571 57.3814 76.7254 57.1183 76.0737C56.8551 75.422 55.7636 72.7147 54.6915 70.0576L52.7423 65.2348L51.2609 65.2047L49.7892 65.1746L49.8867 65.4654Z" fill="#3F4041"/>
<path d="M57.235 65.3551C57.274 65.4553 57.3325 66.0168 57.352 66.6084L57.3909 67.6913H59.1842H60.9775V72.5443C60.9775 76.7355 60.958 77.4073 60.8313 77.5176C60.7533 77.5877 60.6851 77.678 60.6851 77.7281C60.6851 77.7783 61.4356 77.8184 62.342 77.8184C64.0865 77.8184 64.2424 77.7783 63.8039 77.3872C63.6089 77.2168 63.6089 77.1165 63.6284 72.4841L63.6577 67.7415L65.4802 67.7114L67.3027 67.6913L67.3417 66.6586C67.3612 66.0971 67.4099 65.5356 67.4489 65.4052L67.5269 65.1846H62.342C57.4397 65.1846 57.157 65.1947 57.235 65.3551Z" fill="#3F4041"/>
<path d="M83.1011 65.2648C83.1011 65.315 83.1693 65.4353 83.2473 65.5456C83.3642 65.706 83.3837 66.6084 83.3935 71.6218C83.3935 75.442 83.3545 77.5276 83.296 77.5677C82.9939 77.7582 83.335 77.8184 84.8066 77.8184C85.6935 77.8184 86.4147 77.7783 86.4147 77.7281C86.4147 77.678 86.3465 77.5877 86.2686 77.5176C86.1516 77.4173 86.1224 77.0664 86.1224 75.6024V73.8076H87.136C87.8377 73.8076 88.1788 73.8478 88.247 73.938C88.3055 74.0082 88.8318 74.8304 89.4263 75.7629C90.2742 77.1165 90.4691 77.4975 90.4009 77.6379C90.3132 77.8083 90.4106 77.8184 92.1649 77.8184C94.0167 77.8184 94.2798 77.7682 93.773 77.4975C93.5781 77.3872 91.3852 74.2288 90.9857 73.4868C90.9077 73.3364 90.9759 73.2662 91.3852 73.0556C92.701 72.3738 93.4319 71.0202 93.4319 69.3157C93.4319 68.1927 92.9446 66.9794 92.2332 66.3176C91.7069 65.8263 90.781 65.4052 89.9721 65.2849C89.1631 65.1746 83.1011 65.1445 83.1011 65.2648ZM89.4945 67.8016C90.6348 68.1024 91.1416 69.4961 90.4789 70.5189C90.3619 70.6993 90.0403 70.96 89.7771 71.1004C89.3288 71.331 89.1631 71.3511 87.711 71.3912L86.1224 71.4213V69.5563V67.6913H87.594C88.3932 67.6913 89.2509 67.7415 89.4945 67.8016Z" fill="#3F4041"/>
<g clip-path="url(#clip0_17_6252)">
<path d="M61.2597 19.6229C60.2604 20.6042 59.9036 21.4428 59.9036 22.8881C59.9036 24.03 59.9749 24.262 60.885 26.0284C61.9556 28.1338 62.0984 28.9546 61.5809 30.3106C61.0634 31.6845 61.0456 31.6488 61.7058 31.6488C62.6337 31.6488 63.5794 31.3277 64.1861 30.8281C64.6679 30.4177 64.7214 30.275 64.7214 29.3115C64.7214 28.3479 64.5965 28.0268 63.2047 25.2969C61.563 22.103 61.456 21.6391 61.9556 20.2295C62.4552 18.8021 62.2768 18.6415 61.2597 19.6229Z" fill="#C6312F"/>
<path d="M62.7766 21.4964L62.7588 23.0309L63.6867 24.4405C64.1863 25.2256 64.7751 26.2426 65.0071 26.7243L65.4175 27.5986L65.5246 26.9385C65.596 26.5816 65.6138 25.8501 65.5781 25.3326C65.5067 24.5297 65.3461 24.1728 64.4896 22.9595C63.9365 22.1566 63.3119 21.1574 63.1335 20.7292L62.7766 19.962V21.4964Z" fill="#C6312F"/>
<path d="M58.4758 24.0481C57.9583 25.19 57.8156 26.7423 58.1546 27.7415C58.2973 28.1698 58.8327 29.1511 59.3323 29.9183L60.2423 31.3101L60.5457 30.7213C61.0453 29.7756 60.9739 28.3303 60.3851 27.2776C59.5107 25.6896 59.1539 24.851 59.0289 23.9946L58.8862 23.1738L58.4758 24.0481Z" fill="#C6312F"/>
<path d="M48.9831 31.5062C48.7332 31.7203 44.6648 36.5021 43.273 38.2329L42.6128 39.0536L50.2678 39.1071L57.9407 39.1428L58.2083 39.6781C58.9042 41.0163 61.0633 41.8549 62.8656 41.4802C64.0254 41.2483 65.1496 40.5346 65.4351 39.8387L65.6492 39.3213H69.8247H74.0001V35.4851V31.6489H70.3243H66.6306L65.792 32.434C64.4002 33.7365 62.2767 34.129 60.0641 33.5045C58.9756 33.2012 57.6909 32.2734 57.4946 31.6489C57.3875 31.3099 57.2091 31.2921 53.3191 31.2921C50.3392 31.2921 49.1972 31.3456 48.9831 31.5062Z" fill="#222049"/>
<path d="M41.203 40.6953C41.0067 40.8737 40.3287 41.6231 39.7041 42.3725C39.0796 43.1219 37.5629 44.9419 36.296 46.4406L34.0298 49.1349H45.9673H57.9049L58.119 49.688C59.0647 51.954 64.1145 52.2395 65.435 50.0984L65.8276 49.4917H69.9138H74V45.1203V40.7488H70.2528H66.5056L65.5777 41.7123C64.4179 42.89 63.6506 43.1398 61.5629 43.0149C59.6714 42.9078 58.6543 42.4261 57.8157 41.2663L57.1911 40.392H49.3755C42.1844 40.392 41.5421 40.4098 41.203 40.6953Z" fill="#222049"/>
<path d="M32.0312 51.5791C30.8892 52.7567 26 58.4663 26 58.6269C26 58.7161 33.0305 58.7697 41.6134 58.7697H57.2446L57.7799 59.3942C58.0833 59.7332 58.7792 60.2328 59.3323 60.5004C60.2245 60.9286 60.5636 61 61.9554 61C63.3472 61 63.6862 60.9286 64.5784 60.5004C65.1494 60.2149 65.774 59.7689 65.9703 59.4655L66.345 58.9481H70.1814H74V54.8443V50.7405H70.2528H66.5056L65.6669 51.6148C64.5784 52.721 63.3294 53.1492 61.4201 53.0243C59.8855 52.9173 58.7435 52.4355 57.8156 51.4363L57.1554 50.7405H45.0037H32.852L32.0312 51.5791Z" fill="#222049"/>
</g>
<defs>
<clipPath id="clip0_17_6252">
<rect width="48" height="42" fill="white" transform="translate(26 19)"/>
</clipPath>
</defs>
</svg>
