<svg width="100" height="100" viewBox="0 0 100 100" fill="none" xmlns="http://www.w3.org/2000/svg">
<rect width="100" height="100" fill="#06539A"/>
<path d="M23.676 34.0529C22.7868 34.0672 21.9788 34.096 21.888 34.1151C21.7972 34.1342 21.5486 34.1821 21.3382 34.2252C20.3726 34.407 19.2682 34.8186 18.4364 35.3068C15.9601 36.7665 14.3729 39.2744 14.0526 42.2417C14.0191 42.5384 14 44.4481 14 47.4728V52.2349H15.9122H17.8197L17.8388 47.1952C17.858 41.6578 17.8388 42.012 18.1591 41.1266C18.6898 39.6477 19.9375 38.4177 21.3956 37.9295C22.0267 37.7189 22.4521 37.6759 24.1492 37.6519L25.7603 37.628V35.8428V34.0577L25.5261 34.0385C25.4018 34.0337 24.5652 34.0385 23.676 34.0529Z" fill="white"/>
<path d="M48.5017 34.0332C48.4492 34.0811 48.4635 35.9859 48.5161 36.4645C48.5926 37.125 48.7408 37.795 48.9511 38.4268C49.6013 40.3843 50.8586 42.0115 52.6131 43.1601C53.3875 43.6674 54.5158 44.1604 55.3189 44.3375L55.5914 44.3997V48.3194V52.2344H57.5036H59.4159L59.4255 48.329L59.4398 44.4188L59.9226 44.2848C63.3886 43.3133 65.9319 40.4178 66.4673 36.8426C66.5581 36.23 66.6107 34.8612 66.5677 34.3683L66.5294 33.9997H64.6507H62.7719L62.748 35.134C62.7145 36.632 62.6141 37.1202 62.1408 38.0678C61.5863 39.183 60.7401 40.011 59.6262 40.5422C57.1164 41.7339 54.1668 40.6379 52.8712 38.0391C52.4314 37.1537 52.331 36.6655 52.2976 35.1962L52.2689 34.0237L50.3996 34.0093C49.3718 34.0045 48.5209 34.0141 48.5017 34.0332Z" fill="white"/>
<path d="M46.2693 43.1486C46.2693 48.1783 42.1919 52.2556 37.1622 52.2556C32.1326 52.2556 28.0552 48.1783 28.0552 43.1486C28.0552 38.1189 32.1326 34.0415 37.1622 34.0415C42.1919 34.0415 46.2693 38.1189 46.2693 43.1486ZM31.6494 43.1486C31.6494 46.1933 34.1176 48.6615 37.1622 48.6615C40.2069 48.6615 42.6751 46.1933 42.6751 43.1486C42.6751 40.1039 40.2069 37.6357 37.1622 37.6357C34.1176 37.6357 31.6494 40.1039 31.6494 43.1486Z" fill="#FA7E3A"/>
<path d="M42.4273 34.0415H46.2693V52.2556H42.4273V34.0415Z" fill="#FA7E3A"/>
<path d="M86.9998 43.1486C86.9998 48.1783 82.9224 52.2556 77.8927 52.2556C72.863 52.2556 68.7856 48.1783 68.7856 43.1486C68.7856 38.1189 72.863 34.0415 77.8927 34.0415C82.9224 34.0415 86.9998 38.1189 86.9998 43.1486ZM72.3798 43.1486C72.3798 46.1933 74.848 48.6615 77.8927 48.6615C80.9374 48.6615 83.4056 46.1933 83.4056 43.1486C83.4056 40.1039 80.9374 37.6357 77.8927 37.6357C74.848 37.6357 72.3798 40.1039 72.3798 43.1486Z" fill="#FA7E3A"/>
<path d="M83.1577 34.0415H86.9998V52.2556H83.1577V34.0415Z" fill="#FA7E3A"/>
<path d="M86.5251 55.2877C84.0691 58.5885 80.8227 61.2842 77.0548 63.1512C73.287 65.0182 69.1062 66.0029 64.8592 66.0236C60.6121 66.0443 56.421 65.1004 52.6333 63.2702C48.8456 61.4399 45.5704 58.7761 43.0791 55.4994L45.9265 53.5349C48.09 56.3805 50.9344 58.6939 54.2238 60.2833C57.5131 61.8728 61.1529 62.6925 64.8412 62.6745C68.5295 62.6565 72.1602 61.8014 75.4324 60.18C78.7045 58.5586 81.5239 56.2176 83.6567 53.3511L86.5251 55.2877Z" fill="#FA7E3A"/>
</svg>
