<svg width="100" height="100" viewBox="0 0 100 100" fill="none" xmlns="http://www.w3.org/2000/svg">
<rect width="100" height="100" fill="#1A9BD4"/>
<path d="M85.4878 33.7344L71.0433 82.8455L65.2655 84.604L52.454 81.2126L55.9709 66.6426L53.4588 51.3189L56.7245 37.5025L52.454 20.9228L85.4878 33.7344Z" fill="#01458E"/>
<path d="M68.7635 40.6426H72.6572L64.7442 51.1933L72.406 62.1208H68.7635L60.9761 51.1933L68.7635 40.6426Z" fill="#FFFEFF"/>
<path d="M41.2797 61.1365V41.6837C45.8353 43.2078 48.228 44.6365 52.0822 48.6765C60.7242 31.7921 48.2272 21.1291 40.8984 17.9082L52.4635 21.8496C62.1222 34.6655 57.5046 46.8542 53.9885 51.3465C62.1222 64.2641 56.615 75.9697 52.8447 80.2077L49.5404 79.0635C58.3858 69.8075 54.9205 58.4241 52.0822 53.8894C48.5378 57.7553 46.1357 59.2852 41.2797 61.1365Z" fill="#FFFEFF"/>
<path d="M44.145 56.3432V46.2949C46.9189 47.7755 48.2495 48.8976 50.2996 51.3191C48.1667 53.6967 46.8465 54.8373 44.145 56.3432Z" fill="#DD3614" stroke="#DD3614" stroke-width="0.251208"/>
<path d="M27.8265 19.7201C29.0625 15.9036 33.1928 13.8473 36.983 15.1615L80.2664 30.1688C83.9428 31.4436 85.9281 35.4213 84.7366 39.1255L71.5032 80.2662C70.2736 84.0887 66.1414 86.1527 62.3467 84.8398L18.9731 69.8329C15.2889 68.5582 13.3018 64.5701 14.5029 60.8612L27.8265 19.7201Z" stroke="#FFFEFF" stroke-width="2.76329"/>
<rect x="31.3335" y="40.5171" width="3.2657" height="21.6039" fill="#FFFEFF"/>
</svg>
