<svg width="100" height="100" viewBox="0 0 100 100" fill="none" xmlns="http://www.w3.org/2000/svg">
<g clip-path="url(#clip0_17_7229)">
<rect width="100" height="100" fill="white"/>
<ellipse cx="50" cy="85.5" rx="55" ry="53.5" fill="#2D2F92"/>
<rect x="13" y="48" width="74" height="36" fill="white"/>
<path d="M12 27.9616C12 43.2269 12.0213 45.9015 12.149 45.7711C12.2235 45.6841 12.7451 45.0643 13.288 44.412C21.7289 34.2786 35.5451 28.1573 50 28.1573C61.4852 28.1573 72.6403 32.0063 81.0812 38.8778C82.6779 40.1825 86.2011 43.7052 87.2868 45.0969L88 46.0103V28.0051V-7.5H50H12V27.9616Z" fill="#EE2B31"/>
<path d="M45.5294 31.6475C40.1754 32.0933 34.8319 33.3437 29.9888 35.3007C23.5597 37.8884 17.9821 41.6395 13.4902 46.3909L12 47.9674V66.9837V86H50H88V66.9946V47.9783L86.6269 46.5213C84.4448 44.1837 82.2734 42.3136 79.591 40.4544C72.3317 35.4095 63.6459 32.3977 54.2151 31.6366C52.6078 31.5062 47.1473 31.517 45.5294 31.6475ZM23.4426 57.7419C24.5815 59.9926 25.5182 61.8735 25.5182 61.9062C25.5182 61.9388 25.1669 61.9714 24.7412 61.9714H23.9641L23.4426 60.8841L22.921 59.7969H21.1328H19.3445L18.8123 60.8841L18.2801 61.9714H17.535C17.1199 61.9714 16.7899 61.9388 16.7899 61.8953C16.7899 61.8627 17.7585 59.9056 18.9507 57.5571C20.8028 53.8821 21.1221 53.3059 21.2392 53.4581C21.3137 53.5668 22.3036 55.4913 23.4426 57.7419ZM58.9838 57.7202C60.1333 59.9926 61.07 61.8735 61.07 61.9062C61.07 61.9388 60.7188 61.9714 60.293 61.9714H59.516L58.9944 60.8841L58.4728 59.7969H56.6846H54.8964L54.3641 60.8841L53.8319 61.9714H53.0762C52.512 61.9714 52.3311 61.9388 52.363 61.8301C52.3843 61.7539 53.3529 59.7969 54.5238 57.481C56.2482 54.067 56.674 53.3059 56.7697 53.4472C56.8443 53.5342 57.8342 55.4587 58.9838 57.7202ZM65.7961 55.861C67.3289 57.1983 68.7978 58.5248 69.0852 58.7966L69.5854 59.2967V56.4481V53.5994H70.2773H70.9692V57.9485V62.2976L68.2868 59.9491C66.8073 58.6444 65.2958 57.2962 64.9339 56.9265L64.2633 56.2741L64.242 59.0901L64.2101 61.917H63.5182H62.8263L62.7944 57.5897C62.7731 54.2192 62.7944 53.2733 62.9008 53.3385C62.9754 53.382 64.274 54.5236 65.7961 55.861ZM30.9361 53.556C31.5109 53.7299 32.3305 54.3714 32.3305 54.6541C32.3305 54.7302 32.0857 54.9259 31.777 55.0673L31.2235 55.3282L30.9042 55.0129C30.1485 54.2409 28.605 54.5997 28.605 55.5457C28.605 56.0784 29.0521 56.4807 30.3933 57.1331C32.1389 57.992 32.6499 58.5465 32.6499 59.5903C32.6499 60.6341 32.1176 61.4604 31.1703 61.9062C30.7871 62.0801 30.4571 62.1236 29.6695 62.1345C28.7754 62.1345 28.5944 62.1019 28.0409 61.8301C27.4129 61.5039 26.9658 61.0363 26.8487 60.5471C26.7849 60.2861 26.8275 60.2426 27.3171 60.0361C27.6045 59.9056 27.8706 59.7969 27.9025 59.7969C27.9345 59.7969 28.0409 59.9491 28.1261 60.1339C28.456 60.7863 29.7014 61.0907 30.4784 60.7102C30.9042 60.5036 31.0745 60.2426 31.0852 59.7316C31.0958 59.188 30.6807 58.8075 29.2863 58.1225C27.8706 57.4266 27.2745 56.9156 27.1042 56.285C26.9552 55.7087 27.051 54.9803 27.3384 54.5127C27.5725 54.1105 28.307 53.6212 28.8499 53.4907C29.4353 53.3494 30.3507 53.3711 30.9361 53.556ZM77.4835 53.5016C77.9412 53.5994 78.1541 53.7299 78.5798 54.1648L79.112 54.7085L78.484 55.0346L77.8667 55.3499L77.707 55.1216C77.2174 54.4149 75.7378 54.4149 75.3866 55.1325C75.0034 55.8718 75.3227 56.2741 76.8129 57.0026C78.8672 57.992 79.3036 58.4595 79.3036 59.5903C79.3036 60.4492 78.9524 61.1451 78.2818 61.6126C76.8768 62.5803 74.5031 62.265 73.7261 61.0146C73.5557 60.7428 73.4174 60.4601 73.4174 60.384C73.4174 60.2644 74.5669 59.7208 74.6202 59.8077C74.6415 59.8295 74.716 59.9817 74.7905 60.1448C75.0992 60.7754 76.4297 61.0907 77.1429 60.721C77.4941 60.5362 77.7815 60.0578 77.7815 59.6555C77.7815 59.188 77.377 58.8509 76.0465 58.1877C75.3333 57.8398 74.5882 57.4049 74.386 57.2309C73.9496 56.8612 73.6303 56.1871 73.6409 55.6652C73.6622 54.0126 75.3759 53.0449 77.4835 53.5016ZM36.5882 56.285C36.5882 57.7745 36.6415 59.1771 36.6947 59.4054C36.9076 60.384 37.6633 60.8841 38.8874 60.8841C39.8454 60.8841 40.4627 60.5906 40.7821 59.96C40.995 59.5577 41.0056 59.3185 41.0375 56.5568L41.0695 53.5994H41.8571H42.6555V56.0675C42.6448 59.8186 42.4958 60.558 41.5804 61.3625C40.9098 61.9388 40.2605 62.1345 38.8768 62.1345C37.3333 62.1345 36.6308 61.9062 35.9283 61.1994C35.1513 60.4057 35.098 60.1013 35.098 56.5677V53.5994H35.8431H36.5882V56.285ZM49.223 53.7625C50.2235 54.067 50.8303 55.0455 50.7132 56.1871C50.6067 57.1983 50.1916 57.6549 48.9569 58.1333C48.7227 58.2203 48.7866 58.3182 50.2022 60.0469C51.0325 61.0363 51.7031 61.8844 51.7031 61.917C51.7031 61.9497 51.3412 61.9714 50.9048 61.9714H50.1064L48.6056 60.123C47.7754 59.101 47.0515 58.2747 46.9983 58.2747C46.9557 58.2747 46.9132 59.1119 46.9132 60.123V61.9823L46.2 61.9497L45.4762 61.917L45.4443 57.7528L45.423 53.5994H47.0515C48.1905 53.5994 48.8504 53.6538 49.223 53.7625ZM83.3165 57.7854V61.9714H82.5714H81.8263V57.7854V53.5994H82.5714H83.3165V57.7854ZM19.8768 69.691V73.1702H22.112H24.3473V69.691V66.2117H26.1569H27.9664V73.2246V80.2375H26.1569H24.3473V78.4435V76.6495H22.112H19.8768V78.4435V80.2375H18.0672H16.2577V73.2246V66.2117H18.0672H19.8768V69.691ZM55.0241 66.5597C56.7165 67.3642 57.6639 69.1256 57.6639 71.485C57.6639 73.3442 56.9294 74.812 55.5137 75.7688L54.8857 76.2037L55.2263 76.3777C55.716 76.6386 56.4398 77.3562 56.8017 77.9325C57.1423 78.487 57.451 79.4438 57.451 79.933V80.2375H55.4499H53.4381L53.3104 79.77C52.991 78.6609 52.0224 77.291 51.1815 76.7365C50.7451 76.4538 50.628 76.432 49.6594 76.432H48.6162V78.3348V80.2375H46.7535H44.8908V73.2246V66.2009L49.6594 66.2335L54.4174 66.2661L55.0241 66.5597ZM70.8627 67.9514V69.691H68.5742H66.2857V74.9642V80.2375H64.5826H62.8796V74.9642V69.691H60.591H58.3025V67.9514V66.2117H64.5826H70.8627V67.9514ZM39.856 69.18C40.3989 70.7456 41.4846 73.877 42.2616 76.1276L43.688 80.2375H41.8039H39.9305L39.3451 78.3565L38.7597 76.4864H36.5457H34.321L33.6824 78.3565L33.0437 80.2375H31.0852C29.2543 80.2375 29.116 80.2266 29.1905 80.0418C29.4566 79.3133 34.0762 66.8532 34.1613 66.614L34.2678 66.3205H36.5669H38.8768L39.856 69.18ZM81.2941 73.1811C82.614 76.9648 83.7104 80.0961 83.721 80.1396C83.7423 80.194 82.9014 80.2375 81.8583 80.2375H79.9529L79.3782 78.3348L78.814 76.432H76.6H74.3966L73.758 78.3021L73.1193 80.1831L71.1501 80.2157L69.1703 80.2375L69.4045 79.6069C69.5322 79.2589 70.6924 76.1276 71.9804 72.6484L74.3221 66.3205H76.6106H78.8992L81.2941 73.1811Z" fill="#2D2F92"/>
<path d="M20.7387 56.9267C20.4832 57.4594 20.2064 58.0574 20.1319 58.2423L19.9829 58.6011H21.1538C21.7924 58.6011 22.3246 58.5793 22.3246 58.5467C22.3246 58.5141 22.1224 58.0901 21.8882 57.5899C21.6434 57.1006 21.388 56.5353 21.3241 56.3287L21.1964 55.959L20.7387 56.9267Z" fill="#2D2F92"/>
<path d="M56.5996 56.133C56.5996 56.2091 56.3654 56.7853 56.0674 57.3942C55.78 58.0031 55.5352 58.525 55.5352 58.5576C55.5352 58.5793 56.0674 58.6011 56.706 58.6011C57.3553 58.6011 57.8769 58.5793 57.8769 58.5467C57.8769 58.5141 57.6427 58.014 57.3447 57.4268C57.0573 56.8397 56.8125 56.3069 56.8125 56.2417C56.8125 56.1656 56.7699 56.0786 56.706 56.046C56.6528 56.0134 56.5996 56.046 56.5996 56.133Z" fill="#2D2F92"/>
<path d="M47.0195 55.9914V57.1982L47.6901 57.133C48.8291 57.0134 49.1484 56.7633 49.1484 55.9805C49.1484 55.1651 48.6375 54.7954 47.5305 54.7954H47.0195V55.9914Z" fill="#2D2F92"/>
<path d="M48.6162 71.2677V73.1704H50.6493C52.512 73.1704 52.7143 73.1487 53.0442 72.953C53.8638 72.4311 54.098 70.9089 53.47 70.0826C52.9697 69.4085 52.7994 69.365 50.5854 69.365H48.6162V71.2677Z" fill="#2D2F92"/>
<path d="M36.0668 71.4196C35.7687 72.3111 35.5239 73.094 35.5239 73.1592C35.5239 73.2353 35.9071 73.2788 36.6522 73.2788C37.5144 73.2788 37.7699 73.2462 37.7379 73.1375C37.706 73.0722 37.4612 72.2894 37.1844 71.3978C36.9077 70.5172 36.6735 69.7996 36.6522 69.7996C36.6309 69.7996 36.3755 70.528 36.0668 71.4196Z" fill="#2D2F92"/>
<path d="M76.0999 71.4631C75.7912 72.3764 75.5464 73.1483 75.5464 73.1918C75.5464 73.2462 76.0573 73.2788 76.6747 73.2788C77.6965 73.2788 77.7923 73.2571 77.7391 73.0831C77.4304 72.0067 76.7811 69.9409 76.7279 69.8865C76.696 69.843 76.4086 70.5498 76.0999 71.4631Z" fill="#2D2F92"/>
</g>
<defs>
<clipPath id="clip0_17_7229">
<rect width="100" height="100" fill="white"/>
</clipPath>
</defs>
</svg>
