<svg width="100" height="100" viewBox="0 0 100 100" fill="none" xmlns="http://www.w3.org/2000/svg">
<rect width="100" height="100" fill="#DDEDFF"/>
<path d="M50.3145 48.5245C53.6112 45.7045 56.479 42.4767 59.2379 39.1453C59.3629 38.9943 59.4919 38.8467 59.6869 38.6302C59.8864 38.3853 60.0125 38.2033 60.1505 38.0307C62.2126 35.4513 64.191 32.8132 65.7494 29.8893C66.9921 27.5577 67.9802 25.1635 67.3489 22.4268C67.6968 23.5299 68.1987 24.6102 68.3662 25.74C69.111 30.7627 68.9508 35.819 68.7282 40.8695C68.6023 43.7238 68.431 46.5767 68.2283 49.4265C68.1536 50.4767 67.9993 51.5325 67.7598 52.5573C67.2485 54.7455 65.73 55.962 63.6049 56.3517C61.5246 56.7333 59.4202 57.0682 57.3125 57.1973C53.3249 57.4416 49.328 57.6193 45.3339 57.6431C42.131 57.6621 38.9247 57.4224 35.813 56.5328C35.3181 56.3914 34.8396 56.1924 34.3931 55.9729C36.265 56.2898 38.0148 55.9129 39.7192 55.2832C43.7378 53.7986 47.1352 51.3298 50.3145 48.5245Z" fill="#0F3C6F"/>
<path d="M67.3519 22.3755C67.9806 25.1639 66.9925 27.558 65.7498 29.8897C64.1914 32.8136 62.2129 35.4517 60.1509 38.0311C60.0129 38.2037 59.8868 38.3857 59.7116 38.5873C59.5784 38.3874 59.5164 38.1471 59.3948 37.9421C56.8543 33.6581 53.5474 30.0714 49.3851 27.3413C46.8568 25.683 44.1896 24.2368 41.5925 22.6824C41.0674 22.3682 40.5301 22.0474 40.0813 21.6387C39.3125 20.9385 39.4302 20.1998 40.4141 19.9151C41.5831 19.5768 42.7995 19.2562 44.005 19.216C47.873 19.0873 51.749 18.9708 55.6149 19.0852C58.352 19.1663 61.0877 19.5593 63.8045 19.9492C65.3013 20.164 66.5802 20.9217 67.3519 22.3755Z" fill="#9AB5D2"/>
<path d="M32.6636 54.4305C32.2203 53.008 31.6227 51.6132 31.3617 50.158C30.4806 45.2452 30.388 40.2673 30.4718 35.2939C30.5014 33.5378 30.6832 31.7514 31.0703 30.041C31.8867 26.4339 33.9677 26.08 36.6441 26.5309C40.7036 27.2149 44.3206 29.1513 47.9716 30.942C48.7346 31.3163 48.8464 31.8782 48.2375 32.4792C47.3627 33.3426 46.3798 34.0956 45.4622 34.917C43.9191 36.2985 42.391 37.6968 40.7902 39.1532C38.3333 41.7285 36.2668 44.4865 34.5503 47.4928C33.3302 49.6297 32.1786 51.8162 32.6636 54.4305Z" fill="#0E3B6E"/>
<path d="M32.696 54.4563C32.1783 51.8165 33.3298 49.6301 34.55 47.4931C36.2665 44.4869 38.3329 41.7288 40.7685 39.1982C42.6581 43.0347 45.6253 45.831 49.2085 48.0405C49.5191 48.232 49.8735 48.3527 50.261 48.5156C47.1352 51.3304 43.7378 53.7991 39.7192 55.2838C38.0147 55.9135 36.265 56.2904 34.369 55.9261C33.5262 55.7211 32.8848 55.3663 32.696 54.4563Z" fill="#99B5D2"/>
<path d="M41.8012 74.9449C40.0403 72.6094 40.0148 69.9648 41.6974 67.8217C43.6464 65.3394 46.565 64.8239 50.1318 66.3648C49.9637 65.4845 50.4551 65.3531 51.1521 65.4142C51.5685 65.4508 51.9924 65.4437 52.4101 65.4149C53.0661 65.3695 53.266 65.6748 53.2619 66.2987C53.2423 69.2844 53.2525 72.2703 53.2527 75.2561C53.2528 78.1679 51.7193 80.1879 48.8936 80.997C45.7679 81.8919 42.4977 80.6698 41.0646 78.0711C40.6133 77.2529 40.7279 77.0345 41.6389 76.9694C41.8355 76.9553 42.0372 76.954 42.2266 76.907C43.123 76.6846 43.7868 76.7988 44.4644 77.6207C45.7573 79.1888 48.6863 78.8637 49.736 77.1566C49.8802 76.9221 49.9514 76.6426 50.0902 76.3004C46.505 77.7287 43.9004 77.2915 41.8012 74.9449ZM43.7691 70.2608C43.3429 71.7109 43.7119 72.9569 44.8352 73.9304C45.8375 74.799 47.0227 74.9547 48.2169 74.3815C49.5417 73.7456 50.1674 72.6186 50.13 71.1568C50.0906 69.6152 48.9501 68.3069 47.4141 67.9804C45.9545 67.6702 44.5486 68.5102 43.7691 70.2608Z" fill="#123D6E"/>
<path d="M21.0154 75.8835C19.5431 74.6915 18.7639 73.1438 18.7861 71.3528C18.8227 68.406 20.7233 66.2201 23.4744 65.5698C25.0617 65.1946 26.6046 65.3729 28.0403 66.2057C28.1251 66.2549 28.2146 66.2984 28.3063 66.3327C28.3483 66.3484 28.4009 66.3354 28.4893 66.3354C28.3571 65.4852 28.8474 65.3886 29.5455 65.4037C31.8951 65.4543 31.6101 65.1268 31.6174 67.516C31.6262 70.4261 31.6209 73.3361 31.62 76.2462C31.6197 77.0939 31.4954 77.2178 30.6325 77.2319C30.2625 77.238 29.8923 77.2272 29.5224 77.2336C28.8896 77.2445 28.3559 77.148 28.5096 76.193C25.9048 77.7348 23.4382 77.6068 21.0154 75.8835ZM24.3214 68.0571C22.6113 68.5697 21.5894 70.4703 22.0797 72.2268C22.5817 74.0257 24.2498 75.0393 25.9837 74.5989C27.8279 74.1306 28.8416 72.3024 28.3538 70.3245C27.9492 68.6841 26.1912 67.6517 24.3214 68.0571Z" fill="#9CB6D1"/>
<path d="M63.1919 69.8081C62.6333 67.927 60.095 67.2379 58.5422 68.8478C58.1731 69.2304 57.9048 69.8683 57.8839 70.4004C57.8065 72.3725 57.8316 74.3498 57.8625 76.3244C57.8726 76.9714 57.6467 77.2204 57.0048 77.191C56.2743 77.1575 55.5411 77.1833 54.7305 77.1833C54.7305 76.8127 54.7305 76.5707 54.7305 76.3286C54.7305 71.687 54.7408 67.0453 54.7183 62.4038C54.7153 61.7742 54.8681 61.4845 55.543 61.5514C56.0322 61.5999 56.5317 61.587 57.0235 61.5544C57.6321 61.5142 57.8704 61.7665 57.8592 62.3712C57.8363 63.6039 57.8523 64.8373 57.8523 66.1527C59.3021 65.3886 60.7823 65.2003 62.3212 65.5519C64.3406 66.0134 66.4273 67.6804 66.3704 70.565C66.332 72.5147 66.3472 74.466 66.3725 76.4161C66.3799 76.9887 66.1931 77.2265 65.6087 77.1889C65.0676 77.154 64.5214 77.1609 63.9794 77.1883C63.3917 77.218 63.2047 76.9463 63.2075 76.3894C63.2185 74.2169 63.2027 72.0443 63.1919 69.8081Z" fill="#113C6D"/>
<path d="M77.2975 76.3722C77.2718 76.3085 77.246 76.2448 77.1303 76.1462C76.8269 76.2526 76.6134 76.3939 76.4 76.5353C76.4 76.5353 76.3956 76.5233 76.3659 76.5373C76.3049 76.5898 76.2736 76.6282 76.2423 76.6667C72.72 78.5906 67.8748 75.7498 67.5957 71.8035C67.2824 67.3726 71.8861 64.0973 76.1866 65.9654C75.8904 66.2335 75.6103 66.4343 75.3301 66.6352C75.371 66.7223 75.4119 66.8093 75.4528 66.8964C75.7614 66.7756 76.0699 66.6548 76.3784 66.534C76.3797 66.5717 76.3809 66.6094 76.3821 66.6471C76.6316 66.5816 76.8811 66.5161 77.1306 66.4506C77.1794 66.3805 77.2281 66.3103 77.3391 66.1838C77.4601 65.9443 77.5187 65.7612 77.5774 65.578C77.7355 65.5707 77.8936 65.5635 78.1118 65.6215C78.5065 66.2558 78.7294 66.0646 78.909 65.5787C78.9754 65.5714 79.0418 65.564 79.164 65.6185C79.56 65.9851 79.9001 66.2898 80.2407 66.6637C80.2408 69.5498 80.2403 72.3665 80.1889 75.193C79.849 75.452 79.8355 75.6527 80.2405 75.8348C80.241 76.0001 80.2409 76.1103 80.1884 76.2266C79.9063 76.3622 79.6822 76.5028 79.446 76.6189C78.939 76.8682 77.65 76.7141 77.2975 76.3722ZM75.3506 74.4453C75.3506 74.4453 75.3451 74.4387 75.4363 74.436C75.506 74.3859 75.5756 74.3358 75.6886 74.21C75.7665 74.1726 75.8444 74.1352 75.975 74.185C76.1506 74.149 76.4346 74.1675 76.4844 74.0683C76.8262 73.3884 77.2525 72.7088 77.3889 71.9799C77.519 71.2847 77.2984 70.5301 77.2932 69.8012C77.2897 69.3117 77.0657 69.2093 76.5884 69.2525C76.5494 69.2212 76.5303 69.1807 76.5342 69.0168C76.2368 67.892 74.368 67.2562 73.1816 67.9453C73.0221 67.9903 72.8625 68.0352 72.6353 68.0998C72.5912 68.1213 72.5588 68.1543 72.4587 68.2288C72.3925 68.2782 72.3263 68.3276 72.1886 68.3996C72.1553 68.436 72.122 68.4724 72.0884 68.5188C72.0884 68.5188 72.0804 68.5127 71.9882 68.5271C71.9298 68.5907 71.8713 68.6542 71.7688 68.8049C70.1259 70.4431 70.3498 73.4548 73.0327 74.6954C73.5126 75.105 74.3156 75.067 74.9512 74.5688C74.9512 74.5688 75.0091 74.5759 75.1087 74.5808C75.1887 74.5328 75.2688 74.4849 75.3506 74.4453Z" fill="#103C6E"/>
<path d="M32.9771 67.3393C32.9823 65.1681 32.774 65.4322 34.8432 65.4235C35.407 65.4212 36.0607 65.238 36.2614 66.0847C36.2767 66.1492 36.7414 66.1986 36.9359 66.114C37.9995 65.6512 39.0996 65.4635 40.2494 65.5733C41.1091 65.6554 41.225 65.8643 40.8813 66.6472C40.8022 66.8274 40.7117 67.0038 40.6473 67.1891C40.3898 67.9296 40.055 68.3359 39.0896 68.2768C37.4152 68.1745 36.1457 69.6754 36.1169 71.5546C36.0939 73.0587 36.1129 74.5634 36.1137 76.0679C36.1144 77.181 36.1147 77.1811 34.9653 77.1828C34.5706 77.1834 34.174 77.1598 33.7815 77.1893C33.1657 77.2357 32.9622 76.968 32.9664 76.3651C32.9868 73.3809 32.9766 70.3966 32.9771 67.3393Z" fill="#123D6D"/>
<path d="M77.287 76.4322C77.6501 76.714 78.9391 76.8683 79.4461 76.6189C79.6823 76.5027 79.9064 76.3621 80.1885 76.2832C80.1923 76.5905 80.1437 76.8471 80.0951 77.1037C79.3241 77.1283 78.5532 77.1561 77.7821 77.1765C77.2949 77.1894 77.2441 76.869 77.287 76.4322Z" fill="#123A68"/>
<path d="M80.1543 77.0905C80.1438 76.847 80.1924 76.5905 80.241 76.2772C80.2411 76.1103 80.2412 76.0001 80.2419 75.7751C80.2416 75.5013 80.2408 75.3422 80.24 75.1832C80.2405 72.3664 80.241 69.5497 80.2421 66.5987C80.2491 66.2048 80.2556 65.9452 80.2622 65.6855C80.3069 65.8882 80.39 66.0908 80.3905 66.2936C80.3986 69.636 80.4002 72.9784 80.3884 76.3208C80.3875 76.5732 80.2743 76.8253 80.1543 77.0905Z" fill="#173C66"/>
<path d="M77.0926 66.4193C76.8816 66.5163 76.6321 66.5818 76.3826 66.6473C76.3814 66.6096 76.3801 66.5719 76.3789 66.5342C76.0704 66.6551 75.7618 66.7759 75.4533 66.8967C75.4124 66.8096 75.3715 66.7225 75.3306 66.6355C75.6107 66.4345 75.8909 66.2336 76.2193 66.0098C76.5297 66.1205 76.7919 66.2542 77.0926 66.4193Z" fill="#123A68"/>
<path d="M80.2602 65.6893C80.2561 65.945 80.2496 66.2047 80.2419 66.5294C79.9007 66.2896 79.5607 65.9849 79.2139 65.6293C79.4619 65.571 79.7167 65.5636 80.0546 65.5949C80.1733 65.6692 80.2163 65.6881 80.2666 65.6903C80.2666 65.6903 80.2577 65.6933 80.2602 65.6893Z" fill="#123A68"/>
<path d="M78.8481 65.5677C78.7295 66.0647 78.5066 66.256 78.1704 65.6328C78.3749 65.5714 78.581 65.564 78.8481 65.5677Z" fill="#123A68"/>
<path d="M76.4517 76.5294C76.6133 76.394 76.8268 76.2526 77.0787 76.1401C76.9126 76.2872 76.7081 76.4053 76.4517 76.5294Z" fill="#123A68"/>
<path d="M77.5208 65.5713C77.519 65.761 77.4604 65.9441 77.3516 66.1376C77.3556 65.9535 77.4097 65.7591 77.5208 65.5713Z" fill="#123A68"/>
<path d="M80.2536 65.651C80.2156 65.6885 80.1727 65.6696 80.1172 65.6041C80.1453 65.5867 80.1933 65.599 80.2536 65.651Z" fill="#173C66"/>
<path d="M76.2834 76.6646C76.2739 76.6283 76.3052 76.5899 76.3723 76.5391C76.3802 76.5719 76.3523 76.6171 76.2834 76.6646Z" fill="#123A68"/>
<path d="M43.7816 70.202C44.5482 68.5103 45.9541 67.6703 47.4137 67.9805C48.9497 68.307 50.0902 69.6153 50.1296 71.1569C50.167 72.6187 49.5413 73.7457 48.2165 74.3816C47.0223 74.9548 45.8371 74.7991 44.8347 73.9305C43.7115 72.957 43.3425 71.711 43.7816 70.202Z" fill="#DDEDFF"/>
<path d="M24.3813 68.0414C26.1917 67.6514 27.9497 68.6837 28.3543 70.3242C28.8421 72.3021 27.8284 74.1303 25.9842 74.5986C24.2503 75.0389 22.5822 74.0254 22.0802 72.2265C21.59 70.47 22.6118 68.5693 24.3813 68.0414Z" fill="#DDEDFF"/>
<path d="M75.9224 74.0979C75.8445 74.1353 75.7667 74.1727 75.6229 74.2524C75.4864 74.3427 75.4158 74.3907 75.3453 74.4388C75.3453 74.4388 75.3508 74.4454 75.3019 74.4432C75.1718 74.4859 75.0905 74.5309 75.0093 74.5759C75.0093 74.5759 74.9513 74.5689 74.8686 74.5846C74.1849 74.601 73.584 74.6016 72.9831 74.6022C70.3499 73.4549 70.1261 70.4431 71.8318 68.7469C71.9566 68.6301 72.0186 68.5714 72.0805 68.5128C72.0805 68.5128 72.0886 68.5189 72.1283 68.51C72.1988 68.4598 72.2296 68.4184 72.2604 68.377C72.3265 68.3276 72.3927 68.2783 72.5384 68.2206C72.6463 68.1682 72.6748 68.1242 72.7032 68.0802C72.8627 68.0353 73.0223 67.9903 73.2963 67.9426C74.6573 67.7965 75.6896 68.2138 76.531 69.1309C76.5304 69.1808 76.5496 69.2213 76.6342 69.3162C77.6773 71.0361 77.3867 72.762 75.9224 74.0979Z" fill="#DDEDFF"/>
<path d="M75.9487 74.1414C77.3867 72.7619 77.6773 71.036 76.6673 69.3262C77.0658 69.2093 77.2898 69.3117 77.2933 69.8011C77.2986 70.5301 77.5192 71.2847 77.389 71.9799C77.2527 72.7088 76.8263 73.3884 76.4845 74.0683C76.4347 74.1675 76.1507 74.149 75.9487 74.1414Z" fill="#173C66"/>
<path d="M76.5326 69.0743C75.6895 68.214 74.6572 67.7965 73.3452 67.9248C74.3681 67.2561 76.2369 67.8921 76.5326 69.0743Z" fill="#173C66"/>
<path d="M73.0078 74.6486C73.5838 74.6014 74.1847 74.6008 74.8462 74.6034C74.3156 75.067 73.5125 75.1051 73.0078 74.6486Z" fill="#173C66"/>
<path d="M80.1892 75.1929C80.2409 75.3422 80.2417 75.5013 80.2413 75.7201C79.8358 75.6527 79.8494 75.452 80.1892 75.1929Z" fill="#123A68"/>
<path d="M72.0346 68.52C72.0187 68.5715 71.9567 68.6302 71.854 68.7034C71.8717 68.6543 71.9301 68.5908 72.0346 68.52Z" fill="#173C66"/>
<path d="M75.3911 74.4373C75.4161 74.3906 75.4866 74.3426 75.6014 74.29C75.576 74.3357 75.5064 74.3858 75.3911 74.4373Z" fill="#173C66"/>
<path d="M75.0591 74.5784C75.0906 74.531 75.1718 74.4859 75.3011 74.439C75.269 74.485 75.1889 74.5329 75.0591 74.5784Z" fill="#173C66"/>
<path d="M72.6698 68.0898C72.6753 68.1241 72.6468 68.1681 72.5786 68.2054C72.5595 68.1542 72.5919 68.1212 72.6698 68.0898Z" fill="#173C66"/>
<path d="M72.2248 68.3882C72.2298 68.4182 72.199 68.4596 72.1287 68.5049C72.1224 68.4723 72.1557 68.4359 72.2248 68.3882Z" fill="#173C66"/>
</svg>
