<svg width="100" height="100" viewBox="0 0 100 100" fill="none" xmlns="http://www.w3.org/2000/svg">
<rect width="100" height="100" fill="#1A1A74"/>
<path fill-rule="evenodd" clip-rule="evenodd" d="M94.6365 49.6891C94.6365 65.2931 86.0965 79.7551 72.1145 87.6091C67.1425 90.4011 61.8185 92.1791 56.1586 92.9151C46.9786 94.1071 38.1766 92.7811 29.9326 88.5491C17.7826 82.3111 9.97461 72.5311 6.68461 59.2351C5.66461 55.1051 5.36061 50.8891 5.66461 46.6471C6.44661 35.8151 10.6746 26.5111 18.3046 18.8031C24.5006 12.5412 31.9646 8.52516 40.5746 6.64716C44.2766 5.83916 48.0266 5.49916 51.8066 5.66916C63.3225 6.19116 73.2845 10.3972 81.5545 18.4471C87.7605 24.4891 91.7805 31.7891 93.6605 40.2491C94.3345 43.2911 94.6645 46.3771 94.6365 49.6891ZM80.2005 60.7871C80.9705 60.7871 81.7425 60.7871 82.5125 60.7871C82.9065 60.7851 82.9065 60.7851 82.7165 60.4391C81.3585 58.0011 80.0065 55.5631 78.6405 53.1291C78.5065 52.8911 78.4645 52.7831 78.7985 52.7231C79.3685 52.6231 79.9125 52.4171 80.4385 52.1831C82.3585 51.3411 83.8905 50.0831 84.6945 48.0871C85.3185 46.5431 85.3165 44.9351 85.0545 43.3211C84.7885 41.6811 84.1385 40.2311 82.7865 39.1811C81.5165 38.1971 80.0345 37.7871 78.4705 37.7651C75.0945 37.7211 71.7245 37.7471 68.3485 37.7351C68.1265 37.7351 68.0665 37.8251 68.0225 38.0151C67.8285 38.8331 67.6225 39.6491 67.4205 40.4671C65.7985 47.0411 64.1805 53.6131 62.5525 60.1851C62.4805 60.4771 62.5105 60.5751 62.8445 60.5711C64.1805 60.5531 65.5185 60.5531 66.8565 60.5711C67.1465 60.5751 67.2385 60.4731 67.3025 60.2071C67.8425 57.9111 68.3985 55.6211 68.9345 53.3291C68.9885 53.0911 69.0805 53.0251 69.3145 53.0271C70.4345 53.0391 71.5565 53.0411 72.6765 53.0251C72.9545 53.0211 73.1005 53.1071 73.2385 53.3471C74.6125 55.7351 76.0025 58.1151 77.3765 60.4991C77.5005 60.7151 77.6345 60.7971 77.8845 60.7911C78.6585 60.7771 79.4305 60.7871 80.2005 60.7871ZM64.5285 37.9551C64.3225 37.9551 64.2065 37.9551 64.0905 37.9551C62.5005 37.9551 60.9105 37.9631 59.3205 37.9471C59.0126 37.9471 58.7826 38.0331 58.5505 38.2391C55.0086 41.3951 51.4586 44.5431 47.9106 47.6951C47.7806 47.8111 47.6666 47.9551 47.4606 48.0331C47.4866 47.8851 47.5026 47.7651 47.5286 47.6511C48.2186 44.5251 48.9046 41.4011 49.6046 38.2811C49.6686 37.9911 49.6146 37.9471 49.3366 37.9491C47.7586 37.9611 46.1806 37.9631 44.6026 37.9471C44.3126 37.9431 44.2266 38.0451 44.1586 38.3091C42.2766 45.6071 40.3826 52.9051 38.4886 60.1971C38.4226 60.4571 38.4186 60.5751 38.7546 60.5731C40.2606 60.5551 41.7666 60.5571 43.2726 60.5731C43.5346 60.5751 43.6166 60.4831 43.6746 60.2451C44.2146 58.0891 44.7706 55.9351 45.3106 53.7791C45.3626 53.5671 45.4546 53.4231 45.6546 53.3131C46.3606 52.9271 47.0666 52.5351 47.7486 52.1071C48.0406 51.9251 48.1306 52.0031 48.2706 52.2731C49.6446 54.9331 51.0326 57.5831 52.4046 60.2411C52.5346 60.4931 52.6786 60.5751 52.9566 60.5731C54.7406 60.5571 56.5226 60.5571 58.3066 60.5711C58.6465 60.5751 58.6446 60.4971 58.5145 60.2211C56.7306 56.5171 54.9606 52.8091 53.1746 49.1051C53.0646 48.8771 53.0866 48.7611 53.2686 48.5931C54.0246 47.9011 54.7606 47.1911 55.5046 46.4871C58.4885 43.6671 61.4705 40.8471 64.5285 37.9551ZM29.1926 43.6071C29.2926 44.6491 29.3906 45.6511 29.4826 46.6591C29.9026 51.2011 30.3206 55.7451 30.7306 60.2891C30.7506 60.5111 30.8206 60.5691 31.0306 60.5691C32.6466 60.5611 34.2606 60.5571 35.8746 60.5711C36.1366 60.5731 36.1726 60.4811 36.1406 60.2571C35.8386 58.1251 35.5406 55.9911 35.2426 53.8591C34.8446 51.0111 34.4486 48.1631 34.0506 45.3171C33.7226 42.9691 33.3866 40.6211 33.0726 38.2751C33.0346 38.0071 32.9466 37.9511 32.6946 37.9531C30.7326 37.9631 28.7666 37.9631 26.8046 37.9531C26.5706 37.9511 26.4426 38.0271 26.3166 38.2211C21.4966 45.6351 16.6726 53.0471 11.8506 60.4591C11.7946 60.5471 11.6666 60.6371 11.7186 60.7371C11.7806 60.8591 11.9346 60.7871 12.0486 60.7871C13.9646 60.7931 15.8786 60.7851 17.7946 60.7991C18.0866 60.8011 18.2406 60.6991 18.3926 60.4611C21.9006 54.9471 25.4166 49.4431 28.9346 43.9371C28.9946 43.8271 29.0366 43.6971 29.1926 43.6071ZM27.5046 50.9091C25.4886 54.1291 23.5266 57.2651 21.5366 60.4451C23.7266 60.4451 25.8306 60.4411 27.9346 60.4511C28.2066 60.4531 28.1826 60.3211 28.1706 60.1371C28.0026 57.8351 27.8426 55.5291 27.6786 53.2271C27.6246 52.4871 27.5686 51.7531 27.5046 50.9091Z" fill="#1A1A74"/>
<path fill-rule="evenodd" clip-rule="evenodd" d="M80.2005 60.7873C79.4285 60.7873 78.6585 60.7753 77.8865 60.7933C77.6365 60.7993 77.5025 60.7173 77.3785 60.5013C76.0025 58.1173 74.6125 55.7373 73.2405 53.3493C73.1025 53.1093 72.9545 53.0233 72.6785 53.0273C71.5585 53.0433 70.4365 53.0413 69.3165 53.0293C69.0825 53.0273 68.9905 53.0933 68.9365 53.3313C68.3985 55.6233 67.8425 57.9133 67.3045 60.2093C67.2425 60.4753 67.1485 60.5773 66.8585 60.5733C65.5205 60.5553 64.1825 60.5553 62.8465 60.5733C62.5125 60.5773 62.4825 60.4793 62.5545 60.1873C64.1805 53.6153 65.8005 47.0433 67.4225 40.4693C67.6245 39.6533 67.8305 38.8373 68.0245 38.0173C68.0685 37.8273 68.1285 37.7373 68.3505 37.7373C71.7265 37.7493 75.0965 37.7213 78.4725 37.7673C80.0365 37.7893 81.5185 38.1993 82.7885 39.1833C84.1405 40.2333 84.7905 41.6833 85.0565 43.3233C85.3185 44.9373 85.3205 46.5433 84.6965 48.0893C83.8925 50.0853 82.3605 51.3433 80.4405 52.1853C79.9125 52.4173 79.3705 52.6253 78.8005 52.7253C78.4665 52.7853 78.5085 52.8933 78.6425 53.1313C80.0085 55.5653 81.3605 58.0053 82.7185 60.4413C82.9105 60.7873 82.9105 60.7873 82.5145 60.7893C81.7445 60.7873 80.9705 60.7873 80.2005 60.7873ZM73.8765 49.4653C74.5845 49.4653 75.2985 49.4333 76.0045 49.4753C76.5085 49.5073 76.9025 49.3473 77.2865 49.0413C77.9825 48.4953 78.6385 47.9153 79.0805 47.1393C79.6605 46.1133 79.5185 45.1433 78.6725 44.3233C78.4025 44.0633 78.0985 43.8473 77.7865 43.6453C77.6385 43.5493 77.4885 43.5133 77.3145 43.5153C75.7725 43.5193 74.2325 43.5253 72.6925 43.5073C72.4205 43.5033 72.3525 43.6093 72.3025 43.8393C71.9125 45.6093 71.5225 47.3813 71.1065 49.1473C71.0305 49.4633 71.1325 49.4733 71.3845 49.4693C72.2165 49.4573 73.0465 49.4653 73.8765 49.4653Z" fill="#FDFCFD"/>
<path fill-rule="evenodd" clip-rule="evenodd" d="M64.5288 37.9553C61.4728 40.8453 58.4888 43.6653 55.5068 46.4893C54.7628 47.1933 54.0268 47.9033 53.2708 48.5953C53.0888 48.7633 53.0668 48.8793 53.1768 49.1073C54.9628 52.8113 56.7328 56.5193 58.5168 60.2233C58.6468 60.4993 58.6488 60.5773 58.3088 60.5733C56.5248 60.5593 54.7428 60.5593 52.9588 60.5753C52.6788 60.5773 52.5368 60.4953 52.4068 60.2433C51.0328 57.5853 49.6448 54.9353 48.2728 52.2753C48.1348 52.0053 48.0428 51.9273 47.7508 52.1093C47.0688 52.5373 46.3628 52.9273 45.6568 53.3153C45.4568 53.4273 45.3648 53.5693 45.3128 53.7813C44.7708 55.9373 44.2148 58.0913 43.6768 60.2473C43.6188 60.4853 43.5368 60.5773 43.2748 60.5753C41.7688 60.5593 40.2628 60.5573 38.7568 60.5753C38.4208 60.5793 38.4248 60.4593 38.4908 60.1993C40.3848 52.9073 42.2788 45.6093 44.1608 38.3113C44.2288 38.0473 44.3148 37.9453 44.6048 37.9493C46.1828 37.9653 47.7608 37.9633 49.3388 37.9513C49.6168 37.9493 49.6708 37.9933 49.6068 38.2833C48.9048 41.4033 48.2208 44.5273 47.5308 47.6533C47.5048 47.7693 47.4888 47.8873 47.4628 48.0353C47.6688 47.9573 47.7808 47.8133 47.9128 47.6973C51.4608 44.5473 55.0128 41.3993 58.5528 38.2413C58.7848 38.0333 59.0128 37.9493 59.3228 37.9493C60.9128 37.9653 62.5028 37.9573 64.0928 37.9573C64.2048 37.9553 64.3228 37.9553 64.5288 37.9553Z" fill="#FDFCFD"/>
<path fill-rule="evenodd" clip-rule="evenodd" d="M29.1926 43.6072C29.0386 43.6972 28.9946 43.8272 28.9286 43.9352C25.4106 49.4412 21.8947 54.9452 18.3867 60.4592C18.2347 60.6972 18.0827 60.7992 17.7887 60.7972C15.8727 60.7832 13.9587 60.7912 12.0427 60.7852C11.9287 60.7852 11.7747 60.8552 11.7127 60.7352C11.6627 60.6352 11.7887 60.5452 11.8447 60.4572C16.6667 53.0452 21.4907 45.6332 26.3106 38.2192C26.4366 38.0252 26.5646 37.9492 26.7986 37.9512C28.7606 37.9612 30.7266 37.9612 32.6886 37.9512C32.9406 37.9492 33.0306 38.0052 33.0666 38.2732C33.3806 40.6212 33.7166 42.9692 34.0446 45.3152C34.4406 48.1632 34.8366 51.0112 35.2366 53.8572C35.5346 55.9892 35.8326 58.1232 36.1346 60.2552C36.1686 60.4792 36.1306 60.5712 35.8686 60.5692C34.2546 60.5552 32.6406 60.5592 31.0246 60.5672C30.8146 60.5672 30.7426 60.5112 30.7246 60.2872C30.3146 55.7432 29.8966 51.1992 29.4766 46.6572C29.3886 45.6512 29.2906 44.6472 29.1926 43.6072Z" fill="#FDFCFD"/>
<path fill-rule="evenodd" clip-rule="evenodd" d="M27.5046 50.9092C27.5686 51.7532 27.6266 52.4872 27.6786 53.2252C27.8426 55.5272 28.0026 57.8332 28.1706 60.1352C28.1826 60.3192 28.2066 60.4512 27.9346 60.4492C25.8306 60.4392 23.7266 60.4432 21.5366 60.4432C23.5266 57.2652 25.4886 54.1292 27.5046 50.9092Z" fill="#D4222B"/>
<path fill-rule="evenodd" clip-rule="evenodd" d="M73.8766 49.4649C73.0466 49.4649 72.2166 49.4569 71.3846 49.4689C71.1326 49.4729 71.0306 49.4629 71.1066 49.1469C71.5226 47.3809 71.9106 45.6069 72.3026 43.8389C72.3526 43.6089 72.4226 43.5029 72.6926 43.5069C74.2326 43.5249 75.7726 43.5189 77.3146 43.5149C77.4886 43.5129 77.6386 43.5509 77.7866 43.6449C78.0986 43.8469 78.4046 44.0629 78.6726 44.3229C79.5186 45.1429 79.6606 46.1149 79.0806 47.1389C78.6366 47.9169 77.9806 48.4949 77.2866 49.0409C76.9046 49.3449 76.5086 49.5049 76.0046 49.4749C75.2986 49.4349 74.5866 49.4649 73.8766 49.4649Z" fill="#1A1A74"/>
</svg>
