<svg width="100" height="100" viewBox="0 0 100 100" fill="none" xmlns="http://www.w3.org/2000/svg">
<rect width="100" height="100" fill="#F4FFE9"/>
<path d="M24.3381 70.6533C23.6885 70.6533 22.9139 70.3552 22.4972 69.6542C20.6763 66.5913 18.8036 63.5593 16.729 60.1538C16.729 64.6355 16.729 68.7119 16.729 72.8882C15.0983 72.8882 13.6094 72.8882 12 72.8882C12 65.634 12 58.357 12 50.9138C13.1916 50.9138 14.4109 50.9607 15.6036 50.9607C16.005 51.0046 16.4488 51.5317 16.7007 51.944C19.2264 56.0787 21.7161 60.2355 24.3019 64.5288C24.579 64.128 24.803 63.8414 24.9878 63.5312C27.1947 59.8268 29.4386 56.1433 31.5719 52.3966C32.2014 51.2909 32.8689 50.9116 34.1916 50.8901C34.9264 50.9116 35.7372 50.9116 36.6215 50.9116C36.6215 58.2907 36.6215 65.5699 36.6215 72.9198C35.0982 72.9198 33.6076 72.9198 31.9858 72.9198C31.9858 68.6697 31.9858 64.4795 31.9858 60.2893C31.883 60.25 31.7803 60.2107 31.6775 60.1713C31.1445 61.0622 30.6104 61.9523 30.0788 62.8439C28.6987 65.1587 27.3553 67.4971 25.9086 69.7692C25.6353 70.1984 24.9878 70.6533 24.3381 70.6533Z" fill="#166667"/>
<path d="M76.0691 70.6533C75.4194 70.6533 74.6448 70.3552 74.2281 69.6542C72.4073 66.5913 70.5346 63.5593 68.46 60.1538C68.46 64.6355 68.46 68.7119 68.46 72.8882C66.8293 72.8882 65.3403 72.8882 63.731 72.8882C63.731 65.634 63.731 58.357 63.731 50.9138C64.9226 50.9138 66.1418 50.9607 67.3345 50.9607C67.736 51.0046 68.1798 51.5317 68.4316 51.944C70.9573 56.0787 73.4471 60.2355 76.0328 64.5288C76.31 64.128 76.534 63.8414 76.7188 63.5312C78.9256 59.8268 81.1695 56.1433 83.3028 52.3966C83.9324 51.2909 84.5999 50.9116 85.9226 50.8901C86.6574 50.9116 87.4682 50.9116 88.3525 50.9116C88.3525 58.2907 88.3525 65.5699 88.3525 72.9198C86.8292 72.9198 85.3386 72.9198 83.7168 72.9198C83.7168 68.6697 83.7168 64.4795 83.7168 60.2893C83.614 60.25 83.5112 60.2107 83.4084 60.1713C82.8755 61.0622 82.3414 61.9523 81.8098 62.8439C80.4296 65.1587 79.0862 67.4971 77.6395 69.7692C77.3663 70.1984 76.7188 70.6533 76.0691 70.6533Z" fill="#166667"/>
<path d="M54.7459 55.6717C54.2923 55.4703 53.8433 55.3183 53.4108 55.2046C50.9687 54.5625 46.79 54.7187 46.79 57.2438C46.7902 57.8264 47.3946 58.6737 47.9512 58.9363C49.1263 59.4907 50.4444 59.736 51.702 60.1139C52.9608 60.4922 54.2505 60.7932 55.4675 61.2786C57.5481 62.1084 58.8951 63.6015 59.0176 65.9593C59.1416 68.3449 58.173 70.2118 56.1642 71.464C53.4951 73.1278 50.5366 73.1935 47.5559 72.801C45.3645 72.5123 43.2444 71.9279 41.3926 70.4892C41.9458 69.2579 42.4647 68.1031 43.0279 66.8499C45.4477 68.3491 47.9554 69.1393 50.713 68.9924C52.7067 68.8862 53.9236 68.2036 54.0983 67.0407C54.2818 65.8193 53.4431 65.0359 51.2801 64.4374C49.5146 63.9488 47.7081 63.582 45.9841 62.9753C43.1193 61.9672 41.8707 60.2839 41.8314 57.7115C41.7906 55.0396 43.1229 52.8969 45.7436 51.8692C49.9299 50.2276 54.0142 50.7414 58.1536 52.7315C57.62 54.05 57.1352 55.2479 56.6274 56.5026C55.9482 56.2035 55.3979 55.9611 54.7459 55.6717Z" fill="#176768"/>
<path d="M44.0822 28.4466C43.832 28.941 43.6421 29.3411 43.3285 30.0016C42.6884 29.5901 41.9603 29.1219 41.1851 28.6234C41.9235 28.1428 42.362 27.8574 42.7559 27.6011C43.1613 27.8207 43.6518 28.0865 44.0822 28.4466Z" fill="#74A246"/>
<path d="M56.5145 28.4466C56.7646 28.941 56.9546 29.3411 57.2682 30.0016C57.9082 29.5901 58.6364 29.1219 59.4116 28.6234C58.6731 28.1428 58.2346 27.8574 57.8408 27.6011C57.4354 27.8207 56.9449 28.0865 56.5145 28.4466Z" fill="#74A246"/>
<path d="M28.2139 41.8102C28.2139 43.4807 30.028 44.5197 31.4688 43.6744L48.6373 33.6023C49.6776 32.9919 50.9676 32.9957 52.0043 33.6122L68.8842 43.6488C70.3199 44.5025 72.1387 43.4679 72.1387 41.7976C72.1387 41.0379 71.7386 40.3345 71.0857 39.9463L52.3642 28.8146C51.1054 28.0661 49.5392 28.0615 48.2761 28.8026L29.2815 39.9461C28.6201 40.3341 28.2139 41.0435 28.2139 41.8102Z" fill="#689A37"/>
<path d="M28.2139 31.3748C28.2139 29.7044 30.028 28.6654 31.4688 29.5106L48.6373 39.5828C49.6776 40.1931 50.9676 40.1893 52.0043 39.5729L68.8842 29.5362C70.3199 28.6826 72.1387 29.7172 72.1387 31.3875C72.1387 32.1471 71.7386 32.8506 71.0857 33.2388L52.3642 44.3705C51.1054 45.1189 49.5392 45.1235 48.2761 44.3825L29.2815 33.239C28.6201 32.851 28.2139 32.1416 28.2139 31.3748Z" fill="#166767"/>
<path d="M50.3235 22L50.9853 24.037H53.1272L51.3944 25.2959L52.0562 27.3329L50.3235 26.074L48.5907 27.3329L49.2525 25.2959L47.5198 24.037H49.6616L50.3235 22Z" fill="#74A246"/>
</svg>
