<svg width="100" height="100" viewBox="0 0 100 100" fill="none" xmlns="http://www.w3.org/2000/svg">
<rect width="100" height="100" fill="white"/>
<path fill-rule="evenodd" clip-rule="evenodd" d="M30.3063 26L18.0298 37.6716V49.3433L30.3063 60.5075H68.6705L81.9701 49.3433V37.6716L69.182 26H30.3063ZM62.6863 38.1791V48.8358L58.6266 51.8805V54.4179L72.3281 43.2537L59.1341 33.1044V35.6417L62.6863 38.1791ZM37.3134 38.1791V48.8358L41.3731 51.8806V54.4179L27.6716 43.2537L40.8657 33.1045V35.6418L37.3134 38.1791ZM50.4562 38.1791L55.4798 43.2027L50.4562 48.2263L45.4326 43.2027L50.4562 38.1791Z" fill="#DF1A1C"/>
<path d="M23.2898 73.5522H21.6941L21.0598 71.902H18.1557L17.5561 73.5522H16L18.8297 66.2872H20.3808L23.2898 73.5522ZM20.589 70.6779L19.5879 67.9821L18.6067 70.6779H20.589ZM24.1125 73.5522V66.3467H25.5793V72.3282H29.2267V73.5522H24.1125ZM31.1595 73.5522V67.5162H29.0037V66.2872H34.7771V67.5162H32.6263V73.5522H31.1595ZM35.7286 73.5522V66.2872H41.1154V67.5162H37.1955V69.1268H40.8429V70.3509H37.1955V72.3282H41.2542V73.5522H35.7286ZM42.503 73.5522V66.2872H45.5904C46.3668 66.2872 46.9301 66.3533 47.2803 66.4854C47.6338 66.6143 47.9163 66.8455 48.1277 67.1792C48.3392 67.5129 48.4449 67.8945 48.4449 68.324C48.4449 68.8691 48.2847 69.3201 47.9642 69.6769C47.6437 70.0304 47.1647 70.2534 46.5271 70.3459C46.8442 70.5309 47.1052 70.7341 47.3101 70.9555C47.5182 71.1768 47.7974 71.57 48.1476 72.1349L49.0346 73.5522H47.2803L46.2198 71.9714C45.8432 71.4064 45.5855 71.0513 45.4467 70.9059C45.308 70.7572 45.1609 70.6565 45.0057 70.6036C44.8504 70.5474 44.6042 70.5194 44.2673 70.5194H43.9699V73.5522H42.503ZM43.9699 69.3597H45.0552C45.7589 69.3597 46.1983 69.33 46.3734 69.2705C46.5485 69.2111 46.6856 69.1086 46.7847 68.9633C46.8839 68.8179 46.9334 68.6362 46.9334 68.4182C46.9334 68.1737 46.8673 67.9771 46.7352 67.8284C46.6063 67.6764 46.423 67.5806 46.1851 67.541C46.0662 67.5245 45.7094 67.5162 45.1147 67.5162H43.9699V69.3597ZM58.832 73.5522H57.2363L56.602 71.902H53.6979L53.0983 73.5522H51.5422L54.3719 66.2872H55.923L58.832 73.5522ZM56.1312 70.6779L55.1301 67.9821L54.1489 70.6779H56.1312ZM59.62 66.2872H62.524C63.0989 66.2872 63.5267 66.312 63.8075 66.3615C64.0917 66.4078 64.3444 66.5069 64.5658 66.6589C64.7904 66.8109 64.9771 67.014 65.1258 67.2684C65.2744 67.5195 65.3488 67.802 65.3488 68.1159C65.3488 68.4561 65.2563 68.7684 65.0712 69.0525C64.8895 69.3366 64.6418 69.5497 64.3279 69.6918C64.7706 69.8206 65.1109 70.0403 65.3488 70.3509C65.5866 70.6614 65.7056 71.0265 65.7056 71.4461C65.7056 71.7765 65.6279 72.0986 65.4727 72.4124C65.3207 72.723 65.1109 72.9724 64.8433 73.1607C64.579 73.3458 64.2519 73.4597 63.8621 73.5027C63.6176 73.5291 63.0278 73.5456 62.0929 73.5522H59.62V66.2872ZM61.0869 67.4964V69.1764H62.0483C62.6198 69.1764 62.975 69.1681 63.1137 69.1516C63.3648 69.1219 63.5614 69.036 63.7035 68.8939C63.8488 68.7485 63.9215 68.5586 63.9215 68.324C63.9215 68.0993 63.8588 67.9176 63.7332 67.7789C63.611 67.6368 63.4276 67.5509 63.1831 67.5212C63.0378 67.5047 62.6198 67.4964 61.9293 67.4964H61.0869ZM61.0869 70.3856V72.3282H62.4447C62.9733 72.3282 63.3087 72.3133 63.4507 72.2836C63.6688 72.2439 63.8455 72.1481 63.981 71.9962C64.1198 71.8409 64.1891 71.6344 64.1891 71.3767C64.1891 71.1586 64.1363 70.9736 64.0306 70.8217C63.9248 70.6697 63.7712 70.559 63.5697 70.4896C63.3714 70.4202 62.9386 70.3856 62.2713 70.3856H61.0869ZM73.5009 73.5522H71.9051L71.2708 71.902H68.3668L67.7671 73.5522H66.2111L69.0408 66.2872H70.5919L73.5009 73.5522ZM70.8 70.6779L69.799 67.9821L68.8177 70.6779H70.8ZM74.2789 66.2872H76.9599C77.5645 66.2872 78.0254 66.3335 78.3426 66.426C78.7688 66.5515 79.1338 66.7745 79.4378 67.095C79.7417 67.4154 79.973 67.8086 80.1316 68.2744C80.2902 68.737 80.3695 69.3085 80.3695 69.9891C80.3695 70.5871 80.2951 71.1025 80.1465 71.5353C79.9647 72.0639 79.7054 72.4917 79.3684 72.8188C79.114 73.0666 78.7704 73.2599 78.3376 73.3986C78.0139 73.501 77.5811 73.5522 77.0392 73.5522H74.2789V66.2872ZM75.7458 67.5162V72.3282H76.841C77.2507 72.3282 77.5464 72.3051 77.7281 72.2588C77.966 72.1993 78.1625 72.0986 78.3178 71.9565C78.4764 71.8145 78.6052 71.5815 78.7043 71.2578C78.8035 70.9307 78.853 70.4863 78.853 69.9247C78.853 69.363 78.8035 68.9319 78.7043 68.6312C78.6052 68.3306 78.4665 68.096 78.2881 67.9275C78.1097 67.759 77.8834 67.6451 77.6091 67.5856C77.4043 67.5393 77.0029 67.5162 76.4049 67.5162H75.7458ZM81.5737 73.5522V66.2872H83.0406V73.5522H81.5737Z" fill="black"/>
</svg>
