<svg width="100" height="100" viewBox="0 0 100 100" fill="none" xmlns="http://www.w3.org/2000/svg">
<rect width="100" height="100" fill="white"/>
<path d="M91.9748 50.7361C91.9724 51.0069 91.9699 51.2777 91.962 51.587C91.958 51.6355 91.9594 51.6454 91.9608 51.6554C91.9564 51.8188 91.952 51.9822 91.9318 52.1773C91.9045 52.2254 91.903 52.2426 91.9117 52.2606C91.8608 52.9485 91.8252 53.638 91.7547 54.3239C91.6806 55.0452 91.5839 55.7647 91.4779 56.4822C91.2247 58.1967 90.8422 59.8837 90.3429 61.5492C90.2519 61.5636 90.1797 61.5666 90.1227 61.5975C89.9093 61.7134 89.7016 61.8397 89.4903 61.9595C89.0281 62.2215 88.5641 62.4802 88.1026 62.7434C87.5319 63.069 86.9644 63.4001 86.3931 63.7247C85.9233 63.9916 85.449 64.2504 84.9787 64.5163C84.3519 64.8708 83.7268 65.2282 83.1013 65.5851C82.6166 65.8617 82.1331 66.1403 81.6481 66.4163C81.0925 66.7325 80.5363 67.0476 79.9797 67.3619C79.3839 67.6984 78.7865 68.0322 78.1911 68.3695C77.5724 68.72 76.9556 69.0739 76.3371 69.4248C75.8673 69.6914 75.3951 69.954 74.9258 70.2214C74.3548 70.5467 73.7869 70.8773 73.2156 71.2017C72.7458 71.4685 72.2716 71.7277 71.8015 71.9939C71.1827 72.3443 70.5666 72.6994 69.9482 73.0503C69.4783 73.3169 69.0052 73.5779 68.5358 73.8454C67.9649 74.1706 67.3977 74.5024 66.8265 74.827C66.3568 75.0939 65.8823 75.3526 65.412 75.6185C64.7852 75.9729 64.1609 76.3318 63.5345 76.687C63.0724 76.949 62.6075 77.2063 62.1457 77.469C61.559 77.8029 60.9749 78.1412 60.3884 78.4753C60.0754 78.6536 59.7578 78.8239 59.4473 79.0063C59.3936 79.0379 59.3648 79.1119 59.3026 79.1673C59.2196 79.1539 59.1592 79.1369 59.0976 79.1257C57.6757 78.8662 56.2799 78.503 54.9008 78.0729C54.6447 77.993 54.383 77.9309 54.1107 77.847C53.9052 77.7586 53.7154 77.677 53.5205 77.6098C52.0837 77.1143 50.6891 76.5198 49.3326 75.8351C49.2693 75.8031 49.1997 75.7839 49.1214 75.7444C48.703 75.5227 48.2935 75.3205 47.8905 75.1061C47.6464 74.9762 47.4097 74.8318 47.1745 74.686C46.885 74.5064 46.6006 74.3186 46.3065 74.1219C46.2415 74.0682 46.2125 74.0312 46.3354 74.0179C46.4155 74.0259 46.4738 74.0302 46.5493 74.0469C46.8253 74.0879 47.0838 74.1194 47.3429 74.1443C47.8702 74.195 48.3971 74.2673 48.9256 74.2845C49.6645 74.3085 50.4047 74.2916 51.1443 74.2883C51.2315 74.2879 51.3185 74.2629 51.4308 74.2473C51.6596 74.23 51.8631 74.2147 52.0904 74.1969C52.4582 74.1573 52.8032 74.1264 53.1464 74.0815C53.5612 74.0273 53.9767 73.973 54.3881 73.898C55.6839 73.6618 56.9528 73.3223 58.1922 72.8762C60.0048 72.2238 61.7181 71.3714 63.3297 70.3158C65.1345 69.1337 66.7498 67.7339 68.1872 66.1256C69.5514 64.5993 70.6971 62.9246 71.6313 61.1056C71.8903 60.6014 72.1216 60.083 72.3744 59.5894C72.5252 59.708 72.6175 59.5792 72.7158 59.5245C73.1636 59.2752 73.6041 59.0128 74.05 58.7601C74.6447 58.423 75.243 58.092 75.8381 57.7555C76.4722 57.397 77.1041 57.0345 77.7375 56.6748C78.199 56.4127 78.6623 56.1538 79.1233 55.8908C79.6936 55.5656 80.2611 55.2356 80.832 54.9115C81.3014 54.645 81.7752 54.3863 82.2448 54.1201C82.8549 53.774 83.4617 53.422 84.0719 53.0762C84.5415 52.8101 85.0162 52.5528 85.4852 52.2856C86.0555 51.9608 86.6206 51.6266 87.1912 51.3022C87.7934 50.9598 88.4012 50.6273 89.0034 50.285C89.8634 49.7963 90.7194 49.3004 91.5807 48.8137C91.6951 48.7491 91.8301 48.7209 91.9556 48.6758C91.9593 48.8365 91.9631 48.9972 91.9649 49.1953C91.974 49.2465 91.9849 49.2603 91.9958 49.2741C91.9983 49.7221 92.0008 50.17 91.9911 50.6501C91.9776 50.7003 91.9762 50.7182 91.9748 50.7361Z" fill="url(#paint0_linear_18_7755)"/>
<path d="M91.9613 48.6525C91.8304 48.7208 91.6954 48.749 91.581 48.8137C90.7197 49.3003 89.8638 49.7962 89.0037 50.285C88.4015 50.6272 87.7937 50.9597 87.1916 51.3021C86.6209 51.6265 86.0559 51.9607 85.4855 52.2855C85.0165 52.5527 84.5419 52.81 84.0723 53.0761C83.462 53.422 82.8552 53.774 82.2451 54.12C81.7756 54.3863 81.3017 54.6449 80.8323 54.9114C80.2615 55.2356 79.6939 55.5655 79.1236 55.8907C78.6626 56.1537 78.1994 56.4127 77.7379 56.6747C77.1044 57.0344 76.4726 57.3969 75.8385 57.7555C75.2433 58.0919 74.6451 58.4229 74.0503 58.76C73.6044 59.0127 73.1639 59.2752 72.7161 59.5244C72.6179 59.5792 72.5255 59.7079 72.377 59.5713C72.7339 58.6734 73.0533 57.7963 73.319 56.8994C73.6406 55.8138 73.8922 54.7122 74.0552 53.5926C74.1404 53.0077 74.1798 52.4161 74.2508 51.8195C74.2753 51.7956 74.2768 51.7787 74.2711 51.7382C74.2748 51.6239 74.2737 51.5321 74.2786 51.4264C74.2837 51.4027 74.2829 51.3927 74.2877 51.3588C74.2969 51.1713 74.3004 51.0078 74.3146 50.8361C74.3278 50.8105 74.3302 50.7932 74.3324 50.7513C74.3327 50.2086 74.3333 49.6905 74.3361 49.1597C74.336 49.1279 74.3258 49.1148 74.3028 49.0839C74.2989 48.9143 74.3001 48.7685 74.3094 48.6167C74.309 48.5961 74.3006 48.5814 74.2862 48.5434C74.2313 47.9944 74.1909 47.4677 74.1315 46.9432C74.0315 46.0605 73.8696 45.1883 73.6559 44.3259C73.5592 43.9357 73.4608 43.546 73.3737 43.1408C73.4829 43.0631 73.5791 42.9964 73.6807 42.9392C74.0178 42.7497 74.3585 42.5665 74.6947 42.3755C75.3044 42.0292 75.9106 41.6767 76.5206 41.331C77.1229 40.9896 77.7298 40.6561 78.3317 40.3139C78.902 39.9895 79.4667 39.6551 80.0371 39.3309C80.639 38.9887 81.2463 38.656 81.8485 38.3142C82.5833 37.8971 83.314 37.4727 84.0489 37.0556C84.6511 36.7138 85.2584 36.3811 85.8603 36.039C86.72 35.5504 87.5761 35.0556 88.4357 34.5669C88.5988 34.4742 88.7709 34.3975 88.9389 34.3135C89.1493 34.848 89.3727 35.3778 89.5676 35.9178C90.0443 37.2382 90.4456 38.5818 90.7797 39.9455C91.1217 41.342 91.4061 42.7497 91.5872 44.1764C91.6842 44.9415 91.7629 45.7089 91.8477 46.4755C91.8585 46.5737 91.8561 46.6733 91.858 46.8101C91.867 46.8621 91.8777 46.8763 91.8885 46.8904C91.8909 46.9821 91.8934 47.0738 91.8869 47.1946C91.8861 47.2386 91.8944 47.2534 91.9026 47.2681C91.9064 47.3924 91.9102 47.5166 91.9123 47.6777C91.9213 47.7287 91.932 47.7429 91.9428 47.757C91.9453 47.9021 91.9478 48.0471 91.9413 48.2225C91.9405 48.2677 91.9487 48.2825 91.957 48.2973C91.9602 48.408 91.9634 48.5186 91.9613 48.6525Z" fill="url(#paint1_linear_18_7755)"/>
<path d="M52.2793 8.10084C52.4046 8.10442 52.5299 8.108 52.695 8.12658C52.8542 8.1445 52.9736 8.14741 53.0931 8.15032C54.2349 8.28196 55.3803 8.38851 56.5176 8.55173C57.8621 8.74471 59.1897 9.03432 60.5058 9.37299C62.7506 9.95063 64.9328 10.7088 67.0525 11.6452C67.4352 11.8142 67.8031 12.0166 68.1804 12.1983C68.509 12.3566 68.8412 12.5074 69.181 12.6951C69.0953 12.8062 69.0055 12.8917 68.9038 12.9592C68.7917 13.0337 68.668 13.0903 68.5506 13.157C67.9871 13.4769 67.4246 13.7985 66.8607 14.1176C66.2653 14.4544 65.668 14.7878 65.0728 15.1249C64.4543 15.4753 63.8378 15.8292 63.2195 16.1799C62.7498 16.4464 62.2777 16.7086 61.8085 16.976C61.2378 17.3012 60.6703 17.632 60.0991 17.9563C59.6295 18.223 59.1555 18.4821 58.6854 18.7479C58.0588 19.1023 57.4339 19.4595 56.8087 19.8162C56.3241 20.0927 55.8429 20.375 55.3549 20.6453C55.1365 20.7663 54.9238 20.9158 54.6579 20.8981C54.6625 20.8979 54.6536 20.9001 54.6536 20.8793C54.6269 20.7609 54.5494 20.7867 54.4707 20.7859C54.4594 20.784 54.4435 20.7674 54.4373 20.7578C54.4198 20.7367 54.4064 20.73 54.3723 20.7237C52.2878 19.3677 50.1359 18.174 47.8658 17.1967C45.5795 16.2124 43.2243 15.446 40.7779 14.9754C40.1078 14.8465 39.4293 14.7611 38.754 14.6595C38.3651 14.6011 37.975 14.5503 37.5672 14.4843C37.3634 14.463 37.1777 14.4534 36.9781 14.4426C36.955 14.4407 36.9457 14.44 36.9181 14.4273C36.6774 14.4074 36.455 14.3995 36.2174 14.3897C36.1922 14.3858 36.1822 14.3837 36.1559 14.3678C35.9532 14.3495 35.7668 14.3451 35.555 14.3414C34.7886 14.3421 34.0476 14.3423 33.2823 14.339C33.0761 14.3513 32.8943 14.367 32.6932 14.3862C32.6477 14.3906 32.6215 14.3914 32.5714 14.3883C32.3491 14.4021 32.1508 14.4198 31.9284 14.44C31.1974 14.5196 30.4867 14.5721 29.7845 14.68C28.9207 14.8128 28.0639 14.991 27.2044 15.1513C26.9305 15.2024 26.6576 15.2591 26.3843 15.3132C27.5665 14.4991 28.7941 13.7604 30.0557 13.0756C31.4916 12.2962 32.9685 11.6058 34.4856 11.0014C36.0858 10.3638 37.7201 9.83028 39.3876 9.39486C40.7045 9.05097 42.0344 8.77002 43.3774 8.55651C44.1675 8.4309 44.9651 8.35109 45.7601 8.25757C46.1082 8.21663 46.4582 8.19293 46.8534 8.15906C47.0146 8.14173 47.1298 8.12674 47.245 8.11176C47.3705 8.11107 47.4959 8.11037 47.6692 8.1075C47.903 8.08941 48.089 8.0735 48.275 8.05759C48.5619 8.05614 48.8488 8.05469 49.1858 8.05088C49.7446 8.04634 50.2533 8.04417 50.762 8.04199C51.0489 8.04713 51.3357 8.05227 51.6645 8.07274C51.8974 8.09233 52.0883 8.09658 52.2793 8.10084Z" fill="#1C73BA"/>
<path d="M88.9372 34.2934C88.7706 34.3978 88.5984 34.4744 88.4354 34.5671C87.5758 35.0558 86.7196 35.5506 85.86 36.0392C85.258 36.3813 84.6507 36.714 84.0485 37.0558C83.3137 37.4729 82.583 37.8973 81.8481 38.3144C81.2459 38.6562 80.6387 38.9889 80.0367 39.3311C79.4663 39.6554 78.9017 39.9897 78.3313 40.3141C77.7294 40.6564 77.1225 40.9898 76.5202 41.3312C75.9102 41.677 75.304 42.0294 74.6944 42.3757C74.3581 42.5667 74.0174 42.7499 73.6804 42.9395C73.5787 42.9966 73.4825 43.0634 73.3596 43.1261C73.2222 42.7754 73.1152 42.4223 72.9946 42.0739C72.5699 40.8461 72.0696 39.6492 71.4278 38.5189C70.979 37.7283 70.5112 36.9455 70.0015 36.1933C69.529 35.4962 68.9896 34.8443 68.4801 34.1555C68.4628 34.1277 68.445 34.1169 68.4292 34.1055C68.4312 34.1049 68.4326 34.1088 68.4256 34.0966C68.4044 34.0727 68.3901 34.0612 68.3771 34.0502C68.3785 34.0507 68.3774 34.0535 68.3818 34.0363C68.3638 33.994 68.3414 33.9689 68.321 33.9435C68.3228 33.9433 68.3212 33.9467 68.3189 33.9317C68.2998 33.9076 68.2831 33.8985 68.2678 33.889C68.2691 33.8887 68.2679 33.8912 68.2676 33.8724C68.1427 33.7013 68.0182 33.5491 67.8865 33.3803C67.5563 32.9662 67.2365 32.5662 66.9098 32.172C66.5148 31.6952 66.114 31.2233 65.7354 30.7469C65.8894 30.6725 66.0254 30.6034 66.158 30.5283C66.6433 30.2537 67.1274 29.977 67.6122 29.7014C68.1753 29.3813 68.7381 29.0608 69.3018 28.7419C69.897 28.4052 70.4937 28.0713 71.0886 27.7343C71.7068 27.3841 72.3233 27.0308 72.9413 26.6803C73.4109 26.414 73.8826 26.1515 74.3515 25.8842C74.922 25.5591 75.4893 25.2286 76.0603 24.9045C76.655 24.5671 77.2533 24.2361 77.8484 23.8994C78.4746 23.5451 79.0988 23.1871 79.7242 22.8314C80.1465 22.5912 80.5719 22.3564 80.9899 22.1089C81.0667 22.0635 81.1146 21.9692 81.1758 21.8975C81.5786 22.3563 81.994 22.8049 82.3821 23.2759C83.776 24.9673 85.0346 26.7546 86.1514 28.6409C87.2077 30.425 88.1275 32.2768 88.9127 34.1955C88.9228 34.2204 88.9282 34.2472 88.9372 34.2934Z" fill="url(#paint2_linear_18_7755)"/>
<path d="M65.7155 30.7493C66.1138 31.2233 66.5146 31.6952 66.9097 32.172C67.2363 32.5662 67.5561 32.9661 67.8803 33.3923C67.8722 33.437 67.859 33.4488 67.8277 33.4451C67.2426 32.8823 66.6877 32.3132 66.0983 31.7823C64.2827 30.1468 62.245 28.8444 60.0195 27.8413C57.6135 26.7568 55.0948 26.0743 52.4652 25.8177C51.8739 25.7601 51.2804 25.711 50.6868 25.6933C49.5616 25.6598 48.4366 25.6955 47.3176 25.8244C45.9101 25.9865 44.5224 26.2551 43.1641 26.6622C42.6212 26.825 42.0842 27.0074 41.5428 27.1613C41.4753 27.0727 41.4196 26.9887 41.3424 26.9365C40.2398 26.1914 39.1345 25.4502 38.0295 24.7087C36.7079 23.8219 35.3859 22.9357 34.0642 22.0491C32.8022 21.2026 31.5406 20.3555 30.2784 19.5094C28.6874 18.443 27.0955 17.378 25.5058 16.3096C25.4191 16.2514 25.3492 16.1685 25.2715 16.097C25.6322 15.839 25.9929 15.581 26.3688 15.318C26.6573 15.2589 26.9302 15.2023 27.2041 15.1512C28.0636 14.9909 28.9204 14.8126 29.7842 14.6799C30.4864 14.5719 31.1971 14.5194 31.9521 14.4438C32.1984 14.4275 32.3967 14.4097 32.5951 14.392C32.6213 14.3912 32.6474 14.3904 32.7167 14.3906C32.937 14.3879 33.1143 14.3843 33.3175 14.3846C33.6565 14.3876 33.9695 14.3872 34.2824 14.3856C34.7203 14.3835 35.1582 14.3804 35.6196 14.3789C35.8193 14.3805 35.9956 14.381 36.1719 14.3815C36.1819 14.3836 36.1919 14.3856 36.2355 14.4011C36.4914 14.4227 36.7138 14.4309 36.9362 14.4391C36.9454 14.4398 36.9547 14.4405 36.9957 14.4543C37.2134 14.4769 37.3992 14.4864 37.5851 14.4958C37.9747 14.5501 38.3648 14.6009 38.7538 14.6594C39.429 14.7609 40.1075 14.8463 40.7776 14.9752C43.2241 15.4459 45.5792 16.2122 47.8655 17.1965C50.1356 18.1739 52.2875 19.3675 54.3771 20.7345C54.4113 20.7638 54.4256 20.7697 54.4433 20.7672C54.4433 20.7672 54.4591 20.7838 54.4802 20.8005C54.552 20.8448 54.6027 20.8724 54.6534 20.8999C54.6534 20.8999 54.6622 20.8977 54.6666 20.9138C54.7002 20.951 54.7288 20.973 54.7586 20.9931C58.3255 23.4012 61.525 26.2331 64.4522 29.3792C64.8754 29.834 65.2945 30.2925 65.7155 30.7493Z" fill="#EDA024"/>
<path d="M65.7353 30.7466C65.2946 30.2923 64.8754 29.8338 64.4523 29.379C61.5251 26.2329 58.3255 23.4009 54.7587 20.9929C54.7289 20.9728 54.7002 20.9508 54.6621 20.9137C54.9236 20.9154 55.1363 20.7659 55.3547 20.6449C55.8427 20.3746 56.3239 20.0922 56.8085 19.8158C57.4337 19.459 58.0586 19.1018 58.6852 18.7475C59.1553 18.4817 59.6293 18.2226 60.0989 17.9559C60.6701 17.6315 61.2376 17.3008 61.8083 16.9756C62.2775 16.7082 62.7496 16.446 63.2193 16.1795C63.8376 15.8288 64.4541 15.4749 65.0726 15.1245C65.6678 14.7874 66.2651 14.454 66.8605 14.1172C67.4244 13.7981 67.9869 13.4764 68.5504 13.1566C68.6678 13.0899 68.7915 13.0333 68.9036 12.9588C69.0053 12.8913 69.0951 12.8058 69.1927 12.708C69.7924 13.0038 70.3989 13.3033 70.9847 13.639C72.4727 14.4918 73.9021 15.4358 75.2715 16.4684C76.2572 17.2118 77.2204 17.9839 78.1217 18.8286C78.819 19.4822 79.5096 20.1432 80.1898 20.8143C80.5292 21.1492 80.8388 21.5143 81.1688 21.8814C81.1145 21.969 81.0666 22.0632 80.9898 22.1087C80.5718 22.3561 80.1464 22.591 79.7241 22.8311C79.0987 23.1868 78.4746 23.5448 77.8483 23.8991C77.2532 24.2358 76.6549 24.5668 76.0602 24.9043C75.4892 25.2283 74.9219 25.5589 74.3515 25.8839C73.8825 26.1512 73.4108 26.4137 72.9412 26.68C72.3232 27.0306 71.7067 27.3838 71.0885 27.7341C70.4936 28.0711 69.8969 28.405 69.3017 28.7416C68.738 29.0605 68.1752 29.381 67.6121 29.7011C67.1274 29.9767 66.6432 30.2535 66.1579 30.5281C66.0253 30.6031 65.8893 30.6723 65.7353 30.7466Z" fill="url(#paint3_linear_18_7755)"/>
<path d="M59.3247 79.1663C59.365 79.1118 59.3937 79.0378 59.4474 79.0062C59.7579 78.8238 60.0756 78.6536 60.3885 78.4753C60.975 78.1411 61.5592 77.8028 62.1459 77.469C62.6076 77.2062 63.0725 76.949 63.5347 76.6869C64.1611 76.3318 64.7854 75.9729 65.4122 75.6184C65.8825 75.3525 66.3569 75.0939 66.8266 74.8269C67.3979 74.5023 67.9651 74.1706 68.5359 73.8453C69.0053 73.5778 69.4784 73.3168 69.9483 73.0502C70.5668 72.6993 71.1829 72.3442 71.8017 71.9939C72.2718 71.7276 72.7459 71.4684 73.2157 71.2017C73.7871 70.8772 74.355 70.5467 74.9259 70.2214C75.3953 69.9539 75.8674 69.6913 76.3373 69.4247C76.9557 69.0738 77.5725 68.7199 78.1912 68.3694C78.7867 68.0322 79.384 67.6983 79.9798 67.3618C80.5365 67.0475 81.0927 66.7325 81.6482 66.4163C82.1332 66.1402 82.6168 65.8616 83.1015 65.585C83.7269 65.2281 84.352 64.8707 84.9789 64.5163C85.4492 64.2504 85.9234 63.9915 86.3932 63.7246C86.9645 63.4 87.5321 63.0689 88.1028 62.7433C88.5642 62.4801 89.0282 62.2215 89.4904 61.9595C89.7017 61.8397 89.9094 61.7133 90.1229 61.5975C90.1799 61.5666 90.252 61.5636 90.3275 61.5625C90.3048 61.707 90.2719 61.8366 90.2151 61.9957C90.1847 62.0728 90.1781 62.1204 90.1716 62.168C90.1038 62.3896 90.0359 62.6112 89.9441 62.8623C89.9137 62.9395 89.9071 62.9871 89.9006 63.0348C89.7469 63.4672 89.5974 63.9012 89.4385 64.3317C89.2373 64.8765 89.0346 65.4209 88.8206 65.9607C88.7082 66.2442 88.5674 66.5163 88.4444 66.7957C88.3036 67.1157 88.1782 67.4428 88.0283 67.7584C87.8242 68.1881 87.6046 68.6105 87.3891 69.0348C87.1617 69.4826 86.9478 69.9383 86.6986 70.3738C86.2409 71.1736 85.7771 71.9709 85.2878 72.7517C84.5456 73.9359 83.6997 75.0484 82.862 76.1659C82.8205 76.2214 82.764 76.2657 82.6809 76.3316C82.6045 76.361 82.5604 76.371 82.5188 76.3874C81.5898 76.7547 80.6682 77.1423 79.7304 77.4858C78.522 77.9284 77.2902 78.3026 76.0405 78.6123C75.3169 78.7917 74.5906 78.9644 73.8591 79.1072C73.1548 79.2447 72.4433 79.3469 71.733 79.4512C71.1917 79.5308 70.6482 79.5985 70.104 79.6547C69.6216 79.7044 69.1368 79.7299 68.6532 79.7681C68.4345 79.7854 68.2162 79.8073 67.9725 79.8242C66.6683 79.803 65.3892 79.7875 64.1102 79.7646C63.7785 79.7587 63.4469 79.7337 63.1158 79.7091C62.9016 79.6932 62.6886 79.6619 62.475 79.6377C62.0753 79.5924 61.6755 79.5473 61.2537 79.4997C60.596 79.3869 59.9604 79.2766 59.3247 79.1663Z" fill="#242E6F"/>
<path d="M25.254 16.1045C25.3494 16.1684 25.4194 16.2514 25.506 16.3096C27.0957 17.3779 28.6876 18.4429 30.2786 19.5094C31.5408 20.3554 32.8024 21.2025 34.0644 22.0491C35.3861 22.9357 36.7081 23.8219 38.0297 24.7087C39.1347 25.4502 40.24 26.1913 41.3426 26.9364C41.4198 26.9886 41.4755 27.0726 41.5279 27.1731C40.9921 27.4131 40.4612 27.6032 39.9497 27.8359C39.4589 28.0591 38.9857 28.3218 38.5095 28.5759C38.1763 28.7536 37.8425 28.9324 37.524 29.1344C36.8575 29.557 36.2008 29.9952 35.5248 30.4286C35.4967 30.4452 35.484 30.4603 35.4718 30.4756C35.4723 30.4759 35.472 30.4747 35.4549 30.4751C35.4151 30.4973 35.3924 30.519 35.3686 30.5375C35.3674 30.5343 35.3729 30.5385 35.3544 30.537C35.3086 30.5693 35.2812 30.6033 35.2546 30.6378C35.2555 30.6385 35.2543 30.6367 35.2342 30.6358C35.1648 30.654 35.1093 30.6641 35.0673 30.6935C34.5821 31.0315 34.0988 31.3724 33.6152 31.7128C33.4037 31.8617 33.1924 32.011 32.9802 32.1399C32.9765 31.9716 32.8681 31.902 32.763 31.831C32.1445 31.4132 31.5263 30.995 30.9068 30.5787C29.6451 29.7308 28.3827 28.8841 27.1206 28.0368C25.8062 27.1545 24.492 26.2718 23.1774 25.3898C21.7059 24.4025 20.2335 23.4166 18.764 22.4265C18.6782 22.3687 18.6142 22.2785 18.54 22.2033C18.8078 21.9002 19.0674 21.5894 19.3447 21.2953C20.688 19.871 22.1177 18.5392 23.6521 17.322C24.1725 16.9091 24.7077 16.5148 25.254 16.1045Z" fill="url(#paint4_linear_18_7755)"/>
<path d="M81.0631 78.2492C81.0318 78.2915 81.005 78.3381 80.9685 78.3754C79.7199 79.6512 78.4114 80.8625 77.0304 81.9937C76.118 82.7411 75.1984 83.48 74.2694 84.2066C73.174 85.0635 71.9814 85.7748 70.7763 86.4629C68.5581 87.7297 66.2416 88.7826 63.8283 89.6241C62.6718 90.0274 61.5009 90.3823 60.3133 90.6781C59.4727 90.8875 58.623 91.062 57.774 91.2358C57.2357 91.346 56.6929 91.4369 56.1493 91.5166C55.7729 91.5717 55.3905 91.5853 55.0126 91.6315C54.6632 91.6742 54.3167 91.7409 53.9676 91.7862C53.8252 91.8047 53.6791 91.7946 53.4878 91.7964C53.3401 91.8093 53.2392 91.8235 53.1383 91.8377C53.0168 91.8424 52.8953 91.8472 52.7266 91.8506C52.5433 91.8635 52.4071 91.8777 52.271 91.8919C52.0944 91.896 51.9178 91.9001 51.6909 91.902C51.3662 91.8998 51.0917 91.8967 50.8174 91.9022C50.7421 91.9036 50.6674 91.9305 50.5924 91.9458C50.5924 91.9458 50.59 91.9509 50.5668 91.9507C50.201 91.9535 49.8583 91.9564 49.5156 91.9593C49.5156 91.9593 49.5181 91.9547 49.5001 91.9368C49.1269 91.9144 48.7717 91.9098 48.4166 91.9051C48.2394 91.9045 48.0622 91.9038 47.8443 91.8844C47.6465 91.8608 47.4895 91.8559 47.3324 91.851C47.2268 91.8496 47.1212 91.8482 46.9774 91.8268C46.8336 91.8049 46.7281 91.8029 46.6225 91.8009C46.5357 91.7989 46.4488 91.7969 46.3245 91.7764C46.1838 91.7528 46.0805 91.7477 45.9772 91.7427C45.4855 91.7408 45.0026 91.6604 44.5188 91.585C44.2207 91.5385 43.9189 91.5154 43.6216 91.4649C43.032 91.3646 42.4445 91.2526 41.8384 91.1201C41.8578 90.96 41.9884 90.9669 42.0833 90.9354C42.7068 90.7281 43.3338 90.5314 43.9586 90.328C45.0715 89.9657 46.1838 89.6013 47.2962 89.2372C48.3402 88.8956 49.3838 88.5531 50.4277 88.2114C51.4802 87.867 52.533 87.5234 53.5853 87.1787C54.6805 86.8199 55.7753 86.4599 56.8704 86.1011C57.9228 85.7564 58.9756 85.4128 60.0281 85.0684C61.072 84.7267 62.1156 84.3843 63.1595 84.0426C64.2719 83.6784 65.3846 83.3151 66.4969 82.9508C67.5321 82.6117 68.5669 82.2712 69.6023 81.9323C70.6633 81.585 71.725 81.2396 72.7859 80.8921C73.8725 80.5361 74.9586 80.1785 76.0449 79.8218C77.1313 79.4651 78.2178 79.1088 79.3041 78.7519C79.8175 78.5832 80.3305 78.4133 80.8439 78.2446C80.9168 78.2206 80.992 78.1578 81.0631 78.2492Z" fill="#037B38"/>
<path d="M8.0459 48.7839C8.05745 48.4525 8.06461 48.1209 8.08168 47.7899C8.10247 47.3868 8.11988 46.983 8.15967 46.5817C8.23475 45.8243 8.32473 45.0685 8.40865 44.312C8.51737 43.332 8.69799 42.3636 8.90686 41.4012C9.09802 40.5204 9.31696 39.6457 9.52461 38.7685C9.53058 38.7433 9.54732 38.7206 9.5832 38.6782C9.71788 38.7191 9.83404 38.77 9.938 38.8392C10.641 39.3074 11.3414 39.7795 12.0428 40.2501C13.3115 41.1014 14.5805 41.9522 15.8489 42.8038C17.3562 43.8157 18.8639 44.827 20.3682 45.8433C20.4843 45.9217 20.575 46.0377 20.6751 46.1551C20.596 46.3155 20.519 46.4569 20.4429 46.5987C20.026 47.376 19.6797 48.1865 19.3261 48.993C19.1457 49.4045 18.9917 49.8276 18.812 50.2583C18.3169 51.4667 17.9075 52.6866 17.5543 53.9257C17.4658 54.2361 17.3666 54.5434 17.2525 54.8504C17.1316 54.7762 17.0322 54.7014 16.929 54.632C15.7719 53.8545 14.6147 53.0772 13.4566 52.3012C12.8364 51.8856 12.2134 51.4739 11.5933 51.058C10.5402 50.3515 9.4888 49.6426 8.43558 48.9364C8.31808 48.8576 8.20844 48.7511 8.0459 48.7839Z" fill="url(#paint5_linear_18_7755)"/>
<path d="M20.6774 46.1366C20.5748 46.038 20.4841 45.9221 20.368 45.8436C18.8637 44.8273 17.3559 43.8161 15.8487 42.8041C14.5803 41.9525 13.3113 41.1017 12.0426 40.2504C11.3412 39.7798 10.6408 39.3077 9.9378 38.8396C9.83384 38.7704 9.71767 38.7194 9.58838 38.6578C9.80319 37.9092 10.026 37.1591 10.2727 36.4171C10.7244 35.0587 11.254 33.7305 11.8612 32.4337C12.0101 32.1158 12.1634 31.7999 12.344 31.4699C12.3974 31.4685 12.4231 31.4779 12.4451 31.4927C13.6683 32.3147 14.8903 33.1384 16.1142 33.9593C17.3605 34.7954 18.6092 35.6278 19.8557 36.4636C21.4231 37.5147 22.9894 38.5676 24.556 39.6198C24.6826 39.7049 24.8162 39.7845 24.8395 39.9699C24.1987 40.8355 23.5495 41.6732 22.9363 42.5363C22.2073 43.5621 21.5521 44.6362 20.9458 45.7397C20.8692 45.879 20.7674 46.0046 20.6774 46.1366Z" fill="url(#paint6_linear_18_7755)"/>
<path d="M18.5239 22.2129C18.6144 22.2786 18.6784 22.3688 18.7642 22.4266C20.2337 23.4167 21.7061 24.4026 23.1776 25.3899C24.4922 26.2719 25.8064 27.1546 27.1208 28.0369C28.3829 28.8842 29.6453 29.7309 30.907 30.5788C31.5265 30.9951 32.1447 31.4133 32.7632 31.8311C32.8683 31.9021 32.9767 31.9717 32.9716 32.1556C32.9452 32.2113 32.9291 32.234 32.9081 32.2504C32.4073 32.6428 31.9039 33.032 31.4053 33.4273C31.027 33.7272 30.6435 34.0221 30.2824 34.342C29.7717 34.7943 29.2798 35.2678 28.7795 35.7317C28.6808 35.8233 28.5801 35.9126 28.4782 35.9835C28.4509 35.8016 28.3203 35.7297 28.2016 35.6501C27.2304 34.9986 26.258 34.3487 25.2866 33.6974C24.0236 32.8507 22.7613 32.0031 21.4986 31.1561C20.1761 30.2689 18.8539 29.3813 17.5306 28.4952C16.768 27.9845 16.0043 27.4752 15.2388 26.9687C15.1583 26.9154 15.0624 26.8853 14.9736 26.8445C15.3128 26.347 15.6373 25.8387 15.9946 25.3546C16.5342 24.6235 17.0891 23.9032 17.6529 23.1905C17.9195 22.8533 18.2216 22.5442 18.5239 22.2129Z" fill="#ED7E24"/>
<path fill-rule="evenodd" clip-rule="evenodd" d="M53.9691 78.0567C54.0509 78.0232 54.1195 77.9707 54.1106 77.8471C53.9052 77.7586 53.7153 77.6771 53.5205 77.6099C52.0836 77.1144 50.689 76.5199 49.3325 75.8351C49.2894 75.8133 49.2432 75.7975 49.1971 75.7816C49.1756 75.7742 49.1541 75.7668 49.1329 75.7588C49.1536 75.9228 49.0421 75.9803 48.9163 76.0222C48.715 76.0893 48.5134 76.1551 48.3117 76.2209C48.2223 76.2501 48.133 76.2793 48.0436 76.3085C47.7027 76.4203 47.3618 76.532 47.0208 76.6438C46.4039 76.8461 45.7869 77.0483 45.1698 77.2505C44.2048 77.5666 43.2398 77.8825 42.2747 78.1984L41.6026 78.4184L38.5744 79.4096L35.3151 80.4765C34.9743 80.5881 34.6335 80.6996 34.2926 80.8111C33.5727 81.0468 32.8528 81.2824 32.1329 81.5182C31.0465 81.874 29.9603 82.2302 28.8741 82.5864C28.637 82.6642 28.3998 82.7419 28.1627 82.8196C27.3733 83.0781 26.584 83.3366 25.796 83.5989C25.7486 83.6147 25.6993 83.6262 25.6498 83.6377C25.4991 83.6729 25.3466 83.7084 25.2422 83.8663C26.4806 84.7918 27.7513 85.624 29.0755 86.3552C29.0806 86.2144 29.167 86.1873 29.2532 86.1633C29.1672 86.1877 29.0816 86.2173 29.0822 86.3733C29.3283 86.5429 29.5657 86.6801 29.8099 86.8039C29.9601 86.8799 30.1102 86.9563 30.2603 87.0326C30.869 87.3421 31.4778 87.6516 32.0938 87.9458C32.4793 88.1299 32.8726 88.2976 33.266 88.4654C33.4414 88.5402 33.6168 88.615 33.7915 88.6912C33.7984 88.5771 33.8804 88.5534 33.962 88.5297C33.9753 88.5259 33.9887 88.522 34.0016 88.5178C34.2883 88.424 34.575 88.3304 34.8617 88.2369C35.4139 88.0567 35.966 87.8765 36.5177 87.6948C36.9811 87.5421 37.4441 87.3883 37.9071 87.2345C38.3504 87.0873 38.7937 86.94 39.2373 86.7938C40.0413 86.5288 40.8457 86.2651 41.6501 86.0014C41.9325 85.9088 42.2149 85.8162 42.4972 85.7236C42.7281 85.6479 42.959 85.5721 43.1899 85.4963C44.0371 85.2183 44.8844 84.9403 45.7319 84.663C46.3212 84.4701 46.9107 84.2777 47.5002 84.0852C47.9894 83.9256 48.4786 83.7659 48.9677 83.6059C49.7667 83.3447 50.5656 83.083 51.3644 82.8213C51.5754 82.7522 51.7864 82.6831 51.9974 82.614C52.4483 82.4662 52.8993 82.3185 53.3503 82.1707C54.0375 81.9455 54.7248 81.7203 55.4121 81.4953C56.422 81.1647 57.432 80.8343 58.442 80.5042C58.686 80.4245 58.93 80.3448 59.174 80.2652C59.7946 80.0628 60.4152 79.8603 61.0352 79.6558C61.1167 79.6289 61.1906 79.5788 61.2497 79.5184C60.5957 79.387 59.96 79.2766 59.3024 79.1673C59.2535 79.1594 59.2123 79.1502 59.1742 79.1418C59.1477 79.1359 59.1227 79.1303 59.0974 79.1257C57.6755 78.8662 56.2798 78.503 54.9006 78.0729C54.7254 78.0182 54.5477 77.9719 54.3699 77.9256C54.2878 77.9042 54.2056 77.8828 54.1238 77.8605C54.1218 77.9731 54.0513 78.0235 53.9691 78.0567Z" fill="url(#paint7_linear_18_7755)"/>
<path d="M14.9566 26.8521C15.0621 26.885 15.158 26.9151 15.2385 26.9683C16.004 27.4749 16.7676 27.9842 17.5303 28.4949C18.8535 29.381 20.1757 30.2686 21.4983 31.1557C22.761 32.0028 24.0233 32.8504 25.2863 33.6971C26.2577 34.3483 27.2301 34.9982 28.2013 35.6498C28.3199 35.7294 28.4506 35.8013 28.4698 35.9991C28.4396 36.0611 28.4162 36.0885 28.3911 36.1143C27.7076 36.8174 27.018 37.5148 26.3429 38.226C26.0405 38.5445 25.7676 38.891 25.4803 39.224C25.27 39.4677 25.058 39.7101 24.8467 39.953C24.8159 39.7843 24.6823 39.7046 24.5558 39.6196C22.9891 38.5673 21.4228 37.5145 19.8554 36.4634C18.6089 35.6276 17.3602 34.7951 16.1139 33.9591C14.89 33.1381 13.668 32.3145 12.4448 31.4925C12.4228 31.4776 12.3971 31.4683 12.355 31.4539C12.7299 30.7021 13.1035 29.9417 13.5213 29.2063C13.9726 28.412 14.4652 27.6411 14.9566 26.8521Z" fill="url(#paint8_linear_18_7755)"/>
<path d="M8.0409 48.8089C8.20804 48.7513 8.31768 48.8578 8.43518 48.9366C9.4884 49.6428 10.5398 50.3518 11.5929 51.0582C12.213 51.4741 12.836 51.8858 13.4562 52.3014C14.6143 53.0775 15.7715 53.8547 16.9286 54.6322C17.0318 54.7016 17.1312 54.7765 17.2492 54.873C17.2151 55.1233 17.1617 55.3489 17.1137 55.5756C17.0158 56.0379 16.9208 56.5007 16.8156 56.9824C16.7473 57.3006 16.6819 57.5986 16.6301 57.8989C16.5462 58.3854 16.4621 58.8721 16.3952 59.3611C16.3246 59.8769 16.27 60.395 16.2159 60.9129C16.1618 61.4308 16.1118 61.9492 16.0698 62.4682C16.0387 62.8535 16.0233 63.24 15.9815 63.6255C15.9278 63.6162 15.8873 63.6161 15.86 63.5971C15.4618 63.3212 15.07 63.036 14.6678 62.766C12.8861 61.5701 11.1022 60.3775 9.31635 59.1877C9.23099 59.1308 9.12021 59.1121 9.02128 59.0755C8.93989 58.7175 8.85092 58.361 8.77852 58.0011C8.54984 56.8646 8.37729 55.7188 8.25977 54.566C8.18424 53.825 8.13836 53.0809 8.08952 52.3376C8.06066 51.8981 8.05217 51.4573 8.03408 51.0171C8.02228 50.73 7.99824 50.4429 8.0001 50.1559C8.00295 49.7151 8.02336 49.2744 8.0409 48.8089Z" fill="url(#paint9_linear_18_7755)"/>
<path fill-rule="evenodd" clip-rule="evenodd" d="M80.888 78.2271C80.9472 78.2014 81.009 78.1746 81.0776 78.2397C81.6065 77.7199 82.0787 77.1744 82.499 76.5844C82.517 76.5591 82.5356 76.5342 82.5539 76.5096C82.5964 76.4527 82.6374 76.3976 82.6672 76.3438C82.6508 76.3483 82.6357 76.3524 82.6216 76.3562C82.5813 76.367 82.5491 76.3757 82.5184 76.3878C82.226 76.5034 81.9344 76.621 81.6429 76.7386C81.0078 76.9947 80.3727 77.2508 79.73 77.4862C78.5216 77.9288 77.2898 78.3031 76.0401 78.6128C75.3164 78.7921 74.5902 78.9648 73.8587 79.1076C73.1974 79.2367 72.5297 79.3347 71.8626 79.4326C71.8192 79.4389 71.7759 79.4453 71.7325 79.4516C71.1912 79.5312 70.6478 79.5989 70.1035 79.6551C69.7865 79.6878 69.4684 79.71 69.1503 79.7323C68.9844 79.7438 68.8185 79.7554 68.6528 79.7685C68.5026 79.7804 68.3525 79.7944 68.2025 79.8085C68.1341 79.8149 68.0657 79.8213 67.9973 79.8275C67.9794 79.8434 67.9623 79.8618 67.9452 79.8802C67.9172 79.9102 67.8893 79.9403 67.8577 79.9594C67.9081 79.9286 67.9463 79.8688 67.9725 79.8245C67.4267 79.8156 66.8853 79.8077 66.3465 79.7999C65.5977 79.789 64.8539 79.7782 64.1101 79.7649C63.7836 79.7591 63.4571 79.7348 63.1312 79.7106L63.1157 79.7094C62.9693 79.6985 62.8234 79.6805 62.6775 79.6624C62.61 79.654 62.5425 79.6456 62.475 79.638C62.0752 79.5927 61.6754 79.5476 61.2719 79.5211C61.1908 79.5791 61.1169 79.6291 61.0354 79.656C60.4155 79.8605 59.795 80.0629 59.1745 80.2654C58.9304 80.345 58.6863 80.4247 58.4422 80.5044C57.4322 80.8346 56.4222 81.1649 55.4123 81.4956C54.7256 81.7204 54.0389 81.9454 53.3522 82.1704C52.9007 82.3183 52.4491 82.4663 51.9976 82.6142C51.7869 82.6832 51.5762 82.7522 51.3656 82.8212C50.5664 83.083 49.7672 83.3448 48.9679 83.6062C48.4789 83.7661 47.9898 83.9257 47.5008 84.0854C46.9111 84.2779 46.3215 84.4703 45.7321 84.6632C44.8841 84.9408 44.0362 85.2189 43.1884 85.4971C42.9581 85.5727 42.7278 85.6483 42.4974 85.7238C42.2151 85.8165 41.9327 85.909 41.6504 86.0016C40.8459 86.2653 40.0415 86.529 39.2375 86.7941C38.7939 86.9403 38.3506 87.0875 37.9073 87.2348C37.4443 87.3886 36.9813 87.5424 36.5179 87.695C35.9661 87.8768 35.4138 88.057 34.8615 88.2373C34.5749 88.3308 34.2883 88.4243 34.0018 88.518C33.9899 88.5219 33.9777 88.5255 33.9656 88.529C33.8831 88.5532 33.8008 88.5772 33.8081 88.7025C33.953 88.7592 34.0973 88.8157 34.2412 88.8721C34.9332 89.1432 35.615 89.4103 36.302 89.6634C36.6625 89.7962 37.0379 89.8885 37.4105 89.9801L37.4261 89.984C37.4329 89.9787 37.4397 89.9734 37.4464 89.9682C37.517 89.9135 37.5824 89.8628 37.6543 89.8336C37.5755 89.8657 37.5057 89.9246 37.4407 89.9968C38.4214 90.2943 39.3889 90.5679 40.3616 90.8219C40.6522 90.8978 40.9479 90.9547 41.2435 91.0115C41.3778 91.0374 41.512 91.0632 41.6458 91.0908C41.6741 91.0947 41.7025 91.0987 41.7562 91.12C41.7925 91.1359 41.8033 91.1346 41.8172 91.1141C41.8491 90.9918 41.9383 90.9711 42.0212 90.9519C42.0425 90.9469 42.0634 90.9421 42.0828 90.9357C42.4636 90.8091 42.8458 90.6864 43.228 90.5638C43.4715 90.4856 43.7149 90.4075 43.9581 90.3283C44.8996 90.0218 45.8406 89.7138 46.7816 89.4058C46.953 89.3497 47.1244 89.2936 47.2957 89.2376C47.8345 89.0612 48.3733 88.8847 48.912 88.7081C49.417 88.5426 49.9221 88.3771 50.4272 88.2118C50.8951 88.0586 51.3631 87.9056 51.831 87.7527C52.4157 87.5616 53.0003 87.3705 53.5849 87.179C54.1301 87.0004 54.6752 86.8215 55.2203 86.6425C55.7701 86.4621 56.32 86.2816 56.87 86.1014C57.4571 85.9091 58.0443 85.7171 58.6316 85.5252C59.097 85.3731 59.5623 85.221 60.0276 85.0687C60.5597 84.8945 61.0918 84.7201 61.6239 84.5458C62.1356 84.3781 62.6473 84.2104 63.1591 84.0429C63.653 83.8812 64.147 83.7197 64.6409 83.5581C65.2595 83.3559 65.878 83.1537 66.4964 82.9511C66.9785 82.7932 67.4605 82.635 67.9424 82.4768C68.4955 82.2952 69.0486 82.1137 69.6018 81.9326C70.1017 81.7689 70.6018 81.6057 71.1019 81.4425C71.6631 81.2593 72.2244 81.0762 72.7854 80.8924C73.4864 80.6628 74.1871 80.4324 74.8878 80.2021C75.2734 80.0754 75.6589 79.9487 76.0445 79.8221C76.4957 79.6739 76.947 79.5258 77.3983 79.3777C78.0334 79.1693 78.6686 78.9608 79.3036 78.7522C79.5617 78.6674 79.8196 78.5823 80.0776 78.4972C80.3328 78.413 80.5881 78.3288 80.8434 78.2449C80.8582 78.24 80.873 78.2336 80.888 78.2271ZM37.6642 89.8297C37.6687 89.828 37.6732 89.8264 37.6778 89.8249C38.1209 89.6781 38.5649 89.5342 39.009 89.3902C39.2845 89.301 39.5599 89.2117 39.8351 89.1217C40.523 88.8969 41.2105 88.6711 41.898 88.4453C42.2372 88.3339 42.5765 88.2225 42.9158 88.1112C43.126 88.0422 43.3363 87.9732 43.5466 87.9042C44.4231 87.6167 45.2996 87.3291 46.1763 87.042C47.0004 86.772 47.8246 86.5025 48.6488 86.233C48.886 86.1555 49.1233 86.0779 49.3605 86.0003C49.769 85.8667 50.1774 85.7332 50.5858 85.5997C51.256 85.3806 51.9262 85.1615 52.5963 84.9422C53.446 84.6641 54.2955 84.3857 55.1451 84.1072L55.6516 83.9412C56.1035 83.7931 56.5553 83.645 57.0072 83.4969C57.6936 83.2718 58.38 83.0468 59.0664 82.8219C60.0763 82.4911 61.0863 82.1607 62.0964 81.8304C62.3943 81.733 62.6923 81.6354 62.9902 81.5378C63.7706 81.2822 64.5511 81.0265 65.3325 80.7736C65.7067 80.6525 66.0814 80.5332 66.4561 80.4139C66.9133 80.2684 67.3705 80.1228 67.8266 79.974C67.8284 79.9734 67.8302 79.9728 67.832 79.9721C67.8303 79.9727 67.8286 79.9733 67.827 79.9739C67.3708 80.1227 66.9136 80.2682 66.4564 80.4138C66.0817 80.5331 65.707 80.6524 65.3329 80.7735C64.5514 81.0264 63.7709 81.2821 62.9904 81.5377C62.6925 81.6353 62.3947 81.7329 62.0967 81.8303C61.0867 82.1606 60.0766 82.491 59.0667 82.8218C58.38 83.0467 57.6933 83.2719 57.0066 83.497C56.555 83.6451 56.1035 83.7931 55.652 83.9411L55.6516 83.9412L55.1451 84.1072C54.2956 84.3856 53.4462 84.664 52.5966 84.9421C51.9268 85.1613 51.2569 85.3803 50.5869 85.5993C50.1782 85.7329 49.7696 85.8665 49.3609 86.0002C49.1234 86.0778 48.886 86.1555 48.6486 86.2331C47.8245 86.5025 47.0005 86.772 46.1767 87.0418C45.3 87.329 44.4234 87.6165 43.5469 87.9041C43.3366 87.9731 43.1264 88.0421 42.9161 88.111C42.5768 88.2223 42.2376 88.3337 41.8984 88.4451C41.2109 88.6709 40.5233 88.8967 39.8355 89.1216C39.5603 89.2116 39.2848 89.3008 39.0094 89.3901C38.5653 89.534 38.1212 89.678 37.6781 89.8248C37.6734 89.8263 37.6688 89.828 37.6642 89.8297Z" fill="url(#paint10_linear_18_7755)"/>
<path d="M18.6777 77.9292C18.6927 77.7866 18.8035 77.7827 18.8949 77.7527C19.819 77.4495 20.7436 77.1477 21.6673 76.8435C22.3947 76.6039 23.1206 76.36 23.848 76.1205C24.9345 75.7629 26.0215 75.4071 27.1085 75.0513C28.1185 74.7207 29.1289 74.3915 30.1388 74.0607C31.2771 73.6878 32.415 73.3137 33.5532 72.9404C34.58 72.6035 35.6066 72.2656 36.634 71.9305C37.2075 71.7435 37.7824 71.5613 38.3962 71.3765C38.4764 71.3953 38.5181 71.4127 38.5576 71.4342C39.5641 71.9812 40.6122 72.4345 41.6883 72.8249C42.042 72.9532 42.397 73.0779 42.7334 73.213C42.604 73.2784 42.4977 73.35 42.3805 73.3891C41.6295 73.6398 40.876 73.8829 40.1236 74.1292C38.9861 74.5015 37.8488 74.8744 36.7114 75.2469C35.7023 75.5775 34.6933 75.9082 33.6842 76.2385C32.598 76.594 31.5116 76.9488 30.4255 77.3043C29.3565 77.6542 28.2876 78.0048 27.2186 78.3547C26.141 78.7075 25.0628 79.0582 23.9857 79.4126C23.0109 79.7334 22.0373 80.058 21.0631 80.3809C20.6833 80.0104 20.2981 79.6453 19.9253 79.2679C19.5833 78.9215 19.2542 78.5624 18.9206 78.2078C18.8403 78.1225 18.7643 78.0332 18.6777 77.9292Z" fill="#56963D"/>
<path fill-rule="evenodd" clip-rule="evenodd" d="M46.4089 74.4484C46.3696 74.3182 46.3419 74.2263 46.3067 74.122C46.2417 74.0683 46.2127 74.0313 46.3139 74.0143C46.3139 74.0143 46.3117 73.9953 46.3093 73.986C46.1965 73.9678 46.084 73.9538 45.972 73.9399C45.8702 73.9272 45.7688 73.9145 45.6678 73.8988C45.6051 73.889 45.5422 73.8794 45.4794 73.8697C45.1392 73.8174 44.7988 73.7651 44.4623 73.6944C44.232 73.6461 44.0059 73.5777 43.7721 73.5071C43.6913 73.4827 43.6096 73.458 43.5265 73.4337C43.5102 73.429 43.4957 73.4253 43.4821 73.4218C43.4535 73.4145 43.4289 73.4082 43.399 73.396C43.3142 73.3605 43.2407 73.3376 43.1478 73.3155C43.0959 73.3109 43.0633 73.3056 43.0195 73.2877C43.0083 73.2751 42.9853 73.2622 42.9721 73.2634C42.911 73.2579 42.8631 73.2513 42.803 73.2309C42.7909 73.2172 42.7737 73.2039 42.7448 73.2129C42.6906 73.2383 42.6414 73.2645 42.5948 73.2895C42.5207 73.329 42.4529 73.3653 42.3811 73.3893C41.851 73.5662 41.3196 73.7394 40.7883 73.9125C40.5669 73.9847 40.3454 74.0569 40.1241 74.1293C39.3647 74.3779 38.6055 74.6266 37.8463 74.8754C37.4681 74.9993 37.09 75.1232 36.7119 75.2471C36.4533 75.3318 36.1948 75.4165 35.9362 75.5012C35.1857 75.7471 34.4353 75.993 33.6847 76.2386C33.1505 76.4135 32.6162 76.5882 32.082 76.7629C31.5299 76.9433 30.9779 77.1238 30.426 77.3045C29.8835 77.482 29.3411 77.6598 28.7987 77.8375C28.2722 78.01 27.7457 78.1825 27.2191 78.3549C26.8413 78.4786 26.4634 78.602 26.0855 78.7254C25.3856 78.954 24.6857 79.1826 23.9862 79.4127C23.0114 79.7335 22.0378 80.0582 21.0718 80.3983C21.5728 80.8724 22.0622 81.3332 22.5605 81.784C22.7319 81.9391 22.9255 82.0695 23.1129 82.1916C23.121 82.1846 23.1291 82.1776 23.137 82.1706C23.2035 82.1128 23.2643 82.0599 23.3348 82.0364C23.5924 81.9505 23.8511 81.8684 24.1098 81.7862C24.3054 81.724 24.501 81.6619 24.6961 81.5982C25.2757 81.4089 25.855 81.2186 26.4343 81.0282C26.8894 80.8786 27.3445 80.7291 27.7998 80.58C28.334 80.4052 28.8684 80.2308 29.4029 80.0565C29.9293 79.8848 30.4556 79.7131 30.9819 79.5409C31.5744 79.3469 32.1668 79.1524 32.7592 78.9579C33.2611 78.7931 33.7631 78.6283 34.2652 78.4638C34.6899 78.3247 35.1147 78.1859 35.5395 78.0472C36.1668 77.8423 36.7941 77.6374 37.421 77.4313C38.3121 77.1383 39.203 76.8446 40.0939 76.5508C40.844 76.3035 41.5942 76.0561 42.3445 75.8092C42.8928 75.6288 43.4413 75.4488 43.9897 75.2688C44.7067 75.0335 45.4237 74.7981 46.1404 74.5619C46.2068 74.54 46.2707 74.5108 46.3309 74.4834C46.3577 74.4712 46.3838 74.4593 46.409 74.4486L46.4089 74.4484ZM48.9166 76.0223C49.0425 75.9803 49.154 75.9229 49.1216 75.7445C48.9168 75.636 48.714 75.5321 48.5132 75.4292C48.3038 75.3219 48.0965 75.2156 47.8908 75.1062C47.6467 74.9763 47.4099 74.8319 47.1748 74.6861C46.9726 74.5607 46.7729 74.4313 46.5733 74.3018C46.487 74.2459 46.4008 74.19 46.3143 74.1344L46.409 74.4486C46.3838 74.4593 46.3578 74.4712 46.331 74.4834C46.2708 74.5108 46.2068 74.54 46.1405 74.5619C45.4239 74.7981 44.7071 75.0334 43.9903 75.2686C43.4417 75.4487 42.8931 75.6288 42.3446 75.8092C41.5943 76.0561 40.8441 76.3035 40.094 76.5508C39.2031 76.8446 38.3122 77.1383 37.4211 77.4313C36.7942 77.6374 36.1668 77.8423 35.5395 78.0472C35.1147 78.186 34.6899 78.3247 34.2653 78.4638C33.7631 78.6283 33.2611 78.7932 32.7591 78.958C32.1668 79.1525 31.5744 79.347 30.9819 79.5409C30.4557 79.7131 29.9294 79.8848 29.403 80.0565C28.8686 80.2308 28.3341 80.4052 27.7998 80.58C27.3446 80.7291 26.8894 80.8786 26.4343 81.0282C25.8551 81.2186 25.2758 81.4089 24.6961 81.5982C24.5011 81.6619 24.3055 81.724 24.1099 81.7862C23.8512 81.8684 23.5924 81.9505 23.3349 82.0364C23.2559 82.0627 23.1892 82.1259 23.1203 82.2082C23.3115 82.3967 23.4957 82.5535 23.6876 82.7005C24.1991 83.0922 24.7138 83.4796 25.2316 83.851C25.342 83.7075 25.4926 83.6733 25.641 83.6396C25.6937 83.6276 25.7461 83.6157 25.7963 83.599C26.5844 83.3366 27.3737 83.0781 28.1629 82.8196C28.4001 82.742 28.6373 82.6643 28.8744 82.5865C29.9606 82.2302 31.0469 81.8741 32.1332 81.5182C32.8535 81.2823 33.5739 81.0465 34.2943 80.8108C34.6347 80.6994 34.9751 80.588 35.3154 80.4766L38.5747 79.4097L41.6029 78.4185L42.2786 78.1973C43.2425 77.8818 44.2064 77.5662 45.1702 77.2505C45.7873 77.0484 46.4044 76.8461 47.0215 76.6438C47.3623 76.532 47.7031 76.4203 48.044 76.3086C48.1333 76.2793 48.2227 76.2501 48.3121 76.221C48.5137 76.1551 48.7154 76.0893 48.9166 76.0223Z" fill="url(#paint11_linear_18_7755)"/>
<path d="M16.9381 74.3499C17.0733 74.9132 17.2073 75.4768 17.3443 76.0396C17.3782 76.1786 17.4218 76.3152 17.4625 76.4713C17.0563 75.9763 16.6326 75.4745 16.2438 74.9471C15.2112 73.5467 14.2579 72.093 13.4137 70.5712C12.99 69.8075 12.5952 69.0274 12.202 68.2474C11.9291 67.7062 11.6686 67.158 11.4256 66.6029C11.1694 66.0176 10.9256 65.4259 10.7034 64.827C10.4474 64.1367 10.2138 63.4379 9.98315 62.7386C9.59149 61.551 9.27653 60.3423 9.01807 59.0977C9.11995 59.1121 9.23073 59.1309 9.31609 59.1878C11.1019 60.3776 12.8859 61.5702 14.6676 62.7661C15.0697 63.0361 15.4616 63.3213 15.8597 63.5972C15.8871 63.6162 15.9276 63.6163 15.9845 63.6458C16.01 63.7072 16.013 63.7479 16.0129 63.8133C15.9958 64.1158 15.9647 64.3939 15.9708 64.6712C15.9963 65.8293 16.0305 66.9872 16.0671 68.145C16.0768 68.4498 16.1012 68.7544 16.1287 69.0582C16.148 69.2709 16.1842 69.4821 16.2134 69.7187C16.2606 70.2001 16.2917 70.6589 16.3575 71.1127C16.4647 71.8513 16.589 72.5876 16.7173 73.3229C16.7774 73.6676 16.8637 74.0077 16.9381 74.3499Z" fill="url(#paint12_linear_18_7755)"/>
<path d="M50.745 8.02697C50.2534 8.04417 49.7446 8.04636 49.2104 8.04527C49.2165 8.02735 49.248 7.99988 49.2794 8C49.7622 8.00187 50.245 8.00733 50.745 8.02697Z" fill="#C8CFDF"/>
<path d="M48.4336 91.9213C48.7713 91.9097 49.1264 91.9143 49.4984 91.9346C49.1604 91.946 48.8057 91.9417 48.4336 91.9213Z" fill="#40BC9B"/>
<path d="M50.6177 91.9491C50.6671 91.9305 50.7419 91.9034 50.8171 91.9019C51.0915 91.8965 51.366 91.8996 51.6667 91.9022C51.6092 91.9213 51.5256 91.95 51.4414 91.9517C51.1755 91.9574 50.9093 91.953 50.6177 91.9491Z" fill="#40BC9B"/>
<path d="M49.5322 91.9739C49.8582 91.9565 50.2009 91.9536 50.5685 91.9531C50.5628 91.9712 50.5323 92.0004 50.5018 92.0003C50.1842 91.9991 49.8665 91.9931 49.5322 91.9739Z" fill="#C8CFDF"/>
<path d="M48.2495 8.05469C48.0885 8.07367 47.9025 8.08967 47.6919 8.10342C47.853 8.08467 48.0387 8.06819 48.2495 8.05469Z" fill="#C8CFDF"/>
<path d="M52.2631 8.08567C52.0885 8.09677 51.8976 8.09249 51.6895 8.0729C51.8638 8.06182 52.0552 8.06606 52.2631 8.08567Z" fill="#C8CFDF"/>
<path d="M47.3486 91.8666C47.4889 91.8556 47.646 91.8605 47.8197 91.8807C47.6793 91.8915 47.5224 91.887 47.3486 91.8666Z" fill="#40BC9B"/>
<path d="M52.2944 91.8952C52.4068 91.8777 52.5429 91.8634 52.7036 91.8521C52.5915 91.8694 52.4549 91.8839 52.2944 91.8952Z" fill="#40BC9B"/>
<path d="M47.2218 8.1084C47.1296 8.12644 47.0144 8.14151 46.8765 8.15337C46.9687 8.13525 47.0837 8.12033 47.2218 8.1084Z" fill="#C8CFDF"/>
<path d="M53.0769 8.13527C52.9735 8.14704 52.854 8.14411 52.7183 8.1262C52.8216 8.11434 52.9412 8.11746 53.0769 8.13527Z" fill="#C8CFDF"/>
<path d="M45.9927 91.7582C46.0801 91.7478 46.1835 91.7529 46.3027 91.773C46.2152 91.7833 46.1119 91.7785 45.9927 91.7582Z" fill="#40BC9B"/>
<path d="M46.6387 91.8169C46.7281 91.8028 46.8337 91.8048 46.9553 91.8223C46.8658 91.8362 46.7603 91.8346 46.6387 91.8169Z" fill="#40BC9B"/>
<path d="M53.1606 91.8409C53.2388 91.8235 53.3397 91.8092 53.4638 91.7979C53.3858 91.8152 53.2846 91.8296 53.1606 91.8409Z" fill="#40BC9B"/>
<path d="M89.9127 63.0227C89.9068 62.988 89.9134 62.9401 89.9336 62.8799C89.9399 62.9148 89.9325 62.9621 89.9127 63.0227Z" fill="#233779"/>
<path d="M90.1837 62.1559C90.1778 62.1212 90.1844 62.0733 90.2046 62.0132C90.2109 62.0481 90.2035 62.0954 90.1837 62.1559Z" fill="#233779"/>
<path d="M41.6558 91.102C41.6745 91.0944 41.703 91.0984 41.7429 91.1112C41.7247 91.1179 41.6951 91.1157 41.6558 91.102Z" fill="#037B38"/>
<path d="M91.9696 51.6516C91.959 51.6458 91.9576 51.6358 91.9631 51.6123C91.9765 51.6094 91.9845 51.6195 91.9891 51.631C91.9905 51.6345 91.9825 51.6418 91.9696 51.6516Z" fill="#C8CFDF"/>
<path d="M91.959 48.2825C91.9488 48.2826 91.9405 48.2677 91.9399 48.2466C91.952 48.2494 91.9565 48.2584 91.959 48.2825Z" fill="#5B6D9F"/>
<path d="M91.9043 47.2537C91.8941 47.2538 91.8858 47.2389 91.8853 47.2178C91.8974 47.2206 91.9018 47.2296 91.9043 47.2537Z" fill="#5B6D9F"/>
<path d="M92.0002 49.2606C91.9848 49.2606 91.9738 49.2467 91.9648 49.2192C91.9795 49.2193 91.992 49.233 92.0002 49.2606Z" fill="#5B6D9F"/>
<path d="M91.9857 50.7282C91.9761 50.7185 91.9775 50.7005 91.9913 50.6748C92.0014 50.6848 91.999 50.7023 91.9857 50.7282Z" fill="#C8CFDF"/>
<path d="M91.9231 52.2529C91.9032 52.2427 91.9046 52.2254 91.9273 52.2012C91.9371 52.2106 91.9357 52.2278 91.9231 52.2529Z" fill="#5B6D9F"/>
<path d="M91.8923 46.8768C91.8776 46.8766 91.8668 46.8624 91.8574 46.8345C91.8713 46.8347 91.8838 46.8487 91.8923 46.8768Z" fill="#5B6D9F"/>
<path d="M91.9465 47.7435C91.9318 47.7434 91.921 47.7291 91.9116 47.7012C91.9255 47.7015 91.9379 47.7155 91.9465 47.7435Z" fill="#5B6D9F"/>
<path d="M74.3092 48.6171C74.2971 48.6141 74.2932 48.6051 74.2905 48.5815C74.3003 48.5817 74.3088 48.5964 74.3092 48.6171Z" fill="#5B6D9F"/>
<path d="M74.3359 49.1599C74.3159 49.1652 74.3049 49.152 74.3042 49.1204C74.3256 49.1148 74.3357 49.1279 74.3359 49.1599Z" fill="#5B6D9F"/>
<path d="M74.314 50.8365C74.3047 50.827 74.3062 50.8092 74.3199 50.7837C74.3297 50.7934 74.3272 50.8108 74.314 50.8365Z" fill="#5B6D9F"/>
<path d="M74.2783 51.4268C74.2655 51.4299 74.2573 51.4197 74.2526 51.4081C74.2512 51.4046 74.2595 51.3972 74.2726 51.3872C74.2827 51.3928 74.2835 51.4029 74.2783 51.4268Z" fill="#C8CFDF"/>
<path d="M74.2505 51.8198C74.2314 51.8098 74.233 51.7927 74.2552 51.7686C74.2767 51.7788 74.2752 51.7958 74.2505 51.8198Z" fill="#C8CFDF"/>
<path d="M35.5959 14.3781C35.158 14.3807 34.7201 14.3838 34.2822 14.386C33.9692 14.3875 33.6562 14.388 33.3213 14.3754C33.2994 14.3619 33.3062 14.3423 33.3062 14.3423C34.0471 14.3422 34.7881 14.342 35.5581 14.3508C35.5871 14.3597 35.5959 14.3781 35.5959 14.3781Z" fill="#A9B141"/>
<path d="M36.9181 14.4276C36.7141 14.4313 36.4917 14.4231 36.251 14.4032C36.455 14.3996 36.6774 14.4076 36.9181 14.4276Z" fill="#669B3E"/>
<path d="M32.5715 14.3882C32.3972 14.41 32.1988 14.4278 31.9766 14.4417C32.151 14.4199 32.3492 14.4021 32.5715 14.3882Z" fill="#4E8B41"/>
<path d="M37.5672 14.4841C37.3994 14.4864 37.2136 14.4769 37.0098 14.4554C37.1776 14.4531 37.3633 14.4627 37.5672 14.4841Z" fill="#669B3E"/>
<path d="M33.2824 14.3389C33.3067 14.3423 33.3 14.3619 33.296 14.3714C33.1147 14.3846 32.9374 14.3882 32.7363 14.3873C32.8944 14.367 33.0762 14.3512 33.2824 14.3389Z" fill="#5B6D9F"/>
<path d="M35.6199 14.3792C35.5964 14.378 35.5876 14.3596 35.584 14.3501C35.7668 14.345 35.9532 14.3494 36.1559 14.3678C35.9959 14.3813 35.8196 14.3808 35.6199 14.3792Z" fill="#5B6D9F"/>
<path d="M54.6543 20.8797C54.6034 20.873 54.5524 20.8452 54.4917 20.8027C54.5495 20.7867 54.6274 20.7606 54.6543 20.8797Z" fill="#1D64AA"/>
<path d="M54.4374 20.7577C54.4259 20.7698 54.4115 20.764 54.3955 20.7387C54.4063 20.7298 54.4199 20.7365 54.4374 20.7577Z" fill="#1D64AA"/>
<path d="M68.2679 33.8721C68.1294 33.7574 67.9906 33.6238 67.8472 33.4732C67.8595 33.4485 67.8727 33.4367 67.8881 33.4087C68.0186 33.5488 68.143 33.7011 68.2679 33.8721Z" fill="#C3B943"/>
<path d="M68.382 34.0364C68.3554 34.0286 68.3331 34.0036 68.3149 33.9609C68.3415 33.9686 68.364 33.9939 68.382 34.0364Z" fill="#C3B943"/>
<path d="M68.3196 33.9316C68.3027 33.9388 68.2836 33.9308 68.2656 33.906C68.2836 33.8983 68.3004 33.9074 68.3196 33.9316Z" fill="#C3B943"/>
<path d="M68.4806 34.1559C68.465 34.1605 68.4499 34.1479 68.4312 34.1208C68.4453 34.1171 68.4631 34.1279 68.4806 34.1559Z" fill="#C3B943"/>
<path d="M68.4255 34.0968C68.4148 34.0997 68.3971 34.0903 68.3774 34.0652C68.3898 34.0612 68.4042 34.0729 68.4255 34.0968Z" fill="#C3B943"/>
<path d="M35.3548 30.5371C35.3443 30.5697 35.3153 30.6008 35.27 30.6348C35.2813 30.6038 35.3088 30.5696 35.3548 30.5371Z" fill="#DBC144"/>
<path d="M35.455 30.4751C35.4491 30.496 35.426 30.5174 35.3862 30.54C35.3923 30.5192 35.4151 30.4974 35.455 30.4751Z" fill="#DBC144"/>
<path d="M35.5247 30.4287C35.5268 30.4415 35.5135 30.4558 35.4855 30.473C35.4837 30.4606 35.4965 30.4455 35.5247 30.4287Z" fill="#DBC144"/>
<path fill-rule="evenodd" clip-rule="evenodd" d="M34.888 30.9421C35.0074 30.8397 35.1252 30.7387 35.2341 30.6357C35.2224 30.6388 35.2112 30.6416 35.2003 30.6444C35.1465 30.6579 35.1022 30.669 35.0672 30.6934C34.6622 30.9756 34.2586 31.2597 33.855 31.5439C33.775 31.6002 33.6951 31.6564 33.6152 31.7127C33.4036 31.8616 33.1924 32.0109 32.9721 32.1757C32.9687 32.1802 32.9654 32.1845 32.9622 32.1886C32.9407 32.2168 32.9262 32.2359 32.9078 32.2502C32.7341 32.3864 32.56 32.5221 32.386 32.6579C32.0583 32.9134 31.7306 33.1689 31.405 33.4271C31.3383 33.48 31.2714 33.5328 31.2044 33.5856C30.8921 33.8319 30.5795 34.0784 30.2821 34.3418C29.9302 34.6535 29.5871 34.9753 29.2441 35.2972C29.0894 35.4423 28.9347 35.5874 28.7792 35.7316C28.7515 35.7573 28.7236 35.7828 28.6954 35.8086C28.6234 35.8746 28.5495 35.9422 28.4719 36.0186C28.4396 36.0612 28.4163 36.0886 28.3912 36.1144C28.1895 36.3219 27.9873 36.5289 27.7851 36.7359C27.302 37.2303 26.8188 37.7248 26.3429 38.2261C26.1395 38.4404 25.9495 38.6673 25.7595 38.8942C25.6669 39.0046 25.5744 39.1151 25.4804 39.2241C25.4254 39.2877 25.3704 39.3513 25.3152 39.4151C25.1589 39.5956 25.0009 39.778 24.8392 39.9698C24.6162 40.2712 24.3921 40.5691 24.1689 40.8659C23.7509 41.4217 23.3358 41.9735 22.936 42.5362C22.2071 43.562 21.5519 44.6361 20.9456 45.7396C20.9022 45.8184 20.8508 45.8929 20.7976 45.97C20.7568 46.0291 20.7148 46.0899 20.6747 46.1553C20.606 46.2947 20.5388 46.4198 20.4724 46.5432C20.4624 46.5618 20.4524 46.5804 20.4425 46.599C20.0658 47.3013 19.7468 48.0306 19.4279 48.7598C19.3938 48.8376 19.3598 48.9154 19.3256 48.9933C19.2014 49.2766 19.0897 49.5655 18.978 49.8544C18.9275 49.985 18.877 50.1156 18.8254 50.2456C18.8585 50.2379 18.8918 50.2309 18.9252 50.224C18.9969 50.209 19.0686 50.194 19.1377 50.1713C19.9627 49.8999 20.7875 49.6278 21.6122 49.3557C22.4599 49.0761 23.3075 48.7964 24.1554 48.5176C24.5648 48.3829 24.9762 48.254 25.3888 48.1295C25.4362 48.1152 25.4854 48.1069 25.538 48.0981C25.5976 48.0881 25.6614 48.0774 25.7318 48.0563C25.7616 47.9194 25.7768 47.792 25.7916 47.6687C25.7996 47.6015 25.8075 47.5356 25.8175 47.47C25.8543 47.2285 25.8887 46.9866 25.9232 46.7446C26.009 46.1415 26.0948 45.5384 26.2178 44.943C26.6814 42.7001 27.4625 40.5689 28.5467 38.5485C29.1057 37.5067 29.7331 36.5097 30.4321 35.5566C31.1527 34.574 31.9447 33.651 32.8153 32.8006C33.2418 32.3839 33.6912 31.9906 34.1405 31.5973C34.3146 31.4449 34.4886 31.2926 34.6613 31.1389C34.7363 31.0722 34.8125 31.0069 34.888 30.9421ZM18.9804 50.2136C18.9264 50.2266 18.8702 50.2401 18.8113 50.2587C18.3161 51.4671 17.9067 52.687 17.5536 53.9261C17.5043 54.0989 17.4517 54.2707 17.398 54.4462C17.3552 54.586 17.3117 54.7281 17.2686 54.8749C17.2441 54.9881 17.2197 55.0965 17.1958 55.2024C17.1673 55.3291 17.1395 55.4523 17.1134 55.5758C17.044 55.9032 16.9761 56.2308 16.9082 56.5585C16.8803 56.6935 16.8523 56.8285 16.8242 56.9635C16.8661 56.9565 16.9084 56.9512 16.9508 56.9458C17.0421 56.9343 17.1335 56.9227 17.2194 56.8947C18.0921 56.6102 18.9638 56.3228 19.8356 56.0354C20.2623 55.8947 20.689 55.7541 21.1158 55.6137C22.1582 55.271 23.2008 54.9288 24.2441 54.589C24.7143 54.4359 25.1858 54.2867 25.6587 54.1423C25.7078 54.1272 25.759 54.1189 25.8133 54.1101C25.8705 54.1008 25.931 54.091 25.9961 54.0721C25.9667 53.6877 25.9206 53.3237 25.8653 52.9611C25.7356 52.1092 25.6873 51.2496 25.6753 50.391C25.6692 49.9543 25.6847 49.5172 25.7003 49.0801C25.7121 48.7469 25.724 48.4137 25.7263 48.0805C25.6911 48.0849 25.6573 48.0882 25.6246 48.0914C25.5392 48.0999 25.4616 48.1075 25.3885 48.1296C24.9759 48.2542 24.5645 48.3831 24.1551 48.5177C23.3072 48.7965 22.4595 49.0762 21.6119 49.3559C20.7872 49.628 19.9624 49.9001 19.1374 50.1714C19.0867 50.1881 19.0346 50.2006 18.9804 50.2136Z" fill="url(#paint13_linear_18_7755)"/>
<path fill-rule="evenodd" clip-rule="evenodd" d="M31.1887 65.3927C31.0873 65.2704 30.9859 65.1481 30.883 65.0272C30.6018 65.0168 30.3428 65.1071 30.0857 65.1966C30.0123 65.2222 29.9391 65.2477 29.8655 65.2708C29.3012 65.448 28.7407 65.6372 28.1802 65.8264C27.862 65.9337 27.5438 66.0411 27.2249 66.1463C26.4766 66.3932 25.7274 66.6377 24.9782 66.8821C24.6493 66.9894 24.3204 67.0968 23.9916 67.2043C23.6836 67.305 23.3756 67.4057 23.0676 67.5063C22.3148 67.7524 21.5621 67.9984 20.8095 68.245C20.3859 68.3837 19.9625 68.5228 19.5391 68.6618C18.8766 68.8794 18.2141 69.097 17.5511 69.3133C17.192 69.4306 16.831 69.5419 16.4699 69.6528C16.4453 69.6603 16.4201 69.666 16.3936 69.6719C16.347 69.6823 16.2961 69.6937 16.2368 69.7181C16.2607 70.2 16.2918 70.6589 16.3576 71.1126C16.4648 71.8513 16.5891 72.5876 16.7174 73.3229C16.7775 73.6676 16.8638 74.0077 16.959 74.3496C17.9472 74.038 18.9155 73.7292 19.882 73.4148C20.5383 73.2012 21.194 72.9856 21.8496 72.7699C22.2795 72.6285 22.7094 72.4871 23.1395 72.3463C23.6721 72.1719 24.205 71.9981 24.7378 71.8243C25.2657 71.6521 25.7937 71.4799 26.3214 71.3072C27.0199 71.0785 27.7182 70.8491 28.4164 70.6197C28.7525 70.5093 29.0886 70.3989 29.4248 70.2886C29.6726 70.2072 29.9204 70.1259 30.1682 70.0445C31.0574 69.7526 31.9467 69.4607 32.8361 69.169C32.8684 69.1585 32.9007 69.1479 32.933 69.1373C33.4223 68.9769 33.9114 68.8167 34.3913 68.6422C34.2819 68.5425 34.1724 68.4465 34.0641 68.3515C33.8826 68.1925 33.7045 68.0364 33.536 67.8705C32.9774 67.3206 32.4217 66.7668 31.8843 66.1963C31.6415 65.9387 31.4151 65.6657 31.1887 65.3927ZM17.4694 76.4901C17.8749 76.9891 18.2722 77.451 18.6694 77.9128C18.6887 77.809 18.7673 77.788 18.8454 77.767C18.8622 77.7626 18.8789 77.7581 18.8951 77.7528C19.2355 77.6411 19.5759 77.5296 19.9164 77.4181C20.5002 77.2269 21.084 77.0357 21.6675 76.8436C22.0265 76.7253 22.3852 76.606 22.7438 76.4867C23.1118 76.3643 23.4798 76.2419 23.8482 76.1206C24.8903 75.7776 25.933 75.4363 26.9756 75.0949L27.1087 75.0514C27.584 74.8958 28.0593 74.7405 28.5347 74.5853C29.0695 74.4106 29.6043 74.2359 30.139 74.0608C30.864 73.8233 31.5888 73.5853 32.3136 73.3474C32.7268 73.2117 33.1401 73.076 33.5534 72.9404C33.8208 72.8527 34.0881 72.7649 34.3555 72.6771C35.1149 72.4278 35.8743 72.1785 36.6343 71.9306C37.2077 71.7436 37.7826 71.5614 38.3771 71.3744C38.1515 71.2253 37.9071 71.0764 37.6597 70.9327C36.7033 70.3771 35.7975 69.748 34.9252 69.0692C34.8621 69.0201 34.7948 68.9764 34.7275 68.9327C34.6684 68.8942 34.6093 68.8558 34.5529 68.8137C34.5261 68.7936 34.5044 68.7666 34.4806 68.7369C34.4623 68.714 34.4426 68.6896 34.4184 68.6655C33.8797 68.8282 33.3578 68.998 32.8362 69.169C31.9482 69.4602 31.0604 69.7516 30.1726 70.0431C29.9234 70.1249 29.6741 70.2067 29.4249 70.2885C29.0888 70.3989 28.7527 70.5093 28.4167 70.6197C27.7184 70.8491 27.0201 71.0785 26.3215 71.3072C25.7937 71.4799 25.2657 71.6522 24.7377 71.8244C24.2049 71.9981 23.6722 72.1719 23.1396 72.3463C22.7095 72.4871 22.2796 72.6285 21.8497 72.7699C21.1941 72.9855 20.5384 73.2012 19.8821 73.4147C18.9156 73.7292 17.9473 74.038 16.9591 74.3496C17.0734 74.9131 17.2075 75.4767 17.3445 76.0396C17.3645 76.1219 17.388 76.2033 17.4136 76.2923C17.4313 76.3537 17.4501 76.4187 17.4694 76.4901Z" fill="url(#paint14_linear_18_7755)"/>
<path d="M42.8027 73.231C42.8377 73.225 42.8848 73.2327 42.9457 73.2526C42.9112 73.2581 42.8631 73.2515 42.8027 73.231Z" fill="#56963D"/>
<path d="M43.0195 73.2877C43.0399 73.2819 43.0715 73.2887 43.1161 73.306C43.0963 73.311 43.0635 73.3057 43.0195 73.2877Z" fill="#56963D"/>
<path d="M43.3989 73.3961C43.4193 73.3903 43.451 73.3971 43.4958 73.4143C43.4759 73.4194 43.4431 73.4141 43.3989 73.3961Z" fill="#56963D"/>
<path fill-rule="evenodd" clip-rule="evenodd" d="M17.0164 56.9396C16.9509 56.9509 16.8837 56.9625 16.8156 56.9824C16.8089 57.0137 16.8022 57.0448 16.7956 57.0758C16.7346 57.3592 16.6768 57.6281 16.6301 57.8989L16.6274 57.9146C16.5444 58.3959 16.4614 58.8774 16.3952 59.3611C16.3246 59.8769 16.27 60.395 16.2159 60.9129C16.1618 61.4308 16.1118 61.9492 16.0699 62.4682C16.0435 62.7943 16.0284 63.1214 16.0127 63.4605C16.0099 63.522 16.007 63.5838 16.0041 63.6462C16.0103 63.707 16.0133 63.7477 16.0162 63.7884L16.0162 63.7885C16.0522 63.7813 16.0886 63.7752 16.1249 63.7691C16.2036 63.7559 16.2823 63.7428 16.3573 63.7183C16.6981 63.6072 17.0381 63.4936 17.378 63.38C17.6358 63.2939 17.8936 63.2078 18.1518 63.1227C18.9712 62.8528 19.791 62.584 20.6108 62.3153C20.8771 62.228 21.1435 62.1407 21.4098 62.0533C21.6398 61.9779 21.8697 61.9024 22.0997 61.827C22.9472 61.5489 23.7948 61.2709 24.6425 60.9935C25.6091 60.6774 26.576 60.3621 27.5433 60.0483C27.5754 60.0379 27.6084 60.0301 27.6432 60.0218C27.6909 60.0106 27.7422 59.9984 27.7999 59.9776C26.9659 58.0814 26.3755 56.1233 25.9971 54.0933C25.962 54.0975 25.9283 54.1008 25.8957 54.1039C25.81 54.1122 25.7322 54.1197 25.659 54.1421C25.1861 54.2865 24.7146 54.4357 24.2444 54.5888C23.2011 54.9286 22.1585 55.2708 21.1162 55.6135C20.6894 55.7539 20.2626 55.8945 19.8359 56.0352C18.9642 56.3226 18.0924 56.61 17.2197 56.8945C17.1547 56.9157 17.0866 56.9275 17.0164 56.9396ZM30.1066 65.189C30.3566 65.1012 30.6078 65.0128 30.8758 65.0097C30.2658 64.2147 29.703 63.4097 29.1918 62.5689C28.6863 61.7375 28.2368 60.8765 27.8 59.9971C27.7811 60.0002 27.7629 60.0031 27.7453 60.0059C27.6697 60.018 27.6049 60.0283 27.5433 60.0483C26.5759 60.3621 25.6091 60.6774 24.6425 60.9936C23.7947 61.2709 22.9472 61.5489 22.0997 61.827C21.8697 61.9024 21.6397 61.9779 21.4098 62.0533C21.1433 62.1407 20.8769 62.228 20.6105 62.3154C19.7908 62.5841 18.9711 62.8528 18.1518 63.1228C17.8936 63.2078 17.6358 63.2939 17.378 63.3801C17.038 63.4936 16.6981 63.6072 16.3573 63.7183C16.3114 63.7333 16.2641 63.744 16.216 63.755C16.1493 63.7701 16.0811 63.7856 16.0131 63.8132C16.008 63.9033 16.0017 63.9913 15.9954 64.0778C15.9808 64.2814 15.9667 64.4765 15.971 64.6711C15.9965 65.8292 16.0308 66.9871 16.0674 68.1449C16.077 68.4497 16.1014 68.7543 16.129 69.0581C16.1483 69.2708 16.1844 69.482 16.2364 69.6933C16.2576 69.6902 16.2778 69.6875 16.297 69.6849C16.3625 69.6762 16.4176 69.6688 16.47 69.6527C16.8311 69.5418 17.1922 69.4305 17.5513 69.3133C18.2143 69.0969 18.8768 68.8793 19.5394 68.6617C19.9628 68.5227 20.3862 68.3836 20.8096 68.2449C21.5625 67.9983 22.3156 67.7521 23.0686 67.506C23.3763 67.4054 23.684 67.3048 23.9917 67.2042C24.3206 67.0967 24.6496 66.9893 24.9785 66.882C25.7277 66.6376 26.4768 66.3931 27.2251 66.1463C27.544 66.0411 27.8621 65.9337 28.1803 65.8263C28.7409 65.6371 29.3014 65.448 29.8657 65.2707C29.9462 65.2454 30.0263 65.2173 30.1066 65.189Z" fill="#8FA840"/>
<defs>
<linearGradient id="paint0_linear_18_7755" x1="67.9562" y1="53.7319" x2="76.0199" y2="75.5689" gradientUnits="userSpaceOnUse">
<stop offset="0.200043" stop-color="#224588"/>
<stop offset="0.647592" stop-color="#242E6F"/>
</linearGradient>
<linearGradient id="paint1_linear_18_7755" x1="79.3564" y1="34.2722" x2="84.0992" y2="57.5304" gradientUnits="userSpaceOnUse">
<stop offset="0.175906" stop-color="#1F5599"/>
<stop offset="0.8093" stop-color="#224487"/>
</linearGradient>
<linearGradient id="paint2_linear_18_7755" x1="70.806" y1="22.4068" x2="77.4464" y2="42.3443" gradientUnits="userSpaceOnUse">
<stop offset="0.199137" stop-color="#1D64AA"/>
<stop offset="0.917675" stop-color="#1F5498"/>
</linearGradient>
<linearGradient id="paint3_linear_18_7755" x1="63.2058" y1="13.3887" x2="74.5945" y2="28.111" gradientUnits="userSpaceOnUse">
<stop stop-color="#1C73BA"/>
<stop offset="1" stop-color="#1D62A8"/>
</linearGradient>
<linearGradient id="paint4_linear_18_7755" x1="33.2802" y1="19.0843" x2="26.637" y2="28.1074" gradientUnits="userSpaceOnUse">
<stop offset="0.208024" stop-color="#EDA024"/>
<stop offset="1" stop-color="#ED7E24"/>
</linearGradient>
<linearGradient id="paint5_linear_18_7755" x1="17.1304" y1="40.4423" x2="14.3648" y2="54.8512" gradientUnits="userSpaceOnUse">
<stop offset="0.0994728" stop-color="#ED6A24"/>
<stop offset="0.794899" stop-color="#ED5924"/>
</linearGradient>
<linearGradient id="paint6_linear_18_7755" x1="19.5051" y1="31.4248" x2="13.3379" y2="43.2945" gradientUnits="userSpaceOnUse">
<stop offset="0.203701" stop-color="#ED7624"/>
<stop offset="1" stop-color="#ED6424"/>
</linearGradient>
<linearGradient id="paint7_linear_18_7755" x1="34.7053" y1="73.1917" x2="41.8213" y2="86.9605" gradientUnits="userSpaceOnUse">
<stop offset="0.406427" stop-color="#4B923C"/>
<stop offset="1" stop-color="#178139"/>
</linearGradient>
<linearGradient id="paint8_linear_18_7755" x1="23.3052" y1="27.1529" x2="17.6121" y2="37.124" gradientUnits="userSpaceOnUse">
<stop offset="0.323965" stop-color="#ED7E24"/>
<stop offset="1" stop-color="#ED7024"/>
</linearGradient>
<linearGradient id="paint9_linear_18_7755" x1="12.6246" y1="48.7925" x2="12.6246" y2="63.6255" gradientUnits="userSpaceOnUse">
<stop stop-color="#ED5924"/>
<stop offset="1" stop-color="#ED4824"/>
</linearGradient>
<linearGradient id="paint10_linear_18_7755" x1="40.4053" y1="77.9382" x2="50.369" y2="93.6081" gradientUnits="userSpaceOnUse">
<stop stop-color="#24863A"/>
<stop offset="1" stop-color="#037B38"/>
</linearGradient>
<linearGradient id="paint11_linear_18_7755" x1="33.2805" y1="67.0215" x2="39.4478" y2="78.8912" gradientUnits="userSpaceOnUse">
<stop offset="0.477315" stop-color="#56963D"/>
<stop offset="1" stop-color="#4B923C"/>
</linearGradient>
<linearGradient id="paint12_linear_18_7755" x1="13.2403" y1="59.0977" x2="13.2403" y2="76.4713" gradientUnits="userSpaceOnUse">
<stop stop-color="#ED4824"/>
<stop offset="1" stop-color="#ED3A25"/>
</linearGradient>
<linearGradient id="paint13_linear_18_7755" x1="26.0292" y1="30.6357" x2="21.8865" y2="55.6316" gradientUnits="userSpaceOnUse">
<stop stop-color="#C3B943"/>
<stop offset="1" stop-color="#8FA840"/>
</linearGradient>
<linearGradient id="paint14_linear_18_7755" x1="24.7299" y1="66.0723" x2="28.5246" y2="76.516" gradientUnits="userSpaceOnUse">
<stop stop-color="#8FA840"/>
<stop offset="1" stop-color="#54953C"/>
</linearGradient>
</defs>
</svg>
