<svg width="100" height="100" viewBox="0 0 100 100" fill="none" xmlns="http://www.w3.org/2000/svg">
<rect width="100" height="100" fill="#073270"/>
<path d="M48.7501 19H47C49.1823 19.3118 51.0578 20.7085 51.9816 22.7101L67.9339 57.2734C68.2817 58.0269 69.0205 58.5237 69.8495 58.5613L76.341 58.8564C78.2442 58.9429 79.8975 60.1926 80.5 62V56.6265C80.5 55.1229 79.3869 53.8516 77.8965 53.6529L74.081 53.1441C73.4072 53.0543 72.8251 52.6283 72.5357 52.0133L60.5128 26.4646C58.3686 21.9082 53.7858 19 48.7501 19Z" fill="white"/>
<path d="M20 31.5V25C20 21.6863 22.6863 19 26 19H41.7722C44.055 19 46.1401 20.2954 47.1514 22.3421L64.8486 58.1579C65.8599 60.2046 67.945 61.5 70.2278 61.5H75C78.3137 61.5 81 64.1863 81 67.5V74C81 77.3137 78.3137 80 75 80H60.0752C57.8724 80 55.8468 78.793 54.7984 76.8557L35.2016 40.6443C34.1532 38.707 32.1276 37.5 29.9248 37.5H26C22.6863 37.5 20 34.8137 20 31.5Z" fill="white"/>
<rect x="21" y="58.5" width="21" height="21" rx="6" fill="white"/>
</svg>
