<svg width="100" height="100" viewBox="0 0 100 100" fill="none" xmlns="http://www.w3.org/2000/svg">
<rect width="100" height="100" fill="#0A73B9"/>
<path fill-rule="evenodd" clip-rule="evenodd" d="M49.8812 19L45.7432 23.646H54.0353L49.8812 19ZM67.6778 38.9121H32.1477L29.6397 41.7281H70.1958L67.6778 38.9121ZM75.8718 57.2061H84.03L86.22 59.6541H77.8156L75.8718 57.2061ZM23.9732 57.2061H15.8539L13.6719 59.6541H22.048L23.9732 57.2061ZM19.2719 63.1841H10.53L8 66.0221H17.04L19.2719 63.1841ZM82.872 66.0221H91.9102L89.3722 63.1841H80.6185L82.872 66.0221ZM21.0872 51.3301H78.7753L80.8773 53.6801H18.9932L21.0872 51.3301ZM72.9656 44.8262H26.8815L24.2295 47.8022H75.6256L72.9656 44.8262ZM37.3158 33.106H62.4898L64.6778 35.556H35.1358L37.3158 33.106ZM56.6621 26.5859H43.126L40.46 29.5799H59.3381L56.6621 26.5859Z" fill="white"/>
<path d="M30.9482 64.3081H29.376L28.751 62.6821H25.8897L25.2988 64.3081H23.7656L26.5537 57.1499H28.082L30.9482 64.3081ZM28.2871 61.4761L27.3008 58.8198L26.334 61.4761H28.2871ZM32.5088 64.3081V57.2085H33.9541V63.102H37.5479V64.3081H32.5088ZM45.7881 64.3081H44.2158L43.5908 62.6821H40.7295L40.1387 64.3081H38.6055L41.3936 57.1499H42.9219L45.7881 64.3081ZM43.127 61.4761L42.1406 58.8198L41.1738 61.4761H43.127ZM47.3291 64.3081V57.1499H48.7744V60.3286L51.6944 57.1499H53.6377L50.9424 59.938L53.7842 64.3081H51.9141L49.9463 60.9487L48.7744 62.145V64.3081H47.3291ZM61.7412 64.3081H60.169L59.544 62.6821H56.6826L56.0918 64.3081H54.5586L57.3467 57.1499H58.875L61.7412 64.3081ZM59.0801 61.4761L58.0938 58.8198L57.127 61.4761H59.0801ZM62.8965 61.979L64.3028 61.8423C64.3874 62.3143 64.5583 62.661 64.8155 62.8823C65.0759 63.1037 65.4258 63.2144 65.8653 63.2144C66.3308 63.2144 66.6807 63.1167 66.9151 62.9214C67.1527 62.7228 67.2715 62.4917 67.2715 62.228C67.2715 62.0588 67.2211 61.9155 67.1202 61.7983C67.0225 61.6779 66.85 61.5737 66.6026 61.4858C66.4333 61.4272 66.0476 61.3231 65.4453 61.1733C64.6706 60.9813 64.127 60.7453 63.8145 60.4653C63.375 60.0714 63.1553 59.5913 63.1553 59.0249C63.1553 58.6603 63.2578 58.3201 63.4629 58.0044C63.6713 57.6854 63.9691 57.4429 64.3565 57.2768C64.7471 57.1108 65.2175 57.0278 65.7676 57.0278C66.6661 57.0278 67.3415 57.2248 67.794 57.6186C68.2497 58.0125 68.489 58.5382 68.5118 59.1958L67.0664 59.2593C67.0046 58.8914 66.8711 58.6278 66.6661 58.4683C66.4642 58.3055 66.1599 58.2241 65.753 58.2241C65.333 58.2241 65.0043 58.3104 64.7666 58.4829C64.6136 58.5936 64.5371 58.7417 64.5371 58.9272C64.5371 59.0965 64.6088 59.2414 64.752 59.3618C64.9343 59.5148 65.377 59.6743 66.0801 59.8403C66.7832 60.0063 67.3024 60.1789 67.6377 60.3579C67.9763 60.5337 68.2399 60.7762 68.4288 61.0854C68.6208 61.3914 68.7168 61.7707 68.7168 62.2231C68.7168 62.6333 68.6029 63.0174 68.375 63.3755C68.1472 63.7336 67.8249 64.0005 67.4082 64.1763C66.9916 64.3488 66.4724 64.4351 65.8506 64.4351C64.9457 64.4351 64.2507 64.2267 63.7657 63.8101C63.2806 63.3901 62.9909 62.7798 62.8965 61.979ZM77.1377 64.3081H75.5655L74.9405 62.6821H72.0791L71.4883 64.3081H69.9551L72.7432 57.1499H74.2715L77.1377 64.3081ZM74.4766 61.4761L73.4903 58.8198L72.5235 61.4761H74.4766Z" fill="white"/>
</svg>
