<svg width="100" height="100" viewBox="0 0 100 100" fill="none" xmlns="http://www.w3.org/2000/svg">
<rect width="100" height="100" fill="#F3FAFF"/>
<circle cx="50" cy="42.9048" r="21.1494" stroke="#032348" stroke-width="1.51067"/>
<path fill-rule="evenodd" clip-rule="evenodd" d="M68.3803 53.731L50.0005 22.0068L31.6206 53.731H68.3803ZM59.01 37.869L50.0003 53.3706L40.9905 37.869H59.01Z" fill="#032348"/>
<path d="M10 78.9227L13.8166 68.7987H15.2334L19.3007 78.9227H17.8026L16.6434 75.8565H12.4879L11.3965 78.9227H10ZM12.8675 74.7654H16.2367L15.1995 71.9616C14.8831 71.1099 14.6481 70.4101 14.4945 69.8622C14.3679 70.5113 14.1894 71.1559 13.9589 71.7958L12.8675 74.7654Z" fill="#032348"/>
<path d="M21.3385 78.9227V68.7987H22.6536V77.728H27.548V78.9227H21.3385Z" fill="#032348"/>
<path d="M36.6834 68.7987H37.9985V74.648C37.9985 75.6654 37.8855 76.4734 37.6596 77.0719C37.4336 77.6704 37.0246 78.1584 36.4326 78.536C35.8451 78.9089 35.0723 79.0953 34.1142 79.0953C33.1832 79.0953 32.4217 78.9319 31.8296 78.605C31.2376 78.2781 30.8151 77.8062 30.562 77.1893C30.3089 76.5678 30.1824 75.7207 30.1824 74.648V68.7987H31.4975V74.6411C31.4975 75.5204 31.5766 76.1695 31.7347 76.5885C31.8974 77.0029 32.1731 77.3228 32.5618 77.5484C32.955 77.774 33.434 77.8868 33.9989 77.8868C34.9661 77.8868 35.6552 77.6635 36.0665 77.2169C36.4778 76.7704 36.6834 75.9117 36.6834 74.6411V68.7987Z" fill="#032348"/>
<path d="M41.1955 78.9227V68.7987H43.1749L45.5272 75.967C45.7442 76.6345 45.9023 77.1341 46.0018 77.4655C46.1147 77.0972 46.291 76.5563 46.5305 75.8427L48.9099 68.7987H50.6793V78.9227H49.4116V70.4492L46.5237 78.9227H45.3374L42.4631 70.3042V78.9227H41.1955Z" fill="#032348"/>
<path d="M54.066 78.9227V68.7987H55.3811V78.9227H54.066Z" fill="#032348"/>
<path d="M58.734 78.9227V68.7987H60.083L65.3028 76.7473V68.7987H66.5637V78.9227H65.2147L59.9949 70.9671V78.9227H58.734Z" fill="#032348"/>
<path d="M69.8217 78.9227V68.7987H73.2451C74.0179 68.7987 74.6077 68.847 75.0144 68.9437C75.5838 69.0772 76.0697 69.3189 76.4719 69.6688C76.9961 70.12 77.387 70.6978 77.6446 71.4022C77.9068 72.102 78.0378 72.9031 78.0378 73.8054C78.0378 74.5743 77.9497 75.2557 77.7734 75.8496C77.5972 76.4435 77.3712 76.9361 77.0956 77.3274C76.8199 77.7142 76.5171 78.0203 76.1872 78.2459C75.8618 78.4669 75.4663 78.6349 75.0008 78.75C74.5399 78.8651 74.0089 78.9227 73.4078 78.9227H69.8217ZM71.1368 77.728H73.2587C73.914 77.728 74.4269 77.6658 74.7975 77.5415C75.1726 77.4172 75.4709 77.2423 75.6923 77.0167C76.0041 76.699 76.2459 76.2731 76.4176 75.7391C76.5939 75.2004 76.682 74.549 76.682 73.7847C76.682 72.7258 76.5103 71.9132 76.1668 71.347C75.8279 70.7761 75.4144 70.3939 74.9263 70.2006C74.5738 70.0625 74.0066 69.9934 73.2248 69.9934H71.1368V77.728Z" fill="#032348"/>
<path d="M80.4959 73.9919C80.4959 72.3115 80.9388 70.9971 81.8246 70.0487C82.7103 69.0956 83.8537 68.6191 85.2547 68.6191C86.1721 68.6191 86.9992 68.8424 87.7358 69.289C88.4725 69.7356 89.0329 70.3594 89.417 71.1605C89.8057 71.957 90 72.8616 90 73.8745C90 74.9012 89.7966 75.8197 89.3899 76.6299C88.9832 77.4402 88.4069 78.0548 87.6613 78.4738C86.9156 78.8882 86.1111 79.0953 85.2479 79.0953C84.3124 79.0953 83.4764 78.8651 82.7397 78.4047C82.0031 77.9444 81.4449 77.3159 81.0653 76.5194C80.6857 75.723 80.4959 74.8805 80.4959 73.9919ZM81.8517 74.0126C81.8517 75.2327 82.1725 76.1949 82.8143 76.8993C83.4606 77.5991 84.2695 77.949 85.2412 77.949C86.2309 77.949 87.0444 77.5945 87.6816 76.8855C88.3233 76.1765 88.6442 75.1705 88.6442 73.8676C88.6442 73.0435 88.5064 72.3253 88.2307 71.713C87.9595 71.096 87.5596 70.6195 87.0308 70.2835C86.5066 69.9428 85.9168 69.7724 85.2615 69.7724C84.3305 69.7724 83.5283 70.0993 82.855 70.7531C82.1861 71.4022 81.8517 72.4887 81.8517 74.0126Z" fill="#032348"/>
</svg>
