<svg width="100" height="100" viewBox="0 0 100 100" fill="none" xmlns="http://www.w3.org/2000/svg">
<rect width="100" height="100" fill="#28ACE3"/>
<path d="M30.7398 54.3691C30.7398 56.8132 30.7624 59.1616 30.7327 61.5093C30.7089 63.3838 30.75 65.2361 31.8108 67.0704C29.2221 67.0704 26.797 67.0897 24.3733 67.0407C24.1281 67.0357 23.7995 66.6606 23.6701 66.3826C23.4175 65.8402 23.2785 65.2448 23.0683 64.5969C22.8855 64.7301 22.688 64.8631 22.5025 65.011C18.8024 67.9608 14.6649 68.2748 10.4201 66.6568C8.0667 65.7597 6.93949 63.721 7.0025 61.1235C7.0637 58.6008 8.22232 56.741 10.5915 55.9477C12.864 55.1867 15.2497 54.7658 17.581 54.1772C18.9175 53.8397 20.2558 53.5011 21.5694 53.0873C21.9671 52.962 22.6125 52.5288 22.5794 52.3313C22.4707 51.6824 22.1746 51.0284 21.8019 50.4766C21.6311 50.2237 21.1232 50.1548 20.7527 50.0872C18.182 49.6181 16.7538 50.2665 15.4273 52.5173C12.9112 52.255 10.3665 51.9896 7.70514 51.712C7.95704 49.915 8.6347 48.4622 9.95725 47.3247C11.7642 45.7707 13.9821 45.2716 16.2371 45.2107C18.9895 45.1364 21.7719 45.1812 24.502 45.5052C28.6962 46.003 30.4447 48.83 30.731 52.7295C30.7686 53.2415 30.7385 53.7584 30.7398 54.3691ZM22.5859 59.3553C22.5859 58.559 22.5859 57.7628 22.5859 56.9146C20.7849 57.4562 19.0003 57.9716 17.2325 58.5392C16.7851 58.6828 16.3392 58.9319 15.9819 59.2371C14.7447 60.2938 15.1525 62.3467 16.7068 62.8037C18.9273 63.4566 22.1623 62.2016 22.5859 59.3553Z" fill="white"/>
<path d="M65.1679 66.6944C60.6207 65.5154 57.6675 62.8038 56.7106 58.2152C55.2757 51.3349 59.91 45.276 66.9322 44.6876C69.9651 44.4334 72.92 44.6435 75.653 46.084C78.9804 47.8377 80.7707 50.6835 81.1289 54.3943C81.5012 58.252 80.5571 61.6805 77.4947 64.2834C74.5802 66.7604 71.0971 67.2455 67.4393 67.0154C66.7051 66.9692 65.9775 66.8153 65.1679 66.6944ZM64.827 57.0391C64.8668 57.3253 64.8988 57.6128 64.9475 57.8974C65.3065 59.9935 66.8336 61.4401 68.7413 61.4955C70.7252 61.5531 72.2833 60.3169 72.6431 58.1182C72.8681 56.7435 72.9219 55.2907 72.7468 53.9118C72.4563 51.6256 70.8448 50.2578 68.8303 50.284C66.8138 50.3103 65.2258 51.8243 64.9289 54.0894C64.8086 55.0068 64.8319 55.9429 64.827 57.0391Z" fill="white"/>
<path d="M51.5772 59.0881C51.934 60.4613 52.4248 60.8009 53.7391 60.6627C54.5356 60.5789 55.3321 60.4955 56.2075 60.4036C56.2075 62.6216 56.2075 64.7864 56.2075 67.2227C54.3281 67.2227 52.4502 67.2354 50.5727 67.2151C49.996 67.2089 49.4156 67.1421 48.8449 67.0525C45.1318 66.4695 43.3776 64.5329 43.3083 60.748C43.233 56.6314 43.2703 52.5128 43.2622 48.395C43.2583 46.4325 43.283 44.4697 43.2508 42.5078C43.2415 41.944 43.4346 41.651 43.933 41.3912C46.327 40.1437 48.698 38.852 51.079 37.5796C51.183 37.524 51.3055 37.5034 51.5283 37.4312C51.5283 40.0011 51.5283 42.4902 51.5283 45.075C53.0509 45.075 54.4843 45.075 55.9791 45.075C55.9791 47.1118 55.9791 49.0517 55.9791 51.1059C54.5182 51.1059 53.089 51.1059 51.5671 51.1059C51.5671 53.8133 51.5671 56.4082 51.5772 59.0881Z" fill="white"/>
<path d="M35.5761 66.7524C34.5463 66.8877 33.5971 67.0101 32.5605 67.1437C32.5605 57.2022 32.5605 47.3821 32.5605 37.4443C33.96 38.1713 35.3405 38.882 36.7149 39.6044C37.8803 40.2169 39.0577 40.8109 40.1865 41.4854C40.4684 41.6539 40.7495 42.1001 40.7511 42.42C40.7828 48.6886 40.7897 54.9574 40.762 61.226C40.7531 63.2445 39.8401 64.8267 38.0696 65.812C37.3241 66.2269 36.4644 66.4365 35.5761 66.7524ZM33.0675 38.9613C33.0641 38.865 33.0641 38.7684 33.0553 38.6726C33.0527 38.6443 33.0289 38.6152 33.0083 38.5922C32.9963 38.5788 32.9714 38.5769 32.9382 38.5646C32.9382 47.6817 32.9382 56.7934 32.9382 65.9051C32.9813 65.9051 33.0244 65.905 33.0676 65.905C33.0676 56.9783 33.0676 48.0516 33.0675 38.9613Z" fill="white"/>
<path d="M81.1084 42.5797C80.2598 43.1521 80.5258 42.1733 80.1908 41.9012C79.8287 41.9926 79.4346 42.1271 79.03 42.1781C78.852 42.2006 78.6526 42.0533 78.4629 41.983C78.591 41.805 78.6819 41.5394 78.8545 41.466C79.3211 41.2675 79.8226 41.1509 80.3402 40.9926C80.2643 40.8855 80.204 40.815 80.1601 40.7355C80.0521 40.5404 79.9517 40.3411 79.8483 40.1435C80.0993 40.1255 80.4164 40.0009 80.5895 40.1083C81.2536 40.5202 81.896 40.7726 82.7569 40.2213C82.4234 40.0258 82.1425 39.8612 81.7697 39.6285C81.5544 39.4971 81.4311 39.4339 81.3077 39.3707C81.2995 39.2571 81.2913 39.1435 81.3582 38.9302C81.922 39.0251 82.4689 39.1372 82.8869 39.4321C83.6751 39.9883 84.4302 40.0672 85.2767 39.5541C84.8147 38.8558 84.2688 38.4079 83.3239 38.511C82.7422 38.5745 82.135 38.4036 81.5393 38.3379C81.7616 37.2963 82.7296 38.1084 83.1954 37.6712C82.8306 36.41 81.5574 37.0818 80.6248 36.5676C80.9945 36.2674 81.2324 36.0742 81.5061 35.8518C81.1798 35.5406 80.8297 35.2564 80.5481 34.9156C80.4212 34.7622 80.4309 34.4958 80.3787 34.2807C80.5959 34.3012 80.8716 34.2449 81.0192 34.357C81.4227 34.6633 81.7721 35.0407 82.0891 35.3393C82.3326 35.0546 82.5413 34.8106 82.75 34.5666C82.8593 34.8634 83.0743 35.1662 83.0577 35.4558C83.0133 36.2288 83.3769 36.703 84.0669 37.1584C84.0669 36.7113 84.0212 36.3608 84.0812 36.0295C84.1305 35.7581 84.3058 35.5097 84.4252 35.2511C84.5686 35.524 84.7716 35.783 84.839 36.0735C84.9094 36.3772 84.8967 36.7202 84.8377 37.0303C84.6632 37.9478 85.1624 38.4585 85.863 38.8826C86.4353 38.0717 86.2574 37.3672 85.7263 36.6087C85.4335 36.1906 85.3551 35.6223 85.18 35.1217C86.0526 34.9329 85.9184 35.8432 86.3207 36.1682C86.3688 36.207 86.4056 36.2597 86.4929 36.3558C86.8899 35.7231 86.8936 35.1492 86.4971 34.5268C86.3486 34.2936 86.3437 33.9689 86.2732 33.6859C86.5694 33.721 86.8655 33.7561 87.1992 33.7956C87.6029 33.355 87.1877 32.2597 88.4168 32C88.2302 32.9061 88.0962 33.557 87.9459 34.2868C88.087 34.2501 88.1888 34.2003 88.2897 34.202C88.5117 34.2058 88.7333 34.2356 88.955 34.2548C88.8527 34.4565 88.8031 34.7499 88.6392 34.844C87.9177 35.2577 87.3011 35.7111 87.3739 36.645C87.9628 36.417 88.5565 36.1872 89.2033 36.0617C89.2442 36.304 89.2321 36.442 89.1552 36.5961C88.6237 36.8868 88.1859 37.2455 87.6841 37.4181C86.7339 37.7449 86.7857 38.4604 86.7671 39.1942C87.7443 39.2119 88.3268 38.7773 88.6606 37.9386C88.8361 37.4978 89.1019 37.0929 89.3597 36.6711C89.3924 36.6704 89.4362 36.6218 89.4362 36.6218C89.8912 36.6799 90.0752 36.8821 89.8287 37.333C89.6628 37.6363 89.5121 37.948 89.3377 38.289C90.2731 38.5507 90.6046 37.9958 90.9411 37.3775C91.0545 37.1693 91.3356 37.0524 91.5401 36.8938C91.6287 37.1421 91.7174 37.3905 91.8598 37.7893C92.3527 38.0269 93.1402 36.8926 94.0001 37.9027C93.2097 38.1717 92.5864 38.3837 91.899 38.6176C91.9679 38.7234 92.042 38.8084 92.0835 38.9071C92.1704 39.1135 92.24 39.3272 92.3167 39.5379C92.0888 39.5355 91.8159 39.614 91.641 39.5166C90.949 39.1312 90.2844 38.7366 89.52 39.4443C89.8552 39.6405 90.2298 39.8175 90.5501 40.0648C90.715 40.1921 90.7833 40.4445 90.8953 40.6403C90.6772 40.668 90.4399 40.7632 90.2455 40.7078C89.9433 40.6215 89.6703 40.4328 89.2766 40.2135C88.4401 39.5598 87.7076 39.5441 86.7367 40.2131C87.3446 40.5369 87.8133 40.7867 88.2821 41.0364C88.828 41.0397 89.3776 41.0078 89.9183 41.0627C90.1571 41.0869 90.3779 41.2872 90.6069 41.4076C90.3949 41.5401 90.1969 41.7422 89.9676 41.7884C89.6416 41.8541 89.2925 41.8051 88.8559 41.8051C89.2491 42.5423 89.7219 42.8363 90.4528 42.801C90.7437 42.787 91.0455 42.9971 91.3424 43.1052C91.2049 43.3673 91.0675 43.6294 90.93 43.8916C90.8424 43.8178 90.7548 43.744 90.6672 43.6702C91.0191 44.0347 91.3924 44.3817 91.7105 44.7735C91.8155 44.9028 91.7781 45.1477 91.8058 45.3397C91.608 45.3348 91.3479 45.4086 91.2238 45.3105C90.8001 44.9757 90.4242 44.5803 89.9462 44.1287C89.8987 44.3065 89.8929 44.4204 89.8404 44.5056C89.7261 44.6912 89.588 44.8623 89.4597 45.0392C89.3349 44.8443 89.1037 44.6492 89.1039 44.4544C89.105 43.6631 89.0941 42.9093 88.1046 42.4876C88.1046 42.9818 88.1283 43.4415 88.0979 43.8975C88.0668 44.3642 87.8665 44.5681 87.387 44.0723C87.34 43.4646 87.2894 42.978 87.3464 42.5044C87.454 41.6103 87.0532 41.062 86.2886 40.6833C85.832 41.5166 85.8474 42.2601 86.4602 42.9918C86.744 43.3307 86.927 43.7542 87.1557 44.1393C86.9627 44.7617 86.6558 44.6323 86.358 44.2372C86.131 43.936 85.9537 43.5974 85.7116 43.2066C85.3214 43.9142 85.2764 44.4925 85.7261 45.1126C85.8803 45.3252 85.8481 45.673 85.901 45.959C85.6223 45.9152 85.3436 45.8714 84.9818 45.8146C84.8822 46.1807 84.7791 46.6754 84.6023 47.1423C84.5439 47.2965 84.2955 47.3787 84.1339 47.4939C84.0448 47.313 83.8588 47.1168 83.8845 46.954C83.9676 46.4257 84.1283 45.9096 84.2405 45.4632C83.8708 45.4225 83.5651 45.3889 83.2593 45.3552C83.4617 45.0863 83.6092 44.722 83.8774 44.5678C84.4949 44.2126 84.833 43.7616 84.7748 42.9377C84.2221 43.2175 83.7261 43.4686 83.138 43.6716C83.0155 43.44 82.985 43.2565 83.0144 43.0453C83.4879 42.7804 83.8855 42.5073 84.3186 42.3136C85.1774 41.9295 85.5177 41.2858 85.4516 40.3971C84.476 40.3782 83.8607 40.8107 83.5139 41.6825C83.3392 42.1216 83.0692 42.5228 82.7743 42.9456C81.8494 42.6901 82.5917 42.2271 82.6083 41.8165C82.7589 41.56 82.8693 41.3484 82.9798 41.1369C82.919 41.0686 82.8582 41.0002 82.7975 40.9318C82.356 41.2729 81.9144 41.6139 81.423 41.9914C81.2849 42.2119 81.1967 42.3958 81.1084 42.5797Z" fill="white"/>
</svg>
