<svg width="100" height="100" viewBox="0 0 100 100" fill="none" xmlns="http://www.w3.org/2000/svg">
<rect width="100" height="100" fill="#131414"/>
<path d="M40.6814 43.1372L35.2969 39.4095L49.9999 29.2305L64.9954 39.612L59.1819 43.6366L49.5667 37.0571L40.6814 43.1372Z" fill="#E42B29"/>
<path d="M20 49.9997L33.071 59.0488L38.2655 55.4526L30.4748 50.1215L38.4426 44.6692L33.071 40.9504L20 49.9997Z" fill="#E42B29"/>
<path d="M35.2969 60.5899L49.9999 70.7689L64.9954 60.3874L59.359 56.4852L49.5667 63.186L40.5045 56.9846L35.2969 60.5899Z" fill="#E42B29"/>
<path d="M80 49.9997L67.2215 41.1531L61.4208 45.1688L68.6586 50.1215L61.598 54.953L67.2215 58.8463L80 49.9997Z" fill="#E42B29"/>
<path d="M63.5674 50.1215L49.5667 40.4285L35.566 50.1215L49.5667 59.8145L63.5674 50.1215Z" fill="#E42B29"/>
<path fill-rule="evenodd" clip-rule="evenodd" d="M50 92C73.196 92 92 73.196 92 50C92 26.804 73.196 8 50 8C26.804 8 8 26.804 8 50C8 73.196 26.804 92 50 92ZM50 88.106C44.7377 88.106 39.7245 87.0394 35.1649 85.1104L41.6923 66.1534L38.8271 64.3724L31.8584 83.5188C23.8752 79.1888 17.6125 72.0901 14.3585 63.5107L27.814 56.9481L24.6154 54.6149L13.2213 60.0061C12.3558 56.8175 11.894 53.4627 11.894 50C11.894 43.483 13.5299 37.3482 16.4136 31.9837L31.5385 40.7688L34.7498 38.3006L18.3206 28.8153C24.8374 19.0895 35.7142 12.5313 48.1538 11.9379V28.7688L50 27.3842L51.8462 28.7688V11.9379C64.3231 12.5331 75.2278 19.1288 81.7378 28.9028L65.4603 38.3006L68.6716 40.7688L83.6363 32.0767C86.4889 37.4191 88.106 43.5207 88.106 50C88.106 52.8386 87.7957 55.6047 87.207 58.2662L76.7625 53.6919L73.5639 56.025L86.2381 61.8175C83.1953 71.1544 76.6444 78.907 68.1418 83.5187L61.1732 64.3724L58.3079 66.1534L64.8353 85.1103C60.2756 87.0393 55.2624 88.106 50 88.106Z" fill="#E8B620"/>
</svg>
