<svg width="100" height="100" viewBox="0 0 100 100" fill="none" xmlns="http://www.w3.org/2000/svg">
<rect width="100" height="100" fill="white"/>
<path d="M33.617 34.8085L50 26.4681L66.383 34.8085V43.1489L50 34.8085L33.617 43.1489V34.8085Z" fill="#C21922"/>
<path d="M33.617 49.1064L50 40.766L66.383 49.1064V57.4468L50 49.1064L33.617 57.4468V49.1064Z" fill="#C21922"/>
<path d="M33.617 63.4043L50 55.0638L66.383 63.4043V71.7447L50 63.4043L33.617 71.7447V63.4043Z" fill="#C21922"/>
<path d="M25.8723 15.6175C15.0634 23.2166 8 35.7834 8 50C8 73.196 26.804 92 50 92C73.196 92 92 73.196 92 50C92 35.7834 84.9365 23.2166 74.1277 15.6175V25.5465C80.4403 31.7755 84.3529 40.4308 84.3529 50C84.3529 68.9726 68.9726 84.3529 50 84.3529C31.0274 84.3529 15.6471 68.9726 15.6471 50C15.6471 40.4308 19.5597 31.7755 25.8723 25.5465V15.6175Z" fill="#C21922"/>
<path d="M33.617 19.7979V11.3153C38.6511 9.18067 44.1877 8 50 8C55.8123 8 61.3489 9.18067 66.383 11.3153V19.7979C61.5134 17.1508 55.9323 15.6471 50 15.6471C44.0677 15.6471 38.4866 17.1509 33.617 19.7979Z" fill="#C21922"/>
</svg>
