<svg width="100" height="100" viewBox="0 0 100 100" fill="none" xmlns="http://www.w3.org/2000/svg">
<g clip-path="url(#clip0_23_655)">
<rect width="100" height="100" fill="#E6F8FD"/>
<path d="M62.7455 56.8707C62.6652 57.087 62.5435 57.4153 62.4143 57.4183C60.9658 57.4521 59.516 57.4428 58.067 57.4209C57.941 57.419 57.8176 57.2453 57.693 57.1514C57.798 57.0321 57.8897 56.826 58.0102 56.8075C58.7894 56.6881 58.8973 56.1518 58.8958 55.5084C58.8899 52.9995 58.8937 50.4906 58.8916 47.9817C58.8914 47.7852 58.8805 47.588 58.8617 47.3924C58.7482 46.2073 58.1909 45.5197 57.251 45.3984C55.8443 45.2169 54.8213 45.725 54.4643 46.8849C54.2868 47.4619 54.2184 48.0913 54.2106 48.6984C54.1819 50.9363 54.2013 53.1749 54.1978 55.4132C54.1966 56.1378 54.1946 56.8442 55.2238 56.8335C55.3202 56.8326 55.5139 57.0378 55.4962 57.1001C55.4574 57.2366 55.3215 57.3536 55.2052 57.4558C55.1619 57.4938 55.0627 57.4711 54.9891 57.4712C53.7107 57.4717 52.4319 57.4882 51.1544 57.4553C50.9364 57.4496 50.7238 57.2319 50.5087 57.1121C50.6758 56.962 50.8226 56.7221 51.014 56.6786C51.5962 56.5461 51.7625 56.1322 51.7645 55.643C51.7756 52.9377 51.8085 50.2312 51.7398 47.5275C51.7044 46.1331 51.007 45.4404 49.8807 45.3849C48.3613 45.3101 47.4733 45.9417 47.2023 47.3255C47.1179 47.757 47.0738 48.203 47.0714 48.6427C47.0589 50.9302 47.0699 53.2177 47.0634 55.5052C47.0614 56.1962 47.1157 56.8118 48.0396 56.8248C48.1568 56.8265 48.2714 57.0174 48.3871 57.1207C48.2554 57.236 48.1254 57.4492 47.9916 57.4516C46.6154 57.4764 45.2383 57.4793 43.8622 57.4512C43.6981 57.4478 43.5386 57.2235 43.377 57.1016C43.5016 56.9717 43.6099 56.7534 43.7537 56.7267C44.5096 56.5865 44.6573 56.0504 44.6586 55.4185C44.6642 52.639 44.6565 49.8595 44.6652 47.0801C44.6668 46.5914 44.5378 46.2664 43.98 46.2448C43.8243 46.2388 43.672 46.1461 43.2749 46.0095C44.489 45.2782 45.5327 44.6495 46.7065 43.9424C46.7532 44.6828 46.7929 45.3111 46.8414 46.079C48.019 45.1026 49.0599 44.1989 50.531 44.0951C52.0937 43.985 53.0878 44.9069 54.0328 46.0117C54.3648 45.7525 54.6286 45.4885 54.9421 45.3136C55.663 44.9115 56.3702 44.3998 57.1508 44.2056C59.304 43.6701 60.9843 44.8076 61.192 47.015C61.3757 48.9668 61.3145 50.942 61.3517 52.907C61.3661 53.6692 61.3524 54.432 61.3544 55.1945C61.358 56.5116 61.4275 56.595 62.7455 56.8707Z" fill="#072B5E"/>
<path d="M37.2371 56.8845C38.0349 56.7507 38.305 56.2858 38.3022 55.5725C38.2925 53.0396 38.2973 50.5066 38.2918 47.9737C38.2913 47.7782 38.2574 47.5822 38.2316 47.3874C38.0524 46.0368 37.506 45.4395 36.4036 45.3855C34.8976 45.3117 34.0418 45.9052 33.7583 47.2583C33.6683 47.6879 33.6185 48.1339 33.6159 48.5728C33.6023 50.9091 33.617 53.2455 33.6049 55.5818C33.6014 56.2646 33.6865 56.8234 34.5632 56.8269C34.6809 56.8274 34.7978 57.0215 34.9151 57.1259C34.7794 57.2398 34.6455 57.4503 34.5078 57.4527C33.1318 57.4773 31.7549 57.4798 30.3791 57.4516C30.2171 57.4483 30.0597 57.2235 29.9002 57.1013C30.0466 56.9633 30.1756 56.7358 30.3425 56.7034C30.9558 56.5841 31.1336 56.1831 31.1377 55.6391C31.1501 53.9918 31.1629 52.3444 31.1652 50.697C31.1695 47.5982 31.1688 44.4995 31.1649 41.4007C31.1638 40.5344 31.4729 39.486 29.8965 39.4863C29.9287 39.418 29.961 39.3497 29.9933 39.2813C31.1388 38.6502 32.2843 38.0191 33.5525 37.3203C33.5525 40.1692 33.5525 42.9455 33.5525 45.9519C33.9666 45.6352 34.2106 45.4674 34.4333 45.2748C35.3193 44.5089 36.3021 44.0303 37.5144 44.097C39.21 44.1904 40.2263 45.0058 40.53 46.6732C40.6699 47.4412 40.7084 48.2351 40.7174 49.0181C40.7418 51.1328 40.7228 53.2481 40.7269 55.3631C40.729 56.401 40.8409 56.5242 41.8147 56.7762C41.9672 56.8156 42.0848 56.9898 42.2186 57.1017C42.0828 57.2157 41.9484 57.4269 41.8111 57.4288C40.3624 57.4486 38.913 57.4445 37.4647 57.4087C37.3694 57.4064 37.2817 57.0921 37.2371 56.8845Z" fill="#082C5E"/>
<path d="M14.365 57.3431C14.0745 56.8812 14.38 56.8329 14.6958 56.7605C15.8106 56.5049 15.9149 56.3513 15.6448 55.2526C15.3577 54.0843 15.0334 52.9252 14.7404 51.7583C14.6166 51.265 14.3455 50.9796 13.82 50.9783C12.8607 50.9759 11.9001 50.9461 10.9433 50.9929C10.711 51.0042 10.3414 51.2291 10.2897 51.4235C9.94964 52.7019 9.61706 53.9888 9.40747 55.2931C9.25956 56.2136 9.52595 56.4631 10.4321 56.6638C10.5999 56.701 10.787 56.6948 10.934 56.7698C11.0847 56.8467 11.197 56.9987 11.3262 57.1178C11.1671 57.2354 11.0113 57.4477 10.8485 57.4531C10.3349 57.4702 9.81884 57.3875 9.30354 57.3849C8.59111 57.3814 7.87736 57.4442 7.16668 57.4159C6.958 57.4076 6.7578 57.1866 6.55371 57.0631C6.73036 56.9284 6.89121 56.7104 7.08637 56.6734C7.96291 56.5073 8.15857 55.7903 8.36158 55.1182C9.12117 52.6033 9.84839 50.0787 10.5859 47.5572C11.3165 45.0594 12.045 42.561 12.7739 40.0627C12.8015 39.9684 12.7979 39.8527 12.8531 39.781C13.0319 39.5486 13.2313 39.332 13.4228 39.1094C13.5932 39.3278 13.8428 39.5213 13.9208 39.7689C14.3557 41.1499 14.7466 42.5447 15.1572 43.9335C16.222 47.5348 17.286 51.1362 18.3574 54.7355C18.6286 55.6462 18.7854 56.6573 20.022 56.8124C20.1108 56.8236 20.1756 57.0267 20.2516 57.1405C20.0973 57.2251 19.9444 57.3796 19.7884 57.3828C18.8788 57.4012 17.9684 57.3838 17.0583 57.3793C16.1764 57.375 15.2946 57.3717 14.365 57.3431ZM13.1029 45.9186C12.9412 45.3793 12.7795 44.84 12.6092 44.2719C12.4378 44.3687 12.3699 44.3836 12.3606 44.4156C11.8629 46.1276 11.3603 47.8382 10.884 49.5562C10.7653 49.9841 11.062 50.1214 11.4332 50.1237C12.1194 50.1281 12.8058 50.1174 13.4919 50.1277C14.0544 50.1362 14.2453 49.8977 14.0832 49.3505C13.7567 48.248 13.4461 47.1407 13.1029 45.9186Z" fill="#072C5E"/>
<path d="M68.7715 57.834C66.5846 57.5327 65.1328 56.2897 64.3485 54.3935C63.2696 51.7852 63.3662 49.1392 64.8037 46.6677C66.8599 43.1326 71.0513 43.188 73.0893 46.7313C74.7449 49.6097 74.3745 53.8425 72.2369 56.1865C71.3311 57.1798 70.2542 57.8706 68.7715 57.834ZM70.8012 55.3251C71.6615 53.0801 71.724 50.7585 71.29 48.4407C71.1008 47.4305 70.7239 46.3994 70.1923 45.5235C69.5236 44.4218 68.2889 44.4924 67.511 45.5337C67.3222 45.7865 67.1431 46.0675 67.0448 46.3638C66.0553 49.3474 66.0206 52.3375 67.1116 55.2992C67.4138 56.1193 67.9158 56.8837 68.9228 56.9091C69.9039 56.9338 70.3554 56.185 70.8012 55.3251Z" fill="#062B5D"/>
<path d="M87.0694 52.3112C87.2509 53.4852 87.4893 54.7214 88.3096 55.5806C88.9912 56.2944 89.8101 56.5383 90.816 56.3502C91.8015 56.166 92.4836 55.5888 92.9412 54.6988C93.0559 54.4757 93.3249 54.3319 93.523 54.1517C93.5755 54.4383 93.7267 54.7486 93.6645 55.0078C93.2685 56.659 91.0167 58.0356 89.062 57.8709C87.4083 57.7316 86.2265 56.8594 85.3714 55.4931C83.7467 52.8971 83.9316 48.5083 85.7687 46.0552C86.7233 44.7806 87.9797 44.0603 89.5995 44.0504C91.3243 44.0398 92.6691 44.8967 93.2224 46.5288C93.5008 47.35 93.5916 48.2507 93.6572 49.1237C93.72 49.9579 93.5166 50.1147 92.6854 50.1185C91.0633 50.126 89.4408 50.1425 87.8192 50.1114C87.1229 50.0981 86.7842 50.3474 86.8833 51.0547C86.9419 51.4726 87.0043 51.8899 87.0694 52.3112ZM88.5734 45.1202C87.7091 45.9303 87.324 47.1379 87.0299 48.2853C87.0081 48.3701 86.9873 48.455 86.9675 48.5402C86.8696 48.9613 86.9872 49.3958 87.5056 49.3941C88.5049 49.391 89.5136 49.3678 90.4977 49.2174C90.8141 49.1691 91.2289 48.7384 91.3162 48.408C91.5796 47.4111 91.4534 46.4039 90.928 45.4957C90.3823 44.5526 89.3695 44.3739 88.5734 45.1202Z" fill="#072C5E"/>
<path d="M26.5245 53.4376C25.9437 52.8478 25.4304 52.2464 24.8094 51.7925C24.0597 51.2444 23.1851 50.8689 22.4236 50.3346C20.4882 48.9763 20.4801 46.3552 22.4137 44.98C24.0008 43.8512 25.787 43.8942 27.5774 44.3343C27.8243 44.395 28.0907 44.8311 28.143 45.1294C28.235 45.6545 28.2008 46.21 28.1548 46.7473C28.1332 46.9997 27.9613 47.2393 27.8576 47.4846C27.6226 47.2835 27.3262 47.122 27.1657 46.8728C26.8505 46.3835 26.687 45.7827 26.3233 45.3411C25.6423 44.514 24.2111 44.5536 23.4136 45.3404C22.6192 46.1241 22.6526 47.2985 23.5544 48.0681C24.0166 48.4625 24.5702 48.7511 25.0879 49.079C25.8136 49.5384 26.5871 49.9345 27.2635 50.457C28.4599 51.381 28.9816 52.6353 28.7973 54.1544C28.5885 55.8752 27.6092 56.9723 25.9989 57.5152C24.7078 57.9505 23.3832 57.9082 22.0643 57.6519C21.3688 57.5167 21.009 57.0796 21.0209 56.3482C21.0333 55.5858 20.9995 54.8218 21.0385 54.0611C21.0501 53.8359 21.2395 53.6197 21.3473 53.3994C21.5761 53.5492 21.9029 53.6468 22.0154 53.8583C22.3714 54.5279 22.6252 55.251 22.9606 55.9326C23.2681 56.5576 23.7523 56.9931 24.4818 57.0792C25.6054 57.2119 26.5101 56.6365 26.6824 55.5058C26.7813 54.8564 26.5997 54.1642 26.5245 53.4376Z" fill="#072B5E"/>
<path d="M76.3181 56.5211C76.479 56.0468 76.6835 55.6074 76.6892 55.1654C76.7209 52.7055 76.7045 50.245 76.7044 47.7847C76.7043 46.4971 76.7042 46.4971 75.3286 46.0114C76.5153 45.2916 77.564 44.6556 78.7665 43.9263C78.7665 44.8377 78.7665 45.62 78.7665 46.4023C78.8345 46.4311 78.9025 46.4598 78.9705 46.4886C79.1565 46.2993 79.3422 46.1098 79.5285 45.921C80.0084 45.4347 80.4345 44.8734 80.9818 44.4813C81.7041 43.9639 82.717 44.0944 83.2265 44.6332C83.7675 45.2053 83.9164 46.5912 83.3814 47.1742C83.1085 47.4717 82.6016 47.6589 82.184 47.6926C81.664 47.7347 81.3875 47.33 81.2536 46.816C81.1771 46.5222 80.9636 46.264 80.8118 45.9898C80.4968 46.2013 79.9984 46.3496 79.9 46.6356C79.5612 47.6203 79.2032 48.644 79.1437 49.6696C79.0271 51.6804 79.1046 53.7025 79.1061 55.7199C79.1066 56.3211 79.2629 56.7887 80.0001 56.8179C80.1411 56.8235 80.2744 57.023 80.4112 57.133C80.2275 57.2458 80.046 57.4521 79.8598 57.4564C78.6064 57.4854 77.3514 57.4907 76.0984 57.4545C75.862 57.4477 75.632 57.2203 75.399 57.0947C75.5968 56.9462 75.7901 56.791 75.9948 56.6528C76.0729 56.6 76.1775 56.5864 76.3181 56.5211Z" fill="#052A5D"/>
<rect x="6.89111" y="61.4985" width="86.8078" height="2.80501" fill="url(#paint0_linear_23_655)"/>
</g>
<defs>
<linearGradient id="paint0_linear_23_655" x1="6.89111" y1="63.4915" x2="93.6989" y2="63.4915" gradientUnits="userSpaceOnUse">
<stop stop-color="white"/>
<stop offset="1" stop-color="#02B2E3"/>
</linearGradient>
<clipPath id="clip0_23_655">
<rect width="100" height="100" fill="white"/>
</clipPath>
</defs>
</svg>
