<svg width="100" height="100" viewBox="0 0 100 100" fill="none" xmlns="http://www.w3.org/2000/svg">
<rect width="100" height="100" fill="white"/>
<g clip-path="url(#clip0_23_656)">
<path fill-rule="evenodd" clip-rule="evenodd" d="M28.1776 39.0021C27.2635 39.0021 26.7245 39.7755 26.7245 40.8536V49.2677C26.7245 50.3693 27.2635 51.1427 28.1776 51.1427C29.1151 51.1427 29.6542 50.3693 29.6542 49.2677V40.8536C29.6542 39.7755 29.1151 39.0021 28.1776 39.0021ZM35.4198 42.3536H34.7167V41.8614C34.7167 41.3458 34.9979 41.1583 35.7948 41.2286C36.5917 41.3224 36.7792 40.7833 36.7792 40.338C36.7792 39.9864 36.6854 39.7989 36.4276 39.5411C35.8885 38.9786 34.5526 39.0021 34.5526 39.0021C34.5526 39.0021 33.3573 38.9318 32.5135 39.6114C31.6932 40.2911 31.7635 41.4864 31.7635 41.4864V42.3536H31.6229C31.0839 42.3536 30.4979 42.6818 30.4979 43.4083C30.4979 44.1349 31.1542 44.463 31.6932 44.463H31.7635V49.5021C31.7635 50.3693 32.2557 51.1427 33.287 51.1427C34.2948 51.1427 34.7167 50.3693 34.7167 49.5255V44.463H35.4198C35.8182 44.463 36.6151 44.2755 36.6151 43.4552C36.6151 42.6114 36.0057 42.3536 35.4198 42.3536ZM39.8495 46.5724C39.8495 44.5802 40.8104 44.2286 41.4432 44.2286C41.4667 44.2286 41.5135 44.2286 41.537 44.2286C42.2635 44.2521 42.8495 44.7677 42.8495 46.6427C42.8495 48.4943 42.2401 48.8693 41.5839 48.8927C41.537 48.8927 41.4901 48.8927 41.4667 48.8927C40.7401 48.8927 39.8495 48.5646 39.8495 46.5724ZM44.4198 41.9318C43.9042 41.9318 43.5057 42.1427 43.2245 42.4943C42.6854 42.1193 42.0526 41.9318 41.3729 41.9318C41.3729 41.9318 41.3729 41.9318 41.3495 41.9318C38.162 41.9318 36.7792 44.3693 36.7792 46.6896C36.7792 49.1974 38.4667 51.1427 41.3729 51.1427C42.0526 51.1427 42.6854 50.9083 43.2245 50.5333C43.4823 50.9083 43.9042 51.1427 44.4198 51.1427C45.3807 51.1427 45.9667 50.3458 45.9667 49.2677V43.7833C45.9667 42.7052 45.3807 41.9318 44.4198 41.9318ZM19.2479 46.1739L20.4432 42.3302L21.6385 46.1739H19.2479ZM25.7167 48.7286C25.5526 48.2364 22.8573 40.5958 22.7167 40.2443C22.576 39.8693 22.4589 39.6114 22.1307 39.3771C21.5917 38.9786 20.4432 39.0021 20.4432 39.0021C20.4432 39.0021 19.2948 38.9786 18.7557 39.3771C18.451 39.6114 18.3104 39.8693 18.1698 40.2443C18.0292 40.5958 15.3573 48.2364 15.1698 48.7286C15.0057 49.2208 14.8885 49.8068 15.1698 50.2755C15.4745 50.7677 15.9667 51.1427 16.6464 51.1427C17.3026 51.1427 17.912 50.8614 18.1698 50.0411C18.4042 49.2208 18.5214 48.8224 18.5214 48.8224H22.3651C22.3651 48.8224 22.4823 49.2208 22.7401 50.0411C22.9745 50.8614 23.5839 51.1427 24.2401 51.1427C24.9198 51.1427 25.4354 50.7677 25.7167 50.2755C25.9979 49.8068 25.8807 49.2208 25.7167 48.7286Z" fill="#005DA6"/>
<path fill-rule="evenodd" clip-rule="evenodd" d="M59.7949 41.9316C58.1309 41.9316 56.5137 44.2051 55.9278 45.0723C55.9746 44.8613 56.0215 44.5801 56.0918 44.2285C56.2324 43.6426 56.3028 42.8223 55.9278 42.3535C55.7168 42.0723 55.3887 41.9316 54.9434 41.9316C53.3965 41.9316 51.8965 43.9238 51.2403 44.9082C51.3106 44.6035 51.4043 44.2754 51.4746 44.041C51.5684 43.5723 51.7559 42.8223 51.4512 42.377C51.2637 42.1426 50.959 42.002 50.5137 42.002C49.7871 42.002 48.9903 42.3301 48.9434 42.3535L48.7793 42.4238L48.9434 42.5176C48.9434 42.5176 49.1543 42.7285 48.9903 43.9238C48.709 46.0098 48.0293 48.5176 47.7481 49.4785C47.584 50.0176 47.6309 50.416 47.8418 50.7207C48.0528 50.9785 48.4043 51.1426 48.8731 51.1426C49.5528 51.1426 50.1621 50.8848 50.1856 50.8848L50.2793 50.8379L50.2324 50.7441C50.209 50.7441 49.8809 50.2051 50.3262 49.2207C51.8496 45.7285 53.0918 44.3457 53.4434 44.1113C53.5137 44.0645 53.584 44.041 53.6309 44.041C53.6543 44.041 53.6778 44.041 53.6778 44.0645C53.7246 44.0879 53.7246 44.1582 53.7246 44.252C53.584 45.4473 53.0918 47.4863 52.7637 48.8457C52.6934 49.127 52.6231 49.3848 52.5996 49.5957C52.459 50.1113 52.5059 50.5098 52.7168 50.791C52.8809 51.0254 53.209 51.1426 53.6309 51.1426C54.334 51.1426 54.9434 50.8848 54.9668 50.8848L55.084 50.8145L54.9903 50.7207C54.9903 50.7207 54.6621 50.2754 55.1309 49.1973C56.2559 46.502 57.8028 44.416 58.2012 44.1348C58.3184 44.041 58.3887 44.0176 58.4356 44.0176C58.459 44.0176 58.459 44.0176 58.4824 44.041C58.5293 44.0879 58.5293 44.2051 58.5059 44.3223C58.5059 44.3926 58.459 44.5566 58.4121 44.8145C58.2012 45.7285 57.8028 47.6504 57.5684 48.9629C57.4278 49.7598 57.5215 50.3457 57.8028 50.7207C58.0371 51.002 58.3887 51.1426 58.8574 51.1426C59.6074 51.1426 60.334 50.6504 60.3809 50.627L60.4746 50.5566L60.3809 50.4863C60.3809 50.4629 59.8184 49.9473 60.0996 48.377C60.2871 47.3457 60.5449 46.127 60.709 45.2598C60.8028 44.8145 60.8731 44.4629 60.9199 44.2754L60.9434 44.1816C61.0137 43.7129 61.2012 42.8457 60.7793 42.3301C60.5684 42.0723 60.2403 41.9316 59.7949 41.9316ZM64.5528 49.0566C64.3184 49.0566 64.2012 48.6348 64.2012 48.2363C64.2012 47.791 64.4356 45.1895 65.5371 43.8535C65.7715 43.5723 66.0528 43.4316 66.334 43.4316C67.0371 43.4316 67.6934 44.1816 67.8574 44.3691C67.0137 46.1035 65.8184 47.9316 64.9746 48.7988C64.8106 48.9629 64.6699 49.0566 64.5528 49.0566ZM69.4512 42.0254C68.959 42.0254 68.584 42.166 68.3262 42.4004C67.8106 42.0957 67.2012 41.9316 66.6153 41.9316C66.1231 41.9316 65.3965 42.0254 64.5762 42.541C63.709 43.1035 62.9356 43.9941 62.3262 45.2363C60.9199 48.002 61.5762 50.0176 61.9278 50.4863C62.2324 50.9316 62.6778 51.1426 63.2871 51.1426C64.1309 51.1426 65.3028 50.7676 67.0606 48.002C67.0137 48.377 66.9434 48.9395 66.9434 49.4082C66.9434 50.9082 67.9981 51.0723 68.4434 51.0723C69.5684 51.0723 69.9668 50.5566 69.9668 50.5332L70.0137 50.4629L69.9668 50.416C69.9668 50.416 69.4512 49.8535 69.7793 47.041C70.1074 44.3691 71.0449 42.5176 71.0449 42.4941L71.0918 42.4004L70.9981 42.3535C70.9746 42.3535 70.2012 42.0254 69.4512 42.0254ZM78.2637 41.9316C76.9981 41.9316 75.4981 43.9941 74.8653 44.9551C74.9824 44.5332 75.1231 43.9238 75.2403 43.3613C75.3106 42.9395 75.2637 42.6113 75.0996 42.377C74.8887 42.1426 74.5606 42.0254 74.0449 42.0254C73.3418 42.0254 72.4746 42.3301 72.4512 42.3535L72.3106 42.4004L72.4043 42.4941C72.4043 42.4941 72.6621 42.8223 72.4981 43.9707C72.3106 45.2129 71.5371 48.3301 71.1856 49.5723C71.0449 50.0645 71.0684 50.4629 71.2559 50.7207C71.5371 51.0957 72.0996 51.1426 72.4746 51.1426C73.1074 51.1426 73.7637 50.8848 73.8106 50.8848L73.9043 50.8379L73.834 50.7441C73.834 50.7441 73.5293 50.252 73.9043 49.3379C74.8418 46.9473 75.9199 45.541 76.5293 45.0723C76.6934 44.9785 76.834 44.9082 76.9746 44.9082C77.3262 44.9082 77.5371 45.2832 77.5606 45.2832L77.6074 45.377L77.7012 45.3066C78.0293 44.9785 78.6153 44.2754 78.8496 43.6426C78.9903 43.2676 79.1778 42.5879 78.8965 42.2129C78.7793 42.0254 78.5449 41.9316 78.2637 41.9316ZM85.2012 43.0332C84.8496 43.1738 84.0059 43.2441 82.8574 43.2441C82.7403 43.2441 82.6231 43.2441 82.5528 43.2441C82.6231 42.9395 82.8106 42.1191 83.0449 41.3457C83.1856 40.8301 83.1621 40.4551 82.9746 40.1973C82.7871 39.9629 82.459 39.8457 81.9668 39.8457C81.2871 39.8457 80.2793 40.1738 80.2324 40.1738L80.0918 40.2207L80.209 40.3379C80.6074 40.7363 80.209 42.6113 79.9981 43.3145C79.9981 43.3379 79.0371 47.0879 79.0371 48.8926C79.0371 50.3926 79.834 51.1426 81.4043 51.1426C82.1543 51.1426 83.1856 50.9082 83.9121 50.2988C84.2168 50.0176 84.3574 49.666 84.2871 49.2441C84.2637 49.0332 84.1934 48.8457 84.0762 48.6816L84.0293 48.5879L83.9356 48.6582C83.9356 48.6582 83.6074 48.9629 82.9746 49.1973C82.7168 49.291 82.5293 49.3145 82.3418 49.3145C82.1309 49.3145 81.9668 49.2441 81.8028 49.1035C81.4278 48.7285 81.6621 47.3926 81.7559 46.9473C81.8731 46.291 82.1543 45.0254 82.2246 44.6973C82.4356 44.6973 82.6699 44.6973 82.9043 44.6973C83.1153 44.6973 83.3496 44.6973 83.5606 44.6973C84.9199 44.7441 85.2949 43.6895 85.3184 43.127V42.9863L85.2012 43.0332Z" fill="#EA1D2D"/>
<path fill-rule="evenodd" clip-rule="evenodd" d="M81.2637 60.2129H15.0059V61.5957H81.2637C83.3027 61.5957 84.9902 60.1426 85.3184 58.2441C84.334 59.4863 82.8574 60.2129 81.2871 60.2129H81.2637Z" fill="#FFD200"/>
<path fill-rule="evenodd" clip-rule="evenodd" d="M85.3184 54.8223V53.6504H19.1074C16.834 53.6504 15.0059 55.5488 15.0059 57.916V59.0879H81.2168C83.4902 59.0879 85.3184 57.1895 85.3184 54.8223Z" fill="#EA1D2D"/>
</g>
<defs>
<clipPath id="clip0_23_656">
<rect width="70.3125" height="70.3125" fill="white" transform="translate(15 15)"/>
</clipPath>
</defs>
</svg>
