<svg width="100" height="100" viewBox="0 0 100 100" fill="none" xmlns="http://www.w3.org/2000/svg">
<rect width="100" height="100" fill="#E2FBF5"/>
<path d="M48.7494 28.4306C48.6852 28.6781 48.4836 29.3656 48.2911 29.9706C47.9244 31.1256 47.5119 33.179 47.4111 34.279C47.3286 35.2323 46.9252 37.5606 46.8244 37.6615C46.6686 37.8173 45.6694 37.3131 43.9369 36.204C43.5336 35.9473 43.0202 35.6631 42.7911 35.5715C42.5619 35.4798 42.3327 35.3698 42.2869 35.3331C42.1127 35.1956 40.7469 34.6915 40.1511 34.554C39.1519 34.3156 37.5294 34.4073 36.4661 34.7465C36.2369 34.8198 35.8061 34.939 35.5036 35.0215C35.2011 35.0948 34.8711 35.214 34.7702 35.2781C34.6694 35.3423 34.4677 35.4248 34.3119 35.4615C33.5786 35.6265 33.2852 35.929 33.7252 36.039C33.8352 36.0756 34.1011 36.1856 34.3119 36.2956C34.5227 36.4148 35.1827 36.6531 35.7877 36.8365C36.3836 37.029 37.1444 37.2765 37.4744 37.414C37.8044 37.5423 38.2994 37.7256 38.5744 37.8265C38.8494 37.9365 39.1886 38.1015 39.3261 38.2115C39.4636 38.3215 39.7661 38.5506 40.0136 38.7248C40.2519 38.899 40.4719 39.0731 40.4994 39.1006C40.5269 39.1281 40.7744 39.3481 41.0494 39.5865C43.1302 41.3923 43.0936 41.3556 42.9744 41.5665C42.9194 41.6673 42.7819 41.759 42.6719 41.7681C42.5619 41.7773 42.3052 41.7865 42.1036 41.7956C41.9019 41.8048 41.3702 41.8598 40.9119 41.924C40.4627 41.979 39.5919 42.0706 38.9869 42.1165C37.5386 42.2356 36.8144 42.3456 36.5761 42.474C36.4752 42.529 36.0261 42.6756 35.5769 42.7948C35.1369 42.914 34.4861 43.1431 34.1469 43.299C33.7986 43.464 33.4227 43.629 33.2944 43.6748C32.8819 43.8398 30.9386 45.1965 30.3702 45.7281C28.5002 47.4698 28.5277 47.4515 28.8119 47.4056C28.9677 47.3781 29.5636 47.1856 30.1411 46.9748C32.6802 46.0581 33.1752 45.9206 34.6327 45.6915C35.2102 45.5998 35.9802 45.4715 36.3286 45.4073C37.0344 45.2881 38.7302 45.334 39.8577 45.5081C40.2336 45.5631 40.8386 45.6456 41.1869 45.7006C41.9936 45.829 43.2677 46.2873 43.7902 46.654C44.0102 46.8006 44.4869 47.1215 44.8352 47.3598L45.4861 47.7998L46.6319 47.7906C47.2736 47.7906 49.1894 47.7356 50.9036 47.6806C53.9652 47.5706 54.0294 47.5706 54.3319 47.3506C54.7077 47.0848 56.1561 46.3331 56.3027 46.3331C56.3577 46.3331 56.6511 46.214 56.9536 46.0673C57.5311 45.7923 57.5677 45.7831 59.1536 45.5081C60.4644 45.279 62.1327 45.2515 63.0494 45.4531C63.4252 45.5356 64.1127 45.6731 64.5619 45.7465C65.6069 45.9206 66.3677 46.1223 68.4027 46.8006C69.3011 47.1031 70.0527 47.3323 70.0802 47.314C70.1352 47.259 69.7044 46.8098 69.3836 46.5715C69.2369 46.4615 68.7144 46.0123 68.2194 45.5631C67.7152 45.114 67.1652 44.6556 66.9911 44.5365C66.8169 44.4173 66.5052 44.2065 66.3036 44.0598C65.7902 43.7023 64.1861 42.9048 63.6911 42.7673C63.4619 42.7031 63.1136 42.5748 62.9119 42.4831C62.7102 42.3915 62.4627 42.2906 62.3619 42.254C62.0319 42.144 58.6127 41.869 57.0911 41.8323C56.1927 41.814 56.0827 41.7865 56.0827 41.5756C56.0827 41.4381 57.1186 40.4206 57.9161 39.7698C58.0902 39.6323 58.4202 39.3481 58.6494 39.1556C59.7769 38.184 60.0702 37.9731 60.8494 37.6431C61.7111 37.2765 63.2877 36.7081 63.6269 36.644C63.7644 36.6165 63.9019 36.5615 63.9294 36.5156C63.9569 36.4698 64.0577 36.4331 64.1586 36.4331C64.2594 36.4331 64.4336 36.3781 64.5436 36.3048C64.6536 36.2315 64.9011 36.149 65.0936 36.1215C65.3044 36.0848 65.4327 36.0115 65.4327 35.929C65.4327 35.8556 65.4144 35.7915 65.4052 35.7915C65.3869 35.7915 65.0386 35.6723 64.6444 35.5256C63.6177 35.159 62.3711 34.884 61.2344 34.774C60.0336 34.6548 60.2719 34.6456 58.9702 34.8748C57.9344 35.0581 57.0636 35.2781 56.8619 35.4248C56.8161 35.4523 56.5869 35.5348 56.3669 35.599C56.1469 35.6631 55.6244 35.9381 55.1936 36.2131C54.7719 36.4881 54.4052 36.7081 54.3777 36.7081C54.3502 36.7081 54.1944 36.7998 54.0386 36.9098C53.8736 37.029 53.7269 37.1206 53.6994 37.1298C53.6719 37.1298 53.4244 37.249 53.1494 37.3773C52.5994 37.6431 52.3336 37.689 52.2877 37.5056C52.2511 37.3773 51.9394 35.4431 51.6827 33.7748C51.3986 31.9506 51.0869 30.5756 50.6927 29.4665C50.5644 29.0906 50.4452 28.7148 50.4269 28.6323C50.4177 28.5498 50.3627 28.3756 50.3169 28.2381C50.2252 28.009 50.1886 27.9998 49.5469 27.9998H48.8686L48.7494 28.4306Z" fill="#006C54"/>
<path d="M19.1047 48.6435C19.0772 48.7077 19.0039 48.946 18.9305 49.1752C18.8572 49.4043 18.7472 49.7527 18.7014 49.9543C18.6464 50.156 18.4814 50.7518 18.3347 51.2835C18.1789 51.8152 18.0139 52.4752 17.9497 52.7502C17.8855 53.0252 17.7939 53.3368 17.7389 53.4377C17.6839 53.5385 17.528 54.0518 17.3905 54.5835C17.2439 55.1152 17.0055 56.0227 16.8497 56.6002C16.703 57.1777 16.5105 57.8193 16.4372 58.021C16.373 58.2227 16.2447 58.6535 16.1622 58.9835C16.0797 59.3135 15.8964 59.9735 15.7589 60.4502C15.1722 62.4118 14.833 63.6218 14.833 63.7685C14.833 63.8602 14.7322 64.1902 14.613 64.5018C14.503 64.8227 14.3472 65.3085 14.2922 65.5835C14.228 65.8585 14.0722 66.3902 13.953 66.766C13.7147 67.5085 13.6689 67.9577 13.8522 67.976C14.2189 68.0035 14.7139 67.9393 14.8055 67.8477C14.8697 67.7835 15.0622 67.1968 15.2455 66.546C15.4289 65.886 15.6947 64.9693 15.8414 64.5018C15.9972 64.0343 16.1164 63.5943 16.1164 63.5118C16.1164 63.2277 16.6755 61.6602 16.8314 61.5227C16.9139 61.4493 17.2347 61.2477 17.5372 61.0827C17.8397 60.9177 18.1055 60.7618 18.133 60.7252C18.1605 60.6977 18.408 60.5327 18.683 60.3768C18.958 60.2118 19.4805 59.891 19.8289 59.6618C20.7639 59.066 20.8555 59.0293 21.0205 59.1668C21.0939 59.231 21.158 59.3502 21.158 59.4418C21.158 59.5977 21.488 60.7343 22.1297 62.7877C22.3039 63.3468 22.4414 63.8602 22.4414 63.9427C22.4414 64.016 22.5605 64.4285 22.698 64.8593C22.8447 65.281 23.0189 65.8585 23.0739 66.1335C23.2205 66.7385 23.5414 67.6918 23.6605 67.8568C23.7705 68.0035 24.4672 68.0035 24.678 67.8477C24.8339 67.7285 24.8339 67.701 24.6139 67.1327C24.4855 66.8118 24.3297 66.3168 24.2747 66.0418C24.2105 65.7668 24.0455 65.1527 23.8989 64.6943C23.7522 64.2268 23.633 63.7685 23.633 63.686C23.633 63.6035 23.4955 63.0902 23.3214 62.5585C23.1472 62.0268 22.9639 61.376 22.9089 61.1102C22.8539 60.8352 22.7622 60.5418 22.7164 60.441C22.6614 60.3493 22.4964 59.7993 22.3497 59.231C22.203 58.6718 22.0197 57.9752 21.9372 57.7002C21.8547 57.4252 21.7447 57.031 21.708 56.8293C21.6622 56.6277 21.5247 56.1602 21.3964 55.8027C21.2589 55.436 21.158 55.0602 21.158 54.9593C21.158 54.8585 21.0114 54.3452 20.8372 53.8135C20.663 53.2818 20.5164 52.7593 20.5164 52.6585C20.5164 52.5577 20.4155 52.1727 20.278 51.806C20.1497 51.4485 19.948 50.7518 19.8289 50.2752C19.4439 48.7718 19.2147 48.2677 19.1047 48.6435ZM19.4439 53.6027C19.5355 53.8685 19.728 54.5102 19.8655 55.0418C20.0122 55.5735 20.2139 56.2518 20.3147 56.5543C20.4155 56.8568 20.5255 57.2785 20.5622 57.4893L20.6264 57.8743L19.5814 58.5527C17.7389 59.7535 17.3997 59.9368 17.2897 59.8268C17.1797 59.7168 17.2164 59.5335 17.6747 57.9752C17.8122 57.4985 18.078 56.5452 18.2705 55.8668C18.8664 53.6852 19.1047 52.961 19.2147 53.0618C19.2514 53.0985 19.3522 53.346 19.4439 53.6027Z" fill="black"/>
<path d="M61.0789 48.8084C60.9964 48.9642 60.8314 49.5234 60.7122 50.0276C60.593 50.5409 60.4097 51.2009 60.3089 51.4942C60.208 51.7876 60.098 52.1817 60.0614 52.3651C60.0339 52.5484 59.9055 52.9884 59.7864 53.3459C59.6672 53.6942 59.5114 54.2717 59.4289 54.6292C59.3464 54.9776 59.2089 55.4726 59.1172 55.7292C59.0255 55.9767 58.8789 56.5176 58.7872 56.9209C58.7047 57.3242 58.5855 57.7367 58.5397 57.8284C58.4847 57.9292 58.3472 58.3876 58.2372 58.8367C57.953 59.9642 57.3847 61.9534 57.183 62.5126C57.0914 62.7601 56.9722 63.2184 56.9172 63.5209C56.853 63.8234 56.743 64.2267 56.6697 64.4192C56.5964 64.6026 56.4405 65.1617 56.3214 65.6567C56.2022 66.1517 56.0647 66.6376 56.0189 66.7384C55.8355 67.0867 55.6889 67.8934 55.7897 67.9576C55.8447 67.9942 56.1105 67.9942 56.3672 67.9667L56.853 67.9209L57.1922 66.8209C57.3755 66.2159 57.568 65.5559 57.623 65.3542C57.7605 64.7584 58.1822 63.3101 58.448 62.4851C58.7047 61.6601 58.8789 61.4584 59.6489 61.0367C59.878 60.9084 60.318 60.6426 60.6205 60.4501C60.923 60.2484 61.5555 59.8542 62.023 59.5609C62.958 58.9926 63.1597 58.9834 63.2147 59.4967C63.233 59.6434 63.3614 60.1292 63.4989 60.5876C63.6455 61.0367 63.8105 61.5959 63.8747 61.8251C63.9297 62.0542 64.0764 62.5492 64.1955 62.9251C64.3147 63.3009 64.443 63.7592 64.4705 63.9334C64.5072 64.1076 64.6172 64.4834 64.718 64.7584C64.8189 65.0334 65.0114 65.7117 65.158 66.2709C65.4972 67.6001 65.5705 67.7742 65.8455 67.8751C66.148 67.9851 66.533 67.9942 66.7072 67.8842C66.8172 67.8109 66.808 67.6734 66.5972 66.9859C66.3405 66.1609 66.2855 65.6751 66.4322 65.6751C66.4872 65.6751 66.753 65.9501 67.0464 66.2984C67.7064 67.0776 67.7614 67.1142 68.3755 67.1876C69.2464 67.2976 69.8147 67.1234 70.603 66.4909C70.988 66.1884 71.3547 65.8676 71.4097 65.7667C71.6664 65.3542 71.7489 65.5559 71.7764 66.6651L71.8039 67.7376L72.253 67.7651C72.5464 67.7834 72.7297 67.7559 72.7755 67.6734C72.8214 67.6092 72.858 67.0409 72.8672 66.4084C72.8672 65.7759 72.9039 64.7767 72.9314 64.1809C72.968 63.5851 72.9589 63.0351 72.9222 62.9617C72.8764 62.8792 72.693 62.8334 72.4089 62.8334C71.8864 62.8334 71.6205 63.0717 71.2722 63.8417C70.8414 64.7859 70.5297 65.2167 69.9705 65.6292C69.0355 66.3351 68.4489 66.3076 67.8439 65.5651C67.633 65.2992 67.4314 64.9692 67.3947 64.8317C67.2572 64.1901 68.3205 62.3842 69.9889 60.4226C70.7039 59.5884 71.0705 59.3684 71.593 59.4784C71.978 59.5517 72.1247 59.4051 72.1247 58.9376C72.1247 58.5067 72.0239 58.4334 71.4189 58.4334C70.4472 58.4334 69.9339 58.7542 68.9805 59.9734C68.733 60.2851 68.4947 60.5417 68.4489 60.5417C68.403 60.5417 68.3664 60.5876 68.3664 60.6517C68.3664 60.7067 68.2105 60.9451 68.018 61.1742C67.8255 61.4034 67.5047 61.8617 67.3122 62.1917C67.1197 62.5217 66.8447 62.9892 66.698 63.2367C66.5514 63.4842 66.3772 63.9334 66.3222 64.2359C66.258 64.5476 66.1572 64.8042 66.1022 64.8226C66.0472 64.8409 65.9372 64.6392 65.8639 64.3734C65.7905 64.1076 65.6164 63.5117 65.488 63.0626C65.3505 62.6042 65.158 61.9076 65.0572 61.5042C64.9564 61.1009 64.773 60.5051 64.663 60.1751C64.5439 59.8451 64.4247 59.4142 64.388 59.2126C64.3514 59.0109 64.2047 58.4701 64.0672 58.0209C63.9205 57.5626 63.7372 56.9484 63.6639 56.6459C63.398 55.6284 62.6189 52.8692 62.2522 51.6776C62.133 51.2742 61.9497 50.6142 61.858 50.2109C61.6747 49.4317 61.4272 48.7167 61.308 48.5884C61.2622 48.5517 61.1614 48.6434 61.0789 48.8084ZM61.3814 53.3642C61.6197 53.9876 61.9589 55.1059 62.0139 55.4451C62.0414 55.6559 62.1239 55.9309 62.188 56.0592C62.353 56.3892 62.6739 57.7001 62.628 57.8376C62.5822 57.9476 62.353 58.1034 61.033 58.9192C60.6572 59.1484 60.2355 59.4234 60.098 59.5242C59.9697 59.6342 59.7314 59.7442 59.5755 59.7717C59.328 59.8267 59.2914 59.8084 59.2914 59.6342C59.2914 59.4234 59.5389 58.4242 59.658 58.1126C59.823 57.7184 60.0247 57.0126 60.0247 56.8567C60.0247 56.7742 60.1255 56.3892 60.2539 56.0134C60.3822 55.6376 60.5655 54.9684 60.6755 54.5192C60.868 53.6667 61.0789 53.1167 61.2072 53.1167C61.253 53.1167 61.3264 53.2267 61.3814 53.3642Z" fill="black"/>
<path d="M24.9715 58.5981C24.7973 58.6348 24.7973 58.3598 24.9165 63.0165C25.0081 66.6465 25.054 67.6456 25.1456 67.7923C25.2373 67.9298 26.0806 67.8931 26.1356 67.7556C26.1631 67.6823 26.1448 66.1973 26.099 64.4373C26.044 62.6865 26.0348 61.229 26.0623 61.2015C26.1356 61.1281 26.7223 61.8065 26.8048 62.054C26.8415 62.1548 26.9515 62.3565 27.0615 62.5123C27.1623 62.659 27.3181 62.8973 27.3915 63.0256C27.9506 63.9973 28.959 65.6656 29.3715 66.3165C29.6465 66.7473 29.9306 67.2331 30.0131 67.3981C30.0956 67.5631 30.2423 67.7373 30.334 67.7923C30.4348 67.8381 31.0031 67.8656 31.6265 67.8565L32.7448 67.829L32.8181 67.5356C32.8731 67.334 33.0565 67.114 33.4048 66.8481C33.689 66.6281 34.2756 66.1148 34.7156 65.7115C35.1465 65.299 35.7698 64.7398 36.0906 64.4556C37.1631 63.5206 37.5573 62.3931 37.4381 60.5598C37.4015 59.909 37.3373 59.6065 37.1815 59.3223C36.8515 58.7356 36.5581 58.5706 35.834 58.5706C35.2931 58.5706 35.1465 58.6073 34.734 58.864C34.4681 59.029 34.239 59.1665 34.2115 59.1665C34.184 59.1665 33.9456 59.3315 33.6798 59.5331C33.1848 59.909 32.9373 59.9823 32.8731 59.7806C32.8456 59.7256 32.8181 59.4415 32.809 59.1665C32.7906 58.8915 32.7356 58.6348 32.6806 58.5981C32.5065 58.4881 31.929 58.5156 31.8098 58.6348C31.7273 58.7173 31.6998 59.3681 31.6998 61.009C31.6998 62.3106 31.6631 63.3006 31.6173 63.3373C31.5715 63.3648 31.5073 63.3098 31.4798 63.2273C31.4248 63.0256 31.324 61.1281 31.2965 59.7623C31.2873 59.2031 31.2506 58.699 31.214 58.6348C31.1131 58.479 30.3706 58.4973 30.2423 58.6531C30.1598 58.7448 30.1598 59.2031 30.224 60.4131C30.279 61.3206 30.3248 62.8148 30.3431 63.7498C30.3706 65.2898 30.3523 65.4456 30.2148 65.4731C30.1048 65.4915 30.0131 65.3998 29.9306 65.1981C29.8573 65.0331 29.564 64.5198 29.2798 64.0706C29.0048 63.6123 28.684 63.0806 28.574 62.879C28.244 62.2648 27.1898 60.5965 27.0156 60.3948C26.9148 60.294 26.8415 60.1473 26.8415 60.074C26.8323 60.0006 26.7131 59.7806 26.5665 59.579C26.4198 59.3773 26.2273 59.084 26.1448 58.919C26.0073 58.6715 25.934 58.6256 25.5581 58.5981C25.3198 58.589 25.054 58.5798 24.9715 58.5981ZM36.3473 59.5973C36.5856 59.909 36.604 60.0006 36.6315 60.9173C36.659 61.7331 36.6315 62.0081 36.4848 62.439C36.2098 63.209 36.0998 63.3923 35.6415 63.7956C35.064 64.2998 34.5231 64.804 33.8448 65.4731C33.414 65.8948 33.2031 66.0506 33.0473 66.0231L32.8456 65.9956L32.8181 63.6215C32.7906 60.899 32.7631 61.009 33.5973 60.5323C33.8906 60.3673 34.1748 60.184 34.2206 60.1198C34.3765 59.9273 35.669 59.2581 35.889 59.2581C36.0173 59.2581 36.1915 59.3865 36.3473 59.5973Z" fill="black"/>
<path d="M40.2704 58.6165L39.9037 58.6624L39.8762 63.2274L39.8579 67.7832L40.0962 67.8749C40.4354 68.0124 40.7379 67.9849 40.9121 67.8199C41.0404 67.6915 41.0587 67.4715 41.0221 66.3532C41.0037 65.629 41.0221 64.9874 41.0587 64.9232C41.1321 64.804 41.8379 65.3815 43.1854 66.6832C44.0746 67.5357 44.1296 67.5724 44.3587 67.3615C44.7162 67.0407 44.5971 66.839 43.3229 65.7024C41.7462 64.2999 41.4162 63.979 41.4162 63.8507C41.4162 63.7865 41.5721 63.6765 41.7646 63.594C41.9479 63.5207 42.2137 63.374 42.3512 63.2824C42.4796 63.1907 42.9654 62.9157 43.4146 62.6865C44.7804 61.999 45.1471 61.3299 44.8996 59.9824C44.8446 59.634 44.7071 59.249 44.6062 59.1207C43.9921 58.3324 42.8187 58.4699 41.7462 59.4507C41.1962 59.964 41.1412 59.9824 41.0587 59.8174C41.0037 59.7165 40.9579 59.414 40.9579 59.139C40.9579 58.5707 40.9029 58.534 40.2704 58.6165ZM44.0104 59.8174C44.4046 60.6332 44.1112 61.4674 43.2771 61.8799C43.0387 62.0082 42.6354 62.219 42.3787 62.3657C41.4529 62.879 41.3704 62.9249 41.2237 62.9249C41.0221 62.9249 40.9671 62.6682 40.9854 61.8524L41.0037 61.174L41.4621 60.789C41.7187 60.5782 42.0854 60.2482 42.2871 60.0465C42.6996 59.6524 43.1579 59.4415 43.5704 59.469C43.7904 59.4874 43.8821 59.5607 44.0104 59.8174Z" fill="black"/>
<path d="M48.2364 58.5983C48.1814 58.635 48.0073 59.0933 47.8331 59.625C47.6681 60.1567 47.3931 61 47.2281 61.5042C47.0631 62.0083 46.8614 62.65 46.7881 62.925C46.7148 63.2 46.5773 63.6583 46.4764 63.9333C46.0731 65.0792 45.4956 67.0317 45.3856 67.6183C45.3398 67.8567 45.3581 67.875 45.6606 67.875C46.0456 67.875 46.1098 67.7925 46.3206 67.1417C46.4031 66.8667 46.5314 66.5092 46.5956 66.3625C46.6598 66.2067 46.7606 65.8675 46.8248 65.6017C46.8981 65.2992 47.0081 65.07 47.1364 64.9783C48.2273 64.2267 49.0614 63.75 49.1898 63.8325C49.2539 63.8692 49.3823 64.1808 49.4739 64.5383C49.5748 64.8867 49.7306 65.4 49.8314 65.675C49.9231 65.95 50.0789 66.4083 50.1614 66.6833C50.2439 66.9583 50.3814 67.3342 50.4731 67.5083C50.6106 67.7833 50.6748 67.8292 50.9498 67.8292C51.2614 67.8292 51.2706 67.82 51.2431 67.49C51.2339 67.2975 51.1331 66.9125 51.0323 66.6192C50.9314 66.3258 50.7298 65.6933 50.5831 65.2167C50.4456 64.74 50.2623 64.1625 50.1889 63.9333C49.9323 63.1908 49.5748 62.0633 49.3914 61.4583C49.2998 61.1283 49.1164 60.5508 48.9881 60.175C48.8689 59.7992 48.7039 59.2858 48.6306 59.0292C48.5023 58.5708 48.4106 58.4792 48.2364 58.5983ZM48.6489 61.8525C48.7589 62.1642 48.8689 62.6042 48.8964 62.8333L48.9514 63.255L48.5114 63.5117C48.2639 63.6492 47.9523 63.8325 47.8148 63.915C47.4389 64.1442 47.3564 63.9883 47.5214 63.3375C47.5948 63.035 47.6956 62.705 47.7414 62.6042C47.7964 62.5033 47.9156 62.1458 48.0164 61.8067C48.2456 61.0458 48.3923 61.0642 48.6489 61.8525Z" fill="black"/>
<path d="M73.4905 58.7175C73.4171 58.855 73.408 60.1108 73.4538 63.3375L73.5271 67.765L73.8571 67.8108C74.0405 67.8292 74.2788 67.8108 74.398 67.765C74.618 67.6917 74.618 67.6825 74.5905 66.2892C74.563 64.905 74.563 64.8958 74.7646 64.8683C74.9205 64.8408 75.113 64.9783 75.498 65.3633C76.4605 66.3533 77.7438 67.5083 77.863 67.5083C77.9363 67.5083 78.0555 67.38 78.1288 67.2333L78.2755 66.9492L77.4596 66.1517C77.0105 65.7117 76.3046 65.0333 75.8921 64.6483C75.1496 63.9333 75.0121 63.695 75.3146 63.6033C75.5988 63.5117 76.0663 63.255 76.0663 63.1908C76.0663 63.1542 76.2221 63.0717 76.4055 63.0075C76.598 62.9433 77.0196 62.7233 77.3496 62.5125C77.8263 62.21 78.0188 62.0083 78.2938 61.5408C78.5871 61.0367 78.633 60.8808 78.633 60.4042C78.633 59.7992 78.4221 59.2308 78.083 58.9375C77.9088 58.7817 77.753 58.7542 76.9738 58.7633H76.0571L75.4888 59.3317C75.1313 59.6892 74.838 59.9 74.7096 59.9C74.5171 59.9 74.508 59.8633 74.508 59.2675C74.508 58.5708 74.4713 58.525 73.9121 58.525C73.683 58.525 73.5638 58.58 73.4905 58.7175ZM77.4138 59.4967C77.8171 59.6067 77.9271 60.4867 77.6246 61.0917C77.4046 61.5317 77.1021 61.7608 75.8921 62.4117C74.9755 62.9158 74.673 62.98 74.5721 62.7142C74.5538 62.65 74.5538 62.2833 74.5813 61.8983L74.6271 61.1833L75.4888 60.395C76.4238 59.5333 76.8363 59.3408 77.4138 59.4967Z" fill="black"/>
<path d="M38.364 58.6717C38.3273 58.7084 38.2998 60.7709 38.2998 63.255C38.2998 67.2792 38.3181 67.7742 38.4465 67.82C38.694 67.9117 39.189 67.8842 39.2898 67.7559C39.354 67.6825 39.3906 66.0692 39.409 63.1542L39.4365 58.6625L38.9323 58.635C38.6573 58.6167 38.4006 58.635 38.364 58.6717Z" fill="black"/>
<path d="M82.1621 58.745C81.1263 59.1484 80.1271 59.9917 79.3938 61.0825C78.5688 62.3109 78.1563 64.3367 78.4955 65.455C78.7613 66.3075 79.0546 66.8209 79.4763 67.1692C80.173 67.7284 80.393 67.8017 81.328 67.765C82.0521 67.7375 82.2355 67.7009 82.758 67.435C84.958 66.3167 86.3421 63.4017 85.8288 60.9634C85.6821 60.285 85.5996 60.1017 85.2421 59.6525C84.6371 58.91 84.0413 58.6167 83.1246 58.6259C82.7488 58.635 82.318 58.69 82.1621 58.745ZM84.1055 59.9642C84.6646 60.395 84.9671 61.6417 84.7746 62.7142C84.6188 63.6034 84.3621 64.2634 83.9038 64.9417C83.3813 65.7025 83.253 65.8492 82.8038 66.1425C82.0705 66.6192 81.9605 66.665 81.4655 66.7292C80.7505 66.8209 80.3196 66.6284 79.9163 66.0325L79.5955 65.5559V64.4009C79.5955 63.2642 79.6046 63.2367 79.9621 62.375C80.283 61.6142 80.4113 61.4217 81.0163 60.8167C81.7038 60.12 82.1621 59.8359 82.758 59.7075C83.2346 59.6067 83.7755 59.7075 84.1055 59.9642Z" fill="black"/>
<path d="M36.1548 69.8642C36.1273 69.8917 31.6998 70.0658 28.3081 70.1667C24.5589 70.2858 21.7998 70.4233 20.9289 70.5242C20.5256 70.5792 19.1414 70.6617 17.8581 70.7167C15.5939 70.8083 13.5314 70.955 13.3023 71.0375C13.2289 71.065 13.1831 71.2483 13.1831 71.5417V72H16.2356C19.1506 72 21.4056 71.9267 24.5956 71.7158C26.3373 71.5967 28.1798 71.505 31.2873 71.3583C32.5523 71.3033 34.4864 71.1933 35.5956 71.12C37.2273 71.01 41.5814 70.9642 58.4206 70.8908C69.8698 70.845 79.9073 70.7808 80.7414 70.7533C82.2264 70.6892 82.2448 70.6892 81.7498 70.5792C80.9064 70.3775 69.4481 70.1117 54.5248 69.9283C50.0973 69.8733 36.1914 69.8275 36.1548 69.8642Z" fill="url(#paint0_linear_23_657)"/>
<defs>
<linearGradient id="paint0_linear_23_657" x1="20.1039" y1="72" x2="75.4248" y2="70.9" gradientUnits="userSpaceOnUse">
<stop/>
<stop offset="1" stop-color="#1E1D1D"/>
</linearGradient>
</defs>
</svg>
