<svg width="100" height="100" viewBox="0 0 100 100" fill="none" xmlns="http://www.w3.org/2000/svg">
<rect width="100" height="100" fill="white"/>
<g clip-path="url(#clip0_23_658)">
<path d="M73.475 65.1945C75.4625 66.7625 75.8375 67.1358 75.6875 67.3598C75.575 67.5091 75.9875 67.5465 76.55 67.3971C77.4875 67.2105 77.4875 67.1731 76.7 67.0611C76.25 66.9865 75.6875 66.6131 75.5 66.2025C75.275 65.8291 74.8625 65.4931 74.6 65.4931C74.3 65.4931 73.8875 65.2318 73.625 64.9331C73.3625 64.6345 72.9875 64.3731 72.7625 64.3731C72.575 64.3731 72.875 64.7465 73.475 65.1945Z" fill="#409640"/>
<path d="M69.1249 66.9865C69.4249 67.1732 70.0249 67.3599 70.3999 67.3599C71.3749 67.3599 71.0749 67.1359 69.6874 66.8372C68.8624 66.6505 68.7124 66.6879 69.1249 66.9865Z" fill="#409640"/>
<path d="M70.738 68.1815C70.813 68.4428 70.513 69.0775 70.0255 69.6001C69.238 70.4588 69.2005 70.5708 69.838 70.5708C70.213 70.5708 70.4755 70.3841 70.363 70.1228C70.288 69.8988 70.4755 69.4881 70.813 69.2268C71.4505 68.7041 71.563 67.7335 70.963 67.7335C70.738 67.7335 70.6255 67.9575 70.738 68.1815Z" fill="#409640"/>
<path d="M77.15 68.0315C77.3375 68.3302 79.625 68.1809 79.625 67.8822C79.625 67.8075 79.025 67.7329 78.275 67.7329C77.5625 67.7329 77.0375 67.8822 77.15 68.0315Z" fill="#409640"/>
<path d="M80.4874 68.2186C80.8624 68.5546 80.9749 68.8533 80.7499 68.9279C80.5624 68.9653 80.6749 69.2266 81.0874 69.4879C81.6499 69.8613 81.8374 69.8239 82.0249 69.4133C82.1374 69.0399 82.0249 68.9653 81.6124 69.1146C81.1999 69.2639 81.0874 69.1893 81.2749 68.9279C81.4249 68.7039 81.1624 68.3306 80.6749 68.1066C79.8874 67.7333 79.8499 67.7333 80.4874 68.2186Z" fill="#409640"/>
<path d="M62.9378 70.9438C62.6003 71.2798 62.4503 71.6531 62.5628 71.7651C62.6753 71.9145 62.9378 71.7651 63.1253 71.4665C63.2753 71.2051 64.1753 70.8318 65.0753 70.7198L66.6878 70.4585L65.1128 70.3838C64.1378 70.3465 63.3503 70.5705 62.9378 70.9438Z" fill="#409640"/>
<path d="M68.1127 72.6984C69.3127 73.7064 69.3502 74.005 68.4877 74.677C68.1127 74.9384 68.0002 75.1997 68.2627 75.1997C68.4877 75.1997 68.9752 74.8264 69.3127 74.341C69.8752 73.557 69.8377 73.4824 68.8627 72.6984C67.4752 71.5784 66.8377 71.5784 68.1127 72.6984Z" fill="#409640"/>
<path d="M62.0378 72.6612C62.0003 73.4825 62.4503 73.7439 63.1253 73.2585C63.5753 72.9599 63.5753 72.9225 63.0503 73.1092C62.6753 73.2212 62.3753 73.0719 62.2628 72.6612C62.1128 72.0639 62.0753 72.0639 62.0378 72.6612Z" fill="#409640"/>
<path d="M81.3502 73.1837C82.0252 74.1544 82.4002 74.1917 82.0252 73.2211C81.9127 72.9224 81.5752 72.5491 81.2752 72.4371C80.8627 72.2877 80.8627 72.4371 81.3502 73.1837Z" fill="#409640"/>
<path d="M75.7249 73.8558C75.8374 74.1918 76.1374 74.4531 76.3249 74.4531C76.8124 74.4531 76.5124 73.5945 75.9499 73.4078C75.6874 73.3331 75.5749 73.4825 75.7249 73.8558Z" fill="#409640"/>
<path d="M74 74.7146C74 75.3493 74.3 75.312 74.975 74.6773C75.425 74.192 75.425 74.1173 74.75 74.192C74.3375 74.2293 74 74.4533 74 74.7146Z" fill="#409640"/>
<path d="M78.3129 74.8268C78.2004 75.2001 78.2754 75.8721 78.5004 76.3201C78.8004 76.8428 78.8004 77.0668 78.5004 77.0668C78.2754 77.0668 78.2004 77.2161 78.3129 77.4401C78.4254 77.6268 78.7254 77.8135 78.9129 77.8135C79.1379 77.8135 79.1754 77.6268 79.0629 77.4401C78.9504 77.2161 79.0254 77.0668 79.2504 77.0668C79.4754 77.0668 79.4004 76.8055 79.0629 76.4695C78.6879 76.0588 78.5379 75.5361 78.6504 74.9761C78.9504 73.8935 78.6504 73.7815 78.3129 74.8268Z" fill="#409640"/>
<path d="M50 74.752C50 74.9014 50.6375 74.976 51.425 74.9014C53.825 74.6774 54.0125 74.528 51.9875 74.4907C50.9 74.4907 50 74.6027 50 74.752Z" fill="#409640"/>
<path d="M47.3376 76.0208C47.6751 76.9915 48.5376 77.1782 48.7626 76.3195C48.9126 75.8715 48.8751 75.8342 48.5751 76.2822C48.2751 76.6928 48.1626 76.6182 47.9376 75.9835C47.8251 75.5728 47.5626 75.1995 47.3751 75.1995C47.1876 75.1995 47.1501 75.5728 47.3376 76.0208Z" fill="#409640"/>
<path d="M66.1254 75.5734C65.6379 75.9094 65.6379 75.9468 66.1254 75.9468C66.4254 75.9468 66.9504 75.7601 67.2504 75.5734C67.7379 75.2374 67.7379 75.2001 67.2504 75.2001C66.9504 75.2001 66.4254 75.3868 66.1254 75.5734Z" fill="#409640"/>
<path d="M55.3628 76.8796C55.3628 77.2156 55.5128 77.2903 55.7753 77.1036C56.0003 76.9543 56.4503 76.6929 56.7503 76.5809C57.0878 76.4689 56.9378 76.3569 56.3378 76.3569C55.7378 76.3196 55.3628 76.5063 55.3628 76.8796Z" fill="#409640"/>
<path d="M66.1249 77.066C66.1249 77.2527 65.4874 77.514 64.7374 77.738C63.9499 77.9247 63.6499 78.1113 64.0624 78.1487C64.6999 78.186 64.6999 78.2607 64.2499 78.5593C63.8374 78.8207 63.9499 78.9327 64.8124 78.8953C65.4499 78.8953 65.7124 78.7833 65.4874 78.6713C64.3999 78.2607 65.1124 77.85 66.6124 77.9993C67.6999 78.1113 67.9624 78.074 67.4374 77.85L66.6874 77.5513L67.4374 77.3647C68.0749 77.2527 67.9999 77.178 67.1749 76.9913C66.5749 76.8793 66.1249 76.9167 66.1249 77.066Z" fill="#409640"/>
<path d="M43.5876 77.8881C43.8501 78.2614 44.2251 78.5601 44.4126 78.5601C44.6001 78.5601 44.7501 78.2614 44.7126 77.8881C44.7126 77.4774 44.6376 77.4401 44.4876 77.7387C44.3376 78.1121 44.1876 78.1121 43.7001 77.7387C43.1376 77.2907 43.1001 77.3281 43.5876 77.8881Z" fill="#409640"/>
<path d="M53.375 77.8132C53.375 77.9999 53.4125 78.2239 53.4875 78.2986C53.525 78.3732 53.2625 78.7092 52.925 79.0826C52.5125 79.4932 52.25 80.3146 52.25 81.2106C52.25 82.5172 52.325 82.6292 53.1125 82.5172C53.5625 82.4052 54.125 82.3306 54.3125 82.2932C54.5375 82.2559 54.275 82.1066 53.75 81.9572C52.7375 81.6959 52.2125 80.1652 53 79.6799C53.225 79.5306 53.45 79.1199 53.525 78.7839C53.5625 78.4106 53.8625 77.9626 54.1625 77.7759C54.575 77.5146 54.575 77.4399 54.05 77.4399C53.675 77.4399 53.375 77.5892 53.375 77.8132Z" fill="#409640"/>
<path d="M79.0628 78.8209L78.4253 79.8662L79.2878 79.0449C79.7378 78.5969 80.0378 78.1115 79.9253 77.9995C79.8128 77.8875 79.4378 78.2609 79.0628 78.8209Z" fill="#409640"/>
<path d="M48.3503 78.8587C48.2003 79.344 48.1628 79.8293 48.2753 79.9413C48.3878 80.0907 48.3128 80.3893 48.0878 80.688C47.7878 81.024 47.7878 81.1733 48.0878 81.1733C48.5753 81.1733 48.9878 79.6427 48.8003 78.672C48.6503 78.112 48.6128 78.112 48.3503 78.8587Z" fill="#409640"/>
<path d="M44.75 79.1944C44.75 79.7544 45.6875 80.6877 46.7375 81.2104C47.45 81.5464 47.45 81.4717 46.625 80.7997C46.1 80.3517 45.4625 79.717 45.2375 79.381C44.975 79.045 44.75 78.9704 44.75 79.1944Z" fill="#409640"/>
<path d="M56.375 80.8744C55.4375 81.509 54.9875 81.9197 55.325 81.8077C55.6625 81.6957 56 81.6957 56.075 81.8824C56.15 82.0317 56.675 81.5837 57.2375 80.9117C58.55 79.4184 58.5125 79.4184 56.375 80.8744Z" fill="#409640"/>
<path d="M70.1378 80.4267C70.5128 80.8373 70.8128 81.1733 70.8878 81.1733C70.9253 81.1733 70.9253 80.8373 70.8878 80.4267C70.8503 79.9787 70.5878 79.68 70.1753 79.68C69.5378 79.68 69.5378 79.7173 70.1378 80.4267Z" fill="#409640"/>
<path d="M73.5503 81.5461C73.4378 82.1808 73.4753 82.7781 73.6253 82.8528C73.7378 82.9274 73.8878 82.4048 73.9253 81.6954C74.0378 80.1274 73.7753 80.0154 73.5503 81.5461Z" fill="#409640"/>
<path d="M64.8878 81.8453C64.5128 82.2187 64.2503 82.7413 64.2503 83.0027C64.2503 83.264 63.9878 83.376 63.5378 83.2267C63.1628 83.1147 62.6753 83.264 62.4128 83.5627C61.9253 84.16 62.1878 85.6533 62.7878 85.6533C63.2753 85.6533 63.2003 84.9813 62.6753 84.7947C62.3003 84.6827 62.3753 84.4213 62.8628 83.936C63.2003 83.5627 63.5003 83.4133 63.5003 83.6373C63.5003 83.824 63.8003 84.0107 64.1753 84.0107C64.7003 84.0107 64.8128 83.7867 64.7003 83.152C64.6253 82.6667 64.7003 82.2933 64.9253 82.2933C65.1128 82.2933 65.3753 82.032 65.5253 81.7333C65.7878 80.9867 65.6378 81.024 64.8878 81.8453Z" fill="#409640"/>
<path d="M59.3752 82.4798C59.1127 82.8158 59.0002 83.1518 59.1502 83.3012C59.2627 83.4132 59.3752 83.3385 59.3752 83.0772C59.3752 82.8158 59.5627 82.7412 59.7502 82.8532C59.9752 82.9652 60.1252 82.8158 60.1252 82.5172C60.1252 81.7705 59.9752 81.7705 59.3752 82.4798Z" fill="#409640"/>
<path d="M39.125 82.8156C39.125 82.9276 39.65 83.4876 40.25 84.0849C41.6 85.4289 41.7125 85.1302 40.4375 83.6742C39.6125 82.7409 39.125 82.4422 39.125 82.8156Z" fill="#409640"/>
<path d="M43.9249 84.16C43.8499 84.9813 43.9249 85.6533 44.0749 85.6533C44.2624 85.6533 44.3749 84.9813 44.3749 84.16C44.3749 83.3387 44.2999 82.6667 44.2249 82.6667C44.1499 82.6667 43.9999 83.3387 43.9249 84.16Z" fill="#409640"/>
<path d="M46.625 83.7863C46.625 83.973 46.8875 84.1597 47.1875 84.1597C47.4875 84.1597 47.75 83.973 47.75 83.7863C47.75 83.5623 47.4875 83.413 47.1875 83.413C46.8875 83.413 46.625 83.5623 46.625 83.7863Z" fill="#409640"/>
<path d="M56.5625 83.7866C56.3 84.2346 56.6375 84.2346 57.6875 83.7866C58.4 83.4879 58.4 83.4506 57.6125 83.4506C57.1625 83.4132 56.675 83.5626 56.5625 83.7866Z" fill="#409640"/>
<path d="M54.8003 84.4958C54.9503 84.8691 54.8003 84.9811 54.2003 84.8318C53.6003 84.6825 53.4878 84.7571 53.6378 85.2051C53.7878 85.5411 53.7128 85.6905 53.4878 85.5411C53.3003 85.4291 53.1128 85.5411 53.1128 85.8398C53.1128 86.6611 53.4878 86.5118 54.8003 85.1678C55.8128 84.1598 55.8878 83.9358 55.2878 83.9358C54.8378 83.9358 54.6503 84.1225 54.8003 84.4958Z" fill="#409640"/>
<path d="M37.625 84.8319C38.0375 85.6533 38.7875 85.6533 38.7125 84.7946C38.7125 84.4959 38.6375 84.4959 38.4875 84.8319C38.3375 85.2053 38.15 85.1679 37.7375 84.6453C37.25 84.0106 37.25 84.0479 37.625 84.8319Z" fill="#409640"/>
<path d="M50.75 84.5334C50.75 84.7201 51.0125 84.9067 51.3125 84.9067C51.6125 84.9067 51.875 84.7201 51.875 84.5334C51.875 84.3094 51.6125 84.1601 51.3125 84.1601C51.0125 84.1601 50.75 84.3094 50.75 84.5334Z" fill="#409640"/>
<path d="M50.0375 87.2585C50 87.8558 50.1875 87.9305 51.4625 87.7065C52.625 87.5198 52.9625 87.5945 53.15 88.1545C53.375 88.6772 53.4875 88.7145 53.75 88.2665C54.275 87.4452 53.9 87.2212 52.0625 87.2585C51.125 87.2958 50.3 87.1465 50.225 86.9598C50.1125 86.7358 50.0375 86.8852 50.0375 87.2585Z" fill="#409640"/>
<path d="M39.0127 87.4079C38.5252 87.8559 38.7502 88.2293 39.9877 89.1999C40.9252 89.8719 41.8627 90.1706 43.4752 90.2826C44.9377 90.3946 45.3877 90.3573 44.7502 90.1333C43.9627 89.8719 44.1502 89.8346 45.6127 89.7973C46.6252 89.7599 47.3377 89.6106 47.1877 89.4239C47.0752 89.2373 47.4877 89.0879 48.1252 89.0879C48.7627 89.1253 49.3627 89.0133 49.5127 88.9013C49.6252 88.7519 49.1752 88.6399 48.4627 88.6399C47.7502 88.6399 47.0002 88.7893 46.8127 88.9759C46.4377 89.3119 43.8127 89.5733 41.7127 89.4239C40.5502 89.3866 38.9377 88.1173 39.3127 87.5573C39.5752 87.1093 39.3877 86.9973 39.0127 87.4079Z" fill="#409640"/>
<path d="M58.4378 87.5569C57.8378 87.8182 57.9503 87.8556 58.9253 87.7436C59.5628 87.6689 60.1253 87.7436 60.1253 87.9302C60.1253 88.1542 60.3128 88.1916 60.5378 88.0422C60.8378 87.8929 60.8003 87.7062 60.4628 87.4822C59.8253 87.0716 59.4128 87.1089 58.4378 87.5569Z" fill="#409640"/>
<path d="M52.9623 89.1251C53.1498 89.3117 53.6748 89.3864 54.1623 89.3117C54.9123 89.1997 54.8748 89.1251 53.8248 88.9757C53.0748 88.8637 52.7373 88.9011 52.9623 89.1251Z" fill="#409640"/>
<path d="M58.8126 89.9461C58.2126 90.2447 57.9501 90.4688 58.2501 90.4688C58.5501 90.4688 59.2251 90.2447 59.7501 89.9461C60.9501 89.2741 60.3126 89.2741 58.8126 89.9461Z" fill="#409640"/>
<path d="M55.0256 90.5439C54.9131 90.7305 55.3631 90.8799 55.9631 90.8799C56.6006 90.8799 57.1256 90.8052 57.1256 90.7305C57.1256 90.4319 55.2131 90.2452 55.0256 90.5439Z" fill="#409640"/>
<path d="M49.7376 91.141C50.0751 91.216 50.6751 91.216 51.0501 91.141C51.3876 91.0285 51.0876 90.9535 50.3751 90.9535C49.6626 90.9535 49.3626 91.0285 49.7376 91.141Z" fill="#409640"/>
<path d="M70.1 65.0831C69.95 65.3071 69.95 65.6805 70.1 65.9418C70.25 66.1658 70.2125 66.2404 69.95 66.0911C69.725 65.9791 69.4625 66.0165 69.35 66.2031C69.2375 66.3898 69.575 66.6511 70.0625 66.7631C70.5875 66.9124 70.925 67.1738 70.8125 67.3231C70.7 67.5098 70.8125 67.7338 71.0375 67.8084C71.675 68.0324 70.6625 70.5711 69.9125 70.6831C69.575 70.7204 68.1125 70.7578 66.65 70.7204C63.875 70.7204 62.375 71.3924 62.375 72.6991C62.375 73.1844 62.5625 73.2218 63.5 72.8858C64.1375 72.6991 65.375 72.5871 66.3125 72.6618C67.925 72.7738 68.525 72.4751 67.55 72.1018C67.2875 71.9898 67.25 71.8778 67.4375 71.8778C67.6625 71.8404 68.3 72.2138 68.8625 72.6991C69.8375 73.4831 69.875 73.5578 69.3125 74.3418C68.975 74.7898 68 75.3871 67.1375 75.6484C66.275 75.8724 65.45 76.2831 65.3 76.4698C65 76.9178 65.2625 77.4404 65.7875 77.4404C66.0125 77.4404 66.0875 77.2911 65.9375 77.1044C65.825 76.9178 66.2 76.8058 66.7625 76.8431C68.1125 76.9924 68.45 78.1871 67.175 78.2244C66.6875 78.2244 66.5375 78.3364 66.8 78.4484C67.025 78.5231 67.1375 78.8218 66.9875 79.0458C66.8375 79.3071 67.0625 79.2324 67.475 78.9338C67.85 78.6351 68.075 78.5231 67.925 78.7098C67.775 78.8964 67.8125 79.3071 68 79.6804C68.3 80.2031 68.1875 80.2778 67.475 80.1658C66.9875 80.0538 66.425 80.2404 66.0875 80.6511C65.7875 81.0244 65.75 81.2111 65.9375 81.0991C66.1625 80.9498 66.3875 81.2111 66.3875 81.6591C66.4625 82.2938 66.3875 82.3684 66.125 81.9204C65.825 81.4351 65.7125 81.4724 65.1875 82.1071C64.8875 82.5178 64.7 83.1151 64.775 83.4511C64.85 83.8618 64.6625 84.0111 64.0625 83.9738C62.75 83.8244 62.15 84.3471 62.825 85.0564C63.35 85.5418 63.4625 85.5791 63.65 85.0938C63.7625 84.7951 64.0625 84.5338 64.325 84.5338C64.7 84.5338 64.7 84.6084 64.2875 84.8698C63.6125 85.2804 64.4 85.7658 65.3 85.4671C66.2 85.1684 67.5875 82.8538 67.3625 81.9951C67.25 81.4724 67.475 81.1738 68.3375 80.8004C68.975 80.5391 69.5 80.2031 69.5 80.0164C69.5 79.8298 69.8 79.6804 70.175 79.6804C70.925 79.6804 71.75 81.2484 71.75 82.7791C71.75 83.3764 71.9 83.7498 72.125 83.6004C72.35 83.4884 72.5 83.5258 72.5 83.7124C72.5 83.8991 72.725 84.0484 72.9875 84.0484C73.25 84.0484 73.475 83.4884 73.55 82.7044C73.5875 81.9578 73.6625 80.5018 73.775 79.4938C73.85 78.4484 73.9625 77.3284 73.9625 76.9551C74 76.5818 74.1875 76.3951 74.375 76.5071C74.6 76.6191 74.75 76.5071 74.75 76.2084C74.75 75.4991 75.8375 75.0884 76.4375 75.5738C76.6625 75.7604 77.0375 75.7978 77.1875 75.6484C77.375 75.4991 77.375 75.6111 77.225 75.8724C77.075 76.1338 77.15 76.5818 77.375 76.8804C77.6375 77.1791 77.7125 77.4404 77.525 77.4404C77.375 77.4404 77.6 77.7764 78.05 78.1871C78.875 78.9711 79.4375 79.1951 79.0625 78.5604C78.95 78.3364 79.025 78.1871 79.2125 78.1871C79.85 78.1871 79.7 77.5151 78.8375 76.6564C78.2375 76.0591 78.125 75.6484 78.3125 74.7524C78.4625 74.1178 78.425 73.7071 78.2375 73.8191C78.05 73.9311 77.9 73.3711 77.9375 72.5871C77.9375 71.7658 78.0875 71.2804 78.275 71.4671C78.6875 71.8778 79.7 71.5044 79.4 71.0564C79.025 70.4218 79.8125 70.7204 80.7875 71.5791C81.3125 72.0271 81.9125 72.8858 82.1 73.4831C82.4375 74.4911 82.5125 74.5284 83.1125 73.9311C83.7875 73.2218 83.9375 71.9524 83.4125 71.1311C83.1875 70.7951 83 70.7578 82.85 71.0564C82.7 71.2804 82.3625 71.4671 82.1375 71.4671C81.8375 71.4671 81.875 71.3551 82.2125 71.1311C82.5875 70.9071 82.625 70.6458 82.325 70.1231C82.1 69.7124 81.8375 69.4511 81.725 69.4884C81.125 69.6378 80 69.0778 80 68.5924C80 68.1818 79.625 68.0698 78.6875 68.1818C77.825 68.2191 77.225 68.0698 77.0375 67.7711C76.85 67.4725 76.4375 67.3604 76.0625 67.4725C75.725 67.6218 75.575 67.5844 75.6875 67.3978C75.8 67.2111 75.725 66.9498 75.5375 66.8004C75.35 66.6884 75.0125 66.8751 74.825 67.2111C74.525 67.7338 74.45 67.7338 74.2625 67.0245C74.15 66.5765 74.225 66.3151 74.4125 66.4644C75.0875 66.8751 74.7125 66.1658 73.925 65.4565C73.025 64.7471 71.525 64.4858 71.9375 65.1205C72.2375 65.6431 71.2625 65.6058 70.7375 65.0831C70.4375 64.7845 70.25 64.7845 70.1 65.0831ZM76.55 74.0058C76.625 74.2671 76.2875 74.4538 75.725 74.4538C74.7125 74.4538 74.4125 73.8938 75.2375 73.5951C75.875 73.3338 76.3625 73.4831 76.55 74.0058ZM70.85 74.6404C70.85 75.1631 70.625 75.5738 70.3625 75.5738C69.725 75.5738 69.725 74.8271 70.3625 74.7898C70.7 74.7898 70.7 74.7151 70.325 74.5658C70.1 74.4911 69.95 74.2298 70.1 74.0431C70.475 73.4084 70.85 73.7071 70.85 74.6404Z" fill="#40C140"/>
<path d="M56 74.4162C56 74.6029 56.2625 75.0509 56.6 75.3869C57.125 75.8723 57.3125 75.9096 57.5375 75.4989C58.1 74.6029 57.875 74.0802 56.9375 74.0802C56.4125 74.0802 56 74.2296 56 74.4162Z" fill="#40C140"/>
<path d="M53.6379 74.7146C53.4879 74.8266 52.1004 74.9386 50.5629 74.9013C47.5254 74.864 47.3379 75.0133 48.3129 76.6933C48.8754 77.7013 49.0629 79.9786 48.5754 80.6133C48.4254 80.8373 47.8254 81.2106 47.2629 81.472C46.4004 81.8453 46.0254 81.808 45.2004 81.3226C44.6379 81.024 44.4879 80.8373 44.8254 80.9493C45.3879 81.0986 45.3879 80.9866 45.0504 79.9413C44.5254 78.4853 43.5879 77.664 43.1754 78.2986C42.9879 78.5973 42.8754 78.5973 42.8754 78.336C42.8754 77.664 43.3254 77.44 43.8504 77.8506C44.2629 78.1866 44.2629 78 44.0004 76.992C43.7754 76.32 43.6254 75.7226 43.6254 75.7226C43.6254 75.3866 42.4629 75.3493 42.2754 75.648C42.1254 75.9093 42.1629 75.9466 42.4254 75.7973C42.6879 75.648 42.8754 75.76 42.8754 76.1333C42.8754 76.4693 42.7254 76.6186 42.5004 76.5066C41.8254 76.096 42.0879 77.7013 42.8754 78.672C43.2879 79.1946 43.6254 80.0533 43.6254 80.576C43.6254 81.0986 43.7754 81.5466 43.9254 81.5466C44.1129 81.5466 44.3004 82.48 44.3379 83.6373L44.4129 85.728L43.3629 85.5786C41.6004 85.28 41.2254 85.1306 40.7379 84.5333C40.3254 84.048 40.2129 84.048 39.8754 84.5333C39.5754 85.0186 39.5004 85.0186 39.5004 84.4586C39.5004 84.1226 39.3129 83.376 39.1254 82.816C38.6754 81.6213 38.1504 81.92 37.6629 83.6746C37.3629 84.72 37.4004 84.832 38.0379 84.72C38.7504 84.5706 39.0129 85.056 38.4129 85.4293C38.2629 85.5413 38.1879 86.064 38.3004 86.5866C38.4129 87.296 38.6379 87.4826 39.0504 87.3333C39.3879 87.2213 39.5379 87.2213 39.4254 87.3706C39.2754 87.4826 39.5379 87.968 40.0254 88.4533C40.8504 89.2746 41.3379 89.424 45.7629 90.0586C47.0004 90.2453 48.2379 90.544 48.5004 90.6933C48.7629 90.8426 49.1004 90.7306 49.2879 90.4693C49.5879 90.0213 49.6629 90.0213 49.9629 90.4693C50.3754 91.104 54.3504 91.104 55.1004 90.4693C55.4004 90.2453 56.0004 90.1333 56.4879 90.2826C57.5379 90.544 59.2254 90.1333 58.6254 89.76C58.3254 89.5733 58.3629 89.424 58.7754 89.2746C59.1129 89.1253 59.3754 89.2373 59.3754 89.4613C59.3754 90.208 59.9004 89.3866 60.0129 88.4533C60.1629 87.52 60.1629 87.52 56.1129 88.2666C55.2129 88.416 54.5004 88.416 54.5004 88.2666C54.5004 88.1173 54.2379 87.8933 53.9754 87.7813C53.6004 87.632 53.4879 87.744 53.6379 88.1173C53.7504 88.416 53.6004 88.6773 53.3379 88.6773C53.0379 88.7146 53.3379 88.864 53.9379 89.0133L55.0629 89.3493L53.9379 89.2746C53.0004 89.2 52.8504 89.0506 52.9254 88.304C53.0379 87.4826 52.9629 87.4453 51.5379 87.7066C50.2629 87.9306 50.0004 87.856 50.0004 87.3333C50.0004 86.848 50.2629 86.7733 51.2754 86.96C52.3254 87.184 52.6254 87.072 52.9629 86.4746C53.1879 86.064 53.2254 85.616 53.0754 85.4666C52.9254 85.28 53.0379 85.3173 53.3379 85.4666C53.7504 85.6906 53.8254 85.616 53.6379 85.2053C53.4879 84.7573 53.6004 84.6826 54.2004 84.832C54.8004 84.9813 54.9504 84.8693 54.8004 84.496C54.6504 84.16 54.8379 83.936 55.2129 83.8986C56.9754 83.7866 58.8504 83.2266 59.2629 82.704C59.6004 82.2186 59.5254 81.9946 58.7379 81.5093L57.8004 80.8746L58.6254 80.6133C59.2254 80.4266 59.3379 80.24 59.0379 79.9413C58.5879 79.4933 56.5254 81.1733 56.1504 82.368C56.0379 82.7413 55.7754 82.928 55.5504 82.816C55.3254 82.6666 55.3629 82.4426 55.6629 82.256C56.0754 81.9946 56.0379 81.92 55.5504 81.92C55.1754 81.92 54.8754 82.0693 54.8754 82.2186C54.8754 82.368 54.2754 82.5546 53.5254 82.592L52.1379 82.704L52.3629 80.6133C52.4754 79.456 52.7379 78.2986 52.9629 78.0373C53.1879 77.776 53.3004 77.4773 53.2254 77.4026C53.1129 77.328 53.6004 77.2533 54.2379 77.2533C54.9879 77.2533 55.4004 77.0666 55.3629 76.768C55.2879 76.544 55.5129 76.32 55.8129 76.32C56.4879 76.32 56.5254 75.984 55.8504 75.088C55.3629 74.4533 54.0879 74.2293 53.6379 74.7146ZM47.7504 83.7866C47.7504 83.9733 47.4879 84.16 47.1879 84.16C46.8879 84.16 46.6254 83.9733 46.6254 83.7866C46.6254 83.5626 46.8879 83.4133 47.1879 83.4133C47.4879 83.4133 47.7504 83.5626 47.7504 83.7866ZM51.8754 84.5333C51.8754 84.72 51.6129 84.9066 51.3129 84.9066C51.0129 84.9066 50.7504 84.72 50.7504 84.5333C50.7504 84.3093 51.0129 84.16 51.3129 84.16C51.6129 84.16 51.8754 84.3093 51.8754 84.5333ZM43.9254 87.856C44.0379 88.5653 43.9254 88.6773 43.4379 88.4906C43.1004 88.3786 42.7254 88.2666 42.6504 88.2666C42.5754 88.2666 42.5004 87.9306 42.5004 87.4826C42.5004 86.4 43.7754 86.6986 43.9254 87.856ZM50.9004 89.3493C50.8254 89.424 50.5254 89.312 50.2629 89.088C49.9629 88.8266 49.6254 88.752 49.5129 88.9013C49.3629 89.0133 48.7629 89.1253 48.1254 89.088C47.4879 89.088 47.0754 89.2373 47.1879 89.424C47.3379 89.6106 46.6629 89.7226 45.6129 89.7226C44.4504 89.6853 44.1879 89.6106 44.9379 89.4986C45.5754 89.424 46.4004 89.2 46.8129 89.0506C49.2504 88.0426 49.4379 88.0053 50.2629 88.6026C50.6754 88.9386 50.9754 89.2746 50.9004 89.3493Z" fill="#40C140"/>
<path d="M63.6122 76.2078C62.4872 76.3572 61.5122 77.4398 62.4872 77.4398C62.7872 77.4398 62.7122 77.5892 62.3747 77.8132C61.8872 78.1118 61.9247 78.1865 62.4872 78.1865C62.8622 78.1865 63.0497 78.3358 62.9372 78.5598C62.6372 79.0452 63.4997 79.0452 64.2497 78.5598C64.7372 78.2612 64.6997 78.1865 64.0997 78.1865C63.3872 78.1865 63.3872 78.1492 64.1747 77.4398C64.6247 76.9918 64.9997 76.5065 64.9997 76.3198C64.9997 76.0958 64.9622 75.9838 64.9247 76.0212C64.8497 76.0212 64.2872 76.1332 63.6122 76.2078Z" fill="#40C140"/>
<path d="M60.875 63.6268L71.1875 63.2534L83.5625 65.4934L86.75 81.9201H60.875V63.6268Z" fill="#40C140"/>
<path fill-rule="evenodd" clip-rule="evenodd" d="M27.8751 50.1872C27.8751 51.0778 27.7802 51.9464 27.5998 52.7834C30.5059 55.0378 32.375 58.5552 32.375 62.5072C32.375 63.23 32.3125 63.9384 32.1925 64.6271C35.4711 66.8431 37.625 70.5847 37.625 74.8272C37.625 81.6313 32.0845 87.1472 25.25 87.1472C18.4155 87.1472 12.875 81.6313 12.875 74.8272C12.875 74.078 12.9422 73.3444 13.0708 72.6321C9.9634 70.4073 8 66.7021 8 62.5072C8 60.8275 8.31477 59.2264 8.89172 57.7673C8.13321 55.466 8.00011 52.5432 8.00011 49.5002C8.00011 42.6961 8.66559 37.8672 15.5001 37.8672C22.3346 37.8672 27.8751 43.383 27.8751 50.1872Z" fill="#227CC5"/>
<path fill-rule="evenodd" clip-rule="evenodd" d="M57.0267 28.4055C52.9777 30.7328 48.1566 30.5232 44.4207 28.272C44.0027 28.5893 43.5596 28.8837 43.0923 29.1523C40.3402 30.7342 37.2315 31.144 34.3492 30.5374C33.6132 33.7693 31.5774 36.6978 28.4674 38.4854C22.5485 41.8875 14.9801 39.8686 11.5628 33.976C8.14554 28.0834 10.1735 20.5486 16.0924 17.1466C18.8445 15.5647 21.9532 15.1549 24.8354 15.7615C25.5715 12.5296 27.6073 9.60104 30.7173 7.81344C34.7663 5.48611 39.5873 5.69572 43.3233 7.94687C43.7413 7.62958 44.1844 7.3352 44.6517 7.0666C50.5706 3.66452 58.139 5.68346 61.5563 11.576C64.9735 17.4686 62.9456 25.0034 57.0267 28.4055Z" fill="#F46E2F"/>
<path fill-rule="evenodd" clip-rule="evenodd" d="M74.3758 62.3819C70.1987 58.1038 69.7697 51.5799 73.0313 46.8406C72.8507 46.6762 72.6738 46.5055 72.501 46.3284C70.3622 44.1379 69.206 41.3585 69.0249 38.5314C67.0673 37.9497 65.2275 36.8764 63.7024 35.3145C58.9386 30.4355 59.0497 22.6357 63.9504 17.8931C68.8512 13.1505 76.6858 13.2611 81.4496 18.1401C83.5884 20.3306 84.7446 23.11 84.9257 25.9371C86.8833 26.5188 88.7231 27.5921 90.2482 29.154C94.4253 33.4322 94.8543 39.956 91.5927 44.6953C91.7733 44.8598 91.9502 45.0305 92.123 45.2075C96.8867 50.0865 96.7757 57.8863 91.8749 62.6289C86.9742 67.3715 79.1395 67.2609 74.3758 62.3819Z" fill="#995023"/>
<circle cx="49.625" cy="50.75" r="18.75" fill="#1E3D74"/>
<path d="M38.375 73.3333L85.25 72.96V92H36.875L36.6875 82.6666L38.375 73.3333Z" fill="#40C140"/>
<path d="M8 28.16L8.0375 48.32H10.4375C12.575 48.32 12.9125 48.432 13.5875 49.2907C14.6 50.56 14.6 51.5307 13.55 52.0907C12.7625 52.5013 10.025 52.3893 8.675 51.8667C8.0375 51.6053 8 52.7253 8 71.8027V92H50H92V50V8H50H8V28.16ZM48.575 9.75467C48.5 10.5013 48.6125 10.9867 48.875 10.9867C49.1 10.9867 49.2125 11.136 49.1 11.3227C48.725 11.8827 50.825 13.824 53 14.944L55.0625 15.9893L51.725 16.288C48.05 16.624 46.0625 17.5573 45.65 19.1253C45.275 20.4693 45.8375 22.9707 46.8125 24.6507C47.3 25.5093 47.6375 26.2933 47.525 26.4053C47.225 26.704 45.5 25.8827 44.4875 24.9493C42.9125 23.5307 38 21.9627 38 22.9333C38 23.12 37.775 23.1947 37.5125 23.0827C36.725 22.8213 34.175 25.6587 33.575 27.4507C33.3125 28.3467 32.75 30.176 32.4125 31.52C32.0375 32.8267 31.55 33.984 31.3625 34.0213C31.1375 34.096 30.725 33.0507 30.3875 31.7067C29.3375 27.4507 26.7125 24.8 24.0875 25.36C22.325 25.7333 20 27.3013 20 28.0853C20 28.4587 19.7375 28.7947 19.4375 28.7947C19.0625 28.7947 18.875 28.384 18.875 27.5627C18.875 26.8907 18.6125 25.5467 18.275 24.6133C17.5625 22.4853 17.75 21.888 19.7 20.2827C20.525 19.5733 21.6875 18.6027 22.2125 18.1173C24.4625 16.064 26.2625 16.4747 28.1375 19.3493C29.3375 21.2907 29.6 21.4027 29.9 20.208C30.0125 19.76 30.6125 18.9013 31.2125 18.304C32.1125 17.4453 32.675 17.2213 34.1375 17.2213C35.1125 17.184 36.5 17.3707 37.175 17.5947L38.375 18.0427V16.2133C38.375 13.9733 39.35 12.8533 41.2625 12.8533C42.725 12.8533 42.6875 12.8907 41.825 11.2853C41.45 10.6133 41.15 9.792 41.15 9.49334C41.1875 8.82133 43.2125 8.44801 46.4375 8.52267L48.6875 8.56001L48.575 9.75467ZM58.3625 9.60534C59.825 9.94134 60.275 10.24 60.725 11.2107C61.0625 11.8827 61.55 12.5173 61.85 12.6293C62.9375 13.04 62.225 16.736 60.275 20.768C59.5625 22.1493 58.775 23.3067 58.475 23.3067C57.6125 23.3067 56.9375 24.464 56.9375 25.8827C56.9375 27.376 57.125 27.3387 52.625 26.8533C50.525 26.6293 50.525 26.6293 50.0375 25.024C49.7 23.792 49.6625 23.0453 50.0375 21.664C50.7125 19.0133 52.5875 17.8933 56.825 17.632C58.5875 17.52 58.7375 17.2213 57.3875 16.2507C54.5 14.1973 53.3375 8.112 56 8.97067C56.3 9.08267 57.3875 9.344 58.3625 9.60534ZM38 10.2773C38 10.5013 37.625 11.5093 37.2125 12.5173C36.5375 14.048 36.0875 14.5333 34.5875 15.3173C33.5375 15.84 32.1125 16.2133 31.25 16.2133C29.5625 16.2133 27.125 15.3547 27.125 14.7573C27.125 14.3093 29.9375 12.8533 34.0625 11.136C37.2875 9.792 38 9.64267 38 10.2773ZM69.35 16.8853C68.675 18.2293 68.3 18.4907 67.025 18.64C65.2625 18.8267 66.275 16.7733 68.5625 15.5413C69.65 14.944 70.025 15.5787 69.35 16.8853ZM73.0625 16.6987C73.9625 17.184 74.6 17.856 74.675 18.3413C74.8625 19.6107 73.3625 22.1493 72.275 22.4107C71.0375 22.7467 69.35 21.5147 69.2 20.208C69.05 18.976 70.4 15.84 71.075 15.84C71.3375 15.84 72.2375 16.2507 73.0625 16.6987ZM66.6125 19.6853C67.325 19.984 68.1125 20.768 68.5625 21.552C68.975 22.336 69.425 22.9333 69.6125 22.9333C69.8 22.9333 70.925 23.904 72.1625 25.136C74.45 27.376 75.05 28.944 73.775 29.4293C72.8375 29.8027 71.75 29.3547 69.65 27.7493C68.375 26.7787 66.9125 26.1067 65.2625 25.696C63.875 25.36 62.75 24.912 62.75 24.7627C62.75 24.3147 65.075 19.2 65.2625 19.2C65.3375 19.2 65.9375 19.424 66.6125 19.6853ZM78.1625 19.984C79.475 20.9173 79.55 22.0373 78.4625 24.4267C77.6375 26.256 77.1875 26.6667 75.9875 26.6667C73.85 26.6667 72.95 23.8667 74.375 21.5147C74.7875 20.88 74.975 20.32 74.825 20.32C74.4875 20.32 76.325 19.2747 76.7375 19.2373C76.925 19.2 77.5625 19.536 78.1625 19.984ZM41.375 26.032C42.0875 26.2933 42.6125 26.6293 42.5 26.8533C42.3875 27.04 41.4125 27.6 40.25 28.048C39.125 28.5333 37.7375 29.2427 37.175 29.6533C36.2 30.3627 35.375 30.624 35.375 30.2133C35.375 30.1013 35.75 29.2427 36.1625 28.3467C37.4375 25.6587 38.6375 25.0987 41.375 26.032ZM84.9875 27.376C86.3 29.2427 86.6375 30.848 85.85 31.4827C84.3125 32.7893 82.3625 30.3627 82.8125 27.6C82.925 26.6667 83.2625 25.92 83.4875 25.92C83.75 25.92 84.3875 26.592 84.9875 27.376ZM16.9625 30.0267C17.1875 31.072 17.375 32.3787 17.375 32.9013C17.375 33.872 17.375 33.872 18.425 32.5653C19.5125 31.1467 22.475 29.28 23.6 29.28C25.85 29.28 29 33.3493 29 36.2613C29 37.5307 28.8125 37.9787 27.8375 38.7627C26.375 39.9947 24.7625 40.032 23.3 38.8C22.7 38.2773 21.8 37.8667 21.275 37.8667C19.9625 37.8667 14.3375 35.1413 13.2875 34.0213C12.5375 33.2 12.425 32.7893 12.575 31.4453C12.6875 30.5493 13.25 29.0187 13.85 28.0107L14.8625 26.1813L15.725 27.152C16.175 27.6747 16.7375 28.9813 16.9625 30.0267ZM68.5625 28.272C71.6375 30.064 72.125 30.5867 72.125 31.9307C72.125 34.0587 69.275 37.8293 68.7875 36.336C68.5625 35.552 65 32.1173 63.4625 31.2213C61.475 30.0267 60.7625 29.0933 61.025 28.0107C61.2875 26.928 61.9625 26.6667 64.4375 26.816C65.7875 26.8907 66.95 27.3013 68.5625 28.272ZM80.7875 27.8987C81.7625 29.2053 82.2125 31.296 81.7625 32.08C81.5375 32.4907 81.5375 32.8267 81.725 32.9013C83.8625 33.648 84.8 35.2533 84.8375 38.352C84.875 40.144 84.35 41.152 83.1125 41.6373C81.3875 42.272 80.075 41.712 79.625 40.1813C79.1 38.24 79.175 36 79.8125 34.88C80.525 33.6107 80.525 33.4987 79.4375 33.2373C78.35 32.976 77.9375 31.744 78.3125 29.7653C78.8375 27.0027 79.6625 26.368 80.7875 27.8987ZM76.7375 32.4533C77.8625 34.8053 77.4125 36.3733 75.6125 36.3733C74.525 36.3733 73.85 35.104 74.1125 33.4987C74.5625 30.9227 75.7625 30.4373 76.7375 32.4533ZM88.925 35.2907C90.1625 38.7253 90.05 39.36 88.325 39.36C86.1875 39.36 84.95 37.3067 85.4375 34.4693C85.7 32.864 86.975 31.2213 87.5 31.744C87.65 31.9307 88.2875 33.536 88.925 35.2907ZM53.8625 33.6107C59.225 34.992 63.275 38.128 65.4125 42.608C66.5 44.8853 66.65 45.5573 66.8 49.2533C66.9125 52.7627 66.8375 53.7333 66.125 55.7867C63.7625 62.9173 58.325 67.0613 50.375 67.8827C40.3625 68.8907 32 60.9013 31.925 50.1867C31.85 45.3333 33.3875 41.7493 37.2125 37.7547C41.1125 33.6107 47.6375 32.0053 53.8625 33.6107ZM77.5625 37.6427C78.65 38.7253 79.3625 41.1893 79.0625 42.8693C78.875 43.8027 78.5 44.2507 77.525 44.6987C74.9375 45.9307 73.2875 43.8773 73.7375 39.9947C74.1125 36.896 75.7625 35.888 77.5625 37.6427ZM14.9375 39.5467C18.8 40.4427 23.45 42.5707 24.4625 43.8027C25.2875 44.8853 25.2875 44.96 24.65 44.96C24.2375 44.96 22.8125 44.6987 21.425 44.3627C19.325 43.84 18.7625 43.84 18.3125 44.2133C17.975 44.4747 17.825 44.96 17.9375 45.296C18.05 45.5947 18.05 45.744 17.9 45.632C17.7875 45.4827 17.0375 45.7813 16.2875 46.2667C15.1625 47.0507 14.525 47.2 12.125 47.2C10.5875 47.2 9.0875 47.0507 8.825 46.864C8.1125 46.416 8.75 43.2053 9.5375 43.4293C9.8375 43.504 10.7 43.728 11.45 43.9147C12.95 44.3253 14.75 44.064 14.75 43.4667C14.75 42.8693 13.0625 41.936 11.525 41.712C9.7625 41.4507 9.35 40.9653 10.175 40.1067C11.375 38.8747 11.9375 38.8373 14.9375 39.5467ZM90.0125 40.4053C90.275 40.592 90.725 42.0107 90.9875 43.5787C91.5875 46.976 91.7375 46.8267 87.35 46.8267C84.9875 46.8267 83.6 47.0507 81.5375 47.76C78.9125 48.6933 77.7875 48.6933 76.7375 47.872C75.9125 47.2 77.375 45.5573 80 44.288C81.3875 43.6533 82.7375 43.0933 82.9625 43.0933C83.225 43.0933 83.825 42.6827 84.3125 42.1973C84.8 41.712 85.5875 41.04 86.075 40.704C86.975 40.0693 89.225 39.92 90.0125 40.4053ZM22.625 45.8933C23.15 46.192 24.05 46.416 24.65 46.4533C25.6625 46.4533 25.7 46.528 25.475 47.6107C25.3625 48.2453 25.25 49.0293 25.25 49.328C25.25 49.7387 25.1 49.7387 24.5 49.44C24.0875 49.216 23.525 49.1413 23.3 49.2907C23.0375 49.44 23 49.4027 23.15 49.1413C23.3375 48.8427 23.0375 48.6933 22.25 48.6933C20.7875 48.6933 19.025 47.7973 18.5 46.8267C18.1625 46.192 18.2375 46.0053 18.95 45.7067C20.1875 45.2213 21.575 45.296 22.625 45.8933ZM88.775 48.1333C90.725 49.0667 91.4 50.5973 91.1375 53.6213C91.025 55.04 90.725 56.4213 90.5375 56.6827C90.3125 56.944 89.375 57.504 88.4 57.9893C86.2625 59.072 84.575 58.9227 81.575 57.392C79.0625 56.16 78.0125 54.592 78.0125 52.1653C78.0125 50 78.8 49.2533 82.0625 48.3573C85.325 47.4613 87.2375 47.424 88.775 48.1333ZM21.3125 49.9627C22.3625 50.224 23.75 50.7093 24.425 51.0827C25.475 51.6053 25.625 51.904 25.625 53.136C25.625 54.8533 25.2125 55.04 21.4625 55.04C17.1875 55.04 15.0875 53.92 15.425 51.7173C15.6125 50.4107 16.0625 49.9627 17.375 49.7013C19.025 49.4027 19.4 49.44 21.3125 49.9627ZM75.875 53.0613C77 55.3013 77.075 58.0267 76.025 60.0053L75.275 61.3867L73.8875 60.1173C72.275 58.6613 72.2375 58.288 73.1 53.5093C73.6625 50.4107 73.775 50.1867 74.375 50.7467C74.7125 51.0453 75.3875 52.0907 75.875 53.0613ZM15.05 55.4507C18.65 56.7573 19.3625 56.832 22.4375 56.272C24.0125 55.9733 25.5125 55.824 25.775 55.8987C26.0375 56.0107 26.45 56.832 26.7125 57.6907C26.975 58.5867 27.5375 59.9307 27.9125 60.6773L28.5875 62.0213L26.4125 62.5067C23.9 63.0293 22.2125 62.656 20.45 61.2373C18.725 59.7813 17.975 59.5573 14.9 59.632C11.75 59.6693 10.325 59.184 9.275 57.6907C8.3 56.3093 9.7625 54.7413 12.05 54.704C12.5 54.6667 13.85 55.0027 15.05 55.4507ZM86.8625 60.752C87.5375 61.0507 88.2875 61.536 88.55 61.872C89.7125 63.2533 86.75 65.4187 84.3125 64.9707C82.925 64.7093 78.4625 62.9547 77.975 62.5067C77.675 62.208 79.4 61.088 80.9375 60.6027C82.2875 60.1547 85.625 60.2667 86.8625 60.752ZM18.1625 61.76C19.475 62.208 21.575 63.216 22.8125 64C26.9375 66.688 28.85 67.472 30.725 67.1733C32.375 66.9493 32.4875 66.9867 34.85 69.04C36.5375 70.5333 37.25 71.4293 37.25 72.0267C37.25 74.0427 34.0625 74.2293 29.525 72.512L26.375 71.3547L22.5875 71.84C18.7625 72.3627 16.625 72.176 13.925 71.1307C12.875 70.72 10.4 66.7627 9.875 64.6347C9.725 63.9627 9.4625 63.1413 9.3125 62.8053C9.125 62.2827 9.425 62.0587 10.8875 61.6107C13.4 60.864 15.425 60.9013 18.1625 61.76ZM74.6 65.008C76.5125 66.5013 77.3 66.8747 79.7 67.5467C81.0875 67.92 82.325 68.5547 83.225 69.4133C84.5 70.608 84.575 70.832 84.425 72.3627C84.3125 73.2587 83.825 74.5653 83.3375 75.2373L82.475 76.4693L81.95 75.1627C81.3125 73.632 80.45 72.5867 79.7375 72.5867C79.0625 72.5867 79.1 75.1253 79.8125 76.8053C80.1125 77.552 80.375 78.2613 80.375 78.4107C80.375 78.5227 79.6625 79.3067 78.8 80.128L77.1875 81.6587L77.075 79.8293C77 78.784 76.6625 77.6267 76.2875 77.104L75.575 76.208L75.125 77.104C74.8625 77.5893 74.525 79.3067 74.4125 80.9493C74.225 83.5253 74.075 83.9733 73.25 84.5707C72.2 85.3547 70.4 85.6907 70.475 85.0933C70.5125 84.8693 70.6625 84.0107 70.8125 83.1893C71 81.9573 70.925 81.584 70.475 81.4347C69.725 81.136 68.5625 82.3307 67.4 84.608C66.35 86.6987 66.0875 86.8853 64.925 86.4373C64.4375 86.2507 63.6125 85.9893 63.0875 85.8773C62.4125 85.728 62 85.3547 61.85 84.6827C61.625 83.8613 61.775 83.5253 62.6375 82.8907C64.325 81.584 65.75 80.128 65.75 79.68C65.75 79.3813 65.1125 79.2693 63.8 79.3813L61.8875 79.4933L61.4 77.7013C61.1375 76.656 61.1 75.872 61.2875 75.7227C61.475 75.6107 62.6 75.4613 63.8 75.424C66.2 75.312 68 74.6027 68 73.8187C68 73.3707 67.5125 73.296 65.675 73.4453C64.3625 73.52 62.9 73.744 62.4125 73.8933C61.55 74.192 61.5125 74.1547 61.775 72.736C62.1875 70.5333 62.75 70.1973 66.2 69.936C68.5625 69.7867 69.35 69.5627 69.7625 69.0027C70.2125 68.4053 70.175 68.256 69.6125 67.8453C69.275 67.584 68.6 67.36 68.1125 67.36C66.9125 67.36 67.025 66.8747 68.75 65.0827C70.1375 63.6267 70.325 63.552 71.75 63.7387C72.6125 63.8507 73.85 64.3733 74.6 65.008ZM58.475 74.2667C59.225 76.0587 59.1875 76.1333 57.5 76.88C56.675 77.2533 56 77.7387 56 77.9253C56 78.1493 55.8875 78.1867 55.7375 78.0747C55.5875 77.9253 55.025 78.2613 54.425 78.8213C53.3375 79.8293 53 81.5467 53.8625 81.5467C54.4625 81.5467 57.6875 79.568 58.025 78.9707C58.175 78.7467 58.5875 78.56 58.9625 78.56C59.4875 78.56 59.7875 79.0827 60.2375 80.8373C60.875 83.376 61.175 83.0027 57.425 84.3467C55.1 85.168 53.9375 86.1013 54.2375 86.8853C54.575 87.7813 57.35 87.7067 59.075 86.7733C59.9 86.3253 60.575 86.176 60.6875 86.4C61.0625 86.9973 60.9875 89.7973 60.6125 90.1707C60.4625 90.32 58.55 90.768 56.4125 91.104C52.5875 91.7013 51.9875 91.7013 44.75 90.9173C42.9875 90.7307 41.375 90.544 41.1125 90.544C39.9875 90.4693 38 88.1547 37.3625 86.176C36.725 84.16 36.725 84.1227 37.7 82.2187L38.6375 80.2773L39.575 81.7333C40.7 83.488 41.6375 84.3467 42.8 84.6827C43.5125 84.944 43.625 84.832 43.625 83.824C43.625 82.4053 42.3125 79.008 41.3375 77.9627C40.4 76.9547 40.4375 76.2453 41.5625 75.0507C42.6875 73.8187 44 73.744 44.0375 74.9013C44.0375 75.3867 44.4875 76.6933 45.05 77.8133C45.8 79.344 46.2875 79.904 46.9625 79.9787C47.7875 80.128 47.8625 80.016 47.6375 78.5973C47.525 77.776 47.1875 76.5813 46.85 75.9093C46.5125 75.2373 46.25 74.6027 46.25 74.4533C46.25 74.304 47.975 74.1547 50.1125 74.1547C52.4 74.1547 54.6125 73.9307 55.625 73.5947C57.95 72.8107 57.8375 72.8107 58.475 74.2667ZM19.2875 74.6773C20.75 75.9093 21.05 75.984 22.775 75.8347C23.825 75.76 25.625 75.3867 26.75 75.0507C29.45 74.2667 33.725 74.8267 35.225 76.1707L36.1625 77.0667L34.775 79.68C32.7875 83.4507 31.8875 84.2347 29.75 84.048C27.9875 83.8987 24.0125 82.144 22.0625 80.6133C20.3 79.3067 15.125 74.1173 15.125 73.7067C15.125 73.52 15.6875 73.3333 16.4 73.3333C17.3 73.3333 18.125 73.7067 19.2875 74.6773Z" fill="white"/>
<path d="M23.4875 58.661C22.6625 58.9597 22.9625 59.445 24.1625 59.8557C24.9875 60.117 25.55 60.1544 26.075 59.8557C27.575 59.0344 25.2125 57.9517 23.4875 58.661Z" fill="#ECECEC"/>
<path d="M12.5749 65.0452C11.8249 65.5679 14.0374 67.2479 16.4374 67.9199C18.1624 68.4426 18.7624 68.4799 19.6624 68.1066C20.2624 67.8452 20.7499 67.5092 20.7499 67.3599C20.7499 66.1652 13.8499 64.1866 12.5749 65.0452Z" fill="#ECECEC"/>
<path d="M27.125 78.5224L26.1875 79.3064L27.2 80.2024C29.075 81.8824 32.75 81.8078 32.75 80.0904C32.75 78.1864 28.8125 77.1038 27.125 78.5224Z" fill="#ECECEC"/>
</g>
<defs>
<clipPath id="clip0_23_658">
<rect width="84" height="84" fill="white" transform="translate(8 8)"/>
</clipPath>
</defs>
</svg>
