<svg width="100" height="100" viewBox="0 0 100 100" fill="none" xmlns="http://www.w3.org/2000/svg">
<rect width="100" height="100" fill="white"/>
<path d="M48.5566 46.3075L38.3434 34.4837C38.0855 34.1851 37.6388 34.141 37.3275 34.3836L13.1849 53.1972C12.3697 53.8325 12.9545 55.1348 13.971 54.9475L47.7039 48.7329C48.8298 48.5254 49.305 47.1738 48.5566 46.3075Z" fill="#EE1B24"/>
<path d="M51.814 46.3075L62.0272 34.4837C62.2851 34.1851 62.7318 34.141 63.0431 34.3836L87.1857 53.1972C88.0009 53.8325 87.4161 55.1348 86.3996 54.9475L52.6667 48.7329C51.5408 48.5254 51.0656 47.1738 51.814 46.3075Z" fill="#EE1B24"/>
<path d="M49.5393 20.4058C49.7354 20.1887 50.0762 20.1887 50.2722 20.4058L61.1176 32.4144C61.2874 32.6024 61.2874 32.8884 61.1176 33.0764L50.2722 45.085C50.0762 45.3021 49.7354 45.3021 49.5393 45.085L38.6939 33.0764C38.5241 32.8884 38.5241 32.6024 38.6939 32.4144L49.5393 20.4058Z" fill="#EFEF4B"/>
<path d="M10 59.7529H14.3086C15.1615 59.7529 15.7962 59.7894 16.2129 59.8623C16.6344 59.9304 17.0094 60.0762 17.3378 60.2998C17.6711 60.5234 17.9481 60.8223 18.1686 61.1966C18.3892 61.5661 18.4995 61.9817 18.4995 62.4435C18.4995 62.9441 18.3623 63.4035 18.0878 63.8215C17.8182 64.2396 17.4506 64.5531 16.9849 64.7621C17.6417 64.9517 18.1466 65.275 18.4995 65.7319C18.8524 66.1888 19.0289 66.7259 19.0289 67.3433C19.0289 67.8294 18.9137 68.3033 18.6833 68.7651C18.4578 69.222 18.1466 69.589 17.7496 69.8661C17.3574 70.1383 16.8722 70.306 16.2938 70.3692C15.931 70.4081 15.0561 70.4324 13.6689 70.4421H10V59.7529ZM12.1763 61.532V64.0038H13.6027C14.4507 64.0038 14.9777 63.9917 15.1835 63.9674C15.5561 63.9236 15.8477 63.7972 16.0585 63.5882C16.2741 63.3743 16.382 63.0948 16.382 62.7497C16.382 62.4192 16.2889 62.1518 16.1026 61.9476C15.9212 61.7386 15.6492 61.6122 15.2865 61.5685C15.0708 61.5442 14.4507 61.532 13.4263 61.532H12.1763ZM12.1763 65.7829V68.6412H14.1909C14.9752 68.6412 15.4727 68.6193 15.6835 68.5755C16.007 68.5172 16.2692 68.3762 16.4702 68.1526C16.6761 67.9242 16.779 67.6204 16.779 67.2412C16.779 66.9204 16.7006 66.6482 16.5437 66.4246C16.3869 66.201 16.159 66.0381 15.86 65.936C15.5659 65.834 14.9237 65.7829 13.9336 65.7829H12.1763Z" fill="#293983"/>
<path d="M22.4037 65.0611L20.5288 64.7257C20.7396 63.9771 21.1023 63.4229 21.617 63.0632C22.1317 62.7035 22.8963 62.5237 23.911 62.5237C24.8325 62.5237 25.5187 62.633 25.9697 62.8518C26.4206 63.0657 26.7368 63.3403 26.9181 63.6757C27.1044 64.0063 27.1975 64.6163 27.1975 65.5059L27.1755 67.8974C27.1755 68.578 27.2073 69.0811 27.2711 69.4068C27.3397 69.7276 27.4647 70.0727 27.646 70.4421H25.602C25.5481 70.306 25.482 70.1043 25.4035 69.8369C25.3692 69.7154 25.3447 69.6352 25.33 69.5963C24.9771 69.9366 24.5996 70.1918 24.1977 70.3619C23.7958 70.5321 23.3669 70.6171 22.911 70.6171C22.1071 70.6171 21.4724 70.4008 21.0067 69.9682C20.546 69.5356 20.3156 68.9887 20.3156 68.3276C20.3156 67.8901 20.421 67.5013 20.6317 67.161C20.8425 66.8159 21.1366 66.5534 21.514 66.3735C21.8964 66.1888 22.4454 66.0284 23.161 65.8923C24.1266 65.7124 24.7957 65.5447 25.1682 65.3892V65.185C25.1682 64.7913 25.0702 64.5118 24.8741 64.3465C24.6781 64.1764 24.308 64.0913 23.7639 64.0913C23.3963 64.0913 23.1095 64.1642 22.9037 64.3101C22.6978 64.451 22.5311 64.7014 22.4037 65.0611ZM25.1682 66.7235C24.9036 66.811 24.4845 66.9155 23.911 67.037C23.3375 67.1586 22.9625 67.2777 22.786 67.3943C22.5164 67.5839 22.3816 67.8245 22.3816 68.1162C22.3816 68.403 22.4895 68.6509 22.7052 68.8599C22.9208 69.0689 23.1953 69.1734 23.5286 69.1734C23.9012 69.1734 24.2565 69.0519 24.5947 68.8089C24.8447 68.6241 25.0089 68.3981 25.0874 68.1308C25.1413 67.9558 25.1682 67.6228 25.1682 67.1318V66.7235Z" fill="#293983"/>
<path d="M36.3441 70.4421H34.278V66.4902C34.278 65.6541 34.2339 65.1145 34.1457 64.8715C34.0574 64.6236 33.9128 64.4316 33.7119 64.2955C33.5158 64.1594 33.2781 64.0913 32.9987 64.0913C32.6409 64.0913 32.3198 64.1885 32.0355 64.383C31.7512 64.5774 31.5551 64.835 31.4473 65.1559C31.3444 65.4767 31.2929 66.0697 31.2929 66.935V70.4421H29.2268V62.6987H31.1458V63.8361C31.8272 62.9611 32.685 62.5237 33.7192 62.5237C34.1751 62.5237 34.5917 62.6063 34.9692 62.7716C35.3466 62.932 35.6309 63.1386 35.822 63.3913C36.0181 63.6441 36.1529 63.9309 36.2264 64.2517C36.3049 64.5726 36.3441 65.0319 36.3441 65.6298V70.4421Z" fill="#293983"/>
<path d="M38.3734 70.4421V59.7529H40.4394V65.4256L42.8584 62.6987H45.4024L42.7334 65.5277L45.5935 70.4421H43.3657L41.4026 66.9641L40.4394 67.9631V70.4421H38.3734Z" fill="#293983"/>
<path d="M60.1956 70.4421H57.8281L56.887 68.0141H52.5784L51.6888 70.4421H49.3801L53.5784 59.7529H55.8797L60.1956 70.4421ZM56.1885 66.2131L54.7033 62.2466L53.2475 66.2131H56.1885Z" fill="#EE1B24"/>
<path d="M61.3426 70.4421V68.3932H63.4087V70.4421H61.3426Z" fill="#EE1B24"/>
<path d="M65.5703 70.4421V59.7529H67.6879L72.0994 66.8912V59.7529H74.1213V70.4421H71.9376L67.5923 63.4715V70.4421H65.5703Z" fill="#EE1B24"/>
<path d="M76.4153 70.4421V68.3932H78.4814V70.4421H76.4153Z" fill="#EE1B24"/>
<path d="M80.6503 70.4421V59.7529H82.8267V64.4996L87.2235 59.7529H90.1498L86.0912 63.9163L90.3704 70.4421H87.5544L84.5913 65.4256L82.8267 67.212V70.4421H80.6503Z" fill="#EE1B24"/>
<rect x="10" y="73.5801" width="80.3704" height="0.740741" fill="#EE1B24"/>
</svg>
