<svg width="100" height="100" viewBox="0 0 100 100" fill="none" xmlns="http://www.w3.org/2000/svg">
<rect width="100" height="100" fill="white"/>
<g clip-path="url(#clip0_23_660)">
<path d="M82.0566 30.997C81.5571 31.996 79.8088 34.8266 78.1021 37.3657C66.2389 55.1815 52.6689 65.5878 39.9732 66.5869C31.981 67.2112 25.8621 64.2142 23.1564 58.2618C22.0742 55.8891 21.9493 55.1815 21.8244 49.9783C21.6579 43.4431 21.2833 42.6522 19.3269 44.0674C17.6202 45.3162 16.3298 48.23 16.4547 50.4778C16.4963 51.5184 16.7045 52.4758 16.9126 52.6423C17.1207 52.7672 16.9959 53.3499 16.6212 53.9743C16.1217 54.682 16.0801 55.0982 16.3715 55.3063C16.7045 55.5145 16.7045 55.681 16.3298 55.8891C15.6638 56.3054 16.9126 61.0507 18.2446 63.0903C20.9503 67.2112 27.7769 69.792 33.9791 69.0428C35.6025 68.8346 36.3101 68.5433 36.3101 68.127C36.3101 67.794 36.5182 67.5442 36.7264 67.5442C36.9761 67.5442 37.1426 67.7107 37.1426 67.9605C37.1426 68.1686 37.434 68.3768 37.767 68.3768C38.1 68.3768 38.3914 68.2103 38.3914 68.0438C38.3914 67.8356 39.5985 67.6691 41.0554 67.6691C42.5956 67.6275 44.2606 67.3361 44.9266 67.0031C45.551 66.6701 47.5074 66.0457 49.214 65.6711C52.2943 65.0051 55.0416 63.6731 55.0416 62.9238C55.0416 62.7157 55.4995 62.5492 56.0406 62.5492C56.5817 62.5492 57.1229 62.2578 57.2894 61.9248C57.4143 61.5918 57.9138 61.3004 58.3716 61.3004C58.8295 61.3004 59.329 61.009 59.4539 60.676C59.6204 60.343 59.9534 60.0516 60.2864 60.0516C60.6194 60.0516 61.5352 59.3024 62.3677 58.3866C63.2002 57.4709 64.0743 56.7216 64.2825 56.7216C65.0317 56.7216 67.8623 54.2241 72.8989 49.1041C79.3509 42.5273 80.4332 41.0704 79.6007 40.2379C79.1844 39.8216 80.0169 36.7413 80.5164 36.7413C80.7245 36.7413 80.8494 36.45 80.8494 36.117C80.8494 35.3677 83.3886 29.998 83.9713 29.5818C84.2211 29.3736 84.0546 29.2487 83.68 29.2487C83.2221 29.2487 82.5977 29.9564 82.0566 30.997Z" fill="#C11540"/>
<path fill-rule="evenodd" clip-rule="evenodd" d="M56.9151 52.8088C58.5801 50.6027 56.6653 46.1904 53.2937 44.4005C52.0449 43.7345 50.5464 43.6512 49.6723 44.1923C49.0062 44.6502 49.3809 44.8583 51.3789 45.233C53.1688 45.566 54.6257 47.1477 54.6257 48.7295C54.6257 51.6849 49.9636 57.0963 45.7178 59.0527C41.3888 61.0091 36.1023 61.1756 34.7287 59.344C34.3957 58.8861 34.2708 58.0536 34.3957 57.1795C34.8119 54.4322 37.143 49.8118 37.143 51.7266C37.143 51.9347 37.3511 52.1428 37.5592 52.1428C37.809 52.1428 37.9755 51.6849 37.9755 51.1438C37.9755 50.3529 38.2669 50.0615 39.1826 49.8534C39.8486 49.7285 40.6395 49.3123 40.9309 48.9793C41.1806 48.6463 41.6385 48.3965 41.9299 48.3965C42.2213 48.3965 43.0122 48.1051 43.6366 47.7721L44.8437 47.1477H43.8031C41.9299 47.1477 39.8903 47.9386 38.0171 49.4372C37.0181 50.228 36.0191 50.7692 35.8109 50.6443C35.1866 50.228 32.5642 53.0169 32.5642 54.0992C32.5642 54.7652 32.3977 54.9734 31.9398 54.8068C31.1073 54.4738 31.0656 57.1379 31.8981 58.7196C33.1469 61.1339 34.4789 61.9248 37.3927 62.0081C38.8496 62.0497 40.7644 61.8832 41.6385 61.6751C45.3848 60.7177 47.8824 59.8019 49.5474 58.7196C50.5464 58.0953 51.5038 57.5541 51.7119 57.5541C51.92 57.5541 52.7942 56.8881 53.6267 56.0972C54.4592 55.2647 55.2501 54.7236 55.4166 54.8485C55.5415 55.015 54.6257 56.014 53.3769 57.1379C52.1698 58.3034 51.254 59.344 51.4205 59.4689C51.5454 59.6354 52.7109 58.8445 53.9597 57.7206C55.5415 56.3054 56.2491 55.348 56.2907 54.6403C56.2907 54.0576 56.5821 53.2251 56.9151 52.8088ZM32.5642 56.5551C32.5642 56.1389 34.3124 52.3509 34.7287 51.8514C35.4363 50.9773 35.6028 51.2271 34.9784 52.2261C34.6454 52.7672 34.1459 53.9743 33.8962 54.9317C33.6048 55.9307 33.1885 56.7216 32.9804 56.7216C32.7307 56.7216 32.5642 56.6384 32.5642 56.5551Z" fill="#FCBE57"/>
</g>
<defs>
<clipPath id="clip0_23_660">
<rect width="74.0935" height="44.5393" fill="white" transform="translate(13 28)"/>
</clipPath>
</defs>
</svg>
