<svg width="100" height="100" viewBox="0 0 100 100" fill="none" xmlns="http://www.w3.org/2000/svg">
<rect width="100" height="100" fill="white"/>
<path d="M15.725 38.4125C15.4625 38.6125 15.0875 39.4 14.2625 41.4375C12.925 44.7625 11.0625 49.3625 8.95 54.5625C8.0875 56.6875 7.375 58.525 7.375 58.65C7.375 58.775 7.5125 58.9625 7.6875 59.075C8.1875 59.4 8.45 59.1875 8.925 58.1C9.6625 56.4125 11.525 54.2375 13.1375 53.2125C13.925 52.7125 19.0125 49.875 19.1125 49.875C19.15 49.875 19.575 50.85 20.05 52.0375C22.6875 58.575 22.775 58.7625 23.175 59.0125C23.4 59.15 23.8 59.25 24.1 59.25C24.5625 59.25 24.725 59.175 25.075 58.825C25.4875 58.4125 25.5625 58.1875 25.5 57.5C25.4875 57.325 24.6875 55.25 23.725 52.875C22.7625 50.5 21.9375 48.475 21.9125 48.3625C21.875 48.225 22.125 47.975 22.7 47.5625C23.1625 47.2375 23.9125 46.6 24.375 46.1625C24.8375 45.7375 25.25 45.375 25.2875 45.375C25.3125 45.375 25.3875 45.5875 25.4375 45.8375C25.55 46.45 25.7 46.625 26.1375 46.625C26.7125 46.625 26.8 46.2875 26.55 45.075L26.3375 44.0375L26.9125 43.325C27.2375 42.925 27.5 42.55 27.5 42.475C27.5 42.15 27.2125 41.875 26.8875 41.875C26.6 41.875 26.425 42.0125 26.0125 42.55L25.5 43.2125L24.4125 43.0375C23.2 42.85 22.9125 42.8875 22.8 43.3125C22.675 43.8375 22.925 44.1 23.6875 44.1875C24.0625 44.2375 24.4 44.325 24.4375 44.3625C24.5625 44.575 21.5875 47.075 21.375 46.9375C21.3125 46.9 21.15 46.575 21.0125 46.2125C20.6125 45.15 18.25 39.35 18.0375 38.9C17.6625 38.1125 16.4 37.85 15.725 38.4125ZM16.85 44.125C17.3375 45.325 17.95 46.85 18.225 47.525L18.725 48.725L16.2625 50.075C13.2 51.7625 12.3375 52.275 11.625 52.8625C10.95 53.425 10.675 53.6 10.8 53.3875C10.875 53.2625 13.6125 46.55 15.225 42.5375C15.7625 41.175 15.6 41.0125 16.85 44.125Z" fill="#BA3539"/>
<path d="M52.2751 44.2749C52.3126 44.3624 52.5126 44.4499 52.7251 44.4749L53.1251 44.5124V45.5124C53.1251 46.2624 53.1626 46.5124 53.2876 46.4749C53.3876 46.4374 53.4501 46.0874 53.4751 45.4624C53.5126 44.5374 53.5251 44.5124 53.8376 44.4749C54.0251 44.4499 54.1876 44.3624 54.2251 44.2749C54.2626 44.1624 54.0126 44.1249 53.2501 44.1249C52.4876 44.1249 52.2376 44.1624 52.2751 44.2749Z" fill="#BA3539"/>
<path d="M54.375 45.3125C54.375 46.2625 54.4125 46.5 54.55 46.5C54.6875 46.5 54.75 46.325 54.775 45.925C54.85 44.8375 55.625 44.875 55.625 45.95C55.625 46.35 55.675 46.5 55.8125 46.5C55.9625 46.5 56 46.3375 56 45.8125C56 45.225 55.9625 45.1 55.6875 44.925C55.5125 44.8125 55.2375 44.75 55.0625 44.775C54.7875 44.8375 54.75 44.8 54.75 44.4875C54.75 44.25 54.6875 44.125 54.5625 44.125C54.4125 44.125 54.375 44.3375 54.375 45.3125Z" fill="#BA3539"/>
<path d="M59.1376 44.2999C59.0501 44.3999 59.0001 44.6374 59.0251 44.8374C59.0501 45.1249 59.1626 45.2124 59.6251 45.3749C60.0376 45.5124 60.1876 45.6374 60.1876 45.8124C60.1876 46.1499 59.6751 46.2124 59.3626 45.9249C59.1626 45.7499 59.0876 45.7374 58.9626 45.8624C58.8501 45.9874 58.8751 46.0624 59.1126 46.2624C59.6876 46.7249 60.6251 46.4499 60.6251 45.7999C60.6251 45.4249 60.4626 45.2624 59.9376 45.0874C59.4126 44.8999 59.2751 44.5999 59.6751 44.5249C59.8001 44.4999 60.0376 44.5499 60.2001 44.6374C60.5876 44.8374 60.7251 44.6874 60.4376 44.3749C60.1626 44.0749 59.3626 44.0374 59.1376 44.2999Z" fill="#BA3539"/>
<path d="M61 45.325C61 46.225 61.0375 46.5125 61.1625 46.475C61.2375 46.4375 61.3375 46.15 61.375 45.8125L61.4375 45.2125L61.7125 45.8C61.875 46.1125 62.075 46.375 62.1625 46.375C62.25 46.375 62.475 46.075 62.65 45.7125L62.9875 45.0625V45.775C63 46.3375 63.0375 46.5 63.1875 46.5C63.3375 46.5 63.375 46.2875 63.375 45.3125C63.375 43.825 63.1875 43.75 62.575 44.9625L62.15 45.8125L61.7375 44.9625C61.15 43.775 61 43.85 61 45.325Z" fill="#BA3539"/>
<path d="M63.9749 45.2122C63.6624 45.9622 63.5624 46.3497 63.6499 46.4372C63.7374 46.5247 63.8374 46.4747 63.9624 46.2747C64.2249 45.8997 65.0749 45.8747 65.1874 46.2497C65.2749 46.5247 65.6249 46.5997 65.6249 46.3372C65.6124 45.9997 64.7624 44.1872 64.5999 44.1497C64.4749 44.1247 64.2749 44.4872 63.9749 45.2122ZM64.8124 45.3372C64.8749 45.5872 64.8499 45.6247 64.5749 45.6247C64.2749 45.6247 64.2749 45.5997 64.3999 45.2372C64.5374 44.8372 64.6624 44.8747 64.8124 45.3372Z" fill="#BA3539"/>
<path d="M65.875 45.3125C65.875 46.225 65.9125 46.5125 66.0375 46.475C66.1125 46.4375 66.2 46.2375 66.225 46.025C66.275 45.5 66.4875 45.525 66.85 46.0625C67 46.3 67.1875 46.5 67.25 46.5C67.425 46.5 67.4 46.1 67.2 45.8375C67.05 45.6375 67.05 45.55 67.225 45.2375C67.4125 44.9125 67.425 44.85 67.25 44.5375C67.0875 44.2375 66.9625 44.1875 66.4625 44.15L65.875 44.1125V45.3125ZM66.875 44.6875C67.075 44.925 66.8375 45.25 66.4875 45.25C66.3125 45.25 66.25 45.1625 66.25 44.875C66.25 44.5875 66.3125 44.5 66.4875 44.5C66.6125 44.5 66.7875 44.5875 66.875 44.6875Z" fill="#BA3539"/>
<path d="M67.375 44.3124C67.375 44.4374 67.5 44.4999 67.75 44.4999H68.1125L68.15 45.4624C68.175 46.0874 68.2375 46.4374 68.35 46.4749C68.4625 46.5124 68.5 46.2624 68.5 45.5124V44.5124L68.9 44.4749C69.1125 44.4499 69.3125 44.3624 69.35 44.2749C69.3875 44.1624 69.1375 44.1249 68.3875 44.1249C67.575 44.1249 67.375 44.1624 67.375 44.3124Z" fill="#BA3539"/>
<path d="M70.1751 44.4625C70.4751 45.6625 70.7751 46.5 70.9376 46.5C71.0376 46.5 71.1626 46.2375 71.2626 45.8125C71.3501 45.4375 71.4501 45.125 71.5001 45.125C71.5501 45.125 71.6501 45.4375 71.7376 45.8125C71.9626 46.8 72.1751 46.7 72.5501 45.45C72.9251 44.2375 72.9376 44.125 72.7001 44.125C72.6001 44.125 72.4501 44.4375 72.3126 44.9L72.0876 45.6875L71.8751 44.9375C71.7501 44.5 71.6001 44.1875 71.5001 44.1875C71.4001 44.1875 71.2501 44.5 71.1251 44.9375L70.9126 45.6875L70.6876 44.9C70.5501 44.4 70.4001 44.125 70.2876 44.125C70.1501 44.125 70.1251 44.2125 70.1751 44.4625Z" fill="#BA3539"/>
<path d="M76.9001 44.2749C76.9376 44.3624 77.1001 44.4499 77.2876 44.4749C77.6001 44.5124 77.6126 44.5374 77.6501 45.4624C77.6751 46.0874 77.7376 46.4374 77.8501 46.4749C77.9626 46.5124 78.0001 46.2624 78.0001 45.5124V44.5124L78.4001 44.4749C78.6126 44.4499 78.8126 44.3624 78.8501 44.2749C78.8876 44.1624 78.6376 44.1249 77.8751 44.1249C77.1126 44.1249 76.8626 44.1624 76.9001 44.2749Z" fill="#BA3539"/>
<path d="M81.1501 44.2749C81.1876 44.3624 81.3876 44.4499 81.6001 44.4749L82.0001 44.5124V45.5124C82.0001 46.2624 82.0376 46.5124 82.1626 46.4749C82.2626 46.4374 82.3251 46.0874 82.3501 45.4624C82.3876 44.5374 82.4001 44.5124 82.7126 44.4749C82.9001 44.4499 83.0626 44.3624 83.1001 44.2749C83.1376 44.1624 82.8876 44.1249 82.1251 44.1249C81.3626 44.1249 81.1126 44.1624 81.1501 44.2749Z" fill="#BA3539"/>
<path d="M83.375 45.3C83.375 46.0125 83.425 46.5 83.5 46.5C83.575 46.5 83.625 46.3 83.625 46.0625C83.625 45.725 83.675 45.625 83.85 45.625C83.975 45.625 84.175 45.8125 84.3 46.0625C84.4875 46.4 84.6125 46.5 84.8875 46.5C85.125 46.5 85.2625 46.425 85.3125 46.25C85.425 45.875 86.275 45.9 86.5375 46.275C86.6625 46.4625 86.7625 46.525 86.85 46.4375C87.0125 46.275 86.1375 44.125 85.9125 44.125C85.8125 44.125 85.7 44.25 85.6375 44.4C85.575 44.5625 85.375 45.025 85.1875 45.4375C84.8625 46.175 84.85 46.175 84.7 45.8875C84.5625 45.6375 84.5625 45.5375 84.7375 45.2375C84.9125 44.9125 84.925 44.85 84.75 44.5375C84.5875 44.2375 84.4625 44.1875 83.9625 44.15L83.375 44.1125V45.3ZM84.375 44.6875C84.5875 44.9375 84.3375 45.25 83.925 45.25C83.675 45.25 83.625 45.1875 83.625 44.875C83.625 44.5625 83.675 44.5 83.925 44.5C84.0875 44.5 84.2875 44.5875 84.375 44.6875ZM85.975 45.6C85.6375 45.6625 85.6 45.5875 85.7625 45.175L85.9 44.8125L86.0625 45.1875C86.2125 45.525 86.2125 45.5625 85.975 45.6Z" fill="#BA3539"/>
<path d="M86.7124 44.2125C86.6124 44.375 87.5624 46.4375 87.7374 46.4375C87.8874 46.4375 88.7499 44.6125 88.7499 44.2875C88.7499 44.2 88.6624 44.125 88.5624 44.125C88.4624 44.125 88.3749 44.175 88.3749 44.2375C88.3749 44.3 88.2249 44.675 88.0499 45.075L87.7249 45.8125L87.3874 45C87.0624 44.25 86.8499 43.9875 86.7124 44.2125Z" fill="#BA3539"/>
<path d="M89 45.3125V46.5H89.875C90.575 46.5 90.75 46.4625 90.75 46.3125C90.75 46.1625 90.5875 46.125 90.0625 46.125C89.4125 46.125 89.375 46.1125 89.375 45.8125C89.375 45.525 89.425 45.5 89.875 45.5C90.2375 45.5 90.375 45.45 90.375 45.3125C90.375 45.175 90.2375 45.125 89.875 45.125C89.425 45.125 89.375 45.0875 89.375 44.825C89.375 44.5375 89.425 44.5125 90.025 44.475C90.4 44.45 90.6875 44.375 90.725 44.275C90.7625 44.1625 90.5375 44.125 89.8875 44.125H89V45.3125Z" fill="#BA3539"/>
<path d="M91 45.3125V46.5H91.8125C92.45 46.5 92.625 46.4625 92.625 46.3125C92.625 46.175 92.475 46.125 92 46.125H91.375V45.125C91.375 44.325 91.3375 44.125 91.1875 44.125C91.0375 44.125 91 44.3375 91 45.3125Z" fill="#BA3539"/>
<path d="M56.5752 44.9499C56.1002 45.4124 56.2502 46.3124 56.8127 46.4499C57.2377 46.5499 57.7502 46.4124 57.7502 46.1749C57.7502 46.0249 57.6627 45.9999 57.3377 46.0624C57.0377 46.1249 56.8752 46.0874 56.7627 45.9499C56.6127 45.7749 56.6627 45.7499 57.2377 45.7499C57.8252 45.7499 57.8752 45.7249 57.8752 45.4499C57.8752 44.8749 56.9877 44.5374 56.5752 44.9499ZM57.4752 45.3374C57.5002 45.4499 57.3752 45.4999 57.0627 45.4999C56.6502 45.4999 56.6127 45.4749 56.7502 45.3124C56.9377 45.0874 57.3877 45.1124 57.4752 45.3374Z" fill="#BA3539"/>
<path d="M72.9123 45.0747C72.6623 45.3247 72.6123 45.4622 72.6748 45.7872C72.7748 46.3247 73.0498 46.4997 73.7748 46.4747L74.3748 46.4622V45.8622C74.3748 44.8122 73.5873 44.3997 72.9123 45.0747ZM73.9248 45.3997C74.0248 45.5622 74.0248 45.6872 73.9248 45.8372C73.7248 46.1622 73.2873 46.1872 73.1248 45.8872C72.8123 45.2997 73.5748 44.8497 73.9248 45.3997Z" fill="#BA3539"/>
<path d="M74.5 44.9375C74.5 45.05 74.6375 45.4 74.8 45.725C75 46.125 75.0625 46.3875 74.9875 46.5625C74.8375 46.9375 74.8625 47.125 75.0375 47.125C75.175 47.125 76.125 45.1875 76.125 44.8875C76.125 44.8125 76.05 44.75 75.95 44.75C75.85 44.75 75.675 45.0125 75.55 45.325L75.325 45.9L75.0375 45.325C74.75 44.75 74.5 44.575 74.5 44.9375Z" fill="#BA3539"/>
<path d="M78.7498 45C78.2123 45.5375 78.6123 46.5 79.3748 46.5C79.8248 46.5 80.2498 46.1125 80.2498 45.7C80.2498 44.9125 79.2873 44.4625 78.7498 45ZM79.7748 45.4375C79.8748 45.675 79.8748 45.7875 79.7498 45.9375C79.4623 46.2875 78.8748 46.0875 78.8748 45.625C78.8748 45.1 79.5498 44.95 79.7748 45.4375Z" fill="#BA3539"/>
<path d="M39.275 46.7748C39.175 46.8748 39.125 47.3998 39.125 48.3373V49.7498H38.4625C37.75 49.7498 37.5 49.8998 37.5 50.3123C37.5 50.7248 37.75 50.8748 38.4625 50.8748H39.125V53.3998C39.1375 55.1873 39.1875 56.0748 39.3 56.4123C39.7 57.5248 40.625 58.1998 41.9125 58.3373C42.6875 58.4123 43.0875 58.2498 43.2 57.8248C43.325 57.2873 43.0625 56.9998 42.425 56.9998C41.7875 56.9998 41.325 56.7998 40.875 56.3123C40.5625 55.9873 40.5625 55.9498 40.525 53.4248L40.4875 50.8748H41.525C42.625 50.8748 42.875 50.7748 42.875 50.3123C42.875 49.8498 42.625 49.7498 41.5375 49.7498H40.5V48.4248C40.5 47.6998 40.4375 46.9998 40.375 46.8623C40.225 46.5873 39.525 46.5248 39.275 46.7748Z" fill="#BA3539"/>
<path d="M30.775 49.4497C30.4125 49.5372 29.8625 49.7997 29.55 49.9997L29 50.3872V50.0122C29 49.4122 28.25 49.1497 27.8375 49.5997C27.65 49.8122 27.625 50.2872 27.625 53.9122V57.9997L27.95 58.1997C28.1875 58.3622 28.35 58.3872 28.6 58.2997L28.9375 58.1872L29 55.2497C29.075 51.6872 29.1375 51.4997 30.5 50.8872C31.6375 50.3747 33.025 50.5997 33.825 51.4372C34.525 52.1622 34.625 52.6497 34.625 55.5372C34.625 57.7247 34.65 57.9872 34.85 58.1622C35.1625 58.4372 35.5375 58.4247 35.8 58.1372C36 57.9122 36.0125 57.6122 35.975 55.0372C35.9375 52.3747 35.9125 52.1497 35.65 51.5622C35.1 50.3622 34.15 49.6372 32.8125 49.3872C31.8875 49.2122 31.6 49.2247 30.775 49.4497Z" fill="#BA3539"/>
<path d="M48.4 49.3748C46.95 49.5873 45.675 50.5623 45.025 51.9748C44.7375 52.5873 44.6875 52.8498 44.6875 53.8748C44.6875 54.9123 44.7375 55.1623 45.0375 55.8123C45.4625 56.7123 46.2125 57.5248 47.0625 57.9748C47.625 58.2873 47.8125 58.3123 49.0625 58.3123C50.575 58.3123 51.0125 58.1623 51.9375 57.3623L52.375 56.9748V57.4623C52.375 58.2498 53.0625 58.6623 53.5625 58.1748C53.7375 57.9873 53.7625 57.6373 53.725 55.2623C53.6875 52.7998 53.6625 52.5123 53.4125 51.9623C53.05 51.1873 52.0875 50.1748 51.3625 49.7998C50.8875 49.5623 49.3875 49.1998 49.125 49.2623C49.0875 49.2748 48.7625 49.3248 48.4 49.3748ZM50.425 50.7998C52.95 51.8498 53.05 55.6748 50.5625 56.8248C48.425 57.8248 46.05 56.2998 46.0125 53.9248C45.9875 52.0623 47.375 50.6248 49.2125 50.6248C49.65 50.6248 50.1875 50.6998 50.425 50.7998Z" fill="#BA3539"/>
<path d="M67.3999 49.3873C65.8249 49.6498 64.4499 50.8623 63.9874 52.3998C63.2999 54.6498 64.1874 56.9248 66.1499 57.9623C66.7624 58.2873 66.9249 58.3123 68.1874 58.3123C69.6999 58.3123 70.1374 58.1623 71.0624 57.3623L71.4999 56.9748V57.4748C71.4999 58.2998 72.1874 58.6748 72.6749 58.1373C72.8749 57.9123 72.8874 57.6248 72.8499 55.2873L72.8124 52.6873L72.3999 51.8498C71.4874 49.9873 69.5374 49.0248 67.3999 49.3873ZM69.6999 50.9248C72.0874 52.0373 72.0999 55.6123 69.7249 56.7998C68.3749 57.4748 66.6874 57.0873 65.7874 55.8998C65.3124 55.2623 65.1249 54.6748 65.1249 53.7498C65.1374 51.4373 67.5749 49.9373 69.6999 50.9248Z" fill="#BA3539"/>
<path d="M86.8999 49.3873C85.9374 49.5498 85.1249 50.0123 84.3999 50.8123C82.9999 52.3373 82.8624 54.7873 84.0749 56.5748C84.5249 57.2498 84.8749 57.5498 85.7499 58.0123C86.2499 58.2748 86.4749 58.3123 87.6874 58.3123C89.1999 58.3123 89.6374 58.1623 90.5624 57.3623L90.9999 56.9748V57.4748C90.9999 58.2998 91.6874 58.6748 92.1749 58.1373C92.3749 57.9123 92.3874 57.6248 92.3499 55.2873C92.3124 52.7248 92.2999 52.6748 91.9499 51.8998C91.0999 50.0498 89.0374 49.0248 86.8999 49.3873ZM89.1999 50.9248C91.5874 52.0373 91.5999 55.6123 89.2249 56.7998C87.4749 57.6748 85.2374 56.6998 84.7374 54.8373C84.5624 54.1748 84.6499 52.9248 84.9124 52.4123C85.7374 50.8248 87.5874 50.1748 89.1999 50.9248Z" fill="#BA3539"/>
<path d="M54.5875 49.6C54.4625 49.725 54.375 49.9125 54.375 50.0125C54.375 50.25 57.975 57.875 58.225 58.15C58.325 58.275 58.5375 58.375 58.6875 58.375C58.8375 58.375 59.05 58.275 59.1625 58.15C59.2625 58.0375 60.175 56.1625 61.1875 54C62.75 50.625 62.9875 50.025 62.8875 49.775C62.725 49.4375 62.475 49.325 62.075 49.425C61.825 49.4875 61.525 50.05 60.25 52.875C59.4 54.7375 58.6875 56.2375 58.675 56.2125C58.65 56.1875 57.975 54.775 57.1875 53.05C56.3875 51.3375 55.65 49.8125 55.55 49.65C55.325 49.3125 54.8625 49.2875 54.5875 49.6Z" fill="#BA3539"/>
<path d="M74.2125 49.5998C74.0875 49.7248 74 49.8998 74 49.9873C74 50.0748 74.8125 51.8373 75.8125 53.8998C76.8125 55.9623 77.625 57.6998 77.625 57.7623C77.625 57.8248 77.2625 58.6623 76.8125 59.6498C76.3625 60.6248 76 61.5123 76 61.6373C76 61.9498 76.3125 62.1498 76.7625 62.0998L77.175 62.0623L79.9 56.1248C81.3875 52.8623 82.6125 50.0873 82.6125 49.9748C82.625 49.6373 82.25 49.3623 81.8375 49.3998C81.4625 49.4373 81.4125 49.5248 79.95 52.7748C79.1125 54.6123 78.4125 56.1248 78.375 56.1248C78.3375 56.1248 77.6125 54.6373 76.75 52.8123C75.8875 50.9873 75.1125 49.4748 75.025 49.4373C74.7 49.3123 74.4125 49.3748 74.2125 49.5998Z" fill="#BA3539"/>
</svg>
