<svg width="100" height="100" viewBox="0 0 100 100" fill="none" xmlns="http://www.w3.org/2000/svg">
<g clip-path="url(#clip0_86_3422)">
<rect width="100" height="100" fill="#156B6B"/>
<rect y="50" width="100" height="100" fill="#EC9615"/>
<path d="M23.0028 54.675C23.4028 60.025 23.9528 62.475 25.8028 67.325C27.3528 71.275 32.1028 78.125 33.3028 78.125C33.7028 78.125 35.5028 76.275 37.3028 74.025C39.1028 71.775 40.7028 69.925 40.8528 69.925C41.0528 69.875 41.8028 71.625 42.6028 73.725C43.3528 75.875 44.4028 78.825 44.9528 80.275C46.0028 83.175 50.2028 89.125 51.1528 89.125C52.9028 89.125 58.3028 79.925 60.3528 73.475C60.9528 71.525 61.6029 69.875 61.7529 69.875C61.9529 69.875 62.8529 71.275 63.8029 72.925C65.6029 76.025 67.8529 78.375 69.0529 78.375C70.8529 78.375 75.2529 71.525 77.4029 65.425C78.3529 62.675 79.8029 54.425 79.8029 51.725C79.8029 50.325 79.8029 50.325 76.7029 50.475L73.5529 50.625L73.2529 56.375C72.9529 61.975 71.9029 65.825 69.6529 69.425C68.7529 70.875 68.3529 70.625 67.0029 67.575C65.0029 63.075 63.8029 57.925 63.8029 53.975V50.325L60.9528 50.475L58.0528 50.625L57.7528 57.125C57.6028 60.675 57.1528 64.725 56.8528 66.125C55.6028 71.075 53.1528 77.775 52.0528 79.175L50.9028 80.625L49.3028 77.325C48.4528 75.475 47.1028 71.375 46.3028 68.125C45.0528 63.275 44.8028 61.275 44.8028 56.275V50.325L41.7028 50.475L38.5528 50.625L38.2528 55.375C37.9528 60.375 36.0528 67.075 34.3528 69.325L33.4028 70.575L32.3028 68.325C30.6528 65.125 29.3028 59.775 28.9528 54.725L28.6528 50.375H25.6528H22.6528L23.0028 54.675Z" fill="white"/>
<path d="M48.8028 13.4025C47.7528 15.1025 45.5528 19.2525 44.0028 22.6525C42.4027 26.0525 41.0027 28.8025 40.8027 28.8025C40.6527 28.8025 40.1027 28.0525 39.7027 27.1025C39.2527 26.2025 38.1527 24.6025 37.3027 23.6025C35.2527 21.3025 32.5027 21.0525 30.5027 23.0525C27.8027 25.7525 24.2527 35.7024 23.4527 42.8024C23.3027 44.3024 23.0027 45.9024 22.7527 46.3024C22.5027 46.8024 20.0527 47.5524 15.9527 48.4024L9.55273 49.7524L22.0527 49.4024C28.9527 49.2024 47.3028 49.0524 62.9028 49.0524C78.5028 49.0524 90.9528 48.9024 90.6528 48.7524C90.3028 48.5524 88.2528 48.2524 86.0528 48.0524C79.6528 47.5024 79.9528 47.7024 79.3028 43.6524C77.5028 32.4024 72.9528 21.2525 69.6528 20.1025C67.6528 19.4025 66.9028 20.0525 64.4528 24.3525C63.3028 26.4025 62.1528 28.3525 61.9028 28.7525C61.6028 29.2525 60.5528 27.3025 58.3528 22.2525C52.4028 8.65246 52.0528 8.30246 48.8028 13.4025ZM54.1028 23.0525C56.2028 27.7025 57.3528 32.8524 57.6528 39.4024L57.9528 44.8024H51.3528H44.8028V41.0524C44.8028 35.0524 46.9028 26.4525 49.6528 20.9525C51.2528 17.7025 51.7528 17.9525 54.1028 23.0525ZM35.5527 31.3524C37.1027 34.3524 38.3027 39.2524 38.3027 42.6024V45.2024L35.4527 45.5024C33.8527 45.7024 31.6527 45.9524 30.6027 46.1024L28.6527 46.4024L28.9527 42.0024C29.1027 39.5524 29.5527 36.5024 29.9527 35.2024C30.9027 32.1524 33.2027 28.2025 33.8527 28.5525C34.1027 28.7525 34.9027 30.0024 35.5527 31.3524ZM70.5528 30.5024C72.1028 33.1524 73.3028 38.4024 73.3028 42.7524V45.9524L69.9528 45.6524C68.0528 45.4524 66.0528 45.3024 65.4528 45.3024C64.4028 45.3024 64.3028 45.0524 64.3028 42.6524C64.3028 41.2524 64.5528 39.0524 64.8528 37.8524C65.5028 34.9024 68.3028 28.3025 68.8528 28.3025C69.0528 28.3025 69.8528 29.3025 70.5528 30.5024Z" fill="white"/>
</g>
<defs>
<clipPath id="clip0_86_3422">
<rect width="100" height="100" fill="white"/>
</clipPath>
</defs>
</svg>
