<svg width="100" height="100" viewBox="0 0 100 100" fill="none" xmlns="http://www.w3.org/2000/svg">
<g clip-path="url(#clip0_23_664)">
<rect width="100" height="100" fill="white"/>
<mask id="mask0_23_664" style="mask-type:alpha" maskUnits="userSpaceOnUse" x="25" y="15" width="51" height="39">
<path fill-rule="evenodd" clip-rule="evenodd" d="M35.7902 38.5855C35.0791 39.0647 34.2262 38.216 34.7018 37.5025L49.1979 15.7584C49.8174 14.8292 51.1827 14.8292 51.8022 15.7584L66.2983 37.5025C66.7739 38.216 65.921 39.0647 65.2099 38.5855L50.9374 28.967C50.673 28.7889 50.3271 28.7889 50.0628 28.967L35.7902 38.5855ZM30.1432 44.1357C29.895 44.2574 29.6836 44.4427 29.5303 44.6726L25.2696 51.0637C24.4412 52.3062 25.6581 53.8925 27.0728 53.4143L49.9989 45.6646C50.3239 45.5548 50.6761 45.5548 51.0011 45.6646L73.9272 53.4143C75.3419 53.8925 76.5588 52.3062 75.7304 51.0637L71.4697 44.6726C71.3164 44.4427 71.105 44.2574 70.8568 44.1357L51.1892 34.4874C50.7545 34.2742 50.2455 34.2742 49.8108 34.4874L30.1432 44.1357Z" fill="#D9D9D9"/>
</mask>
<g mask="url(#mask0_23_664)">
<rect x="25" y="10.3662" width="50.8611" height="46.1662" fill="#F7941D"/>
<rect x="24.5" y="10.3662" width="25.8218" height="46.1662" fill="#FDB813"/>
</g>
<path d="M8.14841 72.1378H5.8125L10.0655 59.3622H12.7671L17.026 72.1378H14.6901L11.4635 61.9822H11.3691L8.14841 72.1378ZM8.22509 67.1286H14.5957V68.9876H8.22509V67.1286Z" fill="#6C6D71"/>
<path d="M18.6172 72.1378V59.3622H23.1475C24.0755 59.3622 24.8542 59.5452 25.4834 59.9111C26.1165 60.2771 26.5943 60.7803 26.9168 61.4207C27.2432 62.057 27.4064 62.7807 27.4064 63.5916C27.4064 64.4109 27.2432 65.1387 26.9168 65.775C26.5904 66.4112 26.1086 66.9124 25.4716 67.2783C24.8345 67.6402 24.05 67.8211 23.118 67.8211H20.1155V65.9184H22.823C23.3657 65.9184 23.8101 65.8186 24.1561 65.619C24.5022 65.4194 24.7578 65.1449 24.923 64.7956C25.0921 64.4462 25.1766 64.0449 25.1766 63.5916C25.1766 63.1383 25.0921 62.7391 24.923 62.3939C24.7578 62.0487 24.5002 61.7805 24.1502 61.5892C23.8042 61.3937 23.3578 61.296 22.8112 61.296H20.8056V72.1378H18.6172Z" fill="#6C6D71"/>
<path d="M29.3072 72.1378V59.3622H37.1644V61.3022H31.4957V64.7706H36.7573V66.7107H31.4957V70.1978H37.2115V72.1378H29.3072Z" fill="#6C6D71"/>
<path d="M57.1744 59.3622V72.1378H54.986V59.3622H57.1744Z" fill="#6C6D71"/>
<path d="M69.4718 59.3622V72.1378H67.5252L61.8329 63.4357H61.7327V72.1378H59.5442V59.3622H61.5026L67.189 68.0706H67.2952V59.3622H69.4718Z" fill="#6C6D71"/>
<path d="M75.9501 72.1378H71.8564V59.3622H76.0327C77.2321 59.3622 78.2624 59.6179 79.1236 60.1295C79.9888 60.6368 80.6534 61.3667 81.1174 62.319C81.5815 63.2714 81.8135 64.4109 81.8135 65.7375C81.8135 67.0683 81.5795 68.212 81.1115 69.1685C80.6475 70.125 79.977 70.859 79.1001 71.3705C78.227 71.8821 77.1771 72.1378 75.9501 72.1378ZM74.0448 70.1354H75.8439C76.6855 70.1354 77.3874 69.9732 77.9498 69.6488C78.5121 69.3203 78.9349 68.8316 79.218 68.1829C79.5012 67.5299 79.6427 66.7148 79.6427 65.7375C79.6427 64.7602 79.5012 63.9493 79.218 63.3047C78.9349 62.6559 78.5161 62.1714 77.9616 61.8512C77.411 61.5268 76.7268 61.3646 75.9088 61.3646H74.0448V70.1354Z" fill="#6C6D71"/>
<path d="M94.6875 65.75C94.6875 67.1265 94.4437 68.3055 93.9561 69.287C93.4724 70.2643 92.8117 71.0129 91.9741 71.5327C91.1404 72.0526 90.1946 72.3125 89.1368 72.3125C88.0789 72.3125 87.1312 72.0526 86.2936 71.5327C85.4599 71.0087 84.7992 70.2581 84.3116 69.2808C83.8279 68.2993 83.586 67.1224 83.586 65.75C83.586 64.3735 83.8279 63.1965 84.3116 62.2192C84.7992 61.2378 85.4599 60.4871 86.2936 59.9673C87.1312 59.4474 88.0789 59.1875 89.1368 59.1875C90.1946 59.1875 91.1404 59.4474 91.9741 59.9673C92.8117 60.4871 93.4724 61.2378 93.9561 62.2192C94.4437 63.1965 94.6875 64.3735 94.6875 65.75ZM92.4873 65.75C92.4873 64.781 92.3437 63.9638 92.0567 63.2984C91.7735 62.6289 91.3803 62.1236 90.8769 61.7826C90.3735 61.4374 89.7935 61.2648 89.1368 61.2648C88.48 61.2648 87.9 61.4374 87.3966 61.7826C86.8933 62.1236 86.4981 62.6289 86.211 63.2984C85.9279 63.9638 85.7863 64.781 85.7863 65.75C85.7863 66.719 85.9279 67.5383 86.211 68.2078C86.4981 68.8732 86.8933 69.3785 87.3966 69.7237C87.9 70.0647 88.48 70.2352 89.1368 70.2352C89.7935 70.2352 90.3735 70.0647 90.8769 69.7237C91.3803 69.3785 91.7735 68.8732 92.0567 68.2078C92.3437 67.5383 92.4873 66.719 92.4873 65.75Z" fill="#6C6D71"/>
<path d="M46.8112 72.1507H49.3477L41.3667 59.375H38.8597L42.629 65.7628L38.8125 72.1507H41.3372L44.027 67.5033L46.8112 72.1507Z" fill="#6C6D71"/>
<path d="M45.531 65.7628L44.2034 63.5256L46.7933 59.375H49.3003L45.531 65.7628Z" fill="#F7941D"/>
</g>
<defs>
<clipPath id="clip0_23_664">
<rect width="100" height="100" fill="white"/>
</clipPath>
</defs>
</svg>
