<svg width="100" height="100" viewBox="0 0 100 100" fill="none" xmlns="http://www.w3.org/2000/svg">
<rect width="100" height="100" fill="#0A66BD"/>
<g clip-path="url(#clip0_28_566)">
<path d="M41.9375 35.7875C36.6125 36.3125 30.725 37.5875 25.25 39.3875C20.225 41.0375 13.3625 44.3 11.1875 46.0625L10.0625 47H17.15H24.2375L26.15 45.575C39.275 35.6375 60.2375 35.3 74.4875 44.7875L77.7875 47H84.8C93.0125 46.9625 92.975 47.15 85.5125 43.4375C72.4625 36.95 57.425 34.325 41.9375 35.7875Z" fill="white"/>
<path d="M9.875 56.9C9.875 57.1625 14.45 59.975 17 61.25C23.075 64.325 31.4375 66.7625 39.425 67.8125C45.05 68.5625 56.4125 68.5625 61.5875 67.8125C71.975 66.275 83.1875 62.45 90.3125 57.95L92.1875 56.75H85.025H77.9L75.8375 58.2875C74.7125 59.1125 72.4625 60.5 70.8125 61.325C58.625 67.5125 43.8875 67.7 31.8125 61.775C29.975 60.875 27.425 59.375 26.1875 58.4375L23.9375 56.75H16.925C13.025 56.75 9.875 56.825 9.875 56.9Z" fill="white"/>
<path d="M58.625 56.375V47.75H55.8125L54.875 48.875V45.875H65V48.875L63.875 47.75H61.25V56.375H62V56.75H57.875V56.375H58.625Z" fill="white"/>
<path d="M53.9375 45.875H50L50.375 46.4375V56.375H50V56.75H53.9375V56.375H53.375V46.4375L53.9375 45.875Z" fill="white"/>
<path fill-rule="evenodd" clip-rule="evenodd" d="M38 56.375V56.75H42.125V56.375H41.375V52.25L45.3125 56.75H48.875L45.125 52.25C46.5224 51.9303 47.1779 51.4715 47.7099 50.2251C47.8767 49.8343 47.9375 49.4082 47.9375 48.9832C47.9375 48.415 47.8804 47.8297 47.5848 47.3444C47.2561 46.8049 46.7701 46.4016 45.875 45.875H37.4375L38.375 46.8125V56.375H38ZM41.375 47.75V51.5H44C45.1871 49.8208 45.2375 48.9906 44 47.75H41.375Z" fill="white"/>
<path fill-rule="evenodd" clip-rule="evenodd" d="M28.625 45.875H32.1875L36.6875 56.375H37.25V56.75H32.75V56.375H33.6875L32.75 53.75H29.1875L28.25 56.375H29V56.75H24.875V56.375H25.625L29.5625 46.8125L28.625 45.875ZM30.6875 49.4375L29.5625 52.0625H32L30.6875 49.4375Z" fill="white"/>
<path fill-rule="evenodd" clip-rule="evenodd" d="M68.75 45.875H72.3125L76.8125 56.375H77.375V56.75H72.875V56.375H73.8125L72.875 53.75H69.3125L68.375 56.375H69.125V56.75H65V56.375H65.75L69.6875 46.8125L68.75 45.875ZM70.8125 49.4375L69.6875 52.0625H72.125L70.8125 49.4375Z" fill="white"/>
</g>
<defs>
<clipPath id="clip0_28_566">
<rect width="84" height="84" fill="white" transform="translate(8 8)"/>
</clipPath>
</defs>
</svg>
