<svg width="100" height="100" viewBox="0 0 100 100" fill="none" xmlns="http://www.w3.org/2000/svg">
<rect width="100" height="100" fill="white"/>
<rect x="13.9998" y="14.0005" width="70" height="70" rx="15" stroke="#023F88" stroke-width="10"/>
<path fill-rule="evenodd" clip-rule="evenodd" d="M33.3342 25.8271C35.1522 25.8271 36.9782 25.7251 38.7882 25.8511C41.1482 26.0171 43.0902 27.0191 44.4302 29.0831C45.7562 31.1231 47.1742 33.0991 48.5322 35.1191C52.2502 40.6611 55.9602 46.2071 59.6702 51.7531C62.2942 55.6751 64.9622 59.5631 67.5042 63.5371C68.2222 64.6631 69.1702 64.4251 70.1262 64.4951C72.1682 64.6391 73.7662 65.5131 74.5662 67.4471C75.3222 69.2651 75.0702 71.0211 73.7582 72.5411C72.8002 73.6511 71.5282 74.1431 70.0842 74.1511C66.9482 74.1711 63.8102 74.1931 60.6742 74.1411C58.0422 74.0991 56.0042 72.8691 54.5462 70.7131C50.7242 65.0731 46.9202 59.4211 43.1182 53.7671C39.1982 47.9371 35.2722 42.1111 31.3962 36.2551C30.8302 35.4031 30.1042 35.3771 29.2802 35.4211C27.7222 35.5051 26.2262 35.2491 25.0462 34.2071C23.5862 32.9171 22.9242 31.2631 23.5062 29.2991C24.1242 27.2211 25.5482 25.9771 27.6942 25.8151C29.5662 25.6731 31.4562 25.7851 33.3362 25.7851C33.3342 25.7971 33.3342 25.8131 33.3342 25.8271Z" fill="#CD2328"/>
<path fill-rule="evenodd" clip-rule="evenodd" d="M41.9102 64.8654C41.8862 70.0914 37.5662 74.2074 32.1343 74.1734C26.9003 74.1434 22.5343 69.8674 22.5723 64.8074C22.6143 59.5674 26.9183 55.5134 32.3823 55.5694C37.7583 55.6254 41.9362 59.6994 41.9102 64.8654Z" fill="#023F88"/>
<path fill-rule="evenodd" clip-rule="evenodd" d="M57.7802 35.1712C58.0942 30.0392 61.1622 26.4012 67.3682 26.2032C73.5722 26.0072 77.3202 31.6512 77.1402 35.5372C76.9022 40.6412 72.4622 44.8152 67.1402 44.6772C61.8282 44.5432 57.6702 40.3192 57.7802 35.1712Z" fill="#023F88"/>
</svg>
