<svg width="100" height="100" viewBox="0 0 100 100" fill="none" xmlns="http://www.w3.org/2000/svg">
<g clip-path="url(#clip0_28_1237)">
<path d="M0 0H100V100H0V0Z" fill="white"/>
<path d="M77.962 37.4946C77.7037 37.4011 77.4861 37.0599 77.3093 36.4711C77.2658 36.3281 77.1788 36.2235 77.0482 36.1575C71.904 33.5782 67.2615 34.3788 61.9704 34.5067C58.7068 34.5851 56.9689 33.9661 54.1051 32.6702C51.4208 31.4528 47.1291 30.3757 43.9267 30.7058C35.9472 31.523 28.8163 35.8273 21.7546 39.1867" stroke="#90566F" stroke-width="0.825386"/>
<path d="M21.7549 39.1869C20.6453 37.8277 19.329 36.6873 17.806 35.7656C17.602 35.6418 17.5503 35.6886 17.6509 35.906L30.6238 64.4602C30.6714 64.5595 30.7521 64.6387 30.8517 64.6839C30.9513 64.7292 31.0635 64.7375 31.1685 64.7075C31.2736 64.6775 31.3648 64.611 31.4263 64.5198C31.4878 64.4285 31.5157 64.3183 31.5049 64.2084L30.7706 57.9974" stroke="#F18A83" stroke-width="0.825386"/>
<path d="M30.7715 57.9976C38.0575 54.4154 43.8544 51.7288 51.4709 50.1069C53.6439 49.6447 55.9869 49.7836 58.4999 50.5237C61.5636 51.4275 64.4233 55.0427 67.691 54.3328C74.3202 52.8967 79.7908 51.7576 86.0406 53.9697" stroke="#90566F" stroke-width="0.825386"/>
<path d="M30.7703 57.9971C29.6689 51.3899 25.6261 44.3617 21.7546 39.1865" stroke="#9ECBEB" stroke-width="0.825386"/>
<path d="M77.9627 37.4952C77.7043 37.4017 77.4867 37.0605 77.31 36.4717C77.2664 36.3287 77.1794 36.2241 77.0489 36.1581C71.9046 33.5787 67.2621 34.3794 61.971 34.5073C58.7074 34.5857 56.9696 33.9667 54.1057 32.6708C51.4214 31.4534 47.1298 30.3762 43.9274 30.7064C35.9479 31.5235 28.8169 35.8279 21.7553 39.1872C20.6457 37.8281 19.3293 36.6877 17.8063 35.766C17.6024 35.6422 17.5507 35.689 17.6513 35.9063L30.6241 64.4606C30.6718 64.5599 30.7525 64.6391 30.8521 64.6843C30.9517 64.7295 31.0638 64.7379 31.1689 64.7078C31.2739 64.6778 31.3652 64.6114 31.4267 64.5202C31.4882 64.4289 31.516 64.3187 31.5053 64.2088L30.771 57.9978C38.057 54.4156 43.854 51.729 51.4704 50.1071C53.6434 49.6449 55.9864 49.7838 58.4994 50.5239C61.5631 51.4277 64.4228 55.0429 67.6905 54.3331C74.3197 52.8969 79.7903 51.7579 86.0401 53.9699C87.9112 56.8698 89.2303 60.0956 89.9972 63.6476C90.002 63.6697 90.0006 63.6928 89.9933 63.7142C89.986 63.7357 89.973 63.7547 89.9557 63.7691C89.9385 63.7836 89.9176 63.793 89.8954 63.7963C89.8733 63.7996 89.8506 63.7967 89.83 63.7879C87.9697 62.9845 86.0279 62.5099 84.0044 62.3641C80.1697 62.0807 77.28 62.1564 75.3355 62.5911C72.5002 63.2266 68.7144 64.5472 65.8547 64.1882C61.8323 63.6847 59.4866 59.6197 54.9543 59.8013C47.0033 60.1149 40.9616 64.0066 34.516 68.5338C33.4675 69.2726 33.1412 69.9576 33.7042 71.237C34.686 73.4793 35.7045 75.7023 36.7597 77.9061C36.825 78.0464 36.791 78.1551 36.6577 78.2321L33.6878 79.9489C33.5247 80.0452 33.405 80.0053 33.3288 79.8293L12.3765 31.7216C12.3167 31.5841 12.2188 31.4836 12.0828 31.4204C11.7999 31.2938 11.5225 31.1631 11.2506 31.0283C9.0558 29.9553 9.97776 26.7611 12.2541 26.4557C15.0731 26.076 14.661 28.6306 15.0935 30.4093C15.1048 30.4556 15.127 30.4985 15.158 30.5345C15.189 30.5705 15.228 30.5986 15.2719 30.6163C15.3157 30.634 15.3631 30.641 15.4101 30.6365C15.4571 30.6321 15.5024 30.6165 15.5422 30.5908C20.2119 27.5919 25.1658 25.2079 30.4038 23.4389C34.7199 21.9779 39.9703 21.0659 44.7637 20.0837C45.9005 19.8526 47.2318 20.1002 48.7575 20.8265C52.1353 22.4319 55.6682 24.8585 59.4295 25.2217C60.9362 25.3675 63.7579 25.3276 67.8945 25.102C69.5235 25.0112 70.7338 25.1034 71.5252 25.3785C75.1845 26.6538 77.1019 31.6102 77.4813 35.147C77.5602 35.8733 77.7206 36.6561 77.9627 37.4952Z" fill="#E31507"/>
<path d="M77.9632 37.4946C80.052 43.4869 83.083 48.3526 86.0407 53.9693C79.7909 51.7573 74.3203 52.8963 67.6911 54.3325C64.4234 55.0423 61.5636 51.4271 58.4999 50.5233C55.987 49.7832 53.644 49.6443 51.471 50.1065C43.8545 51.7284 38.0576 54.415 30.7716 57.9972C29.6701 51.39 25.6273 44.3618 21.7559 39.1867C28.8175 35.8273 35.9484 31.523 43.928 30.7058C47.1304 30.3757 51.422 31.4528 54.1063 32.6702C56.9701 33.9661 58.708 34.5851 61.9716 34.5067C67.2627 34.3788 71.9052 33.5782 77.0494 36.1575C77.18 36.2235 77.267 36.3281 77.3105 36.4711C77.4873 37.0599 77.7049 37.4011 77.9632 37.4946Z" fill="#3C97D6"/>
<path d="M54.212 42.3772L55.5297 45.1258C55.5979 45.2676 55.6943 45.3936 55.813 45.4958C55.9316 45.5981 56.0699 45.6744 56.2191 45.72C58.4656 46.4024 60.6155 47.3213 62.6688 48.4768C62.7057 48.4975 62.7467 48.5094 62.7889 48.5117C62.8311 48.5139 62.8733 48.5065 62.9125 48.4898C62.9517 48.4732 62.9868 48.4478 63.0152 48.4156C63.0436 48.3833 63.0647 48.345 63.0768 48.3035L63.297 47.5276C63.3108 47.4813 63.3365 47.4394 63.3716 47.4061C63.4067 47.3728 63.4499 47.3493 63.4969 47.3378L64.5902 47.0695C64.6794 47.0479 64.7733 47.0604 64.8539 47.1045C64.9345 47.1487 64.996 47.2215 65.0268 47.3089L65.9487 49.9955C65.9609 50.029 65.9652 50.0649 65.9611 50.1004C65.9571 50.1358 65.9448 50.1698 65.9253 50.1995C65.9059 50.2293 65.8797 50.254 65.8491 50.2716C65.8184 50.2892 65.7841 50.2993 65.7488 50.3009C63.6234 50.4041 61.91 49.459 60.2701 48.6378C54.4282 45.7242 49.1493 46.76 43.3564 49.1454C43.2486 49.1898 43.1316 49.2062 43.0162 49.1933C42.9007 49.1803 42.7905 49.1383 42.6956 49.0711C42.41 48.8703 42.3311 48.6433 42.4589 48.3902C42.5242 48.2609 42.6616 48.1412 42.871 48.0311C43.5482 47.6707 44.2063 47.3364 44.8455 47.0283C45.0293 46.9404 45.1851 46.8019 45.2954 46.6283C45.4057 46.4548 45.4661 46.2531 45.4696 46.0461L45.592 36.0465C45.5953 35.8286 45.5181 35.6173 45.3755 35.4539C45.2329 35.2906 45.0351 35.187 44.821 35.1634L43.4911 35.0189C43.3469 35.0052 43.2476 34.9309 43.1933 34.7961C42.7935 33.8675 43.3116 33.4548 44.1887 33.4796C49.4838 33.624 55.7377 33.8716 59.5031 38.1719C60.5311 39.3439 60.5475 40.7553 59.1278 41.5023C57.9937 42.0966 55.7255 42.0017 54.3996 42.0595C54.3635 42.0614 54.3284 42.0722 54.2975 42.0911C54.2665 42.11 54.2406 42.1363 54.222 42.1677C54.2035 42.1991 54.1929 42.2347 54.1911 42.2712C54.1894 42.3077 54.1965 42.3442 54.212 42.3772Z" fill="white"/>
<path d="M50.806 35.3327C53.5433 36.2076 57.2271 36.3892 58.7121 39.4844C58.7571 39.578 58.7803 39.6807 58.7799 39.7848C58.7796 39.8889 58.7556 39.9915 58.7099 40.0848C58.6642 40.178 58.598 40.2595 58.5163 40.3228C58.4347 40.3861 58.3397 40.4296 58.2388 40.4501C56.758 40.7555 53.6168 41.4075 52.5847 39.9259C51.7633 38.7484 50.9461 37.564 50.1329 36.3727C50.0252 36.2137 49.9809 36.0195 50.0089 35.8289C50.0369 35.6383 50.1351 35.4655 50.2838 35.3451C50.3926 35.2598 50.5667 35.2556 50.806 35.3327Z" fill="#3C97D6"/>
<path d="M47.6319 35.4651L50.3529 39.786C50.4834 39.9895 50.4304 40.1147 50.1938 40.1615C49.2038 40.3623 48.2193 40.35 47.2402 40.1244C47.0716 40.0858 46.9873 39.9799 46.9873 39.8066V35.6549C46.9882 35.5788 47.0132 35.505 47.0588 35.4444C47.1043 35.3838 47.1678 35.3396 47.24 35.3183C47.3123 35.2971 47.3893 35.2999 47.4599 35.3263C47.5304 35.3527 47.5907 35.4013 47.6319 35.4651Z" fill="#3C97D6"/>
<path d="M21.7549 39.1869C25.6264 44.362 29.6692 51.3902 30.7706 57.9974L31.5049 64.2084C31.5157 64.3183 31.4878 64.4285 31.4263 64.5198C31.3648 64.611 31.2736 64.6775 31.1685 64.7075C31.0635 64.7375 30.9513 64.7292 30.8517 64.6839C30.7521 64.6387 30.6714 64.5595 30.6238 64.4602L17.6509 35.906C17.5503 35.6886 17.602 35.6418 17.806 35.7656C19.329 36.6873 20.6453 37.8277 21.7549 39.1869Z" fill="white"/>
<path d="M52.0172 42.1584L53.5307 44.9441C53.546 44.9718 53.5543 45.0028 53.5551 45.0345C53.5558 45.0662 53.5489 45.0977 53.5349 45.1264C53.521 45.1551 53.5003 45.1802 53.4747 45.1994C53.4491 45.2187 53.4193 45.2316 53.3879 45.2371L47.236 46.2482C47.0674 46.2757 46.9817 46.2028 46.979 46.0295L46.9055 42.6372C46.8974 42.2575 47.0769 42.036 47.444 41.9727C48.8311 41.7279 50.2208 41.6976 51.6133 41.8819C51.7955 41.9067 51.9301 41.9989 52.0172 42.1584Z" fill="#3C97D6"/>
</g>
<defs>
<clipPath id="clip0_28_1237">
<rect width="100" height="100" fill="white"/>
</clipPath>
</defs>
</svg>
