<svg width="100" height="100" viewBox="0 0 100 100" fill="none" xmlns="http://www.w3.org/2000/svg">
<g clip-path="url(#clip0_29_2002)">
<rect x="36.3242" y="21.0532" width="26.2302" height="66.3333" transform="rotate(-18.5881 36.3242 21.0532)" fill="url(#paint0_radial_29_2002)"/>
<path d="M41.3702 19.6265L21.4535 74.9331C21.4509 74.9406 21.4501 74.9487 21.4511 74.9565C21.4522 74.9644 21.4552 74.972 21.4597 74.9785C21.4643 74.985 21.4703 74.9903 21.4774 74.994C21.4844 74.9977 21.4923 74.9997 21.5002 74.9998H24.4119C24.4641 74.9998 24.4991 74.9754 24.5169 74.9265L42.8702 23.9648" stroke="#787A7D" stroke-width="0.333333"/>
<path d="M43.6636 26.1196L26.3403 74.8896C26.3136 74.963 26.3392 74.9996 26.417 74.9996H29.2853C29.3297 74.9996 29.3597 74.9785 29.3753 74.9363L45.1786 30.4446" stroke="#787A7D" stroke-width="0.333333"/>
<path d="M45.9984 32.6831L31.2384 74.9181C31.2195 74.9726 31.239 74.9998 31.2968 74.9998H34.1701C34.1965 74.9999 34.2222 74.9917 34.2437 74.9765C34.2652 74.9612 34.2814 74.9397 34.2901 74.9148L47.5034 37.0381" stroke="#787A7D" stroke-width="0.333333"/>
<path d="M48.4252 39.3965L36.2486 74.9382C36.2462 74.9452 36.2455 74.9528 36.2466 74.9602C36.2478 74.9676 36.2507 74.9746 36.2551 74.9807C36.2595 74.9867 36.2653 74.9916 36.272 74.9949C36.2787 74.9983 36.2861 74.9999 36.2936 74.9998H39.2069C39.2591 74.9998 39.2936 74.9748 39.3102 74.9248L49.8919 43.8781" stroke="#787A7D" stroke-width="0.333333"/>
<path d="M0 0H100V100H0V0ZM41.37 19.6267L21.4533 74.9333C21.4507 74.9408 21.4499 74.9489 21.4509 74.9568C21.452 74.9646 21.4549 74.9722 21.4595 74.9787C21.4641 74.9852 21.4701 74.9905 21.4772 74.9942C21.4842 74.998 21.492 74.9999 21.5 75H24.4117C24.4639 75 24.4989 74.9756 24.5167 74.9267L42.87 23.965L43.6633 26.12L26.34 74.89C26.3133 74.9633 26.3389 75 26.4167 75H29.285C29.3294 75 29.3594 74.9789 29.375 74.9367L45.1783 30.445L45.7017 31.7867L45.9983 32.6833L31.2383 74.9183C31.2194 74.9728 31.2389 75 31.2967 75H34.17C34.1964 75.0001 34.2221 74.9919 34.2436 74.9767C34.2651 74.9615 34.2813 74.9399 34.29 74.915L47.5033 37.0383C47.6078 37.075 47.6483 37.1317 47.625 37.2083C47.8072 37.7094 48.005 38.2606 48.2183 38.8617L48.425 39.3967L36.2483 74.9383C36.2459 74.9454 36.2453 74.953 36.2464 74.9604C36.2475 74.9678 36.2504 74.9748 36.2548 74.9809C36.2592 74.9869 36.265 74.9918 36.2717 74.9951C36.2784 74.9985 36.2859 75.0001 36.2933 75H39.2067C39.2589 75 39.2933 74.975 39.31 74.925L49.8917 43.8783C49.905 43.8739 49.9189 43.8722 49.9333 43.8733C49.9689 43.8744 49.9922 43.8917 50.0033 43.925L52.1583 49.925L54.9817 57.8783L57.3367 64.5083L59.4233 70.3583L60.2217 72.605L61.0333 74.9067C61.0556 74.9689 61.1 75 61.1667 75H63.9983C64.0739 75 64.0989 74.9644 64.0733 74.8933L62.9417 71.71L62.13 69.385L60.0467 63.535L57.7417 57.0383L54.8883 49.0167L50.955 37.9617L49.9733 35.1983L48.42 30.8333L47.34 27.785L46.34 24.9817L44.4717 19.7083C44.4528 19.655 44.415 19.6283 44.3583 19.6283L41.37 19.6267ZM47.6817 23.5583L48.535 26.0017L50.5817 31.8017L51.015 33.0383L52.755 37.9883L56.385 48.2617L60.6433 60.34L61.6 63.045L63.2017 67.5967L64.4717 71.1917L65.7833 74.9283C65.8 74.9761 65.8333 75 65.8833 75H68.745C68.8161 75 68.84 74.9672 68.8167 74.9017L67.2067 70.3217L65.9317 66.6833L64.3167 62.1L63.4033 59.5L59.1117 47.3217L55.505 37.1067L53.7283 32.0767L53.2533 30.7283L51.2667 25.1017L50.3867 22.6017L49.3883 19.7483C49.3728 19.7028 49.3411 19.6794 49.2933 19.6783L46.4517 19.6183C46.4338 19.6179 46.4161 19.6217 46.4001 19.6296C46.3841 19.6375 46.3702 19.6492 46.3597 19.6636C46.3492 19.678 46.3424 19.6948 46.3398 19.7125C46.3373 19.7301 46.339 19.7482 46.345 19.765L47.6817 23.5583ZM52.605 24.2567L53.76 27.5483L56.1717 34.3483L57.1167 37.0167L61.325 48.8767L64.2183 57.04L66.27 62.8033L66.7933 64.3183L68.2683 68.485L70.5483 74.9133C70.557 74.9387 70.5734 74.9606 70.5953 74.9762C70.6171 74.9917 70.6432 75.0001 70.67 75H73.5367C73.5944 75 73.6139 74.9728 73.595 74.9183L71.0317 67.645L69.505 63.3517L69.0017 61.9117L66.9517 56.1267L64.1283 48.1667L59.86 36.14L58.8733 33.3617L56.4633 26.55L55.2283 23.075L54.0533 19.7367C54.0367 19.6911 54.0044 19.6683 53.9567 19.6683L51.12 19.6617C51.0311 19.6617 51.0011 19.7033 51.03 19.7867L52.605 24.2567ZM57.3917 24.3283L58.805 28.305L60.175 32.1383L61.2833 35.2283L65.6333 47.37L67.8117 53.46L70.135 59.9383L71.1667 62.825L72.7317 67.2067L75.49 74.9117C75.5111 74.9706 75.5528 75 75.615 75H78.455C78.5294 75 78.5539 74.9644 78.5283 74.8933L75.47 66.325L73.9967 62.2067L72.8717 59.0583L70.5567 52.5833L68.3883 46.5317L63.9167 34.0583L62.9083 31.24L61.5117 27.3383L60.0967 23.3783L58.7983 19.7167C58.775 19.65 58.7283 19.6172 58.6583 19.6183L55.8 19.6683C55.75 19.6694 55.7333 19.6933 55.75 19.74L57.3917 24.3283Z" fill="#F0F3FA"/>
<path d="M41.37 19.6265L42.87 23.9648L24.5166 74.9265C24.4989 74.9754 24.4639 74.9998 24.4116 74.9998H21.5C21.492 74.9997 21.4842 74.9977 21.4771 74.994C21.4701 74.9903 21.464 74.985 21.4595 74.9785C21.4549 74.972 21.452 74.9644 21.4509 74.9566C21.4498 74.9487 21.4506 74.9406 21.4533 74.9331L41.37 19.6265Z" fill="black"/>
<path d="M43.6634 26.1201C43.7189 26.1335 43.7562 26.1962 43.775 26.3085L44.6184 28.7268L45.1784 30.4451L29.375 74.9368C29.3595 74.979 29.3295 75.0001 29.285 75.0001H26.4167C26.3389 75.0001 26.3134 74.9635 26.34 74.8901L43.6634 26.1201Z" fill="black"/>
<path d="M45.9984 32.6836L47.2668 36.1953C47.4434 36.5864 47.5223 36.8675 47.5034 37.0386L34.2901 74.9153C34.2814 74.9402 34.2652 74.9617 34.2437 74.977C34.2222 74.9922 34.1965 75.0003 34.1701 75.0003H31.2968C31.239 75.0003 31.2195 74.973 31.2384 74.9186L45.9984 32.6836Z" fill="black"/>
<path d="M48.425 39.3965L49.875 43.5865C49.8928 43.6365 49.9006 43.6882 49.8983 43.7415L49.8917 43.8781L39.31 74.9248C39.2933 74.9748 39.2589 74.9998 39.2067 74.9998H36.2933C36.2858 74.9999 36.2784 74.9983 36.2717 74.9949C36.265 74.9916 36.2592 74.9867 36.2548 74.9807C36.2504 74.9746 36.2475 74.9676 36.2464 74.9602C36.2453 74.9528 36.2459 74.9452 36.2483 74.9382L48.425 39.3965Z" fill="black"/>
</g>
<defs>
<radialGradient id="paint0_radial_29_2002" cx="0" cy="0" r="1" gradientUnits="userSpaceOnUse" gradientTransform="translate(49.4393 54.2199) rotate(88.0774) scale(37.0402 14.6468)">
<stop stop-color="#E7D47E"/>
<stop offset="0.280056" stop-color="#E7D47E"/>
<stop offset="0.615384" stop-color="#A98D4F"/>
<stop offset="0.874173" stop-color="#836131"/>
</radialGradient>
<clipPath id="clip0_29_2002">
<rect width="100" height="100" fill="white"/>
</clipPath>
</defs>
</svg>
