<svg width="100" height="100" viewBox="0 0 100 100" fill="none" xmlns="http://www.w3.org/2000/svg">
<rect width="100" height="100" fill="#F8F8CF"/>
<rect x="38.7009" y="34.2285" width="22.5984" height="30.8661" fill="#F8F8D0"/>
<mask id="path-2-inside-1_29_2077" fill="white">
<path fill-rule="evenodd" clip-rule="evenodd" d="M31.8952 44.1499C22.8688 44.1499 15.5515 51.4672 15.5515 60.4936V61.9794C15.5515 71.0058 22.8688 78.3231 31.8952 78.3231H33.381C42.4074 78.3231 49.7247 71.0058 49.7247 61.9794V44.1499H31.8952ZM32.6378 54.2753C28.7932 54.2753 25.6766 57.3919 25.6766 61.2365C25.6766 65.0811 28.7932 68.1977 32.6378 68.1977C36.4824 68.1977 39.599 65.0811 39.599 61.2365V54.2753H32.6378Z"/>
</mask>
<path fill-rule="evenodd" clip-rule="evenodd" d="M31.8952 44.1499C22.8688 44.1499 15.5515 51.4672 15.5515 60.4936V61.9794C15.5515 71.0058 22.8688 78.3231 31.8952 78.3231H33.381C42.4074 78.3231 49.7247 71.0058 49.7247 61.9794V44.1499H31.8952ZM32.6378 54.2753C28.7932 54.2753 25.6766 57.3919 25.6766 61.2365C25.6766 65.0811 28.7932 68.1977 32.6378 68.1977C36.4824 68.1977 39.599 65.0811 39.599 61.2365V54.2753H32.6378Z" fill="url(#paint0_linear_29_2077)"/>
<path d="M49.7247 44.1499H50.3576V43.5171H49.7247V44.1499ZM39.599 54.2753H40.2318V53.6425H39.599V54.2753ZM16.1844 60.4936C16.1844 51.8167 23.2184 44.7827 31.8952 44.7827V43.5171C22.5193 43.5171 14.9187 51.1177 14.9187 60.4936H16.1844ZM16.1844 61.9794V60.4936H14.9187V61.9794H16.1844ZM31.8952 77.6903C23.2184 77.6903 16.1844 70.6563 16.1844 61.9794H14.9187C14.9187 71.3553 22.5193 78.956 31.8952 78.956V77.6903ZM33.381 77.6903H31.8952V78.956H33.381V77.6903ZM49.0919 61.9794C49.0919 70.6563 42.0579 77.6903 33.381 77.6903V78.956C42.7569 78.956 50.3576 71.3553 50.3576 61.9794H49.0919ZM49.0919 44.1499V61.9794H50.3576V44.1499H49.0919ZM31.8952 44.7827H49.7247V43.5171H31.8952V44.7827ZM26.3094 61.2365C26.3094 57.7414 29.1427 54.9081 32.6378 54.9081V53.6425C28.4437 53.6425 25.0437 57.0424 25.0437 61.2365H26.3094ZM32.6378 67.5649C29.1427 67.5649 26.3094 64.7316 26.3094 61.2365H25.0437C25.0437 65.4306 28.4437 68.8305 32.6378 68.8305V67.5649ZM38.9662 61.2365C38.9662 64.7316 36.1329 67.5649 32.6378 67.5649V68.8305C36.8319 68.8305 40.2318 65.4306 40.2318 61.2365H38.9662ZM38.9662 54.2753V61.2365H40.2318V54.2753H38.9662ZM32.6378 54.9081H39.599V53.6425H32.6378V54.9081Z" fill="#A09910" mask="url(#path-2-inside-1_29_2077)"/>
<mask id="path-4-inside-2_29_2077" fill="white">
<path fill-rule="evenodd" clip-rule="evenodd" d="M31.9914 46.3545C24.1297 46.3545 17.7566 52.7276 17.7566 60.5893V61.8834C17.7566 69.7451 24.1297 76.1183 31.9914 76.1183H33.2855C41.1472 76.1183 47.5204 69.7451 47.5204 61.8834V46.3545H31.9914ZM32.0865 55.7244C29.0424 55.7244 26.5747 58.1921 26.5747 61.2362C26.5747 64.2803 29.0424 66.748 32.0865 66.748C35.1306 66.748 37.5983 64.2803 37.5983 61.2362V55.7244H32.0865Z"/>
</mask>
<path fill-rule="evenodd" clip-rule="evenodd" d="M31.9914 46.3545C24.1297 46.3545 17.7566 52.7276 17.7566 60.5893V61.8834C17.7566 69.7451 24.1297 76.1183 31.9914 76.1183H33.2855C41.1472 76.1183 47.5204 69.7451 47.5204 61.8834V46.3545H31.9914ZM32.0865 55.7244C29.0424 55.7244 26.5747 58.1921 26.5747 61.2362C26.5747 64.2803 29.0424 66.748 32.0865 66.748C35.1306 66.748 37.5983 64.2803 37.5983 61.2362V55.7244H32.0865Z" fill="url(#paint1_linear_29_2077)"/>
<path d="M47.5204 46.3545H48.0716V45.8033H47.5204V46.3545ZM37.5983 55.7244H38.1495V55.1732H37.5983V55.7244ZM18.3078 60.5893C18.3078 53.0321 24.4342 46.9057 31.9914 46.9057V45.8033C23.8253 45.8033 17.2054 52.4232 17.2054 60.5893H18.3078ZM18.3078 61.8834V60.5893H17.2054V61.8834H18.3078ZM31.9914 75.5671C24.4342 75.5671 18.3078 69.4407 18.3078 61.8834H17.2054C17.2054 70.0495 23.8253 76.6695 31.9914 76.6695V75.5671ZM33.2855 75.5671H31.9914V76.6695H33.2855V75.5671ZM46.9692 61.8834C46.9692 69.4407 40.8428 75.5671 33.2855 75.5671V76.6695C41.4516 76.6695 48.0716 70.0495 48.0716 61.8834H46.9692ZM46.9692 46.3545V61.8834H48.0716V46.3545H46.9692ZM31.9914 46.9057H47.5204V45.8033H31.9914V46.9057ZM27.1259 61.2362C27.1259 58.4965 29.3468 56.2755 32.0865 56.2755V55.1732C28.738 55.1732 26.0235 57.8877 26.0235 61.2362H27.1259ZM32.0865 66.1968C29.3468 66.1968 27.1259 63.9759 27.1259 61.2362H26.0235C26.0235 64.5847 28.738 67.2992 32.0865 67.2992V66.1968ZM37.0471 61.2362C37.0471 63.9759 34.8262 66.1968 32.0865 66.1968V67.2992C35.435 67.2992 38.1495 64.5847 38.1495 61.2362H37.0471ZM37.0471 55.7244V61.2362H38.1495V55.7244H37.0471ZM32.0865 56.2755H37.5983V55.1732H32.0865V56.2755Z" fill="#A09910" mask="url(#path-4-inside-2_29_2077)"/>
<path d="M24.646 60.6853C24.646 56.5758 27.9774 53.2443 32.0869 53.2443H40.6302V61.7876C40.6302 65.8972 37.2988 69.2286 33.1893 69.2286H32.0869C27.9774 69.2286 24.646 65.8972 24.646 61.7876V60.6853Z" stroke="#A09910" stroke-width="0.551181"/>
<path d="M22.4411 60.6854C22.4411 55.3583 26.7596 51.0398 32.0868 51.0398H42.8348V61.7878C42.8348 67.1149 38.5163 71.4335 33.1892 71.4335H32.0868C26.7596 71.4335 22.4411 67.1149 22.4411 61.7878V60.6854Z" stroke="#A09910" stroke-width="0.551181"/>
<path d="M20.2363 60.6851C20.2363 54.1403 25.5419 48.8347 32.0867 48.8347H45.0394V61.7874C45.0394 68.3322 39.7338 73.6378 33.189 73.6378H32.0867C25.5419 73.6378 20.2363 68.3322 20.2363 61.7874V60.6851Z" stroke="#A09910" stroke-width="0.551181"/>
<path d="M16.3427 31.8881C15.4562 34.028 15 36.3215 15 38.6378H27.6616C27.6616 37.9843 27.7902 37.3372 28.0402 36.7334C28.2905 36.1298 28.6571 35.5811 29.1192 35.119C29.581 34.6569 30.1298 34.2904 30.7334 34.0404C31.3371 33.7902 31.9843 33.6616 32.6378 33.6616C33.2912 33.6616 33.9385 33.7902 34.5422 34.0404C35.1458 34.2904 35.6946 34.6569 36.1564 35.119C36.6185 35.5811 36.9851 36.1298 37.2354 36.7334C37.4854 37.3372 37.614 37.9843 37.614 38.6378H37.5984V55.1732H50.2756V38.6378C50.2756 36.3215 49.8194 34.028 48.9329 31.8881C48.0466 29.7483 46.7475 27.8038 45.1096 26.166C43.4717 24.5282 41.5275 23.2289 39.3876 22.3426C37.2475 21.4562 34.9539 21 32.6378 21C30.3216 21 28.0281 21.4562 25.888 22.3426C23.7481 23.2289 21.8039 24.5282 20.166 26.166C18.528 27.8038 17.2289 29.7483 16.3427 31.8881Z" fill="#A1990F"/>
<mask id="path-10-inside-3_29_2077" fill="white">
<path fill-rule="evenodd" clip-rule="evenodd" d="M68.1053 55.1733C77.1316 55.1733 84.449 47.856 84.449 38.8296V37.3438C84.449 28.3174 77.1316 21.0001 68.1053 21.0001H66.6195C57.5931 21.0001 50.2757 28.3174 50.2757 37.3438V55.1733H68.1053ZM67.3629 45.048C71.2074 45.048 74.3241 41.9314 74.3241 38.0868C74.3241 34.2422 71.2074 31.1256 67.3629 31.1256C63.5183 31.1256 60.4017 34.2422 60.4017 38.0868V45.048H67.3629Z"/>
</mask>
<path fill-rule="evenodd" clip-rule="evenodd" d="M68.1053 55.1733C77.1316 55.1733 84.449 47.856 84.449 38.8296V37.3438C84.449 28.3174 77.1316 21.0001 68.1053 21.0001H66.6195C57.5931 21.0001 50.2757 28.3174 50.2757 37.3438V55.1733H68.1053ZM67.3629 45.048C71.2074 45.048 74.3241 41.9314 74.3241 38.0868C74.3241 34.2422 71.2074 31.1256 67.3629 31.1256C63.5183 31.1256 60.4017 34.2422 60.4017 38.0868V45.048H67.3629Z" fill="url(#paint2_linear_29_2077)"/>
<path d="M50.2757 55.1733H49.6429V55.8062H50.2757V55.1733ZM60.4017 45.048H59.7688V45.6809H60.4017V45.048ZM83.8161 38.8296C83.8161 47.5065 76.7821 54.5405 68.1053 54.5405V55.8062C77.4811 55.8062 85.0818 48.2055 85.0818 38.8296H83.8161ZM83.8161 37.3438V38.8296H85.0818V37.3438H83.8161ZM68.1053 21.633C76.7821 21.633 83.8161 28.667 83.8161 37.3438H85.0818C85.0818 27.9679 77.4812 20.3673 68.1053 20.3673V21.633ZM66.6195 21.633H68.1053V20.3673H66.6195V21.633ZM50.9086 37.3438C50.9086 28.667 57.9426 21.633 66.6195 21.633V20.3673C57.2436 20.3673 49.6429 27.9679 49.6429 37.3438H50.9086ZM50.9086 55.1733V37.3438H49.6429V55.1733H50.9086ZM68.1053 54.5405H50.2757V55.8062H68.1053V54.5405ZM73.6913 38.0868C73.6913 41.5819 70.8579 44.4152 67.3629 44.4152V45.6809C71.557 45.6809 74.9569 42.2809 74.9569 38.0868H73.6913ZM67.3629 31.7584C70.8579 31.7584 73.6913 34.5918 73.6913 38.0868H74.9569C74.9569 33.8927 71.557 30.4928 67.3629 30.4928V31.7584ZM61.0345 38.0868C61.0345 34.5918 63.8678 31.7584 67.3629 31.7584V30.4928C63.1688 30.4928 59.7688 33.8927 59.7688 38.0868H61.0345ZM61.0345 45.048V38.0868H59.7688V45.048H61.0345ZM67.3629 44.4152H60.4017V45.6809H67.3629V44.4152Z" fill="#A09910" mask="url(#path-10-inside-3_29_2077)"/>
<mask id="path-12-inside-4_29_2077" fill="white">
<path fill-rule="evenodd" clip-rule="evenodd" d="M68.0098 52.9688C75.8715 52.9688 82.2446 46.5956 82.2446 38.7339V37.4398C82.2446 29.5781 75.8715 23.205 68.0098 23.205H66.7157C58.854 23.205 52.4809 29.5781 52.4809 37.4398V52.9688H68.0098ZM67.9139 43.5989C70.958 43.5989 73.4257 41.1312 73.4257 38.0871C73.4257 35.043 70.958 32.5753 67.9139 32.5753C64.8698 32.5753 62.4021 35.043 62.4021 38.0871V43.5989H67.9139Z"/>
</mask>
<path fill-rule="evenodd" clip-rule="evenodd" d="M68.0098 52.9688C75.8715 52.9688 82.2446 46.5956 82.2446 38.7339V37.4398C82.2446 29.5781 75.8715 23.205 68.0098 23.205H66.7157C58.854 23.205 52.4809 29.5781 52.4809 37.4398V52.9688H68.0098ZM67.9139 43.5989C70.958 43.5989 73.4257 41.1312 73.4257 38.0871C73.4257 35.043 70.958 32.5753 67.9139 32.5753C64.8698 32.5753 62.4021 35.043 62.4021 38.0871V43.5989H67.9139Z" fill="url(#paint3_linear_29_2077)"/>
<path d="M52.4809 52.9688H51.9297V53.5199H52.4809V52.9688ZM62.4021 43.5989H61.8509V44.1501H62.4021V43.5989ZM81.6934 38.7339C81.6934 46.2912 75.5671 52.4176 68.0098 52.4176V53.5199C76.1759 53.5199 82.7958 46.9 82.7958 38.7339H81.6934ZM81.6934 37.4398V38.7339H82.7958V37.4398H81.6934ZM68.0098 23.7562C75.5671 23.7562 81.6934 29.8825 81.6934 37.4398H82.7958C82.7958 29.2737 76.1759 22.6538 68.0098 22.6538V23.7562ZM66.7157 23.7562H68.0098V22.6538H66.7157V23.7562ZM53.032 37.4398C53.032 29.8825 59.1584 23.7562 66.7157 23.7562V22.6538C58.5496 22.6538 51.9297 29.2737 51.9297 37.4398H53.032ZM53.032 52.9688V37.4398H51.9297V52.9688H53.032ZM68.0098 52.4176H52.4809V53.5199H68.0098V52.4176ZM72.8745 38.0871C72.8745 40.8268 70.6536 43.0478 67.9139 43.0478V44.1501C71.2624 44.1501 73.9769 41.4356 73.9769 38.0871H72.8745ZM67.9139 33.1265C70.6536 33.1265 72.8745 35.3475 72.8745 38.0871H73.9769C73.9769 34.7386 71.2624 32.0241 67.9139 32.0241V33.1265ZM62.9533 38.0871C62.9533 35.3475 65.1742 33.1265 67.9139 33.1265V32.0241C64.5654 32.0241 61.8509 34.7386 61.8509 38.0871H62.9533ZM62.9533 43.5989V38.0871H61.8509V43.5989H62.9533ZM67.9139 43.0478H62.4021V44.1501H67.9139V43.0478Z" fill="#A09910" mask="url(#path-12-inside-4_29_2077)"/>
<path d="M75.3548 38.638C75.3548 42.7475 72.0234 46.0789 67.9138 46.0789H59.3705V37.5356C59.3705 33.4261 62.702 30.0947 66.8115 30.0947H67.9138C72.0234 30.0947 75.3548 33.4261 75.3548 37.5356V38.638Z" stroke="#A09910" stroke-width="0.551181"/>
<path d="M77.5594 38.6378C77.5594 43.965 73.2409 48.2835 67.9137 48.2835H57.1657V37.5355C57.1657 32.2083 61.4842 27.8898 66.8113 27.8898H67.9137C73.2409 27.8898 77.5594 32.2083 77.5594 37.5355V38.6378Z" stroke="#A09910" stroke-width="0.551181"/>
<path d="M79.7642 38.6382C79.7642 45.183 74.4586 50.4886 67.9138 50.4886H54.9611V37.5358C54.9611 30.991 60.2667 25.6854 66.8115 25.6854H67.9138C74.4586 25.6854 79.7642 30.991 79.7642 37.5358V38.6382Z" stroke="#A09910" stroke-width="0.551181"/>
<path d="M83.6575 67.4346C84.5441 65.2948 85.0002 63.0012 85.0002 60.685H72.3387C72.3387 61.3384 72.21 61.9855 71.96 62.5893C71.7097 63.193 71.3432 63.7416 70.8811 64.2037C70.4192 64.6658 69.8705 65.0324 69.2668 65.2824C68.6632 65.5326 68.0159 65.6612 67.3624 65.6612C66.709 65.6612 66.0617 65.5326 65.4581 65.2824C64.8544 65.0324 64.3057 64.6658 63.8438 64.2037C63.3817 63.7416 63.0152 63.193 62.7649 62.5893C62.5149 61.9855 62.3862 61.3384 62.3862 60.685H62.4018V44.1495H49.7247V60.685C49.7247 63.0012 50.1808 65.2948 51.0674 67.4346C51.9536 69.5745 53.2527 71.519 54.8906 73.1568C56.5286 74.7946 58.4728 76.0938 60.6126 76.9802C62.7528 77.8666 65.0463 78.3228 67.3624 78.3228C69.6786 78.3228 71.9721 77.8666 74.1123 76.9802C76.2521 76.0938 78.1963 74.7946 79.8343 73.1568C81.4722 71.519 82.7713 69.5745 83.6575 67.4346Z" fill="#A1990F"/>
<defs>
<linearGradient id="paint0_linear_29_2077" x1="49.7247" y1="44.1499" x2="19.3485" y2="72.944" gradientUnits="userSpaceOnUse">
<stop stop-color="#CDC978"/>
<stop offset="1" stop-color="#FFFFDD"/>
</linearGradient>
<linearGradient id="paint1_linear_29_2077" x1="47.5204" y1="46.3545" x2="21.0637" y2="71.4332" gradientUnits="userSpaceOnUse">
<stop stop-color="#CDC978"/>
<stop offset="1" stop-color="#FFFFDD"/>
</linearGradient>
<linearGradient id="paint2_linear_29_2077" x1="50.2757" y1="55.1733" x2="80.6519" y2="26.3792" gradientUnits="userSpaceOnUse">
<stop stop-color="#CDC978"/>
<stop offset="1" stop-color="#FFFFDD"/>
</linearGradient>
<linearGradient id="paint3_linear_29_2077" x1="52.4809" y1="52.9688" x2="78.9375" y2="27.89" gradientUnits="userSpaceOnUse">
<stop stop-color="#CDC978"/>
<stop offset="1" stop-color="#FFFFDD"/>
</linearGradient>
</defs>
</svg>
