<svg width="100" height="100" viewBox="0 0 100 100" fill="none" xmlns="http://www.w3.org/2000/svg">
<rect width="100" height="100" fill="white"/>
<g clip-path="url(#clip0_29_2117)">
<path d="M0 18H100V81.5983H0V18Z" fill="white"/>
<path d="M54.1672 35.3601C43.4852 25.4187 25.8157 25.7994 14.7404 34.7283C14.7316 34.7333 14.7215 34.7352 14.7115 34.7339C14.7015 34.7325 14.6922 34.728 14.6851 34.7208C14.678 34.7137 14.6734 34.7044 14.672 34.6944C14.6707 34.6844 14.6727 34.6743 14.6776 34.6655C25.3011 22.3433 44.0668 22.5484 54.2258 35.3057C54.4573 35.593 54.4378 35.6111 54.1672 35.3601Z" fill="#C3692E"/>
<path d="M46.318 35.9959C47.0823 36.6542 47.0335 36.7239 46.1716 36.2051C34.2427 29.0461 17.887 32.0001 10.4979 44.4478C10.4569 44.5163 10.4352 44.5958 10.4352 44.6779C10.4352 44.8286 10.3877 44.9387 10.2929 45.0085C10.2009 45.0726 10.1716 45.0517 10.205 44.9457C11.3431 41.3836 13.2706 38.3948 15.9875 35.9792C24.7197 28.2093 37.4854 28.3934 46.318 35.9959Z" fill="#32865F"/>
<path d="M29.293 51.226L28.1591 54.0084C28.1498 54.0319 28.1337 54.0521 28.1128 54.0663C28.0919 54.0804 28.0672 54.088 28.042 54.0879H24.6989C24.6776 54.0879 24.6568 54.0825 24.6382 54.0722C24.6196 54.0619 24.604 54.0471 24.5927 54.0291C24.5814 54.0112 24.5749 53.9906 24.5737 53.9694C24.5725 53.9483 24.5767 53.9271 24.5859 53.908L29.6194 43.4896C29.6296 43.4683 29.6456 43.4503 29.6656 43.4378C29.6856 43.4252 29.7087 43.4185 29.7323 43.4185H33.7532C33.7785 43.4184 33.8032 43.4259 33.8241 43.4401C33.845 43.4543 33.8611 43.4745 33.8704 43.498L38.0796 53.9205C38.0871 53.9396 38.0899 53.9602 38.0876 53.9806C38.0853 54.001 38.078 54.0204 38.0665 54.0374C38.0549 54.0543 38.0394 54.0681 38.0213 54.0777C38.0031 54.0872 37.9829 54.0922 37.9625 54.0921L34.7784 54.0879C34.7531 54.088 34.7284 54.0804 34.7075 54.0663C34.6866 54.0521 34.6705 54.0319 34.6612 54.0084L33.5943 51.2427C33.585 51.2192 33.5689 51.1991 33.548 51.1849C33.5271 51.1707 33.5024 51.1632 33.4771 51.1632L29.4102 51.1465C29.3849 51.1464 29.3602 51.154 29.3393 51.1681C29.3184 51.1823 29.3023 51.2025 29.293 51.226Z" fill="#006838"/>
<path d="M44.4564 45.7574V54.0419C44.4564 54.0606 44.4527 54.0791 44.4456 54.0963C44.4384 54.1136 44.4279 54.1293 44.4147 54.1425C44.4015 54.1557 44.3858 54.1662 44.3686 54.1733C44.3513 54.1805 44.3328 54.1841 44.3141 54.1841L41.1468 54.2051C41.109 54.2051 41.0729 54.1901 41.0462 54.1634C41.0195 54.1367 41.0045 54.1005 41.0045 54.0628V45.7574C41.0045 45.7196 40.9895 45.6835 40.9628 45.6568C40.9362 45.6301 40.9 45.6151 40.8622 45.6151H37.7995C37.7618 45.6151 37.7256 45.6001 37.6989 45.5734C37.6722 45.5468 37.6572 45.5106 37.6572 45.4729V43.5607C37.6572 43.523 37.6722 43.4868 37.6989 43.4601C37.7256 43.4334 37.7618 43.4185 37.7995 43.4185H47.7535C47.7905 43.4184 47.826 43.4329 47.8526 43.4586C47.8792 43.4844 47.8946 43.5195 47.8957 43.5565L47.9417 45.4687C47.9423 45.4877 47.939 45.5066 47.9321 45.5244C47.9252 45.5421 47.9149 45.5583 47.9016 45.572C47.8883 45.5856 47.8724 45.5965 47.8549 45.6039C47.8374 45.6113 47.8185 45.6151 47.7995 45.6151H44.5986C44.5609 45.6151 44.5247 45.6301 44.4981 45.6568C44.4714 45.6835 44.4564 45.7196 44.4564 45.7574Z" fill="#006838"/>
<path d="M53.0713 52.1004H57.7157C57.7534 52.1004 57.7896 52.1154 57.8163 52.1421C57.843 52.1687 57.8579 52.2049 57.8579 52.2426V54.0502C57.8579 54.0879 57.843 54.1241 57.8163 54.1508C57.7896 54.1774 57.7534 54.1924 57.7157 54.1924H49.724C49.6863 54.1924 49.6501 54.1774 49.6235 54.1508C49.5968 54.1241 49.5818 54.0879 49.5818 54.0502V43.5481C49.5818 43.529 49.5856 43.5102 49.593 43.4927C49.6004 43.4751 49.6113 43.4592 49.6249 43.446C49.6386 43.4327 49.6548 43.4223 49.6725 43.4154C49.6902 43.4085 49.7092 43.4053 49.7282 43.4058L52.791 43.456C52.828 43.4571 52.8631 43.4726 52.8889 43.4991C52.9147 43.5257 52.9291 43.5613 52.9291 43.5983V51.9581C52.9291 51.9768 52.9327 51.9953 52.9399 52.0126C52.947 52.0298 52.9575 52.0455 52.9707 52.0587C52.9839 52.0719 52.9996 52.0824 53.0169 52.0896C53.0341 52.0967 53.0526 52.1004 53.0713 52.1004Z" fill="#006838"/>
<path d="M68.5775 51.142L64.5105 51.1671C64.4857 51.1667 64.4614 51.1737 64.4405 51.1871C64.4197 51.2005 64.4033 51.2197 64.3934 51.2425L63.2344 54.0333C63.2251 54.0568 63.209 54.0769 63.1881 54.0911C63.1672 54.1053 63.1425 54.1128 63.1172 54.1128L59.7951 54.0793C59.7742 54.0786 59.7538 54.0727 59.7358 54.0621C59.7178 54.0515 59.7027 54.0366 59.6919 54.0188C59.6811 54.0009 59.675 53.9806 59.674 53.9598C59.673 53.9389 59.6772 53.9182 59.6863 53.8994L64.6904 43.5981C64.7009 43.5782 64.7166 43.5615 64.7357 43.5498C64.7548 43.538 64.7768 43.5316 64.7992 43.5312L68.8536 43.4307C68.8796 43.4298 68.9052 43.437 68.9269 43.4512C68.9487 43.4654 68.9655 43.4861 68.975 43.5102L73.1716 53.9203C73.1791 53.9393 73.1819 53.96 73.1796 53.9803C73.1773 54.0007 73.17 54.0202 73.1585 54.0371C73.1469 54.054 73.1314 54.0679 73.1133 54.0774C73.0951 54.0869 73.075 54.0919 73.0545 54.0918L69.8829 54.0876C69.8577 54.0877 69.833 54.0802 69.8121 54.066C69.7912 54.0518 69.775 54.0317 69.7658 54.0082L68.6946 51.2215C68.6854 51.198 68.6692 51.1779 68.6483 51.1637C68.6274 51.1495 68.6027 51.142 68.5775 51.142Z" fill="#006838"/>
<path d="M78.7115 51.9874C78.8156 51.9181 78.9018 51.8251 78.963 51.716C79.0242 51.607 79.0586 51.485 79.0635 51.36C79.0684 51.2351 79.0436 51.1107 78.9912 50.9972C78.9387 50.8837 78.86 50.7842 78.7617 50.707C78.3851 50.41 78.0295 49.9832 77.565 49.7489C75.3893 48.6484 73.1341 44.9832 76.7868 43.8535C78.2903 43.3904 79.8342 43.336 81.4186 43.6903C81.5497 43.7182 81.6292 43.7977 81.6571 43.9288L82.0253 45.7154C82.0311 45.7412 82.0304 45.7681 82.0232 45.7936C82.016 45.8191 82.0026 45.8426 81.9841 45.8619C81.9656 45.8813 81.9425 45.8959 81.9169 45.9047C81.8912 45.9134 81.8638 45.9159 81.837 45.912C80.791 45.7405 79.3307 45.2677 78.519 46.0627C78.4257 46.1534 78.3545 46.2644 78.3109 46.3871C78.2673 46.5098 78.2524 46.6409 78.2673 46.7705C78.2822 46.9001 78.3266 47.0247 78.3971 47.1348C78.4676 47.2449 78.5622 47.3376 78.6738 47.4058C80.0922 48.2593 82.3307 49.8284 82.4144 51.5689C82.5734 54.7489 77.3223 54.7614 75.3307 54.0041C75.2163 53.9623 75.1466 53.8814 75.1215 53.7614L74.6989 51.7949C74.6654 51.6275 74.7282 51.5717 74.8872 51.6275C76.2387 52.1129 77.6362 52.7028 78.7115 51.9874Z" fill="#006838"/>
<path d="M65.4392 48.6739L66.5815 45.9877C66.5906 45.964 66.6066 45.9436 66.6275 45.9293C66.6485 45.9149 66.6732 45.9072 66.6986 45.9072C66.724 45.9072 66.7488 45.9149 66.7697 45.9293C66.7906 45.9436 66.8067 45.964 66.8158 45.9877L67.9078 48.6948C67.9153 48.7139 67.9181 48.7345 67.9158 48.7548C67.9135 48.7752 67.9062 48.7947 67.8947 48.8116C67.8831 48.8285 67.8676 48.8424 67.8495 48.8519C67.8314 48.8615 67.8112 48.8664 67.7907 48.8663L65.5564 48.8496C65.5353 48.85 65.5146 48.845 65.4959 48.8353C65.4773 48.8255 65.4615 48.8112 65.4498 48.7937C65.4381 48.7762 65.431 48.7561 65.4292 48.7352C65.4273 48.7142 65.4308 48.6931 65.4392 48.6739Z" fill="white"/>
<path d="M30.3726 48.6109L31.4438 46.1046C31.4568 46.0741 31.4786 46.0481 31.5064 46.03C31.5342 46.0119 31.5668 46.0025 31.6 46.0029C31.6332 46.0034 31.6655 46.0137 31.6928 46.0326C31.7201 46.0514 31.7412 46.078 31.7534 46.1088L32.7492 48.6486C32.7596 48.6743 32.7635 48.7022 32.7604 48.7298C32.7574 48.7573 32.7475 48.7837 32.7318 48.8065C32.716 48.8293 32.6948 48.8479 32.6701 48.8605C32.6454 48.8731 32.6179 48.8793 32.5902 48.8787L30.5233 48.8452C30.4957 48.8448 30.4687 48.8375 30.4446 48.8241C30.4205 48.8107 30.4001 48.7916 30.3852 48.7684C30.3703 48.7452 30.3614 48.7187 30.3592 48.6912C30.357 48.6638 30.3616 48.6362 30.3726 48.6109Z" fill="white"/>
<path d="M45.9871 61.2931C45.7041 61.2956 45.4234 61.2373 45.1609 61.1216C44.8985 61.006 44.6594 60.8351 44.4575 60.6189C44.2555 60.4027 44.0945 60.1453 43.9837 59.8615C43.8729 59.5777 43.8146 59.2729 43.8119 58.9647C43.8064 58.3422 44.0282 57.7432 44.4285 57.2995C44.8287 56.8558 45.3746 56.6037 45.9461 56.5987C46.2291 56.5962 46.5098 56.6545 46.7722 56.7702C47.0347 56.8859 47.2737 57.0567 47.4757 57.2729C47.6777 57.4891 47.8387 57.7465 47.9495 58.0303C48.0602 58.3141 48.1186 58.6189 48.1213 58.9271C48.1268 59.5496 47.9049 60.1486 47.5047 60.5923C47.1045 61.036 46.5586 61.2881 45.9871 61.2931Z" fill="#006838"/>
<path d="M59.9163 56.72C61.5272 56.5401 63.4351 57.5736 61.6527 59.0924C61.631 59.1111 61.6133 59.1341 61.6008 59.1599C61.5884 59.1857 61.5813 59.2138 61.5801 59.2424C61.579 59.271 61.5837 59.2996 61.594 59.3264C61.6043 59.3531 61.62 59.3774 61.6402 59.3978L62.9791 60.7368C63.0907 60.8483 63.0851 60.9543 62.9623 61.0548L62.8619 61.1384C62.7336 61.2416 62.6137 61.2333 62.5021 61.1133L60.8912 59.3393C60.7852 59.2221 60.7936 59.1161 60.9163 59.0213C61.1883 58.8079 61.4226 58.7953 61.5983 58.4899C61.8494 58.052 61.7294 57.6517 61.2385 57.2891C60.6248 56.84 60.3012 56.9948 60.2678 57.7535C60.2315 58.5457 60.2287 59.5192 60.2594 60.674C60.265 60.9529 60.166 61.1231 59.9623 61.1845C59.8061 61.2319 59.728 61.1733 59.728 61.0087V56.9334C59.728 56.8051 59.7908 56.734 59.9163 56.72Z" fill="#006838"/>
<path d="M26.6444 59.4142L27.9122 60.8116C27.9331 60.8339 27.9489 60.8604 27.9584 60.8894C27.9679 60.9184 27.971 60.9491 27.9674 60.9794C27.9638 61.0097 27.9537 61.0388 27.9376 61.0648C27.9216 61.0908 27.9001 61.1129 27.8746 61.1296C27.6988 61.244 27.5343 61.2091 27.3808 61.025C26.8955 60.442 26.3753 59.8884 25.8202 59.3639C25.7002 59.2524 25.7072 59.1478 25.8411 59.0501C26.5942 58.5062 27.2218 57.82 26.0001 57.1882C25.4729 56.9149 25.2093 57.0752 25.2093 57.6694V60.9372C25.2093 61.1129 25.1214 61.2008 24.9457 61.2008H24.7281C24.703 61.2008 24.6782 61.1958 24.6551 61.186C24.632 61.1763 24.611 61.1621 24.5935 61.1441C24.5759 61.1262 24.5622 61.105 24.553 61.0816C24.5437 61.0583 24.5393 61.0334 24.5398 61.0083L24.6026 56.8577C24.6026 56.6875 24.6877 56.615 24.8578 56.6401L26.7114 56.9079C26.782 56.918 26.8489 56.9455 26.9059 56.9879C26.9629 57.0303 27.0083 57.0862 27.0378 57.1506C27.3753 57.8925 27.2511 58.5215 26.6654 59.0376C26.5287 59.1575 26.5217 59.2831 26.6444 59.4142Z" fill="#006838"/>
<path d="M38.6321 58.1885L39.9166 59.0044C40.0198 59.0713 40.0993 59.1592 40.1551 59.268C40.9961 60.9249 39.1551 61.3935 37.8915 61.1801C37.6795 61.1466 37.6488 61.0532 37.7994 60.8998L37.8957 60.8035C37.9765 60.7226 38.0742 60.6822 38.1885 60.6822L39.1844 60.6696C39.3361 60.6665 39.4822 60.6111 39.598 60.5129C39.7138 60.4148 39.7923 60.2797 39.8203 60.1305C39.8482 59.9813 39.824 59.827 39.7516 59.6936C39.6793 59.5601 39.5632 59.4556 39.4229 59.3977C36.3224 58.155 38.8998 55.7491 40.3685 56.9374C40.3904 56.9557 40.4054 56.981 40.411 57.0091C40.4167 57.0371 40.4126 57.0662 40.3994 57.0916C40.3862 57.117 40.3648 57.1371 40.3386 57.1486C40.3124 57.1601 40.2831 57.1624 40.2555 57.155C39.5442 56.9486 38.9738 57.109 38.5442 57.6362C38.5104 57.6769 38.4858 57.7244 38.4718 57.7754C38.4578 57.8265 38.4549 57.8799 38.4632 57.9322C38.4716 57.9844 38.4909 58.0343 38.52 58.0785C38.5491 58.1227 38.5873 58.1602 38.6321 58.1885Z" fill="#006838"/>
<path d="M53.5858 60.7449C55.5984 61.0545 55.0168 58.042 55.0251 56.8955C55.0251 56.7421 55.1018 56.6752 55.2553 56.6947C55.5035 56.731 55.6346 56.9095 55.6486 57.2303C55.6653 57.6822 55.6053 58.1257 55.4687 58.5608C55.4268 58.6919 55.4226 58.8244 55.4561 58.9583C55.7615 60.1633 55.18 61.1591 53.9038 61.2679C51.3641 61.4855 51.9456 58.8621 51.7908 57.3642C51.7713 57.1661 51.7964 57.0169 51.8661 56.9165C51.9331 56.8161 52.0335 56.7505 52.1674 56.7198C52.1969 56.713 52.2275 56.7128 52.257 56.7192C52.2865 56.7256 52.3143 56.7385 52.3383 56.7569C52.3623 56.7753 52.3819 56.7987 52.3958 56.8256C52.4096 56.8525 52.4174 56.8821 52.4184 56.9123C52.4561 58.0713 52.0251 60.5022 53.5858 60.7449Z" fill="#006838"/>
<path d="M68.8699 60.6235C69.1294 60.6291 69.34 60.7086 69.5017 60.862C69.5351 60.8934 69.5582 60.9341 69.5683 60.9788C69.5784 61.0235 69.5749 61.0702 69.5582 61.1129C69.5416 61.1556 69.5126 61.1923 69.475 61.2184C69.4373 61.2446 69.3927 61.2588 69.3469 61.2595C65.5059 61.2804 65.0373 56.9038 69.0959 56.6946C69.2214 56.689 69.3121 56.7141 69.3678 56.7699C69.4069 56.8062 69.4334 56.8508 69.4473 56.9038C69.4531 56.9232 69.4543 56.9436 69.451 56.9636C69.4477 56.9835 69.4399 57.0025 69.4282 57.019C69.4165 57.0355 69.4013 57.0491 69.3836 57.0589C69.3659 57.0687 69.3462 57.0743 69.326 57.0754C66.4976 57.2218 65.8239 60.544 68.8699 60.6235Z" fill="#006838"/>
<path d="M80.3851 58.3599C81.0713 58.6388 81.5916 59.0851 81.9458 59.6988C81.988 59.7731 82.0105 59.8573 82.0112 59.9436C82.012 60.0299 81.9909 60.1155 81.95 60.1925C81.4256 61.1688 80.5692 61.4742 79.381 61.1088C79.1857 61.0475 79.1759 60.9652 79.3517 60.862L79.5609 60.7406C79.6892 60.6625 79.8273 60.6388 79.9751 60.6695C80.5525 60.7839 81.0253 60.6207 81.3935 60.18C81.4224 60.1452 81.444 60.1049 81.4569 60.0614C81.4698 60.018 81.4739 59.9723 81.4688 59.9271C81.4637 59.8818 81.4496 59.838 81.4274 59.798C81.4051 59.7581 81.3751 59.7229 81.3391 59.6946C80.7157 59.2051 78.4228 58.2302 79.95 57.0628C80.4772 56.6611 81.0741 56.5607 81.7408 56.7616C81.7776 56.7727 81.8094 56.7963 81.8309 56.8281C81.8524 56.86 81.8622 56.8983 81.8588 56.9366C81.8554 56.9749 81.8388 57.0109 81.812 57.0384C81.7852 57.066 81.7497 57.0835 81.7115 57.0879L80.5525 57.2009C80.418 57.2137 80.2918 57.2712 80.1939 57.3644C80.0961 57.4576 80.0325 57.5809 80.0132 57.7146C79.9939 57.8483 80.02 57.9846 80.0875 58.1016C80.155 58.2186 80.2598 58.3096 80.3851 58.3599Z" fill="#006838"/>
<path d="M31.8994 59.3348L32.0375 60.3892C32.0598 60.5454 32.1491 60.6319 32.3053 60.6486C32.8911 60.7128 33.2788 60.7281 33.4685 60.6946C33.8757 60.6193 34.17 60.6723 34.3513 60.8536C34.3792 60.8825 34.3979 60.919 34.4053 60.9584C34.4126 60.9979 34.4082 61.0386 34.3926 61.0756C34.377 61.1125 34.3509 61.1441 34.3175 61.1664C34.2842 61.1887 34.245 61.2007 34.2049 61.2009H31.6944C31.4852 61.2009 31.3806 61.0963 31.3806 60.8871V57.1214C31.3806 56.9122 31.4852 56.8076 31.6944 56.8076H34.1881C34.224 56.8105 34.2577 56.8262 34.283 56.8518C34.3083 56.8774 34.3237 56.9112 34.3262 56.9472C34.3287 56.9831 34.3183 57.0187 34.2968 57.0476C34.2753 57.0765 34.2442 57.0968 34.2091 57.1047C33.7516 57.1688 33.2886 57.1758 32.8199 57.1256C32.7215 57.1146 32.6219 57.124 32.5272 57.153C32.4326 57.1821 32.3449 57.2303 32.2696 57.2946C32.1943 57.3589 32.133 57.438 32.0894 57.527C32.0459 57.6159 32.0211 57.7129 32.0166 57.8118L31.9915 58.2972C31.9831 58.4896 32.0752 58.5859 32.2676 58.5859H34.0584C34.2091 58.5859 34.2941 58.6598 34.3137 58.8076C34.3192 58.8606 34.3109 58.9108 34.2886 58.9582C34.2467 59.0587 34.1714 59.1089 34.0626 59.1089H32.0961C31.9455 59.1089 31.8799 59.1842 31.8994 59.3348Z" fill="#006838"/>
<path d="M73.8994 60.703C74.619 60.5719 75.308 60.6403 75.9663 60.908C75.9985 60.9195 76.0254 60.9421 76.0423 60.9717C76.0592 61.0014 76.0649 61.0361 76.0583 61.0696C76.0517 61.1031 76.0333 61.1331 76.0064 61.1541C75.9795 61.1751 75.946 61.1858 75.9119 61.1842L73.368 61.18C73.2006 61.18 73.1169 61.0963 73.1169 60.929V57.0168C73.1169 56.8774 73.1867 56.8076 73.3261 56.8076H75.8073C75.8994 56.8076 75.9384 56.8536 75.9245 56.9457C75.9189 56.9931 75.8966 57.0336 75.8575 57.067C75.8324 57.0921 75.7976 57.1061 75.7529 57.1089C75.1337 57.1256 74.513 57.1284 73.891 57.1172C73.7599 57.1145 73.686 57.1786 73.6692 57.3097L73.5605 58.2679C73.5563 58.3082 73.5606 58.349 73.5731 58.3875C73.5855 58.426 73.6058 58.4614 73.6327 58.4914C73.6595 58.5214 73.6923 58.5453 73.7289 58.5616C73.7655 58.5779 73.805 58.5861 73.845 58.5859H75.5856C75.7529 58.5859 75.8575 58.6668 75.8994 58.8285L75.9328 58.9624C75.9373 58.9791 75.9379 58.9967 75.9346 59.0136C75.9312 59.0306 75.924 59.0466 75.9135 59.0603C75.903 59.0741 75.8894 59.0852 75.8739 59.0929C75.8584 59.1006 75.8414 59.1046 75.8241 59.1047L73.8492 59.1131C73.7097 59.1131 73.64 59.1814 73.64 59.3181V60.4896C73.64 60.6654 73.7264 60.7365 73.8994 60.703Z" fill="#006838"/>
<path d="M44.4434 58.9529C44.4452 59.9742 45.1323 60.801 45.978 60.7996C46.8238 60.7981 47.5079 59.9689 47.5062 58.9475C47.5044 57.9261 46.8173 57.0993 45.9716 57.1008C45.1258 57.1023 44.4416 57.9315 44.4434 58.9529Z" fill="white"/>
</g>
<defs>
<clipPath id="clip0_29_2117">
<rect width="100" height="63.5983" fill="white" transform="translate(0 18)"/>
</clipPath>
</defs>
</svg>
