<svg width="100" height="100" viewBox="0 0 100 100" fill="none" xmlns="http://www.w3.org/2000/svg">
<rect width="100" height="100" fill="#FFE200"/>
<path d="M83.3972 70.199C83.3956 71.1015 83.0369 71.9664 82.3999 72.6035C81.7629 73.2405 80.8998 73.5975 80.0005 73.596L19.9235 73.4907C19.4782 73.49 19.0374 73.4012 18.6263 73.2294C18.2152 73.0577 17.8419 72.8064 17.5276 72.4899C17.2132 72.1733 16.9641 71.7977 16.7944 71.3846C16.6247 70.9714 16.5378 70.5288 16.5386 70.0819L16.6086 29.8296C16.6102 28.9271 16.969 28.0622 17.606 27.4251C18.243 26.7881 19.1061 26.4311 20.0053 26.4326L80.0823 26.5379C80.5276 26.5386 80.9684 26.6274 81.3795 26.7992C81.7906 26.9709 82.164 27.2222 82.4783 27.5387C82.7926 27.8553 83.0417 28.2309 83.2114 28.644C83.3811 29.0572 83.468 29.4998 83.4673 29.9467L83.3972 70.199Z" fill="#0046A9"/>
<path d="M84.9267 71.3987C84.9251 72.3555 84.5499 73.2725 83.8836 73.9478C83.2174 74.6232 82.3147 75.0017 81.3741 75L18.5403 74.8884C18.0745 74.8876 17.6135 74.7935 17.1836 74.6114C16.7536 74.4294 16.3631 74.1629 16.0344 73.8273C15.7056 73.4918 15.4451 73.0936 15.2676 72.6556C15.0901 72.2176 14.9992 71.7483 15 71.2746L15.0733 28.6013C15.0749 27.6445 15.4501 26.7275 16.1164 26.0522C16.7826 25.3768 17.6853 24.9983 18.6259 25L81.4597 25.1116C81.9255 25.1124 82.3865 25.2065 82.8164 25.3886C83.2464 25.5706 83.6369 25.8371 83.9656 26.1727C84.2944 26.5082 84.5549 26.9064 84.7324 27.3444C84.9099 27.7824 85.0008 28.2517 85 28.7254L84.9267 71.3987Z" fill="#0046A9"/>
<path d="M83.9288 70.5428C83.9272 71.4613 83.5627 72.3416 82.9155 72.9899C82.2683 73.6383 81.3914 74.0016 80.4777 74L19.4391 73.8929C18.9867 73.8921 18.5389 73.8017 18.1212 73.627C17.7035 73.4522 17.3242 73.1964 17.0048 72.8743C16.6855 72.5521 16.4324 72.1699 16.26 71.7494C16.0875 71.3289 15.9992 70.8784 16 70.4236L16.0712 29.4572C16.0728 28.5387 16.4373 27.6584 17.0845 27.0101C17.7317 26.3617 18.6086 25.9984 19.5223 26L80.5609 26.1071C81.0133 26.1079 81.4611 26.1983 81.8788 26.373C82.2965 26.5478 82.6758 26.8036 82.9952 27.1257C83.3145 27.4479 83.5676 27.8301 83.7401 28.2506C83.9125 28.6711 84.0008 29.1216 84 29.5764L83.9288 70.5428Z" fill="white"/>
<path d="M82.1972 70.0338C82.1972 70.606 81.9707 71.1544 81.5681 71.5585C81.1655 71.9625 80.6199 72.1891 80.0513 72.1891H20.0226C19.4541 72.1891 18.9084 71.9625 18.5059 71.5585C18.1032 71.1544 17.8767 70.606 17.8767 70.0338V30.0435C17.8767 29.4713 18.1032 28.9229 18.5059 28.5188C18.9084 28.1148 19.4541 27.8882 20.0226 27.8882H80.0513C80.6199 27.8882 81.1655 28.1148 81.5681 28.5188C81.9707 28.9229 82.1972 29.4713 82.1972 30.0435V70.0338Z" fill="#FFE200" stroke="#0046A9"/>
<path d="M77.8938 31.199L67.2038 45.2476C67.1532 45.315 67.1254 45.3968 67.1246 45.4807C67.1237 45.5647 67.1498 45.6463 67.199 45.7136C70.7494 50.5938 74.287 55.5129 77.8116 60.4708C80.0318 63.5922 79.1563 68.0097 75.3495 69.0534C74.8174 69.199 73.2953 69.2734 70.7833 69.2767C50.4383 69.3123 35.5932 69.3171 26.2479 69.2912C23.0022 69.2815 20.1241 66.1165 20.9996 62.8786C21.2027 62.1246 21.8703 60.9967 23.0022 59.4951C29.7161 50.5728 36.4332 41.6537 43.1536 32.7379C44.1791 31.3738 45.0159 30.7379 46.8443 30.7184C49.2919 30.6893 51.7411 30.6877 54.1919 30.7136C54.3467 30.7168 54.4241 30.7961 54.4241 30.9515V38.4709C54.4241 38.5674 54.4623 38.66 54.5304 38.7283C54.5984 38.7966 54.6907 38.8349 54.7869 38.8349H57.5682C57.7295 38.8349 57.8101 38.754 57.8101 38.5922V31.0048C57.8101 30.8042 57.9101 30.7039 58.11 30.7039H77.6471C78.0631 30.7039 78.1454 30.8689 77.8938 31.199Z" fill="#0046A9"/>
<path d="M26.8528 62.1938C33.0637 53.6064 39.5502 45.121 45.9546 36.655C46.2577 36.2537 46.6028 35.8977 46.9897 35.587C47.1155 35.4867 47.259 35.4365 47.4202 35.4365H49.4663C49.6276 35.4365 49.7082 35.5174 49.7082 35.6792V47.3297C49.7082 47.3941 49.7337 47.4558 49.779 47.5013C49.8244 47.5469 49.8859 47.5724 49.9501 47.5724H62.4202C62.5846 47.5724 62.7152 47.6404 62.812 47.7763L73.2311 62.3151C73.3836 62.5269 73.4747 62.7768 73.4946 63.0372C73.5144 63.2977 73.4621 63.5586 73.3435 63.7911C73.2249 64.0236 73.0446 64.2188 72.8225 64.3549C72.6003 64.4911 72.345 64.563 72.0847 64.5627H28.0572C27.7827 64.562 27.5135 64.4854 27.2794 64.3413C27.0453 64.1972 26.8555 63.9912 26.7309 63.7461C26.6062 63.501 26.5517 63.2262 26.5732 62.9523C26.5947 62.6784 26.6915 62.4159 26.8528 62.1938Z" fill="#FFE200"/>
</svg>
