<svg width="100" height="100" viewBox="0 0 100 100" fill="none" xmlns="http://www.w3.org/2000/svg">
<rect width="100" height="100" fill="white"/>
<mask id="mask0_29_2300" style="mask-type:alpha" maskUnits="userSpaceOnUse" x="11" y="25" width="47" height="38">
<path d="M43.0254 48.5549C45.4039 48.1796 47.5514 46.7537 49.4681 44.277C46.7086 39.5547 43.8827 34.7919 40.9904 29.9888C36.6866 22.8446 30.8847 23.7106 26.8666 30.4391C21.8325 38.8735 16.8302 47.3252 11.8596 55.7942C8.58629 61.3797 15.5572 64.5491 17.8087 60.7821C22.7216 52.5613 27.5103 44.508 32.1749 36.622C32.3668 36.2981 32.6396 36.03 32.9668 35.8438C33.2939 35.6576 33.6641 35.5597 34.0412 35.5597C34.4182 35.5597 34.7892 35.6576 35.1178 35.8438C35.4465 36.03 35.7214 36.2981 35.9159 36.622L43.0254 48.5549Z" fill="#14659E"/>
<path d="M57.158 57.2923C54.6813 53.003 52.1179 48.6645 49.4681 44.277C47.5514 46.7537 45.4039 48.1796 43.0254 48.5549C45.1787 52.2438 47.3813 55.9588 49.6328 59.6997C52.9841 65.2505 59.0111 60.505 57.158 57.2923Z" fill="#14659E"/>
</mask>
<g mask="url(#mask0_29_2300)">
<path d="M43.0254 48.5549C45.4039 48.1796 47.5514 46.7537 49.4681 44.277C46.7086 39.5547 43.8827 34.7919 40.9904 29.9888C36.6866 22.8446 30.8847 23.7106 26.8666 30.4391C21.8325 38.8735 16.8302 47.3252 11.8596 55.7942C8.58629 61.3797 15.5572 64.5491 17.8087 60.7821C22.7216 52.5613 27.5103 44.508 32.1749 36.622C32.3668 36.2981 32.6396 36.03 32.9668 35.8438C33.2939 35.6576 33.6641 35.5597 34.0412 35.5597C34.4182 35.5597 34.7892 35.6576 35.1178 35.8438C35.4465 36.03 35.7214 36.2981 35.9159 36.622L43.0254 48.5549Z" fill="#14659E"/>
<path d="M57.158 57.2923C54.6813 53.003 52.1179 48.6645 49.4681 44.277C47.5514 46.7537 45.4039 48.1796 43.0254 48.5549C45.1787 52.2438 47.3813 55.9588 49.6328 59.6997C52.9841 65.2505 59.0111 60.505 57.158 57.2923Z" fill="#14659E"/>
<path d="M27.1699 28.1187L38.5786 21.5495L60.2275 59.0465L51.76 63.9352L32.2786 31.0757C31.2068 29.2677 29.2715 28.1476 27.1699 28.1187Z" fill="url(#paint0_linear_29_2300)"/>
</g>
<mask id="mask1_29_2300" style="mask-type:alpha" maskUnits="userSpaceOnUse" x="42" y="25" width="47" height="38">
<path d="M58.5695 41.8526C55.7695 37.0957 52.9292 32.2752 50.0485 27.3912C47.1821 22.5332 40.4104 26.0056 44.0387 32.1972C46.9772 37.214 49.8752 42.0922 52.7329 46.8319C54.4359 49.7415 56.0986 52.55 57.7208 55.2576C57.9828 55.6922 58.2297 56.1122 58.467 56.5158C60.5272 60.0202 61.8625 62.2916 66.0946 62.2372C70.1169 62.1936 71.9459 58.9914 73.6445 56.0174C73.9682 55.4507 74.2871 54.8923 74.6156 54.3657C74.8111 54.051 75.0838 53.7916 75.4078 53.6119C75.7318 53.4323 76.0964 53.3385 76.4668 53.3393C76.8373 53.3402 77.2014 53.4357 77.5245 53.6169C77.8477 53.798 78.1192 54.0588 78.3132 54.3743C78.5784 54.8052 78.8719 55.3452 79.1952 55.94C80.9839 59.2306 83.684 64.1979 87.527 61.631C89.5793 60.2628 89.2243 57.8728 88.0552 55.8724C87.6126 55.1181 87.1483 54.2364 86.6525 53.2948C84.0631 48.3778 80.6124 41.8254 74.8927 43.2208C71.6544 44.004 70.1975 46.6538 68.6539 49.4614C68.4226 49.8822 68.1893 50.3065 67.9477 50.7287C66.7094 52.8762 64.6571 51.9756 63.5833 50.2177C61.9149 47.4871 60.2436 44.6987 58.5695 41.8526Z" fill="#14659E"/>
</mask>
<g mask="url(#mask1_29_2300)">
<path d="M58.5695 41.8526C55.7695 37.0957 52.9292 32.2752 50.0485 27.3912C47.1821 22.5332 40.4104 26.0056 44.0387 32.1972C46.9772 37.214 49.8752 42.0922 52.7329 46.8319C54.4359 49.7415 56.0986 52.55 57.7208 55.2576C57.9828 55.6922 58.2297 56.1122 58.467 56.5158C60.5272 60.0202 61.8625 62.2916 66.0946 62.2372C70.1169 62.1936 71.9459 58.9914 73.6445 56.0174C73.9682 55.4507 74.2871 54.8923 74.6156 54.3657C74.8111 54.051 75.0838 53.7916 75.4078 53.6119C75.7318 53.4323 76.0964 53.3385 76.4668 53.3393C76.8373 53.3402 77.2014 53.4357 77.5245 53.6169C77.8477 53.798 78.1192 54.0588 78.3132 54.3743C78.5784 54.8052 78.8719 55.3452 79.1952 55.94C80.9839 59.2306 83.684 64.1979 87.527 61.631C89.5793 60.2628 89.2243 57.8728 88.0552 55.8724C87.6126 55.1181 87.1483 54.2364 86.6525 53.2948C84.0631 48.3778 80.6124 41.8254 74.8927 43.2208C71.6544 44.004 70.1975 46.6538 68.6539 49.4614C68.4226 49.8822 68.1893 50.3065 67.9477 50.7287C66.7094 52.8762 64.6571 51.9756 63.5833 50.2177C61.9149 47.4871 60.2436 44.6987 58.5695 41.8526Z" fill="#137BB8"/>
<path d="M89.5281 53.0229L73.7337 33.6646L55.1542 48.813L66.8796 63.1943L72.6326 60.5045L75.6635 53.0229L76.8262 52.2658C80.7666 49.7 85.9204 50.0072 89.5281 53.0229Z" fill="url(#paint1_linear_29_2300)"/>
<path d="M71.8833 59.4502L62.6741 64.7495L41.0252 27.2525L47.8591 23.3069L67.5042 56.6117C68.4371 58.1931 70.0588 59.2443 71.8833 59.4502Z" fill="url(#paint2_linear_29_2300)"/>
</g>
<path d="M13.4399 69.6852C13.432 69.6653 13.4182 69.6482 13.4005 69.6362C13.3827 69.6242 13.3618 69.6177 13.3403 69.6177C13.3189 69.6177 13.2979 69.6242 13.2801 69.6362C13.2624 69.6482 13.2486 69.6653 13.2407 69.6852L11.2084 74.562C11.1883 74.6118 11.1539 74.6545 11.1097 74.6845C11.0654 74.7146 11.0134 74.7306 10.9602 74.7305H10.1601C10.011 74.7305 9.96601 74.6621 10.0253 74.5252L12.6951 68.3886C12.7515 68.2603 12.8441 68.1511 12.9615 68.0744C13.0789 67.9976 13.216 67.9568 13.3559 67.9568C13.4959 67.9568 13.6326 67.9976 13.7494 68.0744C13.8661 68.1511 13.9578 68.2603 14.0131 68.3886L16.6584 74.5068C16.6691 74.5311 16.6734 74.5576 16.671 74.584C16.6686 74.6105 16.6596 74.6359 16.6446 74.6582C16.6297 74.6804 16.6094 74.6986 16.5856 74.7113C16.5618 74.7239 16.5352 74.7305 16.5082 74.7305H15.6867C15.5805 74.7305 15.5079 74.6815 15.4691 74.5834L13.4399 69.6852Z" fill="#017CBA"/>
<path d="M37.4074 71.4388C37.4074 71.8872 37.3191 72.3313 37.1475 72.7456C36.9759 73.1598 36.7244 73.5363 36.4073 73.8533C36.0902 74.1704 35.7138 74.4219 35.2995 74.5935C34.8852 74.7652 34.4412 74.8535 33.9928 74.8535C33.0872 74.8535 32.2186 74.4937 31.5783 73.8533C30.9379 73.213 30.5781 72.3444 30.5781 71.4388C30.5781 70.5332 30.9379 69.6647 31.5783 69.0243C32.2186 68.3839 33.0872 68.0242 33.9928 68.0242C34.8984 68.0242 35.7669 68.3839 36.4073 69.0243C37.0477 69.6647 37.4074 70.5332 37.4074 71.4388ZM34.0923 73.7635C34.6747 73.7401 35.2234 73.4727 35.6177 73.0202C36.012 72.5677 36.2197 71.9672 36.1949 71.3506C36.1826 71.0454 36.1137 70.7454 35.992 70.4678C35.8703 70.1901 35.6983 69.9404 35.4857 69.7327C35.2731 69.525 35.0241 69.3635 34.753 69.2574C34.4819 69.1513 34.1939 69.1026 33.9055 69.1142C33.3231 69.1376 32.7744 69.4049 32.3801 69.8574C31.9858 70.3099 31.7782 70.9105 31.8029 71.527C31.8152 71.8323 31.8841 72.1323 32.0058 72.4099C32.1275 72.6875 32.2995 72.9373 32.5121 73.1449C32.7247 73.3526 32.9737 73.5141 33.2448 73.6202C33.5159 73.7264 33.8039 73.775 34.0923 73.7635Z" fill="#017CBA"/>
<path d="M48.258 69.6791L46.2349 74.5436C46.1838 74.6682 46.0908 74.7306 45.956 74.7306H45.1805C45.1557 74.7308 45.1313 74.7247 45.1095 74.7129C45.0878 74.7012 45.0693 74.6841 45.0558 74.6634C45.0424 74.6426 45.0344 74.6187 45.0326 74.5941C45.0308 74.5694 45.0353 74.5446 45.0456 74.5221L47.6878 68.4438C47.7456 68.3105 47.841 68.1969 47.9625 68.1171C48.0839 68.0374 48.2261 67.9949 48.3714 67.9949C48.5167 67.9949 48.6588 68.0374 48.7803 68.1171C48.9017 68.1969 48.9972 68.3105 49.0549 68.4438L51.6879 74.5221C51.7492 74.6611 51.7033 74.7306 51.55 74.7306H50.753C50.6243 74.7306 50.5344 74.6713 50.4833 74.5528L48.4511 69.6791C48.4433 69.6599 48.4299 69.6434 48.4127 69.6319C48.3955 69.6203 48.3752 69.6141 48.3545 69.6141C48.3338 69.6141 48.3135 69.6203 48.2963 69.6319C48.2791 69.6434 48.2658 69.6599 48.258 69.6791Z" fill="#017CBA"/>
<path d="M67.1643 68.1555L68.2494 68.1126C68.2708 68.1119 68.292 68.117 68.3106 68.1275C68.3293 68.138 68.3447 68.1535 68.3552 68.1722C68.3656 68.1909 68.3707 68.2121 68.3699 68.2335C68.3691 68.2549 68.3624 68.2756 68.3505 68.2935L65.88 72.0514C65.8677 72.0706 65.8613 72.093 65.8616 72.1158V74.6139C65.8616 74.6448 65.8493 74.6745 65.8275 74.6963C65.8056 74.7182 65.776 74.7304 65.7451 74.7304H64.8286C64.7977 74.7304 64.7681 74.7182 64.7462 74.6963C64.7244 74.6745 64.7121 74.6448 64.7121 74.6139V72.1894C64.7124 72.1666 64.706 72.1442 64.6937 72.125L62.1925 68.3211C62.181 68.3037 62.1743 68.2835 62.1732 68.2626C62.1722 68.2417 62.1767 68.221 62.1865 68.2025C62.1962 68.184 62.2107 68.1685 62.2285 68.1575C62.2462 68.1465 62.2666 68.1406 62.2875 68.1402H63.4094C63.4291 68.1404 63.4484 68.1455 63.4655 68.1552C63.4827 68.1648 63.4971 68.1786 63.5075 68.1954L65.1688 70.8928C65.1789 70.9101 65.1933 70.9245 65.2106 70.9346C65.2279 70.9447 65.2476 70.9501 65.2676 70.9504C65.2876 70.9507 65.3074 70.9459 65.325 70.9363C65.3426 70.9268 65.3574 70.9128 65.3681 70.8958L67.0693 68.2107C67.0793 68.1944 67.0933 68.1808 67.1099 68.1712C67.1264 68.1616 67.1451 68.1562 67.1643 68.1555Z" fill="#017CBA"/>
<path d="M89.9997 71.4388C89.9997 71.8872 89.9114 72.3313 89.7398 72.7456C89.5682 73.1598 89.3167 73.5363 88.9996 73.8533C88.6825 74.1704 88.3061 74.4219 87.8918 74.5935C87.4775 74.7652 87.0335 74.8535 86.5851 74.8535C85.6794 74.8535 84.8109 74.4937 84.1705 73.8533C83.5302 73.213 83.1704 72.3444 83.1704 71.4388C83.1704 70.5332 83.5302 69.6647 84.1705 69.0243C84.8109 68.3839 85.6794 68.0242 86.5851 68.0242C87.0335 68.0242 87.4775 68.1125 87.8918 68.2841C88.3061 68.4557 88.6825 68.7072 88.9996 69.0243C89.3167 69.3414 89.5682 69.7178 89.7398 70.1321C89.9114 70.5464 89.9997 70.9904 89.9997 71.4388ZM86.6694 73.7578C86.9583 73.7477 87.2422 73.6775 87.5049 73.5512C87.7677 73.4248 88.0042 73.2449 88.2009 73.0216C88.3976 72.7982 88.5506 72.5359 88.6513 72.2496C88.752 71.9633 88.7983 71.6586 88.7876 71.3528C88.766 70.7354 88.5136 70.1513 88.0859 69.7291C87.6582 69.3069 87.0902 69.0811 86.5068 69.1015C86.218 69.1116 85.9341 69.1818 85.6713 69.3081C85.4085 69.4344 85.1721 69.6144 84.9754 69.8377C84.7787 70.061 84.6256 70.3233 84.525 70.6096C84.4243 70.896 84.378 71.2007 84.3886 71.5064C84.4102 72.1239 84.6626 72.708 85.0903 73.1302C85.5181 73.5524 86.0861 73.7781 86.6694 73.7578Z" fill="#017CBA"/>
<path d="M21.7589 72.4164L23.3161 74.5437C23.3293 74.5611 23.3374 74.5819 23.3394 74.6037C23.3413 74.6255 23.3371 74.6474 23.3272 74.667C23.3173 74.6865 23.3021 74.7028 23.2833 74.7141C23.2645 74.7253 23.2429 74.7311 23.221 74.7307H22.2555C22.1063 74.7307 21.9898 74.6693 21.9061 74.5467L20.5666 72.5911C20.495 72.4849 20.3949 72.4317 20.2662 72.4317H19.2301C19.1034 72.4317 19.0401 72.4961 19.0401 72.6248V74.5774C19.0401 74.6796 18.989 74.7307 18.8868 74.7307H18.0439C17.9417 74.7307 17.8906 74.6796 17.8906 74.5774V68.2968C17.8906 68.1966 17.9407 68.1455 18.0408 68.1435C19.9014 68.119 23.3161 67.5642 23.1659 70.4393C23.1199 71.3191 22.6417 71.8923 21.8356 72.1681C21.8117 72.176 21.7902 72.1895 21.7726 72.2075C21.7551 72.2254 21.7421 72.2474 21.7346 72.2716C21.7271 72.2958 21.7254 72.3215 21.7297 72.3467C21.7339 72.3718 21.7439 72.3957 21.7589 72.4164ZM19.0217 69.2868L19.0156 71.3221C19.0156 71.3342 19.0179 71.3462 19.0226 71.3573C19.0272 71.3685 19.034 71.3786 19.0425 71.3872C19.051 71.3957 19.0612 71.4025 19.0723 71.4071C19.0835 71.4117 19.0954 71.4141 19.1075 71.4141L20.7474 71.4202C21.086 71.4213 21.411 71.3115 21.6512 71.1149C21.8914 70.9184 22.0272 70.6512 22.0287 70.3719V70.2616C22.0294 70.1229 21.997 69.9855 21.9333 69.8571C21.8696 69.7287 21.7758 69.6119 21.6574 69.5134C21.539 69.4149 21.3982 69.3366 21.2431 69.283C21.088 69.2294 20.9216 69.2015 20.7535 69.201L19.1136 69.1949C19.1016 69.1949 19.0896 69.1972 19.0785 69.2019C19.0673 69.2065 19.0572 69.2133 19.0486 69.2218C19.0401 69.2303 19.0333 69.2405 19.0287 69.2516C19.0241 69.2628 19.0217 69.2748 19.0217 69.2868Z" fill="#017CBA"/>
<path d="M25.9153 71.2914L28.8242 68.171C28.8328 68.1617 28.8432 68.1541 28.8548 68.1489C28.8664 68.1436 28.8789 68.1407 28.8916 68.1404H30.0963C30.1151 68.1403 30.1336 68.1458 30.1493 68.1562C30.165 68.1667 30.1773 68.1815 30.1845 68.199C30.1917 68.2164 30.1936 68.2356 30.1899 68.2541C30.1862 68.2726 30.1771 68.2895 30.1637 68.3028L27.5981 70.896C27.5823 70.912 27.5727 70.9332 27.571 70.9556C27.5693 70.9781 27.5757 71.0004 27.5889 71.0186L30.2863 74.5773C30.2971 74.5913 30.3038 74.608 30.3057 74.6255C30.3076 74.6431 30.3045 74.6608 30.2969 74.6767C30.2892 74.6926 30.2773 74.7061 30.2625 74.7156C30.2476 74.7251 30.2304 74.7303 30.2127 74.7306H29.0265C29.0117 74.7308 28.9971 74.7276 28.9838 74.7213C28.9705 74.7149 28.9589 74.7055 28.9499 74.6938L26.8441 71.8677C26.836 71.857 26.8259 71.8481 26.8142 71.8417C26.8025 71.8352 26.7896 71.8312 26.7763 71.8301C26.763 71.8289 26.7496 71.8306 26.737 71.8349C26.7243 71.8393 26.7128 71.8463 26.7031 71.8554L25.7682 72.7903C25.7584 72.7993 25.7507 72.8102 25.7454 72.8223C25.7401 72.8345 25.7374 72.8476 25.7375 72.8608L25.8019 74.6325C25.8023 74.6452 25.8001 74.6579 25.7955 74.6698C25.791 74.6817 25.784 74.6925 25.7752 74.7017C25.7663 74.7108 25.7557 74.7181 25.7439 74.7231C25.7322 74.7281 25.7196 74.7306 25.7069 74.7306H24.7291C24.7039 74.7306 24.6797 74.7206 24.6619 74.7028C24.644 74.6849 24.634 74.6608 24.634 74.6356V68.2354C24.634 68.2102 24.644 68.186 24.6619 68.1682C24.6797 68.1504 24.7039 68.1404 24.7291 68.1404H25.7038C25.7165 68.1404 25.7291 68.1429 25.7409 68.1479C25.7526 68.1529 25.7632 68.1601 25.7721 68.1693C25.781 68.1784 25.7879 68.1893 25.7925 68.2012C25.7971 68.213 25.7992 68.2257 25.7988 68.2385L25.7498 71.224C25.749 71.2435 25.7542 71.2628 25.7648 71.2792C25.7754 71.2957 25.7908 71.3084 25.8089 71.3158C25.827 71.3232 25.8469 71.3248 25.8659 71.3204C25.885 71.3161 25.9022 71.3059 25.9153 71.2914Z" fill="#017CBA"/>
<path d="M41.2568 72.4319H40.1901C40.0369 72.4319 39.9603 72.5086 39.9603 72.6618V74.5377C39.9603 74.6665 39.8959 74.7308 39.7671 74.7308H38.9671C38.867 74.7308 38.8159 74.6808 38.8139 74.5806L38.7188 68.3644C38.718 68.3366 38.7228 68.309 38.7328 68.283C38.7429 68.257 38.758 68.2333 38.7774 68.213C38.7967 68.1928 38.8199 68.1766 38.8456 68.1652C38.8714 68.1538 38.8991 68.1476 38.9273 68.1468C39.6609 68.1284 40.6387 68.1365 41.8607 68.1713C44.368 68.2418 45.0608 71.2702 42.7465 72.1806C42.6321 72.2255 42.6106 72.2971 42.6822 72.3951L44.2086 74.5285C44.3047 74.6634 44.2699 74.7308 44.1044 74.7308H43.1113C43.063 74.7309 43.0155 74.7192 42.9728 74.6968C42.9301 74.6743 42.8934 74.6419 42.8661 74.6021L41.453 72.5361C41.406 72.4667 41.3406 72.4319 41.2568 72.4319ZM39.9357 69.3023L39.9664 71.356C39.9668 71.3669 39.9693 71.3776 39.9738 71.3875C39.9784 71.3974 39.9848 71.4063 39.9928 71.4137C40.0007 71.4211 40.0101 71.4268 40.0203 71.4306C40.0305 71.4344 40.0413 71.4361 40.0522 71.4357L41.6706 71.4112C42.0161 71.4055 42.3454 71.2882 42.5863 71.0853C42.8271 70.8824 42.9598 70.6104 42.955 70.3292V70.2311C42.9526 70.0918 42.9166 69.9544 42.849 69.8268C42.7813 69.6991 42.6833 69.5838 42.5606 69.4873C42.438 69.3908 42.293 69.315 42.1339 69.2644C41.9749 69.2137 41.805 69.1891 41.6339 69.192L40.0154 69.2165C40.0046 69.2169 39.9939 69.2194 39.984 69.224C39.9741 69.2285 39.9652 69.2349 39.9578 69.2429C39.9504 69.2509 39.9446 69.2602 39.9408 69.2704C39.9371 69.2806 39.9353 69.2915 39.9357 69.3023Z" fill="#017CBA"/>
<path d="M56.8189 72.1374V74.5651C56.8189 74.609 56.8015 74.6511 56.7704 74.6821C56.7394 74.7132 56.6973 74.7306 56.6534 74.7306H55.835C55.7911 74.7306 55.749 74.7132 55.7179 74.6821C55.6869 74.6511 55.6694 74.609 55.6694 74.5651V68.3059C55.6694 68.262 55.6869 68.2199 55.7179 68.1889C55.749 68.1578 55.7911 68.1404 55.835 68.1404H56.6534C56.6973 68.1404 56.7394 68.1578 56.7704 68.1889C56.8015 68.2199 56.8189 68.262 56.8189 68.3059V70.7336C56.8189 70.7775 56.8363 70.8196 56.8674 70.8506C56.8984 70.8816 56.9405 70.8991 56.9844 70.8991H59.8105C59.8325 70.8991 59.8543 70.8947 59.8746 70.8862C59.8949 70.8777 59.9133 70.8652 59.9287 70.8495C59.9441 70.8338 59.9562 70.8152 59.9644 70.7948C59.9725 70.7743 59.9765 70.7525 59.9761 70.7305L59.927 68.309C59.9266 68.287 59.9306 68.2651 59.9387 68.2447C59.9469 68.2242 59.959 68.2056 59.9744 68.1899C59.9898 68.1742 60.0082 68.1618 60.0285 68.1533C60.0488 68.1448 60.0705 68.1404 60.0925 68.1404H60.9447C60.9886 68.1404 61.0307 68.1578 61.0617 68.1889C61.0928 68.2199 61.1102 68.262 61.1102 68.3059V74.5651C61.1102 74.609 61.0928 74.6511 61.0617 74.6821C61.0307 74.7132 60.9886 74.7306 60.9447 74.7306H60.0956C60.0736 74.7306 60.0518 74.7262 60.0315 74.7177C60.0113 74.7092 59.9929 74.6967 59.9775 74.681C59.9621 74.6653 59.9499 74.6467 59.9418 74.6263C59.9337 74.6059 59.9297 74.584 59.9301 74.562L59.973 72.1405C59.9734 72.1185 59.9694 72.0966 59.9613 72.0762C59.9532 72.0558 59.941 72.0372 59.9256 72.0215C59.9102 72.0058 59.8918 71.9933 59.8715 71.9848C59.8513 71.9763 59.8295 71.9719 59.8075 71.9719H56.9844C56.9405 71.9719 56.8984 71.9893 56.8674 72.0204C56.8363 72.0514 56.8189 72.0935 56.8189 72.1374Z" fill="#017CBA"/>
<path d="M69.4571 68.2263C69.4571 68.2002 69.4674 68.1753 69.4858 68.1569C69.5042 68.1385 69.5292 68.1282 69.5552 68.1282L71.9154 68.1343C72.8291 68.136 73.7047 68.4831 74.3497 69.0994C74.9947 69.7156 75.3561 70.5504 75.3546 71.4202V71.4754C75.3538 71.9061 75.2639 72.3325 75.09 72.7301C74.9162 73.1277 74.6617 73.4889 74.3412 73.7929C74.0207 74.0968 73.6404 74.3377 73.2221 74.5018C72.8038 74.6659 72.3556 74.7499 71.9031 74.749L69.5429 74.7429C69.5169 74.7429 69.4919 74.7326 69.4736 74.7142C69.4552 74.6958 69.4448 74.6708 69.4448 74.6448L69.4571 68.2263ZM70.579 69.2868L70.6341 73.6149C70.6341 73.6369 70.6428 73.6579 70.6584 73.6734C70.6739 73.689 70.6949 73.6977 70.7169 73.6977L71.8878 73.6823C72.4933 73.6748 73.0711 73.4349 73.4942 73.0153C73.9173 72.5957 74.1509 72.0307 74.1438 71.4447V71.3712C74.1403 71.0809 74.0778 70.7941 73.9597 70.5273C73.8417 70.2605 73.6704 70.0188 73.4558 69.8162C73.2412 69.6135 72.9874 69.4538 72.7089 69.3461C72.4303 69.2385 72.1326 69.185 71.8326 69.1887L70.6617 69.2041C70.6508 69.2041 70.6401 69.2062 70.63 69.2104C70.62 69.2145 70.6109 69.2206 70.6032 69.2283C70.5955 69.236 70.5894 69.2451 70.5853 69.2552C70.5811 69.2652 70.579 69.276 70.579 69.2868Z" fill="#017CBA"/>
<path d="M79.1215 72.4319H78.0855C77.9567 72.4319 77.8924 72.4952 77.8924 72.6219V74.5775C77.8924 74.6797 77.8413 74.7308 77.7391 74.7308H76.8962C76.794 74.7308 76.7429 74.6797 76.7429 74.5775V68.3643C76.7429 68.3055 76.7661 68.249 76.8074 68.2072C76.8487 68.1653 76.9048 68.1414 76.9636 68.1405C77.5807 68.1344 78.5013 68.1416 79.7254 68.162C82.2726 68.2019 82.9929 71.0648 80.7062 72.2081C80.5939 72.2633 80.5744 72.3409 80.648 72.441L82.1684 74.5438C82.1816 74.5612 82.1897 74.582 82.1917 74.6038C82.1936 74.6256 82.1894 74.6476 82.1795 74.6671C82.1696 74.6866 82.1543 74.7029 82.1356 74.7142C82.1168 74.7255 82.0952 74.7312 82.0733 74.7308H81.0434C80.9954 74.7309 80.9481 74.7192 80.9058 74.6967C80.8636 74.6742 80.8276 74.6417 80.8013 74.602L79.4219 72.5912C79.3484 72.485 79.2482 72.4319 79.1215 72.4319ZM77.8801 69.3513L77.8862 71.2763C77.8862 71.3145 77.9014 71.3511 77.9284 71.3781C77.9555 71.4052 77.9921 71.4203 78.0303 71.4203L79.6089 71.4142C79.7766 71.4137 79.9425 71.3858 80.0973 71.3322C80.252 71.2786 80.3924 71.2003 80.5106 71.1018C80.6288 71.0033 80.7223 70.8865 80.7858 70.7581C80.8494 70.6297 80.8817 70.4923 80.881 70.3536V70.2494C80.8795 69.9701 80.744 69.7029 80.5044 69.5064C80.2648 69.3099 79.9405 69.2001 79.6028 69.2011L78.0242 69.2072C77.986 69.2072 77.9493 69.2224 77.9223 69.2494C77.8953 69.2765 77.8801 69.3131 77.8801 69.3513Z" fill="#017CBA"/>
<defs>
<linearGradient id="paint0_linear_29_2300" x1="32.8704" y1="24.8275" x2="54.527" y2="62.3377" gradientUnits="userSpaceOnUse">
<stop offset="0.252237" stop-color="#1580BF"/>
<stop offset="1" stop-color="#1580BF" stop-opacity="0"/>
</linearGradient>
<linearGradient id="paint1_linear_29_2300" x1="81.6342" y1="43.3411" x2="69.1688" y2="60.9375" gradientUnits="userSpaceOnUse">
<stop offset="0.0671093" stop-color="#096195"/>
<stop offset="0.897798" stop-color="#1580BF"/>
</linearGradient>
<linearGradient id="paint2_linear_29_2300" x1="67.2825" y1="62.1065" x2="45.626" y2="24.5962" gradientUnits="userSpaceOnUse">
<stop stop-color="#146AA5"/>
<stop offset="0.817226" stop-color="#1580BF"/>
</linearGradient>
</defs>
</svg>
