<svg width="100" height="100" viewBox="0 0 100 100" fill="none" xmlns="http://www.w3.org/2000/svg">
<rect width="100" height="100" fill="white"/>
<path d="M34.5798 64.52L52.8598 64.44C53.3064 64.44 53.5298 64.6633 53.5298 65.11L53.4998 68.58C53.4998 68.7444 53.4344 68.9021 53.3182 69.0184C53.2019 69.1347 53.0442 69.2 52.8798 69.2H30.0098C29.5098 69.2 29.2598 68.95 29.2598 68.45V29.94C29.2598 29.7135 29.3121 29.49 29.4127 29.2871C29.5133 29.0841 29.6595 28.9071 29.8398 28.77L49.5198 14.16C49.8064 13.9467 50.0964 13.9467 50.3898 14.16L75.3798 32.6C75.8064 32.92 75.7564 33.1 75.2298 33.14C72.1798 33.39 69.6098 33.73 66.9298 31.83C61.4098 27.8967 55.9131 23.94 50.4398 19.96C50.1464 19.7467 49.8531 19.7467 49.5598 19.96L34.3898 31.24C34.2716 31.3306 34.1758 31.4471 34.1099 31.5807C34.044 31.7142 34.0098 31.8611 34.0098 32.01V63.95C34.0098 64.1012 34.0698 64.2462 34.1767 64.3531C34.2836 64.4599 34.4286 64.52 34.5798 64.52Z" fill="#01A5D6"/>
<path d="M25.88 72.9299L56.89 73.0599C56.9881 73.0599 57.0822 73.021 57.1516 72.9516C57.221 72.8822 57.26 72.7881 57.26 72.6899V54.0699C57.26 53.9718 57.299 53.8777 57.3684 53.8083C57.4378 53.7389 57.5319 53.6999 57.63 53.6999H61.64C61.7381 53.6999 61.8322 53.7389 61.9016 53.8083C61.971 53.8777 62.01 53.9718 62.01 54.0699V77.1499C62.01 77.2481 61.971 77.3422 61.9016 77.4116C61.8322 77.481 61.7381 77.5199 61.64 77.5199L21.37 77.7699C21.2719 77.7699 21.1778 77.731 21.1084 77.6616C21.039 77.5922 21 77.4981 21 77.3999L21.02 37.0599C21.02 36.9618 21.059 36.8677 21.1284 36.7983C21.1978 36.7289 21.2919 36.6899 21.39 36.6899L25.14 36.7199C25.2381 36.7199 25.3322 36.7589 25.4016 36.8283C25.471 36.8977 25.51 36.9918 25.51 37.0899V72.5599C25.51 72.6581 25.549 72.7522 25.6184 72.8216C25.6878 72.891 25.7819 72.9299 25.88 72.9299Z" fill="#FDB900"/>
<path d="M74.1798 41.4497H42.8798C42.7816 41.4497 42.6875 41.4887 42.6181 41.5581C42.5487 41.6274 42.5098 41.7216 42.5098 41.8197V60.3297C42.5098 60.4278 42.4708 60.5219 42.4014 60.5913C42.332 60.6607 42.2379 60.6997 42.1398 60.6997H38.3798C38.2816 60.6997 38.1875 60.6607 38.1181 60.5913C38.0487 60.5219 38.0098 60.4278 38.0098 60.3297V37.0497C38.0098 36.9516 38.0487 36.8574 38.1181 36.7881C38.1875 36.7187 38.2816 36.6797 38.3798 36.6797L78.6398 36.7397C78.7379 36.7397 78.832 36.7787 78.9014 36.8481C78.9708 36.9174 79.0098 37.0116 79.0098 37.1097V77.1997C79.0098 77.2491 78.9999 77.2981 78.9807 77.3436C78.9615 77.3892 78.9333 77.4304 78.8979 77.4649C78.8625 77.4994 78.8205 77.5265 78.7744 77.5444C78.7284 77.5624 78.6792 77.571 78.6298 77.5697L74.7298 77.4897C74.6334 77.4871 74.5418 77.4469 74.4746 77.3778C74.4073 77.3087 74.3697 77.2161 74.3698 77.1197L74.5498 41.8197C74.5498 41.7216 74.5108 41.6274 74.4414 41.5581C74.372 41.4887 74.2779 41.4497 74.1798 41.4497Z" fill="#FA345D"/>
<path d="M66.01 80.9402V50.2202C66.01 50.0823 65.9552 49.95 65.8577 49.8525C65.7602 49.755 65.6279 49.7002 65.49 49.7002L46.78 49.8102C46.6421 49.8102 46.5098 49.7554 46.4123 49.6579C46.3148 49.5604 46.26 49.4281 46.26 49.2902V45.7202C46.26 45.5823 46.3148 45.45 46.4123 45.3525C46.5098 45.255 46.6421 45.2002 46.78 45.2002H69.98C70.1179 45.2002 70.2502 45.255 70.3477 45.3525C70.4452 45.45 70.5 45.5823 70.5 45.7202L70.52 85.6202C70.52 85.6885 70.5066 85.7561 70.4804 85.8192C70.4543 85.8823 70.416 85.9396 70.3677 85.9879C70.3194 86.0362 70.2621 86.0745 70.199 86.1006C70.1359 86.1267 70.0683 86.1402 70 86.1402L29.77 85.9302C29.7017 85.9302 29.6341 85.9167 29.571 85.8906C29.5079 85.8645 29.4506 85.8262 29.4023 85.7779C29.354 85.7296 29.3157 85.6723 29.2896 85.6092C29.2635 85.5461 29.25 85.4785 29.25 85.4102L29.28 81.9602C29.28 81.8223 29.3348 81.69 29.4323 81.5925C29.5298 81.495 29.6621 81.4402 29.8 81.4402L65.49 81.4602C65.6279 81.4602 65.7602 81.4054 65.8577 81.3079C65.9552 81.2104 66.01 81.0781 66.01 80.9402Z" fill="#8FB801"/>
</svg>
