<svg width="100" height="100" viewBox="0 0 100 100" fill="none" xmlns="http://www.w3.org/2000/svg">
<g clip-path="url(#clip0_29_2302)">
<rect width="100" height="100" fill="white"/>
<g clip-path="url(#clip1_29_2302)">
<path d="M0 0H100V100H0V0Z" fill="#E3222B"/>
<path d="M65.0533 40.5718L60.135 43.0584" stroke="#E2C9C4" stroke-width="0.333333"/>
<path d="M60.1348 43.0581C56.2548 45.0403 52.7681 47.5231 49.6748 50.5064C47.3998 52.6998 45.3481 55.4014 44.7498 58.6231C44.1465 61.8714 46.0281 64.3281 49.4481 63.9798C56.3315 63.2781 59.6898 55.3964 60.5315 49.5648" stroke="#F18F93" stroke-width="0.333333"/>
<path d="M60.5315 49.5649L65.9098 49.5966" stroke="#F0E3E1" stroke-width="0.333333"/>
<path d="M60.6932 46.1064C60.7509 47.2964 60.697 48.4492 60.5315 49.5648" stroke="#E27375" stroke-width="0.333333"/>
<path d="M66.0317 46.0884L60.6934 46.1067" stroke="#D3ADA5" stroke-width="0.333333"/>
<path d="M60.6933 46.1064C60.6422 45.0876 60.4561 44.0714 60.135 43.0581" stroke="#D45858" stroke-width="0.333333"/>
<path d="M65.0532 40.5715L60.1349 43.0582C56.2549 45.0404 52.7682 47.5232 49.6749 50.5065C47.3999 52.6999 45.3482 55.4015 44.7499 58.6232C44.1466 61.8715 46.0282 64.3282 49.4482 63.9799C56.3316 63.2782 59.6899 55.3965 60.5316 49.5649L65.9099 49.5965C64.9132 58.4232 59.0266 68.9699 48.9932 69.6149C43.0099 69.9982 38.9099 65.5732 39.3366 59.6599C40.0699 49.5032 49.6499 42.1149 58.2149 38.4232C58.2594 38.4043 58.2627 38.3788 58.2249 38.3465C55.3432 35.9432 52.4016 35.6482 48.7666 36.2932C33.8982 38.9315 24.3732 56.2049 21.6049 69.5349C21.5916 69.5949 21.5544 69.6249 21.4932 69.6249H16.1249C16.1172 69.625 16.1095 69.6234 16.1025 69.6202C16.0955 69.617 16.0893 69.6123 16.0843 69.6064C16.0794 69.6005 16.0758 69.5935 16.0739 69.5861C16.072 69.5786 16.0717 69.5708 16.0732 69.5632C17.8521 60.491 21.5077 52.2749 27.0399 44.9149C32.7749 37.2849 41.2432 30.7832 51.1666 30.3832C55.9716 30.1899 60.2166 31.9782 63.3899 35.6282C63.4277 35.6715 63.4732 35.6821 63.5266 35.6599C70.0583 32.9632 76.8449 31.1115 83.8183 30.3699C83.8838 30.3621 83.9166 30.3915 83.9166 30.4582V35.8749C83.9167 35.9032 83.9063 35.9306 83.8872 35.9518C83.8681 35.973 83.8418 35.9866 83.8132 35.9899C77.3355 36.6621 71.0821 38.1893 65.0532 40.5715Z" fill="white"/>
<path d="M65.0533 40.5718C65.6578 42.314 65.9839 44.1529 66.0317 46.0884L60.6933 46.1068C60.6422 45.0879 60.4561 44.0718 60.135 43.0584L65.0533 40.5718Z" fill="#C49288"/>
<path d="M60.1348 43.0581C60.4559 44.0714 60.642 45.0876 60.6931 46.1064C60.7509 47.2964 60.697 48.4492 60.5315 49.5648C59.6898 55.3964 56.3315 63.2781 49.4481 63.9798C46.0281 64.3281 44.1465 61.8714 44.7498 58.6231C45.3481 55.4014 47.3998 52.6998 49.6748 50.5064C52.7681 47.5231 56.2548 45.0403 60.1348 43.0581Z" fill="#E3222B"/>
<path d="M66.0315 46.0884C66.0815 47.215 66.0409 48.3845 65.9098 49.5967L60.5315 49.565C60.697 48.4495 60.7509 47.2967 60.6932 46.1067L66.0315 46.0884Z" fill="#E1C7C2"/>
</g>
</g>
<defs>
<clipPath id="clip0_29_2302">
<rect width="100" height="100" fill="white"/>
</clipPath>
<clipPath id="clip1_29_2302">
<rect width="100" height="100" fill="white"/>
</clipPath>
</defs>
</svg>
