<svg width="100" height="100" viewBox="0 0 100 100" fill="none" xmlns="http://www.w3.org/2000/svg">
<rect width="100" height="100" fill="white"/>
<path d="M40.8197 48.1267L30.3707 81.0411C30.3188 81.2085 30.2232 81.3591 30.0938 81.4774C29.9644 81.5957 29.8058 81.6774 29.6344 81.714C29.4629 81.7507 29.2848 81.741 29.1183 81.686C28.9519 81.631 28.8031 81.5326 28.6873 81.401L21.7096 73.4481C21.387 73.0826 21.1641 72.6405 21.0624 72.1645C20.9607 71.6886 20.9837 71.1949 21.1291 70.7314L32.4489 34.903C32.5805 34.485 32.8669 34.276 33.308 34.276H43.9544C44.442 34.276 44.8135 34.485 45.0689 34.903L55.1928 51.2034C55.229 51.2622 55.2814 51.3094 55.3437 51.3393C55.4059 51.3692 55.4755 51.3806 55.5441 51.372C55.6127 51.3634 55.6773 51.3353 55.7303 51.291C55.7833 51.2467 55.8224 51.1881 55.843 51.1221L64.2951 25.3712C64.4112 25.0151 64.6434 24.7597 64.9917 24.6049L77.5305 19.0902C77.7207 19.0055 77.9319 18.9797 78.137 19.016C78.342 19.0522 78.5316 19.1489 78.6813 19.2936C78.831 19.4384 78.9341 19.6245 78.9773 19.8282C79.0205 20.0319 79.0018 20.2439 78.9236 20.4369C73.4437 34.2219 68.7843 48.2815 64.9453 62.616C64.8483 62.9785 64.6353 63.299 64.3394 63.5278C64.0435 63.7565 63.681 63.8809 63.3082 63.8815H52.0233C51.8712 63.881 51.7217 63.8412 51.5895 63.766C51.4573 63.6907 51.3467 63.5825 51.2687 63.4519L42.1316 47.9758C42.0614 47.8543 41.9572 47.756 41.8319 47.693C41.7066 47.6299 41.5655 47.6049 41.4261 47.6209C41.2868 47.637 41.1551 47.6934 41.0473 47.7833C40.9396 47.8731 40.8605 47.9925 40.8197 48.1267Z" fill="black"/>
</svg>
