<svg width="100" height="100" viewBox="0 0 100 100" fill="none" xmlns="http://www.w3.org/2000/svg">
<rect width="100" height="100" fill="white"/>
<path d="M61.1205 19.9647C61.1607 19.9954 61.1932 20.0347 61.2156 20.0798C61.238 20.1249 61.2496 20.1744 61.2496 20.2245V63.1898C61.2496 63.2275 61.2353 63.2585 61.2066 63.2828L53.3248 69.9333C53.1911 70.0464 53.1243 70.0157 53.1243 69.8412V14.1101C53.1241 14.0896 53.1298 14.0695 53.1406 14.0521C53.1513 14.0346 53.1668 14.0206 53.1852 14.0114C53.2036 14.0023 53.2242 13.9985 53.2447 14.0005C53.2651 14.0025 53.2846 14.0101 53.301 14.0226L61.1205 19.9647Z" fill="#2B3990"/>
<path d="M30.1652 27.4515C30.1571 27.4474 30.1506 27.4407 30.1468 27.4326C30.143 27.4245 30.1421 27.4154 30.1442 27.4068C30.1503 27.3837 30.1677 27.3634 30.1964 27.3457C37.0842 23.1825 43.9696 19.0151 50.8526 14.8433C50.9747 14.7692 51.0888 14.7078 51.195 14.6592C51.208 14.6532 51.2223 14.6506 51.2366 14.6516C51.2509 14.6526 51.2647 14.6571 51.2768 14.6649C51.2888 14.6726 51.2987 14.6832 51.3056 14.6958C51.3124 14.7083 51.3159 14.7224 51.3158 14.7367V24.0319C51.3158 24.0586 51.3045 24.0787 51.282 24.0921L38.8289 31.625C38.7977 31.6437 38.7625 31.6544 38.7263 31.656C38.6901 31.6576 38.6543 31.6501 38.622 31.6342L30.1652 27.4515Z" fill="#2B3990"/>
<path d="M62.949 21.3668L70.9764 27.4667C70.9838 27.4723 70.9899 27.4796 70.994 27.488C70.9981 27.4964 71.0002 27.5056 71.0002 27.515V54.9949C71.0003 55.0037 70.9985 55.0125 70.9948 55.0205C70.9912 55.0285 70.9858 55.0357 70.9791 55.0414L62.9499 61.815C62.9411 61.8225 62.9304 61.8273 62.9189 61.8289C62.9075 61.8306 62.8958 61.8288 62.8853 61.8241C62.8748 61.8193 62.8659 61.8116 62.8597 61.8019C62.8534 61.7922 62.8501 61.7809 62.8501 61.7694L62.8519 21.4142C62.852 21.403 62.8552 21.3921 62.8612 21.3826C62.8672 21.3732 62.8757 21.3656 62.8857 21.3606C62.8958 21.3557 62.9071 21.3537 62.9182 21.3548C62.9294 21.3559 62.94 21.36 62.949 21.3668Z" fill="#2B3990"/>
<path d="M40.2006 32.4179C40.1982 32.4165 40.1961 32.4145 40.1946 32.4121C40.1932 32.4097 40.1924 32.407 40.1924 32.4043C40.1924 32.3897 40.1924 32.3751 40.1924 32.3605C40.1918 32.3374 40.2016 32.3198 40.2217 32.3076L51.1092 25.7173C51.1299 25.7049 51.1535 25.6981 51.1776 25.6978C51.2017 25.6974 51.2255 25.7034 51.2465 25.7152C51.2676 25.7269 51.2851 25.7441 51.2973 25.7648C51.3095 25.7855 51.316 25.8091 51.3161 25.8331V37.7794C51.316 37.7933 51.3124 37.807 51.3055 37.8191C51.2987 37.8312 51.2888 37.8414 51.2769 37.8487C51.265 37.856 51.2514 37.8601 51.2375 37.8608C51.2235 37.8614 51.2096 37.8585 51.1971 37.8523L40.2006 32.4179Z" fill="#2B3990"/>
<path d="M51.3161 39.4915V48.3883C51.316 48.4005 51.3127 48.4124 51.3067 48.423C51.3007 48.4336 51.292 48.4426 51.2816 48.4489C51.2712 48.4553 51.2593 48.4589 51.2471 48.4595C51.2348 48.4601 51.2227 48.4575 51.2117 48.4521L29.0403 37.484C29.0282 37.4781 29.018 37.4688 29.0108 37.4574C29.0037 37.446 29 37.4328 29 37.4193V28.5161C29.0001 28.5039 29.0034 28.492 29.0094 28.4814C29.0154 28.4708 29.024 28.4618 29.0345 28.4555C29.0449 28.4491 29.0568 28.4455 29.069 28.4449C29.0812 28.4443 29.0934 28.4469 29.1044 28.4523L51.2758 39.4268C51.2879 39.4327 51.2981 39.4419 51.3052 39.4534C51.3123 39.4648 51.3161 39.478 51.3161 39.4915Z" fill="#F15922"/>
<path d="M29 48.0499V39.1321C29.0001 39.1209 29.003 39.11 29.0085 39.1003C29.014 39.0906 29.0218 39.0825 29.0314 39.0766C29.0409 39.0708 29.0517 39.0675 29.0629 39.067C29.0741 39.0665 29.0852 39.0688 29.0952 39.0737L51.2795 50.0509C51.2905 50.0564 51.2998 50.0649 51.3063 50.0753C51.3128 50.0858 51.3162 50.0979 51.3161 50.1102V59.0298C51.316 59.0409 51.3131 59.0519 51.3076 59.0616C51.3021 59.0713 51.2942 59.0794 51.2847 59.0853C51.2752 59.0911 51.2643 59.0944 51.2532 59.0949C51.242 59.0954 51.2309 59.0931 51.2209 59.0882L29.0366 48.1091C29.0256 48.1037 29.0163 48.0952 29.0098 48.0847C29.0033 48.0742 28.9999 48.0622 29 48.0499Z" fill="#F15922"/>
<path d="M29 58.8088V49.8719C28.9999 49.8621 29.0024 49.8524 29.0071 49.8438C29.0118 49.8352 29.0187 49.8279 29.0271 49.8227C29.0354 49.8175 29.045 49.8145 29.0548 49.814C29.0647 49.8135 29.0745 49.8156 29.0833 49.82L51.284 60.8054C51.2936 60.8101 51.3017 60.8174 51.3073 60.8264C51.313 60.8354 51.316 60.8458 51.3161 60.8564V69.7924C51.3162 69.8023 51.3137 69.8119 51.309 69.8205C51.3043 69.8292 51.2974 69.8364 51.289 69.8416C51.2807 69.8468 51.2711 69.8498 51.2613 69.8503C51.2514 69.8508 51.2416 69.8488 51.2328 69.8444L29.032 58.8599C29.0225 58.8552 29.0144 58.8479 29.0088 58.8389C29.0031 58.8299 29.0001 58.8195 29 58.8088Z" fill="#F15922"/>
<path d="M19.6767 74.5257C19.676 74.5265 19.6755 74.5275 19.6753 74.5286C19.6752 74.5297 19.6753 74.5308 19.6757 74.5318C19.6761 74.5328 19.6768 74.5337 19.6777 74.5344C19.6786 74.5351 19.6797 74.5355 19.6809 74.5357C20.532 74.6515 21.2577 74.8817 21.7005 75.6106C22.2172 76.4607 22.0927 77.6543 21.2467 78.2931C20.7199 78.6912 19.8914 78.7712 19.2304 78.7736C18.4061 78.7769 16.7609 78.7771 14.2948 78.7744C14.2821 78.7744 14.276 78.7686 14.2764 78.7571L14.2794 78.6567C14.2798 78.6443 14.2868 78.6379 14.3004 78.6378C14.8557 78.6326 15.3995 78.3848 15.5191 77.8541C15.5657 77.6479 15.5892 77.3793 15.5898 77.0485C15.5922 75.6403 15.5928 74.232 15.5916 72.8236C15.5913 72.4804 15.5892 72.0224 15.4464 71.7306C15.2293 71.2875 14.8061 71.1685 14.2966 71.1343C14.2913 71.1341 14.2863 71.1319 14.2826 71.1283C14.279 71.1248 14.277 71.12 14.277 71.1151V71.0199C14.277 71.0147 14.2792 71.0096 14.2832 71.0059C14.2873 71.0022 14.2927 71.0001 14.2984 71.0001C15.8429 70.9998 17.3873 71.0002 18.9317 71.0015C19.2077 71.0017 19.4799 71.0308 19.7483 71.0888C20.7731 71.3101 21.3486 72.0799 21.2022 73.0441C21.1342 73.4926 20.8984 73.8801 20.5026 74.1537C20.2793 74.3079 19.9823 74.4213 19.7061 74.5081C19.6947 74.5117 19.6849 74.5175 19.6767 74.5257ZM16.9647 74.5593C17.5431 74.5642 18.0827 74.5653 18.6627 74.4183C19.9318 74.097 20.0387 72.4603 19.2928 71.6685C19.0281 71.3876 18.6723 71.2328 18.2252 71.204C17.7731 71.1751 17.3562 71.1671 16.9745 71.1799C16.9628 71.1803 16.957 71.1858 16.957 71.1964V74.552C16.957 74.5539 16.9578 74.5557 16.9592 74.5571C16.9606 74.5584 16.9626 74.5592 16.9647 74.5593ZM18.3396 74.7488C17.8848 74.7407 17.4293 74.7386 16.973 74.7426C16.9627 74.7426 16.9576 74.7473 16.9576 74.7567C16.9562 75.5508 16.9563 76.3449 16.9579 77.1388C16.9593 77.7961 17.09 78.4376 17.9348 78.5632C18.8863 78.7047 19.9594 78.4005 20.344 77.5157C20.6205 76.8788 20.5186 75.9178 20.0465 75.3703C19.6465 74.9067 18.9608 74.76 18.3396 74.7488Z" fill="#2B3990"/>
<path d="M27.721 75.6508H24.9338C24.9218 75.6508 24.9135 75.6559 24.909 75.666C24.7214 76.1072 24.5314 76.5449 24.3389 76.9794C24.206 77.2796 24.0819 77.6687 24.1601 77.9711C24.2704 78.3972 24.6722 78.6049 25.151 78.6388C25.1639 78.6397 25.1704 78.6458 25.1706 78.6572L25.1712 78.7592C25.1712 78.7706 25.1648 78.7763 25.152 78.7763H22.2987C22.2885 78.7763 22.2834 78.7718 22.2834 78.7627V78.6564C22.2834 78.6457 22.2895 78.64 22.3015 78.6393C22.6828 78.6176 22.9962 78.4788 23.2417 78.2228C23.6838 77.7615 23.9576 77.1402 24.1876 76.6155C25.0061 74.7484 25.8236 72.881 26.64 71.0133C26.6441 71.0044 26.6515 71 26.6623 71H27.0054C27.0162 71 27.0237 71.0044 27.0277 71.0133C28.2469 73.632 29.2343 75.7475 29.9901 77.3596C30.1379 77.675 30.3595 78.0991 30.6149 78.3115C30.9104 78.5572 31.2688 78.5995 31.6529 78.6418C31.6653 78.643 31.6715 78.6493 31.6715 78.6605V78.7559C31.6715 78.7695 31.6639 78.7763 31.6486 78.7763H27.4607C27.4495 78.7763 27.4438 78.7713 27.4436 78.7614L27.4427 78.6523C27.4425 78.6411 27.4487 78.6353 27.4613 78.635C27.787 78.6266 28.1705 78.5566 28.4009 78.3581C28.7544 78.0536 28.6407 77.6419 28.4675 77.2598C28.2257 76.727 27.9832 76.1945 27.74 75.6622C27.7365 75.6546 27.7302 75.6508 27.721 75.6508ZM26.2996 72.4926C26.2988 72.491 26.2976 72.4897 26.2959 72.4888C26.2943 72.4879 26.2924 72.4874 26.2905 72.4874C26.2886 72.4875 26.2867 72.488 26.2851 72.489C26.2835 72.4899 26.2823 72.4913 26.2816 72.4929L25.0258 75.4019C25.0252 75.4032 25.0251 75.4046 25.0253 75.406C25.0255 75.4074 25.026 75.4087 25.0269 75.4098C25.0278 75.411 25.029 75.4119 25.0304 75.4126C25.0318 75.4132 25.0334 75.4136 25.0349 75.4136H27.6159C27.6175 75.4135 27.6191 75.4132 27.6204 75.4125C27.6218 75.4118 27.623 75.4108 27.6239 75.4097C27.6248 75.4085 27.6253 75.4071 27.6255 75.4057C27.6256 75.4043 27.6254 75.4029 27.6248 75.4016L26.2996 72.4926Z" fill="#2B3990"/>
<path d="M39.1743 76.8649C39.1891 76.8821 39.1964 76.8799 39.1964 76.8582C39.1966 75.4115 39.1962 73.9746 39.1952 72.5474C39.1949 71.7092 38.9045 71.1671 37.8964 71.1372C37.8845 71.1369 37.8785 71.1313 37.8785 71.1207V71.0171C37.8785 71.0057 37.8848 71 37.8973 71H40.7645C40.777 71 40.7833 71.0057 40.7833 71.0171V71.1204C40.7833 71.1314 40.7773 71.1368 40.7654 71.1364C40.1565 71.1212 39.6205 71.4263 39.5193 71.9969C39.486 72.1835 39.4663 72.3614 39.466 72.5604C39.4656 74.6281 39.4655 76.6955 39.4657 78.7624C39.4657 78.7661 39.4641 78.7696 39.4612 78.7722C39.4583 78.7748 39.4544 78.7763 39.4504 78.7763H39.1866C39.176 78.7763 39.1675 78.7726 39.1611 78.7652L33.2756 72.0625C33.2743 72.0609 33.2724 72.0597 33.2703 72.0591C33.2682 72.0585 33.2659 72.0586 33.2638 72.0592C33.2617 72.0599 33.2599 72.0612 33.2586 72.0628C33.2574 72.0645 33.2567 72.0665 33.2568 72.0685C33.2592 73.7891 33.2601 75.5097 33.2595 77.2305C33.2592 78.0988 33.5509 78.5816 34.5619 78.6412C34.5718 78.6418 34.5768 78.6466 34.5768 78.6556V78.7551C34.5768 78.7692 34.5691 78.7763 34.5535 78.7763H31.6903C31.6775 78.7763 31.6712 78.7705 31.6714 78.7589L31.6732 78.6542C31.6734 78.6434 31.6796 78.6378 31.6918 78.6374C31.9208 78.6324 32.1064 78.6042 32.2488 78.5528C32.9334 78.3055 32.9876 77.7292 32.9897 77.1269C32.9972 74.8931 32.9993 73.4118 32.9959 72.683C32.9926 71.9779 32.8935 71.3067 32.0011 71.1622C31.958 71.1551 31.854 71.1455 31.6891 71.1334C31.6777 71.1325 31.672 71.1269 31.672 71.1166V71.0171C31.672 71.0057 31.6782 71 31.6906 71H34.0854C34.096 71 34.1046 71.0038 34.1112 71.0114L39.1743 76.8649Z" fill="#2B3990"/>
<path d="M44.0397 74.7714C44.0399 74.7882 44.0466 74.7907 44.0598 74.779C44.9207 74.0079 45.7749 73.2411 46.6224 72.4785C46.8467 72.2767 47.3256 71.9209 47.2821 71.6069C47.2297 71.2289 46.8081 71.1657 46.473 71.1342C46.4624 71.1332 46.4568 71.1278 46.4562 71.1182L46.4502 71.0206C46.45 71.018 46.4504 71.0153 46.4514 71.0128C46.4524 71.0103 46.4539 71.0081 46.456 71.0061C46.458 71.0042 46.4604 71.0026 46.4631 71.0016C46.4659 71.0005 46.4688 71 46.4718 71H49.1524C49.1624 71 49.1674 71.0045 49.1674 71.0136V71.1207C49.1674 71.1317 49.1614 71.1375 49.1494 71.138C48.5726 71.1641 48.2024 71.461 47.7943 71.8111C47.0038 72.4894 46.218 73.17 45.4368 73.8529C45.4329 73.8562 45.4306 73.8607 45.4302 73.8655C45.4298 73.8703 45.4314 73.8751 45.4347 73.8789C46.5337 75.1495 47.6348 76.4211 48.7379 77.6937C49.1374 78.1544 49.7702 78.5704 50.4303 78.6434C50.4418 78.6447 50.4476 78.6506 50.4476 78.6613V78.7627C50.4476 78.7718 50.4426 78.7763 50.4327 78.7763H46.296C46.2834 78.7763 46.2771 78.7706 46.2771 78.7592L46.2777 78.6578C46.2779 78.6444 46.2853 78.6374 46.2999 78.6369C46.5499 78.6285 46.9243 78.5753 47.0812 78.4072C47.283 78.1913 47.0857 77.8442 46.9315 77.6405C46.1714 76.6366 45.2981 75.7016 44.4536 74.7551C44.4521 74.7535 44.4502 74.7521 44.4481 74.7511C44.446 74.7501 44.4437 74.7495 44.4413 74.7494C44.439 74.7493 44.4366 74.7496 44.4344 74.7504C44.4321 74.7511 44.4301 74.7523 44.4284 74.7538L44.0484 75.0927C44.0418 75.0987 44.0385 75.1059 44.0385 75.1144C44.0387 75.802 44.0395 76.4893 44.0409 77.1763C44.043 78.0555 44.2769 78.5764 45.3385 78.642C45.3497 78.6428 45.3555 78.6482 45.3559 78.6583L45.358 78.7627C45.3582 78.7718 45.3534 78.7763 45.3436 78.7763H41.351C41.3408 78.7763 41.3357 78.7718 41.3357 78.7627L41.3363 78.6575C41.3364 78.6532 41.3382 78.6491 41.3414 78.6461C41.3446 78.643 41.349 78.6412 41.3537 78.6409C42.2138 78.5957 42.5803 78.2423 42.6408 77.4746C42.6494 77.3672 42.6541 77.2395 42.6549 77.0914C42.6609 76.0882 42.6616 74.6792 42.657 72.8644C42.6562 72.571 42.6443 72.3155 42.6214 72.098C42.5534 71.4542 42.029 71.1505 41.357 71.1364C41.343 71.136 41.336 71.1295 41.336 71.1169V71.0168C41.336 71.0056 41.3423 71 41.3549 71H45.3328C45.347 71 45.3544 71.0064 45.355 71.0193L45.3601 71.1215C45.3602 71.1235 45.3599 71.1256 45.3591 71.1275C45.3583 71.1294 45.3571 71.1312 45.3556 71.1327C45.3541 71.1342 45.3522 71.1354 45.3502 71.1362C45.3481 71.137 45.3459 71.1375 45.3436 71.1375C44.9031 71.1451 44.4838 71.2663 44.2508 71.6088C44.0648 71.8819 44.0412 72.2776 44.04 72.6136C44.0376 73.3384 44.0375 74.0576 44.0397 74.7714Z" fill="#2B3990"/>
<path d="M56.0001 78.7763L53.2241 78.7757C53.2142 78.7757 53.2092 78.7713 53.2092 78.7624V78.6594C53.2092 78.6473 53.2159 78.6409 53.2291 78.6401C53.6736 78.6149 53.9678 78.4286 54.2466 78.1019C54.6268 77.656 54.8732 77.0586 55.0832 76.5643C55.8692 74.7143 56.6549 72.8643 57.4402 71.0144C57.4443 71.0048 57.4519 71 57.463 71H57.7753C57.7857 71 57.7959 71.0028 57.8046 71.0081C57.8132 71.0134 57.82 71.021 57.8239 71.0298C58.7571 73.094 59.6944 75.1628 60.6358 77.2363C60.7411 77.4681 60.8586 77.6954 60.9745 77.8993C61.2841 78.4441 61.6599 78.5789 62.3022 78.6388C62.3143 78.64 62.3204 78.6462 62.3206 78.6572L62.3212 78.7589C62.3212 78.7703 62.3149 78.776 62.3025 78.776H58.2281C58.2178 78.776 58.2128 78.7714 58.213 78.7622L58.2151 78.6537C58.2151 78.6486 58.2173 78.6438 58.2211 78.6402C58.2249 78.6365 58.2301 78.6344 58.2355 78.6342C58.8174 78.6122 59.5063 78.3793 59.361 77.7062C59.3297 77.5614 59.2841 77.4202 59.224 77.2826C58.9877 76.7417 58.7489 76.2018 58.5075 75.6629C58.5039 75.6548 58.4973 75.6507 58.4876 75.6507H55.7812C55.7766 75.6507 55.7721 75.652 55.7683 75.6544C55.7645 75.6568 55.7616 75.6603 55.7599 75.6642C55.5828 76.0992 55.4006 76.5334 55.2133 76.9667C55.0918 77.2487 54.9776 77.6021 55.0182 77.8871C55.0852 78.3597 55.4903 78.5965 55.9885 78.6382C55.9992 78.6391 56.0046 78.6445 56.0046 78.6542L56.004 78.773C56.004 78.7734 56.0039 78.7739 56.0037 78.7743C56.0035 78.7747 56.0032 78.775 56.0028 78.7753C56.0025 78.7756 56.002 78.7759 56.0016 78.776C56.0011 78.7762 56.0006 78.7763 56.0001 78.7763ZM57.1107 72.4936C57.11 72.492 57.1087 72.4906 57.1071 72.4896C57.1055 72.4886 57.1036 72.4881 57.1017 72.4881C57.0997 72.4881 57.0978 72.4886 57.0962 72.4896C57.0946 72.4906 57.0934 72.492 57.0926 72.4936L55.8738 75.4012C55.8732 75.4026 55.873 75.404 55.8732 75.4055C55.8734 75.4069 55.8739 75.4083 55.8748 75.4095C55.8757 75.4107 55.877 75.4117 55.8784 75.4124C55.8798 75.4131 55.8814 75.4134 55.883 75.4134H58.3874C58.389 75.4134 58.3905 75.4131 58.392 75.4124C58.3934 75.4117 58.3946 75.4107 58.3955 75.4095C58.3964 75.4083 58.397 75.4069 58.3972 75.4055C58.3974 75.404 58.3971 75.4026 58.3966 75.4012L57.1107 72.4936Z" fill="#2B3990"/>
<path d="M65.2587 74.9882C65.2624 75.4746 65.2638 76.1431 65.2628 76.9934C65.2626 77.1715 65.2721 77.3558 65.2912 77.5463C65.365 78.2811 65.7337 78.5837 66.5461 78.6426C66.5574 78.6435 66.563 78.6491 66.563 78.6594V78.7592C66.563 78.7706 66.5569 78.7763 66.5447 78.7763H62.6155C62.6031 78.7763 62.5969 78.7706 62.5969 78.7592V78.6597C62.5969 78.6494 62.6025 78.6439 62.6138 78.6431C63.5618 78.5772 63.8885 78.1564 63.8953 77.312C63.9075 75.8404 63.9076 74.2473 63.8956 72.5329C63.8894 71.6633 63.6191 71.1944 62.6108 71.1348C62.6016 71.1342 62.5969 71.1297 62.5969 71.1212V71.0195C62.5969 71.0065 62.6041 71 62.6185 71C63.8991 71.0002 65.1794 71.0028 66.4596 71.0079C66.8289 71.0093 67.2072 71.0441 67.5946 71.1123C68.7757 71.3202 69.5217 72.1478 69.3577 73.2783C69.2209 74.2203 68.4047 74.6728 67.4634 74.8507C67.461 74.8512 67.4587 74.8524 67.4571 74.8541C67.4554 74.8559 67.4544 74.8581 67.4543 74.8604C67.4541 74.8627 67.4548 74.865 67.4562 74.8669C67.4575 74.8688 67.4596 74.8703 67.462 74.8711C67.8551 74.9981 68.1445 75.2355 68.3302 75.5831C68.8026 76.4665 69.2611 77.3939 69.8191 78.2066C69.9929 78.4596 70.2623 78.626 70.584 78.6364C70.596 78.6367 70.6021 78.6423 70.6023 78.6532L70.6044 78.7627C70.6046 78.7718 70.5998 78.7763 70.5899 78.7763H68.5725C68.5524 78.7763 68.5382 78.7679 68.5299 78.7511C68.1296 77.9316 67.7518 77.0905 67.2871 76.2957C67.1208 76.0114 66.9442 75.7553 66.7571 75.5275C66.3334 75.0115 65.9458 74.957 65.2723 74.9749C65.263 74.9751 65.2585 74.9795 65.2587 74.9882ZM67.8531 73.332C67.9896 72.4981 67.5538 71.5092 66.594 71.2712C66.2256 71.18 65.6936 71.1706 65.2729 71.1874C65.2614 71.1877 65.2557 71.1932 65.2557 71.2039V74.8309C65.2557 74.8405 65.261 74.8454 65.2714 74.8456C65.5379 74.8483 65.8747 74.8363 66.282 74.8098C67.134 74.7545 67.7337 74.0627 67.8531 73.332Z" fill="#2B3990"/>
<path d="M75.4267 74.8165C75.9758 74.0435 76.5227 73.2656 77.0672 72.4828C77.5054 71.8529 77.2001 71.1063 76.3021 71.1391C76.2996 71.1392 76.2972 71.1388 76.2949 71.138C76.2926 71.1372 76.2906 71.136 76.2888 71.1344C76.287 71.1328 76.2856 71.131 76.2846 71.1289C76.2836 71.1268 76.2831 71.1246 76.2831 71.1223L76.281 71.0138C76.2808 71.0046 76.2858 71 76.2961 71H79.1448C79.1561 71 79.1619 71.0052 79.162 71.0155L79.1644 71.1231C79.1646 71.1361 79.1575 71.1429 79.143 71.1435C78.8101 71.1521 78.5341 71.2502 78.3152 71.4377C78.0813 71.6376 77.8411 71.9043 77.5946 72.2377C77.1794 72.7993 76.5803 73.6273 75.7973 74.7214C75.608 74.9858 75.5771 75.1881 75.5762 75.5308C75.5752 76.1269 75.575 76.7227 75.5756 77.3184C75.5758 77.4218 75.5888 77.5618 75.6145 77.7385C75.7031 78.3437 76.2343 78.6461 76.8669 78.6391C76.8691 78.639 76.8712 78.6394 76.8732 78.6401C76.8753 78.6409 76.8771 78.642 76.8786 78.6434C76.8802 78.6448 76.8814 78.6465 76.8823 78.6484C76.8831 78.6502 76.8835 78.6522 76.8835 78.6542V78.7633C76.8835 78.7667 76.8821 78.77 76.8794 78.7725C76.8768 78.7749 76.8733 78.7763 76.8696 78.7763L72.9077 78.776C72.8978 78.776 72.8928 78.7715 72.8928 78.7624V78.6553C72.8928 78.6465 72.8977 78.6418 72.9074 78.6412C73.6749 78.6008 74.1083 78.3036 74.174 77.5779C74.2189 77.083 74.199 76.5716 74.2043 76.0713C74.2065 75.8688 74.1958 75.7123 74.1722 75.6019C74.0958 75.2442 73.9041 74.9172 73.682 74.6107C73.007 73.6793 72.33 72.7492 71.6508 71.8203C71.4213 71.5066 71.1113 71.2405 70.7302 71.1698C70.644 71.1537 70.5159 71.1419 70.3459 71.1345C70.3414 71.1343 70.3372 71.1326 70.3341 71.1296C70.331 71.1267 70.3293 71.1228 70.3292 71.1188L70.3286 71.0136C70.3286 71.0045 70.3337 71 70.3438 71H74.394C74.4088 71 74.4163 71.0068 74.4163 71.0203V71.1161C74.4163 71.1213 74.414 71.1263 74.41 71.1301C74.406 71.1338 74.4006 71.136 74.3949 71.1361C73.954 71.1464 73.3663 71.1931 73.3981 71.739C73.4112 71.9621 73.6086 72.2496 73.7456 72.4451C74.2964 73.2312 74.8501 74.0215 75.4067 74.8163C75.4133 74.8257 75.4199 74.8258 75.4267 74.8165Z" fill="#2B3990"/>
<path d="M84.1727 75.6508H81.4612C81.4515 75.6508 81.445 75.655 81.4416 75.6633C81.2558 76.1186 81.0675 76.5722 80.8769 77.0244C80.7583 77.3056 80.6296 77.678 80.718 77.979C80.8491 78.4235 81.1883 78.5767 81.6729 78.6426C81.6848 78.6442 81.6907 78.6504 81.6907 78.6613V78.7627C81.6907 78.7718 81.6858 78.7763 81.6759 78.7763H78.9069C78.8944 78.7763 78.8882 78.7707 78.8882 78.7595V78.6551C78.8882 78.6442 78.8942 78.6385 78.9063 78.638C79.61 78.6049 80.0454 78.0649 80.3209 77.5169C80.5581 77.0458 80.7619 76.568 80.9674 76.0853C81.6865 74.3953 82.4045 72.7049 83.1216 71.0144C83.1256 71.0048 83.1332 71 83.1445 71H83.4775C83.482 71 83.4864 71.0012 83.4901 71.0035C83.4939 71.0058 83.4968 71.0092 83.4986 71.013C84.3942 72.9938 85.2889 74.975 86.1828 76.9566C86.3457 77.3176 86.5045 77.6345 86.6591 77.9071C86.971 78.4576 87.3501 78.5696 87.9814 78.6407C87.9939 78.6421 88.0001 78.6485 88.0001 78.6599V78.7627C88.0001 78.7718 87.9952 78.7763 87.9853 78.7763H83.9149C83.9051 78.7763 83.9001 78.7718 83.9001 78.7627V78.6545C83.9001 78.6451 83.9052 78.64 83.9152 78.6393C84.4259 78.6035 85.0591 78.4508 85.0603 77.8746C85.0606 77.6791 84.9867 77.47 84.8951 77.2609C84.6612 76.7272 84.4259 76.1939 84.1893 75.6612C84.1861 75.6543 84.1806 75.6508 84.1727 75.6508ZM82.7916 72.4915C82.7909 72.49 82.7898 72.4887 82.7883 72.4877C82.7868 72.4868 82.7851 72.4863 82.7833 72.4863C82.7815 72.4863 82.7797 72.4868 82.7782 72.4877C82.7767 72.4887 82.7756 72.49 82.775 72.4915L81.5549 75.4024C81.5544 75.4037 81.5542 75.405 81.5543 75.4063C81.5545 75.4077 81.555 75.4089 81.5558 75.41C81.5566 75.4111 81.5577 75.412 81.559 75.4126C81.5603 75.4132 81.5617 75.4136 81.5632 75.4136H84.0703C84.0718 75.4135 84.0732 75.4132 84.0744 75.4125C84.0757 75.4119 84.0767 75.411 84.0775 75.4099C84.0783 75.4088 84.0788 75.4076 84.0789 75.4063C84.0791 75.405 84.0789 75.4037 84.0784 75.4024L82.7916 72.4915Z" fill="#2B3990"/>
<path d="M26.9615 80.2653C27.0007 80.4273 26.9673 80.5976 26.8686 80.7387C26.7699 80.8798 26.614 80.9801 26.4352 81.0176C26.3466 81.0362 26.2551 81.0388 26.1659 81.0252C26.0767 81.0117 25.9914 80.9823 25.9151 80.9387C25.8387 80.8951 25.7728 80.8381 25.7209 80.7711C25.6691 80.7041 25.6324 80.6283 25.613 80.5481C25.5737 80.386 25.6071 80.2157 25.7058 80.0746C25.8045 79.9335 25.9604 79.8332 26.1393 79.7957C26.2278 79.7771 26.3193 79.7745 26.4086 79.7881C26.4978 79.8016 26.583 79.831 26.6594 79.8747C26.7357 79.9183 26.8017 79.9752 26.8535 80.0422C26.9054 80.1092 26.942 80.185 26.9615 80.2653ZM26.0679 80.9424C26.1805 81.015 26.2953 81.0306 26.4121 80.9893C26.8664 80.8286 26.8686 79.946 26.4199 79.8144C25.7957 79.631 25.6349 80.6638 26.0679 80.9424Z" fill="#F15922"/>
<path d="M29.7237 80.2697C29.7425 80.3501 29.7437 80.4332 29.7272 80.5143C29.7106 80.5954 29.6767 80.673 29.6273 80.7425C29.5779 80.8121 29.5141 80.8723 29.4394 80.9196C29.3646 80.967 29.2805 81.0007 29.1919 81.0186C29.1032 81.0366 29.0117 81.0386 28.9226 81.0245C28.8334 81.0103 28.7484 80.9804 28.6724 80.9362C28.5964 80.8921 28.5308 80.8348 28.4795 80.7674C28.4282 80.7 28.3921 80.624 28.3732 80.5436C28.3544 80.4633 28.3532 80.3801 28.3697 80.299C28.3863 80.2179 28.4202 80.1403 28.4696 80.0708C28.519 80.0012 28.5828 79.9411 28.6575 79.8937C28.7323 79.8463 28.8164 79.8127 28.905 79.7947C28.9937 79.7767 29.0852 79.7747 29.1743 79.7888C29.2635 79.803 29.3485 79.833 29.4245 79.8771C29.5005 79.9212 29.5661 79.9786 29.6174 80.0459C29.6687 80.1133 29.7049 80.1893 29.7237 80.2697ZM28.8284 80.9425C28.93 81.0087 29.0372 81.0264 29.1499 80.9957C29.7095 80.8434 29.6131 79.6979 28.9683 79.8056C28.4898 79.8857 28.4772 80.7144 28.8284 80.9425Z" fill="#F15922"/>
<path d="M57.6069 80.9743C57.8577 81.0977 58.078 80.8364 57.9382 80.6203C57.8426 80.4728 57.611 80.4496 57.4803 80.3239C57.2365 80.0898 57.5314 79.6878 57.8774 79.7984C57.9244 79.8133 57.9706 79.8298 58.0159 79.848C58.0266 79.8522 58.036 79.8507 58.0441 79.8433L58.0783 79.8132C58.0795 79.8121 58.0811 79.8113 58.0829 79.811C58.0846 79.8107 58.0864 79.8109 58.088 79.8115C58.0896 79.8121 58.091 79.8131 58.092 79.8145C58.093 79.8158 58.0936 79.8174 58.0936 79.819L58.1052 80.135C58.1054 80.1379 58.1044 80.1406 58.1025 80.1428C58.1005 80.145 58.0978 80.1464 58.0947 80.1467C58.0917 80.1471 58.0885 80.1464 58.086 80.1448C58.0834 80.1431 58.0815 80.1407 58.0808 80.1379C58.0422 79.9893 57.951 79.7941 57.753 79.8045C57.6138 79.8117 57.5198 79.9285 57.5496 80.0536C57.5963 80.2483 57.9291 80.2857 58.0711 80.4267C58.3227 80.6767 58.1015 81.0525 57.743 81.0331C57.6435 81.0276 57.5436 81.0008 57.4434 80.9525C57.4386 80.9502 57.4331 80.9493 57.4277 80.9498C57.4223 80.9504 57.4171 80.9524 57.413 80.9557L57.3678 80.9911C57.3663 80.9922 57.3644 80.9929 57.3624 80.9932C57.3604 80.9934 57.3584 80.9931 57.3566 80.9924C57.3548 80.9916 57.3533 80.9904 57.3522 80.9889C57.3511 80.9874 57.3506 80.9856 57.3506 80.9838L57.3522 80.6426C57.3521 80.64 57.3531 80.6375 57.3549 80.6356C57.3567 80.6337 57.3593 80.6325 57.3621 80.6322C57.3648 80.6319 57.3676 80.6326 57.37 80.6341C57.3723 80.6355 57.374 80.6377 57.3747 80.6402C57.4086 80.7686 57.4797 80.9117 57.6069 80.9743Z" fill="#F15922"/>
<path d="M23.2998 79.9625C23.2889 79.8498 23.2225 79.8051 23.1151 79.7935C23.1123 79.7931 23.1113 79.7916 23.1121 79.789C23.1129 79.7865 23.1137 79.7841 23.1145 79.7817C23.1149 79.7803 23.1168 79.7795 23.1202 79.7795L24.0776 79.7798C24.0875 79.7798 24.0927 79.7848 24.0933 79.7947L24.1072 80.0592C24.1074 80.062 24.1068 80.0647 24.1054 80.0671C24.104 80.0695 24.102 80.0715 24.0995 80.0727C24.0971 80.0739 24.0943 80.0744 24.0916 80.0741C24.0889 80.0737 24.0863 80.0726 24.0843 80.0708C24.0778 80.0651 24.0749 80.0564 24.0755 80.0446C24.0761 80.0323 24.0754 80.0229 24.0734 80.0166C23.9968 79.7668 23.7297 79.7926 23.5236 79.8048C23.5112 79.8056 23.5049 79.8123 23.5049 79.8248V80.3422C23.5049 80.3536 23.5106 80.3594 23.5218 80.3598C23.7364 80.3684 23.7466 80.344 23.81 80.1559C23.8108 80.1534 23.8125 80.1514 23.8147 80.15C23.8169 80.1487 23.8195 80.1482 23.8221 80.1487C23.8246 80.1491 23.8269 80.1505 23.8286 80.1524C23.8302 80.1544 23.8311 80.1569 23.8311 80.1595L23.8199 80.6088C23.8193 80.6352 23.8142 80.6361 23.8046 80.6115C23.7454 80.462 23.7373 80.3507 23.5227 80.3924C23.5135 80.3942 23.5086 80.3999 23.508 80.4094C23.4932 80.6924 23.4413 81.0745 23.8782 81.0058C24.0592 80.9775 24.1446 80.8818 24.1853 80.7106C24.2093 80.6113 24.2193 80.6128 24.2155 80.7149L24.2046 81.0161C24.2042 81.0279 24.1981 81.0338 24.1862 81.0338H23.1248C23.1201 81.0338 23.1185 81.0316 23.1199 81.0271C23.1209 81.0243 23.1218 81.0214 23.1226 81.0186C23.1232 81.0168 23.1245 81.0157 23.1263 81.0155C23.2657 81.0037 23.2964 80.9189 23.301 80.7872C23.3142 80.3811 23.3138 80.1062 23.2998 79.9625Z" fill="#F15922"/>
<path d="M31.7414 79.8145C31.7374 79.8137 31.7338 79.8114 31.7314 79.8081C31.7289 79.8047 31.7277 79.8005 31.728 79.7962C31.7283 79.792 31.73 79.788 31.7329 79.785C31.7358 79.7821 31.7396 79.7803 31.7437 79.7801L32.2089 79.7795C32.216 79.7795 32.2194 79.7833 32.2192 79.7908C32.219 79.7946 32.2168 79.7969 32.2126 79.7975C32.0322 79.8233 32.0452 79.9448 32.0409 80.1165C32.0326 80.4531 32.0344 80.6979 32.0463 80.8509C32.054 80.9495 32.1057 81.0034 32.2014 81.0125C32.2083 81.0131 32.2133 81.0148 32.2164 81.0177C32.219 81.0203 32.2212 81.0233 32.2227 81.0268C32.2248 81.0314 32.2234 81.0338 32.2184 81.0338L31.6749 81.0329C31.6718 81.0329 31.6708 81.0313 31.6717 81.0283C31.6727 81.0255 31.6736 81.0226 31.6743 81.0198C31.6749 81.0184 31.6759 81.0176 31.6772 81.0174C31.7927 81.0074 31.8507 80.9462 31.8513 80.8335C31.853 80.5534 31.8532 80.2732 31.8518 79.9928C31.8513 79.8853 31.8144 79.8258 31.7414 79.8145Z" fill="#F15922"/>
<path d="M14.801 80.3557C14.9858 80.4037 15.1249 80.5189 15.102 80.7297C15.0807 80.9266 14.9661 81.0267 14.7581 81.0302C14.5069 81.0344 14.2554 81.0349 14.0034 81.0317C14.0005 81.0317 13.9995 81.0303 14.0005 81.0274C14.0013 81.0248 14.0022 81.0221 14.0031 81.0192C14.0035 81.018 14.0043 81.0173 14.0055 81.0171C14.1481 81.0062 14.1842 80.9162 14.1845 80.7768C14.1847 80.5204 14.1846 80.264 14.1842 80.0075C14.1838 79.8759 14.124 79.8053 14.0049 79.7958C14.0006 79.7954 13.9991 79.7932 14.0005 79.7891C14.0013 79.7865 14.0021 79.7839 14.0028 79.7815C14.0032 79.7803 14.0046 79.7797 14.007 79.7797C14.2397 79.7795 14.4725 79.7795 14.7053 79.7797C15.0243 79.7803 15.0997 80.1956 14.7995 80.3375C14.7833 80.3452 14.7837 80.3513 14.801 80.3557ZM14.3811 79.8274V80.3317C14.3811 80.3384 14.3836 80.3448 14.3882 80.3495C14.3928 80.3543 14.399 80.3569 14.4054 80.3569H14.5228C14.5926 80.3569 14.6595 80.3291 14.7089 80.2797C14.7583 80.2302 14.786 80.1632 14.786 80.0932V80.0659C14.786 79.9959 14.7583 79.9289 14.7089 79.8794C14.6595 79.83 14.5926 79.8022 14.5228 79.8022H14.4054C14.4022 79.8022 14.3991 79.8028 14.3961 79.8041C14.3931 79.8054 14.3905 79.8072 14.3882 79.8096C14.3859 79.8119 14.3841 79.8147 14.3829 79.8177C14.3817 79.8208 14.3811 79.8241 14.3811 79.8274ZM14.4615 80.9815C14.7285 81.1107 14.977 80.8318 14.8673 80.5611C14.7798 80.346 14.5835 80.3827 14.4019 80.3773C14.3904 80.3769 14.3844 80.3827 14.384 80.3949C14.3808 80.5158 14.3435 80.9247 14.4615 80.9815Z" fill="#F15922"/>
<path d="M15.8882 80.5312L15.5125 80.5303C15.4997 80.5303 15.4904 80.5359 15.4849 80.5472C15.4105 80.6951 15.2579 80.9709 15.5209 81.0134C15.5247 81.014 15.5259 81.016 15.5247 81.0194C15.5238 81.0219 15.523 81.0244 15.5222 81.027C15.5218 81.0282 15.5198 81.0288 15.5163 81.0288H15.112C15.1102 81.0288 15.1083 81.0281 15.1069 81.0269C15.1055 81.0258 15.1046 81.0241 15.1043 81.0223C15.1041 81.0205 15.1045 81.0187 15.1055 81.0172C15.1065 81.0156 15.108 81.0145 15.1098 81.014C15.2071 80.9891 15.2757 80.9291 15.3157 80.8342C15.461 80.4894 15.5995 80.1465 15.7311 79.8055C15.734 79.798 15.7391 79.7914 15.7459 79.7868C15.7526 79.7822 15.7607 79.7796 15.769 79.7795C15.7773 79.7794 15.7855 79.7818 15.7924 79.7863C15.7994 79.7907 15.8048 79.7971 15.8079 79.8046C15.9519 80.1498 16.1173 80.4938 16.2464 80.842C16.3275 81.0605 16.691 81.0931 16.696 80.8158C16.701 80.547 16.7003 80.2784 16.6938 80.0101C16.691 79.8812 16.6407 79.8025 16.5029 79.8004C16.4986 79.8004 16.4962 79.7982 16.4958 79.7937C16.4955 79.7899 16.4962 79.787 16.4976 79.785C16.498 79.7844 16.4987 79.7841 16.4995 79.7841C16.6162 79.7841 16.7328 79.7841 16.8493 79.7841C16.859 79.7841 16.8669 79.7878 16.8729 79.7952C17.1016 80.0787 17.3315 80.3611 17.5626 80.6426C17.5794 80.6627 17.5905 80.6817 17.5959 80.6996C17.597 80.7041 17.5999 80.708 17.6039 80.7106C17.6079 80.7131 17.6127 80.7141 17.6174 80.7134C17.6222 80.7126 17.6264 80.7101 17.6293 80.7065C17.6323 80.7028 17.6336 80.6982 17.6332 80.6935C17.627 80.5022 17.6234 80.3118 17.6223 80.1223C17.6217 79.9443 17.6432 79.8158 17.4308 79.7983C17.4279 79.7981 17.4269 79.7965 17.428 79.7937C17.4288 79.7913 17.4296 79.7889 17.4305 79.7865C17.4309 79.7849 17.432 79.7841 17.4339 79.7841C17.5746 79.7839 17.7154 79.7844 17.8562 79.7856C17.8599 79.7856 17.8626 79.7872 17.8642 79.7904C17.8669 79.796 17.8651 79.799 17.8587 79.7992C17.7022 79.804 17.6696 79.8996 17.6696 80.0378C17.6696 80.3585 17.6696 80.6815 17.6696 81.0068C17.6696 81.0122 17.6675 81.0175 17.6637 81.0215C17.66 81.0256 17.6547 81.0282 17.6491 81.0288C17.6127 81.0321 17.5956 80.9947 17.5772 80.9724C17.3009 80.6352 17.0257 80.2993 16.7517 79.9645C16.7506 79.9632 16.7492 79.9622 16.7476 79.9617C16.7459 79.9612 16.7442 79.9612 16.7425 79.9617C16.7409 79.9623 16.7395 79.9633 16.7385 79.9647C16.7375 79.966 16.737 79.9677 16.7371 79.9693C16.7364 80.2437 16.7364 80.5188 16.7371 80.7946C16.7373 80.9258 16.7999 80.9992 16.9249 81.0149C16.9307 81.0157 16.9325 81.0188 16.9305 81.0243C16.929 81.0277 16.926 81.0294 16.9214 81.0294C16.5804 81.0274 16.2394 81.0275 15.8984 81.0297C15.8947 81.0297 15.8902 81.0307 15.885 81.0327C15.8772 81.0353 15.8721 81.0331 15.8698 81.0261C15.8694 81.025 15.8693 81.0238 15.8694 81.0226C15.8695 81.0215 15.8699 81.0203 15.8705 81.0193C15.8711 81.0183 15.8718 81.0174 15.8728 81.0167C15.8738 81.016 15.8749 81.0155 15.876 81.0152C15.9563 80.9971 16.0053 80.9639 16.0231 80.9156C16.0523 80.8372 15.9426 80.626 15.9059 80.5427C15.9026 80.535 15.8967 80.5312 15.8882 80.5312ZM15.5076 80.4784C15.5069 80.4801 15.5067 80.4819 15.5069 80.4837C15.5071 80.4855 15.5078 80.4872 15.5089 80.4887C15.51 80.4902 15.5114 80.4914 15.5131 80.4923C15.5147 80.4931 15.5166 80.4935 15.5184 80.4935L15.8692 80.4929C15.8711 80.4929 15.873 80.4925 15.8747 80.4917C15.8764 80.4908 15.8778 80.4896 15.8789 80.488C15.88 80.4865 15.8807 80.4847 15.8809 80.4829C15.8811 80.4811 15.8808 80.4792 15.8801 80.4775L15.7038 80.0427C15.7029 80.0406 15.7015 80.0388 15.6995 80.0375C15.6976 80.0362 15.6954 80.0355 15.693 80.0355C15.6907 80.0355 15.6884 80.0362 15.6865 80.0375C15.6846 80.0388 15.6831 80.0406 15.6823 80.0427L15.5076 80.4784Z" fill="#F15922"/>
<path d="M18.753 79.8322C18.7222 79.8093 18.6872 79.7971 18.648 79.7957C18.6438 79.7955 18.6423 79.7935 18.6436 79.7896C18.6446 79.787 18.6456 79.7843 18.6464 79.7814C18.6468 79.7802 18.6488 79.7796 18.6524 79.7796H19.0447C19.0465 79.7794 19.0484 79.7798 19.0498 79.7809C19.0513 79.782 19.0523 79.7836 19.0525 79.7854C19.0528 79.7871 19.0523 79.7889 19.0512 79.7904C19.05 79.7918 19.0484 79.7927 19.0466 79.793C18.8485 79.847 18.6467 80.0928 18.4996 80.2298C18.4966 80.2326 18.4947 80.2365 18.4944 80.2406C18.4942 80.2446 18.4954 80.2487 18.498 80.2519C18.6508 80.4429 18.8036 80.6353 18.9563 80.829C19.0215 80.9117 19.117 80.9769 19.2427 81.0247C19.2432 81.0248 19.2437 81.025 19.2442 81.0252C19.2447 81.0255 19.2451 81.0259 19.2454 81.0263C19.2457 81.0268 19.2459 81.0273 19.246 81.0278C19.2461 81.0283 19.2461 81.0288 19.246 81.0294C19.2459 81.0299 19.2457 81.0304 19.2454 81.0308C19.2451 81.0313 19.2447 81.0316 19.2442 81.0319C19.2438 81.0322 19.2433 81.0324 19.2428 81.0325C19.2422 81.0326 19.2417 81.0327 19.2411 81.0326H18.6514C18.6489 81.0324 18.6465 81.0314 18.6447 81.0297C18.6428 81.028 18.6416 81.0258 18.6413 81.0233C18.6409 81.0209 18.6415 81.0184 18.6428 81.0164C18.6442 81.0143 18.6462 81.0127 18.6486 81.0119L18.6954 80.9997C18.7053 80.9973 18.7144 80.9931 18.7228 80.987C18.7649 80.9566 18.7684 80.9179 18.7332 80.871C18.6095 80.7055 18.4873 80.5537 18.3666 80.4156C18.3599 80.4079 18.3508 80.4024 18.3407 80.3998C18.3306 80.3971 18.3199 80.3976 18.31 80.401C18.3002 80.4044 18.2916 80.4106 18.2855 80.4188C18.2794 80.427 18.276 80.4368 18.2758 80.4469C18.2726 80.6195 18.2019 80.9912 18.4625 81.0152C18.4698 81.0158 18.4728 81.0196 18.4713 81.0265C18.4705 81.0315 18.4673 81.034 18.4619 81.0338C18.271 81.0311 18.08 81.0309 17.8888 81.0332C17.8832 81.0334 17.879 81.0321 17.8763 81.0295C17.8742 81.0273 17.8732 81.0249 17.8734 81.0222C17.8736 81.0166 17.8767 81.0135 17.8826 81.0131C18.0033 81.0034 18.0648 80.9382 18.0671 80.8175C18.07 80.6636 18.0708 80.3936 18.0696 80.0074C18.069 79.8752 18.002 79.804 17.8687 79.7939C17.8658 79.7937 17.8648 79.7922 17.8659 79.7893C17.8667 79.7869 17.8676 79.7845 17.8684 79.782C17.8688 79.7804 17.87 79.7796 17.8719 79.7796H18.4707C18.4711 79.7797 18.4715 79.7799 18.4718 79.7802C18.4722 79.7805 18.4724 79.7809 18.4724 79.7814C18.4725 79.7818 18.4724 79.7822 18.4722 79.7826C18.472 79.783 18.4717 79.7833 18.4713 79.7836C18.342 79.8259 18.2766 79.8955 18.2752 79.9925C18.2733 80.1207 18.2737 80.247 18.2764 80.3713C18.2764 80.3731 18.277 80.3749 18.2781 80.3764C18.2792 80.3779 18.2807 80.379 18.2825 80.3797C18.2842 80.3803 18.2861 80.3805 18.288 80.3801C18.2898 80.3796 18.2915 80.3787 18.2928 80.3774C18.4376 80.2316 18.5845 80.0915 18.7335 79.9573C18.7634 79.9304 18.7752 79.8972 18.7687 79.8577C18.7668 79.8471 18.7616 79.8386 18.753 79.8322Z" fill="#F15922"/>
<path d="M19.6154 79.805C19.4899 79.789 19.4915 79.7807 19.6202 79.7801C19.8171 79.7793 20.033 79.7794 20.268 79.7804C20.5027 79.7813 20.673 79.9813 20.6158 80.1975C20.5514 80.4425 20.25 80.4249 19.9904 80.416C19.9784 80.4156 19.9722 80.4212 19.9717 80.4328C19.9657 80.5878 19.9098 80.9827 20.1208 81.0058C20.1227 81.0059 20.1246 81.0064 20.1263 81.0071C20.1281 81.0079 20.1296 81.0091 20.1309 81.0104C20.1321 81.0118 20.1331 81.0134 20.1338 81.0151C20.1344 81.0169 20.1347 81.0187 20.1346 81.0205C20.1345 81.0224 20.134 81.0242 20.1332 81.0258C20.1323 81.0275 20.1312 81.029 20.1298 81.0302C20.1283 81.0314 20.1267 81.0324 20.1249 81.033C20.1231 81.0336 20.1212 81.0339 20.1193 81.0338H19.5684C19.5652 81.0338 19.5641 81.0322 19.5652 81.0292C19.5663 81.026 19.5673 81.0227 19.5684 81.0195C19.569 81.0176 19.5704 81.0166 19.5725 81.0164C19.6978 81.0077 19.7609 80.9469 19.762 80.834C19.7649 80.5493 19.7638 80.2643 19.7585 79.9792C19.7566 79.8748 19.7089 79.8168 19.6154 79.805ZM19.9676 79.8336L19.9664 80.3674C19.9664 80.3742 19.9692 80.3807 19.9741 80.3855C19.9791 80.3902 19.9859 80.3929 19.9929 80.3929L20.1155 80.3932C20.1531 80.3933 20.1905 80.386 20.2253 80.3716C20.2602 80.3573 20.2919 80.3363 20.3186 80.3097C20.3453 80.2831 20.3664 80.2516 20.3809 80.2168C20.3954 80.1821 20.4029 80.1448 20.4029 80.1072V80.095C20.403 80.0191 20.3729 79.9463 20.3192 79.8925C20.2656 79.8388 20.1927 79.8085 20.1167 79.8084L19.9942 79.808C19.9871 79.808 19.9804 79.8107 19.9754 79.8155C19.9704 79.8203 19.9676 79.8268 19.9676 79.8336Z" fill="#F15922"/>
<path d="M20.8262 80.0152C20.8262 79.8832 20.7635 79.8023 20.6303 79.7941C20.6273 79.7939 20.6263 79.7923 20.6273 79.7893C20.6281 79.7866 20.6289 79.784 20.6297 79.7814C20.6301 79.7801 20.632 79.7795 20.6355 79.7795H21.5925C21.5973 79.7795 21.6018 79.7814 21.6052 79.7846C21.6087 79.7879 21.6107 79.7924 21.6109 79.7972L21.6233 80.0742C21.6235 80.079 21.6213 80.0815 21.6166 80.0815C21.6138 80.0817 21.611 80.0818 21.6082 80.0818C21.6058 80.0818 21.6044 80.0806 21.604 80.0781C21.5642 79.7795 21.2946 79.7881 21.0364 79.8069C21.0252 79.8077 21.0196 79.8138 21.0196 79.8251V80.3326C21.0196 80.3399 21.0231 80.3445 21.0301 80.3463C21.1998 80.3933 21.2981 80.3329 21.325 80.1651C21.326 80.1588 21.3287 80.1546 21.3332 80.1526C21.3402 80.1494 21.3437 80.1517 21.3437 80.1596C21.3425 80.309 21.3424 80.4585 21.3434 80.6081C21.3434 80.6152 21.3403 80.6193 21.3341 80.6206C21.3319 80.6209 21.3297 80.6208 21.3276 80.6203C21.3254 80.6197 21.3234 80.6188 21.3217 80.6174C21.32 80.6161 21.3186 80.6144 21.3175 80.6125C21.3165 80.6106 21.3159 80.6084 21.3157 80.6063C21.3018 80.4403 21.2107 80.3682 21.0422 80.3901C21.0313 80.3915 21.0255 80.3977 21.0247 80.4086C20.9991 80.7416 20.9912 81.1223 21.4609 80.987C21.5981 80.9474 21.677 80.8566 21.6977 80.7145C21.7005 80.6955 21.7069 80.6827 21.717 80.6762C21.7268 80.6699 21.7316 80.6727 21.7314 80.6844L21.7257 81.0119C21.7256 81.0177 21.7233 81.0233 21.7192 81.0274C21.7152 81.0315 21.7097 81.0338 21.704 81.0338H20.6406C20.6301 81.0338 20.6283 81.0298 20.6352 81.0219C20.6386 81.0183 20.6432 81.016 20.649 81.0152C20.7611 81.0016 20.818 80.9361 20.8198 80.8185C20.8238 80.5511 20.826 80.2834 20.8262 80.0152Z" fill="#F15922"/>
<path d="M22.7122 80.4215C22.8891 80.5511 22.8877 80.9207 23.1088 81.017C23.1099 81.0175 23.1108 81.0184 23.1114 81.0195C23.112 81.0207 23.1122 81.022 23.112 81.0232C23.1118 81.0244 23.1112 81.0255 23.1103 81.0263C23.1094 81.027 23.1082 81.0274 23.1071 81.0273L22.8386 81.0255C22.8305 81.0255 22.8249 81.0215 22.8219 81.0134C22.763 80.8562 22.6955 80.7046 22.6196 80.5586C22.57 80.464 22.4957 80.4161 22.3965 80.4149C22.3901 80.4148 22.384 80.4174 22.3794 80.4221C22.3748 80.4267 22.3721 80.4332 22.3718 80.4399C22.3679 80.5459 22.3458 80.8512 22.4101 80.9325C22.4394 80.9695 22.4862 80.9977 22.5507 81.017C22.5511 81.0171 22.5515 81.0173 22.5519 81.0177C22.5522 81.018 22.5525 81.0184 22.5526 81.0189C22.5528 81.0193 22.5528 81.0198 22.5527 81.0203C22.5526 81.0208 22.5524 81.0212 22.5521 81.0216C22.5426 81.0336 22.5316 81.0368 22.5189 81.0309C22.5123 81.0277 22.5052 81.0261 22.4977 81.0261H22.011C22.008 81.0261 22.007 81.0245 22.0079 81.0213C22.0089 81.0182 22.0098 81.0151 22.0107 81.0119C22.0113 81.0101 22.0125 81.0091 22.0144 81.0089C22.1272 81 22.184 80.9396 22.1848 80.8277C22.1867 80.5543 22.1867 80.2808 22.1848 80.0072C22.184 79.877 22.1261 79.8064 22.011 79.7955C22.008 79.7951 22.007 79.7935 22.0079 79.7907C22.0089 79.7879 22.0097 79.785 22.0105 79.7822C22.0106 79.782 22.0118 79.7819 22.0139 79.7819C22.2124 79.7783 22.411 79.7788 22.6096 79.7834C22.8194 79.7883 23.0118 79.9683 22.924 80.1962C22.8905 80.283 22.8205 80.352 22.7139 80.4031C22.7032 80.4083 22.7026 80.4145 22.7122 80.4215ZM22.3696 79.8384L22.3707 80.3705C22.3707 80.3779 22.3734 80.3849 22.3783 80.3901C22.3832 80.3953 22.3899 80.3983 22.3968 80.3983L22.4846 80.398C22.5521 80.3978 22.6167 80.368 22.6644 80.315C22.712 80.262 22.7387 80.1902 22.7386 80.1153V80.0924C22.7386 80.0553 22.7319 80.0185 22.7191 79.9843C22.7062 79.95 22.6874 79.9189 22.6637 79.8927C22.64 79.8665 22.6119 79.8457 22.581 79.8316C22.5501 79.8175 22.517 79.8102 22.4835 79.8103L22.3956 79.8106C22.3887 79.8106 22.3821 79.8135 22.3772 79.8188C22.3723 79.824 22.3696 79.831 22.3696 79.8384Z" fill="#F15922"/>
<path d="M24.8556 80.2173C24.8493 80.2231 24.8455 80.231 24.8449 80.2395C24.8442 80.2479 24.8468 80.2564 24.8522 80.2631C25.0158 80.4668 25.1845 80.6717 25.3582 80.8776C25.4205 80.9515 25.4984 80.9984 25.5917 81.0183C25.5934 81.0187 25.5949 81.0198 25.5959 81.0212C25.5969 81.0226 25.5973 81.0243 25.5971 81.026C25.5969 81.0277 25.5961 81.0293 25.5948 81.0305C25.5936 81.0317 25.5919 81.0324 25.5901 81.0325H24.9947C24.9923 81.0328 24.9899 81.0321 24.988 81.0306C24.9861 81.0291 24.9849 81.027 24.9846 81.0246C24.9844 81.0223 24.9851 81.02 24.9866 81.0182C24.9882 81.0163 24.9904 81.0152 24.9928 81.0149C25.0898 80.9943 25.1341 80.9539 25.0688 80.8615C24.9549 80.7001 24.8316 80.5458 24.6987 80.3986C24.6922 80.3913 24.6849 80.3904 24.6767 80.3959C24.6431 80.4187 24.6243 80.4372 24.6243 80.4806C24.6243 80.6434 24.5581 80.9846 24.796 81.0125C24.7989 81.0127 24.8016 81.0139 24.8036 81.016C24.8055 81.0182 24.8065 81.0209 24.8064 81.0237C24.8062 81.0266 24.8049 81.0292 24.8027 81.0311C24.8005 81.033 24.7977 81.0339 24.7947 81.0338L24.2272 81.0319C24.2241 81.0319 24.2229 81.0304 24.2238 81.0274C24.2248 81.0245 24.2258 81.0218 24.2266 81.0192C24.2266 81.0192 24.2288 81.0189 24.2332 81.0183C24.3552 81.0027 24.4166 80.9296 24.4174 80.799C24.4193 80.5009 24.4199 80.2849 24.419 80.151C24.4181 79.96 24.4394 79.8187 24.2178 79.7914C24.2175 79.7914 24.2173 79.7912 24.2171 79.791C24.2169 79.7908 24.2167 79.7904 24.2166 79.79C24.2166 79.7896 24.2165 79.7892 24.2166 79.7887C24.2166 79.7882 24.2167 79.7876 24.2169 79.7871C24.2175 79.7853 24.2181 79.7834 24.2188 79.7814C24.2192 79.7802 24.2212 79.7795 24.2247 79.7795H24.8186C24.8219 79.7795 24.8231 79.7812 24.8221 79.7844C24.8212 79.787 24.8203 79.7898 24.8192 79.7926C24.8188 79.7942 24.8177 79.7951 24.8158 79.7953C24.5421 79.83 24.6274 80.1784 24.623 80.3679C24.6229 80.3701 24.6235 80.3722 24.6247 80.374C24.6259 80.3759 24.6276 80.3773 24.6297 80.3781C24.6317 80.379 24.634 80.3792 24.6361 80.3788C24.6383 80.3784 24.6403 80.3774 24.6419 80.3758C24.785 80.2341 24.9315 80.0941 25.0813 79.956C25.1269 79.9141 25.1322 79.8716 25.097 79.8285C25.0916 79.8216 25.0845 79.8168 25.0757 79.8142L25.0088 79.7947C25.007 79.7942 25.0054 79.7929 25.0043 79.7913C25.0033 79.7897 25.0029 79.7878 25.0031 79.786C25.0034 79.7841 25.0043 79.7824 25.0058 79.7813C25.0072 79.7801 25.0091 79.7795 25.011 79.7795H25.3933C25.3953 79.7796 25.3971 79.7804 25.3985 79.7816C25.4 79.7829 25.4009 79.7846 25.4011 79.7865C25.4013 79.7884 25.4009 79.7903 25.3998 79.7918C25.3987 79.7934 25.3971 79.7945 25.3952 79.795C25.2091 79.8388 24.9959 80.0882 24.8556 80.2173Z" fill="#F15922"/>
<path d="M27.2201 79.9675C27.2197 80.2325 27.2201 80.4985 27.2214 80.7655C27.222 80.9074 27.2492 81.0058 27.4131 81.0116C27.4179 81.0118 27.4194 81.014 27.4178 81.0182C27.4169 81.021 27.4161 81.0238 27.4153 81.0264C27.4148 81.0276 27.4129 81.0282 27.4093 81.0282H26.989C26.9856 81.0282 26.9845 81.0266 26.9855 81.0234C26.9866 81.0203 26.9876 81.0173 26.9886 81.0143C26.9893 81.0123 26.9906 81.0113 26.9927 81.0113C27.1374 81.0028 27.1744 80.9156 27.1741 80.7845C27.1741 80.5175 27.1744 80.2507 27.175 79.9839C27.1752 79.8632 27.1109 79.8003 26.9821 79.7953C26.9781 79.7951 26.9767 79.7931 26.978 79.7892C26.9788 79.7866 26.9797 79.784 26.9805 79.7814C26.9809 79.7801 26.9829 79.7795 26.9864 79.7795H27.3319C27.3428 79.7795 27.3515 79.7837 27.3579 79.792L28.1003 80.7089C28.1013 80.7101 28.1026 80.7109 28.1041 80.7114C28.1056 80.7118 28.1072 80.7118 28.1087 80.7113C28.1102 80.7108 28.1115 80.7098 28.1124 80.7086C28.1133 80.7073 28.1138 80.7058 28.1138 80.7043C28.1146 80.4759 28.1145 80.2458 28.1134 80.0141C28.1128 79.8775 28.049 79.8046 27.9221 79.7953C27.9179 79.7949 27.9164 79.7928 27.9177 79.7889C27.9185 79.7863 27.9193 79.7838 27.9202 79.7814C27.9206 79.7801 27.9226 79.7795 27.9261 79.7795H28.3543C28.3577 79.7795 28.3588 79.7812 28.3578 79.7844C28.3567 79.7876 28.3557 79.7907 28.3546 79.7938C28.354 79.7956 28.3528 79.7965 28.3509 79.7965C28.2046 79.7989 28.1617 79.8828 28.1589 80.016C28.1518 80.3463 28.1504 80.6772 28.1548 81.0085C28.1549 81.0137 28.1534 81.0188 28.1504 81.0231C28.1474 81.0273 28.143 81.0306 28.138 81.0323C28.133 81.0341 28.1275 81.0342 28.1223 81.0328C28.1172 81.0313 28.1127 81.0284 28.1094 81.0243L27.2352 79.9627C27.2341 79.9614 27.2326 79.9604 27.2309 79.96C27.2293 79.9595 27.2275 79.9595 27.2259 79.9601C27.2243 79.9606 27.2228 79.9616 27.2218 79.9629C27.2208 79.9642 27.2202 79.9659 27.2201 79.9675Z" fill="#F15922"/>
<path d="M31.0545 79.9542C31.0545 79.9523 31.054 79.9505 31.053 79.9491C31.052 79.9477 31.0506 79.9467 31.049 79.9464C31.0475 79.946 31.0458 79.9463 31.0443 79.9472C31.0429 79.948 31.0417 79.9494 31.041 79.9511L30.6458 81.0191C30.6448 81.0216 30.6433 81.0238 30.6413 81.0253C30.6393 81.0269 30.637 81.0277 30.6346 81.0277C30.6322 81.0277 30.6298 81.0269 30.6278 81.0253C30.6259 81.0238 30.6243 81.0216 30.6234 81.0191L30.232 79.9708C30.2315 79.9692 30.2304 79.968 30.2291 79.9672C30.2278 79.9665 30.2263 79.9662 30.2249 79.9666C30.2235 79.9669 30.2222 79.9679 30.2213 79.9692C30.2204 79.9705 30.2199 79.9721 30.2199 79.9738C30.2198 80.2497 30.2202 80.5274 30.2213 80.8067C30.2216 80.9294 30.2738 80.9974 30.3778 81.0109C30.3831 81.0115 30.3851 81.0148 30.3839 81.0206C30.3834 81.0236 30.382 81.026 30.3797 81.0279C30.3779 81.0293 30.3757 81.0299 30.3728 81.0297C30.2571 81.025 30.1413 81.0238 30.0255 81.026C30.0183 81.0262 30.0167 81.0228 30.0207 81.0158C30.0227 81.0125 30.0255 81.0107 30.0291 81.0103C30.1276 80.9987 30.1783 80.935 30.1813 80.8194C30.1855 80.6613 30.187 80.3877 30.1857 79.9986C30.1852 79.8691 30.1294 79.8012 30.0183 79.7949C30.0154 79.7947 30.0143 79.793 30.0152 79.7898C30.0161 79.787 30.0169 79.7842 30.0176 79.7814C30.0179 79.7801 30.0196 79.7795 30.0226 79.7795H30.3518C30.3613 79.7795 30.3678 79.7846 30.3713 79.7946L30.7026 80.739C30.7032 80.7407 30.7042 80.7421 30.7054 80.7431C30.7067 80.7441 30.7081 80.7446 30.7097 80.7446C30.7112 80.7447 30.7126 80.7442 30.7139 80.7432C30.7151 80.7423 30.716 80.7409 30.7166 80.7393L31.0618 79.791C31.0646 79.7834 31.0697 79.7795 31.0771 79.7795H31.3882C31.3961 79.7795 31.3974 79.7829 31.3921 79.7895C31.3891 79.7933 31.3851 79.7956 31.38 79.7962C31.2821 79.8088 31.2324 79.872 31.2308 79.9856C31.2269 80.2643 31.2257 80.5433 31.2271 80.8224C31.2278 80.934 31.281 80.9952 31.3866 81.0061C31.3886 81.0062 31.3906 81.0071 31.3921 81.0086C31.3937 81.0101 31.3948 81.0122 31.3952 81.0144C31.3957 81.0167 31.3955 81.0191 31.3947 81.0212C31.3939 81.0234 31.3926 81.0252 31.3908 81.0263C31.3783 81.0356 31.3659 81.0362 31.3534 81.0282C31.351 81.0266 31.3482 81.0257 31.3453 81.0257H30.896C30.8925 81.0257 30.8908 81.0236 30.8908 81.0194C30.8909 81.0164 30.891 81.0134 30.891 81.0103C30.891 81.0075 30.8923 81.006 30.8947 81.0058C30.9991 80.9961 31.052 80.9291 31.0534 80.8046C31.0567 80.5196 31.0571 80.2361 31.0545 79.9542Z" fill="#F15922"/>
<path d="M33.7107 79.9611C33.7093 79.959 33.7073 79.9575 33.7051 79.9568C33.7028 79.956 33.7004 79.956 33.6982 79.9568C33.6959 79.9577 33.694 79.9592 33.6926 79.9612C33.6912 79.9633 33.6905 79.9658 33.6905 79.9683C33.6896 80.2439 33.6899 80.5209 33.6916 80.7995C33.6924 80.9255 33.7492 80.9963 33.8623 81.012C33.8755 81.014 33.8766 81.0189 33.8653 81.0265C33.8547 81.034 33.8436 81.0357 33.8322 81.0317C33.8272 81.0299 33.8226 81.0285 33.8189 81.0275C33.8152 81.0265 33.8124 81.026 33.8109 81.0259C33.5134 81.0257 33.2159 81.0257 32.9185 81.0259C32.9132 81.0261 32.9093 81.0228 32.9067 81.016C32.9061 81.0146 32.9059 81.0131 32.906 81.0117C32.9061 81.0102 32.9065 81.0088 32.9073 81.0075C32.9081 81.0063 32.9091 81.0053 32.9103 81.0046C32.9115 81.0039 32.9129 81.0036 32.9143 81.0036C33.1792 81.006 32.9909 80.654 32.9446 80.5413C32.941 80.5323 32.9347 80.5278 32.9255 80.5278H32.589C32.5785 80.5276 32.5709 80.5325 32.566 80.5426C32.493 80.6944 32.367 80.9661 32.5873 81.006C32.5918 81.0068 32.5943 81.0101 32.5949 81.016C32.5956 81.0226 32.5929 81.0259 32.5868 81.0259H32.2306C32.2289 81.0258 32.2272 81.0251 32.226 81.0238C32.2247 81.0226 32.2239 81.0209 32.2237 81.019C32.2235 81.0171 32.2239 81.0153 32.2249 81.0137C32.2258 81.0122 32.2273 81.011 32.2289 81.0105C32.3558 80.9785 32.413 80.8457 32.4602 80.7143C32.5685 80.4128 32.6773 80.1081 32.7866 79.8001C32.7883 79.7954 32.7911 79.7912 32.7947 79.7879C32.7983 79.7845 32.8027 79.7822 32.8073 79.7811C32.8335 79.7753 32.8516 79.7856 32.8615 79.8122C32.9902 80.1622 33.1245 80.5098 33.2642 80.855C33.3535 81.0748 33.6526 81.076 33.6543 80.7998C33.6558 80.5484 33.6558 80.2968 33.6543 80.045C33.6537 79.9025 33.6327 79.8013 33.4834 79.7962C33.4817 79.7962 33.4809 79.7953 33.4809 79.7935V79.7847C33.4809 79.7819 33.4822 79.7805 33.4848 79.7805H33.7907C33.8027 79.7805 33.8124 79.7855 33.8199 79.7956L34.4777 80.6999C34.4874 80.7133 34.4927 80.7115 34.4934 80.6944C34.5016 80.4603 34.5018 80.2275 34.494 79.9958C34.4898 79.8717 34.4418 79.801 34.3247 79.7962C34.321 79.796 34.3198 79.794 34.3211 79.7902C34.3218 79.7876 34.3226 79.7849 34.3233 79.7823C34.3237 79.7811 34.3255 79.7805 34.3287 79.7805H34.7053C34.7083 79.7805 34.7093 79.7821 34.7084 79.7853C34.7074 79.7886 34.7064 79.7918 34.7053 79.795C34.7047 79.797 34.7035 79.798 34.7016 79.798C34.5546 79.8092 34.533 79.9121 34.5327 80.0556C34.5319 80.3716 34.5319 80.6892 34.5324 81.0084C34.5324 81.0118 34.5314 81.0151 34.5295 81.0179C34.5277 81.0207 34.525 81.0227 34.522 81.0238C34.5039 81.03 34.4888 81.0251 34.4768 81.009C34.2174 80.661 33.962 80.3117 33.7107 79.9611ZM32.5834 80.4749C32.5828 80.4766 32.5826 80.4785 32.5828 80.4803C32.583 80.4821 32.5836 80.4838 32.5846 80.4853C32.5856 80.4867 32.5869 80.488 32.5884 80.4888C32.5899 80.4896 32.5915 80.49 32.5932 80.49H32.9103C32.912 80.49 32.9137 80.4896 32.9152 80.4888C32.9167 80.488 32.918 80.4867 32.9189 80.4853C32.9199 80.4838 32.9205 80.4821 32.9207 80.4803C32.9209 80.4785 32.9207 80.4766 32.9202 80.4749L32.7613 80.0399C32.7605 80.0379 32.7592 80.0361 32.7575 80.0349C32.7558 80.0337 32.7538 80.0331 32.7518 80.0331C32.7497 80.0331 32.7478 80.0337 32.7461 80.0349C32.7444 80.0361 32.743 80.0379 32.7422 80.0399L32.5834 80.4749Z" fill="#F15922"/>
<path d="M38.1835 80.3766C38.1835 80.3782 38.184 80.3798 38.185 80.3812C38.1859 80.3825 38.1872 80.3836 38.1888 80.3842C38.1903 80.3848 38.192 80.3849 38.1936 80.3845C38.1952 80.3841 38.1967 80.3832 38.1978 80.382C38.3343 80.241 38.4749 80.1037 38.6196 79.9702C38.6486 79.9432 38.6632 79.9107 38.6634 79.8726C38.6634 79.8617 38.6593 79.8527 38.6509 79.8454C38.6207 79.8192 38.585 79.8045 38.5438 79.8013C38.54 79.8011 38.5386 79.7992 38.5399 79.7956C38.5407 79.7929 38.5415 79.7903 38.5423 79.7877C38.5427 79.7865 38.5446 79.7859 38.5481 79.7859H38.9212C38.934 79.7859 38.936 79.7905 38.9273 79.7998C38.9234 79.8036 38.9186 79.806 38.9127 79.807C38.7693 79.8291 38.511 80.124 38.4026 80.2325C38.3939 80.2413 38.3934 80.2507 38.4011 80.2606C38.5405 80.439 38.6823 80.6191 38.8265 80.8008C38.8927 80.8842 38.9599 80.9469 39.0283 80.9888C39.0511 81.0027 39.0886 81.0048 39.1151 81.019C39.1319 81.0278 39.1308 81.0323 39.1117 81.0323H38.5243C38.5181 81.0323 38.5159 81.0293 38.518 81.0235C38.519 81.0209 38.5198 81.0184 38.5204 81.016C38.5218 81.0117 38.5249 81.0098 38.5295 81.0102C38.6064 81.0175 38.6445 80.9815 38.6436 80.9023C38.6434 80.8953 38.641 80.8884 38.6366 80.8827L38.2742 80.4153C38.2679 80.4072 38.2593 80.4013 38.2495 80.3983C38.2398 80.3953 38.2293 80.3954 38.2196 80.3985C38.2098 80.4017 38.2013 80.4077 38.1952 80.4159C38.189 80.424 38.1856 80.4338 38.1853 80.444C38.1801 80.6268 38.108 80.9897 38.3707 81.0169C38.3739 81.0173 38.375 81.019 38.374 81.022C38.373 81.0248 38.3721 81.0276 38.3713 81.0305C38.3709 81.0317 38.3689 81.0323 38.3655 81.0323H37.1825C37.18 81.0325 37.1775 81.0318 37.1756 81.0303C37.1736 81.0287 37.1723 81.0264 37.172 81.024C37.1718 81.0215 37.1725 81.019 37.1741 81.017C37.1756 81.0151 37.1779 81.0138 37.1804 81.0135L37.2531 80.9978C37.2617 80.996 37.2695 80.9925 37.2766 80.9872C37.4004 80.8948 37.2486 80.6392 37.2121 80.5503C37.21 80.5454 37.2065 80.5412 37.2021 80.5383C37.1976 80.5353 37.1924 80.5337 37.1871 80.5337H36.814C36.8051 80.5337 36.7988 80.5377 36.7951 80.5458C36.7294 80.6942 36.5702 80.9519 36.8292 81.0193C36.8307 81.0197 36.832 81.0207 36.8329 81.022C36.8337 81.0233 36.8341 81.0249 36.8339 81.0264C36.8337 81.0279 36.833 81.0294 36.8319 81.0305C36.8307 81.0315 36.8292 81.0322 36.8277 81.0323H36.1609C36.1526 81.0323 36.1467 81.0284 36.1432 81.0208C36.097 80.914 36.0233 80.765 35.9223 80.5736C35.8677 80.4703 35.7865 80.4192 35.6785 80.4204C35.6666 80.4204 35.6604 80.4263 35.66 80.4382C35.652 80.6377 35.5878 80.9954 35.8377 81.0129C35.8452 81.0135 35.8483 81.0176 35.8471 81.025C35.8461 81.0309 35.843 81.0338 35.8377 81.0338C35.6516 81.031 35.4655 81.0309 35.2792 81.0335C35.2721 81.0335 35.2689 81.03 35.2695 81.0229C35.2701 81.0163 35.2729 81.0127 35.278 81.0123C35.4113 80.999 35.4469 80.9256 35.4527 80.7981C35.4643 80.5294 35.4636 80.2607 35.4506 79.992C35.4448 79.8732 35.3873 79.8034 35.2671 79.8022C35.2648 79.802 35.2633 79.8009 35.2625 79.7989C35.2615 79.7959 35.2611 79.7933 35.2613 79.7913C35.2617 79.7885 35.2632 79.7871 35.2658 79.7871C35.4795 79.7839 35.693 79.784 35.9065 79.7874C36.3137 79.7937 36.4226 80.3017 36.0115 80.4008C35.9948 80.4046 35.9937 80.4111 36.0081 80.4204C36.1323 80.4987 36.2269 80.7588 36.3134 80.9093C36.4695 81.1812 36.6417 80.841 36.691 80.7114C36.8071 80.4054 36.9228 80.103 37.0383 79.8043C37.0411 79.7971 37.0461 79.7909 37.0525 79.7865C37.0589 79.7821 37.0665 79.7796 37.0742 79.7795C37.082 79.7794 37.0896 79.7817 37.0961 79.7859C37.1025 79.7902 37.1075 79.7963 37.1104 79.8034C37.2567 80.1569 37.4064 80.5158 37.5596 80.88C37.6384 81.0679 37.9726 81.0821 37.9796 80.8186C37.9838 80.6561 37.9851 80.3875 37.9832 80.0128C37.9826 79.8815 37.9181 79.8106 37.7897 79.8001C37.7866 79.7997 37.7856 79.7982 37.7866 79.7956C37.7875 79.7931 37.7883 79.7907 37.7891 79.7883C37.7895 79.7867 37.7905 79.7859 37.7921 79.7859C37.9832 79.7857 38.1744 79.7859 38.3655 79.7865C38.3689 79.7865 38.3714 79.7884 38.3728 79.7922C38.3748 79.7971 38.3733 79.7998 38.3682 79.8004C38.1056 79.8369 38.1804 80.1965 38.1835 80.3766ZM35.6533 79.8406L35.6581 80.3766C35.6582 80.3806 35.659 80.3845 35.6606 80.3881C35.6621 80.3918 35.6644 80.3951 35.6673 80.3979C35.6701 80.4006 35.6735 80.4028 35.6772 80.4043C35.6809 80.4058 35.6849 80.4065 35.6889 80.4065L35.7625 80.4059C35.801 80.4056 35.839 80.3976 35.8744 80.3824C35.9097 80.3673 35.9418 80.3453 35.9687 80.3177C35.9957 80.2901 36.0169 80.2574 36.0313 80.2215C36.0457 80.1857 36.0529 80.1473 36.0525 80.1086V80.1013C36.0518 80.0232 36.0203 79.9486 35.9649 79.8938C35.9094 79.8391 35.8347 79.8087 35.757 79.8095L35.6834 79.8101C35.6794 79.8101 35.6754 79.8109 35.6718 79.8125C35.6681 79.814 35.6648 79.8163 35.662 79.8191C35.6592 79.822 35.657 79.8253 35.6555 79.829C35.654 79.8327 35.6532 79.8366 35.6533 79.8406ZM36.8186 80.482C36.8179 80.4837 36.8177 80.4854 36.8179 80.4871C36.8181 80.4889 36.8187 80.4905 36.8197 80.492C36.8207 80.4934 36.822 80.4946 36.8236 80.4954C36.8251 80.4962 36.8268 80.4966 36.8286 80.4965L37.1737 80.4953C37.1754 80.4953 37.1771 80.4949 37.1787 80.4941C37.1802 80.4932 37.1815 80.4921 37.1824 80.4906C37.1834 80.4892 37.184 80.4876 37.1842 80.4859C37.1843 80.4842 37.1841 80.4824 37.1835 80.4808L37.0094 80.0436C37.0086 80.0417 37.0072 80.04 37.0055 80.0388C37.0037 80.0376 37.0016 80.037 36.9995 80.037C36.9974 80.037 36.9953 80.0376 36.9935 80.0388C36.9917 80.04 36.9904 80.0417 36.9896 80.0436L36.8186 80.482Z" fill="#F15922"/>
<path d="M39.9708 80.0085C40.0286 79.8988 39.9786 79.8069 39.8747 79.7939C39.8723 79.7937 39.8715 79.7921 39.8724 79.7893C39.8731 79.7867 39.8738 79.7841 39.8744 79.7814C39.8748 79.7802 39.8764 79.7796 39.8794 79.7796H40.2259C40.2272 79.7794 40.2285 79.7798 40.2296 79.7807C40.2306 79.7816 40.2313 79.783 40.2314 79.7846C40.2315 79.7862 40.2311 79.7878 40.2303 79.7891C40.2295 79.7903 40.2282 79.7912 40.2269 79.7914C40.0543 79.8436 39.889 80.2213 39.806 80.3926C39.7622 80.4829 39.7824 80.6633 39.783 80.767C39.7835 80.904 39.8037 81.0023 39.9333 81.0126C39.9435 81.0134 39.9457 81.0187 39.94 81.0286C39.9376 81.0329 39.9339 81.0345 39.9289 81.0335C39.7913 81.0089 39.6062 81.0295 39.4634 81.0305C39.4577 81.0305 39.4545 81.0272 39.4538 81.0208C39.453 81.0139 39.4551 81.0101 39.4603 81.0095C39.6565 80.9895 39.6091 80.7137 39.6073 80.5148C39.6062 80.4093 39.3377 79.9918 39.2753 79.88C39.2462 79.8284 39.1977 79.7997 39.1296 79.7939C39.1272 79.7937 39.1264 79.7921 39.1273 79.7893C39.128 79.7867 39.1287 79.7841 39.1294 79.7814C39.1297 79.7802 39.1314 79.7796 39.1343 79.7796H39.6262C39.6362 79.7796 39.6377 79.7839 39.6308 79.7923C39.6289 79.7946 39.6268 79.7966 39.6244 79.7984C39.6211 79.801 39.6175 79.802 39.6137 79.8014C39.4914 79.7845 39.4956 79.9036 39.543 79.9915C39.614 80.1231 39.6841 80.2533 39.7534 80.382C39.7543 80.3837 39.7556 80.3851 39.7571 80.386C39.7586 80.387 39.7603 80.3875 39.762 80.3875C39.7637 80.3875 39.7654 80.387 39.7669 80.386C39.7683 80.3851 39.7696 80.3837 39.7705 80.382C39.8384 80.2577 39.9052 80.1332 39.9708 80.0085Z" fill="#F15922"/>
<path d="M40.6136 80.5442C40.5554 80.6888 40.383 80.9586 40.647 81.0159C40.6492 81.0164 40.6511 81.0177 40.6524 81.0195C40.6537 81.0213 40.6543 81.0235 40.654 81.0256C40.6538 81.0278 40.6528 81.0298 40.6512 81.0313C40.6495 81.0328 40.6474 81.0337 40.6452 81.0338L40.2341 81.031C40.2314 81.031 40.2304 81.0297 40.2313 81.0271C40.2323 81.0243 40.2333 81.0213 40.2344 81.0183C40.2348 81.0167 40.2359 81.0157 40.2378 81.0153C40.3852 80.9907 40.4493 80.8486 40.4997 80.7218C40.6217 80.4161 40.7431 80.1108 40.8639 79.8061C40.8669 79.7983 40.8722 79.7916 40.8793 79.7869C40.8863 79.7822 40.8946 79.7796 40.9032 79.7795C40.9118 79.7795 40.9202 79.7819 40.9273 79.7865C40.9345 79.7912 40.9401 79.7977 40.9433 79.8055C41.0931 80.1634 41.2472 80.5238 41.4057 80.8868C41.4552 80.9992 41.5137 80.9716 41.6069 81.0168C41.6086 81.0177 41.61 81.0191 41.6108 81.0209C41.6116 81.0226 41.6118 81.0245 41.6113 81.0263C41.6109 81.0281 41.6099 81.0297 41.6084 81.0309C41.6069 81.032 41.605 81.0326 41.6031 81.0326L41.0137 81.0317C41.0113 81.0315 41.0091 81.0306 41.0074 81.029C41.0056 81.0274 41.0045 81.0253 41.0042 81.0231C41.0038 81.0208 41.0043 81.0185 41.0055 81.0165C41.0068 81.0145 41.0087 81.013 41.0109 81.0123C41.1288 80.9777 41.2068 80.9613 41.1501 80.8104C41.1165 80.7204 41.0803 80.6318 41.0412 80.5445C41.0375 80.536 41.0308 80.5318 41.0212 80.5318H40.6323C40.6232 80.5318 40.6169 80.5359 40.6136 80.5442ZM40.6392 80.4818C40.6387 80.4832 40.6385 80.4847 40.6387 80.4862C40.6389 80.4877 40.6394 80.4892 40.6403 80.4904C40.6412 80.4917 40.6424 80.4927 40.6438 80.4934C40.6452 80.4941 40.6467 80.4945 40.6483 80.4945L41.0065 80.4933C41.0081 80.4933 41.0096 80.4929 41.011 80.4922C41.0124 80.4915 41.0136 80.4905 41.0145 80.4892C41.0154 80.488 41.016 80.4865 41.0162 80.485C41.0163 80.4835 41.0162 80.482 41.0156 80.4805L40.8348 80.0377C40.834 80.036 40.8328 80.0345 40.8312 80.0335C40.8296 80.0325 40.8277 80.032 40.8258 80.032C40.8239 80.032 40.8221 80.0325 40.8205 80.0335C40.8189 80.0345 40.8177 80.036 40.8169 80.0377L40.6392 80.4818Z" fill="#F15922"/>
<path d="M42.0511 79.802C41.8586 79.8057 41.6626 79.8172 41.6334 80.0918C41.6325 80.0995 41.6305 80.1049 41.6274 80.1079C41.6254 80.1097 41.6232 80.1111 41.6208 80.1119C41.6146 80.1137 41.6116 80.111 41.6118 80.1037L41.6195 79.7969C41.6196 79.7922 41.6213 79.7878 41.6242 79.7846C41.6271 79.7813 41.631 79.7795 41.635 79.7795H42.6865C42.6969 79.7795 42.7023 79.7856 42.7029 79.7978L42.7163 80.0991C42.7164 80.1018 42.7156 80.1044 42.7142 80.1066C42.7128 80.1087 42.7107 80.1102 42.7084 80.1108C42.7061 80.1113 42.7038 80.111 42.7017 80.1097C42.6996 80.1085 42.698 80.1065 42.6971 80.104C42.6447 79.9553 42.6365 79.8556 42.4714 79.8221C42.3948 79.8065 42.3241 79.8001 42.2591 79.803C42.2498 79.8034 42.2451 79.8089 42.2449 79.8197C42.2419 80.1414 42.2395 80.4623 42.2378 80.7823C42.2371 80.9232 42.2849 80.9982 42.3813 81.0073C42.3845 81.0078 42.3868 81.0095 42.3878 81.0121C42.3888 81.0146 42.3884 81.0179 42.3867 81.0213C42.3851 81.0246 42.3822 81.0277 42.3787 81.03C42.3752 81.0324 42.3713 81.0337 42.3679 81.0338H41.9089C41.9062 81.0338 41.9054 81.0323 41.9062 81.0292C41.9071 81.0258 41.9081 81.0224 41.9091 81.0192C41.9097 81.0172 41.9108 81.0161 41.9126 81.0161C42.0506 81.0049 42.0706 80.9012 42.0711 80.7568C42.072 80.4444 42.0721 80.1338 42.0714 79.8248C42.0714 79.8218 42.0708 79.8188 42.0698 79.816C42.0688 79.8133 42.0673 79.8107 42.0654 79.8086C42.0635 79.8065 42.0613 79.8048 42.0588 79.8037C42.0564 79.8026 42.0537 79.802 42.0511 79.802Z" fill="#F15922"/>
<path d="M43.6226 80.5452C43.5684 80.691 43.4036 80.9566 43.6552 81.0179C43.6572 81.0182 43.6591 81.0192 43.6604 81.0209C43.6617 81.0225 43.6623 81.0247 43.662 81.0267C43.6618 81.0288 43.6607 81.0307 43.6591 81.0321C43.6575 81.0334 43.6555 81.034 43.6534 81.0337H43.2752C43.2737 81.0336 43.2723 81.0329 43.2712 81.0319C43.2701 81.0308 43.2694 81.0294 43.2691 81.0279C43.2689 81.0263 43.2692 81.0248 43.2699 81.0234C43.2706 81.0221 43.2718 81.021 43.2731 81.0204C43.3676 80.9878 43.4335 80.9242 43.4708 80.8297C43.6054 80.4876 43.735 80.1467 43.8597 79.8069C43.8626 79.7989 43.8678 79.7921 43.8746 79.7872C43.8814 79.7823 43.8895 79.7796 43.8978 79.7795C43.9061 79.7794 43.9142 79.7819 43.9211 79.7866C43.928 79.7913 43.9334 79.7981 43.9365 79.806C44.0726 80.1517 44.2131 80.4982 44.358 80.8455C44.4039 80.9557 44.4552 81.0113 44.5705 81.017C44.7338 81.0252 44.78 80.9244 44.78 80.7708C44.7798 80.5287 44.7796 80.2868 44.7794 80.0449C44.7794 79.9022 44.754 79.8029 44.5983 79.7981C44.5938 79.7979 44.5923 79.7956 44.5939 79.7914C44.5947 79.7886 44.5955 79.7858 44.5963 79.7832C44.5967 79.7822 44.5979 79.7817 44.6001 79.7817C44.7908 79.7811 44.9815 79.7811 45.1722 79.7817C45.3527 79.782 45.5335 79.8491 45.5682 80.0361C45.602 80.2198 45.4982 80.3567 45.323 80.398C45.321 80.3985 45.3192 80.3997 45.3178 80.4013C45.3165 80.403 45.3156 80.405 45.3154 80.4071C45.3152 80.4093 45.3156 80.4114 45.3166 80.4133C45.3176 80.4152 45.3191 80.4167 45.321 80.4177C45.3593 80.4363 45.3891 80.4685 45.4105 80.5143C45.5003 80.7064 45.6076 80.9569 45.7389 81.0185C45.7602 81.0287 45.7591 81.0337 45.7356 81.0337H45.4701C45.4612 81.0337 45.4549 81.0295 45.4514 81.021C45.4013 80.9035 45.2374 80.4505 45.0702 80.4256C45.0467 80.4222 45.0228 80.4198 44.9985 80.4186C44.9868 80.418 44.9809 80.4237 44.9807 80.4356C44.9793 80.5188 44.9789 80.6015 44.9795 80.6837C44.9807 80.8622 44.9644 80.9946 45.1627 81.0185C45.1657 81.019 45.1667 81.0207 45.166 81.0237C45.165 81.0263 45.1641 81.0291 45.1633 81.0319C45.1629 81.0331 45.161 81.0337 45.1576 81.0337H44.0005C43.9918 81.0337 43.9881 81.0294 43.9892 81.0207C43.99 81.015 43.9938 81.012 44.0005 81.0116C44.2747 80.9943 44.0802 80.6697 44.0304 80.5474C44.0265 80.5376 44.0194 80.5328 44.0091 80.5328H43.6401C43.6314 80.5328 43.6256 80.5369 43.6226 80.5452ZM44.9768 79.8357L44.978 80.3767C44.978 80.3837 44.9807 80.3903 44.9855 80.3952C44.9903 80.4001 44.9968 80.4028 45.0035 80.4028L45.091 80.4025C45.1621 80.4024 45.2302 80.3734 45.2804 80.3219C45.3305 80.2705 45.3587 80.2007 45.3586 80.1281V80.0831C45.3586 80.0471 45.3516 80.0115 45.338 79.9782C45.3245 79.9449 45.3047 79.9147 45.2797 79.8893C45.2548 79.8638 45.2251 79.8437 45.1925 79.83C45.1599 79.8162 45.125 79.8092 45.0898 79.8093L45.0023 79.8096C44.9956 79.8096 44.9891 79.8124 44.9843 79.8173C44.9795 79.8221 44.9768 79.8288 44.9768 79.8357ZM43.6469 80.4818C43.6463 80.4833 43.6461 80.4849 43.6463 80.4865C43.6464 80.488 43.647 80.4896 43.6479 80.4909C43.6487 80.4922 43.6499 80.4933 43.6513 80.494C43.6527 80.4948 43.6542 80.4952 43.6558 80.4951L43.9961 80.4945C43.9976 80.4945 43.9992 80.4942 44.0006 80.4934C44.0019 80.4927 44.0031 80.4916 44.004 80.4903C44.0049 80.489 44.0054 80.4874 44.0056 80.4859C44.0058 80.4843 44.0055 80.4827 44.005 80.4812L43.8339 80.0388C43.8332 80.0371 43.832 80.0356 43.8304 80.0345C43.8289 80.0334 43.8271 80.0329 43.8252 80.0329C43.8233 80.0329 43.8215 80.0334 43.8199 80.0345C43.8184 80.0356 43.8172 80.0371 43.8164 80.0388L43.6469 80.4818Z" fill="#F15922"/>
<path d="M46.5629 80.377C46.6409 80.2743 47.0414 79.8175 46.6918 79.795C46.6875 79.7948 46.686 79.7928 46.6873 79.789C46.6881 79.7865 46.689 79.784 46.6899 79.7814C46.6903 79.7801 46.6924 79.7795 46.696 79.7795H47.1264C47.1284 79.7797 47.1303 79.7805 47.1317 79.7818C47.1331 79.7831 47.134 79.7848 47.1342 79.7867C47.1344 79.7885 47.1339 79.7904 47.1328 79.7919C47.1316 79.7934 47.13 79.7945 47.1281 79.795C46.9219 79.8382 46.7126 80.2251 46.6029 80.3928C46.5852 80.4195 46.5757 80.4502 46.5753 80.4816C46.572 80.6496 46.5013 80.9897 46.7661 81.0165C46.7683 81.0169 46.7702 81.0181 46.7715 81.0197C46.7728 81.0214 46.7735 81.0234 46.7734 81.0255C46.7733 81.0276 46.7724 81.0295 46.7709 81.031C46.7694 81.0325 46.7674 81.0335 46.7652 81.0338L46.1712 81.0329C46.1634 81.0329 46.1602 81.0293 46.1618 81.0222C46.1624 81.0192 46.164 81.0166 46.1666 81.0143C46.1686 81.0127 46.1715 81.0119 46.1754 81.0119C46.2764 81.0087 46.3354 80.9644 46.3523 80.8791C46.3662 80.8089 46.387 80.5594 46.338 80.467C46.2059 80.2178 46.0345 80.0072 45.9466 79.8883C45.9035 79.8302 45.8404 79.7988 45.7573 79.7941C45.7541 79.7939 45.753 79.7923 45.7541 79.7893C45.7549 79.7866 45.7558 79.784 45.7567 79.7814C45.7571 79.7801 45.7592 79.7795 45.7628 79.7795H46.3789C46.3811 79.7797 46.3832 79.7806 46.3848 79.7821C46.3864 79.7835 46.3874 79.7855 46.3876 79.7876C46.3878 79.7896 46.3872 79.7917 46.3859 79.7934C46.3846 79.7951 46.3827 79.7963 46.3805 79.7969L46.2994 79.809C46.2886 79.8106 46.279 79.8146 46.2708 79.8209C46.2256 79.8557 46.2205 79.9008 46.2556 79.9561C46.346 80.099 46.4406 80.2392 46.5393 80.3767C46.547 80.3875 46.5549 80.3876 46.5629 80.377Z" fill="#F15922"/>
<path d="M47.2698 81.0338L46.8681 81.031C46.8657 81.0312 46.8633 81.0305 46.8614 81.029C46.8596 81.0275 46.8584 81.0254 46.8582 81.023C46.858 81.0207 46.8587 81.0184 46.8603 81.0166C46.8619 81.0148 46.8641 81.0137 46.8665 81.0135C47.0085 80.9884 47.0674 80.8573 47.1141 80.7418C47.2419 80.4263 47.3677 80.1137 47.4914 79.8041C47.4942 79.797 47.4991 79.7908 47.5056 79.7864C47.512 79.782 47.5197 79.7796 47.5276 79.7795C47.5355 79.7794 47.5432 79.7817 47.5498 79.7859C47.5564 79.7901 47.5615 79.7961 47.5644 79.8032C47.694 80.108 47.8268 80.417 47.9631 80.73C48.0358 80.8975 48.0546 80.9875 48.2313 81.0153C48.2376 81.0161 48.2399 81.0198 48.2382 81.0262C48.2379 81.0278 48.2369 81.0293 48.2356 81.0303C48.2342 81.0314 48.2325 81.0319 48.2307 81.032H47.6362C47.6276 81.032 47.6245 81.028 47.6268 81.0202C47.6278 81.0165 47.629 81.013 47.6302 81.0096C47.6302 81.0092 47.6304 81.009 47.6309 81.009C47.928 81.0084 47.7199 80.6666 47.6691 80.5496C47.6643 80.5388 47.6557 80.5333 47.6434 80.5333H47.2604C47.251 80.5333 47.2443 80.5374 47.2404 80.5457C47.163 80.7092 47.0172 80.9464 47.2723 81.0168C47.2744 81.0175 47.2763 81.0188 47.2775 81.0206C47.2787 81.0224 47.2791 81.0246 47.2788 81.0266C47.2785 81.0287 47.2774 81.0306 47.2758 81.0319C47.2741 81.0332 47.272 81.0339 47.2698 81.0338ZM47.2645 80.4804C47.2638 80.4822 47.2635 80.4841 47.2637 80.486C47.264 80.4878 47.2647 80.4896 47.2658 80.4912C47.2669 80.4927 47.2684 80.494 47.2701 80.4949C47.2719 80.4957 47.2738 80.4962 47.2758 80.4961L47.6287 80.4949C47.6306 80.4949 47.6325 80.4944 47.6342 80.4936C47.6359 80.4927 47.6374 80.4914 47.6384 80.4899C47.6395 80.4883 47.6402 80.4865 47.6404 80.4847C47.6406 80.4828 47.6404 80.481 47.6396 80.4792L47.4616 80.0449C47.4607 80.0428 47.4592 80.0409 47.4572 80.0396C47.4552 80.0383 47.4528 80.0377 47.4504 80.0377C47.448 80.0377 47.4456 80.0385 47.4437 80.0398C47.4417 80.0412 47.4402 80.0431 47.4394 80.0452L47.2645 80.4804Z" fill="#F15922"/>
<path d="M49.5892 80.3559C49.99 80.4187 49.9944 80.9844 49.6187 81.0229C49.4966 81.0354 49.2223 81.0371 48.7958 81.028C48.7921 81.028 48.7908 81.0262 48.792 81.0226C48.7928 81.0202 48.7936 81.0176 48.7944 81.015C48.7951 81.0132 48.7965 81.0122 48.7985 81.012C48.9151 81.0027 48.9739 80.9398 48.9751 80.8234C48.9777 80.5489 48.9783 80.2742 48.9769 79.9991C48.9761 79.8736 48.9154 79.8057 48.7947 79.7954C48.7913 79.7952 48.7901 79.7934 48.7911 79.7899C48.7919 79.7873 48.7927 79.7849 48.7935 79.7827C48.7941 79.7808 48.7952 79.7799 48.797 79.7799C49.0366 79.7793 49.2762 79.7794 49.5156 79.7802C49.8216 79.7811 49.8878 80.2529 49.588 80.3329C49.5855 80.3336 49.5833 80.3352 49.5817 80.3374C49.5802 80.3396 49.5794 80.3422 49.5796 80.3449C49.5797 80.3476 49.5807 80.3501 49.5825 80.3521C49.5842 80.3541 49.5866 80.3555 49.5892 80.3559ZM49.1698 79.8281L49.1662 80.3259C49.1662 80.3295 49.1668 80.3331 49.1681 80.3365C49.1695 80.3398 49.1714 80.3428 49.1739 80.3454C49.1764 80.348 49.1793 80.35 49.1826 80.3514C49.1858 80.3528 49.1893 80.3535 49.1928 80.3535L49.3177 80.3544C49.3854 80.3548 49.4505 80.3284 49.4987 80.2809C49.5469 80.2335 49.5742 80.1689 49.5747 80.1013L49.575 80.0588C49.5754 79.9912 49.549 79.9262 49.5014 79.878C49.4538 79.8299 49.389 79.8026 49.3213 79.8021L49.1963 79.8012C49.1893 79.8012 49.1826 79.804 49.1776 79.809C49.1727 79.8141 49.1698 79.8209 49.1698 79.8281ZM49.2554 80.9789C49.51 81.1002 49.7466 80.8601 49.6695 80.5897C49.6039 80.3581 49.3904 80.3693 49.1875 80.3793C49.1772 80.3797 49.1719 80.3851 49.1715 80.3956C49.1665 80.5212 49.129 80.9189 49.2554 80.9789Z" fill="#F15922"/>
<path d="M49.9459 79.7796H50.4404C50.4422 79.7794 50.4441 79.78 50.4455 79.7813C50.4469 79.7825 50.4478 79.7843 50.448 79.7863C50.4481 79.7882 50.4475 79.7901 50.4463 79.7916C50.4451 79.7931 50.4434 79.794 50.4416 79.7942C50.3295 79.8118 50.2723 79.8787 50.2699 79.9948C50.267 80.1284 50.2665 80.3986 50.2685 80.8054C50.2691 80.9299 50.3249 80.9999 50.436 81.0155C50.4409 81.0163 50.4442 81.0179 50.4459 81.0201C50.4475 81.0223 50.4482 81.0249 50.448 81.0277C50.4474 81.0318 50.4451 81.0338 50.4413 81.0338H49.9046C49.898 81.0338 49.8951 81.0304 49.8959 81.0237C49.8967 81.0181 49.8996 81.0149 49.9046 81.0143C50.0614 80.9994 50.0753 80.8973 50.0762 80.7495C50.078 80.4973 50.0778 80.245 50.0756 79.9924C50.0749 79.889 50.0307 79.8257 49.9433 79.8024C49.9406 79.8017 49.9383 79.8001 49.9368 79.7977C49.9352 79.7954 49.9345 79.7926 49.9348 79.7897C49.9352 79.7869 49.9365 79.7843 49.9385 79.7824C49.9405 79.7806 49.9432 79.7795 49.9459 79.7796Z" fill="#F15922"/>
<path d="M52.6399 80.5318H52.2652C52.2563 80.5318 52.2501 80.5357 52.2465 80.5436C52.1719 80.7047 52.0306 80.9643 52.2715 81.0123C52.2727 81.0124 52.2739 81.0128 52.2749 81.0134C52.276 81.0139 52.2769 81.0147 52.2777 81.0156C52.2784 81.0165 52.279 81.0176 52.2793 81.0187C52.2797 81.0199 52.2798 81.0211 52.2797 81.0223C52.2796 81.0235 52.2792 81.0246 52.2787 81.0257C52.2781 81.0267 52.2773 81.0277 52.2764 81.0284C52.2755 81.0292 52.2744 81.0298 52.2733 81.0301C52.2721 81.0304 52.2709 81.0306 52.2697 81.0304H51.6148C51.6105 81.0304 51.6063 81.0292 51.6027 81.0268C51.5992 81.0244 51.5964 81.0211 51.5948 81.0171C51.5284 80.856 51.4532 80.701 51.3692 80.5524C51.3169 80.4599 51.2386 80.416 51.1343 80.4206C51.1232 80.4212 51.1175 80.4271 51.1171 80.4381C51.1132 80.6149 51.0401 80.9788 51.2959 81.0144C51.3019 81.0152 51.3048 81.0187 51.3046 81.0247C51.3042 81.0309 51.3012 81.034 51.2956 81.0338C51.0222 81.0309 50.8371 81.0297 50.7402 81.0301C50.7336 81.0303 50.7308 81.027 50.7318 81.0202C50.7328 81.0145 50.7357 81.0114 50.7405 81.0108C50.8755 80.996 50.9115 80.9171 50.9118 80.7866C50.9126 80.5154 50.9128 80.2441 50.9124 79.9727C50.9122 79.8613 50.8506 79.8038 50.7276 79.8002C50.7255 79.8002 50.7243 79.7992 50.7239 79.7972C50.7235 79.7941 50.7235 79.7915 50.7239 79.7893C50.7243 79.7867 50.7259 79.7854 50.7288 79.7854C50.9405 79.7818 51.1522 79.7829 51.3638 79.7887C51.782 79.8005 51.8657 80.3088 51.4662 80.3973C51.4635 80.3979 51.4611 80.3993 51.4593 80.4013C51.4575 80.4034 51.4564 80.4059 51.4562 80.4086C51.456 80.4113 51.4566 80.4141 51.458 80.4164C51.4594 80.4187 51.4616 80.4205 51.4641 80.4215C51.5737 80.4665 51.7425 80.8733 51.7893 80.9455C51.8962 81.109 52.0445 80.9277 52.0922 80.808C52.2279 80.469 52.3595 80.1344 52.4871 79.8044C52.4899 79.7972 52.4947 79.7909 52.5011 79.7865C52.5074 79.782 52.515 79.7796 52.5227 79.7795C52.5305 79.7795 52.5381 79.7818 52.5445 79.7861C52.5509 79.7904 52.5559 79.7966 52.5587 79.8038C52.6878 80.1211 52.8157 80.43 52.9425 80.7304C53.0129 80.8975 53.0325 80.9939 53.2046 81.0147C53.2083 81.0153 53.2095 81.0173 53.2083 81.0208C53.2072 81.0234 53.2063 81.026 53.2055 81.0286C53.2051 81.0298 53.2032 81.0304 53.1998 81.0304H52.6155C52.6147 81.0304 52.6139 81.0302 52.6132 81.0299C52.6125 81.0295 52.6119 81.029 52.6114 81.0283C52.6109 81.0277 52.6106 81.0269 52.6105 81.0262C52.6104 81.0254 52.6104 81.0246 52.6107 81.0238C52.6117 81.0208 52.6127 81.0179 52.6137 81.015C52.6145 81.0124 52.6162 81.0111 52.6188 81.0111C52.9117 81.0084 52.7037 80.6654 52.6584 80.5445C52.6551 80.536 52.649 80.5318 52.6399 80.5318ZM51.1135 79.8325L51.1153 80.3831C51.1153 80.3884 51.1174 80.3935 51.1211 80.3972C51.1249 80.401 51.1299 80.4031 51.1352 80.4031L51.2267 80.4028C51.2639 80.4027 51.3006 80.395 51.3349 80.3802C51.3692 80.3655 51.4003 80.3439 51.4265 80.3167C51.4527 80.2896 51.4735 80.2574 51.4876 80.2219C51.5017 80.1865 51.5089 80.1485 51.5088 80.1102V80.103C51.5085 80.0257 51.4785 79.9516 51.4252 79.8971C51.372 79.8425 51.2999 79.812 51.2249 79.8123L51.1334 79.8126C51.1281 79.8126 51.1231 79.8147 51.1193 79.8184C51.1156 79.8222 51.1135 79.8272 51.1135 79.8325ZM52.27 80.4783C52.2693 80.4801 52.2691 80.4821 52.2694 80.484C52.2696 80.4859 52.2703 80.4878 52.2714 80.4894C52.2725 80.491 52.2739 80.4923 52.2756 80.4932C52.2774 80.4941 52.2793 80.4946 52.2812 80.4946L52.6176 80.4934C52.6195 80.4934 52.6214 80.4929 52.6232 80.492C52.6249 80.4911 52.6263 80.4898 52.6274 80.4882C52.6285 80.4866 52.6292 80.4847 52.6294 80.4828C52.6297 80.4809 52.6294 80.4789 52.6288 80.4771L52.4591 80.0426C52.4582 80.0402 52.4567 80.0382 52.4546 80.0368C52.4526 80.0354 52.4502 80.0347 52.4477 80.0347C52.4453 80.0347 52.4429 80.0354 52.4408 80.0368C52.4388 80.0382 52.4373 80.0402 52.4364 80.0426L52.27 80.4783Z" fill="#F15922"/>
<path d="M54.3433 79.9444C54.4219 79.8671 54.326 79.812 54.2554 79.8001C54.2535 79.7997 54.2517 79.7985 54.2506 79.7969C54.2494 79.7953 54.2488 79.7933 54.2489 79.7913C54.2491 79.7893 54.25 79.7874 54.2514 79.786C54.2528 79.7846 54.2547 79.7837 54.2567 79.7835H54.6339C54.651 79.7835 54.6522 79.7878 54.6376 79.7965C54.622 79.8058 54.6053 79.8108 54.5877 79.8114C54.5772 79.8118 54.5675 79.8147 54.5587 79.8201C54.3981 79.9198 54.2406 80.1014 54.101 80.2298C54.0976 80.233 54.0954 80.2373 54.0951 80.2419C54.0947 80.2465 54.096 80.251 54.0989 80.2547C54.2526 80.4486 54.405 80.6404 54.5562 80.8301C54.6244 80.9156 54.7001 80.9748 54.7831 81.0077C54.7927 81.0118 54.8025 81.012 54.8123 81.0083C54.9267 80.9668 54.9852 80.8462 55.0302 80.7314C55.1525 80.4184 55.2733 80.1096 55.3927 79.805C55.3955 79.7976 55.4006 79.7912 55.4072 79.7867C55.4138 79.7821 55.4216 79.7796 55.4297 79.7795C55.4377 79.7794 55.4456 79.7817 55.4523 79.7861C55.459 79.7905 55.4642 79.7968 55.4673 79.8041C55.6127 80.1516 55.7594 80.5001 55.9074 80.8498C56.002 81.0732 56.345 81.0898 56.3496 80.8159C56.3543 80.5236 56.3541 80.2612 56.349 80.0286C56.3459 79.8935 56.3031 79.8035 56.1561 79.7992C56.1518 79.799 56.1503 79.7969 56.1518 79.7929C56.1526 79.7904 56.1534 79.7879 56.1542 79.7853C56.1544 79.7849 56.1557 79.7847 56.1579 79.7847C56.3743 79.7819 56.5905 79.7823 56.8067 79.7859C57.1525 79.792 57.3374 80.1856 57.003 80.3698C56.9762 80.3844 56.9386 80.3847 56.9093 80.3995C56.8951 80.4066 56.8951 80.4136 56.9093 80.4204C56.9574 80.4441 56.9875 80.4694 56.9996 80.4965C57.074 80.6634 57.1615 80.8231 57.2622 80.9756C57.2652 80.98 57.2693 80.9834 57.2739 80.9856L57.3469 81.0198C57.3483 81.0206 57.3495 81.0218 57.3501 81.0232C57.3508 81.0247 57.351 81.0263 57.3506 81.0278C57.3503 81.0293 57.3494 81.0307 57.3482 81.0317C57.347 81.0328 57.3455 81.0334 57.3439 81.0335H57.0622C57.0537 81.0335 57.0478 81.0295 57.0443 81.0217C56.9814 80.8746 56.9046 80.72 56.8138 80.558C56.7603 80.4625 56.6805 80.4163 56.5743 80.4195C56.5628 80.4199 56.5568 80.4257 56.5564 80.4368C56.5482 80.6241 56.5479 80.7589 56.5555 80.8414C56.5703 80.9989 56.7429 81.015 56.7447 81.0253C56.7458 81.0309 56.7433 81.0338 56.7373 81.0338L55.5357 81.0332C55.5335 81.0334 55.5313 81.0329 55.5295 81.0316C55.5277 81.0303 55.5265 81.0284 55.5261 81.0263C55.5258 81.0241 55.5262 81.0219 55.5274 81.0201C55.5286 81.0183 55.5305 81.017 55.5326 81.0165C55.5511 81.01 55.5693 81.0051 55.5871 81.0017C55.7952 80.9623 55.6146 80.6568 55.5683 80.5495C55.5638 80.5388 55.5556 80.5335 55.5437 80.5335H55.1674C55.1583 80.5335 55.152 80.5375 55.1483 80.5456C55.0755 80.7029 54.9285 80.9717 55.1714 81.0132C55.1755 81.0138 55.179 81.0161 55.1819 81.0201C55.1882 81.029 55.1859 81.0335 55.1748 81.0335H54.2339C54.2323 81.0335 54.2307 81.033 54.2294 81.0322C54.2281 81.0314 54.2271 81.0301 54.2264 81.0287C54.2258 81.0273 54.2256 81.0257 54.2259 81.0242C54.2262 81.0227 54.2269 81.0213 54.228 81.0201L54.2348 81.0135C54.2368 81.0115 54.2394 81.0105 54.2425 81.0107C54.2832 81.0132 54.3164 80.9991 54.342 80.9686C54.3492 80.9599 54.3517 80.9501 54.3494 80.9392C54.3186 80.7911 54.0659 80.5292 53.9701 80.4162C53.9636 80.4085 53.955 80.4029 53.9452 80.4002C53.9355 80.3975 53.9251 80.3977 53.9155 80.4009C53.9059 80.4041 53.8975 80.4101 53.8915 80.418C53.8854 80.426 53.882 80.4356 53.8816 80.4456C53.8748 80.6162 53.8119 80.9817 54.0591 81.015C54.064 81.0156 54.0674 81.017 54.0693 81.0192C54.0716 81.0217 54.0725 81.0244 54.0721 81.0274C54.0714 81.0315 54.0691 81.0335 54.065 81.0335H53.5019C53.4844 81.0335 53.4832 81.0291 53.4982 81.0204C53.5244 81.0056 53.5595 81.0086 53.5851 80.9935C53.6468 80.9565 53.6778 80.8991 53.6782 80.8214C53.6798 80.5486 53.6805 80.2758 53.68 80.0029C53.6798 79.8764 53.6162 79.8086 53.4893 79.7995C53.4856 79.7993 53.4843 79.7975 53.4856 79.7941C53.4864 79.7917 53.4872 79.7892 53.488 79.7868C53.4887 79.7846 53.4902 79.7835 53.4927 79.7835H54.0751C54.076 79.7835 54.0768 79.7837 54.0775 79.7841C54.0782 79.7844 54.0788 79.785 54.0793 79.7856C54.0798 79.7862 54.0801 79.787 54.0802 79.7878C54.0804 79.7886 54.0803 79.7894 54.0801 79.7901C54.0791 79.7932 54.078 79.7961 54.077 79.7989C54.0762 79.8016 54.0744 79.8029 54.0718 79.8029C53.8123 79.8038 53.8727 80.2095 53.8856 80.3714C53.8857 80.3733 53.8863 80.3751 53.8874 80.3766C53.8886 80.3782 53.8901 80.3794 53.8919 80.38C53.8938 80.3807 53.8957 80.3809 53.8976 80.3804C53.8995 80.38 53.9012 80.3791 53.9026 80.3777C54.0505 80.2331 54.1974 80.0886 54.3433 79.9444ZM56.5521 79.8311L56.554 80.3862C56.554 80.3886 56.5544 80.391 56.5554 80.3933C56.5563 80.3955 56.5577 80.3976 56.5595 80.3993C56.5612 80.401 56.5633 80.4024 56.5656 80.4033C56.5678 80.4042 56.5703 80.4047 56.5728 80.4047L56.6677 80.4044C56.7054 80.4043 56.7426 80.3966 56.7774 80.3819C56.8122 80.3672 56.8437 80.3457 56.8703 80.3186C56.8969 80.2916 56.9179 80.2595 56.9322 80.2242C56.9465 80.1889 56.9538 80.151 56.9537 80.1129V80.102C56.9534 80.0249 56.923 79.9511 56.869 79.8968C56.815 79.8424 56.7419 79.812 56.6658 79.8123L56.5709 79.8126C56.5659 79.8126 56.5611 79.8145 56.5576 79.818C56.5541 79.8215 56.5521 79.8262 56.5521 79.8311ZM55.1711 80.4795C55.1704 80.4813 55.1701 80.4833 55.1704 80.4852C55.1706 80.4871 55.1713 80.489 55.1724 80.4905C55.1736 80.4921 55.1751 80.4934 55.1768 80.4943C55.1786 80.4952 55.1805 80.4956 55.1825 80.4956H55.5277C55.5296 80.4956 55.5316 80.4952 55.5333 80.4943C55.5351 80.4934 55.5366 80.4921 55.5377 80.4905C55.5388 80.489 55.5395 80.4871 55.5398 80.4852C55.54 80.4833 55.5398 80.4813 55.5391 80.4795L55.3662 80.0438C55.3653 80.0416 55.3637 80.0398 55.3617 80.0385C55.3598 80.0372 55.3574 80.0365 55.3551 80.0365C55.3527 80.0365 55.3504 80.0372 55.3484 80.0385C55.3464 80.0398 55.3449 80.0416 55.344 80.0438L55.1711 80.4795Z" fill="#F15922"/>
<path d="M58.9556 80.5308L58.5839 80.5317C58.5741 80.5317 58.5673 80.536 58.5633 80.5447C58.5061 80.6699 58.3325 80.9728 58.5958 81.0143C58.6068 81.0161 58.6086 81.0209 58.6011 81.0288C58.5961 81.034 58.5911 81.0351 58.5861 81.0321C58.451 81.0305 58.318 81.0301 58.1872 81.0309C58.1863 81.031 58.1853 81.0309 58.1844 81.0307C58.1835 81.0304 58.1826 81.03 58.1819 81.0294C58.1812 81.0288 58.1805 81.0281 58.1801 81.0273C58.1796 81.0265 58.1793 81.0256 58.1792 81.0247C58.1791 81.0238 58.1792 81.0229 58.1795 81.022C58.1798 81.0211 58.1802 81.0203 58.1808 81.0196C58.1814 81.0188 58.1821 81.0183 58.183 81.0178C58.1838 81.0174 58.1847 81.0171 58.1856 81.017C58.3231 80.9873 58.3931 80.8696 58.4458 80.7305C58.5642 80.4191 58.6914 80.112 58.8126 79.8055C58.8156 79.7979 58.8208 79.7914 58.8277 79.7868C58.8346 79.7821 58.8428 79.7796 58.8512 79.7795C58.8596 79.7795 58.8679 79.7819 58.8749 79.7864C58.8819 79.7909 58.8874 79.7974 58.8907 79.8049C59.0425 80.167 59.1979 80.5299 59.357 80.8935C59.3885 80.9654 59.4501 81.0039 59.5419 81.0091C59.5484 81.0093 59.553 81.0109 59.5557 81.014C59.5584 81.0166 59.5598 81.0195 59.5598 81.0227C59.5602 81.028 59.5577 81.0306 59.5523 81.0306H58.9591C58.9505 81.0306 58.9464 81.0266 58.9466 81.0185C58.9466 81.0108 58.9506 81.007 58.9588 81.007C59.2458 81.001 59.0453 80.6724 58.995 80.5562C58.9918 80.5487 58.9863 80.5422 58.9793 80.5377C58.9723 80.5332 58.9641 80.5308 58.9556 80.5308ZM58.588 80.4781C58.5872 80.4798 58.587 80.4817 58.5872 80.4836C58.5874 80.4854 58.5881 80.4872 58.5891 80.4887C58.5902 80.4902 58.5917 80.4915 58.5934 80.4923C58.5951 80.4932 58.597 80.4936 58.5989 80.4936H58.9506C58.9525 80.4936 58.9544 80.4932 58.9561 80.4923C58.9579 80.4915 58.9593 80.4902 58.9604 80.4887C58.9615 80.4872 58.9622 80.4854 58.9624 80.4836C58.9626 80.4817 58.9623 80.4798 58.9616 80.4781L58.7854 80.0421C58.7845 80.0401 58.783 80.0384 58.7811 80.0372C58.7792 80.036 58.777 80.0353 58.7748 80.0353C58.7725 80.0353 58.7703 80.036 58.7684 80.0372C58.7665 80.0384 58.765 80.0401 58.7642 80.0421L58.588 80.4781Z" fill="#F15922"/>
</svg>
