<svg width="100" height="100" viewBox="0 0 100 100" fill="none" xmlns="http://www.w3.org/2000/svg">
<rect width="100" height="100" fill="#262597"/>
<g clip-path="url(#clip0_29_2566)">
<path d="M84.7501 64.8485C83.8387 62.2306 82.2903 60.7217 80.1048 60.3218C78.2122 59.9777 75.9081 59.9521 73.1925 60.245C71.4767 60.4299 70.3432 61.0507 69.5202 62.491C69.4365 62.6398 69.3481 62.6421 69.2551 62.498C68.2333 60.9425 67.0197 60.1892 65.112 60.1683C62.9602 60.1439 60.3132 59.8719 58.423 60.4857C55.3656 61.4808 53.8148 63.8069 53.7706 67.4642C53.7265 70.9656 53.7067 74.4775 53.7114 77.9999" stroke="#1C4D4F" stroke-width="1.74375"/>
<path d="M47.3328 78.0006C47.1561 77.9169 46.9398 77.882 46.6841 77.896C46.5864 77.9006 46.5702 77.8657 46.6353 77.7913C46.6748 77.7472 46.7294 77.7274 46.7992 77.732C46.9294 77.739 47.0096 77.7402 47.0398 77.7355C50.2727 77.1427 50.9772 73.2611 50.9842 70.5896C51.0167 60.9874 51.0144 51.2108 50.9772 41.2598" stroke="#8080CE" stroke-width="1.74375"/>
<path d="M50.9771 41.2595C56.3106 39.0322 61.6337 39.16 66.9463 41.6431" stroke="#1C4D4F" stroke-width="1.74375"/>
<path d="M66.9463 41.6431C67.0928 41.7942 67.3136 41.7861 67.6089 41.6187" stroke="#020E6E" stroke-width="1.74375"/>
<path d="M67.6089 41.6183C73.4632 39.0004 78.9746 39.3747 84.1431 42.7413C84.174 42.7619 84.2102 42.7729 84.2473 42.7729C84.2844 42.7729 84.3206 42.762 84.3516 42.7416C84.3825 42.7211 84.4067 42.6919 84.4211 42.6577C84.4355 42.6236 84.4395 42.5859 84.4326 42.5495C84.2512 41.559 84.0071 40.4849 83.599 39.5328C77.8342 26.0362 65.9314 17.1535 50.834 16.728" stroke="#1C4D4F" stroke-width="1.74375"/>
<path d="M50.8344 16.728C50.853 16.9559 50.76 17.1454 50.5554 17.2965" stroke="#020E6E" stroke-width="1.74375"/>
<path d="M50.555 17.2965C50.376 17.2012 50.2598 17.2047 50.2063 17.307" stroke="#1C4D4F" stroke-width="1.74375"/>
<path d="M50.2062 17.3069C49.7249 17.2302 49.2739 17.0546 48.853 16.7803" stroke="#020E6E" stroke-width="1.74375"/>
<path d="M48.8529 16.7807C48.0415 16.6993 46.843 16.7679 45.2573 16.9864C42.6115 17.3538 40.5445 17.7886 39.0565 18.2908C28.8103 21.7504 21.3947 28.3638 16.8098 38.1312C16.1169 39.6075 15.6263 41.1165 15.338 42.6579C15.3308 42.6942 15.3347 42.7318 15.3493 42.7657C15.3639 42.7996 15.3886 42.8284 15.4201 42.8483C15.4517 42.8682 15.4886 42.8783 15.5262 42.8773C15.5638 42.8763 15.6003 42.8643 15.631 42.8428C20.3252 39.561 26.5643 38.9368 31.7432 41.4757" stroke="#1C4D4F" stroke-width="1.74375"/>
<path d="M31.7437 41.4756C32.1366 41.6383 32.4784 41.6837 32.769 41.6116" stroke="#020E6E" stroke-width="1.74375"/>
<path d="M32.7688 41.6114C33.1617 41.4928 33.7581 41.2533 34.5579 40.8929C35.9808 40.2536 37.7024 39.8827 39.7229 39.7804C40.3925 39.749 41.4945 39.4317 42.3245 39.6653C42.9151 39.8351 43.3592 39.9292 43.6568 39.9478C45.1936 40.0501 46.6549 40.4791 48.0406 41.2347" stroke="#1C4D4F" stroke-width="1.74375"/>
<path d="M48.0403 41.2349L48.0438 60.7195C48.0438 60.9962 47.9462 61.0357 47.7509 60.8381C46.3977 59.4815 39.5692 59.6872 37.8533 60.4057C33.4556 62.2505 34.0799 69.6231 34.6309 73.6372C34.9099 75.6704 36.3293 77.2049 38.38 77.7699C38.5892 77.828 38.5857 77.8711 38.3695 77.899L37.6406 78.0001" stroke="#8080CE" stroke-width="1.74375"/>
<path d="M29.4243 77.9999C29.7638 77.7163 30.0846 77.4419 30.3868 77.1769C32.4375 75.3738 31.9039 68.5593 31.8446 66.2296C31.6737 59.6034 27.4539 60.0533 22.3028 60.1091C18.3236 60.1509 15.3941 61.0332 15.6277 65.7239C15.6323 65.8365 15.6802 65.943 15.7614 66.021C15.8427 66.099 15.951 66.1425 16.0637 66.1424H18.0411C18.4085 66.1424 18.6049 65.9599 18.6305 65.5949C18.7165 64.3417 19.3303 63.6535 20.4719 63.5303C22.3412 63.3303 24.2175 63.2955 26.1007 63.4257C27.9142 63.5512 28.8035 64.4719 28.6466 66.2924C28.6422 66.3396 28.6198 66.3832 28.5841 66.4144C28.5484 66.4455 28.5021 66.4618 28.4548 66.4598C25.3184 66.304 22.1947 66.3552 19.0839 66.6132C17.1483 66.7737 15.7219 67.4223 15.2999 69.3544C15.2744 69.4823 15.2093 69.5067 15.1046 69.4277L15 69.3474" stroke="#1C4D4F" stroke-width="1.74375"/>
<path d="M67.6089 41.6183C67.5705 30.5595 61.0349 21.0142 50.834 16.728" stroke="#1C5A21" stroke-width="1.74375"/>
<path d="M48.8533 16.7803C38.7919 21.028 32.483 30.399 32.1238 41.273C32.1191 41.4055 32.0494 41.4729 31.9145 41.4753H31.7437" stroke="#1C5A21" stroke-width="1.74375"/>
<path d="M50.2062 17.3071C50.8898 24.0636 50.9246 30.6933 50.3108 37.1963C50.1109 39.3121 49.9877 40.7478 49.9412 41.5034" stroke="#1C5A21" stroke-width="1.74375"/>
<path d="M49.9412 41.5034C49.7947 41.7824 49.5331 41.8138 49.1565 41.5976" stroke="#818DA0" stroke-width="1.74375"/>
<path d="M49.1566 41.5977C50.2865 33.838 50.161 25.7505 49.7459 17.6769C49.7273 17.3305 49.5576 17.2212 49.2368 17.3491C39.3671 21.2655 32.9641 30.9468 32.7688 41.6116" stroke="#1C5A21" stroke-width="1.74375"/>
<path d="M66.9467 41.6431C67.1908 32.192 61.7084 23.6546 53.8999 18.9151C52.8851 18.3013 51.6854 17.82 50.5554 17.2969" stroke="#1C5A21" stroke-width="1.74375"/>
<path d="M49.1565 41.5976C48.738 41.3651 48.366 41.2442 48.0405 41.2349" stroke="#9BCC80" stroke-width="1.74375"/>
<path d="M50.9769 41.2598L49.9412 41.5039" stroke="#9BCC80" stroke-width="1.74375"/>
<path d="M17.5633 78.0001C16.3473 77.3352 15.4929 76.2634 15 74.7847" stroke="#1C4D4F" stroke-width="1.74375"/>
<path d="M81.7577 78.0001C81.8879 75.238 81.9832 72.4782 82.0436 69.7208C82.089 67.7085 81.5763 63.5654 78.9084 63.534C75.7173 63.4956 71.1243 62.4528 70.9743 67.2656C70.8627 70.8414 70.8371 74.4196 70.8976 78.0001" stroke="#1C4D4F" stroke-width="1.74375"/>
<path d="M67.8531 78.0001C67.8415 74.666 67.8322 71.3343 67.8252 68.0049C67.8182 64.9882 66.6674 63.506 63.5112 63.5235C62.0185 63.5339 59.9644 63.2759 58.7577 63.949C55.4864 65.7659 57.2093 74.5858 56.7873 78.0001" stroke="#1C4D4F" stroke-width="1.74375"/>
<path d="M15 8.25H84.75V64.8486C83.8386 62.2307 82.2901 60.7218 80.1046 60.3219C78.2121 59.9778 75.908 59.9522 73.1924 60.2451C71.4766 60.43 70.3431 61.0507 69.5201 62.4911C69.4364 62.6399 69.348 62.6422 69.255 62.4981C68.2332 60.9426 67.0196 60.1893 65.1119 60.1684C62.9601 60.144 60.3131 59.872 58.4229 60.4858C55.3655 61.4809 53.8147 63.807 53.7705 67.4643C53.7264 70.9657 53.7066 74.4776 53.7113 78H47.3326C47.1559 77.9163 46.9397 77.8814 46.6839 77.8954C46.5863 77.9 46.57 77.8652 46.6351 77.7907C46.6746 77.7466 46.7293 77.7268 46.799 77.7315C46.9292 77.7384 47.0094 77.7396 47.0397 77.7349C50.2726 77.1421 50.9771 73.2605 50.984 70.5891C51.0166 60.9868 51.0143 51.2102 50.9771 41.2592C56.3106 39.0318 61.6337 39.1597 66.9463 41.6428C67.0928 41.7939 67.3137 41.7858 67.6089 41.6184C73.4633 39.0005 78.9747 39.3748 84.1432 42.7414C84.174 42.7619 84.2103 42.7729 84.2474 42.773C84.2845 42.773 84.3207 42.7621 84.3516 42.7416C84.3826 42.7212 84.4067 42.692 84.4211 42.6578C84.4355 42.6237 84.4395 42.586 84.4326 42.5496C84.2513 41.5591 84.0072 40.485 83.5991 39.5329C77.8343 26.0362 65.9314 17.1536 50.8341 16.7281C50.8527 16.956 50.7597 17.1454 50.5551 17.2966C50.376 17.2013 50.2598 17.2047 50.2063 17.307C49.725 17.2303 49.274 17.0548 48.8532 16.7804C48.0417 16.699 46.8432 16.7676 45.2576 16.9862C42.6117 17.3535 40.5448 17.7883 39.0568 18.2905C28.8105 21.7501 21.3949 28.3636 16.81 38.1309C16.1172 39.6073 15.6266 41.1162 15.3383 42.6577C15.331 42.694 15.3349 42.7315 15.3496 42.7655C15.3642 42.7994 15.3888 42.8282 15.4204 42.848C15.4519 42.8679 15.4888 42.878 15.5264 42.877C15.564 42.8761 15.6005 42.864 15.6312 42.8425C20.3254 39.5608 26.5645 38.9365 31.7435 41.4754C32.1364 41.6382 32.4782 41.6835 32.7688 41.6114C33.1617 41.4929 33.7581 41.2534 34.5579 40.893C35.9808 40.2536 37.7025 39.8828 39.7229 39.7805C40.3925 39.7491 41.4945 39.4317 42.3246 39.6654C42.9151 39.8351 43.3592 39.9293 43.6568 39.9479C45.1936 40.0502 46.6549 40.4791 48.0406 41.2348L48.0441 60.7194C48.0441 60.9961 47.9464 61.0356 47.7511 60.838C46.398 59.4814 39.5694 59.6871 37.8536 60.4056C33.4558 62.2505 34.0801 69.623 34.6311 73.6371C34.9101 75.6703 36.3295 77.2048 38.3802 77.7698C38.5895 77.8279 38.586 77.871 38.3697 77.8989L37.6408 78H29.4243C29.7638 77.7163 30.0846 77.442 30.3868 77.1769C32.4375 75.3739 31.9039 68.5593 31.8446 66.2297C31.6737 59.6034 27.4539 60.0533 22.3028 60.1091C18.3236 60.151 15.3941 61.0333 15.6277 65.724C15.6323 65.8366 15.6802 65.943 15.7614 66.021C15.8427 66.0991 15.951 66.1426 16.0637 66.1425H18.0411C18.4085 66.1425 18.6049 65.96 18.6305 65.595C18.7165 64.3418 19.3303 63.6536 20.4719 63.5304C22.3412 63.3304 24.2175 63.2955 26.1007 63.4257C27.9142 63.5513 28.8035 64.472 28.6466 66.2925C28.6422 66.3396 28.6198 66.3833 28.5841 66.4144C28.5484 66.4456 28.5021 66.4619 28.4548 66.4599C25.3184 66.3041 22.1947 66.3552 19.0839 66.6133C17.1483 66.7737 15.7219 67.4224 15.2999 69.3545C15.2743 69.4824 15.2093 69.5068 15.1046 69.4277L15 69.3475V8.25Z" fill="#262597"/>
<path d="M67.6089 41.6183C67.5705 30.5595 61.0349 21.0142 50.834 16.728C65.9314 17.1535 77.8342 26.0362 83.599 39.5328C84.0071 40.4849 84.2512 41.559 84.4326 42.5495C84.4395 42.5859 84.4355 42.6236 84.4211 42.6577C84.4067 42.6919 84.3825 42.7211 84.3516 42.7416C84.3206 42.762 84.2844 42.7729 84.2473 42.7729C84.2102 42.7729 84.174 42.7619 84.1431 42.7413C78.9746 39.3747 73.4632 39.0004 67.6089 41.6183Z" fill="#369901"/>
<path d="M48.8529 16.7807C38.7915 21.0285 32.4826 30.3994 32.1234 41.2734C32.1187 41.4059 32.049 41.4733 31.9141 41.4757H31.7432C26.5643 38.9368 20.3252 39.561 15.631 42.8428C15.6003 42.8643 15.5638 42.8763 15.5262 42.8773C15.4886 42.8783 15.4517 42.8682 15.4201 42.8483C15.3886 42.8284 15.3639 42.7996 15.3493 42.7657C15.3347 42.7318 15.3308 42.6942 15.338 42.6579C15.6263 41.1165 16.1169 39.6075 16.8098 38.1312C21.3947 28.3638 28.8103 21.7504 39.0565 18.2908C40.5445 17.7886 42.6115 17.3538 45.2573 16.9864C46.843 16.7679 48.0415 16.6993 48.8529 16.7807Z" fill="#369901"/>
<path d="M48.8533 16.7803C49.2742 17.0546 49.7252 17.2302 50.2065 17.3069C50.89 24.0633 50.9249 30.6931 50.3111 37.1961C50.1112 39.3118 49.9879 40.7475 49.9414 41.5032C49.795 41.7822 49.5334 41.8136 49.1567 41.5973C50.2867 33.8376 50.1611 25.7501 49.7461 17.6766C49.7275 17.3301 49.5578 17.2209 49.237 17.3487C39.3673 21.2652 32.9643 30.9465 32.769 41.6113C32.4784 41.6834 32.1366 41.638 31.7437 41.4753H31.9145C32.0494 41.4729 32.1191 41.4055 32.1238 41.273C32.483 30.399 38.7919 21.028 48.8533 16.7803Z" fill="#021B40"/>
<path d="M50.8344 16.728C61.0354 21.0142 67.5709 30.5595 67.6093 41.6183C67.314 41.7857 67.0931 41.7939 66.9467 41.6427C67.1908 32.1916 61.7084 23.6542 53.8999 18.9147C52.8851 18.3009 51.6854 17.8196 50.5554 17.2965C50.76 17.1454 50.853 16.9559 50.8344 16.728Z" fill="#021B40"/>
<path d="M49.1566 41.5977C48.7381 41.3652 48.3661 41.2443 48.0406 41.235C46.6549 40.4793 45.1936 40.0504 43.6568 39.9481C43.3592 39.9295 42.9151 39.8353 42.3245 39.6656C41.4945 39.4319 40.3925 39.7493 39.7229 39.7807C37.7024 39.883 35.9808 40.2538 34.5579 40.8932C33.7581 41.2536 33.1617 41.493 32.7688 41.6116C32.9641 30.9468 39.3671 21.2655 49.2368 17.3491C49.5576 17.2212 49.7273 17.3305 49.7459 17.6769C50.161 25.7505 50.2865 33.838 49.1566 41.5977Z" fill="#369901"/>
<path d="M50.555 17.2965C51.6849 17.8196 52.8846 18.3009 53.8995 18.9147C61.708 23.6542 67.1903 32.1916 66.9462 41.6427C61.6336 39.1596 56.3105 39.0318 50.977 41.2591L49.9412 41.5032C49.9877 40.7476 50.1109 39.3119 50.3108 37.1962C50.9246 30.6932 50.8898 24.0634 50.2062 17.307C50.2597 17.2047 50.3759 17.2012 50.555 17.2965Z" fill="#369901"/>
<path d="M48.0403 41.2349C48.3658 41.2442 48.7378 41.3651 49.1563 41.5976C49.533 41.8138 49.7945 41.7824 49.941 41.5034L50.9768 41.2593C51.014 51.2103 51.0163 60.9869 50.9838 70.5892C50.9768 73.2606 50.2723 77.1422 47.0394 77.735C47.0092 77.7397 46.929 77.7385 46.7988 77.7316C46.729 77.7269 46.6744 77.7467 46.6349 77.7908C46.5698 77.8652 46.586 77.9001 46.6837 77.8955C46.9394 77.8815 47.1557 77.9164 47.3324 78.0001H37.6406L38.3695 77.899C38.5857 77.8711 38.5892 77.828 38.38 77.7699C36.3293 77.2049 34.9099 75.6704 34.6309 73.6372C34.0799 69.6231 33.4556 62.2505 37.8533 60.4057C39.5692 59.6872 46.3977 59.4815 47.7509 60.8381C47.9462 61.0357 48.0438 60.9962 48.0438 60.7195L48.0403 41.2349Z" fill="white"/>
<path d="M29.4243 77.9999H17.5633C16.3473 77.335 15.4929 76.2632 15 74.7845V69.3474L15.1046 69.4277C15.2093 69.5067 15.2743 69.4823 15.2999 69.3544C15.7219 67.4223 17.1483 66.7737 19.0839 66.6132C22.1947 66.3552 25.3184 66.304 28.4548 66.4598C28.5021 66.4618 28.5484 66.4455 28.5841 66.4144C28.6198 66.3832 28.6422 66.3396 28.6466 66.2924C28.8035 64.4719 27.9142 63.5512 26.1007 63.4257C24.2175 63.2955 22.3412 63.3303 20.4719 63.5303C19.3303 63.6535 18.7165 64.3417 18.6305 65.5949C18.6049 65.9599 18.4085 66.1424 18.0411 66.1424H16.0637C15.951 66.1425 15.8427 66.099 15.7614 66.021C15.6802 65.943 15.6323 65.8365 15.6277 65.7239C15.3941 61.0332 18.3236 60.1509 22.3028 60.1091C27.4539 60.0533 31.6737 59.6034 31.8446 66.2296C31.9039 68.5593 32.4375 75.3738 30.3868 77.1769C30.0846 77.4419 29.7638 77.7163 29.4243 77.9999Z" fill="#369901"/>
<path d="M84.7501 64.8485V77.9999H81.7578C81.888 75.2378 81.9834 72.478 82.0438 69.7206C82.0891 67.7083 81.5765 63.5651 78.9085 63.5338C75.7175 63.4954 71.1244 62.4526 70.9745 67.2654C70.8629 70.8412 70.8373 74.4194 70.8978 77.9999H67.8532C67.8415 74.6659 67.8322 71.3341 67.8253 68.0047C67.8183 64.988 66.6674 63.5059 63.5112 63.5233C62.0186 63.5338 59.9644 63.2757 58.7578 63.9488C55.4865 65.7658 57.2093 74.5856 56.7873 77.9999H53.7114C53.7067 74.4775 53.7265 70.9656 53.7706 67.4642C53.8148 63.8069 55.3656 61.4808 58.423 60.4857C60.3132 59.8719 62.9602 60.1439 65.112 60.1683C67.0197 60.1892 68.2333 60.9425 69.2551 62.498C69.3481 62.6421 69.4365 62.6398 69.5202 62.491C70.3432 61.0507 71.4767 60.4299 73.1925 60.245C75.9081 59.9521 78.2122 59.9777 80.1048 60.3218C82.2903 60.7217 83.8387 62.2306 84.7501 64.8485Z" fill="#369901"/>
<path d="M44.6962 63.2025L40.6298 63.2096C38.8058 63.2128 37.3297 64.694 37.3329 66.518L37.3417 71.5609C37.3449 73.3849 38.8261 74.861 40.6501 74.8578L44.7166 74.8507C46.5406 74.8475 48.0166 73.3663 48.0134 71.5423L48.0046 66.4994C48.0015 64.6754 46.5202 63.1993 44.6962 63.2025Z" fill="#262597"/>
<path d="M67.8531 78.0001H56.7873C57.2093 74.5858 55.4864 65.7659 58.7577 63.949C59.9644 63.2759 62.0185 63.5339 63.5112 63.5235C66.6674 63.506 67.8182 64.9882 67.8252 68.0049C67.8322 71.3343 67.8415 74.666 67.8531 78.0001Z" fill="#262597"/>
<path d="M81.7577 77.9999H70.8976C70.8371 74.4194 70.8627 70.8412 70.9743 67.2654C71.1243 62.4526 75.7173 63.4954 78.9084 63.5337C81.5763 63.5651 82.089 67.7083 82.0436 69.7205C81.9832 72.478 81.8879 75.2378 81.7577 77.9999Z" fill="#262597"/>
<path d="M19.2721 74.7777C17.5597 74.6138 17.1482 70.0417 19.5581 70.0103C22.5597 69.9754 25.5647 69.9661 28.5733 69.9824C28.6849 69.9847 28.7395 70.0417 28.7372 70.1533C28.7139 71.704 28.6395 72.7805 28.514 73.3827C28.2071 74.8788 26.9725 74.7916 25.4938 74.844C22.7898 74.937 20.7159 74.9149 19.2721 74.7777Z" fill="#262597"/>
<path d="M15 74.7847C15.4929 76.2634 16.3473 77.3352 17.5633 78.0001H15V74.7847Z" fill="#262597"/>
</g>
<defs>
<clipPath id="clip0_29_2566">
<rect width="69.75" height="63" fill="white" transform="translate(15 15)"/>
</clipPath>
</defs>
</svg>
