<svg width="100" height="100" viewBox="0 0 100 100" fill="none" xmlns="http://www.w3.org/2000/svg">
<rect width="100" height="100" fill="white"/>
<path d="M73.9357 42.9546C73.9357 42.0692 73.3275 41.7736 72.5572 41.7622C72.5262 41.7617 72.5107 41.7457 72.5107 41.7142V41.4628C72.5107 41.4333 72.525 41.4165 72.5535 41.4125L75.3135 41.0003C75.317 40.9997 75.3207 41 75.3241 41.001C75.3276 41.002 75.3308 41.0038 75.3335 41.0062C75.3362 41.0086 75.3384 41.0115 75.3398 41.0148C75.3413 41.0182 75.342 41.0218 75.342 41.0254V47.6974C75.3421 47.7009 75.3433 47.7042 75.3454 47.7069C75.3475 47.7096 75.3505 47.7116 75.3537 47.7124C75.357 47.7132 75.3603 47.7128 75.3632 47.7113C75.3661 47.7099 75.3684 47.7074 75.3697 47.7043C76.0605 46.2719 77.1112 44.8395 78.9217 45.283C80.2237 45.6022 80.394 46.8944 80.4022 48.006C80.4182 50.0367 80.426 52.0662 80.4255 54.0944C80.4255 54.1051 80.4213 54.1154 80.4138 54.1229C80.4064 54.1305 80.3963 54.1348 80.3857 54.1348H79.0582C79.0327 54.1348 79.02 54.1218 79.02 54.0959C79.0165 52.1388 79.0122 50.1838 79.0072 48.2308C79.0057 47.6433 78.9817 46.8327 78.6367 46.4487C78.2152 45.9809 77.496 46.0799 77.0445 46.4532C76.056 47.2731 75.354 48.7146 75.3472 50.0258C75.3402 51.383 75.339 52.7392 75.3435 54.0944C75.3435 54.1051 75.3393 54.1154 75.3318 54.1229C75.3244 54.1305 75.3143 54.1348 75.3037 54.1348H73.9762C73.9492 54.1348 73.9357 54.1211 73.9357 54.0936C73.9352 50.3796 73.9352 46.6666 73.9357 42.9546Z" fill="#721B46"/>
<path d="M82.6293 42.4643C82.7159 43.0395 83.2352 43.4361 83.7892 43.3499C84.3432 43.2638 84.7221 42.7277 84.6354 42.1524C84.5488 41.5772 84.0294 41.1807 83.4754 41.2668C82.9215 41.3529 82.5426 41.889 82.6293 42.4643Z" fill="#721B46"/>
<path d="M25.4107 45.2395H27.6232C27.6482 45.2395 27.6607 45.2522 27.6607 45.2776V45.8398C27.6607 45.8718 27.645 45.8878 27.6135 45.8878L25.4257 45.8856C25.4027 45.8856 25.3912 45.8975 25.3912 45.9214C25.3897 47.9846 25.3952 50.0494 25.4077 52.1156C25.4152 53.4193 26.652 53.497 27.6172 53.3164C27.6462 53.3108 27.6607 53.323 27.6607 53.353V53.9678C27.6607 53.9988 27.6457 54.0171 27.6157 54.0227C26.7612 54.1863 25.9517 54.1664 25.1872 53.9633C24.0975 53.673 24.012 52.6916 24.0045 51.692C23.991 49.7695 23.984 47.847 23.9835 45.9244C23.9835 45.8995 23.9712 45.8871 23.9467 45.8871H22.5982C22.5607 45.8871 22.542 45.868 22.542 45.8299V45.2966C22.542 45.2585 22.5607 45.2395 22.5982 45.2395H23.9482C23.9732 45.2395 23.9857 45.2268 23.9857 45.2014V43.7362C23.9857 43.7087 23.9914 43.6816 24.0024 43.6566C24.0134 43.6317 24.0294 43.6095 24.0495 43.5915L25.329 42.4356C25.3585 42.4092 25.3732 42.4161 25.3732 42.4562V45.2014C25.3732 45.2268 25.3857 45.2395 25.4107 45.2395Z" fill="#721B46"/>
<path d="M66.6793 46.3831C66.6794 46.3871 66.6808 46.391 66.6833 46.3941C66.6858 46.3972 66.6892 46.3994 66.693 46.4004C66.6969 46.4013 66.7009 46.401 66.7045 46.3994C66.7081 46.3977 66.7111 46.395 66.713 46.3915C67.271 45.3085 68.1658 44.8542 69.3973 45.0284C72.311 45.4398 72.5285 49.0734 72.0658 51.3019C71.723 52.9537 70.748 54.1956 68.9503 54.1469C67.9693 54.1202 67.1833 53.5815 66.719 52.7153C66.7169 52.7109 66.7133 52.7074 66.7089 52.7054C66.7045 52.7034 66.6996 52.7029 66.6949 52.7042C66.6902 52.7054 66.6861 52.7083 66.6833 52.7122C66.6805 52.7162 66.679 52.721 66.6793 52.7259V57.9061C66.6793 57.9315 66.6668 57.9442 66.6418 57.9442H65.3143C65.2873 57.9442 65.2738 57.9308 65.2738 57.9038C65.2723 54.2274 65.272 50.5522 65.273 46.8783C65.273 46.0882 64.5508 45.6981 63.8578 45.7591C63.8263 45.7621 63.8105 45.7476 63.8105 45.7156V45.4795C63.8105 45.4485 63.8255 45.4307 63.8555 45.4261L66.641 44.9956C66.6665 44.9916 66.6793 45.0028 66.6793 45.0292V46.3831Z" fill="#721B46"/>
<path d="M12.7844 49.1087C12.8059 48.3361 12.7959 47.6941 12.7544 47.1826C12.7056 46.5792 12.3786 45.943 11.7276 45.8028C10.4616 45.5285 9.91414 46.1693 9.75214 47.3525C9.74814 47.3815 9.73189 47.3957 9.70339 47.3952L8.16064 47.3906C8.14114 47.3906 8.13214 47.3807 8.13364 47.3609C8.24989 45.4264 10.1361 44.9137 11.7119 45.0226C12.7251 45.0927 13.5741 45.338 13.9499 46.4032C14.1109 46.8593 14.1921 47.3175 14.1936 47.7777C14.2001 49.8119 14.2011 51.8437 14.1966 53.8729C14.1966 53.8795 14.1954 53.886 14.1929 53.892C14.1904 53.8981 14.1867 53.9036 14.1821 53.9082C14.1775 53.9128 14.172 53.9164 14.166 53.9189C14.16 53.9213 14.1536 53.9225 14.1471 53.9224L12.8264 53.9003C12.8034 53.8998 12.7919 53.8881 12.7919 53.8653V52.8032C12.7921 52.7975 12.7904 52.792 12.7873 52.7873C12.7841 52.7826 12.7796 52.7791 12.7743 52.7772C12.769 52.7754 12.7633 52.7752 12.758 52.7769C12.7527 52.7786 12.748 52.7819 12.7446 52.7864C12.4411 53.1801 12.0761 53.5031 11.6496 53.7556C9.75364 54.8801 7.36639 53.4158 8.15464 51.0904C8.72314 49.415 11.2709 49.127 12.7446 49.1483C12.7706 49.1483 12.7839 49.1351 12.7844 49.1087Z" fill="#721B46"/>
<path d="M39.3984 52.8032C39.3984 52.7975 39.3967 52.7919 39.3935 52.7872C39.3903 52.7825 39.3858 52.779 39.3805 52.7771C39.3752 52.7751 39.3695 52.7749 39.3641 52.7765C39.3587 52.778 39.3539 52.7812 39.3504 52.7856C38.8891 53.3616 38.2771 53.866 37.5661 54.0397C36.7771 54.2325 35.8951 54.1228 35.2869 53.5628C34.6104 52.9403 34.4604 51.9315 34.7626 51.0706C35.3461 49.4073 37.9179 49.1232 39.3534 49.1453C39.3774 49.1453 39.3896 49.1331 39.3901 49.1087C39.4121 48.2548 39.4021 47.6197 39.3601 47.2032C39.2926 46.5418 38.9761 45.9224 38.2914 45.7959C37.0509 45.5681 36.5094 46.151 36.3639 47.3464C36.3599 47.3779 36.3421 47.3936 36.3106 47.3936L34.7671 47.3913C34.7416 47.3913 34.7299 47.3786 34.7319 47.3533C34.9059 45.0912 37.3959 44.7765 39.0954 45.13C40.6374 45.4508 40.8009 46.9532 40.8024 48.2774C40.8054 50.1421 40.8059 52.0108 40.8039 53.8835C40.8039 53.8875 40.8031 53.8915 40.8015 53.8952C40.8 53.8989 40.7977 53.9023 40.7949 53.9051C40.792 53.9079 40.7886 53.9102 40.7849 53.9117C40.7811 53.9132 40.7771 53.914 40.7731 53.914L39.4269 53.9072C39.4079 53.9072 39.3984 53.8975 39.3984 53.8782V52.8032Z" fill="#721B46"/>
<path d="M61.5608 52.8006C61.5607 52.7962 61.5592 52.7918 61.5566 52.7882C61.5541 52.7847 61.5504 52.7819 61.5463 52.7804C61.5422 52.779 61.5377 52.7788 61.5335 52.7799C61.5292 52.7811 61.5254 52.7835 61.5226 52.7869C61.1138 53.2959 60.5693 53.7644 59.9633 53.9701C58.5218 54.4593 56.9693 53.8216 56.7788 52.1522C56.7378 51.7936 56.7858 51.4343 56.9228 51.0741C57.5528 49.4132 60.0098 49.1282 61.5098 49.1435C61.5215 49.1435 61.5327 49.139 61.5411 49.1309C61.5495 49.1228 61.5544 49.1117 61.5548 49.1C61.5748 48.4661 61.5638 47.8272 61.5218 47.1831C61.4783 46.5058 61.1108 45.9031 60.4111 45.7865C59.2058 45.5854 58.6456 46.1941 58.5248 47.3538C58.5223 47.3792 58.5086 47.3919 58.4836 47.3919H56.9318C56.9118 47.3919 56.9023 47.3817 56.9033 47.3614C57.0346 45.4079 58.9276 44.9058 60.5206 45.0254C62.2771 45.1564 62.9603 46.0623 62.9648 47.8299C62.9693 49.8459 62.9693 51.8617 62.9648 53.8772C62.9648 53.9087 62.9493 53.9244 62.9183 53.9244L61.7116 53.9099C61.6946 53.9094 61.6788 53.913 61.6643 53.9206C61.6398 53.9333 61.6151 53.9295 61.5901 53.9092C61.5706 53.8934 61.5608 53.8729 61.5608 53.8475V52.8006Z" fill="#721B46"/>
<path d="M91.4108 52.8007C91.4107 52.7959 91.4091 52.7912 91.4063 52.7873C91.4035 52.7834 91.3996 52.7805 91.3951 52.7789C91.3906 52.7773 91.3858 52.7772 91.3812 52.7785C91.3766 52.7798 91.3725 52.7825 91.3695 52.7863C90.5925 53.7653 89.4503 54.3741 88.209 54.0541C86.463 53.6038 86.1075 51.2952 87.405 50.1638C88.338 49.3508 90.1613 49.1185 91.3658 49.1482C91.3898 49.1492 91.4023 49.1373 91.4033 49.1124C91.4258 48.3058 91.4153 47.6566 91.3718 47.1649C91.3283 46.6659 91.0688 46.0419 90.507 45.8522C89.9948 45.6792 89.3063 45.7036 88.884 46.0678C88.566 46.3413 88.4183 46.9478 88.3725 47.3508C88.369 47.3808 88.3525 47.3955 88.323 47.395L86.7795 47.3905C86.76 47.3905 86.751 47.3803 86.7525 47.36C86.9168 45.0842 89.4525 44.7672 91.143 45.1322C92.403 45.4042 92.8148 46.6186 92.817 47.7874C92.821 49.806 92.82 51.8334 92.814 53.8697C92.814 53.8758 92.8128 53.8818 92.8105 53.8874C92.8082 53.893 92.8048 53.898 92.8006 53.9023C92.7963 53.9065 92.7913 53.9099 92.7857 53.9122C92.7802 53.9144 92.7742 53.9155 92.7683 53.9154L91.4385 53.9063C91.42 53.9063 91.4108 53.8966 91.4108 53.8773V52.8007Z" fill="#721B46"/>
<path d="M21.1018 45.3682C21.1143 45.3697 21.1268 45.3733 21.1393 45.3789C21.1618 45.3885 21.173 45.4058 21.173 45.4307V46.4958C21.173 46.5263 21.16 46.5342 21.134 46.5194C20.4725 46.1415 19.9295 45.8802 19.1923 45.8078C18.5998 45.7499 17.6465 45.9389 17.4515 46.6215C17.3263 47.0596 17.429 47.3949 17.7538 47.7194C18.956 48.9225 21.4093 48.9964 21.6883 51.004C21.8015 51.817 21.6365 52.7434 21.0125 53.305C19.7563 54.4356 17.5753 54.2269 16.127 53.7629C16.1035 53.7552 16.0918 53.739 16.0918 53.7141V52.6101C16.0919 52.6044 16.0934 52.5988 16.0961 52.5938C16.0989 52.5888 16.1028 52.5846 16.1075 52.5816C16.1123 52.5787 16.1177 52.577 16.1232 52.5768C16.1287 52.5765 16.1342 52.5778 16.139 52.5804C17.2603 53.1465 18.1573 53.6379 19.4473 53.2577C20.6758 52.8958 20.7748 51.2653 19.6978 50.6192C18.668 50.0013 17.4485 49.5968 16.6108 48.7503C16.4023 48.5392 16.2155 48.1903 16.1705 47.8726C15.743 44.8501 19.1645 44.7846 21.0313 45.3575C21.0368 45.3591 21.0603 45.3626 21.1018 45.3682Z" fill="#721B46"/>
<path d="M53.3165 47.4009C53.507 46.9148 53.6787 46.3456 53.9682 46.0028C54.4502 45.4324 55.0652 45.1736 55.8132 45.2264C55.8447 45.2284 55.8605 45.2454 55.8605 45.2774V46.7464C55.8605 46.7528 55.8591 46.7591 55.8563 46.7648C55.8534 46.7705 55.8493 46.7755 55.8442 46.7794C55.8391 46.7832 55.8332 46.7858 55.8269 46.787C55.8206 46.7881 55.8141 46.7878 55.808 46.786C53.9937 46.258 53.2865 47.9281 53.2782 49.4245C53.2697 50.9783 53.269 52.5341 53.276 54.0919C53.276 54.1224 53.261 54.1376 53.231 54.1376L51.9447 54.1277C51.9177 54.1277 51.9042 54.114 51.9042 54.0866C51.9042 51.9177 51.9035 49.7493 51.902 47.5814C51.9012 46.7136 51.758 46.0576 50.7897 46.002C50.6487 45.9936 50.5107 45.9715 50.378 45.9921C49.91 46.0652 49.4397 46.4713 49.6512 47.0039C50.498 49.1395 49.136 50.7464 47.2985 51.5532C47.273 51.5644 47.2725 51.5769 47.297 51.5906C47.7825 51.8705 48.2472 52.1882 48.6912 52.5437C50.3517 53.8717 50.714 56.3472 49.2545 57.9586C47.3187 60.0972 42.4797 59.634 42.1565 56.2283C42.0195 54.7827 42.5612 53.6424 43.7817 52.8073C43.8047 52.7916 43.829 52.7898 43.8545 52.802L44.495 53.1098C44.5013 53.1128 44.5069 53.1174 44.5111 53.123C44.5154 53.1287 44.5183 53.1353 44.5195 53.1424C44.5208 53.1495 44.5204 53.1567 44.5183 53.1637C44.5163 53.1706 44.5126 53.1769 44.5077 53.1822C43.2687 54.498 43.0842 57.2287 44.714 58.3792C45.3207 58.8073 46.0625 58.9338 46.7892 58.7555C48.302 58.3837 48.7452 57.0222 48.5945 55.5776C48.4917 54.591 47.6892 53.6553 46.8912 53.1525C46.0415 52.6169 44.8835 52.0531 43.8515 51.2508C41.5115 49.4306 42.2862 45.8992 45.2135 45.2325C46.1667 45.0146 47.2887 45.0481 48.149 45.5159C48.248 45.5698 48.3487 45.5982 48.4512 45.6012C48.9172 45.615 49.3835 45.6218 49.85 45.6218C50.9667 45.6218 52.1225 45.3849 53.2302 45.2203C53.2587 45.2162 53.273 45.2289 53.273 45.2584V47.3917C53.2727 47.3971 53.2744 47.4025 53.2777 47.4068C53.281 47.411 53.2857 47.414 53.2909 47.4151C53.2961 47.4162 53.3016 47.4154 53.3063 47.4128C53.311 47.4102 53.3146 47.4059 53.3165 47.4009Z" fill="#721B46"/>
<path d="M82.9821 47.1426C82.9799 46.2481 82.4954 46.0279 81.7049 45.9571C81.6754 45.9545 81.6606 45.938 81.6606 45.9075V45.6736C81.6607 45.6615 81.6649 45.6499 81.6726 45.6407C81.6803 45.6315 81.6909 45.6253 81.7026 45.6233L84.3749 45.1677C84.3778 45.1673 84.3808 45.1675 84.3836 45.1682C84.3864 45.169 84.389 45.1704 84.3913 45.1723C84.3935 45.1742 84.3952 45.1765 84.3964 45.1792C84.3976 45.1818 84.3982 45.1846 84.3981 45.1875V54.0965C84.3981 54.1066 84.3942 54.1163 84.3872 54.1234C84.3801 54.1306 84.3706 54.1346 84.3606 54.1346H83.0331C83.0076 54.1346 82.9949 54.1216 82.9949 54.0957C82.9909 51.7765 82.9866 49.4588 82.9821 47.1426Z" fill="#721B46"/>
<path d="M31.1667 47.3926C31.1669 47.3997 31.1697 47.4066 31.1744 47.4119C31.1791 47.4172 31.1855 47.4207 31.1925 47.4217C31.1995 47.4227 31.2066 47.4212 31.2126 47.4174C31.2185 47.4136 31.223 47.4078 31.2252 47.401C31.5612 46.1484 32.2909 45.1213 33.7077 45.2272C33.7387 45.2298 33.7542 45.2465 33.7542 45.2775V46.745C33.7542 46.7734 33.7404 46.7841 33.7129 46.777C31.7945 46.2444 31.1742 48.025 31.1689 49.5579C31.1639 51.07 31.1639 52.5819 31.1689 54.0935C31.1689 54.121 31.1554 54.1347 31.1284 54.1347H29.8392C29.8122 54.1347 29.7987 54.121 29.7987 54.0935C29.7972 51.8962 29.7967 49.7001 29.7972 47.5053C29.7972 46.7343 29.6809 46.1827 28.8852 46.0204C28.7569 45.9937 28.6167 46.0059 28.4749 45.9945C28.4625 45.9935 28.4508 45.9878 28.4423 45.9785C28.4339 45.9691 28.4292 45.9569 28.4292 45.9442V45.7354C28.4292 45.6963 28.4482 45.6737 28.4862 45.6676L31.1277 45.2234C31.1537 45.2189 31.1667 45.23 31.1667 45.257V47.3926Z" fill="#721B46"/>
<path d="M46.4631 51.1284C44.9976 50.3146 43.5689 49.3204 44.0654 47.3546C44.2694 46.5501 44.9699 45.779 45.8271 45.6632C47.1614 45.4842 48.2309 46.3207 48.5009 47.632C48.8054 49.1108 48.0306 50.4282 46.8201 51.2244C46.799 51.2385 46.7734 51.2437 46.7489 51.2388C46.6584 51.2206 46.5631 51.1837 46.4631 51.1284Z" fill="white"/>
<path d="M69.1115 53.36C67.6032 53.6564 66.9822 52.1783 66.7565 50.9433C66.6365 50.2865 66.6762 49.4705 66.6762 48.7444C66.677 47.6572 67.2515 45.8888 68.5317 45.76C69.4692 45.6663 70.1465 46.4 70.3812 47.2839C70.7732 48.7614 70.7937 50.2446 70.4427 51.7334C70.289 52.3871 69.8187 53.2214 69.1115 53.36Z" fill="white"/>
<path d="M11.3902 53.1277C9.95396 53.6046 9.06221 51.7738 9.86921 50.7269C10.4595 49.9612 11.8507 49.7075 12.7462 49.709C12.7717 49.709 12.785 49.7219 12.786 49.7478C12.8 50.2883 12.802 50.6522 12.792 50.8397C12.7447 51.7555 12.3195 52.8191 11.3902 53.1277Z" fill="white"/>
<path d="M38.2497 53.0149C37.5214 53.3981 36.6514 53.1757 36.3244 52.3741C35.5002 50.3574 37.9459 49.6999 39.3567 49.7197C39.3772 49.7197 39.3879 49.7303 39.3889 49.7517C39.4317 50.9357 39.3874 52.4161 38.2497 53.0149Z" fill="white"/>
<path d="M60.2264 53.1046C58.6289 53.724 57.6704 51.4612 58.9042 50.4653C59.5979 49.9053 60.6502 49.7111 61.5149 49.708C61.5389 49.708 61.5514 49.7202 61.5524 49.7446C61.5937 50.9484 61.5637 52.5857 60.2264 53.1046Z" fill="white"/>
<path d="M91.0799 52.1262C90.4364 53.4763 88.5524 53.6912 88.2291 51.9617C87.8954 50.1765 90.1506 49.7041 91.3709 49.7125C91.3964 49.7125 91.4094 49.7257 91.4099 49.7521C91.4136 50.6001 91.4781 51.2904 91.0799 52.1262Z" fill="white"/>
</svg>
