<svg width="100" height="100" viewBox="0 0 100 100" fill="none" xmlns="http://www.w3.org/2000/svg">
<rect width="100" height="100" fill="white"/>
<path d="M14.3472 37.1642C21.6695 20.4402 39.303 11.8002 56.9366 15.3882C69.5901 17.9642 79.3745 26.3362 84.4503 38.3162C84.4595 38.3374 84.4634 38.3607 84.4614 38.3838C84.4595 38.407 84.4519 38.4293 84.4392 38.4487C84.4265 38.4682 84.4092 38.4841 84.3889 38.4952C84.3685 38.5063 84.3457 38.5121 84.3226 38.5122L25.7597 38.4922C24.0804 38.4921 22.5062 38.4916 21.3573 38.4909C20.2084 38.4902 19.5709 38.4892 19.5746 38.4882C17.7443 38.4695 15.9154 38.4975 14.0878 38.5722C13.9495 38.5802 13.8989 38.5162 13.9362 38.3802C14.0878 37.8495 14.2248 37.4442 14.3472 37.1642Z" fill="#0647A6"/>
<path d="M47.184 17.376C49.7977 13.82 52.5072 18.956 53.3092 21.204C55.0464 26.0626 56.145 31.2146 56.6053 36.66C56.6086 36.7013 56.6033 36.743 56.5898 36.7822C56.5762 36.8214 56.5547 36.8574 56.5266 36.8878C56.4984 36.9183 56.4643 36.9425 56.4263 36.9591C56.3884 36.9756 56.3474 36.9841 56.306 36.984L42.1042 37.036C42.0593 37.0361 42.0149 37.0269 41.9737 37.0089C41.9326 36.9909 41.8956 36.9645 41.8652 36.9314C41.8348 36.8983 41.8116 36.8592 41.7971 36.8166C41.7826 36.774 41.7771 36.7288 41.781 36.684C42.3915 30.552 43.6405 22.192 47.184 17.376Z" fill="white"/>
<path d="M27.5714 36.8281C30.0854 27.9481 36.1029 19.0201 45.596 16.5121C45.6153 16.5071 45.6358 16.5078 45.6548 16.5142C45.6738 16.5206 45.6904 16.5323 45.7024 16.5479C45.7145 16.5634 45.7214 16.582 45.7224 16.6013C45.7233 16.6207 45.7182 16.6397 45.7077 16.6561C42.1443 22.5801 40.9991 30.0561 40.2808 36.8241C40.2648 36.9681 40.1837 37.0401 40.0374 37.0401L27.739 37.0521C27.5847 37.0521 27.5289 36.9774 27.5714 36.8281Z" fill="white"/>
<path d="M58.5049 37.1079C58.3879 37.1082 58.2752 37.0641 58.1899 36.9845C58.1046 36.905 58.0531 36.796 58.046 36.6799C57.5512 29.7079 56.1067 22.9079 52.7467 16.7199C52.6536 16.5493 52.7002 16.4906 52.8864 16.544C62.3077 19.296 67.982 27.592 70.6715 36.788C70.6815 36.8227 70.6834 36.8592 70.677 36.8947C70.6707 36.9302 70.6563 36.9637 70.635 36.9925C70.6136 37.0212 70.586 37.0445 70.5543 37.0603C70.5225 37.0762 70.4875 37.0843 70.4521 37.084L58.5049 37.1079Z" fill="white"/>
<path d="M38.0977 18.2039C32.0284 22.7919 28.1736 29.5599 25.9749 36.7959C25.9244 36.9665 25.8113 37.0519 25.6358 37.0519L16.4379 37.0359C16.3907 37.0354 16.3443 37.0228 16.3032 36.9995C16.2621 36.9761 16.2276 36.9427 16.2029 36.9024C16.1782 36.862 16.1641 36.816 16.1619 36.7687C16.1597 36.7214 16.1696 36.6743 16.1905 36.6319C20.822 27.3625 28.0592 21.0932 37.9022 17.8239C37.9512 17.8069 38.0046 17.8082 38.0527 17.8275C38.1008 17.8468 38.1404 17.8828 38.1641 17.929C38.1879 17.9752 38.1942 18.0284 38.182 18.0788C38.1698 18.1293 38.1399 18.1737 38.0977 18.2039Z" fill="white"/>
<path d="M80.4001 37.0998C77.7797 37.0465 75.2392 37.0532 72.7785 37.1198C72.6243 37.1241 72.4733 37.0762 72.3501 36.984C72.2269 36.8917 72.1388 36.7606 72.1001 36.6118C70.1581 29.1132 66.1983 22.9465 60.2207 18.1118C59.9866 17.9225 60.0172 17.8572 60.3125 17.9158C60.7621 18.0038 61.2835 18.1585 61.8767 18.3798C70.8312 21.7585 77.5337 27.7758 81.9843 36.4318C82.112 36.6772 82.0455 36.8438 81.7848 36.9318C81.415 37.0572 80.9534 37.1132 80.4001 37.0998Z" fill="white"/>
<path d="M74.9928 44.0881L73.5044 43.7921C73.4684 43.785 73.4348 43.7689 73.4066 43.7453C73.3784 43.7217 73.3565 43.6914 73.343 43.6572C73.3295 43.623 73.3248 43.5859 73.3293 43.5494C73.3338 43.5128 73.3473 43.478 73.3687 43.4481L73.4366 43.3601C73.5004 43.2721 73.5869 43.2268 73.696 43.2241L79.6137 43.1441C79.6589 43.1431 79.7037 43.1519 79.7452 43.17C79.7866 43.1881 79.8236 43.215 79.8536 43.2489C79.8836 43.2828 79.9059 43.3228 79.9189 43.3662C79.9319 43.4096 79.9353 43.4553 79.9289 43.5001L79.893 43.7881C79.8744 43.9161 79.8012 43.9721 79.6735 43.9561C78.9686 43.8681 78.3753 44.0521 77.8938 44.5081C77.8375 44.5607 77.793 44.6251 77.7634 44.6968C77.7338 44.7686 77.7198 44.8461 77.7223 44.9241C77.8845 49.1401 77.9218 51.9681 77.834 53.4081C77.7382 54.9735 78.3887 55.7401 79.7853 55.7081C79.8449 55.707 79.9032 55.727 79.9504 55.7649C79.9976 55.8027 80.0309 55.8562 80.0447 55.9161C80.1218 56.2895 80.0074 56.4788 79.7015 56.4841C77.669 56.5081 75.6632 56.5108 73.684 56.4921C73.6409 56.4914 73.5987 56.4799 73.5612 56.4587C73.5237 56.4375 73.492 56.4073 73.4691 56.3708C73.4461 56.3343 73.4326 56.2926 73.4297 56.2496C73.4268 56.2065 73.4346 56.1634 73.4525 56.1241L73.5363 55.9441C73.561 55.8903 73.6016 55.8456 73.6524 55.8162C73.7032 55.7868 73.7617 55.7742 73.8197 55.7801C75.5196 55.9241 75.7909 54.8401 75.7311 53.3881C75.5994 50.2561 75.9306 47.1681 75.2642 44.3481C75.249 44.2826 75.2151 44.2231 75.1669 44.1769C75.1187 44.1307 75.0582 44.0998 74.9928 44.0881Z" fill="#C91828"/>
<path d="M48.6765 44.0839L49.2152 43.4399C49.2673 43.3771 49.3345 43.3286 49.4105 43.2991C49.4864 43.2695 49.5687 43.2599 49.6494 43.2711C49.7301 43.2824 49.8066 43.314 49.8717 43.3632C49.9368 43.4123 49.9883 43.4773 50.0213 43.5519C50.564 44.7919 50.963 45.9066 51.2184 46.8959C51.3195 47.2906 51.2929 47.5413 51.1386 47.6479C50.9834 47.7552 50.7934 47.7995 50.6068 47.7721C50.4203 47.7446 50.251 47.6474 50.133 47.4999C47.933 44.7639 45.1038 43.7893 41.6455 44.5759C38.8003 45.2239 39.5106 47.6239 41.9168 48.2079C44.3151 48.7919 52.2799 49.4839 52.1921 52.8999C52.1482 54.6359 50.3246 55.8919 48.7923 56.3599C45.7277 57.3039 42.7947 57.0333 39.9935 55.5479C39.9665 55.5337 39.9365 55.5258 39.906 55.525C39.8755 55.5242 39.8452 55.5304 39.8174 55.5431C39.7897 55.5559 39.7652 55.5748 39.7459 55.5985C39.7266 55.6223 39.713 55.6501 39.7062 55.6799C39.5811 56.2426 39.2579 56.6253 38.7365 56.8279C38.5077 56.9159 38.3614 56.8413 38.2976 56.6039L37.1962 52.5319C37.1699 52.4349 37.1807 52.3315 37.2263 52.2414C37.272 52.1513 37.3494 52.081 37.4436 52.0439C37.9384 51.8479 38.1858 52.0159 38.4851 52.4199C40.6931 55.3879 43.6699 56.4866 47.4156 55.7159C49.3988 55.3079 51.7292 52.5919 48.4651 51.6279C46.6188 51.0839 44.4281 50.5679 41.8929 50.0799C39.9176 49.6999 36.6894 48.3759 37.679 46.0399C39.1475 42.5759 45.5281 42.9799 48.3174 44.1679C48.3788 44.1943 48.4469 44.2004 48.5116 44.1853C48.5763 44.1701 48.6341 44.1346 48.6765 44.0839Z" fill="#C91828"/>
<path d="M57.2638 55.724C57.4059 55.7064 57.5367 55.6373 57.6315 55.5297C57.7264 55.4222 57.7786 55.2835 57.7785 55.14C57.7865 52.1347 57.7865 49.088 57.7785 46C57.7785 45.6027 57.7134 45.112 57.583 44.528C57.5691 44.4657 57.5365 44.4091 57.4895 44.3656C57.4425 44.322 57.3833 44.2936 57.3196 44.284L55.6517 44.048C55.5426 44.032 55.488 43.9693 55.488 43.86V43.616C55.488 43.424 55.5825 43.328 55.7714 43.328L69.223 43.292C69.3586 43.292 69.4544 43.356 69.5103 43.484L70.875 46.604C70.9282 46.724 70.9042 46.824 70.8031 46.904C70.3443 47.272 69.8973 47.048 69.602 46.592C67.6747 43.62 63.808 44.368 60.7115 44.276C60.6291 44.2733 60.547 44.2873 60.4702 44.317C60.3933 44.3468 60.3232 44.3917 60.264 44.4492C60.2048 44.5067 60.1577 44.5755 60.1256 44.6515C60.0935 44.7276 60.0769 44.8094 60.077 44.892V49.24C60.0769 49.2722 60.0834 49.3041 60.0961 49.3337C60.1088 49.3632 60.1274 49.3897 60.1506 49.4115C60.1739 49.4334 60.2014 49.45 60.2313 49.4604C60.2612 49.4708 60.2929 49.4748 60.3244 49.472L64.5343 49.164C64.6112 49.1579 64.6844 49.1296 64.7448 49.0826C64.8051 49.0357 64.8499 48.9721 64.8734 48.9L65.468 47.152C65.5052 47.0453 65.5757 46.972 65.6795 46.932C65.9402 46.8227 66.1357 46.84 66.2661 46.984C66.3512 47.0773 66.3938 47.244 66.3938 47.484C66.3858 49.188 66.4217 50.8867 66.5015 52.58C66.5122 52.764 66.4257 52.8413 66.2421 52.812L65.6117 52.72C65.4494 52.6933 65.3762 52.5973 65.3922 52.432C65.6436 49.848 62.2039 50.44 60.2246 50.548C60.0916 50.556 60.0278 50.6267 60.0331 50.76L60.2047 55.108C60.2114 55.2672 60.275 55.4188 60.384 55.5354C60.4931 55.6521 60.6403 55.726 60.7993 55.744L62.2119 55.904C62.2965 55.9167 62.3734 55.9608 62.4273 56.0274C62.4813 56.0941 62.5084 56.1786 62.5034 56.2643C62.4984 56.3499 62.4617 56.4307 62.4003 56.4906C62.339 56.5505 62.2575 56.5852 62.1719 56.588L55.5878 56.536C55.3537 56.5333 55.2965 56.432 55.4162 56.232L55.516 56.064C55.5665 55.9813 55.6397 55.9333 55.7355 55.92L57.2638 55.724Z" fill="#C91828"/>
<path d="M19.427 54.8638C16.1668 52.0598 16.2786 47.5038 20.1173 45.1478C23.4373 43.1078 26.8757 42.8545 30.4325 44.3878C30.5442 44.4385 30.636 44.4132 30.7078 44.3118L31.0709 43.8038C31.1309 43.7196 31.2127 43.6534 31.3075 43.6124C31.4023 43.5714 31.5064 43.5572 31.6087 43.5712C31.711 43.5852 31.8075 43.6269 31.8878 43.6919C31.9681 43.7568 32.0292 43.8426 32.0645 43.9398L33.3654 47.4878C33.4141 47.6212 33.4123 47.7679 33.3603 47.9001C33.3083 48.0323 33.2097 48.1407 33.0833 48.2048C32.9568 48.269 32.8112 48.2843 32.6742 48.248C32.5372 48.2117 32.4182 48.1262 32.3399 48.0078C31.6216 46.9118 30.9353 45.9118 29.7741 45.2798C26.5418 43.5238 21.6257 44.3038 20.1173 48.1078C19.2035 50.4078 19.9856 52.9798 21.8651 54.4678C25.0973 57.0318 29.9855 55.9478 32.9584 53.4438C32.974 53.4299 33.0185 53.4092 33.0861 53.3842C33.1536 53.3593 33.2412 53.3313 33.3375 53.3038C33.5795 53.2318 33.7525 53.3038 33.8562 53.5198C33.9147 53.6452 33.8975 53.7585 33.8043 53.8598C30.2449 57.6838 23.3815 58.2638 19.427 54.8638Z" fill="#C91828"/>
<path d="M84.2469 60.584C80.049 72.072 70.101 80.352 58.4291 83.26C39.9896 87.852 20.7958 78.472 14.0561 60.592C14.0082 60.464 14.0534 60.4 14.1917 60.4L84.1152 60.396C84.2482 60.396 84.2921 60.4587 84.2469 60.584Z" fill="#0647A6"/>
<path d="M38.0021 80.6079C38.2123 80.7572 38.3533 80.9159 38.4251 81.0839C38.4969 81.2572 38.4451 81.3159 38.2695 81.2599C28.219 78.0732 20.8661 71.7599 16.2106 62.3199C16.067 62.0266 16.1574 61.8799 16.482 61.8799L25.8634 61.9079C25.9858 61.9079 26.0629 61.9679 26.0948 62.0879C27.9942 69.2279 31.8849 76.2719 38.0021 80.6079Z" fill="white"/>
<path d="M40.0132 61.916C40.0558 61.9167 40.0968 61.9329 40.1283 61.9616C40.1599 61.9903 40.18 62.0296 40.1848 62.072C40.8392 68.896 42.1162 76.156 45.5798 82.168C45.6809 82.344 45.6344 82.408 45.4402 82.36C36.0268 80.068 29.9495 70.772 27.5712 61.996C27.5669 61.9806 27.5662 61.9643 27.5692 61.9486C27.5722 61.9328 27.5788 61.918 27.5884 61.9052C27.5981 61.8924 27.6106 61.8821 27.6249 61.8749C27.6392 61.8678 27.655 61.864 27.671 61.864L40.0132 61.916Z" fill="white"/>
<path d="M72.0959 62.616C72.4391 61.44 73.0377 61.888 73.9076 61.892C76.5732 61.9053 79.2148 61.9066 81.8325 61.896C81.8708 61.8955 81.9086 61.9049 81.9423 61.9233C81.976 61.9417 82.0045 61.9685 82.0252 62.0012C82.0459 62.0339 82.0581 62.0715 82.0607 62.1105C82.0633 62.1494 82.0562 62.1884 82.04 62.224C77.7144 71.524 69.8494 78.004 60.2684 81.172C60.2165 81.1869 60.161 81.1832 60.1115 81.1614C60.0621 81.1396 60.0217 81.1012 59.9976 81.0527C59.9734 81.0043 59.9669 80.9489 59.9792 80.8962C59.9915 80.8434 60.0218 80.7967 60.0649 80.764C66.1423 76.536 70.0489 69.616 72.0959 62.616Z" fill="white"/>
<path d="M51.1705 81.5639C48.0421 85.1959 45.596 79.3519 44.738 76.7919C43.1419 72.0266 42.1669 67.1372 41.8131 62.1239C41.8024 61.9746 41.8716 61.8999 42.0206 61.8999H56.4857C56.632 61.8999 56.6972 61.9732 56.6812 62.1199C56.0707 67.4719 54.7818 77.3719 51.1705 81.5639Z" fill="white"/>
<path d="M58.1297 62.0319C58.1328 61.9958 58.1492 61.9622 58.1758 61.9378C58.2024 61.9133 58.2373 61.8998 58.2734 61.8999H70.5518C70.7114 61.8999 70.7686 61.9759 70.7234 62.1279C68.0738 70.8799 62.2159 80.2559 52.7547 82.3119C52.731 82.3164 52.7065 82.3139 52.6843 82.3046C52.662 82.2954 52.6429 82.2798 52.6294 82.2599C52.6158 82.2399 52.6083 82.2164 52.6079 82.1922C52.6075 82.1681 52.6141 82.1443 52.627 82.1239C56.3261 76.6879 57.4993 68.4599 58.1297 62.0319Z" fill="white"/>
</svg>
