<svg width="100" height="100" viewBox="0 0 100 100" fill="none" xmlns="http://www.w3.org/2000/svg">
<rect width="100" height="100" fill="#940384"/>
<g clip-path="url(#clip0_29_2569)">
<path d="M12 31H88V69H12V31Z" fill="#940384"/>
<path d="M81.9874 63.6626L81.4692 63.9182" stroke="#724E64" stroke-width="2"/>
<path d="M81.4694 63.9183L81.5557 63.7577C81.5708 63.7298 81.577 63.698 81.5735 63.6665C81.57 63.635 81.5569 63.6053 81.5361 63.5814C81.5152 63.5575 81.4875 63.5406 81.4568 63.5329C81.426 63.5252 81.3937 63.5271 81.364 63.5383C78.3102 64.7077 74.6881 64.4175 71.5047 64.1705C69.7233 64.0323 67.2061 63.7064 63.9531 63.1929C62.7267 62.9994 61.3916 62.958 60.1047 62.7904C59.9838 62.7743 59.8652 62.7835 59.7489 62.818C59.6948 62.833 59.6683 62.863 59.6695 62.9079C59.6706 62.9666 59.7011 62.9954 59.761 62.9942C59.8462 62.9919 59.8871 63.0155 59.8836 63.065" stroke="#AFA1A2" stroke-width="2"/>
<path d="M59.8837 63.065C57.9975 62.8773 56.3583 62.9107 54.9661 63.1652C54.1048 63.3241 53.3805 63.7087 52.7932 64.319C52.7833 64.329 52.7712 64.3365 52.758 64.341C52.7447 64.3455 52.7307 64.3469 52.7169 64.3451C52.7031 64.3432 52.6901 64.3382 52.6787 64.3304C52.6674 64.3226 52.6581 64.3122 52.6516 64.3L49.3818 58.353" stroke="#724E64" stroke-width="2"/>
<path d="M59.8838 63.0649C64.2693 63.4104 69.0159 64.2585 72.1837 64.5694C75.3032 64.8769 78.5332 65.0271 81.4695 63.9182" stroke="#724E64" stroke-width="2"/>
<path d="M75.866 33.8948C75.8695 33.9121 75.8695 33.927 75.866 33.9397C75.8603 33.9662 75.8436 33.9788 75.8159 33.9777L74.745 33.9224C74.6656 33.919 74.6253 33.957 74.6241 34.0364L74.6155 34.8085L74.6017 37.3891L73.871 37.3372C73.8008 37.3315 73.7657 37.2935 73.7657 37.2232L73.7881 34.2782C73.7904 34.0698 73.6868 33.9662 73.4772 33.9673L72.5928 33.976L72.5462 33.3265C72.5393 33.2436 72.5779 33.2021 72.6619 33.2021H75.7468C75.8205 33.2021 75.858 33.2396 75.8591 33.3144L75.866 33.8948Z" fill="white"/>
<path d="M79.1151 35.073C79.3189 35.7864 79.2688 36.8504 78.5502 37.2667C78.1092 37.5212 77.6906 37.4907 77.2945 37.1751C77.2392 37.1314 77.1857 37.1337 77.1339 37.182C76.9266 37.379 76.6669 37.4256 76.3549 37.322C76.3404 37.3175 76.3277 37.3084 76.3186 37.2959C76.3096 37.2835 76.3048 37.2684 76.3048 37.2529L76.3031 33.8864L76.2979 33.294C76.2967 33.2318 76.3272 33.2007 76.3894 33.2007L77.0061 33.2041C77.036 33.2046 77.0646 33.2168 77.0856 33.2381C77.1066 33.2595 77.1183 33.2882 77.1183 33.3181V34.5013C77.1183 34.5911 77.1546 34.6101 77.2272 34.5583C77.9745 34.0286 78.6038 34.2002 79.1151 35.073Z" fill="white"/>
<path d="M82.5607 37.303C81.5588 37.664 81.4103 36.8314 81.0217 36.1612C81.0085 36.1384 80.9895 36.1196 80.9666 36.1066C80.9437 36.0937 80.9178 36.0871 80.8914 36.0877C80.8651 36.0882 80.8395 36.0958 80.8171 36.1096C80.7947 36.1235 80.7765 36.1431 80.7643 36.1664C80.5962 36.4854 80.5634 36.8199 80.6658 37.17C80.672 37.1906 80.6732 37.2124 80.6694 37.2336C80.6655 37.2549 80.6567 37.2749 80.6436 37.2922C80.6305 37.3095 80.6135 37.3235 80.594 37.3332C80.5745 37.3429 80.5529 37.3479 80.5311 37.3479H79.9197C79.8862 37.3479 79.8541 37.3346 79.8305 37.3109C79.8069 37.2873 79.7936 37.2552 79.7936 37.2218L79.7832 33.6636L79.7936 33.2957C79.7947 33.2324 79.827 33.2007 79.8903 33.2007L80.5035 33.2041C80.5334 33.2046 80.562 33.2168 80.583 33.2381C80.604 33.2595 80.6158 33.2882 80.6157 33.3181V35.2872C80.6157 35.4035 80.6526 35.4168 80.7263 35.327L81.5157 34.3683C81.5236 34.3587 81.5336 34.351 81.5447 34.3459C81.5557 34.3408 81.5677 34.3384 81.5796 34.339L82.3707 34.3597C82.3837 34.3596 82.3965 34.3634 82.4074 34.3706C82.4182 34.3778 82.4267 34.3881 82.4317 34.4001C82.4367 34.4122 82.438 34.4255 82.4355 34.4382C82.4329 34.451 82.4266 34.4628 82.4173 34.472L81.5433 35.4012C81.5248 35.4211 81.5131 35.4462 81.51 35.473C81.5069 35.4997 81.5125 35.5267 81.526 35.5498L82.5607 37.303Z" fill="white"/>
<path d="M79.7832 33.6636L79.7936 37.2218C79.7936 37.2552 79.8069 37.2873 79.8305 37.3109C79.8542 37.3346 79.8862 37.3478 79.9197 37.3478H80.5311C80.553 37.3479 80.5745 37.3428 80.594 37.3332C80.6136 37.3235 80.6305 37.3095 80.6436 37.2922C80.6567 37.2749 80.6656 37.2548 80.6694 37.2336C80.6733 37.2124 80.6721 37.1906 80.6659 37.1699C80.5634 36.8199 80.5962 36.4854 80.7643 36.1664C80.7765 36.1431 80.7947 36.1235 80.8171 36.1096C80.8395 36.0958 80.8652 36.0882 80.8915 36.0876C80.9178 36.0871 80.9437 36.0937 80.9667 36.1066C80.9896 36.1195 81.0086 36.1384 81.0217 36.1612C81.4103 36.8314 81.5589 37.6639 82.5607 37.3029L82.16 37.9265C82.1308 37.9725 82.0892 38.0081 82.0408 38.0284C81.5191 38.2512 81.3378 37.7607 81.1063 37.4377C81.0945 37.4213 81.0789 37.4079 81.0609 37.3987C81.0429 37.3895 81.0229 37.3847 81.0027 37.3847C80.9824 37.3847 80.9625 37.3895 80.9445 37.3987C80.9265 37.4079 80.9109 37.4213 80.8991 37.4377L80.4914 38.018C80.4759 38.0399 80.4546 38.0572 80.4299 38.0678C80.4052 38.0785 80.3781 38.0822 80.3515 38.0785C80.0112 38.037 79.3462 38.0249 79.3359 37.5758C79.3349 37.5377 79.3209 37.501 79.2962 37.4719C79.2716 37.4428 79.2377 37.4229 79.2002 37.4157C79.1627 37.4084 79.1239 37.4142 79.0902 37.432C79.0564 37.4498 79.0297 37.4786 79.0146 37.5137C78.7572 38.1148 78.3289 38.1424 77.6984 38.0854C77.1825 38.0393 76.6649 38.0255 76.1456 38.0439C76.0754 38.0462 76.0385 38.0157 76.0351 37.9524L75.8796 34.7448C75.8789 34.7268 75.8743 34.709 75.8662 34.6928C75.8581 34.6766 75.8466 34.6623 75.8326 34.6509C75.8185 34.6395 75.8022 34.6312 75.7847 34.6265C75.7672 34.6219 75.7489 34.621 75.7311 34.6239L74.6152 34.8088L74.6239 34.0367C74.625 33.9572 74.6653 33.9192 74.7448 33.9227L75.8157 33.9779C75.8433 33.9791 75.86 33.9664 75.8658 33.9399C75.8692 33.9273 75.8692 33.9123 75.8658 33.895C75.9878 33.9595 76.1335 33.9566 76.3028 33.8864L76.3045 37.2528C76.3045 37.2684 76.3093 37.2835 76.3184 37.2959C76.3274 37.3084 76.3401 37.3175 76.3546 37.3219C76.6667 37.4256 76.9263 37.3789 77.1336 37.182C77.1854 37.1337 77.239 37.1314 77.2942 37.1751C77.6904 37.4906 78.1089 37.5211 78.55 37.2667C79.2685 36.8504 79.3186 35.7864 79.1148 35.073C79.1885 35.0385 79.2495 34.9901 79.2979 34.9279C79.3324 34.8807 79.3497 34.8278 79.3497 34.769C79.3451 34.3107 79.4896 33.9422 79.7832 33.6636Z" fill="#460637"/>
<path d="M74.6018 37.389C74.6801 37.5088 74.6887 37.6441 74.6277 37.7949C74.6047 37.8514 74.5655 37.8928 74.5102 37.9193C74.2523 38.0448 73.9794 38.0989 73.6915 38.0817C73.609 38.0765 73.5313 38.0407 73.4738 37.9813C73.4163 37.9219 73.383 37.8431 73.3806 37.7604L73.296 34.8067C73.2955 34.7844 73.2863 34.7632 73.2702 34.7474C73.2541 34.7316 73.2324 34.7225 73.2096 34.7221L72.6137 34.71C72.5897 34.7095 72.5661 34.7033 72.5451 34.6919C72.524 34.6804 72.5061 34.6642 72.4928 34.6444C72.1865 34.2057 72.2199 33.9828 72.593 33.9759L73.4773 33.9673C73.6869 33.9661 73.7905 34.0698 73.7882 34.2782L73.7658 37.2232C73.7658 37.2934 73.8009 37.3314 73.8712 37.3372L74.6018 37.389Z" fill="#460637"/>
<path d="M60.3689 34.0296V45.6801C60.3689 45.7457 60.4017 45.7786 60.4674 45.7786L64.1465 45.7578C64.2248 45.9133 64.219 46.0238 64.1292 46.0895C64.0866 46.1194 64.0722 46.1597 64.086 46.2104C64.139 46.4027 64.0641 46.5178 63.8615 46.5558C62.604 46.7942 61.3235 46.7614 60.02 46.4574L60.0321 34.0573C60.1196 33.979 60.2319 33.9698 60.3689 34.0296Z" fill="#460637"/>
<path d="M71.3748 45.8112L67.9963 45.8095C67.9352 45.8094 67.8755 45.7928 67.8234 45.7615C67.7713 45.7301 67.729 45.6852 67.7009 45.6316C67.0687 44.434 66.4107 43.2198 65.7267 41.9888C65.3622 41.3324 64.9511 41.0094 64.2101 41.0647C64.1525 41.0682 64.1237 41.0987 64.1237 41.1562L64.1324 41.9042L64.1462 45.7577L60.4671 45.7784C60.4015 45.7784 60.3687 45.7456 60.3687 45.68V34.0295C62.3988 33.9812 64.4266 33.9645 66.4521 33.9794C68.5801 33.995 70.8446 34.4872 70.9793 37.0471C71.076 38.8745 70.2239 40.0387 68.4229 40.5396C68.3527 40.5592 68.3515 40.5828 68.4195 40.6104C69.0816 40.8799 69.5854 41.3267 69.9308 41.9508C70.616 43.1852 71.2816 44.4306 71.9276 45.6869C71.9529 45.7352 71.9385 45.7617 71.8844 45.7663L71.3748 45.8112Z" fill="white"/>
<path d="M60.0318 34.0573L60.0197 46.4574L59.9938 51.6807L54.8845 51.6824C54.8304 51.6824 54.7883 51.6599 54.7584 51.615L48.3416 42.1772C48.3036 42.1208 48.2846 42.1265 48.2846 42.1945L48.2811 43.1704C48.2616 47.3884 48.2587 50.1255 48.2725 51.3819C48.2736 51.5304 48.2414 51.6271 48.1758 51.672L45.2584 51.6479C45.1985 51.6467 45.1715 51.6761 45.1772 51.7359L45.2757 52.6341C45.6039 56.7519 46.061 60.8249 46.6471 64.8529L37.2421 64.8546C37.2049 64.8546 37.1691 64.8404 37.1418 64.8148C37.1146 64.7891 37.0979 64.7539 37.0953 64.7164L36.7291 59.8368C36.7257 59.7862 36.6986 59.7608 36.6479 59.7608L26.6643 59.7557C26.6171 59.7557 26.5831 59.7764 26.5624 59.8179L24.0993 64.7216C24.0717 64.7757 24.0273 64.8033 23.9663 64.8045L14.8929 64.8149C14.8457 64.8022 14.8394 64.7642 14.8739 64.7009C20.6275 54.199 27.046 44.6679 32.0689 34.0884C32.0897 34.0446 32.1242 34.0228 32.1726 34.0228H42.3117C42.3492 34.0227 42.3857 34.0355 42.4149 34.0591C42.4441 34.0827 42.4644 34.1156 42.4723 34.1523L43.0699 36.9159C43.0976 37.0426 43.1102 37.0415 43.1079 36.9125L43.0613 34.1005C43.0602 34.0452 43.0872 34.0176 43.1425 34.0176L48.2639 34.0314C48.2907 34.0319 48.3168 34.04 48.3392 34.0547C48.3615 34.0694 48.3791 34.09 48.3899 34.1143C48.4176 34.1834 48.4072 34.2179 48.4539 34.2888C50.5036 37.3783 52.5947 40.462 54.7273 43.54C54.7976 43.6414 54.8304 43.6304 54.8258 43.5072C54.7221 40.3809 54.7619 37.251 54.7463 34.1212C54.7452 34.0613 54.7745 34.0314 54.8344 34.0314L60.0318 34.0573Z" fill="white"/>
<path d="M77.1012 35.8676C77.1096 36.397 77.414 36.8214 77.7812 36.8157C78.1484 36.8099 78.4394 36.3761 78.4311 35.8467C78.4228 35.3173 78.1183 34.8929 77.7511 34.8986C77.3839 34.9044 77.0929 35.3382 77.1012 35.8676Z" fill="#460637"/>
<path d="M67.2315 37.5859C66.4462 37.2485 65.6251 37.1575 64.7684 37.3129C64.7062 37.3245 64.6481 37.3135 64.594 37.2801L64.1138 36.983L64.1276 36.5633C64.1287 36.5023 64.1604 36.4723 64.2226 36.4735C65.176 36.4873 67.235 36.1073 67.2315 37.5859Z" fill="#460637"/>
<path d="M64.1138 36.9834L64.594 37.2805C64.6481 37.3139 64.7062 37.3248 64.7684 37.3133C65.6251 37.1579 66.4462 37.2488 67.2315 37.5862C67.2419 38.9266 65.1398 38.7849 64.2105 38.7089C64.1575 38.7043 64.131 38.6761 64.131 38.6243L64.1138 36.9834Z" fill="#940384"/>
<path d="M71.3751 45.8112L71.3734 46.0651C71.3722 46.1181 71.3976 46.1498 71.4494 46.1601C71.6094 46.1935 71.7148 46.2851 71.7655 46.4348C71.7851 46.4935 71.7655 46.5332 71.7068 46.5539C71.4488 46.6461 71.2231 46.6898 71.0297 46.6852C69.4763 46.6472 68.4716 46.6305 68.0156 46.6351C67.6851 46.6374 67.4381 46.5067 67.2746 46.243C66.7391 45.3817 66.2324 44.5019 65.7546 43.6038C65.7309 43.5586 65.7201 43.5078 65.7235 43.4569C65.7258 43.4155 65.7189 43.3844 65.7028 43.3637C65.2882 42.8161 64.6508 41.7901 64.1327 41.9041L64.124 41.1562C64.124 41.0986 64.1528 41.0681 64.2104 41.0647C64.9514 41.0094 65.3625 41.3324 65.7269 41.9888C66.4109 43.2197 67.069 44.434 67.7012 45.6316C67.7293 45.6852 67.7716 45.7301 67.8237 45.7614C67.8757 45.7928 67.9355 45.8094 67.9966 45.8095L71.3751 45.8112Z" fill="#460637"/>
<path d="M59.9939 51.6805C60.0353 52.2333 59.8488 52.4854 59.2753 52.5027C58.0645 52.5442 55.2543 52.862 54.3077 52.1158C54.1465 51.9891 54.0077 51.8417 53.8914 51.6736C53.0485 50.4519 52.1279 49.1098 51.1295 47.6473C50.5215 46.7595 49.0637 45.1134 48.7148 43.8093C48.6284 43.4892 48.4839 43.2762 48.2812 43.1703L48.2847 42.1943C48.2847 42.1264 48.3037 42.1206 48.3417 42.1771L54.7585 51.6149C54.7885 51.6598 54.8305 51.6823 54.8846 51.6823L59.9939 51.6805Z" fill="#460637"/>
<path d="M36.4236 52.9847L30.2849 53.0348C30.2193 53.0348 30.2014 53.0055 30.2314 52.9467L35.8346 42.2722C35.868 42.2089 35.8864 42.2129 35.8899 42.2843L36.4944 52.9105C36.4967 52.96 36.4731 52.9847 36.4236 52.9847Z" fill="#940384"/>
<path d="M48.1761 51.6722C48.2797 51.9013 48.3062 52.1374 48.2555 52.3803C48.2417 52.4437 48.2025 52.4771 48.1381 52.4805L45.276 52.6343L45.1775 51.7361C45.1718 51.6762 45.1988 51.6468 45.2587 51.648L48.1761 51.6722Z" fill="#460637"/>
<path d="M81.9876 63.6628L81.4694 63.9184L81.5557 63.7578C81.5708 63.7299 81.577 63.6981 81.5735 63.6666C81.57 63.6351 81.5569 63.6054 81.5361 63.5815C81.5152 63.5577 81.4875 63.5407 81.4568 63.533C81.426 63.5253 81.3937 63.5272 81.364 63.5384C78.3102 64.7078 74.6881 64.4176 71.5047 64.1706C69.7234 64.0324 67.2061 63.7066 63.9531 63.193C62.7267 62.9995 61.3916 62.9581 60.1047 62.7905C59.9838 62.7744 59.8652 62.7836 59.7489 62.8182C59.6948 62.8331 59.6683 62.8631 59.6695 62.908C59.6706 62.9667 59.7011 62.9955 59.761 62.9943C59.8462 62.992 59.8871 63.0156 59.8837 63.0652C57.9975 62.8775 56.3583 62.9109 54.9661 63.1653C54.1048 63.3243 53.3805 63.7089 52.7932 64.3192C52.7833 64.3291 52.7712 64.3366 52.758 64.3411C52.7447 64.3457 52.7307 64.3471 52.7169 64.3452C52.7031 64.3434 52.6901 64.3383 52.6787 64.3305C52.6674 64.3227 52.6581 64.3123 52.6516 64.3002L49.3818 58.3532C50.1038 57.6127 51.055 57.1556 52.2353 56.9817C54.6742 56.6224 57.1027 56.8332 59.5278 57.1683C62.5909 57.5897 65.651 58.033 68.7083 58.4982C69.4741 58.6146 70.3889 58.7096 71.4529 58.7833C73.821 58.9456 75.4153 59.0233 77.4034 58.3048C77.6141 58.2288 77.8887 57.9645 78.2117 57.9438C78.2693 57.9403 78.3165 57.9611 78.3534 58.006C79.7369 59.6832 81.3347 61.3966 82.5368 63.1947C82.5436 63.2048 82.5483 63.2161 82.5507 63.228C82.5531 63.2399 82.553 63.2521 82.5506 63.264C82.5482 63.2759 82.5435 63.2872 82.5367 63.2973C82.5298 63.3073 82.5211 63.3159 82.5109 63.3225L81.9876 63.6628Z" fill="#9E9691"/>
<path d="M46.6475 64.853L46.4126 65.4507C46.3896 65.506 46.3493 65.5405 46.2917 65.5543C45.6423 65.7098 44.9203 65.5975 44.4314 65.601C42.0662 65.6171 39.701 65.6079 37.3358 65.5733C37.0376 65.5687 36.885 65.4409 36.8781 65.1899C36.8355 63.6883 36.722 62.2074 36.5378 60.7473C36.5321 60.7011 36.5101 60.6584 36.4756 60.6267C36.4411 60.5951 36.3965 60.5766 36.3495 60.5746C33.2186 60.4733 30.0876 60.4715 26.9566 60.5694C26.9013 60.5717 26.8541 60.593 26.815 60.6333C26.5582 60.9062 26.4022 61.0933 26.3469 61.1947C25.5903 62.5926 24.8839 64.0142 24.2275 65.4593C24.2033 65.5134 24.163 65.5503 24.1066 65.5699C23.4865 65.7754 22.2999 65.715 21.628 65.696C19.5161 65.6361 17.4031 65.6338 15.2889 65.689C15.1173 65.6936 14.9987 65.681 14.9331 65.651C14.5945 65.4973 14.8484 65.0707 14.8933 64.815L23.9667 64.8047C24.0277 64.8035 24.0721 64.7759 24.0997 64.7218L26.5628 59.818C26.5835 59.7766 26.6175 59.7559 26.6647 59.7559L36.6483 59.761C36.699 59.761 36.7261 59.7864 36.7295 59.837L37.0957 64.7166C37.0983 64.7541 37.115 64.7893 37.1422 64.8149C37.1695 64.8406 37.2053 64.8548 37.2425 64.8548L46.6475 64.853Z" fill="#460637"/>
</g>
<defs>
<clipPath id="clip0_29_2569">
<rect width="76" height="38" fill="white" transform="translate(12 31)"/>
</clipPath>
</defs>
</svg>
