<svg width="100" height="100" viewBox="0 0 100 100" fill="none" xmlns="http://www.w3.org/2000/svg">
<rect width="100" height="100" fill="white"/>
<g clip-path="url(#clip0_29_2570)">
<path d="M0 16H100V83H0V16Z" fill="white"/>
<path d="M37.5942 34.0601C37.4155 34.1396 37.2168 34.1959 36.9982 34.2291C28.1768 35.5558 20.1135 38.7401 12.8082 43.782C12.7615 43.8152 12.7315 43.8503 12.7182 43.8874C12.7022 43.9351 12.7008 43.9828 12.7142 44.0305" stroke="#5B80B1" stroke-width="2"/>
<path d="M12.7139 44.0307C12.4153 44.1527 12.1246 44.3309 11.8419 44.5655C11.6486 44.7233 11.5726 44.9022 11.6139 45.1023C11.6196 45.1291 11.631 45.1542 11.6475 45.1761C11.6639 45.1979 11.685 45.2159 11.7092 45.2288C11.7334 45.2417 11.7602 45.2492 11.7876 45.2507C11.815 45.2522 11.8425 45.2477 11.8679 45.2375C15.3959 43.822 18.9679 42.4025 22.6119 41.3169C26.7479 40.0843 30.9279 38.9835 35.1519 38.0146" stroke="#92A2C1" stroke-width="2"/>
<path d="M35.1519 38.0144C36.6919 37.7825 38.2345 37.5346 39.7799 37.2709C47.6899 35.9209 55.8579 35.3265 63.6639 35.2092C64.0399 35.2039 64.3105 35.1449 64.4759 35.0322" stroke="#5B80B1" stroke-width="2"/>
<path d="M35.1519 38.0146C31.9039 38.4547 29.0865 38.969 26.6999 39.5574C24.5465 40.0889 21.9072 40.8491 18.7819 41.8378C16.7919 42.4661 14.7399 43.2852 12.7139 44.0307" stroke="#C8DDEF" stroke-width="2"/>
<path d="M37.594 34.0604C37.4153 34.1399 37.2167 34.1962 36.998 34.2294C28.1767 35.5561 20.1133 38.7404 12.808 43.7823C12.7613 43.8155 12.7313 43.8506 12.718 43.8877C12.702 43.9354 12.7007 43.9831 12.714 44.0309C12.4153 44.1528 12.1247 44.3311 11.842 44.5657C11.6487 44.7234 11.5727 44.9023 11.614 45.1025C11.6196 45.1292 11.6311 45.1544 11.6475 45.1762C11.664 45.1981 11.6851 45.2161 11.7093 45.229C11.7335 45.2418 11.7602 45.2493 11.7877 45.2508C11.8151 45.2523 11.8425 45.2478 11.868 45.2377C15.396 43.8221 18.968 42.4026 22.612 41.3171C26.748 40.0844 30.928 38.9837 35.152 38.0148C36.692 37.7828 38.2347 37.535 39.78 37.2712C47.69 35.9213 55.858 35.3268 63.664 35.2095C64.04 35.2042 64.3107 35.1452 64.476 35.0326C64.6667 35.1558 64.6973 35.3083 64.568 35.4898C64.5293 35.5442 64.4767 35.5747 64.41 35.5813C59.7793 36.0319 54.876 36.6456 49.7 37.4223C45.52 38.0492 41.5153 39.0373 37.686 40.3866C37.6608 40.3953 37.639 40.4115 37.6236 40.4329C37.6081 40.4542 37.5999 40.4798 37.6 40.5059V44.4822C37.6 44.5074 37.595 44.5324 37.5852 44.5557C37.5754 44.5789 37.5611 44.6001 37.5431 44.6178C37.525 44.6356 37.5036 44.6496 37.4801 44.6591C37.4566 44.6685 37.4314 44.6733 37.406 44.673C26.468 44.6054 15.408 46.2158 5.162 50.1523C5.14382 50.1591 5.12427 50.1614 5.10501 50.1592C5.08575 50.1569 5.06736 50.1502 5.05143 50.1394C5.0355 50.1286 5.0225 50.1143 5.01354 50.0975C5.00458 50.0807 4.99993 50.062 5 50.043V32.9987C5 32.9592 5.0158 32.9212 5.04393 32.8933C5.07207 32.8653 5.11022 32.8496 5.15 32.8496H37.404C37.4296 32.8496 37.455 32.8547 37.4787 32.8645C37.5024 32.8743 37.5238 32.8887 37.5419 32.9068C37.5599 32.9249 37.5742 32.9464 37.5838 32.97C37.5934 32.9937 37.5983 33.019 37.598 33.0444L37.594 34.0604Z" fill="#254483"/>
<path d="M64.4762 35.0325C64.3108 35.1452 64.0402 35.2042 63.6642 35.2095C55.8582 35.3268 47.6902 35.9212 39.7802 37.2711C38.2348 37.5349 36.6922 37.7828 35.1522 38.0147C31.9042 38.4547 29.0868 38.969 26.7002 39.5575C24.5468 40.089 21.9075 40.8491 18.7822 41.8379C16.7922 42.4661 14.7402 43.2852 12.7142 44.0308C12.7008 43.9831 12.7022 43.9354 12.7182 43.8876C12.7315 43.8505 12.7615 43.8154 12.8082 43.7823C20.1135 38.7404 28.1768 35.5561 36.9982 34.2293C37.2168 34.1962 37.4155 34.1398 37.5942 34.0603L42.0522 33.7601C42.1175 33.7561 42.1502 33.7866 42.1502 33.8516V33.9271C42.1503 33.9528 42.1409 33.9777 42.1236 33.9971C42.1062 34.0165 42.0823 34.0291 42.0562 34.0325C36.7362 34.6667 30.7942 36.0465 25.9582 38.4183C25.9415 38.4267 25.928 38.4406 25.9201 38.4576C25.9122 38.4747 25.9104 38.4938 25.9148 38.5118C25.9193 38.5297 25.9298 38.5455 25.9446 38.5564C25.9595 38.5672 25.9777 38.5725 25.9962 38.5714C27.2862 38.5296 28.8262 37.9988 30.0962 37.7046C41.4182 35.0862 52.7362 34.2055 64.3362 34.9729C64.3695 34.9755 64.4162 34.9954 64.4762 35.0325Z" fill="#90BBDE"/>
<path d="M35.1519 38.0146C30.9279 38.9835 26.7479 40.0843 22.6119 41.3169C18.9679 42.4025 15.3959 43.822 11.8679 45.2375C11.8425 45.2477 11.815 45.2522 11.7876 45.2507C11.7602 45.2492 11.7334 45.2417 11.7092 45.2288C11.685 45.2159 11.6639 45.1979 11.6475 45.1761C11.631 45.1542 11.6196 45.1291 11.6139 45.1023C11.5726 44.9022 11.6486 44.7233 11.8419 44.5655C12.1246 44.3309 12.4153 44.1527 12.7139 44.0307C14.7399 43.2852 16.7919 42.4661 18.7819 41.8378C21.9073 40.8491 24.5466 40.0889 26.6999 39.5574C29.0866 38.9689 31.9039 38.4547 35.1519 38.0146Z" fill="white"/>
<path d="M47.3262 51.005C48.1882 51.3668 49.8782 51.8002 50.3702 50.6113C51.0002 49.0864 46.6222 49.3667 46.9442 46.5814C47.2122 44.2672 49.7782 44.2433 51.4642 44.7006C51.5429 44.7218 51.5775 44.7722 51.5682 44.8517L51.4542 45.8676C51.4435 45.9617 51.3929 45.9942 51.3022 45.965C50.5022 45.7145 49.0782 45.3606 48.6582 46.3825C48.1542 47.6092 50.4722 48.0506 51.1842 48.5218C52.1982 49.1918 52.2822 50.7246 51.6142 51.6233C50.6982 52.8539 48.4762 52.7466 47.1562 52.3231C47.0855 52.3019 47.0542 52.2548 47.0622 52.1819L47.1802 51.0904C47.1895 50.9963 47.2382 50.9678 47.3262 51.005Z" fill="#254483"/>
<path d="M43.1441 50.6931H39.9761C39.9619 50.6929 39.948 50.697 39.9362 50.7048C39.9245 50.7126 39.9153 50.7238 39.9101 50.7368L39.2581 52.4267C39.2534 52.4396 39.245 52.4507 39.234 52.4589C39.223 52.467 39.2098 52.4717 39.1961 52.4725L37.7141 52.5063C37.7026 52.5064 37.6912 52.5038 37.6809 52.4985C37.6707 52.4933 37.6619 52.4856 37.6554 52.4761C37.6489 52.4667 37.6448 52.4558 37.6435 52.4444C37.6422 52.433 37.6438 52.4215 37.6481 52.4108L40.6861 44.6233C40.6913 44.6103 40.7005 44.5991 40.7122 44.5913C40.724 44.5835 40.7379 44.5794 40.7521 44.5796H42.4401C42.4542 44.5794 42.4681 44.5835 42.4799 44.5913C42.4917 44.5991 42.5008 44.6103 42.5061 44.6233L45.5681 52.3969C45.5723 52.4074 45.5739 52.4188 45.5727 52.43C45.5715 52.4412 45.5676 52.452 45.5613 52.4614C45.555 52.4708 45.5465 52.4785 45.5366 52.4839C45.5266 52.4893 45.5154 52.4922 45.5041 52.4924L43.9121 52.4904C43.898 52.49 43.8844 52.4855 43.873 52.4773C43.8616 52.4692 43.8529 52.4578 43.8481 52.4446L43.2081 50.7388C43.2033 50.7257 43.1946 50.7143 43.1832 50.7062C43.1718 50.698 43.1581 50.6935 43.1441 50.6931Z" fill="#254483"/>
<path d="M57.2499 45.9212V52.3786C57.2499 52.4046 57.2396 52.4296 57.2213 52.4482C57.203 52.4668 57.1781 52.4775 57.1519 52.478L55.8019 52.4919C55.7886 52.4922 55.7754 52.4898 55.763 52.4849C55.7507 52.4801 55.7394 52.4728 55.7299 52.4635C55.7204 52.4543 55.7129 52.4432 55.7077 52.431C55.7026 52.4188 55.6999 52.4057 55.6999 52.3925V45.9212C55.6999 45.8948 55.6894 45.8695 55.6706 45.8509C55.6519 45.8322 55.6264 45.8218 55.5999 45.8218H53.4999C53.4734 45.8218 53.4479 45.8113 53.4292 45.7926C53.4104 45.774 53.3999 45.7487 53.3999 45.7223V44.6746C53.3999 44.6482 53.4104 44.623 53.4292 44.6043C53.4479 44.5857 53.4734 44.5752 53.4999 44.5752L59.4499 44.5891C59.4764 44.5891 59.5019 44.5996 59.5206 44.6182C59.5394 44.6369 59.5499 44.6622 59.5499 44.6885V45.7223C59.5499 45.7487 59.5394 45.774 59.5206 45.7926C59.5019 45.8113 59.4764 45.8218 59.4499 45.8218H57.3499C57.3234 45.8218 57.2979 45.8322 57.2792 45.8509C57.2604 45.8695 57.2499 45.8948 57.2499 45.9212Z" fill="#254483"/>
<path d="M62.7 49.3429V52.3629C62.7 52.4411 62.6607 52.4802 62.582 52.4802L61.282 52.4981C61.1913 52.4994 61.146 52.455 61.146 52.3649L61.152 44.6887C61.152 44.6052 61.1933 44.5641 61.276 44.5655C61.8507 44.5761 62.8367 44.6092 64.234 44.6649C65.5767 44.7179 66.3393 45.2838 66.522 46.3627C66.704 47.4463 66.118 48.2972 65.05 48.5437C65.0357 48.5471 65.0227 48.5544 65.0123 48.5646C65.0019 48.5749 64.9945 48.5879 64.991 48.602C64.9875 48.6162 64.988 48.631 64.9924 48.6449C64.9968 48.6589 65.0049 48.6713 65.016 48.6809C66.05 49.5596 66.516 51.1283 66.98 52.3689C67.0053 52.4378 66.9807 52.4729 66.906 52.4742L65.434 52.4981C65.3944 52.4986 65.3556 52.4873 65.3228 52.4657C65.2899 52.444 65.2646 52.413 65.25 52.3768C64.9313 51.5802 64.6133 50.7684 64.296 49.9414C64.06 49.329 63.554 49.0984 62.778 49.2495C62.726 49.2601 62.7 49.2912 62.7 49.3429Z" fill="#254483"/>
<path d="M70.4001 50.7348L69.7601 52.4347C69.7556 52.4469 69.7474 52.4575 69.7367 52.4649C69.726 52.4724 69.7132 52.4764 69.7001 52.4764L68.1921 52.4924C68.1816 52.4925 68.1712 52.49 68.1618 52.4851C68.1525 52.4803 68.1445 52.4732 68.1386 52.4646C68.1326 52.4559 68.1289 52.4459 68.1278 52.4355C68.1267 52.4251 68.1282 52.4146 68.1321 52.4049L71.1801 44.6213C71.1849 44.6095 71.1932 44.5994 71.2039 44.5923C71.2147 44.5852 71.2273 44.5814 71.2401 44.5816L72.9401 44.5796C72.953 44.5795 72.9656 44.5832 72.9763 44.5903C72.987 44.5974 72.9953 44.6075 73.0001 44.6194L76.0641 52.3949C76.0681 52.4046 76.0695 52.4152 76.0684 52.4256C76.0673 52.436 76.0636 52.446 76.0577 52.4546C76.0517 52.4633 76.0437 52.4704 76.0344 52.4752C76.0251 52.48 76.0146 52.4825 76.0041 52.4824H74.4001C74.387 52.4824 74.3742 52.4784 74.3635 52.4709C74.3528 52.4634 74.3446 52.4529 74.3401 52.4407L73.7121 50.7348C73.7076 50.7226 73.6994 50.7121 73.6887 50.7046C73.678 50.6971 73.6652 50.6931 73.6521 50.6931H70.4601C70.447 50.6931 70.4342 50.6971 70.4235 50.7046C70.4128 50.7121 70.4046 50.7226 70.4001 50.7348Z" fill="#254483"/>
<path d="M62.6982 45.9432C62.6982 45.9168 62.7088 45.8915 62.7275 45.8729C62.7463 45.8543 62.7717 45.8438 62.7982 45.8438L63.6582 45.8418C63.8211 45.8415 63.9825 45.8651 64.1331 45.9113C64.2836 45.9575 64.4205 46.0253 64.5359 46.111C64.6512 46.1967 64.7427 46.2985 64.8053 46.4106C64.8678 46.5226 64.9001 46.6429 64.9002 46.7643V47.0188C64.9006 47.2639 64.7704 47.4992 64.5383 47.6729C64.3061 47.8466 63.991 47.9446 63.6622 47.9452L62.8022 47.9472C62.7757 47.9472 62.7503 47.9368 62.7315 47.9181C62.7128 47.8995 62.7022 47.8742 62.7022 47.8478L62.6982 45.9432Z" fill="white"/>
<path d="M70.9258 49.3708L72.0038 46.317C72.0081 46.3058 72.0158 46.2961 72.0258 46.2893C72.0358 46.2825 72.0477 46.2788 72.0598 46.2788C72.0719 46.2788 72.0838 46.2825 72.0938 46.2893C72.1038 46.2961 72.1114 46.3058 72.1158 46.317L73.1938 49.3708C73.197 49.3798 73.198 49.3893 73.1967 49.3987C73.1954 49.4082 73.1919 49.4171 73.1864 49.4249C73.1809 49.4327 73.1736 49.439 73.1652 49.4435C73.1567 49.4479 73.1473 49.4502 73.1378 49.4503H70.9818C70.9722 49.4502 70.9629 49.4479 70.9544 49.4435C70.946 49.439 70.9387 49.4327 70.9332 49.4249C70.9277 49.4171 70.9242 49.4082 70.9229 49.3987C70.9216 49.3893 70.9226 49.3798 70.9258 49.3708Z" fill="white"/>
<path d="M40.4399 49.349L41.4839 46.3707C41.4894 46.3554 41.4994 46.3422 41.5127 46.3327C41.526 46.3233 41.5419 46.3181 41.5582 46.3179C41.5745 46.3177 41.5905 46.3224 41.6041 46.3315C41.6176 46.3406 41.628 46.3536 41.6339 46.3687L42.6979 49.341C42.702 49.3528 42.7032 49.3655 42.7015 49.3779C42.6997 49.3903 42.695 49.4021 42.6878 49.4124C42.6806 49.4227 42.6711 49.4311 42.66 49.437C42.6488 49.4429 42.6365 49.4461 42.6239 49.4464L40.5159 49.4543C40.5031 49.4544 40.4905 49.4514 40.4792 49.4456C40.4678 49.4399 40.458 49.4315 40.4505 49.4211C40.4431 49.4108 40.4382 49.3989 40.4364 49.3863C40.4345 49.3738 40.4357 49.361 40.4399 49.349Z" fill="white"/>
<path d="M95.1258 55.7607H94.9778C94.8806 55.7607 94.8018 55.8391 94.8018 55.9357V63.7331C94.8018 63.8298 94.8806 63.9081 94.9778 63.9081H95.1258C95.223 63.9081 95.3018 63.8298 95.3018 63.7331V55.9357C95.3018 55.8391 95.223 55.7607 95.1258 55.7607Z" fill="#254483"/>
<path d="M38.813 56.0088L38.3331 56.0138C38.2856 56.0142 38.2475 56.0529 38.248 56.1001L38.2556 56.8238C38.2561 56.871 38.295 56.9089 38.3425 56.9084L38.8225 56.9034C38.87 56.9029 38.9081 56.8642 38.9076 56.817L38.8999 56.0933C38.8994 56.0461 38.8605 56.0083 38.813 56.0088Z" fill="#254483"/>
<path d="M75.4008 56.0251L74.9014 56.0017C74.8528 55.9994 74.8116 56.0367 74.8093 56.0849L74.7752 56.8038C74.7729 56.8521 74.8104 56.8931 74.859 56.8953L75.3584 56.9188C75.407 56.921 75.4482 56.8838 75.4505 56.8355L75.4846 56.1166C75.4869 56.0683 75.4494 56.0274 75.4008 56.0251Z" fill="#254483"/>
<path d="M47.9801 58.395L49.0501 58.397C49.1168 58.3984 49.1501 58.4315 49.1501 58.4964V58.8185C49.1501 58.902 49.1081 58.9438 49.0241 58.9438H47.9981C47.9578 58.9438 47.9191 58.9595 47.8906 58.9874C47.8621 59.0154 47.8461 59.0533 47.8461 59.0929C47.8461 60.3017 47.7421 61.6735 47.9161 62.8763C48.0021 63.4628 48.6221 63.5344 49.0941 63.3336C49.1092 63.3276 49.1255 63.3252 49.1417 63.3267C49.1578 63.3281 49.1734 63.3333 49.1872 63.3418C49.201 63.3503 49.2127 63.3619 49.2211 63.3756C49.2296 63.3894 49.2347 63.405 49.2361 63.421L49.2561 63.7471C49.2588 63.8054 49.2314 63.8419 49.1741 63.8564C48.1801 64.0871 47.1821 63.9718 47.1821 62.7331C47.1821 61.5111 47.1921 60.2891 47.2121 59.067C47.2134 58.9915 47.1761 58.953 47.1001 58.9517L46.2221 58.9398C46.1896 58.9393 46.1585 58.9261 46.1357 58.903C46.1129 58.8799 46.1001 58.8489 46.1001 58.8165V58.5223C46.1001 58.4401 46.1414 58.3977 46.2241 58.395L47.0921 58.3672C47.1209 58.3667 47.1484 58.3549 47.1686 58.3345C47.1888 58.314 47.2001 58.2865 47.2001 58.2579V57.1982C47.2001 57.1041 47.2448 57.0405 47.3341 57.0073L47.7341 56.8582C47.8114 56.8304 47.8501 56.8576 47.8501 56.9397V58.2658C47.8501 58.3001 47.8638 58.333 47.8882 58.3572C47.9126 58.3814 47.9456 58.395 47.9801 58.395Z" fill="#254483"/>
<path d="M72.3998 58.3472H73.4498C73.5165 58.3472 73.5498 58.3803 73.5498 58.4466V58.8721C73.5499 58.8902 73.5461 58.9081 73.5389 58.9247C73.5316 58.9413 73.521 58.9562 73.5077 58.9686C73.4943 58.9809 73.4786 58.9903 73.4614 58.9963C73.4442 59.0023 73.426 59.0047 73.4078 59.0033L72.4358 58.9436C72.3491 58.9383 72.3051 58.9788 72.3038 59.0649C72.2945 60.1239 72.2931 61.177 72.2998 62.2241C72.3038 63.0471 72.4698 63.6993 73.5038 63.3493C73.5239 63.3426 73.5452 63.3405 73.5662 63.3433C73.5872 63.3461 73.6073 63.3536 73.6249 63.3653C73.6425 63.3771 73.6572 63.3926 73.6677 63.4109C73.6783 63.4292 73.6845 63.4496 73.6858 63.4706L73.7058 63.7947C73.7098 63.8716 73.6731 63.9107 73.5958 63.912C72.9558 63.9219 71.7858 64.1247 71.6958 63.1664C71.5971 62.1286 71.5698 60.7628 71.6138 59.0689C71.6165 58.9854 71.5758 58.9436 71.4918 58.9436H70.6758C70.5918 58.9436 70.5498 58.9019 70.5498 58.8184V58.5719C70.5498 58.4579 70.6078 58.3976 70.7238 58.3909L71.4698 58.3532C71.5149 58.3506 71.5574 58.3312 71.5886 58.2987C71.6198 58.2662 71.6374 58.2231 71.6378 58.1782L71.6538 57.0947C71.6551 57.035 71.6851 56.9973 71.7438 56.9814L72.1958 56.868C72.2651 56.8495 72.2998 56.876 72.2998 56.9476V58.2478C72.2998 58.3141 72.3331 58.3472 72.3998 58.3472Z" fill="#254483"/>
<path d="M41.3759 59.2358C42.4279 57.6552 44.9119 57.9932 44.9719 60.0748C45.0066 61.3047 45.0132 62.5361 44.9919 63.7687C44.9919 63.8323 44.9599 63.8641 44.8959 63.8641H44.4519C44.3626 63.8641 44.3199 63.8197 44.3239 63.7309C44.3799 62.208 44.7199 59.1841 43.3899 58.8759C40.8159 58.2815 41.3359 62.1941 41.3579 63.7349C41.3579 63.8065 41.3226 63.8456 41.2519 63.8522L40.8379 63.8939C40.7592 63.9019 40.7192 63.8668 40.7179 63.7886L40.6499 58.4683C40.6499 58.4153 40.6759 58.3901 40.7279 58.3928L41.1759 58.4087C41.1949 58.4091 41.2135 58.4135 41.2307 58.4216C41.2478 58.4297 41.2631 58.4413 41.2756 58.4557C41.288 58.4701 41.2973 58.487 41.3029 58.5053C41.3084 58.5235 41.3101 58.5428 41.3079 58.5618L41.2379 59.1861C41.2365 59.2026 41.2406 59.2192 41.2496 59.2332C41.2586 59.2472 41.272 59.2578 41.2877 59.2635C41.3035 59.2691 41.3206 59.2695 41.3366 59.2645C41.3525 59.2595 41.3663 59.2494 41.3759 59.2358Z" fill="#254483"/>
<path d="M53.9819 63.7212C52.0799 64.2182 50.2099 64.0711 49.9999 61.6754C49.9426 61.0246 49.9866 60.4606 50.1319 59.9835C50.7979 57.7866 53.7559 57.5619 54.3599 59.9576C54.4612 60.3606 54.5059 60.7721 54.4939 61.1923C54.4934 61.2288 54.4784 61.2637 54.4522 61.2894C54.426 61.3151 54.3907 61.3295 54.3539 61.3295H50.8459C50.7512 61.3295 50.7072 61.3765 50.7139 61.4706C50.8079 62.8563 51.7199 63.7252 53.0959 63.3116C53.3879 63.2241 53.6773 63.1433 53.9639 63.0691C53.9799 63.0648 53.9966 63.0642 54.0129 63.0674C54.0291 63.0706 54.0444 63.0775 54.0575 63.0875C54.0707 63.0975 54.0813 63.1103 54.0887 63.1251C54.096 63.1398 54.0999 63.156 54.0999 63.1725V63.5681C54.0999 63.6503 54.0606 63.7013 53.9819 63.7212Z" fill="#254483"/>
<path d="M60.344 59.1723C60.9213 58.3956 61.684 58.1113 62.632 58.3194C64.514 58.7329 64.05 62.3016 63.966 63.749C63.9607 63.8258 63.9193 63.8643 63.842 63.8643H63.438C63.3433 63.8643 63.2967 63.8172 63.298 63.7231C63.3073 62.5594 63.3013 61.3983 63.28 60.2399C63.246 58.5281 61.172 58.3909 60.544 59.7409C60.13 60.6316 60.346 62.733 60.352 63.7609C60.3533 63.8298 60.3187 63.8643 60.248 63.8643H59.752C59.6853 63.8643 59.652 63.8318 59.652 63.7669L59.646 58.5043C59.646 58.4327 59.682 58.3969 59.754 58.3969H60.124C60.208 58.3969 60.25 58.4387 60.25 58.5222V59.1425C60.25 59.2458 60.2813 59.2558 60.344 59.1723Z" fill="#254483"/>
<path d="M79.4074 64.041C79.063 64.0428 78.7217 63.9692 78.4028 63.8245C78.0839 63.6798 77.7938 63.4668 77.5489 63.1976C77.304 62.9284 77.1091 62.6083 76.9755 62.2556C76.8419 61.9029 76.7721 61.5245 76.7701 61.1421C76.766 60.3696 77.0383 59.6273 77.5272 59.0786C78.016 58.5298 78.6813 58.2195 79.3767 58.2159C79.721 58.2141 80.0624 58.2876 80.3812 58.4323C80.7001 58.5771 80.9903 58.7901 81.2352 59.0593C81.4801 59.3285 81.6749 59.6485 81.8085 60.0012C81.9422 60.3539 82.012 60.7323 82.014 61.1148C82.0181 61.8872 81.7457 62.6295 81.2569 63.1783C80.768 63.727 80.1028 64.0374 79.4074 64.041Z" fill="#254483"/>
<path d="M84.0099 59.1904C84.1619 59.0333 84.2699 58.8126 84.4299 58.6874C85.2459 58.0452 86.7039 58.0929 87.2959 59.0234C87.8759 59.9359 87.6779 62.6756 87.6299 63.779C87.6272 63.836 87.5979 63.8645 87.5419 63.8645H87.0519C86.9825 63.8645 86.9479 63.83 86.9479 63.7611C86.9532 62.6371 86.9505 61.5138 86.9399 60.3912C86.9299 59.3594 86.3059 58.6238 85.2239 58.8922C83.5259 59.3137 83.9059 62.4072 83.9679 63.7313C83.9691 63.7614 83.9587 63.7909 83.939 63.8134C83.9192 63.836 83.8916 63.85 83.8619 63.8526L83.4499 63.8923C83.4321 63.894 83.4141 63.892 83.3971 63.8864C83.3802 63.8809 83.3646 63.8719 83.3514 63.8601C83.3382 63.8483 83.3277 63.834 83.3206 63.8179C83.3134 63.8019 83.3098 63.7846 83.3099 63.7671L83.2779 58.4349C83.2775 58.4226 83.2798 58.4104 83.2847 58.3991C83.2896 58.3878 83.2969 58.3776 83.3062 58.3693C83.3155 58.361 83.3265 58.3548 83.3386 58.351C83.3506 58.3472 83.3633 58.346 83.3759 58.3474L83.7879 58.4051C83.8625 58.4157 83.8999 58.4588 83.8999 58.5343V59.1447C83.8999 59.2494 83.9365 59.2646 84.0099 59.1904Z" fill="#254483"/>
<path d="M56.5259 59.2658C56.9759 58.7151 57.3359 58.0908 58.1819 58.2995C58.2762 58.3231 58.3655 58.3835 58.4306 58.4676C58.4956 58.5518 58.5313 58.6529 58.5297 58.7492C58.5281 58.8454 58.4895 58.929 58.4221 58.9817C58.3548 59.0345 58.2642 59.0523 58.1699 59.0312C57.9619 58.9848 57.7726 58.9735 57.602 58.9974C57.5612 59.003 57.5224 59.0088 57.4919 59.0139C57.4613 59.0189 57.4409 59.0229 57.434 59.0252C56.114 59.9278 56.4859 62.3454 56.5079 63.747C56.5081 63.772 56.499 63.7961 56.4824 63.8148C56.4658 63.8335 56.4429 63.8455 56.4179 63.8484L55.9559 63.9021C55.9442 63.9032 55.9324 63.9019 55.9213 63.8983C55.9101 63.8947 55.8999 63.8889 55.8912 63.8812C55.8825 63.8735 55.8756 63.8642 55.8709 63.8537C55.8662 63.8433 55.8639 63.832 55.8639 63.8206L55.8159 58.5381C55.8146 58.444 55.8619 58.397 55.9579 58.397H56.3239C56.4079 58.397 56.4499 58.438 56.4499 58.5202V59.2379C56.4499 59.3175 56.4753 59.3267 56.5259 59.2658Z" fill="#254483"/>
<path d="M68.9499 63.2282C68.9542 63.2159 68.9539 63.2025 68.9493 63.1904C68.9446 63.1782 68.9358 63.1681 68.9244 63.1617C68.913 63.1553 68.8997 63.1531 68.8868 63.1554C68.8739 63.1578 68.8623 63.1646 68.8539 63.1746C68.1872 63.9088 67.3466 64.1415 66.3319 63.8724C65.4419 63.6358 65.1159 62.7034 65.4079 61.8882C65.9019 60.5085 67.5679 60.5781 68.7279 60.5164C68.7919 60.5125 68.8279 60.4793 68.8359 60.417C69.0799 58.57 67.2219 58.6058 66.1079 59.1943C66.0914 59.2029 66.073 59.2071 66.0544 59.2065C66.0358 59.2059 66.0177 59.2005 66.0018 59.1909C65.9859 59.1813 65.9728 59.1678 65.9637 59.1517C65.9546 59.1356 65.9499 59.1174 65.9499 59.0989V58.749C65.9498 58.7166 65.9607 58.6851 65.981 58.6592C66.0012 58.6333 66.0297 58.6146 66.0619 58.6058C68.1299 58.0511 69.4639 58.0014 69.5339 60.5224C69.5632 61.6066 69.5666 62.6404 69.5439 63.6239C69.5403 63.7033 69.5076 63.7786 69.4518 63.8355C69.396 63.8924 69.3211 63.927 69.2414 63.9326C69.1616 63.9383 69.0826 63.9146 69.0193 63.8661C68.956 63.8176 68.9128 63.7477 68.8979 63.6696C68.8779 63.5583 68.8952 63.4111 68.9499 63.2282Z" fill="#254483"/>
<path d="M92.4499 63.2298C91.3539 64.375 88.6039 64.2994 88.9739 62.1204C89.2319 60.6015 91.0879 60.5399 92.3179 60.5359C92.352 60.5352 92.3847 60.5222 92.4098 60.4995C92.4348 60.4768 92.4505 60.4459 92.4539 60.4126C92.6579 58.504 90.9239 58.6512 89.7499 59.186C89.7338 59.1933 89.7161 59.1965 89.6984 59.1952C89.6808 59.194 89.6637 59.1883 89.6488 59.1789C89.6339 59.1694 89.6216 59.1563 89.613 59.1409C89.6045 59.1255 89.6 59.1081 89.5999 59.0905V58.7963C89.5999 58.726 89.6333 58.6777 89.6999 58.6512C91.6919 57.8718 93.1379 58.1422 93.1399 60.524C93.1413 61.6055 93.1626 62.6877 93.2039 63.7706C93.2079 63.8753 93.1573 63.9243 93.0519 63.9177L92.6839 63.8919C92.5946 63.8852 92.5499 63.8382 92.5499 63.7507V63.2696C92.5499 63.1728 92.5166 63.1596 92.4499 63.2298Z" fill="#254483"/>
<path d="M75.4087 58.3653L74.8927 58.3644C74.843 58.3643 74.8027 58.4043 74.8026 58.4537L74.7932 63.77C74.7932 63.8194 74.8334 63.8595 74.8831 63.8596L75.3991 63.8605C75.4488 63.8606 75.4892 63.8206 75.4892 63.7712L75.4986 58.4549C75.4987 58.4055 75.4584 58.3654 75.4087 58.3653Z" fill="#254483"/>
<path d="M38.814 58.397H38.338C38.2905 58.397 38.252 58.4352 38.252 58.4825V63.8067C38.252 63.8539 38.2905 63.8922 38.338 63.8922H38.814C38.8615 63.8922 38.9 63.8539 38.9 63.8067V58.4825C38.9 58.4352 38.8615 58.397 38.814 58.397Z" fill="#254483"/>
<path d="M50.8638 60.7428C50.8502 60.7428 50.8366 60.7401 50.824 60.7349C50.8114 60.7297 50.7999 60.7221 50.7903 60.7125C50.7806 60.7029 50.773 60.6915 50.7677 60.679C50.7625 60.6664 50.7598 60.653 50.7598 60.6394V60.6016C50.7567 60.1403 50.9121 59.6968 51.1919 59.3687C51.4717 59.0406 51.853 58.8548 52.2518 58.8521C52.4493 58.8507 52.6452 58.8944 52.8283 58.9806C53.0114 59.0668 53.1781 59.1939 53.3189 59.3545C53.4597 59.5151 53.5718 59.7061 53.6488 59.9167C53.7258 60.1273 53.7663 60.3533 53.7678 60.5818V60.6195C53.7678 60.6469 53.7569 60.6732 53.7373 60.6926C53.7178 60.712 53.6914 60.7229 53.6638 60.7229L50.8638 60.7428Z" fill="white"/>
<path d="M77.5442 61.1489C77.5487 62.4303 78.3833 63.4662 79.4084 63.4626C80.4334 63.4591 81.2607 62.4174 81.2562 61.1361C81.2517 59.8547 80.4171 58.8188 79.3921 58.8224C78.367 58.8259 77.5397 59.8676 77.5442 61.1489Z" fill="white"/>
<path d="M66.0561 62.3254C66.2981 61.0987 67.7061 61.1524 68.6841 61.1226C68.7058 61.1221 68.7274 61.1258 68.7477 61.1337C68.7679 61.1415 68.7864 61.1533 68.802 61.1682C68.8176 61.1832 68.8301 61.2011 68.8387 61.2209C68.8473 61.2408 68.8519 61.2621 68.8521 61.2836C68.8701 62.5262 68.3221 63.7807 66.8101 63.401C66.1968 63.2459 65.9455 62.8874 66.0561 62.3254Z" fill="white"/>
<path d="M90.8522 63.4428C89.2062 63.4031 89.4102 61.568 90.7502 61.2857C91.2702 61.1757 91.7949 61.1247 92.3242 61.1326C92.3829 61.134 92.4156 61.1625 92.4222 61.2181C92.5702 62.407 92.1242 63.4707 90.8522 63.4428Z" fill="white"/>
</g>
<defs>
<clipPath id="clip0_29_2570">
<rect width="100" height="67" fill="white" transform="translate(0 16)"/>
</clipPath>
</defs>
</svg>
