<svg width="100" height="100" viewBox="0 0 100 100" fill="none" xmlns="http://www.w3.org/2000/svg">
<rect width="100" height="100" fill="white"/>
<path d="M75.4746 63.3999C76.8818 68.4984 75.9269 73.0767 72.6099 77.1349" stroke="#837E69" stroke-width="1.07523"/>
<path d="M50.2168 82.4845C55.612 82.7152 61.1434 82.1103 66.059 80.074" stroke="#80575C" stroke-width="1.07523"/>
<path d="M52.3486 29.081C56.5131 29.081 59.8891 25.705 59.8891 21.5405C59.8891 17.376 56.5131 14 52.3486 14C48.1841 14 44.8081 17.376 44.8081 21.5405C44.8081 25.705 48.1841 29.081 52.3486 29.081Z" fill="#E9242A"/>
<path d="M70.9471 78.9693C70.9725 78.3287 71.5266 77.7171 72.6092 77.1346C75.018 75.2145 76.5003 72.6731 77.3904 69.7993C78.8109 65.2143 77.7537 60.0753 75.245 56.0444C74.7267 55.2124 74.1242 54.4561 73.4376 53.7755C68.6001 48.6347 61.1322 45.9916 54.1639 45.294C44.4781 44.3258 35.2046 47.4012 27.853 53.6974C27.8021 53.741 27.7543 53.738 27.7095 53.6883C26.1708 51.9644 25.7912 49.2196 26.2217 47.0524C28.0383 37.9533 40.3799 33.3901 48.36 32.5255C56.1385 31.6826 64.0042 33.0196 70.8962 36.7744C81.3487 42.4693 89.1362 54.4295 84.7547 66.5531C82.4531 72.9238 76.7891 76.3099 70.9471 78.9693Z" fill="#0065B2"/>
<path d="M29.8166 69.2726C29.8723 69.4228 29.799 69.5541 29.5968 69.6668C29.5715 69.6811 29.5506 69.7019 29.5362 69.7268C29.5218 69.7518 29.5145 69.78 29.515 69.8085C29.5308 71.6141 29.7118 73.401 30.0582 75.1691C30.0982 75.3726 29.9898 75.6475 29.733 75.9938C19.8728 69.3852 15.0208 58.6367 18.3414 46.9217C19.6724 42.2229 21.8964 38.0884 25.0136 34.5183C25.2062 34.2979 25.2243 34.3118 25.0681 34.5601C21.5004 40.2277 20.0581 48.0916 20.9772 54.682C21.8286 60.7808 24.7751 65.6443 29.8166 69.2726Z" fill="url(#paint0_linear_29_2572)"/>
<path d="M20.8881 74.0339C12.9279 65.4762 11.5455 52.0536 18.4321 42.3787C18.4378 42.372 18.4457 42.3674 18.4544 42.3658C18.463 42.3643 18.472 42.3658 18.4797 42.37C18.4874 42.3743 18.4934 42.3811 18.4966 42.3893C18.4999 42.3975 18.5002 42.4066 18.4975 42.415C14.0724 53.0418 15.8035 64.6351 23.9072 72.9386C31.2334 80.4464 40.8556 83.985 51.2772 83.8906C58.1632 83.8288 64.7464 82.6371 71.0268 80.3156C71.7183 80.06 71.7371 80.1018 71.0831 80.4409C64.7433 83.7289 57.8229 85.5357 50.3217 85.8615C38.5093 86.3738 28.6981 82.4313 20.8881 74.0339Z" fill="#E9242A"/>
<path d="M75.4735 63.3996C76.8807 68.498 75.9258 73.0763 72.6088 77.1345C71.5261 77.717 70.972 78.3286 70.9466 78.9692C69.8761 79.53 68.7244 80.0713 67.4915 80.5932C61.9492 82.9384 55.8329 83.3962 49.722 83.0002C49.8153 82.5908 49.98 82.4189 50.2161 82.4843C55.6113 82.715 61.1427 82.1101 66.0583 80.0737C72.0711 77.8593 75.6333 72.4042 74.7414 65.95C74.7305 65.8689 74.699 65.7944 74.6469 65.7266C74.6506 65.5703 74.6669 65.385 74.6324 65.2325C71.7931 52.542 57.0845 47.8499 45.7692 49.1051C40.2687 49.7155 35.2586 51.483 30.2867 53.9244C30.2838 53.9259 30.2805 53.9266 30.2772 53.9267C30.274 53.9267 30.2707 53.926 30.2677 53.9246C30.2648 53.9232 30.2622 53.9212 30.2601 53.9186C30.258 53.9161 30.2566 53.9131 30.2558 53.9099C30.2546 53.905 30.2534 53.9014 30.2522 53.899C30.251 53.8917 30.2546 53.8857 30.2631 53.8808C35.4421 50.9089 40.7791 48.8617 46.7192 48.1841C58.0673 46.8907 71.6405 51.4321 75.4735 63.3996Z" fill="#13598C"/>
<path d="M73.4377 53.7764C74.1244 54.457 74.7269 55.2133 75.2452 56.0452C77.7539 60.0762 78.8111 65.2152 77.3905 69.8002C76.5004 72.674 75.0181 75.2153 72.6094 77.1354C75.9264 73.0773 76.8813 68.4989 75.4741 63.4005C75.6787 63.0432 75.7871 62.5951 75.7992 62.0562C75.8695 59.0795 75.0823 56.3195 73.4377 53.7764Z" fill="#F3A345"/>
<path d="M74.6471 65.7263C74.6992 65.7941 74.7307 65.8686 74.7416 65.9498C75.6335 72.404 72.0712 77.8591 66.0585 80.0735L66.2274 79.5412C66.2311 79.5289 66.2319 79.5158 66.2296 79.5031C66.2273 79.4904 66.2221 79.4785 66.2143 79.4682C66.2065 79.4579 66.1964 79.4496 66.1847 79.444C66.1731 79.4384 66.1604 79.4356 66.1475 79.4359L65.9349 79.4431C65.8768 79.4455 65.8514 79.4183 65.8586 79.3614C65.944 78.711 66.1093 78.1061 66.1129 77.4594C66.1214 76.3695 66.1771 75.0265 66.2801 73.4303C66.3152 72.8781 66.1917 72.3931 65.9095 71.9753C69.232 70.6528 72.2219 69.0872 74.409 66.2298C74.4623 66.1596 74.6471 65.7263 74.6471 65.7263Z" fill="#F68D38"/>
<path d="M29.8162 69.2727C39.3295 75.7378 51.7566 76.2446 62.5251 73.1601C63.7252 72.8174 64.8533 72.4226 65.9093 71.9757C66.1915 72.3935 66.315 72.8786 66.2799 73.4308C66.177 75.0269 66.1213 76.37 66.1128 77.4599C66.1092 78.1066 65.9439 78.7115 65.8585 79.3618C65.8512 79.4188 65.8766 79.446 65.9348 79.4436L66.1473 79.4363C66.1602 79.4361 66.173 79.4388 66.1846 79.4445C66.1962 79.4501 66.2063 79.4584 66.2141 79.4686C66.2219 79.4789 66.2272 79.4909 66.2294 79.5036C66.2317 79.5163 66.231 79.5293 66.2272 79.5417L66.0583 80.0739C61.1427 82.1103 55.6113 82.7152 50.2161 82.4845C48.2688 82.3489 46.3293 82.1248 44.3977 81.8124C43.8818 81.7288 43.3241 81.7742 42.7828 81.7252C42.7234 81.7203 42.6708 81.7373 42.6247 81.776L42.4504 81.9232C37.9199 80.766 33.5656 78.6425 29.7327 75.994C29.9894 75.6476 30.0978 75.3727 30.0578 75.1692C29.7115 73.4011 29.5304 71.6142 29.5147 69.8086C29.5141 69.7801 29.5214 69.7519 29.5358 69.7269C29.5502 69.702 29.5711 69.6813 29.5964 69.6669C29.7987 69.5543 29.8719 69.4229 29.8162 69.2727Z" fill="url(#paint1_linear_29_2572)"/>
<path d="M50.2165 82.4845C49.9803 82.4191 49.8156 82.5911 49.7223 83.0004C47.2482 82.8635 44.8243 82.5045 42.4507 81.9232L42.6251 81.776C42.6711 81.7373 42.7238 81.7203 42.7831 81.7252C43.3244 81.7742 43.8821 81.7288 44.398 81.8124C46.3296 82.1248 48.2691 82.3489 50.2165 82.4845Z" fill="#EE632F"/>
<defs>
<linearGradient id="paint0_linear_29_2572" x1="23.6838" y1="34.3628" x2="30.3247" y2="74.2944" gradientUnits="userSpaceOnUse">
<stop stop-color="#E9242A"/>
<stop offset="1" stop-color="#EC542C"/>
</linearGradient>
<linearGradient id="paint1_linear_29_2572" x1="32.4748" y1="74.2946" x2="67.9575" y2="77.2515" gradientUnits="userSpaceOnUse">
<stop stop-color="#EC542C"/>
<stop offset="1" stop-color="#F68D38"/>
</linearGradient>
</defs>
</svg>
