<svg width="100" height="100" viewBox="0 0 100 100" fill="none" xmlns="http://www.w3.org/2000/svg">
<rect width="100" height="100" fill="white"/>
<path d="M38.5098 26.4031C38.4602 32.2316 38.5409 38.058 38.4933 43.8845C38.4864 44.6901 38.3898 45.3119 38.2035 45.7499C35.5453 52.0262 27.0886 51.9163 24.5506 45.6318C24.4001 45.2601 24.3249 44.8407 24.3249 44.3736C24.3235 36.0786 24.3242 27.7822 24.327 19.4843C24.327 17.3784 25.447 15.9027 27.2584 14.8476C31.6665 12.2788 35.2465 10.2324 37.9985 8.70823C39.5491 7.84804 42.7579 7.71954 44.3043 8.61081C57.882 16.4471 71.4403 24.3152 84.9794 32.215C87.0434 33.4193 88.4759 34.8246 88.9293 37.229C89.981 42.8295 85.3396 47.205 79.8329 45.696C79.1732 45.515 78.3734 45.1495 77.4335 44.5996C66.0599 37.9516 54.6856 31.3051 43.3106 24.6599C41.4088 23.549 39.8845 23.864 38.7376 25.6051C38.5885 25.8317 38.5126 26.0977 38.5098 26.4031Z" fill="#113FE1"/>
<path d="M40.2135 70.5794C39.1639 71.2241 38.5387 72.0594 38.5118 73.3092C38.4249 77.3241 38.5491 81.3659 38.4766 85.8057C38.3897 91.1844 33.5662 92.8467 29.0449 91.7814C26.1073 91.0891 24.3207 88.9956 24.3228 85.9902C24.3255 79.4459 24.3262 72.9023 24.3248 66.3594C24.3228 63.9218 25.1426 62.5746 27.2045 61.3807C34.6475 57.0708 42.0912 52.7602 49.5356 48.4489C51.1766 47.4982 52.3228 46.9234 52.9742 46.7244C55.7751 45.8684 58.9136 46.7514 60.8471 48.9257C62.9297 51.2678 63.0394 54.8723 61.0997 57.2974C60.7726 57.705 60.275 58.1182 59.6071 58.5369C53.1591 62.5787 46.6946 66.5929 40.2135 70.5794Z" fill="#1E82F6"/>
</svg>
