<svg width="100" height="100" viewBox="0 0 100 100" fill="none" xmlns="http://www.w3.org/2000/svg">
<rect width="100" height="100" fill="#F4FCFF"/>
<path d="M39.3251 53.318C39.428 53.1679 39.3888 53.0933 39.2074 53.0943L32.5957 53.1355C32.5565 53.1359 32.5184 53.1232 32.4872 53.0995C32.4561 53.0758 32.4337 53.0424 32.4236 53.0045L31.8898 50.949C31.8663 50.8558 31.806 50.8092 31.7089 50.8092H27.9751C27.9212 50.8092 27.8873 50.8352 27.8736 50.8872L27.3015 53.056C27.296 53.0764 27.284 53.0943 27.2672 53.1071C27.2505 53.1199 27.23 53.1268 27.2089 53.1267L23.7868 53.1237C23.6829 53.1227 23.6471 53.0727 23.6795 52.9736L27.6045 40.9406C27.6182 40.8984 27.6471 40.8774 27.6913 40.8774H31.9413C32.0069 40.8774 32.0496 40.9083 32.0692 40.97L35.9427 52.8662C35.95 52.8883 35.9633 52.9079 35.9812 52.9228C35.999 52.9377 36.0207 52.9472 36.0438 52.9503C36.0668 52.9533 36.0903 52.9498 36.1114 52.9402C36.1325 52.9305 36.1505 52.9151 36.1633 52.8957L40.0883 47.0748C40.1052 47.0495 40.1141 47.0197 40.1139 46.9893C40.1136 46.9588 40.1042 46.9292 40.0868 46.9042L36.0898 41.0524C36.027 40.9602 36.0515 40.9141 36.1633 40.9141H39.7442C39.7768 40.9141 39.809 40.9221 39.8379 40.9375C39.8669 40.9529 39.8917 40.9752 39.9104 41.0024L41.9898 44.085C41.9966 44.0953 42.0059 44.1038 42.0168 44.1096C42.0277 44.1155 42.0399 44.1185 42.0523 44.1185C42.0647 44.1185 42.0768 44.1155 42.0877 44.1096C42.0987 44.1038 42.1079 44.0953 42.1148 44.085L44.228 40.9759C44.2565 40.9347 44.2957 40.9141 44.3457 40.9141H47.4648C47.5346 40.9142 47.6033 40.8972 47.6651 40.8646C47.7269 40.832 47.7798 40.7849 47.8192 40.7273C48.6359 39.5305 49.4143 38.3618 50.1545 37.2209C50.2913 37.0105 50.4589 36.8884 50.6957 37.0017C50.7096 37.0086 50.7219 37.0184 50.7318 37.0304C50.7417 37.0424 50.7489 37.0563 50.7529 37.0712C50.757 37.0861 50.7578 37.1017 50.7552 37.1169C50.7527 37.132 50.7469 37.1465 50.7383 37.1592L44.1133 46.9836C44.0903 47.0179 44.0781 47.0582 44.0781 47.0994C44.0781 47.1405 44.0903 47.1807 44.1133 47.2146L48.028 53.0075C48.0354 53.0187 48.0396 53.0318 48.0403 53.0452C48.0409 53.0587 48.0379 53.072 48.0316 53.0839C48.0252 53.0958 48.0158 53.1058 48.0044 53.1128C47.9929 53.1198 47.9797 53.1236 47.9663 53.1237L44.3089 53.1281C44.2908 53.1281 44.273 53.1237 44.2571 53.1152C44.2412 53.1067 44.2277 53.0945 44.2177 53.0796L42.2104 50.0809C42.1995 50.0645 42.1848 50.0511 42.1674 50.0418C42.1501 50.0325 42.1308 50.0276 42.1111 50.0276C42.0915 50.0276 42.0721 50.0325 42.0548 50.0418C42.0375 50.0511 42.0227 50.0645 42.0118 50.0809C40.503 52.3694 38.9663 54.6285 37.4015 56.8581C37.2888 57.019 37.1378 57.071 36.9486 57.0141C36.9342 57.0096 36.921 57.0017 36.9101 56.9912C36.8992 56.9807 36.8909 56.9678 36.8859 56.9535C36.8809 56.9392 36.8793 56.9239 36.8813 56.9089C36.8832 56.8938 36.8886 56.8795 36.8971 56.8669L39.3251 53.318ZM28.6133 48.0386C28.6117 48.0452 28.6117 48.0521 28.6132 48.0587C28.6147 48.0653 28.6177 48.0715 28.6219 48.0767C28.6262 48.082 28.6316 48.0862 28.6378 48.089C28.6439 48.0919 28.6507 48.0932 28.6574 48.093L31.1045 48.0798C31.1111 48.0798 31.1177 48.0782 31.1237 48.0753C31.1296 48.0724 31.1349 48.0681 31.139 48.0629C31.1431 48.0577 31.1459 48.0516 31.1473 48.0451C31.1488 48.0386 31.1487 48.0318 31.1471 48.0254L29.8986 43.2831C29.8961 43.2737 29.8906 43.2653 29.8829 43.2594C29.8752 43.2535 29.8657 43.2502 29.856 43.2502C29.8462 43.2502 29.8368 43.2535 29.8291 43.2594C29.8213 43.2653 29.8158 43.2737 29.8133 43.2831L28.6133 48.0386Z" fill="#069FDB"/>
<path d="M81.094 42.0825C82.8543 40.1491 86.5087 40.6303 88.6264 41.6146C88.6734 41.6362 88.6872 41.671 88.6676 41.7191L87.719 44.091C87.7128 44.1063 87.7035 44.1201 87.6917 44.1317C87.6799 44.1432 87.6659 44.1521 87.6506 44.158C87.6352 44.1638 87.6189 44.1663 87.6025 44.1654C87.5862 44.1645 87.5703 44.1602 87.5558 44.1528C86.7602 43.7408 83.7558 42.677 83.4852 44.1719C83.4774 44.216 83.4823 44.2577 83.4999 44.297C83.6411 44.605 83.8239 44.8139 84.0484 44.9238C86.1455 45.9434 88.7617 46.6512 88.6955 49.5601C88.647 51.7643 86.7249 53.0605 84.6426 53.2504C83.1161 53.3887 81.6857 53.1778 80.3514 52.6177C80.2909 52.5924 80.2392 52.5497 80.2028 52.495C80.1665 52.4403 80.147 52.376 80.147 52.3101V49.6719C80.1469 49.6577 80.1505 49.6437 80.1574 49.6313C80.1643 49.6188 80.1743 49.6084 80.1865 49.601C80.1986 49.5936 80.2124 49.5895 80.2267 49.589C80.2409 49.5885 80.255 49.5918 80.2676 49.5984C81.3837 50.1737 83.3087 50.8123 84.569 50.5239C85.7337 50.259 85.5102 49.104 84.5882 48.7185C83.3411 48.1986 82.3431 47.6782 81.594 47.1573C80.0323 46.0729 79.8382 43.4612 81.094 42.0825Z" fill="#069FDB"/>
<path d="M19.2987 44.5057L16.909 53.028C16.8904 53.0937 16.8472 53.1266 16.7796 53.1266H13.8972C13.8645 53.1266 13.8325 53.1158 13.8063 53.0959C13.78 53.076 13.7609 53.048 13.7516 53.0162L11.3296 44.4866C11.3264 44.4752 11.3191 44.4659 11.3091 44.4605C11.2992 44.4551 11.2873 44.4541 11.2758 44.4576C11.2643 44.4611 11.2539 44.4688 11.2467 44.4793C11.2396 44.4899 11.2361 44.5024 11.2369 44.5146C11.3977 47.3494 11.4394 50.1868 11.3619 53.0265C11.36 53.0932 11.3257 53.1266 11.259 53.1266H8.56635C8.5371 53.1266 8.50904 53.115 8.48836 53.0943C8.46767 53.0736 8.45605 53.0455 8.45605 53.0162V40.9876C8.45605 40.9386 8.48056 40.9141 8.52958 40.9141H12.7884C12.8081 40.9142 12.8271 40.9205 12.8428 40.9322C12.8584 40.9439 12.8698 40.9602 12.8752 40.9788L15.359 49.3746C15.3641 49.393 15.3751 49.4092 15.3904 49.4207C15.4056 49.4322 15.4243 49.4384 15.4434 49.4382C15.4625 49.4381 15.481 49.4316 15.4961 49.4198C15.5111 49.408 15.5219 49.3916 15.5266 49.3731L17.8958 40.9965C17.9114 40.9415 17.9477 40.9141 18.0046 40.9141H22.2237C22.2855 40.9141 22.3163 40.945 22.3163 41.0068V53.0413C22.3163 53.0471 22.3152 53.0528 22.313 53.0581C22.3108 53.0635 22.3075 53.0684 22.3034 53.0725C22.2993 53.0766 22.2945 53.0798 22.2891 53.082C22.2838 53.0843 22.278 53.0854 22.2722 53.0854L19.4281 53.1075C19.3291 53.1075 19.2801 53.0579 19.2811 52.9589L19.3531 44.5131C19.3528 44.5066 19.3502 44.5004 19.3458 44.4956C19.3413 44.4908 19.3354 44.4877 19.329 44.4869C19.3225 44.486 19.316 44.4874 19.3104 44.4908C19.3049 44.4943 19.3008 44.4995 19.2987 44.5057Z" fill="#069FDB"/>
<path d="M52.4822 40.9141H49.3881C49.3377 40.9141 49.2969 40.9549 49.2969 41.0053V53.0324C49.2969 53.0828 49.3377 53.1237 49.3881 53.1237H52.4822C52.5325 53.1237 52.5733 53.0828 52.5733 53.0324V41.0053C52.5733 40.9549 52.5325 40.9141 52.4822 40.9141Z" fill="#069FDB"/>
<path d="M56.5737 44.4542C56.4962 44.4778 56.4619 44.5361 56.4707 44.6293C56.6345 46.4715 56.6952 47.759 56.6531 48.4917C56.5707 49.9028 56.6869 51.4271 56.6266 53.0089C56.6247 53.0677 56.5943 53.0977 56.5354 53.0986L53.8075 53.1295C53.795 53.1297 53.7826 53.1274 53.771 53.1228C53.7594 53.1182 53.7489 53.1112 53.74 53.1025C53.7311 53.0937 53.724 53.0833 53.7192 53.0717C53.7144 53.0602 53.7119 53.0479 53.7119 53.0354L53.7134 41.0244C53.7134 40.9508 53.7502 40.9141 53.8237 40.9141H57.9796C58.057 40.9141 58.107 40.9513 58.1296 41.0259L60.6443 49.4937C60.6474 49.5029 60.6533 49.5108 60.6612 49.5163C60.6691 49.5219 60.6785 49.5248 60.6882 49.5246C60.6978 49.5244 60.7072 49.5212 60.7149 49.5154C60.7226 49.5096 60.7282 49.5015 60.731 49.4923L63.2075 40.9906C63.2222 40.9396 63.256 40.9141 63.309 40.9141H67.409C67.5188 40.9141 67.5737 40.969 67.5737 41.0789L67.5913 52.9677C67.5913 52.9867 67.5876 53.0056 67.5803 53.0232C67.5731 53.0408 67.5624 53.0568 67.549 53.0702C67.5356 53.0836 67.5197 53.0942 67.5022 53.1013C67.4848 53.1085 67.4661 53.1121 67.4472 53.1119L64.6899 53.0869C64.6153 53.0859 64.5781 53.0481 64.5781 52.9736L64.6369 44.5999C64.6367 44.5919 64.6336 44.5842 64.6282 44.5782C64.6229 44.5723 64.6155 44.5684 64.6076 44.5673C64.5996 44.5663 64.5915 44.5681 64.5848 44.5724C64.5781 44.5768 64.5731 44.5834 64.5707 44.5911L62.1928 53.0648C62.1899 53.0757 62.1836 53.0854 62.1748 53.0924C62.166 53.0993 62.1553 53.103 62.1443 53.1031L59.2075 53.1237C59.1556 53.1242 59.105 53.1074 59.0636 53.076C59.0221 53.0446 58.992 53.0003 58.9781 52.95C58.2183 50.2564 57.4546 47.5569 56.6869 44.8515C56.6702 44.7917 56.6585 44.6774 56.6516 44.5087C56.6487 44.4567 56.6227 44.4385 56.5737 44.4542Z" fill="#069FDB"/>
<path d="M78.1705 51.4801C76.8352 53.3429 73.9279 53.5621 71.9044 53.0192C69.4367 52.3556 68.6396 50.4266 68.6396 48.0503C68.6396 45.6941 68.6396 43.3404 68.6396 40.9891C68.6396 40.9692 68.6476 40.9501 68.6616 40.936C68.6757 40.922 68.6948 40.9141 68.7146 40.9141H71.872C71.8815 40.9141 71.8908 40.9159 71.8996 40.9196C71.9083 40.9232 71.9163 40.9285 71.923 40.9352C71.9296 40.9419 71.935 40.9498 71.9386 40.9586C71.9422 40.9673 71.9441 40.9767 71.9441 40.9862C71.9529 43.3463 71.9534 45.7005 71.9455 48.0488C71.9411 49.404 72.3808 50.5267 73.9352 50.5075C75.3896 50.4899 75.8058 49.4496 75.8058 48.1813C75.8078 45.7839 75.8088 43.3865 75.8088 40.9891C75.8088 40.9391 75.8338 40.9141 75.8838 40.9141H79.0367C79.0857 40.9141 79.1102 40.9386 79.1102 40.9876C79.1249 42.9014 79.1259 44.8108 79.1132 46.7158C79.0999 48.7786 79.1661 50.0941 78.1705 51.4801Z" fill="#069FDB"/>
<path d="M56.7281 61.1253C56.5281 61.0605 56.4747 60.8913 56.5678 60.6177C56.5728 60.6028 56.5807 60.589 56.591 60.5773C56.6014 60.5655 56.614 60.556 56.6282 60.5493C56.6423 60.5425 56.6577 60.5387 56.6734 60.5381C56.689 60.5375 56.7046 60.54 56.7193 60.5456C57.4046 60.8045 58.9869 61.1356 59.2664 60.088C59.6267 58.7416 56.984 59.0521 56.6811 57.5498C56.3266 55.7974 58.4266 55.7223 59.5119 56.0593C59.5656 56.0763 59.6117 56.1116 59.6423 56.1591C59.6729 56.2066 59.6861 56.2634 59.6796 56.3197L59.6414 56.6346C59.6316 56.719 59.5889 56.742 59.5134 56.7038C58.8801 56.3859 58.2301 56.3467 57.5634 56.586C57.5115 56.6047 57.4713 56.6375 57.4428 56.6846C56.6678 57.9662 58.4766 58.3252 59.2193 58.6931C60.0561 59.1065 60.1002 60.2748 59.5046 60.8487C58.8428 61.4858 57.5737 61.4004 56.7281 61.1253Z" fill="#3CC7F6"/>
<path d="M84.6456 61.1487C79.5456 62.726 79.7912 54.3347 84.8177 56.1224C84.8795 56.144 84.9 56.1857 84.8794 56.2475L84.7603 56.6094C84.7559 56.6229 84.7488 56.6352 84.7394 56.6458C84.73 56.6564 84.7185 56.6649 84.7057 56.6708C84.6929 56.6768 84.679 56.68 84.6648 56.6803C84.6507 56.6806 84.6367 56.678 84.6236 56.6727C80.5647 55.0144 80.6295 62.2169 84.5618 60.5822C84.5744 60.5768 84.588 60.5746 84.6016 60.5756C84.6153 60.5766 84.6285 60.5809 84.6402 60.588C84.652 60.5952 84.6619 60.6051 84.6693 60.6168C84.6766 60.6286 84.6811 60.6419 84.6824 60.6557L84.7133 61.0471C84.7182 61.0991 84.6956 61.133 84.6456 61.1487Z" fill="#3CC7F6"/>
<path d="M61.7193 61.0073C61.0943 60.6233 60.9634 59.9568 60.9605 59.196C60.9566 58.1563 60.9541 57.1121 60.9531 56.0635C60.9531 56.0357 60.9641 56.0092 60.9837 55.9896C61.0033 55.97 61.0298 55.959 61.0575 55.959H61.4752C61.5428 55.959 61.5752 55.9928 61.5722 56.0605C61.5134 57.5653 61.5183 58.8061 61.5869 59.7831C61.684 61.1677 64.3178 61.1942 64.3664 59.6286C64.3879 58.9361 64.3874 57.7423 64.3649 56.0473C64.3639 55.9884 64.3928 55.959 64.4517 55.959H64.8869C64.9369 55.959 64.9619 55.984 64.9619 56.034C64.9639 57.0189 64.9644 58.0032 64.9634 58.9871C64.9624 59.6031 64.9154 60.0298 64.8222 60.2672C64.3619 61.4311 62.6281 61.5679 61.7193 61.0073Z" fill="#3CC7F6"/>
<path d="M74.2337 61.1544L73.6204 59.6256C73.6038 59.5844 73.5734 59.5638 73.5293 59.5638H71.5778C71.5532 59.5637 71.5291 59.5713 71.5086 59.5855C71.4881 59.5997 71.4723 59.6198 71.4631 59.6432L70.8778 61.1455C70.8543 61.2073 70.8092 61.2397 70.7425 61.2426L70.319 61.2618C70.2445 61.2647 70.2209 61.2314 70.2484 61.1617L72.2322 56.1252C72.2584 56.0591 72.3038 56.0025 72.3625 55.9626C72.4213 55.9227 72.4906 55.9014 72.5616 55.9014C72.6326 55.9014 72.702 55.9227 72.7607 55.9626C72.8194 56.0025 72.8648 56.0591 72.891 56.1252L74.8602 61.1529C74.8856 61.2196 74.8631 61.2529 74.7925 61.2529L74.3866 61.2574C74.3121 61.2574 74.2611 61.223 74.2337 61.1544ZM71.7072 58.9811C71.7046 58.9882 71.7038 58.9959 71.7047 59.0034C71.7057 59.0109 71.7085 59.018 71.7128 59.0242C71.7171 59.0305 71.7229 59.0355 71.7296 59.039C71.7363 59.0425 71.7438 59.0444 71.7513 59.0444L73.3543 59.0532C73.3618 59.0532 73.3693 59.0514 73.376 59.0479C73.3827 59.0444 73.3885 59.0393 73.3928 59.0331C73.3971 59.0269 73.3999 59.0197 73.4009 59.0122C73.4018 59.0047 73.401 58.9971 73.3984 58.9899L72.6087 56.8211C72.6053 56.8121 72.5993 56.8043 72.5914 56.7988C72.5835 56.7934 72.5742 56.7904 72.5646 56.7904C72.555 56.7904 72.5456 56.7934 72.5377 56.7988C72.5298 56.8043 72.5238 56.8121 72.5205 56.8211L71.7072 58.9811Z" fill="#3CC7F6"/>
<path d="M49.8234 55.9615L49.3557 55.9623C49.3224 55.9624 49.2955 55.9894 49.2955 56.0227L49.3045 61.1932C49.3046 61.2265 49.3316 61.2535 49.3649 61.2534L49.8326 61.2526C49.8659 61.2525 49.8928 61.2255 49.8928 61.1922L49.8837 56.0217C49.8837 55.9884 49.8567 55.9614 49.8234 55.9615Z" fill="#3CC7F6"/>
<path d="M51.8576 56.9713L51.8899 61.206C51.8901 61.2128 51.8889 61.2196 51.8864 61.2259C51.8839 61.2323 51.8801 61.238 51.8753 61.2428C51.8705 61.2477 51.8647 61.2514 51.8584 61.254C51.852 61.2565 51.8453 61.2577 51.8384 61.2575L51.3737 61.2531C51.3605 61.2531 51.3478 61.2478 51.3384 61.2384C51.329 61.229 51.3237 61.2163 51.3237 61.203V56.0075C51.3237 55.9943 51.329 55.9816 51.3384 55.9722C51.3478 55.9628 51.3605 55.9575 51.3737 55.9575L51.987 55.9619C51.9951 55.962 52.0031 55.964 52.0103 55.9679C52.0175 55.9717 52.0236 55.9772 52.0281 55.984L54.7973 60.2496C54.803 60.259 54.8118 60.2663 54.8221 60.2702C54.8324 60.2742 54.8438 60.2746 54.8544 60.2714C54.865 60.2682 54.8742 60.2616 54.8806 60.2526C54.8871 60.2436 54.8903 60.2327 54.8899 60.2216V56.0075C54.8899 55.9943 54.8952 55.9816 54.9046 55.9722C54.9139 55.9628 54.9266 55.9575 54.9399 55.9575L55.4281 55.9619C55.4414 55.9619 55.4541 55.9672 55.4635 55.9766C55.4729 55.986 55.4781 55.9987 55.4781 56.012V61.206C55.4781 61.2192 55.4729 61.232 55.4635 61.2413C55.4541 61.2507 55.4414 61.256 55.4281 61.256H54.7723C54.7641 61.2559 54.7561 61.2539 54.7489 61.2501C54.7418 61.2462 54.7356 61.2407 54.7311 61.2339L51.9487 56.9434C51.9427 56.9346 51.934 56.928 51.924 56.9245C51.914 56.921 51.9031 56.9208 51.8929 56.9239C51.8827 56.927 51.8738 56.9333 51.8675 56.9418C51.8611 56.9503 51.8576 56.9607 51.8576 56.9713Z" fill="#3CC7F6"/>
<path d="M66.9484 59.1592V61.1824C66.9484 61.2314 66.9239 61.2559 66.8749 61.2559H66.4896C66.4279 61.2559 66.397 61.225 66.397 61.1632V56.034C66.397 55.9879 66.42 55.9643 66.4661 55.9633C67.1911 55.9516 68.2102 55.8486 68.8764 56.1267C69.719 56.4769 69.9146 57.4656 69.4911 58.2219C69.3146 58.5368 69.0293 58.6957 68.7176 58.8738C68.6685 58.9022 68.6587 58.941 68.6881 58.99L70.0014 61.1426C70.0092 61.1552 70.0135 61.1698 70.0136 61.1846C70.0138 61.1995 70.0098 61.2141 70.0023 61.2269C69.9947 61.2396 69.9837 61.25 69.9706 61.257C69.9575 61.2639 69.9427 61.2671 69.9279 61.2662L69.3984 61.2309C69.3484 61.228 69.3112 61.2049 69.2867 61.1618L68.1617 59.193C68.1363 59.1489 68.0995 59.1125 68.0552 59.0877C68.0109 59.0628 67.9608 59.0504 67.9102 59.0518L67.0293 59.0768C67.0076 59.0776 66.9871 59.0866 66.972 59.102C66.9569 59.1173 66.9484 59.1379 66.9484 59.1592ZM66.9455 56.6299L66.9484 58.3985C66.9484 58.4348 66.9629 58.4696 66.9885 58.4953C67.0142 58.5209 67.0489 58.5353 67.0852 58.5353L68.0631 58.5339C68.3338 58.5334 68.5932 58.4328 68.7843 58.2539C68.9754 58.0751 69.0826 57.8329 69.0823 57.5804V57.4421C69.0821 57.3171 69.0555 57.1933 69.0041 57.0779C68.9526 56.9624 68.8773 56.8576 68.7824 56.7693C68.6874 56.6811 68.5748 56.6111 68.4509 56.5634C68.327 56.5158 68.1942 56.4914 68.0602 56.4916L67.0823 56.4931C67.046 56.4931 67.0112 56.5075 66.9856 56.5331C66.9599 56.5588 66.9455 56.5936 66.9455 56.6299Z" fill="#3CC7F6"/>
<path d="M76.1881 61.2046L75.7161 61.2811C75.7089 61.2822 75.7016 61.2817 75.6947 61.2796C75.6877 61.2776 75.6813 61.2741 75.6758 61.2693C75.6704 61.2646 75.666 61.2587 75.6631 61.2521C75.6601 61.2455 75.6586 61.2383 75.6587 61.2311L75.6543 56.0062C75.6543 55.9995 75.6556 55.9929 75.6582 55.9867C75.6608 55.9805 75.6647 55.9749 75.6695 55.9703C75.6743 55.9656 75.6799 55.962 75.6862 55.9595C75.6924 55.9571 75.6991 55.956 75.7058 55.9562L76.319 55.9679C76.3271 55.968 76.3351 55.97 76.3423 55.9739C76.3495 55.9777 76.3556 55.9832 76.3602 55.99L79.1205 60.2467C79.1264 60.2554 79.135 60.262 79.1449 60.2655C79.1548 60.2691 79.1655 60.2694 79.1756 60.2664C79.1857 60.2635 79.1946 60.2575 79.2011 60.2492C79.2076 60.2409 79.2113 60.2308 79.2117 60.2202L79.1822 56.0018C79.1822 55.9949 79.1836 55.9882 79.1863 55.9819C79.189 55.9757 79.1929 55.97 79.1979 55.9653C79.2029 55.9606 79.2087 55.957 79.2151 55.9547C79.2216 55.9523 79.2284 55.9513 79.2352 55.9517L79.7322 55.9753C79.745 55.976 79.757 55.9816 79.7657 55.9909C79.7745 56.0002 79.7793 56.0125 79.7793 56.0253V61.1678C79.7793 61.1804 79.7747 61.1925 79.7662 61.2017C79.7578 61.211 79.7462 61.2167 79.7337 61.2178L79.1146 61.2693C79.1057 61.2701 79.0968 61.2684 79.0888 61.2645C79.0808 61.2606 79.0739 61.2547 79.069 61.2473L76.2705 56.9376C76.2647 56.9281 76.256 56.9209 76.2456 56.9169C76.2353 56.9129 76.2239 56.9125 76.2134 56.9157C76.2028 56.9189 76.1935 56.9256 76.1871 56.9346C76.1807 56.9436 76.1774 56.9545 76.1778 56.9655L76.2308 61.1546C76.2309 61.1667 76.2266 61.1784 76.2188 61.1876C76.211 61.1968 76.2001 61.2028 76.1881 61.2046Z" fill="#3CC7F6"/>
<path d="M85.8618 61.1662L85.8912 56.0487C85.8912 56.037 85.8936 56.0253 85.8981 56.0144C85.9026 56.0035 85.9092 55.9936 85.9175 55.9853C85.9258 55.9769 85.9357 55.9703 85.9466 55.9658C85.9575 55.9613 85.9692 55.959 85.9809 55.959H88.6971C88.7089 55.959 88.7206 55.9613 88.7315 55.9658C88.7423 55.9703 88.7522 55.9769 88.7606 55.9853C88.7689 55.9936 88.7755 56.0035 88.78 56.0144C88.7845 56.0253 88.7868 56.037 88.7868 56.0487V56.4298C88.7868 56.4417 88.7845 56.4535 88.7799 56.4645C88.7753 56.4755 88.7685 56.4855 88.76 56.4938C88.7516 56.5022 88.7415 56.5088 88.7304 56.5132C88.7194 56.5176 88.7076 56.5198 88.6957 56.5196L86.5633 56.4872C86.5398 56.4868 86.517 56.4957 86.4999 56.5119C86.4829 56.5282 86.4729 56.5505 86.4721 56.574L86.4339 58.1469C86.4335 58.159 86.4355 58.171 86.4399 58.1822C86.4442 58.1934 86.4507 58.2037 86.4591 58.2123C86.4675 58.221 86.4775 58.2278 86.4886 58.2325C86.4996 58.2372 86.5116 58.2396 86.5236 58.2396H88.606C88.6288 58.2396 88.6507 58.2482 88.6674 58.2638C88.6841 58.2794 88.6942 58.3007 88.6957 58.3235L88.7192 58.659C88.72 58.6713 88.7183 58.6836 88.7141 58.6951C88.71 58.7067 88.7035 58.7173 88.6951 58.7263C88.6867 58.7353 88.6765 58.7424 88.6652 58.7473C88.6539 58.7522 88.6418 58.7547 88.6295 58.7546H86.5236C86.4998 58.7546 86.477 58.7641 86.4602 58.7809C86.4433 58.7977 86.4339 58.8206 86.4339 58.8444V60.6145C86.4339 60.6383 86.4433 60.6611 86.4602 60.6779C86.477 60.6948 86.4998 60.7042 86.5236 60.7042H88.6971C88.7209 60.7042 88.7437 60.7137 88.7606 60.7305C88.7774 60.7473 88.7868 60.7702 88.7868 60.794V61.1574C88.7868 61.1812 88.7774 61.204 88.7606 61.2209C88.7437 61.2377 88.7209 61.2472 88.6971 61.2472L85.953 61.2575C85.941 61.2577 85.929 61.2554 85.9179 61.2509C85.9067 61.2464 85.8966 61.2397 85.8881 61.2312C85.8796 61.2227 85.8729 61.2125 85.8684 61.2014C85.8639 61.1902 85.8616 61.1783 85.8618 61.1662Z" fill="#3CC7F6"/>
</svg>
