<svg width="100" height="100" viewBox="0 0 100 100" fill="none" xmlns="http://www.w3.org/2000/svg">
<rect width="100" height="100" fill="#F7F9FB"/>
<path d="M46.4506 34.301C47.506 28.8254 50.8388 25.5911 56.4488 24.5978C61.4073 23.7192 68.572 22.7344 68.444 16.1808C68.4212 14.9272 68.4995 14.9215 68.6787 16.1638C70.1807 26.5079 57.9807 25.0053 52.0706 28.3755C48.1276 30.6209 46.1519 34.9419 46.8731 39.4454C47.3894 42.6798 49.3054 45.5322 50.8416 48.2785C50.8459 48.2882 50.8469 48.2994 50.8444 48.31C50.8419 48.3207 50.8361 48.3301 50.828 48.3367C50.8198 48.3432 50.8099 48.3465 50.7999 48.346C50.7899 48.3454 50.7805 48.3411 50.7733 48.3336C47.4876 45.1842 45.6583 41.3456 45.2857 36.818C45.2003 35.7739 44.9101 35.3112 44.3469 34.4962C44.2587 34.3661 44.2331 34.2246 44.2701 34.0718C44.4863 33.2115 44.29 32.49 43.6812 31.907C43.5162 31.7486 43.5204 31.5958 43.694 31.4486L44.1036 31.1006C44.2516 30.9732 44.3611 31.0001 44.4322 31.1812C44.987 32.5437 44.6626 33.711 46.1818 34.4368C46.3326 34.5076 46.4222 34.4623 46.4506 34.301Z" fill="#88704A"/>
<path d="M54.0163 42.7223C58.5012 43.4906 56.9778 48.4865 56.2481 51.288C55.5866 53.8347 56.2609 55.9952 57.9379 57.935C58.1427 58.1699 58.1029 58.2208 57.8184 58.0878C53.5256 56.0801 54.8783 51.2455 55.3605 47.731C55.7189 45.1375 54.6521 42.3998 51.4133 43.5373C51.2284 43.6024 51.1644 43.5416 51.2213 43.3548C51.7675 41.5126 55.2282 41.5678 56.2566 41.1731C59.3034 40.0016 60.2379 37.6458 61.6632 34.6449C62.555 32.7645 64.3644 32.0047 65.1325 30.0013C65.8607 28.0969 66.9432 26.4188 68.3798 24.9672C69.7496 23.5834 70.2147 22.361 70.3044 20.5443C70.3032 20.5319 70.3071 20.5196 70.3151 20.51C70.3231 20.5005 70.3346 20.4945 70.347 20.4934C70.3595 20.4922 70.3719 20.4961 70.3815 20.504C70.3911 20.512 70.3971 20.5234 70.3982 20.5358C70.7453 21.9252 70.6856 23.2382 70.219 24.4748C69.7197 25.7949 68.0939 27.2762 67.6971 28.5751C67.1878 30.2475 66.7839 31.2591 66.4852 31.61C65.2263 33.0913 63.7371 34.4751 63.0031 36.3257C62.1326 38.5202 60.7713 40.9651 58.5438 41.8989C57.285 42.4252 55.561 42.3318 54.0248 42.4931C53.9943 42.492 53.9645 42.503 53.9421 42.5237C53.9197 42.5444 53.9065 42.5731 53.9053 42.6035C53.9042 42.6339 53.9153 42.6635 53.9361 42.6858C53.9569 42.7081 53.9857 42.7212 54.0163 42.7223Z" fill="#88704A"/>
<path d="M24.3803 25.3451C24.9991 32.0346 30.7812 32.0473 36.3201 32.1025C40.0212 32.1364 42.6427 33.8329 44.1846 37.1918C44.188 37.2022 44.1879 37.2135 44.1843 37.2239C44.1808 37.2343 44.1739 37.2433 44.1648 37.2495C44.1557 37.2557 44.1448 37.2588 44.1337 37.2584C44.1227 37.2579 44.1121 37.2539 44.1035 37.2469C42.7693 35.999 41.4351 35.0879 40.1008 34.5134C34.5321 32.1279 23.2666 36.1094 24.1968 25.3451C24.2014 25.3242 24.213 25.3056 24.2296 25.2922C24.2463 25.2788 24.2671 25.2715 24.2886 25.2715C24.31 25.2715 24.3308 25.2788 24.3475 25.2922C24.3642 25.3056 24.3758 25.3242 24.3803 25.3451Z" fill="#88704A"/>
<path d="M43.1774 45.4134C43.1839 45.3975 43.185 45.3799 43.1807 45.3633C43.1765 45.3467 43.167 45.3319 43.1537 45.321C43.1403 45.3101 43.1239 45.3037 43.1067 45.3028C43.0895 45.3018 43.0724 45.3064 43.058 45.3157C40.9585 46.558 38.9273 46.6528 36.9643 45.6001C34.1565 44.089 34.4851 41.1815 30.9347 40.1798C26.4285 38.9064 23.258 36.3936 23.8682 31.2661C23.8715 31.2546 23.8785 31.2444 23.8881 31.2372C23.8977 31.23 23.9095 31.2261 23.9215 31.2261C23.9336 31.2261 23.9453 31.23 23.9549 31.2372C23.9645 31.2444 23.9715 31.2546 23.9749 31.2661C24.632 36.3384 27.6319 37.6627 32.1552 38.7918C35.8933 39.7256 35.7354 44.14 39.5503 44.73C41.0139 44.9592 42.8574 44.2801 44.4064 43.915C44.8417 43.8103 45.2086 43.9348 45.5074 44.2885C45.6041 44.4017 45.5913 44.4994 45.469 44.5814C42.1192 46.7886 47.1673 49.9508 48.4646 51.5935C50.2625 53.8686 50.3009 56.3064 48.5798 58.907C48.5756 58.9156 48.5697 58.9233 48.5625 58.9297C48.5553 58.9361 48.5469 58.941 48.5378 58.9442C48.5287 58.9473 48.519 58.9486 48.5094 58.9481C48.4997 58.9475 48.4903 58.9451 48.4816 58.9409C48.4729 58.9367 48.4652 58.9309 48.4587 58.9237C48.4523 58.9166 48.4474 58.9082 48.4442 58.8991C48.4411 58.8901 48.4397 58.8805 48.4403 58.8709C48.4408 58.8613 48.4433 58.8519 48.4475 58.8433C50.8243 51.3898 41.031 50.6385 43.1774 45.4134Z" fill="#88704A"/>
<path d="M76.4789 37.9173C76.3053 37.9485 76.1133 37.8862 75.9028 37.7306C75.7122 37.5919 75.5415 37.4999 75.3907 37.4547C70.7224 36.0667 66.6215 37.4504 62.3031 39.4369C62.281 39.4467 62.2564 39.4497 62.2326 39.4453C62.2088 39.441 62.1869 39.4295 62.1698 39.4125C62.1526 39.3954 62.1411 39.3736 62.1367 39.35C62.1324 39.3263 62.1353 39.3018 62.1452 39.2798L63.4937 36.4529C63.5193 36.3978 63.5556 36.3484 63.6002 36.3076C63.6449 36.2668 63.6972 36.2354 63.754 36.2152C68.1364 34.7254 72.9328 34.615 76.5471 37.6754C76.6979 37.8027 76.6752 37.8834 76.4789 37.9173Z" fill="#354383"/>
<path d="M57.5666 44.7219C63.1781 42.2048 82.6324 33.9788 86.5839 42.0478C86.5972 42.0729 86.6014 42.1019 86.5958 42.1297C86.5901 42.1576 86.575 42.1826 86.5528 42.2006C86.5307 42.2186 86.5031 42.2284 86.4745 42.2284C86.4459 42.2284 86.4182 42.2186 86.3961 42.2006C80.311 37.4891 64.1723 44.5479 57.9678 47.3578C57.9287 47.3748 57.8862 47.3823 57.8437 47.3797C57.8012 47.3772 57.7599 47.3646 57.7232 47.343C57.6865 47.3215 57.6555 47.2916 57.6328 47.2558C57.61 47.2199 57.5961 47.1793 57.5922 47.1371L57.396 45.0105C57.3846 44.8747 57.4415 44.7785 57.5666 44.7219Z" fill="#008198"/>
<path d="M21.2736 42.2386C24.8453 41.5595 36.3327 41.6444 34.6812 48.2744C34.6738 48.3024 34.6577 48.3274 34.6354 48.3459C34.6131 48.3645 34.5855 48.3757 34.5565 48.378C34.5275 48.3803 34.4985 48.3736 34.4734 48.3589C34.4484 48.3442 34.4286 48.3221 34.4167 48.2957C33.1152 45.1801 29.4752 44.1402 26.3004 44.259C16.8484 44.6156 7.46051 49.9171 3.8931 58.9326C3.85043 59.0458 3.80633 59.0444 3.76082 58.9284C3.74944 58.8973 3.73948 58.8633 3.73095 58.8265C3.71957 58.7897 3.71814 58.753 3.72668 58.7162C6.02814 49.5195 11.8771 44.027 21.2736 42.2386Z" fill="#354383"/>
<path d="M78.378 41.8821C78.3858 41.8652 78.3997 41.8517 78.4169 41.8443C78.4341 41.8368 78.4534 41.8359 78.4713 41.8416C78.4891 41.8473 78.5042 41.8594 78.5138 41.8755C78.5233 41.8915 78.5266 41.9105 78.523 41.9288C77.9598 47.71 75.1306 49.3611 69.7154 50.1082C66.0243 50.6175 59.9435 51.1057 58.1726 54.9768C58.1242 55.0843 58.0844 55.0815 58.0531 54.9683C57.0887 51.5556 60.0373 49.8578 62.9775 49.0216C67.9787 47.5911 74.7337 47.9307 78.378 41.8821Z" fill="#008198"/>
<path d="M78.5783 45.7958C80.9637 45.9146 84.8042 45.9443 86.0502 43.8942C86.7728 42.7085 86.9734 42.7906 86.6519 44.1404C85.6406 48.3765 80.3108 48.8307 76.7861 48.1133C76.7576 48.1073 76.7312 48.0942 76.7093 48.0752C76.6874 48.0561 76.6708 48.0319 76.6609 48.0047C76.6511 47.9775 76.6484 47.9482 76.6531 47.9197C76.6579 47.8912 76.6698 47.8643 76.6879 47.8417L78.2113 45.9571C78.2548 45.9031 78.3108 45.8603 78.3747 45.8323C78.4385 45.8042 78.5083 45.7917 78.5783 45.7958Z" fill="#354383"/>
<path d="M74.7338 44.9935C74.7602 44.999 74.7843 45.0122 74.8031 45.0313C74.8219 45.0505 74.8346 45.0747 74.8397 45.101C74.8447 45.1273 74.8418 45.1545 74.8313 45.1792C74.8208 45.2038 74.8032 45.2249 74.7808 45.2396C73.0938 46.3857 71.2632 46.8625 69.2888 46.6701C66.7328 46.4196 65.2435 46.547 63.2934 47.9604C63.2711 47.9761 63.2442 47.984 63.2169 47.9829C63.1896 47.9818 63.1634 47.9718 63.1425 47.9543C63.1215 47.9369 63.1069 47.913 63.1011 47.8865C63.0952 47.86 63.0983 47.8322 63.1099 47.8076C65.1368 43.6225 70.9957 44.17 74.7338 44.9935Z" fill="#354383"/>
<path d="M29.9534 53.0793L42.0595 46.8907C42.0789 46.881 42.1002 46.8756 42.1219 46.8746C42.1436 46.8737 42.1652 46.8774 42.1854 46.8854C42.2056 46.8935 42.2238 46.9056 42.2389 46.9212C42.2539 46.9367 42.2655 46.9553 42.2729 46.9756L43.0709 49.1785C43.0843 49.2142 43.0838 49.2535 43.0696 49.2888C43.0554 49.3242 43.0285 49.3529 42.9941 49.3695L32.087 54.5734C32.0638 54.5854 32.0379 54.5913 32.0118 54.5906C31.9856 54.5898 31.9601 54.5825 31.9376 54.5692L29.9406 53.3425C29.9182 53.3279 29.9 53.3078 29.8878 53.284C29.8757 53.2603 29.87 53.2339 29.8713 53.2073C29.8726 53.1807 29.8808 53.1549 29.8952 53.1324C29.9096 53.11 29.9297 53.0917 29.9534 53.0793Z" fill="#354383"/>
<path d="M29.2362 49.3439C31.0157 49.832 32.2489 49.7684 33.8235 49.0086C33.8536 48.9955 33.887 48.9923 33.919 48.9995C33.951 49.0067 33.9798 49.0239 34.0013 49.0486C34.0227 49.0732 34.0357 49.1041 34.0383 49.1366C34.0408 49.1691 34.0329 49.2016 34.0155 49.2293C32.6202 51.2964 30.7852 51.4705 28.2804 51.1266C24.8282 50.6555 14.2668 48.2743 14.5399 54.743C14.5431 54.7771 14.5337 54.8112 14.5134 54.8388C14.4931 54.8664 14.4633 54.8857 14.4297 54.893C14.3962 54.9003 14.361 54.8952 14.331 54.8785C14.301 54.8618 14.2781 54.8348 14.2668 54.8025C13.2739 52.3236 13.8528 50.3867 16.0035 48.9916C20.2281 46.2496 25.0799 48.2064 29.2362 49.3439Z" fill="#008198"/>
<path d="M63.8137 52.1201C73.8374 58.6441 88.0943 43.2107 96.5818 55.2654C96.5909 55.2808 96.5946 55.2987 96.5923 55.3164C96.59 55.3341 96.5819 55.3506 96.5692 55.3632C96.5565 55.3758 96.54 55.3839 96.5222 55.3862C96.5044 55.3884 96.4864 55.3848 96.4709 55.3758C93.3444 53.2082 89.8552 52.5191 86.0033 53.3086C79.8158 54.5735 67.8035 59.0898 63.6302 52.2984C63.6154 52.2731 63.6095 52.2436 63.6135 52.2146C63.6175 52.1856 63.6311 52.1587 63.6522 52.1382C63.6732 52.1178 63.7005 52.1049 63.7298 52.1016C63.7591 52.0983 63.7886 52.1048 63.8137 52.1201Z" fill="#008198"/>
<path d="M14.651 58.8009C17.7576 61.7 21.2439 60.9402 24.9394 59.5989C31.6048 57.1837 38.1123 53.9026 44.4407 50.7192C44.5073 50.6852 44.5824 50.6719 44.6563 50.681C44.7302 50.6901 44.7993 50.7212 44.8546 50.7701L46.4932 52.2345C46.6525 52.3788 46.6355 52.4977 46.442 52.591C41.4323 54.9935 36.4225 57.3747 31.4128 59.7347C27.4357 61.6066 15.9227 66.3266 14.5742 58.8433C14.5728 58.8339 14.5743 58.8243 14.5786 58.8158C14.5828 58.8073 14.5895 58.8003 14.5979 58.7957C14.6062 58.7911 14.6158 58.7891 14.6253 58.79C14.6348 58.791 14.6438 58.7947 14.651 58.8009Z" fill="#008198"/>
<path d="M32.6801 55.6555C32.7063 55.6774 32.7266 55.7055 32.7391 55.7372C32.7516 55.7688 32.756 55.8031 32.7517 55.8369C32.7475 55.8707 32.7348 55.9028 32.7148 55.9305C32.6949 55.9581 32.6683 55.9803 32.6375 55.9951L29.9491 57.2515C29.886 57.2809 29.8161 57.2925 29.7468 57.285C29.6776 57.2776 29.6117 57.2513 29.5565 57.2091C25.5026 54.0511 17.1943 51.0289 14.715 57.5911C14.7092 57.6072 14.6979 57.6207 14.683 57.6292C14.6681 57.6378 14.6507 57.6408 14.6338 57.6377C14.6169 57.6347 14.6016 57.6257 14.5907 57.6125C14.5798 57.5993 14.574 57.5827 14.5742 57.5656C14.6468 53.0876 17.732 51.4364 21.9011 51.5553C25.8298 51.6713 29.4228 53.038 32.6801 55.6555Z" fill="#354383"/>
<path d="M16.076 56.3773C19.0432 56.5896 21.9221 56.175 24.7129 55.1337C24.8523 55.0799 24.9889 55.0855 25.1226 55.1506L27.2263 56.1693C27.2547 56.1824 27.2786 56.2032 27.2953 56.2294C27.3121 56.2557 27.3209 56.2862 27.3209 56.3176C27.3209 56.349 27.3121 56.3801 27.2953 56.4071C27.2786 56.4342 27.2547 56.4562 27.2263 56.4707C23.9917 58.1219 19.0844 59.009 16.0035 56.5598C15.9856 56.5464 15.9727 56.5275 15.9667 56.5061C15.9607 56.4847 15.9618 56.4619 15.9701 56.4412C15.9783 56.4205 15.9931 56.403 16.0122 56.3915C16.0314 56.38 16.0538 56.375 16.076 56.3773Z" fill="#354383"/>
<path d="M72.3011 57.8884C72.7079 58.2336 72.6525 58.3454 72.1347 58.2237C67.2999 57.1074 62.3201 61.9972 58.4027 56.4749C58.3003 56.3335 58.3302 56.2967 58.4923 56.3646C59.589 56.823 60.3955 57.3578 61.7952 57.3451C66.1051 57.3154 68.8191 54.9384 72.3011 57.8884Z" fill="#354383"/>
<path d="M36.324 58.3003C39.5756 61.1399 43.9709 62.9311 47.8754 60.0533C47.8996 60.0343 47.9299 60.0245 47.9607 60.026C47.9915 60.0274 48.0208 60.0398 48.0431 60.061C48.0655 60.0822 48.0794 60.1107 48.0823 60.1412C48.0852 60.1718 48.0768 60.2024 48.0589 60.2273C44.0391 65.7878 37.809 63.1434 33.3881 59.8623C33.3592 59.8413 33.3363 59.8132 33.3217 59.7807C33.3071 59.7482 33.3012 59.7123 33.3047 59.6765C33.3081 59.6408 33.3207 59.6063 33.3413 59.5764C33.3619 59.5465 33.3897 59.5222 33.4222 59.5057L35.9612 58.2493C36.0197 58.2218 36.0851 58.212 36.1495 58.221C36.2139 58.2301 36.2746 58.2576 36.324 58.3003Z" fill="#354383"/>
<path d="M58.9064 59.0257C62.2008 61.2117 71.051 64.8663 72.7835 58.9875C72.829 58.8404 72.8902 58.8333 72.967 58.9663C75.0409 62.536 71.0723 64.3994 68.0298 64.1956C64.5093 63.9579 60.8992 62.1922 58.7784 59.1573C58.5878 58.8856 58.6305 58.8418 58.9064 59.0257Z" fill="#008198"/>
<path d="M7.9624 75.624C8.15153 75.624 8.29395 75.5955 8.38965 75.5386C8.48763 75.4793 8.56283 75.3836 8.61523 75.2515L10.4609 70.873H11.0454L12.7339 75.2515C12.7954 75.3973 12.8638 75.4964 12.939 75.5488C13.0142 75.599 13.1611 75.624 13.3799 75.624V76H11.271V75.624C11.5718 75.624 11.7495 75.6035 11.8042 75.5625C11.8612 75.5215 11.8874 75.4771 11.8828 75.4292C11.8805 75.3813 11.8657 75.3221 11.8384 75.2515L11.5308 74.3936H9.54492L9.19287 75.2515C9.14046 75.3882 9.15641 75.485 9.24072 75.542C9.32503 75.5967 9.52214 75.624 9.83203 75.624V76H7.9624V75.624ZM11.3975 74.0176L10.6045 71.8027L9.69873 74.0176H11.3975ZM13.6533 75.624C13.8698 75.624 14.0111 75.6035 14.0771 75.5625C14.1432 75.5192 14.1854 75.4736 14.2036 75.4258C14.2218 75.3779 14.231 75.3198 14.231 75.2515L14.2275 71.6216C14.2275 71.4735 14.2025 71.3812 14.1523 71.3447C14.0612 71.2809 13.8949 71.249 13.6533 71.249V70.873H15.5776V71.249C15.3612 71.249 15.2199 71.2707 15.1538 71.314C15.0877 71.355 15.0456 71.3994 15.0273 71.4473C15.0091 71.4951 15 71.5532 15 71.6216V75.6035H16.1792C16.5438 75.6035 16.7944 75.4041 16.9312 75.0054L17.0679 74.6191L17.5396 74.6226L17.3037 76H13.6533V75.624ZM17.731 75.624C17.9201 75.624 18.0625 75.5955 18.1582 75.5386C18.2562 75.4793 18.3314 75.3836 18.3838 75.2515L20.2295 70.873H20.814L22.5024 75.2515C22.564 75.3973 22.6323 75.4964 22.7075 75.5488C22.7827 75.599 22.9297 75.624 23.1484 75.624V76H21.0396V75.624C21.3403 75.624 21.5181 75.6035 21.5728 75.5625C21.6297 75.5215 21.6559 75.4771 21.6514 75.4292C21.6491 75.3813 21.6343 75.3221 21.6069 75.2515L21.2993 74.3936H19.3135L18.9614 75.2515C18.909 75.3882 18.925 75.485 19.0093 75.542C19.0936 75.5967 19.2907 75.624 19.6006 75.624V76H17.731V75.624ZM21.166 74.0176L20.373 71.8027L19.4673 74.0176H21.166ZM23.4561 75.624C23.6702 75.624 23.8104 75.6035 23.8765 75.5625C23.9425 75.5192 23.9847 75.4736 24.0029 75.4258C24.0212 75.3779 24.0303 75.3198 24.0303 75.2515V71.6216C24.0303 71.4735 24.0052 71.3812 23.9551 71.3447C23.8639 71.2809 23.6976 71.249 23.4561 71.249V70.873H25.0693L26.5835 74.8276L28.0361 70.873H29.6323V71.249C29.4159 71.249 29.2746 71.2707 29.2085 71.314C29.1424 71.355 29.1003 71.3994 29.082 71.4473C29.0638 71.4951 29.0547 71.5532 29.0547 71.6216V75.2515C29.0547 75.3973 29.0809 75.4896 29.1333 75.5283C29.2244 75.5921 29.3908 75.624 29.6323 75.624V76H27.7354V75.624C27.9495 75.624 28.0874 75.6035 28.1489 75.5625C28.2127 75.5192 28.2526 75.4736 28.2686 75.4258C28.2845 75.3779 28.2925 75.3198 28.2925 75.2515V71.6045L26.7065 76H26.3271L24.5771 71.6011V75.2515C24.5771 75.3996 24.6022 75.4919 24.6523 75.5283C24.7435 75.5921 24.9098 75.624 25.1514 75.624V76H23.4561V75.624ZM35.1182 71.4541C34.9997 71.2946 34.7456 71.2148 34.356 71.2148C33.9686 71.2148 33.7008 71.3447 33.5527 71.6045C33.5026 71.6934 33.4775 71.8027 33.4775 71.9326C33.4775 72.1719 33.5846 72.3906 33.7988 72.5889C33.9401 72.721 34.1349 72.8566 34.3833 72.9956C34.634 73.1346 34.8447 73.2588 35.0156 73.3682C35.6605 73.7783 35.9829 74.2272 35.9829 74.7148C35.9829 75.1478 35.8234 75.4816 35.5044 75.7163C35.1877 75.951 34.7764 76.0684 34.2705 76.0684C33.7669 76.0684 33.3625 75.9692 33.0571 75.771C32.7541 75.5705 32.6025 75.3415 32.6025 75.084C32.6025 74.8242 32.7062 74.6488 32.9136 74.5576C32.9774 74.528 33.0469 74.5132 33.1221 74.5132C33.2656 74.5132 33.383 74.561 33.4741 74.6567C33.5675 74.7524 33.6143 74.8732 33.6143 75.019C33.6143 75.1649 33.5482 75.2891 33.416 75.3916C33.5938 75.5693 33.8877 75.6582 34.2979 75.6582C34.7103 75.6582 34.9928 75.5192 35.1455 75.2412C35.2002 75.1455 35.2275 75.0339 35.2275 74.9062C35.2275 74.6852 35.1136 74.4801 34.8857 74.291C34.7673 74.193 34.5667 74.0666 34.2842 73.9116C34.0039 73.7544 33.7829 73.6234 33.6211 73.5186C33.0264 73.1357 32.729 72.6846 32.729 72.165C32.729 71.7594 32.8817 71.4313 33.187 71.1807C33.4946 70.93 33.874 70.8047 34.3252 70.8047C34.7786 70.8047 35.1501 70.9015 35.4395 71.0952C35.7311 71.2889 35.877 71.5247 35.877 71.8027C35.877 71.9531 35.8302 72.0796 35.7368 72.1821C35.6457 72.2824 35.5295 72.3325 35.3882 72.3325C35.1717 72.3325 35.0213 72.238 34.937 72.0488C34.9119 71.9919 34.8994 71.9315 34.8994 71.8677C34.8994 71.6922 34.9723 71.5544 35.1182 71.4541ZM39.0933 75.5693C39.9979 75.5693 40.4502 75.0076 40.4502 73.8843V71.6216C40.4502 71.4735 40.4251 71.3812 40.375 71.3447C40.2839 71.2809 40.1175 71.249 39.876 71.249V70.873H41.6123V71.249C41.3958 71.249 41.2546 71.2707 41.1885 71.314C41.1224 71.355 41.0802 71.3994 41.062 71.4473C41.0438 71.4951 41.0347 71.5532 41.0347 71.6216L41.0381 73.8467C41.0381 74.9655 40.6416 75.6628 39.8486 75.9385C39.5957 76.0251 39.3519 76.0684 39.1172 76.0684C38.8825 76.0684 38.6854 76.0513 38.5259 76.0171C38.3687 75.9852 38.2171 75.9328 38.0713 75.8599C37.7523 75.7004 37.4982 75.4588 37.3091 75.1353C37.12 74.8117 37.0254 74.3936 37.0254 73.8809V71.6216C37.0254 71.4757 37.0003 71.3835 36.9502 71.3447C36.8659 71.2809 36.7109 71.249 36.4854 71.249V70.873H38.3994V71.249C38.1693 71.249 38.0189 71.2707 37.9482 71.314C37.8799 71.355 37.8354 71.3994 37.8149 71.4473C37.7967 71.4951 37.7876 71.5532 37.7876 71.6216V73.9526C37.7876 74.5018 37.9118 74.9085 38.1602 75.1729C38.4085 75.4372 38.7196 75.5693 39.0933 75.5693ZM43.0444 75.624C43.3019 75.624 43.4728 75.6035 43.5571 75.5625C43.6414 75.5192 43.6961 75.4736 43.7212 75.4258C43.7463 75.3779 43.7588 75.3198 43.7588 75.2515V71.2695H43.0581C42.6821 71.2695 42.4668 71.4689 42.4121 71.8677L42.313 72.5615L41.8174 72.5581L41.9678 70.873H46.3188L46.4692 72.5581L45.9736 72.5615L45.8745 71.8677C45.8494 71.6831 45.8005 71.5521 45.7275 71.4746C45.5954 71.3379 45.429 71.2695 45.2285 71.2695H44.5278V75.2515C44.5278 75.395 44.5745 75.493 44.668 75.5454C44.7637 75.5978 44.9551 75.624 45.2422 75.624V76H43.0444V75.624ZM46.7427 75.624C46.9637 75.624 47.1061 75.6035 47.1699 75.5625C47.2337 75.5215 47.2747 75.4782 47.293 75.4326C47.3112 75.3848 47.3203 75.3267 47.3203 75.2583V71.6216C47.3203 71.4803 47.2782 71.3835 47.1938 71.3311C47.1095 71.2764 46.9603 71.249 46.7461 71.249V70.873H50.4648L50.5981 72.1138L50.1025 72.1172L50.0103 71.731C49.9647 71.5464 49.918 71.4302 49.8701 71.3823C49.7858 71.298 49.6434 71.2559 49.4429 71.2559H48.0894V73.2451H48.7524C49.0099 73.2451 49.1672 73.228 49.2241 73.1938C49.2834 73.1597 49.3232 73.1107 49.3438 73.0469C49.3665 72.9831 49.3779 72.8908 49.3779 72.77H49.8223V74.0928H49.3779C49.3779 73.8809 49.3358 73.7498 49.2515 73.6997C49.1694 73.6473 49.0031 73.6211 48.7524 73.6211H48.0894V75.624H49.542C49.8063 75.624 49.9818 75.5352 50.0684 75.3574C50.0957 75.3027 50.123 75.2458 50.1504 75.1865L50.3042 74.7661H50.7998L50.6665 76H46.7427V75.624ZM55.4688 75.5762C55.6465 75.5762 55.7354 75.3711 55.7354 74.9609H56.0635C56.0885 75.043 56.1011 75.1147 56.1011 75.1763C56.1011 75.2378 56.0999 75.305 56.0977 75.3779C56.0954 75.4486 56.068 75.542 56.0156 75.6582C55.8903 75.9316 55.6556 76.0684 55.3115 76.0684C54.9674 76.0684 54.7248 75.9818 54.5835 75.8086C54.4445 75.6354 54.3454 75.46 54.2861 75.2822C54.2269 75.1022 54.179 74.945 54.1426 74.8105C54.0378 74.4437 53.9535 74.2044 53.8896 74.0928C53.7734 73.8786 53.6151 73.7715 53.4146 73.7715H52.6626V75.0806C52.6626 75.1968 52.6683 75.2902 52.6797 75.3608C52.6911 75.4315 52.731 75.493 52.7993 75.5454C52.87 75.5978 53.083 75.624 53.4385 75.624V76H51.3228V75.624C51.562 75.624 51.7113 75.6035 51.7705 75.5625C51.8298 75.5192 51.8651 75.4736 51.8765 75.4258C51.8879 75.3779 51.8936 75.3198 51.8936 75.2515V71.6216C51.8936 71.4735 51.8685 71.3812 51.8184 71.3447C51.7272 71.2809 51.5609 71.249 51.3193 71.249V70.873H53.418C54.5391 70.873 55.1623 71.2194 55.2876 71.9121C55.3081 72.026 55.3184 72.1593 55.3184 72.312C55.3184 72.6401 55.2147 72.9204 55.0073 73.1528C54.8022 73.383 54.522 73.5493 54.1665 73.6519C54.4741 73.7453 54.7031 73.9914 54.8535 74.3901C54.9036 74.52 54.9583 74.6875 55.0176 74.8926C55.0768 75.0977 55.1247 75.2389 55.1611 75.3164C55.2409 75.4896 55.3434 75.5762 55.4688 75.5762ZM53.4248 73.4297C53.8145 73.4297 54.0902 73.3363 54.252 73.1494C54.4137 72.9603 54.4946 72.6891 54.4946 72.3359C54.4946 71.9805 54.4001 71.7104 54.2109 71.5259C54.0218 71.3413 53.6903 71.249 53.2163 71.249H52.6626V73.4297H53.4248ZM56.0806 75.624C56.2697 75.624 56.4121 75.5955 56.5078 75.5386C56.6058 75.4793 56.681 75.3836 56.7334 75.2515L58.5791 70.873H59.1636L60.8521 75.2515C60.9136 75.3973 60.9819 75.4964 61.0571 75.5488C61.1323 75.599 61.2793 75.624 61.498 75.624V76H59.3892V75.624C59.6899 75.624 59.8677 75.6035 59.9224 75.5625C59.9793 75.5215 60.0055 75.4771 60.001 75.4292C59.9987 75.3813 59.9839 75.3221 59.9565 75.2515L59.6489 74.3936H57.6631L57.311 75.2515C57.2586 75.3882 57.2746 75.485 57.3589 75.542C57.4432 75.5967 57.6403 75.624 57.9502 75.624V76H56.0806V75.624ZM59.5156 74.0176L58.7227 71.8027L57.8169 74.0176H59.5156ZM68.2588 75.5762C68.4365 75.5762 68.5254 75.3711 68.5254 74.9609H68.8535C68.8786 75.043 68.8911 75.1147 68.8911 75.1763C68.8911 75.2378 68.89 75.305 68.8877 75.3779C68.8854 75.4486 68.8581 75.542 68.8057 75.6582C68.6803 75.9316 68.4456 76.0684 68.1016 76.0684C67.7575 76.0684 67.5148 75.9818 67.3735 75.8086C67.2345 75.6354 67.1354 75.46 67.0762 75.2822C67.0169 75.1022 66.9691 74.945 66.9326 74.8105C66.8278 74.4437 66.7435 74.2044 66.6797 74.0928C66.5635 73.8786 66.4051 73.7715 66.2046 73.7715H65.4526V75.0806C65.4526 75.1968 65.4583 75.2902 65.4697 75.3608C65.4811 75.4315 65.521 75.493 65.5894 75.5454C65.66 75.5978 65.873 75.624 66.2285 75.624V76H64.1128V75.624C64.3521 75.624 64.5013 75.6035 64.5605 75.5625C64.6198 75.5192 64.6551 75.4736 64.6665 75.4258C64.6779 75.3779 64.6836 75.3198 64.6836 75.2515V71.6216C64.6836 71.4735 64.6585 71.3812 64.6084 71.3447C64.5173 71.2809 64.3509 71.249 64.1094 71.249V70.873H66.208C67.3291 70.873 67.9523 71.2194 68.0776 71.9121C68.0981 72.026 68.1084 72.1593 68.1084 72.312C68.1084 72.6401 68.0047 72.9204 67.7974 73.1528C67.5923 73.383 67.312 73.5493 66.9565 73.6519C67.2642 73.7453 67.4932 73.9914 67.6436 74.3901C67.6937 74.52 67.7484 74.6875 67.8076 74.8926C67.8669 75.0977 67.9147 75.2389 67.9512 75.3164C68.0309 75.4896 68.1335 75.5762 68.2588 75.5762ZM66.2148 73.4297C66.6045 73.4297 66.8802 73.3363 67.042 73.1494C67.2038 72.9603 67.2847 72.6891 67.2847 72.3359C67.2847 71.9805 67.1901 71.7104 67.001 71.5259C66.8118 71.3413 66.4803 71.249 66.0063 71.249H65.4526V73.4297H66.2148ZM69.1509 75.624C69.3719 75.624 69.5143 75.6035 69.5781 75.5625C69.6419 75.5215 69.6829 75.4782 69.7012 75.4326C69.7194 75.3848 69.7285 75.3267 69.7285 75.2583V71.6216C69.7285 71.4803 69.6864 71.3835 69.6021 71.3311C69.5177 71.2764 69.3685 71.249 69.1543 71.249V70.873H72.873L73.0063 72.1138L72.5107 72.1172L72.4185 71.731C72.3729 71.5464 72.3262 71.4302 72.2783 71.3823C72.194 71.298 72.0516 71.2559 71.8511 71.2559H70.4976V73.2451H71.1606C71.4181 73.2451 71.5754 73.228 71.6323 73.1938C71.6916 73.1597 71.7314 73.1107 71.752 73.0469C71.7747 72.9831 71.7861 72.8908 71.7861 72.77H72.2305V74.0928H71.7861C71.7861 73.8809 71.744 73.7498 71.6597 73.6997C71.5776 73.6473 71.4113 73.6211 71.1606 73.6211H70.4976V75.624H71.9502C72.2145 75.624 72.39 75.5352 72.4766 75.3574C72.5039 75.3027 72.5312 75.2458 72.5586 75.1865L72.7124 74.7661H73.208L73.0747 76H69.1509V75.624ZM73.4438 75.624C73.633 75.624 73.7754 75.5955 73.8711 75.5386C73.9691 75.4793 74.0443 75.3836 74.0967 75.2515L75.9424 70.873H76.5269L78.2153 75.2515C78.2769 75.3973 78.3452 75.4964 78.4204 75.5488C78.4956 75.599 78.6426 75.624 78.8613 75.624V76H76.7524V75.624C77.0532 75.624 77.231 75.6035 77.2856 75.5625C77.3426 75.5215 77.3688 75.4771 77.3643 75.4292C77.362 75.3813 77.3472 75.3221 77.3198 75.2515L77.0122 74.3936H75.0264L74.6743 75.2515C74.6219 75.3882 74.6379 75.485 74.7222 75.542C74.8065 75.5967 75.0036 75.624 75.3135 75.624V76H73.4438V75.624ZM76.8789 74.0176L76.0859 71.8027L75.1802 74.0176H76.8789ZM79.1348 75.624C79.3512 75.624 79.4925 75.6035 79.5586 75.5625C79.6247 75.5192 79.6668 75.4736 79.6851 75.4258C79.7033 75.3779 79.7124 75.3198 79.7124 75.2515L79.709 71.6216C79.709 71.4735 79.6839 71.3812 79.6338 71.3447C79.5426 71.2809 79.3763 71.249 79.1348 71.249V70.873H81.0591V71.249C80.8426 71.249 80.7013 71.2707 80.6353 71.314C80.5692 71.355 80.527 71.3994 80.5088 71.4473C80.4906 71.4951 80.4814 71.5532 80.4814 71.6216V75.6035H81.6606C82.0252 75.6035 82.2759 75.4041 82.4126 75.0054L82.5493 74.6191L83.021 74.6226L82.7852 76H79.1348V75.624ZM84.5044 75.624C84.7619 75.624 84.9328 75.6035 85.0171 75.5625C85.1014 75.5192 85.1561 75.4736 85.1812 75.4258C85.2062 75.3779 85.2188 75.3198 85.2188 75.2515V71.2695H84.5181C84.1421 71.2695 83.9268 71.4689 83.8721 71.8677L83.7729 72.5615L83.2773 72.5581L83.4277 70.873H87.7788L87.9292 72.5581L87.4336 72.5615L87.3345 71.8677C87.3094 71.6831 87.2604 71.5521 87.1875 71.4746C87.0553 71.3379 86.889 71.2695 86.6885 71.2695H85.9878V75.2515C85.9878 75.395 86.0345 75.493 86.1279 75.5454C86.2236 75.5978 86.415 75.624 86.7021 75.624V76H84.5044V75.624ZM89.2793 75.624C89.5368 75.624 89.7065 75.6035 89.7886 75.5625C89.8729 75.5192 89.9264 75.4736 89.9492 75.4258C89.9743 75.3779 89.9868 75.3198 89.9868 75.2515L89.9834 74.2808L88.5547 71.6216C88.4772 71.4826 88.3986 71.3926 88.3188 71.3516C88.1844 71.2832 88.0135 71.249 87.8062 71.249V70.873H89.7852V71.249C89.5664 71.249 89.4377 71.2764 89.3989 71.3311C89.3625 71.3857 89.3796 71.4826 89.4502 71.6216L90.4653 73.7065L91.5317 71.6216C91.6047 71.4826 91.6195 71.3937 91.5762 71.355C91.4987 71.2843 91.3107 71.249 91.0122 71.249V70.873H92.7793V71.249C92.6107 71.249 92.4717 71.2775 92.3623 71.3345C92.2552 71.3914 92.1652 71.4871 92.0923 71.6216L90.7183 74.1475V75.2515C90.7183 75.395 90.7638 75.493 90.855 75.5454C90.9461 75.5978 91.1353 75.624 91.4224 75.624V76H89.2793V75.624Z" fill="#008198"/>
</svg>
