<svg width="100" height="100" viewBox="0 0 100 100" fill="none" xmlns="http://www.w3.org/2000/svg">
<rect width="100" height="100" fill="#595C62"/>
<path d="M34.5147 58H30.7412L29.2412 54.0977H22.3741L20.9561 58H17.2764L23.9678 40.8203H27.6358L34.5147 58ZM28.128 51.2031L25.7608 44.8281L23.4405 51.2031H28.128ZM35.8473 52.4102L39.2223 52.082C39.4255 53.2148 39.8356 54.0469 40.4528 54.5781C41.0778 55.1094 41.9177 55.375 42.9723 55.375C44.0895 55.375 44.9294 55.1406 45.4919 54.6719C46.0622 54.1953 46.3473 53.6406 46.3473 53.0078C46.3473 52.6016 46.2262 52.2578 45.9841 51.9766C45.7497 51.6875 45.3356 51.4375 44.7419 51.2266C44.3356 51.0859 43.4098 50.8359 41.9645 50.4766C40.1052 50.0156 38.8005 49.4492 38.0505 48.7773C36.9958 47.832 36.4684 46.6797 36.4684 45.3203C36.4684 44.4453 36.7145 43.6289 37.2067 42.8711C37.7067 42.1055 38.4216 41.5234 39.3512 41.125C40.2887 40.7266 41.4177 40.5273 42.738 40.5273C44.8942 40.5273 46.5153 41 47.6012 41.9453C48.695 42.8906 49.2692 44.1523 49.3239 45.7305L45.8552 45.8828C45.7067 45 45.3864 44.3672 44.8942 43.9844C44.4098 43.5938 43.6794 43.3984 42.7028 43.3984C41.695 43.3984 40.9059 43.6055 40.3356 44.0195C39.9684 44.2852 39.7848 44.6406 39.7848 45.0859C39.7848 45.4922 39.9567 45.8398 40.3005 46.1289C40.738 46.4961 41.8005 46.8789 43.488 47.2773C45.1755 47.6758 46.4216 48.0898 47.2262 48.5195C48.0387 48.9414 48.6716 49.5234 49.1247 50.2656C49.5856 51 49.8161 51.9102 49.8161 52.9961C49.8161 53.9805 49.5427 54.9023 48.9958 55.7617C48.4489 56.6211 47.6755 57.2617 46.6755 57.6836C45.6755 58.0977 44.4294 58.3047 42.9372 58.3047C40.7653 58.3047 39.0973 57.8047 37.9333 56.8047C36.7692 55.7969 36.0739 54.332 35.8473 52.4102ZM56.9613 58V43.7266H51.8636V40.8203H65.5159V43.7266H60.43V58H56.9613ZM68.1377 58V40.8203H75.4384C77.2744 40.8203 78.6064 40.9766 79.4345 41.2891C80.2705 41.5938 80.9384 42.1406 81.4384 42.9297C81.9384 43.7188 82.1884 44.6211 82.1884 45.6367C82.1884 46.9258 81.8095 47.9922 81.0517 48.8359C80.2939 49.6719 79.1611 50.1992 77.6533 50.418C78.4033 50.8555 79.0205 51.3359 79.5048 51.8594C79.997 52.3828 80.6572 53.3125 81.4853 54.6484L83.583 58H79.4345L76.9267 54.2617C76.0361 52.9258 75.4267 52.0859 75.0986 51.7422C74.7705 51.3906 74.4228 51.1523 74.0556 51.0273C73.6884 50.8945 73.1064 50.8281 72.3095 50.8281H71.6064V58H68.1377ZM71.6064 48.0859H74.1728C75.8369 48.0859 76.8759 48.0156 77.29 47.875C77.7041 47.7344 78.0283 47.4922 78.2627 47.1484C78.497 46.8047 78.6142 46.375 78.6142 45.8594C78.6142 45.2812 78.458 44.8164 78.1455 44.4648C77.8408 44.1055 77.4072 43.8789 76.8447 43.7852C76.5634 43.7461 75.7197 43.7266 74.3134 43.7266H71.6064V48.0859Z" fill="#F8F8F8"/>
</svg>
