<svg width="100" height="100" viewBox="0 0 100 100" fill="none" xmlns="http://www.w3.org/2000/svg">
<rect width="100" height="100" fill="white"/>
<path d="M69.0564 39.48C75.5402 39.48 80.7964 34.2238 80.7964 27.74C80.7964 21.2562 75.5402 16 69.0564 16C62.5726 16 57.3164 21.2562 57.3164 27.74C57.3164 34.2238 62.5726 39.48 69.0564 39.48Z" fill="#FFD504"/>
<path d="M80.5164 64.8997C67.7164 90.4697 26.5864 88.8497 18.3064 60.7497C12.9264 42.4997 24.7464 25.8697 43.0664 22.1397C47.1064 21.313 47.1697 21.553 43.2564 22.8597C28.3864 27.8097 19.3764 42.2897 27.1464 57.4597C31.6564 66.2497 40.5864 72.4397 50.5764 71.2897C57.7764 70.4697 65.8164 64.8397 66.0864 56.9797C66.3064 50.6497 61.9164 44.9097 56.9464 41.1497C56.9044 41.1182 56.8734 41.0743 56.8577 41.0242C56.8421 40.9741 56.8426 40.9204 56.8592 40.8706C56.8758 40.8208 56.9076 40.7775 56.9502 40.7469C56.9927 40.7162 57.0439 40.6997 57.0964 40.6997L80.2464 40.8197C80.713 40.8197 81.023 41.0397 81.1764 41.4797C84.243 50.0863 84.023 57.893 80.5164 64.8997Z" fill="#CF242A"/>
</svg>
