<svg width="100" height="100" viewBox="0 0 100 100" fill="none" xmlns="http://www.w3.org/2000/svg">
<g clip-path="url(#clip0_29_2582)">
<rect width="100" height="100" fill="#00F4FE"/>
<path d="M70.0547 102L93.9519 30.1414C93.9814 30.0537 93.9871 29.9596 93.9685 29.8689C93.95 29.7782 93.9078 29.6941 93.8463 29.625C93.7848 29.556 93.7061 29.5047 93.6184 29.4761C93.5306 29.4476 93.4369 29.443 93.3468 29.4627C92.879 29.5661 92.4348 29.8872 92.0141 30.4259" stroke="#1893C5" stroke-width="2"/>
<path d="M92.0141 30.4258L39.4363 76.9051C39.1831 77.1292 39.226 77.2456 39.5651 77.2542L57.5202 77.5516C57.7391 77.5559 57.9129 77.4719 58.0417 77.2995L92.4197 30.665" stroke="#1A9094" stroke-width="2"/>
<path d="M92.4197 30.6648C92.7115 30.2166 93.0012 29.9257 93.2888 29.7921C93.3445 29.7669 93.4069 29.7606 93.4665 29.7739C93.5262 29.7872 93.5799 29.8196 93.6197 29.8661C93.6596 29.9127 93.6833 29.9709 93.6875 30.0321C93.6917 30.0933 93.676 30.1543 93.6429 30.2058L47.0522 101.993" stroke="#1893C5" stroke-width="2"/>
<path d="M-0.813206 69.8653L90.1406 28.3312C90.1511 28.3274 90.1609 28.3215 90.1692 28.314C90.1775 28.3064 90.1842 28.2972 90.189 28.287C90.1938 28.2768 90.1965 28.2657 90.197 28.2545C90.1976 28.2432 90.1959 28.232 90.1921 28.2213C90.1883 28.2107 90.1824 28.201 90.1749 28.1926C90.1673 28.1843 90.1582 28.1775 90.148 28.1727C90.1379 28.1679 90.1269 28.1652 90.1156 28.1646C90.1044 28.1641 90.0932 28.1658 90.0826 28.1696L-0.83252 50.821" stroke="#1893C5" stroke-width="2"/>
<path d="M92.4197 30.665C92.3253 30.5055 92.1901 30.4258 92.0142 30.4258" stroke="#322F5B" stroke-width="2"/>
<path d="M13.6845 24H85.9492C95.5995 24.905 99.8421 30.9363 99.9129 39.9866C100.029 54.7945 100.029 69.598 99.9129 84.3973C99.8936 87.2352 100.138 89.918 99.1339 92.5296C96.2433 100.067 90.475 101.994 82.8848 101.897C78.6444 101.845 74.3675 101.879 70.0542 102L93.9515 30.1412C93.9809 30.0535 93.9866 29.9594 93.9681 29.8687C93.9495 29.778 93.9073 29.6938 93.8458 29.6248C93.7843 29.5558 93.7056 29.5044 93.6179 29.4759C93.5301 29.4474 93.4364 29.4427 93.3463 29.4625C92.8785 29.5659 92.4343 29.887 92.0137 30.4257L39.4358 76.905C39.1826 77.1291 39.2255 77.2455 39.5646 77.2541L57.5197 77.5515C57.7386 77.5558 57.9124 77.4717 58.0412 77.2994L92.4193 30.6648C92.7111 30.2166 93.0008 29.9257 93.2884 29.7921C93.3441 29.767 93.4064 29.7606 93.4661 29.774C93.5257 29.7873 93.5795 29.8197 93.6193 29.8662C93.6591 29.9127 93.6829 29.971 93.6871 30.0322C93.6912 30.0934 93.6756 30.1543 93.6424 30.2059L47.0518 101.994C36.1118 101.877 25.4507 101.847 15.0686 101.903C8.19301 101.935 2.41183 99.356 0.0748966 92.4908C-0.560303 90.6247 -0.86932 87.483 -0.852152 83.0656C-0.834985 78.4543 -0.822109 74.0542 -0.813525 69.8652L90.1403 28.3312C90.1508 28.3274 90.1605 28.3215 90.1688 28.3139C90.1772 28.3063 90.1839 28.2971 90.1887 28.2869C90.1935 28.2767 90.1962 28.2657 90.1967 28.2544C90.1972 28.2432 90.1956 28.2319 90.1918 28.2213C90.188 28.2107 90.1821 28.2009 90.1745 28.1926C90.167 28.1842 90.1579 28.1775 90.1477 28.1727C90.1375 28.1679 90.1265 28.1651 90.1153 28.1646C90.1041 28.1641 90.0929 28.1657 90.0823 28.1696L-0.832839 50.821C-0.839276 45.4232 -1.51525 38.3511 0.0555831 33.6773C2.0556 27.7386 6.59857 24.5128 13.6845 24Z" fill="#00F4FE"/>
<path d="M-0.813303 69.8653L-1 58.378V52.4178C-0.819741 52.0213 -0.763946 51.489 -0.832616 50.821L90.0825 28.1696C90.0931 28.1658 90.1043 28.1641 90.1155 28.1646C90.1268 28.1652 90.1378 28.1679 90.1479 28.1727C90.1581 28.1775 90.1672 28.1843 90.1748 28.1926C90.1823 28.201 90.1882 28.2107 90.192 28.2213C90.1958 28.232 90.1975 28.2432 90.1969 28.2545C90.1964 28.2657 90.1937 28.2768 90.1889 28.287C90.1841 28.2972 90.1774 28.3064 90.1691 28.314C90.1608 28.3215 90.151 28.3274 90.1405 28.3312L-0.813303 69.8653Z" fill="#30318B"/>
<path d="M92.0205 28.8352L36.7066 74.1574C36.6789 74.1795 36.6463 74.1947 36.6117 74.2017C36.5771 74.2088 36.5416 74.2075 36.508 74.198C36.4745 74.1884 36.444 74.1709 36.4191 74.147C36.3943 74.123 36.3758 74.0933 36.3654 74.0605L31.125 58.5135C31.0908 58.4135 31.0941 58.3044 31.1345 58.2068C31.1748 58.1092 31.2493 58.0297 31.3439 57.9834L91.8853 28.6219C91.9129 28.6116 91.9432 28.6111 91.9712 28.6205C91.9991 28.6299 92.023 28.6487 92.0388 28.6736C92.0546 28.6986 92.0614 28.7283 92.0581 28.7577C92.0548 28.7871 92.0415 28.8144 92.0205 28.8352Z" fill="#E6212A"/>
<path d="M70.0542 102L47.0518 101.993L93.6424 30.2056C93.6755 30.1541 93.6912 30.0931 93.687 30.0319C93.6829 29.9707 93.6591 29.9125 93.6193 29.8659C93.5794 29.8194 93.5257 29.787 93.466 29.7737C93.4064 29.7603 93.3441 29.7667 93.2883 29.7919C93.0008 29.9255 92.7111 30.2164 92.4192 30.6646C92.3248 30.5051 92.1896 30.4254 92.0136 30.4254C92.4342 29.8867 92.8784 29.5656 93.3463 29.4622C93.4364 29.4425 93.5301 29.4471 93.6178 29.4756C93.7056 29.5042 93.7842 29.5556 93.8457 29.6246C93.9073 29.6936 93.9495 29.7777 93.968 29.8684C93.9866 29.9591 93.9809 30.0532 93.9514 30.141L70.0542 102Z" fill="#30318B"/>
<path d="M92.0141 30.4258C92.1901 30.4258 92.3253 30.5055 92.4197 30.665L58.0417 77.2995C57.9129 77.4719 57.7391 77.5559 57.5202 77.5516L39.5651 77.2542C39.226 77.2456 39.1831 77.1292 39.4363 76.9051L92.0141 30.4258Z" fill="#342C2A"/>
</g>
<defs>
<clipPath id="clip0_29_2582">
<rect width="100" height="100" fill="white"/>
</clipPath>
</defs>
</svg>
