<svg width="100" height="100" viewBox="0 0 100 100" fill="none" xmlns="http://www.w3.org/2000/svg">
<rect width="100" height="100" fill="white"/>
<path d="M42.6564 20.916L45.8252 20.9789C48.9416 21.2197 51.8703 22.0875 54.6112 23.5821L55.3697 24.2105C55.259 24.2105 55.1662 24.2314 55.0914 24.2733C55.0519 24.2967 55.0065 24.3077 54.9612 24.3047C51.7386 24.1656 48.5564 24.4558 45.4145 25.1755C45.3377 25.1929 45.2574 25.1826 45.1879 25.1463C42.3737 23.6457 39.3545 22.7405 36.1304 22.4308L37.515 21.8294C38.4441 21.4853 39.3927 21.2728 40.3606 21.192L41.8036 21.0798C41.8111 21.0798 41.8149 21.0761 41.8149 21.0686C41.8149 21.0656 41.8149 21.0626 41.8149 21.0596C41.8149 21.0462 41.8074 21.0394 41.7924 21.0394C41.6892 21.0424 41.6256 21.0237 41.6017 20.9833L42.6564 20.916Z" fill="#BBC2CA"/>
<path d="M41.6019 20.9834C41.6258 21.0238 41.6894 21.0425 41.7926 21.0395C41.8076 21.0395 41.8151 21.0462 41.8151 21.0597C41.8151 21.0627 41.8151 21.0657 41.8151 21.0687C41.8151 21.0762 41.8113 21.0799 41.8038 21.0799L40.3608 21.1921L41.6019 20.9834Z" fill="#BBC2CA"/>
<path d="M35.2529 23.4115L39.5415 23.903C41.0182 24.2306 42.3901 24.7146 43.6573 25.355C43.8414 25.4477 43.8346 25.5225 43.6371 25.5794C42.0662 26.0252 40.5267 26.5646 39.0186 27.1974C38.9453 27.2288 38.8802 27.2161 38.8234 27.1593C37.4918 25.7933 36.0339 24.5815 34.4495 23.5237C34.3687 23.4699 34.3754 23.431 34.4697 23.407C34.733 23.3427 34.9941 23.3442 35.2529 23.4115Z" fill="#809CC9"/>
<path d="M35.2529 23.4114C36.6952 23.3725 38.1247 23.5363 39.5415 23.9028L35.2529 23.4114Z" fill="#809CC9"/>
<path d="M32.9549 23.7749C34.9006 24.7107 36.4176 26.0415 37.9526 27.5204C38.0185 27.5832 38.0102 27.6341 37.928 27.673C36.4094 28.3926 34.9469 29.211 33.5406 30.1281C33.4673 30.176 33.4187 30.158 33.3947 30.0743C32.91 28.3866 32.2816 25.5208 32.8 23.8422C32.8255 23.7599 32.8771 23.7375 32.9549 23.7749Z" fill="#4573B3"/>
<path d="M31.7251 24.971C31.8238 26.7013 31.9944 28.3934 32.6384 30.6106C32.6482 30.6454 32.647 30.6823 32.6349 30.7161C32.6229 30.7499 32.6005 30.779 32.5711 30.7992C31.0361 31.8838 29.6073 33.092 28.2847 34.4235C28.1965 34.5133 28.1568 34.4953 28.1658 34.3696C28.4471 30.9031 29.5931 27.7591 31.6039 24.9374C31.6772 24.8356 31.7176 24.8469 31.7251 24.971Z" fill="#0A50A1"/>
<path d="M57.2775 25.2833L52.0396 25.281L52.0934 25.1868C53.8693 25.0626 55.5973 25.0948 57.2775 25.2833Z" fill="#BBC2CA"/>
<path d="M52.0934 25.1865L52.0395 25.2808C51.8091 25.3242 51.6146 25.3092 51.4561 25.2359L52.0934 25.1865Z" fill="#BBC2CA"/>
<path d="M51.4555 25.2358C51.6141 25.3091 51.8086 25.3241 52.039 25.2807L57.2769 25.283C58.7655 26.3302 60.0312 27.5137 61.074 28.8333C61.1294 28.9006 61.1159 28.9507 61.0336 28.9836L58.7737 29.8701C56.5849 30.0975 54.5128 30.553 52.5574 31.2368C50.8084 29.2155 48.8425 27.4733 46.6597 26.0101L47.1063 25.8148L48.8567 25.4894L51.4555 25.2358Z" fill="#BBC2CA"/>
<path d="M48.8572 25.4897L47.1068 25.8152L47.0439 25.7703L48.8572 25.4897Z" fill="#BBC2CA"/>
<path d="M21.2985 43.3059C21.377 36.4567 24.5099 30.0024 29.8802 25.7609C29.8863 25.7567 29.8937 25.7545 29.9012 25.7549C29.9086 25.7553 29.9158 25.7582 29.9214 25.7631C29.9271 25.768 29.931 25.7746 29.9324 25.7819C29.9339 25.7893 29.9329 25.7969 29.9295 25.8036C28.1686 28.7734 27.2575 31.9938 27.1961 35.4647C27.1946 35.547 27.167 35.6181 27.1131 35.6779C24.7477 38.3455 22.8552 41.3168 21.4353 44.5918C21.395 44.6846 21.368 44.6808 21.3546 44.5806C21.3112 44.2514 21.2925 43.8265 21.2985 43.3059Z" fill="#032850"/>
<path d="M47.0436 25.77L47.1064 25.8149L46.6598 26.0101C46.4287 25.8553 46.653 25.8553 47.0436 25.77Z" fill="#BBC2CA"/>
<path d="M51.6847 31.4679C49.1832 32.3192 46.7969 33.2692 44.5258 34.318C43.0132 32.1411 41.3862 30.0458 39.6447 28.032C39.5864 27.9647 39.5983 27.9139 39.6806 27.8794C41.1693 27.263 42.8561 26.7177 44.7412 26.2434C46.1079 25.9001 50.6659 30.3525 51.6847 31.4679Z" fill="#809CC9"/>
<path d="M81.8914 27.505L65.0444 33.2187L64.2387 33.5531L56.4447 36.6501L55.6525 37.0046L48.4083 40.5459L47.6206 40.997C45.1011 42.3944 42.6662 43.9354 40.3158 45.62L39.573 46.1519L32.9976 51.2035L32.2817 51.787L25.9329 57.2L25.2574 57.8194C22.9264 59.9199 20.7085 62.1454 18.6034 64.4958C18.4179 64.4329 18.2384 64.32 18.0648 64.1569C18.008 64.1045 17.9885 64.0395 18.0065 63.9617C18.7216 60.9081 19.8138 57.9974 21.283 55.2296C21.6824 54.4755 22.0565 53.7537 22.405 53.064L23.0177 52.1528C24.7577 49.5466 26.7116 47.1588 28.8795 44.9894L29.6156 44.287C31.6219 42.4273 33.7239 40.7397 35.9217 39.2241L36.6533 38.7169C38.911 37.2537 41.2606 35.9132 43.7023 34.6954L44.5259 34.3184C46.797 33.2696 49.1833 32.3195 51.6848 31.4683L52.5578 31.2371C54.5132 30.5534 56.5853 30.0978 58.7742 29.8704C53.8789 31.9575 49.315 34.1717 45.0824 36.5132C39.4481 39.6326 34.4914 43.6624 30.2125 48.6025C30.1317 48.6968 30.1519 48.7312 30.2731 48.7058C30.4841 48.6609 30.7048 48.5591 30.9352 48.4006C34.3658 46.0532 37.7971 43.7057 41.2292 41.3583C44.6807 38.9975 48.5048 37.1056 52.394 35.2766C56.0624 33.5516 59.8431 32.0847 63.736 30.8758C69.3839 29.1538 75.1245 27.7556 80.9578 26.6814C81.0356 26.6665 81.1022 26.6874 81.1576 26.7443L81.8914 27.505Z" fill="#FF0000"/>
<path d="M81.8915 27.5049C82.0096 27.6844 82.0807 27.926 82.1047 28.2298C82.1106 28.309 82.0747 28.3607 81.9969 28.3846C76.4299 30.0872 70.9541 32.0658 65.5696 34.3204L65.0444 33.2186L81.8915 27.5049Z" fill="#373435"/>
<path d="M43.7023 34.6949C41.2606 35.9128 38.911 37.2533 36.6534 38.7165C35.5088 36.2644 34.5311 33.7958 33.7202 31.3107C33.7034 31.2593 33.704 31.2037 33.7218 31.1527C33.7397 31.1016 33.7738 31.0578 33.819 31.028C35.3226 30.033 36.892 29.1526 38.5272 28.3866C38.6469 28.3312 38.7502 28.3522 38.8369 28.4494C40.5724 30.3944 42.1942 32.4762 43.7023 34.6949Z" fill="#4573B3"/>
<path d="M35.922 39.2238C33.7242 40.7394 31.6222 42.427 29.6159 44.2867C28.6389 41.6101 28.1415 38.87 28.1235 36.0663C28.1236 35.9882 28.1532 35.9128 28.2066 35.8553C29.6054 34.3382 31.1375 32.9708 32.8026 31.7529C32.8745 31.7021 32.9238 31.7185 32.9508 31.8023C33.7796 34.3323 34.77 36.8061 35.922 39.2238Z" fill="#0A50A1"/>
<path d="M64.2388 33.5527C65.5046 36.2203 66.2459 39.0255 66.4628 41.9684C66.4688 42.0567 66.4277 42.0986 66.3394 42.0941C63.9621 41.9549 61.5907 42.026 59.2254 42.3073C59.1848 42.3124 59.1437 42.3041 59.1088 42.2838C59.0738 42.2635 59.0469 42.2322 59.0324 42.1951C58.2798 40.3309 57.4173 38.4824 56.4448 36.6497L64.2388 33.5527Z" fill="#BBC2CA"/>
<path d="M55.6524 37.0044C56.5471 38.5544 57.3467 40.2644 58.0514 42.1346C58.1113 42.2947 58.0567 42.3874 57.8876 42.4129C55.3681 42.7884 52.9108 43.404 50.5155 44.2598C50.4392 44.2867 50.3823 44.265 50.3449 44.1947L48.4082 40.5457L55.6524 37.0044Z" fill="#809CC9"/>
<path d="M28.8793 44.9891C26.7115 47.1585 24.7575 49.5463 23.0176 52.1525C22.1154 49.9847 21.5738 47.7652 21.3928 45.4941C21.3916 45.4759 21.3954 45.4578 21.4037 45.4417C21.412 45.4255 21.4245 45.4119 21.4399 45.4022C21.4553 45.3926 21.473 45.3873 21.4912 45.3868C21.5094 45.3864 21.5273 45.3909 21.5431 45.3998L21.8596 45.5861C21.9478 45.637 22.0114 45.6153 22.0503 45.521C23.313 42.4779 24.9887 39.6824 27.0773 37.1345C27.1491 37.0463 27.1895 37.059 27.1985 37.1727C27.4079 39.8298 27.9682 42.4353 28.8793 44.9891Z" fill="#032850"/>
<path d="M47.6207 40.9966L49.4834 44.5222C49.5208 44.594 49.5021 44.6456 49.4273 44.677C46.8928 45.7168 44.529 47.0566 42.3357 48.6963C42.2669 48.7487 42.21 48.7382 42.1651 48.6649L40.3159 45.6196C42.6663 43.935 45.1012 42.394 47.6207 40.9966Z" fill="#4573B3"/>
<path d="M59.376 43.2724L61.3666 42.9919C63.0377 42.7929 64.6984 42.8041 66.3486 43.0255C66.4081 43.0337 66.4625 43.063 66.5017 43.1081C66.5409 43.1531 66.5623 43.2107 66.5618 43.2701C66.5229 46.3686 65.9267 49.3504 64.7732 52.2154C64.7478 52.2798 64.7007 52.3112 64.6318 52.3097L61.0142 52.193C60.991 52.1924 60.9682 52.1872 60.947 52.1777C60.9259 52.1683 60.9068 52.1547 60.8909 52.1378C60.8751 52.1208 60.8627 52.1009 60.8546 52.0792C60.8465 52.0575 60.8428 52.0344 60.8437 52.0112C60.9245 49.0736 60.2669 46.1337 59.376 43.2724Z" fill="#BBC2CA"/>
<path d="M58.4978 43.4117C58.2898 43.3728 58.1574 43.3578 58.1006 43.3668C56.5102 43.6436 55.51 43.8112 55.1001 43.8695C56.1564 43.5912 57.2036 43.387 58.2419 43.2569C58.3063 43.2494 58.3586 43.2561 58.399 43.2771C58.4634 43.3085 58.4963 43.3534 58.4978 43.4117Z" fill="#809CC9"/>
<path d="M58.4978 43.4117C59.4852 46.2453 60.0037 49.171 60.053 52.1886C60.0545 52.2619 60.0186 52.3016 59.9453 52.3076C58.1006 52.4632 56.2933 52.8148 54.5234 53.3623C54.4894 53.3733 54.4525 53.3708 54.4204 53.3553C54.3882 53.3399 54.3632 53.3127 54.3506 53.2793C53.3123 50.5489 52.1483 47.8716 50.8586 45.2474C50.8167 45.1606 50.8414 45.1023 50.9327 45.0724L52.4273 44.5719C52.8657 44.5734 53.2868 44.453 53.6908 44.2106L55.1001 43.8695C55.5101 43.8111 56.5102 43.6436 58.1006 43.3668C58.1574 43.3578 58.2898 43.3728 58.4978 43.4117Z" fill="#809CC9"/>
<path d="M53.6907 44.2104C53.2868 44.4528 52.8656 44.5733 52.4272 44.5718L53.6907 44.2104Z" fill="#809CC9"/>
<path d="M48.0534 56.782C46.1728 54.493 44.4179 52.1111 42.7886 49.6366C42.7692 49.607 42.7617 49.5712 42.7676 49.5366C42.7734 49.502 42.7921 49.4712 42.82 49.4503C44.9894 47.8315 47.3263 46.5067 49.8308 45.4759C49.9146 45.4415 49.9767 45.4646 50.0171 45.5454C51.3322 48.1577 52.5006 50.8342 53.5225 53.5751C53.5569 53.6664 53.5285 53.7299 53.4372 53.7658C51.5521 54.4989 49.8293 55.5111 48.2689 56.8022C48.1896 56.868 48.1178 56.8613 48.0534 56.782Z" fill="#4573B3"/>
<path d="M39.573 46.1519L41.4155 49.1703C41.4431 49.2158 41.4533 49.2698 41.4442 49.3225C41.4351 49.3752 41.4074 49.4231 41.3661 49.4575C39.3837 51.0868 37.631 52.9345 36.108 55.0006C36.0272 55.1099 35.9464 55.1106 35.8656 55.0029L32.9976 51.2035L39.573 46.1519Z" fill="#0A50A1"/>
<path d="M43.8592 61.641C41.2559 60.1688 38.6729 58.1715 36.7003 55.9094C36.6524 55.854 36.6502 55.7972 36.6935 55.7388C38.0378 53.8919 39.9835 51.5333 41.927 50.1935C42.0018 50.1426 42.0638 50.1546 42.1132 50.2294C43.735 52.7159 45.4967 55.0978 47.3983 57.3748C47.4536 57.4407 47.4499 57.5035 47.387 57.5634C46.1004 58.7827 44.9678 60.1314 43.9894 61.6096C43.9761 61.6304 43.9553 61.6452 43.9311 61.651C43.9069 61.6568 43.8812 61.6533 43.8592 61.641Z" fill="#0A50A1"/>
<path d="M32.2814 51.7866L35.3671 55.8418C35.412 55.9002 35.4143 55.9593 35.3739 56.0191C34.0767 57.9611 32.9801 60.0085 32.0839 62.1614C32.051 62.2422 32.0667 62.3402 32.131 62.4554C31.9141 62.4225 31.7742 62.4352 31.7114 62.4936C29.4986 61.0723 27.5724 59.3076 25.9326 57.1996L32.2814 51.7866Z" fill="#032850"/>
<path d="M56.4628 53.764C57.4008 53.6623 58.3269 53.5216 59.2411 53.3421C59.2994 53.3316 59.36 53.3287 59.4228 53.3331C59.8941 53.378 59.9495 53.3429 59.5889 53.2277C59.7565 53.1469 59.8821 53.1461 59.9659 53.2254C60.0213 53.2793 60.0445 53.3773 60.0355 53.5194C59.8762 55.9813 58.9179 60.5257 56.741 62.0742C56.6438 62.1445 56.5877 62.1198 56.5727 62.0001C56.2406 59.4014 55.6272 56.8707 54.7325 54.4081C54.7235 54.3828 54.7198 54.3558 54.7217 54.329C54.7235 54.3022 54.731 54.2761 54.7434 54.2525C54.7559 54.2288 54.7731 54.2081 54.7941 54.1916C54.815 54.1751 54.8391 54.1632 54.8649 54.1568L56.4628 53.764Z" fill="#809CC9"/>
<path d="M59.589 53.2275C59.9496 53.3427 59.8942 53.3779 59.423 53.333C59.3601 53.3285 59.2995 53.3315 59.2412 53.342C58.327 53.5215 57.401 53.6622 56.4629 53.7639L59.589 53.2275Z" fill="#809CC9"/>
<path d="M64.2771 53.2681C63.188 55.6334 61.7165 57.6734 59.8628 59.3879C59.8284 59.1396 59.8763 58.8239 60.0065 58.4409L60.5653 56.3157C60.8091 55.3761 60.9378 54.4358 60.9513 53.4947C60.9524 53.4414 60.9742 53.3906 61.012 53.3532C61.0497 53.3159 61.1004 53.295 61.1532 53.295L64.2771 53.2681Z" fill="#BBC2CA"/>
<path d="M48.8706 57.6956C48.7928 57.6013 48.8011 57.516 48.8953 57.4397C50.372 56.2623 51.9856 55.3122 53.736 54.5896C53.8033 54.5612 53.8497 54.5814 53.8751 54.6502C54.8102 57.0979 55.4161 59.627 55.6929 62.2378C55.7445 62.709 55.5224 63.0255 55.0623 63.0546C54.9852 63.0605 54.9087 63.0407 54.8446 62.9985C52.5855 61.5338 50.5942 59.7662 48.8706 57.6956Z" fill="#4573B3"/>
<path d="M38.8569 65.4764C36.8102 64.881 34.86 64.106 33.0064 63.1514C32.9734 63.135 32.9473 63.111 32.9278 63.0796C32.9173 63.0617 32.9054 63.046 32.8919 63.0325C32.868 63.0056 32.8388 62.9914 32.8044 62.9899C32.7356 62.9869 32.6869 63.0123 32.6585 63.0662L31.9897 62.6622L32.1738 62.5949C32.2067 62.5844 32.2134 62.565 32.194 62.5365C32.176 62.5111 32.1723 62.4752 32.1827 62.4288L32.7012 62.6824C32.7834 62.7228 32.8418 62.7011 32.8762 62.6173C33.741 60.5452 34.7897 58.5703 36.0225 56.6927C36.0689 56.6209 36.1205 56.6164 36.1774 56.6792C38.2585 58.9518 40.6358 60.8549 43.3094 62.3884C43.3812 62.4288 43.3976 62.4857 43.3587 62.559L42.0212 65.0949C42.0112 65.1142 42.0051 65.1352 42.0032 65.1569C42.0014 65.1785 42.0039 65.2003 42.0106 65.221C42.0173 65.2417 42.028 65.2608 42.0422 65.2773C42.0563 65.2938 42.0736 65.3073 42.093 65.3171L42.6361 65.5886C42.7139 65.6275 42.7738 65.6081 42.8156 65.5303L44.1823 62.9629C44.2212 62.8911 44.2774 62.8739 44.3507 62.9113C46.4512 63.987 48.6782 64.6304 51.0316 64.8413C51.0385 64.8422 51.045 64.8455 51.0499 64.8505C51.0547 64.8555 51.0578 64.862 51.0586 64.869C51.0594 64.8759 51.0578 64.883 51.0541 64.8889C51.0504 64.8949 51.0449 64.8995 51.0383 64.9019C47.0302 66.223 42.9697 66.4145 38.8569 65.4764Z" fill="#032850"/>
<path d="M25.257 57.8193L26.1524 58.9459L19.6645 64.9244C19.6092 64.9738 19.5486 64.9812 19.4827 64.9468L18.603 64.4958C20.7081 62.1454 22.9261 59.9199 25.257 57.8193Z" fill="#373435"/>
<path d="M54.0954 63.6048C54.1058 63.6123 54.1051 63.619 54.0931 63.625C53.8934 63.7394 53.5949 63.8561 53.3548 63.8741C50.37 64.097 47.5514 63.5202 44.8987 62.1438C44.8239 62.1049 44.809 62.0503 44.8539 61.98C45.7455 60.617 46.7906 59.3835 47.989 58.2793C48.0055 58.2641 48.025 58.2524 48.0462 58.2448C48.0674 58.2373 48.0899 58.2342 48.1124 58.2357C48.1349 58.2372 48.1568 58.2432 48.1768 58.2534C48.1969 58.2636 48.2147 58.2778 48.2291 58.2951C49.9137 60.3163 51.8692 62.0862 54.0954 63.6048Z" fill="#0A50A1"/>
<path d="M32.1311 62.4554C32.149 62.4464 32.1662 62.4374 32.1827 62.4285C32.1722 62.4748 32.176 62.5108 32.1939 62.5362C32.2134 62.5646 32.2066 62.5841 32.1737 62.5945L31.9897 62.6619L31.7114 62.4935C31.7743 62.4352 31.9142 62.4225 32.1311 62.4554Z" fill="#101010"/>
<path d="M38.8571 65.4763C36.6638 65.0065 34.5977 64.2031 32.6587 63.066C32.6871 63.0122 32.7357 62.9867 32.8046 62.9897C32.839 62.9912 32.8681 63.0054 32.8921 63.0324C32.9056 63.0458 32.9175 63.0616 32.928 63.0795C32.9474 63.1109 32.9736 63.1349 33.0065 63.1513C34.8602 64.1058 36.8104 64.8808 38.8571 65.4763Z" fill="#101010"/>
<path d="M51.3664 71.5546C52.7636 70.0695 55.5598 69.2368 57.128 70.9733C58.1233 72.0751 58.1532 73.7807 57.5046 75.0816C56.4934 77.1086 54.3654 78.2021 52.1262 77.5806C49.1992 76.7684 49.7637 73.2592 51.3664 71.5546ZM54.2795 71.2452C52.6776 71.4368 51.3711 72.7704 51.3805 74.4143C51.3851 75.1806 51.5543 75.9713 52.2711 76.3264C53.0019 76.6881 54.172 76.5348 54.8935 76.1105C55.9878 75.4685 56.8486 74.0358 56.5757 72.6928C56.3495 71.5779 55.3262 71.1209 54.2795 71.2452Z" fill="#373435"/>
<path d="M21.2313 73.1657C21.1238 71.219 22.7518 69.8705 24.6499 70.177C25.2269 70.2698 25.7879 70.4368 26.3331 70.6779C26.3686 70.6935 26.377 70.7184 26.3583 70.7527L25.591 72.1302C25.5804 72.1495 25.5632 72.1643 25.5424 72.172C25.5217 72.1797 25.4988 72.1798 25.4779 72.1723C24.8994 71.962 23.5256 71.4069 23.3453 72.4386C23.1864 73.3517 26.0994 73.161 26.0022 74.8311C25.9097 76.4367 25.3219 77.6516 23.5967 77.9114C22.5117 78.0749 21.2827 77.9936 20.3211 77.4151C20.2887 77.3952 20.2809 77.3684 20.2977 77.3348L21.0537 75.7544C21.0699 75.7208 21.0927 75.7155 21.122 75.7386C21.6434 76.1435 22.2247 76.3494 22.8659 76.3563C23.163 76.36 23.3945 76.3055 23.5602 76.1927C23.9696 75.9161 24.0621 75.2236 23.5107 74.9647C23.0191 74.7342 22.5201 74.5171 22.0135 74.3134C21.4846 74.1012 21.2631 73.7442 21.2313 73.1657Z" fill="#FF0000"/>
<path d="M28.6632 72.0301H27.1735C27.1661 72.0302 27.1587 72.0287 27.152 72.0256C27.1452 72.0226 27.1391 72.0181 27.1343 72.0125C27.1294 72.0069 27.1258 72.0004 27.1237 71.9932C27.1216 71.9861 27.121 71.9786 27.1221 71.9713L27.3623 70.3741C27.3641 70.362 27.3702 70.3509 27.3794 70.3428C27.3887 70.3347 27.4005 70.3303 27.4128 70.3302L32.4519 70.3105C32.4591 70.3106 32.4662 70.3122 32.4727 70.3152C32.4792 70.3182 32.485 70.3225 32.4898 70.3279C32.4945 70.3332 32.4981 70.3395 32.5003 70.3464C32.5024 70.3532 32.5032 70.3604 32.5024 70.3676L32.3295 71.9843C32.3281 71.9968 32.3222 72.0084 32.3129 72.0168C32.3036 72.0252 32.2916 72.03 32.279 72.0301H30.8987C30.8867 72.0302 30.8751 72.0344 30.8658 72.042C30.8566 72.0497 30.8504 72.0604 30.8482 72.0722L29.838 77.7375C29.8358 77.7493 29.8295 77.7599 29.8203 77.7676C29.8111 77.7753 29.7995 77.7795 29.7875 77.7795L27.7885 77.7749C27.781 77.7748 27.7737 77.7732 27.7669 77.77C27.7602 77.7669 27.7542 77.7623 27.7494 77.7566C27.7446 77.7509 27.7411 77.7443 27.7391 77.7371C27.7372 77.7299 27.7368 77.7224 27.738 77.715L28.7137 72.0899C28.7149 72.0826 28.7145 72.0751 28.7125 72.0679C28.7106 72.0607 28.7071 72.0541 28.7023 72.0484C28.6975 72.0427 28.6915 72.0381 28.6847 72.035C28.678 72.0318 28.6707 72.0302 28.6632 72.0301Z" fill="#FF0000"/>
<path d="M34.8778 75.1377L34.4302 77.705C34.4239 77.7398 34.4031 77.7573 34.3676 77.7573L32.4648 77.7526C32.4305 77.7526 32.4159 77.7358 32.4209 77.7021L33.5872 70.3911C33.5914 70.3652 33.6047 70.3417 33.6245 70.3247C33.6444 70.3078 33.6696 70.2985 33.6956 70.2986C34.6115 70.3005 35.4968 70.3114 36.3516 70.3313C37.7675 70.3649 38.9936 70.8425 38.7824 72.5368C38.6503 73.5966 38.0422 74.3209 36.9581 74.7097C36.9295 74.7203 36.9226 74.7387 36.9376 74.7648L38.6067 77.6909C38.6285 77.7289 38.6173 77.7479 38.5731 77.7479L36.1993 77.7694C36.1822 77.7697 36.1655 77.765 36.1511 77.7561C36.1367 77.7471 36.1252 77.7343 36.118 77.719L34.9348 75.1302C34.9322 75.1243 34.9278 75.1193 34.9221 75.1161C34.9165 75.1129 34.9099 75.1117 34.9035 75.1125C34.8971 75.1133 34.8911 75.1163 34.8864 75.1208C34.8818 75.1254 34.8788 75.1313 34.8778 75.1377ZM35.2273 71.8911L34.99 73.6966C34.985 73.7359 35.0021 73.7546 35.0414 73.7527C35.6722 73.7228 36.3152 73.6125 36.4787 72.8995C36.6909 71.9752 35.961 71.8714 35.2769 71.849C35.2476 71.8478 35.2311 71.8618 35.2273 71.8911Z" fill="#FF0000"/>
<path d="M12.0046 77.6702L15.9522 70.3759C15.9556 70.3698 15.9606 70.3646 15.9667 70.361C15.9728 70.3574 15.9797 70.3555 15.9868 70.3554L18.1372 70.3208C18.1464 70.3208 18.1553 70.324 18.1624 70.3298C18.1696 70.3355 18.1745 70.3436 18.1764 70.3526L19.74 77.7057C19.7412 77.7115 19.7411 77.7176 19.7397 77.7234C19.7384 77.7292 19.7357 77.7347 19.7319 77.7393C19.7282 77.744 19.7234 77.7477 19.718 77.7503C19.7126 77.7529 19.7067 77.7543 19.7007 77.7543H17.6232C17.6137 77.7544 17.6045 77.7512 17.5971 77.7453C17.5898 77.7393 17.5848 77.7309 17.583 77.7216L17.3877 76.6702C17.3859 76.6609 17.3809 76.6525 17.3736 76.6465C17.3662 76.6405 17.357 76.6373 17.3475 76.6375L14.8625 76.6225C14.8554 76.6223 14.8483 76.6241 14.8421 76.6275C14.8358 76.631 14.8306 76.636 14.827 76.6421L14.1672 77.7431C14.1635 77.7492 14.1583 77.7542 14.1521 77.7577C14.1458 77.7611 14.1388 77.7629 14.1317 77.7627L12.0392 77.729C12.0324 77.7289 12.0257 77.727 12.0198 77.7235C12.0139 77.72 12.009 77.7151 12.0055 77.7092C12.0021 77.7033 12.0002 77.6966 12 77.6898C11.9999 77.683 12.0014 77.6762 12.0046 77.6702ZM16.6213 73.0207C16.6203 73.0137 16.6169 73.0071 16.6118 73.0021C16.6066 72.9972 16.6 72.994 16.5929 72.9932C16.5858 72.9923 16.5786 72.9938 16.5724 72.9975C16.5662 73.0011 16.5614 73.0066 16.5587 73.0133L15.6793 74.9955C15.6772 75.0004 15.6762 75.0057 15.6767 75.011C15.6771 75.0164 15.6788 75.0215 15.6816 75.026C15.6845 75.0306 15.6884 75.0343 15.6931 75.037C15.6977 75.0396 15.7029 75.0411 15.7083 75.0413L16.9559 75.0497C16.9607 75.0496 16.9655 75.0485 16.9698 75.0464C16.9742 75.0443 16.978 75.0413 16.9811 75.0375C16.9841 75.0338 16.9863 75.0294 16.9874 75.0247C16.9886 75.02 16.9886 75.0151 16.9877 75.0104L16.6213 73.0207Z" fill="#FF0000"/>
<path d="M44.1048 76.6367L41.6105 76.6246C41.6045 76.6244 41.5985 76.6259 41.5932 76.6289C41.588 76.6318 41.5836 76.6361 41.5806 76.6414L40.9189 77.7479C40.9159 77.7531 40.9115 77.7574 40.9063 77.7604C40.901 77.7634 40.895 77.7649 40.889 77.7647L38.7834 77.7273C38.7777 77.7272 38.7721 77.7256 38.7671 77.7227C38.7621 77.7198 38.758 77.7157 38.7551 77.7107C38.7522 77.7057 38.7506 77.7001 38.7505 77.6943C38.7504 77.6886 38.7518 77.6829 38.7545 77.6778L42.7086 70.3733C42.7114 70.368 42.7156 70.3636 42.7207 70.3605C42.7258 70.3574 42.7316 70.3557 42.7376 70.3555L44.8955 70.3191C44.9034 70.3189 44.9111 70.3216 44.9172 70.3265C44.9234 70.3315 44.9276 70.3385 44.9291 70.3462L46.4964 77.7114C46.4973 77.7163 46.4972 77.7213 46.496 77.7261C46.4948 77.7309 46.4926 77.7354 46.4894 77.7392C46.4863 77.7431 46.4824 77.7462 46.4779 77.7483C46.4735 77.7505 46.4686 77.7516 46.4636 77.7516L44.3758 77.7591C44.3679 77.7593 44.3602 77.7566 44.3541 77.7517C44.3479 77.7467 44.3437 77.7398 44.3422 77.732L44.1385 76.6638C44.1369 76.6561 44.1327 76.6491 44.1266 76.6441C44.1204 76.6392 44.1127 76.6366 44.1048 76.6367ZM43.3768 73.0125C43.3757 73.0061 43.3726 73.0003 43.3679 72.9959C43.3632 72.9914 43.3572 72.9886 43.3507 72.9879C43.3443 72.9872 43.3378 72.9885 43.3323 72.9918C43.3267 72.995 43.3223 73 43.3198 73.006L42.4292 75.0022C42.4271 75.0067 42.4263 75.0117 42.4267 75.0166C42.4271 75.0216 42.4287 75.0263 42.4313 75.0305C42.434 75.0347 42.4377 75.0381 42.4421 75.0405C42.4464 75.0429 42.4513 75.0442 42.4563 75.0442H43.7095C43.7139 75.0442 43.7182 75.0431 43.7221 75.0412C43.726 75.0393 43.7295 75.0366 43.7323 75.0332C43.735 75.0298 43.737 75.0259 43.7381 75.0217C43.7392 75.0174 43.7393 75.013 43.7385 75.0087L43.3768 73.0125Z" fill="#FF0000"/>
<path d="M60.7362 72.9882H61.3128C61.3209 72.9882 61.3289 72.9899 61.3362 72.9934C61.3436 72.9969 61.35 73.0019 61.3551 73.0082C61.3602 73.0145 61.3639 73.0218 61.3658 73.0297C61.3677 73.0375 61.3678 73.0457 61.3661 73.0536L61.1418 74.0901C61.1392 74.1023 61.1325 74.1132 61.1228 74.121C61.1131 74.1288 61.101 74.1331 61.0886 74.133H60.4689C60.4561 74.1331 60.4436 74.1378 60.4339 74.1461C60.4241 74.1545 60.4177 74.1661 60.4157 74.1788L59.8839 77.733C59.8821 77.7458 59.8757 77.7577 59.866 77.7662C59.8562 77.7748 59.8436 77.7796 59.8306 77.7797L58.5737 77.775C58.5658 77.7749 58.5581 77.773 58.5511 77.7696C58.5441 77.7662 58.5378 77.7613 58.5329 77.7553C58.5279 77.7492 58.5243 77.7422 58.5223 77.7346C58.5203 77.7271 58.52 77.7192 58.5213 77.7115L59.1138 74.233C59.115 74.2259 59.1148 74.2186 59.1131 74.2116C59.1114 74.2045 59.1084 74.1979 59.1041 74.1921C59.0999 74.1863 59.0945 74.1813 59.0883 74.1776C59.0821 74.1739 59.0752 74.1714 59.068 74.1704L58.7989 74.133C58.785 74.131 58.7724 74.1235 58.7639 74.1124C58.7554 74.1012 58.7515 74.0872 58.7531 74.0732L58.8793 73.0134C58.8808 73.0004 58.8871 72.9884 58.8969 72.9796C58.9067 72.9708 58.9194 72.9659 58.9325 72.9658L59.268 72.963C59.2803 72.9628 59.2922 72.9585 59.3017 72.9507C59.3113 72.9428 59.3178 72.932 59.3204 72.92L59.6428 71.3032C59.6452 71.2908 59.6518 71.2797 59.6615 71.2717C59.6712 71.2636 59.6835 71.2593 59.6961 71.2593H60.9353C60.9433 71.2593 60.9512 71.261 60.9584 71.2644C60.9656 71.2678 60.972 71.2728 60.9771 71.279C60.9822 71.2851 60.9859 71.2923 60.9879 71.3001C60.9898 71.3078 60.9901 71.3159 60.9886 71.3238L60.683 72.9237C60.6814 72.9316 60.6817 72.9397 60.6837 72.9474C60.6856 72.9551 60.6893 72.9624 60.6944 72.9685C60.6995 72.9747 60.7059 72.9796 60.7131 72.9831C60.7203 72.9865 60.7282 72.9882 60.7362 72.9882Z" fill="#101010"/>
<path d="M84.6459 72.9882H85.202C85.2113 72.9883 85.2204 72.9904 85.2288 72.9945C85.2372 72.9985 85.2445 73.0044 85.2503 73.0116C85.2561 73.0189 85.2603 73.0273 85.2624 73.0364C85.2646 73.0454 85.2647 73.0548 85.2627 73.0639L85.0422 74.0835C85.0392 74.0974 85.0315 74.11 85.0205 74.119C85.0095 74.128 84.9957 74.1329 84.9814 74.133H84.3796C84.3645 74.1329 84.3498 74.1382 84.3383 74.148C84.3268 74.1578 84.3192 74.1714 84.3169 74.1863L83.7852 77.7245C83.7829 77.7395 83.7754 77.7531 83.7638 77.7629C83.7523 77.7727 83.7377 77.778 83.7226 77.7778H82.4815C82.4724 77.7778 82.4634 77.7758 82.4552 77.772C82.4469 77.7682 82.4396 77.7626 82.4338 77.7556C82.4279 77.7487 82.4236 77.7406 82.4212 77.7318C82.4188 77.7231 82.4183 77.7139 82.4198 77.7049L83.0104 74.2405C83.0119 74.2321 83.0116 74.2236 83.0097 74.2153C83.0077 74.207 83.0041 74.1992 82.999 74.1924C82.9939 74.1856 82.9875 74.1799 82.9802 74.1756C82.9728 74.1714 82.9647 74.1686 82.9562 74.1676L82.7104 74.1386C82.7022 74.1377 82.6942 74.1352 82.687 74.1311C82.6797 74.1271 82.6733 74.1217 82.6682 74.1151C82.6631 74.1086 82.6593 74.1011 82.6571 74.0931C82.6549 74.0851 82.6543 74.0768 82.6553 74.0686L82.7777 73.02C82.7796 73.0047 82.787 72.9906 82.7985 72.9805C82.8101 72.9703 82.825 72.9647 82.8403 72.9648H83.16C83.1745 72.9649 83.1886 72.9599 83.1999 72.9507C83.2111 72.9415 83.2188 72.9286 83.2216 72.9144L83.5366 71.3097C83.5394 71.2955 83.5471 71.2826 83.5584 71.2734C83.5696 71.2642 83.5837 71.2592 83.5983 71.2593H84.8235C84.8327 71.2592 84.8419 71.2613 84.8503 71.2652C84.8587 71.2691 84.8661 71.2749 84.872 71.282C84.8779 71.2892 84.8822 71.2976 84.8844 71.3066C84.8867 71.3156 84.887 71.3249 84.8852 71.334L84.5842 72.9134C84.5824 72.9225 84.5827 72.9319 84.5849 72.9409C84.5872 72.9499 84.5915 72.9583 84.5974 72.9654C84.6033 72.9726 84.6107 72.9783 84.6191 72.9823C84.6275 72.9862 84.6366 72.9882 84.6459 72.9882Z" fill="#101010"/>
<path d="M61.5773 75.1938C61.9895 73.4378 64.2857 72.0257 65.8959 73.2565C67.2632 74.3023 66.7174 76.3106 65.6333 77.2919C65.0408 77.8274 64.1885 78.0302 63.4119 77.9583C61.9913 77.8274 61.267 76.5153 61.5773 75.1938ZM65.3623 75.3826C65.6576 73.5714 63.1035 73.863 62.8418 75.5013C62.6885 76.4639 63.5362 76.9377 64.3642 76.6256C64.9293 76.4125 65.262 75.9982 65.3623 75.3826Z" fill="#101010"/>
<path d="M68.7724 73.2359C68.7699 73.2436 68.77 73.252 68.7726 73.2597C68.7752 73.2675 68.7802 73.2742 68.7868 73.2788C68.7935 73.2835 68.8015 73.286 68.8097 73.2858C68.8178 73.2856 68.8257 73.2829 68.8322 73.2779C69.2172 72.9807 69.6368 72.8022 70.134 72.806C72.3424 72.8209 72.7536 75.3648 71.791 76.8629C71.0938 77.9498 69.3836 78.2685 68.3051 77.5974C68.3005 77.5946 68.2953 77.5929 68.29 77.5926C68.2846 77.5922 68.2792 77.5932 68.2743 77.5954C68.2694 77.5976 68.2652 77.601 68.2619 77.6053C68.2586 77.6096 68.2564 77.6146 68.2556 77.6199L67.8331 80.1806C67.83 80.2004 67.8199 80.2184 67.8047 80.2314C67.7894 80.2445 67.77 80.2516 67.75 80.2516L66.635 80.2553C66.5734 80.2559 66.5472 80.2257 66.5565 80.1647L67.6294 73.034C67.6338 73.0035 67.6515 72.9882 67.6827 72.9882H68.778C68.7862 72.9881 68.7942 72.99 68.8016 72.9936C68.8089 72.9973 68.8153 73.0027 68.8202 73.0093C68.8251 73.0159 68.8284 73.0236 68.8298 73.0318C68.8313 73.04 68.8308 73.0484 68.8284 73.0564L68.7724 73.2359ZM69.5789 74.1041C68.8714 74.2723 68.5266 75.0611 68.4939 75.7218C68.477 76.0507 68.5365 76.2906 68.6724 76.4414C69.9789 77.8965 71.7284 74.8312 70.3546 74.1714C70.1197 74.0592 69.8611 74.0368 69.5789 74.1041Z" fill="#101010"/>
<path d="M76.5454 73.2714C76.5546 73.278 76.5653 73.282 76.5765 73.283C76.5877 73.2841 76.599 73.2821 76.6093 73.2774C76.6196 73.2727 76.6285 73.2653 76.6352 73.2561C76.6418 73.2468 76.646 73.236 76.6473 73.2247L76.6753 72.9593C76.6779 72.9348 76.6896 72.9122 76.7082 72.8961C76.7267 72.88 76.7507 72.8715 76.7753 72.8723L77.9211 72.9022C77.9491 72.9029 77.9609 72.9172 77.9566 72.9452L77.2164 77.633C77.2129 77.655 77.202 77.6752 77.1856 77.6903C77.1691 77.7054 77.148 77.7145 77.1258 77.7161L75.9248 77.7937C75.9167 77.7942 75.9086 77.7924 75.9015 77.7885C75.8943 77.7845 75.8884 77.7786 75.8845 77.7715C75.8806 77.7643 75.8788 77.7562 75.8793 77.7481C75.8798 77.7399 75.8827 77.7321 75.8875 77.7255L75.9594 77.6255C75.9653 77.6171 75.9683 77.607 75.9678 77.5967C75.9674 77.5864 75.9635 77.5766 75.9569 77.5687C75.9503 77.5609 75.9413 77.5554 75.9313 77.5531C75.9213 77.5509 75.9108 77.552 75.9015 77.5563C74.766 78.1096 73.2754 77.9965 72.8249 76.6171C72.4268 75.3966 72.8651 73.9648 73.9529 73.2275C74.7791 72.6667 75.7295 72.6901 76.5454 73.2714ZM75.7688 74.1041C74.1081 73.6555 73.1399 76.4274 74.5725 76.7395C76.023 77.0564 77.023 74.4424 75.7688 74.1041Z" fill="#373435"/>
<path d="M85.7691 75.0051C85.5299 73.6649 86.5869 72.6556 87.9167 72.8715C88.3018 72.9338 88.6516 73.0347 88.9662 73.1743C89.0005 73.1892 89.0086 73.2129 88.9905 73.2453L88.5055 74.1154C88.4982 74.1288 88.4859 74.139 88.4713 74.1437C88.4567 74.1484 88.4408 74.1473 88.427 74.1406C88.0354 73.949 87.3158 73.7126 87.099 74.2228C87.0233 74.4004 87.0784 74.5116 87.2457 74.6013C88.3139 75.1751 89.1298 75.0527 88.6326 76.6545C88.1906 78.0816 86.2588 78.034 85.1607 77.4984C85.1476 77.492 85.1375 77.4807 85.1326 77.4669C85.1277 77.4531 85.1284 77.4379 85.1346 77.4246L85.6018 76.4433C85.6193 76.4066 85.6442 76.4007 85.6766 76.4256C86.0672 76.7256 87.1411 77.1134 87.3859 76.4564C87.6822 75.6639 85.9009 75.7396 85.7691 75.0051Z" fill="#373435"/>
<path d="M80.1712 73.2162C80.7647 72.7209 81.4824 72.8882 82.1665 73.177C82.1983 73.1901 82.2048 73.2112 82.1861 73.2405L81.4161 74.4125C81.3924 74.4498 81.3644 74.4536 81.332 74.4237C80.618 73.7667 80.0096 74.2489 79.8712 75.0433C79.7192 75.9199 79.5709 76.794 79.4264 77.6656C79.4224 77.6895 79.4102 77.7111 79.3919 77.7267C79.3735 77.7423 79.3503 77.7508 79.3264 77.7507L78.09 77.7619C78.0807 77.7619 78.0715 77.7599 78.0631 77.756C78.0546 77.752 78.0472 77.7463 78.0412 77.7392C78.0352 77.732 78.0309 77.7237 78.0285 77.7147C78.0261 77.7057 78.0257 77.6963 78.0274 77.6871L78.832 73.0564C78.8349 73.0401 78.8432 73.0252 78.8556 73.0142C78.868 73.0032 78.8837 72.9967 78.9002 72.9957L80.1011 72.9237C80.1585 72.9206 80.1797 72.9468 80.1647 73.0022L80.117 73.1816C80.1151 73.1886 80.1155 73.1959 80.1181 73.2026C80.1207 73.2094 80.1253 73.2151 80.1314 73.2189C80.1374 73.2228 80.1446 73.2246 80.1518 73.2241C80.1589 73.2236 80.1658 73.2209 80.1712 73.2162Z" fill="#101010"/>
</svg>
