<svg width="512" height="512" viewBox="0 0 512 512" fill="none" xmlns="http://www.w3.org/2000/svg">
<rect width="512" height="512" fill="white"/>
<path d="M437.49 201.71C425.28 216.68 405.2 222.8 390.47 234.05C377.95 243.603 369.17 256.173 364.13 271.76C364.095 271.871 364.087 271.989 364.107 272.104C364.126 272.22 364.174 272.328 364.244 272.421C364.315 272.514 364.407 272.589 364.512 272.639C364.617 272.69 364.733 272.714 364.85 272.71C383.283 271.923 399.843 265.877 414.53 254.57C429.31 243.19 441.85 226.33 447.47 208.3C448.98 203.43 449.09 197.57 448.63 192.79C448.203 188.31 445.813 184.36 441.46 180.94" stroke="#D3D4D6" stroke-width="2"/>
<path d="M441.46 180.94C437.307 177.973 432.07 176.157 425.75 175.49C394.59 172.18 363.35 177.34 332.23 170.76C332.136 170.739 332.038 170.745 331.947 170.777C331.856 170.809 331.776 170.866 331.714 170.941C331.652 171.016 331.612 171.106 331.597 171.203C331.582 171.3 331.594 171.399 331.63 171.49C337.963 187.03 349.087 197.47 365 202.81C367.72 203.72 388.4 209.4 384.8 200.99C381.67 193.68 377.66 183.9 389.22 181.18C393.68 180.133 397.323 181.157 400.15 184.25C404.01 188.49 404.24 195.65 403.56 201.26C403.513 201.667 403.3 201.957 402.92 202.13L398.4 204.2C398.146 204.314 397.931 204.499 397.779 204.733C397.627 204.966 397.546 205.238 397.545 205.517C397.544 205.795 397.623 206.068 397.773 206.303C397.923 206.537 398.137 206.724 398.39 206.84C401.16 208.13 406.86 206.76 409.89 205.75C418.68 202.83 428.52 198.88 437.49 201.71" stroke="#AB91BE" stroke-width="2"/>
<path d="M441.46 180.94C443.073 189.193 441.75 196.117 437.49 201.71" stroke="#7F6695" stroke-width="2"/>
<path d="M334.23 229.95L336.94 217.46C337.02 217.1 336.877 216.9 336.51 216.86C325.943 215.707 319.283 220.12 316.53 230.1C316.417 230.5 316.157 230.673 315.75 230.62C312.883 230.247 310.15 230.677 307.55 231.91C307.421 231.97 307.305 232.056 307.211 232.163C307.116 232.269 307.044 232.394 307 232.53L305.41 237.43C305.382 237.518 305.375 237.612 305.389 237.704C305.404 237.795 305.44 237.882 305.495 237.957C305.549 238.032 305.621 238.093 305.703 238.135C305.786 238.177 305.877 238.2 305.97 238.2L314.04 238.13C314.157 238.13 314.272 238.156 314.377 238.207C314.482 238.258 314.575 238.331 314.648 238.423C314.721 238.514 314.772 238.62 314.799 238.734C314.825 238.848 314.825 238.966 314.8 239.08C312.607 248.533 310.593 257.91 308.76 267.21C307.25 274.87 306.78 282.61 314.23 286.21C324.17 290.99 336.94 285.13 343.63 276.83C343.857 276.55 343.833 276.297 343.56 276.07C337.27 270.77 334.17 278.76 328.99 279.35C325.11 279.79 324.51 276.03 325.11 273.12C327.457 261.6 329.907 250.073 332.46 238.54C332.533 238.193 332.747 238.027 333.1 238.04C339.34 238.31 348.66 239.9 349.95 231.03C349.997 230.683 349.847 230.51 349.5 230.51L334.71 230.54C334.637 230.54 334.565 230.524 334.499 230.492C334.434 230.461 334.376 230.416 334.33 230.359C334.284 230.303 334.251 230.237 334.234 230.166C334.216 230.095 334.215 230.021 334.23 229.95Z" stroke="#AB91BE" stroke-width="2"/>
<path d="M101.92 239.26C104 241.91 103.04 247.04 99.79 248.35C87.19 253.44 60.86 252.86 61.9 273.45C62.24 280.33 66.12 284.38 72.51 286.25C83.2967 289.403 93.5034 288.773 103.13 284.36C108.23 282.02 112.53 278.04 113.67 272.7C115.417 264.447 117.173 256.197 118.94 247.95C119.707 244.37 119.99 241.883 119.79 240.49C118.96 234.75 114.1 231.74 108.62 230.69C97.92 228.637 87.9134 230.07 78.6 234.99C78.2734 235.163 78.1267 235.433 78.16 235.8C78.55 240.06 81.75 240.98 85.47 239.47C90.07 237.6 97.96 234.21 101.92 239.26Z" stroke="#AB91BE" stroke-width="2"/>
<path d="M225.91 233.03C220.977 230.763 216.09 229.633 211.25 229.64C202.6 229.65 192.83 231.79 187.13 238.96C185.683 240.787 184.81 242.407 184.51 243.82C181.497 257.873 178.54 271.977 175.64 286.13C175.626 286.205 175.628 286.282 175.646 286.357C175.664 286.431 175.698 286.5 175.745 286.56C175.793 286.62 175.853 286.669 175.921 286.703C175.989 286.738 176.064 286.757 176.14 286.76C180.37 286.9 185.69 287.51 189.23 285.22C192.357 283.194 194.367 280.117 195.26 275.99C197.4 266.17 199.5 256.344 201.56 246.51C203.17 238.83 207.03 234.9 215.36 237.12C220.24 238.42 223.8 238.73 226.22 233.91C226.259 233.832 226.282 233.747 226.287 233.661C226.292 233.574 226.28 233.487 226.251 233.405C226.222 233.323 226.177 233.247 226.119 233.183C226.06 233.118 225.989 233.067 225.91 233.03Z" stroke="#AB91BE" stroke-width="2"/>
<path d="M278.16 275.18C274.5 283.09 261.6 281.08 255.45 277.86C251.32 275.7 248.69 278.67 246.68 281.95C246.642 282.013 246.616 282.083 246.606 282.157C246.596 282.23 246.601 282.304 246.62 282.376C246.64 282.447 246.674 282.513 246.721 282.571C246.767 282.628 246.825 282.676 246.89 282.71C259.043 289.077 271.273 289.713 283.58 284.62C291.41 281.38 297.99 273.44 295.98 264.49C294.26 256.82 283.44 250.97 277.25 248.02C275.337 247.107 273.917 245.687 272.99 243.76C272.841 243.455 272.799 243.11 272.87 242.78C274.21 236.22 282.86 235.89 287.51 237.05C292.52 238.29 297.04 239.79 300.11 234.29C300.156 234.21 300.184 234.121 300.193 234.029C300.202 233.937 300.191 233.844 300.162 233.756C300.133 233.668 300.085 233.588 300.023 233.52C299.961 233.451 299.885 233.397 299.8 233.36C286.97 227.7 261.77 227.06 256.51 244.15C253.96 252.42 258.36 258.44 265.27 262.43C269.09 264.63 280.88 269.33 278.16 275.18Z" stroke="#AB91BE" stroke-width="2"/>
<path d="M151.61 264.73L146.05 230.98C145.997 230.667 145.807 230.51 145.48 230.51L130.31 230.56C129.809 230.562 129.315 230.674 128.864 230.89C128.412 231.106 128.014 231.42 127.698 231.808C127.382 232.197 127.157 232.65 127.038 233.137C126.919 233.623 126.909 234.13 127.01 234.62L137.57 286.2C137.63 286.48 137.803 286.643 138.09 286.69C147.68 288.15 150.31 283.2 155.59 275.27C165.383 260.557 175.087 245.927 184.7 231.38C184.75 231.302 184.779 231.213 184.785 231.121C184.791 231.028 184.773 230.936 184.733 230.853C184.693 230.77 184.632 230.698 184.556 230.645C184.48 230.592 184.392 230.559 184.3 230.55C177.52 229.863 172.557 232.253 169.41 237.72C165.597 244.353 159.773 253.38 151.94 264.8C151.773 265.047 151.663 265.023 151.61 264.73Z" stroke="#AB91BE" stroke-width="2"/>
<path d="M234.28 285.67C237.68 283.9 240.18 279.76 240.97 276.01C244.15 261.003 247.333 246.003 250.52 231.01C250.532 230.957 250.531 230.902 250.519 230.849C250.506 230.796 250.482 230.746 250.448 230.703C250.413 230.66 250.37 230.625 250.32 230.601C250.27 230.576 250.216 230.562 250.16 230.56C245.69 230.41 239.02 230.11 235.5 232.19C231.79 234.38 231.61 237.45 230.54 242.44C227.433 257.047 224.327 271.663 221.22 286.29C221.205 286.356 221.205 286.425 221.22 286.491C221.235 286.557 221.265 286.618 221.307 286.671C221.35 286.724 221.403 286.767 221.464 286.796C221.525 286.825 221.592 286.84 221.66 286.84C225.67 286.79 230.93 287.41 234.28 285.67Z" stroke="#AB91BE" stroke-width="2"/>
<path d="M214.31 330.72H219.4C219.793 330.72 220.057 330.903 220.19 331.27L221.81 335.67C221.963 336.083 222.26 336.29 222.7 336.29H223.43C223.508 336.291 223.584 336.273 223.654 336.238C223.723 336.203 223.783 336.152 223.829 336.088C223.875 336.025 223.905 335.951 223.917 335.873C223.93 335.795 223.924 335.715 223.9 335.64C222.193 330.373 220.37 325.15 218.43 319.97C218.017 318.863 217.283 318.49 216.23 318.85C215.994 318.93 215.781 319.064 215.607 319.239C215.433 319.415 215.304 319.627 215.23 319.86L210.08 335.63C209.927 336.11 210.1 336.363 210.6 336.39L211.09 336.42C211.537 336.446 211.837 336.25 211.99 335.83L213.76 331.1C213.804 330.988 213.88 330.892 213.978 330.824C214.076 330.757 214.192 330.72 214.31 330.72Z" stroke="#D3D4D6" stroke-width="2"/>
<path d="M288.99 321.98L293.41 335.53C293.477 335.734 293.607 335.912 293.78 336.039C293.954 336.166 294.163 336.236 294.378 336.238C294.593 336.24 294.803 336.175 294.979 336.051C295.155 335.928 295.289 335.753 295.36 335.55L300.12 321.84C300.139 321.798 300.171 321.763 300.211 321.741C300.251 321.72 300.297 321.711 300.343 321.718C300.388 321.725 300.43 321.746 300.462 321.779C300.494 321.812 300.514 321.854 300.52 321.9C300.78 326.313 301.083 330.78 301.43 335.3C301.457 335.68 301.567 335.946 301.76 336.1C302.027 336.306 302.367 336.34 302.78 336.2C302.895 336.16 302.993 336.084 303.06 335.983C303.127 335.882 303.159 335.761 303.15 335.64L302.25 320.02C302.231 319.666 302.091 319.33 301.852 319.069C301.613 318.808 301.292 318.637 300.941 318.587C300.591 318.536 300.234 318.608 299.931 318.791C299.628 318.974 299.398 319.256 299.28 319.59L294.67 332.46C294.652 332.514 294.618 332.56 294.572 332.593C294.526 332.625 294.47 332.642 294.413 332.641C294.356 332.64 294.3 332.621 294.253 332.586C294.205 332.552 294.169 332.504 294.15 332.45L290.1 319.78C290.017 319.518 289.867 319.283 289.664 319.098C289.46 318.914 289.212 318.787 288.943 318.73C288.675 318.673 288.396 318.688 288.135 318.774C287.875 318.86 287.642 319.014 287.46 319.22C286.973 319.773 286.72 320.616 286.7 321.75C286.633 326.396 286.397 331.036 285.99 335.67C285.95 336.076 286.133 336.28 286.54 336.28H287.05C287.218 336.28 287.38 336.216 287.503 336.101C287.626 335.986 287.7 335.828 287.71 335.66L288.57 322.04C288.573 321.988 288.594 321.939 288.63 321.901C288.665 321.862 288.712 321.837 288.763 321.83C288.813 321.823 288.864 321.834 288.906 321.861C288.947 321.889 288.977 321.931 288.99 321.98Z" stroke="#C8C9CB" stroke-width="2"/>
<path d="M270.88 323.11L270.74 321.64C270.716 321.414 270.61 321.205 270.441 321.052C270.272 320.9 270.052 320.816 269.825 320.816C269.598 320.816 269.378 320.9 269.209 321.052C269.04 321.205 268.934 321.414 268.91 321.64C268.777 322.94 268.1 323.803 266.88 324.23C266.34 324.423 266.3 324.687 266.76 325.02L268.31 326.15C268.497 326.29 268.593 326.477 268.6 326.71L268.85 334.46C268.856 334.612 268.893 334.76 268.959 334.896C269.024 335.032 269.116 335.153 269.23 335.25C270.457 336.303 271.9 336.62 273.56 336.2C274 336.087 274.14 335.817 273.98 335.39L273.88 335.11C273.848 335.023 273.787 334.95 273.706 334.904C273.625 334.858 273.531 334.843 273.44 334.86C271.69 335.19 270.72 334.38 270.67 332.61C270.61 330.45 270.623 328.257 270.71 326.03C270.715 325.906 270.765 325.789 270.851 325.698C270.938 325.608 271.054 325.552 271.18 325.54L273.91 325.31C273.991 325.311 274.072 325.295 274.148 325.265C274.223 325.234 274.292 325.189 274.35 325.132C274.408 325.075 274.454 325.007 274.486 324.932C274.518 324.857 274.534 324.777 274.535 324.695C274.536 324.614 274.52 324.533 274.49 324.457C274.459 324.382 274.414 324.313 274.357 324.255C274.3 324.197 274.232 324.151 274.157 324.119C274.082 324.087 274.001 324.071 273.92 324.07L271.61 323.84C271.163 323.8 270.92 323.557 270.88 323.11Z" stroke="#D3D4D6" stroke-width="2"/>
<path d="M443.15 325.29L445.89 325.23C446.043 325.223 446.14 325.147 446.18 325C446.207 324.893 446.237 324.787 446.27 324.68C446.286 324.626 446.29 324.569 446.281 324.513C446.272 324.458 446.251 324.404 446.218 324.357C446.186 324.31 446.143 324.271 446.093 324.242C446.043 324.213 445.988 324.195 445.93 324.19L443.29 323.93C443.188 323.922 443.09 323.879 443.014 323.809C442.938 323.738 442.887 323.643 442.87 323.54L442.52 321.48C442.505 321.39 442.466 321.307 442.407 321.238C442.348 321.169 442.271 321.117 442.185 321.088C442.098 321.058 442.005 321.052 441.914 321.07C441.824 321.088 441.74 321.129 441.67 321.19C441.197 321.61 440.963 322.147 440.97 322.8C440.97 322.899 440.947 322.996 440.901 323.083C440.856 323.17 440.79 323.245 440.71 323.3L439.24 324.4C439.181 324.446 439.135 324.507 439.106 324.576C439.078 324.646 439.068 324.721 439.078 324.795C439.088 324.868 439.118 324.937 439.164 324.994C439.21 325.052 439.271 325.095 439.34 325.12C442.85 326.36 439.56 332.56 441.82 335.3C442.653 336.313 443.887 336.587 445.52 336.12C445.622 336.092 445.713 336.032 445.778 335.949C445.843 335.865 445.88 335.763 445.882 335.657C445.884 335.552 445.852 335.448 445.79 335.362C445.729 335.276 445.641 335.212 445.54 335.18L443.19 334.41C443.019 334.355 442.87 334.248 442.764 334.104C442.658 333.961 442.601 333.787 442.6 333.61L442.52 325.95C442.517 325.779 442.582 325.614 442.7 325.491C442.818 325.367 442.979 325.295 443.15 325.29Z" stroke="#C8C9CB" stroke-width="2"/>
<path d="M233.96 333.36C232.573 335.187 230.797 335.48 228.63 334.24C228.29 334.047 228.06 334.137 227.94 334.51L227.81 334.9C227.697 335.234 227.8 335.48 228.12 335.64C230.95 337.06 237.09 336.15 235.71 331.92C235.04 329.89 232.62 329.09 230.78 328.28C230.515 328.164 230.29 327.973 230.132 327.73C229.975 327.487 229.892 327.203 229.894 326.914C229.896 326.624 229.983 326.342 230.144 326.101C230.305 325.86 230.533 325.672 230.8 325.56C232.04 325.04 233.29 325.04 234.55 325.56C234.622 325.59 234.7 325.601 234.778 325.594C234.855 325.586 234.929 325.559 234.994 325.515C235.058 325.472 235.111 325.413 235.147 325.344C235.183 325.275 235.201 325.198 235.2 325.12V324.65C235.2 324.304 235.03 324.08 234.69 323.98C231.17 322.92 227.18 324.1 228.52 328.82C228.549 328.915 228.596 329.004 228.659 329.081C228.723 329.158 228.801 329.222 228.89 329.27L233.6 331.74C233.74 331.814 233.861 331.917 233.957 332.043C234.053 332.168 234.12 332.313 234.154 332.467C234.188 332.621 234.189 332.781 234.155 332.935C234.122 333.089 234.055 333.234 233.96 333.36Z" stroke="#C8C9CB" stroke-width="2"/>
<path d="M243.01 325.53C244.183 324.97 245.35 324.963 246.51 325.51C246.576 325.541 246.648 325.558 246.72 325.56C246.793 325.562 246.866 325.549 246.933 325.522C247.001 325.495 247.062 325.454 247.113 325.402C247.164 325.35 247.204 325.288 247.23 325.22C247.37 324.86 247.377 324.557 247.25 324.31C247.103 324.023 246.79 323.843 246.31 323.77C244.35 323.48 241.95 323.54 240.87 325.47C238.81 329.12 243.46 330.33 245.63 331.59C245.859 331.722 246.05 331.911 246.184 332.139C246.319 332.366 246.393 332.624 246.399 332.888C246.405 333.152 246.343 333.414 246.219 333.647C246.095 333.88 245.912 334.078 245.69 334.22C244.25 335.147 242.753 335.17 241.2 334.29C241.123 334.245 241.037 334.216 240.948 334.205C240.86 334.193 240.77 334.199 240.683 334.222C240.597 334.245 240.516 334.285 240.445 334.34C240.374 334.395 240.315 334.463 240.27 334.54C239.897 335.18 240.063 335.613 240.77 335.84C243.55 336.75 249.67 336.17 247.7 331.51C246.96 329.76 244.72 329.06 243.06 328.34C242.787 328.223 242.553 328.03 242.387 327.784C242.222 327.537 242.13 327.248 242.125 326.951C242.12 326.654 242.201 326.362 242.358 326.11C242.515 325.858 242.741 325.656 243.01 325.53Z" stroke="#C8C9CB" stroke-width="2"/>
<path d="M254.96 330.24L262.22 330.3C262.613 330.307 262.847 330.117 262.92 329.73C263.53 326.41 261.65 323.86 258.21 323.73C249.72 323.43 249.97 339.73 261.91 335.9C262.23 335.8 262.39 335.584 262.39 335.25V334.97C262.39 334.557 262.187 334.394 261.78 334.48C258.42 335.2 254.32 335.22 254.28 330.92C254.279 330.83 254.295 330.741 254.329 330.658C254.363 330.575 254.413 330.5 254.476 330.436C254.54 330.373 254.615 330.323 254.698 330.289C254.781 330.255 254.87 330.239 254.96 330.24Z" stroke="#C8C9CB" stroke-width="2"/>
<path d="M315.52 327.39C315.393 328.223 314.907 328.623 314.06 328.59C310.78 328.456 308.807 329.886 308.14 332.88C308.083 333.13 308.083 333.389 308.138 333.638C308.194 333.887 308.303 334.12 308.46 334.32C310.107 336.453 312.207 336.843 314.76 335.49C314.89 335.422 315.034 335.384 315.18 335.381C315.326 335.377 315.469 335.408 315.6 335.47L316.92 336.1C317.4 336.326 317.627 336.176 317.6 335.65C317.36 329.81 319.53 321.51 309.76 324.21C309.473 324.29 309.277 324.47 309.17 324.75L309.07 325.02C309.048 325.082 309.041 325.149 309.052 325.215C309.062 325.28 309.09 325.342 309.131 325.394C309.172 325.446 309.225 325.486 309.286 325.512C309.348 325.538 309.414 325.547 309.48 325.54C310.44 325.42 311.36 325.303 312.24 325.19C314.693 324.876 315.787 325.61 315.52 327.39Z" stroke="#C8C9CB" stroke-width="2"/>
<path d="M325.35 324.67L324.22 323.98C323.853 323.753 323.673 323.853 323.68 324.28L323.77 335.52C323.772 335.688 323.83 335.849 323.934 335.978C324.037 336.107 324.181 336.196 324.34 336.23C325.067 336.377 325.42 336.05 325.4 335.25C325.32 332.41 325.413 329.557 325.68 326.69C325.695 326.542 325.753 326.401 325.847 326.285C325.942 326.17 326.068 326.085 326.21 326.04L329.05 325.16C329.385 325.056 329.741 325.031 330.087 325.088C330.434 325.146 330.762 325.283 331.046 325.49C331.33 325.697 331.561 325.968 331.722 326.281C331.882 326.593 331.967 326.939 331.97 327.29L332.02 335.63C332.02 335.792 332.083 335.948 332.197 336.065C332.311 336.183 332.466 336.252 332.63 336.26L333.19 336.28C333.557 336.293 333.757 336.12 333.79 335.76C334.39 329.58 334.9 320.89 326.24 324.73C325.933 324.863 325.637 324.843 325.35 324.67Z" stroke="#C8C9CB" stroke-width="2"/>
<path d="M345.94 328.38C343.61 328.69 341 328.54 339.64 330.78C338.35 332.9 339.12 335.78 341.8 336.23C343.9 336.59 345.21 335.01 347.79 336.18C347.868 336.215 347.954 336.23 348.039 336.223C348.125 336.217 348.207 336.189 348.279 336.142C348.351 336.095 348.409 336.031 348.45 335.956C348.49 335.88 348.511 335.795 348.51 335.71C348.44 330.78 350.37 321.4 340.87 324.07C340.183 324.263 339.847 324.646 339.86 325.22C339.86 325.606 340.05 325.75 340.43 325.65C342.67 325.02 346.27 324.27 346.49 327.72C346.51 328.113 346.327 328.333 345.94 328.38Z" stroke="#C8C9CB" stroke-width="2"/>
<path d="M362.87 335.34C363.46 340.01 358.5 340.72 355.3 339.19C355.233 339.157 355.158 339.141 355.083 339.145C355.008 339.149 354.935 339.172 354.87 339.211C354.806 339.251 354.752 339.307 354.713 339.373C354.675 339.439 354.653 339.514 354.65 339.59L354.64 340.11C354.627 340.503 354.81 340.75 355.19 340.85C359.13 341.89 364.14 341.42 364.48 336.24C364.733 332.293 364.827 328.327 364.76 324.34C364.753 323.913 364.553 323.78 364.16 323.94L362.96 324.41C362.62 324.55 362.287 324.543 361.96 324.39C351.2 319.5 350.02 340.57 362.19 334.96C362.583 334.78 362.81 334.907 362.87 335.34Z" stroke="#C8C9CB" stroke-width="2"/>
<path d="M372.29 330.25L379.74 330.26C380.06 330.267 380.257 330.114 380.33 329.8C382.13 322.25 369.47 320.91 369.9 330.55C370.14 335.94 375.29 337.6 379.78 335.57C379.851 335.538 379.911 335.488 379.956 335.425C380.001 335.361 380.028 335.288 380.035 335.21C380.042 335.133 380.029 335.056 379.996 334.985C379.964 334.915 379.913 334.855 379.85 334.81L379.54 334.59C379.373 334.47 379.193 334.444 379 334.51C375.86 335.54 371.29 334.87 371.82 330.66C371.853 330.387 372.01 330.25 372.29 330.25Z" stroke="#C8C9CB" stroke-width="2"/>
<path d="M387.55 324.52L386.33 324.11C385.937 323.977 385.74 324.12 385.74 324.54L385.76 335.62C385.76 336.027 385.963 336.237 386.37 336.25H386.77C387.237 336.263 387.47 336.037 387.47 335.57C387.49 333.05 387.52 330.523 387.56 327.99C387.6 324.99 391.7 324.5 393.38 326.21C393.627 326.457 393.747 326.75 393.74 327.09L393.72 335.64C393.72 335.727 393.739 335.813 393.776 335.892C393.813 335.971 393.867 336.041 393.933 336.097C394 336.153 394.078 336.194 394.162 336.217C394.246 336.24 394.334 336.245 394.42 336.23L394.78 336.17C395.1 336.117 395.26 335.927 395.26 335.6L395.25 327.56C395.25 327.247 395.35 326.967 395.55 326.72C397.36 324.43 401.28 324.49 401.4 328.28C401.487 330.74 401.517 333.203 401.49 335.67C401.49 336.083 401.693 336.273 402.1 336.24L402.4 336.21C402.793 336.177 402.997 335.963 403.01 335.57C403.2 330.69 404.06 319.19 395.24 325.34C394.94 325.553 394.66 325.523 394.4 325.25C392.23 322.94 391.04 323.95 388.44 324.57C388.14 324.637 387.843 324.62 387.55 324.52Z" stroke="#C8C9CB" stroke-width="2"/>
<path d="M410.53 330.12L417.77 330.26C418.014 330.266 418.251 330.176 418.43 330.01C418.61 329.843 418.717 329.614 418.73 329.37C418.917 326.097 417.603 324.25 414.79 323.83C407.28 322.71 406.05 335.25 413.03 336.11C414.13 336.243 415.367 336.253 416.74 336.14C417.64 336.06 418.167 335.697 418.32 335.05C418.338 334.97 418.335 334.886 418.312 334.807C418.288 334.728 418.245 334.656 418.185 334.599C418.126 334.542 418.053 334.501 417.973 334.48C417.894 334.459 417.81 334.459 417.73 334.48C414.24 335.33 410.17 335.38 409.99 330.67C409.987 330.597 409.999 330.524 410.026 330.456C410.052 330.388 410.091 330.326 410.142 330.275C410.193 330.223 410.253 330.183 410.32 330.156C410.387 330.129 410.458 330.117 410.53 330.12Z" stroke="#C8C9CB" stroke-width="2"/>
<path d="M425.99 324.7L424.83 324.09C424.47 323.89 424.293 323.997 424.3 324.41L424.47 335.79C424.472 335.904 424.518 336.013 424.598 336.095C424.678 336.177 424.786 336.225 424.9 336.23L425.48 336.26C425.873 336.28 426.07 336.093 426.07 335.7C426.057 333.14 426.087 330.567 426.16 327.98C426.193 326.653 426.95 325.783 428.43 325.37C434.29 323.73 432.78 332.71 432.58 335.64C432.571 335.773 432.614 335.904 432.699 336.008C432.784 336.112 432.906 336.18 433.04 336.2L433.49 336.26C433.97 336.327 434.22 336.117 434.24 335.63C434.41 330.92 435.66 320.5 426.93 324.72C426.617 324.873 426.303 324.867 425.99 324.7Z" stroke="#C8C9CB" stroke-width="2"/>
<path d="M90.5 258.29C83.41 259.55 78.91 266.18 78.5 273.01C78.01 281.33 88.02 284.27 92.83 279.29C94.1034 277.97 95.2367 275.447 96.23 271.72C97.6634 266.367 98.9834 260.97 100.19 255.53C100.27 255.157 100.137 255.057 99.79 255.23C96.8034 256.697 93.7067 257.717 90.5 258.29Z" stroke="#AB91BE" stroke-width="2"/>
<path d="M219.3 328.32L217.1 321.96C216.953 321.533 216.81 321.533 216.67 321.96L214.52 328.44C214.499 328.506 214.494 328.576 214.506 328.645C214.518 328.713 214.546 328.777 214.589 328.832C214.631 328.888 214.686 328.931 214.749 328.961C214.812 328.99 214.881 329.003 214.95 329L218.91 328.87C219.29 328.863 219.42 328.68 219.3 328.32Z" stroke="#D3D4D6" stroke-width="2"/>
<path d="M442.01 325.03L442.29 324.44C442.397 324.227 442.397 324.01 442.29 323.79C442.19 323.577 442.003 323.547 441.73 323.7C441.537 323.807 441.457 323.967 441.49 324.18L441.62 324.97C441.628 325.012 441.65 325.051 441.681 325.081C441.712 325.111 441.751 325.13 441.794 325.137C441.837 325.143 441.88 325.136 441.919 325.117C441.957 325.098 441.989 325.068 442.01 325.03Z" stroke="#C8C9CB" stroke-width="2"/>
<path d="M254.79 328.88L260.87 328.96C260.979 328.96 261.083 328.917 261.16 328.84C261.237 328.763 261.28 328.659 261.28 328.55V328.45C261.285 328.012 261.205 327.578 261.044 327.172C260.882 326.766 260.643 326.396 260.339 326.083C260.035 325.77 259.673 325.521 259.274 325.348C258.874 325.176 258.445 325.085 258.01 325.08H257.73C257.295 325.075 256.864 325.156 256.46 325.318C256.057 325.481 255.689 325.721 255.378 326.027C255.067 326.332 254.819 326.697 254.647 327.099C254.476 327.501 254.385 327.933 254.38 328.37V328.47C254.38 328.579 254.423 328.683 254.5 328.76C254.577 328.837 254.681 328.88 254.79 328.88Z" stroke="#C8C9CB" stroke-width="2"/>
<path d="M310.07 331.7C309.864 331.933 309.719 332.213 309.647 332.515C309.575 332.818 309.578 333.133 309.657 333.434C309.737 333.734 309.889 334.011 310.1 334.239C310.312 334.467 310.576 334.639 310.87 334.74C314.59 336.02 316 333.54 315.76 330.23C315.733 329.897 315.553 329.717 315.22 329.69C313.107 329.537 311.39 330.207 310.07 331.7Z" stroke="#C8C9CB" stroke-width="2"/>
<path d="M346.68 332.54C346.834 332.214 346.896 331.852 346.859 331.493C346.821 331.135 346.686 330.793 346.468 330.505C346.25 330.217 345.957 329.993 345.621 329.858C345.284 329.724 344.918 329.683 344.56 329.74C343.167 329.973 342.01 330.45 341.09 331.17C340.803 331.395 340.583 331.693 340.453 332.034C340.323 332.375 340.289 332.744 340.354 333.104C340.419 333.463 340.58 333.799 340.821 334.075C341.061 334.351 341.372 334.556 341.72 334.67C344.013 335.417 345.667 334.707 346.68 332.54Z" stroke="#C8C9CB" stroke-width="2"/>
<path d="M358.981 334.666C359.996 334.71 360.991 334.248 361.748 333.382C362.505 332.516 362.961 331.316 363.016 330.047C363.044 329.419 362.972 328.792 362.805 328.203C362.638 327.614 362.379 327.074 362.043 326.614C361.708 326.155 361.301 325.784 360.847 325.523C360.394 325.262 359.901 325.117 359.399 325.095C358.384 325.05 357.389 325.512 356.632 326.378C355.875 327.244 355.419 328.444 355.364 329.713C355.336 330.341 355.408 330.968 355.575 331.557C355.742 332.146 356.001 332.686 356.337 333.146C356.673 333.606 357.079 333.977 357.533 334.237C357.986 334.498 358.479 334.644 358.981 334.666Z" stroke="#C8C9CB" stroke-width="2"/>
<path d="M372.07 328.91L378.63 328.99C378.702 328.99 378.77 328.962 378.821 328.911C378.872 328.86 378.9 328.792 378.9 328.72V328.53C378.911 327.628 378.557 326.759 377.918 326.114C377.278 325.469 376.405 325.101 375.49 325.09H375.29C374.837 325.085 374.387 325.167 373.967 325.333C373.546 325.499 373.163 325.745 372.839 326.057C372.514 326.369 372.256 326.741 372.078 327.152C371.9 327.562 371.805 328.004 371.8 328.45V328.64C371.8 328.712 371.829 328.78 371.879 328.831C371.93 328.882 371.998 328.91 372.07 328.91Z" stroke="#C8C9CB" stroke-width="2"/>
<path d="M410.5 329.09L417.04 329.07C417.125 329.07 417.206 329.036 417.266 328.976C417.326 328.916 417.36 328.835 417.36 328.75V328.34C417.357 327.448 416.992 326.593 416.343 325.963C415.694 325.334 414.816 324.98 413.9 324.98H413.64C413.185 324.98 412.734 325.068 412.314 325.238C411.893 325.408 411.511 325.657 411.19 325.971C410.868 326.285 410.614 326.657 410.44 327.067C410.267 327.477 410.179 327.917 410.18 328.36V328.77C410.18 328.855 410.214 328.936 410.274 328.996C410.334 329.056 410.415 329.09 410.5 329.09Z" stroke="#C8C9CB" stroke-width="2"/>
<path d="M441.46 180.94C443.073 189.193 441.75 196.117 437.49 201.71C428.52 198.88 418.68 202.83 409.89 205.75C406.86 206.76 401.16 208.13 398.39 206.84C398.137 206.724 397.923 206.537 397.773 206.303C397.623 206.068 397.544 205.795 397.545 205.517C397.546 205.238 397.627 204.966 397.779 204.733C397.931 204.499 398.146 204.314 398.4 204.2L402.92 202.13C403.3 201.957 403.513 201.667 403.56 201.26C404.24 195.65 404.01 188.49 400.15 184.25C397.323 181.157 393.68 180.133 389.22 181.18C377.66 183.9 381.67 193.68 384.8 200.99C388.4 209.4 367.72 203.72 365 202.81C349.087 197.47 337.963 187.03 331.63 171.49C331.594 171.399 331.582 171.3 331.597 171.203C331.612 171.106 331.652 171.016 331.714 170.941C331.776 170.866 331.856 170.809 331.947 170.777C332.038 170.745 332.136 170.739 332.23 170.76C363.35 177.34 394.59 172.18 425.75 175.49C432.07 176.157 437.307 177.973 441.46 180.94Z" fill="#56237D"/>
<path d="M441.46 180.94C445.813 184.36 448.203 188.31 448.63 192.79C449.09 197.57 448.98 203.43 447.47 208.3C441.85 226.33 429.31 243.19 414.53 254.57C399.843 265.877 383.283 271.923 364.85 272.71C364.733 272.714 364.617 272.69 364.512 272.639C364.407 272.589 364.315 272.514 364.244 272.421C364.174 272.328 364.126 272.22 364.107 272.104C364.087 271.989 364.095 271.871 364.13 271.76C369.17 256.173 377.95 243.603 390.47 234.05C405.2 222.8 425.28 216.68 437.49 201.71C441.75 196.117 443.073 189.193 441.46 180.94Z" fill="#A7A9AC"/>
<path d="M334.71 230.54L349.5 230.51C349.847 230.51 349.997 230.683 349.95 231.03C348.66 239.9 339.34 238.31 333.1 238.04C332.747 238.027 332.533 238.193 332.46 238.54C329.907 250.073 327.457 261.6 325.11 273.12C324.51 276.03 325.11 279.79 328.99 279.35C334.17 278.76 337.27 270.77 343.56 276.07C343.833 276.297 343.857 276.55 343.63 276.83C336.94 285.13 324.17 290.99 314.23 286.21C306.78 282.61 307.25 274.87 308.76 267.21C310.593 257.91 312.607 248.533 314.8 239.08C314.825 238.966 314.825 238.848 314.799 238.734C314.772 238.62 314.721 238.514 314.648 238.423C314.575 238.331 314.482 238.258 314.377 238.207C314.272 238.156 314.157 238.13 314.04 238.13L305.97 238.2C305.877 238.2 305.786 238.177 305.703 238.135C305.621 238.093 305.549 238.032 305.495 237.957C305.44 237.882 305.404 237.795 305.389 237.704C305.375 237.612 305.382 237.518 305.41 237.43L307 232.53C307.044 232.394 307.116 232.269 307.211 232.163C307.305 232.056 307.421 231.97 307.55 231.91C310.15 230.677 312.883 230.247 315.75 230.62C316.157 230.673 316.417 230.5 316.53 230.1C319.283 220.12 325.943 215.707 336.51 216.86C336.877 216.9 337.02 217.1 336.94 217.46L334.23 229.95C334.215 230.021 334.216 230.095 334.234 230.166C334.251 230.237 334.284 230.303 334.33 230.359C334.376 230.416 334.434 230.461 334.499 230.492C334.565 230.524 334.637 230.54 334.71 230.54Z" fill="#56237D"/>
<path d="M101.92 239.26C97.96 234.21 90.07 237.6 85.47 239.47C81.75 240.98 78.55 240.06 78.16 235.8C78.1267 235.433 78.2734 235.163 78.6 234.99C87.9134 230.07 97.92 228.637 108.62 230.69C114.1 231.74 118.96 234.75 119.79 240.49C119.99 241.883 119.707 244.37 118.94 247.95C117.173 256.197 115.417 264.447 113.67 272.7C112.53 278.04 108.23 282.02 103.13 284.36C93.5034 288.773 83.2967 289.403 72.51 286.25C66.12 284.38 62.24 280.33 61.9 273.45C60.86 252.86 87.19 253.44 99.79 248.35C103.04 247.04 104 241.91 101.92 239.26ZM90.5 258.29C83.41 259.55 78.91 266.18 78.5 273.01C78.01 281.33 88.02 284.27 92.83 279.29C94.1034 277.97 95.2367 275.447 96.23 271.72C97.6634 266.367 98.9834 260.97 100.19 255.53C100.27 255.157 100.137 255.057 99.79 255.23C96.8034 256.697 93.7067 257.717 90.5 258.29Z" fill="#56237D"/>
<path d="M225.91 233.03C225.989 233.067 226.06 233.118 226.119 233.183C226.177 233.247 226.222 233.323 226.251 233.405C226.28 233.487 226.292 233.574 226.287 233.661C226.281 233.747 226.259 233.832 226.22 233.91C223.8 238.73 220.24 238.42 215.36 237.12C207.03 234.9 203.17 238.83 201.56 246.51C199.5 256.344 197.4 266.17 195.26 275.99C194.367 280.117 192.357 283.194 189.23 285.22C185.69 287.51 180.37 286.9 176.14 286.76C176.064 286.757 175.989 286.738 175.921 286.703C175.853 286.669 175.793 286.62 175.745 286.56C175.698 286.5 175.664 286.431 175.646 286.357C175.627 286.282 175.625 286.205 175.64 286.13C178.54 271.977 181.497 257.873 184.51 243.82C184.81 242.407 185.683 240.787 187.13 238.96C192.83 231.79 202.6 229.65 211.25 229.64C216.09 229.633 220.977 230.763 225.91 233.03Z" fill="#56237D"/>
<path d="M278.16 275.18C280.88 269.33 269.09 264.63 265.27 262.43C258.36 258.44 253.96 252.42 256.51 244.15C261.77 227.06 286.97 227.7 299.8 233.36C299.885 233.397 299.961 233.451 300.023 233.52C300.085 233.588 300.133 233.668 300.162 233.756C300.191 233.844 300.201 233.937 300.193 234.029C300.184 234.121 300.155 234.21 300.11 234.29C297.04 239.79 292.52 238.29 287.51 237.05C282.86 235.89 274.21 236.22 272.87 242.78C272.798 243.11 272.841 243.455 272.99 243.76C273.917 245.687 275.337 247.107 277.25 248.02C283.44 250.97 294.26 256.82 295.98 264.49C297.99 273.44 291.41 281.38 283.58 284.62C271.273 289.713 259.043 289.077 246.89 282.71C246.824 282.676 246.767 282.628 246.72 282.571C246.674 282.513 246.64 282.447 246.62 282.376C246.6 282.304 246.596 282.23 246.606 282.157C246.616 282.083 246.641 282.013 246.68 281.95C248.69 278.67 251.32 275.7 255.45 277.86C261.6 281.08 274.5 283.09 278.16 275.18Z" fill="#56237D"/>
<path d="M151.94 264.8C159.773 253.38 165.597 244.353 169.41 237.72C172.557 232.253 177.52 229.863 184.3 230.55C184.392 230.559 184.48 230.592 184.556 230.645C184.632 230.698 184.693 230.77 184.733 230.853C184.773 230.936 184.791 231.028 184.785 231.121C184.779 231.213 184.75 231.302 184.7 231.38C175.087 245.927 165.383 260.557 155.59 275.27C150.31 283.2 147.68 288.15 138.09 286.69C137.803 286.643 137.63 286.48 137.57 286.2L127.01 234.62C126.909 234.13 126.919 233.623 127.038 233.137C127.157 232.65 127.382 232.197 127.698 231.808C128.014 231.42 128.412 231.106 128.864 230.89C129.315 230.674 129.809 230.562 130.31 230.56L145.48 230.51C145.807 230.51 145.997 230.667 146.05 230.98L151.61 264.73C151.663 265.023 151.773 265.047 151.94 264.8Z" fill="#56237D"/>
<path d="M240.97 276.01C240.18 279.76 237.68 283.9 234.28 285.67C230.93 287.41 225.67 286.79 221.66 286.84C221.592 286.84 221.525 286.825 221.464 286.796C221.403 286.767 221.35 286.724 221.307 286.671C221.265 286.618 221.235 286.557 221.22 286.491C221.205 286.425 221.205 286.356 221.22 286.29C224.327 271.663 227.433 257.047 230.54 242.44C231.61 237.45 231.79 234.38 235.5 232.19C239.02 230.11 245.69 230.41 250.16 230.56C250.216 230.562 250.27 230.576 250.32 230.601C250.37 230.625 250.413 230.66 250.448 230.703C250.482 230.746 250.506 230.796 250.519 230.849C250.531 230.902 250.532 230.957 250.52 231.01C247.333 246.003 244.15 261.003 240.97 276.01Z" fill="#56237D"/>
<path d="M78.5 273.01C78.91 266.18 83.41 259.55 90.5 258.29C93.7067 257.717 96.8034 256.697 99.79 255.23C100.137 255.057 100.27 255.157 100.19 255.53C98.9834 260.97 97.6634 266.367 96.23 271.72C95.2367 275.447 94.1034 277.97 92.83 279.29C88.02 284.27 78.01 281.33 78.5 273.01Z" fill="white"/>
<path d="M213.76 331.1L211.99 335.83C211.837 336.25 211.537 336.446 211.09 336.42L210.6 336.39C210.1 336.363 209.927 336.11 210.08 335.63L215.23 319.86C215.304 319.627 215.433 319.415 215.607 319.239C215.781 319.064 215.994 318.93 216.23 318.85C217.283 318.49 218.017 318.863 218.43 319.97C220.37 325.15 222.193 330.373 223.9 335.64C223.924 335.715 223.93 335.795 223.917 335.873C223.905 335.951 223.875 336.025 223.829 336.088C223.783 336.152 223.723 336.203 223.654 336.238C223.584 336.273 223.508 336.291 223.43 336.29H222.7C222.26 336.29 221.963 336.083 221.81 335.67L220.19 331.27C220.057 330.903 219.793 330.72 219.4 330.72H214.31C214.192 330.72 214.076 330.757 213.978 330.824C213.88 330.892 213.804 330.988 213.76 331.1ZM219.3 328.32L217.1 321.96C216.953 321.533 216.81 321.533 216.67 321.96L214.52 328.44C214.499 328.506 214.494 328.576 214.506 328.644C214.518 328.713 214.547 328.777 214.589 328.832C214.631 328.887 214.686 328.931 214.749 328.96C214.812 328.99 214.881 329.003 214.95 329L218.91 328.87C219.29 328.863 219.42 328.68 219.3 328.32Z" fill="#A7A9AC"/>
<path d="M288.57 322.04L287.71 335.66C287.7 335.828 287.626 335.986 287.503 336.101C287.38 336.216 287.218 336.28 287.05 336.28H286.54C286.133 336.28 285.95 336.076 285.99 335.67C286.397 331.036 286.633 326.396 286.7 321.75C286.72 320.616 286.973 319.773 287.46 319.22C287.642 319.014 287.875 318.86 288.135 318.774C288.396 318.688 288.675 318.673 288.943 318.73C289.212 318.787 289.46 318.914 289.664 319.098C289.867 319.283 290.017 319.518 290.1 319.78L294.15 332.45C294.169 332.504 294.205 332.552 294.253 332.586C294.3 332.621 294.356 332.64 294.413 332.641C294.47 332.642 294.526 332.625 294.572 332.593C294.618 332.56 294.652 332.514 294.67 332.46L299.28 319.59C299.398 319.256 299.628 318.974 299.931 318.791C300.234 318.608 300.591 318.536 300.941 318.587C301.292 318.637 301.613 318.808 301.852 319.069C302.091 319.33 302.231 319.666 302.25 320.02L303.15 335.64C303.159 335.761 303.127 335.882 303.06 335.983C302.993 336.084 302.895 336.16 302.78 336.2C302.367 336.34 302.027 336.306 301.76 336.1C301.567 335.946 301.457 335.68 301.43 335.3C301.083 330.78 300.78 326.313 300.52 321.9C300.514 321.854 300.494 321.812 300.462 321.779C300.43 321.746 300.388 321.725 300.343 321.718C300.297 321.711 300.251 321.72 300.211 321.741C300.171 321.763 300.139 321.798 300.12 321.84L295.36 335.55C295.289 335.753 295.155 335.928 294.979 336.051C294.803 336.175 294.593 336.24 294.378 336.238C294.163 336.236 293.954 336.166 293.78 336.039C293.607 335.912 293.477 335.734 293.41 335.53L288.99 321.98C288.977 321.931 288.947 321.889 288.906 321.861C288.864 321.834 288.813 321.823 288.763 321.83C288.712 321.837 288.665 321.862 288.63 321.901C288.594 321.939 288.573 321.988 288.57 322.04Z" fill="#919297"/>
<path d="M271.61 323.84L273.92 324.07C274.001 324.071 274.082 324.087 274.157 324.119C274.232 324.151 274.3 324.197 274.357 324.255C274.414 324.313 274.459 324.382 274.49 324.457C274.52 324.533 274.536 324.614 274.535 324.695C274.534 324.777 274.518 324.857 274.486 324.932C274.454 325.007 274.408 325.075 274.35 325.132C274.292 325.189 274.223 325.234 274.148 325.265C274.072 325.295 273.991 325.311 273.91 325.31L271.18 325.54C271.054 325.552 270.938 325.608 270.851 325.698C270.765 325.789 270.715 325.906 270.71 326.03C270.623 328.257 270.61 330.45 270.67 332.61C270.72 334.38 271.69 335.19 273.44 334.86C273.531 334.843 273.625 334.858 273.706 334.904C273.787 334.95 273.848 335.023 273.88 335.11L273.98 335.39C274.14 335.817 274 336.087 273.56 336.2C271.9 336.62 270.457 336.303 269.23 335.25C269.116 335.153 269.024 335.032 268.959 334.896C268.893 334.76 268.856 334.612 268.85 334.46L268.6 326.71C268.593 326.477 268.497 326.29 268.31 326.15L266.76 325.02C266.3 324.687 266.34 324.423 266.88 324.23C268.1 323.803 268.777 322.94 268.91 321.64C268.934 321.414 269.04 321.205 269.209 321.052C269.378 320.9 269.598 320.816 269.825 320.816C270.052 320.816 270.272 320.9 270.441 321.052C270.61 321.205 270.716 321.414 270.74 321.64L270.88 323.11C270.92 323.557 271.163 323.8 271.61 323.84Z" fill="#A7A9AC"/>
<path d="M442.52 325.95L442.6 333.61C442.601 333.787 442.658 333.961 442.764 334.104C442.87 334.248 443.019 334.355 443.19 334.41L445.54 335.18C445.641 335.212 445.729 335.276 445.79 335.362C445.852 335.448 445.884 335.552 445.882 335.657C445.88 335.763 445.843 335.865 445.778 335.949C445.713 336.032 445.622 336.092 445.52 336.12C443.887 336.587 442.653 336.313 441.82 335.3C439.56 332.56 442.85 326.36 439.34 325.12C439.271 325.095 439.21 325.052 439.164 324.994C439.118 324.937 439.088 324.868 439.078 324.795C439.068 324.721 439.078 324.646 439.106 324.576C439.135 324.507 439.181 324.446 439.24 324.4L440.71 323.3C440.79 323.245 440.856 323.17 440.901 323.083C440.947 322.996 440.97 322.899 440.97 322.8C440.963 322.147 441.197 321.61 441.67 321.19C441.74 321.129 441.824 321.088 441.914 321.07C442.005 321.052 442.098 321.058 442.185 321.088C442.271 321.117 442.348 321.169 442.407 321.238C442.466 321.307 442.505 321.39 442.52 321.48L442.87 323.54C442.887 323.643 442.938 323.738 443.014 323.809C443.09 323.879 443.188 323.922 443.29 323.93L445.93 324.19C445.988 324.195 446.043 324.213 446.093 324.242C446.143 324.271 446.186 324.31 446.218 324.357C446.251 324.404 446.272 324.458 446.281 324.513C446.29 324.569 446.286 324.626 446.27 324.68C446.237 324.787 446.207 324.893 446.18 325C446.14 325.147 446.043 325.223 445.89 325.23L443.15 325.29C442.979 325.295 442.818 325.367 442.7 325.491C442.582 325.614 442.517 325.779 442.52 325.95ZM442.01 325.03L442.29 324.44C442.397 324.227 442.397 324.01 442.29 323.79C442.19 323.577 442.003 323.547 441.73 323.7C441.537 323.807 441.457 323.967 441.49 324.18L441.62 324.97C441.628 325.012 441.65 325.051 441.681 325.081C441.712 325.11 441.751 325.13 441.794 325.136C441.837 325.143 441.88 325.136 441.919 325.117C441.957 325.098 441.989 325.068 442.01 325.03Z" fill="#919297"/>
<path d="M217.1 321.96L219.3 328.32C219.42 328.68 219.29 328.863 218.91 328.87L214.95 329C214.881 329.003 214.812 328.99 214.749 328.961C214.686 328.931 214.631 328.888 214.589 328.832C214.546 328.777 214.518 328.713 214.506 328.645C214.494 328.576 214.499 328.506 214.52 328.44L216.67 321.96C216.81 321.533 216.953 321.533 217.1 321.96Z" fill="white"/>
<path d="M442.01 325.03C441.989 325.068 441.957 325.098 441.919 325.117C441.88 325.136 441.837 325.143 441.794 325.137C441.751 325.13 441.712 325.111 441.681 325.081C441.65 325.051 441.628 325.012 441.62 324.97L441.49 324.18C441.457 323.967 441.537 323.807 441.73 323.7C442.003 323.547 442.19 323.577 442.29 323.79C442.397 324.01 442.397 324.227 442.29 324.44L442.01 325.03Z" fill="white"/>
<path d="M233.96 333.36C234.055 333.234 234.122 333.089 234.155 332.935C234.189 332.781 234.188 332.621 234.154 332.467C234.12 332.313 234.053 332.168 233.957 332.043C233.861 331.917 233.74 331.814 233.6 331.74L228.89 329.27C228.801 329.222 228.723 329.158 228.659 329.081C228.596 329.004 228.549 328.915 228.52 328.82C227.18 324.1 231.17 322.92 234.69 323.98C235.03 324.08 235.2 324.304 235.2 324.65V325.12C235.201 325.198 235.183 325.275 235.147 325.344C235.111 325.413 235.058 325.472 234.994 325.515C234.929 325.559 234.855 325.586 234.778 325.594C234.7 325.601 234.622 325.59 234.55 325.56C233.29 325.04 232.04 325.04 230.8 325.56C230.533 325.672 230.305 325.86 230.144 326.101C229.983 326.342 229.896 326.624 229.894 326.914C229.892 327.203 229.975 327.487 230.132 327.73C230.29 327.973 230.515 328.164 230.78 328.28C232.62 329.09 235.04 329.89 235.71 331.92C237.09 336.15 230.95 337.06 228.12 335.64C227.8 335.48 227.697 335.234 227.81 334.9L227.94 334.51C228.06 334.137 228.29 334.047 228.63 334.24C230.797 335.48 232.573 335.187 233.96 333.36Z" fill="#919297"/>
<path d="M243.01 325.53C242.741 325.656 242.515 325.858 242.358 326.11C242.201 326.362 242.12 326.654 242.125 326.951C242.13 327.248 242.222 327.537 242.387 327.784C242.553 328.03 242.787 328.223 243.06 328.34C244.72 329.06 246.96 329.76 247.7 331.51C249.67 336.17 243.55 336.75 240.77 335.84C240.063 335.613 239.897 335.18 240.27 334.54C240.315 334.463 240.374 334.395 240.445 334.34C240.516 334.285 240.597 334.245 240.683 334.222C240.77 334.199 240.86 334.193 240.948 334.205C241.037 334.216 241.123 334.245 241.2 334.29C242.753 335.17 244.25 335.147 245.69 334.22C245.912 334.078 246.095 333.88 246.219 333.647C246.343 333.414 246.405 333.152 246.399 332.888C246.393 332.624 246.319 332.366 246.184 332.139C246.05 331.911 245.859 331.722 245.63 331.59C243.46 330.33 238.81 329.12 240.87 325.47C241.95 323.54 244.35 323.48 246.31 323.77C246.79 323.843 247.103 324.023 247.25 324.31C247.377 324.557 247.37 324.86 247.23 325.22C247.204 325.288 247.164 325.35 247.113 325.402C247.062 325.454 247.001 325.495 246.933 325.522C246.866 325.549 246.793 325.562 246.72 325.56C246.648 325.558 246.576 325.541 246.51 325.51C245.35 324.963 244.183 324.97 243.01 325.53Z" fill="#919297"/>
<path d="M254.28 330.92C254.32 335.22 258.42 335.2 261.78 334.48C262.187 334.394 262.39 334.557 262.39 334.97V335.25C262.39 335.584 262.23 335.8 261.91 335.9C249.97 339.73 249.72 323.43 258.21 323.73C261.65 323.86 263.53 326.41 262.92 329.73C262.847 330.117 262.613 330.307 262.22 330.3L254.96 330.24C254.87 330.239 254.781 330.255 254.698 330.289C254.615 330.323 254.54 330.373 254.476 330.436C254.413 330.5 254.363 330.575 254.329 330.658C254.295 330.741 254.279 330.83 254.28 330.92ZM254.79 328.88L260.87 328.96C260.979 328.96 261.083 328.917 261.16 328.84C261.237 328.763 261.28 328.659 261.28 328.55V328.45C261.285 328.013 261.205 327.579 261.044 327.173C260.882 326.767 260.643 326.397 260.339 326.084C260.035 325.771 259.673 325.521 259.274 325.349C258.874 325.177 258.445 325.085 258.01 325.08H257.73C257.295 325.075 256.864 325.156 256.46 325.318C256.057 325.481 255.689 325.722 255.378 326.027C255.067 326.333 254.819 326.697 254.647 327.099C254.476 327.501 254.385 327.933 254.38 328.37V328.47C254.38 328.579 254.423 328.683 254.5 328.76C254.577 328.837 254.681 328.88 254.79 328.88Z" fill="#919297"/>
<path d="M315.52 327.39C315.787 325.61 314.693 324.876 312.24 325.19C311.36 325.303 310.44 325.42 309.48 325.54C309.414 325.547 309.348 325.538 309.286 325.512C309.225 325.486 309.172 325.446 309.131 325.394C309.09 325.342 309.062 325.28 309.052 325.215C309.041 325.149 309.048 325.082 309.07 325.02L309.17 324.75C309.277 324.47 309.473 324.29 309.76 324.21C319.53 321.51 317.36 329.81 317.6 335.65C317.627 336.176 317.4 336.326 316.92 336.1L315.6 335.47C315.469 335.408 315.326 335.377 315.18 335.381C315.034 335.384 314.89 335.422 314.76 335.49C312.207 336.843 310.107 336.453 308.46 334.32C308.303 334.12 308.194 333.887 308.138 333.638C308.083 333.389 308.083 333.13 308.14 332.88C308.807 329.886 310.78 328.456 314.06 328.59C314.907 328.623 315.393 328.223 315.52 327.39ZM310.07 331.7C309.864 331.933 309.718 332.213 309.646 332.515C309.574 332.817 309.578 333.133 309.657 333.434C309.736 333.734 309.888 334.011 310.1 334.239C310.312 334.466 310.576 334.639 310.87 334.74C314.59 336.02 316 333.54 315.76 330.23C315.733 329.896 315.553 329.716 315.22 329.69C313.107 329.536 311.39 330.206 310.07 331.7Z" fill="#919297"/>
<path d="M326.24 324.73C334.9 320.89 334.39 329.58 333.79 335.76C333.757 336.12 333.557 336.293 333.19 336.28L332.63 336.26C332.465 336.252 332.31 336.183 332.197 336.065C332.083 335.948 332.02 335.792 332.02 335.63L331.97 327.29C331.967 326.939 331.882 326.593 331.722 326.281C331.561 325.968 331.33 325.697 331.046 325.49C330.762 325.283 330.434 325.146 330.087 325.088C329.74 325.031 329.385 325.056 329.05 325.16L326.21 326.04C326.067 326.085 325.941 326.17 325.847 326.285C325.753 326.401 325.695 326.542 325.68 326.69C325.413 329.557 325.32 332.41 325.4 335.25C325.42 336.05 325.067 336.377 324.34 336.23C324.18 336.196 324.037 336.107 323.933 335.978C323.83 335.849 323.772 335.688 323.77 335.52L323.68 324.28C323.673 323.853 323.853 323.753 324.22 323.98L325.35 324.67C325.637 324.843 325.933 324.863 326.24 324.73Z" fill="#919297"/>
<path d="M346.49 327.72C346.27 324.27 342.67 325.02 340.43 325.65C340.05 325.75 339.86 325.606 339.86 325.22C339.847 324.646 340.183 324.263 340.87 324.07C350.37 321.4 348.44 330.78 348.51 335.71C348.511 335.795 348.49 335.88 348.45 335.956C348.409 336.031 348.351 336.095 348.279 336.142C348.207 336.189 348.125 336.217 348.039 336.223C347.954 336.23 347.868 336.215 347.79 336.18C345.21 335.01 343.9 336.59 341.8 336.23C339.12 335.78 338.35 332.9 339.64 330.78C341 328.54 343.61 328.69 345.94 328.38C346.327 328.333 346.51 328.113 346.49 327.72ZM346.68 332.54C346.834 332.214 346.896 331.852 346.859 331.493C346.821 331.134 346.686 330.793 346.468 330.504C346.25 330.216 345.957 329.993 345.621 329.858C345.284 329.723 344.918 329.682 344.56 329.74C343.167 329.973 342.01 330.45 341.09 331.17C340.803 331.394 340.583 331.693 340.453 332.034C340.323 332.374 340.289 332.744 340.354 333.104C340.419 333.463 340.58 333.799 340.821 334.075C341.061 334.35 341.372 334.556 341.72 334.67C344.013 335.416 345.667 334.706 346.68 332.54Z" fill="#919297"/>
<path d="M362.19 334.96C350.02 340.57 351.2 319.5 361.96 324.39C362.287 324.543 362.62 324.55 362.96 324.41L364.16 323.94C364.553 323.78 364.753 323.913 364.76 324.34C364.827 328.327 364.733 332.293 364.48 336.24C364.14 341.42 359.13 341.89 355.19 340.85C354.81 340.75 354.627 340.503 354.64 340.11L354.65 339.59C354.653 339.514 354.675 339.439 354.713 339.373C354.752 339.307 354.806 339.251 354.87 339.211C354.935 339.172 355.008 339.149 355.083 339.145C355.158 339.141 355.233 339.157 355.3 339.19C358.5 340.72 363.46 340.01 362.87 335.34C362.81 334.907 362.583 334.78 362.19 334.96ZM358.981 334.666C359.996 334.71 360.991 334.248 361.748 333.382C362.505 332.516 362.961 331.316 363.016 330.047C363.044 329.419 362.972 328.792 362.805 328.203C362.638 327.614 362.379 327.074 362.043 326.614C361.708 326.155 361.301 325.784 360.847 325.523C360.394 325.262 359.901 325.117 359.399 325.095C358.384 325.05 357.389 325.512 356.632 326.378C355.875 327.244 355.419 328.444 355.364 329.713C355.336 330.341 355.408 330.968 355.575 331.557C355.742 332.146 356.001 332.686 356.337 333.146C356.673 333.606 357.079 333.977 357.533 334.237C357.987 334.498 358.479 334.644 358.981 334.666Z" fill="#919297"/>
<path d="M371.82 330.66C371.29 334.87 375.86 335.54 379 334.51C379.193 334.444 379.373 334.47 379.54 334.59L379.85 334.81C379.913 334.855 379.964 334.915 379.996 334.985C380.029 335.056 380.042 335.133 380.035 335.21C380.028 335.288 380.001 335.361 379.956 335.425C379.911 335.488 379.85 335.538 379.78 335.57C375.29 337.6 370.14 335.94 369.9 330.55C369.47 320.91 382.13 322.25 380.33 329.8C380.257 330.114 380.06 330.267 379.74 330.26L372.29 330.25C372.01 330.25 371.853 330.387 371.82 330.66ZM372.07 328.91L378.63 328.99C378.701 328.99 378.77 328.962 378.821 328.911C378.871 328.86 378.9 328.792 378.9 328.72V328.53C378.91 327.629 378.557 326.76 377.918 326.114C377.278 325.469 376.405 325.101 375.49 325.09H375.29C374.837 325.085 374.387 325.167 373.966 325.333C373.546 325.499 373.162 325.745 372.838 326.057C372.514 326.369 372.256 326.741 372.078 327.152C371.899 327.562 371.805 328.004 371.8 328.45V328.64C371.8 328.712 371.828 328.78 371.879 328.831C371.93 328.882 371.998 328.91 372.07 328.91Z" fill="#919297"/>
<path d="M388.44 324.57C391.04 323.95 392.23 322.94 394.4 325.25C394.66 325.523 394.94 325.553 395.24 325.34C404.06 319.19 403.2 330.69 403.01 335.57C402.997 335.963 402.793 336.177 402.4 336.21L402.1 336.24C401.693 336.273 401.49 336.083 401.49 335.67C401.517 333.203 401.487 330.74 401.4 328.28C401.28 324.49 397.36 324.43 395.55 326.72C395.35 326.967 395.25 327.247 395.25 327.56L395.26 335.6C395.26 335.927 395.1 336.117 394.78 336.17L394.42 336.23C394.334 336.245 394.246 336.24 394.162 336.217C394.078 336.194 394 336.153 393.933 336.097C393.867 336.041 393.813 335.971 393.776 335.892C393.739 335.813 393.72 335.727 393.72 335.64L393.74 327.09C393.747 326.75 393.627 326.457 393.38 326.21C391.7 324.5 387.6 324.99 387.56 327.99C387.52 330.523 387.49 333.05 387.47 335.57C387.47 336.037 387.237 336.263 386.77 336.25H386.37C385.963 336.237 385.76 336.027 385.76 335.62L385.74 324.54C385.74 324.12 385.937 323.977 386.33 324.11L387.55 324.52C387.843 324.62 388.14 324.637 388.44 324.57Z" fill="#919297"/>
<path d="M409.99 330.67C410.17 335.38 414.24 335.33 417.73 334.48C417.81 334.459 417.894 334.459 417.973 334.48C418.053 334.501 418.126 334.542 418.185 334.599C418.245 334.656 418.288 334.728 418.312 334.807C418.335 334.886 418.338 334.97 418.32 335.05C418.167 335.697 417.64 336.06 416.74 336.14C415.367 336.253 414.13 336.243 413.03 336.11C406.05 335.25 407.28 322.71 414.79 323.83C417.603 324.25 418.917 326.097 418.73 329.37C418.717 329.614 418.61 329.843 418.43 330.01C418.251 330.176 418.014 330.266 417.77 330.26L410.53 330.12C410.458 330.117 410.387 330.129 410.32 330.156C410.253 330.183 410.193 330.223 410.142 330.275C410.091 330.326 410.052 330.388 410.026 330.456C409.999 330.524 409.987 330.597 409.99 330.67ZM410.5 329.09L417.04 329.07C417.125 329.07 417.206 329.036 417.266 328.976C417.326 328.916 417.36 328.835 417.36 328.75V328.34C417.357 327.448 416.992 326.593 416.343 325.963C415.695 325.334 414.816 324.98 413.9 324.98H413.64C413.185 324.98 412.734 325.068 412.314 325.238C411.893 325.408 411.511 325.657 411.19 325.971C410.868 326.285 410.614 326.657 410.441 327.067C410.267 327.477 410.179 327.917 410.18 328.36V328.77C410.18 328.855 410.214 328.936 410.274 328.996C410.334 329.056 410.415 329.09 410.5 329.09Z" fill="#919297"/>
<path d="M426.93 324.72C435.66 320.5 434.41 330.92 434.24 335.63C434.22 336.117 433.97 336.327 433.49 336.26L433.04 336.2C432.906 336.18 432.784 336.112 432.699 336.008C432.614 335.904 432.571 335.773 432.58 335.64C432.78 332.71 434.29 323.73 428.43 325.37C426.95 325.783 426.193 326.653 426.16 327.98C426.087 330.567 426.057 333.14 426.07 335.7C426.07 336.093 425.873 336.28 425.48 336.26L424.9 336.23C424.786 336.225 424.678 336.177 424.598 336.095C424.518 336.013 424.472 335.904 424.47 335.79L424.3 324.41C424.293 323.997 424.47 323.89 424.83 324.09L425.99 324.7C426.303 324.867 426.617 324.873 426.93 324.72Z" fill="#919297"/>
<path d="M254.79 328.88C254.681 328.88 254.577 328.837 254.5 328.76C254.423 328.683 254.38 328.579 254.38 328.47V328.37C254.385 327.933 254.476 327.501 254.647 327.099C254.818 326.697 255.067 326.332 255.378 326.027C255.689 325.721 256.057 325.481 256.46 325.318C256.864 325.156 257.295 325.075 257.73 325.08H258.01C258.445 325.085 258.874 325.176 259.274 325.348C259.673 325.521 260.035 325.77 260.339 326.083C260.643 326.396 260.882 326.766 261.043 327.172C261.205 327.578 261.285 328.012 261.28 328.45V328.55C261.28 328.659 261.237 328.763 261.16 328.84C261.083 328.917 260.979 328.96 260.87 328.96L254.79 328.88Z" fill="white"/>
<path d="M372.07 328.91C371.998 328.91 371.93 328.882 371.879 328.831C371.829 328.78 371.8 328.712 371.8 328.64V328.45C371.805 328.004 371.9 327.562 372.078 327.152C372.256 326.741 372.514 326.369 372.839 326.057C373.163 325.745 373.546 325.499 373.967 325.333C374.387 325.167 374.837 325.085 375.29 325.09H375.49C376.405 325.101 377.278 325.469 377.918 326.114C378.557 326.759 378.911 327.628 378.9 328.53V328.72C378.9 328.792 378.872 328.86 378.821 328.911C378.77 328.962 378.702 328.99 378.63 328.99L372.07 328.91Z" fill="white"/>
<path d="M410.5 329.09C410.415 329.09 410.334 329.056 410.274 328.996C410.214 328.936 410.18 328.855 410.18 328.77V328.36C410.179 327.917 410.267 327.477 410.44 327.067C410.614 326.657 410.868 326.285 411.19 325.971C411.511 325.657 411.893 325.408 412.314 325.238C412.734 325.068 413.185 324.98 413.64 324.98H413.9C414.816 324.98 415.694 325.334 416.343 325.963C416.992 326.593 417.357 327.448 417.36 328.34V328.75C417.36 328.835 417.326 328.916 417.266 328.976C417.206 329.036 417.125 329.07 417.04 329.07L410.5 329.09Z" fill="white"/>
<path d="M355.364 329.713C355.248 332.356 356.868 334.573 358.981 334.666C361.094 334.758 362.901 332.69 363.016 330.047C363.132 327.404 361.512 325.187 359.399 325.095C357.286 325.002 355.479 327.07 355.364 329.713Z" fill="white"/>
<path d="M310.07 331.7C311.39 330.207 313.107 329.537 315.22 329.69C315.553 329.717 315.733 329.897 315.76 330.23C316 333.54 314.59 336.02 310.87 334.74C310.576 334.639 310.311 334.467 310.1 334.239C309.888 334.011 309.736 333.734 309.657 333.434C309.578 333.133 309.574 332.818 309.646 332.515C309.718 332.213 309.864 331.933 310.07 331.7Z" fill="white"/>
<path d="M346.68 332.54C345.667 334.707 344.013 335.417 341.72 334.67C341.372 334.556 341.061 334.351 340.821 334.075C340.58 333.799 340.419 333.463 340.354 333.104C340.289 332.744 340.323 332.375 340.453 332.034C340.583 331.693 340.803 331.395 341.09 331.17C342.01 330.45 343.167 329.973 344.56 329.74C344.918 329.683 345.284 329.724 345.621 329.858C345.957 329.993 346.25 330.217 346.468 330.505C346.686 330.793 346.821 331.135 346.859 331.493C346.896 331.852 346.834 332.214 346.68 332.54Z" fill="white"/>
</svg>
