<svg width="100" height="100" viewBox="0 0 100 100" fill="none" xmlns="http://www.w3.org/2000/svg">
<rect width="100" height="100" fill="white"/>
<g clip-path="url(#clip0_29_2585)">
<path d="M51.2259 42.0781C51.2258 42.0806 51.2265 42.0829 51.2278 42.0849C51.2292 42.0869 51.2312 42.0884 51.2334 42.0892C51.2357 42.09 51.2382 42.09 51.2405 42.0893C51.2428 42.0886 51.2448 42.0871 51.2462 42.0851C52.5968 40.3096 54.559 38.9077 56.7028 38.2677C61.6813 36.7814 66.8584 39.1504 69.2176 43.7109C69.225 43.7256 69.2326 43.7256 69.2403 43.7109C69.5103 43.1969 69.7571 42.7843 69.9806 42.4733C71.9306 39.762 75.0483 37.9302 78.4314 37.8347C84.5073 37.6641 89.3057 42.3992 89.3085 48.4537C89.3099 51.9544 89.3102 55.4549 89.3092 58.9553C89.3092 58.9606 89.3071 58.9658 89.3032 58.9696C89.2993 58.9734 89.2941 58.9755 89.2886 58.9755L87.2071 58.9794C87.2013 58.9794 87.1957 58.9771 87.1915 58.9729C87.1874 58.9688 87.1851 58.9632 87.1851 58.9574C87.1851 55.4101 87.1851 51.8588 87.1851 48.3034C87.1851 47.2794 86.9655 46.2128 86.5598 45.2504C85.7475 43.3244 84.4191 41.8734 82.5745 40.8975C80.472 39.7851 77.8862 39.6281 75.6788 40.538C72.4867 41.8536 70.2961 44.8702 70.2947 48.3751C70.2935 51.9018 70.2934 55.4265 70.2943 58.9493C70.2943 58.9532 70.2936 58.957 70.2921 58.9606C70.2906 58.9642 70.2884 58.9675 70.2856 58.9702C70.2828 58.9729 70.2796 58.9751 70.276 58.9766C70.2723 58.978 70.2685 58.9787 70.2646 58.9787L68.1887 58.9762C68.1757 58.9762 68.1691 58.9696 68.1691 58.9563C68.1701 55.4634 68.1698 51.9708 68.1684 48.4786C68.167 45.0444 66.1597 42.047 63.0507 40.6538C58.9595 38.8199 54.2978 40.6671 52.2306 44.5272C51.5767 45.7484 51.2703 47.0815 51.2703 48.48C51.2701 51.9729 51.2697 55.4657 51.2693 58.9584C51.2693 58.9708 51.2632 58.9769 51.2511 58.9769L49.1791 58.9787C49.1701 58.9787 49.1614 58.9751 49.1551 58.9687C49.1487 58.9622 49.1451 58.9535 49.1451 58.9444V54.7989C49.1451 54.797 49.1444 54.7951 49.1433 54.7936C49.1421 54.7921 49.1405 54.7909 49.1387 54.7903C49.1369 54.7897 49.1349 54.7897 49.133 54.7902C49.1312 54.7907 49.1296 54.7918 49.1283 54.7933C47.028 57.5907 43.6693 59.1081 40.1831 58.9626C36.2824 58.8 32.837 56.5653 31.1405 53.0581C31.1391 53.0552 31.137 53.0527 31.1342 53.051C31.1315 53.0493 31.1283 53.0485 31.1251 53.0485C31.1218 53.0485 31.1186 53.0495 31.1159 53.0512C31.1131 53.053 31.1109 53.0555 31.1094 53.0584C29.6801 56.0932 26.7912 58.2667 23.5088 58.8608C20.5694 59.3931 17.4881 58.636 15.144 56.7668C9.76158 52.474 9.63184 44.5782 14.9975 40.1914C19.015 36.9066 24.6978 37.0608 28.5733 40.4306C29.0034 40.8045 29.4283 41.2469 29.8435 41.6676C29.8614 41.6858 29.8614 41.704 29.8435 41.7221L16.4407 55.1245C16.4298 55.1357 16.4306 55.146 16.4432 55.1553C17.919 56.2268 19.6591 56.8454 21.485 56.8678C22.5254 56.8808 23.6063 56.6692 24.6142 56.3079C27.7392 55.1868 30.0673 52.0789 30.0956 48.7304C30.0972 48.5327 30.0994 48.335 30.1022 48.1373C30.1204 46.8709 30.3579 45.62 30.8342 44.4478C31.9246 41.7641 33.7945 39.8392 36.4439 38.673C37.6613 38.1369 39 37.8676 40.339 37.8337C42.3221 37.7833 44.1566 38.2423 45.8424 39.2105C47.1074 39.9372 48.1911 40.8514 49.0839 42.0124C49.0853 42.014 49.0871 42.0152 49.0891 42.0158C49.0911 42.0164 49.0932 42.0163 49.0952 42.0157C49.0971 42.015 49.0988 42.0138 49.1 42.0121C49.1012 42.0105 49.1018 42.0085 49.1018 42.0065L49.1011 34.0439C49.1011 34.0392 49.1029 34.0348 49.1063 34.0315C49.1096 34.0282 49.1142 34.0264 49.1189 34.0264H51.1997C51.2066 34.0264 51.2133 34.0291 51.2182 34.034C51.2232 34.039 51.2259 34.0456 51.2259 34.0526V42.0781ZM32.5397 50.7122C33.7053 54.6027 37.4511 57.2308 41.5392 56.8042C45.0395 56.4391 48.067 53.7627 48.8762 50.3516C49.8494 46.2506 47.6683 42.2799 43.9232 40.623C41.9606 39.7547 39.6263 39.7253 37.635 40.5219C35.4291 41.4042 33.7113 43.1056 32.8118 45.3049C32.1197 46.9968 32.0141 48.9577 32.5397 50.7122ZM15.1797 42.9717C14.0064 44.3604 13.3514 46.1359 13.2153 47.9456C13.0646 49.9558 13.7347 51.9729 14.8982 53.6085C14.9124 53.6286 14.9281 53.63 14.9454 53.6127L26.8489 41.7092C26.8507 41.7074 26.8521 41.7052 26.853 41.7028C26.8538 41.7004 26.8542 41.6978 26.854 41.6953C26.8538 41.6927 26.853 41.6902 26.8518 41.688C26.8506 41.6857 26.8488 41.6838 26.8468 41.6823C25.3906 40.6366 23.5367 39.9564 21.7452 39.9631C19.2661 39.9725 16.7992 41.0552 15.1797 42.9717Z" fill="#13A89E"/>
<path d="M41.3031 65.0422L41.3024 65.2237C41.3024 65.2298 41.2999 65.2357 41.2956 65.24C41.2913 65.2443 41.2854 65.2468 41.2793 65.2468H39.131C39.1249 65.2468 39.119 65.2443 39.1147 65.24C39.1103 65.2357 39.1079 65.2298 39.1079 65.2237L39.1083 61.431C39.1083 61.4249 39.1107 61.419 39.115 61.4147C39.1193 61.4104 39.1252 61.408 39.1313 61.408L41.18 61.409C41.183 61.409 41.1861 61.4096 41.189 61.4108C41.1918 61.412 41.1944 61.4138 41.1965 61.416C41.1987 61.4182 41.2004 61.4209 41.2015 61.4237C41.2026 61.4266 41.2031 61.4297 41.203 61.4328L41.1964 61.6062C41.1962 61.6122 41.1937 61.6179 41.1894 61.6221C41.1851 61.6263 41.1793 61.6286 41.1733 61.6286L39.3587 61.6269C39.3525 61.6269 39.3467 61.6293 39.3423 61.6336C39.338 61.638 39.3356 61.6438 39.3356 61.65V63.1866C39.3356 63.1927 39.338 63.1986 39.3423 63.2029C39.3467 63.2072 39.3525 63.2097 39.3587 63.2097H40.8509C40.857 63.2097 40.8629 63.2121 40.8672 63.2164C40.8715 63.2208 40.874 63.2266 40.874 63.2328L40.8747 63.4055C40.8747 63.4116 40.8722 63.4175 40.8679 63.4218C40.8636 63.4262 40.8577 63.4286 40.8516 63.4286L39.3587 63.4279C39.3525 63.4279 39.3467 63.4303 39.3423 63.4347C39.338 63.439 39.3356 63.4449 39.3356 63.451V64.9967C39.3356 65.0028 39.338 65.0087 39.3423 65.013C39.3467 65.0174 39.3525 65.0198 39.3587 65.0198L41.28 65.0191C41.2861 65.0191 41.292 65.0215 41.2963 65.0258C41.3006 65.0302 41.3031 65.036 41.3031 65.0422Z" fill="black"/>
<path d="M52.5539 61.4081L52.3119 61.4073C52.3014 61.4073 52.2929 61.4157 52.2929 61.4261L52.2917 61.7828C52.2916 61.7932 52.3 61.8017 52.3105 61.8018L52.5525 61.8026C52.5629 61.8026 52.5714 61.7942 52.5714 61.7838L52.5727 61.4271C52.5727 61.4167 52.5643 61.4082 52.5539 61.4081Z" fill="black"/>
<path d="M56.8966 61.408L56.6581 61.4084C56.6471 61.4084 56.6382 61.4174 56.6382 61.4284L56.6388 61.7837C56.6389 61.7947 56.6478 61.8036 56.6588 61.8036L56.8973 61.8032C56.9083 61.8032 56.9172 61.7942 56.9172 61.7832L56.9166 61.4279C56.9166 61.4169 56.9076 61.408 56.8966 61.408Z" fill="black"/>
<path d="M62.976 65.2739C62.6477 65.3291 62.3651 65.1127 62.3647 64.7745C62.3636 63.658 62.3635 62.5406 62.3644 61.4225C62.3644 61.42 62.3649 61.4176 62.3658 61.4154C62.3668 61.4131 62.3682 61.4111 62.37 61.4094C62.3717 61.4077 62.3738 61.4064 62.3761 61.4055C62.3784 61.4046 62.3808 61.4042 62.3833 61.4043L62.5683 61.411C62.5745 61.4111 62.5803 61.4137 62.5846 61.4182C62.5889 61.4226 62.5914 61.4285 62.5914 61.4347C62.5916 62.496 62.5915 63.5569 62.591 64.6175C62.5907 64.8598 62.6742 65.0959 62.9708 65.0522C62.9859 65.0498 62.9935 65.0564 62.9935 65.0717V65.2532C62.9935 65.2649 62.9877 65.2718 62.976 65.2739Z" fill="black"/>
<path d="M32.3312 63.6665C32.0147 63.6609 31.7164 63.6665 31.4066 63.6641C31.4042 63.664 31.4019 63.6644 31.3997 63.6653C31.3974 63.6662 31.3954 63.6675 31.3937 63.6692C31.3921 63.6708 31.3907 63.6728 31.3898 63.675C31.3889 63.6772 31.3884 63.6795 31.3884 63.6819V65.2206C31.3884 65.2276 31.3856 65.2343 31.3807 65.2392C31.3758 65.2441 31.3691 65.2469 31.3622 65.2469H31.1698C31.1582 65.2469 31.1523 65.241 31.1523 65.2294V61.4266C31.1523 61.4152 31.1581 61.4095 31.1695 61.4095C31.5516 61.4081 31.933 61.4078 32.3137 61.4088C32.5254 61.4092 32.6876 61.4258 32.8002 61.4584C33.3583 61.62 33.6584 62.1578 33.5507 62.7541C33.4374 63.3815 32.9481 63.677 32.3312 63.6665ZM31.3898 61.6511L31.3835 63.4137C31.3835 63.4173 31.3841 63.4209 31.3855 63.4243C31.3869 63.4277 31.3889 63.4308 31.3915 63.4334C31.394 63.436 31.3971 63.4381 31.4005 63.4395C31.4039 63.4409 31.4075 63.4416 31.4111 63.4416L32.4403 63.4451C32.6725 63.4459 32.8955 63.3566 33.0603 63.1968C33.225 63.0371 33.318 62.82 33.3188 62.5932L33.3195 62.4855C33.3199 62.3732 33.2977 62.2619 33.254 62.158C33.2104 62.0541 33.1462 61.9596 33.0651 61.8799C32.984 61.8002 32.8877 61.7369 32.7816 61.6935C32.6755 61.6502 32.5616 61.6277 32.4466 61.6273L31.4174 61.6238C31.4102 61.6238 31.4032 61.6267 31.398 61.6318C31.3928 61.6369 31.3899 61.6438 31.3898 61.6511Z" fill="black"/>
<path d="M33.8311 61.6021L33.8339 61.4339C33.8339 61.4272 33.8367 61.4208 33.8415 61.416C33.8462 61.4113 33.8527 61.4087 33.8594 61.4087H36.8973C36.9041 61.4087 36.9106 61.4114 36.9154 61.4162C36.9202 61.421 36.9229 61.4274 36.9229 61.4342V61.6028C36.9229 61.6096 36.9202 61.616 36.9154 61.6208C36.9106 61.6256 36.9041 61.6283 36.8973 61.6283L35.5233 61.6266C35.5165 61.6266 35.51 61.6293 35.5053 61.634C35.5005 61.6388 35.4978 61.6453 35.4978 61.6521V65.2213C35.4978 65.228 35.4951 65.2345 35.4903 65.2393C35.4855 65.2441 35.479 65.2468 35.4723 65.2468H35.2873C35.2805 65.2468 35.274 65.2441 35.2692 65.2393C35.2644 65.2345 35.2617 65.228 35.2617 65.2213V61.6524C35.2617 61.6457 35.259 61.6392 35.2543 61.6344C35.2495 61.6296 35.243 61.6269 35.2362 61.6269L33.8566 61.628C33.8532 61.628 33.8499 61.6273 33.8467 61.626C33.8436 61.6247 33.8408 61.6228 33.8384 61.6204C33.836 61.618 33.8342 61.6151 33.8329 61.612C33.8316 61.6088 33.831 61.6055 33.8311 61.6021Z" fill="black"/>
<path d="M48.3931 61.4321C48.3931 61.425 48.3959 61.4183 48.4009 61.4133C48.4058 61.4083 48.4126 61.4055 48.4196 61.4055H49.7244C49.958 61.4055 50.1894 61.4515 50.4052 61.5409C50.621 61.6303 50.8172 61.7614 50.9824 61.9266C51.1475 62.0918 51.2786 62.2879 51.368 62.5037C51.4574 62.7196 51.5034 62.9509 51.5034 63.1845V63.4699C51.5034 63.7035 51.4574 63.9348 51.368 64.1507C51.2786 64.3665 51.1475 64.5626 50.9824 64.7278C50.8172 64.893 50.621 65.024 50.4052 65.1134C50.1894 65.2028 49.958 65.2489 49.7244 65.2489H48.4196C48.4126 65.2489 48.4058 65.2461 48.4009 65.2411C48.3959 65.2361 48.3931 65.2293 48.3931 65.2223V61.4321ZM50.9124 62.2137C50.3557 61.5101 49.4468 61.6153 48.6613 61.6286C48.6527 61.6288 48.6445 61.6324 48.6385 61.6385C48.6325 61.6447 48.6291 61.6529 48.6291 61.6615V65.002C48.6291 65.0053 48.6298 65.0086 48.6311 65.0116C48.6323 65.0147 48.6342 65.0175 48.6365 65.0198C48.6389 65.0221 48.6417 65.0239 48.6447 65.0251C48.6478 65.0263 48.651 65.0269 48.6543 65.0268C49.0932 65.0184 49.6415 65.066 50.0416 64.9764C50.5469 64.8631 50.9526 64.5452 51.1355 64.0469C51.3453 63.4762 51.2964 62.6991 50.9124 62.2137Z" fill="black"/>
<path d="M68.339 61.8728C68.3388 61.8719 68.3385 61.8711 68.3379 61.8705C68.3373 61.8699 68.3365 61.8696 68.3357 61.8694C68.3348 61.8693 68.334 61.8695 68.3333 61.8699C68.3325 61.8703 68.3319 61.8709 68.3316 61.8717C68.2803 62.0174 68.2224 62.1603 68.1578 62.3005C67.8209 63.0325 67.4818 63.7634 67.1405 64.4932C67.1344 64.5062 67.1243 64.5126 67.1101 64.5124L66.8974 64.512C66.8841 64.512 66.8747 64.506 66.8691 64.4939C66.5436 63.7951 66.2198 63.0958 65.8976 62.3959C65.8172 62.2215 65.7436 62.0437 65.6769 61.8623C65.6759 61.859 65.6737 61.8562 65.6707 61.8544C65.6677 61.8526 65.6642 61.8519 65.6608 61.8525C65.6574 61.8531 65.6543 61.8549 65.6522 61.8576C65.65 61.8603 65.6488 61.8637 65.649 61.8672C65.6479 62.035 65.6462 62.2018 65.6322 62.3742C65.5555 63.3245 65.4796 64.2748 65.4045 65.2251C65.4033 65.2396 65.3955 65.2468 65.3811 65.2468H65.1824C65.1668 65.2468 65.1596 65.239 65.1608 65.2234L65.4619 61.4293C65.463 61.4156 65.4705 61.4087 65.4842 61.4087H65.6797C65.6879 61.4087 65.6958 61.411 65.7026 61.4153C65.7094 61.4197 65.7149 61.4259 65.7182 61.4332L66.9961 64.2162C66.9968 64.2178 66.998 64.2192 66.9995 64.2202C67.0011 64.2211 67.0028 64.2217 67.0046 64.2217C67.0064 64.2217 67.0082 64.2211 67.0097 64.2202C67.0112 64.2192 67.0124 64.2178 67.0132 64.2162L68.2935 61.4293C68.2998 61.4156 68.3105 61.4087 68.3257 61.4087H68.5191C68.5261 61.4087 68.5328 61.4113 68.538 61.4161C68.5432 61.4209 68.5464 61.4275 68.547 61.4346L68.8481 65.2255C68.8491 65.2397 68.8424 65.2468 68.8282 65.2468H68.6271C68.612 65.2468 68.6038 65.2392 68.6026 65.2241L68.339 61.8728Z" fill="black"/>
<path d="M74.795 64.7841C74.7949 64.7814 74.7939 64.7788 74.7922 64.7767C74.7905 64.7745 74.7882 64.773 74.7855 64.7724C74.7829 64.7717 74.7801 64.7719 74.7776 64.7729C74.7751 64.774 74.773 64.7758 74.7716 64.7782C74.4474 65.3423 73.6934 65.4779 73.1741 65.1349C72.4963 64.6869 72.461 63.4709 72.9279 62.874C73.4042 62.2651 74.3666 62.284 74.7688 62.9799C74.7703 62.9828 74.7727 62.985 74.7757 62.9862C74.7786 62.9875 74.7819 62.9878 74.785 62.987C74.7881 62.9862 74.7908 62.9843 74.7927 62.9818C74.7947 62.9793 74.7957 62.9762 74.7957 62.973L74.7961 61.4262C74.7961 61.4145 74.8019 61.4087 74.8135 61.4087H74.9887C75.0142 61.4087 75.0266 61.4214 75.0262 61.4468C75.0152 62.4607 75.0116 63.4581 75.0153 64.4389C75.0164 64.7002 75.0101 64.9632 75.0244 65.2261C75.0246 65.2288 75.0242 65.2315 75.0232 65.234C75.0223 65.2365 75.0209 65.2387 75.0191 65.2407C75.0172 65.2426 75.015 65.2442 75.0126 65.2452C75.0101 65.2462 75.0075 65.2468 75.0048 65.2468H74.8139C74.8025 65.2468 74.7968 65.2411 74.7968 65.2296L74.795 64.7841ZM73.2832 62.8551C72.6282 63.358 72.7107 64.9341 73.6777 65.0831C74.8957 65.2709 75.1115 63.4293 74.3701 62.8443C74.0568 62.5967 73.5997 62.6121 73.2832 62.8551Z" fill="black"/>
<path d="M76.2087 61.4079L75.9779 61.4091C75.9669 61.4091 75.9581 61.4181 75.9581 61.4291L75.96 61.7872C75.96 61.7982 75.969 61.8071 75.98 61.807L76.2108 61.8058C76.2218 61.8058 76.2307 61.7968 76.2307 61.7858L76.2288 61.4277C76.2287 61.4167 76.2198 61.4078 76.2087 61.4079Z" fill="black"/>
<path d="M81.0581 61.6052L81.0494 61.4349C81.0492 61.4315 81.0497 61.4282 81.0508 61.425C81.052 61.4218 81.0538 61.4189 81.0561 61.4165C81.0584 61.414 81.0612 61.412 81.0643 61.4107C81.0675 61.4094 81.0708 61.4087 81.0742 61.4087H84.1188C84.1221 61.4087 84.1253 61.4093 84.1284 61.4106C84.1314 61.4119 84.1342 61.4137 84.1365 61.4161C84.1388 61.4184 84.1406 61.4212 84.1418 61.4243C84.143 61.4273 84.1437 61.4306 84.1436 61.4339L84.1415 61.6038C84.1414 61.6104 84.1388 61.6166 84.1341 61.6212C84.1295 61.6257 84.1232 61.6283 84.1167 61.6283L82.7413 61.6266C82.7347 61.6266 82.7284 61.6292 82.7237 61.6338C82.719 61.6385 82.7164 61.6448 82.7164 61.6514L82.7175 65.222C82.7175 65.2285 82.7149 65.2349 82.7102 65.2395C82.7056 65.2442 82.6992 65.2468 82.6927 65.2468H82.5059C82.5026 65.2468 82.4994 65.2461 82.4964 65.2449C82.4934 65.2436 82.4907 65.2418 82.4884 65.2395C82.486 65.2372 82.4842 65.2345 82.483 65.2315C82.4817 65.2284 82.4811 65.2252 82.4811 65.222V61.6514C82.4811 61.6448 82.4785 61.6385 82.4738 61.6338C82.4691 61.6292 82.4628 61.6266 82.4562 61.6266L81.0829 61.6287C81.0766 61.6287 81.0705 61.6262 81.0658 61.6219C81.0612 61.6175 81.0585 61.6116 81.0581 61.6052Z" fill="black"/>
<path d="M84.8855 64.7754V65.222C84.8855 65.2404 84.8763 65.2493 84.8579 65.2489L84.6802 65.2457C84.6744 65.2456 84.6688 65.2432 84.6646 65.239C84.6605 65.2347 84.6582 65.229 84.6582 65.223V61.4349C84.6582 61.428 84.661 61.4213 84.6659 61.4164C84.6708 61.4115 84.6775 61.4087 84.6844 61.4087H84.8677C84.8793 61.4087 84.8852 61.4145 84.8852 61.4262L84.8862 62.9737C84.8863 62.9758 84.887 62.9779 84.8883 62.9796C84.8896 62.9813 84.8915 62.9826 84.8935 62.9832C84.8955 62.9838 84.8977 62.9838 84.8996 62.9831C84.9016 62.9824 84.9033 62.981 84.9044 62.9792C85.1252 62.6403 85.4202 62.4605 85.7895 62.44C86.5225 62.3994 87.0009 62.9338 87.0499 63.6406C87.0981 64.3393 86.8957 65.1366 86.0829 65.294C85.5968 65.3884 85.1579 65.2031 84.9107 64.7687C84.9091 64.7663 84.9069 64.7644 84.9042 64.7633C84.9014 64.7622 84.8985 64.762 84.8957 64.7628C84.8928 64.7635 84.8903 64.7652 84.8885 64.7674C84.8867 64.7697 84.8856 64.7725 84.8855 64.7754ZM85.7909 62.6673C84.5697 62.7491 84.6043 64.9628 85.7315 65.0856C87.1639 65.2419 87.1919 62.5732 85.7909 62.6673Z" fill="black"/>
<path d="M88.5466 63.5877L89.4209 62.5169C89.4226 62.5149 89.4246 62.5132 89.427 62.5121C89.4293 62.5109 89.4319 62.5103 89.4346 62.5103H89.7028C89.7062 62.5103 89.7095 62.5112 89.7124 62.5131C89.7153 62.5149 89.7176 62.5175 89.719 62.5206C89.7204 62.5237 89.721 62.5271 89.7205 62.5305C89.72 62.5339 89.7186 62.5371 89.7164 62.5397L88.7572 63.6892C88.7546 63.6922 88.7531 63.6959 88.753 63.6998C88.7528 63.7037 88.7539 63.7076 88.7561 63.7108L89.8157 65.2206C89.8177 65.2233 89.8189 65.2265 89.8191 65.2298C89.8193 65.2331 89.8186 65.2365 89.8171 65.2394C89.8155 65.2424 89.8131 65.2448 89.8102 65.2465C89.8074 65.2482 89.804 65.249 89.8007 65.2489L89.5384 65.2454C89.5356 65.2453 89.5328 65.2446 89.5303 65.2433C89.5278 65.2419 89.5257 65.24 89.5241 65.2377L88.548 63.8207C88.5464 63.8183 88.5442 63.8163 88.5416 63.815C88.5391 63.8137 88.5362 63.813 88.5333 63.813H88.077C88.0746 63.813 88.0723 63.8134 88.0701 63.8143C88.068 63.8152 88.066 63.8165 88.0644 63.8182C88.0627 63.8198 88.0614 63.8218 88.0605 63.824C88.0596 63.8261 88.0591 63.8285 88.0591 63.8308V65.2289C88.0591 65.2337 88.0573 65.2382 88.0539 65.2416C88.0506 65.2449 88.046 65.2468 88.0413 65.2468H87.8504C87.8456 65.2468 87.8411 65.2449 87.8377 65.2416C87.8344 65.2382 87.8325 65.2337 87.8325 65.2289L87.8329 61.4265C87.8329 61.4218 87.8348 61.4173 87.8381 61.4139C87.8414 61.4106 87.846 61.4087 87.8507 61.4087H88.0413C88.046 61.4087 88.0506 61.4106 88.0539 61.4139C88.0573 61.4173 88.0591 61.4218 88.0591 61.4265V63.5766C88.0591 63.5789 88.0596 63.5812 88.0605 63.5834C88.0614 63.5855 88.0627 63.5875 88.0644 63.5892C88.066 63.5908 88.068 63.5921 88.0701 63.593C88.0723 63.5939 88.0746 63.5944 88.077 63.5944H88.533C88.5356 63.5944 88.5382 63.5937 88.5406 63.5926C88.5429 63.5914 88.545 63.5898 88.5466 63.5877Z" fill="black"/>
<path d="M57.5751 62.7394C57.5721 62.7393 57.5691 62.7387 57.5664 62.7375C57.5636 62.7363 57.5611 62.7345 57.559 62.7324C57.5569 62.7302 57.5553 62.7276 57.5542 62.7248C57.5532 62.722 57.5527 62.719 57.5527 62.716L57.5569 62.5432C57.557 62.5408 57.5575 62.5384 57.5585 62.5362C57.5594 62.534 57.5608 62.532 57.5625 62.5303C57.5643 62.5287 57.5663 62.5274 57.5685 62.5265C57.5707 62.5257 57.5731 62.5253 57.5755 62.5254L57.8839 62.5345C57.889 62.5347 57.894 62.5338 57.8987 62.532C57.9034 62.5302 57.9077 62.5274 57.9113 62.5239C57.9149 62.5204 57.9178 62.5162 57.9198 62.5115C57.9217 62.5068 57.9227 62.5018 57.9227 62.4967V61.7749C57.9227 61.7623 57.9289 61.7561 57.9413 61.7564L58.1249 61.7592C58.1363 61.7594 58.1421 61.7653 58.1424 61.777L58.1438 62.51C58.1438 62.5162 58.1462 62.5222 58.1506 62.5266C58.155 62.5309 58.161 62.5334 58.1672 62.5334L58.8453 62.5366C58.8597 62.5366 58.867 62.5439 58.867 62.5586V62.7184C58.867 62.7347 58.8588 62.7429 58.8425 62.7429L58.1826 62.7383C58.1773 62.7383 58.1721 62.7393 58.1673 62.7413C58.1624 62.7433 58.158 62.7462 58.1543 62.7499C58.1506 62.7536 58.1476 62.758 58.1456 62.7629C58.1437 62.7678 58.1427 62.773 58.1427 62.7782C58.1457 63.2109 58.145 63.6491 58.1406 64.0928C58.1361 64.5701 58.2599 65.1444 58.8984 65.0545C58.901 65.0541 58.9037 65.0542 58.9062 65.055C58.9087 65.0557 58.911 65.0569 58.913 65.0586C58.915 65.0603 58.9166 65.0624 58.9177 65.0648C58.9188 65.0671 58.9194 65.0697 58.9194 65.0723V65.2465C58.9194 65.2562 58.9157 65.2656 58.909 65.2726C58.9023 65.2796 58.8931 65.2838 58.8834 65.2843C58.1361 65.3168 57.9231 64.8489 57.9203 64.2152C57.9182 63.7365 57.9199 63.2559 57.9255 62.7733C57.9256 62.7658 57.9227 62.7585 57.9175 62.7531C57.9123 62.7476 57.9051 62.7445 57.8976 62.7443L57.5751 62.7394Z" fill="black"/>
<path d="M71.9049 65.0255C71.0711 65.6183 69.7947 65.2696 69.6345 64.1649C69.4922 63.1815 70.1276 62.2554 71.2205 62.466C71.837 62.5849 72.1084 63.2665 72.043 63.8312C72.0425 63.8359 72.0403 63.8401 72.0369 63.8432C72.0335 63.8463 72.029 63.848 72.0245 63.848H69.8737C69.8697 63.848 69.8657 63.8496 69.8629 63.8525C69.86 63.8554 69.8584 63.8593 69.8584 63.8634C69.8608 64.9674 71.0365 65.4854 71.8549 64.7622C71.8658 64.7524 71.8757 64.7534 71.8846 64.7653C71.9598 64.8646 72.0461 64.9251 71.9049 65.0255ZM71.8073 63.6022C71.8139 62.9038 71.1547 62.4401 70.5106 62.7478C70.1483 62.9208 69.9379 63.2068 69.8793 63.6057C69.8789 63.6086 69.8791 63.6116 69.8799 63.6144C69.8807 63.6173 69.8822 63.6199 69.8841 63.6222C69.8861 63.6244 69.8885 63.6263 69.8912 63.6275C69.894 63.6288 69.897 63.6294 69.9 63.6295H71.7797C71.7869 63.6295 71.7939 63.6266 71.7991 63.6215C71.8043 63.6164 71.8072 63.6094 71.8073 63.6022Z" fill="black"/>
<path d="M45.5865 64.7316C45.5864 64.7292 45.5856 64.7268 45.584 64.7248C45.5825 64.7229 45.5804 64.7215 45.578 64.7209C45.5756 64.7203 45.5731 64.7206 45.5708 64.7215C45.5685 64.7225 45.5667 64.7242 45.5655 64.7264C45.3738 65.1006 45.0684 65.2993 44.6492 65.3226C44.4174 65.3359 44.1107 65.2289 43.9411 65.0698C43.6078 64.7579 43.6435 64.1668 44.0079 63.886C44.3985 63.5849 45.0552 63.5545 45.5372 63.58C45.57 63.5817 45.5863 63.5662 45.5861 63.5335C45.5859 63.461 45.5802 63.3796 45.569 63.2894C45.4679 62.483 44.5636 62.5662 44.0705 62.9191C44.0576 62.9282 44.0468 62.9263 44.0379 62.9135L43.9376 62.769C43.9337 62.7635 43.9311 62.7572 43.9298 62.7506C43.9284 62.744 43.9285 62.7372 43.9298 62.7306C43.9312 62.7241 43.9339 62.7178 43.9378 62.7124C43.9416 62.7069 43.9465 62.7022 43.9523 62.6987C44.616 62.2857 45.7823 62.2731 45.8092 63.3394C45.8169 63.6385 45.8176 64.2671 45.8113 65.2251C45.8111 65.2395 45.8037 65.2468 45.7893 65.2468H45.6127C45.5952 65.2468 45.5865 65.238 45.5865 65.2205V64.7316ZM44.0316 64.7785C44.2813 65.1779 44.837 65.1831 45.178 64.8963C45.4781 64.6438 45.5984 64.2099 45.5851 63.8234C45.5844 63.8057 45.5752 63.7966 45.5574 63.7961C45.1406 63.7853 44.4821 63.7839 44.1463 64.0735C43.9435 64.2483 43.8939 64.5582 44.0316 64.7785Z" fill="black"/>
<path d="M55.4175 62.872C55.4202 62.8759 55.4241 62.8789 55.4286 62.8805C55.4331 62.8821 55.438 62.8822 55.4426 62.8808C55.4472 62.8794 55.4512 62.8766 55.454 62.8727C55.4569 62.8688 55.4584 62.8642 55.4584 62.8594L55.4542 62.5338C55.454 62.5182 55.4617 62.5104 55.4773 62.5104H55.656C55.6695 62.5104 55.6763 62.517 55.6763 62.5303C55.6753 63.3892 55.6752 64.2477 55.6759 65.1059C55.6761 65.3519 55.6594 65.5317 55.6256 65.6452C55.3664 66.5167 54.2694 66.5289 53.5993 66.2121C53.5952 66.2102 53.5915 66.2074 53.5884 66.204C53.5854 66.2006 53.5831 66.1966 53.5817 66.1922C53.5802 66.1879 53.5797 66.1833 53.5801 66.1787C53.5805 66.1741 53.5818 66.1696 53.5839 66.1656L53.6696 66.0012C53.6754 65.99 53.6841 65.9871 53.6955 65.9925C54.1456 66.2005 54.6904 66.2859 55.1083 65.983C55.515 65.6882 55.4385 65.2304 55.4591 64.78C55.4593 64.7766 55.4584 64.7733 55.4565 64.7705C55.4546 64.7678 55.4517 64.7657 55.4485 64.7648C55.4452 64.7638 55.4417 64.764 55.4385 64.7652C55.4353 64.7664 55.4326 64.7687 55.4308 64.7716C55.2031 65.151 54.8303 65.2902 54.3928 65.2378C53.4468 65.1252 53.193 64.0946 53.4119 63.2895C53.5969 62.6086 54.241 62.2935 54.8968 62.4915C55.1202 62.559 55.293 62.6817 55.4175 62.872ZM53.621 63.4483C53.4692 64.182 53.7654 65.1479 54.709 65.0171C55.4448 64.9153 55.521 64.0057 55.4217 63.4458C55.3594 63.0947 55.1723 62.7971 54.8097 62.7048C54.1994 62.5495 53.7462 62.8429 53.621 63.4483Z" fill="black"/>
<path d="M61.2272 64.7313C61.2272 64.7284 61.2263 64.7257 61.2246 64.7235C61.2228 64.7213 61.2204 64.7198 61.2176 64.7191C61.2148 64.7185 61.2119 64.7188 61.2092 64.72C61.2066 64.7211 61.2044 64.7232 61.2031 64.7257C60.9951 65.1344 60.6596 65.3321 60.1966 65.3188C59.728 65.3055 59.3213 64.9617 59.3517 64.4704C59.4066 63.5821 60.568 63.5541 61.1975 63.5793C61.2015 63.5795 61.2055 63.5788 61.2092 63.5773C61.2129 63.5759 61.2163 63.5737 61.2192 63.5709C61.222 63.568 61.2243 63.5647 61.2258 63.561C61.2273 63.5572 61.228 63.5533 61.2279 63.5493C61.2195 63.2286 61.1748 62.9131 60.8852 62.7579C60.5351 62.5697 60.0354 62.683 59.7112 62.9173C59.7084 62.9193 59.7052 62.9207 59.7018 62.9215C59.6985 62.9222 59.695 62.9223 59.6916 62.9216C59.6882 62.921 59.685 62.9197 59.6821 62.9178C59.6792 62.916 59.6768 62.9135 59.6748 62.9107L59.5776 62.7676C59.5587 62.7399 59.5635 62.7173 59.592 62.6998C60.3208 62.2483 61.45 62.2983 61.4538 63.422C61.4559 64.0221 61.4558 64.6225 61.4535 65.2233C61.4535 65.2389 61.4455 65.2468 61.4297 65.2468H61.2534C61.236 65.2468 61.2272 65.238 61.2272 65.2205V64.7313ZM59.5993 64.5533C59.6231 64.8117 59.8273 65.017 60.0746 65.0722C60.831 65.2408 61.2615 64.4844 61.2202 63.8343C61.2186 63.8098 61.2055 63.7972 61.181 63.7965C60.6967 63.7836 59.529 63.7801 59.5993 64.5533Z" fill="black"/>
<path d="M78.8232 64.7324C78.7763 64.7936 78.7249 64.8811 78.6924 64.9227C78.3616 65.3493 77.7776 65.4392 77.3173 65.1657C77.1313 65.0552 77.0202 64.8907 76.9841 64.6723C76.8103 63.6207 78.1126 63.548 78.8012 63.5808C78.8055 63.581 78.8098 63.5803 78.8139 63.5789C78.818 63.5774 78.8217 63.5751 78.8248 63.5722C78.828 63.5692 78.8305 63.5657 78.8323 63.5618C78.8341 63.5579 78.835 63.5536 78.8351 63.5494C78.8452 63.1367 78.7267 62.7506 78.2588 62.6824C77.92 62.6328 77.6076 62.7121 77.3215 62.9206C77.3192 62.9223 77.3165 62.9235 77.3137 62.9242C77.3108 62.9249 77.3079 62.925 77.305 62.9245C77.3022 62.924 77.2994 62.9229 77.297 62.9214C77.2945 62.9198 77.2924 62.9177 77.2908 62.9153L77.1907 62.7667C77.1868 62.7609 77.1841 62.7544 77.1828 62.7475C77.1816 62.7406 77.1817 62.7336 77.1832 62.7267C77.1848 62.7199 77.1877 62.7134 77.1918 62.7077C77.1959 62.702 77.2011 62.6972 77.2072 62.6936C77.7447 62.3726 78.7473 62.2313 79.004 63.0129C79.0411 63.1257 79.0602 63.3196 79.0614 63.5945C79.0639 64.1368 79.064 64.6797 79.0617 65.2234C79.0617 65.239 79.0539 65.2469 79.0383 65.2469H78.8606C78.8571 65.2469 78.8535 65.2461 78.8502 65.2448C78.8469 65.2434 78.844 65.2414 78.8415 65.2388C78.839 65.2363 78.837 65.2333 78.8356 65.23C78.8343 65.2267 78.8336 65.2231 78.8337 65.2196L78.84 64.7384C78.8402 64.7197 78.8346 64.7177 78.8232 64.7324ZM77.4257 64.943C77.795 65.2056 78.3123 65.1227 78.5788 64.737C78.755 64.4817 78.8413 64.183 78.8375 63.841C78.8374 63.8307 78.8333 63.8207 78.8261 63.8132C78.8189 63.8057 78.8091 63.8011 78.7987 63.8004C78.3395 63.7742 77.2082 63.7816 77.2075 64.4894C77.2072 64.6635 77.2845 64.8426 77.4257 64.943Z" fill="black"/>
<path d="M42.3132 63.1148C42.313 63.1187 42.3142 63.1226 42.3167 63.1257C42.3191 63.1288 42.3226 63.1309 42.3265 63.1316C42.3304 63.1323 42.3344 63.1315 42.3377 63.1295C42.3411 63.1274 42.3436 63.1241 42.3447 63.1204C42.4965 62.7011 42.8378 62.4503 43.29 62.4748C43.3033 62.4755 43.3159 62.4813 43.325 62.491C43.3342 62.5007 43.3393 62.5135 43.3393 62.5269V62.7032C43.3393 62.7063 43.3387 62.7094 43.3374 62.7122C43.3361 62.7151 43.3343 62.7177 43.3319 62.7198C43.3296 62.7219 43.3268 62.7235 43.3238 62.7245C43.3208 62.7255 43.3176 62.7258 43.3145 62.7255C42.628 62.6514 42.3388 63.3914 42.3283 63.9558C42.3201 64.3785 42.3151 64.8015 42.3132 65.2249C42.3132 65.2308 42.3108 65.2364 42.3067 65.2405C42.3025 65.2446 42.297 65.247 42.2912 65.247H42.1069C42.0953 65.247 42.0894 65.2411 42.0894 65.2295L42.0884 62.5293C42.0884 62.5168 42.0947 62.5105 42.1073 62.5105H42.2933C42.3087 62.5105 42.3163 62.5182 42.316 62.5335L42.3132 63.1148Z" fill="black"/>
<path d="M52.5188 62.51H52.3286C52.3184 62.51 52.3101 62.5183 52.3101 62.5285V65.2283C52.3101 65.2386 52.3184 65.2469 52.3286 65.2469H52.5188C52.5291 65.2469 52.5374 65.2386 52.5374 65.2283V62.5285C52.5374 62.5183 52.5291 62.51 52.5188 62.51Z" fill="black"/>
<path d="M56.8675 62.5107H56.6703C56.662 62.5107 56.6553 62.5175 56.6553 62.5258V65.2319C56.6553 65.2402 56.662 65.2469 56.6703 65.2469H56.8675C56.8759 65.2469 56.8826 65.2402 56.8826 65.2319V62.5258C56.8826 62.5175 56.8759 62.5107 56.8675 62.5107Z" fill="black"/>
<path d="M76.186 62.5107H75.9769C75.9718 62.5107 75.9678 62.5148 75.9678 62.5198V65.2378C75.9678 65.2428 75.9718 65.2469 75.9769 65.2469H76.186C76.191 65.2469 76.1951 65.2428 76.1951 65.2378V62.5198C76.1951 62.5148 76.191 62.5107 76.186 62.5107Z" fill="black"/>
</g>
<defs>
<clipPath id="clip0_29_2585">
<rect width="79" height="32.4183" fill="white" transform="translate(11 34)"/>
</clipPath>
</defs>
</svg>
