<svg width="100" height="100" viewBox="0 0 100 100" fill="none" xmlns="http://www.w3.org/2000/svg">
<rect width="100" height="100" fill="white"/>
<path d="M51.2968 11.4953C57.3225 19.767 57.0038 27.6378 50.3406 35.1077C43.4534 27.1049 43.3314 19.1021 49.9746 11.0994C50.4776 10.8852 50.9183 11.0172 51.2968 11.4953Z" fill="#F26722"/>
<path d="M49.9746 11.0996C43.3314 19.1024 43.4534 27.1051 50.3406 35.1079C50.2211 35.1328 50.1962 35.2498 50.2659 35.459C41.0929 42.2118 33.4138 53.9321 40.8015 64.9129C41.6432 66.5911 42.806 68.0378 44.29 69.2529C44.4792 69.4072 44.5066 69.589 44.3722 69.7982C44.2975 69.9127 44.1829 70.0123 44.0285 70.097C30.747 63.3666 26.6909 50.9441 30.2017 37.08C32.9806 26.0843 39.5715 17.4241 49.9746 11.0996Z" fill="#FECF63"/>
<path d="M51.2969 11.4951C59.6981 16.6195 65.6491 23.6661 69.15 32.635C75.0214 47.657 71.2416 63.538 55.5846 70.4402L59.9919 64.8228C67.2078 54.0213 59.6557 41.9425 50.2661 35.4586C50.1963 35.2494 50.2212 35.1324 50.3408 35.1075C57.0039 27.6376 57.3226 19.7668 51.2969 11.4951Z" fill="#F68924"/>
<path d="M50.61 46.0881C50.3311 46.616 50.4183 47.0044 50.8714 47.2534C51.0362 47.3405 51.1676 47.4797 51.2449 47.6493C52.3953 50.1243 52.4625 52.6243 51.4466 55.1491C51.352 55.3881 51.1976 55.5848 50.9835 55.7392C50.5602 56.048 50.361 56.4339 50.3859 56.8971L49.8481 57.1137C49.8431 56.9842 49.8779 56.8622 49.9526 56.7477C50.0722 56.5734 50.0722 56.3966 49.9526 56.2173C47.8561 53.0152 47.876 49.8355 50.0124 46.6782C50.0448 46.6265 50.0574 46.565 50.0477 46.5057C50.0381 46.4463 50.0069 46.3933 49.9601 46.357C49.8754 46.2873 49.7833 46.2599 49.6837 46.2748C49.7534 46.1304 50.0622 46.0682 50.61 46.0881Z" fill="#6CAB7E"/>
<path d="M50.6093 46.0884C58.7614 49.7437 61.8888 55.9885 59.9915 64.8229L55.5842 70.4403C53.657 71.6604 51.6252 72.2679 49.4888 72.2629C49.688 71.7799 49.7378 71.638 49.6382 71.8372C53.0967 71.7326 55.6141 69.1629 56.1445 65.9359C56.8018 61.8947 53.9334 58.5407 50.3852 56.8973C50.3603 56.4342 50.5595 56.0483 50.9828 55.7395C51.1969 55.5851 51.3513 55.3884 51.4459 55.1494C52.4618 52.6246 52.3946 50.1246 51.2442 47.6496C51.1668 47.48 51.0355 47.3408 50.8707 47.2537C50.4175 47.0047 50.3304 46.6163 50.6093 46.0884Z" fill="#17A0BA"/>
<path d="M49.6831 46.275C49.7827 46.26 49.8748 46.2874 49.9595 46.3571C50.0062 46.3935 50.0375 46.4464 50.0471 46.5058C50.0568 46.5651 50.0442 46.6266 50.0118 46.6783C47.8754 49.8356 47.8555 53.0153 49.952 56.2174C50.0716 56.3967 50.0716 56.5735 49.952 56.7478C49.8773 56.8623 49.8425 56.9843 49.8475 57.1138C43.1021 60.5873 42.1684 68.3859 49.6383 71.837C49.7379 71.6378 49.6881 71.7797 49.4889 72.2628L44.0284 70.0965C44.1828 70.0118 44.2973 69.9122 44.372 69.7977C44.5065 69.5885 44.4791 69.4068 44.2898 69.2524C42.8058 68.0373 41.643 66.5906 40.8014 64.9124C38.4484 56.8598 42.0937 49.4497 49.6831 46.275Z" fill="#C0C230"/>
<path d="M56.4521 80.0524C56.466 80.0688 56.4832 80.0819 56.5027 80.0909C56.5221 80.0999 56.5432 80.1045 56.5646 80.1045C56.5861 80.1045 56.6072 80.0999 56.6266 80.0909C56.6461 80.0819 56.6633 80.0688 56.6771 80.0524C57.6805 78.8674 58.6755 77.6883 59.6621 76.5149C59.8771 76.2599 60.1721 76.1799 60.3846 76.4549C60.4413 76.5266 60.4405 76.5974 60.3821 76.6674L56.9671 80.7599C56.9123 80.8246 56.8822 80.9079 56.8821 80.9949L56.9072 85.5774C56.9072 85.5981 56.9031 85.6186 56.8952 85.6377C56.8872 85.6568 56.8756 85.6742 56.861 85.6888C56.8464 85.7034 56.829 85.715 56.8099 85.723C56.7908 85.7309 56.7703 85.7349 56.7497 85.7349H56.3896C56.2646 85.7349 56.2021 85.6724 56.2021 85.5474V80.9424C56.2021 80.8574 56.1746 80.7824 56.1196 80.7174L52.7046 76.6274C52.6296 76.5391 52.6455 76.4716 52.7521 76.4249L53.0596 76.2874C53.163 76.2408 53.2505 76.2608 53.3221 76.3474L56.4521 80.0524Z" fill="#F26722"/>
<path d="M25.1349 82.6326L23.6649 85.8126C23.6149 85.9176 23.5357 85.9501 23.4274 85.9101L23.1124 85.7901C23.004 85.7501 22.974 85.6776 23.0224 85.5726L27.2224 76.5126C27.2423 76.4689 27.2743 76.4319 27.3146 76.406C27.355 76.38 27.4019 76.3662 27.4499 76.3662C27.4978 76.3662 27.5448 76.38 27.5851 76.406C27.6255 76.4319 27.6575 76.4689 27.6774 76.5126L31.8849 85.5676C31.8946 85.5879 31.9 85.6101 31.9007 85.6327C31.9014 85.6553 31.8974 85.6777 31.8889 85.6987C31.8805 85.7196 31.8677 85.7385 31.8515 85.7543C31.8353 85.77 31.816 85.7822 31.7949 85.7901L31.4699 85.9126C31.3565 85.9559 31.274 85.9217 31.2224 85.8101L29.7699 82.6226C29.7282 82.5309 29.6574 82.4851 29.5574 82.4851H25.3674C25.259 82.4851 25.1815 82.5342 25.1349 82.6326ZM25.5299 81.8651C25.5235 81.8785 25.5207 81.8933 25.5216 81.9081C25.5225 81.9229 25.5272 81.9372 25.5352 81.9497C25.5432 81.9622 25.5543 81.9725 25.5673 81.9795C25.5804 81.9866 25.595 81.9902 25.6099 81.9901L29.3049 81.9826C29.3194 81.9825 29.3337 81.9789 29.3464 81.972C29.3592 81.965 29.37 81.9551 29.3779 81.9429C29.3859 81.9308 29.3907 81.9168 29.3919 81.9024C29.3931 81.8879 29.3907 81.8734 29.3849 81.8601L27.5299 77.7726C27.523 77.7571 27.5118 77.7439 27.4976 77.7347C27.4834 77.7254 27.4668 77.7205 27.4499 77.7205C27.4329 77.7205 27.4163 77.7254 27.4021 77.7347C27.3879 77.7439 27.3767 77.7571 27.3699 77.7726L25.5299 81.8651Z" fill="#F26722"/>
<path d="M33.8821 84.0449C33.7886 84.0765 33.7086 84.1393 33.6557 84.2226C33.6027 84.306 33.5799 84.405 33.591 84.5032C33.6021 84.6013 33.6464 84.6927 33.7167 84.7622C33.7869 84.8316 33.8789 84.8749 33.9771 84.8849C34.8421 84.9774 36.4346 84.8974 37.1271 85.3624C37.9671 85.9224 37.6446 87.2224 36.9046 87.7424C35.8346 88.4999 34.3221 88.8024 33.0946 88.2899C31.4671 87.6124 32.3546 85.6799 33.7696 85.3924C33.8646 85.3724 33.8746 85.3324 33.7996 85.2724C33.3496 84.9124 32.6996 84.7774 33.1271 83.9999C33.1771 83.9115 33.2488 83.8482 33.3421 83.8099L33.9696 83.5624C34.0646 83.524 34.0663 83.4815 33.9746 83.4349C31.3746 82.0874 32.8221 78.6924 35.5271 79.4074C37.2596 79.8649 37.6496 82.1074 36.2471 83.1649C35.6646 83.6049 34.6496 83.7824 33.8821 84.0449ZM36.4521 81.4599C36.4521 81.0342 36.283 80.626 35.982 80.325C35.6811 80.024 35.2728 79.8549 34.8471 79.8549C34.6364 79.8549 34.4277 79.8964 34.2329 79.977C34.0382 80.0577 33.8613 80.1759 33.7122 80.325C33.5632 80.474 33.445 80.6509 33.3643 80.8457C33.2837 81.0404 33.2421 81.2491 33.2421 81.4599C33.2421 81.6706 33.2837 81.8793 33.3643 82.0741C33.445 82.2688 33.5632 82.4457 33.7122 82.5948C33.8613 82.7438 34.0382 82.862 34.2329 82.9427C34.4277 83.0234 34.6364 83.0649 34.8471 83.0649C35.2728 83.0649 35.6811 82.8958 35.982 82.5948C36.283 82.2938 36.4521 81.8855 36.4521 81.4599ZM36.9813 86.3236C36.9499 86.1705 36.8651 86.03 36.7317 85.9099C36.5983 85.7899 36.419 85.6928 36.2039 85.6242C35.9888 85.5555 35.7423 85.5166 35.4783 85.5098C35.2143 85.5029 34.9381 85.5282 34.6654 85.5842C34.1146 85.6972 33.6116 85.9285 33.267 86.227C32.9224 86.5256 32.7645 86.867 32.8279 87.1761C32.8594 87.3292 32.9442 87.4698 33.0776 87.5898C33.211 87.7098 33.3903 87.8069 33.6054 87.8756C33.8204 87.9442 34.067 87.9831 34.331 87.99C34.595 87.9968 34.8712 87.9716 35.1439 87.9156C35.6947 87.8025 36.1977 87.5713 36.5423 87.2727C36.8869 86.9742 37.0448 86.6328 36.9813 86.3236Z" fill="#F68924"/>
<path d="M39.4247 80.0249C40.1613 79.4616 41.0113 79.2932 41.9747 79.5199C42.0717 79.5435 42.1571 79.6027 42.214 79.6858C42.2708 79.7688 42.2951 79.8697 42.2819 79.9685C42.2687 80.0674 42.2191 80.157 42.1428 80.2197C42.0665 80.2825 41.969 80.3137 41.8697 80.3074C41.7697 80.3007 41.6655 80.2616 41.5572 80.1899C41.5029 80.1537 41.4395 80.1306 41.3722 80.1224C40.5205 80.0224 39.863 80.3141 39.3997 80.9974C39.3513 81.0707 39.3272 81.1507 39.3272 81.2374V85.5799C39.3272 85.6833 39.2747 85.7349 39.1697 85.7349H38.8272C38.7022 85.7349 38.6397 85.6724 38.6397 85.5474V79.9149C38.6395 79.8942 38.6449 79.8737 38.6554 79.8558C38.6659 79.8379 38.6811 79.8232 38.6993 79.8132C38.7175 79.8032 38.7381 79.7983 38.7588 79.799C38.7796 79.7998 38.7997 79.8061 38.8172 79.8174L39.1622 80.0349C39.2522 80.0916 39.3397 80.0882 39.4247 80.0249Z" fill="#F68924"/>
<path d="M48.4623 82.6425C48.4623 83.4819 48.1289 84.287 47.5353 84.8805C46.9418 85.4741 46.1367 85.8075 45.2973 85.8075C44.4579 85.8075 43.6529 85.4741 43.0593 84.8805C42.4658 84.287 42.1323 83.4819 42.1323 82.6425C42.1323 82.2269 42.2142 81.8153 42.3732 81.4313C42.5323 81.0474 42.7654 80.6984 43.0593 80.4045C43.6529 79.811 44.4579 79.4775 45.2973 79.4775C46.1367 79.4775 46.9418 79.811 47.5353 80.4045C48.1289 80.9981 48.4623 81.8031 48.4623 82.6425ZM45.2994 85.2975C45.6189 85.297 45.9351 85.2278 46.23 85.0938C46.5249 84.9599 46.7927 84.7638 47.0181 84.5169C47.2436 84.27 47.4223 83.977 47.5439 83.6546C47.6656 83.3323 47.7279 82.9869 47.7273 82.6383C47.7261 81.9341 47.4686 81.2593 47.0116 80.7622C46.5545 80.2651 45.9353 79.9864 45.2902 79.9875C44.9708 79.9881 44.6546 80.0573 44.3597 80.1913C44.0648 80.3252 43.797 80.5212 43.5715 80.7682C43.3461 81.0151 43.1674 81.3081 43.0457 81.6304C42.924 81.9528 42.8617 82.2981 42.8623 82.6468C42.8636 83.3509 43.121 84.0258 43.5781 84.5229C44.0351 85.02 44.6543 85.2987 45.2994 85.2975Z" fill="#F68924"/>
<path d="M64.735 81.8525C65.21 79.68 62.9325 79.685 61.6975 80.455C61.6042 80.5116 61.5375 80.4891 61.4975 80.3875L61.38 80.1C61.3384 79.9933 61.37 79.9175 61.475 79.8725C62.8875 79.2775 65.39 78.9875 65.39 81.275C65.39 82.6783 65.3934 84.1475 65.4 85.6825C65.4004 85.705 65.3951 85.7273 65.3848 85.7473C65.3745 85.7673 65.3594 85.7845 65.3409 85.7974C65.3224 85.8102 65.301 85.8183 65.2786 85.8209C65.2562 85.8236 65.2335 85.8207 65.2125 85.8125C64.305 85.455 63.21 86.065 62.29 85.7675C61.52 85.52 61.055 84.7875 61.0875 83.975C61.165 82.125 63.155 81.995 64.585 81.975C64.6667 81.9733 64.7167 81.9325 64.735 81.8525ZM61.875 83.425C61.415 84.17 61.975 85.3075 62.955 85.3C63.5167 85.295 64.075 85.2083 64.63 85.04C64.72 85.0133 64.765 84.9525 64.765 84.8575V82.67C64.765 82.565 64.7125 82.5083 64.6075 82.5C63.6825 82.44 62.3875 82.5925 61.875 83.425Z" fill="#F68924"/>
<path d="M67.2623 80.735C66.6098 81.7625 68.7197 82.175 69.2847 82.3075C69.9881 82.4758 70.4481 82.6542 70.6648 82.8425C71.7523 83.7925 70.8848 85.1975 69.6223 85.5925C68.6906 85.8825 67.7023 85.7633 66.6573 85.235C66.5739 85.1933 66.5539 85.13 66.5972 85.045L66.7098 84.83C66.7648 84.725 66.8464 84.6975 66.9548 84.7475C67.5298 85.0158 68.1323 85.1533 68.7623 85.16C69.5048 85.1675 70.5898 84.69 70.4148 83.795C70.1373 82.385 65.9998 83.3075 66.5398 80.905C66.9048 79.2875 69.3673 79.2925 70.5623 79.8C70.6723 79.8467 70.6981 79.9225 70.6398 80.0275L70.5148 80.2475C70.4974 80.2773 70.4699 80.2997 70.4373 80.3108C70.4046 80.3218 70.3691 80.3206 70.3373 80.3075C69.4273 79.9125 67.8873 79.75 67.2623 80.735Z" fill="#F68924"/>
<path d="M72.0876 84.2399C71.9201 82.1699 74.1426 81.9674 75.5726 81.9774C75.6526 81.9774 75.7026 81.9391 75.7226 81.8624C76.2851 79.6799 73.8901 79.7499 72.6951 80.4349C72.6034 80.4866 72.5351 80.4649 72.4901 80.3699L72.3651 80.1199C72.3201 80.0249 72.3442 79.9541 72.4376 79.9074C73.4726 79.3999 76.4301 79.0199 76.4001 80.9199C76.3751 82.5149 76.3776 84.1083 76.4076 85.6999C76.4092 85.8249 76.3517 85.8649 76.2351 85.8199L75.8776 85.6799C75.853 85.6701 75.8255 85.6667 75.7976 85.6699C74.4776 85.8299 72.2576 86.3249 72.0876 84.2399ZM73.9076 82.6924C72.4526 82.9749 72.2201 84.8674 73.7726 85.2999C74.1492 85.4049 74.7642 85.3091 75.6176 85.0124C75.7159 84.9774 75.7651 84.9083 75.7651 84.8049V82.6149C75.7651 82.596 75.7613 82.5773 75.754 82.5598C75.7467 82.5424 75.7359 82.5265 75.7224 82.5133C75.7089 82.5 75.6929 82.4896 75.6754 82.4826C75.6578 82.4756 75.639 82.4721 75.6201 82.4724C75.2067 82.4774 74.6359 82.5508 73.9076 82.6924Z" fill="#F68924"/>
</svg>
