<svg width="100" height="100" viewBox="0 0 100 100" fill="none" xmlns="http://www.w3.org/2000/svg">
<rect width="100" height="100" fill="white"/>
<path d="M17.8013 18V82" stroke="#013F20" stroke-width="0.355556"/>
<path d="M82.1982 18V82" stroke="#013F20" stroke-width="0.355556"/>
<path d="M17.8013 18H82.1978V82H17.8013V18Z" fill="#017E40"/>
<path d="M21.4084 21.4793C40.4869 21.4497 59.5654 21.4574 78.6439 21.5024C78.7092 21.5024 78.7419 21.535 78.7419 21.6002L78.7891 78.3771C78.7903 78.4518 78.7535 78.4891 78.6789 78.4891H21.3419C21.2672 78.4891 21.2299 78.4512 21.2299 78.3753L21.2036 21.5878C21.2036 21.5475 21.2194 21.5155 21.2509 21.4918C21.2882 21.4609 21.3238 21.4532 21.3576 21.4686C21.3739 21.4758 21.3909 21.4793 21.4084 21.4793Z" fill="white"/>
<path d="M33.0055 67.9753L33.0335 25.4917C33.0335 25.4733 33.0406 25.4557 33.0534 25.4427C33.0662 25.4297 33.0836 25.4224 33.1017 25.4224H74.0815C74.0996 25.4224 74.1169 25.4297 74.1297 25.4427C74.1425 25.4557 74.1497 25.4733 74.1497 25.4917V49.8419C74.1497 49.8603 74.1425 49.8779 74.1297 49.8909C74.1169 49.9039 74.0996 49.9113 74.0815 49.9113H71.5072C71.4891 49.9113 71.4717 49.9039 71.4589 49.8909C71.4461 49.8779 71.439 49.8603 71.439 49.8419L71.4372 32.5246C71.4372 32.5062 71.43 32.4886 71.4172 32.4756C71.4044 32.4626 71.3871 32.4553 71.3689 32.4553L67.1742 32.4393C67.1561 32.4393 67.1387 32.4466 67.1259 32.4596C67.1131 32.4726 67.106 32.4902 67.106 32.5086V74.5086C67.106 74.527 67.0988 74.5446 67.086 74.5576C67.0732 74.5706 67.0558 74.5779 67.0377 74.5779H26.0492C26.0311 74.5779 26.0137 74.5706 26.0009 74.5576C25.9881 74.5446 25.981 74.527 25.981 74.5086V50.1459C25.981 50.1275 25.9881 50.1099 26.0009 50.0969C26.0137 50.0839 26.0311 50.0766 26.0492 50.0766L28.5797 50.0464C28.5978 50.0464 28.6152 50.0537 28.628 50.0667C28.6408 50.0797 28.648 50.0973 28.648 50.1157L28.7075 67.9753C28.7075 67.9936 28.7146 68.0113 28.7274 68.0243C28.7402 68.0373 28.7576 68.0446 28.7757 68.0446H32.9372C32.9553 68.0446 32.9727 68.0373 32.9855 68.0243C32.9983 68.0113 33.0055 67.9936 33.0055 67.9753Z" fill="#017E40"/>
<path d="M71.4568 28.3715L71.4358 30.1101C71.4355 30.1283 71.4309 30.1461 71.4225 30.1621C71.414 30.1781 71.4019 30.1918 71.3872 30.202C71.3725 30.2123 71.3555 30.2188 71.3378 30.2211C71.3201 30.2233 71.3021 30.2213 71.2853 30.215C71.2561 30.2044 71.2287 30.1955 71.2031 30.1884C71.1647 30.1789 71.1259 30.1741 71.0876 30.1741L52.1631 30.1848C52.1346 30.1847 52.1069 30.194 52.0839 30.2113C52.0609 30.2285 52.0439 30.2529 52.0353 30.2808C51.9606 30.5333 51.9233 30.7656 51.9233 30.9777C51.9268 44.7247 51.9268 58.471 51.9233 72.2168C51.9233 72.2761 51.8941 72.3057 51.8358 72.3057L28.8041 72.3235C28.7317 72.3235 28.695 72.2867 28.6938 72.2133L28.6851 70.5013C28.6851 70.4758 28.695 70.4514 28.7127 70.4334C28.7305 70.4154 28.7545 70.4053 28.7796 70.4053L48.1853 70.3893C48.2605 70.3893 48.3326 70.3587 48.3858 70.3044C48.4389 70.25 48.4688 70.1763 48.4688 70.0995L48.4671 28.3999C48.4671 28.3407 48.4968 28.311 48.5563 28.311H71.3991C71.4068 28.311 71.4144 28.3126 71.4216 28.3157C71.4287 28.3187 71.4351 28.3232 71.4405 28.3288C71.4459 28.3345 71.4501 28.3412 71.4529 28.3485C71.4557 28.3558 71.457 28.3636 71.4568 28.3715Z" fill="white"/>
</svg>
