<svg width="100" height="100" viewBox="0 0 100 100" fill="none" xmlns="http://www.w3.org/2000/svg">
<rect width="100" height="100" fill="white"/>
<g clip-path="url(#clip0_29_2592)">
<path d="M-31 4H132V95.6875H-31V4Z" fill="white"/>
<path d="M39.4854 38.7274C42.1301 35.7058 46.6961 36.1703 48.5013 39.8012C48.5394 39.8772 48.5217 39.9377 48.4484 39.9825L48.1488 40.1618C48.1304 40.173 48.1098 40.1804 48.0884 40.1835C48.067 40.1866 48.0451 40.1854 48.0242 40.1799C48.0033 40.1744 47.9837 40.1647 47.9666 40.1514C47.9495 40.1382 47.9353 40.1216 47.9247 40.1027C45.9708 36.6125 41.2927 36.5147 39.4059 40.1231C39.2986 40.3296 39.1472 40.3696 38.9516 40.2433C38.4585 39.9275 39.1859 39.0697 39.4854 38.7274Z" fill="#264695"/>
<path d="M40.4347 40.4895C41.9303 37.8204 45.4429 37.9508 46.8875 40.5873C46.9255 40.6579 46.9133 40.7197 46.8508 40.7727L46.533 41.0355C46.5163 41.0496 46.4967 41.0597 46.4756 41.0651C46.4545 41.0705 46.4325 41.0711 46.4111 41.0667C46.3898 41.0624 46.3697 41.0534 46.3523 41.0402C46.335 41.027 46.3208 41.0101 46.3109 40.9907C45.1251 38.7658 42.187 38.668 41.0012 40.9459C40.9808 40.9852 40.952 41.0195 40.9167 41.0462C40.8814 41.073 40.8407 41.0915 40.7973 41.1005C40.754 41.1094 40.7092 41.1086 40.6662 41.0981C40.6232 41.0876 40.5831 41.0676 40.5488 41.0396C40.356 40.8807 40.3179 40.6973 40.4347 40.4895Z" fill="#264695"/>
<path d="M41.6613 41.9664C42.2929 39.9371 45.0863 39.9717 45.5733 42.0602C45.5927 42.1338 45.5837 42.2121 45.548 42.2794C45.5124 42.3468 45.4527 42.3983 45.3809 42.4237C45.3091 42.449 45.2303 42.4465 45.1603 42.4165C45.0902 42.3866 45.034 42.3314 45.0028 42.2619C44.3569 40.9273 42.8308 40.6848 42.295 42.2354C42.2712 42.3044 42.2244 42.3631 42.1624 42.4017C42.1005 42.4403 42.0271 42.4564 41.9547 42.4473C41.6708 42.4133 41.573 42.253 41.6613 41.9664Z" fill="#264695"/>
<path d="M9.24254 56.8898L9.2405 58.1062C9.23998 58.1395 9.22673 58.1713 9.20353 58.1949C9.18033 58.2185 9.14902 58.232 9.11621 58.2325L6.84236 58.2508C6.77037 58.2508 6.73438 58.2148 6.73438 58.1428L6.74864 43.7805C6.74864 43.7139 6.78192 43.6807 6.84847 43.6807H9.31589C9.40146 43.6807 9.44425 43.7235 9.44425 43.809V48.7724C9.44425 48.8715 9.47889 48.8858 9.54816 48.8152C12.3436 45.9993 16.0478 47.8188 16.6794 51.3702C17.0462 53.4281 16.763 55.9464 15.1696 57.4114C13.3766 59.0597 10.9133 58.7133 9.38516 56.8388C9.29008 56.7234 9.24254 56.7404 9.24254 56.8898Z" fill="#264695"/>
<path d="M32.7797 43.6782H30.2736C30.2196 43.6782 30.1758 43.722 30.1758 43.776V58.1485C30.1758 58.2026 30.2196 58.2463 30.2736 58.2463H32.7797C32.8337 58.2463 32.8775 58.2026 32.8775 58.1485V43.776C32.8775 43.722 32.8337 43.6782 32.7797 43.6782Z" fill="#264695"/>
<path d="M38.3606 43.678L35.7892 43.6825C35.7544 43.6826 35.7261 43.7109 35.7262 43.7458L35.7305 46.2152C35.7306 46.2501 35.7589 46.2783 35.7938 46.2783L38.3651 46.2738C38.4 46.2737 38.4282 46.2454 38.4281 46.2105L38.4238 43.7411C38.4238 43.7062 38.3954 43.678 38.3606 43.678Z" fill="#264695"/>
<path d="M45.0191 47.6943L46.6307 47.7086C46.6574 47.7091 46.6828 47.7198 46.7014 47.7385C46.7201 47.7572 46.7305 47.7823 46.7306 47.8084V49.799C46.7306 49.8131 46.7277 49.8271 46.7223 49.8401C46.7168 49.853 46.7089 49.8648 46.6988 49.8747C46.6888 49.8845 46.6768 49.8923 46.6637 49.8975C46.6506 49.9027 46.6367 49.9052 46.6226 49.905L44.9865 49.8703C44.9308 49.869 44.9029 49.8961 44.9029 49.9518C44.8921 51.7516 44.8866 53.5487 44.8866 55.3431C44.8866 56.4372 45.9033 56.1336 46.6266 55.9665C46.6986 55.9502 46.7387 55.9788 46.7469 56.0521L46.9649 57.9572C46.9688 57.9937 46.9603 58.0305 46.9407 58.0615C46.9211 58.0926 46.8915 58.1161 46.8569 58.1283C45.7383 58.5236 43.876 58.7212 42.9204 57.892C42.2481 57.3093 42.1401 56.2783 42.1441 55.4979C42.1523 53.6628 42.1516 51.8277 42.1421 49.9926C42.1407 49.9165 42.102 49.8798 42.026 49.8826L41.0378 49.9274C41.0215 49.9279 41.0052 49.9253 40.9899 49.9195C40.9746 49.9138 40.9606 49.9051 40.9487 49.8939C40.9368 49.8827 40.9272 49.8693 40.9204 49.8544C40.9137 49.8396 40.9099 49.8235 40.9094 49.8072L40.8585 47.7819C40.8578 47.7633 40.8612 47.7447 40.8683 47.7275C40.8754 47.7102 40.8861 47.6947 40.8998 47.6818C40.9135 47.6689 40.9297 47.659 40.9475 47.6527C40.9653 47.6464 40.9843 47.644 41.0031 47.6454L41.9343 47.7147C41.9575 47.7166 41.9808 47.7137 42.0029 47.7061C42.0249 47.6985 42.0452 47.6864 42.0624 47.6706C42.0796 47.6547 42.0934 47.6354 42.1029 47.6139C42.1124 47.5924 42.1174 47.5691 42.1177 47.5456L42.1503 45.7709C42.1515 45.7103 42.1678 45.6511 42.1977 45.5988C42.2276 45.5464 42.2702 45.5026 42.3214 45.4714L44.7297 44.0125C44.7464 44.0024 44.7654 43.9969 44.7849 43.9966C44.8044 43.9963 44.8236 44.0011 44.8406 44.0106C44.8576 44.0202 44.8718 44.0341 44.8816 44.0509C44.8915 44.0677 44.8967 44.0868 44.8968 44.1063V47.572C44.8968 47.6522 44.9376 47.6929 45.0191 47.6943Z" fill="#F49546"/>
<path d="M18.7738 50.4998C18.7574 50.497 18.7417 50.4908 18.7277 50.4815C18.7137 50.4723 18.7018 50.4602 18.6926 50.4461C18.6835 50.432 18.6773 50.4161 18.6744 50.3994C18.6716 50.3827 18.6721 50.3656 18.676 50.349C19.0659 48.7693 20.0853 47.8456 21.7343 47.578C23.4845 47.2928 26.3574 47.3356 27.1581 49.2569C27.3266 49.6617 27.4142 50.4788 27.421 51.708C27.4332 53.8209 27.1805 56.1213 27.9568 58.1302C27.9881 58.2131 27.9595 58.2539 27.8713 58.2525L25.4018 58.2382C25.3162 58.2369 25.2633 58.1941 25.2429 58.1099L25.0228 57.193C25.0189 57.1767 25.0107 57.1617 24.9991 57.1496C24.9875 57.1374 24.973 57.1285 24.9569 57.1238C24.9408 57.119 24.9237 57.1186 24.9074 57.1225C24.8911 57.1265 24.8761 57.1346 24.8639 57.1461C23.5952 58.3605 22.1404 58.7442 20.4996 58.2973C18.9307 57.8694 18.1605 56.376 18.3948 54.8234C18.8614 51.7223 22.6043 52.4436 24.654 51.4065C24.682 51.3921 24.7059 51.3709 24.7234 51.3449C24.7408 51.3188 24.7513 51.2889 24.7539 51.2578C24.9373 49.0471 21.6773 49.0206 21.1516 50.8177C21.1298 50.8883 21.083 50.9168 21.011 50.9032L18.7738 50.4998Z" fill="#264695"/>
<path d="M56.6186 57.4374C54.0615 59.2814 49.7155 58.6355 48.5052 55.4101C47.2929 52.1807 48.4808 48.3502 52.1238 47.6024C54.8215 47.0503 57.2156 48.1546 58.2893 50.7035C59.2082 52.8816 58.6561 55.9664 56.6186 57.4374Z" fill="#F49546"/>
<path d="M78.4689 53.8885C78.369 56.1909 81.4925 57.6008 82.3992 54.9765C82.4209 54.9127 82.4644 54.8869 82.5296 54.8991L84.9746 55.3229C84.9997 55.3271 85.0234 55.3371 85.0441 55.352C85.0647 55.3669 85.0816 55.3864 85.0936 55.409C85.1056 55.4316 85.1123 55.4567 85.1132 55.4824C85.1141 55.5081 85.1092 55.5337 85.0989 55.5572C83.8886 58.3282 80.9628 59.1595 78.3548 58.0002C74.8482 56.4415 74.7239 50.3636 77.825 48.2202C78.9497 47.4432 80.2714 47.2476 81.79 47.6334C84.4734 48.316 85.4575 51.089 85.2537 53.6624C85.2497 53.7276 85.2143 53.7602 85.1478 53.7602L78.585 53.7785C78.5117 53.7785 78.4729 53.8152 78.4689 53.8885Z" fill="#F49546"/>
<path d="M90.1436 48.9246C91.085 47.353 92.3862 47.0345 94.0475 47.969C94.0711 47.9823 94.0893 48.0034 94.099 48.0287C94.1087 48.054 94.1092 48.0819 94.1005 48.1076L93.3323 50.2918C93.3065 50.3651 93.2617 50.3801 93.1978 50.3366C91.0646 48.9063 90.1925 51.2881 90.1864 52.8855C90.181 54.6215 90.179 56.3567 90.1803 58.0913C90.1803 58.1194 90.1692 58.1464 90.1493 58.1662C90.1294 58.1861 90.1025 58.1973 90.0744 58.1973H87.5825C87.4806 58.1973 87.4297 58.1463 87.4297 58.0445V47.7816C87.4297 47.7583 87.4389 47.736 87.4553 47.7196C87.4718 47.7032 87.4941 47.694 87.5173 47.694L89.6791 47.6858C89.7181 47.6855 89.7567 47.693 89.7928 47.7077C89.8289 47.7224 89.8617 47.7442 89.8893 47.7716C89.917 47.7991 89.9389 47.8317 89.9539 47.8677C89.9689 47.9037 89.9766 47.9423 89.9766 47.9812V48.8777C89.9762 48.8976 89.9824 48.917 89.9942 48.9329C90.0061 48.9488 90.0229 48.9604 90.042 48.9658C90.0611 48.9711 90.0814 48.97 90.0998 48.9625C90.1182 48.9551 90.1336 48.9418 90.1436 48.9246Z" fill="#F49546"/>
<path d="M38.3564 47.6841H35.8299C35.7736 47.6841 35.728 47.7297 35.728 47.786V58.1405C35.728 58.1968 35.7736 58.2424 35.8299 58.2424H38.3564C38.4127 58.2424 38.4583 58.1968 38.4583 58.1405V47.786C38.4583 47.7297 38.4127 47.6841 38.3564 47.6841Z" fill="#264695"/>
<path d="M67.1587 51.6592L65.49 58.1669C65.4861 58.1813 65.4776 58.194 65.4658 58.2032C65.4541 58.2124 65.4397 58.2175 65.4248 58.2179L62.8535 58.2627C62.8385 58.2629 62.8238 58.2583 62.8117 58.2494C62.7996 58.2406 62.7906 58.2281 62.7862 58.2138L59.5487 47.7777C59.545 47.7671 59.544 47.7559 59.5457 47.7448C59.5474 47.7338 59.5517 47.7233 59.5583 47.7143C59.5649 47.7053 59.5736 47.698 59.5836 47.6931C59.5937 47.6882 59.6047 47.6858 59.6159 47.686L62.1322 47.7125C62.1468 47.7127 62.161 47.7176 62.1728 47.7264C62.1845 47.7351 62.1931 47.7474 62.1974 47.7614L64.0699 54.3303C64.0744 54.3444 64.0834 54.3567 64.0955 54.3653C64.1075 54.3739 64.122 54.3785 64.1368 54.3782C64.1517 54.378 64.166 54.373 64.1778 54.364C64.1896 54.355 64.1982 54.3425 64.2023 54.3283L65.9097 47.7553C65.9138 47.7406 65.9225 47.7276 65.9347 47.7184C65.9469 47.7092 65.9617 47.7043 65.977 47.7044H68.4994C68.5149 47.7044 68.53 47.7096 68.5422 47.7192C68.5544 47.7288 68.563 47.7423 68.5666 47.7573L70.219 54.3201C70.2225 54.3352 70.231 54.3487 70.243 54.3584C70.2551 54.3681 70.27 54.3735 70.2855 54.3738C70.301 54.374 70.3161 54.369 70.3284 54.3597C70.3407 54.3503 70.3496 54.3371 70.3535 54.3222L72.2728 47.6901C72.2769 47.6754 72.2857 47.6624 72.2978 47.6532C72.31 47.644 72.3248 47.6391 72.3401 47.6392L74.8747 47.684C74.8855 47.6841 74.8961 47.6868 74.9056 47.6918C74.9152 47.6967 74.9234 47.7038 74.9297 47.7125C74.9361 47.7212 74.9403 47.7313 74.9421 47.7419C74.9438 47.7525 74.9431 47.7634 74.9399 47.7736L71.6412 58.1995C71.6368 58.2139 71.6279 58.2264 71.6158 58.2352C71.6036 58.244 71.589 58.2486 71.574 58.2484H69.0597C69.0445 58.2485 69.0296 58.2436 69.0174 58.2344C69.0053 58.2252 68.9965 58.2122 68.9925 58.1975L67.2932 51.6571C67.2892 51.6421 67.2804 51.6289 67.2681 51.6196C67.2557 51.6102 67.2406 51.6053 67.2252 51.6055C67.2097 51.6057 67.1947 51.6112 67.1827 51.6209C67.1706 51.6306 67.1622 51.6441 67.1587 51.6592Z" fill="#F49546"/>
<path d="M12.8185 49.9333C14.962 51.3637 14.1551 57.7451 10.8116 56.0255C9.22642 55.2084 9.23049 52.4191 9.693 51.0601C10.129 49.7805 11.6653 49.1632 12.8185 49.9333Z" fill="white"/>
<path d="M78.654 52.032C78.6151 52.032 78.5778 52.0165 78.5503 51.989C78.5228 51.9615 78.5073 51.9242 78.5073 51.8853V51.8588C78.5083 51.5609 78.561 51.2661 78.6626 50.9912C78.7642 50.7163 78.9126 50.4667 79.0993 50.2567C79.2861 50.0466 79.5075 49.8803 79.751 49.7671C79.9945 49.654 80.2552 49.5962 80.5183 49.5972H80.5713C81.1023 49.5991 81.6108 49.8397 81.9848 50.2661C82.3589 50.6925 82.5679 51.2698 82.566 51.871V51.8975C82.566 51.9364 82.5506 51.9737 82.5231 52.0012C82.4955 52.0288 82.4582 52.0442 82.4193 52.0442L78.654 52.032Z" fill="white"/>
<path d="M50.822 52.9746C50.8315 54.7795 51.9839 56.2367 53.3961 56.2293C54.8083 56.2219 55.9455 54.7527 55.9361 52.9478C55.9266 51.1429 54.7741 49.6857 53.3619 49.6931C51.9497 49.7005 50.8126 51.1696 50.822 52.9746Z" fill="white"/>
<path d="M23.1056 56.4349C21.2189 56.9484 20.0473 54.3831 22.2906 53.8188C23.0743 53.6204 23.8601 53.4289 24.648 53.2442C24.7227 53.2265 24.76 53.2564 24.76 53.3338C24.758 54.7703 24.7356 55.9928 23.1056 56.4349Z" fill="white"/>
<path d="M28.4686 61.0337C28.383 61.3455 28.4136 62.1075 27.9939 62.1157C27.9029 62.1184 27.8675 62.0749 27.8879 61.9853L28.5542 59.0227C28.5615 58.9909 28.5794 58.9625 28.605 58.9422C28.6305 58.9219 28.6621 58.9107 28.6948 58.9107C28.8306 58.9093 28.8883 58.9752 28.868 59.1083C28.7865 59.6231 28.6744 60.1467 28.5318 60.6792C28.5272 60.697 28.5282 60.7158 28.5347 60.7331C28.5413 60.7503 28.5529 60.7651 28.568 60.7752C28.5831 60.7854 28.601 60.7904 28.619 60.7896C28.637 60.7889 28.6542 60.7823 28.6683 60.7709L29.7502 59.9172C29.7779 59.8951 29.8122 59.8829 29.8476 59.8825C29.8831 59.8821 29.9176 59.8936 29.9458 59.9152C29.9947 59.9532 30.0164 59.9967 30.011 60.0456C30.0069 60.0768 29.9852 60.108 29.9458 60.1393C29.6551 60.3702 29.3637 60.5984 29.0717 60.8239C29.0187 60.866 29.0085 60.9162 29.0411 60.9747C29.2109 61.2911 29.4018 61.5845 29.6137 61.8549C29.7427 62.0179 29.687 62.0994 29.4466 62.0994C29.4152 62.0993 29.3844 62.0914 29.357 62.0765C29.3296 62.0615 29.3065 62.04 29.2897 62.0138L28.6316 61.0073C28.6223 60.9927 28.609 60.9812 28.5932 60.9742C28.5775 60.9672 28.5599 60.965 28.5427 60.9678C28.5255 60.9706 28.5094 60.9783 28.4963 60.99C28.4831 61.0017 28.4735 61.0169 28.4686 61.0337Z" fill="black"/>
<path d="M38.7294 60.0231C38.8204 59.7446 38.8809 59.4601 38.9108 59.1694C38.9189 59.0784 38.9434 59.0125 38.9841 58.9717C39.0344 58.9201 39.0907 58.8977 39.1532 58.9045C39.1759 58.9072 39.1978 58.9145 39.2175 58.926C39.2372 58.9376 39.2542 58.9531 39.2675 58.9715C39.2807 58.99 39.2899 59.011 39.2945 59.0331C39.299 59.0553 39.2988 59.0781 39.2938 59.1001L38.652 61.973C38.6473 61.9936 38.6377 62.0128 38.6241 62.0291C38.6106 62.0453 38.5934 62.0582 38.5739 62.0665C38.5544 62.0748 38.5333 62.0785 38.5122 62.0771C38.491 62.0757 38.4705 62.0694 38.4523 62.0586L38.3158 61.975C38.256 61.9397 38.1922 61.9302 38.1243 61.9465L37.3174 62.1523C37.2906 62.1592 37.2624 62.1593 37.2354 62.1525C37.2083 62.1458 37.1833 62.1324 37.1626 62.1136C36.264 61.2945 37.2094 59.4241 38.5786 60.0883C38.6533 60.1236 38.7036 60.1019 38.7294 60.0231Z" fill="black"/>
<path d="M45.0173 60.2125L44.7178 60.1331C44.7043 60.1293 44.6924 60.1212 44.6841 60.11C44.6757 60.0988 44.6713 60.0851 44.6715 60.0712C44.6717 60.0572 44.6766 60.0437 44.6853 60.0327C44.6941 60.0218 44.7062 60.0141 44.7198 60.0108L45.1028 59.9314C45.1626 59.9178 45.1952 59.8811 45.2006 59.8213C45.2754 59.1585 45.6543 58.861 46.3376 58.9289C46.3828 58.9322 46.4282 58.9532 46.4636 58.9874C46.4991 59.0216 46.5217 59.0662 46.5266 59.1113C46.5314 59.1564 46.5181 59.1984 46.4895 59.228C46.461 59.2576 46.4195 59.2724 46.3742 59.2692L46.0829 59.2549C46.0082 59.2508 45.9362 59.2644 45.8669 59.2957C45.6577 59.3894 45.5565 59.5741 45.5633 59.8498C45.5644 59.8834 45.5781 59.9152 45.6016 59.9387C45.6251 59.9622 45.6566 59.9757 45.6896 59.9762L46.0482 59.9823C46.1556 59.985 46.1793 60.0305 46.1196 60.1188L46.034 60.2492C46.0127 60.2819 45.9794 60.3049 45.9413 60.3133C45.9032 60.3217 45.8633 60.3148 45.8302 60.294C45.7039 60.2166 45.5973 60.2139 45.5103 60.2859C45.4547 60.3321 45.4159 60.4156 45.3942 60.5365C45.2455 61.3596 45.1986 63.0161 44.0128 62.8776C43.9557 62.8721 43.9279 62.8409 43.9292 62.7839C43.9292 62.7635 43.9292 62.7438 43.9292 62.7248C43.9292 62.703 43.9375 62.682 43.9524 62.6664C43.9672 62.6508 43.9874 62.6418 44.0087 62.6412C44.8074 62.6188 44.9154 61.2272 45.0702 60.294C45.077 60.2506 45.0594 60.2234 45.0173 60.2125Z" fill="black"/>
<path d="M41.5384 59.5089C41.6908 59.4739 41.7939 59.3558 41.7685 59.245C41.7431 59.1343 41.5989 59.0728 41.4465 59.1077C41.294 59.1426 41.191 59.2607 41.2164 59.3715C41.2417 59.4823 41.3859 59.5438 41.5384 59.5089Z" fill="black"/>
<path d="M18.9474 59.958L19.4812 60.0252C19.5055 60.026 19.5285 60.0365 19.5452 60.0542C19.5618 60.072 19.5707 60.0957 19.5699 60.12C19.5691 60.1443 19.5586 60.1673 19.5408 60.1839C19.5231 60.2005 19.4994 60.2094 19.4751 60.2086L18.8659 60.2494C18.8021 60.2534 18.764 60.2867 18.7518 60.3492L18.4747 61.6919C18.4709 61.7099 18.4715 61.7286 18.4765 61.7463C18.4814 61.764 18.4906 61.7803 18.5032 61.7937C18.5158 61.8071 18.5315 61.8173 18.5489 61.8233C18.5663 61.8294 18.5849 61.8311 18.6031 61.8284L19.0248 61.7714C19.0446 61.769 19.0646 61.7731 19.082 61.7829C19.0993 61.7927 19.1131 61.8078 19.1212 61.826C19.1294 61.8442 19.1316 61.8645 19.1274 61.8839C19.1233 61.9034 19.113 61.9211 19.0982 61.9344C18.8075 62.187 18.4964 62.1945 18.165 61.9568C18.1353 61.9354 18.1124 61.9062 18.0991 61.8726C18.0857 61.8389 18.0824 61.8024 18.0896 61.7673L18.3708 60.4001C18.3844 60.3322 18.3586 60.2853 18.2934 60.2595L18.0305 60.1536C18.0146 60.1476 18.0012 60.1365 17.9922 60.1221C17.9832 60.1077 17.9792 60.0907 17.9808 60.0738C17.9824 60.0569 17.9896 60.0409 18.0011 60.0285C18.0127 60.016 18.028 60.0077 18.0448 60.0049L18.4645 59.9254C18.5297 59.9132 18.5623 59.8738 18.5623 59.8072V59.5362C18.5623 59.4534 18.6031 59.4038 18.6846 59.3875L18.7946 59.3651C18.9087 59.3433 18.9549 59.3895 18.9331 59.5036L18.8679 59.852C18.8557 59.9145 18.8822 59.9498 18.9474 59.958Z" fill="black"/>
<path d="M53.497 60.3185L53.2158 61.6286C53.194 61.7251 53.2334 61.7787 53.334 61.7896L53.7252 61.8263C53.7808 61.8317 53.8101 61.8623 53.8128 61.918C53.8168 62.0076 53.7707 62.066 53.6742 62.0932C53.4134 62.1679 53.1798 62.136 52.9733 61.9974C52.9217 61.9635 52.8945 61.9146 52.8918 61.8507C52.8714 61.3821 52.9543 60.9291 53.1404 60.4917C53.1554 60.4556 53.1561 60.4151 53.1426 60.3782C53.129 60.3412 53.1021 60.3105 53.067 60.292L52.8694 60.1861C52.8485 60.1743 52.832 60.1559 52.8225 60.1338C52.813 60.1118 52.8109 60.0872 52.8167 60.0638C52.8225 60.0405 52.8357 60.0197 52.8545 60.0046C52.8732 59.9895 52.8963 59.981 52.9203 59.9803H53.1445C53.2097 59.9803 53.2491 59.9484 53.2626 59.8845L53.334 59.5239C53.3489 59.4533 53.3903 59.4071 53.4582 59.3853L53.5255 59.3629C53.6518 59.3235 53.7021 59.3684 53.6763 59.4974L53.607 59.8397C53.6037 59.8569 53.6041 59.8745 53.6083 59.8914C53.6125 59.9084 53.6204 59.9241 53.6313 59.9376C53.6422 59.951 53.6559 59.9618 53.6714 59.9692C53.687 59.9766 53.7039 59.9804 53.7211 59.9803H54.1734C54.2929 59.9803 54.3242 60.0333 54.2671 60.1392L54.2223 60.2248C54.1897 60.2846 54.1401 60.309 54.0736 60.2982L53.6233 60.2309C53.554 60.2201 53.5119 60.2493 53.497 60.3185Z" fill="black"/>
<path d="M61.4476 60.235C61.3905 60.2472 61.3307 60.2357 61.2683 60.2004C61.2384 60.1837 61.2157 60.157 61.2042 60.125C61.1926 60.093 61.193 60.0579 61.2053 60.026C61.2176 59.994 61.241 59.9674 61.2712 59.9508C61.3014 59.9342 61.3365 59.9288 61.3701 59.9355C61.6377 59.9953 61.7477 59.8859 61.7002 59.6075C61.6934 59.5672 61.7009 59.5258 61.7213 59.4905C61.7418 59.4551 61.774 59.428 61.8123 59.4139L61.9366 59.3691C62.0248 59.3365 62.0683 59.367 62.067 59.4608L62.0608 59.8764C62.0595 59.9457 62.0934 59.9803 62.1627 59.9803H62.5845C62.6028 59.9799 62.6209 59.9849 62.6364 59.9947C62.652 60.0044 62.6643 60.0185 62.6719 60.0352C62.6795 60.0519 62.682 60.0705 62.6791 60.0886C62.6763 60.1068 62.6682 60.1236 62.6558 60.1372L62.5682 60.235C62.5482 60.2573 62.5231 60.2741 62.4952 60.2838C62.4674 60.2934 62.4377 60.2956 62.4093 60.29L62.1016 60.2309C61.9997 60.2106 61.9379 60.2513 61.9162 60.3532L61.6391 61.6613C61.6328 61.6902 61.6354 61.7203 61.6466 61.7477C61.6577 61.7751 61.6769 61.7984 61.7016 61.8147C61.7263 61.831 61.7553 61.8395 61.7849 61.839C61.8144 61.8385 61.8432 61.8291 61.8673 61.812C61.9664 61.7414 62.0704 61.738 62.179 61.8018C62.2036 61.8162 62.2235 61.8373 62.2364 61.8626C62.2493 61.888 62.2547 61.9165 62.2519 61.9448C62.2492 61.9731 62.2383 62 62.2207 62.0224C62.2031 62.0447 62.1794 62.0615 62.1525 62.0708C60.7833 62.5455 61.4476 60.8259 61.5535 60.3409C61.5565 60.3264 61.5559 60.3113 61.5516 60.2971C61.5473 60.2829 61.5396 60.2699 61.5291 60.2594C61.5186 60.2489 61.5056 60.2412 61.4914 60.2369C61.4772 60.2326 61.4621 60.232 61.4476 60.235Z" fill="black"/>
<path d="M47.1827 60.1232C47.3471 59.9684 47.5407 59.8991 47.7634 59.9154C47.7957 59.9181 47.8264 59.9305 47.8515 59.9509C47.8766 59.9713 47.895 59.9988 47.9042 60.0299C47.9135 60.0609 47.9131 60.094 47.9033 60.1248C47.8934 60.1556 47.8745 60.1828 47.849 60.2027C47.7756 60.2584 47.6867 60.289 47.5821 60.2944C46.4513 60.3494 46.9362 61.794 46.4818 62.0915C46.4357 62.1213 46.3786 62.1315 46.3107 62.122C46.2933 62.1194 46.2766 62.1132 46.2617 62.1038C46.2468 62.0945 46.234 62.0821 46.2241 62.0676C46.2141 62.0531 46.2073 62.0367 46.204 62.0194C46.2006 62.0021 46.2009 61.9844 46.2047 61.9672L46.6448 60.0397C46.6494 60.0192 46.6593 60.0003 46.6734 59.9848C46.6876 59.9694 46.7056 59.9579 46.7256 59.9515C46.7455 59.9451 46.7668 59.944 46.7874 59.9484C46.8079 59.9528 46.8269 59.9625 46.8425 59.9765L47.0075 60.1253C47.0673 60.1783 47.1257 60.1776 47.1827 60.1232Z" fill="black"/>
<path d="M51.0603 60.9196C51.0085 60.8888 50.9642 60.8468 50.9306 60.7967C50.8969 60.7467 50.8748 60.6897 50.8659 60.6301C50.8569 60.5704 50.8613 60.5096 50.8787 60.4518C50.8961 60.3941 50.9262 60.3409 50.9666 60.2962C51.3143 59.9145 51.7456 59.8078 52.2604 59.9763C52.2791 59.9822 52.2964 59.9918 52.3113 60.0046C52.3262 60.0174 52.3385 60.033 52.3474 60.0506C52.3563 60.0682 52.3617 60.0874 52.3632 60.1072C52.3647 60.127 52.3623 60.1469 52.3562 60.1658L52.3236 60.2636C52.3198 60.2748 52.3135 60.2851 52.3053 60.2936C52.297 60.3021 52.2869 60.3086 52.2758 60.3128C52.2646 60.3169 52.2527 60.3184 52.2409 60.3173C52.2291 60.3162 52.2176 60.3125 52.2075 60.3064C51.9141 60.1243 51.6363 60.1366 51.3741 60.343C51.3424 60.368 51.3176 60.4006 51.302 60.4377C51.2863 60.4749 51.2803 60.5154 51.2846 60.5555C51.2889 60.5956 51.3033 60.634 51.3264 60.667C51.3495 60.7001 51.3807 60.7267 51.4169 60.7444L51.9568 61.0134C52.0177 61.0436 52.0708 61.0873 52.1123 61.1411C52.1537 61.195 52.1824 61.2575 52.1961 61.324C52.2099 61.3906 52.2083 61.4594 52.1916 61.5252C52.1748 61.591 52.1433 61.6522 52.0995 61.7041C51.7246 62.1442 51.2457 62.2454 50.663 62.0077C50.5516 61.9615 50.519 61.8759 50.5652 61.7509C50.5702 61.7378 50.5779 61.7259 50.5878 61.7159C50.5978 61.706 50.6098 61.6983 50.6231 61.6933C50.6363 61.6883 50.6505 61.6861 50.6648 61.6869C50.6791 61.6877 50.693 61.6915 50.7058 61.698C51.0807 61.9004 51.4366 61.8739 51.7735 61.6185C51.7962 61.6016 51.8143 61.5793 51.8263 61.5536C51.8383 61.528 51.8437 61.4998 51.8421 61.4715C51.8405 61.4432 51.8319 61.4158 51.817 61.3917C51.8022 61.3675 51.7817 61.3475 51.7572 61.3333L51.0603 60.9196Z" fill="black"/>
<path d="M88.919 61.5491C89.2233 61.0859 89.4766 60.5854 89.679 60.0475C89.7442 59.8763 89.8603 59.8322 90.0274 59.9151C90.0524 59.9274 90.0718 59.9488 90.0816 59.9749C90.0915 60.001 90.091 60.0299 90.0804 60.0556C89.6457 61.145 88.9958 62.0823 88.1305 62.8674C88.0137 62.9733 87.9349 62.9638 87.8942 62.8389C87.8879 62.8201 87.8865 62.8002 87.8901 62.781C87.8937 62.7617 87.9021 62.7438 87.9145 62.7288L88.4219 62.1054C88.4384 62.085 88.4502 62.0613 88.4566 62.0359C88.4629 62.0106 88.4636 61.9842 88.4585 61.9587L88.0857 60.0842C88.0639 59.9755 88.1081 59.9232 88.2181 59.9273C88.2534 59.9286 88.2874 59.9293 88.32 59.9293C88.4001 59.928 88.4477 59.9667 88.4626 60.0455L88.7336 61.5104C88.7371 61.5305 88.7465 61.5491 88.7607 61.5638C88.7749 61.5785 88.7932 61.5886 88.8132 61.5928C88.8331 61.5969 88.8539 61.595 88.8728 61.5872C88.8917 61.5794 88.9078 61.5662 88.919 61.5491Z" fill="black"/>
<path d="M10.2041 61.8935L9.85777 62.0646C9.80479 62.0904 9.74774 62.1054 9.68662 62.1095C8.20943 62.2073 9.00406 59.2468 10.6544 60.0781C10.6965 60.0984 10.738 60.0984 10.7787 60.0781L11.0456 59.9415C11.0608 59.9337 11.0779 59.9304 11.095 59.932C11.112 59.9336 11.1282 59.94 11.1417 59.9505C11.1552 59.961 11.1654 59.9751 11.1711 59.9912C11.1768 60.0073 11.1778 60.0247 11.174 60.0414L10.7359 62.0402C10.7128 62.1407 10.6626 62.157 10.5852 62.0891L10.3834 61.9159C10.3291 61.8683 10.2693 61.8609 10.2041 61.8935Z" fill="black"/>
<path d="M14.3263 60.2636C13.3768 60.0721 13.2525 61.3944 13.118 61.9955C13.1004 62.077 13.0501 62.1184 12.9673 62.1197C12.9455 62.1197 12.9231 62.1211 12.9 62.1238C12.8788 62.1267 12.8573 62.1244 12.8372 62.117C12.8171 62.1096 12.799 62.0974 12.7846 62.0813C12.7702 62.0653 12.7598 62.046 12.7544 62.025C12.7489 62.004 12.7486 61.982 12.7533 61.9608L13.1853 60.0721C13.1895 60.0535 13.198 60.0361 13.2101 60.0214C13.2222 60.0067 13.2376 59.995 13.255 59.9873C13.2724 59.9796 13.2914 59.976 13.3104 59.977C13.3294 59.9779 13.348 59.9832 13.3646 59.9926L13.607 60.1332C13.66 60.1631 13.7109 60.161 13.7598 60.1271C14.113 59.8826 14.4743 59.8635 14.8438 60.07C14.8783 60.0892 14.906 60.1186 14.9231 60.1544C14.9402 60.1901 14.946 60.2304 14.9396 60.2697L14.6747 61.9078C14.6597 62.0016 14.6068 62.0606 14.5158 62.0851L14.367 62.1238C14.2706 62.1483 14.2326 62.1116 14.2529 62.0138L14.5524 60.6059C14.5602 60.5685 14.5604 60.5301 14.5533 60.4926C14.5461 60.4552 14.5315 60.4195 14.5105 60.3877C14.4895 60.3559 14.4624 60.3286 14.4308 60.3073C14.3992 60.286 14.3637 60.2711 14.3263 60.2636Z" fill="black"/>
<path d="M17.0359 62.0116C14.9617 62.8449 14.976 60.0128 16.9035 59.9191C17.1113 59.9089 17.3354 60.0291 17.4658 60.1717C17.5068 60.2164 17.5372 60.2697 17.5548 60.3278C17.5723 60.3858 17.5766 60.4471 17.5672 60.507C17.5578 60.5669 17.535 60.6239 17.5005 60.6738C17.466 60.7237 17.4207 60.7652 17.368 60.7952C17.0094 61.0016 16.6101 61.0818 16.17 61.0356C16.0944 61.0271 16.0181 61.0436 15.9529 61.0827C15.8877 61.1219 15.8371 61.1814 15.8091 61.2521C15.781 61.3228 15.777 61.4007 15.7977 61.4739C15.8184 61.5471 15.8626 61.6115 15.9234 61.657C16.2522 61.9083 16.6101 61.928 16.9972 61.7161C17.0093 61.7094 17.0227 61.7055 17.0365 61.7046C17.0503 61.7037 17.0641 61.7059 17.0769 61.7109C17.0898 61.716 17.1013 61.7238 17.1108 61.7339C17.1203 61.744 17.1274 61.756 17.1317 61.7691C17.1507 61.8262 17.1521 61.8771 17.1358 61.9219C17.1222 61.96 17.0889 61.9898 17.0359 62.0116Z" fill="black"/>
<path d="M21.4718 60.6917C21.4707 60.6757 21.4645 60.6604 21.4539 60.6483C21.4434 60.6362 21.4291 60.6279 21.4134 60.6247C21.3977 60.6214 21.3813 60.6234 21.3668 60.6304C21.3523 60.6374 21.3405 60.6489 21.3332 60.6632L20.5488 62.063C20.5245 62.1075 20.4867 62.1431 20.4408 62.1646C20.3949 62.1862 20.3433 62.1925 20.2936 62.1828C20.2438 62.173 20.1985 62.1476 20.1641 62.1103C20.1298 62.073 20.1082 62.0257 20.1026 61.9754L19.8642 60.0662C19.8622 60.0506 19.8634 60.0348 19.8677 60.0197C19.8721 60.0046 19.8794 59.9905 19.8893 59.9783C19.8992 59.9662 19.9115 59.9561 19.9254 59.9488C19.9393 59.9415 19.9545 59.9371 19.9702 59.9358L20.0741 59.9277C20.1151 59.9248 20.1555 59.9379 20.1868 59.9642C20.218 59.9905 20.2375 60.0278 20.2411 60.0683L20.3817 61.5332C20.3837 61.55 20.391 61.5656 20.4025 61.578C20.414 61.5903 20.4291 61.5987 20.4457 61.6019C20.4622 61.605 20.4794 61.6029 20.4946 61.5957C20.5099 61.5884 20.5224 61.5766 20.5305 61.5617L21.3455 60.0112C21.3656 59.9721 21.3977 59.9407 21.4372 59.9216C21.4767 59.9025 21.5214 59.8967 21.5647 59.9052C21.6079 59.9136 21.6474 59.9359 21.6773 59.9686C21.7072 60.0012 21.7259 60.0426 21.7306 60.0866L21.8711 61.468C21.8733 61.493 21.8835 61.5166 21.9001 61.5353C21.9167 61.554 21.939 61.5669 21.9637 61.5721C21.9884 61.5774 22.0143 61.5746 22.0375 61.5643C22.0608 61.554 22.0803 61.5367 22.0932 61.5149C22.3866 61.0191 22.6209 60.5274 22.7962 60.0397C22.8356 59.9297 22.9334 59.8998 23.0896 59.9501C23.1453 59.9691 23.1656 60.0064 23.1507 60.0621C22.9279 60.854 22.5245 61.54 21.9404 62.12C21.9142 62.1459 21.8813 62.1639 21.8453 62.1719C21.8094 62.1799 21.7719 62.1776 21.7372 62.1653C21.7025 62.153 21.672 62.1311 21.6492 62.1021C21.6264 62.0732 21.6122 62.0385 21.6083 62.0018L21.4718 60.6917Z" fill="black"/>
<path d="M25.4425 60.1542C25.5337 60.2487 25.601 60.3646 25.6403 60.4953C25.6797 60.626 25.6905 60.7689 25.672 60.9159C25.6535 61.0629 25.6061 61.2111 25.5326 61.352C25.459 61.4929 25.3608 61.6238 25.2433 61.7372C25.1259 61.8506 24.9917 61.9442 24.8483 62.0128C24.7049 62.0814 24.5552 62.1235 24.4076 62.1369C24.2601 62.1502 24.1176 62.1345 23.9883 62.0906C23.8591 62.0466 23.7456 61.9754 23.6543 61.8809C23.5631 61.7864 23.4958 61.6705 23.4565 61.5398C23.4171 61.4091 23.4063 61.2662 23.4248 61.1192C23.4433 60.9722 23.4907 60.824 23.5642 60.6831C23.6378 60.5421 23.736 60.4113 23.8534 60.2979C23.9709 60.1845 24.1051 60.0908 24.2485 60.0223C24.3919 59.9537 24.5416 59.9115 24.6892 59.8982C24.8367 59.8848 24.9792 59.9005 25.1085 59.9445C25.2377 59.9884 25.3512 60.0596 25.4425 60.1542Z" fill="black"/>
<path d="M27.0686 60.0821C27.2534 59.9286 27.4673 59.8831 27.7105 59.9456C27.7373 59.9523 27.7606 59.9688 27.776 59.9917C27.7915 60.0147 27.7978 60.0425 27.794 60.0699L27.7797 60.1819C27.7702 60.258 27.7274 60.2899 27.6514 60.2777C26.7406 60.1432 26.598 61.2537 26.5104 61.9872C26.4995 62.0754 26.4492 62.1196 26.3596 62.1196H26.2129C26.195 62.1197 26.1774 62.1158 26.1613 62.1082C26.1451 62.1005 26.1309 62.0893 26.1198 62.0754C26.1086 62.0615 26.1007 62.0452 26.0967 62.0278C26.0927 62.0104 26.0928 61.9923 26.0968 61.9749L26.5348 60.023C26.5579 59.9238 26.6102 59.9048 26.6917 59.9659L26.8547 60.0882C26.9281 60.1425 26.9994 60.1405 27.0686 60.0821Z" fill="black"/>
<path d="M31.6468 61.9794C31.6028 61.9532 31.565 61.9176 31.5362 61.875C31.5073 61.8324 31.488 61.7839 31.4797 61.7329C31.3235 60.7304 31.7147 60.1131 32.6533 59.8808C32.6908 59.872 32.7297 59.8718 32.7672 59.8802C32.8046 59.8887 32.8395 59.9056 32.8693 59.9297C33.0989 60.1185 33.3271 60.1226 33.5539 59.9419C33.5695 59.9294 33.5887 59.9221 33.6087 59.921C33.6287 59.92 33.6485 59.9252 33.6654 59.936C33.6823 59.9468 33.6953 59.9626 33.7027 59.9812C33.7101 59.9998 33.7115 60.0203 33.7067 60.0397L33.2483 61.9977C33.2408 62.03 33.2231 62.0591 33.1979 62.0806C33.1726 62.1021 33.1412 62.1149 33.1081 62.1172C33.075 62.1195 33.0421 62.1111 33.0141 62.0933C32.9862 62.0754 32.9647 62.0491 32.9528 62.0181L32.8836 61.8429C32.8785 61.8293 32.87 61.8171 32.8589 61.8077C32.8478 61.7983 32.8345 61.7918 32.8202 61.7889C32.8059 61.7861 32.7911 61.7869 32.7773 61.7914C32.7634 61.7958 32.7509 61.8037 32.7409 61.8144C32.4204 62.1635 32.0557 62.2185 31.6468 61.9794Z" fill="black"/>
<path d="M35.7181 60.2453C34.6831 60.1169 34.5893 61.3109 34.4712 62.0158C34.4589 62.0851 34.4182 62.1198 34.3489 62.1198H34.2124C34.195 62.1198 34.1779 62.116 34.1622 62.1086C34.1464 62.1012 34.1326 62.0903 34.1217 62.0768C34.1107 62.0633 34.1029 62.0475 34.0989 62.0306C34.0948 62.0137 34.0946 61.9962 34.0983 61.9792L34.5343 60.0232C34.5561 59.924 34.6077 59.905 34.6892 59.9661L34.8726 60.1026C34.9201 60.1379 34.9717 60.1447 35.0274 60.123C36.8795 59.414 36.1969 61.1397 35.9708 61.9649C35.9585 62.0111 35.9293 62.0423 35.8832 62.0586L35.7405 62.1116C35.7221 62.1187 35.702 62.1206 35.6826 62.1171C35.6631 62.1136 35.6449 62.1048 35.6299 62.0917C35.6149 62.0785 35.6036 62.0615 35.5973 62.0424C35.5909 62.0234 35.5897 62.0029 35.5938 61.9832L35.9035 60.5061C35.9097 60.4765 35.9097 60.4459 35.9036 60.4163C35.8974 60.3868 35.8853 60.3588 35.8678 60.3343C35.8504 60.3098 35.8281 60.2892 35.8023 60.2739C35.7765 60.2585 35.7479 60.2488 35.7181 60.2453Z" fill="black"/>
<path d="M41.3915 59.9661L41.312 59.948C41.233 59.9301 41.1544 59.9796 41.1364 60.0586L40.7085 61.9421C40.6906 62.0211 40.7401 62.0997 40.8191 62.1177L40.8985 62.1357C40.9775 62.1537 41.0561 62.1042 41.0741 62.0252L41.502 60.1416C41.52 60.0626 41.4705 59.984 41.3915 59.9661Z" fill="black"/>
<path d="M42.835 60.1801C43.2893 59.8745 44.2836 59.7257 44.088 60.6426C43.9902 61.099 43.8714 61.55 43.7315 61.9955C43.7097 62.0661 43.6595 62.1103 43.5807 62.1279C43.5596 62.133 43.5375 62.1325 43.5166 62.1266C43.4957 62.1206 43.4766 62.1094 43.4612 62.0939C43.4457 62.0785 43.4344 62.0593 43.4282 62.0381C43.422 62.017 43.4212 61.9946 43.4258 61.9731L43.6907 60.7037C43.7654 60.3519 43.6248 60.2011 43.269 60.2514C42.5945 60.3472 42.4336 61.1316 42.3093 61.8692C42.2903 61.9846 42.2495 62.0607 42.187 62.0974C42.1259 62.1341 42.0573 62.1381 41.9813 62.1096C41.9215 62.0879 41.8984 62.0464 41.912 61.9853L42.3561 60.0191C42.3618 59.9952 42.3744 59.9733 42.3922 59.9562C42.41 59.9392 42.4323 59.9276 42.4564 59.9231C42.4804 59.9185 42.5052 59.9211 42.5276 59.9306C42.5499 59.9401 42.569 59.956 42.5823 59.9763L42.7005 60.1516C42.7372 60.2059 42.782 60.2154 42.835 60.1801Z" fill="black"/>
<path d="M49.3507 61.8892C47.193 63.0078 47.9163 59.1406 49.7786 60.0819C49.837 60.1118 49.894 60.1091 49.9497 60.0738L50.1759 59.9332C50.1903 59.9237 50.2071 59.9187 50.2244 59.919C50.2416 59.9192 50.2583 59.9246 50.2724 59.9345C50.2865 59.9444 50.2973 59.9583 50.3033 59.9745C50.3094 59.9906 50.3104 60.0082 50.3063 60.0249L49.8723 61.989C49.8672 62.0119 49.856 62.0329 49.84 62.05C49.8239 62.067 49.8035 62.0795 49.781 62.0859C49.7585 62.0924 49.7347 62.0927 49.712 62.0867C49.6894 62.0808 49.6687 62.0689 49.6523 62.0522L49.5117 61.9136C49.4641 61.8661 49.4105 61.858 49.3507 61.8892Z" fill="black"/>
<path d="M55.3491 60.1108L55.8972 59.9091C55.9251 59.8991 55.9552 59.8964 55.9844 59.9013C56.0137 59.9063 56.0412 59.9186 56.0643 59.9372C56.0874 59.9558 56.1054 59.9801 56.1164 60.0076C56.1275 60.0352 56.1313 60.0651 56.1274 60.0945C56.1084 60.2426 56.0228 60.3118 55.8707 60.3023C54.9864 60.2412 54.907 61.3476 54.801 61.9853C54.7793 62.1184 54.6876 62.1558 54.526 62.0974C54.454 62.0716 54.4254 62.0213 54.4404 61.9466L54.8418 60.0151C54.846 59.9953 54.8551 59.977 54.8682 59.9617C54.8813 59.9464 54.8981 59.9347 54.917 59.9276C54.9359 59.9205 54.9562 59.9182 54.9762 59.9211C54.9962 59.9239 55.0151 59.9317 55.0312 59.9437L55.2309 60.0945C55.2479 60.1064 55.2675 60.1141 55.288 60.117C55.3086 60.1198 55.3295 60.1177 55.3491 60.1108Z" fill="black"/>
<path d="M57.721 61.4412C57.9261 60.9957 58.0783 60.5311 58.1774 60.0476C58.1992 59.9443 58.2644 59.9049 58.373 59.9294C58.479 59.9525 58.5197 60.017 58.4953 60.123L58.0694 62.03C58.0436 62.1414 57.9873 62.1598 57.9003 62.0851L57.6864 61.8997C57.6416 61.8616 57.592 61.8528 57.5377 61.8732C57.1933 62.0076 56.9121 62.3275 56.5271 62.0015C56.1562 61.6878 56.5169 60.4123 56.6473 60.0679C56.6935 59.9443 56.777 59.9002 56.8979 59.9355C56.9276 59.9446 56.9528 59.9643 56.9686 59.9907C56.9845 60.0171 56.9898 60.0483 56.9835 60.0781L56.6901 61.5146C56.6797 61.5661 56.6838 61.6195 56.7021 61.6689C56.7203 61.7182 56.752 61.7615 56.7934 61.7938C56.8349 61.8262 56.8845 61.8464 56.9368 61.8521C56.9891 61.8578 57.0419 61.8489 57.0894 61.8263L57.5784 61.5879C57.6436 61.5567 57.6912 61.5078 57.721 61.4412Z" fill="black"/>
<path d="M60.445 61.9463C58.2547 62.855 58.5155 59.7356 60.5714 59.9414C60.6434 59.9482 60.6991 59.9815 60.7384 60.0413L60.8383 60.192C60.8556 60.2194 60.8629 60.2519 60.8587 60.284C60.8546 60.3161 60.8393 60.3458 60.8156 60.3678C60.7919 60.3898 60.7612 60.4029 60.7288 60.4046C60.6965 60.4064 60.6646 60.3968 60.6386 60.3775C59.8949 59.8049 59.2592 60.6729 59.3489 61.3982C59.3998 61.8139 59.8521 61.9647 60.1578 61.7202C60.2447 61.6509 60.3187 61.6162 60.3798 61.6162C60.4198 61.6159 60.4586 61.6294 60.4896 61.6546C60.5205 61.6798 60.5417 61.7151 60.5494 61.7542C60.5572 61.7934 60.551 61.834 60.5319 61.8691C60.5129 61.9042 60.4821 61.9315 60.445 61.9463Z" fill="black"/>
<path d="M64.3469 61.8975C64.3384 61.8778 64.3253 61.8604 64.3086 61.8469C64.2919 61.8333 64.2722 61.8241 64.2512 61.8199C64.2301 61.8157 64.2083 61.8166 64.1877 61.8227C64.1672 61.8288 64.1483 61.8398 64.1329 61.8547C63.8164 62.1576 63.4599 62.2038 63.0633 61.9933C63.0146 61.9677 62.9754 61.9274 62.9512 61.8784C62.9271 61.8293 62.9192 61.7739 62.9288 61.7202L63.2242 60.078C63.2419 59.9788 63.301 59.9293 63.4015 59.9293H63.5278C63.5449 59.9291 63.5617 59.9328 63.5772 59.9402C63.5926 59.9475 63.6061 59.9583 63.6167 59.9716C63.6273 59.985 63.6347 60.0006 63.6384 60.0173C63.6421 60.034 63.6419 60.0512 63.6378 60.0678L63.3241 61.4452C63.3139 61.4907 63.3149 61.538 63.3268 61.5831C63.3388 61.6282 63.3614 61.6697 63.3927 61.7043C63.424 61.7388 63.4632 61.7653 63.5069 61.7816C63.5507 61.7978 63.5976 61.8033 63.6439 61.7977C64.4854 61.6958 64.6444 60.8095 64.7136 60.1228C64.7218 60.0359 64.7673 59.9816 64.8501 59.9598L64.9846 59.9252C65.0036 59.9206 65.0235 59.9208 65.0423 59.9259C65.0612 59.9309 65.0784 59.9407 65.0923 59.9542C65.1063 59.9677 65.1164 59.9845 65.1218 60.003C65.1272 60.0214 65.1277 60.041 65.1232 60.0597L64.7116 61.977C64.6939 62.0612 64.6423 62.0958 64.5567 62.0809C64.4603 62.0632 64.3903 62.0021 64.3469 61.8975Z" fill="black"/>
<path d="M66.2435 60.5938L65.8666 62.0363C65.8516 62.092 65.8156 62.1199 65.7586 62.1199H65.6404C65.5453 62.1199 65.508 62.073 65.5283 61.9793L65.946 60.009C65.9664 59.9099 66.0167 59.8908 66.0968 59.952L66.3474 60.1414C66.3712 60.1589 66.4005 60.1673 66.4297 60.1651C66.4589 60.1628 66.4861 60.1501 66.5063 60.1292C66.6829 59.9486 66.8935 59.8895 67.138 59.952C67.1634 59.9587 67.1861 59.9733 67.2026 59.9938C67.2192 60.0142 67.2289 60.0394 67.2302 60.0657C67.2316 60.092 67.2246 60.118 67.2102 60.14C67.1958 60.1621 67.1748 60.179 67.1502 60.1883L66.3556 60.4695C66.3284 60.4796 66.3041 60.4962 66.2846 60.5178C66.2651 60.5395 66.251 60.5655 66.2435 60.5938Z" fill="black"/>
<path d="M68.8111 62.0768C66.3396 62.356 67.2972 59.7887 68.9354 59.9599C69.2274 59.9911 69.3999 60.1344 69.4529 60.3898C69.4668 60.4573 69.461 60.5275 69.4361 60.5918C69.4111 60.6562 69.3681 60.7119 69.3123 60.7525C68.913 61.0431 68.4654 61.128 67.9696 61.0071C67.9309 60.9981 67.8904 61.0025 67.8548 61.0195C67.8192 61.0366 67.7906 61.0653 67.774 61.1009C67.6789 61.3033 67.6979 61.4948 67.8311 61.6754C67.8786 61.7406 67.9418 61.7807 68.0205 61.7957C68.3411 61.8554 68.6481 61.8316 68.9415 61.7243C69.0474 61.6863 69.0902 61.7223 69.0699 61.8323C69.044 61.979 68.9578 62.0605 68.8111 62.0768Z" fill="black"/>
<path d="M72.7008 60.3718C71.8716 59.7972 71.4254 60.7528 71.3928 61.4761C71.3915 61.5099 71.3986 61.5436 71.4135 61.5742C71.4284 61.6048 71.4507 61.6313 71.4783 61.6513C71.8261 61.8999 72.1684 61.8836 72.5052 61.6024C72.5161 61.5934 72.529 61.5872 72.5429 61.5842C72.5567 61.5813 72.571 61.5818 72.5846 61.5856C72.5982 61.5894 72.6107 61.5964 72.621 61.6061C72.6313 61.6158 72.6391 61.6278 72.6438 61.6411C72.6737 61.7308 72.6567 61.8007 72.5929 61.851C72.1609 62.1824 71.7065 62.2116 71.2298 61.9386C71.1708 61.9059 71.1264 61.852 71.1055 61.7878C70.755 60.7141 71.731 59.461 72.9087 60.0987C73.0051 60.1504 73.0153 60.2162 72.9392 60.2964L72.8863 60.3514C72.8631 60.3763 72.8318 60.392 72.7978 60.3957C72.7638 60.3995 72.7294 60.391 72.7008 60.3718Z" fill="black"/>
<path d="M75.1736 60.1482C75.2655 60.2428 75.3335 60.3589 75.3735 60.49C75.4136 60.621 75.4249 60.7644 75.4069 60.912C75.389 61.0596 75.342 61.2085 75.2687 61.3502C75.1955 61.4918 75.0973 61.6235 74.9799 61.7377C74.7428 61.9682 74.4417 62.1135 74.1427 62.1415C73.8437 62.1694 73.5714 62.0779 73.3857 61.8869C73.2937 61.7923 73.2258 61.6762 73.1857 61.5451C73.1457 61.4141 73.1343 61.2706 73.1523 61.123C73.1703 60.9754 73.2173 60.8266 73.2905 60.6849C73.3638 60.5432 73.462 60.4116 73.5793 60.2974C73.8164 60.0668 74.1176 59.9216 74.4166 59.8936C74.7156 59.8656 74.9879 59.9572 75.1736 60.1482Z" fill="black"/>
<path d="M78.1347 60.274C78.5849 59.948 79.074 59.6505 79.4509 60.2617C79.4848 60.3166 79.4958 60.3818 79.4814 60.4431L79.1514 61.9651C79.1423 62.0068 79.1213 62.0451 79.091 62.0751C79.0606 62.1051 79.0221 62.1257 78.9802 62.1342C78.8322 62.1654 78.7724 62.1125 78.8009 61.9753C78.9082 61.4781 78.9979 60.9993 79.0699 60.5388C79.0781 60.4871 79.0724 60.4341 79.0534 60.3853C79.0344 60.3364 79.0027 60.2935 78.9616 60.261C78.9206 60.2284 78.8716 60.2074 78.8197 60.2C78.7679 60.1926 78.715 60.1991 78.6664 60.2189C77.6844 60.6163 77.9533 61.2744 77.6151 62.071C77.5981 62.1092 77.5676 62.1397 77.5294 62.1566C77.4912 62.1736 77.4481 62.1759 77.4084 62.163C77.3687 62.1501 77.3352 62.1229 77.3142 62.0868C77.2933 62.0506 77.2866 62.008 77.2952 61.9671L77.6151 60.5979C77.6274 60.5457 77.6261 60.4913 77.6114 60.4398C77.5966 60.3882 77.5689 60.3413 77.5309 60.3035C77.4929 60.2657 77.4459 60.2383 77.3943 60.2239C77.3427 60.2094 77.2882 60.2084 77.2361 60.221C76.4252 60.4166 76.3131 61.2357 76.2214 61.9895C76.2106 62.0765 76.1617 62.1199 76.0747 62.1199H75.9301C75.914 62.12 75.8981 62.1164 75.8835 62.1095C75.8689 62.1026 75.8561 62.0925 75.846 62.08C75.8358 62.0675 75.8286 62.0529 75.8248 62.0373C75.821 62.0216 75.8208 62.0053 75.8241 61.9895L76.2602 60.0091C76.2641 59.9902 76.273 59.9726 76.2859 59.9582C76.2989 59.9438 76.3154 59.9331 76.3337 59.9271C76.3521 59.9211 76.3718 59.9201 76.3907 59.9241C76.4096 59.9281 76.4271 59.937 76.4415 59.95L76.6534 60.1436C76.6735 60.1623 76.6998 60.173 76.7275 60.1737C76.7552 60.1745 76.7824 60.1652 76.8042 60.1476C77.2361 59.8013 77.6273 59.8366 77.9778 60.2536C78.024 60.3093 78.0763 60.3161 78.1347 60.274Z" fill="black"/>
<path d="M80.3435 61.9627L80.1377 62.8205C80.1296 62.8531 80.1109 62.882 80.0847 62.9027C80.0585 62.9234 80.0262 62.9346 79.9931 62.9346H79.8443C79.8311 62.9346 79.8179 62.9317 79.806 62.9259C79.794 62.9202 79.7835 62.9118 79.7753 62.9014C79.7671 62.891 79.7613 62.8789 79.7584 62.8659C79.7556 62.8529 79.7557 62.8395 79.7587 62.8266L80.4026 60.0536C80.4088 60.0271 80.422 60.0027 80.4408 59.983C80.4595 59.9633 80.4832 59.9489 80.5094 59.9415C80.5356 59.934 80.5633 59.9336 80.5896 59.9404C80.616 59.9473 80.6401 59.961 80.6593 59.9802L80.806 60.1269C80.859 60.1799 80.9154 60.1833 80.9751 60.1371C81.3025 59.8858 81.6495 59.8634 82.0163 60.0699C82.0733 60.1025 82.1114 60.15 82.1304 60.2125C82.4462 61.1885 81.5905 62.686 80.4617 61.9158C80.4006 61.8737 80.3612 61.8894 80.3435 61.9627Z" fill="black"/>
<path d="M84.0433 61.8284C83.9781 61.8583 83.9211 61.8936 83.8722 61.9343C82.3706 63.2078 82.1729 59.09 84.4753 60.0863C84.5364 60.1121 84.5941 60.1067 84.6485 60.07L84.84 59.9437C84.8524 59.9353 84.867 59.9308 84.882 59.9308C84.897 59.9307 84.9116 59.9351 84.9241 59.9434C84.9365 59.9517 84.9462 59.9635 84.952 59.9774C84.9577 59.9912 84.9591 60.0065 84.9561 60.0211L84.5201 61.9792C84.5079 62.0349 84.4739 62.0654 84.4182 62.0709C84.2865 62.0804 84.1996 62.0172 84.1574 61.8814C84.1384 61.8216 84.1004 61.8039 84.0433 61.8284Z" fill="black"/>
<path d="M86.3171 60.1269C86.5561 59.9925 86.8217 59.9259 87.1138 59.9273C87.1794 59.9273 87.2442 59.9418 87.3036 59.9698C87.363 59.9978 87.4155 60.0385 87.4574 60.0891C87.4992 60.1397 87.5294 60.1989 87.5457 60.2625C87.562 60.3261 87.5641 60.3925 87.5518 60.457C87.454 60.9759 87.3426 61.4785 87.2177 61.9648C87.1756 62.1332 87.0744 62.1801 86.9141 62.1054C86.8543 62.0768 86.8312 62.0306 86.8448 61.9668L87.1484 60.6098C87.1575 60.5697 87.158 60.5281 87.15 60.4877C87.142 60.4473 87.1255 60.409 87.1018 60.3752C87.078 60.3414 87.0474 60.313 87.0119 60.2916C86.9764 60.2703 86.9368 60.2565 86.8957 60.2512C85.9666 60.131 85.8464 61.3739 85.7018 62.0014C85.6841 62.0816 85.6339 62.121 85.551 62.1196C85.5265 62.1196 85.5021 62.1196 85.4776 62.1196C85.388 62.1196 85.3527 62.0761 85.3717 61.9892L85.767 60.0638C85.7712 60.0414 85.7814 60.0206 85.7963 60.0035C85.8113 59.9864 85.8305 59.9735 85.8521 59.9663C85.8736 59.959 85.8967 59.9576 85.919 59.9622C85.9413 59.9668 85.9619 59.9773 85.9789 59.9925L86.1093 60.1045C86.1731 60.1602 86.2424 60.1677 86.3171 60.1269Z" fill="black"/>
<path d="M16.1215 60.9214C16.1099 60.9246 16.0975 60.9233 16.0868 60.9176C16.0762 60.9119 16.0682 60.9023 16.0644 60.8909L16.0604 60.8746C16.0414 60.8085 16.037 60.7388 16.0477 60.6697C16.0583 60.6005 16.0836 60.5332 16.1222 60.4715C16.1608 60.4098 16.2119 60.355 16.2726 60.3102C16.3333 60.2654 16.4024 60.2314 16.476 60.2103L16.527 60.1961C16.6005 60.1749 16.6771 60.167 16.7524 60.1727C16.8276 60.1785 16.9 60.1978 16.9655 60.2296C17.031 60.2614 17.0882 60.305 17.1339 60.358C17.1796 60.411 17.2129 60.4723 17.2319 60.5384L17.236 60.5547C17.2391 60.5666 17.2375 60.5792 17.2314 60.5899C17.2253 60.6005 17.2152 60.6084 17.2034 60.6117L16.1215 60.9214Z" fill="white"/>
<path d="M69.0452 60.5181C69.0495 60.5289 69.0515 60.5405 69.0513 60.5521C69.051 60.5637 69.0484 60.5752 69.0437 60.5858C69.0389 60.5964 69.0321 60.606 69.0237 60.614C69.0152 60.6219 69.0052 60.6281 68.9943 60.6322L68.7702 60.7198C68.5671 60.798 68.3619 60.8454 68.1995 60.8515C68.0372 60.8576 67.931 60.822 67.9042 60.7524L67.8879 60.7137C67.8747 60.6792 67.8814 60.6374 67.9078 60.5906C67.9341 60.5439 67.9795 60.4932 68.0414 60.4413C68.1033 60.3895 68.1804 60.3375 68.2684 60.2885C68.3564 60.2394 68.4535 60.1942 68.5542 60.1554L68.7783 60.0698C68.8 60.0619 68.8238 60.0628 68.8448 60.0723C68.8658 60.0818 68.8822 60.0993 68.8904 60.1208L69.0452 60.5181Z" fill="white"/>
<path d="M24.0049 60.6616C23.7416 61.0796 23.7753 61.5741 24.08 61.766C24.3847 61.9578 24.8451 61.7745 25.1083 61.3565C25.3716 60.9385 25.3379 60.4441 25.0332 60.2522C24.7285 60.0603 24.2681 60.2436 24.0049 60.6616Z" fill="white"/>
<path d="M37.3627 60.6887C37.1074 61.1037 37.1265 61.5792 37.4054 61.7508C37.6843 61.9223 38.1174 61.725 38.3727 61.31C38.628 60.895 38.6089 60.4195 38.33 60.2479C38.0511 60.0763 37.618 60.2737 37.3627 60.6887Z" fill="white"/>
<path d="M73.7176 60.6661C73.4633 61.0844 73.5096 61.577 73.8212 61.7664C74.1327 61.9558 74.5914 61.7703 74.8457 61.352C75.1 60.9338 75.0536 60.4412 74.7421 60.2518C74.4306 60.0624 73.9719 60.2479 73.7176 60.6661Z" fill="white"/>
<path d="M9.4683 60.6889C9.2036 61.106 9.21084 61.5849 9.48447 61.7585C9.7581 61.9322 10.1945 61.7348 10.4592 61.3177C10.7239 60.9006 10.7167 60.4217 10.443 60.2481C10.1694 60.0744 9.73299 60.2718 9.4683 60.6889Z" fill="white"/>
<path d="M31.9983 60.6863C31.7308 61.103 31.7335 61.5817 32.0044 61.7555C32.2752 61.9294 32.7116 61.7326 32.9791 61.3159C33.2465 60.8993 33.2438 60.4206 32.973 60.2467C32.7022 60.0728 32.2658 60.2697 31.9983 60.6863Z" fill="white"/>
<path d="M48.5797 60.6962C48.3159 61.1085 48.3242 61.5849 48.5982 61.7601C48.8722 61.9353 49.3081 61.743 49.5718 61.3307C49.8355 60.9183 49.8272 60.4419 49.5532 60.2667C49.2793 60.0915 48.8434 60.2838 48.5797 60.6962Z" fill="white"/>
<path d="M80.6706 60.7291C80.4211 61.1477 80.4445 61.6215 80.7228 61.7874C81.0012 61.9534 81.4291 61.7486 81.6786 61.3301C81.9281 60.9115 81.9047 60.4377 81.6263 60.2718C81.348 60.1059 80.92 60.3106 80.6706 60.7291Z" fill="white"/>
<path d="M83.2387 60.6873C82.9774 61.1038 82.9881 61.5811 83.2627 61.7533C83.5372 61.9256 83.9716 61.7275 84.2329 61.3109C84.4942 60.8943 84.4835 60.417 84.209 60.2448C83.9344 60.0726 83.5 60.2707 83.2387 60.6873Z" fill="white"/>
</g>
<defs>
<clipPath id="clip0_29_2592">
<rect width="98" height="92" fill="white" transform="translate(1 4)"/>
</clipPath>
</defs>
</svg>
