<svg width="100" height="100" viewBox="0 0 100 100" fill="none" xmlns="http://www.w3.org/2000/svg">
<g clip-path="url(#clip0_30_4603)">
<rect width="100" height="100" fill="white"/>
<g clip-path="url(#clip1_30_4603)">
<path d="M-12 6H112V89H-12V6Z" fill="white"/>
<path d="M67.5776 33.2022C66.9478 32.6744 66.8127 31.7784 67.0548 31.0348C67.7931 28.7648 71.9204 29.3284 71.2829 32.1684C70.9204 33.7792 68.7273 34.1665 67.5776 33.2022Z" fill="#1E228C"/>
<path d="M60.6721 36.6004L60.6707 31.0293C60.6707 31.0007 60.6849 30.985 60.7134 30.9822L64.5152 30.5936C64.5381 30.5912 64.5495 30.6016 64.5495 30.6245L64.574 46.5878C64.5742 46.5985 64.5704 46.6089 64.5632 46.6169C64.5561 46.6248 64.5462 46.6298 64.5355 46.6306L62.4621 46.8232C62.4418 46.825 62.4213 46.8225 62.4019 46.816C62.3825 46.8095 62.3647 46.799 62.3494 46.7853C61.5097 46.0269 60.3152 46.7016 59.493 47.1191C56.8653 48.4523 53.4525 47.7411 52.6261 44.5834C51.7346 41.1791 53.1992 37.0649 57.0151 36.3424C58.2537 36.1077 59.4699 36.1958 60.6637 36.6067C60.6693 36.609 60.6721 36.6069 60.6721 36.6004Z" fill="#1E228C"/>
<path d="M32.4551 34.9438L36.2794 34.6753C36.2823 34.6751 36.2852 34.6756 36.2879 34.6765C36.2906 34.6775 36.2931 34.679 36.2952 34.681C36.2973 34.683 36.2989 34.6854 36.3001 34.688C36.3012 34.6907 36.3018 34.6935 36.3018 34.6964V50.6934C36.3018 50.6988 36.2998 50.7039 36.2962 50.7079C36.2925 50.7118 36.2875 50.7142 36.2822 50.7145L32.4579 50.9879C32.4551 50.9881 32.4522 50.9877 32.4495 50.9867C32.4468 50.9857 32.4443 50.9842 32.4422 50.9822C32.4401 50.9803 32.4384 50.9779 32.4373 50.9752C32.4361 50.9726 32.4355 50.9697 32.4355 50.9668V34.9649C32.4355 34.9595 32.4376 34.9544 32.4412 34.9505C32.4448 34.9465 32.4498 34.9442 32.4551 34.9438Z" fill="#1E228C"/>
<path d="M24.5612 35.7964C24.5762 35.7986 24.5904 35.8045 24.6025 35.8138C24.6146 35.823 24.6242 35.8352 24.6304 35.8491L28.5177 44.5989C28.5279 44.6219 28.5209 44.6357 28.4967 44.6404C25.361 45.2799 22.9699 47.3075 20.4206 49.0842C18.9651 50.099 17.3248 50.9367 15.5656 51.2417C14.975 51.3443 14.2696 51.3703 13.6251 51.409C13.5938 51.4109 13.5843 51.3975 13.5964 51.3689L20.2505 35.2173C20.2631 35.1869 20.2855 35.174 20.3177 35.1787L24.5612 35.7964Z" fill="#1E228C"/>
<path d="M67.2273 35.5019L71.076 35.419C71.0789 35.4189 71.0818 35.4194 71.0845 35.4204C71.0873 35.4215 71.0897 35.4231 71.0918 35.4251C71.0939 35.4271 71.0956 35.4295 71.0967 35.4322C71.0978 35.4349 71.0984 35.4378 71.0984 35.4407V46.3207C71.0984 46.3264 71.0962 46.3318 71.0923 46.3359C71.0884 46.3399 71.083 46.3423 71.0774 46.3425L67.228 46.4114C67.225 46.4115 67.2222 46.411 67.2194 46.4099C67.2167 46.4089 67.2143 46.4073 67.2122 46.4052C67.2101 46.4032 67.2084 46.4008 67.2073 46.3981C67.2061 46.3954 67.2056 46.3925 67.2056 46.3896L67.2063 35.5237C67.2063 35.518 67.2085 35.5126 67.2124 35.5085C67.2163 35.5044 67.2216 35.5021 67.2273 35.5019Z" fill="#1E228C"/>
<path d="M73.7502 46.4748C73.7426 46.4745 73.7355 46.4712 73.7303 46.4657C73.7251 46.4602 73.7222 46.4529 73.7222 46.4453V35.585C73.7222 35.5597 73.7348 35.5482 73.76 35.5506L76.0944 35.7446C76.116 35.7463 76.136 35.7564 76.1504 35.7727C76.9341 36.6603 77.9474 36.4263 78.9859 36.2295C82.0243 35.6553 84.8269 37.5156 85.4049 40.5643C85.466 40.8862 85.4961 41.3334 85.4952 41.906C85.4919 44.1155 85.4956 46.3249 85.5064 48.534C85.5064 48.5617 85.4931 48.5715 85.4665 48.5635C84.2055 48.1831 82.9324 47.8481 81.6471 47.5585C81.6247 47.5539 81.6135 47.5398 81.6135 47.5164C81.6107 45.8414 81.6107 44.1668 81.6135 42.4928C81.6149 41.8261 81.5823 41.3604 81.5156 41.0956C81.0551 39.2698 79.2014 39.2136 77.6521 39.4673C77.6392 39.4694 77.6275 39.476 77.619 39.486C77.6106 39.4959 77.6059 39.5084 77.6059 39.5214V46.8122C77.6059 46.8337 77.5954 46.8431 77.5744 46.8403C76.3036 46.6758 75.0289 46.554 73.7502 46.4748Z" fill="#1E228C"/>
<path d="M46.643 48.0821C46.6429 48.077 46.6411 48.0721 46.6379 48.0681C46.6347 48.0641 46.6303 48.0613 46.6254 48.0601C46.6204 48.0589 46.6152 48.0594 46.6106 48.0615C46.6059 48.0635 46.6021 48.0671 46.5996 48.0716C45.7942 49.591 44.1154 50.1069 42.4885 49.9698C38.8412 49.662 37.8692 46.2731 38.483 43.1907C39.1568 39.8046 42.0105 38.1186 45.2883 38.5473C46.4534 38.6998 47.4918 39.1552 48.396 38.075C48.4118 38.0568 48.4316 38.0455 48.4554 38.0413L50.4743 37.7208C50.4962 37.7176 50.5072 37.7272 50.5072 37.7497V48.591C50.5072 48.6167 50.4946 48.6315 50.4694 48.6352L46.6584 49.2368C46.6435 49.2392 46.6363 49.2328 46.6367 49.2179L46.643 48.0821Z" fill="#1E228C"/>
<path d="M23.0547 43.0941C22.9623 43.0639 22.9371 43.1061 22.8692 43.1356C21.6918 43.6589 20.6323 44.3634 19.6909 45.2489C19.6903 45.2496 19.6895 45.2501 19.6886 45.2503C19.6876 45.2504 19.6867 45.2502 19.686 45.2496C19.6852 45.249 19.6847 45.2482 19.6846 45.2473C19.6845 45.2464 19.6847 45.2454 19.6853 45.2447L22.2443 39.1564C22.2463 39.1517 22.2496 39.1477 22.2538 39.1448C22.258 39.1419 22.263 39.1403 22.268 39.1401C22.2731 39.14 22.2781 39.1413 22.2825 39.1439C22.2869 39.1466 22.2904 39.1504 22.2926 39.155L24.3199 43.4919C24.3216 43.4958 24.3221 43.5 24.3215 43.5042C24.3208 43.5083 24.3189 43.5122 24.3161 43.5153C24.3133 43.5185 24.3097 43.5207 24.3056 43.5218C24.3015 43.5229 24.2973 43.5227 24.2933 43.5214C23.886 43.3767 23.4731 43.2342 23.0547 43.0941Z" fill="white"/>
<path d="M56.6611 43.6914C55.8459 42.9506 55.7703 41.6504 56.2182 40.715C56.8053 39.49 58.2153 39.0431 59.4994 39.3151C59.9365 39.4078 60.3051 39.6072 60.6051 39.9131C60.6365 39.9456 60.6541 39.9892 60.654 40.0347V43.2296C60.6541 43.2426 60.6513 43.2555 60.646 43.2674C60.6407 43.2792 60.6329 43.2898 60.6233 43.2985C59.5288 44.255 57.8752 44.7954 56.6611 43.6914Z" fill="white"/>
<path d="M44.2948 46.4737C43.0527 46.6016 42.0828 45.7477 41.9142 44.5129C41.7504 43.3097 42.3284 42.2063 43.4019 41.6884C44.3333 41.2386 45.6013 41.4059 46.5418 41.7636C46.5614 41.7711 46.5712 41.7851 46.5712 41.8057L46.5754 45.3057C46.5753 45.3224 46.5691 45.3384 46.5579 45.3506C45.9421 46.007 45.1877 46.3814 44.2948 46.4737Z" fill="white"/>
<path d="M25.9012 48.5772C25.7382 46.7267 27.1307 45.6564 28.757 45.2488C28.7741 45.2446 28.7921 45.2465 28.8078 45.2542C28.8235 45.2619 28.836 45.2749 28.843 45.2909L31.3678 50.947C31.3693 50.9504 31.37 50.9542 31.3697 50.9579C31.3694 50.9616 31.3682 50.9652 31.3662 50.9683C31.3642 50.9715 31.3614 50.9741 31.3582 50.9759C31.3549 50.9777 31.3513 50.9786 31.3475 50.9786H26.664C26.6568 50.9786 26.6497 50.9764 26.6439 50.9723C26.638 50.9681 26.6335 50.9622 26.6311 50.9554C26.3561 50.2063 25.9628 49.2779 25.9012 48.5772Z" fill="#1E228C"/>
<path d="M40.5005 64.9075V64.1253C40.5005 64.1195 40.5028 64.114 40.5068 64.1099C40.5109 64.1058 40.5164 64.1035 40.5222 64.1035H41.511C41.5167 64.1035 41.5222 64.1058 41.5263 64.1099C41.5304 64.114 41.5327 64.1195 41.5327 64.1253V64.9075C41.5327 64.9133 41.5304 64.9188 41.5263 64.9229C41.5222 64.927 41.5167 64.9293 41.511 64.9293H40.5222C40.5164 64.9293 40.5109 64.927 40.5068 64.9229C40.5028 64.9188 40.5005 64.9133 40.5005 64.9075Z" fill="#1E228C"/>
<path d="M21.6709 66.8543L23.286 68.5107C23.289 68.5139 23.291 68.5179 23.2917 68.5222C23.2925 68.5265 23.292 68.531 23.2903 68.535C23.2886 68.539 23.2858 68.5425 23.2821 68.5449C23.2785 68.5473 23.2742 68.5487 23.2699 68.5487H22.1159C22.087 68.5487 22.0628 68.5381 22.0432 68.5171L20.8899 67.264C20.8857 67.2594 20.8802 67.2562 20.8741 67.2547C20.868 67.2533 20.8617 67.2537 20.8559 67.2559C20.8501 67.2581 20.8452 67.262 20.8418 67.2671C20.8384 67.2722 20.8366 67.2782 20.8368 67.2844V68.5135C20.8368 68.5229 20.8331 68.5318 20.8265 68.5384C20.8199 68.545 20.811 68.5487 20.8018 68.5487H19.8466C19.8312 68.5487 19.8235 68.541 19.8235 68.5255L19.8179 64.1408C19.8174 64.1159 19.8298 64.1035 19.855 64.1035H20.7997C20.8244 64.1035 20.8368 64.1159 20.8368 64.1408V66.4396C20.8368 66.4968 20.8561 66.5045 20.8948 66.4628C21.2069 66.1306 21.5363 65.7994 21.8829 65.469C21.941 65.4135 21.969 65.3278 22.0789 65.3411C22.4189 65.3819 22.808 65.3418 23.1488 65.3285C23.1539 65.3283 23.1589 65.3296 23.1631 65.3323C23.1674 65.335 23.1707 65.339 23.1726 65.3437C23.1745 65.3484 23.1749 65.3536 23.1738 65.3585C23.1727 65.3635 23.1701 65.368 23.1663 65.3714L21.6723 66.7741C21.6448 66.7999 21.6443 66.8266 21.6709 66.8543Z" fill="#1E228C"/>
<path d="M47.478 65.7888C48.1414 64.9968 49.5752 65.1057 49.6144 66.318C49.6378 67.0489 49.6419 67.7766 49.627 68.5009C49.6268 68.5136 49.6217 68.5258 49.6128 68.5347C49.6039 68.5437 49.5919 68.5487 49.5794 68.5487H48.6368C48.6103 68.5487 48.597 68.5351 48.597 68.5079C48.6072 67.5025 48.6033 66.8208 48.5851 66.4628C48.5725 66.2063 48.3485 66.0517 48.1022 66.0587C47.6033 66.0727 47.4472 66.5661 47.4472 67.0039C47.4477 67.5067 47.4468 68.0094 47.4444 68.5121C47.4444 68.5365 47.4323 68.5487 47.408 68.5487H46.4752C46.4458 68.5487 46.4312 68.5339 46.4312 68.5044V64.1387C46.4312 64.1152 46.4428 64.1035 46.4661 64.1035H47.4115C47.4353 64.1035 47.4472 64.1155 47.4472 64.1394L47.443 65.7755C47.443 65.812 47.4547 65.8165 47.478 65.7888Z" fill="#1E228C"/>
<path d="M26.0641 66.4256C25.3448 65.8654 25.5799 64.6939 26.3867 64.3544C27.0354 64.0803 27.9549 64.2286 28.6379 64.3952C28.6576 64.4001 28.6752 64.4114 28.6877 64.4275C28.7003 64.4435 28.7071 64.4633 28.7072 64.4837L28.7128 65.2863C28.7129 65.2916 28.7116 65.2968 28.7091 65.3014C28.7066 65.306 28.7029 65.3099 28.6984 65.3127C28.6939 65.3155 28.6888 65.3171 28.6835 65.3174C28.6782 65.3177 28.6728 65.3167 28.668 65.3144C28.2397 65.1022 27.2293 64.8365 26.8031 65.1275C26.4966 65.3369 26.6407 65.7087 26.9794 65.8071C27.5106 65.9617 28.1068 65.9969 28.5658 66.3026C28.9906 66.5858 29.055 67.2 28.9451 67.659C28.6211 69.0041 26.6065 68.6597 25.7184 68.3336C25.6947 68.3247 25.6828 68.3076 25.6828 68.2823V67.4242C25.6828 67.3947 25.6956 67.3872 25.7212 67.4017C26.1649 67.647 27.5442 68.1572 27.8891 67.5479C28.0683 67.2317 27.7772 66.9913 27.491 66.921C27.0221 66.8065 26.4539 66.7292 26.0641 66.4256Z" fill="#1E228C"/>
<path d="M10.1568 66.2801C10.6369 66.4621 10.844 66.8634 10.8356 67.3709C10.8223 68.1749 10.1785 68.5241 9.41157 68.5291C8.73559 68.5333 8.05937 68.5335 7.38292 68.5298C7.36006 68.5293 7.34863 68.5178 7.34863 68.4953V64.3172C7.34863 64.2985 7.35796 64.2893 7.37662 64.2898C8.05774 64.2936 8.73722 64.2987 9.41507 64.3053C10.0924 64.3116 10.667 64.6588 10.667 65.4044C10.6665 65.7971 10.496 66.0747 10.1554 66.2373C10.1513 66.2391 10.1477 66.2422 10.1453 66.2461C10.1429 66.25 10.1417 66.2546 10.1418 66.2592C10.142 66.2638 10.1435 66.2682 10.1462 66.2719C10.1488 66.2757 10.1525 66.2785 10.1568 66.2801Z" fill="#1E228C"/>
<path d="M53.6815 65.5303L53.6857 68.5256C53.6857 68.5317 53.6832 68.5376 53.6789 68.542C53.6746 68.5463 53.6687 68.5488 53.6626 68.5488H52.6647C52.6617 68.5488 52.6587 68.5482 52.6559 68.547C52.6531 68.5458 52.6505 68.5441 52.6484 68.542C52.6462 68.5398 52.6445 68.5373 52.6434 68.5345C52.6422 68.5316 52.6416 68.5286 52.6416 68.5256V64.3025C52.6416 64.2994 52.6422 64.2964 52.6434 64.2936C52.6445 64.2908 52.6462 64.2882 52.6484 64.2861C52.6505 64.2839 52.6531 64.2822 52.6559 64.2811C52.6587 64.2799 52.6617 64.2793 52.6647 64.2793H54.0216C54.0262 64.2792 54.0307 64.2805 54.0345 64.283C54.0384 64.2855 54.0414 64.2891 54.0433 64.2934L54.9865 66.5079C54.9884 66.5119 54.9913 66.5153 54.9951 66.5177C54.9988 66.5201 55.0031 66.5214 55.0075 66.5214C55.012 66.5214 55.0163 66.5201 55.02 66.5177C55.0237 66.5153 55.0267 66.5119 55.0285 66.5079L55.9669 64.2934C55.9687 64.2891 55.9718 64.2855 55.9756 64.283C55.9795 64.2805 55.984 64.2792 55.9886 64.2793H57.3413C57.3443 64.2793 57.3473 64.2799 57.3501 64.2811C57.3529 64.2822 57.3555 64.2839 57.3576 64.2861C57.3598 64.2882 57.3615 64.2908 57.3626 64.2936C57.3638 64.2964 57.3644 64.2994 57.3644 64.3025L57.3679 68.5256C57.3679 68.5317 57.3654 68.5376 57.3611 68.542C57.3568 68.5463 57.3509 68.5488 57.3448 68.5488H56.3525C56.3464 68.5488 56.3405 68.5463 56.3362 68.542C56.3318 68.5376 56.3294 68.5317 56.3294 68.5256L56.3399 65.5261C56.3398 65.5208 56.3379 65.5158 56.3346 65.5117C56.3312 65.5077 56.3266 65.5049 56.3215 65.5039C56.3164 65.5028 56.311 65.5035 56.3064 65.5059C56.3017 65.5083 56.298 65.5121 56.2958 65.5169L55.3665 67.7061C55.3648 67.7103 55.3618 67.7138 55.3581 67.7163C55.3544 67.7188 55.35 67.7201 55.3455 67.7202L54.6709 67.7286C54.6663 67.7287 54.6618 67.7274 54.658 67.7249C54.6541 67.7224 54.6511 67.7188 54.6493 67.7146L53.7263 65.5211C53.7244 65.5159 53.7207 65.5115 53.7158 65.5088C53.711 65.506 53.7054 65.5052 53.6999 65.5063C53.6945 65.5074 53.6896 65.5104 53.6862 65.5148C53.6829 65.5192 53.6812 65.5247 53.6815 65.5303Z" fill="#1E228C"/>
<path d="M71.7979 64.3065C71.7979 64.3028 71.7993 64.2992 71.802 64.2966C71.8046 64.294 71.8081 64.2925 71.8118 64.2925H73.6704C74.2309 64.2925 74.7685 64.5024 75.1648 64.876C75.5611 65.2497 75.7838 65.7565 75.7838 66.2849V66.5407C75.7838 67.0691 75.5611 67.5759 75.1648 67.9496C74.7685 68.3232 74.2309 68.5331 73.6704 68.5331H71.8118C71.8081 68.5331 71.8046 68.5317 71.802 68.529C71.7993 68.5264 71.7979 68.5228 71.7979 68.5191V64.3065Z" fill="#1E228C"/>
<path d="M8.4525 65.0642C8.4525 65.0561 8.45567 65.0485 8.46132 65.0428C8.46696 65.0371 8.47462 65.0339 8.4826 65.0339L9.0781 65.036C9.14303 65.0363 9.20728 65.0476 9.26718 65.0695C9.32709 65.0913 9.38147 65.1232 9.42722 65.1634C9.47297 65.2035 9.5092 65.2511 9.53383 65.3034C9.55845 65.3557 9.571 65.4117 9.57074 65.4683V65.502C9.57023 65.616 9.51777 65.7251 9.42487 65.8054C9.33197 65.8856 9.20624 65.9304 9.07531 65.93L8.4798 65.9279C8.47182 65.9279 8.46416 65.9247 8.45852 65.919C8.45288 65.9134 8.44971 65.9057 8.44971 65.8977L8.4525 65.0642Z" fill="white"/>
<path d="M72.9002 65.1437C72.9002 65.1387 72.9022 65.1339 72.9057 65.1303C72.9093 65.1268 72.9141 65.1248 72.9191 65.1248L73.4376 65.1255C73.7594 65.126 74.0678 65.2499 74.295 65.4699C74.5222 65.6899 74.6495 65.9879 74.6489 66.2984V66.5346C74.6487 66.6883 74.617 66.8405 74.5558 66.9825C74.4946 67.1244 74.405 67.2534 74.2921 67.3619C74.1792 67.4704 74.0453 67.5564 73.898 67.615C73.7506 67.6736 73.5928 67.7036 73.4334 67.7033L72.9149 67.7026C72.9099 67.7026 72.9051 67.7006 72.9015 67.697C72.898 67.6935 72.896 67.6887 72.896 67.6836L72.9002 65.1437Z" fill="white"/>
<path d="M13.7068 68.125C13.7069 68.1209 13.7057 68.1168 13.7034 68.1134C13.7011 68.11 13.6978 68.1074 13.6939 68.106C13.69 68.1046 13.6858 68.1045 13.6819 68.1056C13.6779 68.1068 13.6744 68.1091 13.6719 68.1124C13.2809 68.5898 12.781 68.7362 12.1722 68.5516C11.434 68.3281 11.2688 67.2226 11.8615 66.7771C12.2737 66.4671 13.0931 66.4777 13.6642 66.4973C13.6949 66.4983 13.7092 66.4835 13.7068 66.4531C13.6348 65.6456 12.2233 66.0068 11.8105 66.1987C11.7867 66.2099 11.7748 66.2022 11.7748 66.1755V65.4769C11.7748 65.4516 11.7869 65.4359 11.8112 65.4298C12.3962 65.2846 12.9861 65.2431 13.5809 65.3054C14.3478 65.3848 14.669 65.8655 14.7075 66.588C14.7425 67.2346 14.7469 67.8783 14.7208 68.5193C14.7206 68.5272 14.7174 68.5347 14.7118 68.5402C14.7061 68.5457 14.6986 68.5488 14.6907 68.5488H13.7516C13.7442 68.5488 13.7368 68.5473 13.73 68.5444C13.7231 68.5415 13.7169 68.5372 13.7118 68.5318C13.7066 68.5264 13.7026 68.52 13.6999 68.5131C13.6973 68.5061 13.6961 68.4986 13.6963 68.4912L13.7068 68.125Z" fill="#1E228C"/>
<path d="M18.8707 68.5045C18.8704 68.5164 18.8654 68.5276 18.8569 68.5359C18.8484 68.5442 18.8371 68.5488 18.8253 68.5488H17.8988C17.8893 68.5488 17.8802 68.5449 17.8735 68.5381C17.8668 68.5312 17.8631 68.5219 17.8631 68.5122C17.8668 67.898 17.8589 67.2915 17.8393 66.6927C17.8036 65.6069 16.7147 66.0215 16.6986 66.8578C16.6888 67.3915 16.687 67.9371 16.693 68.4947C16.6935 68.5317 16.6753 68.5502 16.6385 68.5502L15.7183 68.546C15.6903 68.5455 15.6763 68.5312 15.6763 68.5031V65.3883C15.6763 65.3635 15.6886 65.3511 15.7134 65.3511H16.6574C16.6816 65.3511 16.6935 65.3632 16.693 65.3876L16.686 65.7587C16.686 65.7644 16.6876 65.77 16.6908 65.7748C16.694 65.7796 16.6986 65.7832 16.704 65.7853C16.7093 65.7874 16.7151 65.7877 16.7207 65.7864C16.7262 65.785 16.7312 65.782 16.735 65.7776C17.091 65.3578 17.5227 65.2002 18.0303 65.3047C18.6671 65.4361 18.8588 65.9843 18.8721 66.5676C18.8861 67.1996 18.8857 67.8453 18.8707 68.5045Z" fill="#1E228C"/>
<path d="M35.6164 68.1313C35.4102 68.3857 35.1573 68.5427 34.8578 68.6022C33.3099 68.9079 32.9033 66.7876 34.3785 66.5627C34.8147 66.4961 35.2271 66.4746 35.6157 66.498C35.6404 66.4994 35.6532 66.4877 35.6542 66.4629C35.6807 65.6441 34.1601 66.0173 33.7746 66.2021C33.7452 66.2162 33.7305 66.2068 33.7305 66.174V65.4768C33.7305 65.4511 33.7431 65.4351 33.7683 65.4291C34.7619 65.1957 36.5744 64.9603 36.6611 66.5029C36.6985 67.1701 36.7034 67.8382 36.6758 68.5073C36.6749 68.5363 36.66 68.5506 36.631 68.5502L35.6968 68.5452C35.6688 68.5452 35.6549 68.5312 35.6549 68.5031V68.1447C35.6549 68.1034 35.642 68.099 35.6164 68.1313Z" fill="#1E228C"/>
<path d="M38.6397 65.8457C38.6399 65.8486 38.6409 65.8514 38.6427 65.8537C38.6444 65.8559 38.6469 65.8576 38.6496 65.8585C38.6524 65.8593 38.6553 65.8593 38.6581 65.8584C38.6608 65.8575 38.6632 65.8558 38.6649 65.8534C38.9714 65.3868 39.4092 65.2005 39.9784 65.2947C39.9881 65.2963 39.997 65.3012 40.0033 65.3087C40.0096 65.3162 40.0129 65.3257 40.0127 65.3355L40.005 66.1592C40.005 66.1915 39.9891 66.2034 39.9574 66.195C39.2765 66.0102 38.6663 66.1458 38.6544 66.9814C38.647 67.4907 38.6442 68.0012 38.646 68.5128C38.646 68.5179 38.645 68.5228 38.6431 68.5275C38.6411 68.5321 38.6383 68.5364 38.6347 68.5399C38.6311 68.5434 38.6269 68.5462 38.6222 68.5481C38.6175 68.5499 38.6126 68.5509 38.6075 68.5508L37.6719 68.543C37.6611 68.5428 37.6508 68.5384 37.6432 68.5306C37.6356 68.5229 37.6313 68.5124 37.6313 68.5016V65.3861C37.6313 65.3627 37.643 65.3509 37.6663 65.3509H38.6124C38.6372 65.3509 38.6493 65.3634 38.6488 65.3882L38.6397 65.8457Z" fill="#1E228C"/>
<path d="M44.4544 68.1271C44.4543 68.1235 44.4532 68.12 44.4511 68.1171C44.4491 68.1142 44.4462 68.112 44.4428 68.1108C44.4395 68.1095 44.4359 68.1094 44.4324 68.1103C44.429 68.1112 44.4259 68.1131 44.4236 68.1158C44.1105 68.5014 43.721 68.6704 43.2549 68.6226C41.9933 68.4939 41.896 66.7862 43.1311 66.5655C43.5314 66.4943 43.9533 66.4727 44.397 66.5008C44.4061 66.5014 44.4152 66.5 44.4237 66.4967C44.4321 66.4933 44.4398 66.4882 44.4461 66.4816C44.4523 66.4751 44.4571 66.4672 44.46 66.4586C44.4629 66.4501 44.4638 66.4409 44.4628 66.432C44.3795 65.675 43.0212 65.9836 42.5713 66.2014C42.5672 66.2033 42.5628 66.2041 42.5584 66.2039C42.5539 66.2036 42.5497 66.2022 42.5459 66.1998C42.5421 66.1974 42.539 66.1942 42.5369 66.1903C42.5347 66.1864 42.5335 66.182 42.5335 66.1775V65.4719C42.5335 65.4527 42.5428 65.4405 42.5615 65.4354C43.2144 65.2625 44.4341 65.1212 45.0107 65.5528C45.3487 65.8058 45.4508 66.1445 45.4697 66.5887C45.4963 67.2277 45.4989 67.8668 45.4774 68.5059C45.4765 68.5345 45.4618 68.5488 45.4333 68.5488H44.5089C44.4945 68.5488 44.4806 68.543 44.4703 68.5327C44.4601 68.5224 44.4544 68.5085 44.4544 68.4939V68.1271Z" fill="#1E228C"/>
<path d="M60.3569 68.1284C60.357 68.122 60.355 68.1159 60.3513 68.1108C60.3475 68.1057 60.3422 68.102 60.3362 68.1002C60.3301 68.0985 60.3237 68.0988 60.3178 68.101C60.3119 68.1033 60.307 68.1075 60.3037 68.1129C59.6683 69.1024 57.8559 68.607 58.1883 67.2822C58.3982 66.4424 59.6347 66.4452 60.3072 66.5056C60.3315 66.5075 60.3455 66.4965 60.3492 66.4726C60.3933 66.1739 60.1204 66.0017 59.8551 65.9722C59.3704 65.9178 58.9088 65.9928 58.4703 66.1971C58.4451 66.2088 58.4325 66.2008 58.4325 66.1732V65.4774C58.4325 65.4521 58.4449 65.4362 58.4696 65.4296C59.2673 65.23 60.8285 65.0375 61.2442 65.9764C61.3254 66.1596 61.3676 66.5002 61.3709 66.9983C61.3737 67.4823 61.3739 67.9761 61.3716 68.4798C61.3716 68.4934 61.3662 68.5064 61.3566 68.516C61.347 68.5257 61.334 68.5311 61.3205 68.5311H60.3919C60.3686 68.5311 60.3569 68.5193 60.3569 68.4959V68.1284Z" fill="#1E228C"/>
<path d="M64.0646 67.5872C63.8526 67.0601 62.5755 67.5183 62.2158 66.6834C61.9835 66.1437 62.2144 65.5596 62.7896 65.3713C63.3663 65.1829 64.1871 65.2869 64.7924 65.443C64.8092 65.4476 64.8176 65.4587 64.8176 65.476V66.1928C64.8177 66.1976 64.8165 66.2023 64.8143 66.2066C64.812 66.2108 64.8088 66.2144 64.8047 66.217C64.8007 66.2197 64.7961 66.2213 64.7912 66.2217C64.7864 66.2222 64.7815 66.2214 64.777 66.2196C64.3184 66.0148 63.8484 65.9316 63.367 65.9701C63.05 65.9961 62.8673 66.4093 63.2613 66.4775C63.9478 66.597 65.1248 66.5836 65.0163 67.7109C64.9016 68.9042 63.029 68.6737 62.2389 68.4348C62.2123 68.4268 62.1988 68.409 62.1983 68.3813L62.1822 67.7031C62.1822 67.6966 62.1837 67.6901 62.1867 67.6844C62.1898 67.6786 62.1942 67.6737 62.1996 67.6701C62.205 67.6665 62.2111 67.6644 62.2175 67.6639C62.2239 67.6634 62.2303 67.6646 62.2361 67.6673C62.6728 67.8746 63.7966 68.1846 64.0611 67.6687C64.0675 67.6561 64.0711 67.6423 64.0717 67.6283C64.0723 67.6142 64.0699 67.6002 64.0646 67.5872Z" fill="#1E228C"/>
<path d="M67.7469 68.1235C67.7468 68.1197 67.7456 68.1161 67.7435 68.1129C67.7414 68.1098 67.7383 68.1075 67.7349 68.1062C67.7314 68.1048 67.7277 68.1047 67.7242 68.1056C67.7207 68.1066 67.7176 68.1087 67.7154 68.1116C67.4686 68.4208 67.1656 68.5918 66.8064 68.6246C66.1451 68.6857 65.5475 68.2985 65.5538 67.5774C65.5629 66.4368 66.877 66.4523 67.679 66.5001C67.6894 66.5007 67.6998 66.4991 67.7095 66.4953C67.7192 66.4914 67.728 66.4855 67.7352 66.4779C67.7424 66.4702 67.7479 66.4611 67.7512 66.4511C67.7545 66.4411 67.7557 66.4304 67.7545 66.4199C67.6678 65.6799 66.3109 65.9884 65.8631 66.1971C65.8411 66.207 65.8302 66.2 65.8302 66.1761L65.8295 65.4698C65.8295 65.4491 65.8395 65.4363 65.8596 65.4311C66.6832 65.2287 68.2416 65.0368 68.6461 65.9898C68.7263 66.1782 68.7681 66.5453 68.7713 67.0911C68.7746 67.5662 68.7739 68.0415 68.7692 68.5171C68.7688 68.5419 68.7562 68.5541 68.7314 68.5536L67.779 68.5283C67.7496 68.5274 67.7354 68.5122 67.7364 68.4826L67.7469 68.1235Z" fill="#1E228C"/>
<path d="M77.3906 67.2584C77.5235 68.3513 78.9748 67.8727 79.5619 67.588C79.5937 67.5726 79.6095 67.5829 79.6095 67.6189L79.6102 68.3091C79.6102 68.332 79.5995 68.3477 79.578 68.3562C78.45 68.8017 76.5438 68.8523 76.3521 67.2092C76.2072 65.9646 77.0526 65.1845 78.2632 65.2822C79.3499 65.3693 79.8174 66.1726 79.7537 67.2008C79.7523 67.2209 79.7416 67.231 79.7215 67.231H77.415C77.3969 67.231 77.3887 67.2401 77.3906 67.2584Z" fill="#1E228C"/>
<path d="M81.5368 65.7431C81.5349 65.7923 81.5505 65.7988 81.5836 65.7627C82.0082 65.2961 82.4943 65.1626 83.042 65.3622C83.9167 65.6812 84.0636 66.8387 83.8474 67.5991C83.62 68.3982 82.8572 68.8564 82.0616 68.5121C81.872 68.4306 81.732 68.2844 81.5864 68.1276C81.5571 68.0958 81.5424 68.1016 81.5424 68.1452V69.7258C81.5424 69.7492 81.5307 69.7609 81.5074 69.7609H80.5634C80.541 69.7609 80.5298 69.7495 80.5298 69.7265L80.5389 65.3804C80.5389 65.3607 80.5487 65.3509 80.5683 65.3509H81.5102C81.5155 65.3509 81.5208 65.352 81.5258 65.3541C81.5307 65.3562 81.5352 65.3593 81.5389 65.3631C81.5426 65.367 81.5455 65.3716 81.5474 65.3766C81.5494 65.3816 81.5502 65.387 81.5501 65.3924L81.5368 65.7431Z" fill="#1E228C"/>
<path d="M86.6541 68.1481C86.6543 68.1419 86.6525 68.1358 86.649 68.1307C86.6455 68.1256 86.6405 68.1217 86.6347 68.1196C86.6289 68.1175 86.6226 68.1173 86.6167 68.119C86.6107 68.1207 86.6055 68.1243 86.6017 68.1291C85.9369 68.9577 84.3505 68.7483 84.4708 67.4622C84.5674 66.4347 85.8123 66.4509 86.594 66.5022C86.6017 66.5026 86.6094 66.5013 86.6167 66.4986C86.6239 66.4958 86.6304 66.4915 86.6359 66.486C86.6414 66.4805 86.6457 66.4739 86.6484 66.4666C86.6512 66.4594 86.6524 66.4516 86.652 66.4438C86.6122 65.6518 85.1643 66.0116 84.7668 66.1986C84.7398 66.2112 84.7263 66.2028 84.7263 66.1733V65.4768C84.7263 65.4566 84.7361 65.4438 84.7557 65.4381C85.3351 65.2812 85.9177 65.2395 86.5037 65.313C87.3112 65.4142 87.6303 65.8176 87.6639 66.5977C87.6919 67.2354 87.6956 67.8649 87.6751 68.4862C87.6737 68.5208 87.6557 68.5382 87.6212 68.5382L86.6835 68.5368C86.6551 68.5368 86.6413 68.5225 86.6422 68.4939L86.6541 68.1481Z" fill="#1E228C"/>
<path d="M89.7037 65.7676C90.1585 65.1892 91.1123 65.0529 91.598 65.6903C91.7459 65.8843 91.8214 66.1649 91.8247 66.5323C91.8312 67.1957 91.8319 67.8523 91.8268 68.5022C91.8267 68.5091 91.8253 68.5159 91.8225 68.5222C91.8198 68.5285 91.8159 68.5342 91.8109 68.539C91.806 68.5438 91.8001 68.5475 91.7937 68.55C91.7873 68.5525 91.7805 68.5537 91.7736 68.5535L90.8338 68.5282C90.8302 68.5281 90.8267 68.5273 90.8234 68.5258C90.8202 68.5243 90.8172 68.5221 90.8147 68.5195C90.8123 68.5168 90.8103 68.5136 90.809 68.5102C90.8078 68.5067 90.8071 68.5031 90.8072 68.4994C90.8259 67.8467 90.8166 67.1945 90.7792 66.5428C90.7618 66.2244 90.5651 66.0023 90.2425 66.0515C89.8324 66.1134 89.6554 66.5048 89.6491 66.8928C89.6412 67.4255 89.6393 67.9585 89.6435 68.4916C89.6435 68.5137 89.6326 68.5249 89.6106 68.5254L88.661 68.5451C88.6386 68.5455 88.6274 68.5345 88.6274 68.512V65.386C88.6274 65.3626 88.6391 65.3509 88.6624 65.3509H89.6092C89.634 65.3509 89.6461 65.3633 89.6456 65.3881L89.6344 65.7423C89.6339 65.7506 89.6362 65.7588 89.6407 65.7658C89.6453 65.7727 89.6519 65.778 89.6597 65.7808C89.6675 65.7837 89.6759 65.7839 89.6839 65.7815C89.6918 65.7792 89.6987 65.7743 89.7037 65.7676Z" fill="#1E228C"/>
<path d="M31.3819 67.4623L32.0831 65.3736C32.0857 65.3655 32.0909 65.3584 32.098 65.3535C32.105 65.3485 32.1136 65.346 32.1223 65.3462L33.0642 65.3532C33.0913 65.3536 33.1001 65.3665 33.0908 65.3918C32.4727 67.0532 31.9978 68.2913 31.6661 69.1061C31.3687 69.8356 30.7228 69.8222 30.0398 69.8131C30.0303 69.8131 30.0212 69.8093 30.0145 69.8026C30.0079 69.7959 30.0041 69.7868 30.0041 69.7773V69.1637C30.0041 69.1398 30.016 69.1281 30.0398 69.1286C30.3603 69.1314 30.7529 69.1869 30.8704 68.792C30.8956 68.7071 30.8837 68.6069 30.8347 68.4912C30.3957 67.4599 29.9493 66.4205 29.4954 65.3729C29.487 65.3536 29.493 65.3443 29.5136 65.3447L30.4757 65.3539C30.4995 65.3543 30.5159 65.3656 30.5247 65.3876L31.3456 67.463C31.3586 67.4958 31.3708 67.4955 31.3819 67.4623Z" fill="#1E228C"/>
<path d="M41.5005 65.3496H40.5194C40.5089 65.3496 40.5005 65.3581 40.5005 65.3686V68.5298C40.5005 68.5402 40.5089 68.5487 40.5194 68.5487H41.5005C41.5109 68.5487 41.5194 68.5402 41.5194 68.5298V65.3686C41.5194 65.3581 41.5109 65.3496 41.5005 65.3496Z" fill="#1E228C"/>
<path d="M77.4265 66.6042C77.4233 66.6042 77.4203 66.6029 77.4181 66.6007C77.4158 66.5984 77.4146 66.5954 77.4146 66.5922V66.5838C77.4131 66.4211 77.4788 66.2645 77.597 66.1484C77.7152 66.0323 77.8764 65.9662 78.0451 65.9646H78.0717C78.1552 65.9639 78.2381 65.979 78.3156 66.0091C78.393 66.0393 78.4636 66.0838 78.5232 66.1403C78.5828 66.1967 78.6302 66.264 78.6629 66.3381C78.6955 66.4123 78.7126 66.492 78.7134 66.5725V66.581C78.7134 66.5841 78.7121 66.5872 78.7099 66.5894C78.7076 66.5917 78.7046 66.5929 78.7015 66.5929L77.4265 66.6042Z" fill="white"/>
<path d="M82.0965 67.8605C81.2798 67.6743 81.3582 65.8758 82.347 66.0368C83.1426 66.1661 83.0726 68.0833 82.0965 67.8605Z" fill="white"/>
<path d="M8.44964 66.7186C8.44964 66.7098 8.45311 66.7014 8.45927 66.6952C8.46544 66.689 8.47381 66.6855 8.48253 66.6855L9.15362 66.687C9.23141 66.6871 9.30843 66.7012 9.38026 66.7285C9.4521 66.7558 9.51734 66.7959 9.57225 66.8462C9.62717 66.8966 9.67068 66.9564 9.70031 67.0222C9.72994 67.0879 9.7451 67.1584 9.74492 67.2295V67.2562C9.74457 67.3996 9.68194 67.537 9.57081 67.6382C9.45967 67.7395 9.30911 67.7962 9.15221 67.796L8.48113 67.7946C8.47241 67.7946 8.46404 67.7911 8.45788 67.7849C8.45171 67.7787 8.44824 67.7703 8.44824 67.7615L8.44964 66.7186Z" fill="white"/>
<path d="M12.6806 67.8325C12.4839 67.6934 12.514 67.394 12.6659 67.2555C12.8653 67.0742 13.3978 67.0925 13.6568 67.115C13.6801 67.1168 13.692 67.1297 13.6924 67.1536C13.7092 67.6934 13.1746 68.1839 12.6806 67.8325Z" fill="white"/>
<path d="M35.6428 67.1488C35.7037 68.34 34.0606 67.9774 34.5833 67.2957C34.759 67.068 35.3412 67.0947 35.6099 67.1151C35.6309 67.1165 35.6418 67.1277 35.6428 67.1488Z" fill="white"/>
<path d="M44.1297 67.8353C43.4593 68.2886 42.9197 67.3159 43.6202 67.1493C43.8288 67.0997 44.0935 67.0891 44.4145 67.1177C44.435 67.1196 44.4457 67.1308 44.4467 67.1514C44.4616 67.4546 44.3559 67.6825 44.1297 67.8353Z" fill="white"/>
<path d="M60.3455 67.1474C60.391 68.1742 58.9753 68.1138 59.2105 67.4229C59.3392 67.042 59.9963 67.0926 60.3112 67.1123C60.3331 67.1137 60.3446 67.1254 60.3455 67.1474Z" fill="white"/>
<path d="M67.7344 67.1451C67.817 68.2162 66.2222 68.1094 66.6596 67.304C66.7806 67.0798 67.4188 67.098 67.7029 67.1142C67.7225 67.1151 67.733 67.1255 67.7344 67.1451Z" fill="white"/>
<path d="M85.6493 67.8501C85.5667 67.8018 85.5194 67.7231 85.5072 67.6139C85.4436 67.0348 86.1916 67.0812 86.6101 67.1213C86.6311 67.1232 86.642 67.1346 86.643 67.1557C86.664 67.6955 86.1594 68.1495 85.6493 67.8501Z" fill="white"/>
</g>
</g>
<defs>
<clipPath id="clip0_30_4603">
<rect width="100" height="100" fill="white"/>
</clipPath>
<clipPath id="clip1_30_4603">
<rect width="124" height="83" fill="white" transform="translate(-12 6)"/>
</clipPath>
</defs>
</svg>
