<svg width="100" height="100" viewBox="0 0 100 100" fill="none" xmlns="http://www.w3.org/2000/svg">
<rect width="100" height="100" fill="white"/>
<path d="M68.2606 28.3525C67.6999 29.4182 66.9039 30.3662 65.8724 31.1965C65.7012 31.3292 65.5343 31.3249 65.3717 31.1837C65.0935 30.9397 64.8838 30.5759 64.7425 30.0923C63.4714 29.0823 62.9536 27.6121 63.189 25.6819C63.1983 25.6244 63.226 25.5714 63.2679 25.5309C63.3099 25.4904 63.3638 25.4646 63.4217 25.4574C63.4795 25.4502 63.5382 25.4619 63.5888 25.4908C63.6395 25.5197 63.6794 25.5642 63.7025 25.6177L64.2482 26.998C64.3595 27.2847 64.5457 27.3468 64.8067 27.1842L65.6156 26.677C65.7654 26.5871 65.8639 26.6278 65.9109 26.799C66.0008 27.1414 66.0179 27.4923 65.9623 27.8518C65.9238 28.1086 66.035 28.2498 66.2961 28.2755L66.9766 28.3461C67.1474 28.3632 67.3193 28.3218 67.4641 28.2289C67.6088 28.136 67.7178 27.997 67.7731 27.8349C67.8284 27.6728 67.8267 27.4971 67.7683 27.3368C67.7098 27.1766 67.5982 27.0412 67.4517 26.953C66.7626 26.5251 66.5657 25.8617 66.8611 24.9629C66.8728 24.9278 66.8937 24.8963 66.9219 24.8715C66.95 24.8467 66.9844 24.8296 67.0215 24.8217L68.2606 24.597C68.4208 24.568 68.5861 24.5897 68.7335 24.659C68.8809 24.7283 69.0029 24.8419 69.0827 24.9839C69.1626 25.1258 69.1961 25.2891 69.1788 25.4511C69.1614 25.613 69.0941 25.7655 68.986 25.8874C68.0573 26.953 67.8155 27.7748 68.2606 28.3525Z" fill="#FAB42F"/>
<path d="M68.2607 28.3525L69.0375 28.5772C69.2258 29.0994 69.0375 29.6386 68.4725 30.195C68.2158 30.4475 68.4447 30.6123 69.1595 30.6893C68.877 30.7749 68.6801 30.8819 68.5688 31.0103C68.5381 31.0444 68.5166 31.0859 68.5064 31.1306C68.4961 31.1753 68.4976 31.2218 68.5106 31.2653C68.5236 31.3088 68.5476 31.3478 68.5804 31.3785C68.6131 31.4093 68.6534 31.4306 68.6972 31.4404C73.5698 32.6281 74.4879 34.5476 69.8143 37.1604C69.0824 37.2674 68.5367 37.1776 68.1772 36.8908L71.7851 34.8044C71.9392 34.7159 72.0643 34.5847 72.1452 34.4265C72.2261 34.2684 72.2594 34.0902 72.2411 33.9135C72.2227 33.7368 72.1535 33.5692 72.0418 33.4311C71.9301 33.2929 71.7807 33.1902 71.6118 33.1353L67.1244 31.6716C66.8676 31.5902 66.6408 31.6416 66.4439 31.8256L65.6671 32.5575C65.6385 32.5846 65.6045 32.6054 65.5673 32.6185C65.5302 32.6317 65.4907 32.6369 65.4514 32.6339C65.4121 32.6309 65.3738 32.6196 65.3391 32.601C65.3044 32.5823 65.274 32.5565 65.2498 32.5254C64.8304 31.9776 64.3917 31.5795 63.9338 31.3313C63.8097 31.2157 63.9167 30.9397 64.2548 30.5032C64.1906 30.7 64.3532 30.5631 64.7427 30.0923C64.8839 30.5759 65.0936 30.9397 65.3718 31.1836C65.5344 31.3249 65.7013 31.3292 65.8725 31.1965C66.904 30.3662 67.7 29.4182 68.2607 28.3525Z" fill="#FEFEFE"/>
<path d="M68.9988 30.7216C69.0502 30.7088 69.1037 30.6981 69.1593 30.6895C68.4446 30.6125 68.2156 30.4477 68.4724 30.1952C69.0374 29.6388 69.2257 29.0995 69.0374 28.5774C69.7435 28.2864 70.2978 28.2222 70.7001 28.3848C70.9697 28.4961 71.0039 28.6566 70.8028 28.8663L68.9988 30.7216Z" fill="#FAB42F"/>
<path d="M64.2548 30.5034C63.9167 30.9399 63.8097 31.216 63.9338 31.3315L62.316 31.3765L57.6232 31.1325C57.4263 31.1239 57.238 31.0811 57.0582 31.0041C56.2579 30.6617 55.2543 30.5697 54.0474 30.7281C57.4841 30.146 60.8865 30.0711 64.2548 30.5034Z" fill="#2491D0"/>
<path d="M29.1774 34.3871C27.825 33.544 27.5211 32.3328 28.2658 30.7536C28.2958 30.69 28.3419 30.6354 28.3995 30.5951C28.4571 30.5548 28.5242 30.5302 28.5942 30.5237C28.6641 30.5172 28.7346 30.5291 28.7986 30.5581C28.8626 30.5872 28.9179 30.6324 28.9591 30.6894C29.6525 31.6694 29.9949 32.7522 29.9863 33.9378C29.9872 34.0325 29.9626 34.1258 29.9149 34.2077C29.8673 34.2896 29.7984 34.3571 29.7156 34.4031C29.6327 34.4491 29.539 34.4719 29.4443 34.4691C29.3496 34.4663 29.2574 34.438 29.1774 34.3871Z" fill="#FAB42F"/>
<path d="M54.0471 30.7279C55.254 30.5696 56.2576 30.6616 57.0579 31.004C57.2377 31.081 57.426 31.1238 57.6229 31.1324L62.3157 31.3763C58.2969 31.5497 52.853 31.0233 49.3029 32.9749C49.2179 33.0197 49.1534 33.0957 49.1224 33.1874C49.0914 33.2792 49.0963 33.3799 49.1359 33.4692C49.2772 33.7816 49.5126 34.0448 49.8421 34.2588C49.4313 34.6183 49.3735 34.7082 49.6688 34.5284C48.6031 34.0363 48.1623 33.4756 48.3463 32.8465C48.3785 32.7377 48.4336 32.6372 48.5078 32.5519C48.5821 32.4666 48.6737 32.3985 48.7764 32.3521L51.9542 30.9141L54.0471 30.7279Z" fill="#A8D7E3"/>
<path d="M69.1593 30.6895C69.1037 30.698 69.0502 30.7087 68.9988 30.7216C71.7337 31.2544 74.3722 31.5625 76.6255 33.1932C76.7651 33.2947 76.8776 33.429 76.9531 33.5842C77.0286 33.7394 77.0648 33.9108 77.0584 34.0833C77.0521 34.2558 77.0034 34.4241 76.9168 34.5734C76.8301 34.7227 76.708 34.8483 76.5613 34.9393C74.3957 36.2918 72.1467 37.0322 69.8142 37.1606C74.4877 34.5477 73.5697 32.6282 68.6971 31.4406C68.6533 31.4307 68.613 31.4094 68.5803 31.3787C68.5475 31.3479 68.5234 31.3089 68.5105 31.2654C68.4975 31.2219 68.496 31.1755 68.5062 31.1307C68.5165 31.086 68.538 31.0445 68.5687 31.0104C68.68 30.882 68.8769 30.775 69.1593 30.6895Z" fill="#2491D0"/>
<path d="M51.9544 30.9141L48.7766 32.3521C48.6739 32.3984 48.5823 32.4666 48.508 32.5519C48.4338 32.6372 48.3787 32.7376 48.3465 32.8464C48.1625 33.4755 48.6033 34.0362 49.669 34.5284L48.3016 36.1205C48.1261 36.3259 48.1582 36.4928 48.3979 36.6212C49.9172 37.4472 51.137 38.4466 52.0571 39.6192C51.9673 40.4966 51.6013 41.2734 50.9594 41.9496L49.4892 40.9802C50.1633 40.0686 49.3929 39.3368 48.4235 39.2854C44.1908 39.0629 39.9473 39.0372 35.6932 39.2084C35.6739 39.2081 35.6552 39.2021 35.6394 39.1911C35.6236 39.1801 35.6115 39.1646 35.6046 39.1467C35.5977 39.1287 35.5963 39.1091 35.6006 39.0903C35.605 39.0716 35.6149 39.0546 35.629 39.0415C35.8772 38.8446 36.2966 38.729 36.8873 38.6948C39.4594 38.5407 42.0188 38.4937 44.5653 38.5536C44.6691 38.5612 44.7718 38.5273 44.8506 38.4593C44.9295 38.3913 44.9781 38.2947 44.9858 38.1909C44.9934 38.087 44.9595 37.9843 44.8915 37.9055C44.8235 37.8266 44.7269 37.778 44.6231 37.7704L42.8769 37.5521C42.7896 37.5411 42.7095 37.4991 42.6515 37.4341C42.5935 37.369 42.5618 37.2854 42.5623 37.199V36.9165C42.5627 36.877 42.5752 36.8386 42.5982 36.8064C42.6211 36.7743 42.6535 36.7499 42.6907 36.7368L44.1159 36.2104C44.179 36.1867 44.2335 36.1445 44.2721 36.0893C44.3108 36.0342 44.3319 35.9686 44.3326 35.9012C44.3333 35.8338 44.3135 35.7678 44.276 35.7118C44.2385 35.6559 44.1849 35.6126 44.1223 35.5876C43.3519 35.2795 42.7506 34.7595 42.3184 34.0276C42.2433 33.9014 42.1983 33.7595 42.1868 33.613C42.1754 33.4664 42.1978 33.3191 42.2523 33.1822C42.3068 33.0452 42.392 32.9224 42.5014 32.823C42.6108 32.7237 42.7414 32.6504 42.8833 32.6089C45.8963 31.723 48.92 31.158 51.9544 30.9141Z" fill="#2491D0"/>
<path d="M62.316 31.3765L63.9338 31.3315C64.3917 31.5798 64.8304 31.9778 65.2498 32.5256C65.274 32.5568 65.3044 32.5825 65.3391 32.6012C65.3738 32.6199 65.4121 32.6311 65.4514 32.6341C65.4907 32.6371 65.5302 32.6319 65.5673 32.6188C65.6045 32.6056 65.6385 32.5848 65.6671 32.5577L66.4439 31.8259C66.6408 31.6418 66.8676 31.5905 67.1244 31.6718L71.6118 33.1355C71.7808 33.1904 71.9301 33.2932 72.0418 33.4313C72.1535 33.5694 72.2227 33.737 72.2411 33.9137C72.2594 34.0904 72.2261 34.2686 72.1452 34.4268C72.0643 34.5849 71.9392 34.7162 71.7852 34.8046L68.1772 36.891L61.8602 38.3162C61.8103 38.3278 61.7584 38.3272 61.7088 38.3146C61.6592 38.3021 61.6134 38.2778 61.575 38.2439C61.5367 38.2099 61.5071 38.1673 61.4885 38.1196C61.47 38.0719 61.4632 38.0205 61.4686 37.9696L61.7768 35.5236C61.7943 35.3746 61.7706 35.2238 61.7083 35.0879C61.646 34.952 61.5475 34.8362 61.4237 34.7533C60.97 34.4494 60.5527 34.5521 60.1718 35.0614C59.7738 35.04 59.4656 35.2647 59.2474 35.7355L58.3614 36.7948C58.3313 36.8314 58.2911 36.8585 58.2458 36.8726C58.2006 36.8868 58.1521 36.8874 58.1065 36.8745C58.0608 36.8615 58.0199 36.8356 57.9888 36.7997C57.9577 36.7639 57.9377 36.7198 57.9313 36.6728C57.7687 35.3503 57.2337 34.199 56.3264 33.219C56.2944 33.1837 56.2555 33.1555 56.2121 33.136C56.1687 33.1164 56.1218 33.106 56.0742 33.1054C56.0266 33.1048 55.9794 33.114 55.9356 33.1325C55.8917 33.1509 55.8521 33.1781 55.8192 33.2125C54.7664 34.3381 54.1693 35.667 54.0281 37.1992C54.0193 37.2975 53.991 37.3931 53.9446 37.4802C53.8983 37.5674 53.8349 37.6444 53.7583 37.7066C53.6817 37.7689 53.5934 37.8151 53.4986 37.8427C53.4038 37.8702 53.3044 37.8784 53.2064 37.8669C52.6243 37.7984 52.2798 37.5245 52.1728 37.0451C52.1043 36.737 51.9417 36.6749 51.6849 36.859C50.8974 37.4239 50.1014 37.3276 49.2968 36.5701C49.0742 36.3561 49.0742 36.1442 49.2968 35.9345L50.2726 35.0101C50.3049 34.9799 50.3308 34.9436 50.349 34.9032C50.3671 34.8629 50.3771 34.8194 50.3783 34.7752C50.3795 34.731 50.3719 34.687 50.3559 34.6458C50.34 34.6046 50.316 34.5669 50.2854 34.535C50.1099 34.3595 49.9623 34.2675 49.8424 34.259C49.5129 34.045 49.2775 33.7817 49.1363 33.4693C49.0966 33.3801 49.0917 33.2794 49.1227 33.1876C49.1537 33.0958 49.2182 33.0198 49.3032 32.975C52.8533 31.0234 58.2972 31.5498 62.316 31.3765Z" fill="#2B9A45"/>
<path d="M32.0021 37.9307C31.8266 38.2902 31.6576 38.288 31.4949 37.9242C30.5876 35.9084 30.5748 33.8884 31.4564 31.864C31.4792 31.8131 31.516 31.7697 31.5624 31.7389C31.6088 31.708 31.6631 31.6909 31.7188 31.6895C31.7745 31.6882 31.8295 31.7027 31.8774 31.7313C31.9253 31.7599 31.964 31.8014 31.9893 31.8512C32.9736 33.8584 32.9779 35.8849 32.0021 37.9307Z" fill="#FAB42F"/>
<path d="M81.4408 33.5526C82.2411 33.6125 82.7761 33.9977 83.0457 34.7081C83.0978 34.8496 83.0994 35.0046 83.0502 35.1464C83.001 35.2882 82.904 35.4079 82.7761 35.4849C80.8287 36.6661 78.7081 37.3359 76.4141 37.4943C75.6566 37.5414 75.6245 37.4108 76.3178 37.1027C78.9157 35.9471 79.7845 34.5219 78.9242 32.8271C78.8129 32.6089 78.8793 32.5126 79.1232 32.5382C79.8594 32.6067 80.5142 32.8935 81.0877 33.3985C81.1835 33.4859 81.3074 33.54 81.4408 33.5526Z" fill="#2491D0"/>
<path d="M59.2474 35.7351C59.6283 35.6366 59.9343 35.7008 60.1654 35.9277C59.594 36.7751 58.3293 38.4763 58.4385 39.497C58.507 40.1561 58.8172 40.4514 59.3693 40.383C59.2666 40.8323 59.2902 41.2111 59.44 41.5193C59.2431 42.5036 59.44 43.0386 60.0306 43.1242L60.0691 44.2284C59.8423 44.9388 59.5298 45.2941 59.1318 45.2941C58.8964 45.2898 58.7488 45.1742 58.6888 44.9474L58.0276 42.3988L57.8158 41.622C58.2181 39.3622 57.7173 37.2587 56.3135 35.3114C56.2673 35.2487 56.2043 35.2002 56.1318 35.1715C56.0594 35.1427 55.9805 35.135 55.9044 35.1491C55.8283 35.1633 55.7582 35.1987 55.7021 35.2513C55.6461 35.3039 55.6066 35.3715 55.5881 35.4462L54.7407 38.8294C54.713 38.9386 54.6447 39.033 54.5502 39.0928C54.4556 39.1527 54.3422 39.1733 54.2335 39.1504L53.1614 38.9257C52.9688 38.8829 52.8233 38.9449 52.7249 39.1119C52.6393 39.2488 52.5879 39.3772 52.5708 39.497L52.0572 39.619C51.1371 38.4463 49.9173 37.447 48.398 36.621C48.1583 36.4926 48.1262 36.3257 48.3017 36.1202L49.6691 34.5281C49.3738 34.7079 49.4316 34.618 49.8424 34.2585C49.9623 34.2671 50.1099 34.3591 50.2854 34.5346C50.316 34.5665 50.34 34.6041 50.3559 34.6454C50.3719 34.6866 50.3795 34.7306 50.3783 34.7748C50.3771 34.819 50.3671 34.8625 50.349 34.9028C50.3308 34.9431 50.3048 34.9794 50.2725 35.0096L49.2967 35.9341C49.0742 36.1438 49.0742 36.3556 49.2967 36.5696C50.1014 37.3272 50.8974 37.4235 51.6849 36.8585C51.9417 36.6745 52.1043 36.7365 52.1728 37.0447C52.2798 37.524 52.6243 37.7979 53.2064 37.8664C53.3044 37.878 53.4038 37.8697 53.4986 37.8422C53.5934 37.8147 53.6817 37.7684 53.7583 37.7062C53.8349 37.644 53.8983 37.567 53.9446 37.4798C53.9909 37.3927 54.0193 37.2971 54.0281 37.1988C54.1693 35.6666 54.7664 34.3377 55.8192 33.2121C55.8521 33.1777 55.8917 33.1505 55.9356 33.132C55.9794 33.1136 56.0266 33.1044 56.0742 33.105C56.1218 33.1056 56.1687 33.116 56.2121 33.1355C56.2555 33.1551 56.2944 33.1833 56.3264 33.2185C57.2337 34.1986 57.7687 35.3499 57.9313 36.6723C57.9377 36.7194 57.9577 36.7635 57.9888 36.7993C58.0199 36.8351 58.0608 36.8611 58.1065 36.8741C58.1521 36.887 58.2005 36.8864 58.2458 36.8722C58.2911 36.858 58.3313 36.831 58.3614 36.7943L59.2474 35.7351Z" fill="#FEFEFE"/>
<path d="M34.4414 33.9696C34.4818 33.8169 34.5788 33.6853 34.7127 33.6014C34.8465 33.5175 35.0073 33.4876 35.1623 33.5178C35.3174 33.548 35.4552 33.636 35.5478 33.764C35.6404 33.892 35.6809 34.0504 35.6611 34.2071C35.4856 36.1887 34.6511 37.7615 33.1574 38.9256C33.1382 38.9395 33.1151 38.9472 33.0914 38.9476C33.0677 38.9479 33.0444 38.941 33.0248 38.9276C33.0052 38.9143 32.9901 38.8953 32.9817 38.8731C32.9732 38.8509 32.9718 38.8267 32.9777 38.8037L34.4414 33.9696Z" fill="#FAB42F"/>
<path d="M30.2559 39.112C29.0041 37.6548 27.7651 36.9357 27.5147 34.8365C27.5082 34.7728 27.5226 34.7087 27.5557 34.6539C27.5888 34.5991 27.6388 34.5565 27.6982 34.5326C27.7576 34.5087 27.8232 34.5047 27.8851 34.5213C27.9469 34.5379 28.0017 34.5742 28.0411 34.6246C28.9613 35.8358 29.8087 37.1283 30.5833 38.5022C30.7117 38.729 30.7374 38.9173 30.6604 39.0671C30.5491 39.2811 30.4143 39.2961 30.2559 39.112Z" fill="#FAB42F"/>
<path d="M57.8157 41.6223C57.4691 41.6394 57.2422 41.7036 57.1352 41.8149C54.7792 44.3122 53.277 41.449 52.5708 39.4974C52.5879 39.3775 52.6393 39.2491 52.7249 39.1122C52.8233 38.9453 52.9688 38.8832 53.1614 38.926L54.2335 39.1507C54.3422 39.1736 54.4556 39.153 54.5501 39.0932C54.6447 39.0334 54.7129 38.939 54.7407 38.8297L55.5881 35.4465C55.6066 35.3718 55.6461 35.3042 55.7021 35.2516C55.7581 35.199 55.8283 35.1636 55.9044 35.1495C55.9805 35.1353 56.0593 35.1431 56.1318 35.1718C56.2042 35.2005 56.2673 35.2491 56.3135 35.3117C57.7173 37.259 58.218 39.3626 57.8157 41.6223Z" fill="#FAB42F"/>
<path d="M60.172 35.061L60.249 35.8634C60.2191 35.8848 60.1913 35.9062 60.1656 35.9276C59.9345 35.7008 59.6285 35.6366 59.2476 35.735C59.4658 35.2643 59.774 35.0396 60.172 35.061Z" fill="#A8D7E3"/>
<path d="M60.1657 35.9275C60.1914 35.9061 60.2192 35.8847 60.2491 35.8633C60.6814 37.4511 60.3882 38.9576 59.3696 40.3828C58.8175 40.4513 58.5072 40.156 58.4388 39.4969C58.3296 38.4761 59.5943 36.7749 60.1657 35.9275Z" fill="#FAB42F"/>
<path d="M26.0508 36.159C27.0394 37.1092 27.645 37.9544 27.8676 38.6948C28.0944 39.4395 27.9275 39.5423 27.3668 39.003L25.1007 36.8395C24.9466 36.694 24.9316 36.5357 25.0557 36.3645C25.3853 35.9023 25.717 35.8338 26.0508 36.159Z" fill="#FAB42F"/>
<path d="M63.7283 43.7666C63.6446 43.737 63.5723 43.6814 63.5216 43.6077C63.4709 43.534 63.4444 43.4459 63.4459 43.3558L63.5036 39.8955C63.5054 39.8253 63.5225 39.7566 63.5536 39.6944C63.5847 39.6322 63.629 39.5781 63.6834 39.536C64.1328 39.1893 64.6442 39.1294 65.2177 39.3563C65.4189 39.4333 65.4831 39.5767 65.4103 39.7864C65.0465 40.8349 65.3589 41.4363 66.3476 41.5903C66.4105 41.5984 66.4689 41.6269 66.514 41.6715C66.5591 41.716 66.5882 41.7742 66.597 41.837C66.6058 41.8997 66.5936 41.9636 66.5625 42.0188C66.5313 42.074 66.4829 42.1175 66.4246 42.1424L65.0444 42.7716C64.9528 42.8133 64.8721 42.8762 64.8086 42.9553C64.7451 43.0344 64.7005 43.1276 64.6785 43.2274C64.5629 43.7795 64.2462 43.9592 63.7283 43.7666Z" fill="#FAB42F"/>
<path d="M65.5581 45.0889C65.6223 44.9991 65.817 44.8942 66.1423 44.7744L69.1724 40.5694C69.258 40.4496 69.2623 40.3255 69.1853 40.1971L69.0954 40.0366C68.9156 39.7327 69.0012 39.5658 69.3522 39.5359C75.0722 39.0801 78.8727 39.0672 83.8416 41.1665C85.4786 41.8598 85.5749 43.4712 83.8287 44.0554C79.2579 45.579 74.5522 46.1974 69.7117 45.9107C69.4677 45.8936 69.3458 45.7652 69.3458 45.5255V45.1082C69.3455 44.9574 69.3017 44.8099 69.2195 44.6833C69.1374 44.5568 69.0206 44.4567 68.8829 44.395C68.7453 44.3333 68.5928 44.3127 68.4437 44.3355C68.2946 44.3584 68.1553 44.4239 68.0426 44.524C66.6131 45.8037 65.7849 45.992 65.5581 45.0889Z" fill="#2491D0"/>
<path d="M75.008 41.4938C74.2719 41.2199 73.5186 41.0295 72.7482 40.9225C72.4444 40.8797 72.2347 40.7919 72.1191 40.6593C72.0078 40.5351 71.9458 40.3896 71.9329 40.2227C71.9158 39.9702 72.0335 39.8568 72.286 39.8825C74.4751 40.12 78.3334 40.0365 80.0732 41.3076C80.3942 41.543 80.3728 41.742 80.009 41.9047L78.77 42.4568C78.6853 42.4937 78.6173 42.5608 78.5794 42.6451C78.5414 42.7293 78.5361 42.8247 78.5645 42.9126L78.8085 43.638C78.8302 43.7063 78.8382 43.7782 78.8318 43.8496C78.8255 43.9209 78.805 43.9903 78.7715 44.0537C78.738 44.117 78.6923 44.1731 78.6369 44.2186C78.5815 44.264 78.5176 44.298 78.449 44.3185C76.2406 44.9562 74.0086 45.0482 71.7532 44.5946C71.7229 44.5883 71.6945 44.575 71.6702 44.5558C71.6459 44.5365 71.6265 44.5119 71.6134 44.4839C71.6003 44.4558 71.5939 44.4251 71.5948 44.3942C71.5957 44.3633 71.6037 44.3329 71.6184 44.3057C71.7938 43.9761 72.0763 43.8456 72.4658 43.9141C72.5236 43.9237 72.583 43.9187 72.6384 43.8997C72.6938 43.8806 72.7434 43.848 72.7825 43.8051C72.8217 43.7621 72.849 43.7101 72.8621 43.6539C72.8752 43.5977 72.8736 43.5393 72.8574 43.4839L72.7226 43.0153C72.7026 42.9451 72.6978 42.8715 72.7085 42.7994C72.7192 42.7272 72.7452 42.6581 72.7846 42.5968C72.8241 42.5354 72.8762 42.4832 72.9375 42.4436C72.9987 42.4039 73.0677 42.3778 73.1398 42.3669L74.9438 42.0973C75.0119 42.0862 75.0744 42.0531 75.1218 42.003C75.1693 41.9529 75.1989 41.8886 75.2062 41.82C75.2135 41.7515 75.198 41.6824 75.1622 41.6234C75.1264 41.5645 75.0722 41.5189 75.008 41.4938Z" fill="#FEFEFE"/>
<path d="M16.8705 44.5946L22.8473 42.4247C28.6508 41.0124 34.5334 40.242 40.4952 40.1136C42.3869 40.0708 44.2165 40.2698 45.9841 40.7106C46.1316 40.7484 46.265 40.8285 46.3678 40.9409C46.4705 41.0534 46.5381 41.1933 46.562 41.3431C46.586 41.493 46.5653 41.6462 46.5025 41.7838C46.4397 41.9213 46.3375 42.037 46.2088 42.1166L44.713 43.0474C44.6227 43.1021 44.55 43.1813 44.5033 43.2759C44.4567 43.3705 44.438 43.4767 44.4494 43.5821C44.4608 43.6876 44.5019 43.788 44.5678 43.8717C44.6338 43.9554 44.722 44.0191 44.8221 44.0553L47.7175 45.0953C47.8012 45.1267 47.875 45.1799 47.9312 45.2495C47.9874 45.319 48.0239 45.4024 48.037 45.4908C48.0501 45.5793 48.0393 45.6696 48.0057 45.7525C47.9721 45.8353 47.9169 45.9077 47.8458 45.962C47.435 46.283 46.8508 46.6425 46.3051 46.7709C37.5999 48.8594 28.8305 49.281 19.997 48.0356C18.2058 47.7788 15.7086 46.8351 16.8705 44.5946Z" fill="#2B9A45"/>
<path d="M60.0307 43.1244C59.44 43.0388 59.2432 42.5038 59.44 41.5194C60.1034 41.4296 60.7539 41.192 61.3916 40.8068C61.6656 40.6399 61.8025 40.717 61.8025 41.038V42.1036C61.8025 42.369 61.6698 42.5209 61.4045 42.5594C60.8652 42.6322 60.4073 42.8205 60.0307 43.1244Z" fill="#FAB42F"/>
<path d="M49.4891 40.9801C49.4805 41.1384 49.4377 41.2604 49.3607 41.346C49.2879 41.4187 49.2858 41.4936 49.3542 41.5707L50.4905 42.7712C50.6489 42.9381 50.7259 43.1371 50.7216 43.3682C50.7174 44.2113 51.0469 44.8747 51.7103 45.3583C51.4321 45.8548 51.0063 45.9468 50.4328 45.6344C49.3735 45.0566 48.6224 42.4245 48.3014 41.2818C48.2458 41.0763 48.3249 40.9736 48.5389 40.9736L49.4891 40.9801Z" fill="#FAB42F"/>
<path d="M90.2551 42.1936C90.3387 42.2354 90.4079 42.3001 90.4541 42.3798C92.2195 45.4933 82.5385 46.6361 81.3701 46.6746C78.7081 46.7602 78.6931 46.5954 81.3252 46.1803C81.9886 46.0733 82.9515 45.6795 84.2141 44.999C86.185 43.9333 87.6294 43.5417 86.9682 41.1664C86.9518 41.1111 86.9521 41.0521 86.9689 40.9969C86.9857 40.9417 87.0183 40.8926 87.0627 40.8558C87.1071 40.8189 87.1613 40.7958 87.2187 40.7894C87.276 40.783 87.334 40.7936 87.3855 40.8198L90.2551 42.1936Z" fill="#2491D0"/>
<path d="M49.4893 40.9805L50.9594 41.9499L51.8133 42.6945L52.4424 45.1212C52.07 45.164 51.8261 45.2432 51.7105 45.3587C51.0472 44.8751 50.7176 44.2117 50.7219 43.3686C50.7262 43.1375 50.6491 42.9385 50.4908 42.7716L49.3545 41.5711C49.286 41.494 49.2882 41.4192 49.3609 41.3464C49.4379 41.2608 49.4807 41.1388 49.4893 40.9805Z" fill="#FEFEFE"/>
<path d="M22.8476 42.4248L16.8708 44.5947L16.3123 44.3892C16.0683 44.2994 16.0555 44.1838 16.2737 44.0426C18.2082 42.8142 20.2775 41.9026 22.4817 41.3077C22.7556 41.235 22.8775 41.6073 22.8476 42.4248Z" fill="#A8D7E3"/>
<path d="M58.0277 42.3989L58.689 44.9476C58.7489 45.1744 58.8965 45.29 59.1319 45.2942C59.5299 45.2942 59.8424 44.939 60.0692 44.2286C60.3731 44.4083 60.6919 44.4318 61.0258 44.2992C61.1139 44.2641 61.2105 44.2555 61.3035 44.2744C61.3965 44.2933 61.482 44.339 61.5494 44.4057C61.6169 44.4725 61.6634 44.5575 61.6833 44.6503C61.7031 44.7432 61.6955 44.8398 61.6613 44.9283C61.0193 46.576 60.0307 48.0077 58.6954 49.2231C58.5751 49.3312 58.4267 49.4034 58.2674 49.4316C58.1081 49.4597 57.9443 49.4427 57.7948 49.3823C57.6453 49.322 57.5162 49.2208 57.4222 49.0905C57.3283 48.9601 57.2734 48.8058 57.2638 48.6453C57.0776 45.8271 55.8193 44.9925 58.0277 42.3989Z" fill="#FAB42F"/>
<path d="M51.813 42.6943C53.5784 44.3121 55.5108 45.198 55.5172 48.0227C55.5172 48.2881 55.4252 48.3223 55.2411 48.1254L52.4421 45.121L51.813 42.6943Z" fill="#FAB42F"/>
<path d="M66.1422 44.7743C65.817 44.8941 65.6222 44.999 65.558 45.0889C64.3062 46.1224 63.1571 48.119 61.6741 48.5363C61.4301 48.6047 61.3467 48.5191 61.4237 48.2795C61.9758 46.6296 64.1264 43.3106 66.1422 44.7743Z" fill="#FAB42F"/>
<path d="M45.9395 51.2265C42.7874 51.3485 37.8249 51.7209 36.7014 55.2774C36.6807 55.347 36.6448 55.4111 36.5961 55.4651C36.5474 55.5191 36.4872 55.5617 36.4198 55.5899C36.3524 55.6181 36.2794 55.6312 36.206 55.6282C36.1327 55.6252 36.0607 55.6063 35.9953 55.5727L33.6713 54.3529C33.5637 54.2961 33.4715 54.214 33.4028 54.1137C33.334 54.0135 33.2907 53.8981 33.2768 53.7777C33.2629 53.6574 33.2787 53.5357 33.3228 53.4233C33.367 53.311 33.4381 53.2114 33.5301 53.1332L34.814 52.0226C35.0708 51.8043 35.0302 51.693 34.6921 51.6888C33.1299 51.6802 32.1199 52.3864 31.6619 53.8073C31.6217 53.93 31.6089 54.0607 31.6244 54.1903C31.6399 54.32 31.6834 54.4455 31.7518 54.5584C32.5093 55.7739 33.6028 56.5335 35.0323 56.8374C35.0708 56.846 35.0965 56.8695 35.1093 56.908C35.1265 56.9594 35.1436 57.0107 35.1607 57.0621C35.2078 57.1905 35.165 57.2354 35.0323 57.1969C32.4708 56.4394 28.9721 56.3046 30.4037 52.2922C30.4308 52.208 30.4285 52.117 30.3973 52.0342C30.3661 51.9514 30.3078 51.8816 30.2319 51.8362C30.1559 51.7908 30.0668 51.7724 29.9791 51.7841C29.8914 51.7958 29.8102 51.8369 29.7489 51.9006L27.3928 54.4428C27.3174 54.5277 27.2741 54.6362 27.2705 54.749C27.267 54.8617 27.3035 54.9716 27.3735 55.0591C28.4007 56.3602 29.5498 57.1498 30.821 57.428C37.6387 58.9238 44.7839 60.7663 51.4797 61.19C56.8509 61.5281 62.2307 61.5281 67.619 61.19C69.1405 61.0937 81.1133 59.8996 82.3395 56.8117C82.3906 56.6802 82.4074 56.538 82.3883 56.3987C82.3692 56.2594 82.3148 56.1275 82.2303 56.0157C81.4343 54.9714 80.4007 54.3144 79.1296 54.0448C79.0395 54.0255 78.9555 53.9841 78.8852 53.9244C78.8149 53.8648 78.7605 53.7886 78.7268 53.7028C78.6931 53.617 78.6812 53.5242 78.6921 53.4326C78.703 53.3411 78.7364 53.2536 78.7894 53.1781L79.7844 51.7722C79.8435 51.6901 79.8742 51.5907 79.8719 51.4889C79.8696 51.3871 79.8344 51.2883 79.7716 51.2073C78.1153 49.0759 73.7049 48.4275 71.458 48.1258C71.3532 48.111 71.2463 48.129 71.1521 48.1772C71.0578 48.2255 70.9808 48.3017 70.9316 48.3954C70.6919 48.8534 70.8139 49.2214 71.2975 49.4996C70.1377 49.6665 69.3074 49.429 68.8066 48.787C68.7174 48.6731 68.662 48.5363 68.6469 48.3924C68.6318 48.2484 68.6576 48.1031 68.7212 47.9732C68.7849 47.8432 68.8838 47.7337 69.0068 47.6574C69.1298 47.5811 69.2718 47.5409 69.4165 47.5416C74.3982 47.5994 85.1577 48.3633 88.6373 51.9006C88.6846 51.9492 88.7213 52.0072 88.7449 52.0707C88.7686 52.1342 88.7786 52.2018 88.7743 52.2691C88.7701 52.3364 88.7517 52.4018 88.7203 52.4611C88.6889 52.5204 88.6453 52.5723 88.5923 52.6132L85.8768 54.706C85.2605 55.1811 85.3247 55.5256 86.0694 55.7396C87.5138 56.1569 89.6066 55.8295 90.0753 57.9673C90.1181 58.1556 90.0796 58.3225 89.9597 58.468C87.1992 61.8962 83.6619 62.9747 79.2644 64.7401C72.6264 67.3979 65.019 68.669 58.015 66.6596C53.1681 65.2729 48.7256 62.7564 44.1163 61.4789C39.4298 60.1821 34.7092 59.0394 29.9543 58.0507C28.3429 57.7169 27.0847 57.1134 26.096 55.9194C25.8681 55.6437 25.7527 55.2921 25.7729 54.935C25.7931 54.5779 25.9475 54.2416 26.2051 53.9934L28.6703 51.6117C28.7326 51.5518 28.7757 51.4747 28.7942 51.3903C28.8126 51.3058 28.8056 51.2178 28.774 51.1374C28.7424 51.0569 28.6876 50.9877 28.6165 50.9384C28.5455 50.8891 28.4615 50.8621 28.375 50.8606C24.337 50.7771 15.4135 50.3021 13.3143 47.1436C13.2453 47.0387 13.2106 46.915 13.2152 46.7896C13.2199 46.6642 13.2634 46.5433 13.34 46.4438L14.579 44.8004C14.5967 44.7734 14.6195 44.7502 14.6462 44.732C14.6729 44.7139 14.7029 44.7011 14.7345 44.6946C14.7661 44.688 14.7986 44.6878 14.8303 44.6938C14.862 44.6998 14.8922 44.712 14.9192 44.7297C14.9462 44.7474 14.9694 44.7703 14.9876 44.797C15.0057 44.8236 15.0184 44.8536 15.025 44.8852C15.0316 44.9168 15.0318 44.9494 15.0258 44.9811C15.0198 45.0128 15.0075 45.043 14.9898 45.07L14.3864 46.0971C14.2837 46.2726 14.2772 46.4524 14.3671 46.6364C15.5869 49.2236 23.2264 49.6088 25.9098 49.6665C34.9424 49.8591 41.9592 49.9811 49.4639 47.4967C49.5879 47.4556 49.7213 47.4529 49.8468 47.489C49.9723 47.5251 50.084 47.5982 50.1673 47.6988C50.2505 47.7994 50.3014 47.9228 50.3134 48.0528C50.3254 48.1828 50.2978 48.3134 50.2343 48.4275C49.2927 50.1052 47.8611 51.0382 45.9395 51.2265Z" fill="#2491D0"/>
<path d="M9.5328 47.0663L12.6014 44.8258C12.6502 44.7878 12.7111 44.7686 12.7729 44.7718C12.8347 44.7751 12.8932 44.8005 12.9377 44.8435C12.9822 44.8864 13.0097 44.944 13.0152 45.0056C13.0206 45.0673 13.0037 45.1288 12.9674 45.1789C12.1456 46.3772 12.0108 47.627 12.5629 48.928C12.6528 49.142 12.7983 49.3047 12.9995 49.4159L14.7777 50.3981C15.0388 50.5394 15.0217 50.6079 14.7264 50.6036C12.8433 50.5736 11.1249 50.0408 9.57132 49.0051C9.41349 48.8998 9.28354 48.7579 9.19246 48.5913C9.10139 48.4248 9.05186 48.2386 9.04809 48.0484C9.04431 47.8582 9.08638 47.6697 9.17075 47.4988C9.25513 47.3278 9.37931 47.1795 9.5328 47.0663Z" fill="#2491D0"/>
<path d="M58.9652 51.008C59.4275 51.0551 59.8982 51.1128 60.3776 51.1813C60.5787 51.2113 60.6836 51.3268 60.6921 51.528C60.6964 51.7334 60.5274 51.8682 60.185 51.9324C59.971 51.9752 59.757 51.9795 59.543 51.9453C56.0186 51.406 54.6126 50.9245 52.5134 48.0549C52.4278 47.9308 52.4235 47.7895 52.5005 47.6312C52.5904 47.4429 52.6995 47.4322 52.8279 47.5991C54.3858 49.6192 56.4316 50.7555 58.9652 51.008Z" fill="#FAB42F"/>
<path d="M45.9392 51.2264C46.0205 51.389 46.1039 51.5517 46.1895 51.7143C42.9711 52.0824 40.2342 52.8998 37.9787 54.1666C37.801 54.2659 37.6663 54.4258 37.5999 54.616C35.3273 60.9266 61.3915 60.5286 64.1584 60.4516C67.7407 60.3553 78.8019 59.5592 80.7792 56.3943C80.8322 56.3096 80.8637 56.2132 80.8707 56.1136C80.8778 56.0139 80.8603 55.9141 80.8197 55.8228C80.7791 55.7315 80.7167 55.6515 80.638 55.59C80.5593 55.5285 80.4667 55.4872 80.3683 55.4698L75.7718 54.6545C75.686 54.6394 75.6063 54.6003 75.5417 54.5419C75.4772 54.4834 75.4305 54.4078 75.407 54.324C75.3835 54.2401 75.3842 54.1513 75.409 54.0678C75.4338 53.9843 75.4816 53.9095 75.5471 53.8521C76.4416 53.0517 76.6941 52.1936 76.3046 51.2777C76.1548 51.2521 76.2746 51.1194 76.6641 50.8797C77.4901 51.7143 77.4901 52.5981 76.6641 53.5311C76.6143 53.5891 76.5869 53.662 76.5871 53.7365V54.0832C76.5914 54.5668 76.7433 54.6203 77.0429 54.2437L78.6286 52.2535C78.6889 52.1742 78.7216 52.0772 78.7216 51.9775C78.7216 51.8778 78.6889 51.7808 78.6286 51.7015C78.1321 51.0552 77.4537 50.6422 76.5935 50.4624C75.8274 49.9146 74.8537 49.7028 73.6725 49.8269L71.2972 49.4995C70.8136 49.2213 70.6916 48.8532 70.9313 48.3953C70.9805 48.3016 71.0575 48.2253 71.1518 48.1771C71.246 48.1288 71.3529 48.1108 71.4577 48.1256C73.7046 48.4274 78.115 49.0758 79.7713 51.2071C79.8341 51.2881 79.8693 51.3869 79.8716 51.4887C79.8739 51.5906 79.8432 51.69 79.7841 51.7721L78.789 53.178C78.7361 53.2535 78.7027 53.3409 78.6918 53.4325C78.6809 53.524 78.6928 53.6168 78.7265 53.7027C78.7602 53.7885 78.8146 53.8646 78.8849 53.9243C78.9552 53.984 79.0391 54.0253 79.1293 54.0447C80.4004 54.3143 81.434 54.9712 82.23 56.0155C82.3145 56.1274 82.3689 56.2592 82.388 56.3986C82.4071 56.5379 82.3903 56.6801 82.3392 56.8116C81.113 59.8995 69.1402 61.0935 67.6187 61.1898C62.2304 61.528 56.8506 61.528 51.4794 61.1898C44.7836 60.7661 37.6384 58.9237 30.8207 57.4279C29.5495 57.1497 28.4004 56.3601 27.3732 55.059C27.3032 54.9715 27.2667 54.8616 27.2703 54.7488C27.2738 54.636 27.3171 54.5276 27.3925 54.4427L29.7486 51.9005C29.8099 51.8367 29.8911 51.7957 29.9788 51.784C30.0665 51.7723 30.1556 51.7907 30.2316 51.8361C30.3075 51.8815 30.3658 51.9513 30.397 52.0341C30.4282 52.1169 30.4305 52.2078 30.4034 52.2921C28.9718 56.3044 32.4705 56.4392 35.032 57.1968C35.1647 57.2353 35.2075 57.1903 35.1604 57.0619C35.1433 57.0106 35.1262 56.9592 35.109 56.9079C35.0962 56.8693 35.0705 56.8458 35.032 56.8373C33.6025 56.5334 32.509 55.7737 31.7515 54.5582C31.6831 54.4454 31.6396 54.3198 31.6241 54.1902C31.6086 54.0605 31.6214 53.9299 31.6616 53.8071C32.1196 52.3862 33.1296 51.6801 34.6918 51.6886C35.0299 51.6929 35.0705 51.8042 34.8137 52.0224L33.5298 53.1331C33.4378 53.2112 33.3667 53.3108 33.3225 53.4232C33.2784 53.5356 33.2626 53.6572 33.2765 53.7776C33.2904 53.898 33.3337 54.0133 33.4025 54.1136C33.4712 54.2139 33.5634 54.296 33.671 54.3528L35.995 55.5726C36.0604 55.6061 36.1324 55.6251 36.2057 55.628C36.2791 55.631 36.3521 55.6179 36.4195 55.5897C36.4869 55.5616 36.5471 55.5189 36.5958 55.4649C36.6445 55.4109 36.6804 55.3468 36.7011 55.2773C37.8246 51.7207 42.7871 51.3484 45.9392 51.2264Z" fill="#FEFEFE"/>
<path d="M73.6729 49.8269C74.8541 49.7028 75.8278 49.9146 76.5938 50.4624C76.5296 50.9032 76.5532 51.0423 76.6645 50.8797C76.275 51.1194 76.1552 51.2521 76.3049 51.2777L73.7435 50.5908C73.8933 50.3426 73.8697 50.0879 73.6729 49.8269Z" fill="#A8D7E3"/>
<path d="M73.7434 50.5908L76.3049 51.2777C76.6943 52.1936 76.4418 53.0517 75.5473 53.852C75.4819 53.9095 75.434 53.9843 75.4093 54.0678C75.3845 54.1513 75.3838 54.2401 75.4073 54.3239C75.4308 54.4078 75.4775 54.4833 75.542 54.5418C75.6065 54.6003 75.6863 54.6394 75.772 54.6545L80.3686 55.4698C80.467 55.4872 80.5596 55.5284 80.6383 55.59C80.717 55.6515 80.7794 55.7314 80.82 55.8227C80.8605 55.914 80.8781 56.0139 80.871 56.1135C80.8639 56.2132 80.8325 56.3096 80.7794 56.3942C78.8022 59.5592 67.7409 60.3552 64.1587 60.4515C61.3918 60.5286 35.3276 60.9266 37.6002 54.616C37.6665 54.4258 37.8013 54.2659 37.9789 54.1666C40.2344 52.8998 42.9714 52.0823 46.1898 51.7142C48.7748 52.2364 51.5439 52.4739 54.497 52.4268C55.6354 52.4097 56.9643 52.5296 58.4836 52.7863C62.0359 53.3812 65.3036 52.9404 68.2866 51.4639C70.3752 50.4324 72.1941 50.1414 73.7434 50.5908Z" fill="#2B9A45"/>
<path d="M76.5938 50.4619C77.4541 50.6417 78.1324 51.0547 78.6289 51.7009C78.6893 51.7803 78.722 51.8773 78.722 51.977C78.722 52.0767 78.6893 52.1737 78.6289 52.253L77.0432 54.2431C76.7436 54.6198 76.5917 54.5663 76.5874 54.0827V53.736C76.5872 53.6615 76.6146 53.5886 76.6644 53.5306C77.4904 52.5976 77.4904 51.7138 76.6644 50.8792C76.5532 51.0418 76.5296 50.9027 76.5938 50.4619Z" fill="#2491D0"/>
<path d="M54.0606 67.0574C54.0812 67.0668 54.0983 67.0832 54.1088 67.1037C54.1193 67.1242 54.1225 67.1475 54.1178 67.1693C54.1131 67.1911 54.1009 67.2099 54.0833 67.2224C54.0658 67.2348 54.044 67.2401 54.0221 67.2372C51.0947 67.066 48.2207 66.5182 45.4003 65.5937C43.2561 64.8876 42.1134 63.5715 40.547 62.8525C39.3315 62.2961 38.1417 61.7569 36.9776 61.2347C36.9264 61.211 36.8857 61.1693 36.8631 61.1176C36.8405 61.0658 36.8376 61.0076 36.855 60.9539C36.8723 60.9002 36.9088 60.8547 36.9574 60.826C37.006 60.7973 37.0634 60.7874 37.1189 60.7982C43.0443 62.0179 48.3727 64.9132 54.0606 67.0574Z" fill="#2491D0"/>
</svg>
