<svg width="100" height="100" viewBox="0 0 100 100" fill="none" xmlns="http://www.w3.org/2000/svg">
<g clip-path="url(#clip0_31_4695)">
<rect width="100" height="100" fill="white"/>
<path d="M0.028654 0H96.2818L63.5536 33.1249C63.35 33.334 63.1056 33.5003 62.8349 33.6139C62.5643 33.7275 62.2728 33.7861 61.9777 33.7862H0.489888C0.175995 33.7862 0.019043 33.6297 0.019043 33.3166L0.028654 0Z" fill="#1F4272"/>
<path d="M100.885 5.88526L100.933 33.336C100.933 33.4453 100.889 33.5501 100.812 33.6274C100.734 33.7047 100.629 33.7481 100.519 33.7481L73.0089 33.796C72.9255 33.7984 72.8433 33.7755 72.7732 33.7304C72.7031 33.6853 72.6483 33.6201 72.6161 33.5433C72.5838 33.4665 72.5756 33.3818 72.5926 33.3004C72.6095 33.2189 72.6508 33.1444 72.711 33.0868L100.173 5.59772C100.231 5.53834 100.304 5.49742 100.385 5.48025C100.466 5.46307 100.55 5.47044 100.627 5.50139C100.703 5.53233 100.769 5.58545 100.815 5.65387C100.861 5.72229 100.885 5.80289 100.885 5.88526Z" fill="#80CB29"/>
<path d="M6.53058e-05 95.8379V43.486C6.53058e-05 43.392 0.0375206 43.3018 0.104196 43.2353C0.170871 43.1688 0.261307 43.1314 0.3556 43.1314H52.8398C52.9117 43.13 52.9823 43.1504 53.0423 43.1899C53.1024 43.2294 53.149 43.2861 53.176 43.3525C53.2031 43.4189 53.2093 43.492 53.1939 43.562C53.1785 43.6321 53.1421 43.6958 53.0897 43.7448L0.615039 96.0871C0.565898 96.1395 0.502003 96.1757 0.431785 96.1911C0.361566 96.2065 0.288325 96.2003 0.22172 96.1733C0.155115 96.1463 0.0982776 96.0998 0.0587065 96.0399C0.0191354 95.98 -0.00131236 95.9096 6.53058e-05 95.8379Z" fill="#1F4272"/>
<path d="M6.14027 100.113L62.4297 43.4189C62.5177 43.3279 62.6235 43.2555 62.7407 43.2061C62.8579 43.1567 62.9842 43.1313 63.1119 43.1313H100.587C100.696 43.1313 100.802 43.1748 100.879 43.2521C100.957 43.3294 101 43.4342 101 43.5435L100.846 100.17C100.846 100.432 100.715 100.566 100.452 100.573C69.9086 100.873 49.4191 100.962 38.9838 100.841C25.6465 100.688 16.0952 100.739 10.3298 100.994C9.4842 101.033 8.12933 100.873 6.26519 100.515C5.97051 100.458 5.92887 100.324 6.14027 100.113Z" fill="#80CB29"/>
</g>
<defs>
<clipPath id="clip0_31_4695">
<rect width="100" height="100" fill="white"/>
</clipPath>
</defs>
</svg>
