<svg width="100" height="100" viewBox="0 0 100 100" fill="none" xmlns="http://www.w3.org/2000/svg">
<rect width="100" height="100" fill="#595C62"/>
<path d="M21.8623 40.8203H28.7295C30.0889 40.8203 31.1006 40.8789 31.7647 40.9961C32.4366 41.1055 33.0342 41.3398 33.5577 41.6992C34.0889 42.0586 34.5303 42.5391 34.8819 43.1406C35.2334 43.7344 35.4092 44.4023 35.4092 45.1445C35.4092 45.9492 35.1905 46.6875 34.753 47.3594C34.3233 48.0312 33.7373 48.5352 32.9952 48.8711C34.042 49.1758 34.8467 49.6953 35.4092 50.4297C35.9717 51.1641 36.253 52.0273 36.253 53.0195C36.253 53.8008 36.0694 54.5625 35.7022 55.3047C35.3428 56.0391 34.8467 56.6289 34.2139 57.0742C33.5889 57.5117 32.8155 57.7812 31.8936 57.8828C31.3155 57.9453 29.9209 57.9844 27.71 58H21.8623V40.8203ZM25.3311 43.6797V47.6523H27.6045C28.9561 47.6523 29.7959 47.6328 30.1241 47.5938C30.7178 47.5234 31.1827 47.3203 31.5186 46.9844C31.8623 46.6406 32.0342 46.1914 32.0342 45.6367C32.0342 45.1055 31.8858 44.6758 31.5889 44.3477C31.2998 44.0117 30.8662 43.8086 30.2881 43.7383C29.9444 43.6992 28.9561 43.6797 27.3233 43.6797H25.3311ZM25.3311 50.5117V55.1055H28.542C29.792 55.1055 30.585 55.0703 30.9209 55C31.4366 54.9062 31.8545 54.6797 32.1748 54.3203C32.503 53.9531 32.667 53.4648 32.667 52.8555C32.667 52.3398 32.542 51.9023 32.292 51.543C32.042 51.1836 31.6787 50.9219 31.2022 50.7578C30.7334 50.5938 29.71 50.5117 28.1319 50.5117H25.3311ZM55.0466 58H51.2731L49.7731 54.0977H42.9059L41.488 58H37.8083L44.4997 40.8203H48.1677L55.0466 58ZM48.6598 51.2031L46.2927 44.8281L43.9723 51.2031H48.6598ZM57.2698 58V40.8203H64.5706C66.4066 40.8203 67.7386 40.9766 68.5667 41.2891C69.4027 41.5938 70.0706 42.1406 70.5706 42.9297C71.0706 43.7188 71.3206 44.6211 71.3206 45.6367C71.3206 46.9258 70.9417 47.9922 70.1839 48.8359C69.4261 49.6719 68.2933 50.1992 66.7855 50.418C67.5355 50.8555 68.1527 51.3359 68.637 51.8594C69.1292 52.3828 69.7894 53.3125 70.6175 54.6484L72.7152 58H68.5667L66.0589 54.2617C65.1683 52.9258 64.5589 52.0859 64.2308 51.7422C63.9027 51.3906 63.555 51.1523 63.1878 51.0273C62.8206 50.8945 62.2386 50.8281 61.4417 50.8281H60.7386V58H57.2698ZM60.7386 48.0859H63.305C64.9691 48.0859 66.0081 48.0156 66.4222 47.875C66.8363 47.7344 67.1605 47.4922 67.3948 47.1484C67.6292 46.8047 67.7464 46.375 67.7464 45.8594C67.7464 45.2812 67.5902 44.8164 67.2777 44.4648C66.973 44.1055 66.5394 43.8789 65.9769 43.7852C65.6956 43.7461 64.8519 43.7266 63.4456 43.7266H60.7386V48.0859ZM74.8564 58V40.8203H78.3252V58H74.8564Z" fill="#F8F8F8"/>
</svg>
