<svg width="100" height="100" viewBox="0 0 100 100" fill="none" xmlns="http://www.w3.org/2000/svg">
<rect width="100" height="100" fill="#595C62"/>
<path d="M17.8662 40.8203H24.7334C26.0928 40.8203 27.1045 40.8789 27.7686 40.9961C28.4405 41.1055 29.0381 41.3398 29.5616 41.6992C30.0928 42.0586 30.5342 42.5391 30.8858 43.1406C31.2373 43.7344 31.4131 44.4023 31.4131 45.1445C31.4131 45.9492 31.1944 46.6875 30.7569 47.3594C30.3272 48.0312 29.7412 48.5352 28.9991 48.8711C30.0459 49.1758 30.8506 49.6953 31.4131 50.4297C31.9756 51.1641 32.2569 52.0273 32.2569 53.0195C32.2569 53.8008 32.0733 54.5625 31.7061 55.3047C31.3467 56.0391 30.8506 56.6289 30.2178 57.0742C29.5928 57.5117 28.8194 57.7812 27.8975 57.8828C27.3194 57.9453 25.9248 57.9844 23.7139 58H17.8662V40.8203ZM21.335 43.6797V47.6523H23.6084C24.96 47.6523 25.7998 47.6328 26.128 47.5938C26.7217 47.5234 27.1866 47.3203 27.5225 46.9844C27.8662 46.6406 28.0381 46.1914 28.0381 45.6367C28.0381 45.1055 27.8897 44.6758 27.5928 44.3477C27.3037 44.0117 26.8702 43.8086 26.292 43.7383C25.9483 43.6992 24.96 43.6797 23.3272 43.6797H21.335ZM21.335 50.5117V55.1055H24.5459C25.7959 55.1055 26.5889 55.0703 26.9248 55C27.4405 54.9062 27.8584 54.6797 28.1787 54.3203C28.5069 53.9531 28.6709 53.4648 28.6709 52.8555C28.6709 52.3398 28.5459 51.9023 28.2959 51.543C28.0459 51.1836 27.6827 50.9219 27.2061 50.7578C26.7373 50.5938 25.7139 50.5117 24.1358 50.5117H21.335ZM51.0505 58H47.277L45.777 54.0977H38.9098L37.4919 58H33.8122L40.5036 40.8203H44.1716L51.0505 58ZM44.6637 51.2031L42.2966 44.8281L39.9762 51.2031H44.6637ZM52.3831 52.4102L55.7581 52.082C55.9613 53.2148 56.3714 54.0469 56.9886 54.5781C57.6136 55.1094 58.4534 55.375 59.5081 55.375C60.6253 55.375 61.4652 55.1406 62.0277 54.6719C62.598 54.1953 62.8831 53.6406 62.8831 53.0078C62.8831 52.6016 62.762 52.2578 62.5198 51.9766C62.2855 51.6875 61.8714 51.4375 61.2777 51.2266C60.8714 51.0859 59.9456 50.8359 58.5003 50.4766C56.6409 50.0156 55.3363 49.4492 54.5863 48.7773C53.5316 47.832 53.0042 46.6797 53.0042 45.3203C53.0042 44.4453 53.2503 43.6289 53.7425 42.8711C54.2425 42.1055 54.9573 41.5234 55.887 41.125C56.8245 40.7266 57.9534 40.5273 59.2738 40.5273C61.43 40.5273 63.0511 41 64.137 41.9453C65.2308 42.8906 65.805 44.1523 65.8597 45.7305L62.3909 45.8828C62.2425 45 61.9222 44.3672 61.43 43.9844C60.9456 43.5938 60.2152 43.3984 59.2386 43.3984C58.2308 43.3984 57.4417 43.6055 56.8714 44.0195C56.5042 44.2852 56.3206 44.6406 56.3206 45.0859C56.3206 45.4922 56.4925 45.8398 56.8363 46.1289C57.2738 46.4961 58.3363 46.8789 60.0238 47.2773C61.7113 47.6758 62.9573 48.0898 63.762 48.5195C64.5745 48.9414 65.2073 49.5234 65.6605 50.2656C66.1214 51 66.3519 51.9102 66.3519 52.9961C66.3519 53.9805 66.0784 54.9023 65.5316 55.7617C64.9847 56.6211 64.2113 57.2617 63.2113 57.6836C62.2113 58.0977 60.9652 58.3047 59.473 58.3047C57.3011 58.3047 55.6331 57.8047 54.4691 56.8047C53.305 55.7969 52.6097 54.332 52.3831 52.4102ZM68.7509 52.4102L72.1259 52.082C72.3291 53.2148 72.7392 54.0469 73.3564 54.5781C73.9814 55.1094 74.8213 55.375 75.8759 55.375C76.9931 55.375 77.833 55.1406 78.3955 54.6719C78.9658 54.1953 79.2509 53.6406 79.2509 53.0078C79.2509 52.6016 79.1298 52.2578 78.8877 51.9766C78.6533 51.6875 78.2392 51.4375 77.6455 51.2266C77.2392 51.0859 76.3134 50.8359 74.8681 50.4766C73.0088 50.0156 71.7041 49.4492 70.9541 48.7773C69.8994 47.832 69.372 46.6797 69.372 45.3203C69.372 44.4453 69.6181 43.6289 70.1103 42.8711C70.6103 42.1055 71.3252 41.5234 72.2548 41.125C73.1923 40.7266 74.3213 40.5273 75.6416 40.5273C77.7978 40.5273 79.4189 41 80.5048 41.9453C81.5986 42.8906 82.1728 44.1523 82.2275 45.7305L78.7588 45.8828C78.6103 45 78.29 44.3672 77.7978 43.9844C77.3134 43.5938 76.583 43.3984 75.6064 43.3984C74.5986 43.3984 73.8095 43.6055 73.2392 44.0195C72.872 44.2852 72.6884 44.6406 72.6884 45.0859C72.6884 45.4922 72.8603 45.8398 73.2041 46.1289C73.6416 46.4961 74.7041 46.8789 76.3916 47.2773C78.0791 47.6758 79.3252 48.0898 80.1298 48.5195C80.9423 48.9414 81.5752 49.5234 82.0283 50.2656C82.4892 51 82.7197 51.9102 82.7197 52.9961C82.7197 53.9805 82.4463 54.9023 81.8994 55.7617C81.3525 56.6211 80.5791 57.2617 79.5791 57.6836C78.5791 58.0977 77.333 58.3047 75.8408 58.3047C73.6689 58.3047 72.0009 57.8047 70.8369 56.8047C69.6728 55.7969 68.9775 54.332 68.7509 52.4102Z" fill="#F8F8F8"/>
</svg>
