<svg width="100" height="100" viewBox="0 0 100 100" fill="none" xmlns="http://www.w3.org/2000/svg">
<rect width="100" height="100" fill="white"/>
<g clip-path="url(#clip0_31_4698)">
<path d="M0 25H100V75H0V25Z" fill="white"/>
<path d="M64.6323 54.855C64.719 54.8983 64.8523 54.8833 65.0323 54.81C66.2248 54.3275 68.0123 53.44 68.5723 52.1975C70.0007 49.0325 72.389 47.1875 75.7373 46.6625C77.7898 46.34 79.6623 46.6775 81.2598 47.94C81.2807 47.9565 81.3049 47.9685 81.3307 47.9752C81.3565 47.9819 81.3834 47.9832 81.4097 47.979C81.436 47.9748 81.4612 47.9651 81.4836 47.9506C81.506 47.9362 81.5251 47.9172 81.5398 47.895L82.2598 46.7975C82.2809 46.7665 82.3088 46.7408 82.3413 46.7226C82.3739 46.7043 82.4102 46.694 82.4473 46.6925C83.4348 46.64 84.3723 46.9675 85.2298 46.935C85.9448 46.91 88.6723 46.0875 88.0298 47.7925C87.2032 49.9941 86.3465 52.2366 85.4598 54.52C85.4315 54.593 85.4248 54.6727 85.4406 54.7495C85.4564 54.8262 85.494 54.8968 85.5489 54.9527C85.6038 55.0086 85.6736 55.0475 85.75 55.0648C85.8265 55.0821 85.9062 55.0769 85.9798 55.05C87.3573 54.5375 88.1823 53.85 89.1073 52.655C89.1252 52.6321 89.1478 52.6133 89.1736 52.6C89.1995 52.5867 89.2279 52.5792 89.2569 52.578C89.286 52.5768 89.3149 52.582 89.3417 52.5931C89.3686 52.6043 89.3927 52.6211 89.4123 52.6425L90.2673 53.57C90.3213 53.6282 90.3511 53.7048 90.3506 53.7842C90.3502 53.8636 90.3195 53.9399 90.2648 53.9975C88.0398 56.3191 85.4315 57.9025 82.4398 58.7475C80.7273 59.2325 78.3673 58.595 78.1948 56.48C78.1907 56.4303 78.1723 56.3829 78.142 56.3434C78.1116 56.3039 78.0706 56.2739 78.0237 56.2571C77.9768 56.2402 77.9261 56.2372 77.8775 56.2483C77.829 56.2595 77.7847 56.2844 77.7498 56.32C74.9673 59.2 69.3623 60.445 67.9248 55.3725C67.9196 55.354 67.91 55.337 67.8968 55.323C67.8836 55.309 67.8673 55.2984 67.8492 55.292C67.831 55.2857 67.8116 55.2837 67.7926 55.2864C67.7736 55.2891 67.7555 55.2963 67.7398 55.3075C65.7773 56.7225 59.2123 60.765 57.2348 57.9875C56.7998 57.3775 56.9048 56.4875 56.9673 55.7575C56.9696 55.7315 56.9644 55.7054 56.9523 55.6823C56.9403 55.6592 56.922 55.6399 56.8994 55.6268C56.8769 55.6137 56.8511 55.6073 56.8251 55.6083C56.799 55.6093 56.7738 55.6177 56.7523 55.6325C54.6598 57.0475 46.7073 61.775 45.8373 56.415C45.8323 56.3844 45.8189 56.3559 45.7986 56.3325C45.7784 56.3091 45.752 56.2917 45.7225 56.2824C45.693 56.2731 45.6614 56.2721 45.6314 56.2796C45.6013 56.2872 45.574 56.3028 45.5523 56.325C42.7798 59.155 37.4623 60.665 35.5423 55.86C35.534 55.8387 35.5211 55.8195 35.5045 55.8037C35.488 55.7879 35.4682 55.7759 35.4465 55.7685C35.4249 55.7611 35.4019 55.7586 35.3791 55.761C35.3564 55.7634 35.3344 55.7707 35.3148 55.7825C31.0348 58.2975 25.9248 60.9725 21.3198 57.195C21.2465 57.135 21.2307 57.0625 21.2723 56.9775L21.8873 55.705C21.9407 55.5916 22.0182 55.5716 22.1198 55.645C23.8315 56.8866 25.214 56.5908 26.2673 54.7575C27.2798 52.9975 28.6273 48.975 24.8348 49.32C24.8042 49.3228 24.7734 49.3179 24.7452 49.3058C24.7169 49.2938 24.6921 49.2748 24.673 49.2508C24.6539 49.2267 24.6411 49.1983 24.6357 49.168C24.6304 49.1378 24.6326 49.1066 24.6423 49.0775L25.0598 47.815C25.075 47.7706 25.1045 47.7324 25.1438 47.7062C25.183 47.68 25.2299 47.6673 25.2773 47.67C29.4573 47.98 30.4623 41.7775 27.3173 42.7825C26.2173 43.135 25.5123 44.38 25.0998 45.4275C24.2032 47.7175 22.8715 50.9233 21.1048 55.045C19.3448 59.155 14.4998 60.2075 10.9323 57.7525C10.4307 57.4075 10.0257 57.0358 9.71733 56.6375C9.69453 56.6068 9.67832 56.5718 9.66972 56.5348C9.66111 56.4978 9.6603 56.4596 9.66733 56.4225L9.99233 54.815C10.019 54.685 10.0815 54.665 10.1798 54.755C10.7548 55.2825 11.3523 56.0125 12.0698 56.205C13.5823 56.6175 14.1698 55.2325 14.6923 54.0275C15.8773 51.3 16.8973 48.33 18.4398 45.79C18.4585 45.7574 18.4656 45.7192 18.46 45.6819C18.4543 45.6446 18.4363 45.6104 18.4088 45.5849C18.3813 45.5595 18.346 45.5444 18.3089 45.5421C18.2718 45.5398 18.2351 45.5506 18.2048 45.5725L14.9773 47.975C14.9073 48.0283 14.8407 48.025 14.7773 47.965L13.9523 47.185C13.9176 47.1522 13.89 47.1126 13.8711 47.0687C13.8522 47.0248 13.8424 46.9774 13.8424 46.9295C13.8424 46.8816 13.8522 46.8341 13.8711 46.7899C13.89 46.7457 13.9176 46.7058 13.9523 46.6725C17.6323 43.2025 22.7323 40.9 27.8723 40.93C29.9698 40.94 32.9523 41.7275 34.1273 43.5675C35.6348 45.93 33.2573 48.135 30.9748 48.4025C30.9381 48.4066 30.9039 48.4232 30.8781 48.4497C30.8523 48.4761 30.8364 48.5107 30.8331 48.5475C30.8299 48.5843 30.8395 48.6211 30.8603 48.6516C30.8811 48.6821 30.9119 48.7045 30.9473 48.715C33.6273 49.5525 34.1123 52.065 33.3398 54.4775C33.329 54.5103 33.3274 54.5455 33.3353 54.5792C33.3432 54.6128 33.3602 54.6436 33.3846 54.6682C33.4089 54.6928 33.4395 54.7102 33.4731 54.7184C33.5067 54.7267 33.5419 54.7255 33.5748 54.715C36.0198 53.925 35.7948 52.7325 36.9423 51.0075C39.189 47.6258 42.3748 46.2441 46.4998 46.8625C47.3098 46.9841 48.1165 47.3883 48.9198 48.075C48.9511 48.1013 48.9914 48.1143 49.0322 48.111C49.0729 48.1077 49.1107 48.0885 49.1373 48.0575C49.6573 47.455 49.8123 46.535 50.8848 46.7525C52.2965 47.0391 53.7073 47.0333 55.1173 46.735C55.1907 46.72 55.2623 46.725 55.3323 46.75C55.8323 46.9333 55.9915 47.2666 55.8098 47.75C54.9165 50.1383 54.0123 52.5233 53.0973 54.905C53.0835 54.9398 53.0783 54.9775 53.0822 55.015C53.0861 55.0524 53.099 55.0884 53.1198 55.12C53.9073 56.2975 58.1073 53.1075 58.5248 52.0225C58.9065 51.0308 59.3048 49.9975 59.7198 48.9225C59.7384 48.874 59.7448 48.8218 59.7385 48.7703C59.7322 48.7189 59.7133 48.6698 59.6836 48.6275C59.6539 48.5852 59.6143 48.551 59.5683 48.5279C59.5223 48.5047 59.4713 48.4934 59.4198 48.495L58.0923 48.5375C58.051 48.5389 58.01 48.5303 57.9728 48.5123C57.9356 48.4943 57.9032 48.4676 57.8787 48.4344C57.8541 48.4012 57.8379 48.3625 57.8316 48.3217C57.8252 48.2808 57.8289 48.2391 57.8423 48.2L58.3048 46.8625C58.3482 46.7341 58.4373 46.6683 58.5723 46.665L60.4023 46.605C60.4585 46.6033 60.512 46.5811 60.5523 46.5425C60.864 46.2491 61.0948 45.8983 61.2448 45.49C61.2889 45.3681 61.3639 45.2596 61.4624 45.175C61.561 45.0905 61.6798 45.0328 61.8073 45.0075C64.1473 44.55 65.5423 43.9975 66.7848 41.8625C66.8238 41.7944 66.8844 41.7408 66.9573 41.71C67.6273 41.425 69.0023 41.495 68.5798 42.6225C68.1215 43.8441 67.6657 45.0083 67.2123 46.115C67.1932 46.1621 67.1875 46.2136 67.1959 46.2638C67.2043 46.3139 67.2264 46.3608 67.2598 46.3991C67.2932 46.4375 67.3366 46.4658 67.3852 46.481C67.4337 46.4961 67.4855 46.4975 67.5348 46.485L68.8373 46.1475C68.9213 46.1255 69.0103 46.1325 69.0901 46.1674C69.1699 46.2023 69.2358 46.2631 69.2773 46.34C70.4973 48.575 67.7123 48.1125 66.5798 48.6525C66.5048 48.6891 66.4523 48.7466 66.4223 48.825L64.3973 54.235C64.3539 54.351 64.3539 54.4785 64.3973 54.593C64.4406 54.7074 64.5244 54.8007 64.6323 54.855Z" fill="#E00117"/>
<path d="M75.7328 50.8364C74.3873 52.6748 73.9992 54.6794 74.8661 55.3139C75.7329 55.9483 77.5264 54.9723 78.8719 53.1339C80.2174 51.2955 80.6054 49.2909 79.7386 48.6564C78.8717 48.022 77.0783 48.998 75.7328 50.8364Z" fill="white"/>
<path d="M45.6401 54.2027C44.9626 54.9277 43.7776 55.9452 42.7501 55.4802C39.9176 54.1952 46.5226 45.5402 48.0426 49.6702C48.0726 49.7502 48.0776 49.8319 48.0576 49.9152C47.6793 51.4586 46.8735 52.8877 45.6401 54.2027Z" fill="white"/>
</g>
<defs>
<clipPath id="clip0_31_4698">
<rect width="100" height="50" fill="white" transform="translate(0 25)"/>
</clipPath>
</defs>
</svg>
