<svg width="100" height="100" viewBox="0 0 100 100" fill="none" xmlns="http://www.w3.org/2000/svg">
<rect width="100" height="100" fill="white"/>
<g clip-path="url(#clip0_31_4699)">
<path d="M5 31H95V69H5V31Z" fill="white"/>
<path d="M85.3677 36.9668C90.9859 38.1204 87.9041 43.6304 85.7905 46.0778C85.6905 46.1924 85.6556 46.1758 85.6859 46.028C86.5617 41.7214 84.8435 39.1322 80.5314 38.2606C77.4647 37.6394 74.3587 37.4102 71.2132 37.573C71.1617 37.576 71.1208 37.564 71.0905 37.5368C71.048 37.5006 71.0556 37.4795 71.1132 37.4735C75.9405 36.8854 80.4359 35.9535 85.3677 36.9668Z" fill="#0E2B63"/>
<path d="M61.4226 40.1201C67.5862 38.7946 74.2044 38.1839 80.2589 40.4594C82.7544 41.3958 84.8317 43.7165 84.1362 46.4851C83.4317 49.2673 79.5907 52.3344 77.1498 53.8363C77.1354 53.8427 77.1193 53.8439 77.1041 53.8397C77.0889 53.8356 77.0756 53.8263 77.0665 53.8135C77.0574 53.8007 77.0531 53.7852 77.0542 53.7696C77.0553 53.7539 77.0618 53.7391 77.0726 53.7277C84.0817 47.9056 78.9544 42.5223 72.3453 41.0023C68.618 40.1427 64.9877 39.912 61.4544 40.3101C60.1574 40.4579 60.1468 40.3946 61.4226 40.1201Z" fill="#0E2B63"/>
<path d="M39.9272 57.858L37.3817 61.2554C37.3683 61.2726 37.3511 61.2865 37.3314 61.2959C37.3116 61.3053 37.29 61.31 37.2681 61.3097H33.8408C33.8147 61.3093 33.7891 61.3016 33.7671 61.2876C33.745 61.2735 33.7274 61.2536 33.716 61.2302C33.7047 61.2067 33.7002 61.1805 33.7029 61.1546C33.7057 61.1287 33.7157 61.1041 33.7317 61.0835L45.1226 46.1052C45.1357 46.0874 45.1528 46.073 45.1726 46.063C45.1923 46.053 45.2141 46.0479 45.2363 46.0479C45.2584 46.0479 45.2802 46.053 45.3 46.063C45.3197 46.073 45.3368 46.0874 45.3499 46.1052L56.7272 61.0835C56.7432 61.1041 56.7532 61.1287 56.756 61.1546C56.7587 61.1805 56.7542 61.2067 56.7429 61.2302C56.7316 61.2536 56.7139 61.2735 56.6918 61.2876C56.6698 61.3016 56.6443 61.3093 56.6181 61.3097H53.1954C53.1743 61.3094 53.1535 61.3043 53.1346 61.2949C53.1157 61.2855 53.0992 61.272 53.0863 61.2554L45.3454 51.0271C45.3319 51.0096 45.3145 50.9955 45.2946 50.9859C45.2746 50.9763 45.2527 50.9716 45.2306 50.972C45.2084 50.9724 45.1867 50.9781 45.1672 50.9884C45.1476 50.9988 45.1308 51.0136 45.1181 51.0316L42.4499 54.6416C42.4349 54.6625 42.426 54.6871 42.4241 54.7127C42.4222 54.7383 42.4274 54.7639 42.4391 54.7868C42.4508 54.8096 42.4686 54.8288 42.4906 54.8423C42.5125 54.8558 42.5378 54.8631 42.5635 54.8633H45.909C45.9301 54.8636 45.9509 54.8687 45.9698 54.878C45.9886 54.8874 46.0052 54.9009 46.0181 54.9175L48.1135 57.5775C48.1298 57.5984 48.1399 57.6235 48.1425 57.6498C48.1451 57.6761 48.1401 57.7026 48.1283 57.7262C48.1164 57.7499 48.098 57.7697 48.0753 57.7834C48.0526 57.7971 48.0265 57.8042 47.9999 57.8037H40.0408C40.0189 57.8034 39.9973 57.8081 39.9776 57.8175C39.9578 57.827 39.9406 57.8408 39.9272 57.858Z" fill="#0E2B63"/>
<path d="M18.6496 58.2423C21.6799 58.2725 24.7056 58.271 27.7268 58.2378C30.0086 58.2152 30.0359 55.528 27.9541 55.5371C23.8662 55.5552 19.7783 55.5522 15.6905 55.528C15.5329 55.528 15.4541 55.4496 15.4541 55.2928V52.7369C15.4541 52.58 15.5329 52.5016 15.6905 52.5016C18.7844 52.4745 21.8723 52.4715 24.9541 52.4926C26.1223 52.5016 27.3541 52.0357 26.8359 50.6242C26.7558 50.4077 26.6109 50.2209 26.4207 50.089C26.2304 49.9571 26.0041 49.8866 25.7723 49.8869H18.6768C18.495 49.8869 18.4223 49.9758 18.4586 50.1538L18.5223 50.4795C18.5647 50.6876 18.4783 50.7916 18.2632 50.7916H15.795C15.5677 50.7916 15.4541 50.6785 15.4541 50.4523V47.0685C15.4541 47.0382 15.4601 47.0082 15.4717 46.9802C15.4834 46.9522 15.5005 46.9268 15.522 46.9054C15.5435 46.884 15.5691 46.867 15.5972 46.8554C15.6253 46.8438 15.6555 46.8378 15.6859 46.8378C18.3586 46.8318 21.0253 46.8272 23.6859 46.8242C27.6541 46.8197 30.6223 47.9778 29.845 52.6147C29.8208 52.7595 29.8738 52.8665 30.0041 52.9359C34.3996 55.3561 32.6223 61.2914 27.7268 61.3049C23.7389 61.314 19.7511 61.314 15.7632 61.3049C15.5571 61.3049 15.4541 61.2024 15.4541 60.9973V57.5773C15.4541 57.3511 15.5677 57.238 15.795 57.238H18.3268C18.3597 57.2377 18.3923 57.2448 18.422 57.259C18.4516 57.2732 18.4776 57.2941 18.4978 57.3199C18.5181 57.3458 18.5321 57.3759 18.5387 57.408C18.5453 57.4401 18.5443 57.4733 18.5359 57.5049L18.4223 57.9483C18.3708 58.1413 18.4465 58.2393 18.6496 58.2423Z" fill="#0E2B63"/>
<path d="M72.0363 46.8335H54.3272C54.1966 46.8335 54.0908 46.9388 54.0908 47.0687V49.6564C54.0908 49.7863 54.1966 49.8916 54.3272 49.8916H72.0363C72.1668 49.8916 72.2726 49.7863 72.2726 49.6564V47.0687C72.2726 46.9388 72.1668 46.8335 72.0363 46.8335Z" fill="#0E2B63"/>
<path d="M64.4272 51.5835H61.8272C61.6966 51.5835 61.5908 51.6888 61.5908 51.8187V61.0745C61.5908 61.2044 61.6966 61.3097 61.8272 61.3097H64.4272C64.5577 61.3097 64.6635 61.2044 64.6635 61.0745V51.8187C64.6635 51.6888 64.5577 51.5835 64.4272 51.5835Z" fill="#0E2B63"/>
</g>
<defs>
<clipPath id="clip0_31_4699">
<rect width="90" height="38" fill="white" transform="translate(5 31)"/>
</clipPath>
</defs>
</svg>
