<svg width="100" height="100" viewBox="0 0 100 100" fill="none" xmlns="http://www.w3.org/2000/svg">
<rect width="100" height="100" fill="white"/>
<path d="M72.5916 22.6627C72.6563 22.6789 72.7169 22.6951 72.7735 22.7112C72.8867 22.7436 72.921 22.8143 72.8766 22.9234L72.7796 23.172C72.5815 23.4185 72.5411 23.6449 72.6583 23.851C72.7836 24.0773 72.9392 24.0996 73.1251 23.9177C73.2504 23.8045 73.3394 23.6065 73.3919 23.3236C73.7678 23.1376 74.0628 23.1316 74.277 23.3054C74.5397 23.366 74.8449 23.2548 75.1925 22.9719C75.5158 22.7092 75.6209 22.7779 75.5077 23.1781C75.4067 23.5378 75.245 23.8631 75.0227 24.1541C74.8772 24.3481 74.7115 24.3683 74.5256 24.2147C74.2023 23.9601 73.9032 24.0005 73.6283 24.336C73.499 24.4896 73.3353 24.5583 73.1373 24.5421L70.5486 24.336C70.3465 24.3198 70.2758 24.4087 70.3364 24.6027L70.4152 24.8392C70.44 24.9205 70.4393 25.0073 70.4132 25.0876C70.3872 25.1679 70.337 25.2379 70.2697 25.2878L68.4691 26.6397C68.3519 26.7287 68.2206 26.759 68.0751 26.7307L67.6386 26.6458C67.4244 26.6054 67.2445 26.664 67.099 26.8216L63.9829 30.1924C63.7363 30.1681 63.6212 29.9761 63.6373 29.6164C63.6495 29.3497 63.5383 29.279 63.3039 29.4042C63.2554 29.4325 63.2028 29.4568 63.1463 29.477C62.8351 29.6063 62.8169 29.77 63.0917 29.9681L63.5343 30.2894C62.4673 31.3079 62.0732 32.6497 62.3521 34.3149C62.3596 34.3548 62.3539 34.396 62.336 34.4324C62.3181 34.4689 62.2888 34.4985 62.2527 34.5169C62.2165 34.5354 62.1753 34.5416 62.1353 34.5347C62.0953 34.5277 62.0586 34.5081 62.0308 34.4786L61.5821 34.0299C61.5471 33.9956 61.505 33.9694 61.4588 33.9533C61.4126 33.9371 61.3635 33.9315 61.3152 33.9367C61.2669 33.942 61.2206 33.958 61.1797 33.9835C61.1388 34.0091 61.1044 34.0436 61.079 34.0845C60.8486 34.4483 60.8668 34.7898 61.1335 35.1091C61.2548 35.2586 61.2426 35.394 61.0971 35.5153C60.7496 35.8022 60.5333 36.1963 60.4485 36.6974C59.9998 36.6004 59.6785 36.6267 59.4845 36.7763C59.4434 36.8095 59.4126 36.8539 59.3957 36.9041C59.3788 36.9543 59.3767 37.008 59.3896 37.0588C59.4024 37.1096 59.4297 37.1553 59.4681 37.1901C59.5065 37.225 59.5543 37.2476 59.6058 37.2552C59.7957 37.2875 60.0423 37.2229 60.3454 37.0612C60.4586 37.1865 60.5071 37.3461 60.4909 37.5401C60.4707 37.7382 60.3717 37.8837 60.1938 37.9766L59.7513 38.2131C58.85 38.1646 58.1952 38.3565 57.787 38.789C57.5243 39.0638 57.5768 39.1507 57.9446 39.0497L59.6058 38.5829C59.2097 39.3589 59.2218 40.0844 59.6421 40.7593C59.7391 40.9129 59.7593 41.0766 59.7028 41.2504L57.8598 47.0401C57.783 47.2785 57.6253 47.3614 57.3869 47.2886C57.0514 47.1835 56.8251 47.2603 56.7079 47.519C56.6989 47.5401 56.6953 47.5631 56.6973 47.586C56.6994 47.6089 56.707 47.6309 56.7196 47.6501C56.7322 47.6693 56.7494 47.6851 56.7695 47.696C56.7897 47.707 56.8122 47.7128 56.8352 47.713H57.1505C57.1859 47.7124 57.2207 47.7219 57.251 47.7402C57.2813 47.7586 57.3058 47.7852 57.3216 47.8169C57.3375 47.8486 57.344 47.8841 57.3406 47.9193C57.3371 47.9546 57.3237 47.9881 57.302 48.0161C56.7806 48.7073 56.1077 49.1357 55.2832 49.3014C55.0609 49.3458 54.8851 49.461 54.7558 49.6469C54.3799 50.1885 53.8626 50.3987 53.2038 50.2774C53.1146 50.2614 53.0227 50.281 52.9479 50.332C52.8731 50.3831 52.8213 50.4614 52.8036 50.5503C52.7471 50.821 52.6905 50.9686 52.6339 50.9928C52.4289 51.0732 52.2032 51.0842 51.9914 51.024C51.7796 50.9639 51.5934 50.8359 51.4613 50.6598C51.3292 50.4836 51.2585 50.269 51.26 50.0488C51.2616 49.8287 51.3353 49.6151 51.4699 49.4408C52.3348 48.3455 53.034 46.8824 53.5675 45.0516C53.8585 44.995 54.1556 44.8374 54.4587 44.5787C54.8912 44.3483 55.0528 43.9138 54.9437 43.2753C54.9235 43.1459 54.875 43.0651 54.7982 43.0328C54.6931 42.9883 54.5799 43.0449 54.4587 43.2025C54.2202 43.0893 53.9858 43.0328 53.7554 43.0328C53.5857 43.0287 53.5049 42.9438 53.5129 42.7781L53.5554 41.6929C53.8949 41.604 54.198 41.3272 54.4648 40.8624C54.9376 40.9311 55.2226 40.6563 55.3196 40.0379C55.5055 39.8439 55.5601 39.6761 55.4833 39.5347C55.4509 39.47 55.3317 39.3953 55.1256 39.3104C54.8103 39.177 54.5658 38.9143 54.392 38.5223C54.6709 37.6735 55.3095 36.942 56.3078 36.3276C56.3535 36.2995 56.3914 36.2604 56.4181 36.2138C56.4448 36.1673 56.4595 36.1148 56.4607 36.0611C56.4619 36.0075 56.4496 35.9544 56.425 35.9067C56.4004 35.859 56.3643 35.8182 56.3199 35.7881L56.0289 35.5941C55.9735 35.5558 55.9267 35.5064 55.8914 35.449C55.8561 35.3916 55.8332 35.3275 55.8241 35.2608C55.815 35.1941 55.8198 35.1262 55.8384 35.0614C55.857 34.9967 55.8888 34.9365 55.9319 34.8848L56.8595 33.7632C57.106 33.4601 57.0454 33.2479 56.6776 33.1266L55.6651 32.7932C55.6343 32.7824 55.6064 32.7646 55.5835 32.7411C55.5606 32.7177 55.5433 32.6892 55.5328 32.6578C55.5223 32.6264 55.519 32.5928 55.523 32.5596C55.527 32.5264 55.5383 32.4943 55.556 32.4658L56.2956 31.3382C56.3332 31.2813 56.389 31.2384 56.454 31.2164C56.5189 31.1944 56.5891 31.1947 56.6531 31.2173C56.7171 31.2398 56.7712 31.2832 56.8065 31.3404C56.8417 31.3976 56.8561 31.4652 56.8473 31.5322C56.8029 31.9081 56.914 32.2334 57.1808 32.5082C57.2426 32.5783 57.3279 32.6232 57.4206 32.6346C57.5133 32.646 57.607 32.623 57.6839 32.57C57.7608 32.517 57.8156 32.4376 57.838 32.3469C57.8603 32.2562 57.8487 32.1605 57.8052 32.0778L57.1808 30.738C57.0393 30.4349 57.1262 30.2287 57.4415 30.1196L57.781 29.9984C57.9952 29.9256 58.1366 29.9964 58.2053 30.2106L58.6661 31.6352C58.7792 31.9828 58.9652 32.0273 59.2238 31.7686C59.4138 31.5868 59.5552 31.3301 59.6482 30.9987C59.6886 30.7643 59.818 30.5864 60.0362 30.4652L60.497 30.4288C60.695 30.4126 60.7819 30.3076 60.7576 30.1136C60.7132 29.766 60.5252 29.57 60.1938 29.5255C60.0807 29.5093 59.9837 29.5275 59.9028 29.5801C59.8099 29.6407 59.7472 29.7235 59.7149 29.8286L59.1996 29.8165C58.852 29.5861 58.6055 29.3497 58.46 29.1072C58.2498 28.7596 58.3427 28.6303 58.7388 28.7192L59.824 28.9677C59.8896 28.9833 59.9581 28.9803 60.0221 28.9592C60.0861 28.938 60.1429 28.8996 60.1863 28.848C60.2296 28.7965 60.2579 28.7339 60.2677 28.6673C60.2776 28.6006 60.2688 28.5325 60.2423 28.4706L59.7149 27.2399C59.6929 27.1882 59.6879 27.1308 59.7005 27.076C59.7131 27.0212 59.7427 26.9718 59.785 26.9348C59.8274 26.8978 59.8803 26.8752 59.9363 26.8701C59.9923 26.865 60.0485 26.8778 60.0968 26.9065L60.7273 27.3006C60.9052 27.4097 61.0547 27.3814 61.176 27.2157C61.766 26.3952 62.4269 25.6293 63.1584 24.918C63.2387 24.84 63.3546 24.7863 63.4808 24.7687C63.6069 24.7511 63.7328 24.771 63.8309 24.8241C63.929 24.8772 63.9912 24.959 64.0038 25.0517C64.0163 25.1443 63.9783 25.2402 63.898 25.3181C63.8576 25.3585 63.8313 25.3969 63.8192 25.4333C63.7465 25.6839 63.8394 25.7748 64.0981 25.7061C65.2782 25.407 65.6764 24.6654 65.2924 23.4812C65.2695 23.4115 65.2701 23.3361 65.2942 23.2661C65.3182 23.1962 65.3644 23.1355 65.4258 23.0932L66.2866 22.5172C66.3323 22.4842 66.3886 22.4695 66.4446 22.4761C66.5006 22.4827 66.552 22.5101 66.5886 22.5529C66.6253 22.5956 66.6445 22.6506 66.6425 22.7069C66.6405 22.7633 66.6173 22.8167 66.5776 22.8567C66.3311 23.1195 66.0906 23.4044 65.8562 23.7116C65.8128 23.7647 65.7811 23.8249 65.7628 23.8887C65.7445 23.9524 65.7401 24.0185 65.7497 24.0831C65.7592 24.1477 65.7827 24.2096 65.8187 24.2653C65.8547 24.3209 65.9025 24.3692 65.9594 24.4075C66.0744 24.4846 66.2195 24.516 66.3627 24.4946C66.4336 24.4841 66.5019 24.4609 66.5638 24.4264C66.6256 24.3919 66.6798 24.3467 66.7231 24.2936C66.8242 24.1763 66.8707 24.041 66.8626 23.8874C66.8505 23.6489 66.9636 23.5176 67.2021 23.4933C67.6507 23.4488 67.8851 23.1922 67.9053 22.7234C67.9134 22.5577 67.9761 22.4162 68.0933 22.299L68.263 22.1232C68.2815 22.103 68.3062 22.0896 68.3332 22.0852C68.3602 22.0808 68.3879 22.0857 68.4118 22.099C68.4356 22.1124 68.4543 22.1334 68.4647 22.1587C68.4751 22.184 68.4767 22.2121 68.4691 22.2384L68.0751 23.8086C68.0551 23.8784 68.0608 23.953 68.0912 24.019C68.1217 24.0849 68.1747 24.1378 68.2408 24.1679C68.3069 24.198 68.3816 24.2034 68.4513 24.183C68.521 24.1627 68.5812 24.118 68.6207 24.0571L70.009 22.1232C70.1343 21.9494 70.2374 21.9595 70.3182 22.1535C70.7486 23.1962 71.7732 23.5903 72.5916 22.6627ZM68.451 24.7543C68.16 24.4714 67.9134 24.4795 67.7113 24.7786C67.6695 24.8398 67.65 24.9132 67.656 24.9868C67.6621 25.0604 67.6932 25.1298 67.7445 25.1839C67.7957 25.238 67.864 25.2734 67.9384 25.2846C68.0127 25.2958 68.0886 25.2819 68.1539 25.2454L68.4085 25.0999C68.4373 25.0818 68.4618 25.0576 68.48 25.0291C68.4983 25.0005 68.5099 24.9684 68.514 24.9351C68.5181 24.9018 68.5145 24.8682 68.5036 24.8369C68.4927 24.8056 68.4747 24.7774 68.451 24.7543ZM64.28 28.3191C64.3002 28.1614 64.2577 28.0442 64.1526 27.9674C64.1211 27.9455 64.0842 27.9325 64.0459 27.9299C64.0076 27.9272 63.9693 27.935 63.9351 27.9524C63.9009 27.9699 63.872 27.9963 63.8516 28.0288C63.8312 28.0613 63.82 28.0988 63.8192 28.1372V28.9132C63.8192 29.1678 63.8839 29.186 64.0132 28.9677L64.1284 28.7737C64.2052 28.6444 64.2557 28.4929 64.28 28.3191ZM57.9083 33.163C57.7668 33.2034 57.6718 33.2842 57.6233 33.4055C57.6013 33.4546 57.5958 33.5096 57.6076 33.5621C57.6195 33.6146 57.6481 33.6618 57.6891 33.6967C57.7301 33.7315 57.7814 33.7521 57.8351 33.7554C57.8888 33.7586 57.9422 33.7444 57.9871 33.7147L58.8116 33.2054C58.849 33.1824 58.8786 33.1486 58.8965 33.1085C58.9144 33.0684 58.9198 33.0238 58.9119 32.9805C58.9041 32.9373 58.8833 32.8974 58.8525 32.8662C58.8216 32.8349 58.782 32.8137 58.7388 32.8053C58.4317 32.7447 58.2114 32.8215 58.078 33.0357C58.0388 33.0981 57.9783 33.1435 57.9083 33.163ZM55.6712 41.0079C55.4287 40.7492 55.2509 40.8179 55.1377 41.214C55.1261 41.2558 55.126 41.2998 55.1372 41.3417C55.1485 41.3835 55.1707 41.4216 55.2017 41.4519C55.2326 41.4822 55.2711 41.5037 55.3132 41.5141C55.3552 41.5245 55.3993 41.5235 55.4408 41.5111L55.7985 41.3959C55.9763 41.3393 56.0046 41.2403 55.8834 41.0988C55.8349 41.0382 55.7642 41.0079 55.6712 41.0079ZM53.4159 47.4644C53.2907 47.5938 53.2401 47.7231 53.2644 47.8524C53.3008 48.0262 53.3897 48.0606 53.5311 47.9555C53.9434 47.6403 54.1919 47.2361 54.2768 46.743C54.3172 46.5045 54.2223 46.4237 53.9919 46.5005C53.6483 46.6137 53.4867 46.8562 53.5069 47.228C53.509 47.2719 53.5019 47.3156 53.4863 47.3563C53.4706 47.3971 53.4467 47.4339 53.4159 47.4644Z" fill="#FEC329"/>
<path d="M64.2802 28.3189C64.3004 28.1613 64.258 28.0441 64.1529 27.9673C64.1214 27.9453 64.0845 27.9323 64.0462 27.9297C64.0079 27.9271 63.9696 27.9349 63.9353 27.9523C63.9011 27.9697 63.8723 27.9961 63.8518 28.0286C63.8314 28.0612 63.8202 28.0986 63.8195 28.137V28.913C63.8195 29.1677 63.8841 29.1858 64.0135 28.9676L64.1286 28.7736C64.2054 28.6443 64.256 28.4927 64.2802 28.3189Z" stroke="#CD9B20" stroke-opacity="0.69" stroke-width="1.2125"/>
<path d="M57.9085 33.1629C57.7671 33.2033 57.6721 33.2842 57.6236 33.4054C57.6016 33.4545 57.5961 33.5095 57.6079 33.562C57.6198 33.6145 57.6484 33.6617 57.6894 33.6966C57.7304 33.7314 57.7816 33.752 57.8354 33.7553C57.8891 33.7585 57.9424 33.7443 57.9873 33.7146L58.8118 33.2053C58.8493 33.1823 58.8789 33.1485 58.8968 33.1084C58.9147 33.0683 58.9201 33.0237 58.9122 32.9804C58.9043 32.9372 58.8836 32.8973 58.8527 32.8661C58.8218 32.8348 58.7822 32.8136 58.7391 32.8052C58.4319 32.7446 58.2117 32.8214 58.0783 33.0356C58.0391 33.098 57.9786 33.1434 57.9085 33.1629Z" stroke="#D9A726" stroke-opacity="0.965" stroke-width="1.2125"/>
<path d="M55.6711 41.0078C55.4286 40.7491 55.2507 40.8178 55.1376 41.2139C55.126 41.2557 55.1259 41.2997 55.1371 41.3416C55.1484 41.3834 55.1706 41.4215 55.2016 41.4518C55.2325 41.4821 55.271 41.5036 55.3131 41.514C55.3551 41.5244 55.3992 41.5234 55.4407 41.511L55.7984 41.3958C55.9762 41.3392 56.0045 41.2402 55.8833 41.0987C55.8348 41.0381 55.764 41.0078 55.6711 41.0078Z" stroke="#CD9B20" stroke-opacity="0.69" stroke-width="1.2125"/>
<path d="M53.4159 47.4642C53.2906 47.5935 53.2401 47.7228 53.2643 47.8522C53.3007 48.026 53.3896 48.0603 53.5311 47.9552C53.9433 47.64 54.1919 47.2358 54.2768 46.7427C54.3172 46.5043 54.2222 46.4234 53.9918 46.5002C53.6483 46.6134 53.4866 46.8559 53.5068 47.2277C53.5089 47.2716 53.5019 47.3153 53.4862 47.3561C53.4706 47.3968 53.4466 47.4336 53.4159 47.4642Z" stroke="#CD9B20" stroke-opacity="0.69" stroke-width="1.2125"/>
<path d="M74.277 23.3052C74.0628 23.1314 73.7678 23.1375 73.3919 23.3234C73.3879 23.2587 73.3778 23.1981 73.3616 23.1415C73.3414 23.0607 73.2889 23.0324 73.204 23.0566L72.7796 23.1718L72.8766 22.9232C72.9211 22.8141 72.8867 22.7434 72.7735 22.7111C72.717 22.6949 72.6563 22.6787 72.5917 22.6626C72.9878 22.3877 73.4182 22.313 73.883 22.4382C74.081 22.4908 74.2063 22.6141 74.2589 22.8081C74.2993 22.9536 74.3053 23.1193 74.277 23.3052Z" fill="#B28922" fill-opacity="0.925"/>
<path d="M64.1286 28.7736L64.0135 28.9676C63.8841 29.1858 63.8195 29.1677 63.8195 28.913V28.137C63.8202 28.0986 63.8314 28.0612 63.8518 28.0286C63.8723 27.9961 63.9011 27.9697 63.9353 27.9523C63.9696 27.9349 64.0079 27.9271 64.0462 27.9297C64.0845 27.9323 64.1214 27.9453 64.1529 27.9673C64.258 28.0441 64.3004 28.1613 64.2802 28.3189C64.256 28.4927 64.2054 28.6443 64.1286 28.7736Z" fill="#4C3109" fill-opacity="0.38"/>
<path d="M63.9828 30.1924C63.9222 30.2773 63.7727 30.3096 63.5342 30.2894L63.0916 29.9681C62.8168 29.7701 62.835 29.6064 63.1462 29.4771C63.2028 29.4568 63.2553 29.4326 63.3038 29.4043C63.5383 29.279 63.6494 29.3497 63.6373 29.6165C63.6211 29.9762 63.7363 30.1682 63.9828 30.1924Z" fill="#4C3109" fill-opacity="0.38"/>
<path d="M59.1996 29.8164L59.7149 29.8285C59.6664 30.2974 59.7735 30.5096 60.0362 30.4651C59.818 30.5863 59.6886 30.7642 59.6482 30.9986C59.0016 30.7318 58.852 30.3378 59.1996 29.8164Z" fill="#B28922" fill-opacity="0.925"/>
<path d="M42.4549 31.4774C42.176 31.5906 41.9901 31.7422 41.8972 31.9321L41.6486 31.3441C41.5354 31.0692 41.6244 30.9601 41.9154 31.0167C42.1094 31.0531 42.2892 31.2066 42.4549 31.4774Z" fill="#B28922" fill-opacity="0.925"/>
<path d="M41.8973 31.9321C41.9902 31.7421 42.1761 31.5906 42.455 31.4774L43.328 31.6653C43.3942 31.6783 43.4534 31.7138 43.4957 31.7658C43.5379 31.8179 43.5606 31.8832 43.5599 31.9509C43.5591 32.0186 43.5351 32.0845 43.4917 32.1374C43.4484 32.1903 43.3884 32.227 43.322 32.2413C42.7278 32.3625 42.3742 32.6636 42.261 33.1446L41.4668 33.3446C41.285 33.3891 41.2061 33.5043 41.2304 33.6902C41.2749 34.062 41.4729 34.353 41.8245 34.5632C42.1034 34.733 42.2085 34.6582 42.1398 34.3389C42.0347 33.8579 42.0893 33.5791 42.3035 33.5023C42.8168 33.381 43.2452 33.1123 43.5887 32.696C43.714 32.5383 43.8736 32.4878 44.0676 32.5444L44.5102 32.6717C44.5939 32.6962 44.6683 32.7451 44.7239 32.8122C44.7795 32.8793 44.8137 32.9615 44.8222 33.0482C44.8307 33.135 44.813 33.2222 44.7714 33.2988C44.7299 33.3754 44.6664 33.4378 44.589 33.478L43.1158 34.2358C43.0573 34.2648 43.0094 34.3115 42.979 34.3693C42.9487 34.4271 42.9374 34.4931 42.9468 34.5577C42.9562 34.6223 42.9859 34.6823 43.0315 34.729C43.0771 34.7758 43.1363 34.8068 43.2007 34.8178C44.2233 35.0118 44.8881 34.6198 45.1953 33.6417C45.2204 33.5597 45.2735 33.4896 45.3454 33.4437C45.4173 33.3977 45.5033 33.3789 45.5886 33.3904C45.6738 33.402 45.7527 33.4432 45.8116 33.5069C45.8705 33.5705 45.9055 33.6526 45.9106 33.7387C45.943 34.5107 45.6015 34.9553 44.8861 35.0725C44.6598 35.1088 44.5244 35.2382 44.4799 35.4605L44.4132 35.7878C44.4045 35.8325 44.41 35.8787 44.4289 35.9201C44.4478 35.9614 44.4791 35.9959 44.5185 36.0186C44.5579 36.0413 44.6034 36.0511 44.6486 36.0467C44.6939 36.0423 44.7366 36.0238 44.7709 35.994L47.2505 33.8539C47.2886 33.8219 47.3358 33.8027 47.3855 33.7991C47.4351 33.7955 47.4847 33.8077 47.527 33.8339C47.5693 33.8601 47.6023 33.899 47.6212 33.945C47.6402 33.9911 47.6441 34.0419 47.6324 34.0903L47.4748 34.7027C47.4182 34.9128 47.493 35.0543 47.6991 35.127L50.3848 36.0788C50.5181 36.1233 50.6192 36.2062 50.6879 36.3274C50.894 36.6871 50.8112 36.9579 50.4393 37.1398C50.3262 37.1923 50.217 37.1822 50.112 37.1095L49.8755 36.9337C49.8648 36.9261 49.8519 36.9222 49.8388 36.9226C49.8256 36.923 49.813 36.9277 49.8027 36.9359C49.7925 36.9441 49.7852 36.9554 49.7819 36.9681C49.7786 36.9808 49.7796 36.9943 49.7846 37.0064C50.2736 38.1704 51.1001 38.5079 52.2641 38.0188C53.0321 37.6915 53.509 37.938 53.6949 38.7585C53.7056 38.8052 53.7015 38.8542 53.6831 38.8985C53.6647 38.9428 53.6329 38.9802 53.5922 39.0056C53.5515 39.031 53.5038 39.043 53.456 39.04C53.4081 39.037 53.3623 39.0191 53.3251 38.9888L52.8461 38.5948C52.7006 38.4776 52.537 38.4473 52.3551 38.5038C51.7205 38.6938 51.7448 38.9848 52.4278 39.3768C52.4925 39.4132 52.5551 39.4132 52.6158 39.3768L52.7491 39.298C52.7891 39.275 52.8339 39.2618 52.88 39.2595C52.9261 39.2572 52.972 39.2659 53.014 39.2849C53.0561 39.3038 53.093 39.3325 53.1218 39.3685C53.1506 39.4045 53.1704 39.4468 53.1796 39.492L53.313 40.1771C53.3776 40.5125 53.2422 40.656 52.9068 40.6075L51.7791 40.456C51.7492 40.4525 51.719 40.4553 51.6903 40.4641C51.6616 40.4729 51.6352 40.4875 51.6129 40.507C51.5905 40.5265 51.5727 40.5504 51.5606 40.5771C51.5485 40.6039 51.5424 40.6328 51.5427 40.6621V40.8925C51.5427 40.9895 51.5892 41.0319 51.6821 41.0198C52.3935 40.9551 53.0179 41.1794 53.5555 41.6927L53.513 42.7779C53.5049 42.9436 53.5858 43.0285 53.7555 43.0325C53.9859 43.0325 54.2203 43.0891 54.4588 43.2023C54.285 43.7924 54.285 44.2511 54.4588 44.5785C54.1556 44.8371 53.8586 44.9948 53.5676 45.0513C52.832 44.5057 52.642 43.9843 52.9977 43.4872C53.1028 43.3377 53.1048 43.1861 53.0038 43.0325C52.8744 42.8385 52.6744 42.8062 52.4036 42.9355C52.2177 43.0244 52.0398 43.0103 51.8701 42.8931C51.086 42.3555 50.4838 41.6745 50.0635 40.85C49.9705 40.6722 49.8331 40.5408 49.6512 40.456L46.1531 38.8858L46.5048 37.9946C46.5234 37.9489 46.5251 37.8979 46.5096 37.8503C46.4942 37.8027 46.4624 37.7616 46.4199 37.7339L46.1895 37.6005C46.1714 37.5902 46.1512 37.584 46.1305 37.5826C46.1098 37.5811 46.0892 37.5843 46.0704 37.5919C46.0515 37.5996 46.0349 37.6115 46.0219 37.6267C46.0089 37.6419 45.9999 37.6599 45.9955 37.6793L45.7955 38.516C45.1811 38.2694 44.5567 38.0956 43.9221 37.9946C43.031 37.8491 42.2065 38.3341 41.1637 38.1158C40.9859 38.0795 40.9434 37.9825 41.0364 37.8248L41.4123 37.158C41.437 37.1164 41.4487 37.0684 41.4459 37.0201C41.4431 36.9718 41.4259 36.9255 41.3966 36.887C41.3673 36.8486 41.3271 36.8198 41.2813 36.8043C41.2355 36.7888 41.1861 36.7874 41.1395 36.8003C39.6723 37.164 38.2961 36.9559 37.0109 36.1758C36.829 36.0667 36.6694 36.091 36.532 36.2486L35.7438 37.1458C35.7018 37.1956 35.6467 37.2335 35.584 37.2559C35.5213 37.2782 35.4531 37.2841 35.3861 37.2732C34.0342 37.061 33.0885 37.7097 32.0518 37.8673C29.7601 38.2149 27.6423 38.7726 25.6983 39.5405C25.4601 39.6314 25.1957 39.628 24.9593 39.5309C24.7229 39.4339 24.5324 39.2506 24.4269 39.0187C24.3214 38.7867 24.3089 38.5238 24.392 38.2837C24.4751 38.0437 24.6475 37.8448 24.8738 37.7278C25.3345 37.4894 25.6154 37.1317 25.7165 36.6548C25.736 36.5455 25.7965 36.4462 25.8862 36.3759L28.9478 34.06C29.0054 34.0153 29.0731 33.9853 29.1449 33.9726C29.2167 33.9599 29.2906 33.965 29.36 33.9873C30.1118 34.2177 30.718 34.2924 31.1788 34.2116C31.4496 34.159 31.6092 34.0297 31.6577 33.8236C31.6779 33.7508 31.6496 33.7185 31.5728 33.7266L31.2697 33.769C31.104 33.7933 31.0474 33.7246 31.1 33.5629C31.5243 32.2089 32.4236 31.728 33.7978 32.12C33.9554 32.1645 34.0847 32.122 34.1858 31.9927L34.5738 31.4956C34.6111 31.4484 34.6647 31.4167 34.724 31.4068C34.7834 31.3969 34.8443 31.4094 34.895 31.4419C34.9456 31.4744 34.9824 31.5246 34.9981 31.5827C35.0138 31.6408 35.0073 31.7027 34.98 31.7563C34.8587 31.9907 34.8203 32.2473 34.8648 32.5262C34.8791 32.5946 34.9185 32.6551 34.9752 32.6958C35.0319 32.7365 35.1019 32.7544 35.1712 32.746C35.2405 32.7377 35.3042 32.7036 35.3496 32.6505C35.395 32.5975 35.4189 32.5293 35.4165 32.4595L35.3134 31.3137C35.3108 31.2785 35.3157 31.2432 35.3277 31.21C35.3398 31.1769 35.3588 31.1467 35.3835 31.1215C35.4082 31.0962 35.4379 31.0765 35.4708 31.0637C35.5036 31.0508 35.5388 31.0451 35.5741 31.047C36.6532 31.1076 37.5626 31.534 38.3022 32.3261C38.3433 32.3708 38.393 32.4066 38.4483 32.4315C38.5036 32.4564 38.5633 32.4698 38.624 32.4709C38.6846 32.4721 38.7448 32.4609 38.801 32.4381C38.8572 32.4153 38.9082 32.3813 38.9509 32.3383L39.545 31.7502C39.5705 31.7236 39.6017 31.7031 39.6364 31.6903C39.671 31.6775 39.7083 31.6727 39.7454 31.6762C39.7826 31.6796 39.8187 31.6914 39.8511 31.7105C39.8836 31.7296 39.9115 31.7556 39.933 31.7866C40.2281 32.219 40.5575 32.4757 40.9212 32.5565C41.3335 32.6454 41.6588 32.4373 41.8973 31.9321ZM27.9596 35.5514C27.6807 35.6929 27.4604 35.899 27.2988 36.1698C27.2613 36.2366 27.2488 36.3149 27.2634 36.3906C27.278 36.4663 27.3188 36.5342 27.3783 36.5819C27.4378 36.6297 27.5121 36.6542 27.5877 36.6508C27.6632 36.6475 27.735 36.6166 27.7898 36.5638L28.972 35.4605C29.162 35.2826 29.1337 35.1553 28.8871 35.0785C28.6608 35.0058 28.4486 35.0866 28.2506 35.321C28.1697 35.418 28.0727 35.4948 27.9596 35.5514ZM47.3293 38.1158L47.5718 38.4008C47.6144 38.4485 47.6713 38.4813 47.7341 38.494C47.7968 38.5068 47.862 38.499 47.9199 38.4718C47.9778 38.4445 48.0254 38.3993 48.0555 38.3428C48.0856 38.2863 48.0967 38.2216 48.0871 38.1583C48.0143 37.7339 47.786 37.6086 47.402 37.7824C47.3717 37.796 47.3451 37.8165 47.3241 37.8423C47.3032 37.868 47.2886 37.8983 47.2816 37.9308C47.2745 37.9632 47.2751 37.9968 47.2834 38.029C47.2917 38.0611 47.3074 38.0909 47.3293 38.1158Z" fill="#F06134"/>
<path d="M27.9595 35.5515C27.6806 35.6929 27.4603 35.899 27.2986 36.1698C27.2612 36.2366 27.2487 36.315 27.2633 36.3907C27.2779 36.4663 27.3186 36.5342 27.3782 36.582C27.4377 36.6298 27.512 36.6542 27.5876 36.6509C27.6631 36.6476 27.7348 36.6167 27.7897 36.5639L28.9719 35.4605C29.1618 35.2827 29.1336 35.1554 28.887 35.0786C28.6607 35.0058 28.4485 35.0867 28.2505 35.3211C28.1696 35.4181 28.0726 35.4949 27.9595 35.5515Z" stroke="#C35428" stroke-opacity="0.69" stroke-width="1.2125"/>
<path d="M47.3292 38.116L47.5717 38.4009C47.6143 38.4487 47.6713 38.4814 47.734 38.4942C47.7967 38.507 47.8619 38.4991 47.9198 38.4719C47.9778 38.4446 48.0253 38.3994 48.0555 38.3429C48.0856 38.2864 48.0967 38.2217 48.087 38.1584C48.0143 37.734 47.7859 37.6087 47.402 37.7825C47.3717 37.7961 47.345 37.8166 47.3241 37.8424C47.3031 37.8682 47.2886 37.8985 47.2815 37.9309C47.2744 37.9633 47.275 37.997 47.2833 38.0291C47.2916 38.0612 47.3073 38.091 47.3292 38.116Z" stroke="#C35428" stroke-opacity="0.69" stroke-width="1.2125"/>
<path d="M58.0783 33.0356C58.2117 32.8214 58.4319 32.7446 58.7391 32.8052C58.7822 32.8136 58.8218 32.8348 58.8527 32.8661C58.8836 32.8973 58.9043 32.9372 58.9122 32.9804C58.9201 33.0237 58.9147 33.0683 58.8968 33.1084C58.8789 33.1485 58.8493 33.1823 58.8118 33.2053L57.9873 33.7146C57.9424 33.7443 57.8891 33.7585 57.8354 33.7553C57.7816 33.752 57.7304 33.7314 57.6894 33.6966C57.6484 33.6617 57.6198 33.6145 57.6079 33.562C57.5961 33.5095 57.6016 33.4545 57.6236 33.4054C57.6721 33.2842 57.7671 33.2033 57.9085 33.1629C57.9786 33.1434 58.0391 33.098 58.0783 33.0356Z" fill="#B28922" fill-opacity="0.925"/>
<path d="M42.261 33.1448C42.3054 33.266 42.3196 33.3853 42.3034 33.5025C42.0892 33.5793 42.0346 33.8581 42.1397 34.3391C42.2084 34.6584 42.1034 34.7332 41.8245 34.5634C41.4729 34.3532 41.2748 34.0622 41.2304 33.6904C41.2061 33.5045 41.2849 33.3893 41.4668 33.3448L42.261 33.1448Z" fill="#B28922" fill-opacity="0.925"/>
<path d="M28.2505 35.3211C28.4485 35.0867 28.6607 35.0058 28.887 35.0786C29.1336 35.1554 29.1618 35.2827 28.9719 35.4605L27.7897 36.5639C27.7348 36.6167 27.6631 36.6476 27.5876 36.6509C27.512 36.6542 27.4377 36.6298 27.3782 36.582C27.3186 36.5342 27.2779 36.4663 27.2633 36.3907C27.2487 36.315 27.2612 36.2366 27.2986 36.1698C27.4603 35.899 27.6806 35.6929 27.9595 35.5515C28.0726 35.4949 28.1696 35.4181 28.2505 35.3211Z" fill="#4C3109" fill-opacity="0.38"/>
<path d="M60.4485 36.6974C60.1777 36.7297 60.1434 36.851 60.3455 37.0611C60.0423 37.2228 59.7958 37.2875 59.6058 37.2551C59.5544 37.2475 59.5066 37.2249 59.4682 37.1901C59.4298 37.1552 59.4025 37.1096 59.3896 37.0588C59.3768 37.008 59.3789 36.9542 59.3958 36.904C59.4126 36.8538 59.4435 36.8094 59.4846 36.7762C59.6786 36.6267 59.9999 36.6004 60.4485 36.6974Z" fill="#4C3109" fill-opacity="0.38"/>
<path d="M46.153 38.8858C46.2581 38.805 46.1388 38.6817 45.7953 38.516L45.9953 37.6794C45.9997 37.66 46.0087 37.6419 46.0217 37.6268C46.0347 37.6116 46.0513 37.5997 46.0702 37.592C46.0891 37.5844 46.1097 37.5811 46.1304 37.5826C46.1511 37.5841 46.1713 37.5903 46.1893 37.6006L46.4197 37.734C46.4622 37.7616 46.494 37.8028 46.5095 37.8504C46.525 37.898 46.5232 37.949 46.5046 37.9947L46.153 38.8858Z" fill="#4C3109" fill-opacity="0.38"/>
<path d="M47.3291 38.116C47.3072 38.091 47.2915 38.0612 47.2832 38.0291C47.2749 37.997 47.2743 37.9633 47.2814 37.9309C47.2884 37.8985 47.303 37.8682 47.3239 37.8424C47.3449 37.8166 47.3715 37.7961 47.4018 37.7825C47.7858 37.6087 48.0141 37.734 48.0869 38.1584C48.0965 38.2217 48.0855 38.2864 48.0553 38.3429C48.0252 38.3994 47.9776 38.4446 47.9197 38.4719C47.8618 38.4991 47.7966 38.507 47.7339 38.4942C47.6711 38.4814 47.6142 38.4487 47.5716 38.4009L47.3291 38.116Z" fill="#4C3109" fill-opacity="0.38"/>
<path d="M59.7512 38.2129C59.5815 38.3422 59.533 38.4655 59.6057 38.5827L57.9446 39.0495C57.5768 39.1506 57.5243 39.0637 57.787 38.7888C58.1952 38.3564 58.85 38.1644 59.7512 38.2129Z" fill="#B28922" fill-opacity="0.925"/>
<path d="M54.3921 38.5222C54.5659 38.9143 54.8104 39.177 55.1257 39.3103C55.3318 39.3952 55.451 39.47 55.4833 39.5347C55.5601 39.6761 55.5056 39.8438 55.3197 40.0378L54.4527 39.474L54.3921 38.5222Z" fill="#4C3109" fill-opacity="0.38"/>
<path d="M54.4526 39.4736L55.3195 40.0374C55.2225 40.6558 54.9376 40.9307 54.4647 40.8619C53.911 40.3527 53.907 39.8899 54.4526 39.4736Z" fill="#B28922" fill-opacity="0.925"/>
<path d="M55.6711 41.0078C55.764 41.0078 55.8348 41.0381 55.8833 41.0987C56.0045 41.2402 55.9762 41.3392 55.7984 41.3958L55.4407 41.511C55.3992 41.5234 55.3551 41.5244 55.3131 41.514C55.271 41.5036 55.2325 41.4821 55.2016 41.4518C55.1706 41.4215 55.1484 41.3834 55.1371 41.3416C55.1259 41.2997 55.126 41.2557 55.1376 41.2139C55.2507 40.8178 55.4286 40.7491 55.6711 41.0078Z" fill="#4C3109" fill-opacity="0.38"/>
<path d="M54.4587 44.5784C54.2849 44.2511 54.2849 43.7923 54.4587 43.2022C54.58 43.0446 54.6931 42.988 54.7982 43.0325C54.875 43.0648 54.9235 43.1457 54.9437 43.275C55.0528 43.9136 54.8912 44.3481 54.4587 44.5784Z" fill="#4C3109" fill-opacity="0.38"/>
<path d="M49.4422 47.2277C49.422 46.8559 49.5837 46.6134 49.9272 46.5002C50.1576 46.4234 50.2526 46.5043 50.2122 46.7427C50.1273 47.2358 49.8787 47.64 49.4665 47.9552C49.325 48.0603 49.2361 48.026 49.1997 47.8522C49.1755 47.7228 49.226 47.5935 49.3513 47.4642C49.382 47.4336 49.406 47.3968 49.4216 47.3561C49.4373 47.3153 49.4443 47.2716 49.4422 47.2277Z" fill="#4C3109" fill-opacity="0.38"/>
<path d="M17.8067 62.0632C19.4436 62.8958 19.6962 64.0598 18.5645 65.5552C17.3217 67.1921 13.8358 66.9738 11.8897 66.8101C11.6796 66.7899 11.5967 66.6768 11.6412 66.4706L13.466 57.7406C13.5104 57.5143 13.6478 57.4052 13.8782 57.4133L18.419 57.5709C18.5596 57.5765 18.6965 57.6186 18.8165 57.6929C18.9365 57.7672 19.0356 57.8714 19.1041 57.9953C20.1064 59.8302 19.6841 61.0528 17.837 61.6631C17.7966 61.6769 17.7611 61.7022 17.7349 61.736C17.7088 61.7698 17.6931 61.8105 17.6899 61.8531C17.6867 61.8957 17.696 61.9384 17.7168 61.9757C17.7376 62.013 17.7688 62.0435 17.8067 62.0632ZM16.9701 59.1593L15.8 58.9349C15.6863 58.9142 15.569 58.937 15.4713 58.9988C15.3736 59.0606 15.3027 59.1568 15.2726 59.2684L14.8603 60.8083C14.848 60.8528 14.8452 60.8995 14.8521 60.9453C14.859 60.9911 14.8756 61.0351 14.9006 61.0744C14.9257 61.1138 14.9588 61.1476 14.9978 61.1738C15.0368 61.2 15.0808 61.218 15.1271 61.2266C16.1052 61.3963 16.8731 61.0972 17.4308 60.3293C17.5045 60.2279 17.5514 60.1096 17.5672 59.9852C17.583 59.8609 17.5672 59.7346 17.5213 59.618C17.4754 59.5013 17.4008 59.3982 17.3045 59.318C17.2081 59.2378 17.0931 59.1832 16.9701 59.1593ZM16.0001 62.7058C15.8641 62.6187 15.7096 62.5647 15.5488 62.5482C15.3881 62.5318 15.2256 62.5532 15.0742 62.611C14.9229 62.6687 14.7869 62.761 14.6772 62.8806C14.5674 63.0003 14.4869 63.1438 14.442 63.2999L14.0055 64.858C13.9489 65.0561 14.0217 65.1813 14.2238 65.2339C15.8607 65.6583 18.4372 64.276 16.0001 62.7058Z" fill="#04776D"/>
<path d="M54.4484 62.0815L55.5033 62.815C55.5698 62.8622 55.6153 62.9293 55.6306 63.003C56.4673 67.2892 51.1686 67.1073 48.5133 66.7981C48.2869 66.7698 48.196 66.6445 48.2404 66.4222L50.0228 57.8559C50.0834 57.573 50.2572 57.4335 50.5442 57.4376L54.8607 57.5103C54.9118 57.5102 54.9633 57.5296 55.0062 57.5649C56.6067 58.8138 56.6572 60.1334 55.1578 61.5237C55.1094 61.5689 55.0489 61.5989 54.9841 61.6097C54.9193 61.6205 54.8531 61.6116 54.794 61.5843C54.697 61.5439 54.6061 61.5379 54.5212 61.5661C54.47 61.5833 54.4246 61.6144 54.39 61.656C54.3555 61.6975 54.3332 61.7479 54.3257 61.8013C54.3181 61.8548 54.3256 61.9094 54.3473 61.9588C54.369 62.0083 54.404 62.0508 54.4484 62.0815ZM53.6846 59.22L52.3448 58.929C52.078 58.8724 51.9143 58.9775 51.8537 59.2442L51.5627 60.5113C51.4778 60.9033 51.6334 61.1256 52.0295 61.1781C53.2703 61.3479 53.9331 60.8427 54.018 59.6625C54.0247 59.5601 53.9947 59.4589 53.9334 59.3775C53.8721 59.2962 53.7837 59.2402 53.6846 59.22ZM53.0662 62.9666L51.5324 62.712C51.4714 62.7016 51.409 62.7034 51.3488 62.7174C51.2885 62.7313 51.2317 62.7571 51.1815 62.7932C51.1313 62.8293 51.0888 62.875 51.0564 62.9276C51.024 62.9803 51.0024 63.0389 50.9928 63.1L50.7867 64.3488C50.7697 64.4553 50.7751 64.5641 50.8024 64.6684C50.8298 64.7728 50.8786 64.8705 50.9458 64.9553C51.013 65.0401 51.0971 65.1102 51.1928 65.1613C51.2885 65.2124 51.3938 65.2433 51.5021 65.2522C52.7994 65.3451 53.4845 64.7894 53.5573 63.585C53.5667 63.4393 53.5217 63.2954 53.4309 63.1811C53.3402 63.0668 53.2102 62.9904 53.0662 62.9666Z" fill="#04776D"/>
<path d="M23.8509 66.3677C22.7657 67.7257 20.8136 66.9133 20.6075 65.1552C20.0497 60.5234 23.5357 59.5231 27.2823 60.1415C27.3376 60.1511 27.3904 60.1715 27.4376 60.2016C27.4848 60.2316 27.5255 60.2708 27.5572 60.3166C27.5889 60.3624 27.6109 60.414 27.622 60.4683C27.6331 60.5225 27.633 60.5784 27.6218 60.6326L26.482 66.4344C26.4497 66.592 26.3588 66.7011 26.2092 66.7618C25.4332 67.0851 24.8371 66.9578 24.4208 66.3798C24.3884 66.3351 24.346 66.2985 24.2971 66.2729C24.2482 66.2473 24.194 66.2334 24.1389 66.2322C24.0837 66.2311 24.0289 66.2427 23.979 66.2662C23.929 66.2897 23.8852 66.3244 23.8509 66.3677ZM23.2386 65.4098C23.4851 65.4664 23.6973 65.4058 23.8752 65.2279C24.8088 64.2741 25.2776 63.096 25.2817 61.6935C25.2817 61.4025 25.1402 61.2873 24.8573 61.3479C23.0426 61.7561 22.3191 62.9363 22.6869 64.8884C22.7394 65.1673 22.9233 65.3411 23.2386 65.4098Z" fill="#04776D"/>
<path d="M68.8893 66.0828C67.8466 67.756 65.658 66.9982 65.4094 65.1795C64.7911 60.7356 68.3619 59.505 72.0115 60.1173C72.3914 60.1819 72.545 60.4022 72.4723 60.7781L71.3264 66.5435C71.286 66.7537 71.1567 66.8588 70.9384 66.8588H69.7259C69.5239 66.8588 69.4228 66.7577 69.4228 66.5556V66.2404C69.4221 66.1782 69.4015 66.1178 69.364 66.0681C69.3264 66.0185 69.274 65.9822 69.2143 65.9645C69.1546 65.9469 69.0908 65.9489 69.0323 65.9701C68.9738 65.9914 68.9237 66.0309 68.8893 66.0828ZM68.2709 65.4401C69.5744 65.234 70.1382 62.6999 70.1382 61.6208C70.1341 61.3904 70.021 61.2995 69.7987 61.348C67.9799 61.7319 67.1959 62.8899 67.4464 64.8218C67.4591 64.9174 67.4907 65.0096 67.5393 65.0929C67.5879 65.1761 67.6526 65.2487 67.7295 65.3063C67.8063 65.364 67.8939 65.4056 67.9869 65.4285C68.0799 65.4515 68.1765 65.4555 68.2709 65.4401Z" fill="#04776D"/>
<path d="M85.2581 66.2887L84.6094 66.7495C84.4397 66.8707 84.2497 66.9415 84.0395 66.9617C79.9898 67.3133 80.8931 58.2135 88.7986 60.2808C88.8667 60.298 88.9253 60.3414 88.9617 60.4015C88.998 60.4617 89.0091 60.5338 88.9926 60.6021L87.6952 66.4888C87.6588 66.6545 87.5598 66.7616 87.3982 66.8101C86.6545 67.0445 86.0543 66.8849 85.5976 66.3312C85.4965 66.2099 85.3834 66.1958 85.2581 66.2887ZM86.2463 61.4084C84.4215 61.372 83.5242 63.2393 83.8758 64.8216C83.9051 64.9586 83.9717 65.0846 84.0683 65.186C84.1649 65.2874 84.2878 65.3602 84.4236 65.3965C84.5593 65.4328 84.7027 65.4312 84.8381 65.3918C84.9736 65.3524 85.0958 65.2768 85.1914 65.1732C86.0684 64.2073 86.513 63.0493 86.5252 61.6994C86.5292 61.5095 86.4362 61.4125 86.2463 61.4084Z" fill="#04776D"/>
<path d="M31.4291 64.3548C31.4339 64.3941 31.4513 64.431 31.4786 64.4601C31.5058 64.4891 31.5415 64.5085 31.5801 64.5154C31.6187 64.5223 31.658 64.5163 31.6921 64.4982C31.7261 64.4801 31.753 64.451 31.7686 64.4154L33.6965 60.3475C33.7975 60.1414 33.9612 60.0383 34.1875 60.0383H35.491C35.5398 60.0388 35.5877 60.052 35.6301 60.0764C35.6724 60.1008 35.7077 60.1356 35.7327 60.1777C35.7577 60.2197 35.7714 60.2674 35.7726 60.3162C35.7738 60.3651 35.7624 60.4134 35.7395 60.4566C33.6055 64.3568 32.0737 67.0142 31.1441 68.4288C30.3277 69.6736 29.1516 70.1889 27.6158 69.9747C27.3652 69.9384 27.25 69.7949 27.2702 69.5443L27.3369 68.6955C27.3531 68.4773 27.4723 68.3763 27.6946 68.3924C31.5806 68.6834 29.2405 62.3905 28.8465 60.4748C28.8357 60.424 28.8366 60.3715 28.8489 60.3211C28.8612 60.2706 28.8848 60.2234 28.9178 60.1828C28.9508 60.1423 28.9925 60.1094 29.0399 60.0865C29.0873 60.0636 29.1393 60.0513 29.192 60.0504L30.5864 60.0322C30.8491 60.0322 30.9926 60.1595 31.0168 60.4142L31.4291 64.3548Z" fill="#04776D"/>
<path d="M39.9895 65.828L38.7285 66.8222C38.59 66.929 38.4233 66.9923 38.2495 67.0041C34.606 67.2769 36.649 62.1238 37.031 60.3717C37.0754 60.1494 37.2108 60.0383 37.4372 60.0383H38.7648C39.0397 60.0383 39.1468 60.1737 39.0862 60.4445L38.1525 64.7185C38.1371 64.7914 38.1382 64.8667 38.1558 64.939C38.1734 65.0114 38.207 65.0788 38.2541 65.1364C38.3012 65.194 38.3607 65.2403 38.4281 65.2719C38.4955 65.3034 38.5692 65.3194 38.6436 65.3187C40.6867 65.3005 40.9958 61.9419 41.208 60.4324C41.2444 60.1818 41.3899 60.0545 41.6445 60.0504L42.9965 60.0322C43.2673 60.0322 43.3744 60.1636 43.3178 60.4263L42.0689 66.3979C42.0083 66.6929 41.8264 66.8445 41.5233 66.8525L40.4442 66.8768C40.1612 66.8808 40.0683 66.7495 40.1653 66.4827L40.3229 66.0705C40.341 66.0265 40.3437 65.9778 40.3308 65.932C40.3178 65.8863 40.2899 65.8462 40.2514 65.8183C40.213 65.7903 40.1663 65.7761 40.1188 65.7778C40.0713 65.7796 40.0257 65.7973 39.9895 65.828Z" fill="#04776D"/>
<path d="M61.2445 66.4039C61.2808 65.8583 61.0889 65.7593 60.6685 66.1069C59.1893 67.3133 56.6915 67.4345 57.2008 64.9004C57.4999 63.4131 57.7747 61.9177 58.0253 60.4142C58.041 60.314 58.0916 60.2225 58.1681 60.156C58.2446 60.0894 58.3422 60.052 58.4436 60.0504L59.8077 60.0322C59.8572 60.0323 59.9061 60.0432 59.9508 60.0641C59.9956 60.085 60.035 60.1155 60.0664 60.1532C60.0977 60.1909 60.1202 60.235 60.132 60.2823C60.1439 60.3295 60.1449 60.3787 60.135 60.4263L59.2378 64.7246C59.2195 64.8132 59.2241 64.905 59.2511 64.9914C59.2781 65.0777 59.3267 65.1558 59.3921 65.2183C59.4576 65.2807 59.5379 65.3255 59.6254 65.3483C59.713 65.3712 59.8049 65.3715 59.8925 65.349C61.8325 64.8459 62.0508 62.0874 62.2812 60.4142C62.2942 60.3148 62.343 60.2235 62.4187 60.1568C62.4943 60.09 62.5918 60.0523 62.6934 60.0504L64.0393 60.0322C64.0858 60.0323 64.1318 60.0426 64.1738 60.0625C64.2159 60.0823 64.253 60.1113 64.2826 60.1472C64.3121 60.1831 64.3334 60.2252 64.3448 60.2703C64.3562 60.3154 64.3574 60.3624 64.3485 60.4081L63.1724 66.4949C63.1531 66.5923 63.1011 66.6803 63.025 66.7442C62.949 66.8082 62.8534 66.8442 62.754 66.8465L61.5476 66.8647C61.3496 66.8687 61.2465 66.7697 61.2384 66.5676C61.2384 66.5151 61.2404 66.4605 61.2445 66.4039Z" fill="#04776D"/>
<path d="M76.9644 60.9842C78.0132 59.6202 80.7837 59.4565 80.426 61.8512C80.1997 63.3951 79.939 64.9329 79.644 66.4647C79.6232 66.5707 79.5668 66.6665 79.4841 66.736C79.4013 66.8054 79.2973 66.8445 79.1893 66.8467L77.9526 66.8648C77.6413 66.8689 77.516 66.7173 77.5767 66.4102L78.4072 62.1725C78.4235 62.0918 78.4202 62.0084 78.3976 61.9292C78.3751 61.8501 78.3338 61.7775 78.2775 61.7175C78.2211 61.6576 78.1511 61.612 78.0735 61.5846C77.9959 61.5572 77.9128 61.5488 77.8313 61.5602C75.8792 61.839 75.7155 64.5187 75.3942 66.5375C75.3811 66.6265 75.336 66.708 75.267 66.7669C75.198 66.8259 75.1098 66.8585 75.0183 66.8588H73.5754C73.5275 66.8589 73.4801 66.8483 73.4368 66.8278C73.3935 66.8073 73.3553 66.7773 73.3251 66.7401C73.2949 66.7029 73.2734 66.6594 73.2621 66.6128C73.2509 66.5662 73.2502 66.5177 73.2602 66.4708L74.4605 60.9175C74.5373 60.5538 74.7495 60.3012 75.0971 60.1597C76.0146 59.7919 76.447 59.994 76.3945 60.766C76.3904 60.8348 76.4083 60.9035 76.4457 60.9618C76.4831 61.02 76.538 61.0648 76.602 61.0893C76.6661 61.1139 76.736 61.1169 76.8013 61.0979C76.8666 61.079 76.9238 61.0391 76.9644 60.9842Z" fill="#04776D"/>
<path d="M41.2492 70.0866L41.0832 70.0513C40.9162 70.0158 40.752 70.1225 40.7165 70.2895L39.4006 76.4804C39.365 76.6475 39.4717 76.8116 39.6387 76.8471L39.8047 76.8824C39.9718 76.9179 40.136 76.8113 40.1715 76.6443L41.4874 70.4534C41.5229 70.2863 41.4163 70.1221 41.2492 70.0866Z" fill="#04776D"/>
<path d="M72.3145 70.951C72.2175 71.1571 72.07 71.2036 71.8719 71.0904L71.5931 70.9267C71.5071 70.8772 71.4419 70.7983 71.4094 70.7046C71.3768 70.6108 71.3792 70.5085 71.4161 70.4164C71.4529 70.3242 71.5218 70.2485 71.61 70.203C71.6982 70.1576 71.7998 70.1455 71.8962 70.1689C72.3691 70.2821 72.5085 70.5427 72.3145 70.951Z" fill="#04776D"/>
<path d="M12.3504 71.0659C12.023 71.175 11.7279 71.2276 11.4652 71.2236C11.3493 71.2243 11.2353 71.1791 11.1482 71.0978C11.0611 71.0165 11.0081 70.9058 11.0009 70.7901C10.9936 70.6743 11.0327 70.5629 11.1096 70.4805C11.1864 70.3981 11.2947 70.3513 11.4107 70.3505L15.1755 70.3445C15.2713 70.344 15.3641 70.3779 15.4371 70.4401C15.51 70.5023 15.5582 70.5886 15.5729 70.6833C15.5876 70.778 15.5678 70.8748 15.5171 70.9562C15.4664 71.0375 15.3882 71.098 15.2967 71.1266C14.9087 71.2478 14.5086 71.2438 14.0964 71.1144C14.0394 71.0962 13.9793 71.0902 13.9199 71.0968C13.8605 71.1035 13.8031 71.1226 13.7516 71.1529C13.7001 71.1832 13.6556 71.2241 13.6209 71.2729C13.5863 71.3216 13.5624 71.3771 13.5507 71.4357L12.508 76.6071C12.4918 76.686 12.4476 76.7563 12.3838 76.8044C12.32 76.8525 12.2412 76.8751 12.1624 76.8677C12.0856 76.8637 12.0068 76.8617 11.926 76.8617C11.7037 76.8617 11.6168 76.7526 11.6653 76.5343L12.7747 71.4479C12.7875 71.3911 12.7849 71.3321 12.7673 71.2767C12.7496 71.2213 12.7176 71.1716 12.6743 71.1327C12.6311 71.0938 12.5783 71.0671 12.5214 71.0554C12.4645 71.0436 12.4054 71.0473 12.3504 71.0659Z" fill="#04776D"/>
<path d="M48.7496 76.2677C48.8333 76.2995 48.923 76.31 49.0103 76.298C49.6731 76.1969 50.0652 75.8332 50.1864 75.2067C50.2268 74.9885 50.1622 74.8086 49.9924 74.6672C49.1437 73.9821 47.8948 73.097 48.0282 71.8966C48.204 70.3385 50.1076 70.0354 51.3565 70.5447C51.4777 70.5932 51.5384 70.6821 51.5384 70.8114V71.0721C51.5391 71.1174 51.5281 71.162 51.5064 71.2018C51.4846 71.2416 51.4528 71.2752 51.414 71.2994C51.3752 71.3237 51.3307 71.3378 51.2845 71.3405C51.2384 71.3431 51.1922 71.3342 51.1504 71.3146C50.1804 70.8539 49.3983 71.0277 48.8042 71.836C48.7386 71.9236 48.7068 72.0318 48.7146 72.141C48.7224 72.2501 48.7692 72.3528 48.8466 72.4301L50.5259 74.1094C50.8155 74.3984 50.9787 74.7903 50.9799 75.1994C50.981 75.6085 50.8199 76.0014 50.532 76.2919C49.5782 77.2498 48.4142 77.3064 47.04 76.4617C46.9606 76.4103 46.9022 76.3314 46.8761 76.24C46.85 76.1485 46.8579 76.0508 46.8983 75.9655C46.9387 75.8802 47.0088 75.8132 47.0953 75.7773C47.1818 75.7413 47.2786 75.7389 47.3674 75.7706L48.7496 76.2677Z" fill="#04776D"/>
<path d="M18.2249 72.6304C18.524 72.2181 18.9261 72.0767 19.4313 72.206C19.5007 72.2232 19.5626 72.2626 19.6075 72.3183C19.6524 72.374 19.6778 72.4428 19.6799 72.5143C19.6819 72.5858 19.6605 72.656 19.6189 72.7142C19.5773 72.7724 19.5178 72.8153 19.4495 72.8365L18.3158 73.2124C18.1784 73.2609 18.0733 73.3478 18.0006 73.4731C17.4873 74.3784 17.1781 75.3504 17.073 76.3891C17.0245 76.8539 16.8345 77.056 16.5031 76.9954C16.4604 76.9866 16.4198 76.9695 16.3837 76.9452C16.3476 76.9208 16.3168 76.8896 16.2931 76.8535C16.2694 76.8173 16.2532 76.7769 16.2456 76.7347C16.2379 76.6924 16.2389 76.6491 16.2485 76.6074L17.1154 72.5455C17.1559 72.3394 17.2791 72.2646 17.4853 72.3212C17.5823 72.3495 17.651 72.4263 17.6914 72.5516C17.7093 72.6043 17.7415 72.6511 17.7843 72.6868C17.8271 72.7225 17.8789 72.7457 17.9341 72.7538C17.9892 72.762 18.0455 72.7548 18.0968 72.733C18.1481 72.7112 18.1924 72.6757 18.2249 72.6304Z" fill="#04776D"/>
<path d="M23.2871 76.6861C21.9352 77.9289 20.8379 76.0011 21.1167 74.7461C21.5896 72.6404 22.9052 71.8038 25.0634 72.2363C25.2776 72.2767 25.3645 72.406 25.3241 72.6243L24.5966 76.6134C24.5481 76.8882 24.3966 76.967 24.1419 76.8498L23.663 76.6255C23.602 76.5972 23.5338 76.5878 23.4669 76.5986C23.4 76.6094 23.3374 76.6399 23.2871 76.6861ZM24.1056 72.7576C22.6688 72.8122 21.0016 74.9401 22.1838 76.0496C22.275 76.1347 22.3837 76.199 22.5023 76.238C22.6209 76.277 22.7465 76.2897 22.8705 76.2753C22.9945 76.2609 23.1139 76.2197 23.2204 76.1545C23.3269 76.0894 23.4179 76.0018 23.4872 75.898C24.053 75.0493 24.3663 74.1116 24.4269 73.085C24.4295 73.0419 24.423 72.9987 24.4078 72.9582C24.3927 72.9177 24.3692 72.8808 24.3389 72.85C24.3086 72.8191 24.2722 72.795 24.232 72.7791C24.1918 72.7632 24.1488 72.7559 24.1056 72.7576Z" fill="#04776D"/>
<path d="M29.5073 75.31C29.7902 74.724 30.2671 73.7863 30.938 72.497C31.0795 72.2303 31.32 72.1333 31.6595 72.206C31.8979 72.2545 31.9525 72.3818 31.8232 72.5879L29.2769 76.7165C29.2335 76.7866 29.1697 76.8418 29.0942 76.8748C29.0186 76.9078 28.9348 76.9171 28.8538 76.9013C28.7729 76.8855 28.6987 76.8454 28.641 76.7864C28.5834 76.7274 28.5451 76.6523 28.5312 76.571L27.8765 72.6122C27.8675 72.5545 27.8731 72.4956 27.8926 72.4406C27.9121 72.3856 27.945 72.3364 27.9883 72.2973C28.0316 72.2582 28.084 72.2305 28.1406 72.2167C28.1973 72.2029 28.2565 72.2034 28.313 72.2181C28.4787 72.2666 28.6121 72.3717 28.7131 72.5334C28.7858 72.6465 28.8162 72.8082 28.804 73.0184C28.7636 73.7782 28.8465 74.53 29.0526 75.2736C29.0657 75.3217 29.0934 75.3646 29.1318 75.3964C29.1702 75.4282 29.2175 75.4474 29.2672 75.4514C29.3169 75.4554 29.3666 75.4439 29.4096 75.4186C29.4525 75.3933 29.4867 75.3554 29.5073 75.31Z" fill="#04776D"/>
<path d="M34.8666 74.9403C34.7229 74.9545 34.5886 75.018 34.4865 75.12C34.3844 75.222 34.3208 75.3563 34.3065 75.4999C34.2922 75.6435 34.3282 75.7877 34.4082 75.9078C34.4881 76.0279 34.6073 76.1167 34.7453 76.1589C35.295 76.3246 35.8386 76.2842 36.3761 76.0376C36.6308 75.9204 36.7399 76.0012 36.7035 76.2801C36.6712 76.5267 36.5034 76.7106 36.2003 76.8318C33.0114 78.1352 32.6295 73.5399 35.1576 72.3031C36.0427 71.8666 36.748 72.0687 37.2734 72.9094C37.3623 73.0508 37.3946 73.2064 37.3704 73.3762C37.1946 74.7584 35.879 74.8494 34.8666 74.9403ZM36.0669 72.7821C35.2909 72.875 34.7372 73.2731 34.4058 73.9764C34.3828 74.0244 34.3726 74.0776 34.3762 74.1308C34.3797 74.184 34.397 74.2353 34.4263 74.2799C34.4556 74.3244 34.4959 74.3606 34.5433 74.385C34.5907 74.4093 34.6436 74.421 34.6968 74.4189C35.392 74.3866 35.9861 74.1421 36.4792 73.6854C36.5609 73.611 36.6168 73.5127 36.639 73.4045C36.6612 73.2963 36.6484 73.1838 36.6025 73.0834C36.5567 72.9829 36.4801 72.8996 36.3838 72.8454C36.2876 72.7913 36.1766 72.7691 36.0669 72.7821Z" fill="#04776D"/>
<path d="M54.5636 76.0374C55.1092 76.4558 55.8367 76.1708 56.449 76.0314C56.4968 76.0189 56.5471 76.022 56.5928 76.0401C56.6385 76.0583 56.6774 76.0906 56.704 76.1326C56.7307 76.1746 56.7438 76.2242 56.7416 76.2745C56.7393 76.3248 56.7218 76.3733 56.6915 76.4133C56.1035 77.1711 54.8485 77.2742 54.1392 76.5952C52.4902 75.025 54.1392 71.7573 56.3884 72.1574C57.0512 72.2747 57.3746 72.6505 57.3584 73.2851C57.3281 74.7946 55.673 74.928 54.4666 74.9765C54.4198 74.9785 54.375 74.9965 54.3398 75.0273C54.3045 75.0582 54.2808 75.1001 54.2726 75.1463C54.212 75.5464 54.309 75.8434 54.5636 76.0374ZM54.3938 74.0065C54.3702 74.0554 54.361 74.1101 54.3673 74.164C54.3737 74.218 54.3954 74.269 54.4298 74.3111C54.4642 74.3531 54.5099 74.3845 54.5615 74.4014C54.6132 74.4183 54.6686 74.4202 54.7212 74.4066L56.1277 74.0489C56.2872 74.0019 56.4339 73.8963 56.5391 73.7532C56.6442 73.61 56.7 73.4397 56.6954 73.2759C56.6908 73.1121 56.6262 72.9667 56.5144 72.8685C56.4025 72.7703 56.2516 72.7264 56.0913 72.7455C55.287 72.8789 54.7212 73.2992 54.3938 74.0065Z" fill="#04776D"/>
<path d="M61.3959 72.5333C61.6343 72.1655 62.0102 72.0705 62.5235 72.2483C62.5881 72.2726 62.6265 72.315 62.6387 72.3756L62.669 72.5272C62.7134 72.7333 62.6326 72.8627 62.4265 72.9152L61.3777 73.188C61.3339 73.1995 61.2929 73.22 61.2574 73.2482C61.222 73.2764 61.1927 73.3116 61.1715 73.3517C60.7148 74.1883 60.4198 75.1907 60.2864 76.3587C60.242 76.7467 60.0116 76.9104 59.5953 76.8498C59.5613 76.8455 59.5285 76.8342 59.4991 76.8166C59.4696 76.799 59.4442 76.7755 59.4242 76.7476C59.4043 76.7197 59.3904 76.688 59.3833 76.6545C59.3762 76.6209 59.3761 76.5863 59.3831 76.5527L60.2197 72.5757C60.2723 72.3332 60.4097 72.2705 60.632 72.3878L61.0745 72.6181C61.1291 72.6461 61.1921 72.653 61.2515 72.6373C61.3108 72.6216 61.3622 72.5846 61.3959 72.5333Z" fill="#04776D"/>
<path d="M66.1976 75.3342C66.727 74.6754 67.1939 73.8266 67.598 72.7879C67.7314 72.4404 68.0062 72.2484 68.4225 72.212C68.4706 72.2073 68.5191 72.2161 68.5625 72.2373C68.6059 72.2586 68.6425 72.2915 68.6683 72.3324C68.6941 72.3733 68.708 72.4205 68.7085 72.4688C68.709 72.5172 68.696 72.5647 68.6711 72.6061L66.0763 76.8195C66.038 76.8842 65.9805 76.9355 65.9118 76.9662C65.8431 76.9969 65.7665 77.0055 65.6927 76.9909C65.6189 76.9762 65.5514 76.9391 65.4996 76.8845C65.4478 76.8299 65.4142 76.7606 65.4034 76.6861L64.7547 72.7031C64.7386 72.6141 64.7547 72.5313 64.8032 72.4545L64.9063 72.2787C64.9406 72.2189 64.9928 72.1718 65.0556 72.144C65.1185 72.1162 65.1887 72.1092 65.2564 72.124C65.3241 72.1387 65.3859 72.1745 65.4329 72.2262C65.48 72.2779 65.5099 72.3429 65.5186 72.4121L65.8702 75.2372C65.9066 75.5282 66.0157 75.5605 66.1976 75.3342Z" fill="#04776D"/>
<path d="M71.6692 72.2321L71.5031 72.1971C71.336 72.1618 71.172 72.2688 71.1368 72.4358L70.2842 76.4816C70.249 76.6487 70.3559 76.8127 70.523 76.8479L70.6891 76.8829C70.8562 76.9181 71.0202 76.8112 71.0554 76.6441L71.908 72.5984C71.9432 72.4313 71.8363 72.2673 71.6692 72.2321Z" fill="#04776D"/>
<path d="M76.2008 76.2434L76.6918 76.0615C76.7403 76.0437 76.7932 76.0416 76.843 76.0552C76.8928 76.0689 76.9371 76.0977 76.9698 76.1377C77.0024 76.1777 77.0218 76.2269 77.0253 76.2784C77.0287 76.3299 77.016 76.3813 76.9889 76.4252C76.0068 77.9833 73.9819 76.6374 74.1456 74.9096C74.3234 73.0302 75.3055 72.1108 77.092 72.1512C77.3466 72.1552 77.5305 72.232 77.6437 72.3816C77.7407 72.5068 77.7791 72.6422 77.7588 72.7877C77.7265 72.9777 77.6174 73.0525 77.4315 73.0121C75.738 72.6241 74.8872 73.396 74.8792 75.3279C74.8787 75.4861 74.9168 75.642 74.99 75.7823C75.0632 75.9225 75.1694 76.0428 75.2994 76.1329C75.4295 76.223 75.5795 76.2801 75.7365 76.2993C75.8935 76.3186 76.0528 76.2994 76.2008 76.2434Z" fill="#04776D"/>
<path d="M81.4266 76.2737L82.5421 76.0434C82.588 76.0322 82.6362 76.0351 82.6805 76.0516C82.7248 76.0681 82.7631 76.0975 82.7905 76.136C82.8179 76.1745 82.8331 76.2203 82.8343 76.2676C82.8354 76.3148 82.8223 76.3613 82.7967 76.4011C81.8449 77.9773 79.3714 76.7284 79.5957 74.7824C79.7655 73.2789 81.4994 71.1994 83.0635 72.4847C83.7607 73.0546 83.6758 73.9397 82.9119 74.4308C82.2572 74.847 81.56 75.0087 80.8204 74.9158C80.727 74.903 80.6321 74.9199 80.5489 74.9641C80.4657 75.0084 80.3986 75.0776 80.357 75.1622C80.3154 75.2467 80.3015 75.3421 80.3172 75.435C80.3329 75.5279 80.3774 75.6135 80.4445 75.6796L80.8749 76.1101C81.0285 76.2636 81.2124 76.3182 81.4266 76.2737ZM82.142 72.7939C81.4145 72.8828 80.9093 73.2708 80.6264 73.9579C80.5091 74.2408 80.6041 74.3843 80.9113 74.3883C81.6347 74.3924 82.1965 74.1216 82.5967 73.5759C82.6546 73.4988 82.6886 73.4062 82.6943 73.3099C82.6999 73.2135 82.6771 73.1176 82.6286 73.0342C82.5801 72.9507 82.508 72.8834 82.4215 72.8407C82.3349 72.798 82.2377 72.7817 82.142 72.7939Z" fill="#04776D"/>
<path d="M85.5672 76.1464L87.0283 76.2616C87.139 76.2709 87.2498 76.2447 87.3445 76.1866C87.4392 76.1286 87.5129 76.0418 87.5549 75.939C87.5968 75.8361 87.6048 75.7225 87.5777 75.6148C87.5506 75.5071 87.4898 75.4108 87.4042 75.3401L86.2038 74.3519C86.0004 74.187 85.8682 73.95 85.8344 73.6895C85.8006 73.4291 85.8677 73.165 86.0219 72.9515C86.6282 72.1229 87.4304 71.8986 88.4287 72.2785C88.5904 72.3432 88.6955 72.4301 88.744 72.5392C88.7723 72.5958 88.7864 72.6524 88.7864 72.709C88.7824 72.7979 88.7359 72.8444 88.647 72.8484L87.0343 72.9333C86.9674 72.9366 86.9024 72.9565 86.845 72.9911C86.7876 73.0257 86.7396 73.074 86.7054 73.1316C86.6712 73.1892 86.6518 73.2544 86.6489 73.3213C86.646 73.3883 86.6597 73.4549 86.6888 73.5153C86.9232 73.9922 87.2789 74.3438 87.7558 74.5702C87.8419 74.6122 87.9186 74.6715 87.9811 74.7444C88.0436 74.8174 88.0907 74.9025 88.1195 74.9945C88.7076 76.8496 86.4099 77.6257 85.349 76.6435C85.3036 76.6036 85.2722 76.5502 85.2591 76.4912C85.2461 76.4322 85.2522 76.3706 85.2765 76.3152C85.3008 76.2599 85.342 76.2137 85.3943 76.1834C85.4466 76.153 85.5071 76.1401 85.5672 76.1464Z" fill="#04776D"/>
</svg>
