<svg width="100" height="100" viewBox="0 0 100 100" fill="none" xmlns="http://www.w3.org/2000/svg">
<g clip-path="url(#clip0_31_4702)">
<rect width="100" height="100" fill="white"/>
<g clip-path="url(#clip1_31_4702)">
<path d="M143.55 -2H144V101H-43V-1.90619H143.947C143.975 -1.90619 143.985 -1.91991 143.977 -1.94735C143.974 -1.95629 143.972 -1.96554 143.968 -1.97511C143.967 -1.97894 143.964 -1.98117 143.96 -1.98181L143.55 -2Z" fill="#1163B7"/>
<path d="M10.2992 59.9398C10.2435 59.9136 10.1859 59.8367 10.1263 59.7091C8.93922 57.1647 8.04408 54.3647 7.72809 51.5725C7.43547 48.9866 7.46237 46.5249 7.80877 44.1873C8.16862 41.7584 8.92962 39.2909 10.0918 36.7849C10.1263 36.7112 10.2147 36.6097 10.2906 36.5771C13.2545 35.2992 16.2233 34.408 19.4312 34.1821C21.3816 34.0443 23.1955 34.0797 24.8731 34.2884C27.6479 34.6339 30.5916 35.5223 33.4327 36.8739C33.4596 36.8867 33.4794 36.9068 33.4922 36.9342C35.5581 41.44 36.6214 46.4358 36.0441 51.4384C35.7086 54.3453 34.8781 57.2075 33.5527 60.025C33.5396 60.0523 33.5179 60.0742 33.4913 60.0872C30.8807 61.3507 27.8688 62.2161 24.9836 62.5109C19.8634 63.0345 14.9728 62.1481 10.2992 59.9398Z" fill="#FEFEFE"/>
<path d="M10.7333 59.4554C10.7231 59.4529 10.7154 59.4468 10.7103 59.4373C9.90542 57.8846 9.36949 56.3004 8.89119 54.5677C8.73367 53.9966 8.60401 53.3874 8.5022 52.7403C8.37254 51.9161 8.22463 51.069 8.16316 50.2659C7.87791 46.5297 8.38118 42.7093 9.7018 39.3025C9.84587 38.9311 9.94672 38.5597 10.1234 38.2036C10.2835 37.8832 10.4289 37.573 10.5595 37.2731C10.6009 37.1782 10.6765 37.1018 10.7717 37.0587C12.5601 36.2508 14.5223 35.5817 16.2598 35.2122C17.1159 35.0296 18.2988 34.8733 19.8086 34.7431C21.2372 34.6199 22.6628 34.6458 24.0855 34.8206C24.9932 34.9326 25.9392 35.0207 26.7921 35.216C28.6189 35.6324 30.5801 36.1933 32.3464 37.0491C32.5398 37.1429 32.7373 37.2262 32.939 37.299C32.9691 37.3104 32.9902 37.3309 33.0024 37.3602C33.3606 38.2036 33.7688 39.0584 34.0541 39.8835C34.9473 42.47 35.392 44.7291 35.5581 47.4257C35.6811 49.4187 35.464 51.4634 35.1096 53.4248C35.0276 53.8811 34.7862 54.7822 34.3854 56.128C34.087 57.1293 33.7515 58.0138 33.3789 58.7815C33.2348 59.0777 33.1362 59.3176 33.083 59.5014C33.0741 59.532 33.0552 59.554 33.0264 59.5674C31.1433 60.4436 29.1884 61.0952 27.1619 61.5221C26.0208 61.7634 24.4851 61.929 23.4564 62.0065C22.2904 62.0946 21.1261 62.0726 19.9633 61.9405C19.0547 61.8371 18.101 61.749 17.2423 61.5748C15.3893 61.1976 13.5907 60.6418 11.8465 59.9073C11.5459 59.7809 11.1492 59.5655 10.7333 59.4554Z" fill="#1163B7"/>
<path d="M21.8978 55.7912L21.4896 55.7624C21.4519 55.7599 21.433 55.7401 21.433 55.7031C21.4317 54.6973 21.4032 53.1326 21.3475 51.0087C21.3023 49.2579 20.9758 47.6756 20.0345 46.1995C19.466 45.3074 18.5699 44.6162 17.9561 43.7183C17.3991 42.904 17.1186 42.0138 17.1148 41.0476C17.0965 35.6841 25.2095 35.105 26.1459 40.2397C26.4091 41.6845 26.0355 42.9937 25.0251 44.1673C24.5141 44.7608 23.8197 45.3887 23.3933 46.0377C22.7177 47.0665 22.2756 48.1852 22.0669 49.3939C21.99 49.8361 21.9516 50.4714 21.9516 51.2997C21.9503 52.7809 21.95 54.2618 21.9507 55.7423C21.9507 55.7774 21.933 55.7937 21.8978 55.7912Z" fill="#FEFEFE"/>
<path d="M73.3166 37.9842L73.768 37.3888C73.7878 37.3626 73.8118 37.3572 73.84 37.3725L78.1332 39.6421C78.1627 39.6581 78.1694 39.6807 78.1534 39.7101L75.0319 45.3646C75.0166 45.3926 74.9964 45.3968 74.9714 45.377C73.0428 43.8349 70.6868 43.3821 68.2857 44.0665C65.8683 44.7567 64.0021 47.2973 64.2989 49.832C64.5179 51.7035 65.8663 53.1317 67.6989 53.5605C69.8301 54.0583 72.1813 53.1939 73.9197 51.9303C73.9249 51.9265 73.9311 51.9246 73.9374 51.9248C73.9438 51.925 73.9499 51.9274 73.9548 51.9316C73.9597 51.9357 73.9632 51.9414 73.9647 51.9477C73.9661 51.9541 73.9655 51.9608 73.9629 51.9667L70.9001 58.4961C70.8861 58.5261 70.8653 58.5523 70.8392 58.5728C70.8132 58.5933 70.7827 58.6073 70.7502 58.6139C69.7005 58.8264 68.5786 59.058 67.5827 59.104C66.2025 59.1671 64.7311 58.9757 63.4393 58.589C60.7721 57.7916 58.9338 55.8933 58.1184 53.2667C57.1934 50.2867 58.128 46.6779 59.7588 44.1039C62.2781 40.1284 66.1285 37.9832 70.7906 37.6664C71.6127 37.6102 72.3916 37.7331 73.1273 38.0349C73.1602 38.0484 73.1966 38.0507 73.2308 38.0415C73.265 38.0323 73.2952 38.0122 73.3166 37.9842Z" fill="#FEFEFE"/>
<path d="M42.3842 43.0318L40.9157 43.0548C40.9017 43.055 40.8879 43.0516 40.8757 43.0448C40.8635 43.0381 40.8533 43.0282 40.8461 43.0163C40.8389 43.0044 40.835 42.9908 40.8347 42.9769C40.8345 42.963 40.8379 42.9493 40.8446 42.9371L43.6991 37.6904C43.7132 37.6649 43.7346 37.6521 43.7634 37.6521C46.8209 37.6547 49.8745 37.6562 52.9242 37.6569C55.3772 37.6569 57.7735 38.6151 58.3335 41.2638C58.8137 43.5363 57.399 45.5092 55.7018 46.8781C55.2149 47.2705 54.6693 47.5682 54.1257 47.8861C54.0828 47.9116 54.0848 47.9333 54.1315 47.9511C55.7316 48.5801 56.3895 49.7986 56.5528 51.4556C57.0292 56.283 52.321 59.127 48.0797 59.128C44.7565 59.1293 41.4289 59.1248 38.0967 59.1146C38.0314 59.1139 38.0074 59.0824 38.0247 59.0198L42.4265 43.0854C42.4361 43.0491 42.422 43.0312 42.3842 43.0318Z" fill="#FEFEFE"/>
<path d="M79.6506 43.0386H78.0745C78.0264 43.0386 78.014 43.0175 78.037 42.9754L80.9251 37.6789C80.9341 37.6623 80.9485 37.6541 80.9683 37.6541H90.8831C90.896 37.654 90.9084 37.659 90.9177 37.6679C90.927 37.6769 90.9325 37.689 90.933 37.7019C91.1097 43.0309 91.3883 48.359 91.5765 53.6889C91.6389 55.4445 91.76 57.2413 91.8166 58.9998C91.8192 59.0795 91.7804 59.1194 91.7004 59.1194H85.2683C85.1882 59.1194 85.1482 59.0798 85.1482 59.0007V55.6025C85.1482 55.5898 85.1431 55.5776 85.1341 55.5686C85.1251 55.5597 85.1129 55.5546 85.1002 55.5546H80.7176C80.619 55.5546 80.5508 55.5999 80.5131 55.6905L79.1022 59.0648C79.0881 59.098 79.0631 59.1146 79.0272 59.1146L71.9449 59.1184C71.8642 59.1184 71.8418 59.0824 71.8776 59.0103L79.6842 43.0931C79.687 43.0873 79.6882 43.0808 79.6879 43.0744C79.6876 43.0679 79.6856 43.0617 79.6823 43.0562C79.6789 43.0508 79.6742 43.0463 79.6687 43.0432C79.6632 43.0401 79.6569 43.0385 79.6506 43.0386Z" fill="#FEFEFE"/>
<path d="M50.6855 43.0672C51.6699 43.1122 52.081 43.9335 51.8524 44.8065C51.6104 45.7341 50.5395 46.611 49.5675 46.6062C48.9073 46.6036 48.2549 46.6033 47.6101 46.6052C47.5646 46.6052 47.547 46.5832 47.5573 46.5392L48.3746 43.0959C48.3783 43.0819 48.3863 43.0693 48.3976 43.0602C48.4088 43.0511 48.4227 43.0458 48.437 43.0452C49.1849 43.0248 49.9344 43.0321 50.6855 43.0672Z" fill="#1163B7"/>
<path d="M15.6115 50.6727C14.3716 50.4056 12.929 50.129 12.3248 48.8424C11.9682 48.0849 11.9054 47.2997 12.1366 46.4867C12.9155 43.746 15.9736 42.8405 18.1346 44.7607C19.7895 46.232 20.6769 48.1417 20.918 50.2984C21.1082 52.0033 20.9929 53.9369 20.9891 55.6973C20.9891 55.7369 20.9692 55.7573 20.9295 55.7586L20.578 55.7729C20.5689 55.7733 20.5599 55.7719 20.5514 55.7686C20.543 55.7653 20.5353 55.7603 20.5289 55.7539C20.5225 55.7475 20.5174 55.7399 20.5142 55.7314C20.5109 55.723 20.5094 55.714 20.5098 55.705C20.5207 55.4465 20.4864 55.1581 20.407 54.8396C19.9143 52.8543 18.7656 51.8769 16.9638 51.1456C16.3274 50.8878 15.8766 50.7301 15.6115 50.6727Z" fill="#FEFEFE"/>
<path d="M27.8257 43.7449C30.0194 43.8665 31.6608 45.8557 31.2286 48.0526C30.8761 49.8426 29.4556 50.3337 27.8574 50.6256C27.593 50.6735 27.1147 50.8343 26.4225 51.1081C24.2692 51.9581 22.9697 53.2801 22.8266 55.7374C22.8258 55.7526 22.8192 55.767 22.8081 55.7775C22.797 55.788 22.7823 55.7939 22.767 55.7938H22.428C22.4086 55.7938 22.39 55.7862 22.3764 55.7725C22.3627 55.7589 22.355 55.7404 22.355 55.7211C22.3588 54.2278 22.3659 52.7367 22.3761 51.2479C22.3844 50.1087 22.5842 49.0053 22.9754 47.9377C23.6631 46.0624 25.5312 43.6186 27.8257 43.7449Z" fill="#FEFEFE"/>
<path d="M85.1186 44.3406C85.157 44.4267 85.0984 44.5741 85.0984 44.6555C85.1189 46.4264 85.1455 48.2372 85.1781 50.0879C85.1794 50.1428 85.1522 50.1702 85.0965 50.1702H82.5791C82.5286 50.1702 82.5135 50.1469 82.534 50.1003C83.4032 48.0853 84.2013 46.1507 85.0725 44.3396C85.0885 44.3064 85.1038 44.3067 85.1186 44.3406Z" fill="#1163B7"/>
<path d="M23.3335 55.7835C23.2932 55.7809 23.2727 55.7596 23.2721 55.7194C23.2654 55.4542 23.2721 55.1642 23.3384 54.9047C24.0952 51.9574 26.893 51.5027 29.3873 50.7847C30.074 50.5875 30.4841 50.376 30.8846 49.8418C30.909 49.8093 30.9317 49.8106 30.9528 49.8457C31.6972 51.0853 31.6799 52.6667 30.6724 53.7245C29.6476 54.8004 28.2808 54.586 26.8699 54.383C26.1906 54.2848 25.7161 54.2551 25.4465 54.294C24.6071 54.4153 23.9979 54.9009 23.6188 55.7509C23.6034 55.7848 23.5775 55.8004 23.541 55.7979L23.3335 55.7835Z" fill="#FEFEFE"/>
<path d="M12.8147 53.9147C11.6564 52.8627 11.4729 51.1148 12.344 49.8589C12.3671 49.8257 12.3908 49.8254 12.4151 49.8579C12.7109 50.2504 13.0202 50.506 13.5206 50.6582C16.3337 51.5178 19.7933 51.983 20.0651 55.699C20.0689 55.7456 20.0475 55.7708 20.0008 55.7747L19.7309 55.7996C19.6957 55.8027 19.671 55.7881 19.6569 55.7555C18.2729 52.6244 14.8556 55.7661 12.8147 53.9147Z" fill="#FEFEFE"/>
<path d="M48.7856 50.1499C49.6539 50.123 50.6143 50.4744 50.7315 51.4776C50.8823 52.7603 49.4589 53.6783 48.3188 53.6984C47.4615 53.7137 46.6211 53.7175 45.7976 53.7099C45.7503 53.7092 45.733 53.6863 45.7458 53.6409L46.6813 50.2073C46.6851 50.1936 46.6933 50.1816 46.7046 50.1731C46.7159 50.1646 46.7297 50.1601 46.7437 50.1604C47.4477 50.17 48.1037 50.1719 48.7856 50.1499Z" fill="#1163B7"/>
<path d="M15.2064 57.9314C15.1987 57.6231 15.0431 57.4901 14.7338 57.5485C14.7145 57.5519 14.6965 57.5607 14.6817 57.5739C14.667 57.5871 14.6561 57.6041 14.6503 57.6231L14.2815 58.8838C14.271 58.9196 14.2687 58.9572 14.2748 58.994C14.2809 59.0307 14.2951 59.0656 14.3165 59.096C14.3379 59.1265 14.3659 59.1517 14.3985 59.1698C14.431 59.1879 14.4671 59.1985 14.5043 59.2007C14.8052 59.2192 14.956 59.0756 14.9567 58.7699C14.9567 58.7406 14.9423 58.723 14.9134 58.7173L14.7492 58.6809C14.7303 58.6768 14.7138 58.6654 14.7032 58.6491C14.6926 58.6328 14.6888 58.6129 14.6925 58.5938L14.7415 58.3449C14.7499 58.3041 14.7745 58.2887 14.8155 58.2989L15.3399 58.4291C15.37 58.4366 15.3959 58.4555 15.4122 58.4818C15.4286 58.5081 15.434 58.5397 15.4273 58.5698L15.2016 59.5979C15.1993 59.6086 15.1948 59.6186 15.1884 59.6274C15.182 59.6363 15.1738 59.6437 15.1643 59.6493C15.1549 59.6548 15.1444 59.6584 15.1334 59.6598C15.1225 59.6612 15.1114 59.6603 15.1007 59.6573L14.8068 59.5702C14.7742 59.5606 14.7412 59.5584 14.7079 59.5635C14.1662 59.6468 13.7792 59.2954 13.8973 58.7565C13.9728 58.4113 14.0558 58.0698 14.146 57.7323C14.3967 56.7941 15.9651 57.2297 15.5329 58.1257C15.5137 58.1646 15.4862 58.172 15.4503 58.1477L15.2535 58.0175C15.2227 57.9971 15.207 57.9684 15.2064 57.9314Z" fill="#FEFEFE"/>
<path d="M28.8255 59.0035L28.4558 59.1079C28.4218 59.1168 28.4068 59.1388 28.4106 59.1739L28.4586 59.6344C28.4625 59.6739 28.4452 59.6995 28.4068 59.7109L28.0994 59.799C28.0905 59.8016 28.0812 59.8021 28.0721 59.8006C28.0629 59.799 28.0542 59.7954 28.0467 59.7899C28.0391 59.7845 28.0328 59.7774 28.0283 59.7692C28.0238 59.761 28.0212 59.7519 28.0207 59.7425L27.9025 57.5198C27.9006 57.486 27.9134 57.4592 27.941 57.4394C28.2358 57.225 28.5038 57.2747 28.6747 57.6107C28.9654 58.1819 29.2696 58.7425 29.5872 59.2926C29.6083 59.329 29.5987 59.3536 29.5584 59.3663L29.2491 59.464C29.2177 59.4735 29.1927 59.4646 29.1742 59.4372L28.8995 59.0313C28.8809 59.0045 28.8563 58.9952 28.8255 59.0035Z" fill="#FEFEFE"/>
<path d="M16.6258 59.1078L16.4059 59.9713C16.3963 60.0076 16.3732 60.0214 16.3367 60.0124L15.9756 59.9234C15.9603 59.9196 15.9471 59.9099 15.9389 59.8965C15.9306 59.8831 15.9279 59.867 15.9314 59.8516L16.4376 57.6519C16.4433 57.6263 16.4587 57.6171 16.4837 57.6241C16.7136 57.6917 17.0548 57.7741 17.5075 57.8711C17.6145 57.894 17.6878 57.9642 17.7275 58.0817C17.8517 58.4454 17.7758 58.7351 17.4998 58.9508C17.4749 58.9706 17.4694 58.9949 17.4835 59.0236C17.6285 59.3117 17.5229 59.8258 17.497 60.1493C17.4931 60.194 17.4691 60.2119 17.4249 60.2029L17.0763 60.133C17.0353 60.1248 17.0171 60.0995 17.0215 60.0574L17.1166 59.2217C17.1184 59.2035 17.1132 59.1852 17.1022 59.1706C17.0911 59.1561 17.075 59.1463 17.0571 59.1433L16.6767 59.0762C16.6498 59.0711 16.6329 59.0817 16.6258 59.1078Z" fill="#FEFEFE"/>
<path d="M26.9949 60.0497C25.9106 60.5341 25.7751 58.9211 25.803 58.3066C25.826 57.7993 26.4628 57.6097 26.8393 57.7734C27.1428 57.9045 27.3599 58.4818 26.8153 58.4167C26.8038 58.4152 26.7927 58.4109 26.7832 58.4042C26.7737 58.3976 26.7659 58.3887 26.7606 58.3784L26.605 58.0816C26.5928 58.0587 26.5746 58.0433 26.5502 58.0357C26.0114 57.8672 26.3456 59.373 26.4302 59.5615C26.5089 59.7367 26.823 59.8908 26.9747 59.6927C26.9933 59.6684 27.001 59.6416 26.9978 59.6123L26.9651 59.2744C26.9634 59.2568 26.9685 59.2393 26.9792 59.2254C26.9899 59.2115 27.0055 59.2023 27.0228 59.1997L27.2715 59.1614C27.2991 59.1576 27.3147 59.1694 27.3186 59.1968C27.3695 59.5185 27.332 59.8985 26.9949 60.0497Z" fill="#FEFEFE"/>
<path d="M28.4231 58.6858C28.4165 58.6872 28.4097 58.6871 28.4031 58.6857C28.3965 58.6842 28.3903 58.6813 28.3849 58.6772C28.3795 58.6731 28.3751 58.6679 28.3719 58.662C28.3687 58.656 28.3669 58.6495 28.3665 58.6427L28.3213 57.8559C28.3211 57.8504 28.3227 57.8451 28.3259 57.8407C28.329 57.8363 28.3336 57.8331 28.3389 57.8317C28.3441 57.8302 28.3497 57.8306 28.3547 57.8327C28.3597 57.8349 28.3639 57.8386 28.3665 57.8434L28.6959 58.4848C28.7036 58.4999 28.7078 58.5167 28.708 58.5337C28.7082 58.5507 28.7045 58.5675 28.6972 58.5828C28.6899 58.5982 28.6791 58.6117 28.6657 58.6222C28.6523 58.6328 28.6367 58.6401 28.62 58.6437L28.4231 58.6858Z" fill="#1163B7"/>
<path d="M19.1528 60.0776C19.2097 60.0808 19.2658 60.0631 19.3104 60.0278C19.355 59.9925 19.3851 59.9421 19.3949 59.8862L19.6964 58.1383C19.6978 58.1304 19.7007 58.123 19.7051 58.1164C19.7095 58.1097 19.7152 58.1041 19.7219 58.0998C19.7286 58.0954 19.7361 58.0926 19.7439 58.0913C19.7518 58.09 19.7598 58.0903 19.7675 58.0923L20.0345 58.1622C20.0729 58.1718 20.0944 58.1963 20.0989 58.2359C20.1078 58.3163 20.1059 58.3954 20.0931 58.4733C19.998 59.0649 19.973 59.7895 19.6984 60.3246C19.686 60.3493 19.6647 60.3684 19.6388 60.3782C19.1692 60.562 18.4267 60.496 18.4066 59.8556C18.3969 59.5499 18.4543 58.9356 18.5785 58.0129C18.5836 57.979 18.6031 57.965 18.6371 57.9707L18.9627 58.0263C18.994 58.032 19.0084 58.0505 19.0059 58.0818C18.9649 58.5476 18.9159 59.0116 18.8589 59.4736C18.8176 59.8087 18.7321 60.0547 19.1528 60.0776Z" fill="#FEFEFE"/>
<path d="M16.7863 58.1268C16.7899 58.0996 16.8041 58.075 16.8259 58.0583C16.8477 58.0416 16.8753 58.0342 16.9025 58.0377L17.013 58.0521C17.1241 58.0665 17.2262 58.1149 17.2968 58.1865C17.3674 58.2581 17.4008 58.3472 17.3895 58.434L17.3847 58.4685C17.379 58.5115 17.3626 58.5527 17.3364 58.5897C17.3101 58.6267 17.2745 58.6587 17.2316 58.6841C17.1887 58.7094 17.1393 58.7275 17.0863 58.7373C17.0333 58.7471 16.9777 58.7485 16.9227 58.7413L16.8122 58.7269C16.7987 58.7252 16.7856 58.7208 16.7737 58.7139C16.7618 58.7071 16.7515 58.698 16.7432 58.6871C16.7349 58.6763 16.7288 58.6639 16.7253 58.6507C16.7218 58.6374 16.721 58.6237 16.7229 58.6102L16.7863 58.1268Z" fill="#1163B7"/>
<path d="M24.9951 59.1787L25.2045 59.2782C25.2359 59.2936 25.256 59.3181 25.265 59.352C25.5426 60.4222 24.8539 60.4001 24.0846 60.4815C24.0494 60.4847 24.0292 60.4691 24.0241 60.4346L23.6975 58.2607C23.6951 58.2437 23.6985 58.2264 23.707 58.2115C23.7155 58.1966 23.7287 58.185 23.7446 58.1784C23.7913 58.1605 23.841 58.1557 23.8935 58.164C23.9216 58.1685 23.9495 58.1669 23.977 58.1592C24.2046 58.0951 24.7598 57.918 24.9519 58.1822C25.1613 58.4732 25.1673 58.776 24.9701 59.0906C24.9452 59.1296 24.9535 59.1589 24.9951 59.1787Z" fill="#FEFEFE"/>
<path d="M20.9671 60.5573L20.652 60.5257C20.6251 60.5231 20.6123 60.5088 20.6136 60.4826L20.726 58.28C20.7263 58.2738 20.7279 58.2678 20.7307 58.2622C20.7335 58.2567 20.7373 58.2517 20.742 58.2476C20.7468 58.2435 20.7523 58.2404 20.7583 58.2384C20.7642 58.2364 20.7706 58.2355 20.7769 58.2359L21.8161 58.302C21.8506 58.3039 21.883 58.319 21.9064 58.3441C22.1587 58.6198 22.2051 58.9421 22.0456 59.3109C21.8958 59.6603 21.4675 59.6239 21.1659 59.5809C21.1275 59.5758 21.1076 59.5927 21.1063 59.6316L21.0785 60.4596C21.0759 60.5317 21.0388 60.5643 20.9671 60.5573Z" fill="#FEFEFE"/>
<path d="M24.2238 58.5097C24.2229 58.4944 24.2251 58.479 24.2301 58.4645C24.2352 58.4499 24.2431 58.4366 24.2533 58.4251C24.2636 58.4136 24.276 58.4043 24.2899 58.3976C24.3038 58.3909 24.3189 58.3871 24.3343 58.3862H24.3477C24.4504 58.3806 24.5506 58.4079 24.6264 58.4619C24.7022 58.5159 24.7474 58.5923 24.7521 58.6743L24.753 58.6992C24.7554 58.7399 24.7476 58.7808 24.7302 58.8195C24.7128 58.8582 24.6861 58.894 24.6517 58.9247C24.6173 58.9555 24.5757 58.9807 24.5295 58.9988C24.4833 59.017 24.4333 59.0277 24.3823 59.0304L24.3689 59.0314C24.3535 59.0322 24.3381 59.0299 24.3236 59.0247C24.3091 59.0196 24.2957 59.0116 24.2843 59.0013C24.2729 58.991 24.2636 58.9785 24.257 58.9646C24.2504 58.9507 24.2467 58.9357 24.2459 58.9204L24.2238 58.5097Z" fill="#1163B7"/>
<path d="M21.1497 58.6925C21.1504 58.6803 21.1535 58.6684 21.1589 58.6574C21.1643 58.6464 21.1718 58.6366 21.181 58.6285C21.1902 58.6204 21.2009 58.6142 21.2125 58.6102C21.2241 58.6063 21.2363 58.6046 21.2486 58.6054L21.3494 58.6112C21.45 58.617 21.5447 58.6542 21.6126 58.7147C21.6805 58.7752 21.7161 58.854 21.7115 58.9337L21.7086 58.9778C21.7041 59.0576 21.6598 59.1319 21.5854 59.1843C21.511 59.2367 21.4127 59.263 21.312 59.2573L21.2111 59.2516C21.1989 59.2508 21.1869 59.2477 21.1759 59.2423C21.1649 59.237 21.155 59.2295 21.1469 59.2204C21.1388 59.2112 21.1325 59.2005 21.1286 59.189C21.1246 59.1774 21.1229 59.1652 21.1237 59.153L21.1497 58.6925Z" fill="#1163B7"/>
<path d="M24.8445 59.5271L24.8608 59.9445C24.8616 59.9674 24.8535 59.9897 24.838 60.0066C24.8226 60.0236 24.8012 60.0339 24.7782 60.0354L24.516 60.0527C24.496 60.0539 24.4762 60.0483 24.4598 60.0368C24.4434 60.0254 24.4314 60.0087 24.4257 59.9895L24.297 59.5405C24.2932 59.5272 24.2927 59.5131 24.2954 59.4995C24.2981 59.4858 24.304 59.473 24.3126 59.4621C24.3212 59.4512 24.3323 59.4424 24.345 59.4366C24.3576 59.4308 24.3715 59.428 24.3854 59.4285L24.76 59.4429C24.7821 59.4438 24.8031 59.453 24.8187 59.4686C24.8344 59.4842 24.8436 59.5051 24.8445 59.5271Z" fill="#1163B7"/>
</g>
</g>
<defs>
<clipPath id="clip0_31_4702">
<rect width="100" height="100" fill="white"/>
</clipPath>
<clipPath id="clip1_31_4702">
<rect width="187" height="103" fill="white" transform="translate(-43 -2)"/>
</clipPath>
</defs>
</svg>
