<svg width="100" height="100" viewBox="0 0 100 100" fill="none" xmlns="http://www.w3.org/2000/svg">
<g clip-path="url(#clip0_31_4704)">
<rect width="100" height="100" fill="white"/>
<g clip-path="url(#clip1_31_4704)">
<path d="M0 0H100V100H0V0Z" fill="#F0F3FA"/>
<path d="M24.2966 57.1367C22.2583 57.2867 19.685 57.3017 19.6716 54.5001C19.6505 49.9656 19.6477 45.4334 19.6633 40.9034C19.665 40.5817 19.6166 39.9051 19.6283 39.4051C19.6287 39.3749 19.6412 39.346 19.663 39.3248C19.6849 39.3036 19.7143 39.2917 19.745 39.2917H23.7916C23.8222 39.2918 23.8522 39.3003 23.8783 39.3164C23.9043 39.3325 23.9253 39.3555 23.9388 39.3828C23.9524 39.4101 23.958 39.4405 23.9549 39.4707C23.9519 39.5009 23.9403 39.5295 23.9216 39.5534C23.1138 40.6034 22.2844 41.6601 21.4333 42.7234C21.3477 42.8312 21.2944 42.9212 21.2733 42.9934C21.2571 43.0471 21.253 43.1038 21.2613 43.159C21.2697 43.2142 21.2902 43.2664 21.3213 43.3114C21.3524 43.3564 21.3932 43.393 21.4404 43.4182C21.4876 43.4435 21.54 43.4567 21.5933 43.4567L22.8399 43.4584C22.9373 43.4589 23.0306 43.4977 23.0993 43.5664C23.168 43.6351 23.2066 43.7281 23.2066 43.8251C23.2077 47.4306 23.2111 51.0445 23.2166 54.6667C23.2188 55.6779 23.5905 56.4601 24.3316 57.0134C24.4305 57.0867 24.4188 57.1279 24.2966 57.1367Z" fill="#FBAE17"/>
<path d="M29.67 57.1234C27.3317 57.1517 25.0067 57.3617 25.0033 54.2034C24.9989 49.259 24.9983 44.3162 25.0017 39.3751C25.0017 39.353 25.0104 39.3318 25.0261 39.3162C25.0417 39.3005 25.0629 39.2917 25.085 39.2917H28.4917C28.5505 39.2917 28.58 39.3212 28.58 39.3801C28.5867 44.3679 28.5872 49.3517 28.5817 54.3317C28.58 55.5401 28.8067 56.3051 29.7033 57.0301C29.7778 57.0912 29.7667 57.1223 29.67 57.1234Z" fill="#FBAE17"/>
<path d="M46.9584 55.1684V57.0417C46.9584 57.0973 46.9306 57.1251 46.8751 57.1251H44.7551C44.6828 57.1251 44.6467 57.089 44.6467 57.0167L44.6717 39.3717C44.6717 39.3184 44.6989 39.2917 44.7534 39.2917H46.8751C46.9306 39.2917 46.9584 39.3195 46.9584 39.3751V46.6651C46.9583 46.6764 46.9618 46.6875 46.9684 46.6967C46.975 46.7059 46.9843 46.7128 46.9951 46.7163C47.0059 46.7199 47.0175 46.7199 47.0283 46.7164C47.0391 46.7128 47.0484 46.706 47.0551 46.6967C48.7817 44.2117 52.0567 43.9384 54.0484 46.2834C56.0567 48.6451 56.1851 52.1717 54.5734 54.7851C52.7984 57.6601 49.0551 57.9651 47.0651 55.1351C47.058 55.1247 47.0478 55.1168 47.036 55.1127C47.0242 55.1085 47.0113 55.1083 46.9993 55.1121C46.9873 55.1158 46.9769 55.1233 46.9695 55.1335C46.9621 55.1436 46.9582 55.1559 46.9584 55.1684Z" fill="#353535"/>
<path d="M85.6849 51.5034L84.4749 52.7134C84.4696 52.7186 84.4653 52.7248 84.4625 52.7317C84.4596 52.7386 84.4582 52.746 84.4582 52.7534V57.0701C84.4582 57.0847 84.4525 57.0987 84.4421 57.109C84.4318 57.1193 84.4178 57.1251 84.4032 57.1251H82.2166C82.202 57.1251 82.188 57.1193 82.1777 57.109C82.1674 57.0987 82.1616 57.0847 82.1616 57.0701L82.1599 39.3467C82.1599 39.3322 82.1657 39.3182 82.176 39.3079C82.1863 39.2975 82.2003 39.2917 82.2149 39.2917H84.4032C84.4178 39.2917 84.4318 39.2975 84.4421 39.3079C84.4525 39.3182 84.4582 39.3322 84.4582 39.3467V49.9117C84.4581 49.9228 84.4613 49.9337 84.4675 49.9429C84.4736 49.9521 84.4824 49.9592 84.4927 49.9633C84.5029 49.9675 84.5142 49.9684 84.525 49.9661C84.5358 49.9637 84.5457 49.9581 84.5532 49.9501L89.6716 44.6951C89.6768 44.6897 89.683 44.6855 89.6899 44.6826C89.6967 44.6798 89.7041 44.6783 89.7116 44.6784L92.4132 44.6401C92.4241 44.64 92.4348 44.6431 92.4439 44.649C92.4529 44.6549 92.4601 44.6634 92.4644 44.6734C92.4686 44.6834 92.4699 44.6944 92.4679 44.7051C92.4659 44.7158 92.4608 44.7256 92.4532 44.7334L87.4566 49.7317C87.4473 49.7411 87.4417 49.7535 87.4408 49.7667C87.4398 49.7798 87.4437 49.7929 87.4516 49.8034L92.7732 57.0367C92.7794 57.0449 92.7832 57.0546 92.7842 57.0647C92.7852 57.0749 92.7834 57.0851 92.7789 57.0943C92.7744 57.1035 92.7674 57.1112 92.7588 57.1166C92.7501 57.1221 92.7401 57.125 92.7299 57.1251H89.9132C89.9046 57.1253 89.896 57.1234 89.8881 57.1196C89.8803 57.1159 89.8735 57.1103 89.8683 57.1034L85.7682 51.5101C85.7636 51.5036 85.7576 51.4983 85.7506 51.4944C85.7437 51.4905 85.736 51.4882 85.7281 51.4876C85.7202 51.4869 85.7122 51.488 85.7048 51.4907C85.6973 51.4935 85.6905 51.4978 85.6849 51.5034Z" fill="#353535"/>
<path d="M14.3617 55.825C13.2406 56.965 11.8278 57.355 10.1234 56.995C6.30003 56.1884 6.05669 51.38 9.90003 50.1717C10.8834 49.8634 12 49.77 13.0384 49.625C14.785 49.38 14.6667 47.1934 12.8034 47.0034C11.3934 46.86 10.4084 47.475 9.84836 48.8484C9.8376 48.8738 9.81829 48.8947 9.79388 48.9072C9.76946 48.9197 9.74152 48.9231 9.71503 48.9167L7.46169 48.3567C7.40725 48.3434 7.38558 48.3095 7.39669 48.255C8.03003 45.21 11.0884 44.2217 13.8467 44.815C15.4156 45.1528 16.4367 46.0389 16.91 47.4734C17.0567 47.9189 17.1289 48.5567 17.1267 49.3867C17.1234 51.2867 17.1228 53.1856 17.125 55.0834C17.1261 55.6723 17.3311 56.3162 17.74 57.015C17.7722 57.0717 17.7561 57.1012 17.6917 57.1034C16.2767 57.1717 14.82 57.365 14.4234 55.8417C14.4122 55.8006 14.3917 55.795 14.3617 55.825Z" fill="#FBAE17"/>
<path d="M42.8383 50.8916C42.8383 52.5443 42.1818 54.1294 41.0131 55.298C39.8445 56.4667 38.2594 57.1232 36.6067 57.1232C34.9539 57.1232 33.3689 56.4667 32.2002 55.298C31.0315 54.1294 30.375 52.5443 30.375 50.8916C30.375 49.2388 31.0315 47.6538 32.2002 46.4851C33.3689 45.3165 34.9539 44.6599 36.6067 44.6599C38.2594 44.6599 39.8445 45.3165 41.0131 46.4851C42.1818 47.6538 42.8383 49.2388 42.8383 50.8916Z" fill="#FBAE17"/>
<path d="M64.235 55.8533C62.9073 57.1267 61.365 57.47 59.6084 56.8833C58.0673 56.3689 57.255 55.3478 57.1717 53.82C56.98 50.3217 60.43 49.9617 62.9584 49.63C63.5517 49.5517 64.19 49.095 64.2817 48.4583C64.4617 47.21 63.0284 46.64 62.0017 46.715C60.6762 46.8106 59.7645 47.5022 59.2667 48.79C59.2456 48.8444 59.2073 48.8639 59.1517 48.8483L57.47 48.3583C57.4045 48.3394 57.3795 48.2967 57.395 48.23C57.7584 46.6045 58.6962 45.5261 60.2084 44.995C62.35 44.2433 65.4717 44.565 66.3467 47.0767C66.4989 47.5122 66.5762 48.2283 66.5784 49.225C66.5839 51.8272 66.5856 54.4311 66.5834 57.0367C66.5834 57.0956 66.5534 57.125 66.4934 57.125H64.375C64.3195 57.125 64.2917 57.0972 64.2917 57.0417V55.8783C64.2917 55.825 64.2728 55.8167 64.235 55.8533Z" fill="#353535"/>
<path d="M72.0483 46.5284C73.975 43.7584 78.1333 44.1234 79.2283 47.4001C79.3806 47.8579 79.4572 48.5229 79.4583 49.3951C79.4617 51.9451 79.4606 54.4934 79.455 57.0401C79.455 57.0967 79.4267 57.1251 79.37 57.1251H77.2533C77.1889 57.1251 77.1572 57.0929 77.1583 57.0284C77.1828 54.5417 77.1722 52.0601 77.1267 49.5834C77.1133 48.8401 77.0383 48.3029 76.9017 47.9717C75.8967 45.5284 71.96 46.1267 71.96 48.8684C71.9589 51.5917 71.9583 54.3156 71.9583 57.0401C71.9583 57.0967 71.9294 57.1251 71.8717 57.1251H69.795C69.7072 57.1251 69.6633 57.0812 69.6633 56.9934L69.6667 44.7551C69.6667 44.6962 69.6961 44.6667 69.755 44.6667H71.875C71.9306 44.6667 71.9583 44.6945 71.9583 44.7501V46.5001C71.9583 46.6056 71.9883 46.6151 72.0483 46.5284Z" fill="#353535"/>
<path d="M46.9984 50.8934C46.9984 53.351 48.4863 55.3434 50.3217 55.3434C52.1571 55.3434 53.645 53.351 53.645 50.8934C53.645 48.4357 52.1571 46.4434 50.3217 46.4434C48.4863 46.4434 46.9984 48.4357 46.9984 50.8934Z" fill="#F0F3FA"/>
<path d="M33.3717 50.899C33.3751 52.8642 34.8262 54.4548 36.6129 54.4516C38.3995 54.4485 39.8451 52.8529 39.8417 50.8877C39.8382 48.9225 38.3871 47.3319 36.6005 47.335C34.8138 47.3381 33.3682 48.9338 33.3717 50.899Z" fill="#F0F3FA"/>
<path d="M60.905 55.2566C60.3717 55.1733 59.8233 54.8216 59.6333 54.2883C59.0867 52.7533 60.2083 51.5366 61.7033 51.4683C62.5456 51.4294 63.375 51.2989 64.1917 51.0766C64.235 51.0644 64.2589 51.0811 64.2633 51.1266C64.445 53.4216 63.805 55.7133 60.905 55.2566Z" fill="#F0F3FA"/>
<path d="M10.615 54.5933C9.69498 54.09 9.96498 52.7466 10.6833 52.2266C11.5883 51.57 13.0366 51.7483 14.18 51.4516C14.2333 51.4383 14.2633 51.4594 14.27 51.515C14.4016 52.7816 14.2083 54.16 12.915 54.7216C12.1461 55.055 11.3794 55.0122 10.615 54.5933Z" fill="#F0F3FA"/>
</g>
</g>
<defs>
<clipPath id="clip0_31_4704">
<rect width="100" height="100" fill="white"/>
</clipPath>
<clipPath id="clip1_31_4704">
<rect width="100" height="100" fill="white"/>
</clipPath>
</defs>
</svg>
