<svg width="100" height="100" viewBox="0 0 100 100" fill="none" xmlns="http://www.w3.org/2000/svg">
<rect width="100" height="100" fill="white"/>
<path d="M35.5508 16H37.3461C38.4608 16.1431 39.0201 16.6542 39.0242 17.5333C39.0407 23.6912 39.0386 29.8613 39.0181 36.0437C39.0181 36.2768 39.1353 36.3933 39.3697 36.3933H42.547C42.7814 36.3933 42.8986 36.2768 42.8986 36.0437C42.874 30.1639 42.874 24.3025 42.8986 18.4595C42.9069 16.9466 43.4827 16.1268 44.6261 16H46.2857C46.8286 16.0859 47.3036 16.2699 47.7108 16.552C47.7924 16.607 47.8593 16.6811 47.9055 16.7676C47.9517 16.8542 47.976 16.9508 47.9761 17.0488V35.9333C47.9761 36.0553 48.0248 36.1723 48.1116 36.2586C48.1984 36.3449 48.3161 36.3933 48.4388 36.3933H51.6592C51.8772 36.3933 51.9862 36.285 51.9862 36.0683C51.9862 29.7836 51.9842 23.5011 51.98 17.2205C51.98 16.4968 52.6237 16.09 53.9111 16H55.5336C56.4714 16.1779 57.0698 16.4907 57.0698 17.5579C57.078 23.7116 57.0801 29.8756 57.076 36.0499C57.076 36.2788 57.1912 36.3933 57.4215 36.3933H60.7777C60.9833 36.3933 61.0861 36.2911 61.0861 36.0867V17.0611C61.086 16.9593 61.1106 16.8592 61.158 16.7694C61.2053 16.6796 61.2738 16.6029 61.3576 16.5459C61.7689 16.2596 62.2665 16.0777 62.8506 16H64.5102C65.1148 16.1104 65.6063 16.3373 65.9847 16.6808C66.1122 16.7953 66.1759 16.9384 66.1759 17.1101V36.0867C66.1759 36.2911 66.2787 36.3933 66.4844 36.3933L71.6667 36.3995C71.9306 36.3996 72.1868 36.4887 72.3939 36.6523C72.6011 36.8159 72.747 37.0445 72.808 37.3011C73.1124 38.6177 73.0548 39.9139 72.6353 41.1896C72.607 41.277 72.5508 41.3535 72.4745 41.4085C72.3982 41.4635 72.3056 41.4941 72.2096 41.4963L66.4165 41.5883C66.3522 41.5899 66.291 41.6158 66.2461 41.6605C66.2011 41.7051 66.1759 41.7651 66.1759 41.8275V60.9451C66.1758 61.0492 66.147 61.1515 66.0927 61.2411C66.0384 61.3308 65.9606 61.4044 65.8674 61.4541C65.3204 61.7526 64.6891 61.9346 63.9734 62H63.2331C62.4064 61.9755 61.7607 61.7588 61.2959 61.3499C61.156 61.2272 61.0861 61.0739 61.0861 60.8899V41.9256C61.0861 41.8674 61.0744 41.8097 61.0516 41.7561C61.0289 41.7024 60.9955 41.6539 60.9535 41.6133C60.9115 41.5727 60.8618 41.5408 60.8072 41.5197C60.7526 41.4985 60.6943 41.4885 60.6358 41.4901L57.4215 41.5637C57.2035 41.5719 57.0945 41.6823 57.0945 41.8949C57.0534 47.9915 57.0534 54.0839 57.0945 60.1723C57.1027 61.354 56.4015 61.9632 54.9907 62H53.9728C52.5332 61.9141 51.8546 61.2681 51.9369 60.0619C52.3502 54.1493 51.9985 47.8075 51.9739 41.8336C51.9698 41.5678 51.834 41.439 51.5667 41.4472L48.2537 41.5453C48.179 41.5485 48.1084 41.5796 48.0567 41.6322C48.005 41.6848 47.9761 41.7547 47.9761 41.8275V61.08C47.9763 61.1828 47.9428 61.283 47.8806 61.3658C47.8183 61.4487 47.7307 61.5097 47.6306 61.54C46.4584 61.8957 45.2554 61.9796 44.0215 61.7915C43.7054 61.7419 43.4175 61.5818 43.2094 61.3401C43.0013 61.0984 42.8868 60.7909 42.8863 60.4728V41.8275C42.8863 41.7762 42.876 41.7255 42.8561 41.6782C42.8362 41.6309 42.807 41.588 42.7703 41.552C42.7335 41.5161 42.69 41.4878 42.6421 41.4687C42.5942 41.4496 42.543 41.4403 42.4914 41.4411L39.3389 41.5024C39.1168 41.5065 39.0057 41.6189 39.0057 41.8397C39.0427 47.7972 39.0468 53.7527 39.0181 59.7061C39.0098 61.2354 38.2777 62 36.8217 62H36.0876C35.1786 61.9755 34.4856 61.7322 34.0085 61.2701C33.9559 61.2197 33.9141 61.159 33.8855 61.0916C33.8569 61.0241 33.842 60.9514 33.8419 60.8776L33.7679 41.8459C33.7679 41.7892 33.7565 41.7332 33.7343 41.681C33.7122 41.6289 33.6797 41.5817 33.6389 41.5422C33.598 41.5027 33.5496 41.4718 33.4965 41.4513C33.4435 41.4308 33.3868 41.421 33.3298 41.4227C31.405 41.4901 27.1913 42.6432 27 39.7115V38.0555C27.2221 35.5347 31.6024 36.4424 33.3792 36.3688C33.6219 36.3606 33.7452 36.2359 33.7494 35.9947L33.9283 17.1101C33.9284 17.0013 33.9536 16.8943 34.0017 16.7975C34.0499 16.7007 34.1198 16.6166 34.2059 16.552C34.539 16.2944 34.9874 16.1104 35.5508 16Z" fill="#FB002C"/>
<path d="M47.5316 83.476C42.5794 82.1064 42.53 75.4274 43.4637 71.7014C44.0637 69.3158 45.5263 67.8495 47.8515 67.3024C50.4628 66.6875 54.1536 66.8854 56.1094 69.0757C58.6402 71.9125 58.4841 79.2169 55.8546 81.9666C53.8544 84.0592 50.1689 84.207 47.5316 83.476ZM48.0154 80.7448C49.1026 81.4942 50.8608 81.5496 52.0468 81.1564C54.3226 80.407 54.5723 77.5333 54.5723 75.4855C54.5671 72.4112 54.1067 69.2287 50.1507 69.5058C48.1974 69.6404 46.9386 70.4716 46.5849 72.4693C46.1895 74.6991 45.8748 79.2696 48.0154 80.7448Z" fill="#005EB8"/>
<path d="M34.0017 81.043C36.3529 81.1407 37.747 80.8055 37.7522 78.1033C37.7592 74.6341 37.76 71.1948 37.7548 67.7853C37.7548 67.6907 37.7839 67.5985 37.838 67.5218C37.8922 67.4451 37.9686 67.3877 38.0565 67.3578C38.9911 67.0394 39.9257 67.0385 40.8603 67.3552C40.8999 67.3686 40.9364 67.3899 40.9677 67.4181C40.9989 67.4462 41.0244 67.4804 41.0424 67.5188C41.1707 67.795 41.234 68.0862 41.2323 68.3923C41.2045 71.8017 41.1603 75.2111 41.0996 78.6205C41.0476 81.555 39.5833 83.221 36.7067 83.6186C33.172 84.1041 28.0534 83.769 28.0222 78.8633C27.9979 75.139 27.9936 71.4481 28.0092 67.7906C28.01 67.7001 28.0372 67.6121 28.0872 67.5378C28.1373 67.4635 28.2079 67.4063 28.2901 67.3737C29.112 67.0412 30.4332 66.9805 31.2525 67.4687C31.2929 67.4927 31.3264 67.527 31.3497 67.5682C31.373 67.6094 31.3852 67.656 31.3852 67.7035C31.3834 70.7576 31.3843 73.809 31.3878 76.8578C31.3878 79.2301 31.2213 80.9269 34.0017 81.043Z" fill="#005EB8"/>
<path d="M73.0001 78.6494V79.4807C72.7062 83.2675 70.2873 83.6158 66.9555 83.629C64.6788 83.6378 62.4195 83.6369 60.1775 83.6264C60.0602 83.6264 59.9478 83.5788 59.8649 83.4942C59.7819 83.4096 59.7354 83.2948 59.7354 83.1751V67.6691C59.7354 67.5648 59.7759 67.4648 59.8481 67.3911C59.9203 67.3173 60.0182 67.2759 60.1203 67.2759C62.7299 67.2636 65.3768 67.2653 68.0609 67.2812C70.452 67.297 71.7638 68.393 71.9961 70.5692C72.1964 72.4402 71.9207 73.9628 70.1131 74.7571C70.0968 74.7642 70.0832 74.7763 70.0739 74.7916C70.0647 74.8069 70.0604 74.8247 70.0615 74.8426C70.0626 74.8605 70.0692 74.8776 70.0803 74.8916C70.0914 74.9056 70.1065 74.9158 70.1235 74.9207C71.9094 75.4239 72.8683 76.6668 73.0001 78.6494ZM63.0619 69.6773L63.0463 73.815C63.0463 73.864 63.0655 73.911 63.0997 73.9456C63.1338 73.9803 63.1801 73.9997 63.2284 73.9997L66.8957 74.0129C67.4086 74.0146 67.901 73.8329 68.2649 73.5078C68.6287 73.1827 68.8341 72.7408 68.836 72.2792L68.8412 71.2553C68.8421 71.0265 68.793 70.7996 68.6965 70.5878C68.6 70.376 68.458 70.1833 68.2788 70.0208C68.0996 69.8584 67.8865 69.7292 67.6519 69.6408C67.4173 69.5525 67.1656 69.5066 66.9113 69.5058L63.244 69.4926C63.1957 69.4926 63.1494 69.512 63.1153 69.5467C63.0811 69.5813 63.0619 69.6283 63.0619 69.6773ZM63.0437 76.5278L63.0593 81.1775C63.0593 81.216 63.0744 81.2529 63.1012 81.2801C63.1281 81.3073 63.1645 81.3226 63.2024 81.3226L67.5121 81.3068C68.0542 81.3053 68.5736 81.097 68.956 80.7278C69.3384 80.3587 69.5525 79.8588 69.5513 79.3382L69.5461 78.3249C69.5454 78.067 69.4919 77.8118 69.3886 77.5738C69.2853 77.3359 69.1341 77.1198 68.9438 76.938C68.7535 76.7561 68.5277 76.6121 68.2794 76.5141C68.031 76.4161 67.765 76.3661 67.4965 76.3668L63.1868 76.3826C63.1488 76.3826 63.1125 76.3979 63.0856 76.4252C63.0588 76.4524 63.0437 76.4893 63.0437 76.5278Z" fill="#005EB8"/>
</svg>
