<svg width="100" height="100" viewBox="0 0 100 100" fill="none" xmlns="http://www.w3.org/2000/svg">
<rect width="100" height="100" fill="white"/>
<path d="M60.2615 38.3506C60.2826 38.2915 60.2831 38.227 60.2628 38.1676C60.2425 38.1081 60.2027 38.0574 60.1498 38.0235C60.097 37.9896 60.0342 37.9747 59.9717 37.9811C59.9093 37.9875 59.8509 38.0149 59.806 38.0588C55.9292 42.187 51.7631 45.9997 47.3074 49.4968C47.2288 49.558 47.1298 49.5869 47.0307 49.5776C46.9315 49.5684 46.8396 49.5217 46.7736 49.447C27.7838 27.6529 55.9482 -2.01338 78.4114 17.1828C83.9418 21.9089 86.5611 29.2472 85.6358 36.3435C84.191 47.5181 75.6285 55.3902 64.4111 56.9632C62.755 57.1957 60.1073 56.8659 56.4678 55.9739C56.2258 55.9169 56.1167 55.7627 56.1404 55.5112C56.6719 49.5894 58.0456 43.8692 60.2615 38.3506Z" fill="#028A42"/>
<path d="M32.4528 56.0308C32.4175 56.0557 32.39 56.0901 32.3736 56.13C32.3571 56.1699 32.3524 56.2137 32.3598 56.2562C32.3673 56.2987 32.3867 56.3383 32.4157 56.3702C32.4448 56.4021 32.4823 56.4251 32.5239 56.4365L44.0545 59.2409C44.1388 59.2618 44.2178 59.3001 44.2865 59.3532C44.3552 59.4063 44.4122 59.4732 44.4537 59.5495C44.4952 59.6258 44.5203 59.7099 44.5276 59.7965C44.5348 59.883 44.524 59.9701 44.4958 60.0523C42.5123 65.9077 38.842 69.6136 33.4848 71.17C21.2283 74.7288 9.91125 61.611 15.4416 49.9453C21.5557 37.041 38.5597 38.1442 44.0189 50.6784C44.1185 50.9061 44.0616 51.0841 43.8481 51.2122C40.4506 53.2668 36.8704 54.7829 33.1076 55.7604C32.8371 55.8315 32.6188 55.9217 32.4528 56.0308Z" fill="#717171"/>
<path d="M56.5389 71.7113L55.8557 59.2626C55.8414 58.9684 55.979 58.8071 56.2685 58.7786C60.6245 58.3515 64.5036 59.3694 67.5214 62.6862C81.0022 77.4908 60.0622 98.9718 46.4035 83.8255C40.4389 77.2061 40.8659 68.124 47.2789 62.0242C47.4318 61.8791 47.6348 61.7987 47.8447 61.8C48.0546 61.8013 48.255 61.8843 48.4035 62.0313C51.4166 64.9591 54.0122 68.2213 56.1902 71.8181C56.2099 71.857 56.2427 71.8878 56.2828 71.9049C56.3229 71.922 56.3678 71.9244 56.4095 71.9116C56.4513 71.8988 56.4871 71.8717 56.5108 71.8351C56.5345 71.7984 56.5444 71.7546 56.5389 71.7113Z" fill="#73BB43"/>
</svg>
