<svg width="100" height="100" viewBox="0 0 100 100" fill="none" xmlns="http://www.w3.org/2000/svg">
<rect width="100" height="100" fill="#01519B"/>
<path d="M80.3136 70.8031C80.3158 72.0664 80.0692 73.3178 79.5878 74.4858C79.1064 75.6538 78.3996 76.7155 77.5079 77.6104C76.6161 78.5053 75.5569 79.2157 74.3906 79.7012C73.2242 80.1867 71.9737 80.4377 70.7104 80.4399L28.7104 80.5132C26.159 80.5177 23.7104 79.5084 21.9032 77.7074C20.096 75.9065 19.0782 73.4614 19.0737 70.91L19 28.7101C18.9978 27.4468 19.2444 26.1954 19.7259 25.0274C20.2073 23.8594 20.914 22.7977 21.8058 21.9028C22.6975 21.008 23.7568 20.2975 24.9231 19.812C26.0894 19.3265 27.3399 19.0755 28.6032 19.0733L70.6032 19C73.1546 18.9956 75.6032 20.0049 77.4104 21.8058C79.2177 23.6067 80.2355 26.0519 80.2399 28.6032L80.3136 70.8031Z" fill="white"/>
<path d="M29.5768 50.3767C32.9435 53.7167 36.2402 57.1133 39.4668 60.5667C51.5768 73.5267 26.0868 82.0167 26.0568 69.6867C26.0235 55.9533 26.0202 42.2167 26.0468 28.4767C26.0668 23.3467 34.8368 23.0667 37.9568 24.4367C44.2568 27.1967 45.0268 33.8067 40.2768 38.5167C36.6235 42.1367 33.0502 45.8067 29.5568 49.5267C29.2902 49.8133 29.2968 50.0967 29.5768 50.3767Z" fill="#01529A"/>
<path d="M48.257 24.0365C51.317 23.7165 55.287 23.6565 57.657 26.1165C65.547 34.3065 52.507 43.4965 47.137 48.7765C46.517 49.3831 46.5104 49.9998 47.117 50.6265L70.257 74.2365C70.3573 74.3391 70.425 74.469 70.4518 74.6099C70.4787 74.7508 70.4634 74.8965 70.4079 75.0288C70.3525 75.1611 70.2592 75.2741 70.1399 75.3537C70.0206 75.4333 69.8805 75.476 69.737 75.4765H47.767C47.3337 75.4765 47.1937 75.2731 47.347 74.8665C52.057 62.6765 47.937 58.6065 39.307 50.1465C39.0537 49.8931 39.0504 49.6398 39.297 49.3865C46.637 41.8065 53.627 36.0665 47.947 24.6065C47.7804 24.2665 47.8837 24.0765 48.257 24.0365Z" fill="#01529A"/>
<path d="M65.2371 24.1166C69.8971 23.1466 73.2471 25.1566 73.2671 30.1066C73.3004 42.3199 73.3037 54.5566 73.2771 66.8166C73.2781 66.8866 73.2581 66.9552 73.2197 67.0137C73.1813 67.0722 73.1263 67.1179 73.0617 67.1448C72.9971 67.1717 72.926 67.1786 72.8574 67.1647C72.7888 67.1508 72.726 67.1166 72.6771 67.0666L56.1171 50.1566C55.8371 49.8766 55.8337 49.5933 56.1071 49.3066C63.5171 41.6366 70.6571 36.3466 64.9771 24.6466C64.8371 24.3599 64.9237 24.1833 65.2371 24.1166Z" fill="#01529A"/>
</svg>
