<svg width="100" height="100" viewBox="0 0 100 100" fill="none" xmlns="http://www.w3.org/2000/svg">
<rect width="100" height="100" fill="white"/>
<path d="M49.4887 23.8276C49.5854 24.0676 49.4384 24.234 49.0474 24.3269C48.1031 24.5553 47.1432 24.6249 46.1679 24.5359C42.5374 24.2031 38.9554 24.5591 35.4217 25.6041C35.3368 25.629 35.2627 25.6816 35.2113 25.7535C35.1599 25.8255 35.1341 25.9126 35.1381 26.001C35.1421 26.0894 35.1757 26.1738 35.2334 26.2408C35.2912 26.3078 35.3698 26.3535 35.4566 26.3705C36.7764 26.6492 37.802 27.3381 38.5335 28.4373C38.5838 28.5124 38.6512 28.5743 38.73 28.6178C38.8088 28.6612 38.8968 28.6849 38.9864 28.6869L39.9733 28.7043C40.0294 28.7063 40.0837 28.7254 40.1289 28.759C40.1741 28.7925 40.2079 28.8388 40.2257 28.8916C40.2435 28.9444 40.2445 29.001 40.2284 29.0538C40.2123 29.1065 40.18 29.1528 40.1359 29.1862L37.8078 30.9743C37.7497 31.0156 37.7087 31.0768 37.6928 31.1464C37.6769 31.2159 37.6872 31.2888 37.7216 31.3513C37.7561 31.4137 37.8123 31.4613 37.8796 31.4849C37.9469 31.5086 38.0206 31.5066 38.0865 31.4794C39.0425 31.1311 39.8688 31.2994 40.5655 31.9845C40.6893 32.1122 40.8403 32.1741 41.0183 32.1703C43.236 32.1393 45.4847 32.5283 47.7644 33.3372" stroke="#1971B5" stroke-opacity="0.51" stroke-width="1.16112"/>
<path d="M47.764 33.3372C47.5395 33.2907 47.4486 33.3565 47.4911 33.5346" stroke="#222060" stroke-opacity="0.51" stroke-width="1.16112"/>
<path d="M47.4914 33.5345C45.5349 33.4358 43.4449 33.2036 41.5233 33.4126C40.9892 33.4745 40.6563 33.1881 40.5247 32.5534C40.4705 32.294 40.3506 32.2612 40.1648 32.4547C39.6887 32.954 39.5784 33.1107 38.8469 33.1862C34.7307 33.5984 27.9092 34.1963 24.6464 32.0251C24.6043 31.9957 24.5563 31.9753 24.5054 31.9653C24.4544 31.9554 24.4017 31.9559 24.3503 31.967L21.732 32.4953C21.69 32.503 21.6503 32.503 21.6159 32.4953C20.896 32.3405 20.2555 32.4643 19.6943 32.8669C19.6408 32.9089 19.579 32.9368 19.5143 32.9481L9.16872 34.9975C8.98568 35.035 8.82218 35.1405 8.71008 35.2936L7.13677 37.4881C7.0013 37.6739 6.96647 37.8752 7.03227 38.0919C7.96697 41.134 10.864 39.4446 12.6056 41.9642C12.7604 42.1848 12.9037 42.179 13.0352 41.9468L14.1383 40.0194C14.1652 39.9712 14.2022 39.9295 14.2467 39.897C14.2912 39.8644 14.3422 39.8419 14.3962 39.8309C14.4502 39.8198 14.5059 39.8206 14.5596 39.8331C14.6133 39.8456 14.6637 39.8695 14.7073 39.9032L15.4678 40.4896C15.6574 40.6367 15.8123 40.6077 15.9322 40.4025C17.2056 38.2583 19.0769 37.8074 21.5462 39.0498C22.3745 39.464 22.361 39.8529 21.5056 40.2167C20.2826 40.7354 19.1563 41.432 18.1267 42.3068C18.094 42.3345 18.0683 42.3695 18.0516 42.4092C18.0348 42.4488 18.0276 42.4919 18.0304 42.5352C18.0332 42.5784 18.046 42.6207 18.0678 42.6586C18.0895 42.6965 18.1196 42.7291 18.1558 42.7538C19.0963 43.3808 19.9768 43.3518 20.7973 42.6667C20.837 42.6331 20.8842 42.6097 20.935 42.5985C20.9858 42.5873 21.0387 42.5886 21.0893 42.6022C21.1399 42.6158 21.1867 42.6415 21.2258 42.6769C21.2649 42.7124 21.2952 42.7567 21.314 42.806C21.5888 43.5375 22.0049 43.6846 22.5622 43.2473C22.7054 43.1389 22.866 43.1021 23.0441 43.137C24.0388 43.3382 24.8012 43.0944 25.3315 42.4055C25.3606 42.3664 25.3991 42.3353 25.4433 42.3151C25.4876 42.2948 25.5363 42.286 25.5849 42.2895C25.6334 42.2929 25.6803 42.3086 25.7213 42.3349C25.7622 42.3613 25.7959 42.3975 25.8192 42.4403L26.87 44.3445" stroke="#28358B" stroke-opacity="0.51" stroke-width="1.16112"/>
<path d="M26.8699 44.3445C20.0193 46.8061 19.4677 47.6304 18.7536 54.7945C18.7348 54.9796 18.6577 55.1561 18.533 55.2996C16.9423 57.0936 14.8465 59.2474 14.5388 61.6858C14.1556 64.7337 14.8755 67.4856 18.3589 67.8803C23.7387 68.4841 29.0857 69.2543 34.3997 70.191" stroke="#C28A30" stroke-opacity="0.51" stroke-width="1.16112"/>
<path d="M34.4001 70.1909L49.5644 71.3172C49.7734 71.3327 49.963 71.4043 50.1333 71.532L50.4991 71.8049C50.6655 71.9287 50.8474 71.9558 51.0448 71.8862C52.3568 71.414 53.5741 71.5456 54.6965 72.2809C54.8655 72.3937 55.0678 72.4469 55.2712 72.4319C57.1523 72.3216 59.7067 71.7352 61.8722 72.4435C63.4978 72.9718 65.1349 72.3042 66.9869 72.8092C71.2308 73.9529 74.5632 75.1837 77.7331 72.6235C77.8783 72.5083 78.0616 72.4541 78.244 72.4725C80.752 72.7164 83.2716 73.7149 85.4894 73.7439C89.3152 73.7904 94.2094 72.9486 92.7231 67.6481C92.6957 67.5548 92.6883 67.4565 92.7013 67.3595C92.7143 67.2625 92.7474 67.169 92.7986 67.0849C93.7817 65.5019 93.7197 63.9925 92.6128 62.5566C92.5199 62.4366 92.398 62.3572 92.2471 62.3185L91.4865 62.1153C91.2156 62.0457 91.1459 61.887 91.2775 61.6393C91.7613 60.7491 91.5059 60.0157 90.5112 59.439" stroke="#ECB544" stroke-opacity="0.51" stroke-width="1.16112"/>
<path d="M90.511 59.4391C90.7664 58.4018 90.4394 57.7555 89.5298 57.5C89.3324 57.4458 89.1602 57.3452 89.0131 57.1981L87.5327 55.6829" stroke="#F1C566" stroke-opacity="0.51" stroke-width="1.16112"/>
<path d="M87.5325 55.6829C90.1102 53.9006 93.3091 49.0936 92.055 46.1153C91.7299 45.3431 91.8577 44.8729 92.4034 44.3039C92.4566 44.2487 92.4947 44.1807 92.514 44.1065C92.5333 44.0322 92.5332 43.9543 92.5137 43.8801L92.1363 42.4752C92.0899 42.3126 92.1267 42.1714 92.2466 42.0514L92.7343 41.5637C92.9046 41.3973 92.9356 41.2076 92.8272 40.9948L91.8983 39.0905C91.868 39.0378 91.8558 38.9767 91.8635 38.9163C92.2408 34.7828 89.5296 33.8539 86.5862 32.1006" stroke="#28358B" stroke-opacity="0.51" stroke-width="1.16112"/>
<path d="M86.5864 32.1008C87.4456 29.8134 86.36 24.9251 84.2816 23.4447C84.1345 23.3363 83.9681 23.2821 83.7823 23.2821L72.0898 23.2473" stroke="#1971B5" stroke-opacity="0.51" stroke-width="1.16112"/>
<path d="M72.0894 23.2471L73.0879 22.3356C73.1542 22.275 73.2078 22.2018 73.2457 22.1201C73.2835 22.0384 73.3049 21.9498 73.3086 21.8596C73.3782 20.2863 72.9718 15.1425 71.1373 15.0438C69.6278 14.9664 66.4347 14.9916 61.558 15.1193C56.3794 15.2528 49.0876 16.1875 42.7595 16.0656C41.3139 16.0366 39.9206 16.4778 38.4692 16.681C38.389 16.6924 38.3139 16.7266 38.2525 16.7794C38.1912 16.8322 38.1462 16.9015 38.123 16.9791C38.0998 17.0566 38.0993 17.1392 38.1216 17.2171C38.1438 17.2949 38.1879 17.3647 38.2486 17.4183L41.0585 19.8683C41.194 19.9882 41.1959 20.1102 41.0643 20.234L39.9438 21.3313C39.7348 21.5364 39.7735 21.6719 40.0599 21.7377L49.4882 23.8277" stroke="#22A4DA" stroke-opacity="0.51" stroke-width="1.16112"/>
<path d="M72.0896 23.2473L67.6658 23.346" stroke="#1E8DCB" stroke-width="1.16112"/>
<path d="M67.6657 23.3459C67.1819 23.1331 66.6362 23.1408 66.0286 23.3692" stroke="#23649F" stroke-width="1.16112"/>
<path d="M66.0288 23.3687C65.7889 23.2371 65.456 23.2371 65.0303 23.3687" stroke="#1E8DCB" stroke-width="1.16112"/>
<path d="M65.0302 23.3691L62.7021 23.0498" stroke="#22A4DA" stroke-opacity="0.51" stroke-width="1.16112"/>
<path d="M62.7022 23.0498C62.4467 22.8641 62.3209 22.837 62.3248 22.9686" stroke="#1E8DCB" stroke-width="1.16112"/>
<path d="M62.3246 22.9683C62.104 22.7516 61.9105 22.6994 61.7441 22.8116C60.2752 23.8218 57.2273 23.4792 55.5263 23.2238C53.7807 22.9606 52.0642 23.2064 50.3767 23.9611" stroke="#22A4DA" stroke-opacity="0.51" stroke-width="1.16112"/>
<path d="M50.3765 23.9612L49.4883 23.8276" stroke="#1E8DCB" stroke-width="1.16112"/>
<path d="M62.702 23.0498C62.5859 23.2278 62.6594 23.4136 62.9226 23.6071C63.0813 23.7271 63.2613 23.7813 63.4625 23.7697L65.0765 23.6594C65.2081 23.6517 65.2294 23.5975 65.1403 23.4968L65.03 23.3691" stroke="#1971B5" stroke-opacity="0.51" stroke-width="1.16112"/>
<path d="M66.0286 23.3689C66.8878 23.6399 67.4335 23.6321 67.6657 23.3457" stroke="#1E4A8D" stroke-width="1.16112"/>
<path d="M86.5863 32.1004L85.8896 31.9785" stroke="#2155A3" stroke-width="1.16112"/>
<path d="M85.8895 31.9787C84.0839 31.3343 82.4177 30.7131 80.4148 30.7595C75.0504 30.8756 70.1679 30.3009 64.7455 31.8858C62.5104 32.536 60.3391 31.3517 58.1271 31.4794C56.9312 31.553 55.7333 31.6633 54.5335 31.8103C53.3549 31.9497 52.2345 32.7799 50.6786 32.3677C50.5005 32.3212 50.3264 32.3309 50.1561 32.3967L47.7642 33.3372" stroke="#1E4A8D" stroke-width="1.16112"/>
<path d="M62.3246 22.9685C62.0034 23.5994 61.3551 23.9438 60.3797 24.0019C56.4242 24.2457 53.2195 24.3444 50.7657 24.298C50.6612 24.2941 50.576 24.267 50.5102 24.2167C50.3864 24.1238 50.3419 24.0387 50.3767 23.9613" stroke="#1971B5" stroke-opacity="0.51" stroke-width="1.16112"/>
<path d="M87.5322 55.6831C84.2405 54.58 80.7513 53.8601 77.7034 52.1707C76.3971 51.4392 75.0386 51.3289 73.6046 50.9922C73.5207 50.9726 73.4458 50.9252 73.392 50.8578C73.3383 50.7904 73.3089 50.7068 73.3085 50.6206V49.8891C73.3085 49.6685 73.2079 49.5137 73.0066 49.4246C69.2678 47.7217 65.4129 46.3477 61.4419 45.3027C61.3806 45.2864 61.3161 45.2871 61.2552 45.3048C61.1943 45.3224 61.1393 45.3564 61.0963 45.403C61.0533 45.4496 61.0238 45.5071 61.0111 45.5692C60.9983 45.6313 61.0027 45.6957 61.0239 45.7555C61.082 45.9239 66.1793 47.6133 67.0327 48.1416C67.292 48.3042 67.2939 48.4706 67.0385 48.6409L66.7714 48.8151C66.6895 48.8693 66.5942 48.9001 66.496 48.9042C66.3978 48.9083 66.3003 48.8855 66.2141 48.8383C62.1812 46.667 58.2527 45.382 54.4288 44.9834C53.4921 44.8866 52.8361 44.6931 52.4607 44.4028C52.4026 44.3602 52.3484 44.3641 52.2981 44.4144L52.1646 44.5479C52.1405 44.5721 52.1216 44.6009 52.1089 44.6325C52.0961 44.6641 52.0898 44.698 52.0904 44.732C52.0909 44.7661 52.0983 44.7998 52.112 44.831C52.1257 44.8622 52.1456 44.8903 52.1704 44.9137L53.465 46.1387" stroke="#8F7F7B" stroke-width="1.16112"/>
<path d="M53.465 46.1386C52.869 46.007 51.8239 45.6761 50.33 45.1458C49.8268 44.9639 49.4379 45.1245 49.1631 45.6277C49.0469 45.8406 48.8863 45.8793 48.6812 45.7438L46.3764 44.1763C46.3388 44.1495 46.2949 44.1323 46.2484 44.1262C46.2019 44.1202 46.1542 44.1254 46.1093 44.1415C45.8229 44.2576 45.5307 44.4666 45.2327 44.7685" stroke="#8D7769" stroke-width="1.16112"/>
<path d="M45.233 44.7683C44.8304 44.6521 44.4376 44.3328 44.0544 43.8103C44.0254 43.7713 43.9883 43.7389 43.9455 43.7156C43.9028 43.6923 43.8556 43.6785 43.807 43.6752C43.7584 43.6718 43.7097 43.6791 43.6643 43.6964C43.6188 43.7137 43.5776 43.7407 43.5435 43.7755C42.7927 44.5534 42.1386 44.4876 41.5812 43.5781C41.5479 43.5253 41.5026 43.4811 41.4489 43.4492C41.3952 43.4173 41.3347 43.3986 41.2723 43.3946C41.21 43.3906 41.1476 43.4015 41.0903 43.4263C41.033 43.4512 40.9824 43.4893 40.9426 43.5375C40.393 44.2187 39.7892 44.3135 39.1313 43.8219C38.93 43.671 38.7036 43.5994 38.452 43.6071C35.6112 43.6807 32.8109 43.7252 30.0513 43.7407C28.9076 43.7465 27.9904 44.1354 26.8699 44.3444" stroke="#77615F" stroke-width="1.16112"/>
<path d="M85.8899 31.9785C84.7346 33.9118 81.5995 33.8247 79.6373 33.4125C77.9652 33.0584 76.4152 33.4415 74.8941 33.2093C73.3324 32.9713 70.8302 32.3152 69.3381 32.7332C66.029 33.6505 62.563 33.4996 59.2306 32.7449C58.5262 32.5862 56.9471 32.8745 54.4932 33.6099C54.3075 33.6641 54.1507 33.7647 54.023 33.9118C53.2102 34.8252 52.1342 35.0129 50.7951 34.4749C50.6287 34.4091 50.4835 34.3143 50.3597 34.1904C49.6359 33.4822 48.6799 33.2635 47.4917 33.5344" stroke="#262B77" stroke-width="1.16112"/>
<path d="M45.2332 44.7683C46.3827 46.1849 46.2337 47.4756 44.7861 48.6406C44.4068 48.9464 44.0275 48.8942 43.6482 48.4839C43.6041 48.437 43.5497 48.4009 43.4893 48.3785C43.4289 48.356 43.3641 48.3479 43.3 48.3546C43.236 48.3614 43.1743 48.3828 43.1199 48.4173C43.0655 48.4518 43.0198 48.4985 42.9864 48.5536L41.5176 51.0093C41.4678 51.092 41.4414 51.1865 41.4411 51.283C41.4408 51.3795 41.4665 51.4745 41.5157 51.5581C41.5649 51.6416 41.6357 51.7107 41.7208 51.7582C41.8058 51.8056 41.9021 51.8297 41.9994 51.8279C42.9129 51.8008 43.3599 51.2919 43.3405 50.301C43.3368 50.2029 43.3678 50.1063 43.4282 50.028C43.4885 49.9496 43.5745 49.8943 43.6715 49.8714L44.3101 49.7263C44.353 49.7162 44.3975 49.7152 44.4408 49.7235C44.4841 49.7317 44.5252 49.749 44.5613 49.7742C44.5975 49.7994 44.6279 49.832 44.6506 49.8697C44.6734 49.9075 44.6879 49.9496 44.6932 49.9933C44.8094 50.93 44.6932 51.8318 44.3449 52.6987C44.2752 52.8652 44.283 53.0297 44.3681 53.1922C44.7513 53.9431 44.5636 54.4733 43.805 54.783C42.342 55.3751 41.2157 56.1144 40.4261 57.0007C40.2868 57.1594 40.2171 57.3432 40.2171 57.5522V58.7424C40.2171 58.9281 40.1591 59.0946 40.043 59.2416C39.6017 59.7835 39.325 60.397 39.2128 61.082C39.203 61.1395 39.2127 61.1982 39.2403 61.2481C39.2678 61.2979 39.3115 61.3357 39.3637 61.3549L40.4842 61.7845C40.5388 61.8064 40.5863 61.8431 40.6214 61.8904C40.6565 61.9377 40.6777 61.9937 40.6826 62.0519C40.6874 62.1101 40.6757 62.1681 40.6489 62.2194C40.622 62.2707 40.581 62.3131 40.5306 62.3418C39.6675 62.845 38.907 63.4662 38.249 64.2054C37.175 65.4072 37.5233 66.8818 35.8107 67.8513C34.7889 68.4319 34.0284 69.0241 34.3999 70.191" stroke="#DBA23B" stroke-width="1.16112"/>
<path d="M60.6759 48.1066L60.8327 48.0659C60.9092 48.0453 60.9758 47.9978 61.0203 47.9322C61.0648 47.8665 61.0843 47.7871 61.0751 47.7083C61.066 47.6295 61.0289 47.5567 60.9705 47.5029C60.9121 47.4492 60.8364 47.4183 60.7572 47.4157C58.8994 47.3925 57.2022 46.8468 55.6657 45.7785C55.5376 45.6879 55.3849 45.6411 55.2303 45.645C54.7619 45.6566 54.491 45.7592 54.4175 45.9527" stroke="#8F7F7B" stroke-width="1.16112"/>
<path d="M53.4653 46.1384C53.7634 46.15 54.0807 46.0881 54.4174 45.9526" stroke="#F3C057" stroke-width="1.16112"/>
<path d="M54.4175 45.9526C54.3982 46.2739 54.4659 46.4616 54.6207 46.5158C56.165 47.0305 58.1834 47.5608 60.676 48.1065" stroke="#8D7769" stroke-width="1.16112"/>
<path d="M60.6758 48.1067C61.0048 48.1338 61.1557 48.4047 61.1286 48.9195C61.117 49.1323 61.2176 49.2214 61.4305 49.1865C62.4678 49.0046 63.3173 49.2949 63.9792 50.0574C64.1301 50.2315 64.3217 50.3031 64.5539 50.2722C65.15 50.187 65.717 50.3186 66.255 50.667C66.3352 50.7186 66.4293 50.7446 66.5247 50.7415C66.6201 50.7384 66.7123 50.7063 66.7891 50.6495C67.4857 50.1541 68.2172 50.0361 68.9836 50.2954C69.0833 50.3286 69.1722 50.3882 69.2407 50.468C69.3092 50.5477 69.3548 50.6446 69.3726 50.7482C69.4654 51.3094 69.2719 51.6442 68.792 51.7526C68.6711 51.7822 68.5638 51.8519 68.4876 51.9502C68.4113 52.0485 68.3705 52.1698 68.3719 52.2942C68.3732 52.4187 68.4166 52.539 68.495 52.6356C68.5734 52.7323 68.6821 52.7996 68.8036 52.8266L69.6628 53.0066C69.8796 53.0492 70.075 53.0027 70.2492 52.8673C70.5163 52.6621 70.793 52.635 71.0794 52.786C71.2923 52.8982 71.3832 53.0743 71.3523 53.3143C71.3058 53.6859 71.1162 53.9432 70.7833 54.0864C70.7064 54.1211 70.6377 54.1662 70.5801 54.22C70.224 54.5451 70.1563 54.8141 70.3769 55.027C70.5317 55.1779 70.6246 55.3617 70.6556 55.5785C70.7872 56.4338 70.5105 57.0473 69.8254 57.4189C69.7351 57.4681 69.6591 57.5398 69.6046 57.627C69.5501 57.7142 69.519 57.814 69.5144 57.9167C69.5097 58.0194 69.5316 58.1216 69.5779 58.2134C69.6243 58.3051 69.6935 58.3834 69.7789 58.4406L72.1128 60.0256C72.1731 60.0663 72.2218 60.1219 72.2543 60.187C72.2869 60.2521 72.3021 60.3245 72.2986 60.3971C72.2947 60.4861 72.2928 60.5752 72.2928 60.6642C72.285 60.8616 72.374 60.999 72.5598 61.0764C75.3059 62.1736 73.7442 64.7687 76.0606 66.104C76.3431 66.2666 76.5541 66.1988 76.6934 65.9008L76.9489 65.3493C77.0572 65.1132 77.005 64.9177 76.7921 64.7629C75.7742 64.0121 75.3388 63.0193 75.4858 61.7847C75.5118 61.5765 75.4534 61.3656 75.3233 61.1983C74.8317 60.5713 74.197 60.1417 73.4191 59.9095C73.2303 59.8529 73.0682 59.7302 72.9627 59.5639C72.8571 59.3975 72.8151 59.1986 72.8443 59.0038L73.0765 57.4769C73.0959 57.3337 73.0843 57.1944 73.0417 57.0589C72.9024 56.6061 73.2333 56.2345 74.0344 55.9442C74.1978 55.8902 74.3752 55.8974 74.5336 55.9645C74.692 56.0317 74.8205 56.1543 74.8952 56.3093C74.9699 56.4643 74.9855 56.6412 74.9393 56.8069C74.8931 56.9726 74.7881 57.1159 74.644 57.2099C74.2918 57.4266 74.1854 57.7091 74.3247 58.0575C74.3867 58.2084 74.4989 58.2858 74.6615 58.2897C75.3039 58.3129 75.7703 58.0749 76.0606 57.5756C76.1222 57.4662 76.2187 57.3812 76.3347 57.3342C76.4507 57.2872 76.5794 57.281 76.7001 57.3165C76.8207 57.352 76.9263 57.4273 76.9999 57.5301C77.0735 57.6329 77.1107 57.7573 77.1056 57.8833C77.0669 58.6961 76.6779 59.1354 75.9387 59.2012C75.8639 59.2062 75.7879 59.2258 75.7152 59.2588C75.6424 59.2919 75.5743 59.3378 75.5146 59.3939C75.455 59.45 75.405 59.5152 75.3676 59.5858C75.3302 59.6564 75.306 59.731 75.2965 59.8053C75.2869 59.8796 75.2922 59.9523 75.3121 60.019C75.3319 60.0858 75.3658 60.1454 75.412 60.1944C75.4582 60.2434 75.5156 60.2809 75.5811 60.3047C75.6465 60.3286 75.7187 60.3383 75.7935 60.3333C76.4515 60.31 76.9063 60.0062 77.1579 59.4218C77.1883 59.35 77.2359 59.2867 77.2965 59.2371C77.3572 59.1876 77.4291 59.1533 77.5062 59.1373C78.9344 58.8354 80.2987 57.2389 81.5991 58.3303C81.7965 58.4968 81.783 58.6438 81.5585 58.7716C80.0607 59.5998 78.7892 60.6777 77.7442 62.0053C77.6473 62.132 77.5976 62.2894 77.6038 62.4497C77.61 62.6099 77.6718 62.7627 77.7782 62.8809C77.8846 62.9991 78.0287 63.0751 78.1851 63.0955C78.3414 63.1159 78.4999 63.0793 78.6325 62.9922C78.7486 62.9148 78.8395 62.7465 78.9053 62.4871C78.9297 62.3961 78.9858 62.3169 79.0636 62.2636C79.1413 62.2104 79.2355 62.1867 79.3291 62.1969C80.3896 62.3091 81.4521 62.373 82.5164 62.3884C82.9576 62.3923 83.2769 62.4852 83.4743 62.6671C83.8111 62.9806 83.7975 63.3657 83.4337 63.8224C83.4018 63.8634 83.3785 63.9102 83.365 63.9603C83.3515 64.0104 83.3482 64.0627 83.3553 64.1141C83.3623 64.1655 83.3795 64.2149 83.406 64.2596C83.4324 64.3042 83.4675 64.3431 83.5092 64.374C84.1013 64.8229 84.7651 65.0281 85.5005 64.9893C85.7134 64.9777 85.8024 64.8674 85.7675 64.6584L85.576 63.4915C85.545 63.2864 85.5876 63.0967 85.7037 62.9226C85.9514 62.551 86.3191 62.3672 86.8067 62.371C86.9007 62.3712 86.9935 62.3927 87.0779 62.434C87.1624 62.4752 87.2364 62.5351 87.2944 62.6091C87.8982 63.3909 88.6568 63.9714 89.5702 64.3507C89.6084 64.3672 89.6424 64.3921 89.6698 64.4234C89.6971 64.4548 89.7171 64.4919 89.7282 64.532C89.7393 64.5721 89.7414 64.6141 89.7341 64.6551C89.7269 64.6961 89.7105 64.7349 89.6863 64.7687L87.8053 67.3754C87.7548 67.4464 87.7232 67.529 87.7136 67.6155C87.704 67.7021 87.7167 67.7896 87.7504 67.8699C87.7841 67.9501 87.8378 68.0204 87.9064 68.0741C87.9749 68.1278 88.056 68.1631 88.142 68.1766C88.4671 68.2269 88.7303 68.3585 88.9316 68.5714C89.0518 68.697 89.2059 68.7849 89.3753 68.8243C89.5446 68.8636 89.7218 68.8528 89.885 68.793C90.0483 68.7332 90.1906 68.6272 90.2945 68.4878C90.3984 68.3484 90.4594 68.1818 90.4701 68.0083C90.4933 67.6212 90.3578 67.3445 90.0637 67.1781C90.0233 67.1558 89.9897 67.1232 89.9663 67.0834C89.9429 67.0437 89.9306 66.9982 89.9306 66.9517C89.9306 66.9051 89.9429 66.8591 89.9663 66.8183C89.9897 66.7775 90.0233 66.7434 90.0637 66.7194L90.621 66.4001C90.772 66.3111 90.8397 66.1814 90.8242 66.0111C90.592 63.5205 86.5919 61.8601 88.4962 59.596C88.5561 59.5276 88.6352 59.4788 88.7232 59.4561C88.8112 59.4333 88.9041 59.4375 88.9896 59.4682C89.636 59.7121 90.143 59.7024 90.5107 59.4392" stroke="#F3C057" stroke-width="1.16112"/>
<path d="M72.0899 23.2471L67.666 23.3458C67.1822 23.1329 66.6365 23.1407 66.0288 23.369C65.7889 23.2374 65.456 23.2374 65.0303 23.369L62.7022 23.0497C62.4468 22.8639 62.321 22.8369 62.3249 22.9684C62.1042 22.7517 61.9107 22.6995 61.7443 22.8117C60.2755 23.8219 57.2276 23.4793 55.5265 23.2239C53.781 22.9607 52.0644 23.2065 50.377 23.9612L49.4887 23.8277L40.0604 21.7377C39.774 21.6719 39.7353 21.5364 39.9443 21.3313L41.0648 20.234C41.1964 20.1102 41.1944 19.9882 41.059 19.8683L38.2491 17.4183C38.1884 17.3647 38.1443 17.2949 38.122 17.2171C38.0998 17.1392 38.1003 17.0566 38.1235 16.9791C38.1467 16.9015 38.1916 16.8322 38.253 16.7794C38.3143 16.7266 38.3895 16.6924 38.4697 16.681C39.9211 16.4778 41.3144 16.0366 42.76 16.0656C49.0881 16.1875 56.3799 15.2528 61.5585 15.1193C66.4352 14.9916 69.6283 14.9664 71.1377 15.0438C72.9723 15.1425 73.3787 20.2863 73.309 21.8596C73.3054 21.9498 73.284 22.0384 73.2461 22.1201C73.2083 22.2018 73.1547 22.275 73.0884 22.3356L72.0899 23.2471Z" fill="#23A7DD"/>
<path d="M62.3251 22.9683C62.0039 23.5992 61.3556 23.9437 60.3802 24.0017C56.4247 24.2456 53.22 24.3443 50.7662 24.2978C50.6617 24.294 50.5765 24.2669 50.5107 24.2165C50.3869 24.1237 50.3424 24.0385 50.3772 23.9611C52.0647 23.2064 53.7812 22.9606 55.5268 23.2238C57.2278 23.4792 60.2757 23.8218 61.7445 22.8116C61.911 22.6994 62.1045 22.7516 62.3251 22.9683Z" fill="#010001" fill-opacity="0.016"/>
<path d="M62.3248 22.9686C62.321 22.837 62.4468 22.8641 62.7022 23.0498C62.5861 23.2279 62.6596 23.4137 62.9228 23.6072C63.0815 23.7272 63.2615 23.7813 63.4627 23.7697L65.0767 23.6594C65.2083 23.6517 65.2296 23.5975 65.1405 23.4969L65.0302 23.3691C65.456 23.2376 65.7888 23.2376 66.0288 23.3691C66.888 23.6401 67.4338 23.6323 67.666 23.3459L72.0898 23.2472L83.7823 23.2821C83.9681 23.2821 84.1345 23.3363 84.2816 23.4446C86.36 24.925 87.4456 29.8134 86.5864 32.1008L85.8897 31.9788C84.0842 31.3344 82.418 30.7132 80.4151 30.7597C75.0507 30.8758 70.1682 30.301 64.7458 31.886C62.5106 32.5362 60.3393 31.3518 58.1274 31.4796C56.9314 31.5531 55.7336 31.6634 54.5337 31.8105C53.3552 31.9498 52.2347 32.78 50.6788 32.3678C50.5008 32.3214 50.3266 32.331 50.1563 32.3968L47.7644 33.3374C45.4847 32.5284 43.236 32.1395 41.0183 32.1704C40.8403 32.1743 40.6893 32.1124 40.5655 31.9846C39.8688 31.2996 39.0425 31.1312 38.0865 31.4796C38.0206 31.5068 37.9469 31.5087 37.8796 31.4851C37.8123 31.4615 37.7561 31.4139 37.7216 31.3514C37.6872 31.289 37.6769 31.216 37.6928 31.1465C37.7087 31.077 37.7497 31.0157 37.8078 30.9745L40.1359 29.1864C40.18 29.1529 40.2123 29.1067 40.2284 29.0539C40.2445 29.0012 40.2435 28.9445 40.2257 28.8918C40.2079 28.839 40.1741 28.7926 40.1289 28.7591C40.0837 28.7256 40.0294 28.7065 39.9733 28.7045L38.9864 28.6871C38.8968 28.6851 38.8088 28.6614 38.73 28.6179C38.6512 28.5745 38.5838 28.5126 38.5335 28.4374C37.802 27.3382 36.7764 26.6493 35.4566 26.3706C35.3698 26.3536 35.2912 26.308 35.2334 26.241C35.1757 26.174 35.1421 26.0895 35.1381 26.0012C35.1341 25.9128 35.1599 25.8256 35.2113 25.7537C35.2627 25.6817 35.3368 25.6291 35.4217 25.6043C38.9554 24.5593 42.5374 24.2032 46.1679 24.5361C47.1432 24.6251 48.1031 24.5554 49.0474 24.3271C49.4384 24.2342 49.5854 24.0678 49.4887 23.8278L50.3769 23.9613C50.3421 24.0387 50.3866 24.1239 50.5105 24.2168C50.5763 24.2671 50.6614 24.2942 50.7659 24.298C53.2197 24.3445 56.4244 24.2458 60.38 24.002C61.3553 23.9439 62.0036 23.5994 62.3248 22.9686Z" fill="#1973B8"/>
<path d="M62.7025 23.0498L65.0305 23.3691L65.1408 23.4968C65.2299 23.5975 65.2086 23.6517 65.077 23.6594L63.463 23.7697C63.2618 23.7813 63.0818 23.7271 62.9231 23.6071C62.6599 23.4136 62.5864 23.2278 62.7025 23.0498Z" fill="#010001" fill-opacity="0.016"/>
<path d="M67.6657 23.3459C67.4335 23.6324 66.8878 23.6401 66.0286 23.3692C66.6362 23.1408 67.1819 23.1331 67.6657 23.3459Z" fill="#232061"/>
<path d="M85.8898 31.9787C84.7345 33.912 81.5995 33.8249 79.6372 33.4127C77.9652 33.0586 76.4151 33.4417 74.894 33.2095C73.3323 32.9715 70.8301 32.3154 69.3381 32.7334C66.0289 33.6507 62.5629 33.4998 59.2305 32.7451C58.5261 32.5864 56.947 32.8747 54.4932 33.6101C54.3074 33.6643 54.1506 33.7649 54.0229 33.912C53.2101 34.8254 52.1342 35.0131 50.795 34.4751C50.6286 34.4093 50.4834 34.3145 50.3596 34.1906C49.6358 33.4824 48.6798 33.2637 47.4916 33.5346C47.4491 33.3566 47.54 33.2908 47.7645 33.3372L50.1564 32.3967C50.3267 32.3309 50.5009 32.3212 50.6789 32.3677C52.2348 32.7799 53.3553 31.9497 54.5338 31.8103C55.7336 31.6633 56.9315 31.553 58.1275 31.4794C60.3394 31.3517 62.5107 32.536 64.7458 31.8858C70.1683 30.3009 75.0508 30.8756 80.4151 30.7595C82.4181 30.7131 84.0843 31.3343 85.8898 31.9787Z" fill="#232061"/>
<path d="M47.4914 33.5345C48.6796 33.2636 49.6356 33.4823 50.3594 34.1905C50.4832 34.3144 50.6284 34.4092 50.7948 34.475C52.134 35.013 53.2099 34.8253 54.0227 33.9119C54.1504 33.7648 54.3072 33.6642 54.493 33.61C56.9468 32.8746 58.5259 32.5863 59.2303 32.7449C62.5627 33.4997 66.0287 33.6506 69.3379 32.7333C70.8299 32.3153 73.3321 32.9714 74.8938 33.2094C76.4149 33.4416 77.965 33.0584 79.637 33.4126C81.5993 33.8248 84.7343 33.9119 85.8896 31.9786L86.5863 32.1005C89.5297 33.8538 92.2409 34.7827 91.8636 38.9163C91.8559 38.9766 91.8681 39.0378 91.8984 39.0905L92.8273 40.9947C92.9357 41.2076 92.9047 41.3972 92.7344 41.5636L92.2467 42.0513C92.1267 42.1713 92.09 42.3126 92.1364 42.4751L92.5138 43.8801C92.5333 43.9542 92.5334 44.0322 92.5141 44.1064C92.4948 44.1806 92.4567 44.2486 92.4035 44.3039C91.8578 44.8728 91.73 45.3431 92.0551 46.1152C93.3092 49.0935 90.1103 53.9005 87.5326 55.6828C84.2408 54.5798 80.7517 53.8599 77.7037 52.1705C76.3975 51.439 75.039 51.3286 73.605 50.9919C73.521 50.9723 73.4461 50.925 73.3924 50.8576C73.3387 50.7901 73.3092 50.7066 73.3089 50.6204V49.8889C73.3089 49.6682 73.2083 49.5134 73.007 49.4244C69.2682 47.7214 65.4133 46.3474 61.4423 45.3024C61.381 45.2861 61.3164 45.2868 61.2555 45.3045C61.1946 45.3222 61.1397 45.3562 61.0967 45.4028C61.0537 45.4494 61.0242 45.5068 61.0114 45.569C60.9987 45.6311 61.0031 45.6955 61.0243 45.7553C61.0823 45.9236 66.1796 47.6131 67.0331 48.1414C67.2924 48.3039 67.2943 48.4704 67.0389 48.6407L66.7718 48.8148C66.6898 48.8691 66.5946 48.8999 66.4964 48.904C66.3981 48.9081 66.3007 48.8853 66.2145 48.838C62.1815 46.6668 58.2531 45.3818 54.4291 44.9831C53.4925 44.8864 52.8364 44.6929 52.461 44.4026C52.403 44.36 52.3488 44.3639 52.2985 44.4142L52.1649 44.5477C52.1409 44.5719 52.122 44.6006 52.1092 44.6323C52.0965 44.6639 52.0902 44.6977 52.0907 44.7318C52.0913 44.7659 52.0986 44.7995 52.1124 44.8307C52.1261 44.8619 52.146 44.8901 52.1707 44.9135L53.4654 46.1384C52.8693 46.0069 51.8243 45.6759 50.3304 45.1457C49.8272 44.9638 49.4382 45.1244 49.1634 45.6276C49.0473 45.8404 48.8867 45.8791 48.6816 45.7437L46.3768 44.1762C46.3392 44.1493 46.2953 44.1322 46.2488 44.1261C46.2023 44.12 46.1546 44.1252 46.1097 44.1413C45.8233 44.2574 45.5311 44.4664 45.2331 44.7683C44.8305 44.6522 44.4377 44.3329 44.0545 43.8104C44.0255 43.7713 43.9884 43.739 43.9456 43.7157C43.9029 43.6923 43.8557 43.6785 43.8071 43.6752C43.7585 43.6719 43.7098 43.6792 43.6644 43.6965C43.6189 43.7138 43.5777 43.7408 43.5436 43.7756C42.7928 44.5535 42.1387 44.4877 41.5813 43.5782C41.548 43.5253 41.5027 43.4811 41.449 43.4492C41.3953 43.4173 41.3348 43.3986 41.2724 43.3947C41.2101 43.3907 41.1477 43.4016 41.0904 43.4264C41.0331 43.4513 40.9825 43.4893 40.9427 43.5375C40.3931 44.2187 39.7893 44.3136 39.1314 43.822C38.9301 43.6711 38.7037 43.5995 38.4521 43.6072C35.6113 43.6807 32.811 43.7253 30.0514 43.7407C28.9077 43.7465 27.9904 44.1355 26.87 44.3445L25.8192 42.4403C25.7959 42.3975 25.7622 42.3613 25.7213 42.3349C25.6803 42.3086 25.6334 42.2929 25.5849 42.2895C25.5363 42.286 25.4876 42.2948 25.4433 42.3151C25.3991 42.3353 25.3606 42.3664 25.3315 42.4055C24.8012 43.0944 24.0388 43.3382 23.0441 43.137C22.866 43.1021 22.7054 43.1389 22.5622 43.2473C22.0049 43.6846 21.5888 43.5375 21.314 42.806C21.2952 42.7567 21.2649 42.7124 21.2258 42.6769C21.1867 42.6415 21.1399 42.6158 21.0893 42.6022C21.0387 42.5886 20.9858 42.5873 20.935 42.5985C20.8842 42.6097 20.837 42.6331 20.7973 42.6667C19.9768 43.3518 19.0963 43.3808 18.1558 42.7538C18.1196 42.7291 18.0895 42.6965 18.0678 42.6586C18.046 42.6207 18.0332 42.5784 18.0304 42.5352C18.0276 42.4919 18.0348 42.4488 18.0516 42.4092C18.0683 42.3695 18.094 42.3345 18.1268 42.3068C19.1563 41.432 20.2826 40.7354 21.5056 40.2167C22.361 39.8529 22.3745 39.464 21.5462 39.0498C19.0769 37.8074 17.2056 38.2583 15.9322 40.4025C15.8123 40.6077 15.6574 40.6367 15.4678 40.4896L14.7073 39.9032C14.6637 39.8695 14.6133 39.8456 14.5596 39.8331C14.5059 39.8206 14.4502 39.8198 14.3962 39.8309C14.3422 39.8419 14.2912 39.8644 14.2467 39.897C14.2022 39.9295 14.1652 39.9712 14.1383 40.0194L13.0352 41.9468C12.9037 42.179 12.7604 42.1848 12.6056 41.9642C10.864 39.4446 7.96697 41.134 7.03227 38.0919C6.96647 37.8752 7.0013 37.6739 7.13677 37.4881L8.71008 35.2936C8.82218 35.1405 8.98568 35.035 9.16872 34.9975L19.5143 32.9481C19.579 32.9368 19.6408 32.9089 19.6943 32.8669C20.2555 32.4643 20.896 32.3405 21.6159 32.4953C21.6503 32.503 21.69 32.503 21.732 32.4953L24.3503 31.967C24.4017 31.9559 24.4544 31.9554 24.5054 31.9653C24.5563 31.9753 24.6043 31.9957 24.6464 32.0251C27.9092 34.1963 34.7307 33.5984 38.8469 33.1862C39.5784 33.1107 39.6887 32.954 40.1648 32.4547C40.3506 32.2612 40.4705 32.294 40.5247 32.5534C40.6563 33.1881 40.9892 33.4745 41.5233 33.4126C43.4449 33.2036 45.5349 33.4358 47.4914 33.5345Z" fill="#29368D"/>
<path d="M45.2329 44.7683C46.3824 46.1848 46.2334 47.4756 44.7859 48.6406C44.4066 48.9463 44.0273 48.8941 43.648 48.4838C43.6039 48.4369 43.5495 48.4008 43.4891 48.3784C43.4287 48.356 43.3639 48.3478 43.2998 48.3546C43.2357 48.3613 43.1741 48.3828 43.1197 48.4173C43.0653 48.4518 43.0196 48.4984 42.9862 48.5535L41.5174 51.0093C41.4676 51.092 41.4412 51.1865 41.4409 51.283C41.4405 51.3795 41.4663 51.4745 41.5155 51.558C41.5647 51.6416 41.6355 51.7107 41.7205 51.7581C41.8056 51.8056 41.9018 51.8296 41.9992 51.8278C42.9126 51.8008 43.3597 51.2918 43.3403 50.301C43.3366 50.2028 43.3676 50.1063 43.428 50.0279C43.4883 49.9495 43.5743 49.8942 43.6712 49.8714L44.3099 49.7262C44.3527 49.7161 44.3973 49.7151 44.4406 49.7234C44.4839 49.7317 44.5249 49.749 44.5611 49.7742C44.5973 49.7994 44.6277 49.8319 44.6504 49.8697C44.6732 49.9074 44.6877 49.9495 44.693 49.9933C44.8091 50.9299 44.693 51.8317 44.3447 52.6987C44.275 52.8651 44.2828 53.0296 44.3679 53.1922C44.7511 53.943 44.5634 54.4733 43.8048 54.7829C42.3418 55.3751 41.2155 56.1143 40.4259 57.0006C40.2866 57.1593 40.2169 57.3432 40.2169 57.5522V58.7423C40.2169 58.9281 40.1588 59.0945 40.0427 59.2416C39.6015 59.7834 39.3248 60.3969 39.2125 61.082C39.2027 61.1394 39.2125 61.1982 39.24 61.248C39.2676 61.2978 39.3113 61.3356 39.3635 61.3548L40.484 61.7844C40.5386 61.8064 40.5861 61.8431 40.6212 61.8904C40.6563 61.9377 40.6775 61.9936 40.6823 62.0518C40.6872 62.11 40.6755 62.1681 40.6486 62.2194C40.6218 62.2706 40.5808 62.3131 40.5304 62.3418C39.6673 62.8449 38.9068 63.4661 38.2488 64.2054C37.1748 65.4071 37.5231 66.8817 35.8105 67.8513C34.7887 68.4318 34.0281 69.024 34.3997 70.1909C29.0857 69.2543 23.7387 68.4841 18.3589 67.8803C14.8755 67.4855 14.1556 64.7337 14.5388 61.6857C14.8465 59.2474 16.9423 57.0935 18.533 55.2996C18.6577 55.156 18.7348 54.9796 18.7536 54.7945C19.4677 47.6304 20.0193 46.806 26.8699 44.3444C27.9903 44.1354 28.9076 43.7465 30.0513 43.7407C32.8109 43.7252 35.6111 43.6807 38.452 43.6071C38.7036 43.5994 38.93 43.671 39.1313 43.8219C39.7892 44.3135 40.393 44.2187 40.9426 43.5375C40.9823 43.4893 41.0329 43.4512 41.0903 43.4263C41.1476 43.4015 41.21 43.3906 41.2723 43.3946C41.3346 43.3986 41.3951 43.4173 41.4488 43.4492C41.5026 43.4811 41.5479 43.5253 41.5812 43.5781C42.1386 44.4876 42.7927 44.5534 43.5435 43.7755C43.5776 43.7407 43.6188 43.7137 43.6642 43.6964C43.7097 43.6791 43.7584 43.6718 43.807 43.6752C43.8555 43.6785 43.9028 43.6923 43.9455 43.7156C43.9882 43.7389 44.0254 43.7713 44.0544 43.8103C44.4376 44.3328 44.8304 44.6521 45.2329 44.7683Z" fill="#C58C31"/>
<path d="M48.0611 44.5614C48.3417 44.6714 48.647 44.5621 48.7429 44.3173C48.8388 44.0725 48.6891 43.7849 48.4085 43.675C48.1279 43.565 47.8226 43.6743 47.7267 43.9191C47.6308 44.1639 47.7805 44.4515 48.0611 44.5614Z" fill="#C58C31"/>
<path d="M53.4655 46.1386C53.7635 46.1502 54.0809 46.0883 54.4176 45.9528C54.3983 46.2741 54.466 46.4618 54.6208 46.516C56.1651 47.0307 58.1835 47.561 60.676 48.1067C61.005 48.1338 61.156 48.4047 61.1289 48.9195C61.1173 49.1323 61.2179 49.2214 61.4308 49.1865C62.468 49.0046 63.3176 49.2949 63.9794 50.0574C64.1304 50.2315 64.3219 50.3031 64.5542 50.2722C65.1502 50.187 65.7172 50.3186 66.2552 50.667C66.3355 50.7186 66.4296 50.7446 66.525 50.7415C66.6204 50.7384 66.7126 50.7063 66.7893 50.6495C67.486 50.1541 68.2175 50.0361 68.9838 50.2954C69.0836 50.3286 69.1725 50.3882 69.241 50.468C69.3095 50.5477 69.355 50.6446 69.3728 50.7482C69.4657 51.3094 69.2722 51.6442 68.7922 51.7526C68.6714 51.7822 68.5641 51.8519 68.4878 51.9502C68.4115 52.0485 68.3708 52.1698 68.3721 52.2942C68.3734 52.4187 68.4168 52.539 68.4952 52.6356C68.5736 52.7323 68.6824 52.7996 68.8039 52.8266L69.6631 53.0066C69.8798 53.0492 70.0753 53.0027 70.2495 52.8673C70.5165 52.6621 70.7932 52.635 71.0797 52.786C71.2925 52.8982 71.3835 53.0743 71.3525 53.3143C71.3061 53.6859 71.1164 53.9432 70.7836 54.0864C70.7067 54.1211 70.638 54.1662 70.5804 54.22C70.2243 54.5451 70.1566 54.8141 70.3772 55.027C70.532 55.1779 70.6249 55.3617 70.6558 55.5785C70.7874 56.4338 70.5107 57.0473 69.8256 57.4189C69.7354 57.4681 69.6593 57.5398 69.6048 57.627C69.5504 57.7142 69.5193 57.814 69.5146 57.9167C69.5099 58.0194 69.5318 58.1216 69.5782 58.2134C69.6245 58.3051 69.6938 58.3834 69.7792 58.4406L72.113 60.0256C72.1733 60.0663 72.222 60.1219 72.2546 60.187C72.2871 60.2521 72.3024 60.3245 72.2988 60.3971C72.295 60.4861 72.293 60.5752 72.293 60.6642C72.2853 60.8616 72.3743 60.999 72.5601 61.0764C75.3061 62.1736 73.7444 64.7687 76.0609 66.104C76.3434 66.2666 76.5543 66.1988 76.6937 65.9008L76.9491 65.3493C77.0575 65.1132 77.0052 64.9177 76.7924 64.7629C75.7744 64.0121 75.339 63.0193 75.4861 61.7847C75.5121 61.5765 75.4536 61.3656 75.3235 61.1983C74.832 60.5713 74.1973 60.1417 73.4193 59.9095C73.2305 59.8529 73.0685 59.7302 72.9629 59.5639C72.8573 59.3975 72.8153 59.1986 72.8445 59.0038L73.0768 57.4769C73.0961 57.3337 73.0845 57.1944 73.0419 57.0589C72.9026 56.6061 73.2335 56.2345 74.0347 55.9442C74.198 55.8902 74.3755 55.8974 74.5339 55.9645C74.6923 56.0317 74.8208 56.1543 74.8955 56.3093C74.9701 56.4643 74.9858 56.6412 74.9396 56.8069C74.8934 56.9726 74.7884 57.1159 74.6443 57.2099C74.2921 57.4266 74.1856 57.7091 74.325 58.0575C74.3869 58.2084 74.4991 58.2858 74.6617 58.2897C75.3042 58.3129 75.7706 58.0749 76.0609 57.5756C76.1224 57.4662 76.219 57.3812 76.335 57.3342C76.451 57.2872 76.5796 57.281 76.7003 57.3165C76.821 57.352 76.9266 57.4273 77.0002 57.5301C77.0737 57.6329 77.111 57.7573 77.1059 57.8833C77.0671 58.6961 76.6782 59.1354 75.9389 59.2012C75.8641 59.2062 75.7882 59.2258 75.7154 59.2588C75.6427 59.2919 75.5745 59.3378 75.5149 59.3939C75.4552 59.45 75.4053 59.5152 75.3678 59.5858C75.3304 59.6564 75.3063 59.731 75.2967 59.8053C75.2872 59.8796 75.2925 59.9523 75.3123 60.019C75.3321 60.0858 75.3661 60.1454 75.4122 60.1944C75.4584 60.2434 75.5159 60.2809 75.5813 60.3047C75.6468 60.3286 75.719 60.3383 75.7938 60.3333C76.4518 60.31 76.9065 60.0062 77.1581 59.4218C77.1885 59.35 77.2361 59.2867 77.2968 59.2371C77.3574 59.1876 77.4294 59.1533 77.5064 59.1373C78.9346 58.8354 80.2989 57.2389 81.5994 58.3303C81.7968 58.4968 81.7832 58.6438 81.5587 58.7716C80.0609 59.5998 78.7895 60.6777 77.7445 62.0053C77.6476 62.132 77.5979 62.2894 77.6041 62.4497C77.6103 62.6099 77.6721 62.7627 77.7785 62.8809C77.8848 62.9991 78.029 63.0751 78.1853 63.0955C78.3417 63.1159 78.5002 63.0793 78.6327 62.9922C78.7488 62.9148 78.8398 62.7465 78.9056 62.4871C78.93 62.3961 78.9861 62.3169 79.0638 62.2636C79.1415 62.2104 79.2357 62.1867 79.3294 62.1969C80.3899 62.3091 81.4523 62.373 82.5167 62.3884C82.9579 62.3923 83.2772 62.4852 83.4746 62.6671C83.8113 62.9806 83.7978 63.3657 83.4339 63.8224C83.4021 63.8634 83.3787 63.9102 83.3653 63.9603C83.3518 64.0104 83.3485 64.0627 83.3555 64.1141C83.3625 64.1655 83.3798 64.2149 83.4062 64.2596C83.4326 64.3042 83.4677 64.3431 83.5094 64.374C84.1016 64.8229 84.7654 65.028 85.5007 64.9893C85.7136 64.9777 85.8026 64.8674 85.7678 64.6584L85.5762 63.4915C85.5452 63.2864 85.5878 63.0967 85.7039 62.9226C85.9516 62.551 86.3193 62.3672 86.807 62.371C86.901 62.3712 86.9937 62.3927 87.0782 62.434C87.1627 62.4752 87.2367 62.5351 87.2947 62.6091C87.8984 63.3909 88.657 63.9714 89.5705 64.3507C89.6087 64.3672 89.6427 64.3921 89.67 64.4234C89.6973 64.4548 89.7173 64.4919 89.7285 64.532C89.7396 64.5721 89.7416 64.6141 89.7344 64.6551C89.7271 64.6961 89.7108 64.7349 89.6866 64.7687L87.8056 67.3754C87.755 67.4464 87.7235 67.529 87.7139 67.6155C87.7042 67.7021 87.7169 67.7896 87.7506 67.8699C87.7844 67.9501 87.8381 68.0204 87.9066 68.0741C87.9751 68.1278 88.0563 68.1631 88.1423 68.1766C88.4674 68.2269 88.7306 68.3585 88.9318 68.5714C89.052 68.697 89.2062 68.7849 89.3755 68.8243C89.5449 68.8636 89.722 68.8528 89.8853 68.793C90.0485 68.7332 90.1908 68.6272 90.2947 68.4878C90.3986 68.3484 90.4597 68.1818 90.4703 68.0083C90.4935 67.6212 90.3581 67.3445 90.0639 67.1781C90.0235 67.1558 89.9899 67.1232 89.9665 67.0834C89.9432 67.0437 89.9309 66.9982 89.9309 66.9517C89.9309 66.9051 89.9432 66.8591 89.9665 66.8183C89.9899 66.7775 90.0235 66.7434 90.0639 66.7194L90.6213 66.4001C90.7722 66.3111 90.8399 66.1814 90.8245 66.0111C90.5922 63.5205 86.5922 61.8601 88.4964 59.596C88.5564 59.5276 88.6355 59.4788 88.7235 59.4561C88.8115 59.4333 88.9043 59.4375 88.9899 59.4682C89.6362 59.7121 90.1433 59.7024 90.511 59.4392C91.5057 60.0159 91.7611 60.7493 91.2773 61.6395C91.1457 61.8872 91.2154 62.0459 91.4863 62.1156L92.2468 62.3188C92.3978 62.3575 92.5197 62.4368 92.6126 62.5568C93.7195 63.9927 93.7814 65.5022 92.7984 67.0852C92.7472 67.1693 92.714 67.2628 92.701 67.3597C92.688 67.4567 92.6955 67.555 92.7229 67.6483C94.2091 72.9488 89.315 73.7906 85.4891 73.7442C83.2714 73.7151 80.7518 72.7166 78.2437 72.4728C78.0614 72.4544 77.8781 72.5085 77.7329 72.6237C74.563 75.184 71.2306 73.9532 66.9867 72.8095C65.1347 72.3044 63.4975 72.972 61.872 72.4437C59.7065 71.7354 57.152 72.3218 55.271 72.4321C55.0676 72.4471 54.8653 72.394 54.6963 72.2812C53.5739 71.5458 52.3566 71.4142 51.0446 71.8864C50.8472 71.9561 50.6653 71.929 50.4988 71.8051L50.1331 71.5322C49.9628 71.4045 49.7731 71.3329 49.5641 71.3174L34.3999 70.1912C34.0284 69.0242 34.7889 68.4321 35.8107 67.8515C37.5233 66.882 37.175 65.4074 38.249 64.2056C38.907 63.4663 39.6675 62.8451 40.5306 62.342C40.581 62.3133 40.622 62.2709 40.6488 62.2196C40.6757 62.1683 40.6874 62.1102 40.6826 62.052C40.6777 61.9938 40.6565 61.9379 40.6214 61.8906C40.5863 61.8433 40.5388 61.8066 40.4842 61.7847L39.3637 61.355C39.3115 61.3359 39.2678 61.2981 39.2403 61.2482C39.2127 61.1984 39.203 61.1396 39.2128 61.0822C39.325 60.3971 39.6017 59.7837 40.043 59.2418C40.1591 59.0947 40.2171 58.9283 40.2171 58.7425V57.5524C40.2171 57.3434 40.2868 57.1595 40.4261 57.0009C41.2157 56.1145 42.342 55.3753 43.805 54.7831C44.5636 54.4735 44.7513 53.9432 44.3681 53.1924C44.283 53.0298 44.2752 52.8653 44.3449 52.6989C44.6932 51.8319 44.8094 50.9301 44.6932 49.9935C44.6879 49.9498 44.6734 49.9076 44.6506 49.8699C44.6279 49.8321 44.5975 49.7996 44.5613 49.7744C44.5252 49.7492 44.4841 49.7319 44.4408 49.7236C44.3975 49.7154 44.353 49.7163 44.3101 49.7264L43.6715 49.8716C43.5745 49.8944 43.4885 49.9498 43.4282 50.0281C43.3678 50.1065 43.3368 50.203 43.3405 50.3012C43.3599 51.292 42.9129 51.801 41.9994 51.8281C41.9021 51.8299 41.8058 51.8058 41.7208 51.7583C41.6357 51.7109 41.5649 51.6418 41.5157 51.5582C41.4665 51.4747 41.4408 51.3797 41.4411 51.2832C41.4414 51.1867 41.4678 51.0922 41.5176 51.0095L42.9864 48.5537C43.0198 48.4986 43.0655 48.452 43.1199 48.4175C43.1743 48.383 43.236 48.3615 43.3 48.3548C43.3641 48.348 43.4289 48.3562 43.4893 48.3786C43.5497 48.401 43.6041 48.4371 43.6482 48.4841C44.0275 48.8943 44.4068 48.9466 44.7861 48.6408C46.2337 47.4758 46.3827 46.185 45.2332 44.7685C45.5312 44.4666 45.8234 44.2576 46.1098 44.1415C46.1547 44.1254 46.2024 44.1202 46.2489 44.1262C46.2954 44.1323 46.3393 44.1495 46.3769 44.1763L48.6817 45.7438C48.8868 45.8793 49.0474 45.8406 49.1635 45.6277C49.4383 45.1245 49.8273 44.9639 50.3305 45.1458C51.8244 45.6761 52.8694 46.007 53.4655 46.1386Z" fill="#F0B845"/>
<path d="M87.5327 55.6831L89.0131 57.1983C89.1602 57.3454 89.3325 57.446 89.5298 57.5002C90.4394 57.7557 90.7664 58.402 90.511 59.4393C90.1433 59.7025 89.6363 59.7121 88.9899 59.4683C88.9044 59.4376 88.8115 59.4334 88.7235 59.4561C88.6355 59.4789 88.5564 59.5277 88.4964 59.596C86.5922 61.8602 90.5923 63.5206 90.8245 66.0112C90.84 66.1815 90.7722 66.3112 90.6213 66.4002L90.064 66.7195C90.0235 66.7435 89.9899 66.7776 89.9666 66.8184C89.9432 66.8592 89.9309 66.9052 89.9309 66.9517C89.9309 66.9983 89.9432 67.0438 89.9666 67.0835C89.9899 67.1233 90.0235 67.1559 90.064 67.1781C90.3581 67.3446 90.4936 67.6213 90.4703 68.0083C90.4597 68.1819 90.3987 68.3485 90.2948 68.4879C90.1908 68.6273 90.0485 68.7333 89.8853 68.7931C89.722 68.8528 89.5449 68.8637 89.3756 68.8243C89.2062 68.785 89.052 68.6971 88.9319 68.5715C88.7306 68.3586 88.4674 68.227 88.1423 68.1767C88.0563 68.1632 87.9752 68.1279 87.9066 68.0742C87.8381 68.0205 87.7844 67.9502 87.7507 67.87C87.7169 67.7897 87.7043 67.7021 87.7139 67.6156C87.7235 67.5291 87.7551 67.4464 87.8056 67.3755L89.6866 64.7688C89.7108 64.735 89.7271 64.6962 89.7344 64.6552C89.7416 64.6142 89.7396 64.5721 89.7285 64.5321C89.7173 64.492 89.6974 64.4549 89.67 64.4235C89.6427 64.3922 89.6087 64.3673 89.5705 64.3508C88.6571 63.9715 87.8985 63.391 87.2947 62.6091C87.2367 62.5352 87.1627 62.4753 87.0782 62.4341C86.9937 62.3928 86.901 62.3713 86.807 62.3711C86.3194 62.3672 85.9517 62.5511 85.704 62.9226C85.5879 63.0968 85.5453 63.2865 85.5762 63.4916L85.7678 64.6585C85.8027 64.8675 85.7136 64.9778 85.5008 64.9894C84.7654 65.0281 84.1016 64.823 83.5094 64.374C83.4678 64.3432 83.4327 64.3043 83.4062 64.2597C83.3798 64.215 83.3626 64.1656 83.3555 64.1142C83.3485 64.0628 83.3518 64.0105 83.3653 63.9604C83.3788 63.9103 83.4021 63.8634 83.434 63.8225C83.7978 63.3658 83.8113 62.9807 83.4746 62.6672C83.2772 62.4853 82.9579 62.3924 82.5167 62.3885C81.4523 62.373 80.3899 62.3092 79.3294 62.1969C79.2358 62.1868 79.1416 62.2105 79.0638 62.2637C78.9861 62.317 78.93 62.3962 78.9056 62.4872C78.8398 62.7465 78.7489 62.9149 78.6327 62.9923C78.5002 63.0794 78.3417 63.116 78.1853 63.0956C78.029 63.0752 77.8849 62.9992 77.7785 62.881C77.6721 62.7628 77.6103 62.61 77.6041 62.4497C77.5979 62.2895 77.6476 62.1321 77.7445 62.0054C78.7895 60.6778 80.0609 59.5999 81.5588 58.7716C81.7833 58.6439 81.7968 58.4968 81.5994 58.3304C80.299 57.239 78.9346 58.8355 77.5065 59.1374C77.4294 59.1534 77.3575 59.1877 77.2968 59.2372C77.2361 59.2868 77.1886 59.3501 77.1581 59.4219C76.9066 60.0063 76.4518 60.3101 75.7938 60.3333C75.719 60.3383 75.6468 60.3287 75.5814 60.3048C75.5159 60.281 75.4584 60.2435 75.4123 60.1945C75.3661 60.1455 75.3322 60.0859 75.3123 60.0191C75.2925 59.9523 75.2872 59.8797 75.2967 59.8054C75.3063 59.731 75.3304 59.6565 75.3679 59.5859C75.4053 59.5153 75.4553 59.4501 75.5149 59.394C75.5745 59.3379 75.6427 59.292 75.7154 59.2589C75.7882 59.2259 75.8641 59.2063 75.939 59.2013C76.6782 59.1355 77.0672 58.6962 77.1059 57.8834C77.111 57.7574 77.0737 57.633 77.0002 57.5302C76.9266 57.4273 76.821 57.3521 76.7003 57.3166C76.5797 57.2811 76.451 57.2873 76.335 57.3343C76.219 57.3813 76.1224 57.4663 76.0609 57.5757C75.7706 58.075 75.3042 58.313 74.6617 58.2898C74.4992 58.2859 74.3869 58.2085 74.325 58.0576C74.1857 57.7092 74.2921 57.4267 74.6443 57.2099C74.7884 57.1159 74.8934 56.9727 74.9396 56.807C74.9858 56.6412 74.9701 56.4644 74.8955 56.3094C74.8208 56.1543 74.6923 56.0318 74.5339 55.9646C74.3755 55.8975 74.1981 55.8902 74.0347 55.9443C73.2335 56.2346 72.9026 56.6062 73.042 57.059C73.0845 57.1945 73.0961 57.3338 73.0768 57.477L72.8446 59.0039C72.8153 59.1987 72.8574 59.3976 72.9629 59.564C73.0685 59.7303 73.2306 59.853 73.4193 59.9095C74.1973 60.1418 74.832 60.5714 75.3236 61.1984C75.4536 61.3657 75.5121 61.5766 75.4861 61.7847C75.339 63.0194 75.7745 64.0122 76.7924 64.763C77.0052 64.9178 77.0575 65.1133 76.9491 65.3494L76.6937 65.9009C76.5543 66.1989 76.3434 66.2667 76.0609 66.1041C73.7444 64.7688 75.3061 62.1737 72.5601 61.0765C72.3743 60.9991 72.2853 60.8617 72.293 60.6643C72.293 60.5752 72.295 60.4862 72.2989 60.3972C72.3024 60.3245 72.2871 60.2522 72.2546 60.1871C72.2221 60.122 72.1733 60.0664 72.1131 60.0257L69.7792 58.4407C69.6938 58.3835 69.6246 58.3052 69.5782 58.2134C69.5319 58.1217 69.51 58.0195 69.5146 57.9168C69.5193 57.814 69.5504 57.7143 69.6049 57.6271C69.6594 57.5399 69.7354 57.4682 69.8257 57.4189C70.5107 57.0474 70.7875 56.4339 70.6559 55.5786C70.6249 55.3618 70.532 55.178 70.3772 55.027C70.1566 54.8142 70.2243 54.5452 70.5804 54.2201C70.638 54.1663 70.7067 54.1211 70.7836 54.0865C71.1164 53.9433 71.3061 53.6859 71.3525 53.3144C71.3835 53.0744 71.2925 52.8983 71.0797 52.7861C70.7933 52.6351 70.5165 52.6622 70.2495 52.8674C70.0753 53.0028 69.8799 53.0493 69.6631 53.0067L68.8039 52.8267C68.6824 52.7997 68.5736 52.7324 68.4953 52.6357C68.4169 52.5391 68.3735 52.4187 68.3721 52.2943C68.3708 52.1699 68.4116 52.0486 68.4878 51.9503C68.5641 51.852 68.6714 51.7823 68.7923 51.7527C69.2722 51.6443 69.4657 51.3095 69.3728 50.7483C69.3551 50.6447 69.3095 50.5478 69.241 50.4681C69.1725 50.3883 69.0836 50.3287 68.9839 50.2955C68.2175 50.0362 67.486 50.1542 66.7893 50.6496C66.7126 50.7064 66.6204 50.7385 66.525 50.7416C66.4296 50.7447 66.3355 50.7187 66.2552 50.667C65.7172 50.3187 65.1502 50.1871 64.5542 50.2723C64.322 50.3032 64.1304 50.2316 63.9794 50.0575C63.3176 49.295 62.468 49.0047 61.4308 49.1866C61.2179 49.2214 61.1173 49.1324 61.1289 48.9196C61.156 48.4048 61.005 48.1339 60.6761 48.1068L60.8328 48.0661C60.9094 48.0455 60.976 47.998 61.0205 47.9324C61.065 47.8667 61.0844 47.7873 61.0753 47.7085C61.0661 47.6297 61.029 47.5569 60.9706 47.5031C60.9123 47.4494 60.8366 47.4185 60.7573 47.4159C58.8995 47.3927 57.2024 46.847 55.6658 45.7787C55.5377 45.6881 55.385 45.6413 55.2304 45.6452C54.7621 45.6568 54.4912 45.7594 54.4176 45.9529C54.0809 46.0884 53.7635 46.1503 53.4655 46.1387L52.1709 44.9137C52.1461 44.8903 52.1262 44.8622 52.1125 44.831C52.0988 44.7998 52.0914 44.7661 52.0909 44.732C52.0903 44.698 52.0966 44.6641 52.1093 44.6325C52.1221 44.6009 52.141 44.5721 52.1651 44.5479L52.2986 44.4144C52.3489 44.3641 52.4031 44.3602 52.4611 44.4028C52.8366 44.6931 53.4926 44.8866 54.4292 44.9834C58.2532 45.382 62.1816 46.667 66.2146 48.8383C66.3008 48.8855 66.3983 48.9083 66.4965 48.9042C66.5947 48.9001 66.6899 48.8693 66.7719 48.8151L67.039 48.6409C67.2944 48.4706 67.2925 48.3042 67.0332 48.1416C66.1798 47.6133 61.0824 45.9239 61.0244 45.7555C61.0032 45.6957 60.9988 45.6313 61.0116 45.5692C61.0243 45.5071 61.0538 45.4496 61.0968 45.403C61.1398 45.3564 61.1947 45.3224 61.2556 45.3048C61.3165 45.2871 61.3811 45.2864 61.4424 45.3027C65.4134 46.3477 69.2683 47.7217 73.0071 49.4246C73.2084 49.5137 73.309 49.6685 73.309 49.8891V50.6206C73.3094 50.7068 73.3388 50.7904 73.3925 50.8578C73.4463 50.9252 73.5212 50.9726 73.6051 50.9922C75.0391 51.3289 76.3976 51.4392 77.7039 52.1707C80.7518 53.8601 84.241 54.58 87.5327 55.6831Z" fill="#F5C868"/>
<path d="M60.676 48.1066C58.1834 47.5608 56.165 47.0306 54.6207 46.5158C54.4659 46.4617 54.3982 46.2739 54.4175 45.9527C54.4911 45.7592 54.762 45.6566 55.2303 45.645C55.3849 45.6411 55.5376 45.6879 55.6657 45.7785C57.2023 46.8468 58.8994 47.3925 60.7572 47.4157C60.8365 47.4183 60.9122 47.4492 60.9706 47.5029C61.0289 47.5567 61.066 47.6295 61.0752 47.7083C61.0843 47.7871 61.0649 47.8665 61.0204 47.9322C60.9759 47.9978 60.9093 48.0453 60.8327 48.0659L60.676 48.1066Z" fill="#29368D"/>
<path d="M60.4958 85.181C78.9995 85.181 93.9998 83.19 93.9998 80.7339C93.9998 78.2779 78.9995 76.2869 60.4958 76.2869C41.992 76.2869 26.9917 78.2779 26.9917 80.7339C26.9917 83.19 41.992 85.181 60.4958 85.181Z" fill="#363635" fill-opacity="0.302"/>
</svg>
