<svg width="100" height="100" viewBox="0 0 100 100" fill="none" xmlns="http://www.w3.org/2000/svg">
<rect width="100" height="100" fill="#6B35D3"/>
<path d="M74.4778 58.3876C74.4793 59.2465 74.3099 60.0972 73.9794 60.8913C73.6489 61.6853 73.1636 62.4072 72.5513 63.0155C71.939 63.6239 71.2117 64.1069 70.4109 64.437C69.6101 64.767 68.7515 64.9377 67.8841 64.9392L32.6782 65C31.8108 65.0015 30.9516 64.8338 30.1496 64.5065C29.3476 64.1792 28.6186 63.6988 28.0042 63.0925C27.3898 62.4863 26.902 61.7661 26.5686 60.9732C26.2353 60.1803 26.0629 59.3301 26.0614 58.4713L26 23.6124C25.9985 22.7535 26.1678 21.9028 26.4984 21.1087C26.8289 20.3146 27.3142 19.5928 27.9265 18.9845C28.5388 18.3761 29.2661 17.8931 30.0669 17.563C30.8677 17.233 31.7263 17.0623 32.5937 17.0608L67.7996 17C68.667 16.9985 69.5262 17.1662 70.3282 17.4935C71.1301 17.8208 71.8591 18.3012 72.4736 18.9075C73.088 19.5137 73.5758 20.2339 73.9092 21.0268C74.2425 21.8197 74.4148 22.6699 74.4164 23.5287L74.4778 58.3876Z" fill="white"/>
<path d="M49.4065 40.4258C53.1588 39.8212 55.7156 37.7559 57.0767 34.2299C57.1362 34.0755 57.2546 33.9506 57.4065 33.8821C57.5583 33.8136 57.7312 33.807 57.8879 33.8638L62.1258 35.3937C62.2877 35.452 62.3355 35.5612 62.2693 35.7215C60.7242 39.4442 58.2171 42.3472 54.748 44.4308C54.5236 44.5619 54.5273 44.6858 54.7591 44.8023C59.5875 47.2118 59.9572 53.069 58.4176 57.5876C58.3744 57.7111 58.2924 57.8179 58.1833 57.8925C58.0742 57.9671 57.9437 58.0057 57.8106 58.0028L52.6511 57.828C52.5855 57.8256 52.5214 57.808 52.4639 57.7766C52.4064 57.7452 52.3571 57.7009 52.32 57.6472C52.283 57.5935 52.2592 57.532 52.2506 57.4675C52.242 57.4031 52.2488 57.3375 52.2704 57.2761C54.1411 51.9489 53.4347 46.9277 47.0226 45.4634C46.8387 45.4234 46.7099 45.4907 46.6363 45.6656C44.9331 49.7598 42.7313 53.5626 40.0311 57.074C39.9891 57.1287 39.9361 57.174 39.8752 57.2073C39.8144 57.2405 39.7471 57.2608 39.6777 57.267C39.6082 57.2732 39.538 57.265 39.4716 57.2431C39.4051 57.2211 39.3439 57.1859 39.2917 57.1395L35.3572 53.6591C35.1917 53.5134 35.1733 53.3513 35.302 53.1728C41.7804 44.1576 45.7626 34.1388 47.2489 23.1166C47.2537 23.0799 47.2657 23.0445 47.2842 23.0125C47.3027 22.9805 47.3273 22.9525 47.3566 22.9301C47.3858 22.9077 47.4192 22.8914 47.4547 22.8822C47.4902 22.8729 47.5272 22.8709 47.5634 22.8762L53.1754 23.5755C53.3924 23.601 53.4825 23.7194 53.4458 23.9307C52.4966 29.4527 51.0619 34.8473 49.1416 40.1144C49.1274 40.1532 49.1237 40.195 49.131 40.2357C49.1383 40.2763 49.1563 40.3143 49.1831 40.3459C49.21 40.3775 49.2448 40.4015 49.284 40.4155C49.3232 40.4295 49.3654 40.4331 49.4065 40.4258Z" fill="#6B35D3"/>
<path d="M31.75 77.5091L34.8386 73.8713C34.8456 73.8632 34.8543 73.8566 34.8641 73.8521C34.8739 73.8477 34.8846 73.8453 34.8954 73.8454H37.8682C37.8823 73.8453 37.8962 73.8493 37.9082 73.8569C37.9202 73.8644 37.9297 73.8752 37.9357 73.8879C37.9417 73.9007 37.9438 73.9148 37.9419 73.9288C37.94 73.9427 37.9341 73.9558 37.9249 73.9665L34.275 78.1838C34.2636 78.1971 34.2574 78.214 34.2574 78.2314C34.2574 78.2488 34.2636 78.2657 34.275 78.279L38.222 82.8078C38.2312 82.8185 38.2371 82.8316 38.239 82.8455C38.2409 82.8594 38.2387 82.8736 38.2327 82.8863C38.2268 82.8991 38.2172 82.9099 38.2053 82.9174C38.1933 82.9249 38.1794 82.9289 38.1652 82.9289H35.0373C35.0264 82.9287 35.0156 82.926 35.0057 82.9212C34.9959 82.9163 34.9873 82.9093 34.9805 82.9008L31.75 78.9516C31.7403 78.9402 31.7273 78.932 31.7128 78.928C31.6983 78.9241 31.6829 78.9246 31.6687 78.9296C31.6544 78.9345 31.6421 78.9436 31.6332 78.9556C31.6243 78.9677 31.6193 78.9821 31.6189 78.997V82.8554C31.6189 82.8749 31.6111 82.8936 31.5972 82.9074C31.5833 82.9212 31.5644 82.9289 31.5447 82.9289H29.0764C29.0667 82.9289 29.057 82.927 29.048 82.9233C29.039 82.9196 29.0308 82.9142 29.0239 82.9074C29.017 82.9005 29.0116 82.8924 29.0078 82.8835C29.0041 82.8746 29.0022 82.865 29.0022 82.8554L29 70.0735C29 70.0639 29.0019 70.0543 29.0057 70.0454C29.0094 70.0365 29.0149 70.0284 29.0218 70.0215C29.0286 70.0147 29.0368 70.0093 29.0458 70.0056C29.0549 70.0019 29.0645 70 29.0743 70H31.5447C31.5544 70 31.5641 70.0019 31.5731 70.0056C31.5821 70.0093 31.5903 70.0147 31.5972 70.0215C31.6041 70.0284 31.6096 70.0365 31.6133 70.0454C31.617 70.0543 31.6189 70.0639 31.6189 70.0735V77.4615C31.6189 77.4766 31.6236 77.4913 31.6323 77.5037C31.641 77.5161 31.6533 77.5255 31.6676 77.5307C31.682 77.5359 31.6975 77.5366 31.7123 77.5327C31.727 77.5289 31.7402 77.5206 31.75 77.5091Z" fill="white"/>
<path d="M42.1586 74.7731C42.958 73.8244 43.9861 73.4928 45.2428 73.7783C45.2717 73.7848 45.2974 73.8014 45.3154 73.8251C45.3333 73.8488 45.3424 73.8782 45.3411 73.908L45.2449 76.1551C45.242 76.2258 45.2064 76.251 45.1379 76.2308C43.8361 75.8285 42.827 76.1861 42.1105 77.3035C42.0706 77.3657 42.0494 77.4392 42.0494 77.5155V82.8207C42.0494 82.8928 42.0129 82.9288 41.9401 82.9288L39.544 82.931C39.4668 82.931 39.4282 82.8921 39.4282 82.8142V73.9534C39.4282 73.8813 39.4646 73.8453 39.5374 73.8453H41.9511C42.0311 73.8453 42.0683 73.8849 42.0625 73.9642L42.01 74.7126C42.0088 74.7304 42.0133 74.7483 42.0229 74.7636C42.0325 74.7789 42.0466 74.7908 42.0632 74.7976C42.0798 74.8044 42.098 74.8057 42.1152 74.8012C42.1323 74.7968 42.1475 74.787 42.1586 74.7731Z" fill="white"/>
<path d="M55.107 78.3892C55.107 79.6379 54.606 80.8355 53.7143 81.7185C52.8225 82.6015 51.613 83.0975 50.3519 83.0975C49.0907 83.0975 47.8812 82.6015 46.9894 81.7185C46.0977 80.8355 45.5967 79.6379 45.5967 78.3892C45.5967 77.1405 46.0977 75.9429 46.9894 75.0599C47.8812 74.177 49.0907 73.6809 50.3519 73.6809C51.613 73.6809 52.8225 74.177 53.7143 75.0599C54.606 75.9429 55.107 77.1405 55.107 78.3892Z" fill="white"/>
<path d="M59.327 74.7319C61.0089 73.4126 62.7912 73.1574 64.3661 74.8227C64.42 74.879 64.476 74.8804 64.5343 74.8271C65.9395 73.5395 67.4678 73.3066 69.1191 74.1285C70.6655 74.8984 70.9189 76.3194 70.932 78.0539C70.9422 79.6413 70.9422 81.231 70.932 82.8227C70.9306 82.8934 70.8942 82.9287 70.8228 82.9287H68.4288C68.3575 82.9287 68.3218 82.8934 68.3218 82.8227C68.3174 81.1444 68.3029 79.469 68.2781 77.7965C68.241 75.3591 65.0301 75.6294 65.0367 77.6538C65.041 79.2975 65.0432 80.9837 65.0432 82.7124C65.0432 82.8566 64.9704 82.9287 64.8248 82.9287H62.5269C62.5156 82.9287 62.5043 82.9265 62.4938 82.9222C62.4833 82.918 62.4739 82.9117 62.4659 82.9039C62.458 82.896 62.4517 82.8867 62.4476 82.8765C62.4434 82.8662 62.4415 82.8553 62.4417 82.8444C62.4767 81.4991 62.7716 77.4159 62.0617 76.5962C61.2054 75.6035 59.2025 76.0793 59.2003 77.4981C59.1959 79.2643 59.1945 81.0313 59.1959 82.7989C59.1959 82.8328 59.1821 82.8652 59.1575 82.8892C59.133 82.9131 59.0996 82.9265 59.0649 82.9265L56.7386 82.9287C56.6658 82.9287 56.6294 82.8927 56.6294 82.8206V74.0139C56.6294 73.9 56.6869 73.843 56.802 73.843L59.067 73.8495C59.0903 73.8494 59.1133 73.8541 59.1346 73.8633C59.1559 73.8725 59.1751 73.8859 59.1909 73.9028C59.2067 73.9196 59.2188 73.9396 59.2264 73.9613C59.234 73.983 59.237 74.0061 59.2352 74.029L59.1959 74.6627C59.1946 74.6783 59.1979 74.6939 59.2054 74.7077C59.213 74.7214 59.2245 74.7327 59.2384 74.7401C59.2524 74.7474 59.2682 74.7506 59.2839 74.7491C59.2997 74.7477 59.3146 74.7417 59.327 74.7319Z" fill="white"/>
<path d="M48.1566 78.5254C48.2371 79.7579 49.2841 80.6941 50.4952 80.6166C51.7062 80.539 52.6227 79.477 52.5422 78.2446C52.4617 77.0121 51.4147 76.0758 50.2037 76.1533C48.9926 76.2309 48.0761 77.2929 48.1566 78.5254Z" fill="#6B35D3"/>
</svg>
