<svg width="100" height="100" viewBox="0 0 100 100" fill="none" xmlns="http://www.w3.org/2000/svg">
<rect width="100" height="100" fill="white"/>
<path d="M34.2394 14.6623C41.461 15.4145 47.1074 20.77 48.2145 27.8716C48.3212 28.5549 48.375 29.4515 48.3759 30.5615C48.384 35.5948 48.3827 40.6276 48.3718 45.6599C48.3718 45.7103 48.347 45.7356 48.2972 45.7356C43.4657 45.7482 38.6423 45.7531 33.827 45.7504C32.6377 45.7495 31.7346 45.7148 31.1177 45.6464C23.7443 44.8295 17.9038 39.0999 17.1834 31.6999C17.131 31.157 17.1047 30.2577 17.1047 29.0018C17.1047 24.1981 17.1056 19.3949 17.1074 14.5921C17.1074 14.5453 17.131 14.5219 17.178 14.5219C22.6517 14.5165 28.1218 14.5165 33.5882 14.5219C33.8419 14.5219 34.0536 14.6434 34.2394 14.6623ZM46.0044 30.4683C46.0044 26.9758 44.6106 23.6262 42.1294 21.1566C39.6483 18.687 36.2831 17.2996 32.7742 17.2996C29.2654 17.2996 25.9002 18.687 23.4191 21.1566C20.9379 23.6262 19.544 26.9758 19.544 30.4683C19.544 33.9609 20.9379 37.3104 23.4191 39.78C25.9002 42.2497 29.2654 43.6371 32.7742 43.6371C36.2831 43.6371 39.6483 42.2497 42.1294 39.78C44.6106 37.3104 46.0044 33.9609 46.0044 30.4683Z" fill="#E22020"/>
<path d="M82.4038 15.702C82.392 20.2141 82.3907 24.7265 82.3997 29.2394C82.4024 30.417 82.3667 31.3159 82.2925 31.9361C81.4351 39.0782 75.885 44.7025 68.7136 45.6194C68.0733 45.7013 67.1702 45.7427 66.0044 45.7436C61.1014 45.7472 56.1993 45.7477 51.2981 45.745C51.2794 45.745 51.2615 45.7376 51.2482 45.7244C51.235 45.7112 51.2276 45.6934 51.2276 45.6747C51.2249 40.4758 51.2253 35.267 51.2289 30.0483C51.2357 22.0204 57.4669 15.6008 65.3505 14.6447C66.0198 14.5637 66.9224 14.5227 68.0584 14.5218C72.8139 14.5173 77.57 14.5169 82.3264 14.5205C82.3735 14.5205 82.3997 14.5434 82.4051 14.5893C82.454 14.9701 82.4038 15.4333 82.4038 15.702Z" fill="#E22020"/>
<path d="M71.883 86.0548C71.8992 86.0548 71.9151 86.0548 71.9304 86.0548C71.9371 86.0543 71.9435 86.0564 71.9484 86.0607C71.9532 86.065 71.956 86.0712 71.9562 86.0778C71.9564 86.0844 71.9539 86.091 71.9493 86.096C71.9448 86.1011 71.9384 86.1043 71.9318 86.1048C71.4144 86.1381 70.9071 86.1561 70.4096 86.1588C69.3568 86.1656 68.2783 85.9576 67.2201 85.7888C58.7776 84.4425 52.2357 77.7082 51.3349 69.263C51.2679 68.6428 51.2336 67.7443 51.2318 66.5677C51.2182 60.4488 51.2187 54.3293 51.2331 48.2095C51.2331 48.1636 51.2566 48.1406 51.3037 48.1406C57.3788 48.1451 63.4463 48.146 69.5061 48.1433C70.7298 48.1424 71.6333 48.1685 72.2167 48.2216C81.5166 49.0629 88.745 56.5156 89.5386 65.69C89.5481 65.7939 89.6431 65.8952 89.6471 65.9681C89.6996 66.7955 89.7005 67.6228 89.6499 68.4501C89.6376 68.6581 89.5454 68.7958 89.521 69.0065C88.494 78.3523 81.2657 85.2608 71.8802 85.9968C71.8725 85.9968 71.8652 85.9998 71.8599 86.0053C71.8547 86.0107 71.852 86.0181 71.8523 86.0258C71.8527 86.0335 71.8561 86.0409 71.8619 86.0463C71.8676 86.0518 71.8752 86.0548 71.883 86.0548ZM80.2414 71.6991C81.1178 72.9144 81.2752 74.6199 80.8261 76.0054C79.1086 81.3177 71.1938 81.6189 66.8619 80.7195C62.7879 79.8729 59.5712 77.3382 60.0067 72.7753C60.1424 71.3611 60.3273 69.9436 60.5616 68.523C60.5633 68.5119 60.5627 68.5005 60.5597 68.4896C60.5567 68.4787 60.5514 68.4686 60.5442 68.46C60.537 68.4515 60.528 68.4445 60.5179 68.4398C60.5078 68.4351 60.4968 68.4326 60.4856 68.4326H57.0953C57.0501 68.4326 57.0247 68.4551 57.0193 68.5001C56.8565 69.9072 56.6914 71.3129 56.5241 72.7173C55.8946 78.0012 59.9131 81.9403 64.6831 83.2636C67.8048 84.1306 71.073 84.1805 74.2883 83.689C79.6092 82.8747 85.1851 79.6852 84.656 73.5531C84.2096 68.3907 79.426 66.7352 75.101 65.8804C72.9891 65.4627 70.8763 65.0517 68.7626 64.6475C66.052 64.1276 61.902 63.0608 61.2779 59.8253C61.1088 58.9467 61.2001 58.0645 61.5519 57.1786C62.6793 54.3456 66.09 53.2707 68.8657 53.0154C72.9574 52.64 79.2754 53.611 80.0148 58.6586C80.0826 59.124 80.065 59.7812 79.9619 60.6302C79.8407 61.6303 79.7195 62.6233 79.5983 63.6091C79.5911 63.6622 79.6146 63.6887 79.6689 63.6887L82.99 63.6739C83.0152 63.674 83.0396 63.6647 83.0584 63.6477C83.0772 63.6307 83.089 63.6073 83.0917 63.582C83.1849 62.6674 83.2984 61.7505 83.4323 60.8314C84.1757 55.7513 80.4842 52.1201 75.8186 51.0115C72.531 50.2301 69.2203 50.1968 65.8865 50.9116C61.5017 51.8501 57.0112 54.8452 57.7424 59.9604C58.4275 64.7488 63.2383 66.3395 67.3123 67.1713C69.2849 67.5737 71.2571 67.9752 73.2288 68.3758C75.4442 68.8255 78.7775 69.6708 80.2414 71.6991Z" fill="#2343E1"/>
<path d="M30.6294 86.0547H30.7054C30.7124 86.0547 30.7193 86.0575 30.7246 86.0624C30.7298 86.0674 30.7329 86.0741 30.7333 86.081C30.7336 86.088 30.7312 86.0947 30.7265 86.0997C30.7217 86.1046 30.7151 86.1074 30.7081 86.1074C29.7422 86.1627 28.6555 86.2546 27.7316 86.052C27.5127 86.0043 27.3015 85.9696 27.098 85.948C18.4954 85.0082 11.8518 78.8276 10.2781 70.3932C9.90815 68.4135 9.88508 66.4312 10.2089 64.4462C11.6157 55.8241 18.3543 49.2289 27.0912 48.2553C27.737 48.1833 28.6396 48.1468 29.7991 48.1459C35.9702 48.1423 42.1521 48.1419 48.3448 48.1446C48.361 48.1446 48.3765 48.151 48.3879 48.1624C48.3994 48.1738 48.4058 48.1892 48.4058 48.2053C48.4158 54.5439 48.4149 60.8893 48.4031 67.2414C48.3841 77.2665 40.5887 85.258 30.6674 85.9939C30.6511 85.9948 30.6389 85.9993 30.6308 86.0075C30.6226 86.0165 30.6172 86.0264 30.6145 86.0372C30.6127 86.0489 30.6177 86.0547 30.6294 86.0547ZM18.2458 64.0573C20.6145 66.1665 24.401 66.9619 27.4602 67.5399C29.2628 67.8792 31.0559 68.26 32.8394 68.6823C34.6302 69.1063 36.8647 69.8382 38.1155 71.121C39.6377 72.6847 39.7666 74.9844 38.8142 76.8695C36.5323 81.3878 29.2768 81.5715 25.12 80.7046C20.9388 79.8336 18.1101 77.3341 18.3285 72.8225C18.3566 72.2337 18.5555 70.7942 18.9255 68.504C18.9327 68.4563 18.9123 68.4324 18.8644 68.4324H15.4456C15.3995 68.4324 15.3742 68.455 15.3696 68.5C15.2014 69.9548 15.0309 71.4104 14.8582 72.867C14.7885 73.4477 14.7799 73.9599 14.8324 74.4038C15.7671 82.4479 24.2029 84.4559 30.9496 83.9022C36.2528 83.4674 42.56 80.9949 43.0063 74.848C43.4309 68.9996 38.551 66.9632 33.8176 65.9451C32.3831 65.6363 30.2514 65.219 27.4223 64.6933C24.5407 64.1572 20.1315 63.1525 19.6024 59.6105C19.0788 56.1023 22.3117 53.9579 25.2665 53.3165C30.103 52.2645 39.2049 53.203 38.338 60.4194C38.2105 61.479 38.0802 62.5435 37.9473 63.613C37.9428 63.6508 37.9595 63.6697 37.9975 63.6697L41.3566 63.6886C41.3718 63.6887 41.3866 63.6831 41.3981 63.6729C41.4096 63.6627 41.417 63.6486 41.419 63.6332C41.5619 62.5899 41.6935 61.5514 41.8138 60.518C41.9033 59.7464 41.9155 59.1086 41.8504 58.6045C41.1884 53.5204 36.4075 51.0965 31.7948 50.5698C27.0058 50.0229 20.3391 50.7224 17.2703 54.9869C15.2828 57.7484 15.6722 61.767 18.2458 64.0573Z" fill="#2343E1"/>
</svg>
