<svg width="100" height="100" viewBox="0 0 100 100" fill="none" xmlns="http://www.w3.org/2000/svg">
<rect width="100" height="100" fill="#0061A7"/>
<path d="M78.25 79.76L78.35 69.4L78.45 37.19C78.4567 36.8367 78.3034 36.57 77.99 36.39L50.71 20.68C50.4367 20.5267 50.1667 20.53 49.9 20.69L22.53 36.47C22.3993 36.5456 22.2907 36.6546 22.2153 36.7863C22.1398 36.9179 22.1 37.0675 22.1 37.22L22.12 69.39L22.35 79.86L13.45 74.65C13.3194 74.5743 13.2109 74.4643 13.1354 74.3309C13.06 74.1976 13.0202 74.0455 13.02 73.89L13 31.8C13 31.5333 13.1133 31.3367 13.34 31.21L49.81 10.14C50.1367 9.95333 50.46 9.95333 50.78 10.14L86.99 31.03C87.4834 31.31 87.7267 31.7333 87.72 32.3L87.45 74.02C87.45 74.36 87.3033 74.6133 87.01 74.78L78.25 79.76Z" fill="white"/>
<path d="M69.1097 64.1598L69.1897 74.4098L69.3397 84.4798C69.3427 84.6311 69.3043 84.7807 69.2286 84.9127C69.1529 85.0447 69.0427 85.1543 68.9097 85.2298L59.4597 90.5398L59.5797 80.0198L59.5597 68.7998L59.6097 58.4198L59.6798 47.8898C59.6864 47.5831 59.5531 47.3531 59.2797 47.1998L50.7897 42.3798C50.4631 42.1931 50.1364 42.1931 49.8097 42.3798L41.4597 47.1198C41.1664 47.2865 41.0197 47.5365 41.0197 47.8698L41.0297 58.4898L40.9697 68.9498L41.0897 80.0098L40.8597 90.5698L32.2697 85.6598C32.0003 85.5055 31.7773 85.2821 31.6242 85.0129C31.4712 84.7437 31.3936 84.4386 31.3998 84.1298L31.5597 74.3798L31.5997 63.9798L31.6297 42.7398C31.6297 42.3998 31.7797 42.1431 32.0797 41.9698L49.8497 31.6798C50.1431 31.5065 50.4397 31.5065 50.7397 31.6798L68.1197 41.7198C68.4295 41.8988 68.6869 42.1565 68.8659 42.4671C69.0449 42.7778 69.1394 43.1305 69.1397 43.4898L69.1097 64.1598Z" fill="white"/>
<path d="M59.6097 58.4201L59.5597 68.8001L51.2197 64.0901C50.9484 63.9378 50.6425 63.8586 50.3321 63.8603C50.0217 63.8621 49.7176 63.9447 49.4497 64.1002L40.9697 68.9501L41.0297 58.4902L49.8697 53.3001C50.1764 53.1201 50.4831 53.1168 50.7897 53.2901L59.6097 58.4201Z" fill="#AE8E6B"/>
<path d="M31.5996 63.98L31.5596 74.38L22.3496 79.86L22.1196 69.39L31.5996 63.98Z" fill="#AE8E6B"/>
<path d="M69.1099 64.1602L78.3499 69.4001L78.2498 79.7601L69.1898 74.4102L69.1099 64.1602Z" fill="#AE8E6B"/>
<path d="M59.5799 80.0199L59.4599 90.5399L50.7699 85.5599C50.4632 85.3799 50.1532 85.3799 49.8398 85.5599L40.8599 90.5699L41.0898 80.0099L49.3999 75.1299C49.6877 74.9601 50.0157 74.8706 50.3499 74.8706C50.684 74.8706 51.0121 74.9601 51.2999 75.1299L59.5799 80.0199Z" fill="#AE8E6B"/>
</svg>
