<svg width="100" height="100" viewBox="0 0 100 100" fill="none" xmlns="http://www.w3.org/2000/svg">
<rect width="100" height="100" fill="#FFAF00"/>
<path d="M57.9883 50.1187L65.5549 57.9769C65.6675 58.0946 65.7404 58.0729 65.7737 57.9117C65.8811 57.3566 65.8606 56.877 65.7123 56.4728" stroke="#805800" stroke-width="0.767411"/>
<path d="M69.2615 34.2102L65.6201 36.4012" stroke="#805800" stroke-width="0.767411"/>
<path d="M8.76267 32H30.2156C32.6304 32.4886 34.2586 33.5847 35.1002 35.2884C35.8088 36.726 36.0134 38.3081 35.7141 40.0348C33.9875 35.658 30.4279 33.3813 25.0356 33.2048C23.1555 33.1434 21.2996 33.1281 19.468 33.1588C19.4199 33.1598 19.374 33.18 19.3403 33.2152C19.3065 33.2503 19.2877 33.2976 19.2877 33.3468V49.2706C19.2877 49.4292 19.367 49.511 19.5256 49.5161C25.2927 49.7425 33.8839 49.7617 35.6988 42.4406L35.7602 49.4432L34.9582 49.6888C34.9145 49.7028 34.8764 49.7304 34.8495 49.7676C34.8226 49.8048 34.8083 49.8496 34.8087 49.8955C34.8092 49.9414 34.8243 49.986 34.8519 50.0227C34.8795 50.0593 34.9181 50.0862 34.9621 50.0994C35.356 50.2068 35.6259 50.1557 35.7717 49.9459L35.7525 53.7446C32.1111 49.8998 24.1915 50.4754 19.468 50.5291C19.4202 50.5291 19.3743 50.5481 19.3405 50.5819C19.3067 50.6158 19.2877 50.6616 19.2877 50.7095V67.6808C19.2877 67.8035 19.3491 67.8662 19.4719 67.8688C25.7033 67.9609 30.6761 68.4558 35.6028 64.9219C36.5544 64.1571 37.2835 63.304 37.79 62.3626C38.9897 60.2778 38.9897 58.17 37.79 56.0391L37.7209 50.8476C45.5638 53.8904 47.1255 62.7348 39.3248 67.063C37.639 67.9225 35.7077 68.5351 33.5308 68.9009L8.89697 68.924C8.88093 68.9232 8.86565 68.9169 8.85377 68.9061C8.8419 68.8952 8.83416 68.8806 8.83188 68.8647C8.82961 68.8488 8.83295 68.8326 8.84133 68.8189C8.84971 68.8052 8.8626 68.7949 8.87778 68.7897C13.6741 67.3009 13.4746 64.1046 13.5129 59.3237C13.5692 52.5142 13.5551 45.7047 13.4707 38.8952C13.4528 37.4115 13.2635 36.3013 12.9029 35.5646C12.028 33.7868 10.3985 32.6344 8.01444 32.1074C7.99398 32.1023 7.99526 32.101 8.01828 32.1036C8.32269 32.1241 8.57082 32.0895 8.76267 32Z" fill="black"/>
<path d="M30.2161 32H40.4879L57.9886 50.1186L65.5553 57.9768C65.6679 58.0945 65.7408 58.0728 65.774 57.9116C65.8815 57.3565 65.861 56.8769 65.7126 56.4727L65.7011 44.7429C66.0541 43.1773 66.7218 41.6451 67.7041 40.1461L67.7233 61.0311L67.7386 66.1114L67.8153 68.5671C67.8171 68.5998 67.8088 68.632 67.7915 68.6596C67.7742 68.6872 67.7487 68.7089 67.7184 68.7218C67.688 68.7346 67.6543 68.7381 67.6216 68.7317C67.5889 68.7254 67.5588 68.7094 67.5352 68.6861L41.5546 42.8397L37.9439 39.2137C37.8109 39.0806 37.7444 39.1075 37.7444 39.2942L37.7328 48.2921L37.7213 50.8476L37.7904 56.0391V62.3626C37.2839 63.304 36.5549 64.1571 35.6033 64.9219L35.7529 53.7446L35.7721 49.9459L35.7606 49.4432L35.6992 42.4406L35.7146 40.0348C36.0138 38.3081 35.8092 36.726 35.1006 35.2884C34.259 33.5847 32.6308 32.4886 30.2161 32Z" fill="white"/>
<path d="M60.9468 32H72.4465L73.0988 32.1074C73.1985 32.1228 73.2279 32.1778 73.187 32.2724C73.1563 32.3492 73.0949 32.3863 73.0028 32.3837C71.4578 32.3632 70.2107 32.9721 69.2617 34.2101L65.6203 36.4011C64.7122 33.8661 62.9472 32.4809 60.3252 32.2456C60.31 32.2424 60.2963 32.2342 60.2864 32.2223C60.2764 32.2104 60.2707 32.1955 60.2703 32.1799C60.2698 32.1644 60.2746 32.1492 60.2839 32.1367C60.2932 32.1243 60.3064 32.1153 60.3214 32.1113L60.9468 32Z" fill="white"/>
<path d="M78.5395 32H79.3453C82.9176 32.6101 85.4654 32.8173 89.2526 34.6207C89.3061 34.6464 89.3664 34.6547 89.4249 34.6444C89.4834 34.6341 89.5372 34.6057 89.5787 34.5632L91.7735 32.3684C91.9245 32.2174 91.9999 32.2494 91.9999 32.4643V43.703C91.9986 43.7284 91.9886 43.7527 91.9716 43.7716C91.9546 43.7906 91.9316 43.8031 91.9064 43.8072C91.8813 43.8112 91.8555 43.8065 91.8334 43.7938C91.8113 43.7812 91.7943 43.7613 91.785 43.7375C89.8281 37.8515 84.7057 32.7712 78.0791 33.2048C73.7778 33.4888 69.7604 36.4203 67.7037 40.1461C66.7214 41.6451 66.0538 43.1773 65.7008 44.7429C64.542 48.6618 64.5458 52.5717 65.7123 56.4727C65.8606 56.8769 65.8811 57.3565 65.7737 57.9116C65.7404 58.0728 65.6675 58.0945 65.5549 57.9768L57.9883 50.1186C58.4513 44.3604 60.9953 39.7879 65.6202 36.4011L69.2615 34.2101C72.2135 33.0181 75.3062 32.2814 78.5395 32Z" fill="black"/>
<path d="M41.5536 42.8399C40.8451 45.183 39.5712 47.0005 37.7319 48.2923L37.7434 39.2944C37.7434 39.1077 37.81 39.0808 37.943 39.2139L41.5536 42.8399Z" fill="black"/>
<path d="M67.738 66.1114L67.7227 61.0311C74.449 72.1778 88.1012 68.8127 91.7887 57.29C91.7955 57.2642 91.8117 57.2419 91.8341 57.2274C91.8565 57.2129 91.8835 57.2073 91.9098 57.2116C91.9362 57.2159 91.9599 57.2299 91.9765 57.2507C91.9931 57.2716 92.0014 57.2979 91.9997 57.3245V68.5671C91.9993 68.5971 91.99 68.6264 91.9731 68.6512C91.9563 68.6761 91.9324 68.6954 91.9047 68.7069C91.8769 68.7183 91.8464 68.7213 91.8169 68.7156C91.7874 68.7098 91.7602 68.6956 91.7388 68.6745L89.6859 66.5527C89.576 66.4401 89.4493 66.4171 89.3061 66.4836C82.0438 69.7962 74.8545 69.6722 67.738 66.1114Z" fill="black"/>
<path d="M39.325 67.063C40.3072 68.0632 41.4264 68.64 42.6824 68.7935C42.7207 68.7986 42.745 68.8127 42.7553 68.8357C42.763 68.8485 42.7668 68.8626 42.7668 68.8779C42.7693 68.9086 42.754 68.924 42.7207 68.924L33.531 68.9009C35.7079 68.5351 37.6392 67.9225 39.325 67.063Z" fill="white"/>
</svg>
