<svg width="100" height="100" viewBox="0 0 100 100" fill="none" xmlns="http://www.w3.org/2000/svg">
<rect width="100" height="100" fill="white"/>
<path d="M33.3511 57.6404C31.1884 50.7149 34.8193 43.8422 41.3772 41.1148C41.3938 41.1079 41.4123 41.1073 41.4294 41.1131C41.4464 41.1188 41.4608 41.1306 41.4698 41.1461C41.4789 41.1616 41.4821 41.1798 41.4787 41.1975C41.4754 41.2151 41.4658 41.231 41.4517 41.2421C32.7864 48.0932 35.9728 60.8508 46.3563 63.5494C51.4651 64.8759 56.6869 63.3692 60.3251 59.5508C60.8457 59.0045 61.2823 58.3597 61.6347 57.6164C65.554 49.3716 64.2492 39.6609 58.0542 32.9229C53.0607 27.492 46.6775 24.9769 38.9045 25.3774C38.8244 25.3822 38.8052 25.3493 38.8468 25.2788C45.7483 13.6314 60.6879 10.0917 72.0014 17.6108C82.3055 24.4594 85.2324 38.7166 78.0113 48.9102C74.056 54.4932 68.5546 57.7613 61.5074 58.7145C61.243 58.7498 61.0572 58.8579 60.9498 59.0389C54.0844 70.4629 39.0174 73.981 27.8938 66.409C17.6593 59.4403 14.8141 45.4522 21.9656 35.1961C25.6614 29.895 30.8375 26.6798 37.4939 25.5504C37.5516 25.5408 37.5956 25.548 37.6261 25.572C37.6645 25.604 37.6597 25.6249 37.6117 25.6345C27.9395 27.504 20.9755 37.157 23.7174 47.0286C23.7207 47.0427 23.7288 47.0552 23.7404 47.064C23.7519 47.0728 23.7661 47.0773 23.7806 47.0767C23.7951 47.0761 23.8089 47.0705 23.8198 47.0609C23.8306 47.0513 23.8377 47.0381 23.8399 47.0238C24.9741 40.973 28.0829 36.4946 33.1661 33.5885C42.0741 28.4941 53.1833 31.5267 58.6742 40.1151C58.6775 40.1236 58.6779 40.133 58.6752 40.1418C58.6726 40.1505 58.6671 40.1581 58.6596 40.1634C58.6522 40.1686 58.6431 40.1712 58.634 40.1708C58.6249 40.1703 58.6162 40.1668 58.6093 40.1608C56.3697 37.2419 53.4772 35.3451 49.932 34.4704C36.2491 31.0966 25.9498 45.7911 33.2478 57.686C33.2555 57.6969 33.2667 57.7047 33.2795 57.7082C33.2923 57.7117 33.3059 57.7107 33.318 57.7053C33.3302 57.6999 33.3401 57.6906 33.3461 57.6787C33.3521 57.6669 33.3539 57.6534 33.3511 57.6404Z" fill="#059FE7"/>
<path d="M68.6115 81.8687C67.237 80.5962 62.657 82.0996 62.4172 79.338C62.2632 77.5673 63.0519 76.5298 64.7832 76.2256C66.9954 75.8372 70.2993 76.1254 70.174 79.125C70.1716 79.187 70.1394 79.2181 70.0773 79.2181H68.7314C68.6598 79.2181 68.6264 79.1829 68.6312 79.1125C68.7493 77.1455 66.1989 77.3549 64.9676 77.6091C63.781 77.8543 63.3425 79.5563 64.8011 79.78C66.1667 79.9877 67.518 79.9787 68.8531 80.3832C69.7552 80.6564 70.273 81.1969 70.4066 82.0047C70.9937 85.5395 66.4656 85.7041 64.291 85.0401C63.0024 84.6464 62.3605 83.7378 62.3653 82.3143C62.3653 82.2487 62.3981 82.2159 62.4637 82.2159H63.849C63.9301 82.2159 63.9695 82.2565 63.9671 82.3376C63.9361 83.1442 64.3024 83.6328 65.066 83.8034C65.8714 83.9842 67.8706 84.1005 68.5453 83.4562C69.0053 83.0177 69.0428 82.2678 68.6115 81.8687Z" fill="#1F1917"/>
<path d="M43.7591 77.745L43.7072 85.0383C43.706 85.0956 43.6767 85.1242 43.6195 85.1242H42.2861C42.193 85.1242 42.1465 85.0777 42.1465 84.9846V76.3544C42.1465 76.2959 42.1763 76.2667 42.236 76.2667C43.8969 76.2583 45.5518 76.2542 47.2008 76.2542C48.3569 76.2542 49.6474 76.868 49.923 78.0761C50.1903 79.2466 49.8586 80.1528 48.9279 80.7948C48.873 80.8318 48.8736 80.8682 48.9297 80.9039C50.1628 81.695 49.914 83.4526 49.8389 85.0329C49.8353 85.0938 49.8037 85.1242 49.744 85.1242H48.3659C48.3027 85.1242 48.271 85.092 48.271 85.0275C48.2806 84.2544 48.2842 83.4818 48.2818 82.7098C48.2782 81.0489 46.0947 81.5053 45.0387 81.491C44.9671 81.4898 44.9319 81.4534 44.9331 81.3818L44.9528 80.2435C44.954 80.1886 44.9821 80.1612 45.0369 80.1612C46.0768 80.1505 48.0473 80.5227 48.3713 79.1804C48.5896 78.2748 48.0527 77.7074 47.156 77.6466C46.0583 77.5738 44.9612 77.5696 43.8647 77.6341C43.7943 77.6388 43.7591 77.6758 43.7591 77.745Z" fill="#1F1917"/>
<path d="M75.1049 77.6072H71.9137C71.8985 77.6072 71.884 77.6012 71.8732 77.5904C71.8625 77.5797 71.8564 77.5651 71.8564 77.5499V76.3222C71.8564 76.307 71.8625 76.2924 71.8732 76.2817C71.884 76.2709 71.8985 76.2649 71.9137 76.2649H79.9426C79.9578 76.2649 79.9723 76.2709 79.9831 76.2817C79.9938 76.2924 79.9998 76.307 79.9998 76.3222V77.5625C79.9998 77.5777 79.9938 77.5922 79.9831 77.603C79.9723 77.6137 79.9578 77.6197 79.9426 77.6197L76.7532 77.6001C76.738 77.6001 76.7235 77.6061 76.7127 77.6168C76.702 77.6276 76.696 77.6421 76.696 77.6573L76.7228 85.0669C76.7228 85.0821 76.7168 85.0967 76.706 85.1074C76.6953 85.1182 76.6807 85.1242 76.6655 85.1242H75.189C75.1738 85.1242 75.1592 85.1182 75.1485 85.1074C75.1377 85.0967 75.1317 85.0821 75.1317 85.0669L75.1621 77.6645C75.1621 77.6493 75.1561 77.6347 75.1454 77.624C75.1346 77.6132 75.12 77.6072 75.1049 77.6072Z" fill="#1F1917"/>
<path d="M26.1301 77.5625H24.2491C24.1894 77.5625 24.1596 77.5326 24.1596 77.473V76.3544C24.1596 76.2947 24.1894 76.2649 24.2491 76.2649H27.7803C27.8662 76.2649 27.9097 76.3078 27.9109 76.3938C27.93 78.372 27.9264 80.3599 27.9002 82.3572C27.8608 85.4786 24.4173 85.6343 22.1461 85.126C20.2221 84.6964 19.9178 83.3112 20.0163 81.5304C20.0187 81.4838 20.0431 81.4606 20.0897 81.4606L21.3532 81.4445C21.4057 81.4445 21.4332 81.4707 21.4356 81.5232C21.4749 82.5774 21.4946 83.5331 22.5828 83.798C23.8356 84.1022 26.2321 84.1971 26.2661 82.3053C26.2948 80.7745 26.3103 79.2544 26.3127 77.745C26.3127 77.6966 26.2934 77.6502 26.2592 77.6159C26.2249 77.5817 26.1785 77.5625 26.1301 77.5625Z" fill="#1F1917"/>
<path d="M31.9739 77.5392L31.9972 76.3293C31.9976 76.3121 32.0048 76.2957 32.0172 76.2836C32.0296 76.2716 32.0461 76.2649 32.0634 76.2649H40.1119C40.1295 76.2649 40.1463 76.2719 40.1588 76.2843C40.1712 76.2967 40.1782 76.3135 40.1782 76.3311V77.541C40.1782 77.5586 40.1712 77.5754 40.1588 77.5878C40.1463 77.6002 40.1295 77.6072 40.1119 77.6072H36.9333C36.9246 77.6072 36.916 77.6089 36.908 77.6123C36.8999 77.6156 36.8926 77.6205 36.8865 77.6266C36.8803 77.6328 36.8755 77.6401 36.8721 77.6481C36.8688 77.6561 36.8671 77.6647 36.8671 77.6734V85.058C36.8671 85.0755 36.8601 85.0924 36.8477 85.1048C36.8353 85.1172 36.8184 85.1242 36.8009 85.1242H35.3136C35.3049 85.1242 35.2963 85.1225 35.2882 85.1192C35.2802 85.1158 35.2729 85.111 35.2668 85.1048C35.2606 85.0987 35.2557 85.0914 35.2524 85.0833C35.2491 85.0753 35.2474 85.0667 35.2474 85.058L35.3118 77.6734C35.3118 77.6559 35.3048 77.639 35.2924 77.6266C35.28 77.6142 35.2631 77.6072 35.2456 77.6072H32.0401C32.0313 77.6072 32.0225 77.6054 32.0144 77.602C32.0062 77.5986 31.9988 77.5935 31.9927 77.5872C31.9865 77.5808 31.9816 77.5733 31.9784 77.5651C31.9752 77.5569 31.9737 77.548 31.9739 77.5392Z" fill="#1F1917"/>
<path d="M57.3865 85.2352C55.663 85.4857 52.5506 85.432 52.0996 83.1054C52.0793 82.998 52.062 82.4992 52.0477 81.6091C52.0179 79.873 52.0208 78.1292 52.0566 76.3776C52.059 76.3025 52.0978 76.2649 52.173 76.2649H53.5529C53.6137 76.2649 53.6441 76.2947 53.6441 76.3544C53.6495 78.5039 53.5207 80.7554 53.7336 82.8888C53.8625 84.1774 56.9659 83.9465 57.6729 83.7371C58.3798 83.5295 58.6197 82.9174 58.6322 82.1836C58.6668 80.2948 58.6722 78.3696 58.6483 76.4081C58.6481 76.3894 58.6516 76.3708 58.6586 76.3534C58.6656 76.3361 58.6759 76.3203 58.6891 76.3069C58.7022 76.2936 58.7179 76.283 58.7352 76.2758C58.7525 76.2686 58.771 76.2649 58.7897 76.2649H60.132C60.1917 76.2649 60.2215 76.2953 60.2215 76.3562C60.2239 78.4299 60.2245 80.5024 60.2233 82.5738C60.2233 84.351 59.0098 84.9989 57.3865 85.2352Z" fill="#1F1917"/>
</svg>
