<svg width="100" height="100" viewBox="0 0 100 100" fill="none" xmlns="http://www.w3.org/2000/svg">
<rect width="100" height="100" fill="#DB0101"/>
<path d="M70.1517 45.5879C70.1631 45.51 70.1921 45.4357 70.2366 45.3704C70.2811 45.3051 70.34 45.2505 70.409 45.2106C70.4779 45.1707 70.5553 45.1464 70.6355 45.1395C70.7156 45.1326 70.7965 45.1433 70.8723 45.1708C71.4117 45.3815 71.6309 45.7734 71.5297 46.3465C71.4454 46.8353 71.5424 47.2904 71.8205 47.7118L73.3376 50.0001C73.3983 50.0903 73.4381 50.1928 73.4543 50.3004C73.4705 50.4079 73.4626 50.5176 73.4311 50.6217C73.3997 50.7257 73.3454 50.8215 73.2724 50.902C73.1994 50.9826 73.1094 51.0459 73.0089 51.0873L70.1264 52.3263C69.4016 52.6381 69.0982 52.4021 69.2162 51.6183L70.1517 45.5879Z" fill="white"/>
<path d="M65.3478 49.2695C65.0547 50.8058 65.4343 52.1689 66.1955 52.3141C66.9568 52.4593 67.8116 51.3317 68.1046 49.7954C68.3977 48.2591 68.0181 46.8959 67.2568 46.7507C66.4955 46.6055 65.6408 47.7332 65.3478 49.2695Z" fill="white"/>
<path fill-rule="evenodd" clip-rule="evenodd" d="M86.9552 65.3073C88.9654 60.4543 90 55.2529 90 50C90 44.7471 88.9654 39.5457 86.9552 34.6927C84.945 29.8396 81.9986 25.4301 78.2843 21.7157C74.5699 18.0014 70.1604 15.055 65.3073 13.0448C60.4543 11.0346 55.2529 10 50 10C39.3913 10 29.2172 14.2143 21.7157 21.7157C14.2143 29.2172 10 39.3913 10 50C10 60.6087 14.2143 70.7828 21.7157 78.2843C29.2172 85.7857 39.3913 90 50 90C55.2529 90 60.4543 88.9654 65.3073 86.9552C70.1604 84.945 74.5699 81.9986 78.2843 78.2843C81.9986 74.5699 84.945 70.1603 86.9552 65.3073ZM46.8271 25.2972L44.9307 26.258C44.7212 26.3854 44.4696 26.4244 44.2313 26.3663C43.993 26.3082 43.7876 26.1579 43.6602 25.9483C43.5328 25.7387 43.4938 25.4871 43.5519 25.2489C43.61 25.0106 43.7604 24.8052 43.9699 24.6777L48.0154 21.7447C48.8245 21.1632 49.4061 21.3402 49.76 22.2757L51.4288 26.6246C51.6395 27.1725 51.8966 27.1936 52.2 26.6879L56.5489 19.4186C56.6482 19.2451 56.6906 19.0453 56.6702 18.8478C56.6498 18.6503 56.5675 18.4651 56.4352 18.3187L53.4769 15.057C53.3502 14.9151 53.1883 14.8098 53.0082 14.7519C52.828 14.6941 52.6362 14.686 52.4528 14.7283C43.9573 16.5657 39.4988 21.7743 39.0774 30.3541C39.0688 30.5603 39.1251 30.764 39.2385 30.9365C39.3518 31.109 39.5164 31.2416 39.7091 31.3156C39.9017 31.3896 40.1128 31.4013 40.3125 31.349C40.5121 31.2967 40.6903 31.1831 40.822 31.0241C42.4571 29.0351 44.3155 28.7022 46.3972 30.0254C46.9703 30.3878 47.4044 30.2656 47.6994 29.6588C48.3568 28.3103 48.3568 26.9533 47.6994 25.588C47.6617 25.5111 47.6092 25.4425 47.5448 25.3861C47.4803 25.3298 47.4053 25.2868 47.3242 25.2598C47.243 25.2327 47.1572 25.2221 47.0718 25.2285C46.9865 25.2349 46.9033 25.2583 46.8271 25.2972ZM27.4823 36.851C27.7362 36.9661 28.0199 36.9975 28.2933 36.9408C30.2234 36.5531 32.0312 36.9534 33.7169 38.1418C33.8923 38.2656 34.0956 38.3442 34.3087 38.3704C34.5219 38.3967 34.7382 38.3698 34.9384 38.2922C35.1386 38.2146 35.3166 38.0887 35.4564 37.9257C35.5961 37.7627 35.6934 37.5677 35.7396 37.358L38.8622 23.2872C38.8915 23.1556 38.8761 23.0179 38.8184 22.896C38.7608 22.7742 38.6642 22.6749 38.5439 22.6141C38.4235 22.5532 38.2864 22.5341 38.154 22.5598C38.0217 22.5856 37.9017 22.6547 37.8129 22.7562L27.0418 34.741C26.8558 34.9515 26.74 35.2153 26.7108 35.495C26.6815 35.7748 26.7403 36.0563 26.8788 36.2997C27.0172 36.543 27.2284 36.7359 27.4823 36.851ZM81.8712 27.7876C82.0782 27.9671 82.2421 28.191 82.3504 28.4425C82.4587 28.694 82.5087 28.9664 82.4965 29.2392C82.4843 29.5119 82.4103 29.7779 82.2801 30.0171C82.1499 30.2562 81.9668 30.4622 81.7447 30.6195L76.8269 34.1593C76.7359 34.2239 76.6318 34.2677 76.5221 34.2873C76.4125 34.307 76.3001 34.3021 76.1934 34.273C76.0866 34.2439 75.9882 34.1913 75.9053 34.1191C75.8224 34.0469 75.7571 33.957 75.7144 33.8559L72.0861 25.373C71.9091 24.9516 72.0481 24.724 72.5033 24.6903C76.0768 24.4459 79.1994 25.4783 81.8712 27.7876ZM78.2428 44.1089L79.4691 44.3871C79.568 44.4086 79.6607 44.4526 79.7399 44.5158C79.819 44.5791 79.8825 44.6597 79.9253 44.7515C79.9681 44.8433 79.9892 44.9437 79.9868 45.045C79.9844 45.1462 79.9587 45.2456 79.9115 45.3352L77.459 50.0887C77.3688 50.2682 77.338 50.4717 77.371 50.6699C77.404 50.868 77.4991 51.0506 77.6425 51.1912C77.786 51.3319 77.9704 51.4233 78.1691 51.4524C78.3679 51.4814 78.5708 51.4466 78.7485 51.3529L87.6865 46.5236C87.8652 46.4261 88.0103 46.2763 88.1028 46.0936C88.1953 45.9109 88.2308 45.7039 88.2048 45.4996C87.5896 40.7461 86.2074 36.237 84.0582 31.9724C84.0122 31.8788 83.9461 31.7965 83.8646 31.7314C83.7831 31.6663 83.6882 31.62 83.5868 31.5959C83.4853 31.5717 83.3798 31.5703 83.2777 31.5917C83.1756 31.6131 83.0795 31.6567 82.9963 31.7195L77.0291 36.0938C76.6499 36.3803 76.4981 36.7596 76.574 37.2316L77.5348 43.3504C77.6022 43.7634 77.8382 44.0162 78.2428 44.1089ZM70.8221 35.1709C71.5722 36.2076 71.4416 37.1094 70.4302 37.8763C67.927 39.76 65.9043 35.8915 65.525 34.1216C65.5031 34.0193 65.5022 33.9135 65.5225 33.8109C65.5428 33.7082 65.5837 33.6107 65.6428 33.5244C65.702 33.438 65.7781 33.3647 65.8665 33.3087C65.9549 33.2527 66.0538 33.2153 66.1571 33.1987C68.104 32.9121 69.659 33.5695 70.8221 35.1709ZM46.2073 37.636C45.9713 37.0713 45.5625 36.7005 44.981 36.5235L40.7837 35.2719C40.3257 35.1352 39.8364 35.1445 39.3839 35.2986C38.9314 35.4527 38.5381 35.7439 38.2587 36.1317C37.9792 36.5196 37.8275 36.9848 37.8247 37.4629C37.8218 37.9409 37.9679 38.4079 38.2427 38.7991C39.3678 40.4047 43.2995 42.2125 45.3097 40.6828C46.4053 39.84 46.7045 38.8244 46.2073 37.636ZM21.6314 39.8232C21.8926 39.7642 22.1118 39.8443 22.2888 40.0634C22.8113 40.7376 23.0684 41.0874 23.0599 41.1127L21.9601 49.6462C21.9415 49.7837 21.8849 49.9132 21.7968 50.0203C21.7086 50.1274 21.5923 50.2078 21.461 50.2524C21.3297 50.2971 21.1885 50.3042 21.0533 50.2731C20.9182 50.2419 20.7944 50.1737 20.6958 50.076C18.6647 48.0448 18.2011 45.8282 19.3052 43.4262C19.366 43.291 19.3939 43.1433 19.3865 42.9953C19.3791 42.8472 19.3365 42.7031 19.2625 42.5747C19.1884 42.4463 19.0849 42.3373 18.9604 42.2568C18.836 42.1762 18.6941 42.1264 18.5467 42.1114L15.9929 41.8712C15.3271 41.8038 15.1712 41.4878 15.5252 40.9231C16.9917 38.58 18.7911 38.1628 20.9234 39.6715C21.1425 39.8232 21.3785 39.8738 21.6314 39.8232ZM27.358 50.5565L29.798 48.7613C30.3795 48.3314 30.7335 48.4705 30.8599 49.1785L31.3024 51.7954C31.335 51.9664 31.4295 52.1195 31.5679 52.2252L33.8055 54.0204C34.3028 54.4166 34.6947 54.3323 34.9813 53.7676C35.9927 51.7195 36.0601 49.6462 35.1836 47.5476C35.0997 47.352 34.9654 47.1822 34.7943 47.0556C34.6233 46.929 34.4217 46.8501 34.2101 46.827C31.7512 46.5601 30.5032 44.3422 29.2809 42.1698C28.5928 40.9468 27.9127 39.7382 27.0293 38.9003C26.9276 38.8035 26.8037 38.7331 26.6684 38.6953C26.5332 38.6575 26.3907 38.6533 26.2535 38.6833C26.1163 38.7132 25.9886 38.7763 25.8814 38.867C25.7742 38.9578 25.6909 39.0734 25.6387 39.2037C24.4419 42.2379 23.835 45.4237 23.8182 48.7613C23.8182 49.1724 23.932 49.5754 24.1471 49.9257C24.3622 50.2761 24.6702 50.5599 25.0368 50.7459C25.4035 50.9318 25.8145 51.0125 26.2242 50.9791C26.6339 50.9457 27.0264 50.7994 27.358 50.5565ZM73.11 45.7775C73.2954 47.2693 74.0708 48.2469 75.4362 48.7105C75.8577 48.8582 76.2201 49.1381 76.4697 49.5085C76.7193 49.8789 76.8426 50.3199 76.8213 50.766C76.8 51.2121 76.6352 51.6394 76.3514 51.9843C76.0677 52.3292 75.6802 52.5733 75.2465 52.6801L66.7257 54.7282C66.3549 54.8125 66.102 55.0358 65.9672 55.3982L65.7522 56.0051C65.7119 56.1128 65.6472 56.2097 65.5632 56.2883C65.4792 56.3669 65.3782 56.4249 65.268 56.458C65.1578 56.491 65.0415 56.4982 64.9281 56.4788C64.8148 56.4594 64.7074 56.4141 64.6144 56.3464C63.957 55.866 63.7632 55.2802 64.0329 54.5891C64.1677 54.2267 64.2267 53.8559 64.2099 53.4766L63.7295 44.0329C63.7126 43.662 63.8685 43.3839 64.1972 43.1985L71.239 39.2541C71.6604 39.0181 72.1071 38.9507 72.579 39.0518C73.228 39.1867 73.8854 39.1108 74.5512 38.8243C74.6483 38.7822 74.7541 38.7641 74.8598 38.7717C74.9656 38.7792 75.0683 38.812 75.1596 38.8675C75.2508 38.923 75.328 38.9996 75.3849 39.091C75.4418 39.1823 75.4767 39.2859 75.4867 39.3932L75.9924 44.9052C76.0014 44.9963 75.9883 45.0882 75.9542 45.1731C75.9201 45.258 75.866 45.3334 75.7965 45.393C75.7271 45.4526 75.6442 45.4945 75.5551 45.5152C75.4659 45.5359 75.3731 45.5348 75.2845 45.512L73.818 45.1454C73.2702 45.0105 73.0341 45.2212 73.11 45.7775ZM59.4567 51.8459L59.1153 50.3541C58.9215 49.5113 59.208 49.2879 59.975 49.6841L61.0243 50.2277C61.0987 50.2665 61.1821 50.2847 61.2659 50.2802C61.3496 50.2758 61.4307 50.2489 61.5005 50.2023C61.5703 50.1558 61.6263 50.0913 61.6626 50.0157C61.6989 49.9401 61.7143 49.8561 61.707 49.7726C61.4373 46.6457 59.8697 44.6567 57.0041 43.8054C56.8107 43.7504 56.604 43.766 56.421 43.8493C56.2381 43.9327 56.0907 44.0785 56.0053 44.2606C55.6008 45.1455 54.9434 45.5711 54.0332 45.5374C53.6286 45.5206 53.2746 45.3731 52.9712 45.0949L51.7323 43.9698C51.353 43.6158 50.9569 43.5989 50.5439 43.9192C49.5831 44.6862 48.7066 44.762 47.9143 44.1468C47.5688 43.8939 47.2021 43.6832 46.8145 43.5147C45.7862 43.0764 45.015 43.207 44.5009 43.9066C44.1807 44.3448 44.2228 44.741 44.6274 45.0949L47.3581 47.4717C47.4994 47.5943 47.6142 47.7444 47.6956 47.9128C47.777 48.0813 47.8232 48.2645 47.8315 48.4514C47.8398 48.6383 47.8099 48.8249 47.7437 48.9999C47.6776 49.1748 47.5765 49.3345 47.4466 49.4691C45.2721 51.7195 43.9236 54.3996 43.4011 57.5096C43.3812 57.6141 43.3835 57.7215 43.4079 57.8251C43.4323 57.9286 43.4781 58.0258 43.5425 58.1104C43.6069 58.1951 43.6883 58.2652 43.7816 58.3164C43.8748 58.3675 43.9778 58.3984 44.0837 58.4072C49.7643 58.9045 55.3985 58.58 60.9864 57.4337C61.4415 57.341 61.7449 57.0756 61.8966 56.6373C62.6383 54.4628 62.1031 53.1522 60.2911 52.7056C59.8444 52.5876 59.5663 52.301 59.4567 51.8459ZM14.0352 47.5616C14.9197 48.2209 15.8735 48.4377 16.1656 48.0458C16.4577 47.654 15.9775 46.8018 15.093 46.1426C14.2085 45.4833 13.2547 45.2665 12.9626 45.6584C12.6705 46.0502 13.1507 46.9023 14.0352 47.5616ZM82.9988 52.9728C83.3136 53.0742 83.5819 53.2845 83.7548 53.5653L84.1593 54.2227C84.5976 54.9559 85.0569 54.9686 85.5373 54.2606L88.4198 50.0508C88.5452 49.8698 88.6056 49.6516 88.5911 49.4319C88.5766 49.2122 88.488 49.0039 88.3398 48.841C88.1916 48.6781 87.9925 48.5703 87.7751 48.5351C87.5578 48.5 87.3349 48.5396 87.1429 48.6475L78.6094 53.2619C78.247 53.4642 77.9857 53.7549 77.8256 54.1342C77.3368 55.3141 77.4885 56.4477 78.2807 57.535C78.4443 57.7582 78.6637 57.9346 78.9169 58.0464C79.1701 58.1583 79.4482 58.2016 79.7235 58.1722C79.9987 58.1427 80.2614 58.0415 80.4852 57.8787C80.709 57.7158 80.8861 57.497 80.9988 57.2442C81.3865 56.3677 81.4707 55.4911 81.2516 54.6146C81.167 54.2968 81.2001 53.9602 81.3449 53.6661C81.4896 53.372 81.7363 53.1402 82.04 53.0129C82.3436 52.8856 82.684 52.8714 82.9988 52.9728ZM12.6174 49.0141C22.4624 52.578 23.0022 56.0295 24.1222 63.19C24.357 64.6912 24.6172 66.3553 24.9941 68.2177C25.1037 68.7486 24.9098 68.9003 24.4126 68.6728C21.2857 67.24 18.4159 65.4659 15.8032 63.3504C11.8462 60.1646 11.5554 54.1595 11.8335 49.5198C11.8673 49.0057 12.1285 48.8371 12.6174 49.0141ZM37.219 52.6297C37.0757 52.7393 36.9914 52.8952 36.9661 53.0975C36.9173 53.3979 36.8788 53.6824 36.8579 53.8985C36.837 54.1146 36.835 54.2477 36.8524 54.2732L37.0546 54.6272C37.1249 54.7488 37.231 54.8458 37.3584 54.905C37.4859 54.9641 37.6284 54.9824 37.7667 54.9576C37.905 54.9327 38.0322 54.8657 38.131 54.7659C38.2298 54.666 38.2954 54.5381 38.3189 54.3996C38.4284 53.8012 38.3231 53.2534 38.0028 52.7561C37.7837 52.419 37.5224 52.3769 37.219 52.6297ZM60.9735 74.1467L63.641 58.9381C63.7168 58.4998 63.9739 58.2343 64.4122 58.1416C64.5554 58.1079 64.7113 58.0995 64.8799 58.1163C65.2339 58.15 65.5795 58.1037 65.9166 57.9773L74.9811 54.7535C75.4952 54.5765 75.7396 54.7577 75.7143 55.2971C75.4446 61.0114 74.1509 66.4897 71.8331 71.732C71.7618 71.8945 71.6547 72.0397 71.5193 72.1576C71.3839 72.2755 71.2235 72.3633 71.0493 72.4147L61.9596 75.019C61.8332 75.0579 61.699 75.0636 61.5698 75.0357C61.4406 75.0078 61.3207 74.9471 61.2217 74.8595C61.1227 74.772 61.0479 74.6604 61.0044 74.5356C60.9609 74.4107 60.9503 74.2768 60.9735 74.1467ZM24.9729 58.5703C24.8928 58.6621 24.8467 58.7786 24.8422 58.9004L24.7411 60.1519C24.7325 60.2773 24.7667 60.4019 24.838 60.5054C24.9094 60.6089 25.0136 60.6852 25.1338 60.7219C25.2541 60.7585 25.3832 60.7534 25.5001 60.7073C25.617 60.6612 25.7149 60.5768 25.7778 60.468C26.098 59.9202 26.1275 59.3386 25.8663 58.7234C25.8212 58.6101 25.7386 58.5159 25.6323 58.4563C25.526 58.3968 25.4025 58.3756 25.2824 58.3964C25.1624 58.4171 25.0531 58.4785 24.9729 58.5703ZM42.1623 62.3643L43.3759 60.7587C43.5951 60.4553 43.8943 60.312 44.2735 60.3289C49.7687 60.5649 55.2217 60.232 60.6326 59.3301C60.7938 59.3017 60.9596 59.3123 61.1159 59.3611C61.2722 59.4099 61.4145 59.4954 61.5309 59.6106C61.6473 59.7258 61.7344 59.8672 61.7849 60.023C61.8353 60.1787 61.8477 60.3443 61.8209 60.5059L59.4695 74.6905C59.4146 75.0196 59.242 75.3177 58.9839 75.5293C58.7258 75.7409 58.3998 75.8516 58.0662 75.8409L41.0877 75.1709C40.7376 75.1559 40.4035 75.0221 40.1412 74.792C39.8788 74.5619 39.7042 74.2494 39.6465 73.9067L37.6996 62.6551C37.5647 61.8881 37.8681 61.6268 38.6098 61.8712L41.1003 62.7056C41.5302 62.8489 41.8842 62.7351 42.1623 62.3643ZM37.8766 73.0848L35.8286 61.2896C35.8089 61.1845 35.7668 61.0848 35.7053 60.9974C35.6437 60.9099 35.5641 60.8368 35.4718 60.7828C35.3794 60.7289 35.2766 60.6954 35.1702 60.6847C35.0638 60.674 34.9563 60.6862 34.8551 60.7207L30.8855 62.0355C30.7223 62.0896 30.5828 62.1985 30.4907 62.3436C30.3985 62.4887 30.3594 62.6612 30.3798 62.8319L31.4544 71.6815C31.4722 71.8236 31.5305 71.9576 31.6224 72.0674C31.7143 72.1773 31.8359 72.2584 31.9727 72.301L36.9158 73.9192C37.0375 73.9577 37.1672 73.9644 37.2922 73.9385C37.4173 73.9126 37.5336 73.855 37.63 73.7712C37.7265 73.6875 37.7998 73.5804 37.843 73.4602C37.8861 73.34 37.8977 73.2107 37.8766 73.0848ZM26.7765 67.6106C27.5281 69.5583 28.5334 70.9844 29.0219 70.7959C29.5105 70.6073 29.2973 68.8756 28.5457 66.9279C27.7942 64.9803 26.7889 63.5542 26.3003 63.7427C25.8118 63.9312 26.025 65.6629 26.7765 67.6106ZM77.8831 64.4221C77.3063 64.3712 76.7334 64.517 76.2836 64.8293C75.0699 65.7396 74.5137 67.4378 74.6148 69.9241C74.6317 70.3371 74.8297 70.4551 75.209 70.2781C76.6418 69.6292 77.9945 68.8116 79.2672 67.8255C79.682 67.4781 79.9253 67.0013 79.9464 66.4941C79.9675 65.987 79.7649 65.4887 79.3806 65.1027C78.9963 64.7168 78.4599 64.473 77.8831 64.4221ZM25.8027 71.2769C26.5444 71.6056 27.1049 72.1365 27.4841 72.8698C29.5912 77.0502 32.2081 80.7333 35.3349 83.9191C35.4434 84.0265 35.5105 84.1676 35.5248 84.3187C35.5391 84.4697 35.4997 84.6213 35.4134 84.7478C35.3271 84.8743 35.1991 84.9679 35.0512 85.0127C34.9032 85.0575 34.7444 85.0508 34.6017 84.9937C25.6931 81.3274 19.3383 75.0485 15.5372 66.1568C15.5053 66.0713 15.5013 65.9778 15.526 65.8899C15.5507 65.8021 15.6027 65.7243 15.6746 65.668C15.7464 65.6117 15.8343 65.5797 15.9255 65.5766C16.0167 65.5736 16.1066 65.5996 16.182 65.6511C19.2667 67.9182 22.4736 69.7935 25.8027 71.2769ZM81.3138 69.2104C81.0574 69.1483 80.788 69.1681 80.5439 69.2668C78.5801 70.0759 76.6332 71.0198 74.7032 72.0986C72.3412 73.4203 70.7269 75.9671 69.1426 78.4665C68.378 79.6727 67.6204 80.8679 66.7891 81.909C66.6976 82.0219 66.6411 82.1592 66.6265 82.3038C66.6119 82.4485 66.6399 82.5942 66.7071 82.7232C66.7743 82.8521 66.8776 82.9586 67.0045 83.0296C67.1314 83.1006 67.2762 83.1329 67.4212 83.1226C73.5907 82.7687 79.1153 75.8913 82.0862 71.062C82.2239 70.8394 82.2868 70.5793 82.2662 70.3189C82.2456 70.0585 82.1423 69.8111 81.9713 69.612C81.8003 69.4129 81.5701 69.2724 81.3138 69.2104ZM38.5589 76.0431C38.6258 76.067 38.6867 76.1055 38.7369 76.1558C38.7872 76.2061 38.8257 76.2669 38.8496 76.3339L40.7207 81.416C40.7577 81.5128 40.7733 81.6165 40.7666 81.7199C40.7598 81.8233 40.7309 81.924 40.6817 82.0152C40.6325 82.1064 40.5642 82.1859 40.4815 82.2483C40.3988 82.3108 40.3036 82.3546 40.2024 82.3769C35.3351 83.4641 31.3402 77.9015 30.1265 73.9824C29.9664 73.4599 30.1476 73.2871 30.6701 73.4641L38.5589 76.0431ZM60.6325 76.7512C60.2196 76.8523 59.9372 77.1009 59.7855 77.4971L58.2684 81.5552C58.0325 82.1873 58.2558 82.5034 58.9385 82.5034C64.1892 82.4781 67.7501 80.0887 69.6212 75.3352C69.6531 75.2519 69.6618 75.1615 69.6464 75.0736C69.631 74.9857 69.592 74.9036 69.5336 74.8362C69.4752 74.7687 69.3996 74.7183 69.3148 74.6905C69.2301 74.6626 69.1393 74.6582 69.0523 74.6779L60.6325 76.7512ZM41.3275 76.8522L57.99 77.6613C58.0519 77.6654 58.1119 77.6847 58.1647 77.7175C58.2174 77.7502 58.2613 77.7954 58.2925 77.8491C58.3237 77.9027 58.3413 77.9633 58.3436 78.0253C58.346 78.0873 58.3331 78.149 58.306 78.2049L55.8408 83.1986C55.794 83.2912 55.7292 83.3736 55.6503 83.441C55.5714 83.5084 55.4799 83.5594 55.3812 83.5912C55.2824 83.6229 55.1782 83.6347 55.0749 83.6259C54.9715 83.6171 54.8708 83.5879 54.7788 83.5399C51.7784 81.9976 49.1783 82.4569 46.9786 84.9179C46.8806 85.0236 46.7457 85.0869 46.6035 85.094C46.4613 85.1012 46.3233 85.0515 46.2201 84.9558L41.9849 81.1632C41.8287 81.024 41.7221 80.8375 41.6815 80.6322L40.9988 77.2314C40.9398 76.9617 41.0494 76.8353 41.3275 76.8522Z" fill="white"/>
</svg>
