<svg width="100" height="100" viewBox="0 0 100 100" fill="none" xmlns="http://www.w3.org/2000/svg">
<rect width="100" height="100" fill="#3E4095"/>
<path d="M60.7116 14.3021C60.7039 20.2493 60.7039 26.1965 60.7116 32.1438C60.7116 32.3297 60.7511 32.5064 60.8302 32.6739C61.3308 33.7358 61.8718 34.7758 62.453 35.7941C70.6329 50.1067 78.814 64.4229 86.9962 78.7424C86.9988 78.7472 87.0001 78.7525 87 78.758C86.9999 78.7634 86.9984 78.7687 86.9956 78.7733C86.9928 78.778 86.9888 78.7818 86.9841 78.7844C86.9793 78.7871 86.974 78.7884 86.9685 78.7883H14.0348C14.0003 78.7883 13.9914 78.773 14.0083 78.7424C22.3694 63.374 30.7278 48.0068 39.0836 32.6407C39.1611 32.4976 39.1999 32.3446 39.1999 32.1817C39.2007 26.2092 39.1995 20.2405 39.1964 14.2757C39.1964 14.2328 39.2179 14.2114 39.2609 14.2114H60.6206C60.6812 14.2114 60.7116 14.2416 60.7116 14.3021Z" fill="white"/>
<path d="M42.3086 27.7237V18.1441C42.3086 18.1283 42.3149 18.1131 42.3261 18.1019C42.3374 18.0908 42.3526 18.0845 42.3685 18.0845H48.4199C48.4307 18.0844 48.4412 18.0873 48.4505 18.0927C48.4598 18.0982 48.4674 18.106 48.4726 18.1154C48.4778 18.1248 48.4803 18.1354 48.48 18.1461C48.4796 18.1568 48.4764 18.1672 48.4706 18.1763L42.4192 27.7547C42.4123 27.7655 42.402 27.7739 42.39 27.7786C42.3779 27.7832 42.3647 27.7838 42.3523 27.7803C42.3398 27.7768 42.3289 27.7694 42.321 27.7592C42.3131 27.749 42.3088 27.7365 42.3086 27.7237Z" fill="#3E4095"/>
<path d="M57.6763 27.7627L52.0395 18.1602C52.0351 18.1525 52.0327 18.1438 52.0327 18.135C52.0327 18.1261 52.035 18.1174 52.0395 18.1098C52.0439 18.1021 52.0503 18.0957 52.058 18.0913C52.0657 18.0868 52.0744 18.0845 52.0833 18.0845H57.72C57.7267 18.0845 57.7333 18.0858 57.7394 18.0883C57.7456 18.0909 57.7512 18.0946 57.7559 18.0993C57.7606 18.1039 57.7643 18.1095 57.7669 18.1156C57.7694 18.1218 57.7707 18.1283 57.7707 18.135V27.7374C57.7707 27.7485 57.767 27.7593 57.7602 27.7681C57.7534 27.7768 57.7439 27.7831 57.7332 27.786C57.7224 27.7889 57.7111 27.7881 57.7008 27.7839C57.6905 27.7797 57.6819 27.7723 57.6763 27.7627Z" fill="#3E4095"/>
<path d="M52.8434 55.295L52.9448 62.4028C52.9455 62.4449 52.9643 62.477 53.0012 62.4992L57.7189 65.2372C57.7534 65.257 57.7707 65.2869 57.7707 65.3267V75.0588C57.7707 75.074 57.7646 75.0886 57.7538 75.0994C57.743 75.1102 57.7284 75.1162 57.7131 75.1162H42.3646C42.3487 75.1162 42.3335 75.11 42.3222 75.0991C42.311 75.0881 42.3047 75.0732 42.3047 75.0577L42.3162 65.3381C42.3162 65.293 42.3354 65.2593 42.3738 65.2372L47.0938 62.4797C47.1283 62.4598 47.1456 62.4296 47.1456 62.389V55.2663C47.1456 55.2059 47.1153 55.1757 47.0546 55.1757L42.4118 55.1826C42.3811 55.1826 42.3657 55.1676 42.3657 55.1378V32.7737C42.3657 32.7408 42.3746 32.7106 42.3922 32.6831L50.3279 20.447C50.3336 20.4383 50.3414 20.4313 50.3506 20.4264C50.3598 20.4216 50.37 20.4192 50.3804 20.4194C50.3908 20.4197 50.4009 20.4225 50.4099 20.4278C50.4188 20.433 50.4263 20.4404 50.4316 20.4493C52.8096 24.4939 55.1658 28.5149 57.5 32.5121C57.5814 32.6505 57.6225 32.8005 57.6233 32.9619C57.6709 40.3688 57.7192 47.7741 57.7684 55.178C57.7692 55.2162 57.75 55.2353 57.7108 55.2353H52.9021C52.8622 55.2353 52.8426 55.2552 52.8434 55.295Z" fill="#3E4095"/>
<path d="M30.359 55.1229L40.2204 38.8177C40.2249 38.8105 40.2315 38.805 40.2394 38.8018C40.2472 38.7987 40.2559 38.7982 40.2641 38.8004C40.2722 38.8026 40.2795 38.8074 40.2847 38.814C40.2899 38.8207 40.2928 38.8288 40.293 38.8372V55.147C40.293 55.1521 40.292 55.1572 40.29 55.1619C40.2881 55.1667 40.2852 55.171 40.2815 55.1746C40.2779 55.1782 40.2736 55.1811 40.2688 55.1831C40.2641 55.185 40.259 55.186 40.2538 55.186L30.3924 55.1826C30.3854 55.1826 30.3785 55.1808 30.3724 55.1772C30.3664 55.1737 30.3614 55.1687 30.358 55.1626C30.3546 55.1565 30.3529 55.1496 30.353 55.1426C30.3532 55.1356 30.3553 55.1288 30.359 55.1229Z" fill="#3E4095"/>
<path d="M59.9399 38.8765L69.7852 55.1495C69.7887 55.1552 69.7906 55.1618 69.7907 55.1684C69.7908 55.1751 69.7891 55.1817 69.7858 55.1875C69.7826 55.1934 69.7778 55.1982 69.772 55.2016C69.7663 55.205 69.7597 55.2068 69.753 55.2069H59.9123C59.9022 55.2069 59.8925 55.2029 59.8854 55.1958C59.8782 55.1887 59.8742 55.1791 59.8742 55.169L59.8696 38.896C59.8697 38.8878 59.8725 38.8799 59.8775 38.8734C59.8825 38.8669 59.8895 38.8622 59.8974 38.86C59.9053 38.8578 59.9138 38.8583 59.9214 38.8612C59.9291 38.8642 59.9355 38.8695 59.9399 38.8765Z" fill="#3E4095"/>
<path d="M34.5564 60.163C35.4675 60.5118 35.7185 61.5515 34.971 62.1872C34.3456 62.7196 32.4659 62.5223 31.6228 62.5234C31.5852 62.5234 31.5664 62.5047 31.5664 62.4672L31.5687 57.9895C31.5687 57.9528 31.5868 57.9345 31.6228 57.9345C32.5558 57.9276 34.7131 57.6223 35.1703 58.6563C35.4306 59.2461 35.2002 59.8738 34.5576 60.0918C34.4915 60.114 34.4911 60.1377 34.5564 60.163Z" fill="#3E4095"/>
<path d="M37.2048 60.8092C37.2007 60.8089 37.1965 60.8095 37.1926 60.8108C37.1887 60.8122 37.1851 60.8143 37.1821 60.8171C37.1791 60.8199 37.1767 60.8233 37.175 60.8271C37.1734 60.8309 37.1725 60.835 37.1725 60.8391L37.1921 62.4755C37.1921 62.5068 37.1764 62.5225 37.1449 62.5225H36.1025C36.0726 62.5225 36.0576 62.5076 36.0576 62.4777L36.0599 57.9886C36.0599 57.9611 36.0734 57.9469 36.1002 57.9462C37.1921 57.8911 39.7018 57.5698 39.6281 59.4058C39.5705 60.8574 38.307 60.9068 37.2048 60.8092Z" fill="#3E4095"/>
<path d="M41.3097 60.884L41.3373 62.4607C41.3381 62.502 41.3177 62.5227 41.2763 62.5227H40.2616C40.2216 62.5227 40.2017 62.5028 40.2017 62.463L40.2086 58.0141C40.2086 57.9727 40.2289 57.9509 40.2696 57.9486C40.973 57.9073 41.6736 57.9138 42.3716 57.9682C44.0555 58.1013 44.2905 60.207 42.8266 60.7406C42.4142 60.8909 41.8326 60.8198 41.358 60.8335C41.325 60.8343 41.3089 60.8511 41.3097 60.884Z" fill="#3E4095"/>
<path d="M59.3552 60.1559C60.8237 60.5977 60.3411 62.4441 58.8104 62.4969C58.0172 62.5236 57.2278 62.5309 56.4423 62.5186C56.428 62.5186 56.4142 62.5128 56.404 62.5025C56.3939 62.4922 56.3882 62.4782 56.3882 62.4636V57.9917C56.3882 57.955 56.4062 57.9366 56.4423 57.9366C57.4098 57.9205 59.2665 57.7048 59.8423 58.4208C60.3353 59.0359 60.1257 59.8392 59.3552 60.1031C59.2999 60.1222 59.2999 60.1398 59.3552 60.1559Z" fill="#3E4095"/>
<path d="M63.1833 57.9609C64.9697 58.0768 64.9121 60.8068 62.9817 60.8263C62.5363 60.8308 62.2296 60.8316 62.0614 60.8286C62.0192 60.8278 61.9981 60.8485 61.9981 60.8905L62.0061 62.4638C62.0069 62.5028 61.9873 62.5223 61.9474 62.5223H60.9384C60.9001 62.5223 60.8809 62.5032 60.8809 62.4649V57.993C60.8809 57.9601 60.8974 57.9429 60.9304 57.9414C61.8272 57.9154 62.5782 57.9219 63.1833 57.9609Z" fill="#3E4095"/>
<path d="M66.159 60.8799L66.1867 62.46C66.1875 62.5013 66.1671 62.522 66.1256 62.522H65.0844C65.0461 62.522 65.0269 62.5029 65.0269 62.4646V57.9916C65.0269 57.9564 65.0445 57.9384 65.0798 57.9376C65.7264 57.9254 66.3694 57.9242 67.0091 57.9342C68.1804 57.9537 69.0051 58.8763 68.5098 59.9928C68.0814 60.9568 67.0816 60.8512 66.2132 60.8259C66.206 60.8258 66.1989 60.8271 66.1923 60.8297C66.1856 60.8324 66.1796 60.8363 66.1746 60.8414C66.1695 60.8464 66.1655 60.8524 66.1628 60.859C66.1602 60.8657 66.1589 60.8727 66.159 60.8799Z" fill="#3E4095"/>
<path d="M32.6922 58.7986C32.6922 58.7895 32.6959 58.7807 32.7024 58.7742C32.7088 58.7678 32.7176 58.7642 32.7268 58.7642L33.5964 58.7653C33.7372 58.7656 33.8721 58.8166 33.9715 58.907C34.0708 58.9973 34.1265 59.1198 34.1262 59.2473V59.2587C34.1261 59.3219 34.1122 59.3844 34.0854 59.4427C34.0585 59.5009 34.0193 59.5539 33.9699 59.5984C33.9205 59.643 33.8619 59.6782 33.7974 59.7023C33.7329 59.7263 33.6638 59.7386 33.5941 59.7384L32.7245 59.7373C32.7153 59.7373 32.7065 59.7336 32.7001 59.7272C32.6936 59.7207 32.6899 59.712 32.6899 59.7028L32.6922 58.7986Z" fill="white"/>
<path d="M57.5117 58.8147C57.5117 58.8016 57.5169 58.7891 57.5262 58.7798C57.5355 58.7706 57.5481 58.7654 57.5612 58.7654H58.4193C58.5592 58.7654 58.6934 58.8147 58.7923 58.9025C58.8912 58.9903 58.9468 59.1094 58.9468 59.2336V59.2703C58.9468 59.3945 58.8912 59.5135 58.7923 59.6013C58.6934 59.6892 58.5592 59.7385 58.4193 59.7385H57.5612C57.5481 59.7385 57.5355 59.7333 57.5262 59.724C57.5169 59.7148 57.5117 59.7022 57.5117 59.6891V58.8147Z" fill="white"/>
<path d="M37.1538 58.835C37.1538 58.8232 37.1585 58.8118 37.167 58.8034C37.1754 58.795 37.1868 58.7903 37.1987 58.7903H37.884C38.0502 58.7903 38.2096 58.8507 38.3271 58.9583C38.4446 59.0659 38.5106 59.2119 38.5106 59.364V59.4077C38.5106 59.5598 38.4446 59.7058 38.3271 59.8134C38.2096 59.921 38.0502 59.9814 37.884 59.9814H37.1987C37.1868 59.9814 37.1754 59.9767 37.167 59.9683C37.1585 59.9599 37.1538 59.9485 37.1538 59.9367V58.835Z" fill="white"/>
<path d="M41.291 58.8248C41.291 58.8163 41.2944 58.8081 41.3005 58.8021C41.3065 58.796 41.3147 58.7927 41.3233 58.7927L42.0351 58.7915C42.1161 58.7913 42.1964 58.8065 42.2714 58.8361C42.3464 58.8657 42.4145 58.9092 42.4719 58.9641C42.5294 59.019 42.575 59.0842 42.6061 59.156C42.6373 59.2277 42.6534 59.3047 42.6536 59.3825V59.3871C42.6539 59.5441 42.5891 59.6948 42.4735 59.8061C42.358 59.9173 42.2011 59.98 42.0374 59.9803L41.3256 59.9815C41.3213 59.9815 41.3171 59.9807 41.3132 59.979C41.3093 59.9774 41.3058 59.9751 41.3028 59.9721C41.2998 59.9691 41.2974 59.9656 41.2958 59.9617C41.2942 59.9578 41.2933 59.9536 41.2933 59.9494L41.291 58.8248Z" fill="white"/>
<path d="M61.9795 58.8194C61.9795 58.8121 61.9824 58.8051 61.9876 58.7999C61.9928 58.7948 61.9998 58.7919 62.0071 58.7919L62.6959 58.7896C62.7821 58.7892 62.8676 58.8039 62.9474 58.8328C63.0272 58.8617 63.0997 58.9042 63.1609 58.9579C63.2221 59.0116 63.2707 59.0755 63.3039 59.1458C63.3372 59.2162 63.3544 59.2916 63.3547 59.3679V59.4C63.3553 59.554 63.2866 59.7019 63.164 59.8112C63.0413 59.9205 62.8746 59.9823 62.7005 59.983L62.0117 59.9853C62.0044 59.9853 61.9974 59.9824 61.9922 59.9772C61.987 59.972 61.9841 59.965 61.9841 59.9577L61.9795 58.8194Z" fill="white"/>
<path d="M66.1392 58.824C66.1392 58.8166 66.1421 58.8096 66.1473 58.8045C66.1524 58.7993 66.1595 58.7964 66.1668 58.7964L66.8567 58.7884C67.0268 58.7864 67.1906 58.8465 67.3122 58.9556C67.4338 59.0647 67.5032 59.2138 67.5052 59.3702V59.3793C67.5062 59.4569 67.4905 59.5338 67.4592 59.6058C67.4278 59.6778 67.3813 59.7434 67.3224 59.799C67.2634 59.8545 67.1932 59.8988 67.1157 59.9294C67.0381 59.96 66.9548 59.9762 66.8705 59.9772L66.1806 59.9852C66.1733 59.9852 66.1663 59.9823 66.1611 59.9772C66.1559 59.972 66.153 59.965 66.153 59.9577L66.1392 58.824Z" fill="white"/>
<path d="M57.5093 60.6314C57.5093 60.6202 57.5138 60.6094 57.5218 60.6014C57.5298 60.5934 57.5406 60.589 57.5519 60.589L58.4215 60.5867C58.5059 60.5863 58.5896 60.5996 58.6677 60.6256C58.7458 60.6517 58.8168 60.69 58.8767 60.7385C58.9366 60.787 58.9842 60.8447 59.0168 60.9082C59.0493 60.9717 59.0662 61.0399 59.0665 61.1088V61.1363C59.067 61.2754 58.9998 61.409 58.8797 61.5077C58.7596 61.6065 58.5965 61.6624 58.4261 61.6631L57.5565 61.6654C57.5509 61.6654 57.5454 61.6642 57.5402 61.6621C57.535 61.66 57.5303 61.6569 57.5264 61.6529C57.5224 61.649 57.5193 61.6443 57.5171 61.6391C57.515 61.634 57.5139 61.6285 57.5139 61.6229L57.5093 60.6314Z" fill="white"/>
<path d="M32.686 60.6255C32.686 60.6182 32.6889 60.6112 32.6941 60.6061C32.6993 60.6009 32.7063 60.598 32.7137 60.598L33.5971 60.5957C33.6814 60.5954 33.7649 60.6086 33.8429 60.6347C33.9208 60.6607 33.9917 60.6991 34.0515 60.7476C34.1113 60.7961 34.1588 60.8537 34.1913 60.9172C34.2238 60.9808 34.2407 61.0489 34.2409 61.1178V61.1339C34.2414 61.2729 34.1744 61.4065 34.0545 61.5053C33.9347 61.604 33.7718 61.6599 33.6017 61.6606L32.7183 61.6629C32.711 61.6629 32.7039 61.66 32.6987 61.6548C32.6936 61.6497 32.6906 61.6427 32.6906 61.6354L32.686 60.6255Z" fill="white"/>
<path d="M20.9308 75.0129L40.4395 66.6084C40.4455 66.606 40.4519 66.605 40.4583 66.6056C40.4646 66.6063 40.4707 66.6084 40.4761 66.6119C40.4814 66.6154 40.4858 66.6202 40.4889 66.6258C40.492 66.6314 40.4936 66.6376 40.4937 66.644V75.0473C40.4937 75.0577 40.4896 75.0676 40.4822 75.0749C40.4749 75.0822 40.4649 75.0863 40.4545 75.0863L20.9458 75.0875C20.9369 75.0872 20.9284 75.084 20.9216 75.0783C20.9149 75.0726 20.9102 75.0648 20.9085 75.0561C20.9067 75.0475 20.908 75.0385 20.9121 75.0306C20.9161 75.0228 20.9227 75.0165 20.9308 75.0129Z" fill="#3E4095"/>
<path d="M79.3482 75.1165H59.8682C59.8591 75.1165 59.8503 75.1129 59.8438 75.1064C59.8373 75.1 59.8337 75.0912 59.8337 75.0821L59.8325 66.6856C59.8324 66.6799 59.8338 66.6742 59.8365 66.6691C59.8392 66.664 59.8431 66.6596 59.8479 66.6564C59.8527 66.6532 59.8583 66.6513 59.864 66.6508C59.8698 66.6503 59.8756 66.6512 59.8809 66.6535L79.362 75.0499C79.3696 75.0529 79.376 75.0584 79.38 75.0656C79.3839 75.0727 79.3852 75.0811 79.3835 75.0891C79.3818 75.0971 79.3774 75.1042 79.3709 75.1093C79.3644 75.1143 79.3564 75.1169 79.3482 75.1165Z" fill="#3E4095"/>
</svg>
