<svg width="100" height="100" viewBox="0 0 100 100" fill="none" xmlns="http://www.w3.org/2000/svg">
<rect width="100" height="100" fill="white"/>
<path d="M54.1746 72.3874L52.6807 63.614" stroke="#EC8534" stroke-width="0.268218"/>
<path d="M52.6809 63.6141C53.0179 63.2797 53.2919 62.9413 53.5029 62.5989C54.7139 60.6369 55.1578 58.015 55.363 55.6011C55.5687 53.188 55.6304 50.3579 55.5481 47.1106C55.414 41.8576 53.924 34.4762 47.2414 34.2107C46.7273 34.1901 45.6933 34.1946 44.1394 34.2241C44.0921 34.225 44.0684 34.2491 44.0684 34.2965L44.0845 38.4619" stroke="#EDAB93" stroke-width="0.268218"/>
<path d="M44.084 38.4619L34.0044 42.0574" stroke="#EC8534" stroke-width="0.268218"/>
<path d="M52.6806 63.614C50.335 65.5948 48.0632 65.8845 45.0391 65.7906" stroke="#EFCD9B" stroke-width="0.268218"/>
<path d="M45.0387 65.7906L44.1737 65.8094C44.1589 65.8098 44.1442 65.8071 44.1305 65.8017C44.1167 65.7962 44.1042 65.7881 44.0937 65.7777C44.0832 65.7673 44.0749 65.7549 44.0693 65.7412C44.0637 65.7275 44.0609 65.7129 44.061 65.6981L44.0879 64.2175" stroke="#F1DEA7" stroke-width="0.268218"/>
<path d="M44.0885 64.2176L44.0845 38.4619" stroke="#EFCD9B" stroke-width="0.268218"/>
<path d="M44.0885 64.2175C44.0339 64.2685 43.9713 64.2408 43.9007 64.1344C40.6499 59.2314 37.3633 54.2966 34.041 49.3301" stroke="#F0B848" stroke-width="0.268218"/>
<path d="M45.0391 65.7905L49.8308 72.9989" stroke="#F0B848" stroke-width="0.268218"/>
<path d="M54.174 72.3871L52.6801 63.6137C53.0171 63.2793 53.2912 62.9409 53.5022 62.5985C54.7132 60.6365 55.1571 58.0146 55.3622 55.6007C55.5679 53.1876 55.6296 50.3575 55.5473 47.1102C55.4132 41.8572 53.9233 34.4758 47.2406 34.2103C46.7265 34.1897 45.6925 34.1942 44.1387 34.2237C44.0913 34.2246 44.0676 34.2487 44.0676 34.2961L44.0837 38.4615L34.004 42.057L34 27.1199C34 27.0897 34.012 27.0607 34.0334 27.0393C34.0548 27.0179 34.0838 27.0059 34.114 27.0059C39.6724 26.9925 45.2442 27.0019 50.8294 27.0341C51.7306 27.0386 52.7395 27.1709 53.8562 27.431C62.5277 29.4521 65.0557 37.6931 65.5116 45.5331C65.7074 48.8912 65.6551 52.315 65.3547 55.665C64.6976 63.0115 61.9282 70.1059 54.174 72.3871Z" fill="#E9632B"/>
<path d="M44.0836 38.4617L44.0876 64.2173C44.033 64.2683 43.9705 64.2406 43.8998 64.1342C40.649 59.2312 37.3624 54.2964 34.0401 49.3299L34.0039 42.0571L44.0836 38.4617Z" fill="#EEA73C"/>
<path d="M34.0405 49.3298C37.3628 54.2963 40.6494 59.2311 43.9002 64.1341C43.9708 64.2405 44.0334 64.2683 44.0879 64.2173L44.0611 65.6979C44.0609 65.7126 44.0637 65.7273 44.0693 65.741C44.075 65.7547 44.0833 65.7671 44.0938 65.7775C44.1043 65.7878 44.1168 65.796 44.1306 65.8015C44.1443 65.8069 44.159 65.8095 44.1738 65.8092L45.0388 65.7904L49.8305 72.9988L34.1303 73.0001C34.1135 73.0001 34.0968 72.9968 34.0813 72.9904C34.0657 72.984 34.0516 72.9746 34.0398 72.9627C34.0279 72.9509 34.0186 72.9368 34.0122 72.9214C34.0059 72.9059 34.0028 72.8894 34.0029 72.8727C34.0494 65.1015 34.0494 57.3303 34.0029 49.5592C34.0029 49.5171 34.0083 49.4756 34.019 49.4344C34.0253 49.4121 34.0324 49.3772 34.0405 49.3298Z" fill="#F2C854"/>
<path d="M52.6801 63.6138L54.1741 72.3872C52.7463 72.7949 51.2983 72.9987 49.8303 72.9987L45.0386 65.7904C48.0627 65.8842 50.3345 65.5946 52.6801 63.6138Z" fill="#EEA73C"/>
<path d="M55.077 82.6907C55.0373 82.6436 54.9871 82.6064 54.9303 82.582C54.8735 82.5577 54.8118 82.5469 54.7498 82.5504C54.6879 82.5539 54.6274 82.5717 54.573 82.6024C54.5187 82.633 54.472 82.6757 54.4366 82.7272C54.0165 83.352 53.4923 83.8658 52.864 84.2685C52.8305 84.2945 52.7922 84.3136 52.7513 84.3248C52.7104 84.336 52.6677 84.339 52.6256 84.3337C52.5836 84.3283 52.543 84.3148 52.5061 84.2938C52.4693 84.2728 52.437 84.2447 52.411 84.2112C52.385 84.1777 52.3659 84.1394 52.3547 84.0985C52.3435 84.0576 52.3405 84.0149 52.3458 83.9728C52.3511 83.9308 52.3647 83.8902 52.3857 83.8533C52.4067 83.8165 52.4348 83.7842 52.4683 83.7582L54.7177 81.6701C54.8913 81.5105 55.0527 81.5209 55.202 81.7014L56.384 83.1594C56.4242 83.2087 56.4744 83.2489 56.5312 83.2773C56.5881 83.3057 56.6504 83.3217 56.714 83.3242C56.7775 83.3266 56.8409 83.3155 56.8998 83.2916C56.9587 83.2677 57.0119 83.2315 57.0557 83.1854L58.4877 81.6597C58.5133 81.6325 58.5444 81.6111 58.5789 81.5967C58.6134 81.5824 58.6505 81.5755 58.6879 81.5764C58.7252 81.5774 58.762 81.5863 58.7957 81.6024C58.8293 81.6186 58.8593 81.6416 58.8834 81.6701L60.3102 83.3937C60.3385 83.4287 60.3744 83.4568 60.4153 83.4759C60.4562 83.4951 60.501 83.5047 60.5464 83.5042C60.5918 83.5037 60.6368 83.4931 60.6779 83.4731C60.719 83.453 60.7552 83.4241 60.784 83.3885L62.2108 81.6024C62.2346 81.5728 62.2644 81.5485 62.2984 81.5314C62.3324 81.5143 62.3696 81.5046 62.4077 81.5031C62.4457 81.5016 62.4836 81.5084 62.5188 81.5228C62.554 81.5372 62.5857 81.5591 62.6117 81.5868L64.5748 83.6905C64.7241 83.8536 64.7275 84.0185 64.5852 84.1852C64.5505 84.2234 64.5106 84.2494 64.4654 84.2633C64.3162 84.3015 64.1895 84.2633 64.0853 84.1487L62.7002 82.597C62.67 82.5631 62.6329 82.536 62.5914 82.5177C62.5499 82.4993 62.5049 82.4901 62.4595 82.4906C62.4141 82.4911 62.3694 82.5013 62.3282 82.5205C62.2871 82.5398 62.2506 82.5677 62.2212 82.6022L61.0548 83.9508C60.9972 84.0185 60.9258 84.0729 60.8452 84.1106C60.7647 84.1483 60.6769 84.1683 60.5877 84.1692C60.4985 84.1702 60.4099 84.1522 60.328 84.1163C60.246 84.0805 60.1725 84.0276 60.1123 83.9613L58.8209 82.5085C58.7949 82.48 58.7631 82.4575 58.7278 82.4423C58.6924 82.4272 58.6544 82.4199 58.6162 82.4209C58.5781 82.4219 58.5407 82.4312 58.5069 82.4481C58.473 82.465 58.4433 82.4892 58.42 82.5189L56.9828 84.2581C56.9495 84.2987 56.9079 84.3316 56.8607 84.3546C56.8136 84.3775 56.7621 84.3899 56.71 84.3909C56.6579 84.3919 56.6064 84.3815 56.559 84.3603C56.5117 84.3392 56.4697 84.3078 56.4361 84.2685L55.077 82.6907Z" fill="#FFA000"/>
<path d="M94 50C94 74.3005 74.3005 94 50 94C25.6995 94 6 74.3005 6 50C6 25.6995 25.6995 6 50 6C74.3005 6 94 25.6995 94 50ZM7.22493 50C7.22493 73.624 26.376 92.7751 50 92.7751C73.624 92.7751 92.7751 73.624 92.7751 50C92.7751 26.376 73.624 7.22493 50 7.22493C26.376 7.22493 7.22493 26.376 7.22493 50Z" fill="#EF8411"/>
<path d="M16.9214 17.8411L19.7755 28.4925L9.12402 25.6385L16.9214 17.8411Z" fill="#FFA000"/>
<path d="M81.1169 64.0519L81.1169 68.5337L84.9983 66.2928L81.1169 64.0519Z" fill="#4BBD97"/>
<rect x="28.9111" y="85.6685" width="8.33136" height="8.33136" fill="#FFA000"/>
<rect x="9.64502" y="42.9705" width="8.33136" height="8.33136" fill="#4BBD97"/>
<rect x="14.0714" y="48.4378" width="7.81065" height="7.81065" stroke="#FEC92F" stroke-width="0.52071"/>
<rect x="78.3789" y="32.5562" width="5.44743" height="5.44743" fill="#FEC92F"/>
<rect x="81.2728" y="36.1312" width="5.10696" height="5.10696" stroke="#FEC92F" stroke-width="0.340464"/>
<circle cx="84.1067" cy="23.1833" r="3.12426" fill="#4BBD97"/>
<circle cx="20.3196" cy="68.2248" r="1.82249" fill="#FFA000"/>
</svg>
