<svg width="100" height="100" viewBox="0 0 100 100" fill="none" xmlns="http://www.w3.org/2000/svg">
<rect width="100" height="100" fill="#595C62"/>
<path d="M17.1983 40.8203H24.0655C25.4248 40.8203 26.4366 40.8789 27.1006 40.9961C27.7725 41.1055 28.3702 41.3398 28.8936 41.6992C29.4248 42.0586 29.8662 42.5391 30.2178 43.1406C30.5694 43.7344 30.7452 44.4023 30.7452 45.1445C30.7452 45.9492 30.5264 46.6875 30.0889 47.3594C29.6592 48.0312 29.0733 48.5352 28.3311 48.8711C29.378 49.1758 30.1827 49.6953 30.7452 50.4297C31.3077 51.1641 31.5889 52.0273 31.5889 53.0195C31.5889 53.8008 31.4053 54.5625 31.0381 55.3047C30.6787 56.0391 30.1827 56.6289 29.5498 57.0742C28.9248 57.5117 28.1514 57.7812 27.2295 57.8828C26.6514 57.9453 25.2569 57.9844 23.0459 58H17.1983V40.8203ZM20.667 43.6797V47.6523H22.9405C24.292 47.6523 25.1319 47.6328 25.46 47.5938C26.0537 47.5234 26.5186 47.3203 26.8545 46.9844C27.1983 46.6406 27.3702 46.1914 27.3702 45.6367C27.3702 45.1055 27.2217 44.6758 26.9248 44.3477C26.6358 44.0117 26.2022 43.8086 25.6241 43.7383C25.2803 43.6992 24.292 43.6797 22.6592 43.6797H20.667ZM20.667 50.5117V55.1055H23.878C25.128 55.1055 25.9209 55.0703 26.2569 55C26.7725 54.9062 27.1905 54.6797 27.5108 54.3203C27.8389 53.9531 28.003 53.4648 28.003 52.8555C28.003 52.3398 27.878 51.9023 27.628 51.543C27.378 51.1836 27.0147 50.9219 26.5381 50.7578C26.0694 50.5938 25.0459 50.5117 23.4678 50.5117H20.667ZM34.8786 40.8203H41.2184C42.6481 40.8203 43.738 40.9297 44.488 41.1484C45.4958 41.4453 46.3591 41.9727 47.0778 42.7305C47.7966 43.4883 48.3434 44.418 48.7184 45.5195C49.0934 46.6133 49.2809 47.9648 49.2809 49.5742C49.2809 50.9883 49.1052 52.207 48.7536 53.2305C48.3239 54.4805 47.7106 55.4922 46.9137 56.2656C46.3122 56.8516 45.4997 57.3086 44.4762 57.6367C43.7106 57.8789 42.6872 58 41.4059 58H34.8786V40.8203ZM38.3473 43.7266V55.1055H40.9372C41.9059 55.1055 42.6052 55.0508 43.0348 54.9414C43.5973 54.8008 44.0622 54.5625 44.4294 54.2266C44.8044 53.8906 45.1091 53.3398 45.3434 52.5742C45.5778 51.8008 45.695 50.75 45.695 49.4219C45.695 48.0938 45.5778 47.0742 45.3434 46.3633C45.1091 45.6523 44.7809 45.0977 44.3591 44.6992C43.9372 44.3008 43.402 44.0312 42.7536 43.8906C42.2692 43.7812 41.32 43.7266 39.9059 43.7266H38.3473ZM52.5941 58V40.8203H58.1605C60.2698 40.8203 61.6448 40.9062 62.2855 41.0781C63.2698 41.3359 64.0941 41.8984 64.7581 42.7656C65.4222 43.625 65.7542 44.7383 65.7542 46.1055C65.7542 47.1602 65.5628 48.0469 65.18 48.7656C64.7972 49.4844 64.3089 50.0508 63.7152 50.4648C63.1292 50.8711 62.5316 51.1406 61.9222 51.2734C61.0941 51.4375 59.8948 51.5195 58.3245 51.5195H56.0628V58H52.5941ZM56.0628 43.7266V48.6016H57.9613C59.3284 48.6016 60.2425 48.5117 60.7034 48.332C61.1644 48.1523 61.5238 47.8711 61.7816 47.4883C62.0472 47.1055 62.18 46.6602 62.18 46.1523C62.18 45.5273 61.9964 45.0117 61.6292 44.6055C61.262 44.1992 60.7972 43.9453 60.2347 43.8438C59.8206 43.7656 58.9886 43.7266 57.7386 43.7266H56.0628ZM79.9541 51.6836L83.3173 52.75C82.8017 54.625 81.9423 56.0195 80.7392 56.9336C79.5439 57.8398 78.0244 58.293 76.1806 58.293C73.8994 58.293 72.0244 57.5156 70.5556 55.9609C69.0869 54.3984 68.3525 52.2656 68.3525 49.5625C68.3525 46.7031 69.0908 44.4844 70.5673 42.9062C72.0439 41.3203 73.9853 40.5273 76.3916 40.5273C78.4931 40.5273 80.2002 41.1484 81.5127 42.3906C82.2939 43.125 82.8798 44.1797 83.2705 45.5547L79.8369 46.375C79.6338 45.4844 79.208 44.7812 78.5595 44.2656C77.9189 43.75 77.1377 43.4922 76.2158 43.4922C74.9423 43.4922 73.9072 43.9492 73.1103 44.8633C72.3213 45.7773 71.9267 47.2578 71.9267 49.3047C71.9267 51.4766 72.3173 53.0234 73.0986 53.9453C73.8798 54.8672 74.8955 55.3281 76.1455 55.3281C77.0673 55.3281 77.8603 55.0352 78.5244 54.4492C79.1884 53.8633 79.665 52.9414 79.9541 51.6836Z" fill="#F8F8F8"/>
</svg>
