<svg width="100" height="100" viewBox="0 0 100 100" fill="none" xmlns="http://www.w3.org/2000/svg">
<rect width="100" height="100" fill="white"/>
<path d="M77.3771 32.9406C84.0471 37.2306 98.5971 49.4006 87.1071 57.3306C72.2871 67.5606 50.8971 62.8706 35.0671 57.1806C34.9615 57.1416 34.8735 57.0659 34.819 56.9674C34.7645 56.8688 34.7472 56.754 34.7702 56.6438C34.7932 56.5336 34.855 56.4353 34.9443 56.3668C35.0337 56.2984 35.1447 56.2642 35.2571 56.2706C44.9471 57.0006 73.7971 55.5206 66.8971 37.8206C64.4671 31.5906 59.7871 26.0106 54.9471 21.5706C54.8781 21.5256 54.8299 21.4549 54.813 21.3743C54.7961 21.2936 54.812 21.2096 54.8571 21.1406C54.9022 21.0717 54.9728 21.0235 55.0534 21.0066C55.1341 20.9897 55.2181 21.0056 55.2871 21.0506C62.9337 24.4173 70.2971 28.3806 77.3771 32.9406Z" fill="#34339C"/>
<path d="M11.2668 45.9905C-4.06319 59.6805 39.1268 76.7405 46.5468 79.3705C36.0768 70.9305 20.7768 52.7305 44.9268 46.3905C50.9868 44.7972 57.0701 43.9305 63.1768 43.7905C63.2934 43.7914 63.4061 43.749 63.4932 43.6714C63.5802 43.5938 63.6353 43.4867 63.6477 43.3708C63.6602 43.2549 63.6292 43.1385 63.5606 43.0442C63.4921 42.9499 63.3909 42.8844 63.2768 42.8605C47.8368 38.9205 24.4668 34.1905 11.2668 45.9905Z" fill="#CC0000"/>
</svg>
