<svg width="100" height="100" viewBox="0 0 100 100" fill="none" xmlns="http://www.w3.org/2000/svg">
<rect width="100" height="100" fill="white"/>
<path d="M80.3164 33.5691L50.1316 16.3656C50.0903 16.3418 50.0434 16.3292 49.9957 16.3292C49.948 16.3292 49.9011 16.3418 49.8598 16.3656L19.4457 33.6286C19.404 33.6527 19.3694 33.6874 19.3455 33.7292C19.3217 33.771 19.3093 33.8184 19.3097 33.8665V42.2431C19.3093 42.2912 19.3217 42.3386 19.3455 42.3804C19.3694 42.4222 19.404 42.4569 19.4457 42.481L55.0081 62.7769C55.0486 62.801 55.0821 62.8352 55.1054 62.8761C55.1287 62.9171 55.1409 62.9634 55.1409 63.0105C55.1409 63.0576 55.1287 63.1039 55.1054 63.1449C55.0821 63.1859 55.0486 63.2201 55.0081 63.2442L50.1741 66.1496C50.1336 66.1748 50.0871 66.1888 50.0393 66.1903C49.9916 66.1918 49.9443 66.1807 49.9023 66.1581L14.1359 45.8112C14.0943 45.7872 14.0597 45.7525 14.0358 45.7107C14.0119 45.6689 13.9996 45.6215 14 45.5734V30.5702C13.9996 30.5221 14.0119 30.4747 14.0358 30.4329C14.0597 30.3911 14.0943 30.3564 14.1359 30.3323L49.8343 10.0364C49.8756 10.0126 49.9225 10 49.9702 10C50.018 10 50.0648 10.0126 50.1062 10.0364L85.864 30.3918C85.9057 30.4159 85.9402 30.4506 85.9641 30.4924C85.988 30.5342 86.0004 30.5815 85.9999 30.6297V45.4544C85.9989 45.5011 85.9858 45.5468 85.962 45.5869C85.9382 45.6271 85.9044 45.6605 85.864 45.6838L80.7497 48.6743C80.7083 48.6981 80.6615 48.7107 80.6137 48.7107C80.566 48.7107 80.5191 48.6981 80.4778 48.6743L75.5249 45.9132C75.484 45.8899 75.4498 45.8563 75.4258 45.8157C75.4017 45.7752 75.3886 45.7291 75.3878 45.682C75.3869 45.6349 75.3983 45.5883 75.4209 45.547C75.4434 45.5056 75.4763 45.4708 75.5164 45.4459L80.3844 42.549C80.4248 42.5256 80.4586 42.4922 80.4824 42.4521C80.5062 42.4119 80.5192 42.3663 80.5203 42.3196L80.4523 33.7985C80.4513 33.7518 80.4382 33.7062 80.4144 33.666C80.3906 33.6258 80.3568 33.5925 80.3164 33.5691Z" fill="#1980B1"/>
<path d="M27.1618 38.3776L62.0956 58.2318C62.6223 58.5263 62.6223 58.8208 62.0956 59.1153L57.6439 61.613C57.3834 61.7602 57.1229 61.7602 56.8623 61.613C45.3084 55.0601 33.7657 48.4987 22.2344 41.9288C20.4163 40.8923 21.1215 37.1288 21.1979 35.2427C21.2029 35.1154 21.2406 34.9911 21.3074 34.8812C21.3742 34.7713 21.4681 34.6794 21.5802 34.6141L49.2248 18.9143C49.3591 18.8367 49.5115 18.7959 49.6666 18.7959C49.8217 18.7959 49.974 18.8367 50.1084 18.9143L77.685 34.5631C77.8189 34.6376 77.9305 34.7478 78.0081 34.8822C78.0858 35.0167 78.1268 35.1705 78.1267 35.3277L78.0333 40.9178C78.0331 41.0346 78.0024 41.1493 77.9443 41.2506C77.8862 41.3519 77.8027 41.4363 77.7019 41.4955L72.9614 44.3075C72.7632 44.4208 72.565 44.4208 72.3667 44.3075L67.5413 41.5465C67.2297 41.3709 67.2297 41.1953 67.5413 41.0197L72.1883 38.3776C72.5338 38.1794 72.5338 37.9812 72.1883 37.7829L50.0829 25.218C49.794 25.0537 49.5052 25.0537 49.2163 25.218L27.1618 37.7829C26.8107 37.9812 26.8107 38.1794 27.1618 38.3776Z" fill="#1980B1"/>
<path d="M50.0297 83.7185L80.3334 66.532C80.378 66.5062 80.4149 66.469 80.4403 66.4242C80.4657 66.3794 80.4787 66.3286 80.4778 66.2771V57.7391C80.4787 57.6876 80.4657 57.6368 80.4403 57.592C80.4149 57.5472 80.378 57.51 80.3334 57.4842L44.9324 37.2818C44.8883 37.2565 44.8516 37.22 44.8261 37.176C44.8006 37.132 44.7872 37.082 44.7872 37.0311C44.7872 36.9803 44.8006 36.9303 44.8261 36.8863C44.8516 36.8423 44.8883 36.8058 44.9324 36.7805L49.8598 33.943C49.9037 33.9176 49.9535 33.9043 50.0042 33.9043C50.055 33.9043 50.1048 33.9176 50.1487 33.943L85.8555 54.3154C85.9002 54.3411 85.9371 54.3783 85.9625 54.4231C85.9878 54.4679 86.0008 54.5187 86 54.5702V69.4714C86.0008 69.5229 85.9878 69.5737 85.9625 69.6185C85.9371 69.6634 85.9002 69.7006 85.8555 69.7263L50.1062 90.0307C50.0623 90.0561 50.0125 90.0694 49.9618 90.0694C49.9111 90.0694 49.8613 90.0561 49.8173 90.0307L14.1445 69.7093C14.0999 69.6836 14.0629 69.6464 14.0375 69.6016C14.0122 69.5567 13.9992 69.506 14 69.4545V54.4598C13.9992 54.4083 14.0122 54.3575 14.0375 54.3127C14.0629 54.2679 14.0999 54.2307 14.1445 54.2049L19.2333 51.3504C19.278 51.3263 19.3282 51.3144 19.3789 51.3159C19.4296 51.3174 19.479 51.3322 19.5222 51.3589L24.4496 54.2219C24.4937 54.2472 24.5304 54.2837 24.5559 54.3277C24.5814 54.3717 24.5948 54.4217 24.5948 54.4725C24.5948 54.5234 24.5814 54.5734 24.5559 54.6174C24.5304 54.6614 24.4937 54.6979 24.4496 54.7232L19.4627 57.4842C19.4165 57.5088 19.3779 57.5456 19.3509 57.5905C19.324 57.6354 19.3098 57.6867 19.3098 57.7391V66.2261C19.3089 66.2776 19.3219 66.3284 19.3473 66.3732C19.3727 66.4181 19.4096 66.4553 19.4542 66.481L49.7409 83.7185C49.7848 83.7439 49.8346 83.7572 49.8853 83.7572C49.936 83.7572 49.9858 83.7439 50.0297 83.7185Z" fill="#B4BAC2"/>
<path d="M72.0074 61.6979L36.9207 41.7503C36.8688 41.7207 36.8254 41.6782 36.7947 41.627C36.7639 41.5758 36.7469 41.5175 36.7452 41.4578C36.7435 41.398 36.7571 41.3389 36.7849 41.286C36.8127 41.233 36.8536 41.1882 36.9037 41.1556L41.6442 38.2671C41.6974 38.2337 41.7586 38.2152 41.8215 38.2137C41.8843 38.2122 41.9463 38.2278 42.001 38.2586L77.9373 58.699C77.9917 58.7294 78.0369 58.7738 78.0683 58.8275C78.0996 58.8813 78.116 58.9425 78.1157 59.0048L78.0307 65.0537C78.0304 65.1137 78.0146 65.1726 77.9849 65.2247C77.9551 65.2768 77.9124 65.3203 77.8608 65.351L49.7235 81.3397C49.6716 81.3687 49.6131 81.3839 49.5536 81.3839C49.4941 81.3839 49.4356 81.3687 49.3837 81.3397L21.1784 65.3085C21.124 65.2782 21.0788 65.2338 21.0474 65.18C21.0161 65.1262 20.9997 65.065 21 65.0027L21.0425 58.9708C21.0428 58.9108 21.0586 58.8519 21.0884 58.7998C21.1181 58.7477 21.1609 58.7042 21.2124 58.6735L26.3437 55.6916C26.3977 55.6594 26.4593 55.6424 26.5221 55.6424C26.5849 55.6424 26.6466 55.6594 26.7005 55.6916L31.577 58.5121C31.6299 58.5427 31.6739 58.5866 31.7044 58.6396C31.735 58.6925 31.751 58.7525 31.751 58.8137C31.751 58.8748 31.735 58.9348 31.7044 58.9878C31.6739 59.0407 31.6299 59.0847 31.577 59.1153L27.0064 61.7064C26.9514 61.7364 26.9055 61.7806 26.8736 61.8344C26.8416 61.8882 26.8247 61.9497 26.8247 62.0123C26.8247 62.0748 26.8416 62.1363 26.8736 62.1901C26.9055 62.2439 26.9514 62.2881 27.0064 62.3181L49.3327 75.036C49.3846 75.065 49.4431 75.0802 49.5026 75.0802C49.5621 75.0802 49.6206 75.065 49.6725 75.036L72.0074 62.3096C72.0623 62.2796 72.1082 62.2354 72.1402 62.1816C72.1721 62.1278 72.189 62.0664 72.189 62.0038C72.189 61.9412 72.1721 61.8797 72.1402 61.8259C72.1082 61.7721 72.0623 61.7279 72.0074 61.6979Z" fill="#B4BAC2"/>
</svg>
