<svg width="100" height="100" viewBox="0 0 100 100" fill="none" xmlns="http://www.w3.org/2000/svg">
<rect width="100" height="100" fill="white"/>
<path d="M48.3518 9H51.0705C70.6477 9.92159 86.2831 23.1795 90.283 42.3189C90.6724 44.1911 90.7853 46.3826 91 48.3927V51.7416C89.6752 73.3627 73.3082 89.6104 51.6638 91H47.6821C31.6426 90.024 17.9652 80.6049 11.6142 65.8485C11.6047 65.8274 11.6013 65.8042 11.6044 65.7813C11.6076 65.7584 11.617 65.7369 11.6318 65.7191C11.6466 65.7013 11.6661 65.6881 11.6881 65.6808C11.7101 65.6735 11.7336 65.6725 11.7562 65.678C28.5563 69.7199 48.7958 64.6947 56.7118 48.0008C56.7234 47.9781 56.7273 47.9523 56.7231 47.9272C56.719 47.9021 56.7069 47.8789 56.6886 47.8611C56.6704 47.8433 56.6469 47.8318 56.6216 47.8282C56.5963 47.8246 56.5706 47.8292 56.548 47.8412C42.0445 55.2466 25.4008 55.8343 10.0965 49.9202C9.98976 49.8791 9.97157 49.8137 10.0419 49.7242C13.6232 45.0836 18.5039 43.8972 24.1597 44.6337C31.0603 45.5311 37.9633 46.414 44.8687 47.2824C46.31 47.4638 48.888 47.511 52.6028 47.4239C63.6925 47.1663 72.6276 41.5097 79.5172 33.1827C79.6968 32.9675 79.647 32.878 79.368 32.9142C67.3988 34.4817 55.3603 34.6014 43.2528 33.2735C39.9869 32.913 35.5006 32.2116 29.7937 31.169C23.7739 30.066 19.1044 29.8084 13.4631 30.8026C13.2981 30.8316 13.2544 30.7723 13.3321 30.6248C20.3637 17.3959 33.5316 9.86717 48.3518 9Z" fill="#ED1C24"/>
</svg>
