<svg width="100" height="100" viewBox="0 0 100 100" fill="none" xmlns="http://www.w3.org/2000/svg">
<rect width="100" height="100" fill="white"/>
<path d="M20.2869 38.0952C19.8998 38.0645 19.4432 38.1306 18.9172 38.2934C18.733 38.3495 18.6248 38.3161 18.5928 38.1933" stroke="#4EB74B" stroke-width="0.400506"/>
<path d="M21.499 39.4628L20.2014 39.0783C20.1777 39.0714 20.1528 39.0699 20.1285 39.0741C20.1042 39.0783 20.0812 39.0879 20.0612 39.1023C19.7421 39.3346 19.4104 39.3653 19.0659 39.1944C19.0345 39.1784 18.9996 39.1704 18.9643 39.1711C18.929 39.1718 18.8945 39.1812 18.8637 39.1984L17.7783 39.8092" stroke="#4EB74B" stroke-width="0.400506"/>
<path d="M21.8851 40.3682C21.7074 40.6033 21.7201 40.8771 21.9232 41.1896" stroke="#C3A82F" stroke-width="0.400506"/>
<path d="M21.9233 41.189C21.9179 41.2504 21.8799 41.3159 21.8091 41.3853" stroke="#C9DF9F" stroke-width="0.400506"/>
<path d="M21.809 41.3852C21.6034 41.3999 21.4025 41.3692 21.2063 41.2931C21.1483 41.2707 21.0864 41.2608 21.0244 41.264C20.9624 41.2672 20.9017 41.2834 20.8464 41.3115C20.7911 41.3396 20.7423 41.3791 20.7032 41.4273C20.6641 41.4756 20.6356 41.5315 20.6195 41.5915L20.1289 43.4118" stroke="#BB645E" stroke-width="0.400506"/>
<path d="M20.1291 43.412L19.7646 42.1424C19.7352 42.042 19.6687 41.9564 19.5784 41.9029C19.4882 41.8494 19.3808 41.832 19.278 41.854L17.6079 42.2185" stroke="#C3A82F" stroke-width="0.400506"/>
<path d="M17.6077 42.2186C17.7252 42.0196 17.7219 41.9047 17.5977 41.874" stroke="#C9DF9F" stroke-width="0.400506"/>
<path d="M17.598 41.8748C18.2231 41.2777 18.187 40.7247 17.3535 40.3721" stroke="#B96F33" stroke-width="0.400506"/>
<path d="M17.5981 41.874L16.9028 42.3689" stroke="#EF8F93" stroke-width="0.400506"/>
<path d="M16.9028 42.3687L17.6538 45.9071" stroke="#E95824" stroke-width="0.400506"/>
<path d="M14.8021 46.0772L14.1773 43.2857C14.1626 43.2203 14.1272 43.1682 14.0712 43.1295C13.931 43.0347 13.7941 43.0127 13.6606 43.0634" stroke="#E95824" stroke-width="0.400506"/>
<path d="M25.2095 42.3185C25.0973 42.2758 25.0326 42.2838 25.0152 42.3425C24.7135 43.3691 24.4352 44.4051 24.1802 45.4504" stroke="#EA4C4F" stroke-width="0.400506"/>
<path d="M22.252 45.5784L23.2012 42.096C23.2121 42.0557 23.2142 42.0134 23.2072 41.9722C23.2002 41.931 23.1844 41.8918 23.1608 41.8574C23.1372 41.8229 23.1063 41.794 23.0704 41.7726C23.0345 41.7512 22.9944 41.7379 22.9528 41.7335C22.7553 41.7135 22.6004 41.6655 22.4883 41.5894" stroke="#EA4C4F" stroke-width="0.400506"/>
<path d="M22.4883 41.5897C22.3454 41.416 22.1571 41.2825 21.9233 41.189" stroke="#F9C890" stroke-width="0.400506"/>
<path d="M16.9028 42.3688C17.2595 42.3501 17.4946 42.3 17.6081 42.2185" stroke="#F9C890" stroke-width="0.400506"/>
<path d="M22.4883 41.5899L21.8091 41.3855" stroke="#F184BF" stroke-width="0.400506"/>
<path d="M20.5174 45.6965L20.1289 43.4116" stroke="#EA4C4F" stroke-width="0.400506"/>
<path d="M20.2874 38.0952C19.9003 38.0644 19.4437 38.1305 18.9177 38.2934C18.7335 38.3495 18.6253 38.3161 18.5933 38.1933L18.1527 37.4183C18.1421 37.4003 18.1373 37.3795 18.139 37.3587C18.1408 37.338 18.1489 37.3182 18.1625 37.302C18.176 37.2859 18.1942 37.2742 18.2146 37.2685C18.2351 37.2628 18.2568 37.2634 18.2769 37.2701L18.6974 37.4143C18.7628 37.437 18.8109 37.4176 18.8416 37.3562C19.2301 36.5532 19.7828 37.4704 20.2153 37.0478C20.2429 37.0219 20.278 37.0056 20.3156 37.0012C20.3532 36.9968 20.3911 37.0046 20.4239 37.0235C20.4567 37.0423 20.4825 37.0712 20.4976 37.1059C20.5127 37.1406 20.5162 37.1792 20.5077 37.216L20.2874 38.0952Z" fill="#93BF3E"/>
<path d="M51.8532 37.1842V60.6719C51.8532 60.7392 51.8299 60.805 51.7871 60.8581C50.8139 62.0797 49.5356 62.6691 47.9523 62.6263C47.8829 62.6237 47.8481 62.5883 47.8481 62.5202V39.1347C47.8481 39.0759 47.8668 39.0239 47.9042 38.9785C48.9095 37.7836 50.2045 37.1642 51.7891 37.1201C51.8061 37.1201 51.8224 37.1269 51.8344 37.1389C51.8465 37.1509 51.8532 37.1672 51.8532 37.1842Z" fill="#0094D9"/>
<path d="M78.521 39.339C78.509 38.0493 81.3106 37.1782 82.3579 37.1142C82.3825 37.1125 82.4073 37.116 82.4305 37.1244C82.4538 37.1328 82.4751 37.146 82.4931 37.1631C82.5111 37.1802 82.5255 37.2008 82.5353 37.2238C82.5451 37.2467 82.5502 37.2714 82.5501 37.2964V60.5958C82.5501 60.6706 82.5274 60.738 82.482 60.7981C81.5248 62.057 80.2432 62.6665 78.6372 62.6264C78.5597 62.6237 78.521 62.5844 78.521 62.5083C78.5571 50.8909 78.5571 43.1678 78.521 39.339Z" fill="#0094D9"/>
<path d="M21.4989 39.463L20.2012 39.0785C20.1776 39.0716 20.1527 39.0702 20.1284 39.0744C20.1041 39.0785 20.0811 39.0882 20.0611 39.1025C19.742 39.3348 19.4102 39.3655 19.0658 39.1947C19.0344 39.1786 18.9995 39.1706 18.9642 39.1713C18.9289 39.172 18.8943 39.1814 18.8636 39.1987L17.7782 39.8094C17.5859 39.206 17.5158 38.6012 17.5679 37.9951C17.5746 37.9284 17.6093 37.9044 17.672 37.9231L18.5932 38.1934C18.6252 38.3162 18.7334 38.3496 18.9176 38.2935C19.4436 38.1307 19.9002 38.0646 20.2873 38.0953L21.1044 37.5446C21.2245 37.4631 21.292 37.4945 21.3066 37.6387L21.4989 39.463Z" fill="#09AF57"/>
<path d="M21.4988 39.4628C21.7164 39.619 21.8452 39.9207 21.8852 40.3679C21.7077 40.6029 21.7204 40.8765 21.9233 41.1889C21.918 41.2504 21.8799 41.3158 21.8091 41.3852C21.6036 41.3999 21.4026 41.3692 21.2064 41.2931C21.1485 41.2707 21.0865 41.2608 21.0245 41.264C20.9625 41.2672 20.9019 41.2834 20.8465 41.3115C20.7912 41.3396 20.7424 41.3791 20.7033 41.4273C20.6642 41.4756 20.6357 41.5315 20.6196 41.5915L20.129 43.4118L19.7646 42.1421C19.7351 42.0417 19.6686 41.9561 19.5784 41.9027C19.4881 41.8492 19.3808 41.8317 19.2779 41.8538L17.6078 42.2182C17.7253 42.0193 17.722 41.9045 17.5978 41.8738C18.2226 41.2771 18.1866 40.7244 17.3535 40.3719L17.7781 39.8092L18.8634 39.1984C18.8942 39.1812 18.9288 39.1718 18.964 39.1711C18.9993 39.1704 19.0342 39.1784 19.0657 39.1944C19.4101 39.3653 19.7419 39.3346 20.0609 39.1023C20.0809 39.0879 20.104 39.0783 20.1283 39.0741C20.1525 39.0699 20.1775 39.0714 20.2011 39.0783L21.4988 39.4628Z" fill="#93BF3E"/>
<path d="M25.2092 42.3187C25.0971 42.276 25.0323 42.284 25.015 42.3428C24.7133 43.3694 24.4349 44.4054 24.1799 45.4507L22.2515 45.5789L23.2007 42.0965C23.2117 42.0561 23.2137 42.0139 23.2068 41.9727C23.1998 41.9315 23.1839 41.8923 23.1603 41.8578C23.1367 41.8233 23.1059 41.7944 23.07 41.773C23.0341 41.7517 22.9939 41.7383 22.9524 41.734C22.7548 41.714 22.5999 41.6659 22.4878 41.5898C22.3449 41.4163 22.1567 41.2828 21.9231 41.1893C21.7202 40.8769 21.7075 40.6032 21.885 40.3683C22.8182 39.6654 23.459 40.5525 23.8195 41.3014C23.8488 41.3615 23.8942 41.4042 23.9556 41.4296L24.5864 41.6819C24.6146 41.6933 24.6454 41.6963 24.6753 41.6906C24.7051 41.685 24.7327 41.6708 24.7547 41.6499C25.3815 41.0331 26.6891 40.3823 26.9815 41.6599C26.9871 41.6844 26.9876 41.71 26.9827 41.7348C26.9779 41.7596 26.9679 41.7832 26.9534 41.8041C26.4868 42.4449 25.79 42.1405 25.2092 42.3187Z" fill="#F29020"/>
<path d="M17.3534 40.3721C18.1864 40.7245 18.2225 41.2772 17.5977 41.874L16.9028 42.3686L17.6537 45.9071L14.8021 46.0773L14.1774 43.2858C14.1627 43.2203 14.1273 43.1683 14.0712 43.1296C13.931 43.0348 13.7942 43.0127 13.6607 43.0635C12.9578 42.8692 11.6542 42.3826 12.6815 41.5496C13.5005 40.8847 14.4477 41.7538 14.9784 42.3626C15.0278 42.42 15.0878 42.4333 15.1586 42.4026L15.6572 42.1904C15.7226 42.1623 15.762 42.1136 15.7754 42.0442C15.981 40.9935 16.507 40.4362 17.3534 40.3721Z" fill="#DF1F27"/>
<path d="M22.38 40.919C22.349 40.9023 22.3236 40.8769 22.3068 40.8459C22.2901 40.815 22.2828 40.7798 22.2858 40.7447C22.3032 40.5363 22.4454 40.4709 22.7126 40.5483C22.9637 40.6205 23.1694 40.8836 23.3297 41.3378C23.3328 41.3469 23.3332 41.3568 23.3306 41.3661C23.3281 41.3754 23.3228 41.3838 23.3154 41.39C23.3081 41.3963 23.299 41.4002 23.2894 41.4013C23.2798 41.4023 23.2701 41.4004 23.2616 41.3959L22.38 40.919Z" fill="white"/>
<path d="M16.4925 42.0968C16.4904 42.099 16.488 42.1007 16.4852 42.1019C16.4825 42.1031 16.4795 42.1037 16.4765 42.1037C16.4735 42.1037 16.4705 42.1031 16.4678 42.1019C16.465 42.1007 16.4625 42.099 16.4605 42.0968L16.4564 42.0908C16.4157 42.0479 16.3887 41.9926 16.3771 41.9282C16.3655 41.8638 16.3695 41.7915 16.3888 41.7154C16.4082 41.6393 16.4425 41.5609 16.4899 41.4847C16.5372 41.4085 16.5967 41.336 16.6648 41.2713L16.7189 41.2193C16.787 41.1545 16.8625 41.0989 16.941 41.0555C17.0196 41.0121 17.0996 40.9818 17.1767 40.9664C17.2537 40.951 17.3262 40.9507 17.3899 40.9655C17.4537 40.9804 17.5076 41.0101 17.5484 41.053L17.5544 41.059C17.5565 41.0612 17.5581 41.0638 17.5591 41.0666C17.5601 41.0694 17.5605 41.0724 17.5603 41.0754C17.5602 41.0784 17.5594 41.0814 17.558 41.084C17.5566 41.0867 17.5547 41.0891 17.5524 41.091L16.4925 42.0968Z" fill="white"/>
<path d="M21.9233 41.189C22.157 41.2825 22.3454 41.416 22.4883 41.5897L21.8091 41.3853C21.8799 41.3159 21.9179 41.2504 21.9233 41.189Z" fill="white"/>
<path d="M21.809 41.3852L22.4879 41.5895C22.6 41.6655 22.7549 41.7136 22.9525 41.7336C22.994 41.738 23.0342 41.7513 23.0701 41.7727C23.106 41.7941 23.1368 41.823 23.1604 41.8575C23.184 41.8919 23.1999 41.9311 23.2068 41.9723C23.2138 42.0135 23.2118 42.0558 23.2008 42.0961L22.2516 45.5785L20.5174 45.6966L20.1289 43.4118L20.6195 41.5915C20.6356 41.5315 20.6641 41.4756 20.7032 41.4273C20.7423 41.3791 20.7911 41.3396 20.8464 41.3115C20.9017 41.2834 20.9624 41.2672 21.0244 41.264C21.0864 41.2608 21.1483 41.2707 21.2063 41.2931C21.4025 41.3692 21.6034 41.3999 21.809 41.3852Z" fill="#E2087E"/>
<path d="M26.4519 41.3313C26.5162 41.334 26.5768 41.3621 26.6203 41.4094C26.6639 41.4567 26.6869 41.5195 26.6843 41.5838C26.6816 41.6481 26.6535 41.7087 26.6062 41.7523C26.5588 41.7958 26.4961 41.8188 26.4318 41.8162L25.43 41.8542C25.2818 41.8596 25.2611 41.8102 25.3679 41.706C25.6751 41.4054 26.0364 41.2806 26.4519 41.3313Z" fill="white"/>
<path d="M86.9555 45.5164C88.0791 45.5164 88.99 44.6055 88.99 43.4818C88.99 42.3582 88.0791 41.4473 86.9555 41.4473C85.8318 41.4473 84.9209 42.3582 84.9209 43.4818C84.9209 44.6055 85.8318 45.5164 86.9555 45.5164Z" fill="#0094D9"/>
<path d="M37.2509 47.249C42.3293 47.1448 46.4285 51.3962 45.4132 56.5928C44.9166 59.136 43.3666 61.0884 40.9556 62.0396C35.3245 64.2605 30.0718 60.3775 30.0698 54.5061C30.0698 51.0084 30.0725 47.5086 30.0778 44.0069C30.0798 42.3267 32.7252 41.4656 34.0208 41.4817C34.0956 41.483 34.133 41.521 34.133 41.5958C34.1276 45.968 34.1296 50.3382 34.139 54.7064C34.143 56.5467 34.8719 58.8917 36.7463 59.5505C39.3496 60.4697 41.254 57.9985 41.4983 55.6215C41.8868 51.8287 38.5866 49.4177 35.0441 50.445C34.98 50.4637 34.9553 50.4403 34.97 50.3749C35.2704 49.0866 35.9673 48.0653 37.0607 47.311C37.1181 47.271 37.1815 47.2503 37.2509 47.249Z" fill="#0094D9"/>
<path d="M56.2826 45.5628C57.4063 45.5628 58.3172 44.6519 58.3172 43.5282C58.3172 42.4046 57.4063 41.4937 56.2826 41.4937C55.159 41.4937 54.248 42.4046 54.248 43.5282C54.248 44.6519 55.159 45.5628 56.2826 45.5628Z" fill="#0094D9"/>
<path d="M75.7392 57.5656C75.0864 59.7524 73.3562 61.4065 71.2195 62.1414C66.7558 63.6813 62.2021 61.5727 60.9645 56.9889C60.7696 56.2626 60.6708 55.1259 60.6682 53.5786C60.6628 50.2984 60.6621 47.0183 60.6661 43.7381C60.6682 42.1842 63.6299 41.4392 64.7633 41.4873C64.8327 41.4913 64.8675 41.5287 64.8675 41.5994C64.8701 46.0531 64.8708 50.5054 64.8695 54.9563C64.8695 57.3233 66.5376 60.5634 69.4733 59.5701C71.4698 58.8953 72.435 56.6004 72.2728 54.5858C72.0125 51.3958 68.7363 49.4273 65.7666 50.4726C65.7025 50.4953 65.6778 50.4733 65.6925 50.4066C65.9889 49.0796 66.6998 48.0429 67.8252 47.2966C67.8903 47.2536 67.9678 47.2313 68.0475 47.2326C73.6185 47.2966 77.3572 52.1307 75.7392 57.5656Z" fill="#0094D9"/>
<path d="M12.9543 42.2487C12.9354 42.2401 12.9202 42.2252 12.9111 42.2065C12.9019 42.1879 12.8995 42.1667 12.9042 42.1466C13.0685 41.3451 14.0963 42.0965 14.3287 42.409C14.3982 42.5012 14.3748 42.5466 14.2586 42.5453C13.8031 42.5346 13.3683 42.4357 12.9543 42.2487Z" fill="white"/>
<path d="M20.1289 43.412L20.5174 45.6969L17.6538 45.9072L16.9028 42.3687C17.2593 42.35 17.4942 42.2999 17.6077 42.2185L19.2778 41.854C19.3807 41.832 19.488 41.8494 19.5782 41.9029C19.6685 41.9564 19.735 42.042 19.7644 42.1424L20.1289 43.412Z" fill="#F29020"/>
<path d="M17.5981 41.874C17.7223 41.9047 17.7256 42.0196 17.6081 42.2186C17.4946 42.3001 17.2595 42.3502 16.9028 42.3689L17.5981 41.874Z" fill="white"/>
<path d="M25.2095 42.3185L27.1599 42.8231C27.435 42.8939 27.5398 43.0668 27.4743 43.3418L27.0398 45.1841C27.0293 45.2285 27.0048 45.2683 26.9701 45.2972C26.9354 45.3262 26.8923 45.3427 26.8475 45.3443L24.1802 45.4504C24.4352 44.4051 24.7135 43.3691 25.0152 42.3425C25.0326 42.2838 25.0973 42.2758 25.2095 42.3185Z" fill="#E2087E"/>
<path d="M13.6604 43.0634C13.7939 43.0127 13.9307 43.0347 14.0709 43.1295C14.127 43.1682 14.1623 43.2203 14.177 43.2857L14.8018 46.0772L11.9682 46.2194C11.8801 46.2247 11.826 46.184 11.806 46.0972L11.3354 44.0246C11.3137 43.928 11.3306 43.8268 11.3827 43.7425C11.4347 43.6583 11.5177 43.5978 11.6138 43.574L13.6604 43.0634Z" fill="#F29020"/>
<path d="M25.8201 45.7969C26.477 45.7589 27.6124 45.4384 27.4282 46.5478C26.5618 51.7638 26.6365 56.9276 27.6525 62.0394C27.6667 62.1095 27.6651 62.1818 27.6479 62.2512C27.6306 62.3206 27.5981 62.3853 27.5527 62.4406C27.5073 62.496 27.4501 62.5407 27.3853 62.5714C27.3205 62.6021 27.2496 62.618 27.1779 62.6182H11.454C11.3865 62.6181 11.3199 62.603 11.259 62.574C11.1981 62.5449 11.1445 62.5027 11.1019 62.4504C11.0593 62.398 11.0289 62.3369 11.013 62.2713C10.997 62.2058 10.9958 62.1375 11.0094 62.0715C12.0281 57.192 12.1749 52.2677 11.45 47.2988C11.3859 46.8542 11.6903 46.636 12.1108 46.6099C16.6793 46.3296 21.249 46.0586 25.8201 45.7969Z" fill="#0094D9"/>
<path d="M54.3983 49.0169C55.3702 47.9062 56.6051 47.3321 58.103 47.2948C58.13 47.294 58.157 47.2986 58.1822 47.3084C58.2074 47.3182 58.2304 47.333 58.2499 47.3518C58.2693 47.3707 58.2847 47.3933 58.2953 47.4182C58.3058 47.4431 58.3112 47.4699 58.3112 47.497V60.7037C58.3112 60.7691 58.2905 60.8265 58.2491 60.8759C57.2586 62.0628 55.9863 62.6669 54.4323 62.6882C54.3482 62.6896 54.3062 62.6482 54.3062 62.5641V49.2613C54.3062 49.1678 54.3369 49.0864 54.3983 49.0169Z" fill="#0094D9"/>
<path d="M85.2333 48.8384C86.2372 47.8025 87.4588 47.2885 88.8979 47.2965C88.966 47.2965 89.0001 47.3305 89.0001 47.3986V60.6974C89 60.7544 88.9802 60.8096 88.944 60.8536C87.9467 62.0765 86.6498 62.6946 85.0531 62.708C84.985 62.708 84.9509 62.6739 84.9509 62.6058C84.9389 58.1909 84.9383 53.78 84.9489 49.3731C84.9509 49.1188 85.0691 49.0066 85.2333 48.8384Z" fill="#0094D9"/>
<path d="M15.6635 49.9006C15.9734 49.9006 16.2245 49.6494 16.2245 49.3396C16.2245 49.0297 15.9734 48.7786 15.6635 48.7786C15.3537 48.7786 15.1025 49.0297 15.1025 49.3396C15.1025 49.6494 15.3537 49.9006 15.6635 49.9006Z" fill="white"/>
<path d="M22.7545 49.8868C23.0577 49.8868 23.3035 49.641 23.3035 49.3378C23.3035 49.0346 23.0577 48.7888 22.7545 48.7888C22.4514 48.7888 22.2056 49.0346 22.2056 49.3378C22.2056 49.641 22.4514 49.8868 22.7545 49.8868Z" fill="white"/>
<path d="M22.8923 51.0274C23.0004 51.0468 23.0982 51.104 23.1682 51.1886C23.2383 51.2733 23.276 51.3801 23.2747 51.49C23.2147 57.0951 14.9803 56.8848 15.1024 51.4479C15.1037 51.3859 15.1198 51.325 15.1494 51.2704C15.179 51.2157 15.2213 51.1688 15.2726 51.1335C15.8394 50.7411 16.1898 51.1536 16.2118 51.7283C16.364 55.5672 21.853 55.6573 22.1433 51.7944C22.1834 51.2517 22.2615 50.9133 22.8923 51.0274Z" fill="white"/>
</svg>
