<svg width="100" height="100" viewBox="0 0 100 100" fill="none" xmlns="http://www.w3.org/2000/svg">
<rect width="100" height="100" fill="white"/>
<path d="M21 84.6683V15.3287C21 15.2415 21.0351 15.1579 21.0976 15.0963C21.1601 15.0346 21.2448 15 21.3332 15H73.1198C73.1639 14.9999 73.2077 15.0084 73.2485 15.0252C73.2892 15.0419 73.3262 15.0664 73.3573 15.0974L78.9012 20.5787C78.9326 20.6094 78.9575 20.6459 78.9745 20.6861C78.9914 20.7263 79.0001 20.7695 79 20.813V45.3343C79.0001 45.3779 78.9914 45.4211 78.9745 45.4613C78.9575 45.5015 78.9326 45.538 78.9012 45.5687L74.687 49.7261C74.6252 49.7876 74.5905 49.8708 74.5905 49.9574C74.5905 50.044 74.6252 50.1271 74.687 50.1887L78.9043 54.3704C78.9352 54.4013 78.9595 54.438 78.9759 54.4782C78.9923 54.5184 79.0005 54.5614 79 54.6048V78.9648C79.0001 79.0084 78.9914 79.0515 78.9745 79.0917C78.9575 79.132 78.9326 79.1685 78.9012 79.1991L73.1198 84.9026C73.0887 84.9336 73.0517 84.9581 73.0109 84.9748C72.9701 84.9915 72.9264 85.0001 72.8822 85L21.3332 84.9969C21.2448 84.9969 21.1601 84.9623 21.0976 84.9007C21.0351 84.839 21 84.7554 21 84.6683Z" fill="#0195D3"/>
<path d="M71.0555 76.9926C71.0555 77.0378 71.0373 77.0811 71.0049 77.1131C70.9725 77.145 70.9286 77.163 70.8828 77.163H29.1166C29.0708 77.163 29.0269 77.145 28.9945 77.1131C28.9621 77.0811 28.9438 77.0378 28.9438 76.9926V23.0073C28.9438 22.9621 28.9621 22.9188 28.9945 22.8868C29.0269 22.8549 29.0708 22.8369 29.1166 22.8369H70.8828C70.9286 22.8369 70.9725 22.8549 71.0049 22.8868C71.0373 22.9188 71.0555 22.9621 71.0555 23.0073V76.9926Z" fill="white"/>
<path d="M62.5194 46.1956H37.4313C37.3172 46.1956 37.2246 46.2869 37.2246 46.3995V53.7525C37.2246 53.8651 37.3172 53.9564 37.4313 53.9564H62.5194C62.6335 53.9564 62.7261 53.8651 62.7261 53.7525V46.3995C62.7261 46.2869 62.6335 46.1956 62.5194 46.1956Z" fill="#0195D3"/>
</svg>
