<svg width="100" height="100" viewBox="0 0 100 100" fill="none" xmlns="http://www.w3.org/2000/svg">
<rect width="100" height="100" fill="#595C62"/>
<path d="M21.1944 40.8203H28.0616C29.4209 40.8203 30.4327 40.8789 31.0967 40.9961C31.7686 41.1055 32.3662 41.3398 32.8897 41.6992C33.4209 42.0586 33.8623 42.5391 34.2139 43.1406C34.5655 43.7344 34.7412 44.4023 34.7412 45.1445C34.7412 45.9492 34.5225 46.6875 34.085 47.3594C33.6553 48.0312 33.0694 48.5352 32.3272 48.8711C33.3741 49.1758 34.1787 49.6953 34.7412 50.4297C35.3037 51.1641 35.585 52.0273 35.585 53.0195C35.585 53.8008 35.4014 54.5625 35.0342 55.3047C34.6748 56.0391 34.1787 56.6289 33.5459 57.0742C32.9209 57.5117 32.1475 57.7812 31.2256 57.8828C30.6475 57.9453 29.253 57.9844 27.042 58H21.1944V40.8203ZM24.6631 43.6797V47.6523H26.9366C28.2881 47.6523 29.128 47.6328 29.4561 47.5938C30.0498 47.5234 30.5147 47.3203 30.8506 46.9844C31.1944 46.6406 31.3662 46.1914 31.3662 45.6367C31.3662 45.1055 31.2178 44.6758 30.9209 44.3477C30.6319 44.0117 30.1983 43.8086 29.6202 43.7383C29.2764 43.6992 28.2881 43.6797 26.6553 43.6797H24.6631ZM24.6631 50.5117V55.1055H27.8741C29.1241 55.1055 29.917 55.0703 30.253 55C30.7686 54.9062 31.1866 54.6797 31.5069 54.3203C31.835 53.9531 31.9991 53.4648 31.9991 52.8555C31.9991 52.3398 31.8741 51.9023 31.6241 51.543C31.3741 51.1836 31.0108 50.9219 30.5342 50.7578C30.0655 50.5938 29.042 50.5117 27.4639 50.5117H24.6631ZM46.8786 51.6836V48.7891H54.3552V55.6328C53.6286 56.3359 52.5739 56.957 51.1911 57.4961C49.8161 58.0273 48.4216 58.293 47.0075 58.293C45.2106 58.293 43.6442 57.918 42.3083 57.168C40.9723 56.4102 39.9684 55.332 39.2966 53.9336C38.6247 52.5273 38.2887 51 38.2887 49.3516C38.2887 47.5625 38.6637 45.9727 39.4137 44.582C40.1637 43.1914 41.2614 42.125 42.7067 41.3828C43.8083 40.8125 45.1794 40.5273 46.82 40.5273C48.9528 40.5273 50.6169 40.9766 51.8122 41.875C53.0153 42.7656 53.7887 44 54.1325 45.5781L50.6872 46.2227C50.445 45.3789 49.988 44.7148 49.3161 44.2305C48.652 43.7383 47.82 43.4922 46.82 43.4922C45.3044 43.4922 44.0973 43.9727 43.1989 44.9336C42.3083 45.8945 41.863 47.3203 41.863 49.2109C41.863 51.25 42.3161 52.7812 43.2223 53.8047C44.1286 54.8203 45.3161 55.3281 46.7848 55.3281C47.5114 55.3281 48.238 55.1875 48.9645 54.9062C49.6989 54.6172 50.3278 54.2695 50.8512 53.8633V51.6836H46.8786ZM57.8206 58V40.8203H61.2894V58H57.8206ZM65.0009 58V40.8203H68.3759L75.4072 52.293V40.8203H78.6298V58H75.1494L68.2236 46.7969V58H65.0009Z" fill="#F8F8F8"/>
</svg>
