<svg width="100" height="100" viewBox="0 0 100 100" fill="none" xmlns="http://www.w3.org/2000/svg">
<rect width="100" height="100" fill="white"/>
<path d="M55.5701 57.3599C60.9701 53.3466 60.9601 49.0799 55.5401 44.5599L86.7801 44.5199C87.2148 44.5193 87.633 44.6852 87.9477 44.9832C88.2625 45.2812 88.4495 45.6883 88.4701 46.1199C89.5101 66.0599 76.9901 83.8799 57.0201 87.7699C32.3301 92.5799 10.0001 72.5799 11.3801 47.7799C13.0101 18.3299 46.7301 1.27992 71.5801 18.1099C71.8616 18.2992 72.0631 18.5864 72.1461 18.9166C72.2291 19.2468 72.1878 19.5968 72.0301 19.8999L64.6501 33.9899C64.5847 34.1138 64.4798 34.2152 64.3501 34.2799C62.6835 35.0866 61.2135 35.0866 59.9401 34.2799C40.7301 22.0799 20.3501 48.5999 37.7101 64.0799C42.7701 68.5933 48.7001 69.8132 55.5001 67.7399C61.3701 65.9599 61.2901 59.9799 55.5701 57.3599Z" fill="#F69721"/>
<circle cx="54" cy="51" r="7" fill="#68676A"/>
</svg>
