<svg width="100" height="100" viewBox="0 0 100 100" fill="none" xmlns="http://www.w3.org/2000/svg">
<rect width="100" height="100" fill="white"/>
<path d="M12.7607 48.2401C2.51527 29.3599 23.1403 22.0002 36.1819 14.4616C46.2707 8.64542 53.0264 8.62305 64.01 13.7681C78.7741 20.6804 96.6029 25.9821 89.1537 44.9964C83.3077 59.8649 76.127 72.3175 67.6116 82.3541C44.7496 109.265 22.6258 66.4044 12.7607 48.2401Z" fill="#233F7C"/>
<path d="M63.5627 58.9104C59.5063 54.6005 55.7929 50.1265 52.4225 45.4885C52.2727 45.286 52.078 45.1208 51.854 45.0062C51.63 44.8915 51.383 44.8307 51.1328 44.8285C50.8826 44.8263 50.6362 44.8829 50.4134 44.9936C50.1906 45.1044 49.9976 45.2662 49.8499 45.4662L38.9335 60.4316C38.6084 60.8785 38.1842 61.2441 37.6942 61.4997C37.2042 61.7553 36.6616 61.894 36.1091 61.9048C35.5565 61.9156 35.009 61.7984 34.5093 61.5622C34.0097 61.326 33.5715 60.9773 33.2291 60.5434C31.2755 58.0231 31.268 55.5624 33.2068 53.1614C38.24 46.9202 42.6916 40.0303 47.7024 33.4983C48.0721 33.0194 48.5455 32.6306 49.0871 32.3609C49.6286 32.0913 50.2242 31.9478 50.8291 31.9414C51.4341 31.9349 52.0326 32.0656 52.5798 32.3236C53.1269 32.5817 53.6085 32.9603 53.9884 33.4312L70.4078 53.7654C70.9159 54.3929 71.2003 55.1727 71.2165 55.9824C71.2327 56.7921 70.9798 57.5859 70.4973 58.2393C68.4617 60.9908 65.9786 61.4382 63.5627 58.9104Z" fill="white"/>
</svg>
