<svg width="100" height="100" viewBox="0 0 100 100" fill="none" xmlns="http://www.w3.org/2000/svg">
<rect width="100" height="100" fill="#F6C916"/>
<path d="M29.3972 68.968C29.1486 69.4402 28.8414 69.5556 28.4756 69.3141C26.9059 68.2759 25.6257 66.8213 24.6348 64.9503C24.6208 64.9197 24.5975 64.8945 24.5682 64.8784C24.539 64.8623 24.5054 64.8563 24.4725 64.8611C24.4395 64.866 24.409 64.8815 24.3855 64.9054C24.362 64.9292 24.3467 64.9602 24.3418 64.9936C24.3063 65.1702 24.3383 65.3144 24.4377 65.4262L24.7946 65.8479C33.7174 80.702 54.4182 84.5358 68.3804 74.1266C84.5692 62.0628 85.315 37.9946 69.8506 24.952C59.4842 16.2083 44.2809 15.792 33.0675 23.2541C29.1042 25.8875 25.7322 30.0133 23.0687 34.7556C23.0012 34.8709 22.9834 34.9953 23.0154 35.1287C23.0687 35.3558 23.1486 35.3666 23.2551 35.1611C25.1267 31.4949 27.3463 28.6795 29.9139 26.7148C38.32 20.2638 50.4123 19.669 59.8039 24.898C69.8506 30.5 72.9936 42.1745 69.7548 52.8108C66.9101 62.1493 55.164 68.0596 46.0655 65.6371C39.8062 63.9716 34.3247 60.5163 33.3818 53.3948C33.1847 51.9402 32.8598 51.0372 33.222 49.4961C34.2981 44.916 35.4274 39.0274 40.568 37.0429C45.8559 34.9989 50.597 35.7217 54.7911 39.2113C54.8194 39.2354 54.8551 39.2479 54.8916 39.2462C54.928 39.2446 54.9626 39.229 54.9888 39.2024C55.0151 39.1757 55.0311 39.1399 55.0339 39.1017C55.0368 39.0635 55.0262 39.0255 55.0042 38.995L52.8361 36.221C52.7154 36.0696 52.6763 35.8983 52.7189 35.7073C53.3954 32.544 47.7381 32.0573 45.8044 31.7924C44.3715 31.6031 42.9012 31.8897 41.3723 30.8461C41.2303 30.7523 41.0776 30.7253 40.9142 30.765C34.6709 32.3223 29.035 36.3832 26.4513 42.3692C23.0154 50.3126 26.2702 60.9975 30.2762 68.1947C30.3043 68.2443 30.3187 68.3005 30.3181 68.3577C30.3175 68.4148 30.3018 68.471 30.2726 68.5203C30.2434 68.5697 30.2018 68.6106 30.1519 68.6389C30.102 68.6672 30.0456 68.6818 29.9885 68.6814L29.6369 68.676" stroke="#15439E" stroke-width="1.17222"/>
<path d="M28.6643 69.2463C28.4112 69.7129 28.0985 69.8268 27.7261 69.5882C26.128 68.5624 24.8246 67.1253 23.8159 65.2768C23.8016 65.2465 23.7778 65.2216 23.7481 65.2057C23.7183 65.1899 23.6841 65.1839 23.6506 65.1887C23.6171 65.1935 23.586 65.2088 23.5621 65.2324C23.5381 65.256 23.5225 65.2865 23.5176 65.3195C23.4814 65.494 23.514 65.6365 23.6152 65.7469L23.9786 66.1636C33.0626 80.8396 54.1376 84.6274 68.3522 74.3431C84.8336 62.4239 85.5929 38.6443 69.849 25.7581C59.2952 17.1192 43.8171 16.7079 32.401 24.0806C28.366 26.6824 24.9331 30.7587 22.2214 35.4441C22.1527 35.5581 22.1346 35.681 22.1672 35.8127C22.2214 36.0371 22.3028 36.0478 22.4112 35.8448C24.3166 32.2226 26.5763 29.4409 29.1904 27.4998C37.7484 21.1261 50.0593 20.5385 59.6206 25.7047C69.849 31.2395 73.0487 42.7741 69.7514 53.2828C66.8553 62.5094 54.8969 68.3487 45.6339 65.9553C39.2615 64.3098 33.6809 60.8959 32.721 53.8598C32.5203 52.4227 32.1895 51.5305 32.5583 50.0078C33.6538 45.4827 34.8035 39.6647 40.037 37.704C45.4206 35.6845 50.2473 36.3986 54.5173 39.8464C54.5461 39.8702 54.5824 39.8825 54.6195 39.8809C54.6566 39.8793 54.6918 39.8639 54.7185 39.8376C54.7453 39.8113 54.7616 39.7759 54.7645 39.7381C54.7674 39.7004 54.7566 39.6629 54.7342 39.6327L52.5269 36.8919C52.404 36.7423 52.3642 36.5732 52.4076 36.3844C53.0964 33.259 47.3368 32.7782 45.3681 32.5164C43.9093 32.3294 42.4124 32.6126 40.8559 31.5815C40.7113 31.4889 40.5558 31.4622 40.3895 31.5013C34.0334 33.04 28.2955 37.0522 25.6652 42.9664C22.1672 50.8146 25.4808 61.3714 29.5592 68.4823C29.5878 68.5313 29.6025 68.5868 29.6019 68.6433C29.6012 68.6998 29.5852 68.7552 29.5555 68.804C29.5258 68.8528 29.4834 68.8932 29.4326 68.9211C29.3819 68.9491 29.3245 68.9636 29.2663 68.9631L28.9084 68.9578C25.7014 63.3838 23.8737 57.8809 23.4254 52.4494C22.5089 41.3636 29.9388 33.3445 40.3407 30.5824C41.2139 30.3473 41.6803 30.5664 41.8809 31.4212C41.8995 31.4981 41.9445 31.5665 42.0086 31.6151C42.0727 31.6637 42.152 31.6895 42.2335 31.6883C46.6643 31.5761 50.2762 31.6616 53.1235 34.7763C53.2175 34.8796 53.2518 34.9989 53.2265 35.1342L53.0259 36.1386C52.9897 36.3096 53.0385 36.4556 53.1723 36.5767C54.604 37.8696 56.6378 40.1081 55.5097 42.1223C55.3904 42.336 55.2567 42.3467 55.1084 42.1543C52.2051 38.3576 48.3925 36.851 43.6706 37.6346C41.4254 38.0085 38.9144 38.4359 37.6453 39.9853C31.9834 46.8878 31.1753 58.6948 40.5414 63.2253C47.7508 66.7121 54.7884 66.3489 61.6544 62.1354C68.9108 57.6851 70.9065 49.8583 69.8761 41.9406C68.8818 34.3257 64.8794 28.9316 57.8689 25.7581C50.4389 22.3923 41.9135 22.0183 34.5269 25.3681C23.8593 30.1924 18.821 42.1169 18.8969 53.2134C18.9078 54.2338 19.1355 55.9274 19.0162 57.3057C19.0169 57.3205 19.0147 57.3352 19.0096 57.3491C19.0046 57.363 18.9968 57.3757 18.9867 57.3866C18.9766 57.3975 18.9645 57.4064 18.9509 57.4127C18.9374 57.419 18.9227 57.4226 18.9078 57.4233C18.8928 57.424 18.8779 57.4218 18.8638 57.4168C18.8497 57.4118 18.8367 57.4041 18.8256 57.3942C18.8146 57.3843 18.8056 57.3723 18.7992 57.359C18.7928 57.3456 18.7892 57.3312 18.7885 57.3164C18.1955 54.4136 17.937 51.5269 18.0129 48.6562C18.6529 23.3967 48.2262 9.05737 69.0301 24.1821C81.7966 33.462 85.8207 50.8626 78.0274 64.641C65.7598 86.321 35.6821 86.2996 22.3136 65.4851C22.2015 65.3106 22.225 65.1557 22.3841 65.0203L22.7529 64.7051C22.9011 64.5805 22.9391 64.4309 22.8668 64.2564C21.8038 61.5851 21.1621 58.8123 20.9415 55.938C20.7246 53.135 20.8873 53.1136 21.4296 55.8739C22.3516 60.5593 24.1196 66.2491 28.6643 69.2463Z" fill="#0B3D9F"/>
<path d="M29.3972 68.968C29.6493 68.9031 29.7292 68.8058 29.6369 68.676L29.9885 68.6814C30.0456 68.6818 30.102 68.6672 30.1519 68.6389C30.2018 68.6106 30.2434 68.5697 30.2726 68.5203C30.3018 68.471 30.3175 68.4148 30.3181 68.3577C30.3187 68.3005 30.3043 68.2443 30.2762 68.1947C26.2702 60.9975 23.0154 50.3126 26.4513 42.3692C29.035 36.3832 34.6709 32.3223 40.9142 30.765C41.0776 30.7253 41.2303 30.7523 41.3723 30.8461C42.9012 31.8897 44.3715 31.6031 45.8044 31.7924C47.7381 32.0573 53.3954 32.544 52.7189 35.7073C52.6763 35.8983 52.7154 36.0696 52.8361 36.221L55.0042 38.995C55.0262 39.0255 55.0368 39.0635 55.0339 39.1017C55.0311 39.1399 55.0151 39.1757 54.9888 39.2024C54.9626 39.229 54.928 39.2446 54.8916 39.2462C54.8551 39.2479 54.8194 39.2354 54.7911 39.2113C50.597 35.7217 45.8559 34.9989 40.568 37.0429C35.4274 39.0274 34.2981 44.916 33.222 49.4961C32.8598 51.0372 33.1847 51.9402 33.3818 53.3948C34.3247 60.5163 39.8062 63.9716 46.0655 65.6371C55.164 68.0596 66.9101 62.1493 69.7548 52.8108C72.9936 42.1745 69.8506 30.5 59.8039 24.898C50.4123 19.669 38.32 20.2638 29.9139 26.7148C27.3463 28.6795 25.1267 31.4949 23.2551 35.1611C23.1486 35.3666 23.0687 35.3558 23.0154 35.1287C22.9834 34.9953 23.0012 34.8709 23.0687 34.7556C25.7322 30.0133 29.1042 25.8875 33.0675 23.2541C44.2809 15.792 59.4842 16.2083 69.8506 24.952C85.315 37.9946 84.5692 62.0628 68.3804 74.1266C54.4182 84.5358 33.7174 80.702 24.7946 65.8479L24.4377 65.4262C24.3383 65.3144 24.3063 65.1702 24.3418 64.9936C24.3467 64.9602 24.362 64.9292 24.3855 64.9054C24.409 64.8815 24.4395 64.866 24.4725 64.8611C24.5054 64.8563 24.539 64.8623 24.5682 64.8784C24.5975 64.8945 24.6208 64.9197 24.6348 64.9503C25.6257 66.8213 26.9059 68.2759 28.4756 69.3141C28.8414 69.5556 29.1486 69.4402 29.3972 68.968Z" fill="#1E489C"/>
</svg>
