<svg width="100" height="100" viewBox="0 0 100 100" fill="none" xmlns="http://www.w3.org/2000/svg">
<rect width="100" height="100" fill="#C7202D"/>
<path d="M44.4851 88.175C47.6443 88.6462 58.3493 89.3193 60.3069 86.1971C69.049 72.2657 78.0277 58.4914 87.2428 44.8741C87.7745 44.0871 88.3874 43.3778 89.0814 42.7461C89.2436 42.5976 89.3438 42.6322 89.3817 42.8496C94.5452 72.9837 66.501 97.1893 37.5608 88.0404C16.6792 81.444 5.22324 58.5328 11.9041 37.6409C20.6773 10.194 54.3407 1.26253 76.2064 19.6433C76.2235 19.6578 76.2357 19.6773 76.2413 19.699C76.2469 19.7207 76.2456 19.7436 76.2377 19.7646C76.2298 19.7856 76.2155 19.8036 76.1969 19.8162C76.1783 19.8288 76.1563 19.8353 76.1339 19.8349C73.6376 19.7244 71.1241 19.809 68.5933 20.0886C55.0451 21.5901 41.4451 25.7788 28.741 30.62C28.5546 30.6924 28.4613 30.8271 28.4613 31.0238V38.1172C28.4613 38.3727 28.577 38.4486 28.8083 38.3451C41.8559 32.5599 54.7257 27.8603 67.4177 24.2462C70.4836 23.3729 74.1486 22.6066 78.4126 21.9473C78.5853 21.9197 78.7286 21.9715 78.8425 22.1027L81.6547 25.318C81.6763 25.3433 81.6908 25.3739 81.6966 25.4067C81.7024 25.4394 81.6993 25.4731 81.6877 25.5043C81.6761 25.5355 81.6563 25.563 81.6305 25.5839C81.6046 25.6049 81.5737 25.6186 81.5407 25.6235C72.8297 26.8713 66.7703 30.0763 59.152 35.3627C48.9839 42.4216 38.8314 49.4995 28.6944 56.5964C28.539 56.7068 28.4613 56.8552 28.4613 57.0416V70.4777C28.4613 70.6503 28.5304 70.6831 28.6685 70.5761C42.4135 59.7099 56.2086 48.9075 70.0538 38.169C74.3523 34.8311 79.0203 32.1698 84.0577 30.185C84.2354 30.1149 84.4329 30.1131 84.6125 30.18C84.7921 30.2468 84.9413 30.3776 85.0314 30.5475L86.2692 32.8878C86.3589 33.0569 86.3244 33.195 86.1656 33.302C81.9706 36.1083 78.0812 40.0312 74.4973 45.0708C64.3983 59.2646 54.3235 73.4669 44.2728 87.6779C44.2411 87.7221 44.2213 87.7736 44.2153 87.8277C44.2093 87.8817 44.2174 87.9363 44.2388 87.9863C44.2601 88.0363 44.294 88.0799 44.3372 88.113C44.3803 88.146 44.4313 88.1674 44.4851 88.175Z" fill="white"/>
</svg>
