<svg width="100" height="100" viewBox="0 0 100 100" fill="none" xmlns="http://www.w3.org/2000/svg">
<rect width="100" height="100" fill="white"/>
<path d="M35.0356 18.8689C29.4845 24.3417 24.04 29.9249 18.5356 35.4427C18.1474 35.8318 17.9689 36.332 18 36.9433C18.0045 37.0199 18.0319 37.0868 18.0822 37.1438C18.3504 37.4473 18.6978 37.599 19.1245 37.599C24.6563 37.602 30.1875 37.605 35.7179 37.608C35.7949 37.608 35.8334 37.647 35.8334 37.7251C35.8319 43.5562 35.8342 49.3819 35.8401 55.2024C35.8401 56.6054 35.7327 57.6268 35.5179 58.2666C34.8379 60.2839 33.2616 61.2948 30.789 61.2993C27.2178 61.3061 23.6089 61.1844 20.0422 61.3218C16.1578 61.4683 14 59.9722 14 55.9076C14 43.8506 14 31.7935 14 19.7364C14 18.35 14.1104 17.3609 14.3311 16.7691C15.0378 14.8742 16.6222 14 18.5845 14C31.4275 14.006 44.2698 14.0068 57.1113 14.0022C59.018 14.0022 60.5513 15.843 60.9335 17.5959C61.0061 17.9249 61.0446 18.9899 61.0491 20.7908C61.0594 24.0473 61.0609 27.3053 61.0535 30.5648C61.0469 32.8562 60.3802 34.8322 58.1557 35.6883C57.5706 35.9136 56.5935 36.0263 55.2246 36.0263C49.2794 36.0293 43.3364 36.0301 37.3957 36.0286C37.3644 36.0286 37.3345 36.016 37.3124 35.9936C37.2903 35.9712 37.2779 35.9408 37.2779 35.9091C37.2779 30.4011 37.2779 24.8772 37.2779 19.3376C37.2779 19.1799 37.2223 19.0244 37.2001 18.8622C37.1897 18.7886 37.1564 18.7285 37.1001 18.6819C36.3757 18.0714 35.6868 18.2291 35.0356 18.8689Z" fill="#3552A1"/>
<path d="M43.5554 86C41.5087 86 39.7354 84.7202 39.1176 82.76C38.9665 82.2794 38.891 81.4119 38.891 80.1577C38.891 68.6864 38.8887 57.2174 38.8843 45.7506C38.8843 43.6402 39.0006 42.2426 39.2332 41.5576C40.2487 38.5655 42.8154 38.5542 45.7999 38.5565C57.074 38.567 68.3481 38.5678 79.6222 38.5587C81.2415 38.5572 82.3704 38.6722 83.0089 38.9035C85.3267 39.7506 85.9978 41.7762 86 44.169C86 47.6327 86 51.0987 86 54.567C86 56.009 85.8904 57.0409 85.6711 57.6628C84.8622 59.9497 82.9933 60.7045 80.6933 60.7045C74.5541 60.6985 68.4185 60.6977 62.2866 60.7022C62.2548 60.7022 62.2242 60.6894 62.2017 60.6666C62.1792 60.6438 62.1666 60.6128 62.1666 60.5805C62.1666 54.9853 62.1666 49.3736 62.1666 43.7454C62.1666 43.0537 61.0088 42.8261 60.4733 43.101C60.2866 43.1971 60.0207 43.4202 59.6755 43.7702C54.3288 49.1911 48.9695 54.5986 43.5976 59.9925C42.6176 60.9771 42.491 62.2704 44.2688 62.2726C49.7147 62.2786 55.1599 62.2794 60.6044 62.2749C60.6203 62.2749 60.6361 62.2781 60.6508 62.2843C60.6655 62.2906 60.6788 62.2998 60.69 62.3113C60.7012 62.3228 60.71 62.3365 60.7159 62.3515C60.7218 62.3666 60.7247 62.3826 60.7244 62.3988C60.717 68.377 60.7192 74.3703 60.731 80.3785C60.7325 81.5516 60.631 82.4266 60.4266 83.0034C59.5777 85.3939 57.6466 85.9887 55.2399 85.991C51.3466 85.994 47.4517 85.997 43.5554 86Z" fill="#3552A1"/>
</svg>
