<svg width="100" height="100" viewBox="0 0 100 100" fill="none" xmlns="http://www.w3.org/2000/svg">
<rect width="100" height="100" fill="white"/>
<path d="M20.9392 38.0097L18.8593 42.0708C18.8087 42.172 18.729 42.2403 18.6202 42.2758C16.7175 42.883 14.9298 43.7281 13.2573 44.8111C13.2433 44.8192 13.227 44.8225 13.2109 44.8207C13.1948 44.8189 13.1797 44.8119 13.1678 44.8009C13.1559 44.7899 13.1479 44.7753 13.1449 44.7594C13.1419 44.7435 13.144 44.727 13.151 44.7124L20.9999 30.085C21.0141 30.0589 21.0352 30.0373 21.0608 30.0223C21.0864 30.0073 21.1156 29.9996 21.1453 30C21.1749 30.0004 21.2039 30.0089 21.2292 30.0245C21.2544 30.0401 21.2748 30.0624 21.2884 30.0887L26.7196 40.4995C26.798 40.6513 26.7525 40.7399 26.5829 40.7652L24.2564 41.1144C24.1147 41.1371 23.997 41.0941 23.9034 40.9853L21.2732 37.9718C21.1416 37.82 21.0303 37.8326 20.9392 38.0097Z" fill="#1186A5"/>
<path d="M19.1818 45.7941C17.3171 46.9048 15.7229 48.342 14.3995 50.1056C12.9244 52.4359 12.4385 54.9168 12.942 57.5483C12.947 57.5697 12.9472 57.5917 12.9423 57.613C12.9399 57.6235 12.9364 57.6338 12.9316 57.6436C12.9173 57.6733 12.8934 57.6972 12.8638 57.7114C12.8489 57.7184 12.8332 57.7229 12.8171 57.7246C12.8009 57.7264 12.7845 57.7255 12.7683 57.7217C12.7365 57.7141 12.7079 57.6957 12.6877 57.6698C9.56022 53.9731 8.54318 48.9404 13.0446 45.7067C14.8842 44.4087 16.9753 43.4358 19.3183 42.788C24.8699 41.1991 30.5287 40.731 36.2951 41.3838C36.3509 41.3914 36.4039 41.4167 36.4545 41.4597C36.5557 41.5457 36.5394 41.5887 36.4052 41.5887C30.4086 41.6646 24.6673 43.0664 19.1818 45.7941Z" fill="url(#paint0_linear_33_24)"/>
<path d="M15.2573 61.1466C16.673 57.3247 18.0469 53.4913 19.5043 49.6921C19.9408 48.5573 20.567 47.84 21.7702 47.7641C21.9403 47.7532 22.1093 47.7971 22.2522 47.8894C22.3951 47.9817 22.5042 48.1174 22.5634 48.2765C24.0133 52.1984 25.4871 56.1759 26.985 60.2092C27.3646 61.2301 27.4633 61.9854 26.0666 62.0575C25.6997 62.0752 25.4542 61.9108 25.3303 61.5641L24.1916 58.3798C24.1474 58.2587 24.0672 58.154 23.962 58.08C23.8568 58.0061 23.7316 57.9663 23.6034 57.9661L18.9198 57.9775C18.7962 57.9788 18.6758 58.018 18.5747 58.0898C18.4737 58.1617 18.3968 58.2629 18.3543 58.3798L17.1436 61.7767C17.0981 61.9057 17.0095 61.9842 16.8779 62.012C16.2529 62.1512 15.738 61.9955 15.3332 61.5452C15.2852 61.4913 15.2527 61.4257 15.2393 61.3554C15.2259 61.2852 15.2321 61.2129 15.2573 61.1466ZM20.7037 51.9922C20.142 52.8803 19.6144 54.5768 19.3184 55.5978C19.1843 56.0558 19.3563 56.2847 19.8345 56.2847L22.9657 56.2734C23.0258 56.2726 23.0849 56.2575 23.1381 56.2294C23.1912 56.2013 23.2368 56.1611 23.271 56.112C23.3052 56.0629 23.327 56.0064 23.3347 55.9473C23.3423 55.8882 23.3355 55.8282 23.3149 55.7724L21.9865 52.1288C21.9409 52.0028 21.8608 51.8924 21.7553 51.8098C21.6498 51.7273 21.5232 51.676 21.3897 51.6618C21.2562 51.6476 21.1212 51.671 21 51.7294C20.8787 51.7878 20.7761 51.8788 20.7037 51.9922Z" fill="#3A3A3C"/>
<path d="M74.9664 52.8495C74.8791 51.7185 74.5489 48.9858 75.0461 48.0407C75.1144 47.9066 75.2232 47.8333 75.3725 47.8206L76.6402 47.7105C76.8173 47.6954 76.9058 47.7763 76.9058 47.9534V61.7877C76.9058 61.9116 76.8464 61.9875 76.7275 62.0154C75.8849 62.2165 74.5451 61.8825 75.1144 60.6946C75.1295 60.6626 75.1323 60.6263 75.1223 60.5924C75.1124 60.5585 75.0904 60.5295 75.0604 60.5108C75.0305 60.492 74.9947 60.485 74.9599 60.4909C74.9251 60.4968 74.8936 60.5152 74.8715 60.5428C73.6722 62.071 72.1249 62.5935 70.2298 62.1103C65.3565 60.8692 65.8119 51.6236 71.5202 51.5325C72.7347 51.5148 73.8177 51.9842 74.769 52.9406C74.7851 52.9577 74.806 52.9692 74.829 52.9736C74.8519 52.978 74.8758 52.975 74.8973 52.9651C74.9188 52.9551 74.937 52.9387 74.9494 52.918C74.9617 52.8974 74.9677 52.8734 74.9664 52.8495ZM71.9494 60.611C72.3471 60.609 72.7405 60.5115 73.107 60.3242C73.4735 60.1368 73.8059 59.8634 74.0854 59.5193C74.3648 59.1753 74.5858 58.7674 74.7356 58.319C74.8855 57.8707 74.9613 57.3905 74.9588 56.9061C74.9562 56.4216 74.8754 55.9423 74.7208 55.4955C74.5663 55.0488 74.3411 54.6433 74.058 54.3022C73.775 53.9611 73.4397 53.6911 73.0713 53.5076C72.7028 53.3241 72.3085 53.2308 71.9108 53.2329C71.513 53.235 71.1197 53.3324 70.7532 53.5198C70.3867 53.7071 70.0543 53.9806 69.7748 54.3246C69.4954 54.6686 69.2744 55.0765 69.1245 55.5249C68.9747 55.9732 68.8989 56.4534 68.9014 56.9378C68.9039 57.4223 68.9848 57.9016 69.1393 58.3484C69.2939 58.7951 69.5191 59.2007 69.8021 59.5417C70.0852 59.8828 70.4205 60.1528 70.7889 60.3363C71.1573 60.5198 71.5517 60.6131 71.9494 60.611Z" fill="#3A3A3C"/>
<path d="M54.0345 48.9293C54.2572 49.4202 54.3091 49.9363 54.1902 50.4778C54.1547 50.6372 54.056 50.7119 53.8941 50.7017L52.5733 50.6258C52.3962 50.6157 52.2962 50.5234 52.2735 50.3488L52.0989 49.0697C52.066 48.8167 52.1773 48.6902 52.4329 48.6902H53.6664C53.7443 48.6901 53.8206 48.7127 53.886 48.7551C53.9513 48.7975 54.0029 48.8581 54.0345 48.9293Z" fill="#3A3A3C"/>
<path d="M40.5656 51.9159L42.672 51.9197C42.7315 51.9197 42.7887 51.943 42.8318 51.9847C42.8749 52.0264 42.9006 52.0833 42.9036 52.1437L42.9453 53.2709C42.9529 53.443 42.8694 53.529 42.6948 53.529H40.5808C40.4543 53.529 40.3897 53.5935 40.3872 53.7226C40.353 55.7607 39.4118 60.7288 42.9073 60.3493C43.0541 60.3341 43.1275 60.3999 43.1275 60.5467V61.784C43.1275 61.8773 43.0914 61.9669 43.0268 62.0336C42.9623 62.1003 42.8744 62.1387 42.7821 62.1407C37.1801 62.2622 38.4667 57.4572 38.3681 53.7188C38.3655 53.5922 38.301 53.529 38.1745 53.529H37.1915C37.027 53.529 36.9473 53.4468 36.9524 53.2823L36.9827 52.2651C36.9878 52.0931 37.0751 51.9994 37.2446 51.9843L38.2124 51.8894C38.2803 51.8836 38.3433 51.8517 38.3885 51.8001C38.4337 51.7485 38.4576 51.6813 38.4554 51.6123L38.387 49.2022C38.382 49.0327 38.4642 48.9505 38.6337 48.9555L40.1557 49.0201C40.2138 49.022 40.2688 49.0469 40.3092 49.0894C40.3496 49.1319 40.3721 49.1887 40.372 49.2478L40.3758 51.7262C40.3783 51.8502 40.4416 51.9134 40.5656 51.9159Z" fill="#3A3A3C"/>
<path d="M31.2964 55.3928C32.6666 56.0114 34.8034 56.687 35.6611 57.7269C36.5682 58.8314 36.2456 60.619 35.0842 61.4806C33.1676 62.8963 30.34 62.2852 28.4992 60.9454C28.3854 60.8619 28.3689 60.7633 28.4499 60.6494L29.1786 59.6284C29.2006 59.5974 29.2287 59.5712 29.2611 59.5513C29.2936 59.5314 29.3299 59.5182 29.3677 59.5125C29.4056 59.5069 29.4443 59.5088 29.4815 59.5183C29.5188 59.5278 29.5539 59.5446 29.5847 59.5677C30.5525 60.3154 33.2169 61.2642 33.9988 59.8144C34.1247 59.5823 34.1547 59.31 34.0824 59.0555C34.01 58.801 33.8411 58.5844 33.6116 58.4519C31.8847 57.4651 26.8938 56.2164 29.2317 52.9599C30.6702 50.956 33.9646 51.3279 35.7902 52.5386C35.9015 52.612 35.923 52.7056 35.8547 52.8195L35.1905 53.9278C35.1752 53.9533 35.1549 53.9755 35.131 53.993C35.107 54.0106 35.0798 54.0231 35.0511 54.0299C35.0223 54.0366 34.9926 54.0374 34.9638 54.0323C34.9349 54.0271 34.9074 54.0161 34.8831 53.9999C33.809 53.2977 31.4976 52.6525 30.8296 54.1517C30.7277 54.3789 30.7195 54.6371 30.807 54.8697C30.8945 55.1023 31.0705 55.2904 31.2964 55.3928Z" fill="#3A3A3C"/>
<path d="M58.2477 53.6354C59.5722 52.2842 60.1947 51.5479 62.2025 51.5783C64.3684 51.6137 65.4969 52.7144 65.5879 54.8803C65.6841 57.1702 65.7271 59.4588 65.717 61.7462C65.717 61.8752 65.655 61.9562 65.531 61.9891C64.9162 62.1586 64.3658 62.0422 63.88 61.6399C63.8279 61.5974 63.7861 61.5439 63.7579 61.4834C63.7296 61.4229 63.7156 61.357 63.7168 61.2907C63.7269 60.0281 63.7143 58.0823 63.6789 55.4534C63.6561 53.643 62.3619 53.0737 60.7868 53.5102C57.4165 54.4438 58.2097 58.6833 58.2135 61.3021C58.2135 61.3662 58.1992 61.4297 58.1717 61.4881C58.1441 61.5465 58.104 61.5983 58.0541 61.6399C57.5835 62.0295 57.0445 62.1611 56.4373 62.0346C56.2829 62.0042 56.207 61.9106 56.2095 61.7537L56.2285 52.2918C56.2285 52.23 56.2407 52.1688 56.2643 52.1117C56.288 52.0546 56.3227 52.0027 56.3664 51.959C56.4101 51.9153 56.4619 51.8807 56.519 51.857C56.5761 51.8334 56.6373 51.8212 56.6991 51.8212H57.9592C57.9901 51.821 58.0208 51.8274 58.0491 51.8398C58.0774 51.8523 58.1027 51.8706 58.1235 51.8935C58.1443 51.9164 58.16 51.9435 58.1696 51.9729C58.1792 52.0023 58.1825 52.0333 58.1793 52.0641L58.0389 53.5367C58.0161 53.767 58.0857 53.7999 58.2477 53.6354Z" fill="#3A3A3C"/>
<path d="M89.9544 56.8813C89.9618 58.3056 89.3708 59.6747 88.3112 60.6874C87.2517 61.7002 85.8105 62.2735 84.3047 62.2814C83.559 62.2853 82.82 62.1503 82.1297 61.884C81.4394 61.6177 80.8114 61.2254 80.2816 60.7295C79.7517 60.2336 79.3304 59.6437 79.0417 58.9936C78.7529 58.3436 78.6024 57.646 78.5987 56.9407C78.5912 55.5164 79.1823 54.1473 80.2418 53.1346C81.3013 52.1219 82.7426 51.5485 84.2484 51.5406C84.994 51.5367 85.7331 51.6717 86.4234 51.938C87.1136 52.2043 87.7416 52.5966 88.2715 53.0925C88.8013 53.5885 89.2227 54.1783 89.5114 54.8284C89.8002 55.4785 89.9507 56.176 89.9544 56.8813ZM87.9201 56.9072C87.9201 55.9429 87.537 55.0181 86.8552 54.3362C86.1733 53.6543 85.2484 53.2712 84.2841 53.2712C83.3198 53.2712 82.395 53.6543 81.7131 54.3362C81.0312 55.0181 80.6481 55.9429 80.6481 56.9072C80.6481 57.8715 81.0312 58.7964 81.7131 59.4782C82.395 60.1601 83.3198 60.5432 84.2841 60.5432C85.2484 60.5432 86.1733 60.1601 86.8552 59.4782C87.537 58.7964 87.9201 57.8715 87.9201 56.9072Z" fill="#3A3A3C"/>
<path d="M46.4247 53.8098C46.4222 53.8489 46.4334 53.8876 46.4564 53.9192C46.4795 53.9508 46.5129 53.9733 46.5509 53.9828C46.5888 53.9922 46.6289 53.9881 46.6641 53.9711C46.6993 53.954 46.7274 53.9252 46.7435 53.8895C47.3457 52.4498 48.4502 51.7034 50.0569 51.6503C50.0934 51.6492 50.1298 51.6555 50.1639 51.6685C50.1979 51.6816 50.2289 51.7013 50.2551 51.7264C50.2813 51.7516 50.3021 51.7816 50.3163 51.8148C50.3305 51.848 50.3378 51.8837 50.3378 51.9197V53.3316C50.3378 53.4632 50.2733 53.534 50.1442 53.5442C45.7795 53.8933 46.4855 58.4668 46.5576 61.7915C46.5601 61.9181 46.4994 61.994 46.3754 62.0193C45.801 62.1306 45.2785 62.0319 44.8079 61.7232C44.7286 61.6707 44.6636 61.5996 44.6186 61.5161C44.5736 61.4327 44.5499 61.3396 44.5498 61.245V52.0526C44.5498 51.8906 44.6308 51.8109 44.7927 51.8135L46.2122 51.8362C46.2611 51.837 46.3093 51.848 46.3538 51.8684C46.3983 51.8889 46.4381 51.9183 46.4709 51.955C46.5036 51.9916 46.5285 52.0347 46.5441 52.0815C46.5597 52.1284 46.5655 52.1779 46.5614 52.2272L46.4247 53.8098Z" fill="#3A3A3C"/>
<path d="M53.7347 51.8403C53.8662 51.8423 53.9917 51.8964 54.0841 51.9908C54.1764 52.0853 54.2281 52.2125 54.2281 52.3451V61.7046C54.2282 61.7701 54.2071 61.8337 54.168 61.8858C54.129 61.9379 54.0741 61.9756 54.0118 61.993C53.3488 62.1878 52.7757 62.0512 52.2924 61.5831C52.2445 61.5374 52.2063 61.4826 52.1802 61.4219C52.1541 61.3612 52.1406 61.296 52.1406 61.2301V52.0187C52.1406 51.9915 52.146 51.9645 52.1566 51.9394C52.1671 51.9143 52.1826 51.8915 52.202 51.8724C52.2214 51.8533 52.2445 51.8383 52.2698 51.8283C52.2951 51.8182 52.3221 51.8133 52.3494 51.8138L53.7347 51.8403Z" fill="#3A3A3C"/>
<path d="M18.3542 68.145C18.3724 68.1727 18.3992 68.194 18.4305 68.2054C18.4618 68.2169 18.4959 68.218 18.5274 68.2085C18.5589 68.199 18.5862 68.1794 18.605 68.1529C18.6238 68.1263 18.633 68.0942 18.6313 68.0615L18.5174 64.9948C18.5124 64.8506 18.5807 64.762 18.7224 64.7292L19.0184 64.6608C19.2133 64.6178 19.3107 64.695 19.3107 64.8924V69.2077C19.3107 69.273 19.2926 69.337 19.2584 69.3926C19.2243 69.4482 19.1753 69.4933 19.1171 69.5227C18.8995 69.6315 18.7097 69.5847 18.5478 69.3823C17.7128 68.3297 16.9234 67.2278 16.1795 66.0765C16.1655 66.0549 16.1448 66.0385 16.1205 66.0298C16.0963 66.021 16.0699 66.0205 16.0453 66.0283C16.0207 66.036 15.9994 66.0516 15.9845 66.0727C15.9697 66.0937 15.9622 66.1191 15.9631 66.1448L16.0011 69.2343C16.0036 69.3481 15.9543 69.4329 15.8531 69.4886C15.4432 69.7037 15.237 69.6353 15.2344 69.2836C15.2167 67.8186 15.2332 66.365 15.2838 64.9227C15.2857 64.8484 15.3162 64.7777 15.3691 64.7248C15.4219 64.6719 15.4932 64.6409 15.5684 64.6381C15.8214 64.6279 16.0353 64.7431 16.2098 64.9834C16.9588 66.031 17.6736 67.0848 18.3542 68.145Z" fill="#3A3A3C"/>
<path d="M50.7721 64.6996L50.476 64.698C50.3461 64.6973 50.2402 64.8021 50.2395 64.9321L50.2165 69.3195C50.2158 69.4495 50.3206 69.5554 50.4506 69.556L50.7466 69.5576C50.8766 69.5583 50.9825 69.4535 50.9832 69.3235L51.0061 64.9361C51.0068 64.8061 50.902 64.7002 50.7721 64.6996Z" fill="#3A3A3C"/>
<path d="M56.24 66.5963L56.0958 66.5014C55.9111 66.38 55.9161 66.2674 56.111 66.1636L56.4146 66.0004C56.5234 65.9422 56.5791 65.8512 56.5816 65.7272C56.5892 65.0554 57.5912 64.3001 58.1225 64.7593C58.1693 64.8002 58.2027 64.8544 58.2182 64.9147C58.2336 64.975 58.2303 65.0384 58.2088 65.0964C58.1872 65.1544 58.1485 65.2041 58.0977 65.2389C58.047 65.2736 57.9868 65.2917 57.9252 65.2907C57.5633 65.2882 57.3217 65.4678 57.2002 65.8297C57.142 66.0093 57.2066 66.1054 57.3938 66.1181L57.9555 66.1636C57.9918 66.167 58.0266 66.1801 58.0562 66.2014C58.0858 66.2227 58.109 66.2515 58.1234 66.2846C58.1379 66.3178 58.1429 66.354 58.1381 66.3896C58.1333 66.4251 58.1187 66.4585 58.0959 66.4863C57.9188 66.7089 57.6747 66.7911 57.3634 66.733C57.343 66.729 57.3219 66.7298 57.3017 66.7352C57.2815 66.7407 57.2627 66.7507 57.2468 66.7645C57.2308 66.7783 57.218 66.7956 57.2092 66.8151C57.2005 66.8346 57.1962 66.8558 57.1964 66.8772L57.2875 69.2151C57.2926 69.3568 57.2306 69.4555 57.1016 69.5112C56.8586 69.6149 56.6803 69.5972 56.5664 69.458C56.5057 69.3821 56.4816 69.2607 56.4943 69.0937C56.5575 68.3473 56.5348 67.6097 56.426 66.881C56.4057 66.7595 56.3437 66.6646 56.24 66.5963Z" fill="#3A3A3C"/>
<path d="M80.2883 69.6595H80.0454L78.6677 67.8719C78.6363 67.8325 78.593 67.804 78.5443 67.7906C78.4956 67.7772 78.444 67.7796 78.3972 67.7975C78.3504 67.8154 78.3108 67.8478 78.2843 67.8899C78.2578 67.932 78.2459 67.9815 78.2502 68.0313L78.3489 69.3065C78.3515 69.3395 78.3472 69.3726 78.3364 69.4039C78.3256 69.4351 78.3084 69.4637 78.2859 69.488C78.2634 69.5122 78.2362 69.5316 78.2059 69.5448C78.1755 69.558 78.1428 69.5647 78.1097 69.5646H77.7606C77.6341 69.5646 77.5708 69.5013 77.5708 69.3748V65.0367C77.5708 64.9077 77.6265 64.8102 77.7378 64.7445L77.8858 64.6572C77.932 64.6291 77.9848 64.614 78.0389 64.6135C78.0929 64.613 78.146 64.6272 78.1927 64.6544C78.2393 64.6816 78.2777 64.7209 78.3039 64.7682C78.3301 64.8154 78.343 64.8688 78.3413 64.9228L78.3033 67.0331C78.3012 67.113 78.3267 67.1913 78.3754 67.2547C78.4241 67.3182 78.4931 67.363 78.5709 67.3816C78.6487 67.4003 78.7305 67.3917 78.8027 67.3573C78.8749 67.3228 78.9331 67.2647 78.9675 67.1925C79.2053 66.7117 79.5571 66.3297 80.0226 66.0463C80.0763 66.0143 80.1396 66.0025 80.2012 66.0131C80.2628 66.0237 80.3185 66.056 80.3584 66.1041C80.3982 66.1522 80.4196 66.213 80.4186 66.2755C80.4176 66.338 80.3942 66.398 80.3528 66.4448L79.4419 67.4506C79.3432 67.5619 79.3395 67.677 79.4305 67.7959L80.5046 69.2154C80.6084 69.3521 80.5894 69.4659 80.4477 69.557L80.2883 69.6595Z" fill="#3A3A3C"/>
<path d="M37.301 69.6597H37.1112C36.0004 69.3105 35.6424 68.4603 36.0371 67.1092C36.0725 66.9877 36.0371 66.8915 35.9308 66.8207L35.445 66.4943C35.4162 66.4751 35.3934 66.4481 35.3794 66.4164C35.3653 66.3847 35.3606 66.3497 35.3658 66.3154C35.371 66.2811 35.3858 66.249 35.4086 66.2229C35.4314 66.1968 35.4611 66.1777 35.4944 66.1679L35.6879 66.1148C35.8119 66.0793 35.903 66.0047 35.9612 65.8908C36.0396 65.739 36.0422 65.6074 35.9688 65.4961C35.9513 65.4714 35.9397 65.4431 35.9351 65.4135C35.9305 65.3838 35.9329 65.3536 35.9422 65.3253C36.0232 65.0774 36.2206 65.0242 36.5343 65.1659C36.6507 65.2165 36.7 65.3063 36.6823 65.4354L36.6368 65.7656C36.6292 65.8263 36.6455 65.8877 36.6823 65.9366C36.7192 65.9855 36.7736 66.0181 36.8342 66.0275L37.4376 66.1186C37.5031 66.1264 37.5634 66.1579 37.6072 66.2072C37.651 66.2565 37.6752 66.3202 37.6752 66.3861C37.6752 66.4521 37.651 66.5157 37.6072 66.565C37.5634 66.6143 37.5031 66.6459 37.4376 66.6537L36.8531 66.741C36.7873 66.7513 36.7276 66.785 36.6856 66.8354C36.6435 66.8859 36.6221 66.9496 36.6254 67.0143L36.6975 68.6121C36.701 68.6748 36.7273 68.734 36.7713 68.7787C36.8153 68.8234 36.8741 68.8505 36.9366 68.855C37.1542 68.8727 37.3351 68.9423 37.4794 69.0638C37.6034 69.1675 37.6489 69.2738 37.616 69.3826C37.5806 69.4914 37.4756 69.5837 37.301 69.6597Z" fill="#3A3A3C"/>
<path d="M69.7548 69.6599H69.5043C67.7698 69.1285 68.7262 67.6483 68.0962 66.4679C68.0278 66.3414 68.0481 66.2301 68.1569 66.1339C68.372 65.9442 68.4365 65.6899 68.3505 65.3711C68.3406 65.3364 68.3396 65.2999 68.3477 65.2648C68.3558 65.2297 68.3726 65.197 68.3967 65.1699C68.4209 65.1428 68.4515 65.122 68.4858 65.1094C68.5201 65.0968 68.5571 65.0928 68.5934 65.0978L68.8894 65.1357C69.0463 65.1585 69.1247 65.2496 69.1247 65.409V65.8986C69.1249 65.9357 69.1337 65.9722 69.1504 66.0053C69.1671 66.0383 69.1913 66.0669 69.2209 66.0887C69.2504 66.1106 69.2847 66.125 69.3207 66.1309C69.3568 66.1368 69.3937 66.1339 69.4284 66.1225L69.7016 66.039C69.899 65.9758 69.9926 66.0479 69.9825 66.2554L69.9711 66.4907C69.9695 66.5212 69.9614 66.551 69.9472 66.5781C69.9331 66.6052 69.9133 66.6289 69.8892 66.6476C69.865 66.6664 69.8371 66.6797 69.8074 66.6866C69.7776 66.6936 69.7467 66.6941 69.7168 66.6881L69.3714 66.6197C69.2221 66.5894 69.1424 66.6501 69.1323 66.8019C69.0944 67.4661 68.7869 68.8742 69.8458 68.9843C69.9799 68.9969 70.0571 69.0703 70.0774 69.2044C70.1077 69.4018 70.0002 69.5536 69.7548 69.6599Z" fill="#3A3A3C"/>
<path d="M82.7508 69.6597H82.599C81.1947 69.2422 81.4528 68.2706 81.4604 67.1206C81.4604 67.0093 81.4199 66.9156 81.3389 66.8397L80.9138 66.4412C80.8917 66.4196 80.8763 66.392 80.8695 66.3618C80.8628 66.3316 80.865 66.3001 80.8759 66.2711C80.8867 66.2422 80.9058 66.217 80.9307 66.1987C80.9557 66.1803 80.9854 66.1697 81.0163 66.168C81.454 66.1427 81.5919 65.877 81.43 65.3709C81.4206 65.3429 81.4179 65.313 81.4218 65.2837C81.4258 65.2544 81.4365 65.2264 81.453 65.2018C81.4695 65.1773 81.4913 65.1568 81.517 65.1421C81.5426 65.1273 81.5713 65.1186 81.6008 65.1166L81.9272 65.1015C82.0588 65.0939 82.1245 65.1559 82.1245 65.2874V65.8416C82.1245 65.9529 82.1802 66.0161 82.2915 66.0313L82.9368 66.1072C82.9745 66.111 83.0104 66.1247 83.0411 66.1471C83.0717 66.1694 83.0959 66.1996 83.1113 66.2345C83.1266 66.2695 83.1326 66.308 83.1286 66.3463C83.1247 66.3846 83.1108 66.4212 83.0886 66.4526C82.9595 66.6323 82.8014 66.7094 82.6142 66.6841C82.2827 66.6411 82.1182 66.7866 82.1208 67.1206L82.1283 68.5629C82.1285 68.5948 82.1375 68.626 82.1543 68.6529C82.1711 68.6797 82.195 68.7011 82.2232 68.7147L83.0658 69.117C83.0939 69.1303 83.1175 69.1518 83.1337 69.1787C83.1499 69.2057 83.158 69.237 83.1569 69.2688C83.1493 69.4484 83.0139 69.5788 82.7508 69.6597Z" fill="#3A3A3C"/>
<path d="M26.013 69.6597H25.2881C24.8883 69.5686 24.615 69.4281 24.4682 69.2384C24.4182 69.1789 24.3921 69.1029 24.3953 69.0253C24.3984 68.9476 24.4305 68.8739 24.4852 68.8187C24.5399 68.7635 24.6133 68.7308 24.691 68.727C24.7686 68.7232 24.8448 68.7485 24.9047 68.7981C25.2488 69.0562 25.6385 69.1435 26.0737 69.06C26.1639 69.045 26.2461 68.9991 26.3063 68.9302C26.3664 68.8613 26.4008 68.7737 26.4035 68.6822C26.4062 68.5908 26.377 68.5013 26.321 68.429C26.265 68.3566 26.1857 68.306 26.0965 68.2857C25.4437 68.1213 24.911 67.786 24.4986 67.28C24.3974 67.1585 24.381 67.0257 24.4493 66.8814C24.8541 66.011 25.5563 65.7605 26.5557 66.13C26.786 66.216 26.9036 66.3577 26.9087 66.555C26.9096 66.5845 26.904 66.6139 26.8923 66.6409C26.8806 66.668 26.863 66.6922 26.841 66.7118C26.8189 66.7313 26.7927 66.7458 26.7644 66.7541C26.7361 66.7625 26.7063 66.7645 26.6772 66.76L25.4513 66.5854C25.3704 66.5752 25.2885 66.5943 25.2204 66.6392C25.1523 66.6841 25.1026 66.7518 25.0801 66.8302C25.0577 66.9086 25.064 66.9924 25.0979 67.0666C25.1319 67.1407 25.1913 67.2002 25.2653 67.2344C25.9295 67.538 27.7475 68.1643 26.7607 69.2498C26.662 69.3586 26.4128 69.4952 26.013 69.6597Z" fill="#3A3A3C"/>
<path d="M29.0763 69.6593H28.4197C26.4347 68.8016 28.044 67.1733 29.6494 67.42C29.6797 67.4247 29.7107 67.4221 29.7398 67.4124C29.7689 67.4027 29.7953 67.3863 29.8168 67.3644C29.8383 67.3425 29.8543 67.3159 29.8635 67.2866C29.8726 67.2574 29.8747 67.2263 29.8696 67.1961C29.714 66.2662 28.5981 66.7179 28.044 66.828C27.9818 66.84 27.9173 66.83 27.8616 66.7998C27.806 66.7695 27.7625 66.7209 27.7388 66.6622C27.715 66.6034 27.7124 66.5382 27.7314 66.4778C27.7504 66.4173 27.7898 66.3654 27.8428 66.3308C28.7537 65.7564 29.5811 65.826 30.325 66.5395C30.3826 66.5948 30.4285 66.6614 30.4598 66.7351C30.4911 66.8088 30.5072 66.8881 30.5072 66.9684V69.3747C30.5072 69.5897 30.4161 69.6403 30.2339 69.5265C29.7684 69.233 29.3825 69.2773 29.0763 69.6593ZM28.5526 69.0445C29.256 69.1381 29.6887 68.856 29.8506 68.1981C29.8835 68.0665 29.8329 67.9906 29.6988 67.9704C29.2534 67.8945 28.822 67.9603 28.4045 68.1677C28.3167 68.2132 28.2455 68.2853 28.2013 68.3738C28.1572 68.4623 28.1422 68.5626 28.1587 68.6601C28.1752 68.7576 28.2222 68.8474 28.293 68.9165C28.3638 68.9856 28.4547 69.0304 28.5526 69.0445Z" fill="#3A3A3C"/>
<path d="M32.5229 66.4412C33.2693 65.7631 33.9753 65.7948 34.6407 66.5361C34.7285 66.6339 34.7772 66.7596 34.7774 66.8891V69.3751C34.7774 69.5016 34.7141 69.5648 34.5876 69.5648H34.3826C34.2106 69.5648 34.1233 69.4788 34.1208 69.3068C34.1132 68.7324 34.1094 68.1606 34.1094 67.5912C34.1094 66.836 33.5021 66.1832 32.8379 66.817C32.2028 67.4217 32.0485 68.1745 32.3749 69.0752C32.4001 69.1459 32.3972 69.2235 32.3667 69.2915C32.3363 69.3595 32.2806 69.4127 32.2117 69.4396L31.8473 69.58C31.6499 69.6559 31.5513 69.5876 31.5513 69.3751V66.2667C31.5513 66.1199 31.6246 66.0465 31.7714 66.0465C31.9839 66.0491 32.1294 66.1553 32.2079 66.3653C32.2762 66.545 32.3812 66.5703 32.5229 66.4412Z" fill="#3A3A3C"/>
<path d="M39.495 69.6595H38.8536C36.7661 68.7941 38.6335 67.219 40.0719 67.3785C40.201 67.3936 40.2706 67.3354 40.2807 67.2039C40.3009 66.8977 40.1643 66.713 39.8708 66.6497C39.4887 66.5662 39.094 66.6333 38.6866 66.8509C38.5399 66.9268 38.4311 66.8901 38.3602 66.7408L38.2995 66.6118C38.2413 66.4827 38.2729 66.3828 38.3944 66.3119C39.4141 65.7224 40.2288 65.8438 40.8386 66.6763C40.912 66.7775 40.9499 66.8901 40.9525 67.0141L41.0056 69.3293C41.0081 69.4659 40.9423 69.5456 40.8082 69.5684C40.6159 69.6038 40.4603 69.5444 40.3414 69.39C40.2528 69.2736 40.1466 69.2546 40.0226 69.3331L39.495 69.6595ZM39.977 67.8605L39.1421 68.0464C39.0096 68.0842 38.8964 68.1709 38.8255 68.2891C38.7546 68.4072 38.7313 68.5478 38.7603 68.6825C38.7892 68.8172 38.8683 68.9358 38.9815 69.0143C39.0947 69.0928 39.2335 69.1254 39.3698 69.1054C39.8657 69.0041 40.1769 68.7005 40.3034 68.1945C40.3151 68.149 40.3148 68.1013 40.3027 68.056C40.2905 68.0107 40.2669 67.9692 40.2342 67.9357C40.2014 67.9021 40.1605 67.8776 40.1154 67.8644C40.0704 67.8512 40.0227 67.8499 39.977 67.8605Z" fill="#3A3A3C"/>
<path d="M45.8522 69.6594H45.2221C43.1461 68.8169 44.9451 67.0938 46.3494 67.4126C46.4152 67.4269 46.4839 67.4181 46.544 67.3876C46.604 67.3571 46.6517 67.3068 46.6789 67.2452C46.7061 67.1836 46.7113 67.1145 46.6934 67.0495C46.6755 66.9846 46.6358 66.9278 46.5809 66.8888C46.085 66.5422 45.5663 66.5207 45.0248 66.8243C44.9109 66.8875 44.8148 66.8673 44.7363 66.7636L44.6756 66.6801C44.5618 66.5257 44.5871 66.4005 44.7515 66.3043C45.7029 65.7375 46.5151 65.8539 47.1882 66.6535C47.2398 66.7125 47.2705 66.7885 47.2755 66.8698L47.3628 69.3217C47.3651 69.3829 47.3442 69.4428 47.3043 69.4898C47.2643 69.5368 47.208 69.5675 47.1464 69.5759C46.9617 69.5987 46.8137 69.538 46.7024 69.3938C46.6113 69.2748 46.5025 69.2546 46.3759 69.333L45.8522 69.6594ZM46.3228 67.8073L45.0324 68.2779C44.9913 68.2933 44.958 68.3242 44.9395 68.364C44.921 68.4037 44.919 68.4492 44.9337 68.4905L44.9527 68.5436C45.0251 68.7413 45.1744 68.9018 45.3678 68.99C45.5612 69.0781 45.7831 69.0869 45.985 69.0142L46.0647 68.9839C46.2665 68.91 46.4313 68.7607 46.523 68.5686C46.6148 68.3765 46.6261 68.1574 46.5543 67.9591L46.5392 67.906C46.5316 67.8852 46.5199 67.8661 46.5049 67.8499C46.4898 67.8337 46.4717 67.8206 46.4516 67.8114C46.4315 67.8022 46.4097 67.7971 46.3876 67.7964C46.3655 67.7957 46.3435 67.7994 46.3228 67.8073Z" fill="#3A3A3C"/>
<path d="M52.6004 69.6597H52.3195L52.2057 69.561C52.0969 69.4699 52.0425 69.3535 52.0425 69.2118L52.0615 66.2932C52.0632 66.2212 52.0889 66.1518 52.1346 66.0962C52.1803 66.0405 52.2433 66.0017 52.3136 65.986C52.3839 65.9703 52.4574 65.9785 52.5224 66.0094C52.5875 66.0403 52.6403 66.0921 52.6725 66.1565L52.7636 66.3501C52.8522 66.5323 52.9711 66.5551 53.1204 66.4184C53.8137 65.7808 54.5145 65.8086 55.223 66.5019C55.2864 66.5652 55.3231 66.6508 55.3255 66.741L55.3862 69.3636C55.3888 69.4978 55.323 69.5648 55.1889 69.5648H54.7979C54.6714 69.5648 54.6082 69.5015 54.6082 69.375V67.0067C54.6079 66.9484 54.5905 66.8916 54.558 66.8435C54.5255 66.7955 54.4795 66.7585 54.426 66.7372C52.4486 65.9782 52.9306 68.7981 52.6004 69.6597Z" fill="#3A3A3C"/>
<path d="M63.967 69.6595H63.7051L63.3446 69.3521C63.2434 69.2686 63.1422 69.2673 63.041 69.3483L62.6538 69.6595H62.0162C59.7352 68.7979 61.7391 67.1925 63.2459 67.3936C63.418 67.4164 63.4812 67.3443 63.4357 67.1773C63.2004 66.2854 62.1756 66.7257 61.6253 66.8092C61.5605 66.8195 61.4945 66.8061 61.4392 66.7715C61.3838 66.7369 61.3428 66.6834 61.3236 66.6206C61.3043 66.5578 61.3081 66.4898 61.3342 66.4291C61.3603 66.3683 61.407 66.3187 61.4659 66.2892C64.3807 64.8811 64.2858 67.9819 63.967 69.6595ZM63.1093 67.8225L61.8226 68.2134C61.7997 68.2204 61.7783 68.2318 61.7598 68.247C61.7413 68.2622 61.7259 68.2809 61.7146 68.3021C61.7033 68.3233 61.6963 68.3464 61.694 68.3703C61.6917 68.3942 61.6942 68.4182 61.7012 68.4412L61.7202 68.5019C61.7817 68.7015 61.9221 68.8678 62.1106 68.9646C62.2991 69.0613 62.5204 69.0806 62.7259 69.0181L62.8056 68.9953C63.0114 68.9324 63.1844 68.7929 63.2869 68.6071C63.3893 68.4214 63.4128 68.2048 63.3522 68.0047L63.337 67.944C63.3301 67.921 63.3187 67.8997 63.3034 67.8811C63.2882 67.8626 63.2695 67.8473 63.2483 67.836C63.2272 67.8247 63.204 67.8177 63.1802 67.8154C63.1563 67.8131 63.1322 67.8155 63.1093 67.8225Z" fill="#3A3A3C"/>
<path d="M66.5257 69.6595H65.7059C65.3795 69.5735 65.1025 69.4078 64.8747 69.1623C64.8344 69.1174 64.8113 69.0596 64.8097 68.9992C64.808 68.9388 64.828 68.8798 64.8659 68.8328C64.9038 68.7858 64.9572 68.7538 65.0165 68.7425C65.0759 68.7313 65.1373 68.7415 65.1898 68.7714C65.5971 69.0067 66.0171 69.0928 66.4498 69.0295C66.5246 69.0178 66.5941 68.9835 66.6489 68.9312C66.7037 68.8789 66.7412 68.8112 66.7561 68.7373C66.7711 68.6634 66.7628 68.5869 66.7324 68.5183C66.702 68.4497 66.6511 68.3923 66.5865 68.3539C66.3334 68.1996 66.0247 68.0452 65.6604 67.8909C63.8386 67.1318 65.6756 65.2379 67.2506 66.2892C67.3097 66.3301 67.3514 66.3915 67.3676 66.4615C67.3838 66.5314 67.3733 66.6049 67.3382 66.6675C67.3031 66.7302 67.2459 66.7775 67.1777 66.8002C67.1096 66.8228 67.0355 66.8193 66.9698 66.7902C66.6307 66.6308 66.2588 66.5726 65.8539 66.6156C65.7687 66.6231 65.6889 66.6606 65.6287 66.7214C65.5686 66.7823 65.5321 66.8626 65.5257 66.9479C65.5193 67.0333 65.5435 67.1181 65.5939 67.1872C65.6443 67.2564 65.7176 67.3053 65.8008 67.3254C66.4233 67.4848 66.9533 67.7922 67.3911 68.2477C67.4417 68.2996 67.4778 68.3637 67.4958 68.4337C67.5138 68.5036 67.513 68.5769 67.4936 68.6462C67.3519 69.1548 67.0292 69.4925 66.5257 69.6595Z" fill="#3A3A3C"/>
<path d="M89.9999 66.1637V66.6647C88.3641 66.7899 88.6829 68.2322 88.6715 69.3632C88.669 69.4973 88.6007 69.5644 88.4665 69.5644H88.254C88.1932 69.5644 88.1349 69.5405 88.0916 69.4979C88.0483 69.4553 88.0235 69.3974 88.0225 69.3366L87.9731 66.2927C87.9736 66.2311 87.9953 66.1714 88.0344 66.1238C88.0736 66.0761 88.1279 66.0434 88.1883 66.0309C88.2487 66.0185 88.3115 66.0271 88.3663 66.0555C88.4211 66.0838 88.4645 66.13 88.4893 66.1865L88.6411 66.5546C88.6528 66.5828 88.6721 66.6071 88.6969 66.6249C88.7217 66.6426 88.7509 66.6531 88.7814 66.6551C88.8118 66.657 88.8421 66.6504 88.869 66.636C88.8959 66.6217 88.9182 66.6 88.9334 66.5736C89.2598 66.0271 89.6153 65.8904 89.9999 66.1637Z" fill="#3A3A3C"/>
<path d="M21.9451 69.6598H21.2923C19.9905 69.1967 20.3397 67.3977 20.3625 66.3084C20.3675 66.1389 20.4548 66.0542 20.6244 66.0542H20.8293C21.0191 66.0542 21.114 66.149 21.114 66.3388V68.6198C21.1139 68.6773 21.1308 68.7335 21.1625 68.7815C21.1942 68.8294 21.2394 68.8669 21.2923 68.8893C22.8788 69.5839 23.0914 67.4395 22.8295 66.5058C22.8144 66.4514 22.8123 66.3941 22.8234 66.3388C22.8345 66.2834 22.8585 66.2316 22.8933 66.1875C22.9281 66.1434 22.9729 66.1083 23.0238 66.0851C23.0747 66.0619 23.1304 66.0513 23.1862 66.0542C23.2293 66.0542 23.2723 66.0542 23.3153 66.0542C23.4924 66.0542 23.581 66.1415 23.581 66.316V69.3486C23.581 69.4599 23.5253 69.5295 23.414 69.5573C23.1888 69.613 23.0483 69.5371 22.9927 69.3296C22.9835 69.2982 22.9672 69.2694 22.9451 69.2454C22.923 69.2214 22.8956 69.2028 22.8652 69.191C22.8347 69.1793 22.8019 69.1747 22.7694 69.1777C22.7369 69.1807 22.7055 69.1911 22.6777 69.2081L21.9451 69.6598Z" fill="#3A3A3C"/>
<path d="M42.9106 66.4865C43.1421 66.3537 43.3394 66.1032 43.571 66.0349C43.8189 65.9615 43.9758 66.0488 44.0416 66.2968C44.0546 66.3447 44.0568 66.3949 44.0482 66.4439C44.0395 66.4928 44.0202 66.5392 43.9916 66.5798C43.9629 66.6204 43.9257 66.6542 43.8825 66.6787C43.8393 66.7033 43.7913 66.718 43.7418 66.7219C42.4248 66.8205 42.7246 68.4526 42.7474 69.2989C42.7484 69.3334 42.7424 69.3678 42.7296 69.4C42.7169 69.4322 42.6978 69.4615 42.6734 69.4863C42.649 69.5111 42.6198 69.5308 42.5875 69.5442C42.5552 69.5577 42.5205 69.5646 42.4855 69.5646H42.2729C42.0832 69.5646 41.9883 69.4697 41.9883 69.2799V66.2095C41.9886 66.1685 42.0013 66.1285 42.0247 66.0948C42.0481 66.061 42.081 66.0352 42.119 66.0207C42.157 66.0063 42.1983 66.0039 42.2374 66.0139C42.2764 66.0239 42.3113 66.0458 42.3375 66.0766L42.6525 66.441C42.6834 66.4775 42.7261 66.5021 42.7733 66.5104C42.8204 66.5187 42.869 66.5103 42.9106 66.4865Z" fill="#3A3A3C"/>
<path d="M59.5381 67.3139L59.4015 69.3596C59.3986 69.4151 59.3741 69.4672 59.3331 69.5054C59.2922 69.5435 59.2378 69.5647 59.1814 69.5646H59.003C58.8335 69.5646 58.75 69.4798 58.7525 69.3103L58.798 66.3006C58.7992 66.249 58.8173 66.1993 58.8495 66.159C58.8817 66.1188 58.9262 66.0902 58.9762 66.0777C59.0262 66.0652 59.079 66.0695 59.1263 66.0898C59.1737 66.1102 59.213 66.1456 59.2383 66.1905L59.4205 66.5131C59.4321 66.5338 59.4486 66.5513 59.4685 66.5641C59.4885 66.5769 59.5113 66.5846 59.535 66.5865C59.5586 66.5884 59.5824 66.5844 59.6041 66.5749C59.6258 66.5654 59.6449 66.5507 59.6596 66.5321C59.857 66.279 60.1138 66.1158 60.4301 66.0425C60.5062 66.0264 60.5856 66.039 60.6529 66.0779C60.7203 66.1169 60.7708 66.1793 60.7949 66.2533C60.8189 66.3273 60.8147 66.4076 60.7831 66.4787C60.7515 66.5498 60.6947 66.6066 60.6236 66.6383L59.7659 66.9989C59.702 67.0251 59.6467 67.0685 59.6064 67.1242C59.5662 67.1799 59.5425 67.2456 59.5381 67.3139Z" fill="#3A3A3C"/>
<path d="M71.7408 66.5284C71.8824 66.1766 72.1494 66.0185 72.5416 66.0539C72.6757 66.0666 72.7389 66.1412 72.7314 66.2779C72.7314 66.3133 72.7314 66.3474 72.7314 66.3803C72.7389 66.5423 72.6643 66.6384 72.5074 66.6688C71.1601 66.9307 71.4106 68.335 71.3954 69.3142C71.3903 69.4812 71.3043 69.5634 71.1373 69.5609C71.0943 69.5609 71.0487 69.5634 71.0007 69.5685C70.9469 69.5746 70.8924 69.5682 70.8416 69.5497C70.7908 69.5313 70.7451 69.5012 70.7082 69.4621C70.6712 69.4229 70.6441 69.3758 70.629 69.3244C70.6139 69.273 70.6112 69.2188 70.6211 69.1662C70.7906 68.2755 70.797 67.3798 70.6401 66.479C70.6097 66.312 70.6717 66.1969 70.8261 66.1336L71.0538 66.0387C71.2334 65.9654 71.3397 66.0236 71.3726 66.2133L71.4219 66.4942C71.4283 66.5298 71.446 66.5623 71.4725 66.5869C71.4989 66.6116 71.5326 66.627 71.5685 66.6308C71.6045 66.6347 71.6407 66.6268 71.6717 66.6083C71.7028 66.5898 71.727 66.5618 71.7408 66.5284Z" fill="#3A3A3C"/>
<path d="M74.9127 69.6594H74.2371C72.9315 69.2685 73.2845 67.3366 73.3111 66.3385C73.313 66.2693 73.3419 66.2037 73.3915 66.1555C73.4411 66.1073 73.5076 66.0803 73.5767 66.0804H73.8007C73.9727 66.0804 74.0588 66.1677 74.0588 66.3423V68.3462C74.0591 68.4555 74.0861 68.5631 74.1374 68.6596C74.1887 68.7561 74.2628 68.8385 74.3531 68.8996C74.4434 68.9607 74.5472 68.9986 74.6553 69.0099C74.7635 69.0213 74.8727 69.0058 74.9735 68.9649C76.15 68.4942 75.8692 67.3328 75.8692 66.3309C75.8695 66.2702 75.8867 66.2109 75.9189 66.1595C75.9511 66.1082 75.9969 66.0668 76.0513 66.04C76.1057 66.0132 76.1664 66.002 76.2268 66.0078C76.2871 66.0136 76.3446 66.0361 76.3929 66.0728C76.5599 66.2018 76.6257 66.3498 76.5903 66.5168C76.4081 67.367 76.522 68.5284 76.5258 69.3862C76.5253 69.4424 76.5059 69.4968 76.4707 69.5407C76.4356 69.5845 76.3867 69.6153 76.3319 69.628C76.2771 69.6407 76.2197 69.6346 76.1688 69.6107C76.1179 69.5868 76.0765 69.5465 76.0513 69.4962C75.854 69.0863 75.4744 69.1407 74.9127 69.6594Z" fill="#3A3A3C"/>
<path d="M86.7852 69.6597H86.4664C86.4006 69.48 86.3184 69.3446 86.2197 69.2536C86.1159 69.1625 86.0084 69.1587 85.8971 69.2422L85.3278 69.6597H84.6787C83.3048 69.3864 83.7641 67.3369 83.7109 66.2969C83.7008 66.1502 83.7704 66.073 83.9197 66.0654L84.1474 66.054C84.3017 66.0464 84.3814 66.1198 84.3865 66.2742L84.4358 68.6842C84.4377 68.7545 84.4642 68.8219 84.5107 68.8746C84.5571 68.9273 84.6207 68.962 84.6901 68.9727C86.4778 69.2725 86.2349 67.409 86.2007 66.3463C86.1988 66.2688 86.2225 66.1926 86.2679 66.1295C86.3134 66.0664 86.3781 66.0201 86.4521 65.9976C86.5261 65.9751 86.6052 65.9777 86.6771 66.0051C86.749 66.0324 86.8097 66.083 86.8497 66.1489C87.0395 66.4488 86.9712 67.075 86.975 67.371C86.9901 68.1731 86.9269 68.936 86.7852 69.6597Z" fill="#3A3A3C"/>
<defs>
<linearGradient id="paint0_linear_33_24" x1="32.4997" y1="41.194" x2="12.5739" y2="50.8722" gradientUnits="userSpaceOnUse">
<stop stop-color="#4293CE"/>
<stop offset="1" stop-color="#3C66B0"/>
</linearGradient>
</defs>
</svg>
