<svg width="100" height="100" viewBox="0 0 100 100" fill="none" xmlns="http://www.w3.org/2000/svg">
<rect width="100" height="100" fill="#B7821A"/>
<path d="M60.1109 26.1817L48.6241 32.1147C48.5736 32.1409 48.5172 32.154 48.4601 32.1527C48.4031 32.1514 48.3473 32.1358 48.298 32.1072C48.2488 32.0787 48.2077 32.0382 48.1786 31.9896C48.1495 31.941 48.1334 31.8858 48.1318 31.8293L48.0177 28.2624C48.0161 28.2002 48.0322 28.1389 48.064 28.0853C48.0958 28.0317 48.1422 27.988 48.1978 27.9592L59.7986 22.0381C59.85 22.0114 59.9076 21.9983 59.9656 22.0002C60.0237 22.002 60.0802 22.0187 60.1298 22.0487C60.1794 22.0786 60.2203 22.1207 60.2485 22.171C60.2768 22.2212 60.2914 22.2778 60.291 22.3353V25.8844C60.2914 25.9456 60.2749 26.0057 60.2431 26.0581C60.2113 26.1105 60.1656 26.1533 60.1109 26.1817Z" fill="white"/>
<path d="M30.5327 55.2523C39.7437 59.818 42.4217 42.5837 31.1812 45.0211C31.1435 45.0291 31.1046 45.0287 31.0672 45.0198C31.0298 45.011 30.9948 44.994 30.9649 44.97C30.935 44.9461 30.9108 44.9159 30.8942 44.8815C30.8776 44.8471 30.869 44.8095 30.8689 44.7715V34.0944C30.8689 33.7932 31.021 33.6267 31.3253 33.595C41.0466 32.626 49.6692 39.9204 50.0475 49.5928C50.5999 63.8665 34.4957 72.124 22.9129 63.8309C16.8783 59.503 16.0317 53.8612 16.0136 46.1685C15.9936 38.3292 15.9956 30.4918 16.0196 22.6564C16.0196 22.4582 16.1197 22.3591 16.3199 22.3591H27.0981C27.2782 22.3591 27.3663 22.4483 27.3623 22.6267C27.3382 30.573 27.3282 38.5154 27.3322 46.4539C27.3382 50.4251 27.0981 53.5462 30.5327 55.2523Z" fill="white"/>
<path fill-rule="evenodd" clip-rule="evenodd" d="M81.8718 40.8478C76.9479 33.6663 69.058 32.2217 60.6456 35.093C60.3773 35.1842 60.2434 35.0891 60.2434 34.8077L60.2494 29.1838C60.2488 29.1398 60.2371 29.0967 60.2154 29.0584C60.1935 29.0202 60.1624 28.9882 60.1251 28.9654C60.0875 28.9427 60.0452 28.9301 60.0016 28.9288C59.9849 28.9284 59.9682 28.9295 59.9518 28.9323C59.9257 28.9368 59.9005 28.9453 59.877 28.958L48.4563 34.6412C48.3637 34.6879 48.2854 34.7589 48.2295 34.8467C48.1735 34.9345 48.142 35.036 48.1381 35.1406C48.1331 35.4366 48.1218 35.7223 48.1108 36.0009C48.056 37.3791 48.0083 38.5813 48.7626 39.9561C51.933 45.681 53.0379 50.9423 50.3537 57.1904C50.1394 57.6927 49.8714 58.2185 49.5966 58.7579C48.8859 60.1525 48.1294 61.6366 48.1381 63.0341C48.1661 67.9526 48.1001 72.8532 47.94 77.7359C47.9393 77.7653 47.9435 77.7945 47.9526 77.8224C47.9572 77.8363 47.9629 77.85 47.9698 77.863C47.9833 77.8887 48.001 77.9119 48.0221 77.9317C48.033 77.9418 48.0448 77.9511 48.0574 77.9593C48.0762 77.9714 48.0963 77.981 48.1171 77.9878C48.1375 77.9944 48.1587 77.9984 48.1803 77.9996C48.2238 78.0022 48.2672 77.9932 48.3062 77.9738L60.0031 72.017C60.0902 71.9722 60.163 71.9055 60.2139 71.8236C60.2458 71.7721 60.2684 71.7159 60.2806 71.6577C60.2878 71.6235 60.2913 71.5885 60.2913 71.5532V65.7688C60.2913 65.5192 60.4074 65.4439 60.6396 65.5429C76.5336 72.3082 91.7312 55.2226 81.8718 40.8478ZM73.8916 50.3357C73.8916 53.5797 71.2355 56.2094 67.9591 56.2094C64.6826 56.2094 62.0265 53.5797 62.0265 50.3357C62.0265 47.0919 64.6826 44.4622 67.9591 44.4622C71.2355 44.4622 73.8916 47.0919 73.8916 50.3357Z" fill="white"/>
</svg>
