<svg width="100" height="100" viewBox="0 0 100 100" fill="none" xmlns="http://www.w3.org/2000/svg">
<rect width="100" height="100" fill="#595C62"/>
<path d="M21.8623 40.8203H28.7295C30.0889 40.8203 31.1006 40.8789 31.7647 40.9961C32.4366 41.1055 33.0342 41.3398 33.5577 41.6992C34.0889 42.0586 34.5303 42.5391 34.8819 43.1406C35.2334 43.7344 35.4092 44.4023 35.4092 45.1445C35.4092 45.9492 35.1905 46.6875 34.753 47.3594C34.3233 48.0312 33.7373 48.5352 32.9952 48.8711C34.042 49.1758 34.8467 49.6953 35.4092 50.4297C35.9717 51.1641 36.253 52.0273 36.253 53.0195C36.253 53.8008 36.0694 54.5625 35.7022 55.3047C35.3428 56.0391 34.8467 56.6289 34.2139 57.0742C33.5889 57.5117 32.8155 57.7812 31.8936 57.8828C31.3155 57.9453 29.9209 57.9844 27.71 58H21.8623V40.8203ZM25.3311 43.6797V47.6523H27.6045C28.9561 47.6523 29.7959 47.6328 30.1241 47.5938C30.7178 47.5234 31.1827 47.3203 31.5186 46.9844C31.8623 46.6406 32.0342 46.1914 32.0342 45.6367C32.0342 45.1055 31.8858 44.6758 31.5889 44.3477C31.2998 44.0117 30.8662 43.8086 30.2881 43.7383C29.9444 43.6992 28.9561 43.6797 27.3233 43.6797H25.3311ZM25.3311 50.5117V55.1055H28.542C29.792 55.1055 30.585 55.0703 30.9209 55C31.4366 54.9062 31.8545 54.6797 32.1748 54.3203C32.503 53.9531 32.667 53.4648 32.667 52.8555C32.667 52.3398 32.542 51.9023 32.292 51.543C32.042 51.1836 31.6787 50.9219 31.2022 50.7578C30.7334 50.5938 29.71 50.5117 28.1319 50.5117H25.3311ZM39.4489 58V40.8203H42.9177V58H39.4489ZM46.6058 58V40.8203H53.9066C55.7425 40.8203 57.0745 40.9766 57.9027 41.2891C58.7386 41.5938 59.4066 42.1406 59.9066 42.9297C60.4066 43.7188 60.6566 44.6211 60.6566 45.6367C60.6566 46.9258 60.2777 47.9922 59.5198 48.8359C58.762 49.6719 57.6292 50.1992 56.1214 50.418C56.8714 50.8555 57.4886 51.3359 57.973 51.8594C58.4652 52.3828 59.1253 53.3125 59.9534 54.6484L62.0511 58H57.9027L55.3948 54.2617C54.5042 52.9258 53.8948 52.0859 53.5667 51.7422C53.2386 51.3906 52.8909 51.1523 52.5237 51.0273C52.1566 50.8945 51.5745 50.8281 50.7777 50.8281H50.0745V58H46.6058ZM50.0745 48.0859H52.6409C54.305 48.0859 55.3441 48.0156 55.7581 47.875C56.1722 47.7344 56.4964 47.4922 56.7308 47.1484C56.9652 46.8047 57.0823 46.375 57.0823 45.8594C57.0823 45.2812 56.9261 44.8164 56.6136 44.4648C56.3089 44.1055 55.8753 43.8789 55.3128 43.7852C55.0316 43.7461 54.1878 43.7266 52.7816 43.7266H50.0745V48.0859ZM79.79 58H76.0166L74.5166 54.0977H67.6494L66.2314 58H62.5517L69.2431 40.8203H72.9111L79.79 58ZM73.4033 51.2031L71.0361 44.8281L68.7158 51.2031H73.4033Z" fill="#F8F8F8"/>
</svg>
