<svg width="100" height="100" viewBox="0 0 100 100" fill="none" xmlns="http://www.w3.org/2000/svg">
<rect width="100" height="100" fill="url(#paint0_linear_33_27)"/>
<path d="M46.9128 36.694C51.4446 37.6051 55.4855 39.4272 59.0354 42.1604C61.9244 44.3909 63.7017 47.2658 66.0738 50.4876C70.0391 55.8762 77.1413 46.763 78.5716 43.4208C78.7604 42.9771 78.8242 42.6254 78.7628 42.3658C78.6684 41.9693 78.3545 41.7143 77.821 41.601C77.7466 41.5784 77.6827 41.5298 77.641 41.4641C77.5993 41.3984 77.5825 41.3199 77.5936 41.2429C77.6048 41.1659 77.6431 41.0954 77.7017 41.0442C77.7603 40.993 77.8353 40.9645 77.9131 40.9638C81.5952 41.2517 84.8854 42.5357 87.7839 44.8158C88.1096 45.0754 88.0671 45.2406 87.6564 45.3115L86.5093 45.5168C86.2686 45.5593 86.0396 45.6348 85.8225 45.7434C78.5858 49.4113 75.017 58.2129 69.154 63.7926C64.9621 67.7957 60.3689 70.5596 55.3745 72.0844C37.9555 77.4163 23.2201 70.0239 12.0889 56.9525C12.0311 56.8866 11.9995 56.8023 12 56.7153C12.0005 56.6282 12.0331 56.5442 12.0917 56.4787C12.1503 56.4132 12.231 56.3706 12.319 56.3588C12.4069 56.3469 12.4962 56.3667 12.5704 56.4143C16.3374 58.9446 20.2626 61.3308 24.346 63.5731C30.2585 66.8233 43.3936 69.7406 47.4439 62.2915C51.8624 56.2585 44.477 49.6662 39.5628 47.195C39.4627 47.1435 39.3495 47.1238 39.238 47.1384C39.1265 47.153 39.0219 47.2013 38.9378 47.277C38.8537 47.3527 38.7941 47.4522 38.7667 47.5626C38.7392 47.673 38.7452 47.7892 38.7839 47.896L40.8162 53.2987C34.8918 49.56 30.4025 45.0683 27.3483 39.8237C25.4364 35.9859 23.8999 30.1654 25.7126 26.2284C25.8495 25.9263 25.9935 25.9239 26.1445 26.2213C29.947 33.7837 39.2088 35.6602 46.9128 36.694Z" fill="white"/>
<path d="M47.4437 62.2916C46.7923 60.1177 46.4311 58.5882 44.6963 56.9667C43.3037 55.6544 42.0103 54.4317 40.816 53.2988L38.7837 47.8961C38.745 47.7893 38.739 47.6731 38.7664 47.5627C38.7939 47.4523 38.8535 47.3527 38.9376 47.2771C39.0217 47.2014 39.1263 47.1531 39.2378 47.1385C39.3492 47.1239 39.4625 47.1436 39.5626 47.195C44.4768 49.6663 51.8622 56.2586 47.4437 62.2916Z" fill="#9CB8DF"/>
<defs>
<linearGradient id="paint0_linear_33_27" x1="11.5" y1="8.9854e-08" x2="100" y2="112" gradientUnits="userSpaceOnUse">
<stop stop-color="#15A9D1"/>
<stop offset="0.517426" stop-color="#2782C5"/>
</linearGradient>
</defs>
</svg>
