<svg width="100" height="100" viewBox="0 0 100 100" fill="none" xmlns="http://www.w3.org/2000/svg">
<rect width="100" height="100" fill="white"/>
<path d="M49.2377 15.2166C49.5124 14.9325 49.7919 14.9279 50.0759 15.2026C65.1151 29.7528 65.0312 53.4675 50.1877 68.1155C50.143 68.16 50.0899 68.1952 50.0315 68.219C49.9731 68.2428 49.9105 68.2547 49.8474 68.2541C49.7844 68.2534 49.722 68.2402 49.6641 68.2152C49.6062 68.1903 49.5539 68.154 49.5101 68.1085C34.7923 52.9786 34.3173 30.5002 49.2377 15.2166Z" fill="#E11F26"/>
<path d="M49.9715 78.9009C49.985 78.9522 50.0153 78.9975 50.0576 79.0296C50.0999 79.0616 50.1517 79.0786 50.2047 79.0778C50.2578 79.077 50.309 79.0585 50.3503 79.0251C50.3916 78.9918 50.4205 78.9456 50.4325 78.8939C53.5968 61.3471 67.1131 48.0682 85.4702 48.0054C85.7403 48.0054 85.8894 48.1381 85.9173 48.4035C86.5809 54.0406 83.1092 61.9967 80.5806 66.7606C78.2662 71.1241 75.3929 74.5864 71.9609 77.1476C48.3509 94.7713 13.5367 78.4958 14.0047 48.6271C14.0093 48.3663 14.142 48.2429 14.4028 48.2568C32.1522 49.2697 46.4858 61.403 49.9715 78.9009Z" fill="#088241"/>
</svg>
