<svg width="100" height="100" viewBox="0 0 100 100" fill="none" xmlns="http://www.w3.org/2000/svg">
<rect width="100" height="100" fill="white"/>
<path fill-rule="evenodd" clip-rule="evenodd" d="M62.8991 21.279L58.9975 23.3581L53.7749 25.6871L51.9474 26.4143L51.742 22.7575L53.5473 22.0627L58.1693 20.1205L62.6184 17.9764C64.9354 16.7911 67.1999 15.4689 69.4119 14.0098C69.4216 14.0033 69.4331 13.9999 69.4447 14C69.4564 14.0001 69.4678 14.0037 69.4774 14.0103C69.487 14.017 69.4943 14.0264 69.4985 14.0373C69.5027 14.0481 69.5036 14.06 69.5009 14.0714C69.4891 14.127 69.4773 14.1821 69.4657 14.2368C69.1878 15.5462 68.9668 16.587 67.9779 17.5725C66.6021 18.9426 64.9092 20.1781 62.8991 21.279Z" fill="url(#paint0_linear_33_29)"/>
<path d="M51.742 22.7575L51.9474 26.4143L49.3412 27.4068L47.8833 27.927L44.2281 29.1454L38.4152 30.7728C36.0925 31.3797 33.735 31.7693 31.3427 31.9415C31.3231 31.943 31.3035 31.9399 31.2853 31.9325C31.2671 31.9251 31.2509 31.9135 31.2379 31.8987C31.225 31.884 31.2157 31.8664 31.2107 31.8474C31.2057 31.8284 31.2052 31.8085 31.2092 31.7892L32.0495 27.6293C32.0609 27.5711 32.0962 27.5403 32.1555 27.5369C34.2569 27.424 36.3292 27.1479 38.3724 26.7087L43.7593 25.379L47.6488 24.1932L49.0451 23.7295L51.742 22.7575Z" fill="url(#paint1_linear_33_29)"/>
<path fill-rule="evenodd" clip-rule="evenodd" d="M61.5304 28.8283L57.6289 30.9074L52.4062 33.2364L50.5787 33.9637L50.3734 30.3068L52.1786 29.6121L56.8006 27.6698L61.2498 25.5257C63.5668 24.3404 65.8313 23.0182 68.0433 21.5591C68.053 21.5526 68.0644 21.5492 68.0761 21.5493C68.0878 21.5494 68.0991 21.553 68.1087 21.5597C68.1183 21.5663 68.1257 21.5757 68.1299 21.5866C68.1341 21.5975 68.1349 21.6094 68.1323 21.6207C68.1204 21.6763 68.1087 21.7315 68.0971 21.7861C67.8191 23.0955 67.5982 24.1363 66.6093 25.1219C65.2335 26.492 63.5405 27.7274 61.5304 28.8283Z" fill="url(#paint2_linear_33_29)"/>
<path d="M50.3734 30.3068L50.5787 33.9637L47.9725 34.9562L46.5146 35.4764L42.8595 36.6947L37.0465 38.3221C34.7238 38.929 32.3663 39.3186 29.9741 39.4909C29.9545 39.4923 29.9348 39.4892 29.9166 39.4818C29.8984 39.4744 29.8822 39.4628 29.8693 39.448C29.8563 39.4333 29.847 39.4157 29.842 39.3967C29.837 39.3777 29.8366 39.3578 29.8406 39.3386L30.6808 35.1786C30.6922 35.1204 30.7276 35.0896 30.7869 35.0862C32.8883 34.9733 34.9605 34.6972 37.0037 34.258L42.3906 32.9284L46.2802 31.7425L47.6765 31.2788L50.3734 30.3068Z" fill="url(#paint3_linear_33_29)"/>
<path fill-rule="evenodd" clip-rule="evenodd" d="M60.1613 36.3776L56.2597 38.4568L51.0371 40.7857L49.2096 41.513L49.0042 37.8561L50.8095 37.1614L55.4315 35.2192L59.8806 33.075C62.1976 31.8897 64.4621 30.5675 66.6741 29.1084C66.6838 29.102 66.6953 29.0985 66.7069 29.0986C66.7186 29.0987 66.73 29.1023 66.7396 29.109C66.7492 29.1156 66.7565 29.125 66.7607 29.1359C66.7649 29.1468 66.7658 29.1587 66.7631 29.17C66.7513 29.2256 66.7396 29.2808 66.728 29.3354C66.45 30.6448 66.229 31.6856 65.2401 32.6712C63.8643 34.0413 62.1714 35.2768 60.1613 36.3776Z" fill="url(#paint4_linear_33_29)"/>
<path d="M49.0042 37.8561L49.2096 41.513L46.6034 42.5055L45.1455 43.0257L41.4903 44.244L35.6774 45.8714C33.3547 46.4783 30.9972 46.8679 28.6049 47.0402C28.5853 47.0416 28.5657 47.0386 28.5475 47.0311C28.5293 47.0237 28.5131 47.0121 28.5001 46.9974C28.4872 46.9826 28.4779 46.965 28.4729 46.946C28.4679 46.927 28.4674 46.9071 28.4715 46.8879L29.3117 42.7279C29.3231 42.6697 29.3584 42.6389 29.4178 42.6355C31.5191 42.5226 33.5914 42.2465 35.6346 41.8073L41.0215 40.4777L44.911 39.2918L46.3073 38.8281L49.0042 37.8561Z" fill="url(#paint5_linear_33_29)"/>
<path d="M29.4319 78.2548C28.7817 78.6004 29.0384 79.7572 28.1828 79.7658C27.1709 79.7772 26.159 79.7789 25.1471 79.7709C24.3856 79.7658 24.0023 79.5074 24.0023 78.7322C24 70.6051 23.9994 62.478 24.0006 54.3509C24.0023 53.7811 24.2008 53.2215 24.8254 53.2147C25.989 53.2033 27.1537 53.2039 28.3197 53.2164C29.0093 53.2232 29.2642 53.6066 29.2642 54.2791C29.2608 56.6451 29.2614 59.0105 29.266 61.3754C29.2671 61.8318 29.4833 62.0605 29.9145 62.0616C29.9651 62.0616 30.0134 62.0426 30.0497 62.0086C33.6997 58.6426 38.8829 59.5633 41.5815 63.5504C44.15 67.3424 44.2014 72.1851 41.8758 76.2218C41.2803 77.2566 40.6369 78.0511 39.9456 78.6056C37.6389 80.4571 34.2661 80.7103 31.636 79.4903C31.0097 79.2011 30.2807 78.6586 29.6031 78.2582C29.5773 78.2431 29.5481 78.2348 29.5182 78.2342C29.4882 78.2336 29.4585 78.2407 29.4319 78.2548ZM33.5748 76.4426C34.8319 76.4426 36.0375 75.7791 36.9265 74.5982C37.8154 73.4172 38.3148 71.8155 38.3148 70.1454C38.3148 68.4752 37.8154 66.8735 36.9265 65.6925C36.0375 64.5116 34.8319 63.8481 33.5748 63.8481C32.3176 63.8481 31.112 64.5116 30.2231 65.6925C29.3341 66.8735 28.8347 68.4752 28.8347 70.1454C28.8347 71.8155 29.3341 73.4172 30.2231 74.5982C31.112 75.7791 32.3176 76.4426 33.5748 76.4426Z" fill="#1B517E"/>
<path d="M62.4721 78.3011C62.0306 78.4859 62.1452 79.2439 61.7516 79.5639C61.2742 79.9541 58.6903 79.7761 57.9682 79.7727C57.4171 79.771 57.1588 79.3141 57.1382 78.7871C57.0783 77.1529 57.1451 75.1798 57.1382 73.8879C57.104 67.5587 57.0983 61.2301 57.1211 54.902C57.1262 53.7555 57.0937 53.2097 58.3771 53.2079C59.3845 53.2068 60.3884 53.2079 61.3889 53.2114C62.0448 53.2137 62.3791 53.5439 62.3916 54.2022C62.435 56.599 62.4384 58.1174 62.4019 58.7574C62.3312 60.0317 62.3449 60.9939 62.443 61.6442C62.4829 61.9111 62.6671 62.0486 62.9957 62.0566C63.047 62.0577 63.0932 62.0423 63.1343 62.0104C66.1015 59.6335 69.5907 59.0859 72.7444 61.456C77.5923 65.0974 77.6504 72.3101 74.5104 77.0245C71.9247 80.9055 66.454 81.1708 62.9974 78.3764C62.925 78.3174 62.8379 78.2793 62.7454 78.266C62.6529 78.2528 62.5584 78.2649 62.4721 78.3011ZM66.6987 76.4461C67.9563 76.4461 69.1624 75.7825 70.0517 74.6012C70.9409 73.4199 71.4405 71.8178 71.4405 70.1472C71.4405 68.4766 70.9409 66.8744 70.0517 65.6931C69.1624 64.5119 67.9563 63.8482 66.6987 63.8482C66.076 63.8482 65.4594 64.0112 64.8841 64.3277C64.3088 64.6443 63.7861 65.1082 63.3458 65.6931C62.9055 66.2781 62.5562 66.9724 62.3179 67.7367C62.0796 68.5009 61.957 69.32 61.957 70.1472C61.957 70.9744 62.0796 71.7935 62.3179 72.5577C62.5562 73.3219 62.9055 74.0163 63.3458 74.6012C63.7861 75.1861 64.3088 75.6501 64.8841 75.9666C65.4594 76.2832 66.076 76.4461 66.6987 76.4461Z" fill="#1B517E"/>
<path d="M50.1478 58.5367C51.5579 58.5367 52.701 57.3936 52.701 55.9835C52.701 54.5735 51.5579 53.4304 50.1478 53.4304C48.7378 53.4304 47.5947 54.5735 47.5947 55.9835C47.5947 57.3936 48.7378 58.5367 50.1478 58.5367Z" fill="#1B517E"/>
<path d="M48.4387 86.2429C47.5232 86.3319 44.6757 86.8418 44.5713 85.6885C44.4698 84.5636 44.4567 83.6196 44.532 82.8564C44.662 81.5337 47.5745 82.8753 47.5745 80.2143C47.5722 73.989 47.5716 67.7636 47.5728 61.5382C47.5728 60.9735 47.7816 60.4105 48.3976 60.4037C49.576 60.3911 50.7556 60.3911 51.9364 60.4037C53.2779 60.4174 52.8827 62.3801 52.8827 63.234C52.8758 69.0898 52.8638 74.9455 52.8467 80.8013C52.8456 81.2439 52.8285 81.686 52.7954 82.1275C52.6208 84.5163 50.7591 86.0187 48.4387 86.2429Z" fill="#1B517E"/>
<defs>
<linearGradient id="paint0_linear_33_29" x1="71.4003" y1="12.0522" x2="28.7057" y2="29.3354" gradientUnits="userSpaceOnUse">
<stop stop-color="#C1AA2F"/>
<stop offset="0.496289" stop-color="#1B517E"/>
<stop offset="0.9375" stop-color="#2174A4"/>
</linearGradient>
<linearGradient id="paint1_linear_33_29" x1="71.4003" y1="12.0522" x2="28.7057" y2="29.3354" gradientUnits="userSpaceOnUse">
<stop stop-color="#C1AA2F"/>
<stop offset="0.496289" stop-color="#1B517E"/>
<stop offset="0.9375" stop-color="#2174A4"/>
</linearGradient>
<linearGradient id="paint2_linear_33_29" x1="70.0317" y1="19.6015" x2="27.3371" y2="36.8847" gradientUnits="userSpaceOnUse">
<stop stop-color="#C1AA2F"/>
<stop offset="0.496289" stop-color="#1B517E"/>
<stop offset="0.9375" stop-color="#2174A4"/>
</linearGradient>
<linearGradient id="paint3_linear_33_29" x1="70.0317" y1="19.6015" x2="27.3371" y2="36.8847" gradientUnits="userSpaceOnUse">
<stop stop-color="#C1AA2F"/>
<stop offset="0.496289" stop-color="#1B517E"/>
<stop offset="0.9375" stop-color="#2174A4"/>
</linearGradient>
<linearGradient id="paint4_linear_33_29" x1="68.6625" y1="27.1508" x2="25.968" y2="44.434" gradientUnits="userSpaceOnUse">
<stop stop-color="#C1AA2F"/>
<stop offset="0.496289" stop-color="#1B517E"/>
<stop offset="0.9375" stop-color="#2174A4"/>
</linearGradient>
<linearGradient id="paint5_linear_33_29" x1="68.6625" y1="27.1508" x2="25.968" y2="44.434" gradientUnits="userSpaceOnUse">
<stop stop-color="#C1AA2F"/>
<stop offset="0.496289" stop-color="#1B517E"/>
<stop offset="0.9375" stop-color="#2174A4"/>
</linearGradient>
</defs>
</svg>
