<svg width="100" height="100" viewBox="0 0 100 100" fill="none" xmlns="http://www.w3.org/2000/svg">
<rect width="100" height="100" fill="white"/>
<path d="M69.8398 33.7006L61.3828 53.3428C61.3635 53.3999 61.3645 53.4622 61.3855 53.5192C61.4065 53.5762 61.4463 53.6243 61.4982 53.6556C61.5501 53.6868 61.6109 53.6992 61.6703 53.6907C61.7297 53.6821 61.7841 53.6531 61.8243 53.6087L75.972 34.4534L82.3788 27.5917C82.4664 27.5 82.583 27.4417 82.709 27.4267C82.8351 27.4116 82.963 27.4407 83.0714 27.509C83.1797 27.5774 83.262 27.6808 83.3044 27.802C83.3467 27.9233 83.3467 28.055 83.3042 28.1751L79.3752 39.0681C72.9937 44.6577 67.8857 49.5757 64.0511 53.8218C61.943 56.1567 59.8338 57.3618 57.8563 59.5323C56.6083 60.9133 55.1462 61.9523 53.4698 62.6491C58.6283 56.1991 61.6116 50.2977 62.4198 44.9451C63.7676 35.9362 63.7948 26.6354 66.2413 17.8812C66.2645 17.7968 66.313 17.722 66.3803 17.6668C66.4476 17.6117 66.5304 17.5791 66.6173 17.5733C66.7043 17.5675 66.7913 17.5888 66.8664 17.6345C66.9416 17.6801 67.0012 17.7477 67.0372 17.8282C69.1729 22.5396 70.1072 27.8304 69.8398 33.7006Z" fill="#E6181F"/>
<path d="M75.9719 34.4534L61.8241 53.6087C61.7839 53.6531 61.7295 53.6821 61.6701 53.6907C61.6107 53.6992 61.5499 53.6868 61.498 53.6556C61.4462 53.6243 61.4063 53.5762 61.3853 53.5192C61.3643 53.4622 61.3633 53.3999 61.3826 53.3428L69.8396 33.7006L77.127 19.9922C77.169 19.9076 77.2386 19.8404 77.3243 19.8017C77.41 19.763 77.5066 19.7551 77.5981 19.7794C77.6897 19.8037 77.7706 19.8587 77.8274 19.9352C77.8843 20.0118 77.9137 20.1053 77.9108 20.2002C77.9502 24.9533 77.3039 29.7044 75.9719 34.4534Z" fill="#CE161D"/>
<path d="M79.3759 39.0679C80.4188 38.7198 81.3288 38.1055 82.106 37.2249C82.3203 36.9742 82.5036 36.9954 82.6561 37.2884C82.7012 37.3809 82.7475 37.4685 82.7952 37.551C82.8575 37.659 82.8546 37.7623 82.7863 37.861L76.8566 46.0477C76.7989 46.1274 76.771 46.2262 76.7782 46.3262C76.7854 46.4261 76.8272 46.5204 76.8958 46.5919C76.9644 46.6633 77.0553 46.7071 77.1519 46.7152C77.2485 46.7233 77.3443 46.6952 77.4217 46.636L80.2714 44.6097C80.3298 44.5612 80.4045 44.5368 80.4806 44.5412C80.5568 44.5457 80.6288 44.5787 80.6826 44.6337C80.7364 44.6888 80.768 44.7619 80.7712 44.8386C80.7744 44.9153 80.7489 44.9901 80.6998 45.0482C65.2433 65.5731 44.8728 78.1723 19.5883 82.8459C19.203 82.916 19.108 82.7803 19.3032 82.4389C19.4298 82.2388 19.6241 82.1055 19.8862 82.0389C33.1794 78.6318 44.3742 72.1685 53.4705 62.6489C55.1469 61.9521 56.609 60.9131 57.857 59.5321C59.8345 57.3615 61.9437 56.1565 64.0518 53.8216C67.8864 49.5754 72.9944 44.6575 79.3759 39.0679Z" fill="#790000"/>
</svg>
