<svg width="100" height="100" viewBox="0 0 100 100" fill="none" xmlns="http://www.w3.org/2000/svg">
<rect width="100" height="100" fill="white"/>
<path d="M58.0349 11.8218L57.9507 73.1928C58.2088 74.6737 57.9115 75.7338 57.0589 76.3733C56.8616 76.5193 56.6277 76.6079 56.3832 76.6292C56.1386 76.6504 55.893 76.6036 55.6734 76.4938C55.4539 76.384 55.269 76.2156 55.1393 76.0072C55.0096 75.7988 54.9401 75.5586 54.9386 75.3131L54.7871 25.3514L54.989 10.8963C55.0003 10.2568 55.3256 9.95954 55.9651 10.0044C56.6045 10.0381 57.2945 10.6439 58.0349 11.8218Z" fill="#39363E"/>
<path d="M58.0363 11.822C58.945 12.1922 59.663 12.3549 60.1902 12.31L61.3514 71.1232C61.3626 71.7066 61.1158 72.1553 60.6109 72.4694C59.8256 72.9406 58.9394 73.1818 57.9521 73.193L58.0363 11.822Z" fill="#D8BD8D"/>
<path d="M58.0353 11.8218L57.9512 73.1928" stroke="#897A66" stroke-width="3.36556"/>
<path d="M57.9507 73.1928C58.2088 74.6736 57.9115 75.7338 57.0589 76.3732C56.8616 76.5193 56.6277 76.6078 56.3832 76.6291C56.1386 76.6504 55.893 76.6035 55.6734 76.4938C55.4539 76.384 55.269 76.2156 55.1393 76.0072C55.0096 75.7988 54.9401 75.5585 54.9386 75.3131L54.7871 25.3513" stroke="#917646" stroke-width="3.36556"/>
<path d="M36.3098 29.2385C20.0878 40.5636 19.9364 62.2883 36.4613 73.1086" stroke="#F3DAA6" stroke-width="3.36556"/>
<path d="M39.3057 74.4713C40.9548 73.3718 43.1256 72.7043 45.818 72.4688" stroke="#E1BA6D" stroke-width="3.36556"/>
<path d="M45.8182 72.4688C45.5489 73.8711 45.6723 75.0883 46.1884 76.1204C46.4352 76.6252 46.839 76.9113 47.4 76.9786C48.3199 77.0908 48.9089 76.8159 49.1669 76.154" stroke="#917646" stroke-width="3.36556"/>
<path d="M39.5413 20.3027L39.3057 74.4714" stroke="#897A66" stroke-width="3.36556"/>
<path d="M39.3048 74.4715C38.5981 74.8753 37.6501 74.421 36.4609 73.1084" stroke="#917646" stroke-width="3.36556"/>
<path d="M36.461 73.1086L36.3096 29.2385" stroke="#9B9A9F" stroke-width="3.36556"/>
<path d="M45.8847 28.6665L45.8174 72.4693" stroke="#897A66" stroke-width="3.36556"/>
<path d="M39.5419 20.303L39.3063 74.4717C38.5995 74.8756 37.6515 74.4212 36.4624 73.1087L36.3109 29.2386L36.21 13.5046L39.0034 12.5118C39.5755 12.3098 39.8504 12.5118 39.8279 13.1176L39.5419 20.303Z" fill="#39363E"/>
<path d="M60.189 12.3096C74.9974 17.2794 84.3369 26.3664 88.2073 39.5706C100.66 82.044 45.1113 109.675 18.1363 74.7575C1.77967 53.5882 11.2369 23.6179 36.2093 13.5043L36.3103 29.2383C20.0883 40.5634 19.9369 62.2881 36.4618 73.1084C37.6509 74.421 38.5989 74.8753 39.3057 74.4715C40.9548 73.3721 43.1256 72.7046 45.818 72.469C45.5488 73.8713 45.6722 75.0885 46.1882 76.1206C46.435 76.6254 46.8389 76.9115 47.3998 76.9788C48.3198 77.091 48.9087 76.8162 49.1668 76.1543C50.7037 76.0421 51.5002 75.0941 51.5563 73.3104C52.0051 57.5932 51.8143 41.876 50.9842 26.1589C50.9505 25.5418 51.2254 25.138 51.8087 24.9473C52.5043 24.7229 53.4971 24.8575 54.7872 25.3511L54.9387 75.3129C54.9402 75.5583 55.0097 75.7986 55.1394 76.007C55.2691 76.2154 55.454 76.3838 55.6735 76.4936C55.8931 76.6033 56.1387 76.6502 56.3833 76.6289C56.6278 76.6076 56.8617 76.5191 57.059 76.373C57.9116 75.7336 58.2089 74.6734 57.9509 73.1926C58.9381 73.1813 59.8244 72.9401 60.6097 72.469C61.1145 72.1548 61.3613 71.7061 61.3501 71.1227L60.189 12.3096Z" fill="#E9B64D"/>
<path d="M39.5422 20.3032C41.685 20.0451 43.3341 20.2134 44.4896 20.808C44.737 20.9361 44.9474 21.124 45.1006 21.3538C45.2538 21.5836 45.3447 21.8476 45.3646 22.1206L45.8863 28.6666L45.819 72.4694C43.1265 72.7049 40.9558 73.3724 39.3066 74.4719L39.5422 20.3032Z" fill="#D8BD8D"/>
<path d="M49.1669 76.1548C48.9089 76.8167 48.3199 77.0916 47.4 76.9794C46.839 76.9121 46.4352 76.626 46.1884 76.1212C45.6723 75.0891 45.5489 73.8719 45.8182 72.4695L45.8855 28.6668C46.9176 28.2853 47.7253 28.1788 48.3087 28.347C48.8696 28.5153 49.1501 29.1099 49.1501 30.1308C49.1501 45.4553 49.1557 60.7967 49.1669 76.1548Z" fill="#39363E"/>
<path d="M36.3098 29.2383L36.4613 73.1084C19.9364 62.2881 20.0878 40.5634 36.3098 29.2383Z" fill="#FCFEFF"/>
<path d="M65.2371 29.8949C78.5648 41.321 80.6851 62.3558 64.4126 72.3851C63.9526 72.6656 63.7227 72.5366 63.7227 71.9981L63.7731 30.5681C63.7844 29.2891 64.2724 29.0648 65.2371 29.8949Z" fill="#FCFEFF"/>
</svg>
