<svg width="100" height="100" viewBox="0 0 100 100" fill="none" xmlns="http://www.w3.org/2000/svg">
<rect width="100" height="100" fill="white"/>
<path d="M50.2044 39.4485L49.4552 40.0922" stroke="#682C46" stroke-width="0.554933"/>
<path d="M31.6756 40.5918C31.3612 40.725 31.0587 40.9581 30.7683 41.291" stroke="#682C46" stroke-width="0.554933"/>
<path d="M73.3143 38.9216C73.1645 39.3323 72.9148 39.5977 72.5652 39.718" stroke="#682C46" stroke-width="0.554933"/>
<path d="M52.5965 42.1899L51.6254 42.928" stroke="#682C46" stroke-width="0.554933"/>
<path d="M50.2043 39.4485L49.4551 40.0923C48.09 38.4719 46.4779 36.7765 44.5661 35.9996C39.7715 34.049 34.8826 37.14 31.6751 40.5917C31.3606 40.7249 31.0582 40.958 30.7677 41.2909C30.296 41.6646 29.8151 42.0863 29.3249 42.5562C26.356 45.403 21.9443 47.9973 17.7851 47.6505C12.7075 47.2287 8.24857 43.1 5.46003 39.1239C5.21586 38.7762 5.0651 38.4432 5.00776 38.125C4.98946 38.0281 5.00374 37.9279 5.04836 37.84C5.09298 37.7521 5.16544 37.6814 5.25444 37.6389C5.34344 37.5965 5.44398 37.5847 5.54039 37.6054C5.63681 37.626 5.72367 37.678 5.78744 37.7532C8.95056 41.4408 11.9139 44.7287 17.2995 44.171C23.5675 43.5245 27.3826 38.1361 31.9553 34.7177C39.1139 29.3654 46.0561 32.4314 50.2043 39.4485Z" fill="#AD2427"/>
<path d="M73.3149 38.9214C73.1651 39.332 72.9153 39.5975 72.5657 39.7177C65.9482 30.5558 58.3484 36.3326 52.5965 42.1899L51.6253 42.928C44.4778 49.1377 36.6838 48.5911 30.7682 41.2909C31.0586 40.958 31.361 40.7249 31.6755 40.5917C32.815 41.6257 33.6955 42.3388 34.317 42.731C39.6665 46.1022 45.1631 43.9546 49.4556 40.0923L50.2047 39.4486C52.172 37.781 54.375 35.5446 56.9804 33.9436C63.5065 29.9342 69.5302 33.1029 73.3149 38.9214Z" fill="#223364"/>
<path d="M51.6252 42.9277L52.5964 42.1897C55.1824 44.4954 57.9875 46.2351 61.6113 45.9077C66.0507 45.5054 69.7965 42.4782 72.5656 39.7175C72.9152 39.5972 73.165 39.3318 73.3148 38.9211C73.3999 39.0321 73.546 38.9831 73.7532 38.7741C81.1893 31.3213 88.6864 32.2037 94.5188 40.7996C94.7648 41.1621 94.9229 41.4858 94.9932 41.7707C95.0054 41.8213 95.0018 41.8743 94.9829 41.9224C94.9641 41.9706 94.9308 42.0116 94.8878 42.0398C94.5604 42.2563 94.2644 42.1989 93.9999 41.8678C90.5122 37.5282 86.2003 35.3612 80.8119 38.6159C73.9974 42.7307 67.7932 53.1468 57.9959 48.1247C55.5375 46.8631 53.414 45.1308 51.6252 42.9277Z" fill="#AD2427"/>
<path d="M53.7141 64.3899C53.9065 64.3991 54.061 64.4731 54.1775 64.6119C54.1916 64.6293 54.2004 64.6504 54.2031 64.6726C54.2058 64.6948 54.2021 64.7174 54.1926 64.7377C54.183 64.7579 54.1679 64.7751 54.1491 64.7872C54.1302 64.7993 54.1083 64.8058 54.0859 64.8061L50.5621 64.7728C50.5496 64.7728 50.5372 64.7703 50.5257 64.7653C50.5143 64.7604 50.5039 64.7531 50.4953 64.744C50.4867 64.7349 50.4801 64.7242 50.4759 64.7124C50.4716 64.7007 50.4698 64.6882 50.4705 64.6757C50.4761 64.5369 51.6304 64.3788 51.6359 63.0414C51.6452 60.3703 51.6452 57.6983 51.6359 55.0254C51.6341 54.5889 51.561 54.2041 51.4167 53.8711C51.3686 53.762 51.2854 53.7074 51.167 53.7074H50.4816C50.4529 53.708 50.4251 53.6985 50.4031 53.6805C50.381 53.6625 50.366 53.6371 50.3607 53.6088C50.3555 53.5805 50.3602 53.551 50.3742 53.5254C50.3882 53.4998 50.4105 53.4798 50.4373 53.4688L52.7735 52.5504C52.9049 52.5005 52.9696 52.5458 52.9677 52.6864C52.9529 55.8088 52.9539 58.9229 52.9705 62.0287C52.9761 62.7131 53.0242 63.3226 53.1148 63.8572C53.1402 64.0008 53.2133 64.1316 53.3221 64.2284C53.4309 64.3251 53.5691 64.382 53.7141 64.3899Z" fill="#223364"/>
<path d="M75.967 54.2652C76.4251 54.2652 76.7966 53.8938 76.7966 53.4356C76.7966 52.9774 76.4251 52.606 75.967 52.606C75.5088 52.606 75.1373 52.9774 75.1373 53.4356C75.1373 53.8938 75.5088 54.2652 75.967 54.2652Z" fill="#223364"/>
<path d="M70.7034 53.6353L71.1224 52.8834C71.1362 52.8581 71.1579 52.838 71.1842 52.8261C71.2105 52.8142 71.2399 52.8111 71.2681 52.8174C71.2962 52.8236 71.3216 52.8389 71.3404 52.8608C71.3591 52.8827 71.3702 52.9101 71.3721 52.9389L71.6412 56.693C71.6428 56.7173 71.6363 56.7414 71.6227 56.7616C71.6092 56.7819 71.5894 56.7971 71.5664 56.805C71.5434 56.8129 71.5184 56.813 71.4953 56.8053C71.4723 56.7976 71.4524 56.7825 71.4387 56.7624C71.1224 56.2796 70.9725 55.5998 70.7173 55.2003C68.9665 52.4478 64.9127 53.0832 63.8444 56.1492C62.926 58.7879 63.062 63.0304 66.3583 64.0292C68.5318 64.6896 70.2678 63.9996 71.5663 61.9593C71.5779 61.9405 71.5955 61.9262 71.6162 61.9187C71.6369 61.9112 71.6596 61.9109 71.6808 61.9178C71.7019 61.9248 71.7204 61.9386 71.7334 61.9571C71.7463 61.9757 71.7529 61.9979 71.7522 62.0204C71.7411 62.2886 71.632 62.5513 71.4248 62.8084C69.7674 64.8912 67.6716 65.5211 65.1374 64.6979C61.0753 63.38 60.4455 57.7585 63.0481 54.7979C64.1931 53.4957 65.7136 52.8557 67.6096 52.8779C68.5836 52.889 69.5186 53.3606 70.4453 53.7269C70.5582 53.7713 70.6442 53.7408 70.7034 53.6353Z" fill="#223364"/>
<path d="M7.10837 64.4788L6.81703 65.0088C6.80671 65.0288 6.78994 65.0447 6.76942 65.054C6.7489 65.0633 6.72585 65.0654 6.704 65.0599C6.68215 65.0545 6.66279 65.0418 6.64906 65.0239C6.63532 65.0061 6.62803 64.9841 6.62835 64.9616L6.60893 61.4711C6.60523 61.0456 6.67552 61.0327 6.8198 61.4322C7.6744 63.8092 9.22913 64.7313 11.484 64.1985C12.9685 63.8462 12.9213 61.4794 11.7393 60.7913C9.71932 59.6185 8.47165 58.8619 7.99626 58.5216C4.21162 55.8135 8.03788 51.485 11.8253 53.3441C12.4024 53.6271 12.9601 53.5438 13.1627 52.9057C13.1684 52.8817 13.1828 52.8608 13.203 52.8468C13.2233 52.8328 13.248 52.8268 13.2724 52.8299C13.2968 52.833 13.3192 52.845 13.3353 52.8636C13.3514 52.8822 13.3601 52.906 13.3597 52.9306C13.4263 54.1126 13.4318 55.2937 13.3763 56.4739C13.3467 57.088 13.2404 57.101 13.0572 56.5127C12.9019 56.0077 12.8519 55.4389 12.5217 54.9534C11.8151 53.9008 10.8199 53.4403 9.5362 53.5716C7.8936 53.7408 7.12501 55.7636 8.65108 56.7458C9.85528 57.5172 11.0798 58.2589 12.3247 58.9711C15.4601 60.7663 14.267 64.7535 10.8819 65.006C9.79147 65.0864 8.59836 64.6869 7.52179 64.3206C7.44491 64.294 7.36119 64.2953 7.2855 64.3242C7.20982 64.3532 7.14706 64.408 7.10837 64.4788Z" fill="#223364"/>
<path d="M37.2661 56.8871L38.9309 56.9232C38.955 56.9236 38.9786 56.9298 38.9999 56.9411C39.0212 56.9524 39.0395 56.9686 39.0533 56.9884C39.0671 57.0082 39.076 57.0309 39.0793 57.0548C39.0826 57.0787 39.0803 57.103 39.0724 57.1258C38.8781 57.6807 37.9459 57.3894 37.3049 57.4948C37.2383 57.5059 37.205 57.5457 37.205 57.6141L37.2161 63.2161C37.2163 63.3115 37.2366 63.4058 37.2757 63.4928C37.3148 63.5797 37.3719 63.6575 37.4431 63.7209C37.5144 63.7843 37.5982 63.8319 37.6892 63.8606C37.7801 63.8894 37.8761 63.8986 37.9708 63.8876C38.3981 63.8395 38.7163 63.6277 38.9253 63.2522C38.9409 63.2251 38.9659 63.2046 38.9956 63.1946C39.0253 63.1847 39.0576 63.186 39.0863 63.1983C39.1151 63.2107 39.1384 63.2332 39.1516 63.2615C39.1649 63.2899 39.1673 63.3221 39.1584 63.3521C38.781 64.5258 36.9497 65.5413 36.1229 64.24C35.2655 62.8971 35.9009 58.8155 35.7733 57.6668C35.7655 57.6006 35.7325 57.54 35.6811 57.498C35.6298 57.456 35.5643 57.4359 35.4986 57.4421L34.7716 57.5114C34.7326 57.5147 34.6937 57.5048 34.661 57.4834C34.6283 57.4619 34.6037 57.43 34.5913 57.393C34.5788 57.3559 34.5791 57.3157 34.5922 57.2788C34.6053 57.2419 34.6304 57.2105 34.6634 57.1896C35.8121 56.4737 36.3171 55.6413 36.8943 54.4649C37.0959 54.0505 37.2022 54.0746 37.2133 54.537C37.2318 55.2732 37.205 56.0066 37.1329 56.7373C37.131 56.7558 37.133 56.7745 37.1387 56.7923C37.1445 56.81 37.1539 56.8264 37.1664 56.8404C37.1789 56.8545 37.1942 56.8659 37.2113 56.8739C37.2285 56.8819 37.2471 56.8864 37.2661 56.8871Z" fill="#223364"/>
<path d="M80.4202 57.448L79.5989 57.5395C79.5538 57.5442 79.5085 57.5333 79.4704 57.5089C79.4324 57.4844 79.4037 57.4477 79.3892 57.4048C79.3747 57.3619 79.3752 57.3154 79.3906 57.2728C79.406 57.2302 79.4354 57.1942 79.474 57.1705C80.5413 56.5397 81.2609 55.6259 81.6327 54.4291C81.6427 54.3921 81.6659 54.3601 81.6978 54.3389C81.7298 54.3177 81.7683 54.3088 81.8063 54.3139C81.8443 54.319 81.8791 54.3377 81.9044 54.3665C81.9296 54.3954 81.9435 54.4324 81.9434 54.4707L82.0211 56.61C82.0232 56.681 82.0521 56.7486 82.1021 56.799C82.152 56.8495 82.2193 56.8792 82.2903 56.8819L83.6776 56.943C83.6997 56.9439 83.7213 56.9495 83.7411 56.9593C83.7609 56.9691 83.7784 56.9829 83.7925 56.9999C83.8066 57.0169 83.817 57.0367 83.8231 57.0579C83.8291 57.0792 83.8306 57.1015 83.8274 57.1233L83.7942 57.3314C83.772 57.4868 83.6813 57.558 83.5222 57.5451L82.2265 57.4369C82.1284 57.4276 82.0757 57.472 82.0683 57.57C81.8963 60.2337 81.8917 62.1066 82.0544 63.1887C82.1414 63.7603 82.4771 63.9823 83.0616 63.8547C83.1287 63.8402 83.1894 63.8074 83.2364 63.7603L83.8108 63.2026C83.9606 63.0546 84.0143 63.0833 83.9717 63.2886C83.6804 64.7148 81.5494 65.5028 80.8558 64.1571C80.693 63.8426 80.6199 63.2914 80.6366 62.5034C80.668 60.859 80.6449 59.2154 80.5672 57.5728C80.5617 57.4785 80.5126 57.4369 80.4202 57.448Z" fill="#223364"/>
<path d="M27.6298 58.1581C28.6065 57.2147 29.9716 56.0521 31.3062 56.9789C33.1819 58.2802 31.4339 63.6936 32.6353 64.3401C32.7222 64.3881 32.8157 64.4057 32.9155 64.3928C33.0894 64.3687 33.2411 64.4159 33.3706 64.5343C33.3933 64.5554 33.4091 64.5827 33.4161 64.6129C33.4231 64.643 33.421 64.6745 33.41 64.7035C33.3989 64.7324 33.3795 64.7573 33.3542 64.7751C33.3289 64.7929 33.2989 64.8028 33.2679 64.8034C32.1433 64.8127 31.002 64.8108 29.844 64.7979C29.7608 64.7979 29.696 64.7785 29.6498 64.7396C29.5943 64.6934 29.5545 64.6332 29.5305 64.5593C29.524 64.5391 29.5229 64.5175 29.5275 64.4968C29.5321 64.4762 29.5421 64.4571 29.5565 64.4415C29.5709 64.426 29.5892 64.4145 29.6095 64.4084C29.6298 64.4023 29.6514 64.4017 29.672 64.4066C30.3342 64.5713 30.6819 64.3114 30.7152 63.627C30.7911 62.1249 30.7865 60.6248 30.7014 59.1265C30.5793 56.9234 28.526 57.8085 27.6132 58.7019C27.5466 58.7685 27.5123 58.8499 27.5105 58.9461C27.4902 61.3323 27.492 62.8861 27.5161 63.6075C27.5493 64.5482 28.2957 64.1791 28.7119 64.5287C28.7358 64.5494 28.753 64.577 28.7611 64.6076C28.7692 64.6383 28.7679 64.6706 28.7573 64.7002C28.7468 64.7298 28.7275 64.7553 28.702 64.7732C28.6765 64.7912 28.6461 64.8008 28.6148 64.8007C27.4384 64.8154 26.2647 64.8071 25.0938 64.7757C25.005 64.772 24.9347 64.7498 24.8829 64.7091C24.8689 64.6981 24.8586 64.6831 24.8532 64.6662C24.8479 64.6492 24.8477 64.631 24.8528 64.614C24.8579 64.597 24.868 64.5818 24.8817 64.5706C24.8955 64.5593 24.9124 64.5525 24.9301 64.5509C25.8956 64.4649 26.1065 63.8795 26.1121 62.9805C26.1213 61.4895 26.1084 60.0005 26.0732 58.5133C26.0603 57.9565 25.7079 57.7475 25.0161 57.8862C24.9762 57.8925 24.9354 57.8842 24.9012 57.8627C24.867 57.8412 24.8418 57.8081 24.8303 57.7694C24.8188 57.7307 24.8217 57.6891 24.8385 57.6524C24.8553 57.6157 24.8849 57.5864 24.9217 57.5699L27.3163 56.632C27.3378 56.6234 27.3611 56.6203 27.3842 56.623C27.4073 56.6257 27.4294 56.6342 27.4486 56.6476C27.4678 56.661 27.4834 56.679 27.4942 56.7C27.505 56.721 27.5106 56.7444 27.5105 56.768L27.4828 58.0943C27.4809 58.2349 27.5299 58.2561 27.6298 58.1581Z" fill="#223364"/>
<path d="M75.2759 63.4021C75.3425 61.63 75.3129 59.8505 75.1871 58.0636C75.1797 57.9471 75.1168 57.887 74.9984 57.8833L74.1106 57.8639C74.0761 57.863 74.0431 57.8503 74.0169 57.8279C73.9908 57.8056 73.9731 57.7749 73.9669 57.741C73.9607 57.7072 73.9664 57.6722 73.9829 57.642C73.9995 57.6118 74.026 57.5883 74.0578 57.5753L76.4662 56.6153C76.4844 56.608 76.504 56.6056 76.5234 56.6082C76.5427 56.6107 76.561 56.6182 76.5766 56.6299C76.5922 56.6416 76.6046 56.6571 76.6125 56.675C76.6203 56.6928 76.6235 56.7124 76.6216 56.7318C76.5772 57.2063 76.7104 57.6363 76.6882 58.0609C76.5865 59.8958 76.5939 61.7299 76.7104 63.563C76.7493 64.1716 77.0785 64.4777 77.6982 64.4814C77.722 64.4816 77.7454 64.4882 77.7658 64.5005C77.7863 64.5128 77.8031 64.5303 77.8144 64.5513C77.8257 64.5723 77.8312 64.5959 77.8303 64.6197C77.8294 64.6436 77.8221 64.6667 77.8092 64.6868C77.7537 64.77 77.6547 64.8098 77.5123 64.8061C76.5911 64.7857 75.669 64.8052 74.7459 64.8643C74.4888 64.881 74.2881 64.8348 74.1438 64.7256C74.119 64.7067 74.1006 64.6806 74.0914 64.6508C74.0821 64.621 74.0824 64.589 74.0922 64.5594C74.102 64.5297 74.1208 64.5039 74.1459 64.4854C74.1711 64.467 74.2014 64.4569 74.2326 64.4565C74.9041 64.4398 75.2519 64.0884 75.2759 63.4021Z" fill="#223364"/>
<path d="M45.9342 63.5352C45.2849 64.2215 44.8243 64.6192 44.5524 64.7283C40.7233 66.2738 41.3837 60.4581 41.4642 58.6324C41.4827 58.2421 41.4189 57.8721 41.2727 57.5225C41.2572 57.4846 41.2331 57.4508 41.2023 57.4238C41.1715 57.3969 41.1348 57.3774 41.0951 57.3671L40.174 57.134C40.1506 57.1278 40.1302 57.1132 40.1165 57.093C40.1027 57.0729 40.0967 57.0486 40.0994 57.0247C40.1021 57.0008 40.1135 56.979 40.1313 56.9634C40.1491 56.9477 40.1722 56.9394 40.1961 56.9398L42.7405 56.9176C42.87 56.9158 42.9329 56.9796 42.9292 57.1091C42.8737 59.9152 42.87 61.7566 42.9181 62.6334C43.0402 64.806 45.1989 63.8182 46.0757 62.9303C46.146 62.8563 46.1811 62.7685 46.1811 62.6667L46.1173 57.664C46.1165 57.605 46.0963 57.548 46.0596 57.5018C46.0229 57.4556 45.972 57.4229 45.9147 57.4087L44.9741 57.1784C44.938 57.1717 44.9057 57.1514 44.8841 57.1216C44.8624 57.0919 44.8529 57.055 44.8575 57.0185C44.8621 56.9821 44.8805 56.9487 44.9089 56.9253C44.9372 56.9019 44.9735 56.8902 45.0102 56.8927L47.3853 56.9176C47.4944 56.9176 47.549 56.9731 47.549 57.0841C47.5462 59.0513 47.2577 61.8205 47.7016 63.6767C47.7117 63.7215 47.7366 63.7615 47.7724 63.7903C47.8082 63.819 47.8527 63.8347 47.8986 63.8349H48.6616C48.6935 63.8332 48.7248 63.843 48.75 63.8626C48.7752 63.8821 48.7926 63.91 48.799 63.9412C48.8054 63.9724 48.8003 64.0049 48.7848 64.0327C48.7693 64.0606 48.7443 64.0819 48.7144 64.0929L46.5002 65.0141C46.4631 65.0296 46.4228 65.0358 46.3828 65.032C46.3427 65.0282 46.3043 65.0145 46.2708 64.9923C46.2373 64.9701 46.2098 64.9399 46.1908 64.9045C46.1718 64.8691 46.1618 64.8295 46.1617 64.7893V63.6268C46.1614 63.6001 46.1532 63.574 46.1382 63.5519C46.1232 63.5298 46.102 63.5127 46.0775 63.5028C46.0529 63.4929 46.0261 63.4907 46.0006 63.4965C45.975 63.5023 45.9519 63.5158 45.9342 63.5352Z" fill="#223364"/>
<path d="M89.7431 62.3809C89.8726 62.6639 89.9956 62.6611 90.1122 62.3725L91.9518 57.7888C92.0258 57.602 91.9694 57.4725 91.7825 57.4003L91.1249 57.1423C91.1005 57.1324 91.0803 57.1144 91.0677 57.0913C91.0552 57.0682 91.051 57.0415 91.0559 57.0156C91.0608 56.9898 91.0745 56.9664 91.0947 56.9496C91.1148 56.9327 91.1402 56.9233 91.1665 56.9231L93.4834 56.9397C93.505 56.9399 93.526 56.9473 93.543 56.9607C93.56 56.9742 93.572 56.9929 93.5771 57.014C93.5822 57.035 93.5801 57.0572 93.5712 57.0769C93.5622 57.0966 93.547 57.1128 93.5278 57.1229C93.0367 57.3809 92.7259 57.6223 92.5067 58.1689C91.4671 60.7568 90.4174 63.3381 89.3575 65.913C88.8941 67.0395 87.4069 69.3647 85.8614 68.3214C85.0345 67.7637 85.6172 66.554 86.5356 66.8175C87.0258 66.96 87.3893 67.0691 87.6261 67.145C87.6768 67.1612 87.7313 67.1616 87.7823 67.1463C87.8333 67.1309 87.8785 67.1005 87.9119 67.0589C88.5186 66.3061 88.9533 65.4617 89.216 64.5257C89.2357 64.4521 89.2298 64.3739 89.1993 64.3037C88.3974 62.4974 87.4735 60.7466 86.6771 58.9375C86.3312 58.1532 85.7994 57.5446 85.0817 57.1118C85.0633 57.1002 85.0491 57.0829 85.0411 57.0626C85.0331 57.0423 85.0319 57.02 85.0376 56.9993C85.0432 56.9785 85.0555 56.9603 85.0725 56.9476C85.0895 56.9348 85.1103 56.9282 85.1317 56.9286L88.5833 56.9397C88.6099 56.9394 88.6356 56.9486 88.656 56.9656C88.6763 56.9826 88.6899 57.0063 88.6943 57.0325C88.6986 57.0586 88.6935 57.0855 88.6797 57.1082C88.666 57.1309 88.6446 57.1479 88.6194 57.1562L87.9063 57.4114C87.8566 57.4294 87.8111 57.4574 87.7728 57.4938C87.7345 57.5301 87.7042 57.574 87.6839 57.6226C87.6635 57.6711 87.6535 57.7233 87.6546 57.7758C87.6556 57.8283 87.6676 57.88 87.6899 57.9275L89.7431 62.3809Z" fill="#223364"/>
<path fill-rule="evenodd" clip-rule="evenodd" d="M20.3601 63.5327C18.5011 63.1526 18.0155 61.6959 17.8851 60.0117C17.8796 59.9284 17.9184 59.8868 18.0017 59.8868L23.1181 59.8702C23.2217 59.8702 23.2735 59.8184 23.2735 59.7148C23.2402 56.6682 19.647 55.6471 17.788 57.7448C16.6865 58.9823 16.3258 61.2159 16.9639 62.7253C18.4068 66.1492 22.6243 65.45 23.2735 61.9678C23.28 61.9366 23.2751 61.9041 23.2597 61.8762C23.2442 61.8483 23.2193 61.8269 23.1894 61.8158C23.1595 61.8048 23.1267 61.8048 23.0968 61.8158C23.0669 61.8269 23.042 61.8484 23.0266 61.8763C22.3912 63.0028 21.8584 63.8379 20.3601 63.5327ZM17.9777 59.3582C17.9928 59.3733 18.0133 59.3818 18.0346 59.3818L21.4863 59.3152C21.4969 59.3148 21.5073 59.3124 21.5169 59.308C21.5265 59.3036 21.5352 59.2974 21.5424 59.2897C21.5496 59.282 21.5552 59.2729 21.5589 59.263C21.5626 59.2531 21.5644 59.2425 21.564 59.232L21.5612 59.1043C21.5517 58.6257 21.3527 58.1705 21.0077 57.8385C20.6628 57.5066 20.2002 57.3252 19.7216 57.3341C19.243 57.3436 18.7877 57.5426 18.4558 57.8876C18.1239 58.2325 17.9425 58.6951 17.9514 59.1737L17.9542 59.3013C17.9542 59.3227 17.9626 59.3431 17.9777 59.3582Z" fill="#223364"/>
</svg>
