<svg width="100" height="100" viewBox="0 0 100 100" fill="none" xmlns="http://www.w3.org/2000/svg">
<rect width="100" height="100" fill="white"/>
<g clip-path="url(#clip0_33_825)">
<path d="M9 8H92V91H9V8Z" fill="white"/>
<path d="M52.2624 26.5537C49.1132 29.7917 45.9824 33.0097 42.6268 36.0374C38.4275 39.8274 34.097 43.2196 29.2058 45.932" stroke="#936E80" stroke-width="0.114641"/>
<path d="M29.2059 45.9325C28.8719 44.6669 28.5644 43.6122 28.2836 42.7684C26.8081 38.3336 24.0545 34.2541 20.7861 30.9031C20.782 30.8992 20.7767 30.8967 20.7711 30.8961C20.7655 30.8955 20.7598 30.8969 20.7551 30.8999C20.7504 30.9029 20.7469 30.9075 20.7452 30.9128C20.7436 30.918 20.7438 30.9237 20.7459 30.9289L30.8767 56.4525C30.8789 56.4584 30.8832 56.4633 30.8887 56.4663C30.8942 56.4693 30.9006 56.4702 30.9067 56.4688C30.9128 56.4673 30.9182 56.4638 30.9219 56.4587C30.9256 56.4536 30.9272 56.4473 30.9266 56.4411C30.6427 52.9323 30.0779 49.4633 29.2322 46.034" stroke="#FF8C80" stroke-width="0.114641"/>
<path d="M29.2319 46.034C29.2373 46.0309 29.2423 46.0282 29.2468 46.0259C29.2572 46.0202 29.2675 46.02 29.2778 46.0254C37.2046 49.9518 45.5551 54.3804 53.3914 59.1082C55.0731 60.1227 56.6833 61.1098 58.1713 62.2642" stroke="#936E80" stroke-width="0.114641"/>
<path d="M82.6708 44.2126C80.8285 44.6105 79.0516 45.3069 77.3733 46.1564C73.9598 47.8852 70.7946 50.151 67.9211 52.6055C64.4892 55.5373 61.2693 58.7474 58.2615 62.2359" stroke="#936E80" stroke-width="0.114641"/>
<path d="M29.2322 46.0338L29.2058 45.9324" stroke="#93E1FF" stroke-width="0.114641"/>
<path d="M82.6712 44.125C82.6406 44.1468 82.6238 44.1445 82.6207 44.1181C80.143 41.9262 77.486 39.8734 74.6498 37.9596C67.7346 33.2938 60.3053 29.3501 52.5 26.5042" stroke="#936E80" stroke-width="0.114641"/>
<path d="M52.2628 26.5543C49.1136 29.7923 45.9828 33.0103 42.6272 36.0379C38.4279 39.8279 34.0974 43.2202 29.2062 45.9326C28.8723 44.6669 28.5648 43.6122 28.284 42.7685C26.8085 38.3336 24.0548 34.2541 20.7864 30.9032C20.7824 30.8992 20.7771 30.8968 20.7715 30.8962C20.7659 30.8956 20.7602 30.8969 20.7555 30.9C20.7508 30.903 20.7473 30.9075 20.7456 30.9128C20.7439 30.9181 20.7442 30.9238 20.7463 30.929L30.8771 56.4526C30.8793 56.4585 30.8835 56.4634 30.8891 56.4664C30.8946 56.4693 30.901 56.4702 30.9071 56.4688C30.9132 56.4674 30.9186 56.4638 30.9223 56.4587C30.9259 56.4536 30.9276 56.4474 30.927 56.4411C30.6431 52.9324 30.0783 49.4633 29.2326 46.034C29.238 46.031 29.2429 46.0283 29.2475 46.026C29.2578 46.0203 29.2681 46.0201 29.2785 46.0254C37.2053 49.9519 45.5557 54.3805 53.392 59.1083C55.0738 60.1228 56.6839 61.1099 58.172 62.2643C57.1307 62.6048 56.0752 62.8708 55.0056 63.0622C53.7658 63.2846 52.4881 63.3225 51.2202 63.2651C48.5805 63.1459 45.9931 62.8438 43.3913 62.567C41.9507 62.4137 40.5072 62.2941 39.0608 62.2081C37.1434 62.0947 35.2255 62.109 33.3098 62.3675C33.2548 62.3748 33.2376 62.4042 33.2582 62.4558L39.4213 77.9845C39.4297 78.0062 39.4223 78.0171 39.399 78.0171H34.0492C34.0437 78.0171 34.0383 78.0154 34.0337 78.0123C34.0291 78.0091 34.0255 78.0046 34.0234 77.9993L15.4854 27.9672C15.4826 27.9598 15.478 27.9532 15.472 27.948C15.466 27.9428 15.4588 27.9391 15.451 27.9374C13.8816 27.578 12.3729 26.478 11.9579 24.8685C11.5951 23.4612 12.193 22.1509 13.4488 21.4499C15.7732 20.1521 19.0485 21.2429 20.1473 23.6361C20.3334 24.0419 20.4196 24.4922 20.4058 24.9871C20.4051 25.0066 20.4146 25.0158 20.4345 25.0146C23.5042 24.8327 26.576 24.7819 29.6499 24.8622C31.5008 24.9103 33.3482 25.1425 35.12 25.558C36.7697 25.9449 38.7243 26.5864 40.1825 26.9733C41.8528 27.4164 43.6659 27.7534 45.413 27.7649C46.1834 27.7698 47.1342 27.6785 48.2653 27.4909C49.4228 27.2987 50.7553 26.9865 52.2628 26.5543Z" fill="#FF1901"/>
<path d="M82.6714 44.125C82.6409 44.1468 82.624 44.1445 82.621 44.1181C80.1432 41.9262 77.4862 39.8733 74.65 37.9596C67.7349 33.2937 60.3056 29.3501 52.5002 26.5041C54.1335 26.0058 55.7744 25.5524 57.4229 25.1439C59.5008 24.6286 61.6618 24.4268 63.7987 24.4991C67.1817 24.6137 70.7098 25.207 73.7312 26.7529C74.8126 27.3062 75.7465 28.0449 76.533 28.9689C77.7745 30.4289 78.7622 32.1427 79.5681 33.8755C81.0745 37.1147 82.1492 40.5866 82.6714 44.125Z" fill="#FF1901"/>
<path d="M52.5005 26.5042C60.3058 29.3501 67.7351 33.2938 74.6503 37.9596C77.4865 39.8734 80.1435 41.9262 82.6213 44.1181C82.6243 44.1445 82.6411 44.1468 82.6717 44.125L82.6711 44.2127C80.8288 44.6105 79.0519 45.307 77.3736 46.1565C73.9601 47.8852 70.7949 50.1511 67.9214 52.6056C64.4895 55.5373 61.2696 58.7475 58.2618 62.236C58.2243 62.2647 58.1943 62.274 58.1718 62.2641C56.6838 61.1096 55.0736 60.1226 53.3918 59.108C45.5556 54.3802 37.2051 49.9517 29.2783 46.0252C29.268 46.0199 29.2576 46.02 29.2473 46.0258C29.2427 46.0281 29.2378 46.0307 29.2324 46.0338L29.2061 45.9323C34.0972 43.2199 38.4278 39.8277 42.6271 36.0377C45.9826 33.01 49.1134 29.7921 52.2626 26.554L52.5005 26.5042Z" fill="#26C2FF"/>
<path d="M29.2061 45.9325L29.2325 46.034C30.0781 49.4633 30.6429 52.9323 30.9269 56.4411C30.9275 56.4473 30.9258 56.4536 30.9221 56.4587C30.9185 56.4638 30.9131 56.4674 30.907 56.4688C30.9009 56.4702 30.8944 56.4693 30.8889 56.4663C30.8834 56.4633 30.8792 56.4584 30.877 56.4525L20.7462 30.9289C20.7441 30.9237 20.7438 30.918 20.7455 30.9128C20.7472 30.9075 20.7506 30.9029 20.7554 30.8999C20.7601 30.8969 20.7657 30.8955 20.7714 30.8961C20.777 30.8967 20.7823 30.8992 20.7863 30.9031C24.0547 34.2541 26.8084 38.3336 28.2838 42.7684C28.5647 43.6122 28.8721 44.6669 29.2061 45.9325Z" fill="white"/>
<path d="M62.4169 39.7327L59.8919 39.7716C59.8893 39.7717 59.8867 39.7713 59.8843 39.7703C59.8818 39.7694 59.8796 39.768 59.8777 39.7661C59.8759 39.7643 59.8744 39.7621 59.8734 39.7597C59.8723 39.7573 59.8718 39.7548 59.8718 39.7521V38.0515C59.8718 38.0464 59.8738 38.0415 59.8773 38.0379C59.8809 38.0342 59.8857 38.0321 59.8907 38.032L67.2025 37.8921C67.2051 37.892 67.2077 37.8925 67.2102 37.8934C67.2126 37.8944 67.2148 37.8958 67.2167 37.8976C67.2186 37.8994 67.22 37.9016 67.2211 37.904C67.2221 37.9064 67.2226 37.909 67.2226 37.9116L67.2243 39.618C67.2243 39.6231 67.2223 39.628 67.2188 39.6316C67.2153 39.6352 67.2105 39.6374 67.2054 39.6375L64.677 39.6885C64.6719 39.6887 64.6671 39.6908 64.6636 39.6944C64.6601 39.6981 64.6581 39.7029 64.6581 39.708V50.7995C64.6581 50.8046 64.6561 50.8095 64.6526 50.8131C64.649 50.8167 64.6442 50.8189 64.6392 50.819L62.457 50.8603C62.4544 50.8604 62.4518 50.8599 62.4493 50.859C62.4469 50.858 62.4447 50.8566 62.4428 50.8548C62.441 50.853 62.4395 50.8508 62.4385 50.8484C62.4374 50.846 62.4369 50.8434 62.4369 50.8408V39.7521C62.4369 39.7495 62.4364 39.747 62.4354 39.7446C62.4344 39.7422 62.4329 39.74 62.431 39.7382C62.4291 39.7363 62.4269 39.7349 62.4245 39.734C62.4221 39.733 62.4195 39.7326 62.4169 39.7327Z" fill="white"/>
<path d="M56.8233 49.1154L61.143 49.0363C61.1473 49.0363 61.1515 49.037 61.1555 49.0386C61.1594 49.0402 61.163 49.0426 61.1661 49.0455C61.1691 49.0485 61.1715 49.0521 61.1732 49.056C61.1748 49.06 61.1757 49.0642 61.1757 49.0684V50.8534C61.1757 50.8618 61.1724 50.8699 61.1665 50.8759C61.1606 50.8819 61.1526 50.8853 61.1442 50.8855L54.5878 51.0116C54.5836 51.0117 54.5793 51.0109 54.5754 51.0093C54.5714 51.0077 54.5678 51.0054 54.5648 51.0024C54.5617 50.9994 54.5593 50.9959 54.5577 50.9919C54.556 50.988 54.5552 50.9838 54.5552 50.9795V38.1632C54.5552 38.1548 54.5585 38.1467 54.5644 38.1407C54.5703 38.1347 54.5783 38.1313 54.5867 38.1311L56.7574 38.1013C56.7617 38.1012 56.7659 38.102 56.7699 38.1036C56.7738 38.1052 56.7775 38.1075 56.7805 38.1105C56.7835 38.1135 56.786 38.1171 56.7876 38.121C56.7893 38.1249 56.7901 38.1292 56.7901 38.1334L56.7907 49.0833C56.7907 49.0876 56.7915 49.0918 56.7932 49.0958C56.7948 49.0997 56.7972 49.1033 56.8003 49.1062C56.8033 49.1092 56.8069 49.1116 56.8109 49.1132C56.8148 49.1147 56.8191 49.1155 56.8233 49.1154Z" fill="white"/>
<path d="M51.0102 44.2986C51.0077 44.3 51.0057 44.3022 51.0044 44.3047C51.003 44.3072 51.0024 44.31 51.0026 44.3129C51.0028 44.3157 51.0037 44.3185 51.0054 44.3208C51.007 44.3231 51.0093 44.325 51.0119 44.3261C51.9279 44.7044 52.4114 45.3972 52.4627 46.4045C52.4944 47.0362 52.4921 47.585 52.4558 48.0508C52.2838 50.2599 50.4862 51.0836 48.5121 51.1283C47.4544 51.152 46.3966 51.1717 45.3389 51.1874C45.3213 51.1877 45.3125 51.1791 45.3125 51.1616V38.3505C45.3125 38.3407 45.3163 38.3313 45.3232 38.3243C45.3301 38.3173 45.3394 38.3133 45.3492 38.3132C46.4131 38.2931 47.4792 38.2857 48.5437 38.2496C50.4564 38.1848 52.2437 38.9598 52.4741 41.0904C52.5119 41.4423 52.4907 42.1342 52.4563 42.4414C52.3526 43.3603 51.7954 43.875 51.0102 44.2986Z" fill="white"/>
<path d="M47.5276 40.0168C47.5276 40.0138 47.5288 40.0108 47.5309 40.0087C47.5331 40.0065 47.536 40.0053 47.5391 40.0053L48.8276 40.0007C49.238 39.9993 49.6322 40.1488 49.9234 40.4165C50.2146 40.6841 50.379 41.048 50.3804 41.428L50.3827 42.0849C50.3834 42.2731 50.3441 42.4596 50.2669 42.6338C50.1898 42.8079 50.0764 42.9663 49.9331 43.1C49.7899 43.2336 49.6197 43.3397 49.4321 43.4124C49.2446 43.4851 49.0435 43.5229 48.8402 43.5237L47.5517 43.5282C47.5486 43.5282 47.5457 43.527 47.5436 43.5249C47.5414 43.5227 47.5402 43.5198 47.5402 43.5168L47.5276 40.0168Z" fill="#26C2FF"/>
<path d="M82.6711 44.2126C82.9103 45.6273 83.3589 47.0706 84.0169 48.5426C84.8469 50.4004 85.8317 52.3309 86.5694 53.913C88.2231 57.4611 89.2245 61.1663 89.1454 65.1002C89.145 65.1147 89.1395 65.117 89.1288 65.1071C85.0453 61.4374 79.5907 58.9761 74.0409 58.9119C71.3537 58.8809 68.7133 59.1737 66.1198 59.7901C63.667 60.373 61.2286 61.2362 58.82 62.0571C58.6385 62.1186 58.4524 62.1782 58.2617 62.2359C61.2695 58.7474 64.4894 55.5373 67.9214 52.6055C70.7948 50.151 73.9601 47.8852 77.3735 46.1564C79.0518 45.3069 80.8288 44.6105 82.6711 44.2126Z" fill="#FF1901"/>
<path d="M47.8739 49.2827C47.7711 49.277 47.6741 49.2823 47.5827 49.2987C47.5499 49.3049 47.5334 49.2913 47.5334 49.258V45.217C47.5334 45.2001 47.5419 45.1914 47.5587 45.1906C48.0321 45.1707 48.4582 45.1652 48.8369 45.174C50.3376 45.2084 50.4155 46.2229 50.3783 47.4364C50.3519 48.3191 50.145 49.0047 49.1797 49.1927C48.7505 49.2764 48.3153 49.3064 47.8739 49.2827Z" fill="#26C2FF"/>
</g>
<defs>
<clipPath id="clip0_33_825">
<rect width="83" height="83" fill="white" transform="translate(9 8)"/>
</clipPath>
</defs>
</svg>
