<svg width="100" height="100" viewBox="0 0 100 100" fill="none" xmlns="http://www.w3.org/2000/svg">
<rect width="100" height="100" fill="#E72410"/>
<path d="M82.4598 38.9048C81.6427 38.4182 80.8162 37.9485 79.9804 37.4957C78.4723 36.6776 79.5573 34.726 80.9722 35.5199C81.6599 35.9054 82.3311 36.2842 82.9858 36.6562C83.0628 36.7002 83.0867 36.6802 83.0576 36.5961C82.7439 35.691 82.4262 34.7875 82.1047 33.8856C81.9792 33.5356 81.9141 33.2814 81.9096 33.1229C81.8786 32.1039 83.1595 31.6003 83.8233 32.3824C83.9275 32.5053 84.0358 32.7276 84.1484 33.0491C84.4661 33.9529 84.7818 34.8499 85.0956 35.7401C85.0979 35.7465 85.1021 35.7521 85.1076 35.756C85.1132 35.7599 85.1198 35.762 85.1266 35.762C85.1334 35.762 85.14 35.7599 85.1456 35.756C85.1512 35.7521 85.1554 35.7465 85.1577 35.7401C85.496 34.7665 85.8321 33.8138 86.166 32.8822C86.2662 32.6014 86.3837 32.4015 86.5182 32.2825C87.2053 31.674 88.3097 32.1214 88.3388 33.0433C88.3446 33.2206 88.2831 33.4916 88.1544 33.8565C87.8244 34.7914 87.4955 35.7224 87.1674 36.6494C87.1656 36.6551 87.1655 36.6613 87.1671 36.667C87.1688 36.6728 87.1721 36.6779 87.1767 36.6818C87.1813 36.6857 87.1869 36.6881 87.1929 36.6887C87.1988 36.6893 87.2048 36.6882 87.2101 36.6854C87.9037 36.2914 88.5998 35.8983 89.2985 35.5063C90.6756 34.7328 91.7256 36.6805 90.367 37.4239C89.8727 37.6936 89.011 38.1876 87.7817 38.9057C87.7455 38.9264 87.7468 38.9442 87.7856 38.9591C88.3456 39.1765 89.3373 39.4123 89.7343 39.8053C90.2331 40.3002 90.1234 41.1503 89.5295 41.5094C89.1326 41.7501 88.7813 41.6822 88.3291 41.5133C87.6465 41.259 86.9669 41.0028 86.2902 40.7447C86.2815 40.7414 86.2722 40.7403 86.2631 40.7415C86.2539 40.7426 86.2451 40.746 86.2375 40.7514C86.2299 40.7567 86.2236 40.7638 86.2193 40.7721C86.2149 40.7804 86.2126 40.7897 86.2125 40.799C86.2154 41.3609 86.3367 42.474 86.0776 42.9563C85.6633 43.7288 84.5288 43.6803 84.1416 42.9049C83.9116 42.4449 84.029 41.3289 84.031 40.7952C84.0311 40.7869 84.0291 40.7787 84.0253 40.7714C84.0215 40.764 84.0159 40.7577 84.009 40.7529C84.0022 40.7482 83.9942 40.7451 83.9859 40.744C83.9776 40.7429 83.969 40.7438 83.9611 40.7466C83.1828 41.0384 82.4055 41.3296 81.6291 41.62C80.3841 42.0849 79.4728 40.1188 81.0246 39.5055C81.4981 39.3178 81.9746 39.137 82.454 38.963C82.4967 38.9475 82.4987 38.928 82.4598 38.9048Z" fill="white"/>
<path d="M65.0396 56.3939C65.1686 55.9863 65.2531 55.5652 65.4452 55.1906C67.6513 50.8922 69.8578 46.5935 72.0646 42.2944C72.4178 41.6073 72.9367 41.0872 73.6212 40.734C75.7668 39.6286 78.3055 40.6359 79.0983 42.9087C79.5641 44.2431 79.1886 45.2746 78.4918 46.5828C75.2046 52.758 71.9174 58.9336 68.6302 65.1094C68.3332 65.6671 68.0667 66.0734 67.8305 66.3283C66.2846 67.9984 63.6402 67.9654 62.1379 66.2584C61.9432 66.0378 61.7064 65.6655 61.4276 65.1415C60.0871 62.6261 58.7472 60.1104 57.408 57.5944C57.3899 57.5594 57.3754 57.561 57.3644 57.5992C54.3938 68.0353 41.4773 71.5765 33.9447 63.384C33.9208 63.3581 33.8965 63.3578 33.872 63.383C33.5698 63.6923 33.2628 63.9954 32.951 64.2923C24.7023 72.1277 11.1249 67.5695 9.21115 56.3881C7.75258 47.8647 14.0226 39.9857 22.7051 39.6325C23.3055 39.6079 23.8134 39.6555 24.2287 39.7752C26.9003 40.5447 27.8387 43.7113 26.0638 45.854C25.4388 46.61 24.7421 46.9535 23.7445 47.0593C22.7255 47.168 21.6871 47.2834 20.7371 47.6736C18.9553 48.4053 17.5831 49.86 16.9417 51.6757C15.5996 55.4681 17.8849 59.6527 21.7958 60.5096C25.4117 61.3024 28.6481 59.214 30.4473 56.2115C30.4628 56.1856 30.4683 56.1575 30.4638 56.1271C29.3876 49.0157 33.3751 42.2828 40.304 40.2167C42.0217 39.7043 43.8568 39.9081 44.9835 41.4278C46.3867 43.3173 45.7579 46.0374 43.6433 47.0835C43.0213 47.3912 42.1993 47.4756 41.5268 47.8182C38.3156 49.4534 36.9599 53.175 38.4107 56.5046C39.9974 60.1457 44.2789 61.3995 47.6173 59.3625C48.4635 58.8472 49.1865 58.0825 49.7522 57.2596C49.7551 57.2557 49.7567 57.2511 49.757 57.2463C49.7573 57.2415 49.7563 57.2367 49.754 57.2324C49.7517 57.2281 49.7482 57.2245 49.744 57.2219C49.7397 57.2193 49.7349 57.2179 49.7299 57.2178C48.656 57.2178 47.5794 57.2178 46.5003 57.2178C45.8152 57.2172 45.3173 57.1696 45.0068 57.0752C41.9732 56.1523 42.077 51.6349 45.0922 50.7625C45.4299 50.6648 45.9999 50.6166 46.8021 50.6179C49.0826 50.6198 51.3557 50.6198 53.6214 50.6179C53.6292 50.618 53.6368 50.616 53.6437 50.6123C53.6505 50.6085 53.6562 50.603 53.6602 50.5963C53.6642 50.5896 53.6664 50.582 53.6666 50.5742C53.6668 50.5664 53.6649 50.5587 53.6612 50.5519C52.956 49.2301 52.2531 47.9091 51.5524 46.5886C51.1532 45.8375 50.9151 45.2879 50.8382 44.9398C50.4325 43.1222 51.4127 41.322 53.1012 40.5826C54.6452 39.9071 56.6016 40.404 57.6351 41.7714C57.7768 41.9583 58.0786 42.5008 58.5405 43.3988C60.5396 47.287 62.5365 51.1759 64.5311 55.0654C64.7552 55.5031 64.8746 55.9252 64.9949 56.392C65.0085 56.445 65.0234 56.4457 65.0396 56.3939Z" fill="white"/>
</svg>
