<svg width="100" height="100" viewBox="0 0 100 100" fill="none" xmlns="http://www.w3.org/2000/svg">
<rect width="100" height="100" fill="white"/>
<path d="M20.5096 14H79.524C83.7013 14.9698 86.3632 17.2735 87.5097 20.911C87.8366 21.9551 88 23.4697 88 25.4549C87.988 42.6151 87.9844 59.7717 87.9892 76.9247C87.9892 81.0591 84.4164 84.7014 80.6309 85.8329C79.6334 86.1299 78.0795 86.2795 75.9693 86.2819C58.7554 86.2963 41.5403 86.2963 24.324 86.2819C21.9301 86.2795 20.1827 86.1035 19.0819 85.7539C14.5032 84.3027 12.0373 80.3946 12.03 75.6208C12.006 58.6426 11.9964 41.6644 12.0012 24.6862C12.0036 18.9462 14.8397 15.3841 20.5096 14ZM49.9177 31.5972C49.0344 25.3507 42.5089 21.2918 36.8919 20.4908C30.352 19.5568 21.8147 23.0267 19.5722 29.7545C19.2069 30.8537 19.0242 32.7024 19.0242 35.3006C19.0291 47.5757 19.1048 59.8495 19.2514 72.1222C19.2706 73.6931 19.3283 75.3 19.4244 76.9427C19.4428 77.2576 19.5817 77.5537 19.8128 77.7706C20.0439 77.9875 20.3498 78.1089 20.6682 78.1101L45.1623 78.1209C45.2897 78.1209 45.4075 78.0862 45.5157 78.0167C49.9573 75.1503 48.8722 64.8556 48.8722 60.3692C48.8724 60.3277 48.8611 60.2871 48.8397 60.2515C48.8183 60.216 48.7875 60.187 48.7506 60.1678C48.7138 60.1485 48.6724 60.1397 48.6309 60.1423C48.5894 60.1448 48.5494 60.1587 48.5152 60.1824C44.9532 62.6034 38.6476 65.5237 34.3105 63.9037C31.4071 62.8189 28.7236 61.0828 26.26 58.6953C26.1759 58.6115 26.1747 58.5265 26.2564 58.4403C29.0396 55.4733 32.991 52.7721 37.0253 52.5997C40.9082 52.4309 43.8789 54.3885 46.9902 56.4683C47.269 56.6551 47.5995 56.7077 47.9817 56.6263C48.1066 56.6 48.1259 56.5389 48.0393 56.4431C41.878 49.6758 43.5832 42.1936 48.7388 35.6382C48.9515 35.3652 49.2615 34.7977 49.6365 34.4852C49.7398 34.399 49.8324 34.4098 49.9141 34.5175C52.1674 37.4989 56.1295 42.7863 55.65 46.5903C55.2174 50.0422 53.6383 53.1277 52.2323 56.2707C52.1553 56.4455 52.1974 56.4802 52.3584 56.3749C55.4662 54.3346 59.8213 51.6837 63.715 52.3231C67.2049 52.8942 71.1166 55.7463 73.8025 58.1924C73.8866 58.2691 73.8854 58.3445 73.7989 58.4187C71.2872 60.562 68.5388 62.3436 65.5537 63.7636C60.5135 66.1595 55.4878 63.4835 51.796 59.9884C51.7741 59.9667 51.7462 59.9518 51.7159 59.9457C51.6855 59.9395 51.654 59.9423 51.6253 59.9538C51.5965 59.9653 51.5718 59.9848 51.5541 60.0101C51.5364 60.0354 51.5265 60.0654 51.5256 60.0962C51.3598 63.4392 51.2624 66.8037 51.2336 70.1897C51.2048 73.4297 52.2286 75.919 54.6514 77.952C54.7772 78.0587 54.9369 78.1172 55.102 78.1173H79.0662C80.0444 78.1173 80.56 77.6312 80.6128 76.6589C80.6633 75.7346 80.6957 74.7755 80.7102 73.7817C80.8856 60.6709 80.983 47.5589 81.0022 34.4457C81.0046 32.6233 80.9229 31.3446 80.757 30.6094C79.8161 26.4391 75.825 23.1345 71.9674 21.6151C68.4727 20.2405 65.0429 19.9555 61.678 20.7602C56.2954 22.0497 51.0894 25.868 50.0619 31.6008C50.009 31.8978 49.9609 31.8966 49.9177 31.5972Z" fill="#DB1616"/>
</svg>
