<svg width="100" height="100" viewBox="0 0 100 100" fill="none" xmlns="http://www.w3.org/2000/svg">
<rect width="100" height="100" fill="white"/>
<path d="M14.8684 26.8004C28.5561 4.23284 61.1043 -1.8484 81.4636 15.7918C86.7357 20.3611 81.6559 27.2381 76.5296 24.2737C73.6957 22.6335 71.2132 21.347 69.0822 20.4141C35.9504 5.93718 1.16733 39.3475 14.6495 73.0364C14.6587 73.0717 14.6555 73.1091 14.6404 73.1423C14.6253 73.1755 14.5993 73.2026 14.5667 73.2189C14.534 73.2352 14.4968 73.2398 14.4612 73.2319C14.4255 73.2241 14.3937 73.2042 14.371 73.1757C14.119 72.7645 13.7874 72.1456 13.3762 71.3188C5.74097 55.8714 6.23834 41.032 14.8684 26.8004Z" fill="#1B9C39"/>
<path d="M65.5738 25.0892C90.3033 35.1959 93.3672 68.6328 70.4282 82.6985C68.4852 83.8922 66.7609 84.257 65.481 82.042C64.473 80.2979 64.9969 79.071 66.688 78.0431C86.9676 65.6949 86.4238 36.6283 65.6203 25.3876C65.5783 25.3637 65.5428 25.334 65.5172 25.3014C65.4916 25.2689 65.4769 25.2346 65.4744 25.202C65.4744 25.1754 65.4766 25.1511 65.481 25.129C65.4943 25.0804 65.5252 25.0671 65.5738 25.0892Z" fill="#74B72B"/>
<path d="M48.8753 28.027C63.8298 27.4633 74.7389 40.6073 74.9113 55.0113C74.9157 55.2456 74.8008 55.3628 74.5664 55.3628L65.9386 55.3429C65.8316 55.3432 65.7284 55.3031 65.6497 55.2305C65.571 55.1579 65.5226 55.0583 65.5142 54.9516C64.9041 46.5294 59.3534 39.2544 50.8251 38.3791C41.554 37.4241 34.4647 46.1978 34.0867 54.7858C34.0799 54.9395 34.014 55.0845 33.9028 55.1908C33.7916 55.297 33.6437 55.3563 33.4899 55.3561H24.8687C24.6565 55.3561 24.5526 55.25 24.557 55.0378C24.8753 41.3301 34.4249 28.5774 48.8753 28.027Z" fill="#1B9C39"/>
<path d="M54.8636 55.3958H64.957C65.045 55.3958 65.1293 55.4307 65.1915 55.4929C65.2537 55.5551 65.2886 55.6394 65.2886 55.7274L65.3417 64.6403C65.3417 64.7283 65.3067 64.8126 65.2445 64.8748C65.1824 64.937 65.098 64.9719 65.0101 64.9719H54.8636C54.7757 64.9719 54.6913 65.0069 54.6292 65.069C54.567 65.1312 54.532 65.2156 54.532 65.3035V75.4168C54.532 75.5047 54.4971 75.5891 54.4349 75.6513C54.3727 75.7134 54.2884 75.7484 54.2004 75.7484H45.2543C45.2102 75.7484 45.1666 75.7396 45.1259 75.7225C45.0852 75.7054 45.0484 75.6804 45.0175 75.6489C44.9866 75.6174 44.9623 75.5801 44.9461 75.5391C44.9298 75.4981 44.9219 75.4543 44.9227 75.4102L45.135 65.3101C45.1358 65.266 45.1279 65.2222 45.1116 65.1812C45.0954 65.1402 45.0711 65.1029 45.0402 65.0714C45.0093 65.0399 44.9725 65.0149 44.9318 64.9978C44.8911 64.9807 44.8475 64.9719 44.8034 64.9719H34.4712C34.3833 64.9719 34.299 64.937 34.2368 64.8748C34.1746 64.8126 34.1396 64.7283 34.1396 64.6403V55.6677C34.1396 55.5798 34.1746 55.4954 34.2368 55.4332C34.299 55.371 34.3833 55.3361 34.4712 55.3361L44.6575 55.3958C44.7454 55.3958 44.8298 55.3609 44.8919 55.2987C44.9541 55.2365 44.9891 55.1521 44.9891 55.0642L44.9493 45.0769C44.9484 45.0328 44.9563 44.989 44.9726 44.948C44.9888 44.907 45.0131 44.8696 45.044 44.8382C45.0749 44.8067 45.1117 44.7816 45.1524 44.7646C45.1931 44.7475 45.2367 44.7387 45.2809 44.7387L54.1938 44.6392C54.2379 44.6383 54.2817 44.6463 54.3227 44.6625C54.3637 44.6788 54.4011 44.7031 54.4326 44.734C54.4641 44.7648 54.4891 44.8017 54.5062 44.8424C54.5232 44.883 54.532 44.9267 54.532 44.9708V55.0642C54.532 55.1521 54.567 55.2365 54.6292 55.2987C54.6913 55.3609 54.7757 55.3958 54.8636 55.3958Z" fill="#1B9C39"/>
<path d="M24.3716 70.9071C34.1798 92.6656 61.7477 98.6009 79.4343 82.1875C79.5139 82.1124 79.5581 82.1256 79.567 82.2273C79.5714 82.2583 79.5714 82.2914 79.567 82.3268C79.5625 82.3533 79.5493 82.3799 79.5272 82.4064C59.1149 105.312 23.3503 96.439 15.8963 66.8021C15.1934 64.0035 18.2638 61.1254 20.9364 62.8098C22.78 63.977 23.7747 69.5874 24.3716 70.9071Z" fill="#B7D378"/>
</svg>
