<svg width="100" height="100" viewBox="0 0 100 100" fill="none" xmlns="http://www.w3.org/2000/svg">
<rect width="100" height="100" fill="#595C62"/>
<path d="M15.2061 40.8203H22.0733C23.4327 40.8203 24.4444 40.8789 25.1084 40.9961C25.7803 41.1055 26.378 41.3398 26.9014 41.6992C27.4327 42.0586 27.8741 42.5391 28.2256 43.1406C28.5772 43.7344 28.753 44.4023 28.753 45.1445C28.753 45.9492 28.5342 46.6875 28.0967 47.3594C27.667 48.0312 27.0811 48.5352 26.3389 48.8711C27.3858 49.1758 28.1905 49.6953 28.753 50.4297C29.3155 51.1641 29.5967 52.0273 29.5967 53.0195C29.5967 53.8008 29.4131 54.5625 29.0459 55.3047C28.6866 56.0391 28.1905 56.6289 27.5577 57.0742C26.9327 57.5117 26.1592 57.7812 25.2373 57.8828C24.6592 57.9453 23.2647 57.9844 21.0537 58H15.2061V40.8203ZM18.6748 43.6797V47.6523H20.9483C22.2998 47.6523 23.1397 47.6328 23.4678 47.5938C24.0616 47.5234 24.5264 47.3203 24.8623 46.9844C25.2061 46.6406 25.378 46.1914 25.378 45.6367C25.378 45.1055 25.2295 44.6758 24.9327 44.3477C24.6436 44.0117 24.21 43.8086 23.6319 43.7383C23.2881 43.6992 22.2998 43.6797 20.667 43.6797H18.6748ZM18.6748 50.5117V55.1055H21.8858C23.1358 55.1055 23.9287 55.0703 24.2647 55C24.7803 54.9062 25.1983 54.6797 25.5186 54.3203C25.8467 53.9531 26.0108 53.4648 26.0108 52.8555C26.0108 52.3398 25.8858 51.9023 25.6358 51.543C25.3858 51.1836 25.0225 50.9219 24.5459 50.7578C24.0772 50.5938 23.0537 50.5117 21.4756 50.5117H18.6748ZM32.8512 58V40.8203H38.0427L41.1598 52.5391L44.2419 40.8203H49.445V58H46.2223V44.4766L42.8122 58H39.4723L36.0739 44.4766V58H32.8512ZM53.262 58V40.8203H60.5628C62.3988 40.8203 63.7308 40.9766 64.5589 41.2891C65.3948 41.5938 66.0628 42.1406 66.5628 42.9297C67.0628 43.7188 67.3128 44.6211 67.3128 45.6367C67.3128 46.9258 66.9339 47.9922 66.1761 48.8359C65.4183 49.6719 64.2855 50.1992 62.7777 50.418C63.5277 50.8555 64.1448 51.3359 64.6292 51.8594C65.1214 52.3828 65.7816 53.3125 66.6097 54.6484L68.7073 58H64.5589L62.0511 54.2617C61.1605 52.9258 60.5511 52.0859 60.223 51.7422C59.8948 51.3906 59.5472 51.1523 59.18 51.0273C58.8128 50.8945 58.2308 50.8281 57.4339 50.8281H56.7308V58H53.262ZM56.7308 48.0859H59.2972C60.9613 48.0859 62.0003 48.0156 62.4144 47.875C62.8284 47.7344 63.1527 47.4922 63.387 47.1484C63.6214 46.8047 63.7386 46.375 63.7386 45.8594C63.7386 45.2812 63.5823 44.8164 63.2698 44.4648C62.9652 44.1055 62.5316 43.8789 61.9691 43.7852C61.6878 43.7461 60.8441 43.7266 59.4378 43.7266H56.7308V48.0859ZM86.4463 58H82.6728L81.1728 54.0977H74.3056L72.8877 58H69.208L75.8994 40.8203H79.5673L86.4463 58ZM80.0595 51.2031L77.6923 44.8281L75.372 51.2031H80.0595Z" fill="#F8F8F8"/>
</svg>
