<svg width="100" height="100" viewBox="0 0 100 100" fill="none" xmlns="http://www.w3.org/2000/svg">
<rect width="100" height="100" fill="#00585E"/>
<path d="M48.7888 60.7005C48.7545 60.7005 48.721 60.7107 48.6926 60.73C48.6642 60.7492 48.6422 60.7765 48.6294 60.8084C48.6167 60.8402 48.6138 60.8752 48.6211 60.9087C48.6284 60.9422 48.6456 60.9728 48.6704 60.9964C51.4564 63.5298 54.2443 66.0829 57.0342 68.6558C65.688 76.6348 77.4612 74.7525 85.2922 66.6847C86.63 65.3056 89.0095 67.253 87.6362 69.5733C80.0775 82.3527 65.102 84.2528 53.3643 75.9837C46.6343 71.2425 41.1176 66.081 35.2517 60.7123C35.1057 60.5781 34.9321 60.5111 34.7308 60.5111C29.5693 60.5584 25.1398 60.0849 21.4423 59.0905C17.364 57.9895 9.59812 53.923 12.7234 48.7852C15.6653 43.9493 25.0767 46.0861 29.0129 48.1045C31.4871 49.3752 34.8394 51.5297 39.0696 54.5682C39.2274 54.6827 39.403 54.7419 39.5964 54.7458C48.5165 54.8346 67.0672 52.4137 66.712 39.7052C66.5048 32.3122 59.1355 25.227 52.4232 22.6818C49.7181 21.6577 51.1446 18.4259 53.8201 19.0888C61.1283 20.8961 67.3316 24.5818 72.4299 30.1458C81.4389 39.9834 77.6802 52.023 66.197 57.1845C60.7159 59.6508 54.9132 60.8228 48.7888 60.7005Z" fill="#FBFC00"/>
<path d="M33.5939 56.9854C29.0363 56.4465 21.7983 54.6522 18.1832 51.5829C17.8897 51.3332 17.9489 51.182 18.3609 51.1294C24.4556 50.321 29.6157 53.4363 33.7716 56.6568C34.1269 56.9328 34.0677 57.0423 33.5939 56.9854Z" fill="#00585E"/>
</svg>
