<svg width="100" height="100" viewBox="0 0 100 100" fill="none" xmlns="http://www.w3.org/2000/svg">
<rect width="100" height="100" fill="white"/>
<path d="M84.5529 25.5099C72.1653 13.3917 49.8898 17.3643 36.233 24.7136C26.7402 29.8207 16.993 38.7177 15.9422 50.1473C15.8764 50.8778 16.053 51.695 15.9842 52.5003" stroke="#48A0D6" stroke-width="0.598723"/>
<path d="M88.1602 39.4992C87.9726 39.583 87.8299 39.6079 87.7321 39.574C87.6443 39.5421 87.6034 39.4373 87.6094 39.2597C88.0315 27.7432 74.7279 22.5553 65.4626 22.0643C54.6886 21.4956 44.2948 24.112 34.9038 29.3897C25.0069 34.9489 12.0656 48.0878 19.8699 60.3886C19.9138 60.4584 19.9048 60.5203 19.843 60.5742L19.5256 60.8646" stroke="#ACD1E2" stroke-width="0.598723"/>
<path d="M66.0166 29.6831C61.582 28.3719 56.8561 28.1574 51.8388 29.0395C42.7831 30.6321 33.2065 35.4458 28.9077 43.8369" stroke="#66BBDC" stroke-width="0.598723"/>
<path d="M73.7071 36.4457C73.0345 35.8829 72.3929 35.3401 71.7822 34.8172C60.2238 24.9442 30.5871 34.4639 28.7819 50.5935C28.7699 50.6973 28.8148 50.7632 28.9166 50.7911L29.228 50.8779" stroke="#028AD0" stroke-width="0.598723"/>
<path d="M29.2279 50.8779L29.0154 53.3746" stroke="#5BAFD1" stroke-width="0.598723"/>
<path d="M67.5131 40.5469C68.7126 42.6763 69.2784 44.6531 69.2105 46.4772C69.0279 51.4346 65.4745 55.9909 61.496 58.9756C54.3682 64.3192 45.5101 66.8428 36.628 65.792C32.0079 65.2432 28.2529 63.3163 25.363 60.0114" stroke="#598CB4" stroke-width="0.598723"/>
<path d="M74.2487 41.4479C71.5186 34.1226 63.4089 32.3653 56.4817 32.6467C46.1806 33.0688 34.3049 38.3525 29.8505 48.3303C29.5182 49.0787 29.4044 50.0606 29.2278 50.8778" stroke="#598CB4" stroke-width="0.598723"/>
<path d="M71.5847 46.6658C71.6835 55.0389 65.3251 60.7687 58.3619 64.2922C50.8689 68.0791 40.6936 69.9441 32.7037 66.9445C30.6141 66.1602 28.5745 64.7801 26.5847 62.8043" stroke="#028AD0" stroke-width="0.598723"/>
<path d="M79.9368 37.2598L79.7721 37.622C79.7262 37.7218 79.7402 37.8136 79.814 37.8974C81.0294 39.2785 81.8537 40.6944 82.2868 42.1453C82.9134 44.2429 83.2158 45.7377 83.1938 46.6298C83.0781 51.1122 81.6751 55.1696 78.9848 58.8018C70.6805 70.0099 56.4159 76.3564 42.786 77.5059C37.8925 77.917 33.4 77.6307 29.3088 76.6468C20.9057 74.6261 12.8259 69.1777 12.8379 59.5772C12.8379 59.4754 12.787 59.4235 12.6852 59.4215H12.4487" stroke="#ACD1E2" stroke-width="0.598723"/>
<path d="M35.29 69.8693C47.3663 72.9677 63.6665 67.7319 70.6087 56.9639" stroke="#66BBDC" stroke-width="0.598723"/>
<path d="M84.8015 47.3452C84.6997 59.9753 74.6621 69.6357 64.3222 75.126C56.6425 79.2053 48.474 81.4495 39.8164 81.8586C31.2756 82.2597 21.9386 80.0834 15.9094 73.6711" stroke="#48A0D6" stroke-width="0.598723"/>
<path d="M84.5529 25.51C72.1653 13.3918 49.8898 17.3644 36.233 24.7137C26.7402 29.8208 16.993 38.7178 15.9422 50.1474C15.8764 50.8779 16.053 51.6951 15.9841 52.5004C12.5505 45.3996 14.7747 37.5743 19.4178 31.6349C31.3564 16.3645 55.9459 9.82345 73.7429 16.7716C78.2832 18.5458 81.8866 21.4586 84.5529 25.51Z" fill="#0066B3"/>
<path d="M84.5529 25.5099C87.7261 29.9913 89.4205 33.901 88.1602 39.499C87.9726 39.5829 87.8299 39.6078 87.7321 39.5739C87.6443 39.5419 87.6034 39.4372 87.6094 39.2595C88.0315 27.7431 74.7278 22.5552 65.4626 22.0642C54.6886 21.4954 44.2948 24.1119 34.9038 29.3896C25.0069 34.9487 12.0655 48.0877 19.8699 60.3885C19.9138 60.4583 19.9048 60.5202 19.8429 60.5741L19.5256 60.8645C17.5957 58.4915 16.4152 55.7035 15.9842 52.5003C16.053 51.695 15.8764 50.8778 15.9422 50.1473C16.993 38.7177 26.7402 29.8207 36.233 24.7136C49.8898 17.3643 72.1653 13.3917 84.5529 25.5099Z" fill="#8FD9F8"/>
<path d="M88.1602 39.4992L87.2621 43.8519C87.0167 45.0513 86.853 45.0403 86.7712 43.8189C86.3491 37.3497 79.9038 32.8024 74.1321 31.0602C71.1884 30.1721 68.4832 29.713 66.0165 29.6831C61.5819 28.3719 56.856 28.1574 51.8387 29.0395C42.783 30.6321 33.2065 35.4458 28.9076 43.8369C28.1413 44.5414 27.303 45.5423 26.393 46.8395C22.3546 52.6082 20.774 59.3827 24.971 65.5197C24.9786 65.5308 24.9821 65.5442 24.9807 65.5576C24.9794 65.571 24.9733 65.5835 24.9636 65.5928C24.9539 65.6021 24.9412 65.6077 24.9277 65.6086C24.9143 65.6095 24.901 65.6055 24.8902 65.5975C22.9563 64.2583 21.1681 62.6807 19.5256 60.8646L19.843 60.5742C19.9048 60.5203 19.9138 60.4585 19.8699 60.3886C12.0656 48.0878 25.0069 34.9489 34.9038 29.3897C44.2948 24.112 54.6886 21.4956 65.4627 22.0643C74.7279 22.5553 88.0315 27.7432 87.6094 39.2597C87.6034 39.4373 87.6443 39.5421 87.7321 39.574C87.8299 39.6079 87.9726 39.583 88.1602 39.4992Z" fill="#C8C9CB"/>
<path d="M66.0164 29.6829C69.3333 30.9552 72.5455 33.0507 73.707 36.4454C73.0345 35.8826 72.3928 35.3398 71.7821 34.8169C60.2238 24.944 30.587 34.4637 28.7818 50.5933C28.7699 50.697 28.8148 50.7629 28.9166 50.7908L29.2279 50.8777L29.0154 53.3743C27.4307 50.4366 27.3948 47.2574 28.9076 43.8367C33.2064 35.4456 42.783 30.6318 51.8387 29.0392C56.856 28.1571 61.5819 28.3717 66.0164 29.6829Z" fill="#04ADED"/>
<path d="M73.7071 36.4457C74.4196 37.8607 74.6002 39.5281 74.2489 41.448C71.5187 34.1227 63.4091 32.3654 56.4818 32.6468C46.1808 33.0689 34.3051 38.3526 29.8506 48.3304C29.5183 49.0788 29.4046 50.0607 29.228 50.8779L28.9166 50.7911C28.8148 50.7632 28.7699 50.6973 28.7819 50.5935C30.5871 34.4639 60.2238 24.9442 71.7822 34.8172C72.3929 35.3401 73.0345 35.8829 73.7071 36.4457Z" fill="#0066B3"/>
<path d="M74.2491 41.4479C74.4677 43.5225 74.7221 45.193 74.0695 47.2496C74.0216 47.3992 73.9777 47.3982 73.9378 47.2466C73.8151 46.7736 73.7971 46.2407 73.6564 45.8246C72.4171 42.1425 69.3606 39.7715 65.7563 38.592C65.5906 38.5381 65.5687 38.5731 65.6904 38.6968L67.5135 40.5469C68.713 42.6763 69.2788 44.6531 69.2109 46.4772C69.0283 51.4346 65.4749 55.9909 61.4964 58.9756C54.3686 64.3192 45.5105 66.8428 36.6284 65.792C32.0083 65.2432 28.2533 63.3163 25.3634 60.0113C24.8066 58.291 24.7667 56.5417 25.2437 54.7635C25.2776 54.6378 25.3305 54.6288 25.4023 54.7366C27.1067 57.3051 29.4387 59.0574 32.3984 59.9934C32.4183 60.001 32.4401 60.0013 32.4602 59.9943C32.4802 59.9872 32.4971 59.9733 32.5079 59.955C32.5187 59.9367 32.5226 59.9152 32.519 59.8943C32.5154 59.8733 32.5045 59.8544 32.4882 59.8407C30.3957 57.85 29.8688 56.1196 29.0156 53.3745L29.2282 50.8778C29.4048 50.0606 29.5186 49.0787 29.8509 48.3303C34.3054 38.3525 46.181 33.0688 56.4821 32.6467C63.4093 32.3653 71.519 34.1226 74.2491 41.4479Z" fill="#B1B1B4"/>
<path d="M79.9368 37.26L79.7721 37.6222C79.7262 37.722 79.7402 37.8138 79.814 37.8976C81.0294 39.2787 81.8537 40.6947 82.2868 42.1456C82.9134 44.2431 83.2158 45.7379 83.1938 46.63C83.0781 51.1125 81.6751 55.1698 78.9848 58.8021C70.6805 70.0101 56.4159 76.3566 42.786 77.5062C37.8925 77.9173 33.4 77.6309 29.3088 76.647C20.9057 74.6263 12.8259 69.1779 12.8379 59.5774C12.8379 59.4756 12.787 59.4237 12.6852 59.4217H12.4487L13.5474 54.599C13.6472 54.1659 13.717 54.1699 13.7569 54.611C14.3976 61.4903 19.7442 66.0556 26.0876 68.199C29.0413 69.1949 32.1088 69.7517 35.29 69.8694C47.3662 72.9678 63.6665 67.732 70.6087 56.964C73.1053 54.6449 75.1101 51.8529 76.6228 48.5878C79.0317 43.3889 78.7134 38.4125 75.6679 33.6587C75.6638 33.6526 75.6621 33.6453 75.6631 33.638C75.664 33.6308 75.6676 33.6242 75.6731 33.6194C75.6786 33.6146 75.6857 33.612 75.693 33.6121C75.7003 33.6121 75.7074 33.6149 75.7128 33.6198C77.2096 34.7174 78.6176 35.9308 79.9368 37.26Z" fill="#C8C9CB"/>
<path d="M79.9368 37.2598C81.8946 39.1318 83.2308 41.3051 83.9453 43.7799C84.1109 44.3526 84.3963 45.5411 84.8014 47.3453C84.6996 59.9753 74.6621 69.6357 64.3221 75.126C56.6425 79.2053 48.4739 81.4495 39.8164 81.8586C31.2756 82.2598 21.9385 80.0834 15.9094 73.6711C12.6583 69.5249 11.1885 64.6154 12.4488 59.4215H12.6853C12.787 59.4235 12.8379 59.4754 12.8379 59.5772C12.826 69.1777 20.9057 74.6261 29.3088 76.6468C33.4001 77.6307 37.8925 77.917 42.7861 77.5059C56.416 76.3564 70.6806 70.0099 78.9848 58.8018C81.6751 55.1696 83.0781 51.1122 83.1939 46.6298C83.2158 45.7377 82.9135 44.2429 82.2868 42.1453C81.8537 40.6944 81.0295 39.2785 79.8141 37.8974C79.7402 37.8136 79.7263 37.7218 79.7722 37.622L79.9368 37.2598Z" fill="#8FD9F8"/>
<path d="M36.8528 46.3064C43.5855 39.466 54.8474 36.0922 64.1875 38.1548C64.5527 38.2357 64.7833 38.4452 64.9569 38.7955C67.7409 44.3905 64.1247 50.4945 59.6851 54.027C52.7369 59.5622 42.6425 62.6067 33.7844 60.4094C33.6826 60.3854 33.6058 60.3275 33.5539 60.2357C30.8057 55.2783 33.1587 50.0574 36.8528 46.3064Z" fill="white"/>
<path d="M67.5134 40.5469C69.549 42.0636 70.9061 44.1033 71.5847 46.6658C71.6835 55.039 65.325 60.7687 58.3619 64.2922C50.8689 68.0791 40.6936 69.9442 32.7036 66.9446C30.6141 66.1602 28.5744 64.7802 26.5847 62.8044L25.3633 60.0114C28.2531 63.3163 32.0081 65.2432 36.6283 65.792C45.5103 66.8428 54.3684 64.3192 61.4962 58.9756C65.4747 55.9909 69.0281 51.4346 69.2108 46.4772C69.2786 44.6531 68.7128 42.6763 67.5134 40.5469Z" fill="#0066B3"/>
<path d="M71.5847 46.6658C73.4318 49.9647 72.381 53.7816 70.6088 56.9638C63.6666 67.7318 47.3664 72.9677 35.2901 69.8693C31.4284 68.4922 28.2162 66.8308 26.5847 62.8043C28.5745 64.7801 30.6141 66.1602 32.7037 66.9445C40.6936 69.9441 50.8689 68.0791 58.3619 64.2922C65.3251 60.7687 71.6835 55.0389 71.5847 46.6658Z" fill="#04ADED"/>
<path d="M84.8015 47.3452C88.7171 55.6375 84.7536 64.8399 78.931 70.9469C66.0225 84.496 41.6515 90.4832 24.6238 81.7808C20.9457 79.9008 18.0409 77.1975 15.9094 73.6711C21.9386 80.0834 31.2756 82.2597 39.8164 81.8586C48.474 81.4495 56.6425 79.2053 64.3222 75.126C74.6621 69.6357 84.6997 59.9753 84.8015 47.3452Z" fill="#0066B3"/>
</svg>
