<svg width="100" height="100" viewBox="0 0 100 100" fill="none" xmlns="http://www.w3.org/2000/svg">
<rect width="100" height="100" fill="#03519C"/>
<rect width="86" height="55" transform="translate(7 22)" fill="#03519C"/>
<path d="M88.7845 60.2954C89.2855 60.3569 89.3823 60.5896 89.0748 60.9933C75.5357 79.1201 44.9958 80.2101 26.008 72.3896C12.9984 67.0259 1.18439 54.1128 10.1175 39.1119C14.3534 31.995 23.7819 26.9082 31.4453 24.6936C49.135 19.5779 70.3489 21.36 84.8389 33.408C84.8758 33.4396 84.9025 33.4821 84.9152 33.5295C84.9279 33.577 84.9259 33.627 84.9097 33.6727C84.8934 33.7184 84.8635 33.7575 84.8243 33.7845C84.7851 33.8115 84.7384 33.825 84.6908 33.8233L78.1889 33.6906C77.9687 33.6868 77.7714 33.6156 77.5968 33.4772C61.8884 21.0774 33.996 20.2123 20.0412 36.1418C6.21175 51.9328 20.3828 68.1102 35.8521 72.7818C51.8052 77.5975 72.3018 74.4485 82.4647 59.7302C82.5558 59.5995 82.6811 59.5438 82.8405 59.563L88.7845 60.2954Z" fill="white"/>
<path d="M65.1736 33.0909C65.7354 33.4753 65.6784 33.7041 65.0028 33.7772C52.4885 35.0691 41.7733 46.7076 29.1736 40.2193C28.6916 39.9694 28.6119 39.6233 28.9345 39.1812C37.6285 27.2255 53.1489 24.7743 65.1736 33.0909Z" fill="white"/>
<path d="M37.5943 44.6544C43.396 45.0696 49.2716 42.532 54.7943 40.5422C59.4402 38.8735 64.2284 37.9066 69.159 37.6413C69.8536 37.6028 70.2313 37.8758 70.292 38.4602C70.3148 38.6717 70.2218 38.7736 70.013 38.7659C61.0742 38.4948 53.9061 42.134 45.9751 45.6002C39.365 48.4839 33.5576 47.3477 27.1126 44.5678C26.919 44.4833 26.8507 44.3372 26.9076 44.1295L27.2663 42.9069C27.2807 42.8581 27.3045 42.8127 27.3363 42.7734C27.368 42.7341 27.4071 42.7017 27.4511 42.678C27.4952 42.6543 27.5434 42.6399 27.5928 42.6357C27.6422 42.6314 27.6919 42.6373 27.7388 42.6531C31.1853 43.7643 34.4704 44.4314 37.5943 44.6544Z" fill="white"/>
<path d="M89.5474 39.4002C89.546 39.423 89.5401 39.4452 89.5302 39.4656C89.5202 39.4861 89.5064 39.5043 89.4894 39.5193C89.4725 39.5343 89.4528 39.5458 89.4315 39.5531C89.4102 39.5604 89.3877 39.5633 89.3652 39.5617L83.5066 39.2388C82.9986 39.2109 82.5147 39.1212 82.1613 38.9892C81.8079 38.8573 81.614 38.694 81.6221 38.5351L81.6448 38.0391C81.6564 37.8811 81.8676 37.7409 82.2324 37.649C82.5972 37.5572 83.086 37.5212 83.592 37.5489L89.4563 37.8661C89.4788 37.8676 89.5007 37.8735 89.5209 37.8836C89.5411 37.8937 89.5591 37.9077 89.5739 37.9249C89.5887 37.942 89.6 37.9619 89.6072 37.9835C89.6144 38.0051 89.6173 38.028 89.6157 38.0507L89.5474 39.4002Z" fill="white"/>
<path d="M26.6229 47.1228C32.7036 49.4932 38.807 50.6179 45.104 49.1472C46.5046 48.8204 49.6398 47.7265 54.5097 45.8656C60.2449 43.6778 66.1794 42.6589 72.3132 42.8089C72.5713 42.8166 72.725 42.9492 72.7744 43.2068L72.8769 43.7374C72.8858 43.7871 72.8833 43.8383 72.8695 43.8869C72.8558 43.9355 72.8312 43.9802 72.7976 44.0176C72.764 44.055 72.7223 44.084 72.6758 44.1025C72.6293 44.1209 72.5793 44.1282 72.5296 44.1238C63.2776 43.2414 56.4113 46.4711 48.1329 50.2141C40.4809 53.6746 33.7227 52.5442 26.3553 49.1241C26.1504 49.0318 26.065 48.8742 26.0991 48.6512L26.287 47.3189C26.3174 47.1113 26.4293 47.0459 26.6229 47.1228Z" fill="white"/>
<path d="M92.0935 43.5293L84.7172 43.0723C84.6324 43.067 84.5595 43.1323 84.5543 43.2182L84.4661 44.6803C84.4609 44.7662 84.5254 44.84 84.6101 44.8453L91.9865 45.3023C92.0712 45.3075 92.1441 45.2422 92.1493 45.1564L92.2376 43.6942C92.2428 43.6084 92.1783 43.5345 92.0935 43.5293Z" fill="white"/>
<path d="M38.733 55.0356C43.8685 55.722 49.5563 53.0113 54.5495 51.2523C61.302 48.8761 66.6425 47.7226 73.4121 48.0514C73.4958 48.055 73.5773 48.0801 73.6489 48.1243C73.7205 48.1685 73.7798 48.2303 73.8213 48.3041C73.8629 48.3779 73.8852 48.4611 73.8863 48.546C73.8875 48.6309 73.8673 48.7147 73.8277 48.7896L73.7252 48.9799C73.6341 49.1529 73.4918 49.2318 73.2982 49.2164C63.9324 48.5243 56.491 52.002 48.1159 55.6874C40.6574 58.9632 34.0529 57.2503 26.9019 54.2397C26.8356 54.2132 26.7769 54.1703 26.7311 54.1149C26.6854 54.0595 26.6541 53.9934 26.64 53.9225L26.2984 52.2269C26.2877 52.1696 26.2922 52.1105 26.3115 52.0555C26.3308 52.0006 26.3642 51.9518 26.4082 51.9142C26.4523 51.8766 26.5054 51.8516 26.5621 51.8417C26.6189 51.8318 26.6772 51.8374 26.7311 51.8578C30.6179 53.4227 34.6185 54.482 38.733 55.0356Z" fill="white"/>
<path d="M92.6652 49.255L85.8191 48.7214C85.6341 48.707 85.4726 48.8472 85.4584 49.0346L85.3806 50.0581C85.3664 50.2455 85.5048 50.4091 85.6898 50.4235L92.5359 50.9571C92.7209 50.9716 92.8823 50.8313 92.8966 50.644L92.9743 49.6204C92.9886 49.433 92.8501 49.2694 92.6652 49.255Z" fill="white"/>
<path d="M39.5871 60.2264C44.6942 60.9473 50.4333 58.1847 55.4151 56.3738C61.7918 54.0438 66.6768 53.046 73.0307 53.2709C73.089 53.2727 73.1461 53.2881 73.1976 53.3161C73.249 53.344 73.2935 53.3837 73.3276 53.4322C73.3617 53.4806 73.3845 53.5365 73.3942 53.5956C73.4039 53.6546 73.4003 53.7152 73.3837 53.7727C73.3496 53.888 73.2661 53.9919 73.1332 54.0841C73.0383 54.1495 72.9188 54.1822 72.7745 54.1822C63.5625 54.1014 56.383 57.8098 48.0761 61.0857C41.7791 63.5714 36.1369 62.7063 29.4413 60.0937C29.2478 60.0168 29.1016 59.8842 29.0029 59.6958L27.6536 57.1754C27.6306 57.131 27.6218 57.0804 27.6283 57.0307C27.6349 56.981 27.6566 56.9346 27.6903 56.8979C27.7241 56.8611 27.7682 56.8359 27.8167 56.8257C27.8652 56.8156 27.9156 56.8209 27.961 56.8409C31.6504 58.5212 35.5258 59.6496 39.5871 60.2264Z" fill="white"/>
<path d="M91.6095 54.8479L84.9869 54.2374C84.8021 54.2204 84.6387 54.3583 84.6219 54.5454L84.5507 55.338C84.5339 55.5252 84.67 55.6907 84.8548 55.7077L91.4774 56.3183C91.6622 56.3353 91.8256 56.1974 91.8424 56.0102L91.9136 55.2176C91.9304 55.0305 91.7943 54.8649 91.6095 54.8479Z" fill="white"/>
<path d="M31.9292 63.0695C41.7732 67.1701 47.2902 65.0939 56.8781 61.0855C61.486 59.1592 66.2799 58.3114 71.2598 58.5421C71.461 58.5498 71.5103 58.6421 71.4079 58.819C67.7071 65.238 61.9054 69.0676 54.6291 70.3767C46.2255 71.8916 38.5773 69.5885 31.6843 63.4675C31.6406 63.431 31.6114 63.3797 31.6022 63.3231C31.593 63.2665 31.6045 63.2084 31.6344 63.1597C31.6644 63.111 31.7108 63.075 31.765 63.0584C31.8193 63.0418 31.8776 63.0458 31.9292 63.0695Z" fill="white"/>
</svg>
