<svg width="100" height="100" viewBox="0 0 100 100" fill="none" xmlns="http://www.w3.org/2000/svg">
<rect width="100" height="100" fill="#790008"/>
<path d="M84.7907 49.95L38.5107 49.58L18.1807 22.57C18.1415 22.5161 18.1176 22.4523 18.1116 22.3858C18.1056 22.3193 18.1178 22.2527 18.1469 22.1935C18.176 22.1343 18.2208 22.0849 18.2762 22.0507C18.3316 22.0165 18.3955 21.999 18.4607 22H64.1407C64.5474 22 64.8707 22.16 65.1107 22.48L85.3607 49.43C85.5341 49.65 85.4974 49.8334 85.2507 49.98C85.1241 50.0534 84.9707 50.0434 84.7907 49.95Z" fill="white"/>
<path d="M38.5108 49.5801L84.7908 49.9501C84.5641 50.8634 84.1708 51.6867 83.6108 52.4201C77.3841 60.4934 71.2208 68.6234 65.1208 76.8101C65.0183 76.9467 64.8855 77.0576 64.7327 77.1339C64.58 77.2103 64.4116 77.2501 64.2408 77.2501H18.4508C17.9708 77.2501 17.8741 77.0567 18.1608 76.6701L38.5108 49.5801Z" fill="#ED3024"/>
</svg>
