<svg width="100" height="100" viewBox="0 0 100 100" fill="none" xmlns="http://www.w3.org/2000/svg">
<rect width="100" height="100" fill="#595C62"/>
<path d="M21.8623 40.8203H28.7295C30.0889 40.8203 31.1006 40.8789 31.7647 40.9961C32.4366 41.1055 33.0342 41.3398 33.5577 41.6992C34.0889 42.0586 34.5303 42.5391 34.8819 43.1406C35.2334 43.7344 35.4092 44.4023 35.4092 45.1445C35.4092 45.9492 35.1905 46.6875 34.753 47.3594C34.3233 48.0312 33.7373 48.5352 32.9952 48.8711C34.042 49.1758 34.8467 49.6953 35.4092 50.4297C35.9717 51.1641 36.253 52.0273 36.253 53.0195C36.253 53.8008 36.0694 54.5625 35.7022 55.3047C35.3428 56.0391 34.8467 56.6289 34.2139 57.0742C33.5889 57.5117 32.8155 57.7812 31.8936 57.8828C31.3155 57.9453 29.9209 57.9844 27.71 58H21.8623V40.8203ZM25.3311 43.6797V47.6523H27.6045C28.9561 47.6523 29.7959 47.6328 30.1241 47.5938C30.7178 47.5234 31.1827 47.3203 31.5186 46.9844C31.8623 46.6406 32.0342 46.1914 32.0342 45.6367C32.0342 45.1055 31.8858 44.6758 31.5889 44.3477C31.2998 44.0117 30.8662 43.8086 30.2881 43.7383C29.9444 43.6992 28.9561 43.6797 27.3233 43.6797H25.3311ZM25.3311 50.5117V55.1055H28.542C29.792 55.1055 30.585 55.0703 30.9209 55C31.4366 54.9062 31.8545 54.6797 32.1748 54.3203C32.503 53.9531 32.667 53.4648 32.667 52.8555C32.667 52.3398 32.542 51.9023 32.292 51.543C32.042 51.1836 31.6787 50.9219 31.2022 50.7578C30.7334 50.5938 29.71 50.5117 28.1319 50.5117H25.3311ZM39.5895 58V40.8203H42.9645L49.9958 52.293V40.8203H53.2184V58H49.738L42.8122 46.7969V58H39.5895ZM57.1527 58V40.8203H60.6214V58H57.1527ZM64.3095 58V40.8203H71.6103C73.4463 40.8203 74.7783 40.9766 75.6064 41.2891C76.4423 41.5938 77.1103 42.1406 77.6103 42.9297C78.1103 43.7188 78.3603 44.6211 78.3603 45.6367C78.3603 46.9258 77.9814 47.9922 77.2236 48.8359C76.4658 49.6719 75.333 50.1992 73.8252 50.418C74.5752 50.8555 75.1923 51.3359 75.6767 51.8594C76.1689 52.3828 76.8291 53.3125 77.6572 54.6484L79.7548 58H75.6064L73.0986 54.2617C72.208 52.9258 71.5986 52.0859 71.2705 51.7422C70.9423 51.3906 70.5947 51.1523 70.2275 51.0273C69.8603 50.8945 69.2783 50.8281 68.4814 50.8281H67.7783V58H64.3095ZM67.7783 48.0859H70.3447C72.0088 48.0859 73.0478 48.0156 73.4619 47.875C73.8759 47.7344 74.2002 47.4922 74.4345 47.1484C74.6689 46.8047 74.7861 46.375 74.7861 45.8594C74.7861 45.2812 74.6298 44.8164 74.3173 44.4648C74.0127 44.1055 73.5791 43.8789 73.0166 43.7852C72.7353 43.7461 71.8916 43.7266 70.4853 43.7266H67.7783V48.0859Z" fill="#F8F8F8"/>
</svg>
