<svg width="100" height="100" viewBox="0 0 100 100" fill="none" xmlns="http://www.w3.org/2000/svg">
<rect width="100" height="100" fill="white"/>
<path d="M47.4211 17.1482L44.8794 19.0319" stroke="#E43C3E" stroke-width="3.26866"/>
<path d="M44.8794 19.0317L49.5363 50.8056" stroke="#C74142" stroke-width="3.26866"/>
<path d="M49.5082 18.9922L47.4214 17.1482" stroke="#FF6565" stroke-width="3.26866"/>
<path d="M48.769 52.1336C49.3869 51.9331 49.6428 51.4906 49.5367 50.8059" stroke="#AC3134" stroke-width="3.26866"/>
<path d="M49.5362 50.8055C49.7296 48.9596 49.7997 47.1326 49.7466 45.3245C49.6708 42.7297 49.6329 41.4152 49.6329 41.3812C49.6064 33.8803 49.5647 26.4172 49.5078 18.9919" stroke="#E43C3E" stroke-width="3.26866"/>
<path d="M59.9925 13.0002L47.4205 17.1479L44.8788 19.0316C41.869 17.4921 38.7056 16.2079 35.3887 15.179C35.3849 13.7189 36.2037 12.9984 37.8451 13.0173C44.9831 13.1043 52.3655 13.0986 59.9925 13.0002Z" fill="#C92B2F"/>
<path d="M59.9924 13.0003C60.2312 12.9852 60.8264 13.4996 61.7778 14.5436L49.5072 18.992L47.4204 17.1479L59.9924 13.0003Z" fill="#FF7E7E"/>
<path d="M61.7779 14.5437L50.6445 52.8596C50.4511 53.5253 50.0361 53.7201 49.3992 53.444C49.1377 53.3305 48.9273 52.8936 48.7681 52.1333C49.386 51.9328 49.6418 51.4903 49.5357 50.8056C49.729 48.9597 49.7991 47.1327 49.7461 45.3246C49.6702 42.7298 49.6323 41.4153 49.6323 41.3813C49.6058 33.8804 49.5641 26.4173 49.5073 18.992L61.7779 14.5437Z" fill="#C92B2F"/>
<path d="M35.3887 15.179C38.7056 16.2078 41.8689 17.492 44.8788 19.0315L49.5357 50.8054C49.6419 51.4901 49.386 51.9326 48.7681 52.1331L35.3887 15.179Z" fill="#8E3638"/>
<path d="M47.4206 17.1479L49.5074 18.992C49.5643 26.4172 49.606 33.8803 49.6325 41.3812C49.6325 41.4152 49.6704 42.7297 49.7462 45.3246C49.7993 47.1326 49.7292 48.9596 49.5358 50.8055L44.8789 19.0317L47.4206 17.1479Z" fill="#FF4C4C"/>
<path d="M64.5812 27.9512L69.9432 36.5244C70.038 36.6757 70.0058 36.7911 69.8466 36.8706L67.6574 37.9713C67.4527 38.0734 67.3143 38.2342 67.2423 38.4536L52.8565 82.4604C52.8375 82.5209 52.8413 82.555 52.8678 82.5625C52.8792 82.5663 52.8924 82.5701 52.9076 82.5739C52.9607 82.5814 53.0005 82.5531 53.027 82.4888L71.1544 40.3827C71.2302 40.1974 71.3685 40.0971 71.5694 40.082L83.226 39.0437L52.6176 86.4321C52.4594 86.6763 52.2204 86.8573 51.9422 86.9438C51.664 87.0302 51.3642 87.0166 51.095 86.9053C50.8259 86.7939 50.6043 86.5919 50.469 86.3344C50.3337 86.0769 50.2932 85.7802 50.3545 85.4959L62.5513 29.5682C62.6005 29.3564 62.701 29.173 62.8526 29.0179C63.3947 28.477 63.9709 28.1214 64.5812 27.9512Z" fill="#04A746"/>
<path d="M64.5809 27.9512L82.7991 36.0138C82.9849 36.097 83.0835 36.2407 83.0948 36.445L83.2256 39.0437L71.5691 40.082C71.3682 40.0971 71.2298 40.1974 71.154 40.3827L53.0267 82.4888C53.0001 82.5531 52.9603 82.5814 52.9072 82.5739C52.8921 82.5701 52.8788 82.5663 52.8674 82.5625C52.8409 82.555 52.8371 82.5209 52.8561 82.4604L67.2419 38.4536C67.314 38.2342 67.4523 38.0734 67.657 37.9713L69.8462 36.8706C70.0054 36.7911 70.0376 36.6757 69.9429 36.5244L64.5809 27.9512Z" fill="#80BF35"/>
<path d="M35.6446 31.1457L29.2022 39.1516C29.1665 39.1952 29.1447 39.2486 29.1396 39.3052C29.1346 39.3618 29.1465 39.4189 29.1738 39.4693L45.5497 68.3836C45.5829 68.4362 45.5938 68.4999 45.5799 68.5605C45.566 68.6212 45.5286 68.6739 45.4758 68.707C45.423 68.7401 45.3593 68.7509 45.2985 68.7371C45.2377 68.7232 45.1849 68.6859 45.1517 68.6332L25.8417 40.6552C25.7318 40.4925 25.5763 40.4036 25.3754 40.3885C23.427 40.2486 21.5259 39.9781 19.6723 39.5771C18.8421 39.4013 18.427 39.6169 17.8925 40.2013C17.0699 39.4788 16.8159 38.6069 17.1306 37.5856C17.1836 37.4116 17.2898 37.283 17.449 37.1998L32.6252 29.2336C32.7996 29.1428 32.9721 29.1428 33.1426 29.2336C33.7984 29.574 34.4163 29.9523 34.9963 30.3684C35.8379 30.9736 36.054 31.2327 35.6446 31.1457Z" fill="#00A7E9"/>
<path d="M35.6446 31.1453C39.9509 44.8572 44.1075 58.2457 48.1143 71.3108C48.2792 71.8555 48.5521 72.4399 48.1541 72.9336C48.0701 73.0385 47.964 73.1236 47.8432 73.183C47.7223 73.2424 47.5898 73.2746 47.4548 73.2773C47.3199 73.28 47.1858 73.2532 47.062 73.1987C46.9382 73.1442 46.8277 73.0634 46.7382 72.9619L17.8926 40.2008C18.4271 39.6164 18.8422 39.4008 19.6723 39.5767C21.526 39.9776 23.4271 40.2481 25.3755 40.3881C25.5764 40.4032 25.7319 40.4921 25.8418 40.6547L45.1518 68.6328C45.185 68.6854 45.2378 68.7228 45.2986 68.7366C45.3593 68.7505 45.4231 68.7396 45.4759 68.7065C45.5287 68.6734 45.5661 68.6207 45.58 68.5601C45.5939 68.4994 45.583 68.4358 45.5498 68.3831L29.1738 39.4689C29.1465 39.4184 29.1347 39.3613 29.1397 39.3047C29.1448 39.2482 29.1666 39.1947 29.2023 39.1511L35.6446 31.1453Z" fill="#007FC9"/>
</svg>
