<svg width="100" height="100" viewBox="0 0 100 100" fill="none" xmlns="http://www.w3.org/2000/svg">
<rect width="100" height="100" fill="#595C62"/>
<path d="M17.1983 40.8203H24.0655C25.4248 40.8203 26.4366 40.8789 27.1006 40.9961C27.7725 41.1055 28.3702 41.3398 28.8936 41.6992C29.4248 42.0586 29.8662 42.5391 30.2178 43.1406C30.5694 43.7344 30.7452 44.4023 30.7452 45.1445C30.7452 45.9492 30.5264 46.6875 30.0889 47.3594C29.6592 48.0312 29.0733 48.5352 28.3311 48.8711C29.378 49.1758 30.1827 49.6953 30.7452 50.4297C31.3077 51.1641 31.5889 52.0273 31.5889 53.0195C31.5889 53.8008 31.4053 54.5625 31.0381 55.3047C30.6787 56.0391 30.1827 56.6289 29.5498 57.0742C28.9248 57.5117 28.1514 57.7812 27.2295 57.8828C26.6514 57.9453 25.2569 57.9844 23.0459 58H17.1983V40.8203ZM20.667 43.6797V47.6523H22.9405C24.292 47.6523 25.1319 47.6328 25.46 47.5938C26.0537 47.5234 26.5186 47.3203 26.8545 46.9844C27.1983 46.6406 27.3702 46.1914 27.3702 45.6367C27.3702 45.1055 27.2217 44.6758 26.9248 44.3477C26.6358 44.0117 26.2022 43.8086 25.6241 43.7383C25.2803 43.6992 24.292 43.6797 22.6592 43.6797H20.667ZM20.667 50.5117V55.1055H23.878C25.128 55.1055 25.9209 55.0703 26.2569 55C26.7725 54.9062 27.1905 54.6797 27.5108 54.3203C27.8389 53.9531 28.003 53.4648 28.003 52.8555C28.003 52.3398 27.878 51.9023 27.628 51.543C27.378 51.1836 27.0147 50.9219 26.5381 50.7578C26.0694 50.5938 25.0459 50.5117 23.4678 50.5117H20.667ZM34.9255 58V40.8203H38.3005L45.3317 52.293V40.8203H48.5544V58H45.0739L38.1481 46.7969V58H34.9255ZM52.5941 58V40.8203H58.1605C60.2698 40.8203 61.6448 40.9062 62.2855 41.0781C63.2698 41.3359 64.0941 41.8984 64.7581 42.7656C65.4222 43.625 65.7542 44.7383 65.7542 46.1055C65.7542 47.1602 65.5628 48.0469 65.18 48.7656C64.7972 49.4844 64.3089 50.0508 63.7152 50.4648C63.1292 50.8711 62.5316 51.1406 61.9222 51.2734C61.0941 51.4375 59.8948 51.5195 58.3245 51.5195H56.0628V58H52.5941ZM56.0628 43.7266V48.6016H57.9613C59.3284 48.6016 60.2425 48.5117 60.7034 48.332C61.1644 48.1523 61.5238 47.8711 61.7816 47.4883C62.0472 47.1055 62.18 46.6602 62.18 46.1523C62.18 45.5273 61.9964 45.0117 61.6292 44.6055C61.262 44.1992 60.7972 43.9453 60.2347 43.8438C59.8206 43.7656 58.9886 43.7266 57.7386 43.7266H56.0628ZM69.0088 58V40.8203H72.4775V48.4492L79.4853 40.8203H84.1494L77.6806 47.5117L84.5009 58H80.0127L75.29 49.9375L72.4775 52.8086V58H69.0088Z" fill="#F8F8F8"/>
</svg>
