<svg width="100" height="100" viewBox="0 0 100 100" fill="none" xmlns="http://www.w3.org/2000/svg">
<rect width="100" height="100" fill="#1071B8"/>
<path d="M97.7464 97.9772C97.7464 98.0496 97.7177 98.119 97.6665 98.1701C97.6154 98.2213 97.546 98.25 97.4736 98.25H2.27278C2.20044 98.25 2.13105 98.2213 2.0799 98.1701C2.02874 98.119 2 98.0496 2 97.9772V2.27278C2 2.20044 2.02874 2.13105 2.0799 2.0799C2.13105 2.02874 2.20044 2 2.27278 2H97.4736C97.546 2 97.6154 2.02874 97.6665 2.0799C97.7177 2.13105 97.7464 2.20044 97.7464 2.27278V97.9772Z" fill="#1071B8"/>
<path d="M48.6667 17.4963C49.1633 16.6569 49.7614 16.5765 50.4608 17.255C51.8982 18.6399 52.6116 20.8641 52.6116 23.0044C52.6326 40.98 52.6396 58.9521 52.6326 76.9207C52.6221 79.5122 52.0975 81.1593 50.5867 83.0688C50.0761 83.7123 49.5515 83.7193 49.013 83.0898C47.4707 81.2643 46.8832 79.3653 46.8832 76.8263C46.8482 58.8647 46.8482 40.903 46.8832 22.9414C46.8832 20.5598 47.5127 19.4372 48.6667 17.4963Z" fill="#FAEF15"/>
<path d="M39.7277 17.8317C42.7353 19.3984 43.8439 21.9304 43.0535 25.4276C42.9626 25.8263 42.7318 25.9382 42.3611 25.7633C39.3535 24.3435 38.063 21.9164 38.4897 18.4822C38.5946 17.6778 39.0073 17.461 39.7277 17.8317Z" fill="#FAEF15"/>
<path d="M56.1785 25.3648C55.1293 22.2802 56.7241 18.6921 59.9555 17.7479C60.3821 17.6289 60.627 17.7863 60.6899 18.22C61.2215 21.7032 59.9625 24.1862 56.9129 25.669C56.5562 25.8439 56.3114 25.7425 56.1785 25.3648Z" fill="#FAEF15"/>
<path d="M40.1893 36.5487C36.8215 29.9705 30.2957 28.019 23.0355 28.4282C19.3739 28.6275 17.37 27.5574 16.8664 23.9273C16.8175 23.5846 16.9679 23.4167 17.3176 23.4237C27.4735 23.623 40.4411 21.3464 41.0181 36.3284C41.0209 36.4276 40.99 36.5248 40.9306 36.6043C40.8712 36.6837 40.7867 36.7409 40.6908 36.7663C40.5949 36.7918 40.4933 36.7842 40.4022 36.7447C40.3112 36.7052 40.2362 36.6361 40.1893 36.5487Z" fill="#FAEF15"/>
<path d="M82.3131 23.3191C82.3837 23.3184 82.4534 23.336 82.5152 23.3701C82.5771 23.4043 82.629 23.4539 82.666 23.5142C82.703 23.5744 82.7237 23.6431 82.7262 23.7138C82.7287 23.7844 82.7129 23.8544 82.6803 23.9171L80.5505 27.8305C80.4654 27.9889 80.3395 28.1213 80.1861 28.2136C80.0328 28.306 79.8578 28.3549 79.6797 28.3551C70.7303 28.3656 63.5016 28.1453 58.686 37.0316C58.6576 37.0855 58.6121 37.1282 58.5566 37.1532C58.5011 37.1782 58.4389 37.1839 58.3798 37.1694C58.3207 37.1549 58.2681 37.1211 58.2305 37.0733C58.1928 37.0256 58.1722 36.9666 58.1719 36.9057C58.2033 21.4516 71.8844 23.5604 82.3131 23.3191Z" fill="#FAEF15"/>
<path d="M20.5491 32.6041C30.0125 31.0619 40.3258 36.7588 40.693 46.9147C40.705 47.186 40.6383 47.4547 40.501 47.6888C40.3637 47.9229 40.1614 48.1126 39.9182 48.2352C39.6751 48.3579 39.4013 48.4084 39.1295 48.3808C38.8577 48.3531 38.5992 48.2485 38.3848 48.0793C33.3489 44.1134 32.9921 38.3431 25.4802 37.5562C22.3851 37.2309 20.6016 36.2867 20.056 33.2966C19.9791 32.8979 20.1434 32.6671 20.5491 32.6041Z" fill="#FAEF15"/>
<path d="M79.1444 33.9048C76.7942 38.8884 74.8008 36.6746 71.1498 38.112C65.1171 40.4831 64.5505 47.9216 58.8221 48.1839C58.7162 48.1872 58.6109 48.1669 58.514 48.1245C58.4171 48.0821 58.3311 48.0186 58.2625 47.9389C58.1939 47.8592 58.1444 47.7653 58.1178 47.6642C58.0912 47.5631 58.088 47.4574 58.1087 47.3551C60.277 36.5277 67.0126 31.5687 78.3155 32.478C78.4769 32.4917 78.6325 32.544 78.7693 32.6307C78.9061 32.7173 79.02 32.8357 79.1014 32.9757C79.1827 33.1157 79.2291 33.2732 79.2365 33.435C79.244 33.5967 79.2124 33.7579 79.1444 33.9048Z" fill="#FAEF15"/>
<path d="M24.137 62.8724C34.7125 63.1347 32.7191 54.0175 40.2626 52.0975C40.3704 52.0701 40.4831 52.0679 40.5919 52.0911C40.7008 52.1143 40.8028 52.1623 40.89 52.2313C40.9773 52.3003 41.0475 52.3885 41.0952 52.489C41.1428 52.5895 41.1667 52.6997 41.1649 52.811C41.018 63.7117 30.4949 69.2198 20.8006 67.6041C20.4299 67.5412 20.3006 67.3314 20.4125 66.9746C20.8671 65.4079 21.7729 64.1454 23.1298 63.1872C23.4305 62.9703 23.7663 62.8654 24.137 62.8724Z" fill="#FAEF15"/>
<path d="M76.5533 63.0927C78.1969 64.0159 79.1971 65.4113 79.5539 67.2788C79.6308 67.7125 79.4524 67.9188 79.0188 67.8978C76.291 67.7719 73.3218 68.0762 70.8563 67.4047C63.736 65.4743 59.6897 60.7111 58.7175 53.1152C58.6992 52.9728 58.7167 52.8281 58.7686 52.6942C58.8204 52.5604 58.905 52.4416 59.0145 52.3488C59.124 52.256 59.255 52.1921 59.3955 52.1628C59.5361 52.1336 59.6817 52.14 59.8191 52.1814C67.0583 54.3742 65.6105 63.3235 75.4936 62.8409C75.8641 62.8272 76.2305 62.9143 76.5533 63.0927Z" fill="#FAEF15"/>
<path d="M40.1161 64.2781C40.312 63.9354 40.5603 63.6871 40.861 63.5332C40.9068 63.5092 40.958 63.4977 41.0096 63.4998C41.0612 63.5019 41.1114 63.5175 41.155 63.5452C41.1986 63.5729 41.2342 63.6115 41.2581 63.6573C41.282 63.7031 41.2934 63.7544 41.2912 63.806C40.9345 78.83 28.0927 76.9835 17.4228 77.0045C17.0521 77.0045 16.9157 76.8261 17.0136 76.4694C17.4473 74.8817 18.2376 73.5317 19.3847 72.4196C19.6673 72.1438 20.0476 71.9894 20.4444 71.9895C29.3203 72.0944 35.7096 72 40.1161 64.2781Z" fill="#FAEF15"/>
<path d="M78.148 72.1154C81.0961 72.2728 82.1768 73.7206 82.8692 76.3121C82.9881 76.7597 82.8202 76.9835 82.3656 76.9835C71.9265 77.099 58.9483 78.6727 58.707 64.0579C58.709 63.9885 58.733 63.9216 58.7757 63.8669C58.8184 63.8122 58.8774 63.7726 58.9442 63.7538C59.0111 63.735 59.0821 63.7382 59.147 63.7627C59.2119 63.7872 59.2673 63.8318 59.3051 63.89C64.1732 71.7902 69.5973 71.6748 78.148 72.1154Z" fill="#FAEF15"/>
<path d="M38.8671 82.4393C38.0488 79.1974 39.633 75.945 42.6127 74.5601C43.0183 74.3712 43.2666 74.4936 43.3576 74.9273C44.1689 78.5923 42.8924 81.2013 39.5281 82.754C39.4657 82.7836 39.3975 82.7988 39.3283 82.7985C39.2591 82.7983 39.1905 82.7826 39.1275 82.7526C39.0645 82.7226 39.0085 82.679 38.9635 82.6248C38.9186 82.5707 38.8856 82.5074 38.8671 82.4393Z" fill="#FAEF15"/>
<path d="M57.3852 74.6649C60.3438 76.2701 61.7602 78.8826 60.8474 82.2609C60.7495 82.6386 60.5222 82.7505 60.1654 82.5966C56.983 81.1977 55.724 78.7112 56.3885 75.1371C56.5004 74.5215 56.8326 74.3642 57.3852 74.6649Z" fill="#FAEF15"/>
</svg>
