<svg width="100" height="100" viewBox="0 0 100 100" fill="none" xmlns="http://www.w3.org/2000/svg">
<rect width="100" height="100" fill="#203A77"/>
<path d="M85.8442 37.6584C88.425 38.5987 88.6754 41.6434 86.6664 43.3341C81.4455 47.7237 76.2083 52.0988 70.9546 56.4593C70.8994 56.5042 70.8482 56.5002 70.8009 56.4474C64.7559 49.7944 58.7195 43.1454 52.6917 36.5003C51.6605 35.3639 49.9137 35.0076 48.5848 35.6728C48.1931 35.8681 47.5622 36.4316 46.6921 37.3634C40.7891 43.6772 34.8427 50.0406 28.853 56.4534C28.8328 56.4748 28.8051 56.4876 28.7757 56.4891C28.7464 56.4905 28.7175 56.4806 28.6953 56.4613C23.7544 52.2195 18.8044 47.9652 13.8452 43.6983C13.0092 42.9791 12.4867 42.4109 12.2777 41.9938C11.4832 40.418 12.4887 38.3235 14.0857 37.7118C14.5431 37.5363 15.339 37.4492 16.4733 37.4505C20.9357 37.4571 25.3981 37.4558 29.8605 37.4465C33.9654 37.4386 35.4934 37.3159 37.2777 33.6931C40.4559 27.2433 43.6387 20.7968 46.8262 14.3537C47.185 13.6265 47.5392 13.1098 47.8889 12.8036C49.5627 11.3327 52.3171 11.9602 53.2871 14.0409C56.1104 20.0894 58.9377 26.136 61.7689 32.1806C62.6641 34.093 63.2444 35.2148 63.5099 35.5461C64.5193 36.8051 65.9678 37.4366 67.8553 37.4406C73.1891 37.4498 78.5217 37.4538 83.8529 37.4525C84.8032 37.4525 85.467 37.5211 85.8442 37.6584Z" fill="#B9D02E"/>
<path d="M49.9393 62.9031C43.7734 68.6759 37.6154 74.4572 31.4653 80.247C30.9369 80.7439 30.3967 81.3082 29.752 81.5992C28.1563 82.3184 26.7308 82.0697 25.4756 80.8528C24.3754 79.7878 24.6022 78.5129 25.1365 77.0855C27.1133 71.8011 29.1014 66.5213 31.1006 61.2461C31.2307 60.9017 31.42 60.5915 31.6684 60.3157C36.721 54.7106 41.7643 49.0975 46.7985 43.4766C48.1195 42.0017 49.6731 41.0832 51.5717 42.0691C52.0725 42.3304 52.7547 42.9454 53.6183 43.9141C58.496 49.3925 63.3738 54.8703 68.2515 60.3474C68.5065 60.6324 68.703 60.9538 68.841 61.3115C70.9625 66.8031 73.0833 72.2954 75.2034 77.7883C75.9644 79.76 74.2196 81.71 72.3387 81.9397C70.6332 82.1495 69.7204 81.2686 68.3639 79.9937C62.2848 74.2882 56.1965 68.5914 50.099 62.9031C50.0451 62.853 49.9918 62.853 49.9393 62.9031Z" fill="white"/>
</svg>
