<svg width="100" height="100" viewBox="0 0 100 100" fill="none" xmlns="http://www.w3.org/2000/svg">
<rect width="100" height="100" fill="#B994D1"/>
<path d="M59.6245 19.252C41.8651 28.7733 31.4987 48.1799 25.8276 66.5575" stroke="#857C6F" stroke-width="2"/>
<path d="M59.6245 19.2521C41.8651 28.7735 31.4987 48.18 25.8276 66.5577C26.1108 63.8671 26.7575 60.7653 27.7677 57.2523C32.7959 39.7368 43.0016 25.9995 58.3846 16.0404C58.4169 16.0193 58.4538 16.006 58.4923 16.0016C58.5307 15.9972 58.5697 16.0019 58.606 16.0151C58.6423 16.0284 58.675 16.05 58.7014 16.0781C58.7277 16.1061 58.747 16.14 58.7577 16.1768L59.6245 19.2521Z" fill="#9CC44B"/>
<path d="M59.6247 19.252L61.7312 27.3011C61.781 27.4905 61.7198 27.6364 61.5476 27.7388C56.3988 30.8481 47.3068 37.226 44.6836 42.666C44.5114 43.026 44.586 43.0848 44.9075 42.8422C54.2636 35.7936 67.0579 30.0921 78.7559 30.5355C78.8019 30.537 78.8465 30.5509 78.885 30.5757C78.9236 30.6005 78.9545 30.6353 78.9746 30.6762C78.9947 30.7171 79.0031 30.7627 78.999 30.808C78.9948 30.8534 78.9783 30.8967 78.9511 30.9334C75.8209 35.2005 72.5836 39.3861 69.2391 43.4902C68.1255 44.8659 67.7984 46.4063 68.137 48.2595C68.9215 52.5379 69.7059 56.8088 70.4904 61.0721C70.4976 61.1086 70.4943 61.1463 70.4809 61.181C70.4676 61.2157 70.4446 61.246 70.4148 61.2685C70.3849 61.291 70.3493 61.3048 70.3119 61.3082C70.2746 61.3117 70.237 61.3047 70.2034 61.2881C64.4979 58.6335 59.1138 55.3763 53.5805 52.375C53.416 52.284 53.3873 52.1627 53.4944 52.0112C56.7834 47.3045 60.6177 43.4391 64.8193 39.4998C66.1931 38.2151 66.0305 37.9821 64.3314 38.8006C44.9017 48.1514 31.5793 63.8575 22.4011 82.8888C22.3822 82.9281 22.3509 82.9599 22.3119 82.9793C22.2728 82.9986 22.2282 83.0046 22.1848 82.9963C22.1413 82.9879 22.1014 82.9657 22.0711 82.933C22.0407 82.9003 22.0216 82.8588 22.0165 82.8149C21.9744 82.3033 22.0127 81.7595 22.1313 81.1835C23.1569 76.1888 24.3891 71.3135 25.8279 66.5575C31.4989 48.1799 41.8653 28.7733 59.6247 19.252Z" fill="#6D3493"/>
<path d="M30.5171 32.6276L37.8298 31.4793C37.8659 31.4738 37.9027 31.4784 37.9363 31.4925C37.9699 31.5067 37.9987 31.5299 38.0196 31.5595C38.0406 31.5891 38.0527 31.6239 38.0546 31.66C38.0566 31.696 38.0483 31.7319 38.0307 31.7636L34.8393 37.3513C34.8246 37.3785 34.8036 37.4019 34.7779 37.4194C34.7522 37.4369 34.7227 37.448 34.6918 37.4519C34.6609 37.4558 34.6295 37.4524 34.6003 37.4418C34.571 37.4312 34.5447 37.4138 34.5236 37.3911L30.4023 32.9516C30.3778 32.9258 30.3608 32.8938 30.3534 32.8592C30.3459 32.8245 30.3483 32.7884 30.3601 32.755C30.372 32.7215 30.3929 32.692 30.4206 32.6695C30.4483 32.647 30.4817 32.6325 30.5171 32.6276Z" fill="#6D3493"/>
</svg>
