<svg width="100" height="100" viewBox="0 0 100 100" fill="none" xmlns="http://www.w3.org/2000/svg">
<rect width="100" height="100" fill="white"/>
<path d="M83.5064 39.7254C83.0879 39.6856 82.6799 39.8183 82.2826 40.1234C82.1793 40.203 82.0627 40.2468 81.933 40.2547C69.5335 41.056 57.2082 42.5154 44.9571 44.6327C44.92 44.638 44.8861 44.6559 44.8611 44.6835C44.836 44.7111 44.8214 44.7467 44.8195 44.7844C44.8177 44.822 44.8287 44.8595 44.8509 44.8906C44.873 44.9217 44.9049 44.9444 44.9412 44.9551C50.6032 46.575 59.4876 50.4236 60.1114 57.2215C60.2942 59.2234 59.5591 61.3845 58.7207 63.2631C58.7009 63.3055 58.6976 63.3538 58.7115 63.3985C58.7255 63.4431 58.7556 63.481 58.796 63.5044C58.8365 63.5279 58.8842 63.5354 58.9299 63.5254C58.9755 63.5153 59.0157 63.4885 59.0426 63.4502C59.3207 63.0601 59.5909 62.6104 59.9485 62.2721C67.2806 55.4053 74.5108 48.4323 81.6389 41.3532C82.1435 40.8517 82.6799 40.5453 83.2561 40.1672" stroke="#D21B2F" stroke-width="2"/>
<path d="M83.5065 39.7255C83.088 39.6857 82.68 39.8183 82.2827 40.1235C82.1794 40.2031 82.0629 40.2468 81.9331 40.2548C69.5336 41.0561 57.2083 42.5154 44.9572 44.6328C44.9201 44.6381 44.8862 44.656 44.8612 44.6836C44.8362 44.7112 44.8215 44.7468 44.8196 44.7844C44.8178 44.8221 44.8288 44.8596 44.851 44.8907C44.8731 44.9217 44.905 44.9445 44.9413 44.9552C50.6033 46.575 59.4877 50.4237 60.1115 57.2215C60.2943 59.2235 59.5592 61.3846 58.7209 63.2632C58.701 63.3055 58.6977 63.3538 58.7116 63.3985C58.7256 63.4432 58.7557 63.481 58.7961 63.5045C58.8366 63.528 58.8843 63.5355 58.93 63.5254C58.9756 63.5154 59.0158 63.4885 59.0427 63.4502C59.3208 63.0602 59.591 62.6105 59.9486 62.2722C67.2807 55.4053 74.5109 48.4324 81.639 41.3533C82.1437 40.8518 82.6801 40.5453 83.2562 40.1672C85.5581 40.0744 87.8268 40.2893 90.0625 40.812C90.094 40.8194 90.1233 40.8346 90.1474 40.8561C90.1716 40.8777 90.1899 40.9049 90.2007 40.9352C90.2114 40.9654 90.2142 40.9978 90.2088 41.0291C90.2034 41.0605 90.19 41.0899 90.1698 41.1145C89.7115 41.6929 89.2069 42.2541 88.6559 42.798C83.4721 47.9243 78.2537 53.0014 73.001 58.0295C72.4765 57.8862 72.0408 57.991 71.6938 58.3439C67.633 62.4778 63.412 66.5095 59.0308 70.4391C58.9958 70.4703 58.9522 70.4903 58.9058 70.4964C58.8593 70.5026 58.8121 70.4947 58.7702 70.4737C58.7282 70.4527 58.6936 70.4196 58.6706 70.3787C58.6477 70.3377 58.6375 70.2909 58.6414 70.2441C58.7765 68.676 58.9632 67.0283 58.3752 65.5437C56.3964 60.5528 51.8231 58.0136 47.1147 56.0514C46.8498 55.94 46.6446 56.0779 46.4989 56.4653C42.8275 55.1307 39.0555 54.1039 35.1828 53.3848C35.212 53.2999 35.2173 53.211 35.1987 53.1182C35.1775 52.9908 35.1034 52.9165 34.9762 52.8953C29.8956 51.956 24.7793 51.2515 19.6272 50.7819C19.4868 50.7686 19.3676 50.8151 19.2696 50.9212L18.8127 51.4107L7.05162 50.7341C7.03847 50.7357 7.02564 50.732 7.01597 50.7238C7.00629 50.7156 7.00057 50.7036 7.00004 50.6904C6.99951 50.6772 7.00423 50.6639 7.01316 50.6534C7.02209 50.643 7.03449 50.6362 7.04765 50.6346L43.1374 44.6607C43.1578 44.6567 43.1763 44.6463 43.1902 44.6308C43.2041 44.6154 43.2126 44.5958 43.2144 44.5751C43.2162 44.5544 43.2112 44.5337 43.2002 44.5161C43.1892 44.4985 43.1727 44.485 43.1533 44.4776L41.8501 44.0438C42.0275 43.9164 42.1256 43.8063 42.1441 43.7134C42.16 43.6232 42.0792 43.5569 41.9017 43.5144C37.7986 42.5168 33.6465 41.8203 29.4453 41.4249C27.8043 41.2697 25.7223 40.8996 23.8231 40.8319C23.7092 40.8266 23.635 40.8797 23.6006 40.9911L23.4893 41.3573L9.35218 40.5652C9.00253 40.5467 8.99988 40.5069 9.34423 40.4458C25.6932 37.5219 42.1666 34.8898 58.7646 32.5495C68.7654 31.1366 78.7226 29.8113 88.8467 30.0222C89.938 30.0461 90.8942 30.2345 91.7154 30.5874C91.7962 30.6215 91.8672 30.6751 91.9221 30.7436C91.9771 30.812 92.0143 30.8932 92.0304 30.9798C92.0465 31.0664 92.0411 31.1558 92.0145 31.2401C91.988 31.3244 91.9412 31.4009 91.8783 31.463L83.5065 39.7255Z" fill="#D21B2F"/>
<path d="M83.2561 40.1671C82.6799 40.5452 82.1435 40.8517 81.6389 41.3532C74.5108 48.4323 67.2806 55.4053 59.9485 62.2721C59.5909 62.6104 59.3207 63.0601 59.0426 63.4502C59.0157 63.4885 58.9755 63.5153 58.9299 63.5254C58.8842 63.5354 58.8365 63.5279 58.796 63.5045C58.7556 63.481 58.7255 63.4431 58.7115 63.3985C58.6976 63.3538 58.7009 63.3055 58.7207 63.2631C59.5591 61.3846 60.2942 59.2234 60.1114 57.2215C59.4876 50.4236 50.6032 46.575 44.9412 44.9551C44.9049 44.9444 44.873 44.9217 44.8509 44.8906C44.8287 44.8595 44.8177 44.822 44.8195 44.7844C44.8214 44.7467 44.836 44.7111 44.8611 44.6835C44.8861 44.6559 44.92 44.638 44.9571 44.6327C57.2082 42.5154 69.5335 41.056 81.933 40.2547C81.8296 40.3343 82.0627 40.2468 81.933 40.2547C81.933 40.2547 82.8376 40.1273 83.2561 40.1671Z" fill="#981117"/>
<path d="M41.85 44.0438C35.8 42.7277 29.6797 41.8322 23.4893 41.3573L23.6005 40.9911C23.6349 40.8797 23.7091 40.8266 23.823 40.8319C25.7223 40.8996 27.8043 41.2697 29.4453 41.4249C33.6464 41.8203 37.7986 42.5168 41.9017 43.5144C42.0792 43.5569 42.16 43.6232 42.1441 43.7134C42.1255 43.8063 42.0275 43.9164 41.85 44.0438Z" fill="#D21B2F"/>
<path d="M35.1826 53.3849C29.7789 52.3819 24.3222 51.7239 18.8125 51.4108L19.2694 50.9213C19.3674 50.8152 19.4866 50.7687 19.627 50.782C24.7791 51.2516 29.8954 51.9561 34.976 52.8954C35.1032 52.9166 35.1773 52.9909 35.1985 53.1183C35.2171 53.2111 35.2118 53.3 35.1826 53.3849Z" fill="#D21B2F"/>
<path d="M73.0007 58.0296L56.5272 73.8739C56.4345 73.9642 56.3617 74.0703 56.3087 74.1924C56.2319 74.3701 56.1047 74.5054 55.9273 74.5983C55.7948 74.6699 55.767 74.6408 55.8438 74.5107C57.012 72.5685 58.0252 70.4711 58.057 68.1706C58.1325 62.0971 51.3778 58.2286 46.4985 56.4654C46.6442 56.078 46.8495 55.9401 47.1144 56.0515C51.8228 58.0136 56.3961 60.5529 58.3748 65.5438C58.9629 67.0283 58.7761 68.6761 58.641 70.2442C58.6371 70.291 58.6473 70.3378 58.6703 70.3788C58.6932 70.4197 58.7279 70.4528 58.7698 70.4738C58.8117 70.4948 58.859 70.5027 58.9054 70.4965C58.9519 70.4904 58.9954 70.4704 59.0304 70.4392C63.4117 66.5096 67.6327 62.4779 71.6934 58.344C72.0404 57.9911 72.4762 57.8863 73.0007 58.0296Z" fill="#D21B2F"/>
</svg>
