<svg width="100" height="100" viewBox="0 0 100 100" fill="none" xmlns="http://www.w3.org/2000/svg">
<rect width="100" height="100" fill="url(#paint0_linear_36_3139)"/>
<path d="M29.9598 37.8135C29.7623 39.8359 27.2738 41.2186 25.5408 42.0059C25.3531 42.0912 25.3581 42.1683 25.5556 42.2372L29.3723 43.5805L30.2511 44.4269C30.3005 45.3618 29.996 45.8178 29.3377 45.7948C27.975 43.4477 23.2103 43.6543 20.7267 43.6888C20.5621 43.6888 20.4502 43.7642 20.391 43.9151L18.7468 48.0239C18.625 48.4273 18.4242 48.7898 18.1444 49.1113C18.0061 49.2688 17.8761 49.2639 17.7543 49.0966L16.4459 47.3202C16.3938 47.2507 16.362 47.1682 16.3541 47.0822C16.3463 46.9961 16.3627 46.9099 16.4015 46.8331L19.596 40.2148L20.5885 38.2712C20.6372 38.1753 20.6577 38.0677 20.6478 37.9608C20.6379 37.8538 20.5979 37.7518 20.5324 37.6664C20.4669 37.5811 20.3785 37.516 20.2775 37.4784C20.1765 37.4409 20.0669 37.4326 19.9614 37.4543C17.3445 37.9989 15.149 39.0322 13.3748 40.5543C12.9337 40.761 12.5881 40.6068 12.3379 40.0918C12.241 39.8904 12.2222 39.6603 12.285 39.4452C12.3478 39.2302 12.4879 39.0452 12.6786 38.9256C17.3363 36.0487 22.412 35.0547 27.9058 35.9437C28.7617 36.0815 29.4463 36.7048 29.9598 37.8135ZM27.3281 37.6512C25.9687 37.0016 24.5516 36.8524 23.077 37.2034C22.9157 37.2427 22.8153 37.3444 22.7758 37.5085C22.4433 38.8862 21.9315 40.1984 21.2402 41.445C21.1184 41.668 21.176 41.7353 21.413 41.6467C23.151 40.9972 26.2814 39.7523 27.4713 38.3105C27.5131 38.2605 27.5429 38.2018 27.5584 38.1386C27.574 38.0754 27.5749 38.0096 27.5611 37.946C27.5473 37.8825 27.5191 37.8229 27.4788 37.7718C27.4384 37.7207 27.3869 37.6795 27.3281 37.6512Z" fill="#F4F4F4"/>
<path d="M27.3282 37.651C25.9687 37.0015 24.5517 36.8523 23.077 37.2033C22.9157 37.2426 22.8153 37.3443 22.7758 37.5083C22.4433 38.8861 21.9315 40.1983 21.2402 41.4449C21.1184 41.6679 21.176 41.7352 21.413 41.6466C23.151 40.9971 26.2814 39.7522 27.4714 38.3104C27.5131 38.2604 27.5429 38.2016 27.5584 38.1385C27.574 38.0753 27.5749 38.0095 27.5611 37.9459C27.5473 37.8824 27.5191 37.8228 27.4788 37.7717C27.4384 37.7206 27.3869 37.6793 27.3282 37.651Z" stroke="#DADADA" stroke-opacity="0.561" stroke-width="2"/>
<path d="M27.3282 37.651C27.3869 37.6793 27.4384 37.7206 27.4788 37.7717C27.5191 37.8228 27.5473 37.8824 27.5611 37.9459C27.5749 38.0095 27.574 38.0753 27.5584 38.1385C27.5429 38.2016 27.5131 38.2604 27.4714 38.3104C26.2814 39.7522 23.151 40.9971 21.413 41.6466C21.176 41.7352 21.1184 41.6679 21.2402 41.4449C21.9315 40.1983 22.4433 38.8861 22.7758 37.5083C22.8153 37.3443 22.9157 37.2426 23.077 37.2033C24.5517 36.8523 25.9687 37.0015 27.3282 37.651Z" fill="#010101" fill-opacity="0.118"/>
<path d="M19.5963 40.2147C19.4185 39.1814 18.6927 39.1994 17.4188 40.2688C17.1423 40.5017 16.6897 40.7068 16.061 40.8839C15.9227 40.9233 15.8059 40.9954 15.7104 41.1004C14.3773 42.5602 13.5988 42.3781 13.375 40.5542C15.1492 39.0321 17.3447 37.9988 19.9616 37.4542C20.0672 37.4325 20.1768 37.4408 20.2778 37.4783C20.3788 37.5159 20.4671 37.581 20.5326 37.6663C20.5981 37.7517 20.6381 37.8537 20.648 37.9607C20.658 38.0676 20.6374 38.1752 20.5887 38.2711L19.5963 40.2147Z" fill="#010101" fill-opacity="0.118"/>
<path d="M29.3724 43.5805L25.5557 42.2372C25.3582 42.1683 25.3533 42.0912 25.5409 42.0059C27.274 41.2186 29.7625 39.8359 29.96 37.8135C30.1904 37.5216 30.4109 37.3969 30.6216 37.4395C30.7697 37.4691 30.8635 37.556 30.903 37.7003C31.3277 39.1962 30.9919 40.469 29.8958 41.5188C29.7872 41.6204 29.7411 41.7451 29.7575 41.8927C29.8333 42.5619 29.7049 43.1245 29.3724 43.5805Z" fill="#010101" fill-opacity="0.118"/>
<path d="M29.3378 45.7948C29.4398 46.2278 29.2818 46.6346 28.8638 47.0151C25.5392 50.0298 21.6682 51.6799 17.2508 51.9653C17.1951 51.9714 17.1391 51.9577 17.0927 51.9266C17.0462 51.8955 17.0123 51.849 16.9969 51.7954C16.9815 51.7418 16.9857 51.6845 17.0087 51.6336C17.0316 51.5827 17.0719 51.5416 17.1224 51.5175C19.6504 50.1791 22.8746 48.0977 25.7235 48.2994C25.8032 48.3041 25.8827 48.2878 25.9537 48.2524C26.0248 48.217 26.0851 48.1636 26.1284 48.0977C26.451 47.6122 26.4247 47.0578 26.0494 46.4345L26.2815 46.4296C26.4691 46.4263 26.5185 46.341 26.4296 46.1737L26.2963 45.9227C26.2107 45.762 26.0774 45.6816 25.8963 45.6816C24.2818 45.662 22.924 44.2694 21.4328 45.7259C21.3239 45.8347 21.253 45.9762 21.2304 46.1294C21.0164 47.5958 20.1886 48.2272 18.7468 48.0239L20.391 43.9151C20.4503 43.7642 20.5622 43.6888 20.7268 43.6888C23.2103 43.6543 27.975 43.4477 29.3378 45.7948Z" fill="#010101" fill-opacity="0.118"/>
<path d="M30.2515 44.4268C31.42 45.88 31.2752 47.4185 29.817 49.0423C25.9015 52.408 20.6925 54.6666 15.3649 54.4944C13.9626 54.3172 13.3455 52.531 14.5897 51.729C18.2402 49.3736 21.6619 47.5333 24.8548 46.208C25.2366 46.0506 25.6349 46.126 26.0496 46.4344C26.4249 47.0577 26.4512 47.612 26.1286 48.0976C26.0853 48.1635 26.0251 48.2169 25.954 48.2523C25.8829 48.2877 25.8035 48.3039 25.7238 48.2993C22.8748 48.0976 19.6506 50.179 17.1226 51.5174C17.0722 51.5415 17.0319 51.5826 17.0089 51.6335C16.9859 51.6843 16.9818 51.7417 16.9972 51.7953C17.0125 51.8489 17.0465 51.8954 17.0929 51.9265C17.1394 51.9576 17.1954 51.9713 17.251 51.9652C21.6684 51.6798 25.5394 50.0297 28.864 47.015C29.2821 46.6345 29.4401 46.2277 29.338 45.7947C29.9964 45.8177 30.3008 45.3617 30.2515 44.4268Z" fill="#DCDCDC"/>
<path d="M40.4967 49.7361C39.6228 52.4375 36.606 55.6163 33.4558 54.3566C32.7909 53.7103 32.3301 52.9526 32.0733 52.0832L32.4486 49.8148C32.4551 49.7765 32.4492 49.7372 32.4317 49.7025C32.4142 49.6678 32.386 49.6396 32.3512 49.622C32.3165 49.6044 32.277 49.5983 32.2385 49.6047C32.2001 49.6111 32.1647 49.6295 32.1375 49.6574L31.4463 50.3413C31.3212 50.466 31.1912 50.4726 31.0562 50.361C30.8455 50.1839 30.6382 49.869 30.4341 49.4163C32.5638 47.2315 34.8581 45.7455 37.317 44.9582C40.1165 44.0675 40.5214 48.0729 40.4967 49.7361ZM37.9243 48.4075L37.9045 47.8663C37.8946 47.6366 37.791 47.5809 37.5935 47.699C35.6283 48.8897 33.9545 50.1248 33.9545 52.0832C33.9545 52.6114 34.1816 52.9526 34.6359 53.1067C36.1073 53.5939 39.3956 49.6623 38.1168 48.7667C37.9917 48.6782 37.9276 48.5584 37.9243 48.4075Z" fill="#DCDCDC"/>
<path d="M37.9243 48.4076L37.9046 47.8664C37.8947 47.6367 37.791 47.581 37.5935 47.6991C35.6284 48.8899 33.9546 50.125 33.9546 52.0834C33.9546 52.6115 34.1817 52.9527 34.636 53.1069C36.1073 53.594 39.3957 49.6624 38.1169 48.7669C37.9918 48.6783 37.9276 48.5585 37.9243 48.4076Z" stroke="#C5C5C5" stroke-opacity="0.561" stroke-width="2"/>
<path d="M53.5368 53.1561C53.3689 51.9686 53.7606 50.8631 54.7119 49.8396C54.7324 49.818 54.7447 49.7902 54.7469 49.7608C54.7491 49.7314 54.7411 49.702 54.7241 49.6772C54.7072 49.6524 54.6822 49.6337 54.6532 49.6239C54.6242 49.6141 54.5927 49.6138 54.5638 49.6231C54.4947 49.6494 54.4223 49.6969 54.3465 49.7658C52.7912 51.2027 48.6437 54.8095 46.2639 54.6963C45.2039 54.552 44.7332 53.6761 44.8517 52.0687C45.1052 50.5991 45.7701 49.3312 46.8465 48.265C46.9321 48.1797 46.9568 48.0781 46.9205 47.96L46.8564 47.7582C46.8427 47.7164 46.8193 47.6784 46.7883 47.6474C46.7572 47.6163 46.7193 47.593 46.6777 47.5795C46.6362 47.5661 46.5922 47.5627 46.5494 47.5699C46.5066 47.577 46.4662 47.5943 46.4317 47.6204L42.3534 50.7007C42.2879 50.7488 42.2134 50.7832 42.1345 50.8018C42.0556 50.8205 41.9738 50.8229 41.8942 50.809C41.3938 50.7204 41.1108 50.3793 41.0449 49.7855C42.457 48.5996 46.2293 44.8796 48.0167 45.1109C48.1878 45.1306 48.3096 45.2208 48.382 45.3815C48.9153 46.592 49.9028 48.0977 48.777 49.2541C47.9673 50.0807 47.2843 50.9681 46.728 51.9161C46.6929 51.9761 46.6718 52.0432 46.6663 52.1124C46.6608 52.1816 46.671 52.2512 46.6961 52.3159C46.7212 52.3807 46.7607 52.439 46.8115 52.4865C46.8623 52.534 46.9232 52.5694 46.9897 52.5903C47.095 52.6231 47.2464 52.587 47.4439 52.482C50.7718 50.7139 53.4134 48.8785 55.3686 46.9758C56.9832 45.4012 58.3953 47.34 58.0941 48.8555C58.0579 49.0425 58.1188 49.0802 58.2768 48.9687C59.9588 47.7713 61.2031 46.9742 62.0095 46.5773C63.5007 45.8342 64.8289 47.9107 64.4536 49.013C64.2397 49.6461 64.103 50.458 64.0438 51.4487C64.0381 51.5571 64.0645 51.6648 64.1195 51.7585C64.1746 51.8523 64.256 51.9278 64.3536 51.976C64.4513 52.0241 64.561 52.0427 64.6691 52.0295C64.7772 52.0162 64.8791 51.9717 64.9622 51.9014L67.4852 49.7461C67.5768 49.6694 67.6894 49.6215 67.8085 49.6087C67.9276 49.596 68.0477 49.619 68.1531 49.6747C68.2585 49.7304 68.3444 49.8163 68.3996 49.9211C68.4549 50.026 68.4769 50.1451 68.4629 50.2628C68.3147 51.5569 66.399 52.9446 65.4214 53.7073C62.1231 56.2955 61.5553 51.1042 61.4862 49.3328C61.4849 49.2851 61.4712 49.2385 61.4464 49.1976C61.4216 49.1567 61.3866 49.123 61.3448 49.0997C61.303 49.0763 61.2558 49.0642 61.2079 49.0646C61.1599 49.0649 61.1129 49.0776 61.0714 49.1015C58.843 50.3875 56.8433 51.9325 55.0724 53.7368C54.7399 54.0779 54.4568 54.2141 54.2231 54.1452C53.9203 54.0566 53.6915 53.7269 53.5368 53.1561Z" fill="#DCDCDC"/>
<path d="M86.213 45.5634C86.6031 46.7542 87.3783 47.9597 87.2795 49.0964C86.9981 52.4031 84.2232 55.4194 80.5892 54.8388C79.2001 53.8776 78.7771 52.3719 79.3203 50.3216C79.396 50.0297 79.3186 49.9821 79.0882 50.1789L78.0316 51.0647C75.8838 52.6639 73.5088 55.3407 70.497 54.204C67.1938 52.2456 69.3959 49.0275 71.366 47.202C72.5065 46.1489 76.9898 44.8499 76.812 47.6153C75.1793 49.1079 73.2949 50.4102 71.1586 51.5223C70.7109 51.7257 70.7158 52.0603 71.1734 52.5261C71.2642 52.6177 71.3788 52.6824 71.5044 52.7128C71.6299 52.7432 71.7615 52.7382 71.8844 52.6983C74.7728 51.7486 77.8538 48.8307 80.3176 47.0002C82.5889 45.3141 84.554 44.8351 86.213 45.5634ZM71.8597 49.3031L74.2544 47.5808C74.2568 47.5781 74.2582 47.5746 74.2582 47.571C74.2582 47.5674 74.2568 47.5639 74.2544 47.5612L74.205 47.4923C74.1402 47.4038 73.9562 47.407 73.6933 47.5011C73.4304 47.5952 73.1101 47.7725 72.8028 47.9942L72.709 48.0631C72.4018 48.2846 72.1326 48.5322 71.9604 48.7518C71.7883 48.9713 71.7272 49.1448 71.7906 49.2342L71.84 49.3031C71.8427 49.3055 71.8462 49.3068 71.8498 49.3068C71.8535 49.3068 71.857 49.3055 71.8597 49.3031ZM81.5767 53.712C83.2406 54.14 85.0725 51.2024 85.6501 50.0805C85.6814 50.0205 85.6875 49.9505 85.6672 49.886C85.6468 49.8214 85.6016 49.7675 85.5415 49.7361C84.8239 49.3621 84.5705 48.793 84.7811 48.0286C84.7916 47.9847 84.7884 47.9387 84.7719 47.8966C84.7554 47.8546 84.7265 47.8186 84.6889 47.7935C84.6513 47.7683 84.6068 47.7552 84.5616 47.7559C84.5163 47.7566 84.4723 47.771 84.4355 47.7974C82.5049 49.244 81.552 49.6377 80.9151 52.1521C80.6945 53.0247 80.9151 53.5447 81.5767 53.712Z" fill="#DCDCDC"/>
<path d="M81.5768 53.712C83.2408 54.1401 85.0726 51.2024 85.6503 50.0805C85.6816 50.0205 85.6877 49.9505 85.6673 49.886C85.647 49.8214 85.6018 49.7675 85.5417 49.7361C84.8241 49.3621 84.5706 48.793 84.7813 48.0286C84.7918 47.9847 84.7886 47.9387 84.7721 47.8966C84.7556 47.8546 84.7266 47.8186 84.689 47.7935C84.6514 47.7683 84.607 47.7552 84.5617 47.7559C84.5164 47.7566 84.4725 47.7711 84.4357 47.7974C82.5051 49.244 81.5522 49.6377 80.9152 52.1521C80.6947 53.0247 80.9152 53.5447 81.5768 53.712Z" stroke="#C5C5C5" stroke-opacity="0.561" stroke-width="2"/>
<path d="M86.2132 45.5635C87.7372 45.9374 88.4778 46.6116 88.435 47.5859C88.4285 47.7499 88.4647 47.9041 88.5437 48.0484C89.7188 50.1003 88.0549 53.1314 86.5045 54.4747C85.9515 54.952 85.1516 55.1489 84.5245 55.7492C84.4258 55.8443 84.3106 55.9116 84.1789 55.9509C83.2079 56.2331 82.2451 56.2642 81.2905 56.0444C80.9712 55.9723 80.9547 55.8542 81.2411 55.6901L81.6213 55.4687C81.6558 55.4487 81.6835 55.4189 81.7011 55.3831C81.7186 55.3474 81.7252 55.3073 81.7199 55.2678C81.7146 55.2284 81.6978 55.1913 81.6714 55.1614C81.6451 55.1315 81.6105 55.11 81.5719 55.0997L80.5894 54.8389C84.2234 55.4195 86.9982 52.4032 87.2797 49.0965C87.3784 47.9598 86.6032 46.7543 86.2132 45.5635Z" fill="#010101" fill-opacity="0.118"/>
<path d="M71.1587 51.5223C73.295 50.4103 75.1795 49.108 76.8121 47.6154C76.8286 47.6449 76.9191 47.658 77.0837 47.6547C77.1117 47.6548 77.1394 47.6491 77.1649 47.6381C77.1904 47.6271 77.2132 47.611 77.2318 47.5908C77.2746 47.5448 77.3042 47.512 77.3207 47.4923C77.3558 47.4557 77.4024 47.4322 77.4528 47.4257C77.5031 47.4192 77.5543 47.43 77.5976 47.4565C77.6409 47.483 77.6738 47.5234 77.6908 47.5711C77.7078 47.6189 77.7079 47.6709 77.691 47.7187C77.0294 49.3523 75.6617 49.1998 75.1284 50.2282C75.0626 50.3529 74.9672 50.4513 74.8421 50.5235C73.9879 51.0155 72.2647 52.4868 71.1587 51.5223Z" fill="#010101" fill-opacity="0.118"/>
<path d="M38.1169 48.7669C39.3957 49.6624 36.1073 53.594 34.636 53.1069C34.1817 52.9527 33.9546 52.6115 33.9546 52.0834C33.9546 50.125 35.6284 48.8899 37.5935 47.6991C37.791 47.581 37.8947 47.6367 37.9046 47.8664L37.9243 48.4076C37.9276 48.5585 37.9918 48.6783 38.1169 48.7669Z" fill="#010101" fill-opacity="0.118"/>
<path d="M44.8513 52.0686C44.904 51.4978 44.8118 51.1698 44.5748 51.0845C44.374 51.0123 44.267 51.0829 44.2539 51.2961C44.2341 51.6012 44.0679 51.7455 43.7552 51.7291C43.6038 51.7226 43.4639 51.7603 43.3355 51.8423C42.9932 52.0621 42.613 52.1408 42.1949 52.0785C42.0337 52.0555 41.8921 52.0998 41.7703 52.2113C39.2966 54.5142 37.8944 57.0139 33.8259 55.9658C33.7414 55.9439 33.6647 55.8989 33.6045 55.8359C33.5442 55.7729 33.503 55.6945 33.4854 55.6097C33.4679 55.5249 33.4748 55.4371 33.5053 55.3565C33.5359 55.2758 33.5888 55.2056 33.658 55.1539C33.9444 54.9374 33.8769 54.6717 33.4556 54.3567C36.6057 55.6164 39.6225 52.4377 40.4964 49.7363C40.5985 49.9298 40.7812 49.9462 41.0445 49.7855C41.1103 50.3792 41.3934 50.7204 41.8938 50.809C41.9734 50.8228 42.0552 50.8204 42.1341 50.8018C42.213 50.7832 42.2875 50.7488 42.3529 50.7007L46.4313 47.6204C46.4658 47.5943 46.5062 47.5769 46.5489 47.5698C46.5917 47.5627 46.6357 47.566 46.6773 47.5795C46.7189 47.593 46.7568 47.6162 46.7878 47.6473C46.8189 47.6784 46.8423 47.7164 46.8559 47.7582L46.9201 47.9599C46.9563 48.078 46.9316 48.1797 46.8461 48.265C45.7697 49.3311 45.1048 50.599 44.8513 52.0686Z" fill="#010101" fill-opacity="0.118"/>
<path d="M81.5768 53.712C80.9152 53.5447 80.6947 53.0247 80.9152 52.1521C81.5522 49.6377 82.5051 49.244 84.4357 47.7974C84.4725 47.7711 84.5164 47.7566 84.5617 47.7559C84.607 47.7552 84.6514 47.7683 84.689 47.7935C84.7266 47.8186 84.7556 47.8546 84.7721 47.8966C84.7886 47.9387 84.7918 47.9847 84.7813 48.0286C84.5706 48.793 84.8241 49.3621 85.5417 49.7361C85.6018 49.7675 85.647 49.8214 85.6673 49.886C85.6877 49.9505 85.6816 50.0205 85.6503 50.0805C85.0726 51.2024 83.2408 54.1401 81.5768 53.712Z" fill="#010101" fill-opacity="0.118"/>
<path d="M29.8167 49.0425C30.1524 49.7314 30.3581 49.856 30.4338 49.4164C30.6379 49.8691 30.8453 50.1841 31.056 50.3612C31.1909 50.4727 31.3209 50.4662 31.446 50.3415L32.1373 49.6576C32.1645 49.6297 32.1998 49.6113 32.2383 49.6049C32.2767 49.5985 32.3162 49.6046 32.351 49.6222C32.3857 49.6398 32.4139 49.668 32.4314 49.7027C32.4489 49.7374 32.4549 49.7767 32.4483 49.815L32.0731 52.0834L31.8756 51.4684C31.8295 51.3175 31.734 51.2732 31.5892 51.3355C31.0362 51.5782 30.4552 51.6603 29.8463 51.5815C29.6883 51.5618 29.5418 51.5963 29.4068 51.6849C28.2416 52.4361 27.0401 53.1004 25.8025 53.6777C22.6079 55.1736 19.1517 56.1479 15.5967 56.0249C15.4057 56.015 15.3136 55.915 15.3202 55.7247L15.3646 54.4945C20.6922 54.6668 25.9012 52.4082 29.8167 49.0425Z" fill="#010101" fill-opacity="0.118"/>
<path d="M53.5366 53.156C53.1548 53.1331 52.9096 53.3233 52.8009 53.7268C52.7614 53.8777 52.6791 53.9056 52.5541 53.8105C52.5047 53.7711 52.4586 53.7367 52.4158 53.7071C52.3203 53.6317 52.2232 53.63 52.1245 53.7022C50.6235 54.8241 47.7647 56.5906 45.9131 55.5524C45.7683 55.4704 45.7617 55.3801 45.8934 55.2817C46.1139 55.121 46.2373 54.9258 46.2637 54.6962C48.6436 54.8094 52.7911 51.2025 54.3464 49.7657C54.4221 49.6968 54.4945 49.6492 54.5636 49.623C54.5925 49.6137 54.624 49.614 54.653 49.6238C54.682 49.6335 54.707 49.6523 54.7239 49.6771C54.7409 49.7019 54.7489 49.7313 54.7467 49.7607C54.7445 49.7901 54.7322 49.8178 54.7117 49.8395C53.7604 50.863 53.3687 51.9685 53.5366 53.156Z" fill="#010101" fill-opacity="0.118"/>
<path d="M78.0314 51.0647C78.3771 51.5797 78.4906 52.1702 78.3721 52.8361C78.3491 52.987 78.2602 53.069 78.1055 53.0822C77.7895 53.1117 77.5756 53.215 77.4636 53.3922C76.9172 54.2451 76.147 54.7978 75.1529 55.0504C74.9982 55.0898 74.8665 55.1669 74.7579 55.2817C74.5308 55.5343 74.2312 55.613 73.8593 55.5179C73.7891 55.5009 73.7165 55.4982 73.6459 55.51C73.5754 55.5219 73.5086 55.548 73.4494 55.5868L73.1186 55.8033C73.0034 55.8787 72.8783 55.9148 72.7434 55.9115C71.6802 55.8886 70.7289 55.5392 69.8895 54.8634C69.8844 54.8612 69.8805 54.8574 69.8783 54.8526C69.8761 54.8477 69.8759 54.8422 69.8775 54.8367C69.8792 54.8312 69.8827 54.826 69.8875 54.822C69.8923 54.8179 69.8982 54.8152 69.9043 54.8142L70.1858 54.7749C70.3997 54.7453 70.5051 54.624 70.5018 54.4107L70.4968 54.2041C73.5087 55.3407 75.8836 52.6639 78.0314 51.0647Z" fill="#010101" fill-opacity="0.118"/>
<path d="M15.3204 62.087C15.903 61.9426 16.4429 62.0132 16.9399 62.2985C16.9632 62.3131 16.9812 62.3348 16.9912 62.3603C17.0012 62.3858 17.0027 62.4139 16.9955 62.4403C16.9883 62.4668 16.9728 62.4902 16.9512 62.5072C16.9297 62.5242 16.9032 62.5339 16.8757 62.5347L14.4563 62.5446C14.2918 62.5446 14.2095 62.4609 14.2095 62.2936V60.2073C14.2095 60.0105 14.3066 59.9252 14.5008 59.9514C14.56 59.958 14.6259 59.958 14.6983 59.9514C14.727 59.9494 14.7558 59.9532 14.7829 59.9626C14.8101 59.9721 14.8351 59.9869 14.8563 60.0062C14.8775 60.0255 14.8946 60.049 14.9065 60.0751C14.9184 60.1012 14.9248 60.1294 14.9254 60.1581L14.96 61.8114C14.9609 61.8548 14.9717 61.8975 14.9914 61.9363C15.0111 61.975 15.0393 62.0089 15.0739 62.0353C15.1085 62.0617 15.1486 62.0801 15.1913 62.0891C15.2339 62.098 15.2781 62.0973 15.3204 62.087Z" fill="#CDCACE" fill-opacity="0.996"/>
<path d="M19.596 61.6293C19.4577 61.1241 19.4627 60.614 19.6108 60.099C19.6339 60.0243 19.6829 59.9602 19.7491 59.9182C19.8152 59.8761 19.8942 59.8589 19.972 59.8696C20.0497 59.8802 20.1211 59.918 20.1734 59.9763C20.2257 60.0345 20.2556 60.1094 20.2576 60.1876V62.1706C20.2576 62.4166 20.1342 62.5396 19.8873 62.5396H17.7839C17.5996 62.5396 17.486 62.4511 17.4432 62.2739C17.2754 61.5719 17.2392 60.865 17.3346 60.1531C17.3405 60.0605 17.3831 59.9739 17.453 59.9126C17.5229 59.8512 17.6144 59.82 17.7074 59.8259C17.8004 59.8318 17.8872 59.8742 17.9488 59.9439C18.0104 60.0136 18.0416 60.1047 18.0357 60.1974V61.8015C18.0357 61.9656 18.118 62.0476 18.2826 62.0476H19.2701C19.322 62.0477 19.3732 62.036 19.4197 62.0135C19.4663 61.9909 19.507 61.9581 19.5386 61.9176C19.5701 61.8771 19.5917 61.83 19.6017 61.78C19.6117 61.7299 19.6097 61.6784 19.596 61.6293Z" fill="#CDCACE" fill-opacity="0.996"/>
<path d="M22.9835 61.1225L23.8624 60.1089C23.9068 60.0563 23.9663 60.0187 24.033 60.0011C24.0996 59.9834 24.17 59.9867 24.2347 60.0103C24.2994 60.034 24.3553 60.0769 24.3947 60.1332C24.434 60.1896 24.4551 60.2567 24.4549 60.3254V62.2936C24.4549 62.4576 24.3726 62.5396 24.208 62.5396H23.9611C23.8788 62.5396 23.8377 62.4986 23.8377 62.4166V61.5555C23.839 61.5138 23.8263 61.4728 23.8015 61.4391C23.7767 61.4054 23.7414 61.381 23.701 61.3697C23.6607 61.3584 23.6177 61.3608 23.579 61.3767C23.5402 61.3925 23.5079 61.4208 23.4871 61.4571L23.0329 62.21C23.0098 62.249 22.9768 62.2812 22.9372 62.3033C22.8975 62.3255 22.8526 62.3369 22.8068 62.3364C22.7609 62.3359 22.7158 62.3235 22.6758 62.3005C22.6358 62.2775 22.6023 62.2446 22.5786 62.205L22.154 61.4817C22.1319 61.4451 22.0986 61.4164 22.0591 61.3998C22.0195 61.3833 21.9757 61.3796 21.9339 61.3895C21.8922 61.3993 21.8547 61.4222 21.8268 61.4547C21.7989 61.4872 21.7821 61.5276 21.7788 61.5703L21.7195 62.3379C21.7096 62.4757 21.6339 62.5429 21.4924 62.5396C21.4496 62.5396 21.4084 62.5396 21.3689 62.5396C21.2044 62.5396 21.1221 62.4576 21.1221 62.2936V60.1482C21.1223 60.0905 21.1404 60.0343 21.1738 59.9873C21.2073 59.9402 21.2545 59.9045 21.309 59.8852C21.3635 59.8658 21.4227 59.8637 21.4785 59.879C21.5343 59.8944 21.584 59.9265 21.6208 59.9711L22.5836 61.1176C22.6078 61.1469 22.6381 61.1706 22.6724 61.187C22.7068 61.2034 22.7443 61.2122 22.7824 61.2126C22.8205 61.2131 22.8582 61.2053 22.8929 61.1897C22.9277 61.1741 22.9586 61.1512 22.9835 61.1225Z" fill="#CDCACE" fill-opacity="0.996"/>
<path d="M28.1436 62.3207C28.1433 62.3524 28.1368 62.3837 28.1244 62.4128C28.112 62.442 28.0939 62.4684 28.0712 62.4906C28.0486 62.5128 28.0218 62.5303 27.9923 62.5422C27.9628 62.554 27.9313 62.56 27.8995 62.5597L25.5494 62.5393C25.4852 62.5387 25.4239 62.5128 25.379 62.4672C25.334 62.4216 25.309 62.36 25.3096 62.2961L25.3279 60.1999C25.3282 60.1683 25.3348 60.137 25.3472 60.1078C25.3596 60.0787 25.3776 60.0523 25.4003 60.0301C25.423 60.0079 25.4498 59.9903 25.4793 59.9785C25.5087 59.9666 25.5402 59.9607 25.572 59.9609L27.9222 59.9814C27.9863 59.982 28.0476 60.0079 28.0926 60.0535C28.1376 60.0991 28.1625 60.1607 28.162 60.2246L28.1436 62.3207ZM27.4462 60.799C27.4435 60.7273 27.3628 60.6615 27.2221 60.6161C27.0813 60.5707 26.892 60.5494 26.6957 60.5569C26.5985 60.5606 26.5026 60.5713 26.4133 60.5883C26.324 60.6053 26.2432 60.6284 26.1755 60.6561C26.1077 60.6839 26.0543 60.7158 26.0184 60.75C25.9825 60.7843 25.9647 60.8201 25.9661 60.8557C25.9688 60.9274 26.0495 60.9932 26.1902 61.0386C26.331 61.084 26.5203 61.1053 26.7166 61.0978C26.8138 61.094 26.9097 61.0834 26.999 61.0663C27.0883 61.0493 27.1691 61.0263 27.2368 60.9985C27.3046 60.9708 27.358 60.9389 27.3939 60.9046C27.4298 60.8704 27.4476 60.8345 27.4462 60.799ZM27.432 61.7327C27.0304 61.5326 26.6123 61.4867 26.1778 61.5949C26.1209 61.6114 26.0721 61.6481 26.0405 61.6981C26.009 61.7481 25.9969 61.8079 26.0067 61.8661C26.0164 61.9244 26.0473 61.977 26.0934 62.0141C26.1395 62.0512 26.1977 62.0701 26.2568 62.0673L27.3777 61.9886C27.7134 61.9656 27.7315 61.8803 27.432 61.7327Z" fill="#CDCACE" fill-opacity="0.996"/>
<path d="M29.9798 62.0476L30.8389 62.0181C31.066 62.0083 31.1714 61.8918 31.1549 61.6688C31.122 61.1865 31.1105 60.6977 31.1203 60.2024C31.1203 60.1038 31.1596 60.0098 31.2295 59.9411C31.2994 59.8723 31.3943 59.8344 31.4931 59.8357C31.592 59.837 31.6868 59.8774 31.7567 59.948C31.8266 60.0187 31.8659 60.1137 31.8659 60.2122L31.856 62.2199C31.856 62.4331 31.7491 62.5397 31.5351 62.5397H29.2095C29.0022 62.5397 28.8985 62.4364 28.8985 62.2297V60.2811C28.8972 60.1846 28.9344 60.0914 29.002 60.0222C29.0696 59.953 29.162 59.9134 29.2589 59.9121C29.3558 59.9108 29.4493 59.9479 29.5187 60.0153C29.5882 60.0826 29.6279 60.1747 29.6292 60.2713C29.6457 60.747 29.6473 61.2259 29.6342 61.7081C29.6328 61.7535 29.6408 61.7987 29.6577 61.8408C29.6746 61.883 29.7001 61.9212 29.7326 61.9531C29.765 61.985 29.8037 62.0098 29.8463 62.0261C29.8888 62.0424 29.9343 62.0497 29.9798 62.0476Z" fill="#CDCACE" fill-opacity="0.996"/>
<path d="M34.8037 61.3439C34.8369 61.3748 34.8785 61.3952 34.9233 61.4027C34.9681 61.4101 35.0141 61.4044 35.0557 61.386C35.0972 61.3677 35.1324 61.3376 35.157 61.2995C35.1815 61.2614 35.1943 61.217 35.1937 61.1717V60.2024C35.1937 60.1696 35.2003 60.1372 35.213 60.1071C35.2257 60.0769 35.2443 60.0495 35.2678 60.0266C35.2912 60.0037 35.319 59.9857 35.3495 59.9736C35.3801 59.9616 35.4127 59.9557 35.4455 59.9563C35.485 59.9563 35.5262 59.9563 35.569 59.9563C35.7303 59.9596 35.8109 60.0416 35.8109 60.2024V62.3478C35.8105 62.4058 35.7937 62.4625 35.7625 62.5115C35.7314 62.5604 35.687 62.5997 35.6345 62.6248C35.5821 62.65 35.5236 62.6599 35.4657 62.6535C35.4079 62.6472 35.353 62.6248 35.3073 62.5889L33.6187 61.2308C33.5973 61.2134 33.5716 61.2022 33.5443 61.1986C33.517 61.195 33.4892 61.199 33.4641 61.2102C33.4389 61.2215 33.4174 61.2395 33.402 61.2622C33.3866 61.285 33.3778 61.3116 33.3767 61.339L33.3175 62.2936C33.3136 62.3632 33.2825 62.4286 33.2308 62.4755C33.179 62.5225 33.1109 62.5473 33.041 62.5446C32.9455 62.5413 32.8682 62.5151 32.8089 62.4658C32.7694 62.4265 32.748 62.3674 32.7447 62.2887C32.7085 61.5506 32.7052 60.8453 32.7348 60.1728C32.7379 60.1133 32.758 60.0558 32.7926 60.0072C32.8271 59.9585 32.8749 59.9206 32.9302 59.8979C32.9856 59.8753 33.0463 59.8687 33.1052 59.879C33.1641 59.8894 33.2189 59.9162 33.2632 59.9563L34.8037 61.3439Z" fill="#CDCACE" fill-opacity="0.996"/>
<path d="M39.6176 60.7141C38.8802 60.5468 38.2696 60.4975 37.7857 60.5664C37.5983 60.5985 37.4146 60.6966 37.2701 60.8417C37.1257 60.9869 37.0308 61.1689 37.0038 61.3525C36.9768 61.5361 37.0196 61.7082 37.1239 61.8357C37.2282 61.9632 37.3866 62.0369 37.5685 62.0426H38.8671C38.9286 62.0433 38.9879 62.0195 39.0319 61.9766C39.0759 61.9337 39.1009 61.8752 39.1016 61.8138C39.1022 61.7525 39.0784 61.6934 39.0354 61.6496C38.9923 61.6057 38.9335 61.5807 38.872 61.5801C38.6646 61.5768 38.4622 61.5342 38.2647 61.4522C37.8302 61.275 37.8466 61.1569 38.3141 61.0979L39.6274 60.9306C39.8776 61.5079 39.8644 61.9852 39.5879 62.3625C39.4991 62.4806 39.3806 62.5396 39.2324 62.5396H36.9859C36.7785 62.5396 36.6748 62.4379 36.6748 62.2345V60.3401C36.6748 60.1072 36.7933 59.9907 37.0303 59.9907H39.2571C39.425 59.9907 39.5451 60.0678 39.6176 60.222C39.7097 60.4188 39.7097 60.5828 39.6176 60.7141Z" fill="#CDCACE" fill-opacity="0.996"/>
<path d="M42.901 62.0377L44.7921 62.0574C44.8157 62.0575 44.8388 62.0638 44.8592 62.0757C44.8795 62.0877 44.8963 62.1047 44.9079 62.1253C44.9194 62.1458 44.9253 62.169 44.9249 62.1925C44.9245 62.216 44.9179 62.239 44.9056 62.2592L44.7871 62.456C44.7542 62.5117 44.7065 62.5396 44.6439 62.5396H42.5998C42.3529 62.5396 42.2295 62.4166 42.2295 62.1706V60.3253C42.2295 60.0793 42.3529 59.9563 42.5998 59.9563H44.5847C44.6548 59.9602 44.721 59.9896 44.7707 60.0389C44.8205 60.0883 44.8503 60.1541 44.8546 60.2239C44.8588 60.2937 44.8372 60.3627 44.7938 60.4177C44.7505 60.4726 44.6883 60.5098 44.6192 60.5222C44.165 60.5812 43.7157 60.5993 43.2713 60.5763C43.1166 60.5665 43.0063 60.5911 42.9405 60.6501C42.878 60.7059 42.845 60.778 42.8417 60.8666C42.8384 61.0438 42.9224 61.111 43.0936 61.0684L43.7601 60.9011C44.0695 60.8256 44.1765 60.9404 44.0811 61.2455L44.0218 61.4374C43.9757 61.5817 43.8803 61.6293 43.7354 61.5801C43.3503 61.4522 43.0376 61.5309 42.7973 61.8163C42.7813 61.8368 42.7712 61.8614 42.7681 61.8872C42.7651 61.913 42.7692 61.939 42.7801 61.9622C42.791 61.9854 42.8081 62.0048 42.8295 62.0182C42.8509 62.0315 42.8757 62.0383 42.901 62.0377Z" fill="#CDCACE" fill-opacity="0.996"/>
<path d="M46.1796 61.4572V62.2937C46.1796 62.4512 46.099 62.5332 45.9377 62.5398C45.8719 62.5398 45.8077 62.5398 45.7451 62.5398C45.698 62.5398 45.6528 62.5216 45.6194 62.4893C45.5861 62.457 45.5674 62.4132 45.5674 62.3676V60.1041C45.5673 60.0561 45.5809 60.0092 45.6068 59.9687C45.6326 59.9283 45.6695 59.8961 45.7132 59.8759C45.7568 59.8557 45.8053 59.8484 45.853 59.8548C45.9006 59.8612 45.9455 59.8811 45.9821 59.9122L47.6905 61.3391C47.7201 61.3636 47.756 61.3795 47.7941 61.3848C47.8323 61.3901 47.871 61.3847 47.9057 61.3692C47.9404 61.3537 47.9698 61.3287 47.9903 61.2973C48.0107 61.2658 48.0215 61.2291 48.0213 61.1915L48.0361 60.2418C48.0394 60.0581 48.1332 59.9614 48.3176 59.9515C48.3637 59.9482 48.4097 59.9548 48.4558 59.9712C48.5842 60.0138 48.6484 60.1024 48.6484 60.2369V62.2052C48.6482 62.2787 48.6272 62.3506 48.5876 62.4127C48.5481 62.4747 48.4917 62.5244 48.4251 62.5558C48.3584 62.5872 48.2841 62.5991 48.2109 62.5902C48.1377 62.5813 48.0685 62.5519 48.0114 62.5053L46.5351 61.2949C46.5037 61.269 46.4655 61.2524 46.425 61.2471C46.3846 61.2419 46.3434 61.2481 46.3063 61.265C46.2692 61.282 46.2377 61.309 46.2152 61.343C46.1928 61.377 46.1805 61.4166 46.1796 61.4572Z" fill="#CDCACE" fill-opacity="0.996"/>
<path d="M50.6434 61.0538C50.8639 60.8897 51.0762 60.8865 51.2803 61.0439C51.3169 61.0707 51.3448 61.1074 51.3607 61.1497C51.3766 61.192 51.3798 61.2381 51.3699 61.2826C51.3601 61.3271 51.3375 61.3682 51.305 61.4009C51.2725 61.4336 51.2314 61.4565 51.1865 61.4671L50.2336 61.6885C50.1864 61.6937 50.1433 61.7174 50.1137 61.7543C50.084 61.7912 50.0703 61.8384 50.0756 61.8853C50.0808 61.9323 50.1046 61.9753 50.1416 62.0048C50.1786 62.0344 50.2259 62.048 50.2731 62.0428L51.9864 62.0526C52.0917 62.0526 52.1608 62.1019 52.1938 62.2003C52.2102 62.2462 52.225 62.2905 52.2382 62.3331C52.246 62.3566 52.248 62.3816 52.2443 62.406C52.2406 62.4305 52.2311 62.4537 52.2167 62.4739C52.2023 62.494 52.1833 62.5104 52.1613 62.5219C52.1393 62.5334 52.1149 62.5395 52.0901 62.5398H49.883C49.6361 62.5398 49.5127 62.4168 49.5127 62.1707V60.3107C49.5127 60.0549 49.6411 59.9302 49.8978 59.9368L52.1888 59.9958C52.2341 59.9976 52.2774 60.0144 52.3119 60.0436C52.3464 60.0728 52.3701 60.1127 52.3792 60.1569C52.3883 60.2011 52.3823 60.247 52.3621 60.2874C52.3419 60.3278 52.3087 60.3603 52.2678 60.3796C51.8267 60.5929 51.356 60.6552 50.8557 60.5666C50.7076 60.5436 50.5644 60.5601 50.4261 60.6158C50.2978 60.6683 50.2402 60.7569 50.2533 60.8815C50.2829 61.1636 50.413 61.2211 50.6434 61.0538Z" fill="#DCDCDC"/>
<path d="M55.4178 61.8803L55.7486 62.1657C55.7842 62.1974 55.8091 62.2392 55.8199 62.2855C55.8307 62.3318 55.827 62.3803 55.8092 62.4244C55.7914 62.4685 55.7604 62.5061 55.7204 62.532C55.6804 62.5579 55.6334 62.5709 55.5857 62.5692C54.9471 62.5495 54.4501 62.2674 54.0946 61.7228C54.071 61.6873 54.0377 61.6592 53.9985 61.6421C53.9594 61.6249 53.9161 61.6194 53.8739 61.6261C53.8316 61.6329 53.7923 61.6516 53.7605 61.6801C53.7287 61.7086 53.7058 61.7457 53.6946 61.7868L53.5119 62.456C53.5 62.5247 53.4619 62.5862 53.4056 62.6276C53.3493 62.669 53.2792 62.6872 53.2098 62.6783C53.1403 62.6694 53.0771 62.6342 53.0331 62.5799C52.9891 62.5257 52.9679 62.4566 52.9737 62.3871L52.9639 60.3254C52.9639 60.0761 53.089 59.9514 53.3391 59.9514L55.2499 59.9613C55.3386 59.9625 55.4246 59.9918 55.4956 60.0449C55.5666 60.0979 55.6188 60.172 55.6449 60.2565C55.8095 60.8207 55.7289 61.2931 55.403 61.6736C55.3405 61.7491 55.3454 61.818 55.4178 61.8803ZM54.9981 60.6551L53.823 60.5567C53.7498 60.5526 53.6777 60.5752 53.6201 60.6204C53.5625 60.6655 53.5234 60.73 53.51 60.8018C53.4967 60.8736 53.5101 60.9478 53.5477 61.0104C53.5853 61.0731 53.6446 61.1199 53.7144 61.1422C54.2312 61.2865 54.6838 61.2045 55.0722 60.8962C55.0934 60.8784 55.109 60.8547 55.117 60.8281C55.125 60.8016 55.125 60.7734 55.117 60.7474C55.109 60.7213 55.0934 60.6985 55.0722 60.6821C55.0509 60.6656 55.0251 60.6562 54.9981 60.6551Z" fill="#DCDCDC"/>
<path d="M54.998 60.655L53.8229 60.5566C53.7497 60.5526 53.6776 60.5752 53.62 60.6203C53.5623 60.6654 53.5232 60.7299 53.5099 60.8017C53.4966 60.8735 53.51 60.9477 53.5476 61.0104C53.5852 61.0731 53.6444 61.1199 53.7142 61.1422C54.231 61.2865 54.6836 61.2045 55.072 60.8961C55.0933 60.8784 55.1089 60.8547 55.1169 60.8281C55.1249 60.8015 55.1249 60.7734 55.1169 60.7473C55.1089 60.7213 55.0932 60.6985 55.072 60.682C55.0508 60.6656 55.025 60.6561 54.998 60.655Z" stroke="#C5C5C5" stroke-opacity="0.561" stroke-width="2"/>
<path d="M59.5234 62.0128C59.5238 62.1538 59.4681 62.2891 59.3685 62.3891C59.2688 62.4891 59.1334 62.5456 58.992 62.5461L56.9676 62.5531C56.8262 62.5536 56.6904 62.4981 56.59 62.3988C56.4897 62.2994 56.433 62.1645 56.4325 62.0235L56.4272 60.5178C56.4268 60.3769 56.4825 60.2415 56.5821 60.1415C56.6818 60.0415 56.8172 59.9851 56.9586 59.9846L58.983 59.9775C59.1244 59.9771 59.2602 60.0326 59.3606 60.1319C59.4609 60.2312 59.5176 60.3662 59.5181 60.5071L59.5234 62.0128ZM57.9062 61.3441C57.9062 61.2948 57.9062 61.2424 57.9062 61.1866C57.9029 61.1177 57.9342 61.0816 58 61.0783L59.0171 61.0291C59.0607 61.0256 59.1016 61.0066 59.1323 60.9756C59.163 60.9446 59.1815 60.9036 59.1845 60.8601C59.1875 60.8166 59.1747 60.7735 59.1486 60.7386C59.1224 60.7037 59.0845 60.6794 59.0418 60.6699C58.6106 60.5814 58.1399 60.5354 57.6297 60.5321C57.4256 60.5295 57.2189 60.607 57.0551 60.7477C56.8913 60.8884 56.7838 61.0807 56.7563 61.2824C56.7288 61.484 56.7836 61.6784 56.9085 61.8229C57.0333 61.9673 57.2182 62.05 57.4223 62.0526C57.8436 62.0625 58.2403 62.051 58.6122 62.0182C58.6633 62.0122 58.7107 61.9888 58.7464 61.9519C58.7821 61.915 58.8038 61.8669 58.8079 61.8158C58.812 61.7647 58.7981 61.7138 58.7688 61.6718C58.7394 61.6297 58.6963 61.5991 58.6468 61.5852L57.9556 61.408C57.9226 61.4015 57.9062 61.3801 57.9062 61.3441Z" fill="#CDCACE" fill-opacity="0.996"/>
<path d="M57.9063 61.344C57.9063 61.2947 57.9063 61.2423 57.9063 61.1865C57.903 61.1176 57.9343 61.0815 58.0001 61.0782L59.0172 61.029C59.0608 61.0255 59.1017 61.0065 59.1324 60.9755C59.1631 60.9445 59.1817 60.9035 59.1846 60.86C59.1876 60.8165 59.1749 60.7734 59.1487 60.7385C59.1225 60.7036 59.0846 60.6793 59.0419 60.6698C58.6107 60.5813 58.14 60.5353 57.6298 60.532C57.4257 60.5294 57.219 60.6069 57.0552 60.7476C56.8914 60.8883 56.784 61.0806 56.7565 61.2823C56.729 61.4839 56.7837 61.6783 56.9086 61.8228C57.0335 61.9672 57.2183 62.0499 57.4224 62.0525C57.8438 62.0624 58.2404 62.0509 58.6124 62.0181C58.6634 62.0121 58.7109 61.9887 58.7465 61.9518C58.7822 61.9149 58.8039 61.8668 58.808 61.8157C58.8121 61.7646 58.7983 61.7137 58.7689 61.6717C58.7395 61.6296 58.6964 61.599 58.6469 61.5851L57.9557 61.4079C57.9228 61.4014 57.9063 61.38 57.9063 61.344Z" stroke="#B7B5B8" stroke-opacity="0.557" stroke-width="2"/>
<path d="M60.8599 59.9653L60.6131 59.967C60.4767 59.968 60.367 60.0789 60.3679 60.2148L60.3825 62.3011C60.3835 62.437 60.4948 62.5463 60.6311 62.5454L60.878 62.5437C61.0144 62.5427 61.1241 62.4318 61.1232 62.2959L61.1085 60.2096C61.1076 60.0737 60.9963 59.9644 60.8599 59.9653Z" fill="#DCDCDC"/>
<path d="M65.4607 61.3784C65.6648 61.572 65.8409 61.5507 65.989 61.3145C66.0976 61.1439 66.2425 61.0586 66.4235 61.0586C66.7494 61.0586 66.7889 61.1652 66.542 61.3784C66.1964 61.6704 66.2277 61.9377 66.6358 62.1805C66.9683 62.3773 66.9403 62.4774 66.5519 62.4807L63.5598 62.5003C63.4992 62.4999 63.44 62.4826 63.3888 62.4506C63.3376 62.4185 63.2963 62.3728 63.2696 62.3186C63.243 62.2645 63.232 62.204 63.2379 62.144C63.2438 62.0839 63.2663 62.0267 63.303 61.9788C63.8264 61.3095 64.0881 60.8191 64.0881 60.5075C64.0881 60.3139 64.1753 60.1762 64.3498 60.0942C64.8995 59.835 65.408 59.9088 65.8754 60.3156C65.9107 60.3463 65.9365 60.3865 65.9497 60.4313C65.963 60.4761 65.9631 60.5238 65.9502 60.5687C65.9372 60.6136 65.9117 60.6539 65.8766 60.6849C65.8415 60.7159 65.7983 60.7363 65.752 60.7437C65.4788 60.7929 65.2122 60.7256 64.9521 60.5419C64.9257 60.5233 64.8931 60.5153 64.861 60.5196C64.8289 60.5239 64.7996 60.5401 64.779 60.565C64.7584 60.5899 64.748 60.6216 64.7499 60.6539C64.7518 60.6861 64.7658 60.7164 64.7892 60.7388L65.4607 61.3784ZM64.9966 61.6589C64.832 61.531 64.6526 61.4555 64.4584 61.4326C64.3778 61.4224 64.291 61.441 64.2155 61.4847C64.14 61.5284 64.0813 61.5939 64.0513 61.6681C64.0212 61.7423 64.0221 61.8196 64.0536 61.8846C64.0852 61.9495 64.1451 61.9972 64.2214 62.0181C64.488 62.087 64.7316 62.0739 64.9521 61.9788C65.1463 61.8935 65.1612 61.7868 64.9966 61.6589Z" fill="#DCDCDC"/>
<path d="M64.9965 61.6588C64.8319 61.5308 64.6526 61.4554 64.4583 61.4324C64.3778 61.4222 64.291 61.4408 64.2155 61.4845C64.1399 61.5282 64.0812 61.5938 64.0512 61.6679C64.0212 61.7421 64.022 61.8195 64.0536 61.8844C64.0852 61.9494 64.1451 61.9971 64.2213 62.018C64.488 62.0869 64.7316 62.0737 64.9521 61.9786C65.1463 61.8933 65.1611 61.7867 64.9965 61.6588Z" stroke="#C5C5C5" stroke-opacity="0.561" stroke-width="2"/>
<path d="M69.5141 61.8113C69.6918 62.0049 69.677 62.205 69.4696 62.4117C69.426 62.4557 69.3699 62.4854 69.3088 62.4969C69.2478 62.5085 69.1846 62.5012 69.1278 62.4761C69.071 62.451 69.0232 62.4092 68.9908 62.3564C68.9584 62.3036 68.9428 62.2422 68.9463 62.1804L69.045 60.2712C69.0492 60.2047 69.0739 60.141 69.1156 60.089C69.1573 60.0369 69.2141 59.9989 69.2783 59.9801C69.3425 59.9612 69.4109 59.9626 69.4742 59.9838C69.5376 60.0051 69.5929 60.0453 69.6326 60.099L70.393 61.1618C70.419 61.1984 70.4531 61.2285 70.4927 61.2497C70.5324 61.2709 70.5764 61.2827 70.6213 61.2841C70.6663 61.2855 70.711 61.2766 70.7519 61.2579C70.7928 61.2393 70.8288 61.2114 70.8571 61.1766L71.8396 59.9907C71.8771 59.9456 71.9275 59.9133 71.9842 59.8982C72.0408 59.8831 72.1009 59.886 72.1563 59.9064C72.2117 59.9267 72.2599 59.9637 72.2942 60.0122C72.3285 60.0607 72.3473 60.1185 72.3482 60.1777V62.2936C72.3478 62.3363 72.337 62.3783 72.3168 62.416C72.2966 62.4537 72.2676 62.4859 72.2323 62.5101C72.1969 62.5342 72.1562 62.5495 72.1136 62.5547C72.0711 62.5598 72.0279 62.5546 71.9878 62.5396C71.7014 62.4313 71.6109 62.2263 71.7162 61.9245C71.8018 61.6686 71.7886 61.4702 71.6767 61.3291C71.5747 61.1979 71.4792 61.2028 71.3903 61.3439L70.8225 62.2001C70.7917 62.2464 70.7472 62.2824 70.6953 62.3031C70.6434 62.3239 70.5865 62.3283 70.5325 62.316C70.4784 62.3036 70.4299 62.2749 70.3934 62.2339C70.3569 62.1929 70.3344 62.1416 70.3288 62.0869C70.286 61.7359 70.0885 61.5194 69.7363 61.4374C69.6887 61.4252 69.6384 61.4288 69.593 61.4475C69.5476 61.4662 69.5095 61.4992 69.4844 61.5413C69.4594 61.5835 69.4487 61.6326 69.4541 61.6812C69.4594 61.7299 69.4805 61.7756 69.5141 61.8113Z" fill="#DCDCDC"/>
<path d="M74.0617 61.0538L74.9948 60.9996C75.0498 60.9961 75.1036 61.0134 75.1455 61.0481C75.1875 61.0827 75.2146 61.1322 75.2214 61.1868C75.2283 61.2413 75.2144 61.2968 75.1824 61.3424C75.1505 61.3879 75.103 61.4201 75.0492 61.4327L73.9481 61.6541C73.9013 61.6645 73.86 61.6915 73.8317 61.73C73.8035 61.7685 73.7902 61.816 73.7944 61.8635C73.7987 61.9111 73.8201 61.9555 73.8547 61.9885C73.8893 62.0214 73.9348 62.0408 73.9827 62.0428L75.6861 62.0527C75.7914 62.0527 75.8605 62.1019 75.8935 62.2003C75.9099 62.2462 75.9247 62.2905 75.9379 62.3331C75.9457 62.3566 75.9478 62.3816 75.944 62.4061C75.9403 62.4305 75.9308 62.4537 75.9164 62.4739C75.902 62.494 75.883 62.5105 75.861 62.5219C75.839 62.5334 75.8146 62.5395 75.7898 62.5398H73.4593C73.2947 62.5398 73.2124 62.4578 73.2124 62.2938V60.2714C73.2124 60.0746 73.3128 59.9745 73.5136 59.9712L78.6437 59.9663C78.693 59.9663 78.828 60.0336 79.0485 60.1681C79.2032 60.2632 79.0831 60.3813 78.6881 60.5223C78.5893 60.5551 78.4889 60.5715 78.3869 60.5715H78.1499C78.0844 60.5715 78.0216 60.5975 77.9753 60.6436C77.929 60.6897 77.903 60.7523 77.903 60.8176V62.2938C77.903 62.4578 77.8207 62.5398 77.6562 62.5398H77.4735C77.2661 62.5398 77.1624 62.4365 77.1624 62.2298V60.793C77.1624 60.6093 77.0702 60.5191 76.8859 60.5223L74.1456 60.5666C74.1197 60.5673 74.0941 60.5729 74.0704 60.5831C74.0467 60.5934 74.0253 60.6081 74.0074 60.6263C73.9895 60.6446 73.9755 60.6661 73.9662 60.6897C73.9569 60.7132 73.9524 60.7383 73.953 60.7635C73.953 60.8258 73.953 60.8897 73.953 60.9554C73.953 61.0275 73.9892 61.0603 74.0617 61.0538Z" fill="#DCDCDC"/>
<path d="M81.0236 62.0869C80.3488 61.9295 79.8057 62.0853 79.3942 62.5544C79.3519 62.6004 79.294 62.6294 79.2317 62.6359C79.1694 62.6424 79.1068 62.626 79.0558 62.5897C79.0048 62.5533 78.9688 62.4997 78.9548 62.4388C78.9407 62.3779 78.9495 62.314 78.9795 62.2592L80.2188 60.1285C80.2596 60.0583 80.3181 59.9998 80.3885 59.9589C80.4589 59.918 80.5387 59.8963 80.6198 59.8958C80.7009 59.8953 80.7804 59.9161 80.8504 59.9561C80.9205 59.9961 80.9785 60.0538 81.0187 60.1236L82.253 62.2198C82.2726 62.2543 82.2827 62.2934 82.2824 62.3331C82.282 62.3727 82.2711 62.4114 82.251 62.4451C82.2308 62.4788 82.202 62.5063 82.1676 62.5247C82.1332 62.543 82.0945 62.5516 82.0555 62.5495C81.8087 62.5396 81.598 62.456 81.4235 62.2985C81.3116 62.1903 81.1783 62.1197 81.0236 62.0869ZM80.1447 61.1225C80.1262 61.1393 80.1123 61.1605 80.1042 61.1842C80.0962 61.2079 80.0943 61.2332 80.0987 61.2577C80.1032 61.2823 80.1138 61.3054 80.1296 61.3248C80.1454 61.3441 80.1659 61.3592 80.1892 61.3685L80.678 61.5506C80.7423 61.5749 80.8137 61.5751 80.8786 61.5509C80.9434 61.5268 80.9972 61.4801 81.0296 61.4198C81.062 61.3595 81.0707 61.2899 81.0541 61.2241C81.0375 61.1583 80.9968 61.1011 80.9397 61.0634C80.6697 60.8765 80.4048 60.8961 80.1447 61.1225Z" fill="#CDCACE" fill-opacity="0.996"/>
<path d="M80.1445 61.1225C80.126 61.1393 80.1121 61.1605 80.104 61.1842C80.096 61.2078 80.0941 61.2331 80.0985 61.2577C80.103 61.2823 80.1136 61.3053 80.1294 61.3247C80.1452 61.3441 80.1657 61.3592 80.189 61.3685L80.6778 61.5505C80.7421 61.5749 80.8135 61.575 80.8784 61.5509C80.9433 61.5268 80.997 61.4801 81.0294 61.4198C81.0618 61.3595 81.0705 61.2898 81.054 61.2241C81.0374 61.1583 80.9966 61.1011 80.9395 61.0634C80.6696 60.8764 80.4046 60.8961 80.1445 61.1225Z" stroke="#B7B5B8" stroke-opacity="0.557" stroke-width="2"/>
<path d="M83.9369 62.0476H85.2009C85.3589 62.0476 85.4363 62.1247 85.433 62.2789C85.433 62.3281 85.433 62.3773 85.433 62.4265C85.433 62.4566 85.421 62.4853 85.3997 62.5066C85.3784 62.5278 85.3496 62.5397 85.3194 62.5397H83.2111C83.1129 62.5397 83.0187 62.5008 82.9493 62.4316C82.8798 62.3624 82.8408 62.2685 82.8408 62.1707V60.2073C82.8407 60.1441 82.8651 60.083 82.909 60.0365C82.953 59.99 83.0133 59.9613 83.0778 59.9564C83.4564 59.9301 83.6308 60.0515 83.6012 60.3205C83.5452 60.8651 83.5452 61.344 83.6012 61.7573C83.6275 61.9509 83.7394 62.0476 83.9369 62.0476Z" fill="#CDCACE" fill-opacity="0.996"/>
<path d="M39.6177 60.7141C39.6408 60.7797 39.6441 60.8519 39.6276 60.9306L38.3142 61.0979C37.8468 61.157 37.8304 61.2751 38.2649 61.4522C38.4624 61.5342 38.6648 61.5769 38.8722 61.5802C38.9337 61.5808 38.9925 61.6058 39.0355 61.6496C39.0786 61.6935 39.1024 61.7526 39.1018 61.8139C39.1011 61.8752 39.076 61.9338 39.0321 61.9767C38.9881 62.0196 38.9288 62.0434 38.8672 62.0427H37.5687C37.3868 62.037 37.2283 61.9633 37.1241 61.8358C37.0198 61.7083 36.977 61.5361 37.004 61.3526C37.031 61.169 37.1259 60.987 37.2703 60.8418C37.4148 60.6966 37.5985 60.5985 37.7859 60.5665C38.2698 60.4976 38.8804 60.5468 39.6177 60.7141Z" fill="#010101" fill-opacity="0.118"/>
<path d="M54.998 60.655C55.025 60.6561 55.0508 60.6656 55.072 60.682C55.0932 60.6985 55.1089 60.7213 55.1169 60.7473C55.1249 60.7734 55.1249 60.8015 55.1169 60.8281C55.1089 60.8547 55.0933 60.8784 55.072 60.8961C54.6836 61.2045 54.231 61.2865 53.7142 61.1422C53.6444 61.1199 53.5852 61.0731 53.5476 61.0104C53.51 60.9477 53.4966 60.8735 53.5099 60.8017C53.5232 60.7299 53.5623 60.6654 53.62 60.6203C53.6776 60.5752 53.7497 60.5526 53.8229 60.5566L54.998 60.655Z" fill="#010101" fill-opacity="0.118"/>
<path d="M57.9557 61.4079L58.6469 61.5851C58.6964 61.599 58.7395 61.6296 58.7689 61.6717C58.7983 61.7137 58.8121 61.7646 58.808 61.8157C58.8039 61.8668 58.7822 61.9149 58.7465 61.9518C58.7109 61.9887 58.6634 62.0121 58.6124 62.0181C58.2404 62.0509 57.8438 62.0624 57.4224 62.0525C57.2183 62.0499 57.0335 61.9672 56.9086 61.8228C56.7837 61.6783 56.729 61.4839 56.7565 61.2823C56.784 61.0806 56.8914 60.8883 57.0552 60.7476C57.219 60.6069 57.4257 60.5294 57.6298 60.532C58.14 60.5353 58.6107 60.5813 59.0419 60.6698C59.0846 60.6793 59.1225 60.7036 59.1487 60.7385C59.1749 60.7734 59.1876 60.8165 59.1846 60.86C59.1817 60.9035 59.1631 60.9445 59.1324 60.9755C59.1017 61.0065 59.0608 61.0255 59.0172 61.029L58.0001 61.0782C57.9343 61.0815 57.903 61.1176 57.9063 61.1865C57.9063 61.2423 57.9063 61.2947 57.9063 61.344C57.9063 61.38 57.9228 61.4014 57.9557 61.4079Z" fill="#010101" fill-opacity="0.118"/>
<path d="M80.1445 61.1225C80.4046 60.8961 80.6696 60.8764 80.9395 61.0634C80.9966 61.1011 81.0374 61.1583 81.054 61.2241C81.0705 61.2898 81.0618 61.3595 81.0294 61.4198C80.997 61.4801 80.9433 61.5268 80.8784 61.5509C80.8135 61.575 80.7421 61.5749 80.6778 61.5505L80.189 61.3685C80.1657 61.3592 80.1452 61.3441 80.1294 61.3247C80.1136 61.3053 80.103 61.2823 80.0985 61.2577C80.0941 61.2331 80.096 61.2078 80.104 61.1842C80.1121 61.1605 80.126 61.1393 80.1445 61.1225Z" fill="#010101" fill-opacity="0.118"/>
<path d="M64.9965 61.6588C65.1611 61.7867 65.1463 61.8933 64.9521 61.9786C64.7316 62.0737 64.488 62.0869 64.2213 62.018C64.1451 61.9971 64.0852 61.9494 64.0536 61.8844C64.022 61.8195 64.0212 61.7421 64.0512 61.6679C64.0812 61.5938 64.1399 61.5282 64.2155 61.4845C64.291 61.4408 64.3778 61.4222 64.4583 61.4324C64.6526 61.4554 64.8319 61.5308 64.9965 61.6588Z" fill="#010101" fill-opacity="0.118"/>
<defs>
<linearGradient id="paint0_linear_36_3139" x1="50" y1="0" x2="50" y2="100" gradientUnits="userSpaceOnUse">
<stop stop-color="#2A2C78"/>
<stop offset="1" stop-color="#1A1C60"/>
</linearGradient>
</defs>
</svg>
