<svg width="100" height="100" viewBox="0 0 100 100" fill="none" xmlns="http://www.w3.org/2000/svg">
<rect width="100" height="100" fill="white"/>
<path d="M42.3222 39.0692C41.5107 39.0416 40.735 39.1553 39.9951 39.4104" stroke="#B06E35" stroke-width="2"/>
<path d="M39.9953 39.4104C36.5395 40.5101 34.6482 43.1617 34.026 46.6548C33.8546 47.6207 33.7643 48.8475 33.5101 49.7418C33.0331 51.4184 32.0996 52.835 30.7095 53.9915" stroke="#B8DFA2" stroke-width="2"/>
<path d="M30.7093 53.9915C30.0083 53.2848 29.445 52.5357 29.0195 51.7441" stroke="#399980" stroke-width="2"/>
<path d="M47.7654 54.8584C44.6796 53.5335 42.1887 54.6982 39.4022 55.8591C36.4086 57.1067 32.9424 56.2897 30.7095 53.9915" stroke="#80B9DD" stroke-width="2"/>
<path d="M46.8408 57.2255C47.2393 56.4829 47.5475 55.6939 47.7653 54.8584" stroke="#774770" stroke-width="2"/>
<path d="M47.7653 54.8585C47.9623 54.1524 48.0756 53.4296 48.1051 52.6902C48.1899 50.5776 47.256 48.5922 45.9183 47.011C45.8402 46.9196 45.6604 46.7688 45.5596 46.7123C42.7807 45.1631 40.4969 42.6284 39.9951 39.4104" stroke="#F78E92" stroke-width="2"/>
<path d="M42.3217 39.0693C41.5102 39.0416 40.7345 39.1553 39.9946 39.4104C36.5388 40.51 34.6476 43.1617 34.0253 46.6548C33.854 47.6206 33.7636 48.8475 33.5094 49.7418C33.0325 51.4184 32.0989 52.835 30.7088 53.9915C30.0078 53.2848 29.4445 52.5357 29.019 51.7441C28.6924 49.6852 28.12 47.4944 28.1624 45.2121C28.1878 43.8882 28.8458 42.7772 29.7223 41.6889C33.8201 36.5976 40.3778 35.6525 45.9517 38.8535C46.4927 39.1638 47.0302 39.4792 47.5643 39.7996C47.5662 39.8008 47.568 39.8008 47.5699 39.7996C47.5706 39.7989 47.5712 39.7986 47.5718 39.7986C47.5718 39.798 47.5715 39.7977 47.5709 39.7977C45.877 39.2694 44.1916 38.9863 42.5147 38.9487C42.4042 38.9461 42.3399 38.9863 42.3217 39.0693Z" fill="#71BF44"/>
<path d="M42.3222 39.0692C42.4003 39.1267 42.4625 39.2012 42.5604 39.2266C44.5743 39.7373 46.4709 40.5185 48.2501 41.5701C48.8262 41.91 49.2737 42.2379 49.5925 42.5539C51.9883 44.9247 52.1013 49.1933 51.5158 52.2718C50.7438 56.3284 47.914 60.4698 43.5385 61.0559C43.5363 61.0558 43.5342 61.0551 43.5325 61.0538C43.5308 61.0525 43.5295 61.0506 43.5289 61.0485C43.5282 61.0464 43.5283 61.0442 43.529 61.0422C43.5297 61.0401 43.5311 61.0383 43.5328 61.0371C44.8065 60.4133 46.4191 58.5795 46.8409 57.2255C47.2394 56.4829 47.5475 55.6939 47.7653 54.8584C47.9624 54.1523 48.0756 53.4296 48.1051 52.6902C48.1899 50.5775 47.256 48.5921 45.9183 47.0109C45.8402 46.9195 45.6604 46.7688 45.5596 46.7122C42.7807 45.1631 40.4969 42.6283 39.9951 39.4104C40.735 39.1553 41.5107 39.0416 42.3222 39.0692Z" fill="#EE1C25"/>
<path d="M39.9948 39.4102C40.4965 42.6281 42.7803 45.1629 45.5593 46.712C45.66 46.7686 45.8398 46.9193 45.918 47.0107C47.2557 48.5919 48.1895 50.5773 48.1048 52.69C48.0753 53.4294 47.962 54.1521 47.765 54.8582C44.6791 53.5333 42.1882 54.698 39.4017 55.8589C36.4081 57.1065 32.9419 56.2896 30.709 53.9913C32.0991 52.8348 33.0326 51.4182 33.5096 49.7415C33.7638 48.8473 33.8541 47.6204 34.0255 46.6546C34.6477 43.1615 36.539 40.5098 39.9948 39.4102Z" fill="white"/>
<path d="M59.0365 50.6255C57.0314 50.5888 55.1985 49.1885 54.6327 47.2596C53.8646 44.6429 55.4376 41.8772 58.1394 41.277C58.4877 41.1997 59.0296 41.1611 59.7652 41.1611C64.3742 41.1579 68.9829 41.1576 73.5912 41.1601C73.6182 41.1601 73.6317 41.1739 73.6317 41.2016L73.627 44.4977C73.627 44.5222 73.6151 44.5345 73.5912 44.5345C68.9502 44.52 64.3105 44.5084 59.672 44.4996C58.1319 44.4968 57.4362 46.3776 58.7259 47.221C59.0001 47.4 59.3607 47.4889 59.8075 47.4877C62.7766 47.4795 65.7458 47.4748 68.7149 47.4735C71.0872 47.4735 72.9511 48.6882 73.6101 50.9817C74.3509 53.5608 72.6649 56.2209 70.0978 56.8117C69.7175 56.899 69.1454 56.9424 68.3816 56.9418C63.7293 56.9374 59.0632 56.948 54.3833 56.9738C54.3733 56.9739 54.3634 56.9721 54.3542 56.9683C54.3449 56.9646 54.3365 56.9591 54.3294 56.952C54.3223 56.945 54.3167 56.9367 54.3128 56.9275C54.309 56.9183 54.307 56.9084 54.307 56.8984L54.3042 53.5947C54.3042 53.5658 54.3183 53.5514 54.3466 53.5514C58.9236 53.5488 63.499 53.5492 68.0729 53.5523C68.5002 53.5523 68.8235 53.5096 69.0425 53.4241C70.5732 52.8248 70.0611 50.5954 68.4212 50.6076C63.5316 50.6453 60.4034 50.6513 59.0365 50.6255Z" fill="#242021"/>
<path d="M80.3587 50.6264C78.1342 50.5944 76.2646 49.0669 75.7779 46.8997C75.2093 44.3705 76.8605 41.8828 79.3467 41.292C79.7151 41.2041 80.2561 41.1601 80.9696 41.1601C85.5906 41.1582 90.2112 41.1582 94.8315 41.1601C94.8641 41.1601 94.8804 41.1761 94.8804 41.2082L94.8785 44.4101C94.8785 44.4911 94.8381 44.5317 94.7571 44.5317C90.1224 44.5266 85.4641 44.515 80.7823 44.4968C79.5293 44.4921 78.8741 45.9319 79.6178 46.9034C80.0857 47.515 80.9753 47.4961 81.7557 47.4829C84.9394 47.4264 87.8784 47.4848 90.0059 47.4735C91.6389 47.4641 92.9321 48.0254 93.8854 49.1574C96.1664 51.8656 94.7665 56.0456 91.322 56.8239C90.9756 56.9025 90.4064 56.9414 89.6143 56.9408C84.9401 56.9377 80.2655 56.949 75.5906 56.9747C75.5535 56.9753 75.535 56.9568 75.535 56.9191L75.5312 53.5956C75.5312 53.5667 75.5457 53.5523 75.5746 53.5523C80.2921 53.5523 85.0091 53.5463 89.7254 53.5344C91.691 53.5297 91.6722 50.5869 89.5833 50.6048C85.1086 50.6431 82.0337 50.6503 80.3587 50.6264Z" fill="#242021"/>
<path d="M23.4549 43.4518C24.4998 44.8935 24.4678 47.3359 23.4483 48.8257C23.372 48.9359 23.2299 49.0198 23.1376 49.1451C23.1268 49.1596 23.1216 49.1774 23.1228 49.1953C23.124 49.2133 23.1316 49.2303 23.1442 49.2431C24.0912 50.1967 24.3398 51.8797 24.1826 53.1273C23.9001 55.3718 21.8103 56.7212 19.7308 57.0793C19.3599 57.1427 18.7756 57.1751 17.9779 57.1763C13.6676 57.1807 9.35735 57.1807 5.04707 57.1763C5.01632 57.1763 5.00094 57.161 5.00094 57.1302L5 41.2534C5 41.2232 5.01538 41.2078 5.04613 41.2072C9.53401 41.2034 14.0216 41.2047 18.5088 41.211C20.3502 41.2138 22.3544 41.9347 23.4549 43.4518Z" fill="#242021"/>
<path d="M8.57715 44.8115C8.57715 44.797 8.5829 44.7831 8.59314 44.7728C8.60338 44.7626 8.61727 44.7568 8.63175 44.7568H19.1338C19.4863 44.7568 19.8244 44.8923 20.0737 45.1333C20.323 45.3743 20.463 45.7013 20.463 46.0421V46.0723C20.463 46.4132 20.323 46.7401 20.0737 46.9811C19.8244 47.2222 19.4863 47.3576 19.1338 47.3576H8.63175C8.61727 47.3576 8.60338 47.3518 8.59314 47.3416C8.5829 47.3313 8.57715 47.3174 8.57715 47.3029V44.8115Z" fill="white"/>
<path d="M29.0192 51.7441C29.4447 52.5356 30.008 53.2847 30.709 53.9915C32.942 56.2897 36.4081 57.1067 39.4017 55.8591C42.1882 54.6982 44.6791 53.5335 47.765 54.8584C47.5472 55.6939 47.2391 56.4829 46.8405 57.2254C46.6447 57.3602 46.4499 57.4921 46.271 57.657C44.4212 59.3739 42.5281 60.7864 40.1831 61.8154C39.8037 61.9821 39.5194 62.0217 39.0798 61.9897C34.8577 61.6844 30.9877 59.9515 28.8846 56.0994C27.4132 53.4053 26.9265 50.2986 27.1402 47.2672C27.1408 47.2597 27.1474 47.2587 27.16 47.2644C27.1631 47.2656 27.165 47.2678 27.1656 47.271C27.1725 47.4431 27.1986 47.6121 27.2438 47.7779C27.5896 49.0551 28.0901 50.2678 28.7453 51.4161C28.7967 51.5066 28.8881 51.6159 29.0192 51.7441Z" fill="#0072BB"/>
<path d="M8.57178 51.14C8.57178 51.1032 8.58636 51.068 8.61231 51.042C8.63826 51.0161 8.67346 51.0015 8.71016 51.0015H18.9854C19.3778 51.0015 19.7542 51.141 20.0318 51.3895C20.3093 51.638 20.4652 51.975 20.4652 52.3263V52.3433C20.4652 52.6947 20.3093 53.0317 20.0318 53.2801C19.7542 53.5286 19.3778 53.6682 18.9854 53.6682H8.71016C8.69199 53.6682 8.67399 53.6646 8.6572 53.6576C8.64041 53.6507 8.62516 53.6405 8.61231 53.6276C8.59946 53.6147 8.58927 53.5995 8.58231 53.5827C8.57536 53.5659 8.57178 53.5478 8.57178 53.5297V51.14Z" fill="white"/>
</svg>
