<svg width="100" height="100" viewBox="0 0 100 100" fill="none" xmlns="http://www.w3.org/2000/svg">
<rect width="100" height="100" fill="#595C62"/>
<path d="M17.8662 40.8203H24.7334C26.0928 40.8203 27.1045 40.8789 27.7686 40.9961C28.4405 41.1055 29.0381 41.3398 29.5616 41.6992C30.0928 42.0586 30.5342 42.5391 30.8858 43.1406C31.2373 43.7344 31.4131 44.4023 31.4131 45.1445C31.4131 45.9492 31.1944 46.6875 30.7569 47.3594C30.3272 48.0312 29.7412 48.5352 28.9991 48.8711C30.0459 49.1758 30.8506 49.6953 31.4131 50.4297C31.9756 51.1641 32.2569 52.0273 32.2569 53.0195C32.2569 53.8008 32.0733 54.5625 31.7061 55.3047C31.3467 56.0391 30.8506 56.6289 30.2178 57.0742C29.5928 57.5117 28.8194 57.7812 27.8975 57.8828C27.3194 57.9453 25.9248 57.9844 23.7139 58H17.8662V40.8203ZM21.335 43.6797V47.6523H23.6084C24.96 47.6523 25.7998 47.6328 26.128 47.5938C26.7217 47.5234 27.1866 47.3203 27.5225 46.9844C27.8662 46.6406 28.0381 46.1914 28.0381 45.6367C28.0381 45.1055 27.8897 44.6758 27.5928 44.3477C27.3037 44.0117 26.8702 43.8086 26.292 43.7383C25.9483 43.6992 24.96 43.6797 23.3272 43.6797H21.335ZM21.335 50.5117V55.1055H24.5459C25.7959 55.1055 26.5889 55.0703 26.9248 55C27.4405 54.9062 27.8584 54.6797 28.1787 54.3203C28.5069 53.9531 28.6709 53.4648 28.6709 52.8555C28.6709 52.3398 28.5459 51.9023 28.2959 51.543C28.0459 51.1836 27.6827 50.9219 27.2061 50.7578C26.7373 50.5938 25.7139 50.5117 24.1358 50.5117H21.335ZM35.5583 58V40.8203H41.1247C43.2341 40.8203 44.6091 40.9062 45.2497 41.0781C46.2341 41.3359 47.0583 41.8984 47.7223 42.7656C48.3864 43.625 48.7184 44.7383 48.7184 46.1055C48.7184 47.1602 48.527 48.0469 48.1442 48.7656C47.7614 49.4844 47.2731 50.0508 46.6794 50.4648C46.0934 50.8711 45.4958 51.1406 44.8864 51.2734C44.0583 51.4375 42.8591 51.5195 41.2887 51.5195H39.027V58H35.5583ZM39.027 43.7266V48.6016H40.9255C42.2927 48.6016 43.2067 48.5117 43.6677 48.332C44.1286 48.1523 44.488 47.8711 44.7458 47.4883C45.0114 47.1055 45.1442 46.6602 45.1442 46.1523C45.1442 45.5273 44.9606 45.0117 44.5934 44.6055C44.2262 44.1992 43.7614 43.9453 43.1989 43.8438C42.7848 43.7656 41.9528 43.7266 40.7028 43.7266H39.027ZM51.9261 58V40.8203H57.4925C59.6019 40.8203 60.9769 40.9062 61.6175 41.0781C62.6019 41.3359 63.4261 41.8984 64.0902 42.7656C64.7542 43.625 65.0863 44.7383 65.0863 46.1055C65.0863 47.1602 64.8948 48.0469 64.512 48.7656C64.1292 49.4844 63.6409 50.0508 63.0472 50.4648C62.4613 50.8711 61.8636 51.1406 61.2542 51.2734C60.4261 51.4375 59.2269 51.5195 57.6566 51.5195H55.3948V58H51.9261ZM55.3948 43.7266V48.6016H57.2933C58.6605 48.6016 59.5745 48.5117 60.0355 48.332C60.4964 48.1523 60.8558 47.8711 61.1136 47.4883C61.3792 47.1055 61.512 46.6602 61.512 46.1523C61.512 45.5273 61.3284 45.0117 60.9613 44.6055C60.5941 44.1992 60.1292 43.9453 59.5667 43.8438C59.1527 43.7656 58.3206 43.7266 57.0706 43.7266H55.3948ZM68.3291 58V40.8203H71.7041L78.7353 52.293V40.8203H81.958V58H78.4775L71.5517 46.7969V58H68.3291Z" fill="#F8F8F8"/>
</svg>
