<svg width="100" height="100" viewBox="0 0 100 100" fill="none" xmlns="http://www.w3.org/2000/svg">
<rect width="100" height="100" fill="#0576BB"/>
<path d="M75.3487 28.482C80.3229 28.8395 84.8981 31.4872 86.3282 36.5132C88.2505 43.2698 86.2401 54.0627 77.8047 55.2648C73.663 55.8555 69.599 56.0421 65.6128 55.8244C65.5369 55.8202 65.4611 55.8315 65.3898 55.8578C65.3186 55.8841 65.2535 55.9247 65.1986 55.9772C65.1437 56.0296 65.1002 56.0928 65.0707 56.1628C65.0412 56.2328 65.0264 56.3081 65.0273 56.384L65.162 72.2652C65.1654 72.4932 65.0514 72.6071 64.82 72.6071H52.9338C52.8692 72.6071 52.8072 72.5815 52.7616 72.5358C52.7159 72.4901 52.6902 72.4282 52.6902 72.3636L52.6851 28.4146C52.6851 28.2937 52.7455 28.2315 52.8664 28.2281C60.376 27.855 67.8701 27.9396 75.3487 28.482ZM65.1257 37.5909V46.7414C65.1257 46.8637 65.1743 46.981 65.2608 47.0674C65.3473 47.1539 65.4646 47.2025 65.5869 47.2025H69.5869C71.045 47.2025 72.4433 46.7096 73.4743 45.8321C74.5052 44.9547 75.0844 43.7646 75.0844 42.5237V41.8086C75.0844 40.5677 74.5052 39.3776 73.4743 38.5002C72.4433 37.6227 71.045 37.1298 69.5869 37.1298H65.5869C65.4646 37.1298 65.3473 37.1784 65.2608 37.2649C65.1743 37.3513 65.1257 37.4686 65.1257 37.5909Z" fill="white"/>
<path d="M42.6379 49.1663C47.4359 51.7001 50.8142 54.0887 50.3271 60.2961C49.7468 67.633 46.5706 71.8092 38.8243 72.115C30.3371 72.4466 21.862 72.5623 13.399 72.4621C13.2932 72.4621 13.1917 72.4201 13.1169 72.3453C13.042 72.2704 13 72.1689 13 72.0631V28.6323C13 28.5183 13.057 28.4613 13.171 28.4613C20.8257 28.406 28.5132 28.4008 36.2336 28.4457C41.8555 28.482 46.9747 30.5908 48.353 36.4407C49.5499 41.5237 46.9644 46.0782 42.6275 48.7207C42.588 48.7435 42.5553 48.7765 42.533 48.8162C42.5106 48.856 42.4994 48.901 42.5005 48.9466C42.5015 48.9922 42.5148 49.0366 42.539 49.0753C42.5632 49.114 42.5973 49.1454 42.6379 49.1663ZM25.3474 37.5806L25.3577 45.0108C25.3577 45.1936 25.4304 45.3689 25.5596 45.4981C25.6888 45.6273 25.8641 45.6999 26.0469 45.6999L31.7154 45.6896C32.3275 45.6887 32.9334 45.5861 33.4986 45.3877C34.0637 45.1893 34.5771 44.8989 35.0092 44.5332C35.4413 44.1675 35.7838 43.7336 36.017 43.2563C36.2502 42.779 36.3696 42.2678 36.3683 41.7517V40.7983C36.3658 39.7573 35.8732 38.7599 34.9988 38.0254C34.1244 37.2909 32.9397 36.8793 31.705 36.8811L26.0365 36.8915C25.8537 36.8915 25.6785 36.9641 25.5492 37.0933C25.42 37.2226 25.3474 37.3978 25.3474 37.5806ZM25.3629 54.3115L25.3318 62.6744C25.3318 62.7967 25.3804 62.914 25.4669 63.0004C25.5534 63.0869 25.6707 63.1355 25.793 63.1355L32.7672 63.1614C33.4582 63.1639 34.1429 63.0588 34.7821 62.8521C35.4212 62.6454 36.0023 62.3411 36.4922 61.9566C36.9821 61.5721 37.3711 61.115 37.637 60.6113C37.9029 60.1077 38.0405 59.5675 38.0419 59.0214V58.0473C38.0448 56.9458 37.4942 55.8878 36.5109 55.1056C35.5277 54.3235 34.1923 53.8813 32.7983 53.8763L25.8241 53.8504C25.7018 53.8504 25.5845 53.8989 25.498 53.9854C25.4115 54.0719 25.3629 54.1892 25.3629 54.3115Z" fill="white"/>
</svg>
