<svg width="100" height="100" viewBox="0 0 100 100" fill="none" xmlns="http://www.w3.org/2000/svg">
<rect width="100" height="100" fill="#0059AD"/>
<path d="M80.3672 52.7735C80.3785 52.7535 80.3948 52.7368 80.4146 52.725C80.4343 52.7133 80.4568 52.7069 80.4798 52.7066C80.5028 52.7062 80.5254 52.7119 80.5455 52.723C80.5657 52.7341 80.5825 52.7503 80.5944 52.7699C81.9288 54.9758 83.8293 56.0313 86.2961 55.9363C88.9918 55.8317 91.3269 53.85 91.8679 51.2697C92.7388 47.1079 89.1649 43.4763 85.014 44.0624C82.8754 44.3635 81.7683 45.5193 80.5133 47.2414C80.4748 47.2943 80.4381 47.2925 80.4033 47.236C79.6063 45.9431 78.2936 44.6033 76.7663 44.2337C73.5837 43.4619 70.3902 44.9604 69.3083 48.0961C68.0317 51.7998 70.7599 55.6243 74.4961 55.9291C77.0079 56.1364 79.1519 54.9716 80.3672 52.7735Z" stroke="#80ACD6" stroke-width="0.360635"/>
<path d="M40.7808 49.9731C40.7667 49.9624 40.7552 49.9486 40.7472 49.9328C40.7391 49.9171 40.7348 49.8997 40.7344 49.882C40.7341 49.8643 40.7377 49.8467 40.7451 49.8307C40.7526 49.8146 40.7635 49.8004 40.7772 49.7891C41.9006 48.8677 43.0528 47.9806 43.958 46.8482C43.9703 46.833 43.9781 46.8146 43.9804 46.7952C43.9827 46.7758 43.9793 46.7561 43.9708 46.7385C43.9623 46.7209 43.9489 46.7061 43.9323 46.6958C43.9156 46.6855 43.8964 46.6802 43.8768 46.6805C43.2169 46.6787 42.052 46.5254 41.493 46.8752C40.5319 47.4775 39.2679 49.3041 38.1085 49.0769C38.046 49.0649 38.0141 49.027 38.0129 48.9633L37.9841 46.9996C37.9834 46.9565 37.9741 46.914 37.9569 46.8744C37.9397 46.8349 37.9147 46.7991 37.8836 46.7691C37.8525 46.7392 37.8157 46.7156 37.7754 46.6998C37.7351 46.6839 37.692 46.6761 37.6487 46.6769L36.3558 46.6949C36.113 46.6997 35.9927 46.8229 35.9952 47.0645L36.0456 53.0331C36.0466 53.1295 36.0856 53.2217 36.1541 53.2896C36.2227 53.3574 36.3152 53.3955 36.4117 53.3955H37.8813C37.9558 53.3955 37.9931 53.3576 37.9931 53.2819V50.8783C37.9929 50.8271 38.0112 50.7776 38.0446 50.7386C38.078 50.6996 38.1243 50.6737 38.1752 50.6655C38.9812 50.5411 40.779 52.3965 41.3885 52.9609C42.0899 53.6101 43.4513 53.428 44.3403 53.3703C44.4136 53.3654 44.4256 53.3354 44.3763 53.2801C43.28 52.066 42.0815 50.9636 40.7808 49.9731Z" stroke="#80ACD6" stroke-width="0.360635"/>
<path d="M51.7111 48.9633C51.7091 48.366 51.4698 47.794 51.0459 47.3731C50.6221 46.9522 50.0484 46.7169 49.4511 46.719L45.6969 46.7321C45.4012 46.7331 45.1085 46.7924 44.8357 46.9065C44.5628 47.0207 44.3151 47.1874 44.1067 47.3973C43.8983 47.6072 43.7333 47.856 43.6211 48.1297C43.5088 48.4033 43.4516 48.6964 43.4527 48.9921L43.46 51.0874C43.462 51.6847 43.7013 52.2567 44.1252 52.6776C44.549 53.0985 45.1227 53.3338 45.72 53.3317L49.4742 53.3186C49.7699 53.3176 50.0626 53.2583 50.3354 53.1442C50.6083 53.03 50.856 52.8633 51.0644 52.6534C51.2728 52.4435 51.4378 52.1947 51.55 51.921C51.6622 51.6474 51.7195 51.3543 51.7184 51.0586L51.7111 48.9633Z" stroke="#80ACD6" stroke-width="0.360635"/>
<path d="M12.2686 49.2176C12.2686 49.2009 12.2737 49.1845 12.2831 49.1707C12.2926 49.1569 12.306 49.1463 12.3216 49.1402C12.3372 49.1342 12.3543 49.133 12.3705 49.1368C12.3868 49.1407 12.4016 49.1493 12.4129 49.1617L16.2446 53.2405C16.2843 53.2826 16.333 53.303 16.3907 53.3018L18.5274 53.2874C18.544 53.2874 18.5604 53.2841 18.5757 53.2778C18.591 53.2714 18.605 53.2621 18.6167 53.2504C18.6284 53.2387 18.6377 53.2248 18.644 53.2095C18.6504 53.1941 18.6537 53.1777 18.6537 53.1611V46.9492C18.6537 46.859 18.6086 46.814 18.5184 46.814H16.9623C16.8877 46.814 16.8505 46.8512 16.8505 46.9258V50.826C16.8507 50.841 16.8465 50.8556 16.8384 50.8682C16.8303 50.8807 16.8187 50.8906 16.8051 50.8966C16.7914 50.9025 16.7762 50.9043 16.7615 50.9017C16.7468 50.8991 16.7332 50.8922 16.7225 50.8819C15.3791 49.6053 14.1728 48.1934 12.8673 46.8554C12.8252 46.8122 12.7741 46.7905 12.714 46.7905L10.5358 46.7941C10.5004 46.7941 10.4664 46.8082 10.4414 46.8332C10.4164 46.8582 10.4023 46.8922 10.4023 46.9276C10.4041 48.9796 10.2941 51.1362 10.4961 53.1882C10.5045 53.2663 10.5478 53.3054 10.6259 53.3054H12.1352C12.164 53.3054 12.1917 53.2941 12.2123 53.2738C12.2329 53.2536 12.2447 53.2261 12.2452 53.1972L12.2686 49.2176Z" stroke="#80ACD6" stroke-width="0.360635"/>
<path d="M35.7174 49.0534C35.6687 48.0076 35.0124 46.7219 33.7826 46.767C32.304 46.8211 30.8326 46.7472 29.3486 46.8229C28.3604 46.8752 27.5364 47.4126 27.5346 48.4927C27.5334 49.4952 27.5334 50.4984 27.5346 51.5022C27.5382 53.821 31.2311 53.4099 32.6646 53.363C34.2857 53.3108 35.4217 53.0547 35.6922 51.275C35.7583 50.841 35.7667 50.1005 35.7174 49.0534Z" stroke="#80ACD6" stroke-width="0.360635"/>
<path d="M9.98806 46.9997C9.98797 46.9742 9.98285 46.9489 9.97298 46.9253C9.96311 46.9017 9.9487 46.8803 9.93055 46.8622C9.9124 46.8442 9.89089 46.8299 9.86723 46.8202C9.84356 46.8105 9.81822 46.8056 9.79265 46.8057L8.19504 46.8113C8.14339 46.8114 8.09393 46.8321 8.05754 46.8688C8.02115 46.9054 8.0008 46.955 8.00098 47.0067L8.02238 53.1374C8.02247 53.163 8.02759 53.1883 8.03746 53.2119C8.04733 53.2355 8.06175 53.2569 8.07989 53.2749C8.09804 53.293 8.11955 53.3072 8.14322 53.3169C8.16688 53.3266 8.19222 53.3316 8.21779 53.3315L9.81541 53.3259C9.86705 53.3257 9.91651 53.305 9.9529 53.2684C9.9893 53.2318 10.0096 53.1822 10.0095 53.1305L9.98806 46.9997Z" stroke="#80ACD6" stroke-width="0.360635"/>
<path d="M19.0938 46.9763L19.1154 53.2117C19.1159 53.2501 19.1315 53.2868 19.1588 53.3138C19.1862 53.3408 19.223 53.3559 19.2615 53.3559L24.9252 53.3361C25.2109 53.3353 25.4936 53.2846 25.7572 53.187C26.0208 53.0894 26.2602 52.9467 26.4617 52.7672C26.6631 52.5877 26.8227 52.3749 26.9312 52.1408C27.0398 51.9067 27.0953 51.6561 27.0945 51.4031L27.0836 48.7272C27.082 48.2166 26.8514 47.7276 26.4426 47.3678C26.0338 47.008 25.4802 46.8069 24.9036 46.8086L19.2398 46.8284C19.2205 46.8284 19.2013 46.8323 19.1835 46.8397C19.1657 46.8472 19.1495 46.8581 19.1359 46.8719C19.1223 46.8856 19.1116 46.9019 19.1044 46.9199C19.0971 46.9378 19.0935 46.957 19.0938 46.9763Z" stroke="#80ACD6" stroke-width="0.360635"/>
<path d="M54.1783 51.5472H57.2905C57.6223 51.5472 57.7948 51.7131 57.8081 52.0449L57.8567 53.2548C57.8577 53.2805 57.8685 53.3048 57.887 53.3226C57.9055 53.3405 57.9302 53.3504 57.9559 53.3504H59.4976C59.5746 53.3504 59.6154 53.3119 59.6202 53.235C59.6635 52.6183 59.7663 51.2605 59.256 50.8296C59.2079 50.7887 59.1971 50.74 59.2235 50.6835C59.8024 49.4249 60.1414 46.8139 58.0082 46.8139C56.0536 46.8127 54.1278 46.8127 52.2308 46.8139C52.2055 46.8139 52.1812 46.824 52.1632 46.8419C52.1453 46.8598 52.1353 46.8841 52.1353 46.9095L52.1533 53.0565C52.1533 53.1563 52.2032 53.2061 52.3029 53.2061L53.9024 53.2188C53.9384 53.2192 53.9732 53.2053 53.9992 53.18C54.0252 53.1547 54.0403 53.12 54.0412 53.0835L54.0863 51.6356C54.0875 51.5767 54.1182 51.5472 54.1783 51.5472Z" stroke="#80ACD6" stroke-width="0.360635"/>
<path d="M60.0527 47.0664L60.0852 53.1557C60.0852 53.1866 60.0913 53.2173 60.1032 53.2458C60.1151 53.2744 60.1325 53.3003 60.1545 53.3221C60.1765 53.3439 60.2025 53.3611 60.2312 53.3728C60.2598 53.3845 60.2905 53.3903 60.3214 53.3901L65.6805 53.3613C65.9873 53.3596 66.2909 53.2974 66.5738 53.1781C66.8567 53.0589 67.1134 52.885 67.3292 52.6663C67.5451 52.4476 67.7158 52.1885 67.8317 51.9037C67.9476 51.6188 68.0064 51.3139 68.0048 51.0063L67.9939 49.131C67.9923 48.8234 67.9302 48.5192 67.8112 48.2356C67.6922 47.9521 67.5187 47.6948 67.3005 47.4784C67.0824 47.2621 66.8238 47.091 66.5397 46.9748C66.2555 46.8586 65.9513 46.7996 65.6444 46.8013L60.2872 46.8302C60.2562 46.8302 60.2256 46.8363 60.197 46.8482C60.1685 46.8601 60.1425 46.8775 60.1208 46.8994C60.099 46.9214 60.0817 46.9475 60.0701 46.9761C60.0584 47.0048 60.0525 47.0354 60.0527 47.0664Z" stroke="#80ACD6" stroke-width="0.360635"/>
<path d="M71.7916 47.6596C71.3468 48.2462 71.2795 48.9338 71.5896 49.7224C71.9413 50.6186 72.7202 50.6366 73.6362 50.6781C74.8372 50.734 76.02 50.6655 77.2318 50.7629C77.2683 50.7655 77.3027 50.7814 77.3283 50.8077C77.3539 50.8339 77.3689 50.8687 77.3706 50.9053L77.4013 51.6608C77.4022 51.6812 77.3991 51.7015 77.3919 51.7206C77.3847 51.7397 77.3738 51.7571 77.3596 51.772C77.3455 51.7868 77.3285 51.7986 77.3096 51.8068C77.2907 51.815 77.2704 51.8193 77.2498 51.8195C76.1667 51.8291 75.0818 51.7943 73.9951 51.7149C73.2323 51.659 72.4263 51.4138 71.6059 51.3092C71.5582 51.3032 71.5097 51.3079 71.464 51.3229C71.4183 51.3379 71.3765 51.3629 71.3417 51.396C71.3068 51.4291 71.2798 51.4696 71.2625 51.5144C71.2452 51.5593 71.238 51.6075 71.2416 51.6554C71.3119 52.6111 72.127 53.0385 73.0484 53.1052C74.4489 53.205 75.8523 53.2218 77.2588 53.1557C78.6617 53.089 79.071 51.9908 78.8168 50.7466C78.6437 49.8973 78.0901 49.5998 77.23 49.5655C76.2298 49.5247 74.9958 49.509 73.5281 49.5187C72.9835 49.5241 72.5868 49.0426 72.9366 48.5486C73.4866 47.775 76.8062 48.3574 77.6609 48.6225C77.8076 48.6682 78.027 48.6622 78.3191 48.6045C78.3744 48.5936 78.4201 48.566 78.4561 48.5215C78.6196 48.3183 78.6377 48.0954 78.5102 47.8525C77.9368 46.767 75.2068 46.9455 74.1231 46.9636C73.1259 46.9816 72.3181 46.9618 71.7916 47.6596Z" stroke="#80ACD6" stroke-width="0.360635"/>
<path d="M83.9342 52.0502L88.1663 52.025C88.1855 52.025 88.2138 52.0556 88.251 52.1169L88.8858 53.1501C88.9066 53.1843 88.937 53.2116 88.9733 53.2286C89.0095 53.2456 89.0499 53.2515 89.0895 53.2457L90.0795 53.0996C90.1913 53.0828 90.2201 53.0251 90.166 52.9265L87.061 47.2772C87.0322 47.2246 86.9922 47.179 86.9439 47.1435C86.8957 47.108 86.8402 47.0835 86.7815 47.0716C86.1413 46.9454 85.0955 46.7723 84.724 47.4773C83.7515 49.3298 82.7658 51.1504 81.7668 52.9392C81.7535 52.9629 81.7467 52.9897 81.7471 53.0169C81.7474 53.0441 81.7549 53.0707 81.7688 53.0941C81.7827 53.1175 81.8025 53.1368 81.8262 53.1501C81.8499 53.1634 81.8767 53.1703 81.9039 53.17L83.0561 53.1682C83.0864 53.1681 83.1161 53.1603 83.1423 53.1455C83.1686 53.1306 83.1904 53.1092 83.2058 53.0834L83.7629 52.1476C83.8014 52.0839 83.8585 52.0514 83.9342 52.0502Z" stroke="#80ACD6" stroke-width="0.360635"/>
<path d="M49.6556 48.9434C49.6557 48.8896 49.6452 48.8364 49.6247 48.7867C49.6043 48.737 49.5742 48.6918 49.5363 48.6538C49.4983 48.6157 49.4532 48.5854 49.4036 48.5648C49.354 48.5441 49.3008 48.5335 49.247 48.5334L45.9364 48.5276C45.8826 48.5275 45.8294 48.538 45.7797 48.5585C45.73 48.579 45.6848 48.609 45.6468 48.647C45.6087 48.6849 45.5784 48.73 45.5578 48.7796C45.5371 48.8292 45.5265 48.8824 45.5264 48.9362L45.5225 51.1685C45.5224 51.2223 45.5329 51.2755 45.5533 51.3252C45.5738 51.3749 45.6039 51.4201 45.6418 51.4582C45.6798 51.4962 45.7249 51.5265 45.7745 51.5471C45.8241 51.5678 45.8773 51.5785 45.9311 51.5786L49.2417 51.5843C49.2954 51.5844 49.3487 51.5739 49.3984 51.5535C49.4481 51.533 49.4933 51.5029 49.5313 51.465C49.5694 51.427 49.5996 51.3819 49.6203 51.3323C49.641 51.2827 49.6516 51.2295 49.6517 51.1757L49.6556 48.9434Z" stroke="#80ACD6" stroke-width="0.360635"/>
<path d="M33.6644 48.893C33.664 48.8093 33.6303 48.7292 33.5708 48.6704C33.5113 48.6115 33.4309 48.5787 33.3472 48.5791L29.7734 48.5978C29.6897 48.5983 29.6096 48.6319 29.5507 48.6914C29.4919 48.7509 29.459 48.8313 29.4595 48.915L29.4719 51.2844C29.4723 51.3681 29.506 51.4481 29.5655 51.507C29.625 51.5659 29.7054 51.5987 29.7891 51.5983L33.3629 51.5796C33.4466 51.5791 33.5267 51.5455 33.5856 51.486C33.6444 51.4265 33.6773 51.346 33.6768 51.2624L33.6644 48.893Z" stroke="#80ACD6" stroke-width="0.360635"/>
<path d="M20.9438 48.7074L20.9583 51.4482C20.9587 51.4871 20.9745 51.5243 21.0022 51.5516C21.0299 51.579 21.0672 51.5943 21.1061 51.5943L24.4114 51.5781C24.4946 51.5777 24.5769 51.5656 24.6537 51.5424C24.7304 51.5193 24.8001 51.4856 24.8587 51.4432C24.9173 51.4008 24.9637 51.3506 24.9953 51.2955C25.0268 51.2404 25.0428 51.1814 25.0425 51.1219L25.0316 48.9905C25.0309 48.8706 24.9637 48.756 24.8447 48.6718C24.7257 48.5876 24.5646 48.5407 24.3969 48.5415L21.0917 48.5595C21.0525 48.5595 21.0149 48.5751 20.9872 48.6029C20.9594 48.6306 20.9438 48.6682 20.9438 48.7074Z" stroke="#80ACD6" stroke-width="0.360635"/>
<path d="M54.104 49.6504C54.092 49.6612 54.086 49.6786 54.086 49.7027C54.086 49.722 54.0933 49.7405 54.1065 49.7543C54.1196 49.7681 54.1375 49.7761 54.1563 49.7766C55.1986 49.7934 56.2426 49.788 57.2885 49.7604C58.1341 49.7369 57.9268 48.563 57.0576 48.5504C56.0959 48.5372 55.1294 48.5636 54.1581 48.6298C54.0992 48.6334 54.071 48.6646 54.0734 48.7235L54.1221 49.6071C54.1233 49.6251 54.1173 49.6395 54.104 49.6504Z" stroke="#80ACD6" stroke-width="0.360635"/>
<path d="M61.9373 48.747L61.9229 51.3868C61.9226 51.4121 61.9274 51.4371 61.9369 51.4605C61.9464 51.4839 61.9604 51.5052 61.9782 51.5231C61.996 51.5411 62.0171 51.5553 62.0404 51.565C62.0637 51.5747 62.0887 51.5797 62.114 51.5797L65.1578 51.5942C65.3831 51.595 65.5997 51.4984 65.7599 51.3257C65.9201 51.153 66.011 50.9182 66.0125 50.6727L66.0197 49.5043C66.0204 49.3824 65.9991 49.2615 65.9569 49.1487C65.9147 49.0358 65.8524 48.9331 65.7737 48.8465C65.695 48.7599 65.6013 48.6911 65.4981 48.644C65.3949 48.5969 65.2841 48.5724 65.1722 48.572L62.1284 48.5576C62.078 48.5576 62.0297 48.5775 61.9939 48.613C61.9581 48.6484 61.9378 48.6966 61.9373 48.747Z" stroke="#80ACD6" stroke-width="0.360635"/>
<path d="M86.1213 48.2024C86.1115 48.1841 86.0971 48.1688 86.0795 48.1579C86.0618 48.147 86.0417 48.141 86.021 48.1404C86.0002 48.1399 85.9798 48.1448 85.9616 48.1548C85.9434 48.1647 85.9282 48.1793 85.9175 48.197L84.4118 50.6926C84.401 50.7103 84.395 50.7306 84.3946 50.7514C84.3941 50.7722 84.3992 50.7927 84.4093 50.8108C84.4194 50.829 84.4341 50.8442 84.452 50.8548C84.4699 50.8654 84.4902 50.871 84.511 50.8711L87.3564 50.8838C87.3767 50.8837 87.3967 50.8784 87.4143 50.8683C87.4319 50.8583 87.4466 50.8438 87.457 50.8264C87.4673 50.8089 87.473 50.7891 87.4734 50.7688C87.4738 50.7485 87.4689 50.7285 87.4592 50.7106L86.1213 48.2024Z" stroke="#80ACD6" stroke-width="0.360635"/>
<path d="M80.3672 52.7735C79.1519 54.9716 77.0079 56.1364 74.4961 55.9291C70.7599 55.6243 68.0317 51.7998 69.3083 48.0961C70.3902 44.9604 73.5837 43.4619 76.7663 44.2337C78.2936 44.6033 79.6063 45.9431 80.4033 47.236C80.4381 47.2925 80.4748 47.2943 80.5133 47.2414C81.7683 45.5193 82.8754 44.3635 85.014 44.0624C89.1649 43.4763 92.7388 47.1079 91.8679 51.2697C91.3269 53.85 88.9918 55.8317 86.2961 55.9363C83.8293 56.0313 81.9288 54.9758 80.5944 52.7699C80.5825 52.7503 80.5656 52.7341 80.5455 52.723C80.5254 52.7119 80.5028 52.7062 80.4798 52.7066C80.4568 52.7069 80.4343 52.7133 80.4146 52.725C80.3948 52.7368 80.3785 52.7535 80.3672 52.7735ZM71.7913 47.6597C71.3465 48.2463 71.2792 48.934 71.5894 49.7225C71.941 50.6187 72.72 50.6367 73.636 50.6782C74.8369 50.7341 76.0198 50.6656 77.2315 50.763C77.2681 50.7656 77.3024 50.7815 77.328 50.8078C77.3536 50.834 77.3687 50.8688 77.3703 50.9054L77.401 51.661C77.402 51.6813 77.3988 51.7016 77.3916 51.7207C77.3845 51.7398 77.3735 51.7573 77.3594 51.7721C77.3452 51.7869 77.3282 51.7987 77.3093 51.8069C77.2905 51.8151 77.2701 51.8194 77.2495 51.8196C76.1664 51.8292 75.0815 51.7944 73.9948 51.715C73.2321 51.6591 72.426 51.4139 71.6056 51.3093C71.5579 51.3033 71.5094 51.308 71.4637 51.323C71.418 51.338 71.3763 51.363 71.3414 51.3961C71.3065 51.4292 71.2795 51.4697 71.2622 51.5146C71.2449 51.5594 71.2378 51.6076 71.2413 51.6555C71.3117 52.6112 72.1267 53.0386 73.0481 53.1053C74.4486 53.2051 75.8521 53.2219 77.2585 53.1558C78.6614 53.0891 79.0707 51.9909 78.8165 50.7467C78.6434 49.8974 78.0898 49.5999 77.2297 49.5657C76.2295 49.5248 74.9956 49.5092 73.5278 49.5188C72.9832 49.5242 72.5865 49.0427 72.9363 48.5487C73.4863 47.7751 76.8059 48.3575 77.6606 48.6226C77.8073 48.6683 78.0267 48.6623 78.3188 48.6046C78.3741 48.5938 78.4198 48.5661 78.4559 48.5216C78.6193 48.3185 78.6374 48.0955 78.5099 47.8526C77.9365 46.7671 75.2065 46.9456 74.1228 46.9637C73.1257 46.9817 72.3178 46.9619 71.7913 47.6597ZM83.9339 52.0504L88.166 52.0252C88.1852 52.0252 88.2134 52.0558 88.2507 52.1172L88.8854 53.1504C88.9062 53.1846 88.9367 53.2118 88.9729 53.2288C89.0091 53.2458 89.0496 53.2518 89.0892 53.2459L90.0791 53.0999C90.1909 53.0831 90.2198 53.0254 90.1657 52.9268L87.0606 47.2774C87.0318 47.2249 86.9919 47.1792 86.9436 47.1437C86.8953 47.1082 86.8399 47.0837 86.7811 47.0719C86.141 46.9456 85.0951 46.7725 84.7237 47.4776C83.7512 49.33 82.7654 51.1507 81.7665 52.9394C81.7532 52.9631 81.7464 52.9899 81.7467 53.0171C81.7471 53.0443 81.7546 53.0709 81.7685 53.0943C81.7823 53.1177 81.8021 53.137 81.8258 53.1503C81.8495 53.1637 81.8763 53.1705 81.9035 53.1702L83.0558 53.1684C83.086 53.1684 83.1158 53.1606 83.142 53.1457C83.1682 53.1308 83.1901 53.1095 83.2054 53.0837L83.7626 52.1478C83.8011 52.0841 83.8582 52.0516 83.9339 52.0504Z" fill="white"/>
<path d="M40.7808 49.9731C42.0815 50.9636 43.28 52.066 44.3763 53.2801C44.4256 53.3354 44.4136 53.3654 44.3403 53.3703C43.4513 53.428 42.0899 53.6101 41.3885 52.9609C40.779 52.3965 38.9812 50.5411 38.1752 50.6655C38.1243 50.6737 38.078 50.6996 38.0446 50.7386C38.0112 50.7776 37.9929 50.8271 37.9931 50.8783V53.2819C37.9931 53.3576 37.9558 53.3955 37.8813 53.3955H36.4117C36.3152 53.3955 36.2227 53.3574 36.1541 53.2896C36.0856 53.2217 36.0466 53.1295 36.0456 53.0331L35.9952 47.0645C35.9927 46.8229 36.113 46.6997 36.3558 46.6949L37.6487 46.6769C37.692 46.6761 37.7351 46.6839 37.7754 46.6998C37.8157 46.7156 37.8525 46.7392 37.8836 46.7691C37.9147 46.7991 37.9397 46.8349 37.9569 46.8744C37.9741 46.914 37.9834 46.9565 37.9841 46.9996L38.0129 48.9633C38.0141 49.027 38.046 49.0649 38.1085 49.0769C39.2679 49.3041 40.5319 47.4775 41.493 46.8752C42.052 46.5254 43.2169 46.6787 43.8768 46.6805C43.8964 46.6802 43.9156 46.6855 43.9323 46.6958C43.9489 46.7061 43.9623 46.7209 43.9708 46.7385C43.9793 46.7561 43.9827 46.7758 43.9804 46.7952C43.9781 46.8146 43.9703 46.833 43.958 46.8482C43.0528 47.9806 41.9006 48.8677 40.7772 49.7891C40.7635 49.8004 40.7526 49.8146 40.7451 49.8307C40.7377 49.8467 40.7341 49.8643 40.7344 49.882C40.7348 49.8997 40.7391 49.9171 40.7472 49.9328C40.7552 49.9486 40.7667 49.9624 40.7808 49.9731Z" fill="white"/>
<path d="M51.7184 51.0586C51.7195 51.3543 51.6622 51.6474 51.55 51.921C51.4378 52.1947 51.2728 52.4435 51.0644 52.6534C50.856 52.8633 50.6083 53.03 50.3354 53.1442C50.0626 53.2583 49.7699 53.3176 49.4742 53.3186L45.72 53.3317C45.1227 53.3338 44.549 53.0985 44.1252 52.6776C43.7013 52.2567 43.462 51.6847 43.46 51.0874L43.4527 48.9921C43.4516 48.6964 43.5088 48.4033 43.6211 48.1297C43.7333 47.856 43.8983 47.6072 44.1067 47.3973C44.3151 47.1874 44.5628 47.0207 44.8357 46.9065C45.1085 46.7924 45.4012 46.7331 45.6969 46.7321L49.4511 46.719C50.0484 46.7169 50.6221 46.9522 51.0459 47.3731C51.4698 47.794 51.7091 48.366 51.7111 48.9633L51.7184 51.0586ZM49.6557 48.9434C49.6558 48.8897 49.6453 48.8364 49.6249 48.7867C49.6044 48.7371 49.5743 48.6919 49.5364 48.6538C49.4984 48.6157 49.4533 48.5855 49.4037 48.5648C49.3541 48.5442 49.3009 48.5335 49.2471 48.5334L45.9365 48.5276C45.8828 48.5275 45.8295 48.538 45.7798 48.5585C45.7301 48.579 45.6849 48.6091 45.6469 48.647C45.6088 48.6849 45.5786 48.73 45.5579 48.7796C45.5372 48.8293 45.5266 48.8825 45.5265 48.9362L45.5226 51.1686C45.5225 51.2223 45.533 51.2756 45.5535 51.3253C45.5739 51.375 45.604 51.4201 45.6419 51.4582C45.6799 51.4963 45.725 51.5265 45.7746 51.5472C45.8242 51.5678 45.8774 51.5785 45.9312 51.5786L49.2418 51.5844C49.2956 51.5845 49.3488 51.574 49.3985 51.5535C49.4482 51.533 49.4934 51.5029 49.5314 51.465C49.5695 51.4271 49.5998 51.382 49.6204 51.3324C49.6411 51.2827 49.6517 51.2295 49.6518 51.1758L49.6557 48.9434Z" fill="white"/>
<path d="M12.2686 49.2176L12.2452 53.1972C12.2447 53.2261 12.2329 53.2536 12.2123 53.2738C12.1917 53.2941 12.164 53.3054 12.1352 53.3054H10.6259C10.5478 53.3054 10.5045 53.2663 10.4961 53.1882C10.2941 51.1362 10.4041 48.9796 10.4023 46.9276C10.4023 46.8922 10.4164 46.8582 10.4414 46.8332C10.4664 46.8082 10.5004 46.7941 10.5358 46.7941L12.714 46.7905C12.7741 46.7905 12.8252 46.8122 12.8673 46.8554C14.1728 48.1934 15.3791 49.6053 16.7225 50.8819C16.7332 50.8922 16.7468 50.8991 16.7615 50.9017C16.7762 50.9043 16.7914 50.9025 16.8051 50.8966C16.8187 50.8906 16.8303 50.8807 16.8384 50.8682C16.8465 50.8556 16.8507 50.841 16.8505 50.826V46.9258C16.8505 46.8512 16.8877 46.814 16.9623 46.814H18.5184C18.6086 46.814 18.6537 46.859 18.6537 46.9492V53.1611C18.6537 53.1777 18.6504 53.1941 18.644 53.2095C18.6377 53.2248 18.6284 53.2387 18.6167 53.2504C18.605 53.2621 18.591 53.2714 18.5757 53.2778C18.5604 53.2841 18.544 53.2874 18.5274 53.2874L16.3907 53.3018C16.333 53.303 16.2843 53.2826 16.2446 53.2405L12.4129 49.1617C12.4016 49.1493 12.3868 49.1407 12.3705 49.1368C12.3543 49.133 12.3372 49.1342 12.3216 49.1402C12.306 49.1463 12.2926 49.1569 12.2831 49.1707C12.2737 49.1845 12.2686 49.2009 12.2686 49.2176Z" fill="white"/>
<path d="M33.7826 46.767C35.0124 46.7219 35.6687 48.0076 35.7174 49.0534C35.7667 50.1005 35.7583 50.841 35.6922 51.275C35.4217 53.0547 34.2857 53.3108 32.6646 53.363C31.2311 53.4099 27.5382 53.821 27.5346 51.5022C27.5334 50.4984 27.5334 49.4952 27.5346 48.4927C27.5364 47.4126 28.3604 46.8752 29.3486 46.8229C30.8326 46.7472 32.304 46.8211 33.7826 46.767ZM33.6646 48.8928C33.6641 48.8091 33.6305 48.729 33.571 48.6701C33.5115 48.6113 33.4311 48.5785 33.3474 48.5789L29.7735 48.5976C29.6898 48.598 29.6098 48.6317 29.5509 48.6912C29.492 48.7507 29.4592 48.8311 29.4596 48.9148L29.472 51.2842C29.4725 51.3678 29.5061 51.4479 29.5656 51.5068C29.6251 51.5657 29.7055 51.5985 29.7892 51.5981L33.3631 51.5793C33.4468 51.5789 33.5268 51.5452 33.5857 51.4858C33.6446 51.4263 33.6774 51.3458 33.677 51.2621L33.6646 48.8928Z" fill="white"/>
<path d="M9.79235 46.8058L8.19474 46.8113C8.08719 46.8117 8.0003 46.8992 8.00068 47.0068L8.02208 53.1375C8.02246 53.2451 8.10995 53.332 8.2175 53.3316L9.81511 53.326C9.92266 53.3256 10.0095 53.2381 10.0092 53.1306L9.98777 46.9998C9.98739 46.8923 9.8999 46.8054 9.79235 46.8058Z" fill="white"/>
<path d="M19.0938 46.9763C19.0935 46.957 19.0971 46.9378 19.1044 46.9199C19.1116 46.9019 19.1223 46.8856 19.1359 46.8719C19.1495 46.8581 19.1657 46.8472 19.1835 46.8397C19.2013 46.8323 19.2205 46.8284 19.2398 46.8284L24.9036 46.8086C25.4802 46.8069 26.0338 47.008 26.4426 47.3678C26.8514 47.7276 27.082 48.2166 27.0836 48.7272L27.0945 51.4031C27.0953 51.6561 27.0398 51.9067 26.9312 52.1408C26.8227 52.3749 26.6631 52.5877 26.4617 52.7672C26.2602 52.9467 26.0208 53.0894 25.7572 53.187C25.4936 53.2846 25.2109 53.3353 24.9252 53.3361L19.2615 53.3559C19.223 53.3559 19.1862 53.3408 19.1588 53.3138C19.1315 53.2868 19.1159 53.2501 19.1154 53.2117L19.0938 46.9763ZM20.9438 48.7073L20.9582 51.4482C20.9587 51.4871 20.9745 51.5242 21.0022 51.5516C21.0299 51.5789 21.0672 51.5942 21.1061 51.5942L24.4113 51.578C24.4945 51.5776 24.5769 51.5655 24.6536 51.5424C24.7304 51.5192 24.8001 51.4855 24.8587 51.4431C24.9173 51.4008 24.9637 51.3506 24.9952 51.2954C25.0268 51.2403 25.0428 51.1813 25.0424 51.1218L25.0316 48.9904C25.0309 48.8705 24.9636 48.7559 24.8446 48.6717C24.7256 48.5875 24.5646 48.5407 24.3969 48.5415L21.0917 48.5595C21.0525 48.5595 21.0149 48.5751 20.9871 48.6028C20.9594 48.6305 20.9438 48.6681 20.9438 48.7073Z" fill="white"/>
<path d="M54.0863 51.6356L54.0412 53.0835C54.0403 53.12 54.0252 53.1547 53.9992 53.18C53.9732 53.2053 53.9384 53.2192 53.9024 53.2188L52.3029 53.2062C52.2032 53.2062 52.1533 53.1563 52.1533 53.0565L52.1353 46.9095C52.1353 46.8841 52.1453 46.8598 52.1632 46.8419C52.1812 46.824 52.2055 46.8139 52.2308 46.8139C54.1278 46.8127 56.0536 46.8127 58.0082 46.8139C60.1414 46.8139 59.8024 49.4249 59.2235 50.6835C59.1971 50.74 59.2079 50.7887 59.256 50.8296C59.7663 51.2605 59.6635 52.6183 59.6202 53.235C59.6154 53.3119 59.5746 53.3504 59.4976 53.3504H57.9559C57.9302 53.3504 57.9055 53.3405 57.887 53.3226C57.8685 53.3048 57.8577 53.2805 57.8567 53.2548L57.8081 52.0449C57.7948 51.7131 57.6223 51.5472 57.2905 51.5472H54.1783C54.1182 51.5472 54.0875 51.5767 54.0863 51.6356ZM54.1043 49.6503C54.0923 49.6611 54.0863 49.6785 54.0863 49.7026C54.0863 49.7219 54.0936 49.7404 54.1068 49.7542C54.1199 49.768 54.1378 49.776 54.1566 49.7765C55.1989 49.7933 56.2429 49.7879 57.2887 49.7603C58.1344 49.7368 57.9271 48.563 57.0579 48.5503C56.0962 48.5371 55.1297 48.5636 54.1584 48.6297C54.0995 48.6333 54.0713 48.6645 54.0737 48.7235L54.1224 49.607C54.1236 49.625 54.1175 49.6395 54.1043 49.6503Z" fill="white"/>
<path d="M60.0527 47.0664C60.0525 47.0354 60.0584 47.0048 60.0701 46.9761C60.0817 46.9475 60.099 46.9214 60.1208 46.8994C60.1425 46.8775 60.1685 46.8601 60.197 46.8482C60.2256 46.8363 60.2562 46.8302 60.2872 46.8302L65.6444 46.8013C65.9513 46.7996 66.2555 46.8586 66.5397 46.9748C66.8238 47.091 67.0824 47.2621 67.3005 47.4784C67.5187 47.6948 67.6922 47.9521 67.8112 48.2356C67.9302 48.5192 67.9923 48.8234 67.9939 49.131L68.0048 51.0063C68.0064 51.3139 67.9476 51.6188 67.8317 51.9037C67.7158 52.1885 67.5451 52.4476 67.3292 52.6663C67.1134 52.885 66.8567 53.0589 66.5738 53.1781C66.2909 53.2974 65.9873 53.3596 65.6805 53.3613L60.3214 53.3901C60.2905 53.3903 60.2598 53.3845 60.2312 53.3728C60.2025 53.3611 60.1765 53.3439 60.1545 53.3221C60.1325 53.3003 60.1151 53.2744 60.1032 53.2458C60.0913 53.2173 60.0852 53.1866 60.0852 53.1557L60.0527 47.0664ZM61.9371 48.7469L61.9226 51.3868C61.9224 51.412 61.9272 51.4371 61.9367 51.4605C61.9462 51.4839 61.9602 51.5052 61.978 51.5231C61.9957 51.541 62.0169 51.5553 62.0402 51.565C62.0635 51.5747 62.0885 51.5797 62.1138 51.5797L65.1575 51.5941C65.3829 51.595 65.5994 51.4984 65.7597 51.3257C65.9199 51.153 66.0107 50.9181 66.0122 50.6727L66.0195 49.5043C66.0202 49.3824 65.9989 49.2615 65.9567 49.1486C65.9145 49.0358 65.8522 48.9331 65.7735 48.8465C65.6948 48.7599 65.6011 48.6911 65.4979 48.644C65.3947 48.5969 65.2839 48.5724 65.172 48.572L62.1282 48.5576C62.0778 48.5576 62.0295 48.5775 61.9937 48.6129C61.9579 48.6484 61.9375 48.6966 61.9371 48.7469Z" fill="white"/>
<path d="M71.7916 47.6598C72.3181 46.962 73.1259 46.9818 74.1231 46.9638C75.2068 46.9458 77.9368 46.7673 78.5102 47.8528C78.6377 48.0956 78.6196 48.3186 78.4561 48.5218C78.4201 48.5662 78.3744 48.5939 78.3191 48.6047C78.027 48.6624 77.8076 48.6684 77.6609 48.6227C76.8062 48.3577 73.4866 47.7752 72.9366 48.5488C72.5868 49.0429 72.9835 49.5243 73.5281 49.5189C74.9958 49.5093 76.2298 49.5249 77.23 49.5658C78.0901 49.6 78.6437 49.8976 78.8168 50.7469C79.071 51.9911 78.6617 53.0892 77.2588 53.1559C75.8523 53.222 74.4489 53.2052 73.0484 53.1054C72.127 53.0387 71.3119 52.6114 71.2416 51.6557C71.238 51.6077 71.2452 51.5596 71.2625 51.5147C71.2798 51.4698 71.3068 51.4294 71.3417 51.3962C71.3765 51.3631 71.4183 51.3381 71.464 51.3231C71.5097 51.3081 71.5582 51.3034 71.6059 51.3095C72.4263 51.414 73.2323 51.6593 73.9951 51.7152C75.0818 51.7945 76.1667 51.8294 77.2498 51.8198C77.2704 51.8195 77.2907 51.8152 77.3096 51.807C77.3285 51.7989 77.3455 51.787 77.3596 51.7722C77.3738 51.7574 77.3847 51.7399 77.3919 51.7208C77.3991 51.7017 77.4022 51.6814 77.4013 51.6611L77.3706 50.9056C77.3689 50.8689 77.3539 50.8342 77.3283 50.8079C77.3027 50.7817 77.2683 50.7657 77.2318 50.7631C76.02 50.6657 74.8372 50.7342 73.6362 50.6783C72.7202 50.6369 71.9413 50.6188 71.5896 49.7227C71.2795 48.9341 71.3468 48.2465 71.7916 47.6598Z" fill="#0059AD"/>
<path d="M83.7629 52.1478L83.2058 53.0837C83.1904 53.1095 83.1686 53.1308 83.1423 53.1457C83.1161 53.1606 83.0864 53.1684 83.0561 53.1684L81.9039 53.1702C81.8767 53.1705 81.8499 53.1637 81.8262 53.1503C81.8025 53.137 81.7827 53.1177 81.7688 53.0943C81.7549 53.0709 81.7474 53.0443 81.7471 53.0171C81.7467 52.9899 81.7535 52.9631 81.7668 52.9394C82.7658 51.1507 83.7515 49.3301 84.724 47.4776C85.0955 46.7725 86.1413 46.9457 86.7815 47.0719C86.8402 47.0837 86.8957 47.1082 86.9439 47.1437C86.9922 47.1792 87.0322 47.2249 87.061 47.2774L90.166 52.9268C90.2201 53.0254 90.1913 53.0831 90.0795 53.0999L89.0895 53.2459C89.0499 53.2518 89.0095 53.2458 88.9733 53.2288C88.937 53.2119 88.9066 53.1846 88.8858 53.1504L88.251 52.1172C88.2138 52.0559 88.1855 52.0252 88.1663 52.0252L83.9342 52.0504C83.8585 52.0516 83.8014 52.0841 83.7629 52.1478ZM86.1215 48.2025C86.1117 48.1842 86.0973 48.1688 86.0797 48.1579C86.0621 48.147 86.0419 48.141 86.0212 48.1405C86.0005 48.1399 85.98 48.1449 85.9618 48.1548C85.9437 48.1647 85.9284 48.1793 85.9177 48.1971L84.4121 50.6927C84.4012 50.7104 84.3953 50.7306 84.3948 50.7514C84.3943 50.7722 84.3994 50.7927 84.4095 50.8109C84.4196 50.829 84.4343 50.8442 84.4522 50.8548C84.4701 50.8654 84.4905 50.871 84.5113 50.8712L87.3567 50.8838C87.377 50.8837 87.3969 50.8784 87.4145 50.8684C87.4321 50.8583 87.4469 50.8439 87.4572 50.8264C87.4676 50.809 87.4732 50.7891 87.4736 50.7688C87.474 50.7486 87.4691 50.7285 87.4595 50.7107L86.1215 48.2025Z" fill="#0059AD"/>
<path d="M86.1213 48.2024L87.4592 50.7106C87.4689 50.7285 87.4738 50.7485 87.4734 50.7688C87.473 50.7891 87.4673 50.8089 87.457 50.8264C87.4466 50.8438 87.4319 50.8583 87.4143 50.8683C87.3967 50.8784 87.3767 50.8837 87.3564 50.8838L84.511 50.8711C84.4902 50.871 84.4699 50.8654 84.452 50.8548C84.4341 50.8442 84.4194 50.829 84.4093 50.8108C84.3992 50.7927 84.3941 50.7722 84.3946 50.7514C84.395 50.7306 84.401 50.7103 84.4118 50.6926L85.9175 48.197C85.9282 48.1793 85.9434 48.1647 85.9616 48.1548C85.9798 48.1448 86.0002 48.1399 86.021 48.1404C86.0417 48.141 86.0618 48.147 86.0795 48.1579C86.0971 48.1688 86.1115 48.1841 86.1213 48.2024Z" fill="white"/>
<path d="M20.9438 48.7074C20.9438 48.6682 20.9594 48.6306 20.9872 48.6029C21.0149 48.5751 21.0525 48.5595 21.0917 48.5595L24.3969 48.5415C24.5646 48.5407 24.7257 48.5876 24.8447 48.6718C24.9637 48.756 25.0309 48.8706 25.0316 48.9905L25.0425 51.1219C25.0428 51.1814 25.0268 51.2404 24.9953 51.2955C24.9637 51.3506 24.9173 51.4008 24.8587 51.4432C24.8001 51.4856 24.7304 51.5193 24.6537 51.5424C24.5769 51.5656 24.4946 51.5777 24.4114 51.5781L21.1061 51.5943C21.0672 51.5943 21.0299 51.579 21.0022 51.5516C20.9745 51.5243 20.9587 51.4871 20.9583 51.4482L20.9438 48.7074Z" fill="#0059AD"/>
<path d="M49.2473 48.5333L45.9367 48.5276C45.7106 48.5272 45.527 48.7101 45.5266 48.9362L45.5227 51.1685C45.5223 51.3946 45.7053 51.5781 45.9313 51.5785L49.242 51.5843C49.468 51.5847 49.6516 51.4018 49.652 51.1757L49.6559 48.9434C49.6563 48.7173 49.4734 48.5337 49.2473 48.5333Z" fill="#0059AD"/>
<path d="M33.3474 48.579L29.7736 48.5977C29.5993 48.5986 29.4587 48.7406 29.4597 48.9149L29.4721 51.2843C29.473 51.4585 29.615 51.5991 29.7893 51.5982L33.3631 51.5794C33.5374 51.5785 33.6779 51.4365 33.677 51.2622L33.6646 48.8929C33.6637 48.7186 33.5217 48.5781 33.3474 48.579Z" fill="#0059AD"/>
<path d="M54.1221 49.6071L54.0734 48.7235C54.071 48.6646 54.0992 48.6334 54.1581 48.6298C55.1294 48.5636 56.0959 48.5372 57.0576 48.5504C57.9268 48.563 58.1341 49.7369 57.2885 49.7604C56.2426 49.788 55.1986 49.7934 54.1563 49.7766C54.1375 49.7761 54.1196 49.7681 54.1065 49.7543C54.0933 49.7405 54.086 49.722 54.086 49.7027C54.086 49.6786 54.092 49.6612 54.104 49.6504C54.1173 49.6395 54.1233 49.6251 54.1221 49.6071Z" fill="#0059AD"/>
<path d="M61.9373 48.747C61.9378 48.6966 61.9581 48.6484 61.9939 48.613C62.0297 48.5775 62.078 48.5576 62.1284 48.5576L65.1722 48.572C65.2841 48.5724 65.3949 48.5969 65.4981 48.644C65.6013 48.6911 65.695 48.7599 65.7737 48.8465C65.8524 48.9331 65.9147 49.0358 65.9569 49.1487C65.9991 49.2615 66.0204 49.3824 66.0197 49.5043L66.0125 50.6727C66.011 50.9182 65.9201 51.153 65.7599 51.3257C65.5997 51.4984 65.3831 51.595 65.1578 51.5942L62.114 51.5797C62.0887 51.5797 62.0637 51.5747 62.0404 51.565C62.0171 51.5553 61.996 51.5411 61.9782 51.5231C61.9604 51.5052 61.9464 51.4839 61.9369 51.4605C61.9274 51.4371 61.9226 51.4121 61.9229 51.3868L61.9373 48.747Z" fill="#0059AD"/>
</svg>
