<svg width="100" height="100" viewBox="0 0 100 100" fill="none" xmlns="http://www.w3.org/2000/svg">
<rect width="100" height="100" fill="#4AA49F"/>
<path d="M72.8739 30.0821C72.8664 31.1976 72.8758 32.3735 72.5178 33.4438C71.8344 35.4776 70.5374 37.0133 68.6267 38.0509C68.6161 38.0567 68.6075 38.0655 68.6019 38.0762C68.5964 38.0869 68.5942 38.099 68.5956 38.111C68.5971 38.123 68.602 38.1342 68.6099 38.1433C68.6178 38.1524 68.6282 38.159 68.6398 38.1621C71.7126 38.9598 73.7319 40.841 74.698 43.8057C74.7715 44.0337 74.7658 44.3371 74.8186 44.5783C74.822 44.5928 74.8295 44.6061 74.8404 44.6164C74.8512 44.6268 74.8648 44.6337 74.8793 44.6364C74.8939 44.639 74.9088 44.6372 74.9221 44.6312C74.9355 44.6252 74.9466 44.6153 74.9542 44.6028C76.8549 41.6406 79.5985 40.3555 83.185 40.7474C83.1949 40.7482 83.2049 40.746 83.2136 40.7412C83.2223 40.7364 83.2294 40.7291 83.234 40.7203C83.2386 40.7114 83.2405 40.7014 83.2395 40.6915C83.2385 40.6816 83.2346 40.6722 83.2283 40.6645C80.8541 37.8958 80.4521 34.8457 82.0223 31.5142C82.0264 31.5065 82.0278 31.4977 82.0266 31.4891C82.0253 31.4805 82.0214 31.4725 82.0154 31.4663C82.0093 31.46 82.0015 31.4558 81.9929 31.4543C81.9844 31.4528 81.9755 31.4539 81.9677 31.4577C78.9352 32.7893 76.1263 32.4796 73.541 30.5287C73.3808 30.4062 73.1924 30.1556 72.9813 30.0237C72.9097 29.9785 72.8739 29.998 72.8739 30.0821Z" stroke="#F9D69F" stroke-width="0.376866"/>
<path d="M65.1636 41.2448L65.1372 70.5499C65.1372 70.6152 65.1699 70.6479 65.2352 70.6479H72.0659C72.0792 70.6479 72.0923 70.6453 72.1045 70.6402C72.1168 70.6352 72.1279 70.6278 72.1372 70.6185C72.1465 70.6092 72.1538 70.5982 72.1587 70.5861C72.1636 70.574 72.166 70.561 72.1658 70.548C72.1595 63.7519 72.1607 56.9501 72.1695 50.1426C72.172 48.7042 72.086 47.6214 71.9114 46.894C71.1275 43.614 68.9109 41.7027 65.2616 41.16C65.1963 41.1512 65.1636 41.1795 65.1636 41.2448Z" stroke="#A5D2CF" stroke-width="0.376866"/>
<path d="M46.3656 42.9633C43.1019 45.0323 41.6755 48.4524 42.5253 52.3322C43.5767 57.1297 48.0803 57.9607 52.1335 59.227C53.5825 59.6792 54.9166 60.4556 55.009 62.0233C55.1503 64.4032 53.705 65.4113 51.489 65.483C49.4822 65.5489 48.0652 64.7858 46.3693 63.7833C44.8995 62.9146 43.9856 62.6923 42.953 64.2374C42.3676 65.1155 41.8124 66.003 41.2873 66.9C41.2541 66.9564 41.242 67.0229 41.253 67.0876C41.264 67.1524 41.2975 67.2114 41.3476 67.2542C44.007 69.4928 47.1193 70.6894 50.6844 70.8439C56.068 71.0775 60.6959 68.0306 61.3328 62.4454C62.0507 56.1461 57.4642 54.2373 52.4689 52.8108C51.1009 52.4208 48.7831 51.4786 48.6117 50.0635C48.1896 46.5624 52.6253 46.2402 54.7715 47.2916C55.9003 47.8456 58.12 49.4209 59.1187 47.9945C59.4717 47.4933 60.0728 46.3708 60.922 44.6272C60.9471 44.5757 60.9408 44.528 60.9031 44.484C60.7549 44.3169 60.6406 44.2026 60.5602 44.1411C56.8104 41.2863 50.4828 40.3536 46.3656 42.9633Z" stroke="#A5D2CF" stroke-width="0.376866"/>
<path d="M33.9533 55.5923C34.3377 55.4151 34.7937 55.2568 35.1084 55.0873C37.5141 53.7858 38.6905 51.8638 38.6377 49.3212C38.5266 44.0376 34.2567 42.1193 29.6721 41.8593C25.5737 41.6275 21.3829 41.7707 17.2299 41.7745C17.0766 41.7745 17 41.8517 17 42.0063L17.0019 70.3145C17.0019 70.4678 17.0785 70.5457 17.2318 70.5482C20.8271 70.6148 24.4833 70.6286 28.2004 70.5896C33.0469 70.5388 38.1233 68.7901 39.1823 63.4141C39.985 59.344 37.7804 56.6192 33.9627 55.694C33.861 55.6701 33.8578 55.6362 33.9533 55.5923Z" stroke="#A5D2CF" stroke-width="0.376866"/>
<path d="M23.731 46.9204L23.7423 53.7341C23.7423 53.7531 23.7498 53.7713 23.7632 53.7848C23.7767 53.7982 23.7949 53.8057 23.8139 53.8057L28.5341 53.7963C29.4331 53.7947 30.2946 53.4678 30.9293 52.8876C31.5639 52.3073 31.9197 51.5212 31.9184 50.7022V49.9221C31.9177 49.5165 31.8293 49.115 31.6583 48.7406C31.4873 48.3661 31.237 48.026 30.9217 47.7398C30.6064 47.4535 30.2322 47.2266 29.8206 47.0721C29.409 46.9177 28.968 46.8386 28.5228 46.8394L23.8026 46.8488C23.7836 46.8488 23.7654 46.8563 23.7519 46.8698C23.7385 46.8832 23.731 46.9014 23.731 46.9204Z" stroke="#A5D2CF" stroke-width="0.376866"/>
<path d="M23.7192 58.4582V65.3247C23.7192 65.3532 23.7306 65.3805 23.7507 65.4007C23.7708 65.4208 23.7982 65.4321 23.8266 65.4321H29.0048C29.4821 65.4321 29.9548 65.3518 30.3958 65.1956C30.8368 65.0395 31.2375 64.8106 31.575 64.522C31.9125 64.2335 32.1803 63.891 32.363 63.514C32.5456 63.137 32.6396 62.7329 32.6396 62.3249V61.4581C32.6396 61.05 32.5456 60.646 32.363 60.269C32.1803 59.892 31.9125 59.5495 31.575 59.2609C31.2375 58.9724 30.8368 58.7435 30.3958 58.5874C29.9548 58.4312 29.4821 58.3508 29.0048 58.3508H23.8266C23.7982 58.3508 23.7708 58.3621 23.7507 58.3823C23.7306 58.4024 23.7192 58.4298 23.7192 58.4582Z" stroke="#A5D2CF" stroke-width="0.376866"/>
<path d="M72.5178 33.4438C72.8758 32.3735 72.8664 31.1976 72.8739 30.0821C72.8739 29.998 72.9097 29.9785 72.9813 30.0237C73.1924 30.1556 73.3808 30.4062 73.541 30.5287C76.1263 32.4796 78.9352 32.7893 81.9677 31.4577C81.9755 31.4539 81.9844 31.4528 81.9929 31.4543C82.0015 31.4558 82.0093 31.46 82.0154 31.4663C82.0214 31.4725 82.0253 31.4805 82.0266 31.4891C82.0278 31.4977 82.0264 31.5065 82.0223 31.5142C80.4521 34.8457 80.8541 37.8958 83.2283 40.6645C83.2346 40.6722 83.2385 40.6816 83.2395 40.6915C83.2405 40.7014 83.2386 40.7114 83.234 40.7203C83.2294 40.7291 83.2223 40.7364 83.2136 40.7412C83.2049 40.746 83.1949 40.7482 83.185 40.7474C79.5985 40.3555 76.8549 41.6406 74.9542 44.6028C74.9466 44.6153 74.9355 44.6252 74.9221 44.6312C74.9088 44.6372 74.8939 44.639 74.8793 44.6364C74.8648 44.6337 74.8512 44.6268 74.8404 44.6164C74.8295 44.6061 74.822 44.5928 74.8186 44.5783C74.7658 44.3371 74.7715 44.0337 74.698 43.8057C73.7319 40.841 71.7126 38.9598 68.6398 38.1621C68.6282 38.159 68.6178 38.1524 68.6099 38.1433C68.602 38.1342 68.5971 38.123 68.5956 38.111C68.5942 38.099 68.5964 38.0869 68.6019 38.0762C68.6075 38.0655 68.6161 38.0567 68.6267 38.0509C70.5374 37.0133 71.8344 35.4776 72.5178 33.4438Z" fill="#FFBD55"/>
<path d="M65.1372 70.5499L65.1636 41.2448C65.1636 41.1795 65.1963 41.1512 65.2616 41.16C68.9109 41.7027 71.1275 43.614 71.9114 46.894C72.086 47.6214 72.172 48.7042 72.1695 50.1426C72.1607 56.9501 72.1595 63.7519 72.1658 70.548C72.166 70.561 72.1636 70.574 72.1587 70.5861C72.1538 70.5982 72.1465 70.6092 72.1372 70.6185C72.1279 70.6278 72.1168 70.6352 72.1045 70.6402C72.0923 70.6453 72.0792 70.6479 72.0659 70.6479H65.2352C65.1699 70.6479 65.1372 70.6152 65.1372 70.5499Z" fill="white"/>
<path d="M46.3656 42.9633C50.4828 40.3536 56.8104 41.2863 60.5602 44.1411C60.6406 44.2026 60.7549 44.3169 60.9031 44.484C60.9408 44.528 60.9471 44.5757 60.922 44.6272C60.0728 46.3708 59.4717 47.4933 59.1187 47.9945C58.12 49.4209 55.9003 47.8456 54.7715 47.2916C52.6253 46.2402 48.1896 46.5624 48.6117 50.0635C48.7831 51.4786 51.1009 52.4208 52.4689 52.8108C57.4642 54.2373 62.0507 56.1461 61.3328 62.4454C60.6959 68.0306 56.068 71.0775 50.6844 70.8439C47.1193 70.6894 44.007 69.4928 41.3476 67.2542C41.2975 67.2114 41.264 67.1524 41.253 67.0876C41.242 67.0229 41.2541 66.9564 41.2873 66.9C41.8124 66.003 42.3676 65.1155 42.953 64.2374C43.9856 62.6923 44.8995 62.9146 46.3693 63.7833C48.0652 64.7858 49.4822 65.5489 51.489 65.483C53.705 65.4113 55.1503 64.4032 55.009 62.0233C54.9166 60.4556 53.5825 59.6792 52.1335 59.227C48.0803 57.9607 43.5767 57.1297 42.5253 52.3322C41.6755 48.4524 43.1019 45.0323 46.3656 42.9633Z" fill="white"/>
<path d="M33.9627 55.694C37.7804 56.6192 39.985 59.344 39.1823 63.4141C38.1233 68.7901 33.0469 70.5388 28.2004 70.5896C24.4833 70.6286 20.8271 70.6148 17.2318 70.5482C17.0785 70.5457 17.0019 70.4678 17.0019 70.3145L17 42.0063C17 41.8517 17.0766 41.7745 17.2299 41.7745C21.3829 41.7707 25.5737 41.6275 29.6721 41.8593C34.2567 42.1193 38.5266 44.0376 38.6377 49.3212C38.6905 51.8638 37.5141 53.7858 35.1084 55.0873C34.7937 55.2568 34.3377 55.4151 33.9533 55.5923C33.8578 55.6362 33.861 55.6701 33.9627 55.694ZM23.7308 46.9206L23.7421 53.7343C23.7421 53.7533 23.7497 53.7715 23.7631 53.7849C23.7765 53.7984 23.7947 53.8059 23.8137 53.8059L28.534 53.7965C29.4329 53.7949 30.2945 53.468 30.9291 52.8877C31.5638 52.3075 31.9196 51.5214 31.9182 50.7024V49.9223C31.9176 49.5167 31.8292 49.1152 31.6582 48.7407C31.4872 48.3663 31.2369 48.0262 30.9215 47.74C30.6062 47.4537 30.2321 47.2268 29.8205 47.0723C29.4089 46.9178 28.9679 46.8387 28.5227 46.8396L23.8024 46.849C23.7834 46.849 23.7652 46.8565 23.7518 46.8699C23.7384 46.8834 23.7308 46.9016 23.7308 46.9206ZM23.7195 58.4583V65.3248C23.7195 65.3533 23.7308 65.3806 23.751 65.4008C23.7711 65.4209 23.7984 65.4322 23.8269 65.4322H29.0051C29.4824 65.4322 29.9551 65.3518 30.3961 65.1957C30.8371 65.0395 31.2378 64.8107 31.5753 64.5221C31.9128 64.2336 32.1806 63.891 32.3632 63.5141C32.5459 63.1371 32.6399 62.733 32.6399 62.325V61.4582C32.6399 61.0501 32.5459 60.6461 32.3632 60.2691C32.1806 59.8921 31.9128 59.5495 31.5753 59.261C31.2378 58.9725 30.8371 58.7436 30.3961 58.5874C29.9551 58.4313 29.4824 58.3509 29.0051 58.3509H23.8269C23.7984 58.3509 23.7711 58.3622 23.751 58.3824C23.7308 58.4025 23.7195 58.4298 23.7195 58.4583Z" fill="white"/>
</svg>
