<svg width="100" height="100" viewBox="0 0 100 100" fill="none" xmlns="http://www.w3.org/2000/svg">
<rect width="100" height="100" fill="#1B1A1A"/>
<path d="M23.5093 73.5577V39.0564H76.4904V73.5577L51.5 82.5L23.5093 73.5577Z" fill="#1B1A1A"/>
<path d="M23.4155 73.1386V39.0564H76.5838V73.1386L51.5 81L23.4155 73.1386Z" fill="#F95D2C"/>
<path d="M77.0857 39.0566H23.6L14 28.3342H35.9429L50 18.6792L64.7429 28.3342H86L77.0857 39.0566Z" fill="#1B1A1A"/>
<path d="M76.4906 37.0189H23.5094L14 28.1887H35.7358L50 18L64.2642 28.1887H85.3208L76.4906 37.0189Z" fill="#F95D2C"/>
<path d="M38.4527 69.6225H29.6226V46.9744C29.6226 46.2538 29.9088 45.5627 30.4183 45.0532L33.9794 41.4921C34.2341 41.2374 34.5797 41.0942 34.94 41.0942H66.3018C71.0565 45.1697 71.7358 51.9622 66.981 54.6791C71.7358 57.3961 72.415 66.2263 66.981 69.6225H45.1287C43.9184 69.6225 43.3123 68.1593 44.1681 67.3035L45.2452 66.2263H62.9056C66.981 64.1886 66.981 58.0754 62.9056 54.6791H48.5249C47.3146 54.6791 46.7085 53.2159 47.5643 52.3601L47.9622 51.9622H62.9056C66.3018 51.2829 66.981 45.849 62.9056 44.4905H38.4527V69.6225Z" fill="#1B1A1A"/>
</svg>
