<svg width="100" height="100" viewBox="0 0 100 100" fill="none" xmlns="http://www.w3.org/2000/svg">
<rect width="100" height="100" fill="white"/>
<path d="M48.9973 14H51.1266C60.0412 14.4896 67.8698 17.7347 74.6124 23.7355C74.7834 23.8873 74.8048 24.0583 74.6765 24.2486C69.9723 31.1269 58.6912 33.3267 51.1811 31.0756C46.3101 29.6166 42.9431 25.6691 37.8541 25.1753C33.3487 24.736 29.9592 27.3687 26.4351 29.6102C24.5602 30.8009 23.1621 30.4439 22.2407 28.5391C21.9201 27.8753 22.1477 27.2084 22.648 26.644C29.5723 18.8111 38.3554 14.5964 48.9973 14Z" fill="#00853E"/>
<path d="M45.6946 29.6936C49.5576 32.2055 53.6942 33.3332 58.1045 33.0766C64.6718 32.6982 71.6527 30.4022 75.4591 24.9797C75.4807 24.9495 75.5086 24.9245 75.541 24.9063C75.5733 24.8881 75.6093 24.8772 75.6463 24.8745C75.6833 24.8717 75.7205 24.8771 75.7552 24.8903C75.7899 24.9035 75.8212 24.9242 75.8471 24.9509C80.9115 30.2419 84.115 36.5024 85.4575 43.7324C85.4763 43.8265 85.4663 43.9248 85.4287 44.0146C84.239 46.8974 81.0163 48.7541 78.0821 49.3153C77.971 49.3367 77.8908 49.2961 77.8416 49.1934C77.0977 47.5687 76.3783 45.9525 75.6835 44.3449C71.797 35.347 63.5206 33.4165 54.6412 35.4047C54.5393 35.4275 54.4324 35.4163 54.3366 35.3726C46.3006 31.7619 37.7035 33.253 30.6905 37.9925C29.6152 38.7215 28.604 39.413 27.6569 40.0672C27.521 40.161 27.3627 40.2177 27.1974 40.2318C27.0321 40.2459 26.8656 40.2168 26.7142 40.1474C23.1227 38.5023 20.4772 35.9498 18.7103 32.3711C18.6879 32.3264 18.6779 32.2762 18.6813 32.2256C18.6847 32.1749 18.7013 32.1256 18.7295 32.0825L20.8299 28.8726C20.9197 28.7337 21.0052 28.7369 21.0864 28.8823C22.6107 31.6699 24.7506 32.1093 27.5062 30.2002C30.5975 28.0581 33.5893 26.1213 37.5047 26.2848C40.4645 26.4099 43.1517 28.0389 45.6946 29.6936Z" fill="#16BFE8"/>
<path d="M25.8223 40.9875C25.84 40.9967 25.8549 41.0104 25.8656 41.0272C25.8762 41.0441 25.8821 41.0635 25.8828 41.0834C25.8834 41.1033 25.8788 41.1231 25.8693 41.1406C25.8598 41.1581 25.8458 41.1728 25.8288 41.1831C22.8562 43.0237 18.0173 43.5464 15.3942 40.6989C15.3151 40.6112 15.2905 40.5108 15.3204 40.3974C15.9361 38.1207 16.7912 35.9369 17.8858 33.8462C17.9585 33.7072 18.0365 33.704 18.1199 33.8366C20.0246 36.9321 22.5921 39.3157 25.8223 40.9875Z" fill="#006BB7"/>
<path d="M52.5349 35.7191C52.5534 35.7253 52.5694 35.7371 52.5808 35.753C52.5922 35.7688 52.5983 35.7878 52.5983 35.8073C52.5983 35.8268 52.5922 35.8458 52.5808 35.8616C52.5694 35.8774 52.5534 35.8893 52.5349 35.8955C44.8613 38.7141 37.4698 42.8412 28.94 40.8915C28.9132 40.8856 28.8886 40.8723 28.8691 40.853C28.8496 40.8337 28.836 40.8092 28.8296 40.7822C28.8233 40.7552 28.8246 40.7269 28.8333 40.7003C28.8421 40.6737 28.8579 40.65 28.8791 40.6318C35.5105 35.1451 44.1911 32.7978 52.5349 35.7191Z" fill="#006BB7"/>
<path d="M71.0336 39.4676C73.9292 42.174 75.2311 45.8361 76.6902 49.4115C76.6954 49.4239 76.6975 49.4374 76.6963 49.4508C76.6951 49.4643 76.6908 49.4772 76.6835 49.4885C76.6763 49.4999 76.6664 49.5093 76.6547 49.516C76.643 49.5227 76.6299 49.5264 76.6164 49.527C68.5131 50.0336 66.4865 44.4957 61.1602 39.7722C59.7279 38.5024 58.1886 37.3822 56.5425 36.4116C56.5198 36.3984 56.5016 36.3786 56.4905 36.3548C56.4794 36.3309 56.4759 36.3043 56.4805 36.2784C56.485 36.2525 56.4974 36.2286 56.516 36.21C56.5345 36.1914 56.5584 36.1789 56.5842 36.1743C61.747 35.1995 67.0477 35.7414 71.0336 39.4676Z" fill="#006BB7"/>
<path d="M27.4325 41.6066C37.2835 44.7235 44.4953 39.6216 54.3142 36.633C54.4068 36.6041 54.5078 36.6122 54.5964 36.6555C57.7154 38.1989 60.4187 40.2822 62.7061 42.9053C66.878 47.6929 70.3156 51.2267 77.2741 50.6719C77.3831 50.6612 77.4751 50.6975 77.5499 50.7809C79.8812 53.42 82.3728 53.4104 85.6853 52.9486C85.7836 52.9337 85.8338 52.9764 85.836 53.0769C85.8713 54.087 85.8007 54.9945 84.9413 55.684C76.9791 62.0524 65.2875 61.8761 59.2974 52.8524C53.9487 44.8004 45.669 40.1764 36.1066 44.2329C29.3662 47.09 19.6435 50.6206 15.0451 42.2062C15.0339 42.188 15.0295 42.1664 15.0328 42.1453C15.0361 42.1241 15.0469 42.1049 15.0631 42.091C15.0793 42.077 15.1 42.0694 15.1214 42.0693C15.1428 42.0693 15.1635 42.0769 15.1798 42.0908C18.7616 44.7652 23.623 44.1399 27.1343 41.6547C27.177 41.6238 27.2262 41.6034 27.278 41.5951C27.3298 41.5867 27.3828 41.5907 27.4325 41.6066Z" fill="#383896"/>
<path d="M52.1751 85.9837C39.5375 86.7982 26.8903 80.6157 19.9479 69.8733C14.8556 61.9934 13.0332 53.3481 14.4805 43.9376C14.484 43.9086 14.4964 43.8814 14.516 43.8598C14.5356 43.8382 14.5614 43.8232 14.5899 43.8168C14.6184 43.8105 14.6482 43.8132 14.6751 43.8244C14.702 43.8357 14.7247 43.8551 14.7402 43.8798C19.7202 51.3194 29.5262 48.4622 36.0679 45.4351C43.7736 41.8692 51.8512 44.7649 56.8024 51.2937C57.8958 52.7367 59.0246 54.7377 60.3233 56.0588C67.1632 63.0077 77.5977 62.5684 85.1046 57.0433C85.1276 57.0265 85.1552 57.0172 85.1836 57.0166C85.212 57.0161 85.24 57.0243 85.264 57.0403C85.2879 57.0562 85.3066 57.0791 85.3176 57.106C85.3287 57.1328 85.3315 57.1624 85.3259 57.1908C81.667 73.3012 68.7473 84.9159 52.1751 85.9837Z" fill="#00853E"/>
<path d="M79.0152 50.7521C78.7309 50.5127 78.7673 50.3427 79.1243 50.2422C81.7089 49.5282 83.8499 48.1451 85.5473 46.0928C85.6584 45.9581 85.7258 45.9773 85.7493 46.1505C86.0016 47.9633 86.0636 49.7815 85.9353 51.6051C85.9316 51.659 85.9099 51.7099 85.8737 51.7496C85.8376 51.7892 85.7892 51.8152 85.7365 51.8231C83.4597 52.1855 80.9329 52.3619 79.0152 50.7521Z" fill="#006BB7"/>
</svg>
