<svg width="100" height="100" viewBox="0 0 100 100" fill="none" xmlns="http://www.w3.org/2000/svg">
<rect width="100" height="100" fill="white"/>
<path d="M58.1963 33.8421C58.0767 33.8674 58.0078 33.9297 57.9896 34.029C57.9815 34.0756 57.9967 34.1126 58.0352 34.14C58.095 34.1825 58.1203 34.2564 58.1112 34.3618L56.0309 33.4926C55.961 33.4633 55.9463 33.481 55.9869 33.5458C56.2832 34.029 57.3864 34.5274 57.903 34.8283C57.5809 34.8486 57.4218 34.9813 57.4259 35.2264L53.6848 32.9152C53.666 32.9011 53.6425 32.895 53.6192 32.8983C53.596 32.9016 53.575 32.9139 53.5609 32.9327C53.5468 32.9514 53.5408 32.975 53.544 32.9982C53.5473 33.0215 53.5597 33.0424 53.5784 33.0565L53.8626 33.3148C53.5911 33.3422 53.4488 33.4987 53.4356 33.7844C52.963 33.4501 52.1485 32.4882 51.6668 32.3803C51.602 32.3662 51.5858 32.3879 51.6182 32.4457L52.2488 33.596C51.8234 33.4278 51.5777 33.5073 51.5119 33.8345C51.214 33.3285 50.8433 32.5034 50.3175 32.2466C50.275 32.2264 50.2557 32.2395 50.2598 32.2861L50.3692 33.5792C50.1088 33.4638 49.8409 33.4258 49.5653 33.4653L49.5821 32.236C49.583 32.2091 49.5748 32.1826 49.5588 32.1609C49.5429 32.1392 49.5201 32.1235 49.4941 32.1163C49.4682 32.1091 49.4406 32.1109 49.4157 32.1213C49.3909 32.1317 49.3703 32.1501 49.3572 32.1737L48.5457 33.5884C48.2844 33.6532 48.0782 33.5428 47.9273 33.2571C48.0316 33.1011 48.0691 32.941 48.0397 32.7769C48.0266 32.6999 47.9896 32.6863 47.9288 32.7359L47.087 33.4319C46.9685 33.2536 46.7547 33.1538 46.4458 33.1325L46.8667 32.5733C46.9457 32.468 46.929 32.4497 46.8165 32.5186L41.6167 35.6868C41.6673 35.5683 41.5362 35.4356 41.2231 35.2887L43.7516 33.7935C43.9998 33.6466 43.9811 33.5843 43.6954 33.6066C43.6174 33.6127 43.4685 33.6618 43.2487 33.754C42.6875 33.989 42.1414 34.2225 41.6106 34.4545C41.5975 34.3481 41.4987 34.2119 41.3143 34.0457L49.8996 30.016C49.9462 29.9947 49.9928 29.9947 50.0394 30.016L58.1963 33.8421Z" fill="#121B7A"/>
<path d="M49.5652 33.4651L49.5667 36.2793C49.5678 36.3249 49.5455 36.3482 49.4999 36.3492L47.0231 36.3978C47.0082 36.398 46.9936 36.3942 46.9807 36.3869C46.9678 36.3795 46.9571 36.3689 46.9497 36.3561C46.9423 36.3432 46.9384 36.3287 46.9385 36.3138C46.9386 36.299 46.9426 36.2844 46.9501 36.2717L48.5456 33.5882L49.3571 32.1735C49.3701 32.15 49.3908 32.1315 49.4156 32.1211C49.4405 32.1107 49.4681 32.109 49.494 32.1162C49.52 32.1234 49.5427 32.1391 49.5587 32.1608C49.5746 32.1825 49.5828 32.2089 49.5819 32.2358L49.5652 33.4651Z" fill="white"/>
<path d="M51.5119 33.8344L52.8688 36.2125C52.8789 36.2301 52.884 36.2501 52.8835 36.2704C52.883 36.2907 52.8769 36.3105 52.8659 36.3276C52.855 36.3447 52.8395 36.3584 52.8213 36.3673C52.803 36.3762 52.7827 36.38 52.7625 36.3781C51.9875 36.3173 51.2156 36.333 50.4467 36.4252C50.3951 36.4313 50.3692 36.4085 50.3692 36.3568V33.5791L50.2598 32.286C50.2558 32.2394 50.275 32.2263 50.3175 32.2465C50.8433 32.5033 51.2141 33.3284 51.5119 33.8344Z" fill="white"/>
<path d="M53.4356 33.7845C54.2866 34.6111 55.1917 35.3744 56.151 36.0744C56.1834 36.0977 56.2088 36.1266 56.227 36.161C56.2533 36.2116 56.27 36.2446 56.2771 36.2598C56.2911 36.2905 56.2965 36.3246 56.2925 36.3582C56.2886 36.3917 56.2755 36.4235 56.2548 36.4501C56.234 36.4766 56.2064 36.4969 56.175 36.5086C56.1435 36.5203 56.1095 36.5231 56.0766 36.5166C55.5083 36.4056 54.5038 36.2628 53.9781 36.4968C53.9462 36.5109 53.9102 36.5125 53.8773 36.5013C53.8443 36.49 53.8168 36.4667 53.8003 36.436L52.2489 33.596L51.6183 32.4458C51.5858 32.388 51.6021 32.3662 51.6669 32.3804C52.1486 32.4883 52.963 33.4502 53.4356 33.7845Z" fill="white"/>
<path d="M46.4457 33.1323C45.5249 34.0561 44.566 34.9512 43.5692 35.8173C43.3048 36.0467 43.0921 36.2929 42.8657 36.5603C42.8252 36.6079 42.7801 36.612 42.7305 36.5725C42.6626 36.5188 42.5866 36.4813 42.5025 36.46C42.462 36.4499 42.421 36.4448 42.3794 36.4448L40.8326 36.4099C40.7657 36.4089 40.752 36.381 40.7915 36.3263C40.9952 36.0457 41.2702 35.8325 41.6166 35.6866L46.8165 32.5184C46.9289 32.4495 46.9456 32.4677 46.8666 32.5731L46.4457 33.1323Z" fill="white"/>
<path d="M47.9273 33.2572L46.1889 36.1412C46.0917 36.2608 45.9904 36.3479 45.885 36.4026L44.2652 36.4862C44.0849 36.4953 44.0429 36.4274 44.1391 36.2825C44.1583 36.2532 44.2125 36.1949 44.3017 36.1078C45.2134 35.2184 46.1418 34.3264 47.087 33.4319L47.9288 32.736C47.9896 32.6863 48.0266 32.7 48.0397 32.777C48.0691 32.9411 48.0316 33.1012 47.9273 33.2572Z" fill="white"/>
<path d="M57.4257 35.2262L59.1169 36.2139C59.1594 36.2392 59.1569 36.2595 59.1093 36.2747C58.6641 36.4145 57.8116 36.6545 57.3907 36.3886C57.0154 36.1516 56.6294 35.7003 56.3954 35.5119C55.5232 34.8119 54.6789 34.0795 53.8624 33.3146L53.5782 33.0563C53.5595 33.0422 53.5471 33.0212 53.5438 32.998C53.5406 32.9748 53.5466 32.9512 53.5608 32.9325C53.5749 32.9137 53.5958 32.9014 53.6191 32.8981C53.6423 32.8948 53.6659 32.9009 53.6846 32.915L57.4257 35.2262Z" fill="white"/>
<path d="M46.4458 33.1323C46.7548 33.1536 46.9685 33.2534 47.087 33.4317C46.1419 34.3262 45.2135 35.2181 44.3017 36.1076C44.2126 36.1947 44.1584 36.2529 44.1392 36.2823C44.0429 36.4272 44.085 36.495 44.2653 36.4859L45.8851 36.4023C45.9043 36.5665 45.8795 36.684 45.8106 36.7549L43.5891 36.8202C43.5399 36.8212 43.4927 36.8389 43.4554 36.8704C42.6044 37.5876 41.791 38.3458 41.015 39.1451C40.6883 39.4809 40.2081 39.6921 39.889 40.0553C39.7958 40.1606 39.8196 40.2088 39.9605 40.1996C41.25 40.1105 42.5416 40.111 43.8353 40.2012C43.8589 40.2029 43.8825 40.1977 43.9033 40.1861C43.9241 40.1745 43.9411 40.157 43.9523 40.1358C44.4517 39.1968 44.9592 38.2714 45.4748 37.3596C45.6035 37.1327 45.7666 36.9479 45.9641 36.805C46.1576 36.6966 46.2326 36.4753 46.189 36.141L47.9273 33.2569C48.0783 33.5426 48.2844 33.653 48.5458 33.5882L46.9503 36.2717C46.9427 36.2844 46.9387 36.299 46.9386 36.3138C46.9386 36.3286 46.9424 36.3432 46.9499 36.3561C46.9573 36.3689 46.968 36.3795 46.9809 36.3869C46.9938 36.3942 47.0084 36.398 47.0232 36.3978L49.5 36.3492C49.5456 36.3481 49.5679 36.3249 49.5669 36.2793L49.5654 33.4651C49.8409 33.4256 50.1089 33.4636 50.3692 33.5791V36.3568C50.3692 36.4084 50.395 36.4312 50.4467 36.4251C51.2156 36.333 51.9875 36.3173 52.7625 36.378C52.7827 36.3799 52.803 36.3762 52.8213 36.3672C52.8395 36.3583 52.855 36.3446 52.8659 36.3275C52.8769 36.3104 52.883 36.2907 52.8835 36.2704C52.884 36.2501 52.8789 36.23 52.8688 36.2124L51.5119 33.8343C51.5777 33.5071 51.8234 33.4276 52.2489 33.5958L53.8003 36.4358C53.8168 36.4664 53.8443 36.4897 53.8773 36.501C53.9102 36.5123 53.9462 36.5107 53.9781 36.4966C54.5038 36.2625 55.5083 36.4054 56.0766 36.5163C56.1095 36.5228 56.1435 36.5201 56.175 36.5084C56.2064 36.4966 56.234 36.4764 56.2548 36.4498C56.2755 36.4233 56.2886 36.3915 56.2925 36.3579C56.2965 36.3243 56.2911 36.2903 56.2771 36.2595C56.27 36.2443 56.2533 36.2114 56.227 36.1607C56.2088 36.1263 56.1834 36.0974 56.151 36.0741C55.1917 35.3741 54.2866 34.6108 53.4356 33.7842C53.4488 33.4985 53.5911 33.342 53.8626 33.3147C54.6791 34.0795 55.5234 34.8119 56.3956 35.5119C56.6297 35.7003 57.0156 36.1516 57.3909 36.3887C57.8118 36.6546 58.6643 36.4145 59.1095 36.2747C59.1571 36.2595 59.1597 36.2392 59.1171 36.2139L57.4259 35.2262C57.4218 34.9811 57.5809 34.8484 57.903 34.8281C58.7053 35.3407 59.5228 35.8406 60.3555 36.3279C60.7374 36.5508 61.1801 36.6429 61.6836 36.6044C61.7314 36.6004 61.7766 36.5809 61.8123 36.5488C61.848 36.5167 61.8723 36.4739 61.8814 36.4267C61.8905 36.3796 61.884 36.3308 61.8628 36.2877C61.8417 36.2447 61.807 36.2097 61.7641 36.1881L58.1112 34.3616C58.1203 34.2563 58.095 34.1823 58.0352 34.1398C57.9967 34.1124 57.9815 34.0754 57.9896 34.0288C58.0079 33.9296 58.0768 33.8673 58.1963 33.8419L85.6283 46.6743C85.4399 46.7929 85.3604 46.9534 85.3897 47.156C83.4822 46.3021 81.5919 45.4157 79.7189 44.4969C78.7266 44.0106 77.982 44.2765 77.0415 44.2568C76.0132 44.2365 74.9719 44.2178 73.9173 44.2006C73.74 44.1975 73.7061 44.2659 73.8155 44.4057C73.8702 44.4746 73.9756 44.5566 74.1316 44.6519C76.0462 45.8118 77.9511 46.9869 79.8465 48.1772C79.9559 48.246 80.1459 48.2724 80.4163 48.2562C81.167 48.2116 82.4459 48.2253 84.2531 48.2972C84.0602 48.7926 84.4537 48.7637 84.747 48.8032C83.2528 48.8295 81.7586 48.8326 80.2644 48.8123C79.9736 48.8083 79.7558 48.7627 79.611 48.6756C77.2719 47.2584 74.9364 45.8346 72.6045 44.4042C72.0407 44.0577 71.6395 44.2446 71.1305 44.2431C66.1449 44.237 61.1533 44.1914 56.1692 44.2158C45.5234 44.2705 37.4396 44.1899 28.8907 44.2234C28.5944 44.2249 27.7587 44.1003 27.4259 44.2993C25.0392 45.7338 22.6591 47.1788 20.2856 48.6345C19.9452 48.8442 19.4362 48.7759 19.0654 48.7789C15.5948 48.8032 13.1925 48.6482 10.3768 48.7956C10.317 48.7986 10.2623 48.7885 10.2127 48.7652C10.1408 48.7318 10.0901 48.7034 10.0607 48.6801C10.0369 48.6615 10.0189 48.6364 10.0089 48.6078C9.99886 48.5792 9.99729 48.5483 10.0043 48.5188C10.0114 48.4894 10.0267 48.4626 10.0486 48.4416C10.0704 48.4206 10.0979 48.4064 10.1276 48.4005C10.9345 48.2334 11.5149 47.9371 12.2321 47.6058C21.9399 43.105 31.634 38.5849 41.3144 34.0456C41.4987 34.2117 41.5975 34.3479 41.6107 34.4543L37.9258 36.2641C37.8539 36.2985 37.8559 36.3274 37.9319 36.3507L38.8375 36.6212C38.8616 36.6279 38.8868 36.6298 38.9115 36.6267C38.9363 36.6235 38.9603 36.6155 38.9819 36.6029L41.2232 35.2885C41.5362 35.4354 41.6674 35.5681 41.6167 35.6866C41.2703 35.8325 40.9953 36.0458 40.7916 36.3264C40.7521 36.3811 40.7658 36.4089 40.8327 36.4099L42.3795 36.4449C42.4211 36.4449 42.4621 36.45 42.5026 36.4601C42.5867 36.4814 42.6627 36.5188 42.7305 36.5725C42.7802 36.612 42.8253 36.608 42.8658 36.5604C43.0922 36.2929 43.3049 36.0468 43.5693 35.8173C44.5661 34.9512 45.525 34.0562 46.4458 33.1323ZM69.9483 39.9064C68.5382 39.2702 67.1311 38.6259 65.7271 37.9735C64.0708 37.2047 63.2411 36.7853 61.7398 36.6607C61.7034 36.6577 61.667 36.6668 61.6363 36.6865C61.6055 36.7062 61.582 36.7354 61.5695 36.7697C61.5569 36.804 61.5559 36.8415 61.5666 36.8764C61.5774 36.9113 61.5992 36.9417 61.6289 36.9631C63.3232 38.1802 65.1466 39.2256 66.9457 40.2832C66.9913 40.3096 67.0399 40.3197 67.0916 40.3136C67.9972 40.2083 68.9049 40.1753 69.8146 40.2148C69.8956 40.2189 69.9691 40.1966 70.0349 40.148C70.1494 40.0639 70.1205 39.9834 69.9483 39.9064ZM38.3558 36.9083C37.5642 36.5482 36.8242 36.7853 35.9671 37.1515C34.4932 37.7795 33.0441 38.4608 31.6198 39.1952C31.1366 39.4444 30.433 39.6329 29.9908 39.9763C29.7548 40.1606 29.7857 40.2407 30.0835 40.2164C30.9952 40.1434 31.8994 40.1819 32.7959 40.3318C32.8496 40.341 32.8992 40.3318 32.9448 40.3045L38.3619 36.998C38.3698 36.9934 38.3761 36.9866 38.3804 36.9786C38.3846 36.9705 38.3865 36.9614 38.3859 36.9522C38.3852 36.9429 38.3821 36.934 38.3768 36.9263C38.3715 36.9186 38.3643 36.9124 38.3558 36.9083ZM58.2449 36.9205C58.403 37.3338 58.757 37.5861 59.0852 37.8717C59.9382 38.6143 60.7997 39.3614 61.6699 40.113C61.7763 40.2052 61.8994 40.2442 62.0392 40.23C62.7037 40.1642 63.3997 40.1394 64.127 40.1556C64.4689 40.1632 65.0554 40.2787 65.5341 40.2224C65.5451 40.2208 65.5554 40.2158 65.5635 40.2082C65.5716 40.2005 65.5772 40.1906 65.5796 40.1797C65.5819 40.1688 65.5808 40.1574 65.5765 40.1471C65.5721 40.1368 65.5648 40.1281 65.5554 40.1221C64.2653 39.3517 62.9752 38.5859 61.714 37.7669C60.6321 37.0664 59.6657 36.6743 58.3558 36.7488C58.3359 36.7498 58.3165 36.7556 58.2993 36.7656C58.282 36.7756 58.2673 36.7895 58.2565 36.8063C58.2457 36.8231 58.239 36.8422 58.237 36.862C58.235 36.8819 58.2377 36.9019 58.2449 36.9205ZM38.9363 40.1632C40.1063 39.0428 41.289 37.9396 42.4844 36.8536C42.5229 36.8182 42.5163 36.801 42.4646 36.802C41.831 36.8111 40.1048 36.6196 39.6125 36.922C37.9653 37.931 36.2862 38.9303 34.5753 39.9201C34.1386 40.1733 34.1716 40.2761 34.674 40.2285C35.8988 40.113 37.1235 40.0913 38.3482 40.1632C38.3958 40.1652 38.4399 40.1794 38.4804 40.2057C38.6456 40.3111 38.7975 40.2969 38.9363 40.1632ZM49.5669 36.9737C49.576 36.9403 49.5765 36.9018 49.5684 36.8582C49.5563 36.7984 49.5198 36.7691 49.459 36.7701L46.9138 36.8263C46.8375 36.8281 46.7629 36.8498 46.6974 36.8892C46.6318 36.9287 46.5776 36.9845 46.54 37.0512L44.8564 40.0462C44.8489 40.0591 44.8451 40.0738 44.8452 40.0887C44.8454 40.1036 44.8495 40.1183 44.8572 40.1312C44.8649 40.1442 44.8759 40.1549 44.8891 40.1624C44.9023 40.1698 44.9172 40.1738 44.9323 40.1738L49.5031 40.1328C49.5416 40.1318 49.5608 40.112 49.5608 40.0735L49.5563 37.0497C49.5563 37.0243 49.5598 36.999 49.5669 36.9737ZM50.4102 36.8643L50.3723 40.0492C50.3721 40.0633 50.3746 40.0773 50.3799 40.0904C50.3852 40.1035 50.393 40.1154 50.4029 40.1254C50.4128 40.1354 50.4245 40.1434 50.4376 40.1489C50.4506 40.1543 50.4645 40.1571 50.4786 40.1571C51.8371 40.1632 53.1955 40.1642 54.554 40.1601C54.709 40.1601 54.9111 40.2422 55.0889 40.2346C55.1648 40.2316 55.1805 40.1991 55.136 40.1373C54.481 39.2241 54.0085 38.2121 53.4326 37.2457C53.3414 37.0937 53.232 36.959 53.1044 36.8415C53.0638 36.804 53.0157 36.7853 52.96 36.7853L50.471 36.8035C50.4552 36.8035 50.4399 36.8099 50.4286 36.8212C50.4172 36.8326 50.4106 36.848 50.4102 36.8643ZM59.8769 39.4049C58.9378 38.5692 58.0003 37.7618 57.0642 36.9828C56.958 36.8941 56.8211 36.8505 56.6828 36.8612C55.8795 36.9251 55.0808 36.8916 54.2865 36.761C54.265 36.7573 54.2428 36.7597 54.2226 36.768C54.2023 36.7762 54.1848 36.79 54.172 36.8077C54.1592 36.8254 54.1516 36.8464 54.1501 36.8682C54.1486 36.89 54.1532 36.9118 54.1635 36.9311C54.6487 37.8803 55.1608 38.8473 55.6997 39.8319C56.0067 40.3926 56.464 40.1085 56.9001 40.1145C58.0773 40.1338 59.2508 40.152 60.4209 40.1693C60.4324 40.1692 60.4437 40.1663 60.4539 40.1608C60.464 40.1554 60.4725 40.1475 60.4787 40.1379C60.485 40.1284 60.4886 40.1175 60.4894 40.1062C60.4902 40.0949 60.488 40.0837 60.4832 40.0735C60.3419 39.7529 60.1246 39.6253 59.8769 39.4049ZM64.4522 43.3952C63.4645 42.5544 62.4814 41.707 61.5028 40.853C61.3958 40.7589 61.2597 40.7056 61.1183 40.7026L56.1434 40.5658C56.0968 40.5648 56.0897 40.581 56.1221 40.6145C56.2407 40.7376 56.3668 40.8606 56.4382 41.0187C56.8779 41.9881 57.4092 42.9034 58.0322 43.7645C58.0406 43.7762 58.0518 43.7857 58.0647 43.7923C58.0776 43.7989 58.092 43.8024 58.1066 43.8024L64.5479 43.8632C64.5705 43.8637 64.5927 43.8583 64.6125 43.8475C64.6323 43.8367 64.649 43.8209 64.6609 43.8016C64.6728 43.7823 64.6796 43.7603 64.6806 43.7375C64.6815 43.7148 64.6767 43.6921 64.6664 43.6718C64.6097 43.5603 64.5383 43.4681 64.4522 43.3952ZM22.2686 43.6611L22.141 43.7903C22.1347 43.797 22.1304 43.8054 22.1286 43.8144C22.1269 43.8235 22.1278 43.8328 22.1312 43.8412C22.1346 43.8496 22.1403 43.8568 22.1478 43.8617C22.1552 43.8667 22.1639 43.8694 22.1729 43.8693L26.9123 43.886C26.9548 43.886 26.9943 43.8754 27.0308 43.8541C28.7681 42.8127 30.5049 41.7703 32.2413 40.7269C32.297 40.6935 32.2985 40.658 32.2458 40.6206C32.1709 40.5689 32.0696 40.5476 31.9419 40.5567C31.1092 40.619 30.3373 40.6388 29.5046 40.5628C29.0497 40.5213 28.5615 40.6185 28.0398 40.8546C26.1191 41.7247 24.2095 42.6197 22.3111 43.5396C22.3051 43.5426 22.302 43.5472 22.302 43.5532L22.2929 43.6125C22.2909 43.6317 22.2828 43.648 22.2686 43.6611ZM28.6141 43.5988L28.523 43.6733C28.4592 43.726 28.4673 43.7609 28.5473 43.7781C28.7924 43.8298 29.0006 43.8546 29.1718 43.8526C31.0824 43.8313 32.997 43.8227 34.9156 43.8268C34.9673 43.8268 35.0119 43.8095 35.0493 43.7751C35.8881 43.0133 36.7168 42.2414 37.5353 41.4593C37.8118 41.1949 38.1173 40.97 38.4516 40.7847C38.4693 40.7752 38.4833 40.76 38.4914 40.7415C38.4995 40.7231 38.5011 40.7024 38.496 40.683C38.4909 40.6635 38.4794 40.6463 38.4633 40.6341C38.4473 40.622 38.4276 40.6156 38.4075 40.616C37.1635 40.618 35.9008 40.617 34.6193 40.613C34.0829 40.6114 33.8231 40.3972 33.2837 40.73C31.7641 41.667 30.235 42.5883 28.6962 43.494C28.6851 43.5001 28.6759 43.5082 28.6689 43.5183C28.6618 43.5304 28.6552 43.5426 28.6491 43.5548C28.641 43.572 28.6293 43.5867 28.6141 43.5988ZM36.0553 43.6976C36.034 43.7168 36.0335 43.7371 36.0537 43.7584L36.0948 43.7994C36.1272 43.8308 36.1662 43.8465 36.2118 43.8465L41.6076 43.8146C41.6718 43.8142 41.7348 43.7968 41.7903 43.7643C41.8457 43.7317 41.8917 43.6852 41.9237 43.6292L43.6256 40.6418C43.6418 40.6135 43.6337 40.6003 43.6012 40.6023C42.2641 40.6823 40.9279 40.6585 39.5927 40.5309C39.5674 40.5281 39.5419 40.5307 39.5177 40.5385C39.4936 40.5464 39.4715 40.5593 39.4529 40.5765L36.0553 43.6976ZM44.4704 40.6601L42.8476 43.6049C42.8351 43.6271 42.8288 43.6521 42.8291 43.6775C42.8295 43.703 42.8366 43.7279 42.8496 43.7498C42.8627 43.7718 42.8813 43.79 42.9035 43.8027C42.9258 43.8154 42.9511 43.8221 42.9767 43.8222L49.4697 43.8116C49.5081 43.8116 49.5279 43.7928 49.5289 43.7553L49.576 40.7664C49.5762 40.7571 49.5746 40.7479 49.5711 40.7392C49.5677 40.7306 49.5626 40.7227 49.5561 40.716C49.5496 40.7094 49.5418 40.7041 49.5332 40.7005C49.5246 40.6969 49.5154 40.695 49.5061 40.695C48.1152 40.6889 46.7345 40.6889 45.3639 40.695C45.1299 40.6965 44.8579 40.5917 44.6087 40.581C44.5469 40.579 44.5008 40.6054 44.4704 40.6601ZM71.012 43.4058C70.0476 42.875 69.1024 42.3123 68.1765 41.7177C67.6721 41.3925 66.3379 40.5142 65.7863 40.6206C64.7834 40.812 63.3794 40.6357 62.3127 40.5704C62.2999 40.5697 62.2872 40.573 62.2764 40.5798C62.2656 40.5866 62.2571 40.5966 62.2521 40.6084C62.2471 40.6202 62.2459 40.6332 62.2486 40.6457C62.2513 40.6582 62.2577 40.6696 62.2671 40.6783C62.2843 40.6945 62.3137 40.7097 62.3552 40.7239C62.3877 40.735 62.415 40.7507 62.4373 40.771C63.4655 41.7151 64.515 42.6354 65.5858 43.532C65.952 43.8374 66.4732 43.8571 66.8925 43.8511C68.2561 43.8298 69.6373 43.8414 71.0363 43.886C71.0639 43.887 71.0914 43.8819 71.1168 43.871C71.1422 43.8602 71.1649 43.8439 71.1833 43.8233C71.2017 43.8027 71.2154 43.7783 71.2233 43.7519C71.2313 43.7254 71.2333 43.6976 71.2293 43.6702C71.2141 43.5649 71.1416 43.4768 71.012 43.4058ZM55.1648 40.6646L50.4695 40.6403C50.4016 40.6403 50.3677 40.6742 50.3677 40.7421V43.652C50.3677 43.6777 50.3728 43.7032 50.3826 43.727C50.3925 43.7508 50.4069 43.7724 50.4251 43.7906C50.4433 43.8088 50.4649 43.8233 50.4887 43.8331C50.5125 43.843 50.538 43.848 50.5637 43.848L56.9822 43.8389C57.0068 43.8388 57.031 43.8326 57.0525 43.8207C57.0741 43.8089 57.0924 43.7919 57.1056 43.7712C57.1189 43.7505 57.1268 43.7268 57.1286 43.7023C57.1304 43.6777 57.126 43.6531 57.1159 43.6307C57.0217 43.4226 56.8059 43.2676 56.7087 43.0731C56.3197 42.292 55.9119 41.55 55.4855 40.847C55.4125 40.7264 55.3056 40.6656 55.1648 40.6646ZM77.7389 43.6155C77.7295 43.5856 77.713 43.5584 77.6907 43.5364C77.6685 43.5144 77.6412 43.4983 77.6113 43.4894C76.7056 43.2159 75.6085 42.564 74.6968 42.1522C73.7679 41.7328 72.8395 41.3104 71.9115 40.885C70.9649 40.4519 68.8345 40.5203 67.8134 40.692C67.7992 40.6943 67.7861 40.7009 67.7758 40.7109C67.7655 40.721 67.7586 40.7339 67.7559 40.748C67.7533 40.7621 67.755 40.7767 67.761 40.7898C67.7669 40.8029 67.7767 40.8138 67.7891 40.8211C69.3861 41.7906 71.0485 42.7099 72.5938 43.7386C72.7782 43.8612 72.9327 43.9179 73.0573 43.9088C74.4208 43.8105 75.7853 43.8136 77.1509 43.9179C77.2522 43.926 77.4386 43.9118 77.7101 43.8754C77.781 43.8652 77.8058 43.8262 77.7845 43.7584L77.7389 43.6155ZM26.0446 44.4574L26.2331 44.3783C26.3293 44.3388 26.3257 44.3155 26.2224 44.3084C24.4932 44.1914 22.7746 44.2385 21.0408 44.1854C20.6199 44.1717 19.9863 44.623 19.6808 44.7643C17.5697 45.7419 15.4626 46.728 13.3596 47.7228C13.2715 47.7654 13.1677 47.8003 13.0481 47.8277C12.8911 47.8631 12.7868 47.9021 12.7351 47.9447C12.4839 48.1463 12.5198 48.2476 12.843 48.2486C15.0291 48.2547 17.2263 48.243 19.4347 48.2136C19.7188 48.2106 19.8617 48.2288 20.1154 48.0693C22.0219 46.8749 23.9507 45.7191 25.9018 44.6017C25.918 44.5926 25.9352 44.5713 25.9535 44.5379C25.9747 44.5004 26.0051 44.4736 26.0446 44.4574Z" fill="#121B7A"/>
<path d="M58.1115 34.3617L61.7644 36.1881C61.8073 36.2097 61.8419 36.2447 61.8631 36.2878C61.8842 36.3309 61.8908 36.3797 61.8816 36.4268C61.8725 36.4739 61.8483 36.5168 61.8126 36.5488C61.7769 36.5809 61.7317 36.6005 61.6839 36.6045C61.1804 36.643 60.7377 36.5508 60.3558 36.3279C59.5231 35.8407 58.7056 35.3408 57.9033 34.8282C57.3866 34.5273 56.2835 34.0289 55.9871 33.5457C55.9466 33.4809 55.9613 33.4631 56.0312 33.4925L58.1115 34.3617Z" fill="white"/>
<path d="M41.2229 35.2886L38.9816 36.603C38.96 36.6155 38.936 36.6236 38.9113 36.6267C38.8865 36.6298 38.8613 36.628 38.8372 36.6212L37.9316 36.3507C37.8556 36.3274 37.8536 36.2986 37.9255 36.2641L41.6104 34.4544C42.1412 34.2224 42.6872 33.9889 43.2484 33.7538C43.4682 33.6617 43.6172 33.6125 43.6952 33.6065C43.9808 33.5842 43.9996 33.6465 43.7514 33.7934L41.2229 35.2886Z" fill="white"/>
<path d="M69.9482 39.9064C70.1204 39.9834 70.1492 40.0639 70.0348 40.148C69.9689 40.1966 69.8955 40.2189 69.8144 40.2149C68.9047 40.1754 67.9971 40.2083 67.0914 40.3136C67.0398 40.3197 66.9912 40.3096 66.9456 40.2832C65.1465 39.2257 63.323 38.1802 61.6287 36.9631C61.5991 36.9418 61.5772 36.9113 61.5665 36.8764C61.5557 36.8415 61.5567 36.804 61.5693 36.7697C61.5819 36.7354 61.6054 36.7062 61.6361 36.6865C61.6669 36.6668 61.7033 36.6578 61.7397 36.6607C63.241 36.7853 64.0706 37.2047 65.7269 37.9736C67.131 38.626 68.538 39.2702 69.9482 39.9064Z" fill="white"/>
<path d="M38.3555 36.9087C38.364 36.9127 38.3712 36.9189 38.3765 36.9267C38.3818 36.9344 38.3849 36.9433 38.3855 36.9525C38.3862 36.9617 38.3843 36.9709 38.38 36.9789C38.3758 36.987 38.3694 36.9937 38.3616 36.9984L32.9445 40.3049C32.8989 40.3322 32.8493 40.3413 32.7956 40.3322C31.899 40.1823 30.9949 40.1438 30.0832 40.2167C29.7854 40.241 29.7545 40.161 29.9905 39.9766C30.4327 39.6332 31.1362 39.4448 31.6195 39.1956C33.0438 38.4612 34.4929 37.7799 35.9668 37.1518C36.8238 36.7856 37.5638 36.5486 38.3555 36.9087Z" fill="white"/>
<path d="M45.8108 36.7549L45.9642 36.805C45.7667 36.9479 45.6036 37.1327 45.4749 37.3597C44.9593 38.2714 44.4518 39.1968 43.9524 40.1358C43.9412 40.157 43.9242 40.1745 43.9034 40.1861C43.8826 40.1977 43.859 40.2029 43.8354 40.2012C42.5418 40.111 41.2502 40.1105 39.9606 40.1996C39.8198 40.2088 39.796 40.1606 39.8892 40.0553C40.2083 39.6921 40.6884 39.4809 41.0151 39.1451C41.7911 38.3458 42.6046 37.5876 43.4555 36.8704C43.4928 36.8389 43.54 36.8212 43.5892 36.8202L45.8108 36.7549Z" fill="white"/>
<path d="M58.2449 36.9204C58.2377 36.9019 58.235 36.8818 58.237 36.862C58.239 36.8421 58.2457 36.823 58.2565 36.8063C58.2673 36.7895 58.282 36.7755 58.2993 36.7655C58.3165 36.7555 58.3359 36.7498 58.3559 36.7487C59.6657 36.6743 60.6321 37.0663 61.714 37.7668C62.9752 38.5858 64.2653 39.3517 65.5554 40.1221C65.5648 40.1281 65.5721 40.1368 65.5765 40.1471C65.5808 40.1574 65.5819 40.1687 65.5796 40.1796C65.5772 40.1905 65.5716 40.2005 65.5635 40.2081C65.5554 40.2158 65.5451 40.2207 65.5341 40.2224C65.0554 40.2786 64.4689 40.1631 64.127 40.1555C63.3997 40.1393 62.7037 40.1641 62.0392 40.23C61.8994 40.2442 61.7763 40.2052 61.6699 40.113C60.7998 39.3613 59.9382 38.6142 59.0852 37.8717C58.757 37.586 58.403 37.3338 58.2449 36.9204Z" fill="white"/>
<path d="M38.936 40.1634C38.7973 40.2971 38.6453 40.3113 38.4802 40.2059C38.4397 40.1796 38.3956 40.1654 38.348 40.1634C37.1232 40.0915 35.8985 40.1132 34.6738 40.2287C34.1713 40.2763 34.1384 40.1735 34.575 39.9203C36.286 38.9305 37.9651 37.9312 39.6122 36.9222C40.1046 36.6198 41.8307 36.8113 42.4644 36.8022C42.5161 36.8012 42.5226 36.8184 42.4841 36.8539C41.2888 37.9398 40.1061 39.043 38.936 40.1634Z" fill="white"/>
<path d="M49.5563 37.0499L49.5608 40.0737C49.5608 40.1122 49.5416 40.132 49.5031 40.133L44.9323 40.174C44.9172 40.174 44.9022 40.1701 44.8891 40.1626C44.8759 40.1551 44.8649 40.1444 44.8572 40.1314C44.8495 40.1185 44.8454 40.1039 44.8452 40.0889C44.8451 40.074 44.8489 40.0593 44.8564 40.0464L46.54 37.0514C46.5776 36.9847 46.6318 36.9289 46.6973 36.8894C46.7629 36.85 46.8375 36.8283 46.9138 36.8265L49.459 36.7703C49.5198 36.7693 49.5563 36.7987 49.5684 36.8584C49.5765 36.902 49.576 36.9405 49.5669 36.9739C49.5598 36.9992 49.5563 37.0246 49.5563 37.0499Z" fill="white"/>
<path d="M50.3721 40.0493L50.4101 36.8644C50.4105 36.8482 50.417 36.8327 50.4284 36.8214C50.4398 36.81 50.455 36.8036 50.4708 36.8036L52.9598 36.7854C53.0155 36.7854 53.0637 36.8041 53.1042 36.8416C53.2318 36.9591 53.3412 37.0939 53.4324 37.2458C54.0083 38.2122 54.4809 39.2242 55.1358 40.1375C55.1804 40.1993 55.1647 40.2317 55.0887 40.2347C54.9109 40.2423 54.7088 40.1603 54.5538 40.1603C53.1954 40.1643 51.8369 40.1633 50.4784 40.1572C50.4643 40.1572 50.4504 40.1544 50.4374 40.149C50.4244 40.1436 50.4126 40.1356 50.4027 40.1255C50.3928 40.1155 50.385 40.1036 50.3797 40.0905C50.3745 40.0774 50.3719 40.0634 50.3721 40.0493Z" fill="white"/>
<path d="M59.877 39.4052C60.1247 39.6255 60.342 39.7531 60.4833 40.0738C60.4881 40.0839 60.4903 40.0952 60.4895 40.1065C60.4887 40.1177 60.4851 40.1286 60.4788 40.1382C60.4726 40.1477 60.4641 40.1556 60.4539 40.1611C60.4438 40.1666 60.4325 40.1695 60.421 40.1695C59.2509 40.1523 58.0774 40.134 56.9002 40.1148C56.4641 40.1087 56.0067 40.3929 55.6998 39.8322C55.1609 38.8475 54.6488 37.8806 54.1636 36.9314C54.1533 36.9121 54.1487 36.8903 54.1502 36.8685C54.1517 36.8466 54.1593 36.8257 54.1721 36.808C54.1849 36.7902 54.2024 36.7765 54.2227 36.7682C54.2429 36.7599 54.2651 36.7575 54.2866 36.7612C55.0808 36.8919 55.8796 36.9253 56.6829 36.8615C56.8212 36.8508 56.9581 36.8944 57.0643 36.983C58.0004 37.7621 58.9379 38.5694 59.877 39.4052Z" fill="white"/>
<path d="M64.452 43.3953C64.5382 43.4683 64.6096 43.5604 64.6663 43.6719C64.6765 43.6922 64.6814 43.7149 64.6804 43.7376C64.6794 43.7604 64.6727 43.7824 64.6607 43.8017C64.6488 43.821 64.6321 43.8368 64.6124 43.8476C64.5926 43.8584 64.5703 43.8638 64.5478 43.8633L58.1065 43.8026C58.0919 43.8025 58.0775 43.799 58.0646 43.7924C58.0516 43.7858 58.0405 43.7763 58.032 43.7646C57.409 42.9035 56.8777 41.9882 56.4381 41.0188C56.3666 40.8608 56.2405 40.7377 56.122 40.6146C56.0896 40.5812 56.0967 40.5649 56.1433 40.566L61.1182 40.7027C61.2595 40.7057 61.3957 40.759 61.5026 40.8532C62.4812 41.7071 63.4644 42.5545 64.452 43.3953Z" fill="white"/>
<path d="M22.2931 43.6127L22.3022 43.5535C22.3022 43.5474 22.3052 43.5428 22.3113 43.5398C24.2097 42.62 26.1192 41.725 28.0399 40.8548C28.5616 40.6188 29.0499 40.5215 29.5048 40.563C30.3375 40.639 31.1094 40.6193 31.9421 40.557C32.0697 40.5478 32.171 40.5691 32.246 40.6208C32.2987 40.6583 32.2971 40.6937 32.2414 40.7271C30.5051 41.7706 28.7683 42.8129 27.031 43.8543C26.9945 43.8756 26.955 43.8862 26.9124 43.8862L22.173 43.8695C22.1641 43.8696 22.1553 43.867 22.1479 43.862C22.1405 43.857 22.1347 43.8498 22.1313 43.8414C22.1279 43.833 22.1271 43.8237 22.1288 43.8146C22.1305 43.8056 22.1348 43.7972 22.1411 43.7905L22.2688 43.6613C22.2829 43.6482 22.2911 43.632 22.2931 43.6127Z" fill="white"/>
<path d="M28.6491 43.555C28.6551 43.5429 28.6617 43.5307 28.6688 43.5186C28.6759 43.5084 28.685 43.5003 28.6962 43.4942C30.2349 42.5886 31.7641 41.6673 33.2836 40.7302C33.8231 40.3974 34.0829 40.6117 34.6193 40.6132C35.9007 40.6173 37.1635 40.6183 38.4075 40.6163C38.4276 40.6159 38.4473 40.6223 38.4633 40.6344C38.4794 40.6466 38.4909 40.6638 38.4959 40.6832C38.501 40.7027 38.4994 40.7233 38.4914 40.7418C38.4833 40.7602 38.4693 40.7754 38.4515 40.7849C38.1172 40.9703 37.8118 41.1952 37.5353 41.4596C36.7167 42.2416 35.8881 43.0136 35.0493 43.7754C35.0118 43.8098 34.9673 43.827 34.9156 43.827C32.9969 43.823 31.0823 43.8316 29.1718 43.8529C29.0006 43.8549 28.7924 43.8301 28.5473 43.7784C28.4672 43.7612 28.4591 43.7262 28.5229 43.6735L28.6141 43.5991C28.6293 43.5869 28.641 43.5722 28.6491 43.555Z" fill="white"/>
<path d="M36.0549 43.6976L39.4526 40.5765C39.4712 40.5593 39.4933 40.5464 39.5174 40.5385C39.5415 40.5307 39.5671 40.5281 39.5924 40.5309C40.9275 40.6585 42.2637 40.6823 43.6009 40.6023C43.6333 40.6003 43.6414 40.6135 43.6252 40.6418L41.9233 43.6292C41.8914 43.6852 41.8454 43.7317 41.7899 43.7643C41.7344 43.7968 41.6715 43.8142 41.6073 43.8146L36.2114 43.8465C36.1658 43.8465 36.1268 43.8308 36.0944 43.7994L36.0534 43.7584C36.0331 43.7371 36.0336 43.7168 36.0549 43.6976Z" fill="white"/>
<path d="M44.6087 40.5812C44.8579 40.5918 45.1299 40.6966 45.3639 40.6951C46.7345 40.689 48.1152 40.689 49.5061 40.6951C49.5154 40.6951 49.5246 40.697 49.5332 40.7006C49.5418 40.7042 49.5496 40.7095 49.5561 40.7161C49.5626 40.7228 49.5677 40.7307 49.5711 40.7393C49.5745 40.748 49.5762 40.7572 49.576 40.7665L49.5289 43.7555C49.5279 43.7929 49.5081 43.8117 49.4696 43.8117L42.9767 43.8223C42.951 43.8222 42.9258 43.8155 42.9035 43.8028C42.8812 43.7901 42.8626 43.7719 42.8496 43.75C42.8365 43.728 42.8295 43.7031 42.8291 43.6777C42.8288 43.6522 42.8351 43.6272 42.8475 43.605L44.4704 40.6602C44.5008 40.6055 44.5469 40.5791 44.6087 40.5812Z" fill="white"/>
<path d="M71.0119 43.4061C71.1415 43.477 71.214 43.5651 71.2292 43.6705C71.2332 43.6978 71.2312 43.7257 71.2232 43.7521C71.2153 43.7786 71.2016 43.803 71.1832 43.8235C71.1648 43.8441 71.1421 43.8604 71.1167 43.8713C71.0913 43.8821 71.0638 43.8872 71.0362 43.8862C69.6372 43.8417 68.256 43.83 66.8924 43.8513C66.473 43.8574 65.9519 43.8376 65.5856 43.5322C64.5149 42.6357 63.4654 41.7154 62.4372 40.7712C62.4149 40.751 62.3875 40.7353 62.3551 40.7241C62.3136 40.7099 62.2842 40.6947 62.267 40.6785C62.2576 40.6698 62.2511 40.6584 62.2485 40.6459C62.2458 40.6334 62.247 40.6204 62.252 40.6086C62.257 40.5968 62.2654 40.5869 62.2763 40.5801C62.2871 40.5733 62.2998 40.57 62.3126 40.5706C63.3793 40.636 64.7833 40.8122 65.7862 40.6208C66.3378 40.5144 67.672 41.3927 68.1764 41.7179C69.1023 42.3125 70.0475 42.8753 71.0119 43.4061Z" fill="white"/>
<path d="M55.1648 40.6649C55.3056 40.666 55.4125 40.7267 55.4854 40.8473C55.9119 41.5503 56.3197 42.2923 56.7087 43.0734C56.8059 43.2679 57.0217 43.4229 57.1159 43.6311C57.126 43.6535 57.1304 43.678 57.1286 43.7026C57.1268 43.7271 57.1189 43.7508 57.1056 43.7715C57.0923 43.7922 57.0741 43.8092 57.0525 43.8211C57.031 43.8329 57.0068 43.8391 56.9822 43.8392L50.5637 43.8483C50.5379 43.8483 50.5125 43.8433 50.4887 43.8334C50.4649 43.8236 50.4433 43.8091 50.4251 43.7909C50.4069 43.7727 50.3924 43.7511 50.3826 43.7273C50.3727 43.7036 50.3677 43.6781 50.3677 43.6523V40.7424C50.3677 40.6746 50.4016 40.6406 50.4695 40.6406L55.1648 40.6649Z" fill="white"/>
<path d="M77.7386 43.6157L77.7842 43.7585C77.8054 43.8264 77.7806 43.8654 77.7097 43.8755C77.4382 43.912 77.2518 43.9261 77.1505 43.918C75.785 43.8137 74.4204 43.8107 73.0569 43.9089C72.9323 43.918 72.7778 43.8613 72.5935 43.7387C71.0481 42.71 69.3858 41.7907 67.7887 40.8213C67.7764 40.8139 67.7666 40.803 67.7606 40.7899C67.7547 40.7768 67.7529 40.7623 67.7556 40.7481C67.7583 40.734 67.7652 40.7211 67.7755 40.7111C67.7858 40.701 67.7989 40.6944 67.813 40.6921C68.8342 40.5204 70.9645 40.452 71.9112 40.8851C72.8391 41.3105 73.7676 41.733 74.6965 42.1524C75.6082 42.5641 76.7053 43.216 77.6109 43.4895C77.6408 43.4984 77.6681 43.5145 77.6904 43.5365C77.7127 43.5585 77.7292 43.5857 77.7386 43.6157Z" fill="white"/>
<path d="M25.9535 44.5379C25.9353 44.5713 25.918 44.5926 25.9018 44.6017C23.9508 45.7191 22.022 46.8749 20.1155 48.0693C19.8617 48.2288 19.7189 48.2106 19.4347 48.2136C17.2264 48.243 15.0291 48.2547 12.843 48.2486C12.5199 48.2476 12.4839 48.1463 12.7351 47.9447C12.7868 47.9021 12.8911 47.8631 13.0482 47.8277C13.1677 47.8003 13.2715 47.7654 13.3597 47.7228C15.4627 46.728 17.5698 45.7419 19.6809 44.7643C19.9863 44.623 20.62 44.1717 21.0409 44.1854C22.7747 44.2385 24.4932 44.1914 26.2225 44.3084C26.3258 44.3155 26.3293 44.3388 26.2331 44.3783L26.0447 44.4574C26.0052 44.4736 25.9748 44.5004 25.9535 44.5379Z" fill="white"/>
<path d="M85.3898 47.156C85.9535 47.425 87.0096 47.6727 87.3971 48.1118C87.4113 48.1282 87.4205 48.1484 87.4236 48.1699C87.4267 48.1914 87.4236 48.2134 87.4147 48.2332C87.4057 48.253 87.3913 48.2698 87.3731 48.2817C87.3549 48.2936 87.3337 48.3 87.312 48.3002L84.2532 48.2972C82.446 48.2253 81.167 48.2116 80.4164 48.2562C80.1459 48.2724 79.956 48.246 79.8466 48.1771C77.9512 46.9868 76.0462 45.8117 74.1316 44.6518C73.9756 44.5566 73.8703 44.4746 73.8156 44.4057C73.7062 44.2659 73.7401 44.1975 73.9174 44.2005C74.9719 44.2178 76.0133 44.2365 77.0415 44.2568C77.9821 44.2765 78.7267 44.0106 79.7189 44.4968C81.592 45.4157 83.4823 46.302 85.3898 47.156Z" fill="white"/>
<path d="M85.6281 46.6748C86.5357 47.0982 87.4419 47.5293 88.3465 47.9679C88.8175 48.1959 89.4451 48.2733 89.9663 48.5529C90.0119 48.5773 90.0109 48.5995 89.9633 48.6198C89.6685 48.7495 89.4461 48.8128 89.2962 48.8097C87.7797 48.7723 86.2632 48.7702 84.7467 48.8037C84.4535 48.7642 84.0599 48.793 84.2529 48.2977L87.3117 48.3007C87.3334 48.3005 87.3546 48.294 87.3728 48.2822C87.391 48.2703 87.4054 48.2534 87.4144 48.2336C87.4233 48.2138 87.4264 48.1919 87.4233 48.1704C87.4202 48.1489 87.411 48.1287 87.3968 48.1123C87.0093 47.6731 85.9532 47.4255 85.3895 47.1565C85.3601 46.9539 85.4396 46.7933 85.6281 46.6748Z" fill="#121B7A"/>
<path d="M60.9938 55.336C61.5089 55.4865 62.0635 55.6399 62.5072 55.8739C64.3367 56.8343 65.0859 58.992 63.9629 60.779C62.8142 62.6054 60.389 63.2452 58.3559 63.4351C55.6572 63.6858 52.9859 63.5552 50.2887 63.4488C50.2659 63.448 50.2442 63.4384 50.2283 63.4219C50.2125 63.4055 50.2036 63.3835 50.2036 63.3607L50.2462 48.4131C50.246 48.3639 50.2645 48.3164 50.298 48.2801C50.3315 48.2437 50.3776 48.2212 50.427 48.217C53.3323 47.977 56.262 47.8083 59.181 48.1851C60.8373 48.3979 62.4632 48.9312 63.3536 50.4264C64.5373 52.4155 62.8917 54.4426 60.9938 54.9911C60.9563 55.0018 60.9232 55.0244 60.8997 55.0555C60.8762 55.0866 60.8635 55.1246 60.8635 55.1636C60.8635 55.2026 60.8762 55.2405 60.8997 55.2716C60.9232 55.3028 60.9563 55.3254 60.9938 55.336ZM54.5419 50.5799L54.5479 54.1508C54.5479 54.1677 54.5547 54.184 54.5666 54.1959C54.5786 54.2079 54.5948 54.2146 54.6118 54.2146L56.4413 54.2116C56.8365 54.2109 57.2278 54.1637 57.5927 54.0727C57.9577 53.9817 58.2892 53.8486 58.5684 53.6811C58.8475 53.5136 59.0687 53.3149 59.2195 53.0965C59.3702 52.878 59.4475 52.644 59.4469 52.4079V52.3046C59.4457 51.828 59.1278 51.3715 58.563 51.0356C57.9982 50.6996 57.2329 50.5117 56.4352 50.5131L54.6057 50.5161C54.5973 50.5161 54.589 50.5177 54.5813 50.521C54.5735 50.5242 54.5665 50.5289 54.5606 50.5348C54.5546 50.5407 54.5499 50.5477 54.5467 50.5555C54.5435 50.5632 54.5419 50.5715 54.5419 50.5799ZM54.5358 56.7249L54.551 61.0008C54.551 61.0062 54.552 61.0116 54.5541 61.0165C54.5562 61.0215 54.5592 61.026 54.563 61.0298C54.5668 61.0336 54.5713 61.0367 54.5763 61.0387C54.5813 61.0408 54.5866 61.0419 54.592 61.0419L56.3805 61.0358C57.3177 61.0324 58.2158 60.8148 58.8772 60.4306C59.5386 60.0465 59.9091 59.5274 59.9073 58.9875V58.7018C59.9064 58.4344 59.8141 58.1699 59.6356 57.9234C59.4571 57.6769 59.1959 57.4533 58.867 57.2654C58.5381 57.0774 58.1479 56.9288 57.7186 56.828C57.2894 56.7272 56.8295 56.6761 56.3653 56.6778L54.5768 56.6839C54.5659 56.6839 54.5555 56.6882 54.5478 56.6959C54.5401 56.7036 54.5358 56.714 54.5358 56.7249Z" fill="#C17B2D"/>
<path d="M37.2829 52.4669C37.2822 52.4539 37.277 52.4414 37.2682 52.4318C37.2594 52.4221 37.2474 52.4159 37.2345 52.4141C37.2215 52.4123 37.2083 52.415 37.1972 52.4219C37.1861 52.4288 37.1777 52.4393 37.1735 52.4517C36.903 53.1781 36.7313 54.0412 36.5718 54.6642C35.8515 57.4915 35.0852 60.2955 34.2727 63.0763C34.246 63.1686 34.1902 63.2499 34.1136 63.3081C34.037 63.3664 33.9436 63.3986 33.8472 63.3999L29.6199 63.4561C29.5914 63.4566 29.5633 63.4503 29.5378 63.4376C29.5124 63.4249 29.4905 63.4062 29.4741 63.3832C29.3616 63.2272 29.2725 63.0332 29.2066 62.8012C27.8168 57.9256 26.3747 53.095 24.8805 48.3095C24.8461 48.1991 24.8866 48.1434 25.0021 48.1423L29.395 48.0876C29.4659 48.0866 29.5095 48.1206 29.5257 48.1895C30.3098 51.4088 31.0402 54.6398 31.7169 57.8825C31.8308 58.4295 31.9144 58.9082 32.1484 59.4309C32.1557 59.4471 32.1669 59.4612 32.181 59.4719C32.1951 59.4827 32.2116 59.4897 32.2291 59.4924C32.2466 59.4951 32.2646 59.4934 32.2812 59.4875C32.2979 59.4815 32.3129 59.4715 32.3247 59.4583C32.3439 59.436 32.3576 59.3934 32.3657 59.3306C32.6423 57.4008 33.0145 55.6898 33.6102 53.6567C34.259 51.4412 34.4642 50.0433 34.996 48.273C35.0294 48.1626 35.1034 48.1074 35.2179 48.1074L39.6093 48.0968C39.6344 48.0967 39.6588 48.105 39.6787 48.1204C39.6985 48.1359 39.7126 48.1575 39.7187 48.1819C39.8494 48.6803 39.8874 49.2516 40.0089 49.6907C40.8892 52.8787 41.5852 56.1204 42.0968 59.4157C42.0996 59.4345 42.1083 59.452 42.1216 59.4655C42.135 59.4791 42.1523 59.488 42.1711 59.4911C42.1899 59.4941 42.2091 59.4911 42.2261 59.4825C42.2431 59.4738 42.2568 59.46 42.2654 59.4431C42.4022 59.1766 42.4959 58.8778 42.5465 58.5465C43.0343 55.316 43.9536 52.1372 44.7286 48.9614C44.7802 48.7532 44.917 48.0512 45.3182 48.0861C46.5854 48.1971 48.0001 48.1028 49.278 48.0816C49.3378 48.0806 49.3591 48.1084 49.3419 48.1651C49.0364 49.2303 48.7933 50.1193 48.3435 51.2938C48.0411 52.0855 47.8102 53.0626 47.5959 53.7205C46.7663 56.2825 45.7786 58.8596 45.1191 61.4656C44.957 62.1088 44.7139 62.7222 44.3897 63.3057C44.3653 63.3495 44.3249 63.3817 44.2773 63.3954C44.1729 63.4237 44.0757 63.4384 43.9855 63.4394C42.5835 63.4455 41.1997 63.448 39.8342 63.447C39.8012 63.4471 39.7692 63.4363 39.7431 63.4162C39.717 63.3961 39.6982 63.3679 39.6898 63.3361C39.0141 60.7063 38.3724 58.0603 37.7646 55.3981C37.5336 54.3861 37.3771 53.4637 37.2829 52.4669Z" fill="#C17B2D"/>
<path d="M66.195 63.4456C66.1616 63.4456 66.1295 63.4324 66.1058 63.4091C66.0822 63.3857 66.0689 63.354 66.0689 63.321L66.0674 48.2655C66.0674 48.1551 66.1226 48.0999 66.233 48.0999H70.2689C70.3479 48.0999 70.3874 48.1394 70.3874 48.2184V60.4445C70.3874 60.4654 70.3957 60.4855 70.4105 60.5004C70.4254 60.5152 70.4455 60.5235 70.4664 60.5235C72.8946 60.5205 75.3345 60.521 77.786 60.525C78.1005 60.5265 78.1431 60.7697 78.1172 61.0371C78.0524 61.7209 78.0651 62.4153 78.1552 63.1204C78.1606 63.1611 78.1572 63.2025 78.1453 63.2418C78.1333 63.2811 78.1131 63.3174 78.0859 63.3483C78.0587 63.3793 78.0252 63.4041 77.9877 63.4211C77.9501 63.4381 77.9093 63.447 77.868 63.4471L66.195 63.4456Z" fill="#C17B2D"/>
<path d="M88.0749 65.813H79.4224C79.4011 65.813 79.3808 65.8046 79.3658 65.7896C79.3508 65.7746 79.3424 65.7542 79.3424 65.733V64.7055C79.3424 64.6843 79.3508 64.6639 79.3658 64.6489C79.3808 64.6339 79.4011 64.6255 79.4224 64.6255H89.2624C89.2836 64.6255 89.3039 64.6339 89.3189 64.6489C89.3339 64.6639 89.3424 64.6843 89.3424 64.7055V69.608C89.3424 69.6292 89.3339 69.6496 89.3189 69.6646C89.3039 69.6796 89.2836 69.688 89.2624 69.688L14.3549 69.7055C14.3337 69.7055 14.3133 69.6971 14.2983 69.6821C14.2833 69.6671 14.2749 69.6467 14.2749 69.6255L14.2899 64.7055C14.2899 64.6843 14.2983 64.6639 14.3133 64.6489C14.3283 64.6339 14.3487 64.6255 14.3699 64.6255H24.8874C24.9086 64.6255 24.929 64.6339 24.944 64.6489C24.959 64.6639 24.9674 64.6843 24.9674 64.7055V65.733C24.9674 65.7542 24.959 65.7746 24.944 65.7896C24.929 65.8046 24.9086 65.813 24.8874 65.813H15.5149C15.4941 65.813 15.4741 65.8211 15.4592 65.8355C15.4443 65.85 15.4356 65.8697 15.4349 65.8905L15.3949 67.8555C15.3946 67.8662 15.3964 67.8769 15.4003 67.8869C15.4041 67.8969 15.41 67.906 15.4174 67.9137C15.4249 67.9214 15.4338 67.9275 15.4437 67.9317C15.4536 67.9358 15.4642 67.938 15.4749 67.938H88.0749C88.0961 67.938 88.1164 67.9296 88.1314 67.9146C88.1464 67.8996 88.1549 67.8792 88.1549 67.858V65.893C88.1549 65.8718 88.1464 65.8514 88.1314 65.8364C88.1164 65.8214 88.0961 65.813 88.0749 65.813Z" fill="#121B7A"/>
</svg>
