<svg width="100" height="100" viewBox="0 0 100 100" fill="none" xmlns="http://www.w3.org/2000/svg">
<rect width="100" height="100" fill="white"/>
<path d="M30.9796 47.4484C31.6984 47.5466 33.953 47.8537 34.3551 47.0991C34.5567 46.7212 34.335 46.4436 33.9572 46.3222C33.3014 46.1132 32.5509 45.9014 31.7058 45.6868C30.5574 45.3944 29.2022 44.6039 28.9584 43.217C28.8117 42.3821 28.8592 41.0764 29.5484 40.4431C30.8034 39.2874 32.07 39.0847 33.839 39.0151C35.1689 38.963 36.4907 39.0661 37.8044 39.3243C37.8368 39.3307 37.853 39.3504 37.853 39.3834V42.0422C37.853 42.0816 37.834 42.0971 37.796 42.0886C36.3299 41.7593 35.0222 41.4068 33.5012 41.7023C33.0231 41.7952 32.7455 42.3916 33.2162 42.7241C33.2789 42.7684 33.4537 42.8264 33.7408 42.8982C35.5658 43.3563 38.2203 43.6972 38.48 46.0784C38.6953 48.0532 37.5944 49.456 35.7367 49.913C34.2094 50.2887 32.7381 50.1811 31.0979 50.0407C30.3464 49.9767 29.6645 49.8722 29.0523 49.7272C29.0101 49.7174 28.989 49.6906 28.989 49.647L28.9827 47.002C28.9827 46.9912 28.9852 46.9807 28.9901 46.9711C28.9949 46.9616 29.0019 46.9533 29.0105 46.9469C29.0191 46.9406 29.0291 46.9363 29.0397 46.9345C29.0502 46.9327 29.0611 46.9334 29.0713 46.9365C29.7036 47.1297 30.3263 47.3587 30.9796 47.4484Z" fill="#00104A"/>
<path d="M58.1243 50.1557C55.6186 50.3309 53.0031 49.2152 52.2748 46.6082C51.6552 44.3906 52.1186 41.5893 54.0617 40.1264C55.8234 38.8007 58.1623 38.7669 60.2395 39.3981C60.2705 39.4073 60.2846 39.428 60.2818 39.4604L60.1266 41.1745C60.1224 41.2202 60.0995 41.2333 60.058 41.2136C59.7572 41.07 59.487 40.8937 59.1672 40.8283C57.7254 40.5317 56.3722 40.6404 55.303 41.7645C53.99 43.144 53.9298 45.6234 55.0317 47.1634C56.1717 48.7582 58.3871 48.7424 60.0865 48.0869C60.096 48.0831 60.1064 48.0815 60.1166 48.0824C60.1269 48.0833 60.1368 48.0866 60.1456 48.0921C60.1543 48.0975 60.1616 48.105 60.167 48.1138C60.1723 48.1226 60.1755 48.1326 60.1762 48.1428L60.3029 49.8285C60.3057 49.8637 60.2895 49.8844 60.2543 49.8907C59.4936 50.0209 58.7837 50.1092 58.1243 50.1557Z" fill="#00104A"/>
<path d="M25.8118 44.5913C27.2019 44.7391 28.1339 45.8389 28.1455 47.1942C28.1511 47.8366 27.9678 48.3967 27.5956 48.8745C26.842 49.8413 25.6166 49.9796 24.4017 49.9975C22.1626 50.0306 19.9239 50.0246 17.6856 49.9796C17.6553 49.9789 17.6402 49.9634 17.6402 49.9332L17.6392 39.1935C17.6392 39.1865 17.6406 39.1795 17.6433 39.1729C17.6461 39.1664 17.6501 39.1605 17.6552 39.1555C17.6603 39.1505 17.6664 39.1465 17.673 39.1438C17.6797 39.1411 17.6868 39.1397 17.694 39.1397C19.4272 39.139 21.1596 39.1439 22.8913 39.1545C25.0223 39.1661 28.1191 39.0342 27.9545 42.2006C27.9006 43.2318 27.1343 44.1037 26.1929 44.3665C26.0205 44.4143 25.8885 44.4608 25.797 44.5058C25.7884 44.5102 25.7814 44.5173 25.777 44.5259C25.7727 44.5346 25.7712 44.5445 25.7729 44.554C25.7745 44.5636 25.7792 44.5724 25.7862 44.5791C25.7932 44.5858 25.8022 44.5901 25.8118 44.5913ZM21.4991 41.2095L21.4843 43.253C21.4843 43.2611 21.4875 43.2689 21.4933 43.2746C21.499 43.2803 21.5068 43.2836 21.5149 43.2836L22.563 43.291C22.7504 43.2922 22.9362 43.2682 23.1096 43.2202C23.2831 43.1721 23.4409 43.1011 23.574 43.0111C23.7071 42.9212 23.8129 42.814 23.8854 42.6958C23.9579 42.5775 23.9956 42.4505 23.9964 42.322L23.9974 42.1742C23.9991 41.9149 23.8505 41.6651 23.5843 41.4799C23.3181 41.2946 22.9561 41.189 22.5778 41.1863L21.5297 41.1789C21.5216 41.1789 21.5138 41.1821 21.5081 41.1879C21.5023 41.1936 21.4991 41.2014 21.4991 41.2095ZM21.4917 45.6141L21.4833 47.7673C21.4833 47.7701 21.4838 47.7728 21.4849 47.7754C21.4859 47.7779 21.4875 47.7803 21.4894 47.7822C21.4914 47.7842 21.4937 47.7857 21.4963 47.7868C21.4988 47.7879 21.5016 47.7884 21.5044 47.7884L22.7245 47.7926C22.9012 47.7933 23.0763 47.7677 23.2397 47.7171C23.4032 47.6666 23.5518 47.5923 23.6771 47.4982C23.8023 47.4042 23.9018 47.2925 23.9698 47.1693C24.0378 47.0461 24.073 46.914 24.0734 46.7804V46.6179C24.0742 46.3485 23.9335 46.0896 23.6821 45.8982C23.4308 45.7069 23.0894 45.5986 22.733 45.5972L21.5128 45.593C21.5072 45.593 21.5018 45.5952 21.4979 45.5992C21.4939 45.6031 21.4917 45.6085 21.4917 45.6141Z" fill="#00104A"/>
<path d="M39.4472 49.9986C39.4218 49.9979 39.4092 49.9849 39.4092 49.9596V39.2991C39.4092 39.1978 39.4595 39.1471 39.5601 39.1471C41.9255 39.1323 44.3151 39.049 46.6425 39.259C48.5395 39.4307 49.7523 40.3937 50.2807 42.1479C50.7557 43.7227 50.8232 45.9761 50.0855 47.4961C49.1482 49.4255 47.4963 49.9965 45.4054 50.0134C43.4485 50.0289 41.4625 50.024 39.4472 49.9986ZM43.4929 41.7753V47.2448C43.4929 47.2684 43.5022 47.2909 43.5188 47.3075C43.5355 47.3242 43.558 47.3335 43.5815 47.3335H44.6771C45.1121 47.3335 45.5293 47.1317 45.8369 46.7724C46.1446 46.4131 46.3174 45.9259 46.3174 45.4178V43.6024C46.3174 43.3508 46.2749 43.1017 46.1925 42.8692C46.1101 42.6368 45.9893 42.4256 45.8369 42.2477C45.6846 42.0698 45.5038 41.9287 45.3048 41.8325C45.1058 41.7362 44.8925 41.6866 44.6771 41.6866H43.5815C43.558 41.6866 43.5355 41.696 43.5188 41.7126C43.5022 41.7292 43.4929 41.7518 43.4929 41.7753Z" fill="#00104A"/>
<path d="M63.5212 39.1438H61.4989C61.4674 39.1438 61.4419 39.1693 61.4419 39.2008V49.9541C61.4419 49.9856 61.4674 50.0111 61.4989 50.0111H63.5212C63.5527 50.0111 63.5782 49.9856 63.5782 49.9541V39.2008C63.5782 39.1693 63.5527 39.1438 63.5212 39.1438Z" fill="#00104A"/>
<path d="M69.7022 40.8666V49.9702C69.7022 49.9814 69.6978 49.9921 69.6898 50.0001C69.6819 50.008 69.6712 50.0124 69.66 50.0124H67.5807C67.5695 50.0124 67.5587 50.008 67.5508 50.0001C67.5429 49.9921 67.5385 49.9814 67.5385 49.9702V40.8708C67.5385 40.8596 67.534 40.8489 67.5261 40.841C67.5182 40.833 67.5074 40.8286 67.4962 40.8286L64.5198 40.8328C64.5086 40.8328 64.4978 40.8284 64.4899 40.8205C64.482 40.8125 64.4775 40.8018 64.4775 40.7906V39.1831C64.4775 39.1719 64.482 39.1612 64.4899 39.1532C64.4978 39.1453 64.5086 39.1409 64.5198 39.1409H72.6681C72.6793 39.1409 72.6901 39.1453 72.698 39.1532C72.7059 39.1612 72.7104 39.1719 72.7104 39.1831V40.798C72.7104 40.8092 72.7059 40.8199 72.698 40.8278C72.6901 40.8358 72.6793 40.8402 72.6681 40.8402L69.7444 40.8244C69.7332 40.8244 69.7225 40.8288 69.7146 40.8367C69.7067 40.8447 69.7022 40.8554 69.7022 40.8666Z" fill="#00104A"/>
<path d="M78.0267 43.6478C78.0287 43.6516 78.0317 43.6547 78.0353 43.6569C78.0389 43.6591 78.0431 43.6603 78.0473 43.6603C78.0516 43.6603 78.0557 43.6591 78.0594 43.6569C78.063 43.6547 78.0659 43.6516 78.0679 43.6478L80.5409 39.1989C80.5508 39.1813 80.5651 39.1666 80.5824 39.1564C80.5996 39.1462 80.6192 39.1409 80.6391 39.1409H82.787C82.8292 39.1409 82.8394 39.1588 82.8176 39.1947C81.7143 41.0671 80.6123 42.9392 79.5118 44.811C79.2648 45.2321 78.9725 45.6279 78.9862 46.106C79.0235 47.3923 79.0312 48.6779 79.0094 49.9628C79.0087 49.9959 78.9918 50.0124 78.9587 50.0124H76.9406C76.9358 50.0124 76.931 50.0114 76.9265 50.0095C76.922 50.0076 76.918 50.0048 76.9145 50.0013C76.9111 49.9978 76.9084 49.9936 76.9065 49.989C76.9047 49.9843 76.9037 49.9794 76.9037 49.9744L76.9069 45.8253C76.9069 45.7148 76.8787 45.6117 76.8224 45.516L73.0839 39.2337C73.0494 39.176 73.0659 39.1472 73.1335 39.1472L75.4841 39.1377C75.502 39.1377 75.5195 39.1425 75.5349 39.1516C75.5503 39.1607 75.563 39.1738 75.5717 39.1894L78.0267 43.6478Z" fill="#00104A"/>
<path d="M11.0507 47.554C14.9951 50.0196 19.2128 51.7538 23.6501 53.1576C27.6462 54.4221 31.8491 55.2612 36.0004 55.8153C40.0693 56.3579 43.4933 56.703 47.1221 56.7568C50.2421 56.8022 53.9099 56.7969 57.5113 56.532C59.5399 56.3821 62.1878 56.0753 65.4549 55.6116C67.5792 55.309 70.0938 54.8007 72.9985 54.0864C76.698 53.1756 80.3204 51.8815 83.7856 50.3046C84.8706 49.8106 86.1731 49.1087 87.3806 48.5335C87.8059 48.3309 88.2598 47.9635 88.5342 47.7862C89.3547 47.255 90.166 46.71 90.9682 46.1513C90.9858 46.1386 90.9963 46.1432 90.9999 46.165C91.0006 46.172 90.9988 46.1812 90.9946 46.1924C90.9918 46.1995 90.9865 46.2062 90.9787 46.2125C90.0126 47.0583 89.0141 47.864 87.9833 48.6296C87.8893 48.6992 87.7542 48.7203 87.636 48.8143C86.5372 49.6808 85.3287 50.5864 84.0779 51.3559C82.4961 52.3298 81.277 53.0271 80.4207 53.4479C78.6918 54.2986 76.9682 55.2243 75.1854 55.9483C71.8227 57.3131 68.9686 58.3443 65.8486 59.1137C61.9918 60.0651 58.3574 60.678 54.9454 60.9524C52.1715 61.1755 49.1564 61.1931 45.8998 61.0052C41.3116 60.7402 36.6168 59.8315 32.1911 58.6156C30.4221 58.13 28.6626 57.4545 26.9305 56.8138C20.3168 54.3686 14.3431 50.844 9.00938 46.2399C8.99531 46.2273 8.99707 46.2181 9.01466 46.2125C9.04421 46.2019 9.06814 46.203 9.08643 46.2157C9.73767 46.6685 10.4069 47.1508 11.0507 47.554Z" fill="#FB7215"/>
</svg>
