<svg width="100" height="100" viewBox="0 0 100 100" fill="none" xmlns="http://www.w3.org/2000/svg">
<rect width="100" height="100" fill="white"/>
<path d="M35.8925 63.5298C46.0851 63.7633 55.0084 68.6677 64.2647 72.5053C70.3162 75.0175 79.7297 75.7812 81.9479 67.5757C81.9624 67.5147 81.9967 67.4603 82.0452 67.4209C82.0938 67.3815 82.154 67.3593 82.2164 67.3579C82.2788 67.3564 82.34 67.3758 82.3903 67.4129C82.4406 67.45 82.4773 67.5028 82.4946 67.5631C84.6123 74.2411 79.7925 80.5341 73.3011 81.746C65.8106 83.1473 54.9833 78.4638 48.3977 74.7208C40.7249 70.3656 31.2926 69.0653 23.1926 74.2411C22.4427 74.7166 21.0036 75.9306 18.8755 77.8831C18.7163 78.0262 18.5445 78.0451 18.3602 77.9399C17.9454 77.6959 17.8889 77.3655 18.1905 76.9489C19.0074 75.8254 20.5219 74.4368 21.5462 73.1933C29.2922 63.8012 37.1221 54.4785 45.0357 45.2252C45.7144 44.4341 46.8413 43.2495 48.4165 41.6715C52.3629 37.7139 58.2447 39.8726 63.1713 37.3857C64.6229 36.6535 65.0754 35.5742 65.1885 33.8763C65.5781 28.2145 66.7469 22.0414 70.9886 18.027C71.0052 18.0107 71.0273 18.0011 71.0506 18.0001C71.0738 17.9991 71.0966 18.0068 71.1146 18.0217C71.1325 18.0366 71.1444 18.0576 71.1478 18.0807C71.1512 18.1039 71.146 18.1275 71.1331 18.1469C69.5873 20.7054 69.0259 23.5205 69.449 26.5923C70.222 32.2036 72.2266 38.2378 66.5081 41.6463C60.9719 44.9601 54.8073 40.8952 49.3968 44.3225C49.2881 44.3918 49.2029 44.4927 49.1525 44.6118C49.1022 44.7308 49.0891 44.8625 49.1151 44.9892C49.141 45.1159 49.2046 45.2317 49.2976 45.3212C49.3906 45.4107 49.5085 45.4696 49.6356 45.4903C56.5417 46.639 65.0188 51.2404 71.7615 48.9555C75.7896 47.5921 74.7779 44.8654 74.4134 41.5516C74.3799 41.2697 74.4553 41.236 74.6396 41.4506C75.1507 42.0524 75.5047 42.734 75.7016 43.4957C78.3283 53.6831 69.0029 57.6786 60.8023 55.1665C56.3092 53.7905 48.272 50.4704 43.848 52.7616C43.7466 52.8118 43.6642 52.8937 43.6131 52.9951C43.5621 53.0965 43.5452 53.2117 43.5651 53.3235C43.5849 53.4354 43.6404 53.5377 43.7232 53.615C43.806 53.6924 43.9115 53.7407 44.024 53.7526C51.7847 54.6804 59.4701 58.3666 66.7029 61.2322C72.9115 63.6939 80.7728 61.0681 77.7816 52.8184C77.702 52.587 77.7795 52.4986 78.0141 52.5533C78.5713 52.6838 78.9462 52.9404 79.139 53.3234C81.9416 58.9599 79.8176 65.4233 73.9358 67.5505C68.4562 69.5324 59.6711 66.9698 54.5308 64.6217C49.1078 62.1474 41.3973 59.7174 35.6726 62.5325C35.5658 62.5833 35.4794 62.669 35.4275 62.7756C35.3755 62.8822 35.3612 63.0033 35.3867 63.1192C35.4123 63.2351 35.4762 63.3388 35.5681 63.4133C35.66 63.4879 35.7744 63.529 35.8925 63.5298Z" fill="#E01F28"/>
</svg>
