<svg width="100" height="100" viewBox="0 0 100 100" fill="none" xmlns="http://www.w3.org/2000/svg">
<rect width="100" height="100" fill="white"/>
<path d="M50.8084 96.9213C51.0054 96.5977 50.746 96.5279 50.0303 96.7118" stroke="#9999C4" stroke-width="0.260256"/>
<path d="M50.8084 96.9213H50.0303V96.7118C50.746 96.5279 51.0054 96.5977 50.8084 96.9213Z" fill="#323389"/>
<path d="M50.5177 16C50.5169 16.0226 50.5264 16.0447 50.5464 16.0664C50.562 16.0837 50.5598 16.0972 50.5399 16.1067C50.5268 16.1136 50.5121 16.1219 50.4956 16.1314" stroke="#2D77BD" stroke-width="0.260256"/>
<path d="M50.4957 16.1316L50.4905 30.028C50.4905 30.0722 50.4797 30.1134 50.458 30.1516L50.3877 30.2739" stroke="#2863AD" stroke-width="0.260256"/>
<path d="M50.3876 30.2736L47.9165 30.2515" stroke="#9FB8DB" stroke-width="0.260256"/>
<path d="M47.9166 30.2516C44.3675 28.1808 40.861 26.1486 37.397 24.1551C37.3649 24.1368 37.3016 24.0857 37.207 24.0015C37.1073 23.9139 37.014 23.9139 36.9272 24.0015" stroke="#2D77BD" stroke-width="0.260256"/>
<path d="M36.9272 24.0017C36.8986 24.0147 36.8843 23.9713 36.8843 23.8716" stroke="#507EC0" stroke-width="0.260256"/>
<path d="M64.2558 23.9065C64.2357 23.9319 64.2243 23.9538 64.2217 23.9722" stroke="#3F85C6" stroke-width="0.260256"/>
<path d="M64.2218 23.9718C64.142 23.9267 64.0778 23.918 64.0292 23.9458C61.9619 25.1239 58.3179 27.2289 53.0972 30.2609" stroke="#176AB2" stroke-width="0.260256"/>
<path d="M53.0972 30.2607L50.5532 30.2751" stroke="#8EBFE1" stroke-width="0.260256"/>
<path d="M50.5529 30.2752C50.5546 25.6938 50.5546 21.1103 50.5529 16.5246C50.5529 16.4036 50.5151 16.2578 50.4956 16.1316" stroke="#176AB2" stroke-width="0.260256"/>
<path d="M36.9276 24.0017L36.9263 39.5885" stroke="#3F85C6" stroke-width="0.260256"/>
<path d="M36.9263 39.5883C36.9323 39.4911 36.9297 39.5015 36.9185 39.6195" stroke="#3A7DB5" stroke-width="0.260256"/>
<path d="M36.9194 39.6195L36.8301 39.6182" stroke="#3F85C6" stroke-width="0.260256"/>
<path d="M36.8297 39.6182L23.23 31.8118" stroke="#4168B3" stroke-width="0.260256"/>
<path d="M47.9165 30.2515L41.7835 30.2762C41.7538 30.2762 41.7251 30.2865 41.7023 30.3053C41.6795 30.3241 41.6641 30.3501 41.6586 30.379L40.1934 37.7338" stroke="#8EBFE1" stroke-width="0.260256"/>
<path d="M40.1938 37.7341L36.9263 39.5885" stroke="#1876B1" stroke-width="0.260256"/>
<path d="M66.0211 38.5383L65.4551 40.364" stroke="#90A2CE" stroke-width="0.260256"/>
<path d="M65.4555 40.364C65.0894 41.1743 64.6747 41.8935 64.2114 42.5215" stroke="#8EBFE1" stroke-width="0.260256"/>
<path d="M64.2114 42.5215C62.6031 44.5163 60.5314 45.7734 58.1813 46.6778C58.1128 46.7047 58.1141 46.7264 58.1852 46.7428C61.0688 47.4286 63.1964 48.7767 63.4515 51.961C63.5287 52.9326 63.4428 53.9008 63.1938 54.8654" stroke="#89B6D0" stroke-width="0.260256"/>
<path d="M63.194 54.8655L62.9077 56.0379" stroke="#9FB8DB" stroke-width="0.260256"/>
<path d="M62.9074 56.0378C61.5241 61.0205 58.0458 63.9757 52.8589 64.6146" stroke="#88ABD1" stroke-width="0.260256"/>
<path d="M52.8589 64.6145L50.5518 64.7668" stroke="#8EBFE1" stroke-width="0.260256"/>
<path d="M50.5515 64.7668L50.4058 64.7694" stroke="#88ABD1" stroke-width="0.260256"/>
<path d="M50.406 64.7695L47.9414 64.7708" stroke="#9FB8DB" stroke-width="0.260256"/>
<path d="M47.9415 64.7709L36.917 64.7683" stroke="#8EBFE1" stroke-width="0.260256"/>
<path d="M36.9168 64.7681L34.8699 64.7642C34.8231 64.7642 34.8044 64.7408 34.8139 64.694L36.6227 55.6318" stroke="#B0C6E4" stroke-width="0.260256"/>
<path d="M36.623 55.6318L36.6907 55.2974" stroke="#90A2CE" stroke-width="0.260256"/>
<path d="M36.6904 55.2974L37.0066 53.7046" stroke="#8EBFE1" stroke-width="0.260256"/>
<path d="M37.0068 53.7046L39.5222 41.1433" stroke="#90A2CE" stroke-width="0.260256"/>
<path d="M39.522 41.1435L40.1934 37.7341" stroke="#89B6D0" stroke-width="0.260256"/>
<path d="M50.553 30.275C50.5295 30.2889 50.4744 30.2884 50.3877 30.2737" stroke="#88ABD1" stroke-width="0.260256"/>
<path d="M64.2153 31.7754C60.9647 29.7741 56.7616 30.3154 53.0972 30.2607" stroke="#88ABD1" stroke-width="0.260256"/>
<path d="M77.8488 31.8132C77.7092 31.8306 77.6137 31.854 77.5626 31.8835C73.7541 34.087 69.9071 36.3053 66.0215 38.5383" stroke="#4168B3" stroke-width="0.260256"/>
<path d="M66.0215 38.5384C66.5759 36.0139 66.3976 33.4139 64.2153 31.7756" stroke="#B0C6E4" stroke-width="0.260256"/>
<path d="M64.2153 31.7755L64.2218 23.9717" stroke="#3971B6" stroke-width="0.260256"/>
<path d="M36.8299 39.6182L23.3851 47.4857C23.3737 47.4922 23.3643 47.5016 23.3577 47.5129C23.3511 47.5242 23.3477 47.537 23.3477 47.5501C23.3477 47.5632 23.3511 47.5761 23.3577 47.5874C23.3643 47.5987 23.3737 47.6081 23.3851 47.6145L36.6907 55.2973" stroke="#1F61B0" stroke-width="0.260256"/>
<path d="M36.6229 55.6319C36.5449 55.6241 36.4941 55.6111 36.4225 55.6514C32.0468 58.1785 27.6471 60.7217 23.2236 63.2808" stroke="#4168B3" stroke-width="0.260256"/>
<path d="M39.522 41.1436L36.9702 39.7043" stroke="#1A599F" stroke-width="0.260256"/>
<path d="M36.971 39.705C36.9474 39.7147 36.9298 39.6862 36.9185 39.6196" stroke="#1876B1" stroke-width="0.260256"/>
<path d="M36.9701 39.7043C36.9424 39.7642 36.9285 39.8119 36.9285 39.8475C36.9241 44.3881 36.9228 48.9291 36.9246 53.4706C36.9246 53.514 36.9519 53.5921 37.0066 53.7048" stroke="#1F61B0" stroke-width="0.260256"/>
<path d="M77.8485 47.4261C77.7539 47.4382 77.6854 47.4317 77.6429 47.4066C73.5933 45.0599 69.5307 42.7124 65.4551 40.364" stroke="#1F61B0" stroke-width="0.260256"/>
<path d="M64.2101 54.5127L64.0903 55.3741" stroke="#1262A1" stroke-width="0.260256"/>
<path d="M64.0904 55.3743L63.1938 54.8655" stroke="#296FAC" stroke-width="0.260256"/>
<path d="M77.8489 47.5598L64.2505 55.3246" stroke="#1F61B0" stroke-width="0.260256"/>
<path d="M64.2503 55.3247L64.21 54.5127" stroke="#176AB2" stroke-width="0.260256"/>
<path d="M64.21 54.5128L64.2113 42.5215" stroke="#1876B1" stroke-width="0.260256"/>
<path d="M50.5416 79.0587C50.5181 79.0084 50.5112 78.9619 50.5207 78.9194" stroke="#2D77BD" stroke-width="0.260256"/>
<path d="M50.5205 78.9196L50.5517 64.7668" stroke="#176AB2" stroke-width="0.260256"/>
<path d="M64.2622 55.4199L64.2192 71.1589" stroke="#3971B6" stroke-width="0.260256"/>
<path d="M64.1527 71.2016L52.8589 64.6145" stroke="#176AB2" stroke-width="0.260256"/>
<path d="M62.9077 56.0379C63.3267 55.8861 63.721 55.6649 64.0906 55.3743" stroke="#2863AD" stroke-width="0.260256"/>
<path d="M50.4058 64.7695C50.5012 64.8936 50.532 64.9821 50.4982 65.035C50.4851 69.6624 50.4925 74.2906 50.5203 78.9197" stroke="#2863AD" stroke-width="0.260256"/>
<path d="M47.9411 64.7708L37.0468 71.0429C37.013 71.062 36.9861 71.0551 36.9661 71.0221L36.9219 70.9453" stroke="#2D77BD" stroke-width="0.260256"/>
<path d="M36.917 64.7683L36.9222 70.9455" stroke="#3F85C6" stroke-width="0.260256"/>
<path d="M36.922 70.9453L36.9116 71.1861" stroke="#507EC0" stroke-width="0.260256"/>
<path d="M77.8484 63.2055L64.2617 55.4199" stroke="#4168B3" stroke-width="0.260256"/>
<path d="M64.2619 55.4197C64.2046 55.3798 64.2007 55.3481 64.2502 55.3247" stroke="#194DA0" stroke-width="0.260256"/>
<path d="M45.2635 44.4797L43.8906 51.3635" stroke="#90A2CE" stroke-width="0.260256"/>
<path d="M43.8909 51.3638L42.4204 58.742" stroke="#89B6D0" stroke-width="0.260256"/>
<path d="M42.4201 58.7422L42.3433 59.0818C42.3321 59.1321 42.3525 59.1577 42.4045 59.1586L43.0369 59.169" stroke="#8EBFE1" stroke-width="0.260256"/>
<path d="M43.0371 59.1687L50.5845 59.17" stroke="#89B6D0" stroke-width="0.260256"/>
<path d="M50.5846 59.17C51.4851 59.1952 52.0945 59.1757 52.4129 59.1115C55.3083 58.5337 56.5081 56.1055 56.5367 53.3819C56.5744 49.953 53.1521 49.4416 50.5664 49.5132" stroke="#9FB8DB" stroke-width="0.260256"/>
<path d="M50.5663 49.5134L49.2586 49.5108C49.2494 49.5108 49.2403 49.5087 49.232 49.5048C49.2237 49.5009 49.2164 49.4952 49.2106 49.4881C49.2047 49.481 49.2005 49.4727 49.1982 49.4638C49.196 49.4549 49.1957 49.4456 49.1974 49.4366L49.4498 48.1575" stroke="#89B6D0" stroke-width="0.260256"/>
<path d="M49.4497 48.1572L49.6813 47.0459" stroke="#90A2CE" stroke-width="0.260256"/>
<path d="M49.6812 47.046L50.0039 45.4337C50.0125 45.3877 50.0399 45.36 50.0858 45.3504L50.5595 45.2542" stroke="#89B6D0" stroke-width="0.260256"/>
<path d="M50.5596 45.2543C54.1797 44.6947 57.9235 43.0994 59.122 39.3231C59.9106 36.835 58.6405 35.8408 56.2475 35.8408C54.3745 35.8417 52.4785 35.8443 50.5596 35.8486" stroke="#9FB8DB" stroke-width="0.260256"/>
<path d="M50.5594 35.8484L47.0524 35.8497C47.0099 35.8497 46.9843 35.8705 46.9757 35.9122L45.2632 44.4798" stroke="#89B6D0" stroke-width="0.260256"/>
<path d="M50.5596 35.8484V45.2541" stroke="#296FAC" stroke-width="0.260256"/>
<path d="M49.681 47.0459L45.2632 44.4797" stroke="#1A599F" stroke-width="0.260256"/>
<path d="M49.4497 48.1575L43.8906 51.3638" stroke="#1A599F" stroke-width="0.260256"/>
<path d="M50.5664 49.5132L50.5846 59.17" stroke="#296FAC" stroke-width="0.260256"/>
<path d="M43.0372 59.169C43.0823 59.0476 43.0593 58.9673 42.9682 58.9283C42.7587 58.8398 42.6429 58.7526 42.4204 58.7422" stroke="#1876B1" stroke-width="0.260256"/>
<path d="M50.5178 16C50.5169 16.0226 50.5265 16.0447 50.5464 16.0664C50.5621 16.0837 50.5599 16.0972 50.5399 16.1067C50.5269 16.1136 50.5122 16.1219 50.4957 16.1314L50.4905 30.0278C50.4905 30.0721 50.4796 30.1133 50.458 30.1514L50.3877 30.2738L47.9165 30.2516C44.3675 28.1809 40.861 26.1487 37.397 24.1551C37.3649 24.1369 37.3016 24.0857 37.207 24.0016C37.1072 23.914 37.014 23.914 36.9272 24.0016C36.8986 24.0146 36.8843 23.9712 36.8843 23.8715L50.5178 16Z" fill="#3E70B7"/>
<path d="M50.5177 16L64.2554 23.9066C64.2354 23.9317 64.2241 23.9534 64.2215 23.9717C64.1417 23.9265 64.0775 23.9179 64.0289 23.9456C61.9616 25.1237 58.3176 27.2288 53.0969 30.2607L50.5529 30.2751C50.5546 25.6937 50.5546 21.1101 50.5529 16.5244C50.5529 16.4034 50.5151 16.2577 50.4956 16.1314C50.5121 16.1219 50.5268 16.1136 50.5399 16.1067C50.5598 16.0972 50.562 16.0837 50.5464 16.0664C50.5264 16.0447 50.5169 16.0226 50.5177 16Z" fill="#1C7EC2"/>
<path d="M50.4957 16.1316C50.5152 16.2578 50.553 16.4036 50.553 16.5246C50.5547 21.1103 50.5547 25.6938 50.553 30.2752C50.5295 30.2891 50.4744 30.2887 50.3877 30.2739L50.458 30.1516C50.4797 30.1134 50.4905 30.0722 50.4905 30.028L50.4957 16.1316Z" fill="#1156A2"/>
<path d="M36.8842 23.8716C36.8842 23.9713 36.8986 24.0147 36.9272 24.0017L36.9259 39.5885C36.932 39.4913 36.9294 39.5017 36.9181 39.6197L36.8296 39.6184L23.2299 31.812C23.2212 31.7808 23.2295 31.7578 23.2546 31.743C27.7987 29.1214 32.3419 26.4976 36.8842 23.8716Z" fill="#618CC9"/>
<path d="M64.2557 23.9065C68.7807 26.5143 73.3026 29.1268 77.8215 31.7441C77.8458 31.758 77.8549 31.781 77.8489 31.8131C77.7092 31.8304 77.6138 31.8539 77.5626 31.8833C73.7542 34.0869 69.9071 36.3051 66.0215 38.5381C66.5759 36.0136 66.3976 33.4137 64.2153 31.7753L64.2218 23.9716C64.2244 23.9533 64.2357 23.9317 64.2557 23.9065Z" fill="#618CC9"/>
<path d="M47.9169 30.2516L41.784 30.2763C41.7543 30.2763 41.7256 30.2866 41.7028 30.3054C41.6799 30.3242 41.6645 30.3502 41.659 30.3791L40.1938 37.7339L36.9263 39.5883L36.9276 24.0015C37.0143 23.9139 37.1076 23.9139 37.2073 24.0015C37.3019 24.0857 37.3652 24.1368 37.3973 24.1551C40.8613 26.1486 44.3679 28.1808 47.9169 30.2516Z" fill="#1C7EC2"/>
<path d="M64.2218 23.9718L64.2153 31.7756C60.9647 29.7742 56.7616 30.3156 53.0972 30.2609C58.3179 27.2289 61.9619 25.1239 64.0292 23.9458C64.0778 23.918 64.142 23.9267 64.2218 23.9718Z" fill="#1156A2"/>
<path d="M47.9166 30.2516L50.3877 30.2737C50.4744 30.2885 50.5295 30.2889 50.5529 30.275L53.097 30.2607C56.7614 30.3154 60.9645 29.7741 64.2151 31.7754C66.3974 33.4137 66.5756 36.0137 66.0213 38.5382L65.4552 40.3639C65.0891 41.1742 64.6745 41.8933 64.2112 42.5214C62.6028 44.5163 60.5312 45.7733 58.1811 46.6777C58.1125 46.7046 58.1138 46.7263 58.185 46.7428C61.0686 47.4285 63.1962 48.7767 63.4513 51.9609C63.5285 52.9325 63.4426 53.9007 63.1936 54.8654L62.9073 56.0378C61.5241 61.0204 58.0457 63.9756 52.8588 64.6146L50.5517 64.7668L50.4059 64.7694L47.9413 64.7707L36.9168 64.7681L34.8699 64.7642C34.8231 64.7642 34.8044 64.7408 34.8139 64.694L36.6227 55.6318L36.6904 55.2974L37.0066 53.7046L39.522 41.1434L40.1934 37.734L41.6587 30.3792C41.6641 30.3503 41.6796 30.3242 41.7024 30.3054C41.7252 30.2867 41.7539 30.2764 41.7836 30.2763L47.9166 30.2516ZM45.2632 44.4798L43.8904 51.3636L42.4199 58.7419L42.3432 59.0815C42.3319 59.1318 42.3523 59.1574 42.4043 59.1583L43.0367 59.1687L50.5842 59.17C51.4847 59.1952 52.0941 59.1757 52.4125 59.1115C55.3078 58.5337 56.5076 56.1055 56.5362 53.3819C56.574 49.953 53.1516 49.4416 50.566 49.5132L49.2582 49.5106C49.249 49.5106 49.2399 49.5085 49.2316 49.5046C49.2233 49.5007 49.216 49.495 49.2102 49.4879C49.2043 49.4808 49.2001 49.4725 49.1979 49.4636C49.1956 49.4547 49.1953 49.4454 49.197 49.4364L49.4495 48.1573L49.6811 47.046L50.0038 45.4337C50.0125 45.3877 50.0398 45.3599 50.0858 45.3504L50.5595 45.2541C54.1796 44.6946 57.9234 43.0992 59.1219 39.3229C59.9105 36.8348 58.6404 35.8406 56.2474 35.8406C54.3744 35.8415 52.4784 35.8441 50.5595 35.8484L47.0525 35.8497C47.01 35.8497 46.9844 35.8706 46.9757 35.9122L45.2632 44.4798Z" fill="white"/>
<path d="M23.2301 31.8118L36.8298 39.6182L23.385 47.4857C23.3736 47.4922 23.3642 47.5016 23.3576 47.5129C23.3511 47.5242 23.3476 47.537 23.3476 47.5501C23.3476 47.5632 23.3511 47.576 23.3576 47.5874C23.3642 47.5987 23.3736 47.608 23.385 47.6145L36.6906 55.2973L36.6229 55.6317C36.5449 55.6239 36.4941 55.6109 36.4225 55.6513C32.0468 58.1783 27.6471 60.7215 23.2236 63.2807C23.2254 63.2781 23.2275 63.275 23.2301 63.2716C23.2336 63.2655 23.2353 63.2585 23.2353 63.2507L23.2301 31.8118Z" fill="#21449D"/>
<path d="M77.8485 31.8132V47.426C77.7539 47.4382 77.6854 47.4316 77.6429 47.4065C73.5933 45.0598 69.5307 42.7123 65.4551 40.364L66.0211 38.5383C69.9068 36.3053 73.7538 34.087 77.5622 31.8835C77.6134 31.854 77.7088 31.8306 77.8485 31.8132Z" fill="#21449D"/>
<path d="M50.5599 35.8484V45.2541L50.0862 45.3504C50.0402 45.3599 50.0129 45.3877 50.0042 45.4336L49.6815 47.0459L45.2637 44.4798L46.9762 35.9122C46.9848 35.8705 47.0104 35.8497 47.0529 35.8497L50.5599 35.8484Z" fill="#136DA0"/>
<path d="M50.5596 35.8486C52.4785 35.8443 54.3745 35.8417 56.2475 35.8408C58.6405 35.8408 59.9106 36.835 59.122 39.3231C57.9235 43.0994 54.1797 44.6947 50.5596 45.2543V35.8486Z" fill="#3E70B7"/>
<path d="M40.1938 37.7341L39.5223 41.1435L36.9705 39.7043C36.9471 39.7138 36.9297 39.6856 36.9185 39.6197C36.9297 39.5017 36.9323 39.4913 36.9263 39.5885L40.1938 37.7341Z" fill="#136DA0"/>
<path d="M36.8299 39.6182L36.9184 39.6195C36.9297 39.6854 36.947 39.7136 36.9704 39.704C36.9427 39.7639 36.9288 39.8116 36.9288 39.8472C36.9245 44.3878 36.9232 48.9288 36.9249 53.4703C36.9249 53.5137 36.9522 53.5918 37.0069 53.7045L36.6907 55.2973L23.3851 47.6145C23.3737 47.6081 23.3643 47.5987 23.3577 47.5874C23.3511 47.5761 23.3477 47.5632 23.3477 47.5501C23.3477 47.537 23.3511 47.5242 23.3577 47.5129C23.3643 47.5016 23.3737 47.4922 23.3851 47.4857L36.8299 39.6182Z" fill="#1C7EC2"/>
<path d="M36.9701 39.7043L39.5219 41.1436L37.0066 53.7048C36.9519 53.5921 36.9246 53.514 36.9246 53.4706C36.9228 48.9291 36.9241 44.3881 36.9285 39.8475C36.9285 39.8119 36.9424 39.7642 36.9701 39.7043Z" fill="#21449D"/>
<path d="M65.4553 40.364C69.5309 42.7124 73.5935 45.0599 77.6431 47.4066C77.6856 47.4317 77.7541 47.4382 77.8487 47.4261V47.5601L64.2503 55.3249L64.21 54.5129L64.2113 42.5215C64.6745 41.8935 65.0892 41.1743 65.4553 40.364Z" fill="#1C7EC2"/>
<path d="M64.2114 42.5215L64.2101 54.5128L64.0904 55.3742L63.1938 54.8654C63.4428 53.9008 63.5287 52.9326 63.4515 51.961C63.1964 48.7767 61.0688 47.4286 58.1852 46.7428C58.1141 46.7264 58.1128 46.7047 58.1813 46.6778C60.5314 45.7734 62.6031 44.5163 64.2114 42.5215Z" fill="#136DA0"/>
<path d="M45.2635 44.4797L49.6813 47.0459L49.4497 48.1572L43.8906 51.3635L45.2635 44.4797Z" fill="#21449D"/>
<path d="M77.8486 47.5598V63.2051L64.2619 55.4196C64.2046 55.3797 64.2007 55.348 64.2502 55.3246L77.8486 47.5598Z" fill="#21449D"/>
<path d="M49.4499 48.1575L49.1975 49.4366C49.1958 49.4456 49.1961 49.4549 49.1983 49.4638C49.2006 49.4727 49.2048 49.481 49.2106 49.4881C49.2165 49.4952 49.2238 49.5009 49.2321 49.5048C49.2404 49.5087 49.2495 49.5108 49.2586 49.5108L50.5664 49.5134L50.5847 59.1702L43.0372 59.1689C43.0823 59.0475 43.0593 58.9672 42.9682 58.9282C42.7587 58.8397 42.6429 58.7525 42.4204 58.7421L43.8909 51.3638L49.4499 48.1575Z" fill="#136DA0"/>
<path d="M50.5664 49.5132C53.1521 49.4416 56.5744 49.953 56.5367 53.3819C56.5081 56.1055 55.3083 58.5337 52.4129 59.1115C52.0945 59.1757 51.4851 59.1952 50.5846 59.17L50.5664 49.5132Z" fill="#3E70B7"/>
<path d="M64.21 54.5127L64.2503 55.3247C64.2009 55.3481 64.2048 55.3798 64.262 55.4197L64.2191 71.1587C64.1957 71.1891 64.1735 71.2034 64.1527 71.2016L52.8589 64.6145C58.0458 63.9756 61.5241 61.0204 62.9074 56.0378C63.3264 55.886 63.7207 55.6648 64.0903 55.3741L64.21 54.5127Z" fill="#1156A2"/>
<path d="M63.194 54.8655L64.0906 55.3743C63.721 55.6649 63.3267 55.8861 62.9077 56.0379L63.194 54.8655Z" fill="#3E70B7"/>
<path d="M64.2622 55.4199L77.8489 63.2055C77.8506 63.2185 77.851 63.2315 77.8502 63.2445C77.8484 63.2758 77.8341 63.2987 77.8072 63.3135L64.2192 71.1589L64.2622 55.4199Z" fill="#618CC9"/>
<path d="M36.6229 55.6319L34.8141 64.694C34.8046 64.7409 34.8233 64.7643 34.8701 64.7643L36.917 64.7682L36.9222 70.9454L36.9118 71.1861L23.2236 63.2808C27.6471 60.7217 32.0468 58.1785 36.4225 55.6514C36.4941 55.6111 36.5449 55.6241 36.6229 55.6319Z" fill="#618CC9"/>
<path d="M42.4201 58.7422C42.6426 58.7526 42.7585 58.8398 42.968 58.9283C43.059 58.9673 43.082 59.0476 43.0369 59.169L42.4045 59.1586C42.3525 59.1577 42.3321 59.1321 42.3433 59.0818L42.4201 58.7422Z" fill="#1C7EC2"/>
<path d="M52.8591 64.6145L64.153 71.2016L50.5416 79.0587C50.5181 79.0084 50.5112 78.962 50.5207 78.9195L50.552 64.7668L52.8591 64.6145Z" fill="#1C7EC2"/>
<path d="M36.917 64.7683L47.9415 64.7709L37.0471 71.0431C37.0133 71.0622 36.9864 71.0552 36.9664 71.0223L36.9222 70.9455L36.917 64.7683Z" fill="#1C7EC2"/>
<path d="M47.9413 64.7708L50.4059 64.7695C50.5013 64.8936 50.5321 64.9821 50.4983 65.035C50.4853 69.6624 50.4927 74.2906 50.5204 78.9197C50.5109 78.9622 50.5178 79.0086 50.5412 79.0589L36.9116 71.1862L36.922 70.9454L36.9663 71.0222C36.9862 71.0552 37.0131 71.0621 37.047 71.043L47.9413 64.7708Z" fill="#3E70B7"/>
<path d="M50.4058 64.7694L50.5515 64.7668L50.5203 78.9196C50.4925 74.2905 50.4851 69.6623 50.4982 65.0349C50.532 64.982 50.5012 64.8935 50.4058 64.7694Z" fill="#1156A2"/>
<path d="M41.209 81.6876C31.9243 79.7688 22.2276 82.1202 14.0276 86.5725C14.0108 86.5817 14.0017 86.5768 14.0002 86.5581C13.9991 86.5474 14.0032 86.539 14.0123 86.5329C22.044 81.2801 31.8763 78.547 41.4345 80.4033C42.9099 80.6897 44.3808 81.13 45.8372 81.5116C56.023 84.1807 67.0848 84.6644 76.9728 80.5541C78.3962 79.9625 79.9197 79.1751 81.5431 78.192C81.5513 78.1874 81.5586 78.1885 81.5652 78.1951L81.5828 78.2126C81.5843 78.2141 81.584 78.2156 81.582 78.2172C80.6095 78.9063 79.9186 79.3762 79.5093 79.6271C69.7181 85.6204 57.9197 85.7445 47.0362 83.1905C45.0854 82.7327 43.1697 82.0921 41.209 81.6876Z" fill="#618CC9"/>
<path d="M45.0885 85.3936C35.9395 84.184 26.3211 85.7836 18.3801 90.3661C17.7444 90.7328 17.7291 90.7087 18.3344 90.2938C26.2412 84.8703 36.2502 82.8936 45.7756 84.1626C46.3352 84.2373 47.3146 84.4508 48.7136 84.8033C49.7551 85.0658 51.6275 85.6 54.3306 86.4059C56.1445 86.9468 57.8929 87.3434 59.5758 87.5957C60.6034 87.7496 61.7246 87.8029 62.801 87.8715C65.2111 88.0254 67.6928 87.8677 70.0853 87.566C72.0894 87.3131 74.0326 86.8675 75.9841 86.3617C76.4691 86.2358 76.9559 86.0918 77.4444 85.9298C79.5163 85.2412 80.6779 84.801 82.5891 83.9273C83.7294 83.4062 84.8499 82.7679 85.9734 82.1814C85.9805 82.1778 85.9859 82.1766 85.9894 82.1776C85.9955 82.1791 85.9991 82.1842 86.0001 82.1928C86.0001 82.1943 85.9996 82.1954 85.9986 82.1959C84.6483 83.1023 83.6514 83.7366 83.008 84.0987C77.2265 87.3558 70.6498 89.0819 64.0052 89.1276C63.0775 89.1344 62.0423 89.0689 61.0597 89.024C58.5741 88.9105 56.212 88.3118 53.8286 87.6498C50.9592 86.8523 47.99 85.7775 45.0885 85.3936Z" fill="#21449D"/>
</svg>
