<svg width="100" height="100" viewBox="0 0 100 100" fill="none" xmlns="http://www.w3.org/2000/svg">
<rect width="100" height="100" fill="white"/>
<path d="M54.9679 29.9052C56.986 25.0691 55.1242 18.6792 49.7066 17.0036C49.6943 16.9997 49.6811 16.999 49.6684 17.0014C49.6557 17.0039 49.6438 17.0095 49.6337 17.0177C49.6237 17.0259 49.6159 17.0364 49.6109 17.0484C49.606 17.0604 49.6041 17.0734 49.6055 17.0863C49.8353 19.1596 49.8698 21.5661 49.0125 23.4601C47.9919 25.7104 46.0083 27.2458 44.7648 29.3443C41.517 34.8309 44.5281 39.5888 48.4884 43.4894C48.5558 43.5568 48.5949 43.543 48.6056 43.448C48.9642 39.9888 49.394 37.3409 51.596 34.6493C52.805 33.1714 54.2761 31.5647 54.9679 29.9052Z" stroke="#DB8C8F" stroke-width="0.459703"/>
<path d="M53.9845 36.4075C51.5963 40.0345 51.9641 44.758 54.0856 48.3391C54.6311 49.26 55.9681 51.0858 58.0965 53.8164" stroke="#94C1DA" stroke-width="0.459703"/>
<path d="M58.0957 53.8164C60.9528 58.0618 62.6881 62.8243 59.8426 67.7132" stroke="#8EC8E7" stroke-width="0.459703"/>
<path d="M59.843 67.7134C58.0777 70.2479 55.6803 71.7795 52.6509 72.3081C49.1449 72.9195 46.0373 72.2116 43.3281 70.1843" stroke="#94C1DA" stroke-width="0.459703"/>
<path d="M43.3278 70.1843C39.1077 66.5918 38.5445 60.8225 41.3487 56.2461C42.7026 54.0373 44.5276 52.2973 45.9894 50.2539" stroke="#8EC8E7" stroke-width="0.459703"/>
<path d="M45.9898 50.2542C46.5997 49.2796 46.8556 48.2553 46.7575 47.1811C46.4312 43.6276 43.7235 42.5588 40.7722 41.7543C40.6941 41.7328 40.6297 41.7535 40.5791 41.8163C38.3909 44.4964 35.6097 47.273 33.4399 50.291" stroke="#94C1DA" stroke-width="0.459703"/>
<path d="M33.4399 50.2908C28.4061 56.5611 27.6522 64.8266 31.1804 72.014" stroke="#8EC8E7" stroke-width="0.459703"/>
<path d="M31.1807 72.0142C32.0189 73.6844 33.0578 75.1823 34.2975 76.5078" stroke="#94C1DA" stroke-width="0.459703"/>
<path d="M34.2969 76.5075C43.0703 85.8371 59.7346 85.4303 67.6782 75.2019" stroke="#86B5D4" stroke-width="0.459703"/>
<path d="M67.6787 75.2019C69.5712 72.7012 70.8108 69.9981 71.3977 67.0928" stroke="#94C1DA" stroke-width="0.459703"/>
<path d="M71.3977 67.0931C72.4413 62.4471 71.885 58.0715 69.729 53.9663" stroke="#8EC8E7" stroke-width="0.459703"/>
<path d="M69.7289 53.966C67.7912 50.7343 65.3203 48.0197 63.2195 44.9581C61.3638 42.2505 60.7593 39.3344 61.4059 36.21" stroke="#94C1DA" stroke-width="0.459703"/>
<path d="M61.4058 36.2099C61.7169 34.4769 62.1881 32.8886 62.8194 31.4451C62.8256 31.4305 62.828 31.4144 62.8262 31.3986C62.8244 31.3828 62.8185 31.3678 62.8091 31.3551C62.7998 31.3425 62.7872 31.3327 62.7729 31.3267C62.7585 31.3207 62.7428 31.3187 62.7274 31.321C59.2751 31.806 55.9353 33.4264 53.9839 36.4076" stroke="#86B5D4" stroke-width="0.459703"/>
<path d="M61.4058 36.21C59.5287 36.2529 57.6638 36.3678 55.8112 36.5547C55.2136 36.6145 54.6275 36.4168 53.9839 36.4076" stroke="#1B77AF" stroke-width="0.459703"/>
<path d="M69.7285 53.9659C68.9056 54.028 67.6506 54.0441 66.8944 53.7545C65.9313 53.3844 64.2948 53.0626 63.6144 53.1592C62.2292 53.3522 60.8409 53.4204 59.4495 53.3637C58.9094 53.3408 58.5278 53.5453 58.0957 53.8165" stroke="#228AC1" stroke-width="0.459703"/>
<path d="M71.3974 67.0927C71.2518 66.8981 71.0542 66.8544 70.8044 66.9617C70.3861 67.1433 70.0367 67.3042 69.5632 67.318C67.9787 67.3609 66.402 67.4927 64.8328 67.7133C64.8022 67.7179 64.7555 67.7401 64.6926 67.78C64.6283 67.8198 64.5586 67.8351 64.4835 67.826C63.6215 67.7064 62.8538 67.9317 62.0356 67.934C61.6509 67.934 61.2648 67.96 60.8771 68.0121C60.804 68.021 60.7306 68.0065 60.6679 67.9708C60.3829 67.8068 60.1079 67.721 59.8428 67.7133" stroke="#228AC1" stroke-width="0.459703"/>
<path d="M67.6782 75.202C65.428 75.0503 63.1639 75.3698 61.0171 75.3308C57.0851 75.2587 53.1593 75.4089 49.2395 75.7813C48.7109 75.8318 48.4741 76.2226 47.8489 76.2065C44.6693 76.1237 41.4874 76.1237 38.3032 76.2065C37.7745 76.2203 37.1539 76.4984 36.4782 76.3237C36.4061 76.3038 36.3334 76.2977 36.2598 76.3053L34.2969 76.5076" stroke="#1B77AF" stroke-width="0.459703"/>
<path d="M43.3283 70.1841C41.9247 71.0529 40.2414 71.3962 38.2785 71.2138C38.2701 71.2134 38.2618 71.2152 38.2544 71.2189C38.2469 71.2227 38.2406 71.2283 38.2359 71.2352C38.2313 71.2422 38.2286 71.2502 38.228 71.2586C38.2274 71.2669 38.2289 71.2752 38.2325 71.2828C38.257 71.3318 38.2938 71.3502 38.3428 71.3379C38.4133 71.3195 38.4823 71.3218 38.5497 71.3448C38.6018 71.3632 38.6003 71.3732 38.5451 71.3747C36.0581 71.4621 33.5964 71.331 31.1807 72.0137" stroke="#228AC1" stroke-width="0.459703"/>
<path d="M45.9898 50.2539C45.8657 49.8011 45.7669 49.4908 45.2336 49.4494C44.1089 49.3667 42.988 49.405 41.8709 49.5643C41.3124 49.6448 40.7515 49.5092 40.1631 49.5735C38.3473 49.7758 36.736 49.4816 34.9271 50.0608C34.4375 50.2171 33.9042 50.0355 33.4399 50.2907" stroke="#228AC1" stroke-width="0.459703"/>
<path d="M49.7066 17.0036C55.1242 18.6792 56.986 25.0691 54.9679 29.9052C54.2761 31.5647 52.805 33.1714 51.596 34.6493C49.394 37.3409 48.9642 39.9888 48.6056 43.448C48.5949 43.543 48.5558 43.5568 48.4884 43.4894C44.5281 39.5888 41.517 34.8309 44.7648 29.3443C46.0083 27.2458 47.9919 25.7104 49.0125 23.4601C49.8698 21.5661 49.8353 19.1596 49.6055 17.0863C49.6041 17.0734 49.606 17.0604 49.6109 17.0484C49.6159 17.0364 49.6237 17.0259 49.6337 17.0177C49.6438 17.0095 49.6557 17.0039 49.6684 17.0014C49.6811 16.999 49.6943 16.9997 49.7066 17.0036Z" fill="#B7181E"/>
<path fill-rule="evenodd" clip-rule="evenodd" d="M62.8194 31.4451C62.1881 32.8886 61.7169 34.4769 61.4058 36.2099L61.4059 36.21C60.7593 39.3344 61.3638 42.2505 63.2195 44.9581C64.0729 46.2019 64.9874 47.3883 65.9025 48.5755C67.2399 50.3106 68.5784 52.0471 69.7289 53.966L69.7288 53.966C71.8847 58.0711 72.4409 62.4466 71.3974 67.0925L71.3976 67.0927C70.8107 69.9981 69.5711 72.7011 67.6786 75.2019C67.5178 75.191 67.3569 75.1826 67.196 75.1763C67.3568 75.1826 67.5176 75.1911 67.6784 75.2019C59.7347 85.4303 43.0704 85.8371 34.297 76.5074H34.2973C33.0576 75.182 32.0187 73.6841 31.1805 72.0139C31.21 72.0055 31.2395 71.9972 31.2691 71.9891C31.2395 71.9972 31.21 72.0055 31.1804 72.0138C27.6522 64.8264 28.4061 56.5609 33.4399 50.2906L33.4399 50.2905C34.7841 48.421 36.3628 46.6441 37.8898 44.9254C38.8278 43.8697 39.7463 42.836 40.5789 41.8162C40.6295 41.7534 40.6938 41.7327 40.772 41.7541C43.7233 42.5586 46.4309 43.6274 46.7573 47.1809C46.8554 48.255 46.5995 49.2793 45.9898 50.2538L45.9897 50.2538L45.9896 50.254C45.3805 51.1054 44.7084 51.9041 44.0335 52.706L44.0335 52.706L44.0335 52.706C43.0888 53.8287 42.1388 54.9576 41.3491 56.246C38.5449 60.8223 39.108 66.5916 43.3281 70.1842C43.1797 70.2761 43.0282 70.3621 42.8736 70.4422C43.0282 70.3621 43.1797 70.2761 43.3281 70.1842C46.0373 72.2115 49.1449 72.9195 52.6509 72.3081C55.6804 71.7794 58.0777 70.2478 59.843 67.7133C59.8747 67.7142 59.9066 67.7162 59.9386 67.7194C59.9065 67.7162 59.8746 67.7142 59.8428 67.7133C62.6883 62.8243 60.953 58.0618 58.0959 53.8164L58.0959 53.8164C55.9676 51.0859 54.6307 49.2601 54.0852 48.3392C51.9636 44.7581 51.5959 40.0347 53.984 36.4076C54.0014 36.4079 54.0187 36.4083 54.0359 36.4088C54.0186 36.4083 54.0013 36.4079 53.9839 36.4076C55.9354 33.4264 59.2751 31.806 62.7275 31.321C62.7429 31.3187 62.7586 31.3207 62.7729 31.3267C62.7873 31.3327 62.7998 31.3425 62.8092 31.3551C62.8185 31.3678 62.8244 31.3828 62.8262 31.3986C62.828 31.4144 62.8257 31.4305 62.8194 31.4451ZM61.0175 75.3306C60.7718 75.3261 60.526 75.3225 60.2803 75.3197C60.5259 75.3225 60.7716 75.3261 61.0173 75.3306C61.0173 75.3306 61.0174 75.3306 61.0175 75.3306ZM47.8493 76.2063C47.4519 76.196 47.0544 76.1869 46.6568 76.1792C47.0543 76.1869 47.4517 76.196 47.8491 76.2063C47.8491 76.2063 47.8492 76.2063 47.8493 76.2063ZM36.7439 76.3708C36.6565 76.3619 36.568 76.3467 36.4786 76.3236C36.4425 76.3136 36.4063 76.3071 36.3699 76.304C36.4063 76.3071 36.4424 76.3136 36.4783 76.3236C36.5678 76.3467 36.6564 76.3619 36.7439 76.3708ZM70.8044 66.9617C70.9137 66.9147 71.013 66.8967 71.1023 66.9075C71.013 66.8967 70.9138 66.9148 70.8046 66.9617L70.7494 66.9857C70.3551 67.1572 70.0159 67.3048 69.5634 67.318C67.9789 67.3609 66.4022 67.4927 64.833 67.7133C64.8024 67.7179 64.7557 67.7401 64.6928 67.78C64.6285 67.8198 64.5588 67.8351 64.4837 67.826C63.9592 67.7532 63.4696 67.8082 62.9823 67.8628C62.6687 67.898 62.3561 67.9331 62.0357 67.934C61.6511 67.934 61.265 67.96 60.8773 68.0121C60.8463 68.0159 60.8152 68.0154 60.7849 68.0109C60.8151 68.0154 60.8461 68.0158 60.8771 68.0121C61.2648 67.96 61.6509 67.9339 62.0356 67.9339C62.3559 67.933 62.6685 67.898 62.9821 67.8628C63.4694 67.8081 63.959 67.7532 64.4835 67.8259C64.5586 67.8351 64.6283 67.8198 64.6926 67.7799C64.7555 67.7401 64.8022 67.7179 64.8329 67.7133C66.402 67.4926 67.9787 67.3608 69.5632 67.3179C70.0157 67.3047 70.3549 67.1572 70.7492 66.9856L70.8044 66.9617ZM38.2357 71.2354C38.2403 71.2284 38.2467 71.2228 38.2542 71.219C38.2616 71.2153 38.2699 71.2135 38.2783 71.2139C38.4009 71.2253 38.5225 71.2347 38.643 71.242C38.5225 71.2347 38.401 71.2254 38.2783 71.214C38.27 71.2136 38.2616 71.2153 38.2542 71.2191C38.2467 71.2228 38.2404 71.2285 38.2357 71.2354C38.2311 71.2423 38.2284 71.2504 38.2278 71.2587L38.643 71.242L38.2323 71.2829C38.2287 71.2754 38.2271 71.267 38.2277 71.2587C38.2283 71.2504 38.2311 71.2423 38.2357 71.2354ZM36.9735 71.4107L36.9734 71.4107L37.1694 71.4074L36.9735 71.4107ZM38.5449 71.3749L38.5449 71.3748L38.5546 71.3745L38.5449 71.3749ZM55.8114 36.5547C55.7708 36.5588 55.7303 36.5617 55.6898 36.5635C55.7303 36.5617 55.7707 36.5588 55.8112 36.5547C56.0511 36.5305 56.2912 36.5075 56.5314 36.4858C56.2912 36.5075 56.0512 36.5305 55.8114 36.5547Z" fill="url(#paint0_linear_39_19)"/>
<defs>
<linearGradient id="paint0_linear_39_19" x1="50.454" y1="31.3201" x2="50.454" y2="83.2031" gradientUnits="userSpaceOnUse">
<stop stop-color="#0D6BA9"/>
<stop offset="0.3125" stop-color="#1278B5"/>
<stop offset="0.526042" stop-color="#33AFEF"/>
<stop offset="0.786458" stop-color="#1073B1"/>
<stop offset="1" stop-color="#0D6BA9"/>
</linearGradient>
</defs>
</svg>
