<svg width="100" height="100" viewBox="0 0 100 100" fill="none" xmlns="http://www.w3.org/2000/svg">
<g clip-path="url(#clip0_39_21)">
<rect width="100" height="100" fill="white"/>
<g clip-path="url(#clip1_39_21)">
<rect width="107" height="120" transform="translate(-4 -10)" fill="white"/>
<circle cx="74.5" cy="73.5" r="115.5" fill="url(#paint0_radial_39_21)"/>
<path d="M19.5 55C11.5 74.6 -0.166667 80.8333 -5 81.5L-7.5 73C16.5 68.5 10.5 53 31 27C47.4 6.2 93.1667 10.3333 114 15L113 21.5C51 -0.500024 29.5 30.5 19.5 55Z" fill="url(#paint1_linear_39_21)"/>
<path d="M57 19.4999C36.5 63.5 7.83333 64.3333 -6.5 60.9999L-5 65C23.5 66.5 43 62.5 57 26.5C68.2 -2.3 94 -3.16667 105.5 0V-3.50007C92.6667 -5.16674 65 -2.90007 57 19.4999Z" fill="url(#paint2_linear_39_21)"/>
<path d="M113 17.5C108.667 23.8333 89.8 35.7 49 32.5C12.945 29.6722 -6.242 48.5021 -13.3227 61.6615L-15.5 66.5C-14.9767 65.0269 -14.2545 63.3933 -13.3227 61.6615L-6.5 46.5C-2 40.6667 14.8 28.9 46 28.5C85 28 105 23 108.5 2.5L113 17.5Z" fill="url(#paint3_linear_39_21)"/>
</g>
</g>
<defs>
<radialGradient id="paint0_radial_39_21" cx="0" cy="0" r="1" gradientUnits="userSpaceOnUse" gradientTransform="translate(74.5 73.5) rotate(90) scale(115.5)">
<stop offset="0.0546976" stop-color="#88CDFF"/>
<stop offset="0.0989583" stop-color="#5DB0EE"/>
<stop offset="0.185119" stop-color="#0877CC"/>
<stop offset="0.332553" stop-color="#0C6AB9"/>
<stop offset="0.485657" stop-color="#115AA2"/>
<stop offset="0.757841" stop-color="#2C7C96"/>
<stop offset="0.927957" stop-color="#5F9F8D"/>
</radialGradient>
<linearGradient id="paint1_linear_39_21" x1="30" y1="73.5" x2="65" y2="-9" gradientUnits="userSpaceOnUse">
<stop stop-color="white"/>
<stop offset="1" stop-color="#5F92BE"/>
</linearGradient>
<linearGradient id="paint2_linear_39_21" x1="96.5" y1="-11.5" x2="-1" y2="69" gradientUnits="userSpaceOnUse">
<stop stop-color="#669BBA"/>
<stop offset="1" stop-color="white"/>
</linearGradient>
<linearGradient id="paint3_linear_39_21" x1="101" y1="19" x2="-1.99999" y2="45.5" gradientUnits="userSpaceOnUse">
<stop stop-color="#3173B3"/>
<stop offset="1" stop-color="white"/>
</linearGradient>
<clipPath id="clip0_39_21">
<rect width="100" height="100" fill="white"/>
</clipPath>
<clipPath id="clip1_39_21">
<rect width="107" height="120" fill="white" transform="translate(-4 -10)"/>
</clipPath>
</defs>
</svg>
