<svg width="100" height="100" viewBox="0 0 100 100" fill="none" xmlns="http://www.w3.org/2000/svg">
<rect width="100" height="100" fill="#E6FFE4"/>
<path fill-rule="evenodd" clip-rule="evenodd" d="M50 90C72.0914 90 90 72.0914 90 50C90 27.9086 72.0914 10 50 10C27.9086 10 10 27.9086 10 50C10 72.0914 27.9086 90 50 90ZM26.1076 43.8255C28.5237 39.6197 35.9868 32.3893 46.5103 37.1141C56.7116 41.9463 54.8324 61.5436 49.7318 64.4966C44.6311 67.4496 40.8727 66.6443 36.8459 64.4966C32.819 62.349 20.7385 54.0269 26.1076 43.8255Z" fill="url(#paint0_linear_39_22)"/>
<path d="M39.5298 42.7519C32.4426 40.3895 27.9862 45.347 26.6439 48.121C24.4963 54.564 36.8453 62.6176 41.6775 59.6646C46.5097 56.7116 44.6305 44.3626 39.5298 42.7519Z" fill="url(#paint1_radial_39_22)"/>
<g filter="url(#filter0_f_39_22)">
<path d="M73.6241 51.3423C75.3422 74.537 61.4541 78.009 54.2952 76.8457C88.1208 88.3893 92.4161 34.4295 74.9664 19.1275C71.4765 14.2953 47.5839 2.7517 28.7919 21.8121C13.7584 37.0604 22.17 52.5056 28.255 58.3222C23.1543 49.7316 22.8859 39.7987 35.2348 30.9396C47.5838 22.0806 71.4765 22.349 73.6241 51.3423Z" fill="url(#paint2_linear_39_22)"/>
</g>
<defs>
<filter id="filter0_f_39_22" x="19.8098" y="10.6899" width="65.7398" height="68.2984" filterUnits="userSpaceOnUse" color-interpolation-filters="sRGB">
<feFlood flood-opacity="0" result="BackgroundImageFix"/>
<feBlend mode="normal" in="SourceGraphic" in2="BackgroundImageFix" result="shape"/>
<feGaussianBlur stdDeviation="0.268456" result="effect1_foregroundBlur_39_22"/>
</filter>
<linearGradient id="paint0_linear_39_22" x1="23.1544" y1="27.9866" x2="66.9128" y2="93.4899" gradientUnits="userSpaceOnUse">
<stop offset="0.0253373" stop-color="#039246"/>
<stop offset="0.275797" stop-color="#16944A"/>
<stop offset="0.655916" stop-color="#6ABF65"/>
<stop offset="1" stop-color="#76D170"/>
</linearGradient>
<radialGradient id="paint1_radial_39_22" cx="0" cy="0" r="1" gradientUnits="userSpaceOnUse" gradientTransform="translate(32.2815 45.1679) rotate(57.6804) scale(15.5658 15.4983)">
<stop stop-color="#64BA62"/>
<stop offset="1" stop-color="#068E46"/>
</radialGradient>
<linearGradient id="paint2_linear_39_22" x1="23.6912" y1="27.7181" x2="79.7986" y2="71.2081" gradientUnits="userSpaceOnUse">
<stop stop-color="#64BC60"/>
<stop offset="1" stop-color="#028E47"/>
</linearGradient>
</defs>
</svg>
