<svg width="100" height="100" viewBox="0 0 100 100" fill="none" xmlns="http://www.w3.org/2000/svg">
<rect width="100" height="100" fill="#EC2424"/>
<path d="M46.0914 54.1967C44.592 62.672 38.835 73.0782 28.8769 72.9996C22.9312 72.9519 17.0587 72.9471 11.2592 72.9852C10.9902 72.9873 10.728 72.9011 10.5124 72.7398C10.2967 72.5785 10.1393 72.3508 10.0639 72.0912C9.76689 71.0613 10.5449 70.246 11.5704 70.0887C36.9254 66.2122 23.2825 34.0422 46.2329 27.1261C51.6292 25.5026 59.1332 26.1034 65.3004 26.132C65.5267 26.132 65.6517 26.2464 65.6753 26.4753L65.9016 28.6495C65.9252 28.8879 65.8214 29.0429 65.5904 29.1144C53.9631 32.5331 48.1354 42.6461 46.0914 54.1967Z" fill="white"/>
<path d="M68.3838 39.857C68.3838 41.4465 67.7594 42.971 66.6479 44.095C65.5364 45.219 64.0289 45.8504 62.4571 45.8504C60.8852 45.8504 59.3777 45.219 58.2662 44.095C57.1547 42.971 56.5303 41.4465 56.5303 39.857C56.5303 38.2674 57.1547 36.743 58.2662 35.619C59.3777 34.495 60.8852 33.8635 62.4571 33.8635C64.0289 33.8635 65.5364 34.495 66.6479 35.619C67.7594 36.743 68.3838 38.2674 68.3838 39.857ZM66.941 39.8427C66.941 38.6401 66.4686 37.4867 65.6277 36.6363C64.7868 35.786 63.6463 35.3082 62.4571 35.3082C61.2678 35.3082 60.1273 35.786 59.2864 36.6363C58.4455 37.4867 57.9731 38.6401 57.9731 39.8427C57.9731 41.0453 58.4455 42.1986 59.2864 43.049C60.1273 43.8994 61.2678 44.3771 62.4571 44.3771C63.6463 44.3771 64.7868 43.8994 65.6277 43.049C66.4686 42.1986 66.941 41.0453 66.941 39.8427Z" fill="white"/>
<path d="M62.4576 44.3769C64.9341 44.3769 66.9416 42.3468 66.9416 39.8425C66.9416 37.3382 64.9341 35.3081 62.4576 35.3081C59.9812 35.3081 57.9736 37.3382 57.9736 39.8425C57.9736 42.3468 59.9812 44.3769 62.4576 44.3769Z" fill="#FF0000"/>
<path d="M67.9594 48.1246C68.0961 48.1246 68.2046 48.1818 68.2847 48.2962C75.0249 58.0159 68.7445 66.4697 59.6209 70.482C55.6178 72.2414 49.7406 71.6406 45.391 71.4904C44.9336 71.4761 44.91 71.3665 45.3202 71.1615C51.049 68.3078 58.5529 64.4242 58.5034 56.7715C58.4846 53.2908 56.9522 50.5062 53.9063 48.4178C53.866 48.3914 53.8354 48.3524 53.8191 48.3067C53.8029 48.2611 53.8019 48.2113 53.8164 48.165C53.8308 48.1187 53.8599 48.0785 53.8992 48.0505C53.9384 48.0225 53.9856 48.0084 54.0336 48.0102L67.9594 48.1246Z" fill="white"/>
<path d="M65.0314 71.6194C64.9808 71.6171 64.9324 71.5976 64.894 71.5642C64.8557 71.5307 64.8295 71.4852 64.8197 71.4349C64.8099 71.3847 64.8171 71.3325 64.8401 71.2869C64.8631 71.2412 64.9006 71.2047 64.9466 71.1831C73.957 67.4998 83.611 58.3451 73.8792 48.6827C73.848 48.6502 73.8268 48.609 73.8181 48.5645C73.8094 48.5199 73.8136 48.474 73.8303 48.4326C73.847 48.3912 73.8754 48.3561 73.9118 48.3318C73.9482 48.3076 73.991 48.2953 74.0348 48.2965H86.9846C87.2251 48.2965 87.4042 48.4014 87.5221 48.6112C93.364 58.8243 88.2506 66.3197 78.7097 70.6968C75.2513 72.2845 68.9708 71.5836 65.0314 71.6194Z" fill="white"/>
</svg>
