<svg width="100" height="100" viewBox="0 0 100 100" fill="none" xmlns="http://www.w3.org/2000/svg">
<g clip-path="url(#clip0_39_24)">
<rect width="100" height="100" fill="white"/>
<path d="M24.0966 44.3633C26.745 43.9633 28.335 46.0016 28.9533 48.2933C29.7455 51.231 29.5788 54.0449 28.4533 56.7349C27.6733 58.5999 26.135 60.1016 24.005 59.5599C21.8333 59.0066 21.4066 56.9683 21.41 55.0416C21.4166 48.6271 21.4188 42.211 21.4166 35.7933C21.4166 35.7366 21.3883 35.7083 21.3316 35.7083H14.4166C14.3333 35.7083 14.2916 35.7499 14.2916 35.8333V36.8283C14.2916 36.8794 14.3172 36.9055 14.3683 36.9066C16.095 36.9633 16.9633 38.0316 16.9616 39.6583C16.9561 44.1027 16.9561 48.5471 16.9616 52.9916C16.9638 54.5283 17.0522 55.6021 17.2266 56.2133C18.0033 58.9283 20.6316 60.7016 23.4183 60.7216C24.5927 60.7294 25.3666 60.7205 25.74 60.6949C30.3166 60.3816 33.7483 56.8549 33.9383 52.2966C34.0816 48.8649 33.2533 45.3749 29.92 43.7033C27.9233 42.7016 24.5216 42.3716 22.6333 43.8816C22.3822 44.0838 22.2416 44.3871 22.2116 44.7916C22.2096 44.8192 22.2153 44.8469 22.2279 44.8716C22.2405 44.8963 22.2597 44.917 22.2833 44.9316C22.86 45.2783 23.7716 45.2049 23.9933 44.4533C24.0088 44.4021 24.0433 44.3721 24.0966 44.3633Z" stroke="#F9C280" stroke-width="2"/>
<path d="M81.4278 42.6624C81.6857 42.8229 81.9846 42.912 82.3074 42.9245C82.6302 42.937 82.9706 42.8727 83.3092 42.7352C83.6478 42.5978 83.9779 42.3899 84.2807 42.1235C84.5835 41.857 84.853 41.5372 85.0739 41.1823C85.5201 40.4655 85.741 39.6493 85.6882 38.9132C85.6353 38.1772 85.313 37.5815 84.7922 37.2573C84.5342 37.0967 84.2353 37.0077 83.9125 36.9952C83.5897 36.9827 83.2493 37.047 82.9107 37.1844C82.5721 37.3219 82.242 37.5298 81.9393 37.7962C81.6365 38.0627 81.3669 38.3825 81.146 38.7374C80.6999 39.4541 80.4789 40.2703 80.5317 41.0064C80.5846 41.7425 80.9069 42.3382 81.4278 42.6624Z" stroke="#F9C280" stroke-width="2"/>
<path d="M41.9583 43.6667V37.5833C41.9583 37.5612 41.9495 37.54 41.9338 37.5244C41.9182 37.5088 41.897 37.5 41.8749 37.5H39.3716C39.3049 37.5 39.2727 37.5333 39.2749 37.6C39.3238 38.8067 39.3016 39.6067 39.2083 40C38.9516 41.0867 37.7166 43.7617 36.3449 43.75C35.8705 43.7467 35.3944 43.7472 34.9166 43.7517C34.861 43.7528 34.8333 43.7806 34.8333 43.835V44.5417C34.8333 44.5972 34.861 44.625 34.9166 44.625H37.4149C37.4375 44.625 37.4591 44.634 37.475 44.6499C37.491 44.6658 37.4999 44.6875 37.4999 44.71C37.4988 48.3422 37.4994 51.9778 37.5016 55.6167C37.5016 56.6122 37.5827 57.325 37.7449 57.755C38.7216 60.3483 43.0833 61.215 45.4383 60.3217C45.5071 60.2961 45.5416 60.2461 45.5416 60.1717V59.0867C45.5416 59.0743 45.5385 59.0622 45.5328 59.0512C45.5271 59.0403 45.5188 59.0309 45.5086 59.0239C45.4985 59.0168 45.4868 59.0124 45.4745 59.0108C45.4623 59.0093 45.4498 59.0107 45.4383 59.015C44.0933 59.5133 42.8216 59.6933 42.1699 58.1233C42.0699 57.88 41.9616 57.49 41.9599 57.1683C41.9544 53.0194 41.9549 48.8672 41.9616 44.7117C41.9616 44.6517 41.9916 44.6222 42.0516 44.6233L44.4982 44.63C44.5849 44.63 44.6277 44.5872 44.6266 44.5017L44.6232 43.8333C44.6232 43.7778 44.596 43.75 44.5416 43.75H42.0416C41.986 43.75 41.9583 43.7222 41.9583 43.6667Z" stroke="#F9C280" stroke-width="2"/>
<path d="M51.7916 44.7498V43.8548C51.7916 43.7848 51.7566 43.7498 51.6866 43.7498H45.6666C45.5833 43.7498 45.5416 43.7915 45.5416 43.8748V44.5382C45.5416 44.6059 45.5755 44.6381 45.6433 44.6348C46.9633 44.5798 47.3033 44.9165 47.3066 46.2082C47.3277 53.1215 47.335 60.0343 47.3283 66.9465C47.3272 68.032 46.76 68.5026 45.6266 68.3581C45.6162 68.3567 45.6056 68.3575 45.5955 68.3606C45.5854 68.3636 45.5761 68.3688 45.5682 68.3757C45.5603 68.3827 45.554 68.3913 45.5497 68.4009C45.5454 68.4105 45.5432 68.421 45.5433 68.4315L45.5416 69.5415C45.5416 69.597 45.5694 69.6248 45.625 69.6248H54.375C54.4305 69.6248 54.4583 69.597 54.4583 69.5415V68.4998C54.4583 68.4398 54.4283 68.4115 54.3683 68.4148C53.2466 68.4715 51.7933 67.9781 51.7933 66.6131C51.79 61.0209 51.7905 55.4293 51.795 49.8382C51.795 48.9715 51.8605 48.3159 51.9916 47.8715C52.4866 46.1915 53.6983 44.7215 55.5616 44.6665C57.18 44.6198 58.07 46.4298 58.385 47.8332C59.0738 50.8998 59.0961 53.9643 58.4516 57.0265C58.0683 58.8532 56.9016 60.8415 54.855 59.2882C54.8138 59.2559 54.7744 59.1754 54.7366 59.0465C54.7222 58.9965 54.6916 58.9604 54.645 58.9382C53.8966 58.5632 53.6183 59.5431 53.995 60.0448C54.6616 60.9331 56.66 60.7348 57.575 60.4548C62.855 58.8382 64.11 53.1015 63.0483 48.2698C61.8116 42.6515 56.0133 41.3598 51.8816 44.7915C51.8216 44.8415 51.7916 44.8276 51.7916 44.7498Z" stroke="#F9C280" stroke-width="2"/>
<path d="M71.4167 45.6632V43.8332C71.4167 43.7776 71.3889 43.7499 71.3333 43.7499H65.125C65.0417 43.7499 65 43.7915 65 43.8749V44.5799C65 44.5926 65.0026 44.6051 65.0076 44.6168C65.0126 44.6284 65.0199 44.639 65.0291 44.6477C65.0383 44.6564 65.0492 44.6632 65.0611 44.6676C65.073 44.672 65.0857 44.6739 65.0983 44.6732C65.665 44.6449 66.9567 44.5199 66.9583 45.4165C66.9606 49.5043 66.9594 53.5921 66.955 57.6799C66.955 58.2699 66.855 58.9199 66.57 59.3615C66.2467 59.8599 65.86 59.8265 65.25 59.8399C65.1944 59.841 65.1667 59.8693 65.1667 59.9249V60.6032C65.1667 60.6732 65.2017 60.7082 65.2717 60.7082H73.5833C73.6389 60.7082 73.6667 60.6804 73.6667 60.6249V59.9165C73.6666 59.902 73.6634 59.8877 73.6573 59.8745C73.6511 59.8614 73.6422 59.8497 73.6311 59.8403C73.62 59.831 73.607 59.8242 73.593 59.8203C73.579 59.8165 73.5643 59.8158 73.55 59.8182C72.115 60.0515 71.4183 58.7082 71.415 57.5015C71.4094 54.8082 71.4128 52.1171 71.425 49.4282C71.4317 47.6182 72.6983 45.3449 74.4833 44.7999C75.9833 44.3432 77.8183 45.2032 78.365 46.7082C78.5094 47.1082 78.5822 47.811 78.5833 48.8165C78.5856 51.4699 78.585 54.1204 78.5817 56.7682C78.5783 58.5732 78.1033 59.9349 76.005 59.8582C75.9461 59.8571 75.915 59.8854 75.9117 59.9432L75.875 60.5799C75.8741 60.5964 75.8766 60.6129 75.8823 60.6285C75.888 60.644 75.8968 60.6582 75.9082 60.6702C75.9196 60.6823 75.9333 60.6918 75.9485 60.6983C75.9637 60.7049 75.9801 60.7082 75.9967 60.7082H84.73C84.8 60.7082 84.8344 60.6732 84.8333 60.6032L84.8317 59.8899C84.8317 59.8773 84.8289 59.865 84.8236 59.8536C84.8182 59.8423 84.8103 59.8324 84.8005 59.8245C84.7907 59.8167 84.7793 59.8111 84.7671 59.8083C84.7549 59.8055 84.7422 59.8054 84.73 59.8082C83.635 60.0415 83.045 59.0365 83.045 58.1132C83.0428 54.7532 83.0411 51.3926 83.04 48.0315C83.0383 45.3615 80.8633 43.7049 78.5183 43.1099C75.78 42.4149 73.19 43.4115 71.52 45.6965C71.4511 45.791 71.4167 45.7799 71.4167 45.6632Z" stroke="#F9C280" stroke-width="2"/>
<path d="M0 0H100V100H0V0ZM24.0967 44.3633C26.745 43.9633 28.335 46.0017 28.9533 48.2933C29.7456 51.2311 29.5789 54.045 28.4533 56.735C27.6733 58.6 26.135 60.1017 24.005 59.56C21.8333 59.0067 21.4067 56.9683 21.41 55.0417C21.4167 48.6272 21.4189 42.2111 21.4167 35.7933C21.4167 35.7367 21.3883 35.7083 21.3317 35.7083H14.4167C14.3333 35.7083 14.2917 35.75 14.2917 35.8333V36.8283C14.2917 36.8794 14.3172 36.9056 14.3683 36.9067C16.095 36.9633 16.9633 38.0317 16.9617 39.6583C16.9561 44.1028 16.9561 48.5472 16.9617 52.9917C16.9639 54.5283 17.0522 55.6022 17.2267 56.2133C18.0033 58.9283 20.6317 60.7017 23.4183 60.7217C24.5928 60.7294 25.3667 60.7206 25.74 60.695C30.3167 60.3817 33.7483 56.855 33.9383 52.2967C34.0817 48.865 33.2533 45.375 29.92 43.7033C27.9233 42.7017 24.5217 42.3717 22.6333 43.8817C22.3822 44.0839 22.2417 44.3872 22.2117 44.7917C22.2097 44.8193 22.2153 44.847 22.2279 44.8717C22.2406 44.8964 22.2597 44.9171 22.2833 44.9317C22.86 45.2783 23.7717 45.205 23.9933 44.4533C24.0089 44.4022 24.0433 44.3722 24.0967 44.3633ZM81.4278 42.6626C81.6857 42.8231 81.9846 42.9122 82.3074 42.9247C82.6302 42.9372 82.9707 42.8728 83.3092 42.7354C83.6478 42.598 83.9779 42.3901 84.2807 42.1236C84.5835 41.8572 84.853 41.5374 85.074 41.1824C85.5201 40.4657 85.7411 39.6495 85.6882 38.9134C85.6354 38.1773 85.3131 37.5816 84.7922 37.2574C84.5343 37.0969 84.2354 37.0078 83.9126 36.9953C83.5898 36.9828 83.2493 37.0472 82.9108 37.1846C82.5722 37.322 82.2421 37.5299 81.9393 37.7964C81.6365 38.0628 81.367 38.3826 81.1461 38.7375C80.6999 39.4543 80.479 40.2705 80.5318 41.0066C80.5846 41.7427 80.9069 42.3384 81.4278 42.6626ZM41.9583 43.6667V37.5833C41.9583 37.5612 41.9496 37.54 41.9339 37.5244C41.9183 37.5088 41.8971 37.5 41.875 37.5H39.3717C39.305 37.5 39.2728 37.5333 39.275 37.6C39.3239 38.8067 39.3017 39.6067 39.2083 40C38.9517 41.0867 37.7167 43.7617 36.345 43.75C35.8706 43.7467 35.3944 43.7472 34.9167 43.7517C34.8611 43.7528 34.8333 43.7806 34.8333 43.835V44.5417C34.8333 44.5972 34.8611 44.625 34.9167 44.625H37.415C37.4375 44.625 37.4592 44.634 37.4751 44.6499C37.491 44.6658 37.5 44.6875 37.5 44.71C37.4989 48.3422 37.4994 51.9778 37.5017 55.6167C37.5017 56.6122 37.5828 57.325 37.745 57.755C38.7217 60.3483 43.0833 61.215 45.4383 60.3217C45.5072 60.2961 45.5417 60.2461 45.5417 60.1717V59.0867C45.5416 59.0743 45.5386 59.0622 45.5329 59.0512C45.5271 59.0403 45.5188 59.0309 45.5087 59.0239C45.4985 59.0168 45.4869 59.0124 45.4746 59.0108C45.4623 59.0093 45.4499 59.0107 45.4383 59.015C44.0933 59.5133 42.8217 59.6933 42.17 58.1233C42.07 57.88 41.9617 57.49 41.96 57.1683C41.9544 53.0194 41.955 48.8672 41.9617 44.7117C41.9617 44.6517 41.9917 44.6222 42.0517 44.6233L44.4983 44.63C44.585 44.63 44.6278 44.5872 44.6267 44.5017L44.6233 43.8333C44.6233 43.7778 44.5961 43.75 44.5417 43.75H42.0417C41.9861 43.75 41.9583 43.7222 41.9583 43.6667ZM51.7917 44.75V43.855C51.7917 43.785 51.7567 43.75 51.6867 43.75H45.6667C45.5833 43.75 45.5417 43.7917 45.5417 43.875V44.5383C45.5417 44.6061 45.5756 44.6383 45.6433 44.635C46.9633 44.58 47.3033 44.9167 47.3067 46.2083C47.3278 53.1217 47.335 60.0344 47.3283 66.9467C47.3272 68.0322 46.76 68.5028 45.6267 68.3583C45.6162 68.3569 45.6056 68.3577 45.5955 68.3608C45.5854 68.3638 45.5761 68.369 45.5682 68.3759C45.5603 68.3829 45.554 68.3915 45.5497 68.4011C45.5454 68.4107 45.5432 68.4211 45.5433 68.4317L45.5417 69.5417C45.5417 69.5972 45.5694 69.625 45.625 69.625H54.375C54.4306 69.625 54.4583 69.5972 54.4583 69.5417V68.5C54.4583 68.44 54.4283 68.4117 54.3683 68.415C53.2467 68.4717 51.7933 67.9783 51.7933 66.6133C51.79 61.0211 51.7906 55.4294 51.795 49.8383C51.795 48.9717 51.8606 48.3161 51.9917 47.8717C52.4867 46.1917 53.6983 44.7217 55.5617 44.6667C57.18 44.62 58.07 46.43 58.385 47.8333C59.0739 50.9 59.0961 53.9644 58.4517 57.0267C58.0683 58.8533 56.9017 60.8417 54.855 59.2883C54.8139 59.2561 54.7744 59.1756 54.7367 59.0467C54.7222 58.9967 54.6917 58.9606 54.645 58.9383C53.8967 58.5633 53.6183 59.5433 53.995 60.045C54.6617 60.9333 56.66 60.735 57.575 60.455C62.855 58.8383 64.11 53.1017 63.0483 48.27C61.8117 42.6517 56.0133 41.36 51.8817 44.7917C51.8217 44.8417 51.7917 44.8278 51.7917 44.75ZM71.4167 45.6633V43.8333C71.4167 43.7778 71.3889 43.75 71.3333 43.75H65.125C65.0417 43.75 65 43.7917 65 43.875V44.58C65 44.5927 65.0026 44.6053 65.0076 44.6169C65.0126 44.6286 65.0199 44.6391 65.0291 44.6478C65.0383 44.6566 65.0492 44.6633 65.0611 44.6677C65.073 44.6721 65.0857 44.674 65.0983 44.6733C65.665 44.645 66.9567 44.52 66.9583 45.4167C66.9606 49.5044 66.9594 53.5922 66.955 57.68C66.955 58.27 66.855 58.92 66.57 59.3617C66.2467 59.86 65.86 59.8267 65.25 59.84C65.1944 59.8411 65.1667 59.8694 65.1667 59.925V60.6033C65.1667 60.6733 65.2017 60.7083 65.2717 60.7083H73.5833C73.6389 60.7083 73.6667 60.6806 73.6667 60.625V59.9167C73.6666 59.9021 73.6634 59.8878 73.6573 59.8746C73.6512 59.8615 73.6422 59.8498 73.6311 59.8405C73.62 59.8311 73.607 59.8243 73.593 59.8205C73.579 59.8166 73.5643 59.8159 73.55 59.8183C72.115 60.0517 71.4183 58.7083 71.415 57.5017C71.4094 54.8083 71.4128 52.1172 71.425 49.4283C71.4317 47.6183 72.6983 45.345 74.4833 44.8C75.9833 44.3433 77.8183 45.2033 78.365 46.7083C78.5094 47.1083 78.5822 47.8111 78.5833 48.8167C78.5856 51.47 78.585 54.1206 78.5817 56.7683C78.5783 58.5733 78.1033 59.935 76.005 59.8583C75.9461 59.8572 75.915 59.8856 75.9117 59.9433L75.875 60.58C75.8741 60.5965 75.8766 60.6131 75.8823 60.6286C75.888 60.6442 75.8968 60.6584 75.9082 60.6704C75.9196 60.6824 75.9333 60.692 75.9485 60.6985C75.9637 60.705 75.9801 60.7084 75.9967 60.7083H84.73C84.8 60.7083 84.8344 60.6733 84.8333 60.6033L84.8317 59.89C84.8317 59.8775 84.8289 59.8651 84.8236 59.8538C84.8182 59.8425 84.8103 59.8325 84.8005 59.8247C84.7908 59.8168 84.7793 59.8113 84.7671 59.8084C84.7549 59.8056 84.7422 59.8056 84.73 59.8083C83.635 60.0417 83.045 59.0367 83.045 58.1133C83.0428 54.7533 83.0411 51.3928 83.04 48.0317C83.0383 45.3617 80.8633 43.705 78.5183 43.11C75.78 42.415 73.19 43.4117 71.52 45.6967C71.4511 45.7911 71.4167 45.78 71.4167 45.6633Z" fill="#F38500"/>
<path d="M23.9933 44.4533C23.7716 45.2049 22.86 45.2783 22.2833 44.9316C22.2597 44.917 22.2405 44.8963 22.2279 44.8716C22.2153 44.8469 22.2096 44.8192 22.2116 44.7916C22.2416 44.3871 22.3822 44.0838 22.6333 43.8816C24.5216 42.3716 27.9233 42.7016 29.92 43.7033C33.2533 45.3749 34.0816 48.8649 33.9383 52.2966C33.7483 56.8549 30.3166 60.3816 25.74 60.6949C25.3666 60.7205 24.5927 60.7294 23.4183 60.7216C20.6316 60.7016 18.0033 58.9283 17.2266 56.2133C17.0522 55.6021 16.9638 54.5283 16.9616 52.9916C16.9561 48.5471 16.9561 44.1027 16.9616 39.6583C16.9633 38.0316 16.095 36.9633 14.3683 36.9066C14.3172 36.9055 14.2916 36.8794 14.2916 36.8283V35.8333C14.2916 35.7499 14.3333 35.7083 14.4166 35.7083H21.3316C21.3883 35.7083 21.4166 35.7366 21.4166 35.7933C21.4188 42.211 21.4166 48.6271 21.41 55.0416C21.4066 56.9683 21.8333 59.0066 24.005 59.5599C26.135 60.1016 27.6733 58.5999 28.4533 56.7349C29.5788 54.0449 29.7455 51.231 28.9533 48.2933C28.335 46.0016 26.745 43.9633 24.0966 44.3633C24.0433 44.3721 24.0088 44.4021 23.9933 44.4533Z" fill="white"/>
<path d="M81.146 38.7376C80.2169 40.2302 80.3431 41.9875 81.4278 42.6626C82.5124 43.3378 84.1449 42.6751 85.0739 41.1825C86.003 39.69 85.8768 37.9327 84.7921 37.2575C83.7075 36.5824 82.0751 37.245 81.146 38.7376Z" fill="white"/>
<path d="M42.0417 43.75H44.5417C44.5962 43.75 44.6234 43.7778 44.6234 43.8333L44.6267 44.5017C44.6278 44.5872 44.585 44.63 44.4984 44.63L42.0517 44.6233C41.9917 44.6222 41.9617 44.6517 41.9617 44.7117C41.955 48.8672 41.9545 53.0194 41.96 57.1683C41.9617 57.49 42.07 57.88 42.17 58.1233C42.8217 59.6933 44.0934 59.5133 45.4384 59.015C45.45 59.0107 45.4624 59.0093 45.4746 59.0108C45.4869 59.0124 45.4986 59.0168 45.5087 59.0239C45.5189 59.0309 45.5272 59.0403 45.5329 59.0512C45.5387 59.0622 45.5417 59.0743 45.5417 59.0867V60.1717C45.5417 60.2461 45.5073 60.2961 45.4384 60.3217C43.0834 61.215 38.7217 60.3483 37.745 57.755C37.5828 57.325 37.5017 56.6122 37.5017 55.6167C37.4995 51.9778 37.4989 48.3422 37.5 44.71C37.5 44.6875 37.4911 44.6658 37.4751 44.6499C37.4592 44.634 37.4376 44.625 37.415 44.625H34.9167C34.8612 44.625 34.8334 44.5972 34.8334 44.5417V43.835C34.8334 43.7806 34.8612 43.7528 34.9167 43.7517C35.3945 43.7472 35.8706 43.7467 36.345 43.75C37.7167 43.7617 38.9517 41.0867 39.2084 40C39.3017 39.6067 39.3239 38.8067 39.275 37.6C39.2728 37.5333 39.305 37.5 39.3717 37.5H41.875C41.8971 37.5 41.9183 37.5088 41.934 37.5244C41.9496 37.54 41.9584 37.5612 41.9584 37.5833V43.6667C41.9584 43.7222 41.9862 43.75 42.0417 43.75Z" fill="white"/>
<path d="M51.8816 44.7917C56.0133 41.3601 61.8116 42.6517 63.0483 48.2701C64.11 53.1017 62.855 58.8384 57.575 60.4551C56.66 60.7351 54.6616 60.9334 53.995 60.0451C53.6183 59.5434 53.8966 58.5634 54.645 58.9384C54.6916 58.9606 54.7222 58.9967 54.7366 59.0467C54.7744 59.1756 54.8138 59.2562 54.855 59.2884C56.9016 60.8417 58.0683 58.8534 58.4516 57.0267C59.0961 53.9645 59.0738 50.9001 58.385 47.8334C58.07 46.4301 57.18 44.6201 55.5616 44.6667C53.6983 44.7217 52.4866 46.1917 51.9916 47.8717C51.8605 48.3162 51.795 48.9717 51.795 49.8384C51.7905 55.4295 51.79 61.0212 51.7933 66.6134C51.7933 67.9784 53.2466 68.4717 54.3683 68.4151C54.4283 68.4117 54.4583 68.4401 54.4583 68.5001V69.5417C54.4583 69.5973 54.4305 69.6251 54.375 69.6251H45.625C45.5694 69.6251 45.5416 69.5973 45.5416 69.5417L45.5433 68.4317C45.5432 68.4212 45.5454 68.4108 45.5497 68.4011C45.554 68.3915 45.5603 68.383 45.5682 68.376C45.5761 68.369 45.5854 68.3639 45.5955 68.3608C45.6056 68.3578 45.6162 68.357 45.6266 68.3584C46.76 68.5028 47.3272 68.0323 47.3283 66.9467C47.335 60.0345 47.3277 53.1217 47.3066 46.2084C47.3033 44.9167 46.9633 44.5801 45.6433 44.6351C45.5755 44.6384 45.5416 44.6062 45.5416 44.5384V43.8751C45.5416 43.7917 45.5833 43.7501 45.6666 43.7501H51.6866C51.7566 43.7501 51.7916 43.7851 51.7916 43.8551V44.7501C51.7916 44.8278 51.8216 44.8417 51.8816 44.7917Z" fill="white"/>
<path d="M71.4167 45.6634C71.4167 45.7801 71.4511 45.7912 71.52 45.6968C73.19 43.4118 75.78 42.4151 78.5183 43.1101C80.8633 43.7051 83.0383 45.3618 83.04 48.0318C83.0411 51.3929 83.0428 54.7534 83.045 58.1134C83.045 59.0368 83.635 60.0418 84.73 59.8084C84.7422 59.8057 84.7549 59.8057 84.7671 59.8085C84.7793 59.8114 84.7908 59.8169 84.8005 59.8248C84.8103 59.8326 84.8182 59.8426 84.8236 59.8539C84.8289 59.8652 84.8317 59.8776 84.8317 59.8901L84.8333 60.6034C84.8344 60.6734 84.8 60.7084 84.73 60.7084H75.9967C75.9801 60.7085 75.9637 60.7051 75.9485 60.6986C75.9333 60.6921 75.9196 60.6825 75.9082 60.6705C75.8968 60.6585 75.888 60.6443 75.8823 60.6287C75.8766 60.6132 75.8741 60.5966 75.875 60.5801L75.9117 59.9434C75.915 59.8857 75.9461 59.8573 76.005 59.8584C78.1033 59.9351 78.5783 58.5734 78.5817 56.7684C78.585 54.1207 78.5856 51.4701 78.5833 48.8168C78.5822 47.8112 78.5094 47.1084 78.365 46.7084C77.8183 45.2034 75.9833 44.3434 74.4833 44.8001C72.6983 45.3451 71.4317 47.6184 71.425 49.4284C71.4128 52.1173 71.4094 54.8084 71.415 57.5018C71.4183 58.7084 72.115 60.0518 73.55 59.8184C73.5643 59.816 73.579 59.8168 73.593 59.8206C73.607 59.8244 73.62 59.8312 73.6311 59.8406C73.6422 59.8499 73.6511 59.8616 73.6573 59.8748C73.6634 59.8879 73.6666 59.9023 73.6667 59.9168V60.6251C73.6667 60.6807 73.6389 60.7084 73.5833 60.7084H65.2717C65.2017 60.7084 65.1667 60.6734 65.1667 60.6034V59.9251C65.1667 59.8696 65.1944 59.8412 65.25 59.8401C65.86 59.8268 66.2467 59.8601 66.57 59.3618C66.855 58.9201 66.955 58.2701 66.955 57.6801C66.9594 53.5923 66.9606 49.5046 66.9583 45.4168C66.9567 44.5201 65.665 44.6451 65.0983 44.6734C65.0857 44.6741 65.073 44.6722 65.0611 44.6678C65.0492 44.6634 65.0383 44.6567 65.0291 44.6479C65.0199 44.6392 65.0126 44.6287 65.0076 44.617C65.0026 44.6054 65 44.5928 65 44.5801V43.8751C65 43.7918 65.0417 43.7501 65.125 43.7501H71.3333C71.3889 43.7501 71.4167 43.7779 71.4167 43.8334V45.6634Z" fill="white"/>
</g>
<defs>
<clipPath id="clip0_39_24">
<rect width="100" height="100" fill="white"/>
</clipPath>
</defs>
</svg>
