<svg width="100" height="100" viewBox="0 0 100 100" fill="none" xmlns="http://www.w3.org/2000/svg">
<g clip-path="url(#clip0_39_25)">
<rect width="100" height="100" fill="white"/>
<path d="M0 0H100V100H0V0ZM24.0967 44.3633C26.745 43.9633 28.335 46.0017 28.9533 48.2933C29.7456 51.2311 29.5789 54.045 28.4533 56.735C27.6733 58.6 26.135 60.1017 24.005 59.56C21.8333 59.0067 21.4067 56.9683 21.41 55.0417C21.4167 48.6272 21.4189 42.2111 21.4167 35.7933C21.4167 35.7367 21.3883 35.7083 21.3317 35.7083H14.4167C14.3333 35.7083 14.2917 35.75 14.2917 35.8333V36.8283C14.2917 36.8794 14.3172 36.9056 14.3683 36.9067C16.095 36.9633 16.9633 38.0317 16.9617 39.6583C16.9561 44.1028 16.9561 48.5472 16.9617 52.9917C16.9639 54.5283 17.0522 55.6022 17.2267 56.2133C18.0033 58.9283 20.6317 60.7017 23.4183 60.7217C24.5928 60.7294 25.3667 60.7206 25.74 60.695C30.3167 60.3817 33.7483 56.855 33.9383 52.2967C34.0817 48.865 33.2533 45.375 29.92 43.7033C27.9233 42.7017 24.5217 42.3717 22.6333 43.8817C22.3822 44.0839 22.2417 44.3872 22.2117 44.7917C22.2097 44.8193 22.2153 44.847 22.2279 44.8717C22.2406 44.8964 22.2597 44.9171 22.2833 44.9317C22.86 45.2783 23.7717 45.205 23.9933 44.4533C24.0089 44.4022 24.0433 44.3722 24.0967 44.3633ZM81.4278 42.6626C81.6857 42.8231 81.9846 42.9122 82.3074 42.9247C82.6302 42.9372 82.9707 42.8728 83.3092 42.7354C83.6478 42.598 83.9779 42.3901 84.2807 42.1236C84.5835 41.8572 84.853 41.5374 85.074 41.1824C85.5201 40.4657 85.7411 39.6495 85.6882 38.9134C85.6354 38.1773 85.3131 37.5816 84.7922 37.2574C84.5343 37.0969 84.2354 37.0078 83.9126 36.9953C83.5898 36.9828 83.2493 37.0472 82.9108 37.1846C82.5722 37.322 82.2421 37.5299 81.9393 37.7964C81.6365 38.0628 81.367 38.3826 81.1461 38.7375C80.6999 39.4543 80.479 40.2705 80.5318 41.0066C80.5846 41.7427 80.9069 42.3384 81.4278 42.6626ZM41.9583 43.6667V37.5833C41.9583 37.5612 41.9496 37.54 41.9339 37.5244C41.9183 37.5088 41.8971 37.5 41.875 37.5H39.3717C39.305 37.5 39.2728 37.5333 39.275 37.6C39.3239 38.8067 39.3017 39.6067 39.2083 40C38.9517 41.0867 37.7167 43.7617 36.345 43.75C35.8706 43.7467 35.3944 43.7472 34.9167 43.7517C34.8611 43.7528 34.8333 43.7806 34.8333 43.835V44.5417C34.8333 44.5972 34.8611 44.625 34.9167 44.625H37.415C37.4375 44.625 37.4592 44.634 37.4751 44.6499C37.491 44.6658 37.5 44.6875 37.5 44.71C37.4989 48.3422 37.4994 51.9778 37.5017 55.6167C37.5017 56.6122 37.5828 57.325 37.745 57.755C38.7217 60.3483 43.0833 61.215 45.4383 60.3217C45.5072 60.2961 45.5417 60.2461 45.5417 60.1717V59.0867C45.5416 59.0743 45.5386 59.0622 45.5329 59.0512C45.5271 59.0403 45.5188 59.0309 45.5087 59.0239C45.4985 59.0168 45.4869 59.0124 45.4746 59.0108C45.4623 59.0093 45.4499 59.0107 45.4383 59.015C44.0933 59.5133 42.8217 59.6933 42.17 58.1233C42.07 57.88 41.9617 57.49 41.96 57.1683C41.9544 53.0194 41.955 48.8672 41.9617 44.7117C41.9617 44.6517 41.9917 44.6222 42.0517 44.6233L44.4983 44.63C44.585 44.63 44.6278 44.5872 44.6267 44.5017L44.6233 43.8333C44.6233 43.7778 44.5961 43.75 44.5417 43.75H42.0417C41.9861 43.75 41.9583 43.7222 41.9583 43.6667ZM51.7917 44.75V43.855C51.7917 43.785 51.7567 43.75 51.6867 43.75H45.6667C45.5833 43.75 45.5417 43.7917 45.5417 43.875V44.5383C45.5417 44.6061 45.5756 44.6383 45.6433 44.635C46.9633 44.58 47.3033 44.9167 47.3067 46.2083C47.3278 53.1217 47.335 60.0344 47.3283 66.9467C47.3272 68.0322 46.76 68.5028 45.6267 68.3583C45.6162 68.3569 45.6056 68.3577 45.5955 68.3608C45.5854 68.3638 45.5761 68.369 45.5682 68.3759C45.5603 68.3829 45.554 68.3915 45.5497 68.4011C45.5454 68.4107 45.5432 68.4211 45.5433 68.4317L45.5417 69.5417C45.5417 69.5972 45.5694 69.625 45.625 69.625H54.375C54.4306 69.625 54.4583 69.5972 54.4583 69.5417V68.5C54.4583 68.44 54.4283 68.4117 54.3683 68.415C53.2467 68.4717 51.7933 67.9783 51.7933 66.6133C51.79 61.0211 51.7906 55.4294 51.795 49.8383C51.795 48.9717 51.8606 48.3161 51.9917 47.8717C52.4867 46.1917 53.6983 44.7217 55.5617 44.6667C57.18 44.62 58.07 46.43 58.385 47.8333C59.0739 50.9 59.0961 53.9644 58.4517 57.0267C58.0683 58.8533 56.9017 60.8417 54.855 59.2883C54.8139 59.2561 54.7744 59.1756 54.7367 59.0467C54.7222 58.9967 54.6917 58.9606 54.645 58.9383C53.8967 58.5633 53.6183 59.5433 53.995 60.045C54.6617 60.9333 56.66 60.735 57.575 60.455C62.855 58.8383 64.11 53.1017 63.0483 48.27C61.8117 42.6517 56.0133 41.36 51.8817 44.7917C51.8217 44.8417 51.7917 44.8278 51.7917 44.75ZM71.4167 45.6633V43.8333C71.4167 43.7778 71.3889 43.75 71.3333 43.75H65.125C65.0417 43.75 65 43.7917 65 43.875V44.58C65 44.5927 65.0026 44.6053 65.0076 44.6169C65.0126 44.6286 65.0199 44.6391 65.0291 44.6478C65.0383 44.6566 65.0492 44.6633 65.0611 44.6677C65.073 44.6721 65.0857 44.674 65.0983 44.6733C65.665 44.645 66.9567 44.52 66.9583 45.4167C66.9606 49.5044 66.9594 53.5922 66.955 57.68C66.955 58.27 66.855 58.92 66.57 59.3617C66.2467 59.86 65.86 59.8267 65.25 59.84C65.1944 59.8411 65.1667 59.8694 65.1667 59.925V60.6033C65.1667 60.6733 65.2017 60.7083 65.2717 60.7083H73.5833C73.6389 60.7083 73.6667 60.6806 73.6667 60.625V59.9167C73.6666 59.9021 73.6634 59.8878 73.6573 59.8746C73.6512 59.8615 73.6422 59.8498 73.6311 59.8405C73.62 59.8311 73.607 59.8243 73.593 59.8205C73.579 59.8166 73.5643 59.8159 73.55 59.8183C72.115 60.0517 71.4183 58.7083 71.415 57.5017C71.4094 54.8083 71.4128 52.1172 71.425 49.4283C71.4317 47.6183 72.6983 45.345 74.4833 44.8C75.9833 44.3433 77.8183 45.2033 78.365 46.7083C78.5094 47.1083 78.5822 47.8111 78.5833 48.8167C78.5856 51.47 78.585 54.1206 78.5817 56.7683C78.5783 58.5733 78.1033 59.935 76.005 59.8583C75.9461 59.8572 75.915 59.8856 75.9117 59.9433L75.875 60.58C75.8741 60.5965 75.8766 60.6131 75.8823 60.6286C75.888 60.6442 75.8968 60.6584 75.9082 60.6704C75.9196 60.6824 75.9333 60.692 75.9485 60.6985C75.9637 60.705 75.9801 60.7084 75.9967 60.7083H84.73C84.8 60.7083 84.8344 60.6733 84.8333 60.6033L84.8317 59.89C84.8317 59.8775 84.8289 59.8651 84.8236 59.8538C84.8182 59.8425 84.8103 59.8325 84.8005 59.8247C84.7908 59.8168 84.7793 59.8113 84.7671 59.8084C84.7549 59.8056 84.7422 59.8056 84.73 59.8083C83.635 60.0417 83.045 59.0367 83.045 58.1133C83.0428 54.7533 83.0411 51.3928 83.04 48.0317C83.0383 45.3617 80.8633 43.705 78.5183 43.11C75.78 42.415 73.19 43.4117 71.52 45.6967C71.4511 45.7911 71.4167 45.78 71.4167 45.6633Z" fill="#F38500"/>
</g>
<defs>
<clipPath id="clip0_39_25">
<rect width="100" height="100" fill="white"/>
</clipPath>
</defs>
</svg>
