<svg width="100" height="100" viewBox="0 0 100 100" fill="none" xmlns="http://www.w3.org/2000/svg">
<rect width="100" height="100" fill="#CC252F"/>
<path d="M37.3311 72.0026C27.1113 67.0285 26.869 52.9811 37.631 48.6252C37.6681 48.6088 37.6996 48.5819 37.7218 48.5478C37.7439 48.5136 37.7557 48.4736 37.7557 48.4327C37.7557 48.3919 37.7439 48.3519 37.7218 48.3177C37.6996 48.2835 37.6681 48.2566 37.631 48.2403C29.6489 44.9923 26.9728 34.9801 32.723 28.245C37.9079 22.1747 47.5049 22.7112 52.0669 29.2363C56.1733 35.12 54.7142 43.7794 48.1278 47.3306C47.5741 47.63 47.0108 47.9254 46.4379 48.217C46.1803 48.3492 46.1861 48.4736 46.4552 48.5902C57.2518 53.261 56.8942 67.3551 46.2764 72.1484C46.269 72.1528 46.2632 72.1595 46.2599 72.1674C46.2565 72.1754 46.2557 72.1842 46.2576 72.1927C46.2596 72.2011 46.2641 72.2087 46.2706 72.2144C46.2771 72.22 46.2852 72.2235 46.2937 72.2242L54.9276 72.23C55.0967 72.23 55.1813 72.1445 55.1813 71.9734C55.2082 60.1399 55.2102 48.3142 55.1871 36.4962C55.1794 34.051 55.9215 32.2238 57.4133 31.0148C60.1067 28.8398 64.1151 29.5337 65.753 32.6942C66.2106 33.5728 66.449 34.8868 66.4682 36.6362C66.5951 48.388 66.6277 60.138 66.5662 71.886C66.5624 72.1076 66.672 72.2183 66.895 72.2183L70.9091 72.2125C71.0243 72.211 71.1343 72.1642 71.2153 72.0824C71.2962 72.0005 71.3416 71.8902 71.3417 71.7752V25.0495C71.3417 24.8085 71.4628 24.6879 71.705 24.6879L79.7275 24.6588C79.9005 24.6588 79.987 24.7463 79.987 24.9212C79.9986 36.7975 80.0024 48.666 79.9986 60.5267C79.9947 64.041 79.7044 66.5407 79.1277 68.0257C76.6765 74.3526 70.863 75.4255 64.2708 74.8657C64.0901 74.8502 63.9997 74.751 63.9997 74.5683C63.9766 61.483 63.9766 48.4036 63.9997 35.33C64.0055 32.2219 59.3569 31.0148 58.0996 34.0996C57.8728 34.6516 57.7632 35.5846 57.7709 36.8986C57.844 49.494 57.7978 62.0876 57.6325 74.6791C57.6325 74.8813 57.5325 74.9824 57.3326 74.9824C50.0887 74.9785 42.8563 74.9843 35.6355 74.9998C31.4714 75.0076 28.5916 74.7102 26.9959 74.1077C21.3381 71.9559 19.9943 67.0927 20 61.174C20.0154 49.1655 20.0173 37.126 20.0058 25.0553C20.0058 24.8026 20.1307 24.6782 20.3807 24.6821L28.4839 24.6879C28.6608 24.6879 28.7492 24.7793 28.7492 24.962C28.9684 39.3768 28.7492 53.7742 28.9684 68.1715C29.0491 73.1164 33.3401 72.3116 37.2908 72.1717C37.5292 72.1639 37.5426 72.1076 37.3311 72.0026Z" fill="#FFFAFB"/>
</svg>
