<svg width="100" height="100" viewBox="0 0 100 100" fill="none" xmlns="http://www.w3.org/2000/svg">
<rect width="100" height="100" fill="#006599"/>
<rect width="68" height="12.263" transform="translate(16 44)" fill="#006599"/>
<path d="M44.5126 51.9802C44.0912 51.7259 43.2811 51.809 42.7541 51.8235C42.7333 51.824 42.7134 51.8326 42.6988 51.8474C42.6842 51.8623 42.676 51.8823 42.676 51.9031V56.2058C42.676 56.2343 42.6617 56.2486 42.6331 56.2486H39.1144C39.0858 56.2486 39.0715 56.2343 39.0715 56.2058V44.0495C39.0715 44.021 39.0858 44.0067 39.1144 44.0067H42.6331C42.6617 44.0067 42.676 44.021 42.676 44.0495V48.6723C42.676 48.6844 42.6808 48.6959 42.6891 48.7044C42.6975 48.7129 42.7088 48.7177 42.7207 48.7177C43.1864 48.7166 43.6578 48.7103 44.135 48.6989C44.4912 48.6903 45.7116 47.2941 45.9733 46.9764C45.9922 46.9536 46.0016 46.9274 46.0016 46.8977V44.0504C46.0016 44.0224 46.0157 44.0084 46.0437 44.0084L49.5684 44.0042C49.601 44.0036 49.6176 44.0199 49.6182 44.053C49.6416 45.0723 49.6516 46.0913 49.6482 47.11C49.6476 47.3891 49.5544 47.6308 49.3684 47.8351C48.8936 48.3573 48.2522 49.0022 47.4443 49.7698C47.1479 50.0517 47.1445 50.3508 47.434 50.667C47.9781 51.2605 48.5291 51.8472 49.0869 52.4271C49.4517 52.8072 49.6602 53.1624 49.6516 53.6589C49.6362 54.5082 49.6273 55.3577 49.625 56.2075C49.625 56.2349 49.611 56.2486 49.583 56.2486H46.0454C46.0162 56.2486 46.0019 56.234 46.0025 56.2049C46.0151 55.3471 46.0288 54.4916 46.0437 53.6384C46.0506 53.236 45.9845 52.9253 45.6318 52.6907C45.2633 52.4448 44.8902 52.2079 44.5126 51.9802Z" fill="white"/>
<path d="M25.9682 51.3424C26.2548 51.5547 26.5561 51.8518 26.569 52.2336C26.5936 52.9761 26.5984 53.5011 26.5835 53.8088C26.5629 54.2539 26.3492 54.5244 26.0025 54.8583C25.5434 55.3017 25.1469 55.7863 24.6877 56.2237C24.6706 56.2397 24.6482 56.2486 24.6251 56.2486H16.036C16.0265 56.2486 16.0173 56.2449 16.0106 56.2383C16.0038 56.2317 16 56.2228 16 56.2135L16.0094 44.0478C16.0094 44.0256 16.0203 44.0144 16.0421 44.0144C20.106 43.9967 22.9049 43.9953 24.4389 44.0102C24.5293 44.0107 24.6211 44.0607 24.7143 44.16C25.2762 44.7535 25.733 45.2181 26.0849 45.5537C26.4345 45.8875 26.6059 46.2919 26.599 46.7667C26.5887 47.5086 26.5761 48.23 26.5612 48.9309C26.5602 48.9869 26.5473 49.042 26.5235 49.0926C26.4997 49.1432 26.4655 49.1881 26.4231 49.2245C26.1682 49.4436 24.9546 50.1302 25.2482 50.5797C25.441 50.8747 25.681 51.129 25.9682 51.3424ZM22.9161 47.0786C22.9161 47.0742 22.9152 47.0699 22.9135 47.0658C22.9119 47.0618 22.9094 47.0581 22.9063 47.055C22.9032 47.0519 22.8995 47.0494 22.8955 47.0477C22.8914 47.046 22.887 47.0452 22.8827 47.0452L19.6678 47.0396C19.6634 47.0396 19.659 47.0404 19.655 47.0421C19.6509 47.0438 19.6472 47.0462 19.6441 47.0493C19.641 47.0524 19.6385 47.0561 19.6368 47.0601C19.6351 47.0642 19.6343 47.0685 19.6342 47.0729L19.6314 48.6789C19.6314 48.6833 19.6323 48.6876 19.634 48.6917C19.6356 48.6957 19.6381 48.6994 19.6412 48.7025C19.6443 48.7056 19.648 48.7081 19.652 48.7098C19.6561 48.7114 19.6605 48.7123 19.6648 48.7123L22.8797 48.7179C22.8841 48.7179 22.8885 48.7171 22.8925 48.7154C22.8966 48.7137 22.9003 48.7113 22.9034 48.7082C22.9065 48.7051 22.909 48.7014 22.9107 48.6974C22.9124 48.6933 22.9132 48.689 22.9133 48.6846L22.9161 47.0786ZM22.917 51.8635C22.917 51.8606 22.9164 51.8577 22.9153 51.855C22.9142 51.8523 22.9126 51.8498 22.9105 51.8477C22.9085 51.8457 22.906 51.844 22.9033 51.8429C22.9006 51.8417 22.8977 51.8412 22.8948 51.8412L19.6576 51.8299C19.6547 51.8299 19.6518 51.8304 19.649 51.8315C19.6463 51.8327 19.6439 51.8343 19.6418 51.8363C19.6397 51.8384 19.6381 51.8409 19.6369 51.8435C19.6358 51.8462 19.6352 51.8491 19.6352 51.8521L19.6305 53.1961C19.6305 53.199 19.6311 53.2019 19.6322 53.2046C19.6333 53.2073 19.6349 53.2098 19.637 53.2118C19.639 53.2139 19.6415 53.2156 19.6442 53.2167C19.6469 53.2178 19.6498 53.2184 19.6527 53.2184L22.8899 53.2297C22.8928 53.2297 22.8957 53.2291 22.8985 53.228C22.9012 53.2269 22.9036 53.2253 22.9057 53.2232C22.9078 53.2212 22.9094 53.2187 22.9106 53.216C22.9117 53.2133 22.9123 53.2104 22.9123 53.2075L22.917 51.8635Z" fill="white"/>
<path d="M30.9828 53.1666C30.9828 53.1836 30.9895 53.1999 31.0016 53.212C31.0137 53.224 31.0301 53.2308 31.0471 53.2308H34.5976C34.6119 53.2308 34.6257 53.2251 34.6358 53.215C34.6459 53.2049 34.6516 53.1911 34.6516 53.1768V44.0494C34.6516 44.0209 34.6659 44.0066 34.6946 44.0066H37.8906C37.9022 44.0066 37.9133 44.0112 37.9215 44.0194C37.9297 44.0276 37.9343 44.0387 37.9343 44.0503C37.9343 46.954 37.9343 49.8644 37.9343 52.7813C37.9343 52.9155 37.8368 53.1112 37.6417 53.3686C36.9191 54.3197 36.1578 55.2451 35.4695 56.2202C35.4529 56.2436 35.4303 56.2553 35.4017 56.2553C33.6784 56.245 31.956 56.2439 30.2344 56.2519C30.2292 56.2519 30.2032 56.255 30.1563 56.2613C30.0848 56.2715 30.0224 56.2333 29.9692 56.1466C29.3976 55.2229 28.5377 54.2641 27.9 53.3318C27.7576 53.1229 27.7018 52.9337 27.7009 52.6641C27.6986 49.7928 27.6986 46.9215 27.7009 44.0503C27.7009 44.0211 27.7155 44.0066 27.7447 44.0066H30.9398C30.9685 44.0066 30.9828 44.0209 30.9828 44.0494V53.1666Z" fill="white"/>
<path d="M54.0473 53.2736V56.2056C54.0473 56.217 54.0427 56.2279 54.0347 56.2359C54.0266 56.2439 54.0157 56.2484 54.0043 56.2484H50.7225C50.6939 56.2484 50.6796 56.2339 50.6796 56.2048C50.6785 53.414 50.6782 50.624 50.6788 47.8349C50.6788 47.1244 51.1739 46.687 51.5782 46.1716C52.1068 45.4979 52.5419 44.7967 53.123 44.1547C53.155 44.1193 53.2131 44.0759 53.2972 44.0246C53.3163 44.0128 53.3383 44.0066 53.3607 44.0066H57.7599C57.8156 44.0066 57.8707 44.0182 57.9215 44.0406C57.9724 44.063 58.0179 44.0958 58.0551 44.1367C58.8395 44.9968 59.6443 45.85 60.4693 46.6964C60.7045 46.9378 60.9765 47.252 60.9774 47.6098C60.9785 50.4754 60.9782 53.3403 60.9765 56.2048C60.9765 56.2339 60.9619 56.2484 60.9327 56.2484H57.4158C57.3872 56.2484 57.3729 56.2342 57.3729 56.2056V53.2736C57.3729 53.2622 57.3683 53.2513 57.3603 53.2433C57.3522 53.2353 57.3413 53.2308 57.3299 53.2308H54.0902C54.0616 53.2308 54.0473 53.245 54.0473 53.2736ZM57.3746 47.0888C57.3746 47.0823 57.3733 47.0758 57.3708 47.0698C57.3683 47.0637 57.3647 47.0583 57.3601 47.0536C57.3555 47.049 57.35 47.0454 57.3439 47.0429C57.3379 47.0403 57.3314 47.0391 57.3249 47.039L54.0997 47.0334C54.0932 47.0334 54.0867 47.0347 54.0807 47.0372C54.0746 47.0397 54.0691 47.0433 54.0645 47.0479C54.0599 47.0525 54.0562 47.058 54.0537 47.064C54.0512 47.07 54.0499 47.0765 54.0499 47.083L54.0447 50.0536C54.0446 50.0601 54.0459 50.0665 54.0484 50.0726C54.0509 50.0786 54.0546 50.0841 54.0592 50.0887C54.0638 50.0933 54.0693 50.097 54.0753 50.0995C54.0813 50.102 54.0878 50.1033 54.0943 50.1033L57.3195 50.1089C57.3261 50.1089 57.3325 50.1077 57.3386 50.1052C57.3446 50.1027 57.3501 50.099 57.3548 50.0944C57.3594 50.0898 57.3631 50.0844 57.3656 50.0783C57.3681 50.0723 57.3694 50.0659 57.3694 50.0593L57.3746 47.0888Z" fill="white"/>
<path d="M68.7273 47.1706L68.7213 44.0503C68.7213 44.0211 68.7359 44.0066 68.7651 44.0066H72.5653C72.5979 44.0066 72.6145 44.0229 72.615 44.0554C72.6368 44.8869 72.6474 45.8691 72.6468 47.002C72.6468 47.4392 72.4932 47.799 72.1859 48.0815C71.5852 48.6339 70.9756 49.1764 70.3571 49.7089C70.3336 49.7294 70.3176 49.7545 70.309 49.7842C70.1889 50.1894 70.2913 50.5581 70.6163 50.8903C71.2302 51.5163 71.8667 52.103 72.5258 52.6504C72.5527 52.6726 72.5743 52.7005 72.5891 52.7322C72.6039 52.7638 72.6116 52.7985 72.6116 52.8336L72.6168 56.2005C72.6168 56.2132 72.6117 56.2254 72.6027 56.2344C72.5937 56.2434 72.5814 56.2484 72.5687 56.2484H68.7668C68.7393 56.2484 68.7253 56.2347 68.7247 56.2073C68.7213 55.2845 68.7196 54.3639 68.7196 53.4456C68.7196 53.2359 68.7144 53.0784 68.5574 52.9157C68.2971 52.6464 68.0405 52.3738 67.7876 52.0982C67.4271 51.7061 66.2574 51.8362 65.7484 51.8311C65.7147 51.8305 65.6978 51.8471 65.6978 51.8807V56.2056C65.6978 56.2342 65.6835 56.2484 65.6549 56.2484H62.1577C62.129 56.2484 62.1147 56.2342 62.1147 56.2056V44.0494C62.1147 44.0209 62.129 44.0066 62.1577 44.0066H65.6549C65.6835 44.0066 65.6978 44.0209 65.6978 44.0494V48.6722C65.6978 48.6835 65.7023 48.6944 65.7104 48.7025C65.7184 48.7105 65.7293 48.715 65.7407 48.715H67.1542C67.228 48.715 67.299 48.6868 67.3525 48.6362C67.8236 48.1936 68.1077 47.7117 68.6981 47.2323C68.7176 47.2163 68.7273 47.1957 68.7273 47.1706Z" fill="white"/>
<path d="M77.0477 53.2736V56.1953C77.0477 56.2094 77.0421 56.2229 77.0321 56.2329C77.0222 56.2428 77.0086 56.2484 76.9945 56.2484H73.5119C73.4901 56.2484 73.4792 56.2376 73.4792 56.2159C73.5153 53.3189 73.4681 50.7644 73.4844 47.4095C73.4853 47.2811 73.6706 46.9917 73.7908 46.8702C74.3984 46.2529 74.9554 45.5681 75.5175 44.9474C75.7555 44.6855 75.9938 44.4147 76.2324 44.135C76.2669 44.0947 76.3097 44.0624 76.3578 44.0402C76.406 44.0181 76.4583 44.0066 76.5113 44.0066H80.9526C81.0141 44.0066 81.0745 44.0222 81.1283 44.052C81.182 44.0818 81.2273 44.1248 81.2599 44.177C81.3657 44.3476 81.5076 44.5325 81.6855 44.7317C82.6467 45.8078 83.3728 46.5765 83.9718 47.4805C83.9884 47.5056 83.9967 47.533 83.9967 47.5627L84.0001 56.2082C84.0001 56.2356 83.9864 56.2493 83.959 56.2493L80.4591 56.2476C80.4305 56.2476 80.4162 56.2336 80.4162 56.2056V53.2736C80.4162 53.2622 80.4117 53.2513 80.4037 53.2433C80.3956 53.2353 80.3847 53.2308 80.3733 53.2308H77.0906C77.062 53.2308 77.0477 53.245 77.0477 53.2736ZM80.4188 47.0803C80.4188 47.0744 80.4177 47.0686 80.4155 47.0632C80.4132 47.0578 80.41 47.0529 80.4058 47.0488C80.4017 47.0446 80.3968 47.0413 80.3914 47.0391C80.3859 47.0368 80.3801 47.0357 80.3743 47.0357L77.0959 47.03C77.09 47.0299 77.0842 47.0311 77.0788 47.0333C77.0734 47.0355 77.0685 47.0388 77.0643 47.0429C77.0602 47.0471 77.0569 47.052 77.0546 47.0574C77.0524 47.0628 77.0512 47.0685 77.0512 47.0744L77.046 50.0587C77.046 50.0645 77.0471 50.0703 77.0493 50.0757C77.0516 50.0811 77.0549 50.086 77.059 50.0902C77.0631 50.0943 77.068 50.0976 77.0734 50.0998C77.0789 50.1021 77.0847 50.1032 77.0905 50.1032L80.3689 50.109C80.3748 50.109 80.3806 50.1078 80.386 50.1056C80.3914 50.1034 80.3963 50.1001 80.4005 50.096C80.4046 50.0918 80.4079 50.0869 80.4102 50.0815C80.4124 50.0762 80.4136 50.0704 80.4136 50.0645L80.4188 47.0803Z" fill="white"/>
</svg>
