<svg width="100" height="100" viewBox="0 0 100 100" fill="none" xmlns="http://www.w3.org/2000/svg">
<rect width="100" height="100" fill="#E4DF20"/>
<mask id="mask0_39_31" style="mask-type:alpha" maskUnits="userSpaceOnUse" x="6" y="14" width="89" height="72">
<ellipse cx="50.5" cy="49.9304" rx="44.5" ry="35.9304" fill="#D9D9D9"/>
</mask>
<g mask="url(#mask0_39_31)">
<path d="M95.3829 48.7699C89.7827 48.6212 84.7834 46.7194 80.2116 43.7375C76.6908 41.4392 73.2258 38.8684 69.5337 36.9066C64.3369 34.1465 58.8585 33.2344 53.0986 34.1706C50.5236 34.5897 47.8515 35.7213 45.3426 36.7167C42.8096 37.7216 40.1823 38.3074 37.4606 38.4739C28.0981 39.0459 17.7671 38.3377 7.7334 38.6309" stroke="#7A9326" stroke-width="0.464037"/>
<path d="M95.2732 52.5013C95.0391 52.3677 94.8843 52.3051 94.8085 52.3134C86.6437 53.2839 80.1432 51.4502 73.3308 47.3161C70.6354 45.6821 68.4038 44.2641 66.6362 43.0623C60.9989 39.2311 54.8315 37.396 48.1341 37.5571C44.9995 37.6314 42.3791 39.0274 39.3312 39.6427C38.2794 39.8561 37.3103 39.989 36.4237 40.0413C26.7659 40.6257 16.8417 40.0722 7.03101 40.4997" stroke="#7A9326" stroke-width="0.464037"/>
<path d="M94.8744 55.1714C92.5038 55.0764 90.2262 54.998 87.7689 55.0041C82.9182 55.0145 77.9912 55.1755 73.1737 54.5333C70.6048 54.1926 69.0582 53.5773 66.9684 52.2309C62.7394 49.5065 58.5351 46.7443 54.3556 43.9442C48.9826 40.345 43.4464 39.1617 37.0863 40.5866C32.942 41.5158 29.1052 43.5849 24.9753 44.5513C22.5662 45.113 20.0882 45.3188 17.5414 45.1687C14.0103 44.9608 10.1702 44.839 6.021 44.8032" stroke="#7A9326" stroke-width="0.464037"/>
<path d="M93.9041 59.0203C89.2559 58.6115 84.5788 58.659 79.6456 58.8138C75.6808 58.9377 72.286 58.8379 69.4611 58.5144C66.3926 58.162 63.5037 57.1612 60.7945 55.512C57.3253 53.4016 54.4433 51.6051 52.1485 50.1224C45.4807 45.817 38.7448 43.3287 30.7472 44.3777C26.6627 44.9146 22.7062 46.5459 18.7167 46.5376C16.1534 46.5321 13.5894 46.55 11.0247 46.5913C9.2915 46.6202 7.51976 46.7476 5.70947 46.9733" stroke="#7A9326" stroke-width="0.464037"/>
<path d="M92.9809 61.3228C91.0729 61.6339 89.2564 61.7833 87.5315 61.7709C83.9728 61.7461 80.4149 61.7289 76.8577 61.7193C72.4531 61.7069 67.3795 61.9877 63.8484 61.8555C58.4444 61.6573 54.0728 60.7239 49.4081 57.8784C45.7545 55.651 42.1435 53.3568 38.5753 50.9959C32.7583 47.1468 27.0135 45.5692 20.0711 47.6816C14.9954 49.2262 10.754 51.0455 5.67212 51.6939" stroke="#7A9326" stroke-width="0.464037"/>
<path d="M90.5917 65.9173C90.4967 65.7686 90.4017 65.6956 90.3067 65.6984C84.0306 65.9021 77.7545 66.0591 71.4784 66.1692C62.3161 66.3303 54.4259 67.5218 46.6183 63.4847C40.7104 60.4286 35.6306 56.1376 29.572 53.2818C24.7854 51.0254 19.7565 50.2559 14.4853 50.9731C13.406 51.119 10.8937 51.6731 6.94821 52.6354C6.60749 52.718 6.33285 52.8811 6.0231 53.0422C5.98129 53.0638 5.94675 53.0972 5.92378 53.1382C5.90082 53.1793 5.89046 53.2262 5.89398 53.2731C5.89751 53.32 5.91477 53.3648 5.9436 53.402C5.97244 53.4391 6.01158 53.467 6.05614 53.4821C6.38378 53.5963 6.74928 53.6534 7.15264 53.6534C10.5846 53.6493 13.5809 53.4614 17.0521 54.7603C19.9203 55.834 22.4871 57.4881 25.3429 59.5118C28.5629 61.7942 31.8593 63.9611 35.232 66.0123C38.5959 68.0566 42.2302 68.5026 46.1805 68.5357C57.6514 68.6368 69.1284 68.5067 80.6014 68.5646C82.6966 68.5756 84.3872 68.6265 85.6729 68.7174C86.7701 68.7958 87.8088 68.7263 88.789 68.5088" stroke="#7A9326" stroke-width="0.464037"/>
<path d="M85.6173 72.1906C85.2855 72.0846 84.9944 72.0302 84.7438 72.0275C77.2741 71.9697 69.8052 72.0378 62.3369 72.2319C56.5859 72.3826 50.5067 72.3909 46.195 72.2773C43.0976 72.1947 40.791 72.077 39.2753 71.9242C33.4852 71.3378 27.8705 68.6822 23.0158 65.3638C18.9643 62.5968 14.6424 59.2846 10.1015 57.7276C9.27965 57.4467 8.31737 57.369 7.21468 57.4942C7.14723 57.5025 7.10455 57.5397 7.08666 57.6058L6.91113 58.2686" stroke="#7A9326" stroke-width="0.464037"/>
<path d="M58.0542 13.9112C57.8202 14.1287 58.0205 14.1831 58.6551 14.0743C58.7804 14.0413 58.8919 14.0516 58.9897 14.1053L58.9091 14.1115C58.7646 14.1225 58.7625 14.1466 58.9029 14.1838C59.4171 14.3221 59.9746 14.3613 60.4413 14.4646C61.8785 14.7867 63.3116 15.124 64.7406 15.4764C65.9217 15.7676 67.1545 16.2074 68.3625 16.5709C68.4121 16.586 68.4486 16.5702 68.472 16.5234C68.4844 16.4972 68.4837 16.4717 68.4699 16.447C74.4032 18.4913 79.673 21.5956 84.2793 25.76L84.2029 25.7765C84.1285 25.7902 84.1182 25.824 84.1719 25.8777C86.369 28.0459 88.3431 30.2471 90.0364 32.8696C90.2002 33.1216 90.1507 33.1746 89.8877 33.0286C82.8379 29.0845 76.5749 25.1095 68.0879 27.732C67.1573 28.0197 65.0132 28.7782 61.6555 30.0076C57.5173 31.5212 52.7349 32.0085 48.194 32.0684C35.9901 32.2309 23.7724 32.2894 11.5409 32.2439C11.5306 32.2437 11.5206 32.2408 11.5119 32.2354C11.5032 32.23 11.496 32.2224 11.4912 32.2134C11.4864 32.2044 11.484 32.1942 11.4844 32.184C11.4848 32.1738 11.4879 32.1638 11.4934 32.1552C13.5349 29.0894 16.0012 26.4056 18.8922 24.1039C18.9747 24.0378 18.9968 23.9552 18.9582 23.8561C28.6636 16.1455 41.295 12.8973 53.5278 13.4383C53.6586 13.4438 54.0145 13.4851 54.5954 13.5622C55.0786 13.6262 55.5763 13.5787 56.0367 13.6572C56.7072 13.7715 57.3797 13.8561 58.0542 13.9112Z" fill="#0F462B"/>
<path d="M58.054 13.9111C58.2358 13.9153 58.4361 13.9696 58.6549 14.0743C58.0203 14.183 57.82 14.1286 58.054 13.9111Z" fill="#0F462B"/>
<path d="M58.9893 14.1052C59.2681 14.1217 59.5304 14.1011 59.8029 14.1527C62.7641 14.702 65.653 15.4667 68.4696 16.4469C68.4834 16.4717 68.4841 16.4971 68.4717 16.5233C68.4483 16.5701 68.4118 16.5859 68.3622 16.5708C67.1542 16.2074 65.9214 15.7675 64.7403 15.4764C63.3113 15.1239 61.8782 14.7867 60.441 14.4645C59.9743 14.3613 59.4168 14.322 58.9026 14.1837C58.7622 14.1465 58.7643 14.1224 58.9088 14.1114L58.9893 14.1052Z" fill="#0F462B"/>
<path d="M18.9582 23.856C18.9967 23.9551 18.9747 24.0377 18.8921 24.1038C16.0011 26.4055 13.5349 29.0893 11.4933 32.1551C11.4878 32.1637 11.4847 32.1737 11.4843 32.1839C11.484 32.1941 11.4863 32.2043 11.4911 32.2133C11.496 32.2223 11.5031 32.2299 11.5118 32.2353C11.5206 32.2407 11.5306 32.2436 11.5408 32.2438C23.7723 32.2893 35.99 32.2308 48.1939 32.0683C52.7348 32.0084 57.5172 31.5211 61.6554 30.0075C65.0131 28.7781 67.1572 28.0196 68.0878 27.7319C76.5748 25.1094 82.8378 29.0844 89.8876 33.0285C90.1506 33.1745 90.2001 33.1215 90.0363 32.8695C88.343 30.247 86.3689 28.0458 84.1718 25.8776C84.1181 25.8239 84.1284 25.7901 84.2028 25.7764L84.2792 25.7599C89.7844 30.8541 93.6025 37.2266 94.9716 44.6873C91.731 42.2052 88.4669 39.8732 85.1795 37.6912C78.4704 33.2371 70.797 29.7473 62.5145 31.4096C58.9565 32.122 55.4543 33.171 51.8592 33.3238C47.6082 33.5069 43.1513 33.5207 38.4886 33.3651C35.8675 33.2784 29.7751 33.3507 20.2116 33.5819C16.9668 33.6604 13.72 33.7175 10.4711 33.7533C10.3954 33.7547 10.339 33.7878 10.3018 33.8525C10.105 34.1994 9.87919 34.4609 9.62451 34.6371C12.0447 30.4315 15.1559 26.8378 18.9582 23.856Z" fill="#E4DF20"/>
<path d="M94.9717 44.6873C95.2361 45.9153 95.373 47.2761 95.3827 48.7698C89.7825 48.6211 84.7832 46.7193 80.2114 43.7375C76.6906 41.4392 73.2256 38.8683 69.5334 36.9066C64.3366 34.1464 58.8583 33.2344 53.0984 34.1705C50.5234 34.5897 47.8513 35.7213 45.3424 36.7166C42.8093 37.7215 40.182 38.3073 37.4604 38.4739C28.0978 39.0459 17.7668 38.3376 7.73315 38.6308C8.27831 37.1826 8.90881 35.8514 9.62466 34.6372C9.87934 34.461 10.1051 34.1994 10.302 33.8525C10.3391 33.7878 10.3956 33.7547 10.4713 33.7534C13.7202 33.7176 16.967 33.6604 20.2117 33.582C29.7753 33.3507 35.8676 33.2784 38.4887 33.3651C43.1514 33.5207 47.6083 33.5069 51.8594 33.3238C55.4545 33.171 58.9567 32.122 62.5146 31.4096C70.7972 29.7473 78.4706 33.2371 85.1797 37.6912C88.4671 39.8732 91.7311 42.2053 94.9717 44.6873Z" fill="#0F462B"/>
<path d="M95.3826 48.7699L95.2732 52.5013C95.0391 52.3677 94.8843 52.3051 94.8085 52.3133C86.6437 53.2839 80.1432 51.4502 73.3308 47.3161C70.6354 45.6821 68.4038 44.2641 66.6362 43.0623C60.9989 39.2311 54.8315 37.396 48.1341 37.5571C44.9995 37.6314 42.3791 39.0274 39.3312 39.6427C38.2794 39.8561 37.3103 39.9889 36.4237 40.0413C26.7659 40.6256 16.8417 40.0722 7.03101 40.4997L7.73309 38.6309C17.7668 38.3377 28.0978 39.0459 37.4603 38.4739C40.182 38.3074 42.8093 37.7216 45.3423 36.7167C47.8512 35.7213 50.5233 34.5897 53.0983 34.1706C58.8582 33.2344 64.3365 34.1465 69.5334 36.9066C73.2255 38.8684 76.6905 41.4392 80.2113 43.7375C84.7831 46.7194 89.7824 48.6212 95.3826 48.7699Z" fill="#E4DF20"/>
<path d="M95.2729 52.5015L94.8744 55.1715C92.5038 55.0765 90.2262 54.9981 87.7688 55.0042C82.9182 55.0146 77.9912 55.1756 73.1737 54.5334C70.6048 54.1927 69.0582 53.5774 66.9684 52.231C62.7394 49.5066 58.5351 46.7444 54.3556 43.9443C48.9826 40.3451 43.4464 39.1618 37.0863 40.5867C32.9419 41.5159 29.1052 43.585 24.9753 44.5514C22.5662 45.1131 20.0882 45.3189 17.5414 45.1688C14.0103 44.9609 10.1702 44.8391 6.021 44.8033C6.23025 43.3399 6.56684 41.9055 7.03077 40.4999C16.8414 40.0725 26.7656 40.6259 36.4235 40.0415C37.31 39.9892 38.2792 39.8563 39.331 39.643C42.3788 39.0276 44.9993 37.6317 48.1339 37.5574C54.8313 37.3963 60.9986 39.2314 66.636 43.0626C68.4036 44.2644 70.6351 45.6823 73.3306 47.3164C80.1429 51.4504 86.6434 53.2841 94.8083 52.3136C94.884 52.3053 95.0389 52.368 95.2729 52.5015Z" fill="#0F462B"/>
<path d="M94.8747 55.1714L93.9041 59.0205C89.2559 58.6116 84.5788 58.6591 79.6456 58.814C75.6808 58.9379 72.286 58.8381 69.4611 58.5146C66.3926 58.1622 63.5037 57.1613 60.7945 55.5121C57.3253 53.4017 54.4433 51.6052 52.1485 50.1226C45.4807 45.8171 38.7448 43.3288 30.7472 44.3778C26.6627 44.9147 22.7062 46.546 18.7167 46.5378C16.1534 46.5323 13.5894 46.5502 11.0247 46.5915C9.2915 46.6204 7.51976 46.7477 5.70947 46.9735L6.02128 44.8032C10.1705 44.839 14.0106 44.9608 17.5417 45.1687C20.0885 45.3188 22.5665 45.113 24.9756 44.5513C29.1055 43.5849 32.9422 41.5158 37.0866 40.5866C43.4467 39.1617 48.9829 40.345 54.3559 43.9442C58.5354 46.7443 62.7397 49.5065 66.9687 52.2309C69.0585 53.5773 70.6051 54.1926 73.174 54.5333C77.9915 55.1755 82.9185 55.0145 87.7691 55.0041C90.2264 54.9979 92.5041 55.0764 94.8747 55.1714Z" fill="#E4DF20"/>
<path d="M93.9042 59.0203L92.9812 61.3228C91.0732 61.6339 89.2567 61.7833 87.5318 61.7709C83.9731 61.7461 80.4152 61.7289 76.858 61.7193C72.4534 61.7069 67.3798 61.9877 63.8487 61.8555C58.4447 61.6573 54.0731 60.7239 49.4084 57.8784C45.7548 55.651 42.1438 53.3568 38.5756 50.9959C32.7586 47.1468 27.0138 45.5692 20.0714 47.6816C14.9957 49.2262 10.7543 51.0454 5.67241 51.6938C5.54714 50.0088 5.55953 48.4353 5.70959 46.9733C7.51987 46.7476 9.29161 46.6202 11.0248 46.5913C13.5895 46.55 16.1535 46.5321 18.7168 46.5376C22.7063 46.5459 26.6628 44.9146 30.7473 44.3777C38.7449 43.3287 45.4808 45.817 52.1486 50.1224C54.4435 51.6051 57.3255 53.4016 60.7946 55.512C63.5038 57.1612 66.3927 58.162 69.4612 58.5144C72.2861 58.8379 75.6809 58.9377 79.6457 58.8138C84.5789 58.659 89.256 58.6115 93.9042 59.0203Z" fill="#0F462B"/>
<path d="M92.9809 61.3228C92.3325 62.8605 91.5361 64.392 90.5918 65.9173C90.4968 65.7687 90.4018 65.6957 90.3068 65.6984C84.0307 65.9022 77.7546 66.0591 71.4784 66.1693C62.3162 66.3303 54.4259 67.5218 46.6183 63.4848C40.7104 60.4287 35.6306 56.1377 29.572 53.2818C24.7854 51.0255 19.7566 50.256 14.4854 50.9732C13.4061 51.1191 10.8937 51.6732 6.94827 52.6355C6.60755 52.7181 6.33291 52.8812 6.02317 53.0423C5.98135 53.0638 5.94681 53.0972 5.92385 53.1383C5.90089 53.1793 5.89053 53.2262 5.89405 53.2731C5.89757 53.32 5.91483 53.3649 5.94367 53.402C5.97251 53.4392 6.01164 53.4671 6.05621 53.4821C6.38385 53.5964 6.74935 53.6535 7.1527 53.6535C10.5847 53.6494 13.5809 53.4615 17.0521 54.7603C19.9204 55.8341 22.4871 57.4881 25.343 59.5118C28.5629 61.7943 31.8593 63.9611 35.2321 66.0123C38.5959 68.0566 42.2303 68.5027 46.1805 68.5357C57.6514 68.6369 69.1285 68.5068 80.6014 68.5646C82.6967 68.5756 84.3872 68.6266 85.673 68.7174C86.7702 68.7959 87.8089 68.7264 88.789 68.5089L85.6172 72.1907C85.2855 72.0847 84.9943 72.0303 84.7438 72.0276C77.2741 71.9698 69.8051 72.0379 62.3368 72.232C56.5859 72.3827 50.5066 72.391 46.195 72.2774C43.0976 72.1948 40.791 72.0771 39.2753 71.9243C33.4851 71.3379 27.8705 68.6823 23.0158 65.3639C18.9643 62.5969 14.6423 59.2847 10.1015 57.7277C9.27962 57.4468 8.31734 57.3691 7.21465 57.4943C7.14719 57.5026 7.10452 57.5398 7.08662 57.6059L6.9111 58.2687C6.26958 56.106 5.85659 53.9144 5.67212 51.6939C10.754 51.0455 14.9954 49.2262 20.0711 47.6816C27.0135 45.5692 32.7583 47.1468 38.5753 50.9959C42.1435 53.3568 45.7545 55.651 49.4081 57.8784C54.0728 60.7239 58.4444 61.6573 63.8484 61.8555C67.3795 61.9877 72.4531 61.7069 76.8577 61.7193C80.4149 61.7289 83.9728 61.7461 87.5315 61.7709C89.2564 61.7833 91.0729 61.6339 92.9809 61.3228Z" fill="#E4DF20"/>
<path d="M90.5917 65.9173C90.1402 66.9085 89.5392 67.7723 88.789 68.5088C87.8088 68.7263 86.7701 68.7958 85.6729 68.7174C84.3872 68.6265 82.6966 68.5756 80.6014 68.5646C69.1284 68.5067 57.6514 68.6368 46.1805 68.5357C42.2302 68.5026 38.5959 68.0566 35.232 66.0123C31.8593 63.9611 28.5629 61.7942 25.3429 59.5118C22.4871 57.4881 19.9203 55.834 17.0521 54.7603C13.5809 53.4614 10.5846 53.6493 7.15264 53.6534C6.74928 53.6534 6.38378 53.5963 6.05614 53.4821C6.01158 53.467 5.97244 53.4391 5.9436 53.402C5.91477 53.3648 5.89751 53.32 5.89398 53.2731C5.89046 53.2262 5.90082 53.1793 5.92378 53.1382C5.94675 53.0972 5.98129 53.0638 6.0231 53.0422C6.33285 52.8811 6.60749 52.718 6.94821 52.6354C10.8937 51.6731 13.406 51.119 14.4853 50.9731C19.7565 50.2559 24.7854 51.0254 29.572 53.2818C35.6306 56.1376 40.7104 60.4286 46.6183 63.4847C54.4259 67.5218 62.3161 66.3303 71.4784 66.1692C77.7545 66.0591 84.0306 65.9021 90.3067 65.6984C90.4017 65.6956 90.4967 65.7686 90.5917 65.9173Z" fill="#0F462B"/>
<path d="M85.6173 72.1906C85.4865 72.3888 85.2766 72.6256 84.9875 72.9009C70.5183 86.5999 48.6379 89.208 30.4992 82.1995C20.3045 78.2616 12.1169 71.0858 7.81766 61.1017C7.39916 60.1285 7.09698 59.1841 6.91113 58.2686L7.08666 57.6058C7.10455 57.5397 7.14723 57.5025 7.21468 57.4942C8.31737 57.369 9.27965 57.4467 10.1015 57.7276C14.6424 59.2846 18.9643 62.5968 23.0158 65.3638C27.8705 68.6822 33.4852 71.3378 39.2753 71.9242C40.791 72.077 43.0976 72.1947 46.195 72.2773C50.5067 72.3909 56.5859 72.3826 62.3369 72.2319C69.8052 72.0378 77.2741 71.9697 84.7438 72.0275C84.9944 72.0302 85.2855 72.0846 85.6173 72.1906Z" fill="#0F462B"/>
</g>
</svg>
