<svg width="100" height="100" viewBox="0 0 100 100" fill="none" xmlns="http://www.w3.org/2000/svg">
<rect width="100" height="100" fill="#595C62"/>
<path d="M21.8623 40.8203H28.7295C30.0889 40.8203 31.1006 40.8789 31.7647 40.9961C32.4366 41.1055 33.0342 41.3398 33.5577 41.6992C34.0889 42.0586 34.5303 42.5391 34.8819 43.1406C35.2334 43.7344 35.4092 44.4023 35.4092 45.1445C35.4092 45.9492 35.1905 46.6875 34.753 47.3594C34.3233 48.0312 33.7373 48.5352 32.9952 48.8711C34.042 49.1758 34.8467 49.6953 35.4092 50.4297C35.9717 51.1641 36.253 52.0273 36.253 53.0195C36.253 53.8008 36.0694 54.5625 35.7022 55.3047C35.3428 56.0391 34.8467 56.6289 34.2139 57.0742C33.5889 57.5117 32.8155 57.7812 31.8936 57.8828C31.3155 57.9453 29.9209 57.9844 27.71 58H21.8623V40.8203ZM25.3311 43.6797V47.6523H27.6045C28.9561 47.6523 29.7959 47.6328 30.1241 47.5938C30.7178 47.5234 31.1827 47.3203 31.5186 46.9844C31.8623 46.6406 32.0342 46.1914 32.0342 45.6367C32.0342 45.1055 31.8858 44.6758 31.5889 44.3477C31.2998 44.0117 30.8662 43.8086 30.2881 43.7383C29.9444 43.6992 28.9561 43.6797 27.3233 43.6797H25.3311ZM25.3311 50.5117V55.1055H28.542C29.792 55.1055 30.585 55.0703 30.9209 55C31.4366 54.9062 31.8545 54.6797 32.1748 54.3203C32.503 53.9531 32.667 53.4648 32.667 52.8555C32.667 52.3398 32.542 51.9023 32.292 51.543C32.042 51.1836 31.6787 50.9219 31.2022 50.7578C30.7334 50.5938 29.71 50.5117 28.1319 50.5117H25.3311ZM39.5309 40.8203H42.9997V50.125C42.9997 51.6016 43.0427 52.5586 43.1286 52.9961C43.277 53.6992 43.6286 54.2656 44.1833 54.6953C44.7458 55.1172 45.5114 55.3281 46.4802 55.3281C47.4645 55.3281 48.2067 55.1289 48.7067 54.7305C49.2067 54.3242 49.5075 53.8281 49.6091 53.2422C49.7106 52.6562 49.7614 51.6836 49.7614 50.3242V40.8203H53.2302V49.8438C53.2302 51.9062 53.1364 53.3633 52.9489 54.2148C52.7614 55.0664 52.4137 55.7852 51.9059 56.3711C51.4059 56.957 50.7341 57.4258 49.8903 57.7773C49.0466 58.1211 47.945 58.293 46.5856 58.293C44.945 58.293 43.6989 58.1055 42.8473 57.7305C42.0036 57.3477 41.3356 56.8555 40.8434 56.2539C40.3512 55.6445 40.027 55.0078 39.8708 54.3438C39.6442 53.3594 39.5309 51.9062 39.5309 49.9844V40.8203ZM57.2933 58V40.8203H60.6683L67.6995 52.293V40.8203H70.9222V58H67.4417L60.5159 46.7969V58H57.2933ZM74.8564 58V40.8203H78.3252V58H74.8564Z" fill="#F8F8F8"/>
</svg>
