<svg width="100" height="100" viewBox="0 0 100 100" fill="none" xmlns="http://www.w3.org/2000/svg">
<rect width="100" height="100" fill="#595C62"/>
<path d="M17.8662 40.8203H24.7334C26.0928 40.8203 27.1045 40.8789 27.7686 40.9961C28.4405 41.1055 29.0381 41.3398 29.5616 41.6992C30.0928 42.0586 30.5342 42.5391 30.8858 43.1406C31.2373 43.7344 31.4131 44.4023 31.4131 45.1445C31.4131 45.9492 31.1944 46.6875 30.7569 47.3594C30.3272 48.0312 29.7412 48.5352 28.9991 48.8711C30.0459 49.1758 30.8506 49.6953 31.4131 50.4297C31.9756 51.1641 32.2569 52.0273 32.2569 53.0195C32.2569 53.8008 32.0733 54.5625 31.7061 55.3047C31.3467 56.0391 30.8506 56.6289 30.2178 57.0742C29.5928 57.5117 28.8194 57.7812 27.8975 57.8828C27.3194 57.9453 25.9248 57.9844 23.7139 58H17.8662V40.8203ZM21.335 43.6797V47.6523H23.6084C24.96 47.6523 25.7998 47.6328 26.128 47.5938C26.7217 47.5234 27.1866 47.3203 27.5225 46.9844C27.8662 46.6406 28.0381 46.1914 28.0381 45.6367C28.0381 45.1055 27.8897 44.6758 27.5928 44.3477C27.3037 44.0117 26.8702 43.8086 26.292 43.7383C25.9483 43.6992 24.96 43.6797 23.3272 43.6797H21.335ZM21.335 50.5117V55.1055H24.5459C25.7959 55.1055 26.5889 55.0703 26.9248 55C27.4405 54.9062 27.8584 54.6797 28.1787 54.3203C28.5069 53.9531 28.6709 53.4648 28.6709 52.8555C28.6709 52.3398 28.5459 51.9023 28.2959 51.543C28.0459 51.1836 27.6827 50.9219 27.2061 50.7578C26.7373 50.5938 25.7139 50.5117 24.1358 50.5117H21.335ZM35.5348 40.8203H39.0036V50.125C39.0036 51.6016 39.0466 52.5586 39.1325 52.9961C39.2809 53.6992 39.6325 54.2656 40.1872 54.6953C40.7497 55.1172 41.5153 55.3281 42.4841 55.3281C43.4684 55.3281 44.2106 55.1289 44.7106 54.7305C45.2106 54.3242 45.5114 53.8281 45.613 53.2422C45.7145 52.6562 45.7653 51.6836 45.7653 50.3242V40.8203H49.2341V49.8438C49.2341 51.9062 49.1403 53.3633 48.9528 54.2148C48.7653 55.0664 48.4177 55.7852 47.9098 56.3711C47.4098 56.957 46.738 57.4258 45.8942 57.7773C45.0505 58.1211 43.9489 58.293 42.5895 58.293C40.9489 58.293 39.7028 58.1055 38.8512 57.7305C38.0075 57.3477 37.3395 56.8555 36.8473 56.2539C36.3552 55.6445 36.0309 55.0078 35.8747 54.3438C35.6481 53.3594 35.5348 51.9062 35.5348 49.9844V40.8203ZM52.3831 52.4102L55.7581 52.082C55.9613 53.2148 56.3714 54.0469 56.9886 54.5781C57.6136 55.1094 58.4534 55.375 59.5081 55.375C60.6253 55.375 61.4652 55.1406 62.0277 54.6719C62.598 54.1953 62.8831 53.6406 62.8831 53.0078C62.8831 52.6016 62.762 52.2578 62.5198 51.9766C62.2855 51.6875 61.8714 51.4375 61.2777 51.2266C60.8714 51.0859 59.9456 50.8359 58.5003 50.4766C56.6409 50.0156 55.3363 49.4492 54.5863 48.7773C53.5316 47.832 53.0042 46.6797 53.0042 45.3203C53.0042 44.4453 53.2503 43.6289 53.7425 42.8711C54.2425 42.1055 54.9573 41.5234 55.887 41.125C56.8245 40.7266 57.9534 40.5273 59.2738 40.5273C61.43 40.5273 63.0511 41 64.137 41.9453C65.2308 42.8906 65.805 44.1523 65.8597 45.7305L62.3909 45.8828C62.2425 45 61.9222 44.3672 61.43 43.9844C60.9456 43.5938 60.2152 43.3984 59.2386 43.3984C58.2308 43.3984 57.4417 43.6055 56.8714 44.0195C56.5042 44.2852 56.3206 44.6406 56.3206 45.0859C56.3206 45.4922 56.4925 45.8398 56.8363 46.1289C57.2738 46.4961 58.3363 46.8789 60.0238 47.2773C61.7113 47.6758 62.9573 48.0898 63.762 48.5195C64.5745 48.9414 65.2073 49.5234 65.6605 50.2656C66.1214 51 66.3519 51.9102 66.3519 52.9961C66.3519 53.9805 66.0784 54.9023 65.5316 55.7617C64.9847 56.6211 64.2113 57.2617 63.2113 57.6836C62.2113 58.0977 60.9652 58.3047 59.473 58.3047C57.3011 58.3047 55.6331 57.8047 54.4691 56.8047C53.305 55.7969 52.6097 54.332 52.3831 52.4102ZM74.0127 58L67.872 40.8203H71.6338L75.9814 53.5352L80.1884 40.8203H83.8681L77.7158 58H74.0127Z" fill="#F8F8F8"/>
</svg>
