<svg width="100" height="100" viewBox="0 0 100 100" fill="none" xmlns="http://www.w3.org/2000/svg">
<rect width="100" height="100" fill="#B6902F"/>
<path d="M55.6514 45.1995C48.6704 50.1953 42.2099 56.2149 36.4581 62.5776C36.2681 62.7886 36.162 63.159 35.9514 63.2773" stroke="#374926" stroke-width="0.343001"/>
<path d="M43.7832 76.6029C44.1107 76.7046 44.3726 76.6721 44.5689 76.5051" stroke="#374926" stroke-width="0.343001"/>
<path d="M44.5691 76.5053C45.57 76.4447 46.56 76.244 47.5391 75.9033" stroke="#B19D8F" stroke-width="0.343001"/>
<path d="M47.5388 75.9032L48.9357 75.6648" stroke="#374926" stroke-width="0.343001"/>
<path d="M48.9358 75.6648L51.0345 74.9583" stroke="#B19D8F" stroke-width="0.343001"/>
<path d="M51.0344 74.9582L53.7391 73.864" stroke="#374926" stroke-width="0.343001"/>
<path d="M53.7393 73.8639C54.1261 73.7782 54.5159 73.6021 54.9085 73.3357" stroke="#B19D8F" stroke-width="0.343001"/>
<path d="M54.9082 73.3358L57.2004 72.1147" stroke="#374926" stroke-width="0.343001"/>
<path d="M57.2004 72.1148C57.4188 72.0714 57.5766 71.9925 57.6738 71.8782" stroke="#B19D8F" stroke-width="0.343001"/>
<path d="M57.6733 71.8781C63.2289 68.3966 67.1838 63.5723 69.5382 57.4051C69.5604 57.3451 69.5484 57.2954 69.5638 57.2319" stroke="#374926" stroke-width="0.343001"/>
<path d="M57.6732 71.8781C52.8218 67.985 46.9638 65.735 40.8919 64.4418C40.8784 64.4387 40.866 64.4319 40.8561 64.4221C40.8463 64.4124 40.8392 64.4001 40.8359 64.3866C40.8325 64.3732 40.8329 64.359 40.8371 64.3457C40.8412 64.3325 40.849 64.3206 40.8594 64.3115L41.9327 63.4094C41.9841 63.366 42.0429 63.3482 42.109 63.3562C42.4274 63.3974 42.6568 63.4454 42.7972 63.5003C49.0129 65.9253 54.1656 67.4174 59.7941 69.357C60.1422 69.4771 60.1776 69.4159 59.9003 69.1735C55.2389 65.097 48.953 63.4746 42.9376 62.8143C42.9217 62.8124 42.9067 62.8058 42.8946 62.7953C42.8825 62.7849 42.8737 62.771 42.8695 62.7555C42.8653 62.7401 42.8657 62.7237 42.8709 62.7085C42.876 62.6933 42.8855 62.68 42.8982 62.6702L44.0674 61.7767C44.1245 61.7333 44.1878 61.7178 44.2574 61.7304C47.6897 62.3735 51.0774 63.1607 54.5285 63.7267C56.989 64.1303 59.3234 64.8277 61.5317 65.819C61.5591 65.8306 61.5897 65.8324 61.6184 65.8241C61.647 65.8158 61.672 65.7979 61.689 65.7734C61.7061 65.7489 61.7142 65.7193 61.712 65.6895C61.7099 65.6597 61.6976 65.6315 61.6772 65.6098C60.5143 64.4081 59.1493 63.546 57.5824 63.0235C53.6469 61.7098 49.3416 61.2056 45.0791 61.1696C45.0639 61.1697 45.049 61.165 45.0366 61.1561C45.0242 61.1472 45.015 61.1346 45.0102 61.1201C45.0055 61.1056 45.0054 61.0899 45.0101 61.0754C45.0148 61.0609 45.024 61.0482 45.0363 61.0393L46.4965 59.9502C46.5524 59.9079 46.6146 59.8914 46.6831 59.9005C50.064 60.3138 53.4535 60.5796 56.8207 61.1216C58.7699 61.436 60.7317 61.6435 62.706 61.7441C62.868 61.7521 63.0135 61.743 63.1425 61.7167C63.1672 61.7116 63.1895 61.6983 63.2058 61.679C63.2221 61.6597 63.2315 61.6355 63.2324 61.6103C63.2334 61.585 63.2259 61.5602 63.2112 61.5397C63.1965 61.5192 63.1753 61.5042 63.1511 61.4972C58.2894 60.1046 52.7893 58.6485 47.7034 59.314C47.5915 59.3277 47.5727 59.2922 47.6469 59.2076C48.6397 58.0689 49.6634 58.6005 50.9216 58.6691C55.1933 58.9012 59.3416 59.4197 63.3668 60.2246C63.7365 60.299 63.7593 60.2395 63.4352 60.0463C59.2652 57.5561 54.6466 57.2594 49.7901 57.8151C49.7761 57.8163 49.7621 57.8132 49.7499 57.8063C49.7377 57.7993 49.728 57.7887 49.722 57.7759C49.716 57.7632 49.7141 57.749 49.7165 57.7351C49.7189 57.7212 49.7254 57.7084 49.7353 57.6984C50.6015 56.8684 51.163 56.9936 52.2312 57.0519C55.6503 57.2382 59.066 57.4743 62.4783 57.7602C63.1117 57.8139 63.7228 57.9111 64.3117 58.0517C64.3253 58.055 64.3396 58.0535 64.3522 58.0475C64.3649 58.0416 64.3751 58.0315 64.3813 58.0189C64.3875 58.0064 64.3892 57.9921 64.3862 57.9784C64.3832 57.9647 64.3756 57.9525 64.3648 57.9437C61.3399 55.5221 55.5299 55.9508 51.9607 56.4208C51.953 56.422 51.9451 56.4206 51.9383 56.4168C51.9316 56.4129 51.9262 56.4069 51.9231 56.3996C51.9201 56.3922 51.9194 56.384 51.9212 56.3761C51.9231 56.3681 51.9273 56.3609 51.9333 56.3556C52.5205 55.8754 53.0597 55.6216 53.8626 55.5804C57.5174 55.3918 60.9154 55.3129 64.298 55.7948C64.3904 55.8074 64.4041 55.7799 64.3391 55.7125C62.9576 54.2839 59.6486 54.5583 57.6098 54.6612C56.6318 54.7092 55.6492 54.7818 54.662 54.879C54.6458 54.8824 54.629 54.8793 54.615 54.8705C54.601 54.8616 54.5911 54.8476 54.5873 54.8315C54.5835 54.8153 54.5861 54.7984 54.5946 54.7842C54.6032 54.77 54.6169 54.7597 54.6329 54.7555C54.9411 54.6457 55.2612 54.4897 55.5984 54.4605C57.4677 54.3016 59.3154 54.197 61.1414 54.1467C61.1622 54.1462 61.1823 54.1383 61.1978 54.1243C61.2133 54.1103 61.2234 54.0912 61.2261 54.0705C61.2287 54.0497 61.2239 54.0287 61.2125 54.0112C61.201 53.9937 61.1837 53.9809 61.1636 53.9752C60.0269 53.6402 58.8657 53.5161 57.68 53.603C57.6632 53.6046 57.6465 53.5999 57.6331 53.5898C57.6197 53.5796 57.6106 53.5649 57.6074 53.5482C57.6043 53.5315 57.6073 53.514 57.6159 53.4992C57.6246 53.4843 57.6382 53.4731 57.6543 53.4675C59.9037 52.7324 62.2004 52.5254 64.5445 52.8467C64.6381 52.8604 64.6461 52.8398 64.5685 52.7849C63.7297 52.2018 62.2575 52.1178 61.2646 52.1127C61.1197 52.1127 61.1128 52.0824 61.2441 52.0218C62.1222 51.6187 63.3051 51.4027 64.2792 51.1094C64.2944 51.1045 64.3074 51.0944 64.316 51.0809C64.3245 51.0673 64.3281 51.0513 64.3261 51.0354C64.324 51.0195 64.3165 51.0048 64.3048 50.9939C64.2931 50.983 64.278 50.9765 64.2621 50.9756C61.9562 50.9156 59.3491 51.8588 57.3496 52.9719C56.9525 53.1925 56.5508 53.3835 56.1445 53.5447C56.1307 53.5512 56.1151 53.5522 56.1006 53.5475C56.0862 53.5429 56.074 53.5329 56.0666 53.5196C56.0592 53.5063 56.0572 53.4907 56.0608 53.476C56.0644 53.4612 56.0736 53.4484 56.0863 53.4401C56.7265 52.9736 58.375 51.9669 58.6917 51.2226C58.7005 51.2027 58.7027 51.1806 58.6982 51.1593C58.6936 51.1381 58.6825 51.1188 58.6663 51.1041C58.6502 51.0894 58.6297 51.0801 58.6079 51.0773C58.5861 51.0746 58.5639 51.0786 58.5445 51.0888L53.8831 53.5756C53.8693 53.5828 53.8533 53.5848 53.838 53.5812C53.8228 53.5776 53.8094 53.5686 53.8003 53.5559C53.7911 53.5432 53.7869 53.5276 53.7882 53.512C53.7896 53.4964 53.7966 53.4818 53.8078 53.4709L54.7647 52.5723C54.7769 52.5596 54.7843 52.5431 54.7859 52.5256C54.7874 52.508 54.7829 52.4905 54.7731 52.4759C54.7633 52.4613 54.7488 52.4504 54.732 52.4452C54.7152 52.44 54.6972 52.4406 54.6808 52.4471L53.5425 52.9582C53.4934 52.9799 53.4478 52.9742 53.4055 52.941L53.2241 52.8004C53.1796 52.7661 53.1333 52.7621 53.0854 52.7884L50.771 54.0095C50.7582 54.0164 50.7435 54.0187 50.7293 54.016C50.715 54.0134 50.7021 54.0059 50.6927 53.9949C50.6833 53.9838 50.678 53.9699 50.6776 53.9554C50.6772 53.9409 50.6817 53.9267 50.6905 53.9151L51.579 52.7352C51.5855 52.7254 51.5885 52.7136 51.5874 52.7019C51.5863 52.6902 51.5812 52.6792 51.573 52.6707C51.5648 52.6623 51.5539 52.6569 51.5422 52.6556C51.5305 52.6542 51.5187 52.6569 51.5088 52.6632L46.6608 56.1721C46.6509 56.1807 46.6379 56.185 46.6247 56.1841C46.6115 56.1831 46.5993 56.1769 46.5907 56.1669C46.582 56.1569 46.5777 56.1439 46.5787 56.1307C46.5797 56.1175 46.5858 56.1053 46.5958 56.0966L48.7048 53.8397C48.7118 53.8338 48.7162 53.8253 48.717 53.8161C48.7178 53.807 48.715 53.7978 48.7091 53.7908C48.7032 53.7837 48.6947 53.7793 48.6856 53.7785C48.6764 53.7777 48.6673 53.7806 48.6603 53.7865C44.8412 56.3436 41.4483 59.3894 39.0123 63.3065C39.0092 63.3113 39.0042 63.3148 38.9984 63.3163C38.9927 63.3177 38.9867 63.317 38.9817 63.3143C38.9767 63.3116 38.9731 63.307 38.9718 63.3017C38.9705 63.2964 38.9715 63.2907 38.9747 63.2859C40.3692 60.463 42.1963 57.9563 44.456 55.7656C44.4604 55.7611 44.463 55.7551 44.4633 55.7487C44.4636 55.7424 44.4615 55.7361 44.4574 55.7312C44.4534 55.7263 44.4477 55.7231 44.4414 55.7222C44.4351 55.7212 44.4287 55.7227 44.4235 55.7262C41.4494 57.6779 38.8349 60.0166 36.5798 62.7423C36.1107 63.3099 36.9718 66.613 37.208 67.3899C37.3998 68.0245 37.8334 68.6047 38.509 69.1307C41.3324 71.3293 44.0349 73.094 46.6163 74.4249C47.3536 74.8056 48.1268 75.2189 48.9359 75.6648" stroke="#85AB96" stroke-width="0.343001"/>
<path d="M47.5389 75.9032C44.5603 73.8675 41.7546 71.8678 38.4576 70.0533C38.3834 70.0121 38.3663 70.0293 38.4062 70.1047C39.8396 72.7767 41.8938 74.9102 44.5689 76.5051" stroke="#85AB96" stroke-width="0.343001"/>
<path d="M57.2007 72.1148C51.6406 69.9968 46.1028 67.8256 40.8765 64.9924C40.7693 64.9341 40.6163 64.8889 40.4178 64.8569C40.3948 64.8531 40.3712 64.8543 40.3488 64.8606C40.3263 64.8668 40.3055 64.8778 40.2877 64.8929L39.3239 65.7384C39.2246 65.8253 39.2389 65.8847 39.3667 65.9168C45.0089 67.3539 50.1394 70.0156 54.9086 73.3359" stroke="#85AB96" stroke-width="0.343001"/>
<path d="M53.7391 73.8641C48.3057 71.6689 43.4132 69.6212 38.6885 66.433C38.6654 66.4178 38.638 66.4105 38.6107 66.4124C38.5835 66.4143 38.5579 66.4251 38.5379 66.4433L37.7316 67.1688C37.718 67.1807 37.7076 67.1959 37.7014 67.213C37.6952 67.23 37.6933 67.2484 37.6961 67.2663C37.6988 67.2843 37.706 67.3012 37.717 67.3156C37.728 67.3301 37.7424 67.3415 37.759 67.3488C42.4358 69.4686 46.9242 71.8284 51.0344 74.9583" stroke="#85AB96" stroke-width="0.343001"/>
<path d="M72.8179 34.3999C76.8733 47.7067 76.7535 64.217 66.9035 75.1622C58.5309 84.4644 44.5742 85.2533 33.1339 82.8283C31.1841 82.415 28.3904 81.5249 26.2762 81.1767C23.0135 80.6382 19.0985 80.3415 16.1216 82.1183C16.1076 82.1265 16.0915 82.1304 16.0753 82.1294C16.0591 82.1284 16.0436 82.1225 16.0309 82.1124C16.0181 82.1024 16.0086 82.0888 16.0038 82.0733C15.9989 82.0578 15.9987 82.0412 16.0034 82.0256C16.8069 79.4851 17.7712 77.0264 18.8965 74.6494C23.5065 64.9168 29.9841 56.1136 37.4341 48.379C50.7471 34.5594 66.9514 23.6606 84.1966 15.3908C84.2879 15.3462 84.3866 15.2776 84.4927 15.185C84.6148 15.0787 84.7261 15.0187 84.8265 15.0049C85.0114 14.9809 85.0485 15.0444 84.9378 15.1953C81.4548 19.923 78.1697 24.7353 75.0827 29.6322C74.3375 30.8156 73.5654 32.2728 72.7666 34.0038C72.7392 34.0644 72.7563 34.1964 72.8179 34.3999ZM55.6515 45.1993C48.6706 50.1951 42.2101 56.2148 36.4583 62.5775C36.2683 62.7884 36.1622 63.1589 35.9516 63.2772C32.4389 67.3749 29.4106 71.7608 26.8668 76.4347C26.8143 76.5296 26.8411 76.5851 26.9473 76.6011C32.48 77.4597 38.0366 77.5066 43.6172 76.7417C43.6469 76.7383 43.7023 76.692 43.7833 76.6028C44.1108 76.7046 44.3727 76.672 44.569 76.505C45.5699 76.4444 46.5599 76.2438 47.5391 75.9031L48.936 75.6647L51.0347 74.9581L53.7394 73.8639C54.1263 73.7782 54.516 73.6021 54.9086 73.3357L57.2008 72.1146C57.4187 72.0712 57.5762 71.9923 57.6732 71.878C63.2287 68.3965 67.1837 63.5722 69.538 57.405C69.5603 57.345 69.5483 57.2953 69.5637 57.2318L69.6544 57.1615C69.6868 57.1357 69.7112 57.1018 69.7246 57.0637C72.2599 49.7887 72.7392 42.1535 72.075 34.5183C72.0739 34.5072 72.07 34.4966 72.0638 34.4874C72.0575 34.4782 72.0491 34.4707 72.0392 34.4656C72.0294 34.4605 72.0184 34.458 72.0073 34.4582C71.9962 34.4584 71.9854 34.4614 71.9757 34.4668C66.3928 37.6201 61.0262 41.1148 55.8758 44.9507C55.7605 45.0364 55.6858 45.1193 55.6515 45.1993Z" fill="#623B1F"/>
<path d="M55.6514 45.1995C62.2642 46.2765 67.6377 50.7852 69.5635 57.2319C69.5481 57.2954 69.5601 57.3451 69.5379 57.4052C67.1835 63.5723 63.2286 68.3966 57.673 71.8781C52.8217 67.985 46.9637 65.7349 40.8918 64.4418C40.8783 64.4387 40.8659 64.4319 40.856 64.4221C40.8461 64.4124 40.8391 64.4001 40.8358 64.3866C40.8324 64.3731 40.8328 64.359 40.837 64.3457C40.8411 64.3325 40.8488 64.3206 40.8593 64.3115L41.9326 63.4094C41.984 63.3659 42.0427 63.3482 42.1089 63.3562C42.4273 63.3974 42.6567 63.4454 42.7971 63.5003C49.0128 65.9253 54.1655 67.4174 59.794 69.357C60.1421 69.4771 60.1775 69.4159 59.9002 69.1735C55.2388 65.097 48.9529 63.4746 42.9375 62.8143C42.9216 62.8124 42.9066 62.8058 42.8945 62.7953C42.8823 62.7848 42.8736 62.771 42.8694 62.7555C42.8651 62.7401 42.8656 62.7237 42.8707 62.7085C42.8759 62.6933 42.8854 62.68 42.8981 62.6702L44.0673 61.7767C44.1243 61.7333 44.1877 61.7178 44.2573 61.7304C47.6895 62.3735 51.0773 63.1607 54.5284 63.7267C56.9889 64.1303 59.3233 64.8277 61.5315 65.819C61.559 65.8306 61.5896 65.8324 61.6183 65.8241C61.6469 65.8158 61.6718 65.7979 61.6889 65.7734C61.7059 65.7489 61.7141 65.7193 61.7119 65.6895C61.7098 65.6597 61.6974 65.6315 61.677 65.6097C60.5141 64.4081 59.1492 63.546 57.5823 63.0235C53.6468 61.7098 49.3415 61.2056 45.079 61.1696C45.0637 61.1697 45.0489 61.165 45.0365 61.1561C45.0241 61.1472 45.0149 61.1346 45.0101 61.1201C45.0053 61.1056 45.0053 61.0899 45.01 61.0754C45.0147 61.0609 45.0238 61.0482 45.0362 61.0393L46.4964 59.9502C46.5523 59.9079 46.6145 59.8913 46.683 59.9005C50.0639 60.3138 53.4533 60.5796 56.8205 61.1216C58.7698 61.436 60.7315 61.6435 62.7059 61.7441C62.8679 61.7521 63.0134 61.743 63.1424 61.7167C63.1671 61.7115 63.1894 61.6983 63.2057 61.679C63.2219 61.6597 63.2313 61.6355 63.2323 61.6103C63.2333 61.585 63.2258 61.5602 63.2111 61.5397C63.1963 61.5192 63.1752 61.5042 63.151 61.4972C58.2893 60.1046 52.7891 58.6485 47.7032 59.314C47.5914 59.3277 47.5726 59.2922 47.6468 59.2076C48.6396 58.0689 49.6633 58.6005 50.9215 58.6691C55.1931 58.9012 59.3415 59.4197 63.3666 60.2246C63.7364 60.2989 63.7592 60.2395 63.4351 60.0463C59.2651 57.5561 54.6465 57.2594 49.79 57.815C49.776 57.8163 49.762 57.8132 49.7498 57.8062C49.7376 57.7992 49.7279 57.7887 49.7219 57.7759C49.7159 57.7632 49.714 57.7489 49.7164 57.7351C49.7187 57.7212 49.7253 57.7084 49.7352 57.6984C50.6014 56.8684 51.1629 56.9936 52.2311 57.0519C55.6502 57.2382 59.0659 57.4743 62.4782 57.7602C63.1116 57.8139 63.7227 57.9111 64.3116 58.0517C64.3252 58.055 64.3395 58.0535 64.3521 58.0475C64.3648 58.0416 64.375 58.0315 64.3812 58.0189C64.3873 58.0064 64.3891 57.9921 64.3861 57.9784C64.3831 57.9647 64.3755 57.9525 64.3647 57.9437C61.3398 55.5221 55.5298 55.9508 51.9606 56.4207C51.9528 56.422 51.945 56.4206 51.9382 56.4167C51.9314 56.4129 51.9261 56.4069 51.923 56.3996C51.9199 56.3922 51.9193 56.384 51.9211 56.376C51.9229 56.3681 51.9272 56.3609 51.9332 56.3556C52.5204 55.8754 53.0596 55.6216 53.8625 55.5804C57.5173 55.3917 60.9153 55.3128 64.2979 55.7948C64.3903 55.8073 64.404 55.7799 64.339 55.7124C62.9575 54.2838 59.6485 54.5582 57.6097 54.6611C56.6317 54.7092 55.6491 54.7818 54.6619 54.879C54.6457 54.8824 54.6288 54.8793 54.6149 54.8705C54.6009 54.8616 54.591 54.8476 54.5872 54.8315C54.5834 54.8153 54.586 54.7983 54.5945 54.7841C54.6031 54.7699 54.6168 54.7597 54.6328 54.7555C54.9409 54.6457 55.2611 54.4896 55.5983 54.4605C57.4676 54.3016 59.3153 54.197 61.1412 54.1466C61.1621 54.1462 61.1821 54.1383 61.1977 54.1243C61.2132 54.1103 61.2232 54.0912 61.2259 54.0705C61.2286 54.0497 61.2238 54.0287 61.2124 54.0112C61.2009 53.9937 61.1836 53.9809 61.1635 53.9751C60.0268 53.6401 58.8656 53.5161 57.6799 53.603C57.663 53.6046 57.6464 53.5998 57.633 53.5897C57.6196 53.5796 57.6105 53.5648 57.6073 53.5481C57.6042 53.5315 57.6072 53.514 57.6158 53.4992C57.6245 53.4843 57.6381 53.473 57.6542 53.4675C59.9036 52.7323 62.2003 52.5254 64.5444 52.8467C64.638 52.8604 64.646 52.8398 64.5684 52.7849C63.7296 52.2018 62.2574 52.1178 61.2645 52.1126C61.1196 52.1126 61.1127 52.0824 61.244 52.0218C62.1221 51.6187 63.305 51.4026 64.2791 51.1094C64.2943 51.1045 64.3073 51.0944 64.3158 51.0808C64.3244 51.0673 64.328 51.0512 64.3259 51.0354C64.3239 51.0195 64.3164 51.0048 64.3047 50.9939C64.293 50.983 64.2779 50.9765 64.2619 50.9756C61.9561 50.9156 59.3489 51.8588 57.3495 52.9719C56.9524 53.1925 56.5506 53.3835 56.1444 53.5447C56.1306 53.5512 56.115 53.5522 56.1005 53.5475C56.0861 53.5429 56.0739 53.5329 56.0665 53.5196C56.0591 53.5063 56.057 53.4907 56.0607 53.4759C56.0643 53.4612 56.0734 53.4484 56.0862 53.4401C56.7264 52.9736 58.3749 51.9669 58.6916 51.2226C58.7003 51.2026 58.7026 51.1805 58.6981 51.1593C58.6935 51.1381 58.6824 51.1188 58.6662 51.1041C58.65 51.0894 58.6296 51.08 58.6078 51.0773C58.586 51.0746 58.5638 51.0786 58.5444 51.0888L53.883 53.5755C53.8692 53.5828 53.8531 53.5848 53.8379 53.5812C53.8227 53.5776 53.8093 53.5686 53.8002 53.5559C53.791 53.5432 53.7867 53.5276 53.7881 53.512C53.7895 53.4964 53.7965 53.4818 53.8077 53.4709L54.7646 52.5723C54.7768 52.5596 54.7842 52.5431 54.7857 52.5255C54.7873 52.508 54.7828 52.4905 54.773 52.4759C54.7632 52.4612 54.7487 52.4504 54.7319 52.4452C54.7151 52.4399 54.6971 52.4406 54.6807 52.4471L53.5424 52.9581C53.4933 52.9799 53.4476 52.9742 53.4054 52.941L53.2239 52.8004C53.1794 52.7661 53.1332 52.7621 53.0853 52.7884L50.7709 54.0094C50.7581 54.0163 50.7434 54.0187 50.7292 54.016C50.7149 54.0133 50.702 54.0059 50.6926 53.9948C50.6832 53.9838 50.6779 53.9699 50.6775 53.9554C50.6771 53.9409 50.6816 53.9267 50.6904 53.9151L51.5789 52.7352C51.5854 52.7254 51.5884 52.7136 51.5873 52.7019C51.5862 52.6901 51.5811 52.6791 51.5729 52.6707C51.5647 52.6623 51.5538 52.6569 51.5421 52.6555C51.5304 52.6542 51.5186 52.6569 51.5087 52.6632L46.6607 56.1721C46.6507 56.1807 46.6377 56.185 46.6246 56.1841C46.6114 56.1831 46.5992 56.1769 46.5905 56.1669C46.5819 56.1569 46.5776 56.1439 46.5786 56.1307C46.5795 56.1175 46.5857 56.1052 46.5957 56.0966L48.7047 53.8397C48.7117 53.8337 48.7161 53.8253 48.7169 53.8161C48.7177 53.8069 48.7149 53.7978 48.709 53.7908C48.7031 53.7837 48.6946 53.7793 48.6854 53.7785C48.6763 53.7777 48.6672 53.7806 48.6602 53.7865C44.841 56.3436 41.4482 59.3894 39.0122 63.3065C39.0091 63.3113 39.0041 63.3148 38.9983 63.3163C38.9926 63.3177 38.9866 63.317 38.9816 63.3143C38.9766 63.3116 38.973 63.307 38.9717 63.3017C38.9704 63.2964 38.9714 63.2907 38.9745 63.2859C40.3691 60.463 42.1962 57.9562 44.4559 55.7656C44.4603 55.7611 44.4629 55.755 44.4632 55.7487C44.4634 55.7424 44.4614 55.7361 44.4573 55.7312C44.4533 55.7263 44.4476 55.7231 44.4413 55.7222C44.435 55.7212 44.4286 55.7227 44.4233 55.7262C41.4493 57.6778 38.8347 60.0165 36.5797 62.7423C36.1106 63.3099 36.9717 66.613 37.2079 67.3899C37.3996 68.0245 37.8333 68.6047 38.5089 69.1306C41.3323 71.3293 44.0348 73.094 46.6162 74.4249C47.3535 74.8056 48.1266 75.2189 48.9358 75.6648L47.5389 75.9032C44.5603 73.8675 41.7546 71.8678 38.4576 70.0533C38.3834 70.0122 38.3663 70.0293 38.4062 70.1048C39.8396 72.7768 41.8938 74.9102 44.5689 76.5052C44.3726 76.6721 44.1107 76.7047 43.7831 76.6029C39.1269 73.4325 36.5163 68.9906 35.9514 63.2773C36.162 63.159 36.2681 62.7886 36.4581 62.5776C42.2099 56.2149 48.6704 50.1953 55.6514 45.1995Z" fill="#0B572C"/>
<path d="M57.6732 71.8781C57.5762 71.9924 57.4187 72.0713 57.2007 72.1148C51.6406 69.9967 46.1028 67.8255 40.8765 64.9924C40.7692 64.934 40.6163 64.8889 40.4177 64.8569C40.3947 64.8531 40.3712 64.8543 40.3487 64.8605C40.3263 64.8668 40.3054 64.8778 40.2876 64.8929L39.3239 65.7384C39.2246 65.8253 39.2388 65.8847 39.3667 65.9167C45.0089 67.3539 50.1393 70.0156 54.9085 73.3359C54.5159 73.6023 54.1262 73.7783 53.7393 73.8641C48.3059 71.6689 43.4135 69.6212 38.6888 66.433C38.6656 66.4177 38.6383 66.4105 38.611 66.4123C38.5837 66.4142 38.5581 66.4251 38.5381 66.4433L37.7319 67.1687C37.7182 67.1807 37.7078 67.1959 37.7016 67.2129C37.6954 67.23 37.6936 67.2483 37.6963 67.2663C37.699 67.2842 37.7062 67.3012 37.7172 67.3156C37.7282 67.33 37.7427 67.3414 37.7592 67.3488C42.436 69.4685 46.9245 71.8284 51.0346 74.9583L48.9359 75.6648C48.1268 75.2189 47.3536 74.8056 46.6163 74.4249C44.0349 73.094 41.3324 71.3293 38.509 69.1307C37.8334 68.6047 37.3998 68.0245 37.208 67.3899C36.9718 66.613 36.1107 63.3099 36.5798 62.7423C38.8349 60.0166 41.4494 57.6779 44.4235 55.7262C44.4287 55.7227 44.4351 55.7212 44.4414 55.7222C44.4477 55.7231 44.4534 55.7263 44.4574 55.7312C44.4615 55.7361 44.4636 55.7424 44.4633 55.7487C44.463 55.7551 44.4604 55.7611 44.456 55.7656C42.1963 57.9563 40.3692 60.463 38.9747 63.2859C38.9715 63.2907 38.9705 63.2964 38.9718 63.3017C38.9731 63.307 38.9767 63.3116 38.9817 63.3143C38.9867 63.317 38.9927 63.3177 38.9985 63.3163C39.0042 63.3148 39.0092 63.3113 39.0123 63.3065C41.4483 59.3894 44.8412 56.3436 48.6603 53.7865C48.6673 53.7806 48.6764 53.7777 48.6856 53.7785C48.6947 53.7793 48.7032 53.7837 48.7091 53.7908C48.715 53.7978 48.7178 53.807 48.717 53.8161C48.7162 53.8253 48.7118 53.8338 48.7048 53.8397L46.5958 56.0966C46.5858 56.1053 46.5797 56.1175 46.5787 56.1307C46.5777 56.1439 46.582 56.1569 46.5907 56.1669C46.5993 56.1769 46.6115 56.1831 46.6247 56.1841C46.6379 56.185 46.6509 56.1807 46.6608 56.1721L51.5088 52.6632C51.5187 52.6569 51.5305 52.6542 51.5422 52.6556C51.5539 52.6569 51.5648 52.6623 51.573 52.6707C51.5812 52.6792 51.5863 52.6902 51.5874 52.7019C51.5885 52.7136 51.5855 52.7254 51.579 52.7352L50.6905 53.9151C50.6817 53.9267 50.6772 53.9409 50.6776 53.9554C50.678 53.9699 50.6833 53.9838 50.6927 53.9949C50.7021 54.0059 50.715 54.0134 50.7293 54.016C50.7435 54.0187 50.7582 54.0164 50.771 54.0095L53.0854 52.7884C53.1333 52.7621 53.1796 52.7661 53.2241 52.8004L53.4055 52.941C53.4478 52.9742 53.4934 52.9799 53.5425 52.9582L54.6808 52.4471C54.6972 52.4406 54.7153 52.44 54.732 52.4452C54.7488 52.4504 54.7633 52.4613 54.7731 52.4759C54.7829 52.4905 54.7874 52.508 54.7859 52.5256C54.7843 52.5431 54.7769 52.5596 54.7647 52.5723L53.8078 53.4709C53.7966 53.4818 53.7896 53.4964 53.7882 53.512C53.7869 53.5276 53.7911 53.5432 53.8003 53.5559C53.8094 53.5686 53.8228 53.5776 53.838 53.5812C53.8533 53.5848 53.8693 53.5828 53.8831 53.5756L58.5445 51.0888C58.5639 51.0786 58.5861 51.0746 58.6079 51.0773C58.6297 51.0801 58.6502 51.0894 58.6663 51.1041C58.6825 51.1188 58.6936 51.1381 58.6982 51.1593C58.7027 51.1806 58.7005 51.2027 58.6917 51.2226C58.375 51.9669 56.7265 52.9736 56.0863 53.4401C56.0736 53.4484 56.0644 53.4612 56.0608 53.476C56.0572 53.4907 56.0592 53.5063 56.0666 53.5196C56.074 53.5329 56.0862 53.5429 56.1006 53.5475C56.1151 53.5522 56.1307 53.5512 56.1445 53.5447C56.5508 53.3835 56.9525 53.1925 57.3496 52.9719C59.3491 51.8588 61.9562 50.9156 64.2621 50.9756C64.278 50.9765 64.2931 50.983 64.3048 50.9939C64.3165 51.0048 64.324 51.0195 64.3261 51.0354C64.3281 51.0513 64.3245 51.0673 64.316 51.0809C64.3074 51.0944 64.2944 51.1045 64.2792 51.1094C63.3051 51.4027 62.1222 51.6187 61.2441 52.0218C61.1128 52.0824 61.1197 52.1127 61.2646 52.1127C62.2575 52.1178 63.7297 52.2018 64.5685 52.7849C64.6461 52.8398 64.6381 52.8604 64.5445 52.8467C62.2004 52.5254 59.9037 52.7324 57.6543 53.4675C57.6382 53.4731 57.6246 53.4843 57.6159 53.4992C57.6073 53.514 57.6043 53.5315 57.6074 53.5482C57.6106 53.5649 57.6197 53.5796 57.6331 53.5898C57.6465 53.5999 57.6632 53.6046 57.68 53.603C58.8657 53.5161 60.0269 53.6402 61.1636 53.9752C61.1837 53.9809 61.201 53.9937 61.2125 54.0112C61.2239 54.0287 61.2287 54.0497 61.2261 54.0705C61.2234 54.0912 61.2133 54.1103 61.1978 54.1243C61.1823 54.1383 61.1622 54.1462 61.1414 54.1467C59.3154 54.197 57.4677 54.3016 55.5984 54.4605C55.2612 54.4897 54.9411 54.6457 54.6329 54.7555C54.6169 54.7597 54.6032 54.77 54.5946 54.7842C54.5861 54.7984 54.5835 54.8153 54.5873 54.8315C54.5911 54.8476 54.601 54.8616 54.615 54.8705C54.629 54.8793 54.6458 54.8824 54.662 54.879C55.6492 54.7818 56.6318 54.7092 57.6098 54.6612C59.6486 54.5583 62.9576 54.2839 64.3391 55.7125C64.4041 55.7799 64.3904 55.8074 64.298 55.7948C60.9154 55.3129 57.5174 55.3918 53.8626 55.5804C53.0597 55.6216 52.5205 55.8754 51.9333 56.3556C51.9273 56.3609 51.9231 56.3681 51.9212 56.3761C51.9194 56.384 51.9201 56.3922 51.9232 56.3996C51.9262 56.4069 51.9316 56.4129 51.9383 56.4168C51.9451 56.4206 51.953 56.422 51.9607 56.4208C55.5299 55.9508 61.3399 55.5221 64.3648 57.9437C64.3756 57.9525 64.3832 57.9647 64.3862 57.9784C64.3892 57.9921 64.3875 58.0064 64.3813 58.0189C64.3751 58.0315 64.3649 58.0416 64.3522 58.0475C64.3396 58.0535 64.3253 58.055 64.3117 58.0517C63.7228 57.9111 63.1117 57.8139 62.4783 57.7602C59.066 57.4743 55.6503 57.2382 52.2312 57.0519C51.163 56.9936 50.6015 56.8684 49.7353 57.6984C49.7254 57.7084 49.7189 57.7212 49.7165 57.7351C49.7141 57.749 49.716 57.7632 49.722 57.7759C49.728 57.7887 49.7377 57.7993 49.7499 57.8063C49.7621 57.8132 49.7761 57.8163 49.7901 57.8151C54.6466 57.2594 59.2652 57.5561 63.4352 60.0463C63.7593 60.2395 63.7365 60.299 63.3668 60.2246C59.3416 59.4197 55.1933 58.9012 50.9216 58.6691C49.6634 58.6005 48.6397 58.0689 47.6469 59.2076C47.5727 59.2922 47.5915 59.3277 47.7034 59.314C52.7893 58.6485 58.2894 60.1046 63.1511 61.4972C63.1753 61.5042 63.1965 61.5192 63.2112 61.5397C63.2259 61.5602 63.2334 61.585 63.2324 61.6103C63.2315 61.6355 63.2221 61.6597 63.2058 61.679C63.1895 61.6983 63.1672 61.7116 63.1425 61.7167C63.0135 61.743 62.868 61.7521 62.706 61.7441C60.7317 61.6435 58.7699 61.436 56.8207 61.1216C53.4535 60.5796 50.064 60.3138 46.6831 59.9005C46.6146 59.8914 46.5524 59.9079 46.4965 59.9502L45.0363 61.0393C45.024 61.0482 45.0148 61.0609 45.0101 61.0754C45.0054 61.0899 45.0055 61.1056 45.0102 61.1201C45.015 61.1346 45.0242 61.1472 45.0366 61.1561C45.049 61.165 45.0639 61.1697 45.0791 61.1696C49.3416 61.2056 53.6469 61.7098 57.5824 63.0235C59.1493 63.546 60.5143 64.4081 61.6772 65.6098C61.6976 65.6315 61.7099 65.6597 61.712 65.6895C61.7142 65.7193 61.7061 65.7489 61.689 65.7734C61.672 65.7979 61.647 65.8158 61.6184 65.8241C61.5897 65.8324 61.5591 65.8306 61.5317 65.819C59.3234 64.8277 56.989 64.1303 54.5285 63.7267C51.0774 63.1607 47.6897 62.3735 44.2574 61.7304C44.1878 61.7178 44.1245 61.7333 44.0674 61.7767L42.8982 62.6702C42.8855 62.68 42.876 62.6933 42.8709 62.7085C42.8657 62.7237 42.8653 62.7401 42.8695 62.7555C42.8737 62.771 42.8825 62.7849 42.8946 62.7953C42.9067 62.8058 42.9217 62.8124 42.9376 62.8143C48.953 63.4746 55.2389 65.097 59.9003 69.1735C60.1776 69.4159 60.1422 69.4771 59.7941 69.357C54.1656 67.4174 49.0129 65.9253 42.7972 63.5003C42.6568 63.4454 42.4274 63.3974 42.109 63.3562C42.0429 63.3482 41.9841 63.366 41.9327 63.4094L40.8594 64.3115C40.849 64.3206 40.8412 64.3325 40.8371 64.3457C40.8329 64.359 40.8325 64.3732 40.8359 64.3866C40.8392 64.4001 40.8463 64.4124 40.8561 64.4221C40.866 64.4319 40.8784 64.4387 40.8919 64.4418C46.9638 65.735 52.8218 67.985 57.6732 71.8781Z" fill="white"/>
<path d="M57.2007 72.1148L54.9086 73.3359C50.1394 70.0156 45.0089 67.3539 39.3667 65.9168C39.2389 65.8847 39.2246 65.8253 39.3239 65.7384L40.2877 64.8929C40.3055 64.8778 40.3263 64.8668 40.3488 64.8606C40.3712 64.8543 40.3948 64.8531 40.4178 64.8569C40.6163 64.8889 40.7693 64.9341 40.8765 64.9924C46.1028 67.8256 51.6406 69.9968 57.2007 72.1148Z" fill="#0B572C"/>
<path d="M53.7391 73.8639L51.0344 74.9581C46.9242 71.8282 42.4358 69.4683 37.759 67.3486C37.7424 67.3412 37.728 67.3298 37.717 67.3154C37.706 67.301 37.6988 67.284 37.6961 67.2661C37.6933 67.2481 37.6952 67.2298 37.7014 67.2127C37.7076 67.1957 37.718 67.1805 37.7316 67.1685L38.5379 66.4431C38.5579 66.4249 38.5835 66.414 38.6107 66.4122C38.638 66.4103 38.6654 66.4175 38.6885 66.4328C43.4132 69.621 48.3057 71.6687 53.7391 73.8639Z" fill="#0B572C"/>
<path d="M47.5389 75.9032C46.5597 76.2439 45.5697 76.4445 44.5689 76.5051C41.8938 74.9102 39.8396 72.7767 38.4062 70.1047C38.3663 70.0293 38.3834 70.0121 38.4576 70.0533C41.7546 71.8678 44.5603 73.8675 47.5389 75.9032Z" fill="white"/>
</svg>
