<svg width="100" height="100" viewBox="0 0 100 100" fill="none" xmlns="http://www.w3.org/2000/svg">
<g clip-path="url(#clip0_39_37)">
<rect width="100" height="100" fill="#F0F3FA"/>
<path d="M42.609 32.2074C42.5212 31.9093 42.5125 31.6059 42.583 31.2974C42.5969 31.2362 42.5726 31.2026 42.5102 31.1969C42.4328 31.1911 42.3115 31.261 42.1462 31.4066" stroke="#F7DA85" stroke-width="0.296667"/>
<path d="M42.1465 31.4066L43.8781 22.7295C43.8806 22.7177 43.8794 22.7054 43.8747 22.6943C43.87 22.6832 43.8621 22.6738 43.8518 22.6674C43.8416 22.661 43.8297 22.6578 43.8177 22.6584C43.8056 22.6589 43.7941 22.6632 43.7845 22.6706C34.7417 29.8466 25.9589 39.9848 23.0573 51.3988C21.6186 57.0616 21.8145 63.4264 24.2654 68.805C28.7028 78.5376 39.0352 81.9263 49.0365 81.5259C58.1625 81.1619 66.4704 76.8754 72.0101 69.6283C75.4386 65.1407 77.5498 59.7552 77.8185 54.0734C78.0941 48.1991 75.8789 43.1672 72.2614 38.7004C69.339 35.0916 65.8689 31.4447 62.898 27.6123C59.953 23.8128 58.3462 19.7395 58.7206 14.8584C58.7241 14.8018 58.7039 14.7914 58.66 14.8272C52.5742 19.7118 46.3706 25.3382 42.6093 32.2074" stroke="#79ABCF" stroke-width="0.296667"/>
<path d="M42.1463 31.4067C38.6461 34.1177 35.4423 37.2094 32.5349 40.6818C27.8792 46.2441 23.6932 53.999 24.0191 61.4801C24.4715 71.8333 34.6531 78.8377 44.1881 79.6003" stroke="#7F925A" stroke-width="0.296667"/>
<path d="M44.1882 79.6001C49.1398 80.0612 53.8625 79.3245 58.3565 77.3901" stroke="#7C4F62" stroke-width="0.296667"/>
<path d="M58.3563 77.3903C67.3974 73.7417 73.6998 66.115 74.1089 56.1622C74.3411 50.4977 72.1069 46.199 68.5899 42.0251C65.7351 38.6347 62.4227 35.1594 60.0879 31.6373C58.2009 28.79 57.0823 25.6729 56.7322 22.2859C56.7306 22.2732 56.7258 22.2611 56.7182 22.2507C56.7106 22.2404 56.7004 22.2323 56.6888 22.2272C56.6772 22.2221 56.6645 22.2202 56.652 22.2217C56.6396 22.2232 56.6278 22.228 56.6178 22.2357C50.5737 26.7579 45.8469 32.9078 42.6593 39.7163C42.6561 39.7225 42.6509 39.7275 42.6446 39.7304C42.6383 39.7333 42.6312 39.734 42.6244 39.7324C42.6176 39.7308 42.6116 39.727 42.6072 39.7216C42.6029 39.7161 42.6004 39.7094 42.6003 39.7025L42.609 32.2075" stroke="#7F925A" stroke-width="0.296667"/>
<path d="M44.4256 45.5002C41.3079 47.8714 39.0944 50.8164 37.7852 54.335" stroke="#F65720" stroke-width="0.296667"/>
<path d="M37.7853 54.3352C37.7356 54.3444 37.7032 54.3762 37.6882 54.4305C37.6836 54.4502 37.6715 54.4571 37.6518 54.4513C37.6229 54.4432 37.5975 54.4357 37.5755 54.4288C37.5432 54.4196 37.5051 54.4219 37.4611 54.4357C37.2115 54.5132 36.9602 54.5929 36.7071 54.6749C36.6605 54.6897 36.6111 54.6927 36.5633 54.6836C36.368 54.6478 36.1993 54.69 36.0571 54.8101C36.0544 54.8127 36.0511 54.8146 36.0475 54.8156C36.0438 54.8167 36.04 54.8168 36.0363 54.8162C36.0326 54.8155 36.0292 54.814 36.0262 54.8117C36.0231 54.8095 36.0207 54.8066 36.019 54.8032L35.9791 54.7183C35.9352 54.6258 35.8977 54.6287 35.8665 54.7269C35.0015 57.476 34.8698 60.5267 35.7555 63.2671" stroke="#F64A1F" stroke-width="0.296667"/>
<path d="M35.7554 63.2671L36.0206 64.002" stroke="#F65720" stroke-width="0.296667"/>
<path d="M36.0207 64.0019C35.5019 64.2503 34.9553 64.4103 34.381 64.482C34.3335 64.4877 34.288 64.5043 34.2479 64.5303C34.2078 64.5563 34.1741 64.5912 34.1494 64.6323C34.1247 64.6733 34.1096 64.7195 34.1053 64.7674C34.101 64.8152 34.1075 64.8634 34.1245 64.9084C35.6897 69.0857 38.8703 71.2975 43.1274 72.0185C45.5437 72.4288 47.9362 72.3704 50.3051 71.8435C58.1502 70.0963 62.2149 62.8821 60.8819 55.1983C60.8796 55.1861 60.8749 55.1745 60.8681 55.1642C60.8614 55.1539 60.8526 55.1451 60.8424 55.1383C60.8322 55.1315 60.8208 55.1269 60.8088 55.1247C60.7968 55.1225 60.7846 55.1227 60.7727 55.1255C60.2793 55.2352 59.8974 55.0775 59.627 54.6523C59.6228 54.6459 59.6172 54.6405 59.6107 54.6365C59.6041 54.6325 59.5968 54.63 59.5892 54.6291C59.5816 54.6283 59.5738 54.6292 59.5666 54.6317C59.5594 54.6342 59.5528 54.6382 59.5473 54.6436L59.5161 54.6765C59.4791 54.7124 59.4352 54.7245 59.3843 54.7129L58.9285 54.6072C58.8788 54.5956 58.8464 54.5656 58.8314 54.5171C58.041 51.9292 56.5867 49.5493 55.1498 47.2752C55.1349 47.2515 55.1135 47.2327 55.0883 47.221C55.063 47.2093 55.035 47.2052 55.0077 47.2093L53.0161 47.5196" stroke="#F64A1F" stroke-width="0.296667"/>
<path d="M53.0159 47.5196C50.9567 44.4672 49.5198 41.4772 49.5683 37.6587" stroke="#F65720" stroke-width="0.296667"/>
<path d="M58.3564 77.3903C58.5077 77.2505 58.6822 77.1314 58.8798 77.0332C65.4388 73.7797 70.2453 67.2971 70.4134 59.8368C70.5417 54.0891 67.2882 50.2497 63.5529 46.2839C59.776 42.2712 55.8864 38.5983 53.6972 33.3896C53.6729 33.3307 53.6365 33.3226 53.588 33.3653C52.0534 34.737 50.7135 36.1681 49.5684 37.6588" stroke="#FA7E18" stroke-width="0.296667"/>
<path d="M49.5684 37.6587L48.3135 39.4111" stroke="#F99A18" stroke-width="0.296667"/>
<path d="M48.3135 39.4111C46.4982 41.973 45.2427 44.7221 44.547 47.6583C44.517 47.7854 44.4973 47.7837 44.4881 47.6531L44.45 47.0915" stroke="#FAA417" stroke-width="0.296667"/>
<path d="M44.4498 47.0914L44.4255 45.5002" stroke="#F99A18" stroke-width="0.296667"/>
<path d="M44.4255 45.5003L44.3874 40.8497C44.3874 40.7769 44.3562 40.7596 44.2938 40.7977C37.714 44.8867 31.3666 51.4768 29.9054 59.3704C29.1046 63.7055 29.7702 68.6143 32.1258 72.3929C34.7223 76.5599 38.9204 78.7647 43.727 79.4511C43.8021 79.4615 43.8824 79.4684 43.9679 79.4719C44.5376 79.4961 44.611 79.5389 44.188 79.6001" stroke="#FA7E18" stroke-width="0.296667"/>
<path d="M53.0158 47.5198C53.7219 48.5794 54.4534 49.6922 55.2102 50.8582C56.0942 52.2206 57.1862 54.3179 57.3128 55.9438C57.3769 56.755 57.5121 57.3807 58.3736 57.6771C58.4603 57.7073 58.535 57.7644 58.5865 57.84C58.6381 57.9156 58.6637 58.0055 58.6596 58.0966C58.6434 58.4444 58.7341 58.7622 58.9317 59.0499C58.9675 59.1019 58.9872 59.1591 58.9906 59.2215C59.0842 60.8716 58.429 62.6032 57.6854 64.0506C57.5294 64.3574 57.5294 64.7214 57.2417 65.0334C56.8136 65.4962 56.5484 66.3126 56.0145 66.5882C55.7915 66.7014 55.6135 66.8245 55.4806 66.9574C52.4508 69.9959 47.8193 70.8088 43.8049 70.3599C43.5877 70.3356 43.3306 70.2553 43.0336 70.119C42.2068 69.7376 41.302 69.5799 40.541 69.1639C38.3628 67.9748 36.856 66.2542 36.0205 64.002" stroke="#F56620" stroke-width="0.296667"/>
<path d="M35.7554 63.2671L37.4783 62.8147C37.6216 62.7777 37.6707 62.6881 37.6256 62.546C36.7174 59.7415 36.9115 57.0895 37.7851 54.3352" stroke="#F56620" stroke-width="0.296667"/>
<path d="M44.4498 47.0915C44.4198 47.1239 44.4036 47.1713 44.4013 47.2337C44.399 47.2868 44.3712 47.3134 44.3181 47.3134H44.2123C44.1603 47.3134 44.1159 47.3319 44.0789 47.3689C43.3197 48.1408 42.6183 48.9612 41.9746 49.8302C39.2273 53.5378 37.5217 59.3323 40.2135 63.5391C41.4384 65.4516 43.2833 66.5338 45.7481 66.7857C46.2438 66.8377 46.7811 66.647 47.3566 66.7718C47.4155 66.7845 47.4976 66.766 47.6027 66.7163C47.6883 66.6747 47.7663 66.6505 47.8367 66.6435C49.6452 66.4494 51.2162 65.7861 52.5497 64.6537C53.6035 63.7593 54.3211 62.4679 54.8619 61.187C55.0058 60.8473 55.0561 60.4278 55.2017 60.0465C55.5691 59.0879 55.4582 57.5453 55.4911 56.4983C55.5483 54.6003 54.5811 52.4683 53.5723 50.8945C52.1805 48.7191 50.669 46.6582 49.4661 44.3355C48.6791 42.8194 48.2949 41.178 48.3134 39.4111" stroke="#F67D1F" stroke-width="0.296667"/>
<path d="M46.2992 50.4732L46.2802 49.3951C46.2796 49.3819 46.2755 49.369 46.2682 49.358C46.2609 49.3469 46.2508 49.3381 46.2388 49.3324C46.2269 49.3267 46.2136 49.3243 46.2004 49.3256C46.1872 49.3269 46.1747 49.3317 46.164 49.3396C43.2243 51.5774 40.3764 55.311 40.7786 59.2422C40.99 61.3118 41.9752 62.8712 43.7339 63.9204C48.2146 66.5967 53.7404 63.1318 53.7058 58.0323C53.6867 55.5086 52.0903 53.8706 50.6742 51.9916C49.7243 50.7298 49.154 49.714 48.8507 48.2892C48.8474 48.2735 48.8403 48.2588 48.8301 48.2464C48.8198 48.234 48.8066 48.2243 48.7918 48.2182C48.7769 48.212 48.7608 48.2096 48.7448 48.2111C48.7288 48.2126 48.7134 48.218 48.6999 48.2268C47.7812 48.8358 47.0053 49.5921 46.372 50.4958C46.3258 50.5616 46.3016 50.5541 46.2992 50.4732Z" stroke="#F9951C" stroke-width="0.296667"/>
<path d="M44.0095 62.3606C45.5868 63.4266 48.0118 63.0956 49.1731 61.5858C50.1871 60.2685 50.1854 58.2232 49.5042 56.6978C49.4707 56.6227 49.1373 56.0773 48.504 55.0616C47.9055 54.1036 47.4611 53.0757 47.1711 51.978C47.1696 51.9712 47.1662 51.9649 47.1614 51.9599C47.1566 51.9549 47.1504 51.9512 47.1436 51.9493C47.1368 51.9474 47.1295 51.9472 47.1224 51.9489C47.1154 51.9506 47.1089 51.954 47.1035 51.9589C45.592 53.3317 43.7547 55.2661 43.018 57.1572C42.3386 58.9026 42.3594 61.2478 44.0095 62.3606Z" stroke="#FBB13D" stroke-width="0.296667"/>
<path d="M42.1465 31.4065C38.6463 34.1175 35.4425 37.2092 32.5352 40.6816C27.8794 46.2439 23.6934 53.9988 24.0193 61.4799C24.4717 71.8331 34.6533 78.8375 44.1884 79.6002C49.1399 80.0612 53.8627 79.3245 58.3566 77.3901C67.3977 73.7415 73.7001 66.1148 74.1092 56.162C74.3414 50.4975 72.1072 46.1988 68.5902 42.025C65.7354 38.6346 62.423 35.1592 60.0882 31.6371C58.2012 28.7898 57.0826 25.6727 56.7325 22.2858C56.7309 22.273 56.7261 22.2609 56.7185 22.2506C56.7109 22.2403 56.7007 22.2321 56.6891 22.227C56.6775 22.2219 56.6648 22.22 56.6523 22.2215C56.6399 22.223 56.628 22.2278 56.6181 22.2355C50.574 26.7578 45.8472 32.9076 42.6596 39.7162C42.6564 39.7223 42.6512 39.7273 42.6449 39.7302C42.6386 39.7331 42.6315 39.7338 42.6247 39.7322C42.6179 39.7306 42.6119 39.7268 42.6075 39.7214C42.6031 39.716 42.6007 39.7092 42.6006 39.7023L42.6093 32.2074C46.3706 25.3382 52.5742 19.7118 58.66 14.8272C58.7039 14.7914 58.7241 14.8018 58.7206 14.8584C58.3462 19.7395 59.953 23.8128 62.898 27.6123C65.8689 31.4447 69.339 35.0916 72.2614 38.7004C75.8789 43.1672 78.0941 48.1991 77.8185 54.0734C77.5498 59.7552 75.4386 65.1407 72.0101 69.6283C66.4704 76.8754 58.1625 81.1619 49.0365 81.5259C39.0352 81.9263 28.7028 78.5376 24.2654 68.805C21.8145 63.4264 21.6186 57.0616 23.0573 51.3988C25.9589 39.9848 34.7417 29.8466 43.7845 22.6706C43.7941 22.6632 43.8056 22.6589 43.8177 22.6584C43.8297 22.6578 43.8416 22.661 43.8518 22.6674C43.8621 22.6738 43.87 22.6832 43.8747 22.6943C43.8794 22.7054 43.8806 22.7177 43.8781 22.7295L42.1465 31.4065Z" fill="#0163A4"/>
<path d="M58.3564 77.3901C58.5078 77.2503 58.6823 77.1312 58.8799 77.033C65.4388 73.7795 70.2453 67.2969 70.4135 59.8366C70.5417 54.0889 67.2883 50.2496 63.5529 46.2837C59.776 42.271 55.8864 38.5981 53.6972 33.3894C53.6729 33.3305 53.6365 33.3224 53.588 33.3652C52.0534 34.7368 50.7136 36.168 49.5684 37.6586L48.3135 39.411C46.4981 41.9729 45.2426 44.722 44.5469 47.6582C44.5169 47.7853 44.4972 47.7836 44.488 47.653L44.4499 47.0914L44.4256 45.5002L44.3875 40.8497C44.3875 40.7769 44.3563 40.7596 44.2939 40.7977C37.7141 44.8866 31.3667 51.4768 29.9055 59.3703C29.1047 63.7054 29.7703 68.6142 32.1259 72.3929C34.7224 76.5598 38.9205 78.7646 43.7271 79.451C43.8022 79.4614 43.8825 79.4683 43.968 79.4718C44.5377 79.4961 44.6111 79.5388 44.1881 79.6001C34.6531 78.8374 24.4715 71.833 24.0191 61.4798C23.6932 53.9988 27.8792 46.2438 32.5349 40.6816C35.4423 37.2091 38.6461 34.1174 42.1463 31.4065C42.3115 31.2609 42.4328 31.191 42.5103 31.1968C42.5727 31.2025 42.5969 31.236 42.5831 31.2973C42.5126 31.6058 42.5212 31.9092 42.6091 32.2073L42.6004 39.7022C42.6005 39.7092 42.6029 39.7159 42.6073 39.7213C42.6116 39.7268 42.6177 39.7306 42.6245 39.7322C42.6312 39.7338 42.6383 39.733 42.6447 39.7301C42.651 39.7272 42.6561 39.7223 42.6593 39.7161C45.8469 32.9076 50.5737 26.7577 56.6179 22.2354C56.6278 22.2277 56.6396 22.2229 56.6521 22.2214C56.6646 22.22 56.6773 22.2219 56.6889 22.227C56.7005 22.2321 56.7106 22.2402 56.7182 22.2505C56.7259 22.2608 56.7307 22.273 56.7323 22.2857C57.0824 25.6726 58.201 28.7897 60.088 31.637C62.4228 35.1592 65.7352 38.6345 68.59 42.0249C72.1069 46.1988 74.3412 50.4974 74.1089 56.1619C73.6999 66.1147 67.3975 73.7414 58.3564 77.3901Z" fill="#FDC110"/>
<path d="M58.3565 77.3903C53.8626 79.3247 49.1398 80.0613 44.1883 79.6003C44.6112 79.539 44.5378 79.4963 43.9681 79.472C43.8826 79.4685 43.8023 79.4616 43.7272 79.4512C38.9207 78.7648 34.7225 76.56 32.126 72.3931C29.7704 68.6144 29.1048 63.7056 29.9056 59.3705C31.3668 51.4769 37.7143 44.8868 44.294 40.7979C44.3564 40.7597 44.3876 40.7771 44.3876 40.8499L44.4257 45.5004C41.308 47.8716 39.0946 50.8165 37.7853 54.3352C37.7356 54.3445 37.7033 54.3762 37.6883 54.4305C37.6836 54.4502 37.6715 54.4571 37.6519 54.4513C37.623 54.4433 37.5976 54.4357 37.5756 54.4288C37.5432 54.4196 37.5051 54.4219 37.4612 54.4357C37.2116 54.5132 36.9603 54.5929 36.7072 54.6749C36.6606 54.6897 36.6111 54.6927 36.5633 54.6836C36.368 54.6478 36.1993 54.69 36.0572 54.8101C36.0544 54.8127 36.0511 54.8146 36.0475 54.8156C36.0439 54.8167 36.0401 54.8169 36.0364 54.8162C36.0327 54.8155 36.0292 54.814 36.0262 54.8117C36.0232 54.8095 36.0208 54.8066 36.0191 54.8032L35.9792 54.7183C35.9353 54.6258 35.8977 54.6287 35.8665 54.7269C35.0016 57.476 34.8699 60.5267 35.7556 63.2671L36.0208 64.002C35.502 64.2505 34.9554 64.4105 34.3811 64.4821C34.3336 64.4879 34.2881 64.5044 34.248 64.5304C34.2079 64.5565 34.1742 64.5913 34.1495 64.6324C34.1248 64.6735 34.1097 64.7197 34.1054 64.7675C34.101 64.8153 34.1076 64.8636 34.1245 64.9085C35.6897 69.0859 38.8704 71.2976 43.1275 72.0187C45.5437 72.4289 47.9363 72.3705 50.3052 71.8436C58.1503 70.0964 62.2149 62.8823 60.882 55.1984C60.8797 55.1863 60.875 55.1747 60.8682 55.1644C60.8614 55.1541 60.8527 55.1453 60.8425 55.1385C60.8323 55.1317 60.8208 55.127 60.8089 55.1248C60.7969 55.1226 60.7846 55.1229 60.7728 55.1256C60.2794 55.2354 59.8975 55.0777 59.6271 54.6524C59.6229 54.646 59.6173 54.6406 59.6107 54.6366C59.6042 54.6326 59.5969 54.6301 59.5892 54.6293C59.5816 54.6285 59.5739 54.6293 59.5667 54.6318C59.5594 54.6343 59.5528 54.6384 59.5473 54.6437L59.5161 54.6767C59.4792 54.7125 59.4352 54.7246 59.3844 54.7131L58.9285 54.6073C58.8788 54.5958 58.8465 54.5657 58.8315 54.5172C58.0411 51.9293 56.5868 49.5495 55.1499 47.2753C55.135 47.2517 55.1136 47.2328 55.0884 47.2211C55.0631 47.2094 55.0351 47.2054 55.0077 47.2095L53.0161 47.5197C50.9569 44.4673 49.52 41.4773 49.5685 37.6588C50.7137 36.1681 52.0536 34.737 53.5881 33.3653C53.6367 33.3226 53.6731 33.3307 53.6973 33.3896C55.8865 38.5983 59.7761 42.2712 63.5531 46.2839C67.2884 50.2497 70.5419 54.0891 70.4136 59.8368C70.2455 67.2971 65.4389 73.7797 58.88 77.0332C58.6824 77.1314 58.5079 77.2505 58.3565 77.3903Z" fill="#F63A1F"/>
<path d="M49.5685 37.6587C49.52 41.4772 50.9569 44.4672 53.0161 47.5196C53.7222 48.5793 54.4537 49.6921 55.2105 50.858C56.0945 52.2204 57.1865 54.3178 57.3131 55.9436C57.3772 56.7548 57.5124 57.3806 58.3739 57.677C58.4606 57.7071 58.5353 57.7642 58.5868 57.8398C58.6384 57.9154 58.664 58.0054 58.6599 58.0964C58.6437 58.4442 58.7344 58.762 58.932 59.0498C58.9678 59.1018 58.9875 59.159 58.9909 59.2214C59.0845 60.8715 58.4293 62.6031 57.6857 64.0504C57.5297 64.3572 57.5297 64.7212 57.242 65.0332C56.8139 65.496 56.5487 66.3124 56.0148 66.588C55.7918 66.7013 55.6138 66.8243 55.4809 66.9572C52.4511 69.9958 47.8196 70.8087 43.8052 70.3598C43.588 70.3355 43.3309 70.2552 43.0339 70.1188C42.2071 69.7375 41.3023 69.5798 40.5413 69.1638C38.3631 67.9747 36.8563 66.2541 36.0208 64.0019L35.7556 63.267L37.4785 62.8146C37.6218 62.7776 37.6709 62.688 37.6259 62.5459C36.7176 59.7414 36.9117 57.0894 37.7853 54.3351C39.0946 50.8164 41.3081 47.8715 44.4257 45.5003L44.45 47.0915C44.42 47.1238 44.4038 47.1712 44.4015 47.2336C44.3992 47.2868 44.3714 47.3134 44.3183 47.3134H44.2125C44.1605 47.3134 44.1161 47.3318 44.0791 47.3688C43.3199 48.1407 42.6185 48.9612 41.9748 49.8302C39.2275 53.5378 37.5219 59.3323 40.2137 63.5391C41.4386 65.4515 43.2835 66.5337 45.7483 66.7856C46.244 66.8376 46.7813 66.647 47.3568 66.7718C47.4157 66.7845 47.4978 66.766 47.6029 66.7163C47.6885 66.6747 47.7665 66.6504 47.8369 66.6435C49.6454 66.4494 51.2164 65.7861 52.5499 64.6536C53.6037 63.7592 54.3213 62.4679 54.8621 61.187C55.006 60.8472 55.0563 60.4278 55.2019 60.0464C55.5693 59.0879 55.4584 57.5452 55.4913 56.4983C55.5485 54.6003 54.5813 52.4683 53.5725 50.8944C52.1807 48.7191 50.6692 46.6582 49.4663 44.3355C48.6793 42.8194 48.2951 41.1779 48.3136 39.4111L49.5685 37.6587Z" fill="#F57320"/>
<path d="M48.3132 39.4109C48.2947 41.1777 48.6789 42.8192 49.4658 44.3353C50.6688 46.658 52.1802 48.7189 53.5721 50.8942C54.5809 52.4681 55.5481 54.6001 55.4909 56.4981C55.458 57.545 55.5689 59.0877 55.2014 60.0462C55.0558 60.4276 55.0056 60.847 54.8617 61.1868C54.3209 62.4677 53.6033 63.759 52.5494 64.6534C51.2159 65.7859 49.6449 66.4492 47.8365 66.6433C47.766 66.6502 47.688 66.6745 47.6025 66.7161C47.4973 66.7658 47.4153 66.7843 47.3564 66.7716C46.7809 66.6468 46.2436 66.8374 45.7478 66.7854C43.283 66.5335 41.4382 65.4513 40.2133 63.5389C37.5214 59.3321 39.227 53.5376 41.9744 49.83C42.618 48.961 43.3194 48.1405 44.0786 47.3686C44.1156 47.3316 44.1601 47.3132 44.2121 47.3132H44.3178C44.371 47.3132 44.3987 47.2866 44.401 47.2334C44.4033 47.171 44.4195 47.1236 44.4496 47.0913L44.4877 47.6529C44.4969 47.7835 44.5166 47.7852 44.5466 47.6581C45.2423 44.7218 46.4978 41.9728 48.3132 39.4109ZM46.299 50.473L46.28 49.3949C46.2794 49.3817 46.2753 49.3688 46.268 49.3578C46.2607 49.3467 46.2505 49.3379 46.2386 49.3322C46.2267 49.3265 46.2134 49.3241 46.2002 49.3254C46.187 49.3267 46.1745 49.3315 46.1638 49.3394C43.2241 51.5772 40.3762 55.3108 40.7784 59.242C40.9898 61.3116 41.9749 62.871 43.7337 63.9202C48.2144 66.5965 53.7402 63.1316 53.7056 58.0321C53.6865 55.5084 52.0901 53.8704 50.674 51.9914C49.7241 50.7296 49.1538 49.7138 48.8505 48.289C48.8472 48.2733 48.8401 48.2586 48.8298 48.2462C48.8196 48.2338 48.8064 48.2241 48.7916 48.218C48.7767 48.2118 48.7606 48.2094 48.7446 48.2109C48.7286 48.2124 48.7132 48.2178 48.6997 48.2266C47.781 48.8356 47.0051 49.5919 46.3718 50.4956C46.3256 50.5614 46.3013 50.5539 46.299 50.473Z" fill="#F7861E"/>
<path d="M36.0205 64.0021C36.856 66.2543 38.3628 67.9749 40.541 69.164C41.302 69.58 42.2068 69.7377 43.0336 70.119C43.3305 70.2554 43.5876 70.3357 43.8049 70.36C47.8193 70.8089 52.4508 69.996 55.4806 66.9574C55.6135 66.8245 55.7915 66.7015 56.0145 66.5882C56.5484 66.3126 56.8136 65.4962 57.2417 65.0334C57.5294 64.7214 57.5294 64.3574 57.6854 64.0506C58.429 62.6033 59.0842 60.8717 58.9906 59.2216C58.9872 59.1592 58.9675 59.102 58.9317 59.05C58.7341 58.7622 58.6434 58.4445 58.6596 58.0966C58.6637 58.0056 58.6381 57.9156 58.5865 57.84C58.535 57.7645 58.4603 57.7073 58.3736 57.6772C57.5121 57.3808 57.3769 56.755 57.3128 55.9438C57.1862 54.318 56.0942 52.2206 55.2102 50.8582C54.4533 49.6923 53.7219 48.5795 53.0158 47.5198L55.0074 47.2096C55.0348 47.2055 55.0628 47.2095 55.0881 47.2212C55.1133 47.2329 55.1347 47.2517 55.1496 47.2754C56.5865 49.5496 58.0408 51.9294 58.8312 54.5173C58.8462 54.5658 58.8785 54.5959 58.9282 54.6074L59.3841 54.7132C59.4349 54.7247 59.4788 54.7126 59.5158 54.6768L59.547 54.6438C59.5525 54.6385 59.5591 54.6344 59.5664 54.6319C59.5736 54.6294 59.5813 54.6286 59.5889 54.6294C59.5965 54.6302 59.6039 54.6327 59.6104 54.6367C59.617 54.6407 59.6225 54.6461 59.6268 54.6525C59.8972 55.0778 60.2791 55.2355 60.7725 55.1257C60.7843 55.123 60.7966 55.1227 60.8086 55.1249C60.8205 55.1271 60.832 55.1318 60.8422 55.1386C60.8524 55.1454 60.8611 55.1542 60.8679 55.1645C60.8747 55.1748 60.8794 55.1863 60.8817 55.1985C62.2146 62.8824 58.15 70.0965 50.3049 71.8437C47.936 72.3706 45.5434 72.429 43.1272 72.0188C38.8701 71.2977 35.6894 69.086 34.1242 64.9086C34.1073 64.8637 34.1007 64.8154 34.1051 64.7676C34.1094 64.7198 34.1245 64.6736 34.1492 64.6325C34.1739 64.5914 34.2076 64.5566 34.2477 64.5305C34.2878 64.5045 34.3333 64.488 34.3808 64.4822C34.9551 64.4106 35.5016 64.2506 36.0205 64.0021Z" fill="#F5591F"/>
<path d="M46.3723 50.4958C47.0055 49.5921 47.7815 48.8358 48.7002 48.2268C48.7136 48.218 48.729 48.2126 48.745 48.2111C48.761 48.2096 48.7772 48.212 48.792 48.2182C48.8069 48.2243 48.82 48.234 48.8303 48.2464C48.8406 48.2588 48.8477 48.2735 48.851 48.2892C49.1543 49.714 49.7246 50.7298 50.6744 51.9916C52.0906 53.8706 53.687 55.5086 53.706 58.0323C53.7407 63.1318 48.2148 66.5967 43.7342 63.9204C41.9754 62.8712 40.9903 61.3118 40.7788 59.2422C40.3767 55.311 43.2246 51.5774 46.1643 49.3396C46.1749 49.3317 46.1875 49.3269 46.2007 49.3256C46.2138 49.3243 46.2271 49.3267 46.2391 49.3324C46.251 49.3381 46.2612 49.3469 46.2685 49.358C46.2757 49.369 46.2799 49.3819 46.2804 49.3951L46.2995 50.4732C46.3018 50.5541 46.3261 50.5616 46.3723 50.4958ZM44.0098 62.3604C45.5871 63.4264 48.012 63.0954 49.1734 61.5856C50.1874 60.2683 50.1856 58.223 49.5044 56.6976C49.4709 56.6225 49.1375 56.0771 48.5043 55.0614C47.9057 54.1034 47.4614 53.0755 47.1714 51.9778C47.1698 51.971 47.1665 51.9647 47.1616 51.9597C47.1568 51.9547 47.1507 51.951 47.1438 51.9491C47.137 51.9472 47.1297 51.947 47.1227 51.9487C47.1157 51.9504 47.1091 51.9538 47.1038 51.9587C45.5923 53.3315 43.755 55.2659 43.0183 57.157C42.3388 58.9024 42.3596 61.2476 44.0098 62.3604Z" fill="#FAA319"/>
<path d="M44.0097 62.3606C42.3596 61.2478 42.3388 58.9026 43.0183 57.1572C43.7549 55.2661 45.5923 53.3317 47.1037 51.9589C47.1091 51.954 47.1156 51.9506 47.1227 51.9489C47.1297 51.9472 47.137 51.9474 47.1438 51.9493C47.1507 51.9512 47.1568 51.9549 47.1616 51.9599C47.1665 51.9649 47.1698 51.9712 47.1713 51.978C47.4614 53.0757 47.9057 54.1036 48.5043 55.0616C49.1375 56.0773 49.4709 56.6227 49.5044 56.6978C50.1856 58.2232 50.1873 60.2685 49.1733 61.5858C48.012 63.0956 45.5871 63.4266 44.0097 62.3606Z" fill="#FBBF60"/>
<path d="M37.7853 54.335C36.9117 57.0892 36.7175 59.7412 37.6258 62.5458C37.6709 62.6879 37.6218 62.7774 37.4785 62.8144L35.7555 63.2668C34.8698 60.5264 35.0015 57.4758 35.8665 54.7267C35.8977 54.6285 35.9352 54.6256 35.9791 54.718L36.019 54.803C36.0207 54.8063 36.0231 54.8092 36.0262 54.8115C36.0292 54.8137 36.0326 54.8153 36.0363 54.8159C36.04 54.8166 36.0438 54.8164 36.0475 54.8154C36.0511 54.8143 36.0544 54.8124 36.0571 54.8099C36.1993 54.6897 36.368 54.6475 36.5633 54.6834C36.6111 54.6924 36.6605 54.6895 36.7071 54.6747C36.9602 54.5926 37.2115 54.5129 37.4611 54.4355C37.5051 54.4216 37.5432 54.4193 37.5755 54.4286C37.5975 54.4355 37.6229 54.443 37.6518 54.4511C37.6715 54.4569 37.6836 54.4499 37.6882 54.4303C37.7032 54.376 37.7356 54.3442 37.7853 54.335Z" fill="#F5591F"/>
</g>
<defs>
<clipPath id="clip0_39_37">
<rect width="100" height="100" fill="white"/>
</clipPath>
</defs>
</svg>
