<svg width="100" height="100" viewBox="0 0 100 100" fill="none" xmlns="http://www.w3.org/2000/svg">
<rect width="100" height="100" fill="#22263F"/>
<path d="M8 31.6954L50.2216 20L92 31.8936L87.2348 71.1424L50.2216 80.2609L12.9868 71.1424L8 31.6954Z" fill="#FEDC00"/>
<path d="M36.4161 34.1888C35.5274 34.0265 34.8153 34.2578 34.2796 34.8827C34.2349 34.9336 34.176 34.9701 34.1105 34.9874C34.045 35.0047 33.9758 35.002 33.9118 34.9798C33.8477 34.9576 33.7918 34.9168 33.7511 34.8627C33.7103 34.8085 33.6867 34.7434 33.6831 34.6758L33.6283 33.0566C33.6242 32.874 33.7135 32.7827 33.8961 32.7827H48.9066C49.1663 32.7827 49.29 32.9126 49.2779 33.1723L49.2109 34.7245C49.2083 34.7966 49.1847 34.8665 49.1429 34.9254C49.1012 34.9843 49.0432 35.0298 48.976 35.0563C48.9089 35.0828 48.8354 35.0891 48.7647 35.0745C48.694 35.0599 48.629 35.025 48.5779 34.974L47.8779 34.274C47.8151 34.2076 47.7382 34.1561 47.6529 34.1234C47.5675 34.0908 47.4759 34.0777 47.3848 34.0853C41.8457 34.4789 38.1895 34.5134 36.4161 34.1888Z" fill="#22263F"/>
<path d="M65.6577 33.7993C62.7319 33.4381 59.865 33.3955 57.0568 33.6714C56.9518 33.6829 56.8506 33.7165 56.7603 33.7701C56.6699 33.8237 56.5925 33.8959 56.5334 33.9819L47.0377 47.9454C46.9241 48.1117 46.7658 48.1827 46.5629 48.1584C46.4696 48.1462 46.3722 48.1198 46.2708 48.0793L56.4238 33.008C56.4706 32.9387 56.5339 32.882 56.6082 32.8427C56.6825 32.8034 56.7655 32.7828 56.8499 32.7827H65.8221C65.8687 32.7821 65.9147 32.793 65.956 32.8147C65.9973 32.8363 66.0326 32.8679 66.0586 32.9066C66.0846 32.9453 66.1005 32.9898 66.1049 33.0362C66.1093 33.0826 66.102 33.1294 66.0838 33.1723C65.9621 33.4645 65.82 33.6735 65.6577 33.7993Z" fill="#22263F"/>
<path d="M65.6577 33.7993L54.6038 49.9784C54.478 50.161 54.478 50.3457 54.6038 50.5323L66.1082 67.5575C66.2786 67.8091 66.2117 67.9349 65.9073 67.9349H56.8682C56.6815 67.9349 56.5375 67.8578 56.436 67.7036L45.9908 52.1697C46.2262 52.0967 46.2262 51.8978 45.9908 51.5732C45.9414 51.5032 45.8689 51.4529 45.7861 51.4309C45.7034 51.409 45.6155 51.4168 45.5379 51.4531C45.4603 51.4893 45.3979 51.5517 45.3616 51.6293C45.3254 51.7069 45.3175 51.7948 45.3395 51.8776C45.3841 52.0602 45.3293 52.2083 45.1751 52.3219C45.0331 52.4274 44.9621 52.5694 44.9621 52.748L45.0473 62.3593C45.0481 62.4917 45.0227 62.6229 44.9726 62.7455C44.9225 62.8681 44.8486 62.9795 44.7553 63.0734C44.662 63.1673 44.551 63.2418 44.4287 63.2927C44.3065 63.3435 44.1754 63.3697 44.043 63.3697L38.3699 63.3636C38.1843 63.3636 38.0062 63.2899 37.8749 63.1586C37.7437 63.0273 37.6699 62.8493 37.6699 62.6636V37.8045C37.6699 37.3987 37.8728 37.1958 38.2786 37.1958L44.1404 37.2019C44.8951 37.2019 45.2766 37.5793 45.2847 38.3341C45.3172 41.5236 45.1995 44.6442 44.9317 47.6958C44.8992 48.1097 45.165 48.2578 45.7291 48.1402C45.7088 48.2741 45.725 48.3654 45.7777 48.4141C45.8264 48.4628 45.8995 48.4607 45.9969 48.408C46.143 48.3268 46.2343 48.2173 46.2708 48.0793C46.3722 48.1199 46.4696 48.1462 46.563 48.1584C46.7659 48.1828 46.9241 48.1118 47.0377 47.9454L56.5334 33.9819C56.5926 33.8959 56.67 33.8237 56.7603 33.7701C56.8507 33.7166 56.9518 33.6829 57.0569 33.6715C59.865 33.3955 62.732 33.4381 65.6577 33.7993Z" fill="#22263F"/>
<path d="M47.3388 34.9125L35.3112 34.8285C35.2037 34.8278 35.1158 34.9144 35.1151 35.0219L35.1121 35.448C35.1114 35.5556 35.198 35.6434 35.3055 35.6441L47.3331 35.7281C47.4406 35.7289 47.5285 35.6423 47.5292 35.5347L47.5322 35.1086C47.5329 35.001 47.4463 34.9132 47.3388 34.9125Z" fill="#22263F"/>
<path d="M45.7293 48.1401C45.1653 48.2578 44.8995 48.1097 44.932 47.6958C45.1998 44.6442 45.3175 41.5236 45.285 38.334C45.2769 37.5793 44.8954 37.2019 44.1407 37.2019L38.2789 37.1958C37.8731 37.1958 37.6702 37.3987 37.6702 37.8045V62.6636C37.6702 62.8493 37.744 63.0273 37.8752 63.1586C38.0065 63.2899 38.1846 63.3636 38.3702 63.3636L44.0433 63.3697C44.1757 63.3697 44.3068 63.3435 44.429 63.2927C44.5513 63.2418 44.6623 63.1673 44.7556 63.0734C44.8489 62.9795 44.9228 62.868 44.9729 62.7455C45.023 62.6229 45.0484 62.4917 45.0476 62.3593L44.9624 52.748C44.9624 52.5694 45.0334 52.4274 45.1754 52.3219C45.3296 52.2082 45.3844 52.0601 45.3398 51.8775C45.3178 51.7947 45.3257 51.7069 45.3619 51.6293C45.3982 51.5517 45.4606 51.4893 45.5382 51.453C45.6158 51.4168 45.7037 51.4089 45.7864 51.4309C45.8692 51.4529 45.9417 51.5032 45.9911 51.5732C46.2264 51.8978 46.2264 52.0967 45.9911 52.1697C46.0804 52.1048 46.0337 52.0885 45.8511 52.121C45.774 52.1372 45.7354 52.1859 45.7354 52.2671V63.4427C45.7355 63.5854 45.6799 63.7222 45.5807 63.8237C45.4816 63.9251 45.3469 63.9829 45.2059 63.9845L37.7128 64.0575C37.6276 64.0583 37.543 64.0422 37.464 64.0102C37.3851 63.9781 37.3132 63.9307 37.2527 63.8707C37.1921 63.8107 37.144 63.7393 37.1112 63.6606C37.0784 63.582 37.0615 63.4976 37.0615 63.4123V36.654C37.0615 36.4917 37.1407 36.4126 37.2989 36.4167L45.285 36.4471C45.4045 36.4471 45.519 36.4945 45.6035 36.579C45.688 36.6635 45.7354 36.7781 45.7354 36.8975L45.7293 48.1401Z" fill="#22263F"/>
<path d="M47.1664 64.6155L35.4917 64.5951C35.29 64.5948 35.1262 64.758 35.1258 64.9597L35.1255 65.1423C35.1252 65.344 35.2884 65.5078 35.4901 65.5082L47.1649 65.5285C47.3666 65.5289 47.5304 65.3657 47.5307 65.164L47.531 64.9814C47.5314 64.7796 47.3681 64.6158 47.1664 64.6155Z" fill="#22263F"/>
<path d="M47.9814 66.194C48.091 65.8693 48.3081 65.6786 48.6327 65.6218C48.7069 65.6094 48.7829 65.6134 48.8555 65.6334C48.928 65.6534 48.9953 65.6889 49.0527 65.7376C49.11 65.7863 49.1561 65.8469 49.1876 65.9152C49.2192 65.9835 49.2354 66.0579 49.2353 66.1331V67.6305C49.2353 67.8334 49.1339 67.9349 48.931 67.9349H33.9266C33.8756 67.9352 33.8252 67.9247 33.7786 67.9041C33.732 67.8834 33.6903 67.8531 33.6563 67.8151C33.6224 67.7771 33.5969 67.7323 33.5815 67.6837C33.5662 67.6351 33.5614 67.5837 33.5675 67.5331L33.7623 65.914C33.7826 65.7557 33.8718 65.6685 34.0301 65.6522C34.3912 65.6117 34.6205 65.7638 34.7179 66.1088C34.795 66.3969 34.9817 66.5389 35.2779 66.5349L47.6162 66.4557C47.6976 66.4561 47.7768 66.4309 47.8425 66.3838C47.9082 66.3368 47.9568 66.2703 47.9814 66.194Z" fill="#22263F"/>
</svg>
