<svg width="100" height="100" viewBox="0 0 100 100" fill="none" xmlns="http://www.w3.org/2000/svg">
<rect width="100" height="100" fill="#A7D2F1"/>
<g clip-path="url(#clip0_39_41)">
<path d="M25.3481 44.7099C25.3495 44.7285 25.3817 44.7311 25.4447 44.7176C30.6971 43.5575 36.0171 42.7784 41.4047 42.3804" stroke="#F9C1E2" stroke-width="0.254932"/>
<path d="M41.4048 42.3801L45.4501 42.1541" stroke="#FCEF9A" stroke-width="0.254932"/>
<path d="M45.4502 42.154C49.0888 42.0112 52.7225 42.0355 56.3513 42.2268" stroke="#FCFCD0" stroke-width="0.254932"/>
<path d="M56.3511 42.2268L56.2783 43.1753" stroke="#F69592" stroke-width="0.254932"/>
<path d="M56.2781 43.1753L56.2613 43.0696C56.2571 43.0444 56.2424 43.0311 56.2172 43.0297C44.376 42.4039 32.385 43.5344 20.9449 46.6996C18.4361 47.394 15.0817 48.9339 15.592 52.1902C15.6616 52.6339 15.7999 53.1419 16.0071 53.714C17.4225 57.6231 18.84 61.5312 20.2596 65.4384C20.3786 65.7653 20.5641 66.2021 20.8952 66.361C20.9204 66.3731 20.9291 66.3656 20.9211 66.3386C20.5949 65.2781 22.2217 64.5362 22.9959 64.2331C24.2074 63.758 25.4793 63.3406 26.8116 62.9808C35.2088 60.7136 43.8216 60.0599 52.489 60.1936C59.2937 60.2986 66.2755 61.1 72.901 62.8527C74.4893 63.2734 76.0699 63.7529 77.5847 64.3941C78.3134 64.7027 79.5307 65.4048 79.2703 66.3407C79.2628 66.3677 79.2719 66.3754 79.2976 66.3638C79.6154 66.2154 79.8296 65.724 79.9423 65.4125C81.269 61.7433 82.6005 58.0757 83.9365 54.4097C84.4202 53.0826 84.9417 51.7478 84.4377 50.3233C83.66 48.1241 80.7788 47.107 78.7467 46.5582C73.7977 45.2232 68.7789 44.2591 63.6904 43.666" stroke="#9DBFE4" stroke-width="0.254932"/>
<path d="M63.6904 43.6659L63.7422 42.8589" stroke="#F69592" stroke-width="0.254932"/>
<path d="M63.7422 42.8589C67.4359 43.2933 71.099 43.9161 74.7315 44.7271C74.7712 44.736 74.809 44.7297 74.8449 44.7082" stroke="#D3E9F8" stroke-width="0.254932"/>
<path d="M74.845 44.7081L76.6811 45.182C76.7068 45.1885 76.714 45.1796 76.7028 45.1554C74.2808 39.9763 69.9661 36.032 64.8848 33.4617C64.8749 33.4569 64.8663 33.4499 64.8595 33.4412C64.8527 33.4325 64.8479 33.4223 64.8456 33.4113C63.8082 28.4472 59.0279 25.3771 54.3869 24.3545C48.6952 23.1008 41.8387 24.3328 37.7591 28.7804C36.5499 30.0982 35.74 31.6477 35.3294 33.4288C35.3265 33.4409 35.3211 33.4522 35.3135 33.4618C35.3058 33.4715 35.2962 33.4794 35.2853 33.4848C30.2446 35.9914 25.9123 40.0148 23.4945 45.1421C23.4758 45.1817 23.4875 45.196 23.5295 45.1848L25.3481 44.7095" stroke="#9DBFE4" stroke-width="0.254932"/>
<path d="M74.845 44.7084C74.054 43.2585 73.1039 41.9132 71.9946 40.6724" stroke="#71A9DD" stroke-width="0.254932"/>
<path d="M71.9944 40.6721C69.5486 37.9969 66.7899 36.0377 63.5209 34.4396C63.4995 34.4289 63.4871 34.4114 63.4838 34.3871C62.7992 29.4034 57.9986 26.4775 53.4535 25.6446C48.3309 24.7059 42.1072 25.9098 38.5883 30.0998C37.5453 31.342 36.9186 32.7714 36.7081 34.3878C36.7053 34.4121 36.693 34.4296 36.671 34.4403C33.4447 36.0027 30.6293 37.9878 28.2192 40.6455" stroke="#945577" stroke-width="0.254932"/>
<path d="M28.2195 40.6458C27.1 41.9043 26.1429 43.259 25.3481 44.7098" stroke="#9781C7" stroke-width="0.254932"/>
<path d="M63.7429 42.8589C63.7167 42.2657 63.5679 41.7247 63.2963 41.2356C62.8595 40.4512 62.2348 39.8898 61.4224 39.5515" stroke="#CA7F8B" stroke-width="0.254932"/>
<path d="M71.9948 40.6723C72.0186 40.9572 71.8352 41.1945 71.5818 40.9803C68.9386 38.7453 66.0147 37.2257 62.7786 36.0323C62.5919 35.9632 62.4286 35.8178 62.2886 35.5962" stroke="#CA7F8B" stroke-width="0.254932"/>
<path d="M62.2888 35.596C62.2804 35.5239 62.2356 35.4385 62.2209 35.3615C61.838 33.3547 60.5773 31.7028 58.9421 30.522C55.7004 28.182 51.4451 27.4855 47.5454 28.056" stroke="#F39262" stroke-width="0.254932"/>
<path d="M47.5448 28.0562C44.3108 28.502 40.7793 30.0952 38.9579 32.9006C37.2751 35.4926 37.6489 38.5283 39.6474 40.8067" stroke="#F3852D" stroke-width="0.254932"/>
<path d="M39.6479 40.8069C39.6428 40.9334 39.5898 41.0062 39.489 41.0253C39.472 41.0285 39.4544 41.0276 39.4378 41.0226C39.4213 41.0176 39.4062 41.0087 39.3938 40.9966C38.0722 39.7171 37.1279 38.1498 36.8052 36.3355C36.8036 36.3265 36.7999 36.3179 36.7946 36.3104C36.7892 36.3029 36.7823 36.2967 36.7743 36.2921C36.7663 36.2876 36.7574 36.2849 36.7482 36.2841C36.7391 36.2834 36.7298 36.2847 36.7212 36.2879C33.7798 37.3876 31.0246 38.9254 28.632 40.9721C28.3576 41.2066 28.1581 40.9238 28.2197 40.6459" stroke="#F05775" stroke-width="0.254932"/>
<path d="M41.4045 42.3802C40.7614 41.9079 40.1757 41.3834 39.6475 40.8066" stroke="#F6B07D" stroke-width="0.254932"/>
<path d="M62.289 35.5962C62.2717 35.7138 62.2682 35.8311 62.2785 35.9483C62.2971 36.1587 62.3065 36.2752 62.3065 36.2976C62.3065 37.4637 62.0118 38.5484 61.4224 39.5517" stroke="#D0E5C9" stroke-width="0.254932"/>
<path d="M61.4219 39.5515C59.1798 38.701 56.9825 39.9169 56.3511 42.2267" stroke="#F39262" stroke-width="0.254932"/>
<path d="M45.4503 42.1542C45.4615 42.1453 45.4645 42.1339 45.4594 42.1199C45.4561 42.1115 45.4486 42.104 45.437 42.0975C43.1284 40.7332 41.216 38.5535 41.1194 35.7579C40.9913 32.0537 44.2596 29.314 47.4103 28.1422C47.4317 28.1343 47.4502 28.1219 47.4656 28.1052C47.487 28.0818 47.5136 28.0655 47.5454 28.0562" stroke="#F9EB6B" stroke-width="0.254932"/>
<path d="M63.6906 43.6662C63.4057 45.2726 62.1009 46.5116 60.4993 46.7132C58.316 46.9883 56.3875 45.372 56.2783 43.1755" stroke="#945577" stroke-width="0.254932"/>
<path d="M71.052 63.1558C65.0432 61.7342 59.0071 61.121 52.7785 60.9754C44.7803 60.7892 36.8619 61.3345 29.1206 63.1614" stroke="#FCD99B" stroke-width="0.254932"/>
<path d="M29.1201 63.1614C26.9536 63.6941 24.7283 64.3066 22.6724 65.1997C22.3434 65.3425 21.6602 65.6925 21.6819 66.1223C21.6833 66.1463 21.693 66.1688 21.7092 66.186C22.2734 66.7914 24.8718 66.0971 25.6306 65.9116C25.6572 65.9046 25.6789 65.912 25.6957 65.934L26.0968 66.4611C26.1131 66.483 26.108 66.4972 26.0814 66.5038C25.0664 66.7436 24.0467 66.9585 23.0224 67.1484C22.3849 67.267 21.7472 67.2833 21.1093 67.1974C20.1783 67.0721 19.8206 66.571 19.5084 65.7121C18.0253 61.6299 16.543 57.5479 15.0613 53.4662C15.0529 53.4443 15.0377 53.4373 15.0158 53.4452C13.7399 53.9016 12.5245 54.4835 11.3695 55.1909C10.5526 55.6907 9.39411 56.4305 10.0829 57.54C10.4546 58.1385 10.9964 58.4632 11.7433 58.9427C13.1363 59.8359 14.537 60.7101 15.8208 61.7594C16.441 62.2655 16.8113 62.6609 17.043 63.3693C17.4973 64.7559 17.5792 66.2455 17.8326 67.6762C18.0314 68.7996 18.5053 70.1604 19.976 69.7649C22.4027 69.113 24.8408 68.4998 27.2903 67.9254C27.3132 67.9198 27.3325 67.9256 27.3484 67.9429C34.8391 75.9085 46.2421 78.6825 56.7666 76.6372C62.9014 75.4451 68.5581 72.5228 72.8393 67.9408C72.8556 67.9235 72.8752 67.9177 72.8981 67.9233C75.3276 68.4917 77.7468 69.0995 80.1557 69.7467C80.4474 69.8251 80.6735 69.8557 80.834 69.8384C81.9995 69.711 82.3173 68.1718 82.4538 67.2191C82.6099 66.1314 82.7212 65.0345 82.9704 63.9636C83.1349 63.258 83.4296 62.5699 83.9448 62.1206C85.4869 60.7745 87.3104 59.6735 89.0534 58.5493C90.2336 57.7885 90.9406 56.5936 89.4503 55.5913C88.1105 54.6907 86.6795 53.9741 85.1572 53.4417C85.1551 53.4409 85.1528 53.4406 85.1506 53.4407C85.1484 53.4408 85.1462 53.4414 85.1441 53.4424C85.1421 53.4433 85.1403 53.4447 85.1388 53.4464C85.1373 53.4481 85.1362 53.4501 85.1355 53.4522C83.6384 57.5834 82.1423 61.7043 80.6471 65.815C80.4546 66.3456 80.2355 66.7655 79.763 66.9881C78.776 67.4536 77.4838 67.2219 76.4016 66.9972C75.4123 66.7914 74.6493 66.6283 74.1126 66.508C74.0827 66.5014 74.0769 66.4863 74.0951 66.4625L74.5053 65.9235C74.5212 65.9025 74.5417 65.8953 74.5669 65.9018C75.5348 66.1454 76.463 66.3232 77.3515 66.4352C77.6609 66.4744 77.9675 66.4401 78.2713 66.3323C78.7585 66.1601 78.4029 65.731 78.1418 65.5511C77.4691 65.0877 76.6263 64.8119 75.8577 64.5515C74.2785 64.0168 72.6764 63.5515 71.0515 63.1558" stroke="#9DBFE4" stroke-width="0.254932"/>
<path d="M29.1206 63.1614C35.6418 75.7447 52.5538 79.0366 63.9652 71.1907C66.9696 69.1253 69.3279 66.4731 71.0401 63.2342C71.0485 63.2183 71.0525 63.2015 71.052 63.1838C71.052 63.1749 71.052 63.1656 71.052 63.1558" stroke="#9A9980" stroke-width="0.254932"/>
<path d="M61.84 41.3114C61.847 41.0009 61.6853 40.6992 61.3904 40.4729C61.0955 40.2465 60.6916 40.1139 60.2675 40.1043C60.0575 40.0996 59.8489 40.1251 59.6535 40.1796C59.4582 40.234 59.2799 40.3162 59.129 40.4216C58.978 40.5269 58.8573 40.6533 58.7737 40.7935C58.6901 40.9337 58.6453 41.085 58.6418 41.2388C58.6348 41.5493 58.7965 41.8509 59.0914 42.0772C59.3863 42.3036 59.7902 42.4362 60.2143 42.4458C60.4243 42.4506 60.633 42.425 60.8283 42.3706C61.0237 42.3161 61.2019 42.2339 61.3528 42.1286C61.5038 42.0232 61.6245 41.8968 61.7081 41.7566C61.7917 41.6164 61.8365 41.4651 61.84 41.3114Z" stroke="#F69592" stroke-width="0.254932"/>
<path d="M45.944 49.2848C45.6003 48.6618 45.244 48.1914 44.5048 48.0899C43.3461 47.9313 42.3658 48.3036 41.5641 49.2071C41.5417 49.2318 41.5284 49.2276 41.5242 49.1945C41.3674 47.9352 38.9447 48.0003 39.0903 49.4955C39.2443 51.0792 39.4027 52.6628 39.5656 54.2461C39.7385 55.9218 41.2771 55.8581 42.4713 55.4627C42.4918 55.4561 42.4949 55.4447 42.4804 55.4284C42.1276 55.0252 41.9274 54.5158 41.8798 53.9003C41.8005 52.8723 41.7232 51.8438 41.6481 50.8149C41.548 49.4353 43.5955 48.9159 43.6837 50.4537C43.749 51.5956 43.8141 52.7375 43.879 53.8793C43.9763 55.6048 45.5485 55.5887 46.8001 55.2548C46.8258 55.2482 46.8302 55.2345 46.8134 55.2135C46.3976 54.7032 46.2968 54.2405 46.2709 53.5322C46.2368 52.5844 46.2086 51.6359 46.1862 50.6868C46.1797 50.4138 46.2063 50.2041 46.266 50.0575C46.5579 49.3422 47.6982 48.9838 48.1084 49.7726C48.2491 50.0421 48.2449 50.3977 48.247 50.7162C48.2512 51.3424 48.2598 52.2816 48.2729 53.5336C48.2841 54.6409 48.6887 55.2604 49.8444 55.343C50.2779 55.3742 50.7103 55.3371 51.1415 55.2317C51.1681 55.2251 51.1732 55.2109 51.1569 55.189C50.8307 54.7391 50.6723 54.2457 50.6816 53.7085C50.6989 52.6847 50.7129 51.6614 50.7236 50.6385C50.7287 50.1653 50.7066 49.8261 50.6571 49.6207C50.4247 48.6562 49.6442 47.9156 48.618 47.9177C47.666 47.9205 46.4557 48.3713 45.9888 49.2841C45.9743 49.313 45.9594 49.3132 45.944 49.2848Z" stroke="#9DBFE4" stroke-width="0.254932"/>
<path d="M54.3921 54.3928C55.2741 55.596 56.9499 55.7507 58.1518 54.9654C59.9333 53.7999 60.4996 51.385 59.3593 49.5693C58.317 47.9097 55.9916 47.4183 54.5398 48.8364C54.523 48.8532 54.5118 48.85 54.5062 48.8267C54.1989 47.5289 51.9694 47.6626 51.9785 48.9659C51.9949 51.3407 52.0007 53.7154 51.996 56.0902C51.9951 56.547 52.0285 56.8772 52.0961 57.0807C52.4713 58.2069 53.7439 58.1908 54.7435 57.9815C54.7683 57.9759 54.7732 57.9631 54.7582 57.943C54.4465 57.5109 54.2951 57.0559 54.3039 56.5781C54.3175 55.8501 54.3338 55.1259 54.3529 54.4054C54.353 54.4008 54.3545 54.3964 54.3572 54.3927C54.3599 54.3891 54.3637 54.3863 54.368 54.385C54.3723 54.3836 54.377 54.3836 54.3813 54.385C54.3857 54.3864 54.3894 54.3891 54.3921 54.3928Z" stroke="#9DBFE4" stroke-width="0.254932"/>
<path d="M25.0526 48.9838C25.9101 48.771 27.434 48.9635 27.6608 50.0548C27.7413 50.4411 27.5096 50.761 27.1211 50.7701C26.8845 50.775 26.5856 50.5867 26.398 50.4964C25.7617 50.1912 25.0302 50.3501 24.5451 50.8212C23.8696 51.4778 23.9186 52.5074 24.4884 53.1878C25.1275 53.9487 26.1943 54.074 27.1071 53.878C28.4525 53.5889 29.4283 52.4353 29.5081 51.0655C29.5655 50.0863 29.1217 49.1084 28.3174 48.5582C27.3213 47.8779 25.8163 47.7925 24.6592 48.0717C23.0329 48.4637 21.6959 49.3205 20.6482 50.642C18.8324 52.9309 18.733 56.1529 20.5005 58.5159C21.883 60.3646 24.27 61.3025 26.5625 60.7887C29.0111 60.24 30.5112 57.5717 29.8945 55.1757C29.8861 55.1426 29.8763 55.1421 29.8651 55.1743C29.3718 56.5756 28.4572 57.4991 27.1211 57.9448C25.166 58.5971 23.4118 57.7089 22.5739 55.8967C21.4098 53.3796 21.932 49.7566 25.0526 48.9838Z" stroke="#9DBFE4" stroke-width="0.254932"/>
<path d="M61.3231 55.5437C61.8572 55.9882 62.8484 55.9623 63.4966 55.8699C63.5208 55.8666 63.5262 55.8547 63.5127 55.8342C63.057 55.1349 63.12 54.5784 63.2019 53.6349C63.3171 52.2993 63.4336 50.9638 63.5512 49.6283C63.6744 48.2311 61.2167 47.933 61.1138 49.4036C61.0078 50.9178 60.9115 52.4319 60.8247 53.9457C60.7848 54.6547 60.8009 55.1097 61.3231 55.5437Z" stroke="#9DBFE4" stroke-width="0.254932"/>
<path d="M36.1052 55.2283C36.5728 56.3944 38.0435 56.1081 38.9556 55.7714C38.9832 55.7612 38.9867 55.7458 38.9661 55.7252C38.5732 55.3337 38.3394 54.8603 38.2647 54.305C38.0617 52.7917 37.8573 51.2781 37.6515 49.7643C37.5878 49.2926 37.4352 48.9979 36.9921 48.8474C36.2473 48.5947 35.1574 48.9104 35.1161 49.8455C35.1152 49.8749 35.1031 49.8808 35.0797 49.863C34.1179 49.1365 32.8656 49.1092 31.8359 49.6754C30.2392 50.5539 29.6771 52.5635 30.3015 54.2189C30.8895 55.7798 32.5282 57.0216 34.2516 56.6331C35.0781 56.4469 35.6733 55.9779 36.0373 55.2262C36.0404 55.2197 36.0454 55.2142 36.0515 55.2105C36.0577 55.2067 36.0648 55.2048 36.072 55.205C36.0792 55.2053 36.0861 55.2076 36.0921 55.2117C36.098 55.2158 36.1025 55.2216 36.1052 55.2283Z" stroke="#9DBFE4" stroke-width="0.254932"/>
<path d="M67.5515 50.0638C67.6215 49.0719 66.4056 48.717 65.6475 49.0019C65.2583 49.1482 65.1428 49.4877 65.0903 49.907C64.9069 51.3741 64.7286 52.8412 64.5555 54.3084C64.5093 54.7008 64.4993 54.9771 64.5254 55.1371C64.7214 56.346 66.1347 56.481 67.1056 56.3796C67.1322 56.3768 67.139 56.3637 67.1259 56.3404C66.8646 55.8714 66.7703 55.3863 66.8431 54.8851C66.9962 53.8296 67.1504 52.7736 67.3058 51.7171C67.3403 51.4838 67.3959 51.3064 67.4724 51.1851C67.8931 50.5187 69.1902 50.3318 69.3715 51.2992C69.4032 51.4691 69.386 51.7551 69.3197 52.1574C69.1494 53.1854 68.9846 54.2143 68.8255 55.2442C68.5693 56.8968 70.1674 57.1411 71.3679 57.1306C71.4202 57.1302 71.4339 57.1068 71.4092 57.0606C71.1637 56.6038 71.0935 56.1026 71.1985 55.5571C71.3875 54.5767 71.5767 53.5963 71.7662 52.6158C71.8661 52.0983 71.9102 51.7271 71.8985 51.5022C71.8516 50.602 71.2461 49.7411 70.3725 49.5248C69.3664 49.2756 68.4358 49.4609 67.5809 50.0806C67.5594 50.096 67.5496 50.0904 67.5515 50.0638Z" stroke="#9DBFE4" stroke-width="0.254932"/>
<path d="M78.8191 52.2797C78.8177 52.2829 78.8154 52.2856 78.8124 52.2875C78.8095 52.2895 78.8061 52.2905 78.8025 52.2906C78.799 52.2907 78.7954 52.2897 78.7923 52.288C78.7892 52.2862 78.7866 52.2836 78.7848 52.2804C77.9273 50.6733 75.8588 50.2995 74.3685 51.2333C72.4862 52.4134 72.0319 54.941 73.2842 56.7623C73.6473 57.291 74.1261 57.6758 74.7206 57.9166C75.7636 58.3393 76.5231 58.1244 77.4219 57.5484C77.4424 57.5353 77.4532 57.5407 77.4541 57.5645C77.5227 58.8601 78.8184 59.1779 79.8691 59.2542C79.8924 59.2556 79.8997 59.2456 79.8908 59.2241C79.6353 58.585 79.7095 58.0853 79.923 57.3769C80.343 55.9812 80.7658 54.5864 81.1914 53.1925C81.5029 52.1733 80.4718 51.6078 79.5877 51.7163C79.2209 51.762 78.9647 51.9498 78.8191 52.2797Z" stroke="#9DBFE4" stroke-width="0.254932"/>
<path d="M55.0708 53.9576C55.5804 54.3902 56.2979 54.1501 56.65 53.637C57.4186 52.5178 57.581 50.653 56.5905 49.5709C56.1705 49.1124 55.5069 49.0641 55.0456 49.482C54.0649 50.3731 54.0551 53.0959 55.0708 53.9576Z" stroke="#9DBFE4" stroke-width="0.254932"/>
<path d="M33.2208 54.35C33.5967 54.9827 34.3387 55.6442 35.0716 55.1486C36.116 54.4417 35.738 52.3747 35.3334 51.4339C35.0142 50.6912 34.2638 49.9997 33.4259 50.5792C32.3353 51.3345 32.6475 53.3854 33.2208 54.35Z" stroke="#9DBFE4" stroke-width="0.254932"/>
<path d="M75.2548 55.8768C75.4116 56.749 76.1781 57.4783 77.0545 56.8526C77.9694 56.1988 78.3474 54.7716 78.3425 53.6901C78.339 53.0063 78.0373 52.2874 77.2911 52.209C76.6576 52.1425 76.0913 52.6297 75.7735 53.1441C75.2513 53.9897 75.0784 54.9006 75.2548 55.8768Z" stroke="#9DBFE4" stroke-width="0.254932"/>
<path d="M47.964 66.5487C47.9211 66.6057 47.8996 66.5984 47.8996 66.527C47.901 65.5195 47.901 64.5249 47.8996 63.5431C47.8982 62.7528 46.732 62.715 46.7299 63.5256C46.7262 65.0174 46.7299 66.5093 46.7411 68.0012C46.7481 68.9237 47.3585 69 48.1201 68.8565C48.1256 68.8554 48.1308 68.853 48.1352 68.8494C48.1395 68.8458 48.1429 68.8412 48.145 68.836C48.147 68.8308 48.1478 68.8251 48.1471 68.8195C48.1464 68.8139 48.1444 68.8086 48.1411 68.804C47.8254 68.3658 47.8758 67.5875 47.9101 67.0751C47.9102 67.0705 47.9118 67.066 47.9147 67.0624C47.9175 67.0587 47.9215 67.0561 47.9259 67.0548C47.9304 67.0536 47.9351 67.0538 47.9395 67.0554C47.9438 67.057 47.9475 67.06 47.95 67.0639C48.2897 67.5403 48.6589 67.9986 49.0574 68.4386C49.2301 68.629 49.3733 68.7529 49.4872 68.8103C49.8561 68.9958 50.393 68.9342 50.5134 68.4589C50.519 68.4379 50.5115 68.4237 50.491 68.4162C49.8624 68.1824 49.2569 67.3691 48.8446 66.8098C48.832 66.7925 48.8322 66.7758 48.8453 66.7594C49.3204 66.1602 49.822 65.5839 50.3503 65.0305C50.3547 65.0261 50.3577 65.0204 50.3588 65.0143C50.36 65.0081 50.3592 65.0017 50.3567 64.996C50.3541 64.9902 50.3499 64.9853 50.3445 64.9818C50.3391 64.9784 50.3329 64.9766 50.3265 64.9766C50.0059 64.9808 49.3535 64.9493 49.1246 65.188C48.6985 65.6299 48.3117 66.0835 47.964 66.5487Z" stroke="#9A9980" stroke-width="0.254932"/>
<path d="M55.7375 63.8321C55.7375 63.7349 55.7184 63.6386 55.6812 63.5487C55.644 63.4589 55.5894 63.3772 55.5206 63.3085C55.4519 63.2397 55.3702 63.1851 55.2804 63.1479C55.1905 63.1107 55.0942 63.0916 54.9969 63.0916C54.8005 63.0916 54.6122 63.1696 54.4733 63.3085C54.3344 63.4473 54.2563 63.6357 54.2563 63.8321C54.2563 63.9294 54.2755 64.0257 54.3127 64.1155C54.3499 64.2054 54.4045 64.287 54.4733 64.3558C54.542 64.4245 54.6237 64.4791 54.7135 64.5163C54.8034 64.5535 54.8997 64.5727 54.9969 64.5727C55.0942 64.5727 55.1905 64.5535 55.2804 64.5163C55.3702 64.4791 55.4519 64.4245 55.5206 64.3558C55.5894 64.287 55.644 64.2054 55.6812 64.1155C55.7184 64.0257 55.7375 63.9294 55.7375 63.8321Z" stroke="#9A9980" stroke-width="0.254932"/>
<path d="M54.4404 68.8493C54.7516 69.0495 55.1056 69.091 55.5023 68.9739C55.5228 68.9678 55.5279 68.9557 55.5177 68.9375C55.3786 68.6878 55.3168 68.4179 55.3322 68.1276C55.3742 67.3208 55.4187 66.5137 55.4659 65.7064C55.478 65.4908 55.461 65.3347 55.4148 65.2381C55.2349 64.8616 54.5664 64.828 54.3809 65.1919C54.3342 65.2834 54.3034 65.471 54.2885 65.7547C54.2502 66.4626 54.207 67.17 54.159 67.877C54.138 68.1794 54.1639 68.6722 54.4404 68.8493Z" stroke="#9A9980" stroke-width="0.254932"/>
<path d="M52.1892 65.6205C52.0345 65.0227 51.4675 64.8834 50.9222 65.0731C50.8965 65.0819 50.889 65.099 50.8998 65.1242C50.9917 65.3388 51.037 65.5645 51.0356 65.801C51.0281 66.8155 51.012 67.8319 50.9873 68.8501C50.9868 68.872 50.9973 68.8832 51.0188 68.8837L52.1542 68.9061C52.1583 68.9062 52.1624 68.9055 52.1662 68.904C52.17 68.9025 52.1735 68.9002 52.1764 68.8973C52.1793 68.8945 52.1817 68.891 52.1833 68.8872C52.1848 68.8835 52.1857 68.8794 52.1857 68.8753C52.1959 68.1627 52.2132 67.4497 52.2375 66.7362C52.2508 66.347 52.3145 66.0005 52.71 65.9032C53.046 65.8202 53.2476 65.949 53.3148 66.2896C53.3194 66.312 53.3316 66.3174 53.3512 66.3057C53.76 66.0684 54.0281 65.5988 53.6746 65.1977C53.5472 65.0542 53.3904 64.9905 53.2014 64.9884C52.731 64.9828 52.412 65.1946 52.2445 65.624C52.2421 65.6295 52.238 65.6342 52.2328 65.6374C52.2277 65.6406 52.2216 65.6421 52.2156 65.6417C52.2095 65.6413 52.2037 65.6391 52.199 65.6353C52.1943 65.6315 52.1908 65.6263 52.1892 65.6205Z" stroke="#9A9980" stroke-width="0.254932"/>
<path d="M42.1031 67.0471C42.3765 67.2538 42.7067 67.4234 43.0936 67.556C43.2427 67.6063 43.5101 67.7435 43.5682 67.8905C43.6865 68.1922 43.3449 68.3574 43.1055 68.3707C42.6131 68.3978 42.2244 68.2146 41.9393 67.8212C41.9257 67.8026 41.9127 67.8028 41.9001 67.8219C40.7626 69.5768 45.1348 69.5292 44.6518 67.5371C44.4341 66.6397 42.8794 66.6663 42.808 66.1518C42.7401 65.6597 43.5157 65.7332 43.7747 65.8123C44.145 65.925 44.3991 65.729 44.3683 65.3287C44.3669 65.3067 44.3561 65.2909 44.3361 65.2811C43.5878 64.9283 42.4405 64.9416 41.9218 65.6723C41.6278 66.0867 41.6992 66.7419 42.1031 67.0471Z" stroke="#9A9980" stroke-width="0.254932"/>
<path d="M57.4997 65.6255C57.3751 64.8828 56.3937 64.8612 56.3391 65.6801C56.2822 66.5308 56.2262 67.3815 56.1711 68.2322C56.1109 69.147 56.7199 69.3185 57.4864 69.1827C57.5107 69.1785 57.5172 69.1657 57.506 69.1442C57.3632 68.8675 57.3044 68.5745 57.3296 68.2651C57.3905 67.5182 57.3954 66.8344 57.4549 66.413C57.5347 65.8523 58.4482 65.6066 58.416 66.4942C58.395 67.0588 58.3665 67.6225 58.3306 68.1853C58.2991 68.6725 58.3208 69.1134 58.8024 69.2821C59.0437 69.3666 59.3288 69.3675 59.6578 69.2849C59.6783 69.2798 59.6837 69.2677 59.6739 69.2485C59.4646 68.8314 59.5024 68.5206 59.5227 68.0726C59.56 67.269 59.5946 66.7625 59.6263 66.553C59.7159 65.9559 60.6413 65.7473 60.6007 66.5558C60.5559 67.4555 60.5258 68.0245 60.5104 68.263C60.4901 68.585 60.4677 68.9378 60.6679 69.1764C60.9185 69.476 61.468 69.4858 61.8376 69.3885C61.8619 69.382 61.8679 69.3678 61.8558 69.3458C61.7214 69.098 61.66 68.8729 61.6717 68.6704C61.7114 68.0115 61.7489 67.3526 61.7844 66.6937C61.8712 65.0914 60.4852 64.8444 59.5822 65.8936C59.5575 65.9221 59.5414 65.9179 59.5339 65.881C59.319 64.8668 58.0814 65.0704 57.5375 65.6374C57.517 65.6589 57.5044 65.6549 57.4997 65.6255Z" stroke="#9A9980" stroke-width="0.254932"/>
<path d="M37.7802 67.2569C37.8712 68.976 39.4126 69.774 40.933 69.067C41.528 68.7906 41.6848 68.2866 41.1591 67.8085C41.1362 67.788 41.1203 67.7924 41.1115 67.8218C40.8028 68.8487 39.1438 68.8214 38.931 67.7203C38.9296 67.713 38.9297 67.7056 38.9314 67.6983C38.9331 67.6911 38.9363 67.6844 38.9408 67.6785C38.9453 67.6726 38.951 67.6677 38.9575 67.6642C38.964 67.6607 38.9712 67.6586 38.9786 67.658C39.701 67.6083 41.4839 67.2135 41.0688 66.0845C40.7475 65.2088 39.4546 65.122 38.7175 65.4888C38.0473 65.8225 37.7349 66.4118 37.7802 67.2569Z" stroke="#9A9980" stroke-width="0.254932"/>
<path d="M39.9261 65.9696C39.8711 65.9234 39.816 65.8973 39.7609 65.8912C39.0798 65.8128 38.7186 66.4092 38.7753 67.0182C38.7772 67.0401 38.7893 67.0509 38.8117 67.0504C39.1403 67.0378 39.4448 66.9596 39.7252 66.8159C40.085 66.6318 40.33 66.3035 39.9261 65.9696Z" stroke="#9A9980" stroke-width="0.254932"/>
<path d="M49.1131 22H50.8435C57.3304 22.217 64.3864 25.4802 66.4955 32.1369C66.5025 32.1588 66.5163 32.1754 66.5368 32.1866C71.5432 34.8927 75.7936 38.9189 78.2947 44.0804C78.2995 44.0907 78.3066 44.0997 78.3155 44.1067C78.3244 44.1138 78.3347 44.1187 78.3458 44.121C82.3218 45.0401 87.2351 47.0161 86.9341 52.0558C86.9327 52.0806 86.9432 52.0981 86.9656 52.1083C88.2361 52.6858 89.4121 53.2584 90.5573 54.0647C91.2321 54.5398 91.713 55.1152 92 55.7909V57.9874C91.6295 58.8133 91.0751 59.4755 90.3368 59.9739C88.9816 60.8894 86.8193 62.1494 85.2422 63.5073C84.9559 63.7537 84.8621 64.1597 84.7879 64.5229C84.5926 65.4861 84.4974 66.3646 84.3518 67.2871C84.0921 68.9285 83.6707 70.691 82.0726 71.4414C81.6162 71.6561 81.1327 71.7576 80.6222 71.7459C80.3599 71.7398 79.9712 71.6666 79.456 71.5261C77.4867 70.9904 75.5108 70.4895 73.5284 70.0233C73.5055 70.0177 73.4855 70.0233 73.4682 70.0401C68.1832 75.2009 61.3834 78.1688 54.0712 78.9772H46.164C38.8707 78.166 31.9827 75.2268 26.7362 70.038C26.7194 70.0212 26.6991 70.0139 26.6753 70.0163C26.5857 70.024 26.4702 70.0716 26.4114 70.0856C24.5177 70.5382 22.6307 71.0163 20.7505 71.5198C20.1212 71.6885 19.8146 71.7879 19.2987 71.7438C17.1784 71.5611 16.2971 69.8434 15.9597 67.9738C15.7231 66.6634 15.6405 65.3167 15.2723 64.0344C15.2018 63.7884 15.052 63.5726 14.8229 63.3869C13.2787 62.1382 11.8269 61.2716 10.142 60.1608C9.0689 59.4531 8.1974 58.5284 8 57.2048V56.5216C8.1673 55.4479 8.8085 54.6191 9.6912 54.0158C10.814 53.2477 11.9699 52.6254 13.159 52.1489C13.2374 52.1177 13.2719 52.0682 13.2626 52.0005C13.2589 51.9711 13.2568 51.9543 13.2563 51.9501C13.0281 46.9405 17.8959 45.0919 21.8299 44.1182C21.8537 44.1122 21.8712 44.0982 21.8824 44.0762C24.4556 38.9315 28.5975 34.9088 33.6704 32.1803C33.6906 32.1696 33.7059 32.1512 33.7131 32.1292C35.8418 25.5278 42.6479 22.3255 49.1131 22ZM25.3481 44.7097C25.3495 44.7284 25.3817 44.7309 25.4447 44.7174C30.697 43.5573 36.017 42.7783 41.4047 42.3802L45.45 42.1541C49.0886 42.0113 52.7223 42.0356 56.3511 42.2269L56.2783 43.1754L56.2615 43.0697C56.2573 43.0445 56.2426 43.0312 56.2174 43.0298C44.3762 42.404 32.3852 43.5345 20.9451 46.6997C18.4363 47.3941 15.0819 48.934 15.5922 52.1902C15.6617 52.634 15.8001 53.142 16.0073 53.7141C17.4227 57.6231 18.8402 61.5313 20.2598 65.4385C20.3788 65.7654 20.5643 66.2022 20.8954 66.3611C20.9206 66.3732 20.9292 66.3657 20.9213 66.3387C20.5951 65.2782 22.2219 64.5362 22.9961 64.2332C24.2076 63.7581 25.4795 63.3407 26.8118 62.9809C35.209 60.7137 43.8218 60.06 52.4892 60.1937C59.2939 60.2986 66.2757 61.1001 72.9012 62.8528C74.4895 63.2735 76.0701 63.753 77.5849 64.3941C78.3136 64.7028 79.5309 65.4049 79.2705 66.3408C79.263 66.3678 79.2721 66.3755 79.2978 66.3638C79.6156 66.2155 79.8298 65.7241 79.9425 65.4126C81.2692 61.7434 82.6006 58.0758 83.9367 54.4098C84.4204 53.0827 84.9419 51.7479 84.4379 50.3234C83.6602 48.1241 80.779 47.1071 78.7469 46.5583C73.7979 45.2232 68.7791 44.2592 63.6906 43.666L63.7424 42.859C67.4361 43.2934 71.0992 43.9162 74.7317 44.7272C74.7714 44.7361 74.8092 44.7298 74.8451 44.7083L76.6812 45.1822C76.7069 45.1887 76.7141 45.1798 76.7029 45.1556C74.2809 39.9765 69.9661 36.0322 64.8848 33.4619C64.875 33.4572 64.8663 33.4501 64.8595 33.4414C64.8528 33.4327 64.848 33.4225 64.8456 33.4115C63.8082 28.4474 59.0279 25.3773 54.3869 24.3547C48.6952 23.101 41.8387 24.333 37.7591 28.7806C36.55 30.0984 35.7401 31.6479 35.3294 33.429C35.3266 33.4411 35.3211 33.4524 35.3135 33.4621C35.3059 33.4717 35.2963 33.4796 35.2853 33.485C30.2446 35.9916 25.9123 40.015 23.4945 45.1423C23.4758 45.1819 23.4875 45.1962 23.5295 45.185L25.3481 44.7097ZM71.0518 63.1559C65.043 61.7343 59.0069 61.1211 52.7783 60.9755C44.7801 60.7893 36.8617 61.3346 29.1204 63.1615C26.9539 63.6942 24.7286 64.3066 22.6727 65.1998C22.3437 65.3426 21.6605 65.6926 21.6822 66.1224C21.6836 66.1464 21.6932 66.1689 21.7095 66.1861C22.2737 66.7915 24.8721 66.0972 25.6309 65.9117C25.6575 65.9047 25.6792 65.9121 25.696 65.9341L26.0971 66.4611C26.1134 66.4831 26.1083 66.4973 26.0817 66.5038C25.0667 66.7437 24.047 66.9586 23.0227 67.1485C22.3852 67.267 21.7475 67.2834 21.1096 67.1975C20.1786 67.0722 19.8209 66.571 19.5087 65.7122C18.0256 61.63 16.5433 57.548 15.0616 53.4663C15.0532 53.4443 15.038 53.4373 15.0161 53.4453C13.7402 53.9017 12.5248 54.4836 11.3698 55.191C10.5529 55.6908 9.3944 56.4306 10.0832 57.5401C10.4549 58.1385 10.9967 58.4633 11.7436 58.9428C13.1366 59.836 14.5373 60.7102 15.8211 61.7595C16.4413 62.2656 16.8116 62.661 17.0433 63.3694C17.4976 64.756 17.5795 66.2456 17.8329 67.6763C18.0317 68.7997 18.5056 70.1605 19.9763 69.765C22.403 69.1131 24.8411 68.4999 27.2906 67.9255C27.3135 67.9199 27.3328 67.9257 27.3487 67.943C34.8394 75.9086 46.2424 78.6826 56.7669 76.6373C62.9017 75.4452 68.5584 72.5229 72.8396 67.9409C72.8559 67.9236 72.8755 67.9178 72.8984 67.9234C75.3279 68.4917 77.7471 69.0996 80.156 69.7468C80.4477 69.8252 80.6738 69.8558 80.8343 69.8385C81.9998 69.7111 82.3176 68.1719 82.4541 67.2192C82.6102 66.1315 82.7215 65.0346 82.9707 63.9637C83.1352 63.2581 83.4299 62.57 83.9451 62.1207C85.4872 60.7746 87.3107 59.6736 89.0537 58.5494C90.2339 57.7886 90.9409 56.5937 89.4506 55.5914C88.1108 54.6908 86.6798 53.9742 85.1575 53.4418C85.1554 53.441 85.1531 53.4407 85.1509 53.4408C85.1487 53.4409 85.1465 53.4415 85.1444 53.4424C85.1424 53.4434 85.1406 53.4448 85.1391 53.4465C85.1376 53.4482 85.1365 53.4501 85.1358 53.4523C83.6387 57.5835 82.1426 61.7044 80.6474 65.8151C80.4549 66.3457 80.2358 66.7656 79.7633 66.9882C78.7763 67.4537 77.4841 67.222 76.4019 66.9973C75.4126 66.7915 74.6496 66.6284 74.1129 66.508C74.083 66.5015 74.0772 66.4863 74.0954 66.4625L74.5056 65.9236C74.5215 65.9026 74.542 65.8953 74.5672 65.9019C75.5351 66.1455 76.4633 66.3233 77.3518 66.4352C77.6612 66.4744 77.9678 66.4401 78.2716 66.3324C78.7588 66.1602 78.4032 65.7311 78.1421 65.5512C77.4694 65.0878 76.6266 64.812 75.858 64.5516C74.2788 64.0169 72.6767 63.5516 71.0518 63.1559Z" fill="white"/>
<path d="M74.8451 44.7081C74.0541 43.2582 73.1039 41.9129 71.9947 40.6721C69.5489 37.9968 66.7901 36.0376 63.5211 34.4396C63.4997 34.4289 63.4873 34.4114 63.4841 34.3871C62.7994 29.4033 57.9989 26.4775 53.4538 25.6445C48.3312 24.7059 42.1075 25.9098 38.5886 30.0998C37.5456 31.342 36.9188 32.7713 36.7084 34.3878C36.7056 34.4121 36.6932 34.4296 36.6713 34.4403C33.445 36.0026 30.6296 37.9877 28.2195 40.6455C27.0999 41.904 26.1428 43.2587 25.3481 44.7095L23.5295 45.1848C23.4875 45.196 23.4758 45.1817 23.4945 45.1421C25.9123 40.0148 30.2446 35.9914 35.2853 33.4848C35.2962 33.4794 35.3058 33.4715 35.3135 33.4618C35.3211 33.4522 35.3265 33.4409 35.3294 33.4288C35.74 31.6477 36.5499 30.0982 37.7591 28.7804C41.8387 24.3328 48.6952 23.1008 54.3869 24.3545C59.0279 25.3771 63.8082 28.4472 64.8456 33.4113C64.8479 33.4223 64.8527 33.4325 64.8595 33.4412C64.8663 33.4499 64.8749 33.457 64.8848 33.4617C69.966 36.032 74.2808 39.9763 76.7028 45.1554C76.714 45.1796 76.7068 45.1885 76.6811 45.182L74.8451 44.7081Z" fill="#3B7FC9"/>
<path d="M71.9949 40.6721C72.0187 40.957 71.8353 41.1943 71.5819 40.9801C68.9387 38.7451 66.0148 37.2255 62.7787 36.0321C62.5921 35.963 62.4287 35.8176 62.2887 35.596C62.2803 35.5239 62.2355 35.4385 62.2208 35.3615C61.8379 33.3547 60.5772 31.7028 58.942 30.5219C55.7003 28.1819 51.445 27.4855 47.5453 28.0559C44.3113 28.5018 40.7798 30.0949 38.9584 32.9004C37.2756 35.4924 37.6494 38.5281 39.6479 40.8065C39.6428 40.933 39.5898 41.0058 39.489 41.0249C39.472 41.0281 39.4544 41.0272 39.4378 41.0222C39.4213 41.0172 39.4062 41.0083 39.3938 40.9962C38.0722 39.7167 37.1279 38.1495 36.8052 36.3351C36.8036 36.3261 36.7999 36.3175 36.7946 36.31C36.7892 36.3025 36.7823 36.2963 36.7743 36.2917C36.7663 36.2872 36.7574 36.2845 36.7482 36.2838C36.7391 36.283 36.7298 36.2843 36.7212 36.2875C33.7798 37.3872 31.0246 38.925 28.632 40.9717C28.3576 41.2062 28.1581 40.9234 28.2197 40.6455C30.6298 37.9878 33.4452 36.0027 36.6715 34.4403C36.6935 34.4296 36.7058 34.4121 36.7086 34.3878C36.9191 32.7714 37.5458 31.342 38.5888 30.0998C42.1077 25.9098 48.3314 24.7059 53.454 25.6446C57.9991 26.4775 62.7997 29.4034 63.4843 34.3871C63.4876 34.4114 63.5 34.4289 63.5214 34.4396C66.7904 36.0377 69.5491 37.9969 71.9949 40.6721Z" fill="#ED2B24"/>
<path d="M62.2888 35.596C62.2715 35.7136 62.268 35.831 62.2783 35.9481C62.2969 36.1586 62.3063 36.275 62.3063 36.2974C62.3063 37.4635 62.0116 38.5482 61.4222 39.5515C59.1801 38.7011 56.9828 39.9169 56.3514 42.2268C52.7226 42.0355 49.0889 42.0112 45.4503 42.154C45.4615 42.1451 45.4645 42.1337 45.4594 42.1197C45.4561 42.1113 45.4486 42.1038 45.437 42.0973C43.1284 40.7331 41.216 38.5534 41.1194 35.7577C40.9913 32.0535 44.2596 29.3138 47.4103 28.1421C47.4317 28.1342 47.4502 28.1218 47.4656 28.105C47.487 28.0817 47.5136 28.0653 47.5454 28.056C51.4451 27.4855 55.7004 28.182 58.9421 30.522C60.5773 31.7028 61.838 33.3547 62.2209 35.3615C62.2356 35.4385 62.2804 35.5239 62.2888 35.596Z" fill="#F9F8A0"/>
<path d="M47.5448 28.0562C47.5131 28.0655 47.4865 28.0818 47.465 28.1052C47.4496 28.1219 47.4312 28.1343 47.4097 28.1422C44.259 29.314 40.9907 32.0537 41.1188 35.7579C41.2154 38.5535 43.1278 40.7332 45.4364 42.0975C45.4481 42.104 45.4556 42.1115 45.4588 42.1199C45.464 42.1339 45.4609 42.1453 45.4497 42.1542L41.4044 42.3803C40.7614 41.908 40.1757 41.3835 39.6474 40.8067C37.6489 38.5283 37.2751 35.4926 38.9579 32.9006C40.7793 30.0952 44.3108 28.502 47.5448 28.0562Z" fill="#F8DE35"/>
<path d="M62.289 35.5962C62.429 35.8178 62.5923 35.9632 62.779 36.0323C66.0151 37.2257 68.939 38.7453 71.5822 40.9803C71.8356 41.1945 72.019 40.9572 71.9952 40.6723C73.1044 41.9132 74.0546 43.2585 74.8456 44.7084C74.8096 44.7298 74.7718 44.7361 74.7322 44.7272C71.0996 43.9162 67.4365 43.2935 63.7429 42.859C63.7167 42.2659 63.5679 41.7249 63.2963 41.2358C62.8595 40.4514 62.2348 39.89 61.4224 39.5517C62.0118 38.5484 62.3065 37.4637 62.3065 36.2976C62.3065 36.2752 62.2971 36.1587 62.2785 35.9483C62.2682 35.8311 62.2717 35.7138 62.289 35.5962Z" fill="#A7D2F1"/>
<path d="M39.6477 40.8069C40.176 41.3837 40.7617 41.9082 41.4047 42.3804C36.0171 42.7785 30.6971 43.5575 25.4447 44.7176C25.3817 44.7311 25.3495 44.7286 25.3481 44.7099C26.1429 43.2591 27.1 41.9044 28.2195 40.6459C28.1579 40.9238 28.3574 41.2066 28.6318 40.9721C31.0244 38.9254 33.7796 37.3876 36.721 36.2879C36.7297 36.2847 36.7389 36.2834 36.7481 36.2841C36.7572 36.2849 36.7661 36.2876 36.7741 36.2921C36.7822 36.2967 36.7891 36.3029 36.7944 36.3104C36.7997 36.3179 36.8034 36.3265 36.805 36.3355C37.1277 38.1498 38.072 39.7171 39.3936 40.9966C39.406 41.0087 39.4211 41.0176 39.4377 41.0226C39.4542 41.0276 39.4718 41.0285 39.4888 41.0253C39.5896 41.0062 39.6426 40.9334 39.6477 40.8069Z" fill="#F382C5"/>
<path d="M61.4219 39.5515C62.2344 39.8898 62.859 40.4512 63.2958 41.2356C63.5674 41.7246 63.7163 42.2657 63.7424 42.8588L63.6906 43.6659C63.4057 45.2723 62.1009 46.5112 60.4993 46.7128C58.316 46.9879 56.3875 45.3717 56.2783 43.1752L56.3511 42.2267C56.9825 39.9169 59.1798 38.701 61.4219 39.5515ZM61.8401 41.3111C61.8472 41.0006 61.6854 40.699 61.3905 40.4726C61.0956 40.2462 60.6917 40.1137 60.2676 40.104C60.0576 40.0993 59.849 40.1248 59.6536 40.1793C59.4583 40.2337 59.28 40.3159 59.1291 40.4213C58.9781 40.5266 58.8574 40.653 58.7738 40.7932C58.6902 40.9335 58.6454 41.0848 58.6419 41.2385C58.6349 41.549 58.7966 41.8506 59.0915 42.077C59.3864 42.3033 59.7903 42.4359 60.2144 42.4455C60.4244 42.4503 60.6331 42.4247 60.8284 42.3703C61.0238 42.3159 61.202 42.2336 61.353 42.1283C61.5039 42.0229 61.6246 41.8966 61.7082 41.7563C61.7918 41.6161 61.8366 41.4648 61.8401 41.3111Z" fill="#ED2B24"/>
<path d="M60.2144 42.4459C61.0976 42.4659 61.8254 41.958 61.8401 41.3114C61.8547 40.6648 61.1507 40.1244 60.2675 40.1044C59.3844 40.0844 58.6566 40.5923 58.6419 41.2389C58.6272 41.8854 59.3313 42.4258 60.2144 42.4459Z" fill="white"/>
<path d="M56.2781 43.1753C56.3873 45.3718 58.3158 46.988 60.4991 46.7129C62.1007 46.5113 63.4055 45.2724 63.6904 43.666C68.7789 44.2591 73.7977 45.2232 78.7467 46.5582C80.7788 47.107 83.66 48.1241 84.4377 50.3233C84.9417 51.7478 84.4202 53.0826 83.9365 54.4097C82.6004 58.0757 81.2691 61.7433 79.9423 65.4125C79.8296 65.724 79.6154 66.2154 79.2976 66.3638C79.2719 66.3754 79.2628 66.3677 79.2703 66.3407C79.5307 65.4048 78.3134 64.7027 77.5847 64.3941C76.0699 63.7529 74.4893 63.2734 72.901 62.8527C66.2755 61.1 59.2937 60.2986 52.489 60.1936C43.8216 60.0599 35.2088 60.7136 26.8116 62.9808C25.4793 63.3406 24.2074 63.758 22.9959 64.2331C22.2217 64.5362 20.5949 65.2781 20.9211 66.3386C20.9291 66.3656 20.9204 66.3731 20.8952 66.361C20.5641 66.2021 20.3786 65.7653 20.2596 65.4384C18.84 61.5312 17.4225 57.6231 16.0071 53.714C15.7999 53.1419 15.6616 52.6339 15.592 52.1902C15.0817 48.9339 18.4361 47.394 20.9449 46.6996C32.385 43.5344 44.376 42.4039 56.2172 43.0297C56.2424 43.0311 56.2571 43.0444 56.2613 43.0696L56.2781 43.1753ZM45.944 49.2846C45.6003 48.6616 45.244 48.1913 44.5048 48.0898C43.3461 47.9311 42.3658 48.3035 41.5641 49.2069C41.5417 49.2316 41.5284 49.2274 41.5242 49.1943C41.3674 47.9351 38.9447 48.0002 39.0903 49.4953C39.2443 51.0791 39.4028 52.6626 39.5656 54.246C39.7385 55.9217 41.2771 55.858 42.4713 55.4625C42.4918 55.456 42.4949 55.4445 42.4804 55.4282C42.1276 55.025 41.9274 54.5157 41.8798 53.9002C41.8005 52.8722 41.7232 51.8437 41.6481 50.8147C41.548 49.4351 43.5955 48.9157 43.6837 50.4535C43.749 51.5954 43.8141 52.7373 43.879 53.8792C43.9763 55.6046 45.5485 55.5885 46.8001 55.2546C46.8258 55.2481 46.8302 55.2343 46.8134 55.2133C46.3976 54.703 46.2968 54.2404 46.2709 53.532C46.2368 52.5842 46.2086 51.6358 46.1862 50.6866C46.1797 50.4136 46.2063 50.2039 46.266 50.0574C46.5579 49.342 47.6982 48.9836 48.1084 49.7725C48.2491 50.042 48.2449 50.3975 48.247 50.716C48.2512 51.3423 48.2598 52.2814 48.2729 53.5334C48.2841 54.6407 48.6887 55.2602 49.8444 55.3428C50.278 55.3741 50.7103 55.337 51.1415 55.2315C51.1681 55.225 51.1732 55.2107 51.1569 55.1888C50.8307 54.739 50.6723 54.2455 50.6816 53.7084C50.6989 52.6846 50.7129 51.6612 50.7236 50.6383C50.7287 50.1652 50.7066 49.8259 50.6571 49.6206C50.4247 48.656 49.6442 47.9155 48.618 47.9176C47.666 47.9204 46.4557 48.3711 45.9888 49.2839C45.9743 49.3128 45.9594 49.3131 45.944 49.2846ZM54.3916 54.393C55.2736 55.5962 56.9494 55.7509 58.1513 54.9655C59.9328 53.8001 60.4991 51.3852 59.3588 49.5695C58.3165 47.9099 55.9911 47.4185 54.5393 48.8366C54.5225 48.8534 54.5113 48.8502 54.5057 48.8268C54.1984 47.5291 51.9689 47.6628 51.978 48.9661C51.9944 51.3409 52.0002 53.7156 51.9955 56.0904C51.9946 56.5472 52.028 56.8774 52.0956 57.0808C52.4708 58.2071 53.7434 58.191 54.743 57.9817C54.7677 57.9761 54.7726 57.9632 54.7577 57.9432C54.446 57.5111 54.2945 57.0561 54.3034 56.5782C54.3169 55.8503 54.3333 55.126 54.3524 54.4055C54.3525 54.401 54.3539 54.3966 54.3566 54.3929C54.3593 54.3892 54.3631 54.3865 54.3675 54.3851C54.3718 54.3837 54.3765 54.3837 54.3808 54.3851C54.3851 54.3865 54.3889 54.3893 54.3916 54.393ZM25.0525 48.9836C25.91 48.7708 27.4339 48.9633 27.6607 50.0546C27.7412 50.4409 27.5095 50.7608 27.121 50.7699C26.8844 50.7748 26.5855 50.5865 26.3979 50.4962C25.7616 50.1911 25.0301 50.3499 24.545 50.821C23.8695 51.4776 23.9185 52.5072 24.4883 53.1876C25.1274 53.9485 26.1942 54.0738 27.107 53.8778C28.4524 53.5887 29.4282 52.4351 29.508 51.0653C29.5654 50.0861 29.1216 49.1082 28.3173 48.558C27.3212 47.8777 25.8162 47.7923 24.6591 48.0716C23.0328 48.4635 21.6958 49.3203 20.6481 50.6418C18.8323 52.9307 18.7329 56.1527 20.5004 58.5157C21.8829 60.3644 24.2699 61.3023 26.5624 60.7885C29.011 60.2398 30.5111 57.5715 29.8944 55.1755C29.886 55.1424 29.8762 55.1419 29.865 55.1741C29.3718 56.5754 28.4571 57.4989 27.121 57.9446C25.1659 58.5969 23.4117 57.7087 22.5738 55.8965C21.4097 53.3794 21.9319 49.7564 25.0525 48.9836ZM61.323 55.5437C61.8571 55.9882 62.8483 55.9623 63.4965 55.8699C63.5208 55.8666 63.5261 55.8547 63.5126 55.8342C63.0569 55.1349 63.1199 54.5784 63.2018 53.6349C63.3171 52.2994 63.4335 50.9638 63.5511 49.6283C63.6743 48.2311 61.2166 47.933 61.1137 49.4036C61.0078 50.9179 60.9114 52.4319 60.8246 53.9457C60.7847 54.6547 60.8008 55.1097 61.323 55.5437ZM36.1048 55.228C36.5724 56.3942 38.0431 56.1079 38.9552 55.7712C38.9827 55.7609 38.9862 55.7455 38.9657 55.725C38.5728 55.3335 38.339 54.8601 38.2643 54.3048C38.0613 52.7914 37.8569 51.2779 37.6511 49.7641C37.5874 49.2923 37.4348 48.9976 36.9917 48.8471C36.2469 48.5944 35.157 48.9101 35.1157 49.8453C35.1148 49.8747 35.1026 49.8805 35.0793 49.8628C34.1175 49.1362 32.8652 49.1089 31.8355 49.6752C30.2388 50.5536 29.6767 52.5632 30.3011 54.2187C30.8891 55.7796 32.5278 57.0213 34.2512 56.6328C35.0777 56.4467 35.6729 55.9777 36.0369 55.2259C36.04 55.2194 36.0449 55.2139 36.0511 55.2102C36.0572 55.2065 36.0644 55.2046 36.0716 55.2048C36.0788 55.205 36.0857 55.2073 36.0916 55.2115C36.0975 55.2156 36.1021 55.2213 36.1048 55.228ZM67.5516 50.0637C67.6216 49.0718 66.4057 48.7169 65.6476 49.0018C65.2584 49.1481 65.1429 49.4876 65.0904 49.9069C64.907 51.374 64.7287 52.8411 64.5556 54.3083C64.5094 54.7007 64.4994 54.977 64.5255 55.137C64.7215 56.3459 66.1348 56.4809 67.1057 56.3795C67.1323 56.3767 67.1391 56.3636 67.126 56.3403C66.8647 55.8713 66.7704 55.3862 66.8432 54.885C66.9963 53.8295 67.1505 52.7735 67.3059 51.717C67.3404 51.4837 67.396 51.3063 67.4725 51.185C67.8932 50.5186 69.1903 50.3317 69.3716 51.2991C69.4033 51.469 69.3861 51.755 69.3198 52.1573C69.1495 53.1853 68.9847 54.2142 68.8256 55.2441C68.5694 56.8967 70.1675 57.141 71.368 57.1305C71.4203 57.1301 71.434 57.1067 71.4093 57.0605C71.1638 56.6037 71.0936 56.1025 71.1986 55.557C71.3876 54.5766 71.5769 53.5962 71.7663 52.6157C71.8662 52.0982 71.9103 51.727 71.8986 51.5021C71.8517 50.6019 71.2462 49.741 70.3726 49.5247C69.3665 49.2755 68.4359 49.4608 67.581 50.0805C67.5595 50.0959 67.5497 50.0903 67.5516 50.0637ZM78.8188 52.2798C78.8174 52.2829 78.8151 52.2856 78.8122 52.2876C78.8092 52.2895 78.8058 52.2905 78.8023 52.2906C78.7987 52.2907 78.7952 52.2898 78.792 52.288C78.7889 52.2862 78.7863 52.2836 78.7845 52.2805C77.927 50.6733 75.8585 50.2995 74.3682 51.2333C72.4859 52.4134 72.0316 54.941 73.2839 56.7623C73.647 57.291 74.1258 57.6758 74.7203 57.9166C75.7633 58.3394 76.5228 58.1245 77.4216 57.5484C77.4421 57.5353 77.4529 57.5407 77.4538 57.5645C77.5224 58.8601 78.8181 59.1779 79.8688 59.2542C79.8921 59.2556 79.8994 59.2456 79.8905 59.2241C79.635 58.585 79.7092 58.0853 79.9227 57.3769C80.3427 55.9812 80.7655 54.5864 81.1911 53.1925C81.5026 52.1734 80.4715 51.6078 79.5874 51.7163C79.2206 51.762 78.9644 51.9498 78.8188 52.2798Z" fill="#3B7FC9"/>
<path d="M45.9888 49.2841C46.4557 48.3713 47.666 47.9205 48.618 47.9177C49.6442 47.9156 50.4247 48.6562 50.6571 49.6207C50.7066 49.8261 50.7287 50.1653 50.7236 50.6385C50.7129 51.6614 50.6989 52.6847 50.6816 53.7085C50.6723 54.2457 50.8307 54.7391 51.1569 55.189C51.1732 55.2109 51.1681 55.2251 51.1415 55.2317C50.7103 55.3371 50.2779 55.3742 49.8444 55.343C48.6887 55.2604 48.2841 54.6409 48.2729 53.5336C48.2598 52.2816 48.2512 51.3424 48.247 50.7162C48.2449 50.3977 48.2491 50.0421 48.1084 49.7726C47.6982 48.9838 46.5579 49.3422 46.266 50.0575C46.2063 50.2041 46.1797 50.4138 46.1862 50.6868C46.2086 51.6359 46.2368 52.5844 46.2709 53.5322C46.2968 54.2405 46.3976 54.7032 46.8134 55.2135C46.8302 55.2345 46.8258 55.2482 46.8001 55.2548C45.5485 55.5887 43.9763 55.6048 43.879 53.8793C43.8141 52.7375 43.749 51.5956 43.6837 50.4537C43.5955 48.9159 41.548 49.4353 41.6481 50.8149C41.7232 51.8438 41.8005 52.8723 41.8798 53.9003C41.9274 54.5158 42.1276 55.0252 42.4804 55.4284C42.4949 55.4447 42.4918 55.4561 42.4713 55.4627C41.2771 55.8581 39.7385 55.9218 39.5656 54.2461C39.4027 52.6628 39.2443 51.0792 39.0903 49.4955C38.9447 48.0003 41.3674 47.9352 41.5242 49.1945C41.5284 49.2276 41.5417 49.2318 41.5641 49.2071C42.3658 48.3036 43.3461 47.9313 44.5048 48.0899C45.244 48.1914 45.6003 48.6618 45.944 49.2848C45.9594 49.3132 45.9743 49.313 45.9888 49.2841Z" fill="white"/>
<path d="M54.3921 54.3928C54.3894 54.3891 54.3857 54.3864 54.3813 54.385C54.377 54.3836 54.3723 54.3836 54.368 54.385C54.3637 54.3863 54.3599 54.3891 54.3572 54.3927C54.3545 54.3964 54.353 54.4008 54.3529 54.4054C54.3338 55.1259 54.3175 55.8501 54.3039 56.5781C54.2951 57.0559 54.4465 57.5109 54.7582 57.943C54.7732 57.9631 54.7683 57.9759 54.7435 57.9815C53.7439 58.1908 52.4713 58.2069 52.0961 57.0807C52.0285 56.8772 51.9951 56.547 51.996 56.0902C52.0007 53.7154 51.9949 51.3407 51.9785 48.9659C51.9694 47.6626 54.1989 47.5289 54.5062 48.8267C54.5118 48.85 54.523 48.8532 54.5398 48.8364C55.9916 47.4183 58.317 47.9097 59.3593 49.5693C60.4996 51.385 59.9333 53.7999 58.1518 54.9654C56.9499 55.7507 55.2741 55.596 54.3921 54.3928ZM55.0711 53.9574C55.5807 54.39 56.2982 54.1499 56.6503 53.6368C57.4189 52.5176 57.5813 50.6529 56.5908 49.5707C56.1708 49.1122 55.5072 49.0639 55.0459 49.4818C54.0652 50.3729 54.0554 53.0957 55.0711 53.9574Z" fill="white"/>
<path d="M27.6608 50.0548C27.434 48.9635 25.9101 48.771 25.0526 48.9838C21.932 49.7566 21.4098 53.3796 22.5739 55.8967C23.4118 57.7089 25.166 58.5971 27.1211 57.9448C28.4572 57.4991 29.3718 56.5756 29.8651 55.1743C29.8763 55.1421 29.8861 55.1426 29.8945 55.1757C30.5112 57.5717 29.0111 60.24 26.5625 60.7887C24.27 61.3025 21.883 60.3646 20.5005 58.5159C18.733 56.1529 18.8324 52.9309 20.6482 50.642C21.6959 49.3205 23.0329 48.4637 24.6592 48.0717C25.8163 47.7925 27.3213 47.8779 28.3174 48.5582C29.1217 49.1084 29.5655 50.0863 29.5081 51.0655C29.4283 52.4353 28.4525 53.5889 27.1071 53.878C26.1943 54.074 25.1275 53.9487 24.4884 53.1878C23.9186 52.5074 23.8696 51.4778 24.5451 50.8212C25.0302 50.3501 25.7617 50.1912 26.398 50.4964C26.5856 50.5867 26.8845 50.775 27.1211 50.7701C27.5096 50.761 27.7413 50.4411 27.6608 50.0548Z" fill="white"/>
<path d="M61.3231 55.5437C60.8009 55.1097 60.7848 54.6547 60.8247 53.9457C60.9115 52.4319 61.0078 50.9178 61.1138 49.4036C61.2167 47.933 63.6744 48.2311 63.5512 49.6283C63.4336 50.9638 63.3171 52.2993 63.2019 53.6349C63.12 54.5784 63.057 55.1349 63.5127 55.8342C63.5262 55.8547 63.5208 55.8666 63.4966 55.8699C62.8484 55.9623 61.8572 55.9882 61.3231 55.5437Z" fill="white"/>
<path d="M36.1052 55.2283C36.1025 55.2216 36.098 55.2158 36.0921 55.2117C36.0861 55.2076 36.0792 55.2053 36.072 55.205C36.0648 55.2048 36.0577 55.2067 36.0515 55.2105C36.0454 55.2142 36.0404 55.2197 36.0373 55.2262C35.6733 55.9779 35.0781 56.4469 34.2516 56.6331C32.5282 57.0216 30.8895 55.7798 30.3015 54.2189C29.6771 52.5635 30.2392 50.5539 31.8359 49.6754C32.8656 49.1092 34.1179 49.1365 35.0797 49.863C35.1031 49.8808 35.1152 49.8749 35.1161 49.8455C35.1574 48.9104 36.2473 48.5947 36.9921 48.8474C37.4352 48.9979 37.5878 49.2926 37.6515 49.7643C37.8573 51.2781 38.0617 52.7917 38.2647 54.305C38.3394 54.8603 38.5732 55.3337 38.9661 55.7252C38.9867 55.7458 38.9832 55.7612 38.9556 55.7714C38.0435 56.1081 36.5728 56.3944 36.1052 55.2283ZM33.2205 54.3505C33.5964 54.9833 34.3384 55.6447 35.0713 55.1492C36.1157 54.4422 35.7377 52.3752 35.3331 51.4345C35.0139 50.6918 34.2635 50.0002 33.4256 50.5798C32.335 51.3351 32.6472 53.386 33.2205 54.3505Z" fill="white"/>
<path d="M67.5809 50.0806C68.4358 49.4609 69.3664 49.2756 70.3725 49.5248C71.2461 49.7411 71.8516 50.602 71.8985 51.5022C71.9102 51.7271 71.8661 52.0983 71.7662 52.6158C71.5767 53.5963 71.3875 54.5767 71.1985 55.5571C71.0935 56.1026 71.1637 56.6038 71.4092 57.0606C71.4339 57.1068 71.4202 57.1302 71.3679 57.1306C70.1674 57.1411 68.5693 56.8968 68.8255 55.2442C68.9846 54.2143 69.1494 53.1854 69.3197 52.1574C69.386 51.7551 69.4032 51.4691 69.3715 51.2992C69.1902 50.3318 67.8931 50.5187 67.4724 51.1851C67.3959 51.3064 67.3403 51.4838 67.3058 51.7171C67.1504 52.7736 66.9962 53.8296 66.8431 54.8851C66.7703 55.3863 66.8646 55.8714 67.1259 56.3404C67.139 56.3637 67.1322 56.3768 67.1056 56.3796C66.1347 56.4811 64.7214 56.346 64.5254 55.1371C64.4993 54.9771 64.5093 54.7008 64.5555 54.3084C64.7286 52.8412 64.9069 51.3741 65.0903 49.907C65.1428 49.4877 65.2583 49.1482 65.6475 49.0019C66.4056 48.717 67.6215 49.0719 67.5515 50.0638C67.5496 50.0904 67.5594 50.096 67.5809 50.0806Z" fill="white"/>
<path d="M55.0708 53.9576C54.0551 53.0959 54.0649 50.3731 55.0456 49.482C55.5069 49.0641 56.1705 49.1124 56.5905 49.5709C57.581 50.653 57.4186 52.5178 56.65 53.637C56.2979 54.1501 55.5804 54.3902 55.0708 53.9576Z" fill="#3B7FC9"/>
<path d="M35.0716 55.1489C34.3387 55.6444 33.5967 54.983 33.2208 54.3502C32.6475 53.3857 32.3353 51.3348 33.4259 50.5795C34.2638 49.9999 35.0142 50.6915 35.3334 51.4342C35.738 52.3749 36.116 54.4419 35.0716 55.1489Z" fill="#3B7FC9"/>
<path d="M78.8191 52.2797C78.9647 51.9498 79.2209 51.762 79.5877 51.7163C80.4718 51.6078 81.5029 52.1733 81.1914 53.1925C80.7658 54.5864 80.343 55.9812 79.923 57.3769C79.7095 58.0853 79.6353 58.585 79.8908 59.2241C79.8997 59.2456 79.8924 59.2556 79.8691 59.2542C78.8184 59.1779 77.5227 58.8601 77.4541 57.5645C77.4532 57.5407 77.4424 57.5353 77.4219 57.5484C76.5231 58.1244 75.7636 58.3393 74.7206 57.9166C74.1261 57.6758 73.6473 57.291 73.2842 56.7623C72.0319 54.941 72.4862 52.4134 74.3685 51.2333C75.8588 50.2995 77.9273 50.6733 78.7848 52.2804C78.7866 52.2836 78.7892 52.2862 78.7923 52.288C78.7954 52.2897 78.799 52.2907 78.8025 52.2906C78.8061 52.2905 78.8095 52.2895 78.8124 52.2875C78.8154 52.2856 78.8177 52.2829 78.8191 52.2797ZM75.2547 55.8769C75.4115 56.749 76.178 57.4784 77.0544 56.8526C77.9693 56.1988 78.3473 54.7716 78.3424 53.6902C78.3389 53.0063 78.0372 52.2874 77.291 52.209C76.6575 52.1425 76.0912 52.6297 75.7734 53.1442C75.2512 53.9898 75.0783 54.9006 75.2547 55.8769Z" fill="white"/>
<path d="M77.0545 56.8528C76.1781 57.4786 75.4116 56.7492 75.2548 55.8771C75.0784 54.9008 75.2513 53.9899 75.7735 53.1444C76.0913 52.6299 76.6576 52.1427 77.2911 52.2092C78.0373 52.2876 78.339 53.0065 78.3425 53.6904C78.3474 54.7718 77.9694 56.199 77.0545 56.8528Z" fill="#3B7FC9"/>
<path d="M29.1201 63.1614C35.6413 75.7447 52.5533 79.0366 63.9647 71.1907C66.9691 69.1254 69.3274 66.4732 71.0396 63.2342C71.048 63.2184 71.052 63.2015 71.0515 63.1838C71.0515 63.1749 71.0515 63.1656 71.0515 63.1558C72.6764 63.5515 74.2785 64.0168 75.8577 64.5515C76.6263 64.8119 77.4691 65.0877 78.1418 65.5511C78.4029 65.731 78.7585 66.1601 78.2713 66.3323C77.9675 66.4401 77.6609 66.4744 77.3515 66.4352C76.463 66.3232 75.5348 66.1454 74.5669 65.9018C74.5417 65.8953 74.5212 65.9025 74.5053 65.9235L74.0951 66.4625C74.0769 66.4863 74.0827 66.5014 74.1126 66.508C74.6493 66.6283 75.4123 66.7914 76.4016 66.9972C77.4838 67.2219 78.776 67.4536 79.763 66.9881C80.2355 66.7655 80.4546 66.3456 80.6471 65.815C82.1423 61.7043 83.6384 57.5834 85.1355 53.4522C85.1362 53.4501 85.1373 53.4481 85.1388 53.4464C85.1403 53.4447 85.1421 53.4433 85.1441 53.4424C85.1462 53.4414 85.1484 53.4408 85.1506 53.4407C85.1528 53.4406 85.1551 53.4409 85.1572 53.4417C86.6795 53.9741 88.1105 54.6907 89.4503 55.5913C90.9406 56.5936 90.2336 57.7885 89.0534 58.5493C87.3104 59.6735 85.4869 60.7745 83.9448 62.1206C83.4296 62.5699 83.1349 63.258 82.9704 63.9636C82.7212 65.0345 82.6099 66.1314 82.4538 67.2191C82.3173 68.1718 81.9995 69.711 80.834 69.8384C80.6735 69.8557 80.4474 69.8251 80.1557 69.7467C77.7468 69.0995 75.3276 68.4917 72.8981 67.9233C72.8752 67.9177 72.8556 67.9235 72.8393 67.9408C68.5581 72.5228 62.9014 75.4451 56.7666 76.6372C46.2421 78.6825 34.8391 75.9085 27.3484 67.9429C27.3325 67.9256 27.3132 67.9198 27.2903 67.9254C24.8408 68.4998 22.4027 69.113 19.976 69.7649C18.5053 70.1604 18.0314 68.7996 17.8326 67.6762C17.5792 66.2455 17.4973 64.7559 17.043 63.3693C16.8113 62.6609 16.441 62.2655 15.8208 61.7594C14.537 60.7101 13.1363 59.8359 11.7433 58.9427C10.9964 58.4632 10.4546 58.1385 10.0829 57.54C9.39411 56.4305 10.5526 55.6907 11.3695 55.1909C12.5245 54.4835 13.7399 53.9016 15.0158 53.4452C15.0377 53.4373 15.0529 53.4443 15.0613 53.4662C16.543 57.5479 18.0253 61.6299 19.5084 65.7121C19.8206 66.571 20.1783 67.0721 21.1093 67.1974C21.7472 67.2833 22.3849 67.267 23.0224 67.1484C24.0467 66.9585 25.0664 66.7436 26.0814 66.5038C26.108 66.4972 26.1131 66.483 26.0968 66.4611L25.6957 65.934C25.6789 65.912 25.6572 65.9046 25.6306 65.9116C24.8718 66.0971 22.2734 66.7914 21.7092 66.186C21.693 66.1688 21.6833 66.1463 21.6819 66.1223C21.6602 65.6925 22.3434 65.3425 22.6724 65.1997C24.7283 64.3066 26.9536 63.6941 29.1201 63.1614Z" fill="#3B7FC9"/>
<path d="M71.052 63.1558C71.052 63.1656 71.052 63.1749 71.052 63.1838C71.0525 63.2015 71.0485 63.2183 71.0401 63.2342C69.3279 66.4732 66.9696 69.1253 63.9652 71.1907C52.5538 79.0366 35.6418 75.7447 29.1206 63.1614C36.8619 61.3345 44.7803 60.7892 52.7785 60.9754C59.0071 61.121 65.0432 61.7342 71.052 63.1558ZM47.9639 66.5485C47.921 66.6055 47.8995 66.5982 47.8995 66.5268C47.9009 65.5194 47.9009 64.5247 47.8995 63.5429C47.8981 62.7526 46.7319 62.7148 46.7298 63.5254C46.7261 65.0172 46.7298 66.5091 46.741 68.001C46.748 68.9235 47.3584 68.9998 48.12 68.8563C48.1255 68.8553 48.1307 68.8528 48.135 68.8492C48.1394 68.8457 48.1428 68.841 48.1448 68.8358C48.1469 68.8306 48.1477 68.8249 48.147 68.8193C48.1463 68.8137 48.1443 68.8084 48.141 68.8038C47.8253 68.3656 47.8757 67.5873 47.91 67.0749C47.9101 67.0703 47.9117 67.0658 47.9146 67.0622C47.9174 67.0585 47.9214 67.0559 47.9258 67.0546C47.9303 67.0534 47.935 67.0536 47.9394 67.0552C47.9437 67.0568 47.9474 67.0598 47.9499 67.0637C48.2896 67.5402 48.6588 67.9984 49.0573 68.4384C49.23 68.6288 49.3732 68.7527 49.4871 68.8101C49.856 68.9956 50.3929 68.934 50.5133 68.4587C50.5189 68.4377 50.5114 68.4235 50.4909 68.416C49.8623 68.1823 49.2568 67.3689 48.8445 66.8096C48.8319 66.7924 48.8321 66.7756 48.8452 66.7592C49.3203 66.1601 49.8219 65.5837 50.3502 65.0303C50.3546 65.0259 50.3576 65.0202 50.3587 65.0141C50.3599 65.0079 50.3591 65.0016 50.3566 64.9958C50.354 64.99 50.3498 64.9851 50.3444 64.9816C50.339 64.9782 50.3328 64.9764 50.3264 64.9764C50.0058 64.9806 49.3534 64.9491 49.1245 65.1878C48.6984 65.6297 48.3116 66.0833 47.9639 66.5485ZM55.7381 63.832C55.7381 63.7347 55.719 63.6384 55.6817 63.5486C55.6445 63.4587 55.59 63.3771 55.5212 63.3083C55.4524 63.2395 55.3708 63.185 55.2809 63.1478C55.1911 63.1106 55.0948 63.0914 54.9975 63.0914C54.8011 63.0914 54.6127 63.1694 54.4738 63.3083C54.3349 63.4472 54.2569 63.6356 54.2569 63.832C54.2569 63.9292 54.2761 64.0255 54.3133 64.1154C54.3505 64.2052 54.4051 64.2869 54.4738 64.3556C54.5426 64.4244 54.6242 64.4789 54.7141 64.5162C54.8039 64.5534 54.9003 64.5725 54.9975 64.5725C55.0948 64.5725 55.1911 64.5534 55.2809 64.5162C55.3708 64.4789 55.4524 64.4244 55.5212 64.3556C55.59 64.2869 55.6445 64.2052 55.6817 64.1154C55.719 64.0255 55.7381 63.9292 55.7381 63.832ZM54.441 68.8493C54.7523 69.0495 55.1062 69.091 55.5029 68.9739C55.5234 68.9679 55.5286 68.9557 55.5183 68.9375C55.3792 68.6879 55.3174 68.4179 55.3328 68.1277C55.3748 67.3208 55.4194 66.5138 55.4665 65.7065C55.4786 65.4909 55.4616 65.3348 55.4154 65.2382C55.2355 64.8616 54.567 64.828 54.3815 65.192C54.3348 65.2835 54.304 65.4711 54.2891 65.7548C54.2508 66.4627 54.2077 67.1701 54.1596 67.8771C54.1386 68.1795 54.1645 68.6722 54.441 68.8493ZM52.1898 65.6204C52.0351 65.0226 51.4681 64.8833 50.9228 65.073C50.8971 65.0819 50.8897 65.0989 50.9004 65.1241C50.9923 65.3388 51.0376 65.5644 51.0362 65.801C51.0287 66.8155 51.0126 67.8318 50.9879 68.85C50.9874 68.872 50.9979 68.8832 51.0194 68.8836L52.1548 68.906C52.1589 68.9061 52.163 68.9054 52.1668 68.9039C52.1706 68.9024 52.1741 68.9001 52.177 68.8972C52.18 68.8944 52.1823 68.891 52.1839 68.8872C52.1855 68.8834 52.1863 68.8793 52.1863 68.8752C52.1966 68.1627 52.2138 67.4496 52.2381 66.7361C52.2514 66.3469 52.3151 66.0005 52.7106 65.9032C53.0466 65.8201 53.2482 65.9489 53.3154 66.2895C53.3201 66.3119 53.3322 66.3173 53.3518 66.3056C53.7606 66.0684 54.0287 65.5987 53.6752 65.1976C53.5478 65.0541 53.391 64.9904 53.202 64.9883C52.7316 64.9827 52.4126 65.1946 52.2451 65.6239C52.2427 65.6295 52.2387 65.6342 52.2335 65.6374C52.2283 65.6405 52.2223 65.642 52.2162 65.6416C52.2102 65.6413 52.2044 65.639 52.1996 65.6352C52.1949 65.6314 52.1915 65.6262 52.1898 65.6204ZM42.1035 67.0469C42.377 67.2536 42.7071 67.4233 43.094 67.5558C43.2431 67.6062 43.5105 67.7434 43.5686 67.8904C43.6869 68.1921 43.3453 68.3572 43.1059 68.3705C42.6136 68.3976 42.2248 68.2145 41.9397 67.8211C41.9262 67.8024 41.9131 67.8026 41.9005 67.8218C40.763 69.5766 45.1352 69.529 44.6522 67.5369C44.4345 66.6395 42.8798 66.6661 42.8084 66.1517C42.7405 65.6596 43.5161 65.7331 43.7751 65.8122C44.1454 65.9249 44.3995 65.7289 44.3687 65.3285C44.3673 65.3066 44.3566 65.2907 44.3365 65.2809C43.5882 64.9281 42.4409 64.9414 41.9222 65.6722C41.6282 66.0866 41.6996 66.7417 42.1035 67.0469ZM57.5 65.6253C57.3754 64.8826 56.394 64.8609 56.3394 65.6799C56.2825 66.5306 56.2265 67.3813 56.1714 68.232C56.1112 69.1468 56.7202 69.3183 57.4867 69.1825C57.511 69.1783 57.5175 69.1655 57.5063 69.144C57.3635 68.8673 57.3047 68.5742 57.3299 68.2649C57.3908 67.518 57.3957 66.8341 57.4552 66.4127C57.535 65.8521 58.4485 65.6064 58.4163 66.4939C58.3953 67.0586 58.3668 67.6223 58.3309 68.1851C58.2994 68.6722 58.3211 69.1132 58.8027 69.2819C59.044 69.3664 59.3291 69.3673 59.6581 69.2847C59.6786 69.2796 59.684 69.2674 59.6742 69.2483C59.4649 68.8311 59.5027 68.5203 59.523 68.0724C59.5603 67.2688 59.5949 66.7623 59.6266 66.5527C59.7162 65.9557 60.6416 65.7471 60.601 66.5555C60.5562 67.4552 60.5261 68.0243 60.5107 68.2627C60.4904 68.5847 60.468 68.9375 60.6682 69.1762C60.9188 69.4758 61.4683 69.4856 61.8379 69.3883C61.8622 69.3818 61.8682 69.3675 61.8561 69.3456C61.7217 69.0978 61.6603 68.8727 61.672 68.6701C61.7117 68.0112 61.7492 67.3523 61.7847 66.6934C61.8715 65.0912 60.4855 64.8441 59.5825 65.8934C59.5578 65.9218 59.5417 65.9176 59.5342 65.8808C59.3193 64.8665 58.0817 65.0702 57.5378 65.6372C57.5173 65.6586 57.5047 65.6547 57.5 65.6253ZM37.7803 67.2569C37.8713 68.976 39.4127 69.774 40.9331 69.067C41.5281 68.7905 41.6849 68.2865 41.1592 67.8085C41.1363 67.7879 41.1205 67.7924 41.1116 67.8218C40.8029 68.8486 39.1439 68.8213 38.9311 67.7203C38.9297 67.713 38.9299 67.7055 38.9315 67.6983C38.9332 67.6911 38.9364 67.6843 38.9409 67.6785C38.9454 67.6726 38.9511 67.6677 38.9576 67.6642C38.9641 67.6606 38.9713 67.6585 38.9787 67.658C39.7011 67.6083 41.484 67.2135 41.0689 66.0845C40.7476 65.2088 39.4547 65.122 38.7176 65.4888C38.0475 65.8224 37.735 66.4118 37.7803 67.2569Z" fill="#F9B236"/>
<path d="M47.964 66.5487C48.3117 66.0835 48.6985 65.6299 49.1246 65.188C49.3535 64.9493 50.0059 64.9808 50.3265 64.9766C50.3329 64.9766 50.3391 64.9784 50.3445 64.9818C50.3499 64.9853 50.3541 64.9902 50.3567 64.996C50.3592 65.0017 50.36 65.0081 50.3588 65.0143C50.3577 65.0204 50.3547 65.0261 50.3503 65.0305C49.822 65.5839 49.3204 66.1602 48.8453 66.7594C48.8322 66.7758 48.832 66.7925 48.8446 66.8098C49.2569 67.3691 49.8624 68.1824 50.491 68.4162C50.5115 68.4237 50.519 68.4379 50.5134 68.4589C50.393 68.9342 49.8561 68.9958 49.4872 68.8103C49.3733 68.7529 49.2301 68.629 49.0574 68.4386C48.6589 67.9986 48.2897 67.5403 47.95 67.0639C47.9475 67.06 47.9438 67.057 47.9395 67.0554C47.9351 67.0538 47.9304 67.0536 47.9259 67.0548C47.9215 67.0561 47.9175 67.0587 47.9147 67.0624C47.9118 67.066 47.9102 67.0705 47.9101 67.0751C47.8758 67.5875 47.8254 68.3658 48.1411 68.804C48.1444 68.8086 48.1464 68.8139 48.1471 68.8195C48.1478 68.8251 48.147 68.8308 48.145 68.836C48.1429 68.8412 48.1395 68.8458 48.1352 68.8494C48.1308 68.853 48.1256 68.8554 48.1201 68.8565C47.3585 69 46.7481 68.9237 46.7411 68.0012C46.7299 66.5093 46.7262 65.0174 46.7299 63.5256C46.732 62.715 47.8982 62.7528 47.8996 63.5431C47.901 64.5249 47.901 65.5195 47.8996 66.527C47.8996 66.5984 47.9211 66.6057 47.964 66.5487Z" fill="#3B7FC9"/>
<path d="M54.9969 64.5727C55.406 64.5727 55.7375 64.2411 55.7375 63.8321C55.7375 63.4231 55.406 63.0916 54.9969 63.0916C54.5879 63.0916 54.2563 63.4231 54.2563 63.8321C54.2563 64.2411 54.5879 64.5727 54.9969 64.5727Z" fill="#3B7FC9"/>
<path d="M54.4404 68.8495C54.1639 68.6724 54.138 68.1796 54.159 67.8773C54.207 67.1703 54.2502 66.4629 54.2885 65.755C54.3034 65.4712 54.3342 65.2836 54.3809 65.1922C54.5664 64.8282 55.2349 64.8618 55.4148 65.2384C55.461 65.335 55.478 65.4911 55.4659 65.7067C55.4187 66.514 55.3742 67.321 55.3322 68.1278C55.3168 68.4181 55.3786 68.6881 55.5177 68.9377C55.5279 68.9559 55.5228 68.968 55.5023 68.9741C55.1056 69.0912 54.7516 69.0497 54.4404 68.8495Z" fill="#3B7FC9"/>
<path d="M52.1892 65.6205C52.1908 65.6263 52.1943 65.6315 52.199 65.6353C52.2037 65.6391 52.2095 65.6413 52.2156 65.6417C52.2216 65.6421 52.2277 65.6406 52.2328 65.6374C52.238 65.6342 52.2421 65.6295 52.2445 65.624C52.412 65.1946 52.731 64.9828 53.2014 64.9884C53.3904 64.9905 53.5472 65.0542 53.6746 65.1977C54.0281 65.5988 53.76 66.0684 53.3512 66.3057C53.3316 66.3174 53.3194 66.312 53.3148 66.2896C53.2476 65.949 53.046 65.8202 52.71 65.9032C52.3145 66.0005 52.2508 66.347 52.2375 66.7362C52.2132 67.4497 52.1959 68.1627 52.1857 68.8753C52.1857 68.8794 52.1848 68.8835 52.1833 68.8872C52.1817 68.891 52.1793 68.8945 52.1764 68.8973C52.1735 68.9002 52.17 68.9025 52.1662 68.904C52.1624 68.9055 52.1583 68.9062 52.1542 68.9061L51.0188 68.8837C50.9973 68.8832 50.9868 68.872 50.9873 68.8501C51.012 67.8319 51.0281 66.8155 51.0356 65.801C51.037 65.5645 50.9917 65.3388 50.8998 65.1242C50.889 65.099 50.8965 65.0819 50.9222 65.0731C51.4675 64.8834 52.0345 65.0227 52.1892 65.6205Z" fill="#3B7FC9"/>
<path d="M42.1031 67.0471C41.6992 66.7419 41.6278 66.0867 41.9218 65.6723C42.4405 64.9416 43.5878 64.9283 44.3361 65.2811C44.3561 65.2909 44.3669 65.3067 44.3683 65.3287C44.3991 65.729 44.145 65.925 43.7747 65.8123C43.5157 65.7332 42.7401 65.6597 42.808 66.1518C42.8794 66.6663 44.4341 66.6397 44.6518 67.5371C45.1348 69.5292 40.7626 69.5768 41.9001 67.8219C41.9127 67.8028 41.9257 67.8026 41.9393 67.8212C42.2244 68.2146 42.6131 68.3978 43.1055 68.3707C43.3449 68.3574 43.6865 68.1922 43.5682 67.8905C43.5101 67.7435 43.2427 67.6063 43.0936 67.556C42.7067 67.4234 42.3765 67.2538 42.1031 67.0471Z" fill="#3B7FC9"/>
<path d="M57.5375 65.6374C58.0814 65.0704 59.319 64.8668 59.5339 65.881C59.5414 65.9179 59.5575 65.9221 59.5822 65.8936C60.4852 64.8444 61.8712 65.0914 61.7844 66.6937C61.7489 67.3526 61.7114 68.0115 61.6717 68.6704C61.66 68.8729 61.7214 69.098 61.8558 69.3458C61.8679 69.3678 61.8619 69.382 61.8376 69.3885C61.468 69.4858 60.9185 69.476 60.6679 69.1764C60.4677 68.9378 60.4901 68.585 60.5104 68.263C60.5258 68.0245 60.5559 67.4555 60.6007 66.5558C60.6413 65.7473 59.7159 65.9559 59.6263 66.553C59.5946 66.7625 59.56 67.269 59.5227 68.0726C59.5024 68.5206 59.4646 68.8314 59.6739 69.2485C59.6837 69.2677 59.6783 69.2798 59.6578 69.2849C59.3288 69.3675 59.0437 69.3666 58.8024 69.2821C58.3208 69.1134 58.2991 68.6725 58.3306 68.1853C58.3665 67.6225 58.395 67.0588 58.416 66.4942C58.4482 65.6066 57.5347 65.8523 57.4549 66.413C57.3954 66.8344 57.3905 67.5182 57.3296 68.2651C57.3044 68.5745 57.3632 68.8675 57.506 69.1442C57.5172 69.1657 57.5107 69.1785 57.4864 69.1827C56.7199 69.3185 56.1109 69.147 56.1711 68.2322C56.2262 67.3815 56.2822 66.5308 56.3391 65.6801C56.3937 64.8612 57.3751 64.8828 57.4997 65.6255C57.5044 65.6549 57.517 65.6589 57.5375 65.6374Z" fill="#3B7FC9"/>
<path d="M40.933 69.0673C39.4126 69.7742 37.8712 68.9763 37.7802 67.2572C37.7349 66.4121 38.0473 65.8227 38.7175 65.4891C39.4546 65.1223 40.7475 65.2091 41.0688 66.0847C41.4839 67.2138 39.701 67.6086 38.9786 67.6583C38.9712 67.6588 38.964 67.6609 38.9575 67.6644C38.951 67.668 38.9453 67.6728 38.9408 67.6787C38.9363 67.6846 38.9331 67.6914 38.9314 67.6986C38.9297 67.7058 38.9296 67.7133 38.931 67.7205C39.1438 68.8216 40.8028 68.8489 41.1115 67.822C41.1203 67.7926 41.1362 67.7882 41.1591 67.8087C41.6848 68.2868 41.528 68.7908 40.933 69.0673ZM39.9257 65.9699C39.8706 65.9237 39.8155 65.8976 39.7605 65.8915C39.0794 65.8131 38.7182 66.4095 38.7749 67.0185C38.7767 67.0404 38.7889 67.0511 38.8113 67.0507C39.1398 67.0381 39.4443 66.9599 39.7248 66.8162C40.0846 66.6321 40.3296 66.3038 39.9257 65.9699Z" fill="#3B7FC9"/>
<path d="M39.9261 65.9699C40.33 66.3038 40.085 66.6321 39.7252 66.8161C39.4448 66.9599 39.1403 67.038 38.8117 67.0506C38.7893 67.0511 38.7772 67.0404 38.7753 67.0184C38.7186 66.4095 39.0798 65.8131 39.7609 65.8915C39.816 65.8976 39.8711 65.9237 39.9261 65.9699Z" fill="#F9B236"/>
</g>
<defs>
<clipPath id="clip0_39_41">
<rect width="84" height="56.9772" fill="white" transform="translate(8 22)"/>
</clipPath>
</defs>
</svg>
