<svg width="100" height="100" viewBox="0 0 100 100" fill="none" xmlns="http://www.w3.org/2000/svg">
<rect width="100" height="100" fill="white"/>
<path d="M38.5719 58.7489L49.0442 73.7829C49.1615 73.9529 49.274 73.9501 49.3818 73.7745C50.3314 72.2286 51.3916 70.6733 52.5624 69.1086C54.9495 65.9252 57.2997 62.7165 59.613 59.4827C59.997 58.9431 60.4254 58.4679 60.8983 58.0571C60.9285 58.0308 60.9641 58.0111 61.0026 57.9994C61.0412 57.9878 61.0818 57.9843 61.1218 57.9894C61.1618 57.9944 61.2003 58.0078 61.2346 58.0286C61.269 58.0495 61.2984 58.0774 61.321 58.1103L72.4062 73.965C72.4383 74.0117 72.4714 74.0117 72.5055 73.965L89.9801 49.9772C90.0066 49.9417 90.0066 49.9044 89.9801 49.8651L73.2403 25.3592C73.2282 25.3426 73.2124 25.3289 73.194 25.3194C73.1757 25.3099 73.1554 25.3048 73.1349 25.3045C73.1144 25.3042 73.0942 25.3088 73.076 25.3178C73.0578 25.3268 73.0422 25.3401 73.0304 25.3564L61.4799 41.3427C61.4503 41.3838 61.411 41.4172 61.3653 41.44C61.3197 41.4627 61.2692 41.4742 61.218 41.4734C61.1669 41.4726 61.1168 41.4595 61.0719 41.4352C61.0271 41.411 60.9889 41.3763 60.9607 41.3343L49.9238 25.1183C49.9177 25.1095 49.9096 25.1022 49.9001 25.0971C49.8906 25.092 49.88 25.0892 49.8692 25.0889C49.8583 25.0886 49.8476 25.0909 49.8379 25.0955C49.8281 25.1002 49.8196 25.107 49.8131 25.1155C46.2117 30.1717 42.5989 35.2288 38.9748 40.2868C38.8235 40.4978 38.6901 40.6416 38.5747 40.7181C38.5231 40.7528 38.465 40.777 38.4038 40.7893C38.3426 40.8015 38.2795 40.8017 38.2183 40.7897C38.157 40.7777 38.0988 40.7538 38.047 40.7194C37.9952 40.685 37.9508 40.6408 37.9165 40.5893L27.552 25.0483C27.5085 24.9848 27.465 24.9839 27.4215 25.0455L10.049 49.3582C9.98464 49.4478 9.9837 49.5375 10.0461 49.6271L26.593 73.6205C26.6107 73.6469 26.6349 73.6686 26.6633 73.6835C26.6917 73.6983 26.7234 73.706 26.7555 73.7057C26.7876 73.7054 26.8192 73.6972 26.8473 73.6819C26.8754 73.6665 26.8992 73.6444 26.9164 73.6177C30.2417 68.5317 34.0011 63.7229 37.5164 58.7461C37.5756 58.6619 37.6547 58.5932 37.7467 58.5458C37.8388 58.4984 37.9411 58.4738 38.0449 58.4741C38.1487 58.4744 38.2509 58.4995 38.3427 58.5474C38.4345 58.5952 38.5132 58.6644 38.5719 58.7489Z" stroke="#FA0001" stroke-width="2"/>
<path d="M27.4299 27.8013C27.3846 27.7837 27.3347 27.7816 27.2883 27.7953C27.2419 27.8091 27.2019 27.8378 27.1746 27.877L11.8846 49.319C11.8486 49.3694 11.828 49.4279 11.8255 49.487C11.8229 49.546 11.8386 49.6026 11.8704 49.6494C16.5727 56.6586 21.3525 63.6435 26.2099 70.6041C26.3386 70.7871 26.4133 70.886 26.4341 70.901C26.7064 71.0952 26.9382 71.0606 27.1292 70.7974L36.9489 57.2253C37.0281 57.1161 37.0713 56.9855 37.0728 56.8513C37.0744 56.7171 37.0341 56.5856 36.9575 56.4747L32.3129 49.7082C32.2486 49.613 32.2504 49.5197 32.3185 49.4282L37.2497 42.6673C37.3802 42.4881 37.3821 42.307 37.2554 42.124C34.0512 37.4599 30.9444 32.8071 27.935 28.1654C27.8404 28.0179 27.6721 27.8966 27.4299 27.8013Z" stroke="#FD8080" stroke-width="2"/>
<path d="M50.1222 28.2355C49.9809 28.1519 49.8139 28.1225 49.655 28.1532C49.4961 28.1838 49.3569 28.2723 49.2654 28.4007L34.3868 49.1426C34.2812 49.2905 34.2237 49.4666 34.2222 49.6473C34.2207 49.828 34.2751 50.0046 34.3783 50.1536L48.6667 70.8898C48.7194 70.9662 48.79 71.0288 48.8725 71.0725C48.9549 71.1161 49.0469 71.1395 49.1404 71.1406C49.234 71.1417 49.3265 71.1205 49.41 71.0788C49.4934 71.0371 49.5655 70.9761 49.62 70.901L64.9327 49.8987C64.9932 49.8129 64.9942 49.726 64.9356 49.6383C59.8257 42.0344 55.286 35.6405 50.4939 28.6304C50.3615 28.4343 50.2376 28.3027 50.1222 28.2355Z" stroke="#FD8080" stroke-width="2"/>
<path d="M73.3678 28.2467C72.9725 28.1459 72.65 28.2719 72.4003 28.6248C69.0126 33.3823 65.6013 38.1331 62.1663 42.8775C62.1077 42.9578 62.1077 43.0381 62.1663 43.1184C63.2558 44.6027 64.2092 45.9274 65.2816 47.5966C65.6978 48.2445 66.1905 48.8215 66.7598 49.3275C66.8207 49.3813 66.859 49.4556 66.8674 49.5359C66.8758 49.6161 66.8536 49.6966 66.8052 49.7616L62.0131 56.304C61.9657 56.3697 61.94 56.4483 61.9395 56.529C61.939 56.6097 61.9637 56.6885 62.0103 56.7549L72.0031 70.9683C72.1506 71.1774 72.3767 71.2288 72.6812 71.1223C72.8136 71.0757 72.9734 70.9263 73.1607 70.6742C78.2318 63.8238 83.2434 56.9378 88.1953 50.0164C88.2186 49.9834 88.231 49.944 88.231 49.9035C88.231 49.863 88.2186 49.8233 88.1953 49.7896L73.4614 28.3112C73.4396 28.2788 73.4061 28.2558 73.3678 28.2467Z" stroke="#FD8080" stroke-width="2"/>
<path d="M30.8461 54.3686C31.0504 53.3575 29.2771 52.719 29.1551 53.7244C28.9811 55.1528 28.2623 55.9995 26.9988 56.2646C25.0326 56.6763 23.9658 54.6066 23.8126 52.9542C23.5572 50.1955 23.3161 46.7871 25.6965 45.1431C27.501 43.8968 28.8487 45.7173 29.3452 47.1932C29.3725 47.2775 29.4327 47.348 29.5126 47.3893C30.3581 47.8178 31.0986 46.7759 30.8745 46.0197C30.3071 44.1097 28.5366 42.1912 26.3604 42.5693C20.4731 43.5915 20.5157 58.6032 26.6896 58.6088C28.8345 58.6088 30.4546 56.3178 30.8461 54.3686Z" stroke="#FD8080" stroke-width="2"/>
<path d="M51.7171 53.1587C51.3653 53.0112 51.1241 52.7666 50.9936 52.4249C49.9949 49.7997 48.9593 47.1876 47.8868 44.5886C47.413 43.4403 47.1321 42.3508 45.6681 43.0454C45.5991 43.0783 45.5407 43.1295 45.4996 43.1933C45.4585 43.2572 45.4363 43.3311 45.4354 43.4067L45.3702 58.3315C45.3683 58.4435 45.4241 58.4977 45.5376 58.494L46.6299 58.4519C46.6754 58.4505 46.7186 58.4321 46.7507 58.4003C46.7829 58.3686 46.8016 58.326 46.803 58.2811L47.0129 48.7056C47.0135 48.6633 47.0229 48.6217 47.0408 48.5833C47.0586 48.5449 47.0844 48.5106 47.1165 48.4826C47.1485 48.4546 47.1862 48.4336 47.227 48.4209C47.2678 48.4082 47.3109 48.404 47.3534 48.4087C48.0769 48.4871 48.6103 50.3804 48.8259 50.9489C49.7027 53.2819 50.7099 55.556 51.6972 57.8498C51.9961 58.5444 52.5238 58.732 53.2804 58.4127C54.072 58.0767 53.6436 57.116 53.655 56.6063C53.7571 52.1103 53.8422 47.5965 53.9103 43.065C53.9122 42.938 53.8488 42.8746 53.7202 42.8746L52.4179 42.8802C52.3763 42.8802 52.3363 42.8963 52.3065 42.9251C52.2768 42.9539 52.2598 42.9931 52.259 43.0342C52.2306 45.5529 52.2023 48.0717 52.1739 50.5904C52.1682 51.2654 52.3356 52.1504 52.0632 53.0018C52.0523 53.0355 52.0343 53.0665 52.0106 53.093C51.9868 53.1194 51.9577 53.1407 51.9252 53.1555C51.8926 53.1702 51.8573 53.1781 51.8215 53.1787C51.7857 53.1792 51.7501 53.1724 51.7171 53.1587Z" stroke="#FD8080" stroke-width="2"/>
<path d="M73.1156 43.235C73.1161 43.2059 73.1109 43.1771 73.1001 43.15C73.0893 43.123 73.0732 43.0983 73.0528 43.0774C73.0323 43.0565 73.0079 43.0398 72.9809 43.0282C72.9539 43.0166 72.9249 43.0104 72.8954 43.0099L71.6415 42.9883C71.5821 42.9873 71.5247 43.0096 71.4819 43.0504C71.4392 43.0911 71.4146 43.147 71.4135 43.2056L71.1465 58.3046C71.146 58.3337 71.1513 58.3625 71.1621 58.3896C71.1729 58.4166 71.1889 58.4413 71.2094 58.4622C71.2298 58.4831 71.2543 58.4998 71.2813 58.5114C71.3082 58.523 71.3373 58.5292 71.3667 58.5297L72.6206 58.5513C72.68 58.5523 72.7375 58.53 72.7802 58.4892C72.823 58.4485 72.8476 58.3926 72.8486 58.334L73.1156 43.235Z" stroke="#FD8080" stroke-width="2"/>
<path d="M38.5719 58.7489C38.5132 58.6644 38.4345 58.5952 38.3427 58.5474C38.2509 58.4995 38.1487 58.4744 38.0449 58.4741C37.9411 58.4738 37.8388 58.4984 37.7467 58.5458C37.6547 58.5932 37.5756 58.6619 37.5164 58.7461C34.0011 63.7229 30.2417 68.5317 26.9164 73.6177C26.8992 73.6444 26.8754 73.6665 26.8473 73.6819C26.8192 73.6972 26.7876 73.7054 26.7555 73.7057C26.7234 73.706 26.6917 73.6983 26.6633 73.6835C26.6349 73.6686 26.6108 73.6469 26.593 73.6205L10.0461 49.6271C9.9837 49.5375 9.98464 49.4478 10.049 49.3582L27.4215 25.0455C27.465 24.9839 27.5085 24.9848 27.552 25.0483L37.9165 40.5893C37.9508 40.6408 37.9952 40.685 38.047 40.7194C38.0988 40.7538 38.157 40.7777 38.2183 40.7897C38.2795 40.8017 38.3426 40.8015 38.4038 40.7893C38.465 40.777 38.5231 40.7528 38.5747 40.7181C38.6901 40.6416 38.8235 40.4978 38.9748 40.2868C42.5989 35.2288 46.2117 30.1717 49.8131 25.1155C49.8196 25.107 49.8281 25.1002 49.8379 25.0955C49.8476 25.0909 49.8583 25.0886 49.8692 25.0889C49.88 25.0892 49.8906 25.092 49.9001 25.0971C49.9096 25.1022 49.9177 25.1095 49.9238 25.1183L60.9607 41.3343C60.9889 41.3763 61.0271 41.411 61.0719 41.4352C61.1168 41.4595 61.1669 41.4726 61.218 41.4734C61.2692 41.4742 61.3197 41.4627 61.3653 41.44C61.411 41.4172 61.4503 41.3838 61.4799 41.3427L73.0304 25.3564C73.0422 25.3401 73.0578 25.3268 73.076 25.3178C73.0942 25.3088 73.1144 25.3042 73.1349 25.3045C73.1554 25.3048 73.1757 25.3099 73.194 25.3194C73.2124 25.3289 73.2282 25.3426 73.2403 25.3592L89.9801 49.8651C90.0066 49.9044 90.0066 49.9417 89.9801 49.9772L72.5055 73.965C72.4714 74.0117 72.4383 74.0117 72.4062 73.965L61.321 58.1103C61.2984 58.0774 61.269 58.0495 61.2346 58.0286C61.2003 58.0078 61.1618 57.9944 61.1218 57.9894C61.0818 57.9843 61.0412 57.9878 61.0026 57.9994C60.9641 58.0111 60.9285 58.0308 60.8983 58.0571C60.4254 58.4679 59.997 58.9431 59.613 59.4827C57.2997 62.7165 54.9495 65.9252 52.5624 69.1086C51.3916 70.6733 50.3314 72.2286 49.3818 73.7745C49.274 73.9501 49.1615 73.9529 49.0442 73.7829L38.5719 58.7489ZM27.43 27.8014C27.3846 27.7838 27.3347 27.7817 27.2884 27.7954C27.242 27.8091 27.2019 27.8379 27.1746 27.877L11.8847 49.319C11.8487 49.3694 11.828 49.428 11.8255 49.487C11.823 49.546 11.8386 49.6027 11.8705 49.6495C16.5728 56.6587 21.3526 63.6436 26.21 70.6042C26.3386 70.7872 26.4133 70.8861 26.4341 70.901C26.7065 71.0952 26.9382 71.0607 27.1292 70.7974L36.949 57.2253C37.0281 57.1161 37.0714 56.9856 37.0729 56.8514C37.0744 56.7171 37.0341 56.5857 36.9575 56.4747L32.3129 49.7083C32.2486 49.6131 32.2505 49.5197 32.3186 49.4282L37.2497 42.6674C37.3802 42.4882 37.3821 42.307 37.2554 42.1241C34.0512 37.46 30.9444 32.8071 27.935 28.1655C27.8404 28.018 27.6721 27.8966 27.43 27.8014ZM50.1224 28.2355C49.981 28.152 49.814 28.1226 49.6551 28.1532C49.4962 28.1839 49.357 28.2723 49.2655 28.4007L34.3869 49.1426C34.2813 49.2905 34.2238 49.4666 34.2223 49.6473C34.2208 49.828 34.2753 50.0046 34.3784 50.1536L48.6668 70.8898C48.7195 70.9662 48.7901 71.0288 48.8726 71.0725C48.9551 71.1161 49.047 71.1395 49.1405 71.1406C49.2341 71.1417 49.3266 71.1205 49.4101 71.0788C49.4936 71.0371 49.5656 70.9761 49.6202 70.901L64.9328 49.8988C64.9934 49.8129 64.9943 49.726 64.9357 49.6383C59.8258 42.0344 55.2862 35.6405 50.494 28.6304C50.3616 28.4343 50.2377 28.3027 50.1224 28.2355ZM73.368 28.2467C72.9727 28.1459 72.6502 28.2719 72.4005 28.6248C69.0128 33.3822 65.6015 38.1331 62.1665 42.8774C62.1079 42.9577 62.1079 43.038 62.1665 43.1183C63.256 44.6027 64.2093 45.9274 65.2818 47.5966C65.698 48.2445 66.1907 48.8214 66.76 49.3274C66.8208 49.3813 66.8592 49.4556 66.8676 49.5358C66.876 49.6161 66.8538 49.6965 66.8054 49.7615L62.0133 56.3039C61.9659 56.3696 61.9402 56.4482 61.9396 56.5289C61.9391 56.6096 61.9639 56.6885 62.0105 56.7548L72.0033 70.9683C72.1508 71.1774 72.3769 71.2287 72.6814 71.1223C72.8138 71.0756 72.9736 70.9263 73.1609 70.6742C78.232 63.8237 83.2435 56.9378 88.1955 50.0164C88.2187 49.9833 88.2312 49.9439 88.2312 49.9034C88.2312 49.8629 88.2187 49.8232 88.1955 49.7895L73.4616 28.3111C73.4398 28.2787 73.4063 28.2557 73.368 28.2467Z" fill="#FA0001"/>
<path d="M27.4299 27.8013C27.6721 27.8966 27.8404 28.0179 27.935 28.1654C30.9444 32.8071 34.0512 37.4599 37.2554 42.124C37.3821 42.307 37.3802 42.4881 37.2497 42.6673L32.3185 49.4282C32.2504 49.5197 32.2486 49.613 32.3129 49.7082L36.9575 56.4747C37.0341 56.5856 37.0744 56.7171 37.0728 56.8513C37.0713 56.9855 37.0281 57.1161 36.9489 57.2253L27.1292 70.7974C26.9382 71.0606 26.7064 71.0952 26.4341 70.901C26.4133 70.8861 26.3386 70.7871 26.2099 70.6041C21.3525 63.6435 16.5727 56.6586 11.8704 49.6494C11.8386 49.6026 11.8229 49.546 11.8255 49.487C11.828 49.4279 11.8486 49.3694 11.8846 49.319L27.1746 27.877C27.2019 27.8378 27.2419 27.8091 27.2883 27.7953C27.3347 27.7816 27.3846 27.7837 27.4299 27.8013ZM30.846 54.3686C31.0503 53.3575 29.277 52.719 29.155 53.7244C28.981 55.1528 28.2622 55.9995 26.9987 56.2646C25.0325 56.6763 23.9657 54.6066 23.8124 52.9542C23.5571 50.1956 23.3159 46.7871 25.6964 45.1431C27.5009 43.8968 28.8486 45.7173 29.3451 47.1932C29.3724 47.2776 29.4326 47.348 29.5125 47.3893C30.358 47.8178 31.0985 46.7759 30.8744 46.0198C30.3069 44.1097 28.5365 42.1912 26.3603 42.5693C20.473 43.5916 20.5156 58.6032 26.6894 58.6088C28.8344 58.6088 30.4545 56.3179 30.846 54.3686Z" fill="white"/>
<path d="M50.1222 28.2355C50.2376 28.3027 50.3615 28.4343 50.4939 28.6304C55.286 35.6405 59.8257 42.0344 64.9356 49.6383C64.9942 49.726 64.9932 49.8129 64.9327 49.8987L49.62 70.901C49.5655 70.9761 49.4934 71.0371 49.41 71.0788C49.3265 71.1205 49.234 71.1417 49.1404 71.1406C49.0469 71.1395 48.9549 71.1161 48.8725 71.0725C48.79 71.0288 48.7194 70.9662 48.6667 70.8898L34.3783 50.1536C34.2751 50.0046 34.2207 49.828 34.2222 49.6473C34.2237 49.4666 34.2812 49.2905 34.3868 49.1426L49.2654 28.4007C49.3569 28.2723 49.4961 28.1838 49.655 28.1532C49.8139 28.1225 49.9809 28.1519 50.1222 28.2355ZM51.7168 53.1587C51.365 53.0112 51.1238 52.7666 50.9933 52.425C49.9946 49.7998 48.959 47.1877 47.8865 44.5887C47.4127 43.4404 47.1318 42.3509 45.6677 43.0455C45.5987 43.0783 45.5404 43.1296 45.4993 43.1934C45.4582 43.2572 45.4359 43.3311 45.4351 43.4068L45.3698 58.3316C45.3679 58.4436 45.4237 58.4978 45.5372 58.494L46.6296 58.452C46.675 58.4506 46.7182 58.4322 46.7504 58.4004C46.7825 58.3687 46.8012 58.326 46.8026 58.2812L47.0126 48.7057C47.0131 48.6634 47.0226 48.6217 47.0405 48.5833C47.0583 48.5449 47.0841 48.5106 47.1161 48.4827C47.1482 48.4547 47.1859 48.4337 47.2267 48.421C47.2675 48.4082 47.3105 48.4041 47.3531 48.4088C48.0766 48.4872 48.61 50.3805 48.8256 50.949C49.7023 53.282 50.7096 55.5561 51.6969 57.8499C51.9958 58.5444 52.5235 58.7321 53.2801 58.4128C54.0717 58.0767 53.6433 57.1161 53.6546 56.6064C53.7568 52.1103 53.8419 47.5966 53.91 43.0651C53.9119 42.9381 53.8485 42.8746 53.7199 42.8746L52.4176 42.8802C52.3759 42.8802 52.3359 42.8964 52.3062 42.9252C52.2765 42.954 52.2594 42.9932 52.2587 43.0343C52.2303 45.553 52.2019 48.0718 52.1736 50.5905C52.1679 51.2655 52.3353 52.1505 52.0629 53.0019C52.052 53.0356 52.034 53.0666 52.0102 53.0931C51.9865 53.1195 51.9574 53.1408 51.9248 53.1555C51.8923 53.1703 51.857 53.1782 51.8211 53.1787C51.7853 53.1793 51.7498 53.1725 51.7168 53.1587Z" fill="white"/>
<path d="M73.3678 28.2467C73.4061 28.2558 73.4396 28.2788 73.4614 28.3112L88.1953 49.7896C88.2186 49.8233 88.231 49.863 88.231 49.9035C88.231 49.944 88.2186 49.9834 88.1953 50.0164C83.2434 56.9378 78.2318 63.8238 73.1607 70.6742C72.9734 70.9263 72.8136 71.0757 72.6812 71.1223C72.3767 71.2288 72.1506 71.1774 72.0031 70.9683L62.0103 56.7549C61.9637 56.6885 61.939 56.6097 61.9395 56.529C61.94 56.4483 61.9657 56.3697 62.0131 56.304L66.8052 49.7616C66.8536 49.6966 66.8758 49.6161 66.8674 49.5359C66.859 49.4556 66.8207 49.3813 66.7598 49.3275C66.1905 48.8215 65.6978 48.2445 65.2816 47.5966C64.2092 45.9274 63.2558 44.6027 62.1663 43.1184C62.1077 43.0381 62.1077 42.9578 62.1663 42.8775C65.6013 38.1331 69.0126 33.3823 72.4003 28.6248C72.65 28.2719 72.9725 28.1459 73.3678 28.2467ZM73.1153 43.235C73.1158 43.2059 73.1106 43.1771 73.0998 43.15C73.089 43.123 73.0729 43.0983 73.0525 43.0774C73.032 43.0565 73.0076 43.0398 72.9806 43.0282C72.9536 43.0166 72.9246 43.0104 72.8951 43.0099L71.6412 42.9883C71.5818 42.9873 71.5244 43.0096 71.4816 43.0504C71.4389 43.0911 71.4143 43.147 71.4132 43.2056L71.1462 58.3046C71.1457 58.3337 71.151 58.3625 71.1618 58.3896C71.1726 58.4166 71.1886 58.4413 71.2091 58.4622C71.2295 58.4831 71.254 58.4998 71.2809 58.5114C71.3079 58.523 71.337 58.5292 71.3664 58.5297L72.6203 58.5513C72.6797 58.5523 72.7371 58.53 72.7799 58.4892C72.8227 58.4485 72.8473 58.3926 72.8483 58.334L73.1153 43.235Z" fill="white"/>
<path d="M29.1551 53.7244C29.2771 52.719 31.0504 53.3575 30.8461 54.3686C30.4546 56.3178 28.8345 58.6088 26.6896 58.6088C20.5157 58.6032 20.4731 43.5915 26.3604 42.5693C28.5366 42.1912 30.3071 44.1097 30.8745 46.0197C31.0986 46.7759 30.3581 47.8178 29.5126 47.3893C29.4327 47.348 29.3725 47.2775 29.3452 47.1932C28.8487 45.7173 27.501 43.8968 25.6965 45.1431C23.3161 46.7871 23.5572 50.1955 23.8126 52.9542C23.9658 54.6066 25.0326 56.6763 26.9988 56.2646C28.2623 55.9995 28.9811 55.1528 29.1551 53.7244Z" fill="#FA0001"/>
<path d="M51.7166 53.1587C51.7496 53.1724 51.7852 53.1792 51.821 53.1787C51.8568 53.1781 51.8921 53.1702 51.9247 53.1555C51.9572 53.1407 51.9863 53.1194 52.0101 53.093C52.0339 53.0665 52.0518 53.0355 52.0628 53.0018C52.3351 52.1504 52.1677 51.2654 52.1734 50.5904C52.2018 48.0717 52.2302 45.5529 52.2585 43.0342C52.2593 42.9931 52.2763 42.9539 52.3061 42.9251C52.3358 42.8963 52.3758 42.8802 52.4174 42.8802L53.7197 42.8746C53.8483 42.8746 53.9117 42.938 53.9098 43.065C53.8417 47.5965 53.7566 52.1103 53.6545 56.6063C53.6431 57.116 54.0715 58.0767 53.2799 58.4127C52.5233 58.732 51.9956 58.5444 51.6968 57.8498C50.7094 55.556 49.7022 53.2819 48.8255 50.9489C48.6098 50.3804 48.0764 48.4871 47.3529 48.4087C47.3104 48.404 47.2673 48.4082 47.2265 48.4209C47.1857 48.4336 47.1481 48.4546 47.116 48.4826C47.0839 48.5106 47.0581 48.5449 47.0403 48.5833C47.0225 48.6217 47.013 48.6633 47.0124 48.7056L46.8025 58.2811C46.8011 58.326 46.7824 58.3686 46.7502 58.4003C46.7181 58.4321 46.6749 58.4505 46.6294 58.4519L45.5371 58.494C45.4236 58.4977 45.3678 58.4435 45.3697 58.3315L45.4349 43.4067C45.4358 43.3311 45.458 43.2572 45.4991 43.1933C45.5402 43.1295 45.5986 43.0783 45.6676 43.0454C47.1316 42.3508 47.4125 43.4403 47.8863 44.5886C48.9588 47.1876 49.9944 49.7997 50.9931 52.4249C51.1236 52.7666 51.3648 53.0112 51.7166 53.1587Z" fill="#FA0001"/>
<path d="M72.8955 43.0098L71.6416 42.9882C71.5178 42.9861 71.4157 43.0834 71.4136 43.2056L71.1466 58.3046C71.1444 58.4267 71.243 58.5275 71.3668 58.5296L72.6206 58.5512C72.7444 58.5534 72.8465 58.4561 72.8487 58.3339L73.1157 43.2349C73.1178 43.1127 73.0192 43.012 72.8955 43.0098Z" fill="#FA0001"/>
</svg>
