<svg width="100" height="100" viewBox="0 0 100 100" fill="none" xmlns="http://www.w3.org/2000/svg">
<g clip-path="url(#clip0_40_1330)">
<rect width="100" height="100" fill="white"/>
<g clip-path="url(#clip1_40_1330)">
<path d="M35.8448 60.7517C34.1731 64.635 32.5848 68.58 30.8381 72.4234C29.5448 75.27 31.0098 78.5217 34.3748 78.5567C38.5526 78.5989 42.7309 78.6 46.9098 78.56C47.8564 78.5511 48.5742 78.4667 49.0631 78.3067C51.2048 77.605 51.7481 76.195 52.8364 73.9067C54.6353 70.1256 56.4287 66.3456 58.2164 62.5667C58.2376 62.5223 58.2726 62.5 58.3214 62.5C62.0203 62.5011 65.7176 62.5006 69.4131 62.4984C70.6031 62.4984 71.4537 62.4223 71.9648 62.27C74.1214 61.6234 74.6648 60.19 75.7431 57.9167C77.6975 53.7956 79.6537 49.6756 81.6114 45.5567C82.6131 43.4467 82.0648 40.4134 79.6798 39.525C79.2575 39.3684 78.572 39.29 77.6231 39.29C73.1442 39.2934 68.6526 39.2934 64.1481 39.29" stroke="#DEE792" stroke-width="0.333333"/>
<path d="M64.1484 39.2899C65.8095 35.4232 67.4595 31.561 69.0984 27.7032C69.4129 26.9621 69.5879 26.361 69.6234 25.8999C69.7651 24.0482 68.7034 22.0782 66.8901 21.5766C66.5323 21.4766 65.5445 21.4249 63.9267 21.4216C60.2045 21.4104 56.4817 21.4121 52.7584 21.4266C50.4517 21.4332 48.9001 22.4516 47.9501 24.4666C45.9179 28.771 43.9045 33.0821 41.9101 37.3999C41.8961 37.4303 41.8737 37.4561 41.8456 37.4741C41.8175 37.4921 41.785 37.5016 41.7517 37.5016C38.0551 37.4982 34.3395 37.4988 30.6051 37.5032C29.4951 37.5043 28.6912 37.5849 28.1934 37.7449C26.3068 38.3532 25.6084 39.6116 24.7817 41.3232C22.884 45.2477 20.9851 49.1727 19.0851 53.0982C18.3917 54.5327 18.0045 55.5316 17.9234 56.0949C17.6001 58.3499 19.1934 60.7099 21.6251 60.7082C26.3551 60.7071 31.0856 60.7071 35.8167 60.7082C35.8212 60.7082 35.824 60.7104 35.8251 60.7149C35.8317 60.7271 35.8384 60.7393 35.8451 60.7516" stroke="#83A8D0" stroke-width="0.333333"/>
<path d="M64.1484 39.29C64.1484 39.2935 64.1484 39.2964 64.1484 39.2987" stroke="#719C67" stroke-width="0.333333"/>
<path d="M64.1483 39.2984C58.5983 39.2734 53.9683 39.3717 49.1883 39.3067C48.0661 39.2911 47.2794 39.3522 46.8283 39.49C45.45 39.91 44.3033 41.0467 43.73 42.38C41.37 47.87 39.085 53.4117 36.625 58.8567C36.3594 59.4456 36.1216 60.0478 35.9116 60.6634" stroke="#12538C" stroke-width="0.333333"/>
<path d="M35.9119 60.6633C35.9141 60.6956 35.8919 60.725 35.8452 60.7517" stroke="#719C67" stroke-width="0.333333"/>
<path d="M64.1483 39.2983C61.7627 44.8983 59.3672 50.4856 56.9616 56.06C55.98 58.3367 55.4016 59.805 53.1933 60.4867C52.6944 60.64 51.9472 60.7161 50.9516 60.715C45.9694 60.7061 40.99 60.7045 36.0133 60.71C35.9922 60.71 35.9744 60.7022 35.96 60.6867C35.9511 60.6756 35.935 60.6678 35.9116 60.6633" stroke="#6D924E" stroke-width="0.333333"/>
<path d="M0 0H100V100H0V0ZM35.845 60.7517C34.1733 64.635 32.585 68.58 30.8383 72.4233C29.545 75.27 31.01 78.5217 34.375 78.5567C38.5528 78.5989 42.7311 78.6 46.91 78.56C47.8567 78.5511 48.5744 78.4667 49.0633 78.3067C51.205 77.605 51.7483 76.195 52.8367 73.9067C54.6356 70.1256 56.4289 66.3456 58.2167 62.5667C58.2378 62.5222 58.2728 62.5 58.3217 62.5C62.0206 62.5011 65.7178 62.5006 69.4133 62.4983C70.6033 62.4983 71.4539 62.4222 71.965 62.27C74.1217 61.6233 74.665 60.19 75.7433 57.9167C77.6978 53.7956 79.6539 49.6756 81.6117 45.5567C82.6133 43.4467 82.065 40.4133 79.68 39.525C79.2578 39.3683 78.5722 39.29 77.6233 39.29C73.1444 39.2933 68.6528 39.2933 64.1483 39.29C65.8094 35.4233 67.4594 31.5611 69.0983 27.7033C69.4128 26.9622 69.5878 26.3611 69.6233 25.9C69.765 24.0483 68.7033 22.0783 66.89 21.5767C66.5322 21.4767 65.5444 21.425 63.9267 21.4217C60.2044 21.4106 56.4817 21.4122 52.7583 21.4267C50.4517 21.4333 48.9 22.4517 47.95 24.4667C45.9178 28.7711 43.9044 33.0822 41.91 37.4C41.896 37.4304 41.8736 37.4562 41.8455 37.4742C41.8175 37.4922 41.7849 37.5018 41.7517 37.5017C38.055 37.4983 34.3394 37.4989 30.605 37.5033C29.495 37.5044 28.6911 37.585 28.1933 37.745C26.3067 38.3533 25.6083 39.6117 24.7817 41.3233C22.8839 45.2478 20.985 49.1728 19.085 53.0983C18.3917 54.5328 18.0044 55.5317 17.9233 56.095C17.6 58.35 19.1933 60.71 21.625 60.7083C26.355 60.7072 31.0856 60.7072 35.8167 60.7083C35.8211 60.7083 35.8239 60.7106 35.825 60.715C35.8317 60.7272 35.8383 60.7394 35.845 60.7517Z" fill="#F0F3FA"/>
<path d="M64.1484 39.2899C64.1484 39.2932 64.1484 39.296 64.1484 39.2982C58.5984 39.2732 53.9684 39.3716 49.1884 39.3066C48.0662 39.291 47.2795 39.3521 46.8284 39.4899C45.4501 39.9099 44.3034 41.0466 43.7301 42.3799C41.3701 47.8699 39.0851 53.4116 36.6251 58.8566C36.3595 59.4454 36.1217 60.0477 35.9118 60.6632C35.914 60.6954 35.8918 60.7249 35.8451 60.7516C35.8384 60.7393 35.8317 60.7271 35.8251 60.7149C35.824 60.7104 35.8212 60.7082 35.8167 60.7082C31.0856 60.7071 26.3551 60.7071 21.6251 60.7082C19.1934 60.7099 17.6001 58.3499 17.9234 56.0949C18.0045 55.5316 18.3917 54.5327 19.0851 53.0982C20.9851 49.1727 22.884 45.2477 24.7817 41.3232C25.6084 39.6116 26.3068 38.3532 28.1934 37.7449C28.6912 37.5849 29.4951 37.5043 30.6051 37.5032C34.3395 37.4988 38.0551 37.4982 41.7517 37.5016C41.785 37.5016 41.8175 37.4921 41.8456 37.4741C41.8737 37.4561 41.8961 37.4303 41.9101 37.3999C43.9045 33.0821 45.9179 28.771 47.9501 24.4666C48.9001 22.4516 50.4517 21.4332 52.7584 21.4266C56.4817 21.4121 60.2045 21.4104 63.9268 21.4216C65.5445 21.4249 66.5323 21.4766 66.8901 21.5766C68.7034 22.0782 69.7651 24.0482 69.6234 25.8999C69.5879 26.361 69.4129 26.9621 69.0984 27.7032C67.4595 31.561 65.8095 35.4232 64.1484 39.2899Z" fill="#165DA5"/>
<path d="M64.1483 39.2984C61.7627 44.8984 59.3672 50.4856 56.9616 56.06C55.98 58.3367 55.4016 59.805 53.1933 60.4867C52.6944 60.64 51.9472 60.7161 50.9516 60.715C45.9694 60.7061 40.99 60.7045 36.0133 60.71C35.9922 60.71 35.9744 60.7022 35.96 60.6867C35.9511 60.6756 35.935 60.6678 35.9116 60.6634C36.1216 60.0478 36.3594 59.4456 36.625 58.8567C39.085 53.4117 41.37 47.87 43.73 42.38C44.3033 41.0467 45.45 39.91 46.8283 39.49C47.2794 39.3522 48.0661 39.2911 49.1883 39.3067C53.9683 39.3717 58.5983 39.2734 64.1483 39.2984Z" fill="#0E4972"/>
<path d="M64.1481 39.2984C64.1481 39.2961 64.1481 39.2934 64.1481 39.29C68.6526 39.2934 73.1442 39.2934 77.6231 39.29C78.572 39.29 79.2575 39.3684 79.6798 39.525C82.0648 40.4134 82.6131 43.4467 81.6114 45.5567C79.6537 49.6756 77.6975 53.7956 75.7431 57.9167C74.6648 60.19 74.1214 61.6234 71.9648 62.27C71.4537 62.4223 70.6031 62.4984 69.4131 62.4984C65.7176 62.5006 62.0203 62.5012 58.3214 62.5C58.2726 62.5 58.2376 62.5223 58.2164 62.5667C56.4287 66.3456 54.6353 70.1256 52.8364 73.9067C51.7481 76.195 51.2048 77.605 49.0631 78.3067C48.5742 78.4667 47.8564 78.5511 46.9098 78.56C42.7309 78.6 38.5526 78.5989 34.3748 78.5567C31.0098 78.5217 29.5448 75.27 30.8381 72.4234C32.5848 68.58 34.1731 64.635 35.8448 60.7517C35.8914 60.725 35.9137 60.6956 35.9114 60.6634C35.9348 60.6678 35.9509 60.6756 35.9598 60.6867C35.9742 60.7023 35.992 60.71 36.0131 60.71C40.9898 60.7045 45.9692 60.7062 50.9514 60.715C51.947 60.7162 52.6942 60.64 53.1931 60.4867C55.4014 59.805 55.9798 58.3367 56.9614 56.06C59.367 50.4856 61.7626 44.8984 64.1481 39.2984Z" fill="#CCDB29"/>
</g>
</g>
<defs>
<clipPath id="clip0_40_1330">
<rect width="100" height="100" fill="white"/>
</clipPath>
<clipPath id="clip1_40_1330">
<rect width="100" height="100" fill="white"/>
</clipPath>
</defs>
</svg>
