<svg width="100" height="100" viewBox="0 0 100 100" fill="none" xmlns="http://www.w3.org/2000/svg">
<rect width="100" height="100" fill="#0066CB"/>
<path d="M86 50C86 54.7276 85.0688 59.4089 83.2597 63.7766C81.4505 68.1443 78.7988 72.1129 75.4558 75.4558C72.1129 78.7988 68.1443 81.4505 63.7766 83.2597C59.4089 85.0688 54.7276 86 50 86C40.4522 86 31.2955 82.2072 24.5442 75.4558C17.7928 68.7045 14 59.5478 14 50C14 40.4522 17.7928 31.2955 24.5442 24.5442C31.2955 17.7928 40.4522 14 50 14C54.7276 14 59.4089 14.9312 63.7766 16.7403C68.1443 18.5495 72.1129 21.2012 75.4558 24.5442C78.7988 27.8871 81.4505 31.8557 83.2597 36.2234C85.0688 40.5911 86 45.2724 86 50ZM66.0981 71.6356C66.0268 71.6119 65.9675 71.5644 65.92 71.4931C76.6863 57.2119 65.7062 36.9023 47.7438 38.7428C32.0614 40.3499 24.0816 59.1672 33.9296 71.4298C34.3941 72.0051 34.3598 72.0367 33.8267 71.5248C20.0957 58.3202 28.1942 34.0325 47.4113 32.3384C47.6136 32.3197 47.8015 32.2265 47.9384 32.0772C48.0753 31.9279 48.1513 31.7331 48.1515 31.531V21.1525C48.1518 21.0321 48.1265 20.913 48.0773 20.803C48.0281 20.6931 47.9561 20.5947 47.866 20.5143C47.776 20.434 47.6699 20.3735 47.5547 20.3368C47.4395 20.3001 47.3178 20.2881 47.1976 20.3015C27.9211 22.4904 15.3893 41.3632 21.9362 59.9668C27.5529 75.9303 45.8953 84.1515 61.6292 77.3434C89.9028 65.1125 83.3203 23.8085 53.0993 20.349C52.1929 20.2461 51.8168 20.4361 51.8129 21.4058C51.8102 24.7809 51.8102 28.148 51.8129 31.5072C51.814 31.6679 51.8721 31.8227 51.9768 31.9433C52.0815 32.0639 52.2256 32.1424 52.3829 32.1643C59.4258 33.1881 64.8935 36.4259 68.7857 41.8777C75.4078 51.1479 74.0897 63.6717 66.0981 71.6356Z" fill="white"/>
<path d="M41.6639 77.4661C41.78 77.5136 41.8604 77.5968 41.9053 77.7155C41.9132 77.7372 41.9148 77.7607 41.91 77.7833C41.9051 77.8059 41.894 77.8266 41.8779 77.8432C41.8617 77.8597 41.8413 77.8714 41.8188 77.8768C41.7964 77.8822 41.7728 77.8812 41.7509 77.8738C30.4898 74.066 22.5061 65.1323 21.1919 53.3289C19.387 37.124 30.8025 22.914 47.1302 21.1407C47.2832 21.1249 47.3597 21.1921 47.3597 21.3426V31.3173C47.3597 31.4413 47.299 31.5139 47.1777 31.535C45.2144 31.8714 43.1363 32.2158 41.3314 32.952C21.0059 41.2564 21.1444 69.2805 41.6639 77.4661Z" fill="white"/>
<path d="M52.85 21.1166C70.4205 22.9612 82.7979 40.1913 77.9768 57.465C74.9962 68.1482 67.8873 74.6832 57.2001 78.1229C57.0629 78.1651 57.022 78.1203 57.0774 77.9883C57.1117 77.9065 57.1671 77.8511 57.2436 77.8221C68.6354 73.9034 75.5464 62.8917 73.4486 51.0131C71.5803 40.4565 63.3789 33.205 52.8104 31.4199C52.6679 31.3961 52.5967 31.313 52.5967 31.1705L52.6086 21.3343C52.6086 21.1734 52.689 21.1008 52.85 21.1166Z" fill="white"/>
<path d="M42.5662 40.8409C58.9255 34.4563 74.7426 50.6652 67.7959 66.8543C65.5516 72.0831 60.3584 76.8923 54.4844 77.7433C48.7687 78.5706 42.9224 78.1273 38.1567 74.5807C26.199 65.6906 28.5304 46.323 42.5662 40.8409Z" fill="white"/>
<path d="M65.92 71.4929C65.9675 71.5642 66.0269 71.6117 66.0981 71.6354L65.3896 72.2925C65.1178 72.5432 65.0795 72.5128 65.2748 72.2014C65.4463 71.9217 65.6614 71.6856 65.92 71.4929Z" fill="#0066CB"/>
</svg>
