<svg width="100" height="100" viewBox="0 0 100 100" fill="none" xmlns="http://www.w3.org/2000/svg">
<rect width="100" height="100" fill="white"/>
<path d="M31.0492 66.1727C32.1755 66.6277 32.893 65.8815 33.1155 64.8027C33.1198 64.7822 33.131 64.7637 33.1471 64.7505C33.1633 64.7373 33.1835 64.7301 33.2042 64.7302H35.8917C35.9292 64.7302 35.9471 64.749 35.9455 64.7865C35.8567 67.574 33.238 69.0253 30.6855 68.5265C25.683 67.549 25.793 59.624 30.8942 58.8827C33.418 58.5152 35.7005 59.7165 35.8792 62.4602C35.8817 62.5011 35.863 62.5223 35.823 62.524C35.0155 62.5702 33.5305 62.7202 33.1667 62.0727C32.463 60.8202 30.6192 60.829 30.1267 62.3027C29.7567 63.414 29.6817 65.6202 31.0492 66.1727Z" fill="#003058"/>
<path d="M55.193 60.8677C53.7555 60.864 52.4955 61.114 52.728 59.1077C52.733 59.0644 52.7572 59.0427 52.8005 59.0427H55.2068C55.2484 59.0427 55.2693 59.0636 55.2693 59.1052V60.7927C55.2693 60.8427 55.2438 60.8677 55.193 60.8677Z" fill="#003058"/>
<path d="M69.8793 59.4978C70.3343 58.9053 71.1456 59.0116 71.9831 59.0591C72.0256 59.0616 72.0472 59.0845 72.0481 59.1278C72.0547 61.7153 72.0539 64.3008 72.0456 66.8841C72.0439 67.4966 71.7881 67.9528 71.2781 68.2528C70.8681 68.4941 70.0218 68.3853 69.5168 68.3966C69.51 68.3968 69.5032 68.3956 69.4968 68.3931C69.4905 68.3906 69.4847 68.3868 69.4798 68.382C69.4749 68.3773 69.471 68.3716 69.4684 68.3653C69.4657 68.359 69.4643 68.3522 69.4643 68.3453C69.4381 66.4828 69.4781 64.6991 69.4493 62.7528C69.4331 61.6028 69.3131 60.2341 69.8793 59.4978Z" fill="#003058"/>
<path d="M59.644 61.6053H60.894C60.9106 61.6053 60.9265 61.6119 60.9382 61.6236C60.9499 61.6353 60.9565 61.6512 60.9565 61.6678V63.1366C60.9565 63.1531 60.9499 63.169 60.9382 63.1807C60.9265 63.1925 60.9106 63.1991 60.894 63.1991H59.6453C59.6261 63.1991 59.6076 63.2067 59.594 63.2203C59.5804 63.2339 59.5728 63.2523 59.5728 63.2716C59.582 64.0007 59.5849 64.7253 59.5815 65.4453C59.5778 66.3053 59.8265 66.5778 60.7078 66.4466C60.8736 66.4224 60.9565 66.4941 60.9565 66.6616V68.3203C60.9565 68.3578 60.9378 68.3791 60.9003 68.3841C60.2169 68.4757 59.5353 68.4995 58.8553 68.4553C57.6515 68.3766 57.0378 67.8316 57.0078 66.5816C56.9811 65.4791 56.9765 64.3841 56.994 63.2966C56.9942 63.2838 56.9918 63.2712 56.9871 63.2593C56.9823 63.2475 56.9752 63.2368 56.9663 63.2277C56.9573 63.2186 56.9467 63.2114 56.9349 63.2065C56.9232 63.2016 56.9105 63.1991 56.8978 63.1991H55.9565C55.894 63.1991 55.8628 63.1678 55.8628 63.1053V61.6603C55.8628 61.6195 55.8832 61.5991 55.924 61.5991L56.9265 61.6078C56.9765 61.6086 57.0003 61.5836 56.9978 61.5328C56.9728 61.0303 56.9053 60.4103 57.2003 60.0053C57.6428 59.4003 58.8303 59.494 59.494 59.5153C59.5175 59.5159 59.5397 59.5257 59.5561 59.5425C59.5724 59.5593 59.5815 59.5819 59.5815 59.6053V61.5428C59.5815 61.5845 59.6024 61.6053 59.644 61.6053Z" fill="#003058"/>
<path d="M46.9929 62.2989C46.9952 62.3054 46.9993 62.3112 47.0047 62.3155C47.01 62.3199 47.0165 62.3227 47.0234 62.3236C47.0302 62.3245 47.0372 62.3235 47.0435 62.3207C47.0498 62.3178 47.0552 62.3133 47.0592 62.3076C47.4 61.8135 47.8629 61.5293 48.4479 61.4551C52.6717 60.9139 53.0679 68.5702 48.9579 68.5677C48.2046 68.5677 47.59 68.2718 47.1142 67.6802C47.1117 67.6766 47.1081 67.674 47.104 67.6727C47.0999 67.6714 47.0955 67.6715 47.0914 67.6729C47.0873 67.6743 47.0838 67.677 47.0814 67.6805C47.0789 67.6841 47.0777 67.6883 47.0779 67.6927L47.0829 70.5402C47.0831 70.5485 47.0816 70.5567 47.0784 70.5645C47.0753 70.5722 47.0706 70.5792 47.0647 70.5852C47.0588 70.5911 47.0517 70.5958 47.0439 70.599C47.036 70.6023 47.0276 70.6039 47.0192 70.6039C46.4992 70.6052 45.7242 70.7077 45.2904 70.4577C44.6304 70.0802 44.5242 69.4827 44.5217 68.7052C44.5167 66.3635 44.5163 64.0197 44.5204 61.6739C44.5204 61.6322 44.5413 61.611 44.5829 61.6101C45.3554 61.5914 46.6729 61.3689 46.9929 62.2989ZM48.2942 63.3414C46.8592 63.1189 46.8792 65.0951 47.1329 65.9614C47.3642 66.7489 48.4567 66.9464 48.9354 66.2764C49.4379 65.5739 49.4367 63.5176 48.2942 63.3414Z" fill="#003058"/>
<path d="M36.6004 63.6564C37.0554 61.2751 40.4654 61.2701 42.1467 61.7314C43.0692 61.9847 43.5467 62.6197 43.5792 63.6364C43.6158 64.7922 43.6271 65.9481 43.6129 67.1039C43.6054 67.6827 43.5542 67.9589 43.9454 68.2989C43.9558 68.3076 43.9633 68.3193 43.9667 68.3324C43.9702 68.3454 43.9695 68.3593 43.9647 68.3721C43.9599 68.3849 43.9513 68.396 43.9401 68.4039C43.9288 68.4118 43.9154 68.4162 43.9017 68.4164C42.9067 68.4214 41.9579 68.5827 41.1479 67.7864C41.1146 67.7539 41.08 67.7522 41.0442 67.7814C40.13 68.5214 39.0879 68.7781 37.9179 68.5514C36.7796 68.3306 36.2075 67.6514 36.2017 66.5139C36.1904 64.2551 39.1192 64.5476 40.5417 64.1314C40.9017 64.0251 41.1104 63.6039 40.7729 63.3251C40.2054 62.8576 39.3767 63.2276 38.8417 63.4839C38.1729 63.8039 37.3829 63.8151 36.6642 63.7426C36.6541 63.7416 36.6444 63.7385 36.6357 63.7335C36.6269 63.7285 36.6193 63.7217 36.6133 63.7136C36.6073 63.7055 36.603 63.6962 36.6008 63.6864C36.5986 63.6765 36.5985 63.6663 36.6004 63.6564ZM39.5204 65.6989C38.7029 65.9926 38.8254 67.1077 39.6454 67.1089C40.6217 67.1102 41.0142 66.1439 40.9417 65.2589C40.9392 65.2222 40.9204 65.2097 40.8854 65.2214C40.4279 65.3764 39.9729 65.5356 39.5204 65.6989Z" fill="#003058"/>
<path d="M66.3144 67.7765C66.281 67.7399 66.2452 67.7374 66.2069 67.769C65.4144 68.4257 64.5156 68.709 63.5106 68.619C62.3569 68.5153 61.4081 67.9253 61.3669 66.689C61.2869 64.289 64.1306 64.494 65.6194 64.149C66.3044 63.9903 66.2131 63.2378 65.5481 63.144C65.0256 63.0699 64.5481 63.1599 64.1156 63.414C63.4394 63.8115 62.5794 63.829 61.8244 63.7365C61.7752 63.7307 61.7544 63.7032 61.7619 63.654C62.1469 61.3303 65.4081 61.3253 67.0806 61.679C68.1706 61.909 68.7273 62.5928 68.7506 63.7303C68.7765 65.027 68.7823 66.324 68.7681 67.6215C68.7656 67.909 68.8881 68.119 69.0956 68.289C69.1105 68.3009 69.1213 68.3172 69.1265 68.3356C69.1316 68.3539 69.1309 68.3734 69.1245 68.3913C69.118 68.4093 69.106 68.4247 69.0903 68.4355C69.0746 68.4463 69.0559 68.4519 69.0369 68.4515C68.0744 68.4403 67.0094 68.5465 66.3144 67.7765ZM64.6544 65.709C63.6956 66.0565 64.1244 67.3253 65.0881 67.0803C65.8819 66.879 66.1356 66.0715 66.1119 65.304C66.1102 65.2415 66.0798 65.2199 66.0206 65.239C65.5381 65.3965 65.0827 65.5532 64.6544 65.709Z" fill="#003058"/>
<path d="M55.212 68.384C53.6683 68.5277 52.7195 68.3177 52.712 66.5577C52.7037 64.9302 52.7029 63.3002 52.7095 61.6677C52.7095 61.6261 52.7304 61.6052 52.772 61.6052H55.207C55.2487 61.6052 55.2695 61.6261 55.2695 61.6677V68.3215C55.2695 68.3598 55.2504 68.3807 55.212 68.384Z" fill="#003058"/>
<path d="M52.2159 28.1091C52.5434 28.2391 52.5322 28.3254 52.1822 28.3679C39.5934 29.8304 27.6759 35.8716 18.3309 44.3167C18.2878 44.3551 18.2318 44.3757 18.1746 44.3743C18.1173 44.373 18.0632 44.3496 18.0234 44.3092L11.0558 37.4541C11.0361 37.435 11.021 37.4118 11.0114 37.386C11.0019 37.3603 10.9983 37.3327 11.0008 37.3054C11.0033 37.278 11.0119 37.2516 11.026 37.228C11.0401 37.2045 11.0592 37.1843 11.0821 37.1691C22.6809 29.1854 38.0821 22.4204 52.2159 28.1091Z" fill="#003058"/>
<path d="M39.8373 47.429C39.8084 47.4112 39.7852 47.3854 39.7706 47.3548C39.756 47.3242 39.7505 47.29 39.7549 47.2563C39.7592 47.2226 39.7732 47.1909 39.7952 47.165C39.8171 47.1391 39.846 47.1201 39.8785 47.1103C52.0885 43.619 62.7011 35.6615 71.1348 26.2415C71.3548 25.994 71.5823 25.9865 71.8173 26.219L78.7886 33.0777C78.8083 33.0971 78.8239 33.1203 78.8345 33.1458C78.8451 33.1713 78.8503 33.1986 78.85 33.226C78.8496 33.2534 78.8437 33.2803 78.8325 33.3051C78.8213 33.3299 78.805 33.3521 78.7848 33.3702C69.8223 41.6615 58.441 48.5315 46.1785 50.2753C45.8085 50.3278 45.4335 50.3803 45.0535 50.4328C44.9285 50.4503 44.8123 50.4265 44.7048 50.3615L39.8373 47.429Z" fill="#ED1C24"/>
<path d="M59.2437 32.2041C59.5112 32.3641 59.4949 32.4866 59.1949 32.5716C48.8787 35.4778 39.6837 41.6691 32.1049 49.1878C30.6424 50.6403 29.1811 52.0941 27.7211 53.5491C27.6991 53.5719 27.6727 53.5901 27.6435 53.6027C27.6144 53.6152 27.583 53.6219 27.5513 53.6222C27.5196 53.6226 27.4881 53.6166 27.4586 53.6047C27.4292 53.5928 27.4025 53.5752 27.3799 53.5529L20.3299 46.5778C20.2124 46.4628 20.2136 46.3503 20.3336 46.2403C29.3711 37.8666 41.4649 30.7078 53.9674 29.1816C54.0824 29.1691 54.1887 29.1916 54.2862 29.2491L59.2437 32.2041Z" fill="#003058"/>
<path d="M87.7963 41.9841C87.9313 42.0316 88.0238 42.1104 88.0738 42.2204C88.0981 42.2736 88.1027 42.3336 88.0869 42.3899C88.0712 42.4462 88.036 42.4951 87.9876 42.5279C76.4151 50.4141 60.8638 57.3479 46.79 51.5054C46.5725 51.4154 46.58 51.3529 46.8125 51.3179C48.2 51.1004 49.7713 50.9541 50.975 50.6991C62.375 48.2766 72.0613 42.9741 80.8288 35.3429C80.9338 35.2529 81.0338 35.2566 81.1288 35.3541L87.7026 41.9279C87.7298 41.9527 87.7617 41.9718 87.7963 41.9841Z" fill="#ED1C24"/>
</svg>
