<svg width="100" height="100" viewBox="0 0 100 100" fill="none" xmlns="http://www.w3.org/2000/svg">
<rect width="100" height="100" fill="white"/>
<path d="M23.0189 56.627L21.1025 58.5479" stroke="#68B7D1" stroke-width="2.06202"/>
<path d="M66.5381 60.5456H63.8775C63.8591 60.5456 63.8414 60.5382 63.8284 60.5249C63.8154 60.5115 63.8081 60.4935 63.8081 60.4746L63.81 41.3397C63.8099 41.3292 63.8122 41.3188 63.8165 41.3092C63.8208 41.2997 63.8272 41.2912 63.8351 41.2845L66.4976 39.0164C66.5077 39.0077 66.5201 39.0022 66.5333 39.0006C66.5464 38.9989 66.5597 39.0011 66.5717 39.0069C66.5836 39.0127 66.5937 39.0218 66.6007 39.0333C66.6078 39.0448 66.6114 39.0581 66.6113 39.0716L66.6075 60.4746C66.6075 60.4935 66.6001 60.5115 66.5871 60.5249C66.5741 60.5382 66.5565 60.5456 66.5381 60.5456Z" fill="#160F42"/>
<path d="M50.2683 47.8777C53.8465 45.5583 58.4562 47.288 59.6824 51.4258C59.8893 52.1266 59.9953 53.3258 60.0005 55.0232C60.0069 56.8325 60.0062 58.6404 59.9985 60.447C59.9985 60.5127 59.9664 60.5456 59.9021 60.5456H57.3052C57.2397 60.5456 57.2069 60.5121 57.2069 60.445C57.2082 58.3202 57.2069 56.1974 57.203 54.0765C57.1895 48.282 50.2606 48.3806 50.1931 53.6071C50.1648 55.8818 50.1603 58.1565 50.1796 60.4312C50.1796 60.5075 50.143 60.5456 50.0697 60.5456H47.4921C47.4111 60.5456 47.3706 60.5035 47.3706 60.4194L47.3764 41.4462C47.3764 41.3699 47.4066 41.3087 47.467 41.2627C48.1938 40.7065 49.2002 40.5922 50.0678 40.4837C50.0807 40.4823 50.0938 40.4837 50.1062 40.4877C50.1186 40.4917 50.13 40.4983 50.1396 40.5071C50.1493 40.5158 50.157 40.5265 50.1622 40.5385C50.1674 40.5504 50.1701 40.5633 50.17 40.5764V47.8225C50.17 47.9014 50.2027 47.9198 50.2683 47.8777Z" fill="#160F42"/>
<path d="M32.7687 46.7143L30.0812 49.4676C26.7902 49.4065 23.2621 48.8306 22.0783 52.3629C21.5835 53.8395 21.8971 55.2608 23.0192 56.6269L21.1028 58.5479C17.5708 54.7395 19.0765 48.5761 23.9966 47.0338C24.6367 46.8326 25.519 46.7235 26.6437 46.7064C28.659 46.6735 30.7007 46.6762 32.7687 46.7143Z" fill="#28C4F4"/>
<path d="M32.7684 46.7144C32.78 49.2034 32.7749 51.6654 32.753 54.1005C32.7395 55.4969 32.032 57.1102 31.1278 58.2048C28.5655 61.3131 23.9771 61.4531 21.1025 58.548L23.0189 56.627C25.2187 58.7412 28.8837 58.0076 29.8341 54.9999C30.2833 53.5857 30.0578 51.2131 30.0809 49.4676L32.7684 46.7144Z" fill="#A8A9AD"/>
<path d="M73.5386 57.4946C74.7236 57.9811 75.8694 57.9719 76.9761 57.467C77.7646 57.1061 78.3738 56.398 78.9946 55.7314C79.046 55.6748 79.0981 55.6742 79.1508 55.7294L80.9071 57.5597C80.9521 57.6057 80.9534 57.653 80.911 57.7017C78.208 60.8356 74.0919 61.8119 70.8105 58.9541C67.9842 56.4907 67.6352 52.0117 70.0529 49.1519C72.2353 46.5722 75.7287 46.0101 78.6688 47.6688C79.4862 48.1303 80.2169 48.9211 80.911 49.6095C80.9222 49.6205 80.9312 49.6338 80.9374 49.6484C80.9436 49.6631 80.9469 49.6789 80.9471 49.6949C80.9473 49.7108 80.9443 49.7267 80.9385 49.7415C80.9326 49.7563 80.9239 49.7697 80.9129 49.7811L73.5096 57.3526C73.4492 57.4157 73.4589 57.463 73.5386 57.4946ZM76.8777 49.8126C73.2937 48.4774 70.0162 51.7139 71.493 55.3744C71.5136 55.427 71.5431 55.4336 71.5817 55.3941L76.9124 49.9724C76.9238 49.9609 76.9321 49.9466 76.9366 49.9309C76.9411 49.9152 76.9417 49.8986 76.9382 49.8827C76.9348 49.8667 76.9274 49.8519 76.9168 49.8397C76.9062 49.8274 76.8928 49.8181 76.8777 49.8126Z" fill="#160F42"/>
<path d="M17.615 57.4039C14.7097 62.1097 8.32243 61.3504 6.43692 56.1673C5.14521 52.6133 6.79937 48.4321 10.3198 47.1856C13.1866 46.1718 16.0573 47.3651 17.6652 49.9783C17.696 50.0283 17.6883 50.071 17.642 50.1065C16.8811 50.6745 16.0239 50.9618 15.0702 50.9684C15.0068 50.9683 14.9452 50.9445 14.8967 50.9013C13.4565 49.5937 11.8852 49.1263 10.2426 50.4615C7.83659 52.42 8.53258 57.0923 11.8795 57.6031C13.0092 57.7753 14.0195 57.3815 14.9102 56.4217C14.9314 56.3981 14.9571 56.3794 14.9857 56.3669C15.0143 56.3543 15.0451 56.3481 15.076 56.3487C16.0232 56.3514 16.8619 56.6525 17.5919 57.252C17.6433 57.2954 17.651 57.346 17.615 57.4039Z" fill="#160F42"/>
<path d="M42.2098 50.6211C41.8473 50.0662 41.2895 49.7073 40.5363 49.5442C39.6148 49.345 37.9221 49.491 37.791 50.6862C37.6252 52.189 40.6385 52.4711 41.5485 52.8359C44.7604 54.1297 46.2411 57.7863 42.5665 59.8079C39.9406 61.2516 36.1137 60.6639 34.6234 57.7035C34.5977 57.6496 34.6086 57.6055 34.6562 57.5713C35.3515 57.0678 36.1188 56.7423 36.9581 56.5951C37.0185 56.5832 37.0648 56.6049 37.0969 56.6602C37.8199 57.9165 39.5936 58.1216 40.7928 57.595C41.7972 57.1532 41.8878 56.1375 40.9123 55.5734C40.2722 55.2027 39.6958 54.9686 39.1829 54.8713C37.1683 54.4907 35.007 53.2915 34.6832 51.1043C34.446 49.491 35.5102 48.0966 36.962 47.4418C39.6495 46.2269 43.2682 46.6904 44.7065 49.6251C44.7174 49.6466 44.7207 49.6714 44.7158 49.6951C44.7109 49.7189 44.698 49.7401 44.6795 49.7553C44.0098 50.3114 43.247 50.6296 42.391 50.7098C42.3139 50.7177 42.2535 50.6881 42.2098 50.6211Z" fill="#160F42"/>
<path d="M90.4655 49.4499C88.5042 49.4446 86.5435 49.4453 84.5834 49.4519C84.2724 49.4532 84.0719 49.3835 83.9819 49.2428C83.5282 48.5315 83.2872 47.7544 83.2589 46.9116C83.2563 46.8301 83.2949 46.7893 83.3746 46.7893H94.5604C94.6247 46.7893 94.6568 46.8222 94.6568 46.8879V48.8207C94.6568 48.8904 94.635 48.9522 94.5913 49.0061L87.3307 57.8281C87.2729 57.8978 87.2883 57.9326 87.377 57.9326H93.7931C93.8181 57.9327 93.8427 57.939 93.8648 57.951C93.887 57.963 93.906 57.9804 93.9204 58.0016C94.4075 58.7327 94.6562 59.544 94.6665 60.4354C94.6677 60.5091 94.6324 60.5459 94.5604 60.5459H83.3784C83.3142 60.5459 83.282 60.513 83.282 60.4473V58.4691C83.282 58.3994 83.3039 58.3382 83.3476 58.2857L90.5156 49.5584C90.5748 49.4861 90.558 49.4499 90.4655 49.4499Z" fill="#160F42"/>
</svg>
