<svg width="100" height="100" viewBox="0 0 100 100" fill="none" xmlns="http://www.w3.org/2000/svg">
<g clip-path="url(#clip0_44_2914)">
<rect width="100" height="100" fill="white"/>
<path d="M70.7968 -2.99194C70.7169 -2.21903 70.5611 -1.18893 70.3293 0.098365C64.0779 34.8153 43.9989 64.9229 14.2321 83.7465C8.88568 87.1274 3.15435 90.1444 -2.96191 92.7976" stroke="#67B942" stroke-width="2"/>
<path d="M-2.93799 91.1626C32.8385 71.9331 56.4258 37.3161 61.8022 -2.95386" stroke="#8C7737" stroke-width="2"/>
<path d="M102.993 34.6313C102.887 34.7233 102.797 34.7553 102.733 34.8832C84.2645 71.9009 48.5879 97.233 7.51491 102.668C7.49564 102.672 7.47845 102.683 7.46651 102.699C7.45456 102.714 7.44865 102.734 7.44986 102.753C7.45108 102.773 7.45933 102.792 7.47311 102.806C7.48689 102.82 7.50528 102.828 7.52491 102.83L18.6912 102.854" stroke="#67B942" stroke-width="2"/>
<path d="M102.963 52.9215C102.886 52.9135 102.824 52.9408 102.777 53.0035C82.6364 80.3925 52.486 98.3167 18.6914 102.854" stroke="#8C7737" stroke-width="2"/>
<path d="M70.7968 -2.99194C70.7169 -2.21903 70.5611 -1.18893 70.3293 0.0983651C64.0779 34.8153 43.9989 64.9229 14.2321 83.7465C8.88568 87.1274 3.15435 90.1444 -2.96191 92.7976L-2.93794 91.1625C32.8386 71.933 56.4259 37.316 61.8023 -2.95396L70.7968 -2.99194Z" fill="#28A44A"/>
<path d="M70.7967 -2.992C78.2543 -3.00267 85.7204 -3.00267 93.1953 -2.992C95.1186 -2.98934 96.4425 -2.89406 97.1671 -2.70616C99.9182 -1.99255 102.144 0.31818 102.777 3.11465C102.92 3.7463 102.992 4.8477 102.993 6.41884C103.002 15.823 103.002 25.2272 102.993 34.6314C102.887 34.7233 102.797 34.7553 102.733 34.8832C84.2646 71.901 48.588 97.2331 7.51501 102.668C7.49573 102.672 7.47855 102.683 7.4666 102.699C7.45466 102.714 7.44875 102.734 7.44996 102.753C7.45117 102.773 7.45943 102.792 7.47321 102.806C7.48699 102.82 7.50538 102.828 7.525 102.83L18.6913 102.854C18.7033 102.911 18.5688 102.957 18.2877 102.992C14.1601 102.989 10.0304 102.992 5.8987 103C4.67066 103.003 3.71233 102.917 3.02372 102.742C-0.518573 101.847 -2.73825 99.0301 -2.95802 95.3721C-3.01263 94.4766 -3.01396 93.6184 -2.96202 92.7975C3.15425 90.1443 8.88558 87.1273 14.232 83.7465C43.9988 64.9228 64.0778 34.8153 70.3292 0.098304C70.561 -1.18899 70.7168 -2.21909 70.7967 -2.992Z" fill="#A6CE39"/>
<path d="M61.8023 -2.9541C56.4259 37.3158 32.8386 71.9329 -2.93794 91.1623C-2.94061 62.9178 -2.94061 34.6826 -2.93794 6.45674C-2.93794 4.73368 -2.83738 3.50236 -2.63626 2.76277C-1.90702 0.0862341 0.324643 -2.06259 3.0438 -2.72023C3.66048 -2.86948 4.58085 -2.94411 5.8049 -2.94411C24.5013 -2.94677 43.1671 -2.9501 61.8023 -2.9541Z" fill="#EF4923"/>
<path d="M102.993 34.6313L102.963 52.9213C102.886 52.9133 102.824 52.9406 102.777 53.0033C82.6362 80.3923 52.4858 98.3165 18.6912 102.854L7.52491 102.83C7.50528 102.828 7.48689 102.82 7.47311 102.806C7.45933 102.792 7.45108 102.773 7.44986 102.753C7.44865 102.734 7.45456 102.714 7.46651 102.699C7.47845 102.683 7.49564 102.672 7.51491 102.668C48.5879 97.233 84.2645 71.9009 102.733 34.8832C102.797 34.7553 102.887 34.7233 102.993 34.6313Z" fill="#28A44A"/>
<path d="M102.963 52.9213C102.948 66.3632 102.943 79.8059 102.947 93.2492C102.947 95.1908 102.853 96.5161 102.665 97.225C101.97 99.8616 99.7702 102.032 97.117 102.724C96.4404 102.901 95.2843 102.99 93.6487 102.99C68.5283 102.995 43.408 102.996 18.2876 102.992C18.5686 102.957 18.7032 102.911 18.6912 102.854C52.4858 98.3164 82.6362 80.3922 102.777 53.0032C102.824 52.9406 102.886 52.9133 102.963 52.9213Z" fill="#EF4923"/>
</g>
<defs>
<clipPath id="clip0_44_2914">
<rect width="100" height="100" fill="white"/>
</clipPath>
</defs>
</svg>
