<svg width="100" height="100" viewBox="0 0 100 100" fill="none" xmlns="http://www.w3.org/2000/svg">
<rect width="100" height="100" fill="white"/>
<path d="M59.6785 26.4836C59.6971 26.457 59.7033 26.4689 59.6973 26.5196L65.2377 32.3491C65.2597 32.3724 65.2719 32.4032 65.2718 32.4352C65.2716 32.4672 65.2591 32.4978 65.2368 32.5206C64.2981 33.4871 63.3898 34.4254 62.512 35.3353C62.16 35.7004 61.6062 36.3097 61.1316 36.7769C60.8506 37.053 60.5541 37.4165 60.2331 37.7097C60.0657 37.8625 59.9219 38.0871 59.7071 38.2333C59.6859 38.2474 59.672 38.2668 59.6655 38.2913L59.6573 38.3215C59.6508 38.3177 59.6437 38.316 59.6361 38.3166C59.6284 38.3166 59.6224 38.3199 59.6181 38.3264C59.3722 38.6596 59.0586 38.9292 58.785 39.2306C58.657 39.3716 58.5203 39.5037 58.3749 39.6267C58.2745 39.7117 58.2214 39.8367 58.1201 39.9281C57.8677 40.1568 57.6463 40.406 57.4168 40.6559C57.2845 40.8005 57.0574 40.9614 56.9178 41.1729C56.8611 41.259 56.7947 41.2671 56.7185 41.1974L56.404 40.9116C56.3996 40.9448 56.3825 40.9388 56.3525 40.8936C56.3776 40.8822 56.383 40.8688 56.3689 40.8536C56.0601 40.5187 55.7427 40.1922 55.4165 39.8742C55.3315 39.7909 55.2613 39.6382 55.1919 39.581C54.7377 39.2102 54.4265 38.8157 54.0336 38.4162C52.1313 36.478 50.2519 34.5234 48.3814 32.5337C48.3133 32.4607 48.3136 32.3883 48.3822 32.3164L56.7275 23.5154C56.734 23.5085 56.7419 23.5029 56.7507 23.4991C56.7595 23.4954 56.7689 23.4934 56.7785 23.4934C56.7881 23.4934 56.7975 23.4954 56.8063 23.4991C56.8151 23.5029 56.823 23.5085 56.8296 23.5154L59.6785 26.4836Z" fill="#BB2829"/>
<path d="M39.4416 37.5764C39.4394 37.6053 39.4271 37.6287 39.4048 37.6467C39.3754 37.6369 39.3531 37.6404 39.3378 37.6573C39.1462 37.8691 38.9452 38.0804 38.735 38.2911C38.5308 38.5304 38.294 38.7256 38.0922 38.9642C37.9114 39.1787 37.7244 39.366 37.5311 39.5261C37.4946 39.5566 37.4821 39.5846 37.4935 39.6102L37.4224 39.6454L35.8918 41.2283C35.8722 41.2485 35.8512 41.2501 35.8289 41.2332C35.6753 41.1167 35.5797 41.0369 35.5422 40.9939C35.0243 40.4025 34.3529 39.7695 33.9127 39.3031C32.5862 37.9004 31.2529 36.5045 29.9128 35.1154C29.9106 35.1132 29.8445 35.0381 29.7143 34.89C29.5902 34.7478 29.4293 34.6425 29.3116 34.5134C28.6982 33.8428 28.0048 33.2253 27.4346 32.5221C27.4102 32.492 27.3979 32.4538 27.4002 32.4151C27.4024 32.3764 27.4191 32.34 27.4469 32.313C27.8871 31.8833 28.3642 31.3287 28.6941 30.984C30.8693 28.7093 33.3809 26.0587 35.6884 23.6141C35.8362 23.4572 35.9375 23.5381 36.0445 23.6802C36.1915 23.8763 36.4072 24.0511 36.5427 24.1973C37.607 25.3547 38.7154 26.4712 39.7895 27.6196C41.2728 29.2051 42.8305 30.7406 44.2819 32.353C44.3039 32.3774 44.3158 32.4092 44.3154 32.4419C44.3149 32.4746 44.3021 32.5059 44.2795 32.5294L39.4416 37.5764Z" fill="#BB2829"/>
<path d="M77.8538 23.5937L86.1835 32.3693C86.2012 32.3878 86.211 32.4123 86.211 32.4378C86.211 32.4632 86.2012 32.4875 86.1835 32.5057L77.8465 41.176C77.7713 41.2539 77.6962 41.2536 77.6211 41.1752L69.253 32.4731C69.2431 32.4629 69.2375 32.4493 69.2373 32.4351C69.2372 32.4208 69.2425 32.4069 69.2521 32.3963C69.8696 31.7306 70.5509 31.0404 71.1251 30.4229C72.317 29.14 73.3255 28.079 74.1505 27.2398C74.1793 27.211 74.1989 27.1865 74.2093 27.1663C74.2191 27.1473 74.2316 27.1307 74.2469 27.1165C74.719 26.6795 75.1143 26.1894 75.5701 25.7247C76.2295 25.0516 76.9017 24.3418 77.5868 23.5953C77.6036 23.5769 77.6242 23.5621 77.647 23.552C77.6699 23.5418 77.6946 23.5365 77.7197 23.5364C77.7447 23.5362 77.7696 23.5412 77.7927 23.5511C77.8157 23.5609 77.8366 23.5754 77.8538 23.5937Z" fill="#BB2829"/>
<path d="M61.3793 27.9016L61.5761 27.9041C61.5793 27.9044 61.5822 27.9058 61.5845 27.908C61.5868 27.9102 61.5883 27.9131 61.5886 27.9163C61.589 27.9194 61.5883 27.9226 61.5866 27.9253C61.5849 27.928 61.5824 27.93 61.5794 27.9311C61.5124 27.9474 61.4449 27.9507 61.3768 27.9409C61.3716 27.9405 61.3668 27.9382 61.3633 27.9342C61.3599 27.9303 61.3581 27.9252 61.3584 27.92C61.3588 27.9148 61.3611 27.91 61.365 27.9065C61.3689 27.9031 61.3741 27.9013 61.3793 27.9016Z" fill="#85827F"/>
<path d="M75.5653 43.1423C72.8334 40.3254 70.1082 37.5023 67.3899 34.6729C67.329 34.6092 67.2652 34.5586 67.1988 34.521C67.1819 34.5118 67.167 34.5139 67.1539 34.5275L57.8579 44.2564C57.8742 44.2197 57.8906 44.1756 57.9184 44.1462C60.9966 40.9154 64.0686 37.6896 67.1343 34.4687C67.1433 34.4594 67.1541 34.452 67.166 34.4469C67.1779 34.4418 67.1907 34.4392 67.2037 34.4392C67.2167 34.4392 67.2295 34.4418 67.2414 34.4469C67.2534 34.452 67.2641 34.4594 67.2731 34.4687C69.1126 36.3828 70.9487 38.2949 72.7816 40.2051C73.4879 40.9413 74.2029 41.6694 74.9265 42.3892C75.1629 42.6245 75.3758 42.8755 75.5653 43.1423Z" fill="#211917"/>
<path d="M32.2025 41.5544C32.1959 41.5577 32.1894 41.5601 32.1829 41.5617C32.1605 41.5672 32.1415 41.5617 32.1257 41.5454L25.374 34.5495C25.3403 34.5147 25.3062 34.5144 25.2719 34.5487L23.5959 36.2566C23.5861 36.267 23.5795 36.279 23.5763 36.2926C23.5741 36.3046 23.5667 36.3171 23.5542 36.3302C21.0891 38.915 18.6254 41.5013 16.163 44.0889C16.0519 44.2049 16.0184 44.298 15.9645 44.4434L15.9629 44.2629C15.9629 44.2362 15.9731 44.2107 15.9915 44.1918L25.2254 34.4883C25.2363 34.4766 25.2495 34.4673 25.2641 34.461C25.2788 34.4546 25.2946 34.4512 25.3106 34.4512C25.3265 34.4511 25.3424 34.4543 25.3571 34.4605C25.3718 34.4668 25.385 34.4759 25.3961 34.4875L32.2025 41.5544Z" fill="#211917"/>
<path d="M51.8044 40.1529C51.7979 40.1714 51.7827 40.1793 51.7587 40.1766C51.7519 40.1761 51.7457 40.1731 51.7415 40.1684L46.3286 34.5562C46.3189 34.5462 46.3073 34.5382 46.2944 34.5328C46.2816 34.5274 46.2678 34.5246 46.2539 34.5247C46.24 34.5248 46.2262 34.5277 46.2135 34.5333C46.2008 34.5388 46.1894 34.5469 46.18 34.557L37.0188 44.1797C36.9658 44.2359 36.9363 44.3104 36.9363 44.388C36.9325 55.1512 36.9322 65.9229 36.9355 76.703C36.9355 76.7329 36.9439 76.7705 36.9608 76.8157C36.9902 76.8952 36.961 76.9328 36.8734 76.9284L36.8726 44.3897C36.8726 44.3031 36.9059 44.22 36.9657 44.1577L46.1743 34.4868C46.1845 34.476 46.1968 34.4674 46.2105 34.4615C46.2241 34.4556 46.2388 34.4525 46.2537 34.4524C46.2686 34.4523 46.2833 34.4553 46.2971 34.461C46.3108 34.4668 46.3232 34.4753 46.3335 34.486L51.8044 40.1529Z" fill="#211917"/>
<path d="M32.2023 41.5544L32.3232 41.6851C32.321 41.6938 32.3196 41.7025 32.3191 41.7112C32.318 41.7335 32.3251 41.7529 32.3403 41.7692L34.727 44.2449C34.7366 44.255 34.744 44.2668 34.7489 44.2797C34.7538 44.2926 34.7561 44.3064 34.7556 44.3201C34.7507 44.4486 34.7482 44.5763 34.7482 44.7031C34.7531 46.5448 34.7526 48.3866 34.7466 50.2288C34.7466 50.4305 34.7711 50.6658 34.7278 50.9092L31.4843 50.9116C31.4718 50.9116 31.4597 50.9065 31.4508 50.8975C31.4419 50.8885 31.437 50.8762 31.437 50.8634L31.441 46.875L31.4688 45.5796C31.4694 45.5518 31.4601 45.5281 31.441 45.5085C30.3955 44.4276 29.3514 43.3484 28.3086 42.2707C28.2983 42.2598 28.2885 42.2549 28.2792 42.256C28.2689 42.2566 28.2574 42.2615 28.2449 42.2707L26.9919 40.9451C26.8024 40.6701 26.5754 40.4335 26.3107 40.2353L25.6312 39.5247L25.3502 39.2028C25.3317 39.1816 25.3123 39.1805 25.2922 39.1996C24.8081 39.6488 24.3586 40.1294 23.9437 40.6412C23.813 40.8329 23.6589 40.9862 23.4813 41.1011L19.314 45.4971C19.26 45.5542 19.2299 45.6302 19.2299 45.7094V73.5206C19.2299 73.5531 19.2428 73.5842 19.2658 73.6072C19.2888 73.6302 19.3199 73.6431 19.3524 73.6431H31.3594C31.3919 73.6431 31.423 73.6302 31.446 73.6072C31.469 73.5842 31.4819 73.5531 31.4819 73.5206L31.4827 61.445C31.4827 61.4282 31.486 61.4115 31.4925 61.396C31.499 61.3804 31.5085 61.3663 31.5205 61.3544C31.5325 61.3425 31.5467 61.333 31.5624 61.3266C31.578 61.3201 31.5948 61.3168 31.6117 61.3168L34.6298 61.3176C34.6461 61.3176 34.6622 61.3208 34.6772 61.327C34.6922 61.3332 34.7059 61.3423 34.7173 61.3538C34.7288 61.3653 34.7378 61.3789 34.744 61.3938C34.7501 61.4088 34.7533 61.4248 34.7531 61.441L34.7474 76.7853C34.7474 76.8109 34.7395 76.8341 34.7237 76.8548L34.6674 76.9291L16.0093 76.9283C15.9799 76.9283 15.9652 76.9136 15.9652 76.8842L15.9644 44.4434C16.0183 44.298 16.0518 44.2049 16.1628 44.0889C18.6252 41.5013 21.0889 38.915 23.554 36.3302C23.5666 36.3171 23.5739 36.3046 23.5761 36.2926C23.5794 36.279 23.5859 36.267 23.5957 36.2566L25.2718 34.5487C25.3061 34.5144 25.3401 34.5147 25.3739 34.5495L32.1255 41.5454C32.1413 41.5617 32.1604 41.5672 32.1827 41.5617C32.1892 41.5601 32.1958 41.5577 32.2023 41.5544Z" fill="#211917"/>
<path d="M51.8046 40.1529C52.1052 40.4747 52.4172 40.848 52.7733 41.1069C52.8705 41.1771 52.9122 41.298 52.9865 41.3764C53.8899 42.3234 54.7995 43.2646 55.7154 44.2001C55.7323 44.217 55.7407 44.2374 55.7407 44.2614V76.8712C55.7407 76.8864 55.7347 76.9009 55.724 76.9116C55.7133 76.9223 55.6987 76.9284 55.6836 76.9284H36.8735C36.9612 76.9327 36.9903 76.8951 36.9609 76.8156C36.9441 76.7705 36.9356 76.7329 36.9356 76.7029C36.9323 65.9228 36.9326 55.1512 36.9364 44.388C36.9364 44.3103 36.966 44.2358 37.0189 44.1797L46.1801 34.557C46.1896 34.5468 46.201 34.5388 46.2137 34.5332C46.2264 34.5276 46.2401 34.5247 46.254 34.5247C46.2679 34.5246 46.2817 34.5273 46.2946 34.5328C46.3074 34.5382 46.3191 34.5461 46.3288 34.5562L51.7417 40.1684C51.7459 40.1731 51.752 40.176 51.7589 40.1766C51.7828 40.1793 51.7981 40.1714 51.8046 40.1529ZM46.105 39.3401C45.8137 39.5803 45.5689 39.8466 45.3707 40.139L40.2567 45.5478C40.2349 45.5707 40.224 45.5976 40.224 45.6287L40.2208 57.5515C40.2208 57.6734 40.282 57.7344 40.4045 57.7344L52.351 57.7369C52.3619 57.7369 52.3723 57.7325 52.3799 57.7247C52.3876 57.7169 52.3919 57.7063 52.3919 57.6952V45.5666C52.3919 45.5405 52.381 45.5203 52.3592 45.5062C52.2694 45.4484 52.189 45.3825 52.1182 45.3085C50.4405 43.5573 48.7639 41.8118 47.0884 40.072C46.9316 39.833 46.7317 39.6119 46.4889 39.4088C46.4448 39.3407 46.3843 39.2819 46.3075 39.2323C46.2847 39.2176 46.2604 39.2149 46.2349 39.2242C46.1782 39.2454 46.1349 39.2841 46.105 39.3401ZM52.3919 61.1135C52.3919 61.1074 52.3907 61.1014 52.3883 61.0957C52.386 61.0901 52.3826 61.0849 52.3782 61.0806C52.3739 61.0763 52.3688 61.0729 52.3631 61.0705C52.3575 61.0682 52.3514 61.067 52.3453 61.067H40.2681C40.2558 61.067 40.244 61.0719 40.2352 61.0806C40.2265 61.0893 40.2216 61.1012 40.2216 61.1135V73.5354C40.2216 73.5477 40.2265 73.5596 40.2352 73.5683C40.244 73.577 40.2558 73.5819 40.2681 73.5819H52.3453C52.3514 73.5819 52.3575 73.5807 52.3631 73.5784C52.3688 73.5761 52.3739 73.5726 52.3782 73.5683C52.3826 73.564 52.386 73.5588 52.3883 73.5532C52.3907 73.5476 52.3919 73.5415 52.3919 73.5354V61.1135Z" fill="#211917"/>
<path d="M75.5651 43.1423L76.622 44.1886C76.644 44.2103 76.6614 44.2362 76.6733 44.2646C76.6853 44.2931 76.6914 44.3236 76.6914 44.3544V61.0032C76.6914 61.0247 76.6829 61.0452 76.6677 61.0604C76.6526 61.0756 76.632 61.0841 76.6106 61.0841H61.2539C61.2452 61.0623 61.2229 61.0569 61.187 61.0677C61.1554 61.077 61.1396 61.0982 61.1396 61.1315L61.1355 76.9005C61.1355 76.9044 61.1371 76.9071 61.1404 76.9087C61.1469 76.9114 61.1507 76.9169 61.1518 76.925L57.8699 76.9242C57.8395 76.9242 57.8242 76.9093 57.8242 76.8793C57.822 66.0529 57.8223 55.2279 57.825 44.4043C57.825 44.3819 57.8294 44.3577 57.8381 44.3316C57.8468 44.3071 57.8533 44.282 57.8577 44.2564L67.1537 34.5275C67.1667 34.5139 67.1817 34.5117 67.1986 34.521C67.265 34.5586 67.3287 34.6092 67.3897 34.6729C70.108 37.5023 72.8331 40.3254 75.5651 43.1423ZM66.7951 39.626L66.2201 40.2345C65.962 40.4273 65.7412 40.6554 65.5576 40.919L61.2646 45.5086C61.2184 45.5579 61.1927 45.623 61.1927 45.6907L61.1935 57.6568C61.1935 57.6774 61.2017 57.6971 61.2162 57.7117C61.2308 57.7262 61.2505 57.7344 61.2711 57.7344L73.198 57.7368C73.2357 57.7368 73.2718 57.7219 73.2985 57.6952C73.3251 57.6686 73.3401 57.6324 73.3401 57.5947L73.3409 45.6098C73.3507 45.6387 73.3581 45.6335 73.363 45.5943C73.3657 45.5725 73.36 45.5532 73.3458 45.5363C73.0823 45.2227 72.7931 44.9384 72.4784 44.6836L68.7726 40.825L67.2566 39.2127C67.237 39.1915 67.2149 39.1885 67.1904 39.2037C67.0265 39.3055 66.8947 39.4463 66.7951 39.626Z" fill="#211917"/>
<path d="M79.8264 57.1585C79.5805 57.4101 79.1738 57.856 78.8184 58.1811C78.8164 58.183 78.8138 58.1842 78.811 58.1847C78.8082 58.1851 78.8054 58.1848 78.8028 58.1836C78.8002 58.1825 78.798 58.1807 78.7964 58.1784C78.7949 58.176 78.794 58.1733 78.7939 58.1705L78.7956 44.2808C78.7956 44.2662 78.8011 44.2519 78.8111 44.2408L86.2015 36.6185C86.2069 36.613 86.2138 36.6093 86.2214 36.6077C86.2289 36.6062 86.2368 36.6069 86.2439 36.6098C86.251 36.6126 86.2572 36.6176 86.2615 36.6239C86.2659 36.6302 86.2683 36.6377 86.2685 36.6454L86.2693 50.4885C86.2693 50.5103 86.2617 50.5288 86.2464 50.5441C84.1151 52.7592 81.9751 54.964 79.8264 57.1585Z" fill="#85827F"/>
<path d="M39.1795 38.1926L39.324 38.2C39.3763 38.2027 39.3777 38.2122 39.3281 38.2286C39.2753 38.2465 39.217 38.2427 39.1533 38.2171C39.1865 38.209 39.1952 38.2008 39.1795 38.1926Z" fill="#211917"/>
<path d="M25.6309 39.5246L25.3589 39.2723C25.3441 39.2585 25.3245 39.2512 25.3043 39.2518C25.2841 39.2524 25.265 39.2609 25.2511 39.2755L23.9434 40.6412C24.3583 40.1293 24.8078 39.6488 25.2919 39.1996C25.312 39.1805 25.3314 39.1816 25.3499 39.2028L25.6309 39.5246Z" fill="#211917"/>
<path d="M68.7729 40.825L67.2871 39.3008C67.2762 39.2897 67.2632 39.2808 67.2489 39.2748C67.2346 39.2687 67.2191 39.2655 67.2036 39.2654C67.188 39.2654 67.1726 39.2684 67.1582 39.2743C67.1438 39.2803 67.1307 39.289 67.1197 39.3L66.7954 39.6259C66.8951 39.4462 67.0268 39.3055 67.1907 39.2036C67.2152 39.1884 67.2373 39.1914 67.2569 39.2126L68.7729 40.825Z" fill="#211917"/>
<path d="M46.1049 39.3401C46.1016 39.3526 46.112 39.3594 46.1359 39.3605L45.3706 40.1389C45.5688 39.8465 45.8136 39.5802 46.1049 39.3401Z" fill="#211917"/>
<path d="M46.4502 39.4185C46.4807 39.4223 46.4935 39.419 46.4886 39.4087C46.7314 39.6118 46.9313 39.8329 47.0881 40.0719L46.4502 39.4185Z" fill="#211917"/>
<path d="M26.3105 40.2354C26.5752 40.4336 26.8023 40.6702 26.9918 40.9451L26.3105 40.2354Z" fill="#211917"/>
<path d="M66.22 40.2344L65.5576 40.9189C65.7411 40.6553 65.9619 40.4271 66.22 40.2344Z" fill="#211917"/>
<path d="M23.4814 41.1011C23.3921 41.2367 23.2012 41.4596 22.9088 41.77C21.7218 43.0312 20.535 44.2847 19.3484 45.5306C19.3248 45.5557 19.3117 45.589 19.3117 45.6237V73.541C19.3117 73.5518 19.316 73.5622 19.3236 73.5699C19.3313 73.5775 19.3417 73.5818 19.3525 73.5818H31.3594C31.3809 73.5818 31.4014 73.5732 31.4166 73.5579C31.4318 73.5426 31.4403 73.5218 31.4403 73.5002L31.4419 61.3609C31.4419 61.3457 31.4449 61.3307 31.4508 61.3167C31.4566 61.3026 31.4652 61.2899 31.4759 61.2792C31.4867 61.2685 31.4995 61.26 31.5136 61.2543C31.5277 61.2485 31.5427 61.2456 31.5579 61.2458L34.7279 61.2662C34.7553 61.2664 34.7814 61.2774 34.8007 61.2968C34.82 61.3163 34.8308 61.3425 34.8308 61.3699V76.8703C34.8308 76.8964 34.8183 76.913 34.7932 76.9201C34.7513 76.9332 34.7094 76.9362 34.6675 76.9291L34.7238 76.8548C34.7396 76.8341 34.7475 76.8109 34.7475 76.7853L34.7532 61.441C34.7533 61.4248 34.7502 61.4088 34.7441 61.3938C34.7379 61.3789 34.7288 61.3653 34.7174 61.3538C34.7059 61.3423 34.6923 61.3332 34.6773 61.327C34.6623 61.3208 34.6461 61.3176 34.6299 61.3176L31.6118 61.3168C31.5949 61.3168 31.5781 61.3201 31.5624 61.3266C31.5468 61.333 31.5325 61.3425 31.5206 61.3544C31.5086 61.3663 31.4991 61.3804 31.4926 61.396C31.4861 61.4115 31.4828 61.4282 31.4828 61.4451L31.4819 73.5206C31.4819 73.5531 31.469 73.5842 31.4461 73.6072C31.4231 73.6302 31.3919 73.6431 31.3594 73.6431H19.3525C19.32 73.6431 19.2888 73.6302 19.2659 73.6072C19.2429 73.5842 19.23 73.5531 19.23 73.5206V45.7094C19.23 45.6302 19.2601 45.5542 19.3141 45.4971L23.4814 41.1011Z" fill="#211917"/>
<path d="M20.9785 46.2151L25.2847 41.6868C25.3048 41.6656 25.3252 41.6653 25.3459 41.686L29.7681 46.2282C29.7932 46.2544 29.8073 46.2892 29.8073 46.3254V71.9181C29.8073 71.9263 29.804 71.9342 29.7982 71.9401C29.7924 71.9459 29.7845 71.9491 29.7762 71.9491L21.0487 71.9475C20.9665 71.9475 20.9254 71.9067 20.9254 71.825C20.9243 63.5013 20.924 55.2451 20.9246 47.0564C20.9246 46.8495 20.9347 46.587 20.9548 46.269C20.9559 46.2483 20.9638 46.2304 20.9785 46.2151Z" fill="#85827F"/>
<path d="M32.323 41.6851C33.05 42.4234 33.7557 43.1888 34.4933 43.9149C34.9539 44.3682 34.8102 44.5545 34.8159 45.1352C34.835 47.0187 34.8382 48.9028 34.8257 50.7875C34.8252 50.8223 34.817 50.8476 34.8012 50.8634C34.7838 50.8797 34.7593 50.895 34.7277 50.9092C34.771 50.6658 34.7465 50.4305 34.7465 50.2288C34.7525 48.3866 34.753 46.5447 34.7481 44.7031C34.7481 44.5763 34.7506 44.4486 34.7555 44.32C34.756 44.3063 34.7537 44.2926 34.7488 44.2797C34.7439 44.2668 34.7364 44.255 34.7269 44.2449L32.3402 41.7692C32.3249 41.7529 32.3179 41.7335 32.319 41.7112C32.3195 41.7025 32.3209 41.6938 32.323 41.6851Z" fill="#211917"/>
<path d="M67.2152 41.6881L71.6814 46.2598C71.6862 46.2648 71.6888 46.2716 71.6888 46.2785V56.0564C71.6888 56.0636 71.6859 56.0704 71.6809 56.0755C71.6758 56.0805 71.6689 56.0834 71.6618 56.0834L62.8526 56.0809C62.8455 56.0809 62.8386 56.0781 62.8336 56.073C62.8285 56.068 62.8257 56.0611 62.8257 56.054L62.8265 46.2892C62.8264 46.2822 62.8291 46.2755 62.8339 46.2704L67.1759 41.6881C67.1785 41.6855 67.1815 41.6833 67.1849 41.6819C67.1882 41.6804 67.1919 41.6797 67.1956 41.6797C67.1992 41.6797 67.2029 41.6804 67.2062 41.6819C67.2096 41.6833 67.2126 41.6855 67.2152 41.6881Z" fill="#85827F"/>
<path d="M46.2945 41.7178L50.6881 46.2192C50.7213 46.2535 50.7379 46.2943 50.7379 46.3417V56.0354C50.7379 56.0692 50.7224 56.0929 50.6914 56.1065C50.6603 56.1212 50.6274 56.1188 50.5925 56.0992C50.5691 56.0861 50.5438 56.0796 50.5166 56.0796L41.99 56.0877C41.9127 56.0877 41.874 56.0491 41.874 55.9717L41.8797 46.3303C41.8797 46.2987 41.8906 46.2714 41.9124 46.2486L46.2161 41.7186C46.2212 41.7133 46.2272 41.7091 46.2339 41.7062C46.2406 41.7033 46.2478 41.7017 46.2552 41.7017C46.2625 41.7016 46.2697 41.703 46.2765 41.7057C46.2832 41.7085 46.2894 41.7126 46.2945 41.7178Z" fill="#85827F"/>
<path d="M28.2451 42.2707C28.2576 42.2615 28.2691 42.2566 28.2794 42.256C28.2887 42.2549 28.2985 42.2598 28.3088 42.2707C29.3516 43.3483 30.3957 44.4276 31.4412 45.5085C31.4603 45.5281 31.4696 45.5518 31.469 45.5796L31.4412 46.875L31.4045 45.591C31.4034 45.5616 31.3928 45.5363 31.3726 45.515L28.2451 42.2707Z" fill="#211917"/>
<path d="M73.3411 45.6098L72.4785 44.6836C72.7933 44.9384 73.0824 45.2227 73.346 45.5363C73.3601 45.5532 73.3658 45.5725 73.3631 45.5943C73.3582 45.6335 73.3509 45.6387 73.3411 45.6098Z" fill="#211917"/>
<path d="M61.2542 61.084C61.246 61.0938 61.2365 61.1085 61.2256 61.1281C61.2174 61.1428 61.2133 61.1595 61.2133 61.178C61.2139 66.4098 61.2136 71.6414 61.2125 76.8727C61.2125 76.8923 61.2027 76.9038 61.1831 76.907C61.1657 76.9103 61.1553 76.9163 61.1521 76.925C61.151 76.9168 61.1472 76.9114 61.1406 76.9087C61.1374 76.907 61.1357 76.9043 61.1357 76.9005L61.1398 61.1314C61.1398 61.0982 61.1556 61.077 61.1872 61.0677C61.2231 61.0568 61.2455 61.0623 61.2542 61.084Z" fill="#211917"/>
<path d="M74.4536 62.7177C74.4577 62.7177 74.4618 62.7185 74.4656 62.7201C74.4694 62.7218 74.4728 62.7241 74.4756 62.7271C74.4784 62.7301 74.4806 62.7336 74.482 62.7375C74.4834 62.7413 74.4841 62.7454 74.4838 62.7495C74.4811 62.7904 74.4661 62.8252 74.4389 62.8541C70.5787 66.9332 66.7232 71.0115 62.8722 75.0889C62.8685 75.0929 62.8637 75.0956 62.8584 75.0967C62.8531 75.0979 62.8476 75.0974 62.8426 75.0954C62.8375 75.0934 62.8332 75.0899 62.8302 75.0854C62.8272 75.0809 62.8256 75.0755 62.8257 75.0701L62.8265 62.7593C62.8264 62.7437 62.8323 62.7287 62.8428 62.717C62.8534 62.7054 62.868 62.6981 62.8837 62.6965C62.9 62.6948 62.9144 62.6981 62.927 62.7063C62.9406 62.7144 62.9556 62.7185 62.9719 62.7185L74.4536 62.7177Z" fill="#85827F"/>
<path d="M50.5327 71.9074H41.9375C41.9269 71.9074 41.9167 71.9032 41.9092 71.8957C41.9017 71.8882 41.8975 71.878 41.8975 71.8674L41.895 62.801C41.895 62.7732 41.9086 62.7593 41.9359 62.7593H50.5335C50.5574 62.7593 50.5768 62.7498 50.5915 62.7307C50.6122 62.7051 50.6546 62.7215 50.7189 62.7797C50.739 62.7982 50.7513 62.8208 50.7556 62.8475C50.7665 62.9145 50.7614 62.9806 50.7401 63.046C50.7335 63.0675 50.7275 63.0875 50.7232 63.1024C50.719 63.1173 50.7169 63.126 50.7173 63.1269V71.6216C50.7173 71.6488 50.7235 71.6744 50.736 71.6983C50.784 71.7909 50.7663 71.8685 50.6829 71.9311C50.6633 71.9458 50.644 71.9518 50.625 71.9491C50.6081 71.9469 50.5936 71.9398 50.5817 71.9278C50.568 71.9142 50.5517 71.9074 50.5327 71.9074Z" fill="#85827F"/>
</svg>
