<svg width="100" height="100" viewBox="0 0 100 100" fill="none" xmlns="http://www.w3.org/2000/svg">
<rect width="100" height="100" fill="white"/>
<path fill-rule="evenodd" clip-rule="evenodd" d="M51.0768 32.3865C50.1823 33.4746 49.2009 34.4932 48.1328 35.4425C46.2132 37.1275 44.195 38.6952 42.0783 40.1457C40.1009 41.5262 38.0745 42.836 35.9993 44.075C35.9978 44.0759 35.9961 44.0766 35.9944 44.0771C35.9913 44.078 35.9881 44.0782 35.9849 44.0776C35.9823 44.0771 35.9799 44.0762 35.9777 44.0749C35.9757 44.0737 35.9738 44.0721 35.9722 44.0702C35.969 44.0663 35.9672 44.0614 35.9673 44.0564C35.9673 44.0514 35.9692 44.0465 35.9725 44.0427C38.7288 40.8651 38.3675 36.2661 36.8623 32.6436C36.8617 32.6421 36.8611 32.6404 36.8607 32.6388C36.8601 32.6367 36.8597 32.6345 36.8595 32.6323C36.8591 32.6292 36.8592 32.6261 36.8596 32.6229C36.8606 32.6159 36.8633 32.6093 36.8676 32.6037C36.872 32.5981 36.8777 32.5937 36.8842 32.5911C36.8908 32.5884 36.8979 32.5875 36.9049 32.5884C38.033 32.7499 39.0196 33.2074 39.8647 33.961C40.8235 34.8156 41.5484 35.7828 42.0396 36.8625C42.0489 36.8765 42.0575 36.8893 42.0655 36.901C42.0797 36.9218 42.0918 36.9389 42.1019 36.9524C42.1225 36.9803 42.1501 36.9853 42.1848 36.9674C44.1201 35.955 46.057 34.9458 47.9955 33.9397L51.0476 32.351C51.0498 32.3499 51.0521 32.3492 51.0545 32.3489C51.0573 32.3485 51.0602 32.3486 51.063 32.3492C51.0681 32.3503 51.0728 32.3532 51.0761 32.3573C51.0795 32.3614 51.0814 32.3665 51.0815 32.3717C51.0816 32.377 51.08 32.3822 51.0768 32.3865ZM42.048 40.1152C42.0487 40.1166 42.0496 40.1179 42.0506 40.1191C42.0504 40.1188 42.0502 40.1186 42.05 40.1183C42.0492 40.1173 42.0486 40.1163 42.048 40.1152Z" fill="url(#paint0_linear_44_2917)"/>
<path d="M36.2027 32.8146C37.5422 37.4168 36.762 42.4758 33.0473 45.7748C31.651 46.9492 30.0796 47.8364 28.333 48.4365C26.4897 49.0791 24.6259 49.4943 22.7416 49.6821C22.5833 49.6978 22.5822 49.6905 22.7384 49.66C24.8991 49.2332 26.88 47.3273 28.1926 45.6281C28.8342 44.7777 29.2999 44.0927 29.5897 43.5731C29.908 43.0021 30.2172 42.4384 30.5257 41.8757L30.5278 41.8718C31.2821 40.4963 32.0326 39.1276 32.9037 37.678C33.8903 35.9851 34.9653 34.3595 36.1286 32.8012C36.1332 32.7948 36.1395 32.7899 36.1468 32.787C36.1541 32.784 36.1621 32.7832 36.1699 32.7846C36.1776 32.786 36.1848 32.7896 36.1906 32.7949C36.1934 32.7974 36.1959 32.8004 36.1979 32.8036C36.2 32.807 36.2017 32.8107 36.2027 32.8146Z" fill="url(#paint1_linear_44_2917)"/>
<path fill-rule="evenodd" clip-rule="evenodd" d="M56.4795 35.9101C53.9589 38.2825 51.272 40.4466 48.4189 42.4025C47.0279 43.3417 45.6161 44.2168 44.1835 45.0278L43.1596 45.5926L41.3216 46.5511L41.0549 46.6726C41.0525 46.6735 41.0498 46.6736 41.0473 46.6728C41.0448 46.6721 41.0426 46.6705 41.0412 46.6684C41.0397 46.6663 41.0392 46.6638 41.0395 46.6614C41.0399 46.659 41.0411 46.6568 41.0431 46.6552C41.0478 46.6505 41.0536 46.645 41.0604 46.6386C41.0609 46.6383 41.0612 46.638 41.0615 46.6376C41.0621 46.637 41.0626 46.6362 41.063 46.6355C41.0632 46.6351 41.0634 46.6346 41.0636 46.6342C41.0638 46.6336 41.0639 46.633 41.064 46.6324C41.0643 46.63 41.0637 46.6275 41.0623 46.6255C41.0616 46.6244 41.0608 46.6236 41.0598 46.6228C41.0587 46.622 41.0575 46.6214 41.0562 46.621C41.0537 46.6203 41.051 46.6204 41.0486 46.6213L38.5819 47.6721C37.4832 48.1296 36.3722 48.5508 35.2489 48.9358C33.9993 49.3644 32.7337 49.7447 31.4521 50.0765L29.1407 50.6121C27.857 50.8846 26.5696 51.0931 25.2785 51.2377C24.4864 51.3624 23.6986 51.4076 22.915 51.3734C26.0226 50.7817 29.024 49.8903 31.9191 48.6992C36.754 46.7002 40.9011 43.8106 45.0521 40.5502L47.5196 38.6017C49.3761 37.1008 51.2097 35.5677 53.0204 34.0026C55.2108 32.1088 57.372 30.1793 59.504 28.214C59.5179 28.2013 59.5361 28.1818 59.5571 28.1594C59.6194 28.0928 59.7057 28.0006 59.773 27.9852C60.2111 27.8853 60.6497 27.7896 61.0889 27.6981L64.3358 27.0007C64.3366 27.0005 64.3374 27.0004 64.3382 27.0003L64.3396 27.0001C64.3403 27.0001 64.3411 27 64.3419 27C64.3443 27 64.3468 27.0002 64.3493 27.0008C64.3502 27.001 64.3511 27.0013 64.352 27.0016L64.3533 27.0021C64.3542 27.0024 64.3551 27.0028 64.356 27.0033C64.3576 27.0041 64.359 27.005 64.3604 27.0061C64.363 27.008 64.3652 27.0103 64.367 27.013C64.3704 27.0179 64.3723 27.0237 64.3723 27.0297C64.3724 27.0356 64.3707 27.0415 64.3674 27.0465L64.3525 27.0681L64.3521 27.0688C63.9574 27.6441 63.5697 28.2092 63.132 28.7496C61.0794 31.2877 58.8619 33.6745 56.4795 35.9101ZM44.3386 44.692C44.338 44.6901 44.3377 44.6881 44.3376 44.6861C44.3377 44.6879 44.338 44.6897 44.3384 44.6915C44.3385 44.6917 44.3385 44.6918 44.3386 44.692Z" fill="url(#paint2_linear_44_2917)"/>
<path fill-rule="evenodd" clip-rule="evenodd" d="M61.3381 38.6672C61.9466 38.2817 62.6053 37.8891 63.3142 37.4894C64.5874 36.77 64.0912 31.147 63.9642 29.8169C63.9636 29.8107 63.9613 29.8049 63.9574 29.7999C63.9536 29.795 63.9485 29.7913 63.9426 29.7891C63.9368 29.787 63.9305 29.7865 63.9244 29.7878C63.9221 29.7883 63.9198 29.7891 63.9176 29.79C63.9142 29.7916 63.911 29.7938 63.9082 29.7964C63.0036 30.6676 62.1213 31.559 61.239 32.4502C59.9739 33.7282 58.7089 35.006 57.3788 36.2241C55.8973 37.5683 54.3517 38.8357 52.7419 40.0264C50.0992 41.9665 47.3121 43.6673 44.3807 45.1288C43.3789 45.6394 42.3591 46.1135 41.3215 46.5511L41.0549 46.6726C41.0525 46.6735 41.0498 46.6736 41.0472 46.6728C41.0447 46.6721 41.0426 46.6705 41.0411 46.6684C41.0397 46.6663 41.0391 46.6638 41.0395 46.6614C41.0398 46.659 41.0411 46.6568 41.0431 46.6552L41.0474 46.6509C41.0512 46.6472 41.0555 46.6431 41.0604 46.6386C41.0616 46.6377 41.0625 46.6364 41.0632 46.6351C41.0636 46.6343 41.0638 46.6334 41.0639 46.6324C41.0643 46.63 41.0637 46.6275 41.0623 46.6255C41.0615 46.6244 41.0606 46.6234 41.0595 46.6227L41.0585 46.622C41.0577 46.6216 41.057 46.6213 41.0562 46.621C41.0537 46.6203 41.051 46.6204 41.0486 46.6213L38.5818 47.6721C37.4832 48.1296 36.3722 48.5508 35.2489 48.9358C33.9993 49.3644 32.7337 49.7447 31.452 50.0765L29.1407 50.6121C27.8569 50.8846 26.5695 51.0931 25.2784 51.2377C24.4864 51.3623 23.6986 51.4076 22.915 51.3734C22.8519 51.3513 22.7827 51.3568 22.7075 51.39C22.6854 51.3999 22.6831 51.4134 22.7004 51.4302C25.3045 53.8962 28.5443 55.2278 32.1604 55.0866C33.3758 55.0356 34.5801 54.8552 35.7734 54.5454C37.6089 54.0553 39.3812 53.3763 41.0904 52.5086C42.0723 52.0268 43.057 51.4933 44.0447 50.908C45.7654 49.8745 47.4662 48.7615 49.147 47.5687C51.5935 45.8017 54.0169 43.9994 56.4172 42.1619C57.9823 40.9822 59.6226 39.8174 61.3381 38.6672ZM41.0108 52.4631C41.0105 52.4649 41.0105 52.4667 41.0107 52.4684C41.0112 52.4722 41.013 52.4759 41.0162 52.4794C41.0132 52.4761 41.0114 52.4725 41.0108 52.4689C41.0105 52.467 41.0105 52.4651 41.0108 52.4631Z" fill="url(#paint3_linear_44_2917)"/>
<mask id="mask0_44_2917" style="mask-type:alpha" maskUnits="userSpaceOnUse" x="22" y="32" width="61" height="28">
<path fill-rule="evenodd" clip-rule="evenodd" d="M82.3094 32.5856C82.0438 34.2054 81.6833 35.8002 81.2279 37.3701C79.3331 44.2813 75.5852 51.486 69.4218 55.4784C68.0544 56.353 66.5998 57.0375 65.0578 57.5318C63.8356 57.9199 62.585 58.1855 61.306 58.3286C60.4188 58.4211 59.5342 58.4616 58.6522 58.4501C58.4561 58.4374 58.251 58.4347 58.0511 58.432C57.8524 58.4293 57.659 58.4267 57.4847 58.4146C56.3972 58.3383 55.3159 58.2031 54.2409 58.0091C54.1999 58.0017 54.1978 57.9886 54.2346 57.9696C54.3429 57.9132 54.4684 57.8976 54.5794 57.8837C54.6221 57.8784 54.6627 57.8733 54.6993 57.8663C56.2133 57.5739 57.6911 57.1616 59.1327 56.6294C60.6052 56.1045 61.9726 55.4029 63.2347 54.5247C64.9543 53.304 66.2433 51.6207 66.4499 49.4818C66.4485 49.4716 66.4496 49.4597 66.4533 49.446L66.4596 48.9348C66.4599 48.9251 66.4576 48.9156 66.453 48.9071C66.4483 48.8987 66.4416 48.8916 66.4333 48.8866C66.425 48.8816 66.4156 48.8789 66.4059 48.8788C66.3963 48.8787 66.3868 48.8811 66.3784 48.8859L62.434 51.0616C59.3391 52.6898 56.1702 54.1615 52.9275 55.4768C51.6138 56.008 50.2871 56.5034 48.9477 56.963C46.529 57.8134 44.0688 58.5013 41.5671 59.0267C36.6367 60.0294 30.7431 60.4798 26.2008 57.8229C24.5947 56.8747 23.2936 55.6091 22.2975 54.0261C22.2965 54.0245 22.2958 54.0228 22.2954 54.021C22.2949 54.0192 22.2948 54.0173 22.295 54.0154C22.2954 54.0117 22.2971 54.0082 22.2998 54.0055C22.3024 54.0028 22.3059 54.0011 22.3097 54.0007C22.3135 54.0003 22.3172 54.0012 22.3204 54.0032C27.2524 56.8936 33.239 57.3717 38.6073 55.5163C40.2418 54.9507 41.6744 54.191 43.1763 53.3509C44.7404 52.4358 46.2653 51.4918 47.7509 50.5188L52.1741 47.5093L61.0078 41.1574C62.7769 39.8921 64.5942 38.7043 66.4596 37.5941C66.4763 37.5843 66.4929 37.5745 66.5096 37.5648C66.5215 37.5579 66.5334 37.551 66.5452 37.5441C66.5733 37.528 66.6013 37.512 66.6294 37.4963C66.6735 37.4716 66.7176 37.4474 66.7617 37.4237C67.8793 36.78 68.8564 36.3154 69.6931 36.0298C73.4728 34.7397 77.6675 33.5814 82.2771 32.5549C82.2794 32.5543 82.2817 32.5541 82.284 32.5542C82.285 32.5543 82.286 32.5544 82.287 32.5545C82.2881 32.5547 82.2891 32.5549 82.2901 32.5552C82.2944 32.5563 82.2983 32.5585 82.3015 32.5616L82.3025 32.5626C82.303 32.5631 82.3034 32.5636 82.3038 32.5641C82.3043 32.5647 82.3048 32.5654 82.3052 32.566C82.3066 32.5681 82.3077 32.5703 82.3085 32.5726C82.3092 32.5748 82.3096 32.577 82.3098 32.5793C82.3099 32.5814 82.3098 32.5835 82.3094 32.5856ZM59.9089 47.7223L59.9089 47.7203C59.909 47.7157 59.9083 47.7111 59.907 47.7066C59.9085 47.7117 59.9092 47.7171 59.9089 47.7223ZM70.9783 41.9855L70.9805 41.9854L70.984 41.9852C70.9821 41.9853 70.9802 41.9854 70.9783 41.9855Z" fill="url(#paint4_angular_44_2917)"/>
</mask>
<g mask="url(#mask0_44_2917)">
<path fill-rule="evenodd" clip-rule="evenodd" d="M82.3094 32.5856C82.0438 34.2054 81.6833 35.8002 81.2279 37.3701C79.3331 44.2813 75.5852 51.486 69.4218 55.4784C68.0544 56.353 66.5998 57.0375 65.0578 57.5318C63.8356 57.9199 62.585 58.1855 61.306 58.3286C60.4188 58.4211 59.5342 58.4616 58.6522 58.4501C58.4561 58.4374 58.251 58.4347 58.0511 58.432C57.8524 58.4293 57.659 58.4267 57.4847 58.4146C56.3972 58.3383 55.3159 58.2031 54.2409 58.0091C54.1999 58.0017 54.1978 57.9886 54.2346 57.9696C54.3429 57.9132 54.4684 57.8976 54.5794 57.8837C54.6221 57.8784 54.6627 57.8733 54.6993 57.8663C56.2133 57.5739 57.6911 57.1616 59.1327 56.6294C60.6052 56.1045 61.9726 55.4029 63.2347 54.5247C64.9543 53.304 66.2433 51.6207 66.4499 49.4818C66.4485 49.4716 66.4496 49.4597 66.4533 49.446L66.4596 48.9348C66.4599 48.9251 66.4576 48.9156 66.453 48.9071C66.4483 48.8987 66.4416 48.8916 66.4333 48.8866C66.425 48.8816 66.4156 48.8789 66.4059 48.8788C66.3963 48.8787 66.3868 48.8811 66.3784 48.8859L62.434 51.0616C59.3391 52.6898 56.1702 54.1615 52.9275 55.4768C51.6138 56.008 50.2871 56.5034 48.9477 56.963C46.529 57.8134 44.0688 58.5013 41.5671 59.0267C36.6367 60.0294 30.7431 60.4798 26.2008 57.8229C24.5947 56.8747 23.2936 55.6091 22.2975 54.0261C22.2965 54.0245 22.2958 54.0228 22.2954 54.021C22.2949 54.0192 22.2948 54.0173 22.295 54.0154C22.2954 54.0117 22.2971 54.0082 22.2998 54.0055C22.3024 54.0028 22.3059 54.0011 22.3097 54.0007C22.3135 54.0003 22.3172 54.0012 22.3204 54.0032C27.2524 56.8936 33.239 57.3717 38.6073 55.5163C40.2418 54.9507 41.6744 54.191 43.1763 53.3509C44.7404 52.4358 46.2653 51.4918 47.7509 50.5188L52.1741 47.5093L61.0078 41.1574C62.7769 39.8921 64.5942 38.7043 66.4596 37.5941C66.4763 37.5843 66.4929 37.5745 66.5096 37.5648C66.5215 37.5579 66.5334 37.551 66.5452 37.5441C66.5733 37.528 66.6013 37.512 66.6294 37.4963C66.6735 37.4716 66.7176 37.4474 66.7617 37.4237C67.8793 36.78 68.8564 36.3154 69.6931 36.0298C73.4728 34.7397 77.6675 33.5814 82.2771 32.5549C82.2794 32.5543 82.2817 32.5541 82.284 32.5542C82.285 32.5543 82.286 32.5544 82.287 32.5545C82.2881 32.5547 82.2891 32.5549 82.2901 32.5552C82.2944 32.5563 82.2983 32.5585 82.3015 32.5616L82.3025 32.5626C82.303 32.5631 82.3034 32.5636 82.3038 32.5641C82.3043 32.5647 82.3048 32.5654 82.3052 32.566C82.3066 32.5681 82.3077 32.5703 82.3085 32.5726C82.3092 32.5748 82.3096 32.577 82.3098 32.5793C82.3099 32.5814 82.3098 32.5835 82.3094 32.5856ZM59.9089 47.7223L59.9089 47.7203C59.909 47.7157 59.9083 47.7111 59.907 47.7066C59.9085 47.7117 59.9092 47.7171 59.9089 47.7223ZM70.9783 41.9855L70.9805 41.9854L70.984 41.9852C70.9821 41.9853 70.9802 41.9854 70.9783 41.9855Z" fill="url(#paint5_linear_44_2917)"/>
<path d="M83.2372 35.3547C73.0215 35.7492 39.4159 61.0322 38.3115 61.4266C39.0346 61.8211 44.3937 62.7835 60.0447 63.4777C75.6957 64.1719 82.0276 45.0183 83.2372 35.3547Z" fill="url(#paint6_linear_44_2917)"/>
</g>
<path fill-rule="evenodd" clip-rule="evenodd" d="M87.3196 64.4519C85.6804 65.9634 83.7976 67.1154 81.6714 67.9079C79.1399 68.9232 76.3221 69.4667 73.58 69.7112C72.2888 69.8315 70.9888 69.902 69.68 69.9226C69.6792 69.9257 69.6782 69.9287 69.6769 69.9319L69.6754 69.9354C69.6617 69.9655 69.6361 69.9779 69.6216 69.9826C69.6192 69.9834 69.6168 69.9841 69.6144 69.9847C69.6089 69.9861 69.6035 69.9869 69.5986 69.9874C69.5967 69.9876 69.5948 69.9877 69.5931 69.9879L69.5903 69.988C69.5881 69.9881 69.586 69.9881 69.584 69.9881L69.5836 69.9881L67.9521 70L67.9515 69.9211C64.7364 69.9257 61.3834 69.6959 58.2101 69.4033C58.1887 69.4263 58.1612 69.4415 58.1321 69.4507C58.0894 69.4641 58.0391 69.466 57.9857 69.4617L57.9921 69.3831C57.8622 69.3689 57.7315 69.3555 57.6 69.3428C53.3166 68.9248 49.0386 68.4507 44.766 67.9204C44.7643 67.9217 44.7628 67.9229 44.7614 67.9239C44.7478 67.9336 44.7331 67.9395 44.7216 67.9433L44.6269 67.9749L44.602 67.9L39.0784 67.2792L38.9996 67.2834L38.9989 67.2701C35.241 66.8402 31.4742 66.5295 27.6986 66.3379C27.6912 66.3462 27.6824 66.3539 27.6718 66.3603C27.6452 66.3765 27.6165 66.3797 27.5916 66.3771C27.5221 66.3702 27.4634 66.3775 27.4135 66.3962L27.3858 66.3223C23.5559 66.1582 19.7102 66.2079 15.9087 66.7357C13.3693 67.0883 10.8978 67.7036 8.59357 68.7694L8.58451 68.8477C8.56502 68.8455 8.54101 68.8402 8.51934 68.8262C8.49469 68.8104 8.47564 68.7847 8.47119 68.7514L8.54938 68.7409L8.59963 68.7166L8.60246 68.6922C8.60314 68.6926 8.60389 68.693 8.60468 68.6935C8.60724 68.6952 8.61038 68.6976 8.61354 68.701C8.61421 68.7017 8.61489 68.7025 8.61556 68.7033C8.61662 68.7045 8.61768 68.7059 8.6187 68.7074C14.5756 65.832 21.2903 64.0517 27.8016 63.1724L27.8293 63.0985L27.9656 63.1498C31.5908 62.6549 35.2369 62.43 38.904 62.475L38.9154 62.397L39.1972 62.4381L39.2035 62.4401C39.2107 62.4425 39.2176 62.4458 39.2239 62.45C39.2312 62.4547 39.2377 62.4606 39.2432 62.4675C39.2461 62.4711 39.2487 62.475 39.251 62.4791L39.2839 62.4825C39.2921 62.4832 39.305 62.4849 39.3191 62.4896L44.89 62.6858L45.3455 62.624L45.3561 62.7022L58.2889 63.3648C58.3168 63.3398 58.3509 63.3348 58.3765 63.3357L58.8433 63.3499C58.8427 63.3499 58.8416 63.3499 58.8401 63.3499L58.8381 63.3501L58.836 63.3503L58.8342 63.3506C58.8229 63.3523 58.8035 63.3582 58.7883 63.3781C58.7873 63.3793 58.7864 63.3806 58.7856 63.3818C58.7847 63.3831 58.7839 63.3844 58.7831 63.3857C58.7822 63.3871 58.7815 63.3885 58.7807 63.39L58.8433 63.3932V63.3499L58.8457 63.3499L58.8444 63.3932L58.8449 63.3933L58.9214 63.3741L58.9271 63.3968C62.2055 63.5388 65.4835 63.5968 68.7609 63.5707L68.7652 63.492L69.0516 63.5658L69.0671 63.5655L68.7652 63.492L69.6236 63.5391C69.6319 63.5392 69.6402 63.5405 69.648 63.5429C69.6553 63.5451 69.6622 63.5483 69.6687 63.5524C71.0523 63.5175 72.4318 63.4513 73.8072 63.3538C76.4494 63.1887 79.0524 62.8155 81.6162 62.2344C83.7169 61.7098 85.8042 60.9872 87.673 59.8655C88.9799 59.0866 90.1091 58.0858 91.0604 56.8631C91.0635 56.8593 91.0677 56.8566 91.0724 56.8553C91.0771 56.854 91.0821 56.8542 91.0866 56.8559C91.0877 56.8563 91.0887 56.8568 91.0897 56.8574C91.0928 56.8591 91.0955 56.8616 91.0974 56.8646C91.0999 56.8686 91.1011 56.8733 91.1007 56.878C90.8837 59.7676 89.403 62.475 87.3196 64.4519ZM73.9384 63.5912C73.9443 63.5714 73.9503 63.5516 73.9562 63.5318L73.9595 63.521C73.9668 63.4969 73.9579 63.4832 73.9327 63.48L73.9043 63.4761C73.9015 63.4757 73.8989 63.4748 73.8965 63.4733L73.9384 63.5912ZM73.8962 63.4731C73.8951 63.4724 73.894 63.4716 73.8931 63.4706C73.8922 63.4697 73.8913 63.4686 73.8906 63.4675C73.8891 63.4652 73.8882 63.4626 73.8878 63.4598C73.8874 63.4571 73.8876 63.4543 73.8885 63.4516L73.8962 63.4731ZM69.6046 63.554L69.6058 63.5539C69.6086 63.5533 69.6113 63.5528 69.6141 63.5524L69.6064 63.5534L69.6046 63.554Z" fill="url(#paint7_linear_44_2917)"/>
<path d="M8.60246 68.6922L8.6026 68.691C8.60004 68.6907 8.59861 68.6904 8.59813 68.6902C8.59867 68.6904 8.60023 68.691 8.60246 68.6922Z" fill="url(#paint8_linear_44_2917)"/>
<path d="M8.54922 68.741C8.55132 68.7567 8.56605 68.7662 8.59339 68.7694L8.02462 69.0518C8.0099 69.0591 8.00175 69.0547 8.00017 69.0384C7.99859 69.0257 8.00806 69.0142 8.02857 69.0037C8.20107 68.9158 8.37462 68.8283 8.54922 68.741Z" fill="#646467"/>
<defs>
<linearGradient id="paint0_linear_44_2917" x1="38.3509" y1="38.2343" x2="50.0655" y2="36.8932" gradientUnits="userSpaceOnUse">
<stop stop-color="#323233"/>
<stop offset="0.384267" stop-color="#424243"/>
<stop offset="1" stop-color="#777777"/>
</linearGradient>
<linearGradient id="paint1_linear_44_2917" x1="33.1049" y1="32.791" x2="24.3485" y2="49.6726" gradientUnits="userSpaceOnUse">
<stop stop-color="#696768"/>
<stop offset="0.661458" stop-color="#3C393A"/>
<stop offset="1" stop-color="#2E2A2C"/>
</linearGradient>
<linearGradient id="paint2_linear_44_2917" x1="62.8054" y1="27.0323" x2="19.418" y2="51.4081" gradientUnits="userSpaceOnUse">
<stop offset="0.232534" stop-color="#22297B"/>
<stop offset="1" stop-color="#457CC1"/>
</linearGradient>
<linearGradient id="paint3_linear_44_2917" x1="28.8054" y1="51.4081" x2="69.629" y2="29.7933" gradientUnits="userSpaceOnUse">
<stop stop-color="#22297B"/>
<stop offset="1" stop-color="#5197D8"/>
</linearGradient>
<radialGradient id="paint4_angular_44_2917" cx="0" cy="0" r="1" gradientUnits="userSpaceOnUse" gradientTransform="translate(83.9865 32.5588) rotate(150.985) scale(56.1096 27.8685)">
<stop offset="0.0159809" stop-color="#22297B"/>
<stop offset="0.308753" stop-color="#316CA3"/>
<stop offset="0.533798" stop-color="#1C367B"/>
<stop offset="0.787467" stop-color="#22297B"/>
<stop offset="0.914518" stop-color="#2F7EC7"/>
</radialGradient>
<linearGradient id="paint5_linear_44_2917" x1="84.8937" y1="32.5542" x2="22.2581" y2="60.9532" gradientUnits="userSpaceOnUse">
<stop offset="0.232199" stop-color="#316CA3"/>
<stop offset="0.514863" stop-color="#263C86"/>
<stop offset="0.787467" stop-color="#22297B"/>
</linearGradient>
<linearGradient id="paint6_linear_44_2917" x1="58.8614" y1="45.4916" x2="70.7732" y2="53.3802" gradientUnits="userSpaceOnUse">
<stop stop-color="#0965B0"/>
<stop offset="1" stop-color="#141A51"/>
</linearGradient>
<linearGradient id="paint7_linear_44_2917" x1="97.7129" y1="56.8512" x2="73.2157" y2="105.86" gradientUnits="userSpaceOnUse">
<stop offset="0.232534" stop-color="#22297B"/>
<stop offset="0.840973" stop-color="#68A7F5"/>
</linearGradient>
<linearGradient id="paint8_linear_44_2917" x1="97.7129" y1="56.8512" x2="73.2157" y2="105.86" gradientUnits="userSpaceOnUse">
<stop offset="0.232534" stop-color="#22297B"/>
<stop offset="0.840973" stop-color="#68A7F5"/>
</linearGradient>
</defs>
</svg>
