<svg width="100" height="100" viewBox="0 0 100 100" fill="none" xmlns="http://www.w3.org/2000/svg">
<rect width="100" height="100" fill="#26552B"/>
<path fill-rule="evenodd" clip-rule="evenodd" d="M56.0616 24.0939L50.1776 11.1023C50.1145 10.9659 50.0524 10.9659 49.9914 11.1023L45.6849 20.3896L40.5675 30.9453C39.783 32.4613 38.9587 33.961 38.1341 35.4613C36.6372 38.1845 35.1391 40.91 33.8759 43.7387C30.5821 50.7601 28.8153 58.2126 30.8976 65.7061C31.3477 65.5928 31.7137 65.3788 31.9955 65.064C32.0649 64.9864 32.1512 64.935 32.2542 64.9098L34.0336 64.4629C32.9199 60.4377 33.4342 57.6965 34.5921 53.5422C34.8457 52.9985 35.0874 52.4504 35.3286 51.9035C35.8524 50.7158 36.3736 49.5339 37.0088 48.4154C38.6557 45.5116 40.1911 42.5459 41.615 39.5183L45.2495 32.2546L50.5909 43.5498C50.8504 44.0137 51.1086 44.4713 51.3641 44.9241C54.4627 50.4164 57.1552 55.1888 56.8346 61.4574L56.8283 62.5778C56.8262 62.6806 56.8093 62.7813 56.7778 62.8799L56.2004 64.677C56.9745 64.5217 57.6859 64.2673 58.3948 63.7155C61.0765 61.6278 61.241 60.9801 61.3083 60.894C61.5018 60.08 61.709 59.2554 61.9299 58.4203C62.6303 55.7767 62.482 53.1771 61.8289 50.502C61.2 47.3653 60.1452 44.3314 58.6645 41.4003C58.2018 40.3974 57.3068 38.7399 55.9796 36.4277C54.9448 34.6213 53.8121 32.1371 52.5817 28.9752L50.7108 23.6312L50.1271 21.9947C50.1022 21.9203 50.0957 21.8404 50.1082 21.7618C50.1713 21.3838 50.0851 21.087 50 20.7945C49.9492 20.6195 49.8987 20.446 49.881 20.2575C49.6412 17.8152 49.6612 15.4024 49.941 13.0189C49.9451 12.9881 49.9598 12.9596 49.9825 12.9383C50.0052 12.9169 50.0346 12.9041 50.0658 12.9019C50.0969 12.8996 50.1278 12.9082 50.1534 12.9261C50.1789 12.944 50.1975 12.9701 50.206 13C50.4334 13.8256 50.719 14.6814 51.0084 15.5484C51.5741 17.2431 52.154 18.9809 52.3419 20.6194C52.3545 20.7222 52.3892 20.8177 52.446 20.9058C52.629 21.1827 52.7257 21.4786 52.7363 21.7933C52.7384 21.9066 52.7909 21.9884 52.894 22.0388C53.1738 22.1752 53.3767 22.4122 53.5029 22.75C53.9993 24.074 54.7102 25.5196 55.6357 27.0869C57.8946 31.3545 60.6384 35.5434 63.867 39.6536C63.9364 39.7396 64.0395 39.7124 64.1762 39.5718C61.3136 34.4943 58.6087 29.335 56.0616 24.0939ZM51.5027 27.7163C51.4963 27.715 51.49 27.7142 51.4837 27.7136C51.4813 27.7135 51.4788 27.7133 51.4764 27.7132L51.476 27.7132C51.4849 27.7135 51.4938 27.7145 51.5027 27.7163Z" fill="url(#paint0_linear_44_2918)"/>
<path d="M41.1227 46.7789C41.1365 46.7668 41.1546 46.7607 41.1729 46.7619C41.1912 46.763 41.2084 46.7714 41.2205 46.7852L41.2521 46.8229C41.6507 47.2692 42.0422 47.7141 42.4041 48.1322C42.7661 48.5503 43.0914 48.9333 43.3615 49.2595C43.6316 49.5856 43.8413 49.8485 43.9784 50.0331C44.1156 50.2177 44.1776 50.3203 44.1609 50.3352L44.0379 50.4422C44.0233 50.4596 43.9299 50.3883 43.7629 50.2325C43.596 50.0768 43.3588 49.8395 43.0651 49.5345C42.7713 49.2295 42.4267 48.8627 42.0512 48.4551C41.6756 48.0476 41.2764 47.6073 40.8766 47.1597L40.8419 47.1219C40.8298 47.1081 40.8237 47.0901 40.8249 47.0718C40.826 47.0535 40.8344 47.0365 40.8482 47.0244L41.1227 46.7789Z" fill="#448A2C"/>
<path d="M42.2839 46.8324C42.2793 46.8245 42.2781 46.8151 42.2805 46.8062C42.2828 46.7974 42.2886 46.7898 42.2966 46.7852L42.3029 46.7821C42.3539 46.7529 42.421 46.753 42.5004 46.7824C42.5797 46.8119 42.6697 46.87 42.7652 46.9536C42.8607 47.0372 42.9599 47.1446 43.057 47.2696C43.1542 47.3946 43.2474 47.5348 43.3314 47.6822L43.3913 47.786C43.4754 47.9335 43.5485 48.0854 43.6066 48.2328C43.6646 48.3802 43.7064 48.5204 43.7296 48.6452C43.7527 48.77 43.7568 48.8771 43.7415 48.9603C43.7262 49.0434 43.6919 49.1011 43.6406 49.1299L43.6343 49.133C43.6263 49.1376 43.6169 49.1388 43.608 49.1365C43.5991 49.1341 43.5916 49.1283 43.5869 49.1204L42.2839 46.8324Z" fill="#448A2C"/>
<path d="M46.2939 47.4524C46.31 47.4606 46.3223 47.4746 46.3282 47.4917C46.3341 47.5087 46.3331 47.5274 46.3254 47.5437L46.2907 47.6129C46.032 48.1283 45.7658 48.6134 45.5506 48.962C45.3353 49.3107 45.1885 49.4944 45.1423 49.4729L45.0224 49.4163C44.9982 49.4078 44.9998 49.3483 45.0272 49.241C45.0546 49.1338 45.1073 48.9811 45.1821 48.7916C45.257 48.6022 45.3525 48.3799 45.4632 48.1376C45.5739 47.8953 45.6975 47.6378 45.8269 47.3801L45.8616 47.314C45.8657 47.3056 45.8713 47.2981 45.8783 47.292C45.8853 47.2858 45.8934 47.2811 45.9023 47.2782C45.9111 47.2753 45.9204 47.2741 45.9297 47.2749C45.939 47.2756 45.948 47.2782 45.9563 47.2825L46.2939 47.4524Z" fill="#448A2C"/>
<path d="M39.8482 47.528C41.6844 48.7019 43.4638 49.9797 44.2651 52.167C44.2746 52.1893 44.2752 52.2145 44.2666 52.2372C44.258 52.2599 44.241 52.2784 44.2191 52.2889C44.1972 52.2995 44.172 52.3012 44.1489 52.2937C44.1257 52.2862 44.1063 52.2702 44.0948 52.2488C43.1672 50.6563 41.8484 49.4363 40.1384 48.5886C39.8124 48.4271 39.5769 48.1973 39.4317 47.8994C39.404 47.8427 39.3956 47.7786 39.4078 47.7167C39.4199 47.6548 39.452 47.5986 39.4992 47.5566C39.5463 47.5146 39.6059 47.489 39.6689 47.4839C39.7319 47.4787 39.7948 47.4942 39.8482 47.528Z" fill="#448A2C"/>
<path d="M45.4611 50.6025C45.4295 49.6898 46.5906 48.4593 47.4298 48.176C47.4991 48.1519 47.575 48.1545 47.6424 48.1835C47.7099 48.2124 47.764 48.2655 47.7941 48.3323C47.8242 48.3991 47.8281 48.4747 47.8051 48.5443C47.782 48.6138 47.7337 48.6722 47.6696 48.7079C46.8366 49.1842 46.1667 49.8325 45.6598 50.6529C45.6479 50.6724 45.63 50.6876 45.6088 50.6963C45.5875 50.705 45.5641 50.7066 45.5418 50.7009C45.5196 50.6953 45.4997 50.6827 45.4852 50.665C45.4707 50.6473 45.4622 50.6254 45.4611 50.6025Z" fill="#448A2C"/>
<path d="M38.4918 48.4532C40.8864 49.5736 43.7416 52.1291 44.8774 54.1559C44.8894 54.1785 44.8928 54.2043 44.8871 54.2289C44.8813 54.2535 44.8668 54.2753 44.846 54.2904C44.8253 54.3054 44.7996 54.3128 44.7736 54.3113C44.7476 54.3097 44.7229 54.2993 44.7039 54.2818C42.7731 52.3054 40.6592 50.6101 38.3624 49.1959C38.0406 48.9987 37.968 48.7805 38.1447 48.5413C38.1839 48.4888 38.2399 48.4513 38.3031 48.4352C38.3664 48.4191 38.4331 48.4255 38.4918 48.4532Z" fill="#448A2C"/>
<path d="M49.2498 49.9071C47.8017 50.3666 46.2589 51.0716 45.7036 52.5854C45.651 52.7322 45.6069 52.7301 45.5711 52.5791C45.1547 50.8135 47.7796 49.3438 49.1268 49.2588C49.2068 49.2557 49.2853 49.2814 49.348 49.3312C49.4106 49.381 49.4533 49.4516 49.4682 49.5301C49.4831 49.6086 49.4693 49.6899 49.4292 49.759C49.3891 49.8282 49.3255 49.8808 49.2498 49.9071Z" fill="#448A2C"/>
<path d="M45.1771 56.1072C45.1949 56.1471 45.2244 56.1804 45.2616 56.2031C45.2989 56.2257 45.3423 56.2365 45.3861 56.2342C45.43 56.2318 45.4723 56.2163 45.5076 56.1898C45.5429 56.1632 45.5696 56.1268 45.5841 56.0852C46.4927 53.4668 50.1178 52.167 52.6418 52.3526C52.6936 52.3556 52.7428 52.3761 52.7813 52.4108C52.8198 52.4455 52.8452 52.4923 52.8533 52.5435C52.8614 52.5946 52.8517 52.6469 52.8259 52.6918C52.8 52.7367 52.7596 52.7714 52.7112 52.7901C49.897 53.9388 47.7989 54.2819 45.5179 56.5321C45.4295 56.616 45.3443 56.6129 45.2623 56.5227C42.7478 53.7531 40.2459 52.4943 37.2992 50.7287C37.0783 50.5965 36.9332 50.4769 36.8638 50.3699C36.8286 50.3144 36.8119 50.2491 36.8161 50.1836C36.8203 50.118 36.8451 50.0554 36.8871 50.0048C36.9291 49.9541 36.9861 49.9181 37.0499 49.9017C37.1137 49.8853 37.1811 49.8895 37.2424 49.9136C40.0061 51.0025 43.9025 53.3535 45.1771 56.1072Z" fill="#448A2C"/>
<path d="M51.1019 50.6971C51.2302 50.9845 51.0777 51.2017 50.6444 51.3486C48.7115 52.0053 46.9857 53.0711 45.4671 54.5461C45.4478 54.5642 45.4227 54.575 45.3962 54.5766C45.3697 54.5781 45.3435 54.5704 45.3221 54.5547C45.3007 54.539 45.2855 54.5163 45.2792 54.4906C45.2728 54.4649 45.2757 54.4377 45.2873 54.4139C46.3894 52.2172 48.1857 50.9027 50.676 50.4705C50.7618 50.4554 50.8502 50.4695 50.9274 50.5105C51.0045 50.5516 51.066 50.6172 51.1019 50.6971Z" fill="#448A2C"/>
<path d="M36.097 51.8174C39.2835 52.6294 43.5553 54.9394 45.2969 57.8317C45.6797 58.4653 45.6102 58.5199 45.0886 57.9953C43.0758 55.9685 40.698 54.4862 37.9552 53.5483C37.4473 53.3721 36.8289 52.922 36.2042 52.579C35.9455 52.4363 35.834 52.2328 35.8698 51.9684C35.8734 51.943 35.8824 51.9186 35.8961 51.8968C35.9098 51.8751 35.928 51.8564 35.9495 51.8422C35.9709 51.8279 35.9951 51.8183 36.0206 51.8141C36.046 51.8098 36.072 51.8109 36.097 51.8174Z" fill="#448A2C"/>
<path fill-rule="evenodd" clip-rule="evenodd" d="M51.3641 44.9241C51.1087 44.4713 50.8505 44.0136 50.5909 43.5498L45.2496 32.2545C45.2407 32.2343 45.2262 32.2171 45.2077 32.205C45.1892 32.193 45.1676 32.1865 45.1455 32.1865C45.1233 32.1865 45.1017 32.193 45.0832 32.205C45.0647 32.2171 45.0502 32.2343 45.0413 32.2545L41.615 39.5183C40.1911 42.5459 38.6557 45.5116 37.0088 48.4154C36.3736 49.5339 35.8524 50.7158 35.3286 51.9036C35.0874 52.4504 34.8457 52.9985 34.5921 53.5422C33.4342 57.6965 32.9199 60.4377 34.0336 64.4629C34.7383 66.496 35.894 68.2459 37.501 69.7125C37.5683 69.7754 37.6482 69.8069 37.7407 69.8069H37.9016C37.9668 69.8069 38.0268 69.8258 38.0815 69.8635C39.68 70.9776 41.4352 71.5861 43.3471 71.6889C43.7635 71.7113 44.2937 71.6644 44.8559 71.6145C45.3972 71.5665 45.9681 71.5159 46.4958 71.5221C47.7704 71.5378 50.165 70.7447 51.2598 70.1562C53.3505 69.0295 54.9974 67.2031 56.2005 64.677C56.5961 63.7364 56.7655 63.2511 56.8283 62.5778L56.8346 61.4574C57.1552 55.1888 54.4627 50.4164 51.3641 44.9241ZM56.2162 60.8279C56.3382 60.4503 56.1037 60.274 55.5127 60.2992C52.8909 60.2111 47.6253 61.0262 46.5305 63.8807C46.4821 64.0108 46.4169 64.0192 46.3349 63.9059C43.9971 60.6674 39.2867 59.0624 35.384 58.4896C35.337 58.4815 35.2886 58.4902 35.2475 58.5143C35.2063 58.5383 35.1751 58.5761 35.1592 58.621C35.1433 58.6659 35.1439 58.7149 35.1608 58.7594C35.1777 58.8039 35.2098 58.841 35.2515 58.8641C36.3541 59.5108 37.6015 59.8591 38.7618 60.1831C39.4706 60.3811 40.1469 60.5699 40.738 60.8122C42.7151 61.6221 44.5134 62.7152 46.133 64.0916C46.1921 64.1425 46.2677 64.1707 46.3462 64.1713C46.4247 64.1719 46.5012 64.1448 46.562 64.0947C47.9145 62.9764 49.4478 62.1917 51.162 61.7406C51.7327 61.5909 52.4333 61.4995 53.1802 61.4021C54.1758 61.2724 55.2537 61.1318 56.2162 60.8279ZM55.478 58.9113C55.7157 58.8378 55.8524 58.7308 55.8881 58.5903C55.9007 58.5429 55.8967 58.4925 55.8766 58.4474C55.8566 58.4022 55.8217 58.365 55.7777 58.3416C55.5442 58.2199 55.275 58.1874 54.97 58.2441C52.2094 58.2913 47.4612 59.0781 46.2465 61.92C46.2346 61.9473 46.2154 61.9707 46.1909 61.9877C46.1664 62.0047 46.1376 62.0145 46.1079 62.0162C46.0781 62.0178 46.0484 62.0112 46.0222 61.997C45.996 61.9827 45.9743 61.9616 45.9594 61.9358C44.1043 58.6753 38.9333 56.8216 35.4786 56.2865C35.4256 56.2777 35.3712 56.2884 35.3255 56.3167C35.2799 56.3451 35.2462 56.389 35.2307 56.4404C35.2152 56.4917 35.219 56.5469 35.2414 56.5957C35.2638 56.6444 35.3033 56.6833 35.3524 56.7051C36.6712 57.3094 37.9658 57.8077 39.2362 58.2C41.8548 59.012 44.1096 60.3684 46.0005 62.2694C46.0245 62.2935 46.0534 62.3122 46.0853 62.3243C46.1172 62.3364 46.1513 62.3416 46.1853 62.3395C46.2193 62.3375 46.2525 62.3282 46.2827 62.3123C46.3128 62.2963 46.3392 62.2742 46.3601 62.2473C48.0176 60.0677 50.8509 59.6426 53.4587 59.2513C54.1569 59.1466 54.839 59.0442 55.478 58.9113ZM55.0047 56.9443C55.1709 56.7575 55.2477 56.6086 55.2351 56.4974C55.2266 56.3925 55.1204 56.3316 54.9164 56.3148C51.8182 56.0284 47.641 56.8813 46.133 59.9373C46.111 59.9811 46.0778 60.0184 46.0367 60.0453C45.9956 60.0722 45.9481 60.0877 45.899 60.0903C45.8499 60.0929 45.801 60.0824 45.7573 60.0599C45.7136 60.0374 45.6766 60.0038 45.6502 59.9624C43.5459 56.6453 39.1952 54.5461 35.4092 53.9922C35.7457 54.6678 36.3115 55.1158 37.1066 55.3361C40.3499 56.2383 43.1862 57.8486 45.6156 60.167C45.665 60.2142 45.7232 60.2512 45.7868 60.2761C45.8503 60.301 45.918 60.3132 45.986 60.312C46.054 60.3108 46.1209 60.2963 46.1829 60.2693C46.245 60.2423 46.3009 60.2032 46.3475 60.1544C47.6242 58.8284 49.1933 57.965 51.0547 57.5643C51.4279 57.4844 51.8953 57.4388 52.4042 57.3892C53.2376 57.308 54.182 57.2159 55.0047 56.9443ZM40.8484 47.0243L41.1229 46.7788C41.1367 46.7668 41.1547 46.7606 41.1731 46.7618C41.1914 46.763 41.2085 46.7714 41.2207 46.7851L41.2522 46.8229C41.6509 47.2692 42.0423 47.7141 42.4043 48.1322C42.7662 48.5502 43.0915 48.9333 43.3617 49.2594C43.6318 49.5856 43.8414 49.8485 43.9786 50.0331C44.1158 50.2176 44.1778 50.3203 44.1611 50.3352L44.0381 50.4422C44.0235 50.4595 43.9301 50.3883 43.7631 50.2325C43.5961 50.0767 43.359 49.8395 43.0652 49.5345C42.7715 49.2295 42.4269 48.8626 42.0513 48.4551C41.6758 48.0475 41.2766 47.6073 40.8768 47.1597L40.8421 47.1219C40.83 47.1081 40.8238 47.0901 40.825 47.0718C40.8262 47.0535 40.8346 47.0364 40.8484 47.0243ZM43.5869 49.1204L42.2839 46.8323C42.2793 46.8244 42.2781 46.815 42.2804 46.8061C42.2828 46.7973 42.2886 46.7897 42.2965 46.7851L42.3028 46.782C42.3539 46.7528 42.421 46.7529 42.5003 46.7824C42.5797 46.8118 42.6697 46.87 42.7652 46.9536C42.8607 47.0372 42.9599 47.1445 43.057 47.2695C43.1541 47.3945 43.2474 47.5347 43.3313 47.6821L43.3913 47.7859C43.4754 47.9335 43.5485 48.0853 43.6065 48.2327C43.6646 48.3802 43.7064 48.5203 43.7295 48.6452C43.7527 48.77 43.7567 48.877 43.7415 48.9602C43.7262 49.0434 43.6919 49.101 43.6405 49.1298L43.6342 49.1329C43.6263 49.1375 43.6168 49.1388 43.608 49.1364C43.5991 49.134 43.5915 49.1283 43.5869 49.1204ZM45.9563 47.2824L46.2939 47.4523C46.31 47.4605 46.3223 47.4745 46.3282 47.4916C46.3341 47.5086 46.3331 47.5273 46.3254 47.5436L46.2907 47.6128C46.032 48.1282 45.7658 48.6133 45.5506 48.9619C45.3353 49.3106 45.1885 49.4943 45.1423 49.4728L45.0224 49.4162C44.9982 49.4077 44.9998 49.3482 45.0272 49.2409C45.0546 49.1337 45.1073 48.981 45.1821 48.7916C45.257 48.6021 45.3525 48.3798 45.4632 48.1375C45.5739 47.8952 45.6975 47.6377 45.8269 47.38L45.8616 47.3139C45.8657 47.3055 45.8713 47.298 45.8783 47.2919C45.8853 47.2857 45.8934 47.2811 45.9023 47.2781C45.9111 47.2752 45.9204 47.274 45.9297 47.2748C45.939 47.2755 45.948 47.2781 45.9563 47.2824ZM39.8483 47.5279C41.6844 48.7018 43.4639 49.9795 44.2652 52.1668C44.2747 52.1892 44.2752 52.2143 44.2667 52.237C44.2581 52.2597 44.2411 52.2783 44.2192 52.2888C44.1972 52.2993 44.1721 52.301 44.1489 52.2936C44.1258 52.2861 44.1064 52.27 44.0948 52.2487C43.1673 50.6562 41.8485 49.4361 40.1385 48.5885C39.8125 48.4269 39.5769 48.1972 39.4318 47.8992C39.4041 47.8426 39.3957 47.7784 39.4079 47.7166C39.42 47.6547 39.4521 47.5985 39.4992 47.5564C39.5464 47.5144 39.6059 47.4889 39.6689 47.4837C39.7319 47.4786 39.7949 47.4941 39.8483 47.5279ZM45.4609 50.6027C45.4294 49.69 46.5904 48.4594 47.4297 48.1762C47.499 48.152 47.5748 48.1547 47.6423 48.1836C47.7097 48.2126 47.7639 48.2657 47.794 48.3325C47.8241 48.3993 47.828 48.4749 47.805 48.5444C47.7819 48.614 47.7335 48.6724 47.6694 48.7081C46.8365 49.1843 46.1666 49.8327 45.6597 50.653C45.6478 50.6726 45.6299 50.6878 45.6086 50.6965C45.5874 50.7051 45.5639 50.7067 45.5417 50.7011C45.5194 50.6955 45.4996 50.6829 45.4851 50.6652C45.4705 50.6474 45.4621 50.6255 45.4609 50.6027ZM38.4916 48.4531C40.8862 49.5735 43.7415 52.1291 44.8773 54.1559C44.8893 54.1784 44.8927 54.2043 44.887 54.2289C44.8812 54.2535 44.8667 54.2752 44.8459 54.2903C44.8251 54.3054 44.7994 54.3128 44.7734 54.3112C44.7474 54.3097 44.7227 54.2992 44.7038 54.2817C42.7729 52.3053 40.6591 50.61 38.3623 49.1959C38.0405 48.9987 37.9679 48.7805 38.1446 48.5413C38.1837 48.4887 38.2397 48.4512 38.303 48.4351C38.3663 48.4191 38.4329 48.4254 38.4916 48.4531ZM49.2501 49.9072C47.8019 50.3666 46.2592 51.0716 45.7039 52.5854C45.6513 52.7323 45.6071 52.7302 45.5714 52.5791C45.1549 50.8135 47.7799 49.3438 49.127 49.2588C49.2071 49.2558 49.2856 49.2815 49.3482 49.3313C49.4109 49.381 49.4535 49.4516 49.4684 49.5301C49.4833 49.6086 49.4695 49.6899 49.4294 49.7591C49.3893 49.8283 49.3257 49.8808 49.2501 49.9072ZM37.2422 49.9134C40.006 51.0024 43.9024 53.3533 45.177 56.1071C45.1948 56.1469 45.2243 56.1803 45.2615 56.203C45.2988 56.2256 45.3422 56.2364 45.386 56.234C45.4299 56.2317 45.4722 56.2162 45.5075 56.1896C45.5428 56.1631 45.5694 56.1267 45.584 56.0851C46.4926 53.4666 50.1177 52.1668 52.6417 52.3525C52.6935 52.3554 52.7427 52.376 52.7812 52.4107C52.8197 52.4454 52.8451 52.4922 52.8532 52.5433C52.8613 52.5945 52.8516 52.6468 52.8258 52.6917C52.7999 52.7366 52.7594 52.7712 52.7111 52.79C52.0681 53.0524 51.4626 53.2728 50.8836 53.4835C48.9286 54.195 47.2776 54.7959 45.5177 56.532C45.4294 56.6159 45.3442 56.6128 45.2622 56.5225C43.1005 54.1416 40.9481 52.8772 38.5145 51.4474C38.1172 51.2141 37.7125 50.9763 37.299 50.7286C37.0782 50.5964 36.9331 50.4768 36.8636 50.3698C36.8284 50.3142 36.8118 50.249 36.8159 50.1834C36.8201 50.1179 36.845 50.0553 36.887 50.0046C36.929 49.954 36.986 49.9179 37.0498 49.9016C37.1136 49.8852 37.181 49.8893 37.2422 49.9134ZM50.9275 50.5105C51.0047 50.5516 51.0661 50.6172 51.102 50.6971C51.2303 50.9845 51.0779 51.2017 50.6446 51.3486C48.7116 52.0053 46.9859 53.0711 45.4673 54.5461C45.4479 54.5642 45.4228 54.575 45.3963 54.5766C45.3698 54.5781 45.3436 54.5704 45.3222 54.5547C45.3008 54.539 45.2857 54.5163 45.2793 54.4906C45.2729 54.4649 45.2758 54.4377 45.2874 54.4139C46.3896 52.2172 48.1858 50.9027 50.6761 50.4705C50.7619 50.4554 50.8504 50.4695 50.9275 50.5105ZM36.097 51.8175C39.2835 52.6295 43.5553 54.9395 45.2969 57.8318C45.6797 58.4654 45.6103 58.52 45.0887 57.9954C43.0758 55.9686 40.698 54.4863 37.9553 53.5485C37.6249 53.4338 37.2477 53.2033 36.8525 52.9618C36.6402 52.832 36.4226 52.699 36.2043 52.5791C35.9456 52.4364 35.8341 52.2329 35.8698 51.9686C35.8734 51.9431 35.8824 51.9187 35.8961 51.8969C35.9099 51.8752 35.9281 51.8566 35.9495 51.8423C35.971 51.828 35.9952 51.8185 36.0206 51.8142C36.046 51.8099 36.072 51.811 36.097 51.8175ZM45.7323 58.2472C47.3287 55.0308 50.6225 54.3132 53.8879 54.3573C53.9638 54.3591 54.0369 54.3876 54.0942 54.4378C54.1514 54.488 54.1891 54.5566 54.2004 54.6314C54.2118 54.7062 54.1961 54.7824 54.1562 54.8463C54.1163 54.9102 54.0548 54.9577 53.9825 54.9804C53.2758 55.2065 52.4943 55.3491 51.7435 55.4862C50.9994 55.6221 50.2854 55.7524 49.7044 55.9529C48.2573 56.4523 46.9901 57.2569 45.9026 58.3668C45.8845 58.384 45.8606 58.3945 45.8354 58.3965C45.8102 58.3984 45.7851 58.3916 45.7647 58.3772C45.7443 58.3629 45.7299 58.342 45.7239 58.3182C45.718 58.2944 45.721 58.2693 45.7323 58.2472ZM36.422 61.0073C40.189 61.5298 44.1327 62.8799 46.54 65.8886C46.5622 65.9166 46.5912 65.9384 46.6244 65.952C46.6575 65.9655 46.6936 65.9703 46.7291 65.9658C46.7646 65.9614 46.7984 65.9479 46.8271 65.9267C46.8559 65.9054 46.8787 65.8772 46.8933 65.8446C48.2752 62.8453 53.3011 62.1938 56.1626 62.4582C56.1911 62.4612 56.2179 62.4731 56.2392 62.4922C56.2605 62.5113 56.2752 62.5367 56.2811 62.5646C56.2871 62.5926 56.284 62.6217 56.2724 62.6478C56.2607 62.6739 56.2411 62.6957 56.2163 62.71C55.1215 63.3205 54.3927 63.481 53.0013 63.5031C50.572 63.5387 48.5886 64.4105 47.0511 66.1184C46.8218 66.3722 46.5862 66.3796 46.3444 66.1404C44.6259 64.4451 42.6215 63.3174 40.331 62.7572C40.0504 62.6878 39.7128 62.6283 39.349 62.5642C38.2605 62.3723 36.9373 62.1391 36.2043 61.4763C35.7689 61.0818 35.8414 60.9255 36.422 61.0073ZM38.322 63.7826C41.3674 64.3395 44.5784 64.9267 46.764 67.5598C46.8334 67.6458 46.8975 67.6416 46.9564 67.5472C48.456 65.0705 51.7448 64.8468 54.4474 64.663C54.6845 64.6468 54.9171 64.631 55.1436 64.614C55.316 64.6014 55.3581 64.6686 55.2698 64.8154C54.8313 65.5368 53.5778 65.6705 52.2197 65.8154C50.1768 66.0332 47.8973 66.2763 47.7988 68.5826C47.7946 68.6728 47.7473 68.719 47.6568 68.7211L46.2939 68.762C46.1929 68.7662 46.1319 68.719 46.1109 68.6204C45.6124 66.1498 41.4889 65.0892 39.4697 64.8973C38.5547 64.8091 38.0468 64.4189 37.4599 63.8241C37.4426 63.808 37.431 63.7866 37.4271 63.7633C37.4232 63.74 37.4271 63.716 37.4383 63.6952C37.4495 63.6743 37.4673 63.6578 37.4889 63.6481C37.5105 63.6383 37.5347 63.6361 37.5578 63.6415C37.8108 63.6891 38.0658 63.7358 38.322 63.7826Z" fill="url(#paint1_linear_44_2918)"/>
<path d="M55.0047 56.9443C53.6796 57.3817 52.039 57.3534 51.0547 57.5643C49.1933 57.965 47.6242 58.8284 46.3475 60.1544C46.3008 60.2032 46.2449 60.2422 46.1829 60.2692C46.1209 60.2963 46.0539 60.3108 45.986 60.312C45.918 60.3131 45.8503 60.3009 45.7867 60.2761C45.7231 60.2512 45.665 60.2141 45.6155 60.167C43.1862 57.8485 40.3499 56.2382 37.1066 55.336C36.3115 55.1157 35.7457 54.6678 35.4092 53.9922C39.1951 54.5461 43.5459 56.6453 45.6502 59.9624C45.6766 60.0038 45.7136 60.0374 45.7572 60.0599C45.8009 60.0824 45.8498 60.0928 45.8989 60.0903C45.948 60.0877 45.9956 60.0722 46.0367 60.0453C46.0778 60.0184 46.111 59.9811 46.1329 59.9372C47.641 56.8813 51.8182 56.0284 54.9164 56.3148C55.1204 56.3316 55.2266 56.3924 55.235 56.4974C55.2476 56.6086 55.1709 56.7575 55.0047 56.9443Z" fill="#448A2C"/>
<path d="M45.732 58.2473C47.3285 55.0308 50.6222 54.3133 53.8876 54.3573C53.9636 54.3591 54.0367 54.3877 54.0939 54.4379C54.1512 54.4881 54.1888 54.5567 54.2002 54.6315C54.2116 54.7063 54.1959 54.7824 54.156 54.8463C54.1161 54.9103 54.0545 54.9578 53.9823 54.9805C52.5752 55.4305 50.8715 55.5501 49.7042 55.953C48.2571 56.4523 46.9898 57.257 45.9024 58.3669C45.8842 58.3841 45.8604 58.3946 45.8352 58.3965C45.8099 58.3984 45.7849 58.3916 45.7645 58.3773C45.7441 58.363 45.7296 58.3421 45.7237 58.3183C45.7178 58.2945 45.7207 58.2693 45.732 58.2473Z" fill="#448A2C"/>
<path d="M54.9699 58.2443C55.2749 58.1876 55.5441 58.2201 55.7776 58.3418C55.8216 58.3652 55.8565 58.4024 55.8765 58.4476C55.8966 58.4927 55.9006 58.5431 55.888 58.5905C55.8523 58.731 55.7155 58.838 55.4779 58.9115C52.4522 59.5409 48.4612 59.4843 46.36 62.2475C46.3391 62.2744 46.3127 62.2965 46.2826 62.3124C46.2524 62.3283 46.2192 62.3376 46.1852 62.3397C46.1511 62.3418 46.117 62.3366 46.0852 62.3245C46.0533 62.3124 46.0244 62.2937 46.0003 62.2695C44.1095 60.3686 41.8547 59.0122 39.2361 58.2002C37.9657 57.8079 36.6711 57.3096 35.3523 56.7053C35.3032 56.6835 35.2637 56.6446 35.2413 56.5959C35.2189 56.5471 35.2151 56.4919 35.2305 56.4405C35.246 56.3892 35.2798 56.3452 35.3254 56.3169C35.371 56.2886 35.4255 56.2779 35.4785 56.2867C38.9332 56.8217 44.1042 58.6754 45.9593 61.9359C45.9742 61.9617 45.9959 61.9829 46.0221 61.9971C46.0483 62.0113 46.078 62.018 46.1077 62.0164C46.1375 62.0147 46.1663 62.0049 46.1907 61.9879C46.2152 61.9709 46.2345 61.9475 46.2464 61.9202C47.4611 59.0783 52.2093 58.2915 54.9699 58.2443Z" fill="#448A2C"/>
<path d="M55.5125 60.2992C56.1035 60.274 56.338 60.4502 56.216 60.8279C54.5313 61.3598 52.4932 61.3912 51.1618 61.7406C49.4476 62.1917 47.9143 62.9764 46.5618 64.0947C46.5009 64.1447 46.4245 64.1718 46.346 64.1713C46.2675 64.1707 46.1919 64.1424 46.1328 64.0915C44.5132 62.7151 42.7149 61.622 40.7378 60.8121C39.1792 60.1733 37.0275 59.9058 35.2513 58.864C35.2096 58.8409 35.1774 58.8038 35.1605 58.7593C35.1437 58.7148 35.1431 58.6658 35.159 58.621C35.1748 58.5761 35.2061 58.5383 35.2473 58.5142C35.2884 58.4902 35.3368 58.4814 35.3838 58.4895C39.2865 59.0623 43.9968 60.6674 46.3347 63.9058C46.4167 64.0191 46.4819 64.0107 46.5303 63.8807C47.6251 61.0262 52.8907 60.211 55.5125 60.2992Z" fill="#448A2C"/>
<path d="M55.6356 27.087C57.8946 31.3546 60.9475 35.4617 64.1761 39.5719C66.3194 43.2709 67.96 47.1566 69.0979 51.2291C70.16 55.2995 70.2841 59.3268 69.4702 63.3112C68.9822 66.2317 67.9463 68.8355 66.3625 71.1225C65.1778 72.8331 64.5468 73.4719 63.5073 74.383L62.1632 75.5128C62.1632 75.5128 60.8624 76.2505 60.7971 76.287C60.0021 76.7276 57.273 77.7127 57.273 77.7127C54.9194 78.5813 52.9044 79.0104 51.2281 78.9999C42.0976 78.9433 33.4435 75.4404 30.8975 65.7062C31.2632 65.3125 31.6148 65.0851 31.8617 64.959C32.0845 64.8452 32.3313 64.7932 32.577 64.7456L34.0335 64.463C34.7381 66.4961 35.8939 68.2459 37.5008 69.7125C37.5681 69.7755 37.6481 69.8069 37.7406 69.8069H37.9015C37.9667 69.8069 38.0266 69.8258 38.0813 69.8636C39.6799 70.9777 41.4351 71.5862 43.347 71.689C43.7633 71.7114 44.2935 71.6644 44.8558 71.6146C45.397 71.5666 45.968 71.516 46.4956 71.5222C47.7703 71.5379 50.1649 70.7448 51.2597 70.1563C53.3503 69.0296 54.9972 67.2032 56.2003 64.677C56.2228 64.6725 56.2465 64.6672 56.2713 64.661C57.5244 64.35 58.5999 63.6293 59.5601 62.7493C60.7959 61.6165 61.5011 60.0412 61.9298 58.4204C62.6302 55.7768 62.4819 53.1772 61.8288 50.5021C61.1999 47.3654 60.1451 44.3315 58.6644 41.4004C58.2016 40.3975 57.3067 38.74 55.9795 36.4278C55.7038 35.9467 55.3924 35.4507 55.0605 34.9221C54.1464 33.4664 53.0772 31.7638 52.1746 29.4442C50.1862 24.4333 49.1338 19.1519 49.8413 13.8091C49.8782 13.5304 49.9119 13.2658 49.9409 13.019C49.945 12.9882 49.9597 12.9597 49.9824 12.9383C50.0051 12.917 50.0345 12.9042 50.0657 12.902C50.0968 12.8997 50.1277 12.9083 50.1533 12.9262C50.1788 12.9441 50.1974 12.9702 50.2059 13.0001C50.8779 15.4392 53.5028 22.7501 53.5028 22.7501C53.9992 24.0741 54.7101 25.5197 55.6356 27.087Z" fill="url(#paint2_linear_44_2918)"/>
<path d="M46.5399 65.8887C46.5621 65.9167 46.5912 65.9385 46.6243 65.9521C46.6574 65.9656 46.6935 65.9704 46.729 65.9659C46.7645 65.9615 46.7983 65.948 46.8271 65.9268C46.8558 65.9055 46.8786 65.8772 46.8933 65.8447C48.2751 62.8454 53.301 62.1939 56.1626 62.4583C56.1911 62.4613 56.2179 62.4732 56.2391 62.4923C56.2604 62.5114 56.2751 62.5368 56.2811 62.5647C56.287 62.5927 56.2839 62.6218 56.2723 62.6479C56.2606 62.674 56.241 62.6958 56.2162 62.71C55.1214 63.3206 54.3926 63.4811 53.0013 63.5031C50.572 63.5388 48.5885 64.4106 47.051 66.1185C46.8217 66.3723 46.5862 66.3797 46.3443 66.1405C44.6259 64.4452 42.6214 63.3175 40.3309 62.7573C39.2109 62.4803 37.1822 62.3607 36.2042 61.4763C35.7688 61.0819 35.8414 60.9256 36.4219 61.0074C40.1889 61.5298 44.1327 62.88 46.5399 65.8887Z" fill="#448A2C"/>
<path d="M46.9566 67.5473C48.5877 64.8533 52.3358 64.8249 55.1437 64.6141C55.3162 64.6015 55.3583 64.6686 55.2699 64.8155C54.172 66.622 47.963 64.7431 47.7989 68.5827C47.7947 68.6729 47.7474 68.7191 47.657 68.7212L46.294 68.7621C46.1931 68.7663 46.1321 68.7191 46.111 68.6204C45.6125 66.1499 41.489 65.0893 39.4698 64.8973C38.5549 64.8092 38.0469 64.4189 37.4601 63.8241C37.4427 63.808 37.4312 63.7867 37.4273 63.7634C37.4233 63.74 37.4273 63.7161 37.4384 63.6952C37.4496 63.6744 37.4674 63.6578 37.489 63.6481C37.5106 63.6384 37.5348 63.6361 37.5579 63.6416C40.8201 64.2553 44.3947 64.7053 46.7641 67.5598C46.8335 67.6459 46.8977 67.6417 46.9566 67.5473Z" fill="#448A2C"/>
<defs>
<linearGradient id="paint0_linear_44_2918" x1="47.0881" y1="11" x2="47.0881" y2="65.7061" gradientUnits="userSpaceOnUse">
<stop offset="0.0617713" stop-color="#AC3712"/>
<stop offset="0.727674" stop-color="#F8AA3B"/>
</linearGradient>
<linearGradient id="paint1_linear_44_2918" x1="45.1378" y1="32.1865" x2="45.1378" y2="71.6947" gradientUnits="userSpaceOnUse">
<stop stop-color="#FFBF63"/>
<stop offset="1" stop-color="#FFC676"/>
</linearGradient>
<linearGradient id="paint2_linear_44_2918" x1="50.4487" y1="12.9016" x2="50.4487" y2="79.0001" gradientUnits="userSpaceOnUse">
<stop stop-color="#066515"/>
<stop offset="0.384307" stop-color="#3C8311"/>
<stop offset="0.903775" stop-color="#FAEC04"/>
</linearGradient>
</defs>
</svg>
