<svg width="100" height="100" viewBox="0 0 100 100" fill="none" xmlns="http://www.w3.org/2000/svg">
<rect width="100" height="100" fill="#29297E"/>
<path d="M63.8483 39.0957C66.3549 35.9148 71.8327 36.8762 74.9255 38.5588C74.9815 38.5905 75.0237 38.6419 75.0439 38.7031C75.0641 38.7643 75.0608 38.8308 75.0346 38.8897L74.0432 41.0592C73.9995 41.1591 73.931 41.182 73.8374 41.1279C72.1663 40.1571 68.1351 38.6712 66.57 40.4287C65.7251 41.3776 66.2739 42.6357 67.337 43.2381C69.2824 44.3463 71.6394 44.4587 73.5631 45.7198C75.5989 47.0559 75.8546 49.8185 74.567 51.7633C71.9107 55.7715 65.1172 54.1295 62.0774 51.6228C62.0448 51.5952 62.0225 51.5574 62.014 51.5155C62.0056 51.4736 62.0114 51.43 62.0306 51.3918L63.1312 49.1661C63.1873 49.0517 63.2621 49.0381 63.3557 49.1255C65.4341 51.0443 67.7839 51.8008 70.4048 51.395C72.2287 51.114 72.899 48.7946 71.2185 47.7395C68.9239 46.2973 65.2356 46.4971 63.6394 44.0279C62.6635 42.5233 62.729 40.5129 63.8483 39.0957Z" fill="white"/>
<path d="M42.1709 41.6054C40.9363 40.465 39.5853 39.8032 38.1179 39.62C31.3712 38.7741 28.6307 48.0984 34.7789 50.9641C37.2606 52.1191 40.0914 51.4573 42.1055 49.6561C42.1886 49.5833 42.2666 49.5874 42.3393 49.6686L43.8077 51.3075C43.8374 51.3406 43.8527 51.3842 43.8503 51.4286C43.848 51.4731 43.8282 51.5148 43.7953 51.5447C41.0974 53.888 38.2083 54.6726 35.128 53.8984C25.5629 51.4916 26.5762 38.2996 36.3003 37.1103C39.0522 36.7731 41.5329 37.5785 43.7423 39.5264C43.8233 39.5972 43.8306 39.6762 43.7641 39.7636L42.3424 41.5929C42.3327 41.6056 42.3204 41.616 42.3063 41.6235C42.2921 41.6311 42.2765 41.6356 42.2604 41.6367C42.2443 41.6379 42.228 41.6357 42.2126 41.6303C42.1972 41.6249 42.183 41.6165 42.1709 41.6054Z" fill="white"/>
<path d="M55.1565 51.4355C56.4888 51.217 57.6912 50.6249 58.7637 49.6593C58.8469 49.5844 58.9269 49.5886 59.0038 49.6718L60.4878 51.3169C60.5011 51.3312 60.5114 51.3479 60.5181 51.3662C60.5248 51.3845 60.5278 51.404 60.527 51.4234C60.5261 51.4429 60.5214 51.462 60.513 51.4796C60.5047 51.4972 60.493 51.513 60.4785 51.526C57.102 54.6071 51.7208 55.2564 48.1012 52.116C43.4807 48.1016 44.3911 40.6971 49.8564 38.0125C53.3077 36.3174 57.5416 36.9262 60.4255 39.5234C60.5024 39.592 60.5097 39.668 60.4473 39.7512L59.0443 41.5493C59.0293 41.5686 59.0104 41.5846 58.9888 41.5961C58.9673 41.6077 58.9435 41.6146 58.9191 41.6163C58.8947 41.6181 58.8702 41.6147 58.8472 41.6064C58.8242 41.5981 58.8032 41.585 58.7856 41.568C56.36 39.2362 52.7528 38.7929 50.1495 40.9749C45.4168 44.9425 49.0614 52.4407 55.1565 51.4355Z" fill="white"/>
<path d="M81.5219 37.1375L78.9467 37.133C78.8761 37.1329 78.8187 37.1901 78.8186 37.2608L78.7895 53.9615C78.7894 54.0322 78.8465 54.0896 78.9171 54.0897L81.4923 54.0942C81.5629 54.0944 81.6203 54.0372 81.6204 53.9665L81.6495 37.2657C81.6496 37.1951 81.5925 37.1377 81.5219 37.1375Z" fill="white"/>
<path d="M54.6824 57.457L87.7177 57.4508C87.8133 57.4508 87.8787 57.4966 87.9141 57.5881C88.1573 58.225 87.8704 58.5402 87.2282 58.5434C76.3869 58.5912 65.5476 58.5839 54.7105 58.5215C54.5608 58.5215 54.4777 58.5964 54.461 58.7463L54.3706 59.5142C54.3585 59.6202 54.308 59.718 54.2287 59.7893C54.1495 59.8606 54.0469 59.9004 53.9404 59.9013L27.9667 59.9387C27.8753 59.9387 27.8285 59.9845 27.8264 60.0761L27.7672 62.8856C27.7664 62.9355 27.746 62.9832 27.7104 63.0182C27.6748 63.0532 27.6269 63.0729 27.577 63.0729L12.3034 62.9917C12.1849 62.9917 12.1246 62.9324 12.1225 62.8138L12.0664 61.0095C12.0658 60.9779 12.0719 60.9465 12.0842 60.9174C12.0965 60.8884 12.1148 60.8624 12.1378 60.8411C12.1609 60.8198 12.1881 60.8037 12.2177 60.794C12.2473 60.7843 12.2787 60.7811 12.3096 60.7847L24.503 62.1863C24.5331 62.1896 24.5636 62.1862 24.5923 62.1764C24.621 62.1665 24.6472 62.1504 24.6689 62.1292C24.6907 62.108 24.7075 62.0823 24.7181 62.0539C24.7288 62.0254 24.733 61.995 24.7305 61.9647L24.6401 60.9501C24.6297 60.8482 24.5736 60.7899 24.4718 60.7753C19.9386 60.151 16.1911 59.7098 13.2293 59.4518C12.4374 59.381 12.0383 59.0043 12.0321 58.3217C12.0321 58.1656 12.109 58.0959 12.2628 58.1126L24.5061 59.4923C24.5425 59.4966 24.5793 59.4927 24.614 59.481C24.6488 59.4694 24.6805 59.4502 24.707 59.4249C24.7335 59.3995 24.7541 59.3687 24.7673 59.3345C24.7805 59.3003 24.7861 59.2636 24.7835 59.227L24.7212 58.2687C24.7129 58.1375 24.6433 58.0637 24.5123 58.047C20.6048 57.5496 16.6993 57.0752 12.7959 56.6236C12.3221 56.5674 11.9105 56.3426 12.0789 55.8057C12.0968 55.7448 12.1363 55.6924 12.1901 55.658C12.2439 55.6237 12.3084 55.6096 12.3719 55.6184C17.3915 56.3176 22.3507 56.8983 27.2497 57.3603C27.6487 57.3977 27.7994 57.6277 27.7017 58.0501C27.6881 58.1097 27.6881 58.1715 27.7017 58.231C27.7153 58.2905 27.7421 58.3462 27.7801 58.3939C27.8182 58.4416 27.8665 58.4801 27.9215 58.5066C27.9765 58.533 28.0367 58.5466 28.0977 58.5465H53.348C53.3761 58.5465 53.4039 58.5409 53.4299 58.53C53.4558 58.5192 53.4793 58.5033 53.499 58.4832C53.5188 58.4632 53.5343 58.4394 53.5448 58.4133C53.5553 58.3872 53.5604 58.3592 53.56 58.3311L53.5475 57.0887C53.5455 56.9617 53.481 56.8972 53.3543 56.8951C44.4979 56.8556 35.6446 56.8181 26.7945 56.7828C22.1428 56.764 17.3229 55.8057 12.7087 55.2063C12.4135 55.1689 12.2129 55.0794 12.1069 54.9379C11.9698 54.7568 11.9646 54.5383 12.0913 54.2823C12.1288 54.2053 12.189 54.172 12.2722 54.1824L24.5497 55.5497C24.6765 55.5643 24.7399 55.5071 24.7399 55.378V54.3448C24.7399 54.2261 24.6807 54.1585 24.5622 54.1419C22.1034 53.7881 19.6435 53.4863 17.1826 53.2366C17.141 53.2324 17.115 53.2158 17.1046 53.1866C17.0859 53.1367 17.1036 53.1117 17.1576 53.1117L27.6518 53.0618C27.789 53.0618 27.8576 53.1304 27.8576 53.2678V55.8931C27.8576 55.9971 27.9096 56.0492 28.0135 56.0492H53.9591C54.1171 56.0492 54.2137 56.1262 54.249 56.2802L54.4953 57.3103C54.5052 57.352 54.529 57.3891 54.5629 57.4158C54.5968 57.4424 54.6389 57.4569 54.6824 57.457Z" fill="white"/>
</svg>
