<svg width="100" height="100" viewBox="0 0 100 100" fill="none" xmlns="http://www.w3.org/2000/svg">
<rect width="100" height="100" fill="white"/>
<mask id="mask0_44_2923" style="mask-type:alpha" maskUnits="userSpaceOnUse" x="12" y="6" width="77" height="88">
<path fill-rule="evenodd" clip-rule="evenodd" d="M50.0003 6.0002L55.9776 26.9447C60.1718 28.0348 63.9143 30.2449 66.8666 33.2367L88 27.9394V27.9396L72.8507 43.5877C73.401 45.5911 73.695 47.7007 73.695 49.8789C73.695 52.0569 73.4011 54.1663 72.8508 56.1696L88 71.8177V71.8179L66.867 66.5206C63.9146 69.5127 60.1719 71.723 55.9774 72.8131L50.0002 93.7573L44.023 72.8129C39.8287 71.7228 36.0862 69.5125 33.1339 66.5205L12.0002 71.8179L27.1501 56.1692C26.5999 54.1661 26.306 52.0568 26.306 49.8789C26.306 47.7008 26.5999 45.5914 27.1502 43.5882L12.0002 27.9393L33.1343 33.2368C36.0865 30.2451 39.8288 28.035 44.0229 26.9449L50.0002 6.00015L50.0003 6.0002ZM50.0003 6.0002L88 27.9394L88.0003 27.9393L88 27.9396V71.8177L88.0003 71.8179L88 71.8179V71.818L50.0002 93.7573L50 93.7573L12 71.818V27.9394L50 6.00004L50.0002 6.00015L50.0002 6L50.0003 6.0002Z" fill="#948A8A"/>
</mask>
<g mask="url(#mask0_44_2923)">
<path d="M93.4396 23.99L69.7451 41.5414V57.3377L93.4396 76.6443V23.99Z" fill="#0067B4"/>
<path d="M94.6304 74.584L67.5832 62.8397L53.9032 70.7378L49.0304 100.911L94.6304 74.584Z" fill="#B04212"/>
<path d="M50.7381 100.606L47.4029 71.463L33.7944 63.6062L5.37651 74.4161L50.7381 100.606Z" fill="#FF306B"/>
<path d="M7.29184 23.99L30.5952 41.2518V56.7873L7.29184 75.7753V23.99Z" fill="#4A00A4"/>
<path d="M51.4901 -0.137105L48.1828 28.7615L34.6882 36.5526L6.50826 25.8332L51.4901 -0.137105Z" fill="#FFAF36"/>
<path d="M93.3014 25.6367L66.9518 37.0781L53.6246 29.3836L48.8775 -0.0114502L93.3014 25.6367Z" fill="#008B3E"/>
</g>
</svg>
