<svg width="100" height="100" viewBox="0 0 100 100" fill="none" xmlns="http://www.w3.org/2000/svg">
<rect width="100" height="100" fill="white"/>
<path d="M44.6596 7.66907C46.9974 6.62904 48.5255 4.93837 48.0727 3.89287C47.6198 2.84736 45.3575 2.84293 43.0197 3.88296C40.6818 4.923 39.1537 6.61366 39.6066 7.65917C40.0594 8.70467 42.3218 8.70911 44.6596 7.66907Z" fill="#323C8B"/>
<path d="M35.6902 9.71452C37.6113 8.40131 38.8438 6.8487 38.4432 6.24665C38.0425 5.64461 36.1603 6.22113 34.2392 7.53433C32.3181 8.84754 31.0856 10.4002 31.4863 11.0022C31.887 11.6042 33.7691 11.0277 35.6902 9.71452Z" fill="#1F5AA2"/>
<path d="M54.2744 15.5272C57.117 14.7446 58.9677 12.418 58.4082 10.3307C57.8486 8.24344 55.0906 7.18586 52.248 7.96855C49.4054 8.75125 47.5547 11.0778 48.1143 13.1651C48.6739 15.2524 51.4318 16.3099 54.2744 15.5272Z" fill="#36377F"/>
<path d="M43.4556 16.0956C45.9025 14.6349 47.1231 12.1382 46.182 10.5191C45.2409 8.89995 42.4944 8.77149 40.0476 10.2322C37.6008 11.6928 36.3801 14.1895 37.3212 15.8087C38.2623 17.4278 41.0088 17.5563 43.4556 16.0956Z" fill="#323C8B"/>
<path d="M28.5328 12.8384C29.565 11.9097 30.2771 11.0146 30.1234 10.8392C29.9697 10.6637 29.0084 11.2743 27.9762 12.203C26.9441 13.1317 26.232 14.0267 26.3857 14.2022C26.5394 14.3776 27.5007 13.767 28.5328 12.8384Z" fill="#0476B4"/>
<path d="M33.5269 17.3665C35.4836 15.5684 36.3231 13.2761 35.4019 12.2465C34.4807 11.2169 32.1477 11.8399 30.1909 13.638C28.2342 15.4361 27.3947 17.7284 28.3159 18.758C29.2371 19.7876 31.5701 19.1646 33.5269 17.3665Z" fill="#1F5AA2"/>
<path d="M23.3383 17.6938C21.8432 19.4996 21.1089 21.3699 21.6984 21.8711C22.2878 22.3724 23.9778 21.3148 25.4729 19.509C26.9681 17.7032 27.7023 15.8329 27.1129 15.3316C26.5234 14.8304 24.8335 15.8879 23.3383 17.6938Z" fill="#0476B4"/>
<path d="M66.6129 27.1496C69.8166 27.468 72.6381 25.4059 72.915 22.5439C73.1919 19.6819 70.8193 17.1037 67.6157 16.7854C64.412 16.4671 61.5905 18.5291 61.3136 21.3911C61.0367 24.2531 63.4093 26.8313 66.6129 27.1496Z" fill="#392D75"/>
<path d="M54.3167 26.9533C57.2788 25.7404 58.8465 22.6662 57.8182 20.0869C56.7899 17.5076 53.5551 16.3999 50.5929 17.6127C47.6308 18.8256 46.0631 21.8998 47.0914 24.4791C48.1197 27.0584 51.3545 28.1661 54.3167 26.9533Z" fill="#36377F"/>
<path d="M42.9665 26.65C45.2954 24.6413 45.9171 21.5053 44.3552 19.6454C42.7934 17.7856 39.6393 17.9062 37.3105 19.9148C34.9816 21.9234 34.3599 25.0595 35.9218 26.9193C37.4837 28.7792 40.6377 28.6586 42.9665 26.65Z" fill="#323C8B"/>
<path d="M26.7665 22.8762C25.0522 25.1902 24.8988 28.0068 26.4239 29.1673C27.949 30.3278 30.5751 29.3927 32.2895 27.0787C34.0038 24.7648 34.1572 21.9482 32.6321 20.7877C31.1069 19.6272 28.4808 20.5623 26.7665 22.8762Z" fill="#1F5AA2"/>
<path d="M19.4212 26.0973C18.0985 28.3729 17.8979 30.7381 18.9732 31.3799C20.0484 32.0218 21.9923 30.6974 23.315 28.4217C24.6377 26.1461 24.8383 23.7809 23.7631 23.139C22.6878 22.4972 20.7439 23.8216 19.4212 26.0973Z" fill="#0476B4"/>
<path d="M15.5114 29.6713C14.6117 31.672 14.2271 33.4531 14.6525 33.6496C15.0778 33.846 16.1519 32.3834 17.0516 30.3826C17.9513 28.3819 18.3359 26.6008 17.9105 26.4043C17.4852 26.2079 16.4111 27.6705 15.5114 29.6713Z" fill="#0476B4"/>
<path d="M66.6482 40.5673C69.9795 40.9162 72.9478 38.5738 73.278 35.3355C73.6083 32.0971 71.1753 29.1891 67.844 28.8402C64.5126 28.4913 61.5443 30.8337 61.2141 34.072C60.8839 37.3104 63.3168 40.2184 66.6482 40.5673Z" fill="#392D75"/>
<path d="M55.3938 39.4334C58.0264 37.3862 58.623 33.6961 56.7265 31.1913C54.83 28.6865 51.1584 28.3154 48.5259 30.3626C45.8934 32.4098 45.2967 36.0999 47.1933 38.6047C49.0898 41.1096 52.7613 41.4806 55.3938 39.4334Z" fill="#36377F"/>
<path d="M77.0907 39.1406C79.5368 41.3963 83.1942 41.3599 85.2598 39.0594C87.3253 36.7589 87.0168 33.0654 84.5707 30.8097C82.1246 28.554 78.4672 28.5903 76.4016 30.8908C74.3361 33.1913 74.6446 36.8848 77.0907 39.1406Z" fill="#392D75"/>
<path d="M34.914 32.6105C33.1187 35.2778 33.5325 38.7323 35.8384 40.3264C38.1443 41.9205 41.469 41.0505 43.2643 38.3833C45.0597 35.716 44.6459 32.2614 42.34 30.6673C40.0341 29.0732 36.7094 29.9432 34.914 32.6105Z" fill="#323C8B"/>
<path d="M24.2422 34.7973C23.0627 37.5596 23.783 40.534 25.851 41.4409C27.919 42.3479 30.5516 40.8438 31.7311 38.0816C32.9105 35.3193 32.1903 32.3449 30.1223 31.4379C28.0543 30.531 25.4217 32.0351 24.2422 34.7973Z" fill="#1F5AA2"/>
<path d="M16.7041 36.8985C15.888 39.5218 16.4366 42.0352 17.9296 42.5122C19.4225 42.9893 21.2945 41.2494 22.1106 38.6261C22.9268 36.0028 22.3781 33.4895 20.8851 33.0124C19.3922 32.5354 17.5203 34.2752 16.7041 36.8985Z" fill="#0476B4"/>
<path d="M12.6195 39.0438C12.0286 41.3931 12.1402 43.4501 12.8687 43.6383C13.5973 43.8265 14.6669 42.0746 15.2578 39.7254C15.8486 37.3761 15.737 35.3191 15.0085 35.1309C14.2799 34.9427 13.2103 36.6946 12.6195 39.0438Z" fill="#0476B4"/>
<path d="M63.6096 53.6693C66.3683 55.8068 70.2699 55.3322 72.3242 52.6092C74.3784 49.8862 73.8074 45.946 71.0487 43.8085C68.29 41.671 64.3884 42.1456 62.3342 44.8686C60.2799 47.5916 60.8509 51.5318 63.6096 53.6693Z" fill="#392D75"/>
<path d="M51.7241 54.8763C55.0688 54.8763 57.7802 52.1285 57.7802 48.7388C57.7802 45.3492 55.0688 42.6013 51.7241 42.6013C48.3794 42.6013 45.668 45.3492 45.668 48.7388C45.668 52.1285 48.3794 54.8763 51.7241 54.8763Z" fill="#36377F"/>
<path d="M33.3562 47.7592C32.6976 50.9821 34.5212 54.0896 37.4294 54.7C40.3376 55.3103 43.229 53.1924 43.8876 49.9695C44.5462 46.7465 42.7225 43.639 39.8144 43.0287C36.9062 42.4183 34.0148 44.5362 33.3562 47.7592Z" fill="#323C8B"/>
<path d="M22.9093 48.6403C22.613 51.7024 24.3295 54.3792 26.7432 54.6191C29.157 54.8589 31.3538 52.571 31.6501 49.5089C31.9464 46.4467 30.2298 43.7699 27.8161 43.5301C25.4024 43.2902 23.2055 45.5781 22.9093 48.6403Z" fill="#1F5AA2"/>
<path d="M15.3722 49.1202C15.1621 51.9522 16.3874 54.3543 18.1089 54.4855C19.8304 54.6167 21.3963 52.4273 21.6064 49.5953C21.8165 46.7633 20.5913 44.3612 18.8698 44.23C17.1483 44.0988 15.5824 46.2883 15.3722 49.1202Z" fill="#0476B4"/>
<path d="M11.3215 49.5711C11.1889 52.0522 11.7828 54.102 12.6481 54.1495C13.5133 54.197 14.3222 52.2242 14.4548 49.7431C14.5873 47.262 13.9934 45.2122 13.1282 45.1647C12.263 45.1173 11.4541 47.0901 11.3215 49.5711Z" fill="#0476B4"/>
<path d="M11.779 61.7321C12.2092 64.1556 13.2388 65.996 14.0786 65.8429C14.9184 65.6897 15.2503 63.601 14.8201 61.1776C14.3898 58.7541 13.3602 56.9137 12.5205 57.0668C11.6807 57.2199 11.3487 59.3087 11.779 61.7321Z" fill="#0476B4"/>
<path d="M15.9295 63.0669C16.4782 65.8245 18.2388 67.7912 19.8619 67.4595C21.485 67.1278 22.3561 64.6234 21.8074 61.8658C21.2587 59.1081 19.4981 57.1414 17.875 57.4731C16.2519 57.8048 15.3808 60.3092 15.9295 63.0669Z" fill="#0476B4"/>
<path d="M23.4165 64.4831C24.2495 67.4466 26.7726 69.3154 29.0521 68.6574C31.3316 67.9993 32.5042 65.0635 31.6713 62.1001C30.8383 59.1367 28.3152 57.2678 26.0357 57.9259C23.7562 58.584 22.5836 61.5197 23.4165 64.4831Z" fill="#1F5AA2"/>
<path d="M34.0004 66.0775C35.2884 69.0795 38.4928 70.5611 41.1578 69.3867C43.8227 68.2124 44.9389 64.8269 43.6509 61.8249C42.363 58.823 39.1585 57.3414 36.4936 58.5157C33.8287 59.69 32.7124 63.0755 34.0004 66.0775Z" fill="#323C8B"/>
<path d="M47.1826 67.8497C49.1882 70.5568 52.8937 71.1689 55.4591 69.2168C58.0245 67.2648 58.4783 63.4878 56.4727 60.7807C54.4671 58.0737 50.7617 57.4616 48.1963 59.4136C45.6309 61.3657 45.1771 65.1426 47.1826 67.8497Z" fill="#36377F"/>
<path d="M13.9897 71.6594C14.799 73.8648 15.9325 75.4726 16.5214 75.2506C17.1104 75.0286 16.9318 73.0609 16.1225 70.8556C15.3133 68.6503 14.1798 67.0425 13.5908 67.2645C13.0019 67.4864 13.1805 69.4541 13.9897 71.6594Z" fill="#0476B4"/>
<path d="M18.0498 74.6703C19.181 77.1288 21.1348 78.6318 22.4136 78.0275C23.6925 77.4231 23.8122 74.9402 22.681 72.4817C21.5498 70.0233 19.5961 68.5202 18.3172 69.1246C17.0383 69.7289 16.9186 72.2118 18.0498 74.6703Z" fill="#0476B4"/>
<path d="M25.4956 77.3641C27.0092 79.9068 29.6947 81.0765 31.4938 79.9765C33.293 78.8766 33.5246 75.9237 32.011 73.3809C30.4975 70.8382 27.812 69.6685 26.0128 70.7684C24.2136 71.8684 23.9821 74.8213 25.4956 77.3641Z" fill="#1F5AA2"/>
<path d="M36.1582 80.0588C38.3088 82.3554 41.5859 82.7422 43.4779 80.9227C45.3699 79.1031 45.1602 75.7662 43.0097 73.4696C40.8591 71.1729 37.582 70.7861 35.69 72.6056C33.798 74.4252 34.0076 77.7621 36.1582 80.0588Z" fill="#323C8B"/>
<path d="M17.5466 79.8364C18.4604 81.4277 19.3928 82.6047 19.6291 82.4654C19.8654 82.326 19.3161 80.923 18.4023 79.3317C17.4884 77.7404 16.556 76.5634 16.3197 76.7028C16.0834 76.8422 16.6327 78.2451 17.5466 79.8364Z" fill="#0476B4"/>
<path d="M21.4081 84.1207C22.8542 86.1602 24.6913 87.3295 25.5114 86.7323C26.3314 86.1351 25.8239 83.9976 24.3777 81.9581C22.9316 79.9185 21.0945 78.7492 20.2745 79.3464C19.4544 79.9436 19.962 82.0811 21.4081 84.1207Z" fill="#0476B4"/>
<path d="M28.6006 87.916C30.5005 89.9239 32.9902 90.6288 34.1614 89.4905C35.3326 88.3523 34.7419 85.8018 32.842 83.794C30.942 81.7861 28.4524 81.0812 27.2812 82.2195C26.1099 83.3577 26.7007 85.9082 28.6006 87.916Z" fill="#1F5AA2"/>
<path d="M28.7772 92.9999H28.1424C26.495 91.6513 25.0166 90.1152 23.7071 88.3917C23.6357 88.2986 23.599 88.1829 23.6034 88.065C23.6078 87.9471 23.653 87.8345 23.7312 87.7471C23.8094 87.6597 23.9154 87.603 24.0308 87.5869C24.1461 87.5709 24.2633 87.5966 24.3618 87.6594C26.2488 88.83 27.827 90.443 29.0965 92.4982C29.2376 92.7248 29.1311 92.892 28.7772 92.9999Z" fill="#0476B4"/>
</svg>
