<svg width="100" height="100" viewBox="0 0 100 100" fill="none" xmlns="http://www.w3.org/2000/svg">
<rect width="100" height="100" fill="#E7F5E8"/>
<path d="M53.6251 17.1492C54.7564 15.8996 56.0394 14.8341 57.474 13.9527C60.7334 11.951 64.3734 13.3375 66.7743 15.943C66.7789 15.9474 66.7818 15.9534 66.7825 15.9597C66.7831 15.9661 66.7815 15.9725 66.7779 15.9778C66.7744 15.9831 66.769 15.987 66.7628 15.9887C66.7567 15.9905 66.7501 15.99 66.7442 15.9873C63.3904 14.5351 59.5845 15.2219 56.9103 17.6771C55.6526 18.8304 54.5151 20.204 53.4878 21.7163C51.9711 23.9484 50.6533 26.1423 49.5344 28.2981C47.0095 33.1628 44.5547 38.0624 42.17 42.9968C41.0053 45.4073 39.824 47.6484 38.6259 49.7202C34.1103 57.531 26.7015 63.0783 19.0552 67.5324C19.0438 67.5381 19.0309 67.5386 19.0166 67.5338C18.9966 67.5272 18.9947 67.5176 19.0109 67.5052C20.5247 66.3672 21.9545 65.132 23.3005 63.7994C24.8114 62.3013 26.4039 60.7589 27.776 59.2423C31.2372 55.4191 34.116 51.4243 36.7973 47.0346C39.845 42.0453 42.0141 37.0332 44.1603 32.104C46.4939 26.7428 49.6947 21.4903 53.6251 17.1492Z" fill="#4F301E"/>
<path d="M53.3362 46.2662C58.4027 44.8712 60.3959 40.5744 60.5218 35.6152C60.5828 33.2057 60.4951 31.0986 60.2585 29.2939C59.8937 26.5081 59.5546 24.3547 59.9595 21.8923C60.4989 18.6029 62.3761 16.3536 65.9961 16.345C66.7182 16.3431 66.7239 16.3775 66.0132 16.4481C65.1719 16.5311 64.4656 17.0027 63.8942 17.8631C62.6938 19.6731 62.512 21.9252 62.658 24.0357C62.854 26.8773 63.422 29.6774 63.92 32.476C64.4064 35.2132 64.4923 37.9789 63.3748 40.5315C62.203 43.21 60.3987 45.4335 57.8204 46.8514C53.6253 49.1579 47.7418 49.6458 42.95 49.4269C42.8994 49.424 42.8488 49.4274 42.7983 49.4369C42.7535 49.4464 42.743 49.4317 42.7668 49.3925C42.7916 49.3525 42.8264 49.3253 42.8713 49.311C53.2432 45.9586 55.5483 34.3146 54.8243 24.8942C54.8242 24.8873 54.8264 24.8804 54.8306 24.8748C54.8348 24.8693 54.8408 24.8653 54.8474 24.8636C54.854 24.8619 54.8609 24.8626 54.8669 24.8655C54.8728 24.8685 54.8775 24.8736 54.8801 24.8798C58.0007 31.9881 57.3783 39.6544 53.2962 46.2118C53.2628 46.2653 53.2761 46.2834 53.3362 46.2662Z" fill="#67803F"/>
<path d="M73.9053 64.3376C72.1182 62.2372 69.1192 61.8895 66.558 61.9925C65.4721 62.0354 63.5862 62.4418 61.9523 62.3344C60.0807 62.2128 58.0647 61.5217 56.3478 60.792C54.4791 59.9979 52.9124 59.2253 51.4744 57.9776C51.4362 57.9442 51.4167 57.9528 51.4157 58.0034C51.4014 61.0997 52.9868 63.7653 55.6967 65.2333C57.5797 66.2549 60.3583 67.0261 62.526 67.2021C63.7937 67.3065 65.0814 67.1549 66.641 66.9574C70.0993 66.5181 74.0655 66.0989 77.4308 67.3623C77.4804 67.3805 77.5038 67.3633 77.5009 67.3108C77.3163 63.5263 74.2143 60.2812 71.108 58.3697C68.6184 56.8373 66.4164 55.581 63.6707 54.9815C62.4602 54.7168 61.0423 54.6753 59.7245 54.5837C56.611 54.3677 53.6979 53.3332 50.9321 51.9382C50.9207 51.9323 50.9114 51.9233 50.9051 51.9121C50.8989 51.9009 50.8962 51.8882 50.8973 51.8754C50.8983 51.8627 50.9032 51.8506 50.9112 51.8406C50.9192 51.8306 50.9299 51.8232 50.9421 51.8194C57.325 49.8735 64.4018 50.4701 70.0735 54.1388C70.9421 54.7011 71.8692 55.2791 72.6447 55.8786C75.8555 58.3616 78.3188 61.4306 80.0349 65.0859C81.1395 67.4353 81.6088 69.6287 81.5501 72.23C81.5453 72.4207 81.47 72.4541 81.324 72.3301C78.9131 70.2697 75.4348 69.7818 72.3886 70.2197C68.8516 70.729 65.5007 71.1125 61.9365 70.8678C56.2304 70.4786 50.5673 68.4354 48.9533 62.4232C48.1392 59.3927 47.9489 55.4923 49.384 52.6078C49.4097 52.5563 49.4431 52.5505 49.4841 52.5906C53.6306 56.687 59.1951 60.2097 65.422 59.3913C66.0697 59.3054 66.8547 59.3646 67.7771 59.5687C70.4823 60.1668 72.5069 61.6729 73.8509 64.0872C73.8938 64.1616 73.8967 64.2446 73.9224 64.329C73.9228 64.3311 73.9225 64.3333 73.9215 64.3352C73.9205 64.3372 73.919 64.3387 73.9171 64.3397C73.9151 64.3407 73.9129 64.341 73.9108 64.3406C73.9087 64.3402 73.9067 64.3392 73.9053 64.3376Z" fill="#9BA83E"/>
<path d="M44.9188 80.6931C47.6345 77.9789 49.2098 73.8552 46.839 70.334C45.9605 69.0291 45.1249 67.8573 44.5826 66.5052C43.6998 64.3103 43.2934 61.9766 43.5739 59.5972C43.8428 57.3184 44.4734 55.1574 45.4654 53.1142C45.5159 53.0092 45.5446 53.015 45.5512 53.1313C45.6872 55.5208 45.6128 57.9403 45.8617 60.3169C46.2638 64.1415 48.2583 66.9144 50.3144 70.0092C50.6931 70.5787 50.965 71.2578 51.13 72.0467C51.854 75.5207 50.1012 79.3453 48.1453 82.164C46.6887 84.2654 44.812 85.8741 42.5151 86.9901C42.4683 87.0121 42.4478 86.9977 42.4535 86.9472C42.8313 83.6377 41.5507 80.5457 39.3029 78.172C38.3786 77.1976 37.1366 76.4221 36.1122 75.4563C33.1976 72.7135 31.3375 68.9576 31.5751 64.8497C31.8612 59.9148 36.5028 56.581 40.7966 55.2647C40.807 55.2615 40.818 55.2609 40.8286 55.263C40.8392 55.2652 40.8491 55.27 40.8574 55.277C40.8657 55.284 40.872 55.2929 40.8759 55.303C40.8798 55.3131 40.8811 55.3241 40.8796 55.3348C40.23 60.1409 40.0369 65.3934 42.9142 69.5743C44.2807 71.5588 45.7487 73.3316 44.9889 75.9399C44.9718 76 44.9446 76.0048 44.9074 75.9543C44.7943 75.7969 44.7557 75.545 44.6856 75.4048C43.6411 73.2944 41.9456 71.5788 40.2959 69.9334C39.589 69.2285 39.1178 68.7038 38.8822 68.3595C37.1753 65.8642 37.4772 62.4874 38.091 59.7102C38.0929 59.7014 38.092 59.6922 38.0884 59.684C38.0848 59.6757 38.0786 59.6688 38.0709 59.6642C38.0631 59.6596 38.0541 59.6576 38.0451 59.6584C38.0362 59.6592 38.0277 59.6628 38.0209 59.6687C35.7473 61.6433 34.0761 65.0629 34.9689 68.1034C35.1778 68.815 35.6247 69.651 36.3096 70.6116C38.0724 73.0855 40.4118 75.1702 42.6567 77.1991C43.6983 78.1405 44.6799 79.2981 44.8172 80.6573C44.8181 80.6685 44.8222 80.6792 44.829 80.688C44.8358 80.6969 44.8452 80.7036 44.8558 80.7074C44.8665 80.7111 44.8781 80.7118 44.8893 80.7093C44.9004 80.7067 44.9107 80.7011 44.9188 80.6931Z" fill="#9BA83E"/>
</svg>
