<svg width="100" height="100" viewBox="0 0 100 100" fill="none" xmlns="http://www.w3.org/2000/svg">
<rect width="100" height="100" fill="#E4EEF7"/>
<path d="M37.3187 27.647C37.1983 24.8126 38.0505 8.89892 42.58 10.1401C51.8615 12.6874 43.3766 60.9749 42.3207 68.941C42.3207 68.9827 42.3041 69.0228 42.2746 69.0523C42.245 69.0818 42.205 69.0984 42.1632 69.0984C42.1214 69.0984 42.0814 69.0818 42.0519 69.0523C42.0223 69.0228 42.0057 68.9827 42.0057 68.941C40.3384 55.2134 37.9023 41.5043 37.3187 27.647Z" fill="#84C224"/>
<path d="M58.2986 10.1586C67.3578 15.7627 59.1879 58.8444 58.0022 68.9317C57.9926 68.9749 57.9686 69.0135 57.9341 69.0412C57.8995 69.0689 57.8566 69.084 57.8123 69.084C57.7681 69.084 57.7252 69.0689 57.6906 69.0412C57.6561 69.0135 57.6321 68.9749 57.6225 68.9317C56.6499 60.169 48.0724 14.1695 57.289 10.0938C57.4487 10.0224 57.6239 9.99096 57.7997 10.0022C57.9755 10.0135 58.1467 10.0672 58.2986 10.1586Z" fill="#84C224"/>
<path d="M27.658 21.9595C33.8641 30.3887 28.0841 55.7042 27.2411 66.1527C27.2424 66.1945 27.227 66.235 27.1983 66.2654C27.1696 66.2958 27.1301 66.3136 27.0883 66.3148C27.0465 66.3161 27.006 66.3006 26.9756 66.272C26.9452 66.2433 26.9274 66.2038 26.9262 66.162C25.9443 59.1222 20.0531 25.711 26.7039 21.7742C26.8593 21.6823 27.0426 21.6503 27.2188 21.6845C27.3949 21.7187 27.5513 21.8166 27.658 21.9595Z" fill="#40919C"/>
<path d="M73.5366 22.2007C77.2325 27.0637 76.0838 39.0684 75.4077 44.8392C74.5863 51.8666 73.7465 58.9033 72.8882 65.9493C72.8882 65.9788 72.8764 66.0071 72.8556 66.0279C72.8348 66.0487 72.8065 66.0605 72.777 66.0605C72.7475 66.0605 72.7192 66.0487 72.6984 66.0279C72.6776 66.0071 72.6658 65.9788 72.6658 65.9493C71.897 60.6046 65.5797 22.6916 72.6473 21.8209C72.8166 21.801 72.9878 21.8256 73.1439 21.8923C73.3 21.959 73.4354 22.0653 73.5366 22.2007Z" fill="#84C224"/>
<path d="M49.7683 89.2915C49.4436 89.3107 49.1207 89.235 48.8393 89.0737C48.5578 88.9124 48.3302 88.6726 48.1843 88.3838C46.7084 85.4999 45.8871 82.366 45.7204 78.9819C44.9331 62.8182 47.8509 47.6826 49.935 31.3985C50.1326 29.8732 50.3148 29.8763 50.4815 31.4078C51.2689 38.605 60.328 88.6617 49.7683 89.2915Z" fill="#40919C"/>
<path d="M65.6168 89.1713C56.3817 86.9204 64.1811 41.7638 65.5242 30.7225C65.5798 30.247 65.6477 30.2439 65.728 30.7132C67.4694 41.4643 68.8928 52.0951 69.9982 62.6053C70.767 69.8952 71.4247 82.2427 67.7195 88.3006C67.5069 88.6502 67.1885 88.923 66.8105 89.0796C66.4324 89.2361 66.0144 89.2683 65.6168 89.1713Z" fill="#40919C"/>
<path d="M38.0784 56.1306C38.7082 60.6324 41.4593 88.6526 34.8919 89.2547C24.4249 90.1995 33.5581 37.1047 34.401 30.7967C34.4097 30.7603 34.4305 30.7279 34.4599 30.7047C34.4893 30.6815 34.5257 30.6689 34.5631 30.6689C34.6005 30.6689 34.6369 30.6815 34.6663 30.7047C34.6957 30.7279 34.7164 30.7603 34.7252 30.7967C35.7812 39.2568 36.8989 47.7014 38.0784 56.1306Z" fill="#84C224"/>
<path d="M78.5845 38.1231C78.8439 36.252 78.7698 33.7232 78.9365 31.3704C78.9328 31.3115 78.9527 31.2535 78.9918 31.2092C79.0309 31.1649 79.0859 31.1379 79.1449 31.1342C79.2039 31.1305 79.2619 31.1504 79.3062 31.1895C79.3505 31.2286 79.3774 31.2837 79.3811 31.3426C82.0766 47.0618 84.6887 60.8913 81.6042 73.0071C81.1719 74.7053 80.1623 75.1839 78.5752 74.4429C73.4806 72.0808 77.8249 43.4122 78.5845 38.1231Z" fill="#84C224"/>
<path d="M21.0349 33.4643C21.9056 40.9487 22.7392 48.4331 23.5358 55.9175C24.2676 62.8647 24.0824 68.1445 22.063 74.2117C21.9783 74.4654 21.8281 74.6922 21.6276 74.8692C21.4271 75.0462 21.1834 75.1671 20.9212 75.2198C20.6589 75.2724 20.3874 75.2549 20.1342 75.169C19.8809 75.083 19.6548 74.9318 19.4787 74.7304C14.0506 68.4594 19.0433 39.9575 20.3124 31.3245C20.3206 31.2833 20.3426 31.2461 20.3747 31.2191C20.4069 31.192 20.4473 31.1767 20.4893 31.1756C20.5313 31.1745 20.5724 31.1878 20.6059 31.2131C20.6394 31.2385 20.6633 31.2745 20.6736 31.3153C20.828 31.9946 20.9484 32.7109 21.0349 33.4643Z" fill="#84C224"/>
</svg>
