<svg width="100" height="100" viewBox="0 0 100 100" fill="none" xmlns="http://www.w3.org/2000/svg">
<rect width="100" height="100" fill="white"/>
<path d="M39.7917 75.1558C31.6422 73.4273 24.5167 70.1978 18.9194 64.5516C13.1215 58.705 11.3009 50.8102 14.72 43.2242C18.9139 33.9042 29.8974 28.231 39.5478 26.3237C42.9507 25.6518 47.8924 24.7685 51.8534 25.0557C56.4736 25.3845 61.0072 26.1485 65.454 27.3478C66.0212 27.4995 66.0103 27.6043 65.4215 27.6621C65.3095 27.6765 65.0368 27.6566 64.6033 27.6025C49.8973 25.8252 26.3861 31.2058 21.6612 48.0359C17.9332 61.3005 28.9816 70.4904 39.8838 74.8523C39.924 74.8646 39.9578 74.8923 39.9776 74.9293C39.9974 74.9664 40.0017 75.0099 39.9895 75.0501C39.9772 75.0904 39.9495 75.1241 39.9125 75.1439C39.8754 75.1637 39.8319 75.168 39.7917 75.1558Z" fill="#009347"/>
<path d="M72.921 52.2894C76.0096 50.5446 77.1854 47.1959 77.4672 43.8418C77.9494 38.1036 74.3786 32.5983 69.6915 29.5043C69.6569 29.4776 69.633 29.4394 69.6239 29.3966C69.6149 29.3538 69.6214 29.3092 69.6423 29.2707C69.6631 29.2323 69.697 29.2025 69.7377 29.1867C69.7785 29.1709 69.8236 29.1702 69.8649 29.1846C78.9898 33.0751 87.5782 41.3385 86.2615 52.1864C84.7551 64.6274 72.5579 71.6878 61.1139 72.9558C51.0246 74.0774 41.0002 69.1736 40.0032 58.0276C38.1446 37.3504 71.6747 31.3412 72.6934 52.1593C72.6951 52.1859 72.7033 52.2118 72.7173 52.2344C72.7312 52.2571 72.7505 52.2758 72.7733 52.2888C72.7961 52.3018 72.8216 52.3087 72.8474 52.3088C72.8733 52.3089 72.8986 52.3022 72.921 52.2894Z" fill="#005393"/>
</svg>
