<svg width="100" height="100" viewBox="0 0 100 100" fill="none" xmlns="http://www.w3.org/2000/svg">
<rect width="100" height="100" fill="white"/>
<path d="M61.6953 55.4877C61.9714 55.4877 62.1952 55.2639 62.1952 54.9877C62.1952 54.7116 61.9714 54.4878 61.6953 54.4878C61.4191 54.4878 61.1953 54.7116 61.1953 54.9877C61.1953 55.2639 61.4191 55.4877 61.6953 55.4877Z" fill="#252224"/>
<path d="M63.5617 39.6697L63.9995 42.1291C64.0032 42.1473 64.0016 42.1662 63.9949 42.1835C63.9881 42.2008 63.9764 42.2158 63.9613 42.2266C63.9462 42.2375 63.9283 42.2437 63.9097 42.2446C63.8912 42.2454 63.8727 42.2409 63.8567 42.2315L61.7265 41.0515C61.7122 41.0437 61.6962 41.0395 61.6799 41.0395C61.6636 41.0395 61.6476 41.0437 61.6333 41.0515L59.4783 42.2595C59.4622 42.2689 59.4438 42.2734 59.4252 42.2725C59.4066 42.2716 59.3887 42.2654 59.3736 42.2546C59.3585 42.2437 59.3469 42.2288 59.3401 42.2114C59.3333 42.1941 59.3317 42.1752 59.3354 42.157L59.795 39.6914C59.7979 39.6758 59.7969 39.6596 59.792 39.6444C59.7871 39.6293 59.7785 39.6155 59.767 39.6045L58.0095 37.8469C57.9965 37.8344 57.9873 37.8186 57.9829 37.8011C57.9785 37.7837 57.9791 37.7653 57.9846 37.7482C57.9901 37.731 58.0003 37.7158 58.014 37.7041C58.0277 37.6925 58.0444 37.6849 58.0623 37.6823L60.475 37.3283C60.4909 37.3264 60.506 37.3206 60.519 37.3113C60.532 37.3021 60.5425 37.2898 60.5496 37.2755L61.5743 35.0584C61.5817 35.0411 61.5941 35.0263 61.6098 35.0159C61.6255 35.0055 61.644 35 61.6628 35C61.6817 35 61.7001 35.0055 61.7158 35.0159C61.7315 35.0263 61.7439 35.0411 61.7513 35.0584L62.8226 37.2724C62.8294 37.2863 62.8394 37.2984 62.8519 37.3076C62.8643 37.3168 62.8788 37.3228 62.894 37.3252L65.2634 37.6948C65.2805 37.6978 65.2966 37.7054 65.3098 37.7168C65.3229 37.7283 65.3328 37.7431 65.3382 37.7597C65.3436 37.7762 65.3444 37.794 65.3405 37.811C65.3367 37.828 65.3282 37.8436 65.3161 37.8562L63.5865 39.5859C63.576 39.5969 63.5683 39.6102 63.564 39.6248C63.5597 39.6394 63.5589 39.6548 63.5617 39.6697Z" fill="#EE592A"/>
<path d="M44.7315 44.4333L43.4801 45.1506C43.462 45.1611 43.4413 45.1663 43.4204 45.1653C43.3995 45.1644 43.3793 45.1574 43.3623 45.1453C43.3452 45.1332 43.332 45.1164 43.3243 45.0969C43.3165 45.0775 43.3146 45.0562 43.3186 45.0357L43.5733 43.5824C43.5763 43.5651 43.575 43.5472 43.5696 43.5304C43.5642 43.5137 43.5548 43.4985 43.5422 43.4861L42.4833 42.4241C42.4694 42.4098 42.4597 42.3919 42.4553 42.3724C42.4509 42.3529 42.452 42.3325 42.4584 42.3136C42.4648 42.2946 42.4763 42.2778 42.4917 42.265C42.507 42.2522 42.5256 42.2439 42.5454 42.2409L43.9894 42.0484C44.0078 42.0456 44.0251 42.0382 44.0398 42.0267C44.0545 42.0153 44.066 42.0003 44.0732 41.9832L44.7067 40.6076C44.7155 40.5885 44.7297 40.5723 44.7475 40.5611C44.7653 40.5499 44.786 40.5441 44.8071 40.5444C44.8281 40.5448 44.8486 40.5512 44.8661 40.563C44.8835 40.5747 44.8972 40.5913 44.9054 40.6107L45.5016 41.9801C45.5089 41.9972 45.5204 42.0122 45.5351 42.0236C45.5497 42.0351 45.5671 42.0425 45.5855 42.0453L47.0512 42.2596C47.0713 42.2625 47.0902 42.2711 47.1058 42.2843C47.1213 42.2975 47.1328 42.3149 47.1389 42.3343C47.1451 42.3537 47.1456 42.3745 47.1406 42.3942C47.1355 42.4139 47.1249 42.4319 47.1102 42.4459L46.0513 43.4334C46.0381 43.4454 46.0281 43.4604 46.0222 43.4772C46.0162 43.494 46.0145 43.512 46.0171 43.5296L46.2562 45.0264C46.2591 45.0462 46.2565 45.0665 46.2486 45.085C46.2406 45.1034 46.2278 45.1193 46.2114 45.1309C46.195 45.1424 46.1757 45.1493 46.1556 45.1505C46.1356 45.1518 46.1156 45.1475 46.0979 45.1381L44.8371 44.4333C44.821 44.4243 44.8028 44.4196 44.7843 44.4196C44.7659 44.4196 44.7477 44.4243 44.7315 44.4333Z" fill="#EE592A"/>
<path d="M59.3819 47.2592L57.6057 47.5418C57.5863 47.545 57.5679 47.5529 57.5522 47.5648C57.5365 47.5767 57.524 47.5923 57.5157 47.6101L56.7362 49.2497C56.7266 49.2708 56.7111 49.2888 56.6915 49.3014C56.672 49.314 56.6492 49.3206 56.626 49.3206C56.6027 49.3206 56.58 49.314 56.5604 49.3014C56.5409 49.2888 56.5254 49.2708 56.5158 49.2497L55.7798 47.6225C55.7712 47.6043 55.7582 47.5885 55.7419 47.5765C55.7256 47.5646 55.7066 47.5569 55.6867 47.5542L53.8732 47.2872C53.8504 47.2843 53.8289 47.2751 53.8112 47.2605C53.7935 47.2459 53.7803 47.2266 53.7731 47.2048C53.766 47.183 53.7652 47.1596 53.7708 47.1373C53.7764 47.1151 53.7882 47.0949 53.8049 47.0791L55.1277 45.8122C55.1424 45.7979 55.1532 45.7802 55.1592 45.7607C55.1651 45.7411 55.1661 45.7204 55.1619 45.7004L54.7954 43.8776C54.7908 43.8549 54.7927 43.8314 54.801 43.8098C54.8093 43.7883 54.8236 43.7695 54.8422 43.7558C54.8609 43.7421 54.883 43.734 54.9061 43.7324C54.9292 43.7309 54.9522 43.736 54.9724 43.7472L56.5499 44.6011C56.5676 44.6106 56.5873 44.6156 56.6074 44.6156C56.6274 44.6156 56.6472 44.6106 56.6648 44.6011L58.2392 43.7534C58.2594 43.7422 58.2825 43.7371 58.3055 43.7387C58.3286 43.7402 58.3508 43.7483 58.3694 43.762C58.388 43.7757 58.4023 43.7945 58.4106 43.8161C58.4189 43.8376 58.4208 43.8611 58.4162 43.8838L58.0808 45.7035C58.077 45.7237 58.0784 45.7446 58.0849 45.7642C58.0914 45.7838 58.1029 45.8013 58.1181 45.8153L59.444 47.0512C59.4606 47.0665 59.4725 47.0862 59.4784 47.108C59.4843 47.1298 59.484 47.1528 59.4776 47.1745C59.4711 47.1961 59.4587 47.2155 59.4418 47.2305C59.4249 47.2455 59.4042 47.2554 59.3819 47.2592Z" fill="#F0A01F"/>
<path d="M50.5881 48.7464L49.3491 48.911C49.3299 48.9137 49.3116 48.921 49.2959 48.9324C49.2802 48.9437 49.2675 48.9588 49.259 48.9762L48.6846 50.1066C48.6743 50.1266 48.6584 50.1434 48.6389 50.1547C48.6194 50.1661 48.597 50.1716 48.5744 50.1706C48.5519 50.1696 48.5301 50.1622 48.5116 50.1492C48.4932 50.1362 48.4788 50.1181 48.4703 50.0972L47.9766 48.9452C47.9685 48.9272 47.956 48.9115 47.9403 48.8995C47.9245 48.8876 47.906 48.8798 47.8865 48.8769L46.6692 48.6937C46.6477 48.6906 46.6275 48.6816 46.6107 48.6678C46.594 48.654 46.5813 48.6358 46.5743 48.6152C46.5672 48.5946 46.566 48.5725 46.5707 48.5513C46.5754 48.5301 46.5858 48.5106 46.6009 48.4949L47.5201 47.5789C47.5335 47.5651 47.5433 47.5483 47.5487 47.5299C47.5541 47.5115 47.5549 47.4921 47.5511 47.4733L47.3182 46.2436C47.3142 46.2216 47.3165 46.1988 47.3249 46.178C47.3333 46.1572 47.3475 46.1393 47.3657 46.1262C47.384 46.1132 47.4055 46.1056 47.4279 46.1044C47.4503 46.1032 47.4726 46.1084 47.4921 46.1194L48.579 46.7591C48.5967 46.7699 48.6169 46.7759 48.6376 46.7764C48.6583 46.777 48.6788 46.7721 48.697 46.7622L49.7994 46.1567C49.8191 46.1463 49.8413 46.1417 49.8635 46.1434C49.8858 46.1451 49.907 46.1531 49.9249 46.1664C49.9428 46.1798 49.9565 46.1979 49.9645 46.2187C49.9725 46.2395 49.9745 46.2621 49.9701 46.284L49.7062 47.5664C49.7017 47.5864 49.7025 47.6073 49.7085 47.6269C49.7144 47.6465 49.7254 47.6642 49.7404 47.6782L50.6533 48.5446C50.6692 48.5599 50.6805 48.5794 50.6859 48.6009C50.6913 48.6223 50.6906 48.6449 50.6838 48.6659C50.677 48.6869 50.6644 48.7056 50.6475 48.7199C50.6306 48.7341 50.61 48.7433 50.5881 48.7464Z" fill="#F0A01F"/>
<path d="M63.4437 63.3414L63.1829 64.0028C63.1311 64.1353 63.0442 64.2367 62.922 64.3071C62.185 64.7356 61.5681 64.6042 61.0713 63.9127C61.003 63.8196 60.9688 63.715 60.9688 63.5991C60.9667 58.4092 60.9678 53.2203 60.9719 48.0324C60.9719 45.8246 63.3568 45.8743 63.3692 47.6722C63.3795 49.4091 63.3806 51.1512 63.3723 52.8984C63.372 52.9255 63.3796 52.9521 63.3942 52.9749C63.4087 52.9978 63.4296 53.0159 63.4543 53.0271C63.479 53.0383 63.5064 53.042 63.5332 53.0379C63.56 53.0338 63.585 53.022 63.6052 53.004C67.08 49.9329 71.8155 52.0444 72.8744 56.367C73.2718 57.9879 73.1569 59.5395 72.5297 61.0217C70.9988 64.6363 66.7166 65.9218 63.658 63.2886C63.6412 63.2745 63.6214 63.2645 63.6002 63.2595C63.5789 63.2545 63.5569 63.2546 63.5359 63.2598C63.5149 63.2649 63.4956 63.2751 63.4795 63.2893C63.4635 63.3035 63.4512 63.3213 63.4437 63.3414ZM69.1356 54.6528C67.0862 53.2927 64.779 54.1809 63.4592 56.0316C63.4046 56.1085 63.3753 56.1996 63.3754 56.2924V59.8728C63.3755 59.9808 63.4165 60.0851 63.4903 60.1647C64.3908 61.1335 65.4839 62.1024 66.8253 62.2328C70.8994 62.624 71.8341 56.4415 69.1356 54.6528Z" fill="#2A3579"/>
<path d="M88.7827 46.3584H88.7392C88.067 46.3584 87.522 46.9034 87.522 47.5757V63.3131C87.522 63.9854 88.067 64.5304 88.7392 64.5304H88.7827C89.455 64.5304 90 63.9854 90 63.3131V47.5757C90 46.9034 89.455 46.3584 88.7827 46.3584Z" fill="#2A3579"/>
<path d="M15.6912 49.4667C14.3228 49.4543 12.9544 49.4522 11.586 49.4605C9.44028 49.4698 9.59865 47.0632 11.3003 47.0601C15.0411 47.0498 18.7819 47.0488 22.5227 47.057C24.8113 47.0632 24.4884 49.6499 22.6159 49.4698C21.9741 49.4077 20.5975 49.416 18.4859 49.4947C18.3803 49.4988 18.3275 49.5537 18.3275 49.6592C18.3731 56.8324 18.3762 61.3381 18.3369 63.1764C18.2996 64.9309 15.862 64.993 15.8651 63.369C15.8754 58.7897 15.8733 54.2105 15.8589 49.6313C15.8589 49.5216 15.803 49.4667 15.6912 49.4667Z" fill="#2A3579"/>
<path d="M54.6591 51.1344C54.703 51.1275 54.748 51.1366 54.7858 51.16C54.8237 51.1834 54.8519 51.2195 54.8654 51.2619C54.8789 51.3043 54.8768 51.3501 54.8595 51.3911C54.8421 51.4321 54.8107 51.4655 54.7709 51.4853C54.0836 51.8517 53.9066 52.3951 54.2399 53.1156C54.256 53.1485 54.2609 53.1859 54.2538 53.2219C54.2467 53.258 54.2279 53.2907 54.2004 53.315C54.1729 53.3393 54.1382 53.354 54.1015 53.3566C54.0649 53.3593 54.0284 53.3499 53.9976 53.3298L53.2586 52.8671C53.1799 52.8195 53.1023 52.8195 53.0257 52.8671L52.3022 53.3112C52.2672 53.3326 52.2262 53.3422 52.1854 53.3387C52.1445 53.3351 52.1058 53.3187 52.075 53.2916C52.0441 53.2646 52.0227 53.2284 52.0139 53.1884C52.005 53.1483 52.0092 53.1065 52.0258 53.069C52.3446 52.3796 52.1718 51.8559 51.5072 51.4977C51.4733 51.4789 51.4466 51.4494 51.4314 51.4137C51.4162 51.378 51.4134 51.3382 51.4234 51.3007C51.4333 51.2632 51.4556 51.2302 51.4865 51.2068C51.5175 51.1834 51.5554 51.171 51.5942 51.1717C52.4078 51.1944 52.8435 50.8632 52.9015 50.178C52.9118 50.0496 52.9915 49.9917 53.1406 50.0041C53.1979 50.0073 53.2523 50.0305 53.2943 50.0696C53.3363 50.1088 53.3632 50.1614 53.3704 50.2183C53.4615 50.9367 53.891 51.242 54.6591 51.1344Z" fill="#F0A01F"/>
<path d="M29.7675 63.2728C29.7655 63.2526 29.758 63.2333 29.7458 63.217C29.7336 63.2007 29.7172 63.188 29.6983 63.1803C29.6795 63.1726 29.6589 63.1703 29.6388 63.1734C29.6187 63.1766 29.5998 63.1852 29.5843 63.1983C26.8082 65.5397 20.9144 65.2757 21.5199 60.2794C21.9112 57.0685 25.653 56.5934 28.3732 56.7829C28.4647 56.7889 28.5558 56.7707 28.6372 56.7301C29.8047 56.1494 29.9569 55.0284 28.7986 54.3545C27.7273 53.7304 26.3268 53.8049 25.1499 54.0161C24.1532 54.1931 23.3241 53.8266 23.4731 52.715C23.6625 51.3145 27.5193 51.3704 28.2645 51.5008C29.9745 51.8031 31.139 52.6601 31.7579 54.072C32.6895 56.2053 32.2548 60.77 32.2362 63.4157C32.2237 64.8068 29.9569 65.0677 29.7675 63.2728ZM26.3672 59.0093C22.2838 59.1646 23.8302 63.2138 27.0348 62.3413C27.7905 62.1343 28.4405 61.7761 28.9849 61.2668C29.6578 60.6375 29.9113 59.7919 29.7457 58.7299C29.7312 58.6326 29.6764 58.5943 29.5812 58.615C28.5192 58.8365 27.4478 58.9679 26.3672 59.0093Z" fill="#2A3579"/>
<path d="M36.767 52.8796C40.2449 50.1035 45.1884 51.3487 45.1729 56.3792C45.1646 58.4618 45.1698 60.5506 45.1884 62.6456C45.1946 63.2936 45.1232 63.7439 44.9742 63.9964C44.3438 65.0584 42.7229 64.5398 42.726 63.1269C42.728 61.1603 42.727 59.1946 42.7229 57.2301C42.7104 52.1623 38.5277 53.392 36.6086 56.2239C36.554 56.3047 36.5258 56.4002 36.5279 56.4972C36.5879 58.7599 36.5755 61.0205 36.4906 63.2791C36.4192 65.1019 34.1306 64.9963 34.0809 62.9872C34.0023 59.6439 34.0199 56.3005 34.1337 52.9572C34.1989 51.032 36.2391 51.1034 36.5589 52.802C36.5858 52.9427 36.6552 52.9686 36.767 52.8796Z" fill="#2A3579"/>
<path d="M76.7094 59.2422C77.1845 61.9935 79.6935 62.686 82.0939 62.1581C83.1559 61.9221 84.4601 62.4593 83.7614 63.7511C83.1652 64.8534 79.7494 64.7354 78.8178 64.5336C72.4458 63.1549 72.6632 52.9261 78.7588 51.6561C84.8855 50.3798 87.379 59.0497 84.429 59.0124C81.8931 58.9814 79.3582 59.0114 76.8243 59.1025C76.7311 59.1046 76.6928 59.1512 76.7094 59.2422ZM76.7218 56.9257L83.1248 56.9009C83.1273 56.9009 83.1297 56.8999 83.1314 56.8981C83.1332 56.8964 83.1342 56.894 83.1342 56.8916V56.8698C83.1326 56.4612 83.0483 56.0569 82.8863 55.68C82.7242 55.3031 82.4875 54.961 82.1896 54.6732C81.8917 54.3854 81.5385 54.1576 81.1502 54.0028C80.7619 53.8479 80.3461 53.7691 79.9264 53.7708H79.8954C79.048 53.7741 78.2366 54.1051 77.6397 54.691C77.0428 55.2768 76.7092 56.0695 76.7125 56.8947V56.9164C76.7125 56.9189 76.7135 56.9212 76.7152 56.923C76.7169 56.9247 76.7193 56.9257 76.7218 56.9257Z" fill="#2A3579"/>
<path d="M56.3145 52.184C58.7863 52.1219 59.4881 57.0841 59.3328 58.6989C58.4975 67.3346 45.8622 66.4279 46.4584 57.4599C46.5889 55.5036 47.4614 52.5194 49.4084 51.8642C50.5263 51.4885 51.5014 52.9976 50.5263 54.013C49.0875 55.516 48.6704 57.3357 49.2749 59.4721C50.0481 62.2047 53.4484 63.1611 55.5041 61.2235C57.2585 59.5746 57.2306 56.1277 55.5475 54.4229C54.7961 53.6622 55.3208 52.212 56.3145 52.184Z" fill="#2A3579"/>
</svg>
