<svg width="100" height="100" viewBox="0 0 100 100" fill="none" xmlns="http://www.w3.org/2000/svg">
<g clip-path="url(#clip0_44_2931)">
<rect width="100" height="100" fill="white"/>
<g clip-path="url(#clip1_44_2931)">
<path d="M-0.0624981 0L-0.25 6.67568" stroke="#FDF1A6" stroke-width="1.25"/>
<path d="M-0.250001 6.67578L-10.7875 11.3746C-10.975 11.4621 -11.1646 11.4621 -11.3563 11.3746L-21.0938 6.85339C-21.3021 6.75557 -21.4062 6.78775 -21.4062 6.94991V9.54065C-21.4061 9.60019 -21.3827 9.65873 -21.3381 9.7112C-21.2934 9.76367 -21.2289 9.8085 -21.15 9.8418L-13.2938 13.2279C-12.8854 13.4029 -12.9292 13.4917 -13.425 13.4943L-21.1 13.5252C-21.3042 13.5252 -21.4062 13.5883 -21.4062 13.7144V15.726C-21.4062 15.8495 -21.3062 15.9113 -21.1062 15.9113L-0.387499 15.8997" stroke="#868887" stroke-width="1.25"/>
<path d="M-0.3875 15.8997C0.0374998 16.2394 -0.0104166 16.5856 -0.53125 16.9383" stroke="#80CFED" stroke-width="1.25"/>
<path d="M-0.306152 28.4631L-0.287401 33.0461" stroke="#80CFED" stroke-width="1.25"/>
<path d="M-0.356151 35.4827C0.0146822 35.928 -0.0207357 36.4067 -0.462402 36.919" stroke="#80CFED" stroke-width="1.25"/>
<path d="M-0.3125 45.5251L-0.206251 51.3553" stroke="#80CFED" stroke-width="1.25"/>
<path d="M-0.206483 51.3553C-5.33148 44.1159 -22.1065 45.9035 -21.719 53.6641C-21.344 61.3051 -5.63773 62.834 -0.281482 55.8456" stroke="#868887" stroke-width="1.25"/>
<path d="M-0.281347 55.8455L-0.200097 59.969C-0.19593 60.1003 -0.150096 60.2238 -0.0625959 60.3397C0.112404 60.5688 0.016569 60.7644 -0.350098 60.9265" stroke="#80CFED" stroke-width="1.25"/>
<path d="M-0.0377941 66.7297L-0.144043 72.9768" stroke="#80CFED" stroke-width="1.25"/>
<path d="M-0.143956 72.9768C-1.47729 71.0257 -3.36479 69.6769 -5.80646 68.9305C-12.6502 66.8378 -21.094 69.5289 -21.7252 74.3243C-22.7877 82.2934 -5.25021 84.888 -0.487705 77.3745C-0.477596 77.3484 -0.451673 77.3258 -0.415302 77.3113C-0.378931 77.2967 -0.334899 77.2914 -0.292326 77.2963C-0.249753 77.3013 -0.211902 77.3162 -0.186609 77.3379C-0.161316 77.3597 -0.150519 77.3866 -0.156456 77.4131V86.4864C-0.156456 86.7207 -0.248122 86.7348 -0.431455 86.5289C-2.03146 84.7451 -3.0877 83.5984 -5.9252 82.7876C-6.14187 82.7284 -6.2502 82.7721 -6.2502 82.9189V85.6139C-6.25015 85.7236 -6.18571 85.8293 -6.06895 85.9111C-2.55645 88.3281 -3.3752 91.6332 -8.06895 93.0308C-14.6502 94.9961 -20.5752 89.9613 -16.2252 86.3706C-14.8565 85.2432 -14.919 84.1853 -15.244 82.8725C-15.2773 82.7258 -15.4002 82.6859 -15.6127 82.7528C-24.8565 85.6563 -23.3815 94.8069 -12.769 95.9729C-7.39396 96.5637 -2.33771 94.6563 -0.518957 91.4401C-0.497535 91.4076 -0.458791 91.3805 -0.409122 91.3634C-0.359454 91.3463 -0.301828 91.3401 -0.245753 91.346C-0.189679 91.3518 -0.138506 91.3693 -0.100683 91.3956C-0.0628595 91.4218 -0.0406467 91.4552 -0.0377069 91.4903L-0.0189552 99.9999" stroke="#868887" stroke-width="1.25"/>
<path d="M100 7.31659C87.1334 6.06305 74.1772 5.50964 61.1313 5.65636C60.8647 5.65893 60.8105 5.72586 60.9689 5.85713L86.2501 26.9537C86.4001 27.0772 86.3668 27.1802 86.1501 27.2625L59.7251 37.3243" stroke="#F5905C" stroke-width="1.25"/>
<path d="M59.725 37.3241C41.45 27.9998 19.6187 19.6369 -0.0625 12.3589" stroke="#7EC194" stroke-width="1.25"/>
<path d="M-0.0622058 12.3592L-0.324707 9.6333" stroke="#FDF1A6" stroke-width="1.25"/>
<path d="M-0.324707 9.63331L-0.249708 6.67578" stroke="#847A2E" stroke-width="1.25"/>
<path d="M47.8066 100L75.8754 87.888C76.1921 87.7516 76.1983 87.6087 75.8941 87.4594L50.1004 74.7529C49.7921 74.601 49.7879 74.4453 50.0879 74.2857L78.7191 58.9498C78.7597 58.9277 78.7921 58.9006 78.8141 58.8701C78.8361 58.8396 78.8472 58.8066 78.8466 58.7732C78.846 58.7398 78.8337 58.707 78.8107 58.6768C78.7876 58.6466 78.7542 58.6199 78.7129 58.5984L65.9629 52.1428" stroke="#7E273D" stroke-width="1.25"/>
<path d="M65.9621 52.143L47.1496 42.6025C47.0874 42.5701 47.0384 42.5292 47.0066 42.4831C46.9748 42.4369 46.961 42.3869 46.9665 42.3371C46.972 42.2873 46.9966 42.2392 47.0382 42.1967C47.0798 42.1543 47.1373 42.1186 47.2058 42.0928L59.7246 37.3245" stroke="#776EA2" stroke-width="1.25"/>
<path d="M-0.393555 13.5713L-0.387303 15.8995" stroke="#075875" stroke-width="1.25"/>
<path d="M-0.0623031 12.3589C-0.0873031 13.0307 -0.197721 13.4348 -0.393555 13.5712" stroke="#80CFED" stroke-width="1.25"/>
<path d="M65.9622 52.1428C43.1872 58.7181 20.7372 66.4401 0.568457 75.5675C0.534787 75.5833 0.494907 75.5931 0.452914 75.5958C0.410922 75.5986 0.36833 75.5942 0.329514 75.5832C0.290697 75.5722 0.257058 75.5549 0.232048 75.5332C0.207038 75.5114 0.191561 75.486 0.187206 75.4594L-0.144043 72.9768" stroke="#075875" stroke-width="1.25"/>
<path d="M-0.0375977 66.7298L0.156153 61.0695C0.156153 60.9563 0.0665697 60.8997 -0.112597 60.8997C-0.19593 60.8997 -0.275098 60.9087 -0.350098 60.9267" stroke="#075875" stroke-width="1.25"/>
<path d="M-0.280762 55.8458C0.277572 54.4198 0.302571 52.923 -0.205762 51.3555" stroke="#075875" stroke-width="1.25"/>
<path d="M-0.312305 45.525L-0.331055 43.0964" stroke="#075875" stroke-width="1.25"/>
<path d="M-0.331053 43.0965C0.0647805 42.0308 0.054362 40.969 -0.362305 39.9111" stroke="#80CFED" stroke-width="1.25"/>
<path d="M-0.362402 39.9112L-0.462402 36.9189" stroke="#075875" stroke-width="1.25"/>
<path d="M-0.355957 35.4827L-0.287207 33.0464" stroke="#075875" stroke-width="1.25"/>
<path d="M-0.306075 28.4633C-0.593575 27.5367 -0.583157 26.7014 -0.274823 25.9575" stroke="#075875" stroke-width="1.25"/>
<path d="M-0.275292 25.9575L-0.300293 19.3938" stroke="#80CFED" stroke-width="1.25"/>
<path d="M-0.300001 19.3936L-0.53125 16.938" stroke="#075875" stroke-width="1.25"/>
<path d="M-21.875 0H-0.0625L-0.25 6.67568L-10.7875 11.3745C-10.975 11.462 -11.1646 11.462 -11.3562 11.3745L-21.0938 6.85328C-21.3021 6.75547 -21.4062 6.78764 -21.4062 6.94981V9.54054C-21.4061 9.60008 -21.3827 9.65862 -21.3381 9.71109C-21.2934 9.76357 -21.2289 9.8084 -21.15 9.8417L-13.2938 13.2278C-12.8854 13.4028 -12.9292 13.4916 -13.425 13.4942L-21.1 13.5251C-21.3042 13.5251 -21.4062 13.5882 -21.4062 13.7143V15.7259C-21.4062 15.8494 -21.3062 15.9112 -21.1062 15.9112L-0.387499 15.8996C0.0375004 16.2394 -0.010416 16.5856 -0.53125 16.9382L-20.4188 21.5637C-20.7884 21.6498 -21.1068 21.8035 -21.3316 22.0042C-21.5563 22.2049 -21.6767 22.4432 -21.6767 22.6873C-21.6767 22.9313 -21.5563 23.1696 -21.3316 23.3703C-21.1068 23.571 -20.7884 23.7247 -20.4188 23.8108L-0.306252 28.4633L-0.287498 33.0463L-7.94375 33.0116C-7.98996 33.0116 -8.03571 33.0059 -8.07825 32.9947C-8.12079 32.9836 -8.15926 32.9672 -8.19135 32.9467C-8.22344 32.9261 -8.24849 32.9018 -8.26501 32.8751C-8.28153 32.8485 -8.28918 32.82 -8.2875 32.7915C-8.2375 31.6988 -8.18125 30.4672 -8.90625 29.529C-10.9812 26.8224 -17.9688 26.7027 -20.3875 29.2162C-21.9812 30.8687 -21.3625 33.8224 -21.4313 35.2626C-21.4321 35.2933 -21.423 35.3238 -21.4045 35.3524C-21.386 35.3809 -21.3586 35.4069 -21.3236 35.4289C-21.2887 35.4508 -21.2471 35.4682 -21.2012 35.4801C-21.1553 35.492 -21.106 35.4981 -21.0563 35.4981L-0.356251 35.4826C0.0145836 35.9279 -0.020834 36.4067 -0.462502 36.9189L-7.64375 40.0656C-7.84375 40.1557 -8.00833 40.1351 -8.1375 40.0039C-8.51875 39.6293 -8.70625 39.1853 -9.0875 38.8803C-12.6438 36 -20.5062 36.6448 -21.2625 40.5405C-21.4958 41.74 -21.5188 43.3372 -21.3313 45.332C-21.3146 45.4685 -21.1958 45.5367 -20.975 45.5367L-0.3125 45.5251L-0.206251 51.3552C-5.33125 44.1158 -22.1063 45.9035 -21.7188 53.6641C-21.3438 61.305 -5.6375 62.834 -0.28125 55.8456L-0.200001 59.9691C-0.195833 60.1004 -0.15 60.2239 -0.0625 60.3398C0.112501 60.5689 0.0166664 60.7645 -0.35 60.9266L-3.59375 60.9035C-3.80208 60.9009 -3.90625 60.964 -3.90625 61.0927V64.0927C-3.90625 64.1695 -3.95564 64.2431 -4.04354 64.2974C-4.13145 64.3517 -4.25068 64.3822 -4.375 64.3822H-20.9375C-21.0618 64.3822 -21.181 64.4127 -21.269 64.467C-21.3569 64.5214 -21.4062 64.595 -21.4062 64.6718V66.4981C-21.4062 66.6422 -21.2896 66.7143 -21.0563 66.7143L-0.0375004 66.7297L-0.143749 72.9768C-1.47708 71.0257 -3.36458 69.677 -5.80625 68.9305C-12.65 66.8378 -21.0938 69.529 -21.725 74.3243C-22.7875 82.2934 -5.25 84.888 -0.487499 77.3745C-0.47739 77.3485 -0.451468 77.3259 -0.415096 77.3113C-0.378725 77.2968 -0.334692 77.2914 -0.29212 77.2964C-0.249548 77.3014 -0.211697 77.3163 -0.186403 77.338C-0.16111 77.3597 -0.150312 77.3866 -0.15625 77.4131V86.4865C-0.15625 86.7207 -0.247915 86.7349 -0.43125 86.529C-2.03125 84.7452 -3.0875 83.5985 -5.925 82.7876C-6.14167 82.7284 -6.25 82.7722 -6.25 82.9189V85.6139C-6.24994 85.7236 -6.1855 85.8293 -6.06875 85.9112C-2.55625 88.3282 -3.375 91.6332 -8.06875 93.0309C-14.65 94.9961 -20.575 89.9614 -16.225 86.3707C-14.8562 85.2432 -14.9188 84.1853 -15.2438 82.8726C-15.2771 82.7259 -15.4 82.686 -15.6125 82.7529C-24.8562 85.6564 -23.3812 94.807 -12.7688 95.973C-7.39375 96.5637 -2.3375 94.6564 -0.518751 91.4402C-0.49733 91.4076 -0.458586 91.3806 -0.408916 91.3634C-0.359247 91.3463 -0.301622 91.3402 -0.245548 91.346C-0.189472 91.3519 -0.1383 91.3694 -0.100477 91.3956C-0.0626526 91.4218 -0.0404415 91.4553 -0.0375004 91.4903L-0.0187492 100H-21.875V0Z" fill="white"/>
<path d="M-0.0622058 0H100V7.3166C87.1336 6.06306 74.1774 5.50965 61.1315 5.65637C60.8649 5.65895 60.8107 5.72587 60.969 5.85714L86.2503 26.9537C86.4003 27.0772 86.367 27.1802 86.1503 27.2626L59.7253 37.3243C41.4503 28 19.619 19.6371 -0.0622058 12.3591L-0.324707 9.63321L-0.249708 6.67568L-0.0622058 0Z" fill="#FBE34D"/>
<path d="M99.9996 7.31684V100H47.8058L75.8746 87.8883C76.1912 87.7518 76.1975 87.609 75.8933 87.4597L50.0996 74.7531C49.7913 74.6013 49.7871 74.4455 50.0871 74.2859L78.7183 58.95C78.7589 58.928 78.7913 58.9008 78.8133 58.8704C78.8353 58.8399 78.8464 58.8068 78.8458 58.7735C78.8452 58.7401 78.8329 58.7072 78.8099 58.6771C78.7868 58.6469 78.7534 58.6202 78.7121 58.5987L65.9621 52.1431L47.1496 42.6025C47.0874 42.5702 47.0384 42.5293 47.0066 42.4832C46.9748 42.437 46.961 42.387 46.9665 42.3372C46.972 42.2874 46.9966 42.2393 47.0382 42.1968C47.0798 42.1543 47.1373 42.1187 47.2058 42.0929L59.7246 37.3246L86.1496 27.2628C86.3662 27.1804 86.3996 27.0775 86.2496 26.9539L60.9683 5.85738C60.81 5.7261 60.8642 5.65918 61.1308 5.6566C74.1767 5.50989 87.1329 6.0633 99.9996 7.31684Z" fill="#EE3C6A"/>
<path d="M-0.0625 12.3589C19.6187 19.6369 41.45 27.9998 59.725 37.3241L47.2062 42.0925C47.1377 42.1183 47.0802 42.1539 47.0386 42.1964C46.997 42.2389 46.9724 42.287 46.9669 42.3368C46.9614 42.3866 46.9752 42.4366 47.007 42.4827C47.0388 42.5289 47.0878 42.5698 47.15 42.6021L65.9625 52.1427C43.1875 58.718 20.7375 66.44 0.568749 75.5674C0.535079 75.5831 0.495199 75.5929 0.453207 75.5957C0.411214 75.5984 0.368622 75.5941 0.329806 75.5831C0.29099 75.5721 0.25735 75.5548 0.23234 75.533C0.207331 75.5113 0.191853 75.4858 0.187499 75.4593L-0.143751 72.9766L-0.0375018 66.7295L0.156249 61.0693C0.156249 60.9561 0.0666655 60.8994 -0.112501 60.8994C-0.195834 60.8994 -0.275002 60.9084 -0.350002 60.9265C0.0166649 60.7643 0.1125 60.5687 -0.0625 60.3396C-0.15 60.2237 -0.195834 60.1002 -0.200001 59.9689L-0.281251 55.8454C0.277082 54.4194 0.302081 52.9226 -0.206252 51.355L-0.312501 45.5249L-0.33125 43.0963C0.0645831 42.0307 0.0541646 40.9689 -0.362502 39.911L-0.462502 36.9187C-0.0208353 36.4065 0.0145826 35.9277 -0.356251 35.4824L-0.2875 33.0461L-0.306252 28.4631C-0.593752 27.5365 -0.583333 26.7012 -0.275 25.9573L-0.300001 19.3936L-0.53125 16.938C-0.0104167 16.5854 0.0374997 16.2392 -0.3875 15.8994L-0.393752 13.5712C-0.197918 13.4348 -0.0875 13.0307 -0.0625 12.3589Z" fill="#009FDA"/>
<path d="M-0.362729 39.9111C0.0539379 40.969 0.0643563 42.0308 -0.331477 43.0965L-7.48773 43.0656C-7.5292 43.0643 -7.56899 43.0551 -7.60159 43.0392C-7.63419 43.0233 -7.65798 43.0015 -7.66966 42.9769C-7.68134 42.9523 -7.68033 42.9261 -7.66677 42.9018C-7.6532 42.8776 -7.62776 42.8565 -7.59398 42.8416L-0.362729 39.9111Z" fill="white"/>
<path d="M-0.206482 51.3553C0.301851 52.9228 0.276852 54.4196 -0.281483 55.8456C-5.63773 62.834 -21.344 61.3051 -21.719 53.6641C-22.1065 45.9035 -5.33148 44.1159 -0.206482 51.3553ZM-3.88773 53.5406C-3.88773 52.4132 -4.61272 51.3319 -5.9032 50.5347C-7.19369 49.7375 -8.94396 49.2896 -10.769 49.2896C-12.594 49.2896 -14.3443 49.7375 -15.6348 50.5347C-16.9252 51.3319 -17.6502 52.4132 -17.6502 53.5406C-17.6502 54.0988 -17.4722 54.6516 -17.1264 55.1674C-16.7806 55.6831 -16.2737 56.1517 -15.6348 56.5465C-14.9958 56.9412 -14.2372 57.2543 -13.4023 57.468C-12.5675 57.6816 -11.6726 57.7915 -10.769 57.7915C-9.86532 57.7915 -8.97051 57.6816 -8.13564 57.468C-7.30077 57.2543 -6.54219 56.9412 -5.9032 56.5465C-5.26422 56.1517 -4.75735 55.6831 -4.41154 55.1674C-4.06572 54.6516 -3.88773 54.0988 -3.88773 53.5406Z" fill="#0D110F"/>
<path d="M65.9623 52.1431L78.7123 58.5987C78.7536 58.6201 78.787 58.6469 78.8101 58.677C78.8331 58.7072 78.8454 58.7401 78.846 58.7735C78.8466 58.8068 78.8355 58.8399 78.8135 58.8703C78.7915 58.9008 78.7591 58.928 78.7185 58.95L50.0873 74.2859C49.7873 74.4455 49.7915 74.6012 50.0998 74.7531L75.8935 87.4597C76.1977 87.609 76.1915 87.7518 75.8748 87.8882L47.806 100H-0.0189552L-0.0377064 91.4906C-0.0406475 91.4555 -0.0628586 91.4221 -0.100683 91.3958C-0.138506 91.3696 -0.189678 91.3521 -0.245754 91.3463C-0.301828 91.3404 -0.359453 91.3465 -0.409122 91.3637C-0.458792 91.3808 -0.497536 91.4078 -0.518957 91.4404C-2.33771 94.6566 -7.39396 96.5639 -12.769 95.9732C-23.3815 94.8072 -24.8565 85.6566 -15.6127 82.7531C-15.4002 82.6862 -15.2773 82.7261 -15.244 82.8728C-14.919 84.1855 -14.8565 85.2435 -16.2252 86.3709C-20.5752 89.9616 -14.6502 94.9963 -8.06895 93.0311C-3.3752 91.6334 -2.55645 88.3284 -6.06895 85.9114C-6.18571 85.8295 -6.25015 85.7238 -6.25021 85.6141V82.9191C-6.25021 82.7724 -6.14187 82.7286 -5.9252 82.7879C-3.0877 83.5987 -2.03146 84.7454 -0.431456 86.5292C-0.248121 86.7351 -0.156456 86.7209 -0.156456 86.4867V77.4133C-0.150518 77.3868 -0.161316 77.3599 -0.186609 77.3382C-0.211903 77.3165 -0.249754 77.3016 -0.292326 77.2966C-0.334898 77.2916 -0.378931 77.297 -0.415302 77.3115C-0.451674 77.3261 -0.477596 77.3487 -0.487705 77.3747C-5.25021 84.8882 -22.7877 82.2936 -21.7252 74.3245C-21.094 69.5292 -12.6502 66.838 -5.80646 68.9307C-3.36479 69.6772 -1.47729 71.0259 -0.143955 72.977L0.187294 75.4597C0.191648 75.4862 0.207125 75.5117 0.232136 75.5334C0.257145 75.5552 0.290785 75.5725 0.329601 75.5835C0.368418 75.5945 0.411009 75.5988 0.453001 75.5961C0.494995 75.5933 0.534874 75.5835 0.568544 75.5678C20.7373 66.4404 43.1873 58.7184 65.9623 52.1431ZM-3.92521 75.0156C-3.92521 73.8882 -4.65019 72.807 -5.94068 72.0098C-7.23116 71.2126 -8.98143 70.7647 -10.8065 70.7647C-12.6315 70.7647 -14.3817 71.2126 -15.6722 72.0098C-16.9627 72.807 -17.6877 73.8882 -17.6877 75.0156C-17.6877 75.5739 -17.5097 76.1267 -17.1639 76.6424C-16.8181 77.1582 -16.3112 77.6268 -15.6722 78.0215C-15.0333 78.4163 -14.2747 78.7294 -13.4398 78.943C-12.6049 79.1567 -11.7101 79.2666 -10.8065 79.2666C-9.9028 79.2666 -9.00799 79.1567 -8.17311 78.943C-7.33824 78.7294 -6.57966 78.4163 -5.94068 78.0215C-5.30169 77.6268 -4.79482 77.1582 -4.44901 76.6424C-4.10319 76.1267 -3.92521 75.5739 -3.92521 75.0156Z" fill="#0D110F"/>
<path d="M-0.35 60.9267C-0.275002 60.9087 -0.195833 60.8997 -0.112499 60.8997C0.0666656 60.8997 0.15625 60.9563 0.15625 61.0695L-0.0375004 66.7298L-21.0563 66.7143C-21.2896 66.7143 -21.4062 66.6423 -21.4062 66.4981V64.6719C-21.4062 64.5951 -21.3569 64.5214 -21.269 64.4671C-21.181 64.4128 -21.0618 64.3823 -20.9375 64.3823H-4.375C-4.25068 64.3823 -4.13145 64.3518 -4.04354 64.2975C-3.95564 64.2432 -3.90625 64.1695 -3.90625 64.0927V61.0927C-3.90625 60.964 -3.80208 60.9009 -3.59375 60.9035L-0.35 60.9267Z" fill="#0D110F"/>
</g>
</g>
<defs>
<clipPath id="clip0_44_2931">
<rect width="100" height="100" fill="white"/>
</clipPath>
<clipPath id="clip1_44_2931">
<rect width="100" height="100" fill="white"/>
</clipPath>
</defs>
</svg>
