<svg width="100" height="100" viewBox="0 0 100 100" fill="none" xmlns="http://www.w3.org/2000/svg">
<rect width="100" height="100" fill="#F0F3FA"/>
<path d="M51.74 45.3242C51.5379 45.3276 51.369 45.3555 51.2332 45.408C39.8495 49.8535 28.4738 54.2962 17.1061 58.736C17.0749 58.7481 17.0481 58.7694 17.0291 58.7972C17.0102 58.825 17 58.858 17 58.8918V61.4461C16.9999 61.4649 17.0043 61.4835 17.0128 61.5004C17.0213 61.5172 17.0336 61.5318 17.0488 61.543C17.064 61.5541 17.0816 61.5616 17.1002 61.5647C17.1188 61.5678 17.1378 61.5664 17.1558 61.5608C28.3466 58.0797 39.5551 54.5832 50.7812 51.0713C51.151 50.9549 51.5299 50.8967 51.918 50.8967C61.0658 50.8853 70.1965 50.8836 79.31 50.8916C79.3717 50.8916 79.4025 50.8602 79.4025 50.7974V45.4063C79.4025 45.3481 79.4322 45.319 79.4915 45.319L81.1676 45.3344C81.2303 45.3356 81.284 45.3139 81.3285 45.2694L82.9874 43.5967C82.9934 43.5902 82.9975 43.582 82.9992 43.5732C83.0008 43.5644 83 43.5554 82.9967 43.5472C82.9934 43.5391 82.9879 43.5321 82.9808 43.5272C82.9737 43.5224 82.9653 43.5197 82.9566 43.5197C72.5225 43.5368 62.1335 43.5323 51.7896 43.506C50.6545 43.5026 50.0434 42.4737 50.0399 41.4242C50.0342 40.3057 50.0348 39.1878 50.0416 38.0704C50.0502 36.5467 50.2419 35.273 52.0139 35.2661C53.1632 35.2616 54.3165 35.2627 55.4738 35.2696C55.5332 35.2707 55.5628 35.301 55.5628 35.3603V36.1187C55.5628 36.1758 55.5343 36.2049 55.4772 36.206C53.6454 36.2232 51.9351 35.9698 51.9248 38.4299C51.918 40.0478 51.5362 41.6981 53.428 42.436C53.7213 42.5513 54.1333 42.6186 54.664 42.638C56.7407 42.7168 59.2659 42.6209 60.8855 42.626C67.6216 42.6432 74.3572 42.63 81.0922 42.5867C81.712 42.5815 82.4413 42.0268 82.9754 41.7307C82.9798 41.7281 82.9832 41.7242 82.9852 41.7195C82.9873 41.7148 82.9877 41.7096 82.9866 41.7047C82.9854 41.6997 82.9827 41.6952 82.9789 41.6919C82.975 41.6886 82.9702 41.6866 82.9652 41.6861C75.0397 41.685 67.132 41.6856 59.2419 41.6879C57.8569 41.6879 57.4015 40.9637 57.4015 39.6163C57.4004 37.2743 57.4015 34.9306 57.405 32.5851C57.405 32.5315 57.4318 32.5058 57.4854 32.5081L58.6667 32.5355C58.7363 32.5378 58.7951 32.5646 58.843 32.616L62.8508 37.0021C62.8954 37.0512 62.9353 37.0472 62.9707 36.9901L67.4202 29.8186C67.4259 29.8088 67.434 29.8007 67.4436 29.7947C67.4532 29.7888 67.464 29.7852 67.4753 29.7844C67.4866 29.7836 67.4979 29.7855 67.5082 29.7899C67.5186 29.7944 67.5277 29.8013 67.5349 29.81L71.9416 35.0247C71.9838 35.0738 72.0066 35.0658 72.0101 35.0008C72.1316 32.6725 72.0357 30.3561 72.0717 28.0261C72.0728 27.9656 72.1036 27.9342 72.1641 27.9319C74.0211 27.8623 75.6526 27.8737 77.0587 27.9662C80.3749 28.1836 79.9281 33.424 77.1769 33.4309C76.4213 33.432 75.6646 33.4286 74.9068 33.4206C74.8508 33.4206 74.8229 33.3926 74.8229 33.3367V32.6143C74.8229 32.5423 74.8583 32.5081 74.929 32.5115C75.9237 32.5578 76.6547 32.6228 77.2026 31.7394C77.6819 30.9656 77.6562 30.2015 77.1255 29.447C76.5229 28.591 75.179 28.8341 73.9617 28.853C73.9081 28.8541 73.8813 28.8815 73.8813 28.9352V37.0209C73.8813 37.0436 73.8723 37.0654 73.8562 37.0815C73.8401 37.0975 73.8184 37.1065 73.7957 37.1065H72.4381C72.381 37.1065 72.3325 37.0854 72.2925 37.0432L68.4902 32.8745C68.432 32.8117 68.4029 32.8231 68.4029 32.9087V39.7173C68.4029 39.7514 68.3893 39.7841 68.3653 39.8081C68.3412 39.8322 68.3085 39.8457 68.2745 39.8457H66.6481C66.591 39.8457 66.5625 39.8172 66.5625 39.7601V33.5507C66.5624 33.5419 66.5595 33.5334 66.5542 33.5264C66.5489 33.5194 66.5414 33.5143 66.533 33.5118C66.5246 33.5093 66.5156 33.5096 66.5073 33.5126C66.4991 33.5156 66.492 33.5211 66.4871 33.5285L62.9707 39.2174C62.9353 39.2768 62.8942 39.2808 62.8474 39.2294L59.2813 35.2336C59.2764 35.2276 59.2697 35.2233 59.2622 35.2212C59.2547 35.2191 59.2468 35.2194 59.2395 35.2221C59.2322 35.2247 59.2259 35.2295 59.2214 35.2359C59.2169 35.2422 59.2145 35.2498 59.2145 35.2576C59.1986 36.3921 59.1934 37.5363 59.1991 38.6901C59.2043 40.0461 60.4027 40.7172 61.5977 40.7326C66.5396 40.7931 72.4563 40.7908 79.3477 40.7257C79.4013 40.7246 79.4476 40.7052 79.4864 40.6675L82.1057 38.1081C82.1754 38.0396 82.1611 38.0053 82.0629 38.0053H75.8073C75.7502 38.0053 75.7217 37.9768 75.7217 37.9197V36.0708C75.7217 36.0103 75.7479 35.9646 75.8004 35.9338C76.6747 35.4202 77.545 34.8992 78.4112 34.3708C79.4247 33.751 79.9281 33.121 80.1695 32.015C80.6608 29.7638 79.8818 27.0229 77.0896 27.0074C75.1185 26.996 73.1451 26.9977 71.1695 27.0126C71.1147 27.0137 71.0821 27.0405 71.0719 27.093L70.1953 31.4141C70.1933 31.4257 70.188 31.4363 70.18 31.4448C70.172 31.4534 70.1616 31.4594 70.1502 31.4623C70.1387 31.4652 70.1265 31.4647 70.1151 31.4611C70.1037 31.4574 70.0935 31.4506 70.0858 31.4415L67.4715 28.276C67.4651 28.2681 67.4569 28.2618 67.4475 28.2577C67.4381 28.2536 67.4278 28.2518 67.4174 28.2525C67.4071 28.2532 67.397 28.2563 67.3879 28.2615C67.3789 28.2668 67.3712 28.2741 67.3654 28.2829L62.7755 35.1959C62.7367 35.2542 62.6945 35.257 62.6488 35.2045L59.5724 31.611C59.5336 31.5654 59.4845 31.5425 59.4251 31.5425H57.3605C57.3125 31.5425 57.2731 31.5602 57.2423 31.5956L54.9277 34.2458C54.8933 34.285 54.8507 34.3165 54.8029 34.338C54.7551 34.3596 54.7031 34.3707 54.6504 34.3708C52.5035 34.3554 48.6104 33.7271 48.3502 36.9525C48.2269 38.4819 48.1967 40.0227 48.2594 41.5749C48.3519 43.8427 49.5126 45.0799 51.7417 45.2865C51.7441 45.2866 51.7466 45.2872 51.7488 45.2883C51.751 45.2893 51.7531 45.2908 51.7547 45.2926C51.7564 45.2944 51.7577 45.2966 51.7585 45.2989C51.7594 45.3012 51.7597 45.3037 51.7596 45.3062C51.7595 45.3086 51.7589 45.3111 51.7579 45.3133C51.7568 45.3156 51.7553 45.3176 51.7535 45.3192C51.7517 45.3209 51.7495 45.3222 51.7472 45.323C51.7449 45.3239 51.7424 45.3243 51.74 45.3242Z" stroke="#787A7D" stroke-width="0.3424"/>
<path d="M72.0099 72.8446C72.0185 72.8446 72.0268 72.8411 72.0329 72.835C72.039 72.8289 72.0424 72.8207 72.0424 72.812L72.039 61.2937C72.039 61.2533 72.0475 61.2132 72.064 61.1761C72.0805 61.139 72.1046 61.1055 72.1349 61.078C73.7185 59.6313 75.5349 58.1316 76.771 56.3922C77.6235 55.1938 78.475 53.9903 79.3253 52.7816C79.3686 52.7188 79.3527 52.6874 79.2773 52.6874C69.9287 52.684 60.58 52.6829 51.2313 52.684C50.8079 52.684 50.393 52.7405 49.9867 52.8535C39.152 55.8826 28.202 58.9511 17.1368 62.0589C17.066 62.0795 17.0518 62.1194 17.094 62.1788L20.6413 67.1624C20.6709 67.2047 20.6858 67.2509 20.6858 67.3011L20.6789 72.7367C20.6789 72.8086 20.7149 72.8446 20.7868 72.8446H72.0099Z" stroke="#787A7D" stroke-width="0.3424"/>
<path d="M74.797 45.3944C74.797 45.3885 74.7959 45.3827 74.7936 45.3773C74.7914 45.3719 74.7881 45.367 74.784 45.3629C74.7799 45.3588 74.775 45.3555 74.7696 45.3532C74.7641 45.351 74.7584 45.3499 74.7525 45.3499H55.6397C55.6339 45.3499 55.6281 45.351 55.6227 45.3532C55.6173 45.3555 55.6124 45.3588 55.6083 45.3629C55.6041 45.367 55.6008 45.3719 55.5986 45.3773C55.5964 45.3827 55.5952 45.3885 55.5952 45.3944V47.1201C55.5952 47.1319 55.5999 47.1432 55.6083 47.1515C55.6166 47.1599 55.6279 47.1646 55.6397 47.1646H74.7525C74.7584 47.1646 74.7641 47.1634 74.7696 47.1612C74.775 47.1589 74.7799 47.1557 74.784 47.1515C74.7881 47.1474 74.7914 47.1425 74.7936 47.1371C74.7959 47.1317 74.797 47.1259 74.797 47.1201V45.3944Z" stroke="#787A7D" stroke-width="0.3424"/>
<path d="M75.722 47.9999C75.722 48.028 75.7108 48.055 75.6909 48.0749C75.671 48.0948 75.644 48.106 75.6158 48.106H54.7277C54.6995 48.106 54.6725 48.0948 54.6526 48.0749C54.6327 48.055 54.6215 48.028 54.6215 47.9999V46.3718C54.6215 46.3578 54.6188 46.344 54.6135 46.3312C54.6081 46.3183 54.6003 46.3066 54.5904 46.2967C54.5806 46.2869 54.5689 46.279 54.556 46.2737C54.5431 46.2684 54.5293 46.2656 54.5154 46.2656H51.9885C51.9603 46.2656 51.9333 46.2768 51.9134 46.2967C51.8935 46.3166 51.8823 46.3436 51.8823 46.3718V49.8403C51.8823 49.8684 51.8935 49.8954 51.9134 49.9153C51.9333 49.9352 51.9603 49.9464 51.9885 49.9464H78.3584C78.3866 49.9464 78.4136 49.9352 78.4335 49.9153C78.4534 49.8954 78.4646 49.8684 78.4646 49.8403L78.4629 46.3718C78.4629 46.3436 78.4517 46.3166 78.4318 46.2967C78.4119 46.2768 78.3849 46.2656 78.3567 46.2656H75.8281C75.7999 46.2656 75.7729 46.2768 75.753 46.2967C75.7331 46.3166 75.722 46.3436 75.722 46.3718V47.9999Z" stroke="#7F0001" stroke-width="0.3424"/>
<path d="M18.0031 60.0475C17.9883 60.1182 18.0054 60.1833 18.0545 60.2426C18.0853 60.278 18.123 60.2889 18.1675 60.2752L50.8291 50.0785C50.8975 50.0568 50.9323 50.01 50.9335 49.9381L50.9763 46.6493C50.9774 46.558 50.9358 46.5289 50.8513 46.562L18.1195 59.3627C18.0556 59.3878 18.0157 59.4334 17.9997 59.4996C17.9677 59.6389 17.9689 59.7861 18.0031 59.9413C18.0111 59.9767 18.0111 60.0121 18.0031 60.0475Z" stroke="#7F0001" stroke-width="0.3424"/>
<path d="M55.7407 57.2653H74.7422C74.8019 57.2652 74.86 57.244 74.9065 57.2054C75.1359 57.0113 75.3391 56.7916 75.516 56.5462C76.1951 55.6012 76.8708 54.6551 77.543 53.7078C77.6012 53.6256 77.5795 53.5845 77.478 53.5845H52.4879C52.4731 53.5842 52.4585 53.5883 52.446 53.5962C52.4336 53.6042 52.4237 53.6156 52.4177 53.6291C52.4116 53.6426 52.4097 53.6576 52.4122 53.6722C52.4146 53.6868 52.4213 53.7004 52.4314 53.7112L55.5695 57.19C55.591 57.2137 55.6174 57.2326 55.6468 57.2456C55.6763 57.2586 55.7083 57.2653 55.7407 57.2653Z" stroke="#7F0001" stroke-width="0.3424"/>
<path d="M50.1461 53.7595L47.6431 54.458C47.4788 54.5037 47.4816 54.5265 47.6517 54.5265H50.735C50.832 54.5265 50.8491 54.4894 50.7864 54.4152L50.2728 53.7989C50.2581 53.7806 50.2383 53.767 50.2157 53.76C50.1931 53.753 50.1689 53.7528 50.1461 53.7595Z" stroke="#787A7D" stroke-width="0.3424"/>
<path d="M45.2016 55.5398C46.1655 56.781 47.1722 58.0102 48.3894 59.0494C48.4313 59.0858 48.4854 59.1059 48.5417 59.1059H54.7512C54.7684 59.106 54.7851 59.1007 54.799 59.0907C54.8129 59.0808 54.8233 59.0666 54.8288 59.0502C54.8342 59.0338 54.8345 59.016 54.8295 58.9993C54.8245 58.9825 54.8144 58.9677 54.8008 58.9569C54.4892 58.7161 54.1999 58.4376 53.9328 58.1215C53.1944 57.246 52.4548 56.3678 51.7141 55.4867C51.698 55.4674 51.6777 55.4519 51.6546 55.4413C51.6315 55.4306 51.6062 55.4251 51.5806 55.425H45.2581C45.2449 55.4253 45.232 55.4292 45.2209 55.4362C45.2097 55.4433 45.2007 55.4533 45.1949 55.4652C45.1891 55.477 45.1866 55.4903 45.1878 55.5034C45.189 55.5166 45.1938 55.5291 45.2016 55.5398Z" stroke="#7F0001" stroke-width="0.3424"/>
<path d="M43.1658 56.0362C43.07 55.8582 42.9416 55.7743 42.7293 55.8377C42.1826 55.9986 41.6347 56.1515 41.0857 56.2965C41.0777 56.299 41.0708 56.3042 41.0663 56.3113C41.0617 56.3183 41.0598 56.3268 41.0608 56.3351C41.0618 56.3435 41.0657 56.3512 41.0719 56.357C41.078 56.3627 41.0859 56.3661 41.0943 56.3667H43.3285C43.4243 56.3667 43.4386 56.333 43.3713 56.2657L43.2309 56.1253C43.2048 56.0992 43.1828 56.0691 43.1658 56.0362Z" stroke="#787A7D" stroke-width="0.3424"/>
<path d="M46.5476 60.0062C46.5594 60.0059 46.5709 60.002 46.5804 59.9951C46.5899 59.9881 46.5971 59.9784 46.601 59.9673C46.6049 59.9561 46.6054 59.9441 46.6022 59.9327C46.5991 59.9213 46.5926 59.9111 46.5836 59.9035C45.731 59.2016 45.0188 58.2257 44.3083 57.3697C44.2752 57.3298 44.2324 57.3098 44.1799 57.3098L39.0816 57.3047C38.9834 57.3047 38.9623 57.3446 39.0182 57.4245L40.7337 59.8881C40.759 59.9251 40.793 59.9553 40.8327 59.9762C40.8724 59.9971 40.9165 60.008 40.9614 60.0079L46.5476 60.0062Z" stroke="#7F0001" stroke-width="0.3424"/>
<path d="M37.1052 58.176C37.1349 58.2091 37.1725 58.2176 37.2182 58.2016C37.2268 58.1986 37.2345 58.1937 37.2409 58.1873C37.2473 58.1809 37.2521 58.1731 37.2549 58.1646C37.2577 58.1562 37.2585 58.1472 37.2572 58.1385C37.2559 58.1297 37.2525 58.1215 37.2473 58.1143L36.8707 57.5648C36.8566 57.5443 36.8365 57.5287 36.8132 57.5201C36.7899 57.5115 36.7645 57.5104 36.7405 57.5168L34.5081 58.14C34.5017 58.1409 34.496 58.1443 34.4921 58.1495C34.4883 58.1546 34.4866 58.161 34.4875 58.1674C34.4885 58.1738 34.4919 58.1795 34.497 58.1833C34.5021 58.1872 34.5086 58.1889 34.5149 58.188L37.0573 58.1537C37.0767 58.1537 37.0926 58.1611 37.1052 58.176Z" stroke="#787A7D" stroke-width="0.3424"/>
<path d="M56.8434 58.3628L59.1511 60.4737C59.1922 60.5114 59.2128 60.5588 59.2128 60.6158L59.1956 71.8568C59.1956 71.8804 59.205 71.9031 59.2217 71.9198C59.2384 71.9365 59.2611 71.9458 59.2847 71.9458H71.0564C71.1135 71.9458 71.142 71.9173 71.142 71.8602V60.8658C71.142 60.8064 71.1631 60.7568 71.2053 60.7168L73.7682 58.2858C73.823 58.2333 73.8127 58.207 73.7374 58.207H56.9033C56.7492 58.207 56.7292 58.259 56.8434 58.3628Z" stroke="#787A7D" stroke-width="0.3424"/>
<path d="M39.7253 61.8691C39.7903 61.9102 39.8354 61.8994 39.8605 61.8366C39.8616 61.8339 39.8619 61.831 39.8616 61.828C39.8613 61.8251 39.8604 61.8221 39.8588 61.8195L37.9688 59.1539C37.9582 59.1391 37.9442 59.127 37.9282 59.1186C37.9121 59.1103 37.8943 59.106 37.8763 59.106H32.5845C32.5743 59.1059 32.5643 59.1086 32.5556 59.1139C32.5469 59.1192 32.5399 59.1268 32.5353 59.1359C32.5307 59.1449 32.5286 59.1551 32.5295 59.1652C32.5303 59.1754 32.534 59.1851 32.54 59.1933L34.3718 61.7733C34.4061 61.8212 34.4529 61.8452 34.5122 61.8452H39.6448C39.6727 61.8452 39.7007 61.8535 39.7253 61.8691Z" stroke="#7F0001" stroke-width="0.3424"/>
<path d="M28.0971 60.0116L30.8226 60.0013C30.8877 60.0013 30.9019 59.975 30.8654 59.9225L30.4768 59.3627C30.4448 59.3171 30.4026 59.3017 30.3501 59.3165L28.0868 59.9397C28.0773 59.941 28.0687 59.9461 28.0629 59.9538C28.0571 59.9615 28.0547 59.9712 28.056 59.9807C28.0574 59.9903 28.0625 59.9989 28.0702 60.0047C28.0779 60.0104 28.0876 60.0129 28.0971 60.0116Z" stroke="#787A7D" stroke-width="0.3424"/>
<path d="M49.6974 60.0868L51.8271 61.8107C51.8637 61.8416 51.8819 61.8809 51.8819 61.9289V71.8602C51.8819 71.9173 51.9105 71.9458 51.9675 71.9458H57.3141C57.3689 71.9458 57.3957 71.9184 57.3946 71.8636L57.3843 61.4221C57.3843 61.3639 57.3626 61.3154 57.3192 61.2766L56.0301 60.1005C55.9924 60.0662 55.9485 60.0491 55.8983 60.0491L49.7145 60.0354C49.7087 60.0357 49.7031 60.0378 49.6985 60.0413C49.6938 60.0449 49.6903 60.0497 49.6885 60.0553C49.6867 60.0608 49.6865 60.0668 49.6881 60.0724C49.6897 60.078 49.6929 60.083 49.6974 60.0868Z" stroke="#787A7D" stroke-width="0.3424"/>
<path d="M26.9351 61.1996L26.5139 60.4754C26.5011 60.4531 26.4811 60.4357 26.4572 60.426C26.4333 60.4164 26.4068 60.4151 26.3821 60.4224L24.6205 60.912C24.5756 60.9243 24.5368 60.9525 24.5112 60.9912C24.4856 61.03 24.475 61.0768 24.4813 61.1228C24.4875 61.1688 24.5103 61.211 24.5454 61.2415C24.5804 61.272 24.6253 61.2888 24.6718 61.2886H26.8837C26.9533 61.2886 26.9705 61.259 26.9351 61.1996Z" stroke="#787A7D" stroke-width="0.3424"/>
<path d="M33.0206 63.0346L31.3583 60.6464C31.3183 60.5893 31.2635 60.5608 31.1939 60.5608H28.2082C28.118 60.5608 28.0918 60.6013 28.1294 60.6823C28.5495 61.5897 29.1235 62.3841 29.8517 63.0655C29.8962 63.1077 29.9487 63.1288 30.0092 63.1288H32.971C32.982 63.1289 32.9928 63.1259 33.0022 63.1203C33.0116 63.1147 33.0193 63.1065 33.0245 63.0968C33.0296 63.0871 33.0319 63.0762 33.0313 63.0652C33.0306 63.0542 33.0269 63.0437 33.0206 63.0346Z" stroke="#7F0001" stroke-width="0.3424"/>
<path d="M49.829 62.5025L47.9407 61.0028C47.8939 60.9651 47.8408 60.9463 47.7815 60.9463H41.8648C41.7872 60.9463 41.7781 60.9714 41.8374 61.0216L44.4944 63.2815C44.5401 63.3203 44.5629 63.3693 44.5629 63.4287V71.8603C44.5629 71.9174 44.5914 71.9459 44.6485 71.9459H49.9557C50.0128 71.9459 50.0413 71.9174 50.0413 71.8603V62.9408C50.0413 62.7616 49.9706 62.6155 49.829 62.5025Z" stroke="#787A7D" stroke-width="0.3424"/>
<path d="M23.8156 61.7064C23.7551 61.5683 23.6781 61.4347 23.5845 61.3057C23.5457 61.2532 23.4954 61.2361 23.4338 61.2544L21.5797 61.768C21.5684 61.7696 21.5581 61.7756 21.5512 61.7848C21.5443 61.7939 21.5413 61.8054 21.5429 61.8168C21.5445 61.8281 21.5505 61.8384 21.5597 61.8453C21.5688 61.8522 21.5803 61.8552 21.5917 61.8536L23.8104 61.8416C23.8221 61.8414 23.8334 61.8379 23.8432 61.8317C23.853 61.8255 23.8609 61.8166 23.866 61.8062C23.8711 61.7958 23.8733 61.7841 23.8723 61.7726C23.8712 61.761 23.867 61.7499 23.8601 61.7406C23.8498 61.7258 23.835 61.7143 23.8156 61.7064Z" stroke="#787A7D" stroke-width="0.3424"/>
<path d="M26.2123 63.6851H28.556C28.5721 63.6848 28.5878 63.6798 28.6011 63.6706C28.6144 63.6615 28.6247 63.6486 28.6307 63.6336C28.6368 63.6187 28.6382 63.6023 28.635 63.5864C28.6317 63.5706 28.6239 63.5561 28.6125 63.5447C28.1149 63.0699 27.7023 62.5312 27.3747 61.9286C27.3607 61.9032 27.3401 61.8821 27.3151 61.8673C27.2901 61.8526 27.2616 61.8448 27.2326 61.8447H25.1286C25.1108 61.8447 25.0934 61.8495 25.0781 61.8585C25.0628 61.8676 25.0502 61.8806 25.0416 61.8961C25.033 61.9117 25.0288 61.9293 25.0293 61.947C25.0299 61.9648 25.0352 61.9821 25.0447 61.9971L26.0462 63.5927C26.0641 63.621 26.0887 63.6443 26.1177 63.6605C26.1467 63.6766 26.1793 63.6851 26.2123 63.6851Z" stroke="#7F0001" stroke-width="0.3424"/>
<path d="M20.9787 62.4955L20.8024 62.0931C20.7919 62.0693 20.7731 62.0499 20.7496 62.0386C20.726 62.0273 20.6992 62.0248 20.674 62.0315L18.9295 62.5092C18.9223 62.5116 18.9162 62.5164 18.9122 62.5228C18.9081 62.5292 18.9065 62.5369 18.9075 62.5444C18.9085 62.5519 18.9121 62.5588 18.9177 62.5639C18.9233 62.5691 18.9305 62.5721 18.938 62.5725H20.9291C20.9382 62.5724 20.9471 62.5701 20.9551 62.5657C20.9631 62.5613 20.9698 62.555 20.9747 62.5474C20.9797 62.5398 20.9826 62.531 20.9833 62.5219C20.984 62.5129 20.9824 62.5038 20.9787 62.4955Z" stroke="#787A7D" stroke-width="0.3424"/>
<path d="M25.4797 64.456C25.4896 64.4559 25.4993 64.4531 25.5077 64.4479C25.5161 64.4427 25.523 64.4353 25.5275 64.4265C25.5321 64.4177 25.5342 64.4079 25.5336 64.398C25.533 64.3881 25.5298 64.3786 25.5242 64.3704L24.2436 62.4256C24.2387 62.4183 24.2321 62.4123 24.2243 62.4082C24.2166 62.404 24.2079 62.4017 24.1991 62.4016H21.8605C21.8514 62.4017 21.8425 62.404 21.8345 62.4084C21.8266 62.4128 21.8198 62.4191 21.8149 62.4267C21.81 62.4344 21.807 62.4431 21.8063 62.4522C21.8056 62.4612 21.8072 62.4703 21.8109 62.4787L22.708 64.4235C22.7122 64.4331 22.7192 64.4413 22.728 64.4471C22.7368 64.4528 22.7471 64.4559 22.7576 64.456H25.4797Z" stroke="#7F0001" stroke-width="0.3424"/>
<path d="M35.6164 62.7866C35.6057 62.7865 35.5951 62.7897 35.5862 62.7958C35.5773 62.8018 35.5705 62.8104 35.5666 62.8205C35.5627 62.8305 35.5619 62.8415 35.5644 62.8519C35.5669 62.8624 35.5725 62.8719 35.5805 62.8791L37.1846 64.3463C37.1901 64.3513 37.1944 64.3574 37.1973 64.3641C37.2003 64.3709 37.2018 64.3782 37.2017 64.3856V71.8928C37.2017 71.9068 37.2073 71.9203 37.2173 71.9303C37.2272 71.9402 37.2407 71.9458 37.2548 71.9458H42.6699C42.684 71.9458 42.6975 71.9402 42.7074 71.9303C42.7174 71.9203 42.723 71.9068 42.723 71.8928V64.2007C42.7228 64.1932 42.721 64.1858 42.7178 64.179C42.7145 64.1722 42.7099 64.1662 42.7041 64.1614L41.0948 62.7986C41.0852 62.7907 41.0731 62.7865 41.0606 62.7866H35.6164Z" stroke="#787A7D" stroke-width="0.3424"/>
<path d="M21.3143 63.1377L19.1024 63.1257C18.9643 63.1246 18.9352 63.18 19.0151 63.2918L20.1622 64.8977C20.178 64.9199 20.1988 64.938 20.2229 64.9505C20.2471 64.963 20.2738 64.9696 20.3008 64.9696H22.1361C22.2217 64.9696 22.2405 64.9342 22.1926 64.8634C21.8296 64.3361 21.5466 63.7678 21.3434 63.1583C21.3413 63.1523 21.3374 63.1471 21.3322 63.1434C21.3269 63.1397 21.3207 63.1377 21.3143 63.1377Z" stroke="#7F0001" stroke-width="0.3424"/>
<path d="M30.5266 63.6853C30.5162 63.6852 30.5061 63.6882 30.4974 63.6938C30.4887 63.6994 30.4819 63.7075 30.4777 63.7169C30.4735 63.7264 30.4722 63.7368 30.4739 63.747C30.4755 63.7572 30.4802 63.7667 30.4872 63.7743L31.7095 65.0772C31.7184 65.087 31.7233 65.0998 31.7232 65.1131V71.8926C31.7232 71.9067 31.7288 71.9202 31.7388 71.9302C31.7487 71.9401 31.7622 71.9457 31.7763 71.9457H35.3082C35.3223 71.9457 35.3358 71.9401 35.3457 71.9302C35.3557 71.9202 35.3612 71.9067 35.3612 71.8926V65.2124C35.3613 65.205 35.3598 65.1977 35.3568 65.1909C35.3539 65.1841 35.3496 65.178 35.3441 65.173L33.7485 63.699C33.7387 63.6901 33.7259 63.6852 33.7126 63.6853H30.5266Z" stroke="#787A7D" stroke-width="0.3424"/>
<path d="M30.3861 71.946C30.4011 71.946 30.4154 71.94 30.426 71.9294C30.4366 71.9188 30.4426 71.9044 30.4426 71.8895L30.4152 65.6526C30.415 65.6394 30.4101 65.6267 30.4015 65.6167L29.2185 64.2608C29.2131 64.2548 29.2065 64.25 29.1991 64.2467C29.1917 64.2435 29.1838 64.2418 29.1757 64.2419H26.8422C26.8311 64.2418 26.8201 64.245 26.8108 64.2511C26.8015 64.2572 26.7941 64.2659 26.7897 64.2762C26.7853 64.2864 26.7841 64.2978 26.7861 64.3087C26.7881 64.3197 26.7934 64.3298 26.8011 64.3378L28.0269 65.6304C28.037 65.641 28.0425 65.6551 28.0423 65.6698V71.8895C28.0423 71.8969 28.0438 71.9042 28.0466 71.9111C28.0495 71.9179 28.0536 71.9242 28.0589 71.9294C28.0641 71.9347 28.0704 71.9388 28.0772 71.9417C28.0841 71.9445 28.0914 71.946 28.0988 71.946H30.3861Z" stroke="#787A7D" stroke-width="0.3424"/>
<path d="M26.877 65.8991L26.1357 65.0208C26.1223 65.0047 26.1056 64.9918 26.0866 64.9829C26.0677 64.974 26.047 64.9695 26.0261 64.9695H23.2972C23.2435 64.9695 23.2338 64.9906 23.2681 65.0328L24.4322 66.4606C24.471 66.5074 24.4904 66.5616 24.4904 66.6233V71.8603C24.4904 71.9174 24.519 71.9459 24.576 71.9459H26.8444C26.9015 71.9459 26.93 71.9174 26.93 71.8603V66.0446C26.93 65.9915 26.9112 65.94 26.877 65.8991Z" stroke="#787A7D" stroke-width="0.3424"/>
<path d="M23.7621 66.9708C23.7621 66.9578 23.7579 66.9452 23.7501 66.9349L22.7075 65.5498C22.7019 65.5424 22.6946 65.5364 22.6863 65.5322C22.678 65.528 22.6688 65.5259 22.6595 65.5259H20.7164C20.7056 65.5261 20.695 65.5293 20.6858 65.535C20.6766 65.5408 20.6692 65.5489 20.6642 65.5586C20.6593 65.5683 20.6571 65.5791 20.6579 65.5899C20.6586 65.6007 20.6623 65.6111 20.6685 65.62L21.6101 66.9417C21.6175 66.9516 21.6217 66.9636 21.6221 66.9759V71.886C21.6221 71.9019 21.6284 71.9171 21.6396 71.9283C21.6508 71.9396 21.6661 71.9459 21.682 71.9459H23.7021C23.718 71.9459 23.7333 71.9396 23.7445 71.9283C23.7557 71.9171 23.7621 71.9019 23.7621 71.886V66.9708Z" stroke="#787A7D" stroke-width="0.3424"/>
<path d="M51.7417 45.2865C49.5126 45.0799 48.3519 43.8427 48.2594 41.5749C48.1967 40.0227 48.2269 38.4819 48.3502 36.9525C48.6104 33.7271 52.5035 34.3554 54.6504 34.3708C54.7031 34.3707 54.7551 34.3596 54.8029 34.338C54.8507 34.3165 54.8933 34.285 54.9277 34.2458L57.2423 31.5956C57.2731 31.5602 57.3125 31.5425 57.3605 31.5425H59.4251C59.4845 31.5425 59.5336 31.5654 59.5724 31.611L62.6488 35.2045C62.6945 35.257 62.7367 35.2542 62.7755 35.1959L67.3654 28.2829C67.3712 28.2741 67.3789 28.2668 67.3879 28.2615C67.397 28.2563 67.4071 28.2532 67.4174 28.2525C67.4278 28.2518 67.4381 28.2536 67.4475 28.2577C67.4569 28.2618 67.4651 28.2681 67.4715 28.276L70.0858 31.4415C70.0935 31.4506 70.1037 31.4574 70.1151 31.4611C70.1265 31.4647 70.1387 31.4652 70.1502 31.4623C70.1616 31.4594 70.172 31.4534 70.18 31.4448C70.188 31.4363 70.1933 31.4257 70.1953 31.4141L71.0719 27.093C71.0821 27.0405 71.1147 27.0137 71.1695 27.0126C73.1451 26.9977 75.1185 26.996 77.0896 27.0074C79.8818 27.0229 80.6608 29.7638 80.1695 32.015C79.9281 33.121 79.4247 33.751 78.4112 34.3708C77.545 34.8992 76.6747 35.4202 75.8004 35.9338C75.7479 35.9646 75.7217 36.0103 75.7217 36.0708V37.9197C75.7217 37.9768 75.7502 38.0053 75.8073 38.0053H82.0629C82.1611 38.0053 82.1754 38.0396 82.1057 38.1081L79.4864 40.6675C79.4476 40.7052 79.4013 40.7246 79.3477 40.7257C72.4563 40.7908 66.5396 40.7931 61.5977 40.7326C60.4027 40.7172 59.2043 40.0461 59.1991 38.6901C59.1934 37.5363 59.1986 36.3921 59.2145 35.2576C59.2145 35.2498 59.2169 35.2422 59.2214 35.2359C59.2259 35.2295 59.2322 35.2247 59.2395 35.2221C59.2468 35.2194 59.2547 35.2191 59.2622 35.2212C59.2697 35.2233 59.2764 35.2276 59.2813 35.2336L62.8474 39.2294C62.8942 39.2808 62.9353 39.2768 62.9707 39.2174L66.4871 33.5285C66.492 33.5211 66.4991 33.5156 66.5073 33.5126C66.5156 33.5096 66.5246 33.5093 66.533 33.5118C66.5414 33.5143 66.5489 33.5194 66.5542 33.5264C66.5595 33.5334 66.5624 33.5419 66.5625 33.5507V39.7601C66.5625 39.8172 66.591 39.8457 66.6481 39.8457H68.2745C68.3085 39.8457 68.3412 39.8322 68.3653 39.8081C68.3893 39.7841 68.4029 39.7514 68.4029 39.7173V32.9087C68.4029 32.8231 68.432 32.8117 68.4902 32.8745L72.2925 37.0432C72.3325 37.0854 72.381 37.1065 72.4381 37.1065H73.7957C73.8184 37.1065 73.8401 37.0975 73.8562 37.0815C73.8723 37.0654 73.8813 37.0436 73.8813 37.0209V28.9352C73.8813 28.8815 73.9081 28.8541 73.9617 28.853C75.179 28.8341 76.5229 28.591 77.1255 29.447C77.6562 30.2015 77.6819 30.9656 77.2026 31.7394C76.6547 32.6228 75.9237 32.5578 74.929 32.5115C74.8583 32.5081 74.8229 32.5423 74.8229 32.6143V33.3367C74.8229 33.3926 74.8508 33.4206 74.9068 33.4206C75.6646 33.4286 76.4213 33.432 77.1769 33.4309C79.9281 33.424 80.3749 28.1836 77.0587 27.9662C75.6526 27.8737 74.0211 27.8623 72.1641 27.9319C72.1036 27.9342 72.0728 27.9656 72.0717 28.0261C72.0357 30.3561 72.1316 32.6725 72.0101 35.0008C72.0066 35.0658 71.9838 35.0738 71.9416 35.0247L67.5349 29.81C67.5277 29.8013 67.5186 29.7944 67.5082 29.7899C67.4978 29.7855 67.4866 29.7836 67.4753 29.7844C67.464 29.7852 67.4532 29.7888 67.4436 29.7947C67.434 29.8007 67.4259 29.8088 67.4202 29.8186L62.9707 36.9901C62.9353 37.0472 62.8954 37.0512 62.8508 37.0021L58.843 32.616C58.7951 32.5646 58.7363 32.5378 58.6667 32.5355L57.4854 32.5081C57.4318 32.5058 57.405 32.5315 57.405 32.5851C57.4015 34.9306 57.4004 37.2743 57.4015 39.6163C57.4015 40.9637 57.8569 41.6879 59.2419 41.6879C67.132 41.6856 75.0397 41.685 82.9652 41.6861C82.9702 41.6866 82.975 41.6886 82.9789 41.6919C82.9827 41.6952 82.9854 41.6997 82.9866 41.7046C82.9877 41.7096 82.9873 41.7148 82.9853 41.7195C82.9832 41.7242 82.9798 41.7281 82.9754 41.7307C82.4413 42.0268 81.712 42.5815 81.0922 42.5867C74.3572 42.63 67.6216 42.6432 60.8855 42.626C59.2659 42.6209 56.7407 42.7168 54.664 42.638C54.1333 42.6186 53.7213 42.5513 53.428 42.436C51.5362 41.6981 51.918 40.0478 51.9248 38.4299C51.9351 35.9698 53.6454 36.2232 55.4772 36.206C55.5343 36.2049 55.5628 36.1758 55.5628 36.1187V35.3603C55.5628 35.301 55.5332 35.2707 55.4738 35.2696C54.3165 35.2627 53.1632 35.2616 52.0139 35.2661C50.2419 35.273 50.0502 36.5467 50.0416 38.0704C50.0348 39.1878 50.0342 40.3057 50.0399 41.4242C50.0434 42.4737 50.6545 43.5026 51.7896 43.506C62.1335 43.5323 72.5225 43.5368 82.9566 43.5197C82.9653 43.5197 82.9737 43.5224 82.9808 43.5272C82.9879 43.5321 82.9934 43.5391 82.9967 43.5472C83 43.5554 83.0008 43.5644 82.9992 43.5732C82.9975 43.582 82.9934 43.5902 82.9874 43.5967L81.3285 45.2694C81.284 45.3139 81.2303 45.3356 81.1675 45.3344L79.4915 45.319C79.4322 45.319 79.4025 45.3481 79.4025 45.4063V50.7974C79.4025 50.8602 79.3717 50.8916 79.31 50.8916C70.1965 50.8836 61.0658 50.8853 51.918 50.8967C51.5299 50.8967 51.151 50.9549 50.7812 51.0713C39.5551 54.5832 28.3466 58.0797 17.1558 61.5608C17.1378 61.5664 17.1188 61.5678 17.1002 61.5647C17.0816 61.5616 17.064 61.5541 17.0488 61.543C17.0336 61.5318 17.0213 61.5172 17.0128 61.5004C17.0043 61.4835 16.9999 61.4649 17 61.4461V58.8918C17 58.858 17.0102 58.825 17.0291 58.7972C17.0481 58.7694 17.0749 58.7481 17.1061 58.736C28.4738 54.2962 39.8495 49.8535 51.2332 45.408C51.369 45.3555 51.5379 45.3276 51.7399 45.3242C51.7424 45.3243 51.7449 45.3239 51.7472 45.323C51.7495 45.3222 51.7517 45.3209 51.7535 45.3192C51.7553 45.3176 51.7568 45.3156 51.7579 45.3133C51.7589 45.3111 51.7595 45.3086 51.7596 45.3062C51.7598 45.3037 51.7594 45.3012 51.7585 45.2989C51.7577 45.2966 51.7564 45.2944 51.7547 45.2926C51.7531 45.2908 51.751 45.2893 51.7488 45.2882C51.7466 45.2872 51.7441 45.2866 51.7417 45.2865ZM74.7972 45.3943C74.7972 45.3885 74.796 45.3827 74.7938 45.3773C74.7916 45.3719 74.7883 45.367 74.7842 45.3629C74.78 45.3587 74.7751 45.3555 74.7697 45.3532C74.7643 45.351 74.7585 45.3498 74.7527 45.3498H55.6399C55.634 45.3498 55.6283 45.351 55.6229 45.3532C55.6175 45.3555 55.6125 45.3587 55.6084 45.3629C55.6043 45.367 55.601 45.3719 55.5988 45.3773C55.5965 45.3827 55.5954 45.3885 55.5954 45.3943V47.12C55.5954 47.1318 55.6001 47.1432 55.6084 47.1515C55.6168 47.1599 55.6281 47.1646 55.6399 47.1646H74.7527C74.7585 47.1646 74.7643 47.1634 74.7697 47.1612C74.7751 47.1589 74.78 47.1557 74.7842 47.1515C74.7883 47.1474 74.7916 47.1425 74.7938 47.1371C74.796 47.1317 74.7972 47.1259 74.7972 47.12V45.3943ZM75.7217 48C75.7217 48.0282 75.7105 48.0552 75.6906 48.0751C75.6707 48.095 75.6437 48.1062 75.6155 48.1062H54.7274C54.6992 48.1062 54.6722 48.095 54.6523 48.0751C54.6324 48.0552 54.6212 48.0282 54.6212 48V46.3719C54.6212 46.358 54.6185 46.3442 54.6132 46.3313C54.6078 46.3184 54.6 46.3067 54.5902 46.2968C54.5803 46.287 54.5686 46.2792 54.5557 46.2738C54.5428 46.2685 54.529 46.2658 54.5151 46.2658H51.9882C51.96 46.2658 51.933 46.2769 51.9131 46.2968C51.8932 46.3167 51.882 46.3437 51.882 46.3719V49.8404C51.882 49.8686 51.8932 49.8956 51.9131 49.9155C51.933 49.9354 51.96 49.9466 51.9882 49.9466H78.3582C78.3863 49.9466 78.4133 49.9354 78.4332 49.9155C78.4531 49.8956 78.4643 49.8686 78.4643 49.8404L78.4626 46.3719C78.4626 46.3437 78.4514 46.3167 78.4315 46.2968C78.4116 46.2769 78.3846 46.2658 78.3564 46.2658H75.8278C75.7997 46.2658 75.7727 46.2769 75.7528 46.2968C75.7329 46.3167 75.7217 46.3437 75.7217 46.3719V48ZM18.0032 60.0474C17.9884 60.1181 18.0055 60.1832 18.0546 60.2425C18.0854 60.2779 18.1231 60.2888 18.1676 60.2751L50.8292 50.0784C50.8976 50.0567 50.9325 50.0099 50.9336 49.938L50.9764 46.6492C50.9775 46.5579 50.9359 46.5288 50.8514 46.5619L18.1197 59.3626C18.0557 59.3877 18.0158 59.4333 17.9998 59.4995C17.9679 59.6388 17.969 59.786 18.0032 59.9412C18.0112 59.9766 18.0112 60.012 18.0032 60.0474Z" fill="black"/>
<path d="M74.7525 45.3499H55.6397C55.6151 45.3499 55.5952 45.3698 55.5952 45.3944V47.1201C55.5952 47.1446 55.6151 47.1646 55.6397 47.1646H74.7525C74.7771 47.1646 74.797 47.1446 74.797 47.1201V45.3944C74.797 45.3698 74.7771 45.3499 74.7525 45.3499Z" fill="#F0F3FA"/>
<path d="M75.722 47.9999V46.3718C75.722 46.3436 75.7331 46.3166 75.753 46.2967C75.7729 46.2768 75.7999 46.2656 75.8281 46.2656H78.3567C78.3849 46.2656 78.4119 46.2768 78.4318 46.2967C78.4517 46.3166 78.4629 46.3436 78.4629 46.3718L78.4646 49.8403C78.4646 49.8684 78.4534 49.8954 78.4335 49.9153C78.4136 49.9352 78.3866 49.9464 78.3584 49.9464H51.9885C51.9603 49.9464 51.9333 49.9352 51.9134 49.9153C51.8935 49.8954 51.8823 49.8684 51.8823 49.8403V46.3718C51.8823 46.3436 51.8935 46.3166 51.9134 46.2967C51.9333 46.2768 51.9603 46.2656 51.9885 46.2656H54.5154C54.5293 46.2656 54.5431 46.2684 54.556 46.2737C54.5689 46.279 54.5806 46.2869 54.5904 46.2967C54.6003 46.3066 54.6081 46.3183 54.6135 46.3312C54.6188 46.344 54.6215 46.3578 54.6215 46.3718V47.9999C54.6215 48.028 54.6327 48.055 54.6526 48.0749C54.6725 48.0948 54.6995 48.106 54.7277 48.106H75.6158C75.644 48.106 75.671 48.0948 75.6909 48.0749C75.7108 48.055 75.722 48.028 75.722 47.9999Z" fill="#FE0002"/>
<path d="M18.0031 59.9413C17.9689 59.7861 17.9677 59.6389 17.9997 59.4996C18.0157 59.4334 18.0556 59.3878 18.1195 59.3627L50.8513 46.562C50.9358 46.5289 50.9774 46.558 50.9763 46.6493L50.9335 49.9381C50.9324 50.01 50.8975 50.0568 50.8291 50.0785L18.1675 60.2752C18.123 60.2889 18.0853 60.278 18.0545 60.2426C18.0054 60.1833 17.9883 60.1182 18.0031 60.0475C18.0111 60.0121 18.0111 59.9767 18.0031 59.9413Z" fill="#FE0002"/>
<path d="M72.0099 72.8446H20.7868C20.7149 72.8446 20.6789 72.8086 20.6789 72.7367L20.6858 67.3011C20.6858 67.2509 20.6709 67.2047 20.6413 67.1624L17.094 62.1788C17.0518 62.1194 17.066 62.0795 17.1368 62.0589C28.202 58.9511 39.152 55.8826 49.9867 52.8535C50.393 52.7405 50.8079 52.684 51.2313 52.684C60.58 52.6829 69.9287 52.684 79.2773 52.6874C79.3527 52.6874 79.3686 52.7188 79.3253 52.7816C78.475 53.9903 77.6235 55.1938 76.771 56.3922C75.5349 58.1316 73.7185 59.6313 72.1349 61.078C72.1046 61.1055 72.0805 61.139 72.064 61.1761C72.0475 61.2132 72.039 61.2533 72.039 61.2937L72.0424 72.812C72.0424 72.8207 72.039 72.8289 72.0329 72.835C72.0268 72.8411 72.0185 72.8446 72.0099 72.8446ZM55.7407 57.2653H74.7422C74.802 57.2653 74.8601 57.2441 74.9066 57.2054C75.136 57.0114 75.3392 56.7917 75.5161 56.5463C76.1952 55.6013 76.8708 54.6551 77.5431 53.7078C77.6013 53.6256 77.5796 53.5845 77.478 53.5845H52.4879C52.4731 53.5843 52.4586 53.5883 52.4461 53.5963C52.4336 53.6042 52.4237 53.6157 52.4177 53.6292C52.4117 53.6427 52.4098 53.6577 52.4122 53.6723C52.4147 53.6869 52.4213 53.7004 52.4314 53.7112L55.5695 57.19C55.5911 57.2137 55.6174 57.2327 55.6469 57.2456C55.6764 57.2586 55.7083 57.2653 55.7407 57.2653ZM50.1459 53.7592L47.643 54.4577C47.4786 54.5033 47.4815 54.5261 47.6515 54.5261H50.7348C50.8318 54.5261 50.849 54.489 50.7862 54.4149L50.2726 53.7985C50.258 53.7802 50.2381 53.7667 50.2155 53.7596C50.193 53.7526 50.1687 53.7525 50.1459 53.7592ZM45.2016 55.5396C46.1655 56.7808 47.1722 58.0101 48.3894 59.0493C48.4313 59.0857 48.4854 59.1057 48.5418 59.1057H54.7512C54.7684 59.1059 54.7851 59.1006 54.799 59.0906C54.8129 59.0806 54.8233 59.0665 54.8288 59.0501C54.8342 59.0337 54.8345 59.0159 54.8295 58.9992C54.8245 58.9824 54.8145 58.9676 54.8008 58.9568C54.4893 58.716 54.1999 58.4375 53.9329 58.1213C53.1944 57.2459 52.4548 56.3677 51.7141 55.4866C51.698 55.4673 51.6777 55.4518 51.6546 55.4411C51.6315 55.4305 51.6063 55.425 51.5806 55.4249H45.2581C45.2449 55.4252 45.232 55.429 45.2209 55.4361C45.2097 55.4432 45.2007 55.4532 45.1949 55.4651C45.1891 55.4769 45.1866 55.4901 45.1878 55.5033C45.189 55.5165 45.1938 55.529 45.2016 55.5396ZM43.1661 56.0361C43.0702 55.8581 42.9418 55.7742 42.7295 55.8375C42.1828 55.9985 41.635 56.1514 41.086 56.2963C41.078 56.2989 41.0711 56.3041 41.0665 56.3112C41.062 56.3182 41.06 56.3267 41.0611 56.335C41.0621 56.3434 41.066 56.3511 41.0721 56.3568C41.0782 56.3626 41.0862 56.366 41.0945 56.3665H43.3287C43.4246 56.3665 43.4388 56.3329 43.3715 56.2655L43.2311 56.1251C43.205 56.099 43.1831 56.069 43.1661 56.0361ZM46.5473 60.0063C46.5591 60.0059 46.5705 60.0021 46.58 59.9951C46.5896 59.9881 46.5968 59.9784 46.6007 59.9673C46.6046 59.9562 46.605 59.9441 46.6019 59.9327C46.5988 59.9213 46.5923 59.9111 46.5832 59.9035C45.7306 59.2016 45.0185 58.2258 44.308 57.3698C44.2749 57.3298 44.2321 57.3099 44.1796 57.3099L39.0812 57.3047C38.9831 57.3047 38.962 57.3447 39.0179 57.4246L40.7333 59.8881C40.7587 59.9251 40.7926 59.9554 40.8323 59.9762C40.872 59.9971 40.9162 60.008 40.961 60.008L46.5473 60.0063ZM37.1056 58.1761C37.1353 58.2092 37.1729 58.2178 37.2186 58.2018C37.2271 58.1988 37.2349 58.1939 37.2413 58.1875C37.2477 58.1811 37.2524 58.1733 37.2553 58.1648C37.2581 58.1563 37.2589 58.1474 37.2576 58.1386C37.2562 58.1299 37.2529 58.1216 37.2477 58.1145L36.871 57.5649C36.857 57.5445 36.8369 57.5288 36.8136 57.5202C36.7903 57.5117 36.7649 57.5105 36.7409 57.517L34.5085 58.1402C34.5021 58.1411 34.4964 58.1445 34.4925 58.1496C34.4887 58.1548 34.487 58.1612 34.4879 58.1676C34.4888 58.1739 34.4922 58.1797 34.4974 58.1835C34.5025 58.1874 34.509 58.189 34.5153 58.1881L37.0576 58.1539C37.077 58.1539 37.093 58.1613 37.1056 58.1761ZM56.8433 58.3627L59.151 60.4736C59.1921 60.5113 59.2127 60.5587 59.2127 60.6157L59.1955 71.8567C59.1955 71.8803 59.2049 71.903 59.2216 71.9197C59.2383 71.9364 59.261 71.9458 59.2846 71.9458H71.0563C71.1134 71.9458 71.1419 71.9172 71.1419 71.8602V60.8657C71.1419 60.8063 71.163 60.7567 71.2052 60.7167L73.7681 58.2857C73.8229 58.2332 73.8126 58.2069 73.7373 58.2069H56.9032C56.7491 58.2069 56.7291 58.2589 56.8433 58.3627ZM39.7249 61.8689C39.79 61.91 39.8351 61.8992 39.8602 61.8364C39.8612 61.8337 39.8616 61.8308 39.8613 61.8278C39.861 61.8248 39.86 61.8219 39.8585 61.8193L37.9684 59.1537C37.9578 59.1389 37.9439 59.1268 37.9278 59.1184C37.9118 59.1101 37.894 59.1057 37.876 59.1057H32.5842C32.574 59.1057 32.564 59.1084 32.5553 59.1137C32.5466 59.119 32.5396 59.1266 32.5349 59.1356C32.5303 59.1447 32.5283 59.1549 32.5292 59.165C32.53 59.1752 32.5336 59.1849 32.5397 59.1931L34.3715 61.773C34.4058 61.821 34.4525 61.8449 34.5119 61.8449H39.6445C39.6724 61.845 39.7003 61.8533 39.7249 61.8689ZM28.097 60.0114L30.8225 60.0011C30.8876 60.0011 30.9019 59.9749 30.8653 59.9224L30.4767 59.3625C30.4448 59.3169 30.4025 59.3015 30.35 59.3163L28.0868 59.9395C28.0772 59.9409 28.0686 59.9459 28.0628 59.9537C28.0571 59.9614 28.0546 59.971 28.0559 59.9806C28.0573 59.9901 28.0624 59.9987 28.0701 60.0045C28.0778 60.0103 28.0875 60.0128 28.097 60.0114ZM49.6974 60.0867L51.8271 61.8107C51.8636 61.8415 51.8819 61.8809 51.8819 61.9288V71.8602C51.8819 71.9172 51.9104 71.9458 51.9675 71.9458H57.3141C57.3688 71.9458 57.3957 71.9184 57.3945 71.8636L57.3843 61.4221C57.3843 61.3639 57.3626 61.3154 57.3192 61.2766L56.0301 60.1004C55.9924 60.0662 55.9484 60.0491 55.8982 60.0491L49.7145 60.0354C49.7086 60.0357 49.703 60.0377 49.6984 60.0413C49.6938 60.0448 49.6903 60.0497 49.6884 60.0552C49.6866 60.0608 49.6865 60.0667 49.6881 60.0723C49.6896 60.078 49.6929 60.083 49.6974 60.0867ZM26.9346 61.1995L26.5134 60.4753C26.5006 60.453 26.4806 60.4356 26.4567 60.4259C26.4328 60.4163 26.4063 60.415 26.3816 60.4223L24.6199 60.9119C24.5751 60.9242 24.5363 60.9524 24.5107 60.9911C24.4851 61.0299 24.4745 61.0767 24.4807 61.1227C24.487 61.1688 24.5098 61.2109 24.5449 61.2414C24.5799 61.2719 24.6248 61.2887 24.6713 61.2885H26.8832C26.9528 61.2885 26.97 61.2589 26.9346 61.1995ZM33.0207 63.0348L31.3584 60.6465C31.3184 60.5895 31.2637 60.5609 31.194 60.5609H28.2083C28.1181 60.5609 28.0919 60.6015 28.1296 60.6825C28.5496 61.5899 29.1237 62.3842 29.8518 63.0656C29.8963 63.1078 29.9488 63.1289 30.0093 63.1289H32.9711C32.9821 63.129 32.9929 63.1261 33.0023 63.1205C33.0117 63.1148 33.0194 63.1067 33.0246 63.097C33.0297 63.0873 33.0321 63.0763 33.0314 63.0653C33.0307 63.0544 33.027 63.0438 33.0207 63.0348ZM49.8292 62.5024L47.9408 61.0026C47.8941 60.965 47.841 60.9461 47.7816 60.9461H41.865C41.7873 60.9461 41.7782 60.9713 41.8376 61.0215L44.4946 63.2813C44.5402 63.3201 44.5631 63.3692 44.5631 63.4285V71.8602C44.5631 71.9172 44.5916 71.9458 44.6487 71.9458H49.9559C50.0129 71.9458 50.0415 71.9172 50.0415 71.8602V62.9406C50.0415 62.7614 49.9707 62.6153 49.8292 62.5024ZM23.8153 61.7063C23.7548 61.5682 23.6778 61.4346 23.5842 61.3057C23.5454 61.2532 23.4952 61.236 23.4335 61.2543L21.5794 61.7679C21.5681 61.7695 21.5578 61.7755 21.5509 61.7847C21.544 61.7938 21.541 61.8053 21.5426 61.8167C21.5442 61.828 21.5502 61.8383 21.5594 61.8452C21.5685 61.8521 21.5801 61.8551 21.5914 61.8535L23.8102 61.8415C23.8218 61.8413 23.8331 61.8379 23.8429 61.8316C23.8527 61.8254 23.8606 61.8166 23.8657 61.8061C23.8709 61.7957 23.873 61.7841 23.872 61.7725C23.8709 61.7609 23.8667 61.7499 23.8598 61.7405C23.8495 61.7257 23.8347 61.7143 23.8153 61.7063ZM26.2121 63.6853H28.5558C28.572 63.6851 28.5877 63.68 28.601 63.6709C28.6143 63.6617 28.6246 63.6488 28.6306 63.6339C28.6366 63.6189 28.6381 63.6025 28.6348 63.5867C28.6316 63.5709 28.6238 63.5564 28.6123 63.545C28.1147 63.0702 27.7021 62.5315 27.3746 61.9288C27.3605 61.9034 27.3399 61.8823 27.3149 61.8675C27.29 61.8528 27.2615 61.845 27.2325 61.8449H25.1284C25.1106 61.845 25.0932 61.8497 25.0779 61.8588C25.0626 61.8678 25.05 61.8808 25.0415 61.8964C25.0329 61.9119 25.0287 61.9295 25.0292 61.9473C25.0297 61.965 25.035 61.9823 25.0445 61.9973L26.046 63.5929C26.0639 63.6212 26.0885 63.6445 26.1176 63.6607C26.1466 63.6769 26.1791 63.6853 26.2121 63.6853ZM20.9785 62.4955L20.8022 62.0932C20.7916 62.0693 20.7729 62.05 20.7494 62.0387C20.7258 62.0274 20.699 62.0248 20.6738 62.0316L18.9293 62.5092C18.9221 62.5116 18.9159 62.5164 18.9119 62.5229C18.9079 62.5293 18.9063 62.5369 18.9073 62.5444C18.9083 62.5519 18.9119 62.5589 18.9175 62.564C18.9231 62.5691 18.9302 62.5721 18.9378 62.5725H20.9289C20.938 62.5725 20.9469 62.5702 20.9549 62.5658C20.9628 62.5614 20.9696 62.5551 20.9745 62.5474C20.9794 62.5398 20.9824 62.5311 20.9831 62.522C20.9838 62.5129 20.9822 62.5038 20.9785 62.4955ZM25.4794 64.4558C25.4893 64.4556 25.4989 64.4528 25.5074 64.4476C25.5158 64.4424 25.5226 64.435 25.5272 64.4262C25.5318 64.4175 25.5339 64.4076 25.5333 64.3977C25.5327 64.3879 25.5295 64.3783 25.5239 64.3702L24.2433 62.4253C24.2384 62.418 24.2317 62.4121 24.224 62.4079C24.2162 62.4037 24.2076 62.4015 24.1988 62.4013H21.8602C21.8511 62.4014 21.8422 62.4037 21.8342 62.4081C21.8262 62.4125 21.8195 62.4188 21.8146 62.4265C21.8096 62.4341 21.8067 62.4428 21.806 62.4519C21.8053 62.461 21.8069 62.4701 21.8106 62.4784L22.7076 64.4232C22.7119 64.4328 22.7189 64.441 22.7277 64.4468C22.7365 64.4526 22.7468 64.4557 22.7573 64.4558H25.4794ZM35.6161 62.7865C35.6054 62.7865 35.5949 62.7897 35.586 62.7957C35.5771 62.8018 35.5702 62.8104 35.5663 62.8204C35.5624 62.8304 35.5616 62.8414 35.5641 62.8519C35.5666 62.8623 35.5722 62.8718 35.5802 62.879L37.1843 64.3462C37.1898 64.3512 37.1941 64.3573 37.1971 64.3641C37.2 64.3708 37.2015 64.3782 37.2015 64.3856V71.8927C37.2015 71.9068 37.207 71.9203 37.217 71.9302C37.2269 71.9402 37.2404 71.9458 37.2545 71.9458H42.6696C42.6837 71.9458 42.6972 71.9402 42.7071 71.9302C42.7171 71.9203 42.7227 71.9068 42.7227 71.8927V64.2007C42.7225 64.1931 42.7207 64.1857 42.7175 64.179C42.7142 64.1722 42.7096 64.1661 42.7038 64.1613L41.0945 62.7985C41.0849 62.7906 41.0728 62.7864 41.0603 62.7865H35.6161ZM21.3141 63.1375L19.1022 63.1255C18.9641 63.1244 18.935 63.1797 19.0149 63.2916L20.1619 64.8974C20.1777 64.9197 20.1985 64.9378 20.2227 64.9503C20.2468 64.9628 20.2735 64.9694 20.3006 64.9694H22.1358C22.2214 64.9694 22.2403 64.934 22.1923 64.8632C21.8294 64.3359 21.5463 63.7675 21.3432 63.1581C21.341 63.152 21.3371 63.1468 21.3319 63.1431C21.3267 63.1395 21.3205 63.1375 21.3141 63.1375ZM30.5264 63.6853C30.516 63.6853 30.5059 63.6882 30.4972 63.6939C30.4885 63.6995 30.4817 63.7075 30.4775 63.717C30.4733 63.7264 30.472 63.7369 30.4737 63.7471C30.4753 63.7573 30.48 63.7668 30.487 63.7744L31.7093 65.0772C31.7183 65.0871 31.7231 65.0999 31.723 65.1132V71.8927C31.723 71.9068 31.7286 71.9203 31.7386 71.9302C31.7485 71.9402 31.762 71.9458 31.7761 71.9458H35.308C35.3221 71.9458 35.3356 71.9402 35.3455 71.9302C35.3555 71.9203 35.3611 71.9068 35.3611 71.8927V65.2125C35.3611 65.2051 35.3596 65.1977 35.3567 65.191C35.3537 65.1842 35.3494 65.1781 35.3439 65.1731L33.7483 63.699C33.7385 63.6901 33.7257 63.6853 33.7124 63.6853H30.5264ZM30.386 71.9458C30.401 71.9458 30.4153 71.9398 30.4259 71.9292C30.4365 71.9186 30.4425 71.9043 30.4425 71.8893L30.4151 65.6524C30.4149 65.6392 30.41 65.6265 30.4014 65.6165L29.2184 64.2606C29.213 64.2546 29.2064 64.2498 29.199 64.2465C29.1916 64.2433 29.1837 64.2417 29.1756 64.2417H26.8421C26.831 64.2416 26.82 64.2448 26.8107 64.2509C26.8013 64.257 26.794 64.2657 26.7896 64.276C26.7852 64.2862 26.784 64.2976 26.786 64.3085C26.788 64.3195 26.7933 64.3296 26.801 64.3376L28.0268 65.6302C28.0369 65.6408 28.0424 65.6549 28.0422 65.6696V71.8893C28.0422 71.8967 28.0437 71.904 28.0465 71.9109C28.0494 71.9177 28.0535 71.924 28.0588 71.9292C28.064 71.9345 28.0703 71.9386 28.0771 71.9415C28.084 71.9443 28.0913 71.9458 28.0987 71.9458H30.386ZM26.8764 65.899L26.1351 65.0207C26.1217 65.0046 26.105 64.9917 26.086 64.9828C26.0671 64.9739 26.0464 64.9693 26.0255 64.9694H23.2966C23.2429 64.9694 23.2332 64.9905 23.2675 65.0327L24.4316 66.4605C24.4704 66.5073 24.4898 66.5615 24.4898 66.6231V71.8602C24.4898 71.9172 24.5184 71.9458 24.5754 71.9458H26.8438C26.9009 71.9458 26.9294 71.9172 26.9294 71.8602V66.0445C26.9294 65.9914 26.9106 65.9399 26.8764 65.899ZM23.7622 66.9707C23.7622 66.9577 23.758 66.9451 23.7502 66.9347L22.7076 65.5497C22.7021 65.5423 22.6948 65.5362 22.6865 65.5321C22.6782 65.5279 22.669 65.5258 22.6597 65.5258H20.7166C20.7057 65.526 20.6952 65.5291 20.686 65.5349C20.6768 65.5407 20.6693 65.5488 20.6644 65.5585C20.6595 65.5681 20.6573 65.579 20.658 65.5898C20.6588 65.6006 20.6624 65.611 20.6686 65.6199L21.6102 66.9416C21.6177 66.9515 21.6219 66.9634 21.6222 66.9758V71.8858C21.6222 71.9017 21.6285 71.917 21.6398 71.9282C21.651 71.9394 21.6663 71.9458 21.6822 71.9458H23.7023C23.7182 71.9458 23.7334 71.9394 23.7447 71.9282C23.7559 71.917 23.7622 71.9017 23.7622 71.8858V66.9707Z" fill="black"/>
<path d="M55.5695 57.19L52.4314 53.7112C52.4213 53.7004 52.4146 53.6868 52.4122 53.6722C52.4097 53.6576 52.4116 53.6426 52.4177 53.6291C52.4237 53.6156 52.4336 53.6042 52.446 53.5962C52.4585 53.5883 52.4731 53.5842 52.4879 53.5845H77.478C77.5795 53.5845 77.6012 53.6256 77.543 53.7078C76.8708 54.6551 76.1951 55.6012 75.516 56.5462C75.3391 56.7916 75.1359 57.0113 74.9065 57.2054C74.86 57.244 74.8019 57.2652 74.7422 57.2653H55.7407C55.7083 57.2653 55.6763 57.2586 55.6468 57.2456C55.6174 57.2326 55.591 57.2137 55.5695 57.19Z" fill="#FE0002"/>
<path d="M50.1461 53.7593C50.1689 53.7526 50.1931 53.7528 50.2157 53.7598C50.2383 53.7668 50.2581 53.7803 50.2728 53.7987L50.7864 54.415C50.8491 54.4892 50.832 54.5263 50.735 54.5263H47.6517C47.4816 54.5263 47.4788 54.5034 47.6431 54.4578L50.1461 53.7593Z" fill="#F0F3FA"/>
<path d="M48.3894 59.0494C47.1722 58.0102 46.1655 56.781 45.2016 55.5398C45.1938 55.5291 45.189 55.5166 45.1878 55.5034C45.1866 55.4903 45.1891 55.477 45.1949 55.4652C45.2007 55.4533 45.2097 55.4433 45.2209 55.4362C45.232 55.4292 45.2449 55.4253 45.2581 55.425H51.5806C51.6062 55.4251 51.6315 55.4306 51.6546 55.4413C51.6777 55.4519 51.698 55.4674 51.7141 55.4867C52.4548 56.3678 53.1944 57.246 53.9328 58.1215C54.1999 58.4376 54.4892 58.7161 54.8008 58.9569C54.8144 58.9677 54.8245 58.9825 54.8295 58.9993C54.8345 59.016 54.8342 59.0338 54.8288 59.0502C54.8233 59.0666 54.8129 59.0808 54.799 59.0907C54.7851 59.1007 54.7684 59.106 54.7512 59.1059H48.5417C48.4854 59.1059 48.4313 59.0858 48.3894 59.0494Z" fill="#FE0002"/>
<path d="M43.2309 56.1253L43.3713 56.2657C43.4386 56.333 43.4243 56.3667 43.3285 56.3667H41.0943C41.0859 56.3661 41.078 56.3627 41.0719 56.357C41.0657 56.3512 41.0618 56.3435 41.0608 56.3351C41.0598 56.3268 41.0617 56.3183 41.0663 56.3113C41.0708 56.3042 41.0777 56.299 41.0857 56.2965C41.6347 56.1515 42.1826 55.9986 42.7293 55.8377C42.9416 55.7743 43.07 55.8582 43.1658 56.0362C43.1828 56.0691 43.2048 56.0992 43.2309 56.1253Z" fill="#F0F3FA"/>
<path d="M46.5476 60.0062L40.9614 60.0079C40.9165 60.008 40.8724 59.9971 40.8327 59.9762C40.793 59.9553 40.759 59.9251 40.7337 59.8881L39.0182 57.4245C38.9623 57.3446 38.9834 57.3047 39.0816 57.3047L44.1799 57.3098C44.2324 57.3098 44.2752 57.3298 44.3083 57.3697C45.0188 58.2257 45.731 59.2016 46.5836 59.9035C46.5926 59.9111 46.5991 59.9213 46.6022 59.9327C46.6054 59.9441 46.6049 59.9561 46.601 59.9673C46.5971 59.9784 46.5899 59.9881 46.5804 59.9951C46.5709 60.002 46.5594 60.0059 46.5476 60.0062Z" fill="#FE0002"/>
<path d="M37.0573 58.1537L34.5149 58.188C34.5086 58.1889 34.5021 58.1872 34.497 58.1833C34.4919 58.1795 34.4885 58.1738 34.4875 58.1674C34.4866 58.161 34.4883 58.1546 34.4921 58.1495C34.496 58.1443 34.5017 58.1409 34.5081 58.14L36.7405 57.5168C36.7645 57.5104 36.7899 57.5115 36.8132 57.5201C36.8365 57.5287 36.8566 57.5443 36.8707 57.5648L37.2473 58.1143C37.2525 58.1215 37.2559 58.1297 37.2572 58.1385C37.2585 58.1472 37.2577 58.1562 37.2549 58.1646C37.2521 58.1731 37.2473 58.1809 37.2409 58.1873C37.2345 58.1937 37.2268 58.1986 37.2182 58.2016C37.1725 58.2176 37.1349 58.2091 37.1052 58.176C37.0926 58.1611 37.0767 58.1537 37.0573 58.1537Z" fill="#F0F3FA"/>
<path d="M56.9033 58.207H73.7374C73.8127 58.207 73.823 58.2333 73.7682 58.2858L71.2053 60.7168C71.1631 60.7568 71.142 60.8064 71.142 60.8658V71.8602C71.142 71.9173 71.1135 71.9458 71.0564 71.9458H59.2847C59.2611 71.9458 59.2384 71.9365 59.2217 71.9198C59.205 71.9031 59.1956 71.8804 59.1956 71.8568L59.2128 60.6158C59.2128 60.5588 59.1922 60.5114 59.1511 60.4737L56.8434 58.3628C56.7292 58.259 56.7492 58.207 56.9033 58.207Z" fill="#F0F3FA"/>
<path d="M39.6448 61.8452H34.5122C34.4529 61.8452 34.4061 61.8212 34.3718 61.7733L32.54 59.1933C32.534 59.1851 32.5303 59.1754 32.5295 59.1652C32.5286 59.1551 32.5307 59.1449 32.5353 59.1359C32.5399 59.1268 32.5469 59.1192 32.5556 59.1139C32.5643 59.1086 32.5743 59.1059 32.5845 59.106H37.8763C37.8943 59.106 37.9121 59.1103 37.9282 59.1186C37.9442 59.127 37.9582 59.1391 37.9688 59.1539L39.8588 61.8195C39.8604 61.8221 39.8613 61.8251 39.8616 61.828C39.8619 61.831 39.8616 61.8339 39.8605 61.8366C39.8354 61.8994 39.7903 61.9102 39.7253 61.8691C39.7007 61.8535 39.6727 61.8452 39.6448 61.8452Z" fill="#FE0002"/>
<path d="M28.0971 60.0116C28.0876 60.0129 28.0779 60.0104 28.0702 60.0047C28.0625 59.9989 28.0574 59.9903 28.056 59.9807C28.0547 59.9712 28.0571 59.9615 28.0629 59.9538C28.0687 59.9461 28.0773 59.941 28.0868 59.9397L30.3501 59.3165C30.4026 59.3017 30.4448 59.3171 30.4768 59.3627L30.8654 59.9225C30.9019 59.975 30.8877 60.0013 30.8226 60.0013L28.0971 60.0116Z" fill="#F0F3FA"/>
<path d="M51.8271 61.8107L49.6974 60.0868C49.6929 60.083 49.6897 60.078 49.6881 60.0724C49.6865 60.0668 49.6867 60.0608 49.6885 60.0553C49.6903 60.0497 49.6938 60.0449 49.6985 60.0413C49.7031 60.0378 49.7087 60.0357 49.7145 60.0354L55.8983 60.0491C55.9485 60.0491 55.9924 60.0662 56.0301 60.1005L57.3192 61.2766C57.3626 61.3154 57.3843 61.3639 57.3843 61.4221L57.3946 71.8636C57.3957 71.9184 57.3689 71.9458 57.3141 71.9458H51.9675C51.9105 71.9458 51.8819 71.9173 51.8819 71.8602V61.9289C51.8819 61.8809 51.8637 61.8416 51.8271 61.8107Z" fill="#F0F3FA"/>
<path d="M26.9351 61.1996C26.9705 61.259 26.9533 61.2886 26.8837 61.2886H24.6718C24.6253 61.2888 24.5804 61.272 24.5454 61.2415C24.5103 61.211 24.4875 61.1688 24.4813 61.1228C24.475 61.0768 24.4856 61.03 24.5112 60.9912C24.5368 60.9525 24.5756 60.9243 24.6205 60.912L26.3821 60.4224C26.4068 60.4151 26.4333 60.4164 26.4572 60.426C26.4811 60.4357 26.5011 60.4531 26.5139 60.4754L26.9351 61.1996Z" fill="#F0F3FA"/>
<path d="M33.0206 63.0346C33.0269 63.0437 33.0306 63.0542 33.0313 63.0652C33.0319 63.0762 33.0296 63.0871 33.0245 63.0968C33.0193 63.1065 33.0116 63.1147 33.0022 63.1203C32.9928 63.1259 32.982 63.1289 32.971 63.1288H30.0092C29.9487 63.1288 29.8962 63.1077 29.8517 63.0655C29.1235 62.3841 28.5495 61.5897 28.1294 60.6823C28.0918 60.6013 28.118 60.5608 28.2082 60.5608H31.1939C31.2635 60.5608 31.3183 60.5893 31.3583 60.6464L33.0206 63.0346Z" fill="#FE0002"/>
<path d="M49.829 62.5025C49.9706 62.6155 50.0413 62.7616 50.0413 62.9408V71.8603C50.0413 71.9174 50.0128 71.9459 49.9557 71.9459H44.6485C44.5914 71.9459 44.5629 71.9174 44.5629 71.8603V63.4287C44.5629 63.3693 44.5401 63.3203 44.4944 63.2815L41.8374 61.0216C41.7781 60.9714 41.7872 60.9463 41.8648 60.9463H47.7815C47.8408 60.9463 47.8939 60.9651 47.9407 61.0028L49.829 62.5025Z" fill="#F0F3FA"/>
<path d="M23.8156 61.7064C23.835 61.7143 23.8498 61.7258 23.8601 61.7406C23.867 61.7499 23.8712 61.761 23.8723 61.7726C23.8733 61.7841 23.8711 61.7958 23.866 61.8062C23.8609 61.8166 23.853 61.8255 23.8432 61.8317C23.8334 61.8379 23.8221 61.8414 23.8104 61.8416L21.5917 61.8536C21.5803 61.8552 21.5688 61.8522 21.5597 61.8453C21.5505 61.8384 21.5445 61.8281 21.5429 61.8168C21.5413 61.8054 21.5443 61.7939 21.5512 61.7848C21.5581 61.7756 21.5684 61.7696 21.5797 61.768L23.4338 61.2544C23.4954 61.2361 23.5457 61.2532 23.5845 61.3057C23.6781 61.4347 23.7551 61.5683 23.8156 61.7064Z" fill="#F0F3FA"/>
<path d="M26.0462 63.5927L25.0447 61.9971C25.0352 61.9821 25.0299 61.9648 25.0293 61.947C25.0288 61.9293 25.033 61.9117 25.0416 61.8961C25.0502 61.8806 25.0628 61.8676 25.0781 61.8585C25.0934 61.8495 25.1108 61.8447 25.1286 61.8447H27.2326C27.2616 61.8448 27.2901 61.8526 27.3151 61.8673C27.3401 61.8821 27.3607 61.9032 27.3747 61.9286C27.7023 62.5312 28.1149 63.0699 28.6125 63.5447C28.6239 63.5561 28.6317 63.5706 28.635 63.5864C28.6382 63.6023 28.6368 63.6187 28.6307 63.6336C28.6247 63.6486 28.6144 63.6615 28.6011 63.6706C28.5878 63.6798 28.5721 63.6848 28.556 63.6851H26.2123C26.1793 63.6851 26.1467 63.6766 26.1177 63.6605C26.0887 63.6443 26.0641 63.621 26.0462 63.5927Z" fill="#FE0002"/>
<path d="M20.9787 62.4955C20.9824 62.5038 20.984 62.5129 20.9833 62.5219C20.9826 62.531 20.9797 62.5398 20.9747 62.5474C20.9698 62.555 20.9631 62.5613 20.9551 62.5657C20.9471 62.5701 20.9382 62.5724 20.9291 62.5725H18.938C18.9305 62.5721 18.9233 62.5691 18.9177 62.5639C18.9121 62.5588 18.9085 62.5519 18.9075 62.5444C18.9065 62.5369 18.9081 62.5292 18.9122 62.5228C18.9162 62.5164 18.9223 62.5116 18.9295 62.5092L20.674 62.0315C20.6992 62.0248 20.726 62.0273 20.7496 62.0386C20.7731 62.0499 20.7919 62.0693 20.8024 62.0931L20.9787 62.4955Z" fill="#F0F3FA"/>
<path d="M25.4797 64.456H22.7576C22.7471 64.4559 22.7368 64.4528 22.728 64.4471C22.7192 64.4413 22.7122 64.4331 22.708 64.4235L21.8109 62.4787C21.8072 62.4703 21.8056 62.4612 21.8063 62.4522C21.807 62.4431 21.81 62.4344 21.8149 62.4267C21.8198 62.4191 21.8266 62.4128 21.8345 62.4084C21.8425 62.404 21.8514 62.4017 21.8605 62.4016H24.1991C24.2079 62.4017 24.2166 62.404 24.2243 62.4082C24.2321 62.4123 24.2387 62.4183 24.2436 62.4256L25.5242 64.3704C25.5298 64.3786 25.533 64.3881 25.5336 64.398C25.5342 64.4079 25.5321 64.4177 25.5275 64.4265C25.523 64.4353 25.5161 64.4427 25.5077 64.4479C25.4993 64.4531 25.4896 64.4559 25.4797 64.456Z" fill="#FE0002"/>
<path d="M35.6164 62.7866H41.0606C41.0731 62.7865 41.0852 62.7907 41.0948 62.7986L42.7041 64.1614C42.7099 64.1662 42.7145 64.1722 42.7178 64.179C42.721 64.1858 42.7228 64.1932 42.723 64.2007V71.8928C42.723 71.9068 42.7174 71.9203 42.7074 71.9303C42.6975 71.9402 42.684 71.9458 42.6699 71.9458H37.2548C37.2407 71.9458 37.2272 71.9402 37.2173 71.9303C37.2073 71.9203 37.2017 71.9068 37.2017 71.8928V64.3856C37.2018 64.3782 37.2003 64.3709 37.1973 64.3641C37.1944 64.3574 37.1901 64.3513 37.1846 64.3463L35.5805 62.8791C35.5725 62.8719 35.5669 62.8624 35.5644 62.8519C35.5619 62.8415 35.5627 62.8305 35.5666 62.8205C35.5705 62.8104 35.5773 62.8018 35.5862 62.7958C35.5951 62.7897 35.6057 62.7865 35.6164 62.7866Z" fill="#F0F3FA"/>
<path d="M21.3143 63.1377C21.3207 63.1377 21.3269 63.1397 21.3322 63.1434C21.3374 63.1471 21.3413 63.1523 21.3434 63.1583C21.5466 63.7678 21.8296 64.3361 22.1926 64.8634C22.2405 64.9342 22.2217 64.9696 22.1361 64.9696H20.3008C20.2738 64.9696 20.2471 64.963 20.2229 64.9505C20.1988 64.938 20.178 64.9199 20.1622 64.8977L19.0151 63.2918C18.9352 63.18 18.9643 63.1246 19.1024 63.1257L21.3143 63.1377Z" fill="#FE0002"/>
<path d="M30.5266 63.6853H33.7126C33.7259 63.6852 33.7387 63.6901 33.7485 63.699L35.3441 65.173C35.3496 65.178 35.3539 65.1841 35.3568 65.1909C35.3598 65.1977 35.3613 65.205 35.3612 65.2124V71.8926C35.3612 71.9067 35.3557 71.9202 35.3457 71.9302C35.3358 71.9401 35.3223 71.9457 35.3082 71.9457H31.7763C31.7622 71.9457 31.7487 71.9401 31.7388 71.9302C31.7288 71.9202 31.7232 71.9067 31.7232 71.8926V65.1131C31.7233 65.0998 31.7184 65.087 31.7095 65.0772L30.4872 63.7743C30.4802 63.7667 30.4755 63.7572 30.4739 63.747C30.4722 63.7368 30.4735 63.7264 30.4777 63.7169C30.4819 63.7075 30.4887 63.6994 30.4974 63.6938C30.5061 63.6882 30.5162 63.6852 30.5266 63.6853Z" fill="#F0F3FA"/>
<path d="M30.3861 71.946H28.0988C28.0914 71.946 28.0841 71.9445 28.0772 71.9417C28.0704 71.9388 28.0641 71.9347 28.0589 71.9294C28.0536 71.9242 28.0495 71.9179 28.0466 71.9111C28.0438 71.9042 28.0423 71.8969 28.0423 71.8895V65.6698C28.0425 65.6551 28.037 65.641 28.0269 65.6304L26.8011 64.3378C26.7934 64.3298 26.7881 64.3197 26.7861 64.3087C26.7841 64.2978 26.7853 64.2864 26.7897 64.2762C26.7941 64.2659 26.8015 64.2572 26.8108 64.2511C26.8201 64.245 26.8311 64.2418 26.8422 64.2419H29.1757C29.1838 64.2418 29.1917 64.2435 29.1991 64.2467C29.2065 64.25 29.2131 64.2548 29.2185 64.2608L30.4015 65.6167C30.4101 65.6267 30.415 65.6394 30.4152 65.6526L30.4426 71.8895C30.4426 71.9044 30.4366 71.9188 30.426 71.9294C30.4154 71.94 30.4011 71.946 30.3861 71.946Z" fill="#F0F3FA"/>
<path d="M26.93 66.0446V71.8603C26.93 71.9174 26.9015 71.9459 26.8444 71.9459H24.576C24.519 71.9459 24.4904 71.9174 24.4904 71.8603V66.6233C24.4904 66.5616 24.471 66.5074 24.4322 66.4606L23.2681 65.0328C23.2338 64.9906 23.2435 64.9695 23.2972 64.9695H26.0261C26.047 64.9695 26.0677 64.974 26.0866 64.9829C26.1056 64.9918 26.1223 65.0047 26.1357 65.0208L26.877 65.8991C26.9112 65.94 26.93 65.9915 26.93 66.0446Z" fill="#F0F3FA"/>
<path d="M23.7621 66.9708V71.886C23.7621 71.9019 23.7557 71.9171 23.7445 71.9283C23.7333 71.9396 23.718 71.9459 23.7021 71.9459H21.682C21.6661 71.9459 21.6508 71.9396 21.6396 71.9283C21.6284 71.9171 21.6221 71.9019 21.6221 71.886V66.9759C21.6217 66.9636 21.6175 66.9516 21.6101 66.9417L20.6685 65.62C20.6623 65.6111 20.6586 65.6007 20.6579 65.5899C20.6571 65.5791 20.6593 65.5683 20.6642 65.5586C20.6692 65.5489 20.6766 65.5408 20.6858 65.535C20.695 65.5293 20.7056 65.5261 20.7164 65.5259H22.6595C22.6688 65.5259 22.678 65.528 22.6863 65.5322C22.6946 65.5364 22.7019 65.5424 22.7075 65.5498L23.7501 66.9349C23.7579 66.9452 23.7621 66.9578 23.7621 66.9708Z" fill="#F0F3FA"/>
</svg>
