<svg width="100" height="100" viewBox="0 0 100 100" fill="none" xmlns="http://www.w3.org/2000/svg">
<rect width="100" height="100" fill="#EE2A31"/>
<path d="M52.589 44.5987C51.9541 44.798 49.747 45.698 49.2506 45.2809C48.6646 44.7895 49.3384 43.5484 49.7386 43.1718C50.0009 42.9253 50.4607 42.7069 51.1182 42.5166C52.0694 42.2419 53.0139 41.9785 53.9517 41.7263C53.992 41.7152 54.0294 41.6956 54.0614 41.6688C54.0935 41.642 54.1194 41.6087 54.1374 41.571L58.4198 32.444C58.4419 32.3953 58.4506 32.3411 58.4451 32.2869C58.3455 31.4207 58.6714 30.1981 59.6609 30.0208C60.4968 29.8705 61.0119 30.5561 60.8869 31.4055C60.5036 34.0498 60.485 36.8023 60.3212 39.472C60.3178 39.5238 60.3071 39.5739 60.2891 39.6223L60.252 39.727C60.2445 39.7463 60.2427 39.7674 60.2469 39.7877C60.251 39.8079 60.2609 39.8267 60.2754 39.8417C60.2898 39.8567 60.3083 39.8673 60.3287 39.8725C60.349 39.8776 60.3705 39.8769 60.3904 39.8705C60.7974 39.7371 62.8018 38.9367 62.4641 40.0833C62.132 41.2091 61.3946 41.9301 60.252 42.2464C60.1991 42.2622 60.1709 42.2977 60.1675 42.3528C59.9942 45.9271 59.7679 49.4974 59.4887 53.0638C59.42 53.9385 59.1898 54.6072 58.7981 55.0699C58.1851 55.7926 57.4049 55.1205 57.4607 54.3336C57.7252 50.5432 57.9937 46.7528 58.2661 42.9624C58.2706 42.887 58.2369 42.86 58.1648 42.8814L55.3853 43.7223C55.3324 43.7381 55.2953 43.7707 55.2739 43.8202C53.0044 48.9672 50.7225 54.1068 48.4282 59.2391C48.0499 60.0868 47.6362 60.7538 46.5555 60.3705C45.6116 60.0378 46.0236 58.844 46.314 58.2242C48.4248 53.7055 50.5373 49.1873 52.6515 44.6696C52.6841 44.5987 52.6633 44.5751 52.589 44.5987ZM58.739 35.8651L56.5657 40.7925C56.4982 40.9445 56.5443 40.9974 56.7042 40.9513L58.3911 40.4582C58.4179 40.4503 58.4416 40.4345 58.4591 40.4127C58.4766 40.391 58.4871 40.3644 58.489 40.3366L58.8268 35.8854C58.8403 35.7098 58.811 35.703 58.739 35.8651Z" fill="white"/>
<path d="M73.1094 30.7252C74.386 29.4199 76.7771 30.8772 75.6153 32.7381C75.281 33.2717 74.7693 33.8053 74.153 33.4253C73.3289 32.9171 72.13 31.7249 73.1094 30.7252Z" fill="white"/>
<path d="M81.5711 35.4702C82.081 35.1172 82.9034 35.0919 83.177 35.7454C83.4961 36.5121 81.7095 39.6242 81.235 40.4314C81.2114 40.4717 81.1979 40.5172 81.1958 40.5639C81.1937 40.6106 81.203 40.6571 81.223 40.6994C81.243 40.7416 81.273 40.7784 81.3104 40.8064C81.3478 40.8345 81.3915 40.853 81.4377 40.8603C81.7653 40.9126 82.1604 40.5918 82.3664 40.4955C83.4083 40.0008 86.8936 38.3206 87.8004 39.4503C88.2952 40.0666 87.7802 41.046 87.2229 41.3871C87.0169 41.5132 86.584 41.6325 85.9244 41.7451C84.0027 42.071 82.2786 42.7279 80.4853 43.4641C79.9686 43.6769 79.5329 43.6668 79.0415 43.4928C78.992 43.4748 78.9447 43.4799 78.8997 43.508C77.8021 44.2206 76.6757 44.9231 75.3029 44.3625C75.2511 44.3411 75.2044 44.3484 75.1627 44.3844C73.9148 45.455 72.4424 46.0731 70.7858 45.7016C68.9503 45.2912 69.543 42.7296 69.8149 41.6235C70.0698 40.5901 71.0222 37.0085 71.9138 36.4985C72.5403 36.1406 73.7088 36.2537 73.6143 37.2804C73.558 37.8872 73.388 38.4624 73.1043 39.0062C72.3793 40.401 71.8924 41.6691 71.6436 42.8106C71.5609 43.1872 71.9256 43.4709 72.2853 43.5182C72.8989 43.5958 73.4173 43.4028 73.8405 42.939C73.8788 42.8973 73.8951 42.8478 73.8895 42.7904C73.5653 39.4199 76.5846 34.7525 80.1628 34.4114C80.8923 34.3405 81.4309 34.6529 81.4563 35.4128C81.4596 35.5017 81.4979 35.5208 81.5711 35.4702ZM80.9378 36.3044C78.7561 37.1352 77.211 38.6735 76.0256 40.6475C75.0209 42.3192 76.8007 42.912 77.8662 41.8954C79.3961 40.4364 80.3384 38.3831 80.9936 36.3567C80.9961 36.3491 80.9963 36.3409 80.9943 36.3331C80.9924 36.3254 80.9882 36.3183 80.9823 36.3128C80.9765 36.3073 80.9692 36.3036 80.9613 36.3021C80.9534 36.3006 80.9453 36.3014 80.9378 36.3044Z" fill="white"/>
<path d="M62.9016 42.3799C63.2207 39.1479 65.6743 37.3596 68.8793 38.1465C70.4075 38.5231 69.3015 39.9128 68.2123 39.8453C66.9577 39.7693 65.5223 39.9804 65.0292 41.2958C64.6611 42.282 66.2991 42.0895 66.7888 41.9713C67.5166 41.7939 68.2478 41.696 68.832 42.2144C69.27 42.6051 69.3606 43.1268 69.1039 43.7798C68.0052 46.5739 65.9484 48.1522 62.9337 48.5147C62.3516 48.5845 61.8496 48.5676 61.4274 48.464C60.4092 48.2158 60.0529 46.5711 61.3278 46.6032C62.9522 46.6437 66.674 46.0814 66.7111 43.8068C66.7118 43.7653 66.7043 43.7241 66.689 43.6856C66.6738 43.647 66.6511 43.6118 66.6222 43.582C66.5934 43.5522 66.5589 43.5284 66.5209 43.5119C66.4828 43.4954 66.4419 43.4866 66.4004 43.486C65.0174 43.464 62.6719 44.6933 62.9016 42.3799Z" fill="white"/>
<path d="M27.4069 49.7072C28.6109 49.3525 31.5153 48.1587 32.2195 48.7581C32.6956 49.1634 32.5015 50.0618 32.2634 50.5548C31.6791 51.7707 30.7436 53.6653 30.7723 55.0145C30.7734 55.0632 30.7842 55.1112 30.804 55.1557C30.8239 55.2002 30.8524 55.2403 30.8879 55.2736C30.9235 55.307 30.9653 55.3329 31.011 55.3499C31.0567 55.3668 31.1052 55.3745 31.1539 55.3725C33.2056 55.2914 34.9787 51.7622 35.6575 50.1344C35.68 50.0803 35.6699 50.0331 35.6271 49.9925C35.0006 49.3981 35.1458 48.797 35.7284 48.2161C36.4365 47.508 36.9138 47.0599 37.1604 46.8719C38.0148 46.2168 38.4978 47.8649 38.6194 48.5015C38.6218 48.5138 38.6269 48.5254 38.6342 48.5356C38.6415 48.5458 38.6509 48.5543 38.6618 48.5605C38.6727 48.5668 38.6848 48.5706 38.6972 48.5718C38.7097 48.5729 38.7223 48.5714 38.7342 48.5673C42.3614 47.257 42.4728 50.2087 41.3499 52.4579C41.3287 52.5003 41.3174 52.547 41.3168 52.5943C41.3161 52.6417 41.3262 52.6886 41.3461 52.7316C41.3661 52.7746 41.3954 52.8125 41.432 52.8426C41.4686 52.8727 41.5115 52.8942 41.5576 52.9054C42.7126 53.1891 44.3033 51.0344 44.945 50.2661C45.1588 50.0094 45.4909 49.907 45.9412 49.9588C45.9895 49.9643 46.0346 49.9856 46.0696 50.0196C46.6291 50.5577 46.6702 51.1673 46.1928 51.8483C44.8774 53.7244 42.8409 55.1074 40.46 54.9318C38.9655 54.822 38.9453 53.3495 39.2914 52.2654C39.4924 51.6423 39.9601 51.2978 39.8858 50.4721C39.8802 50.4147 39.8498 50.3764 39.7946 50.3573C39.3871 50.2199 38.9683 50.2064 38.5383 50.3168C38.5136 50.3231 38.4906 50.3349 38.4713 50.3513C38.452 50.3677 38.4368 50.3882 38.4269 50.4113C37.6377 52.2632 36.615 53.9625 35.3586 55.5093C33.7105 57.539 31.8868 58.3512 29.2897 57.5035C27.3545 56.872 28.9942 52.6758 29.5565 51.4414C29.5602 51.4337 29.5615 51.4252 29.5602 51.4168C29.5588 51.4085 29.5549 51.4007 29.5489 51.3945C29.5429 51.3883 29.5351 51.384 29.5265 51.3821C29.5179 51.3803 29.509 51.3809 29.5008 51.384L27.2025 52.3026C27.1609 52.3183 27.1389 52.3487 27.1367 52.3938C26.9746 55.6584 26.8074 58.922 26.6352 62.1844C26.5913 63.0186 26.3819 64.3999 25.7672 64.969C24.8587 65.8099 24.4112 64.6583 24.4653 63.9186C24.7366 60.1902 25.0146 56.4707 25.2995 52.7602C25.3002 52.7483 25.2981 52.7365 25.2934 52.7256C25.2886 52.7148 25.2813 52.7052 25.2722 52.6979C25.263 52.6906 25.2522 52.6856 25.2408 52.6835C25.2294 52.6815 25.2176 52.6823 25.2066 52.6859L22.4592 53.5876C22.4029 53.6062 22.3512 53.6365 22.3075 53.6764C22.2639 53.7162 22.2292 53.7648 22.2059 53.819C19.888 59.092 17.6128 64.2507 15.3805 69.2952C15.1891 69.7264 14.9853 70.0078 14.7692 70.1396C13.6648 70.8167 12.5773 69.8018 13.165 68.5404C15.3433 63.8753 17.5132 59.2057 19.6746 54.5316C19.7017 54.4719 19.6836 54.4516 19.6206 54.4708C18.729 54.7387 17.8487 54.9897 16.9796 55.2239C16.3784 55.386 16.0019 55.1496 16.0728 54.5012C16.1865 53.4351 16.7798 52.7461 17.8526 52.4343C18.9221 52.1236 19.9944 51.8196 21.0694 51.5224C21.1235 51.5078 21.1623 51.4746 21.186 51.4228C22.5245 48.5105 23.8703 45.6032 25.2235 42.701C25.6338 41.8196 25.2657 39.8996 26.8479 39.8354C28.567 39.7645 27.7041 42.3127 27.6467 43.1806C27.5093 45.3308 27.3979 47.4815 27.3123 49.6329C27.3089 49.7015 27.3404 49.7263 27.4069 49.7072ZM25.6845 45.776L23.5889 50.7085C23.5574 50.7828 23.5804 50.8081 23.6581 50.7845L25.3602 50.2796C25.4154 50.2627 25.4452 50.2256 25.4497 50.1681L25.7909 45.8014C25.8089 45.5728 25.7734 45.5644 25.6845 45.776Z" fill="white"/>
<path d="M33.5315 42.8411C34.1462 43.2329 34.6595 43.8779 34.2238 44.5584C33.746 45.3065 32.932 46.2386 32.0489 45.8722C29.9685 45.011 31.5001 41.5442 33.5315 42.8411Z" fill="white"/>
</svg>
