<svg width="100" height="100" viewBox="0 0 100 100" fill="none" xmlns="http://www.w3.org/2000/svg">
<rect width="100" height="100" fill="#99DDFA"/>
<path d="M48.3584 28.6899L47.3701 30.6833" stroke="#8D275B" stroke-width="0.55524"/>
<path d="M43.9582 30.7085L43.0254 28.6235" stroke="#8D275B" stroke-width="0.55524"/>
<path d="M48.3584 28.69L47.3701 30.6834L45.8321 33.7399C45.7858 33.8325 45.784 33.9269 45.8265 34.0231L46.726 36.0553C46.7649 36.1423 46.8269 36.208 46.912 36.2524C48.0669 36.8604 48.0975 35.7694 48.6444 35.3141C49.1219 34.9198 49.6364 34.9615 50.1879 35.439C52.0896 37.0853 53.7803 38.3929 55.9902 39.6755C62.0071 43.1698 68.3258 46.0144 74.9461 48.2095C75.0331 48.2373 75.1099 48.2188 75.1765 48.154C77.0569 46.3106 78.8781 46.3781 80.6401 48.3566C80.6518 48.3697 80.6661 48.3801 80.6821 48.3873C80.6982 48.3945 80.7155 48.3982 80.733 48.3982C80.7506 48.3982 80.7679 48.3945 80.784 48.3873C80.8 48.3801 80.8143 48.3697 80.826 48.3566C82.4585 46.5854 84.5378 46.9852 85.776 48.8786C87.042 50.8136 86.334 52.6792 85.5012 54.8557C85.4308 55.0408 85.4678 55.0658 85.6122 54.9307C86.3201 54.2699 86.7116 53.2927 87.6971 52.9318C88.9131 52.4876 90.3873 53.1178 90.812 54.3699C91.2423 55.6442 90.8898 57.2238 90.2013 58.4342C88.6938 61.0938 85.9787 62.704 83.0581 63.3925C82.9751 63.4115 82.8992 63.4537 82.8393 63.5142C82.7793 63.5746 82.7378 63.6509 82.7194 63.734C81.906 67.3847 79.9516 70.7939 75.8206 71.1992C70.6152 71.7072 68.7218 65.9105 71.3481 62.1266C71.3609 62.1077 71.3678 62.0854 71.3677 62.0625C71.3677 62.0397 71.3608 62.0174 71.3479 61.9985C71.3351 61.9797 71.3168 61.9651 71.2955 61.9567C71.2743 61.9484 71.251 61.9466 71.2287 61.9517C68.0889 62.6513 65.8984 59.6807 65.8457 56.8074C65.8438 56.7259 65.8031 56.6917 65.7235 56.7047C65.048 56.8102 64.6399 57.0249 64.4992 57.3487C62.6725 61.5963 57.8891 63.9866 54.0496 60.2693C54.0216 60.2418 53.984 60.2261 53.9447 60.2256C53.9054 60.2251 53.8674 60.2397 53.8386 60.2665C51.837 62.1849 48.7388 63.498 46.565 60.8828C46.5058 60.8107 46.441 60.806 46.3707 60.869C44.7234 62.37 43.0031 62.457 41.2097 61.1299C41.1264 61.0689 41.0422 61.0679 40.9571 61.1271C39.2025 62.3727 37.5831 62.2349 36.0987 60.7135C36.0247 60.6395 35.9488 60.6367 35.8711 60.7052C33.3281 62.9872 30.8526 62.9169 28.4447 60.4942C28.3763 60.4238 28.305 60.422 28.231 60.4886C24.9689 63.387 19.9385 66.5574 15.6576 65.5496C12.4094 64.7834 10.3402 62.9067 9.44998 59.9195C7.13463 52.1628 14.1667 42.2906 21.11 39.3645C25.2993 37.6016 29.2582 39.9336 29.3442 44.6393C29.3461 44.7281 29.3859 44.7504 29.4636 44.7059C32.771 42.7404 35.9858 40.6962 39.1081 38.5733C39.9243 38.0153 40.7988 37.2157 41.6872 36.5856C41.7253 36.5586 41.7687 36.5405 41.8143 36.5323C41.8599 36.5241 41.9066 36.5262 41.9509 36.5384L43.153 36.8659C43.2567 36.8937 43.3538 36.8789 43.4445 36.8215L44.0359 36.444C44.134 36.3792 44.2098 36.2941 44.2635 36.1886L45.3629 34.0287C45.4055 33.9435 45.4073 33.8565 45.3684 33.7677L43.9581 30.7083L43.0253 28.6234C42.9643 28.4531 42.9569 28.3264 43.0031 28.2431C43.0171 28.217 43.0382 28.1955 43.0639 28.181C43.0897 28.1665 43.1191 28.1596 43.1489 28.1611C43.1786 28.1625 43.2075 28.1722 43.2323 28.1892C43.2571 28.2061 43.2767 28.2296 43.2891 28.257L45.5322 33.3541C45.5393 33.3701 45.5508 33.3838 45.5654 33.3936C45.58 33.4033 45.5971 33.4086 45.6146 33.4089C45.6322 33.4092 45.6494 33.4045 45.6644 33.3952C45.6793 33.386 45.6912 33.3727 45.6988 33.3568L48.2918 28.1015C48.3603 27.9608 48.4149 27.9664 48.4556 28.1181C48.4926 28.2551 48.4602 28.4457 48.3584 28.69ZM45.6599 34.3785C45.6529 34.3624 45.6414 34.3487 45.6268 34.339C45.6122 34.3292 45.5951 34.3239 45.5776 34.3236C45.56 34.3233 45.5427 34.3281 45.5278 34.3373C45.5129 34.3465 45.5009 34.3599 45.4934 34.3757L44.4356 36.5772C44.4256 36.5991 44.4246 36.624 44.4329 36.6466L44.7938 37.6877C44.7988 37.7022 44.8074 37.7152 44.8188 37.7255C44.8302 37.7358 44.8439 37.7431 44.8589 37.7467C44.8738 37.7503 44.8894 37.7501 44.9042 37.7461C44.919 37.7421 44.9326 37.7344 44.9437 37.7238L46.4178 36.3746C46.4316 36.3618 46.4412 36.3451 46.4451 36.3267C46.4491 36.3083 46.4473 36.2892 46.4401 36.2718L45.6599 34.3785ZM42.3174 39.1258L43.2224 37.8099C43.2267 37.8037 43.2295 37.7967 43.2305 37.7893C43.2315 37.782 43.2308 37.7744 43.2283 37.7674C43.2259 37.7604 43.2218 37.754 43.2165 37.7488C43.2111 37.7437 43.2046 37.7398 43.1975 37.7377C43.1734 37.7303 43.1493 37.7219 43.1253 37.7127C43.0896 37.6998 43.0506 37.6991 43.0145 37.7106C42.9783 37.7222 42.947 37.7454 42.9254 37.7765C42.546 38.3299 42.0842 38.4465 41.5401 38.1263C41.4494 38.0727 41.355 38.0653 41.2569 38.1041C40.5332 38.3873 40.0705 38.6057 39.8688 38.7593C37.1888 40.8156 34.3516 42.6247 31.357 44.1868C31.294 44.2201 31.2931 44.2571 31.3542 44.2978C31.3838 44.3163 31.4199 44.3173 31.4625 44.3006C34.0573 43.2345 36.6512 42.1574 39.2441 41.0691C39.3237 41.0358 39.3811 41.058 39.4163 41.1357L39.9271 42.2879C40.0075 42.4697 40.152 42.6156 40.3328 42.6976C40.5137 42.7795 40.7181 42.7918 40.9071 42.7321C41.5401 42.5322 42.1101 42.2222 42.6172 41.802C42.6457 41.7802 42.6809 41.769 42.7167 41.7706C42.7525 41.7721 42.7867 41.7861 42.8132 41.8103C42.8397 41.8345 42.8568 41.8672 42.8616 41.9028C42.8664 41.9383 42.8585 41.9744 42.8393 42.0047L41.4818 44.0563C41.4708 44.0741 41.4664 44.0951 41.4693 44.1158C41.4723 44.1365 41.4825 44.1554 41.4981 44.1694C41.5136 44.1833 41.5336 44.1913 41.5545 44.1919C41.5754 44.1926 41.5958 44.1858 41.6122 44.1729C42.8319 43.192 44.0636 42.2249 45.3074 41.2718C45.8682 40.8387 46.6399 40.4611 47.2924 40.0086C47.3146 39.9945 47.3309 39.9727 47.3383 39.9474C47.3456 39.922 47.3435 39.8949 47.3322 39.871C47.321 39.8472 47.3014 39.8283 47.2772 39.8178C47.253 39.8074 47.2258 39.8061 47.2007 39.8143L45.0409 40.4278C45.0022 40.4391 44.961 40.4386 44.9226 40.4264C44.8842 40.4141 44.8503 40.3907 44.8252 40.3591C44.8002 40.3275 44.7852 40.2892 44.782 40.249C44.7789 40.2088 44.7878 40.1686 44.8077 40.1335L46.2402 37.6294C46.2538 37.604 46.2577 37.5744 46.2513 37.5463C46.2448 37.5182 46.2284 37.4933 46.205 37.4764C46.1816 37.4595 46.1529 37.4516 46.1241 37.4542C46.0954 37.4568 46.0686 37.4697 46.0486 37.4906L44.2913 39.4201C44.2717 39.4408 44.2461 39.4551 44.2182 39.4611C44.1902 39.4671 44.1611 39.4645 44.135 39.4535C44.1088 39.4426 44.0869 39.4239 44.0721 39.4C44.0574 39.3761 44.0505 39.3482 44.0525 39.3201L44.1108 38.4123C44.1219 38.242 44.0553 38.2022 43.9109 38.2929L42.4201 39.234C42.211 39.3673 42.1767 39.3312 42.3174 39.1258ZM66.9117 55.0834C66.4009 56.8546 66.6304 58.4 67.6002 59.7196C69.6047 62.4514 72.3309 61.0938 74.1493 59.1033C74.2215 59.0256 74.2974 59.0219 74.3769 59.0922L75.0016 59.6474C75.0164 59.66 75.0279 59.676 75.0352 59.694C75.0424 59.7121 75.0452 59.7317 75.0433 59.7512C75.0414 59.7708 75.0349 59.7897 75.0242 59.8064C75.0136 59.8231 74.9992 59.8371 74.9822 59.8473C72.0533 61.5824 69.5019 65.2887 71.759 68.6562C72.85 70.2858 74.7517 70.7383 76.634 70.2969C80.1514 69.4724 81.3619 66.0355 82.1114 62.9594C82.1336 62.8688 82.1901 62.8114 82.2808 62.7873C85.2208 62.0516 87.7665 60.8551 89.4128 58.2038C89.9986 57.2599 90.3567 56.055 90.1569 55.0167C89.9098 53.7147 88.0747 52.9318 87.2668 54.1755C86.471 55.4045 85.3753 56.2799 83.9798 56.8018C83.8725 56.8407 83.8401 56.8074 83.8826 56.7019C84.8377 54.3088 86.645 51.4438 84.8821 48.9896C83.4329 46.9713 81.831 48.34 80.8066 49.7753C80.7344 49.8771 80.6715 49.8715 80.6178 49.7586C79.9016 48.265 77.9749 46.8158 76.3952 48.1595C75.579 48.8517 74.8202 49.7068 74.1188 50.7247C74.0521 50.821 73.9957 50.8163 73.9494 50.7109C73.0832 48.737 71.4064 47.3128 69.327 48.8702C69.253 48.9258 69.1873 48.9165 69.1299 48.8425C66.909 45.9025 64.5908 48.7064 63.4859 50.7553C63.4137 50.8867 63.3545 50.8811 63.3082 50.7386C63.1417 50.2472 63.1 49.6809 62.8335 49.2756C60.6486 45.9691 55.5932 48.8564 53.8747 51.205C53.8136 51.2902 53.7637 51.2837 53.7248 51.1856C53.3843 50.312 52.8808 49.5458 52.2146 48.8869C50.5322 47.2267 49.344 48.7869 48.1335 49.8391C48.0706 49.8946 48.0179 49.8863 47.9753 49.8141C46.6612 47.6283 44.928 47.2674 42.7755 48.7314C42.7225 48.7665 42.6591 48.7821 42.5962 48.7755C42.5333 48.7689 42.4749 48.7406 42.4312 48.6953C41.2874 47.5182 39.5884 47.31 38.2864 48.1595C37.8329 48.4575 37.3156 49.1164 36.7345 50.1362C35.7036 51.95 34.6764 53.7637 33.6529 55.5775C33.5344 55.7867 33.3623 55.9116 33.1365 55.9523C32.9866 55.9801 32.957 55.9329 33.0477 55.8107C34.1582 54.3171 35.463 52.7153 35.4269 50.9246C35.425 50.8339 35.4583 50.7599 35.5268 50.7025C38.65 48.0957 35.8155 42.9014 32.2398 45.6554C31.2626 46.4105 30.8249 47.5136 30.9267 48.9646C30.9322 49.0553 30.898 49.1275 30.8239 49.1812C29.3563 50.2028 28.3522 51.5604 27.8118 53.2539C27.1455 55.3443 22.834 57.6902 20.9074 58.4398C19.1334 59.1338 17.3039 59.8917 16.6015 57.5209C16.3997 56.8342 16.4516 55.8542 16.7569 54.5809C16.7773 54.4957 16.8115 54.4893 16.8597 54.5614C18.6087 57.2405 21.0628 56.5298 23.1561 54.7169C26.2987 51.9907 31.1071 44.7059 27.0094 40.7832C24.5941 38.4678 21.2683 39.8226 18.8169 41.5827C14.8654 44.4237 12.1105 48.0457 10.5521 52.4488C9.13072 56.4687 9.55826 61.5519 13.4477 63.8811C18.5809 66.9572 24.7774 62.6235 28.4309 59.3448C28.503 59.2801 28.5687 59.2865 28.628 59.3643C30.8878 62.3265 33.4752 62.1571 35.8961 59.5225C35.9701 59.4429 36.0413 59.4457 36.1098 59.5308C37.5007 61.2465 39.494 62.1071 40.9765 59.8085C41.032 59.7196 41.0912 59.7178 41.1542 59.8029C42.7699 61.9794 44.8299 61.5464 46.4012 59.628C46.4623 59.554 46.5196 59.5567 46.5733 59.6363C48.8831 62.9983 51.5538 61.3104 53.9636 59.1422C54.0413 59.0718 54.1144 59.0774 54.1829 59.1588C57.6503 63.3703 62.2783 60.869 63.8857 56.7019C63.9144 56.6274 63.9592 56.5603 64.0168 56.5055C64.0744 56.4508 64.1435 56.4097 64.2188 56.3854C65.1627 56.0782 66.0271 55.6219 66.8118 55.0167C66.9136 54.939 66.9469 54.9612 66.9117 55.0834Z" fill="#2D3192"/>
<path d="M43.0252 28.6236L43.958 30.7085C42.6291 30.6289 40.8708 30.3495 38.6832 29.8701C38.0706 29.735 37.4117 29.847 36.7065 30.206C36.614 30.2523 36.5464 30.2282 36.5039 30.1339L35.8875 28.7735C35.7228 28.4052 35.8422 28.2155 36.2457 28.2044C37.2729 28.1766 38.2825 28.2359 39.2745 28.3821C40.646 28.582 41.5343 29.0317 43.0252 28.6236Z" fill="#ED1C24"/>
<path d="M47.3701 30.6833L48.3584 28.69C50.6516 29.0759 53.5166 27.599 55.5183 28.4901C55.5997 28.5272 55.621 28.5855 55.5821 28.665L54.8714 30.1642C54.827 30.2586 54.7576 30.2854 54.6632 30.2447C53.8525 29.9041 53.1298 29.8042 52.495 29.9449C50.4387 30.402 48.7305 30.6482 47.3701 30.6833Z" fill="#ED1C24"/>
<path d="M45.6598 34.3788L46.44 36.2722C46.4472 36.2895 46.449 36.3087 46.445 36.3271C46.4411 36.3454 46.4315 36.3622 46.4177 36.3749L44.9436 37.7242C44.9325 37.7348 44.9189 37.7424 44.9041 37.7464C44.8893 37.7505 44.8737 37.7507 44.8588 37.7471C44.8438 37.7435 44.8301 37.7362 44.8187 37.7259C44.8073 37.7156 44.7987 37.7026 44.7937 37.6881L44.4328 36.647C44.4245 36.6244 44.4255 36.5995 44.4355 36.5776L45.4933 34.3761C45.5008 34.3602 45.5128 34.3469 45.5277 34.3377C45.5426 34.3284 45.5599 34.3237 45.5775 34.324C45.595 34.3243 45.6121 34.3296 45.6267 34.3393C45.6413 34.3491 45.6528 34.3628 45.6598 34.3788Z" fill="white"/>
<path d="M42.4196 39.2342L43.9105 38.2931C44.0548 38.2024 44.1215 38.2422 44.1103 38.4125L44.0521 39.3203C44.05 39.3484 44.0569 39.3763 44.0716 39.4002C44.0864 39.4241 44.1084 39.4427 44.1345 39.4537C44.1606 39.4646 44.1897 39.4673 44.2177 39.4613C44.2457 39.4553 44.2712 39.441 44.2908 39.4202L46.0481 37.4908C46.0681 37.4699 46.0949 37.457 46.1237 37.4543C46.1524 37.4517 46.1811 37.4596 46.2045 37.4766C46.2279 37.4935 46.2443 37.5183 46.2508 37.5465C46.2573 37.5746 46.2533 37.6041 46.2397 37.6296L44.8072 40.1337C44.7873 40.1688 44.7784 40.209 44.7816 40.2492C44.7847 40.2894 44.7997 40.3277 44.8248 40.3593C44.8498 40.3909 44.8837 40.4143 44.9221 40.4265C44.9605 40.4388 45.0017 40.4393 45.0404 40.428L47.2003 39.8144C47.2253 39.8063 47.2525 39.8075 47.2767 39.818C47.301 39.8284 47.3205 39.8474 47.3318 39.8712C47.343 39.8951 47.3452 39.9222 47.3378 39.9475C47.3305 39.9729 47.3141 39.9946 47.2919 40.0088C46.6395 40.4613 45.8677 40.8389 45.3069 41.272C44.0632 42.2251 42.8314 43.1922 41.6118 44.1731C41.5954 44.186 41.5749 44.1927 41.554 44.1921C41.5332 44.1914 41.5132 44.1835 41.4976 44.1695C41.482 44.1556 41.4718 44.1367 41.4689 44.116C41.4659 44.0953 41.4703 44.0742 41.4813 44.0565L42.8389 42.0049C42.858 41.9746 42.8659 41.9385 42.8611 41.9029C42.8563 41.8674 42.8392 41.8347 42.8127 41.8105C42.7862 41.7863 42.7521 41.7722 42.7162 41.7707C42.6804 41.7692 42.6452 41.7804 42.6168 41.8022C42.1096 42.2223 41.5396 42.5323 40.9066 42.7322C40.7176 42.792 40.5132 42.7797 40.3324 42.6977C40.1515 42.6158 40.0071 42.4699 39.9266 42.288L39.4158 41.1359C39.3806 41.0582 39.3233 41.036 39.2437 41.0693C36.6507 42.1576 34.0568 43.2347 31.462 44.3008C31.4194 44.3174 31.3833 44.3165 31.3537 44.298C31.2926 44.2573 31.2936 44.2203 31.3565 44.187C34.3511 42.6249 37.1884 40.8157 39.8683 38.7595C40.0701 38.6059 40.5328 38.3875 41.2564 38.1043C41.3545 38.0654 41.4489 38.0728 41.5396 38.1265C42.0837 38.4467 42.5455 38.3301 42.9249 37.7767C42.9465 37.7455 42.9779 37.7224 43.014 37.7108C43.0502 37.6993 43.0891 37.7 43.1248 37.7129C43.1489 37.7221 43.1729 37.7304 43.197 37.7379C43.2041 37.74 43.2106 37.7438 43.216 37.749C43.2214 37.7542 43.2254 37.7605 43.2279 37.7676C43.2303 37.7746 43.231 37.7821 43.23 37.7895C43.229 37.7969 43.2262 37.8039 43.222 37.81L42.3169 39.1259C42.1763 39.3314 42.2105 39.3675 42.4196 39.2342Z" fill="white"/>
<path d="M66.8112 55.0168C66.0265 55.622 65.1621 56.0782 64.2182 56.3854C64.1429 56.4097 64.0738 56.4508 64.0162 56.5056C63.9586 56.5603 63.9138 56.6274 63.8851 56.7019C62.2777 60.869 57.6497 63.3703 54.1823 59.1588C54.1138 59.0774 54.0407 59.0719 53.963 59.1422C51.5532 61.3104 48.8825 62.9983 46.5727 59.6364C46.519 59.5568 46.4617 59.554 46.4006 59.628C44.8293 61.5464 42.7693 61.9795 41.1536 59.8029C41.0907 59.7178 41.0314 59.7196 40.9759 59.8085C39.4934 62.1072 37.5001 61.2465 36.1092 59.5309C36.0407 59.4457 35.9695 59.4429 35.8955 59.5225C33.4746 62.1571 30.8872 62.3265 28.6274 59.3643C28.5681 59.2866 28.5024 59.2801 28.4303 59.3449C24.7768 62.6235 18.5803 66.9572 13.4471 63.8812C9.55766 61.5519 9.13013 56.4687 10.5515 52.4488C12.1099 48.0457 14.8648 44.4237 18.8163 41.5827C21.2677 39.8226 24.5936 38.4678 27.0088 40.7832C31.1065 44.706 26.2981 51.9907 23.1555 54.7169C21.0622 56.5298 18.6081 57.2405 16.8591 54.5615C16.8109 54.4893 16.7767 54.4958 16.7563 54.5809C16.451 55.8542 16.3991 56.8342 16.6009 57.5209C17.3033 59.8918 19.1328 59.1339 20.9068 58.4398C22.8334 57.6902 27.1449 55.3444 27.8112 53.2539C28.3516 51.5604 29.3557 50.2028 30.8233 49.1812C30.8974 49.1275 30.9316 49.0553 30.9261 48.9646C30.8243 47.5136 31.262 46.4105 32.2392 45.6554C35.8149 42.9014 38.6494 48.0957 35.5262 50.7025C35.4577 50.7599 35.4244 50.834 35.4263 50.9246C35.4624 52.7153 34.1576 54.3172 33.0471 55.8108C32.9564 55.9329 32.986 55.9801 33.1359 55.9523C33.3617 55.9116 33.5338 55.7867 33.6523 55.5776C34.6758 53.7638 35.703 51.95 36.7339 50.1362C37.315 49.1164 37.8323 48.4575 38.2858 48.1595C39.5878 47.31 41.2868 47.5182 42.4306 48.6954C42.4743 48.7406 42.5327 48.769 42.5956 48.7755C42.6585 48.7821 42.7219 48.7665 42.7749 48.7314C44.9274 47.2675 46.6606 47.6284 47.9747 49.8142C48.0173 49.8863 48.07 49.8947 48.1329 49.8391C49.3434 48.787 50.5316 47.2267 52.214 48.8869C52.8802 49.5458 53.3837 50.312 53.7242 51.1856C53.7631 51.2837 53.813 51.2902 53.8741 51.205C55.5926 48.8564 60.648 45.9691 62.8329 49.2756C63.0994 49.6809 63.1411 50.2472 63.3076 50.7386C63.3539 50.8811 63.4131 50.8867 63.4853 50.7553C64.5902 48.7065 66.9084 45.9025 69.1293 48.8425C69.1867 48.9165 69.2524 48.9258 69.3264 48.8703C71.4058 47.3128 73.0826 48.737 73.9488 50.7109C73.9951 50.8164 74.0515 50.821 74.1182 50.7248C74.8196 49.7068 75.5784 48.8517 76.3946 48.1595C77.9743 46.8159 79.901 48.265 80.6172 49.7586C80.6709 49.8715 80.7338 49.8771 80.806 49.7753C81.8304 48.34 83.4323 46.9713 84.8815 48.9896C86.6444 51.4438 84.8371 54.3088 83.882 56.7019C83.8395 56.8074 83.8719 56.8407 83.9792 56.8019C85.3747 56.2799 86.4704 55.4045 87.2662 54.1756C88.0741 52.9318 89.9092 53.7147 90.1563 55.0168C90.3561 56.0551 89.998 57.2599 89.4122 58.2038C87.7659 60.8551 85.2202 62.0516 82.2802 62.7873C82.1895 62.8114 82.133 62.8688 82.1108 62.9595C81.3613 66.0355 80.1508 69.4724 76.6334 70.297C74.7511 70.7384 72.8494 70.2859 71.7584 68.6562C69.5013 65.2887 72.0527 61.5825 74.9816 59.8473C74.9986 59.8372 75.013 59.8231 75.0236 59.8064C75.0343 59.7897 75.0408 59.7708 75.0427 59.7512C75.0446 59.7317 75.0418 59.7121 75.0346 59.694C75.0273 59.676 75.0158 59.66 75.001 59.6475L74.3763 59.0922C74.2968 59.0219 74.2209 59.0256 74.1487 59.1033C72.3303 61.0939 69.6041 62.4514 67.5996 59.7196C66.6298 58.4 66.4003 56.8546 66.9111 55.0834C66.9463 54.9612 66.913 54.939 66.8112 55.0168ZM80.5145 55.9968L79.1653 59.6003C79.1533 59.6339 79.1338 59.6644 79.1083 59.6894C79.0828 59.7144 79.052 59.7333 79.0182 59.7446C76.5029 60.6136 72.2581 62.7263 72.5135 66.0688C72.669 68.1176 74.3708 69.4225 76.3752 68.7395C79.318 67.7373 80.0898 64.7584 80.7033 62.0239C80.74 61.861 80.8223 61.7119 80.9408 61.5939C81.0593 61.4759 81.2089 61.394 81.3724 61.3576C84.6483 60.6386 88.0602 59.2088 88.7126 55.461C88.7198 55.4186 88.7123 55.375 88.6914 55.3375C88.6705 55.3 88.6374 55.2707 88.5976 55.2545C88.5578 55.2383 88.5137 55.2362 88.4725 55.2485C88.4313 55.2608 88.3956 55.2868 88.3712 55.3221C86.7637 57.668 83.957 58.698 81.4057 59.2643C81.3852 59.2687 81.3639 59.2675 81.344 59.2607C81.3242 59.254 81.3065 59.2421 81.2929 59.2262C81.2793 59.2103 81.2702 59.191 81.2666 59.1703C81.263 59.1497 81.265 59.1285 81.2724 59.1089C82.035 57.0619 82.8215 55.0242 83.6322 52.9957C84.0986 51.8269 84.4456 50.5637 83.3685 49.7808C83.0723 49.5662 82.8225 49.6106 82.6189 49.9141C81.0004 52.3377 79.1431 54.853 76.9027 56.5825C76.8398 56.6325 76.7778 56.6316 76.7167 56.5798C75.956 55.9597 75.8977 55.3055 76.5418 54.617C77.7059 53.3714 78.5758 52.1286 79.1514 50.8886C79.1977 50.7905 79.2069 50.6887 79.1792 50.5832C78.9922 49.8725 78.5425 49.4218 77.8299 49.2312C77.7504 49.2108 77.6772 49.2247 77.6106 49.2728C75.6099 50.722 74.5281 52.6866 74.3652 55.1667C74.3578 55.2907 74.3014 55.3841 74.1959 55.4471L71.6362 57.0323C71.6022 57.0536 71.5636 57.0663 71.5238 57.0692C71.4841 57.0721 71.4445 57.0652 71.4086 57.0489C69.4597 56.1939 71.4169 53.4565 72.3553 52.4738C72.4238 52.4034 72.4635 52.3192 72.4746 52.2211C72.6116 51.057 72.1461 50.2445 71.0782 49.7836C71.0384 49.7673 70.9956 49.7603 70.9532 49.7631C70.9108 49.766 70.87 49.7788 70.8339 49.8003C69.965 50.3305 68.7462 51.4271 67.7856 50.4166C67.719 50.3463 67.6931 50.263 67.7079 50.1667C67.7856 49.6948 67.6237 49.3505 67.2221 49.134C67.1351 49.0877 67.05 49.0896 66.9667 49.1395C65.7026 49.8947 64.9623 51.0005 64.7457 52.4571C64.7291 52.5626 64.6754 52.645 64.5847 52.7042C64.0072 53.0725 63.3761 53.3001 62.6913 53.3871C62.5895 53.4019 62.5294 53.3575 62.5109 53.2539C62.3665 52.4349 62.3693 51.5965 61.4198 51.2106C61.3199 51.1699 61.3004 51.1042 61.3615 51.0135C61.7446 50.4527 61.6262 50.0094 61.0062 49.6837C59.4265 48.8564 57.0251 50.139 55.8924 51.255C54.843 52.2859 54.359 53.5481 54.4405 55.0417C54.446 55.1287 54.4183 55.2037 54.3572 55.2666C53.652 56.0079 51.1368 57.9318 50.4427 56.7102C49.7987 55.572 51.3644 53.351 52.2084 51.974C52.2602 51.8908 52.2686 51.8038 52.2334 51.7131C51.9391 50.9469 51.4727 50.3065 50.8342 49.792C50.8046 49.7677 50.768 49.7536 50.7296 49.7516C50.6912 49.7496 50.653 49.7599 50.6204 49.7808C48.8298 50.9635 46.9531 53.3705 45.4872 54.9834C45.467 55.004 45.4404 55.017 45.4117 55.0202C45.3831 55.0233 45.3542 55.0165 45.33 55.0008C45.3059 54.9851 45.2878 54.9615 45.279 54.9341C45.2703 54.9066 45.2712 54.877 45.2818 54.8502C45.7871 53.6925 47.6554 50.0501 45.4345 49.4949C43.5411 49.0229 40.3429 53.2261 39.3851 54.6864C39.3722 54.7049 39.3583 54.7151 39.3435 54.7169C39.3231 54.7169 39.2926 54.7114 39.2519 54.7003C39.246 54.6986 39.2405 54.6958 39.2357 54.692C39.231 54.6882 39.2272 54.6834 39.2245 54.6781C39.2219 54.6728 39.2205 54.6671 39.2204 54.6613C39.2203 54.6555 39.2216 54.6499 39.2241 54.6447L41.1564 50.1945C41.1879 50.1212 41.2043 50.0423 41.2047 49.9625C41.2051 49.8828 41.1894 49.8037 41.1585 49.7302C41.1277 49.6566 41.0824 49.5899 41.0252 49.5343C40.9681 49.4786 40.9003 49.435 40.826 49.4061C39.858 49.0322 39.114 49.2885 38.5939 50.1751C37.5223 52.0055 36.4692 53.8461 35.4346 55.6969C35.0348 56.4132 34.6536 56.9111 34.2908 57.1905C32.9721 58.2122 30.1321 57.0351 31.6035 55.0667C32.0365 54.4865 35.64 50.2084 32.5585 50.3666C30.6595 50.4638 29.6018 52.7625 29.091 54.3283C28.9633 54.7225 28.7736 55.0436 28.5219 55.2916C26.2593 57.5209 17.5004 63.9533 15.3099 58.7313C14.1745 56.0217 15.557 52.2433 17.0756 49.7003C18.5655 47.2092 20.3469 45.1761 22.4198 43.601C23.1138 43.0736 24.699 42.3101 24.6657 43.9758C24.6352 45.5638 23.0694 47.7986 22.0533 48.9813C21.9904 49.0516 21.9145 49.072 21.8257 49.0424C20.0378 48.4288 18.3499 51.3827 18.1278 52.6292C17.7974 54.481 19.8018 55.2805 21.1788 54.2894C23.7959 52.4071 25.6235 49.8373 26.6618 46.5799C28.186 41.7909 24.4187 39.8032 20.5431 42.3379C17.443 44.3663 15.0545 46.8816 13.3777 49.8836C10.8569 54.4004 9.72423 62.2543 16.7536 63.3537C20.5375 63.945 26.4092 59.3088 28.9911 56.6519C29.1484 56.4909 29.2483 56.5205 29.2909 56.7408C29.5824 58.2344 30.729 60.1361 32.4891 59.9112C34.1409 59.703 35.5207 57.5375 36.4313 56.366C36.5275 56.2457 36.5867 56.2614 36.6089 56.4132C36.7672 57.457 38.3302 61.1771 39.6378 58.9229C40.7566 56.9906 41.731 55.0723 43.2302 53.376C43.2596 53.3435 43.2987 53.3211 43.3417 53.3121C43.3847 53.3031 43.4294 53.308 43.4692 53.326C43.5089 53.344 43.5417 53.3743 43.5626 53.4122C43.5836 53.4502 43.5916 53.494 43.5855 53.537C43.3523 55.2416 41.5034 58.0012 42.8137 59.2977C43.3967 59.8751 44.4767 59.653 44.8876 59.045C46.0332 57.3497 47.2658 55.7534 48.5855 54.2561C48.6028 54.236 48.6268 54.2228 48.653 54.2188C48.6792 54.2149 48.706 54.2205 48.7285 54.2346C48.751 54.2486 48.7677 54.2703 48.7756 54.2957C48.7834 54.321 48.782 54.3483 48.7715 54.3727C48.1746 55.7941 47.1446 58.3315 48.5299 59.5253C50.1707 60.9439 53.3689 57.6653 54.496 56.6158C54.5126 56.6001 54.5327 56.5887 54.5547 56.5824C54.5766 56.5762 54.5998 56.5753 54.6221 56.58C54.6445 56.5846 54.6654 56.5946 54.6831 56.609C54.7008 56.6235 54.7147 56.642 54.7236 56.663C55.0818 57.5375 55.5509 58.5314 56.3283 59.0728C58.9462 60.9079 61.9029 58.3399 62.5275 55.8024C62.6441 55.3194 62.5664 55.175 63.1327 55.0417C65.0372 54.5864 65.7202 53.7869 66.9139 52.6598C66.9635 52.6126 67.0223 52.5761 67.0865 52.5524C67.1508 52.5287 67.2193 52.5184 67.2878 52.522C67.3564 52.5257 67.4236 52.5432 67.4853 52.5736C67.547 52.6039 67.6019 52.6465 67.6468 52.6986C68.1614 53.3038 68.7721 53.3918 69.4791 52.9624C69.5006 52.9497 69.5258 52.9447 69.5505 52.9481C69.5752 52.9514 69.5981 52.963 69.6154 52.981C69.6327 52.999 69.6435 53.0222 69.6459 53.047C69.6484 53.0719 69.6425 53.0968 69.629 53.1178C68.4519 54.9446 67.3887 57.6541 69.2931 59.2255C71.0949 60.7163 73.4796 57.5986 74.5152 56.4298C74.5326 56.4099 74.5551 56.395 74.5802 56.3865C74.6053 56.3781 74.6323 56.3765 74.6582 56.3818C74.6842 56.3872 74.7083 56.3993 74.728 56.417C74.7477 56.4347 74.7624 56.4574 74.7706 56.4826C75.0787 57.4765 76.5251 59.7113 77.7133 58.7091C78.685 57.8892 79.5715 56.9582 80.3729 55.9162C80.3856 55.902 80.4028 55.8926 80.4216 55.8895C80.4404 55.8864 80.4597 55.8899 80.4763 55.8993C80.4928 55.9087 80.5057 55.9235 80.5126 55.9412C80.5196 55.959 80.5203 55.9786 80.5145 55.9968ZM33.2777 49.6103C33.4403 49.6806 33.6182 49.7115 33.801 49.7011C33.9839 49.6907 34.1682 49.6392 34.3435 49.5496C34.5188 49.46 34.6816 49.3341 34.8226 49.1789C34.9636 49.0238 35.0801 48.8425 35.1654 48.6454C35.3376 48.2474 35.3724 47.8092 35.2619 47.4273C35.1515 47.0454 34.9049 46.751 34.5765 46.6089C34.4139 46.5385 34.2361 46.5076 34.0532 46.5181C33.8704 46.5285 33.686 46.5799 33.5107 46.6695C33.3355 46.7591 33.1727 46.8851 33.0316 47.0402C32.8906 47.1954 32.7741 47.3767 32.6889 47.5737C32.5166 47.9718 32.4819 48.4099 32.5923 48.7918C32.7028 49.1738 32.9493 49.4682 33.2777 49.6103Z" fill="white"/>
<path d="M80.5146 55.9968C80.5204 55.9787 80.5197 55.9591 80.5127 55.9413C80.5058 55.9236 80.493 55.9088 80.4764 55.8993C80.4598 55.8899 80.4405 55.8865 80.4217 55.8896C80.4029 55.8926 80.3857 55.9021 80.373 55.9163C79.5716 56.9583 78.6851 57.8893 77.7135 58.7092C76.5252 59.7114 75.0788 57.4765 74.7707 56.4827C74.7625 56.4574 74.7478 56.4348 74.7281 56.4171C74.7084 56.3994 74.6843 56.3873 74.6583 56.3819C74.6324 56.3765 74.6055 56.3782 74.5803 56.3866C74.5552 56.395 74.5327 56.41 74.5153 56.4299C73.4797 57.5987 71.095 60.7164 69.2932 59.2255C67.3888 57.6542 68.452 54.9446 69.6292 53.1179C69.6426 53.0969 69.6485 53.0719 69.6461 53.0471C69.6436 53.0223 69.6328 52.999 69.6155 52.9811C69.5982 52.9631 69.5753 52.9515 69.5506 52.9481C69.5259 52.9447 69.5007 52.9498 69.4792 52.9624C68.7722 53.3918 68.1615 53.3039 67.647 52.6987C67.6021 52.6465 67.5471 52.604 67.4854 52.5736C67.4237 52.5433 67.3565 52.5258 67.288 52.5221C67.2194 52.5185 67.1509 52.5288 67.0867 52.5525C67.0224 52.5762 66.9637 52.6127 66.914 52.6598C65.7203 53.787 65.0373 54.5865 63.1329 55.0418C62.5665 55.1751 62.6442 55.3194 62.5276 55.8025C61.903 58.3399 58.9464 60.9079 56.3284 59.0729C55.5511 58.5315 55.0819 57.5376 54.7237 56.6631C54.7148 56.6421 54.7009 56.6236 54.6832 56.6091C54.6655 56.5946 54.6446 56.5847 54.6223 56.58C54.5999 56.5754 54.5767 56.5762 54.5548 56.5825C54.5328 56.5887 54.5127 56.6002 54.4961 56.6159C53.369 57.6653 50.1708 60.944 48.53 59.5254C47.1447 58.3316 48.1747 55.7942 48.7716 54.3728C48.7821 54.3484 48.7836 54.3211 48.7757 54.2957C48.7678 54.2704 48.7511 54.2487 48.7286 54.2346C48.7061 54.2205 48.6793 54.2149 48.6531 54.2189C48.6269 54.2228 48.6029 54.2361 48.5856 54.2561C47.266 55.7534 46.0333 57.3498 44.8877 59.0451C44.4768 59.6531 43.3969 59.8752 42.8139 59.2977C41.5035 58.0012 43.3524 55.2417 43.5856 53.5371C43.5917 53.494 43.5837 53.4503 43.5627 53.4123C43.5418 53.3743 43.509 53.3441 43.4693 53.3261C43.4295 53.3081 43.3848 53.3032 43.3418 53.3122C43.2988 53.3212 43.2597 53.3436 43.2303 53.3761C41.7311 55.0724 40.7567 56.9907 39.6379 58.9229C38.3303 61.1772 36.7673 57.4571 36.6091 56.4133C36.5868 56.2615 36.5276 56.2458 36.4314 56.3661C35.5208 57.5376 34.141 59.7031 32.4892 59.9113C30.7291 60.1361 29.5825 58.2344 29.291 56.7408C29.2484 56.5206 29.1485 56.491 28.9912 56.652C26.4093 59.3088 20.5376 63.9451 16.7537 63.3538C9.72434 62.2544 10.857 54.4005 13.3778 49.8836C15.0546 46.8816 17.4431 44.3664 20.5432 42.3379C24.4188 39.8033 28.1861 41.791 26.6619 46.58C25.6236 49.8374 23.796 52.4072 21.1789 54.2895C19.8019 55.2806 17.7975 54.481 18.1279 52.6293C18.35 51.3828 20.0379 48.4289 21.8258 49.0424C21.9146 49.0721 21.9905 49.0517 22.0534 48.9814C23.0695 47.7987 24.6353 45.5639 24.6658 43.9759C24.6992 42.3102 23.1139 43.0736 22.4199 43.6011C20.347 45.1761 18.5656 47.2092 17.0757 49.7004C15.5571 52.2434 14.1746 56.0218 15.3101 58.7314C17.5005 63.9534 26.2594 57.521 28.522 55.2917C28.7737 55.0437 28.9634 54.7226 29.0911 54.3283C29.6019 52.7626 30.6597 50.4639 32.5586 50.3667C35.6402 50.2085 32.0367 54.4866 31.6036 55.0668C30.1322 57.0351 32.9722 58.2122 34.2909 57.1906C34.6537 56.9111 35.0349 56.4133 35.4347 55.697C36.4693 53.8462 37.5224 52.0056 38.594 50.1751C39.1141 49.2886 39.8581 49.0323 40.8261 49.4061C40.9005 49.4351 40.9682 49.4787 41.0254 49.5343C41.0825 49.59 41.1278 49.6566 41.1587 49.7302C41.1895 49.8038 41.2052 49.8828 41.2048 49.9626C41.2044 50.0424 41.188 50.1213 41.1565 50.1946L39.2242 54.6448C39.2217 54.65 39.2204 54.6556 39.2205 54.6614C39.2206 54.6672 39.222 54.6729 39.2246 54.6782C39.2273 54.6835 39.2311 54.6882 39.2358 54.6921C39.2406 54.6959 39.2461 54.6987 39.252 54.7003C39.2927 54.7114 39.3232 54.717 39.3436 54.717C39.3584 54.7151 39.3723 54.705 39.3853 54.6865C40.343 53.2262 43.5412 49.023 45.4346 49.495C47.6555 50.0502 45.7872 53.6926 45.2819 54.8503C45.2713 54.8771 45.2704 54.9067 45.2792 54.9342C45.2879 54.9616 45.306 54.9852 45.3301 55.0009C45.3543 55.0165 45.3832 55.0234 45.4118 55.0202C45.4405 55.0171 45.4672 55.0041 45.4873 54.9835C46.9532 53.3705 48.8299 50.9636 50.6205 49.7809C50.6531 49.7599 50.6913 49.7497 50.7298 49.7517C50.7682 49.7537 50.8048 49.7678 50.8343 49.792C51.4728 50.3065 51.9392 50.9469 52.2335 51.7132C52.2687 51.8038 52.2603 51.8908 52.2085 51.9741C51.3645 53.3511 49.7988 55.5721 50.4428 56.7103C51.1369 57.9318 53.6521 56.0079 54.3573 55.2667C54.4184 55.2038 54.4461 55.1288 54.4406 55.0418C54.3591 53.5482 54.8431 52.286 55.8925 51.2551C57.0252 50.139 59.4266 48.8564 61.0063 49.6838C61.6263 50.0095 61.7448 50.4528 61.3616 51.0136C61.3006 51.1042 61.32 51.1699 61.4199 51.2107C62.3694 51.5966 62.3666 52.435 62.511 53.2539C62.5295 53.3576 62.5896 53.402 62.6914 53.3872C63.3762 53.3002 64.0074 53.0726 64.5848 52.7043C64.6755 52.645 64.7292 52.5627 64.7458 52.4572C64.9624 51.0006 65.7027 49.8947 66.9668 49.1396C67.0501 49.0896 67.1352 49.0878 67.2222 49.1341C67.6238 49.3506 67.7858 49.6949 67.708 50.1668C67.6932 50.2631 67.7191 50.3463 67.7858 50.4167C68.7463 51.4272 69.9651 50.3306 70.834 49.8004C70.8701 49.7788 70.9109 49.7661 70.9533 49.7632C70.9957 49.7603 71.0385 49.7673 71.0783 49.7837C72.1462 50.2445 72.6117 51.057 72.4748 52.2212C72.4637 52.3193 72.4239 52.4035 72.3554 52.4738C71.417 53.4566 69.4598 56.1939 71.4087 57.049C71.4446 57.0652 71.4842 57.0722 71.524 57.0693C71.5637 57.0664 71.6023 57.0537 71.6364 57.0323L74.196 55.4471C74.3015 55.3842 74.3579 55.2907 74.3654 55.1667C74.5282 52.6867 75.61 50.722 77.6107 49.2729C77.6774 49.2248 77.7505 49.2109 77.8301 49.2312C78.5426 49.4219 78.9924 49.8725 79.1793 50.5832C79.207 50.6887 79.1978 50.7905 79.1515 50.8886C78.5759 52.1287 77.706 53.3715 76.5419 54.6171C75.8978 55.3056 75.9561 55.9598 76.7168 56.5798C76.7779 56.6316 76.8399 56.6326 76.9028 56.5826C79.1432 54.853 81.0005 52.3378 82.619 49.9142C82.8226 49.6106 83.0724 49.5662 83.3686 49.7809C84.4457 50.5638 84.0987 51.827 83.6323 52.9958C82.8217 55.0242 82.0351 57.062 81.2725 59.1089C81.2651 59.1285 81.2631 59.1498 81.2667 59.1704C81.2703 59.191 81.2794 59.2103 81.293 59.2262C81.3066 59.2422 81.3243 59.2541 81.3442 59.2608C81.364 59.2675 81.3853 59.2688 81.4058 59.2644C83.9571 58.6981 86.7639 57.6681 88.3713 55.3222C88.3957 55.2869 88.4314 55.2609 88.4726 55.2486C88.5138 55.2363 88.5579 55.2384 88.5977 55.2546C88.6375 55.2708 88.6706 55.3 88.6915 55.3376C88.7124 55.3751 88.7199 55.4187 88.7127 55.461C88.0603 59.2089 84.6484 60.6386 81.3725 61.3577C81.2091 61.394 81.0594 61.476 80.9409 61.594C80.8224 61.7119 80.7401 61.8611 80.7034 62.024C80.0899 64.7585 79.3181 67.7374 76.3753 68.7396C74.3709 69.4225 72.6691 68.1177 72.5136 66.0689C72.2582 62.7263 76.503 60.6136 79.0183 59.7447C79.0521 59.7333 79.0829 59.7144 79.1084 59.6894C79.1339 59.6644 79.1534 59.634 79.1654 59.6003L80.5146 55.9968ZM60.4899 53.5205C60.0013 53.2151 59.7626 52.7376 59.7737 52.0879C59.7774 51.9769 59.7265 51.9399 59.621 51.9769C57.9071 52.5932 57.0049 53.7675 56.9142 55.4999C56.8614 56.541 57.3556 57.5598 58.5382 57.3933C60.3039 57.1462 60.5482 55.4471 60.7564 54.0007C60.7842 53.8083 60.6954 53.6482 60.4899 53.5205ZM74.8956 65.3998C74.7624 66.1272 75.3398 67.482 76.2893 66.9184C77.744 66.055 78.3603 63.8479 78.7351 62.2905C78.7416 62.2651 78.7408 62.2385 78.7328 62.2136C78.7248 62.1887 78.71 62.1665 78.69 62.1497C78.6699 62.1329 78.6456 62.1221 78.6197 62.1185C78.5938 62.1149 78.5674 62.1187 78.5435 62.1294C77.3054 62.668 75.1538 63.9895 74.8956 65.3998Z" fill="#ED1C24"/>
<path d="M32.689 47.5738C32.3303 48.4026 32.594 49.3144 33.2779 49.6103C33.9617 49.9063 34.8069 49.4743 35.1655 48.6455C35.5242 47.8167 35.2606 46.9049 34.5767 46.6089C33.8928 46.313 33.0477 46.745 32.689 47.5738Z" fill="#ED1C24"/>
<path d="M60.4902 53.5203C60.6956 53.648 60.7845 53.8081 60.7567 54.0006C60.5485 55.447 60.3042 57.1461 58.5385 57.3931C57.3559 57.5597 56.8617 56.5408 56.9144 55.4998C57.0051 53.7674 57.9074 52.5931 59.6212 51.9768C59.7267 51.9398 59.7776 51.9768 59.7739 52.0878C59.7628 52.7375 60.0016 53.215 60.4902 53.5203Z" fill="white"/>
<path d="M76.2896 66.9184C75.3402 67.482 74.7627 66.1272 74.896 65.3998C75.1542 63.9895 77.3057 62.6681 78.5439 62.1295C78.5677 62.1187 78.5941 62.1149 78.62 62.1185C78.6459 62.1221 78.6703 62.1329 78.6903 62.1497C78.7103 62.1666 78.7252 62.1887 78.7332 62.2136C78.7412 62.2385 78.742 62.2652 78.7355 62.2905C78.3607 63.8479 77.7444 66.055 76.2896 66.9184Z" fill="white"/>
</svg>
