<svg width="100" height="100" viewBox="0 0 100 100" fill="none" xmlns="http://www.w3.org/2000/svg">
<rect width="100" height="100" fill="#57AFDB"/>
<g clip-path="url(#clip0_44_2937)">
<path d="M25.7241 61.9964C27.3306 60.2359 29.1209 59.1964 31.0949 58.8779C45.4851 56.5627 58.1114 53.1974 67.4039 41.8207C69.5949 39.1432 71.2294 36.5339 72.3074 33.9929" stroke="#A2AD86" stroke-width="1.25"/>
<path d="M72.3075 33.9929C76.413 22.5007 67.4985 14.1637 57.0773 12.0742C41.6948 8.98717 26.496 15.8752 17.9805 28.8427C4.36728 49.5592 13.875 77.2529 36.8333 85.6477C59.0093 93.7589 82.4243 80.2874 87.4748 57.5339C87.8493 55.8364 87.5903 54.3227 86.6978 52.9927C86.6469 52.9191 86.5803 52.8581 86.5029 52.8145C86.4256 52.7708 86.3396 52.7455 86.2515 52.7407C84.855 52.6777 83.868 55.1399 83.4218 56.2057C79.5158 65.3827 73.6988 75.7147 63.8393 79.5682C52.8825 83.8522 39.1433 80.4239 29.877 73.9507C25.8135 71.1157 23.22 66.8789 25.7243 61.9964" stroke="#3F89AF" stroke-width="1.25"/>
<path d="M72.307 33.9928C60.4525 17.8805 36.3025 18.6733 26.2698 36.329C21.907 43.9993 21.55 53.906 25.7238 61.9963" stroke="#8A875A" stroke-width="1.25"/>
<path d="M48.467 8H51.9897C74.2025 9.43325 90.5562 26.2595 92 48.4355V51.869C90.4722 74.0607 73.7038 90.9237 51.407 92H48.1152C25.8868 90.215 9.092 73.919 8 51.533V48.2675C9.42275 26.0915 26.1912 9.113 48.467 8ZM25.724 61.9962C27.3305 60.2357 29.1208 59.1963 31.0947 58.8778C45.485 56.5625 58.1112 53.1972 67.4037 41.8205C69.5947 39.143 71.2292 36.5337 72.3072 33.9927C76.4127 22.5005 67.4982 14.1635 57.077 12.074C41.6945 8.987 26.4957 15.875 17.9802 28.8425C4.367 49.559 13.8747 77.2527 36.833 85.6475C59.009 93.7587 82.424 80.2872 87.4745 57.5337C87.849 55.8362 87.59 54.3225 86.6975 52.9925C86.6466 52.9189 86.58 52.858 86.5026 52.8143C86.4253 52.7706 86.3393 52.7454 86.2513 52.7405C84.8548 52.6775 83.8678 55.1397 83.4215 56.2055C79.5155 65.3825 73.6985 75.7145 63.839 79.568C52.8822 83.852 39.143 80.4238 29.8767 73.9505C25.8132 71.1155 23.2197 66.8787 25.724 61.9962Z" fill="#57AFDB"/>
<path d="M72.3075 33.9929C60.453 17.8807 36.303 18.6734 26.2703 36.3292C21.9075 43.9994 21.5505 53.9062 25.7243 61.9964C23.22 66.8789 25.8135 71.1157 29.877 73.9507C39.1433 80.4239 52.8825 83.8522 63.8393 79.5682C73.6988 75.7147 79.5158 65.3827 83.4218 56.2057C83.868 55.1399 84.855 52.6777 86.2515 52.7407C86.3396 52.7455 86.4256 52.7708 86.5029 52.8145C86.5803 52.8581 86.6469 52.9191 86.6978 52.9927C87.5903 54.3227 87.8493 55.8364 87.4748 57.5339C82.4243 80.2874 59.0093 93.7589 36.8333 85.6477C13.875 77.2529 4.36728 49.5592 17.9805 28.8427C26.496 15.8752 41.6948 8.98717 57.0773 12.0742C67.4985 14.1637 76.413 22.5007 72.3075 33.9929Z" fill="#276383"/>
<path d="M72.307 33.9928C71.229 36.5338 69.5945 39.143 67.4035 41.8205C58.111 53.1973 45.4848 56.5625 31.0945 58.8778C29.1205 59.1963 27.3303 60.2358 25.7238 61.9963C21.55 53.906 21.907 43.9993 26.2698 36.329C36.3025 18.6733 60.4525 17.8805 72.307 33.9928Z" fill="#EDAB31"/>
</g>
<defs>
<clipPath id="clip0_44_2937">
<rect width="84" height="84" fill="white" transform="translate(8 8)"/>
</clipPath>
</defs>
</svg>
