<svg width="100" height="100" viewBox="0 0 100 100" fill="none" xmlns="http://www.w3.org/2000/svg">
<rect width="100" height="100" fill="#D6B179"/>
<path d="M41.8974 36.2782C42.0482 36.6601 42.0537 36.9809 41.9138 37.2405C41.8614 37.3431 41.7794 37.4075 41.6679 37.4337C40.1117 37.8068 38.762 38.6666 37.6188 40.013C35.1249 42.948 33.114 45.4433 31.5861 47.4989C31.114 48.1372 31.3599 48.4187 31.7271 48.9719C33.1107 51.058 35.3544 54.328 38.4581 58.7818C39.4395 60.1893 40.6515 61.2247 42.0941 61.8881C42.2471 61.9579 42.304 62.0747 42.2646 62.2383L42.1105 62.8799C42.0957 62.9416 42.0605 62.9966 42.0105 63.0358C41.9605 63.075 41.8987 63.0962 41.8351 63.0959L31.8779 63.1483C31.7511 63.1483 31.6626 63.0905 31.6123 62.9748L31.3042 62.2776C31.2792 62.2194 31.2767 62.1541 31.2974 62.0947C31.3181 62.0352 31.3603 61.986 31.4156 61.9568C31.9763 61.6557 32.9959 61.3415 33.2713 60.8243C33.6549 60.1009 33.0582 58.9913 32.6418 58.3694C31.2408 56.2854 29.8211 54.2178 28.3829 52.1666C28.3589 52.1326 28.3273 52.1046 28.2906 52.0849C28.2539 52.0652 28.2131 52.0543 28.1714 52.053C28.1298 52.0517 28.0884 52.0601 28.0505 52.0776C28.0127 52.095 27.9794 52.121 27.9534 52.1535C26.3206 54.172 24.725 56.2505 23.1666 58.389C22.6945 59.0371 22.5567 59.7943 22.7535 60.6606C22.7746 60.7593 22.8347 60.8464 22.9207 60.9029C23.6791 61.3873 24.5152 61.6448 25.4288 61.6753C25.5272 61.6797 25.6048 61.7223 25.6616 61.803C25.972 62.2634 25.9152 62.665 25.4911 63.0076C25.3997 63.0798 25.2868 63.1201 25.1698 63.1221L18.1503 63.1418C17.4913 63.2465 15.6028 63.3349 16.0749 62.0649C16.0944 62.0127 16.1251 61.9656 16.1648 61.9271C16.2045 61.8886 16.2522 61.8596 16.3044 61.8423C17.9044 61.3055 19.2421 60.3813 20.3174 59.0698C22.6016 56.2876 24.7775 53.5271 26.8452 50.7885C26.9532 50.6461 27.0141 50.4735 27.0194 50.2946C27.0247 50.1158 26.9741 49.9395 26.8747 49.7902L22.6453 43.4564C21.3338 41.4139 19.324 38.2291 16.6355 37.5351C16.5241 37.5068 16.4388 37.4424 16.3798 37.342C16.1678 36.9798 16.1875 36.6219 16.4388 36.2684C16.4752 36.2179 16.5231 36.177 16.5785 36.1491C16.6338 36.1212 16.695 36.1071 16.7568 36.108C20.2388 36.1865 23.783 36.0556 27.2878 36.1113C27.3482 36.1122 27.4064 36.1348 27.452 36.1749C27.4976 36.215 27.5277 36.2702 27.537 36.3306L27.6419 37.0049C27.666 37.1532 27.6091 37.258 27.4714 37.3191C27.0288 37.5122 26.4878 37.5744 26.1305 37.8395C25.0092 38.6677 25.4747 39.6856 26.137 40.7004C27.3698 42.5857 28.6113 44.4068 29.8616 46.1634C29.8933 46.2078 29.9349 46.2443 29.9831 46.2699C30.0313 46.2956 30.0848 46.3098 30.1394 46.3114C30.1941 46.3129 30.2483 46.3019 30.2979 46.2791C30.3475 46.2562 30.3912 46.2223 30.4255 46.1798C32.0102 44.2289 33.4812 42.3654 34.8385 40.5891C35.0221 40.349 35.1707 40.0337 35.2844 39.6431C35.8319 37.7544 34.1107 37.7479 32.9533 37.3715C32.9005 37.3549 32.8517 37.3278 32.8099 37.2918C32.7682 37.2557 32.7344 37.2115 32.7107 37.162C32.3763 36.4811 32.8976 36.0392 33.5697 36.0327C36.9882 36.0109 39.5149 36.0131 41.1499 36.0392C41.4559 36.0458 41.7051 36.1254 41.8974 36.2782ZM21.4584 39.0048C20.924 38.2291 19.6584 37.5155 18.8093 37.3518C18.5754 37.3082 18.5557 37.3551 18.7503 37.4926C19.7841 38.2258 20.6573 39.1172 21.3699 40.1668C25.5272 46.3053 29.667 52.4535 33.7894 58.6116C34.3904 59.5106 34.4473 60.4282 33.9598 61.3644C33.9534 61.373 33.9487 61.3828 33.946 61.3932C33.9433 61.4036 33.9428 61.4144 33.9443 61.4251C33.9458 61.4357 33.9494 61.4459 33.9549 61.4552C33.9604 61.4644 33.9676 61.4725 33.9762 61.479C33.9848 61.4854 33.9946 61.4901 34.0051 61.4928C34.0155 61.4954 34.0264 61.496 34.037 61.4945C34.0477 61.493 34.0579 61.4894 34.0672 61.4839C34.0764 61.4784 34.0845 61.4712 34.091 61.4626C35.3205 60.3333 34.9106 58.7589 34.0746 57.5183C29.9042 51.3231 25.6988 45.152 21.4584 39.0048Z" fill="white"/>
<path d="M49.8781 36L55.0124 36.1015C55.0443 36.1023 55.0757 36.1094 55.1048 36.1224C55.1339 36.1354 55.1602 36.1539 55.1821 36.177C55.204 36.2001 55.2212 36.2273 55.2326 36.257C55.244 36.2868 55.2494 36.3184 55.2485 36.3502L55.2288 37.162C55.2281 37.216 55.2093 37.2682 55.1754 37.3103C55.1416 37.3524 55.0946 37.382 55.0419 37.3944C53.6256 37.7446 52.4486 38.4484 53.5076 40.1014C54.795 42.1155 56.1195 44.0947 57.4813 46.0391C57.737 46.4013 58.0069 46.4122 58.2911 46.0718C59.7337 44.3479 61.173 42.5683 62.609 40.7331C64.1369 38.779 63.0451 37.8232 60.9861 37.4926C60.8076 37.4636 60.6463 37.3692 60.5341 37.2281C60.4218 37.087 60.3667 36.9093 60.3796 36.7299C60.4091 36.3044 60.7894 36.108 61.2025 36.0949C63.9391 36.0076 66.6844 35.9913 69.4384 36.0458C69.5263 36.0479 69.6123 36.0717 69.689 36.1151C69.7656 36.1585 69.8304 36.2202 69.8778 36.2946C70.8155 37.8003 67.9467 37.7937 67.3827 38.3011C65.2822 40.193 63.362 42.361 61.6222 44.805L59.2189 47.6299C59.117 47.7503 59.0576 47.9011 59.0499 48.059C59.0422 48.2169 59.0866 48.3732 59.1763 48.5038C61.1763 51.4148 63.2112 54.316 65.2811 57.2074C66.8713 59.4299 67.7893 60.7392 70.0909 61.7769C70.3925 62.2591 70.3707 62.6661 70.0253 62.9978C69.9444 63.0763 69.8483 63.1156 69.7368 63.1156C66.4844 63.1025 63.2309 63.1145 59.9763 63.1516C59.5304 63.1549 59.173 62.965 59.1107 62.5199C58.973 61.5445 60.2484 61.6099 60.7566 61.1942C61.7959 60.3432 60.7107 58.6444 60.0747 57.7508C58.7654 55.9156 57.4441 54.0596 56.1108 52.183C56.0839 52.1443 56.0483 52.1126 56.0069 52.0901C55.9654 52.0677 55.9192 52.0552 55.8719 52.0536C55.8246 52.052 55.7774 52.0614 55.7341 52.081C55.6908 52.1006 55.6525 52.1299 55.6223 52.1666C53.9895 54.1785 52.3731 56.2505 50.7732 58.3825C50.0092 59.3972 49.8978 61.0633 51.501 61.3906C52.0606 61.5041 52.5928 61.6099 53.0977 61.7081C53.3556 61.7583 53.4955 61.9143 53.5174 62.1762C53.5698 62.7883 53.2715 63.0862 52.6551 63.0927C49.8333 63.1298 47.0159 63.144 44.2028 63.1353C43.5864 63.0371 43.3536 62.6923 43.5044 62.1009C43.5177 62.0505 43.5432 62.0041 43.5786 61.9659C43.6141 61.9276 43.6584 61.8987 43.7077 61.8816C45.4716 61.264 46.9372 60.2461 48.1044 58.8277C49.3655 57.2958 51.3994 54.7699 54.2059 51.2501C55.0813 50.1535 54.5928 49.7837 53.8616 48.7035C52.4868 46.6784 51.1032 44.6578 49.7109 42.6414C48.1503 40.3829 46.5011 38.1243 44.0618 37.5286C43.9372 37.4981 43.8476 37.425 43.793 37.3093C43.6181 36.9252 43.664 36.5663 43.9307 36.2324C43.9644 36.1895 44.0075 36.1545 44.0568 36.1302C44.1061 36.1058 44.1605 36.0927 44.2159 36.0917L49.8781 36ZM62.0222 60.8996L61.7664 61.263C61.7521 61.2844 61.7453 61.3102 61.7472 61.3361C61.749 61.362 61.7593 61.3864 61.7765 61.4055C61.7936 61.4245 61.8166 61.4369 61.8416 61.4408C61.8665 61.4446 61.8921 61.4396 61.914 61.4266C63.8516 60.3464 62.0254 57.7311 61.2418 56.5855C55.4124 48.051 51.3655 42.2137 49.1011 39.0736C48.5109 38.2531 47.6104 37.6934 46.3995 37.3944C46.2181 37.3486 46.194 37.3911 46.3273 37.5221C47.2454 38.4091 48.0552 38.9721 48.6978 39.8853C50.7764 42.84 55.0955 49.0832 61.655 58.6149C62.0397 59.1735 62.197 59.8391 62.1271 60.6116C62.1183 60.7163 62.0834 60.8123 62.0222 60.8996Z" fill="white"/>
<path d="M73.5495 36.0034L82.5723 36.1344C82.7559 36.9723 82.5516 37.4491 81.9592 37.5648C78.7691 38.1769 79.3003 42.1179 79.4707 44.5433L79.4675 55.6266C79.3626 57.2043 79.3265 59.4366 80.4412 60.5233C81.1855 61.2467 82.592 61.3613 83.6346 61.6133C83.6846 61.6256 83.731 61.6491 83.7703 61.682C83.8095 61.715 83.8405 61.7564 83.8608 61.8032C84.5493 63.3383 82.5133 63.2663 81.4937 63.1878C78.2609 63.107 75.0927 63.0819 71.9889 63.1125C71.4687 63.1169 71.284 62.7241 71.4348 61.9341C72.2709 61.3744 73.3856 61.0798 73.9889 60.3499C74.9331 59.2075 74.7856 56.0652 74.7823 55.1749C74.7757 50.3806 74.7484 45.5864 74.7003 40.7922C74.6774 38.3143 72.8905 37.9412 70.9397 37.6499C70.4108 37.4949 70.2294 37.1021 70.3955 36.4715C70.4199 36.376 70.4748 36.2908 70.5521 36.2283C70.6294 36.1659 70.725 36.1295 70.825 36.1245L73.5495 36.0034ZM75.5266 42.7398C75.7921 47.4172 75.4741 52.3271 75.5069 57.0341C75.52 58.8114 75.1987 60.0356 74.1331 61.3187C74.026 61.4475 74.0501 61.4802 74.2053 61.4169C76.1888 60.615 76.2708 58.2353 76.2675 56.3205C76.2566 51.2186 76.2446 46.1178 76.2315 41.018C76.2282 39.4305 75.5954 37.9706 73.9561 37.5386C73.7659 37.4884 73.7463 37.5266 73.8971 37.6531C75.8347 39.2996 75.3954 40.4714 75.5266 42.7398Z" fill="white"/>
</svg>
