<svg width="100" height="100" viewBox="0 0 100 100" fill="none" xmlns="http://www.w3.org/2000/svg">
<rect width="100" height="100" fill="#003F98"/>
<path d="M9.69856 51.5853C10.5542 54.8196 14.2812 54.3313 14.9979 51.2583C15.0039 51.2312 15.0156 51.2057 15.0322 51.1833C15.0488 51.161 15.0699 51.1423 15.0943 51.1284C15.1187 51.1145 15.1458 51.1058 15.1739 51.1027C15.202 51.0996 15.2306 51.1022 15.2577 51.1105L18.7339 52.1094C18.913 52.1602 18.9758 52.2752 18.922 52.4543C18.1157 55.157 16.2343 56.6592 13.2777 56.9608C6.56286 57.6462 3.61529 51.8138 5.61766 46.0978C7.53492 40.6327 17.0003 40.5745 18.6801 46.2815C18.7249 46.4308 18.6712 46.5249 18.5188 46.5637L15.1233 47.4148C15.0658 47.4278 15.0056 47.419 14.9542 47.39C14.9029 47.361 14.8642 47.314 14.8456 47.258C14.205 45.2736 11.7681 44.6106 10.4556 46.0754C9.28196 47.3924 9.25956 49.9189 9.69856 51.5853Z" fill="white"/>
<path d="M25.4843 45.8694L25.5962 47.3118C25.5996 47.3557 25.6195 47.3968 25.6519 47.4267C25.6843 47.4566 25.7269 47.4732 25.771 47.473H32.1857C32.2313 47.473 32.275 47.4908 32.3077 47.5226C32.3403 47.5544 32.3592 47.5977 32.3604 47.6433L32.4321 50.5416C32.4327 50.5649 32.4286 50.5881 32.4201 50.6098C32.4116 50.6315 32.3988 50.6513 32.3825 50.668C32.3662 50.6847 32.3468 50.698 32.3253 50.707C32.3038 50.7161 32.2807 50.7207 32.2574 50.7207H25.7889C25.7433 50.7207 25.6995 50.7385 25.6669 50.7703C25.6343 50.8021 25.6153 50.8454 25.6142 50.891L25.5335 53.2293C25.5329 53.2526 25.537 53.2758 25.5455 53.2975C25.554 53.3192 25.5668 53.339 25.5831 53.3557C25.5994 53.3724 25.6188 53.3857 25.6403 53.3948C25.6618 53.4038 25.6849 53.4085 25.7082 53.4085H32.9338C32.9801 53.4085 33.0246 53.4269 33.0573 53.4597C33.0901 53.4924 33.1085 53.5369 33.1085 53.5832L33.0816 56.477C33.0816 56.5233 33.0632 56.5678 33.0304 56.6005C32.9977 56.6333 32.9532 56.6517 32.9069 56.6517L21.3003 56.6651C21.2774 56.6651 21.2547 56.6606 21.2335 56.6518C21.2123 56.6431 21.193 56.6302 21.1768 56.614C21.1606 56.5977 21.1477 56.5785 21.1389 56.5573C21.1301 56.5361 21.1256 56.5134 21.1256 56.4904L21.0988 42.4962C21.0988 42.4499 21.1172 42.4055 21.1499 42.3727C21.1827 42.3399 21.2271 42.3215 21.2735 42.3215H32.6919C32.7382 42.3215 32.7827 42.3399 32.8154 42.3727C32.8482 42.4055 32.8666 42.4499 32.8666 42.4962V45.5065C32.8666 45.5528 32.8482 45.5973 32.8154 45.63C32.7827 45.6628 32.7382 45.6812 32.6919 45.6812H25.659C25.6348 45.6811 25.611 45.6861 25.5889 45.6957C25.5667 45.7053 25.5468 45.7194 25.5304 45.737C25.514 45.7547 25.5014 45.7756 25.4935 45.7984C25.4855 45.8211 25.4824 45.8453 25.4843 45.8694Z" fill="white"/>
<path d="M39.6981 49.2694V56.4904C39.6981 56.5289 39.6831 56.5658 39.6563 56.5934C39.6296 56.621 39.5931 56.6371 39.5547 56.6383L35.7067 56.701C35.687 56.7016 35.6673 56.6982 35.6488 56.691C35.6303 56.6839 35.6135 56.6731 35.5993 56.6593C35.5851 56.6455 35.5738 56.629 35.5661 56.6108C35.5584 56.5925 35.5544 56.5729 35.5544 56.5531V42.4694C35.5544 42.4302 35.57 42.3926 35.5977 42.3648C35.6255 42.3371 35.6631 42.3215 35.7023 42.3215H39.5547C39.5784 42.3215 39.6018 42.3272 39.6228 42.3381C39.6439 42.349 39.662 42.3649 39.6757 42.3842L44.8048 49.9144C44.8226 49.9398 44.848 49.959 44.8773 49.9692C44.9067 49.9794 44.9385 49.98 44.9683 49.9711C44.998 49.9622 45.0242 49.9441 45.0431 49.9195C45.062 49.8948 45.0726 49.8648 45.0735 49.8338V42.4694C45.0735 42.4499 45.0774 42.4307 45.0848 42.4128C45.0922 42.3949 45.1031 42.3786 45.1168 42.3648C45.1306 42.3511 45.1469 42.3402 45.1648 42.3328C45.1827 42.3254 45.202 42.3215 45.2214 42.3215H49.132C49.1712 42.3215 49.2088 42.3371 49.2366 42.3648C49.2643 42.3926 49.2799 42.4302 49.2799 42.4694L49.3426 56.5308C49.3426 56.57 49.327 56.6076 49.2993 56.6353C49.2716 56.663 49.234 56.6786 49.1948 56.6786L45.1407 56.6427C45.117 56.6428 45.0937 56.6371 45.0726 56.6261C45.0516 56.6152 45.0334 56.5994 45.0198 56.58L39.9668 49.1842C39.9488 49.1585 39.923 49.1392 39.8932 49.1292C39.8634 49.1191 39.8312 49.1188 39.8013 49.1283C39.7713 49.1378 39.7451 49.1566 39.7266 49.1819C39.708 49.2073 39.698 49.2379 39.6981 49.2694Z" fill="white"/>
<path d="M60.13 45.829V56.5084C60.13 56.5476 60.1144 56.5852 60.0867 56.6129C60.0589 56.6406 60.0213 56.6562 59.9821 56.6562H55.8609C55.8217 56.6562 55.7841 56.6406 55.7564 56.6129C55.7287 56.5852 55.7131 56.5476 55.7131 56.5084V45.829C55.7131 45.8096 55.7093 45.7904 55.7018 45.7725C55.6944 45.7545 55.6835 45.7382 55.6698 45.7245C55.6561 45.7108 55.6398 45.6999 55.6218 45.6925C55.6039 45.685 55.5847 45.6812 55.5653 45.6812H51.3813C51.3421 45.6812 51.3045 45.6656 51.2768 45.6379C51.2491 45.6102 51.2335 45.5726 51.2335 45.5334V42.4694C51.2335 42.4302 51.2491 42.3926 51.2768 42.3648C51.3045 42.3371 51.3421 42.3215 51.3813 42.3215H64.5244C64.5438 42.3215 64.5631 42.3254 64.581 42.3328C64.5989 42.3402 64.6152 42.3511 64.629 42.3648C64.6427 42.3786 64.6536 42.3949 64.661 42.4128C64.6684 42.4307 64.6722 42.4499 64.6722 42.4694V45.5334C64.6722 45.5528 64.6684 45.572 64.661 45.59C64.6536 45.6079 64.6427 45.6242 64.629 45.6379C64.6152 45.6516 64.5989 45.6625 64.581 45.67C64.5631 45.6774 64.5438 45.6812 64.5244 45.6812H60.2778C60.2386 45.6812 60.201 45.6968 60.1733 45.7245C60.1455 45.7522 60.13 45.7898 60.13 45.829Z" fill="white"/>
<path d="M71.203 47.4731H77.7342C77.7542 47.4731 77.774 47.477 77.7925 47.4847C77.811 47.4923 77.8277 47.5035 77.8419 47.5177C77.856 47.5318 77.8672 47.5486 77.8749 47.5671C77.8826 47.5856 77.8865 47.6054 77.8865 47.6254V50.5685C77.8865 50.6088 77.8704 50.6476 77.8419 50.6762C77.8133 50.7047 77.7746 50.7208 77.7342 50.7208H71.2164C71.1964 50.7208 71.1766 50.7247 71.1581 50.7324C71.1396 50.74 71.1228 50.7512 71.1087 50.7654C71.0946 50.7795 71.0833 50.7963 71.0757 50.8148C71.068 50.8333 71.0641 50.8531 71.0641 50.8731L71.0327 53.2562C71.0327 53.2966 71.0488 53.3353 71.0774 53.3639C71.1059 53.3925 71.1446 53.4085 71.185 53.4085H78.424C78.4644 53.4085 78.5032 53.4246 78.5317 53.4531C78.5603 53.4817 78.5763 53.5204 78.5763 53.5608L78.5495 56.5218C78.5495 56.5418 78.5455 56.5616 78.5379 56.5801C78.5302 56.5986 78.519 56.6154 78.5049 56.6295C78.4907 56.6436 78.4739 56.6549 78.4554 56.6625C78.437 56.6702 78.4172 56.6741 78.3972 56.6741L66.7279 56.6472C66.6875 56.6472 66.6487 56.6312 66.6202 56.6026C66.5916 56.5741 66.5756 56.5353 66.5756 56.4949V42.447C66.5756 42.4066 66.5916 42.3678 66.6202 42.3393C66.6487 42.3107 66.6875 42.2947 66.7279 42.2947L78.2001 42.4515C78.2405 42.4515 78.2792 42.4675 78.3078 42.4961C78.3363 42.5246 78.3524 42.5634 78.3524 42.6038L78.3255 45.5289C78.3255 45.5693 78.3094 45.6081 78.2809 45.6366C78.2523 45.6652 78.2136 45.6812 78.1732 45.6812H71.1671C71.1467 45.6812 71.1266 45.6853 71.1078 45.6932C71.089 45.7012 71.072 45.7128 71.0578 45.7274C71.0436 45.742 71.0325 45.7594 71.0251 45.7784C71.0177 45.7974 71.0142 45.8176 71.0148 45.838L71.0507 47.3252C71.0518 47.3649 71.0684 47.4025 71.0968 47.4301C71.1253 47.4577 71.1633 47.4731 71.203 47.4731Z" fill="white"/>
<path d="M84.476 56.6561H79.8755C79.8512 56.6566 79.8273 56.6506 79.8062 56.6385C79.7851 56.6265 79.7676 56.609 79.7557 56.5879C79.7437 56.5668 79.7377 56.5428 79.7383 56.5185C79.7389 56.4942 79.7461 56.4706 79.759 56.4501L84.4805 49.2559C84.4959 49.2335 84.5041 49.2069 84.5041 49.1797C84.5041 49.1525 84.4959 49.126 84.4805 49.1036L80.1084 42.532C80.0945 42.5117 80.0864 42.488 80.085 42.4635C80.0836 42.4389 80.0889 42.4145 80.1005 42.3927C80.112 42.371 80.1293 42.3529 80.1505 42.3403C80.1716 42.3278 80.1958 42.3212 80.2204 42.3215H84.7761C84.7997 42.3215 84.8229 42.3277 84.8434 42.3395C84.8638 42.3513 84.8808 42.3682 84.8926 42.3887L87.3161 46.6353C87.3275 46.6569 87.3446 46.6749 87.3655 46.6875C87.3864 46.7001 87.4104 46.7067 87.4348 46.7067C87.4592 46.7067 87.4831 46.7001 87.504 46.6875C87.5249 46.6749 87.542 46.6569 87.5535 46.6353L89.8784 42.3842C89.8899 42.3622 89.9074 42.3439 89.9287 42.3313C89.9501 42.3186 89.9745 42.3121 89.9993 42.3125L94.4565 42.3394C94.4804 42.3397 94.5038 42.3464 94.5242 42.3587C94.5447 42.371 94.5615 42.3886 94.5729 42.4096C94.5843 42.4306 94.5899 42.4542 94.5891 42.4781C94.5884 42.502 94.5812 42.5252 94.5685 42.5455L90.286 49.2469C90.2725 49.2684 90.2653 49.2932 90.2653 49.3186C90.2653 49.3439 90.2725 49.3688 90.286 49.3902L94.9761 56.4725C94.9901 56.4927 94.9982 56.5164 94.9996 56.541C95.001 56.5655 94.9956 56.59 94.9841 56.6117C94.9725 56.6334 94.9552 56.6516 94.9341 56.6641C94.9129 56.6767 94.8887 56.6832 94.8641 56.683L90.183 56.6427C90.1598 56.6432 90.1369 56.6376 90.1165 56.6266C90.0961 56.6157 90.0789 56.5996 90.0665 56.58L87.4773 52.2527C87.4653 52.2332 87.4485 52.2172 87.4285 52.2061C87.4085 52.1949 87.386 52.1891 87.3631 52.1891C87.3402 52.1891 87.3177 52.1949 87.2977 52.2061C87.2777 52.2172 87.2609 52.2332 87.2489 52.2527L84.5925 56.5934C84.5801 56.613 84.5629 56.6291 84.5425 56.6401C84.5221 56.6511 84.4992 56.6566 84.476 56.6561Z" fill="white"/>
</svg>
