<svg width="100" height="100" viewBox="0 0 100 100" fill="none" xmlns="http://www.w3.org/2000/svg">
<rect width="100" height="100" fill="#6C1818"/>
<path d="M73.2453 53.0514C73.2876 53.0696 73.3349 53.0723 73.379 53.0592C73.4231 53.0461 73.4613 53.018 73.4868 52.9797C73.5123 52.9414 73.5237 52.8954 73.5188 52.8496C73.5139 52.8038 73.4932 52.7612 73.4602 52.7291C63.7679 44.7318 56.1555 35.3588 50.623 24.6101C49.1369 21.7096 48.7967 19.2209 49.3607 16.1592C49.3688 16.1175 49.3902 16.0796 49.4217 16.051C49.4532 16.0225 49.493 16.0049 49.5353 16.0009C49.5776 15.9969 49.6201 16.0066 49.6564 16.0287C49.6926 16.0508 49.7208 16.084 49.7367 16.1234C56.421 32.8223 66.8952 46.6237 81.1591 57.5275C81.3978 57.7126 81.368 57.8379 81.0696 57.9035C80.9263 57.9304 76.7546 55.5401 75.8235 55.2447C69.36 53.1678 59.244 47.7965 58.4204 40.1423C58.4129 40.0566 58.4344 39.9709 58.4813 39.8988C58.5282 39.8267 58.598 39.7724 58.6794 39.7446C58.7608 39.7168 58.8492 39.717 58.9304 39.7453C59.0116 39.7736 59.0811 39.8282 59.1276 39.9006C62.6369 45.5524 67.3428 49.936 73.2453 53.0514Z" fill="#FFB600"/>
<path d="M44.4365 41.8342C43.6965 41.6492 43.1623 41.6075 42.8341 41.7089C31.6378 45.069 23.6196 52.0159 18.7794 62.5498C18.7389 62.6354 18.6699 62.705 18.5841 62.7468C18.4984 62.7885 18.4013 62.7998 18.3094 62.7787C18.2174 62.7575 18.1364 62.7053 18.0801 62.6309C18.0237 62.5565 17.9956 62.4645 18.0005 62.3707C18.5198 48.9155 27.2124 39.1486 39.5307 34.8694C39.5889 34.8421 39.6555 34.839 39.716 34.8608C39.7459 34.8716 39.7734 34.8882 39.7969 34.9097C39.8204 34.9311 39.8395 34.957 39.853 34.9858C39.8665 35.0146 39.8742 35.0458 39.8757 35.0775C39.8772 35.1093 39.8724 35.1411 39.8615 35.171C39.8507 35.2009 39.8341 35.2285 39.8127 35.252C39.7913 35.2755 39.7654 35.2945 39.7366 35.3081C36.1318 37.3909 32.921 39.9662 30.104 43.0338C30.0624 43.078 30.039 43.1362 30.0383 43.1968C30.0376 43.2574 30.0598 43.3161 30.1003 43.3612C30.1409 43.4063 30.1969 43.4344 30.2573 43.4401C30.3177 43.4458 30.378 43.4286 30.4263 43.3919C37.5254 37.9758 47.6325 34.2517 56.4863 37.1433C56.724 37.2184 56.9242 37.3808 57.0458 37.5973C57.1673 37.8137 57.2009 38.0677 57.1398 38.3071C52.2459 57.638 39.7456 68.0703 19.6388 69.6041C19.2986 69.628 19.2061 69.4877 19.3613 69.1834C24.5088 58.7271 33.5864 45.9433 44.4545 42.1386C44.7827 42.0193 44.7767 41.9178 44.4365 41.8342ZM52.7174 43.0786C52.728 43.0514 52.7291 43.0207 52.7205 42.9921C52.7118 42.9636 52.694 42.939 52.6702 42.9227C52.6465 42.9065 52.6183 42.8998 52.5909 42.9038C52.5634 42.9077 52.5384 42.9221 52.5204 42.9443C51.1656 44.4423 49.8169 45.997 48.474 47.6084C42.3745 54.9135 35.1232 60.825 26.72 65.3429C26.1411 65.6592 26.1799 65.7905 26.8364 65.7367C27.8868 65.6532 29.0059 65.3608 30.1935 64.8594C40.3513 60.5564 47.8593 53.2961 52.7174 43.0786Z" fill="#FFB600"/>
<path d="M28.8332 71.3587C29.0958 70.9947 29.603 70.8484 30.355 70.9201C30.9757 70.9797 31.477 70.9678 31.859 70.8842C43.864 68.2612 52.4402 58.9688 56.3345 47.6621C56.3482 47.6204 56.3732 47.5835 56.4069 47.5554C56.4406 47.5273 56.4817 47.509 56.5258 47.5026C56.57 47.4962 56.6154 47.5018 56.6574 47.5188C56.6994 47.5359 56.7363 47.5638 56.7642 47.5994C56.8537 47.7128 56.8746 47.8322 56.8268 47.9575C56.803 48.0351 56.788 48.0859 56.7821 48.1097C54.1949 62.3169 44.7592 73.7221 29.0391 71.8242C28.7108 71.7884 28.6422 71.6333 28.8332 71.3587Z" fill="#FFB600"/>
<path d="M60.4168 60.2221C55.1976 64.5103 53.434 74.2593 53.9354 80.5437C53.9432 80.6361 53.9173 80.7282 53.8626 80.8031C53.8079 80.878 53.7281 80.9306 53.6377 80.9513C53.5473 80.972 53.4525 80.9594 53.3707 80.9157C53.2888 80.8721 53.2255 80.8004 53.1923 80.7138C50.1128 72.8538 50.9513 65.4741 55.7079 58.5749C55.7388 58.5332 55.7832 58.5047 55.8333 58.4943C55.8833 58.4839 55.9357 58.4924 55.981 58.5183C56.0263 58.5442 56.0615 58.5857 56.0804 58.6355C56.0992 58.6852 56.1005 58.7399 56.0839 58.7898C55.3618 60.5086 54.6665 62.2782 53.998 64.0985C53.8548 64.4924 53.8399 64.8475 53.9533 65.1638C54.1144 65.6114 54.2875 65.6144 54.4725 65.1727C56.7732 59.7745 59.6648 55.191 65.2421 52.7291C65.3383 52.6869 65.4426 52.666 65.5477 52.6681C65.6528 52.6702 65.7562 52.6951 65.8507 52.741C65.9452 52.787 66.0286 52.853 66.0951 52.9344C66.1616 53.0158 66.2096 53.1107 66.2358 53.2125C69.4407 65.6561 66.2805 76.002 56.7553 84.25C56.696 84.3035 56.6224 84.3382 56.5434 84.3498C56.4645 84.3614 56.3836 84.3494 56.3107 84.3153C56.2377 84.2812 56.1757 84.2264 56.1323 84.1576C56.0889 84.0888 56.0658 84.0089 56.066 83.9277C56.245 75.6737 56.2809 68.0285 60.5779 60.3654C60.7749 60.0192 60.7212 59.9715 60.4168 60.2221ZM65.1615 61.8335C64.3468 65.9337 62.6011 71.4662 61.0614 74.2503C56.2809 82.8564 56.5763 83.0175 61.9476 74.7337C64.2454 71.1886 65.4301 66.9005 65.5017 61.8693C65.504 61.847 65.502 61.8244 65.4956 61.8029C65.4892 61.7814 65.4786 61.7613 65.4645 61.7438C65.436 61.7086 65.3946 61.6861 65.3495 61.6813C65.3044 61.6766 65.2592 61.69 65.224 61.7185C65.1887 61.747 65.1662 61.7884 65.1615 61.8335Z" fill="#FFB600"/>
<path d="M63.2449 80.3469C68.7326 74.0803 69.225 67.4914 69.0728 59.4971C69.0668 59.2166 69.1563 59.1778 69.3413 59.3807C69.5264 59.5836 69.6338 59.7746 69.6636 59.9536C71.3646 69.1028 70.5141 76.2378 62.6003 81.9135C62.5287 81.966 62.4419 81.9924 62.3537 81.9884C62.2655 81.9844 62.1812 81.9502 62.1141 81.8914C62.047 81.8326 62.0011 81.7525 61.9838 81.664C61.9664 81.5755 61.9786 81.4836 62.0184 81.4032C62.1497 81.1526 62.3466 80.9556 62.6092 80.8124C62.9017 80.6512 63.1136 80.4961 63.2449 80.3469Z" fill="#FFB600"/>
</svg>
