<svg width="100" height="100" viewBox="0 0 100 100" fill="none" xmlns="http://www.w3.org/2000/svg">
<rect width="100" height="100" fill="white"/>
<path d="M37.6282 34.8658C37.1925 33.4501 37.247 32.3011 38.5538 31.3591C47.0756 25.1952 56.5175 19.7881 66.4822 17.5556C73.305 16.0309 82.894 17.2997 84.3206 25.7288C86.6512 39.4997 73.0545 55.4922 63.8249 64.1609C63.7753 64.2079 63.7129 64.2393 63.6456 64.2511C63.5783 64.2629 63.509 64.2547 63.4463 64.2274C63.3836 64.2001 63.3303 64.155 63.2931 64.0977C63.2559 64.0404 63.2363 63.9734 63.2369 63.905V49.7475C63.2369 49.5551 63.3022 49.3881 63.4329 49.2466C68.2719 43.9611 72.0109 38.3653 74.65 32.4591C75.69 30.134 76.8389 24.6343 74.7861 22.4454C66.8688 14.0108 44.6361 29.8889 38.0692 35.0074C37.855 35.1744 37.708 35.1272 37.6282 34.8658Z" fill="#808285"/>
<path fill-rule="evenodd" clip-rule="evenodd" d="M40.2529 78.7976C40.6159 78.5435 40.9898 78.264 41.3746 77.959C38.2999 79.2441 35.187 79.9265 32.0361 80.0064C29.1556 80.0826 25.088 78.5362 24.8539 75.2255C24.244 66.6167 31.7965 56.9188 37.1981 50.7821C37.2961 50.6696 37.3451 50.5407 37.3451 50.3955L37.3832 35.8786C37.3833 35.8483 37.3747 35.8186 37.3584 35.7931C37.342 35.7675 37.3187 35.7472 37.2911 35.7346C37.2636 35.7219 37.233 35.7175 37.2029 35.7218C37.1729 35.7261 37.1448 35.739 37.1219 35.7588C27.5384 44.5092 17.7152 56.6847 16 69.9982V72.0837C16.2831 85.2773 31.5023 83.9487 39.9369 80.9049C39.9369 80.9049 39.937 80.9049 39.937 80.9049C48.4587 77.6433 55.2217 73.2381 62.8667 68.2177C62.9901 68.1378 63.0537 68.0234 63.0573 67.8746L63.1117 65.152C63.1131 65.1041 63.1007 65.0568 63.0759 65.0157C63.0512 64.9746 63.0152 64.9415 62.9722 64.9203C62.9292 64.899 62.881 64.8906 62.8333 64.896C62.7857 64.9014 62.7406 64.9203 62.7033 64.9505C56.1002 70.2759 48.9906 74.6121 41.3746 77.9591C40.9898 78.264 40.6159 78.5435 40.2528 78.7976C40.1487 78.8706 40.0655 78.9484 40.0033 79.0309C40.0655 78.9484 40.1487 78.8706 40.2529 78.7976ZM39.9033 79.9857C39.8754 80.034 39.8322 80.0772 39.7737 80.1153C39.5813 80.2387 39.4179 80.3821 39.2836 80.5455C39.2835 80.5456 39.2834 80.5457 39.2833 80.5458C39.2834 80.5457 39.2835 80.5456 39.2836 80.5456C39.4179 80.3822 39.5813 80.2388 39.7737 80.1154C39.8322 80.0773 39.8754 80.034 39.9033 79.9857Z" fill="url(#paint0_linear_49_1489)"/>
<defs>
<linearGradient id="paint0_linear_49_1489" x1="29.613" y1="49.9055" x2="63.3731" y2="73.592" gradientUnits="userSpaceOnUse">
<stop stop-color="#001C48"/>
<stop offset="0.961937" stop-color="#020D1F"/>
</linearGradient>
</defs>
</svg>
