<svg width="100" height="100" viewBox="0 0 100 100" fill="none" xmlns="http://www.w3.org/2000/svg">
<rect width="100" height="100" fill="white"/>
<path d="M25.2691 33.0667C23.1229 32.2153 22.505 31.5031 23.4035 29.1659C23.4165 29.1332 23.4392 29.1051 23.4686 29.0857C23.4981 29.0663 23.5327 29.0564 23.5677 29.0574C23.6027 29.0585 23.6363 29.0704 23.664 29.0915C23.6916 29.1126 23.7119 29.1419 23.7219 29.1753L24.0097 30.1187C24.0395 30.2177 24.1016 30.2908 24.196 30.338C24.8705 30.6706 25.3658 30.4748 25.8658 29.897C26.4287 29.2476 27.126 28.8514 27.9577 28.7083C28.0539 28.6912 28.1405 28.6396 28.2013 28.5632C28.262 28.4867 28.2929 28.3908 28.2879 28.2932L28.1558 26.0008C28.1521 25.9418 28.1363 25.8841 28.1094 25.8314C28.0825 25.7788 28.0451 25.7323 27.9994 25.6948C27.9538 25.6574 27.901 25.6299 27.8443 25.6139C27.7876 25.598 27.7283 25.594 27.67 25.6022C26.4688 25.772 25.3343 25.5755 24.2667 25.0126C23.3941 24.5527 22.788 26.2602 22.7668 26.8263C22.7656 26.8651 22.7521 26.9026 22.728 26.9332C22.704 26.9638 22.6708 26.9858 22.6333 26.9961C22.5958 27.0064 22.556 27.0044 22.5198 26.9904C22.4835 26.9764 22.4527 26.9511 22.4319 26.9183C22.1032 26.412 21.9437 25.8467 21.9531 25.2225C21.9547 25.1401 21.928 25.0594 21.8776 24.9938C21.1952 24.1101 21.0671 23.1447 21.4932 22.0976C21.5231 22.0252 21.5129 21.9584 21.4625 21.8971C20.2904 20.4561 22.2786 20.2014 23.1583 20.2792C23.2422 20.2869 23.3261 20.2661 23.3965 20.2202C24.387 19.5725 25.4782 19.2745 26.67 19.3264C26.6942 19.3279 26.7187 19.3238 26.7415 19.3144C26.7644 19.305 26.7851 19.2906 26.8021 19.2721L27.1393 18.9089C27.151 18.8961 27.1657 18.8863 27.1821 18.8806C27.1984 18.8749 27.216 18.8733 27.2331 18.8761C27.2503 18.879 27.2664 18.886 27.2801 18.8967C27.2938 18.9074 27.3046 18.9213 27.3115 18.9372C27.9483 20.3853 30.1133 20.5056 29.8657 18.5174C29.7619 17.6778 29.0167 17.7108 28.453 17.5009C28.4358 17.4947 28.4208 17.4836 28.4098 17.469C28.3988 17.4544 28.3923 17.4369 28.391 17.4187C28.3898 17.4005 28.3939 17.3823 28.4028 17.3663C28.4117 17.3503 28.425 17.3373 28.4412 17.3288C28.6629 17.2077 28.894 17.1503 29.1346 17.1566C31.644 17.2156 33.9789 17.4396 36.1817 18.3547C36.2571 18.3862 36.3279 18.3799 36.3939 18.3358C37.4128 17.655 38.0834 17.2415 38.4057 17.0953C39.3939 16.6495 40.6863 17.8712 41.1981 18.6165C41.7382 19.3971 41.5212 20.2391 41.1179 21.008C41.1072 21.0283 41.102 21.0512 41.1029 21.0742C41.1037 21.0972 41.1105 21.1195 41.1227 21.1391C41.1349 21.1586 41.1519 21.1746 41.1722 21.1856C41.1924 21.1965 41.2152 21.2019 41.2382 21.2014C41.4882 21.1951 41.7342 21.2273 41.9764 21.2981C42.0092 21.3074 42.041 21.3217 42.0707 21.3405C42.3569 21.5135 42.5605 21.6927 42.6816 21.8782C46.3497 27.5134 48.7357 33.8325 49.8395 40.8355C49.9951 41.826 49.834 42.6484 49.356 43.3024C48.1885 44.8991 44.2735 48.9439 42.1367 48.5335C42.0629 48.5193 42.0345 48.4761 42.0518 48.4038C42.3278 47.2458 42.6603 45.1868 42.1084 44.0925C42.0767 44.0281 42.0243 43.9761 41.9596 43.945C41.8949 43.9139 41.8216 43.9054 41.7514 43.9209C41.6813 43.9364 41.6184 43.975 41.5728 44.0305C41.5272 44.086 41.5016 44.1551 41.5 44.2269C41.4434 45.8967 41.507 47.9816 40.8821 49.5759C40.158 51.425 37.9953 52.7787 36.2147 53.4674C35.8688 53.601 35.5559 53.5782 35.276 53.399C35.2451 53.3792 35.2217 53.3496 35.2097 53.315C35.1977 53.2803 35.1978 53.2426 35.21 53.2079C35.5472 52.2103 35.9552 49.4415 34.9222 48.7198C34.881 48.6912 34.8327 48.6744 34.7826 48.6712C34.7325 48.6679 34.6825 48.6785 34.6382 48.7016C34.5939 48.7248 34.5569 48.7596 34.5313 48.8023C34.5057 48.8451 34.4924 48.894 34.493 48.9439C34.5071 50.3526 34.5079 51.7803 34.4954 53.2268C34.4836 54.6773 33.9034 55.656 32.5992 56.3211C30.2855 57.5003 27.8681 58.6701 27.4742 61.8022C27.463 61.8964 27.4149 61.9824 27.3403 62.0415C27.2657 62.1007 27.1706 62.1282 27.0757 62.1182C26.5709 62.0687 25.7337 61.0451 25.3587 60.6866C22.7196 58.1489 25.0993 54.9296 26.7667 52.8613C26.8878 52.7087 26.9837 52.4996 27.0544 52.2339C27.0648 52.1967 27.0633 52.1572 27.0502 52.1208C27.0371 52.0845 27.013 52.0531 26.9813 52.0311C25.6181 51.0712 23.2385 55.531 22.7903 56.3871C22.7692 56.4273 22.7391 56.462 22.7023 56.4886C22.6656 56.5151 22.6232 56.5329 22.5785 56.5404C22.5338 56.548 22.4879 56.5451 22.4445 56.532C22.401 56.5189 22.3612 56.496 22.3281 56.465C18.5192 52.8872 21.4507 49.925 23.7219 46.9321C23.9216 46.6695 24.0136 46.4329 23.9979 46.2222C23.9933 46.1571 23.9719 46.0944 23.9358 46.04C23.8997 45.9857 23.8501 45.9416 23.7919 45.9122C23.7337 45.8827 23.6688 45.8688 23.6036 45.8719C23.5385 45.875 23.4752 45.8949 23.4201 45.9297C22.1606 46.7269 21.3069 47.9109 20.5333 49.1538C20.513 49.1873 20.4832 49.2139 20.4476 49.2302C20.412 49.2466 20.3723 49.2519 20.3335 49.2456C20.2946 49.2393 20.2584 49.2216 20.2293 49.1948C20.2002 49.1679 20.1796 49.1332 20.1701 49.0948C19.6701 47.1113 19.4178 44.6892 20.8847 42.9793C21.7369 41.9856 22.6087 41.0077 23.5002 40.0454C23.854 39.6657 24.4295 38.8025 23.7267 38.5997C23.6837 38.5871 23.6386 38.584 23.5942 38.5905C23.5499 38.597 23.5074 38.613 23.4696 38.6374C22.4665 39.2946 21.652 40.1374 21.0262 41.1657C21.0154 41.1841 20.9998 41.1993 20.9811 41.2097C20.9624 41.2201 20.9413 41.2253 20.9199 41.2249C20.8985 41.2244 20.8776 41.2182 20.8594 41.207C20.8412 41.1957 20.8263 41.1799 20.8163 41.161C18.5758 37.1657 22.288 34.6988 25.2738 33.2082C25.2872 33.2016 25.2983 33.1913 25.306 33.1784C25.3136 33.1656 25.3174 33.1509 25.3169 33.136C25.3164 33.1211 25.3116 33.1066 25.3032 33.0943C25.2947 33.0821 25.2828 33.0725 25.2691 33.0667ZM37.9245 19.0316C38.7217 19.2423 39.3404 19.6833 39.7807 20.3547C39.8373 20.4443 39.8813 20.438 39.9127 20.3358C40.3231 18.9868 38.9741 17.6849 37.901 18.9608C37.8964 18.9667 37.8934 18.9735 37.8922 18.9808C37.8909 18.988 37.8915 18.9955 37.8938 19.0025C37.8962 19.0095 37.9002 19.0158 37.9055 19.0209C37.9109 19.026 37.9174 19.0296 37.9245 19.0316Z" fill="#122781"/>
<path d="M70.9427 77.8799C70.9594 77.8646 70.9728 77.846 70.9822 77.8254C70.9916 77.8048 70.9968 77.7826 70.9974 77.7599C70.9981 77.7373 70.9942 77.7148 70.986 77.6936C70.9778 77.6725 70.9655 77.6533 70.9498 77.637C68.6126 75.2313 65.8272 75.1724 62.6834 75.2219C60.2141 75.262 57.7896 73.9884 55.8675 72.538C54.5232 71.5262 53.9076 70.6394 54.417 68.972C55.3345 65.9721 58.3556 63.3966 61.0891 62.1325C62.0655 61.6797 63.3579 61.3778 64.5088 60.958C64.5539 60.9419 64.5942 60.915 64.6264 60.8796C64.6587 60.8443 64.6817 60.8016 64.6936 60.7552C64.7054 60.7089 64.7058 60.6604 64.6945 60.6139C64.6833 60.5674 64.6608 60.5244 64.6291 60.4886C64.5159 60.3581 64.3666 60.3181 64.181 60.3684C63.9672 60.425 63.828 60.4564 63.7636 60.4627C60.8501 60.708 58.3486 61.8534 56.259 63.899C55.0255 65.1065 53.6434 66.8117 51.8864 67.2362C50.7991 67.498 49.594 67.3164 48.3416 67.2267C47.0893 67.1395 46.7921 67.9013 46.4148 68.8777C46.3859 68.9506 46.3314 69.0103 46.2615 69.0451C45.3299 69.5074 45.0563 68.3211 44.7827 67.7598C44.3252 66.8187 43.5964 67.2268 42.8535 67.3117C42.7481 67.3242 42.649 67.3683 42.5694 67.4383C42.4897 67.5082 42.4334 67.6006 42.4078 67.7032C42.293 68.1576 42.087 68.5632 41.7899 68.9201C41.7395 68.9814 41.6751 69.0208 41.5965 69.0381C41.065 69.1465 40.6397 68.9846 40.3205 68.5522C40.2687 68.4799 40.2419 68.3997 40.2404 68.3116C40.2278 67.4532 39.7687 67.0223 38.863 67.0192C37.3324 67.0168 37.8371 68.472 36.8866 69.3329C35.8348 70.288 34.8418 71.2007 34.0117 72.3635C32.812 74.0427 31.8395 75.6291 31.0943 77.1228C30.1886 78.9388 30.6037 81.1558 27.717 81.335C24.9654 81.5048 22.4898 81.8067 20.2902 82.2407C19.7933 82.3382 19.3586 82.3051 18.986 82.1416C18.9105 82.1086 18.8641 82.0512 18.8468 81.9694C18.4718 80.1204 20.2383 78.2832 21.2312 76.8705C21.4073 76.6205 21.8405 76.4436 22.5307 76.3398C24.8043 76.0049 27.2052 68.9626 28.0071 66.906C28.5165 65.6018 28.25 63.6961 28.4905 62.5452C28.8985 60.5853 29.9528 59.1986 31.7263 58.3189C32.5046 57.9321 33.9244 57.3826 34.3489 56.583C34.6131 56.0862 34.9346 55.6302 35.3135 55.2151C35.3644 55.1597 35.4306 55.1196 35.5046 55.0996C38.1649 54.3802 40.4172 53.076 41.8606 50.6728C42.6247 49.4016 44.5893 49.3332 45.5728 48.5596C47.4234 47.1068 49.1176 45.4055 50.6553 43.4559C50.7049 43.3934 50.7755 43.3512 50.8538 43.3373C50.932 43.3234 51.0125 43.3387 51.0798 43.3804C55.6104 46.1705 59.1764 49.7813 62.8202 53.6255C64.0867 54.9651 65.3933 56.234 67.0701 57.1113C70.2941 58.7953 73.1361 61.3896 75.1077 64.373C76.6219 66.6607 77.0629 69.1583 77.6879 71.7078C78.0369 73.1323 78.4261 73.9436 79.5676 74.6842C80.577 75.3398 81.9685 75.4318 82.6076 74.255C84.2727 71.1866 79.7397 66.1254 77.6714 63.7669C75.6832 61.5004 73.1431 57.9745 75.6054 55.01C77.0487 53.2718 79.7963 53.8284 81.3435 55.0052C81.4146 55.0593 81.4699 55.1318 81.5039 55.2151C82.2114 56.9856 83.3537 58.3998 84.9307 59.458C84.9636 59.48 84.9869 59.5137 84.9958 59.5522C85.0048 59.5907 84.9987 59.6312 84.9789 59.6654C84.9591 59.6996 84.927 59.725 84.8891 59.7365C84.8513 59.7479 84.8105 59.7444 84.775 59.7269C83.7868 59.2457 82.3105 59.7528 81.5534 59.5901C79.8129 59.2104 78.4355 57.2411 79.9378 55.734C79.9911 55.6793 80.0229 55.6073 80.0275 55.5312C80.0479 55.1114 79.8561 54.8323 79.452 54.6939C77.7351 54.1067 76.2138 54.6892 75.7233 56.5005C75.1997 58.4415 76.1808 60.267 77.4096 61.7929C80.1077 65.1442 88.1288 72.0828 83.2774 76.7738C82.1902 77.8233 80.169 77.7832 78.6006 77.7502C78.2343 77.7439 77.9402 77.9027 77.7185 78.2266C77.6745 78.291 77.6533 78.3618 77.6549 78.4388C77.6667 79.1936 77.82 80.0261 77.7563 80.677C77.4473 83.776 74.879 84.1204 72.4899 83.0992C68.247 81.2831 63.2376 80.6959 58.7118 80.9836C58.6316 80.9883 58.5577 80.9679 58.4901 80.9223L56.9807 79.8893C56.9506 79.8681 56.9161 79.8543 56.8801 79.849C56.844 79.8437 56.8073 79.847 56.7731 79.8586C55.976 80.1157 55.7472 81.3586 54.7189 80.6275C54.6623 80.5866 54.6222 80.5339 54.5986 80.4695L54.4312 79.9884C54.4181 79.9497 54.3958 79.9148 54.3663 79.8865C54.3367 79.8582 54.3007 79.8373 54.2614 79.8256C53.4147 79.5709 53.4571 80.8964 52.3463 80.5119C52.3068 80.4979 52.2721 80.4729 52.2462 80.4399C52.2203 80.407 52.2043 80.3673 52.2001 80.3256C52.1623 79.9152 51.9509 79.6762 51.5656 79.6086C51.5304 79.6023 51.4941 79.6063 51.461 79.6201C51.428 79.6339 51.3996 79.657 51.3793 79.6865L50.8227 80.4931C50.7567 80.589 50.6663 80.6424 50.5515 80.6534L49.7732 80.7266C49.7192 80.7312 49.6648 80.7237 49.614 80.7047C49.5632 80.6857 49.5174 80.6556 49.4798 80.6167C49.4423 80.5778 49.414 80.5311 49.397 80.4799C49.38 80.4287 49.3748 80.3743 49.3817 80.3209C49.5122 79.291 49.9564 78.508 50.7142 77.9719C51.3157 77.545 52.2449 77.5285 52.752 76.9129C53.7284 75.7337 54.8628 74.696 56.4759 75.2313C57.3981 75.5356 58.957 76.6488 60.2636 76.7101C61.8391 76.7856 63.5065 76.17 65.1103 76.2195C67.0709 76.2761 68.8979 76.8288 70.5913 77.8775C70.7328 77.964 70.8499 77.9648 70.9427 77.8799ZM23.0344 80.9923C23.1166 81.0216 23.2057 81.0295 23.2963 81.0154C23.387 81.0014 23.4775 80.9658 23.5627 80.9106C23.6479 80.8554 23.7261 80.7817 23.793 80.6937C23.8598 80.6057 23.9138 80.5051 23.9521 80.3978C23.9903 80.2904 24.012 80.1783 24.0158 80.0679C24.0196 79.9575 24.0056 79.8509 23.9744 79.7543C23.9433 79.6576 23.8957 79.5728 23.8343 79.5047C23.7729 79.4365 23.6989 79.3863 23.6167 79.357C23.5344 79.3277 23.4454 79.3199 23.3547 79.3339C23.2641 79.3479 23.1736 79.3836 23.0884 79.4388C23.0031 79.494 22.9249 79.5677 22.8581 79.6556C22.7913 79.7436 22.7372 79.8442 22.699 79.9516C22.6607 80.0589 22.6391 80.171 22.6352 80.2814C22.6314 80.3918 22.6455 80.4984 22.6766 80.5951C22.7077 80.6917 22.7554 80.7765 22.8168 80.8447C22.8781 80.9128 22.9521 80.963 23.0344 80.9923ZM26.3048 79.6566C26.2174 79.5187 26.0651 79.4299 25.8815 79.4097C25.6979 79.3895 25.498 79.4395 25.3258 79.5488C25.2406 79.6029 25.1647 79.6699 25.1025 79.746C25.0403 79.8221 24.9931 79.9058 24.9634 79.9923C24.9338 80.0789 24.9223 80.1665 24.9297 80.2503C24.9371 80.334 24.9632 80.4123 25.0065 80.4805C25.094 80.6184 25.2463 80.7071 25.4299 80.7274C25.6135 80.7476 25.8133 80.6975 25.9855 80.5883C26.0708 80.5342 26.1466 80.4672 26.2088 80.3911C26.271 80.3149 26.3183 80.2312 26.3479 80.1447C26.3776 80.0582 26.389 79.9706 26.3816 79.8868C26.3742 79.8031 26.3482 79.7248 26.3048 79.6566ZM20.8599 81.1384C20.9435 81.1694 21.0343 81.1785 21.1271 81.1653C21.2198 81.1521 21.3127 81.1168 21.4004 81.0615C21.4882 81.0061 21.569 80.9318 21.6383 80.8427C21.7077 80.7537 21.7642 80.6516 21.8046 80.5424C21.845 80.4332 21.8685 80.3189 21.8738 80.2062C21.8791 80.0934 21.8661 79.9844 21.8355 79.8853C21.805 79.7862 21.7574 79.6989 21.6956 79.6285C21.6337 79.5581 21.5589 79.506 21.4752 79.475C21.3915 79.4441 21.3007 79.435 21.208 79.4482C21.1152 79.4614 21.0223 79.4967 20.9346 79.552C20.8469 79.6074 20.7661 79.6817 20.6967 79.7707C20.6274 79.8598 20.5709 79.9619 20.5305 80.0711C20.4901 80.1803 20.4666 80.2946 20.4612 80.4073C20.4559 80.5201 20.4689 80.6291 20.4995 80.7282C20.5301 80.8273 20.5777 80.9146 20.6395 80.985C20.7013 81.0553 20.7762 81.1075 20.8599 81.1384Z" fill="#122781"/>
<path d="M26.8515 63.3752C27.2808 63.7415 27.4026 64.2282 27.2171 64.8351C26.6306 66.758 25.6613 69.3759 24.3091 72.6887C23.7407 74.0802 23.0662 75.0944 21.644 75.5519C19.8776 76.1179 19.8068 76.974 19.0946 78.4481C18.8446 78.9669 17.8682 79.1509 17.5191 79.8018C16.9153 80.9386 17.7974 81.9079 16.2998 82.7664C16.278 82.7785 16.2536 82.7852 16.2286 82.7857C16.2037 82.7863 16.179 82.7807 16.1567 82.7696C16.1344 82.7584 16.1152 82.742 16.1006 82.7217C16.0861 82.7014 16.0768 82.6779 16.0734 82.6532C15.9272 81.6202 15.9995 80.6186 16.2904 79.6485C16.6087 78.5872 17.7573 78.4646 18.2172 77.4976C18.5191 76.8608 18.6653 76.1958 19.2266 75.651C20.2172 74.684 21.6912 74.6203 22.4813 73.3349C22.7454 72.9041 22.9357 72.5464 23.052 72.2619C24.2344 69.3657 25.3374 66.4475 26.361 63.5073C26.3772 63.4601 26.4048 63.4177 26.4413 63.3837C26.4778 63.3497 26.5221 63.3251 26.5704 63.3121C26.6187 63.2991 26.6696 63.298 26.7186 63.309C26.7676 63.32 26.8132 63.3427 26.8515 63.3752Z" fill="#122781"/>
</svg>
