<svg width="100" height="100" viewBox="0 0 100 100" fill="none" xmlns="http://www.w3.org/2000/svg">
<rect width="100" height="100" fill="#A48D43"/>
<path d="M50.0862 88C64.3566 81.0997 71.0649 75.1792 78.2179 62.6105C79.5847 60.2089 80.5848 57.6089 81.1868 54.9121C84.0764 41.9649 83.6937 33.1537 80.2148 17.9714C67.7495 19.9759 61.138 18.7719 50.0862 12C39.55 18.6274 32.9792 20.0476 19.9576 17.9714C16.4058 33.8222 16.0197 42.7019 18.9802 55.1473C19.5849 57.6895 20.5577 60.1376 21.8597 62.4032C28.8873 74.6324 35.6576 80.5827 50.0862 88Z" fill="url(#paint0_linear_49_1494)"/>
<path fill-rule="evenodd" clip-rule="evenodd" d="M66.9429 42.6511L67.7907 43.7108C67.9447 43.9033 68.0286 44.1425 68.0286 44.3891V56.7653H67.4857V57.5796H71.0143V56.7653H70.2V50.7939C73.2125 50.9066 74.8454 50.5814 75.9922 48.7625C76.5792 47.8315 76.7143 46.7013 76.7143 45.6006C76.7143 45.085 76.6557 44.5634 76.4495 44.0908C76.3554 43.8751 76.2495 43.6853 76.1143 43.5169C75.4095 42.639 74.1292 42.6449 72.9792 42.6502C72.8909 42.6507 72.8033 42.6511 72.7169 42.6511H66.9429ZM70.2001 43.7368V49.1654H71.4598C72.7276 49.1654 74.0247 48.6518 74.5314 47.4897C75.0565 46.2855 75.0527 45.0769 74.1924 44.2462C73.7681 43.8364 73.1501 43.7368 72.5602 43.7368H70.2001Z" fill="#BBA252"/>
<path d="M63.4142 45.9081V43.7367C61.04 42.0747 58.4582 41.8665 55.8503 43.6569C55.0966 44.1743 54.7285 45.0721 54.7285 45.9864C54.7285 46.9669 55.1718 47.8947 55.9346 48.5108L60.4958 52.1949C61.3365 52.8739 62.2093 53.8961 61.7018 54.8503C60.697 56.7392 56.3571 56.3702 56.3571 53.2367H56.3348C55.5976 53.2367 54.9999 53.8343 54.9999 54.5715C54.9999 55.3035 55.0906 56.0852 55.6301 56.58C57.0602 57.8915 60.0876 57.9132 62.2729 56.889C63.4907 56.3183 63.9571 54.9367 63.9571 53.5917C63.9571 52.4834 63.603 51.3741 62.7313 50.6895C60.9642 49.3015 58.6591 48.4463 57.546 47.2246C56.8946 46.5098 57.1108 45.3909 57.8397 44.7553C59.2318 43.5416 61.0064 43.9381 63.4142 45.9081Z" fill="#BBA252"/>
<path d="M42.7857 57.3081H39.2571V56.2224H39.7999V42.651H41.9714V56.2224H42.7857V57.3081Z" fill="#BBA252"/>
<path d="M52.5571 42.6511H49.0286V43.7368H49.5714V57.3083H51.7429V43.7368H52.5571V42.6511Z" fill="#BBA252"/>
<path d="M44.6856 51.8794C42.9485 47.3194 39.438 44.008 37.8999 42.9223C43.8713 42.108 48.2142 50.2509 48.757 51.8794C49.1913 53.1823 51.4713 56.0413 52.557 57.308C50.657 57.3985 46.4228 56.4394 44.6856 51.8794Z" fill="#B47F42"/>
<path d="M35.457 44.0083V47.2654C31.5833 43.308 27.5856 44.0083 25.957 47.2654C25.1428 48.3511 24.8713 52.1511 25.957 53.5083C28.6713 57.3083 32.7428 56.494 35.457 52.9654V55.9511C32.4713 58.1226 28.6713 57.8172 25.6856 55.9511C21.3427 53.2369 21.3428 47.5369 25.6856 44.0083C28.5412 41.6882 33.0142 42.6511 35.457 44.0083Z" fill="#BBA252"/>
<defs>
<linearGradient id="paint0_linear_49_1494" x1="27.829" y1="73.0714" x2="81.5719" y2="13.9" gradientUnits="userSpaceOnUse">
<stop offset="0.294732" stop-color="#201C1D"/>
<stop offset="0.43362" stop-color="#231F21"/>
<stop offset="0.54342" stop-color="#262324"/>
<stop offset="0.670108" stop-color="#2B2729"/>
<stop offset="0.749249" stop-color="#322E30"/>
<stop offset="1" stop-color="#4B494C"/>
</linearGradient>
</defs>
</svg>
