<svg width="100" height="100" viewBox="0 0 100 100" fill="none" xmlns="http://www.w3.org/2000/svg">
<rect width="100" height="100" fill="#F0FFFE"/>
<path d="M62.4385 26.0823C62.3613 26.1252 62.3021 26.1939 62.2609 26.2882C62.2278 26.3592 62.1688 26.4145 62.0962 26.4426C58.6916 27.701 54.5896 30.1277 53.4702 32.9997C52.9675 34.2881 53.2514 35.0987 54.322 35.4315C54.7045 35.7815 55.1068 36.0946 55.5289 36.3708C56.6972 37.1325 57.3689 37.9354 57.9607 39.1089C57.9716 39.1306 57.9772 39.1545 57.9769 39.1787C57.9767 39.2029 57.9706 39.2267 57.9593 39.2482C57.948 39.2696 57.9317 39.288 57.9118 39.3018C57.8919 39.3156 57.869 39.3245 57.8449 39.3276C57.7231 39.3414 57.6185 39.3036 57.531 39.2144C56.7873 38.4604 56.1774 37.4208 55.3024 36.8649C54.1264 36.1212 52.9297 35.1716 51.7691 34.6235C47.433 32.5776 41.9696 32.2971 37.8779 35.169C36.0302 36.466 34.3035 37.9097 32.6977 39.5001C32.6376 39.5618 32.6428 39.6167 32.7131 39.6648L34.7307 41.039C34.7635 41.0617 34.7882 41.0943 34.8012 41.132C34.8142 41.1697 34.8149 41.2106 34.8032 41.2487C34.7914 41.2868 34.7678 41.3202 34.7358 41.3441C34.7038 41.3679 34.665 41.3809 34.6251 41.3812L33.4156 41.3864C33.3643 41.387 33.3145 41.4045 33.2741 41.4363C33.2337 41.468 33.2048 41.5121 33.1919 41.5618C33.179 41.6116 33.1829 41.6642 33.2028 41.7115C33.2228 41.7589 33.2578 41.7983 33.3024 41.8238C34.4759 42.4689 35.4186 43.3336 36.1306 44.4178C36.6633 45.231 37.5228 45.5578 38.3643 45.9078C38.8996 46.1317 39.1981 46.5152 39.6819 46.7442C41.3168 47.5196 42.7682 48.0498 44.0361 48.3345C44.4581 48.4289 44.7266 48.5421 44.8416 48.6742C46.1874 50.2054 47.5745 51.9708 48.0609 53.9883C48.5575 56.0367 49.1855 57.9642 49.5946 60.0384C49.5973 60.0563 49.6061 60.0727 49.6196 60.0847C49.633 60.0968 49.6503 60.1037 49.6684 60.1043C49.6865 60.1049 49.7042 60.0992 49.7184 60.0881C49.7327 60.077 49.7426 60.0612 49.7465 60.0435C50.1462 58.563 50.0175 57.1407 49.3604 55.7768C49.3431 55.7408 49.3349 55.7012 49.3364 55.6613C49.3379 55.6214 49.3492 55.5825 49.3693 55.5479C49.3894 55.5134 49.4176 55.4843 49.4515 55.4632C49.4854 55.4421 49.5239 55.4296 49.5637 55.4268C50.8865 55.3445 50.6754 53.8365 49.9111 53.2652C49.4102 52.8912 48.8741 52.4211 48.3028 51.855C48.2763 51.8281 48.2601 51.793 48.2567 51.7554C48.2534 51.7179 48.2632 51.6804 48.2845 51.6494C48.3059 51.6183 48.3373 51.5957 48.3735 51.5853C48.4097 51.5749 48.4484 51.5774 48.4829 51.5925C49.5963 52.1003 50.4662 52.8929 51.0923 53.9703C51.6276 54.889 52.5283 55.5169 52.868 56.4099C53.1356 57.1133 53.4599 57.7892 53.8407 58.4377C54.4867 59.534 54.623 61.0008 54.9782 62.2258C55.0091 62.3304 54.9953 62.4394 54.937 62.5526C54.8958 62.6315 54.8598 62.6298 54.8289 62.5474L54.6025 61.9761C54.5958 61.9581 54.5845 61.9421 54.5697 61.9297C54.5549 61.9173 54.5371 61.909 54.5181 61.9057C54.4991 61.9023 54.4796 61.9039 54.4614 61.9104C54.4433 61.9169 54.4271 61.928 54.4146 61.9427C54.3425 62.0216 54.316 62.122 54.3348 62.2438C54.3382 62.2703 54.3327 62.2966 54.3194 62.3184L53.3132 63.9782C53.3054 63.992 53.3016 64.0076 53.3022 64.0234C53.3028 64.0392 53.3078 64.0545 53.3166 64.0676C53.3254 64.0807 53.3377 64.0911 53.3521 64.0976C53.3665 64.1041 53.3825 64.1064 53.3981 64.1044C55.6164 63.8007 52.832 68.4457 52.536 68.9295C52.4914 69.0033 52.512 69.0401 52.5978 69.0401C53.7738 69.0453 54.9061 66.5517 55.2149 65.548C55.226 65.5135 55.2462 65.4826 55.2733 65.4586C55.3003 65.4345 55.3333 65.4181 55.3687 65.4113C55.4041 65.4044 55.4405 65.4073 55.4741 65.4196C55.5078 65.4319 55.5374 65.4531 55.5598 65.4811C55.6438 65.5875 55.679 65.7462 55.6653 65.9572C55.4929 68.3479 54.2422 69.8173 52.6827 71.4668C52.1449 72.0381 51.4192 72.3161 50.763 72.7587C50.746 72.7699 50.7255 72.7748 50.7051 72.7725C50.6847 72.7701 50.6659 72.7607 50.6521 72.746C50.6383 72.7312 50.6304 72.7121 50.63 72.6922C50.6296 72.6723 50.6366 72.653 50.6497 72.6377L50.992 72.208C51.0572 72.1274 51.0392 72.075 50.9379 72.051C47.9614 71.3579 45.4103 69.9606 43.2846 67.8589C42.124 66.7138 41.4035 65.1286 40.5465 63.6772C39.4786 61.8706 39.5223 59.6627 39.5764 57.6297C39.6098 56.415 39.247 54.9765 38.9099 54.0475C38.5444 53.0439 36.2618 50.8822 35.217 50.437C32.4995 49.2841 29.8849 49.351 27.6178 51.3403C25.7624 52.9692 27.1571 56.0728 26.4109 58.183C26.3765 58.2825 26.4023 58.303 26.4881 58.2447C28.0887 57.1665 26.0995 53.6358 28.0295 51.8215C30.5617 49.4385 34.2083 49.8194 36.5706 52.2641C38.2022 53.9497 39.1801 55.1592 39.0514 57.6245C38.8944 60.6817 38.7374 63.4224 39.0617 66.7318C39.0874 67.0046 39.2547 67.4704 39.2804 67.8358C39.2835 67.86 39.2774 67.8846 39.2632 67.9045C39.2491 67.9245 39.228 67.9384 39.2041 67.9436C39.1802 67.9488 39.1552 67.9448 39.1341 67.9325C39.113 67.9201 39.0972 67.9003 39.09 67.877C38.9905 67.6093 38.7949 67.509 38.5033 67.5759C38.4243 67.593 38.3935 67.6411 38.4106 67.72C38.68 69.0101 38.9502 70.2994 39.2212 71.5878C39.4168 72.5117 40.3793 73.3454 41.0072 74.0119C41.0206 74.0266 41.0295 74.0448 41.0328 74.0644C41.036 74.084 41.0336 74.1041 41.0257 74.1223C41.0178 74.1405 41.0048 74.1561 40.9883 74.1671C40.9718 74.1781 40.9524 74.1841 40.9326 74.1844L14.4986 74.0351C14.4727 74.0347 14.4473 74.0282 14.4244 74.0163C14.4015 74.0044 14.3817 73.9874 14.3666 73.9666C14.3516 73.9458 14.3417 73.9218 14.3378 73.8966C14.3339 73.8714 14.3361 73.8457 14.3442 73.8215C14.4591 73.4698 14.6084 73.1078 14.7919 72.7355C16.3077 69.6474 17.3499 66.4359 18.8013 63.3246C19.8178 61.1449 20.7082 58.5407 21.5111 56.6441C23.2276 52.5781 24.7587 48.6974 26.5807 44.4101C27.315 42.6876 28.0081 40.9472 28.66 39.1887C28.6823 39.1269 28.6609 39.096 28.5957 39.096L13.2016 39.1038C13.1668 39.1039 13.1325 39.095 13.1022 39.0779C13.0719 39.0608 13.0465 39.0362 13.0286 39.0063C13.0107 38.9765 13.0009 38.9425 13.0001 38.9077C12.9992 38.8729 13.0075 38.8385 13.024 38.8078C13.9736 37.0116 14.4317 35.0815 15.2757 33.3188C16.3909 30.9958 17.3456 28.63 18.1399 26.2213C18.1611 26.1568 18.2021 26.1007 18.2571 26.061C18.3121 26.0212 18.3783 25.9999 18.4462 26L62.4385 26.0823Z" fill="#E72020"/>
<path d="M54.3219 35.4315C53.2514 35.0987 52.9675 34.2881 53.4701 32.9997C54.5896 30.1277 58.6916 27.701 62.0962 26.4426C62.1688 26.4145 62.2278 26.3592 62.2609 26.2882C62.302 26.1939 62.3612 26.1253 62.4384 26.0824L87.8945 26.0103C87.9803 26.0086 88.0137 26.0498 87.9949 26.1338C87.8559 26.7334 87.4442 27.1658 87.2537 27.6315C86.8935 28.5117 86.6155 29.3943 86.1986 30.2487C85.4129 31.8528 84.7369 33.5015 84.1708 35.1948C83.8002 36.3013 83.1363 37.2483 82.6937 38.3523C82.6787 38.3909 82.6522 38.4241 82.6178 38.4475C82.5834 38.4709 82.5425 38.4835 82.5007 38.4836C78.5428 38.4939 74.5935 38.4939 70.6527 38.4836C70.1741 38.4819 69.7332 38.5711 69.33 38.7512C67.8632 39.4023 66.7489 40.0868 67.0345 41.811C67.3408 43.6587 69.8859 45.5296 71.4762 46.2861C72.2354 46.649 72.3821 47.2717 72.9971 47.6372C73.8386 48.1416 74.8474 48.5662 75.4109 49.4128C76.7697 51.4561 78.3652 52.766 78.6534 55.5375C78.9519 58.4274 78.9674 61.9633 77.1609 64.3926C76.3322 65.5094 75.694 66.791 74.6235 67.6788C73.4063 68.6902 72.3975 69.4493 70.8895 70.2393C69.8164 70.8004 68.7999 71.4772 67.6933 71.858C62.7318 73.5668 56.7847 74.1381 51.5632 74.3259C51.3505 74.3345 51.2115 74.2925 51.1463 74.1998C51.1309 74.1782 51.1209 74.1533 51.1171 74.127C51.1134 74.1007 51.1161 74.0739 51.1249 74.0489C51.1337 74.0239 51.1485 74.0014 51.1679 73.9833C51.1873 73.9652 51.2108 73.9521 51.2364 73.945C52.5557 73.5573 53.809 73.0778 54.9962 72.5065C57.4409 71.3356 59.5691 68.8497 61.2212 66.7447C61.8774 65.9032 62.109 64.9278 62.7009 64.004C63.4318 62.864 63.6917 61.6622 64.0854 60.4141C64.13 60.27 64.1798 60.2683 64.2347 60.409C64.649 61.4743 63.4832 64.0966 62.93 65.072C62.923 65.0824 62.92 65.095 62.9217 65.1075C62.9233 65.1199 62.9295 65.1313 62.939 65.1395C62.9485 65.1478 62.9606 65.1522 62.9732 65.1521C62.9857 65.152 62.9978 65.1473 63.0072 65.1389C64.2956 64.1627 65.0153 62.8623 65.1662 61.2376C65.1765 61.1381 65.2314 61.0832 65.3309 61.0729C66.4993 60.9519 66.754 59.3281 66.5945 58.4274C66.5756 58.3279 66.6091 58.2499 66.6948 58.1933L67.0114 57.9797C67.0267 57.9692 67.0397 57.9556 67.0495 57.9396C67.0592 57.9236 67.0655 57.9057 67.068 57.887L67.315 55.7614C67.3182 55.7361 67.315 55.7104 67.3055 55.6866C67.2961 55.6628 67.2808 55.6416 67.261 55.625C66.9161 55.3402 66.8887 55.0486 67.1786 54.75C67.249 54.678 67.2833 54.5914 67.2816 54.4901L67.2069 51.505C67.2052 51.4209 67.225 51.3429 67.2661 51.2708C67.4651 50.9105 67.4283 50.5683 67.1555 50.244C67.1102 50.192 67.0815 50.1275 67.0731 50.0587C66.9976 49.4995 66.9788 48.9453 67.0165 48.3963C67.0654 47.6989 66.471 47.089 66.7978 46.2887C66.8355 46.1978 66.8124 46.1283 66.7283 46.0803C64.9655 45.0612 65.4416 43.4116 64.0005 42.2253C63.9061 42.1481 63.919 42.1009 64.0391 42.0838L64.9166 41.9551C65.0093 41.9414 65.0238 41.9002 64.9604 41.8316L61.5712 38.1542C61.5437 38.1233 61.5094 38.1061 61.4683 38.1027C61.4322 38.0993 61.4048 38.0813 61.3859 38.0487C61.3619 38.0058 61.3739 37.9801 61.4219 37.9715C61.6021 37.9406 61.7419 37.8411 61.8414 37.673C61.8659 37.6316 61.8818 37.5857 61.8882 37.5381C61.8946 37.4904 61.8913 37.4419 61.8786 37.3954C61.8659 37.3488 61.844 37.3053 61.8142 37.2672C61.7844 37.2291 61.7472 37.1974 61.705 37.1737C60.6757 36.6007 59.7261 35.911 58.8563 35.1047C58.7911 35.0429 58.761 34.9666 58.7662 34.8757C58.7816 34.5857 58.8846 34.3293 59.075 34.1062C59.2088 33.9501 59.1736 33.8866 58.9695 33.9158C57.3723 34.1337 55.8231 34.6389 54.3219 35.4315Z" fill="black"/>
<path d="M43.0477 37.3257C43.3591 36.1856 42.0801 36.0261 42.201 34.8706C42.2148 34.742 42.2731 34.7162 42.376 34.7934C44.216 36.1753 44.2958 37.7503 42.5484 39.2274C42.5173 39.2536 42.4797 39.271 42.4396 39.2777C42.3995 39.2843 42.3583 39.2801 42.3204 39.2653C42.2825 39.2506 42.2492 39.2259 42.2242 39.1939C42.1991 39.1618 42.1831 39.1236 42.1779 39.0833L42.1316 38.7127C42.1178 38.6115 42.153 38.5309 42.2371 38.4708C42.6505 38.174 42.9207 37.7923 43.0477 37.3257Z" fill="#E72020"/>
<path d="M39.1722 36.2602C39.1442 36.2827 39.1254 36.3147 39.1194 36.3501C39.1134 36.3855 39.1206 36.4219 39.1397 36.4524C39.1587 36.4828 39.1882 36.5052 39.2227 36.5153C39.2571 36.5255 39.2941 36.5226 39.3266 36.5073C39.7332 36.2834 40.1449 35.9823 40.567 35.8845C42.3015 35.4805 42.4095 37.1558 42.0081 38.3112C41.9789 38.397 41.9249 38.4631 41.846 38.5094C41.285 38.8388 40.6828 38.9057 40.0394 38.7101C39.9851 38.6937 39.9266 38.6991 39.8765 38.7251C39.8264 38.7511 39.7888 38.7956 39.7718 38.8491L39.6354 39.2788C39.624 39.3144 39.602 39.3455 39.5724 39.3682C39.5428 39.3909 39.5069 39.4039 39.4696 39.4056C39.4324 39.4073 39.3955 39.3975 39.3639 39.3776C39.3324 39.3577 39.3077 39.3286 39.2932 39.2943C38.9466 38.4811 38.7159 37.6344 38.6009 36.7543C38.5942 36.7039 38.6023 36.653 38.6241 36.6076L39.2623 35.2257C39.2792 35.1889 39.3076 35.1586 39.3434 35.1395C39.3791 35.1205 39.4201 35.1136 39.4601 35.12C39.5001 35.1264 39.5368 35.1458 39.5648 35.1751C39.5927 35.2044 39.6103 35.2421 39.6148 35.2823C39.6629 35.6941 39.5153 36.0201 39.1722 36.2602ZM41.1743 37.6036L41.393 36.9988C41.4012 36.9763 41.4048 36.9525 41.4036 36.9286C41.4024 36.9048 41.3965 36.8814 41.3862 36.8598C41.3759 36.8383 41.3614 36.819 41.3436 36.8031C41.3258 36.7872 41.305 36.775 41.2824 36.7672L41.2515 36.7569C41.1429 36.718 41.0312 36.6913 40.9226 36.6784C40.8141 36.6655 40.7108 36.6666 40.6188 36.6816C40.5268 36.6967 40.4478 36.7254 40.3864 36.7661C40.3249 36.8069 40.2822 36.8588 40.2607 36.919L40.2505 36.9473C40.229 37.0075 40.2291 37.0748 40.2509 37.1453C40.2726 37.2158 40.3155 37.2881 40.3772 37.3582C40.4389 37.4282 40.5181 37.4945 40.6102 37.5534C40.7024 37.6123 40.8058 37.6626 40.9144 37.7013L40.9453 37.7116C40.99 37.7274 41.0391 37.7249 41.082 37.7046C41.1249 37.6844 41.158 37.6481 41.1743 37.6036Z" fill="#E72020"/>
<path d="M49.0002 46.1113C52.4074 44.6625 51.9493 40.3263 51.1902 37.336C51.0512 36.7879 50.6986 36.1702 50.5906 35.5269C50.5812 35.4751 50.591 35.4216 50.6183 35.3766C50.6455 35.3315 50.6882 35.298 50.7384 35.2822C50.7886 35.2664 50.8429 35.2695 50.891 35.2908C50.9391 35.3122 50.9778 35.3504 50.9997 35.3982C52.518 38.6175 53.4599 42.7221 50.7038 45.6429C49.1726 47.2642 46.7124 47.8406 44.5894 47.8972C44.5447 47.9007 44.5004 47.8872 44.4653 47.8594C44.4302 47.8316 44.4069 47.7916 44.4 47.7473C44.3932 47.703 44.4033 47.6578 44.4284 47.6207C44.4535 47.5836 44.4917 47.5574 44.5353 47.5472C45.6007 47.2462 47.0341 47.1921 47.994 46.6234C48.3217 46.4295 48.6571 46.2588 49.0002 46.1113Z" fill="#E72020"/>
<path d="M49.8467 41.3015C49.9084 40.1315 49.7609 38.946 49.404 37.7451C49.3898 37.6973 49.3883 37.6465 49.3997 37.5979C49.4111 37.5494 49.4351 37.5046 49.4692 37.4682C49.5033 37.4317 49.5463 37.4048 49.594 37.3902C49.6418 37.3756 49.6925 37.3737 49.7412 37.3848L50.0371 37.4543C50.0709 37.4619 50.1018 37.4788 50.126 37.5029C50.1502 37.5271 50.1667 37.5576 50.1735 37.5907C50.5672 39.4847 50.7731 41.757 49.8467 43.4632C48.9443 45.1273 47.4628 46.0151 45.4024 46.1267C45.3488 46.1301 45.2959 46.1135 45.2539 46.0801C45.2119 46.0467 45.1839 45.9988 45.1752 45.9458C45.1665 45.8929 45.1779 45.8386 45.207 45.7935C45.2362 45.7485 45.2811 45.7159 45.3329 45.702L47.6104 45.069C47.6876 45.0484 47.7519 45.0072 47.8034 44.9455C48.6372 43.965 49.7695 42.7709 49.8467 41.3015Z" fill="#E72020"/>
<path d="M36.8254 42.1432L37.1445 41.7803C37.2149 41.7014 37.2132 41.6242 37.1394 41.5487L36.02 40.3778C35.9914 40.3459 35.9548 40.3227 35.9145 40.3109C35.0395 40.0553 34.1663 39.8108 33.2947 39.5775C33.2021 39.5518 33.1583 39.5252 33.1635 39.4977C33.1679 39.4699 33.1778 39.4433 33.1925 39.4195C33.2073 39.3956 33.2267 39.375 33.2496 39.3589C33.2724 39.3428 33.2982 39.3315 33.3255 39.3257C33.3527 39.32 33.3807 39.3198 33.408 39.3253C35.2968 39.719 36.7637 39.7602 37.8883 41.5719C37.9346 41.6474 37.9337 41.7229 37.8857 41.7983C37.2449 42.8071 36.1075 42.7659 35.5284 41.7289C35.4999 41.6792 35.4907 41.6208 35.5027 41.5648C35.5146 41.5088 35.5469 41.4592 35.5933 41.4257C35.6397 41.3921 35.6968 41.3769 35.7538 41.383C35.8107 41.3891 35.8634 41.416 35.9016 41.4586L36.5269 42.1458C36.5459 42.1665 36.5691 42.1831 36.5949 42.1943C36.6207 42.2055 36.6486 42.2112 36.6768 42.211C36.7049 42.2107 36.7327 42.2046 36.7583 42.1929C36.7839 42.1812 36.8068 42.1643 36.8254 42.1432Z" fill="#E72020"/>
<path d="M57.9041 50.9544C58.1117 51.3404 58.4274 51.6012 58.8511 51.7367C58.9249 51.7607 58.9875 51.8027 59.039 51.8628C59.4379 52.3363 60.4106 53.2627 60.3694 53.8829C60.3665 53.9275 60.3512 53.9703 60.3253 54.0066C60.2993 54.0429 60.2637 54.0713 60.2225 54.0884C60.1812 54.1055 60.136 54.1108 60.092 54.1036C60.0479 54.0964 60.0068 54.077 59.9731 54.0476C59.1239 53.3013 58.6633 52.2488 57.8424 51.5617C57.812 51.5362 57.7744 51.5208 57.7349 51.5176C57.6954 51.5145 57.6559 51.5238 57.6219 51.5442C57.5879 51.5646 57.5611 51.5951 57.5452 51.6314C57.5294 51.6678 57.5253 51.7082 57.5336 51.747L57.8346 53.273C57.8438 53.3171 57.8371 53.363 57.8156 53.4026C57.7941 53.4422 57.7593 53.4729 57.7174 53.4893C57.6754 53.5056 57.629 53.5066 57.5864 53.492C57.5438 53.4773 57.5077 53.4481 57.4847 53.4094C56.8079 52.3157 56.1259 50.3779 55.0374 49.8066C54.9704 49.7706 54.925 49.7166 54.901 49.6445L54.6951 49.0166C54.6694 48.936 54.6951 48.8794 54.7723 48.8468C55.1943 48.6735 55.4723 48.7421 55.6061 49.0526C55.9955 49.955 56.4553 50.7862 56.9854 51.5462C57.0088 51.5809 57.0439 51.6059 57.0843 51.6166C57.1247 51.6273 57.1676 51.6229 57.205 51.6044C57.2424 51.5858 57.2718 51.5543 57.2878 51.5157C57.3037 51.4771 57.3051 51.434 57.2917 51.3944C57.1544 50.9638 57.0249 50.5443 56.9031 50.136C56.8327 49.8976 56.8773 49.7217 57.0369 49.6085C57.0501 49.5992 57.0653 49.5929 57.0813 49.59C57.0973 49.5872 57.1138 49.5878 57.1296 49.592C57.1455 49.5961 57.1604 49.6037 57.1732 49.6141C57.1861 49.6244 57.1966 49.6375 57.2042 49.6522L57.6725 50.6095C57.6948 50.6547 57.7324 50.6903 57.7787 50.7102C57.8249 50.73 57.8767 50.7326 57.9247 50.7176L58.864 50.4294C58.8997 50.4179 58.9379 50.4166 58.9743 50.4257C59.0107 50.4348 59.0438 50.4539 59.0699 50.4809L60.3566 51.8139C60.3774 51.8364 60.4052 51.8512 60.4354 51.8557C60.4656 51.8602 60.4965 51.8543 60.5232 51.8389C60.5499 51.8235 60.5708 51.7994 60.5826 51.7706C60.5944 51.7418 60.5964 51.7099 60.5882 51.6801L60.3694 50.9003C60.3567 50.8554 60.3579 50.8077 60.3728 50.7634C60.3877 50.7192 60.4156 50.6805 60.4529 50.6524C60.4902 50.6242 60.5351 50.6081 60.5817 50.6059C60.6284 50.6038 60.6746 50.6158 60.7143 50.6404L61.5146 51.1345C61.5552 51.1582 61.6001 51.1723 61.6458 51.1757C62.1931 51.2186 62.7121 51.361 63.2028 51.6029C63.2246 51.6127 63.2492 51.6148 63.2724 51.6088C63.2956 51.6028 63.316 51.5891 63.3304 51.5699C63.3448 51.5508 63.3522 51.5273 63.3514 51.5033C63.3507 51.4794 63.3418 51.4564 63.3263 51.4382C62.2146 50.239 61.1415 48.7876 59.757 47.9178C59.3161 47.6415 58.8271 47.3044 58.2901 46.9064C56.6818 45.7098 54.6436 45.3495 52.747 44.9223C52.7199 44.9165 52.6942 44.905 52.6717 44.8887C52.6492 44.8723 52.6303 44.8513 52.6163 44.8271C52.6023 44.8029 52.5934 44.776 52.5902 44.7481C52.587 44.7202 52.5896 44.6919 52.5978 44.665C52.6441 44.5192 52.723 44.4651 52.8345 44.5029C52.9375 44.5372 52.9932 44.5552 53.0018 44.5569C56.584 45.1668 59.6334 46.7108 62.1605 49.4052C63.4266 50.7562 64.6284 52.6528 65.8971 54.2638C65.9127 54.2833 65.9228 54.3065 65.9267 54.3312C65.9306 54.3558 65.928 54.3811 65.9191 54.4044C65.9103 54.4278 65.8956 54.4484 65.8764 54.4644C65.8572 54.4803 65.8342 54.491 65.8096 54.4954C65.3258 54.5854 65.0144 54.3641 64.7442 53.9421C64.3857 53.3777 63.9636 52.8647 63.4781 52.4032C63.4624 52.3893 63.4424 52.3811 63.4214 52.3801C63.4004 52.379 63.3797 52.3851 63.3626 52.3974C63.3456 52.4097 63.3332 52.4274 63.3275 52.4476C63.3219 52.4678 63.3232 52.4894 63.3314 52.5087C63.5476 52.9702 63.6342 53.4591 63.5913 53.9755C63.5891 54.0072 63.5766 54.0373 63.5557 54.0612C63.5349 54.0852 63.5069 54.1017 63.4759 54.1084C63.4448 54.1151 63.4125 54.1115 63.3836 54.0982C63.3548 54.0849 63.3311 54.0627 63.316 54.0347C62.8391 53.1786 62.2635 52.4169 61.5892 51.7496C61.4503 51.6123 61.2993 51.5711 61.1363 51.626C61.1033 51.6372 61.0738 51.6568 61.0508 51.683C61.0277 51.7092 61.0121 51.741 61.0053 51.7752C60.9985 51.8094 61.0008 51.8448 61.0121 51.8778C61.0234 51.9108 61.0431 51.9402 61.0694 51.9631C61.5686 52.3989 61.8337 52.9513 61.8646 53.6204C61.8655 53.6476 61.8584 53.6745 61.8441 53.6977C61.8299 53.7209 61.8091 53.7394 61.7845 53.7509C61.7598 53.7624 61.7323 53.7664 61.7054 53.7625C61.6784 53.7585 61.6533 53.7467 61.633 53.7285C60.7838 52.9359 60.2228 51.4562 58.828 51.5462C58.7336 51.5531 58.689 51.5102 58.6942 51.4176C58.7182 50.908 58.4668 50.7262 57.9401 50.872C57.8921 50.884 57.8801 50.9115 57.9041 50.9544Z" fill="black"/>
<path d="M55.0219 52.4855C54.9945 52.4289 54.961 52.4006 54.9216 52.4006C54.9088 52.4007 54.8964 52.3963 54.8869 52.3882C54.8774 52.3801 54.8714 52.3689 54.8701 52.3568C54.4515 49.9155 53.3492 47.844 51.5633 46.1421C51.5474 46.1276 51.5362 46.1087 51.5311 46.0878C51.5261 46.0669 51.5273 46.0449 51.5348 46.0248C51.5422 46.0046 51.5556 45.9871 51.573 45.9745C51.5905 45.962 51.6113 45.9549 51.6328 45.9542C52.6647 45.9027 53.3904 47.6835 53.9488 48.4118C54.3632 48.9522 54.4944 49.6779 55.1069 50.1849C55.1841 50.2484 55.2321 50.329 55.251 50.4268L55.5829 52.187C55.5963 52.2644 55.5841 52.348 55.5483 52.4226C55.5126 52.4972 55.4558 52.558 55.3881 52.5941C55.3204 52.6301 55.2463 52.6389 55.1792 52.619C55.1121 52.5991 55.0563 52.5518 55.0219 52.4855Z" fill="black"/>
</svg>
