<svg width="100" height="100" viewBox="0 0 100 100" fill="none" xmlns="http://www.w3.org/2000/svg">
<rect width="100" height="100" fill="#FCA43B"/>
<path d="M75.5126 33.0858C77.0702 33.0921 78.6288 33.0941 80.1885 33.0921C84.9793 33.0858 83.9012 36.9539 83.8857 40.1882C83.8732 42.5526 83.0748 43.727 80.6731 43.7301C76.5037 43.7321 72.3342 43.7321 68.1648 43.7301C65.7849 43.727 64.6509 42.8788 64.6322 40.4958C64.6177 38.7746 64.6167 37.0596 64.6291 35.3508C64.6291 35.3071 64.6118 35.2652 64.5809 35.2343C64.55 35.2035 64.5081 35.1861 64.4645 35.1861H35.1074C35.0039 35.1861 34.9521 35.2379 34.9521 35.3415V65.2453C34.9521 65.2865 34.9684 65.326 34.9976 65.3552C35.0267 65.3843 35.0662 65.4007 35.1074 65.4007H64.4645C64.568 65.4007 64.6198 65.3499 64.6198 65.2484C64.626 63.7012 64.6281 62.1622 64.626 60.6316C64.6229 58.3822 65.2785 56.9406 67.6832 56.9375C71.9479 56.9333 76.2116 56.9323 80.4743 56.9344C82.6491 56.9375 83.8577 57.7546 83.8764 59.9698C83.8919 61.5792 84.2492 64.9843 83.4352 66.2644C82.18 68.2404 77.6781 67.5662 75.5219 67.5817C75.4059 67.5838 75.3469 67.6428 75.3448 67.7588C75.3386 69.3557 75.3345 70.9382 75.3324 72.5061C75.3293 74.9979 74.4221 76.1288 71.9428 76.1194C70.2547 76.1132 68.5676 76.1143 66.8816 76.1225C66.7739 76.1225 66.7201 76.1764 66.7201 76.2841C66.7201 77.9287 66.719 79.5691 66.717 81.2054C66.7139 83.169 65.9558 84.5795 63.8711 84.5795C54.7181 84.5857 45.5663 84.5878 36.4154 84.5857C33.9268 84.5857 32.886 83.7065 32.8674 81.2551C32.8529 79.6002 32.8497 77.9432 32.858 76.2841C32.858 76.1764 32.8042 76.1225 32.6965 76.1225C31.1078 76.1184 29.5264 76.1163 27.9522 76.1163C25.5444 76.1194 24.3917 75.206 24.3949 72.8044C24.399 71.1267 24.3949 69.4448 24.3824 67.7588C24.3804 67.6449 24.3234 67.5879 24.2115 67.5879C22.1921 67.5599 17.5814 68.2186 16.4195 66.2861C16.1378 65.8201 15.998 65.0983 16 64.1206C16 54.8931 16.0011 45.6657 16.0031 36.4382C16.0031 34.1639 16.9476 33.0858 19.1877 33.0952C20.8592 33.1014 22.5318 33.0962 24.2053 33.0796C24.3213 33.0796 24.3793 33.0216 24.3793 32.9056C24.3959 31.346 24.4 29.8008 24.3917 28.2702C24.3824 25.9586 25.1032 24.545 27.5421 24.5481C29.2592 24.5502 30.9773 24.5481 32.6965 24.5419C32.8042 24.5419 32.857 24.488 32.8549 24.3803C32.8508 22.802 32.8529 21.2299 32.8611 19.6641C32.8767 17.3059 33.6689 16.0072 36.1016 16.0041C45.0246 16 53.9476 15.999 62.8706 16.001C65.4245 16.0041 66.7232 16.7032 66.717 19.3565C66.7149 21.028 66.717 22.7026 66.7232 24.3803C66.7232 24.488 66.777 24.5419 66.8847 24.5419C68.5252 24.5481 70.1604 24.5491 71.7905 24.545C74.1393 24.5388 75.3262 25.4305 75.3324 27.7855C75.3365 29.4943 75.3407 31.2041 75.3448 32.915C75.3448 33.0268 75.4007 33.0838 75.5126 33.0858ZM64.4583 18.3623C64.2511 18.2297 64.0668 18.1634 63.9052 18.1634C54.5017 18.1158 45.1354 18.0909 35.8065 18.0889C35.5799 18.0889 35.3626 18.1789 35.2023 18.3391C35.0421 18.4993 34.9521 18.7167 34.9521 18.9433V24.3897C34.9521 24.4932 35.0039 24.545 35.1074 24.545H64.4676C64.5088 24.545 64.5483 24.5286 64.5774 24.4995C64.6066 24.4704 64.6229 24.4309 64.6229 24.3897V18.6605C64.623 18.6014 64.608 18.5431 64.5792 18.491C64.5504 18.4388 64.5088 18.3946 64.4583 18.3623ZM26.5573 27.0647C26.511 27.1229 26.4858 27.1963 26.4858 27.2728V32.9336C26.4858 33.0372 26.5376 33.089 26.6411 33.089H32.6219C32.7773 33.089 32.8549 33.0113 32.8549 32.8559V26.8037C32.8549 26.7655 32.84 26.7288 32.8133 26.7015C32.7865 26.6742 32.7502 26.6585 32.712 26.6577C30.8686 26.6245 29.0521 26.6235 27.2625 26.6546C26.927 26.6608 26.7499 26.8223 26.5573 27.0647ZM64.6229 26.8161C64.6229 26.7933 64.6184 26.7707 64.6097 26.7496C64.6009 26.7284 64.5881 26.7093 64.572 26.6931C64.5558 26.677 64.5366 26.6641 64.5155 26.6554C64.4944 26.6467 64.4718 26.6421 64.4489 26.6421H35.1261C35.1032 26.6421 35.0806 26.6467 35.0595 26.6554C35.0384 26.6641 35.0192 26.677 35.003 26.6931C34.9869 26.7093 34.9741 26.7284 34.9653 26.7496C34.9566 26.7707 34.9521 26.7933 34.9521 26.8161V32.9181C34.9521 32.9642 34.9704 33.0085 35.003 33.0411C35.0357 33.0737 35.0799 33.0921 35.1261 33.0921H64.4489C64.4951 33.0921 64.5393 33.0737 64.572 33.0411C64.6046 33.0085 64.6229 32.9642 64.6229 32.9181V26.8161ZM72.5051 26.6421H66.9158C66.7853 26.6421 66.7201 26.7064 66.7201 26.8348V32.8932C66.7201 33.0237 66.7843 33.089 66.9127 33.089H73.0892C73.1928 33.089 73.2446 33.0372 73.2446 32.9336V27.3785C73.2446 27.1832 73.1666 26.9959 73.028 26.8578C72.8893 26.7197 72.7012 26.6421 72.5051 26.6421ZM18.7186 65.4007H24.2333C24.2745 65.4007 24.314 65.3843 24.3431 65.3552C24.3723 65.326 24.3886 65.2865 24.3886 65.2453V35.4191C24.3886 35.2638 24.311 35.1861 24.1556 35.1861H18.8366C18.7293 35.1861 18.6231 35.2072 18.5239 35.2481C18.4248 35.289 18.3347 35.3489 18.2588 35.4245C18.183 35.5001 18.1228 35.5898 18.0817 35.6886C18.0406 35.7874 18.0195 35.8932 18.0195 36.0001V64.7016C18.0195 64.887 18.0932 65.0648 18.2243 65.1959C18.3553 65.327 18.5332 65.4007 18.7186 65.4007ZM32.8549 35.27C32.8549 35.2486 32.8464 35.228 32.8313 35.2129C32.8161 35.1977 32.7956 35.1892 32.7741 35.1892H26.5666C26.5451 35.1892 26.5246 35.1977 26.5094 35.2129C26.4943 35.228 26.4858 35.2486 26.4858 35.27V65.3199C26.4858 65.3413 26.4943 65.3618 26.5094 65.377C26.5246 65.3921 26.5451 65.4007 26.5666 65.4007H32.7741C32.7956 65.4007 32.8161 65.3921 32.8313 65.377C32.8464 65.3618 32.8549 65.3413 32.8549 65.3199V35.27ZM73.2663 41.3875V35.4284C73.2663 35.3559 73.2375 35.2864 73.1862 35.2351C73.135 35.1838 73.0654 35.155 72.9929 35.155H67.357C67.1823 35.155 67.0148 35.2231 66.8912 35.3443C66.7677 35.4655 66.6983 35.6299 66.6983 35.8013V41.0146C66.6983 41.186 66.7677 41.3504 66.8912 41.4716C67.0148 41.5928 67.1823 41.6609 67.357 41.6609H72.9929C73.0654 41.6609 73.135 41.6321 73.1862 41.5808C73.2375 41.5295 73.2663 41.46 73.2663 41.3875ZM75.3635 35.2948L75.32 41.4838C75.32 41.5184 75.3337 41.5516 75.3582 41.5761C75.3826 41.6005 75.4158 41.6143 75.4505 41.6143L80.9434 41.6516C81.1621 41.6525 81.3722 41.5709 81.5277 41.4248C81.6832 41.2786 81.7714 41.0797 81.773 40.8717L81.8072 35.9939C81.8087 35.7855 81.7232 35.5849 81.5694 35.4363C81.4156 35.2878 81.2061 35.2034 80.9869 35.2016L75.4939 35.1644C75.4593 35.1644 75.4262 35.1781 75.4017 35.2026C75.3772 35.2271 75.3635 35.2602 75.3635 35.2948ZM66.9717 65.4162L72.9929 65.4286C73.0646 65.4286 73.1333 65.4001 73.184 65.3495C73.2347 65.2988 73.2632 65.23 73.2632 65.1583L73.2725 59.6591C73.2733 59.4886 73.2083 59.3246 73.0918 59.2035C72.9753 59.0823 72.8168 59.0137 72.6511 59.0129L67.3383 59.0067C67.2563 59.0063 67.175 59.0225 67.0991 59.0544C67.0232 59.0864 66.9541 59.1334 66.8958 59.1928C66.8376 59.2523 66.7912 59.3229 66.7595 59.4008C66.7277 59.4787 66.7112 59.5622 66.7108 59.6467L66.7014 65.1459C66.7014 65.2176 66.7299 65.2863 66.7806 65.337C66.8313 65.3877 66.9 65.4162 66.9717 65.4162ZM75.3386 59.1651V65.2671C75.3386 65.3033 75.353 65.3381 75.3786 65.3637C75.4043 65.3894 75.439 65.4038 75.4753 65.4038H80.9838C81.1989 65.4038 81.4052 65.32 81.5572 65.1708C81.7093 65.0216 81.7947 64.8193 81.7947 64.6084V59.8238C81.7947 59.6128 81.7093 59.4105 81.5572 59.2614C81.4052 59.1122 81.1989 59.0284 80.9838 59.0284H75.4753C75.439 59.0284 75.4043 59.0428 75.3786 59.0685C75.353 59.0941 75.3386 59.1289 75.3386 59.1651ZM26.986 73.9881C27.0226 74.0105 27.0656 74.0223 27.1103 74.0223H32.6996C32.8031 74.0223 32.8549 73.9705 32.8549 73.8669V67.7308C32.8549 67.6273 32.8031 67.5755 32.6996 67.5755H26.6411C26.5314 67.5755 26.4765 67.6304 26.4765 67.7401C26.4765 69.5794 26.4827 71.4084 26.4951 73.2269C26.4951 73.6401 26.6691 73.7893 26.986 73.9881ZM64.6229 67.7277C64.6229 67.6882 64.6072 67.6502 64.5792 67.6223C64.5513 67.5943 64.5133 67.5786 64.4738 67.5786H35.1012C35.0617 67.5786 35.0237 67.5943 34.9958 67.6223C34.9678 67.6502 34.9521 67.6882 34.9521 67.7277V73.8732C34.9521 73.9127 34.9678 73.9506 34.9958 73.9786C35.0237 74.0066 35.0617 74.0223 35.1012 74.0223H64.4738C64.5133 74.0223 64.5513 74.0066 64.5792 73.9786C64.6072 73.9506 64.6229 73.9127 64.6229 73.8732V67.7277ZM73.2446 73.2828V67.7308C73.2446 67.6273 73.1928 67.5755 73.0892 67.5755H66.8754C66.7719 67.5755 66.7201 67.6273 66.7201 67.7308V73.8669C66.7201 73.9705 66.7719 74.0223 66.8754 74.0223H72.5082C72.7035 74.0223 72.8908 73.9444 73.0289 73.8057C73.167 73.667 73.2446 73.479 73.2446 73.2828ZM64.4365 76.1163L35.1074 76.1194C35.0039 76.1194 34.9521 76.1712 34.9521 76.2748V81.7895C34.9521 81.9749 35.0257 82.1527 35.1568 82.2838C35.2879 82.4149 35.4657 82.4886 35.6511 82.4886H63.9239C64.1093 82.4886 64.2871 82.4149 64.4182 82.2838C64.5493 82.1527 64.6229 81.9749 64.6229 81.7895V76.3027C64.6229 76.2533 64.6033 76.2059 64.5683 76.1709C64.5334 76.136 64.4859 76.1163 64.4365 76.1163Z" fill="#231F20"/>
</svg>
