<svg width="100" height="100" viewBox="0 0 100 100" fill="none" xmlns="http://www.w3.org/2000/svg">
<rect width="100" height="100" fill="white"/>
<path d="M34.8957 86.0613C19.3205 78.344 10.7181 61.0844 13.5272 43.9654C15.5382 31.701 22.8208 21.3127 33.6204 15.2218C47.1801 7.57467 63.3951 8.4163 76.2325 17.1581C76.2328 17.1585 76.233 17.159 76.2328 17.1596C76.2327 17.1602 76.2324 17.1609 76.2318 17.1615C76.2313 17.1622 76.2306 17.1628 76.2297 17.1634C76.2289 17.164 76.2279 17.1644 76.2269 17.1648C76.2195 17.167 76.2124 17.1692 76.2058 17.1715C76.202 17.173 76.198 17.1726 76.1935 17.1704C68.6545 13.5341 60.1858 11.9723 51.9668 13.6656C41.3255 15.8583 32.4176 23.0462 26.7302 32.2138C24.3558 36.0396 22.8821 40.2225 22.3092 44.7624C20.5044 59.0512 26.5541 73.7635 38.4473 82.0349C49.5913 89.7868 63.9793 90.1669 76.1901 84.7805C76.3841 84.6943 76.3919 84.7084 76.2136 84.8229C74.7607 85.7525 73.2175 86.5745 71.584 87.2887C59.488 92.5736 46.6428 91.8825 34.8957 86.0613Z" fill="#920C0C"/>
<path d="M83.1916 41.5842C83.1603 42.0078 83.2328 42.4715 83.2216 42.8483C83.1392 45.643 82.5495 48.1143 81.6833 50.7563C80.6146 53.5208 79.2305 56.1349 77.5309 58.5985C75.3765 61.6491 72.9571 64.4791 70.2728 67.0883C70.2275 67.1329 70.1978 67.1902 70.1836 67.26C70.0811 67.2964 70.0101 67.3332 69.9707 67.3704C66.544 70.6388 62.8695 73.5988 58.9471 76.2504C57.2095 77.4246 55.7719 78.2904 54.6341 78.8477C53.4458 79.4307 50.7314 78.4788 49.4985 77.9905C47.2884 77.1158 45.1254 76.0895 43.0096 74.9116C42.9539 74.8804 42.9557 74.854 43.0152 74.8324L43.4031 74.6886C52.1081 71.8472 59.811 65.9691 65.5073 58.8359C68.393 55.2903 70.8343 51.4652 72.8312 47.3608C74.2792 44.3588 75.4954 41.106 76.0394 37.813C76.3032 36.4032 76.3679 35.115 76.2333 33.9482C76.0765 32.5897 75.6269 31.2491 74.8845 29.9262C73.7103 28.0089 72.1099 26.5675 70.0833 25.6021C69.2889 25.2239 68.6981 24.9798 68.3109 24.8698C67.4704 24.632 66.3014 24.4153 64.8039 24.2199C64.6597 24.2005 64.5211 24.1913 64.3881 24.192C64.3736 24.1924 64.3597 24.1977 64.3485 24.2068C64.3373 24.216 64.3294 24.2286 64.3261 24.2427C64.3228 24.2568 64.3242 24.2716 64.3302 24.2848C64.3362 24.298 64.3463 24.3089 64.3591 24.3157C66.4638 25.3733 67.7546 27.0632 68.2317 29.3856C68.5829 31.9707 68.0054 34.3863 67.0635 36.7941C65.0265 41.5608 62.4611 46.0446 59.3673 50.2457C55.391 55.4883 50.8161 59.9206 45.2803 63.49C42.9026 65.0227 40.3833 66.3649 37.7603 67.2098C37.3337 67.3466 36.9815 67.4008 36.7035 67.3726C33.4607 67.0359 31.0819 58.8281 30.4587 56.4091C37.068 57.341 43.0865 53.2488 47.4106 48.6829C49.9329 46.0201 52.0858 43.0809 53.8694 39.8653C55.4836 36.9758 56.9182 33.6026 57.2092 30.2818C57.363 28.4158 56.9584 26.417 54.9708 25.7616C54.5204 25.6133 53.8493 25.4394 53.2864 25.3446C49.6806 24.7538 46.6217 25.7935 44.1099 28.4637C43.6829 28.9018 43.3396 29.5171 42.8625 29.8906C41.8926 30.6486 40.2094 31.916 39.0021 32.0821C38.8423 32.1044 38.7037 32.0127 38.5863 31.8068C38.5833 31.5103 38.6112 31.2873 38.6699 31.138C39.3343 29.448 40.2406 27.9877 41.7243 26.9443C42.7625 26.213 43.8717 25.6059 45.0518 25.1228C49.6579 23.2367 54.866 22.3226 59.7909 22.9401C61.1115 23.1051 62.3864 23.4369 63.6156 23.9356C63.8014 24.0107 63.9946 24.0519 64.1953 24.0593C66.5529 24.1474 68.5249 24.7984 70.7555 25.6211C74.2038 26.8941 77.1036 28.9382 79.4549 31.7533C80.961 33.5558 82.2719 35.7808 82.7679 38.0973C83.0139 39.2499 83.1551 40.4122 83.1916 41.5842Z" fill="#920C0C"/>
<path d="M74.8846 29.9264C72.6417 29.6306 70.4241 29.4504 68.2318 29.3858C67.7547 27.0634 66.4638 25.3734 64.3592 24.3159C64.3464 24.3091 64.3363 24.2982 64.3303 24.285C64.3243 24.2718 64.3229 24.257 64.3262 24.2429C64.3295 24.2288 64.3374 24.2162 64.3486 24.207C64.3598 24.1978 64.3737 24.1926 64.3882 24.1922C64.5212 24.1914 64.6598 24.2007 64.804 24.22C66.3015 24.4155 67.4705 24.6321 68.311 24.8699C68.6982 24.9799 69.289 25.2241 70.0834 25.6023C72.11 26.5677 73.7104 28.0091 74.8846 29.9264Z" fill="#6D6C6A"/>
<path d="M53.2865 25.3447C53.8494 25.4395 54.5205 25.6134 54.9709 25.7616C56.9585 26.4171 57.3631 28.4158 57.2093 30.2819C56.5285 30.4149 55.6899 30.5989 54.6933 30.8337C50.1905 31.8972 46.0098 33.6395 42.1514 36.0607C42.0889 35.7055 41.9663 35.3525 41.7835 35.0017C40.963 33.4277 39.4336 34.2158 38.3969 34.9672C37.7381 35.4443 35.1998 37.5734 34.3939 36.8522C34.1074 36.5969 34.2835 36.1677 34.1096 35.9704C35.4808 34.4299 36.973 33.042 38.5864 31.8069C38.7038 32.0127 38.8424 32.1045 39.0022 32.0822C40.2095 31.9161 41.8927 30.6487 42.8626 29.8906C43.3397 29.5172 43.683 28.9019 44.11 28.4638C47.0715 27.0919 50.1303 26.0522 53.2865 25.3447Z" fill="#6D6C6A"/>
<path d="M42.1512 36.0609C42.4863 37.8809 42.2708 39.5723 41.5046 41.1352C39.3353 45.5585 34.5698 47.1904 29.9514 47.4011C29.9408 47.4017 29.9302 47.3998 29.9204 47.3956C29.9106 47.3913 29.9018 47.3849 29.8949 47.3767C29.8879 47.3686 29.8828 47.3589 29.8801 47.3484C29.8773 47.338 29.8769 47.327 29.879 47.3164C30.4676 44.2408 31.2992 41.2946 32.6134 38.433C33.043 37.4989 33.5416 36.6781 34.1094 35.9706C34.2833 36.1679 34.1072 36.5971 34.3937 36.8523C35.1996 37.5736 37.7379 35.4444 38.3967 34.9673C39.4334 34.216 40.9628 33.4278 41.7833 35.0019C41.9661 35.3526 42.0887 35.7056 42.1512 36.0609Z" fill="#920C0C"/>
<path d="M76.0395 37.8131C75.4955 41.106 74.2793 44.3588 72.8313 47.3608C69.221 47.8149 65.8404 48.4254 62.6894 49.1923C61.7723 49.4153 60.665 49.7664 59.3674 50.2458C62.4612 46.0447 65.0266 41.5608 67.0636 36.7942C67.0948 36.8276 67.142 36.838 67.2052 36.8254C69.9196 36.2814 73.6874 35.9894 76.0395 37.8131Z" fill="#6D6C6A"/>
<path d="M53.8694 39.8655C52.0858 43.0811 49.9329 46.0203 47.4106 48.6831C43.0865 53.2491 37.068 57.3413 30.4587 56.4093C30.5089 52.9592 35.3525 49.6941 37.8929 48.0611C42.9249 44.825 48.3526 42.1786 53.8694 39.8655Z" fill="#6D6C6A"/>
<path d="M83.1921 41.5845L83.4251 41.6737C83.3507 41.7651 83.3738 41.8576 83.4942 41.9512C83.5819 42.0196 83.6432 42.0783 83.6781 42.1274C86.261 45.7759 86.4839 50.3775 85.3201 54.5712C85.3001 54.6448 85.2651 54.7083 85.2153 54.7618C84.7148 52.937 83.3749 51.5837 81.6838 50.7566C82.55 48.1146 83.1397 45.6432 83.2222 42.8486C83.2333 42.4718 83.1609 42.0081 83.1921 41.5845Z" fill="#6D6C6A"/>
<path d="M83.4245 41.6736C86.5447 44.1728 87.4331 48.5493 87.043 52.3138C86.5803 56.7716 84.8347 61.1581 82.6676 64.936C78.3112 72.5341 70.9874 77.5582 62.3726 79.0642C61.5689 79.2047 60.7317 79.3986 59.8756 79.373C59.6675 79.3671 59.6668 79.3526 59.8734 79.3295C60.1721 79.2961 60.5092 79.2678 60.8845 79.2448C61.1152 79.2303 61.6403 79.1946 61.8855 79.1199C66.4024 77.7499 70.6072 74.6387 73.9972 71.4227C74.4096 71.3056 74.608 70.8698 74.8522 70.6279C77.0809 68.4251 79.0882 66.0396 80.874 63.4712C82.6643 60.8839 84.2372 58.0558 85.1813 55.046C85.2022 54.9806 85.2133 54.8859 85.2148 54.7618C85.2646 54.7082 85.2995 54.6447 85.3196 54.5711C86.4834 50.3775 86.2604 45.7758 83.6776 42.1273C83.6426 42.0782 83.5813 42.0195 83.4936 41.9512C83.3732 41.8575 83.3502 41.765 83.4245 41.6736Z" fill="#920C0C"/>
<path d="M77.5311 58.5986C79.7862 59.243 81.0314 61.1402 80.8742 63.4712C79.0884 66.0395 77.0811 68.4251 74.8524 70.6278C74.6082 70.8697 74.4098 71.3056 73.9974 71.4226C74.6428 70.8864 74.6941 69.6535 74.6082 68.9022C74.334 66.4798 71.818 66.87 70.1838 67.2602C70.198 67.1903 70.2277 67.1331 70.273 67.0885C72.9573 64.4793 75.3767 61.6493 77.5311 58.5986Z" fill="#6D6C6A"/>
<path d="M65.5072 58.8362C59.8109 65.9694 52.108 71.8474 43.403 74.6889C41.6507 74.7145 42.0453 72.9332 42.5748 72.0247C42.6677 71.8649 42.9861 71.474 43.5301 70.852C49.0771 64.508 57.0541 59.767 65.5072 58.8362Z" fill="#6D6C6A"/>
</svg>
