<svg width="100" height="100" viewBox="0 0 100 100" fill="none" xmlns="http://www.w3.org/2000/svg">
<rect width="100" height="100" fill="#1E5482"/>
<path d="M24.7888 43.7267L26.7188 42.9158" stroke="#8D8D61" stroke-width="0.779779"/>
<path d="M26.7188 42.9157C27.9976 42.3231 29.214 41.6693 30.3681 40.9546C31.7522 40.1007 35.269 39.7693 35.3782 42.1398C35.425 43.2315 35.2131 45.4058 34.7427 48.6627C34.7385 48.6904 34.7416 48.7188 34.7515 48.745C34.7615 48.7713 34.778 48.7945 34.7996 48.8125C34.8211 48.8305 34.8469 48.8427 34.8745 48.8479C34.9021 48.853 34.9305 48.851 34.9571 48.842L37.3705 48.0817" stroke="#854F60" stroke-width="0.779779"/>
<path d="M37.3706 48.0816L38.4389 48.0699C38.5845 48.0673 38.6689 47.9945 38.6923 47.8516C38.8561 46.8651 40.287 46.5142 41.0668 46.1672" stroke="#8D8D61" stroke-width="0.779779"/>
<path d="M41.0667 46.1673L43.6516 44.9275" stroke="#854F60" stroke-width="0.779779"/>
<path d="M43.6516 44.9275L45.4919 44.1477" stroke="#8D8D61" stroke-width="0.779779"/>
<path d="M45.4919 44.1477C46.043 43.9371 46.633 43.9008 47.262 44.0385" stroke="#854F60" stroke-width="0.779779"/>
<path d="M47.262 44.0386L48.7591 44.9041" stroke="#8D8D61" stroke-width="0.779779"/>
<path d="M48.759 44.9041L50.0457 45.5552C50.173 45.6201 50.2809 45.5968 50.3693 45.485L50.8254 44.9119" stroke="#854F60" stroke-width="0.779779"/>
<path d="M50.8257 44.9119C51.0076 44.7586 51.109 44.5961 51.1298 44.4246" stroke="#8D8D61" stroke-width="0.779779"/>
<path d="M51.1296 44.4245L53.3559 41.8123" stroke="#854F60" stroke-width="0.779779"/>
<path d="M53.356 41.8121C53.855 41.2169 54.4632 40.8517 55.1806 40.7166" stroke="#8D8D61" stroke-width="0.779779"/>
<path d="M55.1807 40.7166C57.9762 39.7458 61.1109 38.506 63.7582 39.0128C63.8908 39.0362 64.0104 39.0076 64.1169 38.927C65.2892 38.0329 66.5914 37.3506 68.0236 36.8801" stroke="#854F60" stroke-width="0.779779"/>
<path d="M68.0234 36.8801L69.6376 36.6033" stroke="#8D8D61" stroke-width="0.779779"/>
<path d="M69.6376 36.6034C70.3602 36.3825 70.9945 36.3435 71.5403 36.4865C71.5748 36.4947 71.6109 36.4915 71.6434 36.4775C71.6759 36.4634 71.703 36.4392 71.7206 36.4084C71.7381 36.3777 71.7453 36.3421 71.7409 36.307C71.7365 36.2718 71.7208 36.239 71.6963 36.2135C67.852 32.3822 63.3123 29.7089 58.0774 28.1935C57.8513 28.1285 57.811 28.0025 57.9566 27.8153L65.9961 17.4092C66.0146 17.3844 66.0246 17.3543 66.0247 17.3234C66.0248 17.2924 66.0149 17.2623 65.9966 17.2374C65.9782 17.2125 65.9524 17.1941 65.9228 17.185C65.8932 17.176 65.8615 17.1766 65.8323 17.1869L49.9287 23.2614C49.8066 23.3082 49.7195 23.2705 49.6675 23.1484L44.4547 10.6485C44.4419 10.6182 44.4201 10.5926 44.3923 10.5752C44.3645 10.5577 44.3319 10.5493 44.2991 10.551C44.2663 10.5527 44.2348 10.5645 44.2089 10.5847C44.1831 10.6049 44.164 10.6327 44.1545 10.6641L39.1873 27.0472C39.1093 27.3072 38.943 27.4852 38.6882 27.5814L24.1687 33.0087C24.136 33.0204 24.1073 33.0414 24.0862 33.0691C24.0652 33.0968 24.0527 33.1301 24.0502 33.1648C24.0477 33.1995 24.0554 33.2342 24.0723 33.2646C24.0892 33.2951 24.1146 33.3199 24.1454 33.3362L28.4692 35.7301C28.6096 35.8081 28.6226 35.9042 28.5082 36.0186C25.8986 38.6049 23.7867 41.5485 22.1725 44.8496C22.1075 44.9848 22.1426 45.0185 22.2778 44.951L24.7887 43.7267" stroke="#854F60" stroke-width="0.779779"/>
<path d="M69.6376 36.6032C65.9207 33.2216 61.6137 30.9017 56.7167 29.6437C56.6624 29.6296 56.6053 29.6318 56.5526 29.6498C56.4999 29.6678 56.4539 29.701 56.4204 29.7451L55.8667 30.4703C55.7576 30.6132 55.7913 30.7068 55.9681 30.751C60.47 31.8193 64.4885 33.8623 68.0235 36.88" stroke="#F4873F" stroke-width="0.779779"/>
<path d="M55.1806 40.7168L52.4982 32.9268C52.4644 32.8228 52.3916 32.7709 52.2799 32.7709L45.6673 32.7825C45.6154 32.7826 45.5649 32.7661 45.5229 32.7356C45.4809 32.7051 45.4497 32.6621 45.4336 32.6127C45.4176 32.5634 45.4176 32.5102 45.4337 32.4609C45.4498 32.4115 45.4811 32.3685 45.5231 32.3381L61.9452 20.2008C61.9565 20.1947 61.9664 20.1864 61.9745 20.1764C61.9825 20.1664 61.9885 20.1549 61.9922 20.1426C61.9958 20.1303 61.9969 20.1174 61.9956 20.1046C61.9942 20.0919 61.9903 20.0795 61.9842 20.0683C61.9781 20.057 61.9698 20.047 61.9598 20.039C61.9498 20.0309 61.9383 20.0249 61.926 20.0213C61.9011 20.014 61.8744 20.0169 61.8516 20.0293L49.2309 24.8366C49.088 24.8912 48.9801 24.9848 48.9073 25.1173L45.1644 32.0651C45.0576 32.2623 45.0159 32.4882 45.0453 32.7109C45.0747 32.9335 45.1737 33.1414 45.3281 33.305L53.3559 41.8124" stroke="#F4873F" stroke-width="0.779779"/>
<path d="M51.1297 44.4245C49.9054 43.9384 48.6162 43.8098 47.262 44.0385" stroke="#F4873F" stroke-width="0.779779"/>
<path d="M45.492 44.1477C43.8753 43.6877 43.2618 43.9476 43.6517 44.9275" stroke="#F4873F" stroke-width="0.779779"/>
<path d="M41.0665 46.1674L44.6106 40.8844C44.6834 40.7778 44.7198 40.6596 44.7198 40.5296L44.6145 14.7657C44.6126 14.7411 44.6024 14.7178 44.5855 14.6997C44.5686 14.6817 44.5461 14.6698 44.5217 14.6662C44.4972 14.6626 44.4723 14.6674 44.4509 14.6798C44.4295 14.6922 44.413 14.7115 44.404 14.7345L40.1659 28.0415C40.1269 28.1662 40.1542 28.2754 40.2478 28.369L44.1505 32.2718C44.3897 32.5109 44.3403 32.6357 44.0024 32.646L27.1592 33.2114C27.1369 33.2131 27.1158 33.2217 27.0988 33.2362C27.0818 33.2506 27.0699 33.2701 27.0647 33.2918C27.0595 33.3135 27.0613 33.3363 27.0699 33.3568C27.0784 33.3774 27.0933 33.3948 27.1124 33.4063L36.6959 38.6192C36.9116 38.7361 37.1156 38.7179 37.308 38.5646L44.2558 33.032C44.2696 33.0223 44.2862 33.0173 44.3031 33.0178C44.32 33.0183 44.3363 33.0243 44.3495 33.0349C44.3626 33.0454 44.3721 33.06 44.3763 33.0764C44.3805 33.0927 44.3792 33.11 44.3728 33.1256L37.3704 48.0818" stroke="#F4873F" stroke-width="0.779779"/>
<path d="M26.7188 42.9157C28.0808 40.8206 29.6728 38.9453 31.4949 37.2895C31.6119 37.1856 31.5989 37.1011 31.4559 37.0361L30.6761 36.6813C30.6137 36.6526 30.5442 36.6428 30.4763 36.6532C30.4084 36.6636 30.345 36.6937 30.2941 36.7398C28.1133 38.723 26.2782 41.052 24.7888 43.7266" stroke="#F4873F" stroke-width="0.779779"/>
<path d="M50.8254 44.9119C50.0743 44.5662 49.3855 44.5636 48.759 44.9041" stroke="#F4873F" stroke-width="0.779779"/>
<path d="M89.7169 53.7937C92.2278 48.9942 88.5005 45.6333 85.4593 42.5103C84.586 41.6097 84.6211 39.7031 85.857 39.0715C87.3581 38.3034 88.9449 39.7694 89.6428 40.9586C89.6655 40.9972 89.6997 41.0277 89.7406 41.0459C89.7815 41.0641 89.8271 41.069 89.871 41.06C89.9149 41.051 89.9548 41.0284 89.9852 40.9956C90.0156 40.9627 90.035 40.9211 90.0405 40.8767L90.4148 37.9369C90.433 37.7992 90.3901 37.6848 90.2862 37.5938C86.5159 34.2525 80.6637 36.8296 79.0885 41.0209C77.5368 45.146 79.6812 47.7075 82.9562 49.8051C83.0653 49.8736 83.15 49.976 83.198 50.0976C84.0362 52.2186 83.4319 54.8503 80.9873 55.4001C75.3885 56.6633 69.1113 57.0493 65.189 57.9538C45.753 62.4337 28.1417 72.4967 13.3922 85.8114C13.014 86.1545 12.4019 86.5366 12.0276 87.0825C11.9262 87.2332 11.9652 87.2982 12.1445 87.2774C18.5504 86.4664 24.6483 87.5854 29.9001 91.4648C29.9232 91.4819 29.9495 91.4942 29.9775 91.5009C30.0055 91.5077 30.0345 91.5087 30.0629 91.504C30.0913 91.4992 30.1184 91.4889 30.1427 91.4734C30.167 91.458 30.1879 91.4378 30.2042 91.4141C40.7273 76.5243 55.3014 66.1961 73.0453 61.7241C78.1606 60.4335 86.9682 59.0455 89.7169 53.7937Z" stroke="#8D8D61" stroke-width="0.779779"/>
<path d="M69.7664 54.1444L69.6533 54.7136C69.6483 54.7415 69.6497 54.7701 69.6575 54.7972C69.6653 54.8243 69.6793 54.8492 69.6983 54.8697C69.7173 54.8903 69.7408 54.9059 69.7669 54.9154C69.7929 54.9248 69.8208 54.9278 69.8483 54.9242L74.8818 54.2692C75.0065 54.251 75.0819 54.1795 75.1079 54.0547L78.2543 37.2232C78.3089 36.9399 78.1932 36.8151 77.9073 36.8489L73.2208 37.387C73.1721 37.393 73.1254 37.4098 73.0843 37.4361C73.0431 37.4624 73.0085 37.4976 72.983 37.539L72.4995 38.3305C72.432 38.4449 72.3345 38.4799 72.2071 38.4358C68.4642 37.153 64.46 39.9407 62.1675 42.8532C60.4 45.0964 59.6072 47.6761 59.7891 50.5925C60.1946 57.053 65.2164 57.6222 69.5481 54.0118C69.7456 53.8481 69.8184 53.8923 69.7664 54.1444Z" stroke="#8D8D61" stroke-width="0.779779"/>
<path d="M49.9872 54.2304C50.0032 54.2048 50.0247 54.1832 50.05 54.167C50.0754 54.1508 50.1041 54.1405 50.1339 54.1368C50.1638 54.133 50.1941 54.136 50.2227 54.1454C50.2513 54.1549 50.2774 54.1706 50.2991 54.1914C51.7625 55.5924 53.0167 57.161 54.0616 58.8973C54.0908 58.9453 54.1352 58.9824 54.188 59.0028C54.2408 59.0232 54.2991 59.0259 54.354 59.0104L60.7482 57.1194C60.7781 57.1108 60.8057 57.0954 60.8287 57.0743C60.8517 57.0533 60.8696 57.0273 60.8809 56.9982C60.8922 56.9692 60.8967 56.9379 60.8939 56.9069C60.8912 56.8759 60.8813 56.8459 60.8651 56.8192C59.0093 53.8145 56.592 51.3673 53.6132 49.4776C53.5827 49.4578 53.5566 49.4321 53.5364 49.402C53.5161 49.3718 53.5023 49.338 53.4957 49.3025C53.4892 49.2671 53.49 49.2307 53.4981 49.1958C53.5062 49.1609 53.5215 49.128 53.543 49.0994C55.9967 45.8633 58.8481 43.0288 62.0972 40.5959C62.2999 40.4452 62.2752 40.3893 62.0231 40.4283C59.8865 40.774 57.8123 41.3588 55.8005 42.1828C53.9797 42.9314 51.9445 45.8633 50.6344 47.3917C50.5383 47.5035 50.4252 47.5256 50.2952 47.458L46.5757 45.5475C46.5201 45.5185 46.4587 45.5027 46.3964 45.5013C46.3342 45.5 46.2728 45.5131 46.217 45.5397L40.5909 48.1559C40.551 48.1739 40.5175 48.2036 40.4947 48.2409C40.4719 48.2782 40.4608 48.3215 40.4629 48.3652C40.465 48.409 40.4802 48.451 40.5065 48.486C40.5328 48.521 40.569 48.5472 40.6104 48.5614C42.8795 49.3827 45.0395 50.4302 47.0903 51.7039C47.2047 51.7767 47.2229 51.8663 47.1449 51.9729C44.252 55.9888 41.9269 60.3074 40.1698 64.9289C40.1575 64.9598 40.1549 64.9937 40.1624 65.0261C40.1698 65.0586 40.1869 65.0879 40.2115 65.1104C40.236 65.1328 40.2668 65.1472 40.2998 65.1517C40.3327 65.1562 40.3663 65.1506 40.3959 65.1356L45.7023 62.5272C45.8178 62.4696 45.9081 62.371 45.9558 62.2504C47.0241 59.438 48.3679 56.7646 49.9872 54.2304Z" stroke="#8D8D61" stroke-width="0.779779"/>
<path d="M16.9558 54.7956L11.9457 84.3492C11.9402 84.3829 11.9451 84.4176 11.9598 84.4485C11.9745 84.4794 11.9983 84.5051 12.028 84.522C12.0577 84.539 12.0919 84.5465 12.126 84.5435C12.1601 84.5405 12.1924 84.5271 12.2187 84.5051L19.8683 78.0564C19.9537 77.986 20.0106 77.8862 20.0282 77.7756L23.8413 51.2476C23.8484 51.1922 23.8687 51.1393 23.9006 51.0932C23.9325 51.0471 23.975 51.0091 24.0245 50.9824L29.9508 47.8399C30.0626 47.7801 30.1783 47.7698 30.2978 47.8087C30.6981 47.9335 31.0295 48.1557 31.2921 48.4754C31.4766 48.699 31.5845 48.6665 31.6157 48.378L32.3292 41.8551C32.35 41.6862 32.285 41.6433 32.1342 41.7265C24.7887 45.7995 17.2106 49.3839 9.39977 52.4796C9.28169 52.5275 9.17782 52.6045 9.09799 52.7034C9.01816 52.8024 8.96502 52.9199 8.9436 53.045L7.77783 59.7822C7.65827 60.4606 7.78823 60.5126 8.16772 59.9382C9.74677 57.5482 14.1837 55.7157 16.7804 54.6513C16.9233 54.5915 16.9818 54.6396 16.9558 54.7956Z" stroke="#8D8D61" stroke-width="0.779779"/>
<path d="M35.4796 50.0584C29.7638 52.2067 25.8064 57.7938 24.5237 63.5837C24.1338 65.3434 24.3092 66.99 25.05 68.5236C27.8261 74.2628 35.5342 68.3404 38.1113 65.654C39.3512 64.3596 39.858 61.3301 40.3181 59.5951C40.3259 59.5715 40.3252 59.5459 40.3159 59.5229C40.3067 59.4998 40.2896 59.4807 40.2676 59.469C40.2457 59.4574 40.2203 59.4538 40.196 59.4591C40.1717 59.4643 40.1501 59.478 40.1349 59.4977C37.8462 62.0514 35.1911 65.2134 31.6626 65.7905C31.5286 65.8132 31.3911 65.7898 31.2727 65.7242C30.6177 65.3707 30.2369 64.8184 30.1303 64.0672C30.1121 63.945 30.1563 63.8527 30.2629 63.7903L41.0706 57.3689C41.185 57.3013 41.2525 57.2012 41.2733 57.0687C41.5424 55.1894 41.7997 52.4875 40.7041 50.9825C39.4954 49.3255 37.3355 49.3605 35.4796 50.0584Z" stroke="#8D8D61" stroke-width="0.779779"/>
<path d="M78.9055 62.874L77.9658 63.1742" stroke="#8D8D61" stroke-width="0.779779"/>
<path d="M77.9657 63.1743C74.3761 63.7072 70.9321 64.4947 67.6336 65.537C67.5752 65.5566 67.522 65.5893 67.4781 65.6325C67.4342 65.6758 67.4007 65.7285 67.3802 65.7866C64.2572 74.9646 55.3365 80.7076 45.6712 78.3293C45.5438 78.2981 45.4294 78.3228 45.3281 78.4034C42.5105 80.5946 39.9554 83.0483 37.6628 85.7645" stroke="#854F60" stroke-width="0.779779"/>
<path d="M37.6629 85.7644L36.9221 86.7274" stroke="#8D8D61" stroke-width="0.779779"/>
<path d="M36.9221 86.7275L35.9318 87.9128C35.8356 88.0297 35.8551 88.1246 35.9903 88.1974C46.4861 93.7416 59.5825 92.4316 68.7995 85.0705C75.6121 79.6328 79.7021 72.2405 81.0693 62.8936C81.0795 62.8244 81.0723 62.7539 81.0484 62.6882C81.0245 62.6226 80.9847 62.5639 80.9325 62.5175C80.8802 62.4711 80.8173 62.4384 80.7493 62.4224C80.6813 62.4063 80.6104 62.4075 80.5429 62.4257L78.9054 62.8741" stroke="#854F60" stroke-width="0.779779"/>
<path d="M36.9221 86.7275C55.9565 96.3265 76.7649 83.1756 79.1783 62.991C79.1887 62.9156 79.0978 62.8766 78.9054 62.874" stroke="#F4873F" stroke-width="0.779779"/>
<path d="M37.6628 85.7645C56.1163 94.3148 75.0025 82.6493 77.9657 63.1743" stroke="#F4873F" stroke-width="0.779779"/>
<path d="M63.844 67.0693L62.3 67.8647" stroke="#854F60" stroke-width="0.779779"/>
<path d="M62.3 67.8647L60.8535 68.5237" stroke="#8D8D61" stroke-width="0.779779"/>
<path d="M60.8535 68.5237C60.4299 68.6458 60.0452 68.8499 59.6995 69.1358" stroke="#854F60" stroke-width="0.779779"/>
<path d="M59.6995 69.1357C59.2914 69.2631 58.9106 69.5048 58.5571 69.8609" stroke="#8D8D61" stroke-width="0.779779"/>
<path d="M58.5572 69.8611C58.2063 69.8117 57.871 69.9897 57.5513 70.3952" stroke="#854F60" stroke-width="0.779779"/>
<path d="M57.5511 70.395L56.1943 71.1085" stroke="#8D8D61" stroke-width="0.779779"/>
<path d="M56.1942 71.1086C55.9655 71.1762 55.7303 71.3465 55.4885 71.6194" stroke="#854F60" stroke-width="0.779779"/>
<path d="M55.4886 71.6194C55.0467 71.6896 54.5867 71.9495 54.1084 72.3992" stroke="#8D8D61" stroke-width="0.779779"/>
<path d="M54.1083 72.3991C53.9732 72.3549 53.7912 72.4992 53.5625 72.8319" stroke="#854F60" stroke-width="0.779779"/>
<path d="M53.5626 72.8318C53.1857 72.8864 52.8218 73.067 52.4709 73.3737" stroke="#8D8D61" stroke-width="0.779779"/>
<path d="M52.4709 73.3738L51.2974 74.2042" stroke="#854F60" stroke-width="0.779779"/>
<path d="M51.2974 74.2043L50.5215 74.6722" stroke="#8D8D61" stroke-width="0.779779"/>
<path d="M50.5215 74.6721L49.4727 75.3544" stroke="#854F60" stroke-width="0.779779"/>
<path d="M49.4727 75.3545L48.342 76.3253" stroke="#8D8D61" stroke-width="0.779779"/>
<path d="M48.3421 76.3253C48.2147 76.2343 48.0107 76.3461 47.73 76.6606" stroke="#854F60" stroke-width="0.779779"/>
<path d="M47.7298 76.6605C47.1476 76.9152 46.6784 77.2713 46.3223 77.7288C46.2339 77.8406 46.2586 77.9095 46.3964 77.9355C55.5237 79.6822 63.571 74.598 66.7096 66.1842C66.7226 66.1498 66.7252 66.1123 66.717 66.0765C66.7089 66.0406 66.6903 66.008 66.6637 65.9826C66.6371 65.9572 66.6035 65.9402 66.5673 65.9338C66.5311 65.9274 66.4938 65.9317 66.4601 65.9464L63.8439 67.0692" stroke="#8D8D61" stroke-width="0.779779"/>
<path d="M47.73 76.6605L56.2062 76.6138C56.245 76.6134 56.2826 76.6005 56.3135 76.577C56.3443 76.5534 56.3667 76.5205 56.3773 76.4832C56.3878 76.4458 56.3859 76.406 56.372 76.3698C56.358 76.3336 56.3327 76.3029 56.2997 76.2824C56.1958 76.22 55.9995 76.194 55.711 76.2044C53.2989 76.2876 50.8426 76.3278 48.3421 76.3252" stroke="#F4873F" stroke-width="0.779779"/>
<path d="M49.4727 75.3544C49.548 75.3544 49.6143 75.3765 49.6715 75.4207C49.7573 75.4831 49.8534 75.5117 49.96 75.5065C52.7152 75.3921 55.4679 75.3648 58.2179 75.4246C58.4336 75.4298 58.6234 75.3596 58.7871 75.2141C58.9405 75.0737 58.9132 75.0022 58.7052 74.9996C56.0696 74.9658 53.4482 74.9645 50.8412 74.9957C50.6488 74.9983 50.5423 74.8905 50.5215 74.6721" stroke="#F4873F" stroke-width="0.779779"/>
<path d="M51.2974 74.2042C54.0916 74.225 56.8624 74.2315 59.6098 74.2237C59.9945 74.2237 60.3142 74.1315 60.5689 73.9469C60.6123 73.9158 60.6446 73.8716 60.661 73.8208C60.6775 73.7699 60.6771 73.7152 60.6601 73.6646C60.6431 73.6139 60.6103 73.5701 60.5665 73.5395C60.5227 73.5089 60.4703 73.4932 60.4169 73.4946C58.7949 73.5492 53.7225 74.0522 52.4709 73.3738" stroke="#F4873F" stroke-width="0.779779"/>
<path d="M53.5625 72.8319C56.2579 72.8449 58.9482 72.8436 61.6332 72.828C61.7008 72.828 61.7606 72.815 61.8126 72.789C61.8983 72.7474 61.9503 72.7123 61.9685 72.6837C61.9903 72.6492 62.0024 72.6095 62.0035 72.5687C62.0045 72.5279 61.9945 72.4876 61.9746 72.452C61.9546 72.4165 61.9253 72.387 61.89 72.3667C61.8546 72.3464 61.8144 72.336 61.7736 72.3367L54.1083 72.3991" stroke="#F4873F" stroke-width="0.779779"/>
<path d="M55.4885 71.6194C57.8824 71.7 60.2582 71.7026 62.6157 71.6272C62.799 71.6233 62.9978 71.5063 63.0836 71.3543C63.0975 71.3302 63.1047 71.3028 63.1045 71.2749C63.1043 71.2471 63.0966 71.2198 63.0823 71.196C63.068 71.1721 63.0475 71.1525 63.0231 71.1392C62.9986 71.1259 62.971 71.1194 62.9432 71.1203L56.5841 71.2724C56.4853 71.275 56.3957 71.2477 56.3151 71.1905L56.1942 71.1086" stroke="#F4873F" stroke-width="0.779779"/>
<path d="M57.5513 70.395C59.4409 70.3222 61.3215 70.3079 63.193 70.3521C63.4971 70.3599 63.7492 70.3157 63.9494 70.2195C63.9848 70.2016 64.0133 70.1724 64.0303 70.1365C64.0474 70.1006 64.052 70.0601 64.0435 70.0213C64.035 69.9825 64.0139 69.9476 63.9835 69.9221C63.953 69.8966 63.915 69.8819 63.8753 69.8803L58.5572 69.8608" stroke="#F4873F" stroke-width="0.779779"/>
<path d="M59.6995 69.1358C61.2382 69.271 62.777 69.3009 64.3158 69.2255C64.5913 69.2125 64.7498 69.0838 64.7914 68.8395C64.7971 68.8059 64.7955 68.7716 64.7868 68.7387C64.778 68.7059 64.7623 68.6755 64.7408 68.6495C64.7193 68.6235 64.6924 68.6026 64.6621 68.5883C64.6318 68.574 64.5988 68.5666 64.5653 68.5666C63.6841 68.5549 61.5631 68.898 60.8535 68.5237" stroke="#F4873F" stroke-width="0.779779"/>
<path d="M62.3 67.8647C63.2852 68.0077 64.2469 68.0038 65.1852 67.853C65.3516 67.827 65.4439 67.7971 65.4621 67.7633C65.4968 67.6999 65.5114 67.6275 65.5038 67.5556C65.4963 67.4838 65.467 67.4158 65.4199 67.3606C65.3727 67.3054 65.3098 67.2656 65.2394 67.2463C65.169 67.227 65.0944 67.2292 65.0254 67.2526C64.5263 67.4241 64.1325 67.3631 63.844 67.0693" stroke="#F4873F" stroke-width="0.779779"/>
<path d="M47.9132 43.1691C47.0983 42.7597 44.6459 42.0228 44.0533 43.3172C43.9753 43.494 44.0325 43.5797 44.2248 43.5745L48.2641 43.4927C48.2847 43.4923 48.3049 43.4863 48.3224 43.4753C48.3399 43.4643 48.354 43.4487 48.3633 43.4302C48.3725 43.4117 48.3765 43.391 48.3749 43.3704C48.3732 43.3498 48.3659 43.3301 48.3538 43.3133C48.294 43.2275 48.2212 43.1911 48.1354 43.2041C48.0574 43.2171 47.9834 43.2054 47.9132 43.1691Z" stroke="#F4873F" stroke-width="0.779779"/>
<path d="M62.6783 61.8057L63.8714 62.6791C63.947 62.7347 64.0365 62.7682 64.13 62.7759C64.2234 62.7836 64.3172 62.7652 64.4009 62.7228C64.4845 62.6803 64.5548 62.6155 64.6038 62.5355C64.6528 62.4555 64.6786 62.3635 64.6785 62.2697V59.9733C64.6785 59.8433 64.6135 59.7783 64.4835 59.7783H64.1248C64.0919 59.7782 64.0593 59.785 64.029 59.7983C63.9988 59.8116 63.9717 59.8312 63.9493 59.8557C63.927 59.8803 63.9099 59.9093 63.8991 59.941C63.8884 59.9726 63.8843 60.0062 63.887 60.0395L64.0234 61.5172C64.0279 61.5692 64.015 61.6211 63.9866 61.6648C63.9582 61.7085 63.916 61.7415 63.8668 61.7585C63.8175 61.7755 63.764 61.7756 63.7146 61.7587C63.6653 61.7419 63.6231 61.709 63.5946 61.6654C63.2489 61.1273 62.7914 60.7452 62.2221 60.5191C62.1409 60.487 62.0528 60.4765 61.9664 60.4885C61.8799 60.5004 61.798 60.5346 61.7285 60.5875C61.6591 60.6405 61.6045 60.7104 61.5701 60.7907C61.5357 60.8709 61.5226 60.9587 61.532 61.0455L61.7816 63.4394C61.7972 63.5875 61.8751 63.6408 62.0155 63.5992L62.4522 63.4784C62.5005 63.4656 62.5424 63.435 62.5698 63.3926C62.5971 63.3501 62.608 63.2987 62.6003 63.2483L62.3976 61.9773C62.3534 61.6966 62.447 61.6394 62.6783 61.8057Z" stroke="#8D8D61" stroke-width="0.779779"/>
<path d="M58.5883 63.5174L59.4499 63.0495C59.5043 63.0141 59.5438 62.9599 59.5609 62.8972C59.578 62.8346 59.5715 62.7679 59.5426 62.7097C59.5138 62.6515 59.4646 62.606 59.4044 62.5817C59.3442 62.5574 59.2772 62.556 59.216 62.5778L58.678 62.8195C58.6406 62.8356 58.5997 62.8419 58.5592 62.8376C58.5187 62.8334 58.48 62.8189 58.4467 62.7954C58.4135 62.7719 58.3868 62.7403 58.3693 62.7036C58.3517 62.6668 58.3439 62.6262 58.3466 62.5856L58.3739 62.2191C58.3788 62.1574 58.4064 62.0999 58.4512 62.058C58.496 62.0161 58.5547 61.9928 58.6156 61.9929C59.0627 61.9851 59.3031 61.7772 59.3369 61.3691C59.3391 61.333 59.3322 61.2969 59.317 61.2641C59.3017 61.2313 59.2786 61.2027 59.2496 61.1811C59.2206 61.1594 59.1866 61.1453 59.1508 61.14C59.115 61.1348 59.0785 61.1384 59.0445 61.1508L57.4927 61.7356C57.3757 61.7798 57.325 61.863 57.3406 61.9852L57.7812 65.1939C57.802 65.3369 57.8761 65.3746 58.0035 65.307L59.832 64.3206C59.8875 64.2878 59.9289 64.2351 59.9479 64.1731C59.9669 64.111 59.9621 64.0443 59.9345 63.9861C59.9069 63.928 59.8585 63.8827 59.799 63.8594C59.7396 63.8361 59.6734 63.8365 59.6137 63.8605L58.7832 64.2114C58.7454 64.2275 58.7027 64.2283 58.6637 64.2139C58.6247 64.1994 58.5922 64.1707 58.5727 64.1334L58.4635 63.9229C58.4267 63.8532 58.4191 63.7715 58.4425 63.6957C58.4658 63.6198 58.5182 63.5558 58.5883 63.5174Z" stroke="#8D8D61" stroke-width="0.779779"/>
<path d="M53.3325 66.1999L54.3774 66.8276C54.5307 66.916 54.6854 66.9212 54.8413 66.8432L55.4457 66.5352C55.6172 66.4494 55.6224 66.3572 55.4613 66.2584L54.1512 65.4435C54.0499 65.3811 54.0226 65.2954 54.0693 65.1862L55.0129 62.9755C55.0805 62.8144 55.0272 62.7416 54.853 62.7572C53.8666 62.8547 53.6054 64.2505 53.2389 65.0341C53.1115 65.3071 53.0296 65.2941 52.9933 64.9952L52.849 63.8216C52.8334 63.6864 52.7632 63.6448 52.6385 63.6968L51.9834 63.9697C51.8405 64.0269 51.7781 64.1322 51.7963 64.2856L52.2369 68.0597C52.2603 68.2546 52.3551 68.3001 52.5215 68.1961L53.1024 67.8413C53.1679 67.801 53.2197 67.7418 53.251 67.6716C53.2823 67.6013 53.2917 67.5232 53.2779 67.4476L53.079 66.3754C53.0728 66.3438 53.076 66.3112 53.0881 66.2815C53.1003 66.2518 53.1209 66.2261 53.1476 66.2077C53.1743 66.1892 53.2059 66.1786 53.2387 66.1773C53.2714 66.1759 53.304 66.1838 53.3325 66.1999Z" stroke="#8D8D61" stroke-width="0.779779"/>
<path d="M48.5253 69.5178C48.4284 69.5364 48.3289 69.5355 48.2324 69.5153C48.1359 69.4951 48.0444 69.456 47.9631 69.4001C47.8819 69.3442 47.8125 69.2728 47.7591 69.19C47.7057 69.1071 47.6692 69.0144 47.6519 68.9174C47.4687 67.892 47.9482 66.1531 49.4025 66.3246C49.4296 66.3276 49.457 66.3239 49.4823 66.3139C49.5076 66.304 49.53 66.288 49.5474 66.2675C49.5648 66.247 49.5767 66.2225 49.5821 66.1964C49.5874 66.1703 49.586 66.1434 49.578 66.118L49.3362 65.2992C49.2895 65.1485 49.1946 65.1069 49.0516 65.1744C47.6558 65.8347 46.8682 66.9627 46.6889 68.5587C46.338 71.7129 50.8022 70.8551 49.9718 68.2663C49.9644 68.2444 49.95 68.2255 49.9309 68.2126C49.9118 68.1997 49.889 68.1934 49.8659 68.1947C49.8429 68.1961 49.8209 68.2049 49.8034 68.22C49.7859 68.235 49.7738 68.2554 49.769 68.278C49.6105 68.9798 49.1959 69.393 48.5253 69.5178Z" stroke="#8D8D61" stroke-width="0.779779"/>
<path d="M44.7003 72.8826C44.7258 72.8627 44.7452 72.8361 44.7562 72.8058C44.7673 72.7754 44.7695 72.7426 44.7627 72.711L43.7841 67.9622C43.7784 67.9349 43.7662 67.9093 43.7485 67.8878C43.7307 67.8663 43.708 67.8495 43.6823 67.8387C43.6565 67.828 43.6286 67.8236 43.6008 67.8261C43.573 67.8286 43.5463 67.8378 43.5229 67.853L42.591 68.4534C42.5613 68.4718 42.5379 68.4988 42.524 68.5309C42.5101 68.563 42.5062 68.5985 42.5131 68.6328L43.5541 73.4635C43.5599 73.492 43.5729 73.5186 43.5919 73.5407C43.6108 73.5628 43.6351 73.5798 43.6624 73.5899C43.6897 73.6001 43.7191 73.6031 43.7479 73.5987C43.7767 73.5943 43.8039 73.5827 43.827 73.5649L44.7003 72.8826Z" stroke="#8D8D61" stroke-width="0.779779"/>
<path d="M36.9416 74.3407L36.544 72.5199C36.5076 72.3536 36.4218 72.3224 36.2866 72.4264L35.2924 73.1905C35.191 73.2659 35.1534 73.366 35.1793 73.4908L36.3256 78.8712C36.3594 79.0376 36.4452 79.0701 36.5829 78.9687L37.5343 78.263C37.6486 78.1772 37.6928 78.0642 37.6668 77.9238L37.2847 75.9042C37.2588 75.7638 37.3042 75.6507 37.4212 75.565L38.9379 74.4811C38.9634 74.4629 38.9931 74.4514 39.0242 74.4476C39.0554 74.4439 39.0869 74.448 39.116 74.4597C39.1451 74.4713 39.1709 74.4901 39.1908 74.5143C39.2108 74.5384 39.2244 74.5672 39.2303 74.598L39.5812 76.2512C39.6202 76.4383 39.7164 76.4747 39.8697 76.3603L40.6612 75.7872C40.7153 75.7469 40.7564 75.6917 40.7793 75.6286C40.8022 75.5655 40.8058 75.4972 40.7899 75.4324L39.5968 70.6952C39.5448 70.4873 39.4252 70.4353 39.2381 70.5393C38.4063 71.0046 38.2777 71.7103 38.8521 72.6564C38.9276 72.7805 38.9534 72.9286 38.9245 73.071C38.8956 73.2133 38.8141 73.3396 38.6961 73.4245L37.2692 74.4655C37.2409 74.4856 37.2081 74.4984 37.1737 74.5029C37.1394 74.5073 37.1044 74.5031 37.072 74.4908C37.0396 74.4784 37.0107 74.4583 36.988 74.4321C36.9653 74.4059 36.9493 74.3745 36.9416 74.3407Z" stroke="#8D8D61" stroke-width="0.779779"/>
<path d="M32.0523 81.538C31.3505 82.3412 29.6038 82.6297 29.5024 81.1403C29.3595 79.0193 30.2523 77.7574 32.181 77.3545C32.3369 77.3233 32.3967 77.2297 32.3603 77.0738L32.0367 75.6936C32.0055 75.561 31.9301 75.5259 31.8106 75.5883C29.4192 76.7969 28.0559 78.6073 27.7206 81.0194C27.4529 82.9429 28.2769 84.0866 30.1925 84.4505C30.2965 84.4713 30.3979 84.4596 30.4966 84.4154C31.6403 83.9137 32.6098 83.1807 33.4052 82.2164C33.4884 82.115 33.5183 82.0007 33.4949 81.8733L33.1869 80.2475C33.1427 80.0005 33.0621 79.9888 32.9451 80.2124C32.693 80.701 32.3954 81.1429 32.0523 81.538Z" stroke="#8D8D61" stroke-width="0.779779"/>
<path d="M71.8523 40.6581C68.0821 38.9621 66.0157 46.8964 65.6531 49.1343C65.4322 50.4755 65.7246 51.6491 66.5304 52.655C66.6539 52.8102 66.8302 52.9144 67.0252 52.9475C67.2203 52.9806 67.4204 52.9403 67.587 52.8344C69.088 51.8791 70.3006 50.7407 70.6125 48.8848C71.0648 46.1842 71.5144 43.5082 71.9615 40.857C71.9771 40.7634 71.9407 40.6971 71.8523 40.6581Z" stroke="#8D8D61" stroke-width="0.779779"/>
<path d="M35.382 54.4954C35.2962 54.3028 35.1484 54.1447 34.9624 54.0464C34.7764 53.9481 34.563 53.9154 34.3566 53.9534C31.1907 54.5266 30.5123 57.8328 30.0678 60.5075C30.0634 60.5306 30.0659 60.5545 30.0749 60.5763C30.0839 60.598 30.0991 60.6167 30.1185 60.6299C30.138 60.6432 30.1609 60.6504 30.1844 60.6509C30.208 60.6513 30.2311 60.6448 30.251 60.6322L35.6042 57.3532C35.7342 57.2727 35.8044 57.157 35.8148 57.0062C35.8771 56.1121 35.7329 55.2751 35.382 54.4954Z" stroke="#8D8D61" stroke-width="0.779779"/>
<path d="M73.1896 67.3227C72.901 66.7846 72.2811 65.5643 71.5208 65.7631C70.7645 65.962 70.5461 66.9016 70.5968 67.5917C70.5982 67.6566 70.6237 67.7187 70.6684 67.7658C70.713 67.8129 70.7736 67.8417 70.8384 67.8466C70.9031 67.8514 70.9673 67.832 71.0185 67.7921C71.0698 67.7522 71.1043 67.6947 71.1153 67.6307L71.2752 66.9289C71.2936 66.8472 71.3358 66.7728 71.3965 66.7153C71.4573 66.6577 71.5339 66.6194 71.6168 66.6053C71.6996 66.5911 71.785 66.6017 71.8623 66.6357C71.9396 66.6697 72.0052 66.7256 72.0511 66.7963L73.1818 68.5703C73.2175 68.627 73.2686 68.6722 73.3292 68.7008C73.3898 68.7293 73.4573 68.7398 73.5237 68.7312C73.5902 68.7226 73.6527 68.6952 73.704 68.6522C73.7554 68.6092 73.7933 68.5523 73.8134 68.4885L74.3436 66.8119C74.3581 66.7546 74.351 66.6939 74.3237 66.6414C74.2965 66.5889 74.2509 66.5482 74.1956 66.5271C74.1404 66.5059 74.0793 66.5058 74.0239 66.5267C73.9686 66.5476 73.9228 66.588 73.8953 66.6404L73.5873 67.311C73.5699 67.3485 73.5425 67.3805 73.508 67.4032C73.4735 67.426 73.4333 67.4387 73.392 67.4399C73.3507 67.4412 73.3099 67.4308 73.2741 67.4101C73.2383 67.3894 73.2091 67.3591 73.1896 67.3227Z" stroke="#F4873F" stroke-width="0.779779"/>
<path d="M71.6378 70.8512C71.9809 71.2281 71.9718 71.6037 71.6105 71.978C71.5636 72.0273 71.5343 72.0907 71.5272 72.1585C71.5202 72.2262 71.5357 72.2943 71.5715 72.3523C71.7041 72.5732 71.851 72.6174 72.0121 72.4848C73.599 71.2099 71.5988 68.7341 70.6358 70.6484C70.6193 70.6806 70.5966 70.7092 70.5691 70.7325C70.5415 70.7558 70.5095 70.7735 70.475 70.7843C70.4406 70.7952 70.4043 70.7991 70.3683 70.7959C70.3323 70.7926 70.2974 70.7823 70.2654 70.7654L70.0159 70.629C69.9882 70.6146 69.9639 70.5946 69.9444 70.5702C69.9249 70.5458 69.9107 70.5175 69.9026 70.4871C69.8945 70.4567 69.8928 70.4249 69.8976 70.3936C69.9023 70.3623 69.9134 70.3323 69.9301 70.3053L70.32 69.6698C70.3425 69.6336 70.3576 69.5933 70.3643 69.5512C70.371 69.509 70.3692 69.466 70.3591 69.4246C70.3489 69.3832 70.3305 69.3442 70.3051 69.31C70.2796 69.2758 70.2476 69.247 70.2108 69.2253L70.1094 69.1669C69.9925 69.0967 69.9015 69.1214 69.8365 69.2409L69.0801 70.6251C69.0461 70.6872 69.0369 70.7599 69.0542 70.8286C69.0716 70.8973 69.1143 70.9569 69.1737 70.9954L70.3824 71.7674C70.5149 71.8506 70.6189 71.8246 70.6943 71.6894L71.1349 70.9058C71.1585 70.8625 71.1922 70.8257 71.2332 70.7983C71.2742 70.771 71.3213 70.7539 71.3706 70.7486C71.4198 70.7432 71.4698 70.7498 71.5163 70.7676C71.5628 70.7855 71.6045 70.8141 71.6378 70.8512Z" stroke="#F4873F" stroke-width="0.779779"/>
<path d="M69.4545 74.524L69.6768 75.4987C69.6832 75.5279 69.6958 75.5553 69.7138 75.5791C69.7318 75.6029 69.7548 75.6225 69.7811 75.6365C69.8074 75.6506 69.8364 75.6588 69.8662 75.6606C69.896 75.6624 69.9258 75.6577 69.9536 75.6469C70.2499 75.5338 70.3591 75.2297 70.2811 74.9139C70.1044 74.2017 69.76 73.5818 69.2479 73.0541C68.4993 72.2822 67.5753 72.7188 67.2751 73.5922C66.9047 74.6761 68.5149 75.8184 69.205 74.4889C69.3168 74.2732 69.4 74.2849 69.4545 74.524Z" stroke="#F4873F" stroke-width="0.779779"/>
<path d="M65.6374 76.9883L67.115 78.54C67.1321 78.5583 67.1531 78.5726 67.1766 78.582C67.2002 78.5914 67.2257 78.5957 67.2515 78.5946L67.5088 78.579C67.5691 78.5765 67.6274 78.5567 67.6768 78.5221C67.7262 78.4875 67.7646 78.4395 67.7876 78.3837C67.8106 78.3279 67.8171 78.2668 67.8064 78.2074C67.7957 78.148 67.7682 78.093 67.7272 78.0488L65.766 75.9122C65.7286 75.872 65.6832 75.8403 65.6327 75.8189C65.5822 75.7975 65.5278 75.7871 65.4729 75.7882C65.4181 75.7893 65.3641 75.8019 65.3145 75.8253C65.2649 75.8487 65.2208 75.8823 65.1851 75.9239C64.9018 76.2566 64.842 76.6088 65.0057 76.9805C65.0317 77.0402 65.0772 77.0597 65.1422 77.0389C65.1942 77.0233 65.2449 76.9974 65.2943 76.961C65.419 76.8674 65.5334 76.8765 65.6374 76.9883Z" stroke="#F4873F" stroke-width="0.779779"/>
<path d="M60.8651 80.9337C60.7849 80.9747 60.6921 80.9837 60.6055 80.9588C60.5189 80.9339 60.445 80.8769 60.3988 80.7995C60.3527 80.7221 60.3377 80.63 60.357 80.542C60.3762 80.454 60.4283 80.3765 60.5025 80.3255L61.5942 79.5886C61.6478 79.5514 61.6855 79.4955 61.7 79.4319C61.7144 79.3682 61.7045 79.3015 61.6723 79.2448C61.64 79.1881 61.5877 79.1456 61.5257 79.1255C61.4636 79.1054 61.3963 79.1093 61.3369 79.1363C60.7443 79.4092 60.1763 79.7238 59.6331 80.0799C59.5083 80.1604 59.4823 80.267 59.5551 80.3996L60.9587 83.004C60.9902 83.0625 61.0434 83.1063 61.1068 83.126C61.1702 83.1457 61.2389 83.1397 61.2979 83.1093C61.8802 82.8026 62.4273 82.4452 62.9393 82.0371C62.9952 81.9978 63.0331 81.9379 63.0448 81.8707C63.0565 81.8034 63.041 81.7342 63.0017 81.6784C62.9624 81.6226 62.9026 81.5846 62.8353 81.5729C62.768 81.5612 62.6989 81.5767 62.643 81.616L61.6137 82.2476C61.4604 82.3438 61.3577 82.3048 61.3057 82.1307L61.1615 81.6628C61.1509 81.6282 61.1477 81.5918 61.152 81.556C61.1562 81.5201 61.1679 81.4855 61.1862 81.4543C61.2045 81.4232 61.2291 81.3962 61.2584 81.375C61.2877 81.3538 61.3211 81.339 61.3564 81.3314C61.7541 81.2508 62.0179 81.0377 62.1479 80.692C62.1631 80.6513 62.1656 80.607 62.1551 80.5649C62.1445 80.5228 62.1215 80.4849 62.089 80.4562C62.0564 80.4274 62.016 80.4092 61.9729 80.404C61.9298 80.3988 61.8861 80.4067 61.8477 80.4269L60.8651 80.9337Z" stroke="#F4873F" stroke-width="0.779779"/>
<path d="M58.9197 83.4134C57.2315 85.1367 55.7226 81.5068 58.3037 81.4757C58.561 81.4731 58.6039 81.3769 58.4323 81.1871L58.214 80.9454C58.1308 80.8518 58.0282 80.8154 57.906 80.8362C54.6894 81.3977 56.2958 85.7917 59.0094 84.1386C59.0738 84.0992 59.127 84.0441 59.1638 83.9785C59.2007 83.913 59.22 83.8392 59.2199 83.7643V83.5382C59.2202 83.5033 59.2101 83.4691 59.1908 83.44C59.1716 83.4108 59.144 83.3881 59.1118 83.3747C59.0796 83.3613 59.0441 83.3579 59.0099 83.3648C58.9756 83.3716 58.9443 83.3886 58.9197 83.4134Z" stroke="#F4873F" stroke-width="0.779779"/>
<path d="M52.5215 83.6435L53.8316 85.3629C53.9002 85.4528 53.9963 85.518 54.1052 85.5487C54.2141 85.5794 54.3301 85.5739 54.4356 85.533C54.5411 85.4921 54.6305 85.418 54.6903 85.322C54.7502 85.2259 54.7772 85.113 54.7673 85.0003L54.5178 82.2671C54.5048 82.1138 54.4242 82.0228 54.276 81.9942C54.1643 81.9734 54.072 81.9864 53.9992 82.0332C53.9004 82.0982 53.851 82.223 53.851 82.4075C53.8484 82.9767 53.916 83.5161 54.0538 84.0255C54.0658 84.0632 54.0638 84.1039 54.0481 84.1402C54.0325 84.1764 54.0043 84.2058 53.9686 84.2229C53.933 84.24 53.8924 84.2437 53.8543 84.2332C53.8162 84.2227 53.7832 84.1988 53.7614 84.1659L52.4981 82.4504C52.4258 82.3499 52.3221 82.2763 52.2034 82.2413C52.0846 82.2063 51.9576 82.2117 51.8423 82.2569C51.7271 82.302 51.6301 82.3842 51.5667 82.4905C51.5033 82.5969 51.4771 82.7213 51.4922 82.8442L51.7963 85.6007C51.8093 85.7099 51.8704 85.7761 51.9796 85.7995C52.1407 85.8307 52.2681 85.7943 52.3617 85.6904C52.4448 85.5994 52.4721 85.4525 52.4435 85.2498C52.3682 84.7481 52.3188 84.24 52.2954 83.7253C52.2933 83.6981 52.3001 83.671 52.3149 83.648C52.3297 83.6251 52.3516 83.6076 52.3773 83.5983C52.403 83.5891 52.431 83.5884 52.457 83.5966C52.4831 83.6047 52.5057 83.6212 52.5215 83.6435Z" stroke="#F4873F" stroke-width="0.779779"/>
<path d="M46.1781 85.0394L45.4451 84.7353C45.402 84.7177 45.3538 84.7172 45.3109 84.7339C45.268 84.7507 45.2336 84.7833 45.2151 84.825C45.0981 85.0823 45.1514 85.2694 45.3749 85.3864C46.2535 85.8465 46.8929 85.6606 47.2932 84.8288C47.3206 84.773 47.3333 84.711 47.3299 84.6489C47.3264 84.5868 47.3071 84.5265 47.2737 84.474L46.4159 83.1328C46.3942 83.098 46.3823 83.0579 46.3816 83.0168C46.3809 82.9757 46.3915 82.9354 46.4121 82.9002C46.4327 82.8651 46.4626 82.8365 46.4983 82.8177C46.5341 82.7989 46.5744 82.7905 46.6148 82.7936L47.4062 82.8521C47.5336 82.8625 47.6012 82.804 47.609 82.6767C47.6272 82.3829 47.4582 82.1971 47.1021 82.1191C46.3145 81.9476 45.8168 82.2088 45.6088 82.9028C45.5881 82.9698 45.5826 83.0409 45.5927 83.111C45.6028 83.1811 45.6283 83.2484 45.6673 83.3083L46.5329 84.6066C46.5677 84.6587 46.5849 84.7207 46.5819 84.7834C46.5788 84.846 46.5557 84.906 46.5159 84.9545C46.4762 85.0031 46.4219 85.0375 46.361 85.0528C46.3002 85.068 46.236 85.0633 46.1781 85.0394Z" stroke="#F4873F" stroke-width="0.779779"/>
<path d="M49.9267 82.6099C49.9285 82.5603 49.9106 82.5121 49.8768 82.4757C49.843 82.4394 49.7962 82.4179 49.7466 82.4161L49.3491 82.4015C49.2995 82.3997 49.2512 82.4176 49.2149 82.4514C49.1785 82.4852 49.1571 82.5321 49.1553 82.5817L49.0421 85.6675C49.0403 85.7171 49.0583 85.7654 49.092 85.8017C49.1258 85.8381 49.1727 85.8595 49.2222 85.8614L49.6197 85.8759C49.6693 85.8778 49.7176 85.8598 49.7539 85.826C49.7903 85.7922 49.8117 85.7454 49.8136 85.6958L49.9267 82.6099Z" stroke="#F4873F" stroke-width="0.779779"/>
<path d="M68.429 73.3934C68.3561 73.3531 68.2704 73.3423 68.1893 73.3633C68.1082 73.3843 68.0377 73.4355 67.9923 73.5065C67.8753 73.6937 67.8572 73.912 67.9377 74.1615C67.9776 74.2894 68.0617 74.3874 68.1731 74.4356C68.2845 74.4838 68.415 74.4787 68.5381 74.4214C68.6613 74.364 68.768 74.2586 68.8367 74.1265C68.9055 73.9943 68.9311 73.8452 68.9086 73.7093C68.9034 73.6703 68.7435 73.565 68.429 73.3934Z" stroke="#F4873F" stroke-width="0.779779"/>
<path d="M6 60.913V60.3554L7.31783 52.4953C7.35503 52.2707 7.44703 52.0586 7.58573 51.8778C7.72443 51.6969 7.90557 51.5528 8.1132 51.4582L20.2271 45.9841C20.3954 45.9064 20.5297 45.7707 20.6053 45.602C21.9803 42.5037 23.7686 39.6614 25.9701 37.0751C26.0585 36.9712 26.0975 36.8503 26.0871 36.7125C26.0052 35.4844 22.3481 33.6948 21.3071 33.0866C21.2906 33.0778 21.2773 33.0644 21.2685 33.0481C21.2597 33.0317 21.2559 33.013 21.2576 32.9942C21.2592 32.9754 21.2662 32.9572 21.2777 32.9418C21.2893 32.9264 21.3048 32.9144 21.3227 32.9072L37.9865 26.6612C38.1399 26.604 38.24 26.4987 38.2867 26.3454L44.2481 7.16283C44.3157 6.94969 44.3937 6.94579 44.4821 7.15114L50.5761 21.1989C50.6415 21.35 50.7628 21.47 50.9146 21.5339C51.0664 21.5979 51.2371 21.6007 51.3909 21.542L69.4194 14.6058C69.4948 14.5772 69.5611 14.5915 69.6183 14.6487L70.3317 15.3544C70.4331 15.4532 70.4409 15.5572 70.3551 15.6663C67.4804 19.4197 64.6199 23.1808 61.7737 26.9497C61.519 27.285 61.48 27.6632 61.6567 28.0843C61.7043 28.1994 61.7952 28.2917 61.9101 28.3416C66.0742 30.1195 69.7456 32.6252 72.9245 35.8587C73.0259 35.9627 73.1494 35.9978 73.2949 35.964C75.5836 35.4337 78.4454 34.8489 80.5936 36.1355C80.708 36.2031 80.8211 36.2005 80.9328 36.1277C84.8044 33.6636 90.2551 33.8664 93.2923 37.6054C93.3729 37.7042 93.408 37.8172 93.3976 37.9446C93.265 39.8161 93.5965 42.5531 91.6314 43.5005C91.5737 43.5276 91.529 43.5764 91.5071 43.6363C91.4852 43.6962 91.4878 43.7623 91.5144 43.8202C92.0135 44.8768 92.7933 45.8788 93.1637 46.838C96.2516 54.8697 90.2863 59.447 83.4866 61.5953C83.41 61.6191 83.3424 61.6662 83.293 61.7303C83.2435 61.7944 83.2145 61.8724 83.2098 61.954C81.7048 85.745 57.4303 101.208 35.8109 89.8389C35.6162 89.737 35.3913 89.7085 35.1773 89.7586C34.9633 89.8087 34.7744 89.9341 34.6452 90.1118C33.7835 91.3088 32.4813 94.5176 30.5981 92.9502C30.5027 92.8699 30.3803 92.8281 30.255 92.8332C28.8007 92.9034 28.5707 91.9482 27.557 91.4881C23.0226 89.4451 17.3224 88.5834 12.3318 88.6068C11.1309 88.6146 10.4239 88.061 10.2108 86.9459C10.1796 86.7873 10.2212 86.6496 10.3356 86.5326C10.78 86.0855 10.8216 85.5956 10.4603 85.0627C10.3753 84.9375 10.3418 84.7839 10.3668 84.6339L14.2968 59.9695C14.3095 59.8909 14.306 59.8105 14.2868 59.7333C14.2675 59.6561 14.2327 59.5836 14.1846 59.5202C14.1365 59.4568 14.076 59.4038 14.0069 59.3644C13.9377 59.325 13.8613 59.3001 13.7822 59.291C12.4332 59.1429 11.1777 61.4978 10.2849 62.4102C9.02164 63.6929 6.96693 61.7474 6 60.913ZM24.7888 43.7267L26.7187 42.9157C27.9976 42.3231 29.214 41.6693 30.3681 40.9545C31.7522 40.1007 35.269 39.7693 35.3782 42.1398C35.425 43.2315 35.2131 45.4058 34.7426 48.6627C34.7385 48.6904 34.7415 48.7188 34.7515 48.745C34.7615 48.7713 34.778 48.7945 34.7995 48.8125C34.8211 48.8305 34.8469 48.8427 34.8745 48.8479C34.902 48.853 34.9305 48.851 34.9571 48.842L37.3705 48.0817L38.4388 48.07C38.5844 48.0674 38.6688 47.9947 38.6922 47.8517C38.856 46.8653 40.2869 46.5144 41.0667 46.1674L43.6516 44.9275L45.4919 44.1477C46.0429 43.9372 46.633 43.9008 47.262 44.0386L48.7592 44.9041L50.0458 45.5552C50.1732 45.6202 50.281 45.5968 50.3694 45.4851L50.8256 44.9119C51.0075 44.7586 51.1089 44.5961 51.1297 44.4246L53.356 41.8123C53.855 41.2171 54.4632 40.8519 55.1806 40.7167C57.9762 39.7459 61.1109 38.506 63.7582 39.0129C63.8908 39.0363 64.0103 39.0077 64.1169 38.9271C65.2892 38.033 66.5914 37.3507 68.0236 36.8802L69.6377 36.6034C70.3603 36.3824 70.9946 36.3435 71.5404 36.4864C71.5749 36.4946 71.611 36.4915 71.6435 36.4774C71.676 36.4634 71.7031 36.4391 71.7206 36.4084C71.7382 36.3776 71.7453 36.342 71.741 36.3069C71.7366 36.2718 71.7209 36.239 71.6964 36.2135C67.8521 32.3822 63.3124 29.7088 58.0775 28.1935C57.8514 28.1285 57.8111 28.0024 57.9567 27.8153L65.9962 17.4091C66.0147 17.3843 66.0247 17.3542 66.0248 17.3233C66.0249 17.2924 66.015 17.2622 65.9967 17.2373C65.9783 17.2124 65.9524 17.1941 65.9229 17.185C65.8933 17.1759 65.8616 17.1766 65.8324 17.1869L49.9288 23.2614C49.8067 23.3082 49.7196 23.2705 49.6676 23.1483L44.4548 10.6484C44.442 10.6182 44.4202 10.5926 44.3924 10.5751C44.3646 10.5577 44.332 10.5492 44.2992 10.5509C44.2664 10.5526 44.2349 10.5644 44.209 10.5847C44.1832 10.6049 44.1641 10.6326 44.1546 10.664L39.1874 27.0472C39.1094 27.3071 38.9431 27.4852 38.6883 27.5813L24.1688 33.0086C24.1361 33.0203 24.1074 33.0413 24.0863 33.069C24.0653 33.0968 24.0528 33.13 24.0503 33.1647C24.0478 33.1994 24.0555 33.2341 24.0724 33.2646C24.0893 33.295 24.1147 33.3199 24.1455 33.3361L28.4693 35.73C28.6097 35.808 28.6227 35.9042 28.5083 36.0185C25.8987 38.6048 23.7868 41.5485 22.1726 44.8495C22.1076 44.9847 22.1427 45.0185 22.2779 44.9509L24.7888 43.7267ZM89.717 53.7936C92.2279 48.9941 88.5006 45.6332 85.4595 42.5102C84.5861 41.6096 84.6212 39.703 85.8571 39.0714C87.3582 38.3033 88.9451 39.7693 89.643 40.9584C89.6656 40.9971 89.6998 41.0276 89.7408 41.0458C89.7817 41.064 89.8273 41.0689 89.8711 41.0599C89.915 41.0509 89.9549 41.0283 89.9853 40.9955C90.0157 40.9626 90.0351 40.921 90.0407 40.8766L90.4149 37.9368C90.4331 37.799 90.3903 37.6847 90.2863 37.5937C86.5161 34.2523 80.6638 36.8295 79.0887 41.0208C77.5369 45.1459 79.6813 47.7074 82.9564 49.805C83.0654 49.8735 83.1501 49.9759 83.1981 50.0975C84.0364 52.2184 83.432 54.8502 80.9874 55.3999C75.3886 56.6632 69.1114 57.0492 65.1891 57.9537C45.7531 62.4336 28.1418 72.4966 13.3923 85.8113C13.0141 86.1544 12.402 86.5365 12.0277 87.0824C11.9263 87.2331 11.9653 87.2981 12.1447 87.2773C18.5505 86.4663 24.6484 87.5853 29.9002 91.4647C29.9233 91.4818 29.9497 91.4941 29.9776 91.5008C30.0056 91.5076 30.0346 91.5086 30.063 91.5039C30.0914 91.4991 30.1185 91.4887 30.1428 91.4733C30.1671 91.4579 30.188 91.4377 30.2043 91.414C40.7274 76.5242 55.3015 66.196 73.0454 61.724C78.1607 60.4334 86.9683 59.0454 89.717 53.7936ZM69.7664 54.1445L69.6533 54.7137C69.6483 54.7416 69.6497 54.7702 69.6575 54.7973C69.6653 54.8245 69.6793 54.8493 69.6983 54.8698C69.7173 54.8904 69.7408 54.906 69.7669 54.9155C69.7929 54.9249 69.8208 54.9279 69.8483 54.9243L74.8818 54.2693C75.0065 54.2511 75.0819 54.1796 75.1079 54.0548L78.2543 37.2233C78.3089 36.94 78.1932 36.8152 77.9073 36.849L73.2208 37.3871C73.1721 37.3931 73.1254 37.4099 73.0843 37.4362C73.0431 37.4625 73.0085 37.4977 72.983 37.5391L72.4995 38.3306C72.432 38.445 72.3345 38.48 72.2071 38.4359C68.4642 37.1531 64.46 39.9408 62.1675 42.8533C60.4 45.0965 59.6072 47.6762 59.7891 50.5926C60.1946 57.0531 65.2164 57.6223 69.5481 54.0119C69.7456 53.8482 69.8184 53.8924 69.7664 54.1445ZM49.9873 54.2303C50.0033 54.2048 50.0247 54.1831 50.0501 54.167C50.0755 54.1508 50.1041 54.1404 50.134 54.1367C50.1639 54.133 50.1942 54.1359 50.2228 54.1454C50.2514 54.1548 50.2775 54.1705 50.2992 54.1913C51.7626 55.5923 53.0168 57.161 54.0617 58.8973C54.0909 58.9453 54.1353 58.9823 54.1881 59.0027C54.2409 59.0231 54.2992 59.0258 54.3541 59.0103L60.7483 57.1194C60.7782 57.1107 60.8058 57.0953 60.8288 57.0743C60.8518 57.0533 60.8697 57.0272 60.881 56.9982C60.8923 56.9691 60.8967 56.9379 60.894 56.9068C60.8913 56.8758 60.8814 56.8458 60.8652 56.8191C59.0094 53.8144 56.592 51.3672 53.6133 49.4775C53.5828 49.4577 53.5567 49.432 53.5364 49.4019C53.5162 49.3718 53.5024 49.3379 53.4958 49.3025C53.4893 49.267 53.4901 49.2307 53.4982 49.1957C53.5063 49.1608 53.5216 49.128 53.5431 49.0993C55.9968 45.8633 58.8482 43.0288 62.0973 40.5958C62.3 40.4451 62.2753 40.3892 62.0232 40.4282C59.8866 40.7739 57.8124 41.3587 55.8006 42.1827C53.9798 42.9313 51.9446 45.8633 50.6345 47.3916C50.5384 47.5034 50.4253 47.5255 50.2953 47.4579L46.5758 45.5474C46.5202 45.5184 46.4588 45.5026 46.3965 45.5013C46.3343 45.4999 46.2729 45.513 46.2171 45.5396L40.591 48.1558C40.5511 48.1739 40.5176 48.2035 40.4948 48.2408C40.472 48.2781 40.4609 48.3215 40.463 48.3652C40.4651 48.4089 40.4803 48.4509 40.5066 48.4859C40.5329 48.5209 40.5691 48.5471 40.6105 48.5613C42.8796 49.3827 45.0396 50.4302 47.0904 51.7038C47.2048 51.7766 47.223 51.8663 47.145 51.9728C44.252 55.9887 41.927 60.3074 40.1699 64.9288C40.1576 64.9597 40.155 64.9937 40.1625 65.0261C40.1699 65.0585 40.187 65.0879 40.2116 65.1103C40.2361 65.1327 40.2669 65.1471 40.2999 65.1516C40.3328 65.1562 40.3664 65.1505 40.396 65.1355L45.7024 62.5271C45.8179 62.4695 45.9082 62.3709 45.9559 62.2503C47.0242 59.4379 48.368 56.7646 49.9873 54.2303ZM16.9559 54.7956L11.9458 84.3492C11.9402 84.383 11.9451 84.4177 11.9598 84.4486C11.9745 84.4795 11.9983 84.5051 12.028 84.5221C12.0578 84.5391 12.092 84.5466 12.126 84.5435C12.1601 84.5405 12.1925 84.5271 12.2187 84.5052L19.8684 78.0564C19.9538 77.9861 20.0106 77.8862 20.0282 77.7757L23.8413 51.2476C23.8485 51.1923 23.8688 51.1394 23.9007 51.0933C23.9325 51.0472 23.975 51.0092 24.0246 50.9825L29.9509 47.84C30.0627 47.7802 30.1783 47.7698 30.2979 47.8088C30.6982 47.9336 31.0296 48.1558 31.2921 48.4755C31.4767 48.6991 31.5845 48.6666 31.6157 48.378L32.3292 41.8552C32.35 41.6862 32.285 41.6433 32.1343 41.7265C24.7888 45.7996 17.2106 49.384 9.39984 52.4797C9.28176 52.5275 9.17788 52.6046 9.09805 52.7035C9.01822 52.8024 8.96508 52.92 8.94367 53.045L7.7779 59.7823C7.65833 60.4607 7.78829 60.5127 8.16778 59.9383C9.74684 57.5482 14.1838 55.7158 16.7804 54.6514C16.9234 54.5916 16.9819 54.6397 16.9559 54.7956ZM35.4795 50.0585C29.7638 52.2068 25.8064 57.7939 24.5236 63.5837C24.1338 65.3434 24.3092 66.9901 25.05 68.5236C27.826 74.2628 35.5341 68.3404 38.1113 65.654C39.3511 64.3596 39.858 61.3302 40.3181 59.5952C40.3259 59.5716 40.3251 59.546 40.3159 59.5229C40.3066 59.4998 40.2895 59.4807 40.2676 59.4691C40.2456 59.4574 40.2203 59.4539 40.196 59.4591C40.1717 59.4643 40.15 59.478 40.1348 59.4977C37.8462 62.0515 35.191 65.2135 31.6625 65.7905C31.5285 65.8132 31.391 65.7898 31.2726 65.7242C30.6176 65.3707 30.2368 64.8184 30.1303 64.0672C30.1121 63.945 30.1562 63.8527 30.2628 63.7904L41.0705 57.3689C41.1849 57.3013 41.2525 57.2012 41.2733 57.0687C41.5423 55.1894 41.7996 52.4875 40.7041 50.9825C39.4954 49.3255 37.3354 49.3606 35.4795 50.0585ZM78.9054 62.8741L77.9658 63.1743C74.3762 63.7072 70.9322 64.4948 67.6337 65.5371C67.5753 65.5567 67.5221 65.5893 67.4782 65.6326C67.4343 65.6758 67.4008 65.7285 67.3803 65.7866C64.2573 74.9646 55.3366 80.7077 45.6712 78.3293C45.5439 78.2982 45.4295 78.3228 45.3281 78.4034C42.5105 80.5946 39.9555 83.0483 37.6629 85.7645L36.9221 86.7276L35.9318 87.9128C35.8356 88.0298 35.8551 88.1247 35.9903 88.1974C46.4861 93.7417 59.5825 92.4316 68.7995 85.0705C75.6122 79.6329 79.7021 72.2406 81.0693 62.8936C81.0795 62.8245 81.0723 62.754 81.0484 62.6883C81.0245 62.6227 80.9847 62.564 80.9325 62.5176C80.8803 62.4711 80.8173 62.4385 80.7493 62.4224C80.6813 62.4064 80.6104 62.4075 80.543 62.4258L78.9054 62.8741ZM63.844 67.0693L62.3 67.8647L60.8535 68.5236C60.4299 68.6458 60.0452 68.8498 59.6995 69.1358C59.2914 69.2631 58.9106 69.5048 58.5571 69.8609C58.2062 69.8116 57.8709 69.9896 57.5512 70.3951L56.1944 71.1086C55.9656 71.1762 55.7304 71.3464 55.4887 71.6193C55.0468 71.6895 54.5867 71.9495 54.1085 72.3991C53.9733 72.3549 53.7913 72.4992 53.5626 72.8319C53.1857 72.8865 52.8218 73.0671 52.4709 73.3738L51.2973 74.2043L50.5215 74.6722L49.4727 75.3545L48.342 76.3253C48.2146 76.2343 48.0106 76.3461 47.7299 76.6606C47.1476 76.9153 46.6785 77.2714 46.3224 77.7289C46.234 77.8407 46.2587 77.9096 46.3964 77.9356C55.5238 79.6823 63.5711 74.5981 66.7097 66.1843C66.7227 66.1499 66.7252 66.1124 66.7171 66.0766C66.7089 66.0407 66.6903 66.0081 66.6637 65.9827C66.6371 65.9573 66.6036 65.9403 66.5674 65.9339C66.5312 65.9275 66.4939 65.9318 66.4602 65.9465L63.844 67.0693Z" fill="#1E5482"/>
<path d="M69.6379 36.6034C65.9209 33.2218 61.614 30.902 56.717 29.6439C56.6627 29.6299 56.6056 29.632 56.5529 29.65C56.5001 29.6681 56.4541 29.7012 56.4206 29.7453L55.867 30.4705C55.7578 30.6134 55.7916 30.707 55.9684 30.7512C60.4703 31.8195 64.4888 33.8625 68.0238 36.8803C66.5916 37.3507 65.2893 38.033 64.1171 38.9272C64.0105 39.0078 63.8909 39.0363 63.7584 39.013C61.111 38.5061 57.9763 39.7459 55.1808 40.7168L52.4984 32.9268C52.4646 32.8228 52.3918 32.7708 52.28 32.7708L45.6675 32.7825C45.6156 32.7825 45.565 32.7661 45.5231 32.7356C45.4811 32.7051 45.4498 32.6621 45.4338 32.6127C45.4178 32.5634 45.4178 32.5102 45.4339 32.4608C45.4499 32.4115 45.4812 32.3685 45.5232 32.338L61.9454 20.2008C61.9566 20.1946 61.9666 20.1863 61.9746 20.1764C61.9827 20.1664 61.9887 20.1549 61.9923 20.1426C61.9959 20.1303 61.9971 20.1174 61.9957 20.1046C61.9944 20.0919 61.9905 20.0795 61.9844 20.0682C61.9782 20.057 61.9699 20.047 61.9599 20.039C61.9499 20.0309 61.9385 20.0249 61.9262 20.0213C61.9013 20.014 61.8745 20.0168 61.8518 20.0292L49.2311 24.8366C49.0881 24.8912 48.9803 24.9847 48.9075 25.1173L45.1645 32.0651C45.0577 32.2622 45.0161 32.4882 45.0455 32.7108C45.0749 32.9335 45.1739 33.1414 45.3283 33.305L53.3561 41.8124L51.1298 44.4246C49.9056 43.9386 48.6164 43.8099 47.2621 44.0386C46.6331 43.9009 46.0431 43.9373 45.492 44.1478C43.8753 43.6877 43.2619 43.9477 43.6518 44.9276L41.0668 46.1674L44.6109 40.8844C44.6837 40.7779 44.7201 40.6596 44.7201 40.5296L44.6148 14.7657C44.6129 14.7411 44.6026 14.7178 44.5858 14.6997C44.5689 14.6817 44.5464 14.6699 44.522 14.6662C44.4975 14.6626 44.4725 14.6674 44.4512 14.6798C44.4298 14.6922 44.4132 14.7115 44.4043 14.7345L40.1662 28.0415C40.1272 28.1662 40.1545 28.2754 40.248 28.369L44.1508 32.2718C44.39 32.5109 44.3406 32.6357 44.0027 32.6461L27.1594 33.2114C27.1372 33.2131 27.1161 33.2218 27.0991 33.2362C27.0821 33.2507 27.0702 33.2701 27.065 33.2918C27.0597 33.3135 27.0616 33.3363 27.0701 33.3569C27.0787 33.3774 27.0936 33.3948 27.1127 33.4063L36.6961 38.6192C36.9119 38.7361 37.1159 38.7179 37.3083 38.5646L44.2561 33.032C44.2699 33.0223 44.2865 33.0173 44.3034 33.0178C44.3203 33.0184 44.3365 33.0243 44.3497 33.0349C44.3629 33.0455 44.3723 33.06 44.3765 33.0764C44.3807 33.0927 44.3795 33.11 44.3731 33.1256L37.3706 48.0818L34.9572 48.8421C34.9306 48.8511 34.9022 48.8531 34.8746 48.8479C34.847 48.8427 34.8212 48.8306 34.7997 48.8126C34.7782 48.7946 34.7616 48.7713 34.7517 48.7451C34.7417 48.7188 34.7386 48.6905 34.7428 48.6627C35.2133 45.4058 35.4251 43.2316 35.3783 42.1399C35.2691 39.7693 31.7523 40.1007 30.3682 40.9546C29.2142 41.6694 27.9977 42.3231 26.7189 42.9157C28.0809 40.8207 29.6729 38.9454 31.495 37.2896C31.612 37.1857 31.599 37.1012 31.456 37.0362L30.6762 36.6814C30.6138 36.6527 30.5443 36.6429 30.4764 36.6533C30.4085 36.6637 30.3451 36.6938 30.2942 36.7399C28.1134 38.7231 26.2783 41.0521 24.7889 43.7267L22.278 44.951C22.1429 45.0185 22.1078 44.9848 22.1728 44.8496C23.7869 41.5485 25.8988 38.6049 28.5085 36.0186C28.6228 35.9042 28.6098 35.8081 28.4695 35.7301L24.1456 33.3362C24.1148 33.3199 24.0894 33.2951 24.0725 33.2646C24.0556 33.2342 24.0479 33.1995 24.0504 33.1648C24.0529 33.1301 24.0654 33.0968 24.0865 33.0691C24.1075 33.0414 24.1362 33.0204 24.169 33.0087L38.6885 27.5814C38.9432 27.4852 39.1096 27.3072 39.1875 27.0472L44.1547 10.6641C44.1643 10.6327 44.1833 10.6049 44.2092 10.5847C44.2351 10.5645 44.2666 10.5527 44.2994 10.551C44.3322 10.5493 44.3647 10.5577 44.3925 10.5752C44.4204 10.5926 44.4422 10.6182 44.4549 10.6485L49.6678 23.1484C49.7197 23.2705 49.8068 23.3082 49.929 23.2614L65.8326 17.1869C65.8617 17.1766 65.8934 17.176 65.923 17.185C65.9526 17.1941 65.9785 17.2125 65.9968 17.2374C66.0152 17.2623 66.025 17.2924 66.0249 17.3234C66.0248 17.3543 66.0148 17.3844 65.9963 17.4092L57.9568 27.8153C57.8112 28.0025 57.8515 28.1285 58.0777 28.1935C63.3126 29.7089 67.8522 32.3822 71.6965 36.2135C71.7211 36.239 71.7367 36.2718 71.7411 36.307C71.7455 36.3421 71.7384 36.3777 71.7208 36.4084C71.7032 36.4392 71.6762 36.4634 71.6437 36.4775C71.6112 36.4915 71.575 36.4947 71.5406 36.4865C70.9947 36.3435 70.3605 36.3825 69.6379 36.6034ZM47.9133 43.1692C47.0984 42.7598 44.646 42.0229 44.0534 43.3173C43.9754 43.4941 44.0326 43.5799 44.2249 43.5747L48.2642 43.4928C48.2848 43.4924 48.305 43.4864 48.3225 43.4754C48.34 43.4644 48.3541 43.4488 48.3634 43.4303C48.3726 43.4118 48.3766 43.3911 48.3749 43.3705C48.3733 43.3499 48.366 43.3302 48.3538 43.3134C48.294 43.2277 48.2213 43.1913 48.1355 43.2043C48.0575 43.2173 47.9834 43.2056 47.9133 43.1692Z" fill="#EC493D"/>
<path d="M41.0668 46.1674C40.287 46.5144 38.8561 46.8653 38.6923 47.8517C38.6689 47.9947 38.5845 48.0675 38.4389 48.0701L37.3706 48.0818L44.373 33.1256C44.3795 33.11 44.3807 33.0927 44.3765 33.0764C44.3723 33.06 44.3629 33.0454 44.3497 33.0349C44.3365 33.0243 44.3202 33.0183 44.3034 33.0178C44.2865 33.0173 44.2699 33.0223 44.2561 33.032L37.3082 38.5646C37.1159 38.7179 36.9118 38.7361 36.6961 38.6192L27.1126 33.4063C27.0936 33.3948 27.0787 33.3774 27.0701 33.3568C27.0615 33.3363 27.0597 33.3135 27.0649 33.2918C27.0701 33.2701 27.0821 33.2506 27.0991 33.2362C27.116 33.2217 27.1372 33.2131 27.1594 33.2114L44.0026 32.646C44.3405 32.6357 44.3899 32.5109 44.1508 32.2718L40.248 28.369C40.1544 28.2754 40.1271 28.1662 40.1661 28.0415L44.4042 14.7345C44.4132 14.7115 44.4297 14.6922 44.4511 14.6798C44.4725 14.6674 44.4975 14.6626 44.5219 14.6662C44.5464 14.6698 44.5689 14.6817 44.5857 14.6997C44.6026 14.7178 44.6128 14.7411 44.6148 14.7657L44.72 40.5296C44.72 40.6596 44.6836 40.7778 44.6109 40.8844L41.0668 46.1674Z" fill="#FBC540"/>
<path d="M55.1806 40.7168C54.4632 40.852 53.855 41.2172 53.3559 41.8124L45.3281 33.305C45.1737 33.1414 45.0747 32.9335 45.0453 32.7109C45.0159 32.4882 45.0576 32.2623 45.1644 32.0651L48.9073 25.1173C48.9801 24.9848 49.088 24.8912 49.2309 24.8366L61.8516 20.0293C61.8744 20.0169 61.9011 20.014 61.926 20.0213C61.9383 20.0249 61.9498 20.0309 61.9598 20.039C61.9698 20.047 61.9781 20.057 61.9842 20.0683C61.9903 20.0795 61.9942 20.0919 61.9956 20.1046C61.9969 20.1174 61.9958 20.1303 61.9922 20.1426C61.9885 20.1549 61.9825 20.1664 61.9745 20.1764C61.9664 20.1864 61.9565 20.1947 61.9452 20.2008L45.5231 32.3381C45.4811 32.3685 45.4498 32.4115 45.4337 32.4609C45.4176 32.5102 45.4176 32.5634 45.4336 32.6127C45.4497 32.6621 45.4809 32.7051 45.5229 32.7356C45.5649 32.7661 45.6154 32.7826 45.6673 32.7825L52.2799 32.7709C52.3916 32.7709 52.4644 32.8228 52.4982 32.9268L55.1806 40.7168Z" fill="#FBC540"/>
<path d="M69.6379 36.6035L68.0237 36.8803C64.4887 33.8625 60.4703 31.8195 55.9683 30.7512C55.7916 30.707 55.7578 30.6135 55.867 30.4705L56.4206 29.7453C56.4541 29.7012 56.5001 29.6681 56.5528 29.6501C56.6055 29.632 56.6626 29.6299 56.7169 29.6439C61.6139 30.902 65.9209 33.2218 69.6379 36.6035Z" fill="#FBC540"/>
<path d="M85.4593 42.5103C88.5005 45.6333 92.2278 48.9942 89.7169 53.7937C86.9682 59.0455 78.1606 60.4335 73.0453 61.7241C55.3014 66.1961 40.7273 76.5243 30.2042 91.4141C30.1879 91.4378 30.167 91.458 30.1427 91.4734C30.1184 91.4889 30.0913 91.4992 30.0629 91.504C30.0345 91.5087 30.0055 91.5077 29.9775 91.5009C29.9495 91.4942 29.9232 91.4819 29.9001 91.4648C24.6483 87.5854 18.5504 86.4664 12.1445 87.2774C11.9652 87.2982 11.9262 87.2332 12.0276 87.0825C12.4019 86.5366 13.014 86.1545 13.3922 85.8114C28.1417 72.4967 45.753 62.4337 65.189 57.9538C69.1113 57.0493 75.3885 56.6633 80.9873 55.4001C83.4319 54.8503 84.0362 52.2186 83.198 50.0976C83.15 49.976 83.0653 49.8736 82.9562 49.8051C79.6812 47.7075 77.5368 45.146 79.0885 41.0209C80.6637 36.8296 86.5159 34.2525 90.2862 37.5938C90.3901 37.6848 90.433 37.7992 90.4148 37.9369L90.0405 40.8767C90.035 40.9211 90.0156 40.9627 89.9852 40.9956C89.9548 41.0284 89.9149 41.051 89.871 41.06C89.8271 41.069 89.7815 41.0641 89.7406 41.0459C89.6997 41.0277 89.6655 40.9972 89.6428 40.9586C88.9449 39.7694 87.3581 38.3034 85.857 39.0715C84.6211 39.7031 84.586 41.6097 85.4593 42.5103ZM62.6781 61.8059L63.8712 62.6793C63.9467 62.7349 64.0362 62.7684 64.1297 62.7761C64.2232 62.7838 64.317 62.7654 64.4007 62.7229C64.4843 62.6805 64.5546 62.6157 64.6036 62.5357C64.6526 62.4557 64.6784 62.3637 64.6782 62.2699V59.9735C64.6782 59.8435 64.6132 59.7785 64.4833 59.7785H64.1246C64.0916 59.7784 64.059 59.7852 64.0288 59.7985C63.9986 59.8118 63.9715 59.8314 63.9491 59.8559C63.9267 59.8805 63.9097 59.9095 63.8989 59.9412C63.8882 59.9728 63.884 60.0064 63.8867 60.0397L64.0232 61.5174C64.0277 61.5693 64.0147 61.6213 63.9863 61.665C63.958 61.7087 63.9158 61.7417 63.8665 61.7587C63.8173 61.7757 63.7637 61.7758 63.7144 61.7589C63.6651 61.7421 63.6228 61.7092 63.5943 61.6656C63.2486 61.1275 62.7912 60.7454 62.2219 60.5193C62.1407 60.4872 62.0526 60.4767 61.9661 60.4886C61.8796 60.5006 61.7977 60.5347 61.7283 60.5877C61.6589 60.6406 61.6043 60.7106 61.5699 60.7909C61.5355 60.8711 61.5224 60.9589 61.5318 61.0457L61.7813 63.4396C61.7969 63.5877 61.8749 63.641 62.0153 63.5994L62.452 63.4786C62.5003 63.4658 62.5422 63.4352 62.5696 63.3928C62.5969 63.3503 62.6078 63.2989 62.6001 63.2485L62.3974 61.9775C62.3532 61.6968 62.4468 61.6396 62.6781 61.8059ZM58.5882 63.5176L59.4498 63.0497C59.5042 63.0142 59.5437 62.96 59.5607 62.8974C59.5778 62.8347 59.5713 62.768 59.5425 62.7099C59.5136 62.6517 59.4645 62.6061 59.4043 62.5818C59.3441 62.5575 59.277 62.5561 59.2159 62.5779L58.6778 62.8197C58.6404 62.8358 58.5995 62.842 58.5591 62.8378C58.5186 62.8335 58.4798 62.819 58.4466 62.7955C58.4133 62.772 58.3867 62.7404 58.3691 62.7037C58.3516 62.667 58.3438 62.6263 58.3464 62.5857L58.3737 62.2192C58.3786 62.1576 58.4062 62.1 58.4511 62.0581C58.4959 62.0162 58.5546 61.993 58.6154 61.9931C59.0625 61.9853 59.303 61.7773 59.3367 61.3693C59.3389 61.3331 59.3321 61.297 59.3168 61.2642C59.3016 61.2314 59.2784 61.2029 59.2494 61.1812C59.2204 61.1596 59.1865 61.1455 59.1507 61.1402C59.1149 61.1349 59.0783 61.1386 59.0443 61.1509L57.4926 61.7358C57.3756 61.7799 57.3249 61.8631 57.3405 61.9853L57.7811 65.1941C57.8019 65.337 57.876 65.3747 58.0033 65.3071L59.8319 64.3207C59.8874 64.2879 59.9287 64.2352 59.9477 64.1732C59.9667 64.1112 59.962 64.0444 59.9344 63.9863C59.9068 63.9281 59.8584 63.8829 59.7989 63.8596C59.7394 63.8363 59.6732 63.8367 59.6136 63.8607L58.7831 64.2116C58.7452 64.2276 58.7026 64.2285 58.6636 64.214C58.6246 64.1996 58.5921 64.1709 58.5726 64.1336L58.4634 63.923C58.4265 63.8533 58.419 63.7717 58.4423 63.6958C58.4657 63.6199 58.5181 63.5559 58.5882 63.5176ZM53.3324 66.2L54.3773 66.8277C54.5307 66.9161 54.6854 66.9213 54.8413 66.8433L55.4456 66.5353C55.6172 66.4495 55.6224 66.3572 55.4612 66.2585L54.1512 65.4436C54.0498 65.3812 54.0225 65.2954 54.0693 65.1863L55.0129 62.9756C55.0804 62.8145 55.0272 62.7417 54.853 62.7573C53.8666 62.8547 53.6054 64.2505 53.2389 65.0342C53.1115 65.3071 53.0296 65.2942 52.9932 64.9952L52.849 63.8217C52.8334 63.6865 52.7632 63.6449 52.6384 63.6969L51.9834 63.9698C51.8405 64.027 51.7781 64.1323 51.7963 64.2856L52.2369 68.0598C52.2602 68.2547 52.3551 68.3002 52.5215 68.1962L53.1024 67.8414C53.1679 67.8011 53.2197 67.7419 53.251 67.6716C53.2823 67.6014 53.2916 67.5233 53.2779 67.4476L53.079 66.3754C53.0728 66.3439 53.076 66.3113 53.0881 66.2816C53.1003 66.2518 53.1209 66.2262 53.1476 66.2077C53.1743 66.1893 53.2059 66.1787 53.2386 66.1774C53.2714 66.176 53.304 66.1838 53.3324 66.2ZM48.5251 69.518C48.4283 69.5365 48.3287 69.5357 48.2322 69.5155C48.1357 69.4953 48.0442 69.4561 47.963 69.4002C47.8817 69.3444 47.8124 69.273 47.7589 69.1901C47.7055 69.1072 47.6691 69.0146 47.6518 68.9175C47.4685 67.8921 47.9481 66.1532 49.4024 66.3248C49.4294 66.3277 49.4568 66.3241 49.4821 66.3141C49.5074 66.3041 49.5298 66.2881 49.5472 66.2676C49.5646 66.2471 49.5766 66.2227 49.5819 66.1966C49.5872 66.1705 49.5858 66.1435 49.5778 66.1181L49.3361 65.2994C49.2893 65.1486 49.1944 65.107 49.0515 65.1746C47.6557 65.8348 46.8681 66.9629 46.6887 68.5588C46.3378 71.713 50.8021 70.8553 49.9716 68.2664C49.9642 68.2445 49.9499 68.2257 49.9308 68.2128C49.9116 68.1998 49.8888 68.1936 49.8658 68.1949C49.8427 68.1962 49.8208 68.2051 49.8032 68.2201C49.7857 68.2352 49.7737 68.2555 49.7689 68.2781C49.6103 68.9799 49.1957 69.3932 48.5251 69.518ZM44.7003 72.8827C44.7258 72.8629 44.7452 72.8363 44.7562 72.8059C44.7672 72.7756 44.7695 72.7427 44.7627 72.7111L43.7841 67.9623C43.7784 67.935 43.7662 67.9095 43.7484 67.888C43.7307 67.8664 43.708 67.8496 43.6822 67.8388C43.6565 67.8281 43.6285 67.8238 43.6008 67.8263C43.573 67.8287 43.5462 67.838 43.5228 67.8531L42.591 68.4536C42.5613 68.4719 42.5379 68.499 42.5239 68.531C42.51 68.5631 42.5062 68.5986 42.513 68.6329L43.554 73.4636C43.5599 73.4922 43.5729 73.5187 43.5918 73.5409C43.6108 73.563 43.635 73.5799 43.6624 73.59C43.6897 73.6002 43.7191 73.6032 43.7479 73.5988C43.7767 73.5944 43.8039 73.5828 43.8269 73.565L44.7003 72.8827ZM36.9415 74.3409L36.5438 72.5201C36.5074 72.3537 36.4216 72.3226 36.2865 72.4265L35.2923 73.1907C35.1909 73.2661 35.1532 73.3662 35.1792 73.4909L36.3255 78.8714C36.3593 79.0378 36.445 79.0702 36.5828 78.9689L37.5341 78.2632C37.6485 78.1774 37.6927 78.0643 37.6667 77.924L37.2846 75.9043C37.2586 75.764 37.3041 75.6509 37.4211 75.5651L38.9377 74.4812C38.9633 74.463 38.9929 74.4515 39.0241 74.4478C39.0552 74.4441 39.0868 74.4482 39.1159 74.4599C39.145 74.4715 39.1707 74.4903 39.1907 74.5145C39.2106 74.5386 39.2242 74.5674 39.2301 74.5982L39.581 76.2513C39.62 76.4385 39.7162 76.4749 39.8696 76.3605L40.661 75.7874C40.7152 75.7471 40.7562 75.6919 40.7791 75.6288C40.802 75.5657 40.8057 75.4974 40.7897 75.4326L39.5966 70.6954C39.5447 70.4875 39.4251 70.4355 39.2379 70.5395C38.4062 71.0047 38.2775 71.7104 38.852 72.6566C38.9274 72.7807 38.9533 72.9288 38.9244 73.0711C38.8955 73.2135 38.8139 73.3398 38.696 73.4246L37.269 74.4656C37.2408 74.4858 37.208 74.4986 37.1736 74.503C37.1392 74.5074 37.1042 74.5033 37.0718 74.491C37.0394 74.4786 37.0106 74.4585 36.9878 74.4323C36.9651 74.4061 36.9492 74.3747 36.9415 74.3409ZM32.0523 81.5382C31.3505 82.3414 29.6038 82.6299 29.5024 81.1406C29.3594 79.0196 30.2523 77.7576 32.1809 77.3547C32.3369 77.3235 32.3967 77.23 32.3603 77.074L32.0367 75.6938C32.0055 75.5612 31.9301 75.5261 31.8106 75.5885C29.4192 76.7972 28.0559 78.6076 27.7206 81.0197C27.4529 82.9431 28.2769 84.0868 30.1925 84.4507C30.2965 84.4715 30.3979 84.4598 30.4966 84.4156C31.6403 83.914 32.6098 83.181 33.4052 82.2167C33.4884 82.1153 33.5183 82.0009 33.4949 81.8735L33.1869 80.2477C33.1427 80.0008 33.0621 79.9891 32.9451 80.2126C32.693 80.7013 32.3954 81.1432 32.0523 81.5382Z" fill="#FBC540"/>
<path d="M26.7188 42.9157L24.7888 43.7266C26.2782 41.052 28.1133 38.723 30.2941 36.7398C30.345 36.6937 30.4084 36.6636 30.4763 36.6532C30.5442 36.6428 30.6137 36.6526 30.6761 36.6813L31.4559 37.0361C31.5989 37.1011 31.6119 37.1856 31.4949 37.2895C29.6728 38.9453 28.0808 40.8206 26.7188 42.9157Z" fill="#FBC540"/>
<path d="M69.5481 54.0121C65.2164 57.6225 60.1946 57.0532 59.7891 50.5928C59.6072 47.6764 60.4 45.0966 62.1675 42.8534C64.46 39.941 68.4642 37.1533 72.2071 38.436C72.3345 38.4802 72.432 38.4451 72.4995 38.3307L72.983 37.5393C73.0085 37.4978 73.0431 37.4626 73.0843 37.4363C73.1254 37.41 73.1721 37.3932 73.2208 37.3872L77.9073 36.8492C78.1932 36.8154 78.3089 36.9401 78.2543 37.2234L75.1079 54.055C75.0819 54.1797 75.0065 54.2512 74.8818 54.2694L69.8483 54.9244C69.8208 54.9281 69.7929 54.9251 69.7669 54.9156C69.7408 54.9061 69.7173 54.8905 69.6983 54.87C69.6793 54.8494 69.6653 54.8246 69.6575 54.7975C69.6497 54.7703 69.6483 54.7417 69.6533 54.7139L69.7664 54.1446C69.8184 53.8925 69.7456 53.8483 69.5481 54.0121ZM71.8523 40.6584C68.0821 38.9623 66.0157 46.8966 65.6531 49.1346C65.4321 50.4758 65.7246 51.6494 66.5303 52.6553C66.6539 52.8105 66.8301 52.9147 67.0252 52.9478C67.2203 52.9809 67.4204 52.9406 67.5869 52.8346C69.088 51.8794 70.3006 50.7409 70.6125 48.885C71.0647 46.1844 71.5144 43.5085 71.9615 40.8572C71.9771 40.7636 71.9407 40.6974 71.8523 40.6584Z" fill="#FBC540"/>
<path d="M49.9872 54.2304C48.3679 56.7646 47.0241 59.438 45.9558 62.2504C45.9081 62.371 45.8178 62.4696 45.7023 62.5272L40.3959 65.1356C40.3663 65.1506 40.3327 65.1562 40.2998 65.1517C40.2668 65.1472 40.236 65.1328 40.2115 65.1104C40.1869 65.0879 40.1698 65.0586 40.1624 65.0261C40.1549 64.9937 40.1575 64.9598 40.1698 64.9289C41.9269 60.3074 44.252 55.9888 47.1449 51.9729C47.2229 51.8663 47.2047 51.7767 47.0903 51.7039C45.0395 50.4302 42.8795 49.3827 40.6104 48.5614C40.569 48.5472 40.5328 48.521 40.5065 48.486C40.4802 48.451 40.465 48.409 40.4629 48.3652C40.4608 48.3215 40.4719 48.2782 40.4947 48.2409C40.5175 48.2036 40.551 48.1739 40.5909 48.1559L46.217 45.5397C46.2728 45.5131 46.3342 45.5 46.3964 45.5013C46.4587 45.5027 46.5201 45.5185 46.5757 45.5475L50.2952 47.458C50.4252 47.5256 50.5383 47.5035 50.6344 47.3917C51.9445 45.8633 53.9797 42.9314 55.8005 42.1828C57.8123 41.3588 59.8865 40.774 62.0231 40.4283C62.2752 40.3893 62.2999 40.4452 62.0972 40.5959C58.8481 43.0288 55.9967 45.8633 53.543 49.0994C53.5215 49.128 53.5062 49.1609 53.4981 49.1958C53.49 49.2307 53.4892 49.2671 53.4957 49.3025C53.5023 49.338 53.5161 49.3718 53.5364 49.402C53.5566 49.4321 53.5827 49.4578 53.6132 49.4776C56.592 51.3673 59.0093 53.8145 60.8651 56.8192C60.8813 56.8458 60.8912 56.8759 60.8939 56.9069C60.8967 56.938 60.8922 56.9692 60.8809 56.9982C60.8696 57.0273 60.8517 57.0533 60.8287 57.0743C60.8057 57.0954 60.7781 57.1108 60.7482 57.1194L54.354 59.0104C54.2991 59.0259 54.2408 59.0232 54.188 59.0028C54.1352 58.9824 54.0908 58.9453 54.0616 58.8973C53.0167 57.161 51.7625 55.5924 50.2991 54.1914C50.2774 54.1706 50.2513 54.1549 50.2227 54.1454C50.1941 54.136 50.1638 54.133 50.1339 54.1368C50.1041 54.1405 50.0754 54.1508 50.05 54.167C50.0247 54.1832 50.0032 54.2048 49.9872 54.2304Z" fill="#FBC540"/>
<path d="M71.8523 40.6581C71.9407 40.6971 71.9771 40.7634 71.9615 40.857C71.5144 43.5082 71.0648 46.1842 70.6125 48.8848C70.3006 50.7407 69.088 51.8791 67.587 52.8344C67.4204 52.9403 67.2203 52.9806 67.0252 52.9475C66.8302 52.9144 66.6539 52.8102 66.5304 52.655C65.7246 51.6491 65.4322 50.4755 65.6531 49.1343C66.0157 46.8964 68.0821 38.9621 71.8523 40.6581Z" fill="#1E5482"/>
<path d="M16.7804 54.6513C14.1837 55.7157 9.74677 57.5482 8.16772 59.9382C7.78823 60.5126 7.65827 60.4606 7.77783 59.7822L8.9436 53.045C8.96502 52.9199 9.01816 52.8024 9.09799 52.7034C9.17782 52.6045 9.28169 52.5275 9.39977 52.4796C17.2106 49.3839 24.7887 45.7995 32.1342 41.7265C32.285 41.6433 32.35 41.6862 32.3292 41.8551L31.6157 48.378C31.5845 48.6665 31.4766 48.699 31.2921 48.4754C31.0295 48.1557 30.6981 47.9335 30.2978 47.8087C30.1783 47.7698 30.0626 47.7801 29.9508 47.8399L24.0245 50.9824C23.975 51.0091 23.9325 51.0471 23.9006 51.0932C23.8687 51.1393 23.8484 51.1922 23.8413 51.2476L20.0282 77.7756C20.0106 77.8862 19.9537 77.986 19.8683 78.0564L12.2187 84.5051C12.1924 84.5271 12.1601 84.5405 12.126 84.5435C12.0919 84.5465 12.0577 84.539 12.028 84.522C11.9983 84.5051 11.9745 84.4794 11.9598 84.4485C11.9451 84.4176 11.9402 84.3829 11.9457 84.3492L16.9558 54.7956C16.9818 54.6396 16.9233 54.5915 16.7804 54.6513Z" fill="#FBC540"/>
<path d="M48.1354 43.2041C48.2212 43.1911 48.294 43.2275 48.3538 43.3133C48.3659 43.3301 48.3732 43.3498 48.3749 43.3704C48.3765 43.391 48.3725 43.4117 48.3633 43.4302C48.354 43.4487 48.3399 43.4643 48.3224 43.4753C48.3049 43.4863 48.2847 43.4923 48.2641 43.4927L44.2248 43.5745C44.0325 43.5797 43.9753 43.494 44.0533 43.3172C44.6459 42.0228 47.0983 42.7597 47.9132 43.1691C47.9834 43.2054 48.0574 43.2171 48.1354 43.2041Z" fill="#FBC540"/>
<path d="M45.492 44.1477L43.6517 44.9275C43.2618 43.9476 43.8753 43.6877 45.492 44.1477Z" fill="#FBC540"/>
<path d="M51.1297 44.4245C51.1089 44.596 51.0075 44.7585 50.8256 44.9119C50.0744 44.5662 49.3856 44.5636 48.7591 44.9041L47.262 44.0385C48.6162 43.8098 49.9054 43.9384 51.1297 44.4245Z" fill="#FBC540"/>
<path d="M50.8254 44.9119L50.3693 45.485C50.2809 45.5968 50.173 45.6202 50.0457 45.5552L48.759 44.9041C49.3855 44.5636 50.0743 44.5662 50.8254 44.9119Z" fill="#EC493D"/>
<path d="M24.5237 63.5837C25.8064 57.7938 29.7638 52.2067 35.4796 50.0584C37.3355 49.3605 39.4954 49.3255 40.7041 50.9825C41.7997 52.4875 41.5424 55.1894 41.2733 57.0687C41.2525 57.2012 41.185 57.3013 41.0706 57.3689L30.2629 63.7903C30.1563 63.8527 30.1121 63.945 30.1303 64.0672C30.2369 64.8184 30.6177 65.3707 31.2727 65.7242C31.3911 65.7898 31.5286 65.8132 31.6626 65.7905C35.1911 65.2134 37.8462 62.0514 40.1349 59.4977C40.1501 59.478 40.1717 59.4643 40.196 59.4591C40.2203 59.4538 40.2457 59.4574 40.2676 59.469C40.2896 59.4807 40.3067 59.4998 40.3159 59.5229C40.3252 59.5459 40.3259 59.5715 40.3181 59.5951C39.858 61.3301 39.3512 64.3596 38.1113 65.654C35.5342 68.3404 27.8261 74.2628 25.05 68.5236C24.3092 66.99 24.1338 65.3434 24.5237 63.5837ZM35.3821 54.4954C35.2963 54.3029 35.1485 54.1448 34.9625 54.0465C34.7765 53.9482 34.5632 53.9154 34.3567 53.9534C31.1908 54.5266 30.5124 57.8328 30.0679 60.5075C30.0635 60.5306 30.066 60.5545 30.075 60.5763C30.084 60.598 30.0992 60.6167 30.1186 60.6299C30.1381 60.6432 30.161 60.6505 30.1846 60.6509C30.2081 60.6513 30.2313 60.6448 30.2512 60.6322L35.6043 57.3533C35.7343 57.2727 35.8045 57.157 35.8149 57.0063C35.8773 56.1121 35.733 55.2752 35.3821 54.4954Z" fill="#FBC540"/>
<path d="M35.382 54.4954C35.7329 55.2751 35.8771 56.1121 35.8148 57.0062C35.8044 57.157 35.7342 57.2727 35.6042 57.3532L30.251 60.6322C30.2311 60.6448 30.208 60.6513 30.1844 60.6509C30.1609 60.6504 30.138 60.6432 30.1185 60.6299C30.0991 60.6167 30.0839 60.598 30.0749 60.5763C30.0659 60.5545 30.0634 60.5306 30.0678 60.5075C30.5123 57.8328 31.1907 54.5266 34.3566 53.9534C34.563 53.9154 34.7764 53.9481 34.9624 54.0464C35.1484 54.1447 35.2962 54.3028 35.382 54.4954Z" fill="#1E5482"/>
<path d="M62.3976 61.9773L62.6003 63.2483C62.608 63.2987 62.5971 63.3501 62.5698 63.3926C62.5424 63.435 62.5005 63.4656 62.4522 63.4784L62.0155 63.5992C61.8751 63.6408 61.7972 63.5875 61.7816 63.4394L61.532 61.0455C61.5226 60.9587 61.5357 60.8709 61.5701 60.7907C61.6045 60.7104 61.6591 60.6405 61.7285 60.5875C61.798 60.5346 61.8799 60.5004 61.9664 60.4885C62.0528 60.4765 62.1409 60.487 62.2221 60.5191C62.7914 60.7452 63.2489 61.1273 63.5946 61.6654C63.6231 61.709 63.6653 61.7419 63.7146 61.7587C63.764 61.7756 63.8175 61.7755 63.8668 61.7585C63.916 61.7415 63.9582 61.7085 63.9866 61.6648C64.015 61.6211 64.0279 61.5692 64.0234 61.5172L63.887 60.0395C63.8843 60.0062 63.8884 59.9726 63.8991 59.941C63.9099 59.9093 63.927 59.8803 63.9493 59.8557C63.9717 59.8312 63.9988 59.8116 64.029 59.7983C64.0593 59.785 64.0919 59.7782 64.1248 59.7783H64.4835C64.6135 59.7783 64.6785 59.8433 64.6785 59.9733V62.2697C64.6786 62.3635 64.6528 62.4555 64.6038 62.5355C64.5548 62.6155 64.4845 62.6803 64.4009 62.7228C64.3172 62.7652 64.2234 62.7836 64.13 62.7759C64.0365 62.7682 63.947 62.7347 63.8714 62.6791L62.6783 61.8057C62.447 61.6394 62.3534 61.6966 62.3976 61.9773Z" fill="#1E5482"/>
<path d="M58.4635 63.9229L58.5727 64.1334C58.5922 64.1707 58.6247 64.1994 58.6637 64.2139C58.7027 64.2283 58.7454 64.2275 58.7832 64.2114L59.6137 63.8605C59.6734 63.8365 59.7396 63.8361 59.799 63.8594C59.8585 63.8827 59.9069 63.928 59.9345 63.9861C59.9621 64.0443 59.9669 64.111 59.9479 64.1731C59.9289 64.2351 59.8875 64.2878 59.832 64.3206L58.0035 65.307C57.8761 65.3746 57.802 65.3369 57.7812 65.1939L57.3406 61.9852C57.325 61.863 57.3757 61.7798 57.4927 61.7356L59.0445 61.1508C59.0785 61.1384 59.115 61.1348 59.1508 61.14C59.1866 61.1453 59.2206 61.1594 59.2496 61.1811C59.2786 61.2027 59.3017 61.2313 59.317 61.2641C59.3322 61.2969 59.3391 61.333 59.3369 61.3691C59.3031 61.7772 59.0627 61.9851 58.6156 61.9929C58.5547 61.9928 58.496 62.0161 58.4512 62.058C58.4064 62.0999 58.3788 62.1574 58.3739 62.2191L58.3466 62.5856C58.3439 62.6262 58.3517 62.6668 58.3693 62.7036C58.3868 62.7403 58.4135 62.7719 58.4467 62.7954C58.48 62.8189 58.5187 62.8334 58.5592 62.8376C58.5997 62.8419 58.6406 62.8356 58.678 62.8195L59.216 62.5778C59.2772 62.556 59.3442 62.5574 59.4044 62.5817C59.4646 62.606 59.5138 62.6515 59.5426 62.7097C59.5715 62.7679 59.578 62.8346 59.5609 62.8972C59.5438 62.9599 59.5043 63.0141 59.4499 63.0495L58.5883 63.5174C58.5182 63.5558 58.4658 63.6198 58.4425 63.6957C58.4191 63.7715 58.4267 63.8532 58.4635 63.9229Z" fill="#1E5482"/>
<path d="M36.9221 86.7275C55.9565 96.3266 76.7649 83.1756 79.1783 62.991C79.1887 62.9157 79.0978 62.8767 78.9054 62.8741L80.5429 62.4257C80.6104 62.4075 80.6813 62.4063 80.7493 62.4224C80.8173 62.4384 80.8802 62.4711 80.9325 62.5175C80.9847 62.5639 81.0245 62.6226 81.0484 62.6882C81.0723 62.7539 81.0795 62.8244 81.0693 62.8936C79.7021 72.2405 75.6121 79.6328 68.7995 85.0705C59.5825 92.4316 46.4861 93.7416 35.9903 88.1974C35.8551 88.1246 35.8356 88.0297 35.9318 87.9128L36.9221 86.7275Z" fill="#EC493D"/>
<path d="M53.0793 66.3754L53.2781 67.4476C53.2919 67.5232 53.2825 67.6013 53.2512 67.6716C53.2199 67.7418 53.1681 67.801 53.1027 67.8413L52.5217 68.1961C52.3554 68.3001 52.2605 68.2546 52.2371 68.0597L51.7965 64.2856C51.7783 64.1322 51.8407 64.0269 51.9837 63.9697L52.6387 63.6968C52.7635 63.6448 52.8336 63.6864 52.8492 63.8216L52.9935 64.9952C53.0299 65.2941 53.1118 65.3071 53.2391 65.0341C53.6056 64.2505 53.8669 62.8547 54.8533 62.7572C55.0274 62.7416 55.0807 62.8144 55.0131 62.9755L54.0696 65.1862C54.0228 65.2954 54.0501 65.3811 54.1515 65.4435L55.4615 66.2584C55.6227 66.3572 55.6175 66.4494 55.4459 66.5352L54.8416 66.8432C54.6856 66.9212 54.531 66.916 54.3776 66.8276L53.3327 66.1999C53.3042 66.1838 53.2717 66.1759 53.2389 66.1773C53.2061 66.1786 53.1745 66.1892 53.1479 66.2077C53.1212 66.2261 53.1005 66.2518 53.0884 66.2815C53.0762 66.3112 53.0731 66.3438 53.0793 66.3754Z" fill="#1E5482"/>
<path d="M78.9054 62.874C79.0978 62.8766 79.1887 62.9156 79.1783 62.991C76.7649 83.1756 55.9565 96.3265 36.9221 86.7275L37.6629 85.7644C56.1164 94.3147 75.0026 82.6492 77.9658 63.1742L78.9054 62.874Z" fill="#FBC540"/>
<path d="M77.9657 63.1743C75.0025 82.6493 56.1163 94.3148 37.6628 85.7645C39.9554 83.0483 42.5105 80.5946 45.3281 78.4034C45.4294 78.3228 45.5438 78.2981 45.6712 78.3293C55.3365 80.7076 64.2572 74.9646 67.3802 65.7866C67.4007 65.7285 67.4342 65.6758 67.4781 65.6325C67.522 65.5893 67.5752 65.5566 67.6336 65.537C70.9321 64.4947 74.3761 63.7072 77.9657 63.1743ZM73.1896 67.3227C72.901 66.7847 72.2811 65.5643 71.5208 65.7632C70.7645 65.962 70.5461 66.9017 70.5968 67.5918C70.5982 67.6567 70.6237 67.7187 70.6684 67.7658C70.713 67.813 70.7736 67.8418 70.8384 67.8466C70.9031 67.8515 70.9673 67.8321 71.0185 67.7922C71.0698 67.7523 71.1043 67.6947 71.1153 67.6307L71.2752 66.9289C71.2936 66.8472 71.3358 66.7729 71.3965 66.7153C71.4573 66.6577 71.5339 66.6195 71.6168 66.6053C71.6996 66.5912 71.785 66.6018 71.8623 66.6357C71.9395 66.6697 72.0052 66.7256 72.0511 66.7964L73.1818 68.5704C73.2175 68.627 73.2686 68.6723 73.3292 68.7008C73.3898 68.7293 73.4573 68.7399 73.5237 68.7313C73.5901 68.7227 73.6527 68.6952 73.704 68.6522C73.7554 68.6092 73.7933 68.5524 73.8134 68.4885L74.3436 66.812C74.3581 66.7546 74.351 66.6939 74.3237 66.6414C74.2965 66.5889 74.2509 66.5483 74.1956 66.5271C74.1404 66.506 74.0793 66.5059 74.0239 66.5267C73.9686 66.5476 73.9228 66.5881 73.8953 66.6404L73.5872 67.311C73.5699 67.3486 73.5425 67.3805 73.508 67.4033C73.4735 67.4261 73.4333 67.4388 73.392 67.44C73.3507 67.4412 73.3099 67.4309 73.2741 67.4102C73.2383 67.3895 73.2091 67.3592 73.1896 67.3227ZM71.6378 70.8512C71.9809 71.2281 71.9718 71.6037 71.6105 71.978C71.5636 72.0273 71.5343 72.0908 71.5272 72.1585C71.5202 72.2262 71.5357 72.2944 71.5715 72.3523C71.7041 72.5732 71.8509 72.6174 72.0121 72.4849C73.5989 71.2099 71.5988 68.7341 70.6358 70.6485C70.6193 70.6807 70.5966 70.7092 70.569 70.7326C70.5414 70.7559 70.5095 70.7735 70.475 70.7844C70.4406 70.7953 70.4043 70.7992 70.3683 70.7959C70.3323 70.7927 70.2973 70.7823 70.2654 70.7655L70.0159 70.629C69.9882 70.6147 69.9638 70.5946 69.9444 70.5702C69.9249 70.5458 69.9106 70.5175 69.9026 70.4871C69.8945 70.4568 69.8928 70.4249 69.8975 70.3936C69.9023 70.3624 69.9134 70.3323 69.9301 70.3054L70.32 69.6699C70.3425 69.6337 70.3576 69.5933 70.3643 69.5512C70.371 69.5091 70.3692 69.466 70.3591 69.4246C70.3489 69.3832 70.3305 69.3442 70.3051 69.31C70.2796 69.2758 70.2476 69.247 70.2108 69.2254L70.1094 69.1669C69.9925 69.0967 69.9015 69.1214 69.8365 69.241L69.0801 70.6251C69.0461 70.6873 69.0368 70.76 69.0542 70.8287C69.0715 70.8974 69.1142 70.957 69.1737 70.9955L70.3824 71.7675C70.5149 71.8507 70.6189 71.8247 70.6943 71.6895L71.1348 70.9058C71.1584 70.8626 71.1922 70.8257 71.2332 70.7984C71.2742 70.7711 71.3213 70.754 71.3706 70.7486C71.4198 70.7433 71.4698 70.7498 71.5163 70.7677C71.5628 70.7855 71.6045 70.8142 71.6378 70.8512ZM69.4544 74.524L69.6767 75.4987C69.6831 75.5279 69.6957 75.5553 69.7137 75.579C69.7317 75.6028 69.7547 75.6224 69.781 75.6365C69.8073 75.6506 69.8363 75.6588 69.8661 75.6606C69.8959 75.6624 69.9257 75.6577 69.9535 75.6469C70.2498 75.5338 70.359 75.2297 70.281 74.9139C70.1042 74.2017 69.7598 73.5818 69.2478 73.0541C68.4992 72.2821 67.5752 72.7188 67.2749 73.5922C66.9045 74.676 68.5148 75.8184 69.2049 74.4889C69.3167 74.2732 69.3998 74.2849 69.4544 74.524ZM65.6374 76.9881L67.1151 78.5399C67.1321 78.5581 67.1531 78.5724 67.1767 78.5819C67.2002 78.5913 67.2258 78.5956 67.2515 78.5944L67.5089 78.5788C67.5691 78.5763 67.6274 78.5566 67.6768 78.522C67.7262 78.4874 67.7647 78.4393 67.7876 78.3836C67.8106 78.3278 67.8171 78.2666 67.8064 78.2072C67.7957 78.1479 67.7682 78.0928 67.7272 78.0486L65.7661 75.912C65.7287 75.8719 65.6833 75.8401 65.6328 75.8187C65.5823 75.7974 65.5278 75.7869 65.473 75.788C65.4182 75.7891 65.3642 75.8018 65.3146 75.8251C65.265 75.8485 65.2209 75.8821 65.1851 75.9237C64.9018 76.2564 64.842 76.6086 65.0058 76.9803C65.0318 77.0401 65.0773 77.0596 65.1422 77.0388C65.1942 77.0232 65.2449 76.9972 65.2943 76.9608C65.4191 76.8672 65.5334 76.8763 65.6374 76.9881ZM60.8652 80.9338C60.7849 80.9748 60.6921 80.9838 60.6055 80.9589C60.5189 80.9339 60.445 80.877 60.3988 80.7996C60.3527 80.7222 60.3377 80.6301 60.357 80.5421C60.3763 80.454 60.4283 80.3766 60.5026 80.3255L61.5942 79.5887C61.6478 79.5514 61.6856 79.4955 61.7 79.4319C61.7144 79.3683 61.7046 79.3016 61.6723 79.2449C61.64 79.1882 61.5877 79.1456 61.5257 79.1255C61.4636 79.1055 61.3963 79.1093 61.3369 79.1364C60.7443 79.4093 60.1764 79.7238 59.6331 80.0799C59.5083 80.1605 59.4824 80.2671 59.5551 80.3996L60.9587 83.0041C60.9902 83.0626 61.0434 83.1064 61.1068 83.1261C61.1702 83.1458 61.2389 83.1398 61.2979 83.1094C61.8802 82.8026 62.4273 82.4452 62.9394 82.0372C62.9952 81.9979 63.0331 81.938 63.0448 81.8707C63.0565 81.8035 63.041 81.7343 63.0018 81.6785C62.9625 81.6226 62.9026 81.5847 62.8353 81.573C62.7681 81.5613 62.6989 81.5768 62.6431 81.6161L61.6137 82.2477C61.4604 82.3439 61.3577 82.3049 61.3057 82.1307L61.1615 81.6629C61.151 81.6283 61.1477 81.5919 61.152 81.556C61.1562 81.5201 61.1679 81.4855 61.1862 81.4544C61.2046 81.4232 61.2291 81.3962 61.2584 81.3751C61.2877 81.3539 61.3211 81.3391 61.3564 81.3315C61.7541 81.2509 62.0179 81.0377 62.1479 80.692C62.1631 80.6514 62.1656 80.6071 62.1551 80.565C62.1446 80.5229 62.1215 80.485 62.089 80.4562C62.0564 80.4275 62.016 80.4093 61.9729 80.4041C61.9298 80.3988 61.8861 80.4068 61.8477 80.4269L60.8652 80.9338ZM58.9196 83.4135C57.2314 85.1368 55.7225 81.5069 58.3036 81.4757C58.5609 81.4731 58.6038 81.377 58.4322 81.1872L58.2139 80.9455C58.1307 80.8519 58.0281 80.8155 57.9059 80.8363C54.6893 81.3977 56.2957 85.7918 59.0093 84.1387C59.0737 84.0993 59.1269 84.0442 59.1637 83.9786C59.2006 83.9131 59.2199 83.8393 59.2198 83.7644V83.5382C59.2201 83.5033 59.21 83.4691 59.1907 83.44C59.1714 83.4109 59.1439 83.3882 59.1117 83.3748C59.0795 83.3614 59.044 83.3579 59.0098 83.3648C58.9755 83.3717 58.9441 83.3886 58.9196 83.4135ZM52.5215 83.6435L53.8316 85.3629C53.9002 85.4529 53.9963 85.5181 54.1052 85.5488C54.2141 85.5795 54.3301 85.5739 54.4356 85.5331C54.5411 85.4922 54.6305 85.4181 54.6903 85.322C54.7502 85.226 54.7772 85.1131 54.7673 85.0003L54.5178 82.2672C54.5048 82.1138 54.4242 82.0229 54.276 81.9943C54.1643 81.9735 54.072 81.9865 53.9992 82.0333C53.9004 82.0982 53.851 82.223 53.851 82.4076C53.8484 82.9768 53.916 83.5161 54.0538 84.0256C54.0658 84.0632 54.0638 84.1039 54.0481 84.1402C54.0325 84.1765 54.0043 84.2059 53.9686 84.223C53.933 84.2401 53.8924 84.2437 53.8543 84.2332C53.8162 84.2228 53.7832 84.1989 53.7614 84.166L52.4981 82.4504C52.4258 82.35 52.3221 82.2764 52.2034 82.2414C52.0846 82.2063 51.9576 82.2118 51.8423 82.2569C51.7271 82.302 51.6301 82.3843 51.5667 82.4906C51.5033 82.5969 51.4771 82.7214 51.4922 82.8442L51.7963 85.6007C51.8093 85.7099 51.8704 85.7762 51.9796 85.7996C52.1407 85.8308 52.2681 85.7944 52.3617 85.6904C52.4448 85.5995 52.4721 85.4526 52.4435 85.2499C52.3682 84.7482 52.3188 84.24 52.2954 83.7254C52.2933 83.6982 52.3001 83.671 52.3149 83.6481C52.3297 83.6251 52.3516 83.6077 52.3773 83.5984C52.403 83.5891 52.431 83.5885 52.457 83.5966C52.4831 83.6048 52.5057 83.6213 52.5215 83.6435ZM46.178 85.0393L45.445 84.7352C45.4019 84.7176 45.3538 84.7171 45.3108 84.7338C45.2679 84.7506 45.2335 84.7832 45.215 84.8249C45.098 85.0822 45.1513 85.2693 45.3749 85.3863C46.2534 85.8464 46.8928 85.6605 47.2931 84.8288C47.3206 84.7729 47.3332 84.711 47.3298 84.6488C47.3264 84.5867 47.307 84.5265 47.2736 84.474L46.4159 83.1327C46.3941 83.0979 46.3822 83.0578 46.3816 83.0167C46.3809 82.9757 46.3914 82.9353 46.412 82.9002C46.4327 82.865 46.4625 82.8364 46.4983 82.8176C46.5341 82.7988 46.5744 82.7905 46.6147 82.7935L47.4062 82.852C47.5335 82.8624 47.6011 82.8039 47.6089 82.6766C47.6271 82.3829 47.4582 82.197 47.1021 82.119C46.3145 81.9475 45.8167 82.2087 45.6088 82.9027C45.588 82.9697 45.5825 83.0408 45.5926 83.1109C45.6027 83.181 45.6282 83.2484 45.6673 83.3082L46.5328 84.6065C46.5677 84.6587 46.5849 84.7206 46.5818 84.7833C46.5788 84.846 46.5557 84.906 46.5159 84.9545C46.4761 85.003 46.4218 85.0374 46.361 85.0527C46.3001 85.068 46.236 85.0633 46.178 85.0393ZM49.9266 82.6099C49.9284 82.5603 49.9104 82.512 49.8767 82.4756C49.8429 82.4393 49.796 82.4178 49.7464 82.416L49.349 82.4014C49.2994 82.3996 49.2511 82.4176 49.2148 82.4514C49.1784 82.4852 49.157 82.532 49.1551 82.5816L49.042 85.6675C49.0402 85.717 49.0581 85.7653 49.0919 85.8017C49.1257 85.838 49.1725 85.8595 49.2221 85.8613L49.6196 85.8759C49.6692 85.8777 49.7175 85.8597 49.7538 85.826C49.7902 85.7922 49.8116 85.7453 49.8134 85.6957L49.9266 82.6099Z" fill="#EC493D"/>
<path d="M48.5253 69.5178C49.1959 69.393 49.6105 68.9798 49.769 68.278C49.7738 68.2554 49.7859 68.235 49.8034 68.22C49.8209 68.2049 49.8429 68.1961 49.8659 68.1947C49.889 68.1934 49.9118 68.1997 49.9309 68.2126C49.95 68.2255 49.9644 68.2444 49.9718 68.2663C50.8022 70.8551 46.338 71.7129 46.6889 68.5587C46.8682 66.9627 47.6558 65.8347 49.0516 65.1744C49.1946 65.1069 49.2895 65.1485 49.3362 65.2992L49.578 66.118C49.586 66.1434 49.5874 66.1703 49.5821 66.1964C49.5767 66.2225 49.5648 66.247 49.5474 66.2675C49.53 66.288 49.5076 66.304 49.4823 66.3139C49.457 66.3239 49.4296 66.3276 49.4025 66.3246C47.9482 66.1531 47.4687 67.892 47.6519 68.9174C47.6692 69.0144 47.7057 69.1071 47.7591 69.19C47.8125 69.2728 47.8819 69.3442 47.9631 69.4001C48.0444 69.456 48.1359 69.4951 48.2324 69.5153C48.3289 69.5355 48.4284 69.5364 48.5253 69.5178Z" fill="#1E5482"/>
<path d="M73.1896 67.3227C73.2091 67.3591 73.2383 67.3894 73.2741 67.4101C73.3099 67.4308 73.3507 67.4412 73.392 67.4399C73.4333 67.4387 73.4735 67.426 73.508 67.4032C73.5425 67.3805 73.5699 67.3485 73.5873 67.311L73.8953 66.6404C73.9228 66.588 73.9686 66.5476 74.0239 66.5267C74.0793 66.5058 74.1404 66.5059 74.1956 66.5271C74.2509 66.5482 74.2965 66.5889 74.3237 66.6414C74.351 66.6939 74.3581 66.7546 74.3436 66.8119L73.8134 68.4885C73.7933 68.5523 73.7554 68.6092 73.704 68.6522C73.6527 68.6952 73.5902 68.7226 73.5237 68.7312C73.4573 68.7398 73.3898 68.7293 73.3292 68.7008C73.2686 68.6722 73.2175 68.627 73.1818 68.5703L72.0511 66.7963C72.0052 66.7256 71.9396 66.6697 71.8623 66.6357C71.785 66.6017 71.6996 66.5911 71.6168 66.6053C71.5339 66.6194 71.4573 66.6577 71.3965 66.7153C71.3358 66.7728 71.2936 66.8472 71.2752 66.9289L71.1153 67.6307C71.1043 67.6947 71.0698 67.7522 71.0185 67.7921C70.9673 67.832 70.9031 67.8514 70.8384 67.8466C70.7736 67.8417 70.713 67.8129 70.6684 67.7658C70.6237 67.7187 70.5982 67.6566 70.5968 67.5917C70.5461 66.9016 70.7645 65.962 71.5208 65.7631C72.2811 65.5643 72.901 66.7846 73.1896 67.3227Z" fill="#FBC540"/>
<path d="M47.7298 76.6605L56.206 76.6137C56.2448 76.6134 56.2825 76.6005 56.3133 76.5769C56.3442 76.5534 56.3665 76.5205 56.3771 76.4831C56.3876 76.4458 56.3858 76.406 56.3718 76.3698C56.3578 76.3336 56.3325 76.3029 56.2996 76.2823C56.1956 76.2199 55.9994 76.194 55.7109 76.2043C53.2987 76.2875 50.8424 76.3278 48.3419 76.3252L49.4726 75.3544C49.548 75.3544 49.6143 75.3765 49.6715 75.4207C49.7572 75.483 49.8534 75.5116 49.96 75.5064C52.7152 75.3921 55.4678 75.3648 58.2178 75.4246C58.4336 75.4298 58.6233 75.3596 58.7871 75.214C58.9404 75.0737 58.9131 75.0022 58.7052 74.9996C56.0695 74.9658 53.4482 74.9645 50.8411 74.9957C50.6488 74.9983 50.5422 74.8904 50.5214 74.6721L51.2973 74.2042C54.0915 74.225 56.8623 74.2315 59.6097 74.2237C59.9944 74.2237 60.3141 74.1314 60.5689 73.9469C60.6123 73.9158 60.6446 73.8716 60.661 73.8207C60.6774 73.7699 60.6771 73.7152 60.6601 73.6645C60.643 73.6139 60.6102 73.5701 60.5664 73.5395C60.5226 73.5089 60.4702 73.4932 60.4168 73.4946C58.7949 73.5492 53.7224 74.0522 52.4709 73.3737C52.8218 73.067 53.1857 72.8864 53.5626 72.8318C56.258 72.8448 58.9482 72.8435 61.6333 72.8279C61.7009 72.8279 61.7606 72.8149 61.8126 72.7889C61.8984 72.7473 61.9504 72.7122 61.9686 72.6836C61.9904 72.6492 62.0025 72.6094 62.0035 72.5686C62.0046 72.5279 61.9946 72.4876 61.9746 72.452C61.9546 72.4164 61.9254 72.3869 61.89 72.3666C61.8546 72.3463 61.8144 72.336 61.7736 72.3366L54.1084 72.399C54.5867 71.9494 55.0467 71.6894 55.4886 71.6192C57.8825 71.6998 60.2583 71.7024 62.6158 71.627C62.799 71.6231 62.9979 71.5062 63.0837 71.3541C63.0976 71.33 63.1048 71.3026 63.1046 71.2748C63.1044 71.247 63.0967 71.2197 63.0824 71.1958C63.0681 71.1719 63.0476 71.1523 63.0231 71.139C62.9987 71.1257 62.9711 71.1192 62.9433 71.1202L56.5842 71.2722C56.4854 71.2748 56.3958 71.2476 56.3152 71.1904L56.1943 71.1085L57.5511 70.395C59.4408 70.3222 61.3214 70.3079 63.1928 70.3521C63.4969 70.3599 63.7491 70.3157 63.9492 70.2195C63.9846 70.2016 64.0131 70.1724 64.0302 70.1365C64.0472 70.1006 64.0519 70.0601 64.0434 70.0213C64.0349 69.9825 64.0138 69.9476 63.9833 69.9221C63.9529 69.8966 63.9148 69.8819 63.8751 69.8803L58.557 69.8608C58.9105 69.5047 59.2913 69.263 59.6994 69.1357C61.2382 69.2708 62.7769 69.3007 64.3157 69.2253C64.5912 69.2123 64.7498 69.0837 64.7914 68.8393C64.797 68.8058 64.7955 68.7714 64.7867 68.7386C64.778 68.7058 64.7623 68.6753 64.7408 68.6493C64.7192 68.6233 64.6924 68.6025 64.6621 68.5881C64.6317 68.5738 64.5987 68.5664 64.5652 68.5664C63.6841 68.5547 61.5631 68.8978 60.8535 68.5235L62.3 67.8646C63.2851 68.0076 64.2468 68.0037 65.1852 67.8529C65.3515 67.8269 65.4438 67.797 65.462 67.7632C65.4967 67.6998 65.5113 67.6274 65.5038 67.5555C65.4962 67.4837 65.467 67.4157 65.4198 67.3605C65.3726 67.3053 65.3097 67.2655 65.2393 67.2462C65.1689 67.2269 65.0943 67.2291 65.0253 67.2525C64.5262 67.424 64.1325 67.363 63.8439 67.0692L66.4601 65.9464C66.4938 65.9317 66.5311 65.9274 66.5673 65.9338C66.6035 65.9402 66.6371 65.9572 66.6637 65.9826C66.6903 66.008 66.7089 66.0406 66.717 66.0765C66.7252 66.1123 66.7226 66.1498 66.7096 66.1842C63.571 74.598 55.5237 79.6822 46.3964 77.9355C46.2586 77.9095 46.2339 77.8406 46.3223 77.7288C46.6784 77.2713 47.1476 76.9152 47.7298 76.6605Z" fill="#FBC540"/>
<path d="M63.844 67.0693C64.1325 67.3631 64.5263 67.4241 65.0254 67.2526C65.0944 67.2292 65.169 67.227 65.2394 67.2463C65.3098 67.2656 65.3727 67.3054 65.4199 67.3606C65.467 67.4158 65.4963 67.4838 65.5038 67.5556C65.5114 67.6275 65.4968 67.6999 65.4621 67.7633C65.4439 67.7971 65.3516 67.827 65.1852 67.853C64.2469 68.0038 63.2852 68.0077 62.3 67.8647L63.844 67.0693Z" fill="#EC493D"/>
<path d="M44.7003 72.8826L43.827 73.5649C43.8039 73.5827 43.7767 73.5943 43.7479 73.5987C43.7191 73.6031 43.6897 73.6001 43.6624 73.5899C43.6351 73.5798 43.6108 73.5628 43.5919 73.5407C43.5729 73.5186 43.5599 73.492 43.5541 73.4635L42.5131 68.6328C42.5062 68.5985 42.5101 68.563 42.524 68.5309C42.5379 68.4988 42.5613 68.4718 42.591 68.4534L43.5229 67.853C43.5463 67.8378 43.573 67.8286 43.6008 67.8261C43.6286 67.8236 43.6565 67.828 43.6823 67.8387C43.708 67.8495 43.7307 67.8663 43.7485 67.8878C43.7662 67.9093 43.7784 67.9349 43.7841 67.9622L44.7627 72.711C44.7695 72.7426 44.7673 72.7754 44.7562 72.8058C44.7452 72.8361 44.7258 72.8627 44.7003 72.8826Z" fill="#1E5482"/>
<path d="M60.8535 68.5237C61.5631 68.898 63.6841 68.5549 64.5653 68.5666C64.5988 68.5666 64.6318 68.574 64.6621 68.5883C64.6924 68.6026 64.7193 68.6235 64.7408 68.6495C64.7623 68.6755 64.778 68.7059 64.7868 68.7387C64.7955 68.7716 64.7971 68.8059 64.7914 68.8395C64.7498 69.0838 64.5913 69.2125 64.3158 69.2255C62.777 69.3009 61.2382 69.271 59.6995 69.1358C60.0452 68.8499 60.4299 68.6458 60.8535 68.5237Z" fill="#EC493D"/>
<path d="M71.1349 70.9058L70.6943 71.6894C70.6189 71.8246 70.5149 71.8506 70.3824 71.7674L69.1737 70.9954C69.1143 70.9569 69.0716 70.8973 69.0542 70.8286C69.0369 70.7599 69.0461 70.6872 69.0801 70.6251L69.8365 69.2409C69.9015 69.1214 69.9925 69.0967 70.1094 69.1669L70.2108 69.2253C70.2476 69.247 70.2796 69.2758 70.3051 69.31C70.3305 69.3442 70.3489 69.3832 70.3591 69.4246C70.3692 69.466 70.371 69.509 70.3643 69.5512C70.3576 69.5933 70.3425 69.6336 70.32 69.6698L69.9301 70.3053C69.9134 70.3323 69.9023 70.3623 69.8976 70.3936C69.8928 70.4249 69.8945 70.4567 69.9026 70.4871C69.9107 70.5175 69.9249 70.5458 69.9444 70.5702C69.9639 70.5946 69.9882 70.6146 70.0159 70.629L70.2654 70.7654C70.2974 70.7823 70.3323 70.7926 70.3683 70.7959C70.4043 70.7991 70.4406 70.7952 70.475 70.7843C70.5095 70.7735 70.5415 70.7558 70.5691 70.7325C70.5966 70.7092 70.6193 70.6806 70.6358 70.6484C71.5988 68.7341 73.599 71.2099 72.0121 72.4848C71.851 72.6174 71.7041 72.5732 71.5715 72.3523C71.5357 72.2943 71.5202 72.2262 71.5272 72.1585C71.5343 72.0907 71.5636 72.0273 71.6105 71.978C71.9718 71.6037 71.9809 71.2281 71.6378 70.8512C71.6045 70.8141 71.5628 70.7855 71.5163 70.7676C71.4698 70.7498 71.4198 70.7432 71.3706 70.7486C71.3213 70.7539 71.2742 70.771 71.2332 70.7983C71.1922 70.8257 71.1585 70.8625 71.1349 70.9058Z" fill="#FBC540"/>
<path d="M58.5572 69.8611L63.8753 69.8806C63.915 69.8821 63.953 69.8968 63.9835 69.9223C64.0139 69.9478 64.035 69.9827 64.0435 70.0215C64.052 70.0603 64.0474 70.1008 64.0303 70.1367C64.0133 70.1726 63.9848 70.2018 63.9494 70.2198C63.7492 70.3159 63.4971 70.3601 63.193 70.3523C61.3215 70.3081 59.4409 70.3224 57.5513 70.3952C57.871 69.9897 58.2063 69.8117 58.5572 69.8611Z" fill="#EC493D"/>
<path d="M37.2692 74.4657L38.6961 73.4247C38.8141 73.3398 38.8956 73.2136 38.9245 73.0712C38.9534 72.9288 38.9276 72.7808 38.8521 72.6566C38.2777 71.7105 38.4063 71.0048 39.2381 70.5395C39.4252 70.4356 39.5448 70.4875 39.5968 70.6955L40.7899 75.4326C40.8058 75.4975 40.8022 75.5657 40.7793 75.6288C40.7564 75.692 40.7153 75.7471 40.6612 75.7874L39.8697 76.3606C39.7164 76.4749 39.6202 76.4386 39.5812 76.2514L39.2303 74.5983C39.2244 74.5675 39.2108 74.5387 39.1908 74.5145C39.1709 74.4903 39.1451 74.4716 39.116 74.4599C39.0869 74.4483 39.0554 74.4441 39.0242 74.4479C38.9931 74.4516 38.9634 74.4631 38.9379 74.4813L37.4212 75.5652C37.3042 75.651 37.2588 75.7641 37.2847 75.9044L37.6668 77.924C37.6928 78.0644 37.6486 78.1775 37.5343 78.2632L36.5829 78.9689C36.4452 79.0703 36.3594 79.0378 36.3256 78.8715L35.1793 73.491C35.1534 73.3662 35.191 73.2662 35.2924 73.1908L36.2866 72.4266C36.4218 72.3226 36.5076 72.3538 36.544 72.5202L36.9416 74.341C36.9493 74.3748 36.9653 74.4062 36.988 74.4323C37.0107 74.4585 37.0396 74.4787 37.072 74.491C37.1044 74.5034 37.1394 74.5075 37.1737 74.5031C37.2081 74.4987 37.2409 74.4858 37.2692 74.4657Z" fill="#1E5482"/>
<path d="M56.1942 71.1086L56.3151 71.1905C56.3957 71.2477 56.4853 71.275 56.5841 71.2724L62.9432 71.1203C62.971 71.1194 62.9986 71.1259 63.0231 71.1392C63.0475 71.1525 63.068 71.1721 63.0823 71.196C63.0966 71.2198 63.1043 71.2471 63.1045 71.2749C63.1047 71.3028 63.0975 71.3302 63.0836 71.3543C62.9978 71.5063 62.799 71.6233 62.6157 71.6272C60.2582 71.7026 57.8824 71.7 55.4885 71.6194C55.7303 71.3465 55.9655 71.1762 56.1942 71.1086Z" fill="#EC493D"/>
<path d="M54.1083 72.3991L61.7736 72.3367C61.8144 72.336 61.8546 72.3464 61.89 72.3667C61.9253 72.387 61.9546 72.4165 61.9746 72.452C61.9945 72.4876 62.0045 72.5279 62.0035 72.5687C62.0024 72.6095 61.9903 72.6492 61.9685 72.6837C61.9503 72.7123 61.8983 72.7474 61.8126 72.789C61.7606 72.815 61.7008 72.828 61.6332 72.828C58.9482 72.8436 56.2579 72.8449 53.5625 72.8319C53.7912 72.4992 53.9732 72.3549 54.1083 72.3991Z" fill="#EC493D"/>
<path d="M69.205 74.4889C68.5149 75.8184 66.9047 74.6761 67.2751 73.5922C67.5753 72.7188 68.4993 72.2822 69.2479 73.0541C69.76 73.5818 70.1044 74.2017 70.2811 74.9139C70.3591 75.2297 70.2499 75.5338 69.9536 75.6469C69.9258 75.6577 69.896 75.6624 69.8662 75.6606C69.8364 75.6588 69.8074 75.6506 69.7811 75.6365C69.7548 75.6225 69.7318 75.6029 69.7138 75.5791C69.6958 75.5553 69.6832 75.5279 69.6768 75.4987L69.4545 74.524C69.4 74.2849 69.3168 74.2732 69.205 74.4889ZM68.4291 73.3933C68.3563 73.3529 68.2706 73.3422 68.1894 73.3632C68.1083 73.3842 68.0379 73.4354 67.9925 73.5064C67.8755 73.6936 67.8573 73.9119 67.9379 74.1614C67.9777 74.2893 68.0618 74.3873 68.1733 74.4355C68.2847 74.4837 68.4151 74.4786 68.5383 74.4213C68.6614 74.3639 68.7681 74.2585 68.8369 74.1263C68.9056 73.9942 68.9313 73.8451 68.9087 73.7091C68.9035 73.6702 68.7436 73.5649 68.4291 73.3933Z" fill="#FBC540"/>
<path d="M52.4709 73.374C53.7225 74.0524 58.7949 73.5495 60.4169 73.4949C60.4703 73.4935 60.5227 73.5092 60.5665 73.5398C60.6103 73.5704 60.6431 73.6142 60.6601 73.6648C60.6771 73.7154 60.6775 73.7702 60.661 73.821C60.6446 73.8718 60.6123 73.9161 60.5689 73.9472C60.3142 74.1317 59.9945 74.224 59.6098 74.224C56.8624 74.2318 54.0916 74.2253 51.2974 74.2045L52.4709 73.374Z" fill="#EC493D"/>
<path d="M68.4292 73.3934C68.7437 73.565 68.9036 73.6703 68.9088 73.7093C68.9314 73.8452 68.9057 73.9943 68.837 74.1265C68.7682 74.2586 68.6615 74.364 68.5384 74.4214C68.4152 74.4787 68.2848 74.4838 68.1733 74.4356C68.0619 74.3874 67.9778 74.2894 67.938 74.1615C67.8574 73.912 67.8756 73.6937 67.9926 73.5065C68.038 73.4355 68.1084 73.3843 68.1895 73.3633C68.2707 73.3423 68.3564 73.3531 68.4292 73.3934Z" fill="#EC493D"/>
<path d="M50.5215 74.6721C50.5423 74.8905 50.6488 74.9983 50.8412 74.9957C53.4482 74.9645 56.0696 74.9658 58.7052 74.9996C58.9132 75.0022 58.9405 75.0737 58.7871 75.2141C58.6234 75.3596 58.4336 75.4298 58.2179 75.4246C55.4679 75.3648 52.7152 75.3921 49.96 75.5065C49.8534 75.5117 49.7573 75.4831 49.6715 75.4207C49.6143 75.3765 49.548 75.3544 49.4727 75.3544L50.5215 74.6721Z" fill="#EC493D"/>
<path d="M29.5027 81.1403C29.604 82.6297 31.3507 82.3412 32.0525 81.538C32.3956 81.1429 32.6933 80.701 32.9454 80.2124C33.0624 79.9888 33.1429 80.0005 33.1871 80.2475L33.4951 81.8733C33.5185 82.0007 33.4886 82.115 33.4055 82.2164C32.6101 83.1807 31.6406 83.9137 30.4969 84.4154C30.3981 84.4596 30.2967 84.4713 30.1928 84.4505C28.2771 84.0866 27.4531 82.9429 27.7209 81.0194C28.0562 78.6073 29.4195 76.7969 31.8108 75.5883C31.9304 75.5259 32.0058 75.561 32.0369 75.6936L32.3606 77.0738C32.3969 77.2297 32.3372 77.3233 32.1812 77.3545C30.2526 77.7574 29.3597 79.0193 29.5027 81.1403Z" fill="#1E5482"/>
<path d="M65.2943 76.961C65.2449 76.9974 65.1942 77.0233 65.1422 77.0389C65.0772 77.0597 65.0317 77.0402 65.0057 76.9805C64.842 76.6088 64.9018 76.2566 65.1851 75.9239C65.2208 75.8823 65.2649 75.8487 65.3145 75.8253C65.3641 75.8019 65.4181 75.7893 65.4729 75.7882C65.5278 75.7871 65.5822 75.7975 65.6327 75.8189C65.6832 75.8403 65.7286 75.872 65.766 75.9122L67.7272 78.0488C67.7682 78.093 67.7957 78.148 67.8064 78.2074C67.8171 78.2668 67.8106 78.3279 67.7876 78.3837C67.7646 78.4395 67.7262 78.4875 67.6768 78.5221C67.6274 78.5567 67.5691 78.5765 67.5088 78.579L67.2515 78.5946C67.2257 78.5957 67.2002 78.5914 67.1766 78.582C67.1531 78.5726 67.1321 78.5583 67.115 78.54L65.6374 76.9883C65.5334 76.8765 65.419 76.8674 65.2943 76.961Z" fill="#FBC540"/>
<path d="M48.3421 76.3252C50.8426 76.3278 53.2989 76.2876 55.711 76.2044C55.9995 76.194 56.1958 76.22 56.2997 76.2824C56.3327 76.3029 56.358 76.3336 56.372 76.3698C56.3859 76.406 56.3878 76.4458 56.3773 76.4832C56.3667 76.5205 56.3443 76.5534 56.3135 76.577C56.2826 76.6005 56.245 76.6134 56.2062 76.6138L47.73 76.6605C48.0107 76.346 48.2147 76.2343 48.3421 76.3252Z" fill="#EC493D"/>
<path d="M60.8651 80.9337L61.8477 80.4269C61.8861 80.4067 61.9298 80.3988 61.9729 80.404C62.0159 80.4092 62.0564 80.4274 62.089 80.4562C62.1215 80.4849 62.1445 80.5228 62.1551 80.5649C62.1656 80.607 62.1631 80.6513 62.1479 80.692C62.0179 81.0377 61.7541 81.2508 61.3564 81.3314C61.3211 81.339 61.2877 81.3538 61.2584 81.375C61.2291 81.3962 61.2045 81.4232 61.1862 81.4543C61.1679 81.4855 61.1562 81.5201 61.152 81.556C61.1477 81.5918 61.1509 81.6282 61.1615 81.6628L61.3057 82.1307C61.3577 82.3048 61.4604 82.3438 61.6137 82.2476L62.643 81.616C62.6989 81.5767 62.768 81.5612 62.8353 81.5729C62.9026 81.5846 62.9624 81.6226 63.0017 81.6784C63.041 81.7342 63.0565 81.8034 63.0448 81.8707C63.0331 81.9379 62.9952 81.9978 62.9393 82.0371C62.4273 82.4452 61.8802 82.8026 61.2979 83.1093C61.2389 83.1397 61.1702 83.1457 61.1068 83.126C61.0434 83.1063 60.9902 83.0625 60.9587 83.004L59.5551 80.3996C59.4823 80.267 59.5083 80.1604 59.6331 80.0799C60.1763 79.7238 60.7443 79.4092 61.3369 79.1363C61.3963 79.1093 61.4636 79.1054 61.5257 79.1255C61.5877 79.1456 61.64 79.1881 61.6723 79.2448C61.7045 79.3015 61.7144 79.3682 61.7 79.4319C61.6855 79.4955 61.6478 79.5514 61.5942 79.5886L60.5025 80.3255C60.4283 80.3765 60.3762 80.454 60.357 80.542C60.3377 80.63 60.3527 80.7221 60.3988 80.7995C60.445 80.8769 60.5189 80.9339 60.6055 80.9588C60.6921 80.9837 60.7849 80.9747 60.8651 80.9337Z" fill="#FBC540"/>
<path d="M58.3037 81.4757C55.7226 81.5068 57.2315 85.1367 58.9197 83.4134C58.9443 83.3886 58.9756 83.3716 59.0099 83.3648C59.0441 83.3579 59.0796 83.3613 59.1118 83.3747C59.144 83.3881 59.1716 83.4108 59.1908 83.44C59.2101 83.4691 59.2202 83.5033 59.2199 83.5382V83.7643C59.22 83.8392 59.2007 83.913 59.1638 83.9785C59.127 84.0441 59.0738 84.0992 59.0094 84.1386C56.2958 85.7917 54.6894 81.3977 57.906 80.8362C58.0282 80.8154 58.1308 80.8518 58.214 80.9454L58.4323 81.1871C58.6039 81.3769 58.561 81.4731 58.3037 81.4757Z" fill="#FBC540"/>
<path d="M52.2954 83.7253C52.3188 84.24 52.3682 84.7481 52.4435 85.2498C52.4721 85.4525 52.4448 85.5994 52.3617 85.6904C52.2681 85.7943 52.1407 85.8307 51.9796 85.7995C51.8704 85.7761 51.8093 85.7099 51.7963 85.6007L51.4922 82.8442C51.4771 82.7213 51.5033 82.5969 51.5667 82.4905C51.6301 82.3842 51.7271 82.302 51.8423 82.2569C51.9576 82.2117 52.0846 82.2063 52.2034 82.2413C52.3221 82.2763 52.4258 82.3499 52.4981 82.4504L53.7614 84.1659C53.7832 84.1988 53.8162 84.2227 53.8543 84.2332C53.8924 84.2437 53.933 84.24 53.9686 84.2229C54.0043 84.2058 54.0325 84.1764 54.0481 84.1402C54.0638 84.1039 54.0658 84.0632 54.0538 84.0255C53.916 83.5161 53.8484 82.9767 53.851 82.4075C53.851 82.223 53.9004 82.0982 53.9992 82.0332C54.072 81.9864 54.1643 81.9734 54.276 81.9942C54.4242 82.0228 54.5048 82.1138 54.5178 82.2671L54.7673 85.0003C54.7772 85.113 54.7502 85.2259 54.6903 85.322C54.6305 85.418 54.5411 85.4921 54.4356 85.533C54.3301 85.5739 54.2141 85.5794 54.1052 85.5487C53.9963 85.518 53.9002 85.4528 53.8316 85.3629L52.5215 83.6435C52.5057 83.6212 52.4831 83.6047 52.457 83.5966C52.431 83.5884 52.403 83.5891 52.3773 83.5983C52.3516 83.6076 52.3297 83.6251 52.3149 83.648C52.3001 83.671 52.2933 83.6981 52.2954 83.7253Z" fill="#FBC540"/>
<path d="M46.5329 84.6066L45.6673 83.3083C45.6283 83.2484 45.6028 83.1811 45.5927 83.111C45.5826 83.0409 45.5881 82.9698 45.6088 82.9028C45.8168 82.2088 46.3145 81.9476 47.1021 82.1191C47.4582 82.1971 47.6272 82.3829 47.609 82.6767C47.6012 82.804 47.5336 82.8625 47.4062 82.8521L46.6148 82.7936C46.5744 82.7905 46.5341 82.7989 46.4983 82.8177C46.4626 82.8365 46.4327 82.8651 46.4121 82.9002C46.3915 82.9354 46.3809 82.9757 46.3816 83.0168C46.3823 83.0579 46.3942 83.098 46.4159 83.1328L47.2737 84.474C47.3071 84.5265 47.3264 84.5868 47.3299 84.6489C47.3333 84.711 47.3206 84.773 47.2932 84.8288C46.8929 85.6606 46.2535 85.8465 45.3749 85.3864C45.1514 85.2694 45.0981 85.0823 45.2151 84.825C45.2336 84.7833 45.268 84.7507 45.3109 84.7339C45.3538 84.7172 45.402 84.7177 45.4451 84.7353L46.1781 85.0394C46.236 85.0633 46.3002 85.068 46.361 85.0528C46.4219 85.0375 46.4762 85.0031 46.5159 84.9545C46.5557 84.906 46.5788 84.846 46.5819 84.7834C46.5849 84.7207 46.5677 84.6587 46.5329 84.6066Z" fill="#FBC540"/>
<path d="M49.7466 82.416L49.3491 82.4014C49.2458 82.3976 49.159 82.4783 49.1553 82.5816L49.0421 85.6674C49.0383 85.7707 49.119 85.8575 49.2223 85.8613L49.6197 85.8759C49.723 85.8796 49.8098 85.799 49.8136 85.6957L49.9267 82.6098C49.9305 82.5066 49.8498 82.4197 49.7466 82.416Z" fill="#FBC540"/>
</svg>
