<svg width="100" height="100" viewBox="0 0 100 100" fill="none" xmlns="http://www.w3.org/2000/svg">
<rect width="100" height="100" fill="white"/>
<path d="M25.9657 27.5445C29.2034 26.5251 29.1614 26.359 25.8397 27.0462C21.8881 27.8652 16.5906 30.1903 13.6469 33.4547C13.6083 33.4966 13.5574 33.5255 13.5015 33.5372C13.4455 33.5489 13.3875 33.5428 13.3359 33.5198C13.2842 33.4969 13.2415 33.4582 13.214 33.4094C13.1865 33.3607 13.1757 33.3043 13.183 33.2486C13.7729 28.0313 16.6937 26.4678 21.4471 23.7016C28.8121 19.4178 36.1999 15.1703 43.6107 10.959C51.0844 6.7153 54.7898 10.1515 61.1124 13.8454C61.183 13.8858 61.2421 13.9434 61.2844 14.0129C61.3266 14.0823 61.3505 14.1614 61.354 14.2426C61.3574 14.3238 61.3402 14.4045 61.304 14.4773C61.2678 14.5501 61.2137 14.6125 61.1468 14.6587C54.2057 19.4636 44.7332 22.3844 36.492 23.8505C36.4538 23.8582 36.4404 23.8811 36.4519 23.9193C36.471 23.9651 36.4882 24.0128 36.5034 24.0624C36.5149 24.1006 36.5416 24.1197 36.5836 24.1197C44.4411 23.8906 54.7612 22.2699 61.2098 18.198C62.9546 17.0984 64.2623 16.2966 65.1328 15.7926C65.2162 15.7424 65.3119 15.7159 65.4097 15.7159C65.5076 15.7159 65.6038 15.7424 65.6883 15.7926L74.7771 21.0787C74.8811 21.1394 74.9684 21.2254 75.0307 21.3285C75.0929 21.4316 75.1283 21.5485 75.1334 21.6685C75.1386 21.7884 75.1133 21.9075 75.0601 22.0146C75.0068 22.1218 74.9272 22.2135 74.8286 22.2813C74.0001 22.854 73.0342 23.3924 71.9308 23.8964C61.9257 28.4665 52.5792 29.4 41.6921 29.2339C41.6654 29.2339 41.6463 29.2492 41.6348 29.2797C41.6158 29.337 41.6119 29.3867 41.6234 29.4287C41.6349 29.4668 41.6673 29.4859 41.7208 29.4859C43.3167 29.5623 44.9069 29.6883 46.4914 29.8639C58.1248 31.1468 69.1608 29.4 79.5993 24.6237C79.8074 24.5264 80.0361 24.4813 80.2656 24.4923C80.4951 24.5033 80.7185 24.57 80.9165 24.6867C84.5665 26.8362 86.296 30.0701 86.1051 34.3883C86.0982 34.5197 86.0429 34.6439 85.9499 34.737C85.8568 34.83 85.7326 34.8853 85.6012 34.8922C73.5687 35.4248 61.7195 34.9209 49.7214 33.6151C38.6511 32.4067 23.9326 30.6027 13.3033 37.4637C13.265 37.4866 13.2201 37.496 13.1758 37.4905C13.1315 37.485 13.0903 37.4649 13.0587 37.4333C13.0271 37.4018 13.007 37.3606 13.0015 37.3163C12.996 37.272 13.0055 37.2271 13.0284 37.1888C15.9091 32.6587 21.5273 28.9419 25.9657 27.5445Z" fill="#01A992"/>
<path d="M47.1785 44.4966C45.9186 50.2236 62.1031 45.6134 58.2603 57.4912C56.7369 62.2046 42.0872 62.5253 42.3735 53.7859C42.3812 53.5568 42.4995 53.4422 42.7286 53.4422H46.1992C46.4626 53.4422 46.5924 53.574 46.5886 53.8374C46.5027 57.6688 51.6456 57.3767 53.8447 56.1454C54.0089 56.0538 54.1273 55.9201 54.1998 55.7445C56.6853 49.8285 42.0585 54.2383 42.7057 45.1495C43.2669 37.252 58.1056 37.5841 58.0484 45.7394C58.0484 45.8883 57.9739 45.9647 57.825 45.9685L54.1826 46.0658C54.0996 46.0686 54.0185 46.0417 53.9542 45.9901C53.89 45.9386 53.847 45.8657 53.8333 45.7852L53.6557 44.8632C53.6334 44.7372 53.5688 44.6222 53.4725 44.5367C51.6437 42.9141 49.6717 42.727 47.5565 43.9755C47.4609 44.0315 47.3779 44.1067 47.3129 44.1964C47.2478 44.2861 47.2021 44.3884 47.1785 44.4966Z" fill="#00666E"/>
<path d="M30.3527 56.7466C32.9337 57.0406 34.6842 56.0346 35.6044 53.7285C35.6386 53.6438 35.6967 53.5712 35.7712 53.5202C35.8457 53.4692 35.9332 53.442 36.0224 53.4422H39.745C39.8046 53.4424 39.8633 53.4565 39.9164 53.4833C39.9696 53.5102 40.0158 53.549 40.0514 53.5968C40.0869 53.6446 40.1109 53.7 40.1213 53.7586C40.1318 53.8173 40.1284 53.8776 40.1115 53.9347C37.1907 63.6363 23.6864 62.0957 21.1322 53.0413C19.4943 47.2226 23.0679 40.6824 29.5853 39.8233C33.2849 39.3308 39.4014 41.2608 39.7507 45.6878C39.7698 45.9207 39.6629 46.0371 39.43 46.0371L35.57 46.0486C35.3982 46.0486 35.2741 45.9722 35.1977 45.8195C34.4685 44.3725 33.2964 43.5841 31.6814 43.4542C23.7666 42.8185 23.2168 55.9277 30.3527 56.7466Z" fill="#00666E"/>
<path d="M73.8206 52.4628L78.2591 59.9022C78.3545 60.0588 78.3087 60.1389 78.1216 60.1427L73.7462 60.2344C73.6751 60.2364 73.6047 60.2194 73.5423 60.1852C73.4799 60.1509 73.4277 60.1007 73.3911 60.0397C72.051 57.9436 70.7968 55.8093 69.6285 53.6369C69.1474 52.7396 68.3132 52.3445 67.1258 52.4514C66.889 52.4743 66.765 52.3674 66.7535 52.1307L66.6447 49.3473C66.6409 49.2677 66.6532 49.1881 66.681 49.1133C66.7088 49.0385 66.7514 48.9699 66.8064 48.9117C66.8614 48.8535 66.9277 48.8068 67.0012 48.7744C67.0748 48.742 67.1541 48.7246 67.2346 48.7231C68.569 48.7059 71.2206 49.061 72.2858 48.1046C73.477 47.0279 73.2938 45.0578 71.9307 44.2846C70.5448 43.5 67.2288 43.8437 65.5337 43.8551C65.4562 43.8551 65.3819 43.8859 65.3271 43.9407C65.2723 43.9954 65.2416 44.0697 65.2416 44.1472V59.8449C65.2416 60.1046 65.1118 60.2382 64.8521 60.2458L61.6107 60.3432C61.3587 60.3508 61.2327 60.2287 61.2327 59.9767V40.5564C61.2327 40.3158 61.3529 40.1898 61.5935 40.1784C65.2301 40.0066 71.9651 39.4969 74.9947 41.4784C78.7287 43.9296 78.1732 49.8799 73.9466 52.0104C73.7443 52.1135 73.7023 52.2643 73.8206 52.4628Z" fill="#00666E"/>
<path d="M85.4866 64.7473C85.5342 64.7346 85.584 64.7323 85.6325 64.7406C85.6811 64.7489 85.7273 64.7675 85.7681 64.7952C85.8088 64.8229 85.8431 64.859 85.8686 64.9012C85.8942 64.9433 85.9104 64.9904 85.9161 65.0393C86.3972 68.9051 84.5989 70.8981 81.3001 72.9312C73.3892 77.8029 64.3653 83.0527 54.2285 88.6805C49.7729 91.1603 47.064 90.1351 42.6313 87.5866C34.6669 83.0012 26.7255 78.3909 18.8069 73.7559C15.1874 71.6369 13.4235 69.6954 13.0742 65.6407C13.0284 65.1481 13.2536 64.8885 13.75 64.8618C24.4862 64.3311 35.2129 64.795 45.9301 66.2535C52.1954 67.1049 55.9829 67.5707 57.2925 67.6509C66.8146 68.235 76.2126 67.2671 85.4866 64.7473Z" fill="#F9A61A"/>
</svg>
