<svg width="100" height="100" viewBox="0 0 100 100" fill="none" xmlns="http://www.w3.org/2000/svg">
<rect width="100" height="100" fill="white"/>
<path d="M68.916 70.4113C93.9085 59.5613 87.2326 24.5355 62.9401 17.6781C58.092 16.3041 51.3383 18.3392 46.0235 18.43C45.3062 18.4473 45.1982 18.201 45.6994 17.6911C48.0846 15.2929 60.3345 15.9281 63.4586 16.68C91.2122 23.4207 97.0326 56.9169 72.6104 72.4724C72.2647 72.6971 71.9061 72.723 71.5345 72.5501L68.916 71.3835C68.1901 71.0551 68.1901 70.731 68.916 70.4113Z" fill="#0078BE"/>
<path d="M79.0399 35.0615C85.0547 49.1133 78.0288 60.5725 66.3622 68.3243C64.1844 69.7762 62.8492 69.5688 60.7751 68.2336C60.3344 67.9484 60.3517 67.6935 60.827 67.4688C84.4584 56.2688 82.7343 26.7393 58.2603 19.1042C57.7591 18.9486 57.7202 18.7196 58.1437 18.4171C58.4116 18.2184 58.7227 18.1708 59.077 18.2745C68.7733 21.0313 75.4275 26.627 79.0399 35.0615Z" fill="#0078BE"/>
<path d="M51.403 20.1282C51.3683 20.1157 51.3386 20.0921 51.3186 20.061C51.2986 20.0299 51.2893 19.9931 51.2923 19.9563C51.2952 19.9195 51.3102 19.8846 51.3349 19.8571C51.3596 19.8297 51.3926 19.811 51.4289 19.8042C51.8697 19.7696 52.3407 19.7048 52.8419 19.6097C53.3172 19.5147 53.8141 19.5406 54.3326 19.6875C66.8548 23.2134 75.9159 34.3486 73.8548 47.48C72.5326 55.9966 64.0678 63.6966 56.7437 66.0947C55.2919 66.5701 53.866 66.0731 52.466 64.604C52.1981 64.3188 52.2499 64.1287 52.6215 64.0336C78.4696 57.1503 75.3585 26.2079 51.403 20.1282Z" fill="#0078BE"/>
<path d="M58.5457 25.9486C73.5308 39.4949 66.3234 59.8207 47.0346 62.4911C45.4964 62.6985 43.8673 62.1281 42.1476 60.78C41.8019 60.5121 41.8495 60.3781 42.2902 60.3781C68.4105 60.3781 70.4845 25.2486 45.0254 21.3857C44.9291 21.3874 44.8361 21.3508 44.7668 21.2839C44.6975 21.2171 44.6576 21.1254 44.6559 21.0292C44.6542 20.9329 44.6908 20.8399 44.7576 20.7706C44.8245 20.7013 44.9161 20.6615 45.0124 20.6597C49.2124 19.8949 55.4346 23.1227 58.5457 25.9486Z" fill="#0078BE"/>
<path d="M29.8586 26.5966L57.664 39.1188C57.7457 39.1596 57.8125 39.2263 57.8538 39.3084C57.8952 39.3905 57.9087 39.4834 57.8924 39.5725C57.8761 39.6616 57.8308 39.7418 57.7636 39.8004C57.6964 39.8591 57.6113 39.8929 57.5214 39.8966C24.9715 41.2966 30.7011 87.2631 64.2362 78.4742C64.2833 78.4649 64.3321 78.4721 64.3744 78.4948C64.4167 78.5174 64.4499 78.554 64.4682 78.5984C64.4866 78.6427 64.489 78.692 64.475 78.7379C64.4611 78.7838 64.4317 78.8235 64.3918 78.8501C26.8123 100.9 -10.6376 50.3317 28.8215 26.6614C29.1586 26.454 29.5042 26.4324 29.8586 26.5966Z" fill="#0078BE"/>
</svg>
