<svg width="100" height="100" viewBox="0 0 100 100" fill="none" xmlns="http://www.w3.org/2000/svg">
<rect width="100" height="100" fill="#DCFFF6"/>
<path d="M45.0588 70.728C42.7324 71.1025 40.4456 71.0955 38.1984 70.7069C36.1763 70.1706 34.65 69.4567 33.6195 68.5651C30.4729 65.8432 31.3961 55.7465 31.855 52.0301C31.8655 51.9439 31.8313 51.9184 31.7521 51.9536C28.3215 53.4447 25.7331 54.6782 23.9871 55.6541C19.0899 58.3902 14.1181 60.9786 9.07149 63.4192C9.06039 63.4244 9.04776 63.4254 9.03598 63.422C9.02421 63.4185 9.01412 63.4108 9.00762 63.4004C9.00112 63.39 8.99865 63.3776 9.0007 63.3655C9.00275 63.3534 9.00917 63.3425 9.01873 63.3348C16.1877 57.7457 24.3458 52.9163 32.2559 48.4562C32.3315 48.4139 32.386 48.3524 32.4194 48.2715C34.3924 43.5476 37.8555 39.4277 41.4954 35.9856C51.0171 26.9862 63.572 19.4242 76.5543 17.0029C76.5753 16.9986 76.5971 16.9991 76.6179 17.0044C76.6388 17.0097 76.6583 17.0197 76.6749 17.0335C76.6916 17.0474 76.705 17.0649 76.7143 17.0847C76.7235 17.1045 76.7283 17.1261 76.7283 17.1479V22.9401C76.7285 22.9774 76.7156 23.0135 76.6921 23.0424C76.6685 23.0712 76.6356 23.091 76.5991 23.0984C74.8073 23.4553 73.0366 23.9318 71.287 24.5279C60.0113 28.3735 49.4583 34.775 41.5692 43.7955C41.5633 43.8034 41.5601 43.8129 41.5601 43.8228C41.5602 43.8326 41.5634 43.8422 41.5694 43.85C41.5754 43.8578 41.5838 43.8634 41.5933 43.8659C41.6028 43.8685 41.6129 43.8678 41.622 43.8641C51.7583 39.1507 62.1768 35.0387 73.1623 32.7361C76.8391 31.9642 79.9893 31.5193 82.6128 31.4015C84.9814 31.296 90.0139 31.8815 90.7656 34.7539C91.6096 37.9717 90.0482 41.216 88.0964 43.6847C78.5219 55.786 64.0943 64.0496 49.8328 69.367C48.4191 69.8945 46.8277 70.3482 45.0588 70.728ZM76.7283 41.0762V47.7387C76.7283 47.8425 76.7732 47.8671 76.8629 47.8126C79.9277 45.9504 82.6453 43.6847 85.0156 41.0155C86.7433 39.069 88.9641 34.2817 84.0477 34.2211C78.6643 34.1525 73.0489 35.3209 67.8845 36.7716C58.0885 39.5226 48.5008 43.3524 39.0609 47.6833C37.2278 48.5247 35.8615 51.1254 35.2443 52.9348C32.5197 60.9082 46.6044 57.2894 49.4978 56.3795C53.1113 55.2418 56.8435 53.5203 60.6944 51.2151C66.0927 47.9831 71.3758 44.5719 76.5437 40.9812C76.6668 40.8951 76.7283 40.9267 76.7283 41.0762Z" fill="#007A5A"/>
<path d="M38.1985 70.707C40.4457 71.0956 42.7325 71.1027 45.0588 70.7281L75.1379 70.744C75.2311 70.744 75.2777 70.7906 75.2777 70.8837V82.687C75.2777 82.7219 75.2638 82.7555 75.2391 82.7802C75.2144 82.805 75.1808 82.8188 75.1458 82.8188H27.0098C26.9748 82.8188 26.9413 82.805 26.9166 82.7802C26.8918 82.7555 26.8779 82.7219 26.8779 82.687V70.9471C26.8779 70.8911 26.9002 70.8374 26.9397 70.7978C26.9793 70.7583 27.033 70.736 27.0889 70.736L38.1985 70.707Z" fill="#142C67"/>
</svg>
