<svg width="100" height="100" viewBox="0 0 100 100" fill="none" xmlns="http://www.w3.org/2000/svg">
<rect width="100" height="100" fill="#595C62"/>
<path d="M30.0147 51.6836L33.378 52.75C32.8623 54.625 32.003 56.0195 30.7998 56.9336C29.6045 57.8398 28.085 58.293 26.2412 58.293C23.96 58.293 22.085 57.5156 20.6162 55.9609C19.1475 54.3984 18.4131 52.2656 18.4131 49.5625C18.4131 46.7031 19.1514 44.4844 20.628 42.9062C22.1045 41.3203 24.0459 40.5273 26.4522 40.5273C28.5537 40.5273 30.2608 41.1484 31.5733 42.3906C32.3545 43.125 32.9405 44.1797 33.3311 45.5547L29.8975 46.375C29.6944 45.4844 29.2686 44.7812 28.6202 44.2656C27.9795 43.75 27.1983 43.4922 26.2764 43.4922C25.003 43.4922 23.9678 43.9492 23.1709 44.8633C22.3819 45.7773 21.9873 47.2578 21.9873 49.3047C21.9873 51.4766 22.378 53.0234 23.1592 53.9453C23.9405 54.8672 24.9561 55.3281 26.2061 55.3281C27.128 55.3281 27.9209 55.0352 28.585 54.4492C29.2491 53.8633 29.7256 52.9414 30.0147 51.6836ZM40.5934 58V43.7266H35.4958V40.8203H49.1481V43.7266H44.0622V58H40.5934ZM51.7698 58V40.8203H59.0706C60.9066 40.8203 62.2386 40.9766 63.0667 41.2891C63.9027 41.5938 64.5706 42.1406 65.0706 42.9297C65.5706 43.7188 65.8206 44.6211 65.8206 45.6367C65.8206 46.9258 65.4417 47.9922 64.6839 48.8359C63.9261 49.6719 62.7933 50.1992 61.2855 50.418C62.0355 50.8555 62.6527 51.3359 63.137 51.8594C63.6292 52.3828 64.2894 53.3125 65.1175 54.6484L67.2152 58H63.0667L60.5589 54.2617C59.6683 52.9258 59.0589 52.0859 58.7308 51.7422C58.4027 51.3906 58.055 51.1523 57.6878 51.0273C57.3206 50.8945 56.7386 50.8281 55.9417 50.8281H55.2386V58H51.7698ZM55.2386 48.0859H57.805C59.4691 48.0859 60.5081 48.0156 60.9222 47.875C61.3363 47.7344 61.6605 47.4922 61.8948 47.1484C62.1292 46.8047 62.2464 46.375 62.2464 45.8594C62.2464 45.2812 62.0902 44.8164 61.7777 44.4648C61.473 44.1055 61.0394 43.8789 60.4769 43.7852C60.1956 43.7461 59.3519 43.7266 57.9456 43.7266H55.2386V48.0859ZM68.583 52.4102L71.958 52.082C72.1611 53.2148 72.5713 54.0469 73.1884 54.5781C73.8134 55.1094 74.6533 55.375 75.708 55.375C76.8252 55.375 77.665 55.1406 78.2275 54.6719C78.7978 54.1953 79.083 53.6406 79.083 53.0078C79.083 52.6016 78.9619 52.2578 78.7197 51.9766C78.4853 51.6875 78.0713 51.4375 77.4775 51.2266C77.0713 51.0859 76.1455 50.8359 74.7002 50.4766C72.8408 50.0156 71.5361 49.4492 70.7861 48.7773C69.7314 47.832 69.2041 46.6797 69.2041 45.3203C69.2041 44.4453 69.4502 43.6289 69.9423 42.8711C70.4423 42.1055 71.1572 41.5234 72.0869 41.125C73.0244 40.7266 74.1533 40.5273 75.4736 40.5273C77.6298 40.5273 79.2509 41 80.3369 41.9453C81.4306 42.8906 82.0048 44.1523 82.0595 45.7305L78.5908 45.8828C78.4423 45 78.122 44.3672 77.6298 43.9844C77.1455 43.5938 76.415 43.3984 75.4384 43.3984C74.4306 43.3984 73.6416 43.6055 73.0713 44.0195C72.7041 44.2852 72.5205 44.6406 72.5205 45.0859C72.5205 45.4922 72.6923 45.8398 73.0361 46.1289C73.4736 46.4961 74.5361 46.8789 76.2236 47.2773C77.9111 47.6758 79.1572 48.0898 79.9619 48.5195C80.7744 48.9414 81.4072 49.5234 81.8603 50.2656C82.3213 51 82.5517 51.9102 82.5517 52.9961C82.5517 53.9805 82.2783 54.9023 81.7314 55.7617C81.1845 56.6211 80.4111 57.2617 79.4111 57.6836C78.4111 58.0977 77.165 58.3047 75.6728 58.3047C73.5009 58.3047 71.833 57.8047 70.6689 56.8047C69.5048 55.7969 68.8095 54.332 68.583 52.4102Z" fill="#F8F8F8"/>
</svg>
