<svg width="100" height="100" viewBox="0 0 100 100" fill="none" xmlns="http://www.w3.org/2000/svg">
<rect width="100" height="100" fill="#FBF8D9"/>
<path d="M83.2348 42.1905C84.2417 42.1847 85.0274 42.5456 85.3068 43.5816C85.3534 43.764 85.3379 43.9425 85.2603 44.1171C83.9856 46.8526 84.62 52.1492 84.62 55.2747C84.62 55.445 84.675 55.6121 84.7772 55.7519C85.7841 57.0732 84.9169 58.7203 83.2581 58.4759C83.0679 58.4448 82.8894 58.4798 82.7226 58.5806C79.1683 60.6721 76.6364 62.1349 75.127 62.9692C74.0154 63.5803 73.4042 64.1973 73.3518 65.5767C73.2432 68.6537 73.2257 71.7327 73.2994 74.8136C73.3033 75.0076 73.3635 75.1803 73.4799 75.3316C74.4053 76.5364 73.5614 78.3989 71.9084 78.1195C71.721 78.0856 71.5268 78.1208 71.3613 78.2185C68.8178 79.7376 63.6842 81.9726 62.0371 84.2425C61.9245 84.3978 61.7752 84.5025 61.5889 84.5568C60.5645 84.8362 59.8603 84.5025 59.4761 83.5557C59.3985 83.3695 59.2724 83.2259 59.0978 83.125L50.7864 78.3582C50.434 78.1565 50.035 78.0509 49.6295 78.052C49.2239 78.053 48.826 78.1606 48.4757 78.364C45.6644 79.9937 41.4447 81.8213 39.2388 84.3298C39.1185 84.4657 38.9672 84.551 38.7848 84.5859C37.8264 84.7683 37.1454 84.4113 36.7419 83.515C36.6738 83.3675 36.5618 83.2453 36.4217 83.1658L27.9007 78.2359C27.7378 78.1389 27.5632 78.1001 27.3769 78.1195C25.8694 78.2709 24.7054 76.7052 25.7938 75.4655C25.9139 75.3304 25.9802 75.1543 25.98 74.9707V65.3381C25.98 64.9292 25.8718 64.5274 25.6665 64.1728C25.4611 63.8183 25.1658 63.5236 24.8101 63.3184L16.6558 58.6214C16.4657 58.5127 16.2601 58.4662 16.0389 58.4817C14.6362 58.5981 13.3848 57.1314 14.4499 55.8742C14.57 55.735 14.6361 55.5553 14.6362 55.3678C14.6245 52.0424 14.6245 48.719 14.6362 45.3975C14.6362 45.1104 14.4771 44.7903 14.1589 44.4372C14.0973 44.37 14.0517 44.2895 14.0255 44.2019C13.9993 44.1142 13.9932 44.0215 14.0076 43.9308C14.1977 42.7551 14.902 42.1731 16.1204 42.1847C16.3221 42.1847 16.5103 42.1343 16.6849 42.0334L24.7578 37.3597C25.1297 37.1436 25.4383 36.8336 25.6528 36.4608C25.8673 36.088 25.9801 35.6654 25.98 35.2352V25.7481C25.9799 25.6004 25.9331 25.4559 25.8462 25.3348C24.7927 23.9088 25.689 22.4305 27.4002 22.5469C27.5789 22.5583 27.7586 22.5179 27.9182 22.4305C29.7691 21.3653 36.3752 18.17 37.1318 16.5519C37.2104 16.3872 37.3498 16.2581 37.5218 16.1911C38.6509 15.7526 39.4541 16.0688 39.9314 17.1398C40.0129 17.3221 40.1409 17.4638 40.3155 17.5647L49.4302 22.8088C49.5077 22.8549 49.5961 22.8793 49.6863 22.8793C49.7765 22.8793 49.8649 22.8549 49.9424 22.8088L59.1153 17.5181C59.2705 17.4288 59.3849 17.3008 59.4587 17.134C59.8506 16.2687 60.5277 15.9117 61.49 16.063C61.6807 16.0928 61.853 16.1925 61.9731 16.3424C63.8239 18.6822 70.2147 22.0463 73.119 22.7622C73.3208 22.8127 73.4779 22.9233 73.5905 23.094C74.1415 23.9282 74.0852 24.7082 73.4217 25.4338C73.3536 25.5071 73.3014 25.5936 73.2684 25.6877C73.2353 25.7819 73.2221 25.8817 73.2296 25.9809C73.3072 27.1527 73.3635 28.3168 73.3984 29.4731C73.4508 31.2774 72.4671 36.149 74.7138 37.447C77.3795 38.9835 80.0452 40.5182 82.711 42.0508C82.8739 42.144 83.0485 42.1905 83.2348 42.1905ZM29.0765 24.3919L38.1271 29.6069C38.1979 29.6478 38.2782 29.6693 38.3599 29.6693C38.4416 29.6693 38.5219 29.6478 38.5927 29.6069L47.5037 24.4676C47.5387 24.447 47.5677 24.4177 47.5879 24.3825C47.6081 24.3473 47.6187 24.3074 47.6187 24.2668C47.6187 24.2262 47.6081 24.1863 47.5879 24.1511C47.5677 24.1159 47.5387 24.0865 47.5037 24.066L39.2912 19.3457C39.0044 19.1813 38.6792 19.0954 38.3483 19.0964C38.0173 19.0974 37.6921 19.1854 37.4054 19.3515L29.0765 24.194C29.0596 24.2045 29.0457 24.219 29.0361 24.2364C29.0264 24.2537 29.0214 24.2732 29.0214 24.293C29.0214 24.3128 29.0264 24.3323 29.0361 24.3496C29.0457 24.3669 29.0596 24.3815 29.0765 24.3919ZM70.3253 24.1591L62.0778 19.3981C61.7646 19.2172 61.4093 19.122 61.0476 19.122C60.6859 19.122 60.3306 19.2172 60.0174 19.3981L51.9621 24.0543C51.706 24.2057 51.7079 24.3551 51.9679 24.5025L60.7857 29.6069C60.937 29.6962 61.0884 29.6981 61.2397 29.6128L70.3253 24.3861C70.3452 24.3737 70.3618 24.3565 70.3733 24.336C70.3849 24.3156 70.391 24.2927 70.391 24.2697C70.391 24.2467 70.3849 24.2243 70.3733 24.2049C70.3618 24.1855 70.3452 24.1697 70.3253 24.1591ZM48.5863 36.6961C48.6153 36.6787 48.6392 36.6539 48.6555 36.6243C48.6719 36.5946 48.6801 36.5612 48.6794 36.5273V26.0565C48.6795 26.023 48.6709 25.9901 48.6544 25.9609C48.6378 25.9318 48.614 25.9075 48.5851 25.8904C48.5563 25.8734 48.5235 25.8642 48.49 25.8637C48.4565 25.8632 48.4235 25.8715 48.3942 25.8877L39.3203 31.1086C39.2902 31.1253 39.2651 31.1498 39.2477 31.1795C39.2303 31.2091 39.2212 31.243 39.2213 31.2774V41.8064C39.2216 41.8403 39.2308 41.8734 39.2481 41.9026C39.2653 41.9317 39.29 41.9558 39.3195 41.9723C39.3491 41.9889 39.3825 41.9973 39.4163 41.9968C39.4502 41.9963 39.4833 41.9868 39.5123 41.9694L48.5863 36.6961ZM70.4708 37.1734C70.7467 37.0141 70.9758 36.7851 71.1352 36.5092C71.2945 36.2334 71.3785 35.9205 71.3787 35.6019V26.0507C71.3787 25.7985 71.2701 25.7364 71.0528 25.8645L62.1651 31.0388C62.0888 31.083 62.0251 31.147 61.9803 31.2244C61.9354 31.3019 61.9109 31.3903 61.909 31.4811L61.9032 41.754C61.9026 41.793 61.9126 41.8312 61.932 41.865C61.9514 41.8987 61.9797 41.9268 62.0139 41.9462C62.0481 41.9657 62.0871 41.976 62.127 41.9759C62.1668 41.9759 62.2061 41.9656 62.2408 41.9461L70.4708 37.1734ZM37.2773 31.0388L28.4304 25.9401C28.1549 25.781 28.0172 25.8606 28.0172 26.1788V35.0199C28.0173 35.5033 28.1441 35.9785 28.3851 36.3982C28.626 36.8178 28.9727 37.1674 29.3908 37.412L37.3181 42.0217C37.3337 42.0321 37.3518 42.0377 37.3704 42.0382C37.3891 42.0387 37.4077 42.0339 37.4243 42.0245C37.4409 42.015 37.4549 42.0011 37.4649 41.9842C37.4748 41.9674 37.4804 41.9482 37.481 41.9286L37.4927 31.4171C37.4924 31.3408 37.4725 31.2659 37.4348 31.1996C37.397 31.1333 37.3428 31.0779 37.2773 31.0388ZM50.7165 36.539C50.7165 36.5697 50.7245 36.5998 50.7399 36.6264C50.7552 36.6529 50.7772 36.675 50.8038 36.6903L59.9301 41.981C59.9567 41.9963 59.9868 42.0044 60.0174 42.0044C60.0481 42.0044 60.0782 41.9963 60.1048 41.981C60.1313 41.9656 60.1534 41.9436 60.1687 41.917C60.184 41.8905 60.192 41.8603 60.192 41.8297L60.1804 31.2716C60.1804 31.2409 60.1723 31.2108 60.157 31.1842C60.1417 31.1576 60.1196 31.1356 60.0931 31.1202L50.9784 25.8295C50.9519 25.8142 50.9217 25.8061 50.8911 25.8062C50.8604 25.8062 50.8303 25.8142 50.8038 25.8296C50.7772 25.8449 50.7552 25.867 50.7399 25.8935C50.7245 25.9201 50.7165 25.9502 50.7165 25.9809V36.539ZM58.7835 44.1171C58.8234 44.0941 58.8565 44.061 58.8796 44.0212C58.9026 43.9813 58.9148 43.9361 58.9148 43.8901C58.9148 43.844 58.9026 43.7988 58.8796 43.759C58.8565 43.7191 58.8234 43.686 58.7835 43.6631L49.8143 38.4946C49.7738 38.4705 49.7276 38.4578 49.6805 38.4578C49.6334 38.4578 49.5871 38.4705 49.5466 38.4946L40.6473 43.6747C40.6074 43.6977 40.5743 43.7308 40.5512 43.7706C40.5282 43.8105 40.5161 43.8557 40.5161 43.9017C40.5161 43.9478 40.5282 43.993 40.5512 44.0328C40.5743 44.0727 40.6074 44.1057 40.6473 44.1287L49.5524 49.2972C49.5929 49.3213 49.6392 49.334 49.6863 49.334C49.7334 49.334 49.7797 49.3213 49.8202 49.2972L58.7835 44.1171ZM17.8257 44.0414L26.7192 49.1924C26.9326 49.3166 27.1422 49.3166 27.3478 49.1924L36.1482 44.0821C36.381 43.9502 36.381 43.8164 36.1482 43.6805L28.215 39.1174C27.8558 38.9101 27.4479 38.8009 27.0322 38.8009C26.6164 38.8009 26.2075 38.9101 25.8462 39.1174L17.8257 43.7329C17.7985 43.7493 17.7758 43.7725 17.7601 43.8001C17.7443 43.8277 17.736 43.8588 17.736 43.8901C17.736 43.9214 17.7443 43.952 17.7601 43.9785C17.7758 44.0051 17.7985 44.0268 17.8257 44.0414ZM81.7157 43.7795L73.5032 39.065C73.1651 38.8718 72.7826 38.7702 72.3936 38.7702C72.0046 38.7702 71.6227 38.8718 71.2856 39.065L63.2477 43.6864C63.2127 43.7069 63.1837 43.7362 63.1635 43.7715C63.1433 43.8067 63.1327 43.8466 63.1327 43.8872C63.1327 43.9278 63.1433 43.9676 63.1635 44.0029C63.1837 44.0381 63.2127 44.0674 63.2477 44.088L72.1412 49.2273C72.3119 49.3243 72.4846 49.3243 72.6592 49.2273L81.7157 43.9657C81.7313 43.9557 81.7441 43.942 81.7531 43.9257C81.7619 43.9094 81.7666 43.8912 81.7666 43.8726C81.7666 43.8541 81.7619 43.8358 81.7531 43.8195C81.7441 43.8033 81.7313 43.7895 81.7157 43.7795ZM37.0736 55.9091C37.45 52.7506 37.5004 49.3631 37.2249 45.7468C37.2094 45.5372 37.1105 45.4849 36.9281 45.5896L28.1219 50.6708C28.0458 50.7148 27.9826 50.7782 27.9387 50.8549C27.8948 50.9315 27.8717 51.0185 27.8716 51.1073V61.3919C27.8716 61.5975 27.9628 61.6518 28.1452 61.5548C30.9584 60.0338 33.7036 58.4681 36.381 56.8578C36.8001 56.6056 37.0309 56.2894 37.0736 55.9091ZM48.7259 50.7232L39.6811 45.5081C39.4716 45.3878 39.3668 45.448 39.3668 45.6886V55.0069C39.3668 55.3804 39.4652 55.7475 39.6522 56.0713C39.8391 56.3951 40.108 56.6643 40.432 56.852L48.528 61.5548C48.7182 61.6674 48.8133 61.613 48.8133 61.3919L48.8424 50.9327C48.8424 50.8396 48.8036 50.7697 48.7259 50.7232ZM59.6158 56.2816C60.5704 54.3376 60.0698 48.1855 60.0058 45.7759C59.998 45.4849 59.868 45.4131 59.6158 45.5605L50.8329 50.665C50.6583 50.7659 50.571 50.9152 50.571 51.1131V61.2755C50.571 61.5975 50.7107 61.6771 50.9901 61.5141L59.1618 56.7705C59.3591 56.6566 59.5173 56.4862 59.6158 56.2816ZM71.274 50.665L62.3688 45.5198C62.1671 45.4034 62.0662 45.4616 62.0662 45.6944V55.0768C62.0659 55.4341 62.1599 55.7856 62.3386 56.096C62.5173 56.4065 62.7746 56.6652 63.0847 56.8462L71.2099 61.5781C71.4195 61.6984 71.5242 61.6383 71.5242 61.3977V51.0957C71.5243 51.0092 71.5012 50.9239 71.4573 50.8483C71.4134 50.7727 71.3502 50.7095 71.274 50.665ZM73.2762 51.183L73.2587 61.3919C73.2587 61.6363 73.3635 61.6965 73.573 61.5723L81.6109 56.9277C81.9506 56.7315 82.2327 56.4491 82.4288 56.1089C82.625 55.7687 82.7283 55.3826 82.7284 54.9895V45.8166C82.7284 45.4713 82.579 45.384 82.2802 45.5547L73.6196 50.5893C73.3906 50.7212 73.2762 50.9191 73.2762 51.183ZM25.9393 50.6766L17.1971 45.6129C16.941 45.4655 16.813 45.5392 16.813 45.8341V55.2921C16.8132 55.6107 16.8972 55.9236 17.0566 56.1995C17.2159 56.4753 17.4451 56.7043 17.721 56.8636L25.8462 61.5374C26.0247 61.6421 26.1139 61.5917 26.1139 61.386L26.1488 51.0433C26.1488 50.8803 26.079 50.7581 25.9393 50.6766ZM47.6666 63.4173L39.4832 58.7261C39.1399 58.5279 38.7505 58.4236 38.3541 58.4236C37.9577 58.4236 37.5682 58.5279 37.2249 58.7261L29.2103 63.33C28.9969 63.4503 28.9969 63.5726 29.2103 63.6967L38.1387 68.8477C38.2978 68.9408 38.4569 68.9408 38.616 68.8477L47.6666 63.6036C47.6823 63.5936 47.6951 63.5798 47.704 63.5635C47.7129 63.5473 47.7176 63.529 47.7176 63.5105C47.7176 63.4919 47.7129 63.4737 47.704 63.4574C47.6951 63.4411 47.6823 63.4273 47.6666 63.4173ZM70.366 63.4173L62.0138 58.633C61.7232 58.4666 61.3941 58.379 61.0593 58.379C60.7244 58.379 60.3953 58.4666 60.1047 58.633L51.9155 63.3242C51.8822 63.3425 51.8546 63.3693 51.8354 63.402C51.8162 63.4347 51.8061 63.4721 51.8061 63.5105C51.8061 63.5488 51.8162 63.5868 51.8354 63.6205C51.8546 63.6542 51.8822 63.6825 51.9155 63.7025L60.7799 68.8186C60.9739 68.9311 61.1698 68.9311 61.3677 68.8186L70.366 63.6036C70.3831 63.5948 70.3974 63.5814 70.4075 63.565C70.4175 63.5486 70.4228 63.5297 70.4228 63.5105C70.4228 63.4912 70.4175 63.4724 70.4075 63.4559C70.3974 63.4395 70.3831 63.4262 70.366 63.4173ZM37.2075 70.2737L28.3431 65.146C28.1258 65.0218 28.0172 65.0858 28.0172 65.3381V74.4411C28.0172 74.8854 28.1338 75.3219 28.3555 75.707C28.5771 76.092 28.896 76.4122 29.2802 76.6353L37.3413 81.2974C37.4461 81.3595 37.4985 81.3285 37.4985 81.2043L37.4636 70.7161C37.4634 70.6259 37.4396 70.5374 37.3946 70.4598C37.3497 70.3821 37.2851 70.3179 37.2075 70.2737ZM39.2213 70.8383V81.0472C39.2213 81.2994 39.3319 81.3634 39.5531 81.2392L47.4513 76.6761C47.8247 76.4605 48.1347 76.1501 48.3503 75.7762C48.5659 75.4022 48.6794 74.9779 48.6794 74.5458V65.3381C48.6794 65.0975 48.5746 65.0373 48.3651 65.1576L39.5414 70.2795C39.328 70.4037 39.2213 70.5899 39.2213 70.8383ZM61.909 81.1578C61.9096 81.1841 61.9169 81.2098 61.9304 81.2324C61.9439 81.255 61.9631 81.2736 61.986 81.2866C62.0089 81.2995 62.0348 81.3062 62.0611 81.3061C62.0874 81.306 62.1132 81.299 62.136 81.2858L70.4184 76.4666C70.7107 76.2944 70.9531 76.0493 71.1215 75.7553C71.2899 75.4613 71.3786 75.1287 71.3787 74.7903V65.3381C71.3787 65.0897 71.272 65.0276 71.0586 65.1518L62.1826 70.3086C62.0119 70.4056 61.9265 70.555 61.9265 70.7568L61.909 81.1578ZM59.9825 70.3552L51.2927 65.309C50.9086 65.0878 50.7165 65.1984 50.7165 65.6407V74.6739C50.7164 75.0477 50.8142 75.4148 51.0001 75.7386C51.186 76.0623 51.4535 76.3314 51.7758 76.5189L59.9068 81.2451C60.097 81.3576 60.192 81.3052 60.192 81.0879L60.1804 70.6928C60.1807 70.6239 60.1625 70.5563 60.1276 70.4969C60.0928 70.4375 60.0427 70.3886 59.9825 70.3552Z" fill="#716E4F"/>
</svg>
