<svg width="100" height="100" viewBox="0 0 100 100" fill="none" xmlns="http://www.w3.org/2000/svg">
<rect width="100" height="100" fill="#0E122B"/>
<path d="M50.0001 14V86.3613L36.0232 86.4066C35.9578 86.3562 35.8948 86.3034 35.8344 86.248L35.8193 55.2285L35.8495 29.91C35.8495 29.6633 35.9326 29.4468 36.0987 29.2606L50.0001 14Z" fill="#21285E"/>
<path d="M50 14L63.9014 29.253C64.0675 29.4343 64.1506 29.6507 64.1506 29.9024L64.1657 55.2889V86.3915L50 86.3613V14Z" fill="#99A4DA"/>
<path d="M72.7279 45.9634C72.9041 46.4768 72.9443 46.5498 72.8487 46.1824L72.8034 86.3008L64.165 86.3915V55.2889L72.7279 45.9634Z" fill="#21285E"/>
<path d="M27.2714 46.0691L27.2185 86.3008L13.4153 86.2857C13.1384 86.2857 13 86.1473 13 85.8704V62.0772C12.9998 61.8294 13.0914 61.5921 13.2567 61.4127L27.2714 46.0691Z" fill="#21285E"/>
<path d="M27.2711 46.0691L35.8189 55.2285L35.834 86.248L27.2183 86.3008L27.2711 46.0691Z" fill="#99A4DA"/>
<path d="M72.8495 46.1824L86.7358 61.375C86.9055 61.5589 86.9999 61.8042 87.0001 62.0621V85.878C87.0001 86.175 86.8516 86.3235 86.5546 86.3235L72.8042 86.3009L72.8495 46.1824Z" fill="#99A4DA"/>
</svg>
