<svg width="100" height="100" viewBox="0 0 100 100" fill="none" xmlns="http://www.w3.org/2000/svg">
<rect width="100" height="100" fill="#00A2E9"/>
<g clip-path="url(#clip0_49_1512)">
<path d="M16.8353 43H30.8915C32.7424 43.421 33.1471 44.741 32.8136 46.4515C32.3607 48.7824 31.8949 51.1105 31.4163 53.4359C30.9586 55.6569 29.8807 57.0969 27.5153 57.4407H14V57.2414L16.8353 43ZM20.4332 46.4515L18.9647 53.979C18.9512 54.0495 18.9858 54.0847 19.0685 54.0847H26.6041C26.7232 54.0847 26.8385 54.0434 26.9302 53.968C27.0219 53.8927 27.0842 53.788 27.1064 53.6719L28.4346 46.9092C28.4478 46.8419 28.446 46.7726 28.4292 46.7061C28.4124 46.6397 28.3811 46.5778 28.3375 46.5249C28.294 46.472 28.2392 46.4294 28.1772 46.4002C28.1152 46.371 28.0475 46.3558 27.979 46.3559H20.5492C20.4841 46.3559 20.4454 46.3878 20.4332 46.4515Z" fill="white"/>
<path d="M38.3723 43H48.8387C50.9641 43.5349 51.0211 44.9769 50.6367 46.9173C49.9438 50.4278 49.2523 53.9356 48.5621 57.4407H44.2767L45.0597 53.4868C45.0746 53.4108 45.0434 53.3729 44.9662 53.3729H39.019C38.939 53.3729 38.8916 53.4115 38.8767 53.4888L38.0834 57.4407H33.8184C34.636 53.2522 35.4611 49.0705 36.2936 44.8956C36.5038 43.8366 37.1967 43.2047 38.3723 43ZM45.8855 46.3559H40.6543C40.5548 46.3561 40.4584 46.3904 40.3814 46.453C40.3044 46.5156 40.2513 46.6027 40.2312 46.6997L39.5865 49.8603C39.5716 49.9308 39.6001 49.9661 39.6719 49.9661H45.6455C45.7268 49.9661 45.775 49.9261 45.7899 49.8461L46.3533 46.9214C46.3665 46.8525 46.3643 46.7816 46.3468 46.7136C46.3294 46.6457 46.2972 46.5825 46.2525 46.5285C46.2078 46.4745 46.1518 46.431 46.0883 46.4011C46.0249 46.3713 45.9556 46.3559 45.8855 46.3559Z" fill="white"/>
<path d="M58.8 43H67.1573C66.3478 47.1559 65.5248 51.3078 64.6882 55.4556C64.4658 56.5634 63.7831 57.2251 62.64 57.4407H53.8516C50.8699 56.8366 51.8502 54.0014 52.2794 51.9919C52.2929 51.9295 52.3316 51.8983 52.3953 51.8983H56.4407C56.4579 51.8983 56.4748 51.9021 56.4903 51.9094C56.5058 51.9167 56.5195 51.9273 56.5304 51.9405C56.5413 51.9538 56.5491 51.9692 56.5533 51.9859C56.5575 52.0025 56.5579 52.0198 56.5546 52.0366L56.2658 53.5356C56.2526 53.6023 56.2544 53.671 56.271 53.737C56.2877 53.8029 56.3189 53.8643 56.3622 53.9169C56.4056 53.9694 56.4602 54.0117 56.5219 54.0407C56.5837 54.0697 56.6511 54.0848 56.7194 54.0847H60.3214C60.4268 54.0848 60.5291 54.0482 60.6106 53.981C60.6922 53.9139 60.7482 53.8205 60.7689 53.7166L62.1987 46.4942C62.202 46.4774 62.2016 46.46 62.1975 46.4434C62.1934 46.4267 62.1858 46.4112 62.1751 46.398C62.1644 46.3848 62.1509 46.3741 62.1356 46.3668C62.1204 46.3596 62.1037 46.3558 62.0868 46.3559H58.2834C58.2653 46.356 58.2474 46.352 58.231 46.3443C58.2146 46.3366 58.2001 46.3253 58.1886 46.3112C58.1771 46.2972 58.1689 46.2808 58.1645 46.2632C58.1602 46.2456 58.1598 46.2273 58.1634 46.2095L58.8 43Z" fill="white"/>
<path d="M70.8516 43H75.137L74.1303 48.0563C74.1283 48.067 74.1296 48.078 74.1339 48.088C74.1382 48.098 74.1454 48.1064 74.1546 48.1123C74.1637 48.1182 74.1744 48.1212 74.1853 48.121C74.1962 48.1208 74.2068 48.1174 74.2157 48.1112L81.0882 43H86.0692L78.4747 48.9268C78.4487 48.947 78.4313 48.9762 78.4261 49.0086C78.4208 49.0411 78.428 49.0743 78.4462 49.1017L83.9397 57.4407H78.9364L75.1411 51.6888C75.0964 51.6197 75.0414 51.6102 74.9764 51.6603L73.2069 53.0312C73.1553 53.0719 73.1228 53.1247 73.1092 53.1898L72.2672 57.4407H67.998L70.8516 43Z" fill="white"/>
</g>
<defs>
<clipPath id="clip0_49_1512">
<rect width="72" height="14.4407" fill="white" transform="translate(14 43)"/>
</clipPath>
</defs>
</svg>
