<svg width="100" height="100" viewBox="0 0 100 100" fill="none" xmlns="http://www.w3.org/2000/svg">
<rect width="100" height="100" fill="#595C62"/>
<path d="M17.0069 40.8203H23.3467C24.7764 40.8203 25.8662 40.9297 26.6162 41.1484C27.6241 41.4453 28.4873 41.9727 29.2061 42.7305C29.9248 43.4883 30.4717 44.418 30.8467 45.5195C31.2217 46.6133 31.4092 47.9648 31.4092 49.5742C31.4092 50.9883 31.2334 52.207 30.8819 53.2305C30.4522 54.4805 29.8389 55.4922 29.042 56.2656C28.4405 56.8516 27.628 57.3086 26.6045 57.6367C25.8389 57.8789 24.8155 58 23.5342 58H17.0069V40.8203ZM20.4756 43.7266V55.1055H23.0655C24.0342 55.1055 24.7334 55.0508 25.1631 54.9414C25.7256 54.8008 26.1905 54.5625 26.5577 54.2266C26.9327 53.8906 27.2373 53.3398 27.4717 52.5742C27.7061 51.8008 27.8233 50.75 27.8233 49.4219C27.8233 48.0938 27.7061 47.0742 27.4717 46.3633C27.2373 45.6523 26.9092 45.0977 26.4873 44.6992C26.0655 44.3008 25.5303 44.0312 24.8819 43.8906C24.3975 43.7812 23.4483 43.7266 22.0342 43.7266H20.4756ZM50.2145 58H46.4411L44.9411 54.0977H38.0739L36.6559 58H32.9762L39.6677 40.8203H43.3356L50.2145 58ZM43.8278 51.2031L41.4606 44.8281L39.1403 51.2031H43.8278ZM52.4613 58V40.8203H55.8363L62.8675 52.293V40.8203H66.0902V58H62.6097L55.6839 46.7969V58H52.4613ZM85.622 58H81.8486L80.3486 54.0977H73.4814L72.0634 58H68.3838L75.0752 40.8203H78.7431L85.622 58ZM79.2353 51.2031L76.8681 44.8281L74.5478 51.2031H79.2353Z" fill="#F8F8F8"/>
</svg>
