<svg width="100" height="100" viewBox="0 0 100 100" fill="none" xmlns="http://www.w3.org/2000/svg">
<rect width="100" height="100" fill="#EC3924"/>
<path d="M54.4724 26.0358C62.6369 26.0602 67.8242 33.7072 67.5624 41.3481C67.5299 42.2004 67.2154 43.6109 66.6187 45.5795C65.1879 50.2736 62.0768 53.61 57.2791 54.9069C54.2654 55.7227 49.9914 55.3026 46.4297 55.5766C46.325 55.5857 46.2266 55.6306 46.1512 55.7038C46.0757 55.777 46.0279 55.874 46.0157 55.9784L45.7843 57.9389C45.7691 58.0633 45.78 58.1895 45.8164 58.3096C45.8527 58.4297 45.9137 58.541 45.9955 58.6365C46.0773 58.7321 46.1782 58.8097 46.2917 58.8647C46.4052 58.9196 46.5288 58.9506 46.6549 58.9556C54.0422 59.2925 61.4314 59.3047 68.8227 58.9921C69.1027 58.98 69.255 58.8359 69.2793 58.5599L69.4924 56.4046C69.5042 56.2816 69.4904 56.1575 69.4519 56.0402C69.4133 55.9228 69.3509 55.8147 69.2686 55.7226C69.1862 55.6305 69.0857 55.5565 68.9733 55.5052C68.861 55.4538 68.7392 55.4263 68.6157 55.4244L63.3371 55.3635C62.6268 55.3554 62.5435 55.124 63.0874 54.6694C66.8298 51.5562 69.0581 47.5541 69.7725 42.6631C69.8618 42.0381 70.225 41.7235 70.8623 41.7194L81.8396 41.6647C82.8178 41.6606 83.3069 42.1497 83.3069 43.132L83.2704 72.2465C83.2704 72.3414 83.2516 72.4353 83.2151 72.5229C83.1786 72.6104 83.1252 72.6899 83.0578 72.7567C82.9905 72.8235 82.9105 72.8763 82.8227 72.912C82.7348 72.9478 82.6407 72.9658 82.5459 72.965C71.6477 72.8615 60.5973 72.6971 49.553 72.965C40.4752 73.1841 33.2788 72.6666 30.1798 62.6878C28.3655 56.8348 29.8044 51.5359 34.4965 46.7911C38.5148 42.7301 44.8041 43.4485 50.0888 43.5094C53.0051 43.546 52.7859 39.7346 49.9122 39.7164C44.2744 39.692 38.6386 39.6941 33.0048 39.7225C30.9409 39.7346 29.3761 40.1121 30.1494 42.6571C30.2143 42.8641 30.3503 42.998 30.5573 43.0589L34.2712 44.1731C34.3141 44.1859 34.3527 44.2103 34.3827 44.2436C34.4126 44.277 34.4328 44.3179 34.441 44.362C34.4492 44.406 34.4451 44.4515 34.4291 44.4934C34.4131 44.5352 34.3858 44.5719 34.3503 44.5993C30.4173 47.6982 29.0413 51.7653 27.574 56.2585C27.4911 56.5173 27.3289 56.7436 27.1104 56.9053C26.8919 57.067 26.6281 57.1559 26.3563 57.1596L16.4749 57.3239C16.3004 57.328 16.2111 57.2428 16.207 57.0682L16 26.4194C16 26.3128 16.043 26.2106 16.1195 26.1352C16.196 26.0599 16.2997 26.0175 16.4079 26.0175C29.0474 25.9891 41.7355 25.9952 54.4724 26.0358Z" fill="white"/>
</svg>
