<svg width="100" height="100" viewBox="0 0 100 100" fill="none" xmlns="http://www.w3.org/2000/svg">
<rect width="100" height="100" fill="#595C62"/>
<path d="M17.8975 40.8203H24.2373C25.667 40.8203 26.7569 40.9297 27.5069 41.1484C28.5147 41.4453 29.378 41.9727 30.0967 42.7305C30.8155 43.4883 31.3623 44.418 31.7373 45.5195C32.1123 46.6133 32.2998 47.9648 32.2998 49.5742C32.2998 50.9883 32.1241 52.207 31.7725 53.2305C31.3428 54.4805 30.7295 55.4922 29.9327 56.2656C29.3311 56.8516 28.5186 57.3086 27.4952 57.6367C26.7295 57.8789 25.7061 58 24.4248 58H17.8975V40.8203ZM21.3662 43.7266V55.1055H23.9561C24.9248 55.1055 25.6241 55.0508 26.0537 54.9414C26.6162 54.8008 27.0811 54.5625 27.4483 54.2266C27.8233 53.8906 28.128 53.3398 28.3623 52.5742C28.5967 51.8008 28.7139 50.75 28.7139 49.4219C28.7139 48.0938 28.5967 47.0742 28.3623 46.3633C28.128 45.6523 27.7998 45.0977 27.378 44.6992C26.9561 44.3008 26.4209 44.0312 25.7725 43.8906C25.2881 43.7812 24.3389 43.7266 22.9248 43.7266H21.3662ZM51.1052 58H47.3317L45.8317 54.0977H38.9645L37.5466 58H33.8669L40.5583 40.8203H44.2262L51.1052 58ZM44.7184 51.2031L42.3512 44.8281L40.0309 51.2031H44.7184ZM55.9183 58L49.7777 40.8203H53.5394L57.887 53.5352L62.0941 40.8203H65.7738L59.6214 58H55.9183ZM67.2002 49.5156C67.2002 47.7656 67.4619 46.2969 67.9853 45.1094C68.3759 44.2344 68.9072 43.4492 69.5791 42.7539C70.2588 42.0586 71.0009 41.543 71.8056 41.207C72.8759 40.7539 74.1103 40.5273 75.5088 40.5273C78.04 40.5273 80.0634 41.3125 81.5791 42.8828C83.1025 44.4531 83.8642 46.6367 83.8642 49.4336C83.8642 52.207 83.1103 54.3789 81.6025 55.9492C80.0947 57.5117 78.0791 58.293 75.5556 58.293C73.0009 58.293 70.9697 57.5156 69.4619 55.9609C67.9541 54.3984 67.2002 52.25 67.2002 49.5156ZM70.7744 49.3984C70.7744 51.3438 71.2236 52.8203 72.122 53.8281C73.0205 54.8281 74.1611 55.3281 75.5439 55.3281C76.9267 55.3281 78.0595 54.832 78.9423 53.8398C79.833 52.8398 80.2783 51.3438 80.2783 49.3516C80.2783 47.3828 79.8447 45.9141 78.9775 44.9453C78.1181 43.9766 76.9736 43.4922 75.5439 43.4922C74.1142 43.4922 72.9619 43.9844 72.0869 44.9688C71.2119 45.9453 70.7744 47.4219 70.7744 49.3984Z" fill="#F8F8F8"/>
</svg>
