<svg width="100" height="100" viewBox="0 0 100 100" fill="none" xmlns="http://www.w3.org/2000/svg">
<rect width="100" height="100" fill="#08A29B"/>
<path d="M43.7119 53.7757H45.5266C45.7164 53.7742 45.9003 53.8411 46.0446 53.9642C46.189 54.0873 46.284 54.2584 46.3124 54.446C46.3407 54.6336 46.3004 54.8252 46.1989 54.9854C46.0974 55.1457 45.9415 55.264 45.7597 55.3185C42.7907 56.2398 40.8427 55.4351 40.7595 52.2163C40.7003 49.9705 40.7317 47.7617 40.8538 45.5899C40.858 45.5072 40.8788 45.4262 40.9149 45.3517C40.9511 45.2771 41.002 45.2104 41.0646 45.1556C41.1271 45.1008 41.2001 45.059 41.2792 45.0325C41.3583 45.0061 41.442 44.9956 41.5253 45.0017C42.4059 45.0609 42.8147 45.5418 42.7518 46.4446C42.748 46.4942 42.7545 46.5441 42.7709 46.5912C42.7873 46.6382 42.8132 46.6813 42.8471 46.7178C42.881 46.7543 42.9221 46.7834 42.9678 46.8032C43.0134 46.823 43.0627 46.8332 43.1125 46.8331L45.338 46.8442C45.5414 46.846 45.7372 46.9224 45.8882 47.0588C46.0392 47.1951 46.1351 47.3821 46.1576 47.5843C46.1802 47.7866 46.1279 47.9901 46.0106 48.1564C45.8933 48.3226 45.7192 48.4402 45.5211 48.4869C44.6997 48.6756 43.8895 48.6737 43.0903 48.4813C43.0485 48.4712 43.0049 48.4707 42.9629 48.48C42.9209 48.4892 42.8815 48.508 42.8478 48.5347C42.8141 48.5615 42.7869 48.5956 42.7683 48.6344C42.7498 48.6732 42.7403 48.7158 42.7407 48.7588V52.8045C42.7407 53.0621 42.843 53.3091 43.0252 53.4913C43.2073 53.6734 43.4543 53.7757 43.7119 53.7757Z" fill="white"/>
<path d="M24.1933 53.5205L26.2356 46.883C26.2581 46.8098 26.2959 46.7422 26.3467 46.6848C26.3974 46.6274 26.4598 46.5814 26.5297 46.5501C27.1735 46.2504 27.6637 46.3558 28.0004 46.8664C28.0564 46.952 28.0942 47.0479 28.1113 47.1482C28.1285 47.2485 28.1248 47.3509 28.1003 47.4491C27.6896 49.1085 26.452 54.7303 24.9647 55.4684C22.1843 56.8392 21.4462 52.9877 20.7802 51.3394C20.7638 51.3017 20.7365 51.2694 20.7019 51.2469C20.6672 51.2244 20.6269 51.2127 20.5861 51.2133C20.5453 51.2139 20.506 51.2268 20.4733 51.2503C20.4406 51.2738 20.416 51.3068 20.4028 51.345C19.8867 52.7657 19.2652 55.2131 17.7001 55.6571C14.7644 56.4895 13.5157 49.2472 13.0218 47.327C12.97 47.1309 13.0107 46.9552 13.1438 46.7998C13.4879 46.4039 13.9393 46.2911 14.498 46.4613C14.5854 46.4871 14.6654 46.534 14.7311 46.5977C14.7968 46.6615 14.8463 46.7403 14.8754 46.8275L16.962 53.3706C16.977 53.419 17.0067 53.4615 17.0469 53.4922C17.0871 53.523 17.1359 53.5405 17.1864 53.5423C17.237 53.5441 17.2869 53.5302 17.3293 53.5024C17.3716 53.4746 17.4042 53.4344 17.4227 53.3873L19.3151 48.6756C19.4186 48.42 19.5961 48.2013 19.8249 48.0474C20.0537 47.8936 20.3233 47.8117 20.599 47.8123C20.8746 47.8129 21.1439 47.896 21.372 48.0508C21.6001 48.2056 21.7767 48.4251 21.8791 48.6811L23.7992 53.5371C23.8161 53.5764 23.8445 53.6097 23.8807 53.6325C23.917 53.6553 23.9592 53.6666 24.002 53.6648C24.0448 53.663 24.086 53.6482 24.1201 53.6224C24.1543 53.5966 24.1798 53.5611 24.1933 53.5205Z" fill="white"/>
<path d="M37.2242 47.2214C39.7161 48.6144 39.1944 52.5658 39.1056 54.9355C39.0997 55.1107 39.0401 55.2798 38.9349 55.42C38.8296 55.5602 38.6838 55.6646 38.5173 55.7191C38.3507 55.7737 38.1713 55.7756 38.0036 55.7248C37.8358 55.674 37.6877 55.5728 37.5794 55.435L37.1355 54.88C37.0245 54.7357 36.8913 54.7098 36.7359 54.8023C30.881 58.3097 25.6698 50.5734 30.9864 47.2103C32.9362 45.9783 35.0155 45.982 37.2242 47.2214ZM37.2636 50.8257C37.2217 50.0762 36.8412 49.3765 36.2057 48.8804C35.5703 48.3843 34.7319 48.1325 33.8752 48.1804C33.0184 48.2283 32.2134 48.572 31.6372 49.1358C31.061 49.6996 30.7609 50.4374 30.8028 51.1869C30.8447 51.9364 31.2252 52.6361 31.8607 53.1322C32.4961 53.6283 33.3344 53.8801 34.1912 53.8322C35.0479 53.7843 35.8529 53.4406 36.4291 52.8768C37.0053 52.313 37.3055 51.5752 37.2636 50.8257Z" fill="white"/>
<path d="M48.218 53.6869L53.1128 53.7591C53.2955 53.7638 53.4711 53.7005 53.6061 53.5812C53.7411 53.4619 53.8259 53.295 53.8445 53.1124C53.863 52.9298 53.8139 52.7442 53.7066 52.5912C53.5993 52.4382 53.4412 52.3284 53.2626 52.2829C51.8142 51.8944 49.672 51.911 48.5732 51.2617C46.714 50.1573 47.158 47.1938 49.4445 46.6666C50.8578 46.341 52.2933 46.2466 53.751 46.3835C54.6057 46.4612 55.0071 46.8719 54.9553 47.6156C54.9429 47.8062 54.8591 47.9853 54.7205 48.1178C54.5819 48.2502 54.3984 48.3264 54.2061 48.3315L49.8829 48.4258C49.7198 48.4318 49.5644 48.4969 49.4459 48.6091C49.3273 48.7213 49.2537 48.8728 49.2387 49.0353C49.2238 49.1979 49.2685 49.3603 49.3646 49.4922C49.4607 49.6241 49.6015 49.7166 49.7608 49.7522C51.6754 50.1518 55.8932 50.2295 55.6379 53.0709C55.3549 56.262 49.9994 55.99 47.946 55.3019C47.756 55.2417 47.594 55.1149 47.4901 54.9448C47.3861 54.7747 47.347 54.5728 47.3801 54.3762C47.4132 54.1796 47.5162 54.0016 47.6702 53.875C47.8242 53.7483 48.0187 53.6815 48.218 53.6869Z" fill="white"/>
<path d="M66.9481 51.0721C66.9416 52.3187 66.3927 53.5115 65.4223 54.3879C64.4519 55.2644 63.1394 55.7528 61.7735 55.7456C61.0972 55.7421 60.4281 55.617 59.8045 55.3775C59.1809 55.138 58.615 54.7888 58.139 54.3498C57.6631 53.9108 57.2864 53.3906 57.0306 52.819C56.7748 52.2473 56.6448 51.6354 56.648 51.0181C56.6545 49.7715 57.2034 48.5787 58.1738 47.7023C59.1443 46.8258 60.4568 46.3374 61.8226 46.3446C62.499 46.3481 63.168 46.4732 63.7916 46.7127C64.4152 46.9522 64.9812 47.3014 65.4571 47.7404C65.933 48.1794 66.3097 48.6995 66.5655 49.2712C66.8213 49.8428 66.9514 50.4548 66.9481 51.0721ZM64.9498 51.0891C64.9628 50.3459 64.6426 49.6274 64.0596 49.0915C63.4767 48.5557 62.6788 48.2465 61.8414 48.2318C61.0041 48.2172 60.1958 48.4984 59.5946 49.0136C58.9933 49.5288 58.6482 50.2357 58.6352 50.9789C58.6223 51.7221 58.9425 52.4406 59.5254 52.9764C60.1083 53.5123 60.9063 53.8215 61.7436 53.8361C62.581 53.8507 63.3892 53.5695 63.9905 53.0544C64.5917 52.5392 64.9368 51.8323 64.9498 51.0891Z" fill="white"/>
<path d="M75.6557 47.0827C78.1087 48.3258 77.748 52.7212 77.3872 54.9299C77.3652 55.0638 77.3145 55.1912 77.2385 55.3036C77.1625 55.4159 77.063 55.5104 76.947 55.5805C76.8309 55.6507 76.701 55.6948 76.5662 55.71C76.4315 55.7251 76.295 55.7108 76.1663 55.6681C75.8037 55.546 75.6113 55.237 75.5891 54.7413C75.5188 53.2687 75.4707 51.7925 75.4448 50.3126C75.3893 47.7708 71.8653 47.8929 70.6166 49.2804C70.4982 49.4136 70.4353 49.5689 70.4279 49.7465L70.2226 54.7302C70.213 54.9504 70.1321 55.1616 69.9919 55.3318C69.8517 55.502 69.66 55.622 69.4456 55.6736C68.8019 55.8253 68.4578 55.5016 68.4134 54.7024C68.2728 52.2716 68.2284 50.714 68.2802 50.0296C68.541 46.389 72.9974 45.7286 75.6557 47.0827Z" fill="white"/>
<path d="M79.1798 53.8368C80.4729 53.2318 82.998 54.0254 84.6573 53.5426C84.804 53.5 84.9322 53.4085 85.0205 53.2834C85.1088 53.1583 85.152 53.0071 85.1429 52.8549C85.1339 52.7027 85.0731 52.5586 84.9706 52.4464C84.8682 52.3343 84.7302 52.2609 84.5796 52.2384C82.6317 51.9221 78.808 52.0054 78.8413 49.1417C78.8746 45.8563 83.4031 46.2226 85.573 46.55C85.7771 46.5803 85.9656 46.6766 86.109 46.8241C86.2525 46.9716 86.3431 47.162 86.3666 47.3658C86.4369 47.9319 86.1354 48.2316 85.462 48.2649C84.1745 48.3352 82.8833 48.3685 81.5883 48.3648C81.4921 48.3649 81.3969 48.3852 81.3089 48.4244C81.221 48.4635 81.1422 48.5208 81.0778 48.5923C80.582 49.1325 80.6356 49.5394 81.2387 49.8132C82.8148 50.5236 84.6074 50.2406 86.4055 51.2173C86.5732 51.3099 86.6999 51.4603 86.7607 51.6391C88.3423 56.3397 81.6605 56.101 79.2519 55.2797C79.1055 55.2295 78.9777 55.1368 78.8849 55.0132C78.792 54.8896 78.7382 54.7409 78.7305 54.5859C78.7227 54.431 78.7613 54.277 78.8414 54.1435C78.9214 54.0101 79.0392 53.9033 79.1798 53.8368Z" fill="white"/>
<path d="M87 63.2128C85.4704 64.3886 83.5812 64.9779 81.3324 64.9807C58.6505 64.9978 35.963 65.0007 13.2697 64.9893C13.0956 64.9893 13.0086 64.9022 13.0086 64.7282L13 63.2L87 63.2128Z" fill="#E64237"/>
</svg>
