<svg width="100" height="100" viewBox="0 0 100 100" fill="none" xmlns="http://www.w3.org/2000/svg">
<rect width="100" height="100" fill="white"/>
<path d="M51.6866 31.37C55.8609 34.6491 49.0865 42.8634 46.7214 45.2135C46.0947 45.8377 46.0636 45.8091 46.6282 45.1277C48.2509 43.1804 49.8624 40.2633 49.9146 37.6035C50.0415 31.4297 41.9465 32.9293 38.5221 34.1566C33.3841 36.0019 28.639 38.5983 24.2869 41.9457C24.2615 41.9654 24.2321 41.9793 24.2009 41.9866C24.1696 41.9939 24.1371 41.9944 24.1056 41.9881C24.0741 41.9817 24.0443 41.9686 24.0183 41.9497C23.9923 41.9308 23.9707 41.9065 23.9549 41.8785L23.2872 40.6997C23.2076 40.558 23.2325 40.4361 23.3618 40.3342C28.6552 36.2382 34.5231 32.7204 40.8722 30.818C43.8117 29.9339 49.1051 29.337 51.6866 31.37Z" fill="#FAC401"/>
<path d="M33.1465 49.0406H37.5447C37.5665 49.0406 37.5882 49.045 37.6083 49.0535C37.6285 49.062 37.6468 49.0744 37.6621 49.09C37.6774 49.1057 37.6894 49.1242 37.6974 49.1446C37.7054 49.1649 37.7093 49.1866 37.7088 49.2085L37.6454 51.9988C37.6404 52.1406 37.567 52.2115 37.4253 52.2115H33.0794C32.9501 52.2115 32.8854 52.2761 32.8854 52.4054L32.9376 57.9078C32.9377 57.9685 32.9138 58.0267 32.8712 58.07C32.8287 58.1133 32.7708 58.1381 32.7101 58.139L29.3266 58.195C29.1053 58.2 28.9946 58.0918 28.9946 57.8705L28.9984 43.7398C28.9984 43.6677 29.0344 43.6316 29.1065 43.6316H38.4101C38.4749 43.6315 38.5372 43.6561 38.5844 43.7005C38.6316 43.7449 38.66 43.8057 38.6638 43.8703C38.7272 44.844 39.0853 46.8099 37.6305 46.8472C36.1209 46.887 34.6076 46.9044 33.0906 46.8994C32.9613 46.8994 32.8966 46.9628 32.8966 47.0897L32.9041 48.7982C32.9041 48.83 32.9103 48.8615 32.9225 48.891C32.9347 48.9204 32.9526 48.9471 32.9751 48.9696C32.9976 48.9921 33.0243 49.01 33.0538 49.0222C33.0832 49.0344 33.1147 49.0406 33.1465 49.0406Z" fill="#028F43"/>
<path d="M16.289 44.0647C16.29 43.9446 16.3384 43.8298 16.4236 43.7453C16.5089 43.6607 16.624 43.6133 16.7441 43.6133L22.1644 43.6207C22.9 43.6216 23.6283 43.7763 24.3075 44.0761C24.9868 44.3758 25.6037 44.8147 26.123 45.3676C26.6423 45.9205 27.0538 46.5766 27.334 47.2984C27.6143 48.0203 27.7577 48.7937 27.7562 49.5744L27.7487 52.2379C27.7456 53.8132 27.1533 55.3228 26.102 56.435C25.0506 57.5472 23.6263 58.171 22.142 58.1692L16.7217 58.1618C16.6616 58.1618 16.6022 58.1499 16.5467 58.1268C16.4912 58.1037 16.4409 58.0698 16.3986 58.0272C16.3563 57.9845 16.3228 57.9339 16.3002 57.8782C16.2775 57.8226 16.2661 57.763 16.2666 57.7029L16.289 44.0647ZM20.2096 47.0751L20.2246 54.7522C20.2246 54.8017 20.2442 54.8491 20.2792 54.8841C20.3142 54.9191 20.3616 54.9387 20.4111 54.9387L21.5153 54.935C21.7946 54.9346 22.071 54.8675 22.3289 54.7373C22.5867 54.6072 22.8209 54.4167 23.018 54.1766C23.2151 53.9365 23.3713 53.6517 23.4777 53.3382C23.584 53.0248 23.6384 52.6889 23.6379 52.3498L23.6304 49.4625C23.6292 48.778 23.4041 48.122 23.0047 47.6386C22.6053 47.1552 22.0641 46.8841 21.5003 46.8848L20.3961 46.8886C20.3467 46.8886 20.2992 46.9082 20.2643 46.9432C20.2293 46.9782 20.2096 47.0256 20.2096 47.0751Z" fill="#028F43"/>
<path d="M43.2269 43.6289L39.5115 43.6419C39.4455 43.6421 39.3923 43.6958 39.3925 43.7617L39.4424 58.049C39.4426 58.1149 39.4962 58.1682 39.5622 58.1679L43.2776 58.155C43.3435 58.1547 43.3968 58.1011 43.3966 58.0352L43.3467 43.7479C43.3465 43.682 43.2928 43.6287 43.2269 43.6289Z" fill="#028F43"/>
<path d="M47.2622 56.7815H48.8476C48.9058 56.7816 48.9632 56.795 49.0156 56.8209C49.068 56.8468 49.1139 56.8843 49.1497 56.9307C49.4332 57.2963 49.4743 57.6806 49.2728 58.0834C49.2107 58.2103 49.1087 58.2737 48.9669 58.2737H45.2589C45.1719 58.2737 45.0884 58.2395 45.0268 58.1786C44.9652 58.1178 44.9307 58.0352 44.9307 57.9491V48.0039C44.9307 47.8547 45.0053 47.7776 45.1545 47.7727L46.822 47.7279C46.8549 47.7269 46.8877 47.7325 46.9185 47.7445C46.9492 47.7564 46.9772 47.7744 47.0009 47.7973C47.0246 47.8203 47.0434 47.8478 47.0562 47.8781C47.069 47.9085 47.0756 47.9411 47.0756 47.9741V56.595C47.0756 56.7194 47.1378 56.7815 47.2622 56.7815Z" fill="#FAC401"/>
<path d="M55.2665 55.5344C55.2652 55.8964 55.1927 56.2546 55.053 56.5886C54.9133 56.9226 54.7091 57.2258 54.4522 57.4809C54.1954 57.736 53.8908 57.938 53.5558 58.0754C53.2209 58.2127 52.8621 58.2828 52.5001 58.2815L52.1495 58.2803C51.4183 58.2777 50.7181 57.9848 50.203 57.466C49.6878 56.9472 49.3998 56.245 49.4024 55.5139L49.4199 50.5003C49.4211 50.1383 49.4937 49.7801 49.6334 49.4461C49.7731 49.1121 49.9772 48.8089 50.2341 48.5538C50.491 48.2987 50.7956 48.0967 51.1305 47.9593C51.4655 47.822 51.8242 47.7519 52.1862 47.7532L52.5369 47.7544C53.268 47.757 53.9682 48.0499 54.4834 48.5687C54.9985 49.0875 55.2865 49.7897 55.284 50.5208L55.2665 55.5344ZM53.231 49.8503C53.231 49.6603 53.1555 49.4781 53.0212 49.3438C52.8869 49.2095 52.7047 49.134 52.5148 49.134H52.47C52.28 49.134 52.0979 49.2095 51.9635 49.3438C51.8292 49.4781 51.7538 49.6603 51.7538 49.8503V56.1546C51.7538 56.3446 51.8292 56.5267 51.9635 56.6611C52.0979 56.7954 52.28 56.8708 52.47 56.8708H52.5148C52.7047 56.8708 52.8869 56.7954 53.0212 56.6611C53.1555 56.5267 53.231 56.3446 53.231 56.1546V49.8503Z" fill="#FAC401"/>
<path d="M58.5843 56.6696C59.0145 57.0675 59.349 56.9904 59.5877 56.4383C59.8563 55.8191 59.9148 55.1949 59.7631 54.5657C59.7489 54.5093 59.723 54.4563 59.687 54.4101C59.6511 54.3639 59.6059 54.3254 59.5542 54.2971C59.2607 54.1355 59.0294 53.9067 58.8603 53.6107C58.8277 53.554 58.8107 53.4897 58.811 53.4243C58.8113 53.3589 58.829 53.2946 58.8623 53.2379C58.8955 53.1813 58.9432 53.1342 59.0004 53.1014C59.0577 53.0686 59.1226 53.0513 59.1886 53.0512H61.6245C61.811 53.0512 61.9043 53.1444 61.9043 53.3309V58.0797C61.9044 58.1415 61.8809 58.201 61.8386 58.2461C61.7964 58.2912 61.7384 58.3184 61.6768 58.3222C61.2515 58.3446 60.8436 58.2737 60.4532 58.1096C60.3338 58.0598 60.2132 58.0511 60.0913 58.0834C55.6037 59.2548 55.8797 54.9425 55.9208 52.0402C55.9382 50.7147 56.1272 49.7448 56.4878 49.1305C57.9874 46.564 62.7698 47.7018 61.6096 51.2941C61.5698 51.416 61.4853 51.4757 61.3559 51.4732L59.8936 51.4359C59.8631 51.4356 59.833 51.4284 59.8056 51.4148C59.7782 51.4012 59.7542 51.3816 59.7352 51.3572C59.7163 51.3329 59.7029 51.3046 59.6961 51.2743C59.6893 51.2441 59.6893 51.2126 59.6959 51.1822C59.8352 50.5406 59.7394 49.9413 59.4087 49.3842C59.3408 49.2702 59.2374 49.1816 59.1145 49.1319C58.9915 49.0821 58.8556 49.074 58.7276 49.1086C58.5995 49.1433 58.4863 49.2189 58.4052 49.3238C58.3241 49.4288 58.2796 49.5574 58.2784 49.6901L58.2635 55.9385C58.2623 56.0757 58.2902 56.2117 58.3455 56.3377C58.4008 56.4637 58.4822 56.5768 58.5843 56.6696Z" fill="#FAC401"/>
<path d="M64.7426 47.7829L63.1311 47.7773C62.9848 47.7768 62.8658 47.8949 62.8653 48.0412L62.8304 58.0311C62.8299 58.1774 62.9481 58.2964 63.0943 58.2969L64.7059 58.3025C64.8521 58.303 64.9711 58.1849 64.9716 58.0386L65.0065 48.0487C65.007 47.9024 64.8889 47.7834 64.7426 47.7829Z" fill="#FAC401"/>
<path d="M68.8873 49.4102C68.8344 49.3388 68.763 49.2832 68.6808 49.2493C68.5986 49.2154 68.5087 49.2047 68.4209 49.2181C68.333 49.2315 68.2504 49.2687 68.1821 49.3255C68.1138 49.3824 68.0623 49.4568 68.0331 49.5408C67.4026 51.3314 72.7595 53.883 71.3046 56.8225C70.0288 59.4002 64.5713 58.5347 65.9814 55.1998C66.0411 55.058 66.148 54.9909 66.3022 54.9983L67.4959 55.0543C67.6476 55.0618 67.7384 55.1388 67.7682 55.2856L68.0256 56.5054C68.058 56.6497 68.1425 56.7491 68.2793 56.8038C68.7916 57.0127 69.1149 56.8722 69.2492 56.3823C69.5402 55.3117 67.4623 53.3383 66.7722 52.5176C63.3738 48.4664 69.7938 45.9111 71.2375 49.3617C71.5434 50.0892 71.6665 52.3013 70.2042 51.917C68.9582 51.585 69.5887 50.3652 68.8873 49.4102Z" fill="#FAC401"/>
<path d="M71.6738 47.7502L76.7695 47.8584C76.8242 47.8596 76.8776 47.8746 76.9246 47.902C76.9716 47.9294 77.0107 47.9684 77.0381 48.0151C77.2569 48.3906 77.2209 48.7151 76.9299 48.9887C76.8319 49.0821 76.701 49.1341 76.5643 49.1342H75.5198C75.3955 49.1342 75.3333 49.1963 75.3333 49.3207V57.9938C75.3333 58.1803 75.2401 58.2736 75.0535 58.2736H73.3823C73.2008 58.2736 73.11 58.1828 73.11 58.0013L73.0876 49.3617C73.0876 49.3014 73.0636 49.2435 73.021 49.2008C72.9783 49.1581 72.9204 49.1342 72.8601 49.1342H71.741C71.5818 49.1342 71.496 49.0558 71.4836 48.8992L71.4201 48.0151C71.4077 47.8335 71.4923 47.7452 71.6738 47.7502Z" fill="#FAC401"/>
<path d="M79.3997 47.7727H77.8851C77.7121 47.7727 77.5718 47.913 77.5718 48.0861V57.9641C77.5718 58.1372 77.7121 58.2775 77.8851 58.2775H79.3997C79.5727 58.2775 79.713 58.1372 79.713 57.9641V48.0861C79.713 47.913 79.5727 47.7727 79.3997 47.7727Z" fill="#FAC401"/>
<path d="M83.585 49.3992C83.4932 49.3733 83.3966 49.369 83.3029 49.3866C83.2091 49.4042 83.1207 49.4432 83.0445 49.5007C82.9683 49.5581 82.9064 49.6323 82.8636 49.7176C82.8209 49.8029 82.7984 49.8969 82.7979 49.9923C82.7929 51.9221 82.7917 53.8619 82.7942 55.8117C82.7979 56.6212 83.1075 57.0651 83.9879 56.7219C84.0433 56.6996 84.0911 56.6613 84.1255 56.6116C84.1599 56.562 84.1795 56.5031 84.1819 56.4421L84.2155 55.3379C84.2204 55.1614 84.3125 55.0768 84.4915 55.0843L85.9277 55.1477C85.9601 55.1491 85.9918 55.157 86.0212 55.1709C86.0505 55.1848 86.0768 55.2044 86.0987 55.2287C86.1205 55.2529 86.1374 55.2813 86.1484 55.3122C86.1594 55.3431 86.1642 55.376 86.1627 55.4088C86.1453 55.8366 86.1093 56.2531 86.0545 56.6585C85.7822 58.7363 82.5741 58.6729 81.4028 57.4904C80.265 56.3451 80.6044 51.8873 80.7574 50.3429C81.1118 46.7282 86.5246 46.8177 86.1217 50.8204C86.0371 51.661 85.5062 51.993 84.5288 51.8164C84.2652 51.7692 84.1446 51.6125 84.167 51.3464L84.2938 49.8356C84.2989 49.7713 84.2816 49.7073 84.2449 49.6542C84.2082 49.6012 84.1543 49.5625 84.0924 49.5446L83.585 49.3992Z" fill="#FAC401"/>
<path d="M89.0052 49.2907C88.9006 49.3423 88.8091 49.4169 88.7373 49.5089C88.6655 49.6008 88.6154 49.7078 88.5907 49.8218C88.5659 49.9358 88.5672 50.0539 88.5944 50.1673C88.6216 50.2807 88.6741 50.3865 88.7478 50.4769C90.2847 52.3682 92.0306 53.685 91.8366 56.3672C91.6314 59.1724 86.0284 59.1762 86.4238 55.5017C86.4362 55.3774 86.4996 55.2879 86.614 55.2332C87.1686 54.9596 87.722 54.9409 88.2741 55.1772C88.3466 55.2098 88.407 55.2645 88.4465 55.3336C88.486 55.4026 88.5027 55.4824 88.4941 55.5614C88.4345 56.0464 88.5688 56.4555 88.897 56.7887C88.9948 56.8896 89.1242 56.9541 89.2636 56.9713C89.4031 56.9885 89.5442 56.9575 89.6636 56.8834C89.783 56.8094 89.8734 56.6967 89.9199 56.5641C89.9664 56.4315 89.9662 56.287 89.9192 56.1546C89.5237 55.023 88.9381 54.0469 88.1621 53.2262C83.3761 48.1454 90.6652 46.1348 91.7582 49.216C91.9249 49.6911 91.9236 50.5279 91.7545 51.7266C91.749 51.7636 91.7363 51.7992 91.7171 51.8312C91.698 51.8633 91.6728 51.8912 91.6429 51.9134C91.6131 51.9356 91.5793 51.9516 91.5434 51.9606C91.5074 51.9695 91.4702 51.9711 91.4337 51.9653L90.3258 51.7975C90.1392 51.7701 90.0423 51.6619 90.0348 51.4729C90.0174 50.9358 89.9502 50.4197 89.8334 49.9248C89.6866 49.3006 89.4106 49.0892 89.0052 49.2907Z" fill="#FAC401"/>
<path d="M8 66.6481V63.3878C8.92265 60.6049 10.3265 58.1491 12.2116 56.0203C12.8483 55.3015 12.8868 55.3289 12.3272 56.1023C10.6672 58.3965 8.52971 63.5183 11.8013 65.4954C18.0385 69.2631 31.0538 61.3398 36.0935 57.6094C36.2353 57.5049 36.341 57.5335 36.4106 57.6952L36.8582 58.7621C36.9129 58.8914 36.8856 59.0008 36.7762 59.0904C30.7553 64.0393 23.7509 67.4079 15.7629 69.196C12.1793 69.9992 9.59163 69.15 8 66.6481Z" fill="#028F43"/>
</svg>
