<svg width="100" height="100" viewBox="0 0 100 100" fill="none" xmlns="http://www.w3.org/2000/svg">
<rect width="100" height="100" fill="#00306E"/>
<path d="M47.9827 28.5656L48.0146 52.1571C48.0118 52.5238 47.8803 52.8779 47.6431 53.1576C47.406 53.4374 47.0781 53.625 46.7168 53.6877C46.3554 53.7505 45.9835 53.6844 45.6659 53.5011C45.3483 53.3177 45.1051 53.0286 44.9788 52.6843L37.0138 30.483C36.9357 30.2676 36.9058 30.0378 36.9261 29.8097C36.9465 29.5815 37.0167 29.3607 37.1317 29.1626C37.2467 28.9645 37.4038 28.7941 37.5919 28.6633C37.7799 28.5326 37.9944 28.4447 38.2201 28.4058L46.1452 27.0237C46.3703 26.9841 46.6014 26.9942 46.8222 27.0534C47.043 27.1126 47.2482 27.2194 47.4233 27.3664C47.5985 27.5133 47.7393 27.6968 47.8359 27.904C47.9325 28.1112 47.9826 28.337 47.9827 28.5656Z" fill="#FFC300"/>
<path d="M61.428 28.6534C61.6182 28.7128 61.7944 28.81 61.946 28.9393C62.0977 29.0685 62.2216 29.227 62.3104 29.4054C62.3992 29.5837 62.4511 29.7782 62.4628 29.9771C62.4745 30.176 62.4459 30.3752 62.3787 30.5628L54.3818 52.9798C54.2702 53.2995 54.0489 53.5691 53.7572 53.7409C53.4654 53.9127 53.1222 53.9754 52.7886 53.9179C52.455 53.8603 52.1526 53.6863 51.9353 53.4268C51.7179 53.1672 51.5997 52.839 51.6016 52.5005V28.1501C51.6015 28.0173 51.6282 27.8858 51.6799 27.7635C51.7317 27.6411 51.8075 27.5305 51.9029 27.4381C51.9983 27.3456 52.1114 27.2733 52.2353 27.2255C52.3592 27.1776 52.4914 27.1552 52.6242 27.1595C55.6334 27.2606 58.568 27.7586 61.428 28.6534Z" fill="#FFC300"/>
<path d="M32.5479 31.6255L41.8551 53.9946C41.9926 54.3277 42.0084 54.6987 41.8997 55.0423C41.791 55.386 41.5648 55.6803 41.2607 55.8738C40.9566 56.0673 40.5941 56.1476 40.2368 56.1005C39.8795 56.0534 39.5502 55.882 39.3066 55.6164L22.7375 37.3855C22.5828 37.2154 22.4683 37.0128 22.4025 36.7925C22.3367 36.5722 22.3213 36.34 22.3574 36.113C22.3934 35.8859 22.48 35.6699 22.6108 35.4809C22.7416 35.2918 22.9132 35.1346 23.1129 35.0208L30.3669 30.8825C30.556 30.7739 30.766 30.7069 30.9831 30.6858C31.2001 30.6648 31.4191 30.6903 31.6255 30.7606C31.8319 30.831 32.0209 30.9445 32.18 31.0936C32.339 31.2427 32.4645 31.424 32.5479 31.6255Z" fill="#FFC300"/>
<path d="M75.9923 38.2244L60.1821 55.6243C59.9385 55.8871 59.6105 56.0563 59.2551 56.1025C58.8998 56.1487 58.5395 56.0691 58.2367 55.8774C57.934 55.6856 57.7079 55.394 57.5977 55.053C57.4876 54.712 57.5003 54.3432 57.6336 54.0106L66.6532 32.2965C66.7386 32.0899 66.8681 31.9044 67.0327 31.753C67.1974 31.6017 67.3931 31.4882 67.6062 31.4205C67.8193 31.3527 68.0446 31.3324 68.2664 31.3609C68.4882 31.3894 68.7011 31.4661 68.8901 31.5855L75.6807 35.8996C75.8691 36.0196 76.0291 36.1793 76.1493 36.3676C76.2696 36.5558 76.3473 36.7681 76.3769 36.9895C76.4066 37.2109 76.3876 37.4362 76.3211 37.6495C76.2547 37.8628 76.1425 38.059 75.9923 38.2244Z" fill="#FFC300"/>
<path d="M12.6562 48.0428C12.4961 47.9605 12.3552 47.8453 12.2427 47.7048C12.1302 47.5643 12.0487 47.4016 12.0035 47.2273C11.9582 47.0531 11.9503 46.8713 11.9801 46.6938C12.01 46.5163 12.077 46.3471 12.1768 46.1973C13.9877 43.5184 16.0834 41.0977 18.4642 38.9354C18.7128 38.71 19.0407 38.592 19.377 38.607C19.7133 38.6219 20.0311 38.7686 20.2617 39.0152L37.6936 57.7254C37.9243 57.9748 38.0603 58.2978 38.0776 58.6377C38.0949 58.9775 37.9924 59.3124 37.7881 59.5835C37.5839 59.8545 37.291 60.0443 36.961 60.1194C36.631 60.1946 36.285 60.1503 35.984 59.9943L12.6562 48.0428Z" fill="#FFC300"/>
<path d="M85.3713 48.7859L63.7451 59.8986C63.4289 60.0629 63.0647 60.11 62.717 60.0317C62.3694 59.9534 62.0606 59.7546 61.8454 59.4705C61.6302 59.1864 61.5224 58.8354 61.5411 58.4795C61.5598 58.1236 61.7038 57.7858 61.9476 57.5259L78.1652 40.2137C78.3095 40.0602 78.4844 39.9385 78.6785 39.8566C78.8727 39.7747 79.0818 39.7343 79.2925 39.738C79.5032 39.7418 79.7108 39.7896 79.9019 39.8784C80.093 39.9672 80.2634 40.0951 80.4021 40.2537L85.8187 46.4531C85.9688 46.6258 86.0777 46.8303 86.1372 47.0512C86.1967 47.2721 86.2053 47.5036 86.1622 47.7283C86.1191 47.953 86.0255 48.1649 85.8885 48.3482C85.7515 48.5314 85.5746 48.6811 85.3713 48.7859Z" fill="#FFC300"/>
<path d="M35.5199 62.6947C35.8075 63.2859 35.5945 63.9197 34.8808 64.5961C34.7832 64.6884 34.6673 64.7579 34.5415 64.7993C34.4157 64.8408 34.2832 64.8533 34.1538 64.8357L8.34939 61.049C7.17768 60.8785 6.64508 60.2021 6.7516 59.0198C7.00724 56.2982 7.96858 53.4728 9.63562 50.5435C10.2215 49.5156 10.9698 49.2413 11.8805 49.7206C19.4008 53.7204 26.9131 57.7335 34.4174 61.76C35.0033 62.0742 35.3708 62.3858 35.5199 62.6947Z" fill="#FFC300"/>
<path d="M91.9861 60.7452L65.4946 64.7956C65.1488 64.8437 64.7971 64.7692 64.5005 64.5849C64.204 64.4007 63.9813 64.1184 63.8712 63.7871C63.7611 63.4558 63.7705 63.0964 63.8977 62.7713C64.025 62.4462 64.2621 62.176 64.5679 62.0075L86.7852 50.1918C87.1312 50.006 87.5363 49.9638 87.9131 50.0744C88.2899 50.1851 88.6079 50.4396 88.7985 50.783L93.0726 58.5403C93.1902 58.7514 93.2549 58.988 93.261 59.2297C93.2671 59.4713 93.2144 59.7108 93.1076 59.9277C93.0007 60.1445 92.8429 60.3322 92.6475 60.4746C92.4522 60.617 92.2252 60.7098 91.9861 60.7452Z" fill="#FFC300"/>
<path d="M38.2122 64.0448C42.9177 52.9002 57.4657 53.2197 61.8916 64.6679C61.9151 64.727 61.9259 64.7903 61.9231 64.8538C61.9202 64.9173 61.9039 64.9795 61.8752 65.0361C61.8465 65.0928 61.806 65.1428 61.7565 65.1826C61.7069 65.2224 61.6495 65.2512 61.588 65.2671C54.0038 67.291 46.4142 67.299 38.8194 65.2911C38.6925 65.257 38.5744 65.196 38.4731 65.1124C38.3717 65.0288 38.2895 64.9243 38.232 64.8062C38.1744 64.6881 38.1429 64.559 38.1395 64.4277C38.1361 64.2963 38.1609 64.1657 38.2122 64.0448Z" fill="#FFC300"/>
</svg>
