<svg width="100" height="100" viewBox="0 0 100 100" fill="none" xmlns="http://www.w3.org/2000/svg">
<rect width="100" height="100" fill="#226C4D"/>
<rect x="20" y="14" width="60" height="73" rx="9" fill="white"/>
<path d="M37.8415 78.9132C47.4747 78.946 57.1293 78.946 66.8052 78.9132C69.5266 78.9082 71.6169 78.4647 71.6317 75.3546C71.6547 68.8452 71.6531 53.2209 71.6268 28.4814C71.6219 24.5236 71.7698 22.2366 67.2292 22.2415C55.463 22.2514 43.7033 22.2514 31.9501 22.2415C28.3907 22.2366 28.2181 24.6961 28.2921 27.6928C28.5583 38.8862 28.2181 48.0834 28.2477 62.5544C28.2576 69.6371 26.3743 74.5068 19.5512 77.6021C19.4958 77.6276 19.435 77.6386 19.3742 77.6341C19.3134 77.6297 19.2545 77.6099 19.2031 77.5765C19.1516 77.5432 19.1091 77.4974 19.0795 77.4434C19.0499 77.3893 19.0341 77.3286 19.0335 77.267C19.0007 59.1913 18.9958 41.0697 19.0188 22.902C19.0286 15.9376 20.2808 13 27.5575 13C42.4823 13.0066 57.4087 13.0082 72.3367 13.0049C78.5633 13.0049 80.7571 15.1736 80.7571 21.3248C80.7604 41.3884 80.7588 61.4503 80.7522 81.5107C80.7522 86.4838 77.454 87.928 73.022 87.928C57.6667 87.9214 42.3147 87.9214 26.9659 87.928C24.7408 87.928 23.1731 87.6898 22.2627 87.2133C19.285 85.6558 18.6786 81.9543 19.1371 78.8343C19.1601 78.6733 19.2455 78.5599 19.3934 78.4942C29.2074 74.1141 37.8399 68.1913 45.2907 60.7258C50.9208 55.0823 57.1079 46.5061 57.1326 38.1074C57.1572 29.3489 50.0925 26.2191 42.4313 26.3522C42.3557 26.3522 42.3147 26.3144 42.3081 26.2388C42.3015 26.1731 42.3064 26.1238 42.3229 26.091C42.3262 26.0844 42.3327 26.0811 42.3426 26.0811C46.1847 25.5619 49.6998 25.81 52.8879 26.8253C65.1488 30.7388 63.2211 43.4848 58.8532 52.5982C54.0415 62.6382 46.1683 71.4904 37.7626 78.7062C37.7446 78.7221 37.7318 78.7432 37.726 78.7665C37.7202 78.7899 37.7217 78.8145 37.7303 78.837C37.7389 78.8595 37.7541 78.8789 37.774 78.8925C37.7939 78.9061 37.8174 78.9133 37.8415 78.9132Z" fill="#226C4D"/>
<path d="M60.1945 52.0018C60.257 51.8671 60.3112 51.7915 60.3572 51.7751C60.538 51.7127 60.607 51.7702 60.5643 51.9476C58.2899 61.503 54.0616 70.0873 47.8794 77.7007C47.7479 77.8617 47.5787 77.9422 47.3716 77.9422H40.721C40.3168 77.9422 40.2708 77.8141 40.583 77.5578C49.0626 70.5687 55.5998 62.0501 60.1945 52.0018Z" fill="#A38E5C"/>
</svg>
