<svg width="100" height="100" viewBox="0 0 100 100" fill="none" xmlns="http://www.w3.org/2000/svg">
<rect width="100" height="100" fill="#082639"/>
<path d="M65.2056 34.5527C65.1991 36.4625 65.1677 37.851 65.2612 39.1257" stroke="#6DABA6" stroke-width="0.18514"/>
<path d="M65.2612 39.1255C65.4529 40.8519 66.3017 42.4756 67.4153 43.7781" stroke="#61A59F" stroke-width="0.18514"/>
<path d="M67.4141 43.7783C68.2657 44.7639 69.2584 45.6556 70.392 46.4536" stroke="#4E9F9A" stroke-width="0.18514"/>
<path d="M53.4343 26.9341C53.5324 25.7566 53.5065 24.697 53.3565 23.7553C52.6021 19.012 48.7836 15.3767 43.9736 14.813" stroke="#4E9F9A" stroke-width="0.18514"/>
<path d="M43.9738 14.8133C42.9574 14.7003 41.9576 14.7346 40.9745 14.916C40.9202 14.9259 40.8872 14.891 40.8755 14.8114" stroke="#61A59F" stroke-width="0.18514"/>
<path d="M43.9739 14.813C43.9646 14.9056 43.9597 14.9938 43.959 15.0777C43.947 17.3698 43.8998 19.6646 43.9183 21.9566C43.9455 25.3953 43.9587 28.8636 43.9581 32.3615" stroke="#35787C" stroke-width="0.18514"/>
<path d="M43.958 32.3616C43.2402 33.0454 42.4136 33.6156 41.478 34.0723C40.6862 34.458 39.8241 34.6903 38.8916 34.7693" stroke="#61A59F" stroke-width="0.18514"/>
<path d="M38.8919 34.7694C38.8548 34.7453 38.8129 34.7305 38.766 34.7249C38.7438 34.7225 38.7314 34.7098 38.7289 34.687C38.7197 34.5916 38.753 34.5083 38.753 34.4259C38.7524 29.5327 38.7527 24.6394 38.7539 19.7462C38.7539 19.5376 38.7635 19.2997 38.7826 19.0325C38.8326 18.3447 38.7243 17.7263 38.7595 17.0589C38.7613 17.0262 38.7509 16.9978 38.728 16.9737L38.5679 16.8062" stroke="#558588" stroke-width="0.18514"/>
<path d="M46.2963 29.6084C45.6088 30.6372 44.8294 31.5548 43.958 32.3614" stroke="#4E9F9A" stroke-width="0.18514"/>
<path d="M38.8914 34.7693L34.3555 34.7739" stroke="#6DABA6" stroke-width="0.18514"/>
<path d="M26.8784 46.6033C26.5001 46.5626 26.1308 46.5373 25.7703 46.5274C19.4062 46.3515 14.2815 51.6808 14.7897 58.082" stroke="#4E9F9A" stroke-width="0.18514"/>
<path d="M14.7891 58.0823C14.81 58.4063 14.8499 58.7287 14.9085 59.0496C14.9356 59.1965 14.9146 59.274 14.8455 59.282" stroke="#61A59F" stroke-width="0.18514"/>
<path d="M82.9847 38.6589C82.9569 38.7206 82.9699 38.7854 83.0236 38.8533C83.0581 38.8959 83.0492 38.9092 82.9967 38.8931C82.9153 38.8685 82.8576 38.8876 82.8236 38.9505C82.8082 38.9783 82.7847 38.9916 82.7533 38.9903C81.9127 38.9521 81.0716 38.9345 80.2298 38.9376C76.2746 38.9524 72.3197 38.9536 68.3651 38.9413C67.3894 38.9385 66.3332 38.8996 65.3973 39.0403C65.3831 39.0422 65.3711 39.0382 65.3612 39.0283L65.3344 39.0014C65.3177 38.9848 65.3032 38.9863 65.2909 39.0061C65.273 39.0357 65.2631 39.0755 65.2612 39.1255" stroke="#558588" stroke-width="0.18514"/>
<path d="M85.0034 40.9578C85.1157 41.931 85.1602 42.8536 85.1367 43.7256" stroke="#61A59F" stroke-width="0.18514"/>
<path d="M85.1357 43.7256C85.1085 43.7374 85.0906 43.7266 85.082 43.6932C85.0746 43.6655 85.0588 43.6593 85.0348 43.6747C84.9416 43.7333 84.8499 43.7315 84.7598 43.6692C84.7339 43.6513 84.7049 43.6432 84.6728 43.6451C84.0757 43.6867 83.3676 43.6608 82.8945 43.6608C78.0605 43.6627 73.2265 43.6627 68.3916 43.6664C68.2972 43.6664 68.1657 43.7219 68.0611 43.6571C68.0346 43.6411 68.0059 43.6331 67.975 43.6331C67.7806 43.6331 67.5936 43.6815 67.4141 43.7784" stroke="#35787C" stroke-width="0.18514"/>
<path d="M65.8064 65.449L61.7417 65.4601" stroke="#6DABA6" stroke-width="0.18514"/>
<path d="M61.7417 65.4602C59.7727 65.3639 57.9371 66.2276 56.4893 67.5115" stroke="#61A59F" stroke-width="0.18514"/>
<path d="M56.4895 67.5115C55.4848 68.4069 54.6063 69.4798 53.854 70.7301" stroke="#4E9F9A" stroke-width="0.18514"/>
<path d="M73.0391 53.5915C73.2532 53.597 73.4618 53.6081 73.6648 53.6248C79.668 54.1182 84.602 49.6276 85.1361 43.7253" stroke="#4E9F9A" stroke-width="0.18514"/>
<path d="M30.0225 53.7742C30.847 54.3413 31.6289 55.0186 32.3682 55.8061C32.9699 56.4461 33.4886 57.1465 33.9243 57.9074" stroke="#4E9F9A" stroke-width="0.18514"/>
<path d="M33.9242 57.9072C33.4509 57.9609 32.9775 57.9878 32.5042 57.9878C26.6741 57.9853 20.8441 57.9841 15.014 57.9841C14.9572 57.9841 14.9322 58.0109 14.939 58.0646C14.9409 58.0813 14.9335 58.0893 14.9168 58.0887L14.7891 58.0822" stroke="#35787C" stroke-width="0.18514"/>
<path d="M46.7632 73.0332C46.5845 75.0938 46.7715 77.1387 47.6334 78.9808C49.3487 82.6438 52.672 84.9812 56.7784 85.2774" stroke="#4E9F9A" stroke-width="0.18514"/>
<path d="M56.7793 85.2773C57.6032 85.3205 58.4215 85.2715 59.2343 85.1301C59.3102 85.1172 59.35 85.1409 59.3537 85.2014" stroke="#61A59F" stroke-width="0.18514"/>
<path d="M34.9579 65.7137L34.9561 63.231" stroke="#6DABA6" stroke-width="0.18514"/>
<path d="M34.9565 63.2309C34.9611 62.3404 35.0009 61.3629 34.875 60.5668C34.7269 59.6275 34.41 58.741 33.9243 57.9072" stroke="#61A59F" stroke-width="0.18514"/>
<path d="M34.9563 63.2309C34.8026 63.2691 34.5234 63.2886 34.1185 63.2892C29.603 63.2975 24.8449 63.2707 20.5857 63.2253C20.3015 63.2225 19.7998 63.0818 19.4915 63.167C19.4582 63.1763 19.4372 63.1979 19.4286 63.2318C19.4199 63.267 19.4058 63.2815 19.386 63.2753C19.3514 63.2642 19.3218 63.2722 19.2971 63.2994C19.2613 63.3407 19.2422 63.3814 19.2397 63.4216" stroke="#558588" stroke-width="0.18514"/>
<path d="M61.7416 65.4602L61.5722 65.6361C61.552 65.6575 61.5407 65.686 61.5407 65.7157C61.5623 70.8212 61.553 75.5553 61.5129 79.9178C61.5055 80.7833 61.5463 81.5489 61.4916 82.3579C61.4737 82.6202 61.4713 82.8834 61.4842 83.1476C61.4849 83.171 61.4941 83.175 61.512 83.1596L61.699 82.9985C61.7218 82.9782 61.7292 82.9828 61.7212 83.0124C61.7163 83.0328 61.7052 83.0497 61.6879 83.0633C61.6632 83.0825 61.6666 83.0933 61.6981 83.0957L61.736 83.0994" stroke="#558588" stroke-width="0.18514"/>
<path d="M56.779 85.2775C56.7815 85.2658 56.7873 85.2556 56.7966 85.247C56.8114 85.2334 56.8117 85.2192 56.7975 85.2044L56.7753 85.1822C56.7648 85.1717 56.7642 85.1606 56.7734 85.1489C56.7858 85.1328 56.787 85.1112 56.7771 85.0841C56.771 85.0686 56.7577 85.0606 56.7373 85.06C56.7157 85.0587 56.7046 85.0476 56.704 85.0267C56.6864 84.5138 56.7586 83.9473 56.7577 83.4983C56.7503 79.74 56.7596 75.9789 56.7161 72.2205C56.7161 72.1897 56.7235 72.1415 56.7383 72.0761C56.766 71.9558 56.7114 71.804 56.7124 71.7151C56.717 71.0569 56.7596 70.4219 56.717 69.7452C56.7022 69.5125 56.6969 69.2644 56.7012 69.0009C56.7093 68.5918 56.6954 68.1172 56.6596 67.5772C56.6585 67.5623 56.6522 67.5484 56.6419 67.5378C56.6315 67.5273 56.6177 67.5209 56.6031 67.5198L56.4893 67.5115" stroke="#35787C" stroke-width="0.18514"/>
<path d="M48.9893 12H50.6305C58.561 12.5082 65.2196 18.9705 65.2075 27.0649C65.2032 29.5587 65.2026 32.0547 65.2057 34.5528C65.1992 36.4626 65.1677 37.8511 65.2612 39.1258C65.4528 40.8522 66.3017 42.4759 67.4153 43.7784C68.267 44.7639 69.2596 45.6557 70.3933 46.4536C67.9599 46.4376 65.5689 46.4296 63.22 46.4296C59.047 46.4305 54.4065 45.1817 53.5826 40.4588C53.511 40.0497 53.469 39.4344 53.4567 38.613C53.3984 34.7204 53.4622 30.8213 53.4345 26.9343C53.5326 25.7568 53.5067 24.6972 53.3567 23.7555C52.6023 19.0122 48.7837 15.377 43.9738 14.8132C42.9574 14.7003 41.9576 14.7345 40.9745 14.916C40.9202 14.9258 40.8872 14.891 40.8755 14.8114C43.299 13.1155 46.0036 12.1784 48.9893 12Z" fill="#79CBBD"/>
<path fill-rule="evenodd" clip-rule="evenodd" d="M43.9582 32.3618V32.3612C44.8295 31.5547 45.6088 30.6371 46.2962 29.6085C46.3098 28.9833 46.3265 28.3326 46.3462 27.6562C46.3598 27.1933 46.4107 26.8196 46.499 26.5352C47.6144 22.9481 52.6604 23.3045 53.4343 26.9341C53.5324 25.7566 53.5065 24.697 53.3565 23.7553C52.6021 19.012 48.7836 15.3768 43.9736 14.813L43.9736 14.8132C42.9573 14.7004 41.9577 14.7346 40.9747 14.916C40.9203 14.9259 40.8873 14.891 40.8756 14.8114C40.04 15.4131 39.2708 16.0781 38.5678 16.8063L38.728 16.9739C38.7508 16.9979 38.7613 17.0263 38.7595 17.059C38.7428 17.3756 38.7584 17.6811 38.774 17.9882V17.9882C38.7914 18.3286 38.8089 18.671 38.7826 19.0326C38.7635 19.2998 38.7539 19.5377 38.7539 19.7463C38.7527 24.6396 38.7524 29.5328 38.753 34.4261C38.753 34.4612 38.7469 34.4965 38.7407 34.5328C38.7323 34.5817 38.7236 34.6324 38.7289 34.6871C38.7305 34.7021 38.7363 34.7126 38.7464 34.7189C38.7361 34.7127 38.7301 34.702 38.7285 34.6869C38.7232 34.6322 38.7319 34.5814 38.7403 34.5325C38.7465 34.4962 38.7525 34.4609 38.7525 34.4258C38.7519 29.5326 38.7522 24.6393 38.7535 19.7461C38.7535 19.5375 38.763 19.2996 38.7822 19.0324C38.8085 18.6708 38.791 18.3283 38.7736 17.9879C38.7579 17.6808 38.7423 17.3753 38.759 17.0588C38.7609 17.0261 38.7504 16.9977 38.7276 16.9736L38.5674 16.8061C35.906 19.6405 34.3555 23.2619 34.3555 27.1591V34.7739L38.8914 34.7693C38.8892 34.7678 38.8869 34.7664 38.8847 34.765C38.8871 34.7665 38.8895 34.768 38.8918 34.7695C39.8243 34.6905 40.6865 34.4582 41.4782 34.0725C42.4138 33.6158 43.2405 33.0456 43.9582 32.3618Z" fill="url(#paint0_linear_49_1525)"/>
<path d="M46.2963 29.6084C46.2802 32.3577 46.2719 35.0663 46.2713 37.7342C46.2707 38.5667 46.1617 39.4748 45.9445 40.4585C45.1429 44.0808 42.7582 46.4413 38.9092 46.4608C35.2082 46.4799 31.5073 46.5108 27.8063 46.5533C27.5663 46.5564 27.2568 46.5731 26.8779 46.6033C26.4996 46.5626 26.1302 46.5373 25.7698 46.5274C19.4056 46.3515 14.2809 51.6808 14.7891 58.082C14.8101 58.406 14.8499 58.7285 14.9086 59.0494C14.9357 59.1963 14.9147 59.2737 14.8456 59.2817C13.1411 56.8656 12.1925 54.1706 12 51.1967V49.324C12.5545 41.1139 19.1779 34.7673 27.4592 34.771C29.758 34.7716 32.0568 34.7726 34.3557 34.7738L38.8916 34.7692C39.8241 34.6902 40.6862 34.4578 41.478 34.0721C42.4136 33.6154 43.2402 33.0452 43.958 32.3614C44.8293 31.5548 45.6088 30.6372 46.2963 29.6084Z" fill="#79CBBD"/>
<path d="M85.0036 40.9578C88.5305 45.8399 88.874 52.2809 85.9867 57.5047C83.2966 62.3729 78.0516 65.549 72.4548 65.4481C70.9404 65.4209 68.7243 65.4212 65.8064 65.449L61.7417 65.4601C59.7727 65.3639 57.9371 66.2275 56.4893 67.5115C55.4846 68.4069 54.6061 69.4798 53.8538 70.7301C53.839 69.0565 53.8723 67.4152 53.8233 65.8119C53.7566 63.6495 53.7103 61.8156 54.1408 59.8819C54.8008 56.9122 56.7003 54.4193 59.7968 53.8407C60.201 53.7654 60.8154 53.7232 61.6399 53.7139C64.6718 53.6794 67.7038 53.6673 70.7358 53.6778C70.9385 53.6787 71.1339 53.625 71.3227 53.6306C71.904 53.6454 72.4764 53.6325 73.0399 53.5917C73.254 53.5973 73.4626 53.6084 73.6656 53.625C79.6688 54.1184 84.6028 49.6279 85.1369 43.7256C85.1604 42.8536 85.1159 41.931 85.0036 40.9578Z" fill="#79CBBD"/>
<path fill-rule="evenodd" clip-rule="evenodd" d="M82.9846 38.6589L82.9845 38.6591C83.7504 39.3959 84.4233 40.1621 85.0034 40.9575C85.1157 41.9307 85.1602 42.8534 85.1367 43.7254C85.1366 43.7254 85.1364 43.7255 85.1363 43.7256C84.6021 49.6277 79.6681 54.1182 73.665 53.6248C73.462 53.6081 73.2534 53.597 73.0393 53.5915C73.7453 53.415 74.3368 53.0904 74.8138 52.6176C76.768 50.682 75.9015 47.3708 73.2688 46.6571C72.9911 46.5818 72.5138 46.5321 71.8368 46.508C71.3357 46.4907 70.8543 46.4725 70.3927 46.4534C69.259 45.6555 68.2663 44.7637 67.4147 43.7781C67.4148 43.7781 67.4149 43.778 67.415 43.778C66.3014 42.4756 65.4526 40.8519 65.261 39.1256L65.2611 39.1241C65.1849 38.0855 65.1918 36.9711 65.2004 35.5608C65.2024 35.2408 65.2044 34.9055 65.2056 34.5525C65.3432 34.5401 65.6842 34.5349 66.2285 34.5367C68.3866 34.5417 70.5441 34.5426 72.701 34.5395C76.5584 34.5349 80.1566 36.053 82.9846 38.6589ZM67.9773 43.6328C68.0076 43.6331 68.0357 43.6411 68.0618 43.6569C68.1002 43.6807 68.1422 43.6882 68.1847 43.6883C68.1423 43.6882 68.1005 43.6806 68.0622 43.6569C68.036 43.641 68.0077 43.633 67.9773 43.6328ZM82.9716 43.6608C83.0735 43.6613 83.1846 43.6627 83.3018 43.6641C83.3019 43.6641 83.3021 43.6641 83.3022 43.6641C83.5672 43.6675 83.8637 43.6712 84.1569 43.6659C84.3329 43.6628 84.5077 43.6564 84.6739 43.6448C84.6752 43.6448 84.6766 43.6447 84.678 43.6447C84.6806 43.6446 84.6832 43.6446 84.6858 43.6446C84.713 43.6452 84.7379 43.6533 84.7605 43.6689C84.8063 43.7006 84.8525 43.7167 84.8991 43.7171C84.9443 43.7176 84.9899 43.7034 85.0358 43.6745C85.0444 43.669 85.0519 43.6662 85.0583 43.6662C85.0698 43.6664 85.0779 43.6753 85.0826 43.693C85.089 43.7175 85.1004 43.7299 85.1168 43.7299M82.9967 38.8931C83.0203 38.9003 83.0351 38.9016 83.0411 38.8969C83.0352 38.9017 83.0204 38.9005 82.9965 38.8932C82.9361 38.8749 82.8887 38.8807 82.8545 38.9106C82.8888 38.8806 82.9361 38.8747 82.9967 38.8931ZM82.7532 38.9903C82.7743 38.9911 82.7918 38.9854 82.8057 38.9732C82.7918 38.9855 82.7742 38.9912 82.753 38.9904C81.9125 38.9522 81.0714 38.9346 80.2296 38.9376C76.2744 38.9525 72.3195 38.9537 68.3649 38.9414C68.2035 38.9409 68.0398 38.9394 67.8749 38.938H67.8749H67.8749C67.043 38.9306 66.1781 38.923 65.3971 39.0404C65.3829 39.0423 65.3709 39.0382 65.361 39.0284L65.3341 39.0015C65.3213 38.9887 65.3097 38.9867 65.2995 38.9954C65.3098 38.9865 65.3214 38.9885 65.3343 39.0014L65.3611 39.0282C65.371 39.0381 65.383 39.0421 65.3972 39.0403C66.1783 38.9228 67.0431 38.9305 67.875 38.9379H67.875H67.8751C68.04 38.9393 68.2036 38.9408 68.365 38.9412C72.3196 38.9536 76.2745 38.9523 80.2297 38.9375C81.0715 38.9344 81.9127 38.952 82.7532 38.9903Z" fill="url(#paint1_linear_49_1525)"/>
<path d="M46.7638 73.0333C46.5852 75.0939 46.7721 77.1388 47.634 78.9809C49.3493 82.6439 52.6726 84.9813 56.779 85.2775C57.6028 85.3207 58.4212 85.2716 59.2339 85.1303C59.3098 85.1174 59.3496 85.1411 59.3533 85.2016C57.0977 86.8006 54.5875 87.7334 51.8228 88H48.9309C41.0745 87.2076 34.9704 80.6768 34.9593 72.7657C34.9562 70.4126 34.9559 68.0619 34.9584 65.7138L34.9565 63.231C34.9611 62.3405 35.0009 61.363 34.875 60.5669C34.7269 59.6276 34.41 58.7411 33.9243 57.9073C33.4887 57.1464 32.97 56.446 32.3682 55.806C31.6289 55.0185 30.847 54.3412 30.0225 53.7741L29.8466 53.6426C29.8411 53.6388 29.8369 53.6332 29.8347 53.6268C29.8325 53.6204 29.8324 53.6135 29.8345 53.607C29.8366 53.6006 29.8407 53.595 29.8462 53.5911C29.8517 53.5871 29.8584 53.5851 29.8652 53.5852C32.2658 53.5834 34.6649 53.5911 37.0625 53.6084C41.2485 53.638 45.8881 54.9044 46.637 59.755C46.6987 60.1543 46.7305 60.7696 46.7323 61.6009C46.7397 65.4083 46.6824 69.2268 46.7638 73.0333Z" fill="#79CBBD"/>
<path fill-rule="evenodd" clip-rule="evenodd" d="M26.8784 46.6033C23.2349 47.4615 22.9257 52.6028 26.5868 53.5933C26.909 53.6809 27.4172 53.7294 28.1114 53.7386C28.7329 53.7467 29.3701 53.7584 30.023 53.7738C30.8475 54.341 31.6294 55.0183 32.3687 55.8057C32.9704 56.4457 33.4891 57.1461 33.9248 57.9071C33.4515 57.9608 32.9782 57.9876 32.5048 57.9876C26.6748 57.9851 20.8447 57.9839 15.0146 57.9839C15.0026 57.9839 14.9919 57.9851 14.9827 57.9875C14.9918 57.9852 15.0023 57.984 15.0142 57.984C20.8443 57.984 26.6743 57.9852 32.5044 57.9877C32.9777 57.9877 33.4511 57.9609 33.9244 57.9072C34.4101 58.7409 34.727 59.6274 34.8751 60.5667C34.9793 61.2253 34.97 62.0081 34.9611 62.763V62.763C34.9592 62.9206 34.9574 63.077 34.9566 63.2308C34.9566 63.2308 34.9566 63.2308 34.9567 63.2308L34.9585 65.7135H27.1808C24.3296 65.7135 21.6645 64.9313 19.2401 63.4215C19.2426 63.3814 19.2617 63.3407 19.2975 63.2993C19.3041 63.2921 19.311 63.2863 19.3182 63.2818C19.3109 63.2863 19.304 63.2921 19.2974 63.2994C19.2616 63.3407 19.2425 63.3815 19.24 63.4216C17.5096 62.3292 16.0448 60.9493 14.8457 59.2818C14.9149 59.2738 14.9358 59.1964 14.9087 59.0495C14.8501 58.7286 14.8103 58.4061 14.7893 58.0821L14.917 58.0886C14.9208 58.0887 14.924 58.0884 14.9268 58.0877C14.9241 58.0884 14.921 58.0886 14.9174 58.0885L14.7897 58.082C14.2815 51.6808 19.4062 46.3515 25.7703 46.5274C26.1307 46.5373 26.5001 46.5626 26.8784 46.6033ZM19.407 63.273C19.4164 63.267 19.4237 63.2532 19.429 63.2317C19.434 63.2119 19.4433 63.1963 19.4567 63.1849C19.4432 63.1963 19.4339 63.212 19.4289 63.2318C19.4236 63.2532 19.4163 63.2669 19.407 63.273Z" fill="url(#paint2_linear_49_1525)"/>
<path fill-rule="evenodd" clip-rule="evenodd" d="M61.7412 65.4601L65.806 65.449V72.7481C65.806 76.6444 64.3573 80.225 61.7357 83.0993L61.7359 83.0994C61.0077 83.8776 60.2134 84.5783 59.3531 85.2016C59.3494 85.1411 59.3096 85.1174 59.2337 85.1303C58.421 85.2717 57.6026 85.3207 56.7788 85.2775C56.7812 85.2658 56.7871 85.2556 56.7964 85.247C56.8112 85.2334 56.8115 85.2192 56.7973 85.2044L56.7751 85.1822C56.7646 85.1717 56.764 85.1606 56.7732 85.1489C56.7856 85.1328 56.7868 85.1112 56.7769 85.0841C56.7708 85.0686 56.7575 85.0606 56.7371 85.06C56.7155 85.0588 56.7044 85.0476 56.7038 85.0267C56.6938 84.7356 56.7128 84.4273 56.7308 84.1329V84.1329C56.7446 83.9086 56.7579 83.6925 56.7575 83.4983C56.7557 82.5971 56.7549 81.6958 56.7541 80.7943L56.7541 80.7919V80.7917C56.7515 77.9346 56.7489 75.0768 56.7158 72.2205C56.7158 72.1897 56.7232 72.1415 56.738 72.0761C56.7556 71.9999 56.7402 71.9112 56.7267 71.8337C56.7189 71.7888 56.7118 71.7477 56.7121 71.7151C56.7136 71.5118 56.7186 71.3107 56.7237 71.1099V71.1099V71.1099C56.7349 70.6606 56.7462 70.2129 56.7168 69.7452C56.7019 69.5125 56.6967 69.2645 56.701 69.0009C56.709 68.5918 56.6952 68.1172 56.6594 67.5772C56.6583 67.5624 56.652 67.5484 56.6417 67.5378C56.6313 67.5273 56.6175 67.5209 56.6029 67.5198L56.489 67.5115C57.9368 66.2276 59.7723 65.3639 61.7412 65.4601L61.7412 65.4601ZM61.6894 83.0947C61.692 83.0951 61.6948 83.0954 61.6979 83.0957L61.6977 83.0956C61.6947 83.0954 61.6919 83.0951 61.6894 83.0947ZM61.6986 82.9984C61.7091 82.9891 61.7163 82.985 61.7203 82.9861C61.7163 82.9852 61.7091 82.9893 61.6989 82.9984L61.5119 83.1595C61.5037 83.1666 61.4973 83.1696 61.4928 83.1685C61.4973 83.1694 61.5036 83.1664 61.5117 83.1595L61.6986 82.9984ZM56.6025 67.5198L56.4886 67.5115C55.4839 68.4069 54.6054 69.4798 53.8531 70.7301C53.8346 71.2794 53.8155 71.8805 53.7958 72.5334C53.6625 76.899 47.6195 77.3452 46.7632 73.0333C46.5845 75.0939 46.7715 77.1388 47.6334 78.9809C49.3487 82.6439 52.672 84.9813 56.7784 85.2775C56.7808 85.2658 56.7867 85.2556 56.7959 85.247C56.8108 85.2334 56.8111 85.2192 56.7969 85.2044L56.7747 85.1822C56.7642 85.1717 56.7635 85.1606 56.7728 85.1489C56.7851 85.1328 56.7864 85.1112 56.7765 85.0841C56.7703 85.0686 56.7571 85.0606 56.7367 85.06C56.7151 85.0588 56.704 85.0477 56.7034 85.0267C56.6934 84.7356 56.7123 84.4273 56.7304 84.1329C56.7442 83.9086 56.7575 83.6925 56.7571 83.4983C56.7553 82.5963 56.7545 81.6941 56.7537 80.7919C56.7511 77.9348 56.7485 75.0768 56.7154 72.2205C56.7154 72.1897 56.7228 72.1415 56.7376 72.0761C56.7552 71.9999 56.7398 71.9112 56.7263 71.8337C56.7185 71.7888 56.7114 71.7477 56.7117 71.7151C56.7131 71.5118 56.7182 71.3107 56.7232 71.1099C56.7345 70.6606 56.7458 70.2129 56.7163 69.7452C56.7015 69.5125 56.6963 69.2645 56.7006 69.0009C56.7086 68.5918 56.6947 68.1172 56.6589 67.5772C56.6579 67.5624 56.6516 67.5484 56.6412 67.5378C56.6309 67.5273 56.6171 67.5209 56.6025 67.5198Z" fill="url(#paint3_linear_49_1525)"/>
<defs>
<linearGradient id="paint0_linear_49_1525" x1="53.4715" y1="25.0572" x2="33.6149" y2="25.0572" gradientUnits="userSpaceOnUse">
<stop stop-color="#227276"/>
<stop offset="1" stop-color="#618B8E"/>
</linearGradient>
<linearGradient id="paint1_linear_49_1525" x1="75.1326" y1="53.6563" x2="75.1326" y2="34.3938" gradientUnits="userSpaceOnUse">
<stop stop-color="#227276"/>
<stop offset="1" stop-color="#618B8E"/>
</linearGradient>
<linearGradient id="paint2_linear_49_1525" x1="24.8238" y1="65.7078" x2="24.8238" y2="46.3801" gradientUnits="userSpaceOnUse">
<stop stop-color="#618B8E"/>
<stop offset="1" stop-color="#227276"/>
</linearGradient>
<linearGradient id="paint3_linear_49_1525" x1="65.7848" y1="75.6642" x2="45.9624" y2="75.6642" gradientUnits="userSpaceOnUse">
<stop stop-color="#618B8E"/>
<stop offset="1" stop-color="#227276"/>
</linearGradient>
</defs>
</svg>
