<svg width="100" height="100" viewBox="0 0 100 100" fill="none" xmlns="http://www.w3.org/2000/svg">
<rect width="100" height="100" fill="#3C2413"/>
<path d="M46.7241 36.0254L49.4541 40.8654" stroke="#F37722" stroke-width="2"/>
<path d="M38.2344 60.0652L36.7144 60.1552" stroke="#B43C20" stroke-width="2"/>
<path d="M63.1041 26.8252L46.7241 36.0252" stroke="#F68A21" stroke-width="2"/>
<path d="M37.4043 78.3753L37.3243 62.5353C37.3177 62.2219 37.2143 61.9486 37.0143 61.7153C36.7477 61.4086 36.6477 60.8886 36.7143 60.1553" stroke="#91201F" stroke-width="2"/>
<path d="M77.4043 78.5853C77.3976 78.5386 77.3909 78.492 77.3843 78.4453" stroke="#521810" stroke-width="2"/>
<path d="M56.1542 15.6854C53.6875 16.2987 51.8142 17.162 50.5342 18.2754C50.2847 18.4919 49.9886 18.6399 49.6742 18.7054C45.8942 19.4454 44.6342 21.6454 41.2642 22.8154C41.0962 22.8734 40.9426 22.9668 40.814 23.0892C40.6854 23.2117 40.5849 23.3602 40.5193 23.5247C40.4537 23.6891 40.4247 23.8655 40.4342 24.0417C40.4436 24.2179 40.4914 24.3897 40.5742 24.5454L46.7242 36.0254L49.4542 40.8654L38.2342 60.0654L36.7142 60.1554C31.7475 60.1221 26.8309 60.132 21.9642 60.1854C17.8375 60.2254 14.8509 63.1254 13.0042 68.8854C12.9042 64.9554 14.6042 63.3054 16.4142 60.1654C24.2742 46.5454 32.2175 32.9854 40.2442 19.4854C44.0142 13.1554 49.5842 11.1754 56.1542 15.6854Z" fill="#EE5825"/>
<path d="M56.1544 15.6854L63.1044 26.8254L74.8841 46.7953C73.6933 47.3751 72.407 47.9415 71.0862 48.523C66.4842 50.5494 61.4635 52.76 58.6041 56.3653L49.4541 40.8653L38.6543 22.1453C43.1543 12.6453 49.6543 10.6455 56.1544 15.6854Z" fill="url(#paint0_linear_49_1528)"/>
<path d="M79.5945 53.9953L74.8841 46.7953C73.6933 47.3751 72.407 47.9415 71.0862 48.523C66.4842 50.5494 61.4635 52.76 58.6041 56.3653L60.6145 60.0853C63.3078 64.5786 66.0078 69.1619 68.7145 73.8353C70.5612 77.0086 73.4512 78.5452 77.3845 78.4453C82.0312 78.1719 84.9945 75.8353 86.2745 71.4353C87.5448 67.0693 84.2647 61.9319 81.6552 57.8449C81.1627 57.0735 80.6941 56.3395 80.2845 55.6553L79.5945 53.9953Z" fill="url(#paint1_linear_49_1528)"/>
<path d="M60.6143 60.0852L38.2343 60.0652L36.7143 60.1552C36.6477 60.8885 36.7477 61.4085 37.0143 61.7152C37.2143 61.9485 37.3177 62.2219 37.3243 62.5352L37.4043 78.3752L77.4043 78.5852L77.3843 78.4452C73.451 78.5452 70.561 77.0085 68.7143 73.8352C66.0077 69.1619 63.3077 64.5785 60.6143 60.0852Z" fill="url(#paint2_linear_49_1528)"/>
<path d="M37.0143 61.7152C36.7477 61.4085 36.6477 60.8885 36.7143 60.1552C31.7477 60.1219 26.8307 60.1319 21.9641 60.1852C17.8374 60.2252 13.1338 62.6453 13.0041 68.8852C12.9174 73.0519 14.6607 75.9185 18.2341 77.4852C22.1101 79.1775 28.3889 78.8372 33.7423 78.5471C35.0321 78.4772 36.2685 78.4101 37.4043 78.3752L37.3243 62.5352C37.3177 62.2219 37.2143 61.9485 37.0143 61.7152Z" fill="url(#paint3_linear_49_1528)"/>
<defs>
<linearGradient id="paint0_linear_49_1528" x1="46.1543" y1="12.6453" x2="82.1543" y2="75.1453" gradientUnits="userSpaceOnUse">
<stop stop-color="#F47E22"/>
<stop offset="1" stop-color="#FCB818"/>
</linearGradient>
<linearGradient id="paint1_linear_49_1528" x1="46.1543" y1="12.6453" x2="82.1543" y2="75.1453" gradientUnits="userSpaceOnUse">
<stop stop-color="#F47E22"/>
<stop offset="1" stop-color="#FCB818"/>
</linearGradient>
<linearGradient id="paint2_linear_49_1528" x1="81.1543" y1="69.6453" x2="14.1543" y2="69.6453" gradientUnits="userSpaceOnUse">
<stop offset="0.297054" stop-color="#671B17"/>
<stop offset="1" stop-color="#A82022"/>
</linearGradient>
<linearGradient id="paint3_linear_49_1528" x1="81.1543" y1="69.6453" x2="14.1543" y2="69.6453" gradientUnits="userSpaceOnUse">
<stop offset="0.297054" stop-color="#671B17"/>
<stop offset="1" stop-color="#A82022"/>
</linearGradient>
</defs>
</svg>
