<svg width="100" height="100" viewBox="0 0 100 100" fill="none" xmlns="http://www.w3.org/2000/svg">
<rect width="100" height="100" fill="white"/>
<path d="M42.0823 10H47.6423L47.6798 17.485L47.6923 35.555C47.6921 35.5781 47.6851 35.6006 47.6721 35.6197C47.6592 35.6388 47.6409 35.6537 47.6196 35.6625C47.5983 35.6712 47.5748 35.6736 47.5522 35.6691C47.5296 35.6647 47.5087 35.6537 47.4923 35.6375L42.0498 30.1925L42.0823 10Z" fill="#E11B22"/>
<path d="M53.2025 10H58.7675L58.765 30.245L53.4075 35.595C53.2608 35.7417 53.1875 35.7117 53.1875 35.505L53.1925 17.47L53.2025 10Z" fill="#E11B22"/>
<path d="M42.0497 30.1924L47.4922 35.6374C47.5086 35.6536 47.5295 35.6646 47.5521 35.6691C47.5748 35.6735 47.5982 35.6712 47.6195 35.6624C47.6409 35.6536 47.6591 35.6387 47.6721 35.6196C47.685 35.6005 47.692 35.578 47.6922 35.5549L47.6797 17.4849L53.1922 17.4699L53.1872 35.5049C53.1872 35.7116 53.2606 35.7416 53.4072 35.5949L58.7647 30.2449L72.9697 16.0474C72.9848 16.0323 73.0027 16.0203 73.0225 16.0121C73.0422 16.004 73.0634 15.9997 73.0847 15.9997C73.1061 15.9997 73.1272 16.004 73.147 16.0121C73.1667 16.0203 73.1846 16.0323 73.1997 16.0474L76.9322 19.7699C76.9955 19.8349 76.9955 19.8991 76.9322 19.9624L71.7072 25.1574L53.1547 43.7774L50.5397 46.3599C50.4714 46.4266 50.4039 46.4266 50.3372 46.3599L47.6722 43.7249L29.1472 25.1349L23.9422 19.9599C23.8806 19.8999 23.8806 19.8391 23.9422 19.7774L27.6697 16.0399C27.6842 16.0257 27.7014 16.0143 27.7202 16.0066C27.739 15.9989 27.759 15.9949 27.7792 15.9949C27.7994 15.9949 27.8194 15.9989 27.8379 16.0066C27.8564 16.0143 27.8732 16.0257 27.8872 16.0399L42.0497 30.1924Z" fill="#F99D34"/>
<path d="M25.155 29.105L43.7475 47.635L46.3725 50.3075C46.4442 50.3809 46.4442 50.4534 46.3725 50.525L43.69 53.235L25.16 71.705L20.0075 76.8875C19.9375 76.9575 19.8675 76.9575 19.7975 76.8875L16.065 73.1625C15.9984 73.0975 15.9984 73.0317 16.065 72.965L30.2475 58.77L35.62 53.39C35.7834 53.2267 35.75 53.145 35.52 53.145H17.505V47.635L35.4675 47.6375C35.7175 47.6375 35.7542 47.5484 35.5775 47.37L30.24 42.0375L16.0575 27.8425C15.9925 27.7759 15.9925 27.7092 16.0575 27.6425L19.8 23.925C19.87 23.8567 19.9392 23.8567 20.0075 23.925L25.155 29.105Z" fill="#F99D34"/>
<path d="M70.6026 42.0574L65.1301 47.5374C65.1223 47.5454 65.117 47.5555 65.1149 47.5665C65.1128 47.5775 65.1139 47.5889 65.1182 47.5992C65.1224 47.6096 65.1296 47.6185 65.1388 47.6248C65.148 47.6311 65.1589 47.6346 65.1701 47.6349L83.3701 47.6324L83.3726 52.9974C83.3392 53.004 83.3176 53.034 83.3076 53.0874C83.2926 53.154 83.2509 53.1874 83.1826 53.1874L65.3151 53.1149C65.0784 53.1132 65.0434 53.1957 65.2101 53.3624L70.6176 58.7649L84.8225 72.9774C84.8792 73.034 84.8792 73.0907 84.8225 73.1474L81.0826 76.8874C81.0109 76.9574 80.9401 76.9574 80.8701 76.8874L75.7176 71.6999L57.1601 53.2149L54.4701 50.5074C54.4084 50.444 54.4084 50.3815 54.4701 50.3199L57.1176 47.6549L75.6826 29.1149L80.8651 23.9199C80.8788 23.906 80.8951 23.8949 80.9132 23.8874C80.9312 23.8799 80.9505 23.876 80.9701 23.876C80.9896 23.876 81.0089 23.8799 81.027 23.8874C81.045 23.8949 81.0613 23.906 81.0751 23.9199L84.8251 27.6699C84.8784 27.7232 84.8784 27.7765 84.8251 27.8299L70.6026 42.0574Z" fill="#F99D34"/>
<path d="M29.1473 25.135L47.6723 43.725L47.6573 47.475C47.6573 47.5157 47.6413 47.5547 47.6128 47.5837C47.5842 47.6127 47.5455 47.6293 47.5048 47.63L43.7473 47.635L25.1548 29.105L29.1473 25.135Z" fill="#E11B22"/>
<path d="M71.7073 25.1575L75.6823 29.115L57.1173 47.655L53.3523 47.63C53.3116 47.6293 53.2728 47.6129 53.2443 47.5844C53.2158 47.5559 53.1998 47.5175 53.1998 47.4775L53.1548 43.7775L71.7073 25.1575Z" fill="#E11B22"/>
<path d="M30.24 42.0374L35.5775 47.3699C35.7541 47.5482 35.7175 47.6374 35.4675 47.6374L17.505 47.6349L10.125 47.6224C10.0417 47.6207 10 47.5782 10 47.4949V42.1924C10 42.1753 10.0034 42.1584 10.0099 42.1426C10.0164 42.1268 10.026 42.1125 10.0381 42.1004C10.0501 42.0884 10.0645 42.0788 10.0802 42.0723C10.096 42.0657 10.1129 42.0624 10.13 42.0624L30.24 42.0374Z" fill="#E11B22"/>
<path d="M70.6025 42.0574L90.685 42.0624C90.77 42.0624 90.8125 42.1049 90.8125 42.1899V47.4949C90.8125 47.5287 90.7993 47.5611 90.7758 47.585C90.7524 47.6089 90.7206 47.6224 90.6875 47.6224L83.37 47.6324L65.17 47.6349C65.1588 47.6346 65.1479 47.6311 65.1387 47.6248C65.1295 47.6184 65.1223 47.6096 65.1181 47.5992C65.1138 47.5889 65.1127 47.5775 65.1148 47.5665C65.1169 47.5555 65.1222 47.5454 65.13 47.5374L70.6025 42.0574Z" fill="#E11B22"/>
<path d="M83.3722 52.9976C83.3706 53.0226 83.3706 53.0492 83.3722 53.0776C83.3789 53.1509 83.4197 53.1876 83.4947 53.1876H90.6847C90.7664 53.1876 90.8081 53.2284 90.8097 53.3101L90.8197 58.6351C90.8197 58.7117 90.7806 58.7501 90.7022 58.7501L70.6172 58.7651L65.2098 53.3626C65.0431 53.1959 65.0781 53.1134 65.3147 53.1151L83.1822 53.1876C83.2506 53.1876 83.2922 53.1542 83.3072 53.0876C83.3172 53.0342 83.3389 53.0042 83.3722 52.9976Z" fill="#E11B22"/>
<path d="M17.505 53.145H35.52C35.75 53.145 35.7833 53.2267 35.62 53.39L30.2475 58.77L10.14 58.7575C10.1029 58.7575 10.0673 58.7428 10.041 58.7165C10.0147 58.6903 10 58.6546 10 58.6175V53.335C10 53.2939 10.0166 53.2545 10.0461 53.2254C10.0757 53.1963 10.1157 53.18 10.1575 53.18L17.505 53.145Z" fill="#E11B22"/>
<path d="M47.6726 57.1025L29.1076 75.6725L25.1602 71.705L43.6901 53.235L47.4951 53.2C47.5818 53.1983 47.626 53.2417 47.6276 53.33L47.6726 57.1025Z" fill="#E11B22"/>
<path d="M57.1599 53.2151L75.7174 71.7001L71.7299 75.6501L53.1699 57.0451L53.2024 53.3401C53.2024 53.3016 53.218 53.2647 53.2456 53.2375C53.2733 53.2103 53.3108 53.1951 53.3499 53.1951L57.1599 53.2151Z" fill="#E11B22"/>
<path d="M53.17 57.0451L71.7299 75.6501L76.9474 80.8551C77.0024 80.9101 77.0024 80.9651 76.9474 81.0201L73.1774 84.7926C73.1539 84.815 73.1227 84.8276 73.0905 84.8276C73.0583 84.8276 73.0276 84.815 73.0049 84.7926L58.7799 70.5826L53.34 65.1501C53.2516 65.0618 53.2075 65.0801 53.2075 65.2051L53.2 83.3301L47.665 83.3376L47.6775 65.1926C47.6775 65.0743 47.635 65.0568 47.55 65.1401L42.045 70.6176L27.8525 84.8001C27.8328 84.8195 27.8063 84.8303 27.7787 84.8303C27.7511 84.8303 27.7246 84.8195 27.705 84.8001L23.9275 81.0201C23.8725 80.9667 23.8725 80.9126 23.9275 80.8576L29.1075 75.6726L47.6725 57.1026L50.3375 54.4526C50.4058 54.3859 50.4733 54.3859 50.54 54.4526L53.17 57.0451Z" fill="#F99D34"/>
<path d="M47.6649 83.3375L47.6249 90.685C47.6243 90.7191 47.6103 90.7515 47.586 90.7753C47.5617 90.7992 47.529 90.8125 47.4949 90.8125H42.1924C42.1074 90.8125 42.0649 90.7692 42.0649 90.6825L42.0449 70.6175L47.5499 65.14C47.6349 65.0567 47.6774 65.0742 47.6774 65.1925L47.6649 83.3375Z" fill="#E11B22"/>
<path d="M58.7799 70.5826L58.7649 90.6651C58.7649 90.7634 58.7149 90.8126 58.6149 90.8126H53.4399C53.2733 90.8126 53.1899 90.7292 53.1899 90.5626L53.1999 83.3301L53.2074 65.2051C53.2074 65.0801 53.2516 65.0617 53.3399 65.1501L58.7799 70.5826Z" fill="#E11B22"/>
</svg>
