<svg width="100" height="100" viewBox="0 0 100 100" fill="none" xmlns="http://www.w3.org/2000/svg">
<rect width="100" height="100" fill="white"/>
<path d="M17 43.2034C17 43.1843 17.0076 43.1661 17.021 43.1526C17.0345 43.1392 17.0527 43.1316 17.0718 43.1316H31.6976C32.8495 43.1316 33.9543 43.5327 34.7688 44.2466C35.5833 44.9605 36.0409 45.9288 36.0409 46.9384V54.1147C36.0409 55.1243 35.5833 56.0926 34.7688 56.8065C33.9543 57.5204 32.8495 57.9215 31.6976 57.9215H17.0718C17.0623 57.9215 17.053 57.9196 17.0443 57.916C17.0356 57.9124 17.0277 57.9071 17.021 57.9005C17.0144 57.8938 17.0091 57.8859 17.0055 57.8772C17.0019 57.8685 17 57.8591 17 57.8497V43.2034ZM19.8261 45.4382L19.8056 55.6148C19.8056 55.6411 19.816 55.6663 19.8346 55.6849C19.8532 55.7035 19.8784 55.7139 19.9047 55.7139L31.185 55.731C31.4534 55.7315 31.7193 55.683 31.9674 55.5883C32.2155 55.4936 32.441 55.3545 32.6311 55.179C32.8212 55.0035 32.9721 54.7951 33.0752 54.5655C33.1783 54.336 33.2316 54.0899 33.232 53.8413L33.2456 47.2528C33.2465 46.7507 33.032 46.2689 32.6494 45.9132C32.2668 45.5576 31.7475 45.3572 31.2055 45.3562L19.9252 45.3391C19.8989 45.3391 19.8737 45.3496 19.8551 45.3682C19.8365 45.3867 19.8261 45.412 19.8261 45.4382Z" fill="#1C4386"/>
<path d="M41.8954 43.1294L39.3393 43.1338C39.2714 43.1339 39.2164 43.1891 39.2165 43.2571L39.2419 57.7872C39.242 57.8551 39.2972 57.9101 39.3651 57.91L41.9212 57.9055C41.9892 57.9054 42.0441 57.8503 42.044 57.7823L42.0187 43.2522C42.0186 43.1842 41.9634 43.1292 41.8954 43.1294Z" fill="#1C4386"/>
<path d="M62.6135 43.1316L65.3849 43.1282C65.4084 43.128 65.4316 43.1342 65.4519 43.1462C65.4722 43.1581 65.4889 43.1754 65.5002 43.1961C65.5114 43.2168 65.5168 43.2402 65.5157 43.2638C65.5147 43.2873 65.5073 43.3101 65.4942 43.3298L55.9225 57.8497C55.9109 57.8673 55.8951 57.8817 55.8767 57.8918C55.8582 57.902 55.8376 57.9074 55.8166 57.9078H53.8619C53.8408 57.9074 53.8202 57.902 53.8018 57.8918C53.7833 57.8817 53.7676 57.8673 53.7559 57.8497L44.1159 43.3298C44.1028 43.3101 44.0954 43.2873 44.0944 43.2638C44.0933 43.2402 44.0987 43.2168 44.1099 43.1961C44.1212 43.1754 44.1379 43.1581 44.1582 43.1462C44.1785 43.1342 44.2017 43.128 44.2252 43.1282H47.0718C47.0934 43.128 47.1147 43.1332 47.1338 43.1434C47.1529 43.1535 47.1692 43.1682 47.1812 43.1863L54.7845 54.887C54.7966 54.9051 54.813 54.92 54.8323 54.9301C54.8515 54.9403 54.873 54.9454 54.8948 54.9451C54.9166 54.9447 54.938 54.9389 54.9569 54.9282C54.9759 54.9174 54.9918 54.9021 55.0032 54.8835L62.5041 43.1897C62.5161 43.1717 62.5323 43.1569 62.5514 43.1468C62.5705 43.1366 62.5919 43.1314 62.6135 43.1316Z" fill="#1C4386"/>
<path d="M72.7359 46.2345L65.2043 57.7438C65.1428 57.8395 65.0539 57.8884 64.9377 57.8907L62.2586 57.942C62.2347 57.9432 62.211 57.9376 62.1902 57.9258C62.1694 57.9141 62.1522 57.8967 62.1405 57.8755C62.1289 57.8543 62.1232 57.8302 62.1241 57.8057C62.1251 57.7813 62.1326 57.7575 62.1458 57.7369L71.615 43.4528C71.6811 43.3549 71.7688 43.2865 71.8782 43.2478C73.0298 42.8309 73.7953 42.9949 74.4958 44.0611C77.4825 48.6197 80.4817 53.1635 83.4934 57.6925C83.5914 57.836 83.5527 57.9078 83.3772 57.9078H80.6503C80.5957 57.9077 80.5421 57.8939 80.4943 57.8676C80.4466 57.8413 80.4062 57.8035 80.3769 57.7574L72.999 46.2379C72.9125 46.1012 72.8248 46.1 72.7359 46.2345Z" fill="#1C4386"/>
<path d="M69.055 57.7438L72.6876 52.1805C72.7019 52.1587 72.7214 52.1407 72.7444 52.1283C72.7673 52.1159 72.793 52.1094 72.8191 52.1094C72.8453 52.1094 72.871 52.1159 72.8939 52.1283C72.9169 52.1407 72.9364 52.1587 72.9507 52.1805L76.5662 57.7541C76.5824 57.7777 76.5918 57.8053 76.5934 57.8339C76.5951 57.8625 76.5889 57.891 76.5755 57.9163C76.5621 57.9416 76.5421 57.9628 76.5176 57.9776C76.493 57.9924 76.4649 58.0002 76.4363 58.0001L69.1849 57.9865C69.1568 57.9861 69.1293 57.9782 69.1053 57.9636C69.0813 57.949 69.0616 57.9282 69.0484 57.9035C69.0351 57.8787 69.0288 57.8508 69.0299 57.8227C69.0311 57.7947 69.0398 57.7674 69.055 57.7438Z" fill="#FBCF16"/>
</svg>
