<svg width="100" height="100" viewBox="0 0 100 100" fill="none" xmlns="http://www.w3.org/2000/svg">
<rect width="100" height="100" fill="#595C62"/>
<path d="M15.1827 40.8203H21.5225C22.9522 40.8203 24.042 40.9297 24.792 41.1484C25.7998 41.4453 26.6631 41.9727 27.3819 42.7305C28.1006 43.4883 28.6475 44.418 29.0225 45.5195C29.3975 46.6133 29.585 47.9648 29.585 49.5742C29.585 50.9883 29.4092 52.207 29.0577 53.2305C28.628 54.4805 28.0147 55.4922 27.2178 56.2656C26.6162 56.8516 25.8037 57.3086 24.7803 57.6367C24.0147 57.8789 22.9912 58 21.71 58H15.1827V40.8203ZM18.6514 43.7266V55.1055H21.2412C22.21 55.1055 22.9092 55.0508 23.3389 54.9414C23.9014 54.8008 24.3662 54.5625 24.7334 54.2266C25.1084 53.8906 25.4131 53.3398 25.6475 52.5742C25.8819 51.8008 25.9991 50.75 25.9991 49.4219C25.9991 48.0938 25.8819 47.0742 25.6475 46.3633C25.4131 45.6523 25.085 45.0977 24.6631 44.6992C24.2412 44.3008 23.7061 44.0312 23.0577 43.8906C22.5733 43.7812 21.6241 43.7266 20.21 43.7266H18.6514ZM32.8512 58V40.8203H38.0427L41.1598 52.5391L44.2419 40.8203H49.445V58H46.2223V44.4766L42.8122 58H39.4723L36.0739 44.4766V58H32.8512ZM68.7425 58H64.9691L63.4691 54.0977H56.6019L55.1839 58H51.5042L58.1956 40.8203H61.8636L68.7425 58ZM62.3558 51.2031L59.9886 44.8281L57.6683 51.2031H62.3558ZM70.9423 40.8203H77.2822C78.7119 40.8203 79.8017 40.9297 80.5517 41.1484C81.5595 41.4453 82.4228 41.9727 83.1416 42.7305C83.8603 43.4883 84.4072 44.418 84.7822 45.5195C85.1572 46.6133 85.3447 47.9648 85.3447 49.5742C85.3447 50.9883 85.1689 52.207 84.8173 53.2305C84.3877 54.4805 83.7744 55.4922 82.9775 56.2656C82.3759 56.8516 81.5634 57.3086 80.54 57.6367C79.7744 57.8789 78.7509 58 77.4697 58H70.9423V40.8203ZM74.4111 43.7266V55.1055H77.0009C77.9697 55.1055 78.6689 55.0508 79.0986 54.9414C79.6611 54.8008 80.1259 54.5625 80.4931 54.2266C80.8681 53.8906 81.1728 53.3398 81.4072 52.5742C81.6416 51.8008 81.7588 50.75 81.7588 49.4219C81.7588 48.0938 81.6416 47.0742 81.4072 46.3633C81.1728 45.6523 80.8447 45.0977 80.4228 44.6992C80.0009 44.3008 79.4658 44.0312 78.8173 43.8906C78.333 43.7812 77.3838 43.7266 75.9697 43.7266H74.4111Z" fill="#F8F8F8"/>
</svg>
