<svg width="100" height="100" viewBox="0 0 100 100" fill="none" xmlns="http://www.w3.org/2000/svg">
<rect width="100" height="100" fill="white"/>
<path fill-rule="evenodd" clip-rule="evenodd" d="M29.2489 47.8155V25.3888C29.2489 25.2342 29.3262 25.1603 29.4809 25.1671C34.3099 25.4352 38.8331 26.7172 43.0503 29.0132C43.1037 29.0423 43.1495 29.0836 43.1839 29.1337C43.2184 29.1838 43.2405 29.2413 43.2485 29.3016C43.2566 29.3619 43.2503 29.4232 43.2302 29.4806C43.2101 29.5379 43.1767 29.5898 43.1328 29.6318C41.0345 31.6425 37.8638 35.3597 37.6524 38.1746C37.5528 39.5082 37.5614 42.6668 37.6782 47.6505C37.6817 47.898 37.8088 48.0217 38.0597 48.0217L45.5817 48.0526C45.7913 48.0526 45.891 47.9478 45.8807 47.7382C45.864 47.3874 45.8422 47.0022 45.8189 46.5915C45.6488 43.5857 45.4011 39.2099 46.4942 36.9012C50.2526 28.9616 62.4661 25.8064 70.3541 25.1156C70.6188 25.095 70.7511 25.217 70.7511 25.4816V47.8258C70.7511 48.008 70.8422 48.099 71.0244 48.099L78.6597 48.0011C78.835 47.9977 78.9227 47.9083 78.9227 47.733L79 17.3668C79 17.1502 78.8935 17.0523 78.6804 17.0729C69.3282 17.9442 58.0581 19.7383 49.3349 24.2752C49.1906 24.3508 49.0462 24.3508 48.9019 24.2752C40.2508 19.8139 31.0516 17.3891 21.3042 17.0007C21.1014 16.9904 21 17.0884 21 17.2946V47.7278C21 47.9306 21.1014 48.0337 21.3042 48.0372L28.986 48.0836C29.0557 48.0836 29.1226 48.0553 29.1719 48.0051C29.2212 47.9548 29.2489 47.8866 29.2489 47.8155ZM61.8422 37.128C60.7441 34.4265 58.2127 31.627 55.7071 30.1113C55.6377 30.0703 55.5592 30.0474 55.479 30.0447C55.3988 30.042 55.3194 30.0596 55.2482 30.0958C53.4472 31.0376 51.7906 32.1856 50.2783 33.5397C50.1236 33.6807 50.1288 33.8147 50.2937 33.9419C50.392 34.0183 50.4891 34.0935 50.5849 34.1677C52.6812 35.7914 54.1738 36.9474 54.1295 39.9893C54.0917 42.5671 54.1157 45.1397 54.2017 47.7072C54.2085 47.9272 54.3219 48.0372 54.5419 48.0372H62.069C62.2821 48.0372 62.387 47.9306 62.3835 47.7175C62.3756 46.9414 62.409 46.0464 62.4444 45.0983C62.5471 42.3496 62.6664 39.1559 61.8422 37.128Z" fill="url(#paint0_linear_49_1535)"/>
<path d="M56.5736 70.8814L58.1357 71.9022C57.9879 71.9469 57.9106 71.983 57.9037 72.0105C57.8688 72.1473 57.8838 72.2922 57.9461 72.4196C58.0084 72.547 58.1139 72.6486 58.244 72.7065C61.7016 74.236 65.3432 75.2259 69.1686 75.6761C70.5967 75.8462 71.3545 75.64 71.3649 74.0005C71.4027 67.4427 71.4095 60.615 71.3855 53.5175C71.3855 53.2563 71.5161 53.0999 71.7773 53.0484C74.1626 52.5878 76.5324 52.7373 78.8868 53.4969L78.9899 82.8629C78.9899 83.0348 78.9074 83.1465 78.7425 83.1981C78.1513 83.3871 77.6615 83.308 77.2731 82.9609C68.3334 81.9745 59.6635 79.4689 51.2633 75.4441C50.9196 75.2791 50.5536 75.3152 50.1652 75.5524C48.2886 76.7021 45.8449 77.7022 43.7362 78.3364C36.6628 80.4673 29.4364 81.8525 22.0571 82.4917C22.0124 82.4953 21.9673 82.4896 21.9249 82.4748C21.8825 82.4601 21.8435 82.4368 21.8106 82.4062C21.7777 82.3757 21.7514 82.3387 21.7335 82.2975C21.7156 82.2563 21.7064 82.2119 21.7065 82.1669L21.7375 53.4763C21.7375 53.2735 21.8372 53.1515 22.0365 53.1102C24.0987 52.7081 26.1627 52.7012 28.2283 53.0896C28.3933 53.1205 28.4895 53.2185 28.517 53.3835C28.7233 54.5177 28.5273 55.8685 28.5325 56.7243C28.5497 62.0998 28.5806 67.477 28.6253 72.856C28.6408 74.3666 28.3881 75.8411 30.5483 75.6503C38.5291 74.9595 50.7323 71.3712 54.2484 63.1069C55.3105 60.6064 54.733 56.219 54.8929 53.3886C54.9032 53.2202 54.9908 53.1205 55.1558 53.0896C57.2558 52.7047 59.361 52.7115 61.4713 53.1102C61.586 53.1312 61.6892 53.1928 61.7621 53.2837C61.835 53.3746 61.8727 53.4887 61.8683 53.6052C61.7515 56.5266 61.6518 59.345 61.5693 62.0603C61.4868 64.7824 58.5997 68.0665 56.7282 69.8761C56.1646 70.4226 56.113 70.7577 56.5736 70.8814Z" fill="#242021"/>
<path d="M48.5974 66.2157C48.6529 66.2611 48.6973 66.3187 48.7271 66.3839C48.757 66.4491 48.7714 66.5203 48.7694 66.592C48.7674 66.6637 48.749 66.734 48.7156 66.7975C48.6822 66.8609 48.6347 66.9159 48.5768 66.9581L45.1432 69.3967C44.9573 69.5293 44.7324 69.5957 44.5044 69.5854C44.2764 69.5752 44.0584 69.4888 43.8852 69.34C41.8642 67.6077 39.3741 65.3702 38.5337 62.7306C37.7707 60.3178 38.3172 56.3068 38.2399 53.4661C38.233 53.2667 38.3275 53.1481 38.5234 53.1103C40.5788 52.7185 42.641 52.7013 44.7101 53.0588C44.8678 53.0876 45.0095 53.1727 45.1083 53.2982C45.2072 53.4236 45.2562 53.5806 45.2463 53.7393C44.9266 58.735 44.2203 62.6533 48.5974 66.2157Z" fill="#242021"/>
<defs>
<linearGradient id="paint0_linear_49_1535" x1="50" y1="17" x2="50" y2="48.099" gradientUnits="userSpaceOnUse">
<stop stop-color="#63B7F1"/>
<stop offset="1" stop-color="#0571BC"/>
</linearGradient>
</defs>
</svg>
