<svg width="100" height="100" viewBox="0 0 100 100" fill="none" xmlns="http://www.w3.org/2000/svg">
<rect width="100" height="100" fill="white"/>
<path d="M47.3204 44.4556C46.816 44.9244 46.3372 45.4177 45.8528 45.8998C45.8479 45.9045 45.8421 45.9082 45.8358 45.9106C45.8294 45.913 45.8227 45.9141 45.816 45.9138C45.8093 45.9135 45.8027 45.9118 45.7968 45.9088C45.7908 45.9058 45.7856 45.9016 45.7814 45.8965C43.2021 42.8708 38.759 42.8987 36.1764 45.8987C36.1466 45.9344 36.115 45.9355 36.0815 45.902L34.2801 44.1152C34.2459 44.0817 34.2452 44.0471 34.2779 44.0114C37.9744 39.9991 43.8081 40.0292 47.605 43.9043C47.6668 43.9668 47.6731 44.0345 47.624 44.1074C47.5437 44.2264 47.4425 44.3425 47.3204 44.4556Z" fill="#FE9900"/>
<path d="M40.6081 55.5394C39.6215 54.9445 39.2866 49.2078 39.2766 48.1119C39.2665 46.8831 39.5869 45.4176 41.1639 45.604C42.8481 45.8027 42.7097 47.6922 42.6516 49.0036C42.6092 49.9512 42.2443 55.0818 41.2878 55.5773C41.0668 55.6919 40.8402 55.6793 40.6081 55.5394Z" fill="#FE2400"/>
<path d="M20.0691 47.3462C22.1205 48.5884 23.2678 50.6431 23.058 53.0761C22.3693 61.0572 10.5679 60.9936 10.0154 52.95C9.6527 47.6497 15.7633 44.739 20.0691 47.3462ZM19.8615 52.6766C19.8615 51.7963 19.5118 50.952 18.8893 50.3295C18.2668 49.7071 17.4226 49.3574 16.5423 49.3574C15.662 49.3574 14.8177 49.7071 14.1952 50.3295C13.5728 50.952 13.223 51.7963 13.223 52.6766C13.223 53.5569 13.5728 54.4012 14.1952 55.0236C14.8177 55.6461 15.662 55.9958 16.5423 55.9958C17.4226 55.9958 18.2668 55.6461 18.8893 55.0236C19.5118 54.4012 19.8615 53.5569 19.8615 52.6766Z" fill="#3F353E"/>
<path d="M27.2721 58.6299H24.2698C24.2609 58.6299 24.2524 58.6263 24.2461 58.62C24.2399 58.6138 24.2363 58.6053 24.2363 58.5964V46.7838C24.2363 46.7749 24.2399 46.7664 24.2461 46.7601C24.2524 46.7538 24.2609 46.7503 24.2698 46.7503L27.2721 46.7402C27.281 46.7402 27.2895 46.7438 27.2957 46.75C27.302 46.7563 27.3056 46.7648 27.3056 46.7737V51.5874C27.3056 51.5941 27.3077 51.6006 27.3116 51.6061C27.3154 51.6116 27.3208 51.6158 27.327 51.6182C27.3333 51.6206 27.3401 51.6211 27.3466 51.6196C27.3531 51.618 27.359 51.6146 27.3636 51.6097L31.6426 46.7793C31.6457 46.7758 31.6495 46.7731 31.6537 46.7711C31.658 46.7692 31.6626 46.7682 31.6672 46.7681L35.1471 46.7514C35.1537 46.7513 35.1601 46.753 35.1656 46.7565C35.1712 46.7599 35.1756 46.7649 35.1783 46.7709C35.181 46.7768 35.1819 46.7834 35.181 46.7899C35.18 46.7963 35.1772 46.8023 35.1728 46.8072L30.3491 52.3552C30.3436 52.3614 30.3406 52.3693 30.3406 52.3776C30.3406 52.3858 30.3436 52.3937 30.3491 52.3999L35.6371 58.5662C35.6415 58.5711 35.6443 58.5771 35.6453 58.5836C35.6462 58.59 35.6453 58.5966 35.6426 58.6026C35.6398 58.6085 35.6354 58.6135 35.6299 58.617C35.6244 58.6204 35.618 58.6222 35.6114 58.622L31.9183 58.6209C31.9137 58.6209 31.9091 58.6198 31.9049 58.6179C31.9006 58.616 31.8969 58.6132 31.8938 58.6098L27.3636 53.5249C27.359 53.52 27.3531 53.5166 27.3466 53.515C27.3401 53.5135 27.3333 53.514 27.327 53.5164C27.3208 53.5188 27.3154 53.523 27.3116 53.5285C27.3077 53.534 27.3056 53.5405 27.3056 53.5472V58.5964C27.3056 58.6053 27.302 58.6138 27.2957 58.62C27.2895 58.6263 27.281 58.6299 27.2721 58.6299Z" fill="#3F353E"/>
<path d="M55.1138 52.4334C56.0926 52.805 56.7499 53.526 56.924 54.5718C57.3437 57.0975 55.3805 58.5673 53.0791 58.5919C51.7331 58.606 50.3864 58.6079 49.0389 58.5975C49.0032 58.5975 48.9854 58.5796 48.9854 58.5439V46.8306C48.9854 46.7994 49.001 46.7837 49.0322 46.7837C50.6677 46.7518 52.084 46.748 53.2811 46.7726C54.8202 46.8038 56.2845 47.3407 56.6294 49.0382C56.9062 50.4043 56.4475 51.7302 55.1115 52.3441C55.1027 52.3478 55.0951 52.3542 55.0899 52.3623C55.0847 52.3704 55.082 52.3798 55.0822 52.3895C55.0825 52.3991 55.0856 52.4084 55.0912 52.4163C55.0969 52.4241 55.1047 52.43 55.1138 52.4334ZM51.5758 48.7447L51.5847 51.4813C51.5847 51.4958 51.5905 51.5097 51.6007 51.52C51.611 51.5303 51.6249 51.536 51.6394 51.536L52.5858 51.5327C52.7842 51.532 52.9805 51.4951 53.1635 51.424C53.3466 51.3528 53.5128 51.2489 53.6526 51.1181C53.7924 50.9873 53.9031 50.8322 53.9784 50.6616C54.0537 50.4911 54.0921 50.3085 54.0914 50.1242V50.084C54.09 49.712 53.9297 49.3559 53.6457 49.0939C53.3617 48.8318 52.9773 48.6854 52.5769 48.6867L51.6305 48.69C51.6233 48.69 51.6162 48.6914 51.6095 48.6942C51.6029 48.6969 51.5969 48.701 51.5918 48.706C51.5867 48.7111 51.5827 48.7171 51.5799 48.7238C51.5772 48.7304 51.5758 48.7375 51.5758 48.7447ZM51.5869 53.5416L51.5713 56.5193C51.5713 56.5344 51.5773 56.5489 51.588 56.5596C51.5987 56.5703 51.6131 56.5762 51.6282 56.5762L52.7845 56.5818C53.1807 56.5838 53.5615 56.4388 53.843 56.1789C54.1245 55.9189 54.2837 55.5653 54.2856 55.1957L54.2879 54.8921C54.2888 54.709 54.2511 54.5275 54.1768 54.3579C54.1026 54.1883 53.9933 54.0341 53.8551 53.9039C53.7169 53.7737 53.5527 53.6702 53.3716 53.5992C53.1906 53.5283 52.9964 53.4912 52.8001 53.4903L51.6439 53.4847C51.6288 53.4847 51.6143 53.4907 51.6036 53.5014C51.5929 53.512 51.5869 53.5265 51.5869 53.5416Z" fill="#3F353E"/>
<path d="M60.6799 55.8643L59.8093 58.5775C59.8072 58.5847 59.8027 58.5909 59.7967 58.5954C59.7907 58.5998 59.7833 58.6021 59.7759 58.6021H57.143C57.1374 58.6021 57.1319 58.6007 57.1269 58.5981C57.122 58.5955 57.1177 58.5917 57.1145 58.5871C57.1113 58.5825 57.1093 58.5772 57.1087 58.5716C57.108 58.5661 57.1087 58.5604 57.1106 58.5552L61.3562 46.7984C61.3587 46.792 61.3629 46.7865 61.3685 46.7825C61.374 46.7785 61.3806 46.7763 61.3875 46.7761L64.1118 46.7415C64.119 46.7415 64.1259 46.7438 64.1317 46.748C64.1375 46.7522 64.1419 46.7581 64.1442 46.7649L68.2324 58.5563C68.2342 58.5616 68.2347 58.5672 68.2339 58.5727C68.233 58.5782 68.2309 58.5834 68.2276 58.5879C68.2243 58.5924 68.22 58.596 68.215 58.5985C68.21 58.6009 68.2045 58.6022 68.1989 58.6021H65.5047C65.4972 58.6021 65.4899 58.5998 65.4839 58.5954C65.4778 58.5909 65.4734 58.5847 65.4712 58.5775L64.6141 55.8643C64.6119 55.8571 64.6075 55.8509 64.6014 55.8465C64.5954 55.842 64.5881 55.8397 64.5806 55.8398H60.7134C60.7059 55.8397 60.6986 55.842 60.6925 55.8465C60.6865 55.8509 60.6821 55.8571 60.6799 55.8643ZM61.3116 53.7661C61.3098 53.7717 61.3095 53.7777 61.3104 53.7835C61.3114 53.7893 61.3137 53.7948 61.3172 53.7996C61.3206 53.8043 61.3252 53.8082 61.3304 53.8109C61.3356 53.8136 61.3414 53.8151 61.3473 53.8152L63.9578 53.8475C63.9638 53.8476 63.9697 53.8463 63.9751 53.8437C63.9805 53.841 63.9851 53.8372 63.9887 53.8324C63.9923 53.8276 63.9947 53.822 63.9958 53.8161C63.9968 53.8102 63.9964 53.8042 63.9946 53.7984L62.7424 49.4803C62.7401 49.4725 62.7354 49.4657 62.729 49.4607C62.7225 49.4558 62.7147 49.4531 62.7065 49.453C62.6984 49.4528 62.6905 49.4553 62.6839 49.46C62.6773 49.4648 62.6724 49.4715 62.6699 49.4792L61.3116 53.7661Z" fill="#3F353E"/>
<path d="M75.9957 54.872L75.9935 46.7815C75.9935 46.7765 75.9945 46.7716 75.9964 46.767C75.9983 46.7624 76.0011 46.7582 76.0046 46.7547C76.0081 46.7512 76.0123 46.7484 76.0169 46.7465C76.0215 46.7446 76.0265 46.7436 76.0315 46.7436H78.4221C78.4322 46.7436 78.4418 46.7476 78.4489 46.7547C78.456 46.7618 78.4601 46.7715 78.4601 46.7815L78.4589 58.564C78.4589 58.5741 78.4549 58.5837 78.4478 58.5908C78.4407 58.598 78.431 58.602 78.421 58.602H75.4477C75.4404 58.602 75.4333 58.5999 75.4272 58.5959C75.421 58.5919 75.4161 58.5863 75.4131 58.5796L71.7145 50.5081C71.7109 50.5002 71.7047 50.4938 71.697 50.4898C71.6892 50.4859 71.6804 50.4848 71.6719 50.4866C71.6634 50.4884 71.6558 50.4931 71.6503 50.4999C71.6449 50.5066 71.6419 50.5151 71.6419 50.5238V58.564C71.6419 58.569 71.6409 58.5739 71.639 58.5785C71.6371 58.5831 71.6343 58.5873 71.6308 58.5908C71.6273 58.5944 71.6231 58.5972 71.6185 58.5991C71.6139 58.601 71.6089 58.602 71.604 58.602H69.2245C69.2144 58.602 69.2048 58.598 69.1976 58.5908C69.1905 58.5837 69.1865 58.5741 69.1865 58.564V46.7893C69.1865 46.7793 69.1905 46.7696 69.1976 46.7625C69.2048 46.7554 69.2144 46.7514 69.2245 46.7514L72.1776 46.7402C72.1849 46.7402 72.1921 46.7423 72.1982 46.7463C72.2044 46.7503 72.2092 46.7559 72.2122 46.7626L75.9232 54.8876C75.9268 54.8955 75.9329 54.902 75.9407 54.9059C75.9484 54.9098 75.9573 54.911 75.9658 54.9091C75.9743 54.9073 75.9819 54.9026 75.9873 54.8959C75.9928 54.8891 75.9957 54.8807 75.9957 54.872Z" fill="#3F353E"/>
<path d="M83.4368 51.1164L86.5786 46.7759C86.5821 46.7711 86.5866 46.7673 86.5918 46.7645C86.5971 46.7618 86.6028 46.7604 86.6087 46.7603L89.6322 46.7625C89.6393 46.7625 89.6464 46.7644 89.6524 46.7682C89.6585 46.7719 89.6634 46.7773 89.6666 46.7837C89.6697 46.7902 89.671 46.7973 89.6702 46.8044C89.6695 46.8115 89.6667 46.8183 89.6623 46.8239L85.3989 52.3262C85.3938 52.3327 85.3909 52.3406 85.3907 52.3489C85.3905 52.3571 85.393 52.3652 85.3978 52.3719L89.9927 58.5327C89.9968 58.5383 89.9992 58.545 89.9998 58.5519C90.0004 58.5588 89.9991 58.5658 89.9959 58.572C89.9928 58.5782 89.9881 58.5835 89.9822 58.5872C89.9763 58.5909 89.9695 58.5929 89.9626 58.593L86.8096 58.6053C86.8035 58.6052 86.7974 58.6037 86.7919 58.6008C86.7865 58.5979 86.7818 58.5936 86.7784 58.5885L83.4335 53.7358C83.4289 53.7292 83.4223 53.7241 83.4147 53.7215C83.4071 53.7188 83.3988 53.7187 83.3911 53.721C83.3834 53.7234 83.3766 53.7282 83.3718 53.7346C83.367 53.7411 83.3644 53.7489 83.3643 53.757L83.3453 58.564C83.3453 58.569 83.3443 58.5739 83.3424 58.5785C83.3405 58.5831 83.3377 58.5873 83.3342 58.5908C83.3307 58.5943 83.3265 58.5971 83.3219 58.599C83.3173 58.6009 83.3123 58.6019 83.3074 58.6019H80.7147C80.7046 58.6019 80.695 58.5979 80.6879 58.5908C80.6808 58.5837 80.6768 58.574 80.6768 58.564L80.6846 46.806C80.6846 46.796 80.6886 46.7863 80.6957 46.7792C80.7028 46.7721 80.7125 46.7681 80.7225 46.7681L83.304 46.7346C83.3141 46.7346 83.3237 46.7386 83.3308 46.7457C83.338 46.7528 83.342 46.7625 83.342 46.7726L83.3676 51.094C83.3675 51.1022 83.3699 51.1102 83.3747 51.1169C83.3794 51.1235 83.3861 51.1285 83.3939 51.131C83.4017 51.1335 83.4101 51.1334 83.4178 51.1308C83.4255 51.1281 83.4322 51.1231 83.4368 51.1164Z" fill="#3F353E"/>
<path d="M40.9753 58.9357C41.7335 58.9357 42.3481 58.3211 42.3481 57.563C42.3481 56.8048 41.7335 56.1902 40.9753 56.1902C40.2172 56.1902 39.6025 56.8048 39.6025 57.563C39.6025 58.3211 40.2172 58.9357 40.9753 58.9357Z" fill="#FE2400"/>
</svg>
