<svg width="100" height="100" viewBox="0 0 100 100" fill="none" xmlns="http://www.w3.org/2000/svg">
<rect width="100" height="100" fill="#F0F3FA"/>
<path d="M6.41513 43.4371C7.25111 40.3531 9.46498 37.4178 12.6123 36.4553C13.2619 36.2558 14.3891 36.1174 15.9938 36.0399C21.5282 35.7743 27.0637 35.535 32.6004 35.3218C43.8071 34.8899 55.4247 34.8927 67.4532 35.3304C74.7519 35.5971 80.627 35.8421 85.0787 36.0655C87.961 36.2108 89.9099 36.6809 91.7443 38.7769C93.1222 40.3519 93.8368 42.2131 93.8881 44.3603C94.0191 49.8388 94.0351 53.328 93.9359 54.8279C93.7086 58.2487 91.6571 61.4199 88.3594 62.5192C87.7804 62.7129 86.9598 62.8429 85.8976 62.909C76.103 63.5244 66.3004 63.949 56.4898 64.1826C42.4047 64.5177 28.1898 63.7826 14.1372 62.8679C9.3966 62.5602 6.27837 58.3564 6.07151 53.8022C5.98033 51.7906 5.97635 49.3602 6.05954 46.5109C6.09829 45.1934 6.21682 44.1688 6.41513 43.4371ZM14.7544 37.7939C10.5129 37.9802 7.88364 42.555 7.86655 46.3673C7.85629 48.7014 7.86541 51.0338 7.8939 53.3645C7.94006 57.1683 10.2616 60.8985 14.3184 61.1498C25.3109 61.8314 36.0708 62.2514 46.5983 62.4098C50.4431 62.4679 54.7341 62.4132 57.8591 62.2987C66.8765 61.967 75.8876 61.5066 84.8924 60.9173C86.3991 60.8193 87.4333 60.6729 87.9952 60.478C90.0997 59.748 91.6315 57.7632 92.0178 55.5921C92.0885 55.1932 92.1301 54.1116 92.1426 52.3473C92.1597 49.8445 92.1637 47.3417 92.1546 44.8389C92.15 43.3528 91.787 42.0284 91.0656 40.8659C89.8706 38.9376 88.1064 38.1683 85.8754 38.0452C76.3714 37.5198 66.8617 37.1334 57.3463 36.8861C43.1758 36.5185 28.9129 37.175 14.7544 37.7939Z" fill="#EE1C28"/>
<path d="M12.1686 56.5976C11.3361 55.9753 11.531 55.3086 11.7344 54.276C12.514 50.3178 13.2918 46.3573 14.0679 42.3946C14.0793 42.3387 14.1135 42.3102 14.1705 42.3091C15.3723 42.3005 17.5811 41.7894 17.2033 43.875C16.4214 48.1945 15.6339 52.5129 14.8407 56.8301C14.8304 56.8859 14.7968 56.9144 14.7398 56.9156C13.7141 56.9412 12.8012 57.0694 12.1686 56.5976Z" fill="#204393"/>
<path d="M35.2582 46.1638L36.1163 42.425C36.1334 42.3498 36.1802 42.3116 36.2565 42.3105C36.7352 42.3002 37.3706 42.3048 38.1627 42.3242C39.5218 42.3584 39.5184 43.2371 39.2688 44.3141C38.5553 47.405 37.9205 50.5118 37.3643 53.6346C37.2908 54.05 37.3045 54.4227 37.3404 54.8313C37.3444 54.8769 37.3585 54.9211 37.3816 54.9606C37.4047 55.0002 37.4362 55.0341 37.4739 55.0601C37.5116 55.0861 37.5546 55.1034 37.5998 55.1108C37.645 55.1183 37.6912 55.1156 37.7353 55.1031L38.0567 55.0108C38.1137 54.9949 38.1291 55.0137 38.1029 55.0672C37.6139 56.0588 36.4805 57.1785 35.2906 56.8828C34.7914 56.7585 34.4222 56.44 34.1828 55.9271C34.1566 55.8724 34.1196 55.8633 34.0717 55.8998C31.3108 57.9683 28.2011 56.9392 28.0558 53.2397C27.919 49.7488 29.7961 45.6578 33.9367 45.998C34.2871 46.0271 34.7316 46.1656 35.1402 46.2408C35.204 46.2533 35.2433 46.2277 35.2582 46.1638ZM31.916 54.2432C32.4032 54.6689 33.3879 54.1492 33.7691 53.7868C33.9344 53.6295 34.0444 53.4118 34.0991 53.1337C34.3623 51.8185 34.6239 50.4902 34.8838 49.1487C34.8894 49.1186 34.887 49.0874 34.8768 49.0583C34.8666 49.0292 34.849 49.0032 34.8256 48.9829C32.21 46.6801 30.4731 52.9816 31.916 54.2432Z" fill="#204393"/>
<path d="M66.2903 48.5045H64.7807C64.7066 48.5045 64.6781 48.4686 64.6952 48.3968L65.2252 46.0753C65.2389 46.0137 65.2776 45.9829 65.3415 45.9829H66.8065C66.8335 45.9831 66.8597 45.9742 66.881 45.9578C66.9024 45.9414 66.9177 45.9184 66.9245 45.8923L67.8425 42.4014C67.8574 42.3444 67.8938 42.3154 67.9519 42.3142C68.5207 42.3006 69.0882 42.2977 69.6547 42.3057C70.506 42.3176 71.1146 42.3176 70.8873 43.3724C70.7083 44.2022 70.5328 45.0056 70.3607 45.7829C70.3288 45.9254 70.3852 45.9949 70.53 45.9915L72.4002 45.9539C72.4146 45.9538 72.4288 45.957 72.4417 45.9631C72.4547 45.9693 72.4661 45.9782 72.4752 45.9894C72.4842 46.0006 72.4906 46.0136 72.4939 46.0276C72.4972 46.0416 72.4973 46.0561 72.4942 46.0701L71.9814 48.4293C71.97 48.4795 71.9386 48.5045 71.8873 48.5045H70C69.9453 48.5045 69.9122 48.5307 69.9008 48.5832L68.7537 53.7631C68.7375 53.8369 68.7379 53.9134 68.7548 53.987C68.7717 54.0607 68.8047 54.1296 68.8515 54.189C68.8983 54.2483 68.9576 54.2966 69.0252 54.3303C69.0929 54.3639 69.1671 54.3822 69.2427 54.3837L70.7625 54.4111C70.7823 54.4115 70.8019 54.4162 70.8199 54.4248C70.8378 54.4333 70.8538 54.4455 70.8667 54.4606C71.4172 55.0778 71.0839 56.8403 70.0786 56.878C69.1167 56.9121 68.1525 56.9213 67.1861 56.9053C64.8645 56.8677 64.9602 55.2932 65.3483 53.5016C65.7016 51.8729 66.0424 50.2403 66.3706 48.6037C66.3843 48.5376 66.3575 48.5045 66.2903 48.5045Z" fill="#204393"/>
<path d="M87.0894 56.919C85.3816 56.9412 83.1848 57.3567 82.7472 55.3992C82.6845 55.1143 82.713 54.6801 82.8326 54.0965C83.6339 50.209 84.4208 46.3158 85.1935 42.4168C85.2049 42.3599 85.2397 42.3296 85.2978 42.3262C86.099 42.2795 86.8968 42.2863 87.6912 42.3467C88.6383 42.4185 88.5169 43.4169 88.387 44.0546C87.8593 46.636 87.1875 49.7856 86.3714 53.5033C86.3065 53.7996 86.3612 54.0601 86.5355 54.2846C86.5521 54.3065 86.5732 54.3246 86.5974 54.3376C86.6216 54.3506 86.6483 54.3582 86.6757 54.3598C87.2519 54.3991 88.4451 54.2384 88.4537 55.112C88.4605 55.9258 88.0605 56.907 87.0894 56.919Z" fill="#204393"/>
<path d="M21.6432 47.2258C23.3408 45.8274 26.7479 44.9606 27.3497 48.0378C27.4472 48.5422 27.3377 49.5405 27.2027 50.1867C26.8824 51.7185 26.5793 53.2537 26.2932 54.7923C26.1872 55.3599 26.0829 55.7599 26.4795 56.23C26.4907 56.2429 26.4988 56.2581 26.5034 56.2745C26.508 56.2909 26.509 56.3081 26.5062 56.3249C26.5034 56.3417 26.497 56.3577 26.4874 56.3717C26.4777 56.3857 26.4651 56.3975 26.4505 56.4061C24.8127 57.3669 22.5305 57.2848 23.0536 54.6487C23.3664 53.0725 23.881 51.3527 23.9203 49.7491C23.9374 49.0362 23.6878 48.4191 22.8467 48.5627C21.9407 48.7182 21.6535 49.3696 21.4654 50.2568C21.0517 52.2114 20.6175 54.1626 20.1627 56.1104C19.9165 57.1703 17.889 56.9634 16.771 56.8968C16.7288 56.8945 16.7117 56.8723 16.7197 56.8301L18.6019 46.0291C18.6068 46.0024 18.6211 45.9782 18.6424 45.961C18.6637 45.9438 18.6906 45.9346 18.7182 45.9351C19.8892 45.9573 20.9354 46 21.503 47.195C21.5372 47.2645 21.5839 47.2748 21.6432 47.2258Z" fill="#204393"/>
<path d="M49.9846 51.4467C49.9846 52.8989 49.4077 54.2917 48.3808 55.3186C47.3539 56.3455 45.9612 56.9224 44.5089 56.9224C43.7898 56.9224 43.0778 56.7807 42.4135 56.5056C41.7491 56.2304 41.1455 55.827 40.637 55.3186C40.1285 54.8101 39.7252 54.2065 39.45 53.5421C39.1748 52.8778 39.0332 52.1657 39.0332 51.4467C39.0332 50.7276 39.1748 50.0155 39.45 49.3512C39.7252 48.6869 40.1285 48.0832 40.637 47.5747C41.1455 47.0663 41.7491 46.6629 42.4135 46.3878C43.0778 46.1126 43.7898 45.9709 44.5089 45.9709C45.9612 45.9709 47.3539 46.5479 48.3808 47.5747C49.4077 48.6016 49.9846 49.9944 49.9846 51.4467ZM49.0615 51.4501C49.0615 50.2427 48.5818 49.0847 47.7281 48.2309C46.8743 47.3772 45.7163 46.8975 44.5089 46.8975C43.9111 46.8975 43.3191 47.0153 42.7667 47.2441C42.2144 47.4729 41.7125 47.8082 41.2898 48.2309C40.867 48.6537 40.5317 49.1556 40.3029 49.7079C40.0741 50.2602 39.9564 50.8522 39.9564 51.4501C39.9564 52.0479 40.0741 52.6399 40.3029 53.1923C40.5317 53.7446 40.867 54.2465 41.2898 54.6692C41.7125 55.092 42.2144 55.4273 42.7667 55.6561C43.3191 55.8849 43.9111 56.0026 44.5089 56.0026C45.7163 56.0026 46.8743 55.523 47.7281 54.6692C48.5818 53.8155 49.0615 52.6575 49.0615 51.4501Z" fill="#EE1C28"/>
<path d="M54.515 48.0259C54.5161 48.0328 54.5194 48.0391 54.5243 48.044C54.5293 48.0488 54.5357 48.052 54.5426 48.0529C54.5495 48.0539 54.5565 48.0526 54.5626 48.0493C54.5687 48.0459 54.5736 48.0407 54.5765 48.0344C55.5271 46.1402 57.0338 45.5573 59.0966 46.2855C59.1946 46.3209 59.2197 46.3847 59.1718 46.477L57.57 49.5371C57.5381 49.5964 57.4902 49.6158 57.4264 49.5953C55.1698 48.8841 54.6911 50.3013 54.3252 52.1784C54.0209 53.7329 53.7178 55.2852 53.4158 56.8352C53.4044 56.8922 53.3696 56.9207 53.3115 56.9207L50.1368 56.931C50.0479 56.931 50.0132 56.8877 50.0325 56.801C50.5295 54.639 50.9893 52.4428 51.4122 50.2124C51.5831 49.3115 51.419 48.7353 50.6993 48.2191C50.6886 48.2115 50.6797 48.2017 50.6732 48.1903C50.6667 48.1789 50.6629 48.1662 50.6619 48.1531C50.6609 48.14 50.6628 48.1269 50.6675 48.1147C50.6722 48.1024 50.6796 48.0914 50.689 48.0823L52.7405 46.1009C52.8016 46.0419 52.8811 46.0056 52.9657 45.9981C53.0504 45.9906 53.135 46.0124 53.2055 46.0599C53.9098 46.5306 54.3463 47.1859 54.515 48.0259Z" fill="#204393"/>
<path d="M61.8646 56.9085C59.9687 56.994 58.4164 57.2914 58.8866 54.6997C59.4108 51.814 59.9841 48.9374 60.6064 46.0699C60.6178 46.0129 60.6525 45.9844 60.7107 45.9844C62.4014 45.969 64.0853 45.6835 63.6357 48.0786C63.0875 50.994 62.5313 53.9076 61.9672 56.8196C61.9569 56.8754 61.9227 56.9051 61.8646 56.9085Z" fill="#204393"/>
<path d="M75.2725 52.4705C75.2406 53.0768 75.411 53.5544 75.7837 53.9031C76.9154 54.963 79.0233 54.0501 80.102 53.3612C80.1636 53.3224 80.2091 53.3367 80.2388 53.4039L81.0987 55.399C81.1203 55.4469 81.1089 55.4856 81.0645 55.5152C79.127 56.8544 77.0789 57.2561 74.9203 56.7205C71.7918 55.9443 71.4944 51.8602 72.5594 49.4309C73.6091 47.041 75.9204 45.8238 78.466 45.9793C82.0868 46.2016 82.8903 49.5916 81.2953 52.3184C81.2656 52.3685 81.2218 52.3936 81.1636 52.3936H75.3546C75.3033 52.3936 75.2759 52.4192 75.2725 52.4705ZM77.8266 48.3642C76.8179 48.2359 76.0059 49.1608 75.7392 50.0669C75.7176 50.1364 75.7432 50.1712 75.8162 50.1712H78.6027C78.6609 50.1712 78.7002 50.1432 78.7207 50.0874C79.0028 49.2993 78.7309 48.4804 77.8266 48.3642Z" fill="#204393"/>
<path d="M48.1533 51.4468C48.1533 52.4139 47.7691 53.3414 47.0853 54.0252C46.4014 54.7091 45.4739 55.0933 44.5068 55.0933C43.5397 55.0933 42.6122 54.7091 41.9284 54.0252C41.2445 53.3414 40.8604 52.4139 40.8604 51.4468C40.8604 50.4797 41.2445 49.5522 41.9284 48.8683C42.6122 48.1845 43.5397 47.8003 44.5068 47.8003C45.4739 47.8003 46.4014 48.1845 47.0853 48.8683C47.7691 49.5522 48.1533 50.4797 48.1533 51.4468ZM47.2524 51.4485C47.2524 50.7212 46.9635 50.0238 46.4492 49.5095C45.935 48.9953 45.2375 48.7064 44.5103 48.7064C43.783 48.7064 43.0855 48.9953 42.5713 49.5095C42.057 50.0238 41.7681 50.7212 41.7681 51.4485C41.7681 52.1757 42.057 52.8732 42.5713 53.3875C43.0855 53.9017 43.783 54.1906 44.5103 54.1906C45.2375 54.1906 45.935 53.9017 46.4492 53.3875C46.9635 52.8732 47.2524 52.1757 47.2524 51.4485Z" fill="#EE1C28"/>
<path d="M46.323 51.4501C46.323 51.9311 46.1319 52.3925 45.7917 52.7326C45.4516 53.0728 44.9902 53.2639 44.5092 53.2639C44.0281 53.2639 43.5667 53.0728 43.2266 52.7326C42.8864 52.3925 42.6953 51.9311 42.6953 51.4501C42.6953 51.2119 42.7422 50.976 42.8334 50.7559C42.9245 50.5359 43.0581 50.3359 43.2266 50.1675C43.395 49.9991 43.595 49.8655 43.815 49.7743C44.0351 49.6831 44.271 49.6362 44.5092 49.6362C44.7474 49.6362 44.9832 49.6831 45.2033 49.7743C45.4233 49.8655 45.6233 49.9991 45.7917 50.1675C45.9602 50.3359 46.0938 50.5359 46.1849 50.7559C46.2761 50.976 46.323 51.2119 46.323 51.4501ZM45.6511 51.4501C45.6511 51.1472 45.5308 50.8567 45.3167 50.6426C45.1025 50.4284 44.812 50.3081 44.5092 50.3081C44.3592 50.3081 44.2107 50.3376 44.0721 50.395C43.9336 50.4524 43.8077 50.5365 43.7016 50.6426C43.5956 50.7486 43.5115 50.8745 43.4541 51.0131C43.3967 51.1516 43.3672 51.3001 43.3672 51.4501C43.3672 51.6 43.3967 51.7485 43.4541 51.8871C43.5115 52.0256 43.5956 52.1515 43.7016 52.2576C43.8077 52.3636 43.9336 52.4477 44.0721 52.5051C44.2107 52.5625 44.3592 52.5921 44.5092 52.5921C44.812 52.5921 45.1025 52.4717 45.3167 52.2576C45.5308 52.0434 45.6511 51.7529 45.6511 51.4501Z" fill="#EE1C28"/>
</svg>
