<svg width="100" height="100" viewBox="0 0 100 100" fill="none" xmlns="http://www.w3.org/2000/svg">
<rect width="100" height="100" fill="#595C62"/>
<path d="M17.1748 40.8203H23.5147C24.9444 40.8203 26.0342 40.9297 26.7842 41.1484C27.792 41.4453 28.6553 41.9727 29.3741 42.7305C30.0928 43.4883 30.6397 44.418 31.0147 45.5195C31.3897 46.6133 31.5772 47.9648 31.5772 49.5742C31.5772 50.9883 31.4014 52.207 31.0498 53.2305C30.6202 54.4805 30.0069 55.4922 29.21 56.2656C28.6084 56.8516 27.7959 57.3086 26.7725 57.6367C26.0069 57.8789 24.9834 58 23.7022 58H17.1748V40.8203ZM20.6436 43.7266V55.1055H23.2334C24.2022 55.1055 24.9014 55.0508 25.3311 54.9414C25.8936 54.8008 26.3584 54.5625 26.7256 54.2266C27.1006 53.8906 27.4053 53.3398 27.6397 52.5742C27.8741 51.8008 27.9912 50.75 27.9912 49.4219C27.9912 48.0938 27.8741 47.0742 27.6397 46.3633C27.4053 45.6523 27.0772 45.0977 26.6553 44.6992C26.2334 44.3008 25.6983 44.0312 25.0498 43.8906C24.5655 43.7812 23.6162 43.7266 22.2022 43.7266H20.6436ZM34.9255 58V40.8203H38.3005L45.3317 52.293V40.8203H48.5544V58H45.0739L38.1481 46.7969V58H34.9255ZM52.6409 58V40.8203H56.1097V48.4492L63.1175 40.8203H67.7816L61.3128 47.5117L68.1331 58H63.6448L58.9222 49.9375L56.1097 52.8086V58H52.6409ZM69.4189 52.4102L72.7939 52.082C72.997 53.2148 73.4072 54.0469 74.0244 54.5781C74.6494 55.1094 75.4892 55.375 76.5439 55.375C77.6611 55.375 78.5009 55.1406 79.0634 54.6719C79.6338 54.1953 79.9189 53.6406 79.9189 53.0078C79.9189 52.6016 79.7978 52.2578 79.5556 51.9766C79.3213 51.6875 78.9072 51.4375 78.3134 51.2266C77.9072 51.0859 76.9814 50.8359 75.5361 50.4766C73.6767 50.0156 72.372 49.4492 71.622 48.7773C70.5673 47.832 70.04 46.6797 70.04 45.3203C70.04 44.4453 70.2861 43.6289 70.7783 42.8711C71.2783 42.1055 71.9931 41.5234 72.9228 41.125C73.8603 40.7266 74.9892 40.5273 76.3095 40.5273C78.4658 40.5273 80.0869 41 81.1728 41.9453C82.2666 42.8906 82.8408 44.1523 82.8955 45.7305L79.4267 45.8828C79.2783 45 78.958 44.3672 78.4658 43.9844C77.9814 43.5938 77.2509 43.3984 76.2744 43.3984C75.2666 43.3984 74.4775 43.6055 73.9072 44.0195C73.54 44.2852 73.3564 44.6406 73.3564 45.0859C73.3564 45.4922 73.5283 45.8398 73.872 46.1289C74.3095 46.4961 75.372 46.8789 77.0595 47.2773C78.747 47.6758 79.9931 48.0898 80.7978 48.5195C81.6103 48.9414 82.2431 49.5234 82.6963 50.2656C83.1572 51 83.3877 51.9102 83.3877 52.9961C83.3877 53.9805 83.1142 54.9023 82.5673 55.7617C82.0205 56.6211 81.247 57.2617 80.247 57.6836C79.247 58.0977 78.0009 58.3047 76.5088 58.3047C74.3369 58.3047 72.6689 57.8047 71.5048 56.8047C70.3408 55.7969 69.6455 54.332 69.4189 52.4102Z" fill="#F8F8F8"/>
</svg>
