<svg width="100" height="100" viewBox="0 0 100 100" fill="none" xmlns="http://www.w3.org/2000/svg">
<rect width="100" height="100" fill="#E6FDBD"/>
<path d="M84.5535 19.653C83.1024 18.1978 81.6791 16.8186 80.2833 15.5154C80.1113 15.3556 80.0405 15.1538 80.071 14.9101C81.8782 16.1772 83.3724 17.7582 84.5535 19.653Z" fill="#57B346"/>
<path d="M80.071 14.9101C80.0405 15.1538 80.1113 15.3556 80.2833 15.5154C81.6791 16.8186 83.1024 18.1978 84.5535 19.653C85.4228 20.7769 86.1254 21.7799 86.6611 22.6624C87.609 24.2182 88.3654 25.8523 88.9304 27.5645C88.9393 27.5883 88.9427 27.6135 88.9403 27.6382C88.9127 27.9059 88.8293 27.9747 88.6903 27.8445C87.9888 27.1871 87.2956 26.5382 86.6107 25.8977C86.7289 25.7168 86.8483 25.6438 86.9689 25.6788C86.9804 25.6815 86.9925 25.6804 87.0033 25.6756C87.0142 25.6709 87.0232 25.6628 87.0292 25.6526C87.0351 25.6423 87.0376 25.6304 87.0362 25.6187C87.0349 25.6069 87.0298 25.5959 87.0217 25.5872C85.0554 23.7124 83.0931 21.6483 81.184 19.937C78.236 17.2977 74.7486 14.7355 72.599 12.8786C71.7607 12.1546 70.9813 11.5937 70.2607 11.1958C69.5338 10.7947 69.0422 10.3561 68.5177 9.80444C72.7198 10.7871 76.5707 12.4891 80.071 14.9101Z" fill="#9DC950"/>
<path d="M86.6107 25.8977C83.6575 23.1378 80.3441 20.9736 76.6706 19.4046C76.6011 19.3755 76.5448 19.3294 76.5019 19.2662C73.7414 15.265 70.0485 11.3746 65.6667 9.22276C65.6383 9.21158 65.6154 9.18954 65.6031 9.1615C65.5909 9.13345 65.5903 9.1017 65.6015 9.07322C65.6127 9.04473 65.6347 9.02186 65.6628 9.00963C65.6908 8.99739 65.7226 8.9968 65.751 9.00797L68.5177 9.80444C69.0422 10.3561 69.5338 10.7947 70.2607 11.1958C70.9813 11.5937 71.7607 12.1546 72.599 12.8786C74.7486 14.7355 78.236 17.2977 81.184 19.937C83.0931 21.6483 85.0554 23.7124 87.0217 25.5872C87.0298 25.5959 87.0349 25.6069 87.0362 25.6187C87.0376 25.6304 87.0351 25.6423 87.0292 25.6526C87.0232 25.6628 87.0142 25.6709 87.0033 25.6756C86.9925 25.6804 86.9804 25.6815 86.9689 25.6788C86.8483 25.6438 86.7289 25.7168 86.6107 25.8977Z" fill="#57B346"/>
<path d="M90.4662 41.2791C90.1985 41.3297 90.0456 41.2942 90.0076 41.1727C89.6785 40.1385 89.3143 39.118 88.9149 38.1111C88.0692 35.9856 87.3744 33.8089 86.4501 31.7136C86.1768 31.0965 85.8311 30.7475 85.37 30.2483C84.5024 29.3101 82.8561 27.483 80.4313 24.7668C80.0214 24.3043 79.7653 23.6922 79.546 23.1305C82.4427 24.6013 85.1524 26.4372 87.675 28.6383C89.1116 29.8894 89.8966 31.0768 90.2097 33.0105C90.644 35.7 90.5855 38.7301 90.4662 41.2791Z" fill="#9DC950"/>
<path d="M79.546 23.1305C79.7653 23.6922 80.0214 24.3043 80.4313 24.7668C82.8561 27.483 84.5024 29.3101 85.37 30.2483C85.8311 30.7475 86.1768 31.0965 86.4501 31.7136C87.3744 33.8089 88.0692 35.9856 88.9149 38.1111C89.3143 39.118 89.6785 40.1385 90.0076 41.1727C90.0456 41.2942 90.1985 41.3297 90.4662 41.2791L90.4597 41.7421C90.4594 41.7746 90.4503 41.8064 90.4334 41.8342C90.4164 41.8619 90.3922 41.8845 90.3634 41.8995C90.3346 41.9146 90.3022 41.9215 90.2698 41.9196C90.2373 41.9176 90.206 41.9069 90.1792 41.8885C87.8959 40.3067 85.5944 38.5603 83.1357 37.3313C83.0663 37.2959 83.0285 37.2401 83.0222 37.1638C82.6299 32.3155 80.8134 27.2538 78.6253 22.9396C78.5775 22.8461 78.6063 22.7964 78.7118 22.7905C78.9592 22.7762 79.2374 22.8895 79.546 23.1305Z" fill="#57B346"/>
<path d="M88.9522 49.9176C88.8412 49.8691 88.7695 49.8134 88.7369 49.7504C87.2226 46.8213 85.693 43.8196 84.1483 40.7451C84.0183 40.4867 83.8631 40.47 83.6827 40.695C83.6105 40.7858 83.5989 40.8701 83.6479 40.948C83.6867 41.0111 83.6817 41.0694 83.633 41.123C83.5853 41.1777 83.5428 41.1943 83.5056 41.1729L83.3357 39.285C83.325 39.1555 83.3776 39.1198 83.4937 39.1777L90.3112 42.6271C90.3817 42.6635 90.4122 42.7213 90.4028 42.8005C90.1071 45.2041 89.6236 47.5765 88.9522 49.9176Z" fill="#9DC950"/>
<path d="M88.9522 49.9176C88.94 49.9686 88.9184 50.0152 88.8875 50.0575C88.8461 50.1144 88.7909 50.1402 88.7222 50.1351L83.5816 49.8115C83.5603 49.8099 83.5395 49.8042 83.5204 49.7947C83.5013 49.7851 83.4843 49.772 83.4704 49.7559C83.4565 49.7398 83.446 49.7212 83.4394 49.7011C83.4328 49.681 83.4304 49.6599 83.4322 49.6389C83.6721 46.8141 83.6966 43.9921 83.5056 41.1729C83.5428 41.1943 83.5853 41.1777 83.633 41.123C83.6817 41.0694 83.6867 41.0111 83.6479 40.948C83.5989 40.8701 83.6105 40.7858 83.6827 40.695C83.8631 40.47 84.0183 40.4867 84.1483 40.7451C85.693 43.8196 87.2226 46.8213 88.7369 49.7504C88.7695 49.8134 88.8412 49.8691 88.9522 49.9176Z" fill="#57B346"/>
<path d="M81.2034 49.2551C80.6171 49.2236 80.5114 48.8263 80.2106 48.5108C75.9298 44.0419 71.6084 39.6125 67.2462 35.2228C67.1917 35.1688 67.1273 35.1471 67.0531 35.1575C66.9131 35.1765 66.8147 35.2763 66.758 35.4571L66.4905 34.5318C66.4626 34.4375 66.4976 34.3952 66.5955 34.4049C70.0753 34.7638 73.6765 35.6375 77.0911 36.418C78.4794 36.7342 79.5677 37.1038 80.3558 37.5266C82.0863 38.4515 81.414 47.3584 81.2034 49.2551Z" fill="#9DC950"/>
<path d="M85.9694 57.3189C86.0386 57.1383 86.0256 56.9421 85.9305 56.73C85.1561 54.993 84.3298 53.2819 83.4515 51.5966C83.4179 51.5325 83.3658 51.4958 83.295 51.4865L83.2122 51.4776C83.1805 51.4239 83.1902 51.363 83.2412 51.2949C83.2571 51.2728 83.2776 51.2545 83.3014 51.2415C83.3251 51.2286 83.3515 51.2212 83.3784 51.2201L88.5009 51.0302C88.6032 51.0254 88.6375 51.0712 88.6039 51.1678C87.9112 53.157 87.1755 55.0884 86.3968 56.9617C86.2868 57.2252 86.1443 57.3443 85.9694 57.3189Z" fill="#9DC950"/>
<path d="M81.2034 49.2551C81.2258 49.2992 81.2348 49.3438 81.2321 49.3896C81.2259 49.4657 81.1847 49.5027 81.1086 49.5006C76.2237 49.3604 72.835 49.3142 69.2605 48.9024C69.1823 48.894 69.1328 48.8516 69.112 48.7752C69.0388 48.5223 69.0816 48.1348 69.0654 47.9468C68.6631 43.7133 67.8945 39.5504 66.758 35.4571C66.8147 35.2763 66.9131 35.1765 67.0531 35.1575C67.1273 35.1471 67.1917 35.1688 67.2462 35.2228C71.6084 39.6125 75.9298 44.0419 80.2106 48.5108C80.5114 48.8263 80.6171 49.2236 81.2034 49.2551Z" fill="#57B346"/>
<path d="M85.9694 57.3189L85.3226 57.5462L83.7216 58.1378C83.6817 58.1518 83.6584 58.1797 83.6516 58.2213C83.6449 58.2504 83.6269 58.2763 83.5973 58.2988C83.4509 58.253 83.3241 58.256 83.1867 58.3464C82.8235 58.5866 82.4287 58.7763 82.0022 58.9155C81.9278 58.9405 81.8969 58.914 81.9094 58.836L83.2122 51.4776L83.295 51.4865C83.3658 51.4958 83.4179 51.5325 83.4515 51.5966C84.3298 53.2819 85.1561 54.993 85.9305 56.73C86.0256 56.9421 86.0386 57.1383 85.9694 57.3189Z" fill="#57B346"/>
<path d="M79.5969 59.6388L69.9066 51.9331C69.8793 51.9121 69.8569 51.8856 69.8409 51.8554C69.8248 51.8252 69.8155 51.7921 69.8135 51.7582C69.8025 51.5671 69.7358 51.4108 69.6133 51.2892L80.9978 51.2364C81.0687 51.2352 81.0985 51.2701 81.0871 51.3408L79.5969 59.6388Z" fill="#57B346"/>
<path d="M80.9722 66.204C81.3586 64.4119 81.5735 62.6148 81.6169 60.8128C81.6188 60.7492 81.4917 60.6948 81.2357 60.6496C81.5624 60.0229 82.342 59.5422 83.5744 59.2075C84.1034 58.8183 84.666 58.5599 85.2624 58.4325C85.3701 58.41 85.4437 58.3713 85.483 58.3166C85.5394 58.237 85.5506 58.1448 85.5165 58.04C85.6072 58.0465 85.6877 58.0732 85.758 58.12C85.8211 58.1595 85.836 58.2129 85.8027 58.2802C84.7405 60.4397 83.4529 62.6817 81.9399 65.0061C81.6181 65.5025 81.2955 65.9018 80.9722 66.204Z" fill="#57B346"/>
<path d="M80.9722 66.204C80.2453 67.4877 79.2822 68.5806 78.0827 69.4822C78.0715 69.4903 78.058 69.4946 78.0442 69.4944C78.0304 69.4942 78.017 69.4896 78.0061 69.4811C77.9951 69.4727 77.9871 69.461 77.9834 69.4477C77.9796 69.4344 77.9802 69.4203 77.9852 69.4074L81.2357 60.6496C81.4917 60.6948 81.6188 60.7492 81.6169 60.8128C81.5735 62.6148 81.3586 64.4119 80.9722 66.204Z" fill="#11A647"/>
<path d="M79.5969 59.6388L69.0351 62.7198C68.9576 62.7417 68.9225 62.7131 68.9299 62.6339C69.2417 58.8931 69.3997 55.1466 69.404 51.3944C69.4042 51.3036 69.449 51.2651 69.5385 51.2788L69.6133 51.2892C69.7358 51.4108 69.8025 51.5671 69.8135 51.7582C69.8155 51.7921 69.8248 51.8252 69.8409 51.8554C69.8569 51.8856 69.8793 51.9121 69.9066 51.9331L79.5969 59.6388Z" fill="#11A647"/>
<path d="M75.91 70.67L68.9018 64.9021C72.4523 63.7535 75.8379 62.5369 79.1508 61.1347C79.1705 61.1265 79.1922 61.124 79.2133 61.1276C79.2343 61.1312 79.2539 61.1407 79.2698 61.155C79.2857 61.1694 79.2972 61.1879 79.3029 61.2085C79.3087 61.2291 79.3084 61.2508 79.3023 61.2713C78.3262 64.5388 77.1954 67.6717 75.91 70.67Z" fill="#57B346"/>
<path d="M66.6954 62.8694C66.5922 62.8649 66.5236 62.8483 66.4895 62.8197C61.9646 59.1214 57.4312 55.4345 52.8892 51.759C52.8325 51.7134 52.7685 51.7005 52.6973 51.7204L52.3988 51.8071L52.3031 51.2487C52.2866 51.1577 52.3248 51.1124 52.4177 51.1126L66.6899 51.2259C66.7525 51.2268 66.7844 51.2585 66.7857 51.3211C66.8284 55.1851 66.9579 58.6497 66.6954 62.8694Z" fill="#57B346"/>
<path d="M75.91 70.67C72.8355 72.4453 69.8078 73.905 66.8275 75.0494C66.7142 75.0938 66.6766 75.0583 66.7147 74.943C67.7744 71.6683 68.5036 68.3214 68.9018 64.9021L75.91 70.67Z" fill="#11A647"/>
<path d="M66.6954 62.8694C66.6577 62.8815 66.6303 62.9079 66.6131 62.9494C66.5894 63.0033 66.5498 63.0388 66.4943 63.0557C62.8937 64.0894 58.5775 64.3623 55.0276 64.5501C54.9503 64.5533 54.832 64.5871 54.6726 64.6517C54.6002 64.681 54.5577 64.6574 54.5452 64.5811L52.3988 51.8071L52.6973 51.7204C52.7685 51.7005 52.8325 51.7134 52.8892 51.759C57.4312 55.4345 61.9646 59.1214 66.4895 62.8197C66.5236 62.8483 66.5922 62.8649 66.6954 62.8694Z" fill="#11A647"/>
<path d="M74.124 74.1398C73.8152 74.3682 73.5263 74.5938 73.2573 74.8165C71.1256 76.5728 68.6305 78.0127 65.7873 77.8926C65.9943 77.7097 66.1561 77.5914 66.2726 77.5377C69.04 76.2486 71.7029 74.8182 74.2614 73.2466C74.2984 73.2245 74.3417 73.2155 74.3845 73.221C74.4272 73.2265 74.4669 73.2462 74.4971 73.2769C74.5273 73.3076 74.5464 73.3476 74.5512 73.3904C74.556 73.4332 74.5464 73.4764 74.5238 73.5131L74.124 74.1398Z" fill="#94CDBB"/>
<path d="M64.6376 76.4062L54.5552 67.7328C58.4959 67.1153 62.4273 66.7167 66.1376 65.5577C66.1631 65.5498 66.1902 65.5481 66.2166 65.5528C66.2429 65.5576 66.2677 65.5687 66.2889 65.5851C66.31 65.6015 66.3269 65.6228 66.338 65.6472C66.3491 65.6715 66.3542 65.6982 66.3528 65.725C66.1621 69.3005 65.5904 72.8609 64.6376 76.4062Z" fill="#94CDBB"/>
<path d="M74.124 74.1398C73.0045 75.5297 71.8058 76.8218 70.5262 78.0155C70.466 78.0699 70.3997 78.0789 70.3271 78.0425L70.0661 77.9106C70.0401 77.8975 70.0103 77.8938 69.9818 77.9003C69.9532 77.9067 69.9275 77.9229 69.9091 77.946C69.6723 78.2547 69.4874 78.4613 69.3545 78.5659C67.6654 79.8844 65.9261 81.1313 64.1366 82.3065C64.1238 82.3148 64.1087 82.3189 64.0935 82.3181C64.0782 82.3174 64.0636 82.3119 64.0516 82.3024C64.0397 82.2929 64.031 82.2799 64.0268 82.2652C64.0226 82.2505 64.0231 82.2349 64.0283 82.2206L65.4926 77.9953C65.5034 77.9634 65.5229 77.9351 65.5489 77.9136C65.5749 77.8921 65.6064 77.8783 65.6398 77.8737C65.7005 77.8641 65.7491 77.8702 65.7873 77.8926C68.6305 78.0127 71.1256 76.5728 73.2573 74.8165C73.5263 74.5938 73.8152 74.3682 74.124 74.1398Z" fill="#0DA6A0"/>
<path d="M64.6376 76.4062L56.2281 78.8123C56.219 78.8148 56.2094 78.8154 56.2001 78.814C56.1908 78.8126 56.1818 78.8092 56.1739 78.8041C56.166 78.7989 56.1592 78.7921 56.1541 78.7842C56.149 78.7762 56.1457 78.7673 56.1443 78.7579L54.5552 67.7328L64.6376 76.4062Z" fill="#0DA6A0"/>
<path d="M62.7978 83.0346C62.7243 82.9167 62.6595 82.8491 62.6034 82.8316C60.7091 82.2832 58.8236 81.7077 56.9468 81.1052C57.0283 80.9796 57.1129 80.8571 57.2592 80.8043C59.5361 79.9883 61.8515 79.2214 64.2053 78.5034C64.221 78.4986 64.2377 78.4981 64.2537 78.5018C64.2697 78.5056 64.2844 78.5135 64.2964 78.5248C64.3083 78.5361 64.317 78.5504 64.3216 78.5661C64.3263 78.5819 64.3266 78.5986 64.3227 78.6146C63.9435 80.0271 63.5362 81.4001 63.1007 82.7336C63.0528 82.8811 62.9518 82.9814 62.7978 83.0346Z" fill="#94CDBB"/>
<path d="M54.5431 79.1583C53.6194 78.7295 52.5901 78.1349 51.4551 77.3746C47.8432 74.9552 43.2809 72.0096 37.7681 68.5378C37.4733 68.3523 37.3503 68.0799 37.4079 67.7552C42.3207 68.3344 47.2245 68.3841 52.1194 67.9043C52.1936 67.898 52.238 67.9309 52.2526 68.0031L54.5431 79.1583Z" fill="#36A7DA"/>
<path d="M62.7978 83.0346L57.273 85.9616C57.2068 85.9972 57.169 85.9774 57.1596 85.9021L56.5299 81.2446C56.5266 81.2189 56.5286 81.1928 56.5359 81.168C56.5431 81.1431 56.5554 81.12 56.572 81.1001C56.5885 81.0802 56.6091 81.0639 56.6322 81.0523C56.6554 81.0407 56.6807 81.034 56.7065 81.0326C56.7848 81.0285 56.8651 81.053 56.9468 81.1052C58.8236 81.7077 60.7091 82.2832 62.6034 82.8316C62.6595 82.8491 62.7243 82.9167 62.7978 83.0346Z" fill="#0DA6A0"/>
<path d="M54.5431 79.1583L54.484 79.2533C54.4435 79.3195 54.385 79.3578 54.3087 79.3683C50.4627 79.9339 46.5043 80.5809 42.6109 80.6029C42.5746 80.6034 42.5389 80.5945 42.5073 80.577C42.4757 80.5596 42.4493 80.5342 42.4307 80.5034C40.0439 76.5276 38.1165 72.0308 36.352 67.7427C36.3465 67.7298 36.3446 67.7156 36.3464 67.7016C36.3481 67.6876 36.3536 67.6743 36.3622 67.6632C36.3708 67.652 36.3822 67.6433 36.3952 67.6379C36.4083 67.6326 36.4225 67.6308 36.4364 67.6328L37.4079 67.7552C37.3503 68.0799 37.4733 68.3523 37.7681 68.5378C43.2809 72.0096 47.8432 74.9552 51.4551 77.3746C52.5901 78.1349 53.6194 78.7295 54.5431 79.1583Z" fill="#038094"/>
<path d="M56.1982 86.4181C52.2721 85.3151 48.4201 84.247 44.6422 83.2139C44.5913 83.1996 44.529 83.1388 44.4554 83.0313C44.8639 82.9055 45.1753 82.8299 45.3895 82.8047C48.535 82.4361 51.8466 82.1683 54.8958 81.2914C54.9207 81.2842 54.9469 81.2822 54.9726 81.2855C54.9983 81.2887 55.0231 81.2973 55.0452 81.3105C55.0674 81.3238 55.0865 81.3414 55.1014 81.3624C55.1163 81.3833 55.1266 81.4071 55.1317 81.4323L56.1982 86.4181Z" fill="#94CDBB"/>
<path d="M56.1982 86.4181C53.8642 87.2844 51.5712 88.3388 49.203 88.8463C49.1277 88.8641 49.0638 88.845 49.0113 88.789C47.3608 87.0452 45.3746 85.131 44.1302 83.1002C44.0751 83.0097 44.1001 82.973 44.2052 82.9901L44.4554 83.0313C44.529 83.1388 44.5913 83.1996 44.6422 83.2139C48.4201 84.247 52.2721 85.3151 56.1982 86.4181Z" fill="#0DA6A0"/>
<path d="M39.853 80.0882C38.9421 79.8786 38.5073 79.1748 37.9686 78.7418C32.3077 74.2018 26.6897 69.6098 21.1147 64.9657C20.4695 64.4264 19.8442 64.3835 19.4996 63.3757C24.0609 64.9824 28.4957 66.6875 33.3338 67.2714C33.4067 67.2807 33.4526 67.3205 33.4714 67.3906C34.7241 72.149 37.4721 76.1406 39.853 80.0882Z" fill="#36A7DA"/>
<path d="M39.853 80.0882L40.064 80.4569C40.1047 80.5305 40.0834 80.5625 40.0001 80.553C34.4339 79.8872 29.3394 79.633 24.0914 77.7807C24.0218 77.7558 23.9703 77.7102 23.9367 77.6441C21.5525 72.792 19.6599 68.3755 18.6868 63.3205C18.643 63.0894 18.7279 63.0222 18.9414 63.119L19.4996 63.3757C19.8442 64.3835 20.4695 64.4264 21.1147 64.9657C26.6897 69.6098 32.3077 74.2018 37.9686 78.7418C38.5073 79.1748 38.9421 79.8786 39.853 80.0882Z" fill="#038094"/>
<path d="M47.2498 88.4038C47.1456 88.5505 47.0305 88.6533 46.9045 88.7121C46.8772 88.7251 46.8475 88.7324 46.8174 88.7336C46.7872 88.7348 46.7572 88.7299 46.7292 88.7191C40.8888 86.4696 35.0323 84.2626 29.1595 82.0983C28.8902 81.9991 28.5107 81.9392 28.222 81.8867C27.8176 81.8171 27.6047 81.8267 26.9867 82.0483L26.2927 81.1923C26.2024 81.0805 26.2264 81.0427 26.3646 81.079C31.4933 82.4237 36.7108 83.0729 42.0171 83.0263C42.087 83.0262 42.1456 83.0515 42.1929 83.1023L47.2498 88.4038Z" fill="#36A7DA"/>
<path d="M47.2498 88.4038L47.8757 89.024C47.9282 89.0758 47.9183 89.1091 47.8461 89.1237C44.3959 89.8074 41.2915 90.2595 38.1427 90.2917C36.4635 90.311 34.3727 88.8351 32.974 87.7911C30.5968 86.0144 28.2056 83.63 26.5916 81.578C26.5916 81.578 27.8176 81.8171 28.222 81.8867C28.5107 81.9392 28.8902 81.9991 29.1595 82.0983C35.0323 84.2626 40.8888 86.4696 46.7292 88.7191C46.7572 88.7299 46.7872 88.7348 46.8174 88.7336C46.8475 88.7324 46.8772 88.7251 46.9045 88.7121C47.0305 88.6533 47.1456 88.5505 47.2498 88.4038Z" fill="#038094"/>
<path d="M11.7106 72.7075C12.5073 73.8774 13.3356 74.9105 14.1955 75.8068C18.3518 80.1416 23.0229 83.9065 28.2088 87.1016C29.3022 87.7747 30.2116 88.2154 30.9369 88.4235L33.0251 89.7413C33.0353 89.7481 33.0428 89.7582 33.0465 89.7698C33.0501 89.7815 33.0496 89.7941 33.045 89.8054C33.0404 89.8167 33.0321 89.8262 33.0214 89.8321C33.0107 89.838 32.9983 89.84 32.9862 89.8378C28.5732 88.9514 24.7055 87.8895 20.9702 85.2628C19.2541 84.0561 17.6503 82.4685 16.1722 80.9432C14.4166 79.1318 12.7735 77.1901 11.6603 74.9265C11.0239 73.6324 10.445 72.2986 10.0225 71.198C9.97717 71.0795 10.0003 71.0641 10.092 71.152L11.7106 72.7075Z" fill="#038094"/>
<path d="M30.9369 88.4235C30.2116 88.2154 29.3022 87.7747 28.2088 87.1016C23.0229 83.9065 18.3518 80.1416 14.1955 75.8068C13.3356 74.9105 12.5073 73.8774 11.7106 72.7075C12.4822 73.2678 13.4678 74.054 14.6662 75.0656C16.7226 76.8024 19.0533 78.1981 21.6583 79.2528C22.5002 79.5945 22.9095 80.3324 23.3723 81.046C24.4527 82.7147 26.102 84.2034 27.5259 85.5873C28.5219 86.5569 29.8209 87.4131 30.9369 88.4235Z" fill="#36A7DA"/>
</svg>
