<svg width="100" height="100" viewBox="0 0 100 100" fill="none" xmlns="http://www.w3.org/2000/svg">
<rect width="100" height="100" fill="#271032"/>
<circle cx="50.0001" cy="70.0645" r="3.58065" fill="#9B35BE"/>
<mask id="mask0_49_3923" style="mask-type:alpha" maskUnits="userSpaceOnUse" x="18" y="21" width="64" height="54">
<path d="M41.1073 27.1238C45.1429 19.2449 56.4415 19.3551 60.3226 27.3113L81.641 71.0139C82.7902 73.3699 79.7736 75.649 77.7553 73.9763C55.401 55.4486 45.2281 55.2388 22.6982 73.6632C20.6523 75.3363 17.6152 72.9894 18.82 70.6372L41.1073 27.1238Z" fill="url(#paint0_linear_49_3923)"/>
</mask>
<g mask="url(#mask0_49_3923)">
<path d="M41.1073 27.1238C45.1429 19.2449 56.4415 19.3551 60.3226 27.3113L81.641 71.0139C82.7902 73.3699 79.7736 75.649 77.7553 73.9763C55.401 55.4486 45.2281 55.2388 22.6982 73.6632C20.6523 75.3363 17.6152 72.9894 18.82 70.6372L41.1073 27.1238Z" fill="url(#paint1_linear_49_3923)"/>
<path d="M45.4252 66.6914C64.7377 42.4229 90.6888 62.5901 91.7811 63.3566C59.774 -13.2272 32.0375 35.1259 25.5796 42.0056C19.1216 48.8852 38.3615 49.345 41.0828 59.4057C43.2598 67.4542 25.6092 72.783 16.5118 74.4413C19.7121 79.9475 29.9752 86.1062 45.4252 66.6914Z" fill="#5023C2" fill-opacity="0.08"/>
</g>
<defs>
<linearGradient id="paint0_linear_49_3923" x1="50" y1="24.7097" x2="50" y2="70.0645" gradientUnits="userSpaceOnUse">
<stop stop-color="#5023C2"/>
<stop offset="1" stop-color="#C138BF"/>
</linearGradient>
<linearGradient id="paint1_linear_49_3923" x1="50" y1="24.7097" x2="50" y2="70.0645" gradientUnits="userSpaceOnUse">
<stop stop-color="#5023C2"/>
<stop offset="1" stop-color="#C138BF"/>
</linearGradient>
</defs>
</svg>
