<svg width="100" height="100" viewBox="0 0 100 100" fill="none" xmlns="http://www.w3.org/2000/svg">
<rect width="100" height="100" fill="#867A64"/>
<path d="M53.1529 63.9278C53.1537 64.0003 53.1758 64.071 53.2165 64.1311C53.2572 64.1912 53.3147 64.238 53.3818 64.2657C53.4489 64.2933 53.5226 64.3006 53.5939 64.2867C53.6651 64.2728 53.7306 64.2382 53.7823 64.1873C61.4958 56.4903 72.721 51.8081 82.9578 57.9149C86.0277 59.748 89.7271 62.5805 94.4425 63.9719C94.6744 64.0382 94.6964 64.1486 94.5087 64.3032C85.1388 71.8566 73.4995 76.7928 61.6725 71.5584C59.5136 70.6087 56.2394 68.0799 53.8983 67.5057C52.3468 67.1302 52.0486 68.4443 52.4241 69.637C53.3075 72.4529 54.0915 75.1695 54.7762 77.7867C54.8167 77.9379 54.8246 78.0959 54.7993 78.2505C54.774 78.4051 54.7162 78.5527 54.6297 78.6836C54.5431 78.8144 54.4298 78.9257 54.2971 79.01C54.1643 79.0942 54.0153 79.1496 53.8596 79.1725C51.4081 79.5314 46.0468 80.713 47.405 76.2627C48.167 73.7781 48.9106 71.24 49.6357 68.6486C49.6806 68.4873 49.688 68.3179 49.6574 68.1534C49.6268 67.9889 49.559 67.8338 49.4592 67.6998C49.3595 67.5659 49.2304 67.4569 49.082 67.3811C48.9336 67.3053 48.7698 67.2648 48.6032 67.2627C47.3112 67.2462 46.1406 67.732 44.9314 68.4995C32.3811 76.4339 17.9149 73.2756 7.40749 63.6572C7.3797 63.6316 7.36117 63.5975 7.35477 63.5603C7.34837 63.5231 7.35447 63.4848 7.37212 63.4514C7.38976 63.418 7.41797 63.3913 7.45233 63.3756C7.48669 63.3599 7.52528 63.356 7.56209 63.3646C9.13387 63.7584 10.575 63.4492 11.8854 62.437C16.0872 59.1959 21.686 55.7173 27.0363 55.0989C34.6063 54.2155 43.1038 58.6271 48.2112 63.983C48.274 64.0537 48.3612 64.0982 48.4553 64.1074C48.5495 64.1166 48.6437 64.09 48.719 64.0328C48.7944 63.9756 48.8454 63.892 48.8618 63.7988C48.8782 63.7057 48.8588 63.6097 48.8075 63.5302C43.5952 54.5909 34.8603 53.0118 25.1535 53.5087C22.4977 53.6468 18.9418 52.9455 16.7719 51.4382C12.9676 48.8044 11.6645 43.1891 13.7848 39.1253C17.0148 32.9412 26.3185 30.3627 32.5688 28.9934C37.7369 27.856 42.7615 25.0455 44.6664 19.7891C44.677 19.7647 44.6953 19.7445 44.7185 19.7315C44.7418 19.7185 44.7686 19.7135 44.795 19.7173C44.8213 19.721 44.8457 19.7334 44.8643 19.7523C44.883 19.7713 44.8949 19.7958 44.8983 19.8222C45.2958 28.6621 34.3964 33.6922 28.0081 37.4192C21.5148 41.2069 21.9676 48.7603 30.2609 49.6437C37.5492 50.4167 44.3572 53.3707 48.2112 59.9192C48.9658 61.2001 49.702 62.4922 50.4198 63.7952C50.4651 63.8764 50.5316 63.9438 50.6122 63.9901C50.6928 64.0364 50.7845 64.06 50.8775 64.0583C50.9704 64.0566 51.0612 64.0297 51.1401 63.9804C51.2189 63.9312 51.283 63.8615 51.3253 63.7787C54.7431 56.9431 59.5523 52.1339 67.2879 50.5824C72.4394 49.5498 79.9652 49.7155 77.8228 41.9247C77.3093 40.0529 76.3375 39.0314 74.5044 38.1259C68.1989 35.0063 56.902 28.0603 57.7412 20.3412C57.7437 20.3007 57.7601 20.2623 57.7876 20.2325C57.8151 20.2026 57.852 20.1831 57.8922 20.1773C57.9324 20.1714 57.9733 20.1796 58.0082 20.2004C58.043 20.2212 58.0696 20.2534 58.0836 20.2916C60.2314 25.4652 65.1731 28.3584 70.551 29.4517C78.5903 31.0805 89.3848 34.3879 88.8437 44.5253C88.7112 47.0136 88.1185 49.0161 87.0658 50.5327C83.5596 55.6014 76.586 53.0505 71.451 53.2216C63.7247 53.4793 57.6658 56.8824 53.2744 63.4308C53.2155 63.5192 53.1805 63.613 53.1695 63.7124C53.1584 63.8008 53.1529 63.8725 53.1529 63.9278Z" fill="white"/>
<path d="M39.2497 37.2922C39.2497 37.2367 39.2607 37.1816 39.2821 37.1304C39.3036 37.0791 39.335 37.0326 39.3745 36.9935C39.4141 36.9545 39.461 36.9237 39.5126 36.9029C39.5641 36.8822 39.6193 36.8719 39.6748 36.8726L42.1871 36.8836C43.3038 36.8876 44.3731 37.3836 45.16 38.2626C45.9468 39.1416 46.3869 40.3317 46.3834 41.5714L46.3724 43.6033C46.3707 44.2178 46.2599 44.8259 46.0464 45.393C45.8329 45.9601 45.5208 46.4751 45.128 46.9083C44.7352 47.3416 44.2694 47.6848 43.7572 47.9183C43.245 48.1517 42.6965 48.2709 42.1429 48.2689L39.6307 48.2579C39.5203 48.2564 39.415 48.2116 39.3375 48.133C39.26 48.0545 39.2165 47.9486 39.2166 47.8382L39.2497 37.2922ZM41.7067 39.153L41.7288 45.9665C41.7288 45.987 41.737 46.0066 41.7515 46.0211C41.766 46.0356 41.7856 46.0438 41.8061 46.0438H41.8448C42.0998 46.0434 42.3522 45.9792 42.5875 45.8548C42.8228 45.7305 43.0363 45.5485 43.2158 45.3192C43.3954 45.0899 43.5374 44.8179 43.6337 44.5187C43.7301 44.2195 43.7789 43.899 43.7773 43.5757L43.7662 41.5217C43.7631 40.8714 43.5567 40.2489 43.1924 39.7904C42.8281 39.3319 42.3356 39.0749 41.8227 39.0757H41.784C41.7739 39.0757 41.7638 39.0777 41.7545 39.0815C41.7451 39.0854 41.7366 39.0911 41.7294 39.0983C41.7222 39.1055 41.7165 39.114 41.7126 39.1234C41.7087 39.1328 41.7067 39.1428 41.7067 39.153Z" fill="white"/>
<path d="M50.8279 44.3704V47.882C50.8279 48.1139 50.712 48.2299 50.4801 48.2299H48.7574C48.4813 48.2299 48.3433 48.0918 48.3433 47.8158V37.198C48.3433 37.025 48.4298 36.9348 48.6028 36.9274C51.1316 36.8501 54.7426 36.1599 55.1512 39.7323C55.5009 42.7986 54.1574 44.2526 51.1206 44.0943C50.9255 44.0832 50.8279 44.1753 50.8279 44.3704ZM50.8279 39.4397L50.8169 41.5489C50.8162 41.5921 50.824 41.6351 50.8401 41.6753C50.8561 41.7154 50.88 41.752 50.9103 41.7828C50.9406 41.8137 50.9768 41.8382 51.0167 41.8549C51.0566 41.8716 51.0994 41.8802 51.1426 41.8802H51.5236C51.8136 41.8816 52.0922 41.7591 52.2982 41.5396C52.5043 41.32 52.6209 41.0215 52.6224 40.7096V40.301C52.6232 40.1466 52.5956 39.9935 52.5413 39.8505C52.4871 39.7075 52.4072 39.5775 52.3062 39.4677C52.2052 39.358 52.085 39.2708 51.9527 39.211C51.8203 39.1513 51.6783 39.1201 51.5347 39.1194H51.1537C51.0682 39.1194 50.9862 39.153 50.9253 39.2129C50.8643 39.2728 50.8294 39.3543 50.8279 39.4397Z" fill="white"/>
<path d="M58.8177 42.0848L58.8453 48.0645C58.8453 48.1085 58.8278 48.1506 58.7967 48.1816C58.7657 48.2127 58.7236 48.2302 58.6796 48.2302H56.9293C56.8854 48.2302 56.8433 48.2127 56.8122 48.1816C56.7811 48.1506 56.7637 48.1085 56.7637 48.0645V37.0768C56.7637 37.0329 56.7811 36.9907 56.8122 36.9597C56.8433 36.9286 56.8854 36.9111 56.9293 36.9111H59.3091C59.3447 36.9107 59.3795 36.9217 59.4083 36.9426C59.4372 36.9635 59.4585 36.9931 59.4692 37.0271L61.1312 42.3332C61.1415 42.3729 61.1661 42.4073 61.2003 42.4299C61.2346 42.4524 61.2759 42.4615 61.3165 42.4553C61.357 42.4491 61.3938 42.4281 61.4197 42.3964C61.4456 42.3647 61.4589 42.3245 61.4569 42.2835V37.0768C61.4569 37.0329 61.4744 36.9907 61.5054 36.9597C61.5365 36.9286 61.5786 36.9111 61.6226 36.9111H63.3618C63.4058 36.9111 63.4479 36.9286 63.479 36.9597C63.51 36.9907 63.5275 37.0329 63.5275 37.0768V48.0645C63.5275 48.1085 63.51 48.1506 63.479 48.1816C63.4479 48.2127 63.4058 48.2302 63.3618 48.2302H61.3244C61.2888 48.2306 61.254 48.2196 61.2252 48.1987C61.1963 48.1778 61.175 48.1482 61.1643 48.1142L59.1379 42.0296C59.1242 41.9938 59.0984 41.9638 59.0651 41.9449C59.0318 41.9259 58.9929 41.9191 58.9551 41.9257C58.9173 41.9322 58.883 41.9516 58.8579 41.9806C58.8328 42.0096 58.8186 42.0464 58.8177 42.0848Z" fill="white"/>
</svg>
