<svg width="100" height="100" viewBox="0 0 100 100" fill="none" xmlns="http://www.w3.org/2000/svg">
<rect width="100" height="100" fill="#111520"/>
<path d="M57.0147 22.4398C56.998 22.4333 56.9839 22.4214 56.9747 22.406C56.9654 22.3906 56.9616 22.3725 56.9637 22.3547C56.9659 22.3369 56.9739 22.3202 56.9865 22.3075C56.9991 22.2947 57.0156 22.2864 57.0334 22.2841C64.2423 21.6404 70.386 18.7752 75.4646 13.6883C76.0252 13.1318 76.2328 13.2419 76.0874 14.0184C75.5227 17.0581 74.389 19.859 72.6865 22.4211C72.5578 22.6121 72.537 22.8135 72.6242 23.0253C75.7179 30.3297 75.1905 37.3246 71.0421 44.0103C71.0228 44.0433 70.9925 44.0685 70.9565 44.0813C70.9205 44.0942 70.8811 44.0939 70.8453 44.0804C70.8094 44.067 70.7795 44.0413 70.7608 44.008C70.7421 43.9746 70.7359 43.9357 70.7431 43.8982C72.2442 34.0815 65.9282 25.6539 57.0147 22.4398Z" fill="#093E9B"/>
<path d="M82.0924 51.2546C82.4848 51.5723 82.8398 52.1204 82.8897 52.6623C83.9797 65.774 76.91 78.3065 65.4365 84.3048C49.6401 92.5705 29.8386 86.9023 21.1805 71.0686C8.91596 48.6323 25.1732 22.9632 49.9702 22.1099C49.9993 22.1099 50.0138 22.1244 50.0138 22.1535C50.018 22.2199 49.9889 22.2573 49.9266 22.2656C43.8265 23.0546 39.1362 25.6416 35.8557 30.0267C22.1896 48.3021 45.6973 70.8381 63.5803 56.6301C68.881 52.4194 74.4683 50.3016 81.2328 50.9058C81.5567 50.9349 81.8432 51.0511 82.0924 51.2546ZM54.2495 73.4293C28.8732 76.986 20.1528 54.612 29.9321 34.8292C29.9487 34.7959 29.9445 34.7648 29.9196 34.7357L29.7826 34.5987C29.7244 34.5406 29.6746 34.5468 29.6331 34.6174C17.8481 55.92 29.0102 79.2782 55.0281 75.8648C55.2171 75.8409 55.3971 75.7704 55.552 75.6595C55.707 75.5486 55.832 75.4008 55.9159 75.2292C55.9999 75.0577 56.0401 74.8678 56.0329 74.6765C56.0258 74.4852 55.9716 74.2985 55.8752 74.1331C55.5388 73.5601 54.9969 73.3255 54.2495 73.4293ZM74.462 57.5769C74.462 56.9425 74.21 56.3341 73.7615 55.8856C73.3129 55.437 72.7045 55.185 72.0702 55.185C71.4358 55.185 70.8274 55.437 70.3789 55.8856C69.9303 56.3341 69.6783 56.9425 69.6783 57.5769C69.6783 58.2113 69.9303 58.8196 70.3789 59.2682C70.8274 59.7168 71.4358 59.9688 72.0702 59.9688C72.7045 59.9688 73.3129 59.7168 73.7615 59.2682C74.21 58.8196 74.462 58.2113 74.462 57.5769ZM70.513 77.3721C60.9392 76.9174 57.314 70.6201 58.8775 61.7004C59.0394 60.7827 58.9169 60.7411 58.51 61.5758C55.869 67.026 56.4918 72.6943 61.5185 76.307C64.1263 78.1757 67.1349 78.6117 70.5441 77.6151C71.0216 77.4739 71.0113 77.3929 70.513 77.3721Z" fill="url(#paint0_linear_51_42)"/>
<path fill-rule="evenodd" clip-rule="evenodd" d="M54.0875 24.3959C54.1034 24.4096 54.1232 24.4183 54.1443 24.4208C54.1653 24.4233 54.1863 24.4194 54.2044 24.4097C54.2225 24.4 54.2366 24.3849 54.2447 24.3667C54.2528 24.3486 54.2545 24.3282 54.2495 24.3086C53.4439 20.2848 54.2703 17.2265 56.7286 15.1336C59.7184 12.586 63.8045 12.5611 66.8318 15.1149C66.9273 15.1938 66.9667 15.2934 66.9501 15.4139C66.9447 15.4451 66.9317 15.4745 66.9123 15.4995C66.8928 15.5245 66.8675 15.5444 66.8386 15.5573C66.8097 15.5702 66.778 15.5758 66.7464 15.5736C66.7148 15.5714 66.6842 15.5615 66.6573 15.5447C57.856 9.80791 49.9205 20.9949 57.2207 26.5386C57.3785 26.659 57.4324 26.8147 57.3826 27.0057L57.1459 27.9463C57.1002 28.129 57.1106 28.3076 57.1771 28.482C57.7127 29.8274 58.6554 30.143 60.0049 29.4288C60.0837 29.3869 60.1737 29.3704 60.2628 29.3815C60.3519 29.3927 60.4358 29.4309 60.5033 29.491L66.377 34.7793C66.4405 34.836 66.491 34.9056 66.5252 34.9836C66.5594 35.0616 66.5764 35.1461 66.5753 35.2316C66.5741 35.3171 66.5547 35.4015 66.5184 35.4793C66.482 35.557 66.4296 35.6263 66.3646 35.6825C63.1131 38.4855 55.8939 39.507 54.0813 34.2063C53.1304 31.4324 53.2633 28.673 54.48 25.9281C54.5179 25.8444 54.5275 25.7508 54.5072 25.6618C54.4869 25.5728 54.4379 25.4935 54.3678 25.4361C51.3406 22.9321 50.3316 20.0315 51.3406 16.7344C52.6861 12.3306 56.5729 10.3 61.0514 11.2156C61.3047 11.2655 61.4646 11.39 61.531 11.5894C61.5443 11.6272 61.5471 11.6679 61.5393 11.7072C61.5315 11.7465 61.5133 11.783 61.4866 11.8129C61.4599 11.8428 61.4256 11.865 61.3874 11.8772C61.3492 11.8893 61.3085 11.891 61.2694 11.8821C53.4958 10.0695 48.2324 18.6342 54.0875 24.3959ZM58.8588 28.9488C59.3473 28.9488 59.7433 28.5528 59.7433 28.0643C59.7433 27.5758 59.3473 27.1798 58.8588 27.1798C58.3703 27.1798 57.9743 27.5758 57.9743 28.0643C57.9743 28.5528 58.3703 28.9488 58.8588 28.9488ZM47.0677 57.2654L47.2857 55.2784C47.3272 54.8548 47.4144 54.8445 47.5473 55.2473L48.1826 57.1782C48.3321 57.6433 48.6498 57.9049 49.1356 57.963C52.0466 58.3119 54.8496 57.9402 57.5446 56.8481C57.8269 56.7318 57.8768 56.5532 57.6941 56.3124C56.7597 55.0999 56.1701 53.7337 55.9251 52.2138C55.8794 51.9273 55.9521 51.892 56.1431 52.1079L59.2326 55.6646C59.2926 55.7355 59.3767 55.7822 59.4694 55.7959C59.5621 55.8096 59.6571 55.7895 59.7371 55.7393C62.5484 53.9704 64.689 51.5951 66.1591 48.6136C66.1766 48.5762 66.1846 48.535 66.1823 48.4937C66.18 48.4524 66.1675 48.4124 66.1459 48.3772C66.1243 48.342 66.0942 48.3127 66.0585 48.292C66.0227 48.2712 65.9824 48.2597 65.941 48.2585C63.9063 48.2253 62.0999 47.5879 60.522 46.3463C60.487 46.3184 60.4628 46.2792 60.4535 46.2355C60.4442 46.1917 60.4503 46.1461 60.4709 46.1064C60.4915 46.0667 60.5252 46.0354 60.5664 46.0178C60.6075 46.0002 60.6534 45.9974 60.6964 46.0099C62.6107 46.6037 64.5728 46.8238 66.5826 46.6702C66.811 46.6535 66.9543 46.5352 67.0124 46.3151C67.8512 43.2754 67.872 40.2254 67.0747 37.1649C67.0166 36.9449 66.8982 36.9054 66.7197 37.0466C63.7921 39.3596 60.5261 39.9243 56.9217 38.7408C56.6559 38.6536 56.5459 38.745 56.5916 39.0149C58.2671 49.5167 48.058 57.2218 38.9764 50.9618C38.9204 50.9243 38.878 50.8699 38.8555 50.807C38.833 50.7441 38.8317 50.676 38.8518 50.613L41.9476 40.977C42.0223 40.7528 42.0036 40.5368 41.8915 40.3292C41.1606 38.9381 40.137 37.8127 38.8207 36.9532C38.7671 36.9182 38.7055 36.8976 38.6416 36.8932C38.5778 36.8888 38.5137 36.9009 38.4553 36.9282C38.3969 36.9555 38.3461 36.9973 38.3076 37.0495C38.2692 37.1018 38.2442 37.1629 38.2352 37.2272L37.4379 43.2256C37.4379 43.252 37.4274 43.2774 37.4087 43.2961C37.39 43.3148 37.3646 43.3253 37.3382 43.3253C37.3118 43.3253 37.2864 43.3148 37.2677 43.2961C37.249 43.2774 37.2385 43.252 37.2385 43.2256L36.6281 39.208C36.6211 39.1549 36.6011 39.1044 36.5698 39.0609C36.5385 39.0175 36.497 38.9825 36.4488 38.959C36.4007 38.9356 36.3475 38.9244 36.294 38.9266C36.2405 38.9287 36.1884 38.9441 36.1423 38.9713C35.0335 39.6191 34.5415 40.6282 34.6474 41.9674C35.291 49.7368 39.3148 54.9088 46.7188 57.4834C46.7561 57.4969 46.7959 57.5016 46.8353 57.4974C46.8747 57.4932 46.9126 57.4801 46.9462 57.4592C46.9798 57.4382 47.0082 57.4098 47.0292 57.3763C47.0503 57.3427 47.0634 57.3048 47.0677 57.2654Z" fill="url(#paint1_linear_51_42)"/>
<defs>
<linearGradient id="paint0_linear_51_42" x1="31.9876" y1="16.4852" x2="83.0641" y2="71.6104" gradientUnits="userSpaceOnUse">
<stop stop-color="#49C3ED"/>
<stop offset="0.46875" stop-color="#3DABDE"/>
<stop offset="1" stop-color="#155AAC"/>
</linearGradient>
<linearGradient id="paint1_linear_51_42" x1="57.8373" y1="23.3369" x2="37.5936" y2="51.9896" gradientUnits="userSpaceOnUse">
<stop stop-color="#2FC3C0"/>
<stop offset="1" stop-color="#B1D662"/>
</linearGradient>
</defs>
</svg>
