<svg width="100" height="100" viewBox="0 0 100 100" fill="none" xmlns="http://www.w3.org/2000/svg">
<rect width="100" height="100" fill="white"/>
<path d="M94 49.7353C94 53.3775 92.8619 56.9841 90.6507 60.3491C88.4395 63.7141 85.1985 66.7716 81.1127 69.347C77.0269 71.9225 72.1764 73.9655 66.8381 75.3593C61.4998 76.7531 55.7782 77.4705 50 77.4705C38.3305 77.4705 27.1389 74.5484 18.8873 69.347C10.6357 64.1457 6 57.0911 6 49.7353C6 42.3794 10.6357 35.3248 18.8873 30.1235C27.1389 24.9221 38.3305 22 50 22C55.7782 22 61.4998 22.7174 66.8381 24.1112C72.1764 25.505 77.0269 27.548 81.1127 30.1235C85.1985 32.6989 88.4395 35.7564 90.6507 39.1214C92.8619 42.4864 94 46.093 94 49.7353ZM93.0716 49.7226C93.0716 42.6074 88.5341 35.7836 80.4574 30.7524C72.3807 25.7212 61.4264 22.8947 50.0042 22.8947C38.5821 22.8947 27.6277 25.7212 19.551 30.7524C11.4743 35.7836 6.93689 42.6074 6.93689 49.7226C6.93689 56.8378 11.4743 63.6616 19.551 68.6928C27.6277 73.724 38.5821 76.5505 50.0042 76.5505C61.4264 76.5505 72.3807 73.724 80.4574 68.6928C88.5341 63.6616 93.0716 56.8378 93.0716 49.7226Z" fill="#00146F"/>
<path d="M64.5177 26.5913C73.7347 28.6887 85.4331 34.1201 89.3031 43.5397C94.0213 55.0271 84.8086 64.7631 75.2076 69.1015C75.0987 69.1502 74.9776 69.1653 74.8597 69.1451C74.7418 69.1248 74.6323 69.07 74.545 68.9876L60.4832 55.4238C60.4353 55.3777 60.4008 55.3193 60.3834 55.2551C60.3661 55.1908 60.3666 55.1232 60.3849 55.0596C60.4032 54.9959 60.4386 54.9388 60.4872 54.8944C60.5358 54.8499 60.5957 54.8199 60.6605 54.8076C62.7227 54.3884 64.6064 53.5585 66.3113 52.3177C74.756 46.1731 70.1982 36.2809 62.3106 32.7866C54.7142 29.4188 46.2653 31.2799 39.4707 35.5086C39.3788 35.5668 39.2702 35.5929 39.1618 35.583C39.0534 35.5731 38.9514 35.5276 38.8715 35.4537L30.9417 28.2118C30.7588 28.043 30.7855 27.9221 31.0219 27.8489C42.0563 24.4362 53.2216 24.0169 64.5177 26.5913Z" fill="#0A297C"/>
<path d="M61.8625 64.3118L68.9229 71.1485C69.2184 71.4355 69.1691 71.6353 68.7752 71.7478C60.2279 74.1955 51.8086 75.0283 43.5172 74.2462C31.9074 73.1489 14.7649 67.3883 10.3885 55.0484C6.43417 43.8986 15.2966 34.8167 24.56 30.415C24.67 30.3627 24.7929 30.344 24.913 30.3612C25.0332 30.3785 25.1454 30.431 25.2352 30.5121L40.1833 43.8564C40.2106 43.8801 40.2309 43.9108 40.242 43.9452C40.2531 43.9796 40.2546 44.0163 40.2464 44.0515C40.2381 44.0867 40.2204 44.119 40.1952 44.1448C40.1699 44.1707 40.1381 44.1892 40.1031 44.1982C34.0893 45.7766 29.4639 51.1531 31.5023 57.6607C32.9709 62.3451 37.3177 65.7002 42.1246 66.8312C48.4886 68.3294 55.3296 66.8144 61.1704 64.1936C61.2847 64.1415 61.412 64.1248 61.5354 64.1459C61.6589 64.167 61.7729 64.2248 61.8625 64.3118Z" fill="#4BA124"/>
<path d="M50.0056 53.7783C52.8421 53.7684 55.1352 51.9447 55.1274 49.7048C55.1196 47.465 52.8138 45.6572 49.9773 45.6671C47.1408 45.677 44.8476 47.5008 44.8555 49.7407C44.8633 51.9805 47.1691 53.7882 50.0056 53.7783Z" fill="#0A297C"/>
</svg>
