<svg width="100" height="100" viewBox="0 0 100 100" fill="none" xmlns="http://www.w3.org/2000/svg">
<rect width="100" height="100" fill="white"/>
<path d="M69.2111 33.1064C59.3314 25.8218 48.1146 22.2506 36.2117 19.8919C36.1151 19.8716 36.0482 19.8411 36.0109 19.8004C35.9983 19.7861 35.9896 19.7687 35.9856 19.7501C35.9816 19.7315 35.9825 19.7122 35.9882 19.6942C35.9938 19.6762 36.0041 19.6601 36.0178 19.6475C36.0316 19.6349 36.0485 19.6263 36.0668 19.6225C48.5595 16.7198 61.8045 17.6399 73.5041 22.9649C86.1442 28.7194 96.8322 40.9096 93.3246 55.7635C92.3765 59.7693 90.3736 63.5387 87.7251 66.7031C87.7184 66.7116 87.7141 66.7099 87.7124 66.6981C86.511 52.5118 80.3439 41.3145 69.2111 33.1064Z" fill="#FFC829"/>
<path d="M37.798 23.4556C45.6215 28.3281 52.1486 35.6203 55.8952 44.0589C61.9343 57.6598 57.4634 71.436 47.7489 81.8851C47.6896 81.9495 47.6159 81.98 47.5278 81.9766C35.0427 81.4835 21.9172 77.0507 13.2727 67.6234C6.63113 60.3769 4.07414 50.6369 7.55633 41.3316C11.2596 31.4315 21.1953 24.2105 31.0039 20.985C32.4781 20.4995 36.4941 22.6447 37.798 23.4556ZM30.1727 54.0658C34.1963 56.3813 28.6096 58.6841 27.5166 56.4982C27.3489 56.1644 27.2591 55.6137 27.2472 54.8461C27.2469 54.8225 27.2418 54.7992 27.2322 54.7776C27.2226 54.7561 27.2086 54.7368 27.1912 54.7208C27.1739 54.7049 27.1534 54.6926 27.1311 54.6849C27.1088 54.6771 27.0852 54.674 27.0617 54.6758L24.6521 54.8435C24.5623 54.8503 24.5148 54.8994 24.5097 54.9909C24.0929 62.3518 35.1164 61.9502 34.2929 54.5843C34.0337 52.251 31.9901 51.4045 30.0431 50.3294C29.5382 50.0515 29.2001 49.8041 29.029 49.5872C28.3249 48.6976 28.8231 47.6275 29.9059 47.3861C31.5275 47.0251 32.1756 48.0342 32.4705 49.4144C32.4891 49.5025 32.5433 49.5448 32.6332 49.5415L35.0198 49.4271C35.1181 49.422 35.1664 49.3695 35.1647 49.2695C35.1241 43.6751 27.2294 42.7601 26.0958 47.8588C25.2875 51.491 27.509 52.5331 30.1727 54.0658ZM23.8082 50.5251C23.371 44.1657 19.5788 44.763 14.6681 44.8214C14.5766 44.8214 14.5232 44.8663 14.508 44.9562L11.9688 59.833C11.9535 59.9245 11.9925 59.9719 12.0857 59.9753C14.2886 60.0346 16.0762 60.0372 17.4488 59.9829C22.2171 59.7948 24.0802 54.5106 23.8082 50.5251ZM39.8517 50.8505C39.836 50.8507 39.8205 50.8474 39.8063 50.841C39.792 50.8346 39.7793 50.8251 39.7691 50.8132C39.759 50.8013 39.7515 50.7873 39.7473 50.7722C39.7431 50.7572 39.7423 50.7413 39.7449 50.7259L40.2431 47.7622C40.2474 47.7371 40.2605 47.7143 40.28 47.698C40.2996 47.6817 40.3244 47.6729 40.3499 47.6733H46.1349C46.1599 47.673 46.1841 47.664 46.2031 47.6477C46.2222 47.6315 46.2349 47.609 46.2391 47.5843L46.7042 44.9384C46.7068 44.9231 46.7061 44.9075 46.702 44.8926C46.698 44.8777 46.6908 44.8639 46.6808 44.8521C46.6709 44.8402 46.6586 44.8307 46.6446 44.8241C46.6307 44.8175 46.6155 44.814 46.6 44.8138H37.9606C37.9356 44.8141 37.9114 44.8231 37.8924 44.8394C37.8733 44.8556 37.8606 44.8781 37.8564 44.9028L35.3147 59.8762C35.3121 59.8916 35.3129 59.9074 35.3171 59.9225C35.3213 59.9376 35.3287 59.9516 35.3389 59.9635C35.3491 59.9753 35.3618 59.9848 35.376 59.9913C35.3903 59.9977 35.4058 60.0009 35.4214 60.0007H38.0725C38.0975 60.0005 38.1217 59.9914 38.1407 59.9752C38.1598 59.9589 38.1725 59.9365 38.1767 59.9118L39.2213 53.7989C39.2255 53.7742 39.2382 53.7517 39.2573 53.7355C39.2763 53.7192 39.3005 53.7102 39.3256 53.7099H44.9936C45.0191 53.7103 45.0439 53.7015 45.0635 53.6852C45.0831 53.6689 45.0961 53.6461 45.1004 53.6209L45.5325 50.975C45.5351 50.9598 45.5343 50.9442 45.5303 50.9293C45.5262 50.9144 45.519 50.9005 45.5091 50.8887C45.4992 50.8769 45.4868 50.8673 45.4729 50.8607C45.4589 50.8541 45.4437 50.8506 45.4283 50.8505H39.8517ZM48.1683 44.8138C48.1484 44.8135 48.1291 44.8202 48.1138 44.8328C48.0984 44.8453 48.088 44.8629 48.0844 44.8824L45.5299 59.9016C45.5277 59.9136 45.5282 59.9259 45.5312 59.9378C45.5342 59.9496 45.5398 59.9606 45.5476 59.9701C45.5553 59.9795 45.565 59.9871 45.576 59.9924C45.587 59.9977 45.5991 60.0006 45.6113 60.0007H48.3182C48.3381 60.001 48.3574 59.9943 48.3727 59.9818C48.3881 59.9692 48.3985 59.9516 48.4021 59.9321L50.9515 44.9129C50.9537 44.9009 50.9533 44.8886 50.9502 44.8768C50.9472 44.8649 50.9416 44.8539 50.9338 44.8445C50.9261 44.835 50.9164 44.8274 50.9054 44.8221C50.8944 44.8168 50.8824 44.814 50.8701 44.8138H48.1683Z" fill="#2B40CC"/>
<path d="M17.0469 47.7214C18.8947 47.4291 20.4808 47.5893 20.8341 49.7675C21.1975 52.0221 20.557 56.5057 17.8958 57.1157C17.3722 57.236 16.5445 57.2809 15.4125 57.2504C15.3363 57.2487 15.3049 57.2106 15.3185 57.136L16.8995 47.8663C16.913 47.7816 16.9622 47.7333 17.0469 47.7214Z" fill="#001CD7"/>
</svg>
