<svg width="100" height="100" viewBox="0 0 100 100" fill="none" xmlns="http://www.w3.org/2000/svg">
<rect width="100" height="100" fill="#595C62"/>
<path d="M19.1787 40.8203H25.5186C26.9483 40.8203 28.0381 40.9297 28.7881 41.1484C29.7959 41.4453 30.6592 41.9727 31.378 42.7305C32.0967 43.4883 32.6436 44.418 33.0186 45.5195C33.3936 46.6133 33.5811 47.9648 33.5811 49.5742C33.5811 50.9883 33.4053 52.207 33.0537 53.2305C32.6241 54.4805 32.0108 55.4922 31.2139 56.2656C30.6123 56.8516 29.7998 57.3086 28.7764 57.6367C28.0108 57.8789 26.9873 58 25.7061 58H19.1787V40.8203ZM22.6475 43.7266V55.1055H25.2373C26.2061 55.1055 26.9053 55.0508 27.335 54.9414C27.8975 54.8008 28.3623 54.5625 28.7295 54.2266C29.1045 53.8906 29.4092 53.3398 29.6436 52.5742C29.878 51.8008 29.9952 50.75 29.9952 49.4219C29.9952 48.0938 29.878 47.0742 29.6436 46.3633C29.4092 45.6523 29.0811 45.0977 28.6592 44.6992C28.2373 44.3008 27.7022 44.0312 27.0537 43.8906C26.5694 43.7812 25.6202 43.7266 24.2061 43.7266H22.6475ZM36.0153 52.4102L39.3903 52.082C39.5934 53.2148 40.0036 54.0469 40.6208 54.5781C41.2458 55.1094 42.0856 55.375 43.1403 55.375C44.2575 55.375 45.0973 55.1406 45.6598 54.6719C46.2302 54.1953 46.5153 53.6406 46.5153 53.0078C46.5153 52.6016 46.3942 52.2578 46.152 51.9766C45.9177 51.6875 45.5036 51.4375 44.9098 51.2266C44.5036 51.0859 43.5778 50.8359 42.1325 50.4766C40.2731 50.0156 38.9684 49.4492 38.2184 48.7773C37.1637 47.832 36.6364 46.6797 36.6364 45.3203C36.6364 44.4453 36.8825 43.6289 37.3747 42.8711C37.8747 42.1055 38.5895 41.5234 39.5192 41.125C40.4567 40.7266 41.5856 40.5273 42.9059 40.5273C45.0622 40.5273 46.6833 41 47.7692 41.9453C48.863 42.8906 49.4372 44.1523 49.4919 45.7305L46.0231 45.8828C45.8747 45 45.5544 44.3672 45.0622 43.9844C44.5778 43.5938 43.8473 43.3984 42.8708 43.3984C41.863 43.3984 41.0739 43.6055 40.5036 44.0195C40.1364 44.2852 39.9528 44.6406 39.9528 45.0859C39.9528 45.4922 40.1247 45.8398 40.4684 46.1289C40.9059 46.4961 41.9684 46.8789 43.6559 47.2773C45.3434 47.6758 46.5895 48.0898 47.3942 48.5195C48.2067 48.9414 48.8395 49.5234 49.2927 50.2656C49.7536 51 49.9841 51.9102 49.9841 52.9961C49.9841 53.9805 49.7106 54.9023 49.1637 55.7617C48.6169 56.6211 47.8434 57.2617 46.8434 57.6836C45.8434 58.0977 44.5973 58.3047 43.1052 58.3047C40.9333 58.3047 39.2653 57.8047 38.1012 56.8047C36.9372 55.7969 36.2419 54.332 36.0153 52.4102ZM52.3831 52.4102L55.7581 52.082C55.9613 53.2148 56.3714 54.0469 56.9886 54.5781C57.6136 55.1094 58.4534 55.375 59.5081 55.375C60.6253 55.375 61.4652 55.1406 62.0277 54.6719C62.598 54.1953 62.8831 53.6406 62.8831 53.0078C62.8831 52.6016 62.762 52.2578 62.5198 51.9766C62.2855 51.6875 61.8714 51.4375 61.2777 51.2266C60.8714 51.0859 59.9456 50.8359 58.5003 50.4766C56.6409 50.0156 55.3363 49.4492 54.5863 48.7773C53.5316 47.832 53.0042 46.6797 53.0042 45.3203C53.0042 44.4453 53.2503 43.6289 53.7425 42.8711C54.2425 42.1055 54.9573 41.5234 55.887 41.125C56.8245 40.7266 57.9534 40.5273 59.2738 40.5273C61.43 40.5273 63.0511 41 64.137 41.9453C65.2308 42.8906 65.805 44.1523 65.8597 45.7305L62.3909 45.8828C62.2425 45 61.9222 44.3672 61.43 43.9844C60.9456 43.5938 60.2152 43.3984 59.2386 43.3984C58.2308 43.3984 57.4417 43.6055 56.8714 44.0195C56.5042 44.2852 56.3206 44.6406 56.3206 45.0859C56.3206 45.4922 56.4925 45.8398 56.8363 46.1289C57.2738 46.4961 58.3363 46.8789 60.0238 47.2773C61.7113 47.6758 62.9573 48.0898 63.762 48.5195C64.5745 48.9414 65.2073 49.5234 65.6605 50.2656C66.1214 51 66.3519 51.9102 66.3519 52.9961C66.3519 53.9805 66.0784 54.9023 65.5316 55.7617C64.9847 56.6211 64.2113 57.2617 63.2113 57.6836C62.2113 58.0977 60.9652 58.3047 59.473 58.3047C57.3011 58.3047 55.6331 57.8047 54.4691 56.8047C53.305 55.7969 52.6097 54.332 52.3831 52.4102ZM73.497 58V43.7266H68.3994V40.8203H82.0517V43.7266H76.9658V58H73.497Z" fill="#F8F8F8"/>
</svg>
