<svg width="100" height="100" viewBox="0 0 100 100" fill="none" xmlns="http://www.w3.org/2000/svg">
<rect width="100" height="100" fill="#003D77"/>
<path d="M88 49.8377C88 56.9555 83.9964 63.7817 76.8701 68.8148C69.7437 73.8478 60.0782 76.6754 50 76.6754C39.9218 76.6754 30.2563 73.8478 23.1299 68.8148C16.0036 63.7817 12 56.9555 12 49.8377C12 42.7199 16.0036 35.8936 23.1299 30.8606C30.2563 25.8275 39.9218 23 50 23C60.0782 23 69.7437 25.8275 76.8701 30.8606C83.9964 35.8936 88 42.7199 88 49.8377ZM86.4689 49.8377C86.4689 46.5125 85.5254 43.2198 83.6923 40.1477C81.8592 37.0756 79.1724 34.2842 75.7853 31.9329C72.3982 29.5816 68.3771 27.7165 63.9516 26.444C59.5261 25.1715 54.7828 24.5165 49.9927 24.5165C40.3186 24.5165 31.0408 27.1843 24.2001 31.9329C17.3595 36.6815 13.5165 43.1221 13.5165 49.8377C13.5165 56.5533 17.3595 62.9938 24.2001 67.7425C31.0408 72.4911 40.3186 75.1589 49.9927 75.1589C54.7828 75.1589 59.5261 74.5039 63.9516 73.2314C68.3771 71.9589 72.3982 70.0938 75.7853 67.7425C79.1724 65.3912 81.8592 62.5998 83.6923 59.5277C85.5254 56.4556 86.4689 53.1629 86.4689 49.8377Z" fill="white"/>
<path d="M28.3022 65.6661C30.9342 64.2808 32.0352 61.8457 32.2101 58.7762C32.5601 52.438 32.6354 45.0548 32.4361 36.6266C32.3875 34.4636 31.3109 33.4963 29.2063 33.7248C29.1443 33.7309 29.0818 33.724 29.0226 33.7044C28.9635 33.6848 28.9092 33.653 28.8631 33.6111C28.8171 33.5691 28.7804 33.518 28.7553 33.461C28.7303 33.404 28.7175 33.3423 28.7178 33.2801V32.4051C28.7178 32.1378 28.8515 32.0042 29.1188 32.0042L40.5728 32.0479C40.8109 32.0479 40.93 32.167 40.93 32.4051V33.3019C40.93 33.6616 40.7526 33.822 40.3978 33.7831C38.4487 33.5644 37.4717 34.3154 37.4668 36.036C37.462 41.5722 37.4547 47.1035 37.445 52.63C37.4377 59.3522 36.1107 65.2141 29.0532 67.4669C28.8176 67.5507 28.5588 67.5409 28.3302 67.4396C28.1016 67.3383 27.9205 67.1532 27.8243 66.9224C27.728 66.6916 27.724 66.4327 27.8129 66.199C27.9018 65.9653 28.0769 65.7745 28.3022 65.6661Z" fill="white"/>
<path d="M71.5517 60.9852C71.6829 60.9694 71.816 60.9871 71.9384 61.0368C72.0608 61.0865 72.1687 61.1665 72.2517 61.2692C72.3348 61.372 72.3904 61.4942 72.4134 61.6243C72.4363 61.7544 72.4258 61.8882 72.3829 62.0132C72.1739 62.6208 71.8458 62.8784 71.3986 62.786C68.4677 62.2028 64.1588 62.6767 60.856 62.6767C60.7478 62.6764 60.6411 62.6505 60.5448 62.6011C60.4485 62.5517 60.3652 62.4801 60.3019 62.3923C59.8985 61.8382 59.9203 61.4275 60.3675 61.1602C60.5376 61.0581 60.8268 61.0046 61.2351 60.9998C63.3203 60.9852 63.714 59.5926 63.714 57.7335C63.714 51.6869 63.7116 45.6403 63.7067 39.5938C63.7067 37.4721 63.1964 35.9556 60.7029 36.4587C60.631 36.4727 60.5568 36.4706 60.4858 36.4525C60.4147 36.4344 60.3486 36.4008 60.2921 36.3541C60.2356 36.3074 60.1902 36.2487 60.1591 36.1823C60.128 36.116 60.1121 36.0435 60.1123 35.9702V35.088C60.1123 34.7527 60.28 34.585 60.6154 34.585H71.5517C71.7509 34.588 71.942 34.6637 72.0893 34.7978C72.2365 34.9319 72.3297 35.1153 72.3512 35.3133C72.3727 35.5113 72.3211 35.7103 72.206 35.873C72.091 36.0356 71.9206 36.1505 71.7267 36.1962L69.9915 36.5681C69.6091 36.6513 69.2668 36.8624 69.0214 37.1661C68.776 37.4699 68.6424 37.848 68.6427 38.2377C68.6329 44.7266 68.6281 51.2519 68.6281 57.8137C68.6354 59.9134 69.2113 61.2622 71.5517 60.9852Z" fill="white"/>
<path d="M54.309 46.0535C60.7031 46.4472 62.0446 54.0006 56.3504 56.9169C52.8071 58.7323 45.8589 58.499 41.9437 58.1855C41.7444 58.1661 41.567 58.0907 41.4115 57.9595C40.9886 57.5804 40.9934 57.2571 41.426 56.9898C41.6205 56.8732 41.8319 56.81 42.0603 56.8003C42.736 56.7614 43.3411 56.5597 43.8758 56.1951C43.9793 56.1234 44.0639 56.0282 44.1223 55.9178C44.1807 55.8073 44.2112 55.6848 44.2111 55.5608V38.194C44.2111 37.9169 44.1164 37.6763 43.9268 37.4722C43.4359 36.9569 42.8016 36.7261 42.0239 36.7795C41.9038 36.7882 41.7846 36.7542 41.6872 36.6835C41.5898 36.6128 41.5206 36.5099 41.4916 36.3931C41.409 36.0529 41.4528 35.7831 41.6229 35.5838C41.7444 35.438 41.951 35.3602 42.2426 35.3505C46.0557 35.2193 57.1451 33.9653 58.37 39.1855C59.0845 42.238 57.7114 44.3936 54.2507 45.6525C54.2026 45.6657 54.161 45.6959 54.1338 45.7376C54.1065 45.7793 54.0954 45.8295 54.1025 45.8788C54.1097 45.9281 54.1347 45.9731 54.1727 46.0053C54.2107 46.0374 54.2592 46.0546 54.309 46.0535ZM48.1992 37.5961L48.243 44.6245C48.2439 44.7203 48.2637 44.8149 48.3013 44.903C48.3388 44.9911 48.3933 45.0709 48.4617 45.1379C48.5301 45.2049 48.611 45.2578 48.6998 45.2936C48.7886 45.3294 48.8836 45.3473 48.9794 45.3463L50.4157 45.339C51.4887 45.3311 52.5148 44.9096 53.2681 44.1671C54.0215 43.4247 54.4405 42.4222 54.4329 41.3801V40.7531C54.4292 40.2369 54.3209 39.7266 54.114 39.2512C53.9072 38.7758 53.6059 38.3447 53.2275 37.9825C52.849 37.6203 52.4007 37.3341 51.9083 37.1402C51.4158 36.9463 50.8888 36.8485 50.3573 36.8524L48.921 36.8597C48.8253 36.8607 48.7307 36.8805 48.6426 36.918C48.5545 36.9555 48.4746 37.01 48.4076 37.0784C48.3406 37.1468 48.2877 37.2277 48.2519 37.3165C48.2162 37.4054 48.1983 37.5004 48.1992 37.5961ZM50.9479 56.6471C58.1075 56.1076 56.9337 45.8712 48.5492 46.892C48.3402 46.9163 48.2357 47.0353 48.2357 47.2492C48.1992 49.8229 46.9015 56.9534 50.9479 56.6471Z" fill="white"/>
</svg>
