<svg width="100" height="100" viewBox="0 0 100 100" fill="none" xmlns="http://www.w3.org/2000/svg">
<rect width="100" height="100" fill="white"/>
<path d="M53.1836 76.3196C44.0116 75.7811 36.0112 72.4583 29.1824 66.3513" stroke="#98704F" stroke-width="1.71867"/>
<path d="M29.1826 66.3513C27.0858 67.245 25.5705 68.6687 24.6367 70.6222C23.8375 72.2979 22.5485 73.7674 22.0673 75.6149C21.9986 75.8899 22.0444 76.1449 22.2048 76.3797C22.5256 76.8495 22.8493 77.3078 23.1759 77.7547C23.4337 78.1041 23.5225 78.402 23.4422 78.6484C23.3506 78.9234 23.1329 79.2012 22.7892 79.4819" stroke="#4D7F99" stroke-width="1.71867"/>
<path d="M89.9973 48.8466C83.919 66.6921 71.6477 75.8497 53.1835 76.3195C44.0115 75.781 36.0111 72.4582 29.1823 66.3512C19.3257 56.5376 15.9056 42.8227 21.0788 29.7866C23.611 23.4046 27.9219 17.9679 34.0118 13.4764C37.4033 11.7921 41.1643 10.6521 45.2948 10.0563C45.357 10.0464 45.4206 10.0503 45.4813 10.0678C45.542 10.0852 45.5983 10.1158 45.6464 10.1573C45.6945 10.1989 45.7333 10.2506 45.7601 10.3088C45.787 10.367 45.8012 10.4303 45.8018 10.4946V26.3407C45.8018 26.5927 45.7044 26.7961 45.5096 26.9508C41.0125 30.4741 36.5497 34.026 32.1212 37.6065C29.3112 39.8838 30.6432 42.7196 32.6024 45.203C36.985 50.7543 41.3848 56.2913 45.8018 61.8139C47.8728 64.4091 50.15 65.595 53.0288 63.4553C54.9021 62.0631 57.9041 59.6771 62.0346 56.297C65.8501 53.1776 69.0124 51.3988 65.3516 46.578C63.7361 44.4554 60.4964 39.1619 57.7895 38.8268C54.9193 38.4744 52.4874 40.6314 52.6507 43.5703C52.771 45.7186 54.4037 47.36 55.9076 48.8552C55.9553 48.9012 55.9923 48.9571 56.0163 49.019C56.0402 49.081 56.0505 49.1476 56.0465 49.2143C56.0424 49.2811 56.0241 49.3465 55.9927 49.4061C55.9613 49.4657 55.9176 49.5181 55.8646 49.5598L51.2156 53.2378C50.9979 53.4097 50.8031 53.3867 50.6313 53.169L41.8747 42.1438C41.6684 41.8803 41.6942 41.6454 41.952 41.4391L54.4725 31.4365C54.7074 31.2532 54.8248 31.0126 54.8248 30.7147V10.5547C54.8241 10.4719 54.8421 10.3899 54.8775 10.315C54.9129 10.2401 54.9647 10.1742 55.0292 10.1221C55.0936 10.0701 55.169 10.0333 55.2497 10.0144C55.3304 9.99557 55.4142 9.9952 55.4951 10.0133L57.4286 10.4258C57.543 10.4496 57.6458 10.5122 57.7194 10.603C57.793 10.6938 57.8329 10.8073 57.8325 10.9242V30.4655C57.8327 30.7445 57.9264 31.0166 58.0989 31.2389C61.4274 35.4209 64.753 39.5944 68.0757 43.7593C70.6022 46.9389 72.7419 47.592 76.0589 45.0312C79.6853 42.224 83.3318 39.3109 86.9983 36.2917C87.0568 36.2449 87.1256 36.2127 87.199 36.1977C87.2725 36.1827 87.3484 36.1854 87.4206 36.2055C87.4928 36.2257 87.5592 36.2627 87.6142 36.3135C87.6693 36.3644 87.7115 36.4276 87.7373 36.498C89.2268 40.6858 89.9801 44.802 89.9973 48.8466Z" fill="url(#paint0_linear_51_53)"/>
<path d="M67.5346 13.8803C73.8363 17.0598 79.0153 21.5341 83.0713 27.303C83.1554 27.4217 83.1907 27.5681 83.1699 27.7121C83.1491 27.856 83.0738 27.9864 82.9596 28.0764L73.6358 35.4667C73.5866 35.5064 73.5298 35.5357 73.4687 35.5528C73.4075 35.57 73.3431 35.5747 73.2793 35.5667C73.2155 35.5588 73.1534 35.5382 73.0966 35.5063C73.0398 35.4744 72.9894 35.4318 72.9484 35.3808L66.6924 27.4319C66.5197 27.2144 66.4259 26.9449 66.426 26.6671V14.5591C66.426 13.7342 66.7955 13.5079 67.5346 13.8803Z" fill="#F3800F"/>
<path fill-rule="evenodd" clip-rule="evenodd" d="M34.012 13.4763C27.9222 17.9677 23.6111 23.4044 21.079 29.7864C15.9058 42.8225 19.326 56.5376 29.1825 66.3511C36.0114 72.4581 44.0119 75.7809 53.1838 76.3193C71.6479 75.8495 83.9193 66.6918 89.9975 48.8464C90.2468 72.7359 71.6509 91.074 47.7872 90.0428C38.2141 89.3555 29.8815 85.8351 22.7891 79.4818C2.07048 59.0038 7.02885 25.5328 34.012 13.4763ZM23.2494 79.0108C23.2548 79.0032 23.2603 78.9957 23.2655 78.9881L23.2681 78.9847C23.3469 78.8721 23.4049 78.7598 23.4422 78.6482C23.5223 78.4017 23.4336 78.104 23.1758 77.7545C23.0419 77.5711 22.9085 77.3859 22.7755 77.1987C22.5843 76.9298 22.394 76.6566 22.2046 76.3795" fill="url(#paint1_linear_51_53)"/>
<defs>
<linearGradient id="paint0_linear_51_53" x1="30.606" y1="74.8485" x2="79.6969" y2="16.6667" gradientUnits="userSpaceOnUse">
<stop stop-color="#BB6612"/>
<stop offset="1" stop-color="#F3800F"/>
</linearGradient>
<linearGradient id="paint1_linear_51_53" x1="29.2599" y1="39.6946" x2="93.7099" y2="90.3953" gradientUnits="userSpaceOnUse">
<stop stop-color="#3468B2"/>
<stop offset="1" stop-color="#8BBC44"/>
</linearGradient>
</defs>
</svg>
