<svg width="100" height="100" viewBox="0 0 100 100" fill="none" xmlns="http://www.w3.org/2000/svg">
<rect width="100" height="100" fill="#C0202F"/>
<path d="M68.0188 54.9308C68.0187 54.9237 68.0166 54.9167 68.0128 54.9106C68.0089 54.9046 68.0035 54.8998 67.9971 54.8967C67.9907 54.8937 67.9836 54.8926 67.9767 54.8936C67.9698 54.8945 67.9633 54.8975 67.9581 54.9021C67.1823 55.5541 66.3015 56.2492 65.3556 56.4968C63.4912 56.9841 61.6457 55.9796 60.7926 54.2954C59.0565 50.8685 61.417 46.1663 65.5633 46.5332C66.3973 46.6069 67.1974 46.875 67.9636 47.3377C68.0012 47.3598 68.0199 47.3491 68.0199 47.3056C68.0251 45.7814 68.0247 44.2618 68.0188 42.7471C68.0155 42.0509 67.9603 41.0254 67.2409 40.6894C66.9613 40.559 66.3977 40.7093 66.2153 40.5756C66.0989 40.4901 66.0882 40.3848 66.1833 40.2595C66.2194 40.212 66.2729 40.1803 66.3325 40.1711C67.3889 39.9995 68.3669 39.6197 69.2665 39.0318C69.2962 39.0125 69.3305 39.0016 69.3658 39.0002C69.4012 38.9987 69.4363 39.0069 69.4674 39.0238C69.4985 39.0406 69.5245 39.0656 69.5426 39.0959C69.5608 39.1263 69.5704 39.161 69.5704 39.1964C69.5682 44.2931 69.5686 49.4083 69.5715 54.5418C69.5726 55.6635 70.3108 55.511 71.0965 55.542C71.1464 55.5439 71.1941 55.5626 71.232 55.5948C71.2699 55.6271 71.2958 55.6712 71.3054 55.7199C71.3474 55.9343 71.143 56.0171 70.9595 56.0426C70.2029 56.142 69.4529 56.2813 68.7095 56.4603C68.5732 56.4927 68.4579 56.5347 68.3636 56.5863C68.3293 56.605 68.2907 56.6144 68.2516 56.6138C68.2125 56.6132 68.1743 56.6024 68.1406 56.5826C68.1069 56.5628 68.0789 56.5346 68.0593 56.5008C68.0397 56.467 68.0292 56.4287 68.0288 56.3896L68.0188 54.9308ZM62.5674 47.9554C60.2986 50.5867 62.1309 55.9696 65.9611 55.5431C67.0585 55.4204 68.0244 54.5286 68.0255 53.3826C68.0277 52.0955 68.0247 50.8081 68.0166 49.5203C68.0001 47.0006 64.067 46.2149 62.5674 47.9554Z" fill="white"/>
<path d="M10.2044 40.3579C11.1868 40.275 11.9383 40.4508 13.134 40.3822C13.1944 40.3786 13.7631 40.3262 14.8402 40.2253C17.8837 39.9413 21.3316 40.3159 23.6313 42.535C25.5111 44.3495 26.1708 47.0648 25.7597 49.5932C25.226 52.8765 23.0821 55.3254 19.8707 56.173C19.2883 56.3266 18.2815 56.5012 17.6372 56.4647C15.5641 56.3498 13.5163 56.1122 11.3769 56.4515C11.1625 56.4846 10.4972 56.5653 10.5171 56.2194C10.5203 56.1667 10.5413 56.1166 10.5766 56.0772C10.6119 56.0379 10.6595 56.0117 10.7116 56.0028C12.2278 55.7542 12.1272 54.6446 12.1283 53.3804C12.135 48.2189 12.1357 44.8951 12.1305 43.4091C12.1283 42.462 11.9427 40.9149 10.6862 40.8541C10.4372 40.8416 10.232 40.7893 10.0706 40.6972C10.0353 40.6773 10.0139 40.6475 10.0065 40.6077C9.97781 40.4544 10.0437 40.3712 10.2044 40.3579ZM23.5915 45.8182C22.2654 41.8995 18.8473 40.5248 14.9629 41C14.1042 41.105 13.8998 41.4851 13.8965 42.304C13.8795 46.1991 13.8718 50.0942 13.8733 53.9893C13.8733 54.4921 13.9661 54.9231 14.4314 55.1165C17.3897 56.3432 21.3703 55.9973 23.2125 52.9439C24.4226 50.9359 24.3187 47.9643 23.5915 45.8182Z" fill="white"/>
<path d="M50.2466 48.2726C50.2468 48.2795 50.249 48.2861 50.253 48.2917C50.257 48.2973 50.2626 48.3015 50.269 48.3039C50.2754 48.3063 50.2824 48.3067 50.2891 48.3051C50.2957 48.3034 50.3017 48.2998 50.3063 48.2948C50.976 47.4958 51.8778 46.7918 52.8923 46.5885C55.3036 46.1056 57.1635 48.1334 57.1778 50.4188C57.1867 51.8406 57.2007 53.2622 57.2198 54.6833C57.2353 55.7752 57.979 55.7763 58.8377 55.9487C59.0204 55.9848 59.0764 56.0835 59.0057 56.2448C58.9902 56.2803 58.9647 56.3104 58.9323 56.3314C58.8999 56.3525 58.862 56.3635 58.8233 56.3631L54.7765 56.3277C54.7478 56.3273 54.7197 56.3202 54.6944 56.3069C54.6691 56.2936 54.6473 56.2744 54.6309 56.2511C54.6145 56.2278 54.6039 56.2009 54.6 56.1727C54.5961 56.1445 54.599 56.1158 54.6085 56.089C54.7477 55.6956 55.5799 56.0901 55.5865 55.1154C55.6005 53.3782 55.599 51.9464 55.5821 50.8199C55.5666 49.7745 55.3301 48.7235 54.4471 48.0936C53.2558 47.2416 51.6999 47.4449 50.671 48.5191C50.3737 48.8296 50.2588 49.0959 50.2588 49.5524C50.2581 51.0803 50.2577 52.6087 50.2577 54.1374C50.2577 55.511 50.639 55.7409 51.9242 55.9111C52.1342 55.9387 52.3088 56.0172 52.2723 56.2537C52.2654 56.2974 52.242 56.3367 52.207 56.3635C52.172 56.3903 52.1281 56.4024 52.0844 56.3973C50.58 56.2308 49.0955 56.2253 47.6309 56.3808C47.5056 56.394 47.4437 56.3402 47.4452 56.2194C47.4456 56.1727 47.4602 56.1273 47.4871 56.0893C47.514 56.0513 47.5519 56.0227 47.5955 56.0072C48.1801 55.7962 48.6233 55.532 48.6255 54.8391C48.6299 52.9192 48.6295 50.9997 48.6244 49.0805C48.6229 48.6289 48.6177 48.3846 48.6089 48.3478C48.4608 47.7013 47.5867 47.751 47.0861 47.7754C47.0663 47.7761 47.0465 47.7728 47.0281 47.7656C47.0096 47.7584 46.9929 47.7474 46.9788 47.7334C46.9648 47.7194 46.9539 47.7026 46.9466 47.6842C46.9394 47.6657 46.9361 47.646 46.9369 47.6262C46.949 47.3079 47.7193 47.2736 47.9536 47.1974C48.4199 47.0482 49.8157 46.2105 50.2013 46.321C50.2203 46.3264 50.237 46.3378 50.2488 46.3536C50.2605 46.3694 50.2668 46.3886 50.2665 46.4083L50.2466 48.2726Z" fill="white"/>
<path d="M75.8749 48.4937C75.8741 48.5054 75.8774 48.517 75.8842 48.5265C75.891 48.5361 75.9009 48.543 75.9123 48.5462C75.9237 48.5494 75.9359 48.5487 75.9469 48.5442C75.958 48.5396 75.9672 48.5316 75.9732 48.5213C76.3755 47.8214 76.8901 47.2475 77.517 46.7996C78.368 46.194 79.1161 46.7067 79.7582 47.3112C80.1251 47.6571 79.8897 47.8472 79.6256 48.1754C79.4101 48.4451 79.1393 48.9799 78.7161 48.6307C77.7977 47.8726 76.5302 47.9953 76.0417 49.1313C75.9445 49.3575 75.8958 49.6802 75.8958 50.0994C75.8966 51.5537 75.8988 53.0073 75.9025 54.4601C75.9047 55.7708 76.5766 55.9365 77.7193 55.9807C77.8379 55.9859 77.9329 56.0194 78.0044 56.0813C78.0302 56.1034 78.0438 56.1314 78.0453 56.1653C78.0519 56.3981 77.9524 56.5027 77.7469 56.4791C76.3799 56.3222 75.2118 56.2835 74.0006 56.3929C73.8205 56.4095 73.4856 56.5311 73.2491 56.4383C73.2111 56.4235 73.1785 56.3974 73.1558 56.3635C73.1332 56.3296 73.1216 56.2895 73.1225 56.2486C73.1235 56.2077 73.137 56.168 73.1612 56.1349C73.1855 56.1018 73.2192 56.077 73.258 56.0636C74.0581 55.7907 74.2481 55.6956 74.2559 54.7718C74.275 52.2742 74.2765 50.3934 74.2603 49.1291C74.2493 48.234 73.7022 47.8041 72.8502 47.866C72.6557 47.8793 72.2424 47.8561 72.312 47.603C72.3861 47.3322 72.8325 47.4416 73.0237 47.393C73.8046 47.1956 74.5333 46.8791 75.2096 46.4437C75.5709 46.2106 75.8892 46.2172 75.8958 46.7311C75.9032 47.3344 75.8962 47.922 75.8749 48.4937Z" fill="white"/>
<path d="M42.4224 51.0953C42.4699 50.0013 42.5815 48.6354 42.0223 47.9679C41.4709 47.3104 40.5105 47.0993 39.6961 47.2529C38.3998 47.4971 38.497 48.5105 38.7623 49.5106C38.7917 49.6204 38.8009 49.7147 38.7899 49.7935C38.7837 49.8391 38.7612 49.8808 38.7266 49.9109C38.6921 49.9411 38.6477 49.9575 38.602 49.9571C38.0837 49.9538 36.9245 49.672 37.161 48.947C37.8218 46.9192 39.6309 46.3611 41.6112 46.5832C42.9075 46.7291 44.0325 47.6375 44.0457 49.0177C44.0612 50.657 44.0701 52.2962 44.0723 53.9354C44.073 54.3156 44.1143 54.6902 44.196 55.0593C44.3452 55.7257 45.0923 55.887 45.678 55.7191C45.8261 55.6763 45.9189 55.7058 45.9565 55.8075C45.9702 55.8449 45.9706 55.886 45.9575 55.9236C45.9444 55.9613 45.9187 55.9933 45.8846 56.0141C44.543 56.8341 43.5672 56.5468 42.6213 55.3798C42.6107 55.3668 42.5954 55.3584 42.5787 55.3563C42.5621 55.3542 42.5452 55.3587 42.5318 55.3687C41.5106 56.1434 40.389 56.7335 39.1546 56.5976C37.9964 56.4705 37.1146 55.7378 37.0593 54.541C37.0052 53.3519 37.7102 52.5286 38.791 52.1142C40.0331 51.6368 41.1515 51.4103 42.3693 51.1583C42.4032 51.1509 42.4209 51.13 42.4224 51.0953ZM39.096 52.9674C38.4772 53.6415 38.5457 54.8272 39.1723 55.4229C39.9746 56.1865 41.23 55.9688 41.998 55.2372C42.2378 55.0096 42.4367 54.6228 42.4356 54.3145C42.4341 53.4348 42.4386 52.5581 42.4489 51.6843C42.4491 51.6773 42.4478 51.6704 42.445 51.6639C42.4423 51.6574 42.4381 51.6516 42.4329 51.6468C42.4277 51.642 42.4215 51.6383 42.4147 51.636C42.408 51.6337 42.4008 51.6329 42.3936 51.6335C41.1537 51.7606 39.9724 52.0115 39.096 52.9674Z" fill="white"/>
<path d="M86.4551 51.0994C86.5181 50.0783 86.5999 48.5908 86.0507 47.9598C85.423 47.2404 84.2659 47.0348 83.4062 47.3299C82.2978 47.7112 82.6481 48.8251 82.9045 49.6815C82.9129 49.7091 82.9151 49.7382 82.9111 49.7668C82.907 49.7953 82.8967 49.8227 82.8809 49.8469C82.8651 49.8711 82.8442 49.8916 82.8196 49.9069C82.7951 49.9223 82.7675 49.9321 82.7387 49.9357C82.2038 50.002 81.0943 49.7556 81.2302 48.9909C81.3628 48.2416 81.9552 47.552 82.5685 47.142C84.0085 46.1817 87.1514 46.1994 87.9006 48.0858C88.0207 48.3878 88.0852 48.8873 88.094 49.5843C88.1124 50.9708 88.1135 52.3566 88.0973 53.7417C88.0852 54.7506 88.2001 56.0458 89.6434 55.7032C89.748 55.6789 89.839 55.6878 89.9163 55.7298C89.9412 55.7433 89.962 55.7631 89.9767 55.7873C89.9914 55.8115 89.9995 55.8391 90.0001 55.8674C90.0006 55.8957 89.9937 55.9236 89.9799 55.9484C89.9662 55.9731 89.9461 55.9938 89.9218 56.0082C88.7582 56.7056 87.4984 56.6846 86.7469 55.4104C86.7411 55.4007 86.7335 55.3924 86.7244 55.3858C86.7153 55.3792 86.705 55.3745 86.694 55.372C86.6831 55.3695 86.6717 55.3693 86.6607 55.3713C86.6496 55.3734 86.6391 55.3776 86.6297 55.3839C85.2837 56.29 83.8438 57.0437 82.2259 56.3409C80.9551 55.7894 80.8943 53.9074 81.6557 52.946C82.5729 51.7857 85.0329 51.4409 86.401 51.1613C86.4349 51.1539 86.4529 51.1333 86.4551 51.0994ZM83.1001 53.0167C82.7096 53.5229 82.5913 54.0596 82.7453 54.6269C83.1321 56.0469 84.8119 56.2304 85.875 55.4281C86.3358 55.08 86.4761 54.5992 86.4739 54.0456C86.4688 53.2558 86.4743 52.4697 86.4905 51.6873C86.4907 51.6802 86.4894 51.6731 86.4866 51.6666C86.4838 51.66 86.4797 51.6541 86.4745 51.6493C86.4692 51.6445 86.463 51.6408 86.4563 51.6386C86.4495 51.6364 86.4423 51.6357 86.4353 51.6365C85.2495 51.7801 83.8836 51.9989 83.1001 53.0167Z" fill="white"/>
<path d="M33.9353 50.0464C34.4027 48.7457 34.7409 47.5213 32.9484 47.1942C32.9065 47.1867 32.8678 47.1667 32.8371 47.1368C32.8064 47.1069 32.7851 47.0684 32.776 47.0262C32.7458 46.8848 32.8015 46.8085 32.9429 46.7975C33.459 46.7577 33.9983 46.8693 34.4436 46.8604C35.0183 46.8487 35.5933 46.8258 36.1687 46.7919C36.3131 46.7838 36.4114 46.8188 36.4638 46.8969C36.4784 46.9187 36.488 46.9434 36.4919 46.9694C36.4959 46.9953 36.494 47.0218 36.4865 47.0469C36.479 47.072 36.466 47.0952 36.4486 47.1147C36.4311 47.1343 36.4095 47.1497 36.3853 47.1599C36.0416 47.3069 35.6791 47.4506 35.5012 47.8075C35.3553 48.1022 35.215 48.4385 35.0802 48.8165C33.7607 52.5178 32.4416 56.2188 31.1228 59.9194C31.0289 60.1846 30.8985 60.7847 30.5681 60.8079C30.1201 60.8403 29.6611 60.823 29.1911 60.756C29.1719 60.7533 29.1537 60.7453 29.1389 60.7328C29.124 60.7203 29.113 60.7038 29.1071 60.6853C29.1012 60.6668 29.1007 60.647 29.1056 60.6282C29.1104 60.6095 29.1206 60.5924 29.1347 60.5791C30.0266 59.7481 31.6102 57.4926 31.1946 56.2107C31.09 55.8873 30.9707 55.5719 30.8366 55.2647C29.8243 52.933 28.8146 50.6005 27.8075 48.2672C27.5743 47.7268 27.234 47.2528 26.6284 47.1986C26.5901 47.1949 26.5624 47.1761 26.5455 47.1422C26.456 46.9665 26.561 46.8428 26.74 46.8107C27.2218 46.7234 27.7257 46.8593 28.1147 46.8616C28.5244 46.863 28.9347 46.8634 29.3458 46.8627C29.7547 46.8627 30.2807 46.7466 30.7736 46.8085C30.7985 46.8116 30.8226 46.8197 30.8444 46.8322C30.8663 46.8447 30.8854 46.8614 30.9007 46.8813C30.916 46.9013 30.9272 46.924 30.9337 46.9483C30.9401 46.9726 30.9417 46.998 30.9383 47.0229C30.8708 47.5191 29.4552 46.9389 29.6254 48.1313C29.6512 48.3133 29.7669 48.6518 29.9724 49.1469C30.7253 50.9644 31.4823 52.776 32.2434 54.5818C32.2458 54.5875 32.2498 54.5923 32.255 54.5957C32.2602 54.5991 32.2663 54.6008 32.2725 54.6007C32.2787 54.6006 32.2847 54.5986 32.2897 54.595C32.2948 54.5915 32.2987 54.5865 32.3008 54.5807C32.8453 53.074 33.3901 51.5626 33.9353 50.0464Z" fill="white"/>
</svg>
