<svg width="100" height="100" viewBox="0 0 100 100" fill="none" xmlns="http://www.w3.org/2000/svg">
<rect width="100" height="100" fill="#595C62"/>
<path d="M17.1748 40.8203H23.5147C24.9444 40.8203 26.0342 40.9297 26.7842 41.1484C27.792 41.4453 28.6553 41.9727 29.3741 42.7305C30.0928 43.4883 30.6397 44.418 31.0147 45.5195C31.3897 46.6133 31.5772 47.9648 31.5772 49.5742C31.5772 50.9883 31.4014 52.207 31.0498 53.2305C30.6202 54.4805 30.0069 55.4922 29.21 56.2656C28.6084 56.8516 27.7959 57.3086 26.7725 57.6367C26.0069 57.8789 24.9834 58 23.7022 58H17.1748V40.8203ZM20.6436 43.7266V55.1055H23.2334C24.2022 55.1055 24.9014 55.0508 25.3311 54.9414C25.8936 54.8008 26.3584 54.5625 26.7256 54.2266C27.1006 53.8906 27.4053 53.3398 27.6397 52.5742C27.8741 51.8008 27.9912 50.75 27.9912 49.4219C27.9912 48.0938 27.8741 47.0742 27.6397 46.3633C27.4053 45.6523 27.0772 45.0977 26.6553 44.6992C26.2334 44.3008 25.6983 44.0312 25.0498 43.8906C24.5655 43.7812 23.6162 43.7266 22.2022 43.7266H20.6436ZM39.402 58V50.7695L33.1091 40.8203H37.1755L41.2184 47.6172L45.1794 40.8203H49.1755L42.8591 50.793V58H39.402ZM51.2933 58V40.8203H54.6683L61.6995 52.293V40.8203H64.9222V58H61.4417L54.5159 46.7969V58H51.2933ZM84.4541 58H80.6806L79.1806 54.0977H72.3134L70.8955 58H67.2158L73.9072 40.8203H77.5752L84.4541 58ZM78.0673 51.2031L75.7002 44.8281L73.3798 51.2031H78.0673Z" fill="#F8F8F8"/>
</svg>
