<svg width="100" height="100" viewBox="0 0 100 100" fill="none" xmlns="http://www.w3.org/2000/svg">
<rect width="100" height="100" fill="#BA2F33"/>
<path d="M6.01805 40H17.1515L17.1635 42.5172C17.1655 42.6295 17.1104 42.6856 16.9981 42.6856L9.26004 42.7638C9.14375 42.7638 9.08561 42.822 9.08561 42.9382L9.10065 45.9005C9.10065 46.0068 9.15478 46.0599 9.26305 46.0599L16.2884 46.0058C16.3186 46.0054 16.3487 46.011 16.3768 46.0223C16.4048 46.0336 16.4304 46.0504 16.4519 46.0717C16.4735 46.0929 16.4906 46.1183 16.5023 46.1462C16.5139 46.1741 16.5199 46.2041 16.5199 46.2344V48.532C16.5199 48.6583 16.4578 48.7215 16.3335 48.7215H9.29613C9.15378 48.7215 9.0826 48.7927 9.0826 48.935L9.07358 52.4026C9.07358 52.555 9.14876 52.6311 9.29913 52.6311H17.4613C17.4882 52.6311 17.5149 52.6365 17.5398 52.647C17.5646 52.6575 17.5871 52.6729 17.6059 52.6923C17.6247 52.7116 17.6394 52.7345 17.6492 52.7597C17.6589 52.7848 17.6636 52.8117 17.6628 52.8386L17.6026 55.401C17.6006 55.5112 17.5445 55.5664 17.4342 55.5664L6.23157 55.5604C6.17016 55.5604 6.11125 55.536 6.06783 55.4925C6.0244 55.4491 6 55.3902 6 55.3288L6.01805 40Z" fill="white"/>
<path d="M46.9766 46.4603C46.9626 48.4271 46.9616 50.397 46.9736 52.3699C46.9766 53.2631 47.3225 53.4285 48.1705 53.2901C48.5094 53.236 48.6828 53.3814 48.6908 53.7262L48.7209 55.4344C48.7213 55.4601 48.7166 55.4856 48.7072 55.5095C48.6977 55.5333 48.6837 55.5551 48.6658 55.5735C48.6479 55.592 48.6266 55.6067 48.603 55.6169C48.5794 55.6271 48.5541 55.6325 48.5284 55.6329C46.1075 55.678 44.1196 56.063 43.9632 52.8751C43.8629 50.8401 43.8509 48.7088 43.9271 46.4814C43.9281 46.4455 43.9215 46.4099 43.9077 46.3769C43.8939 46.3438 43.8732 46.3141 43.8471 46.2896C43.8209 46.2652 43.7898 46.2466 43.7559 46.235C43.722 46.2235 43.6861 46.2193 43.6504 46.2227L42.6249 46.325C42.5941 46.3275 42.5632 46.3236 42.5341 46.3137C42.505 46.3038 42.4782 46.2881 42.4556 46.2674C42.433 46.2468 42.415 46.2217 42.4027 46.1938C42.3904 46.1659 42.3841 46.1358 42.3843 46.1054V44.325C42.3843 44.2007 42.4464 44.1386 42.5707 44.1386L43.7496 44.1326C43.7967 44.1318 43.8415 44.1126 43.8742 44.0793C43.9069 44.0461 43.9249 44.0014 43.9241 43.9551L43.8729 41.2875C43.8689 41.081 43.9712 40.9778 44.1797 40.9778H46.8202C46.8601 40.9778 46.8983 40.9936 46.9265 41.0218C46.9547 41.05 46.9706 41.0883 46.9706 41.1282V43.9852C46.9706 44.0854 47.0207 44.1356 47.121 44.1356H48.5104C48.6367 44.1356 48.6998 44.1977 48.6998 44.322V46.0904C48.6998 46.1906 48.6497 46.2408 48.5495 46.2408H47.1961C47.1384 46.2408 47.083 46.2638 47.042 46.3049C47.0009 46.346 46.9774 46.4018 46.9766 46.4603Z" fill="white"/>
<path d="M26.3813 54.4808C26.3754 54.4531 26.3619 54.4274 26.3425 54.4067C26.323 54.386 26.2983 54.3711 26.2712 54.3636C26.244 54.3561 26.2155 54.3564 26.1887 54.3643C26.162 54.3723 26.1381 54.3876 26.1197 54.4087C24.9669 55.6858 23.4952 56.1459 21.7048 55.7891C18.7455 55.1996 18.4147 51.1907 20.4207 49.6178C21.8221 48.5171 23.9544 48.7517 25.6656 48.1202C26.4174 47.8405 26.3603 46.7819 25.825 46.4029C24.8476 45.7112 22.6882 45.9097 22.4206 47.5097C22.4128 47.5543 22.3895 47.5947 22.3549 47.6239C22.3202 47.653 22.2764 47.669 22.2311 47.669H19.759C19.7265 47.6693 19.6943 47.6625 19.6645 47.6493C19.6347 47.6361 19.608 47.6166 19.5861 47.5922C19.5643 47.5678 19.5478 47.539 19.5377 47.5077C19.5275 47.4763 19.5241 47.4432 19.5275 47.4104C19.9214 43.606 23.7859 43.2451 26.7573 44.0511C28.7001 44.5774 29.2294 45.6661 29.2264 47.669C29.2244 49.7101 29.2254 51.7481 29.2294 53.7831C29.2294 54.4117 29.5361 54.7695 29.879 55.2417C29.8978 55.2671 29.9093 55.2971 29.9121 55.3286C29.915 55.36 29.909 55.3917 29.8951 55.42C29.8811 55.4483 29.8595 55.4722 29.8328 55.489C29.8061 55.5058 29.7752 55.515 29.7436 55.5154L26.8565 55.5846C26.7021 55.5886 26.6079 55.5144 26.5738 55.362L26.3813 54.4808ZM22.177 51.7321C21.2387 54.3515 27.037 54.4658 26.225 50.1111C26.2089 50.0249 26.1578 49.9948 26.0716 50.0208C24.9077 50.3757 22.583 50.6043 22.177 51.7321Z" fill="white"/>
<path d="M34.7511 47.5035C36.8984 48.7486 41.7584 48.3546 41.611 52.1229C41.5368 54.0336 40.4722 55.2145 38.4171 55.6656C35.4398 56.3182 31.8038 55.8671 31.2054 52.2131C31.197 52.1626 31.1998 52.1109 31.2136 52.0616C31.2273 52.0123 31.2516 51.9666 31.2848 51.9276C31.3181 51.8887 31.3594 51.8575 31.4059 51.8361C31.4524 51.8148 31.503 51.8039 31.5542 51.8041H34.1165C34.1626 51.8042 34.2072 51.8205 34.2424 51.8502C34.2776 51.8799 34.3012 51.9211 34.309 51.9665C34.6037 53.774 37.7946 54.1048 38.5465 52.6793C38.5928 52.5903 38.6035 52.488 38.5765 52.3936C38.4141 51.8382 38.0202 51.4994 37.3946 51.3771C34.8774 50.8899 30.0746 49.8673 31.9121 45.9457C32.9797 43.6721 36.1736 43.3563 38.3329 43.9488C40.0091 44.4099 40.9875 45.5337 41.2682 47.3201C41.2982 47.5025 41.221 47.5937 41.0366 47.5937H38.6878C38.5575 47.5937 38.4642 47.5346 38.4081 47.4163C37.8547 46.2153 36.8503 45.8083 35.3947 46.1953C34.7491 46.3657 34.4814 46.7266 34.5917 47.278C34.6002 47.3242 34.6189 47.3682 34.6464 47.4071C34.6739 47.446 34.7096 47.4789 34.7511 47.5035Z" fill="white"/>
<path d="M70.2143 54.3545C70.21 54.3388 70.2014 54.3247 70.1895 54.3136C70.1776 54.3025 70.1629 54.295 70.1469 54.2919C70.131 54.2888 70.1145 54.2901 70.0993 54.2959C70.0841 54.3017 70.0708 54.3115 70.0609 54.3244C68.4369 56.5168 64.0972 56.7033 63.2431 53.4944C62.6877 51.4133 63.3323 49.9637 65.1768 49.1457C66.3257 48.6344 68.1782 48.5682 69.6248 48.1412C69.7067 48.1179 69.7796 48.0672 69.8323 47.9968C71.3841 45.9067 66.5272 45.1248 66.3828 47.5066C66.3768 47.6149 66.3207 47.669 66.2144 47.669H63.6671C63.6438 47.6691 63.6208 47.6643 63.5994 47.6552C63.578 47.646 63.5586 47.6326 63.5426 47.6157C63.5266 47.5988 63.5141 47.5788 63.5061 47.557C63.498 47.5351 63.4945 47.5118 63.4957 47.4886C63.6701 43.585 67.7903 43.2391 70.7225 44.0692C72.9149 44.6887 73.1375 45.9668 73.1375 48.1562C73.1345 49.7381 72.7074 53.9696 73.7209 55.1064C73.7562 55.1457 73.7792 55.1943 73.7872 55.2465C73.7951 55.2987 73.7877 55.3522 73.7658 55.4005C73.7439 55.4487 73.7084 55.4898 73.6636 55.5188C73.6188 55.5477 73.5667 55.5632 73.5134 55.5635H70.7075C70.6542 55.5637 70.6025 55.546 70.5605 55.5133C70.5185 55.4806 70.4887 55.4347 70.4759 55.383L70.2143 54.3545ZM66.9031 50.896C64.825 51.5546 66.5542 54.8086 69.1226 53.1455C70.106 52.505 70.2894 51.2479 70.1872 50.1471C70.1772 50.0489 70.124 50.0108 70.0278 50.0329C68.9752 50.2835 67.9336 50.5712 66.9031 50.896Z" fill="white"/>
<path d="M88.9988 46.2404C86.5718 46.1472 86.5567 49.4614 86.7973 51.0703C87.0379 52.6853 88.5657 54.0777 90.1296 52.8658C90.6017 52.5019 90.7581 51.9515 90.9716 51.3861C91.0177 51.2638 91.107 51.2027 91.2393 51.2027H93.7294C93.7698 51.2026 93.8097 51.2117 93.8462 51.2291C93.8826 51.2465 93.9147 51.2719 93.9401 51.3033C93.9655 51.3347 93.9835 51.3715 93.9928 51.4108C94.0022 51.4501 94.0026 51.491 93.9941 51.5305C93.3605 54.5319 91.4949 55.9794 88.3973 55.8732C83.9253 55.7228 82.8185 50.8568 83.817 47.3652C85.2605 42.3188 93.3866 42.418 93.9399 47.9005C93.9424 47.927 93.9395 47.9538 93.9313 47.9791C93.9231 48.0044 93.9098 48.0277 93.8923 48.0474C93.8748 48.0672 93.8534 48.0831 93.8295 48.094C93.8056 48.105 93.7797 48.1108 93.7535 48.111L91.0739 48.1411C90.9716 48.1431 90.9115 48.094 90.8934 47.9937C90.6829 46.865 90.0514 46.2805 88.9988 46.2404Z" fill="white"/>
<path d="M53.4212 45.4077C53.4196 45.4265 53.4241 45.4453 53.4342 45.4614C53.4442 45.4774 53.4591 45.4897 53.4768 45.4965C53.4944 45.5033 53.5138 45.5042 53.532 45.499C53.5501 45.4938 53.5662 45.4829 53.5776 45.4678C55.788 42.5205 59.7969 43.525 61.0269 46.755C62.0274 49.3754 61.8229 51.8054 60.4134 54.0449C58.9849 56.3155 55.4873 56.5261 53.7731 54.4179C53.7538 54.3943 53.7278 54.3772 53.6984 54.369C53.6691 54.3608 53.638 54.3619 53.6093 54.3721C53.5806 54.3823 53.5558 54.4012 53.5383 54.426C53.5208 54.4509 53.5114 54.4807 53.5114 54.5111V59.8853C53.5114 60.0117 53.4493 60.0748 53.325 60.0748H50.7687C50.6443 60.0748 50.5822 60.0127 50.5822 59.8884L50.5762 44.2769C50.5762 44.1826 50.6233 44.1355 50.7175 44.1355H53.3039C53.3349 44.1353 53.3655 44.1417 53.3939 44.1542C53.4222 44.1667 53.4476 44.1851 53.4683 44.2081C53.489 44.2311 53.5047 44.2582 53.5142 44.2877C53.5237 44.3172 53.5268 44.3483 53.5234 44.3791L53.4212 45.4077ZM56.0591 53.3412C56.7419 53.3376 57.3947 52.9622 57.874 52.2975C58.3533 51.6329 58.6199 50.7334 58.615 49.797C58.6125 49.3334 58.5435 48.8746 58.4119 48.4469C58.2803 48.0193 58.0886 47.631 57.8479 47.3044C57.6071 46.9778 57.322 46.7193 57.0087 46.5435C56.6954 46.3677 56.3602 46.2781 56.0222 46.2799C55.3394 46.2834 54.6866 46.6588 54.2073 47.3235C53.728 47.9881 53.4614 48.8876 53.4663 49.824C53.4688 50.2876 53.5377 50.7464 53.6694 51.1741C53.801 51.6018 53.9926 51.99 54.2334 52.3166C54.4742 52.6432 54.7593 52.9018 55.0726 53.0776C55.3858 53.2534 55.7211 53.3429 56.0591 53.3412Z" fill="white"/>
<path d="M78.623 45.6511C78.6232 45.6777 78.6323 45.7034 78.6487 45.7243C78.6651 45.7452 78.688 45.7601 78.7137 45.7666C78.7395 45.7732 78.7667 45.771 78.7911 45.7604C78.8155 45.7498 78.8357 45.7315 78.8485 45.7082C79.5402 44.385 80.648 43.7564 82.1717 43.8226C82.3121 43.8286 82.3822 43.9018 82.3822 44.0421V46.7007C82.3822 46.841 82.3131 46.9092 82.1747 46.9052C79.832 46.845 78.8636 47.4014 78.8576 49.8735C78.8535 51.7161 78.8495 53.5586 78.8455 55.4011C78.8455 55.5094 78.7914 55.5635 78.6831 55.5635H76.0065C75.8642 55.5635 75.793 55.4924 75.793 55.35L75.7539 44.3669C75.7539 44.2126 75.8311 44.1354 75.9855 44.1354H78.3222C78.402 44.1354 78.4785 44.1671 78.5349 44.2235C78.5913 44.2799 78.623 44.3563 78.623 44.4361V45.6511Z" fill="white"/>
</svg>
