<svg width="100" height="100" viewBox="0 0 100 100" fill="none" xmlns="http://www.w3.org/2000/svg">
<rect width="100" height="100" fill="#1577BE"/>
<path d="M74.1516 36.725C77.0621 38.5295 79.9162 41.0467 81.8346 44.065C81.8592 44.104 81.879 44.144 81.894 44.1849C81.8947 44.1868 81.8947 44.1888 81.894 44.1906C81.8933 44.1924 81.892 44.194 81.8902 44.195C81.8884 44.196 81.8863 44.1964 81.8842 44.1962C81.882 44.1959 81.88 44.1951 81.8784 44.1937C74.433 36.6051 63.445 33.3382 53.0783 33.1276C42.1283 32.9054 29.9329 35.6117 21.8818 43.6019C21.8753 43.6083 21.8668 43.612 21.8578 43.6125C21.8487 43.6129 21.8399 43.6101 21.8328 43.6045C21.8257 43.5988 21.821 43.5908 21.8194 43.5819C21.8178 43.573 21.8196 43.5638 21.8243 43.5561C22.6371 42.2887 23.5901 41.1293 24.6833 40.0777C32.2241 32.8235 43.2588 30.7528 53.3402 31.0228C60.7262 31.2208 67.8659 32.8254 74.1516 36.725Z" fill="white"/>
<path d="M25.7376 43.5229C29.6054 39.4898 35.0595 37.0623 40.4317 35.8583C44.6803 34.9058 49.0418 34.589 53.3886 34.6962C56.6715 34.7774 59.9093 35.1983 63.102 35.9587C69.1714 37.4045 75.6703 40.7298 79.2149 46.0762C79.2193 46.0835 79.221 46.0922 79.2195 46.1007C79.2181 46.1092 79.2137 46.1169 79.2072 46.1224C79.2006 46.128 79.1923 46.1309 79.1837 46.1309C79.1751 46.1308 79.1668 46.1276 79.1603 46.122C72.6789 40.0893 63.5246 37.1217 54.898 36.6216C50.7867 36.3831 46.6969 36.5774 42.6285 37.2046C36.1491 38.2039 28.8186 40.685 24.1786 45.5643C24.1764 45.567 24.1737 45.5693 24.1707 45.5709C24.1677 45.5726 24.1643 45.5736 24.1609 45.574C24.1575 45.5743 24.154 45.574 24.1507 45.573C24.1474 45.572 24.1443 45.5704 24.1416 45.5682C24.1389 45.5661 24.1367 45.5634 24.135 45.5603C24.1334 45.5573 24.1323 45.554 24.132 45.5505C24.1316 45.5471 24.1319 45.5436 24.1329 45.5403C24.1339 45.537 24.1355 45.5339 24.1377 45.5312C24.6064 44.8163 25.1397 44.1468 25.7376 43.5229Z" fill="white"/>
<path d="M26.9263 47.0511C27.8475 45.7593 29.1591 44.5758 30.4348 43.6409C34.9608 40.3233 40.4694 38.6982 45.9956 38.1513C50.3165 37.723 54.6231 37.8295 58.9155 38.471C63.3432 39.133 67.7427 40.5173 71.555 42.9058C73.4674 44.104 75.3672 45.6794 76.637 47.5678C76.6394 47.5722 76.6402 47.5772 76.6393 47.5822C76.6385 47.5871 76.636 47.5916 76.6323 47.5949C76.6287 47.5983 76.624 47.6003 76.619 47.6007C76.614 47.6011 76.6091 47.5998 76.6049 47.597C70.9132 42.9127 63.2195 40.3789 55.9669 39.7218C46.052 38.8249 34.9472 40.6957 26.9604 47.0833C26.9561 47.0878 26.9502 47.0904 26.944 47.0906C26.9378 47.0908 26.9318 47.0885 26.9273 47.0842C26.9228 47.08 26.9201 47.0741 26.9199 47.0679C26.9197 47.0616 26.922 47.0556 26.9263 47.0511Z" fill="white"/>
<path d="M21.648 47.7578L25.0435 47.7627C25.1259 47.7633 25.1571 47.8033 25.137 47.8826C24.5514 50.2223 23.9756 52.5511 23.4095 54.8687C23.2576 55.4897 23.1359 55.9411 23.282 56.5816C23.2846 56.5934 23.2845 56.6057 23.2818 56.6175C23.279 56.6293 23.2737 56.6403 23.2661 56.6498C23.2585 56.6592 23.2489 56.6668 23.238 56.6721C23.2271 56.6773 23.2152 56.6801 23.2031 56.6801H19.4531C19.4421 56.6801 19.4312 56.6772 19.4216 56.6716C19.4121 56.6661 19.4042 56.6581 19.3987 56.6484C19.3933 56.6388 19.3905 56.6279 19.3906 56.6169C19.3908 56.6058 19.3939 56.595 19.3995 56.5855C19.5145 56.3915 19.6858 56.2121 19.7647 56.0045C19.94 55.5463 20.0835 55.0783 20.1951 54.6006C20.6284 52.7532 21.1075 50.9155 21.5477 49.069C21.6567 48.6128 21.6713 48.296 21.5594 47.8729C21.5558 47.8593 21.5554 47.8451 21.5581 47.8313C21.5609 47.8175 21.5668 47.8046 21.5754 47.7935C21.5839 47.7824 21.5949 47.7734 21.6075 47.7672C21.6201 47.761 21.634 47.7578 21.648 47.7578Z" fill="white"/>
<path d="M79.1074 47.7578L82.0969 47.7627C82.1141 47.7626 82.131 47.7665 82.1465 47.774C82.162 47.7815 82.1755 47.7924 82.1861 47.806C82.1968 47.8195 82.2041 47.8353 82.2077 47.8521C82.2113 47.8689 82.211 47.8864 82.2069 47.9031L81.8301 49.4288C81.8239 49.4534 81.8098 49.4752 81.7898 49.4907C81.7699 49.5063 81.7453 49.5147 81.72 49.5146H78.7267C78.7096 49.5145 78.6927 49.5105 78.6773 49.503C78.662 49.4954 78.6486 49.4844 78.638 49.4709C78.6275 49.4574 78.6203 49.4417 78.6167 49.4249C78.6132 49.4082 78.6135 49.3908 78.6176 49.3742L78.9974 47.8436C79.0035 47.819 79.0176 47.7972 79.0376 47.7817C79.0575 47.7661 79.0821 47.7577 79.1074 47.7578Z" fill="white"/>
<path d="M47.8658 50.1192L50.2827 50.127C50.29 50.1269 50.2973 50.1285 50.3038 50.1317C50.3104 50.1348 50.3162 50.1394 50.3207 50.1452C50.3252 50.1509 50.3284 50.1576 50.3299 50.1648C50.3314 50.1719 50.3313 50.1793 50.3295 50.1864L50.0461 51.3622C50.0377 51.3979 50.0153 51.4158 49.9789 51.4158H47.5192C47.4724 51.4158 47.4435 51.4382 47.4325 51.483L46.562 55.0414C46.5529 55.0785 46.5522 55.1172 46.5601 55.1546C46.5679 55.192 46.584 55.2271 46.6072 55.2573C46.6304 55.2876 46.6601 55.3122 46.6941 55.3293C46.7281 55.3465 46.7654 55.3557 46.8035 55.3563C47.6857 55.3729 48.5484 55.4382 49.3781 55.1643C49.389 55.1608 49.4007 55.1605 49.4119 55.1634C49.423 55.1662 49.4331 55.1722 49.441 55.1805C49.4489 55.1888 49.4543 55.1992 49.4566 55.2105C49.4589 55.2217 49.458 55.2334 49.4541 55.2442L48.9341 56.6081C48.9261 56.6284 48.9121 56.6459 48.8941 56.6583C48.876 56.6706 48.8547 56.6772 48.8328 56.6773C47.413 56.6851 45.9868 56.6831 44.5541 56.6714C43.3193 56.6617 43.1489 55.6039 43.3885 54.6349C43.6377 53.6203 43.8909 52.5723 44.148 51.4908C44.1597 51.4408 44.1399 51.4158 44.0886 51.4158H42.8704C42.8608 51.4157 42.8513 51.4135 42.8426 51.4093C42.834 51.4051 42.8264 51.399 42.8205 51.3915C42.8145 51.384 42.8104 51.3752 42.8085 51.3659C42.8065 51.3566 42.8067 51.347 42.8091 51.3378L43.0827 50.1806C43.0918 50.1429 43.1158 50.124 43.1548 50.124H44.408C44.4302 50.1241 44.4518 50.1167 44.4693 50.1031C44.4868 50.0895 44.4992 50.0704 44.5044 50.049L44.781 48.9532C44.8108 48.8362 44.8864 48.7758 45.0078 48.7719L47.9944 48.6831C48.0104 48.6827 48.0263 48.686 48.0408 48.6926C48.0553 48.6993 48.0681 48.7093 48.0782 48.7217C48.0883 48.7342 48.0954 48.7488 48.0989 48.7644C48.1024 48.78 48.1023 48.7963 48.0986 48.8118L47.8016 50.0363C47.7991 50.046 47.7988 50.0562 47.8009 50.066C47.8029 50.0758 47.8072 50.0851 47.8134 50.0931C47.8196 50.101 47.8275 50.1075 47.8366 50.112C47.8457 50.1166 47.8557 50.119 47.8658 50.1192Z" fill="white"/>
<path d="M18.3822 50.1211C19.7055 50.124 19.7114 51.1779 19.4747 52.1421C19.3183 52.7816 19.1579 53.4146 18.9937 54.0411C18.9875 54.0642 18.974 54.0845 18.9553 54.0989C18.9367 54.1134 18.9139 54.1212 18.8905 54.1211H13.6107C13.5783 54.1211 13.5568 54.1364 13.5465 54.1669C13.3721 54.667 13.1307 55.3592 13.9175 55.3621C14.9957 55.3654 16.074 55.3657 17.1523 55.3631C17.6655 55.3621 18.0871 55.289 18.5458 55.1369C18.554 55.1343 18.5629 55.1341 18.5713 55.1363C18.5797 55.1384 18.5873 55.1429 18.5933 55.1491C18.5992 55.1554 18.6032 55.1631 18.6048 55.1715C18.6064 55.1799 18.6055 55.1885 18.6022 55.1964L18.055 56.5544C18.0212 56.6396 17.9586 56.6821 17.867 56.6821C15.7358 56.6808 13.5786 56.676 11.3954 56.6675C9.98442 56.6617 9.83446 55.8944 10.1198 54.6982C10.3379 53.7799 10.5671 52.8641 10.8072 51.951C11.0624 50.981 11.6272 50.1367 12.7168 50.1308C14.6046 50.1211 16.4931 50.1178 18.3822 50.1211ZM16.1113 52.7348C16.1863 52.4511 16.5934 51.4411 16.0393 51.4206C15.6985 51.4089 15.2158 51.4161 14.5913 51.4421C14.0762 51.4635 13.971 52.3536 13.9038 52.7465C13.9027 52.7537 13.9031 52.7611 13.905 52.7681C13.907 52.7751 13.9104 52.7816 13.915 52.7872C13.9196 52.7927 13.9253 52.7972 13.9318 52.8003C13.9383 52.8033 13.9454 52.805 13.9525 52.805H16.0198C16.0405 52.805 16.0607 52.7982 16.0773 52.7855C16.0938 52.7728 16.1058 52.755 16.1113 52.7348Z" fill="white"/>
<path d="M25.7589 56.6558C24.1707 56.6441 24.5008 55.3534 24.7345 54.3541C24.9163 53.5748 25.1101 52.7982 25.3159 52.0241C25.5856 51.0131 26.1056 50.1533 27.2615 50.1328C28.5001 50.1107 30.3561 50.111 32.8295 50.1338C33.7545 50.1416 34.3193 50.6193 34.1031 51.6468C33.9344 52.4514 33.7383 53.2473 33.515 54.0343C33.508 54.0593 33.493 54.0812 33.4722 54.0969C33.4515 54.1126 33.4262 54.121 33.4001 54.1211H28.1427C28.1109 54.1211 28.0898 54.1364 28.0794 54.1669C27.9519 54.55 27.648 55.369 28.3881 55.368C29.4768 55.3673 30.5658 55.366 31.6551 55.3641C32.1838 55.3621 32.5967 55.2978 33.0661 55.1418C33.0758 55.1387 33.0863 55.1383 33.0962 55.1409C33.1061 55.1434 33.1151 55.1487 33.122 55.1561C33.129 55.1635 33.1337 55.1726 33.1355 55.1826C33.1373 55.1925 33.1362 55.2027 33.1323 55.212L32.5578 56.6305C32.5435 56.6662 32.5172 56.6841 32.4789 56.6841C30.2366 56.6815 27.9967 56.6721 25.7589 56.6558ZM29.1486 51.4265C28.6179 51.444 28.5089 52.3224 28.4553 52.7036C28.4456 52.7712 28.4744 52.805 28.542 52.805H30.5908C30.6051 52.8049 30.619 52.8001 30.6301 52.7912C30.6413 52.7824 30.649 52.77 30.6521 52.7562L30.8926 51.677C30.8963 51.6615 30.8965 51.6454 30.8931 51.6299C30.8897 51.6143 30.8829 51.5998 30.8732 51.5873C30.6667 51.3095 29.4933 51.4148 29.1486 51.4265Z" fill="white"/>
<path d="M35.7159 56.679C34.4744 56.6761 34.0693 55.7733 34.3332 54.6765C34.552 53.7647 34.785 52.8564 35.0323 51.9517C35.2686 51.088 35.7649 50.5264 36.5212 50.2671C36.7984 50.1722 37.2425 50.1244 37.8533 50.1238C39.3997 50.1231 40.9519 50.1231 42.5099 50.1238C42.5189 50.1238 42.5278 50.1256 42.536 50.1292C42.5443 50.1328 42.5517 50.138 42.5578 50.1446C42.564 50.1512 42.5687 50.159 42.5716 50.1675C42.5746 50.176 42.5758 50.185 42.5751 50.194L42.4709 51.63C42.4701 51.6397 42.467 51.6491 42.4618 51.6573C42.4566 51.6655 42.4495 51.6723 42.4412 51.6771C42.4328 51.682 42.4234 51.6846 42.4138 51.6849C42.4043 51.6852 42.3948 51.6831 42.3862 51.6787C41.5293 51.2508 40.0716 51.4077 39.1222 51.4165C38.6476 51.421 38.3552 51.6524 38.2448 52.1106C38.0299 52.9997 37.8193 53.8892 37.6128 54.7789C37.4892 55.3083 37.8485 55.3599 38.2662 55.3619C39.2858 55.3668 40.4825 55.4984 41.4387 55.1006C41.4515 55.0952 41.4656 55.0937 41.4792 55.0963C41.4928 55.0988 41.5053 55.1054 41.5152 55.1151C41.5251 55.1248 41.5319 55.1372 41.5348 55.1507C41.5376 55.1643 41.5364 55.1784 41.5313 55.1913L41.0083 56.5142C40.989 56.5623 40.9558 56.6036 40.913 56.6328C40.8702 56.6619 40.8196 56.6777 40.7678 56.678C39.104 56.6826 37.42 56.6829 35.7159 56.679Z" fill="white"/>
<path d="M54.3649 51.0229C54.3635 51.0314 54.3651 51.0402 54.3694 51.0476C54.3737 51.0551 54.3805 51.0609 54.3885 51.0639C54.3966 51.0669 54.4055 51.067 54.4136 51.0641C54.4218 51.0613 54.4286 51.0557 54.4331 51.0483C55.1722 49.8238 56.5656 50.1241 57.7507 50.1241C57.8384 50.1241 57.8718 50.1663 57.851 50.2508L57.3826 52.1899C57.3795 52.2027 57.3733 52.2147 57.3646 52.2246C57.3559 52.2346 57.345 52.2424 57.3327 52.2472C57.3204 52.2521 57.3071 52.254 57.2939 52.2526C57.2808 52.2513 57.2681 52.2468 57.257 52.2396C56.7497 51.9062 55.9678 51.9422 55.3854 51.9959C54.734 52.0553 54.3289 52.2737 54.1819 52.9132C53.9267 54.0227 53.3123 55.6001 53.5635 56.5808C53.5665 56.5926 53.5667 56.6048 53.5642 56.6167C53.5618 56.6285 53.5566 56.6397 53.5492 56.6493C53.5418 56.6588 53.5323 56.6666 53.5215 56.672C53.5106 56.6773 53.4987 56.6802 53.4866 56.6802H49.7152C49.7044 56.6802 49.6937 56.6772 49.6846 56.6714C49.6754 56.6656 49.668 56.6574 49.6634 56.6476C49.6587 56.6378 49.6568 56.6269 49.6581 56.6161C49.6593 56.6053 49.6636 56.5951 49.6704 56.5867C50.0054 56.1674 50.1768 55.7765 50.3199 55.215C50.8457 53.1501 51.1798 51.77 51.3219 51.0746C51.3674 50.8543 51.342 50.5576 51.246 50.1845C51.2356 50.1442 51.2512 50.1241 51.2927 50.1241H54.4068C54.4185 50.1241 54.4301 50.1266 54.4408 50.1315C54.4514 50.1364 54.4609 50.1435 54.4686 50.1524C54.4762 50.1613 54.4819 50.1717 54.4852 50.183C54.4885 50.1942 54.4893 50.206 54.4876 50.2177L54.3649 51.0229Z" fill="white"/>
<path d="M58.5259 56.6831C57.1801 56.6831 57.0078 55.8359 57.2726 54.7275C57.5167 53.7084 57.7774 52.6935 58.0546 51.6829C58.4373 50.2859 59.3585 50.126 60.7188 50.125C62.2931 50.123 63.8667 50.1217 65.4396 50.1211C66.8477 50.1211 67.0794 50.8493 66.7824 52.0533C66.4884 53.2456 66.2391 54.3512 65.9752 55.2178C65.5594 56.5817 64.5759 56.6753 63.2155 56.6782C61.653 56.6821 60.0898 56.6838 58.5259 56.6831ZM60.599 55.2958C60.6433 55.3396 60.7031 55.3641 60.7655 55.3641H62.2992C62.4036 55.3641 62.5051 55.3295 62.5878 55.2657C62.6706 55.2018 62.7301 55.1124 62.7569 55.0112C63.0075 54.0577 63.248 53.0851 63.4785 52.0933C63.5242 51.8944 63.5953 51.7131 63.5038 51.5132C63.4973 51.499 63.4871 51.4867 63.4743 51.4776C63.4615 51.4686 63.4465 51.463 63.4307 51.4616C62.7919 51.4021 61.4676 51.2802 61.344 51.6819C61.1739 52.235 60.8986 53.3438 60.5182 55.0082C60.4922 55.1213 60.5192 55.2172 60.599 55.2958Z" fill="white"/>
<path d="M71.3085 50.6622C71.5822 50.2888 71.8538 50.1163 72.3427 50.1202C73.0185 50.1267 73.6952 50.1277 74.373 50.1231C75.0299 50.1186 75.4824 50.1634 75.7304 50.2576C76.822 50.669 76.6253 51.7483 76.3857 52.7553C76.1696 53.6678 75.9537 54.582 75.7382 55.4977C75.6506 55.873 75.6379 56.1948 75.747 56.534C75.7525 56.5507 75.754 56.5684 75.7513 56.5858C75.7486 56.6032 75.7417 56.6197 75.7314 56.6339C75.721 56.6482 75.7074 56.6598 75.6917 56.6679C75.6759 56.6759 75.6585 56.6802 75.6408 56.6803H71.9162C71.9033 56.6804 71.8906 56.6768 71.8796 56.6699C71.8687 56.663 71.86 56.6531 71.8546 56.6413C71.8491 56.6296 71.8472 56.6166 71.8489 56.6038C71.8507 56.5909 71.8561 56.5789 71.8646 56.5691C72.1392 56.2442 72.3313 55.8662 72.441 55.4353C72.7384 54.27 73.0292 53.1034 73.3135 51.9354C73.4255 51.4782 73.1967 51.4217 72.814 51.4168C72.3281 51.4109 71.2998 51.2286 71.1342 51.8535C70.8038 53.0943 70.4954 54.3402 70.2092 55.5913C70.1342 55.9228 70.1507 56.2347 70.2432 56.5389C70.2483 56.5552 70.2494 56.5725 70.2464 56.5893C70.2435 56.6061 70.2367 56.622 70.2265 56.6358C70.2162 56.6495 70.2029 56.6607 70.1876 56.6684C70.1722 56.6762 70.1553 56.6802 70.1381 56.6803H66.4105C66.3994 56.6802 66.3886 56.6771 66.3792 56.6712C66.3698 56.6654 66.3622 56.6571 66.3572 56.6473C66.3522 56.6374 66.3499 56.6264 66.3508 56.6154C66.3516 56.6043 66.3554 56.5937 66.3618 56.5847C66.6023 56.2513 66.8078 55.9228 66.9159 55.5075C67.2931 54.0536 67.643 52.5932 67.9656 51.1263C68.0364 50.8033 68.0234 50.49 67.9266 50.1865C67.9243 50.1793 67.9238 50.1716 67.925 50.1642C67.9262 50.1567 67.9291 50.1497 67.9336 50.1436C67.9381 50.1375 67.9439 50.1325 67.9507 50.1292C67.9574 50.1258 67.9649 50.124 67.9724 50.1241H71.1372C71.1557 50.124 71.1741 50.1278 71.1912 50.1353C71.2082 50.1428 71.2235 50.1537 71.2362 50.1675C71.2488 50.1812 71.2585 50.1974 71.2646 50.2151C71.2706 50.2328 71.273 50.2516 71.2715 50.2703L71.2413 50.6369C71.2404 50.6451 71.2422 50.6534 71.2465 50.6604C71.2508 50.6675 71.2573 50.6729 71.2651 50.6758C71.2728 50.6787 71.2813 50.679 71.2891 50.6765C71.297 50.674 71.3038 50.669 71.3085 50.6622Z" fill="white"/>
<path d="M78.1654 50.8737C78.1913 50.7327 78.1572 50.5075 78.0631 50.1981C78.0482 50.1481 78.0667 50.123 78.1186 50.123L81.5541 50.126C81.5691 50.126 81.5839 50.1294 81.5974 50.136C81.6109 50.1426 81.6227 50.1522 81.632 50.164C81.6413 50.1758 81.6478 50.1896 81.651 50.2043C81.6542 50.219 81.654 50.2342 81.6505 50.2488C81.2408 51.9068 80.8237 53.5797 80.3992 55.2676C80.2875 55.7115 80.282 56.1336 80.3826 56.534C80.3869 56.5512 80.3872 56.5691 80.3835 56.5865C80.3799 56.6038 80.3723 56.6201 80.3614 56.6341C80.3506 56.6481 80.3366 56.6594 80.3207 56.6672C80.3048 56.6751 80.2874 56.6792 80.2697 56.6792C79.0349 56.6799 77.7999 56.6821 76.5645 56.686C76.5346 56.686 76.5122 56.673 76.4973 56.647C76.4904 56.6351 76.4873 56.6212 76.4885 56.6075C76.4898 56.5937 76.4952 56.5806 76.5041 56.57C76.8391 56.1684 76.9881 55.7852 77.1341 55.2315C77.6366 53.3324 77.9803 51.8798 78.1654 50.8737Z" fill="white"/>
<path d="M83.164 56.6852C81.7793 56.6842 81.5076 55.6859 81.7891 54.5336C81.9942 53.6958 82.2032 52.859 82.4162 52.0232C82.7998 50.5209 83.8213 50.1261 85.2284 50.1251C86.7981 50.1238 88.3594 50.1235 89.9122 50.1241C89.9244 50.1242 89.9364 50.1268 89.9475 50.1317C89.9586 50.1366 89.9685 50.1437 89.9768 50.1526C89.985 50.1614 89.9913 50.1719 89.9952 50.1832C89.9992 50.1946 90.0008 50.2067 89.9998 50.2187L89.8995 51.6059C89.8986 51.6179 89.8948 51.6294 89.8885 51.6396C89.8821 51.6498 89.8734 51.6582 89.863 51.6643C89.8527 51.6703 89.841 51.6737 89.8291 51.6743C89.8171 51.6748 89.8052 51.6724 89.7944 51.6674C89.4932 51.525 89.1627 51.4493 88.8031 51.4402C87.5748 51.411 86.7916 51.4045 86.4534 51.4207C85.7932 51.4529 85.7347 51.9277 85.5751 52.5516C85.2998 53.6266 85.1164 54.3831 85.0249 54.8212C84.9275 55.2823 85.2527 55.3583 85.6286 55.3612C86.6851 55.3681 87.9014 55.487 88.8527 55.1078C88.8653 55.1029 88.879 55.1017 88.8922 55.1045C88.9054 55.1072 88.9175 55.1137 88.9271 55.1231C88.9366 55.1325 88.9431 55.1445 88.9458 55.1575C88.9485 55.1706 88.9473 55.1841 88.9423 55.1965L88.3824 56.6335C88.3714 56.6614 88.3506 56.6757 88.3201 56.6764C86.5991 56.6835 84.8804 56.6865 83.164 56.6852Z" fill="white"/>
<path d="M44.58 59.3773L44.9743 57.8253C44.9798 57.8041 44.9921 57.7853 45.0094 57.7719C45.0266 57.7585 45.0479 57.7512 45.0698 57.7512L48.0748 57.7541C48.0898 57.754 48.1046 57.7573 48.1181 57.7638C48.1316 57.7702 48.1435 57.7797 48.1528 57.7915C48.1621 57.8032 48.1686 57.817 48.1718 57.8316C48.175 57.8463 48.1748 57.8614 48.1712 57.876L47.7905 59.4358C47.7852 59.4574 47.7728 59.4765 47.7553 59.4902C47.7378 59.5038 47.7162 59.5111 47.6941 59.5109L44.6744 59.4992C44.6596 59.499 44.645 59.4955 44.6318 59.4889C44.6185 59.4823 44.6069 59.4728 44.5978 59.4611C44.5887 59.4494 44.5824 59.4358 44.5793 59.4213C44.5762 59.4068 44.5764 59.3918 44.58 59.3773Z" fill="white"/>
<path d="M53.0793 60.0921L55.4388 60.0931C55.5374 60.0931 55.5748 60.1409 55.5508 60.2364L55.2947 61.2561C55.2838 61.2996 55.2588 61.3381 55.2237 61.3657C55.1886 61.3932 55.1454 61.4082 55.1009 61.4082H52.756C52.734 61.4082 52.7127 61.4155 52.6954 61.4289C52.6781 61.4423 52.6658 61.4611 52.6606 61.4823L51.7774 65.0885C51.7704 65.1171 51.7697 65.1469 51.7754 65.1757C51.7811 65.2046 51.793 65.2319 51.8104 65.2557C51.8277 65.2795 51.8501 65.2992 51.8758 65.3134C51.9016 65.3276 51.9302 65.336 51.9595 65.338C52.9294 65.4024 53.7045 65.379 54.6432 65.1635C54.65 65.162 54.6571 65.1624 54.6638 65.1646C54.6704 65.1668 54.6763 65.1708 54.6809 65.1761C54.6855 65.1814 54.6885 65.1878 54.6898 65.1947C54.691 65.2015 54.6904 65.2086 54.688 65.2152L54.1515 66.6259C54.1411 66.6525 54.1216 66.6658 54.093 66.6658C52.026 66.6814 50.6073 66.6818 49.8367 66.6668C48.5241 66.6405 48.3653 65.6237 48.6195 64.602C48.8798 63.5556 49.1349 62.5086 49.3849 61.4609C49.3933 61.4258 49.3797 61.4082 49.344 61.4082H48.0966C48.0862 61.4082 48.076 61.4059 48.0667 61.4013C48.0573 61.3968 48.0492 61.3902 48.0428 61.382C48.0364 61.3738 48.032 61.3643 48.0298 61.3541C48.0277 61.344 48.0278 61.3335 48.0304 61.3234L48.3069 60.2257C48.3163 60.1875 48.3382 60.1536 48.3691 60.1294C48.4 60.1052 48.4381 60.0921 48.4773 60.0921H49.6653C49.7004 60.0921 49.7221 60.0752 49.7306 60.0414L50.0334 58.8462C50.0391 58.8243 50.0517 58.8049 50.0692 58.7908C50.0868 58.7767 50.1084 58.7688 50.1308 58.7682L53.2682 58.6902C53.2781 58.6899 53.2878 58.6919 53.2968 58.6961C53.3057 58.7002 53.3136 58.7064 53.3198 58.7141C53.326 58.7218 53.3303 58.7309 53.3326 58.7406C53.3348 58.7503 53.3347 58.7604 53.3325 58.7702L53.0277 60.0258C53.0258 60.0337 53.0257 60.0419 53.0274 60.0498C53.0291 60.0577 53.0326 60.0651 53.0375 60.0715C53.0425 60.0778 53.0488 60.083 53.0561 60.0866C53.0633 60.0902 53.0713 60.092 53.0793 60.0921Z" fill="white"/>
<path d="M36.1532 66.6816C33.8425 66.6875 34.826 64.2103 35.1308 63.015C35.4804 61.6414 35.6722 60.6597 36.9615 60.2424C37.2633 60.1449 37.8044 60.0952 38.5847 60.0933C40.0253 60.0894 41.4651 60.0897 42.9044 60.0942C42.9433 60.0949 42.9615 60.1147 42.9589 60.1537L42.8576 61.6443C42.855 61.6872 42.8342 61.6996 42.7953 61.6814C41.8819 61.2495 40.6959 61.4065 39.4894 61.4162C38.9314 61.4211 38.76 61.6989 38.6237 62.2195C38.4484 62.8922 38.241 63.7426 38.0014 64.7708C37.8904 65.2485 38.1602 65.345 38.5692 65.3606C39.2326 65.3873 39.8964 65.3922 40.5605 65.3753C41.0039 65.3642 41.4298 65.2657 41.8381 65.0799C41.8493 65.0746 41.8618 65.0729 41.874 65.0749C41.8862 65.0769 41.8975 65.0825 41.9064 65.091C41.9154 65.0996 41.9215 65.1106 41.9241 65.1227C41.9267 65.1348 41.9256 65.1474 41.9209 65.1588L41.3619 66.5715C41.3504 66.6005 41.3305 66.6254 41.3048 66.643C41.2791 66.6605 41.2488 66.6699 41.2178 66.6699C39.5403 66.6738 37.8521 66.6777 36.1532 66.6816Z" fill="white"/>
<path d="M42.5131 66.6728C42.5027 66.6729 42.4925 66.6701 42.4837 66.6646C42.4748 66.6591 42.4677 66.6511 42.4632 66.6417C42.4586 66.6322 42.4567 66.6216 42.4578 66.6111C42.4589 66.6006 42.4629 66.5906 42.4693 66.5822C42.776 66.1825 42.9484 65.7906 43.0837 65.2661C43.4252 63.9467 43.7491 62.6234 44.0555 61.2963C44.1471 60.9014 44.1286 60.5505 44.0439 60.1781C44.0415 60.1677 44.0416 60.1569 44.0439 60.1465C44.0463 60.1361 44.051 60.1264 44.0576 60.1181C44.0643 60.1098 44.0727 60.103 44.0823 60.0984C44.0919 60.0938 44.1024 60.0913 44.113 60.0913L47.4949 60.0942C47.5975 60.0942 47.6364 60.1443 47.6117 60.2444C47.1878 61.9498 46.7613 63.6832 46.3322 65.4445C46.2465 65.7961 46.2488 66.16 46.339 66.5363C46.343 66.5526 46.3433 66.5695 46.3397 66.5859C46.3362 66.6022 46.329 66.6176 46.3187 66.6307C46.3084 66.6439 46.2952 66.6545 46.2802 66.6618C46.2651 66.6691 46.2486 66.6729 46.2319 66.6728H42.5131Z" fill="white"/>
<path d="M60.4251 66.2624C60.1563 66.6114 59.87 66.6699 59.4143 66.6728C58.4224 66.6787 57.608 66.6754 56.9711 66.6631C55.4871 66.6348 55.3664 65.3538 55.6565 64.1927C55.8987 63.2243 56.1301 62.2533 56.3508 61.2797C56.4346 60.9083 56.4317 60.5661 56.3353 60.2229C56.3106 60.1365 56.3434 60.0933 56.4336 60.0933L59.7882 60.0952C59.8058 60.0952 59.8231 60.0991 59.839 60.1068C59.8548 60.1144 59.8686 60.1256 59.8795 60.1394C59.8904 60.1532 59.898 60.1693 59.9018 60.1864C59.9055 60.2036 59.9053 60.2214 59.9012 60.2385C59.5383 61.7516 59.1692 63.2789 58.794 64.8205C58.6781 65.2943 58.9128 65.3557 59.313 65.3567C59.7019 65.358 60.0781 65.3577 60.4416 65.3557C60.518 65.3551 60.592 65.3294 60.6524 65.2825C60.7127 65.2357 60.756 65.1703 60.7756 65.0964C61.134 63.7303 61.4767 62.3638 61.8039 60.997C61.8714 60.7156 61.8701 60.4657 61.8 60.2473C61.7676 60.1466 61.8043 60.0962 61.9101 60.0962L65.1663 60.0923C65.2572 60.0923 65.292 60.1368 65.2705 60.2258C64.7006 62.5688 64.1166 64.9369 63.5187 67.3299C63.139 68.8527 62.2061 69.1627 60.7747 69.1608C58.857 69.1582 56.9351 69.1578 55.009 69.1598C54.9918 69.1597 54.9748 69.1561 54.9591 69.1491C54.9434 69.1422 54.9293 69.132 54.9178 69.1194C54.9062 69.1067 54.8975 69.0918 54.8921 69.0756C54.8866 69.0594 54.8847 69.0423 54.8863 69.0253L55.0217 67.6234C55.0268 67.5642 55.0567 67.547 55.1112 67.5717C55.5046 67.7511 55.7903 67.8411 55.9681 67.8417C57.1944 67.8443 58.4198 67.8427 59.6441 67.8369C59.983 67.8349 60.1446 67.6838 60.2313 67.3514C60.3228 66.9971 60.4085 66.6439 60.4884 66.2916C60.4905 66.2837 60.4898 66.2754 60.4863 66.268C60.4829 66.2607 60.4769 66.2548 60.4694 66.2513C60.462 66.2479 60.4535 66.2471 60.4454 66.2491C60.4373 66.2511 60.4301 66.2558 60.4251 66.2624Z" fill="white"/>
</svg>
