<svg width="100" height="100" viewBox="0 0 100 100" fill="none" xmlns="http://www.w3.org/2000/svg">
<rect width="100" height="100" fill="#E62D34"/>
<path d="M11.777 42.5677C12.7585 42.5677 13.5541 41.7721 13.5541 40.7907C13.5541 39.8093 12.7585 39.0137 11.777 39.0137C10.7956 39.0137 10 39.8093 10 40.7907C10 41.7721 10.7956 42.5677 11.777 42.5677Z" fill="#131313"/>
<path d="M38.0043 54.2439C32.7969 57.7044 26.4219 52.5302 28.8174 46.7194C30.1177 43.5696 34.1274 42.2934 37.2108 43.7808C37.2384 43.7941 37.2691 43.8001 37.2997 43.798C37.3303 43.796 37.3598 43.7861 37.3851 43.7693C37.4105 43.7525 37.4309 43.7293 37.4442 43.7022C37.4576 43.6751 37.4634 43.645 37.4612 43.6149C37.4009 42.5589 37.2259 40.7034 37.6513 39.8345C38.3814 38.3381 40.5748 38.9626 40.5778 40.8452C40.5838 43.2689 40.5869 45.6906 40.5869 48.1103C40.5869 50.7713 40.1433 52.8229 38.0043 54.2439ZM37.3948 49.2386C37.3948 48.4577 37.0846 47.7087 36.5324 47.1565C35.9801 46.6042 35.2312 46.294 34.4502 46.294C33.6692 46.294 32.9203 46.6042 32.368 47.1565C31.8158 47.7087 31.5056 48.4577 31.5056 49.2386C31.5056 49.6253 31.5817 50.0082 31.7297 50.3655C31.8777 50.7228 32.0946 51.0474 32.368 51.3208C32.9203 51.873 33.6692 52.1833 34.4502 52.1833C34.8369 52.1833 35.2198 52.1071 35.5771 51.9591C35.9343 51.8111 36.2589 51.5942 36.5324 51.3208C36.8058 51.0474 37.0227 50.7228 37.1707 50.3655C37.3187 50.0082 37.3948 49.6253 37.3948 49.2386Z" fill="#131313"/>
<path d="M83.0452 46.3212C80.4868 46.0979 80.7915 42.9844 83.0965 43.096C83.2152 43.102 83.2695 43.0467 83.2594 42.9301C83.1609 41.7373 83.175 40.8242 83.3017 40.1906C83.5641 38.8872 85.5433 38.7303 86.1799 39.7953C86.6295 40.5436 86.4213 41.9676 86.4484 42.9361C86.4525 43.0507 86.5118 43.1071 86.6264 43.105C87.4229 43.093 88.856 42.915 89.3629 43.7205C90.5969 45.6756 88.313 46.6259 86.7381 46.288C86.7031 46.2809 86.667 46.2816 86.6323 46.2901C86.5976 46.2986 86.5653 46.3147 86.5376 46.3372C86.5099 46.3597 86.4875 46.3881 86.4721 46.4202C86.4567 46.4524 86.4486 46.4877 86.4484 46.5233C86.4364 47.6557 86.4364 48.8052 86.4484 49.9718C86.4635 51.5407 86.7894 52.2376 88.4789 52.1381C90.3374 52.0294 90.799 55.4085 88.1078 55.3421C82.6228 55.2064 83.187 50.5843 83.2232 46.5173C83.2252 46.3966 83.1659 46.3313 83.0452 46.3212Z" fill="white"/>
<path d="M11.8255 43.1292H11.7289C10.8825 43.1292 10.1963 43.8153 10.1963 44.6618V53.7914C10.1963 54.6378 10.8825 55.324 11.7289 55.324H11.8255C12.672 55.324 13.3581 54.6378 13.3581 53.7914V44.6618C13.3581 43.8153 12.672 43.1292 11.8255 43.1292Z" fill="#131313"/>
<path d="M26.8774 54.7024C26.111 55.8518 24.1258 55.4445 24.0625 53.7912C24.0052 52.3008 24.2707 49.682 23.7668 48.3636C23.1061 46.6438 21.1028 45.6905 19.4826 46.7404C17.3647 48.1101 17.8776 51.2539 17.8806 53.4171C17.8806 55.9725 14.7549 55.9363 14.7157 53.6645C14.6795 51.5043 14.3567 48.3062 15.8048 46.0284C18.3512 42.0338 23.9961 42.2118 26.3283 46.3602C27.4355 48.3304 27.2605 50.4302 27.2364 52.9555C27.2284 53.7761 27.1087 54.3584 26.8774 54.7024Z" fill="#131313"/>
<path d="M53.9824 49.2385C53.9824 50.8645 53.3365 52.4238 52.1868 53.5735C51.0371 54.7233 49.4778 55.3692 47.8518 55.3692C46.2259 55.3692 44.6665 54.7233 43.5168 53.5735C42.3671 52.4238 41.7212 50.8645 41.7212 49.2385C41.7212 47.6126 42.3671 46.0532 43.5168 44.9035C44.6665 43.7538 46.2259 43.1079 47.8518 43.1079C49.4778 43.1079 51.0371 43.7538 52.1868 44.9035C53.3365 46.0532 53.9824 47.6126 53.9824 49.2385ZM50.8055 49.2385C50.8055 48.456 50.4946 47.7055 49.9413 47.1521C49.3879 46.5987 48.6374 46.2879 47.8548 46.2879C47.0723 46.2879 46.3218 46.5987 45.7684 47.1521C45.215 47.7055 44.9042 48.456 44.9042 49.2385C44.9042 49.626 44.9805 50.0097 45.1288 50.3677C45.2771 50.7257 45.4944 51.051 45.7684 51.325C46.3218 51.8783 47.0723 52.1892 47.8548 52.1892C48.2423 52.1892 48.626 52.1129 48.984 51.9646C49.342 51.8163 49.6673 51.599 49.9413 51.325C50.2153 51.051 50.4326 50.7257 50.5809 50.3677C50.7292 50.0097 50.8055 49.626 50.8055 49.2385Z" fill="#131313"/>
<path d="M58.1155 54.6811C57.4457 55.734 55.4333 55.5077 55.3096 54.0022C54.9536 49.6999 55.0411 45.4067 59.2197 43.6206C62.7406 42.1181 66.4998 44.3206 67.4713 47.8294C67.779 48.9336 68.0777 53.7609 67.3989 54.7444C66.4184 56.1624 64.593 55.1487 64.578 53.4501C64.5568 51.2054 65.1512 48.0768 62.8824 46.6829C61.2773 45.6933 59.3162 46.7251 58.6977 48.3875C58.0189 50.2128 59.0749 53.1665 58.1155 54.6811Z" fill="white"/>
<path d="M72.4737 50.4965C72.4437 50.4967 72.4143 50.5053 72.3889 50.5212C72.3635 50.5371 72.3429 50.5597 72.3295 50.5865C72.316 50.6133 72.3103 50.6434 72.3129 50.6733C72.3154 50.7032 72.3262 50.7318 72.344 50.7559C73.6976 52.6064 75.36 52.9242 77.3311 51.7093C77.4196 51.655 77.5172 51.6278 77.6238 51.6278H80.1068C80.1908 51.6276 80.2733 51.6503 80.3454 51.6935C80.4175 51.7366 80.4764 51.7987 80.5158 51.8728C80.5552 51.947 80.5737 52.0306 80.5691 52.1145C80.5646 52.1984 80.5372 52.2794 80.49 52.3489C76.7277 57.9033 68.105 54.9255 69.1218 48.3574C70.2592 40.9958 81.021 41.5841 81.3951 49.2052C81.4192 49.6939 81.2221 50.0972 80.8037 50.415C80.7313 50.4693 80.6499 50.4965 80.5594 50.4965H72.4737ZM78.1699 47.8475C76.9027 45.2679 73.8796 45.639 72.3259 47.6906C72.3031 47.7197 72.2891 47.7547 72.2853 47.7914C72.2816 47.8282 72.2883 47.8652 72.3047 47.8983C72.3211 47.9314 72.3465 47.9592 72.378 47.9785C72.4095 47.9978 72.4458 48.0078 72.4827 48.0074H78.0703C78.0891 48.0072 78.1075 48.0023 78.1239 47.9931C78.1403 47.9839 78.154 47.9707 78.164 47.9548C78.1739 47.9388 78.1796 47.9206 78.1807 47.9019C78.1817 47.8831 78.178 47.8644 78.1699 47.8475Z" fill="white"/>
</svg>
