<svg width="100" height="100" viewBox="0 0 100 100" fill="none" xmlns="http://www.w3.org/2000/svg">
<rect width="100" height="100" fill="#595C62"/>
<path d="M19.8467 58V40.8203H32.585V43.7266H23.3155V47.5352H31.9405V50.4297H23.3155V55.1055H32.9131V58H19.8467ZM36.2028 40.8203H42.5427C43.9723 40.8203 45.0622 40.9297 45.8122 41.1484C46.82 41.4453 47.6833 41.9727 48.402 42.7305C49.1208 43.4883 49.6677 44.418 50.0427 45.5195C50.4177 46.6133 50.6052 47.9648 50.6052 49.5742C50.6052 50.9883 50.4294 52.207 50.0778 53.2305C49.6481 54.4805 49.0348 55.4922 48.238 56.2656C47.6364 56.8516 46.8239 57.3086 45.8005 57.6367C45.0348 57.8789 44.0114 58 42.7302 58H36.2028V40.8203ZM39.6716 43.7266V55.1055H42.2614C43.2302 55.1055 43.9294 55.0508 44.3591 54.9414C44.9216 54.8008 45.3864 54.5625 45.7536 54.2266C46.1286 53.8906 46.4333 53.3398 46.6677 52.5742C46.902 51.8008 47.0192 50.75 47.0192 49.4219C47.0192 48.0938 46.902 47.0742 46.6677 46.3633C46.4333 45.6523 46.1052 45.0977 45.6833 44.6992C45.2614 44.3008 44.7262 44.0312 44.0778 43.8906C43.5934 43.7812 42.6442 43.7266 41.2302 43.7266H39.6716ZM60.1175 40.8203H63.5745V51.6953C63.5745 53.1172 63.4495 54.2109 63.1995 54.9766C62.8636 55.9766 62.2542 56.7812 61.3714 57.3906C60.4886 57.9922 59.3245 58.293 57.8792 58.293C56.1839 58.293 54.8792 57.8203 53.9652 56.875C53.0511 55.9219 52.5902 54.5273 52.5823 52.6914L55.8519 52.3164C55.8909 53.3008 56.0355 53.9961 56.2855 54.4023C56.6605 55.0195 57.2308 55.3281 57.9964 55.3281C58.7698 55.3281 59.3167 55.1094 59.637 54.6719C59.9573 54.2266 60.1175 53.3086 60.1175 51.918V40.8203ZM66.7588 52.4102L70.1338 52.082C70.3369 53.2148 70.747 54.0469 71.3642 54.5781C71.9892 55.1094 72.8291 55.375 73.8838 55.375C75.0009 55.375 75.8408 55.1406 76.4033 54.6719C76.9736 54.1953 77.2588 53.6406 77.2588 53.0078C77.2588 52.6016 77.1377 52.2578 76.8955 51.9766C76.6611 51.6875 76.247 51.4375 75.6533 51.2266C75.247 51.0859 74.3213 50.8359 72.8759 50.4766C71.0166 50.0156 69.7119 49.4492 68.9619 48.7773C67.9072 47.832 67.3798 46.6797 67.3798 45.3203C67.3798 44.4453 67.6259 43.6289 68.1181 42.8711C68.6181 42.1055 69.333 41.5234 70.2627 41.125C71.2002 40.7266 72.3291 40.5273 73.6494 40.5273C75.8056 40.5273 77.4267 41 78.5127 41.9453C79.6064 42.8906 80.1806 44.1523 80.2353 45.7305L76.7666 45.8828C76.6181 45 76.2978 44.3672 75.8056 43.9844C75.3213 43.5938 74.5908 43.3984 73.6142 43.3984C72.6064 43.3984 71.8173 43.6055 71.247 44.0195C70.8798 44.2852 70.6963 44.6406 70.6963 45.0859C70.6963 45.4922 70.8681 45.8398 71.2119 46.1289C71.6494 46.4961 72.7119 46.8789 74.3994 47.2773C76.0869 47.6758 77.333 48.0898 78.1377 48.5195C78.9502 48.9414 79.583 49.5234 80.0361 50.2656C80.497 51 80.7275 51.9102 80.7275 52.9961C80.7275 53.9805 80.4541 54.9023 79.9072 55.7617C79.3603 56.6211 78.5869 57.2617 77.5869 57.6836C76.5869 58.0977 75.3408 58.3047 73.8486 58.3047C71.6767 58.3047 70.0088 57.8047 68.8447 56.8047C67.6806 55.7969 66.9853 54.332 66.7588 52.4102Z" fill="#F8F8F8"/>
</svg>
