<svg width="100" height="100" viewBox="0 0 100 100" fill="none" xmlns="http://www.w3.org/2000/svg">
<rect width="100" height="100" fill="#C91216"/>
<path d="M35.5515 18.3386C55.6215 8.93363 79.0139 20.2661 84.6464 41.4687C84.7114 41.7037 84.6214 41.8212 84.3764 41.8212H73.1639C72.9339 41.8212 72.7739 41.7162 72.6839 41.5062C63.624 21.5036 37.2765 21.4061 28.2165 41.5137C28.1265 41.7187 27.969 41.8212 27.744 41.8212H16.6891C16.0791 41.8212 15.8741 41.5337 16.0741 40.9587C19.8391 30.1987 26.3316 22.6586 35.5515 18.3386Z" fill="#F2F2F2"/>
<path d="M28.2018 59.3713C37.2017 79.4488 63.5492 79.4038 72.6692 59.4013C72.7692 59.1813 72.9417 59.0713 73.1867 59.0713H84.3766C84.6766 59.0713 84.7816 59.2138 84.6916 59.4988C74.1767 94.5463 26.9568 94.6738 16.1718 59.5588C16.0718 59.2338 16.1918 59.0713 16.5318 59.0713H27.7443C27.9593 59.0713 28.1118 59.1713 28.2018 59.3713Z" fill="#F2F2F2"/>
</svg>
