<svg width="100" height="100" viewBox="0 0 100 100" fill="none" xmlns="http://www.w3.org/2000/svg">
<rect width="100" height="100" fill="#5B5B5D"/>
<path d="M28.8406 36.3503H25.6883C25.5608 36.3503 25.4575 36.4537 25.4575 36.5811V58.6241C25.4575 58.7516 25.5608 58.8549 25.6883 58.8549H28.8406C28.9681 58.8549 29.0714 58.7516 29.0714 58.6241V36.5811C29.0714 36.4537 28.9681 36.3503 28.8406 36.3503Z" fill="white"/>
<path d="M34.9384 44.7072C36.1991 44.7512 37.2543 43.8349 37.2953 42.6605C37.3363 41.4862 36.3476 40.4985 35.0869 40.4545C33.8262 40.4104 32.771 41.3268 32.7299 42.5011C32.6889 43.6755 33.6777 44.6631 34.9384 44.7072Z" fill="white"/>
<path d="M41.9785 47.5911H39.4402C39.3098 47.5911 39.2446 47.526 39.2446 47.3956V44.7439C39.2446 44.7165 39.2501 44.6894 39.2608 44.6642C39.2715 44.639 39.2872 44.6162 39.3069 44.5972C39.3267 44.5782 39.35 44.5634 39.3756 44.5537C39.4012 44.5439 39.4285 44.5394 39.4558 44.5405L41.9394 44.6109C41.9703 44.6119 42.0012 44.6067 42.0301 44.5956C42.059 44.5845 42.0854 44.5677 42.1076 44.5461C42.1299 44.5246 42.1476 44.4988 42.1597 44.4703C42.1718 44.4418 42.178 44.4111 42.178 44.3801V40.7467C42.178 40.5511 42.2757 40.4534 42.4713 40.4534H45.6002C45.652 40.4534 45.7018 40.474 45.7385 40.5106C45.7751 40.5473 45.7957 40.5971 45.7957 40.6489V44.3254C45.7957 44.4949 45.8805 44.5796 46.05 44.5796L49.4565 44.5522C49.6234 44.5496 49.7069 44.6317 49.7069 44.7986V47.3487C49.7069 47.5103 49.626 47.5911 49.4644 47.5911H46.0109C45.8831 47.5911 45.8179 47.655 45.8153 47.7828C45.7762 49.8244 45.7749 51.8517 45.8114 53.8646C45.8544 56.3207 47.501 56.6141 49.4957 55.8553C49.6365 55.8032 49.7069 55.8514 49.7069 56V58.6166C49.7069 58.7365 49.6495 58.8134 49.5348 58.8473C48.278 59.2176 47.0251 59.3232 45.7762 59.1641C42.4009 58.7339 42.3031 56.5319 42.2053 53.7824C42.1349 51.806 42.1375 49.8244 42.2132 47.8375C42.221 47.6733 42.1428 47.5911 41.9785 47.5911Z" fill="white"/>
<path d="M7.99116 52.9493C7.90195 52.9493 7.8164 52.9139 7.75332 52.8508C7.69024 52.7877 7.6548 52.7021 7.6548 52.6129L7.65089 51.2284C7.64933 50.3142 7.82573 49.4086 8.17004 48.5633C8.51434 47.7181 9.01979 46.9497 9.65754 46.3022C10.2953 45.6546 11.0528 45.1405 11.8869 44.7893C12.721 44.438 13.6153 44.2564 14.5188 44.2549H15.1759C17.0004 44.2518 18.7515 44.9823 20.0439 46.2857C21.3363 47.5891 22.0641 49.3586 22.0672 51.2049L22.0712 52.5895C22.0712 52.6336 22.0625 52.6774 22.0456 52.7182C22.0286 52.759 22.0039 52.7961 21.9726 52.8273C21.9414 52.8585 21.9043 52.8833 21.8635 52.9002C21.8227 52.9171 21.779 52.9258 21.7348 52.9258L7.99116 52.9493ZM11.3039 50.2428L18.3908 50.2193C18.4074 50.2193 18.4233 50.2127 18.4351 50.201C18.4468 50.1893 18.4534 50.1734 18.4534 50.1568V50.1216C18.4504 49.2643 18.0912 48.4433 17.4546 47.839C16.8181 47.2347 15.9562 46.8965 15.0585 46.8988H14.6205C14.1754 46.8999 13.7349 46.9848 13.3241 47.1486C12.9134 47.3124 12.5404 47.5518 12.2266 47.8533C11.9128 48.1548 11.6642 48.5124 11.4951 48.9056C11.3261 49.2988 11.2398 49.72 11.2413 50.145V50.1802C11.2413 50.1968 11.2479 50.2127 11.2596 50.2245C11.2714 50.2362 11.2873 50.2428 11.3039 50.2428Z" fill="white"/>
<path d="M55.4285 53.1681C56.1481 56.9423 60.7006 57.2983 62.8674 54.6387C62.9211 54.5725 62.9985 54.5297 63.0832 54.5195C63.1678 54.5093 63.2531 54.5324 63.3211 54.5839L65.5661 56.2774C65.6808 56.3661 65.6873 56.4613 65.5856 56.563C62.9208 59.1912 59.9706 59.9044 56.7348 58.7023C48.1968 55.5226 51.6582 42.9484 60.5598 44.286C65.0107 44.9548 66.536 48.7603 66.3131 52.7927C66.3053 52.91 66.2427 52.9687 66.1253 52.9687H55.5927C55.5681 52.9688 55.5438 52.9744 55.5215 52.9849C55.4992 52.9955 55.4796 53.0109 55.4639 53.0299C55.4482 53.0489 55.4369 53.0712 55.4308 53.0951C55.4247 53.119 55.4239 53.1439 55.4285 53.1681ZM55.5223 50.3365L62.7422 50.313C62.7561 50.312 62.769 50.3058 62.7785 50.2956C62.7879 50.2855 62.7931 50.2721 62.7931 50.2583V50.227C62.7917 49.7903 62.6974 49.3582 62.5156 48.9554C62.3338 48.5526 62.068 48.187 61.7335 47.8793C61.399 47.5717 61.0023 47.3281 60.5661 47.1625C60.1298 46.997 59.6625 46.9126 59.191 46.9143H59.0423C58.0903 46.9176 57.1784 47.2709 56.5073 47.8966C55.8362 48.5222 55.4608 49.3689 55.4637 50.2504V50.2817C55.4636 50.2892 55.4652 50.2967 55.4682 50.3036C55.4712 50.3105 55.4755 50.3167 55.4811 50.3219C55.4866 50.327 55.4931 50.331 55.5002 50.3335C55.5073 50.336 55.5148 50.337 55.5223 50.3365Z" fill="white"/>
<path d="M73.3611 46.5939C74.8903 44.7869 76.1888 43.8209 78.6489 44.3919C78.7792 44.4232 78.8444 44.5053 78.8444 44.6383V47.6772C78.8444 47.8363 78.7675 47.8963 78.6137 47.8571C75.0467 46.9107 73.2359 48.8545 73.2633 52.1437C73.2815 54.3157 73.2815 56.4811 73.2633 58.6401C73.2633 58.7652 73.2007 58.8278 73.0755 58.8278L69.845 58.8552C69.7172 58.8552 69.6533 58.7913 69.6533 58.6635V44.7556C69.6533 44.7038 69.6739 44.654 69.7106 44.6174C69.7473 44.5807 69.797 44.5601 69.8489 44.5601H73.0286C73.0644 44.56 73.0998 44.5673 73.1326 44.5814C73.1655 44.5955 73.1951 44.6163 73.2197 44.6423C73.2442 44.6683 73.2632 44.6991 73.2754 44.7327C73.2876 44.7663 73.2928 44.8021 73.2907 44.8378L73.189 46.5235C73.1759 46.719 73.2333 46.7425 73.3611 46.5939Z" fill="white"/>
<path d="M88.7164 58.7691C85.4624 59.0155 82.1497 59.1016 82.0832 54.7211C82.0336 51.4201 81.9919 48.1439 81.958 44.8925C81.9575 44.849 81.9655 44.8059 81.9816 44.7656C81.9977 44.7253 82.0215 44.6886 82.0517 44.6576C82.0819 44.6267 82.1179 44.6022 82.1575 44.5854C82.1972 44.5687 82.2397 44.5601 82.2826 44.5601H85.3803C85.5158 44.5601 85.5849 44.6292 85.5875 44.7673C85.6032 47.6746 85.5954 50.5701 85.5641 53.4539C85.5328 56.1017 88.912 56.3364 88.9081 52.9494C88.9055 50.2194 88.9107 47.4908 88.9237 44.7634C88.9237 44.6279 88.9915 44.5601 89.1271 44.5601H92.2247C92.3018 44.5601 92.3758 44.5904 92.4307 44.6446C92.4856 44.6988 92.517 44.7724 92.518 44.8495C92.5467 49.5037 92.5558 54.1983 92.5454 58.9334C92.5298 64.3151 87.637 64.5615 83.237 64.229C83.1222 64.2212 83.0636 64.1586 83.061 64.0413L83.0258 61.4404C83.0232 61.284 83.1001 61.2031 83.2565 61.1979C85.04 61.1353 89.3813 62.1561 88.9159 58.9295C88.9002 58.8121 88.8338 58.7587 88.7164 58.7691Z" fill="white"/>
<path d="M36.5691 45.929H33.4168C33.2893 45.929 33.186 46.0323 33.186 46.1597V58.6205C33.186 58.748 33.2893 58.8513 33.4168 58.8513H36.5691C36.6966 58.8513 36.7999 58.748 36.7999 58.6205V46.1597C36.7999 46.0323 36.6966 45.929 36.5691 45.929Z" fill="white"/>
<path d="M17.409 56.4576C17.761 56.2464 17.9488 55.8709 18.2147 55.5541C18.2515 55.51 18.2975 55.4745 18.3496 55.4501C18.4016 55.4258 18.4584 55.4132 18.5159 55.4133H21.3553C21.3933 55.4135 21.4307 55.4231 21.4641 55.4412C21.4975 55.4594 21.5259 55.4854 21.5468 55.5172C21.5676 55.5489 21.5804 55.5853 21.5838 55.6231C21.5873 55.661 21.5813 55.6991 21.5665 55.734C19.0791 61.5812 9.46555 60.6816 7.73684 54.5372C7.72642 54.5026 7.72428 54.466 7.7306 54.4304C7.73692 54.3948 7.75151 54.3612 7.7732 54.3323C7.7949 54.3034 7.82308 54.2799 7.85549 54.2639C7.8879 54.2479 7.92362 54.2397 7.95977 54.24H10.9048C11.0769 54.24 11.1747 54.326 11.1982 54.4981C11.601 57.4667 15.34 57.6818 17.409 56.4576Z" fill="#50D769"/>
</svg>
