<svg width="100" height="100" viewBox="0 0 100 100" fill="none" xmlns="http://www.w3.org/2000/svg">
<rect width="100" height="100" fill="white"/>
<path d="M88.9542 39.6889L85.6803 40.5216L50.6885 49.9855C50.3687 50.0721 50.2087 49.9504 50.2084 49.6204L50.2065 47.2063C50.2062 46.9322 50.3381 46.7595 50.602 46.6882L77.7975 39.1954C77.8433 39.1834 77.8859 39.1613 77.9223 39.1307C77.9587 39.1002 77.988 39.0618 78.0083 39.0184C78.0285 38.9749 78.0392 38.9274 78.0395 38.879C78.0399 38.8307 78.0299 38.7826 78.0103 38.7383C69.0464 19.0679 44.7796 13.3535 29.1579 28.5358C28.9652 28.7238 28.7748 28.7214 28.5868 28.5286L26.5595 26.4894L22.2604 21.4745C31.019 13.5246 42.2554 9.03008 54.0294 10.1323C70.6243 11.6874 84.4252 23.6473 88.9542 39.6889Z" fill="#0368A6"/>
<path d="M22.26 21.4746L26.5591 26.4895C8.59495 45.2834 16.6758 74.5269 41.1726 82.1677C41.2759 82.2011 41.363 82.272 41.4167 82.3664C41.4703 82.4608 41.4866 82.5719 41.4624 82.6777L40.6882 85.793C40.2624 86.5447 40.0652 87.5678 40.0967 88.8624C24.4156 84.0929 14.7131 73.8888 10.9891 58.2502C7.84848 45.0708 12.6572 30.8111 22.26 21.4746Z" fill="#DA4240"/>
<path d="M88.9536 39.6885C90.6436 48.2695 90.5369 57.4688 87.2766 65.5817C79.7225 84.4203 59.7699 92.8972 40.0965 88.862C40.065 87.5674 40.2621 86.5443 40.688 85.7925C56.6924 88.6732 69.2643 84.5228 78.4036 73.3412C86.1557 63.8463 88.5224 52.4596 85.6797 40.5212L88.9536 39.6885Z" fill="#A7BB2E"/>
</svg>
