<svg width="100" height="100" viewBox="0 0 100 100" fill="none" xmlns="http://www.w3.org/2000/svg">
<rect width="100" height="100" fill="#961619"/>
<path d="M69.0986 45.3321C65.488 52.0702 60.8847 62.1113 55.4645 67.391C48.1115 74.5419 47.5053 51.3674 47.5141 49.2238C47.5139 49.1396 47.4855 49.0579 47.4334 48.9916C47.3814 48.9254 47.3087 48.8784 47.2269 48.8582C47.1451 48.838 47.0589 48.8457 46.982 48.8802C46.9052 48.9146 46.842 48.9737 46.8025 49.0482C44.2286 54.1697 27.7569 87.28 19.2268 80.5596C17.2853 79.031 18.0584 76.3692 18.7699 73.927C18.8871 73.5346 19.054 73.5112 19.2707 73.8567L20.1755 75.315C20.2917 75.5003 20.4457 75.6591 20.6273 75.7807C20.8089 75.9024 21.0141 75.9842 21.2291 76.0207C21.4442 76.0573 21.6643 76.0477 21.8749 75.9927C22.0855 75.9376 22.2818 75.8384 22.4508 75.7015C25.6017 73.1773 28.2576 70.1729 30.4187 66.6882C35.2387 58.8989 40.1612 49.6426 45.1861 38.9192C46.8143 35.4404 47.1042 32.0904 46.0558 28.8692C46.015 28.7445 45.9448 28.6319 45.8513 28.5415C45.7578 28.4511 45.644 28.3857 45.52 28.3509L43.842 27.8678C43.6312 27.8092 43.5668 27.6774 43.6488 27.4725C44.6854 24.9512 47.4614 19.5133 50.6415 20.7257C50.9016 20.8217 51.1152 21.0134 51.2389 21.2615C52.6972 24.1723 53.3736 27.1328 53.2682 30.1431C52.9754 38.5941 53.4234 46.9222 54.6123 55.1273C54.6393 55.3066 54.7198 55.474 54.8432 55.6072C54.9666 55.7404 55.127 55.8331 55.3033 55.8731C55.4795 55.9132 55.6633 55.8985 55.8301 55.8312C55.9969 55.7639 56.139 55.6471 56.2375 55.4963C61.0341 48.2399 67.1308 38.9807 69.7048 30.6526C71.3475 25.3026 72.5423 22.6847 76.1704 18.5734C76.9611 17.6831 77.2832 17.8296 77.1368 19.0126C75.9303 28.6174 75.0665 37.8503 74.5452 46.7114C74.3051 50.8637 74.5218 54.975 75.1953 59.0454C75.2206 59.1979 75.2828 59.3419 75.3765 59.4649C75.4701 59.5879 75.5924 59.6861 75.7327 59.7511C75.873 59.816 76.027 59.8457 76.1814 59.8375C76.3358 59.8294 76.4858 59.7836 76.6185 59.7042C78.7005 58.4656 77.8308 56.5065 78.3052 54.8462C78.8381 52.9838 79.2862 53.0014 79.6493 54.8989C80.4575 59.1508 79.8689 62.9664 77.8835 66.3456C74.3256 72.3808 71.2773 67.1011 70.592 63.2182C69.5437 57.2855 69.2509 51.382 69.7135 45.5078C69.721 45.4321 69.7016 45.3562 69.6588 45.2932C69.6161 45.2303 69.5525 45.1844 69.4794 45.1635C69.4062 45.1426 69.328 45.148 69.2584 45.1788C69.1889 45.2096 69.1323 45.2639 69.0986 45.3321Z" fill="white"/>
</svg>
