<svg width="100" height="100" viewBox="0 0 100 100" fill="none" xmlns="http://www.w3.org/2000/svg">
<g clip-path="url(#clip0_51_66)">
<rect width="100" height="100" fill="#BC9633"/>
<g clip-path="url(#clip1_51_66)">
<circle cx="1.03627" cy="1.03627" r="1.03627" transform="matrix(-1 0 0 1 53.541 49.1226)" fill="white"/>
<circle cx="1.20898" cy="1.20898" r="1.20898" transform="matrix(-1 0 0 1 53.7139 53.9583)" fill="white"/>
<circle cx="1.20898" cy="1.20898" r="1.20898" transform="matrix(-1 0 0 1 48.7046 53.9583)" fill="white"/>
<circle cx="1.20898" cy="1.20898" r="1.20898" transform="matrix(-1 0 0 1 48.7046 48.95)" fill="white"/>
<circle cx="1.38169" cy="1.38169" r="1.38169" transform="matrix(-1 0 0 1 53.8857 59.1399)" fill="white"/>
<circle cx="1.38169" cy="1.38169" r="1.38169" transform="matrix(-1 0 0 1 48.8774 59.1399)" fill="white"/>
<circle cx="1.38169" cy="1.38169" r="1.38169" transform="matrix(-1 0 0 1 43.5229 59.1399)" fill="white"/>
<circle cx="1.38169" cy="1.38169" r="1.38169" transform="matrix(-1 0 0 1 43.5229 53.7859)" fill="white"/>
<circle cx="1.38169" cy="1.38169" r="1.38169" transform="matrix(-1 0 0 1 43.5229 48.7771)" fill="white"/>
<circle cx="1.5544" cy="1.5544" r="1.5544" transform="matrix(-1 0 0 1 54.0591 64.6667)" fill="white"/>
<circle cx="1.72712" cy="1.72712" r="1.72712" transform="matrix(-1 0 0 1 54.2314 70.5391)" fill="white"/>
<circle cx="1.72712" cy="1.72712" r="1.72712" transform="matrix(-1 0 0 1 54.2314 70.5391)" fill="white"/>
<circle cx="1.89983" cy="1.89983" r="1.89983" transform="matrix(-1 0 0 1 54.4043 76.7566)" fill="white"/>
<circle cx="2.07254" cy="2.07254" r="2.07254" transform="matrix(-1 0 0 1 54.5767 83.3198)" fill="white"/>
<circle cx="2.24525" cy="2.24525" r="2.24525" transform="matrix(-1 0 0 1 54.75 90.228)" fill="white"/>
<circle cx="2.59067" cy="2.59067" r="2.59067" transform="matrix(-1 0 0 1 55.0952 97.1365)" fill="white"/>
<circle cx="2.59067" cy="2.59067" r="2.59067" transform="matrix(-1 0 0 1 50.0864 97.1365)" fill="white"/>
<circle cx="2.59067" cy="2.59067" r="2.59067" transform="matrix(-1 0 0 1 44.7319 97.1365)" fill="white"/>
<circle cx="2.59067" cy="2.59067" r="2.59067" transform="matrix(-1 0 0 1 39.0332 97.1365)" fill="white"/>
<circle cx="2.59067" cy="2.59067" r="2.59067" transform="matrix(-1 0 0 1 32.9878 97.1365)" fill="white"/>
<circle cx="2.59067" cy="2.59067" r="2.59067" transform="matrix(-1 0 0 1 26.5972 97.1365)" fill="white"/>
<circle cx="2.59067" cy="2.59067" r="2.59067" transform="matrix(-1 0 0 1 19.8618 97.1365)" fill="white"/>
<circle cx="2.59067" cy="2.59067" r="2.59067" transform="matrix(-1 0 0 1 12.7808 97.1365)" fill="white"/>
<circle cx="2.59067" cy="2.59067" r="2.59067" transform="matrix(-1 0 0 1 5.18115 47.5679)" fill="white"/>
<circle cx="2.59067" cy="2.59067" r="2.59067" transform="matrix(-1 0 0 1 5.18115 52.5771)" fill="white"/>
<circle cx="2.59067" cy="2.59067" r="2.59067" transform="matrix(-1 0 0 1 5.18115 57.9309)" fill="white"/>
<circle cx="2.59067" cy="2.59067" r="2.59067" transform="matrix(-1 0 0 1 5.18115 63.6301)" fill="white"/>
<circle cx="2.59067" cy="2.59067" r="2.59067" transform="matrix(-1 0 0 1 5.18115 69.6748)" fill="white"/>
<circle cx="2.59067" cy="2.59067" r="2.59067" transform="matrix(-1 0 0 1 5.18115 76.0652)" fill="white"/>
<circle cx="2.59067" cy="2.59067" r="2.59067" transform="matrix(-1 0 0 1 5.18115 82.8013)" fill="white"/>
<circle cx="2.59067" cy="2.59067" r="2.59067" transform="matrix(-1 0 0 1 5.18115 89.8826)" fill="white"/>
<circle cx="2.59067" cy="2.59067" r="2.59067" transform="matrix(-1 0 0 1 5.18115 97.1365)" fill="white"/>
<circle cx="2.24525" cy="2.24525" r="2.24525" transform="matrix(-1 0 0 1 49.7412 90.228)" fill="white"/>
<circle cx="2.24525" cy="2.24525" r="2.24525" transform="matrix(-1 0 0 1 44.3877 90.228)" fill="white"/>
<circle cx="2.24525" cy="2.24525" r="2.24525" transform="matrix(-1 0 0 1 38.687 90.228)" fill="white"/>
<circle cx="2.24525" cy="2.24525" r="2.24525" transform="matrix(-1 0 0 1 32.6426 90.228)" fill="white"/>
<circle cx="2.24525" cy="2.24525" r="2.24525" transform="matrix(-1 0 0 1 26.2529 90.228)" fill="white"/>
<circle cx="2.24525" cy="2.24525" r="2.24525" transform="matrix(-1 0 0 1 19.5161 90.228)" fill="white"/>
<circle cx="2.24525" cy="2.24525" r="2.24525" transform="matrix(-1 0 0 1 12.436 47.741)" fill="white"/>
<circle cx="2.24525" cy="2.24525" r="2.24525" transform="matrix(-1 0 0 1 12.436 52.9221)" fill="white"/>
<circle cx="2.24525" cy="2.24525" r="2.24525" transform="matrix(-1 0 0 1 12.436 58.2764)" fill="white"/>
<circle cx="2.24525" cy="2.24525" r="2.24525" transform="matrix(-1 0 0 1 12.436 63.9758)" fill="white"/>
<circle cx="2.24525" cy="2.24525" r="2.24525" transform="matrix(-1 0 0 1 12.436 70.0205)" fill="white"/>
<circle cx="2.24525" cy="2.24525" r="2.24525" transform="matrix(-1 0 0 1 12.436 76.4109)" fill="white"/>
<circle cx="2.24525" cy="2.24525" r="2.24525" transform="matrix(-1 0 0 1 12.436 83.1467)" fill="white"/>
<circle cx="2.24525" cy="2.24525" r="2.24525" transform="matrix(-1 0 0 1 12.436 90.228)" fill="white"/>
<circle cx="2.07254" cy="2.07254" r="2.07254" transform="matrix(-1 0 0 1 49.5684 83.3198)" fill="white"/>
<circle cx="2.07254" cy="2.07254" r="2.07254" transform="matrix(-1 0 0 1 44.2139 83.3198)" fill="white"/>
<circle cx="2.07254" cy="2.07254" r="2.07254" transform="matrix(-1 0 0 1 38.5146 83.3198)" fill="white"/>
<circle cx="2.07254" cy="2.07254" r="2.07254" transform="matrix(-1 0 0 1 32.4702 83.3198)" fill="white"/>
<circle cx="2.07254" cy="2.07254" r="2.07254" transform="matrix(-1 0 0 1 26.0796 83.3198)" fill="white"/>
<circle cx="2.07254" cy="2.07254" r="2.07254" transform="matrix(-1 0 0 1 19.3438 48.0864)" fill="white"/>
<circle cx="2.07254" cy="2.07254" r="2.07254" transform="matrix(-1 0 0 1 19.3438 53.095)" fill="white"/>
<circle cx="2.07254" cy="2.07254" r="2.07254" transform="matrix(-1 0 0 1 19.3438 58.449)" fill="white"/>
<circle cx="2.07254" cy="2.07254" r="2.07254" transform="matrix(-1 0 0 1 19.3438 64.1487)" fill="white"/>
<circle cx="2.07254" cy="2.07254" r="2.07254" transform="matrix(-1 0 0 1 19.3438 70.1936)" fill="white"/>
<circle cx="2.07254" cy="2.07254" r="2.07254" transform="matrix(-1 0 0 1 19.3438 76.5837)" fill="white"/>
<circle cx="2.07254" cy="2.07254" r="2.07254" transform="matrix(-1 0 0 1 19.3438 83.3198)" fill="white"/>
<circle cx="1.89983" cy="1.89983" r="1.89983" transform="matrix(-1 0 0 1 25.9062 48.259)" fill="white"/>
<circle cx="1.89983" cy="1.89983" r="1.89983" transform="matrix(-1 0 0 1 25.9062 53.2676)" fill="white"/>
<circle cx="1.89983" cy="1.89983" r="1.89983" transform="matrix(-1 0 0 1 25.9062 58.6218)" fill="white"/>
<circle cx="1.89983" cy="1.89983" r="1.89983" transform="matrix(-1 0 0 1 25.9062 64.3213)" fill="white"/>
<circle cx="1.89983" cy="1.89983" r="1.89983" transform="matrix(-1 0 0 1 25.9062 70.3662)" fill="white"/>
<circle cx="1.89983" cy="1.89983" r="1.89983" transform="matrix(-1 0 0 1 49.396 76.7566)" fill="white"/>
<circle cx="1.89983" cy="1.89983" r="1.89983" transform="matrix(-1 0 0 1 44.0415 76.7566)" fill="white"/>
<circle cx="1.89983" cy="1.89983" r="1.89983" transform="matrix(-1 0 0 1 38.3423 76.7566)" fill="white"/>
<circle cx="1.89983" cy="1.89983" r="1.89983" transform="matrix(-1 0 0 1 32.2969 76.7566)" fill="white"/>
<circle cx="1.89983" cy="1.89983" r="1.89983" transform="matrix(-1 0 0 1 25.9062 76.7566)" fill="white"/>
<circle cx="1.72712" cy="1.72712" r="1.72712" transform="matrix(-1 0 0 1 49.2231 70.5391)" fill="white"/>
<circle cx="1.72712" cy="1.72712" r="1.72712" transform="matrix(-1 0 0 1 43.8691 70.5391)" fill="white"/>
<circle cx="1.72712" cy="1.72712" r="1.72712" transform="matrix(-1 0 0 1 38.1694 70.5391)" fill="white"/>
<circle cx="1.72712" cy="1.72712" r="1.72712" transform="matrix(-1 0 0 1 32.1245 70.5391)" fill="white"/>
<circle cx="1.72712" cy="1.72712" r="1.72712" transform="matrix(-1 0 0 1 32.1245 64.4937)" fill="white"/>
<circle cx="1.72712" cy="1.72712" r="1.72712" transform="matrix(-1 0 0 1 32.1245 58.7947)" fill="white"/>
<circle cx="1.72712" cy="1.72712" r="1.72712" transform="matrix(-1 0 0 1 32.1245 53.4404)" fill="white"/>
<circle cx="1.72712" cy="1.72712" r="1.72712" transform="matrix(-1 0 0 1 32.1245 48.4316)" fill="white"/>
<circle cx="1.5544" cy="1.5544" r="1.5544" transform="matrix(-1 0 0 1 49.0503 64.6667)" fill="white"/>
<circle cx="1.5544" cy="1.5544" r="1.5544" transform="matrix(-1 0 0 1 43.6968 64.6667)" fill="white"/>
<circle cx="1.5544" cy="1.5544" r="1.5544" transform="matrix(-1 0 0 1 37.9966 64.6667)" fill="white"/>
<circle cx="1.5544" cy="1.5544" r="1.5544" transform="matrix(-1 0 0 1 37.9966 58.9673)" fill="white"/>
<circle cx="1.5544" cy="1.5544" r="1.5544" transform="matrix(-1 0 0 1 37.9966 53.6133)" fill="white"/>
<circle cx="1.5544" cy="1.5544" r="1.5544" transform="matrix(-1 0 0 1 37.9966 48.6045)" fill="white"/>
<circle cx="1.03627" cy="1.03627" r="1.03627" transform="matrix(1 0 0 -1 46.46 51.1953)" fill="white"/>
<circle cx="1.20898" cy="1.20898" r="1.20898" transform="matrix(1 0 0 -1 46.2861 46.3589)" fill="white"/>
<circle cx="1.20898" cy="1.20898" r="1.20898" transform="matrix(1 0 0 -1 51.2954 46.3589)" fill="white"/>
<circle cx="1.20898" cy="1.20898" r="1.20898" transform="matrix(1 0 0 -1 51.2954 51.3679)" fill="white"/>
<circle cx="1.38169" cy="1.38169" r="1.38169" transform="matrix(1 0 0 -1 46.1147 41.1775)" fill="white"/>
<circle cx="1.38169" cy="1.38169" r="1.38169" transform="matrix(1 0 0 -1 51.123 41.1775)" fill="white"/>
<circle cx="1.38169" cy="1.38169" r="1.38169" transform="matrix(1 0 0 -1 56.4775 41.1775)" fill="white"/>
<circle cx="1.38169" cy="1.38169" r="1.38169" transform="matrix(1 0 0 -1 56.4775 46.532)" fill="white"/>
<circle cx="1.38169" cy="1.38169" r="1.38169" transform="matrix(1 0 0 -1 56.4775 51.5405)" fill="white"/>
<circle cx="1.5544" cy="1.5544" r="1.5544" transform="matrix(1 0 0 -1 45.9414 35.6511)" fill="white"/>
<circle cx="1.72712" cy="1.72712" r="1.72712" transform="matrix(1 0 0 -1 45.7686 29.7791)" fill="white"/>
<circle cx="1.72712" cy="1.72712" r="1.72712" transform="matrix(1 0 0 -1 45.7686 29.7791)" fill="white"/>
<circle cx="1.89983" cy="1.89983" r="1.89983" transform="matrix(1 0 0 -1 45.5967 23.5613)" fill="white"/>
<circle cx="2.07254" cy="2.07254" r="2.07254" transform="matrix(1 0 0 -1 45.4233 16.998)" fill="white"/>
<circle cx="2.24525" cy="2.24525" r="2.24525" transform="matrix(1 0 0 -1 45.251 10.0898)" fill="white"/>
<circle cx="2.59067" cy="2.59067" r="2.59067" transform="matrix(1 0 0 -1 44.9053 3.18115)" fill="white"/>
<circle cx="2.59067" cy="2.59067" r="2.59067" transform="matrix(1 0 0 -1 49.9136 3.18115)" fill="white"/>
<circle cx="2.59067" cy="2.59067" r="2.59067" transform="matrix(1 0 0 -1 55.2681 3.18115)" fill="white"/>
<circle cx="2.59067" cy="2.59067" r="2.59067" transform="matrix(1 0 0 -1 60.9673 3.18115)" fill="white"/>
<circle cx="2.59067" cy="2.59067" r="2.59067" transform="matrix(1 0 0 -1 67.0122 3.18115)" fill="white"/>
<circle cx="2.59067" cy="2.59067" r="2.59067" transform="matrix(1 0 0 -1 73.4028 3.18115)" fill="white"/>
<circle cx="2.59067" cy="2.59067" r="2.59067" transform="matrix(1 0 0 -1 80.1382 3.18115)" fill="white"/>
<circle cx="2.59067" cy="2.59067" r="2.59067" transform="matrix(1 0 0 -1 87.2192 3.18115)" fill="white"/>
<circle cx="2.59067" cy="2.59067" r="2.59067" transform="matrix(1 0 0 -1 94.8193 52.7495)" fill="white"/>
<circle cx="2.59067" cy="2.59067" r="2.59067" transform="matrix(1 0 0 -1 94.8193 47.741)" fill="white"/>
<circle cx="2.59067" cy="2.59067" r="2.59067" transform="matrix(1 0 0 -1 94.8193 42.3867)" fill="white"/>
<circle cx="2.59067" cy="2.59067" r="2.59067" transform="matrix(1 0 0 -1 94.8193 36.6875)" fill="white"/>
<circle cx="2.59067" cy="2.59067" r="2.59067" transform="matrix(1 0 0 -1 94.8193 30.6426)" fill="white"/>
<circle cx="2.59067" cy="2.59067" r="2.59067" transform="matrix(1 0 0 -1 94.8193 24.2524)" fill="white"/>
<circle cx="2.59067" cy="2.59067" r="2.59067" transform="matrix(1 0 0 -1 94.8193 17.5166)" fill="white"/>
<circle cx="2.59067" cy="2.59067" r="2.59067" transform="matrix(1 0 0 -1 94.8193 10.4351)" fill="white"/>
<circle cx="2.59067" cy="2.59067" r="2.59067" transform="matrix(1 0 0 -1 94.8193 3.18115)" fill="white"/>
<circle cx="2.24525" cy="2.24525" r="2.24525" transform="matrix(1 0 0 -1 50.2593 10.0898)" fill="white"/>
<circle cx="2.24525" cy="2.24525" r="2.24525" transform="matrix(1 0 0 -1 55.6133 10.0898)" fill="white"/>
<circle cx="2.24525" cy="2.24525" r="2.24525" transform="matrix(1 0 0 -1 61.3135 10.0898)" fill="white"/>
<circle cx="2.24525" cy="2.24525" r="2.24525" transform="matrix(1 0 0 -1 67.3574 10.0898)" fill="white"/>
<circle cx="2.24525" cy="2.24525" r="2.24525" transform="matrix(1 0 0 -1 73.7476 10.0898)" fill="white"/>
<circle cx="2.24525" cy="2.24525" r="2.24525" transform="matrix(1 0 0 -1 80.4839 10.0898)" fill="white"/>
<circle cx="2.24525" cy="2.24525" r="2.24525" transform="matrix(1 0 0 -1 87.5645 52.5771)" fill="white"/>
<circle cx="2.24525" cy="2.24525" r="2.24525" transform="matrix(1 0 0 -1 87.5645 47.3955)" fill="white"/>
<circle cx="2.24525" cy="2.24525" r="2.24525" transform="matrix(1 0 0 -1 87.5645 42.0415)" fill="white"/>
<circle cx="2.24525" cy="2.24525" r="2.24525" transform="matrix(1 0 0 -1 87.5645 36.342)" fill="white"/>
<circle cx="2.24525" cy="2.24525" r="2.24525" transform="matrix(1 0 0 -1 87.5645 30.2974)" fill="white"/>
<circle cx="2.24525" cy="2.24525" r="2.24525" transform="matrix(1 0 0 -1 87.5645 23.907)" fill="white"/>
<circle cx="2.24525" cy="2.24525" r="2.24525" transform="matrix(1 0 0 -1 87.5645 17.1709)" fill="white"/>
<circle cx="2.24525" cy="2.24525" r="2.24525" transform="matrix(1 0 0 -1 87.5645 10.0898)" fill="white"/>
<circle cx="2.07254" cy="2.07254" r="2.07254" transform="matrix(1 0 0 -1 50.4321 16.998)" fill="white"/>
<circle cx="2.07254" cy="2.07254" r="2.07254" transform="matrix(1 0 0 -1 55.7861 16.998)" fill="white"/>
<circle cx="2.07254" cy="2.07254" r="2.07254" transform="matrix(1 0 0 -1 61.4854 16.998)" fill="white"/>
<circle cx="2.07254" cy="2.07254" r="2.07254" transform="matrix(1 0 0 -1 67.5308 16.998)" fill="white"/>
<circle cx="2.07254" cy="2.07254" r="2.07254" transform="matrix(1 0 0 -1 73.9209 16.998)" fill="white"/>
<circle cx="2.07254" cy="2.07254" r="2.07254" transform="matrix(1 0 0 -1 80.6572 52.2314)" fill="white"/>
<circle cx="2.07254" cy="2.07254" r="2.07254" transform="matrix(1 0 0 -1 80.6572 47.2229)" fill="white"/>
<circle cx="2.07254" cy="2.07254" r="2.07254" transform="matrix(1 0 0 -1 80.6572 41.8689)" fill="white"/>
<circle cx="2.07254" cy="2.07254" r="2.07254" transform="matrix(1 0 0 -1 80.6572 36.1692)" fill="white"/>
<circle cx="2.07254" cy="2.07254" r="2.07254" transform="matrix(1 0 0 -1 80.6572 30.1243)" fill="white"/>
<circle cx="2.07254" cy="2.07254" r="2.07254" transform="matrix(1 0 0 -1 80.6572 23.7341)" fill="white"/>
<circle cx="2.07254" cy="2.07254" r="2.07254" transform="matrix(1 0 0 -1 80.6572 16.998)" fill="white"/>
<circle cx="1.89983" cy="1.89983" r="1.89983" transform="matrix(1 0 0 -1 74.0942 52.0586)" fill="white"/>
<circle cx="1.89983" cy="1.89983" r="1.89983" transform="matrix(1 0 0 -1 74.0942 47.0503)" fill="white"/>
<circle cx="1.89983" cy="1.89983" r="1.89983" transform="matrix(1 0 0 -1 74.0942 41.696)" fill="white"/>
<circle cx="1.89983" cy="1.89983" r="1.89983" transform="matrix(1 0 0 -1 74.0942 35.9963)" fill="white"/>
<circle cx="1.89983" cy="1.89983" r="1.89983" transform="matrix(1 0 0 -1 74.0942 29.9517)" fill="white"/>
<circle cx="1.89983" cy="1.89983" r="1.89983" transform="matrix(1 0 0 -1 50.6045 23.5613)" fill="white"/>
<circle cx="1.89983" cy="1.89983" r="1.89983" transform="matrix(1 0 0 -1 55.9595 23.5613)" fill="white"/>
<circle cx="1.89983" cy="1.89983" r="1.89983" transform="matrix(1 0 0 -1 61.6577 23.5613)" fill="white"/>
<circle cx="1.89983" cy="1.89983" r="1.89983" transform="matrix(1 0 0 -1 67.7031 23.5613)" fill="white"/>
<circle cx="1.89983" cy="1.89983" r="1.89983" transform="matrix(1 0 0 -1 74.0942 23.5613)" fill="white"/>
<circle cx="1.72712" cy="1.72712" r="1.72712" transform="matrix(1 0 0 -1 50.7773 29.7791)" fill="white"/>
<circle cx="1.72712" cy="1.72712" r="1.72712" transform="matrix(1 0 0 -1 56.1309 29.7791)" fill="white"/>
<circle cx="1.72712" cy="1.72712" r="1.72712" transform="matrix(1 0 0 -1 61.8311 29.7791)" fill="white"/>
<circle cx="1.72712" cy="1.72712" r="1.72712" transform="matrix(1 0 0 -1 67.876 29.7791)" fill="white"/>
<circle cx="1.72712" cy="1.72712" r="1.72712" transform="matrix(1 0 0 -1 67.876 35.824)" fill="white"/>
<circle cx="1.72712" cy="1.72712" r="1.72712" transform="matrix(1 0 0 -1 67.876 41.5232)" fill="white"/>
<circle cx="1.72712" cy="1.72712" r="1.72712" transform="matrix(1 0 0 -1 67.876 46.8772)" fill="white"/>
<circle cx="1.72712" cy="1.72712" r="1.72712" transform="matrix(1 0 0 -1 67.876 51.8857)" fill="white"/>
<circle cx="1.5544" cy="1.5544" r="1.5544" transform="matrix(1 0 0 -1 50.9497 35.6511)" fill="white"/>
<circle cx="1.5544" cy="1.5544" r="1.5544" transform="matrix(1 0 0 -1 56.3037 35.6511)" fill="white"/>
<circle cx="1.5544" cy="1.5544" r="1.5544" transform="matrix(1 0 0 -1 62.0039 35.6511)" fill="white"/>
<circle cx="1.5544" cy="1.5544" r="1.5544" transform="matrix(1 0 0 -1 62.0039 41.3506)" fill="white"/>
<circle cx="1.5544" cy="1.5544" r="1.5544" transform="matrix(1 0 0 -1 62.0039 46.7046)" fill="white"/>
<circle cx="1.5544" cy="1.5544" r="1.5544" transform="matrix(1 0 0 -1 62.0039 51.7131)" fill="white"/>
</g>
</g>
<defs>
<clipPath id="clip0_51_66">
<rect width="100" height="100" fill="white"/>
</clipPath>
<clipPath id="clip1_51_66">
<rect width="100" height="104.318" fill="white" transform="translate(0 -2)"/>
</clipPath>
</defs>
</svg>
