<svg width="100" height="100" viewBox="0 0 100 100" fill="none" xmlns="http://www.w3.org/2000/svg">
<rect width="100" height="100" fill="#273B94"/>
<path d="M91.3542 47.3281L84.7103 50.0538C84.6296 50.0868 84.5608 50.1426 84.5128 50.2139C84.4649 50.2853 84.4401 50.3688 84.4417 50.4535C84.4723 55.0312 83.1072 59.1067 80.3466 62.6798C80.3211 62.7126 80.3025 62.7501 80.2919 62.7902C80.2814 62.8302 80.2791 62.8718 80.2853 62.9124C80.2914 62.953 80.3058 62.9917 80.3277 63.0261C80.3495 63.0605 80.3783 63.0898 80.4121 63.1122L85.8307 66.8863L86.8791 68.0722C87.1455 68.378 87.0975 68.4413 86.7349 68.2622L85.3655 67.5939C80.4339 64.5756 75.4827 62.4527 70.5118 61.2252C65.4797 59.3185 50.6195 57.5233 51.8185 66.8601C52.5611 70.6035 54.1882 74.0347 56.6999 77.1535C56.7828 77.254 56.8768 77.5248 56.9816 77.966L56.1167 77.4025C50.0822 73.6809 43.8576 66.2704 49.9249 59.2792C51.279 57.7242 53.1857 56.6081 55.645 55.9311C55.6784 55.9214 55.7087 55.9034 55.7332 55.8786C55.7576 55.8539 55.7753 55.8232 55.7845 55.7897C55.7937 55.7562 55.7941 55.7208 55.7858 55.6871C55.7774 55.6533 55.7605 55.6223 55.7367 55.5969C54.2253 53.9938 53.249 52.026 52.8079 49.6934L52.9913 48.075C53.0032 47.9996 52.9879 47.9224 52.948 47.8573C52.9081 47.7922 52.8463 47.7434 52.7737 47.7198C52.7011 47.6961 52.6225 47.6991 52.5519 47.7282C52.4813 47.7572 52.4234 47.8105 52.3885 47.8785C51.4538 49.5078 50.851 51.1829 50.5801 52.904L50.4294 49.7327C51.2463 47.6579 52.4366 46.0919 54.0004 45.0348C56.4858 43.3575 59.7925 41.9226 63.9203 40.7301C64.2741 40.6252 64.427 40.3894 64.379 40.0224C64.3528 39.8128 64.2348 39.7189 64.0252 39.7407C61.8695 39.9897 53.5483 41.3591 52.1396 39.7604C51.8906 39.4808 51.9517 39.3672 52.323 39.4196C56.4181 39.9766 59.5107 38.7775 63.4617 38.6661C65.9821 38.5919 67.192 39.5791 67.0916 41.6277C63.8199 41.4049 60.5132 42.6062 57.1716 45.2314C54.5507 47.2931 53.782 49.7786 54.8652 52.6878C54.9613 52.9411 55.1448 53.0612 55.4156 53.0481C63.4944 52.6616 72.9885 51.0628 80.2745 47.3674C80.429 47.2896 80.55 47.1584 80.6151 46.9982C80.6802 46.8379 80.6849 46.6594 80.6283 46.496C78.2477 39.4895 74.4431 33.3611 69.2145 28.1106C69.122 28.0176 68.998 27.9627 68.867 27.9566C68.736 27.9505 68.6075 27.9938 68.5068 28.0779C66.3752 29.8469 63.9291 30.9106 61.1684 31.2688C61.0516 31.281 60.9435 31.3347 60.8636 31.4201C60.7836 31.5054 60.7371 31.617 60.7324 31.7346C60.7276 31.8522 60.765 31.9682 60.8377 32.0618C60.9104 32.1554 61.0137 32.2203 61.1291 32.245C66.4364 33.4441 71.6257 36.3991 68.3234 42.853C67.904 36.5367 62.125 31.8388 56.1167 31.7602C56.0492 31.7598 55.9827 31.7773 55.9242 31.8111C55.8657 31.8449 55.8173 31.8937 55.7839 31.9525C55.7505 32.0112 55.7334 32.0778 55.7343 32.1453C55.7353 32.2129 55.7542 32.2789 55.7891 32.3368C56.5535 33.5686 56.4028 34.582 55.337 35.377C55.1099 35.5473 54.9963 35.4884 54.9963 35.2001C55.0225 33.1951 52.6703 32.363 51.1829 32.0747C40.6209 29.9911 27.7655 33.5096 21.8489 43.1609C21.8248 43.199 21.8145 43.2442 21.8198 43.2889C21.825 43.3337 21.8455 43.3752 21.8777 43.4067C21.9099 43.4382 21.952 43.4576 21.9969 43.4618C22.0417 43.4659 22.0866 43.4546 22.1241 43.4296C26.6648 40.6056 34.6518 39.2952 39.6642 41.4574C39.7146 41.4713 39.7574 41.5046 39.7832 41.5501C39.8091 41.5955 39.8157 41.6494 39.8018 41.6998C39.7879 41.7502 39.7546 41.793 39.7091 41.8188C39.6637 41.8446 39.6098 41.8513 39.5594 41.8374C31.5134 40.7759 24.6183 42.9382 18.8743 48.324C14.196 52.5567 12.0272 56.5797 9.1705 61.4283L10.0485 58.493C10.099 58.3115 10.0804 58.1177 9.99608 57.9491C5.16059 48.442 8.67254 38.3779 16.4958 31.7733C34.7239 16.3692 66.9933 16.1267 85.7259 30.7773C97.5722 40.0355 98.8368 53.913 88.4057 64.8551C88.2703 64.9949 88.148 65.0932 88.0388 65.15C87.6806 65.3291 87.6544 65.2548 87.9602 64.9272C92.6603 59.8602 94.5276 53.8519 93.5623 46.9022C93.5273 46.6445 93.381 46.5309 93.1233 46.5615C92.4637 46.6401 91.874 46.8957 91.3542 47.3281ZM33.9508 25.7453C36.1719 27.0099 39.5725 28.5234 41.6823 28.9624C43.9559 29.4342 47.7955 29.0672 51.2419 29.978C55.7498 31.177 64.0579 28.0779 68.0416 25.4767C68.1109 25.4295 68.1653 25.3634 68.1982 25.2863C68.2312 25.2092 68.2414 25.1243 68.2276 25.0416C68.2138 24.9589 68.1766 24.8819 68.1205 24.8196C68.0643 24.7574 67.9915 24.7126 67.9106 24.6904C56.5492 21.6589 45.2489 21.8446 34.0097 25.2473C33.9581 25.2633 33.912 25.2939 33.8772 25.3354C33.8424 25.377 33.8205 25.4275 33.8142 25.4807C33.8079 25.5339 33.8175 25.5874 33.8418 25.6345C33.8661 25.6815 33.904 25.7201 33.9508 25.7453ZM89.8931 43.0561C91.3214 42.6499 91.9177 42.034 91.0332 40.6056C86.9621 34.0665 81.1132 29.4254 73.4865 26.6823L71.6977 25.9156C71.4673 25.8122 71.2073 25.7955 70.9655 25.8685C70.7237 25.9414 70.5164 26.0993 70.3817 26.3129C70.247 26.5265 70.1939 26.7816 70.2323 27.0312C70.2706 27.2809 70.3978 27.5083 70.5904 27.6716C76.1401 32.553 81.0935 38.5285 83.8454 45.5131C83.9328 45.7359 84.0835 45.7971 84.2975 45.6966L89.8931 43.0561ZM10.553 51.0956L12.879 51.4232C13.1193 51.4538 13.3202 51.3795 13.4818 51.2004C15.4213 49.012 19.1691 46.1815 20.2043 43.5934C22.9759 36.6481 29.954 32.802 36.9123 31.1312C36.9501 31.1227 36.9842 31.1024 37.0098 31.0734C37.0353 31.0443 37.0511 31.0079 37.0547 30.9694C37.0583 30.9309 37.0497 30.8922 37.03 30.8589C37.0103 30.8256 36.9806 30.7993 36.9451 30.7839L29.1153 27.4751C28.9012 27.3877 28.6894 27.3877 28.4797 27.4751C18.8415 31.5308 10.304 39.8128 10.0419 50.4928C10.0332 50.8466 10.2036 51.0475 10.553 51.0956ZM57.3092 55.7149C63.2717 54.4372 71.7895 57.9229 76.625 61.1204C76.8239 61.2518 77.0655 61.3025 77.3013 61.2624C77.5371 61.2223 77.7496 61.0943 77.8961 60.9042C80.0408 58.0955 81.2137 54.9199 81.4146 51.3773C81.4321 51.1065 81.3141 51.0213 81.0608 51.1218C73.7093 54.0899 64.8507 54.8172 57.0013 55.0465C56.8702 55.0465 56.8331 55.1055 56.8899 55.2234C56.9117 55.2802 56.9226 55.337 56.9226 55.3938C56.9139 55.6646 57.0428 55.7716 57.3092 55.7149ZM11.6538 53.5002C11.0204 53.3648 10.6032 53.4675 10.4023 53.8082C10.0703 54.3673 10.2101 55.0444 10.8217 55.8393C10.944 55.9922 11.0488 55.9835 11.1362 55.8131L11.9748 54.1882C12.0087 54.1231 12.0272 54.0511 12.0288 53.9777C12.0304 53.9043 12.0151 53.8315 11.984 53.765C11.953 53.6985 11.9071 53.64 11.8498 53.5941C11.7925 53.5482 11.7254 53.5161 11.6538 53.5002Z" fill="#ED1F27"/>
<path d="M41.6825 28.9623C39.5727 28.5233 36.1722 27.0097 33.951 25.7451C33.9042 25.7199 33.8663 25.6814 33.842 25.6343C33.8177 25.5872 33.8081 25.5337 33.8144 25.4805C33.8207 25.4273 33.8426 25.3768 33.8774 25.3353C33.9122 25.2938 33.9583 25.2631 34.0099 25.2472C45.2491 21.8444 56.5494 21.6588 67.9108 24.6903C67.9917 24.7124 68.0645 24.7573 68.1207 24.8195C68.1768 24.8817 68.214 24.9588 68.2278 25.0415C68.2416 25.1242 68.2314 25.2091 68.1984 25.2862C68.1655 25.3633 68.1111 25.4293 68.0418 25.4765C64.0581 28.0777 55.75 31.1769 51.2421 29.9778C47.7957 29.0671 43.9561 29.434 41.6825 28.9623Z" fill="#273B94"/>
<path d="M73.4866 26.6822C80.5825 30.5153 86.5909 35.9273 89.8932 43.0561L84.2976 45.6966C84.0836 45.7971 83.9329 45.7359 83.8455 45.5131C81.0936 38.5285 76.1402 32.553 70.5905 27.6716C70.3979 27.5083 70.2707 27.2809 70.2324 27.0312C70.194 26.7816 70.2471 26.5265 70.3818 26.3129C70.5165 26.0993 70.7238 25.9414 70.9656 25.8685C71.2074 25.7955 71.4674 25.8122 71.6978 25.9156L73.4866 26.6822Z" fill="#273B94"/>
<path d="M73.4868 26.6821C81.1135 29.4253 86.9624 34.0664 91.0335 40.6055C91.918 42.0338 91.3218 42.6497 89.8934 43.056C86.5911 35.9272 80.5828 30.5151 73.4868 26.6821Z" fill="white"/>
<path d="M10.5534 51.0955C10.2039 51.0474 10.0336 50.8465 10.0423 50.4927C10.3044 39.8127 18.8419 31.5307 28.4801 27.4749C28.6898 27.3876 28.9016 27.3876 29.1156 27.4749L36.9455 30.7838C36.981 30.7992 37.0107 30.8254 37.0304 30.8588C37.05 30.8921 37.0587 30.9308 37.0551 30.9693C37.0514 31.0078 37.0357 31.0442 37.0101 31.0733C36.9846 31.1023 36.9505 31.1225 36.9127 31.131C29.9543 32.8018 22.9763 36.648 20.2047 43.5933C19.1695 46.1814 15.4216 49.0119 13.4822 51.2003C13.3206 51.3794 13.1196 51.4537 12.8794 51.4231L10.5534 51.0955Z" fill="#273B94"/>
<path d="M67.0917 41.6277C67.4586 42.3397 67.8692 42.7481 68.3235 42.853C71.6258 36.3991 66.4365 33.4441 61.1292 32.245C61.0139 32.2203 60.9105 32.1554 60.8378 32.0618C60.7651 31.9682 60.7278 31.8522 60.7325 31.7346C60.7372 31.617 60.7837 31.5055 60.8637 31.4201C60.9436 31.3347 61.0517 31.281 61.1685 31.2688C63.9292 30.9106 66.3753 29.8469 68.5069 28.0779C68.6076 27.9938 68.7361 27.9506 68.8671 27.9566C68.9981 27.9627 69.1221 28.0176 69.2146 28.1106C74.4432 33.3611 78.2478 39.4895 80.6284 46.496C80.685 46.6594 80.6803 46.8379 80.6152 46.9982C80.5502 47.1584 80.4291 47.2896 80.2746 47.3674C72.9886 51.0628 63.4946 52.6616 55.4157 53.0481C55.1449 53.0612 54.9615 52.9411 54.8654 52.6878C53.7821 49.7786 54.5509 47.2932 57.1717 45.2314C60.5133 42.6062 63.82 41.405 67.0917 41.6277Z" fill="#273B94"/>
<path d="M68.3236 42.853C67.8694 42.7481 67.4588 42.3397 67.0918 41.6277C67.1923 39.5791 65.9823 38.5919 63.4619 38.6661C59.511 38.7775 56.4184 39.9766 52.3233 39.4196C51.952 39.3672 51.8908 39.4808 52.1398 39.7603C53.5485 41.3591 61.8698 39.9897 64.0254 39.7407C64.2351 39.7189 64.353 39.8128 64.3792 40.0224C64.4273 40.3894 64.2744 40.6252 63.9206 40.7301C59.7927 41.9226 56.4861 43.3575 54.0006 45.0348C52.4368 46.0919 51.2465 47.6579 50.4297 49.7327C47.1886 52.3929 43.8011 54.2472 40.2673 55.2955C40.2149 55.313 40.169 55.3042 40.1297 55.2693C40.0991 55.2387 40.0598 55.1994 40.0118 55.1514C40.0071 55.1457 40.0039 55.139 40.0024 55.1319C40.0009 55.1247 40.0011 55.1173 40.003 55.1103C40.005 55.1032 40.0085 55.0967 40.0135 55.0913C40.0184 55.0859 40.0246 55.0818 40.0314 55.0793C43.1066 53.6946 45.8104 51.9845 48.143 49.9489C50.1545 48.4354 52.9588 45.8997 52.8737 42.9054C52.8715 42.7842 52.8429 42.6647 52.7898 42.555C52.7366 42.4453 52.6602 42.348 52.5657 42.2698C49.4862 39.7079 43.93 41.287 40.9094 43.1085C40.8672 43.1369 40.8372 43.1801 40.8253 43.2296C40.8135 43.279 40.8206 43.3312 40.8453 43.3756C40.87 43.4201 40.9105 43.4537 40.9588 43.4697C41.007 43.4858 41.0596 43.4831 41.106 43.4623C43.2944 42.3179 45.876 41.9138 48.8506 42.2502C47.7499 42.486 46.6316 42.6848 45.4959 42.8464C42.2199 43.3051 38.9307 45.061 35.7856 46.1421C35.5192 46.2339 35.3095 46.2295 35.1566 46.129C34.9513 45.9893 34.9557 45.856 35.1697 45.7294C36.2137 45.1091 37 44.2573 37.5285 43.174C37.6595 42.9076 37.5766 42.7809 37.2795 42.794C33.5535 42.9687 31.0921 43.1631 29.8952 43.3771C26.3876 44.0018 22.7141 45.6507 18.8745 48.324C24.6186 42.9381 31.5136 40.7759 39.5597 41.8374C39.6101 41.8513 39.6639 41.8446 39.7094 41.8188C39.7548 41.793 39.7882 41.7502 39.8021 41.6998C39.816 41.6494 39.8093 41.5955 39.7835 41.5501C39.7577 41.5046 39.7149 41.4713 39.6645 41.4574C34.6521 39.2951 26.665 40.6056 22.1244 43.4296C22.0869 43.4546 22.042 43.4659 21.9971 43.4618C21.9523 43.4576 21.9102 43.4382 21.878 43.4067C21.8457 43.3752 21.8253 43.3337 21.82 43.2889C21.8148 43.2442 21.8251 43.199 21.8492 43.1609C27.7658 33.5096 40.6211 29.9911 51.1832 32.0747C52.6705 32.363 55.0228 33.1951 54.9966 35.2C54.9966 35.4883 55.1101 35.5473 55.3373 35.377C56.4031 34.582 56.5538 33.5686 55.7894 32.3368C55.7544 32.2789 55.7355 32.2129 55.7346 32.1453C55.7337 32.0778 55.7508 32.0112 55.7842 31.9524C55.8176 31.8937 55.866 31.8449 55.9245 31.8111C55.983 31.7773 56.0494 31.7597 56.117 31.7602C62.1253 31.8388 67.9043 36.5367 68.3236 42.853ZM47.3502 35.2132C43.0061 32.9002 39.0093 33.0182 34.9011 35.6325C33.464 36.5498 31.8347 36.9975 30.0132 36.9757C29.7293 36.9713 29.6812 37.074 29.869 37.2836C30.1442 37.5938 30.4871 37.727 30.8977 37.6833C34.2786 37.3164 37.6595 34.8724 40.9553 35.3049C41.1409 35.3288 41.3179 35.3974 41.4714 35.5046C41.6249 35.6119 41.7503 35.7548 41.837 35.9212C41.9238 36.0876 41.9693 36.2727 41.9698 36.4608C41.9703 36.6489 41.9257 36.8345 41.8398 37.0019L41.5515 37.5523C41.5294 37.5928 41.5196 37.639 41.5235 37.6851C41.5274 37.7311 41.5447 37.775 41.5733 37.8113C41.602 37.8476 41.6406 37.8747 41.6845 37.8892C41.7284 37.9038 41.7756 37.9051 41.8202 37.893C43.301 37.5086 44.6463 36.8425 45.8563 35.8946C46.0485 35.7417 46.2691 35.6652 46.5181 35.6652H47.2388C47.8765 35.6652 47.9137 35.5146 47.3502 35.2132ZM58.6068 34.5645L58.1481 34.8135C57.7856 35.0057 57.8096 35.1236 58.2202 35.1673C58.7619 35.2284 59.2576 35.1018 59.7076 34.7873C60.0002 34.582 60.0221 34.3548 59.7731 34.1058L59.2096 33.5489C58.9082 33.2475 58.7881 33.3065 58.8492 33.7258L58.8885 34.0207C58.9235 34.2653 58.8296 34.4465 58.6068 34.5645ZM39.6711 39.5245C39.6488 39.5263 39.6278 39.5357 39.6116 39.5511C39.5954 39.5664 39.5849 39.5869 39.5819 39.609C39.5788 39.6311 39.5834 39.6536 39.5948 39.6728C39.6063 39.692 39.6239 39.7067 39.6448 39.7145C43.6613 40.8087 50.3183 40.6908 53.1488 37.015C53.5638 36.4821 53.5092 36.0038 52.985 35.5801C52.3691 35.0865 51.6724 34.8375 50.8949 34.8331C50.6503 34.8331 50.5739 34.9445 50.6656 35.1673C52.3626 39.4131 41.866 39.5769 39.6711 39.5245ZM36.6374 37.7488C38.1116 37.3688 39.1403 38.3189 40.5294 37.2247C40.6386 37.1373 40.7041 37.039 40.726 36.9298C40.7478 36.8119 40.7391 36.6939 40.6997 36.576C40.608 36.3139 40.4464 36.2615 40.2149 36.4187C39.184 37.1351 38.0221 37.478 36.7291 37.4474C36.6986 37.4474 36.6702 37.4562 36.644 37.4736C36.5915 37.5173 36.5522 37.5632 36.526 37.6112C36.4561 37.7423 36.4933 37.7881 36.6374 37.7488Z" fill="white"/>
<path d="M47.2388 35.6652H46.518C46.2691 35.6652 46.0485 35.7417 45.8563 35.8945C44.6463 36.8424 43.3009 37.5086 41.8202 37.8929C41.7755 37.905 41.7284 37.9037 41.6845 37.8892C41.6406 37.8747 41.6019 37.8476 41.5733 37.8113C41.5447 37.775 41.5274 37.7311 41.5235 37.685C41.5196 37.639 41.5294 37.5928 41.5515 37.5522L41.8398 37.0019C41.9257 36.8344 41.9703 36.6488 41.9698 36.4607C41.9693 36.2726 41.9237 36.0876 41.837 35.9211C41.7503 35.7547 41.6249 35.6119 41.4714 35.5046C41.3179 35.3973 41.1409 35.3288 40.9553 35.3048C37.6595 34.8724 34.2786 37.3164 30.8977 37.6833C30.4871 37.727 30.1442 37.5937 29.869 37.2836C29.6812 37.0739 29.7292 36.9713 30.0132 36.9756C31.8347 36.9975 33.464 36.5498 34.9011 35.6325C39.0093 33.0181 43.0061 32.9002 47.3502 35.2131C47.9136 35.5145 47.8765 35.6652 47.2388 35.6652Z" fill="#ED1F27"/>
<path d="M58.8885 34.0207L58.8492 33.7258C58.788 33.3065 58.9081 33.2475 59.2095 33.5489L59.773 34.1059C60.022 34.3548 60.0002 34.582 59.7075 34.7873C59.2576 35.1018 58.7618 35.2285 58.2202 35.1673C57.8096 35.1236 57.7855 35.0057 58.1481 34.8135L58.6067 34.5645C58.8295 34.4466 58.9234 34.2653 58.8885 34.0207Z" fill="#ED1F27"/>
<path d="M39.6712 39.5244C41.8661 39.5768 52.3627 39.413 50.6657 35.1672C50.574 34.9444 50.6504 34.833 50.895 34.833C51.6725 34.8374 52.3692 35.0864 52.9851 35.58C53.5093 36.0037 53.5639 36.482 53.1489 37.0149C50.3184 40.6906 43.6614 40.8086 39.645 39.7144C39.624 39.7066 39.6064 39.6918 39.5949 39.6727C39.5835 39.6535 39.5789 39.631 39.582 39.6089C39.585 39.5867 39.5955 39.5663 39.6117 39.551C39.628 39.5356 39.6489 39.5262 39.6712 39.5244Z" fill="#ED1F27"/>
<path d="M40.5293 37.2244C39.1402 38.3187 38.1116 37.3686 36.6373 37.7486C36.4932 37.7879 36.456 37.7421 36.5259 37.611C36.5521 37.563 36.5914 37.5171 36.6439 37.4734C36.6701 37.456 36.6985 37.4472 36.729 37.4472C38.022 37.4778 39.1839 37.1349 40.2148 36.4185C40.4463 36.2613 40.6079 36.3137 40.6997 36.5758C40.739 36.6937 40.7477 36.8117 40.7259 36.9296C40.704 37.0388 40.6385 37.1371 40.5293 37.2244Z" fill="#ED1F27"/>
<path d="M48.1431 49.9488C50.0039 48.1011 54.3807 43.2722 48.8507 42.2501C45.876 41.9137 43.2945 42.3178 41.1061 43.4622C41.0597 43.483 41.0071 43.4857 40.9588 43.4696C40.9106 43.4536 40.8701 43.42 40.8454 43.3755C40.8207 43.331 40.8136 43.2789 40.8254 43.2295C40.8373 43.18 40.8673 43.1368 40.9095 43.1084C43.9301 41.2869 49.4863 39.7078 52.5658 42.2697C52.6603 42.3479 52.7367 42.4452 52.7898 42.5549C52.843 42.6646 52.8716 42.7841 52.8737 42.9053C52.9589 45.8996 50.1546 48.4353 48.1431 49.9488Z" fill="#ED1F27"/>
<path d="M48.8504 42.2502C54.3804 43.2724 50.0036 48.1013 48.1427 49.949C45.8102 51.9846 43.1063 53.6947 40.0312 55.0794C40.0243 55.0819 40.0182 55.086 40.0132 55.0914C40.0083 55.0968 40.0047 55.1033 40.0028 55.1103C40.0009 55.1174 40.0006 55.1248 40.0022 55.132C40.0037 55.1391 40.0069 55.1458 40.0115 55.1514C40.0596 55.1995 40.0989 55.2388 40.1295 55.2694C40.1688 55.3043 40.2146 55.3131 40.2671 55.2956C43.8008 54.2472 47.1883 52.393 50.4295 49.7328L50.5802 52.9041C50.4098 53.3103 50.4972 53.5964 50.8422 53.7624C50.8939 53.7869 50.9502 53.8003 51.0073 53.8019C51.0645 53.8035 51.1214 53.7932 51.1744 53.7716C51.2274 53.75 51.2753 53.7177 51.3151 53.6766C51.3549 53.6356 51.3858 53.5867 51.4057 53.5331L52.8079 49.6935C53.2491 52.0261 54.2253 53.9939 55.7367 55.597C55.7605 55.6223 55.7774 55.6534 55.7858 55.6871C55.7941 55.7209 55.7937 55.7562 55.7845 55.7898C55.7753 55.8233 55.7576 55.8539 55.7332 55.8787C55.7088 55.9034 55.6784 55.9215 55.645 55.9311C53.1857 56.6082 51.279 57.7243 49.9249 59.2793C43.8576 66.2705 50.0822 73.6809 56.1167 77.4026L51.1567 76.5311C50.9531 76.4931 50.7422 76.5279 50.5605 76.6294L44.6636 79.9645C41.7326 76.8806 40.1688 73.587 39.9722 70.0838C39.9198 69.1206 40.1688 68.1444 39.2318 67.4564C39.1494 67.3964 39.0543 67.3562 38.9538 67.3389C38.8534 67.3217 38.7503 67.3279 38.6526 67.3571C38.555 67.3863 38.4653 67.4376 38.3908 67.5071C38.3162 67.5766 38.2587 67.6624 38.2228 67.7578C36.9953 70.9946 37.4824 73.8906 39.6839 76.446C37.9672 76.7561 36.3401 77.5882 34.8026 78.9423C34.5885 79.1302 34.3898 79.1171 34.2063 78.903L31.4216 75.7645C31.3328 75.6623 31.209 75.5969 31.0745 75.5812C30.94 75.5654 30.8044 75.6004 30.6944 75.6794L28.4077 77.2846C28.3333 77.3379 28.2432 77.3643 28.1526 77.3595C28.062 77.3548 27.9762 77.3191 27.9097 77.2584C27.3986 76.7954 27.0798 76.2319 26.9531 75.568C26.9225 75.3884 26.829 75.2256 26.6893 75.1087C26.5496 74.9919 26.3729 74.9285 26.1907 74.9301C26.0086 74.9317 25.833 74.9981 25.6953 75.1174C25.5577 75.2366 25.467 75.401 25.4395 75.5811L25.0333 77.9464C25.0185 78.0377 24.9775 78.1228 24.9154 78.1913C24.8532 78.2598 24.7725 78.3088 24.683 78.3324C24.5936 78.3559 24.4992 78.3531 24.4114 78.3241C24.3235 78.2951 24.246 78.2413 24.1881 78.1692L22.8121 76.4656C21.6982 73.3249 22.5544 71.3593 25.3806 70.5687C25.5028 70.5368 25.61 70.4629 25.6832 70.3599C25.7564 70.2569 25.791 70.1314 25.7808 70.0055C25.7706 69.8795 25.7164 69.7612 25.6276 69.6712C25.5388 69.5813 25.4212 69.5256 25.2954 69.5138C22.9584 69.243 21.6371 70.1734 21.3313 72.305L20.1585 72.3902C21.15 70.1886 20.9404 68.4982 19.5295 67.3188C19.2456 67.0829 18.9573 67.0633 18.6646 67.2598L18.029 66.775L23.4739 63.0992C23.6694 62.9819 23.8103 62.7918 23.8656 62.5706C23.9209 62.3494 23.886 62.1153 23.7687 61.9198C23.6514 61.7243 23.4613 61.5834 23.2401 61.5281C23.0189 61.4728 22.7848 61.5077 22.5893 61.625C19.3919 63.3351 16.2796 66.5587 15.2247 70.228C12.7742 72.626 9.56147 73.6263 5.58649 73.2288C4.81334 73.1502 4.8046 73.017 5.56028 72.8292C8.70532 72.056 12.3942 70.4245 13.6719 67.096C13.7555 66.8777 13.9227 66.7011 14.1371 66.6046C17.3782 65.1238 19.6365 62.741 20.912 59.4562C21.209 58.7005 20.9731 58.4101 20.2044 58.5848C20.1432 58.6022 19.9641 58.7988 19.6671 59.1745C18.1601 61.0921 16.6378 62.9987 15.1002 64.8945C15.0364 64.9703 14.9571 65.0313 14.8676 65.0732C14.7782 65.115 14.681 65.1368 14.5826 65.1369L13.8291 65.15C14.3445 64.5909 14.4603 64.0362 14.1764 63.4858C14.0846 63.3067 13.9099 63.1909 13.6522 63.1385L13.4622 62.8437C13.6282 62.7126 13.7352 62.5816 13.7832 62.4505C13.7961 62.4201 13.7991 62.3866 13.7919 62.3545C13.7848 62.3224 13.7677 62.2931 13.743 62.2705C13.7182 62.2479 13.687 62.233 13.6533 62.2277C13.6195 62.2224 13.5849 62.227 13.5539 62.2409L11.7586 63.0664C11.6978 63.0959 11.6285 63.1031 11.5629 63.0867C11.4974 63.0704 11.4396 63.0315 11.3998 62.9768C11.36 62.9222 11.3407 62.8553 11.3452 62.7878C11.3497 62.7204 11.3777 62.6567 11.4245 62.6078C13.9012 59.8559 16.878 57.8487 20.3551 56.5864C20.5866 56.499 20.6128 56.3701 20.4337 56.1998C20.2284 56.0032 19.9292 55.9508 19.536 56.0425C15.0194 57.1346 11.514 59.9804 9.01982 64.58C8.36024 63.833 8.41047 62.7825 9.17052 61.4284C12.0273 56.5798 14.196 52.5568 18.8743 48.3241C22.7138 45.6508 26.3874 44.0019 29.895 43.3772C31.0919 43.1632 33.5533 42.9688 37.2793 42.7941C37.5763 42.781 37.6593 42.9076 37.5283 43.1741C36.9997 44.2574 36.2135 45.1092 35.1695 45.7294C34.9554 45.8561 34.9511 45.9893 35.1564 46.1291C35.3093 46.2296 35.5189 46.234 35.7854 46.1422C38.9304 45.0611 42.2196 43.3051 45.4957 42.8465C46.6314 42.6849 47.7496 42.4861 48.8504 42.2502ZM24.7646 46.9285C22.2268 51.1786 18.6078 54.1053 13.9077 55.7084C13.8603 55.7256 13.8208 55.7594 13.7963 55.8035C13.7718 55.8476 13.764 55.899 13.7743 55.9484C13.7847 55.9978 13.8125 56.0417 13.8526 56.0723C13.8928 56.1028 13.9426 56.1178 13.9929 56.1146C17.4721 55.7608 26.8548 51.9474 26.2192 47.2299C26.1981 47.0679 26.127 46.9166 26.0159 46.7969C25.9047 46.6771 25.7591 46.595 25.5991 46.5619C25.4392 46.5287 25.2729 46.5462 25.1234 46.6119C24.9738 46.6776 24.8484 46.7883 24.7646 46.9285ZM26.5141 52.8582C27.8245 51.5565 28.5846 49.9862 28.7942 48.1472C28.8379 47.7803 28.7484 47.7453 28.5256 48.0424C26.691 50.4667 25.2954 52.3864 22.4452 53.7034C22.3963 53.7254 22.3551 53.7615 22.3269 53.807C22.2987 53.8526 22.2848 53.9055 22.2869 53.959C22.289 54.0126 22.3071 54.0642 22.3388 54.1074C22.3705 54.1506 22.4144 54.1833 22.4648 54.2014C24.7756 55.0488 26.9509 54.8413 28.9908 53.5789C29.4451 53.2994 29.4058 53.1661 28.8729 53.1792C28.1871 53.1923 27.534 53.3016 26.9138 53.5069C26.8304 53.5329 26.7407 53.5304 26.6588 53.4998C26.577 53.4692 26.5077 53.4122 26.4619 53.3378C26.416 53.2634 26.3963 53.1759 26.4057 53.0891C26.4152 53.0022 26.4533 52.921 26.5141 52.8582Z" fill="#FBDE06"/>
<path d="M24.7648 46.9284C24.8486 46.7882 24.974 46.6775 25.1235 46.6118C25.2731 46.5461 25.4394 46.5286 25.5993 46.5618C25.7592 46.5949 25.9049 46.677 26.016 46.7968C26.1271 46.9165 26.1982 47.0678 26.2194 47.2298C26.8549 51.9473 17.4723 55.7607 13.9931 56.1145C13.9427 56.1177 13.8929 56.1027 13.8528 56.0722C13.8126 56.0416 13.7848 55.9977 13.7745 55.9483C13.7641 55.8989 13.7719 55.8475 13.7964 55.8034C13.8209 55.7593 13.8605 55.7255 13.9079 55.7083C18.608 54.1052 22.2269 51.1785 24.7648 46.9284Z" fill="#ED1F27"/>
<path d="M91.3546 47.3281C92.3199 54.4918 90.4788 61.0112 85.8311 66.8863L80.4125 63.1123C80.3786 63.0898 80.3499 63.0605 80.328 63.0261C80.3062 62.9917 80.2918 62.953 80.2856 62.9124C80.2794 62.8718 80.2817 62.8302 80.2923 62.7902C80.3028 62.7502 80.3214 62.7126 80.3469 62.6798C83.1076 59.1067 84.4726 55.0313 84.442 50.4535C84.4404 50.3688 84.4652 50.2853 84.5132 50.214C84.5611 50.1426 84.63 50.0868 84.7107 50.0538L91.3546 47.3281Z" fill="#273B94"/>
<path d="M26.514 52.8579C26.4532 52.9207 26.4151 53.0019 26.4057 53.0888C26.3962 53.1757 26.416 53.2632 26.4618 53.3376C26.5076 53.412 26.5769 53.4689 26.6588 53.4996C26.7406 53.5302 26.8303 53.5326 26.9137 53.5066C27.534 53.3013 28.187 53.1921 28.8728 53.179C29.4057 53.1659 29.445 53.2991 28.9907 53.5787C26.9508 54.841 24.7755 55.0485 22.4648 54.2011C22.4143 54.1831 22.3704 54.1504 22.3387 54.1072C22.307 54.064 22.2889 54.0123 22.2868 53.9588C22.2847 53.9052 22.2987 53.8523 22.3269 53.8068C22.3551 53.7612 22.3962 53.7251 22.4451 53.7032C25.2953 52.3862 26.6909 50.4664 28.5255 48.0421C28.7483 47.7451 28.8378 47.78 28.7942 48.1469C28.5845 49.9859 27.8244 51.5562 26.514 52.8579Z" fill="#ED1F27"/>
<path d="M52.8083 49.6933L51.4061 53.5329C51.3862 53.5865 51.3553 53.6354 51.3155 53.6765C51.2757 53.7175 51.2278 53.7499 51.1748 53.7714C51.1218 53.793 51.0649 53.8033 51.0077 53.8017C50.9506 53.8001 50.8943 53.7867 50.8426 53.7622C50.4976 53.5962 50.4102 53.3101 50.5806 52.9039C50.8514 51.1828 51.4542 49.5077 52.3889 47.8784C52.4238 47.8104 52.4817 47.7571 52.5523 47.7281C52.6229 47.699 52.7016 47.696 52.7741 47.7197C52.8467 47.7433 52.9085 47.7921 52.9484 47.8572C52.9883 47.9223 53.0036 47.9995 52.9917 48.0749L52.8083 49.6933Z" fill="white"/>
<path d="M76.6251 61.1204C71.7896 57.923 63.2718 54.4372 57.3093 55.7149C57.0429 55.7717 56.914 55.6647 56.9228 55.3938C56.9228 55.3371 56.9119 55.2803 56.89 55.2235C56.8332 55.1055 56.8704 55.0466 57.0014 55.0466C64.8509 54.8172 73.7094 54.09 81.0609 51.1218C81.3143 51.0214 81.4322 51.1065 81.4147 51.3774C81.2138 54.9199 80.041 58.0955 77.8962 60.9042C77.7497 61.0943 77.5372 61.2223 77.3014 61.2624C77.0656 61.3025 76.824 61.2518 76.6251 61.1204Z" fill="#273B94"/>
<path d="M11.6542 53.5001C11.7259 53.516 11.793 53.5481 11.8502 53.594C11.9075 53.6399 11.9534 53.6984 11.9845 53.7649C12.0155 53.8314 12.0308 53.9042 12.0292 53.9776C12.0276 54.051 12.0092 54.123 11.9753 54.1881L11.1366 55.8131C11.0492 55.9834 10.9444 55.9922 10.8221 55.8393C10.2106 55.0443 10.0708 54.3672 10.4027 53.8081C10.6037 53.4674 11.0208 53.3647 11.6542 53.5001Z" fill="#273B94"/>
<path d="M13.4624 62.8435C12.2218 63.8132 10.9813 64.4182 9.74076 64.6584C9.35636 64.7327 9.11612 64.7065 9.02002 64.5798C11.5142 59.9802 15.0196 57.1343 19.5362 56.0423C19.9294 55.9506 20.2286 56.003 20.4339 56.1996C20.613 56.3699 20.5868 56.4988 20.3552 56.5861C16.8782 57.8485 13.9014 59.8557 11.4247 62.6076C11.3779 62.6564 11.3499 62.7202 11.3454 62.7876C11.3409 62.8551 11.3602 62.922 11.4 62.9766C11.4398 63.0312 11.4976 63.0701 11.5631 63.0865C11.6287 63.1029 11.698 63.0957 11.7588 63.0662L13.5541 62.2407C13.5851 62.2268 13.6197 62.2222 13.6535 62.2275C13.6872 62.2328 13.7184 62.2477 13.7432 62.2703C13.7679 62.2929 13.785 62.3222 13.7921 62.3543C13.7993 62.3864 13.7963 62.4198 13.7834 62.4503C13.7354 62.5814 13.6284 62.7124 13.4624 62.8435Z" fill="#ED1F27"/>
<path d="M70.5119 61.225C64.5494 59.9714 59.2116 60.5283 54.4984 62.8958C53.5287 63.3807 52.6354 64.702 51.8186 66.8599C50.6195 57.5231 65.4798 59.3183 70.5119 61.225Z" fill="white"/>
<path d="M70.5122 61.2252C75.4831 62.4527 80.4343 64.5756 85.3659 67.5939L77.8768 72.1215C72.255 67.915 62.0664 61.2383 55.3701 66.6504C52.6248 68.8716 54.5511 72.0166 56.3791 73.8643C56.4135 73.8984 56.4581 73.9203 56.506 73.9268C56.554 73.9332 56.6027 73.9239 56.6449 73.9002C56.6871 73.8766 56.7204 73.8398 56.7398 73.7955C56.7593 73.7512 56.7638 73.7018 56.7526 73.6547C54.0466 62.4898 73.441 70.1755 77.0643 72.3311C70.5078 75.2228 63.8137 77.1011 56.982 77.966C56.8771 77.5248 56.7832 77.254 56.7002 77.1535C54.1885 74.0347 52.5614 70.6036 51.8188 66.8601C52.6357 64.7022 53.529 63.3809 54.4987 62.896C59.2119 60.5285 64.5497 59.9716 70.5122 61.2252Z" fill="#FBDE06"/>
<path d="M18.0294 66.7749C16.5224 68.6052 15.6706 70.7062 15.4741 73.0781C15.4723 73.0981 15.4627 73.1173 15.4474 73.1315C15.432 73.1456 15.4121 73.1536 15.3922 73.1536C15.3722 73.1536 15.3537 73.1456 15.3408 73.1315C15.3279 73.1173 15.3216 73.0981 15.3234 73.0781L15.2251 70.2279C16.28 66.5587 19.3923 63.3351 22.5897 61.6249C22.7852 61.5077 23.0193 61.4728 23.2405 61.5281C23.4617 61.5834 23.6518 61.7243 23.7691 61.9198C23.8864 62.1153 23.9212 62.3494 23.8659 62.5705C23.8106 62.7917 23.6698 62.9819 23.4743 63.0992L18.0294 66.7749Z" fill="#ED1F27"/>
<path d="M13.6525 63.1384C13.9102 63.1908 14.0849 63.3066 14.1766 63.4857C14.4606 64.0361 14.3448 64.5908 13.8294 65.1499C12.8684 65.8707 11.7523 66.3031 10.4812 66.4473C10.456 66.4542 10.4291 66.4509 10.4064 66.438C10.3836 66.4251 10.3669 66.4037 10.36 66.3785C10.353 66.3533 10.3564 66.3263 10.3693 66.3036C10.3822 66.2809 10.4036 66.2642 10.4288 66.2573C11.7873 65.6195 12.8618 64.5799 13.6525 63.1384Z" fill="#ED1F27"/>
<path d="M77.8769 72.1214C78.4272 72.7155 78.9667 73.1239 79.4953 73.3467C79.5608 73.3729 79.5979 73.4275 79.6066 73.5105C79.6328 73.6546 79.5804 73.6917 79.4494 73.6218L77.0644 72.3311C73.4411 70.1754 54.0467 62.4897 56.7527 73.6546C56.7639 73.7017 56.7594 73.7511 56.7399 73.7954C56.7205 73.8397 56.6872 73.8765 56.645 73.9002C56.6028 73.9239 56.554 73.9332 56.5061 73.9267C56.4582 73.9202 56.4136 73.8983 56.3792 73.8643C54.5512 72.0166 52.6248 68.8715 55.3702 66.6504C62.0665 61.2383 72.2551 67.9149 77.8769 72.1214Z" fill="#ED1F27"/>
<path d="M20.1587 72.3901C18.9663 73.8621 17.4003 74.9214 15.4608 75.5679C15.4112 75.5878 15.3562 75.5898 15.3053 75.5735C15.2544 75.5571 15.2108 75.5235 15.182 75.4784C15.1532 75.4334 15.1411 75.3796 15.1478 75.3266C15.1544 75.2735 15.1794 75.2245 15.2184 75.1879C17.7672 72.5604 19.8246 71.4531 18.6649 67.2598C18.9575 67.0632 19.2458 67.0828 19.5297 67.3187C20.9406 68.4981 21.1503 70.1886 20.1587 72.3901Z" fill="#ED1F27"/>
<path d="M44.6638 79.9644L39.6842 76.4459C37.4826 73.8905 36.9956 70.9945 38.223 67.7577C38.259 67.6623 38.3165 67.5766 38.391 67.507C38.4656 67.4375 38.5552 67.3862 38.6529 67.357C38.7505 67.3279 38.8536 67.3216 38.9541 67.3389C39.0546 67.3561 39.1497 67.3963 39.2321 67.4563C40.169 68.1443 39.92 69.1206 39.9725 70.0837C40.169 73.587 41.7328 76.8805 44.6638 79.9644Z" fill="#ED1F27"/>
<path d="M22.8123 76.4654C21.7072 75.3603 21.2136 73.9734 21.3315 72.3048C21.6373 70.1731 22.9586 69.2427 25.2956 69.5136C25.4214 69.5254 25.539 69.5811 25.6278 69.671C25.7166 69.761 25.7708 69.8793 25.781 70.0053C25.7912 70.1312 25.7566 70.2567 25.6834 70.3597C25.6102 70.4627 25.503 70.5366 25.3807 70.5685C22.5546 71.3591 21.6984 73.3247 22.8123 76.4654Z" fill="#ED1F27"/>
</svg>
