<svg width="100" height="100" viewBox="0 0 100 100" fill="none" xmlns="http://www.w3.org/2000/svg">
<rect width="100" height="100" fill="white"/>
<path d="M8.01074 71.3259C8.0294 71.1828 8.11802 71.0678 8.2766 70.9807" stroke="#850705" stroke-width="0.932832"/>
<path d="M12.6284 67.5198C12.6968 67.355 12.8165 67.1917 12.9876 67.03" stroke="#850705" stroke-width="0.932832"/>
<path d="M46.0147 27.1095C46.0122 27.1318 46.0187 27.1541 46.0327 27.1716C46.0467 27.1891 46.067 27.2003 46.0893 27.2028C46.1116 27.2053 46.1339 27.1988 46.1514 27.1848C46.1689 27.1708 46.1801 27.1504 46.1826 27.1282C47.5818 20.4258 55.4549 18.2943 60.3756 22.7905C63.4882 25.6356 65.8653 28.2351 67.5071 30.589C67.5287 30.6229 67.5429 30.661 67.5491 30.7009L67.745 32.1701C67.7792 32.4282 67.8974 32.4764 68.0995 32.3147C70.3787 30.4833 72.8211 28.9114 75.4269 27.5993C75.4901 27.5684 75.5602 27.5556 75.6295 27.5622C75.6987 27.5688 75.7642 27.5945 75.8186 27.6366L76.3177 28.0237C76.4359 28.1139 76.5665 28.1434 76.7095 28.1123C77.7854 27.8667 78.6125 27.279 79.1908 26.3493C79.2782 26.2079 79.4142 26.1034 79.5733 26.0554C84.5328 24.5442 88.3512 25.6823 91.0285 29.4696C92.479 31.5171 92.3811 34.0218 90.6833 35.8455C86.0565 40.8081 82.0733 44.2969 76.7095 47.0208C76.6625 47.0444 76.6221 47.0794 76.5919 47.1225C76.5618 47.1657 76.5428 47.2157 76.5368 47.268C76.5308 47.3202 76.5379 47.3732 76.5575 47.4221C76.577 47.4709 76.6084 47.5142 76.6489 47.5479C82.4511 52.4545 87.3251 62.2353 85.3335 69.7679C84.41 73.2614 79.3774 73.7558 77.4464 70.738C77.4152 70.6903 77.371 70.6525 77.319 70.6291C77.2669 70.6057 77.2093 70.5976 77.1529 70.606C77.0964 70.6143 77.0436 70.6387 77.0005 70.6761C76.9575 70.7136 76.9261 70.7626 76.9101 70.8173L76.7561 71.3351C76.7157 71.4688 76.6255 71.531 76.4856 71.5216C73.0015 71.2791 73.1508 68.6159 71.9148 66.3911C71.8277 66.2325 71.6924 66.1547 71.509 66.1578C69.8423 66.1858 68.6343 65.4489 67.8849 63.947C67.8523 63.8826 67.8413 63.8093 67.8537 63.7382C67.866 63.667 67.9009 63.6017 67.9533 63.552C68.0056 63.5022 68.0726 63.4707 68.1443 63.462C68.2161 63.4534 68.2886 63.4681 68.3513 63.5039L69.1676 63.9704C69.1872 63.9851 69.2095 63.9958 69.2332 64.0018C69.2569 64.0079 69.2816 64.0093 69.3059 64.0058C69.3301 64.0023 69.3535 63.9941 69.3746 63.9816C69.3956 63.9692 69.4141 63.9526 69.4288 63.933C69.4435 63.9134 69.4542 63.8911 69.4602 63.8674C69.4663 63.8437 69.4677 63.819 69.4642 63.7947C69.4607 63.7705 69.4525 63.7471 69.44 63.726C69.4276 63.705 69.411 63.6865 69.3914 63.6718C68.5332 62.8463 66.0566 61.4517 66.3784 59.9778C66.3889 59.9288 66.4123 59.8834 66.446 59.8463C66.4798 59.8092 66.5228 59.7816 66.5706 59.7665C66.6184 59.7513 66.6694 59.7491 66.7184 59.76C66.7674 59.7709 66.8126 59.7946 66.8495 59.8286L69.6526 62.4079C69.7335 62.4825 69.7817 62.4654 69.7972 62.3566C69.8065 62.2819 69.7879 62.212 69.7413 62.1467C68.597 60.6821 67.4543 59.2176 66.3131 57.753C63.5286 54.1803 61.9428 56.5963 59.634 58.7698C59.6045 58.797 59.569 58.8167 59.5304 58.8273C59.4917 58.838 59.4511 58.8392 59.4119 58.831C59.3726 58.8228 59.3359 58.8053 59.3048 58.7801C59.2737 58.7549 59.249 58.7226 59.2329 58.6859C59.1676 58.5397 59.18 58.4107 59.2702 58.2987C60.9073 56.3305 63.2767 53.6906 65.94 56.0366C68.6405 58.4153 72.0547 60.92 74.1442 63.8398C75.3818 65.5686 76.9505 66.7595 78.8503 67.4125C79.6091 67.6737 80.0242 67.3456 80.0957 66.4284C80.2449 64.4461 80.2869 62.114 79.6339 60.7661C78.0854 57.582 75.9073 54.6638 73.0994 52.0115C73.058 51.9726 73.0082 51.9439 72.9538 51.9275C72.8994 51.9111 72.842 51.9076 72.786 51.917C72.73 51.9265 72.677 51.9488 72.631 51.9822C72.585 52.0156 72.5474 52.0591 72.5211 52.1094L72.3065 52.5198C72.2101 52.7064 72.092 52.7204 71.9521 52.5618C70.0398 50.4303 70.9819 46.4611 71.4483 42.4126C71.495 42.0115 71.3131 41.1486 71.5463 40.6729C71.5591 40.6479 71.58 40.628 71.6055 40.6162C71.631 40.6044 71.6597 40.6015 71.6871 40.608C71.7144 40.6144 71.7388 40.6298 71.7564 40.6517C71.774 40.6736 71.7838 40.7008 71.7842 40.7289L71.7981 41.9695C71.7975 42.0068 71.8069 42.0434 71.8255 42.0757C71.8441 42.108 71.8711 42.1348 71.9039 42.1533C71.9366 42.1718 71.9739 42.1814 72.0119 42.1811C72.0498 42.1807 72.0871 42.1705 72.12 42.1514C76.1685 39.8147 80.2776 37.2307 83.3326 33.6533C83.5067 33.4481 83.4601 33.3331 83.1927 33.3082C78.3933 32.8278 74.9371 35.2018 70.9633 37.394C70.8329 37.4699 70.6815 37.5041 70.5295 37.4919C69.5407 37.4329 69.0105 37.8635 68.939 38.7839C68.9235 39.0047 68.8069 39.0995 68.5892 39.0684L64.9605 38.5554C64.5874 38.5025 64.2982 38.319 64.093 38.005L61.4904 34.0125C61.45 33.9504 61.3884 33.9053 61.3171 33.8855C61.2458 33.8658 61.1697 33.8728 61.1032 33.9052L60.4083 34.227C60.2124 34.3172 60.0538 34.2737 59.9325 34.0964C58.3421 31.8296 55.3104 27.1562 52.9456 27.3707C52.7933 27.3863 52.6798 27.4609 52.6051 27.5946C52.1325 28.4559 51.876 29.3468 51.8356 30.2671C51.7982 31.186 52.3579 32.2028 52.3113 33.2849C52.3085 33.3349 52.2914 33.3831 52.2619 33.4237C52.2325 33.4643 52.192 33.4956 52.1453 33.5138C52.0986 33.532 52.0476 33.5363 51.9985 33.5263C51.9493 33.5164 51.9041 33.4924 51.8682 33.4574L50.4643 32.0489C50.423 32.0071 50.3694 31.9796 50.3113 31.9705C50.2533 31.9614 50.1938 31.9711 50.1417 31.9982C50.0896 32.0254 50.0475 32.0684 50.0216 32.1212C49.9957 32.1739 49.9874 32.2336 49.9979 32.2914L50.8374 37.38C50.8492 37.4422 50.8385 37.5066 50.807 37.5616C50.7756 37.6165 50.7256 37.6585 50.6659 37.6798C50.6063 37.7012 50.5411 37.7006 50.4819 37.6781C50.4227 37.6556 50.3734 37.6128 50.343 37.5572L49.6807 36.3959C49.6563 36.3568 49.6192 36.3274 49.5757 36.3125C49.5321 36.2976 49.4848 36.2981 49.4416 36.314C49.3984 36.3299 49.362 36.3601 49.3384 36.3996C49.3149 36.4391 49.3056 36.4856 49.3122 36.5311L49.4242 37.1048C49.4325 37.1468 49.4284 37.1902 49.4123 37.2299C49.3962 37.2695 49.3689 37.3035 49.3337 37.3278C49.2985 37.3521 49.2569 37.3656 49.2142 37.3666C49.1714 37.3676 49.1293 37.356 49.093 37.3333L48.538 36.9975C48.4938 36.9699 48.4425 36.9557 48.3904 36.9565C48.3383 36.9573 48.2875 36.9732 48.2442 37.0022L47.5585 37.436C47.3875 37.5448 47.26 37.509 47.1761 37.3287C46.5946 36.1129 46.3536 34.8474 46.4531 33.5321C46.4593 33.4605 46.4966 33.4155 46.5651 33.3968C46.621 33.3844 46.6661 33.3921 46.7003 33.4201C46.7128 33.4326 46.7174 33.4481 46.7143 33.4668C46.5775 34.2379 46.7594 34.9251 47.26 35.5283C47.2854 35.5589 47.3205 35.5798 47.3594 35.5875C47.3984 35.5952 47.4388 35.5892 47.4739 35.5706C47.5089 35.552 47.5365 35.5218 47.5519 35.4852C47.5673 35.4486 47.5697 35.4079 47.5585 35.3697L45.7908 29.6561C45.7723 29.6041 45.7362 29.5602 45.6888 29.5318C45.6415 29.5035 45.5857 29.4925 45.5311 29.5008C45.4765 29.509 45.4265 29.536 45.3896 29.5772C45.3527 29.6183 45.3313 29.6709 45.3291 29.7261L45.3104 31.3632C45.3083 31.4364 45.2798 31.5063 45.2301 31.5601C45.1805 31.6138 45.1131 31.6478 45.0403 31.6558C44.9676 31.6637 44.8944 31.6451 44.8343 31.6033C44.7742 31.5616 44.7313 31.4995 44.7134 31.4285C43.5753 26.3726 46.1266 20.8875 51.6163 20.0107C51.7656 19.9862 51.9205 20.004 52.0641 20.062C52.1263 20.0868 52.1885 20.1117 52.2507 20.1366C52.3937 20.1895 52.3906 20.2345 52.2413 20.2719C48.8272 21.1441 46.1266 23.5274 46.0147 27.1095Z" fill="#FC5907"/>
<path d="M88.0525 26.0228C87.7509 25.8859 87.7167 25.7227 87.9499 25.533C87.9757 25.5116 88.0064 25.4969 88.039 25.4904C88.0716 25.4839 88.1051 25.4857 88.1365 25.4957C90.1483 26.1362 91.546 27.4422 92.3295 29.4136C92.3731 29.5255 92.3606 29.6437 92.2922 29.7681C92.2394 29.8676 92.1865 29.8676 92.1336 29.7681C91.2133 28.0796 89.8529 26.8312 88.0525 26.0228Z" fill="#FC5907"/>
<path d="M51.0329 44.5675C48.4257 45.1645 44.5497 47.0208 41.9891 46.2186C41.9363 46.2018 41.8892 46.1708 41.8531 46.1288C41.8169 46.0868 41.7932 46.0356 41.7845 45.981C41.7758 45.9263 41.7824 45.8702 41.8038 45.8191C41.8251 45.768 41.8602 45.7238 41.9052 45.6915C42.6281 45.1878 43.2671 44.5488 44.102 44.2596C47.5628 43.0609 50.837 43.7279 53.9294 42.6645C54.0848 42.6116 54.1983 42.5106 54.2699 42.3613C54.587 41.6897 54.5963 41.0351 54.2978 40.3977C53.4396 38.5569 52.8986 36.685 52.6747 34.782C52.6704 34.7301 52.6836 34.6782 52.7122 34.6347C52.7409 34.5911 52.7833 34.5584 52.8327 34.5417C52.882 34.5251 52.9356 34.5255 52.9847 34.5428C53.0339 34.5602 53.0758 34.5935 53.1038 34.6375C54.4238 36.8902 56.0189 39.5581 56.0609 42.1887C56.0622 42.2413 56.0501 42.2933 56.0256 42.3399C56.0011 42.3864 55.9651 42.4259 55.921 42.4546L51.2848 45.5423C51.2575 45.5601 51.2252 45.569 51.1925 45.5678C51.1598 45.5666 51.1284 45.5553 51.1029 45.5355C51.0774 45.5158 51.0591 45.4886 51.0507 45.4579C51.0423 45.4272 51.0443 45.3947 51.0562 45.365L51.2568 44.824C51.3408 44.6001 51.2661 44.5146 51.0329 44.5675Z" fill="#FC5907"/>
<path d="M51.3271 39.5534C51.2183 38.9005 51.4018 38.3345 51.8775 37.8557C51.9093 37.8227 51.9501 37.7997 51.9949 37.7898C52.0396 37.7798 52.0863 37.7832 52.1291 37.7997C52.1719 37.8161 52.2089 37.8448 52.2355 37.8821C52.2621 37.9194 52.2771 37.9638 52.2786 38.0096C52.319 39.0668 52.7652 39.8893 53.6172 40.4769C53.651 40.4997 53.6797 40.5292 53.7017 40.5635C53.7237 40.5978 53.7384 40.6362 53.7449 40.6764C53.7515 40.7166 53.7497 40.7577 53.7398 40.7972C53.7299 40.8367 53.712 40.8737 53.6872 40.906L53.2768 41.4424C53.1835 41.5668 53.1819 41.6912 53.2721 41.8156C53.3312 41.8933 53.3405 41.9757 53.3001 42.0628C53.2192 42.2493 53.0886 42.2975 52.9083 42.2073C52.3797 41.943 51.9195 42.0659 51.5277 42.5758C51.5014 42.6067 51.4657 42.6282 51.426 42.637C51.3864 42.6458 51.345 42.6415 51.308 42.6246C51.2711 42.6077 51.2407 42.5792 51.2214 42.5435C51.2021 42.5078 51.195 42.4667 51.2012 42.4266L51.3598 41.6243C51.3691 41.5752 51.3686 41.5248 51.3581 41.4759C51.3476 41.4271 51.3274 41.3809 51.2986 41.34C51.2699 41.2991 51.2333 41.2644 51.1909 41.2379C51.1485 41.2114 51.1013 41.1937 51.0519 41.1859L46.8262 40.5516C46.7538 40.5389 46.6878 40.5021 46.6389 40.4472C46.59 40.3923 46.561 40.3225 46.5567 40.2492C46.5524 40.1758 46.573 40.1031 46.6151 40.0428C46.6573 39.9826 46.7185 39.9383 46.7889 39.9172C48.1819 39.5348 49.5905 39.5099 51.0146 39.8426C51.0556 39.8523 51.0983 39.8518 51.1389 39.8411C51.1796 39.8304 51.217 39.8098 51.2479 39.7813C51.2788 39.7527 51.3021 39.717 51.316 39.6772C51.3298 39.6375 51.3336 39.595 51.3271 39.5534Z" fill="#FC5907"/>
<path d="M40.0924 46.1268C40.757 45.769 41.1908 45.284 41.0613 45.0436C40.9319 44.8032 40.2882 44.8983 39.6237 45.2562C38.9591 45.614 38.5253 46.0989 38.6548 46.3394C38.7842 46.5798 39.4279 46.4846 40.0924 46.1268Z" fill="#FC5907"/>
<path d="M43.2113 52.2679L44.1069 52.3052C44.2499 52.3114 44.3789 52.271 44.494 52.184L45.5294 51.4004C45.6383 51.3195 45.7051 51.2123 45.73 51.0785C46.2524 48.364 49.2701 50.5655 50.1143 50.0338C50.2449 49.9498 50.2371 49.8861 50.091 49.8425L48.5098 49.3761C48.4448 49.3568 48.3885 49.3156 48.3505 49.2595C48.3124 49.2034 48.2949 49.1358 48.3009 49.0683C48.307 49.0008 48.3362 48.9374 48.3836 48.889C48.431 48.8405 48.4937 48.8099 48.5611 48.8024C49.5872 48.6905 50.5356 48.8895 51.4063 49.3995C51.4784 49.4407 51.5413 49.4964 51.5911 49.563C51.6408 49.6296 51.6763 49.7057 51.6954 49.7866C51.8043 50.2499 51.6022 50.5562 51.0891 50.7054C50.8092 50.7863 50.7486 50.9495 50.9072 51.1952L51.0751 51.447C51.097 51.4806 51.1279 51.5075 51.1643 51.5244C51.2006 51.5414 51.241 51.5478 51.2809 51.5429C51.3207 51.5381 51.3584 51.5221 51.3896 51.4969C51.4209 51.4717 51.4444 51.4383 51.4576 51.4004L51.6068 51.0039C51.7032 50.7396 51.8509 50.707 52.0499 50.906L52.6283 51.4843C52.7962 51.6554 52.776 51.7984 52.5676 51.9134L50.5201 53.0515C50.4902 53.0678 50.4657 53.0923 50.4493 53.1222C50.433 53.152 50.4257 53.186 50.4281 53.2199C50.4306 53.2538 50.4428 53.2864 50.4632 53.3136C50.4836 53.3408 50.5115 53.3615 50.5434 53.3733L51.7328 53.8397C51.7742 53.8554 51.8106 53.8819 51.8383 53.9165C51.866 53.9511 51.8838 53.9925 51.89 54.0363C51.8962 54.0802 51.8905 54.1249 51.8735 54.1658C51.8565 54.2067 51.8288 54.2423 51.7934 54.2688L51.5042 54.4787C51.3332 54.6031 51.2679 54.7695 51.3083 54.9778C51.5229 56.1594 51.2041 57.201 50.3522 58.1028C50.2122 58.2458 50.0863 58.2349 49.9744 58.0701L49.3354 57.1513C49.2941 57.0908 49.2355 57.0442 49.1672 57.0176C49.099 56.9909 49.0243 56.9855 48.9529 57.002C48.5331 57.0953 48.2035 56.9725 47.9641 56.6336C47.8273 56.4408 47.6734 56.4268 47.5024 56.5916C46.3876 57.6643 43.911 57.9628 43.4819 56.1298C43.1367 54.656 44.5126 53.6112 42.6703 52.2959C42.6318 52.2693 42.6045 52.2295 42.5934 52.1841C42.5823 52.1387 42.5882 52.0907 42.61 52.0494C42.6318 52.008 42.6681 51.9761 42.7118 51.9597C42.7556 51.9432 42.8039 51.9433 42.8475 51.9601C42.9035 51.9818 42.947 52.03 42.9781 52.1047C43.0217 52.2104 43.0994 52.2648 43.2113 52.2679Z" fill="#FC5907"/>
<path d="M44.5885 50.5446C44.8848 50.842 45.2331 50.9755 45.3663 50.8428C45.4995 50.71 45.3672 50.3613 45.0708 50.0639C44.7744 49.7665 44.4262 49.633 44.293 49.7657C44.1598 49.8985 44.2921 50.2472 44.5885 50.5446Z" fill="#FC5907"/>
<path d="M33.4262 56.6942C33.4169 57.428 33.6315 58.0841 34.0699 58.6625C34.1152 58.7209 34.1447 58.7902 34.1553 58.8638C34.1659 58.9373 34.1574 59.0126 34.1305 59.0822L33.0998 61.8854C33.0799 61.9372 33.0459 61.9824 33.0018 62.016C32.9576 62.0495 32.905 62.0702 32.8498 62.0755C32.7946 62.0808 32.7389 62.0706 32.6892 62.0461C32.6394 62.0216 32.5975 61.9837 32.568 61.9367C31.9897 60.9976 31.1346 60.4379 30.0028 60.2576C29.8473 60.2327 29.7338 60.2902 29.6623 60.4302C29.1072 61.4609 26.3974 61.3443 25.3899 61.0971C25.2407 61.0629 25.1458 60.9728 25.1054 60.8266L24.3731 58.3733C24.3171 58.1898 24.3576 58.0297 24.4944 57.8929L24.8395 57.5431C24.9888 57.3969 25.0245 57.2259 24.9468 57.03L24.3171 55.4395C24.2425 55.2498 24.3047 55.1768 24.5037 55.2203C24.7369 55.2732 24.953 55.2561 25.152 55.169C26.0382 54.771 26.9322 54.3839 27.8339 54.0076C27.9863 53.9454 28.0625 53.8319 28.0625 53.6671V52.9955C28.0625 52.8431 28.1184 52.7156 28.2304 52.613C29.7043 51.2573 31.3258 51.0521 33.0951 51.9974C33.1759 52.0409 33.2521 52.0347 33.3236 51.9787C33.3827 51.9383 33.4169 51.887 33.4262 51.8248C33.4356 51.7564 33.4076 51.7129 33.3423 51.6942L31.7891 51.1811C31.7215 51.1607 31.6631 51.1179 31.6234 51.0597C31.5837 51.0016 31.5651 50.9315 31.5705 50.8608C31.5758 50.7901 31.605 50.7229 31.6531 50.6701C31.7013 50.6174 31.7656 50.5822 31.8358 50.5701C33.179 50.3276 34.3031 50.7163 35.208 51.7362C35.3448 51.8916 35.323 52.0222 35.1427 52.128L34.4057 52.5617C34.2534 52.6519 34.2254 52.7701 34.3218 52.9162C34.5456 53.2614 34.8239 53.5536 35.1567 53.7931C35.1802 53.8116 35.2101 53.8201 35.2398 53.8166C35.2695 53.8131 35.2967 53.7979 35.3152 53.7744C35.3338 53.7509 35.3422 53.721 35.3387 53.6913C35.3353 53.6615 35.3201 53.6344 35.2966 53.6158C35.0914 53.4386 34.995 53.3329 35.0074 53.2987C35.0532 53.1606 35.1466 53.0438 35.2709 52.969C35.3952 52.8942 35.5423 52.8664 35.6858 52.8905C35.8294 52.9146 35.9601 52.9891 36.0546 53.1006C36.1491 53.2122 36.2011 53.3534 36.2014 53.4992C36.2061 54.7819 34.2425 55.2296 33.2863 55.4302C33.1371 55.4613 33.1169 55.5297 33.2257 55.6354L33.3236 55.738C33.3578 55.7691 33.3967 55.7816 33.4402 55.7753C34.2207 55.6385 34.8504 55.8795 35.3292 56.4983C35.3792 56.5615 35.4059 56.6397 35.4049 56.7201C35.404 56.8004 35.3754 56.8781 35.3239 56.9404C35.2724 57.0027 35.2011 57.046 35.1215 57.0631C35.042 57.0802 34.959 57.0702 34.8861 57.0347L33.7807 56.4796C33.5475 56.3615 33.4294 56.433 33.4262 56.6942Z" fill="#A70403"/>
<path d="M27.6052 52.5713C27.3844 52.7019 27.1559 52.8014 26.9196 52.8698C26.87 52.8847 26.8168 52.8827 26.7684 52.864C26.7201 52.8454 26.6793 52.8112 26.6526 52.7668C26.6258 52.7224 26.6147 52.6704 26.6208 52.6189C26.6269 52.5675 26.65 52.5195 26.6864 52.4826L27.2088 51.9649C27.3922 51.7815 27.5399 51.8063 27.6518 52.0395L27.9084 52.5526C27.9675 52.677 27.9379 52.705 27.8198 52.6366L27.7125 52.5713C27.6783 52.5495 27.6425 52.5495 27.6052 52.5713Z" fill="#620A06"/>
<path d="M60.0166 60.6587C60.8001 60.2576 60.8934 59.2221 61.2106 59.0822C61.2498 59.0646 61.2932 59.0594 61.3353 59.0673C61.3774 59.0751 61.4163 59.0957 61.4469 59.1263C61.4775 59.1569 61.4984 59.1961 61.507 59.239C61.5156 59.2818 61.5114 59.3263 61.4951 59.3667L60.2171 62.3844C60.1811 62.4728 60.1126 62.5446 60.0257 62.5852C59.9388 62.6258 59.8399 62.6322 59.7491 62.6031C59.6583 62.5741 59.5824 62.5116 59.5368 62.4286C59.4912 62.3455 59.4793 62.248 59.5035 62.1559L59.7787 60.9572C59.8098 60.8204 59.8891 60.7209 60.0166 60.6587Z" fill="#FC5907"/>
<path d="M8.01088 71.3259C8.02954 71.1828 8.11816 71.0678 8.27674 70.9807C8.64676 70.3371 9.23444 70.2391 10.0398 70.6869C10.0702 70.7033 10.1044 70.7112 10.1389 70.7098C10.1735 70.7084 10.2071 70.6976 10.2365 70.6787C10.2658 70.6598 10.2899 70.6333 10.3061 70.602C10.3223 70.5706 10.3302 70.5356 10.329 70.5003C10.2403 68.7559 13.1834 69.6701 12.6284 67.5199C12.6968 67.3551 12.8165 67.1919 12.9875 67.0302C14.5734 66.06 15.6228 65.3044 17.2273 65.6403C17.3703 65.6713 17.4682 65.62 17.5211 65.4863C18.2534 63.6487 21.0565 65.2671 21.9147 66.2046C22.0795 66.385 22.0407 66.4938 21.7981 66.5311L20.8979 66.6664C20.7363 66.6912 20.6865 66.7799 20.7487 66.9322C20.9695 67.4733 21.2726 67.949 21.6582 68.3595C21.7359 68.4403 21.8121 68.4838 21.8868 68.4901C22.0826 68.5056 22.1371 68.4248 22.05 68.2475L21.7562 67.6552C21.7328 67.6071 21.7275 67.5523 21.741 67.5006C21.7546 67.4489 21.7862 67.4038 21.8301 67.3733C21.8741 67.3429 21.9274 67.3292 21.9806 67.3347C22.0337 67.3402 22.0832 67.3645 22.12 67.4033L22.9082 68.2382C23.0606 68.3999 23.059 68.56 22.9035 68.7186C22.064 69.5737 21.0581 69.9282 19.8858 69.782C19.8441 69.7763 19.8016 69.7833 19.7639 69.802C19.7262 69.8208 19.695 69.8505 19.6743 69.8872C19.6537 69.9239 19.6446 69.966 19.6482 70.008C19.6518 70.0499 19.668 70.0898 19.6946 70.1225L20.1237 70.6636C20.152 70.6996 20.1895 70.7273 20.2324 70.7437C20.2752 70.76 20.3217 70.7643 20.3668 70.7561C20.4119 70.748 20.454 70.7276 20.4884 70.6974C20.5228 70.6671 20.5483 70.628 20.5621 70.5843L20.6228 70.4024C20.6725 70.2469 20.7705 70.2049 20.9166 70.2764C21.8308 70.7273 22.4278 71.4316 22.7076 72.3893C22.7374 72.4912 22.7304 72.6003 22.6878 72.6975C22.6452 72.7948 22.5698 72.874 22.4747 72.9212C22.3797 72.9685 22.271 72.9808 22.1678 72.956C22.0646 72.9313 21.9733 72.871 21.9101 72.7857L20.8606 71.3585C20.84 71.3298 20.811 71.3082 20.7776 71.2965C20.7443 71.2848 20.7081 71.2837 20.6741 71.2932C20.6057 71.315 20.5606 71.3538 20.5388 71.4098C20.5233 71.4471 20.5248 71.4969 20.5435 71.5591C20.8171 72.4173 20.3398 73.3454 19.1116 74.3436C19.0604 74.3838 19.0234 74.4389 19.0055 74.5013C18.9877 74.5636 18.9899 74.6302 19.012 74.6917C19.034 74.7532 19.0747 74.8066 19.1285 74.8446C19.1823 74.8825 19.2465 74.903 19.3121 74.9033H19.9091C20.0304 74.9033 20.0988 74.9639 20.1144 75.0852L20.1377 75.2344C20.1595 75.4023 20.0864 75.4863 19.9185 75.4863H19.3308C19.1909 75.4863 19.1085 75.5563 19.0836 75.6962C18.855 77.0908 18.7991 78.6579 17.661 79.6421C17.5429 79.7478 17.4371 79.7353 17.3439 79.6047L16.2478 78.0749C16.2207 78.0368 16.186 78.0046 16.1459 77.9804C16.1058 77.9563 16.0612 77.9407 16.0148 77.9346C15.9684 77.9284 15.9213 77.9319 15.8763 77.9448C15.8313 77.9577 15.7895 77.9798 15.7534 78.0096C15.2372 78.448 14.8703 78.3532 14.6526 77.7251C14.602 77.5825 14.5169 77.4546 14.405 77.3528C14.293 77.251 14.1577 77.1784 14.0109 77.1415C13.8642 77.1045 13.7106 77.1044 13.5638 77.1412C13.417 77.1779 13.2815 77.2503 13.1694 77.352C11.9723 78.4527 10.685 78.8849 9.30752 78.6486C6.93812 78.2475 6.39242 75.7941 7.67506 73.9704C7.72164 73.9066 7.75333 73.8328 7.76785 73.7546C7.78237 73.6763 7.77936 73.5955 7.75902 73.518C7.55379 72.7096 7.63775 71.9788 8.01088 71.3259ZM19.9288 66.1615C19.9352 66.1366 19.9201 66.1064 19.8842 66.0727C19.8483 66.0389 19.7925 66.0023 19.7198 65.9648C19.6471 65.9274 19.5591 65.8899 19.4607 65.8545C19.3623 65.819 19.2554 65.7864 19.1463 65.7584C18.9258 65.7018 18.7093 65.6675 18.5443 65.663C18.3792 65.6586 18.2793 65.6843 18.2663 65.7347C18.2599 65.7596 18.2751 65.7898 18.311 65.8235C18.3468 65.8573 18.4027 65.8939 18.4754 65.9313C18.548 65.9688 18.6361 66.0063 18.7345 66.0417C18.8329 66.0771 18.9397 66.1098 19.0489 66.1378C19.2693 66.1944 19.4859 66.2287 19.6509 66.2332C19.8159 66.2376 19.9159 66.2118 19.9288 66.1615Z" fill="#A70403"/>
<path d="M53.589 71.5823C53.8035 69.0264 55.6832 65.8314 58.435 65.2717C58.4892 65.2616 58.5451 65.2665 58.5967 65.2858C58.6482 65.3051 58.6934 65.3381 58.7272 65.3811C58.761 65.4241 58.7822 65.4754 58.7882 65.5294C58.7943 65.5833 58.785 65.6378 58.7615 65.6868C57.6639 68.0127 56.2507 70.1147 54.5218 71.9928C54.4466 72.0757 54.3473 72.1327 54.2379 72.1559C54.1285 72.179 54.0145 72.1672 53.9117 72.1219C53.8089 72.0767 53.7226 72.0004 53.6647 71.9037C53.6069 71.8069 53.5804 71.6946 53.589 71.5823Z" fill="#FC5907"/>
<path d="M12.9876 67.0301C12.8166 67.1918 12.6968 67.355 12.6284 67.5198L11.8402 67.893C11.8069 67.909 11.7701 67.9163 11.7332 67.9139C11.6963 67.9116 11.6606 67.8997 11.6297 67.8796C11.5987 67.8594 11.5735 67.8316 11.5564 67.7988C11.5394 67.766 11.5311 67.7293 11.5324 67.6924C11.5821 66.4611 12.0672 66.2403 12.9876 67.0301Z" fill="#620A06"/>
<path d="M8.27696 70.9806C8.11837 71.0676 8.02976 71.1827 8.0111 71.3257C7.71881 71.2418 7.54779 71.0676 7.49804 70.8033C7.49065 70.7643 7.49533 70.7239 7.51144 70.6875C7.52756 70.6512 7.55435 70.6206 7.58827 70.5998C7.62219 70.5791 7.66161 70.5692 7.70132 70.5713C7.74102 70.5735 7.77911 70.5878 7.81054 70.6121L8.27696 70.9806Z" fill="#620A06"/>
<path d="M55.4362 73.0562L55.3196 73.8771C55.3098 73.9423 55.2791 74.0026 55.232 74.0487C55.1849 74.0948 55.124 74.1243 55.0586 74.1328C54.9932 74.1412 54.9269 74.1281 54.8696 74.0954C54.8124 74.0628 54.7673 74.0123 54.7413 73.9518C54.5392 73.4822 54.676 73.1169 55.1517 72.8557C55.1829 72.8377 55.2184 72.8291 55.2543 72.8308C55.2902 72.8325 55.3249 72.8445 55.3546 72.8654C55.3843 72.8863 55.4076 72.9153 55.4221 72.9491C55.4365 72.9828 55.4414 73.02 55.4362 73.0562Z" fill="#FC5907"/>
<path d="M77.1477 73.0048C79.2139 73.5645 80.6038 73.7697 82.7073 73.1587C82.7548 73.1437 82.806 73.1465 82.8516 73.1665C82.8972 73.1865 82.9339 73.2223 82.955 73.2674C82.9761 73.3124 82.9801 73.3636 82.9663 73.4114C82.9525 73.4592 82.9218 73.5004 82.8799 73.5272C80.921 74.8363 78.9138 74.8969 76.8585 73.7091C76.7745 73.6647 76.71 73.5906 76.6776 73.5012C76.6453 73.4118 76.6474 73.3136 76.6834 73.2257C76.7195 73.1378 76.7871 73.0665 76.8729 73.0256C76.9587 72.9848 77.0567 72.9774 77.1477 73.0048Z" fill="#FC5907"/>
</svg>
