<svg width="100" height="100" viewBox="0 0 100 100" fill="none" xmlns="http://www.w3.org/2000/svg">
<rect width="100" height="100" fill="#50ADBB"/>
<path d="M50.4269 44.2488C49.1119 42.7488 47.6619 41.4013 46.0769 40.2063C45.8019 40.0013 45.7844 39.7763 46.0244 39.5313L46.2869 39.2688C46.4969 39.0638 46.4769 38.8838 46.2269 38.7288L43.4444 37.0113C43.2294 36.8763 43.0919 36.6863 43.0319 36.4413C42.9819 36.2413 42.9044 36.0613 42.7994 35.9013C42.6744 35.7013 42.4794 35.5313 42.2144 35.3913C39.0544 33.7363 35.7169 32.5688 32.2019 31.8888C32.1094 31.8704 32.0271 31.8185 31.9715 31.7434C31.9159 31.6684 31.891 31.5757 31.9019 31.4838C31.9069 31.3938 31.9394 31.3263 31.9994 31.2813C32.0544 31.2363 32.1369 31.2263 32.2469 31.2513C44.5569 33.8263 53.7794 40.5413 59.9144 51.3963C60.0744 51.6763 60.2019 51.6613 60.2969 51.3513C64.4519 37.7413 72.1169 26.5288 83.2919 17.7138C83.3081 17.7013 83.3281 17.6947 83.3486 17.6951C83.3691 17.6955 83.3888 17.7028 83.4046 17.7159C83.4203 17.729 83.4311 17.7471 83.4352 17.7672C83.4392 17.7873 83.4363 17.8081 83.4269 17.8263C82.7619 19.1813 82.0994 20.5513 81.4394 21.9363C81.0194 22.8288 81.1844 23.3613 82.0319 23.7963C82.0992 23.8316 82.1544 23.8862 82.1906 23.953C82.2268 24.0198 82.2422 24.0959 82.235 24.1715C82.2277 24.2471 82.1981 24.3189 82.15 24.3776C82.1018 24.4364 82.0372 24.4795 81.9644 24.5013C81.6044 24.6063 81.5369 24.8163 81.7619 25.1313C81.9419 25.3813 81.9269 25.6163 81.7169 25.8363C69.4519 38.8613 63.2944 54.4038 63.2444 72.4638C63.2444 72.7238 63.1169 72.8538 62.8619 72.8538H58.0019C57.9005 72.8538 57.8032 72.8135 57.7314 72.7417C57.6597 72.67 57.6194 72.5727 57.6194 72.4713C57.6194 62.6688 55.6619 52.9488 48.2219 46.0863C46.6094 44.6013 46.1444 42.6213 44.2844 41.1213C44.2438 41.0883 44.2105 41.0472 44.1867 41.0005C44.1629 40.9539 44.1492 40.9028 44.1464 40.8505C44.1435 40.7982 44.1517 40.7459 44.1703 40.697C44.1889 40.648 44.2176 40.6035 44.2544 40.5663C44.4994 40.3213 44.7519 40.2813 45.0119 40.4463C46.5269 41.3813 48.2994 42.6838 50.3294 44.3538C50.7994 44.7438 50.8319 44.7088 50.4269 44.2488ZM80.7194 23.6838C80.5894 23.5188 80.3694 23.5813 80.0594 23.8713C79.9831 23.9464 79.9341 24.0448 79.9202 24.1509C79.9063 24.257 79.9282 24.3648 79.9825 24.457C80.0368 24.5492 80.1203 24.6207 80.2199 24.6599C80.3194 24.6992 80.4293 24.7041 80.5319 24.6738L81.2219 24.4638C81.305 24.4401 81.3771 24.3879 81.4256 24.3163C81.474 24.2447 81.4956 24.1583 81.4866 24.0724C81.4777 23.9864 81.4387 23.9063 81.3766 23.8463C81.3145 23.7862 81.2331 23.7499 81.1469 23.7438C81.0919 23.7388 80.9494 23.7188 80.7194 23.6838ZM81.1694 25.7163C81.2744 25.6363 81.3394 25.5263 81.3644 25.3863C81.3732 25.3344 81.3647 25.2811 81.3402 25.2345C81.3158 25.1879 81.2766 25.1506 81.2289 25.1285C81.1811 25.1063 81.1274 25.1005 81.076 25.1118C81.0246 25.1232 80.9784 25.1511 80.9444 25.1913L77.7944 28.7163C77.7728 28.7452 77.7622 28.781 77.7648 28.817C77.7674 28.853 77.7828 28.8869 77.8084 28.9124C77.8339 28.9379 77.8678 28.9534 77.9038 28.956C77.9398 28.9585 77.9755 28.948 78.0044 28.9263C78.9844 28.0663 79.8944 27.1113 80.7344 26.0613C80.7605 26.0377 80.8165 25.9916 80.8947 25.9296C80.9728 25.8677 81.069 25.793 81.1694 25.7163Z" fill="white"/>
<path d="M16.5718 64.0264C17.8318 68.9764 23.6593 68.1964 27.7543 67.0264C28.0893 66.9314 28.2843 67.0564 28.3393 67.4014L28.9468 71.3088C28.9868 71.5638 28.8868 71.7313 28.6468 71.8113C20.8693 74.4363 10.9468 73.1613 10.2418 62.9614C9.16184 47.3089 31.9393 45.6814 30.2068 63.1939C30.1938 63.3178 30.1352 63.4325 30.0423 63.5157C29.9495 63.5989 29.829 63.6445 29.7043 63.6439L16.8043 63.7189C16.7677 63.7185 16.7315 63.7269 16.6986 63.7432C16.6656 63.7596 16.6368 63.7835 16.6144 63.8132C16.5919 63.8429 16.5764 63.8776 16.5691 63.9145C16.5617 63.9515 16.5626 63.9897 16.5718 64.0264ZM16.7368 59.5489H24.2818C24.2946 59.5489 24.3073 59.5463 24.3192 59.5414C24.331 59.5365 24.3417 59.5294 24.3508 59.5203C24.3598 59.5113 24.367 59.5005 24.3719 59.4887C24.3768 59.4768 24.3793 59.4642 24.3793 59.4514V59.4064C24.3793 58.4058 23.9748 57.4463 23.2546 56.7388C22.5345 56.0313 21.5578 55.6339 20.5393 55.6339H20.4793C19.4609 55.6339 18.4842 56.0313 17.764 56.7388C17.0439 57.4463 16.6393 58.4058 16.6393 59.4064V59.4514C16.6393 59.4642 16.6419 59.4768 16.6468 59.4887C16.6517 59.5005 16.6588 59.5113 16.6679 59.5203C16.677 59.5294 16.6877 59.5365 16.6995 59.5414C16.7114 59.5463 16.724 59.5489 16.7368 59.5489Z" fill="white"/>
<path d="M35.2093 51.9887C41.6068 50.5037 52.7368 49.5137 52.8193 59.3087C52.8543 63.6637 52.7993 68.0362 52.6543 72.4262C52.6443 72.7112 52.4993 72.8537 52.2193 72.8537H47.0668C46.7318 72.8537 46.5743 72.6862 46.5943 72.3512C46.9543 66.4012 46.8968 61.6987 46.4218 58.2437C46.0918 55.8662 42.5743 55.9187 40.7743 56.2712C40.4993 56.3212 40.3618 56.4887 40.3618 56.7737V72.4787C40.3618 72.7287 40.2368 72.8537 39.9868 72.8537H34.9243C34.6743 72.8537 34.5493 72.7287 34.5493 72.4787V52.8212C34.5493 52.3712 34.7693 52.0937 35.2093 51.9887Z" fill="white"/>
<path d="M79.5718 66.4862L83.5093 53.3313C83.5793 53.0963 83.7343 52.9788 83.9743 52.9788H89.1043C89.3793 52.9788 89.4818 53.1113 89.4118 53.3763C87.2818 61.0863 84.4668 68.5162 80.9668 75.6662C78.3643 80.9987 74.2993 83.3237 68.4268 80.9162C68.1918 80.8162 68.1043 80.6437 68.1643 80.3987L69.1018 76.5662C69.1718 76.2662 69.3593 76.1562 69.6643 76.2362C72.4393 76.9787 75.0943 77.0387 76.0618 73.7687C76.1418 73.5137 76.1243 73.2662 76.0093 73.0262C72.9843 66.6512 70.4593 60.0813 68.4343 53.3163C68.3643 53.0913 68.4468 52.9788 68.6818 52.9788H74.2168C74.321 52.9785 74.4223 53.0111 74.506 53.0719C74.5897 53.1326 74.6513 53.2183 74.6818 53.3163L78.9493 66.4937C79.1643 67.1537 79.3718 67.1512 79.5718 66.4862Z" fill="white"/>
</svg>
