<svg width="100" height="100" viewBox="0 0 100 100" fill="none" xmlns="http://www.w3.org/2000/svg">
<g clip-path="url(#clip0_51_70)">
<rect width="100" height="100" fill="#00A2E9"/>
<g clip-path="url(#clip1_51_70)">
<path d="M85.6484 24.9832C85.3582 25.011 85.062 24.9832 84.7923 25.0146C74.619 26.2125 64.4477 27.4112 54.2784 28.6107C54.2587 28.6133 54.24 28.621 54.2245 28.6332C54.2089 28.6453 54.1971 28.6614 54.1902 28.6796L46.1781 50.4475C46.1766 50.4534 46.1729 50.4585 46.1678 50.4617C46.1628 50.4649 46.1566 50.466 46.1506 50.4648C46.1445 50.4636 46.139 50.4602 46.1352 50.4552C46.1313 50.4502 46.1294 50.444 46.1297 50.4378L46.1309 29.7002C46.1309 29.6551 46.1087 29.6353 46.0644 29.641L38.848 30.462C38.8291 30.4638 38.8112 30.4709 38.7962 30.4824C38.7812 30.494 38.7698 30.5095 38.7633 30.5273L30.9326 52.1573C30.9307 52.1633 30.9268 52.1685 30.9214 52.1718C30.9161 52.1752 30.9098 52.1766 30.9035 52.1757C30.8973 52.1748 30.8915 52.1718 30.8873 52.1671C30.8832 52.1624 30.8808 52.1563 30.8806 52.15L29.7839 31.5877C29.7836 31.5804 29.7818 31.5732 29.7786 31.5667C29.7754 31.5601 29.7709 31.5542 29.7653 31.5494C29.7598 31.5447 29.7533 31.5411 29.7463 31.5389C29.7393 31.5368 29.7319 31.5361 29.7246 31.537L22.7899 32.329C22.7133 32.3379 22.6617 32.3782 22.6351 32.4499L8.34131 71.2915" stroke="#7FD0F4" stroke-width="0.241838"/>
<path d="M86.8721 25.5259C87.3026 26.116 87.5166 26.7637 87.5142 27.469C87.5082 29.1438 87.5771 30.9467 87.5771 32.4872C87.5755 38.3864 87.5751 44.2857 87.5759 50.1849C87.5759 50.7089 87.5243 51.116 87.4211 51.4062C86.8008 53.1486 84.8492 54.1111 83.1285 54.6117C82.586 54.7689 81.7936 54.908 80.7512 55.0289C78.3667 55.3046 75.9886 55.5714 73.617 55.8294C73.5703 55.8342 73.5469 55.8604 73.5469 55.908L73.5553 70.7399" stroke="#7FD0F4" stroke-width="0.241838"/>
<path d="M73.4028 70.8319L70.6942 71.1269C70.6531 71.1309 70.6321 71.1124 70.6313 71.0713C70.508 65.8016 70.4531 60.5312 70.4669 55.2599C70.4693 54.3905 70.514 53.5586 70.5672 52.717C70.5693 52.6869 70.5819 52.6585 70.6026 52.6368C70.6234 52.6151 70.6511 52.6016 70.6809 52.5985C74.36 52.2099 78.0473 51.8045 81.7425 51.382C83.5454 51.1753 85.0569 50.4232 85.0618 48.3567C85.0714 44.1704 85.0718 38.4163 85.063 31.0943C85.0622 30.4179 85.0029 29.9286 84.8852 29.6263C84.3302 28.2091 82.8417 28.2043 81.4668 28.3748C76.2818 29.0181 71.0924 29.6622 65.8985 30.3071C65.8598 30.3119 65.8405 30.3337 65.8405 30.3724V71.5937C65.8405 71.6275 65.8236 71.6465 65.7897 71.6505L58.6071 72.4304C58.6005 72.4311 58.5939 72.4304 58.5875 72.4284C58.5812 72.4264 58.5755 72.4231 58.5705 72.4188C58.5656 72.4145 58.5617 72.4092 58.5591 72.4032C58.5564 72.3973 58.5551 72.3909 58.5551 72.3845V57.5477C58.5551 57.5018 58.5321 57.4812 58.4862 57.486L50.3326 58.4038C50.3148 58.406 50.298 58.4129 50.2841 58.4238C50.2703 58.4347 50.2598 58.4491 50.254 58.4655L44.5551 73.9516C44.5406 73.9911 44.5128 74.0132 44.4717 74.0181L38.2758 74.7146C38.2371 74.7186 38.2161 74.7013 38.2129 74.6626L36.5455 56.5453C36.5451 56.5409 36.5432 56.5368 36.5401 56.5336C36.5371 56.5304 36.533 56.5284 36.5287 56.5278C36.5243 56.5272 36.5198 56.5282 36.5161 56.5305C36.5123 56.5328 36.5095 56.5363 36.508 56.5404L29.6809 75.6178C29.6748 75.6355 29.6636 75.6512 29.6486 75.663C29.6336 75.6747 29.6155 75.6821 29.5962 75.6843L21.9215 76.5453C21.8715 76.5509 21.8445 76.5284 21.8405 76.4776L20.4003 58.3627C20.3995 58.3576 20.3971 58.3528 20.3933 58.3492C20.3896 58.3456 20.3848 58.3432 20.3796 58.3426C20.3745 58.3419 20.3692 58.3429 20.3647 58.3454C20.3601 58.348 20.3565 58.3519 20.3544 58.3566L14.6265 74.6493" stroke="#7FD0F4" stroke-width="0.241838"/>
<path d="M58.555 36.0556C58.555 36.0471 58.5521 36.0389 58.5467 36.0323C58.5413 36.0257 58.5338 36.0213 58.5255 36.0197C58.5171 36.0181 58.5085 36.0195 58.5011 36.0236C58.4936 36.0278 58.4879 36.0344 58.4848 36.0423L53.4655 49.7146C53.4632 49.7204 53.4624 49.7267 53.4632 49.7329C53.464 49.7391 53.4665 49.745 53.4702 49.75C53.474 49.755 53.479 49.7589 53.4847 49.7614C53.4905 49.7639 53.4968 49.7648 53.503 49.7642L58.5223 49.2007C58.5313 49.1998 58.5396 49.1956 58.5457 49.1889C58.5517 49.1822 58.555 49.1735 58.555 49.1644V36.0556Z" stroke="#7FD0F4" stroke-width="0.241838"/>
<path d="M79.6301 45.5816C80.1778 44.9274 80.3109 44.1426 80.3133 43.3095C80.3205 40.9564 80.3217 38.6037 80.3169 36.2515C80.3145 34.3482 79.0013 33.4897 77.1936 33.7037C75.0436 33.9592 72.8921 34.2257 70.7389 34.503C70.6978 34.5086 70.6772 34.532 70.6772 34.5731V47.7823C70.6772 47.8218 70.697 47.8391 70.7365 47.8343C72.4947 47.6384 74.2528 47.4405 76.011 47.2406C77.3036 47.0943 78.7679 46.6094 79.6301 45.5816Z" stroke="#7FD0F4" stroke-width="0.241838"/>
<path d="M85.6481 24.983C85.3579 25.0108 85.0617 24.983 84.792 25.0145C74.6187 26.2124 64.4474 27.4111 54.2781 28.6106C54.2584 28.6131 54.2397 28.6209 54.2242 28.633C54.2086 28.6452 54.1968 28.6612 54.1898 28.6795L46.1778 50.4473C46.1763 50.4533 46.1726 50.4584 46.1675 50.4616C46.1625 50.4648 46.1563 50.4659 46.1503 50.4647C46.1442 50.4635 46.1387 50.46 46.1349 50.455C46.131 50.4501 46.1291 50.4439 46.1294 50.4377L46.1306 29.7001C46.1306 29.6549 46.1084 29.6352 46.0641 29.6408L38.8476 30.4619C38.8288 30.4637 38.8109 30.4707 38.7959 30.4823C38.7809 30.4939 38.7695 30.5094 38.763 30.5272L30.9323 52.1571C30.9304 52.1632 30.9265 52.1683 30.9211 52.1717C30.9158 52.1751 30.9095 52.1765 30.9032 52.1756C30.897 52.1747 30.8912 52.1717 30.887 52.1669C30.8828 52.1622 30.8805 52.1562 30.8803 52.1499L29.7836 31.5876C29.7833 31.5803 29.7815 31.5731 29.7783 31.5665C29.7751 31.5599 29.7706 31.5541 29.765 31.5493C29.7595 31.5445 29.753 31.541 29.746 31.5388C29.739 31.5367 29.7316 31.536 29.7243 31.5368L22.7896 32.3288C22.713 32.3377 22.6614 32.378 22.6348 32.4498L8.341 71.2914C8.31359 71.3075 8.28739 71.3075 8.2624 71.2914C5.39662 69.3603 2.95285 66.7895 1.48005 63.6372C-2.47279 55.1777 2.33012 46.6239 8.28779 40.775C15.2298 33.9613 24.1898 29.2575 33.3156 26.1136C43.2503 22.6904 53.7739 20.8887 64.2987 21.0362C71.0133 21.1305 77.6856 22.0834 83.9988 24.3361C84.5518 24.5336 85.1016 24.7492 85.6481 24.983Z" fill="#00A2E9"/>
<path d="M85.6484 24.9832C86.1087 25.0863 86.5166 25.2673 86.8721 25.5261C87.3026 26.1162 87.5166 26.7639 87.5142 27.4692C87.5082 29.144 87.5771 30.9469 87.5771 32.4874C87.5755 38.3866 87.5751 44.2859 87.5759 50.1851C87.5759 50.7091 87.5243 51.1162 87.4211 51.4064C86.8008 53.1488 84.8492 54.1113 83.1285 54.6119C82.586 54.7691 81.7935 54.9082 80.7512 55.0291C78.3667 55.3048 75.9886 55.5716 73.617 55.8296C73.5703 55.8344 73.5469 55.8606 73.5469 55.9082L73.5553 70.7401L73.403 70.832L70.6944 71.127C70.6533 71.1311 70.6323 71.1125 70.6315 71.0714C70.5082 65.8018 70.4534 60.5313 70.4671 55.2601C70.4695 54.3906 70.5142 53.5587 70.5674 52.7171C70.5695 52.687 70.5821 52.6586 70.6029 52.637C70.6236 52.6153 70.6514 52.6017 70.6811 52.5986C74.3603 52.2101 78.0475 51.8046 81.7428 51.3822C83.5457 51.1754 85.0572 50.4233 85.062 48.3568C85.0717 44.1706 85.0721 38.4164 85.0632 31.0944C85.0624 30.4181 85.0031 29.9287 84.8854 29.6264C84.3304 28.2093 82.8419 28.2044 81.4671 28.3749C76.2821 29.0182 71.0926 29.6623 65.8987 30.3072C65.86 30.3121 65.8407 30.3338 65.8407 30.3725V71.5938C65.8407 71.6277 65.8238 71.6466 65.7899 71.6506L58.6073 72.4306C58.6007 72.4312 58.5941 72.4306 58.5878 72.4286C58.5815 72.4266 58.5757 72.4233 58.5708 72.4189C58.5658 72.4146 58.5619 72.4093 58.5593 72.4034C58.5566 72.3975 58.5553 72.3911 58.5553 72.3846V57.5478C58.5553 57.5019 58.5324 57.4813 58.4864 57.4862L50.3328 58.404C50.315 58.4061 50.2982 58.4131 50.2844 58.424C50.2705 58.4348 50.26 58.4493 50.2542 58.4656L44.5553 73.9517C44.5408 73.9912 44.513 74.0134 44.4719 74.0182L38.276 74.7147C38.2373 74.7187 38.2164 74.7014 38.2131 74.6627L36.5457 56.5454C36.5453 56.541 36.5434 56.5369 36.5403 56.5337C36.5373 56.5305 36.5332 56.5285 36.5289 56.5279C36.5245 56.5274 36.5201 56.5283 36.5163 56.5306C36.5125 56.5329 36.5097 56.5364 36.5082 56.5406L29.6811 75.618C29.675 75.6357 29.6638 75.6513 29.6488 75.6631C29.6338 75.6749 29.6157 75.6823 29.5964 75.6845L21.9217 76.5454C21.8717 76.5511 21.8447 76.5285 21.8407 76.4777L20.4006 58.3628C20.3997 58.3577 20.3973 58.353 20.3935 58.3493C20.3898 58.3457 20.385 58.3434 20.3798 58.3427C20.3747 58.342 20.3694 58.343 20.3649 58.3456C20.3603 58.3481 20.3567 58.352 20.3546 58.3568L14.6267 74.6494C12.4719 73.6619 10.3768 72.5426 8.34131 71.2915L22.6351 32.4499C22.6617 32.3782 22.7133 32.3379 22.7899 32.329L29.7246 31.537C29.7319 31.5361 29.7393 31.5368 29.7463 31.5389C29.7533 31.5411 29.7598 31.5447 29.7653 31.5494C29.7709 31.5542 29.7754 31.5601 29.7786 31.5667C29.7818 31.5732 29.7836 31.5804 29.7839 31.5877L30.8806 52.15C30.8808 52.1563 30.8832 52.1624 30.8873 52.1671C30.8915 52.1718 30.8973 52.1748 30.9035 52.1757C30.9098 52.1766 30.9161 52.1752 30.9214 52.1718C30.9268 52.1685 30.9307 52.1633 30.9326 52.1573L38.7633 30.5273C38.7698 30.5095 38.7812 30.494 38.7962 30.4824C38.8112 30.4709 38.8291 30.4638 38.848 30.462L46.0644 29.641C46.1087 29.6353 46.1309 29.6551 46.1309 29.7002L46.1297 50.4378C46.1294 50.444 46.1313 50.4502 46.1352 50.4552C46.139 50.4602 46.1445 50.4636 46.1506 50.4648C46.1566 50.466 46.1628 50.4649 46.1678 50.4617C46.1729 50.4585 46.1766 50.4534 46.1781 50.4475L54.1902 28.6796C54.1971 28.6614 54.2089 28.6453 54.2245 28.6332C54.24 28.621 54.2587 28.6133 54.2784 28.6107C64.4477 27.4112 74.619 26.2125 84.7923 25.0146C85.062 24.9832 85.3582 25.011 85.6484 24.9832ZM58.5553 36.0557C58.5554 36.0472 58.5525 36.039 58.5471 36.0324C58.5417 36.0258 58.5342 36.0214 58.5258 36.0198C58.5175 36.0182 58.5088 36.0196 58.5014 36.0237C58.494 36.0279 58.4883 36.0345 58.4852 36.0424L53.4659 49.7147C53.4635 49.7205 53.4627 49.7268 53.4636 49.733C53.4644 49.7392 53.4668 49.7451 53.4706 49.7501C53.4744 49.7551 53.4794 49.759 53.4851 49.7615C53.4908 49.764 53.4971 49.7649 53.5033 49.7643L58.5227 49.2008C58.5317 49.1999 58.54 49.1957 58.546 49.189C58.5521 49.1823 58.5554 49.1736 58.5553 49.1645V36.0557Z" fill="#FEFEFE"/>
<path d="M86.8721 25.5259C91.6908 27.6383 96.4526 31.22 98.6545 36.1462C101.919 43.4509 98.6605 51.0821 93.7391 56.6492C88.2833 62.8197 81.0354 67.4545 73.5553 70.7399L73.5469 55.908C73.5469 55.8604 73.5703 55.8342 73.617 55.8294C75.9886 55.5714 78.3667 55.3046 80.7512 55.0289C81.7936 54.908 82.586 54.7689 83.1285 54.6117C84.8492 54.1111 86.8008 53.1486 87.4211 51.4062C87.5243 51.116 87.5759 50.7089 87.5759 50.1849C87.5751 44.2857 87.5755 38.3864 87.5771 32.4872C87.5771 30.9467 87.5082 29.1438 87.5142 27.469C87.5166 26.7637 87.3026 26.116 86.8721 25.5259Z" fill="#00A2E9"/>
<path d="M73.4028 70.8319C60.5708 76.4099 46.3217 79.2043 32.3157 78.4002C26.7595 78.081 21.2492 77.0943 15.9977 75.2285C15.6986 75.1221 15.2415 74.929 14.6265 74.6493L20.3544 58.3566C20.3565 58.3519 20.3601 58.348 20.3647 58.3454C20.3692 58.3429 20.3745 58.3419 20.3796 58.3426C20.3848 58.3432 20.3896 58.3456 20.3933 58.3492C20.3971 58.3528 20.3995 58.3576 20.4003 58.3627L21.8405 76.4776C21.8445 76.5284 21.8715 76.5509 21.9215 76.5453L29.5962 75.6843C29.6155 75.6821 29.6336 75.6747 29.6486 75.663C29.6636 75.6512 29.6748 75.6355 29.6809 75.6178L36.508 56.5404C36.5095 56.5363 36.5123 56.5328 36.5161 56.5305C36.5198 56.5282 36.5243 56.5272 36.5287 56.5278C36.533 56.5284 36.5371 56.5304 36.5401 56.5336C36.5432 56.5368 36.5451 56.5409 36.5455 56.5453L38.2129 74.6626C38.2161 74.7013 38.2371 74.7186 38.2758 74.7146L44.4717 74.0181C44.5128 74.0132 44.5406 73.9911 44.5551 73.9516L50.254 58.4655C50.2598 58.4491 50.2703 58.4347 50.2841 58.4238C50.298 58.4129 50.3148 58.406 50.3326 58.4038L58.4862 57.486C58.5321 57.4812 58.5551 57.5018 58.5551 57.5477V72.3845C58.5551 72.3909 58.5564 72.3973 58.5591 72.4032C58.5617 72.4092 58.5656 72.4145 58.5705 72.4188C58.5755 72.4231 58.5812 72.4264 58.5875 72.4284C58.5938 72.4304 58.6005 72.4311 58.6071 72.4304L65.7897 71.6505C65.8236 71.6465 65.8405 71.6275 65.8405 71.5937V30.3724C65.8405 30.3337 65.8598 30.3119 65.8985 30.3071C71.0924 29.6622 76.2818 29.0181 81.4668 28.3748C82.8417 28.2043 84.3302 28.2091 84.8852 29.6263C85.0029 29.9286 85.0622 30.4179 85.063 31.0943C85.0718 38.4163 85.0714 44.1704 85.0618 48.3567C85.0569 50.4232 83.5454 51.1753 81.7425 51.382C78.0473 51.8045 74.36 52.2099 70.6809 52.5985C70.6511 52.6016 70.6234 52.6151 70.6026 52.6368C70.5819 52.6585 70.5693 52.6869 70.5672 52.717C70.514 53.5586 70.4693 54.3905 70.4669 55.2599C70.4531 60.5312 70.508 65.8016 70.6313 71.0713C70.6321 71.1124 70.6531 71.1309 70.6942 71.1269L73.4028 70.8319ZM79.6301 45.5816C80.1778 44.9274 80.3109 44.1426 80.3133 43.3095C80.3205 40.9564 80.3217 38.6037 80.3169 36.2515C80.3145 34.3482 79.0013 33.4897 77.1936 33.7037C75.0436 33.9592 72.8921 34.2257 70.7389 34.503C70.6978 34.5086 70.6772 34.532 70.6772 34.5731V47.7823C70.6772 47.8218 70.697 47.8391 70.7365 47.8343C72.4947 47.6384 74.2528 47.4405 76.011 47.2406C77.3036 47.0943 78.7679 46.6094 79.6301 45.5816Z" fill="#00A2E9"/>
<path d="M79.6301 45.5816C78.7679 46.6094 77.3036 47.0943 76.011 47.2406C74.2528 47.4405 72.4947 47.6384 70.7365 47.8343C70.697 47.8391 70.6772 47.8218 70.6772 47.7823V34.5731C70.6772 34.532 70.6978 34.5086 70.7389 34.503C72.8921 34.2257 75.0436 33.9592 77.1936 33.7037C79.0013 33.4897 80.3145 34.3482 80.3169 36.2515C80.3217 38.6037 80.3205 40.9564 80.3133 43.3095C80.3109 44.1426 80.1778 44.9274 79.6301 45.5816Z" fill="#FEFEFE"/>
<path d="M58.555 36.0556V49.1644C58.555 49.1735 58.5517 49.1822 58.5457 49.1889C58.5396 49.1956 58.5313 49.1998 58.5223 49.2007L53.503 49.7642C53.4968 49.7648 53.4905 49.7639 53.4847 49.7614C53.479 49.7589 53.474 49.755 53.4702 49.75C53.4665 49.745 53.464 49.7391 53.4632 49.7329C53.4624 49.7267 53.4632 49.7204 53.4655 49.7146L58.4848 36.0423C58.4879 36.0344 58.4936 36.0278 58.5011 36.0236C58.5085 36.0195 58.5171 36.0181 58.5255 36.0197C58.5338 36.0213 58.5413 36.0257 58.5467 36.0323C58.5521 36.0389 58.555 36.0471 58.555 36.0556Z" fill="#00A2E9"/>
</g>
</g>
<defs>
<clipPath id="clip0_51_70">
<rect width="100" height="100" fill="white"/>
</clipPath>
<clipPath id="clip1_51_70">
<rect width="100" height="57.5574" fill="white" transform="translate(0 21)"/>
</clipPath>
</defs>
</svg>
