<svg width="100" height="100" viewBox="0 0 100 100" fill="none" xmlns="http://www.w3.org/2000/svg">
<rect width="100" height="100" fill="white"/>
<path d="M82.3668 56.1952C82.2003 56.1301 82.18 55.8793 82.306 55.4427C82.3177 55.4021 82.3439 55.3765 82.3845 55.3658C82.4239 55.3562 82.4437 55.321 82.4437 55.2601C82.4448 53.9994 82.4266 52.7371 82.3892 51.4731" stroke="#129088" stroke-width="0.320251"/>
<path d="M82.3879 43.3418C82.3932 43.3162 82.398 43.2911 82.4023 43.2666L79.0957 39.5725C79.0957 39.3445 79.4192 38.9688 79.4192 38.9688C80.2273 37.9803 81.0604 37.0195 81.9187 36.0865C81.9551 36.0469 82.0027 36.0191 82.0552 36.0069C82.1076 35.9947 82.1626 35.9987 82.2128 36.0182C82.2629 36.0378 82.3061 36.0721 82.3364 36.1165C82.3668 36.161 82.3831 36.2136 82.3831 36.2675L82.3879 43.3418Z" fill="#603814"/>
<path d="M79.0957 39.5725L82.4023 43.2666L79.1533 47.036C79.2067 47.0402 79.18 47.0632 79.0732 47.1048L79.0957 39.5725Z" fill="#3B2312"/>
<path d="M10.1409 51.2793C10.2156 52.0916 10.4766 52.8383 10.9239 53.5194C12.9063 56.541 16.9366 56.2784 19.124 53.6939C19.4874 53.2648 21.7084 53.4281 22.3009 53.4361C22.3581 53.4371 22.4133 53.4576 22.4575 53.4943C22.5017 53.5309 22.5323 53.5816 22.5442 53.6379C22.5549 53.6881 22.5346 53.7681 22.4834 53.8781C20.8213 57.4553 17.3978 59.0133 13.5788 58.4785C11.4812 58.1839 9.79345 57.1078 8.55407 55.3801C4.99128 50.413 7.8287 42.7285 14.269 42.3138C18.8694 42.0192 22.6659 45.1096 22.9302 49.7436C22.9894 50.7941 22.485 51.188 21.5066 51.1864C17.7448 51.1832 13.9829 51.1848 10.221 51.1912C10.1623 51.1912 10.1356 51.2205 10.1409 51.2793ZM18.397 46.5668C15.8222 44.3234 11.8382 44.9655 10.5556 48.2993C10.5332 48.357 10.553 48.3858 10.6149 48.3858H19.425C19.4923 48.3858 19.5163 48.3532 19.4971 48.2881C19.29 47.5985 18.9233 47.0247 18.397 46.5668Z" fill="#0C55A1"/>
<path d="M55.9497 56.6836C50.3501 61.2872 42.6128 56.9462 43.0003 49.9087C43.383 42.9817 51.6647 39.808 56.635 44.4708C57.821 45.5842 58.595 46.9346 58.9568 48.522C59.0946 49.1262 59.1639 50.1137 59.165 51.4843C59.1682 53.5419 59.3459 55.9518 59.1714 57.7116C59.0545 58.8805 57.7191 58.6323 56.9329 58.6339C55.9609 58.6355 56.049 57.3449 56.0458 56.7284C56.0458 56.6462 56.0137 56.6313 55.9497 56.6836ZM50.3007 55.571C51.5962 55.7484 52.9125 55.3794 53.96 54.5451C55.0076 53.7108 55.7005 52.4796 55.8865 51.1222C56.0724 49.7649 55.7361 48.3927 54.9515 47.3074C54.1669 46.2221 52.9984 45.5127 51.7029 45.3353C50.4074 45.1578 49.0911 45.5268 48.0436 46.3611C46.996 47.1954 46.3031 48.4267 46.1172 49.784C45.9312 51.1413 46.2675 52.5136 47.0521 53.5989C47.8367 54.6841 49.0053 55.3935 50.3007 55.571Z" fill="#F6941F"/>
<path d="M60.9762 49.5085C61.7576 42.9913 69.1442 40.6071 74.3195 43.5646C75.0112 43.9601 76.582 45.2523 76.5404 46.1666C76.5052 46.9561 75.0625 47.7583 74.446 47.5597C74.2955 47.5117 74.1225 47.3825 73.9272 47.1722C72.6664 45.8165 71.1575 45.1605 69.4004 45.2043C67.1859 45.2603 65.2307 46.3668 64.3693 48.4324C63.4341 50.679 64.1899 53.3323 66.1947 54.7077C68.6254 56.3778 71.8055 55.9263 73.8631 53.8206C74.7262 52.9383 75.1473 53.3659 75.972 53.9279C76.6189 54.3683 76.7438 54.9767 76.2298 55.5948C74.036 58.2401 70.4749 59.0535 67.2307 58.3394C63.1331 57.4379 60.4766 53.6877 60.9762 49.5085Z" fill="#603814"/>
<path d="M27.9915 56.8005C27.9841 58.6782 27.9835 60.5559 27.9899 62.4337C27.991 62.8617 27.9275 63.1692 27.7994 63.356C27.3286 64.0445 25.5288 64.0493 25.1269 63.3064C25.0319 63.1313 24.9844 62.8628 24.9844 62.5009C24.9876 58.5191 24.9876 54.5368 24.9844 50.554C24.9828 48.5268 25.6281 46.2242 27.1156 44.7654C32.395 39.5902 41.4453 43.1738 41.133 50.7909C40.8592 57.4458 33.3525 61.0966 28.07 56.7636C28.0188 56.722 27.9926 56.7343 27.9915 56.8005ZM32.6913 55.7509C34.0441 55.8218 35.3704 55.3394 36.3784 54.4098C37.3864 53.4802 37.9934 52.1796 38.066 50.7941C38.1387 49.4085 37.6709 48.0516 36.7656 47.0218C35.8603 45.9919 34.5917 45.3735 33.2388 45.3026C31.8859 45.2317 30.5596 45.7141 29.5517 46.6437C28.5437 47.5733 27.9366 48.8739 27.864 50.2594C27.7914 51.6449 28.2592 53.0019 29.1645 54.0317C30.0698 55.0616 31.3384 55.68 32.6913 55.7509Z" fill="#14A652"/>
<path d="M82.3669 56.1951C82.2004 56.13 82.1192 55.8241 82.2451 55.3875C82.2569 55.3469 82.4032 55.2707 82.4438 55.26C82.4448 53.9993 82.4267 52.737 82.3893 51.473C84.4282 48.9889 86.473 46.5107 88.5237 44.0384C89.2379 43.1785 89.4332 42.8679 90.6774 42.8535C91.4289 42.8439 92.1612 42.8583 92.8743 42.8967C92.912 42.8987 92.9485 42.9105 92.9802 42.9309C93.0119 42.9514 93.0377 42.9798 93.055 43.0133C93.0723 43.0468 93.0806 43.0843 93.079 43.122C93.0773 43.1597 93.0658 43.1963 93.0457 43.2282C92.8023 43.6178 92.5525 43.9669 92.2963 44.2754C89.019 48.2284 85.7092 52.2016 82.3669 56.1951Z" fill="#1079BE"/>
<path d="M82.4024 43.2666C82.3981 43.2912 82.3933 43.3162 82.388 43.3419C82.3912 45.7213 82.3922 48.1008 82.3912 50.4803C82.3912 50.7637 82.3912 51.4378 82.3912 51.4378H82.0373C81.9818 51.4506 81.9364 51.4789 81.9012 51.5227L79.2223 54.7812L79.0718 54.8341V53.9982C79.2703 54.0463 79.4742 53.9406 79.6835 53.6812C80.3688 52.8282 81.1694 51.915 82.0853 50.9414C82.1302 50.8935 82.1557 50.8307 82.1568 50.7653C82.158 50.6999 82.1348 50.6365 82.0917 50.5875C81.1363 49.504 80.2065 48.4136 79.3024 47.3162C79.2533 47.2553 79.2036 47.1619 79.1534 47.036L82.4024 43.2666Z" fill="#F6941F"/>
<path d="M79.1534 47.0361C79.2036 47.1621 79.2533 47.2555 79.3024 47.3164C80.2065 48.4137 81.1363 49.5042 82.0917 50.5877C82.1348 50.6367 82.158 50.7001 82.1568 50.7655C82.1557 50.8309 82.1302 50.8937 82.0853 50.9416C81.1694 51.9152 80.3688 52.8284 79.6835 53.6813C79.4742 53.9407 79.2703 54.0464 79.0718 53.9984L79.0734 47.105C79.1801 47.0634 79.2068 47.0404 79.1534 47.0361Z" fill="#EF5A2A"/>
<path d="M82.3895 51.438C82.4268 52.7019 82.445 53.9995 82.4439 55.2602V56.0946C82.4439 56.0946 82.4161 57.582 82.2229 58.2385L79.2222 54.7814L81.9011 51.5229C81.9363 51.4791 81.9817 51.4508 82.0372 51.438H82.3895Z" fill="#14A652"/>
<path d="M85.7877 54.0157L87.7909 51.609C87.8442 51.5461 87.8934 51.5487 87.9382 51.617C89.4017 53.8353 90.8082 55.9805 92.1575 58.0525C92.1863 58.0963 92.2055 58.1427 92.2151 58.1918C92.2301 58.2612 92.2381 58.3124 92.2392 58.3455C92.2405 58.3716 92.2364 58.3977 92.2273 58.4222C92.2181 58.4467 92.2041 58.4692 92.186 58.4882C92.1679 58.5072 92.1461 58.5223 92.122 58.5328C92.0978 58.5432 92.0718 58.5487 92.0454 58.5489C91.1306 58.5553 90.221 58.5553 89.3169 58.5489C88.7292 58.5457 88.3625 58.3423 88.0343 57.8235C87.271 56.6162 86.5173 55.4126 85.7733 54.2127C85.7546 54.1829 85.7459 54.1478 85.7485 54.1125C85.7511 54.0771 85.7648 54.0432 85.7877 54.0157Z" fill="#0C55A1"/>
<path d="M79.2223 54.7812L82.2231 58.2384C81.7203 58.7267 80.7884 58.5554 80.1383 58.5554C79.4337 58.557 79.0798 58.2239 79.0734 57.537C79.0659 56.635 79.0654 55.734 79.0718 54.8341L79.2223 54.7812Z" fill="#046838"/>
</svg>
