<svg width="100" height="100" viewBox="0 0 100 100" fill="none" xmlns="http://www.w3.org/2000/svg">
<g clip-path="url(#clip0_51_72)">
<rect width="100" height="100" fill="white"/>
<rect x="-21" width="142" height="14.2857" fill="#72C689"/>
<rect x="-21" y="17.1428" width="142" height="12.8571" fill="#72C689"/>
<rect x="-21" y="32.8572" width="142" height="11.4286" fill="#72C689"/>
<rect x="-21" y="47.1428" width="142" height="10" fill="#72C689"/>
<rect x="-21" y="60" width="142" height="8.57143" fill="#72C689"/>
<rect x="-21" y="71.4285" width="142" height="7.14286" fill="#72C689"/>
<rect x="-21" y="81.4285" width="142" height="5.71429" fill="#72C689"/>
<rect x="-21" y="90" width="142" height="4.28571" fill="#72C689"/>
<rect x="-21" y="97.1428" width="142" height="2.85714" fill="#72C689"/>
<path d="M34 49.7908L34.0005 49.6147C34.1917 49.6398 34.3834 49.6621 34.576 49.6819C35.2775 49.7541 35.9893 49.7908 36.7079 49.7908C48.6699 49.7908 58.4442 39.5889 59.0917 26.7395C61.965 26.9803 64.6889 27.7466 67.1671 28.9414C61.1194 33.3133 57.1331 40.7959 57.1331 49.2927C57.1331 58.1735 61.4882 65.9465 68 70.2177C65.6522 71.4695 63.063 72.3279 60.3206 72.7059C57.7144 62.3681 49.0221 54.7726 38.7006 54.7726C37.3106 54.7726 35.9499 54.9105 34.6295 55.1742C34.218 53.4469 34 51.6441 34 49.7908Z" fill="#0A8341"/>
<path fill-rule="evenodd" clip-rule="evenodd" d="M84 12H17V87H84V55H80.4636C78.1954 66.4396 68.9994 75 58 75C45.2975 75 35 63.5833 35 49.5C35 35.4167 45.2975 24 58 24C70.5519 24 80.7554 35.1475 80.9957 49H84V12Z" fill="#0A8341"/>
</g>
<defs>
<clipPath id="clip0_51_72">
<rect width="100" height="100" fill="white"/>
</clipPath>
</defs>
</svg>
