<svg width="100" height="100" viewBox="0 0 100 100" fill="none" xmlns="http://www.w3.org/2000/svg">
<rect width="100" height="100" fill="#EDF0FF"/>
<path d="M15.4991 43.5249C20.7535 38.6252 27.1956 34.5722 33.5554 31.2698C39.3658 28.253 44.7783 25.8789 49.7929 24.1477C52.1311 23.3402 54.3477 26.0017 53.3442 28.2928C52.8817 29.3531 52.0703 29.8058 50.9022 30.1782C43.2757 32.6124 35.9687 35.7854 28.9811 39.6973C24.3382 42.2961 19.8461 45.3535 15.9323 48.9714C15.8683 49.0315 15.8088 49.0269 15.7539 48.9577L13.2963 45.8199C13.2726 45.7896 13.2604 45.752 13.2618 45.7136C13.2633 45.6752 13.2782 45.6386 13.3041 45.6102C13.994 44.8517 14.9661 44.0227 15.4991 43.5249Z" fill="#EF4036"/>
<path d="M37.7711 38.5411C41.5889 36.8341 43.9015 42.4942 40.2758 44.0288C33.2359 47.0078 26.7174 50.1514 20.6183 54.8374C20.5164 54.9158 20.4256 54.9047 20.3459 54.8041L17.6079 51.3116C17.5853 51.2829 17.5744 51.2466 17.5777 51.2101C17.581 51.1737 17.5981 51.1399 17.6256 51.1157C23.5463 45.8808 30.5744 41.7592 37.7711 38.5411Z" fill="#EF4036"/>
<path d="M27.164 59.3942C26.8165 58.9905 26.4846 58.5782 26.1684 58.1575C26.1606 58.1484 26.1521 58.1425 26.1429 58.1399C26.1272 58.136 26.1103 58.1373 26.092 58.1438C26.0737 58.1503 26.0704 58.1608 26.0822 58.1752L27.1189 59.4843L25.1826 60.7857C25.1212 60.8275 25.0676 60.819 25.0219 60.7602L22.0272 56.9365C22.0178 56.9245 22.0109 56.9107 22.0069 56.896C22.0029 56.8813 22.0019 56.866 22.0039 56.851C22.0059 56.836 22.011 56.8216 22.0187 56.8087C22.0264 56.7958 22.0366 56.7846 22.0488 56.7758C26.1018 53.7171 30.5578 51.0517 35.417 48.7796C45.2725 44.1739 55.6024 41.1981 66.4065 39.8524C70.547 39.3376 74.6366 39.1984 78.6752 39.4349C83.1398 39.6975 89.2625 40.8049 92.5805 44.0132C97.7683 49.0285 93.4703 55.5568 89.4604 59.455C85.5191 63.2845 80.935 66.3066 76.0882 68.8604C76.0608 68.8747 76.0392 68.8754 76.0235 68.8623C75.9987 68.8414 76.0007 68.8225 76.0294 68.8055C80.6998 66.1401 93.2998 57.6127 88.8725 50.8492C86.354 47 79.3279 46.0926 75.1965 45.973C70.2746 45.8306 65.3899 46.1945 60.5425 47.0647C49.0459 49.1304 37.2965 53.1638 27.3463 59.3726C27.2679 59.421 27.2071 59.4282 27.164 59.3942Z" fill="#1E3C94"/>
<path d="M15.6561 49.2183L15.0113 49.8651C15.0023 49.8742 14.9915 49.8813 14.9795 49.8859C14.9675 49.8905 14.9547 49.8925 14.9419 49.8917C14.9291 49.891 14.9166 49.8875 14.9053 49.8816C14.8939 49.8756 14.884 49.8673 14.8761 49.8572L12.391 46.6744C12.3772 46.6572 12.3701 46.6355 12.3712 46.6135C12.3723 46.5915 12.3814 46.5706 12.3968 46.5548L13.026 45.9081C13.0348 45.8988 13.0456 45.8916 13.0575 45.8868C13.0693 45.8821 13.0821 45.8799 13.0949 45.8805C13.1077 45.881 13.1202 45.8843 13.1317 45.8901C13.1431 45.8958 13.1532 45.904 13.1612 45.914L15.6639 49.0987C15.6775 49.1162 15.6842 49.138 15.6828 49.16C15.6813 49.182 15.6718 49.2028 15.6561 49.2183Z" fill="#EF4036"/>
<path d="M14.7366 50.1354L14.1232 50.7527C14.1126 50.7634 14.0998 50.7717 14.0857 50.777C14.0717 50.7824 14.0566 50.7847 14.0416 50.7837C14.0266 50.7828 14.0119 50.7787 13.9986 50.7717C13.9853 50.7646 13.9737 50.7548 13.9644 50.7429L11.544 47.6463C11.5288 47.6269 11.5208 47.6027 11.5215 47.578C11.5222 47.5533 11.5316 47.5296 11.5479 47.5111L12.1222 46.8624C12.1324 46.8507 12.145 46.8414 12.1593 46.8351C12.1735 46.8289 12.1889 46.8258 12.2044 46.8262C12.2199 46.8266 12.2352 46.8304 12.2491 46.8373C12.263 46.8442 12.2752 46.8541 12.2848 46.8663L14.7445 49.9942C14.7608 50.0146 14.769 50.0403 14.7675 50.0663C14.7661 50.0923 14.7551 50.1169 14.7366 50.1354Z" fill="#EF4036"/>
<path d="M11.0662 48.0994C11.1133 48.0027 11.1871 47.9263 11.2877 47.8701C11.3153 47.8553 11.3472 47.8505 11.3779 47.8566C11.4087 47.8626 11.4363 47.8792 11.4562 47.9034L13.8198 50.8962C13.8734 50.9641 13.8714 51.0301 13.814 51.0941L13.2867 51.6801C13.2764 51.6916 13.2637 51.7007 13.2495 51.7069C13.2354 51.713 13.2201 51.716 13.2048 51.7156C13.1895 51.7153 13.1745 51.7115 13.1609 51.7047C13.1473 51.6979 13.1354 51.6882 13.126 51.6762L10.7742 48.6737C10.7531 48.6462 10.7402 48.6133 10.7371 48.5789C10.7339 48.5445 10.7407 48.5101 10.7566 48.4796C10.801 48.3908 10.8624 48.3157 10.9408 48.2543C10.9944 48.2124 11.0362 48.1608 11.0662 48.0994Z" fill="#EF4036"/>
<path d="M10.6037 48.8932L12.9634 51.8918C12.9789 51.9113 12.9874 51.9355 12.9874 51.9604C12.9874 51.9854 12.9789 52.0096 12.9634 52.029L12.4812 52.6425C12.471 52.6555 12.4579 52.6661 12.4429 52.6733C12.428 52.6806 12.4116 52.6843 12.395 52.6843C12.3784 52.6843 12.362 52.6806 12.3471 52.6733C12.3321 52.6661 12.319 52.6555 12.3088 52.6425L9.95301 49.6576C9.93763 49.6385 9.92908 49.6148 9.92872 49.5903C9.92837 49.5658 9.93623 49.5419 9.95105 49.5224L10.4293 48.8952C10.4393 48.8817 10.4524 48.8707 10.4675 48.863C10.4825 48.8554 10.4991 48.8513 10.516 48.8511C10.5329 48.8509 10.5495 48.8546 10.5648 48.8619C10.58 48.8692 10.5933 48.8799 10.6037 48.8932Z" fill="#EF4036"/>
<path d="M9.78405 49.9535L12.1222 52.9325C12.1368 52.9508 12.1449 52.9734 12.1452 52.9968C12.1456 53.0202 12.1382 53.0431 12.1241 53.0618L11.6714 53.6596C11.6617 53.6723 11.6491 53.6827 11.6348 53.6899C11.6204 53.6971 11.6046 53.7009 11.5886 53.7011C11.5725 53.7013 11.5567 53.6978 11.5421 53.691C11.5276 53.6841 11.5149 53.674 11.5048 53.6615L9.19805 50.7256C9.18469 50.7085 9.17696 50.6876 9.1759 50.6658C9.17485 50.6441 9.18053 50.6225 9.19217 50.6041L9.61354 49.9613C9.62274 49.9475 9.63508 49.936 9.64955 49.9278C9.66401 49.9196 9.6802 49.9149 9.69681 49.9142C9.71341 49.9134 9.72996 49.9166 9.74512 49.9234C9.76028 49.9302 9.77361 49.9405 9.78405 49.9535Z" fill="#EF4036"/>
<path d="M9.04324 51.1035L11.3108 53.9806C11.327 54.0011 11.3362 54.0261 11.3373 54.0522C11.3384 54.0782 11.3311 54.104 11.3167 54.1257L10.9365 54.6784C10.9257 54.6946 10.9111 54.7081 10.8941 54.7176C10.8771 54.7272 10.858 54.7326 10.8385 54.7333C10.819 54.7341 10.7996 54.7302 10.7819 54.722C10.7641 54.7138 10.7486 54.7016 10.7366 54.6862L8.50623 51.8483C8.49076 51.8288 8.48155 51.8051 8.4798 51.7802C8.47805 51.7554 8.48385 51.7306 8.49643 51.7092L8.83941 51.1173C8.84958 51.0999 8.86386 51.0852 8.88099 51.0746C8.89812 51.064 8.91759 51.0578 8.93769 51.0564C8.95779 51.0551 8.97792 51.0587 8.99632 51.0669C9.01471 51.0751 9.03082 51.0877 9.04324 51.1035Z" fill="#EF4036"/>
<path d="M17.3323 51.4233L16.6753 51.9385C16.6216 51.9805 16.6122 52.0582 16.6543 52.1118L19.4236 55.6437C19.4657 55.6973 19.5433 55.7067 19.597 55.6646L20.254 55.1495C20.3077 55.1074 20.3171 55.0298 20.275 54.9761L17.5057 51.4443C17.4636 51.3906 17.386 51.3812 17.3323 51.4233Z" fill="#EF4036"/>
<path d="M8.30107 52.2563L10.5628 55.1373C10.5729 55.1499 10.5789 55.1653 10.58 55.1815C10.581 55.1976 10.5771 55.2137 10.5686 55.2275L10.2021 55.837C10.1956 55.848 10.1865 55.8572 10.1756 55.8638C10.1647 55.8705 10.1523 55.8743 10.1395 55.8751C10.1268 55.8759 10.114 55.8735 10.1024 55.8683C10.0908 55.863 10.0806 55.8549 10.0728 55.8448L7.8307 52.9952C7.82107 52.9832 7.81519 52.9686 7.8138 52.9533C7.8124 52.9379 7.81556 52.9225 7.82287 52.909L8.16976 52.2681C8.17585 52.2565 8.18476 52.2466 8.19567 52.2393C8.20658 52.232 8.21914 52.2276 8.23221 52.2264C8.24528 52.2252 8.25843 52.2273 8.27046 52.2326C8.28249 52.2378 8.29302 52.246 8.30107 52.2563Z" fill="#EF4036"/>
<path d="M16.4213 52.2993L15.7458 52.829C15.7007 52.8644 15.6928 52.9297 15.7282 52.9748L18.4733 56.4758C18.5087 56.5209 18.574 56.5288 18.6191 56.4935L19.2946 55.9638C19.3398 55.9284 19.3477 55.8631 19.3123 55.8179L16.5672 52.3169C16.5318 52.2718 16.4665 52.2639 16.4213 52.2993Z" fill="#EF4036"/>
<path d="M15.2284 53.4378C15.2872 53.3385 15.3656 53.2569 15.4636 53.1929C15.5302 53.1497 15.5877 53.1595 15.6361 53.2223L18.3074 56.6226C18.3297 56.651 18.3405 56.6867 18.3376 56.7227C18.3347 56.7587 18.3183 56.7923 18.2917 56.8167L17.6979 57.3537C17.6495 57.3981 17.6051 57.3942 17.5646 57.3419L14.909 53.9396C14.8645 53.8821 14.8678 53.8279 14.9188 53.7769L15.1187 53.5789C15.1605 53.5358 15.1971 53.4888 15.2284 53.4378Z" fill="#EF4036"/>
<path d="M7.64809 53.5184L9.87254 56.3367C9.8821 56.3488 9.88779 56.3635 9.88884 56.3789C9.88989 56.3943 9.88625 56.4097 9.87842 56.4229L9.53348 57.0305C9.52736 57.0416 9.51857 57.051 9.50791 57.0578C9.49726 57.0647 9.48506 57.0688 9.47243 57.0698C9.45979 57.0707 9.44712 57.0686 9.43554 57.0634C9.42396 57.0583 9.41384 57.0503 9.40609 57.0403L7.22083 54.2416C7.21216 54.2303 7.20682 54.2167 7.20544 54.2025C7.20405 54.1883 7.20667 54.174 7.213 54.1612L7.51874 53.5321C7.52437 53.5204 7.53293 53.5103 7.54358 53.5028C7.55423 53.4952 7.56662 53.4906 7.57958 53.4892C7.59255 53.4878 7.60565 53.4898 7.61763 53.4949C7.62962 53.5 7.64011 53.5081 7.64809 53.5184Z" fill="#EF4036"/>
<path d="M17.3707 57.5166C17.3892 57.5398 17.4029 57.5665 17.4111 57.5951C17.4192 57.6236 17.4216 57.6535 17.4182 57.6831C17.4147 57.7126 17.4054 57.7411 17.3909 57.767C17.3764 57.7929 17.3569 57.8157 17.3335 57.8341L17.0376 58.0634C16.9975 58.0949 16.9528 58.1198 16.9062 58.1368C16.8596 58.1537 16.8119 58.1624 16.7659 58.1622C16.7198 58.162 16.6763 58.153 16.6378 58.1357C16.5994 58.1184 16.5667 58.0932 16.5417 58.0614L14.0997 54.9354C14.0748 54.9035 14.0581 54.8657 14.0505 54.8242C14.043 54.7826 14.0447 54.7382 14.0556 54.6934C14.0665 54.6486 14.0864 54.6043 14.1142 54.5631C14.1419 54.5219 14.177 54.4846 14.2173 54.4533L14.5113 54.222C14.5347 54.2036 14.5615 54.1901 14.5901 54.1821C14.6187 54.1741 14.6487 54.1719 14.6782 54.1755C14.7077 54.1792 14.7362 54.1886 14.7621 54.2033C14.7879 54.218 14.8106 54.2377 14.8288 54.2612L17.3707 57.5166Z" fill="#EF4036"/>
<path d="M7.08756 54.8587L9.22381 57.5849C9.23373 57.5974 9.2402 57.6123 9.24261 57.6281C9.24502 57.6439 9.24327 57.6601 9.23753 57.675L9.00039 58.2826C8.99433 58.2977 8.98437 58.3109 8.97153 58.321C8.95869 58.331 8.94342 58.3374 8.92729 58.3396C8.91115 58.3418 8.89473 58.3396 8.87968 58.3334C8.86463 58.3272 8.85151 58.3171 8.84164 58.3042L6.7093 55.5956C6.69939 55.5831 6.69291 55.5682 6.6905 55.5524C6.6881 55.5365 6.68985 55.5204 6.69558 55.5055L6.92881 54.8842C6.93444 54.8688 6.94407 54.8552 6.95671 54.8448C6.96934 54.8343 6.98454 54.8275 7.00071 54.8249C7.01689 54.8223 7.03346 54.8241 7.04872 54.83C7.06399 54.8359 7.07739 54.8459 7.08756 54.8587Z" fill="#EF4036"/>
<path d="M13.8572 55.1392L16.4697 58.4631C16.4829 58.4803 16.4899 58.5015 16.4896 58.5232C16.4892 58.5449 16.4815 58.5659 16.4677 58.5826L15.9758 59.1726C15.9665 59.1834 15.9549 59.192 15.9419 59.1978C15.9288 59.2036 15.9147 59.2064 15.9004 59.206C15.8861 59.2057 15.8721 59.2021 15.8594 59.1956C15.8467 59.1892 15.8356 59.18 15.8269 59.1687L13.2379 55.8643C13.2248 55.8475 13.2178 55.8268 13.2178 55.8055C13.2178 55.7842 13.2248 55.7636 13.2379 55.7467L13.7063 55.1392C13.7153 55.1278 13.7267 55.1185 13.7398 55.1122C13.7529 55.1058 13.7672 55.1025 13.7817 55.1025C13.7963 55.1025 13.8106 55.1058 13.8237 55.1122C13.8367 55.1185 13.8482 55.1278 13.8572 55.1392Z" fill="#EF4036"/>
<path d="M13.0414 56.1973L15.5892 59.4448C15.6032 59.4627 15.6108 59.4847 15.6108 59.5075C15.6108 59.5302 15.6032 59.5523 15.5892 59.5702L15.1561 60.117C15.1465 60.1292 15.1344 60.1391 15.1204 60.1459C15.1065 60.1527 15.0912 60.1562 15.0757 60.1562C15.0602 60.1562 15.0449 60.1527 15.031 60.1459C15.0171 60.1391 15.0049 60.1292 14.9954 60.117L12.4652 56.9008C12.4514 56.8833 12.4437 56.8617 12.4434 56.8394C12.443 56.8171 12.45 56.7953 12.4632 56.7774L12.8787 56.1992C12.8881 56.1865 12.9002 56.1762 12.9143 56.169C12.9283 56.1618 12.9438 56.1579 12.9596 56.1577C12.9753 56.1575 12.9909 56.161 13.0051 56.1679C13.0193 56.1747 13.0317 56.1848 13.0414 56.1973Z" fill="#EF4036"/>
<path d="M6.58542 56.3111L8.6766 58.9765C8.68521 58.9874 8.69111 59.0002 8.69384 59.0138C8.69656 59.0274 8.69603 59.0415 8.69228 59.0549L8.51393 59.6742C8.50922 59.6895 8.50043 59.7032 8.48852 59.7138C8.47661 59.7245 8.46202 59.7317 8.44632 59.7348C8.43062 59.7378 8.41439 59.7365 8.39937 59.731C8.38436 59.7255 8.37111 59.716 8.36107 59.7036L6.31496 57.0872C6.30717 57.0773 6.30157 57.066 6.29853 57.0538C6.29549 57.0416 6.29508 57.0289 6.29732 57.0166L6.42863 56.3483C6.43178 56.3315 6.43972 56.316 6.45148 56.3037C6.46325 56.2914 6.47834 56.2827 6.49493 56.2788C6.51153 56.2748 6.5289 56.2758 6.54496 56.2815C6.56102 56.2872 6.57508 56.2975 6.58542 56.3111Z" fill="#EF4036"/>
<path d="M21.7836 57.0208L21.0546 57.5904C21.0239 57.6143 21.0185 57.6587 21.0425 57.6894L24.0469 61.5349C24.0709 61.5656 24.1153 61.5711 24.146 61.5471L24.8749 60.9776C24.9056 60.9536 24.9111 60.9092 24.8871 60.8785L21.8826 57.033C21.8586 57.0023 21.8143 56.9968 21.7836 57.0208Z" fill="#1E3C94"/>
<path d="M12.0417 57.391C12.0495 57.3283 12.0809 57.2851 12.1358 57.2616C12.1569 57.252 12.1807 57.2499 12.2035 57.2556C12.2262 57.2612 12.2465 57.2744 12.2612 57.293L14.7287 60.4464C14.7464 60.4692 14.7566 60.497 14.7576 60.5258C14.7587 60.5547 14.7506 60.5831 14.7345 60.6071L14.3896 61.1147C14.3797 61.1292 14.3665 61.1412 14.3511 61.1497C14.3357 61.1582 14.3185 61.1629 14.3009 61.1634C14.2834 61.164 14.2659 61.1604 14.25 61.153C14.2341 61.1455 14.2201 61.1344 14.2093 61.1206L11.7849 58.024C11.7431 57.9704 11.7359 57.9123 11.7634 57.8496C11.8392 57.6758 11.9319 57.5229 12.0417 57.391Z" fill="#EF4036"/>
<path d="M20.7597 57.8697L20.1181 58.3728C20.0653 58.4142 20.056 58.4906 20.0974 58.5434L23.007 62.2541C23.0484 62.3069 23.1248 62.3162 23.1776 62.2748L23.8192 61.7717C23.872 61.7303 23.8813 61.6539 23.8399 61.6011L20.9303 57.8903C20.8889 57.8375 20.8125 57.8283 20.7597 57.8697Z" fill="#1E3C94"/>
<path d="M6.24499 57.9846L8.26561 60.5658C8.27222 60.5747 8.27701 60.5848 8.2797 60.5956C8.28239 60.6063 8.28293 60.6175 8.28129 60.6285L8.18722 61.2949C8.18461 61.3109 8.17738 61.3259 8.16642 61.338C8.15547 61.3501 8.14124 61.3587 8.12548 61.3629C8.10971 61.367 8.09308 61.3665 8.0776 61.3614C8.06212 61.3563 8.04846 61.3468 8.03826 61.3341L6.06076 58.798C6.04816 58.7818 6.04189 58.7616 6.04312 58.7411L6.09408 58.0297C6.09534 58.0127 6.10174 57.9964 6.11244 57.9831C6.12314 57.9698 6.13764 57.9601 6.154 57.9552C6.17036 57.9503 6.18783 57.9505 6.20408 57.9558C6.22032 57.961 6.23459 57.9711 6.24499 57.9846Z" fill="#EF4036"/>
<path d="M27.1639 59.3937C27.1483 59.4238 27.1332 59.4538 27.1189 59.4839L26.0821 58.1747C26.0703 58.1603 26.0736 58.1499 26.0919 58.1433C26.1102 58.1368 26.1272 58.1355 26.1429 58.1394C26.152 58.142 26.1605 58.1479 26.1683 58.1571C26.4845 58.5778 26.8164 58.99 27.1639 59.3937Z" fill="black"/>
<path d="M11.3072 58.6158C11.2928 58.5361 11.3216 58.4773 11.3934 58.4394C11.4165 58.4278 11.4427 58.4244 11.4677 58.4297C11.4927 58.4351 11.515 58.4489 11.5306 58.4688L13.9315 61.5262C13.9522 61.5526 13.9644 61.5845 13.9665 61.6178C13.9686 61.6511 13.9605 61.6841 13.9432 61.7124L13.6336 62.2082C13.6255 62.2214 13.6144 62.2324 13.6011 62.2403C13.5877 62.2482 13.5726 62.2527 13.5571 62.2534C13.5415 62.2542 13.5259 62.2512 13.5116 62.2447C13.4972 62.2382 13.4846 62.2284 13.4748 62.2161L11.121 59.2155C11.0805 59.1633 11.0674 59.1051 11.0818 59.0411C11.1158 58.8817 11.1909 58.7399 11.3072 58.6158Z" fill="#EF4036"/>
<path d="M19.8021 58.7094L19.1676 59.2087C19.1225 59.2442 19.1147 59.3095 19.1502 59.3546L22.0444 63.0325C22.0799 63.0776 22.1452 63.0854 22.1903 63.0499L22.8248 62.5506C22.8699 62.5151 22.8777 62.4498 22.8422 62.4047L19.948 58.7268C19.9125 58.6817 19.8472 58.6739 19.8021 58.7094Z" fill="#1E3C94"/>
<path d="M18.8419 59.6094L18.2836 60.0472C18.2257 60.0926 18.2155 60.1763 18.2609 60.2343L21.0665 63.8124C21.112 63.8703 21.1957 63.8804 21.2537 63.835L21.812 63.3973C21.8699 63.3518 21.88 63.2681 21.8346 63.2101L19.029 59.632C18.9836 59.5741 18.8998 59.564 18.8419 59.6094Z" fill="#1E3C94"/>
<path d="M10.8505 59.6527L13.2612 62.7297C13.2701 62.7413 13.2755 62.7553 13.2765 62.7699C13.2776 62.7846 13.2743 62.7992 13.267 62.812L12.9554 63.3823C12.9497 63.3935 12.9413 63.4031 12.9309 63.4102C12.9205 63.4173 12.9085 63.4216 12.8959 63.4228C12.8834 63.4239 12.8708 63.4219 12.8593 63.4169C12.8477 63.4119 12.8377 63.404 12.83 63.3941L10.4585 60.368C10.4501 60.3574 10.4447 60.3446 10.443 60.3312C10.4413 60.3177 10.4432 60.304 10.4487 60.2916L10.7231 59.6683C10.7283 59.6565 10.7365 59.6461 10.7469 59.6384C10.7572 59.6306 10.7695 59.6257 10.7823 59.6241C10.7952 59.6225 10.8083 59.6243 10.8202 59.6293C10.8322 59.6343 10.8426 59.6424 10.8505 59.6527Z" fill="#EF4036"/>
<path d="M8.13823 63.1962C8.14738 63.2276 8.14542 63.2589 8.13235 63.2903C8.12831 63.3006 8.12161 63.3096 8.11295 63.3165C8.10428 63.3233 8.09395 63.3278 8.083 63.3294C8.07206 63.331 8.06089 63.3297 8.05062 63.3255C8.04036 63.3214 8.03137 63.3147 8.02456 63.3059C7.43137 62.5442 6.83818 61.7857 6.245 61.0305C5.98825 60.7032 6.01177 60.4171 6.00001 60.0271C5.99972 60.0108 6.00451 59.9948 6.01373 59.9813C6.02294 59.9679 6.03613 59.9577 6.05144 59.952C6.06675 59.9464 6.08343 59.9457 6.09915 59.9501C6.11488 59.9544 6.12886 59.9635 6.13917 59.9761L8.02064 62.3848C8.06375 62.441 8.08531 62.505 8.08531 62.5769C8.08401 62.7337 8.08662 62.8865 8.09315 63.0355C8.09741 63.0515 8.10395 63.0753 8.11196 63.1039C8.11996 63.1324 8.1291 63.1645 8.13823 63.1962Z" fill="#EF4036"/>
<path d="M17.9998 60.5047L17.3428 61.0198C17.3207 61.0372 17.3168 61.0692 17.3342 61.0914L20.1785 64.7188C20.1958 64.741 20.2279 64.7449 20.25 64.7275L20.907 64.2123C20.9292 64.195 20.9331 64.1629 20.9157 64.1408L18.0714 60.5133C18.054 60.4912 18.022 60.4873 17.9998 60.5047Z" fill="#1E3C94"/>
<path d="M10.2835 61.0244L12.602 63.9897C12.6108 64.0013 12.6164 64.0149 12.6185 64.0293C12.6205 64.0437 12.6189 64.0584 12.6138 64.072L12.4001 64.6462C12.3947 64.6603 12.3857 64.6726 12.374 64.6821C12.3622 64.6915 12.3483 64.6978 12.3334 64.7001C12.3185 64.7025 12.3033 64.701 12.2892 64.6956C12.2752 64.6903 12.2627 64.6814 12.2532 64.6697L9.96207 61.7319C9.95366 61.7209 9.94802 61.708 9.94563 61.6944C9.94324 61.6807 9.94417 61.6667 9.94835 61.6535L10.1326 61.0538C10.1369 61.0385 10.1455 61.0247 10.1572 61.0139C10.1689 61.0032 10.1834 60.9958 10.199 60.9928C10.2146 60.9898 10.2308 60.9911 10.2457 60.9967C10.2606 61.0022 10.2737 61.0118 10.2835 61.0244Z" fill="#EF4036"/>
<path d="M16.9394 61.5674C16.9629 61.5204 16.9982 61.4838 17.0452 61.4576C17.1027 61.4276 17.151 61.438 17.1902 61.489L19.9066 64.9423C19.951 64.9998 19.9484 65.0546 19.8988 65.1069L19.4402 65.591C19.3866 65.6459 19.3363 65.6433 19.2893 65.5832L16.5905 62.1475C16.5422 62.0861 16.5441 62.0267 16.5964 61.9692L16.8904 61.6399C16.91 61.6177 16.9263 61.5935 16.9394 61.5674Z" fill="#1E3C94"/>
<path d="M18.7721 66.3258C18.7277 66.4029 18.6662 66.4663 18.5879 66.5159C18.5225 66.5564 18.4663 66.5466 18.4193 66.4865L15.7931 63.1469C15.75 63.0907 15.75 63.0352 15.7931 62.9803L16.1733 62.508C16.2334 62.4322 16.2928 62.4322 16.3516 62.508C17.2101 63.6029 18.0672 64.6959 18.923 65.7869C19.0484 65.9476 19.0386 66.1142 18.8701 66.2239C18.8301 66.2497 18.7966 66.2846 18.7721 66.3258Z" fill="#1E3C94"/>
<path d="M8.93795 66.4396C7.95409 65.3519 6.79385 63.9819 6.44107 62.5414C6.43942 62.5318 6.44097 62.5218 6.4455 62.5131C6.45003 62.5043 6.45729 62.4973 6.46617 62.4931C6.47504 62.4889 6.48506 62.4877 6.49468 62.4897C6.5043 62.4917 6.51301 62.4968 6.51947 62.5042C7.04341 63.1902 7.57388 63.8735 8.11088 64.5542C8.54989 65.1108 8.66748 65.7635 9.00066 66.3965C9.09343 66.5729 9.07253 66.5873 8.93795 66.4396Z" fill="#EF4036"/>
<path d="M9.7959 62.5081L12.0674 65.4146C12.073 65.4216 12.077 65.4299 12.079 65.4387C12.0811 65.4475 12.0811 65.4567 12.0792 65.4655L11.9282 66.1201C11.9255 66.131 11.9197 66.1409 11.9117 66.1487C11.9036 66.1565 11.8935 66.162 11.8826 66.1644C11.8716 66.1668 11.8602 66.1662 11.8495 66.1625C11.8389 66.1588 11.8295 66.1523 11.8224 66.1436L9.56268 63.2724C9.55733 63.2656 9.55351 63.2577 9.55148 63.2492C9.54945 63.2408 9.54926 63.232 9.55092 63.2234L9.68811 62.5336C9.69034 62.5221 9.69583 62.5115 9.70393 62.503C9.71203 62.4946 9.7224 62.4887 9.73378 62.486C9.74516 62.4833 9.75708 62.484 9.7681 62.4879C9.77912 62.4918 9.78877 62.4988 9.7959 62.5081Z" fill="#EF4036"/>
<path d="M15.5324 63.5587L18.1782 66.9278C18.1915 66.945 18.1985 66.9662 18.1981 66.9879C18.1978 67.0096 18.1901 67.0305 18.1763 67.0473L17.7823 67.5255C17.7732 67.5368 17.7616 67.5459 17.7485 67.5521C17.7353 67.5582 17.7209 67.5613 17.7064 67.5612C17.6919 67.561 17.6776 67.5575 17.6646 67.551C17.6516 67.5445 17.6403 67.5351 17.6314 67.5236L15.0307 64.2035C15.0185 64.1877 15.0115 64.1683 15.0108 64.1483C15.0101 64.1283 15.0157 64.1085 15.0268 64.0918L15.3756 63.5646C15.384 63.5517 15.3954 63.5411 15.4088 63.5335C15.4221 63.5259 15.4371 63.5216 15.4525 63.5211C15.4679 63.5205 15.4831 63.5236 15.497 63.5302C15.5109 63.5367 15.5231 63.5465 15.5324 63.5587Z" fill="#1E3C94"/>
<path d="M11.7365 67.5175C11.7457 67.605 11.7326 67.6926 11.6973 67.7801C11.6919 67.7935 11.683 67.8052 11.6716 67.814C11.6602 67.8229 11.6467 67.8286 11.6324 67.8306C11.6181 67.8326 11.6036 67.8308 11.5902 67.8253C11.5768 67.8199 11.5651 67.8111 11.5562 67.7997L9.4572 65.1304C9.42454 65.0886 9.4082 65.0409 9.4082 64.9873V64.3621C9.40819 64.347 9.41287 64.3324 9.42159 64.3201C9.43031 64.3078 9.44264 64.2985 9.45686 64.2936C9.47108 64.2886 9.48649 64.2882 9.50095 64.2924C9.51541 64.2966 9.5282 64.3052 9.53756 64.317C10.264 65.2316 10.9833 66.1515 11.6954 67.0765C11.7679 67.1706 11.7796 67.296 11.7463 67.3999C11.7346 67.4378 11.7313 67.477 11.7365 67.5175Z" fill="#EF4036"/>
<path d="M14.7898 64.6717L17.3945 67.9917C17.4025 68.0024 17.4069 68.0153 17.4073 68.0286C17.4076 68.042 17.4039 68.0551 17.3965 68.0662L17.0417 68.6208C17.0361 68.6295 17.0284 68.6368 17.0194 68.6419C17.0103 68.647 17.0002 68.6499 16.9898 68.6503C16.9794 68.6507 16.9691 68.6486 16.9597 68.6441C16.9503 68.6397 16.9422 68.633 16.9359 68.6248L14.3371 65.3106C14.3288 65.3001 14.324 65.2873 14.3233 65.274C14.3226 65.2607 14.3261 65.2474 14.3332 65.2361L14.684 64.6776C14.6895 64.6687 14.697 64.6613 14.706 64.656C14.7149 64.6507 14.725 64.6476 14.7354 64.6471C14.7458 64.6465 14.7562 64.6484 14.7656 64.6527C14.7751 64.657 14.7834 64.6635 14.7898 64.6717Z" fill="#1E3C94"/>
<path d="M13.9997 65.9771C14.0084 65.9643 14.0201 65.9538 14.0337 65.9464C14.0474 65.939 14.0625 65.935 14.078 65.9346C14.0935 65.9342 14.1089 65.9375 14.1229 65.9442C14.1368 65.9509 14.149 65.9609 14.1584 65.9732L16.6259 69.1168C16.6473 69.1435 16.6602 69.1759 16.663 69.2098C16.6658 69.2437 16.6583 69.2775 16.6416 69.3069L16.4025 69.7361C16.3554 69.8184 16.3025 69.8224 16.2437 69.7479C15.4833 68.7797 14.7222 67.8129 13.9605 66.8473C13.6861 66.4965 13.7664 66.3064 13.9997 65.9771Z" fill="#1E3C94"/>
<path d="M12.1601 70.4552C12.1642 70.4654 12.1644 70.4767 12.1607 70.4871C12.157 70.4974 12.1496 70.5061 12.14 70.5114C12.1303 70.5166 12.1191 70.5182 12.1084 70.5158C12.0976 70.5134 12.0882 70.5072 12.0817 70.4983C11.3546 69.5536 9.62209 67.8054 9.63385 66.6079C9.63516 66.5295 9.65998 66.521 9.70832 66.5825C10.3289 67.3677 10.943 68.1523 11.5506 68.9363C11.9093 69.4007 11.9622 69.8986 12.1601 70.4552Z" fill="#EF4036"/>
<path d="M13.5693 67.3256L16.0387 70.4751C16.0461 70.4848 16.0509 70.4961 16.0526 70.5082C16.0543 70.5202 16.0529 70.5324 16.0485 70.5437L15.8466 71.1101C15.8423 71.1219 15.835 71.1323 15.8253 71.1403C15.8156 71.1483 15.804 71.1535 15.7916 71.1555C15.7792 71.1575 15.7666 71.1562 15.7549 71.1517C15.7432 71.1471 15.7329 71.1396 15.7251 71.1297L13.287 68.0155C13.2803 68.0067 13.2757 67.9964 13.2737 67.9856C13.2716 67.9747 13.2722 67.9634 13.2753 67.9528L13.4458 67.3492C13.4494 67.3367 13.4565 67.3254 13.4661 67.3167C13.4757 67.3079 13.4876 67.302 13.5003 67.2996C13.5131 67.2972 13.5263 67.2983 13.5385 67.3029C13.5506 67.3075 13.5613 67.3154 13.5693 67.3256Z" fill="#1E3C94"/>
<path d="M70.4169 75.492C72.5958 75.492 74.3621 73.7257 74.3621 71.5468C74.3621 69.3679 72.5958 67.6016 70.4169 67.6016C68.238 67.6016 66.4717 69.3679 66.4717 71.5468C66.4717 73.7257 68.238 75.492 70.4169 75.492Z" fill="#EF4036"/>
<path d="M13.0628 69.0284C13.0639 69.0118 13.07 68.9959 13.0804 68.9828C13.0908 68.9698 13.1048 68.9602 13.1208 68.9553C13.1367 68.9504 13.1537 68.9505 13.1696 68.9555C13.1855 68.9605 13.1995 68.9702 13.2098 68.9833C13.9245 69.9084 14.6529 70.8413 15.395 71.782C15.638 72.0916 15.6165 72.319 15.5165 72.6679C15.4917 72.7541 15.4512 72.7619 15.395 72.6914L13.0922 69.7672C13.0412 69.7032 13.019 69.6307 13.0255 69.5497L13.0628 69.0284Z" fill="#1E3C94"/>
<path d="M13.163 70.9941C13.8568 71.8486 14.5193 72.7207 15.2033 73.5792C15.6109 74.0907 15.7109 74.6042 15.8814 75.198C15.9232 75.347 15.8971 75.3607 15.803 75.2392C15.0563 74.2788 13.0455 72.1857 13.0886 71.0196C13.0912 70.9438 13.116 70.9353 13.163 70.9941Z" fill="#1E3C94"/>
</svg>
