<svg width="100" height="100" viewBox="0 0 100 100" fill="none" xmlns="http://www.w3.org/2000/svg">
<rect width="100" height="100" fill="white"/>
<path fill-rule="evenodd" clip-rule="evenodd" d="M55.1177 41.9674L63.0866 40.2261C74.3611 37.7178 83.699 32.0091 89.8363 22.0432C89.8374 22.0409 89.8382 22.0384 89.8387 22.036C89.8397 22.0315 89.8395 22.0269 89.8384 22.0224C89.8365 22.0155 89.8323 22.0094 89.8264 22.0053C89.8206 22.0013 89.8134 21.9994 89.8062 22.0002C89.8037 22.0004 89.8013 22.001 89.7989 22.0018C89.7945 22.0034 89.7906 22.0059 89.7875 22.0093C85.6619 26.3906 80.318 28.8914 74.5754 30.3618L63.9065 33.077L57.31 34.6452C51.9525 35.8988 46.7327 37.482 41.6506 39.3949C32.7177 42.6418 24.9192 47.5357 18.2551 54.0768C16.9789 55.3326 15.5938 56.9036 14.1968 58.4884L14.1946 58.4908C13.2829 59.5249 12.366 60.5649 11.471 61.5268C10.8166 62.2312 10.8441 62.2588 11.5536 61.6095C14.4607 58.9506 17.8941 57.39 21.8091 56.8446C26.0692 56.3855 30.4473 56.4808 34.7886 56.5752L34.7952 56.5755C36.6029 56.6148 38.4041 56.6539 40.1876 56.6528C49.3964 56.189 57.6861 53.2682 65.0571 47.8904C65.1147 47.8503 65.1111 47.8427 65.0459 47.8679C58.3267 50.5605 51.3357 51.893 44.0725 51.8655C43.5243 51.8651 42.9744 51.8616 42.4231 51.8565C41.8394 51.851 41.2541 51.8438 40.6678 51.8365C36.4723 51.7848 32.2232 51.7323 28.1158 52.3356C27.2208 52.4684 27.2108 52.4208 28.0858 52.1927C29.6553 51.784 31.4102 51.5069 33.3508 51.3615C34.8949 51.2473 36.4539 51.1491 38.0206 51.0505C44.3942 50.6492 50.8941 50.24 57.0281 48.7065C65.6803 46.6632 72.7379 42.1766 78.2008 35.247C78.2028 35.2427 78.2035 35.238 78.2028 35.2334C78.2019 35.2288 78.1997 35.2246 78.1964 35.2213C78.1931 35.218 78.1888 35.2158 78.1842 35.215C78.1797 35.2142 78.1749 35.2148 78.1708 35.2169C73.5853 38.8071 68.4006 41.2553 62.6165 42.5615C58.3293 43.464 54.4645 44.0607 51.0222 44.3516C44.6516 44.8882 38.7636 45.7606 33.3583 46.969L30.9589 47.6234L32.5384 47.0443L33.1477 46.8788C38.1119 45.0285 43.7867 43.8966 49.3411 42.9677L55.1177 41.9674ZM42.2494 53.6989C42.2171 53.7229 42.1873 53.75 42.1607 53.7801C42.1537 53.788 42.1469 53.7961 42.1403 53.8044C42.1719 53.7647 42.2086 53.7291 42.2494 53.6989Z" fill="url(#paint0_linear_51_75)"/>
<path d="M53.6434 65.7874H52.1504C52.0251 65.7874 51.9624 65.7247 51.9624 65.5994V63.0835C51.9624 62.9757 52.0163 62.9243 52.1241 62.9293L53.3839 62.9782C53.4375 62.9808 53.491 62.9722 53.5411 62.9531C53.5913 62.9339 53.637 62.9046 53.6754 62.8668C53.7139 62.8291 53.7442 62.7838 53.7646 62.7337C53.785 62.6836 53.7949 62.6299 53.7939 62.5758L53.7337 59.9245C53.7287 59.759 53.8089 59.6763 53.9744 59.6763H57.1823C57.3402 59.6763 57.4179 59.7552 57.4154 59.9132L57.3665 62.7525C57.366 62.7805 57.3711 62.8083 57.3815 62.8343C57.3918 62.8603 57.4073 62.8839 57.4269 62.9039C57.4465 62.9238 57.4699 62.9397 57.4957 62.9505C57.5215 62.9613 57.5491 62.9669 57.5771 62.9669H59.4011C59.4789 62.9668 59.5538 62.997 59.6099 63.051C59.666 63.105 59.699 63.1786 59.7019 63.2565L59.7884 65.5354C59.7959 65.7034 59.7157 65.7874 59.5477 65.7874H57.6034C57.5306 65.7874 57.4608 65.8159 57.4093 65.8667C57.3578 65.9175 57.3289 65.9864 57.3289 66.0582C57.3164 67.8633 57.3126 69.6509 57.3176 71.4209C57.3214 73.3314 57.6636 74.625 59.6342 75.0387C59.6756 75.047 59.7144 75.0647 59.7479 75.0904C59.7813 75.1162 59.8085 75.1493 59.8273 75.1873C59.8462 75.2254 59.8562 75.2673 59.8566 75.3099C59.857 75.3526 59.8479 75.3949 59.8298 75.4336L58.6564 77.8743C58.6038 77.9846 58.5173 78.0222 58.397 77.9871C52.7484 76.2534 53.5757 70.477 53.8089 65.9604C53.8139 65.8451 53.7588 65.7874 53.6434 65.7874Z" fill="#FA620D"/>
<path d="M17.7698 70.8456C18.0293 73.8015 21.9179 72.8613 23.7042 71.8873C23.7382 71.869 23.7756 71.858 23.8141 71.855C23.8526 71.852 23.8912 71.857 23.9277 71.8697C23.9641 71.8825 23.9975 71.9026 24.0257 71.929C24.0539 71.9553 24.0763 71.9872 24.0916 72.0227L25.137 74.4483C25.1496 74.4775 25.1559 74.5091 25.1556 74.5409C25.1553 74.5727 25.1484 74.6041 25.1353 74.6331C25.1222 74.6621 25.1033 74.6881 25.0796 74.7093C25.0559 74.7306 25.0281 74.7467 24.9979 74.7567C22.3428 75.6141 18.631 76.0729 16.2091 74.3656C13.5804 72.5153 13.3886 68.3823 14.5093 65.6596C15.9196 62.226 21.0567 61.9929 23.644 63.6438C25.5921 64.8811 25.9606 68.1905 26.002 70.398C26.0025 70.4225 25.9981 70.4469 25.9891 70.4697C25.98 70.4925 25.9665 70.5133 25.9494 70.5308C25.9322 70.5483 25.9117 70.5622 25.8891 70.5717C25.8665 70.5812 25.8422 70.5861 25.8177 70.5861L17.924 70.6763C17.8112 70.6763 17.7598 70.7327 17.7698 70.8456ZM17.9767 67.9047L22.0232 68.0025C22.0924 68.0035 22.1592 67.9772 22.2091 67.9294C22.2591 67.8815 22.2882 67.8159 22.2902 67.7467L22.2939 67.7054C22.3014 67.4132 22.2506 67.1224 22.1446 66.8497C22.0386 66.577 21.8794 66.3276 21.6761 66.1159C21.4728 65.9042 21.2294 65.7344 20.9598 65.616C20.6903 65.4977 20.3999 65.4333 20.1052 65.4264H20.015C19.421 65.4121 18.8458 65.6323 18.4156 66.0385C17.9855 66.4446 17.7356 67.0036 17.7209 67.5926V67.6339C17.7199 67.6685 17.7258 67.7029 17.7381 67.7352C17.7504 67.7676 17.7689 67.7972 17.7927 67.8223C17.8164 67.8474 17.8449 67.8677 17.8765 67.8818C17.908 67.8959 17.9421 67.9037 17.9767 67.9047Z" fill="#FA620D"/>
<path d="M36.991 62.8316C37.0171 62.8354 37.042 62.845 37.0639 62.8599C37.0858 62.8748 37.104 62.8945 37.1174 62.9175C37.1307 62.9406 37.1388 62.9665 37.141 62.9933C37.1432 63.0201 37.1395 63.0471 37.1302 63.0723L36.1336 65.5958C36.0809 65.7311 35.9869 65.7712 35.8515 65.7161C30.8836 63.7267 32.2074 72.6621 32.3503 74.9524C32.3603 75.1128 32.2851 75.193 32.1247 75.193L28.8378 75.1893C28.7175 75.1893 28.6561 75.1279 28.6535 75.005C28.6047 68.5253 27.2583 61.4327 36.991 62.8316Z" fill="#FA620D"/>
<path d="M46.461 74.3094C44.7487 75.3197 43.02 75.5379 41.275 74.9637C38.7554 74.1326 38.1123 71.4099 39.7256 69.4167C41.2525 67.5326 43.7947 67.4348 46.1827 67.3822C46.3131 67.3797 46.3871 67.3145 46.4046 67.1866C46.4823 66.6476 46.3658 66.1599 46.0549 65.7237C46.0114 65.6625 45.9556 65.6116 45.8913 65.5745C45.8269 65.5375 45.7557 65.5152 45.6826 65.5093C43.9301 65.3589 42.2616 65.6736 40.6771 66.4533C40.6556 66.4635 40.6323 66.4694 40.6086 66.4706C40.5849 66.4717 40.5612 66.4682 40.5391 66.4601C40.517 66.452 40.4968 66.4396 40.4798 66.4236C40.4628 66.4075 40.4493 66.3882 40.4402 66.3668L39.2781 63.7004C39.2129 63.5525 39.258 63.4585 39.4135 63.4184C42.1287 62.7114 47.8751 61.5945 49.62 64.6369C50.4963 66.1599 50.0976 70.0259 50.1728 71.88C50.218 72.963 50.4662 73.907 50.7332 74.9637C50.7708 75.1142 50.7119 75.1894 50.5564 75.1894L47.2884 75.1856C47.212 75.1857 47.1375 75.1618 47.0754 75.1172C47.0133 75.0727 46.9668 75.0098 46.9424 74.9374L46.7732 74.426C46.718 74.258 46.614 74.2191 46.461 74.3094ZM46.5516 70.6331C46.4379 70.3137 46.1168 70.0828 45.6589 69.9913C45.2011 69.8998 44.6441 69.9551 44.1104 70.1452C43.8461 70.2393 43.5956 70.3636 43.373 70.5111C43.1504 70.6585 42.9601 70.8262 42.8131 71.0046C42.6661 71.183 42.5651 71.3686 42.516 71.5508C42.467 71.7329 42.4707 71.9081 42.527 72.0663C42.6408 72.3857 42.9619 72.6166 43.4197 72.7081C43.8775 72.7996 44.4345 72.7443 44.9682 72.5543C45.2325 72.4602 45.4831 72.3358 45.7057 72.1883C45.9283 72.0409 46.1185 71.8732 46.2655 71.6948C46.4126 71.5164 46.5135 71.3308 46.5626 71.1487C46.6117 70.9665 46.608 70.7913 46.5516 70.6331Z" fill="#FA620D"/>
<path d="M65.3994 70.6951C65.3503 70.6959 65.3022 70.7088 65.2593 70.7327C65.2164 70.7566 65.1801 70.7908 65.1537 70.8321C65.1273 70.8735 65.1115 70.9207 65.1077 70.9697C65.104 71.0186 65.1125 71.0677 65.1324 71.1126C66.2907 73.7676 69.1902 72.8463 71.2698 71.97C71.3267 71.9462 71.3907 71.9459 71.4477 71.9692C71.5048 71.9925 71.5504 72.0374 71.5744 72.0941L72.5673 74.4107C72.64 74.5787 72.5886 74.6903 72.4131 74.7454C68.2237 76.0692 62.5074 76.2459 61.4694 70.7327C61.0934 68.7208 61.4018 65.6182 63.0339 64.0989C64.5607 62.6773 67.5016 62.3577 69.3556 62.8879C72.9095 63.9071 73.3796 67.1563 73.451 70.3266C73.4535 70.4996 73.3683 70.5873 73.1953 70.5898L65.3994 70.6951ZM65.2941 67.9423L69.5286 67.9649C69.5526 67.9654 69.5765 67.9611 69.5989 67.9522C69.6212 67.9434 69.6415 67.9302 69.6587 67.9133C69.6759 67.8965 69.6895 67.8765 69.6988 67.8543C69.7081 67.8322 69.7129 67.8084 69.7129 67.7844V67.7279C69.7144 67.437 69.6603 67.1487 69.5536 66.8793C69.4469 66.61 69.2897 66.365 69.0909 66.1582C68.8922 65.9515 68.6559 65.7871 68.3955 65.6744C68.135 65.5618 67.8556 65.503 67.5731 65.5016H67.2797C66.7093 65.4987 66.161 65.7292 65.7555 66.1425C65.3499 66.5558 65.1204 67.118 65.1173 67.7054V67.7618C65.1173 67.809 65.1358 67.8544 65.1689 67.8881C65.2019 67.9219 65.2469 67.9413 65.2941 67.9423Z" fill="#FA620D"/>
<path d="M80.6606 66.1636L82.635 63.0798C82.6459 63.0638 82.6604 63.0507 82.6775 63.0415C82.6945 63.0323 82.7135 63.0274 82.7328 63.0271L86.2866 62.9707C86.3087 62.9703 86.3304 62.976 86.3495 62.9872C86.3685 62.9983 86.3841 63.0145 86.3946 63.0339C86.4051 63.0533 86.41 63.0752 86.4089 63.0972C86.4077 63.1192 86.4006 63.1405 86.3882 63.1588L82.4319 68.766C82.4183 68.7859 82.4111 68.8095 82.4111 68.8337C82.4111 68.8578 82.4183 68.8814 82.4319 68.9013L86.6401 75.0049C86.6522 75.0227 86.6593 75.0433 86.6608 75.0646C86.6622 75.086 86.6579 75.1074 86.6484 75.1266C86.6388 75.1458 86.6242 75.162 86.6063 75.1737C86.5883 75.1854 86.5675 75.192 86.5461 75.193L82.8494 75.287C82.8284 75.2876 82.8077 75.2827 82.7892 75.2728C82.7707 75.2629 82.7552 75.2483 82.7441 75.2306L80.5064 71.7369C80.4957 71.7204 80.4811 71.7068 80.4639 71.6972C80.4467 71.6877 80.4275 71.6825 80.4078 71.6821C80.3881 71.6818 80.3687 71.6862 80.3511 71.6951C80.3336 71.704 80.3185 71.7171 80.3071 71.7331L78.0432 75.0125C78.0327 75.0279 78.0187 75.0408 78.0024 75.0499C77.9861 75.059 77.9679 75.0643 77.9492 75.0651L74.2825 75.2644C74.2601 75.2655 74.2379 75.2604 74.2183 75.2495C74.1987 75.2387 74.1825 75.2226 74.1716 75.203C74.1607 75.1835 74.1554 75.1613 74.1564 75.1389C74.1574 75.1166 74.1646 75.0949 74.1772 75.0764L78.4832 69.0856C78.4973 69.066 78.5053 69.0426 78.5059 69.0185C78.5066 68.9944 78.5 68.9706 78.487 68.9502L74.6322 63.2227C74.6208 63.2045 74.6145 63.1836 74.6139 63.1622C74.6133 63.1407 74.6184 63.1195 74.6288 63.1007C74.6392 63.0819 74.6543 63.0662 74.6728 63.0552C74.6913 63.0443 74.7123 63.0385 74.7338 63.0384L78.4456 63.076C78.4653 63.0767 78.4845 63.0822 78.5015 63.0921C78.5185 63.1019 78.5329 63.1158 78.5434 63.1324L80.4576 66.1598C80.4681 66.1771 80.4828 66.1914 80.5004 66.2015C80.518 66.2116 80.5378 66.2171 80.5581 66.2174C80.5783 66.2178 80.5983 66.2131 80.6163 66.2037C80.6342 66.1942 80.6495 66.1804 80.6606 66.1636Z" fill="#FA620D"/>
<defs>
<linearGradient id="paint0_linear_51_75" x1="69.8257" y1="55.0696" x2="20.3725" y2="31.0011" gradientUnits="userSpaceOnUse">
<stop offset="0.0751006" stop-color="#083C7B"/>
<stop offset="0.272958" stop-color="#1F6EB5"/>
<stop offset="0.405851" stop-color="#5AC4F2"/>
<stop offset="0.52691" stop-color="#3287BE"/>
<stop offset="0.712666" stop-color="#0A4480"/>
<stop offset="0.897045" stop-color="#04336D"/>
</linearGradient>
</defs>
</svg>
