<svg width="100" height="100" viewBox="0 0 100 100" fill="none" xmlns="http://www.w3.org/2000/svg">
<rect width="100" height="100" fill="#D7ECFF"/>
<path d="M58.7038 37.8509C50.4433 32.1894 43.1166 22.4559 47.3842 11.8436C48.0388 10.2185 48.7747 8.61742 49.5918 7.04038C49.6006 7.02469 49.6145 7.01246 49.6312 7.00573C49.6478 6.999 49.6663 6.99817 49.6835 7.00338C49.7008 7.00859 49.7157 7.01952 49.7259 7.03436C49.736 7.04921 49.7408 7.06708 49.7394 7.08502C48.9978 12.6882 48.9635 19.4175 51.2844 24.7082C52.7745 28.1095 54.5255 31.3688 56.5374 34.4862C57.1485 35.4338 58.1648 36.5737 58.824 37.741C58.8348 37.7574 58.8395 37.7771 58.8371 37.7966C58.8347 37.8161 58.8254 37.8341 58.8109 37.8474C58.7964 37.8606 58.7776 37.8683 58.758 37.8689C58.7384 37.8696 58.7191 37.8632 58.7038 37.8509Z" fill="#356CAC"/>
<path d="M62.1957 43.5946C65.5844 46.2005 68.4512 50.5711 70.1198 54.4679C71.1738 56.9262 71.1497 58.6394 71.4656 60.9534C71.4656 60.9606 71.4633 60.9677 71.4591 60.9735C71.4549 60.9793 71.449 60.9837 71.4421 60.986C71.4353 60.9883 71.4279 60.9883 71.421 60.9862C71.4142 60.984 71.4081 60.9798 71.4038 60.974C67.8744 55.6352 63.6514 51.7453 58.1924 48.4733C54.9686 46.5404 51.7069 44.5559 48.8573 42.0908C42.7838 36.8447 40.8062 26.7096 43.7073 19.3967C43.7166 19.3706 43.7349 19.3488 43.7589 19.335C43.7828 19.3211 43.8109 19.3163 43.8381 19.3212C43.8653 19.3262 43.8898 19.3406 43.9074 19.362C43.9249 19.3833 43.9343 19.4102 43.9339 19.4379C43.9911 24.0042 45.3244 28.0166 47.9337 31.475C48.847 32.6836 50.3668 34.1576 52.4932 35.8971C55.6884 38.5156 58.9226 41.0814 62.1957 43.5946Z" fill="#100A09"/>
<path d="M62.636 55.7693C67.2778 58.9932 70.0897 62.7012 70.591 68.5206C70.8679 71.7548 70.6093 75.0027 69.8151 78.2644C69.8083 78.2915 69.7917 78.3151 69.7686 78.3308C69.7454 78.3464 69.7173 78.3529 69.6896 78.3491C69.6619 78.3453 69.6366 78.3313 69.6186 78.31C69.6006 78.2887 69.591 78.2614 69.5919 78.2335C69.6834 73.8365 68.4578 70.0221 65.9148 66.7902C65.1618 65.8335 63.4955 64.2702 60.9159 62.1003C52.5009 55.0243 42.6507 47.5671 40.5839 36.0244C40.5823 36.0099 40.5858 35.9954 40.5939 35.9833C40.6019 35.9713 40.6139 35.9624 40.6279 35.9583C40.6418 35.9542 40.6567 35.9552 40.67 35.961C40.6833 35.9668 40.6941 35.977 40.7006 35.99C42.8601 40.6559 47.0454 44.7038 51.1619 47.6633C54.9637 50.3962 58.7884 53.0982 62.636 55.7693Z" fill="#356CAC"/>
<path d="M29 74.3708V72.2181C29.7519 66.0931 34.6306 55.3709 42.8191 59.7518C47.4712 62.241 43.8044 69.0835 41.4938 71.9778C40.1754 73.6258 39.4041 74.6501 39.1798 75.0506C37.4082 78.2127 37.0168 82.1473 39.633 85.045C46.8498 93.0377 59.735 88.7427 60.4182 78.1372C60.6208 74.9923 59.117 72.3829 57.0742 70.0895C54.0712 66.7203 51.0407 63.3728 47.9828 60.0471C44.4087 56.1571 41.1745 51.5977 40.8277 46.1456C40.8263 46.127 40.8315 46.1085 40.8424 46.0934C40.8533 46.0782 40.8692 46.0674 40.8873 46.0629C40.9054 46.0584 40.9245 46.0604 40.9413 46.0686C40.958 46.0769 40.9713 46.0907 40.9788 46.1078C44.0791 52.4011 49.1192 57.5305 54.609 61.7843C60.9641 66.7008 69.9559 73.8284 65.6025 83.1979C63.1763 88.4234 59.0735 91.3955 53.2941 92.1142C49.5472 92.5811 45.9205 92.4129 42.4139 91.6095C34.4967 89.7933 29.7176 82.0614 29 74.3708Z" fill="#100A09"/>
</svg>
