<svg width="100" height="100" viewBox="0 0 100 100" fill="none" xmlns="http://www.w3.org/2000/svg">
<rect width="100" height="100" fill="#716043"/>
<path d="M78.3949 20.99L78.2349 21.81C78.2201 21.8889 78.1831 21.9619 78.1282 22.0204C78.0732 22.0788 78.0027 22.1204 77.9249 22.14C73.8316 23.23 69.8316 24.8217 65.9249 26.915C61.1983 25.065 56.0466 23.1867 50.4699 21.28C50.3033 21.2233 50.0733 21.2617 49.7799 21.395C49.9033 21.235 49.8266 21.15 49.5499 21.14C49.4599 21.1367 49.3616 21.1567 49.2549 21.2C43.165 23.6133 37.0566 25.9017 30.93 28.065C30.8409 28.0969 30.7639 28.1558 30.7093 28.2336C30.6547 28.3114 30.6253 28.4045 30.625 28.5V41.51C30.6253 41.5415 30.6332 41.5724 30.6481 41.6002C30.663 41.6279 30.6844 41.6516 30.7104 41.6693C30.7364 41.687 30.7664 41.6981 30.7976 41.7017C30.8289 41.7053 30.8606 41.7013 30.89 41.69L49.7649 34.6L78.5149 45.34C78.6815 45.6967 78.6549 45.9133 78.4349 45.99C74.4482 47.4 70.5482 49.1483 66.7349 51.235L49.7649 44.915L30.905 51.97C30.7183 52.04 30.625 52.1733 30.625 52.37V67C30.6246 67.0432 30.6347 67.0859 30.6545 67.1243C30.6744 67.1627 30.7033 67.1956 30.7388 67.2203C30.7743 67.2449 30.8153 67.2605 30.8582 67.2657C30.9011 67.2709 30.9446 67.2655 30.985 67.25L49.7499 60.36L78.6299 71.26L78.6249 71.58C78.6249 71.7533 78.5432 71.8683 78.3799 71.925C73.6399 73.615 68.8482 75.615 64.0049 77.925L50.1949 72.925C49.9044 72.8183 49.5854 72.8183 49.2949 72.925L20.275 83.555C20.0917 83.6217 20 83.5567 20 83.36L20.005 21.995C20.0053 21.8051 20.0627 21.6199 20.1698 21.4637C20.2769 21.3075 20.4286 21.1877 20.605 21.12L49.5499 10.05C49.7266 9.98333 49.9033 9.98333 50.0799 10.05L78.3949 20.99Z" fill="#F58223"/>
<path d="M78.3953 20.99L79.1253 21.29C79.2819 21.3567 79.3603 21.475 79.3603 21.645L79.3553 31.75C75.1186 30.64 70.642 29.0283 65.9253 26.915C69.832 24.8217 73.8319 23.23 77.9253 22.14C78.0031 22.1203 78.0736 22.0788 78.1285 22.0203C78.1835 21.9619 78.2205 21.8889 78.2353 21.81L78.3953 20.99Z" fill="#D3631D"/>
<path d="M49.78 21.395L49.765 34.6L30.89 41.69C30.8606 41.7013 30.8289 41.7053 30.7977 41.7017C30.7664 41.6981 30.7365 41.687 30.7104 41.6693C30.6844 41.6516 30.663 41.6279 30.6481 41.6002C30.6333 41.5724 30.6253 41.5415 30.625 41.51V28.5C30.6253 28.4045 30.6547 28.3114 30.7093 28.2336C30.7639 28.1558 30.841 28.0969 30.93 28.065C37.0567 25.9017 43.165 23.6133 49.255 21.2C49.3616 21.1567 49.46 21.1367 49.55 21.14C49.8266 21.15 49.9033 21.235 49.78 21.395Z" fill="white"/>
<path d="M65.9251 26.915C70.6418 29.0283 75.1184 30.64 79.3551 31.75L79.3651 45.105C78.9884 45.345 78.7051 45.4233 78.5151 45.34L49.7651 34.6L49.7801 21.395C50.0735 21.2617 50.3035 21.2233 50.4701 21.28C56.0468 23.1867 61.1985 25.065 65.9251 26.915Z" fill="#897050"/>
<path d="M49.765 44.915L49.75 60.36L30.985 67.25C30.9447 67.2655 30.9011 67.2709 30.8582 67.2657C30.8153 67.2606 30.7743 67.245 30.7388 67.2203C30.7033 67.1957 30.6744 67.1627 30.6546 67.1243C30.6347 67.0859 30.6246 67.0433 30.625 67V52.37C30.625 52.1734 30.7183 52.04 30.905 51.97L49.765 44.915Z" fill="white"/>
<path d="M49.765 44.915L66.735 51.235L79.3549 55.77L79.3499 71.115C79.0999 71.2184 78.8599 71.2667 78.6299 71.26L49.75 60.36L49.765 44.915Z" fill="#897050"/>
<path d="M79.3653 45.105L79.3553 55.77L66.7354 51.235C70.5487 49.1483 74.4487 47.4 78.4353 45.99C78.6553 45.9133 78.682 45.6966 78.5153 45.34C78.7053 45.4233 78.9887 45.345 79.3653 45.105Z" fill="#D3631D"/>
<path d="M79.3499 71.1152L79.3249 83.2402C79.3249 83.4669 79.2182 83.5402 79.0049 83.4602L64.0049 77.9252C68.8482 75.6152 73.6399 73.6152 78.3799 71.9252C78.5432 71.8686 78.6249 71.7536 78.6249 71.5802L78.6299 71.2602C78.8599 71.2669 79.0999 71.2186 79.3499 71.1152Z" fill="#D3631D"/>
</svg>
