<svg width="100" height="100" viewBox="0 0 100 100" fill="none" xmlns="http://www.w3.org/2000/svg">
<g clip-path="url(#clip0_51_79)">
<rect width="100" height="100" fill="#FCE842"/>
<path d="M78.1491 27.7063L75.8241 31.9313C75.7888 31.9942 75.7724 32.0661 75.7769 32.1381C75.7814 32.2102 75.8066 32.2794 75.8495 32.3375C75.8924 32.3956 75.9512 32.4401 76.0187 32.4656C76.0863 32.4911 76.1598 32.4965 76.2304 32.4813L79.1804 31.8375C79.3091 31.8092 79.443 31.8141 79.5694 31.852C79.6957 31.8898 79.8103 31.9593 79.9023 32.0538C79.9943 32.1483 80.0606 32.2647 80.0951 32.392C80.1295 32.5193 80.1309 32.6533 80.0991 32.7813C79.1741 36.6313 77.5574 40.2313 75.2491 43.5813L73.7679 45.3563C71.3304 48.2979 68.5387 50.55 65.3929 52.1125C65.3599 52.1306 65.3334 52.1585 65.317 52.1923C65.3006 52.2261 65.2951 52.2642 65.3012 52.3012C65.3074 52.3383 65.325 52.3725 65.3515 52.3992C65.378 52.4258 65.4121 52.4436 65.4491 52.45L73.9929 53.6438L75.4866 53.9688L87.3929 57.325L90.4803 58.575C90.5803 58.6172 90.6642 58.6908 90.7192 58.7846C90.7743 58.8784 90.7976 58.9872 90.7856 59.0947C90.7736 59.2021 90.7269 59.3023 90.6527 59.3799C90.5784 59.4576 90.4806 59.5085 90.3741 59.525L86.3241 60.1438L76.3178 60.0938C75.8554 60.0938 75.7866 60.2563 76.1116 60.5813L76.7554 61.2188C76.7895 61.2523 76.8146 61.2938 76.8287 61.3396C76.8428 61.3853 76.8453 61.4341 76.8361 61.4815C76.8268 61.5289 76.8061 61.5736 76.7757 61.6117C76.7453 61.6498 76.7061 61.6801 76.6616 61.7C76.0408 61.975 75.3074 62.0875 74.4616 62.0375C74.0116 61.9125 73.4845 61.9125 72.8803 62.0375C70.497 62.0334 68.0679 62.0313 65.5929 62.0313C63.6929 62.0313 62.5804 61.3313 61.1304 60.2688C62.8012 59.1771 64.0595 57.7688 64.9054 56.0438C65.0262 55.7938 65.0408 55.5688 64.9491 55.3688C64.9173 55.2979 64.8669 55.237 64.8033 55.1924C64.7397 55.1478 64.6652 55.1212 64.5877 55.1155C64.5103 55.1097 64.4327 55.125 64.3632 55.1597C64.2937 55.1943 64.2348 55.2472 64.1929 55.3125C61.7262 59.1167 58.1887 60.5771 53.5804 59.6938C53.3387 59.6479 53.2949 59.7209 53.4491 59.9125C54.1408 60.7834 55.0033 61.3063 56.0366 61.4813C55.8866 61.8688 56.072 62.3063 56.5929 62.7938C56.7174 62.9082 56.8132 63.0504 56.8725 63.2088C56.9318 63.3672 56.9528 63.5374 56.9339 63.7055C56.915 63.8735 56.8568 64.0348 56.7638 64.1761C56.6709 64.3174 56.5459 64.4348 56.3991 64.5188L52.2866 66.8938C52.1533 66.9688 52.1074 67.0792 52.1491 67.225L52.5491 68.5875C52.5687 68.6542 52.5672 68.7252 52.545 68.791C52.5227 68.8568 52.4806 68.9141 52.4246 68.9551C52.3686 68.9961 52.3012 69.0188 52.2318 69.0201C52.1623 69.0215 52.0942 69.0014 52.0366 68.9625L51.1929 68.3813C51.0929 67.9604 50.8074 67.9396 50.3366 68.3188C49.7866 68.7646 49.5262 69.4084 49.5554 70.25C49.297 70.5375 49.0304 70.6146 48.7554 70.4813C48.5637 70.3896 48.4324 70.2042 48.3616 69.925C48.2949 69.6542 48.2616 69.3646 48.2616 69.0563C48.2637 69.0046 48.2484 68.9538 48.2182 68.9119C48.1879 68.8699 48.1446 68.8393 48.0949 68.8249C48.0453 68.8105 47.9922 68.8132 47.9443 68.8325C47.8963 68.8518 47.8562 68.8865 47.8304 68.9313L47.2554 69.85C47.2193 69.9053 47.1682 69.9491 47.108 69.9761C47.0478 70.0031 46.981 70.0122 46.9158 70.0023C46.8506 69.9924 46.7895 69.964 46.74 69.9203C46.6905 69.8767 46.6546 69.8198 46.6366 69.7563C46.4741 69.1479 46.6179 68.6188 47.0679 68.1688C47.1036 68.1367 47.1274 68.0934 47.1353 68.0461C47.1433 67.9988 47.1351 67.9501 47.1119 67.9081C47.0887 67.866 47.0519 67.8331 47.0076 67.8146C46.9633 67.7961 46.914 67.7932 46.8679 67.8063L46.1179 67.9938C45.9927 68.0278 45.8592 68.0106 45.7467 67.9462C45.6341 67.8817 45.5518 67.7752 45.5179 67.65C45.4839 67.5249 45.501 67.3913 45.5655 67.2788C45.6299 67.1663 45.7365 67.084 45.8616 67.05L49.7741 65.9125C49.9366 65.9459 50.0408 65.9354 50.0866 65.8813C51.7449 64.1604 51.6158 62.5688 49.6991 61.1063C49.7116 60.8188 49.597 60.5625 49.3554 60.3375C49.3428 59.675 49.4574 59.0896 49.6991 58.5813C49.7949 58.3813 49.7387 58.2417 49.5303 58.1625L46.3428 56.9375C46.2375 56.8953 46.1231 56.8806 46.0105 56.8948C45.8978 56.9091 45.7907 56.9517 45.6991 57.0188C44.6658 57.7604 43.7137 57.9125 42.8429 57.475C40.4887 56.2834 38.5949 55.8084 37.1616 56.05L33.4179 56.4563C33.2012 56.4771 33.0241 56.5709 32.8866 56.7375C31.9741 57.8292 30.8533 58.5979 29.5241 59.0438C28.9116 59.3604 28.4804 59.8084 28.2304 60.3875L27.2804 60.6938C27.0345 60.7688 26.9033 60.6792 26.8866 60.425C26.7179 58.025 27.8366 56.5063 27.4804 53.9688C27.9179 51.4854 29.2574 49.6667 31.4991 48.5125C33.8866 47.5875 37.8241 47.5313 38.6304 44.6125C38.6436 44.5634 38.667 44.5176 38.6991 44.4781C38.7312 44.4386 38.7712 44.4063 38.8166 44.3833C38.862 44.3603 38.9117 44.3471 38.9626 44.3446C39.0134 44.3421 39.0642 44.3504 39.1116 44.3688L39.6491 44.5688C39.8658 44.6521 39.9449 44.8063 39.8866 45.0313L39.5429 46.3125C39.5256 46.3737 39.5256 46.4384 39.5428 46.4996C39.5601 46.5608 39.594 46.6162 39.6409 46.6598C39.6878 46.7035 39.7459 46.7338 39.809 46.7475C39.8721 46.7612 39.9378 46.7577 39.9991 46.7375C41.9949 46.075 44.047 45.9 46.1554 46.2125C46.372 46.2459 46.5533 46.1834 46.6991 46.025L49.7241 42.7875L51.1866 41.25C55.2741 36.6834 59.0345 32.0229 62.4679 27.2688C62.6054 27.0771 62.7574 27.0646 62.9241 27.2313L63.4678 27.7813C63.6304 27.9438 63.7866 27.9354 63.9366 27.7563C64.6241 26.9438 65.1304 26.0209 65.4554 24.9875L66.2179 23.075C66.3887 22.85 66.497 22.6146 66.5429 22.3688L70.1054 11.0188C70.1367 10.9195 70.1946 10.8308 70.2728 10.7622C70.3511 10.6936 70.4466 10.6478 70.5491 10.6297C70.6516 10.6117 70.7571 10.6221 70.854 10.6598C70.951 10.6976 71.0358 10.7612 71.0991 10.8438C73.2054 13.6 73.5054 18.7313 73.5741 22.325C73.5758 22.3547 73.5855 22.3833 73.6023 22.4078C73.6191 22.4323 73.6423 22.4517 73.6694 22.4639C73.6964 22.4762 73.7263 22.4808 73.7558 22.4772C73.7853 22.4737 73.8132 22.4621 73.8366 22.4438L77.8554 19.075C77.9265 19.0151 78.0116 18.974 78.1027 18.9554C78.1939 18.9369 78.2883 18.9415 78.3772 18.9689C78.4661 18.9962 78.5467 19.0455 78.6117 19.1121C78.6767 19.1786 78.7239 19.2605 78.7491 19.35C79.6033 22.3834 79.4033 25.1688 78.1491 27.7063ZM71.9804 27.3063C71.6491 31.0625 69.6554 41.1125 66.3054 43.9063C63.6845 46.0938 61.1158 48.3396 58.5991 50.6438C58.3449 50.8771 58.3741 51.075 58.6866 51.2375C58.7559 51.2729 58.8344 51.2875 58.9129 51.2798C58.9914 51.272 59.0668 51.2422 59.1303 51.1938C61.9804 48.9896 64.7699 46.6604 67.4991 44.2063C70.6491 41.3625 72.4741 32.5688 72.9554 28.75C73.1679 27.1188 72.1679 21.1438 70.0366 20.6063C69.9658 20.5896 69.9033 20.5896 69.8491 20.6063C69.6574 20.6688 69.6262 20.7771 69.7553 20.9313C71.4345 22.9146 72.1762 25.0396 71.9804 27.3063ZM54.2429 48.9688C54.8387 49.0938 55.3283 48.9438 55.7116 48.5188C58.6741 45.2438 61.2616 41.6917 63.4741 37.8625C65.1158 35.0209 65.5158 32.1667 64.6741 29.3C64.6324 29.1459 64.5304 29.0667 64.3679 29.0625C64.3095 29.0625 64.2512 29.0625 64.1929 29.0625C64.1619 29.0637 64.1316 29.0716 64.104 29.0857C64.0765 29.0998 64.0523 29.1197 64.0333 29.1441C64.0142 29.1685 64.0007 29.1968 63.9937 29.227C63.9868 29.2571 63.9865 29.2885 63.9929 29.3188C65.4679 35.8938 58.2929 44.0375 54.0616 48.3688C53.7616 48.6771 53.822 48.8771 54.2429 48.9688ZM29.8741 53.3438C29.8624 53.4403 29.8806 53.5381 29.9262 53.6239C29.9718 53.7098 30.0427 53.7796 30.1292 53.8239C30.2158 53.8681 30.3138 53.8848 30.4101 53.8716C30.5065 53.8584 30.5964 53.816 30.6679 53.75C31.2179 53.2584 31.5512 52.6521 31.6679 51.9313C31.6755 51.8847 31.6711 51.837 31.6549 51.7926C31.6388 51.7483 31.6116 51.7088 31.5758 51.6781C31.54 51.6473 31.4969 51.6263 31.4506 51.617C31.4044 51.6077 31.3565 51.6105 31.3116 51.625C30.4449 51.9084 29.9658 52.4813 29.8741 53.3438Z" fill="#B52223"/>
<path d="M66.5427 22.3688C66.4969 22.6147 66.3886 22.8501 66.2177 23.0751C61.6469 24.2751 56.8698 25.098 51.8865 25.5438C51.3906 25.5897 51.1448 25.3626 51.149 24.8626L51.2302 18.0126C51.231 17.9592 51.2424 17.9066 51.2635 17.8576C51.2847 17.8086 51.3153 17.7643 51.3536 17.7272C51.3919 17.69 51.4372 17.6608 51.4868 17.6411C51.5364 17.6215 51.5894 17.6118 51.6427 17.6126C55.7386 17.6918 59.8031 18.348 63.8365 19.5813C65.3865 20.0563 65.7615 21.0501 66.5427 22.3688Z" fill="#1F7C2F"/>
<path d="M49.4239 25.5501C44.5614 25.8689 40.2739 25.1626 35.5114 24.8376C35.1656 24.8126 35.0802 24.6501 35.2552 24.3501L38.0864 19.5626C38.2114 19.3501 38.3927 19.2105 38.6302 19.1439C42.1344 18.173 45.7031 17.6668 49.3364 17.6251C49.5614 17.6209 49.6739 17.7334 49.6739 17.9626V25.2814C49.6739 25.448 49.5906 25.5376 49.4239 25.5501Z" fill="#1F7C2F"/>
<path d="M35.6045 20.5499L33.5673 24.1682C33.5377 24.2226 33.4913 24.266 33.4349 24.2919C33.3786 24.3178 33.3155 24.3248 33.2548 24.3119L29.1804 23.487C29.1207 23.4751 29.0664 23.4446 29.0252 23.3998C28.984 23.3551 28.958 23.2984 28.9511 23.238C28.9442 23.1775 28.9566 23.1164 28.9865 23.0635C29.0165 23.0106 29.0625 22.9685 29.1179 22.9434L35.2358 20.1437C35.2914 20.118 35.3537 20.1108 35.4137 20.1229C35.4737 20.1351 35.5282 20.1661 35.5693 20.2114C35.6105 20.2568 35.6361 20.314 35.6424 20.3749C35.6487 20.4358 35.6355 20.4971 35.6045 20.5499Z" fill="#1F7C2F"/>
<path d="M71.9805 27.3062C72.1763 25.0396 71.4346 22.9146 69.7555 20.9313C69.6263 20.7771 69.6576 20.6688 69.8492 20.6062C69.9034 20.5896 69.9659 20.5896 70.0367 20.6062C72.168 21.1438 73.168 27.1187 72.9555 28.75C72.4742 32.5687 70.6492 41.3625 67.4992 44.2063C64.7701 46.6604 61.9805 48.9896 59.1305 51.1938C59.0669 51.2422 58.9915 51.272 58.913 51.2797C58.8345 51.2875 58.7561 51.2728 58.6867 51.2375C58.3742 51.075 58.3451 50.8771 58.5992 50.6437C61.1159 48.3396 63.6846 46.0938 66.3055 43.9062C69.6555 41.1125 71.6492 31.0625 71.9805 27.3062Z" fill="#870D19"/>
<path d="M27.4675 46.2875C25.7341 45.2834 24.0404 44.2417 22.3862 43.1625C22.1737 43.0209 21.9883 42.9604 21.83 42.9813C21.6383 43.0063 21.4591 43.1125 21.2925 43.3C21.232 43.3666 21.1482 43.4074 21.0578 43.4143C20.9673 43.4213 20.877 43.3939 20.805 43.3375C18.53 41.5584 16.7758 39.4354 15.5425 36.9688C18.255 31.9729 21.9446 27.8688 26.6112 24.6563C26.7737 24.5438 26.9508 24.5104 27.1425 24.5563L32.4487 25.8563C32.4883 25.8667 32.5252 25.8854 32.5568 25.9112C32.5885 25.9369 32.6141 25.9691 32.6319 26.0054C32.6498 26.0417 32.6594 26.0812 32.6602 26.1213C32.6609 26.1614 32.6527 26.2011 32.6362 26.2375C29.7529 32.5917 28.03 39.275 27.4675 46.2875Z" fill="#1F7C2F"/>
<path d="M65.4548 24.9873C65.1298 26.0206 64.6236 26.9436 63.9361 27.7561C63.7861 27.9352 63.6298 27.9436 63.4673 27.7811L62.9236 27.2311C62.7569 27.0644 62.6048 27.0769 62.4673 27.2686C59.034 32.0227 55.2736 36.6831 51.1861 41.2498L51.1236 27.6998C51.1217 27.5564 51.1745 27.4179 51.2712 27.3131C51.3678 27.2083 51.5008 27.1453 51.6423 27.1373C56.1965 26.8165 60.8007 26.0998 65.4548 24.9873Z" fill="#1F7C2F"/>
<path d="M49.7243 42.7877L46.6993 46.0252C46.5535 46.1836 46.3722 46.2461 46.1556 46.2127C44.0472 45.9002 41.9951 46.0752 39.9993 46.7377C39.938 46.7579 39.8723 46.7614 39.8092 46.7477C39.7461 46.734 39.688 46.7037 39.6411 46.66C39.5942 46.6164 39.5603 46.561 39.5431 46.4998C39.5258 46.4386 39.5258 46.374 39.5431 46.3127L39.8868 45.0315C39.9452 44.8065 39.866 44.6523 39.6493 44.569L39.1118 44.369C39.0644 44.3506 39.0136 44.3424 38.9628 44.3449C38.9119 44.3474 38.8622 44.3605 38.8168 44.3835C38.7714 44.4065 38.7314 44.4388 38.6993 44.4783C38.6672 44.5178 38.6438 44.5636 38.6306 44.6127C37.8243 47.5315 33.8868 47.5877 31.4993 48.5127L28.9556 46.9752C29.4764 39.7627 31.2431 32.9336 34.2556 26.4877C34.3514 26.2836 34.5097 26.2023 34.7306 26.244C39.5556 27.1357 44.4243 27.4773 49.3368 27.269C49.5576 27.2607 49.6681 27.3648 49.6681 27.5815L49.7243 42.7877Z" fill="#1F7C2F"/>
<path d="M78.149 27.7063C86.8907 35.7688 89.9719 45.6417 87.3928 57.325L75.4865 53.9688C75.7282 50.448 75.649 46.9855 75.249 43.5813C77.5574 40.2313 79.174 36.6313 80.099 32.7813C80.1308 32.6533 80.1294 32.5193 80.095 32.392C80.0606 32.2647 79.9942 32.1483 79.9022 32.0538C79.8102 31.9593 79.6956 31.8899 79.5693 31.852C79.443 31.8142 79.3091 31.8092 79.1803 31.8375L76.2303 32.4813C76.1597 32.4965 76.0862 32.4911 76.0187 32.4656C75.9511 32.4401 75.8923 32.3956 75.8494 32.3376C75.8065 32.2795 75.7813 32.2102 75.7768 32.1382C75.7723 32.0661 75.7887 31.9943 75.824 31.9313L78.149 27.7063Z" fill="#1F7C2F"/>
<path d="M54.2426 48.9688C53.8217 48.8771 53.7613 48.6771 54.0613 48.3687C58.2926 44.0375 65.4676 35.8938 63.9926 29.3187C63.9862 29.2885 63.9865 29.2571 63.9934 29.227C64.0004 29.1968 64.0139 29.1685 64.033 29.1441C64.052 29.1197 64.0762 29.0997 64.1037 29.0857C64.1313 29.0716 64.1616 29.0637 64.1926 29.0625C64.2509 29.0625 64.3092 29.0625 64.3676 29.0625C64.5301 29.0667 64.6321 29.1458 64.6738 29.3C65.5155 32.1667 65.1155 35.0208 63.4738 37.8625C61.2613 41.6917 58.6738 45.2437 55.7113 48.5187C55.328 48.9437 54.8384 49.0938 54.2426 48.9688Z" fill="#870D19"/>
<path d="M15.5427 36.9688C16.776 39.4355 18.5302 41.5584 20.8052 43.3375C20.8773 43.3939 20.9676 43.4213 21.058 43.4144C21.1484 43.4074 21.2322 43.3666 21.2927 43.3C21.4594 43.1125 21.6385 43.0063 21.8302 42.9813C21.9885 42.9605 22.1739 43.0209 22.3864 43.1625C24.0406 44.2417 25.7344 45.2834 27.4677 46.2875C27.8385 46.625 28.3344 46.8542 28.9552 46.975L31.4989 48.5125C29.2573 49.6667 27.9177 51.4855 27.4802 53.9688C22.3302 53.8146 17.3469 52.6105 12.5302 50.3563C9.90103 49.0855 7.63644 47.2313 5.73644 44.7938C5.69286 44.7374 5.66657 44.6693 5.66085 44.5982C5.65513 44.527 5.67025 44.4559 5.70431 44.3938C5.73837 44.3317 5.78984 44.2813 5.85227 44.2491C5.9147 44.2168 5.9853 44.2041 6.05519 44.2125L9.43644 44.5875C9.49355 44.5927 9.55085 44.58 9.60034 44.551C9.64982 44.522 9.68902 44.4783 9.71243 44.426C9.73585 44.3736 9.74232 44.3153 9.73093 44.2591C9.71955 44.2029 9.69088 44.1516 9.64894 44.1125C8.30519 42.9063 5.58019 41.2375 6.93019 39.125C7.05102 38.9334 7.21769 38.8792 7.43019 38.9625L11.8177 40.7063C11.859 40.7235 11.9039 40.7296 11.9483 40.724C11.9927 40.7184 12.035 40.7014 12.0713 40.6745C12.1076 40.6476 12.1367 40.6117 12.1557 40.5702C12.1748 40.5288 12.1832 40.4831 12.1802 40.4375C12.026 38.4917 12.7177 36.9209 14.2552 35.725C14.3257 35.6693 14.4112 35.6362 14.5008 35.6302C14.5903 35.6241 14.6798 35.6453 14.7577 35.6909C14.8356 35.7366 14.8985 35.8047 14.9381 35.8865C14.9777 35.9683 14.9924 36.0601 14.9802 36.15C14.9344 36.45 15.1219 36.723 15.5427 36.9688Z" fill="#870D19"/>
<path d="M75.2488 43.5811C75.6488 46.9852 75.728 50.4477 75.4863 53.9686L73.9926 53.6436L73.7676 45.3561L75.2488 43.5811Z" fill="#FCE842"/>
<path d="M73.7674 45.3562L73.9924 53.6437L65.4487 52.45C65.4116 52.4435 65.3775 52.4258 65.351 52.3991C65.3245 52.3725 65.307 52.3382 65.3008 52.3012C65.2946 52.2641 65.3001 52.226 65.3165 52.1922C65.3329 52.1584 65.3595 52.1305 65.3924 52.1124C68.5382 50.5499 71.3299 48.2979 73.7674 45.3562Z" fill="#1F7C2F"/>
<path d="M12.5298 50.3562C17.3465 52.6104 22.3298 53.8145 27.4798 53.9687C27.836 56.5062 26.7173 58.025 26.886 60.425C26.9027 60.6791 27.034 60.7687 27.2798 60.6937L28.2298 60.3875C29.259 65.9125 30.9215 71.2083 33.2173 76.275C33.3006 76.4541 33.2569 76.5958 33.086 76.7C32.2194 77.2416 31.4819 77.3729 30.8735 77.0937C20.6798 72.45 13.0923 61.9 12.5298 50.3562Z" fill="#1F7C2F"/>
<path d="M29.8741 53.3438C29.9657 52.4814 30.4448 51.9085 31.3114 51.6252C31.3562 51.6107 31.4041 51.6079 31.4504 51.6172C31.4966 51.6265 31.5397 51.6475 31.5755 51.6783C31.6113 51.709 31.6386 51.7485 31.6547 51.7928C31.6708 51.8372 31.6752 51.8849 31.6676 51.9315C31.5509 52.6522 31.2176 53.2584 30.6677 53.75C30.5963 53.8159 30.5063 53.8583 30.41 53.8715C30.3137 53.8847 30.2157 53.8681 30.1292 53.8238C30.0426 53.7795 29.9718 53.7097 29.9261 53.6239C29.8805 53.538 29.8624 53.4403 29.8741 53.3438Z" fill="#870D19"/>
<path d="M61.1302 60.2688C59.5802 61.0896 57.8823 61.4938 56.0365 61.4813C55.0031 61.3063 54.1406 60.7833 53.449 59.9125C53.2948 59.7208 53.3385 59.6479 53.5802 59.6938C58.1885 60.5771 61.726 59.1167 64.1927 55.3125C64.2347 55.2471 64.2935 55.1943 64.363 55.1596C64.4325 55.125 64.5101 55.1097 64.5876 55.1154C64.665 55.1212 64.7395 55.1478 64.8031 55.1924C64.8667 55.237 64.9171 55.2979 64.949 55.3688C65.0406 55.5688 65.026 55.7938 64.9052 56.0438C64.0594 57.7688 62.801 59.1771 61.1302 60.2688Z" fill="#870D19"/>
<path d="M49.3556 60.3376L48.8118 60.0439C48.6035 59.9314 48.416 59.9585 48.2493 60.1251C46.0202 62.3835 43.4848 64.2126 40.6431 65.6126C40.4764 65.6918 40.4139 65.8231 40.4556 66.0064L40.8181 67.6439C40.8473 67.7709 40.831 67.9042 40.772 68.0205C40.7129 68.1367 40.6149 68.2285 40.4951 68.2799C40.3753 68.3312 40.2412 68.3389 40.1163 68.3014C39.9915 68.264 39.8837 68.1839 39.8118 68.0751L39.3181 67.3564C39.1556 67.123 38.9618 67.0939 38.7368 67.2689C38.0285 67.823 37.7993 68.546 38.0493 69.4376C38.0717 69.5121 38.07 69.5914 38.0447 69.6647C38.0193 69.7379 37.9715 69.8016 37.9078 69.8468C37.8441 69.892 37.7676 69.9166 37.6889 69.9172C37.6101 69.9178 37.533 69.8944 37.4681 69.8501C36.8681 69.4418 36.6181 68.8668 36.7181 68.1251C36.7235 68.0818 36.7154 68.0378 36.6949 67.9992C36.6744 67.9606 36.6425 67.9293 36.6036 67.9095C36.5646 67.8897 36.5205 67.8823 36.4773 67.8885C36.434 67.8947 36.3937 67.914 36.3618 67.9439L35.2993 68.9751C35.2612 69.0117 35.2153 69.0391 35.1651 69.0554C35.1149 69.0717 35.0616 69.0764 35.0093 69.0692C34.957 69.062 34.907 69.043 34.8631 69.0137C34.8191 68.9845 34.7824 68.9456 34.7556 68.9001L34.6618 68.7376C34.5327 68.5251 34.5389 68.3147 34.6806 68.1064L35.1681 67.3814C35.3223 67.1564 35.266 67.0731 34.9993 67.1314C34.8702 67.1647 34.7493 67.2147 34.6368 67.2814C34.3243 67.4731 34.1223 67.5647 34.0306 67.5564C33.8723 67.548 33.7327 67.4501 33.6118 67.2626C33.5551 67.1763 33.5304 67.0728 33.5418 66.9701C33.5532 66.8674 33.6001 66.772 33.6743 66.7001C34.6868 65.7168 35.9118 65.2543 37.3493 65.3126C37.4724 65.3182 37.5949 65.2938 37.706 65.2415C37.8171 65.1892 37.9135 65.1106 37.9868 65.0126L42.0868 59.6001C42.241 59.396 42.2098 59.2272 41.9931 59.0939L37.1618 56.0501C38.5952 55.8085 40.4889 56.2835 42.8431 57.4751C43.7139 57.9126 44.666 57.7606 45.6993 57.0189C45.7909 56.9518 45.8981 56.9092 46.0107 56.895C46.1233 56.8807 46.2377 56.8954 46.3431 56.9376L49.5306 58.1626C49.7389 58.2418 49.7952 58.3814 49.6993 58.5814C49.4577 59.0897 49.3431 59.6751 49.3556 60.3376Z" fill="#870D19"/>
<path d="M37.1614 56.05L41.9927 59.0938C42.2093 59.2271 42.2406 59.3959 42.0864 59.6L37.9864 65.0125C37.9131 65.1105 37.8167 65.1891 37.7056 65.2414C37.5945 65.2937 37.472 65.3181 37.3489 65.3125C35.9114 65.2542 34.6864 65.7167 33.6739 66.7C33.5997 66.7719 33.5528 66.8674 33.5414 66.97C33.53 67.0727 33.5547 67.1762 33.6114 67.2626C33.7323 67.4501 33.8718 67.548 34.0302 67.5563C34.1218 67.5646 34.3239 67.473 34.6364 67.2813C34.7489 67.2146 34.8698 67.1646 34.9989 67.1313C35.2656 67.073 35.3218 67.1563 35.1677 67.3813L34.6802 68.1063C34.5385 68.3146 34.5323 68.5251 34.6614 68.7376L34.7552 68.9C34.782 68.9455 34.8187 68.9844 34.8627 69.0137C34.9066 69.0429 34.9566 69.0619 35.0089 69.0691C35.0612 69.0763 35.1145 69.0716 35.1647 69.0553C35.2149 69.039 35.2608 69.0116 35.2989 68.975L36.3614 67.9438C36.3933 67.9139 36.4336 67.8946 36.4769 67.8884C36.5201 67.8823 36.5642 67.8896 36.6032 67.9094C36.6421 67.9292 36.674 67.9605 36.6945 67.9991C36.715 68.0377 36.7231 68.0817 36.7177 68.125C36.6177 68.8667 36.8677 69.4417 37.4677 69.85C37.5326 69.8943 37.6097 69.9177 37.6884 69.9171C37.7672 69.9165 37.8437 69.8919 37.9074 69.8467C37.9711 69.8015 38.0189 69.7379 38.0443 69.6646C38.0696 69.5913 38.0712 69.512 38.0489 69.4375C37.7989 68.5459 38.0281 67.823 38.7364 67.2688C38.9614 67.0938 39.1552 67.123 39.3177 67.3563L39.8114 68.075C39.8833 68.1838 39.991 68.2639 40.1159 68.3013C40.2408 68.3388 40.3749 68.3311 40.4947 68.2798C40.6145 68.2284 40.7125 68.1366 40.7715 68.0204C40.8306 67.9041 40.8469 67.7709 40.8177 67.6438L40.4552 66.0063C40.4135 65.823 40.476 65.6917 40.6427 65.6126C43.4843 64.2126 46.0198 62.3834 48.2489 60.125C48.4156 59.9584 48.6031 59.9313 48.8114 60.0438L49.3552 60.3375C49.5968 60.5625 49.7114 60.8188 49.6989 61.1063L49.7739 65.9125L45.8614 67.05C45.7363 67.084 45.6298 67.1663 45.5653 67.2789C45.5008 67.3914 45.4837 67.5249 45.5177 67.65C45.5517 67.7752 45.634 67.8817 45.7465 67.9462C45.859 68.0107 45.9925 68.0278 46.1177 67.9938L46.8677 67.8063C46.9139 67.7932 46.9631 67.7961 47.0074 67.8146C47.0518 67.8331 47.0885 67.866 47.1117 67.9081C47.1349 67.9501 47.1432 67.9988 47.1352 68.0461C47.1272 68.0935 47.1034 68.1367 47.0677 68.1688C46.6177 68.6188 46.4739 69.148 46.6364 69.7563C46.6544 69.8198 46.6903 69.8767 46.7399 69.9204C46.7894 69.964 46.8504 69.9924 46.9156 70.0023C46.9809 70.0122 47.0476 70.0031 47.1078 69.9761C47.168 69.9491 47.2192 69.9053 47.2552 69.85L47.8302 68.9313C47.8561 68.8866 47.8962 68.8518 47.9441 68.8325C47.9921 68.8132 48.0451 68.8106 48.0947 68.825C48.1444 68.8393 48.1878 68.87 48.218 68.9119C48.2482 68.9538 48.2635 69.0047 48.2614 69.0563C48.2614 69.3646 48.2948 69.6542 48.3614 69.925C48.4323 70.2042 48.5635 70.3896 48.7552 70.4813C49.0302 70.6146 49.2968 70.5375 49.5552 70.25L49.6302 73.7813C49.6343 74.0438 49.5073 74.1813 49.2489 74.1938C44.5364 74.4438 39.8927 75.1417 35.3177 76.2875C35.2222 76.3102 35.1219 76.2996 35.0333 76.2576C34.9447 76.2155 34.873 76.1445 34.8302 76.0563C32.301 70.6355 30.5323 64.9646 29.5239 59.0438C30.8531 58.598 31.9739 57.8292 32.8864 56.7375C33.0239 56.5709 33.201 56.4771 33.4177 56.4563L37.1614 56.05Z" fill="#1F7C2F"/>
<path d="M86.3241 60.1438C83.0824 67.3354 77.9782 72.7896 71.0116 76.5063C70.885 76.5756 70.7398 76.6034 70.5965 76.5856C70.4533 76.5679 70.3193 76.5055 70.2135 76.4073C70.1077 76.3091 70.0355 76.1801 70.0071 76.0385C69.9787 75.897 69.9956 75.7501 70.0553 75.6187C71.9512 71.3396 73.4199 66.8125 74.4616 62.0375C75.3074 62.0875 76.0407 61.975 76.6616 61.7C76.7061 61.6801 76.7453 61.6497 76.7757 61.6117C76.8061 61.5736 76.8268 61.5289 76.836 61.4815C76.8453 61.434 76.8428 61.3853 76.8287 61.3395C76.8146 61.2938 76.7894 61.2523 76.7553 61.2187L76.1116 60.5812C75.7866 60.2562 75.8553 60.0938 76.3178 60.0938L86.3241 60.1438Z" fill="#1F7C2F"/>
<path d="M61.1305 60.2688C62.5805 61.3313 63.693 62.0313 65.593 62.0313C68.068 62.0313 70.4971 62.0334 72.8805 62.0375C71.8096 66.6625 70.3075 71.173 68.3742 75.5688C68.3364 75.6504 68.2727 75.717 68.1933 75.7579C68.114 75.7987 68.0235 75.8114 67.9367 75.7938C62.5242 74.6605 57.0534 74.1334 51.5242 74.2125C51.2575 74.2167 51.1263 74.0855 51.1305 73.8188L51.193 68.3813L52.0367 68.9625C52.0943 69.0014 52.1625 69.0215 52.2319 69.0202C52.3013 69.0188 52.3687 68.9961 52.4247 68.9551C52.4808 68.9141 52.5228 68.8568 52.5451 68.791C52.5674 68.7252 52.5688 68.6542 52.5492 68.5875L52.1492 67.225C52.1075 67.0792 52.1534 66.9688 52.2867 66.8938L56.3992 64.5188C56.5461 64.4349 56.671 64.3175 56.764 64.1761C56.8569 64.0348 56.9152 63.8736 56.934 63.7055C56.9529 63.5374 56.9319 63.3672 56.8726 63.2088C56.8133 63.0504 56.7175 62.9082 56.593 62.7938C56.0721 62.3063 55.8867 61.8688 56.0367 61.4813C57.8825 61.4938 59.5805 61.0896 61.1305 60.2688Z" fill="#1F7C2F"/>
<path d="M49.6992 61.1064C51.6156 62.5687 51.7448 64.1602 50.0867 65.8808C50.0408 65.935 49.9367 65.9454 49.7742 65.912L49.6992 61.1064Z" fill="#FCE842"/>
<path d="M37.4491 79.725C36.5574 79.45 36.0636 78.8646 35.9678 77.9688C35.9428 77.7521 36.0366 77.6209 36.2491 77.5751C40.5491 76.5959 44.9053 75.9855 49.3178 75.7438C49.5553 75.7271 49.6741 75.8396 49.6741 76.0813V81.3688C49.6741 81.5688 49.5761 81.6667 49.3803 81.6626C45.4011 81.5959 41.4241 80.95 37.4491 79.725Z" fill="#1F7C2F"/>
<path d="M66.7675 77.0436C66.9759 77.0853 67.1009 77.1249 67.1425 77.1624C67.2484 77.2511 67.329 77.366 67.3764 77.4958C67.4238 77.6256 67.4365 77.7659 67.4133 77.903C67.39 78.0402 67.3315 78.1695 67.2436 78.2785C67.1556 78.3874 67.0411 78.4723 66.9113 78.5249C62.0029 80.4707 56.9029 81.5186 51.6113 81.6686C51.3904 81.6728 51.2759 81.5665 51.2675 81.3499L51.0863 76.3624C51.0838 76.2926 51.095 76.223 51.1195 76.1576C51.1439 76.0922 51.1809 76.0322 51.2285 75.9811C51.2761 75.93 51.3333 75.8888 51.3968 75.8599C51.4604 75.8309 51.529 75.8148 51.5988 75.8124C56.6488 75.654 61.705 76.0644 66.7675 77.0436Z" fill="#1F7C2F"/>
</g>
<defs>
<clipPath id="clip0_51_79">
<rect width="100" height="100" fill="white"/>
</clipPath>
</defs>
</svg>
