<svg width="100" height="100" viewBox="0 0 100 100" fill="none" xmlns="http://www.w3.org/2000/svg">
<rect width="100" height="100" fill="#BF002C"/>
<path d="M9.47052 39.4264C9.69825 39.2422 9.85557 39.2991 10.0653 39.2481C23.1271 36.0928 36.1889 32.934 49.2508 29.7717C49.9804 29.5949 50.4688 29.7492 51.3843 29.9709C64.529 33.1512 77.6742 36.327 90.8199 39.4984C90.8798 39.5123 90.9332 39.5463 90.9713 39.5947C91.0094 39.6432 91.03 39.7032 91.0297 39.765L91.0162 61.1826C91.0162 61.2293 91.0005 61.2745 90.9717 61.3112C90.9429 61.3479 90.9027 61.3738 90.8574 61.3849C77.7596 64.6002 64.6648 67.8094 51.5731 71.0127C50.4703 71.2839 49.7632 71.3888 48.617 71.1071C35.5422 67.8988 22.3326 64.6606 8.98808 61.3924C8.93883 61.3803 8.89507 61.352 8.86383 61.3121C8.83258 61.2721 8.81566 61.2229 8.81578 61.1722C8.7948 54.3251 8.78981 47.4666 8.8008 40.5966C8.8023 40.2235 8.67644 39.2526 9.32968 39.4534C9.38162 39.4694 9.42857 39.4604 9.47052 39.4264ZM14.9691 61.319C26.4668 64.1347 37.9674 66.9404 49.471 69.7362C49.7482 69.8036 50.0973 69.7961 50.3774 69.7272C63.3693 66.5599 76.3602 63.3946 89.3501 60.2313C89.3851 60.2223 89.4026 60.1993 89.4026 60.1623L89.4221 40.7359C89.4221 40.699 89.4046 40.6765 89.3696 40.6685C76.4466 37.5681 63.5247 34.4622 50.6037 31.3508C50.0973 31.2295 49.6898 31.2325 49.2133 31.3463C36.531 34.4028 23.8458 37.4482 11.1576 40.4827C10.8889 40.5466 10.6277 40.5911 10.374 40.6161C10.3524 40.6186 10.3326 40.6289 10.3182 40.6449C10.3038 40.661 10.2959 40.6816 10.2961 40.703L10.2931 60.1923C10.2931 60.2432 10.3175 60.2762 10.3665 60.2912C10.4938 60.3271 10.6766 60.2957 10.7995 60.3241C12.1909 60.6478 13.5807 60.9794 14.9691 61.319Z" fill="white"/>
<path d="M76.4352 45.2818C76.4388 45.292 76.4451 45.301 76.4535 45.3078C76.4619 45.3146 76.472 45.3189 76.4827 45.3203C76.4934 45.3217 76.5043 45.3201 76.5142 45.3157C76.524 45.3113 76.5325 45.3042 76.5386 45.2953C77.7117 43.5378 77.7057 40.8679 75.6666 39.7173C75.6517 39.7093 75.64 39.6965 75.6334 39.6811C75.6267 39.6656 75.6254 39.6484 75.6297 39.6321C75.634 39.6158 75.6437 39.6015 75.6572 39.5914C75.6707 39.5813 75.6872 39.576 75.704 39.5764L83.1534 39.6334C83.2572 39.6334 83.2662 39.6628 83.1803 39.7218C81.7585 40.7031 80.8236 41.6216 80.2677 43.3011C78.284 49.2837 76.2614 55.2677 74.2193 61.2248C74.2108 61.2489 74.1952 61.2698 74.1745 61.2846C74.1539 61.2994 74.1292 61.3073 74.1039 61.3072L67.6868 61.3057C67.527 61.3057 67.4306 61.2268 67.3977 61.0689C66.7295 57.8797 66.0438 54.6404 65.3406 51.3512C65.3296 51.3003 65.3126 51.2703 65.2896 51.2614C65.2673 51.2533 65.244 51.2512 65.2245 51.2554C65.205 51.2596 65.1908 51.2697 65.1848 51.2838L61.099 61.1918C61.0848 61.2259 61.061 61.2551 61.0307 61.2756C61.0003 61.2962 60.9646 61.3071 60.9282 61.3072L53.8579 61.3117C53.7401 61.3117 53.6667 61.2542 53.6377 61.1394C52.4001 56.271 51.1526 51.3707 49.895 46.4385C49.3422 44.266 48.1735 41.0387 46.1988 39.7637C46.1889 39.7572 46.1773 39.7536 46.1655 39.7531C46.1536 39.7526 46.1418 39.7554 46.1314 39.7611C46.1209 39.7667 46.1122 39.7751 46.1062 39.7854C46.1001 39.7956 46.0969 39.8073 46.097 39.8192L46.1014 48.9106C46.1018 48.9213 46.0987 48.9319 46.0925 48.9406C46.0864 48.9494 46.0776 48.956 46.0673 48.9595C46.057 48.963 46.0458 48.9632 46.0353 48.96C46.0247 48.9569 46.0154 48.9506 46.0086 48.942C43.7027 46.0624 40.5983 43.1363 36.9621 42.2988C36.7373 42.2463 36.559 42.2613 36.3298 42.1759C36.178 42.119 36.0182 42.097 35.8504 42.11C35.7924 42.115 35.7635 42.1465 35.7635 42.2044L35.7485 47.5472C35.7485 47.5657 35.7522 47.584 35.7594 47.601C35.7666 47.618 35.7772 47.6334 35.7904 47.6463C35.8037 47.6591 35.8194 47.6692 35.8367 47.6758C35.8539 47.6825 35.8723 47.6856 35.8908 47.685L36.3538 47.6715C36.4027 47.6695 36.4487 47.658 36.4916 47.6371C37.927 46.9419 38.703 45.7852 39.5765 44.5701C39.5919 44.548 39.614 44.5314 39.6395 44.5227C39.665 44.5141 39.6926 44.5138 39.7183 44.522C39.744 44.5303 39.7663 44.5465 39.7821 44.5684C39.7978 44.5902 39.8061 44.6166 39.8058 44.6435L39.8133 55.8026C39.813 55.8261 39.8052 55.849 39.7911 55.8678C39.7769 55.8866 39.7572 55.9005 39.7346 55.9073C39.7121 55.9142 39.6879 55.9137 39.6657 55.9059C39.6435 55.8981 39.6243 55.8834 39.611 55.864C38.6956 54.5126 37.6138 52.818 35.9702 52.2877C35.8364 52.2447 35.7695 52.2932 35.7695 52.433L35.7605 57.8342C35.7605 57.8881 35.7869 57.9136 35.8399 57.9106C40.2522 57.6829 43.8615 54.616 45.9666 50.8928C45.9736 50.8792 45.985 50.8683 45.999 50.8621C46.013 50.8558 46.0286 50.8545 46.0435 50.8583C46.0583 50.8622 46.0714 50.8709 46.0805 50.8832C46.0897 50.8954 46.0944 50.9104 46.094 50.9257L46.1089 61.2383C46.1089 61.2601 46.1003 61.2811 46.0848 61.2965C46.0693 61.312 46.0484 61.3207 46.0265 61.3207L19.2542 61.2772C19.2394 61.277 19.2251 61.2723 19.2131 61.2638C19.2012 61.2552 19.1921 61.2431 19.1872 61.2292C19.1823 61.2153 19.1818 61.2003 19.1857 61.1861C19.1897 61.1719 19.1979 61.1592 19.2092 61.1499C20.0203 60.4916 20.723 59.7315 21.3173 58.8695C21.7742 58.2043 21.8521 57.626 21.8461 56.8439C21.8252 53.9862 21.8217 49.4425 21.8357 43.2127C21.8387 41.9437 20.1891 40.5218 19.2886 39.7862C19.1298 39.6563 19.1528 39.5914 19.3575 39.5914L62.2377 39.5929C62.2481 39.5931 62.2583 39.5964 62.2668 39.6024C62.2754 39.6084 62.2819 39.6168 62.2855 39.6265C62.2891 39.6362 62.2896 39.6466 62.2869 39.6564C62.2843 39.6662 62.2786 39.6749 62.2706 39.6813C61.3312 40.4574 60.8009 41.5751 61.0331 42.7977C61.3492 44.4578 61.9545 46.0894 62.4804 47.688C62.483 47.6957 62.4878 47.7024 62.4942 47.7073C62.5006 47.7122 62.5083 47.7151 62.5163 47.7155C62.5244 47.716 62.5324 47.7141 62.5394 47.71C62.5463 47.7059 62.5519 47.6998 62.5553 47.6925C63.0567 46.5668 63.5447 45.4286 64.0191 44.278C64.3188 43.5498 63.1007 40.5233 62.7831 39.6828C62.7601 39.6219 62.7811 39.5914 62.846 39.5914L74.3751 39.5959C74.44 39.5959 74.4829 39.6264 74.5039 39.6873L76.4352 45.2818Z" fill="white"/>
</svg>
