<svg width="100" height="100" viewBox="0 0 100 100" fill="none" xmlns="http://www.w3.org/2000/svg">
<rect width="100" height="100" fill="#1358AA"/>
<mask id="mask0_51_82" style="mask-type:alpha" maskUnits="userSpaceOnUse" x="24" y="12" width="52" height="76">
<path d="M50.3584 27.247L76 42.1549V72.3875L50 87.5037L24 72.3875V42.1549V12L50.3779 27.2358L50.3584 27.247Z" fill="#FFB946"/>
</mask>
<g mask="url(#mask0_51_82)">
<path d="M50.3584 27.247L76 42.1549V72.3875L50 87.5037L24 72.3875V42.1549V12L50.3779 27.2358L50.3584 27.247Z" fill="#FFB946"/>
<path d="M76.991 41.6397L76.991 72.8917L49.926 57.2657L76.991 41.6397Z" fill="url(#paint0_linear_51_82)"/>
<path d="M49.9984 57.2735L49.9984 87.6505L23.6911 72.462L49.9984 57.2735Z" fill="#F34D8A"/>
<path d="M49.9984 26.8501L49.9984 57.2271L23.6911 42.0386L49.9984 26.8501Z" fill="url(#paint1_linear_51_82)"/>
<path d="M49.9977 57.2735L49.9977 87.6505L76.305 72.462L49.9977 57.2735Z" fill="url(#paint2_linear_51_82)"/>
<path d="M49.9977 26.8501L49.9977 57.2271L76.305 42.0386L49.9977 26.8501Z" fill="url(#paint3_linear_51_82)"/>
<path d="M22.9533 41.6397L22.9533 72.8917L50.0184 57.2657L22.9533 41.6397Z" fill="#1358AA"/>
</g>
<defs>
<linearGradient id="paint0_linear_51_82" x1="78.2673" y1="56.5928" x2="49.9998" y2="56.8951" gradientUnits="userSpaceOnUse">
<stop stop-color="#A32A81"/>
<stop offset="1" stop-color="#2C256B"/>
</linearGradient>
<linearGradient id="paint1_linear_51_82" x1="49.849" y1="40.5698" x2="24.9071" y2="41.7791" gradientUnits="userSpaceOnUse">
<stop stop-color="#FF9931"/>
<stop offset="1" stop-color="#FA952E"/>
</linearGradient>
<linearGradient id="paint2_linear_51_82" x1="49.6979" y1="72.6161" x2="76.3025" y2="72.6161" gradientUnits="userSpaceOnUse">
<stop stop-color="#B50E3D"/>
<stop offset="0.895556" stop-color="#E9155D"/>
</linearGradient>
<linearGradient id="paint3_linear_51_82" x1="64.2095" y1="35.4303" x2="50.6049" y2="58.5582" gradientUnits="userSpaceOnUse">
<stop stop-color="#F36324"/>
<stop offset="1" stop-color="#FFB946"/>
</linearGradient>
</defs>
</svg>
