<svg width="100" height="100" viewBox="0 0 100 100" fill="none" xmlns="http://www.w3.org/2000/svg">
<rect width="100" height="100" fill="#532526"/>
<path d="M22.208 82.9061C20.8457 82.3144 19.0432 81.6952 18.4824 80.6632C14.5299 73.3807 12.4693 65.1832 11.8054 56.9547C11.5302 53.556 11.0555 50.5735 11.4408 46.8274C11.7205 44.1098 11.8891 42.4723 11.9464 41.9151C12.6826 34.6807 14.5058 27.2056 17.7841 20.6731C18.3345 19.5757 19.9479 18.7776 20.8629 18.3304C24.8029 16.4155 28.924 15.0315 33.2263 14.1783C48.634 11.1202 65.8443 12.3276 80.0068 19.5998C80.3646 19.7855 80.884 20.2155 81.1351 20.6593C91.5136 38.9429 90.5779 63.0435 80.7361 81.2996C80.3783 81.9635 80.1272 82.2559 79.3808 82.5346C61.5272 89.2116 40.034 90.653 22.208 82.9061ZM21.1244 79.1634C38.4035 88.0007 60.705 86.2635 78.1045 79.8755C78.2238 79.8319 78.3132 79.7539 78.3728 79.6415C87.4854 62.1457 88.3007 40.0265 78.8097 22.3931C78.7524 22.2899 78.671 22.2107 78.5655 22.1557C64.3755 14.8663 46.9037 14.0442 31.5992 17.5771C27.7257 18.4715 24.0484 19.8899 20.5671 21.8323C20.4639 21.8897 20.387 21.9711 20.3366 22.0766C12.4521 38.5473 12.0944 62.6789 20.8904 78.9329C20.9455 79.0338 21.0234 79.1106 21.1244 79.1634Z" fill="white"/>
<path d="M40.8707 22.7852C43.75 21.7497 46.588 23.1257 48.9822 25.1141C49.0717 25.1897 49.1611 25.1874 49.2506 25.1072C53.8154 21.0205 58.9858 20.7659 62.0336 26.6517C64.617 31.6466 63.6745 37.7148 59.1784 41.2511C55.329 44.2783 51.2182 46.8411 49.0407 51.4369C49.0303 51.4579 49.0143 51.4757 48.9947 51.4884C48.975 51.5011 48.9523 51.5082 48.9292 51.509C48.906 51.5097 48.8833 51.504 48.8635 51.4925C48.8438 51.481 48.8277 51.4641 48.8171 51.4438C46.6224 47.3777 43.7844 44.6051 39.9006 41.3887C36.862 38.8729 35.2372 35.7918 35.0262 32.1454C34.806 28.3167 37.3069 24.0717 40.8707 22.7852Z" fill="white"/>
<path d="M24.9503 65.3487C20.0105 63.7973 16.4397 59.6933 19.4635 54.4164C22.5217 49.0844 28.2355 46.3702 34.1695 48.7645C38.7069 50.5945 42.8865 52.7789 47.957 52.4143C47.9723 52.4136 47.9874 52.4171 48.0009 52.4242C48.0144 52.4313 48.0257 52.4419 48.0338 52.4548C48.0418 52.4678 48.0463 52.4826 48.0467 52.4979C48.0471 52.5131 48.0435 52.5282 48.0361 52.5416C45.7829 56.3153 44.7991 59.7484 43.9666 64.3374C43.5905 66.4059 43.1892 67.9046 42.7626 68.8334C41.163 72.3078 37.5235 75.6481 33.4471 75.6997C29.8076 75.7478 26.3882 74.5438 25.2737 70.8183C24.8058 69.2565 24.9572 67.3577 25.1257 65.6136C25.1315 65.556 25.1172 65.4981 25.0852 65.4499C25.0533 65.4016 25.0056 65.3659 24.9503 65.3487Z" fill="white"/>
<path d="M67.0386 48.2412C72.7456 47.1954 79.0442 50.257 80.0521 56.3905C80.7264 60.4945 77.8987 63.1983 74.4415 64.6259C74.367 64.6559 74.3068 64.7132 74.2729 64.786C74.239 64.8588 74.2341 64.9418 74.2592 65.0181C75.6249 69.1942 74.6101 74.4643 69.6324 75.4482C63.1583 76.7313 56.6361 73.0677 55.3426 66.3734C54.431 61.6572 53.8909 56.9237 50.8362 52.9953C50.8234 52.9785 50.8156 52.9585 50.8135 52.9375C50.8115 52.9165 50.8153 52.8954 50.8246 52.8765C50.8339 52.8575 50.8482 52.8416 50.8661 52.8304C50.8839 52.8191 50.9046 52.8131 50.9257 52.8129C55.0124 52.6753 58.5487 51.6399 62.6629 49.8167C64.6444 48.9384 66.1029 48.4132 67.0386 48.2412Z" fill="white"/>
</svg>
