<svg width="100" height="100" viewBox="0 0 100 100" fill="none" xmlns="http://www.w3.org/2000/svg">
<rect width="100" height="100" fill="#ECE9FF"/>
<path d="M53.6763 19.7476C61.0638 15.8176 68.2588 15.6139 75.2613 19.1364C86.695 24.8889 90.9813 37.3426 87.7375 49.3839C83.83 63.9076 71.005 75.3526 57.2426 80.5501C57.2113 80.5626 57.1766 80.5636 57.1446 80.553C57.1126 80.5424 57.0855 80.5207 57.0679 80.492C57.0504 80.4632 57.0436 80.4291 57.0488 80.3958C57.054 80.3625 57.0708 80.3322 57.0963 80.3101C63.6713 74.4501 68.6275 67.4151 71.965 59.2051C75.49 50.5389 75.6888 37.7289 65.395 33.5701C61.8251 32.1264 57.6776 31.9351 53.8301 32.6064C53.7418 32.6214 53.6617 32.667 53.604 32.735C53.5463 32.8029 53.5148 32.8889 53.5151 32.9776V39.9151C53.5152 39.9408 53.5088 39.9661 53.4964 39.9886C53.484 40.0111 53.466 40.0301 53.4442 40.0436C53.4223 40.0572 53.3974 40.0649 53.3717 40.066C53.3461 40.0672 53.3205 40.0617 53.2976 40.0501L36.8088 31.3576C36.6663 31.2826 36.6488 31.1851 36.7563 31.0651L53.1888 13.0614C53.2144 13.0333 53.2478 13.0136 53.2848 13.0049C53.3217 12.9963 53.3605 12.999 53.3958 13.0129C53.4312 13.0267 53.4615 13.0509 53.4828 13.0823C53.5041 13.1138 53.5154 13.1509 53.5151 13.1889V19.6501C53.5151 19.7726 53.5688 19.8051 53.6763 19.7476Z" fill="#A6CE3B"/>
<path d="M47.4215 80.6776C47.4215 80.6151 47.394 80.5988 47.339 80.6288C41.979 83.5738 36.5352 84.4388 31.0077 83.2238C21.8915 81.2176 14.8265 73.9538 12.6628 64.9163C10.6378 56.4638 13.439 47.0626 18.5353 39.6001C24.8603 30.3326 33.2177 23.7939 43.6077 19.9839C43.9177 19.8714 43.9502 19.9251 43.7052 20.1451C37.6602 25.6051 32.9765 32.0751 29.654 39.5551C25.5365 48.8251 24.269 63.3563 36.4865 67.2226C39.9665 68.3251 43.5152 68.5276 47.1327 67.8301C47.2138 67.8144 47.287 67.7711 47.3396 67.7075C47.3923 67.6439 47.4212 67.5639 47.4215 67.4813V60.4688C47.4215 60.3488 47.474 60.3163 47.579 60.3713L63.9814 69.0751C64.0143 69.0928 64.0428 69.1177 64.0647 69.148C64.0866 69.1783 64.1013 69.2132 64.1078 69.25C64.1143 69.2868 64.1124 69.3246 64.1022 69.3605C64.092 69.3965 64.0738 69.4297 64.0489 69.4576L47.5827 87.6001C47.4752 87.7176 47.4215 87.6963 47.4215 87.5363V80.6776Z" fill="#2E2661"/>
</svg>
