<svg width="100" height="100" viewBox="0 0 100 100" fill="none" xmlns="http://www.w3.org/2000/svg">
<rect width="100" height="100" fill="#595C62"/>
<path d="M17.21 58V40.8203H28.9873V43.7266H20.6787V47.793H27.8506V50.6992H20.6787V58H17.21ZM43.2106 51.6836L46.5739 52.75C46.0583 54.625 45.1989 56.0195 43.9958 56.9336C42.8005 57.8398 41.2809 58.293 39.4372 58.293C37.1559 58.293 35.2809 57.5156 33.8122 55.9609C32.3434 54.3984 31.6091 52.2656 31.6091 49.5625C31.6091 46.7031 32.3473 44.4844 33.8239 42.9062C35.3005 41.3203 37.2419 40.5273 39.6481 40.5273C41.7497 40.5273 43.4567 41.1484 44.7692 42.3906C45.5505 43.125 46.1364 44.1797 46.527 45.5547L43.0934 46.375C42.8903 45.4844 42.4645 44.7812 41.8161 44.2656C41.1755 43.75 40.3942 43.4922 39.4723 43.4922C38.1989 43.4922 37.1637 43.9492 36.3669 44.8633C35.5778 45.7773 35.1833 47.2578 35.1833 49.3047C35.1833 51.4766 35.5739 53.0234 36.3552 53.9453C37.1364 54.8672 38.152 55.3281 39.402 55.3281C40.3239 55.3281 41.1169 55.0352 41.7809 54.4492C42.445 53.8633 42.9216 52.9414 43.2106 51.6836ZM49.2191 49.5156C49.2191 47.7656 49.4808 46.2969 50.0042 45.1094C50.3948 44.2344 50.9261 43.4492 51.598 42.7539C52.2777 42.0586 53.0198 41.543 53.8245 41.207C54.8948 40.7539 56.1292 40.5273 57.5277 40.5273C60.0589 40.5273 62.0823 41.3125 63.598 42.8828C65.1214 44.4531 65.8831 46.6367 65.8831 49.4336C65.8831 52.207 65.1292 54.3789 63.6214 55.9492C62.1136 57.5117 60.098 58.293 57.5745 58.293C55.0198 58.293 52.9886 57.5156 51.4808 55.9609C49.973 54.3984 49.2191 52.25 49.2191 49.5156ZM52.7933 49.3984C52.7933 51.3438 53.2425 52.8203 54.1409 53.8281C55.0394 54.8281 56.18 55.3281 57.5628 55.3281C58.9456 55.3281 60.0784 54.832 60.9613 53.8398C61.8519 52.8398 62.2972 51.3438 62.2972 49.3516C62.2972 47.3828 61.8636 45.9141 60.9964 44.9453C60.137 43.9766 58.9925 43.4922 57.5628 43.4922C56.1331 43.4922 54.9808 43.9844 54.1058 44.9688C53.2308 45.9453 52.7933 47.4219 52.7933 49.3984ZM68.9736 58V40.8203H76.2744C78.1103 40.8203 79.4423 40.9766 80.2705 41.2891C81.1064 41.5938 81.7744 42.1406 82.2744 42.9297C82.7744 43.7188 83.0244 44.6211 83.0244 45.6367C83.0244 46.9258 82.6455 47.9922 81.8877 48.8359C81.1298 49.6719 79.997 50.1992 78.4892 50.418C79.2392 50.8555 79.8564 51.3359 80.3408 51.8594C80.833 52.3828 81.4931 53.3125 82.3213 54.6484L84.4189 58H80.2705L77.7627 54.2617C76.872 52.9258 76.2627 52.0859 75.9345 51.7422C75.6064 51.3906 75.2588 51.1523 74.8916 51.0273C74.5244 50.8945 73.9423 50.8281 73.1455 50.8281H72.4423V58H68.9736ZM72.4423 48.0859H75.0088C76.6728 48.0859 77.7119 48.0156 78.1259 47.875C78.54 47.7344 78.8642 47.4922 79.0986 47.1484C79.333 46.8047 79.4502 46.375 79.4502 45.8594C79.4502 45.2812 79.2939 44.8164 78.9814 44.4648C78.6767 44.1055 78.2431 43.8789 77.6806 43.7852C77.3994 43.7461 76.5556 43.7266 75.1494 43.7266H72.4423V48.0859Z" fill="#F8F8F8"/>
</svg>
