<svg width="100" height="100" viewBox="0 0 100 100" fill="none" xmlns="http://www.w3.org/2000/svg">
<rect width="100" height="100" fill="#FF9E2C"/>
<path d="M48.302 35.0763C48.3086 35.098 48.3195 35.1172 48.3345 35.1338C48.3511 35.1522 48.3595 35.1747 48.3595 35.2013L48.372 58.8763L48.3495 65.2988L40.072 65.2088L40.0645 54.3938L40.0795 40.1613L40.2395 39.4588C40.2561 39.3788 40.3011 39.3205 40.3745 39.2838C42.9411 37.9438 45.4828 36.558 47.9995 35.1263C48.112 35.0613 48.1745 35.0738 48.302 35.0763Z" fill="#FFC631"/>
<path fill-rule="evenodd" clip-rule="evenodd" d="M15.9351 39.5312L38.3099 39.5563V45.4488C38.3099 45.4839 38.2963 45.5176 38.2719 45.5425C38.2476 45.5673 38.2145 45.5813 38.1799 45.5813H18.8975L18.885 50.2737C18.885 50.3487 18.9225 50.3863 18.9976 50.3863L38.1226 50.4037C38.1458 50.4034 38.1686 50.4098 38.1882 50.4222C38.2078 50.4346 38.2235 50.4524 38.2335 50.4736C38.2434 50.4949 38.2472 50.5186 38.2444 50.542C38.2416 50.5655 38.2322 50.5878 38.2175 50.6063L35.3525 54.1238L32.89 57.2312C32.8813 57.2422 32.8718 57.2523 32.8616 57.2616C32.8433 57.2782 32.8226 57.2922 32.8002 57.303C32.765 57.3199 32.7266 57.3287 32.6875 57.3288H19.0625C19.0164 57.3288 18.9783 57.3368 18.9481 57.3528C18.891 57.3829 18.8625 57.4416 18.8625 57.5287L18.8475 65.2812L11.1475 65.2962C11.0492 65.2962 11 65.2446 11 65.1413V39.6813C11 39.649 11.0065 39.6171 11.0189 39.5873C11.0314 39.5575 11.0497 39.5306 11.0728 39.508C11.0958 39.4854 11.1232 39.4676 11.1532 39.4557C11.1831 39.4439 11.2152 39.4381 11.2476 39.4388L15.9351 39.5312ZM16.4087 39.6132C16.4058 39.6101 16.403 39.6078 16.3993 39.6059C16.4027 39.6078 16.4059 39.6102 16.4087 39.6132Z" fill="#FFC631"/>
<path d="M58.0105 39.3911L50.8506 39.4186C50.8234 39.4186 50.7972 39.4291 50.7781 39.4479C50.7588 39.4667 50.748 39.4921 50.748 39.5186L50.7505 65.2761L59.0431 65.2686L59.0481 48.0186C59.0481 47.8403 59.1364 47.752 59.313 47.7536L69.2931 47.7711C69.4147 47.7711 69.4247 47.8044 69.323 47.8711L63.1855 51.8861C63.1494 51.91 63.1198 51.9424 63.0992 51.9803C63.0789 52.0183 63.0681 52.0607 63.068 52.1036L63.0656 65.2736L71.3706 65.2611L71.3805 47.9036C71.3805 47.8153 71.4247 47.7703 71.5131 47.7686L74.6755 47.7536L80.8779 47.7686C80.9763 47.7703 80.9863 47.8011 80.908 47.8611L75.7605 51.8386C75.6371 51.9336 75.5763 52.0594 75.578 52.2161L75.6205 65.2536L83.8605 65.2636L83.8855 55.8911L83.8929 39.5636L58.0105 39.3911Z" fill="#FFC631"/>
<path d="M63.0655 65.2737L59.043 65.2687L59.048 48.0187C59.048 47.8404 59.1363 47.752 59.313 47.7537L69.293 47.7712C69.4146 47.7712 69.4246 47.8045 69.323 47.8712L63.1855 51.8862C63.1494 51.9101 63.1197 51.9425 63.0992 51.9804C63.0787 52.0184 63.068 52.0607 63.068 52.1037L63.0655 65.2737Z" fill="#01042E"/>
<path d="M74.6751 47.7537L80.8776 47.7687C80.976 47.7703 80.986 47.8012 80.9076 47.8612L75.7601 51.8387C75.6368 51.9337 75.576 52.0595 75.5776 52.2162L75.6201 65.2537L71.3701 65.2612L71.3801 47.9037C71.3801 47.8153 71.4243 47.7703 71.5126 47.7687L74.6751 47.7537Z" fill="#01042E"/>
<path fill-rule="evenodd" clip-rule="evenodd" d="M40.08 40.1612L38.31 39.5562V45.4487C38.31 45.4838 38.2963 45.5175 38.2719 45.5423C38.2476 45.5672 38.2145 45.5812 38.18 45.5812H18.8975L18.885 50.2737C18.885 50.3486 18.9225 50.3862 18.9975 50.3862L38.1225 50.4037C38.1458 50.4033 38.1685 50.4097 38.1882 50.4221C38.2078 50.4345 38.2235 50.4523 38.2335 50.4735C38.2435 50.4948 38.2472 50.5185 38.2444 50.542C38.2416 50.5654 38.2322 50.5877 38.2175 50.6062L35.3525 54.1236C35.5211 54.0732 35.6525 54.0705 35.7466 54.1154C35.6525 54.0705 35.5212 54.0733 35.3527 54.1237L32.8902 57.2312C32.8661 57.2616 32.8353 57.2861 32.8003 57.303C32.7652 57.3199 32.7267 57.3287 32.6877 57.3287H19.0627C18.9293 57.3287 18.8627 57.3954 18.8627 57.5287L18.8477 65.2812L40.0727 65.2087L40.0652 54.3937C40.0651 54.3936 40.0651 54.3935 40.065 54.3935L40.08 40.1612ZM39.9639 53.9633C39.9444 53.9535 39.9164 53.9553 39.88 53.9686L38.9275 54.3137C38.8968 54.3244 38.8723 54.3254 38.854 54.3167C38.8723 54.3255 38.8969 54.3245 38.9277 54.3137L39.8802 53.9687C39.9165 53.9554 39.9444 53.9536 39.9639 53.9633ZM38.7817 54.1847C38.7773 54.1827 38.7726 54.1815 38.7675 54.1812C38.4492 54.1628 38.1292 54.1595 37.8075 54.1712C37.7158 54.1745 37.635 54.207 37.565 54.2687C37.3133 54.4953 37.02 54.597 36.685 54.5737C36.605 54.567 36.5358 54.5903 36.4775 54.6437C36.2695 54.8336 36.046 54.8713 35.8068 54.7567C36.046 54.8714 36.2696 54.8337 36.4777 54.6437C36.536 54.5904 36.6052 54.5671 36.6852 54.5737C37.0202 54.5971 37.3135 54.4954 37.5652 54.2687C37.6352 54.2071 37.716 54.1746 37.8077 54.1712C38.1293 54.1596 38.4493 54.1629 38.7677 54.1812C38.7727 54.1816 38.7774 54.1827 38.7817 54.1847Z" fill="#01042E"/>
<path fill-rule="evenodd" clip-rule="evenodd" d="M89.707 44.486L83.892 39.5635L83.8845 55.891L84.302 56.466C84.4904 56.7226 84.7412 56.826 85.0545 56.776L86.852 56.491C86.8758 56.4872 86.8982 56.481 86.9194 56.4723C86.8982 56.481 86.8757 56.4873 86.8519 56.491L85.0544 56.776C84.741 56.826 84.4902 56.7227 84.3019 56.466L83.8844 55.891L83.8594 65.2635L89.8744 65.171V65.0335L89.8169 56.6435C89.7752 56.5852 89.7502 56.5044 89.7419 56.401C89.7389 56.357 89.7311 56.3382 89.7184 56.3447C89.7311 56.338 89.739 56.3568 89.742 56.401C89.7504 56.5043 89.7754 56.5851 89.817 56.6435L89.807 44.701C89.807 44.6143 89.7737 44.5426 89.707 44.486ZM89.5553 56.6315C89.5312 56.6432 89.511 56.6172 89.4945 56.5535L89.467 56.441C89.4576 56.4045 89.435 56.3729 89.4036 56.3521C89.3722 56.3314 89.3342 56.3229 89.297 56.3285C88.5904 56.4368 87.8845 56.4335 87.1795 56.3185C87.1535 56.3146 87.1296 56.3172 87.108 56.3262C87.1296 56.3172 87.1534 56.3147 87.1794 56.3185C87.8844 56.4335 88.5902 56.4369 89.2969 56.3285C89.3341 56.323 89.3721 56.3315 89.4034 56.3522C89.4348 56.373 89.4574 56.4046 89.4669 56.441L89.4944 56.5535C89.5109 56.6174 89.5311 56.6434 89.5553 56.6315Z" fill="#01042E"/>
<path fill-rule="evenodd" clip-rule="evenodd" d="M50.8502 39.4187L58.0102 39.3912C53.5786 37.3312 50.4244 35.8779 48.5477 35.0312C48.4261 34.9779 48.3444 34.9929 48.3027 35.0762C48.3094 35.0979 48.3202 35.1171 48.3352 35.1337C48.3519 35.1521 48.3602 35.1746 48.3602 35.2012L48.3727 58.8762C48.3728 58.8763 48.3728 58.8763 48.3728 58.8764L48.3503 65.2988L50.7503 65.2763L50.7478 59.4538C50.7212 59.4571 50.6978 59.4829 50.6778 59.5313C50.66 59.5771 50.6468 59.5983 50.638 59.5949C50.6468 59.598 50.66 59.5768 50.6777 59.5312C50.6977 59.4829 50.7211 59.457 50.7477 59.4537V39.5187C50.7477 39.4922 50.7585 39.4668 50.7778 39.448C50.797 39.4293 50.823 39.4187 50.8502 39.4187ZM50.6041 59.3386C50.5912 59.3338 50.5724 59.3413 50.5477 59.3612L49.3127 60.3687C49.2572 60.4142 49.1897 60.4428 49.1183 60.4511C49.0753 60.4561 49.0321 60.4536 48.9904 60.4439C49.0321 60.4536 49.0754 60.4561 49.1184 60.4512C49.1898 60.4429 49.2573 60.4143 49.3128 60.3688L50.5478 59.3613C50.5724 59.3414 50.5912 59.3339 50.6041 59.3386Z" fill="#01042E"/>
</svg>
