<svg width="100" height="100" viewBox="0 0 100 100" fill="none" xmlns="http://www.w3.org/2000/svg">
<rect width="100" height="100" fill="#DDFFE5"/>
<path d="M47.3702 13H49.8705C57.7558 13.7218 64.9562 16.3384 71.4716 20.8498C73.5979 22.3172 76.0696 24.2297 76.3973 26.99C76.6466 29.0842 76.6217 30.8329 77.9964 32.7598C79.7096 35.1567 81.8323 33.3261 83.5632 32.2291C83.6863 32.1509 83.8353 32.1242 83.9779 32.1549C84.1205 32.1855 84.2453 32.271 84.3254 32.3929C85.921 34.8077 86.2451 39.4485 86.2487 41.9594C86.2677 52.0862 86.0563 62.2083 85.6147 72.3256C85.4817 75.3767 85.1873 79.0107 84.7314 83.2277C84.6982 83.534 84.6329 83.7964 84.5355 84.0148C84.5127 84.065 84.4777 84.1089 84.4336 84.1424C84.3895 84.176 84.3376 84.1982 84.2827 84.2071C76.5682 85.3575 75.571 77.6467 75.5888 72.1903C75.5896 72.119 75.5677 72.0492 75.5265 71.991C75.4853 71.9328 75.4267 71.8892 75.3591 71.8663C75.2916 71.8434 75.2185 71.8424 75.1504 71.8635C75.0823 71.8846 75.0225 71.9266 74.9798 71.9837C71.3351 76.7373 66.6254 80.0911 60.8509 82.0452C45.5075 87.2381 28.8819 82.1877 19.5256 68.8637C9.17203 54.1151 11.6473 33.6395 25.3381 21.7437C31.5235 16.3681 38.8675 13.4535 47.3702 13ZM75.3751 48.616C75.3751 41.541 72.5646 34.7558 67.5618 29.753C62.559 24.7502 55.7737 21.9396 48.6987 21.9396C41.6237 21.9396 34.8384 24.7502 29.8356 29.753C24.8328 34.7558 22.0223 41.541 22.0223 48.616C22.0223 55.6911 24.8328 62.4763 29.8356 67.4791C34.8384 72.4819 41.6237 75.2924 48.6987 75.2924C55.7737 75.2924 62.559 72.4819 67.5618 67.4791C72.5646 62.4763 75.3751 55.6911 75.3751 48.616Z" fill="#292B2B"/>
<path d="M79.0829 32.5354C74.5774 25.4513 79.5637 18.581 86.605 16.7574C86.6337 16.75 86.6639 16.7509 86.6921 16.7599C86.7204 16.769 86.7455 16.7859 86.7645 16.8086C86.7835 16.8314 86.7957 16.8591 86.7996 16.8885C86.8035 16.9179 86.799 16.9478 86.7866 16.9747C85.9033 18.9027 85.5341 20.9162 85.6789 23.0152C86.0137 27.9231 84.8313 31.2354 79.8165 32.8025C79.6814 32.8445 79.5364 32.8411 79.4038 32.7928C79.2712 32.7445 79.1584 32.6541 79.0829 32.5354Z" fill="#1CA53D"/>
<path d="M40.3112 53.9549C43.0714 60.5724 51.4946 60.1343 56.1247 56.156C56.1468 56.1377 56.1751 56.1287 56.2042 56.1306C56.2332 56.1326 56.2608 56.1455 56.2814 56.1667L63.1446 63.4537C63.1839 63.4965 63.2057 63.5524 63.2057 63.6104C63.2057 63.6685 63.1839 63.7244 63.1446 63.7671C62.259 64.724 61.0872 65.6287 59.6293 66.4811C54.0946 69.7186 47.9473 70.6945 41.9638 68.269C35.2858 65.5586 28.9105 59.4327 27.5179 52.0958C25.3489 40.6702 34.3348 30.1884 45.3259 28.2081C58.6036 25.8147 73.1741 38.5973 69.1744 52.5303C68.9821 53.2022 68.4965 53.543 67.7177 53.5525C58.619 53.6641 49.5191 53.7436 40.418 53.7911C40.3017 53.7911 40.2661 53.8457 40.3112 53.9549ZM55.2806 40.4351C51.3949 37.6285 46.0026 38.1272 42.2629 40.8518C41.439 41.4501 41.0116 42.2123 40.9808 43.1383C40.9736 43.2856 41.0449 43.3592 41.1945 43.3592L56.8869 43.3663C57.1409 43.3663 57.2608 43.2393 57.2466 42.9852C57.186 41.8633 56.26 41.1438 55.2806 40.4351Z" fill="#1CA53D"/>
</svg>
