<svg width="100" height="100" viewBox="0 0 100 100" fill="none" xmlns="http://www.w3.org/2000/svg">
<rect width="100" height="100" fill="#F0CE73"/>
<path d="M66.3324 57.4584C68.8599 59.1059 75.01 61.5333 76.745 57.4184C77.63 55.3209 76.145 54.0284 74.3375 53.1334C69.7824 50.8784 62.2499 49.0109 63.2999 42.1434C63.7749 39.0559 66.1049 36.4284 69.1224 35.5884C73.3224 34.42 77.3125 34.9917 81.0925 37.3034C81.1446 37.3355 81.1893 37.3785 81.2233 37.4294C81.2574 37.4803 81.28 37.5379 81.2898 37.5982C81.2995 37.6585 81.2961 37.7201 81.2797 37.7788C81.2634 37.8375 81.2344 37.892 81.195 37.9384L78.37 41.2609C78.3464 41.2888 78.3139 41.3076 78.2783 41.314C78.2426 41.3204 78.206 41.314 78.175 41.2959C75.9475 39.9884 72.0824 38.9559 69.8774 40.7109C69.1624 41.2825 68.7499 41.9775 68.6399 42.7959C68.3799 44.7459 70.0224 45.8359 71.7624 46.5759C75.7249 48.2634 81.5275 49.8309 82.29 54.9084C83.0875 60.2034 78.9 64.0133 73.8599 64.3783C69.9033 64.665 66.3399 63.6233 63.1699 61.2533C63.1346 61.227 63.105 61.1938 63.083 61.1557C63.061 61.1176 63.0469 61.0755 63.0418 61.032C63.0366 60.9884 63.0405 60.9443 63.053 60.9024C63.0656 60.8605 63.0867 60.8217 63.1149 60.7883L65.8549 57.5284C65.9121 57.4601 65.9923 57.4152 66.0803 57.4023C66.1684 57.3894 66.2581 57.4094 66.3324 57.4584Z" fill="#4C4D4F"/>
<path d="M33.1875 48.0382V52.5482C33.1875 52.5886 33.1796 52.6286 33.1641 52.6659C33.1487 52.7032 33.126 52.7371 33.0975 52.7656C33.0689 52.7942 33.035 52.8168 32.9977 52.8323C32.9604 52.8477 32.9204 52.8557 32.88 52.8557H23.4325C23.351 52.8557 23.2727 52.8881 23.2151 52.9458C23.1574 53.0034 23.125 53.0816 23.125 53.1632V63.7407C23.125 63.7811 23.1171 63.8211 23.1016 63.8584C23.0861 63.8957 23.0635 63.9296 23.0349 63.9581C23.0064 63.9867 22.9725 64.0093 22.9352 64.0248C22.8979 64.0402 22.8579 64.0482 22.8175 64.0482L18.3075 64.0332C18.2259 64.0332 18.1477 64.0008 18.0901 63.9431C18.0324 63.8855 18 63.8072 18 63.7257V35.8507C18 35.7692 18.0324 35.6909 18.0901 35.6333C18.1477 35.5756 18.2259 35.5432 18.3075 35.5432H35.0675C35.1491 35.5432 35.2273 35.5756 35.285 35.6333C35.3426 35.6909 35.375 35.7692 35.375 35.8507V40.3607C35.375 40.4423 35.3426 40.5205 35.285 40.5781C35.2273 40.6358 35.1491 40.6682 35.0675 40.6682H23.425C23.3844 40.6682 23.3442 40.6762 23.3068 40.6919C23.2693 40.7075 23.2353 40.7303 23.2067 40.7592C23.1781 40.788 23.1555 40.8222 23.1402 40.8598C23.1249 40.8974 23.1172 40.9376 23.1175 40.9782L23.15 47.4257C23.1507 47.5068 23.1834 47.5844 23.241 47.6415C23.2985 47.6987 23.3764 47.7307 23.4575 47.7307H32.88C32.9204 47.7307 32.9604 47.7387 32.9977 47.7541C33.035 47.7696 33.0689 47.7922 33.0975 47.8208C33.126 47.8493 33.1487 47.8832 33.1641 47.9205C33.1796 47.9578 33.1875 47.9978 33.1875 48.0382Z" fill="#4C4D4F"/>
<path d="M43.915 35.5432H39.5249C39.3054 35.5432 39.1274 35.7212 39.1274 35.9407V63.6257C39.1274 63.8452 39.3054 64.0232 39.5249 64.0232H43.915C44.1345 64.0232 44.3125 63.8452 44.3125 63.6257V35.9407C44.3125 35.7212 44.1345 35.5432 43.915 35.5432Z" fill="#4C4D4F"/>
<path d="M45.0649 45.5007L54.9475 35.6457C54.9807 35.6129 55.0201 35.5869 55.0635 35.5693C55.1068 35.5517 55.1532 35.5428 55.2 35.5432H61.42C61.4901 35.5431 61.5587 35.5638 61.6171 35.6027C61.6755 35.6415 61.721 35.6968 61.748 35.7615C61.775 35.8262 61.7823 35.8975 61.7688 35.9663C61.7554 36.0351 61.7219 36.0984 61.6725 36.1482L48.6224 49.2032C48.5891 49.2367 48.5493 49.2631 48.5056 49.281C48.4618 49.2989 48.4149 49.3079 48.3676 49.3075C48.3204 49.307 48.2737 49.2971 48.2303 49.2783C48.1869 49.2596 48.1477 49.2323 48.1149 49.1982L45.0599 45.9982C44.9954 45.9312 44.9598 45.8415 44.9607 45.7484C44.9616 45.6554 44.9991 45.5664 45.0649 45.5007Z" fill="#4C4D4F"/>
<path d="M61.2874 63.8559H55.0774C54.9846 63.8556 54.8957 63.8188 54.8299 63.7534L45.0599 54.0459C44.9939 53.9809 44.956 53.8926 44.9546 53.7999C44.9532 53.7073 44.9884 53.6178 45.0524 53.5509L48.1449 50.3434C48.1776 50.3095 48.2167 50.2825 48.26 50.264C48.3033 50.2455 48.3498 50.2358 48.3969 50.2356C48.4439 50.2354 48.4906 50.2446 48.534 50.2626C48.5775 50.2807 48.6169 50.3073 48.6499 50.3409L61.5374 63.2534C61.587 63.3027 61.6208 63.3656 61.6346 63.4342C61.6483 63.5028 61.6413 63.5739 61.6145 63.6385C61.5877 63.7031 61.5423 63.7582 61.484 63.7969C61.4258 63.8357 61.3574 63.8562 61.2874 63.8559Z" fill="#4C4D4F"/>
</svg>
