<svg width="100" height="100" viewBox="0 0 100 100" fill="none" xmlns="http://www.w3.org/2000/svg">
<rect width="100" height="100" fill="#163373"/>
<path d="M72.8675 55.2446C72.8712 56.8496 74.63 57.0221 74.6337 55.6833C74.6412 54.3758 74.6525 53.0421 74.6675 51.6821C74.6675 51.5596 74.7287 51.4983 74.8512 51.4983H78.59C78.6154 51.4983 78.6406 51.5034 78.6641 51.5132C78.6875 51.5231 78.7088 51.5375 78.7266 51.5557C78.7444 51.5738 78.7584 51.5953 78.7678 51.619C78.7772 51.6426 78.7817 51.6679 78.7812 51.6933C78.7625 55.3833 79.385 60.2171 74.2812 60.3596C71.3 60.4421 68.915 58.8596 68.8737 55.6871C68.8337 52.3896 68.8325 49.0871 68.87 45.7796C68.9 43.2821 69.6312 40.7433 72.41 40.1621C75.11 39.5996 78.2262 40.6458 78.65 43.8408C78.7475 44.5658 78.7462 45.9708 78.6462 48.0558C78.6412 48.1633 78.585 48.2171 78.4775 48.2171H74.93C74.7625 48.2171 74.6762 48.1346 74.6712 47.9696C74.6375 46.9946 74.9225 44.6396 74.2925 43.9533C74.21 43.8633 74.1062 43.8146 73.9812 43.8071C73.2487 43.7696 72.88 44.1533 72.875 44.9583C72.8575 48.3883 72.855 51.8171 72.8675 55.2446Z" fill="white"/>
<path d="M85.9362 60.2397C82.3287 60.9147 79.8612 58.7697 79.835 55.1434C79.8175 52.6434 79.8075 50.1334 79.805 47.6134C79.8012 43.1209 80.2512 39.2847 85.8537 40.1134C88.3537 40.4834 89.6337 42.0222 89.6937 44.7297C89.7612 47.8572 89.775 50.9884 89.735 54.1234C89.7012 56.9884 89.18 59.6322 85.9362 60.2397ZM85.6175 44.6884C85.6175 44.5746 85.5951 44.462 85.5515 44.3569C85.508 44.2518 85.4442 44.1563 85.3637 44.0759C85.2833 43.9954 85.1878 43.9316 85.0827 43.8881C84.9776 43.8446 84.865 43.8222 84.7512 43.8222H84.7212C84.4915 43.8222 84.2711 43.9134 84.1087 44.0759C83.9462 44.2383 83.855 44.4587 83.855 44.6884V55.6909C83.855 55.9207 83.9462 56.141 84.1087 56.3034C84.2711 56.4659 84.4915 56.5572 84.7212 56.5572H84.7512C84.865 56.5572 84.9776 56.5348 85.0827 56.4912C85.1878 56.4477 85.2833 56.3839 85.3637 56.3034C85.4442 56.223 85.508 56.1275 85.5515 56.0224C85.5951 55.9173 85.6175 55.8047 85.6175 55.6909V44.6884Z" fill="white"/>
<path d="M15.0312 51.3108V60.0295C15.0312 60.0793 15.0115 60.127 14.9763 60.1621C14.9412 60.1973 14.8935 60.217 14.8438 60.217H11.1875C11.1378 60.217 11.0901 60.1973 11.0549 60.1621C11.0198 60.127 11 60.0793 11 60.0295V40.4358C11 40.3861 11.0198 40.3384 11.0549 40.3032C11.0901 40.268 11.1378 40.2483 11.1875 40.2483H18.7812C18.831 40.2483 18.8787 40.268 18.9138 40.3032C18.949 40.3384 18.9688 40.3861 18.9688 40.4358V43.9983C18.9688 44.048 18.949 44.0957 18.9138 44.1309C18.8787 44.166 18.831 44.1858 18.7812 44.1858H15.2188C15.169 44.1858 15.1213 44.2055 15.0862 44.2407C15.051 44.2759 15.0312 44.3236 15.0312 44.3733V47.092C15.0312 47.1418 15.051 47.1895 15.0862 47.2246C15.1213 47.2598 15.169 47.2795 15.2188 47.2795H18.5938C18.6435 47.2795 18.6912 47.2993 18.7263 47.3345C18.7615 47.3696 18.7812 47.4173 18.7812 47.467V50.9358C18.7812 50.9855 18.7615 51.0332 18.7263 51.0684C18.6912 51.1035 18.6435 51.1233 18.5938 51.1233H15.2188C15.169 51.1233 15.1213 51.143 15.0862 51.1782C15.051 51.2134 15.0312 51.2611 15.0312 51.3108Z" fill="white"/>
<path d="M25.9999 56.9358H23.9487C23.9082 56.9357 23.8692 56.9513 23.8399 56.9792C23.8106 57.0072 23.7931 57.0453 23.7912 57.0858L23.6299 60.067C23.628 60.1075 23.6106 60.1457 23.5812 60.1736C23.5519 60.2015 23.513 60.2171 23.4724 60.217H19.8049C19.7829 60.2171 19.7612 60.2126 19.741 60.2038C19.7208 60.195 19.7028 60.182 19.6879 60.1657C19.6731 60.1495 19.6618 60.1303 19.6548 60.1094C19.6479 60.0886 19.6453 60.0665 19.6474 60.0445L21.5449 40.3908C21.5487 40.3517 21.5669 40.3154 21.5961 40.289C21.6252 40.2626 21.6631 40.2481 21.7024 40.2483H28.2424C28.2817 40.2481 28.3197 40.2626 28.3488 40.289C28.378 40.3154 28.3962 40.3517 28.3999 40.3908L30.2787 60.0445C30.2808 60.0665 30.2783 60.0886 30.2713 60.1094C30.2643 60.1303 30.2531 60.1495 30.2382 60.1657C30.2234 60.182 30.2053 60.195 30.1851 60.2038C30.165 60.2126 30.1432 60.2171 30.1212 60.217H26.5624C26.5226 60.2171 26.4841 60.2021 26.4549 60.175C26.4256 60.1478 26.4078 60.1106 26.4049 60.0708L26.1574 57.082C26.1546 57.0423 26.1368 57.005 26.1075 56.9779C26.0783 56.9507 26.0398 56.9357 25.9999 56.9358ZM24.8599 44.092C24.5899 47.1933 24.3687 50.3058 24.1737 53.4108C24.1637 53.5733 24.2387 53.6545 24.3987 53.6545H25.5837C25.6139 53.6547 25.6438 53.6485 25.6715 53.6362C25.6992 53.624 25.7241 53.606 25.7445 53.5834C25.765 53.5608 25.7806 53.5341 25.7904 53.5051C25.8001 53.476 25.8038 53.4452 25.8012 53.4145L25.0099 44.0695C25.0024 44.0045 24.9699 43.9858 24.9124 44.0133C24.8799 44.0308 24.8624 44.057 24.8599 44.092Z" fill="white"/>
<path d="M35.6488 56.7483H39.4138C39.4615 56.7483 39.5073 56.7673 39.541 56.801C39.5748 56.8348 39.5938 56.8806 39.5938 56.9283V60.037C39.5938 60.0848 39.5748 60.1306 39.541 60.1643C39.5073 60.1981 39.4615 60.217 39.4138 60.217H31.5238C31.5001 60.217 31.4767 60.2124 31.4549 60.2033C31.433 60.1943 31.4132 60.181 31.3965 60.1643C31.3798 60.1476 31.3665 60.1278 31.3575 60.1059C31.3484 60.0841 31.3437 60.0607 31.3438 60.037V40.4283C31.3438 40.3806 31.3627 40.3348 31.3965 40.301C31.4302 40.2673 31.476 40.2483 31.5238 40.2483H35.2887C35.3124 40.2483 35.3358 40.2529 35.3576 40.262C35.3795 40.271 35.3993 40.2843 35.416 40.301C35.4327 40.3177 35.446 40.3376 35.455 40.3594C35.4641 40.3812 35.4688 40.4047 35.4688 40.4283V56.5683C35.4688 56.616 35.4877 56.6618 35.5215 56.6956C35.5552 56.7293 35.601 56.7483 35.6488 56.7483Z" fill="white"/>
<path d="M44.255 46.9458L44.2962 60.1645C44.2962 60.1714 44.2949 60.1783 44.2923 60.1846C44.2896 60.191 44.2857 60.1968 44.2809 60.2017C44.276 60.2065 44.2702 60.2104 44.2638 60.213C44.2575 60.2157 44.2506 60.217 44.2437 60.217H40.5837C40.5698 60.217 40.5565 60.2115 40.5466 60.2017C40.5368 60.1918 40.5313 60.1785 40.5312 60.1645V40.3008C40.5313 40.2869 40.5368 40.2735 40.5466 40.2637C40.5565 40.2538 40.5698 40.2483 40.5837 40.2483H46.685C46.6977 40.2482 46.71 40.2527 46.7197 40.2609C46.7294 40.2692 46.7357 40.2807 46.7375 40.2933L48.2788 51.6858C48.2788 51.6997 48.2843 51.7131 48.2941 51.7229C48.304 51.7328 48.3173 51.7383 48.3313 51.7383C48.3452 51.7383 48.3585 51.7328 48.3684 51.7229C48.3782 51.7131 48.3838 51.6997 48.3838 51.6858L49.9438 40.2933C49.9456 40.2807 49.9519 40.2692 49.9615 40.2609C49.9712 40.2527 49.9835 40.2482 49.9963 40.2483H56.135C56.1489 40.2483 56.1623 40.2538 56.1721 40.2637C56.182 40.2735 56.1875 40.2869 56.1875 40.3008V60.1645C56.1875 60.1714 56.1861 60.1783 56.1835 60.1846C56.1809 60.191 56.177 60.1968 56.1721 60.2017C56.1672 60.2065 56.1615 60.2104 56.1551 60.213C56.1487 60.2157 56.1419 60.217 56.135 60.217H52.49C52.4831 60.217 52.4763 60.2157 52.4699 60.213C52.4635 60.2104 52.4578 60.2065 52.4529 60.2017C52.448 60.1968 52.4441 60.191 52.4415 60.1846C52.4389 60.1783 52.4375 60.1714 52.4375 60.1645V47.602C52.4373 47.594 52.4352 47.5861 52.4314 47.579C52.4276 47.5719 52.4223 47.5658 52.4158 47.561C52.4092 47.5563 52.4017 47.5532 52.3938 47.5518C52.3858 47.5505 52.3777 47.551 52.37 47.5533L52.2612 47.587C52.2525 47.5903 52.2447 47.5958 52.2388 47.6031C52.2328 47.6103 52.2289 47.619 52.2275 47.6283L50.2363 60.172C50.2344 60.1846 50.2281 60.1961 50.2185 60.2044C50.2088 60.2127 50.1965 60.2172 50.1838 60.217H46.6325C46.6198 60.2172 46.6075 60.2127 46.5978 60.2044C46.5881 60.1961 46.5818 60.1846 46.58 60.172L44.3562 46.9383C44.3525 46.9273 44.3452 46.9179 44.3355 46.9116C44.3258 46.9052 44.3143 46.9022 44.3027 46.903C44.2912 46.9039 44.2802 46.9086 44.2716 46.9163C44.263 46.924 44.2571 46.9344 44.255 46.9458Z" fill="white"/>
<path d="M61.46 57.1533L61.2462 59.9995C61.2415 60.0583 61.2151 60.1131 61.1721 60.1533C61.1291 60.1936 61.0726 60.2163 61.0137 60.217H57.53C57.4973 60.2167 57.465 60.2095 57.4352 60.196C57.4054 60.1826 57.3788 60.163 57.3569 60.1387C57.335 60.1144 57.3185 60.0858 57.3082 60.0547C57.298 60.0237 57.2943 59.9908 57.2975 59.9583L59.1837 40.462C59.1893 40.4034 59.2167 40.3489 59.2604 40.3094C59.3041 40.2698 59.361 40.248 59.42 40.2483H65.8137C65.872 40.249 65.928 40.2711 65.9709 40.3106C66.0138 40.3501 66.0407 40.404 66.0462 40.462L67.895 59.9583C67.8981 59.9908 67.8944 60.0237 67.8842 60.0547C67.8739 60.0858 67.8574 60.1144 67.8355 60.1387C67.8137 60.163 67.787 60.1826 67.7572 60.196C67.7274 60.2095 67.6952 60.2167 67.6625 60.217H64.2725C64.2136 60.2163 64.1571 60.1936 64.1141 60.1533C64.0711 60.1131 64.0446 60.0583 64.04 59.9995L63.8225 57.1533C63.8178 57.0946 63.7914 57.0397 63.7483 56.9995C63.7053 56.9593 63.6489 56.9365 63.59 56.9358H61.6925C61.6336 56.9365 61.5771 56.9593 61.5341 56.9995C61.4911 57.0397 61.4646 57.0946 61.46 57.1533ZM62.4912 43.8858L61.79 53.467C61.78 53.592 61.8437 53.6545 61.9812 53.6545H63.2075C63.3725 53.6545 63.4475 53.5733 63.4325 53.4108L62.6487 43.8858C62.6487 43.8649 62.6404 43.8449 62.6256 43.8301C62.6109 43.8153 62.5908 43.807 62.57 43.807C62.5491 43.807 62.529 43.8153 62.5143 43.8301C62.4995 43.8449 62.4912 43.8649 62.4912 43.8858Z" fill="white"/>
</svg>
