<svg width="100" height="100" viewBox="0 0 100 100" fill="none" xmlns="http://www.w3.org/2000/svg">
<rect width="100" height="100" fill="#F1FFC8"/>
<path d="M23.0578 82.9957H37.4802C37.5891 82.9956 37.6937 83.0378 37.7721 83.1134C37.8504 83.1889 37.8964 83.2919 37.9002 83.4007L38.0503 87.0232C38.0533 87.0841 38.0437 87.145 38.0221 87.2022C38.0005 87.2594 37.9673 87.3117 37.9245 87.3559C37.8817 87.4001 37.8302 87.4353 37.7732 87.4593C37.7162 87.4834 37.6548 87.4957 37.5928 87.4957H18.5727C18.5153 87.4957 18.4585 87.4842 18.4056 87.4618C18.3527 87.4394 18.3049 87.4065 18.265 87.3652C18.2251 87.3239 18.194 87.275 18.1734 87.2214C18.1528 87.1678 18.1432 87.1106 18.1452 87.0532C18.5802 73.5832 18.3028 60.2632 18.3703 46.8682C18.4153 38.2656 16.2703 27.6381 21.8278 20.2506C25.8578 14.8956 31.2677 12.2156 38.0577 12.2106C45.4327 12.2006 52.8053 12.1306 60.1753 12.0006C60.6702 11.9906 60.6978 12.1006 60.2578 12.3306C57.8878 13.5606 56.6953 14.2506 54.8428 16.2531C54.6777 16.4331 54.4753 16.5206 54.2353 16.5156C51.9203 16.4706 47.2927 16.4656 40.3527 16.5006C31.0902 16.5456 22.8627 21.5256 22.5177 31.1781C22.1802 40.5007 22.4127 51.6157 22.3527 59.0782C22.2927 66.8082 22.2827 74.5382 22.3227 82.2682C22.3247 82.4618 22.403 82.6469 22.5407 82.7831C22.6783 82.9193 22.8641 82.9957 23.0578 82.9957Z" fill="#0B4DA3"/>
<path d="M82.3153 12.0981C82.3703 12.0981 82.3978 12.1256 82.3978 12.1806C82.5278 30.6307 82.5478 49.1107 82.4578 67.6207C82.3978 78.6982 74.5003 87.0607 63.3178 87.4282C57.9078 87.6082 50.5853 87.6032 41.3503 87.4132C40.6403 87.3982 40.6078 87.2382 41.2528 86.9332C43.0578 86.0882 44.5828 84.8832 45.8278 83.3182C45.9026 83.2248 45.9967 83.1493 46.1032 83.0974C46.2096 83.0454 46.3257 83.0184 46.4428 83.0182C57.6553 83.0107 72.1828 85.6357 77.2603 72.6157C77.8903 70.9907 78.2178 68.8782 78.2428 66.2782C78.3528 53.7782 78.3953 41.2932 78.3703 28.8232C78.3703 26.0182 78.0028 21.3532 78.4003 17.4906C78.4107 17.3836 78.399 17.2756 78.3657 17.1735C78.3324 17.0714 78.2784 16.9775 78.2071 16.8977C78.1358 16.818 78.0488 16.7541 77.9516 16.7103C77.8544 16.6664 77.7493 16.6436 77.6428 16.6431L63.2503 16.5681C62.9553 16.5681 62.8078 16.4206 62.8078 16.1256V12.5856C62.8078 12.2706 62.9653 12.1131 63.2803 12.1131L82.3153 12.0981Z" fill="#A8CE3C"/>
<path d="M47.1928 68.7157C55.4653 68.5357 62.6503 69.3307 62.6278 58.6357C62.6228 55.7907 62.6203 52.9757 62.6203 50.1907C62.6203 50.0892 62.5808 49.9919 62.5104 49.9202C62.4401 49.8485 62.3447 49.8082 62.2453 49.8082H38.2528C37.9978 49.8082 37.8703 49.6832 37.8703 49.4332C37.8703 41.7682 35.8603 30.9457 47.4553 30.8707C49.5353 30.8607 51.5528 30.8657 53.5078 30.8857C60.3928 29.7257 63.4728 25.6507 62.7478 18.6607C62.7425 18.6083 62.7481 18.5554 62.7642 18.5054C62.7803 18.4555 62.8066 18.4095 62.8412 18.3706C62.8759 18.3317 62.9182 18.3007 62.9654 18.2796C63.0126 18.2585 63.0637 18.2478 63.1153 18.2482L76.1653 18.2332C76.341 18.2332 76.5097 18.3033 76.6346 18.4282C76.7596 18.5532 76.8308 18.723 76.8328 18.9007C76.9528 34.3582 76.3303 50.0182 76.9228 65.4982C77.2753 74.8357 71.2078 81.0832 61.9378 81.2407C57.0578 81.3257 52.1878 81.4007 47.3278 81.4657C47.0578 81.4707 46.9253 81.3382 46.9303 81.0682L47.1928 68.7157Z" fill="#A8CE3C"/>
<path d="M53.5076 30.8857C51.5526 30.8657 49.5351 30.8607 47.4551 30.8707C35.8601 30.9457 37.8701 41.7682 37.8701 49.4332C37.8701 49.6832 37.9976 49.8082 38.2526 49.8082H62.2451C62.3446 49.8082 62.44 49.8485 62.5103 49.9203C62.5806 49.992 62.6201 50.0893 62.6201 50.1907C62.6201 52.9757 62.6226 55.7907 62.6276 58.6357C62.6501 69.3307 55.4651 68.5357 47.1926 68.7157C40.2026 69.4282 37.5926 74.5583 37.9001 80.8883C37.9101 81.1683 37.7776 81.3083 37.5026 81.3083H24.7601C24.5155 81.3083 24.2808 81.2111 24.1078 81.0381C23.9348 80.8651 23.8376 80.6304 23.8376 80.3858C23.7626 64.3257 23.7826 48.4282 23.8976 32.6932C24.0251 15.6157 41.5601 18.2707 53.2676 18.3157C53.373 18.3157 53.4741 18.3576 53.5487 18.4321C53.6232 18.5067 53.6651 18.6078 53.6651 18.7132L53.5076 30.8857Z" fill="#0B4DA3"/>
</svg>
