<svg width="100" height="100" viewBox="0 0 100 100" fill="none" xmlns="http://www.w3.org/2000/svg">
<rect width="100" height="100" fill="#131212"/>
<g clip-path="url(#clip0_59_742)">
<path d="M47.9431 17.0312H83.2353V29.5581C83.2353 29.5738 83.229 29.5888 83.2177 29.5999C83.2065 29.611 83.1912 29.6172 83.1753 29.6172C67.6772 29.6166 52.1753 29.6169 36.6697 29.6181C35.7978 29.6181 35.175 29.6506 34.8013 29.7156C32.2522 30.1619 30.2609 32.185 29.7603 34.6703C29.6741 35.0972 29.6313 35.7159 29.6319 36.5266C29.6338 52.0909 29.6338 67.655 29.6319 83.2188H17.0469V47.3303C17.3 43.9581 18.7728 41.1784 20.9009 38.6266C22.6119 36.5753 24.4953 34.6881 26.4022 32.8216C29.0741 30.2059 31.6878 27.5275 34.3203 24.8716C38.0956 21.0616 42.2113 17.1578 47.9431 17.0312Z" fill="#FF4C00"/>
<path d="M54.0069 83.2187H41.4247C41.4203 79.7887 41.42 76.359 41.4237 72.9296C41.4244 72.0896 41.4459 71.4653 41.4884 71.0565C41.9328 66.7937 44.7153 63.3859 47.5859 60.4131C49.1591 58.7837 50.7847 57.2153 52.3794 55.6093C54.5012 53.4737 56.6219 51.3371 58.7412 49.1996C62.2437 45.6671 66.1606 41.9293 71.3816 41.4615C71.7609 41.4271 72.3856 41.4093 73.2556 41.4081C76.5669 41.4037 79.8778 41.4037 83.1884 41.4081C83.2191 41.4081 83.2344 41.4234 83.2344 41.454V53.9434C83.2344 53.9734 83.2194 53.9884 83.1894 53.9884C75.6325 53.9909 68.0775 53.9987 60.5244 54.0118C58.2331 54.0156 56.4412 54.9046 55.1487 56.679C54.2694 57.8865 54.0087 59.1821 54.0087 60.7468C54.0081 68.2374 54.0075 75.7281 54.0069 83.2187Z" fill="#FF4C00"/>
</g>
<defs>
<clipPath id="clip0_59_742">
<rect width="66.2812" height="66.1875" fill="white" transform="translate(17.0469 17.0312)"/>
</clipPath>
</defs>
</svg>
