<svg width="100" height="100" viewBox="0 0 100 100" fill="none" xmlns="http://www.w3.org/2000/svg">
<rect width="100" height="100" fill="#EEFDDF"/>
<mask id="mask0_59_743" style="mask-type:alpha" maskUnits="userSpaceOnUse" x="24" y="15" width="53" height="71">
<path fill-rule="evenodd" clip-rule="evenodd" d="M51.0762 21.0977V36.0083L69.6817 43.9821L69.7494 44.0111C71.3218 44.6849 72.9366 45.3768 74.1354 46.5952C75.1824 47.6592 75.7271 48.909 76.0762 51.0083C76.0762 51.0083 77.1762 59.3083 73.5762 62.5083C73.5762 62.3299 73.5794 62.153 73.5826 61.9768C73.6125 60.3427 73.6414 58.765 71.0769 56.5083C65.2355 51.3679 55.5725 47.8654 47.1903 44.8271C37.6353 41.3637 29.7446 38.5035 31.0762 34.5083C32.5279 30.153 39.0294 21.6261 42.9607 16.8466C43.6877 15.9627 44.6197 15.2046 45.7537 15.0507C46.6135 14.934 47.4527 15.0151 48.2703 15.3322C50.4337 16.1714 51.0762 18.7773 51.0762 21.0977ZM51 79.4189V65.0083L31.5909 58.2347C29.2561 57.4198 26.801 56.4907 25.4193 54.4398C24.3687 52.8804 23.7796 50.8868 24.0769 48.5083C24.0769 48.5083 24.9756 41.2083 28.5756 38.0083C28.5756 39.8416 30.6569 41.3092 32.5758 42.5083C35.0096 44.0292 39.9279 45.6427 45.4714 47.4613C58.1519 51.6212 74.1039 56.8544 71.0754 64.5083C69.3828 68.7861 62.3564 78.6502 58.3387 83.6628C57.623 84.5557 56.6948 85.3303 55.5602 85.4797C54.9141 85.5647 54.319 85.5051 53.7333 85.2771C51.5709 84.4353 51 81.7393 51 79.4189Z" fill="#D9D9D9"/>
</mask>
<g mask="url(#mask0_59_743)">
<path d="M51 85.763L69 90.0083L78 77.2725C68 72.0838 61 67.8385 51 65.0083V85.763Z" fill="url(#paint0_linear_59_743)"/>
<path d="M51 34.2398L29 24.5083L16 49.4234C29.4615 58.5555 37.5385 66.0272 51 71.0083V34.2398Z" fill="url(#paint1_linear_59_743)"/>
<path d="M34.5 27.0083C37.7929 30.3012 41.7704 32.8289 46.15 34.4119L53.3333 37.0083L63 22.7441C52.2593 16.9328 44.7407 12.1781 34 9.0083L34.5 27.0083Z" fill="url(#paint2_linear_59_743)"/>
<path d="M51 67.4342L74.5385 74.0083L87 53.6309C73.1538 45.3291 64.8462 38.5366 51 34.0083V67.4342Z" fill="url(#paint3_linear_59_743)"/>
</g>
<defs>
<linearGradient id="paint0_linear_59_743" x1="52.3966" y1="71.7047" x2="77.6472" y2="83.1943" gradientUnits="userSpaceOnUse">
<stop stop-color="#1975C8"/>
<stop offset="1" stop-color="#278ADD"/>
</linearGradient>
<linearGradient id="paint1_linear_59_743" x1="52" y1="58.5083" x2="27" y2="30.5083" gradientUnits="userSpaceOnUse">
<stop stop-color="#E7E22E"/>
<stop offset="0.437187" stop-color="#FC9D17"/>
<stop offset="0.794881" stop-color="#CD4385"/>
</linearGradient>
<linearGradient id="paint2_linear_59_743" x1="35.5" y1="16.5083" x2="63" y2="28.5083" gradientUnits="userSpaceOnUse">
<stop stop-color="#278ADD"/>
<stop offset="1" stop-color="#1975C8"/>
</linearGradient>
<linearGradient id="paint3_linear_59_743" x1="48.5" y1="53.0083" x2="78" y2="55.5083" gradientUnits="userSpaceOnUse">
<stop stop-color="#1F924D"/>
<stop offset="0.427083" stop-color="#48A95D"/>
<stop offset="1" stop-color="#A4CA41"/>
</linearGradient>
</defs>
</svg>
