<svg width="100" height="100" viewBox="0 0 100 100" fill="none" xmlns="http://www.w3.org/2000/svg">
<rect width="100" height="100" fill="#F7FFED"/>
<path d="M22.5278 33.442C23.0558 24.274 29.1818 16.54 37.8878 13.918C39.8438 13.33 42.9098 13.03 47.0857 13.018C57.0697 12.994 66.9737 12.994 76.7977 13.018C76.8917 13.0175 76.9845 13.0382 77.0694 13.0786C77.1542 13.119 77.2288 13.178 77.2877 13.2512C77.3465 13.3245 77.388 13.4101 77.4092 13.5017C77.4303 13.5932 77.4305 13.6884 77.4097 13.78C76.8217 16.318 77.2477 18.706 77.2237 20.65C77.0557 33.838 77.0437 47.028 77.1877 60.22C77.3017 70.648 75.2677 78.628 65.4757 83.728C62.8477 85.096 59.5297 85.696 56.5237 86.278C56.3317 86.314 56.2337 86.234 56.2297 86.038L56.0077 79.012C56.0022 78.8378 56.0629 78.6679 56.1776 78.5366C56.2922 78.4052 56.4523 78.3221 56.6257 78.304C61.6117 77.794 66.8257 74.794 68.5897 69.82C69.1217 68.324 69.3897 65.892 69.3937 62.524C69.4057 48.992 69.4097 35.306 69.4057 21.466C69.4058 21.328 69.3518 21.1955 69.2553 21.0968C69.1589 20.9981 69.0277 20.9411 68.8897 20.938C61.7177 20.798 54.4597 20.754 47.1157 20.806C36.9698 20.878 32.5598 23.602 30.1898 33.568C30.1498 33.748 30.0378 33.836 29.8538 33.832L22.7678 33.7C22.5958 33.696 22.5158 33.61 22.5278 33.442Z" fill="#90C447"/>
<path d="M31.03 78.2202L50.158 78.4542C50.1832 78.4542 50.2081 78.4592 50.2314 78.4688C50.2547 78.4785 50.2759 78.4926 50.2937 78.5105C50.3115 78.5283 50.3257 78.5495 50.3353 78.5728C50.345 78.596 50.35 78.621 50.35 78.6462V85.8642C50.35 85.8894 50.345 85.9144 50.3353 85.9377C50.3257 85.961 50.3115 85.9822 50.2937 86C50.2759 86.0178 50.2547 86.032 50.2314 86.0416C50.2081 86.0513 50.1832 86.0562 50.158 86.0562H22.192C22.1411 86.0562 22.0922 86.036 22.0562 86C22.0202 85.964 22 85.9151 22 85.8642V40.0482C22 39.9973 22.0202 39.9484 22.0562 39.9124C22.0922 39.8764 22.1411 39.8562 22.192 39.8562H30.478C30.5289 39.8562 30.5777 39.8764 30.6137 39.9124C30.6498 39.9484 30.67 39.9973 30.67 40.0482L30.844 78.0342C30.8455 78.0831 30.8656 78.1295 30.9001 78.1641C30.9347 78.1986 30.9811 78.2187 31.03 78.2202Z" fill="#0A486F"/>
</svg>
