<svg width="100" height="100" viewBox="0 0 100 100" fill="none" xmlns="http://www.w3.org/2000/svg">
<rect width="100" height="100" fill="#595C62"/>
<path d="M15.8741 40.8203H22.7412C24.1006 40.8203 25.1123 40.8789 25.7764 40.9961C26.4483 41.1055 27.0459 41.3398 27.5694 41.6992C28.1006 42.0586 28.542 42.5391 28.8936 43.1406C29.2452 43.7344 29.4209 44.4023 29.4209 45.1445C29.4209 45.9492 29.2022 46.6875 28.7647 47.3594C28.335 48.0312 27.7491 48.5352 27.0069 48.8711C28.0537 49.1758 28.8584 49.6953 29.4209 50.4297C29.9834 51.1641 30.2647 52.0273 30.2647 53.0195C30.2647 53.8008 30.0811 54.5625 29.7139 55.3047C29.3545 56.0391 28.8584 56.6289 28.2256 57.0742C27.6006 57.5117 26.8272 57.7812 25.9053 57.8828C25.3272 57.9453 23.9327 57.9844 21.7217 58H15.8741V40.8203ZM19.3428 43.6797V47.6523H21.6162C22.9678 47.6523 23.8077 47.6328 24.1358 47.5938C24.7295 47.5234 25.1944 47.3203 25.5303 46.9844C25.8741 46.6406 26.0459 46.1914 26.0459 45.6367C26.0459 45.1055 25.8975 44.6758 25.6006 44.3477C25.3116 44.0117 24.878 43.8086 24.2998 43.7383C23.9561 43.6992 22.9678 43.6797 21.335 43.6797H19.3428ZM19.3428 50.5117V55.1055H22.5537C23.8037 55.1055 24.5967 55.0703 24.9327 55C25.4483 54.9062 25.8662 54.6797 26.1866 54.3203C26.5147 53.9531 26.6787 53.4648 26.6787 52.8555C26.6787 52.3398 26.5537 51.9023 26.3037 51.543C26.0537 51.1836 25.6905 50.9219 25.2139 50.7578C24.7452 50.5938 23.7217 50.5117 22.1436 50.5117H19.3428ZM41.5583 51.6836V48.7891H49.0348V55.6328C48.3083 56.3359 47.2536 56.957 45.8708 57.4961C44.4958 58.0273 43.1012 58.293 41.6872 58.293C39.8903 58.293 38.3239 57.918 36.988 57.168C35.652 56.4102 34.6481 55.332 33.9762 53.9336C33.3044 52.5273 32.9684 51 32.9684 49.3516C32.9684 47.5625 33.3434 45.9727 34.0934 44.582C34.8434 43.1914 35.9411 42.125 37.3864 41.3828C38.488 40.8125 39.8591 40.5273 41.4997 40.5273C43.6325 40.5273 45.2966 40.9766 46.4919 41.875C47.695 42.7656 48.4684 44 48.8122 45.5781L45.3669 46.2227C45.1247 45.3789 44.6677 44.7148 43.9958 44.2305C43.3317 43.7383 42.4997 43.4922 41.4997 43.4922C39.9841 43.4922 38.777 43.9727 37.8786 44.9336C36.988 45.8945 36.5427 47.3203 36.5427 49.2109C36.5427 51.25 36.9958 52.7812 37.902 53.8047C38.8083 54.8203 39.9958 55.3281 41.4645 55.3281C42.1911 55.3281 42.9177 55.1875 43.6442 54.9062C44.3786 54.6172 45.0075 54.2695 45.5309 53.8633V51.6836H41.5583ZM52.5589 58V40.8203H57.7503L60.8675 52.5391L63.9495 40.8203H69.1527V58H65.93V44.4766L62.5198 58H59.18L55.7816 44.4766V58H52.5589ZM76.8252 58V43.7266H71.7275V40.8203H85.3798V43.7266H80.2939V58H76.8252Z" fill="#F8F8F8"/>
</svg>
