<svg width="100" height="100" viewBox="0 0 100 100" fill="none" xmlns="http://www.w3.org/2000/svg">
<rect width="100" height="100" fill="#D6EEFF"/>
<path d="M75.4475 21.1869C75.4418 21.2621 75.4918 21.3226 75.5975 21.3682C75.6084 21.3731 75.6181 21.3803 75.6258 21.3895C75.6336 21.3987 75.6391 21.4095 75.642 21.4211C75.6587 21.4912 75.7045 21.5332 75.7795 21.5472C75.7824 21.5481 75.7849 21.55 75.7865 21.5525C75.7882 21.555 75.7889 21.558 75.7886 21.561C75.7884 21.5639 75.7871 21.5667 75.785 21.5689C75.7829 21.5711 75.7802 21.5725 75.7772 21.5729H75.7538C75.7298 21.5729 75.7178 21.5848 75.7178 21.6087L75.7139 21.9581C75.7139 21.9934 75.7306 22.0159 75.7639 22.0258C76.0639 22.1161 75.8264 22.418 76.103 22.4616C76.1172 22.4638 76.1303 22.4706 76.1402 22.481C76.1501 22.4915 76.1563 22.5049 76.1577 22.5192L76.1889 22.8118C76.1914 22.8334 76.2014 22.8535 76.2171 22.8686C76.3678 23.0118 76.2788 23.2818 76.4897 23.3176C76.5225 23.3233 76.5413 23.3425 76.546 23.3752L76.5842 23.6172C76.5857 23.6262 76.5893 23.6347 76.5947 23.6421C76.6001 23.6495 76.6072 23.6557 76.6155 23.66L76.7546 23.7324C76.7811 23.7464 76.7949 23.7682 76.796 23.7978L76.8085 24.2032C76.8095 24.2338 76.8217 24.259 76.8452 24.2787C76.9889 24.404 76.9467 24.5511 76.9741 24.7083C76.9762 24.7207 76.9817 24.7322 76.99 24.7415C76.9983 24.7509 77.009 24.7577 77.021 24.7612C77.3905 24.8702 76.996 25.3526 77.3647 25.425C77.3788 25.4278 77.3915 25.4355 77.4004 25.4468C77.4093 25.4581 77.4138 25.4722 77.4131 25.4865C77.4059 25.6276 77.4493 25.748 77.5436 25.8476C77.5644 25.8689 77.5754 25.8945 77.5764 25.9246L77.5928 26.334C77.5935 26.3497 77.5994 26.3648 77.6096 26.3768C77.6198 26.3888 77.6337 26.397 77.6491 26.4001C77.885 26.4491 77.8155 26.8048 77.8303 26.9666C77.8317 26.9799 77.8372 26.9924 77.8461 27.0022C77.855 27.012 77.8667 27.0187 77.8795 27.0211C78.1202 27.0702 78.0491 27.4203 78.0647 27.5845C78.066 27.5997 78.0724 27.6141 78.0828 27.6255C78.0932 27.6369 78.1072 27.6446 78.1225 27.6476C78.2053 27.6621 78.2577 27.7065 78.2795 27.7807C78.2848 27.7986 78.2888 27.8152 78.2911 27.829C78.2934 27.8428 78.294 27.8535 78.2928 27.86C78.2512 28.0535 78.2923 28.2219 78.4163 28.3651C78.4319 28.3838 78.4397 28.4053 78.4397 28.4297L78.4374 29.0336C78.4374 29.0475 78.4411 29.0611 78.4481 29.073C78.4551 29.085 78.4652 29.0947 78.4772 29.1013L78.6233 29.1822C78.6504 29.1973 78.6647 29.2203 78.6663 29.2515C78.6756 29.4507 78.6842 29.6499 78.692 29.8491C78.6957 29.9436 78.7329 29.9926 78.8038 29.9962C78.8313 29.9978 78.8572 30.0096 78.8763 30.0294C78.8954 30.0492 78.9063 30.0754 78.9069 30.1028L78.9171 30.6624C78.9176 30.6914 78.9285 30.7155 78.9499 30.7347C79.21 30.9682 78.8772 31.6523 79.2014 31.6896C79.2144 31.6912 79.2265 31.6972 79.2355 31.7066C79.2444 31.716 79.2498 31.7281 79.2506 31.741C79.2694 32.0637 79.285 32.3869 79.2975 32.7106C79.3017 32.8113 79.3439 32.8655 79.4241 32.8733C79.4542 32.876 79.4823 32.8898 79.5028 32.9121C79.5233 32.9344 79.5348 32.9636 79.535 32.9939L79.5405 34.0087C79.5405 34.0357 79.5504 34.0582 79.5702 34.0764C79.6491 34.1472 79.6897 34.2079 79.6913 34.3223C79.6975 34.9589 79.6954 35.3729 79.685 35.5643C79.6782 35.6852 79.7254 35.7687 79.8264 35.8149C79.8478 35.8248 79.8574 35.8416 79.8553 35.8655L79.8147 36.3106C79.8131 36.3288 79.8032 36.3389 79.785 36.341C79.773 36.3425 79.7598 36.3428 79.7452 36.3417C79.7428 36.3413 79.7408 36.3418 79.7397 36.3431C79.7385 36.3444 79.7384 36.3464 79.7392 36.3486C79.74 36.3509 79.7418 36.3532 79.7441 36.3552C79.7464 36.3571 79.749 36.3584 79.7514 36.3589C79.7587 36.3604 79.7652 36.363 79.771 36.3666C79.7793 36.3718 79.7788 36.3755 79.7694 36.3775C79.7621 36.3796 79.7551 36.3817 79.7483 36.3838C79.7447 36.3848 79.7454 36.3884 79.7506 36.3947L79.7936 36.4421C79.7948 36.4436 79.7956 36.4453 79.796 36.4472C79.7963 36.4491 79.7961 36.451 79.7955 36.4527C79.7948 36.4544 79.7937 36.4558 79.7923 36.4569C79.7908 36.4579 79.7891 36.4584 79.7874 36.4585L79.7295 36.4624C79.7269 36.4629 79.7269 36.4637 79.7295 36.4647C79.7499 36.474 79.7733 36.4816 79.7999 36.4873C79.8008 36.4872 79.8017 36.4874 79.8023 36.488C79.8029 36.4886 79.8032 36.4895 79.8031 36.4904C79.803 36.4913 79.8025 36.4922 79.8018 36.493C79.801 36.4937 79.8 36.4942 79.7991 36.4943L79.7678 36.4989C79.7637 36.4995 79.7629 36.5013 79.7655 36.5044C79.8436 36.6175 79.8668 36.734 79.835 36.8538C79.8288 36.8777 79.8139 36.8935 79.7905 36.9013L79.5897 36.9659C79.5725 36.9716 79.5733 36.975 79.5921 36.976C79.6004 36.9765 79.6082 36.9786 79.6155 36.9822C79.6353 36.9921 79.6342 36.9988 79.6124 37.0024C79.604 37.004 79.5957 37.0058 79.5874 37.0079C79.5853 37.0082 79.5834 37.0093 79.5822 37.011C79.5809 37.0127 79.5804 37.0148 79.5807 37.0168C79.581 37.0189 79.5822 37.0208 79.5838 37.022C79.5855 37.0232 79.5876 37.0238 79.5897 37.0235C79.596 37.0235 79.6027 37.0235 79.61 37.0235C79.6236 37.0229 79.6199 37.031 79.5991 37.0476C79.5918 37.0538 79.5866 37.0616 79.5835 37.0709C79.5772 37.0906 79.5842 37.1002 79.6045 37.0997C79.7853 37.0966 79.8788 37.1877 79.885 37.3729C79.9095 38.0976 79.923 38.8227 79.9256 39.548C79.9262 39.66 79.9728 39.7205 80.0655 39.7293C80.0913 39.7317 80.1155 39.7431 80.1337 39.7615C80.152 39.7799 80.1631 39.8041 80.1652 39.8299C80.1672 39.8556 80.1601 39.8813 80.145 39.9024C80.1299 39.9234 80.1078 39.9384 80.0827 39.9449C79.9759 39.9729 79.9228 40.0447 79.9233 40.1604C79.9249 40.7571 79.9272 41.3539 79.9303 41.9511C79.9309 42.0341 79.8889 42.0712 79.8045 42.0624C79.7639 42.0582 79.7551 42.0727 79.778 42.1059C79.7973 42.1334 79.8061 42.1654 79.8045 42.2017C79.8051 42.2085 79.8028 42.2152 79.7984 42.2204C79.7939 42.2256 79.7876 42.2288 79.7807 42.2293C79.7739 42.2298 79.7671 42.2276 79.7619 42.2231C79.7567 42.2187 79.7535 42.2124 79.753 42.2056C79.5691 41.35 79.3394 40.5176 79.0639 39.7083C78.2483 37.3153 77.135 34.9542 75.7194 32.8554C71.1952 26.1425 64.2397 20.976 56.1686 19.4523C52.4259 18.7456 48.6947 18.6663 44.9749 19.2141C39.5728 20.0095 34.7686 22.1641 30.5624 25.6779C28.5301 27.376 26.6907 29.2984 25.0444 31.4452C22.6905 34.5145 21.0069 38.1363 20.0866 41.8873C19.6522 43.6593 19.5139 45.1752 19.3124 46.8507C19.2905 47.0351 19.3045 47.2009 19.317 47.3838C19.3191 47.4087 19.3137 47.4318 19.3006 47.453C19.1655 47.6787 19.2717 47.8647 19.2741 48.0468C19.2756 48.2237 19.2795 48.4019 19.2858 48.5814" stroke="#016894" stroke-width="0.1875"/>
<path d="M22.1414 46.8459C22.1872 46.8766 22.1984 46.9214 22.175 46.9806C22.164 47.0096 22.1742 47.0236 22.2054 47.0226C22.3781 47.0172 22.4101 47.1012 22.4179 47.2631C22.4236 47.3855 22.4893 47.4696 22.6148 47.5152C22.6424 47.5251 22.6562 47.5445 22.6562 47.5736V47.7821C22.6562 47.805 22.6651 47.8236 22.6828 47.8382C22.7906 47.929 22.8328 48.0454 22.8093 48.1876C22.8069 48.2016 22.81 48.2159 22.8178 48.2278C22.8256 48.2396 22.8377 48.248 22.8515 48.2514C23.0109 48.2919 23.0744 48.3967 23.0421 48.5658C23.038 48.5876 23.0455 48.6044 23.0648 48.6164L23.232 48.7168C23.2559 48.7313 23.269 48.7523 23.271 48.7798L23.2914 49.0452C23.2934 49.0711 23.3044 49.0929 23.3242 49.1105C23.4937 49.2584 23.3648 49.481 23.5875 49.5245C23.6161 49.5303 23.6341 49.5471 23.6414 49.5751C23.6726 49.6867 23.7416 49.7624 23.8484 49.8024C23.875 49.8122 23.8895 49.8314 23.8921 49.86C23.9062 50.0431 23.9776 50.2011 24.1062 50.3339C24.1585 50.3868 24.2273 50.3821 24.2718 50.4584C24.3484 50.5891 24.2132 50.7277 24.4445 50.7899C24.465 50.7954 24.4827 50.8088 24.4937 50.8273L24.5671 50.9502C24.5828 50.9772 24.6049 50.9969 24.6335 51.0094C24.8554 51.1074 24.9513 51.2755 24.921 51.5137C24.9196 51.5247 24.9212 51.5359 24.9258 51.5462C24.9303 51.5564 24.9376 51.5654 24.9468 51.572C25.1117 51.6934 25.3007 51.7728 25.4156 51.944C25.4703 52.026 25.5229 52.1098 25.5734 52.1954C25.5879 52.2198 25.6112 52.2377 25.6382 52.2452C25.7195 52.268 25.7677 52.3207 25.7828 52.4031C25.7854 52.4166 25.7914 52.4292 25.8003 52.4395C25.8092 52.4499 25.8207 52.4578 25.8335 52.4623C26.0085 52.523 26.1257 52.6379 26.1851 52.807C26.1901 52.821 26.1986 52.8335 26.2098 52.8433C26.221 52.8532 26.2346 52.8599 26.2492 52.8631C26.3341 52.8817 26.3856 52.9323 26.4039 53.0148C26.407 53.029 26.4135 53.0423 26.4227 53.0535C26.4319 53.0647 26.4437 53.0736 26.457 53.0794C26.6205 53.1505 26.7388 53.2664 26.8117 53.4273C26.8237 53.4527 26.8453 53.4722 26.8718 53.4817C27.0119 53.5315 27.0669 53.6296 27.0367 53.7759C27.0356 53.7808 27.036 53.7859 27.0376 53.7907C27.0392 53.7954 27.0421 53.7997 27.0459 53.8029C27.0498 53.8062 27.0544 53.8084 27.0594 53.8092C27.0643 53.8101 27.0695 53.8096 27.0742 53.8078L27.1578 53.7775" stroke="#017AAD" stroke-width="0.1875"/>
<path d="M27.1577 53.7776C23.2382 57.9994 19.3757 62.5309 16.7905 67.7091C16.7878 67.7143 16.7837 67.7187 16.7787 67.7217C16.7737 67.7248 16.768 67.7265 16.7622 67.7266C16.7564 67.7267 16.7507 67.7251 16.7458 67.7222C16.7409 67.7193 16.7369 67.715 16.7343 67.7099C14.6864 63.7462 13.284 59.5631 12.5272 55.1605C12.4702 54.8313 12.4296 54.4344 12.3772 54.0725C12.3736 54.0492 12.364 54.0284 12.3483 54.0103L12.2241 53.8694" stroke="#016894" stroke-width="0.1875"/>
<path d="M38.9507 77.4343C38.9944 77.4836 39.0116 77.516 39.0022 77.5315C38.9684 77.5881 38.995 77.6164 39.0819 77.6164C40.547 77.6153 41.9551 77.6158 43.3062 77.6179C43.4035 77.6179 43.4869 77.58 43.5562 77.5043C43.5645 77.495 43.5748 77.4875 43.5862 77.4822C43.5976 77.477 43.61 77.4742 43.6226 77.474C43.9944 77.4651 44.3673 77.4625 44.7413 77.4662C44.9155 77.4677 44.9765 77.4148 45.046 77.2669C45.0506 77.257 45.0579 77.2485 45.0671 77.2426C45.0762 77.2366 45.0868 77.2335 45.0976 77.2335L46.1257 77.2288C46.1496 77.2288 46.1684 77.219 46.1819 77.1992L46.2952 77.0413C46.3119 77.0174 46.3351 77.0047 46.3647 77.0031C46.6257 76.9907 47.1312 77.0607 47.3163 76.8755C47.3345 76.8568 47.3567 76.8475 47.3827 76.8475L48.2343 76.8405C48.2582 76.84 48.2772 76.8301 48.2913 76.8109L48.4069 76.6483C48.4145 76.6378 48.4243 76.6293 48.4355 76.6232C48.4467 76.6171 48.4591 76.6137 48.4718 76.6133L49.103 76.5946C49.1155 76.5943 49.1278 76.591 49.1387 76.5849C49.1496 76.5788 49.1588 76.5701 49.1655 76.5596L49.2515 76.4218C49.2687 76.3943 49.2934 76.3808 49.3257 76.3813C49.5897 76.3837 49.8819 76.421 49.9757 76.0996C50.0257 75.9269 50.0882 75.8249 50.0897 75.6529C50.0921 75.0405 50.2468 74.4343 50.4507 73.8747C51.4022 71.2638 53.3483 69.4506 55.7179 68.0109C58.5968 66.2615 61.9179 65.0848 65.2312 64.2413C65.3999 64.1985 65.5374 64.0965 65.6593 63.9837C67.6322 62.1689 69.6067 60.3559 71.5827 58.5448C71.6004 58.5287 71.6179 58.5201 71.6351 58.5191C71.6668 58.5165 71.684 58.5315 71.6866 58.5642" stroke="#016894" stroke-width="0.1875"/>
<path d="M56.9351 33.3845L52.5312 37.5845C52.5124 37.6027 52.49 37.6133 52.464 37.6164C43.9351 38.5799 36.9687 44.0048 31.0757 49.7876C29.4064 51.4255 28.1004 52.7555 27.1577 53.7775" stroke="#0170A0" stroke-width="0.1875"/>
<path d="M61.314 29.3059C61.2009 29.3542 61.0994 29.4211 61.0093 29.5067C59.6515 30.799 58.2934 32.0916 56.9351 33.3845" stroke="#016894" stroke-width="0.1875"/>
<path d="M56.9351 33.3846C56.9658 33.3084 56.9622 33.2378 56.9241 33.173C56.9101 33.1496 56.8898 33.1343 56.8632 33.127C56.8069 33.112 56.7616 33.0806 56.7273 33.0329C56.7204 33.0236 56.7156 33.013 56.7131 33.0017C56.7107 32.9904 56.7107 32.9788 56.7132 32.9675C56.7502 32.7859 56.6864 32.6661 56.5218 32.608C56.509 32.6036 56.4981 32.5949 56.4909 32.5834C56.4838 32.5719 56.4809 32.5583 56.4827 32.5449C56.5015 32.4101 56.4603 32.2988 56.3593 32.2111C56.3495 32.2028 56.3416 32.1925 56.3362 32.1808C56.3309 32.1691 56.3281 32.1563 56.328 32.1434V31.7885C56.328 31.7616 56.3181 31.7387 56.2984 31.72L55.8874 31.3333C55.8687 31.3156 55.8598 31.2938 55.8609 31.2679C55.8666 31.1429 55.8215 31.0394 55.7257 30.9574C55.7038 30.9387 55.6955 30.9151 55.7007 30.8866C55.7359 30.7045 55.6718 30.7053 55.5273 30.5986C55.3921 30.4983 55.5429 30.3286 55.4148 30.2134C55.3002 30.1102 55.1726 30.0326 55.0319 29.9807C55.0122 29.9735 55.003 29.9595 55.0046 29.9387C55.0228 29.6331 54.8997 29.402 54.6351 29.2453C54.6239 29.2388 54.6152 29.2289 54.61 29.2172C54.6048 29.2054 54.6035 29.1924 54.6062 29.18C54.6338 29.043 54.5853 28.9509 54.4609 28.9037C54.4351 28.8937 54.4138 28.8743 54.4007 28.8492C54.3502 28.7507 54.2838 28.6635 54.2015 28.5878C54.1405 28.5317 54.0554 28.5232 53.9968 28.4438C53.9889 28.4327 53.9834 28.4202 53.9806 28.407C53.9777 28.3937 53.9777 28.38 53.9804 28.3667C54.0163 28.1867 53.9515 28.0721 53.7859 28.0228C53.7643 28.0161 53.7436 28.0028 53.7273 27.9849C53.711 27.9671 53.7001 27.9459 53.6964 27.9249C53.6928 27.9038 53.6965 27.8843 53.7071 27.8695C53.7177 27.8548 53.7345 27.8457 53.7546 27.8438L53.8093 27.8399C53.8343 27.8378 53.8434 27.8246 53.8366 27.8002C53.8293 27.7743 53.8059 27.7582 53.7663 27.752" stroke="#017AAD" stroke-width="0.1875"/>
<path d="M29.5352 61.8273C29.5503 61.8263 29.5628 61.8304 29.5727 61.8398C29.5945 61.8605 29.5935 61.8797 29.5695 61.8973C29.5477 61.9139 29.5448 61.9303 29.5609 61.9464C29.5813 61.9661 29.5914 61.9902 29.5914 62.0187C29.5852 63.0294 29.5846 64.0405 29.5898 65.0522C29.5904 65.157 29.6115 65.3012 29.6531 65.4849C29.6995 65.6888 29.7073 65.8976 29.6766 66.1114C29.6731 66.136 29.6786 66.1611 29.6922 66.1822C29.7891 66.3321 29.825 66.4968 29.8 66.6763C29.7985 66.688 29.8004 66.6999 29.8055 66.7106C29.8945 66.9067 29.8617 67.0794 29.932 67.2522C29.9977 67.4133 30.0266 67.5674 30.0797 67.73C30.1328 67.8935 30.1164 68.0966 30.2484 68.2662C30.2641 68.287 30.274 68.3101 30.2781 68.3355C30.3182 68.5783 30.3568 68.7311 30.3938 68.7938C30.5203 69.0097 30.5917 69.178 30.6078 69.2989C30.6312 69.4771 30.7148 69.5503 30.7562 69.6639C30.9094 70.0849 31.1133 70.4444 31.2937 70.8841C31.4172 71.1861 31.6445 71.4164 31.7805 71.7036C31.8878 71.9298 32.0057 72.1254 32.1344 72.2903C32.3344 72.5464 32.4531 72.8296 32.6703 73.0452C32.8234 73.1977 32.907 73.3705 33.0562 73.5425C33.193 73.6997 33.2008 73.8826 33.4016 73.9876C33.4447 74.0105 33.495 74.016 33.5421 74.003C33.5891 73.9899 33.6291 73.9593 33.6539 73.9176C34.9914 71.6701 36.4969 69.5386 38.0539 67.4187" stroke="#FB4E50" stroke-width="0.1875"/>
<path d="M38.0537 67.4188C39.3537 65.7067 40.5157 64.251 41.5396 63.0515C43.9021 60.2842 46.5701 57.86 49.7084 55.99" stroke="#FA5A56" stroke-width="0.1875"/>
<path d="M49.7086 55.9899C52.256 54.4781 55.0521 53.5209 58.0969 53.1183C58.1031 53.1175 58.1091 53.115 58.1141 53.1112C58.1192 53.1074 58.1232 53.1024 58.1257 53.0965C58.1283 53.0907 58.1294 53.0843 58.1288 53.0779C58.1283 53.0715 58.1262 53.0653 58.1227 53.06C58.0258 52.9152 58.0133 52.7798 57.875 52.6452C57.4625 52.2452 57.055 51.8397 56.6523 51.4288C56.5794 51.3546 56.4698 51.2724 56.3234 51.1821C56.0953 51.0413 55.9594 50.8428 55.7289 50.6965C55.5925 50.6094 55.4768 50.4973 55.382 50.3604C55.3757 50.3514 55.3675 50.3441 55.358 50.339C55.3485 50.3338 55.338 50.331 55.3273 50.3308C55.1372 50.323 55.0253 50.2283 54.9914 50.0467C54.9867 50.0218 54.9716 50.0078 54.9461 50.0047C54.7607 49.985 54.6135 49.9017 54.5047 49.7549C54.4914 49.7371 54.473 49.7234 54.4516 49.7152C54.3698 49.6841 54.2883 49.6517 54.207 49.6179C54.0516 49.5526 53.9469 49.4133 53.7563 49.3681C53.7322 49.3625 53.7101 49.3507 53.6922 49.3339C53.6661 49.309 53.6203 49.2799 53.5547 49.2467C53.1859 49.061 52.8156 48.8786 52.4438 48.6997C52.2656 48.6141 52.0859 48.4763 51.8398 48.4405C51.8128 48.4364 51.7888 48.4257 51.768 48.4086C51.6148 48.2836 51.438 48.2166 51.2375 48.2078C51.2083 48.2063 51.1818 48.1972 51.1578 48.1806C50.8758 47.9868 50.5383 48.0498 50.3211 47.8561C50.3018 47.8384 50.2792 47.8294 50.2531 47.8288C50.1104 47.8247 49.9693 47.8047 49.8297 47.7689C49.5875 47.7059 49.4813 47.5207 49.1484 47.5977C49.1221 47.6038 49.0943 47.6007 49.0695 47.5891C48.9143 47.5139 48.75 47.4893 48.5766 47.5152C48.5652 47.5167 48.5538 47.5158 48.5429 47.5126C48.532 47.5094 48.5219 47.5039 48.5133 47.4965C48.2594 47.2786 47.8563 47.3495 47.5406 47.3456C47.5177 47.3456 47.5047 47.3342 47.5016 47.3113L47.4844 47.186" stroke="#FB4E50" stroke-width="0.1875"/>
<path d="M49.7086 55.99C49.6888 55.9516 49.6836 55.9202 49.6929 55.8958C49.7013 55.8756 49.6976 55.8574 49.682 55.8414C49.5591 55.7132 49.4083 55.6318 49.2297 55.597C49.1999 55.591 49.1731 55.5747 49.1539 55.5511C49.0909 55.4717 49.0078 55.4372 48.9047 55.4476C48.8771 55.4502 48.8502 55.4471 48.8242 55.4382C48.6289 55.369 48.4422 55.204 48.2054 55.2126C48.0351 55.2183 47.8573 55.1532 47.6718 55.0172C47.6515 55.0017 47.6286 54.9941 47.6031 54.9947C47.2961 55.0001 47.0109 54.9028 46.7304 54.9028C45.9351 54.9028 45.1401 54.9031 44.3453 54.9036C44.2531 54.9036 44.1672 54.9316 44.0812 54.9581C43.8679 55.0219 43.7343 54.9254 43.5375 55.095C43.5182 55.1122 43.4955 55.1223 43.4695 55.1254C43.3185 55.1451 43.17 55.1775 43.0242 55.2227C42.8812 55.2663 42.8156 55.376 42.5945 55.3845C42.4627 55.3903 42.3276 55.4372 42.189 55.5254C42.0203 55.6328 41.8414 55.6631 41.6843 55.7822C41.5851 55.8577 41.4984 55.8733 41.3882 55.9145C41.2164 55.9799 41.1336 56.1254 40.9265 56.1775C40.901 56.1838 40.8817 56.1986 40.8687 56.2219C40.8093 56.3303 40.7182 56.3949 40.5953 56.4157C40.5687 56.4198 40.5474 56.4328 40.5312 56.4546C40.389 56.646 40.2065 56.7817 39.9836 56.8616C39.9591 56.8709 39.9419 56.8878 39.932 56.9122C39.8997 56.9941 39.8416 57.0533 39.7578 57.0896C39.7317 57.1005 39.7122 57.1184 39.6992 57.1433C39.6757 57.1905 39.657 57.2198 39.6429 57.2312C39.4687 57.3799 38.9554 57.8133 38.8984 58.0639C38.8938 58.0852 38.8832 58.1047 38.8679 58.12L38.582 58.4063C38.5638 58.424 38.5521 58.445 38.5468 58.4694C38.5198 58.5871 38.4544 58.6751 38.3508 58.7332C38.338 58.7403 38.327 58.7501 38.3185 58.7619C38.31 58.7737 38.3042 58.7873 38.3015 58.8017C38.2781 58.9246 38.2172 59.0237 38.1187 59.0989C38.0958 59.1166 38.081 59.1394 38.0742 59.1674C38.044 59.2893 37.9955 59.4017 37.9289 59.5044C37.7953 59.7098 37.7515 59.9293 37.6023 60.1238C37.5867 60.1441 37.5778 60.1669 37.5757 60.1923C37.5622 60.3646 37.4981 60.5135 37.3836 60.639C37.3634 60.6606 37.3518 60.6885 37.3507 60.7176C37.339 61.0118 37.3132 61.3308 37.1312 61.5067C37.1215 61.5159 37.1141 61.5272 37.1095 61.5397C37.1049 61.5523 37.1032 61.5658 37.1047 61.5791C37.139 61.8725 37.0328 62.1254 37.032 62.383C37.031 62.687 37.0307 62.991 37.0312 63.2951C37.0312 63.3822 36.9929 63.4772 37.0054 63.576C37.05 63.9254 37.032 64.2834 37.0312 64.6359C37.0304 64.8803 37.139 65.1153 37.1031 65.3962C37.1001 65.4212 37.1068 65.4465 37.1218 65.467C37.2703 65.6725 37.3432 65.8608 37.3406 66.032C37.3351 66.3394 37.5664 66.488 37.5843 66.8219C37.5854 66.8499 37.5945 66.8751 37.6117 66.8974C37.7304 67.053 37.8062 67.2281 37.839 67.4227C37.8403 67.4298 37.843 67.4367 37.8471 67.4427C37.8512 67.4487 37.8565 67.4538 37.8627 67.4576C37.8689 67.4614 37.8759 67.4639 37.8831 67.4649C37.8903 67.4658 37.8977 67.4652 37.9047 67.4631L38.0539 67.4188" stroke="#F86F61" stroke-width="0.1875"/>
<path d="M75.4477 21.1869C75.4419 21.2621 75.4919 21.3225 75.5977 21.3682C75.6086 21.373 75.6183 21.3803 75.626 21.3895C75.6337 21.3987 75.6393 21.4095 75.6422 21.4211C75.6589 21.4912 75.7047 21.5332 75.7797 21.5472C75.7826 21.5481 75.785 21.55 75.7867 21.5525C75.7883 21.555 75.7891 21.558 75.7888 21.561C75.7885 21.5639 75.7872 21.5667 75.7852 21.5689C75.7831 21.5711 75.7803 21.5725 75.7774 21.5729H75.7539C75.73 21.5729 75.718 21.5848 75.718 21.6087L75.7141 21.9581C75.7141 21.9934 75.7308 22.0159 75.7641 22.0258C76.0641 22.1161 75.8266 22.418 76.1031 22.4616C76.1174 22.4638 76.1305 22.4706 76.1404 22.481C76.1503 22.4915 76.1564 22.5049 76.1578 22.5192L76.1891 22.8118C76.1916 22.8334 76.2015 22.8535 76.2172 22.8686C76.368 23.0118 76.2789 23.2818 76.4899 23.3176C76.5227 23.3233 76.5414 23.3425 76.5461 23.3752L76.5844 23.6172C76.5858 23.6261 76.5894 23.6347 76.5948 23.6421C76.6003 23.6495 76.6074 23.6556 76.6156 23.66L76.7547 23.7324C76.7813 23.7464 76.7951 23.7682 76.7961 23.7978L76.8086 24.2032C76.8097 24.2338 76.8219 24.259 76.8453 24.2787C76.9891 24.404 76.9469 24.5511 76.9742 24.7083C76.9763 24.7206 76.9818 24.7322 76.9901 24.7415C76.9984 24.7509 77.0092 24.7577 77.0211 24.7612C77.3906 24.8701 76.9961 25.3526 77.3649 25.425C77.379 25.4278 77.3916 25.4355 77.4005 25.4468C77.4094 25.4581 77.4139 25.4722 77.4133 25.4865C77.406 25.6276 77.4495 25.748 77.5438 25.8476C77.5646 25.8688 77.5755 25.8945 77.5766 25.9246L77.593 26.334C77.5937 26.3497 77.5996 26.3648 77.6098 26.3768C77.62 26.3888 77.6339 26.397 77.6492 26.4001C77.8852 26.4491 77.8156 26.8048 77.8305 26.9666C77.8319 26.9799 77.8374 26.9924 77.8463 27.0022C77.8551 27.012 77.8669 27.0187 77.8797 27.0211C78.1203 27.0701 78.0492 27.4203 78.0649 27.5845C78.0662 27.5997 78.0725 27.6141 78.0829 27.6255C78.0934 27.6369 78.1073 27.6446 78.1227 27.6476C78.2055 27.6621 78.2578 27.7065 78.2797 27.7807C78.285 27.7986 78.2889 27.8152 78.2913 27.829C78.2936 27.8428 78.2942 27.8535 78.293 27.86C78.2513 28.0535 78.2925 28.2219 78.4164 28.3651C78.4321 28.3838 78.4399 28.4053 78.4399 28.4297L78.4375 29.0336C78.4375 29.0475 78.4412 29.0611 78.4482 29.073C78.4553 29.085 78.4653 29.0947 78.4774 29.1013L78.6235 29.1822C78.6505 29.1973 78.6649 29.2203 78.6664 29.2515C78.6758 29.4507 78.6844 29.6499 78.6922 29.8491C78.6959 29.9436 78.7331 29.9926 78.8039 29.9962C78.8314 29.9978 78.8573 30.0096 78.8765 30.0294C78.8956 30.0492 78.9065 30.0754 78.9071 30.1028L78.9172 30.6624C78.9177 30.6914 78.9287 30.7155 78.95 30.7347C79.2102 30.9682 78.8774 31.6522 79.2016 31.6896C79.2146 31.6912 79.2266 31.6972 79.2356 31.7066C79.2446 31.716 79.25 31.7281 79.2508 31.741C79.2695 32.0637 79.2852 32.3869 79.2977 32.7106C79.3018 32.8113 79.344 32.8655 79.4242 32.8733C79.4544 32.876 79.4824 32.8898 79.5029 32.9121C79.5234 32.9344 79.5349 32.9636 79.5352 32.9939L79.5406 34.0087C79.5406 34.0356 79.5505 34.0582 79.5703 34.0764C79.6492 34.1472 79.6899 34.2079 79.6914 34.3223C79.6977 34.9589 79.6956 35.3729 79.6852 35.5643C79.6784 35.6852 79.7255 35.7687 79.8266 35.8149C79.8479 35.8248 79.8576 35.8416 79.8555 35.8655L79.8149 36.3106C79.8133 36.3288 79.8034 36.3389 79.7852 36.341C79.7732 36.3425 79.7599 36.3428 79.7453 36.3417C79.7429 36.3413 79.7409 36.3418 79.7398 36.3431C79.7387 36.3443 79.7385 36.3463 79.7394 36.3486C79.7402 36.3509 79.7419 36.3532 79.7442 36.3552C79.7465 36.3571 79.7492 36.3584 79.7516 36.3589C79.7589 36.3604 79.7654 36.363 79.7711 36.3666C79.7794 36.3718 79.7789 36.3755 79.7695 36.3775C79.7623 36.3796 79.7552 36.3817 79.7485 36.3838C79.7448 36.3848 79.7456 36.3884 79.7508 36.3947L79.7938 36.4421C79.795 36.4436 79.7958 36.4453 79.7961 36.4472C79.7965 36.4491 79.7963 36.451 79.7956 36.4527C79.795 36.4544 79.7939 36.4558 79.7924 36.4569C79.791 36.4579 79.7893 36.4584 79.7875 36.4585L79.7297 36.4624C79.7271 36.4629 79.7271 36.4637 79.7297 36.4647C79.75 36.474 79.7735 36.4816 79.8 36.4873C79.801 36.4872 79.8019 36.4874 79.8025 36.488C79.8031 36.4886 79.8034 36.4894 79.8033 36.4904C79.8032 36.4913 79.8027 36.4922 79.8019 36.493C79.8012 36.4937 79.8002 36.4942 79.7992 36.4943L79.768 36.4989C79.7638 36.4995 79.763 36.5013 79.7656 36.5044C79.8438 36.6175 79.867 36.734 79.8352 36.8538C79.8289 36.8777 79.8141 36.8935 79.7906 36.9013L79.5899 36.9659C79.5727 36.9716 79.5735 36.9749 79.5922 36.976C79.6005 36.9765 79.6084 36.9786 79.6156 36.9822C79.6354 36.9921 79.6344 36.9988 79.6125 37.0024C79.6042 37.004 79.5958 37.0058 79.5875 37.0079C79.5854 37.0082 79.5836 37.0093 79.5823 37.011C79.5811 37.0127 79.5806 37.0148 79.5809 37.0168C79.5812 37.0189 79.5823 37.0208 79.584 37.022C79.5857 37.0232 79.5878 37.0238 79.5899 37.0235C79.5961 37.0235 79.6029 37.0235 79.6102 37.0235C79.6237 37.0229 79.6201 37.031 79.5992 37.0476C79.5919 37.0538 79.5867 37.0616 79.5836 37.0709C79.5774 37.0906 79.5844 37.1002 79.6047 37.0997C79.7854 37.0966 79.8789 37.1877 79.8852 37.3729C79.9097 38.0976 79.9232 38.8227 79.9258 39.548C79.9263 39.66 79.9729 39.7205 80.0656 39.7293C80.0915 39.7317 80.1157 39.7431 80.1339 39.7615C80.1521 39.7799 80.1633 39.8041 80.1653 39.8299C80.1674 39.8556 80.1602 39.8813 80.1451 39.9024C80.1301 39.9234 80.108 39.9384 80.0828 39.9449C79.9761 39.9729 79.9229 40.0447 79.9235 40.1604C79.925 40.757 79.9274 41.3539 79.9305 41.9511C79.931 42.0341 79.8891 42.0712 79.8047 42.0624C79.7641 42.0582 79.7552 42.0727 79.7781 42.1059C79.7974 42.1334 79.8063 42.1653 79.8047 42.2017C79.8052 42.2085 79.803 42.2152 79.7985 42.2204C79.7941 42.2256 79.7877 42.2288 79.7809 42.2293C79.774 42.2298 79.7673 42.2276 79.7621 42.2231C79.7569 42.2187 79.7537 42.2124 79.7531 42.2056C79.5693 41.35 79.3396 40.5176 79.0641 39.7083C78.2485 37.3153 77.1352 34.9542 75.7196 32.8554C71.1953 26.1425 64.2399 20.976 56.1688 19.4522C52.4261 18.7456 48.6948 18.6663 44.975 19.2141C39.5729 20.0094 34.7688 22.1641 30.5625 25.6779C28.5302 27.376 26.6909 29.2984 25.0446 31.4452C22.6906 34.5145 21.0071 38.1363 20.0867 41.8873C19.6524 43.6593 19.5141 45.1752 19.3125 46.8507C19.2906 47.0351 19.3047 47.2009 19.3172 47.3838C19.3193 47.4087 19.3138 47.4318 19.3008 47.453C19.1656 47.6787 19.2719 47.8647 19.2742 48.0468C19.2758 48.2237 19.2797 48.4019 19.286 48.5814L19.2344 50.1386C19.2341 50.1444 19.2356 50.15 19.2388 50.1548C19.2419 50.1596 19.2465 50.1634 19.2518 50.1654C19.2572 50.1675 19.2631 50.1678 19.2687 50.1664C19.2742 50.1649 19.2792 50.1617 19.2828 50.1573L22.1414 46.846C22.1873 46.8766 22.1985 46.9215 22.175 46.9807C22.1641 47.0097 22.1742 47.0237 22.2055 47.0227C22.3781 47.0172 22.4102 47.1013 22.418 47.2631C22.4237 47.3856 22.4893 47.4696 22.6149 47.5153C22.6425 47.5251 22.6563 47.5446 22.6563 47.5737V47.7822C22.6563 47.805 22.6651 47.8237 22.6828 47.8382C22.7906 47.929 22.8328 48.0455 22.8094 48.1877C22.807 48.2016 22.81 48.216 22.8179 48.2278C22.8257 48.2397 22.8377 48.2481 22.8516 48.2515C23.011 48.2919 23.0745 48.3967 23.0422 48.5659C23.038 48.5877 23.0456 48.6045 23.0649 48.6165L23.2321 48.7168C23.256 48.7314 23.269 48.7524 23.2711 48.7799L23.2914 49.0452C23.2935 49.0712 23.3044 49.093 23.3242 49.1106C23.4938 49.2585 23.3649 49.481 23.5875 49.5246C23.6162 49.5303 23.6341 49.5472 23.6414 49.5752C23.6727 49.6867 23.7417 49.7625 23.8485 49.8024C23.875 49.8123 23.8896 49.8315 23.8922 49.86C23.9063 50.0432 23.9776 50.2011 24.1063 50.334C24.1586 50.3869 24.2274 50.3822 24.2719 50.4585C24.3485 50.5892 24.2133 50.7277 24.4446 50.79C24.4651 50.7955 24.4828 50.8089 24.4938 50.8273L24.5672 50.9503C24.5828 50.9773 24.605 50.997 24.6336 51.0094C24.8555 51.1075 24.9513 51.2756 24.9211 51.5137C24.9197 51.5247 24.9213 51.536 24.9258 51.5462C24.9304 51.5565 24.9377 51.5654 24.9469 51.5721C25.1117 51.6935 25.3008 51.7729 25.4156 51.9441C25.4703 52.026 25.5229 52.1098 25.5735 52.1954C25.588 52.2199 25.6112 52.2377 25.6383 52.2452C25.7196 52.2681 25.7677 52.3207 25.7828 52.4032C25.7854 52.4167 25.7915 52.4292 25.8004 52.4396C25.8093 52.45 25.8207 52.4578 25.8336 52.4624C26.0086 52.5231 26.1258 52.638 26.1852 52.8071C26.1902 52.8211 26.1987 52.8336 26.2099 52.8434C26.2211 52.8532 26.2347 52.86 26.2492 52.8631C26.3341 52.8818 26.3857 52.9324 26.4039 53.0149C26.4071 53.0291 26.4136 53.0424 26.4228 53.0536C26.432 53.0648 26.4438 53.0737 26.4571 53.0795C26.6206 53.1506 26.7388 53.2665 26.8117 53.4273C26.8237 53.4527 26.8454 53.4723 26.8719 53.4818C27.012 53.5316 27.0669 53.6297 27.0367 53.776C27.0357 53.7809 27.036 53.786 27.0377 53.7907C27.0393 53.7955 27.0422 53.7997 27.046 53.803C27.0498 53.8063 27.0545 53.8084 27.0595 53.8093C27.0644 53.8102 27.0695 53.8097 27.0742 53.8079L27.1578 53.7775C23.2383 57.9993 19.3758 62.5308 16.7906 67.7091C16.7879 67.7142 16.7838 67.7186 16.7789 67.7217C16.7739 67.7248 16.7681 67.7265 16.7623 67.7265C16.7565 67.7266 16.7508 67.7251 16.7459 67.7222C16.741 67.7192 16.737 67.7149 16.7344 67.7098C14.6865 63.7462 13.2841 59.563 12.5274 55.1604C12.4703 54.8312 12.4297 54.4343 12.3774 54.0725C12.3737 54.0491 12.3641 54.0284 12.3485 54.0102L12.2242 53.8694C11.8102 48.5573 12.1086 43.0009 13.6977 37.9238C15.1555 33.2663 17.4352 29.0678 20.6219 25.3417C24.8344 20.4157 29.9586 16.425 35.9813 14.0328C41.7805 11.7285 48.2453 11.0849 54.4352 11.7052C62.4039 12.5028 69.5664 15.8141 75.4477 21.1869Z" fill="#0171A1"/>
<path d="M75.4478 21.1869C80.9978 26.1596 85.0954 32.4694 86.8759 39.6491C88.0493 44.3822 88.3134 49.3542 87.8704 54.2024C87.2996 60.451 85.2863 66.1231 81.8306 71.2188C79.3696 74.8478 76.328 78.0372 72.7056 80.7869C67.4155 84.8019 61.4709 87.1944 54.872 87.9643C53.6142 88.1106 52.104 88.0717 50.9962 88.0499C49.2472 88.0162 47.5092 87.8613 45.7821 87.5853C42.5876 87.074 38.3681 85.7503 38.154 81.8398C38.1524 81.8082 38.1561 81.6113 38.165 81.2491C38.179 80.6779 38.1243 80.1503 38.2376 79.5488C38.3657 78.8709 38.6814 78.12 38.9509 77.4344C38.9946 77.4836 39.0118 77.5161 39.0025 77.5316C38.9686 77.5882 38.9952 77.6165 39.0821 77.6165C40.5472 77.6154 41.9553 77.6159 43.3064 77.618C43.4038 77.618 43.4871 77.5801 43.5564 77.5044C43.5647 77.4951 43.575 77.4875 43.5864 77.4823C43.5978 77.4771 43.6102 77.4743 43.6228 77.474C43.9946 77.4652 44.3676 77.4626 44.7415 77.4663C44.9157 77.4678 44.9767 77.4149 45.0462 77.267C45.0508 77.2571 45.0581 77.2486 45.0673 77.2427C45.0764 77.2367 45.087 77.2336 45.0978 77.2336L46.1259 77.2289C46.1498 77.2289 46.1686 77.2191 46.1821 77.1993L46.2954 77.0414C46.3121 77.0175 46.3353 77.0048 46.365 77.0032C46.6259 76.9908 47.1314 77.0608 47.3165 76.8756C47.3347 76.8569 47.3569 76.8476 47.3829 76.8476L48.2345 76.8406C48.2584 76.8401 48.2775 76.8302 48.2915 76.811L48.4071 76.6484C48.4147 76.6379 48.4245 76.6293 48.4357 76.6233C48.4469 76.6172 48.4593 76.6138 48.472 76.6133L49.1032 76.5947C49.1157 76.5944 49.128 76.5911 49.1389 76.585C49.1498 76.5789 49.159 76.5702 49.1657 76.5596L49.2517 76.4219C49.2689 76.3944 49.2936 76.3809 49.3259 76.3814C49.5899 76.3838 49.8821 76.4211 49.9759 76.0997C50.0259 75.927 50.0884 75.825 50.09 75.653C50.0923 75.0406 50.247 74.4344 50.4509 73.8748C51.4025 71.2639 53.3485 69.4507 55.7181 68.011C58.597 66.2616 61.9181 65.0849 65.2314 64.2414C65.4001 64.1986 65.5376 64.0966 65.6595 63.9838C67.6324 62.169 69.6069 60.356 71.5829 58.5449C71.6006 58.5288 71.6181 58.5202 71.6353 58.5192C71.667 58.5166 71.6842 58.5316 71.6868 58.5643L65.4673 65.2219C65.4496 65.2411 65.4282 65.2541 65.4032 65.2608C61.3985 66.3137 57.3345 67.7472 54.004 70.2709C52.0782 71.7293 50.6353 73.7386 50.136 76.1091C50.1095 76.2351 50.1071 76.4095 50.1423 76.548C50.779 79.0585 54.1532 79.2772 56.197 79.2904C60.4431 79.3176 64.4181 77.7667 67.7993 75.2624C71.1548 72.7768 74.1173 69.6398 76.2337 66.0344C79.0103 61.3036 80.3001 56.2048 80.5189 50.7394C80.5962 48.8211 80.4142 46.853 80.0985 44.9612C79.2267 39.7386 76.8439 34.8818 73.3829 30.8717C68.4853 25.1947 62.1025 21.3231 54.6103 20.274C51.154 19.79 47.4556 19.8188 43.9767 20.4631C38.6428 21.451 33.9436 23.7469 29.879 27.3511C26.2821 30.541 23.2946 34.3161 21.4712 38.783C20.1735 41.9596 19.4696 45.1519 19.286 48.5814C19.2798 48.4019 19.2759 48.2237 19.2743 48.0468C19.272 47.8647 19.1657 47.6787 19.3009 47.453C19.3139 47.4318 19.3194 47.4087 19.3173 47.3838C19.3048 47.2009 19.2907 47.0351 19.3126 46.8507C19.5142 45.1752 19.6524 43.6593 20.0868 41.8873C21.0071 38.1363 22.6907 34.5145 25.0446 31.4452C26.691 29.2984 28.5303 27.376 30.5626 25.6779C34.7689 22.1641 39.573 20.0095 44.9751 19.2141C48.6949 18.6663 52.4261 18.7456 56.1689 19.4523C64.24 20.976 71.1954 26.1425 75.7196 32.8554C77.1353 34.9542 78.2485 37.3153 79.0642 39.7083C79.3397 40.5176 79.5694 41.35 79.7532 42.2056C79.7537 42.2124 79.757 42.2187 79.7622 42.2232C79.7674 42.2276 79.7741 42.2298 79.781 42.2293C79.7878 42.2288 79.7942 42.2256 79.7986 42.2204C79.8031 42.2152 79.8053 42.2085 79.8048 42.2017C79.8064 42.1654 79.7975 42.1334 79.7782 42.106C79.7553 42.0727 79.7642 42.0582 79.8048 42.0624C79.8892 42.0712 79.9311 42.0341 79.9306 41.9511C79.9274 41.3539 79.9251 40.7571 79.9235 40.1604C79.923 40.0447 79.9761 39.9729 80.0829 39.9449C80.1081 39.9385 80.1301 39.9234 80.1452 39.9024C80.1603 39.8813 80.1675 39.8557 80.1654 39.8299C80.1634 39.8041 80.1522 39.7799 80.134 39.7615C80.1158 39.7431 80.0916 39.7317 80.0657 39.7293C79.973 39.7205 79.9264 39.66 79.9259 39.548C79.9233 38.8227 79.9097 38.0976 79.8853 37.3729C79.879 37.1877 79.7855 37.0966 79.6048 37.0997C79.5845 37.1002 79.5774 37.0906 79.5837 37.0709C79.5868 37.0616 79.592 37.0538 79.5993 37.0476C79.6202 37.031 79.6238 37.0229 79.6103 37.0235C79.603 37.0235 79.5962 37.0235 79.59 37.0235C79.5879 37.0238 79.5858 37.0232 79.5841 37.022C79.5824 37.0208 79.5813 37.0189 79.581 37.0168C79.5807 37.0148 79.5812 37.0127 79.5824 37.011C79.5837 37.0093 79.5855 37.0082 79.5876 37.0079C79.5959 37.0058 79.6043 37.004 79.6126 37.0024C79.6345 36.9988 79.6355 36.9921 79.6157 36.9822C79.6084 36.9786 79.6006 36.9765 79.5923 36.976C79.5735 36.975 79.5728 36.9716 79.59 36.9659L79.7907 36.9013C79.8142 36.8935 79.829 36.8777 79.8353 36.8538C79.867 36.734 79.8439 36.6175 79.7657 36.5044C79.7631 36.5013 79.7639 36.4995 79.7681 36.4989L79.7993 36.4943C79.8003 36.4942 79.8013 36.4937 79.802 36.493C79.8028 36.4922 79.8033 36.4913 79.8034 36.4904C79.8035 36.4895 79.8032 36.4886 79.8026 36.488C79.802 36.4874 79.8011 36.4872 79.8001 36.4873C79.7735 36.4816 79.7501 36.474 79.7298 36.4647C79.7272 36.4637 79.7272 36.4629 79.7298 36.4624L79.7876 36.4585C79.7894 36.4584 79.7911 36.4579 79.7925 36.4569C79.794 36.4558 79.7951 36.4544 79.7957 36.4527C79.7964 36.451 79.7966 36.4491 79.7962 36.4472C79.7959 36.4453 79.7951 36.4436 79.7939 36.4421L79.7509 36.3947C79.7457 36.3884 79.7449 36.3848 79.7485 36.3838C79.7553 36.3817 79.7623 36.3796 79.7696 36.3775C79.779 36.3755 79.7795 36.3718 79.7712 36.3666C79.7655 36.363 79.759 36.3604 79.7517 36.3589C79.7505 36.3586 79.7492 36.3582 79.7479 36.3576C79.7467 36.3569 79.7455 36.3561 79.7443 36.3552C79.742 36.3533 79.7403 36.3509 79.7394 36.3486C79.7386 36.3464 79.7388 36.3444 79.7399 36.3431C79.741 36.3418 79.743 36.3413 79.7454 36.3417C79.76 36.3428 79.7733 36.3425 79.7853 36.341C79.8035 36.3389 79.8134 36.3288 79.8149 36.3106L79.8556 35.8655C79.8577 35.8416 79.848 35.8248 79.8267 35.8149C79.7256 35.7687 79.6785 35.6852 79.6853 35.5643C79.6957 35.3729 79.6978 34.9589 79.6915 34.3223C79.6899 34.2079 79.6493 34.1472 79.5704 34.0764C79.5506 34.0582 79.5407 34.0357 79.5407 34.0087L79.5353 32.9939C79.535 32.9636 79.5235 32.9344 79.503 32.9121C79.4825 32.8898 79.4545 32.876 79.4243 32.8733C79.3441 32.8655 79.3019 32.8113 79.2978 32.7106C79.2853 32.3869 79.2696 32.0637 79.2509 31.741C79.2501 31.7281 79.2447 31.716 79.2357 31.7066C79.2267 31.6972 79.2147 31.6912 79.2017 31.6896C78.8775 31.6523 79.2103 30.9682 78.9501 30.7347C78.9288 30.7155 78.9178 30.6914 78.9173 30.6624L78.9071 30.1028C78.9066 30.0754 78.8957 30.0492 78.8765 30.0294C78.8574 30.0096 78.8315 29.9978 78.804 29.9962C78.7332 29.9926 78.6959 29.9436 78.6923 29.8491C78.6845 29.6499 78.6759 29.4507 78.6665 29.2515C78.6649 29.2203 78.6506 29.1973 78.6235 29.1822L78.4775 29.1013C78.4654 29.0947 78.4553 29.085 78.4483 29.073C78.4413 29.0611 78.4376 29.0475 78.4376 29.0336L78.44 28.4297C78.44 28.4053 78.4321 28.3838 78.4165 28.3651C78.2926 28.2219 78.2514 28.0535 78.2931 27.86C78.2943 27.8535 78.2937 27.8429 78.2914 27.829C78.289 27.8152 78.2851 27.7986 78.2798 27.7807C78.2579 27.7065 78.2056 27.6621 78.1228 27.6476C78.1074 27.6446 78.0935 27.6369 78.083 27.6255C78.0726 27.6141 78.0662 27.5997 78.0649 27.5845C78.0493 27.4203 78.1204 27.0702 77.8798 27.0211C77.8669 27.0187 77.8552 27.012 77.8464 27.0022C77.8375 26.9924 77.832 26.9799 77.8306 26.9667C77.8157 26.8048 77.8853 26.4491 77.6493 26.4001C77.634 26.397 77.6201 26.3888 77.6099 26.3768C77.5997 26.3648 77.5938 26.3497 77.5931 26.334L77.5767 25.9246C77.5756 25.8945 77.5647 25.8689 77.5439 25.8476C77.4496 25.748 77.4061 25.6276 77.4134 25.4865C77.414 25.4722 77.4095 25.4581 77.4006 25.4468C77.3917 25.4355 77.3791 25.4278 77.365 25.425C76.9962 25.3526 77.3907 24.8702 77.0212 24.7612C77.0092 24.7577 76.9985 24.7509 76.9902 24.7415C76.9819 24.7322 76.9764 24.7207 76.9743 24.7083C76.947 24.5511 76.9892 24.404 76.8454 24.2787C76.822 24.259 76.8097 24.2338 76.8087 24.2032L76.7962 23.7978C76.7952 23.7682 76.7814 23.7464 76.7548 23.7324L76.6157 23.66C76.6075 23.6557 76.6003 23.6495 76.5949 23.6421C76.5895 23.6347 76.5859 23.6262 76.5845 23.6172L76.5462 23.3752C76.5415 23.3425 76.5228 23.3233 76.49 23.3176C76.279 23.2818 76.3681 23.0118 76.2173 22.8686C76.2016 22.8535 76.1917 22.8334 76.1892 22.8118L76.1579 22.5192C76.1565 22.5049 76.1504 22.4915 76.1405 22.481C76.1306 22.4706 76.1175 22.4638 76.1032 22.4616C75.8267 22.418 76.0642 22.1161 75.7642 22.0258C75.7308 22.0159 75.7142 21.9934 75.7142 21.9581L75.7181 21.6087C75.7181 21.5848 75.7301 21.5729 75.754 21.5729H75.7775C75.7804 21.5725 75.7832 21.5711 75.7853 21.5689C75.7873 21.5667 75.7886 21.5639 75.7889 21.561C75.7892 21.558 75.7884 21.555 75.7868 21.5525C75.7851 21.55 75.7826 21.5481 75.7798 21.5472C75.7048 21.5332 75.659 21.4912 75.6423 21.4211C75.6393 21.4095 75.6338 21.3987 75.6261 21.3895C75.6184 21.3803 75.6087 21.3731 75.5978 21.3682C75.492 21.3226 75.442 21.2621 75.4478 21.1869Z" fill="url(#paint0_linear_59_748)"/>
<path d="M61.314 29.3059C61.201 29.3541 61.0994 29.4211 61.0093 29.5067C59.6515 30.799 58.2934 32.0916 56.9351 33.3845C56.9658 33.3082 56.9622 33.2377 56.9241 33.1728C56.9101 33.1495 56.8898 33.1342 56.8632 33.1269C56.8069 33.1118 56.7616 33.0805 56.7273 33.0327C56.7204 33.0235 56.7156 33.0128 56.7131 33.0016C56.7107 32.9903 56.7107 32.9786 56.7132 32.9674C56.7502 32.7858 56.6864 32.6659 56.5218 32.6078C56.509 32.6034 56.4981 32.5948 56.4909 32.5833C56.4838 32.5718 56.4809 32.5582 56.4827 32.5448C56.5015 32.4099 56.4603 32.2986 56.3593 32.2109C56.3495 32.2027 56.3416 32.1923 56.3362 32.1806C56.3309 32.169 56.3281 32.1562 56.328 32.1432V31.7884C56.328 31.7614 56.3181 31.7386 56.2984 31.7199L55.8874 31.3331C55.8687 31.3155 55.8598 31.2937 55.8609 31.2678C55.8666 31.1427 55.8215 31.0392 55.7257 30.9572C55.7038 30.9386 55.6955 30.915 55.7007 30.8864C55.7359 30.7043 55.6718 30.7051 55.5273 30.5985C55.3921 30.4981 55.5429 30.3285 55.4148 30.2133C55.3002 30.11 55.1726 30.0325 55.0319 29.9806C55.0122 29.9733 55.003 29.9593 55.0046 29.9386C55.0228 29.633 54.8997 29.4019 54.6351 29.2452C54.6239 29.2386 54.6152 29.2287 54.61 29.217C54.6048 29.2053 54.6035 29.1923 54.6062 29.1798C54.6338 29.0428 54.5853 28.9508 54.4609 28.9035C54.4351 28.8935 54.4138 28.8741 54.4007 28.8491C54.3502 28.7505 54.2838 28.6633 54.2015 28.5876C54.1405 28.5316 54.0554 28.523 53.9968 28.4436C53.9889 28.4326 53.9834 28.4201 53.9806 28.4068C53.9777 28.3936 53.9777 28.3799 53.9804 28.3666C54.0163 28.1866 53.9515 28.0719 53.7859 28.0226C53.7643 28.016 53.7436 28.0026 53.7273 27.9848C53.711 27.9669 53.7001 27.9457 53.6964 27.9247C53.6928 27.9037 53.6965 27.8841 53.7071 27.8694C53.7177 27.8546 53.7345 27.8455 53.7546 27.8436L53.8093 27.8397C53.8343 27.8377 53.8434 27.8244 53.8366 27.8C53.8293 27.7741 53.8059 27.758 53.7663 27.7518C56.5202 27.3144 59.4038 27.267 62.1405 28.2818C62.1512 28.2856 62.1608 28.2921 62.1684 28.3006C62.1759 28.309 62.1813 28.3192 62.1839 28.3303C62.1866 28.3413 62.1864 28.3528 62.1835 28.3638C62.1805 28.3747 62.1749 28.3848 62.1671 28.393L61.314 29.3059Z" fill="#0171A1"/>
<path d="M53.7664 27.7517C53.8059 27.7579 53.8294 27.774 53.8367 27.8C53.8434 27.8243 53.8343 27.8376 53.8093 27.8396L53.7546 27.8435C53.7345 27.8454 53.7178 27.8545 53.7072 27.8693C53.6966 27.8841 53.6928 27.9036 53.6965 27.9246C53.7001 27.9456 53.711 27.9669 53.7273 27.9847C53.7436 28.0025 53.7643 28.0159 53.7859 28.0225C53.9515 28.0718 54.0164 28.1865 53.9804 28.3665C53.9777 28.3798 53.9778 28.3935 53.9806 28.4067C53.9834 28.42 53.9889 28.4325 53.9968 28.4435C54.0554 28.5229 54.1406 28.5315 54.2015 28.5875C54.2838 28.6633 54.3502 28.7504 54.4007 28.849C54.4138 28.8741 54.4352 28.8934 54.4609 28.9035C54.5854 28.9507 54.6338 29.0428 54.6062 29.1797C54.6035 29.1922 54.6048 29.2052 54.61 29.2169C54.6152 29.2287 54.624 29.2385 54.6351 29.2451C54.8997 29.4018 55.0229 29.6329 55.0046 29.9385C55.0031 29.9592 55.0122 29.9732 55.032 29.9805C55.1726 30.0324 55.3002 30.1099 55.4148 30.2132C55.5429 30.3284 55.3921 30.498 55.5273 30.5984C55.6718 30.705 55.7359 30.7042 55.7007 30.8863C55.6955 30.9149 55.7039 30.9385 55.7257 30.9572C55.8216 31.0391 55.8666 31.1426 55.8609 31.2677C55.8598 31.2936 55.8687 31.3154 55.8874 31.333L56.2984 31.7198C56.3182 31.7385 56.3281 31.7613 56.3281 31.7883V32.1431C56.3281 32.1561 56.3309 32.1689 56.3363 32.1806C56.3417 32.1922 56.3495 32.2026 56.3593 32.2109C56.4604 32.2985 56.5015 32.4098 56.4828 32.5447C56.4809 32.5581 56.4838 32.5717 56.491 32.5832C56.4981 32.5947 56.509 32.6034 56.5218 32.6077C56.6864 32.6658 56.7502 32.7857 56.7132 32.9673C56.7108 32.9785 56.7107 32.9902 56.7132 33.0015C56.7156 33.0127 56.7204 33.0234 56.7273 33.0326C56.7617 33.0804 56.807 33.1118 56.8632 33.1268C56.8898 33.1341 56.9101 33.1494 56.9242 33.1727C56.9622 33.2376 56.9658 33.3081 56.9351 33.3844L52.5312 37.5844C52.5124 37.6026 52.4901 37.6132 52.464 37.6163C43.9351 38.5797 36.9687 44.0046 31.0757 49.7875C29.4065 51.4254 28.1005 52.7553 27.1578 53.7774L27.0742 53.8077C27.0695 53.8095 27.0643 53.81 27.0594 53.8091C27.0544 53.8083 27.0498 53.8061 27.0459 53.8028C27.0421 53.7996 27.0392 53.7954 27.0376 53.7906C27.036 53.7859 27.0356 53.7808 27.0367 53.7758C27.0669 53.6295 27.0119 53.5315 26.8718 53.4817C26.8453 53.4722 26.8237 53.4526 26.8117 53.4272C26.7388 53.2664 26.6205 53.1504 26.457 53.0793C26.4437 53.0735 26.4319 53.0647 26.4227 53.0534C26.4135 53.0422 26.407 53.029 26.4039 53.0147C26.3856 52.9323 26.3341 52.8817 26.2492 52.863C26.2346 52.8599 26.221 52.8531 26.2098 52.8433C26.1986 52.8335 26.1901 52.821 26.1851 52.807C26.1257 52.6378 26.0085 52.5229 25.8335 52.4622C25.8207 52.4577 25.8092 52.4498 25.8003 52.4395C25.7914 52.4291 25.7854 52.4165 25.7828 52.4031C25.7677 52.3206 25.7195 52.2679 25.6382 52.2451C25.6112 52.2376 25.5879 52.2197 25.5734 52.1953C25.5229 52.1097 25.4703 52.0259 25.4156 51.9439C25.3007 51.7727 25.1117 51.6933 24.9468 51.5719C24.9376 51.5653 24.9303 51.5564 24.9258 51.5461C24.9212 51.5358 24.9196 51.5246 24.921 51.5136C24.9513 51.2754 24.8554 51.1073 24.6335 51.0093C24.6049 50.9968 24.5828 50.9771 24.5671 50.9502L24.4937 50.8272C24.4827 50.8087 24.465 50.7953 24.4445 50.7898C24.2132 50.7276 24.3484 50.5891 24.2718 50.4583C24.2273 50.3821 24.1585 50.3867 24.1062 50.3338C23.9776 50.201 23.9062 50.043 23.8921 49.8599C23.8895 49.8313 23.875 49.8121 23.8484 49.8023C23.7416 49.7623 23.6726 49.6866 23.6414 49.5751C23.6341 49.547 23.6161 49.5302 23.5875 49.5245C23.3648 49.4809 23.4937 49.2583 23.3242 49.1105C23.3044 49.0928 23.2934 49.071 23.2914 49.0451L23.271 48.7797C23.269 48.7522 23.2559 48.7312 23.232 48.7167L23.0648 48.6163C23.0455 48.6044 23.038 48.5875 23.0421 48.5657C23.0744 48.3966 23.0109 48.2918 22.8515 48.2513C22.8377 48.248 22.8256 48.2395 22.8178 48.2277C22.81 48.2158 22.8069 48.2015 22.8093 48.1875C22.8328 48.0454 22.7906 47.9289 22.6828 47.8381C22.6651 47.8236 22.6562 47.8049 22.6562 47.7821V47.5735C22.6562 47.5444 22.6424 47.525 22.6148 47.5151C22.4893 47.4695 22.4236 47.3854 22.4179 47.263C22.4101 47.1011 22.3781 47.0171 22.2054 47.0225C22.1742 47.0236 22.164 47.0096 22.175 46.9805C22.1984 46.9214 22.1872 46.8765 22.1414 46.8459C25.8937 42.7167 29.9257 38.8996 34.4671 35.6358C37.3015 33.5984 40.296 31.863 43.557 30.5898C46.8507 29.3042 50.4507 28.2801 53.7664 27.7517Z" fill="url(#paint1_linear_59_748)"/>
<path d="M61.314 29.3059L52.5288 38.674C52.5111 38.6932 52.489 38.7044 52.4624 38.7075C44.7194 39.5822 37.9749 44.2732 32.4812 49.5145C28.0054 53.7853 23.7257 58.3386 20.1101 63.3222C18.8455 65.0654 17.7358 66.8981 16.7812 68.8203C16.779 68.8245 16.7757 68.8281 16.7717 68.8306C16.7676 68.8331 16.763 68.8345 16.7583 68.8346C16.7536 68.8347 16.749 68.8334 16.7451 68.8311C16.7411 68.8287 16.7379 68.8252 16.7358 68.8211C14.3577 64.1417 12.7608 59.0997 12.2241 53.8693L12.3483 54.0102C12.364 54.0283 12.3736 54.0491 12.3772 54.0724C12.4296 54.4343 12.4702 54.8312 12.5272 55.1604C13.284 59.563 14.6864 63.7461 16.7343 67.7098C16.7369 67.7149 16.7409 67.7192 16.7458 67.7221C16.7507 67.7251 16.7564 67.7266 16.7622 67.7265C16.768 67.7264 16.7737 67.7247 16.7787 67.7217C16.7837 67.7186 16.7878 67.7142 16.7905 67.709C19.3757 62.5308 23.2382 57.9993 27.1577 53.7775C28.1004 52.7555 29.4064 51.4255 31.0757 49.7876C36.9686 44.0047 43.9351 38.5798 52.464 37.6164C52.49 37.6133 52.5124 37.6027 52.5312 37.5845L56.9351 33.3845C58.2934 32.0916 59.6515 30.799 61.0093 29.5067C61.0994 29.4211 61.2009 29.3542 61.314 29.3059Z" fill="url(#paint2_linear_59_748)"/>
<path d="M29.5352 61.8272C29.5503 61.8261 29.5628 61.8303 29.5727 61.8396C29.5946 61.8604 29.5936 61.8796 29.5696 61.8972C29.5477 61.9138 29.5449 61.9301 29.561 61.9462C29.5813 61.9659 29.5915 61.9901 29.5915 62.0186C29.5852 63.0292 29.5847 64.0404 29.5899 65.0521C29.5904 65.1569 29.6115 65.3011 29.6532 65.4847C29.6996 65.6886 29.7074 65.8975 29.6766 66.1112C29.6731 66.1359 29.6787 66.161 29.6923 66.182C29.7891 66.332 29.8251 66.4967 29.8001 66.6762C29.7985 66.6878 29.8004 66.6997 29.8055 66.7104C29.8946 66.9065 29.8618 67.0793 29.9321 67.2521C29.9977 67.4132 30.0266 67.5672 30.0798 67.7299C30.1329 67.8933 30.1165 68.0964 30.2485 68.2661C30.2641 68.2868 30.274 68.3099 30.2782 68.3353C30.3183 68.5781 30.3568 68.7309 30.3938 68.7937C30.5204 69.0095 30.5917 69.1779 30.6079 69.2988C30.6313 69.477 30.7149 69.5501 30.7563 69.6637C30.9095 70.0847 31.1134 70.4443 31.2938 70.884C31.4173 71.1859 31.6446 71.4163 31.7805 71.7034C31.8878 71.9296 32.0058 72.1252 32.1345 72.2902C32.3345 72.5462 32.4532 72.8295 32.6704 73.0451C32.8235 73.1976 32.9071 73.3704 33.0563 73.5423C33.193 73.6995 33.2009 73.8824 33.4016 73.9875C33.4448 74.0104 33.4951 74.0159 33.5421 74.0028C33.5891 73.9898 33.6292 73.9592 33.654 73.9174C34.9915 71.67 36.497 69.5384 38.054 67.4186C39.354 65.7065 40.516 64.2508 41.5399 63.0513C43.9024 60.284 46.5704 57.8598 49.7087 55.9898C52.2561 54.478 55.0522 53.5208 58.097 53.1182C58.1032 53.1174 58.1092 53.1149 58.1142 53.1111C58.1192 53.1073 58.1232 53.1022 58.1258 53.0964C58.1284 53.0906 58.1294 53.0842 58.1289 53.0778C58.1284 53.0714 58.1262 53.0652 58.1227 53.0598C58.0259 52.9151 58.0134 52.7797 57.8751 52.6451C57.4626 52.2451 57.055 51.8396 56.6524 51.4287C56.5795 51.3545 56.4699 51.2723 56.3235 51.182C56.0954 51.0412 55.9595 50.8427 55.729 50.6964C55.5925 50.6093 55.4769 50.4972 55.3821 50.3602C55.3758 50.3513 55.3676 50.344 55.3581 50.3389C55.3486 50.3337 55.3381 50.3309 55.3274 50.3307C55.1373 50.3229 55.0253 50.2282 54.9915 50.0466C54.9868 50.0217 54.9717 50.0077 54.9462 50.0046C54.7608 49.9849 54.6136 49.9016 54.5048 49.7548C54.4915 49.737 54.4731 49.7232 54.4516 49.7151C54.3699 49.684 54.2884 49.6515 54.2071 49.6178C54.0516 49.5525 53.947 49.4132 53.7563 49.368C53.7323 49.3624 53.7102 49.3506 53.6923 49.3338C53.6662 49.3089 53.6204 49.2798 53.5548 49.2466C53.186 49.0609 52.8157 48.8785 52.4438 48.6995C52.2657 48.6139 52.086 48.4762 51.8399 48.4404C51.8128 48.4362 51.7889 48.4256 51.768 48.4085C51.6149 48.2835 51.4381 48.2165 51.2376 48.2077C51.2084 48.2061 51.1818 48.1971 51.1579 48.1805C50.8759 47.9867 50.5384 48.0497 50.3212 47.856C50.3019 47.8383 50.2792 47.8292 50.2532 47.8287C50.1105 47.8246 49.9693 47.8046 49.8298 47.7688C49.5876 47.7058 49.4813 47.5205 49.1485 47.5976C49.1222 47.6036 49.0944 47.6006 49.0696 47.589C48.9144 47.5138 48.7501 47.4892 48.5766 47.5151C48.5653 47.5166 48.5538 47.5157 48.5429 47.5125C48.532 47.5092 48.5219 47.5038 48.5134 47.4964C48.2595 47.2785 47.8563 47.3493 47.5407 47.3454C47.5178 47.3454 47.5048 47.334 47.5016 47.3112L47.4844 47.1859C50.6641 45.8764 53.9118 45.1729 57.2274 45.0754C57.4126 45.07 57.5548 45.0404 57.6899 45.0318C61.5657 44.7875 65.4821 44.7953 69.343 45.2404C69.3458 45.2408 69.3485 45.242 69.3506 45.2438C69.3528 45.2456 69.3544 45.248 69.3552 45.2507C69.356 45.2534 69.356 45.2563 69.3553 45.259C69.3545 45.2618 69.353 45.2642 69.3509 45.2661C68.5837 45.9735 67.8009 46.6637 67.0813 47.4147C64.9662 49.6217 62.8522 51.8298 60.7391 54.0388C60.7306 54.0479 60.7202 54.0551 60.7088 54.0599C60.6973 54.0647 60.6851 54.0671 60.6727 54.0668C52.5438 53.9377 46.0149 58.5244 41.0266 64.4863C38.7772 67.1748 36.6881 69.9818 34.7595 72.9073C32.8016 75.8762 30.7837 79.3532 30.2204 82.7906C30.2194 82.797 30.2169 82.8031 30.2131 82.8085C30.2094 82.8138 30.2045 82.8182 30.1987 82.8214C30.193 82.8245 30.1866 82.8264 30.1801 82.8267C30.1736 82.827 30.167 82.8258 30.161 82.8233C27.7618 81.8427 25.2704 80.4676 23.4532 78.6614C22.9443 78.1561 22.3019 77.4536 21.5259 76.554C21.5092 76.5348 21.5032 76.5128 21.5079 76.4879C21.779 74.9937 21.9985 73.8388 22.5173 72.5439C23.0376 71.2458 23.6488 70.0272 24.3509 68.8879C25.8602 66.4386 27.5884 64.085 29.5352 61.8272Z" fill="#FC3945"/>
<path fill-rule="evenodd" clip-rule="evenodd" d="M47.5016 47.3113L47.4844 47.186C43.0648 49.0561 39.0883 51.8615 35.6797 55.1907C33.6021 57.2203 31.5539 59.4325 29.5352 61.8273C29.5503 61.8262 29.5628 61.8304 29.5727 61.8397C29.5945 61.8605 29.5935 61.8797 29.5695 61.8973C29.5477 61.9139 29.5448 61.9303 29.5609 61.9463C29.5813 61.9661 29.5914 61.9902 29.5914 62.0187C29.5852 63.0294 29.5846 64.0405 29.5898 65.0522C29.5904 65.157 29.6115 65.3012 29.6531 65.4849C29.6995 65.6888 29.7073 65.8976 29.6766 66.1113C29.6731 66.136 29.6786 66.1611 29.6922 66.1821C29.7891 66.3321 29.825 66.4968 29.8 66.6763C29.7985 66.688 29.8004 66.6999 29.8055 66.7105C29.8532 66.8155 29.8659 66.9139 29.8782 67.0091C29.889 67.0917 29.8994 67.1719 29.932 67.2522C29.9723 67.3511 29.9988 67.4474 30.0255 67.5446C30.0423 67.6057 30.0592 67.6672 30.0797 67.73C30.0973 67.7841 30.1072 67.8426 30.1175 67.9027C30.1382 68.0243 30.1601 68.1527 30.2484 68.2662C30.2641 68.2869 30.274 68.31 30.2781 68.3355C30.3182 68.5783 30.3568 68.731 30.3938 68.7938C30.5203 69.0096 30.5917 69.178 30.6078 69.2989C30.623 69.4143 30.6634 69.4856 30.7012 69.5525C30.7218 69.5888 30.7417 69.6238 30.7562 69.6639C30.8429 69.9021 30.9458 70.1206 31.0515 70.3451C31.1326 70.5174 31.2154 70.6932 31.2937 70.8841C31.3604 71.0471 31.4573 71.1893 31.5538 71.3308C31.636 71.4513 31.7179 71.5714 31.7805 71.7035C31.8878 71.9297 32.0057 72.1253 32.1344 72.2903C32.2166 72.3956 32.2851 72.5055 32.3524 72.6134C32.4487 72.7679 32.5424 72.9183 32.6703 73.0452C32.7558 73.1303 32.8196 73.2218 32.8853 73.3159C32.9372 73.3904 32.9903 73.4665 33.0562 73.5425C33.108 73.6019 33.1413 73.6651 33.1735 73.7263C33.2265 73.8269 33.2768 73.9223 33.4016 73.9876C33.4447 74.0105 33.495 74.016 33.5421 74.003C33.5891 73.9899 33.6291 73.9593 33.6539 73.9176C34.9914 71.6701 36.4969 69.5386 38.0539 67.4187C39.3539 65.7067 40.5159 64.2509 41.5398 63.0514C43.9023 60.2841 46.5703 57.86 49.7086 55.9899C52.256 54.4781 55.0521 53.5209 58.0969 53.1183C58.1031 53.1175 58.1091 53.115 58.1141 53.1112C58.1192 53.1074 58.1232 53.1024 58.1257 53.0965C58.1283 53.0907 58.1294 53.0843 58.1288 53.0779C58.1283 53.0715 58.1262 53.0653 58.1227 53.06C58.085 53.0037 58.0601 52.9489 58.0356 52.895C57.9971 52.8101 57.9596 52.7275 57.875 52.6452C57.4625 52.2452 57.0549 51.8397 56.6523 51.4288C56.5794 51.3546 56.4698 51.2724 56.3234 51.1821C56.2081 51.1109 56.1163 51.025 56.0239 50.9385C55.9336 50.8539 55.8428 50.7689 55.7289 50.6965C55.5924 50.6094 55.4768 50.4973 55.382 50.3604C55.3757 50.3514 55.3675 50.3441 55.358 50.339C55.3485 50.3338 55.338 50.331 55.3273 50.3308C55.1372 50.323 55.0253 50.2283 54.9914 50.0467C54.9867 50.0218 54.9716 50.0078 54.9461 50.0047C54.7607 49.985 54.6135 49.9017 54.5047 49.7549C54.4914 49.7371 54.473 49.7234 54.4516 49.7152C54.3698 49.6841 54.2883 49.6517 54.207 49.6179C54.1426 49.5908 54.0868 49.551 54.0301 49.5105C53.95 49.4532 53.8678 49.3946 53.7563 49.3681C53.7322 49.3625 53.7101 49.3507 53.6922 49.3339C53.6661 49.309 53.6203 49.2799 53.5547 49.2467C53.1859 49.061 52.8156 48.8786 52.4438 48.6997C52.3958 48.6766 52.3476 48.6497 52.2982 48.6221C52.164 48.5472 52.0196 48.4667 51.8398 48.4405C51.8128 48.4364 51.7888 48.4257 51.768 48.4086C51.6148 48.2836 51.438 48.2166 51.2375 48.2078C51.2083 48.2063 51.1818 48.1972 51.1578 48.1806C51.0205 48.0862 50.87 48.0528 50.7266 48.0209C50.5756 47.9873 50.4325 47.9555 50.3211 47.8561C50.3018 47.8384 50.2792 47.8294 50.2531 47.8288C50.1104 47.8247 49.9693 47.8047 49.8297 47.7689C49.7481 47.7477 49.6819 47.7126 49.6173 47.6783C49.4902 47.6109 49.3691 47.5466 49.1484 47.5977C49.1221 47.6038 49.0943 47.6007 49.0695 47.5891C48.9143 47.5139 48.75 47.4893 48.5766 47.5152C48.5652 47.5167 48.5538 47.5158 48.5429 47.5126C48.532 47.5094 48.5219 47.5039 48.5133 47.4965C48.3106 47.3226 48.0129 47.3326 47.7405 47.3418C47.6716 47.3441 47.6043 47.3464 47.5406 47.3456C47.5177 47.3456 47.5047 47.3342 47.5016 47.3113ZM40.8687 56.2218C40.8687 56.2218 40.8688 56.2218 40.8687 56.2218C40.8465 56.2625 40.8197 56.297 40.7885 56.3253C40.7365 56.3725 40.6721 56.4026 40.5953 56.4156C40.5796 56.4181 40.5657 56.4236 40.5537 56.4322C40.5453 56.4382 40.5378 56.4456 40.5312 56.4545M39.932 56.9121C39.932 56.9121 39.932 56.9121 39.932 56.9121C39.9118 56.9633 39.8816 57.0057 39.8413 57.0391C39.8171 57.0591 39.7893 57.0759 39.7578 57.0895C39.7506 57.0926 39.7438 57.0961 39.7376 57.1003C39.7214 57.1109 39.7086 57.1253 39.6992 57.1432C39.6992 57.1432 39.6992 57.1432 39.6992 57.1432M37.0177 63.408C37.0081 63.4621 36.9982 63.5184 37.0055 63.5759L37.0177 63.408ZM37.1031 65.3962C37.1031 65.3962 37.1031 65.3962 37.1031 65.3962V65.3962Z" fill="url(#paint3_linear_59_748)"/>
<path d="M71.6866 58.5641C71.684 58.5314 71.6668 58.5164 71.6351 58.519C71.6179 58.52 71.6004 58.5286 71.5827 58.5446C69.6067 60.3558 67.6322 62.1688 65.6593 63.9836C65.5374 64.0964 65.3999 64.1983 65.2312 64.2411C61.9179 65.0847 58.5968 66.2614 55.7179 68.0108C53.3483 69.4505 51.4022 71.2637 50.4507 73.8746C50.2468 74.4341 50.0921 75.0404 50.0897 75.6528C50.0882 75.8248 50.0257 75.9267 49.9757 76.0995C49.8819 76.4209 49.5897 76.3836 49.3257 76.3812C49.2934 76.3807 49.2687 76.3942 49.2515 76.4217L49.1655 76.5594C49.1588 76.57 49.1496 76.5787 49.1387 76.5848C49.1278 76.5909 49.1155 76.5942 49.103 76.5945L48.4718 76.6131C48.4591 76.6136 48.4467 76.617 48.4355 76.6231C48.4243 76.6291 48.4145 76.6377 48.4069 76.6481L48.2913 76.8108C48.2772 76.83 48.2582 76.8399 48.2343 76.8404L47.3827 76.8474C47.3567 76.8474 47.3345 76.8567 47.3163 76.8754C47.1312 77.0606 46.6257 76.9906 46.3647 77.003C46.3351 77.0046 46.3119 77.0173 46.2952 77.0411L46.1819 77.1991C46.1684 77.2188 46.1496 77.2287 46.1257 77.2287L45.0976 77.2334C45.0868 77.2334 45.0762 77.2365 45.0671 77.2424C45.0579 77.2484 45.0506 77.2568 45.046 77.2668C44.9765 77.4147 44.9155 77.4676 44.7413 77.466C44.3673 77.4624 43.9944 77.465 43.6226 77.4738C43.61 77.4741 43.5976 77.4769 43.5862 77.4821C43.5748 77.4873 43.5645 77.4948 43.5562 77.5042C43.4869 77.5799 43.4035 77.6178 43.3062 77.6178C41.9551 77.6157 40.547 77.6152 39.0819 77.6162C38.995 77.6162 38.9684 77.588 39.0022 77.5314C39.0116 77.5159 38.9944 77.4834 38.9507 77.4341C41.7944 70.0022 46.6999 63.2552 54.1843 59.9851C57.7593 58.4232 61.971 57.1252 65.8452 56.74C68.0663 56.5197 70.4835 56.7524 72.5077 57.6015C72.5136 57.604 72.5189 57.6078 72.523 57.6127C72.5271 57.6176 72.53 57.6234 72.5314 57.6296C72.5328 57.6358 72.5326 57.6422 72.5309 57.6483C72.5293 57.6544 72.5261 57.6599 72.5218 57.6645L71.6866 58.5641Z" fill="url(#paint4_linear_59_748)"/>
<defs>
<linearGradient id="paint0_linear_59_748" x1="24.1124" y1="44.8783" x2="77.2937" y2="49.7591" gradientUnits="userSpaceOnUse">
<stop stop-color="#0171A1"/>
<stop offset="1" stop-color="#0171A1"/>
</linearGradient>
<linearGradient id="paint1_linear_59_748" x1="24.6093" y1="37.5486" x2="51.325" y2="40.8423" gradientUnits="userSpaceOnUse">
<stop stop-color="#0171A1"/>
<stop offset="1" stop-color="#0171A1"/>
</linearGradient>
<linearGradient id="paint2_linear_59_748" x1="15.7041" y1="44.1674" x2="53.4512" y2="48.4931" gradientUnits="userSpaceOnUse">
<stop stop-color="#0171A1"/>
<stop offset="1" stop-color="#0171A1"/>
</linearGradient>
<linearGradient id="paint3_linear_59_748" x1="61.6406" y1="47.6654" x2="30.4822" y2="71.9076" gradientUnits="userSpaceOnUse">
<stop stop-color="#FC3945"/>
<stop offset="0.492751" stop-color="#FF3C48"/>
<stop offset="1" stop-color="#FC3945"/>
</linearGradient>
<linearGradient id="paint4_linear_59_748" x1="57.6562" y1="52.8014" x2="63.6273" y2="79.2706" gradientUnits="userSpaceOnUse">
<stop offset="0.229626" stop-color="#0171A1"/>
<stop offset="0.760344" stop-color="#0171A1"/>
</linearGradient>
</defs>
</svg>
