<svg width="100" height="100" viewBox="0 0 100 100" fill="none" xmlns="http://www.w3.org/2000/svg">
<g clip-path="url(#clip0_59_749)">
<rect width="100" height="100" fill="#141115"/>
<path d="M-90.9045 -7.25645C-84.5769 -11.5533 -77.995 -15.457 -71.2202 -18.949C-68.2139 -20.5114 -65.0753 -21.9932 -61.6889 -22.3538C-53.048 -23.2547 -45.5415 -16.5883 -40.2198 -9.7665C-35.3082 -3.4516 -31.1641 3.43355 -27.8719 10.6996C-24.6034 17.9325 -22.1445 25.6411 -17.2801 31.8896C-12.4204 38.1666 -4.33198 42.7728 3.31416 40.6826C7.87061 39.4407 11.5718 36.0122 13.979 31.9564C16.3862 27.9006 17.6079 23.2651 18.5082 18.6335C19.5236 13.3213 20.2418 7.69628 23.5573 3.44411C27.015 -0.95902 33.1433 -3.04346 38.5446 -1.69216C46.2424 0.222698 50.8862 7.77577 55.6747 14.1282C61.7499 22.186 69.5719 29.4016 79.2627 32.2954C88.9252 35.1843 100.605 32.8723 106.743 24.868" stroke="#9C82E1" stroke-width="0.287614" stroke-miterlimit="10"/>
<path d="M-90.6215 -4.96267C-84.4218 -9.19362 -77.9441 -12.9983 -71.2452 -16.3864C-68.2768 -17.897 -65.1714 -19.3552 -61.8749 -19.7018C-55.2204 -20.4137 -49.2104 -16.6258 -44.3426 -11.7768C-43.0219 -10.4449 -41.7675 -9.06592 -40.6361 -7.64938C-35.7098 -1.5945 -31.5272 5.06378 -28.1967 12.103C-24.885 19.0807 -22.3642 26.5955 -17.5325 32.6927C-14.8125 36.099 -11.2025 39.0725 -7.23972 40.8222C-3.76335 42.3438 0.017927 42.9251 3.68001 41.9695C4.35188 41.7914 4.97181 41.5754 5.59655 41.3311C9.44926 39.7659 12.5777 36.6197 14.7283 33.0456C15.4215 31.8794 16.0296 30.6988 16.5858 29.4802C18.0027 26.2779 18.9567 22.8805 19.764 19.4875C21.049 14.1334 22.1643 8.57555 25.6971 4.41848C29.1967 0.284965 35.0885 -1.78114 40.3811 -0.477387C47.9184 1.35197 52.5347 8.55035 57.2909 14.5764C57.6774 15.0502 58.0357 15.5192 58.4222 15.993C64.2587 23.0478 71.5729 29.1274 80.3854 31.5225C89.7508 34.0987 100.987 31.6531 106.841 23.7758" stroke="#9C82E1" stroke-width="0.287614" stroke-miterlimit="10"/>
<path d="M-90.3386 -2.6686C-84.2383 -6.82887 -77.86 -10.5629 -71.2654 -13.8519C-68.335 -15.3106 -65.2959 -16.7217 -62.0326 -17.0447C-55.4963 -17.7475 -49.5709 -14.1489 -44.7262 -9.50802C-43.4243 -8.23764 -42.1603 -6.91535 -41.0194 -5.55552C-36.1113 0.262886 -31.8856 6.66595 -28.46 13.4879C-25.0815 20.2435 -22.494 27.5362 -17.6902 33.4537C-14.8664 36.9359 -11.1574 40.0137 -7.09556 41.8676C-3.54851 43.4887 0.3366 44.1459 4.14048 43.2143C4.81234 43.0362 5.489 42.8298 6.11374 42.5855C10.0847 41.0112 13.3173 37.7659 15.5723 34.0928C16.2986 32.903 16.9399 31.6988 17.534 30.4283C19.0504 27.1553 20.1322 23.692 21.0861 20.2947C22.6455 14.8703 24.1766 9.44114 27.9031 5.34601C31.4446 1.48212 37.1235 -0.532493 42.2839 0.690558C49.6559 2.46277 54.2446 9.30645 58.9733 14.9778C59.3363 15.4185 59.7277 15.8639 60.119 16.3093C65.9093 22.9479 73.0637 28.5921 81.6027 30.7076C90.6709 32.971 101.463 30.3919 107.033 22.6416" stroke="#9C82E1" stroke-width="0.287614" stroke-miterlimit="10"/>
<path d="M-90.056 -0.374656C-84.0836 -4.46904 -77.7813 -8.09923 -71.2909 -11.2892C-68.3984 -12.696 -65.3973 -14.0551 -62.219 -14.3925C-55.801 -15.0861 -49.9319 -11.6721 -45.1387 -7.24414C-43.8272 -6.03048 -42.582 -4.7697 -41.4598 -3.47139C-36.5369 2.08699 -32.2728 8.26319 -28.804 14.8299C-25.3588 21.3634 -22.7329 28.4293 -17.9335 34.2002C-14.9775 37.7631 -11.1978 40.9403 -7.00857 42.9034C-3.38604 44.5955 0.626472 45.3618 4.53899 44.4777C5.23921 44.3045 5.91587 44.0981 6.59733 43.8633C10.7149 42.2846 14.0234 38.9356 16.3826 35.1634C17.1421 33.95 17.8213 32.6939 18.4155 31.4234C20.0029 28.0749 21.2409 24.5506 22.3746 21.1253C24.1753 15.6542 26.1317 10.297 30.0755 6.29698C33.6353 2.66955 39.1014 0.706435 44.1531 1.88194C51.3645 3.56864 55.9257 10.0576 60.5938 15.3979C60.9616 15.8102 61.3294 16.2224 61.7256 16.6395C67.4648 22.8902 74.4926 28.0754 82.7345 29.8782C91.5104 31.8004 101.853 29.1162 107.139 21.4928" stroke="#9C82E1" stroke-width="0.287614" stroke-miterlimit="10"/>
<path d="M-89.8062 1.9427C-83.9332 -2.081 -77.7587 -5.64531 -71.349 -8.70311C-68.5229 -10.0627 -65.5597 -11.37 -62.4146 -11.6838C-56.1148 -12.3683 -50.3304 -9.14358 -45.5603 -4.9237C-44.2675 -3.77155 -43.0127 -2.56748 -41.8809 -1.32589C-36.9481 4.00083 -32.6691 9.91699 -29.1336 16.2616C-25.6452 22.54 -22.929 29.4169 -18.1575 35.008C-15.0645 38.6233 -11.219 41.9284 -6.93067 43.9957C-3.23745 45.7873 0.907262 46.6343 4.93321 45.7694C5.65699 45.6293 6.36681 45.3993 7.05306 45.1362C11.3172 43.5532 14.7017 40.1002 17.1651 36.229C17.9578 34.9921 18.6702 33.7124 19.3023 32.39C20.9892 28.9708 22.3502 25.409 23.6401 21.9226C25.7152 16.3813 28.0306 11.1431 32.1965 7.20985C35.7747 3.81889 41.0562 1.91205 45.9993 3.04001C53.0218 4.63641 57.579 10.8039 62.2196 15.7894C62.5922 16.1733 62.96 16.5856 63.3326 16.9695C69.0255 22.804 75.8937 27.5539 83.8668 29.0486C92.3456 30.658 102.249 27.812 107.275 20.3487" stroke="#9C82E1" stroke-width="0.287614" stroke-miterlimit="10"/>
<path d="M-89.5234 4.23674C-83.7498 0.283726 -77.6796 -3.18154 -71.3742 -6.1403C-68.586 -7.44799 -65.6608 -8.70332 -62.6008 -9.03157C-56.4192 -9.70683 -50.7194 -6.6715 -45.9725 -2.65973C-44.6701 -1.5643 -43.4389 -0.393387 -42.2927 0.763131C-37.3734 5.82503 -33.0561 11.5143 -29.4538 17.6369C-25.8986 23.6931 -23.1157 30.348 -18.377 35.7877C-15.1518 39.4837 -11.2307 42.8599 -6.84818 45.0598C-3.05592 46.9557 1.16427 47.8738 5.30366 47.0281C6.0558 46.8928 6.76561 46.6629 7.48023 46.4045C11.8909 44.8171 15.3513 41.2604 17.9191 37.2901C18.7449 36.0296 19.4952 34.698 20.1557 33.3804C21.9372 29.9189 23.4309 26.2628 24.8673 22.772C27.2121 17.1888 29.9198 12.0462 34.3077 8.17968C37.8994 5.05353 42.9728 3.16984 47.8073 4.25024C54.6692 5.76115 59.199 11.5739 63.8072 16.2331C64.1798 16.617 64.5289 16.9678 64.9063 17.3233C70.5529 22.7416 77.2614 27.0561 84.9609 28.2711C93.1474 29.5394 102.602 26.5883 107.348 19.2237" stroke="#9C82E1" stroke-width="0.287614" stroke-miterlimit="10"/>
<path d="M-89.2405 6.5307C-83.5948 2.64357 -77.5957 -0.746217 -71.3946 -3.60594C-68.6396 -4.89006 -65.7855 -6.06992 -62.7538 -6.40296C-56.6904 -7.06906 -51.0753 -4.22307 -46.3515 -0.419391C-45.0679 0.614524 -43.8271 1.72872 -42.6713 2.82852C-37.7419 7.65875 -33.3814 13.0928 -29.736 18.9602C-26.1141 24.7943 -23.2596 31.1988 -18.5536 36.4871C-15.1962 40.2638 -11.1762 43.7443 -6.72292 46.0436C-2.85518 48.0106 1.49241 49.0378 5.74522 48.2113C6.49737 48.076 7.26391 47.8556 8.00688 47.6021C12.5358 46.0055 16.1005 42.3497 18.7725 38.2804C19.6362 36.968 20.4149 35.6413 21.1133 34.2717C22.9944 30.7395 24.6158 27.0175 26.2321 23.4988C28.8228 17.8406 31.8896 12.8171 36.5515 9.05519C40.138 6.13235 45.0504 4.3381 49.7479 5.36616C56.4493 6.79156 60.9515 12.2496 65.5275 16.5825C65.8765 16.9333 66.2587 17.2605 66.6126 17.5828C72.2081 22.6133 78.7901 26.4688 86.1925 27.371C94.0818 28.3265 103.092 25.242 107.554 18.0043" stroke="#9C82E1" stroke-width="0.287614" stroke-miterlimit="10"/>
<path d="M-88.9577 8.82486C-83.4114 5.00841 -77.5449 1.71287 -71.4197 -1.04301C-68.7026 -2.27522 -65.9149 -3.40795 -62.9447 -3.72224C-56.9712 -4.37436 -51.4739 -1.69415 -46.7684 1.87306C-45.4752 2.85026 -44.2531 3.90293 -43.0878 4.94602C-38.1436 9.51623 -33.7731 14.7186 -30.0609 20.3639C-26.3958 25.9429 -23.451 32.1584 -18.7778 37.2953C-15.2834 41.1244 -11.1974 44.7326 -6.61679 47.1411C-2.67837 49.2076 1.80142 50.3155 6.16288 49.5365C6.94338 49.406 7.73827 49.1904 8.48124 48.9369C13.1568 47.3359 16.7925 43.6047 19.602 39.4127C20.4989 38.0768 21.2872 36.6933 22.0423 35.3334C24.0228 31.7304 25.7673 27.9709 27.5397 24.3911C30.4049 18.6626 33.8307 13.7582 38.743 10.0679C42.2912 7.37191 47.0426 5.66711 51.6411 6.5909C58.1535 7.926 62.6518 13.0625 67.2003 17.0407C67.5541 17.3631 67.9127 17.6572 68.2949 17.9843C73.8442 22.5986 80.2617 26.047 87.4001 26.6129C94.9971 27.2272 103.559 24.0376 107.737 16.9268" stroke="#9C82E1" stroke-width="0.287614" stroke-miterlimit="10"/>
<path d="M-88.7082 11.1422C-83.2614 7.39639 -77.4944 4.17153 -71.4735 1.51469C-68.7943 0.334408 -66.0445 -0.746407 -63.131 -1.07028C-57.2757 -1.71324 -51.8631 0.777627 -47.1808 4.13673C-45.9063 5.05242 -44.6747 6.04838 -43.5329 7.05831C-38.5787 11.3968 -34.165 16.344 -30.4096 21.7341C-26.6778 27.091 -23.6615 33.0561 -19.021 38.0416C-15.3944 41.9514 -11.2329 45.6307 -6.55805 48.1718C-2.5206 50.3425 2.06303 51.5264 6.53792 50.7665C7.34678 50.6409 8.14166 50.4253 8.91299 50.1766C13.7351 48.5712 17.4468 44.7361 20.3605 40.4451C21.2905 39.0856 22.112 37.6786 22.9051 36.2667C24.9567 32.5883 26.8574 28.7677 28.8047 25.1884C31.9395 19.418 35.7009 14.5995 40.8636 10.9807C44.4017 8.51639 48.997 6.87267 53.4584 7.74412C59.8103 8.99372 64.2811 13.7755 68.7641 17.451C69.1228 17.745 69.4862 18.0107 69.8448 18.3047C75.3431 22.5311 81.6056 25.5158 88.4705 25.8021C95.7704 26.1036 103.864 22.7473 107.782 15.7967" stroke="#9C82E1" stroke-width="0.287614" stroke-miterlimit="10"/>
<path d="M-88.4252 13.4362C-83.1062 9.75634 -77.4151 6.63531 -71.4984 4.07751C-68.8856 2.94435 -66.1738 1.91545 -63.317 1.58198C-57.5799 0.94819 -52.252 3.24972 -47.5928 6.40072C-46.3087 7.25969 -45.0958 8.19414 -43.9444 9.14735C-39.0038 13.2211 -34.5517 17.9414 -30.7012 23.1141C-26.9027 28.249 -23.7913 33.9968 -19.2118 38.8262C-15.4483 42.7883 -11.2209 46.5955 -6.44699 49.2408C-2.33405 51.4826 2.34862 52.7707 6.9653 52.0349C7.80251 51.914 8.62576 51.7032 9.43024 51.431C14.3706 49.8164 18.1865 45.8823 21.2045 41.4923C22.1677 40.1092 23.0271 38.6502 23.8486 37.2432C25.9996 33.4941 28.0281 29.6076 30.1269 25.9955C33.5361 20.1549 37.633 15.4223 43.0697 11.9082C46.5459 9.63763 51.0085 8.08815 55.3613 8.91205C61.5478 10.1045 65.9912 14.5316 70.4466 17.8524C70.8101 18.118 71.1451 18.3789 71.5134 18.6162C76.9653 22.4264 83.0965 24.9805 89.6643 24.954C96.6718 24.9143 104.317 21.4529 107.979 14.6341" stroke="#9C82E1" stroke-width="0.287614" stroke-miterlimit="10"/>
<path d="M-88.1423 15.73C-82.9228 12.1208 -77.3359 9.09881 -71.5235 6.64005C-68.9486 5.55881 -66.2747 4.58183 -63.4795 4.26712C-57.8607 3.6425 -52.589 5.75948 -47.9813 8.69758C-46.716 9.49504 -45.4935 10.3728 -44.3325 11.2693C-39.3818 15.1113 -34.9149 19.5716 -30.9978 24.5223C-27.156 29.4019 -23.9495 34.9324 -19.4028 39.6104C-15.5022 43.6249 -11.209 47.5599 -6.30767 50.3143C-2.12405 52.6556 2.69081 54.0244 7.39257 53.303C8.22978 53.1821 9.0814 52.9761 9.91424 52.7086C15.0012 51.0897 18.893 47.0517 22.0152 42.5627C22.9833 41.1513 23.9042 39.6735 24.7636 38.2146C27.0141 34.3948 29.1657 30.4708 31.449 26.8024C35.1278 20.9198 39.5601 16.2732 45.2757 12.8355C48.7182 10.7634 53.0483 9.30814 57.2641 10.0797C63.29 11.1867 67.7059 15.2591 72.129 18.2535C72.4689 18.486 72.8372 18.7233 73.177 18.9558C78.5827 22.3498 84.5542 24.4685 90.8532 24.134C97.592 23.7863 104.764 20.1866 108.142 13.4948" stroke="#9C82E1" stroke-width="0.287614" stroke-miterlimit="10"/>
<path d="M-87.8879 18.0191C-82.7963 14.4758 -77.3089 11.5245 -71.5772 9.19795C-69.0402 8.16863 -66.4326 7.23877 -63.6941 6.91447C-58.1935 6.29902 -53.0065 8.22666 -48.4219 10.9567C-47.1471 11.6974 -45.9433 12.5136 -44.7727 13.3534C-39.8072 16.9354 -35.302 21.1688 -31.3416 25.8643C-27.4331 30.5218 -24.1551 35.802 -19.6459 40.3569C-15.6131 44.4521 -11.2208 48.4913 -6.24883 51.3452C-1.99453 53.786 2.95253 55.2355 7.76293 54.5616C8.6285 54.4455 9.50847 54.2443 10.3413 53.9768C15.5748 52.3536 19.5426 48.2118 22.7691 43.6237C23.7751 42.1603 24.7243 40.6874 25.6169 39.2049C27.9669 35.3144 30.2463 31.3245 32.6809 27.6234C36.6058 21.6658 41.3785 17.0767 47.3916 13.7768C50.8006 11.9032 54.9648 10.5658 59.0768 11.2615C64.9138 12.2781 69.3257 16.029 73.7214 18.6687C74.066 18.8729 74.4107 19.077 74.7838 19.286C80.11 22.2873 85.955 23.9471 91.9852 23.3045C98.4268 22.6441 105.155 18.9109 108.249 12.346" stroke="#9C82E1" stroke-width="0.287614" stroke-miterlimit="10"/>
<path d="M-87.6098 20.3416C-82.6176 16.869 -77.2345 14.0167 -71.607 11.7892C-69.1081 10.8118 -66.5384 9.93388 -63.8614 9.62834C-58.4791 9.02206 -53.3815 10.7887 -48.8152 13.2823C-47.5639 13.9898 -46.3458 14.721 -45.1656 15.504C-40.2137 18.8212 -35.67 22.8278 -31.6429 27.3012C-27.6677 31.7367 -24.2898 36.7711 -19.8748 41.1935C-15.705 45.341 -11.2421 49.4797 -6.17584 52.4662C-1.8177 54.9829 3.22841 56.5367 8.15224 55.882C9.04617 55.7707 9.92613 55.5695 10.8157 55.3116C16.1958 53.684 20.2395 49.4383 23.5702 44.7512C24.6094 43.2643 25.5966 41.7394 26.5223 40.2333C28.9434 36.2674 31.3742 32.2448 33.9886 28.5157C38.2115 22.521 43.2677 17.9799 49.5548 14.7847C52.9018 13.1048 56.9618 11.8665 60.9368 12.5098C66.6133 13.4409 70.9693 16.8323 75.361 19.1505C75.7105 19.3263 76.06 19.5021 76.4094 19.6779C81.6894 22.263 87.3982 23.5205 93.1597 22.57C99.309 21.5684 105.593 17.7017 108.398 11.2922" stroke="#9C82E1" stroke-width="0.287614" stroke-miterlimit="10"/>
<path d="M-87.327 22.6356C-82.4627 19.2288 -77.1507 16.452 -71.6275 14.3236C-69.19 13.3649 -66.6583 12.5389 -64.0428 12.2521C-58.7787 11.655 -53.7658 13.2323 -49.2274 15.5461C-47.9666 16.197 -46.7672 16.8666 -45.6058 17.5881C-40.6438 20.6737 -36.057 24.425 -31.9867 28.6432C-27.9399 32.8282 -24.4952 37.6406 -20.113 41.9116C-15.8063 46.1114 -11.2774 50.378 -6.11214 53.4688C-1.68331 56.0849 3.46663 57.7146 8.53225 57.0839C9.45454 56.9774 10.3629 56.781 11.2524 56.5231C16.7556 54.858 20.8987 50.5416 24.3337 45.7554C25.406 44.245 26.4264 42.6966 27.39 41.1385C29.9059 37.1303 32.4692 33.0134 35.235 29.2517C39.7323 23.1867 45.1005 18.6984 51.6851 15.641C54.975 14.1265 58.9259 13.0155 62.7639 13.6065C68.2799 14.4521 72.6084 17.4888 76.9394 19.4758C77.2937 19.6233 77.6148 19.7943 77.9739 19.9134C83.2028 22.1106 88.7567 22.9044 94.2494 21.6458C100.102 20.3314 105.941 16.3313 108.468 10.0204" stroke="#9C82E1" stroke-width="0.287614" stroke-miterlimit="10"/>
<path d="M-87.0443 24.9296C-82.2794 21.5935 -77.1001 18.911 -71.6528 16.8864C-69.2533 15.9796 -66.7596 15.2055 -64.2008 14.9092C-59.0549 14.3212 -54.1266 15.7092 -49.6398 17.8101C-48.3976 18.3994 -47.1887 19.0123 -46.0177 19.6772C-41.0409 22.5027 -36.444 26.0223 -32.307 30.0184C-28.2219 33.9766 -24.6489 38.5482 -20.3326 42.6913C-15.8605 46.9483 -11.2941 51.3379 -5.99663 54.5094C-1.49713 57.225 3.78501 58.9354 8.95927 58.3522C9.90992 58.2505 10.8182 58.0541 11.741 57.7727C17.3907 56.1032 21.6097 51.683 25.149 46.7977C26.2545 45.2637 27.3128 43.6634 28.3048 42.1102C30.9201 38.0312 33.6113 33.8485 36.5568 30.0588C41.2954 23.9471 46.9851 19.4548 53.8908 16.5685C57.1236 15.2193 60.9371 14.2309 64.6948 14.7791C70.0218 15.5345 74.3464 18.2497 78.6499 19.882C78.9806 19.9963 79.3349 20.1437 79.6656 20.258C84.8483 22.0391 90.2425 22.3974 95.4664 20.8309C101.026 19.1753 106.417 15.0701 108.688 8.8909" stroke="#9C82E1" stroke-width="0.287614" stroke-miterlimit="10"/>
<path d="M-86.7896 27.2186C-82.1478 23.9201 -77.0443 21.3414 -71.7345 19.4394C-69.3729 18.5846 -66.9455 17.8576 -64.4482 17.58C-59.4206 17.0012 -54.5486 18.2046 -50.1132 20.0926C-48.8899 20.6205 -47.6713 21.1767 -46.4907 21.7848C-41.5039 24.3786 -36.8639 27.6431 -32.6885 31.4123C-28.5366 35.1484 -24.8638 39.4743 -20.6085 43.4613C-15.9994 47.7706 -11.3672 52.288 -5.97063 55.5638C-1.39565 58.3505 4.0139 60.1699 9.27323 59.6012C10.2239 59.4995 11.1889 59.3127 12.14 59.036C17.9363 57.3621 22.2313 52.8381 25.8748 47.8538C27.0134 46.2963 28.0765 44.6676 29.1349 43.0672C31.8496 38.9176 34.6922 34.7021 37.7608 30.8749C42.7738 24.693 48.7519 20.2203 55.9739 17.5333C59.1495 16.3495 62.8539 15.4885 66.4746 15.9844C71.6411 16.6542 75.9382 19.0147 80.2094 20.3207C80.5401 20.435 80.8756 20.5209 81.2111 20.6069C86.3476 21.9717 91.582 21.8946 96.5324 20.0485C101.795 18.0801 106.742 13.8414 108.728 7.78919" stroke="#9C82E1" stroke-width="0.287614" stroke-miterlimit="10"/>
<path d="M-86.5117 29.5408C-81.9693 26.313 -76.9701 23.8333 -71.7597 22.0019C-69.4361 21.1991 -67.0466 20.524 -64.6061 20.2368C-59.6967 19.6672 -54.9093 20.6813 -50.4971 22.3612C-49.2641 22.8323 -48.0643 23.327 -46.8741 23.8783C-41.9009 26.2074 -37.2225 29.245 -32.9472 32.7686C-28.7238 36.2542 -24.9842 40.3581 -20.7664 44.222C-15.992 48.5885 -11.2891 53.2054 -5.82667 56.609C-1.15264 59.4999 4.35594 61.4236 9.73351 60.8457C10.7125 60.7488 11.6776 60.562 12.657 60.2902C18.5999 58.6119 22.9991 53.9888 26.7186 48.9007C27.8951 47.2912 28.9914 45.639 30.0781 44.0434C32.8923 39.8231 35.8627 35.5418 39.1111 31.6866C44.3984 25.4344 50.6414 20.9482 58.1797 18.4606C61.2982 17.4422 64.8604 16.7321 68.3773 17.1521C73.3784 17.7648 77.648 19.7706 81.8917 20.7219C82.2272 20.8078 82.5675 20.8654 82.9078 20.9229C87.9932 21.8999 93.1011 21.3639 97.7544 19.2049C102.725 16.8954 107.227 12.5232 108.925 6.62636" stroke="#9C82E1" stroke-width="0.287614" stroke-miterlimit="10"/>
<path d="M-86.2288 31.8348C-81.7859 28.6776 -76.9145 26.2639 -71.7849 24.5647C-69.4992 23.8137 -67.1761 23.1858 -64.797 22.9174C-60.0058 22.3569 -55.3031 23.1817 -50.9141 24.6534C-49.6999 25.063 -48.4953 25.5294 -47.2955 26.024C-42.3122 28.1214 -37.6189 30.8989 -33.2769 34.2005C-29.0151 37.4593 -25.1425 41.294 -20.9907 45.03C-16.0792 49.4489 -11.3104 54.1936 -5.72058 57.7062C-0.975869 60.6967 4.63655 62.6963 10.1559 62.1423C11.1633 62.0502 12.1567 61.8682 13.1361 61.5964C19.1973 59.909 23.7007 55.1869 27.5245 49.9997C28.7342 48.3667 29.8636 46.6908 30.9883 45.0434C33.8736 40.7476 37.0002 36.4051 40.3999 32.5172C45.9569 26.2232 52.5026 21.6715 60.3525 19.4116C63.4186 18.5302 66.8669 17.9759 70.2468 18.3435C75.0874 18.8707 79.3294 20.5218 83.5125 21.142C83.8528 21.1995 84.1696 21.2239 84.5099 21.2815C89.5489 21.8423 94.4972 20.8709 98.8817 18.4039C103.555 15.7816 107.613 11.2759 109.027 5.50602" stroke="#9C82E1" stroke-width="0.287614" stroke-miterlimit="10"/>
<path d="M-85.9744 34.1238C-81.6593 31.0326 -76.8638 28.7226 -71.8384 27.1225C-69.6191 26.4187 -67.3339 25.8427 -64.9832 25.5694C-60.3103 25.0181 -55.6922 25.6536 -51.3263 26.9172C-50.1025 27.2701 -48.9166 27.6749 -47.7356 28.1081C-42.7375 29.9454 -38.0059 32.4961 -33.6207 35.5424C-29.2638 38.5839 -25.2913 42.173 -21.2053 45.7812C-16.1237 50.2288 -11.3222 55.125 -5.63332 58.7418C-0.817928 61.8318 4.92669 63.9121 10.5547 63.4057C11.5904 63.3184 12.5838 63.1364 13.5916 62.8693C19.7994 61.1775 24.3787 56.3516 28.3067 51.0654C29.5496 49.4088 30.7122 47.7094 31.87 46.0384C34.8548 41.6719 38.1044 37.2919 41.6839 33.3761C47.5153 27.0118 54.3354 22.3899 62.5203 20.3908C65.5341 19.6464 68.8402 19.2431 72.1115 19.5631C76.7631 20 81.006 21.3012 85.1568 21.5951C85.4736 21.6195 85.8187 21.6487 86.1402 21.6447C91.1282 21.8177 95.9167 20.4108 100.032 17.6359C104.409 14.7008 108.023 10.0616 109.153 4.41871" stroke="#9C82E1" stroke-width="0.287614" stroke-miterlimit="10"/>
<path d="M-85.6915 36.4179C-81.4759 33.3973 -76.7799 31.1581 -71.8636 29.6854C-69.6822 29.0335 -67.4349 28.5094 -65.1694 28.2217C-60.6146 27.6796 -56.0812 28.1257 -51.7384 29.1813C-50.5334 29.4726 -49.338 29.8207 -48.1473 30.1972C-43.1675 31.798 -38.3928 34.0935 -33.9408 36.9177C-29.5408 39.704 -25.5015 43.071 -21.4483 46.5279C-16.2297 51.0278 -11.3574 56.0234 -5.57434 59.7729C-0.68346 62.934 5.18856 65.1233 10.93 64.6361C11.9657 64.5488 13.0158 64.3764 14.0568 64.0858C20.4111 62.3896 25.0664 57.4599 29.0986 52.0746C30.3747 50.3944 31.5752 48.6432 32.7378 46.9438C35.8221 42.5066 39.1995 38.0608 42.9304 34.1122C49.0031 27.7012 56.1639 22.9619 64.6508 21.2473C67.6122 20.6398 70.8045 20.3923 73.9387 20.66C78.4298 21.0114 82.6404 21.9863 86.7589 21.9538C87.0804 21.9498 87.402 21.9459 87.7283 21.9136C92.67 21.6703 97.3272 19.8329 101.146 16.7451C105.23 13.4688 108.395 8.72455 109.241 3.20861" stroke="#9C82E1" stroke-width="0.287614" stroke-miterlimit="10"/>
<path d="M-35.7447 60.9026C-30.7371 55.7997 -25.4323 51.0358 -19.8394 46.574C-17.3654 44.5873 -14.7627 42.6477 -11.725 41.6986C-3.98993 39.3016 4.13166 44.0102 10.2698 49.3351C15.9272 54.2087 21.0073 59.7697 25.3544 65.8598C29.6468 71.8849 33.3579 78.5004 38.9325 83.3549C44.53 88.2235 52.7965 90.9409 59.4363 87.6543C63.3814 85.6838 66.1558 81.8639 67.6324 77.6923C69.095 73.5438 69.3796 69.0538 69.3315 64.6442C69.2883 59.6074 68.906 54.3005 71.1831 49.7986C73.5583 45.1361 78.7895 42.092 83.9946 42.3407C91.4129 42.6807 97.0514 48.7719 102.607 53.7093C109.641 59.9913 118.17 65.169 127.544 66.0734C136.932 66.9548 147.213 62.71 151.385 54.229" stroke="#B6D33E" stroke-width="0.268923" stroke-miterlimit="10"/>
<path d="M-35.0739 62.9509C-30.1733 57.9717 -24.9846 53.2946 -19.5127 48.9794C-17.0808 47.0615 -14.529 45.1539 -11.5793 44.2456C-4.01506 41.8702 3.91017 46.3329 9.95389 51.348C11.3972 52.5447 12.7896 53.7733 14.1539 55.0478C18.0773 58.7363 21.6706 62.7588 24.865 67.0734C29.1547 72.8448 32.8403 79.1926 38.3332 83.8713C43.8262 88.5499 51.7905 90.9882 58.3526 88.1898C60.8332 87.121 62.9707 85.6851 64.6926 83.7431C65.8562 82.4056 66.8642 80.91 67.6288 79.2972C67.9945 78.5437 68.3003 77.7852 68.5742 76.9756C69.6647 73.7972 70.0617 70.2583 70.2369 66.7729C70.2534 66.4363 70.2839 66.0768 70.2774 65.7262C70.5045 60.3503 70.6588 54.8354 73.2686 50.2532C75.7892 45.8685 80.7527 42.85 85.852 43.0656C93.1045 43.3674 98.6627 49.1258 104.11 53.7764C104.55 54.1397 104.989 54.5029 105.406 54.8521C112.07 60.2457 119.881 64.4814 128.377 65.0698C137.435 65.718 147.297 61.4376 151.214 53.116" stroke="#B6D33E" stroke-width="0.268923" stroke-miterlimit="10"/>
<path d="M-34.3798 65.0135C-29.6092 60.144 -24.5046 55.6045 -19.1627 51.399C-16.7818 49.5131 -14.2861 47.6972 -11.3963 46.7838C-4.01691 44.4531 3.70302 48.6328 9.66126 53.3751C11.0867 54.4979 12.4472 55.6755 13.7937 56.8761C17.6495 60.3657 21.2211 64.2174 24.4218 68.3153C28.6859 73.819 32.383 79.8901 37.7942 84.3929C43.2055 88.8956 50.8536 91.0777 57.3661 88.7217C59.9933 87.774 62.3311 86.6809 64.2634 84.9621C65.5825 83.7826 66.7742 82.3991 67.7503 80.8526C68.1849 80.1411 68.5876 79.3787 68.9584 78.5653C70.3766 75.3665 70.9277 71.5751 71.266 67.8742C71.2965 67.5147 71.3271 67.1552 71.3716 66.7727C71.8548 61.0806 72.5598 55.3348 75.5112 50.7092C78.1683 46.5654 82.873 43.6094 87.8525 43.8148C94.9393 44.0785 100.403 49.5271 105.756 53.868C106.173 54.2172 106.604 54.5434 107.034 54.8697C113.572 59.9025 121.174 63.7584 129.362 64.1276C138.104 64.5197 147.51 60.2126 151.218 52.0784" stroke="#B6D33E" stroke-width="0.268923" stroke-miterlimit="10"/>
<path d="M-33.7088 67.0619C-29.0453 62.3161 -24.0707 57.8863 -18.8219 53.7815C-16.483 51.9644 -14.0383 50.1804 -11.2224 49.2849C-4.02786 46.9988 3.52372 50.8866 9.39649 55.3561C10.7901 56.428 12.1467 57.5087 13.4843 58.6723C17.2954 61.9771 20.8134 65.607 23.9924 69.534C28.231 74.77 31.9394 80.5645 37.2551 84.9143C42.5847 89.2411 49.9396 91.1811 56.3426 89.2624C59.1304 88.4128 61.6404 87.7085 63.82 86.2038C65.2947 85.1823 66.6559 83.934 67.8348 82.4167C68.3522 81.7243 68.8378 80.981 69.2914 80.1867C71.0372 76.9674 71.7426 72.9236 72.267 69.0212C72.3115 68.6388 72.356 68.2563 72.4146 67.8509C73.1909 61.8336 74.3586 55.8978 77.6938 51.1599C80.4134 47.2749 84.9562 44.3776 89.8069 44.5359C96.705 44.7473 102.111 49.8772 107.356 53.9313C107.764 54.2435 108.194 54.5698 108.617 54.859C115.027 59.5311 122.421 63.0072 130.302 63.1572C138.713 63.316 147.69 58.9363 151.152 50.9986" stroke="#B6D33E" stroke-width="0.268923" stroke-miterlimit="10"/>
<path d="M-33.0521 69.1333C-28.5186 64.4971 -23.637 60.168 -18.5092 56.2099C-16.2353 54.4476 -13.8327 52.7325 -11.0908 51.8548C-4.06702 49.5905 3.26522 53.2183 9.05252 57.415C10.4283 58.4128 11.776 59.4566 13.0727 60.5323C16.8392 63.6522 20.3265 67.0743 23.4978 70.8076C27.7109 75.7759 31.4167 81.3167 36.6647 85.4676C41.8988 89.6415 49.0203 91.3444 55.2818 89.812C58.2392 89.0974 60.9124 88.745 63.3254 87.4773C64.9557 86.6139 66.5235 85.4917 67.8541 84.0356C68.4773 83.3764 69.0457 82.6522 69.5504 81.826C71.6238 78.5862 72.4833 74.2899 73.1708 70.1721C73.2294 69.7667 73.288 69.3613 73.3835 68.947C74.416 62.6135 76.0834 56.4787 79.7882 51.6514C82.5844 48.0023 86.9283 45.1725 91.6732 45.2977C98.4055 45.4709 103.717 50.2911 108.881 54.0125C109.303 54.3017 109.688 54.6 110.11 54.8893C116.395 59.2006 123.579 62.2968 131.13 62.2136C139.211 62.1392 147.769 57.7239 150.976 49.9456" stroke="#B6D33E" stroke-width="0.268923" stroke-miterlimit="10"/>
<path d="M-32.3808 71.1818C-27.9403 66.6463 -23.2027 62.4499 -18.1821 58.6154C-15.9502 56.922 -13.5986 55.2387 -10.9306 54.3789C-4.09168 52.1592 3.07223 55.4951 8.75111 59.405C10.109 60.329 11.4248 61.3218 12.7037 62.3235C16.4255 65.2586 19.8682 68.4959 23.0229 71.9984C27.2104 76.699 30.9276 81.9632 36.08 85.9611C41.2094 89.9451 48.1244 91.5218 54.2356 90.3387C57.3766 89.7363 60.2131 89.7357 62.8364 88.6911C64.6223 87.9857 66.3736 86.9757 67.8929 85.5718C68.599 84.9317 69.2643 84.2036 69.8518 83.3965C72.2529 80.1363 73.2896 75.6016 74.1033 71.2772C74.1758 70.8488 74.2714 70.4345 74.3439 70.0062C75.6466 63.3335 77.7997 57.0227 81.9111 52.0972C84.7609 48.6699 88.9519 45.9358 93.568 46.0138C100.135 46.1488 105.352 50.6592 110.444 54.0848C110.844 54.3601 111.257 54.6124 111.656 54.8877C117.814 58.8382 124.789 61.5546 132.047 61.2293C139.788 60.8847 147.913 56.4567 150.925 48.8429" stroke="#B6D33E" stroke-width="0.268923" stroke-miterlimit="10"/>
<path d="M-31.71 73.2304C-27.3996 68.8046 -22.7691 64.7318 -17.8555 61.021C-15.6746 59.3595 -13.379 57.768 -10.7709 56.9031C-4.11687 54.7281 2.84173 57.781 8.45808 61.4322C9.78408 62.3051 11.0961 63.201 12.366 64.1658C16.0342 66.8791 19.4552 69.9455 22.5882 73.2772C26.7731 77.7241 30.4788 82.6977 35.5266 86.5057C40.5744 90.3138 47.2828 91.7643 53.2118 90.8796C56.5364 90.3893 59.545 90.7775 62.3788 89.9559C64.3202 89.4086 66.2552 88.5107 67.972 87.196C68.761 86.575 69.5092 85.866 70.1936 85.0551C72.8993 81.7604 74.1132 76.9872 75.1129 72.4614C75.1995 72.0101 75.309 71.5728 75.3956 71.1215C76.9774 64.1466 79.5703 57.6318 84.0884 52.608C86.9688 49.3885 91.0068 46.75 95.5171 46.7949C101.918 46.8917 107.055 51.0694 112.039 54.2082C112.429 54.4465 112.842 54.6988 113.232 54.9372C119.278 58.504 126.03 60.8635 132.98 60.319C140.392 59.7411 148.074 55.2636 150.855 47.8232" stroke="#B6D33E" stroke-width="0.268923" stroke-miterlimit="10"/>
<path d="M-31.0299 75.3159C-26.8495 70.9997 -22.2891 67.0417 -17.5055 63.4406C-15.3667 61.8479 -13.1361 60.3113 -10.6019 59.4642C-4.14163 57.2969 2.65756 60.0949 8.16549 63.4592C9.47363 64.2583 10.7537 65.1032 12.0198 65.9711C15.6434 68.4995 19.0337 71.3582 22.136 74.4821C26.2954 78.6613 30.0125 83.3582 34.9647 87.0133C39.9169 90.6684 46.6229 92.9998 52.1884 91.4204C55.7375 91.6975 58.8545 91.8052 61.9126 91.1837C64.0096 90.7944 66.1142 90.0316 68.0338 88.7462C68.9056 88.1443 69.7366 87.4544 70.495 86.6256C73.5283 83.3105 74.8964 78.2849 76.0592 73.5436C76.1828 73.0833 76.2834 72.6091 76.407 72.1488C78.2589 64.8348 81.3145 58.1299 86.2622 53.0219C89.1592 50.0331 93.0723 47.4444 97.4488 47.5021C103.661 47.5466 108.727 51.4286 113.616 54.2576C114.006 54.4959 114.388 54.6973 114.792 54.9126C120.734 58.1328 127.254 60.0984 133.897 59.3346C140.978 58.5236 148.241 54.0104 150.766 46.7294" stroke="#B6D33E" stroke-width="0.268923" stroke-miterlimit="10"/>
<path d="M-30.359 77.3643C-26.2856 73.1719 -21.8552 69.3235 -17.1786 65.8461C-15.1048 64.3082 -12.9023 62.8174 -10.4421 61.9883C-4.16663 59.8656 2.45022 62.3947 7.84973 65.4722C9.14 66.1973 10.4022 66.9683 11.6364 67.7852C15.2153 70.1288 18.561 72.8026 21.6557 75.7327C25.7895 79.6442 29.504 84.0874 34.3885 87.5437C39.2591 91.0229 45.7395 93.311 51.1418 91.9471C54.8555 92.4192 58.1548 92.7958 61.4322 92.4344C63.6759 92.1662 65.9959 91.5665 68.0672 90.3422C69.0308 89.7964 69.9358 89.0887 70.791 88.256C74.152 84.9204 75.6883 79.6194 77.0002 74.6856C77.1378 74.2024 77.2524 73.7052 77.39 73.222C79.4982 65.5918 82.9705 58.6688 88.3708 53.4906C91.2755 50.6955 95.0816 48.2305 99.3293 48.241C105.39 48.2244 110.361 51.7966 115.142 54.3389C115.523 54.5402 115.905 54.7415 116.3 54.9199C122.116 57.7794 128.413 59.3881 134.762 58.3821C141.528 57.3149 148.334 52.7751 150.65 45.6815" stroke="#B6D33E" stroke-width="0.268923" stroke-miterlimit="10"/>
<path d="M-29.6881 79.4128C-25.7447 75.33 -21.4213 71.6053 -16.8518 68.2516C-14.8061 66.7596 -12.6826 65.3466 -10.2823 64.5124C-4.19166 62.4344 2.2339 64.6575 7.55687 67.4992C8.81526 68.1733 10.0596 68.8704 11.2989 69.6273C14.8102 71.7721 18.1482 74.2522 21.2122 76.9745C25.3204 80.6183 29.0464 84.7849 33.8353 88.0881C38.6013 91.3774 44.856 93.6223 50.1271 92.5248C53.9912 93.2149 57.4729 93.8605 60.9977 93.7131C63.3969 93.6029 65.9005 93.1154 68.1835 91.9574C69.23 91.4307 70.2408 90.7561 71.1699 89.9056C74.8585 86.5494 76.549 80.996 78.047 75.8607C78.1986 75.3546 78.3502 74.8484 78.5018 74.3423C80.8802 66.3729 84.7783 59.2688 90.6221 53.9834C93.5116 51.3681 97.2106 49.0268 101.352 49.0042C107.247 48.9494 112.124 52.2118 116.825 54.4214C117.197 54.5857 117.555 54.773 117.928 54.9374C123.618 57.4361 129.705 58.665 135.725 57.4258C142.16 56.1254 148.524 51.5359 150.608 44.6158" stroke="#B6D33E" stroke-width="0.268923" stroke-miterlimit="10"/>
<path d="M-29.031 81.4841C-25.1806 77.5021 -20.9873 73.887 -16.5249 70.657C-14.5441 69.2198 -12.4486 67.8528 -10.1363 67.0593C-4.21648 65.003 2.01269 66.9802 7.24126 69.5121C8.48178 70.1123 9.69428 70.7584 10.9157 71.4414C14.3823 73.4013 17.6668 75.6596 20.746 78.2021C24.8287 81.5782 28.566 85.4682 33.2733 88.5955C37.9577 91.7089 43.9867 93.9105 49.0947 93.0285C53.1463 93.9276 56.7733 94.851 60.5226 94.9038C63.0773 94.9517 65.7645 94.5763 68.2222 93.4934C69.3515 92.9858 70.4452 92.3303 71.4712 91.476C75.4874 88.0994 77.3321 82.2935 78.9933 76.9427C79.1589 76.4136 79.3245 75.8845 79.4901 75.3555C82.1616 67.0609 86.4306 59.7107 92.7589 54.4061C95.6191 51.9935 99.2251 49.7529 103.261 49.6972C108.99 49.6041 113.787 52.5339 118.379 54.4566C118.728 54.607 119.115 54.7484 119.464 54.8987C125.028 57.0367 130.906 57.8857 136.632 56.4044C142.751 54.8478 148.682 50.2457 150.548 43.476" stroke="#B6D33E" stroke-width="0.268923" stroke-miterlimit="10"/>
<path d="M-28.3371 83.5467C-24.6168 79.6743 -20.5305 76.183 -16.1521 73.0906C-14.2134 71.7223 -12.2059 70.3961 -9.93052 69.6115C-4.19557 67.5999 1.84233 69.2712 6.97141 71.5532C8.19407 72.0795 9.41164 72.6656 10.5782 73.2837C14.0002 75.0587 17.24 77.1321 20.2886 79.4669C24.3687 82.5894 28.1174 86.2026 32.7061 89.163C37.2948 92.1234 43.1263 94.2358 48.0431 93.6152C52.2591 94.7093 56.0685 95.9017 60.0371 96.2145C62.7474 96.4204 65.6042 96.1801 68.2645 95.1265C69.4768 94.638 70.6533 94.0016 71.7533 93.1294C76.0971 89.7324 78.1189 83.688 79.9203 78.1078C80.0999 77.5557 80.2795 77.0037 80.4592 76.4517C83.3868 67.8409 88.0637 60.2356 94.8535 54.8978C97.6984 52.665 101.22 50.562 105.128 50.4592C110.668 50.314 115.393 52.948 119.914 54.5749C120.277 54.7023 120.64 54.8297 120.981 54.9431C126.418 56.7203 132.088 57.1895 137.506 55.489C143.272 53.6851 148.783 49.0474 150.417 42.4512" stroke="#B6D33E" stroke-width="0.268923" stroke-miterlimit="10"/>
<path d="M-27.6661 85.5951C-24.0528 81.8464 -20.0965 78.4647 -15.8253 75.496C-13.9376 74.1596 -11.9721 72.9022 -9.77063 72.1356C-4.22051 70.1686 1.63502 71.5709 6.69264 73.5572C7.88342 74.0325 9.08312 74.5447 10.2319 75.0888C13.5862 76.665 16.8183 78.5447 19.8592 80.6857C23.9137 83.5404 27.6599 86.9 32.181 89.6615C36.688 92.446 42.2709 94.5011 47.0705 94.124C51.474 95.4272 55.4517 96.9115 59.6447 97.4243C62.5106 97.7883 65.5739 97.6741 68.4229 96.6728C69.741 96.2174 70.9774 95.5861 72.1603 94.733C76.8088 91.3014 79.0077 85.0187 80.9812 79.2599C81.1748 78.6849 81.3685 78.1099 81.5851 77.549C84.7829 68.5991 89.8078 60.7337 97.119 55.3676C99.9397 53.2776 103.363 51.3353 107.142 51.1853C112.517 51.0019 117.147 53.3261 121.574 54.6433C121.914 54.7567 122.268 54.8472 122.623 54.9376C127.934 56.354 133.394 56.4433 138.506 54.5236C143.941 52.4866 149.01 47.7993 150.412 41.3764" stroke="#B6D33E" stroke-width="0.268923" stroke-miterlimit="10"/>
<path d="M-26.9951 87.6437C-23.5118 84.0046 -19.6256 80.7377 -15.4984 77.9016C-13.6527 76.634 -11.7522 75.4315 -9.64768 74.6687C-4.26838 72.7234 1.40479 73.8568 6.33997 75.5793C7.51289 75.9806 8.68072 76.4418 9.83454 76.926C13.1443 78.3174 16.3457 79.9892 19.3559 81.9224C23.3849 84.5094 27.1425 87.5924 31.5679 90.201C35.9704 92.7956 41.3938 94.0284 45.973 94.6827C50.718 95.3751 54.6871 97.957 59.0905 98.6929C62.1119 99.2149 65.3589 99.213 68.3825 98.2868C69.7834 97.8505 71.1027 97.2383 72.3825 96.3813C77.3586 92.9293 79.7118 86.3941 81.8483 80.4199C82.056 79.8219 82.2866 79.238 82.4943 78.6401C85.9483 69.374 91.3352 61.2255 99.1767 55.8683C101.982 53.958 105.336 52.1304 108.957 51.9792C114.166 51.7576 118.717 53.7491 123.035 54.7795C123.366 54.8559 123.72 54.9463 124.066 54.9998C129.265 56.0325 134.502 55.765 139.283 53.6121C144.402 51.3188 149.038 46.6188 150.208 40.3694" stroke="#B6D33E" stroke-width="0.268923" stroke-miterlimit="10"/>
<path d="M-26.3382 89.7151C-22.948 86.1768 -19.2058 83.0424 -15.1716 80.3071C-13.391 79.0944 -11.5185 77.9377 -9.48789 77.1928C-4.29344 75.2922 1.17443 76.1425 6.03816 77.5693C7.19321 77.8967 8.34319 78.284 9.47914 78.6942C12.7442 79.9007 15.901 81.3878 18.9035 83.1272C22.907 85.4465 26.6759 88.2528 31.0197 90.6855C35.3266 93.1271 40.5562 94.3677 44.9634 95.2004C49.9048 96.1389 54.0243 98.9388 58.661 99.9117C61.838 100.592 65.2686 100.702 68.4809 99.828C69.9507 99.4338 71.4038 98.8088 72.7205 97.9429C78.0243 94.4704 80.5316 87.6828 82.8313 81.493C83.053 80.8722 83.2976 80.2653 83.5423 79.6584C87.2894 70.0672 93.0064 61.5846 101.364 56.2591C104.131 54.5146 107.401 52.8248 110.917 52.6404C115.937 52.3665 120.416 54.0623 124.653 54.76C124.999 54.8135 125.321 54.8529 125.667 54.9064C130.763 55.5924 135.767 54.931 140.241 52.5588C145.03 50.0324 149.223 45.2828 150.162 39.2068" stroke="#B6D33E" stroke-width="0.268923" stroke-miterlimit="10"/>
<path d="M-25.6672 91.7635C-22.4069 88.3348 -18.7718 85.3242 -14.8447 82.7125C-13.1061 81.5686 -11.2986 80.4668 -9.32793 79.7167C-4.31831 77.8608 0.967194 78.4422 5.74545 79.5962C6.86862 79.8726 8.00074 80.1859 9.11882 80.5222C12.3392 81.5439 15.4654 82.8232 18.4373 84.3549C22.4151 86.4064 26.1955 88.9361 30.4207 91.2018C34.646 93.4675 39.6678 94.7387 43.894 95.713C49.0317 96.8975 53.2877 99.9383 58.1578 101.148C61.4674 101.972 65.1045 102.209 68.4915 101.41C70.0441 101.035 71.5802 100.429 72.9937 99.5592C78.6251 96.0662 81.2867 89.0261 83.7724 82.6349C84.0081 81.9911 84.2668 81.3613 84.5254 80.7315C88.5288 70.824 94.5899 61.9844 103.496 56.7417C106.216 55.1259 109.41 53.6108 112.82 53.3933C117.689 53.0582 122.073 54.4443 126.202 54.8552C126.525 54.8946 126.862 54.9111 127.184 54.9506C132.153 55.2758 136.949 54.2345 141.13 51.6202C145.589 48.8606 149.353 44.0384 150.06 38.1359" stroke="#B6D33E" stroke-width="0.268923" stroke-miterlimit="10"/>
<path d="M-24.973 93.826C-21.8428 90.507 -18.3007 87.5971 -14.4947 85.132C-12.8071 84.02 -11.0417 82.987 -9.15892 82.2778C-4.34307 80.4296 0.760075 80.7421 5.43884 81.6462C6.54415 81.8486 7.6584 82.088 8.76755 82.3874C11.9344 83.1873 15.0018 84.3046 17.989 85.6566C21.9643 87.4545 25.7191 89.7164 29.8767 91.7833C34.0203 93.8731 38.8203 95.1978 42.8885 96.3277C48.1946 97.8041 52.615 101.04 57.7095 102.45C61.1887 103.409 65.0043 103.818 68.594 103.048C70.2525 102.706 71.8484 102.105 73.3589 101.232C79.3179 97.7183 82.1336 90.4257 84.7825 83.819C85.0552 83.1663 85.3049 82.4995 85.5776 81.8467C89.8511 71.6001 96.2104 62.3754 105.688 57.2295C108.383 55.7565 111.503 54.416 114.784 54.1514C119.487 53.7781 123.754 54.8404 127.811 54.9555C128.125 54.958 128.462 54.9745 128.775 54.977C133.618 54.9415 138.205 53.5204 142.078 50.6869C146.221 47.671 149.552 42.8362 150.026 37.1071" stroke="#B6D33E" stroke-width="0.268923" stroke-miterlimit="10"/>
<path d="M-24.3162 95.8976C-21.293 92.7023 -17.8809 89.9021 -14.1819 87.5607C-12.5364 86.5175 -10.836 85.5394 -9.01312 84.8251C-4.38211 83.0215 0.538676 83.0651 5.12304 83.6594C6.21048 83.7879 7.31579 83.9904 8.38413 84.2018C11.5063 84.8168 14.5431 85.7264 17.4996 86.8705C21.4494 88.4007 25.2156 90.386 29.2776 92.2999C33.3166 94.1998 37.8948 95.5782 41.8189 96.8406C47.2704 98.5949 51.8923 102.017 57.2202 103.664C60.8549 104.781 64.8541 105.302 68.6185 104.607C70.3598 104.284 72.0386 103.703 73.623 102.811C79.8867 99.2634 82.9025 91.7465 85.6916 84.9103C85.9783 84.2346 86.265 83.5589 86.5517 82.8832C91.0814 72.3203 97.7669 62.6647 107.787 57.6614C110.459 56.3312 113.48 55.1514 116.655 54.8536C121.192 54.4422 125.365 55.1947 129.351 55.0141C129.679 54.9936 129.97 54.9821 130.297 54.9616C135.014 54.5654 139.391 52.7644 142.958 49.7117C146.747 46.4486 149.659 41.5782 149.901 36.0225" stroke="#B6D33E" stroke-width="0.268923" stroke-miterlimit="10"/>
<path d="M-23.645 97.946C-20.7519 94.8603 -17.4239 92.1978 -13.8409 89.9431C-12.2603 88.9548 -10.588 88.0225 -8.85311 87.3491C-4.40694 85.5901 0.322571 85.3278 4.83039 85.6863C5.90891 85.7778 6.9734 85.8923 8.02388 86.0298C11.1014 86.46 14.1075 87.1618 17.0564 88.1122C20.9806 89.3746 24.7582 91.0833 28.7386 92.8213C32.6819 94.5682 37.0523 95.9772 40.7955 97.3813C46.3873 99.4733 51.2247 103.058 56.7399 104.915C60.5302 106.19 64.7131 106.822 68.6661 106.18C70.4903 105.877 72.252 105.314 73.9333 104.419C80.5246 100.85 83.6946 93.0809 86.6558 86.0662C86.9565 85.3676 87.2572 84.6689 87.5579 83.9702C92.3807 73.0823 99.3466 62.9677 109.956 58.1351C112.58 56.9336 115.549 55.9424 118.596 55.5976C122.944 55.1339 127.059 55.5677 130.937 55.1003C131.242 55.0658 131.547 55.0313 131.842 54.9599C136.433 54.2029 140.601 52.0221 143.837 48.7362C147.296 45.2399 149.766 40.3198 149.776 34.9375" stroke="#B6D33E" stroke-width="0.268923" stroke-miterlimit="10"/>
<path d="M-22.9743 99.9944C-20.1742 97.0094 -16.9762 94.4566 -13.5143 92.3485C-11.9617 91.4061 -10.3684 90.5516 -8.69345 89.8731C-4.4181 88.1358 0.115028 87.6275 4.52845 87.6762C5.5891 87.6938 6.63574 87.7344 7.67728 87.8349C10.6872 88.0663 13.6716 88.5972 16.5898 89.3398C20.4884 90.3346 24.2775 91.7666 28.1622 93.3517C32.024 94.9227 36.1356 96.3942 39.7717 97.9219C45.5038 100.352 50.5337 104.086 56.2963 106.156C60.2422 107.589 64.6316 108.348 68.7593 107.781C70.6663 107.497 72.5338 106.967 74.2891 106.054C81.208 102.465 84.5322 94.4434 87.6565 87.2132C87.9712 86.4916 88.2859 85.77 88.6236 85.0624C93.7026 73.8582 100.954 63.2247 112.147 58.6227C114.762 57.5411 117.618 56.7335 120.545 56.3785C124.728 55.8766 128.748 56.0007 132.546 55.2005C132.842 55.1291 133.137 55.0576 133.433 54.9862C137.911 53.8455 141.842 51.3307 144.799 47.7797C147.942 44.0272 149.978 39.0946 149.756 33.8857" stroke="#B6D33E" stroke-width="0.268923" stroke-miterlimit="10"/>
<path d="M-22.2803 102.057C-19.6101 99.1816 -16.5193 96.7524 -13.1644 94.768C-11.6769 93.8804 -10.1256 93.0948 -8.51053 92.4112C-4.42002 90.7186 -0.0552269 89.9183 4.23575 89.7032C5.27854 89.6469 6.29329 89.6365 7.31698 89.663C10.2822 89.7096 13.236 90.0327 16.1465 90.5815C20.0196 91.3086 23.806 92.487 27.6091 93.8961C31.3893 95.2912 35.2191 96.8112 38.7342 98.4856C44.5696 101.262 49.8431 105.113 55.825 107.444C59.9264 109.035 64.4854 109.929 68.8158 109.391C70.8147 109.163 72.7561 108.616 74.5852 107.685C81.8318 104.075 85.3102 95.8009 88.5976 88.3553C88.9264 87.6107 89.2411 86.8891 89.5928 86.1585C94.9419 74.6152 102.493 63.4398 114.256 59.0914C116.846 58.1526 119.619 57.4827 122.426 57.1175C126.443 56.5774 130.383 56.3687 134.072 55.2818C134.368 55.2103 134.655 55.1019 134.941 54.9935C139.316 53.5061 143.015 50.5974 145.665 46.8272C148.477 42.8415 150.071 37.8592 149.617 32.8238" stroke="#B6D33E" stroke-width="0.268923" stroke-miterlimit="10"/>
<path d="M-21.6232 104.128C-14.3572 96.3084 -3.69682 92.0112 6.9567 91.4913C17.6102 90.9714 28.2772 93.9891 37.7107 99.0264C43.6355 102.173 49.1524 106.141 55.3588 108.672C61.5651 111.202 68.8535 112.219 74.8955 109.292C82.4696 105.662 86.1023 97.1355 89.5758 89.4885C95.2791 76.901 103.283 63.7967 116.424 59.5653C122.977 57.454 130.215 57.7788 136.509 55.006C145.27 51.1873 150.861 41.2094 149.552 31.7441" stroke="#B6D33E" stroke-width="0.268923" stroke-miterlimit="10"/>
<path d="M24.8449 56V41.6836H34.6594V44.1055H27.7355V47.4941H33.7121V49.916H27.7355V56H24.8449ZM37.3324 41.6836H40.223V49.4375C40.223 50.668 40.2589 51.4655 40.3305 51.8301C40.4542 52.416 40.7471 52.888 41.2094 53.2461C41.6781 53.5977 42.3161 53.7734 43.1234 53.7734C43.9437 53.7734 44.5622 53.6074 44.9789 53.2754C45.3956 52.9368 45.6462 52.5234 45.7309 52.0352C45.8155 51.5469 45.8578 50.7363 45.8578 49.6035V41.6836H48.7484V49.2031C48.7484 50.9219 48.6703 52.1361 48.5141 52.8457C48.3578 53.5553 48.0681 54.1543 47.6449 54.6426C47.2283 55.1309 46.6684 55.5215 45.9652 55.8145C45.2621 56.1009 44.3441 56.2441 43.2113 56.2441C41.8441 56.2441 40.8057 56.0879 40.0961 55.7754C39.393 55.4564 38.8363 55.0462 38.4262 54.5449C38.016 54.0371 37.7458 53.5065 37.6156 52.9531C37.4268 52.1328 37.3324 50.9219 37.3324 49.3203V41.6836ZM55.3277 56V44.1055H51.0797V41.6836H62.4566V44.1055H58.2184V56H55.3277ZM64.6414 56V41.6836H70.7254C72.2553 41.6836 73.3654 41.8138 74.0555 42.0742C74.7521 42.3281 75.3087 42.7839 75.7254 43.4414C76.1421 44.099 76.3504 44.8509 76.3504 45.6973C76.3504 46.7715 76.0346 47.6602 75.4031 48.3633C74.7716 49.0599 73.8276 49.4993 72.5711 49.6816C73.1961 50.0462 73.7104 50.4466 74.1141 50.8828C74.5242 51.319 75.0743 52.0938 75.7645 53.207L77.5125 56H74.0555L71.9656 52.8848C71.2234 51.7715 70.7156 51.0716 70.4422 50.7852C70.1688 50.4922 69.879 50.2936 69.573 50.1895C69.2671 50.0788 68.782 50.0234 68.118 50.0234H67.532V56H64.6414ZM67.532 47.7383H69.6707C71.0574 47.7383 71.9233 47.6797 72.2684 47.5625C72.6134 47.4453 72.8836 47.2435 73.0789 46.957C73.2742 46.6706 73.3719 46.3125 73.3719 45.8828C73.3719 45.401 73.2417 45.0137 72.9813 44.7207C72.7273 44.4212 72.366 44.2324 71.8973 44.1543C71.6629 44.1217 70.9598 44.1055 69.7879 44.1055H67.532V47.7383Z" fill="white"/>
</g>
<defs>
<clipPath id="clip0_59_749">
<rect width="100" height="100" fill="white"/>
</clipPath>
</defs>
</svg>
