<svg width="512" height="512" viewBox="0 0 512 512" fill="none" xmlns="http://www.w3.org/2000/svg">
<rect width="512" height="512" fill="white"/>
<path d="M216.537 252.518C222.409 229.575 226.07 215.194 227.521 209.374C229.02 203.36 230.516 197.957 232.008 193.166C233.231 189.235 234.63 186.462 237.584 184.039C241.536 180.797 247.897 180.533 252.562 182.041C256.366 183.268 259.416 187.329 260.702 190.945C262.367 195.654 263.968 202.314 265.606 207.777C270.009 222.482 274.423 237.243 278.846 252.058C278.852 252.08 278.864 252.098 278.882 252.111C278.9 252.124 278.922 252.131 278.944 252.13C278.966 252.129 278.988 252.121 279.005 252.107C279.023 252.093 279.036 252.073 279.041 252.051C283.25 232.961 287.47 213.85 291.702 194.719C292.765 189.913 293.512 186.534 296.768 183.758C298.882 181.955 301.511 181.619 304.555 181.619C325.096 181.608 345.636 181.621 366.175 181.66C375.097 181.677 384.316 182.743 392.251 187.137C395.692 189.045 399.071 191.813 402.389 195.442C409.387 203.095 412.949 211.543 414.724 221.651C416.399 231.195 416.209 240.896 414.155 250.756C410.604 267.81 399.28 282.243 381.859 286.239C377.275 287.29 372.267 287.842 366.833 287.895C360.458 287.956 354.084 287.969 347.709 287.932C344.448 287.914 342.178 287.747 340.898 287.432C335.967 286.222 331.775 282.397 330.685 277.304C330.298 275.477 330.452 273.195 330.442 271.169C330.435 270.164 330.584 269.428 330.891 268.962C331.421 268.155 332.263 267.749 333.417 267.742C337.758 267.714 347.506 267.71 362.662 267.728C364.965 267.73 368.075 267.372 371.992 266.652C376.769 265.772 380.62 263.411 383.545 259.568C388.011 253.697 390.03 246.355 390.503 239.106C390.834 234.02 390.609 228.975 389.828 223.971C389.382 221.122 388.91 218.887 388.412 217.267C386.342 210.536 381.239 204.072 374.147 202.17C371.36 201.422 368.017 201.048 364.119 201.045C347.021 201.041 329.922 201.051 312.822 201.076C312.707 201.079 312.638 201.135 312.612 201.244C307.156 223.837 301.695 246.423 296.23 269C295.693 271.218 295.058 273.405 294.324 275.56C292.268 281.575 290.098 286.02 283.737 287.651C282.512 287.964 280.625 288.121 278.075 288.121C275.792 288.121 273.513 288.129 271.237 288.145C269.332 288.159 268.718 287.048 268.228 285.29C266.422 278.833 264.756 272.324 262.936 265.884C257.784 247.68 252.663 229.545 247.575 211.478C247.486 211.163 247.4 211.163 247.318 211.478C242.003 231.478 236.703 251.428 231.418 271.327C230.774 273.756 229.963 276.123 228.985 278.428C227.017 283.079 224.608 286.236 219.861 287.569C218.611 287.919 216.457 288.103 213.397 288.121C211.227 288.132 209.055 288.14 206.882 288.145C204.709 288.152 204.373 286.815 203.79 284.862C201.782 278.142 200.39 273.286 199.616 270.295C193.652 247.275 187.673 224.258 181.677 201.244C181.645 201.123 181.567 201.063 181.444 201.063H121.976C121.861 201.063 121.804 201.12 121.804 201.234V225.907C121.804 226.026 121.864 226.086 121.983 226.086C136.037 226.088 150.086 226.075 164.129 226.048C167.484 226.041 166.888 229.551 166.699 231.731C166.168 237.859 162.103 242.239 156.215 243.346C155.171 243.542 153.474 243.642 151.125 243.644C141.405 243.649 131.673 243.649 121.928 243.644C121.848 243.644 121.808 243.684 121.808 243.764C121.799 253.39 121.801 263.026 121.815 272.67C121.817 275.058 121.664 276.885 121.355 278.151C120.092 283.315 116.846 286.51 111.618 287.737C108.558 288.457 104.452 288.1 101.045 288.118C99.4031 288.128 98.3303 287.61 98.3303 285.862C98.3258 253.193 98.3258 220.523 98.3303 187.853C98.3303 186.126 98.4617 184.954 98.7245 184.337C99.5299 182.455 100.966 181.962 103.033 181.962C131.265 181.944 159.496 181.947 187.726 181.972C191.087 181.977 193.359 182.139 194.54 182.459C197.307 183.208 199.388 184.818 200.784 187.288C201.401 188.378 202.053 190.414 202.738 193.396C207.276 213.114 211.84 232.82 216.43 252.514C216.462 252.66 216.498 252.661 216.537 252.518Z" fill="#25484D"/>
<path d="M336.964 213.744L355.777 232.392C356.14 232.752 356.428 233.181 356.625 233.653C356.822 234.126 356.923 234.632 356.923 235.144C356.923 235.656 356.822 236.163 356.625 236.635C356.428 237.107 356.14 237.536 355.777 237.896L336.964 256.545C336.42 257.083 335.729 257.449 334.978 257.595C334.227 257.742 333.449 257.663 332.743 257.368C332.037 257.074 331.434 256.576 331.009 255.94C330.585 255.303 330.359 254.554 330.359 253.789V216.499C330.359 215.734 330.585 214.986 331.009 214.349C331.434 213.712 332.037 213.215 332.743 212.92C333.449 212.625 334.227 212.546 334.978 212.693C335.729 212.839 336.42 213.205 336.964 213.744Z" fill="#F47721"/>
<path d="M174.236 317.336H171.244C171.13 317.336 171.073 317.279 171.073 317.164V312.962C171.073 312.933 171.079 312.903 171.092 312.876C171.105 312.849 171.123 312.824 171.146 312.805C171.168 312.785 171.195 312.771 171.224 312.763C171.253 312.754 171.283 312.752 171.313 312.757C172.971 312.992 174.065 312.471 174.593 311.194C175.014 310.179 174.822 308.617 174.85 307.393C174.852 307.281 174.909 307.225 175.021 307.225H179.298C179.413 307.225 179.47 307.282 179.47 307.396V312.623C179.47 312.74 179.527 312.798 179.641 312.798L182.983 312.795C183.097 312.795 183.154 312.852 183.154 312.966L183.158 317.164C183.158 317.279 183.099 317.336 182.983 317.336H179.644C179.53 317.336 179.473 317.393 179.473 317.507C179.469 320.144 179.465 322.772 179.463 325.39C179.463 327.368 181.564 327.231 182.986 327.046C183.1 327.03 183.158 327.079 183.158 327.193L183.151 331.114C183.151 331.214 183.104 331.279 183.01 331.309C180.117 332.19 176.231 331.703 174.908 328.704C174.588 327.978 174.427 326.715 174.425 324.917C174.42 322.449 174.415 319.981 174.411 317.511C174.411 317.394 174.353 317.336 174.236 317.336Z" fill="#25484D"/>
<path d="M405.24 317.336H402.248C402.134 317.336 402.077 317.279 402.077 317.164V312.962C402.077 312.933 402.084 312.903 402.096 312.876C402.109 312.849 402.127 312.824 402.15 312.805C402.173 312.785 402.199 312.771 402.228 312.763C402.257 312.754 402.287 312.752 402.317 312.757C403.976 312.992 405.069 312.471 405.597 311.194C406.018 310.179 405.826 308.617 405.854 307.393C405.856 307.281 405.913 307.225 406.025 307.225H410.303C410.417 307.225 410.474 307.282 410.474 307.396V312.623C410.474 312.74 410.531 312.798 410.645 312.798L413.987 312.795C414.101 312.795 414.158 312.852 414.158 312.966L414.162 317.164C414.162 317.279 414.104 317.336 413.987 317.336H410.649C410.532 317.336 410.474 317.393 410.474 317.507C410.472 319.888 410.471 322.262 410.471 324.629C410.467 327.275 411.773 327.337 413.99 327.046C414.105 327.03 414.162 327.079 414.162 327.193L414.155 331.121C414.155 331.223 414.106 331.29 414.008 331.319C411.098 332.187 407.273 331.71 405.929 328.718C405.593 327.969 405.425 326.696 405.425 324.9C405.425 322.439 405.422 319.976 405.415 317.511C405.415 317.394 405.357 317.336 405.24 317.336Z" fill="#25484D"/>
<path d="M110.717 329.592C108.711 331.877 106.18 332.549 103.125 331.607C97.3227 329.822 97.8436 321.963 103.889 320.845C105.525 320.544 107.169 320.281 108.821 320.057C111.591 319.683 110.665 317.024 108.657 316.52C106.251 315.915 104.669 316.798 103.91 319.169C103.871 319.293 103.788 319.342 103.66 319.317L99.5436 318.443C99.4454 318.422 99.4054 318.362 99.4236 318.261C100.438 313.062 105.583 311.424 110.237 312.541C112.725 313.137 114.349 314.492 115.107 316.606C115.411 317.447 115.554 318.92 115.536 321.027C115.508 324.416 115.549 327.803 115.659 331.189C115.664 331.322 115.6 331.388 115.467 331.388H111.241C111.111 331.388 111.04 331.323 111.029 331.193L110.895 329.65C110.881 329.493 110.822 329.473 110.717 329.592ZM110.371 323.203C107.999 323.406 103.283 323.601 104.229 326.614C104.739 328.245 106.625 328.403 108.037 327.892C109.961 327.193 110.786 325.67 110.515 323.323C110.505 323.237 110.457 323.197 110.371 323.203Z" fill="#25484D"/>
<path d="M127.185 327.847C128.381 327.522 128.621 325.753 127.668 325.037C127.408 324.84 126.91 324.654 126.174 324.478C124.587 324.101 122.685 323.803 121.376 323.028C119.194 321.735 118.322 319.818 118.761 317.277C119.439 313.343 123.634 311.794 127.285 312.369C130.353 312.854 132.251 314.551 132.977 317.462C133.009 317.581 132.965 317.654 132.844 317.682L128.889 318.58C128.765 318.607 128.683 318.56 128.642 318.439C128.048 316.609 126.861 315.867 125.081 316.215C122.798 316.664 122.709 319.186 125.057 319.56C128.854 320.167 133.426 321.346 133.125 326.192C132.631 334.143 119.097 333.794 118.168 326.343C118.154 326.235 118.199 326.17 118.301 326.147L122.281 325.277C122.386 325.254 122.453 325.294 122.483 325.397C123.145 327.704 124.713 328.521 127.185 327.847Z" fill="#25484D"/>
<path d="M143.637 327.847C144.833 327.522 145.073 325.753 144.12 325.037C143.859 324.84 143.361 324.654 142.625 324.478C141.039 324.101 139.136 323.803 137.827 323.028C135.645 321.735 134.773 319.818 135.212 317.277C135.891 313.343 140.086 311.794 143.736 312.369C146.805 312.854 148.702 314.551 149.429 317.462C149.461 317.581 149.416 317.654 149.295 317.682L145.34 318.58C145.217 318.607 145.134 318.56 145.093 318.439C144.497 316.609 143.31 315.867 141.532 316.215C139.25 316.664 139.16 319.186 141.508 319.56C145.302 320.167 149.871 321.342 149.576 326.182C149.093 334.143 135.551 333.797 134.616 326.343C134.604 326.235 134.65 326.17 134.753 326.147L138.732 325.277C138.837 325.254 138.904 325.294 138.934 325.397C139.597 327.704 141.164 328.521 143.637 327.847Z" fill="#25484D"/>
<path d="M156.626 323.67C157.182 328.081 163.663 329.26 165.349 324.921C165.392 324.811 165.47 324.773 165.582 324.807L169.52 325.99C169.625 326.02 169.662 326.087 169.63 326.192C168.947 328.431 167.667 330.008 165.791 330.922C160.972 333.27 155.067 331.765 152.585 326.826C151.532 324.726 151.298 322.34 151.883 319.666C152.671 316.061 154.725 313.713 158.045 312.623C159.281 312.219 160.61 312.097 162.031 312.256C167.94 312.921 170.528 317.703 169.87 323.351C169.858 323.454 169.8 323.505 169.695 323.505H156.77C156.661 323.505 156.613 323.56 156.626 323.67ZM156.839 319.995L164.873 319.982C164.884 319.982 164.896 319.977 164.904 319.969C164.912 319.96 164.917 319.949 164.917 319.937V319.91C164.916 319.447 164.812 318.99 164.609 318.563C164.407 318.136 164.11 317.749 163.737 317.423C163.364 317.096 162.921 316.838 162.433 316.662C161.946 316.486 161.424 316.396 160.897 316.397H160.801C159.737 316.399 158.717 316.771 157.965 317.433C157.214 318.094 156.793 318.99 156.794 319.923V319.951C156.794 319.957 156.795 319.963 156.798 319.968C156.8 319.973 156.803 319.978 156.807 319.982C156.811 319.987 156.816 319.99 156.822 319.992C156.827 319.994 156.833 319.995 156.839 319.995Z" fill="#25484D"/>
<path d="M238.211 329.595C235.641 332.677 230.548 332.845 227.847 329.798C227.145 329.007 226.742 328.028 226.637 326.86C226.095 320.931 232.014 320.636 236.326 320.057C239.092 319.683 238.16 317.024 236.155 316.52C233.749 315.915 232.166 316.798 231.408 319.169C231.369 319.293 231.286 319.342 231.158 319.317L227.041 318.443C226.943 318.422 226.903 318.362 226.921 318.261C227.936 313.062 233.08 311.424 237.735 312.541C240.223 313.137 241.846 314.492 242.605 316.606C242.909 317.447 243.052 318.923 243.033 321.034C243.006 324.42 243.047 327.805 243.157 331.189C243.161 331.322 243.096 331.388 242.961 331.388H238.739C238.609 331.388 238.538 331.323 238.526 331.193L238.393 329.65C238.377 329.486 238.316 329.467 238.211 329.595ZM232.912 324.077C231.761 324.617 231.366 325.462 231.727 326.614C232.237 328.245 234.122 328.406 235.534 327.892C237.458 327.193 238.284 325.67 238.012 323.323C238.003 323.237 237.955 323.197 237.868 323.203C235.355 323.416 233.703 323.707 232.912 324.077Z" fill="#25484D"/>
<path d="M279 329.592C276.994 331.877 274.464 332.55 271.409 331.611C267.95 330.545 266.137 326.545 268.112 323.399C269.863 320.612 273.787 320.52 277.355 320.009C279.922 319.642 278.75 316.976 276.94 316.52C274.534 315.915 272.952 316.798 272.194 319.169C272.155 319.293 272.071 319.342 271.943 319.317L267.827 318.443C267.722 318.42 267.681 318.357 267.704 318.254C268.787 312.942 274.058 311.355 278.781 312.634C281.118 313.264 282.653 314.577 283.384 316.572C283.69 317.408 283.835 318.908 283.819 321.072C283.794 324.444 283.835 327.817 283.943 331.189C283.947 331.322 283.882 331.388 283.747 331.388H279.525C279.394 331.388 279.324 331.323 279.312 331.193L279.178 329.65C279.165 329.493 279.105 329.473 279 329.592ZM273.698 324.077C272.547 324.617 272.151 325.462 272.512 326.614C273.023 328.245 274.908 328.403 276.32 327.892C278.244 327.193 279.07 325.67 278.798 323.323C278.789 323.237 278.741 323.198 278.654 323.207C276.141 323.417 274.489 323.707 273.698 324.077Z" fill="#25484D"/>
<path d="M313.617 323.738C314.395 328.187 320.413 329.191 322.353 324.907C322.396 324.813 322.467 324.781 322.565 324.811L326.497 325.99C326.604 326.022 326.641 326.091 326.606 326.199C325.656 329.085 323.834 330.884 321.14 331.597C315.443 333.105 310.059 330.264 308.777 324.533C307.656 319.519 310.045 314.251 315.018 312.623C317.4 311.845 320.574 312.188 322.744 313.435C326.219 315.437 327.292 319.498 326.843 323.351C326.831 323.454 326.774 323.505 326.671 323.505H313.812C313.654 323.505 313.589 323.583 313.617 323.738ZM313.812 319.995L321.846 319.982C321.858 319.982 321.869 319.977 321.877 319.969C321.886 319.96 321.89 319.949 321.89 319.937V319.91C321.889 319.447 321.785 318.99 321.582 318.563C321.38 318.136 321.084 317.749 320.71 317.422C320.337 317.096 319.894 316.838 319.407 316.662C318.919 316.486 318.397 316.396 317.87 316.397H317.774C316.71 316.399 315.69 316.771 314.938 317.433C314.187 318.094 313.766 318.99 313.767 319.923V319.951C313.767 319.963 313.772 319.974 313.78 319.982C313.789 319.991 313.8 319.995 313.812 319.995Z" fill="#25484D"/>
<path d="M366.374 323.68C367.207 328.139 373.205 329.266 375.128 324.91C375.171 324.812 375.243 324.779 375.344 324.811L379.275 325.99C379.38 326.02 379.416 326.087 379.384 326.192C378.699 328.431 377.419 330.008 375.546 330.922C370.727 333.27 364.822 331.765 362.34 326.823C361.287 324.725 361.053 322.34 361.637 319.666C362.426 316.061 364.48 313.713 367.8 312.623C369.036 312.219 370.365 312.097 371.786 312.256C377.695 312.921 380.286 317.703 379.624 323.351C379.613 323.454 379.555 323.505 379.449 323.505H366.521C366.403 323.505 366.354 323.563 366.374 323.68ZM366.593 319.995L374.627 319.982C374.639 319.982 374.65 319.977 374.659 319.969C374.667 319.96 374.672 319.949 374.672 319.937V319.91C374.671 319.447 374.566 318.99 374.364 318.563C374.161 318.136 373.865 317.749 373.492 317.423C373.118 317.096 372.675 316.838 372.188 316.662C371.701 316.486 371.179 316.396 370.651 316.397H370.555C369.491 316.399 368.471 316.771 367.72 317.433C366.969 318.094 366.547 318.99 366.549 319.923V319.951C366.549 319.963 366.554 319.974 366.562 319.982C366.57 319.991 366.582 319.995 366.593 319.995Z" fill="#25484D"/>
<path d="M200.209 314.556C201.289 313.308 202.724 312.574 204.513 312.352C207.255 312.012 209.37 312.908 210.857 315.043C210.933 315.152 211.009 315.153 211.087 315.046C214.216 310.594 221.417 311.571 223.093 316.595C223.393 317.495 223.538 318.799 223.528 320.506C223.506 324.079 223.502 327.646 223.518 331.206C223.518 331.327 223.458 331.388 223.337 331.388H218.72C218.603 331.388 218.545 331.329 218.545 331.213C218.538 327.776 218.536 324.344 218.538 320.917C218.541 319.813 218.441 319.042 218.24 318.604C217.112 316.143 213.469 316.472 212.386 318.7C212.087 319.316 211.939 320.374 211.944 321.873C211.953 324.983 211.952 328.096 211.941 331.213C211.938 331.329 211.879 331.388 211.762 331.388H207.067C206.95 331.388 206.892 331.329 206.892 331.213C206.885 327.884 206.884 324.558 206.889 321.236C206.889 319.965 206.741 319.043 206.446 318.47C204.952 315.557 200.226 316.958 200.216 320.166C200.209 323.845 200.205 327.526 200.205 331.209C200.205 331.328 200.146 331.388 200.027 331.388H195.321C195.207 331.388 195.15 331.331 195.15 331.216V312.966C195.15 312.851 195.207 312.794 195.321 312.794H199.859C199.971 312.794 200.028 312.85 200.03 312.962L200.044 314.494C200.046 314.659 200.101 314.679 200.209 314.556Z" fill="#25484D"/>
<path d="M252.311 314.731C255.513 310.738 262.096 311.763 263.731 316.486C264.047 317.4 264.207 318.742 264.211 320.513C264.216 324.079 264.215 327.646 264.208 331.213C264.208 331.329 264.149 331.388 264.033 331.388H259.334C259.215 331.388 259.156 331.328 259.156 331.21C259.156 327.609 259.152 324.013 259.146 320.424C259.141 318.509 258.349 317.373 256.77 317.017C253.631 316.307 252.339 318.549 252.322 321.28C252.299 324.587 252.293 327.895 252.305 331.206C252.307 331.327 252.246 331.388 252.123 331.388H247.417C247.303 331.388 247.246 331.331 247.246 331.216V312.966C247.246 312.851 247.303 312.794 247.417 312.794H251.958C252.07 312.794 252.127 312.851 252.13 312.966L252.133 314.669C252.133 314.859 252.193 314.879 252.311 314.731Z" fill="#25484D"/>
<path d="M335.247 314.556C336.33 313.311 337.765 312.576 339.552 312.353C342.293 312.012 344.408 312.909 345.896 315.043C345.971 315.153 346.048 315.154 346.125 315.046C347.211 313.497 348.605 312.606 350.31 312.373C354.389 311.813 356.997 313.225 358.135 316.609C358.432 317.489 358.576 318.726 358.567 320.321C358.546 323.956 358.543 327.585 358.556 331.206C358.556 331.328 358.495 331.388 358.371 331.388H353.761C353.645 331.388 353.587 331.33 353.587 331.213C353.575 327.738 353.573 324.267 353.58 320.801C353.58 319.722 353.436 318.922 353.148 318.398C352.171 316.613 349.806 316.513 348.291 317.603C347.416 318.232 346.98 319.143 346.982 320.338C346.989 323.96 346.988 327.584 346.979 331.21C346.979 331.329 346.919 331.388 346.8 331.388H342.108C341.992 331.388 341.934 331.33 341.934 331.213C341.92 327.955 341.919 324.7 341.93 321.449C341.935 320.114 341.806 319.16 341.543 318.587C340.148 315.543 335.264 316.89 335.254 320.167C335.247 323.846 335.243 327.527 335.243 331.21C335.243 331.329 335.184 331.388 335.065 331.388H330.359C330.245 331.388 330.188 331.331 330.188 331.217V312.966C330.188 312.852 330.245 312.795 330.359 312.795H334.897C335.009 312.795 335.066 312.851 335.069 312.963L335.082 314.495C335.085 314.659 335.139 314.68 335.247 314.556Z" fill="#25484D"/>
<path d="M388.035 314.731C391.236 310.738 397.82 311.763 399.455 316.486C399.77 317.4 399.93 318.742 399.935 320.513C399.939 324.079 399.938 327.646 399.931 331.213C399.931 331.329 399.873 331.388 399.757 331.388H395.058C394.941 331.388 394.883 331.328 394.883 331.21C394.878 328.088 394.876 324.971 394.876 321.856C394.876 319.423 394.646 317.106 391.846 316.924C389.097 316.746 388.062 318.703 388.045 321.113C388.022 324.476 388.017 327.84 388.028 331.206C388.03 331.327 387.971 331.388 387.85 331.388H383.141C383.026 331.388 382.969 331.331 382.969 331.216V312.966C382.969 312.851 383.026 312.794 383.141 312.794H387.682C387.794 312.794 387.851 312.851 387.853 312.966L387.857 314.669C387.857 314.859 387.916 314.879 388.035 314.731Z" fill="#25484D"/>
<path d="M300.97 314.512V312.966C300.97 312.852 301.027 312.794 301.141 312.794H305.669C305.778 312.794 305.833 312.849 305.833 312.959C305.883 321.918 305.882 327.629 305.83 330.092C305.761 333.229 304.629 335.614 302.433 337.245C297.477 340.926 288.367 339.425 287.048 332.526C287.027 332.421 287.068 332.354 287.171 332.327L291.435 331.192C291.547 331.163 291.619 331.204 291.651 331.316C292.35 333.784 294.03 334.909 296.692 334.692C299.935 334.428 301.189 331.645 300.719 328.697C300.701 328.579 300.651 328.563 300.569 328.649C299.897 329.371 299.333 329.82 298.876 329.996C294.465 331.693 289.711 329.794 287.798 325.448C286.513 322.521 286.828 319.07 288.542 316.359C290.391 313.439 293.196 312.163 296.96 312.53C298.588 312.688 299.76 313.391 300.802 314.577C300.916 314.707 300.972 314.685 300.97 314.512ZM296.513 326.278C297.093 326.281 297.668 326.162 298.205 325.929C298.741 325.695 299.23 325.352 299.642 324.918C300.054 324.483 300.382 323.967 300.607 323.398C300.832 322.829 300.949 322.219 300.952 321.602C300.959 320.356 300.5 319.158 299.677 318.272C298.854 317.387 297.733 316.886 296.563 316.88C295.983 316.877 295.408 316.995 294.871 317.229C294.335 317.462 293.846 317.806 293.434 318.24C293.022 318.674 292.694 319.19 292.469 319.759C292.244 320.328 292.127 320.939 292.124 321.556C292.117 322.802 292.576 323.999 293.399 324.885C294.222 325.771 295.343 326.271 296.513 326.278Z" fill="#25484D"/>
</svg>
