<svg width="100" height="100" viewBox="0 0 100 100" fill="none" xmlns="http://www.w3.org/2000/svg">
<rect width="100" height="100" fill="#482A06"/>
<g clip-path="url(#clip0_59_751)">
<path fill-rule="evenodd" clip-rule="evenodd" d="M69.3457 60.294L52.2513 51.9071C52.1211 51.843 52.0115 51.7436 51.9349 51.6203C51.8584 51.4971 51.8179 51.3548 51.8181 51.2096L51.8069 27.6859C51.9336 27.7139 52.0597 27.7424 52.1851 27.7717C52.0597 27.7424 51.9336 27.7138 51.8069 27.6859L51.8744 14.8328C51.8752 14.8054 51.883 14.7787 51.8969 14.7551C51.9108 14.7315 51.9305 14.7118 51.954 14.6978C51.9775 14.6837 52.0042 14.6759 52.0316 14.6749C52.059 14.6739 52.0862 14.6799 52.1106 14.6922L82.4857 30.0484C82.6228 30.118 82.7379 30.2242 82.8184 30.3553C82.8988 30.4864 82.9413 30.6371 82.9413 30.7909L82.8738 66.4646C82.8744 66.5252 82.8594 66.5849 82.8302 66.6381C82.8011 66.6912 82.7589 66.736 82.7076 66.7681C82.6562 66.8003 82.5975 66.8188 82.537 66.8217C82.4765 66.8247 82.4162 66.8122 82.3619 66.7852L69.3457 60.294Z" fill="#CAAB4E"/>
<path fill-rule="evenodd" clip-rule="evenodd" d="M45.4395 42.9128C46.527 42.0916 47.6558 41.606 48.8258 41.456L49.0002 15.086C49.0001 15.0361 48.9876 14.987 48.9637 14.9433C48.9397 14.8996 48.9053 14.8627 48.8636 14.8362C48.8218 14.8097 48.7743 14.7944 48.7253 14.7919C48.6764 14.7893 48.6277 14.7996 48.5839 14.8216L18.327 29.756C18.1508 29.8422 18.0626 29.9828 18.0626 30.1778L17.8489 66.3859C17.8489 66.4059 17.8539 66.4255 17.8635 66.443C17.8731 66.4605 17.887 66.4752 17.9038 66.4859C17.9206 66.4966 17.9399 66.5028 17.9598 66.504C17.9797 66.5052 17.9996 66.5014 18.0176 66.4928L42.0814 54.866C42.0814 54.866 42.0814 54.8661 42.0814 54.8662L48.3364 51.7443C48.5764 51.6243 48.6983 51.4293 48.702 51.1593L48.8258 41.4562C47.6558 41.6062 46.527 42.0918 45.4395 42.9131C44.0355 43.974 43.123 45.6486 42.5805 47.5126C43.123 45.6485 44.0354 43.9738 45.4395 42.9128Z" fill="#CAAB4E"/>
<path fill-rule="evenodd" clip-rule="evenodd" d="M69.9645 63.8321C64.737 61.2296 59.4007 58.5653 53.9557 55.839C52.8232 55.2765 51.6344 54.7872 50.3894 54.3709C50.2057 54.3109 50.0276 54.3222 49.8551 54.4047L31.3038 63.354C32.9369 65.3715 34.7768 67.172 36.8233 68.7554C34.7767 67.172 32.9369 65.3715 31.3037 63.354L19.4406 69.0015C19.4118 69.0148 19.3873 69.0359 19.37 69.0625C19.3527 69.089 19.3431 69.1199 19.3426 69.1516C19.342 69.1833 19.3503 69.2146 19.3667 69.2417C19.383 69.2689 19.4067 69.2909 19.435 69.3053L49.7706 84.6334C49.8872 84.6926 50.0159 84.7235 50.1459 84.7235C50.276 84.7235 50.4038 84.6926 50.5188 84.6334L80.9669 69.5753C80.9962 69.56 81.0208 69.537 81.0383 69.509C81.0558 69.481 81.0653 69.449 81.0659 69.4164C81.0664 69.3839 81.0581 69.3521 81.0416 69.3245C81.0251 69.297 81.0013 69.2748 80.9726 69.2603L69.9645 63.8321ZM43.8138 73.2934C43.8115 73.4082 43.8457 73.4887 43.9166 73.5347C43.8457 73.4887 43.8114 73.4082 43.8138 73.2934C43.8168 73.115 43.7657 72.9845 43.6603 72.902C43.7657 72.9845 43.8169 73.115 43.8138 73.2934Z" fill="#CAAB4E"/>
</g>
<defs>
<clipPath id="clip0_59_751">
<rect width="65.0925" height="70.0486" fill="white" transform="translate(17.8486 14.6748)"/>
</clipPath>
</defs>
</svg>
