<svg width="100" height="100" viewBox="0 0 100 100" fill="none" xmlns="http://www.w3.org/2000/svg">
<rect width="100" height="100" fill="#9CE7FF"/>
<g clip-path="url(#clip0_59_752)">
<path d="M15.0717 51.7446C15.7331 51.7505 16.3904 51.7539 17.0436 51.7546C37.853 51.7775 58.6639 51.7816 79.4763 51.7668C79.5266 51.7668 79.5517 51.7417 79.5517 51.6914L79.5484 27.3384C79.5484 27.2814 79.5199 27.2529 79.463 27.2529H15.0773C15.064 27.2529 15.0513 27.2583 15.042 27.2679C15.0326 27.2775 15.0273 27.2904 15.0273 27.304L15.0318 51.7047C15.0318 51.7099 15.0328 51.7151 15.0348 51.72C15.0368 51.7248 15.0398 51.7292 15.0435 51.7329C15.0472 51.7366 15.0516 51.7396 15.0564 51.7416C15.0613 51.7436 15.0665 51.7446 15.0717 51.7446Z" stroke="#948BB6" stroke-width="0.221935"/>
<path d="M84.8802 57.4917H18.2063C18.1708 57.4917 18.1355 57.4847 18.1026 57.471C18.0697 57.4573 18.0397 57.4372 18.0143 57.4118C16.6901 56.0691 15.343 54.7179 13.9729 53.3582C13.8442 53.2306 13.7354 53.0597 13.5268 53.114C12.6413 53.3471 8.91276 54.8873 9.95031 56.3332C10.4441 57.0223 12.3539 57.6926 13.1617 57.9833C20.0939 60.4867 27.4399 62.0702 34.7627 62.857C43.558 63.8024 52.3566 63.8946 61.1775 63.2387C69.8207 62.5962 78.4529 60.9572 86.6379 58.0632C87.4413 57.7802 89.9536 56.8736 90.1778 56.1024C90.3964 55.3511 89.5586 54.6365 88.9893 54.2603C87.8648 53.5176 86.5776 53.0475 85.1276 52.8499C85.013 52.8344 84.9556 52.8843 84.9556 52.9997L84.9512 57.4207C84.9512 57.4395 84.9437 57.4576 84.9304 57.4709C84.9171 57.4842 84.899 57.4917 84.8802 57.4917Z" stroke="#948BB6" stroke-width="0.221935"/>
<path d="M19.2539 69.1233C26.3126 70.9509 33.4034 72.0883 40.6241 72.4967C47.3983 72.8791 54.0678 72.8562 60.6327 72.4279C67.017 72.0114 73.4346 70.9827 79.8856 69.3419C83.8405 68.3365 87.7088 67.1325 91.2831 65.5978C92.3062 65.1584 92.2562 64.2829 92.0277 63.2775C91.5904 61.3533 91.0792 59.4476 90.4941 57.5604C90.4885 57.5426 90.4792 57.5262 90.4667 57.5123C90.4543 57.4983 90.439 57.4871 90.422 57.4794C90.2954 57.4217 90.1553 57.4239 90.0014 57.4861C86.2473 59.0052 82.2248 60.4112 78.2155 61.3311C65.4675 64.2551 52.2735 65.0729 39.2436 64.0232C30.2752 63.3019 21.2646 61.7162 12.8322 58.5669C11.8579 58.2029 10.8825 57.8415 9.90597 57.4827C9.67738 57.3992 9.52868 57.4731 9.45988 57.7047C8.82145 59.8678 8.30915 61.7465 7.92298 63.3407C7.64223 64.4992 7.82089 65.2327 8.94832 65.6966C12.2448 67.0548 15.68 68.1971 19.2539 69.1233Z" stroke="#948BB6" stroke-width="0.221935"/>
<path d="M76.8526 40.7654L77.4973 40.7598C77.5254 40.7595 77.5522 40.7482 77.5719 40.7282C77.5917 40.7083 77.6027 40.6813 77.6027 40.6533V33.1075C77.6027 32.9561 77.5428 32.8113 77.4363 32.7047C76.4331 31.6985 75.4167 30.6847 74.3869 29.663C74.2537 29.5313 74.1328 29.4648 74.024 29.4633C71.4037 29.4307 66.847 29.4333 60.3539 29.4711C59.8135 29.4744 59.2675 29.4333 58.7682 29.612C57.1625 30.1868 56.6476 31.4962 56.3169 33.0697C56.308 33.1126 56.2821 33.1341 56.2392 33.1341H55.9208C55.8719 33.1341 55.8364 33.1126 55.8142 33.0697C54.9098 31.3253 52.9979 29.4478 50.8873 29.4466C41.3455 29.4422 31.8038 29.4426 22.262 29.4478C20.2502 29.4489 17.9132 29.3767 17.3961 31.868C17.311 32.28 17.2681 32.5841 17.2674 32.7801C17.2622 35.4211 17.2618 38.0618 17.2663 40.7021C17.2685 41.8073 18.0086 42.866 18.6667 43.7071C19.9376 45.3346 21.3876 46.856 23.0166 48.2712C23.5936 48.7728 24.4314 49.5407 25.115 49.5451C30.6479 49.5769 36.9246 49.5888 43.9451 49.5806C47.5338 49.5773 51.1192 49.5396 54.709 49.5873C55.3837 49.5962 55.933 48.6818 56.368 48.1847C56.3803 48.1705 56.3956 48.1593 56.4128 48.1519C56.4301 48.1445 56.4487 48.141 56.4675 48.1417C56.4862 48.1425 56.5045 48.1474 56.5211 48.1562C56.5377 48.165 56.5521 48.1773 56.5633 48.1924C56.8067 48.5187 57.0415 48.8727 57.2679 49.2544C57.3456 49.3864 57.4932 49.5484 57.6286 49.5584C58.817 49.6461 60.4394 49.5584 61.4758 49.5584C65.7392 49.557 70.0029 49.5562 74.2671 49.5562C75.7518 49.5562 77.1755 47.7108 77.6394 46.4902C78.2397 44.9089 77.8003 42.8915 77.0501 41.4245C76.9754 41.2795 76.8963 41.0783 76.8127 40.8208C76.8008 40.7838 76.8141 40.7654 76.8526 40.7654Z" stroke="#948BB6" stroke-width="0.221935"/>
<path d="M28.7027 40.204C29.0356 41.0352 29.0822 42.2813 27.9282 42.4478C26.9461 42.5887 25.7388 42.4866 24.7356 42.4777C24.041 42.4711 23.8113 41.9928 23.8113 41.3437C23.8098 39.0259 23.8105 36.7082 23.8135 34.3904C23.8142 34.1256 23.9333 33.8515 24.1708 33.5681C24.1925 33.5429 24.2212 33.525 24.2529 33.5171C25.174 33.2952 26.3547 33.4072 27.309 33.415C28.7693 33.4272 28.9435 33.9854 28.9136 35.3225C28.9121 35.361 28.9306 35.3802 28.9691 35.3802L34.1612 35.3847C34.2382 35.3847 34.2766 35.3458 34.2766 35.2682L34.2545 30.673C34.2545 30.6316 34.2334 30.6109 34.1912 30.6109C29.6948 30.6094 25.1984 30.609 20.702 30.6097C20.1834 30.6097 19.8035 30.6578 19.5623 30.754C18.5514 31.1557 18.1553 32.2166 18.1541 33.2341C18.1504 35.5578 18.1504 37.8815 18.1541 40.2051C18.1564 42.1071 19.9441 44.4374 21.8083 44.9157C22.1064 44.9926 22.5525 45.0319 23.1466 45.0333C26.7996 45.0407 30.4571 45.0385 34.1191 45.0267C34.1394 45.0267 34.1596 45.0226 34.1784 45.0147C34.1971 45.0069 34.2142 44.9953 34.2285 44.9808C34.2429 44.9662 34.2542 44.949 34.2619 44.93C34.2696 44.911 34.2735 44.8907 34.2733 44.8702C34.2652 43.6762 34.2663 42.4748 34.2766 41.266C34.2822 40.6013 34.3654 40.1164 35.039 39.9377C35.0651 39.9306 35.0881 39.9152 35.1046 39.8937C35.121 39.8723 35.13 39.846 35.13 39.819V37.6562C35.13 37.4712 35.0375 37.3788 34.8526 37.3788H28.2777C28.2189 37.3788 28.1624 37.4022 28.1208 37.4438C28.0792 37.4854 28.0558 37.5419 28.0558 37.6007V39.8412C28.0558 39.8592 28.061 39.877 28.0708 39.8921C28.0807 39.9073 28.0947 39.9193 28.1113 39.9266L28.6617 40.1607C28.6802 40.1693 28.6949 40.1847 28.7027 40.204Z" stroke="#948638" stroke-width="0.221935"/>
<path d="M52.2137 44.9266C53.1481 44.6425 53.7706 43.8191 53.7795 42.8304C53.8076 39.767 53.8087 36.7039 53.7828 33.6412C53.7717 32.2907 52.3091 30.604 50.9276 30.6062C46.8107 30.6106 42.7016 30.6114 38.6002 30.6084C38.5849 30.6084 38.5702 30.6145 38.5594 30.6253C38.5486 30.6361 38.5425 30.6508 38.5425 30.6661V44.8656C38.5425 44.9758 38.5976 45.0309 38.7078 45.0309C42.8565 45.0376 46.9464 45.0379 50.9775 45.032C51.5738 45.0305 51.9859 44.9954 52.2137 44.9266Z" stroke="#948638" stroke-width="0.221935"/>
<path d="M62.4146 39.3207C62.4204 39.3231 62.4251 39.3276 62.4279 39.3332C62.4307 39.3388 62.4315 39.3452 62.43 39.3513C62.4285 39.3574 62.425 39.3628 62.4199 39.3665C62.4149 39.3703 62.4087 39.3721 62.4024 39.3717L57.855 39.3872C57.8433 39.3872 57.8318 39.3895 57.821 39.394C57.8102 39.3985 57.8004 39.405 57.7922 39.4132C57.7839 39.4215 57.7774 39.4313 57.7729 39.442C57.7685 39.4528 57.7662 39.4644 57.7662 39.476L57.7673 44.8147C57.768 44.9604 57.8413 45.0333 57.987 45.0333C61.4056 45.0318 64.6765 45.0336 67.7999 45.0388C68.5589 45.0396 69.1344 44.9893 69.5265 44.8879C71.4773 44.383 73.2129 42.5676 73.0342 40.4792C72.7058 36.6463 68.3281 35.8895 65.3941 35.1849C64.6284 35.0007 63.6386 34.5213 63.9016 33.527C64.0858 32.8313 65.0079 32.8157 65.5894 32.8568C66.7501 32.9382 67.4858 33.5034 67.7966 34.5524C67.8842 34.8464 67.9164 35.2526 67.9808 35.5777C67.9948 35.6517 68.0396 35.6887 68.115 35.6887L72.1898 35.6931C72.3954 35.6939 72.4983 35.591 72.4983 35.3846L72.496 30.7806C72.496 30.6674 72.4394 30.6108 72.3263 30.6108C68.2611 30.6086 64.1601 30.609 60.0233 30.6119C59.7007 30.6119 59.4277 30.6559 59.2043 30.744C57.3245 31.4808 56.7364 33.7201 57.6486 35.449C57.9178 35.9602 58.1623 36.3523 58.382 36.6253C58.4131 36.6637 58.4749 36.6896 58.5674 36.7029C58.6036 36.7081 58.6339 36.7244 58.6584 36.7518C59.717 37.9413 61.0297 38.5983 62.4146 39.3207Z" stroke="#948638" stroke-width="0.221935"/>
<path d="M43.8677 33.6202V42.2779C43.8677 42.3341 43.89 42.388 43.9298 42.4277C43.9695 42.4675 44.0234 42.4898 44.0796 42.4898H47.6206C47.9143 42.4898 48.196 42.391 48.4037 42.2152C48.6114 42.0393 48.7281 41.8008 48.7281 41.5521V34.3459C48.7281 34.0972 48.6114 33.8587 48.4037 33.6828C48.196 33.507 47.9143 33.4082 47.6206 33.4082H44.0796C44.0234 33.4082 43.9695 33.4305 43.9298 33.4703C43.89 33.51 43.8677 33.5639 43.8677 33.6202Z" stroke="#948638" stroke-width="0.221935"/>
<path d="M62.5418 39.5939C62.4463 40.9706 63.0008 41.8787 64.2052 42.3181C65.0507 42.6266 66.9261 42.5911 67.0127 41.3017C67.0482 40.7834 66.7053 40.5238 66.247 40.4106C65.4288 40.2094 64.777 40.0533 64.2917 39.9423C63.7635 39.8213 63.2486 39.6161 62.7371 39.4596C62.7152 39.453 62.6921 39.4514 62.6695 39.4549C62.6469 39.4585 62.6255 39.467 62.6067 39.4799C62.5879 39.4928 62.5723 39.5097 62.5611 39.5295C62.5499 39.5492 62.5432 39.5712 62.5418 39.5939Z" stroke="#948638" stroke-width="0.221935"/>
<path d="M15.0556 64.2118L14.8115 64.962C14.8018 64.992 14.7853 65.0193 14.7634 65.0418C14.7414 65.0643 14.7146 65.0814 14.685 65.0918C14.0369 65.3182 13.4665 65.2224 12.9738 64.8044C11.7987 63.8068 13.0604 60.6298 14.7737 61.2601C15.3907 61.4872 15.6526 61.9411 15.5594 62.6217C15.558 62.6315 15.5587 62.6416 15.5615 62.6512C15.5643 62.6608 15.5691 62.6697 15.5756 62.6773C15.5821 62.6848 15.5902 62.6909 15.5993 62.6951C15.6083 62.6993 15.6182 62.7015 15.6282 62.7016L16.011 62.7093C16.0463 62.7103 16.0805 62.6976 16.1067 62.6738C16.1329 62.6501 16.1491 62.6171 16.152 62.5817C16.2245 61.6096 15.8183 60.9767 14.9335 60.683C12.9949 60.0394 11.8497 62.3232 11.9163 63.91C11.9885 65.5889 13.7318 66.2614 15.1155 65.5701C15.1747 65.5397 15.2246 65.4743 15.2653 65.3737C15.4991 64.7966 15.6711 64.2614 15.7813 63.768C15.7856 63.7489 15.7827 63.7289 15.773 63.7118C15.7634 63.6948 15.7478 63.682 15.7292 63.6758L14.1756 63.1776C14.1646 63.174 14.153 63.1728 14.1415 63.1739C14.13 63.1751 14.1188 63.1786 14.1088 63.1842C14.0988 63.1899 14.0901 63.1975 14.0832 63.2067C14.0764 63.2159 14.0716 63.2264 14.0691 63.2375L13.9659 63.6825C13.9548 63.7291 13.9718 63.7602 14.0169 63.7757L15.0079 64.1153C15.0552 64.1316 15.0711 64.1637 15.0556 64.2118Z" stroke="#948BB6" stroke-width="0.221935"/>
<path d="M87.1628 65.0762L85.7424 60.9548C85.736 60.9361 85.7226 60.9206 85.705 60.9117C85.6873 60.9028 85.6669 60.9011 85.648 60.9071L85.2807 61.0236C85.2594 61.0303 85.2414 61.0447 85.2301 61.064C85.2188 61.0833 85.2151 61.1061 85.2197 61.1279C85.2648 61.3403 85.3481 61.6199 85.4694 61.9668C85.863 63.0995 86.3028 64.3715 86.7888 65.783C86.8243 65.8866 86.8942 65.921 86.9985 65.8862L89.2767 65.1172C89.3122 65.1054 89.3259 65.0813 89.3177 65.0451L89.2445 64.7033C89.2127 64.5561 89.125 64.5065 88.9815 64.5546L87.2615 65.125C87.2419 65.1314 87.2206 65.1298 87.2022 65.1207C87.1837 65.1116 87.1696 65.0956 87.1628 65.0762Z" stroke="#948BB6" stroke-width="0.221935"/>
<path d="M82.8081 63.9013L82.4608 62.5652C82.456 62.5467 82.4587 62.527 82.4682 62.5104C82.4777 62.4938 82.4934 62.4816 82.5118 62.4765C83.222 62.2804 83.9278 62.0829 84.6291 61.8839C84.8721 61.814 84.7212 61.44 84.6502 61.2969C84.6422 61.2815 84.6292 61.2693 84.6133 61.2623C84.5974 61.2552 84.5795 61.2537 84.5625 61.258L81.7939 62.0193C81.7117 62.0422 81.6825 62.0944 81.7062 62.1757L83.0356 66.8053C83.0792 66.9555 83.1761 67.0095 83.3263 66.9673L86.0262 66.1994C86.0614 66.1893 86.0912 66.1657 86.109 66.1339C86.1269 66.1021 86.1314 66.0646 86.1216 66.0296L86.0084 65.6268C85.9966 65.5824 85.9685 65.5665 85.9241 65.5791L83.5605 66.2349C83.5198 66.246 83.4935 66.2312 83.4817 66.1905L83.06 64.7025C83.0563 64.6896 83.0551 64.6762 83.0566 64.6629C83.0582 64.6497 83.0623 64.6368 83.0688 64.6252C83.0753 64.6135 83.084 64.6033 83.0945 64.595C83.105 64.5867 83.117 64.5807 83.1299 64.5771L85.1773 63.9823C85.2342 63.9653 85.2542 63.9286 85.2372 63.8724L85.1062 63.4408C85.1005 63.4229 85.0882 63.4079 85.0718 63.3989C85.0554 63.39 85.0364 63.3879 85.0186 63.393L82.918 63.9645C82.9067 63.9677 82.8949 63.9685 82.8832 63.9671C82.8716 63.9656 82.8604 63.9618 82.8501 63.9559C82.8399 63.95 82.831 63.9422 82.8237 63.9328C82.8165 63.9234 82.8112 63.9127 82.8081 63.9013Z" stroke="#948BB6" stroke-width="0.221935"/>
<path d="M16.6202 66.5954C17.6033 67.4143 18.9227 67.158 19.3433 65.8963C19.6429 64.9996 19.9614 63.8334 20.2987 62.3974C20.3113 62.3464 20.2917 62.3157 20.2399 62.3053L19.8737 62.2332C19.8564 62.2297 19.8383 62.232 19.8223 62.2396C19.8063 62.2472 19.7932 62.2597 19.785 62.2754C19.7258 62.3856 19.681 62.5018 19.6507 62.6238C19.4036 63.6225 19.1251 64.6113 18.8151 65.59C18.6897 65.9873 18.4733 66.3446 18.025 66.4067C17.5467 66.4733 16.8021 66.1881 16.7633 65.5922C16.7448 65.3074 16.7837 64.9837 16.8798 64.6212C17.1388 63.6447 17.3973 62.6656 17.6555 61.6839C17.6581 61.6743 17.6587 61.6643 17.6571 61.6545C17.6555 61.6447 17.6519 61.6353 17.6465 61.6271C17.641 61.6188 17.6338 61.6117 17.6254 61.6064C17.617 61.6011 17.6076 61.5976 17.5978 61.5963L17.1606 61.5341C17.1088 61.5267 17.0759 61.5485 17.0618 61.5996C16.8088 62.5502 16.5617 63.5016 16.3205 64.4537C16.1319 65.2016 15.9677 66.0527 16.6202 66.5954Z" stroke="#948BB6" stroke-width="0.221935"/>
<path d="M79.3747 65.4867L81.5019 64.9796C81.5128 64.977 81.523 64.9721 81.532 64.9653C81.5409 64.9585 81.5484 64.95 81.5539 64.9402C81.5594 64.9304 81.5629 64.9196 81.564 64.9085C81.5652 64.8973 81.5641 64.886 81.5607 64.8753L81.4265 64.4481C81.408 64.3919 81.3699 64.37 81.3122 64.3826L79.2659 64.8431C79.1927 64.8594 79.1475 64.8309 79.1305 64.7577L78.842 63.486C78.8348 63.4552 78.8404 63.4227 78.8574 63.3956C78.8745 63.3686 78.9016 63.3492 78.933 63.3417L81.1746 62.8169C81.1834 62.8147 81.1916 62.8108 81.1989 62.8053C81.2061 62.7998 81.2121 62.7929 81.2166 62.785C81.2211 62.7771 81.2239 62.7684 81.2249 62.7593C81.2258 62.7503 81.225 62.7412 81.2223 62.7325L81.0825 62.2642C81.0699 62.2213 81.0414 62.2047 80.997 62.2143L78.2628 62.8368C78.1451 62.8642 78.1 62.9363 78.1274 63.0532C78.4514 64.4337 78.7751 65.8259 79.0983 67.2301C79.1546 67.4742 79.2163 67.6795 79.2837 67.8459C79.2992 67.8837 79.3262 67.8977 79.3647 67.8881L82.2665 67.2267C82.319 67.2149 82.3397 67.1823 82.3286 67.1291L82.2376 66.6963C82.2347 66.6829 82.2292 66.6702 82.2214 66.6589C82.2136 66.6476 82.2036 66.638 82.1921 66.6306C82.1805 66.6231 82.1676 66.6181 82.1541 66.6156C82.1406 66.6132 82.1268 66.6135 82.1133 66.6164L79.7464 67.1357C79.7042 67.1446 79.6783 67.128 79.6687 67.0858L79.3192 65.5755C79.3148 65.5564 79.3183 65.5363 79.3286 65.5197C79.339 65.5031 79.3556 65.4912 79.3747 65.4867Z" stroke="#948BB6" stroke-width="0.221935"/>
<path d="M22.8803 66.8718C22.8786 66.8797 22.8742 66.8869 22.8679 66.8921C22.8617 66.8974 22.8538 66.9003 22.8457 66.9006C22.8375 66.9008 22.8295 66.8984 22.8229 66.8935C22.8163 66.8887 22.8115 66.8818 22.8093 66.874L21.6264 62.6894C21.6192 62.6646 21.605 62.6424 21.5855 62.6255C21.566 62.6086 21.5421 62.5976 21.5165 62.5939L21.0982 62.5318C21.0784 62.529 21.0583 62.5336 21.0419 62.5447C21.0255 62.5558 21.0139 62.5726 21.0094 62.5917L19.8975 67.4166C19.8911 67.4442 19.8951 67.4732 19.9086 67.4981C19.922 67.523 19.9441 67.5422 19.9707 67.552C20.2182 67.6452 20.3835 67.7051 20.4656 67.3833C20.7508 66.2614 20.9339 65.0463 21.2979 63.9555C21.301 63.9455 21.3073 63.9368 21.3159 63.9307C21.3244 63.9246 21.3347 63.9215 21.3452 63.9219C21.3557 63.9223 21.3658 63.9261 21.3739 63.9328C21.382 63.9395 21.3876 63.9486 21.39 63.9589C21.7288 65.2734 22.0943 66.5888 22.4864 67.9049C22.5774 68.2111 22.7926 68.2822 23.0834 68.25C23.1233 68.2455 23.1477 68.2237 23.1566 68.1845L24.2741 63.3208C24.2888 63.2535 24.2622 63.2187 24.1942 63.2165L23.7947 63.2021C23.7495 63.2006 23.7218 63.2217 23.7114 63.2653L22.8803 66.8718Z" stroke="#948BB6" stroke-width="0.221935"/>
<path d="M76.5105 63.8692L77.6857 63.5817C77.753 63.5647 77.7778 63.5226 77.76 63.4552L77.6468 63.0269C77.6357 62.9862 77.6098 62.9703 77.5691 62.9792L74.4443 63.6328C74.4309 63.6355 74.4182 63.6409 74.407 63.6487C74.3958 63.6565 74.3862 63.6664 74.3788 63.678C74.3715 63.6896 74.3665 63.7026 74.3642 63.7161C74.3619 63.7297 74.3624 63.7436 74.3655 63.7571L74.4754 64.2054C74.4804 64.2255 74.493 64.2429 74.5106 64.2539C74.5282 64.2649 74.5494 64.2686 74.5697 64.2642L75.7193 64.0112C75.7331 64.0081 75.7473 64.0078 75.7613 64.0102C75.7752 64.0127 75.7884 64.0179 75.8003 64.0255C75.8122 64.0332 75.8224 64.0431 75.8304 64.0547C75.8384 64.0664 75.844 64.0795 75.8469 64.0933L76.7569 68.3223C76.7614 68.3418 76.7723 68.3592 76.7878 68.3717C76.8033 68.3842 76.8225 68.391 76.8423 68.3911C77.0088 68.3926 77.1582 68.3482 77.2906 68.2579C77.3232 68.2357 77.3354 68.2054 77.3272 68.1669L76.4284 63.999C76.4224 63.9711 76.4277 63.9419 76.443 63.9177C76.4583 63.8935 76.4825 63.8761 76.5105 63.8692Z" stroke="#948BB6" stroke-width="0.221935"/>
<path d="M23.6201 68.3877L24.0795 68.4809C24.1224 68.4898 24.1539 68.4747 24.1739 68.4354L24.8441 67.1504C24.8567 67.1263 24.8767 67.1068 24.9012 67.0949C24.9258 67.0829 24.9536 67.079 24.9806 67.0839L26.5208 67.3613C26.5465 67.3661 26.5699 67.3789 26.5877 67.3979C26.6055 67.4169 26.6167 67.441 26.6196 67.4667L26.7827 68.957C26.7864 68.9947 26.8071 69.0162 26.8448 69.0214L27.3109 69.0868C27.3908 69.0987 27.4256 69.0646 27.4152 68.9847C27.2081 67.335 27.0024 65.6783 26.7982 64.0145C26.755 63.6616 26.4176 63.635 26.1446 63.6505C26.1263 63.6516 26.1086 63.6573 26.093 63.6672C26.0775 63.6771 26.0647 63.6908 26.0559 63.7071L23.5824 68.3067C23.5587 68.3511 23.5713 68.3781 23.6201 68.3877Z" stroke="#948BB6" stroke-width="0.221935"/>
<path d="M71.6629 64.1952C70.6741 64.9132 70.9971 66.5322 72.2499 66.6998C72.7415 66.7652 73.8844 66.7741 74.1053 67.2912C74.6268 68.5119 72.5273 69.1244 71.9525 67.7795C71.9376 67.7447 71.9158 67.7133 71.8882 67.6873C71.8607 67.6613 71.8281 67.6413 71.7925 67.6285C71.7569 67.6157 71.719 67.6103 71.6812 67.6128C71.6434 67.6153 71.6066 67.6256 71.573 67.643C71.4287 67.7184 71.3821 67.8353 71.4332 67.9936C72.0868 69.9966 75.1439 69.2764 74.7111 67.3212C74.285 65.4025 71.9791 66.6365 71.6684 65.5002C71.5656 65.1259 71.6924 64.8507 72.049 64.6746C72.7814 64.3143 73.2989 64.4963 73.6015 65.2206C73.6177 65.259 73.6466 65.2753 73.688 65.2694L74.0065 65.225C74.0277 65.222 74.0476 65.2127 74.0634 65.1982C74.0792 65.1837 74.0903 65.1649 74.0953 65.144C74.1212 65.0293 74.1097 64.9172 74.0609 64.8078C73.6447 63.8734 72.4685 63.6104 71.6629 64.1952Z" stroke="#948BB6" stroke-width="0.221935"/>
<path d="M28.8069 68.1357L28.6649 64.1552C28.664 64.1337 28.6551 64.1133 28.6399 64.0981C28.6247 64.0829 28.6043 64.0739 28.5827 64.0731L28.1866 64.0543C28.173 64.0538 28.1595 64.0561 28.1468 64.0611C28.1342 64.0661 28.1228 64.0736 28.1133 64.0832C28.1038 64.0929 28.0964 64.1043 28.0916 64.1169C28.0869 64.1295 28.0848 64.1429 28.0856 64.1563L28.3641 69.0323C28.3688 69.1147 28.4015 69.193 28.4567 69.2543C28.5119 69.3157 28.5864 69.3564 28.6679 69.3697C28.7493 69.383 28.8329 69.3682 28.9048 69.3276C28.9766 69.287 29.0325 69.2232 29.0632 69.1466L30.5558 65.4325C30.5613 65.4196 30.571 65.409 30.5833 65.4023C30.5955 65.3955 30.6097 65.393 30.6235 65.3952C30.6374 65.3973 30.6501 65.404 30.6597 65.4142C30.6693 65.4243 30.6753 65.4374 30.6767 65.4513L30.9419 69.4517C30.9473 69.5283 30.9785 69.6008 31.0304 69.6574C31.0823 69.714 31.1519 69.7513 31.2277 69.7632C31.3035 69.7752 31.3812 69.7611 31.448 69.7233C31.5148 69.6855 31.5668 69.6261 31.5955 69.5549L33.4132 65.0108C33.4202 64.993 33.4232 64.9739 33.422 64.9548C33.4208 64.9357 33.4154 64.9172 33.4062 64.9004C33.397 64.8837 33.3841 64.8692 33.3687 64.8579C33.3532 64.8467 33.3354 64.839 33.3166 64.8355L32.9615 64.77C32.9127 64.7611 32.8794 64.7804 32.8617 64.8277L31.5212 68.4453C31.4465 68.6465 31.4024 68.6398 31.3891 68.4253L31.1472 64.6357C31.1458 64.6147 31.1391 64.5944 31.1276 64.5767C31.1162 64.559 31.1004 64.5446 31.0817 64.5347C30.8961 64.4378 30.6963 64.3968 30.4825 64.4116C30.4403 64.4145 30.4111 64.436 30.3949 64.4759L28.9179 68.1545C28.8498 68.3232 28.8128 68.3169 28.8069 68.1357Z" stroke="#948BB6" stroke-width="0.221935"/>
<path d="M68.6557 68.2999C68.6903 68.2948 68.7257 68.3007 68.7568 68.3168C68.7878 68.333 68.813 68.3585 68.8288 68.3898L69.4824 69.6604C69.4986 69.6937 69.5253 69.7088 69.5623 69.7059L70.0516 69.6715C70.1042 69.6678 70.123 69.6408 70.1082 69.5905C70.0772 69.4817 70.0346 69.3763 69.9806 69.2742C69.2164 67.8213 68.4578 66.3632 67.7047 64.8999C67.6956 64.8828 67.6822 64.8685 67.6658 64.8586C67.6493 64.8486 67.6306 64.8433 67.6114 64.8433H67.1365C67.1095 64.8432 67.0834 64.8529 67.063 64.8704C67.0426 64.8879 67.0293 64.9122 67.0255 64.9387L66.2499 70.1164C66.2358 70.2082 66.2747 70.2459 66.3664 70.2296L66.7759 70.1553C66.8232 70.1464 66.8498 70.1183 66.8558 70.071L67.0433 68.6594C67.0481 68.6241 67.0643 68.5914 67.0893 68.566C67.1142 68.5406 67.1468 68.5239 67.182 68.5185L68.6557 68.2999Z" stroke="#948BB6" stroke-width="0.221935"/>
<path d="M35.3798 68.7481C35.4078 68.7548 35.4332 68.7694 35.4529 68.7901C35.4726 68.8108 35.4858 68.8367 35.4907 68.8647L35.7459 70.2839C35.7498 70.3046 35.7604 70.3234 35.776 70.3375C35.7917 70.3515 35.8115 70.36 35.8325 70.3616L36.2808 70.3971C36.2949 70.3982 36.309 70.3961 36.3221 70.3908C36.3353 70.3855 36.347 70.3772 36.3564 70.3666C36.3659 70.356 36.3728 70.3433 36.3766 70.3295C36.3804 70.3158 36.381 70.3013 36.3785 70.2873L35.4197 65.1384C35.4138 65.1088 35.396 65.0914 35.3664 65.0862L34.8682 64.9997C34.8275 64.9923 34.7983 65.007 34.7805 65.044C34.0592 66.4992 33.3583 67.9643 32.6777 69.4395C32.6045 69.5978 32.5564 69.7287 32.5334 69.8323C32.5311 69.8428 32.5312 69.8537 32.5336 69.8641C32.536 69.8746 32.5408 69.8844 32.5475 69.8928C32.5542 69.9012 32.5627 69.908 32.5723 69.9127C32.582 69.9174 32.5926 69.9199 32.6033 69.92H33.0361C33.0555 69.92 33.0744 69.9143 33.0906 69.9037C33.1068 69.893 33.1195 69.8778 33.1271 69.86L33.6575 68.6583C33.671 68.6279 33.6931 68.6022 33.7211 68.5843C33.7491 68.5663 33.7818 68.557 33.8151 68.5573C34.3433 68.5625 34.8649 68.6261 35.3798 68.7481Z" stroke="#948BB6" stroke-width="0.221935"/>
<path d="M64.4044 67.4635C64.4002 67.4739 64.3932 67.4831 64.3842 67.4899C64.3753 67.4968 64.3646 67.5011 64.3534 67.5025C64.3422 67.5038 64.3308 67.5022 64.3205 67.4976C64.3101 67.4931 64.3012 67.4859 64.2946 67.4768L62.862 65.4327C62.8553 65.4231 62.846 65.4154 62.8352 65.4107C62.8244 65.406 62.8126 65.4044 62.8009 65.4061L62.2428 65.4916C62.2321 65.4933 62.222 65.4977 62.2135 65.5044C62.205 65.5111 62.1983 65.5199 62.1942 65.53C62.1901 65.54 62.1886 65.5509 62.1899 65.5617C62.1912 65.5724 62.1953 65.5827 62.2017 65.5914L64.0848 68.1936C64.0909 68.2022 64.0947 68.2121 64.0959 68.2225L64.37 70.3087C64.3719 70.3241 64.3794 70.3382 64.3911 70.3484C64.4027 70.3587 64.4178 70.3643 64.4333 70.3641H64.8782C64.8872 70.3642 64.8962 70.3624 64.9044 70.3587C64.9126 70.3551 64.92 70.3497 64.926 70.343C64.9319 70.3362 64.9364 70.3283 64.9391 70.3197C64.9418 70.3111 64.9426 70.3021 64.9415 70.2931L64.694 68.1592C64.6927 68.1483 64.6942 68.1372 64.6985 68.127L65.9413 65.1209C65.9456 65.1108 65.9472 65.0998 65.9459 65.0889C65.9446 65.078 65.9406 65.0676 65.9341 65.0588C65.9276 65.0499 65.9189 65.0429 65.9089 65.0385C65.8989 65.034 65.8879 65.0322 65.877 65.0333L65.3576 65.0876C65.3458 65.0888 65.3345 65.0932 65.3251 65.1005C65.3157 65.1078 65.3085 65.1175 65.3044 65.1287L64.4044 67.4635Z" stroke="#948BB6" stroke-width="0.221935"/>
<path d="M37.8807 66.6597C38.4259 67.8781 38.9489 69.1147 39.4497 70.3693C39.5674 70.6638 39.7893 70.7651 40.1155 70.6734C40.1533 70.663 40.174 70.6386 40.1777 70.6002L40.707 65.6088C40.7122 65.5637 40.6922 65.5411 40.6471 65.5411L40.2054 65.5356C40.1879 65.5355 40.1709 65.5419 40.1578 65.5536C40.1447 65.5652 40.1363 65.5814 40.1344 65.5988L39.7438 69.3307C39.7428 69.34 39.7386 69.3487 39.7321 69.3554C39.7255 69.3622 39.7169 69.3665 39.7076 69.3678C39.6983 69.369 39.6889 69.3672 39.6807 69.3625C39.6726 69.3578 39.6663 69.3505 39.6628 69.3418L38.0149 65.3913C37.9849 65.3193 37.9317 65.2594 37.8637 65.2211C37.7958 65.1827 37.717 65.1681 37.6398 65.1796C37.5627 65.191 37.4915 65.2279 37.4377 65.2844C37.3838 65.3408 37.3503 65.4136 37.3425 65.4912L36.8442 70.3028C36.8376 70.3649 36.8657 70.3949 36.9286 70.3926L37.3325 70.376C37.3526 70.375 37.3717 70.3669 37.3864 70.3531C37.4011 70.3392 37.4103 70.3206 37.4124 70.3005L37.7897 66.6752C37.7906 66.6647 37.795 66.6548 37.8021 66.6471C37.8093 66.6393 37.8188 66.6341 37.8292 66.6324C37.8396 66.6306 37.8503 66.6323 37.8596 66.6372C37.8689 66.6422 37.8763 66.6501 37.8807 66.6597Z" stroke="#948BB6" stroke-width="0.221935"/>
<path d="M60.252 69.372C60.2562 69.3526 60.2666 69.3352 60.2816 69.3222C60.2966 69.3092 60.3154 69.3014 60.3352 69.2999L61.9154 69.1923C61.9344 69.1909 61.9534 69.1956 61.9697 69.2055C61.986 69.2154 61.9988 69.2302 62.0064 69.2477L62.5989 70.636C62.6071 70.6551 62.6216 70.6709 62.6399 70.6808C62.6583 70.6906 62.6794 70.694 62.6999 70.6903L63.1493 70.6138C63.1631 70.6114 63.1761 70.6059 63.1875 70.5978C63.1988 70.5896 63.2082 70.579 63.2148 70.5667C63.2214 70.5544 63.2252 70.5408 63.2258 70.5268C63.2263 70.5128 63.2237 70.4989 63.2181 70.4861L61.1342 65.7034C61.127 65.687 61.1153 65.673 61.1003 65.6631C61.0853 65.6533 61.0678 65.648 61.0498 65.6479H60.5594C60.5384 65.648 60.5181 65.6551 60.5017 65.6682C60.4854 65.6813 60.474 65.6996 60.4695 65.7201L59.342 70.8068C59.339 70.8203 59.3391 70.8343 59.3422 70.8477C59.3454 70.8611 59.3515 70.8737 59.3601 70.8844C59.3687 70.8952 59.3797 70.9039 59.3921 70.9098C59.4045 70.9158 59.4181 70.9189 59.4319 70.9189H59.8392C59.8601 70.9189 59.8804 70.9118 59.8968 70.8986C59.9131 70.8855 59.9245 70.8672 59.9291 70.8468L60.252 69.372Z" stroke="#948BB6" stroke-width="0.221935"/>
<path d="M43.0751 65.8861L42.7422 70.6555C42.7385 70.7102 42.7566 70.7641 42.7926 70.8055C42.8286 70.8469 42.8795 70.8724 42.9341 70.8763L44.329 70.974C44.5778 70.9914 44.828 70.9526 45.0655 70.8596C45.303 70.7666 45.523 70.6213 45.7131 70.432C45.9031 70.2427 46.0594 70.0131 46.173 69.7563C46.2866 69.4995 46.3553 69.2206 46.3752 68.9355L46.4341 68.0944C46.454 67.8093 46.4248 67.5235 46.3481 67.2534C46.2714 66.9834 46.1486 66.7342 45.9868 66.5203C45.825 66.3064 45.6274 66.1319 45.4052 66.0067C45.183 65.8815 44.9406 65.8081 44.6919 65.7907L43.297 65.6941C43.2421 65.6902 43.1879 65.7082 43.1463 65.7442C43.1047 65.7802 43.079 65.8312 43.0751 65.8861Z" stroke="#948BB6" stroke-width="0.221935"/>
<path d="M57.7865 70.4238C57.185 70.6302 57.0119 70.0088 56.9431 69.586C56.935 69.5365 56.9061 69.5146 56.8565 69.5206L56.517 69.5616C56.5 69.5637 56.4843 69.5718 56.4727 69.5844C56.4611 69.597 56.4544 69.6133 56.4537 69.6304C56.3605 71.6345 58.8462 71.5102 58.773 69.7503C58.7485 69.1688 58.6612 67.8634 58.5111 65.8342C58.5081 65.7898 58.4841 65.7698 58.4389 65.7743L58.0128 65.8187C57.9904 65.8209 57.9698 65.8318 57.9553 65.849C57.9408 65.8662 57.9336 65.8883 57.9352 65.9108C58.0158 67.1314 58.1005 68.3473 58.1893 69.5583C58.2137 69.8912 58.1416 70.3029 57.7865 70.4238Z" stroke="#948BB6" stroke-width="0.221935"/>
<path d="M47.8709 65.9958C47.8713 65.9843 47.8694 65.9729 47.8654 65.9621C47.8613 65.9513 47.8552 65.9414 47.8474 65.933C47.8395 65.9246 47.8301 65.9178 47.8196 65.913C47.8091 65.9082 47.7978 65.9056 47.7863 65.9052L47.3715 65.8907C47.3483 65.8899 47.3257 65.8983 47.3087 65.9142C47.2917 65.93 47.2817 65.952 47.2809 65.9752L47.107 70.9546C47.1066 70.9662 47.1085 70.9776 47.1125 70.9884C47.1165 70.9992 47.1226 71.0091 47.1305 71.0175C47.1383 71.0259 47.1478 71.0327 47.1582 71.0375C47.1687 71.0423 47.18 71.0449 47.1915 71.0453L47.6063 71.0598C47.6295 71.0606 47.6521 71.0522 47.6692 71.0363C47.6862 71.0204 47.6962 70.9985 47.697 70.9753L47.8709 65.9958Z" stroke="#948BB6" stroke-width="0.221935"/>
<path d="M55.2898 69.6758C55.2901 69.6876 55.2864 69.699 55.2795 69.7085C55.2726 69.7179 55.2627 69.7248 55.2515 69.7281C55.2402 69.7314 55.2282 69.7309 55.2173 69.7267C55.2064 69.7224 55.1971 69.7147 55.191 69.7047L53.005 66.0317C52.9857 65.9984 52.9569 65.9817 52.9184 65.9817L52.4734 65.9795C52.4379 65.9795 52.4169 65.9973 52.4102 66.0328C52.385 66.1718 52.3751 66.3117 52.3802 66.4522C52.4431 67.9939 52.496 69.5364 52.5389 71.0796C52.5397 71.1247 52.5626 71.1465 52.6077 71.145L53.0483 71.1306C53.0926 71.1291 53.1141 71.1062 53.1126 71.0618L53.0039 67.4831C53.0035 67.4701 53.0072 67.4572 53.0144 67.4464C53.0216 67.4355 53.032 67.4271 53.0441 67.4224C53.0563 67.4177 53.0696 67.4168 53.0822 67.4199C53.0949 67.423 53.1063 67.43 53.1148 67.4398C53.1799 67.5131 53.2417 67.5996 53.3002 67.6995C53.9489 68.8047 54.6059 69.907 55.2709 71.0063C55.2803 71.0222 55.2937 71.0352 55.3097 71.0442C55.3257 71.0532 55.3437 71.0577 55.3619 71.0574L55.8446 71.0463C55.8868 71.0455 55.9072 71.0241 55.9057 70.9819L55.7237 65.9795C55.7215 65.9196 55.6904 65.8907 55.6305 65.8929L55.2499 65.9074C55.2261 65.9085 55.2038 65.9189 55.1876 65.9363C55.1714 65.9538 55.1627 65.9768 55.1633 66.0006L55.2898 69.6758Z" stroke="#948BB6" stroke-width="0.221935"/>
<path d="M48.211 70.9808C48.2071 70.992 48.2057 71.0038 48.207 71.0156C48.2082 71.0273 48.2121 71.0387 48.2182 71.0487C48.2244 71.0588 48.2327 71.0674 48.2426 71.0739C48.2525 71.0804 48.2637 71.0846 48.2754 71.0862L48.7103 71.1439C48.7289 71.1464 48.7476 71.1423 48.7635 71.1324C48.7793 71.1225 48.7911 71.1073 48.7969 71.0896L49.2707 69.6392C49.2759 69.623 49.2862 69.6089 49.2999 69.5989C49.3137 69.5889 49.3303 69.5836 49.3473 69.5837L50.943 69.5937C50.9598 69.5938 50.9762 69.5993 50.9897 69.6092C51.0033 69.6192 51.0133 69.6332 51.0185 69.6492L51.4812 71.1073C51.4864 71.1235 51.4966 71.1376 51.5104 71.1476C51.5242 71.1576 51.5408 71.1629 51.5578 71.1628H52.0471C52.0597 71.1627 52.072 71.1597 52.0832 71.1539C52.0943 71.1482 52.1039 71.1399 52.1113 71.1297C52.1186 71.1196 52.1235 71.1078 52.1254 71.0955C52.1274 71.0831 52.1264 71.0704 52.1226 71.0585L50.5313 66.0372C50.5261 66.021 50.5159 66.0069 50.5021 65.9969C50.4884 65.9869 50.4718 65.9816 50.4548 65.9817L49.9388 65.9795C49.9221 65.9795 49.9058 65.9848 49.8923 65.9946C49.8788 66.0043 49.8686 66.0181 49.8633 66.0339L48.211 70.9808Z" stroke="#948BB6" stroke-width="0.221935"/>
<path d="M25.2092 66.4656C25.2052 66.4733 25.2032 66.4819 25.2031 66.4905C25.2031 66.4992 25.2051 66.5078 25.209 66.5156C25.2129 66.5234 25.2185 66.5301 25.2255 66.5353C25.2325 66.5405 25.2406 66.544 25.2491 66.5455L26.4676 66.7785C26.476 66.7801 26.4847 66.7797 26.493 66.7773C26.5013 66.775 26.5089 66.7707 26.5153 66.7649C26.5216 66.7591 26.5265 66.7519 26.5296 66.7438C26.5327 66.7358 26.5339 66.7271 26.533 66.7186L26.3233 64.5048C26.3221 64.4929 26.317 64.4818 26.309 64.473C26.3009 64.4643 26.2903 64.4583 26.2786 64.4561C26.2669 64.4538 26.2548 64.4554 26.244 64.4606C26.2333 64.4658 26.2245 64.4742 26.219 64.4848L25.2092 66.4656Z" stroke="#948BB6" stroke-width="0.221935"/>
<path d="M67.1512 67.8981C67.1504 67.9052 67.1512 67.9123 67.1537 67.9189C67.1561 67.9256 67.1601 67.9316 67.1653 67.9365C67.1704 67.9413 67.1767 67.9449 67.1835 67.9469C67.1903 67.9489 67.1975 67.9493 67.2044 67.948L68.4661 67.7394C68.473 67.7382 68.4796 67.7354 68.4852 67.7313C68.4909 67.7271 68.4955 67.7217 68.4988 67.7155C68.502 67.7093 68.5037 67.7024 68.5038 67.6954C68.504 67.6883 68.5024 67.6814 68.4994 67.6751L67.5129 65.6299C67.5087 65.6209 67.5017 65.6134 67.4929 65.6088C67.4841 65.6041 67.474 65.6025 67.4641 65.6041C67.4543 65.6058 67.4453 65.6106 67.4385 65.6179C67.4316 65.6251 67.4274 65.6344 67.4264 65.6443L67.1512 67.8981Z" stroke="#948BB6" stroke-width="0.221935"/>
<path d="M34.0034 67.9004C34.0006 67.9066 33.9993 67.9135 33.9996 67.9204C33.9998 67.9273 34.0017 67.934 34.0051 67.94C34.0084 67.9461 34.0131 67.9512 34.0188 67.9551C34.0245 67.959 34.031 67.9616 34.0378 67.9625L35.3206 68.1456C35.3275 68.1466 35.3345 68.1459 35.3411 68.1436C35.3476 68.1414 35.3536 68.1376 35.3584 68.1327C35.3633 68.1277 35.3669 68.1217 35.369 68.1151C35.3711 68.1084 35.3716 68.1014 35.3705 68.0946L35.0343 65.8552C35.0325 65.8462 35.0279 65.8379 35.0211 65.8316C35.0144 65.8252 35.0058 65.8212 34.9966 65.82C34.9875 65.8187 34.9782 65.8204 34.97 65.8248C34.9618 65.8291 34.9552 65.8359 34.9511 65.8441L34.0034 67.9004Z" stroke="#948BB6" stroke-width="0.221935"/>
<path d="M60.384 68.6869C60.3829 68.6923 60.3831 68.6978 60.3846 68.7031C60.386 68.7084 60.3887 68.7133 60.3923 68.7174C60.396 68.7215 60.4006 68.7246 60.4056 68.7267C60.4107 68.7287 60.4162 68.7295 60.4217 68.7291L61.6989 68.6214C61.7044 68.6211 61.7098 68.6195 61.7146 68.6167C61.7194 68.6139 61.7234 68.61 61.7264 68.6054C61.7294 68.6008 61.7313 68.5955 61.732 68.59C61.7326 68.5845 61.7319 68.5789 61.73 68.5737L60.9022 66.3832C60.8994 66.3762 60.8944 66.3702 60.8879 66.3662C60.8814 66.3622 60.8739 66.3603 60.8663 66.361C60.8587 66.3616 60.8515 66.3646 60.8458 66.3696C60.8401 66.3746 60.8361 66.3813 60.8345 66.3888L60.384 68.6869Z" stroke="#948BB6" stroke-width="0.221935"/>
<path d="M43.6122 66.4769L43.3437 70.1421C43.3409 70.1785 43.3527 70.2144 43.3764 70.2421C43.4001 70.2698 43.4338 70.2869 43.4702 70.2897L44.3235 70.3519C44.683 70.3784 45.04 70.2383 45.316 69.9623C45.5919 69.6864 45.7642 69.2972 45.7949 68.8804L45.8537 68.0837C45.8689 67.8773 45.8489 67.6703 45.7947 67.4746C45.7406 67.2789 45.6534 67.0983 45.5382 66.9431C45.423 66.7879 45.282 66.6612 45.1233 66.5701C44.9645 66.4791 44.7912 66.4255 44.6131 66.4125L43.7598 66.3493C43.7417 66.3479 43.7235 66.3501 43.7063 66.3558C43.6891 66.3615 43.6732 66.3705 43.6595 66.3824C43.6457 66.3943 43.6345 66.4087 43.6264 66.4249C43.6183 66.4411 43.6135 66.4588 43.6122 66.4769Z" stroke="#948BB6" stroke-width="0.221935"/>
<path d="M49.4785 68.9521C49.477 68.9572 49.4766 68.9625 49.4775 68.9678C49.4784 68.973 49.4805 68.978 49.4836 68.9823C49.4867 68.9866 49.4908 68.9901 49.4955 68.9925C49.5002 68.995 49.5054 68.9963 49.5107 68.9965L50.809 69.0142C50.8143 69.0142 50.8195 69.013 50.8243 69.0107C50.829 69.0084 50.8331 69.005 50.8364 69.0008C50.8396 68.9966 50.8418 68.9917 50.8428 68.9866C50.8439 68.9814 50.8437 68.976 50.8423 68.9709L50.2242 66.7383C50.2221 66.7313 50.2179 66.7252 50.212 66.7208C50.2062 66.7164 50.1992 66.714 50.1919 66.7139C50.1846 66.7137 50.1775 66.7159 50.1715 66.7201C50.1656 66.7243 50.1611 66.7303 50.1588 66.7372L49.4785 68.9521Z" stroke="#948BB6" stroke-width="0.221935"/>
<path d="M13.6315 25.7825H80.4085C81.8415 27.1533 83.2904 28.5049 84.7551 29.8372C84.8883 29.9593 84.9549 30.0688 84.9549 30.1657C84.9541 37.0442 84.9545 43.9224 84.956 50.8001C84.956 51.0687 85.0159 51.527 84.9582 51.8998C84.9535 51.93 84.9549 51.9609 84.9624 51.9905C84.9698 52.0202 84.9831 52.0481 85.0015 52.0726C85.0199 52.0971 85.043 52.1177 85.0695 52.1332C85.096 52.1487 85.1253 52.1587 85.1557 52.1628C86.8646 52.3877 88.4089 53.0147 89.7886 54.0437C90.4123 54.5087 90.7574 55.1135 90.926 55.868C91.4798 58.3448 92.1489 60.8039 92.7714 63.264C93.0988 64.5601 93.0944 65.8019 91.6351 66.3645C87.9787 67.7715 84.6741 68.9778 80.5439 70.002C72.3582 72.0312 64.0467 73.1513 55.6095 73.3621C55.5059 73.3643 55.3073 73.4098 55.0136 73.4986H47.2192C46.9092 73.4498 46.641 73.4239 46.4147 73.4209C33.7477 73.26 20.5392 71.2315 8.91756 66.5775C8.20663 66.2927 7.75092 66.0497 7.55044 65.8485C6.82915 65.1261 7.02889 64.043 7.26081 63.1253C7.79864 60.9955 8.33831 58.8657 8.87983 56.7358C9.03075 56.1388 9.09178 55.4441 9.48128 54.8283C10.2547 53.6032 12.1456 52.8619 13.485 52.4147C13.5205 52.4029 13.5386 52.3781 13.5394 52.3404C13.5671 50.5105 13.5205 48.5919 13.5261 46.8597C13.549 40.3888 13.5682 33.9179 13.5838 27.447C13.5852 26.8907 13.6011 26.3358 13.6315 25.7825ZM15.0718 51.7445C15.7332 51.7504 16.3905 51.7537 17.0437 51.7545C37.8531 51.7774 58.664 51.7815 79.4764 51.7667C79.5267 51.7667 79.5519 51.7415 79.5519 51.6912L79.5485 27.3382C79.5485 27.2813 79.52 27.2528 79.4631 27.2528H15.0774C15.0641 27.2528 15.0514 27.2582 15.0421 27.2677C15.0327 27.2773 15.0274 27.2903 15.0274 27.3038L15.0319 51.7045C15.0319 51.7098 15.0329 51.715 15.0349 51.7198C15.0369 51.7247 15.0399 51.7291 15.0436 51.7328C15.0473 51.7365 15.0517 51.7394 15.0565 51.7414C15.0614 51.7434 15.0666 51.7445 15.0718 51.7445ZM84.8805 57.4915H18.2067C18.1711 57.4915 18.1359 57.4845 18.103 57.4708C18.07 57.4571 18.04 57.437 18.0147 57.4116C16.6905 56.0689 15.3433 54.7177 13.9733 53.358C13.8445 53.2303 13.7358 53.0595 13.5272 53.1138C12.6416 53.3469 8.91312 54.8871 9.95067 56.333C10.4445 57.0221 12.3542 57.6924 13.1621 57.9831C20.0942 60.4865 27.4403 62.07 34.7631 62.8568C43.5584 63.8022 52.357 63.8943 61.1778 63.2385C69.8211 62.596 78.4533 60.957 86.6383 58.063C87.4417 57.78 89.954 56.8734 90.1781 56.1022C90.3967 55.3509 89.5589 54.6363 88.9897 54.2601C87.8652 53.5174 86.578 53.0472 85.128 52.8497C85.0133 52.8342 84.956 52.8841 84.956 52.9995L84.9515 57.4205C84.9515 57.4393 84.9441 57.4574 84.9307 57.4707C84.9174 57.484 84.8994 57.4915 84.8805 57.4915ZM19.2542 69.1231C26.3129 70.9508 33.4037 72.0882 40.6244 72.4966C47.3986 72.879 54.0681 72.8561 60.633 72.4278C67.0173 72.0113 73.4349 70.9826 79.8859 69.3417C83.8408 68.3364 87.7091 67.1324 91.2834 65.5977C92.3065 65.1583 92.2565 64.2827 92.028 63.2774C91.5907 61.3532 91.0796 59.4475 90.4944 57.5603C90.4888 57.5425 90.4795 57.5261 90.467 57.5122C90.4546 57.4982 90.4394 57.487 90.4223 57.4793C90.2958 57.4216 90.1556 57.4238 90.0017 57.486C86.2476 59.0051 82.2251 60.4111 78.2158 61.331C65.4678 64.255 52.2738 65.0728 39.2439 64.0231C30.2755 63.3018 21.2649 61.716 12.8325 58.5668C11.8582 58.2028 10.8828 57.8414 9.90628 57.4826C9.67769 57.399 9.52899 57.473 9.46019 57.7046C8.82176 59.8677 8.30946 61.7464 7.92329 63.3406C7.64254 64.4991 7.8212 65.2326 8.94863 65.6965C12.2451 67.0547 15.6803 68.1969 19.2542 69.1231Z" fill="#29176E"/>
<path d="M15.0717 51.7446C15.0665 51.7446 15.0613 51.7436 15.0564 51.7416C15.0516 51.7396 15.0472 51.7366 15.0435 51.7329C15.0398 51.7292 15.0368 51.7248 15.0348 51.72C15.0328 51.7151 15.0318 51.7099 15.0318 51.7047L15.0273 27.304C15.0273 27.2904 15.0326 27.2775 15.042 27.2679C15.0513 27.2583 15.064 27.2529 15.0773 27.2529H79.463C79.5199 27.2529 79.5484 27.2814 79.5484 27.3384L79.5518 51.6914C79.5518 51.7417 79.5266 51.7668 79.4763 51.7668C58.6639 51.7816 37.853 51.7775 17.0436 51.7546C16.3904 51.7539 15.7331 51.7505 15.0717 51.7446ZM76.853 40.7655L77.4977 40.7599C77.5258 40.7596 77.5526 40.7483 77.5723 40.7283C77.5921 40.7084 77.6032 40.6815 77.6032 40.6534V33.1076C77.6031 32.9563 77.5433 32.8114 77.4367 32.7048C76.4336 31.6987 75.4171 30.6848 74.3873 29.6631C74.2542 29.5315 74.1332 29.4649 74.0245 29.4634C71.4041 29.4309 66.8474 29.4334 60.3543 29.4712C59.8139 29.4745 59.268 29.4334 58.7686 29.6121C57.1629 30.1869 56.648 31.4963 56.3173 33.0699C56.3084 33.1128 56.2826 33.1342 56.2397 33.1342H55.9212C55.8723 33.1342 55.8368 33.1128 55.8146 33.0699C54.9103 31.3254 52.9983 29.4479 50.8877 29.4468C41.3459 29.4423 31.8042 29.4427 22.2624 29.4479C20.2506 29.449 17.9136 29.3769 17.3965 31.8681C17.3114 32.2801 17.2685 32.5842 17.2678 32.7802C17.2626 35.4213 17.2622 38.0619 17.2667 40.7022C17.2689 41.8075 18.009 42.8661 18.6671 43.7072C19.938 45.3348 21.388 46.8561 23.017 48.2713C23.5941 48.7729 24.4319 49.5408 25.1154 49.5452C30.6483 49.5771 36.925 49.5889 43.9455 49.5808C47.5342 49.5774 51.1196 49.5397 54.7094 49.5874C55.3841 49.5963 55.9334 48.6819 56.3684 48.1848C56.3807 48.1706 56.396 48.1594 56.4133 48.152C56.4305 48.1446 56.4491 48.1411 56.4679 48.1419C56.4866 48.1426 56.505 48.1476 56.5215 48.1563C56.5381 48.1651 56.5525 48.1775 56.5637 48.1925C56.8071 48.5188 57.0419 48.8728 57.2683 49.2545C57.346 49.3866 57.4936 49.5486 57.629 49.5586C58.8174 49.6462 60.4398 49.5586 61.4762 49.5586C65.7396 49.5571 70.0033 49.5563 74.2675 49.5563C75.7522 49.5563 77.1759 47.7109 77.6398 46.4903C78.2401 44.909 77.8007 42.8916 77.0505 41.4246C76.9758 41.2796 76.8967 41.0784 76.8131 40.821C76.8012 40.784 76.8145 40.7655 76.853 40.7655Z" fill="#FFFFFE"/>
<path d="M76.8136 40.8208C76.8972 41.0783 76.9764 41.2795 77.0511 41.4245C77.8012 42.8915 78.2407 44.9089 77.6403 46.4902C77.1765 47.7108 75.7528 49.5562 74.268 49.5562C70.0039 49.5562 65.7402 49.557 61.4768 49.5584C60.4403 49.5584 58.818 49.6461 57.6295 49.5584C57.4941 49.5484 57.3466 49.3864 57.2689 49.2544C57.0425 48.8727 56.8076 48.5187 56.5642 48.1924C56.5531 48.1773 56.5387 48.165 56.5221 48.1562C56.5055 48.1474 56.4872 48.1425 56.4684 48.1417C56.4497 48.141 56.431 48.1445 56.4138 48.1519C56.3966 48.1593 56.3813 48.1705 56.3689 48.1847C55.9339 48.6818 55.3847 49.5962 54.71 49.5873C51.1202 49.5396 47.5348 49.5773 43.9461 49.5806C36.9255 49.5888 30.6488 49.5769 25.116 49.5451C24.4324 49.5407 23.5946 48.7728 23.0176 48.2712C21.3886 46.856 19.9386 45.3346 18.6676 43.7071C18.0096 42.866 17.2695 41.8073 17.2672 40.7021C17.2628 38.0618 17.2632 35.4211 17.2683 32.7801C17.2691 32.5841 17.312 32.28 17.3971 31.868C17.9142 29.3767 20.2512 29.4489 22.263 29.4478C31.8047 29.4426 41.3465 29.4422 50.8882 29.4466C52.9988 29.4478 54.9108 31.3253 55.8152 33.0697C55.8374 33.1126 55.8729 33.1341 55.9217 33.1341H56.2402C56.2831 33.1341 56.309 33.1126 56.3179 33.0697C56.6486 31.4962 57.1635 30.1868 58.7692 29.612C59.2685 29.4333 59.8145 29.4744 60.3549 29.4711C66.848 29.4333 71.4047 29.4307 74.025 29.4633C74.1338 29.4648 74.2547 29.5313 74.3879 29.663C75.4177 30.6847 76.4341 31.6985 77.4373 32.7047C77.5438 32.8113 77.6037 32.9561 77.6037 33.1075V40.6533C77.6037 40.6813 77.5927 40.7083 77.5729 40.7282C77.5532 40.7482 77.5264 40.7595 77.4983 40.7598L76.8536 40.7654C76.8151 40.7654 76.8018 40.7838 76.8136 40.8208ZM28.7036 40.2039C29.0365 41.035 29.0831 42.2812 27.929 42.4476C26.9469 42.5886 25.7396 42.4865 24.7365 42.4776C24.0418 42.4709 23.8121 41.9927 23.8121 41.3435C23.8106 39.0257 23.8114 36.708 23.8143 34.3903C23.8151 34.1254 23.9342 33.8513 24.1716 33.568C24.1933 33.5427 24.222 33.5249 24.2538 33.5169C25.1748 33.295 26.3555 33.4071 27.3098 33.4148C28.7702 33.4271 28.9444 33.9852 28.9144 35.3224C28.9129 35.3609 28.9314 35.3801 28.9699 35.3801L34.1621 35.3845C34.239 35.3845 34.2775 35.3457 34.2775 35.268L34.2553 30.6728C34.2553 30.6314 34.2342 30.6107 34.192 30.6107C29.6956 30.6092 25.1992 30.6088 20.7028 30.6096C20.1842 30.6096 19.8043 30.6577 19.5632 30.7538C18.5522 31.1555 18.1561 32.2164 18.155 33.234C18.1513 35.5576 18.1513 37.8813 18.155 40.205C18.1572 42.107 19.9449 44.4373 21.8091 44.9155C22.1073 44.9925 22.5534 45.0317 23.1474 45.0332C26.8005 45.0406 30.458 45.0383 34.1199 45.0265C34.1403 45.0265 34.1604 45.0225 34.1792 45.0146C34.198 45.0067 34.215 44.9952 34.2294 44.9806C34.2437 44.9661 34.255 44.9488 34.2627 44.9298C34.2704 44.9109 34.2743 44.8905 34.2741 44.87C34.266 43.676 34.2671 42.4746 34.2775 41.2658C34.283 40.6011 34.3663 40.1162 35.0398 39.9375C35.0659 39.9305 35.089 39.915 35.1054 39.8936C35.1219 39.8721 35.1308 39.8458 35.1308 39.8188V37.656C35.1308 37.4711 35.0383 37.3786 34.8534 37.3786H28.2786C28.2197 37.3786 28.1633 37.402 28.1216 37.4436C28.08 37.4852 28.0566 37.5417 28.0566 37.6006V39.841C28.0566 39.8591 28.0618 39.8768 28.0717 39.892C28.0815 39.9071 28.0956 39.9191 28.1121 39.9264L28.6625 40.1606C28.6811 40.1691 28.6957 40.1846 28.7036 40.2039ZM52.2143 44.9266C53.1487 44.6426 53.7712 43.8192 53.7801 42.8305C53.8082 39.767 53.8093 36.7039 53.7834 33.6412C53.7723 32.2907 52.3097 30.604 50.9282 30.6063C46.8113 30.6107 42.7021 30.6114 38.6008 30.6085C38.5855 30.6085 38.5708 30.6146 38.56 30.6254C38.5492 30.6362 38.5431 30.6509 38.5431 30.6662V44.8656C38.5431 44.9758 38.5982 45.031 38.7084 45.031C42.8571 45.0376 46.947 45.038 50.9781 45.0321C51.5744 45.0306 51.9865 44.9954 52.2143 44.9266ZM62.4156 39.3206C62.4213 39.323 62.426 39.3275 62.4289 39.3331C62.4317 39.3387 62.4324 39.3451 62.431 39.3512C62.4295 39.3573 62.4259 39.3627 62.4209 39.3664C62.4158 39.3702 62.4096 39.372 62.4034 39.3716L57.8559 39.3871C57.8442 39.3871 57.8327 39.3894 57.8219 39.3939C57.8112 39.3984 57.8014 39.4049 57.7931 39.4131C57.7849 39.4214 57.7783 39.4312 57.7739 39.4419C57.7694 39.4527 57.7671 39.4642 57.7671 39.4759L57.7682 44.8146C57.769 44.9603 57.8422 45.0332 57.988 45.0332C61.4065 45.0317 64.6775 45.0335 67.8008 45.0387C68.5598 45.0395 69.1354 44.9892 69.5275 44.8878C71.4783 44.3829 73.2138 42.5675 73.0352 40.4791C72.7067 36.6462 68.329 35.8894 65.3951 35.1848C64.6294 35.0006 63.6395 34.5212 63.9025 33.5269C64.0867 32.8312 65.0089 32.8156 65.5904 32.8567C66.7511 32.9381 67.4868 33.5033 67.7975 34.5523C67.8852 34.8463 67.9173 35.2525 67.9817 35.5776C67.9958 35.6516 68.0405 35.6886 68.116 35.6886L72.1907 35.693C72.3964 35.6938 72.4992 35.5909 72.4992 35.3845L72.497 30.7805C72.497 30.6673 72.4404 30.6107 72.3272 30.6107C68.2621 30.6085 64.1611 30.6088 60.0242 30.6118C59.7017 30.6118 59.4287 30.6558 59.2053 30.7439C57.3255 31.4807 56.7373 33.72 57.6495 35.4489C57.9188 35.9601 58.1633 36.3522 58.383 36.6251C58.4141 36.6636 58.4758 36.6895 58.5683 36.7028C58.6046 36.708 58.6349 36.7243 58.6593 36.7516C59.7179 37.9412 61.0307 38.5982 62.4156 39.3206Z" fill="#29176E"/>
<path d="M28.6617 40.1607L28.1113 39.9266C28.0947 39.9193 28.0807 39.9073 28.0708 39.8921C28.061 39.877 28.0558 39.8592 28.0558 39.8412V37.6007C28.0558 37.5419 28.0792 37.4854 28.1208 37.4438C28.1624 37.4022 28.2189 37.3788 28.2777 37.3788H34.8526C35.0375 37.3788 35.13 37.4712 35.13 37.6562V39.819C35.13 39.846 35.121 39.8723 35.1046 39.8937C35.0881 39.9152 35.0651 39.9306 35.039 39.9377C34.3654 40.1164 34.2822 40.6013 34.2766 41.266C34.2663 42.4748 34.2652 43.6762 34.2733 44.8702C34.2735 44.8907 34.2696 44.911 34.2619 44.93C34.2542 44.949 34.2429 44.9662 34.2285 44.9808C34.2142 44.9953 34.1971 45.0069 34.1784 45.0147C34.1596 45.0226 34.1394 45.0267 34.1191 45.0267C30.4571 45.0385 26.7996 45.0407 23.1466 45.0333C22.5525 45.0318 22.1064 44.9926 21.8083 44.9157C19.9441 44.4374 18.1564 42.1071 18.1541 40.2051C18.1504 37.8815 18.1504 35.5578 18.1541 33.2341C18.1553 32.2166 18.5514 31.1557 19.5623 30.754C19.8035 30.6578 20.1834 30.6097 20.702 30.6097C25.1984 30.609 29.6948 30.6094 34.1912 30.6109C34.2334 30.6109 34.2545 30.6316 34.2545 30.673L34.2766 35.2682C34.2766 35.3458 34.2382 35.3847 34.1612 35.3847L28.9691 35.3802C28.9306 35.3802 28.9121 35.361 28.9136 35.3225C28.9435 33.9854 28.7693 33.4272 27.309 33.415C26.3547 33.4072 25.174 33.2952 24.2529 33.5171C24.2212 33.525 24.1925 33.5429 24.1708 33.5681C23.9333 33.8515 23.8142 34.1256 23.8135 34.3904C23.8105 36.7082 23.8098 39.0259 23.8113 41.3437C23.8113 41.9928 24.041 42.4711 24.7356 42.4777C25.7388 42.4866 26.9461 42.5887 27.9282 42.4478C29.0822 42.2813 29.0356 41.0352 28.7027 40.204C28.6949 40.1847 28.6802 40.1693 28.6617 40.1607Z" fill="#FFF402"/>
<path d="M53.7795 42.8304C53.7706 43.8191 53.1481 44.6425 52.2137 44.9266C51.9859 44.9954 51.5738 45.0305 50.9775 45.032C46.9464 45.0379 42.8565 45.0376 38.7078 45.0309C38.5976 45.0309 38.5425 44.9758 38.5425 44.8656V30.6661C38.5425 30.6508 38.5486 30.6361 38.5594 30.6253C38.5702 30.6145 38.5849 30.6084 38.6002 30.6084C42.7016 30.6114 46.8107 30.6106 50.9276 30.6062C52.3091 30.604 53.7717 32.2907 53.7828 33.6412C53.8087 36.7039 53.8076 39.767 53.7795 42.8304ZM43.8678 33.6201V42.2778C43.8678 42.334 43.8902 42.3879 43.9299 42.4277C43.9696 42.4674 44.0236 42.4897 44.0798 42.4897H47.6208C47.9145 42.4897 48.1962 42.3909 48.4038 42.2151C48.6115 42.0393 48.7282 41.8007 48.7282 41.5521V34.3458C48.7282 34.0971 48.6115 33.8586 48.4038 33.6828C48.1962 33.5069 47.9145 33.4081 47.6208 33.4081H44.0798C44.0236 33.4081 43.9696 33.4305 43.9299 33.4702C43.8902 33.51 43.8678 33.5639 43.8678 33.6201Z" fill="#FFF402"/>
<path d="M62.4146 39.3207C61.0297 38.5983 59.717 37.9413 58.6584 36.7518C58.6339 36.7244 58.6036 36.7081 58.5674 36.7029C58.4749 36.6896 58.4131 36.6637 58.382 36.6253C58.1623 36.3523 57.9178 35.9602 57.6486 35.449C56.7364 33.7201 57.3245 31.4808 59.2043 30.744C59.4277 30.6559 59.7007 30.6119 60.0233 30.6119C64.1601 30.609 68.2611 30.6086 72.3263 30.6108C72.4394 30.6108 72.496 30.6674 72.496 30.7806L72.4983 35.3846C72.4983 35.591 72.3954 35.6939 72.1898 35.6931L68.115 35.6887C68.0396 35.6887 67.9948 35.6517 67.9808 35.5777C67.9164 35.2526 67.8842 34.8464 67.7966 34.5524C67.4858 33.5034 66.7501 32.9382 65.5894 32.8568C65.0079 32.8157 64.0858 32.8313 63.9016 33.527C63.6386 34.5213 64.6284 35.0007 65.3941 35.1849C68.3281 35.8895 72.7058 36.6463 73.0342 40.4792C73.2129 42.5676 71.4773 44.383 69.5265 44.8879C69.1344 44.9893 68.5589 45.0396 67.7999 45.0388C64.6765 45.0336 61.4056 45.0318 57.987 45.0333C57.8413 45.0333 57.768 44.9604 57.7673 44.8147L57.7662 39.476C57.7662 39.4644 57.7685 39.4528 57.7729 39.442C57.7774 39.4313 57.7839 39.4215 57.7922 39.4132C57.8004 39.405 57.8102 39.3985 57.821 39.394C57.8318 39.3895 57.8433 39.3872 57.855 39.3872L62.4024 39.3717C62.4087 39.3721 62.4149 39.3703 62.4199 39.3665C62.425 39.3628 62.4285 39.3574 62.43 39.3513C62.4315 39.3452 62.4307 39.3388 62.4279 39.3332C62.4251 39.3276 62.4204 39.3231 62.4146 39.3207ZM62.5422 39.5936C62.4468 40.9704 63.0013 41.8785 64.2056 42.3179C65.0512 42.6264 66.9266 42.5909 67.0131 41.3014C67.0486 40.7832 66.7057 40.5236 66.2474 40.4104C65.4292 40.2091 64.7775 40.053 64.2922 39.9421C63.764 39.8211 63.2491 39.6158 62.7375 39.4594C62.7156 39.4528 62.6926 39.4512 62.67 39.4547C62.6474 39.4582 62.6259 39.4668 62.6072 39.4797C62.5884 39.4926 62.5728 39.5095 62.5616 39.5293C62.5503 39.549 62.5437 39.571 62.5422 39.5936Z" fill="#FFF402"/>
<path d="M43.8677 33.6202C43.8677 33.5639 43.89 33.51 43.9298 33.4703C43.9695 33.4305 44.0234 33.4082 44.0796 33.4082H47.6206C47.9143 33.4082 48.196 33.507 48.4037 33.6828C48.6114 33.8587 48.7281 34.0972 48.7281 34.3459V41.5521C48.7281 41.8008 48.6114 42.0393 48.4037 42.2152C48.196 42.391 47.9143 42.4898 47.6206 42.4898H44.0796C44.0234 42.4898 43.9695 42.4675 43.9298 42.4277C43.89 42.388 43.8677 42.3341 43.8677 42.2779V33.6202Z" fill="#29176E"/>
<path d="M62.5427 39.5939C62.5442 39.5712 62.5508 39.5492 62.5621 39.5295C62.5733 39.5097 62.5889 39.4928 62.6077 39.4799C62.6264 39.467 62.6479 39.4585 62.6705 39.4549C62.6931 39.4514 62.7161 39.453 62.738 39.4596C63.2496 39.6161 63.7645 39.8213 64.2927 39.9423C64.778 40.0533 65.4297 40.2094 66.2479 40.4106C66.7062 40.5238 67.0491 40.7834 67.0136 41.3017C66.9271 42.5911 65.0517 42.6266 64.2061 42.3181C63.0018 41.8787 62.4473 40.9706 62.5427 39.5939Z" fill="#29176E"/>
<path d="M84.9512 57.4207L84.9556 52.9997C84.9556 52.8843 85.013 52.8344 85.1276 52.8499C86.5776 53.0475 87.8648 53.5176 88.9893 54.2603C89.5586 54.6365 90.3964 55.3511 90.1778 56.1024C89.9536 56.8736 87.4413 57.7802 86.6379 58.0632C78.4529 60.9572 69.8207 62.5962 61.1775 63.2387C52.3566 63.8946 43.558 63.8024 34.7627 62.857C27.4399 62.0702 20.0939 60.4867 13.1617 57.9833C12.3539 57.6926 10.4441 57.0223 9.95031 56.3332C8.91276 54.8873 12.6413 53.3471 13.5268 53.114C13.7354 53.0597 13.8442 53.2306 13.9729 53.3582C15.343 54.7179 16.6901 56.0691 18.0143 57.4118C18.0397 57.4372 18.0697 57.4573 18.1026 57.471C18.1355 57.4847 18.1708 57.4917 18.2063 57.4917H84.8802C84.899 57.4917 84.9171 57.4842 84.9304 57.4709C84.9437 57.4576 84.9512 57.4395 84.9512 57.4207Z" fill="#FFFFFE"/>
<path d="M40.6241 72.4967C33.4034 72.0883 26.3126 70.9509 19.2539 69.1233C15.68 68.1971 12.2448 67.0548 8.94832 65.6966C7.82089 65.2327 7.64223 64.4992 7.92298 63.3407C8.30915 61.7465 8.82145 59.8678 9.45988 57.7047C9.52868 57.4731 9.67738 57.3992 9.90597 57.4827C10.8825 57.8415 11.8579 58.2029 12.8322 58.5669C21.2646 61.7162 30.2752 63.3019 39.2436 64.0232C52.2735 65.0729 65.4675 64.2551 78.2155 61.3311C82.2248 60.4112 86.2473 59.0052 90.0014 57.4861C90.1553 57.4239 90.2954 57.4217 90.422 57.4794C90.439 57.4871 90.4543 57.4983 90.4667 57.5123C90.4792 57.5262 90.4885 57.5426 90.4941 57.5604C91.0792 59.4476 91.5904 61.3533 92.0276 63.2775C92.2562 64.2829 92.3062 65.1584 91.2831 65.5978C87.7088 67.1325 83.8405 68.3365 79.8856 69.3419C73.4346 70.9827 67.017 72.0114 60.6327 72.4279C54.0678 72.8562 47.3983 72.8791 40.6241 72.4967ZM15.056 64.2118L14.8119 64.962C14.8022 64.992 14.7857 65.0193 14.7638 65.0418C14.7418 65.0644 14.715 65.0815 14.6854 65.0918C14.0373 65.3182 13.4669 65.2224 12.9742 64.8044C11.7991 63.8068 13.0608 60.6298 14.7741 61.2601C15.3911 61.4872 15.653 61.9411 15.5598 62.6217C15.5584 62.6316 15.5591 62.6416 15.5619 62.6512C15.5647 62.6608 15.5695 62.6697 15.576 62.6773C15.5825 62.6848 15.5906 62.6909 15.5997 62.6951C15.6087 62.6993 15.6186 62.7015 15.6286 62.7016L16.0114 62.7093C16.0466 62.7103 16.0809 62.6976 16.1071 62.6738C16.1333 62.6501 16.1495 62.6171 16.1523 62.5817C16.2248 61.6096 15.8187 60.9768 14.9339 60.6831C12.9953 60.0394 11.8501 62.3232 11.9167 63.91C11.9888 65.5889 13.7321 66.2614 15.1159 65.5701C15.1751 65.5397 15.225 65.4743 15.2657 65.3737C15.4995 64.7966 15.6715 64.2614 15.7817 63.768C15.786 63.7489 15.783 63.7289 15.7734 63.7118C15.7638 63.6948 15.7481 63.682 15.7296 63.6759L14.176 63.1776C14.165 63.1741 14.1534 63.1728 14.1418 63.1739C14.1303 63.1751 14.1192 63.1786 14.1092 63.1842C14.0992 63.1899 14.0905 63.1975 14.0836 63.2067C14.0768 63.2159 14.072 63.2264 14.0695 63.2375L13.9663 63.6825C13.9552 63.7291 13.9722 63.7602 14.0173 63.7757L15.0083 64.1153C15.0556 64.1316 15.0715 64.1637 15.056 64.2118ZM87.1628 65.0763L85.7424 60.9549C85.7361 60.9362 85.7227 60.9207 85.705 60.9118C85.6874 60.9029 85.667 60.9012 85.6481 60.9072L85.2808 61.0237C85.2595 61.0304 85.2414 61.0448 85.2302 61.0641C85.2189 61.0834 85.2152 61.1062 85.2198 61.128C85.2649 61.3404 85.3481 61.62 85.4695 61.967C85.863 63.0996 86.3028 64.3716 86.7889 65.7831C86.8244 65.8867 86.8943 65.9211 86.9986 65.8863L89.2768 65.1173C89.3123 65.1055 89.326 65.0814 89.3178 65.0452L89.2446 64.7034C89.2128 64.5562 89.1251 64.5066 88.9816 64.5547L87.2616 65.1251C87.242 65.1315 87.2207 65.1299 87.2023 65.1208C87.1838 65.1117 87.1696 65.0957 87.1628 65.0763ZM82.8084 63.9011L82.4611 62.5651C82.4564 62.5465 82.459 62.5269 82.4686 62.5103C82.4781 62.4937 82.4937 62.4815 82.5122 62.4763C83.2224 62.2803 83.9281 62.0827 84.6294 61.8837C84.8725 61.8138 84.7215 61.4399 84.6505 61.2967C84.6426 61.2814 84.6296 61.2692 84.6137 61.2621C84.5978 61.2551 84.5798 61.2536 84.5629 61.2579L81.7942 62.0191C81.7121 62.042 81.6829 62.0942 81.7065 62.1756L83.0359 66.8051C83.0796 66.9553 83.1765 67.0093 83.3267 66.9672L86.0265 66.1993C86.0617 66.1891 86.0915 66.1656 86.1094 66.1338C86.1273 66.102 86.1318 66.0645 86.1219 66.0295L86.0088 65.6267C85.9969 65.5823 85.9688 65.5664 85.9244 65.579L83.5608 66.2348C83.5201 66.2459 83.4939 66.2311 83.482 66.1904L83.0603 64.7023C83.0566 64.6895 83.0555 64.6761 83.057 64.6628C83.0585 64.6495 83.0626 64.6367 83.0691 64.625C83.0756 64.6134 83.0844 64.6031 83.0949 64.5948C83.1054 64.5866 83.1174 64.5805 83.1303 64.5769L85.1776 63.9821C85.2346 63.9651 85.2545 63.9285 85.2375 63.8723L85.1066 63.4406C85.1009 63.4227 85.0885 63.4077 85.0722 63.3988C85.0558 63.3899 85.0367 63.3878 85.0189 63.3929L82.9183 63.9644C82.907 63.9675 82.8952 63.9684 82.8836 63.9669C82.872 63.9654 82.8607 63.9617 82.8505 63.9558C82.8403 63.9499 82.8313 63.942 82.8241 63.9327C82.8169 63.9233 82.8116 63.9126 82.8084 63.9011ZM16.6206 66.5954C17.6038 67.4144 18.9232 67.158 19.3438 65.8963C19.6434 64.9997 19.9619 63.8334 20.2992 62.3975C20.3118 62.3465 20.2922 62.3158 20.2404 62.3054L19.8742 62.2333C19.8568 62.2298 19.8388 62.232 19.8228 62.2396C19.8068 62.2472 19.7937 62.2598 19.7854 62.2754C19.7262 62.3857 19.6815 62.5018 19.6512 62.6239C19.4041 63.6226 19.1255 64.6113 18.8156 65.59C18.6902 65.9873 18.4738 66.3446 18.0255 66.4068C17.5472 66.4734 16.8026 66.1882 16.7638 65.5923C16.7453 65.3075 16.7841 64.9838 16.8803 64.6213C17.1392 63.6448 17.3978 62.6657 17.656 61.684C17.6586 61.6744 17.6591 61.6644 17.6576 61.6546C17.656 61.6448 17.6524 61.6354 17.6469 61.6271C17.6415 61.6188 17.6343 61.6118 17.6259 61.6065C17.6175 61.6012 17.6081 61.5977 17.5983 61.5963L17.161 61.5342C17.1093 61.5268 17.0763 61.5486 17.0623 61.5996C16.8093 62.5503 16.5622 63.5016 16.321 64.4537C16.1324 65.2017 15.9681 66.0528 16.6206 66.5954ZM79.3751 65.4868L81.5024 64.9797C81.5133 64.9771 81.5235 64.9722 81.5324 64.9654C81.5414 64.9586 81.5488 64.9501 81.5543 64.9403C81.5599 64.9305 81.5633 64.9197 81.5645 64.9086C81.5657 64.8974 81.5645 64.8861 81.5612 64.8754L81.4269 64.4482C81.4084 64.392 81.3703 64.3701 81.3126 64.3827L79.2664 64.8432C79.1931 64.8595 79.148 64.831 79.131 64.7578L78.8425 63.4861C78.8353 63.4553 78.8408 63.4228 78.8579 63.3957C78.8749 63.3687 78.9021 63.3493 78.9335 63.3418L81.175 62.817C81.1838 62.8148 81.1921 62.8109 81.1993 62.8054C81.2066 62.7999 81.2126 62.793 81.2171 62.7851C81.2215 62.7772 81.2243 62.7685 81.2253 62.7594C81.2263 62.7504 81.2254 62.7413 81.2227 62.7326L81.0829 62.2643C81.0703 62.2214 81.0418 62.2048 80.9975 62.2144L78.2632 62.8369C78.1456 62.8643 78.1005 62.9364 78.1278 63.0533C78.4519 64.4338 78.7755 65.826 79.0988 67.2302C79.155 67.4743 79.2168 67.6796 79.2841 67.846C79.2997 67.8838 79.3267 67.8978 79.3651 67.8882L82.2669 67.2268C82.3195 67.215 82.3402 67.1824 82.3291 67.1292L82.2381 66.6964C82.2352 66.683 82.2297 66.6703 82.2219 66.659C82.214 66.6477 82.2041 66.6381 82.1925 66.6307C82.181 66.6232 82.1681 66.6182 82.1546 66.6157C82.1411 66.6133 82.1272 66.6136 82.1138 66.6165L79.7468 67.1358C79.7047 67.1447 79.6788 67.1281 79.6692 67.0859L79.3196 65.5756C79.3153 65.5565 79.3187 65.5364 79.3291 65.5198C79.3395 65.5032 79.356 65.4913 79.3751 65.4868ZM22.8803 66.8717C22.8786 66.8797 22.8742 66.8869 22.868 66.8921C22.8617 66.8973 22.8538 66.9003 22.8457 66.9006C22.8375 66.9008 22.8295 66.8983 22.8229 66.8935C22.8163 66.8887 22.8115 66.8818 22.8093 66.8739L21.6264 62.6894C21.6192 62.6646 21.605 62.6424 21.5855 62.6255C21.566 62.6085 21.5421 62.5976 21.5165 62.5939L21.0982 62.5318C21.0784 62.529 21.0583 62.5336 21.0419 62.5447C21.0255 62.5558 21.0139 62.5725 21.0094 62.5917L19.8975 67.4166C19.8912 67.4442 19.8951 67.4732 19.9086 67.4981C19.9221 67.523 19.9442 67.5422 19.9707 67.552C20.2182 67.6452 20.3835 67.7051 20.4657 67.3833C20.7508 66.2614 20.9339 65.0463 21.2979 63.9555C21.301 63.9455 21.3073 63.9367 21.3159 63.9306C21.3244 63.9246 21.3348 63.9215 21.3452 63.9218C21.3557 63.9222 21.3658 63.9261 21.3739 63.9327C21.382 63.9394 21.3877 63.9486 21.39 63.9588C21.7288 65.2734 22.0943 66.5888 22.4864 67.9048C22.5774 68.2111 22.7927 68.2821 23.0834 68.2499C23.1233 68.2455 23.1478 68.2237 23.1566 68.1845L24.2741 63.3208C24.2889 63.2534 24.2622 63.2187 24.1942 63.2164L23.7947 63.202C23.7496 63.2005 23.7218 63.2216 23.7115 63.2653L22.8803 66.8717ZM76.511 63.8689L77.6862 63.5815C77.7535 63.5645 77.7783 63.5223 77.7605 63.455L77.6473 63.0267C77.6362 62.986 77.6104 62.9701 77.5697 62.979L74.4448 63.6326C74.4314 63.6353 74.4188 63.6407 74.4075 63.6485C74.3963 63.6562 74.3867 63.6662 74.3794 63.6778C74.372 63.6894 74.367 63.7024 74.3648 63.7159C74.3625 63.7295 74.3629 63.7434 74.366 63.7569L74.4759 64.2052C74.4809 64.2253 74.4935 64.2427 74.5111 64.2537C74.5287 64.2646 74.5499 64.2683 74.5702 64.264L75.7198 64.011C75.7336 64.0079 75.7479 64.0076 75.7618 64.01C75.7757 64.0125 75.7889 64.0177 75.8008 64.0253C75.8127 64.033 75.8229 64.0429 75.8309 64.0545C75.8389 64.0662 75.8446 64.0793 75.8474 64.0931L76.7574 68.3221C76.7619 68.3416 76.7728 68.359 76.7883 68.3715C76.8038 68.384 76.823 68.3908 76.8428 68.3909C77.0093 68.3924 77.1587 68.348 77.2911 68.2577C77.3237 68.2355 77.3359 68.2052 77.3278 68.1667L76.4289 63.9988C76.423 63.9709 76.4282 63.9417 76.4435 63.9175C76.4589 63.8933 76.4831 63.8759 76.511 63.8689ZM23.6205 68.3875L24.0799 68.4808C24.1228 68.4896 24.1542 68.4745 24.1742 68.4353L24.8444 67.1503C24.857 67.1261 24.877 67.1066 24.9016 67.0947C24.9261 67.0827 24.9539 67.0788 24.9809 67.0837L26.5212 67.3611C26.5468 67.3659 26.5703 67.3787 26.5881 67.3977C26.6058 67.4167 26.617 67.4408 26.6199 67.4665L26.7831 68.9568C26.7868 68.9945 26.8075 69.016 26.8452 69.0212L27.3113 69.0866C27.3912 69.0985 27.4259 69.0644 27.4156 68.9846C27.2084 67.3348 27.0028 65.6781 26.7986 64.0143C26.7553 63.6614 26.418 63.6348 26.145 63.6503C26.1267 63.6514 26.1089 63.6571 26.0934 63.667C26.0778 63.6769 26.065 63.6907 26.0562 63.7069L23.5827 68.3065C23.5591 68.3509 23.5716 68.3779 23.6205 68.3875ZM71.6628 64.1952C70.6741 64.9131 70.997 66.5322 72.2499 66.6997C72.7415 66.7652 73.8844 66.7741 74.1052 67.2912C74.6268 68.5118 72.5273 69.1244 71.9525 67.7794C71.9376 67.7446 71.9158 67.7132 71.8882 67.6873C71.8607 67.6613 71.8281 67.6413 71.7925 67.6285C71.7569 67.6156 71.719 67.6103 71.6812 67.6128C71.6434 67.6153 71.6066 67.6256 71.573 67.643C71.4287 67.7184 71.3821 67.8353 71.4332 67.9936C72.0868 69.9966 75.1439 69.2764 74.7111 67.3211C74.285 65.4025 71.9791 66.6365 71.6684 65.5002C71.5656 65.1258 71.6924 64.8506 72.049 64.6746C72.7814 64.3143 73.2989 64.4963 73.6015 65.2205C73.6177 65.259 73.6466 65.2753 73.688 65.2694L74.0065 65.225C74.0277 65.222 74.0476 65.2126 74.0634 65.1982C74.0792 65.1837 74.0903 65.1648 74.0953 65.144C74.1212 65.0293 74.1097 64.9172 74.0609 64.8077C73.6447 63.8734 72.4685 63.6104 71.6628 64.1952ZM28.8071 68.1356L28.6651 64.1552C28.6642 64.1337 28.6553 64.1133 28.6401 64.0981C28.6249 64.0829 28.6045 64.0739 28.583 64.0731L28.1868 64.0543C28.1732 64.0538 28.1597 64.0561 28.1471 64.0611C28.1344 64.0661 28.123 64.0736 28.1135 64.0832C28.104 64.0929 28.0966 64.1043 28.0919 64.1169C28.0871 64.1295 28.085 64.1429 28.0858 64.1563L28.3643 69.0323C28.3691 69.1147 28.4017 69.193 28.4569 69.2543C28.5121 69.3157 28.5866 69.3564 28.6681 69.3697C28.7495 69.383 28.8331 69.3682 28.905 69.3276C28.9768 69.287 29.0327 69.2232 29.0634 69.1466L30.556 65.4325C30.5615 65.4196 30.5712 65.409 30.5835 65.4023C30.5957 65.3955 30.6099 65.393 30.6237 65.3952C30.6376 65.3973 30.6503 65.404 30.6599 65.4142C30.6695 65.4243 30.6755 65.4374 30.6769 65.4513L30.9421 69.4517C30.9475 69.5283 30.9787 69.6008 31.0306 69.6574C31.0825 69.714 31.1521 69.7513 31.2279 69.7632C31.3037 69.7752 31.3814 69.7611 31.4482 69.7233C31.515 69.6855 31.567 69.6261 31.5957 69.5549L33.4134 65.0108C33.4204 64.993 33.4234 64.9739 33.4222 64.9548C33.421 64.9357 33.4156 64.9172 33.4064 64.9004C33.3972 64.8837 33.3844 64.8691 33.3689 64.8579C33.3534 64.8467 33.3356 64.839 33.3168 64.8355L32.9617 64.77C32.9129 64.7611 32.8796 64.7804 32.8619 64.8277L31.5214 68.4452C31.4467 68.6465 31.4026 68.6398 31.3893 68.4253L31.1474 64.6357C31.1461 64.6147 31.1393 64.5944 31.1279 64.5767C31.1164 64.559 31.1006 64.5446 31.0819 64.5347C30.8963 64.4378 30.6965 64.3968 30.4827 64.4116C30.4406 64.4145 30.4113 64.436 30.3951 64.4759L28.9181 68.1545C28.85 68.3232 28.813 68.3169 28.8071 68.1356ZM68.6556 68.2999C68.6903 68.2947 68.7256 68.3007 68.7567 68.3168C68.7878 68.3329 68.813 68.3585 68.8287 68.3898L69.4823 69.6603C69.4986 69.6936 69.5252 69.7088 69.5622 69.7058L70.0516 69.6714C70.1041 69.6677 70.123 69.6407 70.1082 69.5904C70.0771 69.4817 70.0346 69.3763 69.9806 69.2742C69.2164 67.8212 68.4577 66.3631 67.7046 64.8998C67.6956 64.8828 67.6821 64.8685 67.6657 64.8585C67.6493 64.8486 67.6305 64.8433 67.6114 64.8432H67.1365C67.1095 64.8432 67.0833 64.8528 67.0629 64.8704C67.0426 64.8879 67.0293 64.9122 67.0255 64.9387L66.2498 70.1164C66.2358 70.2082 66.2746 70.2459 66.3664 70.2296L66.7758 70.1553C66.8232 70.1464 66.8498 70.1183 66.8557 70.0709L67.0433 68.6594C67.0481 68.6241 67.0642 68.5913 67.0892 68.5659C67.1142 68.5405 67.1468 68.5239 67.182 68.5185L68.6556 68.2999ZM35.3797 68.7482C35.4077 68.7548 35.4332 68.7694 35.4529 68.7901C35.4726 68.8108 35.4858 68.8367 35.4907 68.8647L35.7459 70.284C35.7498 70.3047 35.7603 70.3235 35.776 70.3375C35.7917 70.3516 35.8115 70.3601 35.8325 70.3617L36.2808 70.3972C36.2949 70.3983 36.309 70.3961 36.3221 70.3908C36.3352 70.3855 36.347 70.3773 36.3564 70.3666C36.3658 70.356 36.3727 70.3433 36.3766 70.3296C36.3804 70.3158 36.381 70.3014 36.3784 70.2873L35.4197 65.1384C35.4138 65.1088 35.396 65.0914 35.3664 65.0863L34.8682 64.9997C34.8275 64.9923 34.7983 65.0071 34.7805 65.0441C34.0592 66.4992 33.3583 67.9644 32.6777 69.4395C32.6044 69.5978 32.5563 69.7288 32.5334 69.8323C32.5311 69.8428 32.5311 69.8537 32.5336 69.8642C32.536 69.8747 32.5407 69.8845 32.5474 69.8929C32.5541 69.9013 32.5626 69.9081 32.5723 69.9128C32.582 69.9175 32.5926 69.9199 32.6033 69.92H33.0361C33.0555 69.92 33.0744 69.9144 33.0906 69.9037C33.1068 69.8931 33.1195 69.8779 33.1271 69.8601L33.6575 68.6583C33.6709 68.628 33.693 68.6023 33.721 68.5843C33.749 68.5664 33.7817 68.557 33.8151 68.5573C34.3433 68.5625 34.8648 68.6261 35.3797 68.7482ZM64.4044 67.4632C64.4002 67.4736 64.3932 67.4828 64.3843 67.4897C64.3753 67.4965 64.3647 67.5009 64.3534 67.5022C64.3422 67.5036 64.3309 67.5019 64.3205 67.4974C64.3102 67.4929 64.3012 67.4857 64.2946 67.4765L62.862 65.4325C62.8553 65.4228 62.8461 65.4152 62.8353 65.4105C62.8245 65.4058 62.8126 65.4042 62.801 65.4058L62.2428 65.4913C62.2321 65.493 62.222 65.4974 62.2135 65.5041C62.205 65.5109 62.1984 65.5197 62.1942 65.5297C62.1901 65.5397 62.1886 65.5506 62.19 65.5614C62.1913 65.5722 62.1953 65.5824 62.2017 65.5912L64.0849 68.1934C64.0909 68.2019 64.0947 68.2118 64.096 68.2222L64.3701 70.3084C64.372 70.3238 64.3795 70.338 64.3911 70.3482C64.4028 70.3584 64.4178 70.364 64.4333 70.3639H64.8783C64.8873 70.3639 64.8962 70.3621 64.9044 70.3584C64.9127 70.3548 64.92 70.3494 64.926 70.3427C64.932 70.336 64.9365 70.3281 64.9391 70.3195C64.9418 70.3109 64.9426 70.3018 64.9415 70.2929L64.6941 68.159C64.6927 68.148 64.6943 68.1369 64.6985 68.1268L65.9414 65.1207C65.9456 65.1106 65.9472 65.0995 65.946 65.0886C65.9447 65.0777 65.9406 65.0674 65.9341 65.0585C65.9276 65.0497 65.9189 65.0427 65.9089 65.0382C65.8989 65.0337 65.8879 65.0319 65.877 65.033L65.3577 65.0874C65.3458 65.0885 65.3345 65.093 65.3251 65.1002C65.3157 65.1075 65.3085 65.1173 65.3044 65.1284L64.4044 67.4632ZM37.8809 66.6598C38.4262 67.8782 38.9492 69.1148 39.45 70.3694C39.5676 70.6639 39.7896 70.7652 40.1158 70.6735C40.1536 70.6631 40.1743 70.6387 40.178 70.6002L40.7073 65.6089C40.7125 65.5638 40.6925 65.5412 40.6474 65.5412L40.2057 65.5357C40.1881 65.5356 40.1712 65.542 40.1581 65.5537C40.1449 65.5653 40.1366 65.5815 40.1347 65.5989L39.7441 69.3308C39.743 69.3401 39.7389 69.3488 39.7324 69.3555C39.7258 69.3622 39.7172 69.3666 39.7079 69.3679C39.6986 69.3691 39.6891 69.3673 39.681 69.3626C39.6729 69.3579 39.6666 69.3506 39.6631 69.3419L38.0152 65.3914C37.9852 65.3194 37.9319 65.2595 37.864 65.2212C37.7961 65.1828 37.7173 65.1682 37.6401 65.1797C37.5629 65.1911 37.4918 65.228 37.4379 65.2844C37.3841 65.3409 37.3506 65.4137 37.3427 65.4913L36.8445 70.3028C36.8378 70.365 36.866 70.395 36.9288 70.3927L37.3328 70.3761C37.3529 70.3751 37.372 70.367 37.3867 70.3532C37.4013 70.3393 37.4106 70.3207 37.4127 70.3006L37.7899 66.6753C37.7909 66.6648 37.7952 66.6549 37.8024 66.6471C37.8095 66.6394 37.8191 66.6342 37.8295 66.6324C37.8398 66.6307 37.8505 66.6324 37.8599 66.6373C37.8692 66.6423 37.8766 66.6502 37.8809 66.6598ZM60.252 69.3718C60.2563 69.3524 60.2667 69.335 60.2817 69.322C60.2967 69.309 60.3155 69.3012 60.3353 69.2997L61.9154 69.1921C61.9345 69.1907 61.9535 69.1954 61.9698 69.2053C61.9861 69.2152 61.9989 69.23 62.0064 69.2475L62.599 70.6358C62.6072 70.6549 62.6217 70.6707 62.64 70.6806C62.6583 70.6904 62.6795 70.6938 62.7 70.6901L63.1494 70.6136C63.1632 70.6112 63.1762 70.6057 63.1876 70.5976C63.1989 70.5894 63.2082 70.5788 63.2149 70.5665C63.2215 70.5542 63.2252 70.5406 63.2258 70.5266C63.2264 70.5127 63.2238 70.4987 63.2182 70.4859L61.1342 65.7032C61.1271 65.6868 61.1153 65.6728 61.1003 65.6629C61.0854 65.6531 61.0678 65.6478 61.0499 65.6478H60.5594C60.5385 65.6478 60.5181 65.6549 60.5018 65.668C60.4855 65.6811 60.4741 65.6994 60.4695 65.7199L59.3421 70.8066C59.3391 70.8201 59.3392 70.8341 59.3423 70.8475C59.3454 70.8609 59.3515 70.8735 59.3602 70.8842C59.3688 70.895 59.3797 70.9037 59.3922 70.9096C59.4046 70.9156 59.4182 70.9187 59.432 70.9187H59.8392C59.8602 70.9187 59.8805 70.9116 59.8969 70.8985C59.9132 70.8853 59.9246 70.867 59.9291 70.8466L60.252 69.3718ZM43.0753 65.8863L42.7424 70.6557C42.7388 70.7104 42.7569 70.7644 42.7929 70.8057C42.8288 70.8471 42.8797 70.8726 42.9344 70.8766L44.3293 70.9742C44.578 70.9917 44.8283 70.9528 45.0658 70.8598C45.3033 70.7668 45.5233 70.6215 45.7133 70.4322C45.9033 70.2429 46.0596 70.0133 46.1733 69.7565C46.2869 69.4998 46.3556 69.2209 46.3755 68.9357L46.4343 68.0946C46.4543 67.8095 46.4251 67.5237 46.3484 67.2537C46.2716 66.9836 46.1489 66.7345 45.9871 66.5205C45.8253 66.3066 45.6277 66.1321 45.4055 66.0069C45.1833 65.8817 44.9409 65.8083 44.6921 65.7909L43.2973 65.6944C43.2424 65.6904 43.1882 65.7084 43.1466 65.7444C43.1049 65.7804 43.0793 65.8314 43.0753 65.8863ZM57.7863 70.4238C57.1849 70.6302 57.0118 70.0088 56.943 69.586C56.9348 69.5364 56.906 69.5146 56.8564 69.5205L56.5169 69.5616C56.4999 69.5637 56.4842 69.5717 56.4726 69.5844C56.461 69.597 56.4543 69.6133 56.4536 69.6304C56.3604 71.6345 58.8461 71.5102 58.7728 69.7502C58.7484 69.1688 58.6611 67.8634 58.511 65.8342C58.508 65.7898 58.484 65.7698 58.4388 65.7743L58.0127 65.8186C57.9903 65.8209 57.9697 65.8318 57.9552 65.849C57.9407 65.8661 57.9335 65.8883 57.935 65.9107C58.0157 67.1314 58.1004 68.3472 58.1891 69.5583C58.2136 69.8912 58.1414 70.3028 57.7863 70.4238ZM47.8705 65.9958C47.8709 65.9843 47.869 65.9728 47.865 65.962C47.8609 65.9513 47.8548 65.9414 47.847 65.933C47.8391 65.9245 47.8297 65.9177 47.8192 65.913C47.8087 65.9082 47.7974 65.9055 47.7859 65.9051L47.3711 65.8906C47.3479 65.8898 47.3253 65.8983 47.3083 65.9141C47.2913 65.93 47.2813 65.952 47.2805 65.9752L47.1066 70.9546C47.1062 70.9661 47.1081 70.9776 47.1121 70.9884C47.1161 70.9992 47.1222 71.009 47.1301 71.0175C47.1379 71.0259 47.1474 71.0327 47.1578 71.0375C47.1683 71.0422 47.1796 71.0449 47.1911 71.0453L47.6059 71.0598C47.6291 71.0606 47.6518 71.0521 47.6688 71.0363C47.6858 71.0204 47.6958 70.9985 47.6966 70.9752L47.8705 65.9958ZM55.2896 69.6759C55.2898 69.6876 55.2862 69.6991 55.2793 69.7085C55.2724 69.718 55.2625 69.7249 55.2512 69.7282C55.24 69.7315 55.228 69.731 55.217 69.7267C55.2061 69.7225 55.1969 69.7147 55.1908 69.7047L53.0047 66.0317C52.9855 65.9984 52.9566 65.9818 52.9182 65.9818L52.4732 65.9795C52.4377 65.9795 52.4166 65.9973 52.4099 66.0328C52.3848 66.1719 52.3748 66.3117 52.38 66.4523C52.4429 67.994 52.4958 69.5364 52.5387 71.0796C52.5394 71.1248 52.5623 71.1466 52.6075 71.1451L53.048 71.1307C53.0924 71.1292 53.1138 71.1063 53.1124 71.0619L53.0036 67.4832C53.0033 67.4701 53.0069 67.4573 53.0141 67.4464C53.0213 67.4356 53.0317 67.4272 53.0439 67.4224C53.056 67.4177 53.0693 67.4168 53.082 67.42C53.0947 67.4231 53.106 67.43 53.1146 67.4399C53.1797 67.5131 53.2415 67.5997 53.2999 67.6995C53.9487 68.8048 54.6056 69.9071 55.2707 71.0064C55.2801 71.0222 55.2935 71.0353 55.3094 71.0442C55.3254 71.0532 55.3435 71.0578 55.3617 71.0574L55.8444 71.0463C55.8866 71.0456 55.9069 71.0241 55.9054 70.982L55.7234 65.9795C55.7212 65.9196 55.6902 65.8908 55.6302 65.893L55.2496 65.9074C55.2259 65.9086 55.2035 65.919 55.1873 65.9364C55.1712 65.9538 55.1624 65.9769 55.1631 66.0006L55.2896 69.6759ZM48.2109 70.9809C48.207 70.992 48.2057 71.0039 48.2069 71.0156C48.2082 71.0274 48.212 71.0387 48.2182 71.0488C48.2243 71.0589 48.2327 71.0675 48.2425 71.0739C48.2524 71.0804 48.2636 71.0846 48.2753 71.0863L48.7103 71.144C48.7288 71.1465 48.7476 71.1424 48.7634 71.1324C48.7792 71.1225 48.791 71.1074 48.7968 71.0896L49.2707 69.6393C49.2759 69.6231 49.2861 69.609 49.2999 69.599C49.3136 69.589 49.3302 69.5837 49.3472 69.5838L50.943 69.5938C50.9598 69.5939 50.9761 69.5993 50.9897 69.6093C51.0032 69.6193 51.0133 69.6332 51.0184 69.6492L51.4811 71.1074C51.4863 71.1236 51.4966 71.1377 51.5103 71.1476C51.5241 71.1576 51.5407 71.163 51.5577 71.1628H52.0471C52.0596 71.1628 52.0719 71.1597 52.0831 71.154C52.0942 71.1482 52.1039 71.1399 52.1112 71.1298C52.1185 71.1196 52.1234 71.1079 52.1254 71.0955C52.1273 71.0831 52.1264 71.0705 52.1225 71.0585L50.5313 66.0372C50.5261 66.0211 50.5158 66.0069 50.5021 65.997C50.4883 65.987 50.4717 65.9817 50.4547 65.9818L49.9387 65.9795C49.922 65.9796 49.9058 65.9849 49.8922 65.9946C49.8787 66.0044 49.8686 66.0181 49.8632 66.0339L48.2109 70.9809Z" fill="#FFFFFE"/>
<path d="M15.0089 64.1153L14.0179 63.7757C13.9728 63.7602 13.9558 63.7291 13.9669 63.6825L14.0701 63.2375C14.0726 63.2264 14.0774 63.2159 14.0842 63.2067C14.0911 63.1975 14.0998 63.1899 14.1098 63.1842C14.1198 63.1786 14.1309 63.1751 14.1424 63.1739C14.1539 63.1728 14.1656 63.174 14.1766 63.1776L15.7302 63.6758C15.7487 63.682 15.7644 63.6948 15.774 63.7118C15.7836 63.7289 15.7866 63.7489 15.7823 63.768C15.6721 64.2614 15.5001 64.7966 15.2663 65.3737C15.2256 65.4743 15.1757 65.5397 15.1165 65.5701C13.7327 66.2614 11.9894 65.5889 11.9173 63.91C11.8507 62.3232 12.9959 60.0394 14.9345 60.683C15.8193 60.9767 16.2254 61.6096 16.1529 62.5817C16.1501 62.6171 16.1339 62.6501 16.1077 62.6738C16.0815 62.6976 16.0472 62.7103 16.012 62.7093L15.6292 62.7016C15.6192 62.7015 15.6093 62.6993 15.6002 62.6951C15.5912 62.6909 15.5831 62.6848 15.5766 62.6773C15.5701 62.6697 15.5652 62.6608 15.5625 62.6512C15.5597 62.6416 15.5589 62.6315 15.5604 62.6217C15.6536 61.9411 15.3917 61.4872 14.7747 61.2601C13.0614 60.6298 11.7997 63.8068 12.9748 64.8044C13.4675 65.2224 14.0379 65.3182 14.6859 65.0918C14.7156 65.0814 14.7424 65.0643 14.7644 65.0418C14.7863 65.0193 14.8028 64.992 14.8125 64.962L15.0566 64.2118C15.0721 64.1637 15.0562 64.1316 15.0089 64.1153Z" fill="#29176E"/>
<path d="M87.262 65.125L88.982 64.5546C89.1255 64.5065 89.2132 64.5561 89.245 64.7033L89.3182 65.0451C89.3264 65.0813 89.3127 65.1054 89.2772 65.1172L86.999 65.8862C86.8947 65.921 86.8248 65.8866 86.7893 65.783C86.3032 64.3715 85.8634 63.0995 85.4699 61.9668C85.3485 61.6199 85.2653 61.3403 85.2202 61.1279C85.2156 61.1061 85.2193 61.0833 85.2306 61.064C85.2418 61.0447 85.2599 61.0303 85.2812 61.0236L85.6485 60.9071C85.6674 60.9011 85.6878 60.9028 85.7054 60.9117C85.7231 60.9206 85.7365 60.9361 85.7429 60.9548L87.1632 65.0762C87.1701 65.0956 87.1842 65.1116 87.2027 65.1207C87.2211 65.1298 87.2424 65.1314 87.262 65.125Z" fill="#29176E"/>
<path d="M82.918 63.9645L85.0186 63.393C85.0364 63.3879 85.0554 63.39 85.0718 63.3989C85.0882 63.4079 85.1005 63.4229 85.1062 63.4408L85.2372 63.8724C85.2542 63.9286 85.2342 63.9653 85.1773 63.9823L83.1299 64.5771C83.117 64.5807 83.105 64.5867 83.0945 64.595C83.084 64.6033 83.0753 64.6135 83.0688 64.6252C83.0623 64.6368 83.0582 64.6497 83.0566 64.6629C83.0551 64.6762 83.0563 64.6896 83.06 64.7025L83.4817 66.1905C83.4935 66.2312 83.5198 66.246 83.5605 66.2349L85.9241 65.5791C85.9685 65.5665 85.9966 65.5824 86.0084 65.6268L86.1216 66.0296C86.1314 66.0646 86.1269 66.1021 86.109 66.1339C86.0912 66.1657 86.0614 66.1893 86.0262 66.1994L83.3263 66.9673C83.1761 67.0095 83.0792 66.9555 83.0356 66.8053L81.7062 62.1757C81.6825 62.0944 81.7117 62.0422 81.7939 62.0193L84.5625 61.258C84.5795 61.2537 84.5974 61.2552 84.6133 61.2623C84.6292 61.2693 84.6422 61.2815 84.6502 61.2969C84.7212 61.44 84.8721 61.814 84.6291 61.8839C83.9278 62.0829 83.222 62.2804 82.5118 62.4765C82.4934 62.4816 82.4777 62.4938 82.4682 62.5104C82.4587 62.527 82.456 62.5467 82.4608 62.5652L82.8081 63.9013C82.8112 63.9127 82.8165 63.9234 82.8237 63.9328C82.831 63.9422 82.8399 63.95 82.8501 63.9559C82.8604 63.9618 82.8716 63.9656 82.8832 63.9671C82.8949 63.9685 82.9067 63.9677 82.918 63.9645Z" fill="#29176E"/>
<path d="M16.6206 66.5954C15.9682 66.0527 16.1324 65.2016 16.321 64.4537C16.5622 63.5016 16.8093 62.5502 17.0623 61.5996C17.0764 61.5485 17.1093 61.5267 17.1611 61.5341L17.5983 61.5963C17.6081 61.5976 17.6175 61.6011 17.6259 61.6064C17.6343 61.6117 17.6415 61.6188 17.6469 61.6271C17.6524 61.6353 17.656 61.6447 17.6576 61.6545C17.6591 61.6643 17.6586 61.6743 17.656 61.6839C17.3978 62.6656 17.1392 63.6447 16.8803 64.6212C16.7841 64.9837 16.7453 65.3074 16.7638 65.5922C16.8026 66.1881 17.5472 66.4733 18.0255 66.4067C18.4738 66.3446 18.6902 65.9873 18.8156 65.59C19.1256 64.6113 19.4041 63.6225 19.6512 62.6238C19.6815 62.5018 19.7263 62.3856 19.7854 62.2754C19.7937 62.2597 19.8068 62.2472 19.8228 62.2396C19.8388 62.232 19.8569 62.2297 19.8742 62.2332L20.2404 62.3053C20.2922 62.3157 20.3118 62.3464 20.2992 62.3974C19.9619 63.8334 19.6434 64.9996 19.3438 65.8963C18.9232 67.158 17.6038 67.4143 16.6206 66.5954Z" fill="#29176E"/>
<path d="M79.3197 65.5755L79.6692 67.0858C79.6788 67.128 79.7047 67.1446 79.7469 67.1357L82.1138 66.6164C82.1272 66.6135 82.1411 66.6132 82.1546 66.6156C82.1681 66.6181 82.181 66.6231 82.1926 66.6306C82.2041 66.638 82.2141 66.6476 82.2219 66.6589C82.2297 66.6702 82.2352 66.6829 82.2381 66.6963L82.3291 67.1291C82.3402 67.1823 82.3195 67.2149 82.267 67.2267L79.3652 67.8881C79.3267 67.8977 79.2997 67.8837 79.2842 67.8459C79.2168 67.6795 79.1551 67.4742 79.0988 67.2301C78.7755 65.8259 78.4519 64.4337 78.1279 63.0532C78.1005 62.9363 78.1456 62.8642 78.2633 62.8368L80.9975 62.2143C81.0419 62.2047 81.0704 62.2213 81.0829 62.2642L81.2228 62.7325C81.2254 62.7412 81.2263 62.7503 81.2254 62.7593C81.2244 62.7684 81.2216 62.7771 81.2171 62.785C81.2126 62.7929 81.2066 62.7998 81.1994 62.8053C81.1921 62.8108 81.1839 62.8147 81.175 62.8169L78.9335 63.3417C78.9021 63.3492 78.875 63.3686 78.8579 63.3956C78.8409 63.4227 78.8353 63.4552 78.8425 63.486L79.131 64.7577C79.148 64.8309 79.1932 64.8594 79.2664 64.8431L81.3126 64.3826C81.3703 64.37 81.4084 64.3919 81.4269 64.4481L81.5612 64.8753C81.5646 64.886 81.5657 64.8973 81.5645 64.9085C81.5633 64.9196 81.5599 64.9304 81.5544 64.9402C81.5489 64.95 81.5414 64.9585 81.5325 64.9653C81.5235 64.9721 81.5133 64.977 81.5024 64.9796L79.3751 65.4867C79.3561 65.4912 79.3395 65.5031 79.3291 65.5197C79.3187 65.5363 79.3153 65.5564 79.3197 65.5755Z" fill="#29176E"/>
<path d="M22.8803 66.8718L23.7114 63.2653C23.7218 63.2217 23.7495 63.2006 23.7947 63.2021L24.1942 63.2165C24.2622 63.2187 24.2888 63.2535 24.2741 63.3208L23.1566 68.1845C23.1477 68.2237 23.1233 68.2455 23.0834 68.25C22.7926 68.2822 22.5774 68.2111 22.4864 67.9049C22.0943 66.5888 21.7288 65.2734 21.39 63.9589C21.3876 63.9486 21.382 63.9395 21.3739 63.9328C21.3658 63.9261 21.3557 63.9223 21.3452 63.9219C21.3347 63.9215 21.3244 63.9246 21.3159 63.9307C21.3073 63.9368 21.301 63.9455 21.2979 63.9555C20.9339 65.0463 20.7508 66.2614 20.4656 67.3833C20.3835 67.7051 20.2182 67.6452 19.9707 67.552C19.9441 67.5422 19.922 67.523 19.9086 67.4981C19.8951 67.4732 19.8911 67.4442 19.8975 67.4166L21.0094 62.5917C21.0139 62.5726 21.0255 62.5558 21.0419 62.5447C21.0583 62.5336 21.0784 62.529 21.0982 62.5318L21.5165 62.5939C21.5421 62.5976 21.566 62.6086 21.5855 62.6255C21.605 62.6424 21.6192 62.6646 21.6264 62.6894L22.8093 66.874C22.8115 66.8818 22.8163 66.8887 22.8229 66.8935C22.8295 66.8984 22.8375 66.9008 22.8457 66.9006C22.8538 66.9003 22.8617 66.8974 22.8679 66.8921C22.8742 66.8869 22.8786 66.8797 22.8803 66.8718Z" fill="#29176E"/>
<path d="M76.511 63.8692C76.483 63.8761 76.4588 63.8935 76.4435 63.9177C76.4282 63.9419 76.4229 63.9711 76.4289 63.999L77.3277 68.1669C77.3359 68.2054 77.3237 68.2357 77.2911 68.2579C77.1587 68.3482 77.0093 68.3926 76.8428 68.3911C76.823 68.391 76.8038 68.3842 76.7883 68.3717C76.7728 68.3592 76.7619 68.3418 76.7574 68.3223L75.8474 64.0933C75.8445 64.0795 75.8389 64.0664 75.8309 64.0547C75.8229 64.0431 75.8127 64.0332 75.8008 64.0255C75.7889 64.0179 75.7756 64.0127 75.7617 64.0102C75.7478 64.0078 75.7336 64.0081 75.7198 64.0112L74.5702 64.2642C74.5499 64.2686 74.5287 64.2649 74.5111 64.2539C74.4935 64.2429 74.4809 64.2255 74.4759 64.2054L74.366 63.7571C74.3629 63.7436 74.3624 63.7297 74.3647 63.7161C74.367 63.7026 74.372 63.6896 74.3793 63.678C74.3867 63.6664 74.3962 63.6565 74.4075 63.6487C74.4187 63.6409 74.4314 63.6355 74.4448 63.6328L77.5696 62.9792C77.6103 62.9703 77.6362 62.9862 77.6473 63.0269L77.7605 63.4552C77.7783 63.5226 77.7535 63.5647 77.6862 63.5817L76.511 63.8692Z" fill="#29176E"/>
<path d="M24.0795 68.4809L23.6201 68.3877C23.5713 68.3781 23.5587 68.3511 23.5824 68.3067L26.0559 63.7071C26.0647 63.6908 26.0775 63.6771 26.093 63.6672C26.1086 63.6573 26.1263 63.6516 26.1446 63.6505C26.4176 63.635 26.755 63.6616 26.7982 64.0145C27.0024 65.6783 27.2081 67.335 27.4152 68.9847C27.4256 69.0646 27.3908 69.0987 27.3109 69.0868L26.8448 69.0214C26.8071 69.0162 26.7864 68.9947 26.7827 68.957L26.6196 67.4667C26.6167 67.441 26.6055 67.4169 26.5877 67.3979C26.5699 67.3789 26.5465 67.3661 26.5208 67.3613L24.9806 67.0839C24.9536 67.079 24.9258 67.0829 24.9012 67.0949C24.8767 67.1068 24.8567 67.1263 24.8441 67.1504L24.1739 68.4354C24.1539 68.4747 24.1224 68.4898 24.0795 68.4809ZM25.2092 66.4658C25.2052 66.4735 25.2032 66.4821 25.2031 66.4908C25.2031 66.4995 25.2051 66.508 25.209 66.5158C25.2129 66.5236 25.2185 66.5303 25.2255 66.5355C25.2325 66.5407 25.2406 66.5442 25.2491 66.5457L26.4676 66.7787C26.476 66.7803 26.4847 66.7799 26.493 66.7775C26.5013 66.7752 26.5089 66.7709 26.5153 66.7651C26.5216 66.7593 26.5265 66.7521 26.5296 66.744C26.5327 66.736 26.5339 66.7273 26.533 66.7188L26.3233 64.505C26.3221 64.4931 26.317 64.482 26.309 64.4732C26.3009 64.4645 26.2903 64.4585 26.2786 64.4563C26.2669 64.454 26.2548 64.4556 26.244 64.4608C26.2333 64.466 26.2245 64.4744 26.219 64.485L25.2092 66.4658Z" fill="#29176E"/>
<path d="M72.2499 66.6998C70.9971 66.5322 70.6741 64.9132 71.6629 64.1952C72.4685 63.6104 73.6447 63.8734 74.0609 64.8078C74.1097 64.9172 74.1212 65.0293 74.0953 65.144C74.0903 65.1649 74.0792 65.1837 74.0634 65.1982C74.0476 65.2127 74.0277 65.222 74.0065 65.225L73.688 65.2694C73.6466 65.2753 73.6177 65.259 73.6015 65.2206C73.2989 64.4963 72.7814 64.3143 72.049 64.6746C71.6924 64.8507 71.5656 65.1259 71.6684 65.5002C71.9791 66.6365 74.285 65.4025 74.7111 67.3212C75.1439 69.2764 72.0868 69.9966 71.4332 67.9936C71.3821 67.8353 71.4287 67.7184 71.573 67.643C71.6066 67.6256 71.6434 67.6153 71.6812 67.6128C71.719 67.6103 71.7569 67.6157 71.7925 67.6285C71.8281 67.6413 71.8607 67.6613 71.8882 67.6873C71.9158 67.7133 71.9376 67.7447 71.9525 67.7795C72.5273 69.1244 74.6268 68.5119 74.1053 67.2912C73.8844 66.7741 72.7415 66.7652 72.2499 66.6998Z" fill="#29176E"/>
<path d="M28.8079 68.1357C28.8138 68.3169 28.8508 68.3232 28.9188 68.1545L30.3958 64.4759C30.4121 64.436 30.4413 64.4145 30.4835 64.4116C30.6973 64.3968 30.897 64.4378 31.0827 64.5347C31.1014 64.5446 31.1172 64.559 31.1286 64.5767C31.1401 64.5944 31.1468 64.6147 31.1482 64.6357L31.3901 68.4253C31.4034 68.6398 31.4474 68.6465 31.5221 68.4453L32.8626 64.8277C32.8804 64.7804 32.9137 64.7611 32.9625 64.77L33.3176 64.8355C33.3364 64.839 33.3542 64.8467 33.3696 64.8579C33.3851 64.8692 33.3979 64.8837 33.4072 64.9004C33.4164 64.9172 33.4218 64.9357 33.423 64.9548C33.4242 64.9739 33.4212 64.993 33.4141 65.0108L31.5965 69.5549C31.5678 69.6261 31.5158 69.6855 31.4489 69.7233C31.3821 69.7611 31.3045 69.7752 31.2287 69.7632C31.1528 69.7513 31.0833 69.714 31.0314 69.6574C30.9795 69.6008 30.9483 69.5283 30.9429 69.4517L30.6777 65.4513C30.6763 65.4374 30.6703 65.4243 30.6607 65.4142C30.6511 65.404 30.6383 65.3973 30.6245 65.3952C30.6107 65.393 30.5965 65.3955 30.5842 65.4023C30.572 65.409 30.5623 65.4196 30.5567 65.4325L29.0642 69.1466C29.0335 69.2232 28.9776 69.287 28.9057 69.3276C28.8339 69.3682 28.7503 69.383 28.6688 69.3697C28.5874 69.3564 28.5129 69.3157 28.4577 69.2543C28.4025 69.193 28.3698 69.1147 28.3651 69.0323L28.0866 64.1563C28.0858 64.1429 28.0879 64.1295 28.0926 64.1169C28.0974 64.1043 28.1048 64.0929 28.1143 64.0832C28.1238 64.0736 28.1352 64.0661 28.1478 64.0611C28.1604 64.0561 28.174 64.0538 28.1876 64.0543L28.5837 64.0731C28.6052 64.0739 28.6257 64.0829 28.6409 64.0981C28.6561 64.1133 28.665 64.1337 28.6658 64.1552L28.8079 68.1357Z" fill="#29176E"/>
<path d="M25.2097 66.4656L26.2195 64.4848C26.225 64.4742 26.2338 64.4658 26.2445 64.4606C26.2553 64.4554 26.2674 64.4538 26.2791 64.4561C26.2907 64.4583 26.3014 64.4643 26.3095 64.473C26.3175 64.4818 26.3225 64.4929 26.3238 64.5048L26.5335 66.7186C26.5344 66.7271 26.5332 66.7358 26.5301 66.7438C26.527 66.7519 26.5221 66.7591 26.5158 66.7649C26.5094 66.7707 26.5018 66.775 26.4935 66.7773C26.4852 66.7797 26.4765 66.7801 26.4681 66.7785L25.2496 66.5455C25.2411 66.544 25.233 66.5405 25.226 66.5353C25.219 66.5301 25.2134 66.5234 25.2095 66.5156C25.2056 66.5078 25.2036 66.4992 25.2036 66.4905C25.2037 66.4819 25.2057 66.4733 25.2097 66.4656Z" fill="#FFFFFE"/>
<path d="M68.6561 68.2999L67.1825 68.5185C67.1473 68.5239 67.1147 68.5406 67.0897 68.566C67.0647 68.5914 67.0486 68.6241 67.0438 68.6594L66.8562 70.071C66.8503 70.1183 66.8237 70.1464 66.7763 70.1553L66.3669 70.2296C66.2751 70.2459 66.2363 70.2082 66.2504 70.1164L67.026 64.9387C67.0298 64.9122 67.0431 64.8879 67.0635 64.8704C67.0838 64.8529 67.11 64.8432 67.137 64.8433H67.6119C67.6311 64.8433 67.6498 64.8486 67.6662 64.8586C67.6827 64.8685 67.6961 64.8828 67.7051 64.8999C68.4582 66.3632 69.2169 67.8213 69.9811 69.2742C70.0351 69.3763 70.0776 69.4817 70.1087 69.5905C70.1235 69.6408 70.1046 69.6678 70.0521 69.6715L69.5627 69.7059C69.5258 69.7088 69.4991 69.6937 69.4829 69.6604L68.8292 68.3898C68.8135 68.3585 68.7883 68.333 68.7572 68.3168C68.7262 68.3007 68.6908 68.2948 68.6561 68.2999ZM67.1514 67.8982C67.1506 67.9053 67.1515 67.9124 67.1539 67.919C67.1564 67.9257 67.1603 67.9317 67.1655 67.9366C67.1707 67.9414 67.1769 67.945 67.1837 67.947C67.1905 67.949 67.1977 67.9494 67.2047 67.9481L68.4664 67.7395C68.4733 67.7383 68.4798 67.7355 68.4855 67.7314C68.4912 67.7272 68.4958 67.7218 68.499 67.7156C68.5022 67.7094 68.504 67.7025 68.5041 67.6955C68.5042 67.6884 68.5027 67.6815 68.4997 67.6752L67.5132 65.63C67.509 65.621 67.502 65.6136 67.4931 65.6089C67.4843 65.6042 67.4742 65.6026 67.4644 65.6042C67.4546 65.6059 67.4455 65.6107 67.4387 65.618C67.4319 65.6252 67.4276 65.6345 67.4266 65.6444L67.1514 67.8982Z" fill="#29176E"/>
<path d="M35.3798 68.7481C34.8649 68.6261 34.3433 68.5625 33.8151 68.5573C33.7818 68.557 33.7491 68.5663 33.7211 68.5843C33.6931 68.6022 33.671 68.6279 33.6575 68.6583L33.1271 69.86C33.1195 69.8778 33.1068 69.893 33.0906 69.9037C33.0744 69.9143 33.0555 69.92 33.0361 69.92H32.6033C32.5926 69.9199 32.582 69.9174 32.5723 69.9127C32.5627 69.908 32.5542 69.9012 32.5475 69.8928C32.5408 69.8844 32.536 69.8746 32.5336 69.8641C32.5312 69.8537 32.5311 69.8428 32.5334 69.8323C32.5564 69.7287 32.6045 69.5978 32.6777 69.4395C33.3583 67.9643 34.0592 66.4992 34.7805 65.044C34.7983 65.007 34.8275 64.9923 34.8682 64.9997L35.3664 65.0862C35.396 65.0914 35.4138 65.1088 35.4197 65.1384L36.3785 70.2873C36.381 70.3013 36.3804 70.3158 36.3766 70.3295C36.3728 70.3433 36.3659 70.356 36.3564 70.3666C36.347 70.3772 36.3353 70.3855 36.3221 70.3908C36.309 70.3961 36.2949 70.3982 36.2808 70.3971L35.8325 70.3616C35.8115 70.36 35.7917 70.3515 35.776 70.3375C35.7604 70.3234 35.7498 70.3046 35.7459 70.2839L35.4907 68.8647C35.4858 68.8367 35.4726 68.8108 35.4529 68.7901C35.4332 68.7694 35.4078 68.7548 35.3798 68.7481ZM34.0038 67.9003C34.0009 67.9066 33.9996 67.9135 33.9999 67.9204C34.0002 67.9273 34.0021 67.934 34.0054 67.94C34.0088 67.946 34.0135 67.9512 34.0191 67.9551C34.0248 67.959 34.0313 67.9615 34.0382 67.9625L35.3209 68.1456C35.3278 68.1465 35.3348 68.1459 35.3414 68.1436C35.348 68.1414 35.3539 68.1376 35.3588 68.1327C35.3636 68.1277 35.3673 68.1217 35.3694 68.115C35.3715 68.1084 35.372 68.1014 35.3709 68.0945L35.0346 65.8552C35.0328 65.8461 35.0282 65.8379 35.0215 65.8316C35.0147 65.8252 35.0062 65.8212 34.997 65.82C34.9878 65.8187 34.9785 65.8204 34.9703 65.8247C34.9622 65.8291 34.9556 65.8358 34.9514 65.8441L34.0038 67.9003Z" fill="#29176E"/>
<path d="M64.4044 67.4635L65.3044 65.1287C65.3085 65.1175 65.3157 65.1078 65.3251 65.1005C65.3345 65.0932 65.3458 65.0888 65.3576 65.0876L65.877 65.0333C65.8879 65.0322 65.8989 65.034 65.9089 65.0385C65.9189 65.0429 65.9276 65.0499 65.9341 65.0588C65.9406 65.0676 65.9446 65.078 65.9459 65.0889C65.9472 65.0998 65.9456 65.1108 65.9413 65.1209L64.6985 68.127C64.6942 68.1372 64.6927 68.1483 64.694 68.1592L64.9415 70.2931C64.9426 70.3021 64.9418 70.3111 64.9391 70.3197C64.9364 70.3283 64.9319 70.3362 64.926 70.343C64.92 70.3497 64.9126 70.3551 64.9044 70.3587C64.8962 70.3624 64.8872 70.3642 64.8782 70.3641H64.4333C64.4178 70.3643 64.4027 70.3587 64.3911 70.3484C64.3794 70.3382 64.3719 70.3241 64.37 70.3087L64.0959 68.2225C64.0947 68.2121 64.0909 68.2022 64.0848 68.1936L62.2017 65.5914C62.1953 65.5827 62.1912 65.5724 62.1899 65.5617C62.1886 65.5509 62.1901 65.54 62.1942 65.53C62.1983 65.5199 62.205 65.5111 62.2135 65.5044C62.222 65.4977 62.2321 65.4933 62.2428 65.4916L62.8009 65.4061C62.8126 65.4044 62.8244 65.406 62.8352 65.4107C62.846 65.4154 62.8553 65.4231 62.862 65.4327L64.2946 67.4768C64.3012 67.4859 64.3101 67.4931 64.3205 67.4976C64.3308 67.5022 64.3422 67.5038 64.3534 67.5025C64.3646 67.5011 64.3753 67.4968 64.3842 67.4899C64.3932 67.4831 64.4002 67.4739 64.4044 67.4635Z" fill="#29176E"/>
<path d="M37.8811 66.6597C37.8768 66.6501 37.8694 66.6422 37.8601 66.6372C37.8507 66.6323 37.8401 66.6306 37.8297 66.6324C37.8193 66.6341 37.8097 66.6393 37.8026 66.6471C37.7954 66.6548 37.7911 66.6647 37.7902 66.6752L37.4129 70.3005C37.4108 70.3206 37.4015 70.3392 37.3869 70.3531C37.3722 70.3669 37.3531 70.375 37.333 70.376L36.929 70.3926C36.8662 70.3949 36.838 70.3649 36.8447 70.3028L37.343 65.4912C37.3508 65.4136 37.3843 65.3408 37.4382 65.2844C37.492 65.2279 37.5632 65.191 37.6403 65.1796C37.7175 65.1681 37.7963 65.1827 37.8642 65.2211C37.9321 65.2594 37.9854 65.3193 38.0154 65.3913L39.6633 69.3418C39.6668 69.3505 39.6731 69.3578 39.6812 69.3625C39.6894 69.3672 39.6988 69.369 39.7081 69.3678C39.7174 69.3665 39.726 69.3622 39.7326 69.3554C39.7391 69.3487 39.7432 69.34 39.7443 69.3307L40.1349 65.5988C40.1368 65.5814 40.1451 65.5652 40.1583 65.5536C40.1714 65.5419 40.1884 65.5355 40.2059 65.5356L40.6476 65.5411C40.6927 65.5411 40.7127 65.5637 40.7075 65.6088L40.1782 70.6002C40.1745 70.6386 40.1538 70.663 40.116 70.6734C39.7898 70.7651 39.5679 70.6638 39.4502 70.3693C38.9494 69.1147 38.4264 67.8781 37.8811 66.6597Z" fill="#29176E"/>
<path d="M67.1512 67.8981L67.4264 65.6443C67.4274 65.6344 67.4316 65.6251 67.4385 65.6179C67.4453 65.6106 67.4543 65.6058 67.4641 65.6041C67.474 65.6025 67.4841 65.6041 67.4929 65.6088C67.5017 65.6134 67.5087 65.6209 67.5129 65.6299L68.4994 67.6751C68.5024 67.6814 68.504 67.6883 68.5038 67.6954C68.5037 67.7024 68.502 67.7093 68.4988 67.7155C68.4955 67.7217 68.4909 67.7271 68.4852 67.7313C68.4796 67.7354 68.473 67.7382 68.4661 67.7394L67.2044 67.948C67.1975 67.9493 67.1903 67.9489 67.1835 67.9469C67.1767 67.9449 67.1704 67.9413 67.1653 67.9365C67.1601 67.9316 67.1561 67.9256 67.1537 67.9189C67.1512 67.9123 67.1504 67.9052 67.1512 67.8981Z" fill="#FFFFFE"/>
<path d="M60.2525 69.372L59.9295 70.8468C59.925 70.8672 59.9136 70.8855 59.8973 70.8986C59.8809 70.9118 59.8606 70.9189 59.8397 70.9189H59.4324C59.4186 70.9189 59.405 70.9158 59.3926 70.9098C59.3801 70.9039 59.3692 70.8952 59.3606 70.8844C59.352 70.8737 59.3459 70.8611 59.3427 70.8477C59.3396 70.8343 59.3395 70.8203 59.3425 70.8068L60.47 65.7201C60.4745 65.6996 60.4859 65.6813 60.5022 65.6682C60.5186 65.6551 60.5389 65.648 60.5598 65.6479H61.0503C61.0682 65.648 61.0858 65.6533 61.1008 65.6631C61.1157 65.673 61.1275 65.687 61.1347 65.7034L63.2186 70.4861C63.2242 70.4989 63.2268 70.5128 63.2262 70.5268C63.2257 70.5408 63.2219 70.5544 63.2153 70.5667C63.2087 70.579 63.1993 70.5896 63.188 70.5978C63.1766 70.6059 63.1636 70.6114 63.1498 70.6138L62.7004 70.6903C62.6799 70.694 62.6588 70.6906 62.6404 70.6808C62.6221 70.6709 62.6076 70.6551 62.5994 70.636L62.0069 69.2477C61.9993 69.2302 61.9865 69.2154 61.9702 69.2055C61.9539 69.1956 61.9349 69.1909 61.9159 69.1923L60.3357 69.2999C60.3159 69.3014 60.2971 69.3092 60.2821 69.3222C60.2671 69.3352 60.2567 69.3526 60.2525 69.372ZM60.3845 68.6874C60.3835 68.6927 60.3837 68.6983 60.3851 68.7036C60.3866 68.7088 60.3892 68.7137 60.3929 68.7178C60.3966 68.7219 60.4011 68.7251 60.4062 68.7271C60.4113 68.7291 60.4168 68.73 60.4222 68.7295L61.6995 68.6219C61.705 68.6215 61.7104 68.6199 61.7151 68.6171C61.7199 68.6143 61.724 68.6105 61.727 68.6058C61.73 68.6012 61.7319 68.5959 61.7325 68.5904C61.7331 68.5849 61.7325 68.5794 61.7305 68.5742L60.9027 66.3837C60.8999 66.3766 60.8949 66.3706 60.8885 66.3666C60.882 66.3626 60.8744 66.3608 60.8668 66.3614C60.8593 66.362 60.8521 66.3651 60.8463 66.3701C60.8406 66.3751 60.8367 66.3818 60.835 66.3892L60.3845 68.6874Z" fill="#29176E"/>
<path d="M43.0751 65.8861C43.079 65.8312 43.1047 65.7802 43.1463 65.7442C43.1879 65.7082 43.2421 65.6902 43.297 65.6941L44.6919 65.7907C44.9406 65.8081 45.183 65.8815 45.4052 66.0067C45.6274 66.1319 45.825 66.3064 45.9868 66.5203C46.1486 66.7342 46.2714 66.9834 46.3481 67.2534C46.4248 67.5235 46.454 67.8093 46.4341 68.0944L46.3752 68.9355C46.3553 69.2206 46.2866 69.4995 46.173 69.7563C46.0594 70.0131 45.9031 70.2427 45.7131 70.432C45.523 70.6213 45.303 70.7666 45.0655 70.8596C44.828 70.9526 44.5778 70.9914 44.329 70.974L42.9341 70.8763C42.8795 70.8724 42.8286 70.8469 42.7926 70.8055C42.7566 70.7641 42.7385 70.7102 42.7422 70.6555L43.0751 65.8861ZM43.6121 66.4765L43.3436 70.1417C43.3409 70.1781 43.3526 70.214 43.3763 70.2417C43.4001 70.2694 43.4338 70.2865 43.4701 70.2893L44.3235 70.3515C44.683 70.378 45.04 70.2378 45.3159 69.9619C45.5919 69.686 45.7642 69.2968 45.7949 68.88L45.8537 68.0833C45.8689 67.8769 45.8488 67.6699 45.7947 67.4742C45.7405 67.2785 45.6534 67.0979 45.5381 66.9427C45.4229 66.7875 45.282 66.6608 45.1232 66.5697C44.9645 66.4787 44.7911 66.4251 44.6131 66.4121L43.7597 66.3489C43.7417 66.3475 43.7235 66.3497 43.7063 66.3554C43.6891 66.3611 43.6731 66.3701 43.6594 66.382C43.6457 66.3938 43.6345 66.4083 43.6264 66.4245C43.6182 66.4407 43.6134 66.4584 43.6121 66.4765Z" fill="#29176E"/>
<path d="M57.7865 70.4238C58.1416 70.3029 58.2137 69.8912 58.1893 69.5583C58.1005 68.3473 58.0158 67.1314 57.9352 65.9108C57.9336 65.8883 57.9408 65.8662 57.9553 65.849C57.9698 65.8318 57.9904 65.8209 58.0128 65.8187L58.4389 65.7743C58.4841 65.7698 58.5081 65.7898 58.5111 65.8342C58.6612 67.8634 58.7485 69.1688 58.773 69.7503C58.8462 71.5102 56.3605 71.6345 56.4537 69.6304C56.4544 69.6133 56.4611 69.597 56.4727 69.5844C56.4843 69.5718 56.5 69.5637 56.517 69.5616L56.8565 69.5206C56.9061 69.5146 56.935 69.5365 56.9431 69.586C57.0119 70.0088 57.185 70.6302 57.7865 70.4238Z" fill="#29176E"/>
<path d="M34.0034 67.9004L34.9511 65.8441C34.9552 65.8359 34.9618 65.8291 34.97 65.8248C34.9782 65.8204 34.9875 65.8187 34.9966 65.82C35.0058 65.8212 35.0144 65.8252 35.0211 65.8316C35.0279 65.8379 35.0325 65.8462 35.0343 65.8552L35.3705 68.0946C35.3716 68.1014 35.3711 68.1084 35.369 68.1151C35.3669 68.1217 35.3633 68.1277 35.3584 68.1327C35.3536 68.1376 35.3476 68.1414 35.3411 68.1436C35.3345 68.1459 35.3275 68.1466 35.3206 68.1456L34.0378 67.9625C34.031 67.9616 34.0245 67.959 34.0188 67.9551C34.0131 67.9512 34.0084 67.9461 34.0051 67.94C34.0017 67.934 33.9998 67.9273 33.9996 67.9204C33.9993 67.9135 34.0006 67.9066 34.0034 67.9004Z" fill="#FFFFFE"/>
<path d="M47.7861 65.9052L47.3713 65.8908C47.3229 65.8891 47.2823 65.9269 47.2806 65.9753L47.1067 70.9547C47.1051 71.0031 47.1429 71.0437 47.1913 71.0454L47.6061 71.0599C47.6545 71.0616 47.695 71.0237 47.6967 70.9753L47.8706 65.9959C47.8723 65.9475 47.8345 65.9069 47.7861 65.9052Z" fill="#29176E"/>
<path d="M55.2898 69.6758L55.1633 66.0006C55.1627 65.9768 55.1714 65.9538 55.1876 65.9363C55.2038 65.9189 55.2261 65.9085 55.2499 65.9074L55.6305 65.8929C55.6904 65.8907 55.7215 65.9196 55.7237 65.9795L55.9057 70.9819C55.9072 71.0241 55.8868 71.0455 55.8446 71.0463L55.3619 71.0574C55.3437 71.0577 55.3257 71.0532 55.3097 71.0442C55.2937 71.0352 55.2803 71.0222 55.2709 71.0063C54.6059 69.907 53.9489 68.8047 53.3002 67.6995C53.2417 67.5996 53.1799 67.5131 53.1148 67.4398C53.1063 67.43 53.0949 67.423 53.0822 67.4199C53.0696 67.4168 53.0563 67.4177 53.0441 67.4224C53.032 67.4271 53.0216 67.4355 53.0144 67.4464C53.0072 67.4572 53.0035 67.4701 53.0039 67.4831L53.1126 71.0618C53.1141 71.1062 53.0926 71.1291 53.0483 71.1306L52.6077 71.145C52.5626 71.1465 52.5397 71.1247 52.5389 71.0796C52.496 69.5364 52.4431 67.9939 52.3802 66.4522C52.3751 66.3117 52.385 66.1718 52.4102 66.0328C52.4169 65.9973 52.4379 65.9795 52.4734 65.9795L52.9184 65.9817C52.9569 65.9817 52.9857 65.9984 53.005 66.0317L55.191 69.7047C55.1971 69.7147 55.2064 69.7224 55.2173 69.7267C55.2282 69.7309 55.2402 69.7314 55.2515 69.7281C55.2627 69.7248 55.2726 69.7179 55.2795 69.7085C55.2864 69.699 55.2901 69.6876 55.2898 69.6758Z" fill="#29176E"/>
<path d="M48.211 70.9808L49.8633 66.0339C49.8686 66.0181 49.8788 66.0043 49.8923 65.9946C49.9058 65.9848 49.9221 65.9795 49.9388 65.9795L50.4548 65.9817C50.4718 65.9816 50.4884 65.9869 50.5021 65.9969C50.5159 66.0069 50.5261 66.021 50.5313 66.0372L52.1226 71.0585C52.1264 71.0704 52.1274 71.0831 52.1254 71.0955C52.1235 71.1078 52.1186 71.1196 52.1113 71.1297C52.1039 71.1399 52.0943 71.1482 52.0832 71.1539C52.072 71.1597 52.0597 71.1627 52.0471 71.1628H51.5578C51.5408 71.1629 51.5242 71.1576 51.5104 71.1476C51.4966 71.1376 51.4864 71.1235 51.4812 71.1073L51.0185 69.6492C51.0133 69.6332 51.0033 69.6192 50.9897 69.6092C50.9762 69.5993 50.9598 69.5938 50.943 69.5937L49.3473 69.5837C49.3303 69.5836 49.3137 69.5889 49.2999 69.5989C49.2862 69.6089 49.2759 69.623 49.2707 69.6392L48.7969 71.0896C48.7911 71.1073 48.7793 71.1225 48.7635 71.1324C48.7476 71.1423 48.7289 71.1464 48.7103 71.1439L48.2754 71.0862C48.2637 71.0846 48.2525 71.0804 48.2426 71.0739C48.2327 71.0674 48.2244 71.0588 48.2182 71.0487C48.2121 71.0387 48.2082 71.0273 48.207 71.0156C48.2057 71.0038 48.2071 70.992 48.211 70.9808ZM49.4782 68.9523C49.4767 68.9574 49.4764 68.9628 49.4772 68.968C49.4781 68.9732 49.4802 68.9782 49.4833 68.9825C49.4864 68.9868 49.4905 68.9903 49.4952 68.9928C49.4999 68.9953 49.5051 68.9966 49.5104 68.9967L50.8087 69.0145C50.814 69.0145 50.8192 69.0133 50.824 69.0109C50.8287 69.0086 50.8329 69.0052 50.8361 69.001C50.8393 68.9969 50.8415 68.992 50.8425 68.9868C50.8436 68.9816 50.8434 68.9763 50.842 68.9712L50.2239 66.7385C50.2218 66.7315 50.2176 66.7254 50.2118 66.7211C50.2059 66.7167 50.1989 66.7142 50.1916 66.7141C50.1843 66.714 50.1772 66.7162 50.1713 66.7204C50.1653 66.7246 50.1608 66.7305 50.1585 66.7374L49.4782 68.9523Z" fill="#29176E"/>
<path d="M60.384 68.6869L60.8345 66.3888C60.8361 66.3813 60.8401 66.3746 60.8458 66.3696C60.8515 66.3646 60.8587 66.3616 60.8663 66.361C60.8739 66.3603 60.8814 66.3622 60.8879 66.3662C60.8944 66.3702 60.8994 66.3762 60.9022 66.3832L61.73 68.5737C61.7319 68.5789 61.7326 68.5845 61.732 68.59C61.7313 68.5955 61.7294 68.6008 61.7264 68.6054C61.7234 68.61 61.7194 68.6139 61.7146 68.6167C61.7098 68.6195 61.7044 68.6211 61.6989 68.6214L60.4217 68.7291C60.4162 68.7295 60.4107 68.7287 60.4056 68.7267C60.4006 68.7246 60.396 68.7215 60.3923 68.7174C60.3887 68.7133 60.386 68.7084 60.3846 68.7031C60.3831 68.6978 60.3829 68.6923 60.384 68.6869Z" fill="#FFFFFE"/>
<path d="M43.6122 66.4769C43.6135 66.4588 43.6183 66.4411 43.6264 66.4249C43.6345 66.4087 43.6457 66.3943 43.6595 66.3824C43.6732 66.3705 43.6891 66.3615 43.7063 66.3558C43.7235 66.3501 43.7417 66.3479 43.7598 66.3493L44.6131 66.4125C44.7912 66.4255 44.9645 66.4791 45.1233 66.5701C45.282 66.6612 45.423 66.7879 45.5382 66.9431C45.6534 67.0983 45.7406 67.2789 45.7947 67.4746C45.8489 67.6703 45.8689 67.8773 45.8537 68.0837L45.7949 68.8804C45.7642 69.2972 45.5919 69.6864 45.316 69.9623C45.04 70.2383 44.683 70.3784 44.3235 70.3519L43.4702 70.2897C43.4338 70.2869 43.4001 70.2698 43.3764 70.2421C43.3527 70.2144 43.3409 70.1785 43.3437 70.1421L43.6122 66.4769Z" fill="#FFFFFE"/>
<path d="M49.4785 68.9521L50.1588 66.7372C50.1611 66.7303 50.1656 66.7243 50.1715 66.7201C50.1775 66.7159 50.1846 66.7137 50.1919 66.7139C50.1992 66.714 50.2062 66.7164 50.212 66.7208C50.2179 66.7252 50.2221 66.7313 50.2242 66.7383L50.8423 68.9709C50.8437 68.976 50.8439 68.9814 50.8428 68.9866C50.8418 68.9917 50.8396 68.9966 50.8364 69.0008C50.8331 69.005 50.829 69.0084 50.8243 69.0107C50.8195 69.013 50.8143 69.0142 50.809 69.0142L49.5107 68.9965C49.5054 68.9963 49.5002 68.995 49.4955 68.9925C49.4908 68.9901 49.4867 68.9866 49.4836 68.9823C49.4805 68.978 49.4784 68.973 49.4775 68.9678C49.4766 68.9625 49.477 68.9572 49.4785 68.9521Z" fill="#FFFFFE"/>
</g>
<defs>
<clipPath id="clip0_59_752">
<rect width="86" height="47.7161" fill="white" transform="translate(7 25.7825)"/>
</clipPath>
</defs>
</svg>
