<svg width="100" height="100" viewBox="0 0 100 100" fill="none" xmlns="http://www.w3.org/2000/svg">
<rect width="100" height="100" fill="#595C62"/>
<path d="M21.1827 51.6836V48.7891H28.6592V55.6328C27.9327 56.3359 26.878 56.957 25.4952 57.4961C24.1202 58.0273 22.7256 58.293 21.3116 58.293C19.5147 58.293 17.9483 57.918 16.6123 57.168C15.2764 56.4102 14.2725 55.332 13.6006 53.9336C12.9287 52.5273 12.5928 51 12.5928 49.3516C12.5928 47.5625 12.9678 45.9727 13.7178 44.582C14.4678 43.1914 15.5655 42.125 17.0108 41.3828C18.1123 40.8125 19.4834 40.5273 21.1241 40.5273C23.2569 40.5273 24.9209 40.9766 26.1162 41.875C27.3194 42.7656 28.0928 44 28.4366 45.5781L24.9912 46.2227C24.7491 45.3789 24.292 44.7148 23.6202 44.2305C22.9561 43.7383 22.1241 43.4922 21.1241 43.4922C19.6084 43.4922 18.4014 43.9727 17.503 44.9336C16.6123 45.8945 16.167 47.3203 16.167 49.2109C16.167 51.25 16.6202 52.7812 17.5264 53.8047C18.4327 54.8203 19.6202 55.3281 21.0889 55.3281C21.8155 55.3281 22.542 55.1875 23.2686 54.9062C24.003 54.6172 24.6319 54.2695 25.1553 53.8633V51.6836H21.1827ZM32.2184 40.8203H38.5583C39.988 40.8203 41.0778 40.9297 41.8278 41.1484C42.8356 41.4453 43.6989 41.9727 44.4177 42.7305C45.1364 43.4883 45.6833 44.418 46.0583 45.5195C46.4333 46.6133 46.6208 47.9648 46.6208 49.5742C46.6208 50.9883 46.445 52.207 46.0934 53.2305C45.6637 54.4805 45.0505 55.4922 44.2536 56.2656C43.652 56.8516 42.8395 57.3086 41.8161 57.6367C41.0505 57.8789 40.027 58 38.7458 58H32.2184V40.8203ZM35.6872 43.7266V55.1055H38.277C39.2458 55.1055 39.945 55.0508 40.3747 54.9414C40.9372 54.8008 41.402 54.5625 41.7692 54.2266C42.1442 53.8906 42.4489 53.3398 42.6833 52.5742C42.9177 51.8008 43.0348 50.75 43.0348 49.4219C43.0348 48.0938 42.9177 47.0742 42.6833 46.3633C42.4489 45.6523 42.1208 45.0977 41.6989 44.6992C41.277 44.3008 40.7419 44.0312 40.0934 43.8906C39.6091 43.7812 38.6598 43.7266 37.2458 43.7266H35.6872ZM52.3714 58L48.2698 40.8203H51.8206L54.4105 52.6211L57.5511 40.8203H61.6761L64.6878 52.8203L67.3245 40.8203H70.8167L66.6448 58H62.9652L59.5433 45.1562L56.1331 58H52.3714ZM72.9345 40.8203H76.4033V50.125C76.4033 51.6016 76.4463 52.5586 76.5322 52.9961C76.6806 53.6992 77.0322 54.2656 77.5869 54.6953C78.1494 55.1172 78.915 55.3281 79.8838 55.3281C80.8681 55.3281 81.6103 55.1289 82.1103 54.7305C82.6103 54.3242 82.9111 53.8281 83.0127 53.2422C83.1142 52.6562 83.165 51.6836 83.165 50.3242V40.8203H86.6338V49.8438C86.6338 51.9062 86.54 53.3633 86.3525 54.2148C86.165 55.0664 85.8173 55.7852 85.3095 56.3711C84.8095 56.957 84.1377 57.4258 83.2939 57.7773C82.4502 58.1211 81.3486 58.293 79.9892 58.293C78.3486 58.293 77.1025 58.1055 76.2509 57.7305C75.4072 57.3477 74.7392 56.8555 74.247 56.2539C73.7548 55.6445 73.4306 55.0078 73.2744 54.3438C73.0478 53.3594 72.9345 51.9062 72.9345 49.9844V40.8203Z" fill="#F8F8F8"/>
</svg>
