<svg width="100" height="100" viewBox="0 0 100 100" fill="none" xmlns="http://www.w3.org/2000/svg">
<rect width="100" height="100" fill="#213168"/>
<path d="M58.0728 44.7427C58.0518 44.9317 58.5736 45.0792 58.708 45.1138C58.7169 45.116 58.725 45.1206 58.7316 45.127C58.7381 45.1334 58.7428 45.1414 58.7452 45.1502C58.7476 45.159 58.7476 45.1683 58.7453 45.1772C58.7429 45.186 58.7382 45.194 58.7316 45.2005C58.3867 45.5438 58.005 45.5533 57.5488 45.6184C57.5373 45.62 57.5266 45.6252 57.5181 45.6331C57.5096 45.641 57.5037 45.6513 57.5012 45.6626C57.4987 45.674 57.4997 45.6858 57.5041 45.6965C57.5085 45.7073 57.516 45.7165 57.5257 45.7228C57.5929 45.7666 57.6666 45.7934 57.7467 45.8032C57.7605 45.8047 57.7735 45.8102 57.7842 45.8191C57.7948 45.828 57.8026 45.8399 57.8065 45.8531C57.8104 45.8664 57.8103 45.8806 57.8062 45.8938C57.8021 45.9071 57.7942 45.9188 57.7835 45.9276C57.5593 46.1134 56.9472 46.2767 56.6941 46.2247C56.5265 46.1901 56.3457 46.1418 56.1518 46.0798C56.0863 46.0592 56.0449 46.0819 56.0274 46.1481C55.9822 46.3171 56.0394 46.5114 56.0158 46.6715C55.9759 46.9389 55.8858 47.1984 55.7454 47.4501C55.7365 47.466 55.7242 47.4798 55.7095 47.4905C55.6948 47.5013 55.6779 47.5087 55.66 47.5124C55.6421 47.516 55.6236 47.5158 55.6059 47.5116C55.5881 47.5075 55.5714 47.4996 55.557 47.4884L55.3176 47.3031C55.3065 47.2945 55.2933 47.2892 55.2794 47.2876C55.2656 47.2861 55.2515 47.2885 55.2388 47.2944C55.2261 47.3004 55.2153 47.3097 55.2075 47.3214C55.1997 47.3332 55.1953 47.3468 55.1947 47.3608C55.1821 47.6818 55.096 47.9817 54.9364 48.2607C54.9306 48.2709 54.9225 48.2796 54.9128 48.2861C54.903 48.2927 54.8919 48.2969 54.8802 48.2985C54.8686 48.3001 54.8567 48.2989 54.8455 48.2952C54.8343 48.2915 54.8241 48.2852 54.8157 48.277L54.4707 47.9378C54.4624 47.9295 54.452 47.9235 54.4406 47.9204C54.4292 47.9173 54.4173 47.9172 54.4058 47.92C54.3944 47.9229 54.3839 47.9286 54.3753 47.9367C54.3667 47.9448 54.3603 47.9549 54.3568 47.9662C54.1967 48.4738 54.024 48.9248 53.6764 49.3369C53.6707 49.3437 53.6633 49.3489 53.6551 49.3521C53.6468 49.3553 53.6379 49.3564 53.6292 49.3553C53.3199 49.3138 53.0506 48.5547 53.0175 48.3132C52.9482 47.8045 52.9965 47.4433 53.0312 46.9912C53.0385 46.8936 53.1057 46.797 53.0328 46.6894C52.5991 46.0462 52.5204 45.2031 52.8658 44.5185C53.2989 43.6612 54.1972 43.29 55.107 43.2149C55.8063 43.1572 56.4533 43.1493 57.048 43.1913C59.2183 43.3446 61.3845 43.4911 63.3994 43.06C63.4673 43.0453 63.5181 43.0529 63.5517 43.0826C63.5793 43.1068 63.5875 43.1479 63.5763 43.206C63.3207 44.5421 61.626 44.854 60.525 44.8582C59.8019 44.8613 59.103 44.8174 58.4282 44.7264C58.3195 44.7122 58.2087 44.7169 58.1011 44.7169C58.084 44.7169 58.0745 44.7255 58.0728 44.7427ZM55.0923 44.6891C55.2523 44.7042 55.4031 44.683 55.5449 44.6256C55.6898 44.5668 55.799 44.4308 55.9103 44.3158C55.9225 44.3033 55.9387 44.2955 55.956 44.2938C56.1229 44.2791 56.2813 44.2341 56.4311 44.1589C56.4388 44.1549 56.4453 44.1489 56.4499 44.1416C56.4544 44.1343 56.4568 44.1259 56.4568 44.1174V44.0077C56.4568 43.9881 56.4468 43.9777 56.4269 43.9767L55.652 43.9389C55.6317 43.9378 55.6149 43.945 55.6016 43.9604C55.5043 44.0728 55.3895 44.165 55.2572 44.2371C55.24 44.2465 55.2215 44.2511 55.2015 44.2507L54.8204 44.2418C54.7973 44.2415 54.7798 44.2513 54.7679 44.2712C54.5967 44.5615 54.4455 44.698 54.1017 44.7374C54.0824 44.7399 54.0721 44.7507 54.0707 44.77C54.0591 44.9364 54.2907 44.8996 54.3899 44.9285C54.591 44.9878 54.8377 44.897 55.0062 44.7873C55.0117 44.7839 55.0161 44.7789 55.0188 44.7731L55.0482 44.7138C55.057 44.6952 55.0717 44.687 55.0923 44.6891ZM53.9709 45.9449C53.9562 45.8984 53.9258 45.8676 53.8796 45.8525C53.7669 45.8154 53.6507 45.8004 53.531 45.8074C53.5212 45.808 53.5113 45.8053 53.5032 45.7995L53.4081 45.736C53.3867 45.7216 53.3607 45.7155 53.3351 45.7188C53.3095 45.7222 53.286 45.7347 53.2689 45.7541C53.2518 45.7735 53.2424 45.7984 53.2423 45.8242C53.2422 45.85 53.2515 45.875 53.2685 45.8945C53.3551 45.9943 53.4108 46.0331 53.552 46.1208C53.7074 46.2174 53.6397 46.3581 53.7373 46.4783C53.7819 46.5334 53.8549 46.5392 53.8901 46.5922C53.9005 46.6081 53.9154 46.6205 53.9328 46.628C53.9503 46.6354 53.9695 46.6375 53.9882 46.6341C54.0069 46.6306 54.0242 46.6217 54.038 46.6085C54.0517 46.5952 54.0612 46.5783 54.0654 46.5597C54.0861 46.4673 54.0682 46.3642 54.0119 46.2505C54.0045 46.2358 54.0014 46.2204 54.0024 46.2043C54.0084 46.1168 53.9979 46.0303 53.9709 45.9449Z" fill="#FFE400"/>
<path d="M52.1161 45.5338C52.0768 45.7911 52.1697 46.0383 52.2001 46.2867C52.2068 46.3388 52.1874 46.378 52.1419 46.4043L49.9747 47.6616C49.9591 47.6706 49.9406 47.6732 49.9232 47.6688C49.9059 47.6643 49.891 47.6533 49.8817 47.638L49.1856 46.493C49.1551 46.4426 49.1653 46.4027 49.216 46.3733C50.0693 45.8787 50.9176 45.3926 51.7607 44.9148C51.9137 44.8284 52.0652 44.7503 52.2154 44.6807C52.221 44.6782 52.2272 44.6772 52.2333 44.678C52.2395 44.6788 52.2453 44.6812 52.2501 44.6851C52.2549 44.6889 52.2586 44.694 52.2607 44.6998C52.2628 44.7056 52.2633 44.7119 52.2621 44.718C52.2061 44.9927 52.1574 45.2647 52.1161 45.5338Z" fill="#FFE400"/>
<path d="M21.9178 54.0633C20.3754 53.4884 19.7622 52.062 20.0105 50.5064C20.5061 47.3994 23.4346 45.5304 26.4801 46.5673C27.8005 47.0167 28.6305 48.1838 28.4872 49.5981C28.1921 52.5024 25.9042 54.6885 22.8712 54.267C22.5494 54.2223 22.2082 54.1714 21.9178 54.0633ZM22.9447 52.8936C23.0398 53.2894 23.496 53.4186 23.8404 53.2201C24.0406 53.105 24.1697 52.935 24.2278 52.7103C24.6132 51.2214 24.9938 49.7315 25.3697 48.2405C25.5855 47.3863 24.6148 47.3286 24.2305 47.8147C24.1636 47.8994 24.1101 48.0228 24.0698 48.1848C23.8497 49.0679 23.6267 49.9502 23.401 50.8319C23.395 50.855 23.3866 50.8987 23.3758 50.9631C23.3563 51.0776 23.3007 51.2031 23.2807 51.285C23.1775 51.7088 23.072 52.1318 22.9642 52.5539C22.9295 52.69 22.923 52.8033 22.9447 52.8936Z" fill="#FFE400"/>
<path d="M30.8608 47.8375C31.967 46.5959 33.5231 46.0955 35.1658 46.337C36.922 46.5948 38.2728 47.7635 38.0586 49.6724C37.9452 50.6818 37.6039 51.5855 37.0348 52.3835C35.8095 54.1013 33.5525 54.6935 31.5643 54.0813C30.6356 53.7957 29.9011 52.9877 29.6434 52.0826C29.5569 51.7781 29.5223 51.4318 29.5394 51.0437C29.5933 49.8344 30.0338 48.7657 30.8608 47.8375ZM34.3174 47.5241C34.025 47.5561 33.8764 47.7104 33.7242 47.9383C33.7151 47.9523 33.7084 47.9672 33.7042 47.9829C33.3133 49.5194 32.9227 51.0559 32.5324 52.5924C32.5069 52.6932 32.4964 52.7966 32.5009 52.9027C32.5016 52.9202 32.5076 52.9356 32.5188 52.9489C32.5996 53.0486 32.6338 53.1615 32.7456 53.2235C33.0622 53.3972 33.426 53.2859 33.6764 53.0497C33.6873 53.0395 33.6941 53.0258 33.6958 53.0108C33.6997 52.9762 33.7175 52.9501 33.7494 52.9326C33.7613 52.9261 33.7709 52.916 33.7767 52.9037C33.8383 52.7746 33.8801 52.6677 33.9022 52.583C34.137 51.6856 34.4734 50.3598 34.9112 48.6056C35.0157 48.185 35.1317 47.9036 34.7658 47.5676C34.7514 47.5543 34.7343 47.5479 34.7143 47.5482C34.645 47.5493 34.5862 47.527 34.5379 47.4815C34.5246 47.4689 34.5089 47.463 34.4907 47.4637C34.4438 47.4651 34.4025 47.4789 34.3668 47.5052C34.3521 47.516 34.3356 47.5223 34.3174 47.5241Z" fill="#FFE400"/>
<path d="M14.7081 53.0003C14.9297 52.2181 15.1549 51.4077 15.3838 50.5691C15.3964 50.5244 15.4405 50.4761 15.4421 50.4399C15.4477 50.315 15.4835 50.2035 15.5497 50.1055C15.5555 50.0969 15.5633 50.0899 15.5725 50.0851C15.5816 50.0802 15.5918 50.0777 15.6022 50.0777L18.7884 50.0687C18.7995 50.0687 18.8104 50.0712 18.8203 50.0761C18.8302 50.0809 18.8389 50.0879 18.8457 50.0966C18.8525 50.1052 18.8572 50.1153 18.8595 50.126C18.8617 50.1368 18.8615 50.1479 18.8588 50.1585C18.5448 51.4073 18.226 52.6521 17.9022 53.8928C17.8903 53.9394 17.8833 53.9875 17.8812 54.0372C17.8805 54.0537 17.8719 54.0617 17.8555 54.0614C17.7974 54.0614 17.7489 54.0817 17.7101 54.1223C17.6989 54.1337 17.6838 54.1403 17.6681 54.1406C16.0507 54.141 14.4337 54.1408 12.8171 54.1401C11.912 54.1394 11.2081 53.802 10.7055 53.1279C10.2792 52.5551 10.2425 51.7571 10.264 51.0741C10.3144 49.4818 11.1528 48.016 12.5199 47.197C13.4607 46.6335 14.5135 46.3675 15.6783 46.399C16.4354 46.4189 17.1278 46.5434 17.7379 46.9728C17.755 46.9849 17.7672 47.0027 17.7723 47.023C17.7774 47.0434 17.7751 47.0648 17.7657 47.0836L17.2806 48.0585C17.2778 48.0641 17.2739 48.0691 17.2691 48.0731C17.2642 48.0771 17.2586 48.0801 17.2526 48.0817C17.2465 48.0834 17.2402 48.0838 17.234 48.0829C17.2278 48.082 17.2219 48.0797 17.2166 48.0764C16.8816 47.8658 16.5089 47.6443 16.1335 47.5713C15.6951 47.4857 15.0368 47.5256 14.7338 47.9021C14.6635 47.9896 14.6045 48.1224 14.5569 48.3005C14.1999 49.6372 13.8469 50.9747 13.498 52.3131C13.443 52.5231 13.4145 52.7035 13.4124 52.8544C13.4121 52.8719 13.4166 52.8878 13.4261 52.9022C13.6581 53.2481 14.1626 53.1652 14.5181 53.1505C14.5615 53.1487 14.6032 53.1332 14.6373 53.1062C14.6715 53.0793 14.6962 53.0422 14.7081 53.0003Z" fill="#FFE400"/>
<path d="M43.2512 54.1485C41.4971 54.1301 40.0733 54.1663 38.4532 54.1506C38.4294 54.1502 38.4175 54.1381 38.4175 54.1143C38.417 53.8734 38.5041 53.6492 38.5545 53.4507C39.1418 51.1379 39.7323 48.8283 40.3259 46.5218C40.3293 46.5086 40.3371 46.4969 40.3479 46.4885C40.3587 46.4801 40.372 46.4756 40.3857 46.4756C41.8977 46.4756 43.4141 46.4756 44.9348 46.4756C45.2582 46.4756 45.5085 46.499 45.6856 46.5459C46.702 46.8153 47.4386 47.7324 47.5289 48.7782C47.5388 48.899 47.5735 49.0297 47.5735 49.1415C47.578 50.3357 47.2329 51.3936 46.5382 52.3152C45.9145 53.1431 45.0062 53.9112 43.9552 54.1086C43.7949 54.1387 43.5602 54.152 43.2512 54.1485ZM43.2764 47.7492L41.9801 52.9142C41.963 52.9821 41.9894 53.0153 42.0594 53.0139C42.512 53.005 43.2401 53.1762 43.4039 52.5567C43.7263 51.3355 44.0486 50.1144 44.371 48.8932C44.4959 48.4186 44.5831 48.2123 44.4555 47.8296C44.4507 47.8146 44.441 47.8015 44.4277 47.7923C44.0922 47.5539 43.7998 47.6138 43.4412 47.6185C43.4032 47.6191 43.3665 47.6322 43.3367 47.6559C43.3069 47.6795 43.2857 47.7123 43.2764 47.7492Z" fill="#FFE400"/>
<path d="M56.7151 46.5664C56.7161 46.5608 56.7196 46.5579 56.7256 46.5575C56.9881 46.5507 57.26 46.5166 57.5094 46.516C58.2587 46.5146 59.0081 46.5145 59.7574 46.5155C59.8876 46.5155 60.0919 46.494 60.2604 46.5265C60.2794 46.5304 60.2969 46.5393 60.3112 46.5523C60.3255 46.5654 60.3358 46.5821 60.3412 46.6006L61.0841 49.0849C61.0884 49.0991 61.0963 49.1118 61.1072 49.1219C61.118 49.132 61.1314 49.1389 61.1459 49.1421C61.1603 49.1453 61.1754 49.1445 61.1894 49.1399C61.2035 49.1353 61.2161 49.127 61.2259 49.1158C61.9364 48.3133 62.6397 47.4969 63.3358 46.6667C63.3789 46.6153 63.4403 46.5722 63.4923 46.5323C63.5062 46.5214 63.5234 46.5155 63.5411 46.5155L65.0431 46.5139C65.0587 46.5139 65.0739 46.5183 65.087 46.5266C65.1001 46.5349 65.1106 46.5468 65.1172 46.5609C65.1237 46.575 65.1261 46.5907 65.1241 46.6061C65.122 46.6215 65.1156 46.636 65.1056 46.6478L61.7146 50.7244C61.6665 50.7826 61.6313 50.8502 61.6112 50.9229L60.7276 54.1265C60.7227 54.1446 60.7108 54.1538 60.6919 54.1538H57.1781C57.1113 54.1538 57.0859 54.1212 57.102 54.0561C57.375 52.9718 57.6394 51.9356 57.8953 50.9476C57.9499 50.7365 57.8769 50.5675 57.8139 50.3569C57.4488 49.1333 57.0845 47.9096 56.7208 46.6856C56.71 46.6496 56.7081 46.6098 56.7151 46.5664Z" fill="#FFE400"/>
<path d="M75.7105 52.9857H73.0535C73.0403 52.9856 73.0274 52.989 73.0158 52.9954C73.0042 53.0019 72.9944 53.0111 72.9874 53.0224L72.2849 54.1438C72.2825 54.1475 72.2791 54.1506 72.2752 54.1527C72.2713 54.1548 72.2668 54.1559 72.2623 54.1559L70.8832 54.1491C70.8384 54.1487 70.8265 54.1288 70.8475 54.0892C70.9036 53.9821 70.9603 53.8645 71.0239 53.7621C72.5121 51.3583 73.9948 48.9565 75.4722 46.5565C75.4799 46.544 75.4907 46.5337 75.5035 46.5265C75.5164 46.5193 75.5309 46.5156 75.5457 46.5156C76.4368 46.5145 77.3365 46.5147 78.2447 46.5161C78.3408 46.5161 78.4778 46.4725 78.5923 46.5371C78.6091 46.5465 78.6187 46.5609 78.6211 46.5801C78.681 47.0418 78.7251 47.5038 78.7534 47.9661C78.7797 48.3961 78.8548 48.9201 78.8605 49.4025C78.8621 49.4955 78.901 49.5789 78.9025 49.6661C78.9074 49.9016 78.9263 50.1361 78.9592 50.3696C79.0112 50.735 79.0012 51.0957 79.0464 51.4658C79.0716 51.67 79.0579 51.8784 79.0931 52.0795C79.1818 52.5919 79.185 53.1558 79.2291 53.6776C79.2349 53.7427 79.2118 53.8908 79.2548 53.9538C79.2669 53.9715 79.2736 53.9922 79.2743 54.0136C79.2749 54.035 79.2694 54.0563 79.2583 54.0753C79.2472 54.0943 79.231 54.1103 79.2115 54.1214C79.1919 54.1325 79.1697 54.1385 79.1472 54.1386L75.982 54.1575C75.8969 54.1582 75.8519 54.116 75.847 54.0309L75.7924 53.0634C75.7914 53.0424 75.7823 53.0226 75.767 53.0081C75.7518 52.9937 75.7315 52.9856 75.7105 52.9857ZM75.584 51.7278C75.5924 51.7316 75.5985 51.733 75.6024 51.732C75.6222 51.7261 75.6394 51.7135 75.651 51.6964C75.6626 51.6792 75.6679 51.6586 75.6659 51.638C75.6012 50.9394 75.5378 50.2642 75.4759 49.6125C75.4664 49.5152 75.4456 49.4092 75.4134 49.2944C75.4107 49.285 75.4061 49.2764 75.3997 49.2691C75.3934 49.2617 75.3855 49.2559 75.3767 49.252C75.3679 49.2481 75.3583 49.2462 75.3486 49.2464C75.339 49.2467 75.3296 49.2491 75.321 49.2534C75.2401 49.2944 75.2123 49.359 75.164 49.4314C74.6957 50.1353 74.2458 50.8647 73.8142 51.6196C73.8081 51.6303 73.805 51.6423 73.805 51.6546C73.8051 51.6668 73.8084 51.6788 73.8145 51.6894C73.8207 51.7 73.8295 51.7088 73.8402 51.7149C73.8508 51.721 73.8629 51.7241 73.8751 51.7241L75.5483 51.7194C75.5609 51.7194 75.5728 51.7222 75.584 51.7278Z" fill="#FFE400"/>
<path d="M82.1175 46.7244C82.1616 46.5412 82.2172 46.5039 82.4025 46.5034C84.127 46.5013 85.8518 46.5009 87.5769 46.5023C88.8322 46.5028 90.0318 47.4646 89.9515 48.7855C89.8817 49.9279 89.2344 50.6902 88.324 51.3202C88.2054 51.4025 88.1618 51.5166 88.1933 51.6625C88.3567 52.415 88.5363 53.1889 88.7319 53.9841C88.7582 54.0915 88.716 54.1453 88.6054 54.1453L85.2228 54.14C85.2138 54.14 85.2049 54.137 85.1978 54.1314C85.1906 54.1257 85.1856 54.1179 85.1835 54.109C85.017 53.4103 84.8595 52.6889 84.649 52.0017C84.597 51.8316 84.4737 51.8668 84.334 51.8704C84.3169 51.8708 84.3027 51.8778 84.2915 51.8914C84.2009 52.001 84.1587 52.1275 84.165 52.271C84.1657 52.2871 84.1611 52.3013 84.1513 52.3135C84.1286 52.3415 84.1109 52.3816 84.0983 52.4338C84.0153 52.7708 83.8585 53.3369 83.6279 54.1321C83.6237 54.1465 83.6142 54.1537 83.5995 54.1537H80.2138C80.2049 54.1536 80.1962 54.1516 80.1882 54.1476C80.1802 54.1437 80.1733 54.1379 80.1679 54.1308C80.1624 54.1237 80.1587 54.1155 80.1569 54.1067C80.1552 54.0979 80.1554 54.0888 80.1577 54.0802C80.7525 51.8416 81.2985 49.7531 81.7657 48.0668C81.9169 47.5215 82.0342 47.074 82.1175 46.7244ZM85.3305 47.6211C85.3025 47.6823 85.2836 47.7341 85.2738 47.7765C85.11 48.4628 84.9427 49.1485 84.7719 49.8334C84.7047 50.1043 84.6499 50.3565 84.6075 50.59C84.5953 50.6575 84.6235 50.6908 84.6921 50.6897L85.593 50.6755C85.6133 50.6752 85.632 50.6694 85.6491 50.6582L85.8822 50.5054C85.8994 50.4942 85.9118 50.4788 85.9195 50.4592C86.1721 49.8182 86.3012 49.1305 86.4781 48.4642C86.5448 48.2117 86.5763 47.8348 86.3505 47.6773C86.1631 47.5471 85.5809 47.6001 85.3494 47.6085C85.3453 47.6086 85.3414 47.6099 85.338 47.6121C85.3347 47.6143 85.3321 47.6174 85.3305 47.6211Z" fill="#FFE400"/>
<path d="M69.0461 47.9266L68.6324 49.5268C68.6304 49.5347 68.6302 49.543 68.6318 49.5509C68.6334 49.5589 68.6368 49.5664 68.6417 49.5729C68.6466 49.5793 68.6529 49.5846 68.6601 49.5883C68.6673 49.5919 68.6752 49.5939 68.6833 49.594L70.2882 49.6197C70.3046 49.62 70.3208 49.6239 70.3356 49.6311C70.3503 49.6384 70.3633 49.6488 70.3735 49.6616C70.3837 49.6744 70.391 49.6892 70.3948 49.7052C70.3986 49.7211 70.3987 49.7376 70.3953 49.7536C70.3337 50.0459 70.2665 50.3267 70.1937 50.5962C70.1265 50.8461 70.1234 50.9984 69.8462 51C69.3446 51.0028 68.8482 51.0042 68.3568 51.0042C68.3143 51.0042 68.2731 51.0184 68.2397 51.0444C68.2064 51.0705 68.1827 51.107 68.1725 51.148L67.7667 52.7624C67.7639 52.7733 67.7637 52.7847 67.7661 52.7957C67.7684 52.8067 67.7732 52.8171 67.78 52.8259C67.7869 52.8348 67.7957 52.8419 67.8058 52.8469C67.8158 52.8518 67.8269 52.8543 67.8381 52.8543H70.4095C70.4178 52.8542 70.426 52.856 70.4335 52.8595C70.441 52.863 70.4477 52.868 70.4531 52.8744C70.4585 52.8807 70.4625 52.8882 70.4647 52.8962C70.467 52.9042 70.4675 52.9127 70.4662 52.9209C70.4004 53.3287 70.3036 53.7284 70.1759 54.12C70.1692 54.1396 70.1558 54.1494 70.1355 54.1494L64.0339 54.1557C63.9541 54.1557 63.9244 54.1172 63.9447 54.0402L65.884 46.5837C65.8891 46.564 65.9007 46.5466 65.9168 46.5341C65.933 46.5217 65.9528 46.5149 65.9733 46.5149H72.0281C72.131 46.5149 72.1711 46.5649 72.1483 46.665L71.8858 47.8242C71.8833 47.8356 71.8765 47.8456 71.8668 47.852C71.8571 47.8585 71.8453 47.8609 71.8338 47.8589C71.6853 47.8332 71.5535 47.8925 71.4222 47.893C71.0946 47.8937 70.767 47.8932 70.4394 47.8914C70.424 47.8914 70.403 47.8836 70.3764 47.8678C70.3614 47.8591 70.3453 47.8547 70.3281 47.8547C70.0156 47.8543 69.703 47.8538 69.3905 47.8531C69.2797 47.8531 69.1915 47.8878 69.0797 47.8983C69.0618 47.9 69.0506 47.9095 69.0461 47.9266Z" fill="#FFE400"/>
<path d="M50.8803 47.7667C50.9549 47.683 51.0308 47.6169 51.1082 47.5682C51.5345 47.3001 51.9723 47.0492 52.4217 46.8154C52.4284 46.8118 52.4359 46.8102 52.4434 46.8106C52.4509 46.8111 52.4581 46.8136 52.4643 46.8178C52.4705 46.8221 52.4754 46.828 52.4784 46.8349C52.4815 46.8418 52.4826 46.8494 52.4816 46.8568L52.3713 47.7509C52.3665 47.7914 52.3467 47.8285 52.3158 47.8551C52.2848 47.8816 52.2451 47.8956 52.2044 47.8942C51.777 47.8813 51.353 47.8524 50.9323 47.8076C50.9092 47.8052 50.8919 47.7969 50.8803 47.7829C50.8785 47.7806 50.8774 47.7776 50.8774 47.7747C50.8774 47.7717 50.8785 47.7689 50.8803 47.7667Z" fill="#FFE400"/>
<path d="M50.2377 48.2185C50.238 48.2128 50.2404 48.2076 50.2445 48.2038C50.2679 48.1804 50.294 48.1771 50.3227 48.1939C50.335 48.2012 50.3483 48.2054 50.3626 48.2065C50.881 48.2457 51.3967 48.3074 51.9098 48.3918C51.9137 48.3925 51.9173 48.3944 51.9201 48.3972C51.9229 48.4 51.9249 48.4035 51.9256 48.4074C51.9264 48.4113 51.926 48.4154 51.9245 48.419C51.923 48.4227 51.9204 48.4258 51.9171 48.428C51.3809 48.763 50.8248 49.0596 50.2487 49.3179C50.1871 49.3455 50.1587 49.3258 50.1636 49.2586L50.2377 48.2185Z" fill="#FFE400"/>
<path d="M54.2425 49.4855C54.281 49.4369 54.3172 49.4034 54.3512 49.3852C54.3918 49.3632 54.4235 49.3721 54.4462 49.412L54.9896 50.357C55.0031 50.3806 55.007 50.4086 55.0002 50.435C54.9934 50.4614 54.9766 50.4841 54.9534 50.4982C53.8495 51.1786 52.8061 51.9409 51.8233 52.7851C51.8193 52.7885 51.8145 52.791 51.8094 52.7923C51.8043 52.7936 51.799 52.7938 51.7938 52.7927C51.7887 52.7917 51.7838 52.7896 51.7797 52.7864C51.7755 52.7833 51.7721 52.7793 51.7698 52.7746C51.3407 51.9479 50.9182 51.1127 50.5024 50.2688C50.4485 50.1596 50.4084 50.0732 50.3822 50.0095C50.3507 49.9339 50.3705 49.8758 50.4415 49.8352C51.102 49.4561 51.7769 49.1038 52.4664 48.7783C52.4728 48.7753 52.4797 48.7736 52.4868 48.7735C52.4938 48.7733 52.5008 48.7746 52.5073 48.7773C52.5138 48.7801 52.5197 48.7841 52.5245 48.7893C52.5293 48.7944 52.5329 48.8005 52.5352 48.8072C52.7165 49.3361 53.0054 49.797 53.402 50.1901C53.4177 50.2058 53.4383 50.2158 53.4603 50.2185C53.4824 50.2212 53.5048 50.2163 53.5238 50.2048C53.8288 50.0221 54.0252 49.7611 54.2425 49.4855Z" fill="#FFE400"/>
<path d="M46.9666 56.6649C46.6359 56.741 46.6737 56.2591 46.7325 56.0932C46.7647 56.0018 46.849 55.8818 46.9855 55.733C47.5147 55.156 48.119 54.5754 48.349 53.8756C48.7511 52.6523 49.2031 51.4343 49.8226 50.3108C49.8304 50.2969 49.8417 50.2853 49.8555 50.2773C49.8693 50.2693 49.885 50.2652 49.901 50.2654C49.9169 50.2656 49.9325 50.2701 49.9461 50.2785C49.9596 50.2869 49.9707 50.2988 49.978 50.3129L51.3913 53.0613C51.4009 53.0795 51.4045 53.1003 51.4018 53.1207C51.3991 53.1411 51.3901 53.1601 51.3761 53.1752C50.7983 53.8073 50.1931 54.4287 49.5607 55.0395C48.8719 55.7041 47.9153 56.4454 46.9666 56.6649Z" fill="#FFE400"/>
<path d="M47.2298 57.4522C47.15 57.3738 47.0973 57.2803 47.0717 57.1718C47.0694 57.1628 47.07 57.1531 47.0733 57.1442C47.0767 57.1353 47.0827 57.1275 47.0906 57.122C47.1347 57.091 47.1857 57.0443 47.234 57.0227C48.0808 56.6453 48.6814 56.3203 49.3455 55.7895C50.9268 54.5253 52.0881 52.9246 53.8369 51.7481C54.3017 51.4352 54.7691 51.1308 55.2392 50.8351C55.253 50.8264 55.2696 50.8233 55.2855 50.8263C55.3015 50.8293 55.3157 50.8383 55.3253 50.8514L55.4927 51.0803C55.4971 51.0864 55.5002 51.0933 55.5019 51.1006C55.5035 51.1079 55.5036 51.1155 55.5022 51.1229C55.5007 51.1302 55.4978 51.1372 55.4936 51.1433C55.4893 51.1494 55.4839 51.1546 55.4775 51.1585C53.4584 52.4027 51.8135 54.0323 50.1283 55.673C49.3908 56.3905 48.5155 56.9611 47.5022 57.385C47.4471 57.4081 47.3668 57.4622 47.2865 57.4716C47.2644 57.4741 47.2455 57.4676 47.2298 57.4522Z" fill="#FFE400"/>
</svg>
