<svg width="100" height="100" viewBox="0 0 100 100" fill="none" xmlns="http://www.w3.org/2000/svg">
<rect width="100" height="100" fill="#492E25"/>
<path d="M25.6459 51.881L22.2146 51.866C22.0871 51.866 22.0234 51.8023 22.0234 51.6748V48.1985C22.0234 48.0735 22.0859 48.011 22.2109 48.011H30.2734C30.4009 48.011 30.4647 48.0735 30.4647 48.1985L30.4684 59.4598C30.4683 59.515 30.4517 59.5687 30.4209 59.6137C30.39 59.6586 30.3464 59.6926 30.2959 59.7111C25.4846 61.5261 18.4684 61.8673 14.4109 58.1661C11.6059 55.6048 10.5858 51.566 11.1483 47.861C12.5509 38.6772 22.0871 36.3447 29.6584 39.0785C29.7185 39.1006 29.768 39.1445 29.7972 39.2015C29.8263 39.2584 29.833 39.3243 29.8159 39.386L28.8521 42.8472C28.8146 42.9847 28.7284 43.0272 28.5934 42.9747C24.6034 41.3922 18.6109 41.501 16.6084 46.0535C14.8009 50.171 16.4809 56.0285 21.4571 56.9023C22.7721 57.1348 24.1884 57.1073 25.7059 56.8198C25.8134 56.7998 25.8671 56.7348 25.8671 56.6248V52.1023C25.8671 51.9548 25.7934 51.881 25.6459 51.881Z" fill="white"/>
<path d="M57.5549 51.9485H54.0862C54.0364 51.9485 53.9887 51.9288 53.9536 51.8936C53.9184 51.8584 53.8987 51.8107 53.8987 51.761V48.1985C53.8987 48.0735 53.9612 48.011 54.0862 48.011H62.2424C62.3649 48.011 62.4262 48.0735 62.4262 48.1985L62.4374 59.4598C62.4374 59.5798 62.3812 59.6598 62.2687 59.6998C54.6374 62.4073 44.6811 61.4436 43.0611 51.9223C42.8211 50.5173 42.8499 49.0047 43.1474 47.3847C44.7636 38.5197 54.2774 36.4234 61.6124 39.0972C61.7374 39.1422 61.7812 39.2272 61.7437 39.3522L60.7462 42.8472C60.7037 42.9997 60.6087 43.046 60.4612 42.986C54.6337 40.6197 47.1374 42.656 47.8874 50.366C48.4387 56.0248 52.4024 57.461 57.5587 56.8385C57.6812 56.8235 57.7424 56.7548 57.7424 56.6323V52.136C57.7424 52.011 57.6799 51.9485 57.5549 51.9485Z" fill="white"/>
<path d="M75.7763 55.5709C77.7038 56.6321 82.8188 58.1284 84.2288 55.6271C85.2901 53.7484 83.9063 52.6496 82.2488 51.8246C79.7663 50.5946 76.8375 49.8521 75.4425 47.1633C73.71 43.8183 75.57 40.042 79.0463 38.767C82.1963 37.6145 85.3226 37.7608 88.4251 39.2058C88.4657 39.2245 88.4979 39.2576 88.5159 39.2991C88.5338 39.3405 88.5362 39.3873 88.5226 39.4308L87.3938 43.0121C87.3874 43.0333 87.3764 43.0528 87.3617 43.0694C87.3469 43.086 87.3288 43.0992 87.3085 43.1081C87.2882 43.117 87.2662 43.1214 87.244 43.121C87.2219 43.1206 87.2 43.1154 87.1801 43.1058C85.2901 42.2321 83.3363 41.6133 81.3638 42.2396C78.7463 43.0721 79.11 45.3521 81.3301 46.3833C83.4638 47.3771 86.2388 48.3896 87.7126 49.9571C90.0526 52.4471 89.8051 56.8946 87.0863 59.1334C83.8688 61.7847 78.1725 61.2972 74.625 59.6209C74.5701 59.5947 74.526 59.5502 74.5006 59.4954C74.4753 59.4405 74.4702 59.3787 74.4863 59.3209L75.4838 55.6946C75.4919 55.6652 75.5066 55.6379 75.5267 55.615C75.5469 55.592 75.572 55.5739 75.6001 55.562C75.6282 55.5501 75.6587 55.5447 75.6892 55.5462C75.7197 55.5478 75.7495 55.5562 75.7763 55.5709Z" fill="white"/>
<path d="M39.9243 46.228L33.6393 46.2389C33.5378 46.2391 33.4557 46.3215 33.4559 46.423L33.4667 52.6255C33.4669 52.727 33.5493 52.8091 33.6508 52.809L39.9358 52.798C40.0373 52.7978 40.1194 52.7154 40.1192 52.6139L40.1084 46.4114C40.1082 46.3099 40.0258 46.2278 39.9243 46.228Z" fill="white"/>
<path d="M71.7918 46.2354L65.4543 46.2243C65.3922 46.2242 65.3417 46.2745 65.3416 46.3366L65.3305 52.6816C65.3304 52.7438 65.3807 52.7942 65.4428 52.7943L71.7803 52.8054C71.8425 52.8055 71.8929 52.7552 71.893 52.6931L71.9041 46.3481C71.9042 46.2859 71.8539 46.2355 71.7918 46.2354Z" fill="white"/>
</svg>
