<svg width="100" height="100" viewBox="0 0 100 100" fill="none" xmlns="http://www.w3.org/2000/svg">
<rect width="100" height="100" fill="#ED2128"/>
<path d="M22.7066 49.1999C18.4832 49.2627 14.3584 49.1048 10.1548 49.2196C10.1379 49.2201 10.1211 49.2172 10.1055 49.211C10.0898 49.2047 10.0755 49.1954 10.0636 49.1834C10.0517 49.1715 10.0423 49.1573 10.0361 49.1416C10.0299 49.1259 10.0269 49.1091 10.0274 49.0923C10.3557 35.8946 17.1268 23.5097 28.3653 16.369C54.7445 -0.390053 89.1112 17.8007 89.9993 49.0564C90.0001 49.0787 89.9962 49.101 89.988 49.1218C89.9798 49.1426 89.9674 49.1615 89.9516 49.1773C89.9358 49.1931 89.9169 49.2055 89.8961 49.2137C89.8753 49.2219 89.853 49.2258 89.8307 49.225L88.4312 49.1802C88.3511 49.1778 88.3098 49.1365 88.3074 49.0564C87.5198 25.8923 63.4209 10.8161 42.2286 20.2946C30.8268 25.3953 23.3901 36.5243 22.8878 49.0223C22.886 49.0694 22.8662 49.1141 22.8325 49.1471C22.7988 49.1801 22.7537 49.199 22.7066 49.1999Z" fill="white"/>
<path d="M37.2292 49.2051C37.2292 49.2099 37.2268 49.2123 37.2221 49.2123H24.681C24.5578 49.2123 24.498 49.1507 24.5016 49.0275C25.065 31.5239 40.1573 17.8328 57.6447 19.0098C73.6036 20.0845 86.2774 32.9305 86.7923 49.0688C86.7928 49.0834 86.7903 49.0979 86.785 49.1115C86.7797 49.1251 86.7717 49.1375 86.7614 49.1479C86.7512 49.1583 86.739 49.1665 86.7255 49.172C86.7119 49.1775 86.6974 49.1803 86.6829 49.18L85.3624 49.1621C85.3286 49.1616 85.2962 49.1481 85.2722 49.1244C85.2481 49.1006 85.2341 49.0685 85.2332 49.0347C84.7954 33.4705 70.3167 22.2913 55.0917 26.2455C49.9748 27.575 45.2706 30.7524 42.0734 35.0386C39.0329 39.1149 37.4182 43.8371 37.2292 49.2051Z" fill="white"/>
<path d="M49.9285 49.216L38.9322 49.1998C38.9143 49.1999 38.8966 49.1963 38.8801 49.1893C38.8636 49.1822 38.8488 49.172 38.8364 49.1591C38.824 49.1462 38.8143 49.1309 38.8079 49.1142C38.8016 49.0974 38.7987 49.0796 38.7994 49.0617C39.1236 41.7763 42.0337 35.9687 47.5297 31.6388C55.6213 25.2643 67.4249 25.3952 75.3675 31.9384C80.6375 36.2791 83.4196 42.0006 83.7139 49.103C83.7144 49.1141 83.7125 49.1252 83.7085 49.1356C83.7045 49.1461 83.6984 49.1556 83.6905 49.1636C83.6826 49.1717 83.6731 49.1781 83.6627 49.1825C83.6522 49.1868 83.6409 49.1891 83.6296 49.1891L82.1099 49.1658C82.0441 49.1658 82.0112 49.1329 82.0112 49.0671C82.0364 45.3197 80.9796 42.0006 78.841 39.1096C71.3971 29.0535 55.9622 31.106 51.2095 42.6656C50.3878 44.6631 49.9871 46.8196 50.0074 49.1353C50.0074 49.1567 49.9991 49.1772 49.9843 49.1923C49.9695 49.2075 49.9494 49.216 49.9285 49.216Z" fill="white"/>
<path d="M22.6953 66.2229C18.6083 62.0641 16.4942 56.9532 16.3531 50.8902C16.3519 50.8184 16.3871 50.7826 16.4589 50.7826L17.8619 50.7808C17.9349 50.7808 17.975 50.8166 17.9821 50.8884C18.0431 51.4643 18.0252 52.1389 18.0665 52.6126C19.1304 64.7912 32.7353 71.3649 42.8794 64.6225C47.528 61.5348 50.0219 56.5166 50.0075 50.8902C50.0075 50.8184 50.0434 50.7826 50.1151 50.7826H61.0594C61.0803 50.7825 61.1011 50.7868 61.1204 50.795C61.1397 50.8033 61.1571 50.8154 61.1717 50.8307C61.1863 50.8459 61.1977 50.8639 61.2052 50.8837C61.2127 50.9035 61.2162 50.9246 61.2155 50.9458C60.9141 57.9262 58.19 63.5712 53.0432 67.8807C44.0617 75.4035 30.83 74.5029 22.6953 66.2229Z" fill="white"/>
<path d="M22.1267 78.6795C14.5213 71.3917 10.4002 61.4038 10.0001 50.8919C9.99772 50.819 10.033 50.7825 10.106 50.7825H11.579C11.6519 50.7825 11.6902 50.819 11.6938 50.8919C12.5783 70.1394 29.1633 84.6361 48.4969 82.266C64.4737 80.3068 76.586 66.8562 77.1296 50.856C77.132 50.807 77.1577 50.7825 77.2067 50.7825H89.8949C89.9559 50.7825 89.9858 50.813 89.9846 50.874C89.8183 57.8627 87.9979 64.3079 84.5232 70.2094C71.3202 92.6307 40.7947 96.5707 22.1267 78.6795Z" fill="white"/>
<path d="M22.8247 72.3731C16.9453 66.7593 13.461 59.0373 13.2296 50.8937C13.2272 50.8195 13.2631 50.7825 13.3373 50.7825H14.6685C14.7367 50.7825 14.772 50.8172 14.7744 50.8865C14.949 56.5285 16.7682 61.469 20.2321 65.7079C28.9409 76.3705 44.8908 77.5223 55.0797 68.112C59.9256 63.6375 62.5756 57.532 62.7783 50.8937C62.7807 50.8195 62.8196 50.7825 62.8949 50.7825H75.366C75.3896 50.7825 75.413 50.7872 75.4347 50.7964C75.4564 50.8056 75.476 50.8191 75.4923 50.8361C75.5086 50.853 75.5212 50.8731 75.5294 50.895C75.5376 50.917 75.5412 50.9403 75.54 50.9637C75.1585 58.7443 72.3949 65.4352 67.2493 71.0365C55.4905 83.8341 35.3747 84.3526 22.8247 72.3731Z" fill="white"/>
</svg>
