<svg width="100" height="100" viewBox="0 0 100 100" fill="none" xmlns="http://www.w3.org/2000/svg">
<rect width="100" height="100" fill="#595C62"/>
<path d="M23.1866 51.6836V48.7891H30.6631V55.6328C29.9366 56.3359 28.8819 56.957 27.4991 57.4961C26.1241 58.0273 24.7295 58.293 23.3155 58.293C21.5186 58.293 19.9522 57.918 18.6162 57.168C17.2803 56.4102 16.2764 55.332 15.6045 53.9336C14.9327 52.5273 14.5967 51 14.5967 49.3516C14.5967 47.5625 14.9717 45.9727 15.7217 44.582C16.4717 43.1914 17.5694 42.125 19.0147 41.3828C20.1162 40.8125 21.4873 40.5273 23.128 40.5273C25.2608 40.5273 26.9248 40.9766 28.1202 41.875C29.3233 42.7656 30.0967 44 30.4405 45.5781L26.9952 46.2227C26.753 45.3789 26.2959 44.7148 25.6241 44.2305C24.96 43.7383 24.128 43.4922 23.128 43.4922C21.6123 43.4922 20.4053 43.9727 19.5069 44.9336C18.6162 45.8945 18.1709 47.3203 18.1709 49.2109C18.1709 51.25 18.6241 52.7812 19.5303 53.8047C20.4366 54.8203 21.6241 55.3281 23.0928 55.3281C23.8194 55.3281 24.5459 55.1875 25.2725 54.9062C26.0069 54.6172 26.6358 54.2695 27.1592 53.8633V51.6836H23.1866ZM34.2341 58V40.8203H46.9723V43.7266H37.7028V47.5352H46.3278V50.4297H37.7028V55.1055H47.3005V58H34.2341ZM50.6136 58V40.8203H57.9144C59.7503 40.8203 61.0823 40.9766 61.9105 41.2891C62.7464 41.5938 63.4144 42.1406 63.9144 42.9297C64.4144 43.7188 64.6644 44.6211 64.6644 45.6367C64.6644 46.9258 64.2855 47.9922 63.5277 48.8359C62.7698 49.6719 61.637 50.1992 60.1292 50.418C60.8792 50.8555 61.4964 51.3359 61.9808 51.8594C62.473 52.3828 63.1331 53.3125 63.9613 54.6484L66.0589 58H61.9105L59.4027 54.2617C58.512 52.9258 57.9027 52.0859 57.5745 51.7422C57.2464 51.3906 56.8988 51.1523 56.5316 51.0273C56.1644 50.8945 55.5823 50.8281 54.7855 50.8281H54.0823V58H50.6136ZM54.0823 48.0859H56.6488C58.3128 48.0859 59.3519 48.0156 59.7659 47.875C60.18 47.7344 60.5042 47.4922 60.7386 47.1484C60.973 46.8047 61.0902 46.375 61.0902 45.8594C61.0902 45.2812 60.9339 44.8164 60.6214 44.4648C60.3167 44.1055 59.8831 43.8789 59.3206 43.7852C59.0394 43.7461 58.1956 43.7266 56.7894 43.7266H54.0823V48.0859ZM68.2588 58V40.8203H73.4502L76.5673 52.5391L79.6494 40.8203H84.8525V58H81.6298V44.4766L78.2197 58H74.8798L71.4814 44.4766V58H68.2588Z" fill="#F8F8F8"/>
</svg>
