<svg width="100" height="100" viewBox="0 0 100 100" fill="none" xmlns="http://www.w3.org/2000/svg">
<rect width="100" height="100" fill="#EC1C24"/>
<path d="M26.1578 32.6762C26.1345 32.6759 26.1115 32.6705 26.0904 32.6603C26.0694 32.6502 26.0508 32.6355 26.036 32.6174C26.0212 32.5993 26.0106 32.5782 26.0049 32.5555C25.9992 32.5328 25.9985 32.5092 26.0028 32.4862C27.7428 23.9862 32.2145 17.9796 39.4178 14.4662C54.0978 7.31125 71.1478 16.4612 73.6728 32.4162C73.7028 32.5896 73.6294 32.6762 73.4528 32.6762H26.1578Z" fill="white"/>
<path d="M41.9474 39.9463C44.2724 39.9613 46.7124 41.2013 46.7624 43.7763C46.8691 49.133 46.8808 54.533 46.7974 59.9763C46.7974 60.1696 46.7008 60.2513 46.5074 60.2213C35.9375 58.7063 28.0325 50.6313 26.1225 40.1913C26.0925 40.0246 26.1625 39.9413 26.3325 39.9413C31.5591 39.908 36.7641 39.9096 41.9474 39.9463Z" fill="white"/>
<path d="M52.9775 44.9313C52.9925 42.4463 54.2525 39.9763 56.9975 39.9513C62.4508 39.9046 67.9391 39.9013 73.4625 39.9413C73.6425 39.9446 73.7175 40.0346 73.6875 40.2113C71.8325 50.6213 63.7825 58.7863 53.2275 60.2563C53.0541 60.2796 52.9675 60.2046 52.9675 60.0313C52.9408 54.9913 52.9441 49.9579 52.9775 44.9313Z" fill="white"/>
<path d="M26.4575 75.1513V67.5513C26.4575 67.3846 26.5409 67.3013 26.7075 67.3013H46.5775C46.7408 67.3013 46.8242 67.3829 46.8275 67.5463C46.8625 70.9863 47.7925 75.5063 42.6225 75.5363C37.2192 75.5696 31.9575 75.5696 26.8375 75.5363C26.5842 75.5363 26.4575 75.4079 26.4575 75.1513Z" fill="white"/>
<path d="M56.5926 75.5713C52.2876 75.5563 52.9126 70.7863 52.9776 67.5313C52.981 67.3779 53.061 67.3013 53.2176 67.3013H73.2176C73.2397 67.3013 73.2616 67.3056 73.2819 67.3139C73.3023 67.3223 73.3207 67.3345 73.3361 67.3499C73.3515 67.3653 73.3635 67.3836 73.3715 67.4035C73.3795 67.4235 73.3833 67.4449 73.3826 67.4663L73.3076 75.3013C73.3076 75.4513 73.2326 75.5263 73.0826 75.5263C67.5593 75.5696 62.0626 75.5846 56.5926 75.5713Z" fill="white"/>
<path d="M73.1124 80.5713H26.6925C26.5627 80.5713 26.4575 80.6765 26.4575 80.8063V88.5663C26.4575 88.6961 26.5627 88.8013 26.6925 88.8013H73.1124C73.2422 88.8013 73.3475 88.6961 73.3475 88.5663V80.8063C73.3475 80.6765 73.2422 80.5713 73.1124 80.5713Z" fill="white"/>
</svg>
