<svg width="100" height="100" viewBox="0 0 100 100" fill="none" xmlns="http://www.w3.org/2000/svg">
<rect width="100" height="100" fill="#595C62"/>
<path d="M25.1787 51.6836V48.7891H32.6553V55.6328C31.9287 56.3359 30.8741 56.957 29.4912 57.4961C28.1162 58.0273 26.7217 58.293 25.3077 58.293C23.5108 58.293 21.9444 57.918 20.6084 57.168C19.2725 56.4102 18.2686 55.332 17.5967 53.9336C16.9248 52.5273 16.5889 51 16.5889 49.3516C16.5889 47.5625 16.9639 45.9727 17.7139 44.582C18.4639 43.1914 19.5616 42.125 21.0069 41.3828C22.1084 40.8125 23.4795 40.5273 25.1202 40.5273C27.253 40.5273 28.917 40.9766 30.1123 41.875C31.3155 42.7656 32.0889 44 32.4327 45.5781L28.9873 46.2227C28.7452 45.3789 28.2881 44.7148 27.6162 44.2305C26.9522 43.7383 26.1202 43.4922 25.1202 43.4922C23.6045 43.4922 22.3975 43.9727 21.4991 44.9336C20.6084 45.8945 20.1631 47.3203 20.1631 49.2109C20.1631 51.25 20.6162 52.7812 21.5225 53.8047C22.4287 54.8203 23.6162 55.3281 25.085 55.3281C25.8116 55.3281 26.5381 55.1875 27.2647 54.9062C27.9991 54.6172 28.628 54.2695 29.1514 53.8633V51.6836H25.1787ZM44.2184 51.6836V48.7891H51.695V55.6328C50.9684 56.3359 49.9137 56.957 48.5309 57.4961C47.1559 58.0273 45.7614 58.293 44.3473 58.293C42.5505 58.293 40.9841 57.918 39.6481 57.168C38.3122 56.4102 37.3083 55.332 36.6364 53.9336C35.9645 52.5273 35.6286 51 35.6286 49.3516C35.6286 47.5625 36.0036 45.9727 36.7536 44.582C37.5036 43.1914 38.6012 42.125 40.0466 41.3828C41.1481 40.8125 42.5192 40.5273 44.1598 40.5273C46.2927 40.5273 47.9567 40.9766 49.152 41.875C50.3552 42.7656 51.1286 44 51.4723 45.5781L48.027 46.2227C47.7848 45.3789 47.3278 44.7148 46.6559 44.2305C45.9919 43.7383 45.1598 43.4922 44.1598 43.4922C42.6442 43.4922 41.4372 43.9727 40.5387 44.9336C39.6481 45.8945 39.2028 47.3203 39.2028 49.2109C39.2028 51.25 39.6559 52.7812 40.5622 53.8047C41.4684 54.8203 42.6559 55.3281 44.1247 55.3281C44.8512 55.3281 45.5778 55.1875 46.3044 54.9062C47.0387 54.6172 47.6677 54.2695 48.1911 53.8633V51.6836H44.2184ZM54.387 52.4102L57.762 52.082C57.9652 53.2148 58.3753 54.0469 58.9925 54.5781C59.6175 55.1094 60.4573 55.375 61.512 55.375C62.6292 55.375 63.4691 55.1406 64.0316 54.6719C64.6019 54.1953 64.887 53.6406 64.887 53.0078C64.887 52.6016 64.7659 52.2578 64.5238 51.9766C64.2894 51.6875 63.8753 51.4375 63.2816 51.2266C62.8753 51.0859 61.9495 50.8359 60.5042 50.4766C58.6448 50.0156 57.3402 49.4492 56.5902 48.7773C55.5355 47.832 55.0081 46.6797 55.0081 45.3203C55.0081 44.4453 55.2542 43.6289 55.7464 42.8711C56.2464 42.1055 56.9613 41.5234 57.8909 41.125C58.8284 40.7266 59.9573 40.5273 61.2777 40.5273C63.4339 40.5273 65.055 41 66.1409 41.9453C67.2347 42.8906 67.8089 44.1523 67.8636 45.7305L64.3948 45.8828C64.2464 45 63.9261 44.3672 63.4339 43.9844C62.9495 43.5938 62.2191 43.3984 61.2425 43.3984C60.2347 43.3984 59.4456 43.6055 58.8753 44.0195C58.5081 44.2852 58.3245 44.6406 58.3245 45.0859C58.3245 45.4922 58.4964 45.8398 58.8402 46.1289C59.2777 46.4961 60.3402 46.8789 62.0277 47.2773C63.7152 47.6758 64.9613 48.0898 65.7659 48.5195C66.5784 48.9414 67.2113 49.5234 67.6644 50.2656C68.1253 51 68.3558 51.9102 68.3558 52.9961C68.3558 53.9805 68.0823 54.9023 67.5355 55.7617C66.9886 56.6211 66.2152 57.2617 65.2152 57.6836C64.2152 58.0977 62.9691 58.3047 61.4769 58.3047C59.305 58.3047 57.637 57.8047 56.473 56.8047C55.3089 55.7969 54.6136 54.332 54.387 52.4102ZM75.5009 58V43.7266H70.4033V40.8203H84.0556V43.7266H78.9697V58H75.5009Z" fill="#F8F8F8"/>
</svg>
