<svg width="100" height="100" viewBox="0 0 100 100" fill="none" xmlns="http://www.w3.org/2000/svg">
<rect width="100" height="100" fill="#01CAFE"/>
<path d="M23.2448 50.9614L23.4869 56.2318C23.4913 56.3259 23.451 56.3909 23.3658 56.4267C17.7896 58.793 8.05557 58.0132 9.07402 49.4589C9.90423 42.4642 18.0014 42.1147 23.1306 43.9701C23.2292 44.0059 23.2717 44.0754 23.2583 44.1785C23.1485 45.0546 23.0387 45.9297 22.9289 46.8036C22.8975 47.0523 22.8146 47.2226 22.6802 47.3145C22.5233 47.4198 22.3508 47.4232 22.1625 47.3246C22.0572 47.2708 22.0079 47.1845 22.0146 47.0657C22.102 45.7818 21.4612 44.9381 20.092 44.5347C9.01687 41.2777 9.85045 59.6266 20.3273 56.0133C20.4461 55.9707 20.5055 55.8856 20.5055 55.7579L20.4483 51.1227C20.4461 50.9457 20.3576 50.8426 20.1828 50.8135L18.556 50.5412C18.3924 50.5144 18.3106 50.418 18.3106 50.2522V49.6135C18.3106 49.5172 18.3588 49.4701 18.4551 49.4724L24.2129 49.627C24.3115 49.6315 24.3608 49.683 24.3608 49.7816V50.4034C24.3606 50.4661 24.338 50.5264 24.2972 50.5734C24.2564 50.6204 24.2002 50.6508 24.1389 50.6589L23.4129 50.7564C23.2941 50.772 23.2381 50.8404 23.2448 50.9614Z" fill="white"/>
<path d="M67.7939 43.5664C70.2991 44.577 71.6559 46.466 71.8643 49.2334C72.0077 54.2708 69.6201 57.0763 64.7016 57.6499C62.5571 57.8023 60.6278 57.3653 58.9136 56.339C56.5775 54.5509 55.9725 51.9157 56.3019 49.0653C57.2598 43.3143 62.9504 42.1043 67.7939 43.5664ZM68.298 47.3276C67.5182 44.6184 64.6276 43.4252 62.1706 44.4605C57.3573 46.4873 58.5573 58.3994 65.72 56.2651C69.1787 55.2332 69.098 50.0972 68.298 47.3276Z" fill="white"/>
<path d="M32.4538 50.6087L32.5379 56.0908C32.5389 56.1754 32.5706 56.2567 32.627 56.3192C32.6833 56.3818 32.7604 56.4213 32.8437 56.4303L34.0806 56.5748C34.2106 56.5905 34.2756 56.6634 34.2756 56.7933V57.2303C34.2756 57.3558 34.2117 57.4185 34.084 57.4185L27.6473 57.4151C27.5129 57.1597 27.5196 56.9244 27.6675 56.7093C27.7302 56.6219 27.8142 56.5726 27.9196 56.5614L28.9346 56.4572C29.0505 56.4453 29.1583 56.3919 29.2385 56.3068C29.3186 56.2217 29.3659 56.1105 29.3716 55.9934C29.5397 52.1548 29.5441 48.3163 29.385 44.4778C29.3806 44.3591 29.3189 44.2918 29.2002 44.2761L27.7952 44.0879C27.663 44.0722 27.5935 43.9983 27.5868 43.8661L27.57 43.4661C27.5633 43.3182 27.6327 43.2454 27.7784 43.2476L34.1411 43.2879C34.1632 43.2891 34.1842 43.2964 34.2016 43.309C34.219 43.3216 34.2319 43.3388 34.2386 43.3585C34.3932 43.8045 34.2678 44.0431 33.8622 44.0745C33.4611 44.1058 33.0712 44.1809 32.6925 44.2997C32.6443 44.3151 32.6023 44.3455 32.5721 44.3865C32.542 44.4275 32.5253 44.477 32.5244 44.5282L32.4538 50.6087Z" fill="white"/>
<path d="M43.852 43.2035C43.9819 43.4881 43.9999 43.7278 43.9057 43.9228C43.8609 44.0191 43.7847 44.074 43.6772 44.0875L42.3898 44.2522C42.3268 44.2609 42.2689 44.2917 42.2265 44.3391C42.184 44.3865 42.1597 44.4474 42.1579 44.511L42.01 49.257C42.0091 49.2788 42.0127 49.3005 42.0206 49.3208C42.0284 49.3412 42.0404 49.3597 42.0558 49.3754C42.0712 49.3911 42.0897 49.4036 42.1101 49.4122C42.1305 49.4207 42.1525 49.4251 42.1747 49.4251H48.2451C48.3683 49.4251 48.4288 49.3624 48.4266 49.2369L48.2719 44.632C48.2692 44.5288 48.2289 44.43 48.1585 44.354C48.088 44.278 47.9922 44.2299 47.8888 44.2186L46.6787 44.0942C46.5107 44.0785 46.4379 43.9866 46.4603 43.8186L46.5208 43.3883C46.5409 43.2449 46.6227 43.1766 46.7661 43.1833L49.1391 43.2875L52.9944 43.2068C53.0229 43.2062 53.0511 43.2116 53.0773 43.2226C53.1034 43.2337 53.1269 43.2501 53.146 43.2709C53.1651 43.2916 53.1795 43.3161 53.1881 43.3427C53.1968 43.3694 53.1995 43.3976 53.1961 43.4253L53.1423 43.8858C53.1266 44.0158 53.0538 44.0875 52.9239 44.1009L51.7542 44.2186C51.6557 44.2285 51.5645 44.275 51.4981 44.3488C51.4316 44.4227 51.3947 44.5188 51.3945 44.6186L51.3474 54.6417L51.4483 56.1879C51.4532 56.2496 51.4794 56.3077 51.5222 56.3525C51.5651 56.3972 51.6221 56.4257 51.6836 56.4332L52.9541 56.5912C53.1065 56.6091 53.1827 56.6943 53.1827 56.8467V57.2231C53.1827 57.3464 53.1199 57.4091 52.9944 57.4114L46.5913 57.4618C46.4479 57.0853 46.4726 56.7929 46.6653 56.5845C46.694 56.5537 46.7288 56.5292 46.7675 56.5124C46.8062 56.4957 46.8481 56.487 46.8905 56.487L47.9291 56.4769C48.0049 56.477 48.0778 56.4476 48.1324 56.3949C48.187 56.3422 48.2189 56.2704 48.2215 56.1946L48.403 50.8738C48.4039 50.841 48.3983 50.8084 48.3863 50.7778C48.3744 50.7473 48.3565 50.7194 48.3336 50.6959C48.3107 50.6724 48.2834 50.6537 48.2531 50.641C48.2229 50.6282 48.1905 50.6217 48.1577 50.6217L42.205 50.6889C42.0616 50.6912 41.9932 50.764 41.9999 50.9074L42.1646 56.0601C42.1691 56.1834 42.2274 56.2697 42.3394 56.319C42.7271 56.487 43.145 56.5598 43.5932 56.5374C43.6955 56.5326 43.7963 56.5634 43.8785 56.6245C43.9608 56.6856 44.0193 56.7733 44.0443 56.8726C44.0692 56.972 44.059 57.0769 44.0154 57.1696C43.9717 57.2623 43.8974 57.337 43.8049 57.3811C43.3646 57.5929 42.7932 57.4114 42.4302 57.408C41.144 57.4013 39.8488 57.4046 38.5446 57.4181C38.1727 57.5122 37.8152 57.5312 37.4724 57.4752C37.3671 57.4595 37.2954 57.4013 37.2573 57.3004C36.8976 56.3022 38.3026 56.6147 38.8841 56.3156C39.0006 56.2573 39.0589 56.1632 39.0589 56.0333L39.0488 44.6219C39.0488 44.5054 38.9984 44.418 38.8976 44.3597C38.6443 44.2163 38.3228 44.1435 37.9329 44.1413C37.5228 44.1973 37.2775 44.0774 37.1968 43.7816C37.1777 43.7113 37.175 43.6376 37.189 43.5661C37.203 43.4947 37.2333 43.4274 37.2775 43.3695C37.3217 43.3116 37.3787 43.2647 37.444 43.2324C37.5092 43.2002 37.5811 43.1833 37.6539 43.1833L43.852 43.2035Z" fill="white"/>
<path d="M87.1279 43.2437L90.8152 43.2168C90.9407 43.2168 91.0023 43.2796 91 43.405L90.99 43.8857C90.9889 43.9363 90.97 43.9848 90.9367 44.0225C90.9034 44.0601 90.8579 44.0843 90.8085 44.0907L89.5144 44.2554C89.4262 44.2669 89.3451 44.31 89.2864 44.3768C89.2276 44.4436 89.1952 44.5295 89.1951 44.6184L89.1346 57.5726C89.1346 57.6936 89.0741 57.7518 88.9531 57.7474C87.7184 57.7138 86.7224 57.1155 85.965 55.9525L78.3552 46.9646C78.1334 46.7046 78.0236 46.7461 78.0258 47.0889L78.1233 56.2046C78.1233 56.348 78.195 56.4275 78.3384 56.4432L79.5854 56.5777C79.7423 56.5933 79.8207 56.6796 79.8207 56.8365V57.2432C79.8207 57.3575 79.7635 57.4146 79.6493 57.4146L75.1452 57.4348C75.022 57.4348 74.9581 57.3732 74.9537 57.2499L74.9436 56.8029C74.9391 56.6684 75.003 56.5956 75.1352 56.5844L76.2948 56.4667C76.4055 56.4559 76.5083 56.404 76.5833 56.3208C76.6584 56.2376 76.7005 56.1292 76.7015 56.0163L76.7654 45.8923L76.688 44.5378C76.684 44.4724 76.6577 44.4105 76.6135 44.3627C76.5694 44.3149 76.5102 44.2841 76.446 44.2756L75.0915 44.0975C74.9951 44.084 74.9469 44.0291 74.9469 43.9328V43.4219C74.9469 43.2852 75.0153 43.2179 75.152 43.2202L79.1283 43.3143C79.1621 43.3153 79.1955 43.3236 79.2262 43.3386C79.2569 43.3537 79.2842 43.3752 79.3064 43.4017L87.6489 53.3576C87.668 53.3805 87.6938 53.3969 87.7226 53.4046C87.7514 53.4123 87.7818 53.4109 87.8098 53.4006C87.8378 53.3903 87.8619 53.3716 87.8788 53.347C87.8957 53.3225 87.9047 53.2933 87.9044 53.2635L87.8472 44.5949C87.8472 44.521 87.8203 44.4495 87.7716 44.3934C87.7229 44.3373 87.6555 44.3003 87.5817 44.289L86.2204 44.084C86.1061 44.0661 86.0389 44.0011 86.0187 43.8891L85.9549 43.5395C85.9448 43.4818 85.9561 43.4225 85.9865 43.3729C86.0168 43.3234 86.0642 43.2869 86.1196 43.2706C86.4422 43.1742 86.7784 43.1653 87.1279 43.2437Z" fill="white"/>
</svg>
