<svg width="100" height="100" viewBox="0 0 100 100" fill="none" xmlns="http://www.w3.org/2000/svg">
<rect width="100" height="100" fill="#EDFFFD"/>
<path d="M6.34125 29.81L6.04125 29.165C6.0025 29.0812 6.02875 29.0393 6.12 29.0393C12.7937 29.0256 19.465 29.0275 26.1337 29.045C31.7587 29.06 37.2187 29.5418 42.7368 30.6518C48.1687 31.7431 53.1768 33.4887 57.7031 36.7512C65.2868 42.215 72.8618 47.6681 80.428 53.1106C80.493 53.1581 80.4968 53.2093 80.4393 53.2643C78.8455 54.7793 76.8299 55.9325 74.668 54.6743C73.7455 54.1362 72.493 53.1575 71.8556 52.7037C64.2418 47.27 56.6262 41.8381 49.0087 36.4081C44.4618 33.1662 37.9143 31.1412 32.6175 30.5318C24.1012 29.5493 15.1519 29.945 6.50438 29.915C6.42813 29.915 6.37375 29.88 6.34125 29.81Z" fill="#014A8A"/>
<path d="M21.261 36.5393C17.5985 36.5293 13.936 36.5287 10.2735 36.5374C10.206 36.5374 10.1579 36.5068 10.1291 36.4455L9.83849 35.8212C9.80099 35.7412 9.82661 35.7005 9.91536 35.6993C19.4078 35.6755 25.471 35.6768 28.1047 35.703C31.151 35.7355 34.4835 36.0268 38.1022 36.5768C43.6597 37.4205 49.5884 39.0874 54.5009 41.9712C55.2447 42.4087 56.2815 43.1055 57.6115 44.0618C63.5403 48.3243 69.4659 52.5793 75.3884 56.8268C75.399 56.8342 75.4078 56.8439 75.4142 56.8553C75.4206 56.8666 75.4243 56.8793 75.4252 56.8923C75.4261 56.9054 75.4241 56.9186 75.4194 56.9309C75.4146 56.9432 75.4073 56.9544 75.3978 56.9636C73.5378 58.7486 71.3647 59.3749 68.9965 58.128C68.954 58.1055 68.1509 57.5387 66.5872 56.4274C60.9009 52.3899 55.2159 48.3518 49.5322 44.313C44.7791 40.9343 39.5009 38.3693 33.6922 37.5405C29.5728 36.9537 25.4253 36.5505 21.261 36.5393Z" fill="#014A8A"/>
<path d="M81.5125 45.8525L82.96 46.9681C82.9804 46.9838 83.0042 46.9946 83.0296 46.9995C83.055 47.0044 83.0812 47.0032 83.1062 46.9962C84.1581 46.715 85.465 46.1937 86.5469 46.2725C88.2406 46.3962 89.5631 46.5544 90.5144 46.7469C92.7844 47.2056 93.7243 48.6081 93.3344 50.9544C93.3219 51.0294 93.2831 51.0475 93.2181 51.0087C92.5356 50.5869 91.6712 49.9437 90.8462 49.9344C89.0294 49.9156 86.9762 49.9287 85.2625 50.5719C84.4225 50.8869 83.6044 51.2531 82.8081 51.6706C82.0019 52.0944 81.2444 52.0212 80.5356 51.5244C78.3531 49.9956 75.5137 47.9719 72.0175 45.4531C70.8906 44.6412 69.8087 43.6662 69.5519 42.1944C69.5453 42.1589 69.5514 42.1223 69.5692 42.0909C69.5869 42.0595 69.615 42.0353 69.6488 42.0226C69.6825 42.0099 69.7196 42.0094 69.7537 42.0213C69.7877 42.0331 69.8165 42.0566 69.835 42.0875C71.0012 44.0262 74.2094 43.9906 76.2156 43.9831C78.8881 43.9731 81.5612 43.9575 84.235 43.9362C85.5419 43.925 85.8606 44.5231 86.32 45.5787C86.3427 45.6308 86.3517 45.6879 86.3459 45.7444C86.3401 45.8009 86.3198 45.855 86.287 45.9014C86.2542 45.9478 86.2099 45.9849 86.1586 46.0092C86.1072 46.0335 86.0504 46.0441 85.9937 46.04L81.5594 45.7269C81.5446 45.7257 81.5299 45.7294 81.5175 45.7374C81.5051 45.7454 81.4956 45.7573 81.4903 45.7713C81.4851 45.7853 81.4844 45.8007 81.4884 45.8153C81.4924 45.8299 81.5008 45.8429 81.5125 45.8525Z" fill="#014A8A"/>
<path d="M23.9819 43.1488C20.6482 43.14 17.3138 43.1394 13.9788 43.1469C13.915 43.1469 13.8725 43.1169 13.8513 43.0569L13.6075 42.38C13.5763 42.2925 13.6069 42.2488 13.6994 42.2488C22.0657 42.2375 30.4281 42.2113 38.7363 43.37C42.6325 43.9137 46.5119 45.2244 50.1194 46.7806C52.2513 47.6994 53.9969 48.7287 56.0144 50.2137C60.7569 53.7087 65.5087 57.1775 70.27 60.62C70.282 60.6286 70.2919 60.6398 70.299 60.6527C70.3061 60.6656 70.3103 60.6799 70.3112 60.6946C70.3121 60.7094 70.3097 60.7241 70.3042 60.7378C70.2987 60.7515 70.2902 60.7637 70.2794 60.7737C68.6181 62.3337 66.6587 62.7837 64.4012 62.1237C63.8519 61.9644 63.2069 61.3119 62.845 61.0531C58.0475 57.6156 53.2575 54.1669 48.475 50.7069C41.2319 45.4662 32.8769 43.1731 23.9819 43.1488Z" fill="#008BA0"/>
<path d="M17.6931 49.6268L17.4287 48.9893C17.3925 48.903 17.4212 48.8599 17.515 48.8599C24.4169 48.8449 31.2775 48.8111 38.0087 49.8499C44.5806 50.8661 50.4099 53.6168 55.7481 57.5055C58.8981 59.8005 62.0424 62.1042 65.1812 64.4167C65.2412 64.4617 65.2412 64.5061 65.1812 64.5499C63.5856 65.6993 61.8812 66.768 59.9068 66.0799C59.5018 65.9386 58.5624 65.3405 57.0887 64.2855C53.1449 61.4618 49.2024 58.6368 45.2612 55.8105C39.6643 51.798 32.0556 49.9399 25.2231 49.7318C23.7106 49.6855 21.25 49.683 17.8412 49.7243C17.77 49.7243 17.7206 49.6918 17.6931 49.6268Z" fill="#008BA0"/>
<path d="M21.4897 56.2437L21.0847 55.6193C21.0322 55.5381 21.0547 55.4962 21.1522 55.4937C27.1634 55.3512 33.4522 55.4881 39.319 56.6018C40.3597 56.7987 41.4584 57.1118 42.5272 57.5149C45.7934 58.743 48.679 59.9955 51.5159 61.9905C54.3634 63.993 57.2134 66.0199 60.0659 68.0712C60.0757 68.0784 60.0837 68.0877 60.0893 68.0984C60.095 68.1091 60.0981 68.1209 60.0985 68.1329C60.0988 68.1448 60.0964 68.1567 60.0914 68.1674C60.0864 68.1782 60.079 68.1876 60.0696 68.1949C59.4209 68.7218 58.6784 69.4005 57.979 69.7062C56.4959 70.3568 54.6659 69.9105 53.3797 68.9862C49.9597 66.5262 46.5409 64.0643 43.1234 61.6005C41.8497 60.6805 40.8028 59.9999 39.9828 59.5587C34.2491 56.4743 28.0091 56.1912 21.6659 56.3355C21.5897 56.3368 21.5309 56.3062 21.4897 56.2437Z" fill="#008BA0"/>
</svg>
