<svg width="100" height="100" viewBox="0 0 100 100" fill="none" xmlns="http://www.w3.org/2000/svg">
<rect width="100" height="100" fill="#1D2FAB"/>
<path d="M38.9684 37.8338C38.9678 37.7932 38.9472 37.7729 38.9066 37.7729L34.2988 37.7775C34.2913 37.7775 34.2841 37.7746 34.2789 37.7693C34.2736 37.764 34.2706 37.7569 34.2706 37.7494V33.7238C34.2706 33.7126 34.2751 33.7019 34.283 33.694C34.2909 33.6861 34.3016 33.6816 34.3128 33.6816L44.5025 33.6122C44.5337 33.612 44.5637 33.624 44.586 33.6456C44.6083 33.6672 44.6211 33.6966 44.6216 33.7275C44.6553 35.6841 44.54 37.6154 44.5391 39.5616C44.5353 45.2641 44.5347 50.9688 44.5372 56.6757C44.537 56.6778 44.5361 56.6797 44.5347 56.6813C44.5333 56.6829 44.5315 56.684 44.5294 56.6845C44.5274 56.685 44.5253 56.6849 44.5233 56.6842C44.5213 56.6834 44.5196 56.6821 44.5184 56.6804L39.2103 47.5275C39.1998 47.5096 39.1853 47.4944 39.1678 47.4832C39.1503 47.4719 39.1303 47.465 39.1097 47.463C39.089 47.461 39.0681 47.4639 39.0488 47.4716C39.0294 47.4792 39.0122 47.4913 38.9984 47.5069C37.2003 49.5404 34.7413 50.9897 31.9756 50.9091C25.4741 50.7188 21.3322 45.6788 19.5688 39.9122C18.2075 35.461 18.1269 30.8654 19.4403 26.3382C20.3159 23.3213 21.8319 20.5454 24.5272 18.8935C25.9831 18.0019 27.8619 17.5191 29.5119 18.0169C30.695 18.3741 31.9381 18.7763 33.1644 18.9244C33.5694 18.9732 34.1716 18.9979 34.9709 18.9985C48.1309 19.0047 56.9756 19.0041 61.505 18.9966C62.6475 18.9947 64.0391 18.9688 65.6797 18.9188C66.9988 18.8785 68.3272 18.5054 69.5788 18.1107C70.1613 17.9275 70.5997 17.8188 70.8941 17.7844C72.7831 17.5632 74.8156 18.4341 76.2678 19.6613C79.1356 22.0838 80.5391 26.3194 80.9638 30.0347C81.3119 33.0872 81.0659 36.1585 80.2259 39.2485C78.8628 44.2632 75.455 49.3332 70.0672 50.5379C69.4066 50.686 68.7897 50.785 68.2166 50.835C65.2194 51.0966 62.5278 49.6435 60.6031 47.4141C60.5963 47.4061 60.5876 47.3998 60.5778 47.3958C60.568 47.3918 60.5574 47.3902 60.5468 47.3911C60.5363 47.392 60.5261 47.3954 60.5172 47.4011C60.5082 47.4067 60.5007 47.4144 60.4953 47.4235L55.1225 56.7038C55.1201 56.7075 55.1166 56.7104 55.1125 56.712C55.1083 56.7137 55.1038 56.714 55.0996 56.713C55.0954 56.7119 55.0917 56.7095 55.0891 56.7062C55.0864 56.7028 55.085 56.6987 55.085 56.6944C55.0831 50.805 55.0822 44.9119 55.0822 39.015C55.0822 37.2713 54.9913 35.4985 55.0269 33.7191C55.0274 33.6902 55.0393 33.6626 55.06 33.6424C55.0807 33.6222 55.1086 33.611 55.1375 33.6113L65.3291 33.6788C65.3891 33.6794 65.4191 33.7097 65.4191 33.7697V37.7269C65.4191 37.7391 65.4141 37.7508 65.4053 37.7594C65.3966 37.768 65.3846 37.7729 65.3722 37.7729L60.7334 37.7747C60.7141 37.7747 60.6954 37.7824 60.6817 37.7962C60.668 37.8099 60.6603 37.8285 60.6603 37.8479C60.6628 39.4822 60.6622 41.1241 60.6584 42.7735C60.6578 42.9297 60.69 43.075 60.755 43.2094C61.9166 45.6263 64.0709 47.7657 66.8966 47.9729C69.7709 48.1838 72.4569 45.9366 74.0225 43.7532C75.83 41.2294 76.8284 38.34 76.9588 35.2435C77.0888 32.1635 76.6019 29.1754 75.4981 26.2791C74.7116 24.2147 72.6744 20.6138 70.0728 20.67C69.2891 20.6869 68.5559 20.7763 67.8734 20.9382C67.3513 21.0619 66.7578 21.375 66.3163 21.5297C65.4506 21.8335 64.5734 22.0994 63.6847 22.3275C63.5759 22.3557 63.5075 22.4297 63.3659 22.425C62.9619 22.41 62.5053 22.4391 62.1584 22.4363C58.9572 22.4125 55.7559 22.4107 52.5547 22.4307C52.5209 22.4307 52.5041 22.4472 52.5041 22.4804C52.5053 38.8091 52.5056 55.1357 52.505 71.46C52.5041 73.9519 52.1872 76.5085 53.3966 78.8232C54.3106 80.5725 56.0113 82.6275 58.1984 82.4691C58.7666 82.4279 59.7538 82.2544 60.2947 81.8269C60.7325 81.4791 61.4309 81.3507 61.6156 82.0557C61.8191 82.831 61.2191 83.4704 60.7044 83.9175C58.8844 85.4969 56.7853 85.9866 54.4072 85.3866C50.0947 84.2982 47.1144 78.841 47.1144 74.6785C47.1144 57.276 47.1144 39.8807 47.1144 22.4925C47.1144 22.4739 47.107 22.456 47.0938 22.4428C47.0806 22.4296 47.0627 22.4222 47.0441 22.4222H36.4972C36.493 22.4225 36.4832 22.4251 36.4691 22.4294C36.455 22.4338 36.4373 22.4398 36.4184 22.4466C36.3547 22.4697 36.2719 22.4685 36.17 22.4429C34.7956 22.0941 33.62 21.7369 32.4622 21.2504C31.535 20.8613 30.4259 20.7572 29.4519 20.7319C28.5528 20.7094 27.6603 21.2485 27.0116 21.8429C23.5925 24.976 22.385 31.1925 22.6709 35.5932C22.9306 39.6057 24.6669 43.5282 27.7513 46.1429C31.985 49.7316 36.5881 47.8397 38.8559 43.3013C38.9228 43.1682 38.9569 43.0219 38.9581 42.8625C38.9694 41.175 38.9728 39.4988 38.9684 37.8338Z" fill="white"/>
</svg>
