<svg width="100" height="100" viewBox="0 0 100 100" fill="none" xmlns="http://www.w3.org/2000/svg">
<rect width="100" height="100" fill="#01367C"/>
<path d="M14.7886 51.6799H11.5132C11.3568 51.6799 11.2927 51.6033 11.3208 51.45L11.6821 49.465C11.7134 49.2992 11.812 49.2163 11.9778 49.2163H17.9702C18.1298 49.2163 18.1955 49.2945 18.1673 49.4509L16.6891 57.2219C16.6641 57.3564 16.5828 57.4237 16.4451 57.4237C11.1941 57.4377 3.63901 59.1975 5.21103 50.4129C6.7549 41.7879 12.3579 42.9282 19.195 43.0126C19.3639 43.0126 19.4328 43.0955 19.4015 43.2613L19.0308 45.2088C18.9963 45.3777 18.8947 45.4622 18.7257 45.4622C16.5014 45.4591 14.2944 45.4606 12.1045 45.4669C10.3823 45.4716 9.39684 46.2505 8.77741 47.8836C8.10168 49.6574 7.22885 52.9657 8.73049 54.4392C9.79571 55.4809 12.6254 55.0961 14.0894 55.0727C14.2333 55.0695 14.3209 54.9976 14.3522 54.8568L14.9623 51.8911C14.9904 51.7503 14.9325 51.6799 14.7886 51.6799Z" fill="white"/>
<path d="M24.0796 54.7816C25.2434 55.3541 27.6835 55.0819 29.035 55.0866C29.2259 55.0866 29.3056 55.182 29.2743 55.3728L28.9506 57.1982C28.9224 57.3547 28.8285 57.4329 28.669 57.4329C25.3701 57.4094 19.4199 58.3808 20.4992 52.7637C21.1123 49.5728 21.7224 46.3802 22.3293 43.1861C22.3543 43.0578 22.431 42.9953 22.5592 42.9984L24.7272 43.0031C24.7655 43.0029 24.8034 43.0113 24.838 43.0279C24.8727 43.0444 24.9033 43.0686 24.9275 43.0987C24.9518 43.1289 24.9691 43.1641 24.9783 43.2019C24.9875 43.2398 24.9883 43.2793 24.9806 43.3175C24.4331 45.8453 23.9248 48.3699 23.4555 50.8914C23.1364 52.5901 22.5968 54.0495 24.0796 54.7816Z" fill="white"/>
<path d="M68.3266 50.3189C70.5181 52.1491 69.5514 55.5043 67.4632 56.8229C65.5439 58.0336 58.993 57.4282 56.5388 57.4235C56.3824 57.4235 56.3198 57.3469 56.3511 57.1936L59.054 43.3269C59.0916 43.1267 59.212 43.0251 59.4154 43.0219C61.771 42.9703 67.2332 42.4729 69.2088 43.5334C71.8461 44.9506 70.5462 48.6531 68.3501 49.9951C68.1936 50.0921 68.1858 50.2001 68.3266 50.3189ZM66.642 45.6451C64.9933 45.57 63.3399 45.5512 61.6819 45.5888C61.5317 45.5919 61.4426 45.6654 61.4144 45.8093L60.8044 48.7469C60.7731 48.8939 60.8341 48.969 60.9874 48.9722C62.586 48.9941 64.183 48.9941 65.7785 48.9722C67.7963 48.9487 68.6175 45.7296 66.642 45.6451ZM65.7738 51.5859L60.5228 51.5109C60.3633 51.5077 60.2678 51.5844 60.2366 51.7408L59.6218 54.8285C59.5968 54.9599 59.6515 55.0272 59.7861 55.0303C61.8743 55.0491 67.3083 56.058 66.5434 52.2288C66.508 52.0498 66.4123 51.8883 66.2723 51.7713C66.1322 51.6544 65.9563 51.5889 65.7738 51.5859Z" fill="white"/>
<path d="M80.7386 54.0262H74.8682C74.8427 54.0253 74.8174 54.0314 74.7951 54.0438C74.7728 54.0562 74.7543 54.0744 74.7415 54.0966L72.9395 57.3579C72.9268 57.38 72.9083 57.3983 72.8859 57.4107C72.8636 57.4231 72.8384 57.4292 72.8128 57.4283H70.2131C70.1884 57.4283 70.1641 57.4218 70.1427 57.4095C70.1213 57.3971 70.1035 57.3794 70.0911 57.358C70.0788 57.3366 70.0723 57.3123 70.0723 57.2876C70.0723 57.2628 70.0788 57.2386 70.0911 57.2172L78.1389 43.0689C78.1513 43.0475 78.1691 43.0297 78.1905 43.0174C78.2119 43.005 78.2362 42.9985 78.261 42.9985H81.0624C81.0939 42.9987 81.1244 43.0094 81.1491 43.029C81.1738 43.0486 81.1912 43.0758 81.1985 43.1065L84.5209 57.2547C84.5258 57.2753 84.5261 57.2968 84.5215 57.3175C84.517 57.3383 84.5079 57.3577 84.4948 57.3744C84.4817 57.3911 84.465 57.4046 84.446 57.4139C84.4269 57.4233 84.406 57.4282 84.3848 57.4283H81.7241C81.6926 57.4281 81.6621 57.4174 81.6374 57.3978C81.6128 57.3783 81.5954 57.351 81.588 57.3204L80.8747 54.1341C80.8674 54.1035 80.85 54.0762 80.8253 54.0567C80.8006 54.0371 80.7701 54.0264 80.7386 54.0262ZM79.1103 47.0952C79.1034 47.067 79.0881 47.0415 79.0665 47.022C79.045 47.0025 79.0181 46.9899 78.9893 46.9859C78.9605 46.9819 78.9312 46.9865 78.9051 46.9993C78.879 47.0121 78.8573 47.0324 78.8428 47.0576L76.3417 51.464C76.3295 51.4861 76.3232 51.511 76.3235 51.5363C76.3238 51.5615 76.3307 51.5863 76.3435 51.608C76.3563 51.6298 76.3745 51.6479 76.3964 51.6605C76.4183 51.6731 76.4431 51.6798 76.4684 51.6799H80.0348C80.0566 51.6797 80.0781 51.6747 80.0977 51.6651C80.1173 51.6555 80.1345 51.6417 80.148 51.6245C80.1615 51.6074 80.171 51.5875 80.1758 51.5662C80.1805 51.5449 80.1805 51.5228 80.1755 51.5016L79.1103 47.0952Z" fill="white"/>
<path d="M88.8239 52.1491C88.0684 56.0768 92.5311 55.1008 94.7085 55.0773C94.868 55.0773 94.9337 55.1555 94.9056 55.3119L94.5677 57.1045C94.5518 57.1858 94.5088 57.2593 94.4457 57.313C94.3827 57.3667 94.3032 57.3975 94.2204 57.4002C90.9966 57.5269 85.0229 58.2965 86.0835 52.7263C86.6872 49.5541 87.291 46.3819 87.8948 43.2097C87.9198 43.0689 88.0043 42.9985 88.1482 42.9985H90.3443C90.507 42.9985 90.5727 43.0799 90.5414 43.2425C89.9658 46.2114 89.3933 49.1803 88.8239 52.1491Z" fill="white"/>
<path d="M42.9443 59.9293C43.9798 60.3016 45.3673 59.9935 47.1067 59.0049" stroke="#FEF85E" stroke-width="0.938522"/>
<path d="M52.8032 52.6652C53.0222 52.418 53.1473 52.0317 53.1786 51.5061" stroke="#FEF85E" stroke-width="0.938522"/>
<path d="M53.0188 47.7145C53.0282 45.6497 52.0302 43.6851 50.0249 41.8206" stroke="#FEF85E" stroke-width="0.938522"/>
<path d="M46.1776 38.8268L45.5535 39.2961C41.2034 42.121 37.6324 47.053 35.4081 51.6142L34.7417 53.0032L33.9674 55.3073C33.8048 55.4919 33.7469 55.7421 33.7938 56.0581C32.7098 58.9534 33.4419 63.1768 37.4306 62.9375C39.4453 62.8186 41.1534 62.0881 42.5549 60.746L44.1316 60.7929C42.7676 61.6095 41.352 62.2883 39.8848 62.8295C32.4283 65.5794 30.9782 59.0661 32.4376 53.5147C32.6003 53.2801 32.6832 52.9891 32.6864 52.6419C33.0743 52.1914 33.348 51.5454 33.5076 50.7038L34.0894 50.0234C34.2396 49.6355 34.2803 49.3633 34.2115 49.2069L34.9388 48.2543C35.9524 46.6369 37.0505 45.1509 38.233 43.7963C38.3707 43.643 38.4614 43.3912 38.5052 43.0408C38.6053 42.9125 38.7226 42.8171 38.8571 42.7545C38.9791 42.6982 39.0886 42.62 39.1856 42.5199L42.4892 39.1553L43.6389 38.3998C47.0363 36.1427 54.1316 33.8292 55.2202 39.7654C55.2421 39.8811 55.2359 39.9781 55.2015 40.0563C55.1796 40.1063 55.153 40.1517 55.1217 40.1924C55.0497 40.2862 55.0013 40.2753 54.9762 40.1595C53.9392 35.3027 48.8805 37.2173 46.1776 38.8268Z" fill="#E40915"/>
<path d="M43.639 38.3999L42.4893 39.1554L39.7723 39.6012C39.3281 39.6387 39.2186 39.6012 39.4438 39.4885L37.6982 40.3379C36.3311 40.9824 35.1767 41.9741 34.235 43.313C32.2641 46.1161 31.748 49.2257 32.6865 52.6419C32.6833 52.9892 32.6004 53.2801 32.4378 53.5148C29.7724 45.6499 35.2674 37.9118 43.639 38.3999Z" fill="white"/>
<path d="M46.1774 38.8271C49.5467 39.9565 51.9446 42.2715 53.3711 45.7722L53.9061 47.5085C54.3535 54.563 51.0952 58.9913 44.1314 60.7933L42.5547 60.7463C38.8882 60.4554 35.9678 58.8928 33.7936 56.0584C33.7467 55.7425 33.8045 55.4922 33.9672 55.3076C36.2619 57.5319 39.7438 59.897 42.9442 59.9298C43.9797 60.3021 45.3671 59.994 47.1065 59.0054C49.944 57.9355 51.8429 55.8222 52.8033 52.6657C53.0223 52.4185 53.1475 52.0322 53.1787 51.5066C53.5322 50.3678 53.4791 49.104 53.0192 47.715C53.0286 45.6502 52.0306 43.6856 50.0253 41.821C48.9398 40.651 47.4491 39.8095 45.5533 39.2964L46.1774 38.8271Z" fill="#FDFDBB"/>
<path d="M42.4889 39.1553L39.1853 42.5199C39.0883 42.62 38.9788 42.6982 38.8568 42.7545C38.7223 42.8171 38.605 42.9125 38.5049 43.0408L38.5987 41.8676C38.6112 41.7049 38.5565 41.5735 38.4345 41.4734C38.0966 41.1981 37.851 40.8196 37.6978 40.3378L39.4434 39.4884C39.0555 40.1892 39.0226 40.5318 39.3449 40.5161C39.7296 40.4974 39.872 40.1923 39.7719 39.6011L42.4889 39.1553Z" fill="#01367C"/>
<path d="M45.5538 39.2964C47.4496 39.8094 48.9403 40.651 50.0259 41.821C49.4768 41.6755 48.2192 40.7323 47.8438 40.7323C47.7406 40.7323 47.642 40.762 47.5482 40.8215C47.4011 40.9122 47.398 41.0061 47.5388 41.103C49.0029 42.1135 49.9304 43.5698 50.3215 45.4719C50.4216 45.9443 50.7047 46.1711 51.1709 46.1523C51.3711 46.1429 51.4509 46.0397 51.4102 45.8426C51.3288 45.4453 51.4039 45.1027 51.6354 44.8149C51.6581 44.7859 51.6881 44.7634 51.7224 44.7499C51.7567 44.7364 51.7939 44.7323 51.8303 44.7381C51.8667 44.7438 51.9009 44.7592 51.9293 44.7826C51.9578 44.806 51.9794 44.8366 51.9921 44.8712L53.0197 47.7149C53.4796 49.1039 53.5328 50.3678 53.1793 51.5066C52.5567 51.6035 52.1016 51.4205 51.8137 50.9575C51.7778 50.8994 51.724 50.8546 51.6603 50.8298C51.5966 50.805 51.5266 50.8016 51.4609 50.8202C51.3951 50.8387 51.3372 50.8782 51.2959 50.9326C51.2545 50.9871 51.2321 51.0534 51.2319 51.1218C51.2319 52.1322 51.7559 52.6469 52.8039 52.6656C51.8435 55.8222 49.9445 57.9354 47.1071 59.0054C45.937 58.7488 44.5496 59.057 42.9447 59.9298C39.7444 59.897 36.2625 57.5319 33.9678 55.3076L34.7421 53.0035C35.0612 53.4728 35.4068 53.7997 35.7791 53.9843C35.8045 53.9969 35.8325 54.0034 35.8609 54.0031C35.8893 54.0028 35.9173 53.9958 35.9428 53.9826C35.9682 53.9694 35.9905 53.9504 36.0077 53.927C36.0249 53.9037 36.0366 53.8767 36.0419 53.8482L36.2906 52.3043C36.3094 52.1792 36.2718 52.0712 36.178 51.9805C36.0091 51.821 35.7525 51.699 35.4084 51.6145C37.6327 47.0533 41.2038 42.1213 45.5538 39.2964ZM46.0043 40.4602L45.2723 40.249C45.0939 40.1989 44.9985 40.2646 44.986 40.4461L44.9297 41.1453C44.9262 41.1976 44.9374 41.2499 44.9621 41.2962C44.9868 41.3426 45.0239 41.3811 45.0693 41.4074C45.1146 41.4338 45.1665 41.4469 45.2189 41.4454C45.2714 41.4438 45.3224 41.4277 45.3661 41.3987L46.0794 40.92C46.1194 40.8922 46.1508 40.8537 46.1699 40.8088C46.1889 40.7639 46.1948 40.7145 46.187 40.6664C46.1791 40.6183 46.1578 40.5734 46.1255 40.5369C46.0931 40.5004 46.0511 40.4738 46.0043 40.4602ZM46.8255 43.2006C46.806 43.1809 46.7803 43.1683 46.7527 43.1651C46.7251 43.1619 46.6973 43.1682 46.6737 43.183C46.6502 43.1977 46.6324 43.2201 46.6233 43.2464C46.6142 43.2726 46.6144 43.3012 46.6237 43.3273C46.7457 43.709 47.0242 44.0281 47.459 44.2846C47.5842 44.3578 47.7307 44.3858 47.874 44.364C48.0174 44.3422 48.1489 44.2719 48.2466 44.1648C48.3444 44.0578 48.4025 43.9204 48.4111 43.7756C48.4198 43.6309 48.3786 43.4876 48.2943 43.3696C47.7687 42.6563 47.0852 42.112 46.2436 41.7365C46.2096 41.7217 46.1729 41.7142 46.1358 41.7146C46.0987 41.7149 46.0621 41.7231 46.0285 41.7386C45.9948 41.7542 45.9647 41.7766 45.9404 41.8046C45.916 41.8325 45.8978 41.8653 45.887 41.9008L45.7462 42.3794C45.6836 42.589 45.7556 42.6563 45.9621 42.5812C46.8412 42.2559 47.4449 42.5312 47.7734 43.4071C47.886 43.7106 47.7938 43.795 47.4966 43.6605C47.2494 43.5479 47.0257 43.3946 46.8255 43.2006ZM44.9625 43.1913C44.4041 43.6887 43.6111 44.2096 43.2873 44.89C43.1559 45.1622 43.2059 45.2013 43.4374 45.0073L45.291 43.4493C45.3024 43.4396 45.3117 43.4275 45.3181 43.4139C45.3246 43.4004 45.3282 43.3856 45.3286 43.3706C45.3291 43.3556 45.3264 43.3406 45.3207 43.3267C45.315 43.3128 45.3065 43.3002 45.2957 43.2898C45.2676 43.2585 45.2378 43.2288 45.2066 43.2006C45.1284 43.1224 45.047 43.1193 44.9625 43.1913ZM47.9095 45.0824L47.7406 44.9134C47.7105 44.8832 47.6732 44.8612 47.6322 44.8496C47.5912 44.8379 47.5479 44.837 47.5064 44.8469C47.465 44.8568 47.4268 44.8771 47.3955 44.9061C47.3641 44.935 47.3408 44.9714 47.3276 45.012L47.2713 45.1856C47.2056 45.3827 47.2713 45.511 47.4684 45.5704C47.9314 45.7081 48.2333 46.0225 48.3741 46.5136C48.3856 46.5595 48.4124 46.6 48.4502 46.6284C48.4879 46.6568 48.5343 46.6714 48.5815 46.6698C48.6288 46.6681 48.674 46.6503 48.7097 46.6193C48.7454 46.5884 48.7694 46.5461 48.7776 46.4995L49.1343 44.7961C49.1419 44.7401 49.1295 44.6831 49.0991 44.6354C49.0688 44.5876 49.0225 44.5522 48.9685 44.5353C48.9145 44.5184 48.8563 44.5212 48.8042 44.5432C48.7521 44.5652 48.7094 44.6049 48.6838 44.6553C48.5555 44.9557 48.3287 45.1105 48.0034 45.1199C47.9689 45.1199 47.9377 45.1074 47.9095 45.0824ZM39.8054 49.0148C39.2861 48.899 38.9607 49.118 38.8293 49.6718C38.7949 49.8157 38.7073 49.861 38.5665 49.8078L38.1348 49.6436C38.0864 49.6253 38.0342 49.6191 37.9829 49.6255C37.9315 49.6319 37.8824 49.6507 37.84 49.6802C37.7975 49.7098 37.7628 49.7492 37.739 49.7952C37.7151 49.8411 37.7028 49.8922 37.7031 49.9439C37.7031 51.3924 38.2834 52.4717 39.444 53.1818C39.613 53.2819 39.7913 53.307 39.979 53.2569C40.6297 53.0723 41.1756 53.2694 41.6167 53.8482C41.6615 53.9071 41.7196 53.9545 41.7863 53.9867C41.853 54.0189 41.9265 54.035 42.0008 54.0336C42.0752 54.0323 42.1483 54.0135 42.2145 53.9789C42.2806 53.9442 42.3378 53.8946 42.3816 53.8341C42.6694 53.4305 42.8337 52.991 42.8743 52.5155C42.8836 52.3805 42.9308 52.2505 43.0104 52.1401C43.6267 51.2704 43.9489 50.288 43.9771 49.1931C43.9802 49.0304 43.9302 48.885 43.8269 48.7567L43.6721 48.5643C43.6415 48.527 43.619 48.4837 43.6062 48.4372C43.5933 48.3908 43.5903 48.3423 43.5974 48.2949C43.6045 48.2475 43.6215 48.2022 43.6473 48.1621C43.6731 48.122 43.7071 48.088 43.7472 48.0622L44.8781 47.3254C44.9064 47.3064 44.9297 47.2806 44.9456 47.2505C44.9616 47.2203 44.9697 47.1868 44.9692 47.153C44.9687 47.1192 44.9597 47.0863 44.9429 47.0574C44.9262 47.0285 44.9022 47.0044 44.8734 46.9876L43.5172 46.1617C43.3577 46.0647 43.2325 46.0975 43.1418 46.2602C42.7132 47.0361 42.0797 47.5225 41.2413 47.7196C41.151 47.7417 41.07 47.791 41.0094 47.8609C40.9488 47.9307 40.9118 48.0175 40.9034 48.1091C40.8659 48.544 40.6672 48.8333 40.3075 48.9772C40.1448 49.0429 39.9774 49.0555 39.8054 49.0148ZM49.9742 50.432C49.6145 50.9419 49.6958 51.0232 50.2183 50.676C50.7501 50.3225 50.8471 49.8782 50.5092 49.3433C50.4909 49.3122 50.4623 49.2885 50.4283 49.2763C50.3944 49.2641 50.3573 49.2641 50.3233 49.2763C50.2894 49.2886 50.2608 49.3123 50.2425 49.3433C50.2242 49.3744 50.2172 49.4109 50.223 49.4465C50.2699 49.8 50.187 50.1285 49.9742 50.432ZM47.0414 52.1541C47.4074 52.0885 47.7218 52.1776 47.9846 52.4216C48.0337 52.4745 48.1019 52.5057 48.1741 52.5084C48.2462 52.511 48.3165 52.4849 48.3694 52.4357C48.4223 52.3865 48.4535 52.3184 48.4561 52.2462C48.4588 52.1741 48.4326 52.1038 48.3835 52.0509C47.7984 51.3408 47.0883 51.2829 46.253 51.8773C46.0778 52.0024 45.9636 51.9602 45.9105 51.7506L45.7556 51.1312C45.7394 51.0701 45.7393 51.006 45.7552 50.9449C45.7711 50.8838 45.8026 50.8279 45.8465 50.7826C45.8904 50.7372 45.9453 50.704 46.0058 50.6862C46.0664 50.6683 46.1305 50.6664 46.192 50.6807C47.0586 50.8809 47.8829 50.798 48.665 50.432C48.7174 50.4073 48.7636 50.3713 48.8003 50.3266C48.837 50.2818 48.8633 50.2295 48.8773 50.1733C48.8912 50.1171 48.8924 50.0585 48.8809 50.0018C48.8693 49.9451 48.8453 49.8916 48.8105 49.8454C48.5946 49.5638 48.3975 49.5935 48.2192 49.9345C48.1911 49.9865 48.1488 50.0295 48.0974 50.0585C48.0459 50.0876 47.9873 50.1015 47.9283 50.0988L46.1404 50.019C45.9533 50.0095 45.7687 50.0657 45.6187 50.178C45.4687 50.2903 45.3628 50.4515 45.3192 50.6337L44.7091 53.1349C44.6872 53.2319 44.7076 53.321 44.7702 53.4024C45.0517 53.7434 45.1456 54.1469 45.0517 54.6131C45.0443 54.6507 45.0445 54.6895 45.0524 54.727C45.0602 54.7646 45.0755 54.8002 45.0974 54.8317C45.1193 54.8632 45.1473 54.89 45.1798 54.9105C45.2122 54.931 45.2485 54.9447 45.2863 54.9509C45.5523 54.9916 45.7134 54.8774 45.7697 54.6084C45.826 54.3331 45.7994 53.9671 45.6899 53.5103C45.6524 53.357 45.6883 53.2256 45.7978 53.1161L45.8964 53.0176C45.9193 52.9956 45.9476 52.98 45.9783 52.9722C46.0091 52.9645 46.0412 52.965 46.0713 52.9736C46.1015 52.9822 46.1286 52.9986 46.1498 53.0212C46.171 53.0438 46.1856 53.0717 46.192 53.1021L46.5346 54.5239C46.5603 54.6105 46.6179 54.6841 46.6957 54.7298C46.7736 54.7756 46.8659 54.7901 46.9541 54.7704C47.0422 54.7508 47.1196 54.6984 47.1706 54.6239C47.2217 54.5494 47.2426 54.4584 47.2291 54.3691L46.8255 52.4779C46.7848 52.2965 46.8568 52.1886 47.0414 52.1541ZM50.5561 53.088C50.6124 53.088 50.6672 53.088 50.7204 53.088C50.7606 53.0882 50.7998 53.0767 50.8335 53.0549C50.8672 53.0332 50.894 53.002 50.9108 52.9651C50.9275 52.9282 50.9335 52.8871 50.928 52.8465C50.9226 52.8059 50.9059 52.7676 50.8799 52.736C50.5796 52.3856 50.2574 52.3903 49.9132 52.7501C49.87 52.796 49.8408 52.8532 49.8292 52.9148C49.8175 52.9764 49.8239 53.0398 49.8475 53.0974C49.9445 53.3382 50.1698 53.3382 50.5233 53.0974C50.5327 53.0911 50.5436 53.088 50.5561 53.088ZM41.5557 56.0162C40.5578 55.5782 39.4925 55.3389 38.3601 55.2982C38.1723 55.2919 38.0097 55.2247 37.872 55.0964C37.6562 54.8931 37.3871 54.7273 37.0649 54.599C36.9798 54.5648 36.8927 54.5675 36.821 54.6064C36.7492 54.6453 36.6982 54.7176 36.678 54.8089C36.6579 54.9002 36.6701 55.0037 36.7122 55.0988C36.7544 55.1938 36.8233 55.2734 36.9053 55.3217C38.2506 56.135 39.7428 56.6043 41.3821 56.7294C41.4691 56.7357 41.5551 56.711 41.6252 56.6597C41.6953 56.6085 41.745 56.5339 41.7657 56.449C41.7863 56.3641 41.7766 56.2743 41.7383 56.1952C41.6999 56.1161 41.6353 56.0527 41.5557 56.0162ZM48.8339 56.0396C49.0154 55.9927 49.1092 55.9223 49.1155 55.8285C49.128 55.6846 49.0623 55.6142 48.9184 55.6173C48.1676 55.6298 47.6467 56.0005 47.3558 56.7294C47.3349 56.7787 47.3317 56.8334 47.3467 56.8844C47.3616 56.9355 47.3938 56.9799 47.438 57.0104C47.4821 57.041 47.5357 57.0558 47.5898 57.0525C47.6439 57.0492 47.6954 57.0279 47.7359 56.9922L48.7401 56.0959C48.7678 56.0682 48.8002 56.0487 48.8339 56.0396ZM46.4407 56.523C46.4907 56.5298 46.5419 56.5166 46.5829 56.4863C46.624 56.4559 46.6516 56.4109 46.6597 56.3611C46.6678 56.3114 46.6557 56.2609 46.6261 56.2208C46.5964 56.1808 46.5517 56.1544 46.5017 56.1476C45.6821 55.9505 45.0783 56.1867 44.6904 56.8561C44.5809 57.0407 44.6325 57.1518 44.8452 57.1893C44.889 57.1956 44.9313 57.1987 44.9719 57.1987C45.1158 57.1987 45.2034 57.1283 45.2347 56.9875C45.3192 56.6278 45.7212 56.4729 46.4407 56.523ZM43.5078 56.3728C43.3639 56.3978 43.2278 56.4479 43.0996 56.523C43.0686 56.5431 43.0448 56.5726 43.0318 56.6072C43.0187 56.6418 43.0171 56.6796 43.027 56.7152C43.037 56.7509 43.058 56.7823 43.0871 56.8052C43.1162 56.828 43.1518 56.8409 43.1887 56.8421H44.0334C44.0791 56.8425 44.124 56.8313 44.1642 56.8095C44.2043 56.7877 44.2383 56.7559 44.2631 56.7171C44.2878 56.6783 44.3026 56.6338 44.3059 56.5876C44.3092 56.5413 44.301 56.4949 44.2821 56.4526C44.1664 56.1992 43.9677 56.1523 43.6862 56.3118C43.6298 56.3431 43.5704 56.3634 43.5078 56.3728ZM42.3065 56.3681L42.1001 56.4667C42.0521 56.4919 42.0151 56.534 41.9962 56.5848C41.9773 56.6356 41.9777 56.6916 41.9974 56.7421C42.0172 56.7926 42.0548 56.834 42.1032 56.8585C42.1515 56.883 42.2072 56.8889 42.2596 56.8749L42.7007 56.7341C42.7852 56.7091 42.7961 56.6653 42.7336 56.6027L42.5459 56.4103C42.5138 56.3799 42.4738 56.3596 42.4311 56.3521C42.3884 56.3445 42.345 56.3501 42.3065 56.3681Z" fill="#01367C"/>
<path d="M39.4438 39.4885C39.2186 39.6011 39.3281 39.6387 39.7723 39.6012C39.8724 40.1924 39.7301 40.4974 39.3453 40.5162C39.0231 40.5319 39.0559 40.1893 39.4438 39.4885Z" fill="#FEF300"/>
<path d="M46.0039 40.4598C46.0508 40.4734 46.0928 40.5 46.1251 40.5365C46.1574 40.573 46.1787 40.6179 46.1866 40.6661C46.1945 40.7142 46.1885 40.7636 46.1695 40.8084C46.1504 40.8533 46.1191 40.8919 46.079 40.9197L45.3657 41.3983C45.322 41.4273 45.271 41.4435 45.2186 41.445C45.1661 41.4466 45.1143 41.4334 45.0689 41.4071C45.0235 41.3807 44.9864 41.3422 44.9617 41.2959C44.9371 41.2496 44.9259 41.1973 44.9293 41.1449L44.9856 40.4457C44.9982 40.2643 45.0936 40.1986 45.2719 40.2487L46.0039 40.4598Z" fill="#FEF300"/>
<path d="M37.6984 40.3379C37.8517 40.8197 38.0973 41.1982 38.4351 41.4735C38.5571 41.5736 38.6119 41.705 38.5994 41.8677L38.5055 43.0408L36.3 44.7912C36.1811 44.885 36.0669 44.8819 35.9574 44.7818L34.9673 43.8949C34.9308 43.8609 34.8859 43.8374 34.8371 43.8268C34.7883 43.8162 34.7375 43.819 34.6898 43.8347C34.6421 43.8505 34.5992 43.8787 34.5655 43.9165C34.5318 43.9542 34.5085 44.0002 34.498 44.0497L34.0945 46.1239C34.0841 46.1797 34.0863 46.2373 34.1009 46.2924C34.1155 46.3476 34.1421 46.399 34.1789 46.443C34.5825 46.9154 34.8359 47.5191 34.9391 48.2543L34.2118 49.2069L33.5501 46.3632C33.5189 46.2193 33.522 46.0754 33.5595 45.9315L34.2353 43.313C35.1769 41.974 36.3313 40.9823 37.6984 40.3379Z" fill="#FEF300"/>
<path d="M50.0254 41.8209C52.0307 43.6854 53.0287 45.65 53.0193 47.7148L51.9916 44.8711C51.979 44.8365 51.9573 44.8059 51.9289 44.7825C51.9005 44.7591 51.8663 44.7437 51.8299 44.7379C51.7935 44.7322 51.7562 44.7363 51.722 44.7498C51.6877 44.7633 51.6577 44.7857 51.635 44.8148C51.4035 45.1026 51.3284 45.4451 51.4097 45.8424C51.4504 46.0395 51.3706 46.1428 51.1704 46.1521C50.7043 46.1709 50.4212 45.9441 50.3211 45.4717C49.93 43.5696 49.0024 42.1134 47.5383 41.1029C47.3976 41.0059 47.4007 40.9121 47.5477 40.8213C47.6416 40.7619 47.7401 40.7322 47.8434 40.7322C48.2188 40.7322 49.4764 41.6754 50.0254 41.8209Z" fill="#FEF300"/>
<path d="M46.8248 43.2004C47.025 43.3944 47.2487 43.5477 47.4958 43.6603C47.793 43.7948 47.8853 43.7104 47.7727 43.4069C47.4442 42.531 46.8404 42.2557 45.9613 42.581C45.7548 42.6561 45.6829 42.5888 45.7455 42.3792L45.8862 41.9006C45.897 41.8651 45.9152 41.8323 45.9396 41.8044C45.964 41.7764 45.994 41.754 46.0277 41.7384C46.0614 41.7229 46.098 41.7147 46.1351 41.7144C46.1722 41.714 46.2089 41.7215 46.2429 41.7364C47.0844 42.1118 47.768 42.6561 48.2935 43.3694C48.3778 43.4874 48.4191 43.6307 48.4104 43.7754C48.4017 43.9202 48.3437 44.0576 48.2459 44.1646C48.1481 44.2717 48.0166 44.3421 47.8733 44.3639C47.7299 44.3857 47.5834 44.3576 47.4583 44.2844C47.0234 44.0279 46.745 43.7088 46.623 43.3271C46.6136 43.301 46.6135 43.2724 46.6226 43.2462C46.6317 43.2199 46.6495 43.1975 46.673 43.1828C46.6965 43.168 46.7244 43.1617 46.752 43.1649C46.7796 43.1681 46.8053 43.1807 46.8248 43.2004Z" fill="#FEF300"/>
<path d="M38.5049 43.0413C38.4611 43.3916 38.3704 43.6435 38.2327 43.7968C37.0502 45.1514 35.9521 46.6374 34.9385 48.2548C34.8353 47.5196 34.5819 46.9158 34.1783 46.4434C34.1415 46.3994 34.1149 46.348 34.1003 46.2929C34.0856 46.2377 34.0835 46.1802 34.0938 46.1243L34.4974 44.0502C34.5079 44.0007 34.5312 43.9547 34.5648 43.9169C34.5985 43.8791 34.6414 43.8509 34.6891 43.8352C34.7369 43.8194 34.7877 43.8167 34.8365 43.8272C34.8852 43.8378 34.9301 43.8613 34.9667 43.8953L35.9568 44.7822C36.0663 44.8823 36.1805 44.8855 36.2994 44.7916L38.5049 43.0413Z" fill="#01367C"/>
<path d="M43.2872 44.8898C43.611 44.2094 44.404 43.6885 44.9624 43.1911C45.0469 43.1192 45.1282 43.1223 45.2065 43.2005C45.2377 43.2287 45.2675 43.2584 45.2956 43.2897C45.3064 43.3001 45.3149 43.3127 45.3206 43.3266C45.3263 43.3405 45.329 43.3555 45.3285 43.3705C45.3281 43.3855 45.3245 43.4003 45.318 43.4138C45.3116 43.4274 45.3023 43.4394 45.2909 43.4492L43.4373 45.0072C43.2058 45.2011 43.1558 45.162 43.2872 44.8898Z" fill="#FEF300"/>
<path d="M34.2351 43.3127L33.5594 45.9312C33.5218 46.0751 33.5187 46.219 33.55 46.3629L34.2116 49.2067C34.2805 49.3631 34.2398 49.6353 34.0896 50.0232L33.2074 47.752C33.1856 47.7058 33.1477 47.6691 33.1008 47.6487C33.054 47.6283 33.0013 47.6256 32.9526 47.6411C32.9039 47.6565 32.8625 47.6891 32.836 47.7328C32.8095 47.7765 32.7998 47.8283 32.8086 47.8787L33.5078 50.7036C33.3482 51.5452 33.0745 52.1912 32.6865 52.6417C31.748 49.2254 32.2642 46.1158 34.2351 43.3127Z" fill="#01367C"/>
<path d="M48.0033 45.1194C48.3286 45.11 48.5554 44.9552 48.6837 44.6549C48.7093 44.6044 48.752 44.5647 48.8041 44.5427C48.8562 44.5207 48.9145 44.5179 48.9684 44.5348C49.0224 44.5517 49.0687 44.5871 49.0991 44.6349C49.1294 44.6826 49.1418 44.7396 49.1342 44.7956L48.7775 46.499C48.7693 46.5456 48.7453 46.5879 48.7096 46.6188C48.6739 46.6498 48.6287 46.6676 48.5815 46.6693C48.5342 46.6709 48.4879 46.6563 48.4501 46.6279C48.4123 46.5995 48.3855 46.559 48.374 46.5131C48.2332 46.022 47.9313 45.7076 47.4683 45.5699C47.2712 45.5105 47.2055 45.3822 47.2712 45.1851L47.3275 45.0115C47.3407 44.971 47.364 44.9345 47.3954 44.9056C47.4267 44.8766 47.4649 44.8563 47.5064 44.8464C47.5478 44.8365 47.5911 44.8374 47.6321 44.8491C47.6731 44.8607 47.7104 44.8827 47.7405 44.9129L47.9094 45.0819C47.9376 45.1069 47.9689 45.1194 48.0033 45.1194Z" fill="#FEF300"/>
<path d="M53.9065 47.5081L53.3716 45.7718C53.5781 45.4997 53.7767 45.3855 53.9675 45.4293C54.161 45.4731 54.3356 45.5771 54.4663 45.7263C54.597 45.8755 54.677 46.0623 54.6949 46.2599C54.7418 46.7823 54.479 47.1984 53.9065 47.5081Z" fill="#E40915"/>
<path d="M40.307 48.9771C40.6668 48.8332 40.8655 48.5438 40.903 48.1089C40.9113 48.0173 40.9484 47.9305 41.0089 47.8607C41.0695 47.7909 41.1506 47.7415 41.2409 47.7195C42.0793 47.5224 42.7128 47.0359 43.1414 46.2601C43.2321 46.0974 43.3572 46.0645 43.5168 46.1615L44.8729 46.9874C44.9018 47.0043 44.9257 47.0283 44.9425 47.0572C44.9593 47.0862 44.9683 47.1191 44.9688 47.1528C44.9692 47.1866 44.9611 47.2202 44.9452 47.2503C44.9292 47.2805 44.906 47.3063 44.8776 47.3253L43.7467 48.062C43.7067 48.0878 43.6727 48.1219 43.6469 48.162C43.6211 48.2021 43.6041 48.2473 43.597 48.2947C43.5899 48.3421 43.5929 48.3906 43.6057 48.4371C43.6186 48.4835 43.6411 48.5268 43.6716 48.5641L43.8265 48.7565C43.9297 48.8848 43.9798 49.0303 43.9767 49.1929C43.9485 50.2879 43.6263 51.2702 43.01 52.1399C42.9303 52.2503 42.8832 52.3804 42.8739 52.5153C42.8332 52.9908 42.669 53.4304 42.3812 53.8339C42.3374 53.8945 42.2801 53.944 42.214 53.9787C42.1479 54.0133 42.0747 54.0321 42.0004 54.0335C41.926 54.0348 41.8526 54.0188 41.7859 53.9866C41.7192 53.9544 41.6611 53.9069 41.6163 53.848C41.1752 53.2693 40.6293 53.0722 39.9786 53.2567C39.7909 53.3068 39.6125 53.2818 39.4436 53.1817C38.283 52.4715 37.7026 51.3922 37.7026 49.9438C37.7024 49.892 37.7147 49.8409 37.7385 49.795C37.7624 49.7491 37.797 49.7096 37.8395 49.68C37.882 49.6505 37.931 49.6317 37.9824 49.6253C38.0338 49.6189 38.0859 49.6252 38.1344 49.6434L38.5661 49.8077C38.7069 49.8609 38.7945 49.8155 38.8289 49.6716C38.9603 49.1179 39.2856 48.8989 39.8049 49.0146C39.977 49.0553 40.1444 49.0428 40.307 48.9771Z" fill="#FEF300"/>
<path d="M34.0899 50.0236L33.508 50.704L32.8088 47.8791C32.8 47.8288 32.8098 47.7769 32.8363 47.7333C32.8628 47.6896 32.9042 47.657 32.9529 47.6415C33.0016 47.626 33.0543 47.6287 33.1011 47.6491C33.148 47.6695 33.1858 47.7062 33.2077 47.7524L34.0899 50.0236Z" fill="#FEF300"/>
<path d="M49.9745 50.4316C50.1872 50.1282 50.2701 49.7997 50.2232 49.4462C50.2175 49.4106 50.2244 49.3741 50.2427 49.343C50.261 49.312 50.2896 49.2883 50.3235 49.276C50.3575 49.2638 50.3946 49.2638 50.4285 49.276C50.4625 49.2882 50.4911 49.3119 50.5094 49.343C50.8473 49.8779 50.7503 50.3222 50.2185 50.6757C49.696 51.0229 49.6147 50.9416 49.9745 50.4316Z" fill="#FEF300"/>
<path d="M46.8251 52.4779L47.2286 54.369C47.2421 54.4583 47.2213 54.5494 47.1702 54.6239C47.1192 54.6984 47.0418 54.7507 46.9536 54.7704C46.8655 54.79 46.7732 54.7755 46.6953 54.7298C46.6174 54.684 46.5598 54.6104 46.5341 54.5238L46.1916 53.102C46.1851 53.0716 46.1706 53.0437 46.1493 53.0212C46.1281 52.9986 46.1011 52.9821 46.0709 52.9735C46.0408 52.9649 46.0086 52.9644 45.9779 52.9722C45.9471 52.9799 45.9188 52.9956 45.8959 53.0175L45.7974 53.1161C45.6879 53.2255 45.6519 53.3569 45.6895 53.5102C45.799 53.967 45.8256 54.333 45.7692 54.6083C45.7129 54.8773 45.5518 54.9915 45.2859 54.9509C45.248 54.9447 45.2118 54.9309 45.1793 54.9104C45.1469 54.89 45.1189 54.8632 45.097 54.8316C45.0751 54.8001 45.0598 54.7645 45.0519 54.727C45.0441 54.6894 45.0438 54.6506 45.0513 54.613C45.1451 54.1469 45.0513 53.7433 44.7697 53.4023C44.7071 53.321 44.6868 53.2318 44.7087 53.1348L45.3188 50.6337C45.3623 50.4514 45.4683 50.2902 45.6183 50.1779C45.7683 50.0657 45.9528 50.0094 46.14 50.0189L47.9278 50.0987C47.9869 50.1014 48.0455 50.0875 48.0969 50.0584C48.1484 50.0294 48.1906 49.9864 48.2188 49.9345C48.3971 49.5935 48.5942 49.5637 48.8101 49.8453C48.8448 49.8916 48.8689 49.945 48.8804 50.0017C48.892 50.0584 48.8908 50.117 48.8768 50.1732C48.8629 50.2294 48.8366 50.2817 48.7999 50.3265C48.7632 50.3712 48.717 50.4072 48.6646 50.4319C47.8825 50.7979 47.0581 50.8808 46.1916 50.6806C46.1301 50.6663 46.0659 50.6682 46.0054 50.6861C45.9449 50.7039 45.89 50.7371 45.846 50.7825C45.8021 50.8278 45.7707 50.8837 45.7547 50.9448C45.7388 51.0059 45.739 51.0701 45.7552 51.1311L45.91 51.7505C45.9632 51.9601 46.0774 52.0023 46.2526 51.8772C47.0879 51.2828 47.798 51.3407 48.383 52.0508C48.4322 52.1037 48.4583 52.174 48.4557 52.2461C48.453 52.3183 48.4218 52.3865 48.3689 52.4356C48.3161 52.4848 48.2458 52.5109 48.1736 52.5083C48.1015 52.5056 48.0333 52.4744 47.9842 52.4215C47.7214 52.1775 47.407 52.0884 47.0409 52.1541C46.8564 52.1885 46.7844 52.2964 46.8251 52.4779Z" fill="#FEF300"/>
<path d="M53.1789 51.5063C53.1476 52.0319 53.0225 52.4182 52.8035 52.6654C51.7555 52.6466 51.2314 52.132 51.2314 51.1215C51.2317 51.0532 51.2541 50.9868 51.2954 50.9324C51.3368 50.878 51.3947 50.8385 51.4604 50.8199C51.5262 50.8014 51.5962 50.8047 51.6599 50.8295C51.7236 50.8543 51.7774 50.8991 51.8133 50.9573C52.1011 51.4203 52.5563 51.6033 53.1789 51.5063Z" fill="#FEF300"/>
<path d="M35.408 51.6145C35.7522 51.699 36.0087 51.821 36.1776 51.9805C36.2715 52.0712 36.309 52.1792 36.2903 52.3043L36.0415 53.8482C36.0362 53.8767 36.0245 53.9037 36.0073 53.9271C35.9901 53.9504 35.9679 53.9694 35.9424 53.9826C35.9169 53.9958 35.8889 54.0028 35.8605 54.0031C35.8321 54.0034 35.8041 53.9969 35.7788 53.9843C35.4065 53.7997 35.0608 53.4728 34.7417 53.0035L35.408 51.6145Z" fill="#FEF300"/>
<path d="M50.5225 53.0972C50.169 53.3381 49.9438 53.3381 49.8468 53.0972C49.8232 53.0396 49.8168 52.9762 49.8284 52.9146C49.8401 52.8531 49.8693 52.7959 49.9125 52.75C50.2566 52.3902 50.5789 52.3855 50.8792 52.7359C50.9051 52.7675 50.9218 52.8058 50.9273 52.8463C50.9328 52.8869 50.9268 52.928 50.91 52.965C50.8933 53.0019 50.8665 53.033 50.8328 53.0548C50.7991 53.0765 50.7598 53.088 50.7196 53.0878C50.6665 53.0878 50.6117 53.0878 50.5554 53.0878C50.5429 53.0878 50.5319 53.0909 50.5225 53.0972Z" fill="#FEF300"/>
<path d="M41.5551 56.016C41.6347 56.0525 41.6993 56.1159 41.7377 56.195C41.7761 56.2741 41.7858 56.3639 41.7651 56.4488C41.7444 56.5337 41.6947 56.6083 41.6246 56.6595C41.5545 56.7108 41.4685 56.7355 41.3815 56.7292C39.7422 56.6041 38.25 56.1348 36.9048 55.3215C36.8228 55.2732 36.7538 55.1936 36.7117 55.0985C36.6695 55.0035 36.6573 54.9 36.6775 54.8087C36.6976 54.7174 36.7486 54.6451 36.8204 54.6062C36.8921 54.5673 36.9792 54.5646 37.0643 54.5988C37.3865 54.7271 37.6556 54.8929 37.8714 55.0962C38.0091 55.2245 38.1718 55.2917 38.3595 55.298C39.4919 55.3387 40.5572 55.578 41.5551 56.016Z" fill="#FEF300"/>
<path d="M48.7401 56.0957L47.7359 56.992C47.6954 57.0277 47.6439 57.0489 47.5898 57.0523C47.5357 57.0556 47.4821 57.0407 47.438 57.0102C47.3938 56.9796 47.3616 56.9352 47.3467 56.8842C47.3317 56.8331 47.3349 56.7785 47.3558 56.7292C47.6467 56.0003 48.1676 55.6296 48.9184 55.617C49.0623 55.6139 49.128 55.6843 49.1155 55.8282C49.1092 55.9221 49.0154 55.9925 48.8339 56.0394C48.8002 56.0485 48.7678 56.0679 48.7401 56.0957Z" fill="#FEF300"/>
<path d="M33.7938 56.0581C35.9681 58.8924 38.8884 60.4551 42.5549 60.746C41.1534 62.0881 39.4453 62.8186 37.4306 62.9375C33.4419 63.1768 32.7098 58.9534 33.7938 56.0581Z" fill="#01367C"/>
<path d="M46.4404 56.523C45.7209 56.4729 45.3189 56.6278 45.2344 56.9875C45.2031 57.1283 45.1156 57.1987 44.9716 57.1987C44.931 57.1987 44.8887 57.1956 44.8449 57.1893C44.6322 57.1518 44.5806 57.0407 44.6901 56.8561C45.078 56.1867 45.6818 55.9505 46.5014 56.1476C46.5514 56.1544 46.5961 56.1808 46.6258 56.2208C46.6554 56.2609 46.6675 56.3114 46.6594 56.3611C46.6513 56.4109 46.6237 56.4559 46.5826 56.4863C46.5416 56.5166 46.4904 56.5298 46.4404 56.523Z" fill="#FEF300"/>
<path d="M43.6856 56.3115C43.9671 56.1519 44.1658 56.1988 44.2815 56.4522C44.3005 56.4946 44.3086 56.541 44.3053 56.5872C44.302 56.6335 44.2872 56.678 44.2625 56.7168C44.2377 56.7556 44.2037 56.7873 44.1636 56.8092C44.1234 56.831 44.0785 56.8422 44.0328 56.8417H43.1882C43.1512 56.8406 43.1156 56.8276 43.0865 56.8048C43.0574 56.782 43.0364 56.7505 43.0264 56.7149C43.0165 56.6793 43.0182 56.6415 43.0312 56.6069C43.0443 56.5723 43.068 56.5428 43.099 56.5226C43.2273 56.4475 43.3633 56.3975 43.5072 56.3725C43.5698 56.3631 43.6293 56.3427 43.6856 56.3115Z" fill="#FEF300"/>
<path d="M42.5455 56.4102L42.7332 56.6026C42.7958 56.6651 42.7848 56.7089 42.7003 56.7339L42.2592 56.8747C42.2068 56.8887 42.1512 56.8828 42.1028 56.8583C42.0544 56.8338 42.0168 56.7924 41.9971 56.7419C41.9773 56.6914 41.9769 56.6354 41.9958 56.5846C42.0147 56.5338 42.0517 56.4917 42.0997 56.4665L42.3062 56.3679C42.3446 56.3499 42.388 56.3444 42.4307 56.3519C42.4734 56.3594 42.5134 56.3797 42.5455 56.4102Z" fill="#FEF300"/>
<path d="M47.1072 59.0051C45.3678 59.9937 43.9803 60.3019 42.9448 59.9296C44.5497 59.0567 45.9371 58.7486 47.1072 59.0051Z" fill="#FEF300"/>
<path d="M81.6579 60.4881C81.7395 60.7326 81.9191 60.953 82.1572 61.1008C82.3953 61.2486 82.6724 61.3117 82.9275 61.2762C83.1827 61.2407 83.3949 61.1096 83.5177 60.9116C83.6404 60.7137 83.6635 60.4651 83.5819 60.2207C83.4974 59.9266 83.5444 59.6575 83.7227 59.4135C83.7674 59.3528 83.8313 59.309 83.9041 59.2894C83.9769 59.2697 84.0542 59.2753 84.1234 59.3053C84.1926 59.3352 84.2496 59.3878 84.2851 59.4543C84.3205 59.5209 84.3324 59.5975 84.3186 59.6716L83.6382 63.3131C83.6227 63.4022 83.572 63.4849 83.4973 63.5431C83.4225 63.6012 83.3298 63.6301 83.2396 63.6232C83.1493 63.6164 83.069 63.5744 83.0161 63.5066C82.9633 63.4387 82.9423 63.3506 82.9578 63.2615L83.1783 62.0039C83.1872 61.9526 83.1848 61.9 83.1712 61.8497C83.1576 61.7995 83.1332 61.7528 83.0997 61.713C83.0661 61.6732 83.0243 61.6413 82.9771 61.6194C82.9299 61.5974 82.8784 61.5861 82.8264 61.5862H81.7424C81.4984 61.5862 81.3905 61.7067 81.4186 61.9475C81.478 62.4919 81.3529 62.9658 81.0432 63.3694C80.9962 63.4341 80.9282 63.4806 80.8508 63.501C80.7735 63.5214 80.6914 63.5145 80.6186 63.4814C80.5458 63.4483 80.4866 63.391 80.4511 63.3193C80.4156 63.2476 80.4059 63.1658 80.4238 63.0878L81.1324 59.681C81.1431 59.6313 81.1648 59.5847 81.1961 59.5446C81.2273 59.5045 81.2672 59.4719 81.3128 59.4494C81.3583 59.4268 81.4084 59.4149 81.4592 59.4143C81.51 59.4138 81.5603 59.4248 81.6063 59.4464L81.8503 59.559C81.8847 59.5747 81.9149 59.5981 81.9386 59.6274C81.9624 59.6568 81.979 59.6912 81.9872 59.728C81.9953 59.7649 81.9949 59.8031 81.9858 59.8397C81.9767 59.8763 81.9593 59.9104 81.9348 59.9391C81.7127 60.2019 81.6204 60.3849 81.6579 60.4881Z" fill="white"/>
<path d="M86.5136 63.3002C86.1274 63.0144 85.9006 62.5464 85.8829 61.9992C85.8653 61.4519 86.0584 60.8702 86.4196 60.3819C86.7809 59.8937 87.2808 59.539 87.8093 59.3959C88.3378 59.2527 88.8517 59.3328 89.2378 59.6186C89.624 59.9043 89.8508 60.3723 89.8685 60.9196C89.8861 61.4668 89.693 62.0486 89.3318 62.5368C88.9705 63.025 88.4706 63.3797 87.9421 63.5229C87.4136 63.666 86.8997 63.5859 86.5136 63.3002ZM87.1521 62.7562C87.4063 62.8982 87.7253 62.8998 88.039 62.7606C88.3527 62.6214 88.6354 62.3528 88.8248 62.0138C89.0143 61.6749 89.095 61.2934 89.0491 60.9532C89.0033 60.6131 88.8348 60.3422 88.5806 60.2001C88.3264 60.058 88.0073 60.0564 87.6936 60.1956C87.3799 60.3349 87.0972 60.6035 86.9078 60.9424C86.7184 61.2814 86.6377 61.6629 86.6835 62.003C86.7293 62.3432 86.8978 62.6141 87.1521 62.7562Z" fill="white"/>
<path d="M57.2187 60.1267H56.665C56.5839 60.1229 56.5071 60.0891 56.4494 60.032C56.3918 59.9749 56.3573 59.8985 56.3526 59.8175C56.3479 59.7364 56.3734 59.6565 56.4242 59.5932C56.4749 59.5299 56.5473 59.4876 56.6274 59.4744C57.5659 59.3649 58.5201 59.3618 59.4899 59.465C59.5481 59.4702 59.6027 59.4957 59.644 59.5371C59.6853 59.5785 59.7107 59.6331 59.7158 59.6913C59.7208 59.7496 59.7052 59.8078 59.6716 59.8556C59.638 59.9035 59.5886 59.938 59.5321 59.9531L58.481 60.244C58.423 60.2596 58.3704 60.2907 58.3291 60.3337C58.2877 60.3767 58.2591 60.4301 58.2464 60.488C58.0399 61.4015 57.8491 62.29 57.6739 63.1534C57.6113 63.4538 57.4518 63.5789 57.1952 63.5288C57.1164 63.513 57.047 63.4666 57.0021 63.3998C56.9573 63.333 56.9407 63.2512 56.9559 63.1722L57.4627 60.4223C57.5002 60.2252 57.4189 60.1267 57.2187 60.1267Z" fill="white"/>
<path d="M61.8272 61.8818L61.6254 62.412C61.6105 62.4516 61.6053 62.4942 61.61 62.5362C61.6148 62.5783 61.6294 62.6186 61.6528 62.6538C61.6762 62.6891 61.7076 62.7183 61.7444 62.7391C61.7812 62.7599 61.8225 62.7716 61.8647 62.7734L63.6057 62.825C63.6953 62.8269 63.7805 62.8643 63.8425 62.9289C63.9046 62.9936 63.9384 63.0803 63.9365 63.1699C63.9347 63.2595 63.8973 63.3447 63.8326 63.4068C63.7679 63.4688 63.6812 63.5026 63.5916 63.5007L61.0107 63.4867C60.9741 63.4866 60.9379 63.4785 60.9048 63.4629C60.8717 63.4473 60.8424 63.4245 60.8191 63.3963C60.7958 63.368 60.779 63.335 60.7699 63.2995C60.7609 63.264 60.7598 63.227 60.7667 63.191L61.4283 59.6809C61.4596 59.5089 61.5629 59.4229 61.738 59.4229H64.0609C64.1389 59.429 64.2119 59.4636 64.2661 59.5201C64.3203 59.5765 64.3518 59.651 64.3547 59.7292C64.3576 59.8074 64.3317 59.8839 64.2818 59.9442C64.232 60.0046 64.1617 60.0445 64.0843 60.0564L62.4091 60.1737C62.3447 60.1789 62.2837 60.2045 62.2348 60.2467C62.1859 60.2888 62.1516 60.3454 62.1369 60.4083L62.0665 60.7227C62.0571 60.7642 62.0574 60.8073 62.0673 60.8486C62.0773 60.89 62.0966 60.9285 62.1238 60.9612C62.1511 60.9939 62.1855 61.0198 62.2244 61.0371C62.2632 61.0543 62.3056 61.0624 62.3481 61.0606L63.5541 61.009C63.6325 61.0058 63.7089 61.034 63.7666 61.0872C63.8242 61.1405 63.8583 61.2145 63.8614 61.2929C63.8646 61.3713 63.8364 61.4477 63.7832 61.5053C63.7299 61.563 63.6559 61.5971 63.5775 61.6002L62.1041 61.68C61.9664 61.6863 61.8741 61.7535 61.8272 61.8818Z" fill="white"/>
<path d="M68.5188 62.9235C68.5704 62.9492 68.6122 62.9912 68.6376 63.0429C68.663 63.0947 68.6708 63.1533 68.6595 63.2099C68.6483 63.2665 68.6188 63.3178 68.5756 63.3559C68.5324 63.394 68.4778 63.4169 68.4203 63.421L66.2007 63.5477C66.1431 63.5508 66.0855 63.5408 66.0324 63.5184C65.9792 63.496 65.9318 63.4618 65.8939 63.4184C65.8559 63.375 65.8283 63.3235 65.8131 63.2679C65.798 63.2122 65.7957 63.1538 65.8065 63.0972L66.4494 59.7419C66.49 59.5292 66.6183 59.4229 66.8342 59.4229H66.9656C67.1752 59.4229 67.2612 59.5261 67.2237 59.7326L66.7262 62.4261C66.7153 62.4893 66.721 62.5542 66.7427 62.6145C66.7644 62.6748 66.8013 62.7283 66.8498 62.7696C66.8982 62.811 66.9566 62.8387 67.0189 62.8501C67.0812 62.8614 67.1453 62.856 67.2049 62.8344C67.6491 62.6811 68.0871 62.7108 68.5188 62.9235Z" fill="white"/>
<path d="M71.6211 62.6839L73.2213 62.7543C73.3221 62.758 73.4173 62.8017 73.486 62.8756C73.5546 62.9495 73.5911 63.0477 73.5873 63.1485C73.5836 63.2493 73.54 63.3445 73.4661 63.4131C73.3921 63.4818 73.294 63.5182 73.1932 63.5145L70.7389 63.4394C70.5356 63.4363 70.4527 63.333 70.4902 63.1297L71.1613 59.6619C71.1894 59.5117 71.2801 59.4335 71.4334 59.4272C72.1592 59.4022 72.8897 59.4116 73.6249 59.4554C73.7139 59.4573 73.7981 59.4944 73.8588 59.5586C73.9196 59.6229 73.952 59.709 73.9489 59.7979C73.9457 59.8869 73.9074 59.9715 73.8422 60.0331C73.7771 60.0947 73.6905 60.1283 73.6014 60.1264H72.081C71.8902 60.1264 71.776 60.2203 71.7385 60.408L71.7056 60.5816C71.6982 60.6184 71.6985 60.6564 71.7065 60.6931C71.7145 60.7298 71.73 60.7644 71.7521 60.7948C71.7741 60.8253 71.8022 60.8508 71.8346 60.8698C71.867 60.8888 71.9029 60.901 71.9402 60.9054L73.3386 61.0462C73.4113 61.0581 73.477 61.0964 73.5234 61.1536C73.5697 61.2109 73.5933 61.2831 73.5899 61.3567C73.5864 61.4302 73.556 61.5 73.5045 61.5526C73.453 61.6052 73.3839 61.6371 73.3105 61.6421L71.8464 61.6562C71.772 61.6562 71.6995 61.6803 71.6395 61.7251C71.5796 61.7699 71.5353 61.8329 71.5132 61.9049L71.3771 62.3366C71.3649 62.3758 71.3617 62.4172 71.3681 62.4578C71.3744 62.4983 71.3899 62.5369 71.4135 62.5704C71.4371 62.604 71.4681 62.6317 71.5041 62.6514C71.5401 62.671 71.5801 62.6822 71.6211 62.6839Z" fill="white"/>
<path d="M76.9845 62.9749C77.1722 62.978 77.374 62.917 77.5899 62.7919C77.6935 62.7318 77.7749 62.6398 77.8218 62.5296C77.8688 62.4194 77.8787 62.297 77.8501 62.1807C77.8216 62.0644 77.7561 61.9605 77.6635 61.8845C77.5709 61.8086 77.4561 61.7647 77.3365 61.7595C76.8109 61.7376 76.3291 61.5687 75.8912 61.2527C75.8042 61.1901 75.7407 61.1001 75.7109 60.9972C75.6811 60.8942 75.6868 60.7843 75.7269 60.6849C76.2556 59.4116 77.2082 59.0503 78.5847 59.6009C78.7068 59.6541 78.8242 59.7516 78.914 59.8744C79.0038 59.9971 79.0595 60.1362 79.07 60.2643C79.0806 60.3924 79.0454 60.5003 78.9712 60.5668C78.897 60.6334 78.7893 60.6537 78.6692 60.6239C78.2625 60.505 77.9778 60.3189 77.8151 60.0655C77.7607 59.9832 77.6773 59.9243 77.5811 59.9C77.4849 59.8758 77.3827 59.8879 77.2943 59.9341L76.5575 60.3189C76.5111 60.3429 76.4731 60.3804 76.4485 60.4264C76.4238 60.4724 76.4136 60.525 76.4192 60.5773C76.4247 60.6296 76.4457 60.6794 76.4796 60.7203C76.5134 60.7612 76.5585 60.7913 76.6091 60.8069L78.1436 61.2621C78.2856 61.3013 78.408 61.3935 78.4862 61.5202C79.4857 63.1579 76.7546 64.3639 75.4641 62.8951C75.3515 62.7668 75.3046 62.6417 75.3234 62.5197C75.3421 62.3789 75.4219 62.2835 75.5627 62.2334C75.6034 62.2204 75.6468 62.2175 75.6893 62.2248C75.7318 62.2322 75.772 62.2496 75.8067 62.2757L76.52 62.8153C76.6576 62.9217 76.8125 62.9749 76.9845 62.9749Z" fill="white"/>
<path d="M92.3526 62.2947C92.4652 62.8359 92.2932 63.2442 91.8364 63.5195C91.7972 63.5436 91.7519 63.5559 91.7059 63.5549C91.6599 63.554 91.6152 63.5397 91.5771 63.514C91.5389 63.4883 91.509 63.4521 91.491 63.4098C91.4729 63.3675 91.4674 63.3208 91.4751 63.2755L92.071 59.7466C92.1086 59.5308 92.2368 59.4229 92.4558 59.4229H94.0279C94.1825 59.4227 94.3349 59.4596 94.4724 59.5302C94.6099 59.6009 94.7286 59.7033 94.8186 59.8291C94.9085 59.9548 94.9672 60.1002 94.9896 60.2532C95.0121 60.4062 94.9977 60.5623 94.9476 60.7086C94.5878 61.766 93.8261 62.1884 92.6623 61.9756C92.6191 61.9677 92.5745 61.9706 92.5326 61.984C92.4908 61.9974 92.4528 62.0209 92.4222 62.0525C92.3916 62.084 92.3692 62.1226 92.3571 62.1649C92.3449 62.2071 92.3434 62.2517 92.3526 62.2947ZM94.2119 60.4089C94.1861 60.3349 94.1405 60.2688 94.0775 60.2142C94.0145 60.1595 93.9354 60.1175 93.8448 60.0904C93.7542 60.0634 93.6538 60.0519 93.5493 60.0565C93.4448 60.0612 93.3383 60.082 93.2359 60.1176C93.1335 60.1533 93.0371 60.2032 92.9523 60.2644C92.8675 60.3257 92.796 60.3971 92.7418 60.4746C92.6876 60.552 92.6517 60.6341 92.6363 60.716C92.6209 60.798 92.6262 60.8782 92.6519 60.9521C92.6777 61.026 92.7233 61.0922 92.7863 61.1468C92.8493 61.2014 92.9283 61.2435 93.019 61.2705C93.1096 61.2976 93.21 61.3091 93.3145 61.3044C93.419 61.2997 93.5255 61.279 93.6279 61.2433C93.7303 61.2076 93.8267 61.1578 93.9115 61.0965C93.9962 61.0353 94.0678 60.9639 94.122 60.8864C94.1762 60.8089 94.2121 60.7269 94.2275 60.6449C94.2429 60.563 94.2376 60.4828 94.2119 60.4089Z" fill="white"/>
</svg>
