<svg width="100" height="100" viewBox="0 0 100 100" fill="none" xmlns="http://www.w3.org/2000/svg">
<rect width="100" height="100" fill="#FFE0BC"/>
<path d="M32.9125 27.425L32.925 36.9125C28.175 37.2125 24.6791 39.0166 22.4375 42.325C14.175 54.5625 29.125 67.7 40.8125 59.2375C41.4458 58.7875 41.375 58.5625 40.6 58.5625H34.125C33.9297 58.5625 33.7364 58.5235 33.5565 58.4477C33.3766 58.3718 33.2136 58.2607 33.0773 58.1209C32.941 57.9811 32.8341 57.8154 32.7628 57.6336C32.6916 57.4519 32.6575 57.2576 32.6625 57.0625L32.8375 50.0625C32.844 49.8281 32.9417 49.6056 33.1097 49.4422C33.2778 49.2787 33.503 49.1874 33.7375 49.1875H47.175C47.6333 49.1875 47.8625 48.9583 47.8625 48.5V37.625C47.863 37.5275 47.8429 37.4311 47.8033 37.3418C47.7637 37.2525 47.7056 37.1723 47.6327 37.1064C47.5597 37.0405 47.4735 36.9904 47.3797 36.9591C47.2858 36.9279 47.1863 36.9162 47.0875 36.925C45.3875 37.0916 44.0791 37.9041 43.1625 39.3625C42.9572 39.6893 42.6425 39.9322 42.2755 40.0469C41.9085 40.1615 41.5136 40.1405 41.1625 39.9875L34.2875 37L44.55 36.8875C44.9166 36.8791 45.2416 36.7583 45.525 36.525L47.7875 34.6375C47.8795 34.56 47.9535 34.4634 48.0042 34.3543C48.055 34.2453 48.0813 34.1265 48.0813 34.0062C48.0813 33.8859 48.055 33.7671 48.0042 33.6581C47.9535 33.549 47.8795 33.4524 47.7875 33.375C44.9041 30.9583 41.2458 29.075 36.8125 27.725L73.275 27.3875L73.0875 36.95L69.3375 37.3875L57.925 37.1125C57.4833 37.1041 57.2625 37.3208 57.2625 37.7625L57.4125 64.9375L57.2125 71C57.2041 71.4583 56.9708 71.6875 56.5125 71.6875H48.675C48.5453 71.688 48.4169 71.6613 48.298 71.609C48.179 71.5567 48.0721 71.48 47.984 71.3836C47.8959 71.2873 47.8285 71.1735 47.7861 71.0493C47.7436 70.9252 47.7271 70.7935 47.7375 70.6624L48.0625 66.6125C48.0701 66.4958 48.0439 66.379 47.9871 66.2765C47.9304 66.1741 47.8456 66.0904 47.7432 66.0359C47.6408 65.9814 47.5253 65.9584 47.411 65.9698C47.2967 65.9812 47.1886 66.0264 47.1 66.1C31.7375 78.35 7.63747 66.6 10.825 46.45C12.5625 35.425 21.725 28.1125 32.9125 27.425Z" fill="#394069"/>
<path d="M32.9126 27.4253L36.8126 27.7253C41.2459 29.0753 44.9043 30.9586 47.7876 33.3753C47.8796 33.4527 47.9536 33.5494 48.0044 33.6584C48.0551 33.7674 48.0814 33.8863 48.0814 34.0065C48.0814 34.1268 48.0551 34.2456 48.0044 34.3547C47.9536 34.4637 47.8796 34.5604 47.7876 34.6378L45.5251 36.5253C45.2418 36.7586 44.9168 36.8795 44.5501 36.8878L34.2876 37.0003L32.9251 36.9128L32.9126 27.4253Z" fill="#F79320"/>
<path d="M73.2754 27.3875C79.1337 27.8541 84.1629 29.9541 88.3629 33.6875C88.5796 33.8791 88.5837 34.0791 88.3754 34.2875L82.7379 39.7499C82.5142 39.9651 82.2179 40.0883 81.9077 40.0953C81.5975 40.1022 81.2959 39.9923 81.0629 39.7874C78.9629 37.9291 76.3046 36.9833 73.0879 36.95L73.2754 27.3875Z" fill="#F79320"/>
<path d="M69.3377 37.3875C49.9502 45.9875 66.6877 70.9 81.3252 59.025C81.5494 58.8436 81.8326 58.7509 82.1207 58.7647C82.4089 58.7786 82.6819 58.8979 82.8877 59.1L88.3502 64.575C88.4057 64.6301 88.4489 64.6964 88.4768 64.7695C88.5047 64.8426 88.5167 64.9208 88.5119 64.9989C88.5072 65.0769 88.4859 65.1531 88.4493 65.2223C88.4128 65.2915 88.362 65.3521 88.3002 65.4C78.0919 73.5084 67.796 73.3542 57.4127 64.9375L57.2627 37.7625C57.2627 37.3209 57.4835 37.1042 57.9252 37.1125L69.3377 37.3875Z" fill="#F79320"/>
</svg>
