<svg width="100" height="100" viewBox="0 0 100 100" fill="none" xmlns="http://www.w3.org/2000/svg">
<rect width="100" height="100" fill="#595C62"/>
<path d="M19.8584 51.6836V48.7891H27.335V55.6328C26.6084 56.3359 25.5537 56.957 24.1709 57.4961C22.7959 58.0273 21.4014 58.293 19.9873 58.293C18.1905 58.293 16.6241 57.918 15.2881 57.168C13.9522 56.4102 12.9483 55.332 12.2764 53.9336C11.6045 52.5273 11.2686 51 11.2686 49.3516C11.2686 47.5625 11.6436 45.9727 12.3936 44.582C13.1436 43.1914 14.2412 42.125 15.6866 41.3828C16.7881 40.8125 18.1592 40.5273 19.7998 40.5273C21.9327 40.5273 23.5967 40.9766 24.792 41.875C25.9952 42.7656 26.7686 44 27.1123 45.5781L23.667 46.2227C23.4248 45.3789 22.9678 44.7148 22.2959 44.2305C21.6319 43.7383 20.7998 43.4922 19.7998 43.4922C18.2842 43.4922 17.0772 43.9727 16.1787 44.9336C15.2881 45.8945 14.8428 47.3203 14.8428 49.2109C14.8428 51.25 15.2959 52.7812 16.2022 53.8047C17.1084 54.8203 18.2959 55.3281 19.7647 55.3281C20.4912 55.3281 21.2178 55.1875 21.9444 54.9062C22.6787 54.6172 23.3077 54.2695 23.8311 53.8633V51.6836H19.8584ZM30.8591 58V40.8203H36.0505L39.1677 52.5391L42.2497 40.8203H47.4528V58H44.2302V44.4766L40.82 58H37.4802L34.0817 44.4766V58H30.8591ZM62.2503 51.6836L65.6136 52.75C65.098 54.625 64.2386 56.0195 63.0355 56.9336C61.8402 57.8398 60.3206 58.293 58.4769 58.293C56.1956 58.293 54.3206 57.5156 52.8519 55.9609C51.3831 54.3984 50.6488 52.2656 50.6488 49.5625C50.6488 46.7031 51.387 44.4844 52.8636 42.9062C54.3402 41.3203 56.2816 40.5273 58.6878 40.5273C60.7894 40.5273 62.4964 41.1484 63.8089 42.3906C64.5902 43.125 65.1761 44.1797 65.5667 45.5547L62.1331 46.375C61.93 45.4844 61.5042 44.7812 60.8558 44.2656C60.2152 43.75 59.4339 43.4922 58.512 43.4922C57.2386 43.4922 56.2034 43.9492 55.4066 44.8633C54.6175 45.7773 54.223 47.2578 54.223 49.3047C54.223 51.4766 54.6136 53.0234 55.3948 53.9453C56.1761 54.8672 57.1917 55.3281 58.4417 55.3281C59.3636 55.3281 60.1566 55.0352 60.8206 54.4492C61.4847 53.8633 61.9613 52.9414 62.2503 51.6836ZM71.3994 58L67.2978 40.8203H70.8486L73.4384 52.6211L76.5791 40.8203H80.7041L83.7158 52.8203L86.3525 40.8203H89.8447L85.6728 58H81.9931L78.5713 45.1562L75.1611 58H71.3994Z" fill="#F8F8F8"/>
</svg>
