<svg width="100" height="100" viewBox="0 0 100 100" fill="none" xmlns="http://www.w3.org/2000/svg">
<rect width="100" height="100" fill="white"/>
<path d="M55.0421 16.3324C17.8271 11.1724 0.877129 60.1924 33.3671 80.0524C35.4171 81.3024 35.6571 82.9524 34.0871 85.0024C33.7802 85.4049 33.3409 85.6859 32.8467 85.7957C32.3526 85.9055 31.8356 85.8371 31.3871 85.6024C10.2071 74.4274 3.48713 47.2324 17.0021 27.4024C36.6971 -1.47257 80.8271 7.24243 89.0021 41.3224C93.2171 58.8424 84.1871 77.0974 68.7371 85.6174C68.4521 85.7761 68.1347 85.8676 67.8088 85.8852C67.4829 85.9028 67.1568 85.8459 66.8552 85.7189C66.5535 85.5919 66.2841 85.398 66.0671 85.1519C65.8501 84.9057 65.6911 84.6135 65.6021 84.2974L64.9121 81.8224C64.8572 81.6201 64.8703 81.4063 64.9493 81.2157C65.0283 81.0251 65.1685 80.8689 65.3471 80.7724C93.6821 64.7224 88.2371 20.9374 55.0421 16.3324Z" fill="#005BA4"/>
<path d="M29.8719 32.5024C44.0319 15.8974 71.4069 22.9624 75.9219 44.2324C78.2319 55.1224 74.3319 65.0824 65.5569 71.8324C64.4069 72.7224 63.2319 73.1774 62.0319 73.1974C61.5157 73.2095 61.0088 73.0632 60.5788 72.7781C60.1489 72.493 59.8163 72.0826 59.6256 71.6017C59.4348 71.1208 59.395 70.5923 59.5114 70.0867C59.6278 69.5812 59.8949 69.1227 60.2769 68.7724C67.6119 62.0524 72.8469 55.6324 70.1019 45.1474C64.8969 25.2874 38.0319 23.8324 30.5319 42.8674C26.3769 53.3824 31.6719 61.9474 39.6669 68.6824C40.0824 69.0356 40.3834 69.5053 40.5309 70.0307C40.6785 70.5561 40.6659 71.1131 40.4947 71.6298C40.3235 72.1466 40.0017 72.5993 39.5707 72.9295C39.1397 73.2597 38.6194 73.4523 38.0769 73.4824C36.9769 73.5524 35.8119 73.1024 34.5819 72.1324C21.6219 62.0224 19.3119 44.8774 29.8719 32.5024Z" fill="#2095D3"/>
<path d="M63.3071 50.1126C63.3071 53.6572 61.8991 57.0566 59.3926 59.563C56.8862 62.0695 53.4868 63.4776 49.9421 63.4776C46.3975 63.4776 42.9981 62.0695 40.4917 59.563C37.9852 57.0566 36.5771 53.6572 36.5771 50.1126C36.5771 46.5679 37.9852 43.1685 40.4917 40.6621C42.9981 38.1557 46.3975 36.7476 49.9421 36.7476C53.4868 36.7476 56.8862 38.1557 59.3926 40.6621C61.8991 43.1685 63.3071 46.5679 63.3071 50.1126ZM57.2922 50.1126C57.2922 48.1752 56.5225 46.3171 55.1526 44.9471C53.7826 43.5772 51.9246 42.8076 49.9871 42.8076C48.0497 42.8076 46.1917 43.5772 44.8217 44.9471C43.4518 46.3171 42.6822 48.1752 42.6822 50.1126C42.6822 52.05 43.4518 53.908 44.8217 55.278C46.1917 56.6479 48.0497 57.4176 49.9871 57.4176C51.9246 57.4176 53.7826 56.6479 55.1526 55.278C56.5225 53.908 57.2922 52.05 57.2922 50.1126Z" fill="#FFD126"/>
<path d="M51.7421 90.4176H48.8321L41.1971 89.2776C39.8471 89.0776 39.4471 88.3526 39.9971 87.1026L48.6521 67.2876C48.7779 67.006 48.9829 66.7671 49.2421 66.5999C49.5014 66.4328 49.8036 66.3446 50.112 66.3462C50.4204 66.3478 50.7217 66.4391 50.9792 66.6089C51.2367 66.7787 51.4392 67.0197 51.5621 67.3026L60.2021 87.3276C60.2796 87.502 60.316 87.6918 60.3085 87.8827C60.301 88.0737 60.2498 88.2607 60.1588 88.4297C60.0678 88.5987 59.9394 88.7453 59.7832 88.8584C59.627 88.9715 59.4471 89.0482 59.2571 89.0826L51.7421 90.4176Z" fill="#E81C2D"/>
</svg>
