<svg width="100" height="100" viewBox="0 0 100 100" fill="none" xmlns="http://www.w3.org/2000/svg">
<rect width="100" height="100" fill="#968428"/>
<path d="M24.1768 56.1278C21.3434 57.136 17.0934 58.6435 14.3572 56.5752C12.4608 55.1391 12.9762 52.8568 13.9844 50.9895C14.1357 50.7129 14.0536 50.5756 13.7381 50.5778C10.5383 50.5972 7.08901 50.0234 5.94788 46.5384C5.40325 44.8689 6.14564 43.1248 7.3354 41.8378C11.2191 37.6298 19.1422 36.6346 24.4556 37.2246C24.6436 37.2441 24.7658 37.2992 24.8219 37.3899C24.8825 37.4872 24.8803 37.6104 24.8155 37.7595C24.7722 37.8611 24.6944 37.9076 24.5821 37.8989C19.5377 37.4645 14.8468 38.0772 10.4443 40.635C8.22042 41.9285 5.69502 44.9856 7.30946 47.4753C8.6678 49.5631 12.3505 50.0202 14.6393 49.7997C14.743 49.7889 14.8273 49.7435 14.8922 49.6636C18.7662 44.7814 25.7199 41.2056 31.2538 38.8163C33.361 37.9086 40.3277 35.5777 41.6537 38.2263C41.6939 38.3088 41.7096 38.401 41.699 38.4922C41.2873 41.6854 35.6595 44.6614 33.0725 45.7961C28.1665 47.9465 23.0649 49.4507 17.7677 50.3087C17.6501 50.3276 17.5419 50.3845 17.4597 50.4708C16.2883 51.7135 15.4314 53.1421 14.8889 54.7565C14.8565 54.8538 14.8543 54.951 14.8824 55.0483C15.1634 56.0533 15.7847 56.6022 16.7465 56.6952C22.1766 57.2203 27.3052 53.5473 31.8308 50.7658C31.8785 50.7357 31.9346 50.722 31.9908 50.7267C32.0469 50.7314 32.1 50.7542 32.142 50.7917C32.3236 50.9538 32.3863 51.1159 32.3301 51.278C32.2955 51.3796 32.1885 51.479 32.0091 51.5763C28.3945 53.5376 26.0863 57.1393 23.9045 59.2886C20.5233 62.6277 15.0867 63.7235 10.3989 63.0135C8.71642 62.7607 6.14888 61.5093 6.68702 59.4345C6.94853 58.4295 7.6531 57.9616 8.80071 58.0308C10.5254 58.1345 9.74733 60.7053 7.80546 59.7068C7.76728 59.6876 7.72443 59.6795 7.68186 59.6835C7.63929 59.6876 7.59872 59.7036 7.56484 59.7297C7.53096 59.7557 7.50514 59.7909 7.49035 59.831C7.47557 59.8711 7.47242 59.9146 7.48128 59.9565C7.68876 60.8858 8.24852 61.5039 9.16056 61.8108C12.9146 63.0751 17.3268 62.6569 20.3676 59.8787C21.9886 58.3982 23.2788 57.1814 24.2384 56.2283C24.3659 56.1008 24.3454 56.0673 24.1768 56.1278ZM40.7103 38.9882C41.1609 37.27 37.5754 37.8016 36.6709 38.0189C29.8371 39.6657 23.4604 44.1427 18.5652 49.1838C18.3145 49.441 18.3663 49.5371 18.7208 49.4723C24.2125 48.4306 29.4351 46.6541 34.3887 44.1427C36.5639 43.0405 40.1656 41.0792 40.7103 38.9882Z" fill="white"/>
<path d="M82.2968 56.8994C83.6065 56.0727 90.3139 51.6443 91.2216 54.2248C92.1455 56.8637 87.0882 59.2367 85.5937 60.5529C85.5172 60.6189 85.4653 60.7089 85.4465 60.8082C85.4277 60.9074 85.443 61.0102 85.49 61.0996C85.5369 61.1891 85.6128 61.26 85.7052 61.3008C85.7977 61.3416 85.9012 61.35 85.999 61.3245C89.0171 60.5691 92.1293 58.0275 94.6093 56.1635C94.6665 56.1208 94.7345 56.0951 94.8056 56.0894C94.8767 56.0837 94.948 56.0981 95.0113 56.131C95.1864 56.224 95.2458 56.3645 95.1896 56.5525C95.1572 56.6584 95.0761 56.7654 94.9465 56.8734C92.5734 58.838 89.5326 61.1138 86.5403 61.9469C85.4576 62.2484 84.3748 61.8043 84.4072 60.5789C84.4623 58.4392 88.2002 56.0694 89.7984 54.6787C89.8377 54.6437 89.8645 54.5968 89.8749 54.5452C89.8853 54.4936 89.8787 54.4401 89.8561 54.3925C89.8334 54.345 89.7959 54.3062 89.7493 54.2818C89.7027 54.2574 89.6494 54.2488 89.5974 54.2572C88.6313 54.4258 87.6772 54.7684 86.7349 55.2849C83.292 57.163 80.0221 59.307 76.925 61.7167C76.8278 61.7924 76.7186 61.8302 76.5976 61.8302H74.4061C74.3645 61.8299 74.3239 61.8171 74.2897 61.7935C74.2554 61.7699 74.2291 61.7365 74.214 61.6977C74.199 61.6589 74.196 61.6165 74.2054 61.5759C74.2148 61.5354 74.2361 61.4986 74.2667 61.4704L81.6322 54.6139C81.6683 54.5807 81.6913 54.5359 81.6972 54.4875C81.7031 54.4391 81.6914 54.3901 81.6644 54.3491C81.6373 54.308 81.5965 54.2777 81.5491 54.2632C81.5017 54.2488 81.4508 54.2513 81.4052 54.2702C78.2542 55.6512 75.3235 58.2253 72.6036 60.0018C70.8595 61.1397 66.2301 62.994 64.3304 61.5352C63.5524 60.9365 63.3146 60.0504 63.6172 58.8769C63.6257 58.8417 63.6233 58.8047 63.6103 58.7709C63.5973 58.7371 63.5743 58.7081 63.5444 58.6876C63.5145 58.6672 63.4791 58.6564 63.4428 58.6566C63.4066 58.6568 63.3713 58.6681 63.3416 58.6889C61.6429 59.8851 58.6572 62.1836 56.5921 61.9955C56.5398 61.9905 56.4898 61.9706 56.4479 61.9379C56.4061 61.9052 56.374 61.8611 56.3554 61.8108C56.1264 61.197 56.1361 60.5864 56.3846 59.9791C56.4002 59.9406 56.4025 59.898 56.3913 59.858C56.38 59.8179 56.3559 59.7828 56.3225 59.758C56.2892 59.7332 56.2486 59.7201 56.207 59.7208C56.1655 59.7215 56.1253 59.736 56.0929 59.7619C54.6729 60.9322 49.9074 63.8888 49.285 60.3227C49.1942 59.7932 49.2385 59.3081 49.4179 58.8672C49.4324 58.8343 49.4356 58.7975 49.4269 58.7626C49.4183 58.7277 49.3983 58.6967 49.37 58.6745C49.3418 58.6522 49.307 58.6399 49.2711 58.6396C49.2351 58.6393 49.2001 58.6509 49.1715 58.6726C47.7418 59.6971 43.5339 63.1594 41.725 61.6973C39.6469 60.0213 45.3461 55.3627 46.4419 54.455C46.6126 54.3124 46.5921 54.2745 46.3803 54.3415C46.242 54.3848 46.1101 54.4507 45.9848 54.5393C43.9229 55.9884 41.1771 58.7278 38.4864 58.2771C38.3805 58.2599 38.2886 58.289 38.2108 58.3647C36.3921 60.1315 32.2004 62.7963 29.7366 61.8529C27.396 60.9582 28.3783 58.4101 29.6653 57.1749C31.8416 55.0872 34.4481 53.8607 37.4846 53.4954C40.6973 53.1096 40.7427 55.4794 39.1963 57.4634C39.1847 57.4792 39.1778 57.4979 39.1763 57.5174C39.1748 57.5369 39.1789 57.5564 39.1881 57.5737C39.1972 57.5909 39.2111 57.6053 39.228 57.615C39.245 57.6248 39.2643 57.6295 39.2839 57.6288C40.09 57.5855 40.8227 57.3251 41.4818 56.8475C45.1516 54.1924 48.9543 51.6151 52.342 48.7137C54.8383 46.5762 57.3075 44.4107 59.7497 42.217C60.531 41.5135 61.5392 41.734 62.4988 41.7567C62.5444 41.7572 62.5888 41.7715 62.6262 41.7977C62.6636 41.8239 62.6922 41.8608 62.7083 41.9035C62.7244 41.9462 62.7273 41.9928 62.7165 42.0372C62.7057 42.0815 62.6818 42.1216 62.6479 42.1522C56.819 47.5293 51.0053 52.8859 45.2067 58.222C44.3941 58.9698 43.5566 59.79 42.6943 60.6826C42.4522 60.9311 42.4998 61.0954 42.8369 61.1754C44.6491 61.5968 51.6969 55.7161 52.65 55.2039C54.2482 54.3448 59.0138 52.4515 60.3494 54.066C60.4164 54.1459 60.4532 54.2378 60.4596 54.3415C60.4683 54.4582 60.5104 54.5501 60.5861 54.6171C60.6639 54.6863 60.7406 54.6852 60.8162 54.6139L74.3996 41.8345C74.458 41.7804 74.5355 41.7503 74.6168 41.7502L76.844 41.7534C77.2546 41.7534 77.3108 41.8939 77.0125 42.1749C70.6672 48.1399 64.3715 54.0822 58.1255 60.0018C57.8499 60.2612 57.5614 60.6761 57.3702 60.9711C57.3493 61.0043 57.3396 61.0432 57.3423 61.0823C57.3451 61.1214 57.3602 61.1585 57.3854 61.1885C57.4107 61.2184 57.4448 61.2396 57.4828 61.2489C57.5209 61.2582 57.5609 61.2551 57.5971 61.2402C60.1873 60.1315 62.609 58.2382 64.8945 56.6076C66.3814 55.5464 67.5809 54.8375 68.4929 54.4809C69.9032 53.9298 73.6507 52.5909 74.7432 54.2605C75.4727 55.3724 73.9393 56.3418 72.9375 56.747C71.0292 57.5185 69.0408 57.9086 66.9725 57.9173C66.8731 57.9173 66.7845 57.9497 66.7067 58.0146C65.9243 58.6672 65.3019 59.4475 64.8394 60.3552C64.8017 60.4287 64.7815 60.5098 64.7803 60.5924C64.779 60.675 64.7968 60.7567 64.8322 60.8313C64.8676 60.9059 64.9197 60.9714 64.9845 61.0226C65.0493 61.0738 65.125 61.1094 65.2057 61.1267C69.0668 61.9534 73.8258 58.342 76.6884 56.1472C77.7517 55.3303 81.1945 52.8665 82.5075 53.6089C83.7945 54.3383 82.8219 55.9106 82.193 56.7891C82.0439 56.9988 82.0785 57.0355 82.2968 56.8994ZM38.7522 54.3513C35.854 53.7191 31.6461 58.1637 29.9506 60.4297C29.9137 60.479 29.8881 60.5359 29.8758 60.5962C29.8634 60.6565 29.8646 60.7187 29.8792 60.7783C29.8938 60.8379 29.9214 60.8934 29.9601 60.9408C29.9988 60.9881 30.0476 61.0262 30.1029 61.0522C32.8942 62.3813 37.9482 57.5088 39.2287 55.4924C39.2935 55.3898 39.3327 55.2732 39.3428 55.1523C39.353 55.0314 39.3339 54.9099 39.2871 54.7979C39.2404 54.686 39.1674 54.587 39.0743 54.5092C38.9811 54.4315 38.8707 54.3773 38.7522 54.3513ZM59.4355 54.4295C59.3202 54.2764 59.0923 54.2106 58.7649 54.2358C58.4374 54.2609 58.0168 54.3765 57.5271 54.5759C57.0373 54.7753 56.488 55.0547 55.9105 55.3981C55.333 55.7415 54.7386 56.1421 54.1613 56.5771C53.584 57.0122 53.035 57.4731 52.5458 57.9336C52.0565 58.3941 51.6365 58.8451 51.3098 59.2609C50.9831 59.6767 50.7561 60.0492 50.6417 60.357C50.5273 60.6648 50.5277 60.902 50.643 61.055C50.7583 61.208 50.9862 61.2738 51.3137 61.2487C51.6411 61.2236 52.0617 61.108 52.5515 60.9086C53.0412 60.7092 53.5905 60.4298 54.168 60.0864C54.7455 59.743 55.3399 59.3424 55.9172 58.9073C56.4945 58.4723 57.0435 58.0114 57.5328 57.5509C58.022 57.0904 58.442 56.6394 58.7687 56.2236C59.0954 55.8078 59.3224 55.4353 59.4368 55.1275C59.5512 54.8196 59.5508 54.5824 59.4355 54.4295ZM73.7804 54.844C73.8118 54.7988 73.8315 54.7466 73.8379 54.6919C73.8442 54.6373 73.8369 54.5821 73.8166 54.5312C73.7963 54.4803 73.7637 54.4354 73.7217 54.4006C73.6797 54.3658 73.6297 54.3422 73.5762 54.3318C71.8126 53.9752 69.2321 55.7096 68.0358 56.8669C67.8889 57.0074 67.9181 57.0744 68.1234 57.0679C69.7702 57.0031 72.7203 56.3612 73.7804 54.844Z" fill="white"/>
</svg>
