<svg width="100" height="100" viewBox="0 0 100 100" fill="none" xmlns="http://www.w3.org/2000/svg">
<rect width="100" height="100" fill="white"/>
<path d="M46.3116 77.5357C45.0223 75.7978 44.3353 73.7769 44.2505 71.4729C44.1844 69.6762 44.6726 67.9575 44.4319 66.1473C44.1149 63.7761 43.1064 61.4319 41.7945 59.4132C41.7888 59.4044 41.781 59.397 41.7719 59.3917C41.7628 59.3864 41.7525 59.3833 41.742 59.3827C41.7315 59.382 41.7209 59.3838 41.7112 59.3879C41.7015 59.3921 41.6929 59.3984 41.6861 59.4065C38.2877 63.4659 36.1656 68.5864 39.3979 73.5441C39.8544 74.2458 40.325 74.9238 40.8098 75.5781C40.8146 75.5859 40.8165 75.5952 40.8152 75.6043C40.8138 75.6134 40.8093 75.6217 40.8024 75.6278C40.7955 75.6339 40.7867 75.6373 40.7775 75.6375C40.7683 75.6377 40.7593 75.6347 40.7521 75.6289C37.6232 72.7328 35.2271 69.3327 33.5638 65.4287C32.5672 63.0879 31.9756 60.898 32.4384 58.3997C33.0452 55.1199 35.3537 52.0843 37.808 49.9334C37.8139 49.9285 37.8214 49.9259 37.8291 49.9261C37.8368 49.9263 37.8441 49.9292 37.8498 49.9343C37.8556 49.9394 37.8593 49.9464 37.8603 49.954C37.8613 49.9616 37.8596 49.9693 37.8555 49.9757C34.6215 54.3945 32.1723 59.376 34.6503 64.81C34.6561 64.8254 34.6673 64.838 34.6819 64.8455C34.6965 64.853 34.7134 64.8549 34.7292 64.8506C34.7451 64.8464 34.7588 64.8364 34.7677 64.8227C34.7766 64.8089 34.7801 64.7923 34.7774 64.7761C34.5627 62.7173 35.0384 60.8314 36.2046 59.1183C36.9537 58.0149 38.2572 56.8827 38.9419 55.8166C40.7979 52.9283 40.9657 49.2554 40.5352 45.9536C40.5295 45.9107 40.5058 45.8954 40.464 45.9078C36.5673 47.074 32.9926 49.5757 31.6756 53.5521C30.9638 55.703 31.0926 57.859 31.2909 60.0217C31.2921 60.0341 31.2889 60.0465 31.2818 60.0567C31.2748 60.0669 31.2643 60.0743 31.2523 60.0776C31.2404 60.0808 31.2276 60.0797 31.2164 60.0745C31.2051 60.0692 31.1961 60.0601 31.1909 60.0489C28.7671 54.7013 25.4145 48.3333 19.8703 45.6858C18.6973 45.1253 17.2854 44.7253 15.6346 44.4858C15.56 44.4756 15.5442 44.4394 15.5871 44.3773C18.9584 39.4687 23.8026 35.7161 29.1247 33.1279C29.1384 33.1208 29.1498 33.1098 29.1574 33.0963C29.165 33.0828 29.1684 33.0675 29.1674 33.0522C29.1663 33.0369 29.1607 33.0224 29.1513 33.0106C29.1419 32.9987 29.1291 32.9899 29.1146 32.9855C23.5229 31.3244 18.9194 26.8718 18.7143 20.7631C18.712 20.7033 18.7375 20.688 18.7906 20.7174C24.1992 23.7768 30.8146 24.809 36.93 24.1242C39.3013 23.8581 42.5013 23.1429 44.6268 22.7886C49.0574 22.0485 53.5174 21.6016 58.0068 21.4479C60.1323 21.3745 62.8482 21.4417 66.1545 21.6496C70.7207 21.9344 82.2769 23.8412 82.0718 30.399C82.0707 30.4566 82.0989 30.4871 82.1566 30.4905C86.9753 30.7363 94.8213 31.9821 96.6112 37.4703C97.3383 39.6958 96.9807 42.3366 96.0756 44.4875C96.053 44.5417 96.0179 44.5507 95.9705 44.5146C90.0381 40.006 81.3277 42.4925 75.4005 45.3943C61.8357 52.0351 50.3676 67.3677 55.8068 83.1952C55.8294 83.2596 55.8062 83.2924 55.7373 83.2935C47.9405 83.402 40.9996 81.1019 35.6385 75.334C35.5989 75.2922 35.5543 75.2848 35.5046 75.312C31.5129 77.4798 27.7179 76.8103 23.9415 74.495C21.3923 72.9322 18.6957 72.1339 15.821 71.4034C15.7464 71.3842 15.7419 71.3548 15.8074 71.3152C20.611 68.4101 26.9162 66.2066 31.9079 70.0322C31.9114 70.0346 31.9156 70.0358 31.9199 70.0356C31.9242 70.0355 31.9283 70.034 31.9317 70.0313C31.9351 70.0287 31.9375 70.0251 31.9387 70.021C31.9399 70.0169 31.9398 70.0125 31.9384 70.0084L29.7468 65.2931C29.7231 65.2433 29.6858 65.2275 29.6349 65.2456C25.6992 66.6434 22.0133 66.24 18.577 64.0354C15.9786 62.3676 13.2786 61.1031 10.3124 60.2675C10.2985 60.2637 10.2861 60.2559 10.2768 60.2449C10.2674 60.2339 10.2617 60.2204 10.2602 60.2061C10.2587 60.1917 10.2616 60.1773 10.2685 60.1647C10.2754 60.1521 10.286 60.1418 10.2988 60.1353C16.2871 57.0064 23.6551 55.3759 28.2789 61.8099C28.2832 61.8161 28.2898 61.8206 28.2972 61.8225C28.3047 61.8244 28.3126 61.8236 28.3192 61.8201C28.3259 61.8167 28.3309 61.8109 28.3331 61.804C28.3354 61.7971 28.3348 61.7895 28.3315 61.7828C27.397 59.3161 26.2806 56.9352 24.9823 54.6403C24.9687 54.6159 24.9471 54.597 24.9211 54.5868C24.8951 54.5766 24.8664 54.5757 24.8399 54.5843C20.4488 56.0499 16.2075 55.7335 12.1158 53.6351C11.4955 53.3165 10.8746 52.9984 10.2531 52.6809C7.9564 51.5029 5.63431 50.769 3.06136 50.4588C2.98565 50.4486 2.98 50.4226 3.04441 50.3808C6.75976 47.9265 11.5887 45.7587 16.1498 46.3265C21.4754 46.9909 24.7806 51.0469 27.301 55.4504C28.7326 57.9556 30.0067 60.5415 31.1231 63.2083C32.0197 65.3473 32.9808 67.6846 34.1079 69.5254C36.7724 73.8797 40.7674 77.2544 45.6285 78.9425C45.6929 78.9651 45.7206 78.9425 45.7116 78.8747C45.7059 78.8296 45.6641 78.7821 45.5862 78.7324C40.4504 75.4747 39.7114 69.4457 41.6284 64.1185C41.632 64.1106 41.6382 64.1042 41.646 64.1004C41.6538 64.0966 41.6626 64.0956 41.671 64.0976C41.6794 64.0997 41.6869 64.1045 41.6921 64.1114C41.6973 64.1183 41.7 64.1268 41.6996 64.1354C40.9505 69.183 41.881 74.4085 46.1591 77.6849C46.5658 77.9968 46.6167 77.947 46.3116 77.5357ZM72.8191 35.8669C74.6683 35.7296 76.8988 34.933 77.5853 33.038C77.592 33.0196 77.5946 32.9998 77.5928 32.9803C77.5909 32.9607 77.5847 32.9418 77.5747 32.9249C77.5646 32.908 77.5509 32.8936 77.5346 32.8826C77.5182 32.8717 77.4996 32.8646 77.4802 32.8618C74.7666 32.4482 71.5682 32.577 69.0528 33.7736C69.0411 33.7792 69.0306 33.7871 69.022 33.7969C69.0134 33.8067 69.0069 33.8181 69.0029 33.8305C68.9989 33.8429 68.9976 33.856 68.9989 33.869C69.0002 33.8819 69.0041 33.8945 69.0105 33.9058C69.8048 35.342 71.0744 35.9957 72.8191 35.8669ZM89.1093 40.2501C91.2653 40.3738 93.1535 40.8569 94.8027 42.1433C94.8343 42.1682 94.8541 42.1609 94.862 42.1213C96.2874 34.6059 87.4753 33.0312 82.3193 33.0024C82.2605 33.0013 82.2023 32.9951 82.1447 32.9838L81.8922 32.9363C81.821 32.9228 81.7786 32.951 81.765 33.0211C81.2599 35.7618 79.3735 36.8737 77.1412 38.4449C75.4208 39.6568 74.3326 41.2772 75.5225 43.3264C75.5609 43.3908 75.6123 43.4044 75.6768 43.3671C79.817 41.0134 84.2945 39.9744 89.1093 40.2501ZM22.6161 52.3605C22.9291 52.4916 23.2359 52.6199 23.5365 52.7453C23.5427 52.7471 23.5494 52.7467 23.5554 52.7442C23.5614 52.7417 23.5664 52.7372 23.5695 52.7315C23.5727 52.7258 23.5738 52.7192 23.5727 52.7128C23.5716 52.7064 23.5684 52.7005 23.5636 52.6961C18.3759 49.0283 12.6633 47.9898 6.42585 49.5808C6.41606 49.5837 6.40763 49.59 6.4021 49.5985C6.39657 49.6071 6.39433 49.6174 6.39577 49.6275C6.39721 49.6376 6.40225 49.6468 6.40995 49.6535C6.41766 49.6602 6.42752 49.6639 6.43772 49.6639C7.26994 49.63 8.16827 49.5164 8.94456 49.5249C13.6825 49.5825 18.2397 50.5277 22.6161 52.3605ZM14.7532 59.898C19.7228 59.4522 24.8568 61.4421 28.9213 64.0134C28.9291 64.0177 28.9381 64.0191 28.9467 64.0174C28.9554 64.0156 28.9632 64.0109 28.9687 64.004C28.9742 63.9971 28.977 63.9884 28.9767 63.9796C28.9765 63.9707 28.973 63.9623 28.9671 63.9557C25.028 60.1828 20.1669 58.5048 14.7532 59.8014C14.7193 59.8093 14.7046 59.8302 14.7091 59.8641C14.7125 59.889 14.7272 59.9003 14.7532 59.898ZM20.9482 70.861C25.328 70.3576 30.2434 71.7169 34.0554 73.8085C34.1469 73.8582 34.1588 73.8441 34.091 73.7662C33.9983 73.6577 33.8644 73.5328 33.6892 73.3916C29.7988 70.2356 25.541 69.3389 20.916 70.7017C20.3115 70.8802 20.3222 70.9333 20.9482 70.861Z" fill="#01458C"/>
<path d="M89.1089 40.2501C84.294 39.9744 79.8165 41.0134 75.6763 43.3672C75.6119 43.4045 75.5605 43.3909 75.5221 43.3265C74.3322 41.2773 75.4204 39.6569 77.1408 38.445C79.373 36.8738 81.2595 35.7619 81.7646 33.0212C81.7782 32.9511 81.8205 32.9228 81.8917 32.9364L82.1443 32.9839C82.2019 32.9952 82.2601 33.0014 82.3189 33.0025C87.4749 33.0313 96.287 34.6059 94.8615 42.1214C94.8536 42.1609 94.8339 42.1683 94.8022 42.1434C93.153 40.8569 91.2648 40.3739 89.1089 40.2501Z" fill="#CAA81A"/>
</svg>
