<svg width="100" height="100" viewBox="0 0 100 100" fill="none" xmlns="http://www.w3.org/2000/svg">
<rect width="100" height="100" fill="#1FAB38"/>
<path d="M51.8061 33H55.7485L55.7646 37.3011C55.7661 37.5035 55.8673 37.604 56.0682 37.6024L64.1713 37.5932C64.2541 37.5932 64.2955 37.6346 64.2955 37.7175L64.2771 41.3861C64.2756 41.4919 64.2227 41.5448 64.1184 41.5448L55.9532 41.5632C55.852 41.5632 55.7998 41.6138 55.7968 41.715C55.7339 43.7927 55.7439 45.872 55.8267 47.9528C55.9946 52.2056 60.6338 53.8019 64.1667 52.9991C67.0587 52.3413 68.6128 50.5204 68.829 47.5365C68.9072 46.4662 68.9463 45.9272 68.9463 45.9195C69.7168 40.7075 74.2847 36.8388 79.476 36.8986C85.5045 36.9699 90.2518 41.8921 89.9896 47.9436C89.5963 57.022 78.5629 61.4404 71.9962 55.0163C71.6926 54.7196 71.2969 54.2228 70.9358 53.8295C70.8684 53.7559 70.8032 53.7574 70.7403 53.8341C68.0239 57.1784 63.7458 58.7585 59.585 57.7442C55.8497 56.8357 52.7124 53.565 51.9993 49.802C51.9273 49.4172 51.8468 49.4156 51.7578 49.7974C49.2277 60.6262 34.4084 60.7734 31.1607 50.1701C31.1591 50.1613 31.1542 50.1532 31.1468 50.1477C31.1395 50.1421 31.1304 50.1395 31.1216 50.1404C31.1127 50.1413 31.1048 50.1457 31.0997 50.1525C31.0945 50.1594 31.0924 50.1682 31.094 50.177C31.0618 51.9955 31.0495 53.821 31.0572 55.6534C31.0802 61.3875 26.7629 66.0337 21.0266 66.3511H19.4234C16.4701 66.1548 13.8526 65.1343 11.5709 63.2897C10.7015 62.5858 11.0327 59.3703 11.0557 58.1996C11.0567 58.1635 11.0682 58.1285 11.0889 58.0989C11.1097 58.0693 11.1386 58.0465 11.1722 58.0333C11.2058 58.02 11.2425 58.017 11.2779 58.0245C11.3132 58.0319 11.3455 58.0497 11.3708 58.0754C13.674 60.4215 16.4402 61.6704 19.6695 61.8222C23.2323 61.9901 26.8664 59.9753 27.0527 56.0559C27.0558 55.9609 27.0182 55.9402 26.94 55.9938C19.8397 60.8171 10.9085 56.6724 10 48.1621V46.897C10.9039 38.35 19.7523 34.0511 26.9239 38.948C26.9387 38.9579 26.9559 38.9637 26.9737 38.9647C26.9914 38.9657 27.0092 38.9618 27.0249 38.9536C27.0407 38.9454 27.054 38.933 27.0633 38.9178C27.0727 38.9027 27.0778 38.8853 27.078 38.8675V37.729C27.078 37.7064 27.0825 37.6841 27.0912 37.6633C27.0999 37.6425 27.1127 37.6236 27.1287 37.6078C27.1448 37.5919 27.1638 37.5795 27.1847 37.571C27.2056 37.5626 27.228 37.5584 27.2505 37.5587L30.9261 37.6001C30.9997 37.6001 31.0365 37.6369 31.0365 37.7106L31.0641 44.3877C31.0671 45.047 31.1568 45.0585 31.3332 44.4222C32.9018 38.7272 39.1373 35.5416 44.8231 37.4759C48.195 38.6229 50.4851 41.0227 51.6934 44.6752C51.6973 44.6887 51.706 44.7003 51.7179 44.7078C51.7298 44.7154 51.7441 44.7183 51.7579 44.716C51.7718 44.7137 51.7844 44.7065 51.7933 44.6955C51.8022 44.6846 51.8067 44.6708 51.8061 44.6568V33ZM26.7767 45.1053C26.0246 43.3204 24.3709 42.1106 22.4572 41.8484C20.8149 41.623 18.9059 41.5816 17.42 42.1704C13.5858 43.6907 12.8107 48.8498 15.7295 51.5869C17.3855 53.1417 19.6212 53.4339 21.8454 53.1762C24.3341 52.8895 26.0146 51.6559 26.8871 49.4754C27.2873 48.4749 27.17 46.0368 26.7767 45.1053ZM45.9708 42.9708C44.2757 41.6276 42.0745 41.577 39.9746 41.7932C33.1387 42.4993 33.1686 52.1274 39.5605 53.1118C41.557 53.4178 44.0549 53.3235 45.8167 52.0239C48.7217 49.8733 48.8551 45.2594 45.9708 42.9708ZM77.0701 41.9013C71.619 43.1617 71.3591 50.8923 76.4468 52.7898C77.143 53.0505 77.981 53.2 78.9608 53.2383C81.8796 53.3534 84.481 52.477 85.677 49.5835C87.1191 46.092 84.8191 42.3406 81.1229 41.8001C79.9567 41.6299 78.1397 41.6529 77.0701 41.9013Z" fill="white"/>
</svg>
