<svg width="100" height="100" viewBox="0 0 100 100" fill="none" xmlns="http://www.w3.org/2000/svg">
<rect width="100" height="100" fill="#D61A1A"/>
<path d="M17.3644 38.6426C18.6544 38.6276 19.4044 37.5876 20.2744 37.1576C27.8694 33.4176 35.0294 28.9676 42.6894 24.9376C42.7857 24.8877 42.8658 24.8116 42.9206 24.7181C42.9755 24.6246 43.0029 24.5174 42.9998 24.4086C42.9967 24.2998 42.9631 24.1938 42.903 24.1026C42.8428 24.0114 42.7584 23.9387 42.6594 23.8926C41.9394 23.5676 41.6494 22.4176 41.7594 21.6476C42.0027 19.9243 43.0094 18.8426 44.7794 18.4026C44.8577 18.3829 44.9294 18.3418 44.9866 18.2837C45.0438 18.2255 45.0846 18.1526 45.1044 18.0726C45.3944 16.8176 45.2144 15.4576 45.7094 14.4126C47.2144 11.2477 51.9144 11.2477 53.6394 14.1126C54.3144 15.2376 54.0094 16.7126 54.2444 18.0626C54.2744 18.2326 54.3761 18.3343 54.5494 18.3676C56.7094 18.7526 59.3394 22.1976 57.0594 23.7326C56.3761 24.1926 56.3944 24.621 57.1144 25.0176L81.8044 38.6826C81.8835 38.7276 81.9738 38.7492 82.0648 38.7448C82.1557 38.7404 82.2435 38.7102 82.3179 38.6578C82.3924 38.6054 82.4504 38.5329 82.4851 38.4487C82.5199 38.3646 82.5301 38.2723 82.5144 38.1826C82.231 36.5026 82.2977 34.8493 82.7144 33.2226C82.7595 33.0385 82.8693 32.8756 83.0244 32.7626C84.0277 32.026 85.0877 31.956 86.2044 32.5526C86.371 32.6393 86.4944 32.7676 86.5744 32.9376C86.9911 33.841 87.1561 34.7876 87.0694 35.7776C87.0294 36.251 87.246 36.4693 87.7194 36.4326C92.5494 36.0426 92.8844 40.9726 88.2944 40.9276C85.4644 40.9043 82.6327 40.911 79.7994 40.9476C79.7327 40.9478 79.6675 40.9679 79.6123 41.0053C79.5571 41.0427 79.5143 41.0957 79.4894 41.1576L76.7944 47.8076C76.7277 47.971 76.6061 48.0526 76.4294 48.0526H67.7094C67.6334 48.0526 67.5591 48.0285 67.4965 47.9838C67.4338 47.9391 67.386 47.8758 67.3594 47.8026L65.0544 41.1626C64.9711 40.9226 64.8044 40.8026 64.5544 40.8026H34.8094C34.6561 40.8026 34.5527 40.876 34.4994 41.0226L32.1544 47.8076C32.1295 47.8792 32.0828 47.9413 32.021 47.9852C31.9592 48.0291 31.8852 48.0527 31.8094 48.0526H23.0744C22.9044 48.0526 22.7877 47.9726 22.7244 47.8126L20.0594 41.1826C19.9994 41.0326 19.8877 40.956 19.7244 40.9526C16.7177 40.8993 13.7094 40.896 10.6994 40.9426C6.81941 41.0026 6.98941 35.8376 12.0744 36.4576C12.1103 36.4619 12.1467 36.4585 12.1812 36.4476C12.2157 36.4367 12.2475 36.4186 12.2744 36.3944C12.3014 36.3703 12.3229 36.3407 12.3376 36.3077C12.3522 36.2746 12.3597 36.2388 12.3594 36.2026C12.3544 35.0426 12.3744 32.7876 13.7644 32.3876C17.8194 31.2226 17.1494 36.1876 17.0494 38.3226C17.0473 38.3643 17.054 38.406 17.069 38.4451C17.0839 38.4842 17.1069 38.5198 17.1364 38.5498C17.1659 38.5798 17.2014 38.6035 17.2406 38.6195C17.2798 38.6355 17.322 38.6433 17.3644 38.6426ZM53.6044 19.8676C53.4629 19.8507 53.3263 19.8052 53.2029 19.7339C53.0794 19.6627 52.9717 19.5672 52.8862 19.4532C52.8007 19.3392 52.7392 19.209 52.7053 19.0706C52.6715 18.9321 52.6661 18.7882 52.6894 18.6476C52.9344 17.1176 52.7544 14.6376 51.1894 13.7826C49.8794 13.0576 48.1644 13.4026 47.3544 14.7126C46.6444 15.8626 46.8244 17.5076 46.8244 18.7426C46.8245 18.903 46.7923 19.0617 46.7295 19.2092C46.6668 19.3567 46.5749 19.4898 46.4595 19.6006C46.344 19.7114 46.2074 19.7975 46.0578 19.8537C45.9083 19.9099 45.7489 19.9351 45.5894 19.9276C42.4044 19.7826 43.6244 24.4326 45.7994 23.1576C47.4361 22.201 48.6627 21.5043 49.4794 21.0676C49.5531 21.0293 49.6352 21.0102 49.7182 21.0119C49.8012 21.0137 49.8824 21.0363 49.9544 21.0776C51.1144 21.751 52.2911 22.396 53.4844 23.0126C55.8194 24.2176 57.4294 20.3126 53.6044 19.8676ZM40.4094 39.5876C53.3427 39.5976 66.3061 39.6376 79.2994 39.7076C79.4034 39.7077 79.5045 39.6732 79.5868 39.6097C79.6691 39.5462 79.728 39.4571 79.7543 39.3565C79.7806 39.2559 79.7728 39.1494 79.7321 39.0537C79.6914 38.958 79.6201 38.8785 79.5294 38.8276L50.2094 22.4376C50.0641 22.3567 49.9002 22.3142 49.7331 22.3142C49.5661 22.3142 49.4013 22.3567 49.2544 22.4376L19.9394 38.8526C19.6427 39.0193 19.6294 39.2076 19.8994 39.4176C20.1461 39.6076 20.4961 39.7043 20.9494 39.7076C27.4344 39.7626 34.7744 39.5826 40.4094 39.5876ZM14.8294 33.7726C14.0194 33.666 13.6077 34.021 13.5944 34.8376L13.5644 36.7626C13.5629 36.8497 13.5391 36.9349 13.4954 37.0102C13.4516 37.0854 13.3893 37.1483 13.3144 37.1926C12.2494 37.8176 10.0044 37.0426 10.0244 38.7626C10.0263 38.9007 10.0557 39.0371 10.1109 39.1638C10.1661 39.2905 10.246 39.405 10.346 39.5008C10.446 39.5966 10.564 39.6717 10.6933 39.7218C10.8227 39.7719 10.9607 39.796 11.0994 39.7926L15.3144 39.6826C15.3834 39.6801 15.4488 39.6512 15.4972 39.6019C15.5455 39.5526 15.5732 39.4867 15.5744 39.4176C15.5911 37.811 15.5644 36.2026 15.4944 34.5926C15.4744 34.0993 15.2527 33.826 14.8294 33.7726ZM86.4094 37.2876C85.4294 36.5226 86.3244 34.9076 85.7344 34.1526C85.2811 33.5626 84.7561 33.5093 84.1594 33.9926C84.1064 34.0347 84.0636 34.088 84.0341 34.1486C84.0047 34.2092 83.9894 34.2756 83.9894 34.3426L83.9344 39.3576C83.9311 39.5643 84.0327 39.6743 84.2394 39.6876C84.8944 39.7376 88.7844 40.2926 89.5044 39.1226C89.551 39.0464 89.5793 38.9602 89.5871 38.8709C89.5949 38.7816 89.582 38.6915 89.5494 38.6076C88.7994 36.6826 87.5144 38.1476 86.4094 37.2876ZM32.2194 42.0376C32.2327 41.9976 32.2364 41.9549 32.2303 41.9131C32.2241 41.8714 32.2082 41.8316 32.1839 41.7971C32.1596 41.7626 32.1275 41.7342 32.0903 41.7144C32.053 41.6945 32.0116 41.6836 31.9694 41.6826L23.0444 41.5876C23.0013 41.587 22.9588 41.5967 22.9202 41.616C22.8817 41.6352 22.8483 41.6633 22.8228 41.6981C22.7974 41.7328 22.7806 41.7731 22.7739 41.8157C22.7673 41.8582 22.7708 41.9018 22.7844 41.9426L24.3194 46.6176C24.3372 46.6713 24.3714 46.718 24.4171 46.7512C24.4629 46.7844 24.5179 46.8024 24.5744 46.8026H30.4894C30.5459 46.8024 30.6009 46.7844 30.6467 46.7512C30.6924 46.718 30.7266 46.6713 30.7444 46.6176L32.2194 42.0376ZM67.4944 41.7176C67.4567 41.7181 67.4196 41.7274 67.3862 41.7449C67.3528 41.7624 67.324 41.7874 67.3021 41.8181C67.2801 41.8488 67.2658 41.8842 67.2601 41.9215C67.2544 41.9587 67.2576 41.9968 67.2694 42.0326L68.8344 46.6376C68.85 46.6852 68.8801 46.7266 68.9204 46.7562C68.9608 46.7858 69.0094 46.802 69.0594 46.8026H74.9444C74.9953 46.8031 75.045 46.7873 75.0863 46.7576C75.1276 46.728 75.1585 46.686 75.1744 46.6376L76.7444 41.8576C76.7564 41.821 76.7595 41.782 76.7533 41.744C76.7471 41.7059 76.7319 41.6699 76.7088 41.639C76.6858 41.6081 76.6556 41.5832 76.6209 41.5664C76.5862 41.5497 76.5479 41.5415 76.5094 41.5426L67.4944 41.7176Z" fill="white"/>
<path d="M50.7245 25.2825C55.1795 27.4875 59.4545 30.0275 63.8245 32.3975C65.3195 33.2075 67.3795 34.7875 69.4295 35.4525C69.6021 35.5069 69.7494 35.6216 69.8446 35.7755C69.9398 35.9295 69.9764 36.1126 69.948 36.2913C69.9195 36.4701 69.8277 36.6326 69.6894 36.7494C69.5511 36.8662 69.3755 36.9294 69.1945 36.9275H30.4345C30.2533 36.9303 30.0771 36.8687 29.9371 36.7537C29.7971 36.6386 29.7025 36.4777 29.6701 36.2994C29.6376 36.1212 29.6696 35.9372 29.7601 35.7803C29.8506 35.6233 29.9939 35.5036 30.1645 35.4425C32.2945 34.6475 34.4095 33.0625 36.0945 32.1725C38.3845 30.9675 39.9845 30.0875 42.7945 28.3975C44.9895 27.0775 47.0445 26.3025 49.4645 24.6825C49.8345 24.4325 50.1378 24.5208 50.3745 24.9475C50.4578 25.0975 50.5745 25.2092 50.7245 25.2825ZM66.7495 35.5175L49.9595 26.0725C49.8938 26.0357 49.8197 26.0164 49.7445 26.0164C49.6692 26.0164 49.5951 26.0357 49.5295 26.0725L32.8595 35.4625C32.8372 35.4761 32.8196 35.4967 32.8095 35.521C32.7994 35.5453 32.7973 35.5721 32.8036 35.5971C32.8099 35.6222 32.8241 35.6441 32.8442 35.6595C32.8642 35.675 32.8889 35.683 32.9145 35.6825L66.7044 35.6875C66.725 35.6884 66.7452 35.6822 66.7617 35.6701C66.7783 35.6579 66.7901 35.6405 66.7954 35.6206C66.8006 35.6008 66.799 35.5797 66.7906 35.5609C66.7822 35.5422 66.7677 35.5269 66.7495 35.5175Z" fill="white"/>
<path d="M54.9793 46.6075C59.5893 46.8025 62.3943 49.0275 63.9543 53.2675C65.2493 56.7975 65.5793 60.2125 63.4843 63.4275C60.9693 67.2825 56.3243 68.1225 52.1143 66.7175C52.0811 66.7063 52.0458 66.7033 52.0111 66.7086C51.9765 66.7138 51.9437 66.7273 51.9153 66.7479C51.8869 66.7684 51.8639 66.7954 51.8481 66.8266C51.8322 66.8579 51.8241 66.8925 51.8243 66.9275V74.3975C51.8243 74.5408 51.8743 74.6625 51.9743 74.7625C52.8143 75.5725 53.2543 76.6425 54.0593 77.3925C55.446 78.6858 56.6327 80.1441 57.6193 81.7675C57.7193 81.9308 57.6743 82.0125 57.4843 82.0125L40.6693 81.9875C40.6223 81.9868 40.5762 81.9738 40.5357 81.9499C40.4952 81.9259 40.4616 81.8918 40.4384 81.8508C40.4151 81.8099 40.403 81.7636 40.4031 81.7165C40.4033 81.6694 40.4158 81.6232 40.4393 81.5825C41.5993 79.6225 44.5743 75.4125 44.5743 73.2075C44.5743 65.1808 44.5743 57.1591 44.5743 49.1425C44.5743 48.9658 44.5193 48.8092 44.4093 48.6725C42.636 46.4525 40.6893 44.4075 38.5693 42.5375C38.517 42.4904 38.4801 42.4285 38.4635 42.3601C38.4469 42.2917 38.4513 42.2199 38.4761 42.154C38.501 42.0881 38.5451 42.0312 38.6028 41.9908C38.6604 41.9504 38.7289 41.9284 38.7993 41.9275H56.7943C56.8411 41.9278 56.887 41.9402 56.9275 41.9636C56.968 41.9869 57.0018 42.0204 57.0255 42.0607C57.0492 42.101 57.062 42.1468 57.0627 42.1936C57.0633 42.2404 57.0518 42.2865 57.0293 42.3275L54.7993 46.2825C54.6793 46.4892 54.7393 46.5975 54.9793 46.6075ZM50.6643 49.1375L52.7843 44.2675C52.8 44.2303 52.8062 44.1898 52.8024 44.1497C52.7987 44.1095 52.7851 44.0709 52.7628 44.0373C52.7406 44.0036 52.7103 43.976 52.6748 43.9569C52.6393 43.9377 52.5997 43.9276 52.5593 43.9275H43.7043C43.6541 43.9266 43.6048 43.9405 43.5625 43.9675C43.5202 43.9946 43.4868 44.0335 43.4665 44.0794C43.4462 44.1253 43.4399 44.1762 43.4485 44.2257C43.457 44.2751 43.4799 44.321 43.5143 44.3575L46.6493 47.7025C46.765 47.8246 46.8295 47.9875 46.8293 48.1575C46.8227 56.8175 46.821 65.4791 46.8243 74.1425C46.8243 76.2525 45.6443 77.8175 44.2593 79.2225C44.2212 79.2595 44.1951 79.3072 44.1844 79.3593C44.1737 79.4114 44.179 79.4655 44.1995 79.5146C44.22 79.5637 44.2548 79.6055 44.2993 79.6345C44.3439 79.6636 44.3962 79.6785 44.4493 79.6775H52.4493C52.4838 79.6782 52.5176 79.6692 52.547 79.6513C52.5764 79.6334 52.6003 79.6075 52.6158 79.5763C52.6314 79.5452 52.6381 79.5101 52.6352 79.4749C52.6323 79.4398 52.6199 79.4061 52.5993 79.3775L49.9943 75.8525C49.881 75.7025 49.8243 75.5325 49.8243 75.3425V62.8125C49.8243 62.5858 49.896 62.5591 50.0393 62.7325C55.1543 68.8425 63.2143 64.5125 62.4743 56.9225C61.7993 50.0525 57.2693 47.3775 50.9043 49.4025C50.6277 49.4892 50.5477 49.4008 50.6643 49.1375Z" fill="white"/>
<path d="M32.4491 75.1625C32.4491 75.2367 32.4196 75.308 32.3671 75.3605C32.3146 75.413 32.2434 75.4425 32.1691 75.4425H22.8591C22.7848 75.4425 22.7136 75.413 22.6611 75.3605C22.6086 75.308 22.5791 75.2367 22.5791 75.1625V48.8325C22.5791 48.7582 22.6086 48.687 22.6611 48.6345C22.7136 48.582 22.7848 48.5525 22.8591 48.5525H32.1691C32.2434 48.5525 32.3146 48.582 32.3671 48.6345C32.4196 48.687 32.4491 48.7582 32.4491 48.8325V75.1625ZM31.0791 50.1925C31.0791 50.1235 31.0517 50.0574 31.0029 50.0086C30.9542 49.9599 30.8881 49.9325 30.8191 49.9325H24.2091C24.1401 49.9325 24.074 49.9599 24.0253 50.0086C23.9765 50.0574 23.9491 50.1235 23.9491 50.1925V73.7925C23.9491 73.8614 23.9765 73.9276 24.0253 73.9763C24.074 74.0251 24.1401 74.0525 24.2091 74.0525H30.8191C30.8881 74.0525 30.9542 74.0251 31.0029 73.9763C31.0517 73.9276 31.0791 73.8614 31.0791 73.7925V50.1925Z" fill="white"/>
<path d="M67.3792 75.4475C67.3392 75.4475 67.2995 75.4396 67.2625 75.4243C67.2255 75.4089 67.1919 75.3865 67.1636 75.3581C67.1352 75.3298 67.1128 75.2962 67.0974 75.2592C67.0821 75.2222 67.0742 75.1825 67.0742 75.1425V48.8025C67.0742 48.7362 67.1006 48.6726 67.1474 48.6257C67.1943 48.5788 67.2579 48.5525 67.3242 48.5525H76.4492C76.7025 48.5525 76.8292 48.6775 76.8292 48.9275L76.8342 75.2675C76.8342 75.3179 76.8137 75.3662 76.7771 75.4018C76.7405 75.4375 76.6909 75.4575 76.6392 75.4575L67.3792 75.4475ZM75.5742 50.2225C75.5742 50.1837 75.5666 50.1454 75.5518 50.1096C75.5369 50.0738 75.5152 50.0413 75.4878 50.0139C75.4604 49.9865 75.4279 49.9648 75.3921 49.9499C75.3563 49.9351 75.318 49.9275 75.2792 49.9275H68.7392C68.7005 49.9275 68.6621 49.9351 68.6263 49.9499C68.5905 49.9648 68.558 49.9865 68.5306 50.0139C68.5032 50.0413 68.4815 50.0738 68.4667 50.1096C68.4518 50.1454 68.4442 50.1837 68.4442 50.2225V73.7525C68.4442 73.7912 68.4518 73.8296 68.4667 73.8654C68.4815 73.9012 68.5032 73.9337 68.5306 73.9611C68.558 73.9885 68.5905 74.0102 68.6263 74.025C68.6621 74.0398 68.7005 74.0475 68.7392 74.0475H75.2792C75.3575 74.0475 75.4325 74.0164 75.4878 73.9611C75.5431 73.9057 75.5742 73.8307 75.5742 73.7525V50.2225Z" fill="white"/>
<path d="M52.4496 49.7026C57.5396 50.3426 58.5296 55.5876 59.1596 59.6426C59.4646 61.5926 58.4196 63.0276 57.0546 64.2226C56.9179 64.3426 56.7879 64.3359 56.6646 64.2026C55.6596 63.1326 54.3346 62.3776 53.5096 61.3776C50.9896 58.3326 49.2746 53.7626 51.6146 50.0926C51.7031 49.9551 51.8285 49.8454 51.9763 49.7764C52.1241 49.7074 52.2882 49.6818 52.4496 49.7026ZM57.8096 61.2776C57.6746 57.8326 57.0196 52.8176 53.1696 51.5176C52.9762 51.4509 52.8312 51.5076 52.7346 51.6876C50.7646 55.2976 52.7346 60.8426 56.6196 62.1676C57.4462 62.4509 57.8429 62.1543 57.8096 61.2776Z" fill="white"/>
<path d="M32.1395 75.9276L34.4395 83.7726C34.4487 83.8052 34.4503 83.8394 34.4442 83.8728C34.438 83.9061 34.4242 83.9375 34.4038 83.9646C34.3835 83.9917 34.3572 84.0137 34.327 84.029C34.2967 84.0442 34.2634 84.0523 34.2295 84.0526H20.2845C20.2487 84.0526 20.2134 84.0439 20.1818 84.0271C20.1501 84.0104 20.123 83.9863 20.1028 83.9567C20.0826 83.9271 20.0699 83.8931 20.0659 83.8575C20.0618 83.822 20.0665 83.7859 20.0795 83.7526L23.0795 76.0326C23.0956 75.9913 23.1238 75.9559 23.1604 75.9309C23.197 75.9059 23.2402 75.8926 23.2845 75.8926L31.9295 75.7676C31.9771 75.7679 32.0233 75.7837 32.0612 75.8126C32.099 75.8414 32.1265 75.8818 32.1395 75.9276ZM30.7995 77.1926C30.788 77.1578 30.7659 77.1276 30.7363 77.106C30.7067 77.0845 30.6711 77.0728 30.6345 77.0726L24.3795 77.0426C24.3414 77.0421 24.3042 77.054 24.2736 77.0766C24.2429 77.0991 24.2204 77.1311 24.2095 77.1676L22.5895 82.5776C22.5818 82.6035 22.5802 82.6308 22.5848 82.6575C22.5894 82.6841 22.6001 82.7093 22.6161 82.7311C22.6321 82.7529 22.6529 82.7707 22.6769 82.7831C22.7009 82.7955 22.7275 82.8022 22.7545 82.8026H32.4545C32.4821 82.8024 32.5093 82.7957 32.5338 82.783C32.5583 82.7703 32.5795 82.752 32.5956 82.7296C32.6117 82.7072 32.6222 82.6812 32.6264 82.654C32.6305 82.6267 32.6282 82.5988 32.6195 82.5726L30.7995 77.1926Z" fill="white"/>
<path d="M76.3945 75.8775L79.4645 83.7925C79.4761 83.8216 79.4802 83.8531 79.4767 83.8841C79.4731 83.9152 79.4619 83.945 79.4441 83.9707C79.4263 83.9964 79.4024 84.0173 79.3746 84.0316C79.3467 84.0459 79.3158 84.0531 79.2845 84.0525H65.2395C65.2096 84.053 65.18 84.0464 65.1531 84.0333C65.1262 84.0202 65.1028 84.0009 65.0848 83.977C65.0667 83.9531 65.0546 83.9253 65.0493 83.8959C65.0441 83.8664 65.0459 83.8361 65.0545 83.8075L67.3245 76.0625C67.3353 76.0228 67.3587 75.9877 67.3912 75.9625C67.4236 75.9373 67.4634 75.9232 67.5045 75.9225L76.2095 75.7575C76.249 75.7558 76.2881 75.7664 76.3212 75.7879C76.3544 75.8094 76.38 75.8407 76.3945 75.8775ZM74.9745 77.0925C73.2845 77.0025 71.5945 77.1075 69.9045 77.0525C68.1345 76.9975 67.2195 81.6025 66.9495 82.4775C66.8829 82.6942 66.9629 82.8025 67.1895 82.8025H76.6095C76.8662 82.8025 76.9562 82.6792 76.8795 82.4325L75.3695 77.4025C75.3095 77.2058 75.1779 77.1025 74.9745 77.0925Z" fill="white"/>
</svg>
