<svg width="100" height="100" viewBox="0 0 100 100" fill="none" xmlns="http://www.w3.org/2000/svg">
<rect width="100" height="100" fill="#205A99"/>
<path d="M63.5425 45.9908C56.98 58.8533 40.0525 63.9758 26.9125 60.8708C19.39 59.0933 13.8925 51.8033 16 43.9808C18.6025 34.2983 27.13 28.3508 36.97 27.6083C45.475 26.9558 51.43 28.6733 59.7775 31.3808C62.3275 32.2058 64.495 32.2583 67.0825 32.1683C67.3625 32.1633 67.44 32.2833 67.315 32.5283L64.2475 38.7083C64.1175 38.9633 63.93 39.0208 63.685 38.8808C56.235 34.5808 48.2925 32.5383 39.8575 32.7533C35.9075 32.8533 32.7325 33.5758 30.3325 34.9208C23.9125 38.5058 18.7525 49.5383 27.0775 54.4808C34.33 58.7933 58.8475 56.0633 55.135 43.5458C55.05 43.2658 55.155 43.1233 55.45 43.1183C62.71 42.9783 69.9525 42.9933 77.1775 43.1633C85.345 43.3508 87.43 52.1858 81.1675 56.6333C78.415 58.5908 73.12 57.9983 69.805 57.7208C69.35 57.6858 69.33 57.5733 69.745 57.3833C72.835 55.9683 75.4025 53.9733 77.4475 51.3983C83.2375 44.0933 66.4525 45.6158 64.045 45.6758C63.815 45.6808 63.6475 45.7858 63.5425 45.9908Z" fill="white"/>
<path d="M46.2101 71.6257C46.1351 71.6207 46.1176 71.5857 46.1576 71.5207C49.0676 66.5932 52.5326 57.9757 58.2851 56.1157C58.5751 56.0207 58.6676 56.1157 58.5626 56.4007C56.7926 61.3657 55.9851 66.4857 56.1401 71.7607C56.1501 72.1357 55.9676 72.3107 55.5926 72.2857L46.2101 71.6257Z" fill="white"/>
</svg>
