<svg width="100" height="100" viewBox="0 0 100 100" fill="none" xmlns="http://www.w3.org/2000/svg">
<rect width="100" height="100" fill="#595C62"/>
<path d="M25.0108 51.6836V48.7891H32.4873V55.6328C31.7608 56.3359 30.7061 56.957 29.3233 57.4961C27.9483 58.0273 26.5537 58.293 25.1397 58.293C23.3428 58.293 21.7764 57.918 20.4405 57.168C19.1045 56.4102 18.1006 55.332 17.4287 53.9336C16.7569 52.5273 16.4209 51 16.4209 49.3516C16.4209 47.5625 16.7959 45.9727 17.5459 44.582C18.2959 43.1914 19.3936 42.125 20.8389 41.3828C21.9405 40.8125 23.3116 40.5273 24.9522 40.5273C27.085 40.5273 28.7491 40.9766 29.9444 41.875C31.1475 42.7656 31.9209 44 32.2647 45.5781L28.8194 46.2227C28.5772 45.3789 28.1202 44.7148 27.4483 44.2305C26.7842 43.7383 25.9522 43.4922 24.9522 43.4922C23.4366 43.4922 22.2295 43.9727 21.3311 44.9336C20.4405 45.8945 19.9952 47.3203 19.9952 49.2109C19.9952 51.25 20.4483 52.7812 21.3545 53.8047C22.2608 54.8203 23.4483 55.3281 24.917 55.3281C25.6436 55.3281 26.3702 55.1875 27.0967 54.9062C27.8311 54.6172 28.46 54.2695 28.9834 53.8633V51.6836H25.0108ZM36.07 58V40.8203H43.3708C45.2067 40.8203 46.5387 40.9766 47.3669 41.2891C48.2028 41.5938 48.8708 42.1406 49.3708 42.9297C49.8708 43.7188 50.1208 44.6211 50.1208 45.6367C50.1208 46.9258 49.7419 47.9922 48.9841 48.8359C48.2262 49.6719 47.0934 50.1992 45.5856 50.418C46.3356 50.8555 46.9528 51.3359 47.4372 51.8594C47.9294 52.3828 48.5895 53.3125 49.4177 54.6484L51.5153 58H47.3669L44.8591 54.2617C43.9684 52.9258 43.3591 52.0859 43.0309 51.7422C42.7028 51.3906 42.3552 51.1523 41.988 51.0273C41.6208 50.8945 41.0387 50.8281 40.2419 50.8281H39.5387V58H36.07ZM39.5387 48.0859H42.1052C43.7692 48.0859 44.8083 48.0156 45.2223 47.875C45.6364 47.7344 45.9606 47.4922 46.195 47.1484C46.4294 46.8047 46.5466 46.375 46.5466 45.8594C46.5466 45.2812 46.3903 44.8164 46.0778 44.4648C45.7731 44.1055 45.3395 43.8789 44.777 43.7852C44.4958 43.7461 43.652 43.7266 42.2458 43.7266H39.5387V48.0859ZM53.762 58V40.8203H66.5003V43.7266H57.2308V47.5352H65.8558V50.4297H57.2308V55.1055H66.8284V58H53.762ZM70.165 58V40.8203H73.54L80.5713 52.293V40.8203H83.7939V58H80.3134L73.3877 46.7969V58H70.165Z" fill="#F8F8F8"/>
</svg>
