<svg width="100" height="100" viewBox="0 0 100 100" fill="none" xmlns="http://www.w3.org/2000/svg">
<rect width="100" height="100" fill="#C0EAFF"/>
<path d="M14.6548 49.9861H19.9025L49.8825 21.1084L79.8623 49.9861H85.1102L49.8825 14.7584L14.6548 49.9861Z" fill="#58585A"/>
<path d="M65.4917 77.541V22.4309L73.0003 30.0812V70.0324L65.4917 77.541Z" fill="#009EE1"/>
<path d="M65.4917 77.541V22.4309L57.9831 30.0812V70.0324L65.4917 77.541Z" fill="#223893"/>
<path d="M34.5083 77.541V22.4309L42.0169 30.0812V70.0324L34.5083 77.541Z" fill="#223893"/>
<path d="M34.5083 77.541V22.4309L26.9997 30.0812V70.0324L34.5083 77.541Z" fill="#009EE1"/>
<path d="M50.1465 92.7513V7L61.8298 18.9038V81.068L50.1465 92.7513Z" fill="#2FC6F6"/>
<path d="M50.1465 92.7513V7L38.4631 18.9038V81.068L50.1465 92.7513Z" fill="#008AD1"/>
<path d="M14.6548 49.9861H19.9025L49.8825 78.8638L79.8623 49.9861H85.1102L49.8825 85.2138L14.6548 49.9861Z" fill="#818286"/>
</svg>
