<svg width="100" height="100" viewBox="0 0 100 100" fill="none" xmlns="http://www.w3.org/2000/svg">
<rect width="100" height="100" fill="#595C62"/>
<path d="M29.8428 51.6836V48.7891H37.3194V55.6328C36.5928 56.3359 35.5381 56.957 34.1553 57.4961C32.7803 58.0273 31.3858 58.293 29.9717 58.293C28.1748 58.293 26.6084 57.918 25.2725 57.168C23.9366 56.4102 22.9327 55.332 22.2608 53.9336C21.5889 52.5273 21.253 51 21.253 49.3516C21.253 47.5625 21.628 45.9727 22.378 44.582C23.128 43.1914 24.2256 42.125 25.6709 41.3828C26.7725 40.8125 28.1436 40.5273 29.7842 40.5273C31.917 40.5273 33.5811 40.9766 34.7764 41.875C35.9795 42.7656 36.753 44 37.0967 45.5781L33.6514 46.2227C33.4092 45.3789 32.9522 44.7148 32.2803 44.2305C31.6162 43.7383 30.7842 43.4922 29.7842 43.4922C28.2686 43.4922 27.0616 43.9727 26.1631 44.9336C25.2725 45.8945 24.8272 47.3203 24.8272 49.2109C24.8272 51.25 25.2803 52.7812 26.1866 53.8047C27.0928 54.8203 28.2803 55.3281 29.7491 55.3281C30.4756 55.3281 31.2022 55.1875 31.9287 54.9062C32.6631 54.6172 33.292 54.2695 33.8155 53.8633V51.6836H29.8428ZM40.902 58V40.8203H48.2028C50.0387 40.8203 51.3708 40.9766 52.1989 41.2891C53.0348 41.5938 53.7028 42.1406 54.2028 42.9297C54.7028 43.7188 54.9528 44.6211 54.9528 45.6367C54.9528 46.9258 54.5739 47.9922 53.8161 48.8359C53.0583 49.6719 51.9255 50.1992 50.4177 50.418C51.1677 50.8555 51.7848 51.3359 52.2692 51.8594C52.7614 52.3828 53.4216 53.3125 54.2497 54.6484L56.3473 58H52.1989L49.6911 54.2617C48.8005 52.9258 48.1911 52.0859 47.863 51.7422C47.5348 51.3906 47.1872 51.1523 46.82 51.0273C46.4528 50.8945 45.8708 50.8281 45.0739 50.8281H44.3708V58H40.902ZM44.3708 48.0859H46.9372C48.6012 48.0859 49.6403 48.0156 50.0544 47.875C50.4684 47.7344 50.7927 47.4922 51.027 47.1484C51.2614 46.8047 51.3786 46.375 51.3786 45.8594C51.3786 45.2812 51.2223 44.8164 50.9098 44.4648C50.6052 44.1055 50.1716 43.8789 49.6091 43.7852C49.3278 43.7461 48.4841 43.7266 47.0778 43.7266H44.3708V48.0859ZM58.4886 58V40.8203H61.9573V58H58.4886ZM70.0166 58L63.8759 40.8203H67.6377L71.9853 53.5352L76.1923 40.8203H79.872L73.7197 58H70.0166Z" fill="#F8F8F8"/>
</svg>
