<svg width="100" height="100" viewBox="0 0 100 100" fill="none" xmlns="http://www.w3.org/2000/svg">
<rect width="100" height="100" fill="white"/>
<path d="M57.4687 40.47C54.4487 44.01 50.6087 47.28 48.9287 51.71" stroke="#65966A" stroke-width="2"/>
<path d="M48.9288 51.71C46.9088 50.99 44.8521 50.7933 42.7588 51.12C42.5385 51.1535 42.3377 51.2658 42.1927 51.4365C42.0477 51.6072 41.9683 51.8249 41.9688 52.05V62.36C41.9688 62.7933 42.1854 63.01 42.6188 63.01H43.8188C43.9911 63.01 44.1565 62.9415 44.2784 62.8196C44.4003 62.6977 44.4688 62.5324 44.4688 62.36V59.57C44.4688 59.2766 44.6054 59.07 44.8788 58.95C45.4654 58.6833 46.1654 58.6566 46.9788 58.87" stroke="#94ADC5" stroke-width="2"/>
<path d="M46.9786 58.8701C46.7919 63.8968 47.7186 68.5701 49.7586 72.8901" stroke="#65966A" stroke-width="2"/>
<path d="M49.7588 72.8899C51.8721 77.1832 54.7188 80.9099 58.2988 84.0699" stroke="#538C4B" stroke-width="2"/>
<path d="M58.2985 84.0701C48.9052 79.0567 42.4585 71.9667 38.9585 62.8" stroke="#1874AC" stroke-width="2"/>
<path d="M38.9584 62.7999C40.5717 58.4133 40.1917 56.2066 37.8184 56.1799" stroke="#94ADC5" stroke-width="2"/>
<path d="M37.8184 56.18L38.5584 53.54" stroke="#1874AC" stroke-width="2"/>
<path d="M38.5585 53.54C40.3118 53.5733 40.2852 52.81 38.4785 51.25" stroke="#94ADC5" stroke-width="2"/>
<path d="M60.5083 85.8301C59.9417 85.0967 59.205 84.5101 58.2983 84.0701" stroke="#41A56C" stroke-width="2"/>
<path d="M38.4787 51.2499C36.4853 50.6099 34.2053 50.7899 31.6387 51.7899" stroke="#83C6E6" stroke-width="2"/>
<path d="M68.8488 50.8501L54.8788 50.2701C54.6388 50.2567 54.5288 50.3734 54.5488 50.6201C54.5688 50.7734 54.5488 50.9167 54.4888 51.0501" stroke="#8FC72A" stroke-width="2"/>
<path d="M52.6988 63.04C52.7455 63.1734 52.8521 63.26 53.0188 63.3C53.2188 63.3467 53.3021 63.47 53.2688 63.67C52.8288 66.49 52.8788 71.86 49.7588 72.89" stroke="#8FC72A" stroke-width="2"/>
<path d="M46.9785 58.87C50.5452 57.2166 51.1952 54.83 48.9285 51.71" stroke="#D0E8A4" stroke-width="2"/>
<path d="M38.5583 53.5399C29.6383 49.2099 30.6083 63.7199 36.5883 61.0999C36.9205 60.9523 37.1929 60.6966 37.3613 60.3745C37.5297 60.0524 37.5841 59.6827 37.5157 59.3258C37.4474 58.9688 37.2602 58.6454 36.9847 58.4083C36.7091 58.1712 36.3615 58.0343 35.9983 58.0199L35.4483 58.0099C35.0616 57.9966 34.8183 57.8033 34.7183 57.4299C34.6583 57.1899 34.6916 56.9699 34.8183 56.7699C34.9583 56.5433 35.2283 56.4066 35.6283 56.3599C36.3216 56.2799 37.0516 56.2199 37.8183 56.1799" stroke="#83C6E6" stroke-width="2"/>
<path d="M38.9587 62.8L32.4487 62.79" stroke="#83C6E6" stroke-width="2"/>
<path d="M70.9883 46.2999C70.6383 43.2899 69.6183 41.1599 68.8883 38.3699C68.8483 38.2032 68.755 38.1032 68.6083 38.0699C68.355 38.0166 68.255 38.1132 68.3083 38.3599L69.1183 41.9699" stroke="#BEDE85" stroke-width="2"/>
<path d="M69.1188 41.97C68.7521 43.1833 66.5854 43.1133 62.6188 41.76C62.5845 41.7514 62.5484 41.7553 62.5167 41.7707C62.485 41.7862 62.4597 41.8124 62.4454 41.8446C62.4311 41.8768 62.4286 41.9131 62.4383 41.947C62.4481 41.9809 62.4695 42.0103 62.4987 42.03L62.7388 42.17C62.9188 42.2833 62.9054 42.3666 62.6987 42.42C60.6321 42.9666 58.8887 42.3166 57.4688 40.47" stroke="#8FC72A" stroke-width="2"/>
<path d="M31.6385 51.79C28.4385 56.09 28.7085 59.7567 32.4485 62.79" stroke="#83E7FE" stroke-width="2"/>
<path d="M70.9884 46.3L70.8384 50.94" stroke="#D0E8A4" stroke-width="2"/>
<path d="M70.8385 50.9399C68.1285 60.0999 64.3485 67.5599 65.9585 78.2299" stroke="#A9D282" stroke-width="2"/>
<path d="M65.9587 78.2299C63.8054 73.6766 63.4421 68.9266 64.8687 63.9799C64.9821 63.5866 64.8621 63.2833 64.5087 63.0699L64.1787 62.8699C63.8721 62.6899 63.7187 62.4199 63.7187 62.0599V54.0499C63.7161 53.9883 63.6925 53.9295 63.6518 53.8831C63.6111 53.8368 63.5558 53.8058 63.495 53.7953C63.4343 53.7848 63.3717 53.7954 63.3178 53.8253C63.2639 53.8553 63.2219 53.9028 63.1987 53.9599L60.3387 62.1999C60.2431 62.4788 60.0629 62.7205 59.8232 62.8915C59.5834 63.0624 59.2959 63.1543 59.0004 63.1543C58.705 63.1543 58.4162 63.0624 58.174 62.8915C57.9318 62.7205 57.7483 62.4788 57.6487 62.1999L54.6987 53.8199C54.6921 53.7802 54.6699 53.7446 54.6371 53.7212C54.6043 53.6978 54.5635 53.6883 54.5237 53.6949C54.4839 53.7016 54.4484 53.7237 54.425 53.7566C54.4015 53.7894 54.3921 53.8302 54.3987 53.8699L54.4987 62.3299C54.5054 62.7699 54.2887 62.9966 53.8487 63.0099L52.6987 63.0399" stroke="#BEDE85" stroke-width="2"/>
<path d="M52.6987 63.0401C52.4787 62.9334 52.2921 62.7801 52.1387 62.5801C52.0254 62.4201 51.9688 62.2001 51.9688 61.9201C51.9688 58.9334 51.9688 55.9267 51.9688 52.9001C51.9688 52.0401 52.1254 51.4934 52.4388 51.2601C52.8654 50.9401 53.5488 50.8701 54.4888 51.0501" stroke="#D0E8A4" stroke-width="2"/>
<path d="M54.4888 51.0501C54.8888 50.9834 55.2721 51.0434 55.6388 51.2301C55.9321 51.3834 56.1354 51.6167 56.2488 51.9301L58.6488 58.6801C58.6812 58.7777 58.7436 58.8627 58.8271 58.9229C58.9105 58.9831 59.0108 59.0156 59.1138 59.0156C59.2167 59.0156 59.317 58.9831 59.4005 58.9229C59.4839 58.8627 59.5463 58.7777 59.5788 58.6801L61.9088 52.1501C62.0734 51.6853 62.3971 51.2937 62.8226 51.0446C63.2481 50.7954 63.748 50.7047 64.2339 50.7884C64.7198 50.8722 65.1604 51.1251 65.4779 51.5024C65.7954 51.8796 65.9692 52.357 65.9688 52.8501L65.9788 60.1901C65.9825 60.2087 65.992 60.2257 66.006 60.2386C66.0199 60.2514 66.0376 60.2596 66.0565 60.2618C66.0754 60.264 66.0945 60.2602 66.111 60.2509C66.1276 60.2416 66.1408 60.2273 66.1488 60.2101L68.8488 50.8501" stroke="#BEDE85" stroke-width="2"/>
<path d="M68.8486 50.85C69.6086 47.7566 69.6986 44.7966 69.1186 41.97" stroke="#D0E8A4" stroke-width="2"/>
<path d="M44.4983 53.5801L44.4183 56.3901C44.4156 56.4676 44.4283 56.5448 44.4555 56.6175C44.4827 56.6901 44.5239 56.7566 44.5769 56.8132C44.6298 56.8699 44.6934 56.9156 44.764 56.9476C44.8346 56.9797 44.9108 56.9975 44.9883 57.0001L45.7583 57.0201C46.0052 57.0281 46.2513 56.9874 46.4825 56.9002C46.7136 56.8131 46.9254 56.6812 47.1055 56.5122C47.2857 56.3431 47.4308 56.1403 47.5325 55.9151C47.6342 55.69 47.6906 55.447 47.6983 55.2001V54.9601C47.7063 54.7132 47.6656 54.4671 47.5784 54.2359C47.4913 54.0048 47.3594 53.7931 47.1904 53.6129C47.0214 53.4327 46.8185 53.2876 46.5934 53.1859C46.3682 53.0842 46.1252 53.0279 45.8783 53.0201L45.1083 53.0001C45.03 52.9974 44.9519 53.0104 44.8787 53.0382C44.8055 53.066 44.7385 53.1082 44.6817 53.1622C44.6249 53.2162 44.5794 53.2809 44.548 53.3527C44.5165 53.4244 44.4996 53.5017 44.4983 53.5801Z" stroke="#94ADC5" stroke-width="2"/>
<path d="M61.8788 23.28C62.9855 29.6733 61.5155 35.4033 57.4688 40.47C54.4488 44.01 50.6088 47.28 48.9288 51.71C46.9088 50.99 44.8522 50.7933 42.7588 51.12C42.5386 51.1535 42.3378 51.2659 42.1928 51.4365C42.0478 51.6072 41.9684 51.8249 41.9688 52.05V62.36C41.9688 62.7933 42.1855 63.01 42.6188 63.01H43.8188C43.9912 63.01 44.1566 62.9415 44.2785 62.8196C44.4004 62.6977 44.4688 62.5324 44.4688 62.36V59.57C44.4688 59.2767 44.6055 59.07 44.8788 58.95C45.4655 58.6833 46.1655 58.6567 46.9788 58.87C46.7922 63.8967 47.7188 68.57 49.7588 72.89C51.8722 77.1833 54.7188 80.91 58.2988 84.07C48.9055 79.0567 42.4588 71.9667 38.9588 62.8C40.5722 58.4133 40.1922 56.2067 37.8188 56.18L38.5588 53.54C40.3122 53.5733 40.2855 52.81 38.4788 51.25C39.9688 47.91 41.1088 44.6 43.3088 41.61C46.0288 37.92 49.1388 34.38 50.2688 30.02C51.7222 24.4 51.5422 18.3933 49.7288 12L61.8788 23.28Z" fill="#295B8B"/>
<path d="M49.7287 12C51.542 18.3933 51.722 24.4 50.2687 30.02C49.1387 34.38 46.0287 37.92 43.3087 41.61C41.1087 44.6 39.9687 47.91 38.4787 51.25C36.4853 50.61 34.2053 50.79 31.6387 51.79C32.5453 47.1433 34.072 41.5567 36.2187 35.03C37.3253 31.6767 37.232 28.4867 35.9387 25.46L49.7287 12Z" fill="#068CCC"/>
<path d="M35.9387 25.46C37.232 28.4866 37.3253 31.6766 36.2187 35.03C34.072 41.5566 32.5453 47.1433 31.6387 51.79C28.4387 56.09 28.7087 59.7566 32.4487 62.79C35.5487 75.97 47.5687 84.34 60.5087 85.83L61.5387 86.23C40.0587 93.98 12.0287 76.84 16.4687 52.18C18.3487 41.78 27.5587 32.16 35.9387 25.46Z" fill="#06CFFD"/>
<path d="M70.9888 46.3001L70.8387 50.9401C68.1287 60.1001 64.3488 67.5601 65.9588 78.2301C63.8054 73.6768 63.4421 68.9268 64.8688 63.9801C64.9821 63.5868 64.8621 63.2835 64.5088 63.0701L64.1787 62.8701C63.8721 62.6901 63.7188 62.4201 63.7188 62.0601V54.0501C63.7161 53.9885 63.6925 53.9297 63.6518 53.8833C63.6111 53.837 63.5558 53.806 63.495 53.7955C63.4343 53.785 63.3717 53.7956 63.3178 53.8255C63.2639 53.8555 63.2219 53.903 63.1987 53.9601L60.3387 62.2001C60.2431 62.479 60.0629 62.7207 59.8232 62.8916C59.5834 63.0626 59.2959 63.1545 59.0004 63.1545C58.705 63.1545 58.4162 63.0626 58.174 62.8916C57.9319 62.7207 57.7483 62.479 57.6488 62.2001L54.6987 53.8201C54.6921 53.7803 54.67 53.7448 54.6371 53.7214C54.6043 53.6979 54.5635 53.6885 54.5238 53.6951C54.484 53.7018 54.4484 53.7239 54.425 53.7567C54.4016 53.7896 54.3921 53.8303 54.3988 53.8701L54.4987 62.3301C54.5054 62.7701 54.2888 62.9968 53.8488 63.0101L52.6987 63.0401C52.4787 62.9335 52.2921 62.7801 52.1387 62.5801C52.0254 62.4201 51.9688 62.2001 51.9688 61.9201C51.9688 58.9335 51.9688 55.9268 51.9688 52.9001C51.9688 52.0401 52.1254 51.4935 52.4388 51.2601C52.8654 50.9401 53.5488 50.8701 54.4888 51.0501C54.8888 50.9835 55.2721 51.0435 55.6387 51.2301C55.9321 51.3835 56.1354 51.6168 56.2487 51.9301L58.6488 58.6801C58.6812 58.7778 58.7436 58.8628 58.8271 58.923C58.9105 58.9832 59.0108 59.0156 59.1138 59.0156C59.2167 59.0156 59.317 58.9832 59.4004 58.923C59.4839 58.8628 59.5463 58.7778 59.5788 58.6801L61.9087 52.1501C62.0734 51.6854 62.3971 51.2938 62.8226 51.0446C63.2481 50.7954 63.748 50.7047 64.2339 50.7885C64.7198 50.8723 65.1604 51.1252 65.4779 51.5024C65.7954 51.8797 65.9692 52.3571 65.9688 52.8501L65.9787 60.1901C65.9825 60.2088 65.992 60.2257 66.006 60.2386C66.0199 60.2515 66.0376 60.2596 66.0565 60.2619C66.0754 60.2641 66.0944 60.2603 66.111 60.251C66.1276 60.2417 66.1408 60.2274 66.1488 60.2101L68.8488 50.8501C69.6088 47.7568 69.6988 44.7968 69.1188 41.9701L68.3088 38.3601C68.2554 38.1135 68.3554 38.0168 68.6087 38.0701C68.7554 38.1035 68.8487 38.2035 68.8887 38.3701C69.6187 41.1601 70.6388 43.2901 70.9888 46.3001Z" fill="white"/>
<path d="M68.8488 50.8501L66.1488 60.2101C66.1408 60.2273 66.1276 60.2416 66.111 60.2509C66.0945 60.2602 66.0754 60.264 66.0565 60.2618C66.0376 60.2596 66.0199 60.2514 66.006 60.2386C65.992 60.2257 65.9825 60.2087 65.9788 60.1901L65.9688 52.8501C65.9692 52.357 65.7954 51.8796 65.4779 51.5024C65.1604 51.1251 64.7198 50.8722 64.2339 50.7884C63.748 50.7047 63.2481 50.7954 62.8226 51.0446C62.3971 51.2937 62.0734 51.6853 61.9088 52.1501L59.5788 58.6801C59.5463 58.7777 59.4839 58.8627 59.4005 58.9229C59.317 58.9831 59.2167 59.0156 59.1138 59.0156C59.0108 59.0156 58.9105 58.9831 58.8271 58.9229C58.7436 58.8627 58.6812 58.7777 58.6488 58.6801L56.2488 51.9301C56.1354 51.6167 55.9321 51.3834 55.6388 51.2301C55.2721 51.0434 54.8888 50.9834 54.4888 51.0501C54.5488 50.9167 54.5688 50.7734 54.5488 50.6201C54.5288 50.3734 54.6388 50.2567 54.8788 50.2701L68.8488 50.8501Z" fill="#7CBD0B"/>
<path d="M38.4785 51.2501C40.2852 52.8101 40.3119 53.5735 38.5585 53.5401C29.6385 49.2101 30.6086 63.7201 36.5886 61.1001C36.9207 60.9525 37.1932 60.6968 37.3615 60.3747C37.5299 60.0526 37.5844 59.683 37.516 59.326C37.4476 58.969 37.2604 58.6456 36.9849 58.4085C36.7094 58.1714 36.3618 58.0345 35.9986 58.0201L35.4485 58.0101C35.0619 57.9968 34.8185 57.8035 34.7185 57.4301C34.6585 57.1901 34.6919 56.9701 34.8186 56.7701C34.9585 56.5435 35.2285 56.4068 35.6285 56.3601C36.3219 56.2801 37.0519 56.2201 37.8186 56.1801C40.1919 56.2068 40.5719 58.4135 38.9585 62.8001L32.4485 62.7901C28.9147 59.924 28.4789 56.4924 31.141 52.4954C31.4532 52.0267 31.9149 51.6744 32.4498 51.4982C34.6882 50.7611 36.6978 50.6784 38.4785 51.2501Z" fill="white"/>
<path d="M48.9288 51.71C51.1954 54.83 50.5454 57.2166 46.9788 58.87C46.1654 58.6566 45.4654 58.6833 44.8788 58.95C44.6054 59.07 44.4688 59.2766 44.4688 59.57V62.36C44.4688 62.5324 44.4003 62.6977 44.2784 62.8196C44.1565 62.9415 43.9911 63.01 43.8188 63.01H42.6188C42.1854 63.01 41.9688 62.7933 41.9688 62.36V52.05C41.9683 51.8249 42.0477 51.6072 42.1927 51.4365C42.3377 51.2658 42.5385 51.1535 42.7588 51.12C44.8521 50.7933 46.9088 50.99 48.9288 51.71ZM44.4988 53.58L44.4188 56.39C44.4161 56.4675 44.4287 56.5447 44.4559 56.6173C44.4831 56.6899 44.5244 56.7565 44.5773 56.8131C44.6303 56.8698 44.6938 56.9154 44.7644 56.9475C44.835 56.9796 44.9113 56.9974 44.9888 57L45.7588 57.02C46.0057 57.028 46.2517 56.9872 46.4829 56.9001C46.7141 56.8129 46.9258 56.6811 47.106 56.512C47.2861 56.343 47.4312 56.1401 47.5329 55.915C47.6347 55.6899 47.691 55.4469 47.6988 55.2V54.96C47.7068 54.7131 47.666 54.467 47.5789 54.2358C47.4917 54.0047 47.3599 53.7929 47.1908 53.6128C47.0218 53.4326 46.8189 53.2875 46.5938 53.1858C46.3687 53.0841 46.1257 53.0277 45.8788 53.02L45.1088 53C45.0304 52.9973 44.9524 53.0103 44.8791 53.0381C44.8059 53.0659 44.7389 53.1081 44.6821 53.1621C44.6253 53.216 44.5799 53.2808 44.5484 53.3526C44.5169 53.4243 44.5 53.5016 44.4988 53.58Z" fill="white"/>
<path d="M38.5588 53.5399L37.8188 56.1799C37.0521 56.2199 36.3221 56.2799 35.6288 56.3599C35.2288 56.4066 34.9588 56.5433 34.8188 56.7699C34.6921 56.9699 34.6588 57.1899 34.7188 57.4299C34.8188 57.8033 35.0621 57.9966 35.4488 58.0099L35.9988 58.0199C36.362 58.0343 36.7096 58.1712 36.9851 58.4083C37.2607 58.6454 37.4478 58.9688 37.5162 59.3258C37.5846 59.6827 37.5302 60.0524 37.3618 60.3745C37.1934 60.6966 36.921 60.9523 36.5888 61.0999C30.6088 63.7199 29.6388 49.2099 38.5588 53.5399Z" fill="#068CCC"/>
<path d="M44.4988 53.5801C44.5001 53.5017 44.517 53.4244 44.5484 53.3527C44.5799 53.2809 44.6254 53.2162 44.6822 53.1622C44.739 53.1082 44.8059 53.066 44.8792 53.0382C44.9524 53.0104 45.0305 52.9974 45.1088 53.0001L45.8788 53.0201C46.1257 53.0279 46.3687 53.0842 46.5938 53.1859C46.819 53.2876 47.0219 53.4327 47.1909 53.6129C47.3599 53.7931 47.4918 54.0048 47.5789 54.2359C47.6661 54.4671 47.7068 54.7132 47.6988 54.9601V55.2001C47.6911 55.447 47.6347 55.69 47.533 55.9151C47.4313 56.1403 47.2862 56.3431 47.106 56.5122C46.9258 56.6812 46.7141 56.8131 46.483 56.9002C46.2518 56.9874 46.0057 57.0281 45.7588 57.0201L44.9888 57.0001C44.9113 56.9975 44.8351 56.9797 44.7645 56.9476C44.6939 56.9156 44.6303 56.8699 44.5774 56.8132C44.5244 56.7566 44.4832 56.6901 44.456 56.6175C44.4288 56.5448 44.4161 56.4676 44.4188 56.3901L44.4988 53.5801Z" fill="#295B8B"/>
<path fill-rule="evenodd" clip-rule="evenodd" d="M61.8789 23.28C69.5688 29.4199 78.7988 38.05 82.4785 47.2L84.1987 55.0701C84.4688 68.53 75.9087 79.8198 63.9287 85.3101L61.5386 86.23L60.5088 85.8298C59.9419 85.0967 59.2056 84.51 58.2988 84.0698C54.7188 80.9099 51.8721 77.1833 49.7588 72.8899C47.7188 68.5701 46.792 63.8967 46.9785 58.8699C50.5454 57.2166 51.1953 54.8301 48.9287 51.71C50.1909 48.3811 52.6729 45.7073 55.1104 43.0818C55.917 42.2131 56.7183 41.3499 57.4688 40.47C61.5156 35.4033 62.9854 29.6733 61.8789 23.28ZM52.6987 63.04L53.8486 63.01C54.2886 62.9966 54.5054 62.77 54.499 62.3298L54.3989 53.8699C54.3921 53.8301 54.4014 53.7893 54.4248 53.7566C54.4487 53.7236 54.4839 53.7017 54.5239 53.6948C54.541 53.6919 54.5586 53.6921 54.5757 53.6953C54.5977 53.6992 54.6187 53.708 54.6372 53.7212C54.6699 53.7446 54.6924 53.7803 54.6987 53.8198L57.6489 62.2C57.6777 62.2812 57.7139 62.3594 57.7568 62.4336C57.8608 62.6138 58.0024 62.7703 58.1738 62.8914C58.416 63.0625 58.7051 63.1543 59.0005 63.1543C59.2959 63.1543 59.5835 63.0625 59.8232 62.8914C60.063 62.7205 60.2432 62.4788 60.3389 62.2L63.1987 53.96C63.21 53.9321 63.2261 53.9067 63.2451 53.8845C63.2656 53.8608 63.29 53.8408 63.3179 53.8254C63.3486 53.8083 63.3818 53.7976 63.4165 53.7932C63.4424 53.79 63.4688 53.7908 63.4951 53.7952C63.5557 53.8059 63.6113 53.8369 63.6519 53.8831C63.6924 53.9294 63.7163 53.9883 63.7188 54.05V62.0601C63.7188 62.4199 63.8721 62.6899 64.1787 62.8699L64.5088 63.0698C64.8623 63.2832 64.9819 63.5867 64.8687 63.98C63.4419 68.9265 63.8057 73.6765 65.9585 78.23C64.6738 69.7158 66.8213 63.2454 69.1187 56.3242L69.1245 56.3081C69.7041 54.561 70.293 52.7849 70.8389 50.9402L70.9888 46.3C70.7598 44.3296 70.2432 42.7361 69.709 41.0876C69.4272 40.2183 69.1406 39.3335 68.8887 38.3701C68.8486 38.2034 68.7554 38.1033 68.6089 38.0701C68.3555 38.0166 68.2554 38.1133 68.3086 38.3601L69.1187 41.97C69.6987 44.7966 69.6084 47.7566 68.8486 50.8499L54.8784 50.27C54.6387 50.2566 54.5283 50.3733 54.5483 50.6199C54.5684 50.7732 54.5483 50.9167 54.4888 51.05C53.9653 50.9497 53.5215 50.927 53.1572 50.9817C52.8672 51.0254 52.6279 51.1182 52.4385 51.26C52.3232 51.3457 52.2295 51.4739 52.1567 51.6443C52.0313 51.9375 51.9688 52.356 51.9688 52.8999V61.9199C51.9688 62.2 52.0254 62.4199 52.1387 62.5801C52.292 62.78 52.4785 62.9333 52.6987 63.04Z" fill="#7CBD0B"/>
<path d="M38.9587 62.8C42.4587 71.9667 48.9054 79.0567 58.2987 84.07C59.2054 84.51 59.9421 85.0967 60.5087 85.83C47.5687 84.34 35.5487 75.97 32.4487 62.79L38.9587 62.8Z" fill="#068CCC"/>
</svg>
