<svg width="100" height="100" viewBox="0 0 100 100" fill="none" xmlns="http://www.w3.org/2000/svg">
<rect width="100" height="100" fill="#339900"/>
<path d="M33.2999 58.4828C35.1499 53.1728 28.3099 50.1528 25.5799 55.2728C25.5623 55.3065 25.5531 55.3441 25.5532 55.3822C25.5533 55.4203 25.5627 55.4576 25.5806 55.4908C25.5985 55.524 25.6242 55.5521 25.6555 55.5725C25.6868 55.5929 25.7227 55.605 25.7599 55.6078C28.4599 55.8711 30.8433 56.8644 32.9099 58.5878C32.9402 58.6135 32.9763 58.6316 33.015 58.6403C33.0538 58.6491 33.0942 58.6482 33.1326 58.6379C33.1709 58.6275 33.2062 58.608 33.2354 58.581C33.2646 58.554 33.2867 58.5203 33.2999 58.4828Z" stroke="#E0FF80"/>
<path d="M31.1497 60.0877C29.5931 58.961 27.8614 58.2544 25.9547 57.9677C25.9 57.9588 25.8438 57.9655 25.7927 57.987C25.7416 58.0086 25.6976 58.0441 25.6658 58.0895C25.6339 58.1349 25.6155 58.1884 25.6127 58.2438C25.6099 58.2992 25.6227 58.3543 25.6497 58.4027C26.8331 60.5527 28.6297 61.306 31.0397 60.6627C31.4797 60.546 31.5164 60.3544 31.1497 60.0877Z" stroke="#E0FF80"/>
<path d="M84.8398 50.5676L81.2698 50.8926L77.5698 49.5026C77.4398 49.4526 77.3081 49.451 77.1748 49.4976L73.9548 50.6226L70.7848 50.7376C69.1182 50.7343 67.6332 50.216 66.3298 49.1826C63.7198 47.1176 66.3498 44.8926 68.4298 44.3526C68.5058 44.3328 68.5758 44.2947 68.6336 44.2416C68.6914 44.1885 68.7354 44.122 68.7615 44.048C68.7877 43.974 68.7953 43.8947 68.7836 43.817C68.772 43.7394 68.7415 43.6657 68.6948 43.6026C67.9298 42.5626 67.4048 40.5676 68.3698 39.4776C69.6648 38.0126 71.7498 38.9426 73.1998 39.6126C73.3865 39.696 73.5098 39.641 73.5698 39.4476C74.7898 35.3676 78.2198 34.4326 79.6498 39.2576C79.7931 39.7476 80.0848 39.8626 80.5248 39.6026C84.0548 37.5076 86.9248 39.9226 84.8148 43.5776C84.7918 43.6183 84.7787 43.6639 84.7764 43.7106C84.7742 43.7573 84.7829 43.8038 84.8018 43.8466C84.8208 43.8893 84.8494 43.9271 84.8855 43.9568C84.9216 43.9864 84.9642 44.0073 85.0098 44.0176C86.7598 44.4076 89.0998 45.5426 89.0298 47.7176C89.0233 47.8861 88.9599 48.0481 88.8498 48.1776C87.8265 49.421 86.4898 50.2176 84.8398 50.5676ZM74.1848 40.4876C76.4415 42.011 77.9298 44.081 78.6498 46.6976C78.6627 46.7431 78.6902 46.783 78.7281 46.8112C78.7659 46.8395 78.812 46.8544 78.8592 46.8539C78.9064 46.8533 78.9522 46.8372 78.9893 46.8081C79.0265 46.7789 79.053 46.7383 79.0648 46.6926C79.7098 44.2126 80.0898 37.1526 76.5798 36.5776C76.4851 36.5619 76.3883 36.5658 76.2954 36.589C76.2025 36.6122 76.1155 36.6543 76.0398 36.7126C74.8965 37.6126 74.2481 38.8043 74.0948 40.2876C74.0903 40.3269 74.0964 40.3663 74.1123 40.4016C74.1281 40.4369 74.1532 40.4667 74.1848 40.4876ZM69.9248 44.0976C72.6198 43.8226 75.3748 43.8476 77.5998 45.5476C77.637 45.5761 77.6829 45.5909 77.7297 45.5897C77.7766 45.5884 77.8216 45.5711 77.8573 45.5407C77.8929 45.5103 77.9171 45.4686 77.9257 45.4226C77.9344 45.3765 77.927 45.3289 77.9048 45.2876C76.4915 42.5676 74.4231 40.6826 71.6998 39.6326C67.7448 38.1026 67.9398 41.8426 69.5298 43.9276C69.6265 44.0576 69.7582 44.1143 69.9248 44.0976ZM84.7098 42.3176C86.1048 38.5076 81.5848 39.3076 80.0248 40.7726C79.9081 40.886 79.8531 41.0243 79.8598 41.1876C80.0098 44.2576 79.9848 46.8426 77.8448 48.7976C77.8142 48.8279 77.7947 48.8676 77.7896 48.9103C77.7845 48.9531 77.794 48.9963 77.8167 49.0329C77.8394 49.0695 77.8738 49.0973 77.9143 49.1118C77.9548 49.1263 77.9991 49.1266 78.0398 49.1126C81.2931 47.8493 83.5165 45.5843 84.7098 42.3176ZM78.2748 47.2158C78.2734 46.835 78.1106 46.4585 77.7955 46.1077C77.4805 45.757 77.0194 45.4389 76.4385 45.1716C75.8577 44.9043 75.1685 44.6931 74.4103 44.55C73.6521 44.4069 72.8398 44.3348 72.0197 44.3376C71.1996 44.3405 70.3878 44.4183 69.6306 44.5667C68.8735 44.7151 68.1858 44.9311 67.6068 45.2024C67.0278 45.4737 66.569 45.795 66.2564 46.148C65.9437 46.5009 65.7835 46.8786 65.7849 47.2594C65.7862 47.6403 65.949 48.0168 66.2641 48.3675C66.5792 48.7183 67.0403 49.0364 67.6211 49.3036C68.2019 49.5709 68.8911 49.7821 69.6493 49.9252C70.4075 50.0683 71.2198 50.1405 72.0399 50.1376C72.86 50.1348 73.6718 50.0569 74.429 49.9085C75.1862 49.7602 75.8739 49.5441 76.4528 49.2728C77.0318 49.0015 77.4907 48.6802 77.8033 48.3273C78.1159 47.9743 78.2761 47.5967 78.2748 47.2158ZM88.0898 48.1876C89.4498 46.0326 85.8098 44.8226 84.5048 44.5376C84.3315 44.4976 84.1948 44.5493 84.0948 44.6926C82.7081 46.6526 80.9448 48.171 78.8048 49.2476C78.7863 49.2557 78.7709 49.2693 78.7606 49.2866C78.7504 49.3039 78.7458 49.3241 78.7474 49.3446C78.749 49.3651 78.7568 49.3849 78.7697 49.4015C78.7826 49.4181 78.8001 49.4307 78.8198 49.4376C81.0298 50.1276 86.6098 50.5326 88.0898 48.1876Z" fill="#255703"/>
<path d="M74.1847 40.4878C74.1531 40.4669 74.128 40.4371 74.1121 40.4018C74.0963 40.3665 74.0902 40.3271 74.0947 40.2878C74.248 38.8045 74.8964 37.6128 76.0397 36.7128C76.1153 36.6545 76.2023 36.6124 76.2952 36.5892C76.3881 36.566 76.485 36.5621 76.5797 36.5778C80.0897 37.1528 79.7097 44.2128 79.0647 46.6928C79.0529 46.7385 79.0264 46.7791 78.9892 46.8083C78.952 46.8374 78.9063 46.8535 78.8591 46.8541C78.8119 46.8546 78.7658 46.8397 78.7279 46.8114C78.6901 46.7832 78.6626 46.7433 78.6497 46.6978C77.9297 44.0812 76.4414 42.0112 74.1847 40.4878Z" fill="#C0FF00"/>
<path d="M77.5997 45.5478C75.3747 43.8478 72.6197 43.8228 69.9247 44.0978C69.758 44.1144 69.6264 44.0578 69.5297 43.9278C67.9397 41.8428 67.7447 38.1028 71.6997 39.6328C74.423 40.6828 76.4914 42.5678 77.9047 45.2878C77.9269 45.329 77.9343 45.3767 77.9256 45.4227C77.917 45.4688 77.8928 45.5105 77.8571 45.5409C77.8215 45.5713 77.7765 45.5885 77.7296 45.5898C77.6828 45.5911 77.6369 45.5762 77.5997 45.5478Z" fill="#C0FF00"/>
<path d="M80.0246 40.7728C81.5846 39.3078 86.1046 38.5078 84.7096 42.3178C83.5163 45.5845 81.293 47.8495 78.0396 49.1128C77.9989 49.1267 77.9547 49.1265 77.9141 49.112C77.8736 49.0975 77.8392 49.0697 77.8165 49.0331C77.7939 48.9965 77.7843 48.9533 77.7894 48.9105C77.7945 48.8678 77.814 48.828 77.8446 48.7978C79.9846 46.8428 80.0096 44.2578 79.8596 41.1878C79.853 41.0245 79.908 40.8861 80.0246 40.7728Z" fill="#C0FF00"/>
<path d="M72.0401 50.1378C75.4891 50.1257 78.2805 48.8176 78.2749 47.216C78.2693 45.6144 75.4688 44.3258 72.0199 44.3378C68.5709 44.3499 65.7794 45.658 65.785 47.2596C65.7906 48.8612 68.5911 50.1498 72.0401 50.1378Z" fill="#C0FF00"/>
<path d="M84.5048 44.5377C85.8098 44.8227 89.4498 46.0327 88.0898 48.1878C86.6098 50.5328 81.0298 50.1278 78.8198 49.4378C78.8001 49.4308 78.7826 49.4182 78.7697 49.4016C78.7568 49.385 78.749 49.3652 78.7474 49.3447C78.7458 49.3242 78.7504 49.304 78.7606 49.2867C78.7709 49.2694 78.7863 49.2558 78.8048 49.2478C80.9448 48.1711 82.7081 46.6527 84.0948 44.6927C84.1948 44.5494 84.3315 44.4977 84.5048 44.5377Z" fill="#C0FF00"/>
<path d="M49.3599 50.2777C49.4199 50.281 49.4499 50.311 49.4499 50.3677C49.4299 52.8177 49.9649 59.0677 48.6199 60.9727C46.5899 63.8327 41.3 63.6177 39.69 60.6777C38.48 58.4627 39.035 53.4177 39.01 50.4977C39.0066 50.321 39.0933 50.2327 39.27 50.2327H41.01C41.19 50.2327 41.2783 50.321 41.2749 50.4977C41.2549 52.5527 40.7 59.0127 42.23 60.3327C43.3999 61.3427 45.5299 61.3027 46.5049 59.9927C47.6699 58.4127 47.3099 52.5427 47.2049 50.5327C47.1949 50.3127 47.3016 50.206 47.5249 50.2127L49.3599 50.2777Z" fill="white"/>
<path d="M54.4795 50.2378H52.5695C52.4729 50.2378 52.3945 50.3161 52.3945 50.4128V62.5528C52.3945 62.6494 52.4729 62.7278 52.5695 62.7278H54.4795C54.5762 62.7278 54.6545 62.6494 54.6545 62.5528V50.4128C54.6545 50.3161 54.5762 50.2378 54.4795 50.2378Z" fill="white"/>
<path d="M63.7648 52.4127V62.5627C63.7648 62.6078 63.7468 62.651 63.715 62.6829C63.6831 62.7148 63.6398 62.7327 63.5948 62.7327H61.6598C61.6147 62.7327 61.5714 62.7148 61.5396 62.6829C61.5077 62.651 61.4898 62.6078 61.4898 62.5627L61.5248 52.2377C61.5248 52.2149 61.5202 52.1924 61.5114 52.1714C61.5025 52.1505 61.4895 52.1315 61.4732 52.1157C61.4569 52.0998 61.4376 52.0874 61.4164 52.0791C61.3951 52.0709 61.3725 52.067 61.3498 52.0677L57.5748 52.1727C57.552 52.1733 57.5294 52.1694 57.5082 52.1612C57.487 52.1529 57.4676 52.1405 57.4513 52.1247C57.435 52.1088 57.422 52.0899 57.4132 52.0689C57.4043 52.0479 57.3998 52.0254 57.3998 52.0027L57.3848 50.4027C57.3848 50.3576 57.4027 50.3143 57.4346 50.2825C57.4664 50.2506 57.5097 50.2327 57.5548 50.2327H67.5948C67.6398 50.2327 67.6831 50.2506 67.715 50.2825C67.7468 50.3143 67.7648 50.3576 67.7648 50.4027V52.0327C67.7648 52.0778 67.7468 52.121 67.715 52.1529C67.6831 52.1848 67.6398 52.2027 67.5948 52.2027L63.9348 52.2427C63.8897 52.2427 63.8464 52.2606 63.8146 52.2925C63.7827 52.3243 63.7648 52.3676 63.7648 52.4127Z" fill="white"/>
<path d="M13.605 55.7328H22.775C22.9817 55.7328 23.11 55.6345 23.16 55.4378C25.645 45.8278 39.825 51.1978 35.015 60.1978C34.9083 60.3945 34.965 60.5178 35.185 60.5678L37.395 61.0578C37.5583 61.0945 37.64 61.1962 37.64 61.3628V62.8928C37.64 63.1228 37.525 63.2395 37.295 63.2428C35.945 63.2495 34.6983 62.9111 33.555 62.2278C33.395 62.1312 33.2333 62.1262 33.07 62.2128C28.98 64.3478 24.245 62.8278 23.175 58.0378C23.125 57.8178 22.9883 57.7095 22.765 57.7128L13.675 57.7828C13.485 57.7861 13.39 57.8828 13.39 58.0728V60.5928C13.39 60.6355 13.3985 60.6778 13.4151 60.7172C13.4317 60.7566 13.456 60.7924 13.4867 60.8226C13.5173 60.8528 13.5537 60.8767 13.5937 60.8931C13.6337 60.9094 13.6767 60.9178 13.72 60.9178L21.125 60.8378C21.385 60.8345 21.515 60.9628 21.515 61.2228V62.5478C21.515 62.7545 21.41 62.8578 21.2 62.8578H11.27C11.1067 62.8578 11.0233 62.7762 11.02 62.6128L11 50.8628C11 50.6895 11.0867 50.6028 11.26 50.6028L21.21 50.6228C21.4133 50.6228 21.515 50.7245 21.515 50.9278V52.2928C21.515 52.5028 21.4117 52.6078 21.205 52.6078H13.65C13.49 52.6078 13.4083 52.6878 13.405 52.8478L13.36 55.4828C13.3567 55.6495 13.4383 55.7328 13.605 55.7328ZM33.3 58.4828C35.15 53.1728 28.31 50.1528 25.58 55.2728C25.5623 55.3066 25.5532 55.3442 25.5533 55.3823C25.5534 55.4203 25.5628 55.4576 25.5807 55.4909C25.5985 55.5241 25.6242 55.5522 25.6555 55.5726C25.6868 55.593 25.7227 55.6051 25.76 55.6078C28.46 55.8711 30.8433 56.8645 32.91 58.5878C32.9402 58.6136 32.9763 58.6316 33.0151 58.6404C33.0539 58.6491 33.0942 58.6483 33.1326 58.6379C33.171 58.6276 33.2063 58.6081 33.2354 58.5811C33.2646 58.554 33.2868 58.5203 33.3 58.4828ZM31.15 60.0878C29.5933 58.9611 27.8616 58.2545 25.955 57.9678C25.9002 57.9589 25.8441 57.9656 25.793 57.9871C25.7418 58.0087 25.6978 58.0442 25.666 58.0896C25.6341 58.135 25.6158 58.1885 25.6129 58.2439C25.6101 58.2993 25.6229 58.3544 25.65 58.4028C26.8333 60.5528 28.63 61.3062 31.04 60.6628C31.48 60.5462 31.5166 60.3545 31.15 60.0878Z" fill="white"/>
<path d="M84.8396 50.5676L79.0647 56.4326C78.948 56.5526 78.8897 56.696 78.8897 56.8626V62.4226C78.8897 62.6293 78.7847 62.7326 78.5747 62.7326H76.8697C76.6897 62.7326 76.6013 62.6426 76.6047 62.4626L76.6547 56.9026C76.658 56.726 76.5963 56.5743 76.4697 56.4476L70.7847 50.7376L73.9547 50.6226L77.6147 54.2726C77.7313 54.3893 77.848 54.3893 77.9647 54.2726L81.2697 50.8926L84.8396 50.5676Z" fill="white"/>
<path d="M25.5799 55.2728C28.3099 50.1528 35.1499 53.1728 33.2999 58.4828C33.2867 58.5203 33.2646 58.554 33.2354 58.581C33.2062 58.608 33.1709 58.6275 33.1326 58.6379C33.0942 58.6482 33.0538 58.6491 33.015 58.6403C32.9763 58.6316 32.9402 58.6135 32.9099 58.5878C30.8433 56.8644 28.4599 55.8711 25.7599 55.6078C25.7227 55.605 25.6868 55.5929 25.6555 55.5725C25.6242 55.5521 25.5985 55.524 25.5806 55.4908C25.5627 55.4576 25.5533 55.4203 25.5532 55.3822C25.5531 55.3441 25.5623 55.3065 25.5799 55.2728Z" fill="#C0FF00"/>
<path d="M31.1497 60.0877C31.5164 60.3544 31.4797 60.546 31.0397 60.6627C28.6297 61.306 26.8331 60.5527 25.6497 58.4027C25.6227 58.3543 25.6099 58.2992 25.6127 58.2438C25.6155 58.1884 25.6339 58.1349 25.6658 58.0895C25.6976 58.0441 25.7416 58.0086 25.7927 57.987C25.8438 57.9655 25.9 57.9588 25.9547 57.9677C27.8614 58.2544 29.5931 58.961 31.1497 60.0877Z" fill="#C0FF00"/>
</svg>
