<svg width="100" height="100" viewBox="0 0 100 100" fill="none" xmlns="http://www.w3.org/2000/svg">
<rect width="100" height="100" fill="#C7EEFF"/>
<mask id="mask0_59_780" style="mask-type:alpha" maskUnits="userSpaceOnUse" x="10" y="14" width="82" height="73">
<path d="M71.9694 14.9677L78.9092 27.165C79.0908 27.4841 78.8603 27.8803 78.4932 27.8803H39.2891C38.2869 27.8803 37.3572 28.4028 36.8361 29.259L28.562 42.8521C25.9321 47.1726 25.9587 52.6058 28.6309 56.9004L36.8323 70.0813C37.3565 70.9237 38.2784 71.4359 39.2707 71.4359H60.4103V56.5983H49.3426C48.3392 56.5983 47.4085 56.0746 46.8878 55.2169L44.5326 51.3377C43.9926 50.4484 43.9759 49.3366 44.4888 48.4315L46.9015 44.1739C47.4114 43.2741 48.3657 42.7179 49.4 42.7179H86.2581C87.2924 42.7179 88.2468 43.2741 88.7567 44.1739L91.1693 48.4315C91.6822 49.3366 91.6655 50.4484 91.1255 51.3377L88.7703 55.2169C88.2496 56.0746 87.3189 56.5983 86.3156 56.5983H75.0085V81.7265C75.0085 84.1056 73.0799 86.0342 70.7008 86.0342H34.2217C31.1714 86.0342 28.3485 84.4212 26.7996 81.7934L12.0016 56.6866C9.53155 52.4959 9.52626 47.2959 11.9877 43.1002L26.563 18.2559C28.1097 15.6195 30.9375 14 33.994 14H70.3054C70.9937 14 71.629 14.3695 71.9694 14.9677Z" fill="#D9D9D9"/>
</mask>
<g mask="url(#mask0_59_780)">
<path d="M82.6668 27.8804H21.4019L25.4702 12.5642H72.6155L82.6668 27.8804Z" fill="url(#paint0_linear_59_780)"/>
<path d="M51.5557 14.0122C51.3539 13.9965 51.1239 13.9953 50.8697 14.0122H30.2694C27.466 14.3317 26.3241 16.2758 22.7966 22.0123L9.43604 47.467V53.2852L23.795 78.7398C27.3225 84.4763 29.1284 86.4204 31.9318 86.7399H50.8697C51.1239 86.7568 51.3539 86.7556 51.5557 86.7399H50.8697C48.5109 86.583 45.7454 84.2643 42.4617 78.1367C38.8241 71.3488 30.9745 59.3769 27.8634 54.2051V46.0684C30.9745 40.8966 37.1489 28.8002 40.7865 22.0123C44.0702 15.8848 48.5109 14.1692 50.8697 14.0122H51.5557Z" fill="url(#paint1_linear_59_780)"/>
<path d="M29.5383 87.7095L17.0938 69.0428C20.4026 70.6184 24.0211 71.436 27.6858 71.436H80.752L76.6836 87.7095H29.5383Z" fill="url(#paint2_linear_59_780)"/>
<path d="M43.8975 39.8462H92.2393V90.1026H60.4103V61.8633H43.8975V39.8462Z" fill="url(#paint3_linear_59_780)"/>
</g>
<defs>
<linearGradient id="paint0_linear_59_780" x1="23.5557" y1="20.2223" x2="79.5557" y2="20.2223" gradientUnits="userSpaceOnUse">
<stop offset="0.468758" stop-color="#0B5E96"/>
<stop offset="1" stop-color="#27A3D9"/>
</linearGradient>
<linearGradient id="paint1_linear_59_780" x1="30.4959" y1="14" x2="30.4959" y2="86.7521" gradientUnits="userSpaceOnUse">
<stop stop-color="#25AAE2"/>
<stop offset="0.505208" stop-color="#2092CE"/>
<stop offset="0.791667" stop-color="#075C95"/>
</linearGradient>
<linearGradient id="paint2_linear_59_780" x1="78.5981" y1="79.5727" x2="22.5981" y2="79.5727" gradientUnits="userSpaceOnUse">
<stop offset="0.468758" stop-color="#0B5E96"/>
<stop offset="1" stop-color="#27A3D9"/>
</linearGradient>
<linearGradient id="paint3_linear_59_780" x1="68.0684" y1="90.1026" x2="68.0684" y2="36.3169" gradientUnits="userSpaceOnUse">
<stop offset="0.0477386" stop-color="#0C578A"/>
<stop offset="0.44461" stop-color="#187EB5"/>
<stop offset="1" stop-color="#27A3D9"/>
</linearGradient>
</defs>
</svg>
