<svg width="100" height="100" viewBox="0 0 100 100" fill="none" xmlns="http://www.w3.org/2000/svg">
<rect width="100" height="100" fill="#E0E7FF"/>
<path d="M54.527 44.0435L52.522 41.971C59.2345 39.651 66.342 38.511 73.387 39.1985C80.332 39.8735 87.5994 43.221 88.2794 51.131C88.282 51.1535 88.2766 51.1761 88.2643 51.1951C88.2519 51.214 88.2334 51.2281 88.2119 51.2348C88.1903 51.2416 88.1671 51.2407 88.1461 51.2323C88.1251 51.2238 88.1078 51.2084 88.0969 51.1885C81.6945 40.421 64.672 41.626 54.527 44.0435Z" fill="#E82428"/>
<path d="M52.5221 41.971L54.5271 44.0435C54.6754 44.1618 54.7312 44.3252 54.6946 44.5335C54.6779 44.6252 54.6321 44.6993 54.5571 44.756L53.0296 45.8985C52.9579 45.9523 52.8682 45.9764 52.7793 45.9657C52.6903 45.955 52.6089 45.9103 52.5521 45.841L51.6646 44.761C50.0646 42.9035 46.5746 43.4085 47.1921 46.2935C47.4554 47.1335 47.8454 47.7327 48.3621 48.091C50.3071 49.441 51.9304 50.7535 53.2321 52.0285C56.4821 55.2085 55.0421 60.336 50.6521 61.281C47.0946 62.046 44.9446 60.011 43.2771 57.181C43.2337 57.106 43.2487 57.046 43.3221 57.001L45.2271 55.831C45.248 55.8182 45.2715 55.8101 45.2959 55.8071C45.3202 55.8041 45.3449 55.8064 45.3684 55.8137C45.3918 55.821 45.4134 55.8333 45.4317 55.8496C45.45 55.866 45.4646 55.8861 45.4746 55.9085C46.1721 57.501 47.6171 59.0535 49.4771 58.9585C51.7621 58.8435 53.1596 56.4335 51.7646 54.431C49.8346 51.6635 46.1096 50.616 44.7321 47.3435L44.4996 45.2435C44.5779 45.0135 44.6529 44.751 44.7246 44.456C45.4096 41.646 48.8321 40.4185 51.3621 41.4635C51.7971 41.6435 52.1837 41.8127 52.5221 41.971Z" fill="#2F368E"/>
<path d="M30.3943 54.896C30.4018 54.896 30.4091 54.8975 30.416 54.9004C30.4228 54.9034 30.429 54.9076 30.4341 54.913C30.4393 54.9184 30.4433 54.9248 30.4459 54.9317C30.4485 54.9387 30.4497 54.9461 30.4493 54.9535L30.3268 57.451C30.3218 57.5444 30.2885 57.626 30.2268 57.696C27.9752 60.231 25.2727 61.4719 22.1194 61.4185C14.6819 61.291 9.53186 53.221 13.2244 46.5785C18.0169 37.9585 30.1868 40.0685 32.3593 49.5035C32.3843 49.6152 32.3393 49.6719 32.2243 49.6735L29.6493 49.706C29.571 49.7077 29.5218 49.671 29.5018 49.596C27.6643 42.8235 18.2719 41.796 15.4969 48.3985C12.3444 55.8935 21.5819 62.0485 27.4893 56.536C27.9568 56.0985 28.3193 55.536 28.7068 54.9935C28.7361 54.9513 28.7754 54.917 28.8212 54.8939C28.8671 54.8707 28.918 54.8594 28.9693 54.861L30.3943 54.896Z" fill="#2F368E"/>
<path d="M38.3192 48.6261L38.3217 50.6361L38.2517 61.3386C38.2517 61.3698 38.239 61.3997 38.2165 61.4217C38.194 61.4437 38.1635 61.4561 38.1317 61.4561L35.9967 61.4236C35.8933 61.4219 35.8417 61.3694 35.8417 61.2661L35.8167 52.1536L35.8292 50.4261L35.8767 43.9211C35.8783 43.6744 35.7558 43.5519 35.5092 43.5536L30.6142 43.5711C30.5058 43.5711 30.4517 43.5169 30.4517 43.4086V41.2461C30.4517 41.1628 30.4933 41.1211 30.5767 41.1211H43.6392C43.7225 41.1211 43.7642 41.1628 43.7642 41.2461V43.3611C43.7642 43.4091 43.7453 43.4551 43.7116 43.4893C43.6779 43.5234 43.6321 43.5429 43.5842 43.5436L38.4692 43.5936C38.3775 43.5953 38.3317 43.6411 38.3317 43.7311L38.3192 48.6261Z" fill="#2F368E"/>
<path d="M51.6645 44.761L47.192 46.2935C46.5745 43.4085 50.0645 42.9035 51.6645 44.761Z" fill="#E82428"/>
<path d="M44.4993 45.2437L44.7318 47.3437L38.3218 50.6362L38.3193 48.6262C40.3077 47.3912 42.3677 46.2637 44.4993 45.2437Z" fill="#E82428"/>
<path d="M35.8292 50.426L35.8167 52.1535L33.5317 53.8485C33.5123 53.8622 33.4895 53.8703 33.4659 53.872C33.4422 53.8737 33.4185 53.8689 33.3974 53.8581C33.3763 53.8472 33.3585 53.8308 33.346 53.8107C33.3336 53.7905 33.3269 53.7673 33.3267 53.7435L33.3292 52.3335C33.3291 52.2662 33.356 52.2007 33.4042 52.151C34.0892 51.4727 34.8975 50.8977 35.8292 50.426Z" fill="#E82428"/>
<path d="M30.4967 54.5111L24.0217 54.5761C23.9675 54.5768 23.9152 54.5562 23.8759 54.5189C23.8367 54.4815 23.8136 54.4303 23.8117 54.3761L23.7492 52.3986C23.7482 52.3707 23.7528 52.3429 23.7627 52.3169C23.7727 52.2908 23.7878 52.2671 23.8072 52.247C23.8266 52.2269 23.8498 52.211 23.8755 52.2001C23.9012 52.1892 23.9288 52.1836 23.9567 52.1836H32.8842C32.9388 52.1836 32.9912 52.2051 33.03 52.2435C33.0688 52.2819 33.091 52.334 33.0917 52.3886L33.1567 61.2236C33.157 61.2511 33.1519 61.2783 33.1416 61.3038C33.1313 61.3292 33.1161 61.3524 33.0968 61.3719C33.0775 61.3915 33.0545 61.407 33.0291 61.4176C33.0038 61.4282 32.9766 61.4336 32.9492 61.4336H30.9067C30.8516 61.4336 30.7988 61.4117 30.7599 61.3728C30.721 61.3339 30.6992 61.2811 30.6992 61.2261L30.7067 54.7186C30.7067 54.6911 30.7012 54.6639 30.6906 54.6386C30.68 54.6133 30.6645 54.5903 30.645 54.571C30.6255 54.5517 30.6023 54.5364 30.5768 54.5262C30.5514 54.5159 30.5241 54.5108 30.4967 54.5111Z" fill="#E82428"/>
</svg>
