<svg width="100" height="100" viewBox="0 0 100 100" fill="none" xmlns="http://www.w3.org/2000/svg">
<rect width="100" height="100" fill="#32810B"/>
<path d="M69.5532 70.9863C66.5438 73.6255 63.4689 76.3037 59.9423 77.8731C55.1829 79.9897 49.7291 81.3802 44.5109 81.3377C39.0448 81.2916 33.4829 80.0801 28.6279 77.517C18.1915 72.0048 16.2856 60.9503 19.7431 50.4909C19.7464 50.4837 19.7466 50.4756 19.7438 50.4684C19.741 50.4612 19.7354 50.4554 19.7281 50.4522C19.7209 50.4491 19.7125 50.4487 19.7047 50.4513C19.697 50.4539 19.6904 50.4592 19.6865 50.4661L17.1323 54.726C17.1224 54.7402 17.1079 54.7504 17.0912 54.7548C17.0745 54.7593 17.0568 54.7576 17.0412 54.7501C17.0257 54.7427 17.0133 54.7299 17.0063 54.7141C16.9992 54.6983 16.9981 54.6806 17.003 54.664C17.4263 53.5092 17.9028 52.4181 18.5245 51.2827C20.2816 48.0767 21.8882 45.3767 23.3442 43.1826C24.1678 41.9445 25.4484 40.7471 26.3659 39.4311C26.9245 38.6293 27.5025 37.8422 28.1 37.07C28.1591 36.9932 28.1449 36.9755 28.0575 37.0168C26.7025 37.6651 25.2359 39.3549 24.1519 40.4761C24.1344 40.4934 24.1113 40.504 24.0866 40.5059C24.062 40.5078 24.0375 40.5009 24.0177 40.4865C23.9979 40.4721 23.9841 40.4511 23.9788 40.4274C23.9735 40.4037 23.9771 40.3789 23.9889 40.3575C25.5264 37.4703 27.9158 35.7362 30.6135 34.0074C31.113 33.6886 31.58 33.332 32.0146 32.9376C33.7126 31.3954 35.5075 29.9742 37.3992 28.6741C37.4583 28.634 37.4589 28.5932 37.401 28.5519L36.9794 28.2597C36.9204 28.2183 36.8643 28.2213 36.8112 28.2685C35.0257 29.8591 33.1482 31.4798 31.113 32.741C29.5897 33.6833 28.6934 34.2731 27.5244 35.1287C27.5076 35.1408 27.4871 35.1469 27.4664 35.1458C27.4457 35.1446 27.426 35.1364 27.4107 35.1225C27.3953 35.1086 27.3852 35.0898 27.382 35.0693C27.3788 35.0488 27.3828 35.0279 27.3933 35.01L28.3321 33.4211C28.3628 33.3692 28.348 33.3426 28.2878 33.3414C28.0469 33.3397 27.9442 33.6886 27.7529 33.7329C27.6265 33.7624 27.6029 33.7317 27.682 33.6408C35.0629 25.0058 46.1493 19.5822 56.8319 16.3602C59.8147 15.4586 63.0066 14.6864 66.14 14.9556C66.1525 14.9567 66.1646 14.9603 66.1756 14.9663C66.1866 14.9722 66.1963 14.9805 66.2041 14.9904C66.2119 15.0004 66.2176 15.0118 66.2209 15.0241C66.2242 15.0364 66.225 15.0493 66.2232 15.0619C66.2209 15.0843 66.2197 15.105 66.2197 15.1239C66.2209 15.1558 66.2061 15.1758 66.1754 15.1841C63.0225 16.0568 59.8224 17.1142 56.5751 18.3565C55.373 18.8158 54.371 19.522 53.5692 20.4749C53.5255 20.5269 53.5356 20.541 53.5993 20.5174C57.7701 18.9977 62.0058 17.694 66.3065 16.6064C66.7493 16.4948 67.7359 16.0786 68.4728 16.0113C68.9286 15.9688 69.2515 15.9263 69.4416 15.8838C72.8803 15.1091 76.3278 14.4821 79.7841 14.0027C79.8027 13.9975 79.8225 13.9999 79.8393 14.0094C79.8561 14.0188 79.8684 14.0346 79.8736 14.0531C79.8787 14.0717 79.8763 14.0915 79.8669 14.1083C79.8574 14.1251 79.8417 14.1374 79.8231 14.1426C73.1206 17.0563 66.5421 20.0746 60.1389 23.5498C60.035 23.6065 60.0403 23.6213 60.1548 23.5941L67.5357 21.814C67.5481 21.8101 67.5613 21.8111 67.5726 21.8169C67.5839 21.8227 67.5925 21.8328 67.5966 21.8451C67.6007 21.8573 67.6 21.8709 67.5946 21.8829C67.5892 21.8949 67.5795 21.9045 67.5676 21.9096C67.3498 22.0124 67.1089 22.1434 66.8698 22.2054C65.6316 22.5225 62.9729 23.2186 62.0412 24.0476C61.4266 24.5931 61.6091 25.7126 60.7748 25.9198C60.7611 25.9231 60.7483 25.9294 60.7373 25.9384C60.7264 25.9473 60.7175 25.9586 60.7114 25.9715C60.7053 25.9844 60.7021 25.9985 60.7021 26.0128C60.702 26.0271 60.705 26.0413 60.711 26.0544C61.0263 26.7541 59.9972 27.0782 59.6128 27.2854C59.5877 27.2992 59.5687 27.322 59.5597 27.3492L59.4056 27.8399C59.3902 27.8906 59.3566 27.9231 59.3046 27.9373C54.8056 29.1465 50.4943 30.9673 46.3708 33.3999C37.169 38.8288 30.2628 48.1404 30.369 59.0975C30.3832 60.5075 30.702 62.0703 31.3255 63.7861C33.5609 69.9466 38.7808 73.0233 45.0866 73.661C48.3174 73.9869 51.3622 73.8977 54.2211 73.3935C56.271 73.0322 58.5335 72.2841 61.0086 71.1493C66.6962 68.5402 71.3599 62.6312 73.9779 57.1084C74.8068 55.3584 73.7458 54.0724 71.8825 54.9032C69.3141 56.0486 66.7446 57.1946 64.1739 58.3412C60.9572 59.7777 57.8734 61.99 55.0146 64.0483C55.0108 64.0513 55.0059 64.0528 55.001 64.0525C54.9961 64.0521 54.9916 64.0499 54.9882 64.0464C54.9849 64.0428 54.983 64.0381 54.9829 64.0332C54.9829 64.0283 54.9847 64.0235 54.988 64.0199L57.1295 61.4781C57.2334 61.3565 57.2116 61.3264 57.064 61.3878C56.7345 61.5248 56.3861 61.6777 56.0189 61.8466C55.4326 62.114 54.8428 62.7269 54.2653 62.9058C52.9558 63.3132 51.3049 63.9054 49.3128 64.6824C48.6451 64.941 48.2182 64.5442 48.3776 63.8764C48.5618 63.1042 49.2225 63.028 49.7132 62.718C57.1348 58.0188 64.7655 53.2063 72.7238 49.476C75.448 48.1989 77.9526 47.7082 80.8008 48.9092C83.479 50.0392 83.1708 54.7438 82.6483 57.0128C81.8671 60.3888 80.3332 63.779 78.7143 66.8309C75.82 72.2865 71.1846 77.7934 65.9575 81.1552C65.9497 81.1614 65.9398 81.1643 65.9299 81.1634C65.92 81.1625 65.9108 81.1578 65.9042 81.1503C65.8976 81.1428 65.8942 81.1331 65.8945 81.1231C65.8949 81.1132 65.8991 81.1038 65.9062 81.0968L67.9095 78.8579C67.9161 78.8513 67.9201 78.8425 67.9205 78.8331C67.9209 78.8238 67.9178 78.8146 67.9118 78.8074C67.9057 78.8003 67.8972 78.7957 67.8879 78.7945C67.8786 78.7934 67.8693 78.7958 67.8617 78.8012C67.0557 79.3202 66.2941 79.8073 65.5838 80.4928C63.9105 82.1035 62.1552 83.6073 60.3178 85.0042C60.3121 85.0081 60.3052 85.0099 60.2984 85.0093C60.2915 85.0087 60.285 85.0058 60.2801 85.001C60.2751 84.9963 60.2719 84.9899 60.271 84.9831C60.2702 84.9763 60.2717 84.9693 60.2753 84.9635C61.2176 83.5181 62.19 82.0964 63.1926 80.6982C64.0463 79.5062 64.6114 78.1795 65.4882 77.0211C66.9477 75.0927 68.3151 73.0912 69.5904 71.0165C69.5948 71.0118 69.597 71.0058 69.5966 70.9997C69.5962 70.9936 69.5932 70.9879 69.5883 70.9839C69.5833 70.9799 69.5769 70.9779 69.5703 70.9784C69.5637 70.9788 69.5576 70.9817 69.5532 70.9863Z" fill="white"/>
</svg>
