<svg width="100" height="100" viewBox="0 0 100 100" fill="none" xmlns="http://www.w3.org/2000/svg">
<rect width="100" height="100" fill="#FFF3EC"/>
<g clip-path="url(#clip0_59_785)">
<path d="M11 55.1574V54.5099C13.57 48.0099 16.3975 41.5633 19.4825 35.1699C20.73 32.5899 22.0575 29.8324 23.7725 27.5299C23.9842 27.2466 24.1258 27.1066 24.1975 27.1099C24.6725 27.1299 24.8567 27.3724 24.75 27.8374C24.035 30.9324 23.1442 33.9366 22.0775 36.8499C20.4392 41.3249 18.7167 45.7741 16.91 50.1974C16.9035 50.2141 16.9024 50.2326 16.9071 50.25C16.9117 50.2674 16.9217 50.2828 16.9356 50.2939C16.9495 50.305 16.9665 50.311 16.984 50.3112C17.0015 50.3114 17.0185 50.3057 17.0325 50.2949C18.5475 49.1799 23.99 44.6349 25.365 48.0899C26.005 49.7024 25.025 50.5649 24.62 52.0124C23.2025 57.0899 22.1925 62.0799 21.0525 67.1224C20.6992 68.6858 20.2742 70.2183 19.7775 71.7199C19.767 71.7537 19.7458 71.7831 19.7171 71.8037C19.6884 71.8243 19.6538 71.835 19.6184 71.8342C19.5831 71.8333 19.549 71.821 19.5213 71.799C19.4936 71.777 19.4739 71.7466 19.465 71.7124C19.395 71.4674 19.3567 71.1833 19.35 70.8599C19.2325 65.0299 20.04 58.9424 20.9375 53.1899C20.9393 53.177 20.9373 53.1638 20.9317 53.1519C20.9262 53.1401 20.9173 53.1301 20.9062 53.1232C20.8951 53.1163 20.8822 53.1128 20.8691 53.1131C20.856 53.1134 20.8433 53.1175 20.8325 53.1249C19.1958 54.3349 17.5008 55.4774 15.7475 56.5524C13.8725 57.7024 11.3175 58.2599 11 55.1574Z" fill="#ED3237"/>
<path d="M37.775 54.6325C37.7891 54.6487 37.8064 54.6616 37.826 54.6704C37.8455 54.6792 37.8667 54.6836 37.8881 54.6833C37.9095 54.6831 37.9306 54.6782 37.9499 54.669C37.9693 54.6598 37.9864 54.6465 38 54.63C38.9275 53.4925 40.48 53.2675 41.8175 53.625C43.3025 54.02 43.685 55.195 43.7175 56.695C43.7625 58.655 43.7692 60.6167 43.7375 62.58C43.7369 62.6253 43.7181 62.6685 43.6854 62.7004C43.6526 62.7322 43.6085 62.75 43.5625 62.75H40.6C40.5567 62.7493 40.5154 62.7317 40.485 62.7008C40.4546 62.6699 40.4375 62.6283 40.4375 62.585V56.5025C40.4376 56.4384 40.4219 56.3753 40.3919 56.3186C40.362 56.262 40.3186 56.2135 40.2655 56.1775C40.2125 56.1415 40.1515 56.119 40.0878 56.1121C40.024 56.1051 39.9596 56.1138 39.9 56.1375C39.675 56.2275 39.5592 56.4167 39.5525 56.705C39.5092 58.6333 39.4925 60.6042 39.5025 62.6175C39.5029 62.6348 39.4997 62.6519 39.4934 62.668C39.487 62.6841 39.4775 62.6987 39.4653 62.711C39.4532 62.7234 39.4388 62.7332 39.4229 62.7399C39.4069 62.7465 39.3898 62.75 39.3725 62.75H36.5225C36.3409 62.75 36.25 62.6592 36.25 62.4775L36.2475 56.5725C36.2469 56.4601 36.2029 56.3523 36.1246 56.2717C36.0463 56.1911 35.9398 56.1439 35.8275 56.14C35.5259 56.13 35.3725 56.3133 35.3675 56.69C35.3442 58.6683 35.32 60.6492 35.295 62.6325C35.2934 62.7108 35.2534 62.75 35.175 62.75H32.2475C32.2121 62.75 32.177 62.7429 32.1444 62.7291C32.1117 62.7153 32.0822 62.6951 32.0574 62.6697C32.0327 62.6443 32.0134 62.6142 32.0005 62.5812C31.9876 62.5482 31.9815 62.5129 31.9825 62.4775C32.0342 60.5442 32.0634 58.5917 32.07 56.62C32.075 55.1 32.5325 54.13 33.9675 53.6675C35.5092 53.1708 36.7784 53.4925 37.775 54.6325Z" fill="#ED3237"/>
<path d="M50.225 56.2049C49.8567 56.0633 49.5142 56.1249 49.1975 56.3899C49.1714 56.4121 49.1502 56.4395 49.1351 56.4704C49.1201 56.5014 49.1115 56.5353 49.11 56.5699L49.045 58.0724C49.04 58.1791 49.0908 58.2291 49.1975 58.2224L49.8325 58.1774C49.9442 58.1708 50 58.2233 50 58.3349V60.4474C50 60.5458 49.9508 60.5924 49.8525 60.5874L49.26 60.5524C49.1283 60.5441 49.0625 60.6066 49.0625 60.7399V62.6249C49.0625 62.6581 49.0493 62.6899 49.0259 62.7133C49.0024 62.7368 48.9707 62.7499 48.9375 62.7499H45.9625C45.9398 62.7496 45.9175 62.7448 45.8967 62.7359C45.8759 62.7269 45.857 62.7139 45.8413 62.6977C45.8255 62.6814 45.813 62.6622 45.8047 62.6411C45.7963 62.6201 45.7922 62.5976 45.7925 62.5749C45.8142 60.9583 45.8217 59.3266 45.815 57.6799C45.805 55.4999 46.35 54.0449 48.625 53.6224C50.835 53.2124 53.5675 53.5449 53.7825 56.2999C53.8542 57.1966 53.8542 59.3099 53.7825 62.6399C53.7808 62.7133 53.7442 62.7499 53.6725 62.7499H50.6925C50.6547 62.7499 50.6185 62.7349 50.5917 62.7082C50.565 62.6815 50.55 62.6452 50.55 62.6074C50.56 60.6458 50.5633 58.7558 50.56 56.9374C50.56 56.7891 50.5117 56.6041 50.415 56.3824C50.3767 56.2974 50.3133 56.2383 50.225 56.2049Z" fill="#ED3237"/>
<path d="M64.99 60.7225L65.0275 62.515C65.0279 62.5457 65.0221 62.5763 65.0107 62.6048C64.9993 62.6333 64.9824 62.6592 64.961 62.681C64.9397 62.7029 64.9142 62.7202 64.8861 62.7321C64.858 62.7439 64.8279 62.75 64.7975 62.75H61.8875C61.8059 62.75 61.765 62.7092 61.765 62.6275C61.7334 59.7575 61.7292 57.8617 61.7525 56.94C61.8325 53.6925 65.03 53.1175 67.585 53.6625C68.9567 53.9558 69.6767 54.8808 69.745 56.4375C69.835 58.4875 69.85 60.5375 69.79 62.5875C69.7867 62.6958 69.7309 62.75 69.6225 62.75H66.65C66.6104 62.7494 66.5727 62.7333 66.5447 62.7054C66.5167 62.6774 66.5007 62.6396 66.5 62.6C66.5 60.6933 66.4984 58.7975 66.495 56.9125C66.4925 55.9175 65.2875 55.8575 65.0925 56.6675C64.9825 57.1158 64.9575 57.575 65.0175 58.045C65.0309 58.145 65.0884 58.1942 65.19 58.1925L65.7475 58.185C65.8742 58.1833 65.9375 58.2458 65.9375 58.3725V60.4325C65.9376 60.454 65.9332 60.4752 65.9246 60.4949C65.9161 60.5145 65.9035 60.5322 65.8878 60.5468C65.8721 60.5613 65.8535 60.5725 65.8332 60.5795C65.8129 60.5865 65.7914 60.5892 65.77 60.5875L65.17 60.5525C65.1468 60.5508 65.1234 60.5539 65.1015 60.5617C65.0795 60.5695 65.0594 60.5818 65.0425 60.5978C65.0255 60.6138 65.0121 60.6331 65.0031 60.6546C64.9941 60.6761 64.9896 60.6992 64.99 60.7225Z" fill="#ED3237"/>
<path d="M88.5001 56.2724V62.7199L85.5376 62.7399C85.3343 62.7416 85.2343 62.6408 85.2376 62.4374C85.2676 60.6541 85.2643 58.8058 85.2276 56.8924C85.2176 56.3158 84.9401 56.0649 84.3951 56.1399C83.6076 56.2499 83.7026 57.4949 83.7651 58.0399C83.7751 58.1383 83.8301 58.1874 83.9301 58.1874H84.5001C84.6251 58.1874 84.6876 58.2499 84.6876 58.3749V60.4499C84.6876 60.4681 84.684 60.4861 84.6769 60.5028C84.6698 60.5195 84.6594 60.5346 84.6463 60.5472C84.6332 60.5598 84.6178 60.5697 84.6008 60.5761C84.5838 60.5826 84.5658 60.5856 84.5476 60.5849L83.9126 60.5549C83.8043 60.5499 83.7501 60.6024 83.7501 60.7124V62.6249C83.7501 62.6581 83.7369 62.6899 83.7135 62.7133C83.6901 62.7368 83.6583 62.7499 83.6251 62.7499H80.6501C80.6255 62.7496 80.6012 62.7444 80.5785 62.7347C80.5559 62.725 80.5354 62.7109 80.5183 62.6933C80.5011 62.6756 80.4875 62.6548 80.4784 62.6319C80.4693 62.609 80.4648 62.5846 80.4651 62.5599C80.5018 60.9849 80.5143 59.3933 80.5026 57.7849C80.4851 55.6199 80.9001 54.1999 83.1126 53.6899C85.3551 53.1724 88.1901 53.4524 88.5001 56.2724Z" fill="#ED3237"/>
<path d="M29.6104 53.6927L26.6454 53.6875C26.564 53.6874 26.4978 53.7533 26.4977 53.8348L26.4824 62.5997C26.4822 62.6812 26.5482 62.7474 26.6296 62.7475L29.5946 62.7527C29.6761 62.7528 29.7422 62.6869 29.7424 62.6054L29.7577 53.8404C29.7578 53.759 29.6919 53.6928 29.6104 53.6927Z" fill="#ED3237"/>
<path d="M60.3675 60.1175C60.4975 60.1175 60.5625 60.1825 60.5625 60.3125V62.5625C60.5625 62.6592 60.5142 62.7117 60.4175 62.72C58.7475 62.865 56.725 62.435 56.105 60.7575C55.965 60.3775 55.89 59.685 55.88 58.68C55.8617 57.06 55.8634 55.4367 55.885 53.81C55.8867 53.7283 55.9284 53.6875 56.01 53.6875H59C59.0491 53.6875 59.0962 53.707 59.1308 53.7417C59.1655 53.7764 59.185 53.8234 59.185 53.8725C59.1884 55.5425 59.1892 57.225 59.1875 58.92C59.185 59.8625 59.42 60.12 60.3675 60.1175Z" fill="#ED3237"/>
<path d="M75.13 55.4775L76.565 53.72C76.5734 53.7096 76.5841 53.7013 76.5963 53.6956C76.6084 53.69 76.6217 53.6872 76.635 53.6875H79.6825C79.6986 53.688 79.7142 53.6928 79.7276 53.7016C79.7411 53.7103 79.7519 53.7225 79.7589 53.737C79.7658 53.7514 79.7687 53.7675 79.7671 53.7835C79.7656 53.7995 79.7597 53.8147 79.75 53.8275L76.7675 57.67C76.7562 57.6852 76.75 57.7036 76.75 57.7225V62.6625C76.75 62.6857 76.7408 62.708 76.7244 62.7244C76.708 62.7408 76.6857 62.75 76.6625 62.75L73.525 62.745C73.5018 62.745 73.4796 62.7358 73.4632 62.7194C73.4467 62.703 73.4375 62.6807 73.4375 62.6575V57.72C73.4381 57.7002 73.4319 57.6808 73.42 57.665L70.4125 53.83C70.402 53.817 70.3955 53.8013 70.3936 53.7848C70.3918 53.7682 70.3947 53.7514 70.402 53.7364C70.4094 53.7214 70.4209 53.7089 70.4351 53.7002C70.4494 53.6916 70.4658 53.6871 70.4825 53.6875H73.59C73.6036 53.6875 73.617 53.6907 73.6292 53.6968C73.6413 53.7028 73.6519 53.7117 73.66 53.7225L74.9925 55.475C75.0005 55.4856 75.0108 55.4942 75.0226 55.5002C75.0344 55.5062 75.0474 55.5094 75.0607 55.5097C75.0739 55.5099 75.087 55.5071 75.099 55.5016C75.1111 55.496 75.1217 55.4878 75.13 55.4775Z" fill="#ED3237"/>
<path d="M50.4975 66.4825C50.9697 66.4825 51.3525 66.0997 51.3525 65.6275C51.3525 65.1553 50.9697 64.7725 50.4975 64.7725C50.0253 64.7725 49.6425 65.1553 49.6425 65.6275C49.6425 66.0997 50.0253 66.4825 50.4975 66.4825Z" fill="#0093DD"/>
<path d="M56.9375 66.8651C56.8629 66.9001 56.7997 66.9554 56.7555 67.0244C56.7112 67.0935 56.6876 67.1735 56.6875 67.2551V71.4676C56.6875 71.5726 56.635 71.6251 56.53 71.6251H54.9475C54.8458 71.6251 54.7958 71.5742 54.7975 71.4726C54.825 70.1126 54.505 67.2826 55.11 66.1726C56.1275 64.3101 59.1375 64.7126 59.45 66.9076C59.6625 68.4151 58.7075 69.4626 57.155 69.3551C57.0517 69.3467 57 69.2909 57 69.1876V67.8751C57 67.7984 57.0475 67.7209 57.1425 67.6426C57.1725 67.6192 57.2108 67.6184 57.2575 67.6401C57.3449 67.6818 57.435 67.6842 57.5097 67.6469C57.5843 67.6096 57.6378 67.5354 57.6592 67.4394C57.6805 67.3434 57.6682 67.2328 57.6247 67.1303C57.5812 67.0278 57.5098 66.9409 57.425 66.8876C57.2717 66.7926 57.1092 66.7851 56.9375 66.8651Z" fill="#0093DD"/>
<path d="M27.2649 67.6226L28.5224 67.6276C28.5655 67.6276 28.6069 67.6447 28.6373 67.6752C28.6678 67.7057 28.6849 67.747 28.6849 67.7901V68.9626C28.6849 69.0709 28.6308 69.1251 28.5224 69.1251H27.1899C27.1521 69.1252 27.1152 69.1371 27.0847 69.1591C27.0542 69.1811 27.0315 69.2121 27.0199 69.2476C26.9549 69.4359 26.9758 69.5768 27.0824 69.6701C27.1508 69.7301 27.2649 69.7576 27.4249 69.7526C27.8499 69.7359 28.2741 69.7384 28.6974 69.7601C28.7284 69.7614 28.7576 69.7746 28.7791 69.797C28.8005 69.8193 28.8125 69.8491 28.8124 69.8801V71.4401C28.8124 71.5401 28.7624 71.5951 28.6624 71.6051C27.1399 71.7476 25.1649 71.6976 25.1299 69.6226C25.0799 66.5326 24.6874 64.8326 28.6674 65.1501C28.7658 65.1584 28.8141 65.2109 28.8124 65.3076L28.8099 66.8351C28.8099 66.8771 28.7932 66.9174 28.7632 66.9474C28.7333 66.9773 28.6926 66.9944 28.6499 66.9951L27.3574 67.0101C27.2753 67.0104 27.1916 67.0429 27.1249 67.1006C27.0581 67.1582 27.0137 67.2362 27.0015 67.3175C26.9892 67.3987 27.0101 67.4765 27.0595 67.5337C27.1089 67.5909 27.1828 67.6229 27.2649 67.6226Z" fill="#0093DD"/>
<path d="M70.66 71.6275L69.105 71.6225C69.0772 71.6225 69.0504 71.6114 69.0308 71.5917C69.0111 71.5721 69 71.5453 69 71.5175V65.23C69 65.2022 69.0111 65.1754 69.0308 65.1558C69.0504 65.1361 69.0772 65.125 69.105 65.125H70.6625C70.6903 65.125 70.7171 65.1361 70.7367 65.1558C70.7564 65.1754 70.7675 65.2022 70.7675 65.23L70.7425 68.2525C70.7424 68.2764 70.7505 68.2996 70.7654 68.3183C70.7803 68.3369 70.8011 68.35 70.8245 68.3552C70.8478 68.3605 70.8722 68.3576 70.8936 68.3471C70.9151 68.3366 70.9323 68.3191 70.9425 68.2975L71.5875 66.935C71.596 66.917 71.6095 66.9018 71.6263 66.8912C71.6431 66.8806 71.6626 66.875 71.6825 66.875H73.2725C73.2904 66.8752 73.3079 66.8799 73.3234 66.8888C73.3389 66.8976 73.3519 66.9103 73.3611 66.9255C73.3704 66.9408 73.3756 66.9582 73.3763 66.976C73.377 66.9939 73.3731 67.0116 73.365 67.0275L72.5975 68.5575C72.5908 68.571 72.5871 68.5859 72.5867 68.601C72.5863 68.6161 72.5891 68.6311 72.595 68.645L73.8075 71.4775C73.8146 71.4936 73.8176 71.5112 73.8161 71.5288C73.8147 71.5463 73.8088 71.5632 73.7991 71.5779C73.7894 71.5926 73.7761 71.6046 73.7606 71.6128C73.745 71.6211 73.7276 71.6252 73.71 71.625H72C71.9781 71.6252 71.9567 71.6186 71.9388 71.606C71.9209 71.5935 71.9073 71.5756 71.9 71.555L70.95 68.7975C70.9423 68.7734 70.9262 68.7528 70.9045 68.7397C70.8829 68.7265 70.8572 68.7216 70.8323 68.7259C70.8073 68.7301 70.7847 68.7433 70.7687 68.7629C70.7527 68.7825 70.7442 68.8072 70.745 68.8325L70.765 71.5225C70.765 71.5503 70.7539 71.5771 70.7342 71.5967C70.7146 71.6164 70.6878 71.6275 70.66 71.6275Z" fill="#0093DD"/>
<path d="M30.265 67.785C31.2825 66.0575 33.925 66.685 34.0225 68.77C34.0658 69.675 34.0775 70.5858 34.0575 71.5025C34.0558 71.5842 34.0142 71.625 33.9325 71.625H32.5C32.375 71.625 32.3125 71.5625 32.3125 71.4375V68.7925C32.3124 68.7585 32.3051 68.7249 32.2909 68.694C32.2768 68.663 32.2562 68.6354 32.2304 68.6129C32.2046 68.5905 32.1743 68.5737 32.1415 68.5637C32.1087 68.5537 32.0741 68.5508 32.04 68.555L31.84 68.5825C31.7978 68.5885 31.7592 68.6095 31.7312 68.6416C31.7032 68.6738 31.6877 68.7149 31.6875 68.7575V71.375C31.6875 71.4413 31.6611 71.5049 31.6143 71.5518C31.5674 71.5987 31.5038 71.625 31.4375 71.625H30.0725C29.9858 71.625 29.9425 71.5817 29.9425 71.495C29.9325 70.385 29.72 68.7125 30.265 67.785Z" fill="#0093DD"/>
<path d="M37.8525 68.2376C36.07 67.9751 36.6825 70.8101 37.8625 70.0351C37.9542 69.9751 38.035 69.9868 38.105 70.0701L38.905 71.0351C38.9172 71.0501 38.9261 71.0676 38.9311 71.0863C38.9361 71.105 38.9371 71.1245 38.9341 71.1436C38.931 71.1627 38.9239 71.181 38.9133 71.1972C38.9027 71.2134 38.8888 71.2271 38.8725 71.2376C36.8975 72.4976 34.445 70.8351 35.075 68.5726C35.8275 65.8701 39.895 66.3126 39.82 69.3726C39.8167 69.4626 39.77 69.5084 39.68 69.5101L37.35 69.5651C37.3231 69.5658 37.2963 69.5612 37.2711 69.5516C37.246 69.5421 37.223 69.5277 37.2035 69.5094C37.184 69.491 37.1684 69.4691 37.1575 69.4447C37.1466 69.4204 37.1406 69.3942 37.14 69.3676L37.125 68.8551C37.12 68.7434 37.1742 68.6876 37.2875 68.6876H37.82C37.8495 68.6897 37.8792 68.686 37.9073 68.6767C37.9354 68.6673 37.9614 68.6526 37.9839 68.6332C38.0063 68.6138 38.0246 68.5902 38.0379 68.5637C38.0512 68.5372 38.0591 68.5084 38.0612 68.4788C38.0634 68.4493 38.0597 68.4196 38.0503 68.3915C38.041 68.3634 38.0262 68.3374 38.0068 68.315C37.9874 68.2926 37.9638 68.2742 37.9374 68.2609C37.9109 68.2477 37.882 68.2397 37.8525 68.2376Z" fill="#0093DD"/>
<path d="M40.705 71.4701C40.63 69.8826 40.2825 66.3051 43.115 66.8426C43.205 66.8592 43.25 66.9134 43.25 67.0051V68.5051C43.25 68.6034 43.2017 68.6451 43.105 68.6301C42.1825 68.4901 42.4175 70.4726 42.465 71.4626C42.4664 71.4834 42.4634 71.5043 42.4562 71.524C42.4491 71.5436 42.4379 71.5616 42.4233 71.5769C42.4088 71.5921 42.3912 71.6043 42.3718 71.6125C42.3523 71.6208 42.3313 71.6251 42.31 71.6251H40.8675C40.7642 71.6251 40.71 71.5734 40.705 71.4701Z" fill="#0093DD"/>
<path d="M46.42 73.75H45.315C44.9616 73.515 44.8742 72.9908 45.0525 72.1775C45.0692 72.1025 45.1141 72.0766 45.1875 72.1C47.1325 72.725 46.705 70.025 46.665 69.0775C46.6433 68.5658 46.3767 68.3875 45.865 68.5425C45.7847 68.5667 45.7106 68.608 45.6478 68.6636C45.5851 68.7191 45.5351 68.7876 45.5013 68.8644C45.4676 68.9412 45.4509 69.0243 45.4524 69.1081C45.4539 69.192 45.4735 69.2745 45.51 69.35C45.655 69.65 45.9108 69.78 46.2775 69.74C46.2989 69.7379 46.3206 69.7403 46.3411 69.7472C46.3615 69.754 46.3803 69.7652 46.3961 69.7798C46.4119 69.7945 46.4245 69.8123 46.4329 69.8322C46.4413 69.852 46.4454 69.8734 46.445 69.895L46.42 71.105C46.4166 71.215 46.3625 71.2842 46.2575 71.3125C43.3875 72.0925 42.6075 67.455 45.685 66.8275C47.4225 66.4725 48.3025 67.685 48.4375 69.3025C48.5875 71.1075 48.495 73.2075 46.42 73.75Z" fill="#0093DD"/>
<path d="M62.12 68.3574C61.65 68.9949 61.89 70.7699 62.97 70.0374C63.0033 70.0147 63.044 70.0055 63.0839 70.0115C63.1237 70.0175 63.1598 70.0384 63.185 70.0699L63.96 71.0324C64.0083 71.0907 64.0025 71.1432 63.9425 71.1899C62.3875 72.4124 60.1625 71.2799 60.085 69.4099C59.95 66.0449 64.89 65.8299 64.9175 69.3399C64.9178 69.3702 64.9121 69.4002 64.9007 69.4283C64.8892 69.4564 64.8723 69.4818 64.8509 69.5033C64.8294 69.5247 64.804 69.5416 64.7759 69.5531C64.7479 69.5645 64.7178 69.5702 64.6875 69.5699L62.555 69.5449C62.4488 69.5437 62.3467 69.5034 62.2682 69.4318C62.1897 69.3602 62.1404 69.2621 62.1296 69.1564C62.1188 69.0507 62.1472 68.9448 62.2096 68.8587C62.2719 68.7727 62.3637 68.7126 62.4675 68.6899C62.5725 68.6682 62.7308 68.6707 62.9425 68.6974C62.9748 68.702 63.0077 68.6969 63.037 68.6826C63.0663 68.6683 63.0906 68.6455 63.1068 68.6172C63.123 68.5889 63.1303 68.5563 63.1277 68.5238C63.1252 68.4913 63.1129 68.4603 63.0925 68.4349C62.8992 68.1949 62.6408 68.1224 62.3175 68.2174C62.2358 68.2424 62.17 68.2891 62.12 68.3574Z" fill="#0093DD"/>
<path d="M67.9574 68.6225C67.9067 68.6201 67.8561 68.628 67.8085 68.6458C67.761 68.6636 67.7176 68.6909 67.6809 68.7259C67.6442 68.761 67.615 68.8031 67.595 68.8498C67.5751 68.8965 67.5649 68.9467 67.5649 68.9975L67.5624 71.4375C67.5624 71.5625 67.4999 71.625 67.3749 71.625H65.9849C65.8699 71.625 65.8124 71.5675 65.8124 71.4525C65.8024 69.7225 65.2474 66.465 68.2049 66.8275C68.2716 66.8341 68.3049 66.8708 68.3049 66.9375L68.3274 68.4925C68.3291 68.5925 68.2807 68.64 68.1824 68.635L67.9574 68.6225Z" fill="#0093DD"/>
<path d="M76.9301 71.3924C76.9534 71.4674 76.9317 71.5474 76.8651 71.6324C76.8134 71.6941 76.7484 71.7216 76.6701 71.7149C75.1451 71.6083 74.2976 70.9108 74.1276 69.6224C73.8301 67.3674 76.3026 65.9074 78.1001 67.2924C79.1951 68.1374 78.9601 69.9099 78.9276 71.4574C78.9242 71.5691 78.8667 71.6249 78.7551 71.6249H77.3751C77.3282 71.625 77.2831 71.6067 77.2495 71.574C77.2159 71.5413 77.1964 71.4968 77.1951 71.4499C77.1784 70.7416 77.1767 70.0524 77.1901 69.3824C77.1951 69.0491 77.0976 68.8208 76.8976 68.6974C76.7625 68.6131 76.6022 68.5784 76.4444 68.5994C76.2865 68.6204 76.1409 68.6957 76.0326 68.8124C75.5701 69.3074 76.0251 70.1299 76.7501 69.9099C76.8384 69.8833 76.8876 69.9158 76.8976 70.0074C76.9509 70.4341 76.9584 70.8641 76.9201 71.2974C76.9167 71.3308 76.9201 71.3624 76.9301 71.3924Z" fill="#0093DD"/>
<path d="M84.1101 67.6726C85.3826 66.0276 88.1651 66.7626 88.3576 68.8901C88.3909 69.2501 88.3926 70.1059 88.3626 71.4576C88.3609 71.5709 88.3042 71.6267 88.1926 71.6251L86.7876 71.6226C86.7445 71.6226 86.7031 71.6054 86.6727 71.575C86.6422 71.5445 86.6251 71.5032 86.6251 71.4601V69.2701C86.6249 69.1467 86.5889 69.0262 86.5213 68.9236C86.4538 68.8209 86.3577 68.7406 86.2451 68.6926C85.1451 68.2226 84.8201 70.1251 86.2376 69.9351C86.2577 69.9325 86.2782 69.9343 86.2975 69.9404C86.3169 69.9464 86.3346 69.9567 86.3494 69.9703C86.3642 69.9839 86.3758 70.0006 86.3833 70.0192C86.3907 70.0377 86.3939 70.0577 86.3926 70.0776L86.3176 71.4826C86.3126 71.5859 86.2592 71.6426 86.1576 71.6526C83.8801 71.9001 82.7926 69.3726 84.1101 67.6726Z" fill="#0093DD"/>
<path d="M51.2408 66.8736L49.7508 66.8762C49.6791 66.8764 49.621 66.9347 49.6211 67.0065L49.6289 71.4965C49.629 71.5683 49.6873 71.6264 49.7591 71.6262L51.2491 71.6236C51.3209 71.6235 51.379 71.5652 51.3789 71.4934L51.3711 67.0034C51.3709 66.9316 51.3126 66.8735 51.2408 66.8736Z" fill="#0093DD"/>
<path d="M80.575 69.1974C80.4825 67.6674 81.3025 66.8625 82.82 66.93C82.8854 66.9332 82.9471 66.9614 82.9923 67.0089C83.0374 67.0564 83.0626 67.1194 83.0625 67.185V68.6274C83.0625 68.7041 83.0258 68.7541 82.9525 68.7775L82.5875 68.8925C82.4908 68.9241 82.435 68.99 82.42 69.09C82.19 70.64 81.6975 71.9325 79.775 71.6575C79.7167 71.6491 79.6875 71.6158 79.6875 71.5574V69.93C79.6876 69.9122 79.6916 69.8948 79.6991 69.8787C79.7066 69.8627 79.7175 69.8485 79.7311 69.8371C79.7446 69.8257 79.7605 69.8174 79.7776 69.8127C79.7946 69.808 79.8125 69.8071 79.83 69.81C80.205 69.875 80.4508 69.6958 80.5675 69.2724C80.5741 69.2476 80.5767 69.2222 80.575 69.1974Z" fill="#0093DD"/>
</g>
<defs>
<clipPath id="clip0_59_785">
<rect width="77.5" height="46.75" fill="white" transform="translate(11 27)"/>
</clipPath>
</defs>
</svg>
