<svg width="100" height="100" viewBox="0 0 100 100" fill="none" xmlns="http://www.w3.org/2000/svg">
<rect width="100" height="100" fill="#AB7728"/>
<path d="M67.9021 36.418C67.8501 36.462 67.7671 36.496 67.6531 36.52C67.6251 36.526 67.6212 36.54 67.6412 36.562C67.6632 36.584 67.6871 36.606 67.7131 36.628C67.7871 36.69 67.8261 36.77 67.8301 36.868C67.8461 37.322 68.0201 37.669 68.3521 37.909C69.8802 39.013 70.9872 39.846 71.6732 40.408C71.6952 40.426 71.6972 40.446 71.6792 40.468C71.6592 40.492 71.6502 40.515 71.6522 40.537C71.6562 40.561 71.6782 40.582 71.7182 40.6C72.2372 40.828 72.5282 41.323 72.8462 41.596C74.6102 43.114 76.2692 44.584 77.9012 46.279C78.9032 47.317 80.1072 48.048 81.5132 48.472C82.7592 52.138 82.8702 55.966 81.8462 59.956C80.4582 65.37 77.3242 69.346 72.4442 71.884C72.2142 71.768 72.1852 71.593 72.3572 71.359C72.4212 71.271 72.4062 71.202 72.3122 71.152C71.6282 70.777 71.4512 70.072 71.1122 69.652C70.1582 68.47 69.0592 67.431 67.8152 66.535C67.7551 66.491 67.7612 66.46 67.8331 66.442C67.8652 66.434 67.9001 66.432 67.9381 66.436C68.0161 66.444 68.0312 66.416 67.9832 66.352C67.5091 65.74 67.3161 65.159 67.4041 64.609C72.8522 62.338 75.7262 56.974 73.7252 51.415C71.1962 44.383 61.7761 42.028 56.6761 47.782L55.9531 48.535C55.8851 48.605 55.8291 48.597 55.7851 48.511C55.4991 47.951 55.0651 47.556 54.4831 47.326C54.3851 47.288 54.3221 47.218 54.2941 47.116C53.8141 45.412 52.3441 44.77 51.0241 43.627C49.9441 42.691 49.3411 41.566 48.5491 40.39C47.8471 39.349 46.5661 38.329 45.4021 39.547L45.3871 34.261C45.3851 33.995 45.2511 33.862 44.9851 33.862C42.7051 33.864 40.3451 33.852 37.9051 33.826C36.6091 33.81 35.9491 33.155 35.9251 31.861C35.8931 30.117 35.9111 28.766 35.9791 27.808C36.0811 26.434 37.0141 26.059 38.3041 26.059C45.4701 26.059 52.6361 26.059 59.8021 26.059C60.9271 26.059 62.7211 25.894 62.9941 27.46C63.3201 29.338 63.2701 31.201 62.8441 33.049C62.8221 33.149 62.7721 33.233 62.6941 33.301C61.5751 34.27 57.0601 33.838 53.9161 33.883C53.8101 33.883 53.7571 33.936 53.7571 34.042L53.7151 41.443C53.7149 41.4765 53.7249 41.5092 53.7438 41.5369C53.7627 41.5646 53.7895 41.5859 53.8208 41.5979C53.852 41.61 53.8862 41.6122 53.9188 41.6044C53.9514 41.5965 53.9808 41.5789 54.0031 41.554C57.5221 37.756 62.7091 35.653 67.9021 36.418Z" fill="#FFDD4F"/>
<path d="M45.4021 39.547C46.5661 38.329 47.8471 39.349 48.5491 40.39C49.3411 41.566 49.9441 42.691 51.0241 43.627C52.3441 44.77 53.8141 45.412 54.2941 47.116C54.3221 47.218 54.3851 47.288 54.4831 47.326C55.0651 47.556 55.4991 47.951 55.7851 48.511C55.8291 48.597 55.8851 48.605 55.9531 48.535L56.6761 47.782C62.7781 46.501 67.7971 50.605 68.7811 56.377C69.2431 59.091 68.7841 61.835 67.4041 64.609C67.3161 65.159 67.5091 65.74 67.9832 66.352C68.0312 66.416 68.0161 66.444 67.9381 66.436C67.9001 66.432 67.8652 66.434 67.8331 66.442C67.7612 66.46 67.7551 66.491 67.8152 66.535C69.0592 67.431 70.1582 68.47 71.1122 69.652C71.4512 70.072 71.6282 70.777 72.3122 71.152C72.4062 71.202 72.4212 71.271 72.3572 71.359C72.1852 71.593 72.2142 71.768 72.4442 71.884C65.8261 74.893 58.5811 73.225 53.8921 67.921C53.8772 67.905 53.8577 67.8938 53.8363 67.8888C53.8149 67.8838 53.7926 67.8854 53.7723 67.8932C53.7521 67.901 53.7349 67.9148 53.7231 67.9326C53.7113 67.9504 53.7053 67.9715 53.7061 67.993L53.7871 71.458C53.7881 71.4944 53.7784 71.5303 53.7592 71.5612C53.74 71.5921 53.7122 71.6167 53.6791 71.632C53.5411 71.694 53.3741 71.695 53.1781 71.635C52.8881 71.547 52.7101 71.452 52.6441 71.35C52.6304 71.328 52.622 71.303 52.6197 71.2772C52.6175 71.2514 52.6214 71.2255 52.6311 71.2016C52.6408 71.1778 52.656 71.1568 52.6755 71.1403C52.695 71.1238 52.7182 71.1124 52.7431 71.107C52.8951 71.073 52.9371 70.98 52.8691 70.828C52.8311 70.74 52.8511 70.668 52.9291 70.612C53.1931 70.42 53.2991 70.171 53.2471 69.865C53.242 69.8363 53.2296 69.8095 53.211 69.7871C53.1924 69.7648 53.1683 69.7476 53.1411 69.7373C53.1139 69.727 53.0845 69.724 53.0557 69.7285C53.027 69.733 52.9999 69.7449 52.9771 69.763L52.6771 69.997C52.6351 70.031 52.5941 70.03 52.5541 69.994L51.8671 69.382C51.8471 69.364 51.8511 69.353 51.8791 69.349L51.9811 69.334C52.0531 69.324 52.0641 69.293 52.0141 69.241C51.0901 68.299 50.2521 67.286 49.5001 66.202C48.9151 65.362 48.1261 64.774 47.5291 63.997C46.8431 63.103 46.0541 62.302 45.1621 61.594C45.117 61.5587 45.0818 61.5111 45.0601 61.456L44.7841 60.796C44.7787 60.7835 44.7694 60.7731 44.7575 60.7663C44.7457 60.7596 44.732 60.7568 44.7185 60.7585C44.705 60.7602 44.6924 60.7662 44.6826 60.7757C44.6728 60.7852 44.6663 60.7975 44.6641 60.811L44.6521 60.922C44.6401 61.004 44.6081 61.012 44.5561 60.946C44.3161 60.646 44.1441 60.275 44.0401 59.833C44.7301 58.606 45.9691 55.33 44.9911 54.064C43.0951 51.607 39.0241 52.258 36.9211 53.968L36.9331 53.773C36.9331 53.759 36.8571 53.748 36.7051 53.74C36.6651 53.738 36.6351 53.752 36.6151 53.782C36.6095 53.7889 36.6021 53.7942 36.5937 53.7972C36.5853 53.8002 36.5762 53.8008 36.5675 53.799C36.5588 53.7971 36.5508 53.7928 36.5443 53.7866C36.5379 53.7805 36.5333 53.7726 36.5311 53.764C36.3751 53.012 35.9321 52.529 35.2021 52.315C35.1061 52.287 35.0241 52.236 34.9561 52.162C34.6021 51.784 34.1191 51.397 33.5071 51.001C33.3291 50.887 33.2601 50.69 33.3001 50.41C35.9911 47.674 38.6731 47.401 42.3241 47.743C42.5001 47.759 42.5221 47.709 42.3901 47.593C38.4001 44.055 34.0731 43.601 29.4091 46.231C29.2611 45.547 28.8791 44.788 28.2631 43.954C27.6091 43.07 26.8121 42.36 25.8721 41.824C25.1791 41.425 24.9151 40.969 24.6841 40.258C24.6441 40.138 24.5621 40.068 24.4381 40.048L23.8141 39.949C23.7685 39.942 23.7268 39.9197 23.6961 39.8857C23.6654 39.8518 23.6477 39.8083 23.6461 39.763L23.6401 39.625C26.2601 37.565 29.1221 36.454 32.2261 36.292C37.3921 36.019 41.3581 38.002 45.0811 41.404C45.1082 41.4293 45.1421 41.4461 45.1787 41.4522C45.2153 41.4584 45.2528 41.4537 45.2867 41.4386C45.3206 41.4236 45.3494 41.3989 45.3693 41.3677C45.3893 41.3365 45.3997 41.3 45.3991 41.263L45.4021 39.547ZM63.7021 60.64C65.7031 54.922 59.5471 50.203 54.4651 53.68C53.9071 54.062 53.6541 54.582 53.7061 55.24C54.0121 59.19 55.8821 62.122 59.3161 64.036C60.9091 64.924 63.3301 61.702 63.7021 60.64Z" fill="#FFDD4F"/>
<path d="M67.9021 36.418C74.5742 37.462 79.3742 42.172 81.5132 48.472C80.1072 48.048 78.9032 47.317 77.9012 46.279C76.2692 44.584 74.6102 43.114 72.8462 41.596C72.5282 41.323 72.2372 40.828 71.7182 40.6C71.6782 40.582 71.6562 40.561 71.6522 40.537C71.6502 40.515 71.6592 40.492 71.6792 40.468C71.6972 40.446 71.6952 40.426 71.6732 40.408C70.9872 39.846 69.8802 39.013 68.3521 37.909C68.0201 37.669 67.8461 37.322 67.8301 36.868C67.8261 36.77 67.7871 36.69 67.7131 36.628C67.6871 36.606 67.6632 36.584 67.6412 36.562C67.6212 36.54 67.6251 36.526 67.6531 36.52C67.7671 36.496 67.8501 36.462 67.9021 36.418Z" fill="#FFDD4F"/>
<path d="M23.6461 39.763L23.6401 39.625C16.5061 45.382 14.5681 55.483 18.4981 63.571C23.6041 74.089 36.7951 77.107 45.0991 68.011C45.1791 67.925 45.2561 67.927 45.3301 68.017C45.4161 68.117 45.4351 68.216 45.3871 68.314C45.3631 68.364 45.3511 68.417 45.3511 68.473L45.3481 71.461C45.3481 71.5119 45.3687 71.5607 45.4053 71.5967C45.4418 71.6328 45.4914 71.653 45.5431 71.653L53.1781 71.635C52.8881 71.547 52.7101 71.452 52.6441 71.35C52.6304 71.328 52.622 71.303 52.6197 71.2772C52.6175 71.2514 52.6214 71.2255 52.6311 71.2016C52.6408 71.1778 52.656 71.1568 52.6755 71.1403C52.695 71.1238 52.7182 71.1124 52.7431 71.107C52.8951 71.073 52.9371 70.98 52.8691 70.828C52.8311 70.74 52.8511 70.668 52.9291 70.612C53.1931 70.42 53.2991 70.171 53.2471 69.865C53.242 69.8363 53.2296 69.8095 53.211 69.7871C53.1924 69.7648 53.1683 69.7476 53.1411 69.7373C53.1139 69.727 53.0845 69.724 53.0557 69.7285C53.027 69.733 52.9999 69.7449 52.9771 69.763L52.6771 69.997C52.6351 70.031 52.5941 70.03 52.5541 69.994L51.8671 69.382C51.8471 69.364 51.8511 69.353 51.8791 69.349L51.9811 69.334C52.0531 69.324 52.0641 69.293 52.0141 69.241C51.0901 68.299 50.2521 67.286 49.5001 66.202C49.1815 65.7445 48.8024 65.3617 48.4267 64.9824C48.1126 64.6654 47.8009 64.3508 47.5291 63.997C46.8431 63.103 46.0541 62.302 45.1621 61.594C45.117 61.5587 45.0818 61.5111 45.0601 61.456L44.7841 60.796C44.7787 60.7835 44.7694 60.7731 44.7575 60.7663C44.7457 60.7596 44.732 60.7568 44.7185 60.7585C44.705 60.7602 44.6924 60.7662 44.6826 60.7757C44.6728 60.7852 44.6663 60.7975 44.6641 60.811L44.6521 60.922C44.6401 61.004 44.6081 61.012 44.5561 60.946C44.3161 60.646 44.1441 60.275 44.0401 59.833C42.7501 62.033 41.0281 63.547 38.8741 64.375C34.7371 62.089 33.4111 57.316 36.9211 53.968L36.9331 53.773C36.9331 53.759 36.8571 53.748 36.7051 53.74C36.6651 53.738 36.6351 53.752 36.6151 53.782C36.6095 53.7889 36.6021 53.7942 36.5937 53.7972C36.5853 53.8002 36.5762 53.8008 36.5675 53.799C36.5588 53.7971 36.5508 53.7928 36.5443 53.7866C36.5379 53.7805 36.5333 53.7726 36.5311 53.764C36.3751 53.012 35.9321 52.529 35.2021 52.315C35.1061 52.287 35.0241 52.236 34.9561 52.162C34.6021 51.784 34.1191 51.397 33.5071 51.001C33.3291 50.887 33.2601 50.69 33.3001 50.41C29.5501 54.256 29.2441 59.785 31.6891 64.537C23.4421 61.432 22.4611 51.388 29.4091 46.231C29.2611 45.547 28.8791 44.788 28.2631 43.954C27.6091 43.07 26.8121 42.36 25.8721 41.824C25.1791 41.425 24.9151 40.969 24.6841 40.258C24.6441 40.138 24.5621 40.068 24.4381 40.048L23.8141 39.949C23.7685 39.942 23.7268 39.9197 23.6961 39.8857C23.6654 39.8518 23.6477 39.8083 23.6461 39.763Z" fill="#FFDD4F"/>
</svg>
