<svg width="100" height="100" viewBox="0 0 100 100" fill="none" xmlns="http://www.w3.org/2000/svg">
<rect width="100" height="100" fill="#113177"/>
<path d="M48.4075 12H52.7451C55.9349 12.2823 59.1602 12.7489 62.2013 13.802C63.9886 14.4218 65.3809 14.9515 66.3783 15.391C72.9455 18.2816 78.8636 23.5303 82.6857 29.5955C82.7285 29.6643 82.7262 29.7217 82.6789 29.7679C82.6712 29.7757 82.6619 29.7817 82.6516 29.7855C82.6414 29.7893 82.6304 29.7909 82.6195 29.7901C82.6086 29.7893 82.598 29.7861 82.5884 29.7808C82.5788 29.7756 82.5705 29.7683 82.5639 29.7595C75.2884 19.8959 64.3109 14.8822 52.0639 15.8474C42.2426 16.6216 33.3104 22.2862 27.6729 30.248C23.7512 35.7858 21.814 42.6455 21.7396 49.4207C21.7385 49.5345 21.681 49.5903 21.5672 49.588C18.4162 49.5193 15.6541 48.5248 13.2808 46.6045C13.0931 46.454 13.0103 46.1278 13.0526 45.8657C13.487 43.1543 13.9079 40.2282 14.7379 37.8532C19.9173 23.0401 32.7357 13.1562 48.4075 12Z" fill="#EFB31E"/>
<path d="M59.7942 35.5357L61.4052 34.7649C61.4303 34.7528 61.4513 34.7335 61.4657 34.7095C61.4801 34.6855 61.4873 34.6578 61.4863 34.6296L61.3274 31.3164C61.3252 31.2737 61.3371 31.232 61.3612 31.1981L67.0681 23.3647C67.0888 23.3366 67.1177 23.3156 67.1508 23.3044C67.1839 23.2932 67.2196 23.2925 67.2531 23.3022C67.2867 23.312 67.3164 23.3318 67.3383 23.359C67.3602 23.3862 67.3733 23.4195 67.3757 23.4543L67.7206 29.0715C67.7296 29.2169 67.8045 29.2727 67.9454 29.2389C69.7699 28.8005 71.6277 28.552 73.5187 28.4934C74.5143 28.4613 75.8041 28.5408 76.9536 28.5205C77.0178 28.5193 77.0392 28.5498 77.0178 28.6118C75.7957 32.1447 73.7841 35.4934 72.0632 38.8134C71.2366 40.4058 70.4624 43.1138 72.1427 44.3191C72.1542 44.3271 72.1634 44.338 72.1694 44.3508C72.1754 44.3635 72.1779 44.3776 72.1767 44.3918C72.1755 44.4059 72.1706 44.4196 72.1626 44.4314C72.1546 44.4433 72.1436 44.4529 72.1308 44.4594C70.8867 45.0578 69.5783 45.5311 68.6334 45.859C60.3909 48.7192 52.5576 50.7021 44.0024 50.8593C38.3812 50.963 32.791 50.6632 27.2318 49.96C27.2179 49.958 27.2048 49.9523 27.1939 49.9433C27.1831 49.9344 27.1749 49.9226 27.1704 49.9093C27.1658 49.896 27.165 49.8816 27.1681 49.8679C27.1712 49.8542 27.1781 49.8416 27.1879 49.8315C28.0737 48.9322 28.9752 48.047 29.8925 47.1759C30.0582 47.0192 30.1174 46.7899 30.07 46.4879C29.8401 45.0172 29.6643 43.5404 29.5426 42.0573C29.5403 42.0302 29.5465 42.0029 29.5604 41.9793C29.5744 41.9557 29.5953 41.9369 29.6204 41.9255L30.1174 41.6939C30.1383 41.6846 30.1556 41.6688 30.1669 41.6487C30.1782 41.6286 30.1827 41.6053 30.1799 41.5823L29.7303 37.8042C29.7268 37.7734 29.7352 37.7424 29.7538 37.7178C29.7724 37.6932 29.7997 37.6769 29.83 37.6724L30.873 37.5169C30.9541 37.5045 31.0003 37.5394 31.0116 37.6217L31.4579 41.016C31.4592 41.0273 31.4632 41.0381 31.4695 41.0475C31.4758 41.0569 31.4844 41.0647 31.4944 41.0703C31.5044 41.0759 31.5156 41.0791 31.5272 41.0797C31.5388 41.0802 31.5503 41.0781 31.561 41.0735L32.5786 40.6272C32.7217 40.5641 32.7848 40.4554 32.7679 40.301L32.32 36.3268C32.3132 36.2682 32.3391 36.235 32.3977 36.2271L33.4424 36.0715C33.5157 36.0603 33.5574 36.0918 33.5675 36.1662L34.0746 39.88C34.0836 39.9443 34.118 39.9634 34.1777 39.9375L39.1053 37.8008C39.1695 37.7727 39.2095 37.793 39.2253 37.8617L39.538 39.2529C39.5473 39.2955 39.5722 39.3332 39.6081 39.3588C39.6439 39.3844 39.6882 39.396 39.7324 39.3915L42.0517 39.1346C42.0773 39.1316 42.1032 39.1371 42.1253 39.1503C42.1473 39.1635 42.1642 39.1835 42.1734 39.2073C42.5047 40.0761 42.8242 41.3879 42.1835 42.1942C42.1674 42.2149 42.1456 42.2302 42.1207 42.2384C42.0958 42.2466 42.0691 42.2472 42.0439 42.2401C42.0187 42.233 41.9962 42.2186 41.9792 42.1987C41.9622 42.1788 41.9516 42.1543 41.9486 42.1283L41.6984 40.0288C41.6916 39.9668 41.6567 39.9392 41.5936 39.946L35.0449 40.7337C35.0167 40.7367 34.9907 40.7505 34.9724 40.7723C34.9541 40.794 34.945 40.822 34.9469 40.8503L35.0973 43.2795C35.1007 43.3291 35.0776 43.3567 35.028 43.3623L32.9116 43.6243C32.853 43.6311 32.813 43.6626 32.7916 43.719C32.1323 45.4381 34.1524 45.4533 35.1632 45.4246C35.401 45.419 35.4568 45.517 35.3306 45.7187L35.121 46.0585C35.0894 46.1081 35.0477 46.147 34.9959 46.1751C34.0718 46.6733 33.1325 47.1381 32.178 47.5697C31.7576 47.7613 31.6123 48.0729 31.7419 48.5045C31.7457 48.5169 31.7522 48.5283 31.7608 48.538C31.7694 48.5477 31.78 48.5554 31.7918 48.5607C31.8036 48.566 31.8165 48.5687 31.8294 48.5686C31.8424 48.5685 31.8552 48.5657 31.8669 48.5603L45.0555 42.4089C45.1164 42.3807 45.1446 42.3334 45.1401 42.2669L44.9406 39.0467C44.9361 38.9802 44.9535 38.9205 44.993 38.8675L50.7269 31.0274C50.7473 30.999 50.776 30.9776 50.8091 30.9663C50.8422 30.9549 50.878 30.9541 50.9115 30.9639C50.9451 30.9737 50.9748 30.9937 50.9965 31.0211C51.0182 31.0486 51.0309 31.082 51.0328 31.1169L51.5366 39.2478C51.5373 39.2609 51.5411 39.2735 51.5479 39.2847C51.5546 39.2958 51.564 39.3051 51.5752 39.3118C51.5864 39.3185 51.599 39.3223 51.6121 39.323C51.6251 39.3236 51.638 39.321 51.6498 39.3155L53.2067 38.5987C53.263 38.5728 53.289 38.5288 53.2845 38.4669L53.0799 35.201C53.0766 35.1441 53.0934 35.0874 53.1272 35.0404L58.8746 27.136C58.8897 27.1151 58.9103 27.0987 58.934 27.0887C58.9578 27.0787 58.9839 27.0754 59.0094 27.0793C59.0349 27.0831 59.0589 27.0939 59.0786 27.1105C59.0984 27.1271 59.1132 27.1488 59.1214 27.1732C59.1293 27.1969 59.1344 27.2251 59.1367 27.2577C59.3406 29.9939 59.5238 32.7319 59.686 35.4715C59.6905 35.5458 59.7266 35.5672 59.7942 35.5357ZM67.1323 24.1288C67.1319 24.1174 67.1277 24.1066 67.1204 24.0979C67.1131 24.0892 67.1032 24.0832 67.0921 24.0809C67.081 24.0786 67.0694 24.08 67.0592 24.085C67.0491 24.09 67.0409 24.0983 67.0359 24.1085L63.8952 30.2126C63.8904 30.2214 63.8883 30.2314 63.8893 30.2414C63.8902 30.2514 63.8941 30.2609 63.9004 30.2687C63.9068 30.2765 63.9153 30.2822 63.9249 30.2852C63.9345 30.2881 63.9447 30.2881 63.9543 30.2853L67.4095 29.3369C67.4205 29.3339 67.4302 29.3272 67.4369 29.318C67.4437 29.3088 67.4471 29.2976 67.4467 29.2862L67.1323 24.1288ZM65.4892 26.0034L61.6503 31.0324C61.6465 31.0374 61.6444 31.0436 61.6445 31.0499C61.6445 31.0562 61.6466 31.0623 61.6504 31.0673C61.6543 31.0723 61.6596 31.0759 61.6657 31.0775C61.6718 31.0792 61.6783 31.0788 61.6841 31.0764L62.7879 30.6217C62.8432 30.5991 62.886 30.5619 62.9164 30.5101L65.5281 26.0288C65.6498 25.8181 65.6369 25.8096 65.4892 26.0034ZM58.7546 27.9998C57.4575 30.5895 56.1384 33.1697 54.7974 35.7402C54.5134 36.2862 54.6926 37.1703 54.7399 37.762C54.7409 37.775 54.745 37.7877 54.7519 37.7988C54.7589 37.8099 54.7684 37.8192 54.7797 37.8259C54.791 37.8325 54.8037 37.8363 54.8168 37.837C54.8299 37.8376 54.8429 37.8351 54.8548 37.8296L59.3294 35.7402C59.3801 35.7166 59.4037 35.6771 59.4004 35.6219L58.9304 27.9204C58.9297 27.9098 58.9268 27.8996 58.9217 27.8903C58.9167 27.8811 58.9097 27.8731 58.9013 27.867C58.8928 27.8608 58.8832 27.8567 58.873 27.8548C58.8629 27.8529 58.8525 27.8534 58.8425 27.8561C58.8121 27.864 58.7913 27.8871 58.78 27.9254C58.7698 27.9626 58.7614 27.9874 58.7546 27.9998ZM64.1444 29.1638C64.1479 29.1576 64.1501 29.1508 64.1509 29.1437C64.1518 29.1367 64.1512 29.1295 64.1493 29.1227C64.1474 29.1158 64.1441 29.1094 64.1397 29.1039C64.1353 29.0983 64.1299 29.0936 64.1237 29.0901L64.1178 29.0868C64.1116 29.0834 64.1048 29.0811 64.0977 29.0803C64.0906 29.0794 64.0835 29.08 64.0767 29.0819C64.0698 29.0838 64.0634 29.0871 64.0578 29.0915C64.0523 29.0959 64.0476 29.1013 64.0441 29.1075L63.3079 30.4195C63.3044 30.4257 63.3022 30.4325 63.3013 30.4396C63.3005 30.4467 63.301 30.4538 63.303 30.4606C63.3049 30.4675 63.3081 30.4739 63.3125 30.4795C63.3169 30.485 63.3224 30.4897 63.3286 30.4932L63.3345 30.4965C63.3407 30.5 63.3475 30.5022 63.3545 30.503C63.3616 30.5039 63.3687 30.5033 63.3756 30.5014C63.3824 30.4995 63.3888 30.4962 63.3944 30.4918C63.4 30.4874 63.4046 30.482 63.4081 30.4758L64.1444 29.1638ZM56.9273 30.3174L53.6039 34.9187C53.5959 34.9296 53.5913 34.9426 53.5905 34.9561C53.5898 34.9696 53.5931 34.9831 53.5999 34.9948C53.6068 35.0064 53.6169 35.0159 53.629 35.0219C53.6411 35.0279 53.6547 35.0302 53.6682 35.0286L54.2463 34.9745C54.2692 34.9724 54.2913 34.9649 54.3107 34.9526C54.3302 34.9402 54.3463 34.9234 54.3579 34.9035L57.0084 30.3698C57.3465 29.7905 57.3195 29.7731 56.9273 30.3174ZM50.7049 31.7458L46.5245 39.8986C46.5031 39.9415 46.4935 39.9865 46.4958 40.0339L46.5854 41.584C46.5863 41.5955 46.5899 41.6067 46.596 41.6165C46.6021 41.6263 46.6104 41.6345 46.6202 41.6403C46.63 41.6462 46.6411 41.6495 46.6524 41.65C46.6637 41.6505 46.6749 41.6481 46.6851 41.6432L51.1968 39.5284C51.2166 39.5195 51.2333 39.5046 51.2444 39.4855C51.2556 39.4665 51.2608 39.4443 51.2593 39.4219L50.7877 31.7627C50.787 31.7532 50.7832 31.7441 50.7769 31.737C50.7705 31.7298 50.762 31.7249 50.7527 31.723C50.7433 31.7211 50.7336 31.7222 50.725 31.7264C50.7163 31.7305 50.7093 31.7373 50.7049 31.7458ZM56.1835 32.5349C56.1863 32.5298 56.1881 32.5243 56.1887 32.5185C56.1894 32.5128 56.1889 32.507 56.1873 32.5014C56.1857 32.4959 56.183 32.4907 56.1794 32.4862C56.1758 32.4817 56.1713 32.4779 56.1663 32.4751L56.1308 32.4556C56.1257 32.4528 56.1202 32.451 56.1144 32.4503C56.1087 32.4497 56.1029 32.4502 56.0973 32.4518C56.0918 32.4534 56.0866 32.4561 56.0821 32.4597C56.0776 32.4633 56.0738 32.4677 56.071 32.4728L54.5303 35.2639C54.5275 35.2689 54.5257 35.2745 54.5251 35.2802C54.5244 35.2859 54.5249 35.2918 54.5265 35.2973C54.5281 35.3028 54.5308 35.308 54.5344 35.3125C54.538 35.317 54.5425 35.3208 54.5475 35.3236L54.583 35.3432C54.5881 35.346 54.5936 35.3477 54.5994 35.3484C54.6051 35.349 54.6109 35.3485 54.6165 35.3469C54.622 35.3453 54.6272 35.3427 54.6317 35.3391C54.6362 35.3355 54.64 35.331 54.6427 35.326L56.1835 32.5349ZM48.9046 33.9923C47.7619 35.5982 46.613 37.2036 45.4578 38.8083C45.4139 38.8692 45.4297 38.8979 45.5052 38.8945L46.0799 38.8692C46.1054 38.8681 46.1302 38.8607 46.1521 38.8477C46.1739 38.8347 46.1921 38.8165 46.205 38.7948L49.1768 33.7337C49.1801 33.7292 49.179 33.7286 49.1734 33.732C49.0607 33.8132 48.9711 33.8999 48.9046 33.9923ZM47.9966 36.4772C47.9994 36.4721 48.0012 36.4666 48.0018 36.4608C48.0024 36.4551 48.0019 36.4493 48.0002 36.4437C47.9986 36.4382 47.9959 36.433 47.9923 36.4285C47.9886 36.4241 47.9842 36.4203 47.9791 36.4176L47.9464 36.3998C47.9362 36.3942 47.9242 36.3929 47.913 36.3962C47.9018 36.3995 47.8924 36.4071 47.8868 36.4173L46.3979 39.1482C46.3952 39.1532 46.3934 39.1588 46.3928 39.1645C46.3922 39.1703 46.3927 39.1761 46.3943 39.1816C46.396 39.1871 46.3987 39.1923 46.4023 39.1968C46.4059 39.2013 46.4104 39.205 46.4155 39.2078L46.4481 39.2256C46.4584 39.2312 46.4704 39.2325 46.4816 39.2292C46.4928 39.2259 46.5022 39.2183 46.5077 39.208L47.9966 36.4772Z" fill="#EFB31E"/>
<path d="M6 59.3707V59.1138L7.10891 53.1483C7.11039 53.1414 7.11367 53.1349 7.1184 53.1297C7.12313 53.1244 7.12913 53.1205 7.13575 53.1184C7.14237 53.1163 7.14935 53.1161 7.15594 53.1178C7.16254 53.1195 7.16848 53.123 7.17315 53.128C8.58069 54.5401 10.1725 55.6991 11.9486 56.6052C21.3996 61.4246 32.1777 61.4989 42.4689 60.5472C51.4738 59.7156 60.5344 58.2229 69.147 55.4135C73.9545 53.8448 78.5 51.4545 82.9424 48.8783C86.898 46.5844 90.2924 43.5248 93.5515 40.3231C93.5577 40.3187 93.562 40.3119 93.5632 40.3043C93.5645 40.2966 93.5627 40.2888 93.5582 40.2826C93.5537 40.2763 93.5469 40.2721 93.5393 40.2708C93.5317 40.2695 93.5239 40.2713 93.5177 40.2758C91.7681 41.1633 89.9036 42.2958 88.3602 43.0903C84.1128 45.2755 79.8118 47.3491 75.4573 49.3111C74.3957 49.7889 73.3482 50.2008 72.3148 50.5468C62.3065 53.8972 51.8789 56.0637 41.0321 57.0464C38.2035 57.3022 36.038 57.4527 34.5358 57.4977C25.5158 57.7682 14.9659 56.1691 7.67013 50.3777C7.6258 50.3426 7.59206 50.2959 7.57266 50.2428C7.55327 50.1897 7.54897 50.1322 7.56025 50.0768L9.00724 42.7252C9.06472 42.4345 9.09176 42.4407 9.08838 42.7438C9.05457 47.0949 14.5924 50.1816 18.1219 51.3294C23.0292 52.9235 28.3861 53.6047 33.481 53.8025C39.7851 54.0459 46.078 53.8741 52.3595 53.2869C53.6679 53.1641 55.5369 52.8316 57.9666 52.2896C66.5928 50.3642 75.0922 47.4973 83.3684 44.4156C83.3749 44.4132 83.3806 44.4093 83.3852 44.4042C83.3898 44.3991 83.393 44.3929 83.3947 44.3863C83.3963 44.3796 83.3964 44.3727 83.3947 44.366C83.3931 44.3593 83.3899 44.3531 83.3853 44.348L79.942 40.5818C79.9353 40.5743 79.9309 40.565 79.9295 40.5551C79.9281 40.5451 79.9296 40.535 79.934 40.5259C79.9383 40.5169 79.9453 40.5093 79.9539 40.5042C79.9625 40.4991 79.9725 40.4967 79.9825 40.4972C82.9154 40.6426 85.7975 40.6916 88.7828 40.4178C90.5025 40.2589 92.2228 40.1107 93.9436 39.9732C94.0011 39.9687 94.0146 39.9913 93.9842 40.0408C91.3911 44.1959 88.6949 47.7931 85.7232 51.7503C85.5981 51.9182 85.5107 51.9002 85.4612 51.6962L84.9574 49.5934C84.9537 49.5769 84.9461 49.5616 84.9353 49.5487C84.9245 49.5357 84.9108 49.5255 84.8953 49.5189C84.8797 49.5123 84.8629 49.5095 84.8461 49.5107C84.8292 49.5119 84.813 49.517 84.7985 49.5257C83.4067 50.3586 82.0229 51.2207 80.6469 52.1121C77.3015 54.2792 73.8683 55.9189 69.9094 57.78C58.9555 62.9324 47.1818 66.462 35.2052 65.7994C27.071 65.348 18.34 65.8011 10.8718 62.0703C9.55437 61.411 7.93045 60.5112 6 59.3707Z" fill="#EFB31E"/>
<path d="M41.294 40.3047L40.453 40.4184C40.404 40.425 40.3696 40.4702 40.3763 40.5192L40.5448 41.7655C40.5514 41.8146 40.5965 41.8489 40.6456 41.8423L41.4865 41.7286C41.5355 41.722 41.5699 41.6769 41.5633 41.6278L41.3948 40.3815C41.3881 40.3325 41.343 40.2981 41.294 40.3047Z" fill="#EFB31E"/>
<path d="M39.5954 40.5212L38.8093 40.6107C38.7639 40.6159 38.7312 40.657 38.7364 40.7024L38.878 41.9453C38.8832 41.9907 38.9243 42.0234 38.9697 42.0182L39.7557 41.9286C39.8012 41.9235 39.8338 41.8824 39.8287 41.837L39.687 40.5941C39.6819 40.5487 39.6408 40.516 39.5954 40.5212Z" fill="#EFB31E"/>
<path d="M37.8414 40.7482L37.1352 40.8212C37.0851 40.8264 37.0486 40.8712 37.0538 40.9214L37.1786 42.1287C37.1838 42.1788 37.2286 42.2153 37.2788 42.2101L37.985 42.1371C38.0351 42.1319 38.0716 42.0871 38.0664 42.0369L37.9416 40.8296C37.9364 40.7795 37.8916 40.743 37.8414 40.7482Z" fill="#EFB31E"/>
<path d="M36.2541 40.9237L35.4348 40.9838C35.405 40.986 35.3826 41.0119 35.3848 41.0417L35.4816 42.3601C35.4838 42.3899 35.5097 42.4123 35.5395 42.4101L36.3589 42.3499C36.3887 42.3477 36.4111 42.3218 36.4089 42.292L36.3121 40.9736C36.3099 40.9439 36.2839 40.9215 36.2541 40.9237Z" fill="#EFB31E"/>
<path d="M51.3133 87.5109C49.633 87.4534 47.9882 87.3723 46.3384 87.1407C45.5828 87.0325 44.6835 87.0426 44.0344 86.9209C35.4674 85.3083 27.727 80.92 22.0489 74.3578C20.2503 72.2803 18.6495 69.819 17.1991 67.4372C17.1864 67.4171 17.18 67.3937 17.1807 67.37C17.1814 67.3462 17.1891 67.3232 17.2028 67.3038C17.2166 67.2845 17.2358 67.2696 17.258 67.2611C17.2802 67.2527 17.3044 67.251 17.3276 67.2564C20.7636 67.99 24.2402 68.3641 27.7574 68.3788C27.7827 68.3788 27.8076 68.3853 27.8298 68.3978C27.852 68.4102 27.8707 68.4281 27.8842 68.4498C30.1933 72.0571 33.9933 75.5614 37.6277 77.693C38.9789 78.4852 40.3617 79.2166 41.776 79.8871C45.1112 81.4677 48.8402 82.323 52.5033 82.6797C53.4483 82.7727 54.64 82.8115 55.6374 82.7439C57.152 82.6425 58.7477 82.6307 60.1575 82.4143C71.7892 80.6275 81.3772 73.1238 86.0664 62.4894C86.0856 62.4477 86.1177 62.4235 86.1628 62.4167C86.1842 62.4133 86.2045 62.4144 86.2236 62.4201C86.2529 62.4291 86.262 62.4482 86.2507 62.4775C85.9735 63.201 85.6917 63.9223 85.4055 64.6413C84.6533 66.5312 83.6694 68.1269 82.5757 69.9813C82.0742 70.831 81.6071 71.5444 81.1744 72.1214C77.8984 76.4883 73.8746 79.9987 69.1032 82.6526C67.0487 83.7954 65.3031 84.6073 63.8663 85.0885C62.4824 85.5506 60.8438 86.0357 58.9506 86.544C57.228 87.0055 55.5562 87.1052 53.8506 87.4078C53.2544 87.5126 52.4087 87.547 51.3133 87.5109Z" fill="#EFB31E"/>
</svg>
