<svg width="100" height="100" viewBox="0 0 100 100" fill="none" xmlns="http://www.w3.org/2000/svg">
<rect width="100" height="100" fill="#2E2E2E"/>
<path d="M43.19 46.9025L40.1525 43.565C40.1096 43.5169 40.0871 43.4539 40.0899 43.3895C40.0927 43.325 40.1205 43.2642 40.1675 43.22L59.06 25.3625C59.1072 25.3186 59.1696 25.2948 59.234 25.2962C59.2984 25.2976 59.3598 25.3241 59.405 25.37L77.33 43.3025C77.365 43.3366 77.4094 43.3595 77.4574 43.3684C77.5055 43.3773 77.5551 43.3718 77.6 43.3525C77.6449 43.3333 77.6831 43.3012 77.7098 43.2602C77.7365 43.2193 77.7505 43.1714 77.75 43.1225V22.1225C77.75 22.09 77.7436 22.0578 77.7312 22.0278C77.7187 21.9978 77.7005 21.9705 77.6775 21.9475C77.6545 21.9245 77.6272 21.9063 77.5972 21.8938C77.5672 21.8814 77.535 21.875 77.5025 21.875H22.31C22.2444 21.875 22.1814 21.9011 22.135 21.9475C22.0886 21.9939 22.0625 22.0569 22.0625 22.1225V30.815C22.0625 30.8806 22.0364 30.9436 21.99 30.99C21.9436 31.0364 21.8806 31.0625 21.815 31.0625H17.2475C17.1819 31.0625 17.1189 31.0364 17.0725 30.99C17.0261 30.9436 17 30.8806 17 30.815V17.2475C17 17.1819 17.0261 17.1189 17.0725 17.0725C17.1189 17.0261 17.1819 17 17.2475 17H82.565C82.6306 17 82.6936 17.0261 82.74 17.0725C82.7864 17.1189 82.8125 17.1819 82.8125 17.2475V49.0025C82.8125 49.0681 82.7864 49.1311 82.74 49.1775C82.6936 49.2239 82.6306 49.25 82.565 49.25H76.2575C76.224 49.2503 76.1907 49.2439 76.1598 49.231C76.1289 49.2181 76.1009 49.199 76.0775 49.175L59.2925 32.3825C59.2473 32.3366 59.186 32.3101 59.1215 32.3087C59.0571 32.3073 58.9947 32.3311 58.9475 32.375L43.5425 46.9175C43.5185 46.9399 43.4903 46.9573 43.4595 46.9687C43.4287 46.9801 43.3959 46.9852 43.3631 46.9838C43.3303 46.9824 43.2981 46.9745 43.2684 46.9606C43.2387 46.9466 43.212 46.9269 43.19 46.9025Z" fill="#B3B3B3"/>
<path d="M22.6925 77.1874H41.12C41.1876 77.1874 41.2525 77.1606 41.3003 77.1127C41.3481 77.0649 41.375 77.0001 41.375 76.9324V64.3174C41.375 64.2498 41.4019 64.1849 41.4497 64.1371C41.4975 64.0893 41.5624 64.0624 41.63 64.0624H59.12C59.1876 64.0624 59.2525 64.0893 59.3003 64.1371C59.3481 64.1849 59.375 64.2498 59.375 64.3174V76.9324C59.375 77.0001 59.4019 77.0649 59.4497 77.1127C59.4975 77.1606 59.5624 77.1874 59.63 77.1874H77.6825C77.7501 77.1874 77.815 77.1606 77.8628 77.1127C77.9106 77.0649 77.9375 77.0001 77.9375 76.9324V57.5674C77.9375 57.5339 77.9441 57.5008 77.9569 57.4698C77.9697 57.4389 77.9885 57.4108 78.0122 57.3871C78.0359 57.3634 78.064 57.3447 78.0949 57.3318C78.1259 57.319 78.159 57.3124 78.1925 57.3124H82.745C82.7785 57.3124 82.8116 57.319 82.8426 57.3318C82.8735 57.3447 82.9016 57.3634 82.9253 57.3871C82.949 57.4108 82.9678 57.4389 82.9806 57.4698C82.9934 57.5008 83 57.5339 83 57.5674V81.9949C83 82.0626 82.9731 82.1274 82.9253 82.1752C82.8775 82.2231 82.8126 82.2499 82.745 82.2499H17.8175C17.7499 82.2499 17.685 82.2231 17.6372 82.1752C17.5894 82.1274 17.5625 82.0626 17.5625 81.9949V34.9849C17.5623 34.9393 17.5743 34.8945 17.5973 34.8551C17.6203 34.8158 17.6535 34.7833 17.6933 34.7611C17.7331 34.7388 17.7782 34.7277 17.8238 34.7288C17.8694 34.73 17.9138 34.7433 17.9525 34.7674L48.905 53.3599C48.9337 53.3776 48.9585 53.4007 48.9782 53.428C48.9979 53.4553 49.012 53.4862 49.0197 53.519C49.0273 53.5518 49.0284 53.5857 49.0229 53.6189C49.0174 53.6521 49.0054 53.6839 48.9875 53.7124L46.67 57.4999C46.653 57.5292 46.6303 57.5548 46.6033 57.5752C46.5763 57.5956 46.5454 57.6105 46.5126 57.6189C46.4798 57.6272 46.4457 57.629 46.4122 57.624C46.3787 57.6191 46.3465 57.6075 46.3175 57.5899L22.82 43.5574C22.7815 43.5352 22.7378 43.5234 22.6933 43.5233C22.6488 43.5231 22.6051 43.5346 22.5664 43.5566C22.5278 43.5786 22.4955 43.6103 22.4729 43.6486C22.4503 43.6869 22.4381 43.7305 22.4375 43.7749V76.9324C22.4375 76.9659 22.4441 76.9991 22.4569 77.03C22.4697 77.061 22.4885 77.0891 22.5122 77.1127C22.5359 77.1364 22.564 77.1552 22.5949 77.168C22.6259 77.1808 22.659 77.1874 22.6925 77.1874Z" fill="#A48F72"/>
<path d="M58.1093 40.808L54.6593 40.8019C54.3693 40.8014 54.1339 41.0361 54.1334 41.326L54.1169 50.776C54.1164 51.066 54.351 51.3014 54.641 51.3019L58.0909 51.3079C58.3809 51.3085 58.6164 51.0738 58.6169 50.7839L58.6334 41.3339C58.6339 41.0439 58.3992 40.8085 58.1093 40.808Z" fill="#B3B3B3"/>
<path d="M64.1183 40.8273L59.9183 40.8126C59.6284 40.8116 59.3925 41.0458 59.3915 41.3358L59.3585 50.7857C59.3575 51.0757 59.5917 51.3115 59.8817 51.3126L64.0816 51.3272C64.3716 51.3282 64.6074 51.094 64.6085 50.8041L64.6414 41.3541C64.6425 41.0642 64.4082 40.8283 64.1183 40.8273Z" fill="#B3B3B3"/>
</svg>
