<svg width="100" height="100" viewBox="0 0 100 100" fill="none" xmlns="http://www.w3.org/2000/svg">
<rect width="100" height="100" fill="#141313"/>
<path d="M88 45.8547V53.3597C87.7758 58.7595 83.3716 64.3645 77.74 64.3607C59.8724 64.3505 42.001 64.3531 24.1258 64.3683C18.3726 64.3721 14.014 61.6437 12.4142 55.9589C11.7948 53.7511 12.1558 50.8897 12 48.4653V47.4279C12.0861 47.0631 12.1229 46.6869 12.1102 46.2993C11.9658 41.3023 15.4466 36.7879 20.1928 35.4351C21.1757 35.1539 22.7755 35.012 24.9922 35.0095C41.8211 34.9968 58.6513 34.9968 75.4828 35.0095C78.7622 35.0095 81.1942 35.4579 83.592 37.3199C86.3128 39.4327 87.7821 42.2776 88 45.8547ZM86.3242 46.2309C86.3242 44.9743 86.0767 43.7301 85.5958 42.5692C85.115 41.4083 84.4102 40.3535 83.5217 39.465C82.6332 38.5765 81.5784 37.8717 80.4175 37.3908C79.2566 36.91 78.0123 36.6625 76.7558 36.6625H23.2898C20.7521 36.6625 18.3183 37.6706 16.5239 39.465C14.7295 41.2594 13.7214 43.6932 13.7214 46.2309V53.1697C13.7214 55.7074 14.7295 58.1411 16.5239 59.9355C18.3183 61.73 20.7521 62.7381 23.2898 62.7381H76.7558C78.0123 62.7381 79.2566 62.4906 80.4175 62.0097C81.5784 61.5289 82.6332 60.8241 83.5217 59.9355C84.4102 59.047 85.115 57.9922 85.5958 56.8313C86.0767 55.6704 86.3242 54.4262 86.3242 53.1697V46.2309Z" fill="white"/>
<path d="M74.7571 44.1504H71.9831C71.9096 44.1504 71.8501 44.2099 71.8501 44.2834V54.9842C71.8501 55.0576 71.9096 55.1172 71.9831 55.1172H74.7571C74.8305 55.1172 74.8901 55.0576 74.8901 54.9842V44.2834C74.8901 44.2099 74.8305 44.1504 74.7571 44.1504Z" fill="white"/>
<path d="M28.2717 48.718H39.9035C39.9358 48.718 39.9667 48.7051 39.9895 48.6823C40.0123 48.6595 40.0251 48.6286 40.0251 48.5964V44.2796C40.0251 44.2473 40.0379 44.2164 40.0607 44.1936C40.0835 44.1708 40.1145 44.158 40.1467 44.158H42.9435C42.9758 44.158 43.0067 44.1708 43.0295 44.1936C43.0523 44.2164 43.0651 44.2473 43.0651 44.2796V54.9689C43.0651 55.0012 43.0523 55.0321 43.0295 55.0549C43.0067 55.0777 42.9758 55.0905 42.9435 55.0905L40.1467 55.1095C40.1145 55.1095 40.0835 55.0967 40.0607 55.0739C40.0379 55.0511 40.0251 55.0202 40.0251 54.9879V50.0746C40.0251 50.0423 40.0123 50.0114 39.9895 49.9886C39.9667 49.9658 39.9358 49.953 39.9035 49.953H28.2717C28.2395 49.953 28.2085 49.9658 28.1857 49.9886C28.1629 50.0114 28.1501 50.0423 28.1501 50.0746V54.9765C28.1501 55.0081 28.1378 55.0385 28.1158 55.0612C28.0939 55.0839 28.0639 55.0972 28.0323 55.0981L25.2355 55.1665C25.2192 55.1671 25.203 55.1643 25.1878 55.1584C25.1726 55.1525 25.1588 55.1436 25.1471 55.1323C25.1354 55.121 25.1261 55.1074 25.1197 55.0924C25.1134 55.0774 25.1101 55.0612 25.1101 55.0449V44.2796C25.1101 44.2473 25.1229 44.2164 25.1457 44.1936C25.1685 44.1708 25.1995 44.158 25.2317 44.158H28.0285C28.0608 44.158 28.0917 44.1708 28.1145 44.1936C28.1373 44.2164 28.1501 44.2473 28.1501 44.2796V48.5964C28.1501 48.6286 28.1629 48.6595 28.1857 48.6823C28.2085 48.7051 28.2395 48.718 28.2717 48.718Z" fill="white"/>
<path d="M48.1569 44.3063C48.1569 44.2569 48.1765 44.2096 48.2114 44.1747C48.2464 44.1397 48.2937 44.1201 48.3431 44.1201L58.5423 44.1581C60.8189 44.1662 63.0003 44.7196 64.6066 45.6967C66.2129 46.6737 67.1125 47.9943 67.1075 49.3679V49.9379C67.105 50.6181 66.8806 51.2908 66.4469 51.9177C66.0132 52.5446 65.3788 53.1133 64.5799 53.5914C63.781 54.0696 62.8333 54.4477 61.7908 54.7043C60.7484 54.9609 59.6316 55.0909 58.5043 55.0869L48.3051 55.0489C48.2557 55.0489 48.2084 55.0293 48.1734 54.9944C48.1385 54.9594 48.1189 54.9121 48.1189 54.8627L48.1569 44.3063ZM51.2045 45.5261L51.2197 53.7189C51.2197 53.7471 51.2309 53.7742 51.2509 53.7941C51.2708 53.8141 51.2979 53.8253 51.3261 53.8253L58.2003 53.8139C58.9594 53.8125 59.7109 53.7112 60.4118 53.5159C61.1127 53.3205 61.7494 53.0349 62.2854 52.6753C62.8214 52.3157 63.2463 51.8892 63.5358 51.4202C63.8252 50.9512 63.9736 50.4488 63.9725 49.9417V49.2577C63.9702 48.2339 63.3592 47.2532 62.2739 46.5313C61.1886 45.8094 59.7178 45.4055 58.1851 45.4083L51.3109 45.4197C51.2827 45.4197 51.2556 45.4309 51.2357 45.4509C51.2157 45.4708 51.2045 45.4979 51.2045 45.5261Z" fill="white"/>
</svg>
