<svg width="100" height="100" viewBox="0 0 100 100" fill="none" xmlns="http://www.w3.org/2000/svg">
<rect width="100" height="100" fill="#1D115A"/>
<path d="M17.9301 72.7327L14.2416 72.8083C14.1992 72.8097 14.1573 72.7997 14.1202 72.7791C14.0832 72.7585 14.0524 72.7283 14.0313 72.6916C14.0101 72.6549 13.9993 72.6131 14 72.5708C14.0008 72.5284 14.013 72.4871 14.0355 72.4511L48.6263 14.1151C48.6466 14.0807 48.6754 14.052 48.7099 14.0318C48.7444 14.0117 48.7836 14.0007 48.8236 14C48.8636 13.9993 48.903 14.0089 48.9383 14.0279C48.9735 14.0468 49.0032 14.0745 49.0247 14.1083L85.9646 72.3756C85.9867 72.411 85.9989 72.4517 85.9999 72.4935C86.001 72.5352 85.9908 72.5765 85.9704 72.6129C85.9501 72.6494 85.9203 72.6798 85.8843 72.7009C85.8482 72.7219 85.8072 72.7329 85.7654 72.7327L23.48 72.7259C23.4392 72.7253 23.3994 72.7142 23.3643 72.6935C23.3292 72.6727 23.3001 72.6432 23.28 72.6078C23.2599 72.5724 23.2493 72.5323 23.2495 72.4916C23.2496 72.4508 23.2604 72.4108 23.2808 72.3756L27.1822 65.8022C27.2024 65.7671 27.2314 65.7379 27.2664 65.7175C27.3013 65.697 27.3409 65.686 27.3814 65.6854H67.0825C67.1243 65.6856 67.1653 65.6746 67.2014 65.6535C67.2375 65.6325 67.2672 65.6021 67.2876 65.5657C67.3079 65.5292 67.3181 65.4879 67.3171 65.4462C67.316 65.4044 67.3038 65.3637 67.2817 65.3283L52.0057 41.2122C51.9826 41.1751 51.9703 41.1323 51.9703 41.0886C51.9703 41.0449 51.9826 41.002 52.0057 40.9649L54.1556 37.3245C54.1759 37.29 54.2047 37.2614 54.2392 37.2412C54.2738 37.2211 54.3129 37.2101 54.3529 37.2094C54.3929 37.2087 54.4324 37.2183 54.4676 37.2373C54.5028 37.2562 54.5326 37.2839 54.554 37.3176L72.4882 65.5755C72.5093 65.6093 72.5386 65.6371 72.5735 65.6564C72.6084 65.6756 72.6476 65.6856 72.6874 65.6854H77.1933C77.235 65.6856 77.2761 65.6746 77.3121 65.6535C77.3482 65.6325 77.3779 65.6021 77.3983 65.5657C77.4186 65.5292 77.4288 65.4879 77.4278 65.4462C77.4268 65.4044 77.4146 65.3637 77.3924 65.3283L54.4166 29.137C54.3952 29.1033 54.3654 29.0756 54.3302 29.0566C54.295 29.0377 54.2555 29.0281 54.2155 29.0288C54.1755 29.0295 54.1364 29.0404 54.1018 29.0606C54.0673 29.0807 54.0385 29.1094 54.0182 29.1439L49.5398 36.7201C49.5196 36.7545 49.4908 36.7832 49.4562 36.8034C49.4217 36.8235 49.3826 36.8345 49.3426 36.8352C49.3026 36.8359 49.2631 36.8263 49.2279 36.8073C49.1927 36.7884 49.1629 36.7607 49.1415 36.7269L44.3334 29.1301C44.3119 29.0964 44.2822 29.0687 44.2469 29.0498C44.2117 29.0308 44.1722 29.0212 44.1322 29.0219C44.0923 29.0226 44.0531 29.0335 44.0186 29.0537C43.984 29.0739 43.9553 29.1025 43.935 29.137L18.1292 72.6228C18.1082 72.6566 18.0788 72.6844 18.0439 72.7037C18.0091 72.7229 17.9699 72.7329 17.9301 72.7327Z" fill="white"/>
<path d="M44.4227 37.3314L46.8405 41.0542C46.8618 41.0882 46.8731 41.1275 46.8731 41.1676C46.8731 41.2077 46.8618 41.247 46.8405 41.2809L34.9507 61.2895C34.9315 61.3214 34.9043 61.3477 34.8718 61.3657C34.8392 61.3838 34.8025 61.393 34.7653 61.3925H30.1633C30.1259 61.3918 30.0893 61.3814 30.0573 61.3621C30.0252 61.3428 29.9988 61.3154 29.9807 61.2827C29.9626 61.25 29.9534 61.213 29.9541 61.1757C29.9548 61.1383 29.9654 61.1017 29.9847 61.0697L44.0655 37.3383C44.0843 37.3081 44.1103 37.2831 44.1411 37.2656C44.172 37.2481 44.2067 37.2385 44.2422 37.2378C44.2777 37.2371 44.3128 37.2454 44.3444 37.2617C44.3759 37.278 44.4028 37.302 44.4227 37.3314Z" fill="white"/>
<path d="M40.0334 61.1727L49.3955 45.5533C49.4148 45.5235 49.4413 45.499 49.4724 45.4821C49.5036 45.4652 49.5386 45.4563 49.5741 45.4563C49.6095 45.4563 49.6445 45.4652 49.6757 45.4821C49.7068 45.499 49.7333 45.5235 49.7526 45.5533L59.4375 60.9667C59.4568 60.9987 59.4674 61.0352 59.468 61.0726C59.4687 61.11 59.4596 61.1469 59.4415 61.1797C59.4234 61.2124 59.397 61.2398 59.3649 61.2591C59.3329 61.2783 59.2963 61.2888 59.2589 61.2895L40.2189 61.4887C40.1819 61.4885 40.1456 61.4788 40.1136 61.4603C40.0815 61.4419 40.0548 61.4154 40.0361 61.3835C40.0174 61.3517 40.0073 61.3155 40.0069 61.2785C40.0064 61.2415 40.0155 61.2051 40.0334 61.1727Z" fill="white"/>
</svg>
