<svg width="100" height="100" viewBox="0 0 100 100" fill="none" xmlns="http://www.w3.org/2000/svg">
<rect width="100" height="100" fill="#99D6B4"/>
<path d="M69.9231 27H85.0769C85.1187 27 85.1587 27.0166 85.1883 27.0461C85.2178 27.0757 85.2344 27.1157 85.2344 27.1575V71.82C85.2344 71.8618 85.2178 71.9018 85.1883 71.9314C85.1587 71.9609 85.1187 71.9775 85.0769 71.9775L69.9231 72C69.8814 72 69.8413 72.0166 69.8118 72.0461C69.7822 72.0757 69.7656 72.1157 69.7656 72.1575V88.7175C69.7656 88.7382 69.7615 88.7587 69.7536 88.7778C69.7457 88.7969 69.7341 88.8142 69.7195 88.8289C69.7049 88.8435 69.6875 88.8551 69.6684 88.863C69.6493 88.8709 69.6288 88.875 69.6081 88.875H29.3294C29.2876 88.875 29.2475 88.8584 29.218 88.8289C29.1885 88.7993 29.1719 88.7593 29.1719 88.7175V72.15C29.1719 72.1082 29.1553 72.0682 29.1257 72.0386C29.0962 72.0091 29.0561 71.9925 29.0144 71.9925L14.0481 71.985C14.0064 71.985 13.9663 71.9684 13.9368 71.9389C13.9072 71.9093 13.8906 71.8693 13.8906 71.8275V27.1575C13.8906 27.1157 13.9072 27.0757 13.9368 27.0461C13.9663 27.0166 14.0064 27 14.0481 27H29.0144C29.0561 27 29.0962 26.9834 29.1257 26.9539C29.1553 26.9243 29.1719 26.8843 29.1719 26.8425V10.2825C29.1719 10.2407 29.1885 10.2007 29.218 10.1711C29.2475 10.1416 29.2876 10.125 29.3294 10.125H69.6044C69.6461 10.125 69.6862 10.1416 69.7157 10.1711C69.7453 10.2007 69.7619 10.2407 69.7619 10.2825L69.7656 26.8425C69.7656 26.8843 69.7822 26.9243 69.8118 26.9539C69.8413 26.9834 69.8814 27 69.9231 27ZM35.8356 55.2113L37.8981 64.3312C37.9069 64.3712 37.9241 64.4089 37.9486 64.4418C37.9731 64.4746 38.0043 64.5019 38.0401 64.5217C38.0759 64.5416 38.1156 64.5536 38.1564 64.557C38.1972 64.5603 38.2383 64.555 38.2769 64.5412L39.2519 64.1925C39.3194 64.1683 39.3928 64.1697 39.4581 64.1963C41.9294 65.19 44.2094 63.7838 45.7469 62.04C47.5581 59.9963 48.9719 59.0137 51.7281 58.9312C51.8883 58.9257 52.0421 58.8679 52.1655 58.7669C52.2889 58.6658 52.3751 58.5272 52.4106 58.3725C52.9456 56.0575 54.3794 54.7175 56.7119 54.3525C56.8512 54.3304 56.9817 54.2664 57.0869 54.1688C57.8369 53.4638 57.8819 52.4737 58.5344 51.8887C59.2869 51.2112 60.2256 50.96 61.3506 51.135C61.3813 51.1399 61.4128 51.1368 61.4419 51.126C61.4711 51.1151 61.4969 51.0969 61.5169 51.0732C61.5369 51.0494 61.5504 51.0208 61.5561 50.9902C61.5618 50.9597 61.5595 50.9282 61.5494 50.8988C60.9981 49.1888 59.4981 47.1525 58.5269 45.6038C56.4794 42.3413 54.1094 42.4688 50.4531 43.2712C50.4192 43.2788 50.3839 43.2767 50.3511 43.2654C50.3183 43.254 50.2892 43.2338 50.2668 43.2068C50.2445 43.1798 50.2298 43.1472 50.2243 43.1123C50.2188 43.0774 50.2227 43.0416 50.2356 43.0088L50.9781 41.2087C51.0173 41.1123 51.0841 41.0295 51.1702 40.9708C51.2563 40.9122 51.3577 40.8803 51.4619 40.8791C51.566 40.8779 51.6682 40.9074 51.7556 40.9641C51.843 41.0207 51.9117 41.1019 51.9531 41.1975C52.2331 41.84 52.7269 42.18 53.4344 42.2175C53.516 42.221 53.5969 42.2043 53.6696 42.1689C53.7424 42.1335 53.8046 42.0806 53.8506 42.015C54.2706 41.4125 54.8431 41.2625 55.5681 41.565C55.6249 41.5883 55.687 41.5947 55.747 41.5834C55.807 41.5721 55.8621 41.5435 55.9056 41.5012C56.5006 40.9338 57.1894 40.8138 57.9719 41.1413C58.0513 41.1743 58.1373 41.1885 58.2231 41.1828C58.309 41.1771 58.3924 41.1517 58.4668 41.1085C58.5412 41.0653 58.6046 41.0055 58.6521 40.9338C58.6996 40.8621 58.7299 40.7804 58.7406 40.695C58.9431 39.0275 59.6731 37.755 60.9306 36.8775C62.5244 35.7637 63.2331 34.9762 63.7881 33.2325C63.8306 33.1025 63.9131 33.0112 64.0356 32.9587L64.7594 32.64C64.8894 32.585 64.9569 32.4875 64.9619 32.3475C65.2094 27.33 62.2506 22.8638 56.8244 22.9688C55.6581 22.9913 54.6344 23.2837 53.5694 22.6612C51.2969 21.3387 49.0631 21.4312 46.8681 22.9387C42.7731 25.7587 36.1844 34.4663 43.5569 38.0588C43.7819 38.1688 43.8694 38.3463 43.8194 38.5913C43.4894 40.2113 42.4731 41.3625 40.7706 42.045C35.4681 44.1712 27.2069 46.695 27.3381 53.8613C27.4656 60.8288 30.9531 69.7237 34.9619 75.3825C35.0344 75.4825 35.0781 75.595 35.0931 75.72C35.1456 76.1475 35.2819 76.555 35.5019 76.9425C35.5669 77.0575 35.6656 77.12 35.7981 77.13C36.6206 77.19 37.1631 77.2675 37.4256 77.3625C43.8419 79.665 49.2531 77.9362 57.2181 76.4287C57.6494 76.35 58.2044 76.3688 58.5531 75.9713C58.573 75.9485 58.5877 75.9217 58.5963 75.8928C58.6049 75.8638 58.6071 75.8333 58.6028 75.8034C58.5986 75.7735 58.5879 75.7449 58.5715 75.7195C58.5552 75.6941 58.5336 75.6725 58.5081 75.6562C56.9056 74.6513 55.1919 73.925 53.3669 73.4775C50.2656 72.7163 46.9694 73.455 43.9806 72.72C42.3531 72.32 40.7894 71.7125 39.2894 70.8975C39.1794 70.8375 39.1106 70.7462 39.0831 70.6237C38.6606 68.8062 38.2544 66.985 37.8644 65.16C37.7894 64.7963 37.4894 64.4025 37.3731 63.9787C36.6569 61.29 35.4644 58.0013 35.6969 55.2188C35.6996 55.2028 35.7077 55.1883 35.7197 55.1776C35.7318 55.1668 35.7471 55.1605 35.7633 55.1596C35.7794 55.1588 35.7953 55.1634 35.8085 55.1728C35.8216 55.1821 35.8312 55.1957 35.8356 55.2113ZM59.5769 54.2025C58.6194 54.8 57.2569 55.2875 55.4894 55.665C54.8344 55.805 54.4106 56.3187 54.2181 57.2062C53.5756 58.0637 53.3431 59.0025 53.5206 60.0225C53.5431 60.15 53.5019 60.2488 53.3969 60.3188C52.8619 60.6863 52.5719 61.46 52.5269 62.64C52.0669 62.23 51.7444 62.2225 51.5594 62.6175C51.4769 62.79 51.4369 63.0988 51.4394 63.5438C51.4394 63.6688 51.3756 63.725 51.2481 63.7125C50.1494 63.585 50.1644 61.4062 49.6694 60.5175C49.5878 60.3694 49.451 60.2594 49.2887 60.2117C49.1265 60.1639 48.952 60.1822 48.8031 60.2625C47.1756 61.1325 45.5744 63.09 46.0019 65.0325C46.5494 67.5038 52.7894 71.6325 54.9381 72.9825C57.9719 74.8913 63.4356 78.435 67.0056 76.53C70.0094 74.9287 67.4594 66.1237 66.4619 63.7837C66.434 63.7185 66.3925 63.6599 66.34 63.6121C66.2876 63.5643 66.2255 63.5283 66.1579 63.5066C66.0903 63.4849 66.0188 63.478 65.9484 63.4864C65.8779 63.4947 65.81 63.5181 65.7494 63.555L61.4219 66.1913C61.3517 66.2325 61.2986 66.2962 61.2719 66.3712C60.2556 69.0675 63.0006 69.27 64.6244 70.08C64.7444 70.1375 64.8256 70.23 64.8681 70.3575C64.9531 70.62 64.8806 70.82 64.6506 70.9575C64.5381 71.025 64.4456 71.0037 64.3731 70.8937C62.7906 68.4262 56.5544 71.7038 54.0119 66.5737C54.3744 66.5588 54.9081 66.72 55.6131 67.0575C56.6956 67.8375 57.9594 68.2663 59.4044 68.3438C59.5469 68.3537 59.6606 68.3025 59.7456 68.19C60.0231 67.835 59.9731 67.2925 59.5956 66.5625L59.3256 65.3963C59.3043 65.3033 59.3064 65.2065 59.3316 65.1146C59.3569 65.0226 59.4045 64.9384 59.4702 64.8693C59.5359 64.8002 59.6178 64.7485 59.7084 64.7187C59.7989 64.689 59.8955 64.6821 59.9894 64.6987C60.8219 64.8462 61.7194 64.6475 62.6819 64.1025L65.6969 62.865C65.8144 62.815 65.9344 62.8088 66.0569 62.8462C66.4219 62.9487 66.6969 62.7863 66.8819 62.3588C66.9294 62.2538 66.9531 62.1425 66.9531 62.025C66.9569 59.6512 67.1294 57.8325 65.5319 55.6612C64.8269 54.5625 60.1056 51.225 59.5769 54.2025ZM41.9444 65.8838C41.0344 65.6538 40.1394 65.5413 39.2594 65.5463C39.0769 65.5463 38.9994 65.6363 39.0269 65.8163C39.2519 67.2713 39.7056 68.6512 40.3881 69.9562C40.4393 70.0585 40.5222 70.1413 40.6244 70.1925C42.8144 71.3325 45.1406 71.93 47.6031 71.985C48.6869 72.0075 49.3844 72.4988 50.7419 72.0375C51.0244 71.94 51.0419 71.81 50.7944 71.6475C50.6744 71.5675 50.5506 71.5288 50.4231 71.5312C50.3639 71.5324 50.3047 71.5214 50.2493 71.4989C50.1939 71.4763 50.1433 71.4427 50.1006 71.4C48.3569 69.6787 46.1331 67.9912 45.4356 65.5088C45.3981 65.3838 45.3144 65.3288 45.1844 65.3438C44.2619 65.4525 42.8106 66.1012 41.9444 65.8838Z" fill="#019442"/>
<path d="M35.697 55.2189C35.4645 58.0014 36.657 61.2902 37.3732 63.9789C37.4895 64.4027 37.7895 64.7964 37.8645 65.1602C38.2545 66.9852 38.6607 68.8064 39.0832 70.6239C39.1107 70.7464 39.1795 70.8377 39.2895 70.8977C40.7895 71.7127 42.3532 72.3202 43.9807 72.7202C46.9695 73.4552 50.2657 72.7164 53.367 73.4777C55.192 73.9252 56.9057 74.6514 58.5082 75.6564C58.5337 75.6727 58.5553 75.6943 58.5716 75.7197C58.588 75.7451 58.5987 75.7737 58.6029 75.8036C58.6072 75.8335 58.605 75.864 58.5964 75.8929C58.5878 75.9219 58.5731 75.9487 58.5532 75.9714C58.2045 76.3689 57.6495 76.3502 57.2182 76.4289C49.2532 77.9364 43.842 79.6652 37.4257 77.3627C37.1632 77.2677 36.6207 77.1902 35.7982 77.1302C35.6657 77.1202 35.567 77.0577 35.502 76.9427C35.282 76.5552 35.1457 76.1477 35.0932 75.7202C35.0782 75.5952 35.0345 75.4827 34.962 75.3827C30.9532 69.7239 27.4657 60.8289 27.3382 53.8614C27.207 46.6952 35.4682 44.1714 40.7707 42.0452C42.4732 41.3627 43.4895 40.2114 43.8195 38.5914C43.8695 38.3464 43.782 38.1689 43.557 38.0589C36.1845 34.4664 42.7732 25.7589 46.8682 22.9389C49.0632 21.4314 51.297 21.3389 53.5695 22.6614C54.6345 23.2839 55.6582 22.9914 56.8245 22.9689C62.2507 22.8639 65.2095 27.3302 64.962 32.3477C64.957 32.4877 64.8895 32.5852 64.7595 32.6402L64.0357 32.9589C63.9132 33.0114 63.8307 33.1027 63.7882 33.2327C63.2332 34.9764 62.5245 35.7639 60.9307 36.8777C59.6732 37.7552 58.9432 39.0277 58.7407 40.6952C58.73 40.7805 58.6997 40.8622 58.6522 40.934C58.6047 41.0057 58.5413 41.0655 58.4669 41.1087C58.3925 41.1518 58.3091 41.1773 58.2232 41.183C58.1374 41.1886 58.0514 41.1744 57.972 41.1414C57.1895 40.8139 56.5007 40.9339 55.9057 41.5014C55.8622 41.5437 55.8071 41.5722 55.7471 41.5836C55.6871 41.5949 55.625 41.5885 55.5682 41.5652C54.8432 41.2627 54.2707 41.4127 53.8507 42.0152C53.8047 42.0807 53.7425 42.1337 53.6697 42.169C53.597 42.2044 53.5161 42.2212 53.4345 42.2177C52.727 42.1802 52.2332 41.8402 51.9532 41.1977C51.9118 41.1021 51.8431 41.0209 51.7557 40.9643C51.6683 40.9076 51.5661 40.878 51.462 40.8792C51.3578 40.8804 51.2564 40.9124 51.1703 40.971C51.0842 41.0297 51.0174 41.1124 50.9782 41.2089L50.2357 43.0089C50.2228 43.0418 50.2189 43.0776 50.2244 43.1124C50.2299 43.1473 50.2446 43.18 50.2669 43.207C50.2893 43.2339 50.3184 43.2542 50.3512 43.2655C50.384 43.2769 50.4193 43.2789 50.4532 43.2714C54.1095 42.4689 56.4795 42.3414 58.527 45.6039C59.4982 47.1527 60.9982 49.1889 61.5495 50.8989C61.5596 50.9283 61.5619 50.9598 61.5562 50.9904C61.5505 51.021 61.537 51.0495 61.517 51.0733C61.497 51.0971 61.4711 51.1153 61.442 51.1261C61.4129 51.137 61.3814 51.1401 61.3507 51.1352C60.2257 50.9602 59.287 51.2114 58.5345 51.8889C57.882 52.4739 57.837 53.4639 57.087 54.1689C56.9818 54.2666 56.8513 54.3306 56.712 54.3527C54.3795 54.7177 52.9457 56.0577 52.4107 58.3727C52.3752 58.5273 52.289 58.666 52.1656 58.767C52.0422 58.8681 51.8884 58.9259 51.7282 58.9314C48.972 59.0139 47.5582 59.9964 45.747 62.0402C44.2095 63.7839 41.9295 65.1902 39.4582 64.1964C39.3929 64.1698 39.3195 64.1685 39.252 64.1927L38.277 64.5414C38.2384 64.5551 38.1973 64.5605 38.1565 64.5571C38.1157 64.5538 38.076 64.5417 38.0402 64.5219C38.0044 64.502 37.9732 64.4748 37.9487 64.4419C37.9242 64.4091 37.907 64.3714 37.8982 64.3314L35.8357 55.2114C35.8313 55.1959 35.8217 55.1823 35.8086 55.1729C35.7954 55.1636 35.7795 55.1589 35.7634 55.1598C35.7472 55.1607 35.7319 55.167 35.7198 55.1777C35.7077 55.1885 35.6997 55.203 35.697 55.2189Z" fill="#FFFF00"/>
<path d="M65.5319 55.6613C64.2619 54.6888 62.7957 53.9113 61.1332 53.3288C60.4782 53.1013 59.9594 53.3926 59.5769 54.2026C60.1057 51.2251 64.8269 54.5626 65.5319 55.6613Z" fill="#019442"/>
<path d="M65.5318 55.6612C67.1293 57.8325 66.9568 59.6512 66.9531 62.025C66.9531 62.1425 66.9293 62.2537 66.8818 62.3587C66.6968 62.7862 66.4218 62.9487 66.0568 62.8462C65.9343 62.8087 65.8143 62.815 65.6968 62.865L62.6818 64.1025C61.1818 64.4962 60.1356 64.3537 59.4531 62.91C58.7893 61.5037 57.1431 60.6562 56.0256 59.5837C55.9375 59.5005 55.8282 59.4445 55.7106 59.4225C54.4206 59.17 53.9231 58.4312 54.2181 57.2062C54.4106 56.3187 54.8343 55.805 55.4893 55.665C57.2568 55.2875 58.6193 54.8 59.5768 54.2025C59.9593 53.3925 60.4781 53.1012 61.1331 53.3287C62.7956 53.9112 64.2618 54.6887 65.5318 55.6612Z" fill="#FA0000"/>
<path d="M54.2181 57.2063C53.9231 58.4313 54.4206 59.1701 55.7106 59.4226C55.8282 59.4445 55.9376 59.5005 56.0256 59.5838C57.1431 60.6563 58.7894 61.5038 59.4531 62.9101C60.1356 64.3538 61.1819 64.4963 62.6819 64.1026C61.7194 64.6476 60.8219 64.8463 59.9894 64.6988C59.8955 64.6822 59.7989 64.689 59.7083 64.7188C59.6177 64.7485 59.5359 64.8003 59.4702 64.8693C59.4045 64.9384 59.3569 65.0227 59.3316 65.1146C59.3064 65.2066 59.3043 65.3034 59.3256 65.3963L59.5956 66.5626C59.2456 66.4101 59.0431 66.1863 58.9881 65.8913C58.4256 62.8188 56.5719 61.2563 53.4269 61.2038C53.3543 61.2027 53.2829 61.2226 53.2211 61.2611C53.1593 61.2997 53.1097 61.3553 53.0781 61.4213C52.7881 62.0438 52.8681 62.6176 53.3181 63.1426C53.4056 63.2476 53.4656 63.3663 53.4981 63.4988C53.8031 64.7863 54.5081 65.9726 55.6131 67.0576C54.9081 66.7201 54.3744 66.5588 54.0119 66.5738L52.5269 62.6401C52.5719 61.4601 52.8619 60.6863 53.3969 60.3188C53.5019 60.2488 53.5431 60.1501 53.5206 60.0226C53.3431 59.0026 53.5756 58.0638 54.2181 57.2063Z" fill="#019442"/>
<path d="M52.527 62.64L54.012 66.5737C56.5545 71.7037 62.7907 68.4262 64.3732 70.8937C64.4457 71.0037 64.5382 71.025 64.6507 70.9575C64.8807 70.82 64.9532 70.62 64.8682 70.3575C64.8257 70.23 64.7445 70.1375 64.6245 70.08C63.0007 69.27 60.2557 69.0675 61.272 66.3712C61.2988 66.2962 61.3519 66.2325 61.422 66.1912L65.7495 63.555C65.8101 63.5181 65.878 63.4947 65.9485 63.4863C66.019 63.478 66.0904 63.4849 66.158 63.5066C66.2256 63.5283 66.2877 63.5643 66.3401 63.6121C66.3926 63.6599 66.4341 63.7184 66.462 63.7837C67.4595 66.1237 70.0095 74.9287 67.0057 76.53C63.4357 78.435 57.972 74.8912 54.9382 72.9825C52.7895 71.6325 46.5495 67.5037 46.002 65.0325C45.5745 63.09 47.1757 61.1325 48.8032 60.2625C48.9521 60.1822 49.1266 60.1639 49.2889 60.2116C49.4511 60.2594 49.5879 60.3693 49.6695 60.5175C50.1645 61.4062 50.1495 63.585 51.2482 63.7125C51.3757 63.725 51.4395 63.6687 51.4395 63.5437C51.437 63.0987 51.477 62.79 51.5595 62.6175C51.7445 62.2225 52.067 62.23 52.527 62.64Z" fill="#FFFF00"/>
<path d="M59.5957 66.5624C59.9732 67.2924 60.0232 67.8349 59.7457 68.1899C59.6607 68.3024 59.5469 68.3537 59.4044 68.3437C57.9594 68.2662 56.6957 67.8374 55.6132 67.0574C54.5082 65.9724 53.8032 64.7862 53.4982 63.4987C53.4657 63.3662 53.4057 63.2474 53.3182 63.1424C52.8682 62.6174 52.7882 62.0437 53.0782 61.4212C53.1097 61.3551 53.1594 61.2995 53.2212 61.261C53.283 61.2224 53.3544 61.2025 53.4269 61.2037C56.5719 61.2562 58.4257 62.8187 58.9882 65.8912C59.0432 66.1862 59.2457 66.4099 59.5957 66.5624Z" fill="#FA0000"/>
<path d="M41.9444 65.8837C42.8106 66.1012 44.2619 65.4525 45.1844 65.3437C45.3144 65.3287 45.3981 65.3837 45.4356 65.5087C46.1331 67.9912 48.3569 69.6787 50.1006 71.4C50.1433 71.4426 50.1939 71.4763 50.2493 71.4988C50.3048 71.5214 50.3639 71.5324 50.4231 71.5312C50.5506 71.5287 50.6744 71.5675 50.7944 71.6475C51.0419 71.81 51.0244 71.94 50.7419 72.0375C49.3844 72.4987 48.6869 72.0075 47.6031 71.985C45.1406 71.93 42.8144 71.3325 40.6244 70.1925C40.5222 70.1413 40.4393 70.0584 40.3881 69.9562C39.7056 68.6512 39.2519 67.2712 39.0269 65.8162C38.9994 65.6362 39.0769 65.5462 39.2594 65.5462C40.1394 65.5412 41.0344 65.6537 41.9444 65.8837Z" fill="#FA0000"/>
</svg>
