<svg width="100" height="100" viewBox="0 0 100 100" fill="none" xmlns="http://www.w3.org/2000/svg">
<rect width="100" height="100" fill="white"/>
<path d="M49.8876 31.7655C49.8556 31.7975 49.8236 31.8295 49.7916 31.8615L49.8276 43.6575C49.7636 49.0015 49.7596 54.3575 49.8156 59.7256C49.9116 69.2656 42.8076 69.5656 35.4875 69.8776L35.6795 17.5935C35.6875 15.0815 36.7116 14.5575 38.7516 16.0215C44.2636 19.9575 47.9756 25.2055 49.8876 31.7655Z" fill="#CBCCCA"/>
<path d="M49.7915 31.8618C49.8235 31.8298 49.8555 31.7978 49.8875 31.7658C52.6475 25.7538 56.9435 17.3898 63.5315 15.5778C63.9715 15.4578 64.1915 15.6258 64.1915 16.0818V39.1578C64.1915 40.0218 63.9955 40.0698 63.6035 39.3018C60.5075 33.2298 56.9075 31.2138 49.7915 31.8618Z" fill="#1A1919"/>
<path d="M49.8276 43.6577L63.5316 43.6697C63.9316 43.6697 64.1356 43.8697 64.1436 44.2697C64.2756 54.4337 65.1756 62.9777 62.5236 69.8538C60.2516 75.3898 56.1596 79.6818 50.2476 82.7298C36.5676 87.3538 25.8556 83.6578 18.1115 71.6418C17.2155 70.2578 17.5915 69.5818 19.2395 69.6138L35.4876 69.8778C42.8076 69.5658 49.9116 69.2658 49.8156 59.7257C49.7596 54.3577 49.7636 49.0017 49.8276 43.6577Z" fill="#1A1919"/>
<path d="M62.5233 69.8539L80.7634 69.7699C81.8994 69.7619 82.2394 70.2779 81.7834 71.3179C76.8634 82.4299 60.9033 85.6579 50.2473 82.7299C56.1593 79.6819 60.2513 75.3899 62.5233 69.8539Z" fill="#CBCCCA"/>
</svg>
