<svg width="100" height="100" viewBox="0 0 100 100" fill="none" xmlns="http://www.w3.org/2000/svg">
<rect width="100" height="100" fill="#DF2429"/>
<path d="M13 73.091V22.7761C13.2488 19.3431 16.0067 16.9987 19.4228 17C39.2918 17.0078 59.1608 17.0138 79.0298 17.0181C80.5072 17.0181 81.3707 17.0341 81.6204 17.0661C84.0828 17.3823 86.2121 19.1928 86.8082 21.6085C86.9352 22.1243 86.9987 22.9826 86.9987 24.1836C87.0004 41.407 87.0004 58.6301 86.9987 75.8527C86.9987 79.4516 84.1981 82.0332 80.6096 82.0371C74.8693 82.0422 69.1355 82.0431 63.4081 82.0396C63.3993 82.0397 63.3906 82.0376 63.3829 82.0334C63.3751 82.0293 63.3685 82.0233 63.3636 82.016C63.3587 82.0087 63.3557 82.0002 63.3549 81.9915C63.3541 81.9827 63.3554 81.9739 63.3589 81.9658C64.4432 79.3721 65.5512 76.7836 66.6831 74.2003C67.3246 72.7372 68.4559 72.6659 70.0305 72.6879C72.657 72.7225 74.944 72.7277 76.8914 72.7035C77.8297 72.6918 78.9352 72.3782 79.2954 71.4865C79.4 71.2291 79.4518 70.7647 79.451 70.0934C79.4492 68.0708 79.4492 66.0495 79.451 64.0295C79.4523 63.2144 79.7633 62.6545 80.4942 62.2605C81.0981 61.9339 81.7029 61.6108 82.3086 61.2911C83.6007 60.6069 83.1523 59.8461 82.5639 58.8767C80.9457 56.2122 79.3149 53.555 77.6716 50.9052C77.4007 50.4698 77.5731 50.0628 78.0604 49.9423C78.8112 49.7574 79.5629 49.5743 80.3154 49.3928C80.861 49.2619 81.1344 48.9004 80.7288 48.3975C77.2772 44.1104 73.8234 39.8251 70.3675 35.5415C68.211 32.8666 67.8727 37.1394 65.943 36.0028C61.6443 33.4692 57.1875 31.7158 52.0943 32.7059C43.4035 34.3945 36.3353 40.8861 36.0916 50.1263C35.9841 54.1879 37.6014 57.7881 39.5609 61.2341C40.2374 62.4221 40.834 63.7418 41.3507 65.1933C41.9974 67.0077 41.9909 68.5706 42.092 70.7647C42.1179 71.3505 42.5896 71.3894 43.0471 71.2222C47.3826 69.6419 51.7189 68.0643 56.0561 66.4893C57.4674 65.9761 57.3767 64.7177 56.7637 63.6096C55.1048 60.6151 53.4477 57.6192 51.7923 54.6221C51.248 53.6384 50.6182 52.7896 52.439 52.7014C53.424 52.6535 54.6201 52.7001 55.5066 52.2504C55.8254 52.0889 56.2155 51.7675 56.6768 51.2862C60.1803 47.6264 63.704 43.9873 67.2481 40.369C68.1229 39.476 68.767 39.3788 69.5886 40.3534C71.3632 42.4598 73.1137 44.5865 74.8399 46.7335C75.3557 47.3737 75.5838 48.1292 74.6364 48.4973C70.8859 49.9497 64.9002 52.2003 56.6794 55.2493C56.422 55.3452 56.215 55.5275 56.0587 55.7962C56.0386 55.8313 56.0317 55.8727 56.0392 55.9129C56.0937 56.2083 56.2293 56.5371 56.4462 56.8991C59.0061 61.1715 61.5795 65.4357 64.1663 69.6916C64.7508 70.6519 63.9887 71.2183 63.0854 71.1574C61.7696 71.0692 60.8421 71.0464 60.303 71.0887C57.6851 71.2947 55.0413 72.2149 52.693 73.2063C48.5641 74.9507 44.6619 77.0696 40.7092 79.1691C35.467 81.9528 29.4835 82.3299 23.4987 81.8116C19.047 81.428 14.4152 80.1307 13.2592 75.2099C13.1417 74.7088 13.0553 74.0025 13 73.091ZM20.7136 35.7488C17.0681 42.3622 16.2982 50.3389 17.5903 57.6922C18.237 61.3728 19.5861 64.7954 21.6519 67.9161C22.3284 68.9382 22.9932 69.9694 23.6464 71.0096C24.1557 71.8196 24.4836 72.6711 24.8206 73.5627C24.8387 73.6111 24.8707 73.6227 24.9165 73.5977C27.2561 72.2983 29.712 71.2744 32.2841 70.5262C33.5152 70.1685 34.749 69.813 35.9854 69.4597C37.6909 68.9711 38.6719 67.6038 38.5592 65.8594C38.5289 65.3825 38.4317 64.9678 38.2676 64.6153C37.2023 62.3266 36.1547 60.0297 35.1248 57.7246C34.1023 55.4346 33.3714 52.8051 33.4595 50.2793C33.6021 46.1425 34.7581 42.3181 37.2606 39.0095C40.8219 34.2999 46.1302 31.003 52.0062 30.3161C55.3381 29.926 58.9189 29.9714 62.0888 31.2363C62.8871 31.5538 63.4004 31.2285 63.7904 30.5105C64.8799 28.5052 65.9612 26.4952 67.0343 24.4804C68.2797 22.145 66.3552 21.5761 64.6276 20.9099C61.0196 19.5207 57.0747 18.5979 53.2114 18.4308C49.9715 18.2908 46.5903 18.4476 43.4165 19.1526C33.8042 21.2858 25.4932 27.0788 20.7136 35.7488Z" fill="white"/>
<path d="M70.3867 55.2076C69.6921 55.1972 69.6052 54.5505 70.2208 54.2525C71.344 53.7108 72.4797 53.1958 73.6279 52.7077C74.7995 52.21 75.0781 53.4814 75.4851 54.2279C75.8052 54.8188 75.5563 55.1726 74.9265 55.1869C73.4145 55.2232 71.9013 55.2301 70.3867 55.2076Z" fill="white"/>
</svg>
