<svg width="100" height="100" viewBox="0 0 100 100" fill="none" xmlns="http://www.w3.org/2000/svg">
<rect width="100" height="100" fill="#434C9F"/>
<g clip-path="url(#clip0_65_691)">
<path d="M46.2134 48.5837C46.8881 45.7314 48.9877 43.3156 51.8672 42.5527C53.3297 42.165 54.7303 42.0037 56.069 42.0687C56.1057 42.0704 56.1241 42.0896 56.1241 42.1263V45.3889C56.1241 45.3949 56.1229 45.4009 56.1205 45.4064C56.1182 45.4119 56.1147 45.4169 56.1103 45.421C56.1059 45.4252 56.1008 45.4284 56.0951 45.4304C56.0895 45.4325 56.0835 45.4334 56.0775 45.433C53.5659 45.272 51.0746 45.8501 49.9371 48.3354C48.8648 50.6766 49.7905 53.6434 52.1546 54.7707C53.3048 55.32 54.7509 55.4404 56.0538 55.3717C56.1007 55.3695 56.1241 55.3918 56.1241 55.4387V58.6988C56.1241 58.7072 56.1208 58.7152 56.115 58.7212C56.1091 58.7273 56.1011 58.7308 56.0927 58.731C53.7236 58.8344 50.9619 58.3894 49.0742 56.8288C46.688 54.8581 45.4886 51.6505 46.2134 48.5837Z" fill="white"/>
<path d="M13 42.4609V42.1091L16.3813 42.1117C16.4158 42.1117 16.433 42.1292 16.433 42.1642V48.7174C16.433 48.7457 16.4471 48.7598 16.4754 48.7598H24.6976C24.7088 48.7598 24.7196 48.7553 24.7276 48.7474C24.7355 48.7394 24.74 48.7287 24.74 48.7174V42.1693C24.74 42.1411 24.7541 42.1269 24.7824 42.1269H28.1306C28.1418 42.1269 28.1526 42.1314 28.1606 42.1393C28.1685 42.1473 28.173 42.1581 28.173 42.1693V58.7833C28.173 58.7945 28.1685 58.8053 28.1606 58.8133C28.1526 58.8212 28.1418 58.8257 28.1306 58.8257H24.7824C24.7711 58.8257 24.7603 58.8212 24.7524 58.8133C24.7444 58.8053 24.74 58.7945 24.74 58.7833V52.2352C24.74 52.2239 24.7355 52.2132 24.7276 52.2052C24.7196 52.1973 24.7088 52.1928 24.6976 52.1928H16.4754C16.4641 52.1928 16.4534 52.1973 16.4454 52.2052C16.4375 52.2132 16.433 52.2239 16.433 52.2352V58.7833C16.433 58.7945 16.4285 58.8053 16.4206 58.8133C16.4126 58.8212 16.4018 58.8257 16.3906 58.8257H13.0644C13.0356 58.8257 13.0212 58.8113 13.0212 58.7824L13 42.4609Z" fill="white"/>
<path d="M32.4366 42.1084H29.1223C29.0896 42.1084 29.063 42.135 29.063 42.1677V58.7665C29.063 58.7992 29.0896 58.8258 29.1223 58.8258H32.4366C32.4694 58.8258 32.496 58.7992 32.496 58.7665V42.1677C32.496 42.135 32.4694 42.1084 32.4366 42.1084Z" fill="white"/>
<path d="M36.8454 55.4353H40.0775C40.0901 55.4353 40.1022 55.4403 40.1111 55.4492C40.12 55.4581 40.125 55.4702 40.125 55.4828V58.7785C40.125 58.7911 40.12 58.8031 40.1111 58.812C40.1022 58.8209 40.0901 58.8259 40.0775 58.8259H33.4125C33.3999 58.8259 33.3878 58.8209 33.3789 58.812C33.37 58.8031 33.365 58.7911 33.365 58.7785V42.1747C33.365 42.1621 33.37 42.15 33.3789 42.1411C33.3878 42.1322 33.3999 42.1272 33.4125 42.1272H36.7505C36.7631 42.1272 36.7752 42.1322 36.7841 42.1411C36.793 42.15 36.798 42.1621 36.798 42.1747V55.3879C36.798 55.4005 36.803 55.4125 36.8119 55.4214C36.8208 55.4303 36.8329 55.4353 36.8454 55.4353Z" fill="white"/>
<path d="M87 42.134V58.82L81.9717 58.8209C81.9395 58.8209 81.9163 58.8067 81.9022 58.7785L75.3609 45.8018C75.3579 45.7955 75.3529 45.7905 75.3466 45.7876C75.3404 45.7846 75.3333 45.784 75.3265 45.7856C75.3198 45.7873 75.3137 45.7912 75.3093 45.7968C75.3049 45.8023 75.3025 45.8092 75.3024 45.8162V58.7836C75.3024 58.7948 75.2979 58.8056 75.29 58.8135C75.282 58.8215 75.2712 58.8259 75.26 58.8259H71.9118C71.9005 58.8259 71.8897 58.8215 71.8818 58.8135C71.8738 58.8056 71.8694 58.7948 71.8694 58.7836V42.1696C71.8694 42.1413 71.8835 42.1272 71.9118 42.1272H76.9316C76.945 42.1272 76.9582 42.1309 76.9696 42.138C76.981 42.145 76.9901 42.1551 76.996 42.167L83.5348 55.1692C83.5364 55.1726 83.5393 55.1754 83.5428 55.1771C83.5462 55.1787 83.5502 55.1792 83.5539 55.1783C83.5577 55.1774 83.561 55.1752 83.5634 55.1722C83.5658 55.1692 83.567 55.1654 83.567 55.1615V42.1704C83.567 42.1433 83.5805 42.1297 83.6077 42.1297L87 42.134Z" fill="white"/>
<path d="M44.0393 55.4563H47.2934C47.3031 55.4563 47.3123 55.4602 47.3192 55.467C47.326 55.4738 47.3298 55.4831 47.3298 55.4928V58.8105C47.3298 58.8202 47.326 58.8294 47.3192 58.8363C47.3123 58.8431 47.3031 58.8469 47.2934 58.8469H40.6063C40.5966 58.8469 40.5873 58.8431 40.5805 58.8363C40.5737 58.8294 40.5698 58.8202 40.5698 58.8105V42.1846C40.5698 42.1799 40.5708 42.1751 40.5726 42.1707C40.5744 42.1663 40.5771 42.1623 40.5805 42.1589C40.5839 42.1555 40.5879 42.1528 40.5923 42.151C40.5967 42.1491 40.6015 42.1482 40.6063 42.1482H43.9664C43.9712 42.1482 43.9759 42.1491 43.9803 42.151C43.9847 42.1528 43.9888 42.1555 43.9921 42.1589C43.9955 42.1623 43.9982 42.1663 44 42.1707C44.0019 42.1751 44.0028 42.1799 44.0028 42.1846V55.4199C44.0028 55.4295 44.0067 55.4388 44.0135 55.4457C44.0203 55.4525 44.0296 55.4563 44.0393 55.4563Z" fill="white"/>
<path d="M54.6368 51.0354C54.2749 45.2663 59.7651 40.7983 65.4062 42.4902C69.6148 43.7524 72.1459 48.0296 71.1813 52.3077C70.3599 55.9526 67.1956 58.5998 63.4829 58.8109C58.9192 59.0703 54.9242 55.622 54.6368 51.0354ZM67.928 50.3979C67.928 49.0907 67.4087 47.8369 66.4843 46.9125C65.5599 45.9882 64.3062 45.4688 62.9989 45.4688C61.6916 45.4688 60.4379 45.9882 59.5135 46.9125C58.5891 47.8369 58.0698 49.0907 58.0698 50.3979C58.0698 51.7052 58.5891 52.959 59.5135 53.8833C60.4379 54.8077 61.6916 55.327 62.9989 55.327C63.6462 55.327 64.2872 55.1995 64.8852 54.9518C65.4832 54.7041 66.0266 54.341 66.4843 53.8833C66.942 53.4256 67.3051 52.8822 67.5528 52.2842C67.8005 51.6862 67.928 51.0452 67.928 50.3979Z" fill="white"/>
</g>
<defs>
<clipPath id="clip0_65_691">
<rect width="74" height="16.8683" fill="white" transform="translate(13 42)"/>
</clipPath>
</defs>
</svg>
