<svg width="100" height="100" viewBox="0 0 100 100" fill="none" xmlns="http://www.w3.org/2000/svg">
<rect width="100" height="100" fill="#F1FFEA"/>
<path d="M47.2666 21.8442H56.4016L57.0516 22.0042C57.1258 22.0217 57.1956 22.0542 57.2567 22.0998C57.3178 22.1454 57.3688 22.2031 57.4066 22.2692L84.3816 69.0393L71.7066 64.1843L47.2666 21.8442Z" fill="#B60F12"/>
<path d="M71.7066 64.1844L84.3816 69.0394L79.8366 77.2594C79.7532 77.4094 79.6366 77.4411 79.4866 77.3544C72.0299 72.9511 63.9799 70.3211 55.3366 69.4644C55.2007 69.4519 55.0699 69.4073 54.9551 69.3343C54.8403 69.2612 54.7448 69.1618 54.6766 69.0444L39.9116 43.6294C39.8249 43.4794 39.7399 43.4794 39.6566 43.6294L20.1466 77.3894C20.1217 77.433 20.0856 77.4693 20.0422 77.4946C19.9987 77.5198 19.9493 77.5331 19.8991 77.5331C19.8488 77.5331 19.7995 77.5198 19.756 77.4946C19.7125 77.4693 19.6765 77.433 19.6516 77.3894L15.2516 69.7544C15.1555 69.587 15.105 69.3974 15.105 69.2044C15.105 69.0114 15.1555 68.8218 15.2516 68.6544L39.6766 26.3744C39.6866 26.3567 39.7012 26.342 39.7187 26.3318C39.7363 26.3215 39.7563 26.3162 39.7766 26.3162C39.7969 26.3162 39.8169 26.3215 39.8344 26.3318C39.852 26.342 39.8665 26.3567 39.8766 26.3744L60.0116 61.1844C60.048 61.2477 60.097 61.3029 60.1554 61.3467C60.2139 61.3906 60.2806 61.4221 60.3516 61.4394L71.7066 64.1844Z" fill="#E93B36"/>
</svg>
