<svg width="100" height="100" viewBox="0 0 100 100" fill="none" xmlns="http://www.w3.org/2000/svg">
<rect width="100" height="100" fill="#B60F12"/>
<path d="M49.3382 22.7615C49.4814 22.8539 49.6223 22.8539 49.761 22.7615L64.1627 13.3221C64.5694 13.0555 65.0649 12.9605 65.5404 13.0579C66.016 13.1554 66.4327 13.4373 66.6993 13.8418L70.4764 19.5665C70.6025 19.7566 70.6897 19.9697 70.7332 20.1936C70.7766 20.4174 70.7755 20.6477 70.7298 20.8711C70.684 21.0946 70.5947 21.3068 70.4668 21.4956C70.3388 21.6844 70.1749 21.8461 69.9844 21.9714L49.8788 35.2643C49.6662 35.4075 49.4514 35.4075 49.2342 35.2643L29.1564 22.0338C28.7605 21.7735 28.4842 21.3667 28.3881 20.9028C28.2919 20.4389 28.3838 19.9558 28.6435 19.5596L32.3791 13.8349C32.5113 13.6323 32.6821 13.4576 32.8816 13.321C33.0812 13.1845 33.3056 13.0886 33.5419 13.039C33.7783 12.9894 34.0219 12.9871 34.2589 13.0321C34.4958 13.0771 34.7214 13.1686 34.9226 13.3013L49.3382 22.7615Z" fill="white"/>
<path d="M83.7486 20.2247L87.7406 26.3028C87.9703 26.6544 88.0519 27.0824 87.9675 27.4929C87.883 27.9034 87.6394 28.263 87.2901 28.4929L55.5481 49.444C55.4541 49.5059 55.3771 49.5896 55.3239 49.6876C55.2706 49.7856 55.2429 49.8948 55.2431 50.0054V86.4048C55.2431 86.6101 55.2026 86.8135 55.1238 87.0031C55.045 87.1928 54.9295 87.365 54.7839 87.5099C54.6384 87.6548 54.4657 87.7695 54.2757 87.8475C54.0857 87.9254 53.8822 87.9651 53.6768 87.9642L46.0462 87.9434C45.7386 87.9434 45.4435 87.8209 45.2254 87.6028C45.0072 87.3846 44.8837 87.0885 44.8819 86.779L44.7433 50.5113C44.7387 49.943 44.4984 49.5018 44.0225 49.1876L12.8488 28.6523C12.4494 28.3885 12.1705 27.9778 12.0731 27.5102C11.9757 27.0425 12.0677 26.556 12.329 26.1573L16.1131 20.391C16.2388 20.2001 16.4008 20.0358 16.5897 19.9074C16.7786 19.7791 16.9908 19.6891 17.2141 19.6428C17.4375 19.5964 17.6676 19.5946 17.8913 19.6374C18.115 19.6801 18.328 19.7667 18.518 19.892L49.5046 40.1986C49.6484 40.2934 49.8174 40.3439 49.991 40.3439C50.1645 40.3439 50.335 40.2934 50.4818 40.1986L81.6001 19.7811C81.7701 19.6684 81.9606 19.5905 82.1609 19.5518C82.3611 19.5131 82.567 19.5144 82.7667 19.5556C82.9664 19.5968 83.156 19.6772 83.3245 19.792C83.493 19.9068 83.6371 20.0539 83.7486 20.2247Z" fill="white"/>
<path d="M39.0049 50.7887C39.0432 50.8123 39.0748 50.8452 39.0967 50.884C39.1185 50.9229 39.1299 50.9664 39.1296 51.0105V73.9229C39.1296 74.2906 38.9836 74.6431 38.7236 74.9031C38.4637 75.163 38.1111 75.3091 37.7435 75.3091H30.1268C29.8644 75.3087 29.6074 75.2328 29.3863 75.0903C29.1651 74.9478 28.9892 74.7447 28.8793 74.5051C28.2555 73.1329 28.6922 71.0953 28.6783 69.9864C28.609 65.6432 28.6275 61.2954 28.7337 56.943C28.7358 56.8351 28.7101 56.7282 28.6592 56.6325C28.6083 56.5367 28.5338 56.4552 28.4427 56.3955L12.7865 46.0759C12.594 45.9489 12.4285 45.7853 12.2995 45.5943C12.1705 45.4034 12.0805 45.189 12.0348 44.9635C11.989 44.738 11.9884 44.5059 12.033 44.2804C12.0775 44.055 12.1664 43.8408 12.2944 43.6502L16.3142 37.676C16.5316 37.3495 16.8695 37.1224 17.254 37.0445C17.6385 36.9665 18.0382 37.0441 18.3656 37.2602L39.0049 50.7887Z" fill="white"/>
<path d="M82.7643 37.2603C84.6171 39.2471 86.1949 41.5295 87.4979 44.1077C87.8952 44.8932 87.6434 45.5839 86.7424 46.18C81.6046 49.5806 76.4482 52.9581 71.2734 56.3125C71.0978 56.428 71.01 56.5874 71.01 56.7907V73.9231C71.01 74.2447 70.8823 74.5532 70.6548 74.7807C70.4274 75.0081 70.1189 75.1359 69.7972 75.1359H61.6746C61.3474 75.1359 61.0336 75.0059 60.8022 74.7746C60.5709 74.5432 60.4409 74.2295 60.4409 73.9023V51.2116C60.4409 51.0175 60.5218 50.8673 60.6835 50.7611L81.4821 37.1078C81.681 36.9794 81.9182 36.9243 82.1524 36.9521C82.3867 36.98 82.6032 37.089 82.7643 37.2603Z" fill="white"/>
</svg>
