<svg width="100" height="100" viewBox="0 0 100 100" fill="none" xmlns="http://www.w3.org/2000/svg">
<rect width="100" height="100" fill="#FCDB5E"/>
<path d="M27.3851 39.2529C27.3924 39.5079 27.3326 39.7586 27.2057 40.0051C27.1791 40.0583 27.1773 40.1127 27.2003 40.1683C27.5682 41.0691 27.2873 41.6437 27.0752 42.4394" stroke="white" stroke-width="0.362511"/>
<path d="M58.2804 47.386C57.8248 47.1008 57.3427 46.9298 56.834 46.873" stroke="#F0721C" stroke-width="0.362511"/>
<path d="M60.1672 48.6655L60.1382 50.5288" stroke="#F0721C" stroke-width="0.362511"/>
<path d="M55.8569 51.5946L55.1953 51.4478" stroke="#F0721C" stroke-width="0.362511"/>
<path d="M52.27 54.8896L52.8392 55.292" stroke="#F0721C" stroke-width="0.362511"/>
<path d="M57.7983 58.0872L58.4291 58.5639" stroke="#F0721C" stroke-width="0.362511"/>
<path d="M70.8372 30.5599C71.0638 29.4688 71.6203 28.1891 72.8745 28.0024C72.9079 27.9971 72.9422 28.0006 72.9738 28.0124C73.0055 28.0242 73.0336 28.0441 73.0553 28.07C73.077 28.0959 73.0917 28.127 73.0978 28.1603C73.1039 28.1936 73.1013 28.2278 73.0902 28.2598C72.7181 29.334 72.0456 30.1576 71.0729 30.7303C71.0462 30.7456 71.0158 30.7529 70.9851 30.7513C70.9544 30.7496 70.9249 30.7392 70.9 30.7212C70.8751 30.7032 70.856 30.6784 70.8449 30.6498C70.8337 30.6212 70.8311 30.59 70.8372 30.5599Z" fill="white"/>
<path d="M68.1901 29.4035C68.1895 29.3989 68.1907 29.3944 68.1934 29.3907C68.1961 29.387 68.2001 29.3844 68.2046 29.3835C68.3476 29.3587 68.4979 29.3839 68.6469 29.4578C68.7958 29.5318 68.9405 29.6529 69.0726 29.8143C69.2047 29.9757 69.3217 30.1743 69.4169 30.3986C69.5121 30.6229 69.5837 30.8687 69.6274 31.1218L69.6691 31.3683C69.7574 31.8792 69.7273 32.3889 69.5856 32.7856C69.4438 33.1822 69.202 33.4333 68.9133 33.4835C68.9109 33.4841 68.9084 33.4841 68.906 33.4836C68.9036 33.4832 68.9013 33.4823 68.8993 33.4809C68.8973 33.4796 68.8955 33.4778 68.8942 33.4758C68.8929 33.4737 68.892 33.4714 68.8915 33.469L68.1901 29.4035Z" fill="white"/>
<path d="M67.0656 31.3446C67.0776 31.3156 67.0976 31.2906 67.1232 31.2725C67.1489 31.2545 67.1791 31.2442 67.2103 31.2428C67.2415 31.2415 67.2723 31.2492 67.2991 31.265C67.3258 31.2808 67.3474 31.304 67.3611 31.3319C68.1967 32.9904 68.3707 35.1311 67.2976 36.766C67.2717 36.8056 67.2351 36.837 67.192 36.8566C67.1489 36.8762 67.1012 36.8831 67.0543 36.8767C67.0074 36.8702 66.9634 36.8506 66.9272 36.8201C66.891 36.7896 66.8642 36.7495 66.8499 36.7043C66.5998 35.9104 66.6071 34.8193 66.5744 34.1885C66.5237 33.2291 66.6874 32.2811 67.0656 31.3446Z" fill="white"/>
<path d="M69.7787 33.5397C70.2681 33.179 70.5617 32.6533 71.0167 32.2346C71.5568 31.7398 72.7259 31.4861 73.4382 31.3682C73.4658 31.3639 73.4941 31.3676 73.5196 31.3789C73.5452 31.3902 73.5669 31.4086 73.5822 31.4319C73.5975 31.4553 73.6058 31.4826 73.6059 31.5105C73.6061 31.5384 73.5982 31.5658 73.5832 31.5894C72.6625 33.014 71.5713 33.6213 69.9128 33.8659C69.8725 33.8723 69.8312 33.865 69.7956 33.845C69.7601 33.825 69.7323 33.7936 69.7167 33.7559C69.7012 33.7181 69.6989 33.6762 69.7101 33.637C69.7214 33.5978 69.7455 33.5635 69.7787 33.5397Z" fill="white"/>
<path d="M89.4722 35.4649C89.7839 34.0294 91.4007 33.1557 92.7366 32.911C92.7698 32.9052 92.804 32.9092 92.8351 32.9225C92.8661 32.9358 92.8925 32.9578 92.9111 32.9859C92.9296 33.0139 92.9394 33.0466 92.9394 33.0801C92.9393 33.1135 92.9293 33.1461 92.9106 33.1739C92.0937 34.3931 90.9736 35.1816 89.5501 35.5393C89.4836 35.5562 89.4577 35.5314 89.4722 35.4649Z" fill="white"/>
<path d="M87.0223 33.0723C87.0295 33.0628 87.0388 33.0547 87.0495 33.0488C87.2779 32.9183 87.4374 32.9775 87.528 33.2264C88.0247 34.584 88.0301 36.9168 86.6943 37.8684C86.6815 37.8776 86.6666 37.8834 86.651 37.8851C86.6354 37.8869 86.6196 37.8845 86.6051 37.8783C86.5907 37.8721 86.5781 37.8622 86.5686 37.8497C86.5591 37.8371 86.5531 37.8223 86.5511 37.8067C86.3807 36.5144 86.2466 34.178 87.0223 33.0723Z" fill="white"/>
<path d="M84.8408 34.6563C84.8556 34.6385 84.8751 34.6254 84.897 34.6185C84.919 34.6116 84.9425 34.6112 84.9647 34.6173C84.9869 34.6235 85.0069 34.6359 85.0222 34.6531C85.0375 34.6703 85.0476 34.6915 85.0511 34.7143C85.4045 36.8114 84.926 39.7767 83.1207 41.1724C82.8561 41.3766 82.7244 41.3114 82.7256 40.9766C82.7328 38.575 83.253 36.5594 84.8408 34.6563Z" fill="white"/>
<path d="M68.8873 36.2549C69.8407 35.2133 71.0388 34.7173 72.4816 34.7668C72.4975 34.7675 72.5129 34.7725 72.5262 34.7812C72.5395 34.7899 72.5502 34.802 72.5573 34.8162C72.5643 34.8305 72.5674 34.8464 72.5662 34.8622C72.565 34.8781 72.5596 34.8933 72.5505 34.9064C71.8182 35.9359 70.6201 36.9473 69.3404 37.1648C68.9985 37.2228 68.6535 37.2784 68.3055 37.3316C68.2897 37.3339 68.2737 37.3323 68.2587 37.3269C68.2437 37.3215 68.2304 37.3124 68.2198 37.3006C68.2092 37.2887 68.2017 37.2744 68.198 37.2589C68.1943 37.2435 68.1944 37.2273 68.1985 37.2119C68.3073 36.7787 68.619 36.5467 68.8873 36.2549Z" fill="white"/>
<path d="M64.9267 35.0968C64.9582 35.0147 65.0095 34.9627 65.0808 34.9409C65.1213 34.9279 65.1653 34.9302 65.2046 34.9476C65.2439 34.9649 65.2759 34.996 65.2947 35.0352C66.1321 36.8042 66.4692 38.9884 65.0736 40.6541C65.0216 40.7157 64.969 40.7157 64.9159 40.6541C64.7636 40.4789 64.679 40.2366 64.6621 39.9273C64.5787 38.3286 64.3358 36.6321 64.9267 35.0968Z" fill="white"/>
<path d="M92.1984 37.223C92.3036 37.2448 92.3157 37.2907 92.2347 37.3608C90.8052 38.6054 89.1407 39.0755 87.2411 38.771C87.2194 38.7677 87.199 38.7582 87.1824 38.7438C87.1658 38.7293 87.1537 38.7104 87.1474 38.6893C87.1411 38.6683 87.141 38.6458 87.147 38.6246C87.153 38.6035 87.1649 38.5844 87.1813 38.5698C88.5963 37.2708 90.2687 36.8219 92.1984 37.223Z" fill="white"/>
<path d="M80.7717 38.7491C80.9566 38.5231 81.1433 38.3521 81.3318 38.2361C81.4514 38.1624 81.5082 38.1956 81.5022 38.3358C81.4043 40.7139 81.4224 42.8201 79.7567 44.571C79.5742 44.7631 79.3984 44.806 79.2292 44.6997C79.1815 44.6694 79.1428 44.6267 79.1173 44.576C79.0918 44.5252 79.0804 44.4684 79.0842 44.4115C79.2256 42.3778 79.4286 40.3858 80.7717 38.7491Z" fill="white"/>
<path d="M62.6299 38.4246C62.6499 38.3779 62.683 38.338 62.7253 38.3099C62.7676 38.2817 62.8172 38.2665 62.868 38.2661C62.9188 38.2657 62.9686 38.2802 63.0113 38.3077C63.054 38.3352 63.0878 38.3746 63.1084 38.421C63.8226 40.0251 63.9966 42.3108 62.9779 43.8786C62.9559 43.9118 62.9252 43.9383 62.8893 43.9555C62.8533 43.9727 62.8135 43.9798 62.7739 43.976C62.7344 43.9723 62.6968 43.9579 62.665 43.9343C62.6333 43.9108 62.6086 43.879 62.5937 43.8424C62.1224 42.7186 62.1478 39.552 62.6299 38.4246Z" fill="white"/>
<path fill-rule="evenodd" clip-rule="evenodd" d="M67.4786 40.4184L68.2091 40.3749C69.3449 40.0052 70.2609 39.3526 70.9569 38.4174C70.9651 38.406 70.97 38.3926 70.9712 38.3786C70.9724 38.3646 70.9698 38.3506 70.9637 38.3379C70.9575 38.3253 70.9481 38.3146 70.9364 38.3069C70.9247 38.2992 70.9111 38.2947 70.8971 38.2941C69.8845 38.2554 68.9129 38.4288 67.9825 38.8143L67.9823 38.8145C67.0763 39.1179 66.3774 39.693 65.8857 40.5399C65.8669 40.5722 65.8556 40.6082 65.8525 40.6452C65.8493 40.6822 65.8545 40.7193 65.8675 40.7538C65.9606 41.0112 66.0736 41.077 66.2065 40.9514C66.2207 40.9371 66.2378 40.9262 66.2566 40.9193C66.2754 40.9124 66.2954 40.9097 66.3152 40.9115C67.0161 40.9707 67.6475 40.7919 68.2094 40.375L67.4789 40.4185C67.4604 40.4194 67.442 40.4179 67.4242 40.4141C67.442 40.4179 67.4603 40.4194 67.4786 40.4184Z" fill="white"/>
<path fill-rule="evenodd" clip-rule="evenodd" d="M27.2053 40.0053C27.3322 39.7588 27.392 39.5081 27.3848 39.2531C26.9927 39.0931 26.5917 38.9224 26.185 38.7492C24.6156 38.0811 22.9609 37.3766 21.4033 37.1088C16.9626 36.3458 11.6844 38.4121 8.09376 40.9768C7.98621 41.0542 7.99709 41.1086 8.12639 41.14C8.17109 41.1508 8.24058 41.14 8.33483 41.1073C9.82958 40.5926 11.3551 40.195 12.9115 39.9147C15.4209 39.4615 17.491 39.9896 20.1234 40.6612C20.1968 40.6799 20.2706 40.6987 20.3448 40.7176C22.5839 41.2892 24.8273 41.8632 27.0748 42.4396C27.1071 42.3186 27.1409 42.2027 27.1738 42.09C27.3573 41.4616 27.5119 40.9323 27.1999 40.1684C27.1769 40.1129 27.1787 40.0585 27.2053 40.0053ZM27.1744 42.0898C27.1415 42.2025 27.1077 42.3184 27.0754 42.4394C29.4487 43.058 31.2431 43.4864 32.4587 43.7245C38.4655 44.9026 45.0523 44.6887 50.7329 42.4357C53.053 41.5149 55.074 40.5235 56.9083 39.0082C56.9255 38.993 56.9368 38.972 56.9399 38.9492C56.943 38.9264 56.9379 38.9032 56.9254 38.8839C56.9128 38.8646 56.8938 38.8504 56.8717 38.8439C56.8496 38.8374 56.8259 38.8391 56.8049 38.8487C54.0245 40.277 51.1081 41.1289 48.0557 41.4044C42.0254 41.9481 35.8029 41.4642 29.9229 40.0087C29.0662 39.796 28.2204 39.5441 27.3854 39.2529C27.3926 39.5078 27.3328 39.7586 27.2059 40.0051C27.1793 40.0583 27.1775 40.1126 27.2005 40.1682C27.5125 40.9321 27.3579 41.4614 27.1744 42.0898Z" fill="white"/>
<path d="M60.4046 39.9926C60.4166 39.9663 60.4338 39.9431 60.4551 39.9243C60.4764 39.9055 60.5012 39.8917 60.5279 39.8838C60.7043 39.8282 60.8161 39.9007 60.8632 40.1013C61.3725 42.2728 61.61 44.127 60.2542 46.0918C60.0923 46.3262 59.911 46.499 59.7104 46.6102C59.6428 46.6477 59.6029 46.6283 59.5908 46.5522C59.4736 45.7595 59.4422 45.1759 59.4966 44.8013C59.5509 44.4231 59.5757 44.1155 59.5709 43.8787C59.5437 42.5175 59.8319 41.2632 60.4046 39.9926Z" fill="white"/>
<path d="M89.7473 40.8789C89.7376 40.9333 89.7062 40.9804 89.653 41.0203C87.9395 42.3084 86.0182 42.6908 83.8891 42.1676C83.813 42.1483 83.8081 42.1169 83.8746 42.0734C84.8226 41.4589 86.008 40.5907 87.2894 40.5073C87.9009 40.4662 88.7189 40.5146 89.7436 40.6523C89.769 40.6559 89.7919 40.6693 89.8075 40.6897C89.8231 40.71 89.8301 40.7356 89.827 40.7611C89.8198 40.8215 89.7932 40.8608 89.7473 40.8789Z" fill="white"/>
<path d="M76.87 41.7851C77.0065 41.5918 77.1672 41.4588 77.3521 41.3863C77.3805 41.3755 77.411 41.3714 77.4412 41.3746C77.4714 41.3777 77.5005 41.3878 77.5261 41.4042C77.5517 41.4206 77.573 41.4428 77.5885 41.469C77.6039 41.4952 77.6129 41.5246 77.6149 41.5549C77.7527 44.02 77.4518 46.1534 75.5667 47.8952C75.5529 47.9078 75.5368 47.9175 75.5194 47.9238C75.502 47.93 75.4835 47.9326 75.4652 47.9315C75.319 47.9242 75.2483 47.8052 75.2532 47.5744C75.2967 45.4809 75.6392 43.5251 76.87 41.7851Z" fill="white"/>
<path d="M63.1688 44.272C63.7162 43.6684 64.1784 43.0775 64.9886 42.8165C66.0991 42.46 67.2259 42.3694 68.369 42.5446C68.3854 42.5472 68.4008 42.5543 68.4133 42.5652C68.4258 42.5761 68.4351 42.5902 68.44 42.6061C68.4449 42.6219 68.4453 42.6388 68.4411 42.6549C68.4368 42.6709 68.4282 42.6855 68.4162 42.6969C66.983 44.0732 65.2575 44.6599 63.2395 44.4569C63.219 44.4549 63.1995 44.4472 63.1832 44.4348C63.1668 44.4223 63.1543 44.4055 63.1469 44.3863C63.1396 44.3671 63.1378 44.3462 63.1416 44.326C63.1455 44.3058 63.1549 44.2871 63.1688 44.272Z" fill="white"/>
<path d="M58.2805 47.3857C57.8249 47.1005 57.3428 46.9295 56.8341 46.8728C56.8256 46.7157 56.8383 46.6027 56.8721 46.5338L56.9646 44.8173C57.1374 43.9727 57.4135 43.2102 57.7929 42.5299C57.8103 42.4989 57.8364 42.4737 57.8679 42.4573C57.8994 42.4408 57.935 42.4339 57.9703 42.4374C58.0057 42.4409 58.0393 42.4545 58.067 42.4767C58.0947 42.4989 58.1154 42.5287 58.1264 42.5625C58.6581 44.2131 58.7095 45.8209 58.2805 47.3857Z" fill="white"/>
<path d="M70.8607 49.1657C71.0656 46.9961 72.2655 43.5576 74.3463 42.4683C74.3597 42.4611 74.3749 42.4577 74.3901 42.4583C74.4054 42.459 74.4202 42.4638 74.4329 42.4721C74.4457 42.4804 74.456 42.492 74.4628 42.5057C74.4695 42.5194 74.4725 42.5346 74.4714 42.5499C74.2738 45.5116 73.6466 48.3029 70.9586 50.014C70.945 50.0228 70.9294 50.0283 70.9132 50.0299C70.897 50.0315 70.8807 50.0291 70.8656 50.0231C70.8505 50.0171 70.8371 50.0075 70.8265 49.9952C70.8158 49.9828 70.8083 49.9682 70.8046 49.9523C70.7756 49.8327 70.7949 49.7197 70.8626 49.6134C70.877 49.5915 70.8869 49.5672 70.8919 49.5417C70.8969 49.5162 70.8968 49.49 70.8916 49.4647C70.865 49.3234 70.8547 49.2237 70.8607 49.1657Z" fill="white"/>
<path d="M86.5392 44.3298C86.6299 44.36 86.6389 44.4065 86.5664 44.4694C86.5278 44.502 86.4855 44.5467 86.4396 44.6035C86.3985 44.6554 86.3513 44.6959 86.2982 44.7249C84.5086 45.7339 82.5969 46.0149 80.5633 45.5678C80.3796 45.5267 80.2183 45.459 80.0793 45.3648C80.0249 45.3285 80.0237 45.2904 80.0757 45.2506C80.4382 44.9702 80.808 44.7201 81.185 44.5002C82.7256 43.5993 84.8789 43.7679 86.5392 44.3298Z" fill="white"/>
<path d="M66.5543 51.7451C66.9784 49.5066 67.9862 45.8652 70.2338 44.5583C70.3123 44.5124 70.351 44.5348 70.3498 44.6254C70.3389 47.4802 69.3909 50.3639 66.982 52.1203C66.8866 52.1892 66.7869 52.197 66.683 52.1439C66.5585 52.0786 66.5156 51.9457 66.5543 51.7451Z" fill="white"/>
<path d="M21.9678 57.032C25.0437 58.8283 26.037 61.2934 25.5802 64.7934C25.1923 67.7606 23.1224 70.1096 19.9414 70.1713C16.2824 70.2401 12.6253 70.2564 8.96999 70.2202C8.96071 70.2197 8.95196 70.2159 8.94555 70.2095C8.93914 70.2031 8.93556 70.1946 8.93555 70.1858L8.93736 45.9718C8.93735 45.935 8.95174 45.8995 8.97748 45.8731C9.00321 45.8467 9.03825 45.8314 9.07511 45.8305C12.0936 45.7616 15.1158 45.7567 18.1415 45.816C21.2283 45.8776 23.7224 47.2026 24.2716 50.4597C24.6909 52.9562 23.9181 55.0956 21.9533 56.878C21.9419 56.8881 21.933 56.9008 21.9274 56.915C21.9218 56.9292 21.9196 56.9444 21.9211 56.9595C21.9225 56.9746 21.9275 56.989 21.9356 57.0016C21.9437 57.0142 21.9548 57.0247 21.9678 57.032ZM14.3696 49.9721L14.3805 55.6201C14.3805 55.6633 14.3976 55.7048 14.4282 55.7354C14.4588 55.766 14.5003 55.7832 14.5436 55.7832L16.5175 55.7796C17.2607 55.778 17.973 55.511 18.4977 55.0372C19.0225 54.5635 19.3168 53.9217 19.316 53.2529V52.3248C19.3157 51.9933 19.2427 51.6651 19.1012 51.3591C18.9598 51.053 18.7527 50.775 18.4918 50.541C18.2309 50.3071 17.9213 50.1217 17.5806 49.9954C17.24 49.8692 16.875 49.8046 16.5066 49.8054L14.5327 49.809C14.4895 49.809 14.448 49.8262 14.4174 49.8568C14.3868 49.8874 14.3696 49.9289 14.3696 49.9721ZM14.3768 60.0536L14.3986 65.9516C14.3991 66.0181 14.4258 66.0818 14.473 66.1286C14.5202 66.1755 14.584 66.2018 14.6505 66.2018L17.1682 66.1927C17.5663 66.1914 17.9602 66.1162 18.3275 65.9713C18.6948 65.8264 19.0283 65.6147 19.3089 65.3482C19.5895 65.0818 19.8117 64.7658 19.9628 64.4184C20.114 64.071 20.1911 63.6989 20.1897 63.3234L20.1861 62.6383C20.1833 61.8804 19.8616 61.1547 19.2916 60.6207C18.7216 60.0867 17.95 59.7882 17.1464 59.7908L14.6288 59.7998C14.5955 59.7998 14.5626 59.8064 14.5319 59.8192C14.5013 59.8319 14.4734 59.8507 14.45 59.8743C14.4266 59.8978 14.408 59.9258 14.3955 59.9566C14.3829 59.9874 14.3766 60.0203 14.3768 60.0536Z" fill="#D51C1E"/>
<path d="M65.4381 46.0865C65.4474 46.0894 65.4557 46.0946 65.4624 46.1017C65.4692 46.1087 65.474 46.1173 65.4765 46.1267C65.4791 46.1361 65.4792 46.1459 65.4769 46.1554C65.4746 46.1648 65.47 46.1735 65.4635 46.1807C64.2889 47.455 61.9417 47.6996 60.1744 47.4803C60.0476 47.4646 59.9986 47.3945 60.0276 47.2701C60.0506 47.171 60.137 47.064 60.2868 46.9493C61.7876 45.8061 63.5047 45.5185 65.4381 46.0865Z" fill="white"/>
<path d="M56.8337 46.8729C57.3424 46.9297 57.8245 47.1007 58.2801 47.3858C59.1441 47.6819 59.773 48.1084 60.1669 48.6655L60.1379 50.5288L60.1144 53.7171C60.1144 53.7377 60.1087 53.7578 60.0979 53.7754C60.0871 53.7929 60.0716 53.8071 60.0531 53.8164C60.0345 53.8258 60.0137 53.8299 59.9929 53.8284C59.9721 53.8268 59.952 53.8197 59.9349 53.8077C58.6492 52.8833 57.2898 52.1456 55.8567 51.5946L55.1951 51.4478C53.8466 51.1378 51.4014 50.9022 51.0244 52.7437C50.8275 53.7032 51.2425 54.4185 52.2696 54.8898L52.8388 55.2922L57.7979 58.0872L58.4287 58.5639C59.9367 60.0828 60.921 61.2174 61.0261 63.5049C61.1167 64.4136 61.0345 65.3277 60.7796 66.2473C58.3018 72.8413 50.3447 71.9478 45.1735 69.673C45.0369 69.6126 44.9095 69.5353 44.791 69.441C44.7439 69.4035 44.7216 69.3552 44.724 69.296C44.7808 68.0622 44.7421 66.8339 44.608 65.6111C44.579 65.3464 44.6617 64.7163 44.8563 63.7206C44.8732 63.6348 44.9191 63.6142 44.994 63.6589C45.8043 64.1574 46.7559 64.886 47.9358 65.3301L48.4923 65.5966C49.9399 66.1742 51.3942 66.3288 52.8551 66.0606C54.9758 65.6691 54.7075 63.0626 52.9729 62.3412L52.4074 61.9914L48.9345 60.2513L48.5122 59.9668C46.6852 58.6382 45.3566 57.3748 44.7802 55.1001C44.3935 53.5679 44.4926 52.0755 45.0774 50.6231C47.035 45.7582 52.6467 45.9249 56.8337 46.8729Z" fill="#D51C1E"/>
<path d="M36.8935 46.679C44.731 46.7642 45.6119 59.327 38.9308 61.5002C37.3249 62.0223 34.983 61.8627 33.1016 61.8446C33.0062 61.8434 32.9584 61.8905 32.9584 61.986V70.9672C32.9584 71.0361 32.9246 71.0705 32.8569 71.0705L27.7093 71.1013C27.5546 71.1025 27.4773 71.0264 27.4773 70.873L27.4736 46.7624C27.4736 46.6971 27.5063 46.6639 27.5715 46.6627C29.8529 46.6312 32.9602 46.6367 36.8935 46.679ZM32.9222 51.3499L32.9512 57.1864C32.9512 57.197 32.9533 57.2075 32.9574 57.2173C32.9615 57.2271 32.9676 57.236 32.9752 57.2434C32.9828 57.2508 32.9918 57.2567 33.0017 57.2606C33.0115 57.2645 33.0221 57.2663 33.0327 57.2661L35.2839 57.2534C35.9681 57.2495 36.6228 56.9789 37.1041 56.501C37.5853 56.0232 37.8538 55.3771 37.8505 54.705L37.8469 53.7806C37.8453 53.4474 37.7768 53.1178 37.6455 52.8107C37.5141 52.5035 37.3224 52.2248 37.0814 51.9905C36.8403 51.7562 36.5546 51.5708 36.2406 51.4451C35.9266 51.3193 35.5904 51.2556 35.2513 51.2575L33.0001 51.2702C32.9793 51.2707 32.9595 51.2793 32.9449 51.2942C32.9303 51.3091 32.9222 51.3291 32.9222 51.3499Z" fill="#D51C1E"/>
<path d="M82.2851 48.3499C82.2984 48.3543 82.3101 48.3626 82.3187 48.3737C82.3273 48.3847 82.3324 48.3981 82.3334 48.4121C82.3344 48.4261 82.3312 48.4401 82.3242 48.4522C82.3172 48.4644 82.3067 48.4742 82.2942 48.4804C80.2061 49.5559 78.0649 49.6682 75.8705 48.8175C75.8344 48.8035 75.8029 48.7799 75.7793 48.7492C75.7557 48.7185 75.741 48.6819 75.7367 48.6435C75.7324 48.605 75.7387 48.5661 75.7549 48.531C75.7712 48.4958 75.7967 48.4658 75.8288 48.4442C77.9513 47.0249 80.0828 47.5687 82.2851 48.3499Z" fill="white"/>
<path d="M60.1382 50.5289L60.1672 48.6656C60.891 48.598 61.8498 48.572 63.0437 48.5877C63.4884 48.5937 63.8678 48.6874 64.182 48.8686C64.2569 48.9121 64.2593 48.9593 64.1892 49.01C62.9966 49.88 61.6462 50.3864 60.1382 50.5289Z" fill="white"/>
<path d="M77.647 51.4696C75.6786 52.6151 73.0413 52.133 71.1399 51.098C71.0602 51.0557 71.0608 51.0146 71.1417 50.9748C71.2662 50.9155 71.3798 50.8449 71.4825 50.7627C72.0462 50.315 73.3966 50.2207 74.0817 50.2443C75.2381 50.2805 76.5214 50.924 77.6398 51.3699C77.7098 51.3977 77.7123 51.4309 77.647 51.4696Z" fill="white"/>
<path d="M55.1955 51.4478L55.8571 51.5946C54.8952 52.9105 53.8892 54.143 52.8392 55.2922L52.27 54.8898C53.1678 53.6863 54.143 52.5389 55.1955 51.4478Z" fill="white"/>
<path d="M66.8385 53.6592C66.8723 53.5529 66.9472 53.4725 67.0632 53.4181C69.9543 52.0515 72.2073 52.9088 74.9442 54.0181C74.9891 54.0361 75.0273 54.0675 75.0535 54.1081C75.0798 54.1487 75.0928 54.1964 75.0908 54.2447C75.0888 54.293 75.0719 54.3395 75.0424 54.3778C75.0129 54.4161 74.9723 54.4443 74.9261 54.4585C72.1638 55.302 69.4915 55.0917 66.9092 53.8278C66.8367 53.7915 66.8131 53.7353 66.8385 53.6592Z" fill="white"/>
<path d="M79.2059 56.6427C79.5448 55.3848 80.4892 53.7499 81.7634 53.275C81.795 53.2633 81.8292 53.2604 81.8623 53.2666C81.8955 53.2728 81.9263 53.2878 81.9516 53.3101C81.9769 53.3324 81.9956 53.3612 82.0059 53.3933C82.0162 53.4254 82.0175 53.4597 82.0099 53.4925C81.6474 55.0513 80.7327 56.1195 79.2657 56.6971C79.2101 56.7176 79.1902 56.6995 79.2059 56.6427Z" fill="white"/>
<path d="M58.4291 58.5638L57.7983 58.0871C59.8308 56.5065 61.96 55.1084 64.1858 53.8928C64.7585 53.5811 65.1772 53.456 65.7917 53.5194C65.8073 53.5214 65.822 53.5281 65.8337 53.5387C65.8455 53.5492 65.8538 53.563 65.8575 53.5783C65.8612 53.5936 65.8602 53.6097 65.8546 53.6244C65.849 53.6392 65.8391 53.6518 65.8261 53.6608L58.4291 58.5638Z" fill="white"/>
<path d="M75.3543 57.8627C75.9089 56.2966 76.8623 54.5367 78.49 53.866C78.5048 53.8602 78.5209 53.8585 78.5366 53.861C78.5524 53.8635 78.5671 53.8703 78.5793 53.8804C78.5916 53.8906 78.6008 53.9039 78.6061 53.9189C78.6115 53.9339 78.6127 53.9501 78.6096 53.9657C78.2489 55.7674 77.2738 57.3552 75.4485 57.9588C75.4352 57.9634 75.4208 57.9642 75.4071 57.961C75.3933 57.9578 75.3808 57.9508 75.3709 57.9407C75.361 57.9306 75.3542 57.9179 75.3512 57.9041C75.3483 57.8903 75.3494 57.8759 75.3543 57.8627Z" fill="white"/>
<path d="M84.1697 55.6106C84.9626 55.1228 85.4898 54.5393 85.3471 54.3074C85.2044 54.0755 84.446 54.283 83.653 54.7708C82.8601 55.2586 82.3329 55.8421 82.4756 56.074C82.6183 56.3059 83.3768 56.0984 84.1697 55.6106Z" fill="white"/>
<path d="M71.8837 59.5139C72.0523 57.9877 73.0963 55.7329 74.6134 55.0423C74.7935 54.9601 74.8696 55.0169 74.8418 55.2127C74.5808 57.0887 73.834 58.729 72.0577 59.6335C71.9248 59.7012 71.8668 59.6613 71.8837 59.5139Z" fill="white"/>
<path d="M67.7943 61.7686C67.9212 60.2515 68.6353 57.6088 70.2793 57.0088C70.293 57.0036 70.3079 57.0019 70.3224 57.0041C70.337 57.0063 70.3508 57.0121 70.3625 57.0212C70.3743 57.0302 70.3836 57.0421 70.3897 57.0558C70.3957 57.0695 70.3983 57.0845 70.3971 57.0995C70.2431 58.9247 69.8153 60.6992 68.2221 61.8067C68.1556 61.8526 68.1061 61.9191 68.0734 62.0061C68.0493 62.0689 68.0046 62.107 67.9393 62.1202C67.8608 62.1372 67.8136 62.0792 67.7979 61.9462C67.7895 61.887 67.7883 61.8278 67.7943 61.7686Z" fill="white"/>
<path d="M83.9387 58.624C83.9907 58.6711 83.9816 58.6971 83.9115 58.7019C83.1285 58.7623 82.3436 58.6947 81.557 58.4989C80.9226 58.343 80.3988 57.8482 79.7499 57.589C79.6786 57.5612 79.6719 57.5219 79.7299 57.4712C80.9987 56.3601 82.9273 57.7014 83.9387 58.624Z" fill="white"/>
<path fill-rule="evenodd" clip-rule="evenodd" d="M77.8769 59.3538C77.7985 59.0798 77.7162 58.7921 77.8688 58.3354C77.1583 58.3935 76.481 58.594 75.8369 58.9372C75.8234 58.9445 75.812 58.9551 75.8038 58.9681C75.7956 58.9811 75.7909 58.996 75.7901 59.0113C75.7894 59.0266 75.7927 59.0419 75.7996 59.0556C75.8065 59.0693 75.8169 59.081 75.8297 59.0895C76.4713 59.5184 77.1794 59.8091 77.954 59.9613C77.9846 59.7301 77.9317 59.5453 77.8769 59.3538ZM81.4524 59.4774C80.3358 58.855 79.1414 58.4744 77.8689 58.3354C77.7164 58.7921 77.7987 59.0798 77.8771 59.3538C77.9318 59.5453 77.9847 59.7301 77.9541 59.9613C79.1238 60.2646 80.2537 60.203 81.3436 59.7764C81.3738 59.7643 81.4004 59.7468 81.4234 59.7239C81.456 59.6912 81.4783 59.6659 81.4904 59.6477C81.5 59.6342 81.5067 59.6187 81.5099 59.6025C81.5132 59.5862 81.5131 59.5695 81.5095 59.5534C81.5059 59.5373 81.4989 59.5222 81.4891 59.5091C81.4792 59.496 81.4667 59.4852 81.4524 59.4774Z" fill="white"/>
<path d="M64.4391 64.4019C64.6095 62.9718 64.8614 60.4089 66.132 59.5026C66.1715 59.4745 66.2177 59.4575 66.266 59.4534C66.3143 59.4493 66.3629 59.4582 66.4067 59.4793C66.4505 59.5003 66.4879 59.5328 66.5152 59.5732C66.5424 59.6136 66.5584 59.6606 66.5616 59.7092C66.6667 61.4004 66.2843 63.657 64.575 64.4998C64.5596 64.507 64.5425 64.51 64.5255 64.5083C64.5085 64.5067 64.4923 64.5006 64.4784 64.4907C64.4646 64.4807 64.4536 64.4672 64.4467 64.4516C64.4398 64.436 64.4372 64.4189 64.4391 64.4019Z" fill="white"/>
<path d="M77.6435 61.0724C77.6568 61.0797 77.6679 61.0906 77.6754 61.1039C77.6829 61.1172 77.6865 61.1323 77.6857 61.1474C77.685 61.1624 77.6799 61.1769 77.6711 61.189C77.6623 61.2011 77.6502 61.2103 77.6362 61.2156C75.6279 61.995 73.9857 61.627 72.0662 60.8658C72.0294 60.8511 71.9976 60.8262 71.9744 60.794C71.9512 60.7618 71.9377 60.7237 71.9354 60.6842C71.9331 60.6446 71.9422 60.6052 71.9615 60.5706C71.9808 60.536 72.0096 60.5076 72.0445 60.4887C74.0546 59.4175 75.7892 60.09 77.6435 61.0724Z" fill="white"/>
<path d="M48.5126 59.9668L48.9349 60.2514C48.1337 61.4078 47.3417 62.8089 46.3393 63.7985C46.2858 63.8515 46.2138 63.8818 46.1387 63.8828C46.0636 63.8838 45.9912 63.8555 45.9369 63.804C45.7992 63.6747 45.801 63.5128 45.9424 63.3182C46.7453 62.2035 47.4994 60.8948 48.5126 59.9668Z" fill="white"/>
<path d="M62.6063 65.4968C62.3127 65.7748 62.0789 65.7506 61.9049 65.4243C61.8694 65.3581 61.8543 65.2824 61.8614 65.2068C61.8928 64.8516 61.8698 64.4866 61.7925 64.112C61.6928 63.6245 61.8052 63.3054 61.8124 62.8269C62.1133 61.8832 62.6166 61.0645 63.3223 60.3709C63.3354 60.3577 63.3517 60.3481 63.3695 60.3429C63.3874 60.3376 63.4064 60.337 63.4247 60.3409C63.443 60.3449 63.4601 60.3533 63.4745 60.3655C63.4889 60.3777 63.5001 60.3933 63.5072 60.4108C63.7047 60.9147 63.6087 61.4204 63.6032 61.8681C63.5827 63.2009 63.2504 64.4105 62.6063 65.4968Z" fill="white"/>
<path d="M73.9697 62.8797C74.0192 62.9087 74.0434 62.9516 74.0422 63.0084C74.0398 63.1087 73.9691 63.1776 73.8301 63.215C72.345 63.615 70.8835 63.5558 69.4455 63.0374C69.0268 62.887 68.7604 62.8779 68.4124 62.5281C68.4008 62.5168 68.3923 62.5028 68.3875 62.4873C68.3828 62.4719 68.382 62.4554 68.3853 62.4395C68.3885 62.4235 68.3956 62.4085 68.4061 62.3958C68.4165 62.3831 68.4299 62.3731 68.445 62.3668C68.8027 62.2218 69.1634 62.0647 69.5271 61.8955C70.7306 61.3336 72.8985 62.2453 73.9697 62.8797Z" fill="white"/>
<path d="M52.4076 61.9915L52.9731 62.3413C51.5654 63.5545 50.0718 64.6396 48.4925 65.5966L47.936 65.3302C49.3208 64.1387 50.8113 63.0258 52.4076 61.9915Z" fill="white"/>
<path d="M72.0333 64.9024C72.1324 64.9495 72.1379 65.0051 72.0497 65.0691C71.3065 65.6057 70.0975 65.7978 69.2076 65.8612C68.0022 65.9446 66.7081 65.5567 65.4882 65.2395C65.4548 65.2309 65.4247 65.2125 65.4018 65.1866C65.3789 65.1608 65.3642 65.1288 65.3595 65.0946C65.3548 65.0604 65.3605 65.0256 65.3756 64.9946C65.3908 64.9636 65.4149 64.9378 65.4447 64.9205C67.6615 63.6227 69.7803 63.8348 72.0333 64.9024Z" fill="white"/>
<path d="M62.685 67.7679C62.6621 67.7606 62.6402 67.7515 62.6197 67.7407C62.366 67.5957 62.2917 67.4404 62.3968 67.2748C62.4294 67.2241 62.485 67.1866 62.5635 67.1625C63.4299 66.896 64.0281 66.4538 65.0522 66.3939C66.3771 66.3196 67.7964 66.6948 69.0525 67.1679C69.0791 67.178 69.1025 67.1949 69.1206 67.2168C69.1386 67.2388 69.1506 67.2651 69.1554 67.2931C69.1602 67.3211 69.1575 67.3499 69.1477 67.3766C69.1379 67.4033 69.1214 67.4269 69.0996 67.4452C69.0706 67.4694 69.0325 67.5075 68.9854 67.5594C68.948 67.6005 68.9045 67.6301 68.8549 67.6482C66.8188 68.3926 64.7622 68.4325 62.685 67.7679Z" fill="white"/>
</svg>
