<svg width="100" height="100" viewBox="0 0 100 100" fill="none" xmlns="http://www.w3.org/2000/svg">
<rect width="100" height="100" fill="#F7D98F"/>
<path d="M63.1229 38.8286C61.0365 42.4791 58.6425 45.7768 55.9408 48.7215C55.5219 49.1765 55.5581 49.2166 56.0494 48.8417C59.4517 46.2357 62.3887 43.1151 64.8603 39.4801C65.3153 38.6528 65.7096 37.8681 66.0431 37.1261C66.1775 36.8314 66.3236 36.6685 66.4813 36.6375C66.683 36.6013 66.8846 36.7293 67.0863 37.0214C67.1535 37.1197 67.1548 37.2179 67.0902 37.3162L64.9883 40.4302C61.9117 44.1687 59.144 47.0048 56.6854 48.9387C54.1103 50.9604 52.2851 52.5272 51.2095 53.6389C50.9536 53.7242 50.7778 53.6828 50.6821 53.5148C55.871 48.5237 61.7268 42.0241 63.0958 34.9738C63.1501 34.6894 63.2173 34.4658 63.2974 34.3029C63.4009 34.0935 63.5818 33.9927 63.8404 34.0004C64.4182 34.0198 64.6005 34.4464 64.4802 34.9816C64.1803 36.3053 63.7279 37.5876 63.1229 38.8286Z" fill="#646465"/>
<path d="M39.5833 40.9696C40.633 44.8218 40.8101 48.7981 40.1146 52.8985C40.1108 52.9122 40.1097 52.9266 40.1115 52.9407C40.1132 52.9549 40.1177 52.9686 40.1247 52.981C40.1318 52.9934 40.1412 53.0044 40.1524 53.0132C40.1636 53.0219 40.1765 53.0284 40.1903 53.0323C40.204 53.0361 40.2184 53.0371 40.2325 53.0354C40.2467 53.0337 40.2604 53.0292 40.2728 53.0222C40.2852 53.0151 40.2962 53.0057 40.305 52.9945C40.3137 52.9832 40.3202 52.9704 40.3241 52.9566C41.2186 50.666 41.8365 48.2642 42.1778 45.7512C42.4001 44.1095 42.373 42.6333 42.0963 41.3225L41.6038 38.984C41.5983 38.9563 41.5986 38.9278 41.6047 38.9003C41.6109 38.8727 41.6228 38.8468 41.6396 38.8241C41.6564 38.8015 41.6778 38.7826 41.7023 38.7687C41.7269 38.7548 41.7541 38.7463 41.7822 38.7436C42.2204 38.6893 42.5035 38.9607 42.5772 39.3951C42.7091 40.1707 42.8461 40.9592 42.9883 41.7607C43.0464 45.9451 42.0769 49.4121 41.0182 53.1156C40.7881 53.9145 40.9122 53.9753 41.3905 53.2979C43.6217 50.1334 44.9376 46.4867 45.3384 42.3579C45.1316 41.5513 45.1458 40.8907 45.381 40.3762C45.4177 40.2965 45.4807 40.2319 45.5595 40.1934C45.6383 40.1549 45.728 40.1449 45.8134 40.165C45.8988 40.1851 45.9746 40.2341 46.028 40.3037C46.0813 40.3733 46.109 40.4592 46.1062 40.5469L45.986 43.2848C45.1613 47.2714 43.6437 51.0073 41.4332 54.4923C41.3972 54.5386 41.381 54.5973 41.3883 54.6555C41.3956 54.7137 41.4257 54.7666 41.472 54.8026C41.5182 54.8386 41.5769 54.8547 41.6351 54.8475C41.6933 54.8402 41.7462 54.8101 41.7822 54.7638C43.8841 52.5456 47.6846 47.3024 47.7156 44.1379L47.894 43.6144C47.9298 43.5121 47.9443 43.4052 47.9367 43.3003C47.9031 42.7987 48.0246 42.345 48.3012 41.9391C48.3169 41.9165 48.3369 41.8972 48.36 41.8825C48.3832 41.8678 48.409 41.858 48.4359 41.8537C48.4627 41.8493 48.4901 41.8505 48.5163 41.8572C48.5425 41.8639 48.567 41.8759 48.5882 41.8925C49.3017 42.4393 48.5572 44.1224 48.4176 44.867C46.8922 48.8614 44.7205 52.4124 41.9024 55.52C41.8507 55.5769 41.8132 55.6402 41.79 55.7101C41.7615 55.8057 41.7473 55.8755 41.7473 55.9195C41.7473 55.9612 41.7594 56.0021 41.7821 56.0372C41.8047 56.0723 41.837 56.1001 41.8751 56.1173C41.9132 56.1344 41.9554 56.1403 41.9967 56.1341C42.038 56.1279 42.0766 56.1099 42.108 56.0823C45.35 53.1854 48.2547 49.7301 49.6508 45.6116L50.1472 43.851C50.1566 43.8181 50.1737 43.7879 50.1971 43.7629C50.2204 43.7379 50.2493 43.7188 50.2814 43.7071C50.3136 43.6954 50.348 43.6914 50.382 43.6955C50.4159 43.6996 50.4484 43.7117 50.4768 43.7307L50.7483 43.9091C50.7966 43.9431 50.8329 43.9913 50.8518 44.0464C50.8706 44.1016 50.8711 44.1609 50.853 44.2155L50.1317 46.4609C48.2495 50.3286 45.6241 53.718 42.2553 56.6292C42.1752 56.699 42.1274 56.7701 42.1118 56.8424C42.0937 56.9226 42.0976 57.0182 42.1235 57.1294C42.1288 57.1531 42.14 57.175 42.156 57.1932C42.1721 57.2114 42.1925 57.2252 42.2154 57.2333C42.2382 57.2414 42.2628 57.2437 42.2867 57.2397C42.3107 57.2358 42.3332 57.2259 42.3523 57.2109C45.7339 54.5505 49.1893 51.5528 51.2718 47.6127C51.445 47.0827 51.6325 46.5824 51.8341 46.1119C51.966 45.8068 52.1767 45.7189 52.4662 45.8482C52.5278 45.8762 52.5763 45.9269 52.6016 45.9897C52.6268 46.0525 52.627 46.1226 52.602 46.1855C50.7715 50.8586 46.591 54.7211 42.5268 57.6568C42.3743 57.768 42.2838 57.9193 42.2553 58.1106C42.2321 58.2734 42.2915 58.3135 42.4337 58.2308C46.7332 55.7178 50.3062 52.415 53.1527 48.3224C53.3414 48.0483 53.5469 47.8596 53.7693 47.7562C53.8127 47.735 53.862 47.729 53.9093 47.739C53.9565 47.749 53.9991 47.7745 54.0303 47.8114C54.0614 47.8484 54.0794 47.8947 54.0813 47.9429C54.0832 47.9912 54.0689 48.0388 54.0407 48.078C50.2015 53.5732 44.0121 59.5261 37.241 60.5033C36.0724 60.6714 35.2296 60.895 34.7125 61.1742C35.6432 60.1621 36.861 59.2624 37.5474 58.1881C41.852 51.4597 37.7335 42.9784 31.897 38.7048C31.8582 38.676 31.8299 38.635 31.8166 38.5881C31.8033 38.5411 31.8057 38.4909 31.8234 38.445L31.9707 38.0649C31.9843 38.03 32.0055 37.9985 32.0327 37.9728C32.06 37.947 32.0926 37.9277 32.1283 37.9162C32.1639 37.9047 32.2017 37.9013 32.2389 37.9062C32.276 37.9111 32.3116 37.9243 32.343 37.9447C33.7107 38.803 34.9129 39.8204 35.9496 40.9967C37.559 43.2615 38.9512 45.3401 39.4942 48.0121C39.6519 48.7877 39.7553 48.7813 39.8044 47.9927C39.9543 45.6116 39.5743 43.2835 38.6642 41.0083L36.9269 38.4178C36.895 38.3711 36.8752 38.3172 36.8694 38.2609C36.8635 38.2047 36.8717 38.1478 36.8932 38.0955C36.9148 38.0432 36.949 37.9971 36.9927 37.9613C37.0365 37.9255 37.0885 37.9011 37.144 37.8904L37.3186 37.8594C37.4504 37.8335 37.5538 37.8762 37.6288 37.9873L39.5833 40.9696Z" fill="#646465"/>
<path d="M64.8605 39.4803C62.3889 43.1153 59.4519 46.2359 56.0496 48.8419C55.5584 49.2168 55.5222 49.1767 55.941 48.7217C58.6427 45.777 61.0368 42.4793 63.1232 38.8288C63.86 38.5806 64.4391 38.7977 64.8605 39.4803Z" fill="#C9C9C9"/>
<path d="M66.5122 42.7261C64.3366 44.5992 62.0447 46.7865 59.9971 48.4036C57.2825 50.5417 54.4515 52.5001 51.5042 54.2789C51.4861 54.2903 51.4652 54.2965 51.4439 54.2969C51.4225 54.2972 51.4015 54.2917 51.383 54.2809C51.3646 54.2701 51.3495 54.2544 51.3394 54.2356C51.3293 54.2167 51.3246 54.1955 51.3258 54.1742C51.3284 54.1276 51.3284 54.0837 51.3258 54.0423C51.3206 53.9673 51.3503 53.9104 51.415 53.8717C57.0175 50.5469 61.9917 46.5305 66.3377 41.8226L68.2574 39.647C68.3224 39.5858 68.4065 39.5527 68.4934 39.5543C68.5803 39.5558 68.6636 39.5919 68.7272 39.6554C68.7907 39.7189 68.8298 39.8053 68.8369 39.8977C68.8439 39.9901 68.8184 40.0818 68.7654 40.155L66.5122 42.7261Z" fill="#646465"/>
<path d="M64.9884 40.4304C65.596 40.5571 66.0458 41.0212 66.338 41.8226C61.992 46.5306 57.0177 50.547 51.4152 53.8718C51.3506 53.9105 51.3208 53.9674 51.326 54.0424C51.3286 54.0838 51.3286 54.1277 51.326 54.1742C51.3248 54.1956 51.3296 54.2168 51.3397 54.2357C51.3498 54.2545 51.3649 54.2702 51.3833 54.281C51.4017 54.2918 51.4228 54.2973 51.4441 54.297C51.4655 54.2966 51.4863 54.2904 51.5044 54.279C54.4517 52.5002 57.2827 50.5418 59.9973 48.4037C62.045 46.7866 64.3369 44.5993 66.5125 42.7262C67.0295 43.0416 67.4535 43.5199 67.7845 44.1611C66.5332 45.3245 65.3697 46.285 64.2942 47.0425C60.4446 49.7546 56.2563 52.2986 51.7293 54.6745C51.6475 54.7173 51.5549 54.7351 51.463 54.7255C51.3712 54.7159 51.2842 54.6794 51.213 54.6206C51.1418 54.5618 51.0895 54.4833 51.0627 54.395C51.0359 54.3066 51.0357 54.2123 51.0623 54.1238L51.2097 53.6391C52.2852 52.5274 54.1105 50.9606 56.6855 48.9389C59.1442 47.005 61.9118 44.1689 64.9884 40.4304Z" fill="#C9C9C9"/>
<path d="M38.6639 41.0082C39.5739 43.2833 39.954 45.6114 39.804 47.9925C39.7549 48.7811 39.6515 48.7875 39.4938 48.0119C38.9508 45.3399 37.5586 43.2613 35.9492 40.9965C36.6447 40.707 37.5496 40.7108 38.6639 41.0082Z" fill="#C9C9C9"/>
<path d="M42.096 41.3221C42.3726 42.6329 42.3998 44.1092 42.1774 45.7509C41.8362 48.2638 41.2183 50.6657 40.3237 52.9563C40.3199 52.97 40.3134 52.9829 40.3046 52.9941C40.2958 53.0054 40.2849 53.0148 40.2725 53.0218C40.2601 53.0288 40.2464 53.0333 40.2322 53.0351C40.218 53.0368 40.2037 53.0357 40.1899 53.0319C40.1762 53.0281 40.1633 53.0216 40.1521 53.0128C40.1408 53.004 40.1314 52.9931 40.1244 52.9807C40.1174 52.9683 40.1129 52.9546 40.1111 52.9404C40.1094 52.9262 40.1105 52.9119 40.1143 52.8981C40.8098 48.7977 40.6327 44.8214 39.583 40.9692C40.2578 40.8865 41.0955 41.0041 42.096 41.3221Z" fill="#C9C9C9"/>
<path d="M42.9879 41.7605L45.338 42.3577C44.9373 46.4866 43.6213 50.1332 41.3902 53.2977C40.9119 53.9751 40.7878 53.9143 41.0179 53.1154C42.0766 49.4119 43.0461 45.9449 42.9879 41.7605Z" fill="#C9C9C9"/>
<path d="M67.5789 45.0995C61.8083 49.3189 57.5231 52.1576 51.4462 55.26C51.4076 55.2786 51.375 55.3076 51.3517 55.3438C51.3284 55.3801 51.3155 55.4222 51.3143 55.4656L51.2678 56.5863C51.2652 56.6484 51.2936 56.6691 51.3531 56.6484C57.3977 54.5672 63.2251 52.1111 68.8354 49.2801C69.5774 48.7268 70.2715 48.3687 70.9179 48.2058C70.9893 48.1852 71.0658 48.1922 71.1322 48.2256C71.1987 48.259 71.25 48.3163 71.276 48.3859C71.302 48.4555 71.3007 48.5324 71.2724 48.6011C71.2441 48.6699 71.1909 48.7254 71.1234 48.7565L68.9789 49.8346C63.1773 52.6087 57.2736 55.0506 51.2678 57.1603C51.1385 57.2068 51.0467 57.2676 50.9924 57.3425C50.9278 57.433 50.8826 57.5339 50.8567 57.645C50.8495 57.6733 50.8502 57.7028 50.8586 57.7307C50.8671 57.7585 50.883 57.7837 50.9048 57.8035C50.9265 57.8232 50.9533 57.837 50.9824 57.8432C51.0114 57.8494 51.0417 57.848 51.07 57.8389L68.816 51.8086L71.17 50.9825C71.2656 50.9489 71.3328 50.9787 71.3716 51.0717C71.3845 51.1053 71.3975 51.1415 71.4104 51.1803C71.4285 51.232 71.4117 51.2682 71.36 51.2889L68.4863 52.4252C62.7856 54.3125 57.103 56.2606 51.4384 58.2694C50.3215 58.665 49.9996 59.3436 49.5886 60.3674C49.7308 60.1813 49.7269 60.2162 49.5769 60.4721C49.2512 60.4127 49.0095 60.5122 48.8517 60.7707C48.8358 60.7972 48.8275 60.8276 48.8278 60.8585C48.8281 60.8894 48.837 60.9197 48.8535 60.9458C48.87 60.972 48.8934 60.993 48.9212 61.0066C48.949 61.0202 48.98 61.0258 49.0107 61.0228L66.6171 58.8783L68.8897 58.6882C69.0629 58.6727 69.1185 58.7464 69.0564 58.9093C68.9633 59.1497 68.7746 59.2829 68.4902 59.3087C61.7321 59.9421 54.9907 60.7216 48.2662 61.6472C47.7801 61.7144 47.3794 61.8191 47.064 61.9613C47.0284 61.9783 46.9998 62.0074 46.9832 62.0435C46.9666 62.0795 46.9631 62.1201 46.9734 62.1579C46.9837 62.1958 47.007 62.2284 47.0393 62.2499C47.0715 62.2715 47.1105 62.2805 47.1493 62.2754C51.5935 61.6976 56.3791 61.461 60.3036 61.1081C62.4443 60.9142 64.5902 60.7746 66.7412 60.6893C66.7984 60.6874 66.8547 60.7041 66.9016 60.737C66.9485 60.7699 66.9834 60.8171 67.001 60.8716L67.0437 61.0112C67.0928 61.1715 67.0334 61.2581 66.8653 61.271L52.2528 62.2056C52.1863 62.2095 52.1236 62.2385 52.0776 62.2867C52.0316 62.3349 52.0055 62.3988 52.0046 62.4655C52.0046 62.6749 52.1339 62.7705 52.3924 62.7524C57.3667 62.406 62.3448 62.2147 67.3268 62.1785C68.3144 62.1707 69.2917 62.057 70.2586 61.8372C70.3879 61.8062 70.4654 61.8566 70.4913 61.9885L70.6774 62.9812C70.6845 63.0196 70.6807 63.0593 70.6663 63.0963C70.652 63.1332 70.6276 63.1658 70.596 63.1907L68.529 64.769C66.4116 63.9585 63.7784 64.2222 61.5446 64.2377C60.4549 64.2494 58.702 64.5092 57.2439 64.3347C57.1585 64.3269 57.0836 64.3489 57.0189 64.4006C56.9052 64.4937 56.922 64.5441 57.0694 64.5519C60.9125 64.7845 64.6238 65.277 68.4786 64.9707C68.7113 65.1775 69.0952 65.2939 69.6304 65.3197C77.2391 65.661 82.1591 65.904 84.3902 66.0488C86.3551 66.178 88.1416 65.9648 89.7497 65.4089C89.8919 65.3598 89.9514 65.4089 89.9281 65.5563C89.9203 65.6028 89.9165 65.6519 89.9165 65.7036C89.9165 65.7502 89.9397 65.7734 89.9863 65.7734C90.9222 65.7864 91.8361 65.67 92.7281 65.4244C92.8082 65.4011 92.8703 65.405 92.9142 65.436C92.9452 65.4567 92.9685 65.4839 92.984 65.5175C93.0176 65.5847 92.9982 65.63 92.9258 65.6532C90.5421 66.3642 88.7634 66.6977 87.5896 66.6538C80.8573 66.4017 74.1328 65.9324 67.4005 65.723C56.5419 65.3895 45.567 64.4355 35.4298 63.2643C26.6964 62.256 19.2738 60.4334 8.96596 57.3425C8.13864 57.0969 7.50005 56.8449 7.0502 56.5863C7.02927 56.5724 7.01361 56.5519 7.00571 56.528C6.9978 56.5042 6.99812 56.4784 7.0066 56.4547C7.01508 56.4311 7.03123 56.4109 7.05249 56.3975C7.07375 56.3841 7.09888 56.3782 7.12388 56.3808C10.079 56.8617 11.9521 57.2495 14.9769 56.6794C16.8229 56.3343 17.8583 57.9281 19.2195 58.824C19.765 59.1833 20.4153 59.447 21.1702 59.6151C24.464 60.3442 27.9464 60.9297 31.6177 61.3718C32.8018 61.514 33.8333 61.4481 34.7124 61.1741L34.9257 61.2477C35.011 61.2762 35.1002 61.2852 35.1932 61.2749C41.2947 60.5484 46.4577 57.9617 50.6822 53.5149C50.7779 53.683 50.9537 53.7243 51.2096 53.639L51.0622 54.1238C51.0357 54.2122 51.0358 54.3065 51.0626 54.3949C51.0894 54.4833 51.1417 54.5618 51.2129 54.6206C51.2841 54.6794 51.3711 54.7158 51.463 54.7254C51.5548 54.735 51.6474 54.7173 51.7293 54.6744C56.2562 52.2985 60.4445 49.7545 64.2942 47.0424C65.3697 46.2849 66.5331 45.3245 67.7844 44.161L69.2232 42.8231C69.3009 42.7505 69.4003 42.7055 69.5061 42.695C69.6119 42.6845 69.7183 42.7091 69.8088 42.7649C70.0725 42.9226 70.0712 43.114 69.8049 43.3389C69.081 43.9568 68.339 44.5437 67.5789 45.0995ZM16.1746 57.6033C16.1714 57.5361 16.1517 57.4704 16.1167 57.4099C16.0816 57.3494 16.0319 57.2952 15.9703 57.2505C15.9087 57.2058 15.8365 57.1715 15.7577 57.1495C15.6789 57.1274 15.5952 57.1181 15.5113 57.1221C15.3417 57.1301 15.1817 57.1916 15.0664 57.2931C14.951 57.3947 14.8898 57.5279 14.8962 57.6635C14.8994 57.7307 14.919 57.7964 14.9541 57.8569C14.9891 57.9174 15.0389 57.9716 15.1005 58.0163C15.1621 58.061 15.2343 58.0953 15.3131 58.1173C15.3918 58.1394 15.4756 58.1487 15.5595 58.1447C15.729 58.1367 15.889 58.0752 16.0044 57.9737C16.1197 57.8721 16.181 57.7389 16.1746 57.6033ZM56.0533 63.7103C59.2488 63.4156 62.4392 63.3988 65.6243 63.6599C66.842 63.7607 69.2193 63.974 70.1112 62.9657C70.1378 62.9363 70.155 62.8997 70.1605 62.8605C70.166 62.8213 70.1597 62.7813 70.1424 62.7453C70.125 62.7093 70.0974 62.6791 70.0629 62.6583C70.0284 62.6375 69.9886 62.6271 69.9484 62.6283C65.5248 62.8274 61.0754 63.0084 56.6001 63.1713C56.5794 63.1713 56.4915 63.1661 56.3364 63.1558C56.083 63.1402 55.9318 63.2618 55.8827 63.5203C55.8784 63.5449 55.8798 63.5702 55.8866 63.5942C55.8935 63.6181 55.9056 63.6401 55.9221 63.6585C55.9386 63.6769 55.959 63.6911 55.9818 63.7001C56.0045 63.7091 56.029 63.7126 56.0533 63.7103Z" fill="#706F6F"/>
<path d="M45.9861 43.2847C46.5963 43.4165 47.1728 43.7009 47.7157 44.1378C47.6847 47.3023 43.8842 52.5455 41.7823 54.7637C41.7463 54.81 41.6934 54.8401 41.6352 54.8474C41.577 54.8546 41.5184 54.8385 41.4721 54.8025C41.4258 54.7665 41.3957 54.7136 41.3884 54.6554C41.3812 54.5972 41.3973 54.5385 41.4333 54.4922C43.6438 51.0072 45.1614 47.2713 45.9861 43.2847Z" fill="#C9C9C9"/>
<path d="M48.4173 44.8669L49.6505 45.6115C48.2544 49.73 45.3498 53.1854 42.1077 56.0823C42.0764 56.1099 42.0377 56.1278 41.9964 56.134C41.9551 56.1402 41.9129 56.1344 41.8749 56.1172C41.8368 56.1 41.8045 56.0722 41.7818 56.0371C41.7592 56.002 41.7471 55.9612 41.7471 55.9194C41.7471 55.8754 41.7613 55.8056 41.7897 55.71C41.813 55.6402 41.8505 55.5768 41.9022 55.52C44.7202 52.4123 46.892 48.8613 48.4173 44.8669Z" fill="#C9C9C9"/>
<path d="M67.5788 45.0994L68.5755 46.5924C63.2781 50.2184 57.5735 53.0765 51.6904 55.7291C51.5431 55.7963 51.5302 55.8842 51.6517 55.9928C51.7396 56.0704 51.8637 56.0743 52.024 56.0045C57.9574 53.401 63.4435 50.5286 68.4824 47.3874L68.8353 49.2799C63.2251 52.1109 57.3977 54.567 51.3531 56.6482C51.2936 56.6689 51.2652 56.6482 51.2677 56.5862L51.3143 55.4654C51.3155 55.422 51.3284 55.3799 51.3517 55.3437C51.3749 55.3074 51.4076 55.2784 51.4461 55.2599C57.523 52.1574 61.8083 49.3187 67.5788 45.0994Z" fill="#C9C9C9"/>
<path d="M68.4825 47.3875C63.4436 50.5288 57.9574 53.4011 52.024 56.0046C51.8637 56.0744 51.7396 56.0705 51.6517 55.9929C51.5302 55.8844 51.5431 55.7965 51.6905 55.7292C57.5735 53.0767 63.2781 50.2185 68.5755 46.5925L70.6774 45.3399C70.7372 45.3106 70.8057 45.3045 70.8697 45.323C70.9337 45.3415 70.9885 45.3831 71.0234 45.4398C71.0582 45.4965 71.0707 45.5642 71.0584 45.6296C71.0461 45.6951 71.0098 45.7536 70.9567 45.7937L68.4825 47.3875Z" fill="#646465"/>
<path d="M50.1316 46.4607L51.2717 47.6125C49.1892 51.5526 45.7339 54.5503 42.3522 57.2107C42.3331 57.2257 42.3106 57.2356 42.2867 57.2395C42.2627 57.2435 42.2382 57.2412 42.2153 57.2331C42.1925 57.225 42.172 57.2112 42.156 57.193C42.1399 57.1748 42.1287 57.1529 42.1234 57.1292C42.0975 57.0181 42.0937 56.9224 42.1118 56.8422C42.1273 56.7699 42.1751 56.6988 42.2553 56.629C45.624 53.7178 48.2494 50.3284 50.1316 46.4607Z" fill="#C9C9C9"/>
<path d="M68.9791 49.8347C68.6301 50.8016 68.5758 51.4596 68.8163 51.8086L51.0703 57.839C51.042 57.8481 51.0117 57.8495 50.9827 57.8433C50.9536 57.837 50.9268 57.8233 50.9051 57.8035C50.8833 57.7837 50.8674 57.7586 50.8589 57.7308C50.8505 57.7029 50.8498 57.6733 50.857 57.6451C50.8829 57.5339 50.9281 57.4331 50.9927 57.3426C51.047 57.2677 51.1388 57.2069 51.2681 57.1604C57.2739 55.0507 63.1776 52.6088 68.9791 49.8347Z" fill="#C9C9C9"/>
<path d="M68.4861 52.425L68.6025 54.3137C64.3237 55.4512 60.0165 56.5461 55.6808 57.5984C54.0443 57.9965 52.4232 58.4515 50.8177 58.9634C50.66 59.0126 50.5527 59.0953 50.4958 59.2116C50.4854 59.233 50.4813 59.257 50.484 59.2807C50.4868 59.3043 50.4963 59.3267 50.5114 59.3451C50.5265 59.3635 50.5467 59.3771 50.5693 59.3844C50.592 59.3917 50.6163 59.3923 50.6393 59.3862L67.2607 55.1552C67.726 55.5559 67.8295 56.0665 67.5709 56.687C67.0177 56.8422 66.4088 56.9779 65.7444 57.0942C60.9924 57.9345 56.247 58.8096 51.508 59.7197C50.6898 59.8748 50.3911 59.7701 49.5884 60.3673C49.9995 59.3435 50.3213 58.6648 51.4382 58.2693C57.1028 56.2604 62.7854 54.3124 68.4861 52.425Z" fill="#C9C9C9"/>
<path d="M67.2609 55.1553L50.6396 59.3863C50.6165 59.3924 50.5922 59.3918 50.5696 59.3846C50.5469 59.3773 50.5268 59.3636 50.5116 59.3452C50.4965 59.3268 50.487 59.3045 50.4842 59.2808C50.4815 59.2571 50.4856 59.2332 50.4961 59.2118C50.5529 59.0954 50.6602 59.0127 50.8179 58.9636C52.4235 58.4517 54.0445 57.9967 55.681 57.5985C60.0167 56.5463 64.3239 55.4514 68.6027 54.3138C69.3214 54.1277 70.0285 53.9493 70.724 53.7786C70.9619 53.7217 71.0834 53.7903 71.0885 53.9842C71.0898 54.0269 71.0764 54.069 71.0503 54.1034C71.0243 54.1379 70.9872 54.1629 70.945 54.1742L67.2609 55.1553Z" fill="#646465"/>
<path d="M66.9586 57.4007C62.0645 58.153 57.2169 59.054 52.4159 60.1037C51.5472 60.2937 50.5234 60.2976 49.5771 60.4721C49.7271 60.2161 49.731 60.1812 49.5888 60.3674C50.3915 59.7702 50.6902 59.8749 51.5084 59.7197C56.2474 58.8097 60.9929 57.9345 65.7448 57.0943C66.4092 56.978 67.0181 56.8422 67.5713 56.6871L69.5414 56.2877C69.6551 56.2644 69.7392 56.3045 69.7935 56.4079C69.9563 56.7078 69.9007 56.8797 69.6267 56.9237C68.7115 57.0736 67.8221 57.2326 66.9586 57.4007Z" fill="#646465"/>
<path d="M16.1743 57.6032C16.1807 57.7388 16.1195 57.872 16.0042 57.9736C15.8888 58.0751 15.7288 58.1366 15.5593 58.1446C15.4753 58.1486 15.3916 58.1393 15.3128 58.1172C15.2341 58.0952 15.1618 58.0609 15.1002 58.0162C15.0386 57.9715 14.9889 57.9173 14.9538 57.8568C14.9188 57.7963 14.8991 57.7306 14.896 57.6634C14.8896 57.5278 14.9508 57.3946 15.0661 57.2931C15.1815 57.1915 15.3415 57.13 15.511 57.122C15.595 57.118 15.6787 57.1273 15.7575 57.1494C15.8362 57.1714 15.9085 57.2057 15.9701 57.2504C16.0316 57.2951 16.0814 57.3493 16.1164 57.4098C16.1515 57.4703 16.1712 57.536 16.1743 57.6032ZM15.4964 57.8505C15.5662 57.8867 15.6308 57.8776 15.6903 57.8233C15.7911 57.7328 15.8144 57.6165 15.7601 57.4743C15.7363 57.4101 15.6865 57.3515 15.6217 57.3116C15.5569 57.2716 15.4824 57.2535 15.4145 57.2612C15.3466 57.2689 15.291 57.3018 15.2598 57.3527C15.2286 57.4036 15.2244 57.4682 15.2482 57.5325C15.2999 57.6876 15.3826 57.7936 15.4964 57.8505Z" fill="white"/>
<path d="M15.4963 57.8506C15.3826 57.7937 15.2999 57.6877 15.2481 57.5326C15.2244 57.4683 15.2285 57.4036 15.2597 57.3528C15.2909 57.3019 15.3466 57.269 15.4145 57.2613C15.4824 57.2535 15.5569 57.2717 15.6217 57.3116C15.6865 57.3516 15.7363 57.4101 15.76 57.4744C15.8143 57.6166 15.7911 57.7329 15.6902 57.8234C15.6308 57.8777 15.5661 57.8867 15.4963 57.8506Z" fill="#706F6F"/>
<path d="M66.9587 57.4006L66.6174 58.8782L49.0111 61.0227C48.9803 61.0257 48.9493 61.0201 48.9215 61.0065C48.8938 60.9929 48.8703 60.9719 48.8538 60.9457C48.8373 60.9196 48.8284 60.8894 48.8281 60.8585C48.8278 60.8275 48.8361 60.7971 48.8521 60.7707C49.0098 60.5121 49.2515 60.4126 49.5773 60.4721C50.5235 60.2975 51.5473 60.2937 52.416 60.1036C57.217 59.054 62.0646 58.153 66.9587 57.4006Z" fill="#C9C9C9"/>
<path d="M56.0534 63.7103C56.0291 63.7125 56.0046 63.709 55.9819 63.7C55.9591 63.6911 55.9387 63.6768 55.9222 63.6585C55.9057 63.6401 55.8936 63.6181 55.8868 63.5941C55.8799 63.5701 55.8785 63.5449 55.8828 63.5202C55.9319 63.2617 56.0831 63.1402 56.3365 63.1557C56.4916 63.166 56.5795 63.1712 56.6002 63.1712C61.0755 63.0083 65.5249 62.8274 69.9485 62.6283C69.9887 62.627 70.0285 62.6374 70.063 62.6582C70.0975 62.679 70.1251 62.7093 70.1425 62.7452C70.1599 62.7812 70.1662 62.8213 70.1606 62.8605C70.1551 62.8997 70.1379 62.9362 70.1113 62.9657C69.2194 63.974 66.8422 63.7607 65.6244 63.6598C62.4393 63.3987 59.2489 63.4155 56.0534 63.7103Z" fill="#D39675"/>
<path d="M68.5292 64.769L68.4788 64.9707C64.624 65.277 60.9127 64.7845 57.0696 64.5518C56.9222 64.5441 56.9054 64.4937 57.0192 64.4006C57.0838 64.3489 57.1588 64.3269 57.2441 64.3347C58.7022 64.5092 60.4551 64.2493 61.5448 64.2377C63.7786 64.2222 66.4118 63.9585 68.5292 64.769Z" fill="#D39675"/>
</svg>
