<svg width="100" height="100" viewBox="0 0 100 100" fill="none" xmlns="http://www.w3.org/2000/svg">
<rect width="100" height="100" fill="#FFF8C9"/>
<path d="M59.4 29V24L23 47.8889L27 51L59.4 29Z" fill="#A08D3B" stroke="#A08D3B" stroke-width="2"/>
<path d="M37 53V49L40 47L46 51L68 36L78 43L73 46L68 43L45 58L37 53Z" fill="#A08D3B" stroke="#A08D3B" stroke-width="2"/>
<path fill-rule="evenodd" clip-rule="evenodd" d="M67.4539 27.063L95 45L48 74L5 47L52 17L60.6151 22.6098L23 48L46 63L76 43L68 38L45 53L37 48L67.4539 27.063Z" fill="#D4C355"/>
<path d="M6 56V49L48 74L94 47V54L48 82L6 56Z" fill="#A08D3B" stroke="#A08D3B" stroke-width="2"/>
</svg>
