<svg width="100" height="100" viewBox="0 0 100 100" fill="none" xmlns="http://www.w3.org/2000/svg">
<rect width="100" height="100" fill="#C91216"/>
<rect x="18" y="15" width="64" height="73" fill="white"/>
<path fill-rule="evenodd" clip-rule="evenodd" d="M82.692 10C82.2193 10.0139 81.7467 10.0139 81.2741 10L66.3654 80.6859C66.1986 81.5199 65.6843 81.937 64.8224 81.937H53.6044C52.7009 81.937 52.3394 81.4991 52.5201 80.6233L56.6904 60.0848C56.7272 59.9044 56.7238 59.7181 56.6803 59.5391C56.6369 59.3602 56.5544 59.1931 56.4389 59.0496C56.3234 58.9062 56.1776 58.7901 56.0121 58.7095C55.8465 58.629 55.6651 58.5859 55.481 58.5835L40.6349 58.2499C39.9399 58.236 39.5159 58.5696 39.363 59.2508L32.8991 89.5268C32.8647 89.6794 32.8657 89.8378 32.9022 89.9902C32.9387 90.1426 33.0096 90.2852 33.1097 90.4073C33.2098 90.5295 33.3366 90.6281 33.4806 90.6958C33.6246 90.7636 33.7822 90.7988 33.9416 90.7988H81.42C81.6793 90.7994 81.9309 90.7105 82.1322 90.5472C82.3335 90.3838 82.4723 90.156 82.5252 89.9022L98.0802 12.0226C98.2609 11.1468 97.8995 10.6881 96.9959 10.6464L82.692 10ZM35.1501 19.3833H46.7643C47.5844 19.3833 47.9111 19.7864 47.7443 20.5926L43.5532 40.8601C43.5037 41.099 43.508 41.3459 43.5657 41.583C43.6233 41.8201 43.7329 42.0414 43.8866 42.2309C44.0402 42.4205 44.234 42.5735 44.454 42.679C44.674 42.7845 44.9147 42.8398 45.1587 42.841H59.6087C60.3871 42.841 60.8528 42.4587 61.0057 41.6941L66.5104 15.1713C66.538 15.0337 66.5875 14.9065 66.6564 14.796L68.3453 11.981C68.435 11.8345 68.4837 11.6666 68.4862 11.4948C68.4888 11.3231 68.4452 11.1538 68.3599 11.0046C68.2747 10.8555 68.151 10.7319 68.0017 10.6469C67.8524 10.562 67.6831 10.5186 67.5113 10.5215H19.0529C18.723 10.5202 18.4029 10.6341 18.1479 10.8434C17.8929 11.0527 17.7189 11.3444 17.6558 11.6683L2.03823 89.4228C1.88532 90.2012 2.19114 90.6669 2.95568 90.8198C3.52562 90.931 4.02605 90.8198 4.45698 90.4862C4.61697 90.3655 4.81672 90.3063 5.01996 90.3194L17.781 90.9449C18.2031 90.9682 18.62 90.8381 18.9565 90.5781C19.2929 90.3181 19.5268 89.9453 19.6159 89.527L33.9199 20.3841C33.9777 20.1008 34.1318 19.8463 34.3561 19.6638C34.5804 19.4814 34.861 19.3822 35.1501 19.3833Z" fill="#C91216"/>
</svg>
