<svg width="100" height="100" viewBox="0 0 100 100" fill="none" xmlns="http://www.w3.org/2000/svg">
<rect width="100" height="100" fill="#28448A"/>
<path d="M56.2888 54.3384C56.7545 54.2372 57.2197 54.1668 57.6824 54.1261C58.5364 54.9897 59.5326 55.7285 60.6484 56.3037C62.5882 57.3036 64.6815 57.711 66.7178 57.5889C67.9638 58.9184 68.8973 60.5738 69.3697 62.4636L72.4457 74.7672C73.0777 77.2949 70.7881 79.5844 68.2605 78.9525L55.9568 75.8765C53.5087 75.2645 51.4535 73.8786 49.9907 72.0415L49.7272 71.7105L49.4638 72.0415C48.001 73.8786 45.9458 75.2645 43.4976 75.8766L31.194 78.9526C28.6663 79.5845 26.3768 77.2949 27.0087 74.7673L30.0847 62.4637C31.5341 56.6663 37.3263 53.0684 43.1657 54.3385C45.3284 54.8089 47.249 55.9021 48.7331 57.4238C47.1628 59.554 46.3253 62.1976 46.4564 64.9468C46.5614 67.1491 47.2684 69.1846 48.4128 70.8981L48.9868 70.5465C47.7122 68.2696 47.2351 65.5381 47.8316 62.7956C48.752 58.564 52.0572 55.2588 56.2888 54.3384ZM46.9183 16.0124C48.2587 13.7783 51.4967 13.7783 52.8371 16.0124L59.3621 26.8874C62.4366 32.0117 60.8849 38.6515 55.8578 41.8824C52.666 43.9339 48.6823 44.1879 45.2944 42.6445C45.2198 42.3158 45.1307 41.9885 45.0268 41.6635C44.017 38.5047 41.7897 36.0641 39.0235 34.7047C38.5144 32.1093 38.9297 29.3269 40.3933 26.8874L46.9183 16.0124ZM16.3365 43.8826C14.5254 42.0095 15.3634 38.8819 17.8684 38.1654L30.0616 34.6775C35.807 33.034 41.819 36.2513 43.6388 41.9433C44.7942 45.5573 44.0085 49.471 41.6408 52.344C41.304 52.3309 40.9648 52.3323 40.624 52.3485C37.3115 52.5064 34.3776 54.0261 32.3485 56.3462C29.7098 56.1662 27.1297 55.045 25.1522 52.9998L16.3365 43.8826ZM81.8188 38.1654C84.3238 38.8819 85.1618 42.0095 83.3507 43.8825L74.535 52.9998C70.3811 57.2958 63.566 57.5155 59.144 53.4959C56.3363 50.9438 55.0599 47.1616 55.6739 43.4897C55.9721 43.3326 56.2652 43.1618 56.5522 42.9774C59.342 41.1844 61.1229 38.4013 61.7201 35.3776C64.0953 34.2141 66.8903 33.895 69.6256 34.6774L81.8188 38.1654Z" fill="white" stroke="#2A3D6F" stroke-width="0.673603"/>
<ellipse cx="49.9294" cy="49.7011" rx="5.38883" ry="5.38882" fill="#FFF34A"/>
</svg>
