<svg width="100" height="100" viewBox="0 0 100 100" fill="none" xmlns="http://www.w3.org/2000/svg">
<rect width="100" height="100" fill="#595C62"/>
<path d="M17.8662 58V40.8203H21.335V47.582H28.1319V40.8203H31.6006V58H28.1319V50.4883H21.335V58H17.8662ZM35.5583 58V40.8203H41.1247C43.2341 40.8203 44.6091 40.9062 45.2497 41.0781C46.2341 41.3359 47.0583 41.8984 47.7223 42.7656C48.3864 43.625 48.7184 44.7383 48.7184 46.1055C48.7184 47.1602 48.527 48.0469 48.1442 48.7656C47.7614 49.4844 47.2731 50.0508 46.6794 50.4648C46.0934 50.8711 45.4958 51.1406 44.8864 51.2734C44.0583 51.4375 42.8591 51.5195 41.2887 51.5195H39.027V58H35.5583ZM39.027 43.7266V48.6016H40.9255C42.2927 48.6016 43.2067 48.5117 43.6677 48.332C44.1286 48.1523 44.488 47.8711 44.7458 47.4883C45.0114 47.1055 45.1442 46.6602 45.1442 46.1523C45.1442 45.5273 44.9606 45.0117 44.5934 44.6055C44.2262 44.1992 43.7614 43.9453 43.1989 43.8438C42.7848 43.7656 41.9528 43.7266 40.7028 43.7266H39.027ZM51.0472 52.4102L54.4222 52.082C54.6253 53.2148 55.0355 54.0469 55.6527 54.5781C56.2777 55.1094 57.1175 55.375 58.1722 55.375C59.2894 55.375 60.1292 55.1406 60.6917 54.6719C61.262 54.1953 61.5472 53.6406 61.5472 53.0078C61.5472 52.6016 61.4261 52.2578 61.1839 51.9766C60.9495 51.6875 60.5355 51.4375 59.9417 51.2266C59.5355 51.0859 58.6097 50.8359 57.1644 50.4766C55.305 50.0156 54.0003 49.4492 53.2503 48.7773C52.1956 47.832 51.6683 46.6797 51.6683 45.3203C51.6683 44.4453 51.9144 43.6289 52.4066 42.8711C52.9066 42.1055 53.6214 41.5234 54.5511 41.125C55.4886 40.7266 56.6175 40.5273 57.9378 40.5273C60.0941 40.5273 61.7152 41 62.8011 41.9453C63.8948 42.8906 64.4691 44.1523 64.5238 45.7305L61.055 45.8828C60.9066 45 60.5863 44.3672 60.0941 43.9844C59.6097 43.5938 58.8792 43.3984 57.9027 43.3984C56.8948 43.3984 56.1058 43.6055 55.5355 44.0195C55.1683 44.2852 54.9847 44.6406 54.9847 45.0859C54.9847 45.4922 55.1566 45.8398 55.5003 46.1289C55.9378 46.4961 57.0003 46.8789 58.6878 47.2773C60.3753 47.6758 61.6214 48.0898 62.4261 48.5195C63.2386 48.9414 63.8714 49.5234 64.3245 50.2656C64.7855 51 65.0159 51.9102 65.0159 52.9961C65.0159 53.9805 64.7425 54.9023 64.1956 55.7617C63.6488 56.6211 62.8753 57.2617 61.8753 57.6836C60.8753 58.0977 59.6292 58.3047 58.137 58.3047C55.9652 58.3047 54.2972 57.8047 53.1331 56.8047C51.9691 55.7969 51.2738 54.332 51.0472 52.4102ZM68.3056 40.8203H75.1728C76.5322 40.8203 77.5439 40.8789 78.208 40.9961C78.8798 41.1055 79.4775 41.3398 80.0009 41.6992C80.5322 42.0586 80.9736 42.5391 81.3252 43.1406C81.6767 43.7344 81.8525 44.4023 81.8525 45.1445C81.8525 45.9492 81.6338 46.6875 81.1963 47.3594C80.7666 48.0312 80.1806 48.5352 79.4384 48.8711C80.4853 49.1758 81.29 49.6953 81.8525 50.4297C82.415 51.1641 82.6963 52.0273 82.6963 53.0195C82.6963 53.8008 82.5127 54.5625 82.1455 55.3047C81.7861 56.0391 81.29 56.6289 80.6572 57.0742C80.0322 57.5117 79.2588 57.7812 78.3369 57.8828C77.7588 57.9453 76.3642 57.9844 74.1533 58H68.3056V40.8203ZM71.7744 43.6797V47.6523H74.0478C75.3994 47.6523 76.2392 47.6328 76.5673 47.5938C77.1611 47.5234 77.6259 47.3203 77.9619 46.9844C78.3056 46.6406 78.4775 46.1914 78.4775 45.6367C78.4775 45.1055 78.3291 44.6758 78.0322 44.3477C77.7431 44.0117 77.3095 43.8086 76.7314 43.7383C76.3877 43.6992 75.3994 43.6797 73.7666 43.6797H71.7744ZM71.7744 50.5117V55.1055H74.9853C76.2353 55.1055 77.0283 55.0703 77.3642 55C77.8798 54.9062 78.2978 54.6797 78.6181 54.3203C78.9463 53.9531 79.1103 53.4648 79.1103 52.8555C79.1103 52.3398 78.9853 51.9023 78.7353 51.543C78.4853 51.1836 78.122 50.9219 77.6455 50.7578C77.1767 50.5938 76.1533 50.5117 74.5752 50.5117H71.7744Z" fill="#F8F8F8"/>
</svg>
