<svg width="100" height="100" viewBox="0 0 100 100" fill="none" xmlns="http://www.w3.org/2000/svg">
<rect width="100" height="100" fill="#121010"/>
<path d="M13.8736 44.1232L27.1653 57.3282C27.2385 57.4014 27.3239 57.4202 27.4217 57.3848L30.2951 56.3223C30.4029 56.2823 30.4571 56.2049 30.4579 56.0902L30.6219 36.2803C30.6215 36.2708 30.6243 36.2615 30.63 36.2539C30.6356 36.2462 30.6436 36.2407 30.6528 36.2383C30.662 36.2359 30.6717 36.2366 30.6804 36.2405C30.689 36.2444 30.6961 36.2511 30.7004 36.2595L40.8173 53.6741C40.8382 53.7099 40.869 53.7388 40.9059 53.7575C40.9428 53.7761 40.9842 53.7837 41.0252 53.7792L44.9414 53.3704C44.9962 53.3647 45.0468 53.3388 45.0835 53.2978C45.1202 53.2568 45.1404 53.2037 45.1401 53.1487C45.1066 45.7735 45.0569 38.6421 45.9312 30.9701C46.3315 27.4531 46.964 23.9788 47.8287 20.5472C47.8387 20.5072 47.8279 20.4741 47.7963 20.4479C46.683 19.5009 45.9358 18.6844 45.7372 17.1772C45.4057 14.6734 47.1092 12.1269 49.7608 12.0045C51.6733 11.9167 53.2948 13.1316 53.9415 14.9194C54.6749 16.9474 53.945 19.2006 52.1075 20.4433C52.0934 20.4528 52.0826 20.4664 52.0766 20.4824C52.0706 20.4983 52.0697 20.5157 52.0741 20.5322C52.3559 21.5562 52.6219 22.7065 52.8721 23.983C53.8153 28.7981 54.3881 33.6564 54.5906 38.5578C54.7927 43.451 54.8574 48.3524 54.8031 53.2826C54.8023 53.3204 54.8208 53.3415 54.8585 53.3461L58.9387 53.7804C59.0234 53.7889 59.0873 53.7565 59.1305 53.6834L69.2589 36.241C69.2644 36.2317 69.2729 36.2244 69.283 36.2203C69.2931 36.2162 69.3043 36.2156 69.3148 36.2185C69.3253 36.2213 69.3345 36.2276 69.3411 36.2363C69.3477 36.245 69.3513 36.2556 69.3513 36.2664C69.3659 42.8532 69.4202 49.4349 69.5141 56.0116C69.5172 56.2195 69.618 56.3562 69.8167 56.4216C70.7606 56.735 71.6811 57.0707 72.578 57.4287C72.6013 57.438 72.6268 57.4402 72.6515 57.4351C72.6761 57.4299 72.6987 57.4177 72.7166 57.3998L86.1157 44.0851C86.1203 44.0797 86.1268 44.0763 86.1338 44.0754C86.1408 44.0745 86.1479 44.0762 86.1537 44.0802C86.1596 44.0842 86.1637 44.0902 86.1655 44.097C86.1672 44.1039 86.1663 44.1111 86.163 44.1174L70.2001 80.3164C70.1847 80.3502 70.1597 80.3602 70.125 80.3464C61.923 77.048 53.2209 76.1149 44.3848 76.8725C39.3402 77.3052 34.4704 78.4628 29.7754 80.3452C29.7614 80.3508 29.7458 80.3507 29.732 80.3451C29.7182 80.3395 29.7072 80.3288 29.7015 80.3152C24.6392 68.7278 19.5503 57.1411 14.4349 45.5552C14.227 45.0848 14.0157 44.6248 13.8009 44.1751C13.7956 44.1655 13.7941 44.1542 13.7966 44.1435C13.799 44.1328 13.8053 44.1234 13.8143 44.117C13.8232 44.1106 13.8342 44.1077 13.8451 44.1088C13.8561 44.11 13.8662 44.1151 13.8736 44.1232ZM49.9114 29.7534C50.1335 29.7592 50.3546 29.7186 50.5622 29.6339C50.7697 29.5491 50.9596 29.4219 51.1211 29.2596C51.2825 29.0972 51.4122 28.9028 51.5029 28.6875C51.5936 28.4722 51.6435 28.2402 51.6496 28.0047C51.6558 27.7693 51.6182 27.535 51.5389 27.3152C51.4596 27.0955 51.3401 26.8946 51.1874 26.724C51.0348 26.5534 50.8518 26.4164 50.6489 26.3209C50.4461 26.2255 50.2274 26.1733 50.0052 26.1675C49.7831 26.1617 49.562 26.2023 49.3544 26.2871C49.1469 26.3718 48.957 26.499 48.7955 26.6613C48.6341 26.8237 48.5044 27.0181 48.4137 27.2334C48.323 27.4487 48.2731 27.6807 48.267 27.9162C48.2608 28.1516 48.2984 28.3859 48.3777 28.6057C48.457 28.8254 48.5764 29.0263 48.7291 29.1969C48.8818 29.3675 49.0648 29.5045 49.2677 29.6C49.4705 29.6954 49.6892 29.7476 49.9114 29.7534ZM49.9744 35.5168C50.4218 35.5113 50.8487 35.3176 51.161 34.9783C51.4733 34.639 51.6455 34.1818 51.6397 33.7074C51.6339 33.233 51.4506 32.7801 51.1301 32.4486C50.8096 32.117 50.3781 31.9337 49.9307 31.9392C49.4832 31.9447 49.0564 32.1384 48.7441 32.4777C48.4317 32.817 48.2595 33.2742 48.2653 33.7486C48.2711 34.223 48.4545 34.6758 48.775 35.0074C49.0955 35.339 49.5269 35.5222 49.9744 35.5168ZM49.997 41.3002C50.2191 41.2956 50.4381 41.2446 50.6415 41.1503C50.8448 41.0559 51.0285 40.92 51.1821 40.7503C51.3357 40.5806 51.4561 40.3805 51.5366 40.1613C51.6171 39.9421 51.6559 39.7081 51.651 39.4728C51.641 38.9975 51.4533 38.5455 51.129 38.216C50.8047 37.8866 50.3705 37.7068 49.9219 37.7162C49.6998 37.7209 49.4808 37.7718 49.2774 37.8662C49.0741 37.9606 48.8904 38.0965 48.7368 38.2661C48.5832 38.4358 48.4628 38.636 48.3823 38.8552C48.3018 39.0744 48.263 39.3083 48.2679 39.5437C48.2779 40.0189 48.4656 40.471 48.7899 40.8004C49.1141 41.1298 49.5484 41.3096 49.997 41.3002ZM49.9366 47.0542C50.3849 47.0596 50.8172 46.8774 51.1384 46.5475C51.4595 46.2177 51.6432 45.7672 51.6489 45.2953C51.6547 44.8233 51.4821 44.3685 51.1691 44.0309C50.8562 43.6933 50.4284 43.5005 49.98 43.4951C49.5317 43.4896 49.0993 43.6718 48.7782 44.0017C48.4571 44.3315 48.2734 44.782 48.2677 45.2539C48.2619 45.7259 48.4345 46.1807 48.7475 46.5183C49.0604 46.8559 49.4882 47.0487 49.9366 47.0542ZM49.9269 52.8481C50.3737 52.8559 50.8056 52.674 51.1274 52.3423C51.4492 52.0107 51.6347 51.5565 51.643 51.0796C51.6513 50.6028 51.4818 50.1424 51.1718 49.7997C50.8617 49.457 50.4365 49.2601 49.9897 49.2523C49.5429 49.2445 49.111 49.4265 48.7892 49.7581C48.4674 50.0898 48.2819 50.544 48.2736 51.0208C48.2652 51.4977 48.4348 51.958 48.7448 52.3007C49.0549 52.6434 49.4801 52.8403 49.9269 52.8481ZM46.325 66.7729C46.3349 66.7729 46.3446 66.7749 46.3537 66.7786C46.3628 66.7824 46.3711 66.7879 46.3781 66.7949C46.3851 66.8019 46.3906 66.8102 46.3944 66.8193C46.3981 66.8284 46.4001 66.8381 46.4001 66.848L46.3908 71.5426C46.3908 71.5625 46.3987 71.5816 46.4128 71.5957C46.4269 71.6098 46.446 71.6177 46.4659 71.6177L48.8738 71.635C48.8938 71.635 48.9128 71.6271 48.9269 71.613C48.941 71.599 48.9489 71.5799 48.9489 71.56L48.9397 60.0249C48.9397 60.0149 48.9377 60.0051 48.9339 59.9959C48.93 59.9867 48.9244 59.9784 48.9173 59.9714C48.9102 59.9644 48.9018 59.9589 48.8925 59.9552C48.8833 59.9515 48.8734 59.9497 48.8635 59.9498L46.4671 59.9822C46.4473 59.9825 46.4285 59.9905 46.4147 60.0046C46.4009 60.0186 46.3931 60.0375 46.3931 60.0572L46.37 64.3915C46.37 64.4115 46.3621 64.4305 46.3481 64.4446C46.334 64.4587 46.3149 64.4666 46.295 64.4666L44.4968 64.4643C44.4769 64.4643 44.4578 64.4564 44.4437 64.4423C44.4296 64.4282 44.4217 64.4091 44.4217 64.3892L44.3986 60.0376C44.3983 60.0181 44.3905 59.9995 44.3767 59.9857C44.3629 59.9719 44.3442 59.964 44.3247 59.9637L41.926 59.9568C41.9061 59.9568 41.887 59.9647 41.8729 59.9787C41.8589 59.9928 41.8509 60.0119 41.8509 60.0318L41.8405 71.5484C41.8405 71.5683 41.8485 71.5874 41.8625 71.6015C41.8766 71.6156 41.8957 71.6235 41.9156 71.6235H44.3189C44.3288 71.6235 44.3386 71.6215 44.3477 71.6178C44.3568 71.614 44.3651 71.6085 44.372 71.6015C44.379 71.5945 44.3845 71.5863 44.3883 71.5771C44.3921 71.568 44.394 71.5583 44.394 71.5484L44.4067 66.848C44.4067 66.8281 44.4146 66.809 44.4287 66.7949C44.4428 66.7808 44.4619 66.7729 44.4818 66.7729H46.325ZM54.7811 69.3299C54.8082 69.3302 54.8343 69.34 54.8549 69.3575C54.8756 69.375 54.8895 69.3991 54.8943 69.4257L55.2824 71.5299C55.2872 71.5568 55.3013 71.581 55.3222 71.5985C55.3431 71.616 55.3694 71.6257 55.3967 71.6258L57.9317 71.6223C57.9493 71.6223 57.9668 71.6183 57.9827 71.6105C57.9985 71.6028 58.0124 71.5916 58.0233 71.5777C58.0342 71.5637 58.0418 71.5476 58.0456 71.5303C58.0493 71.513 58.0491 71.4951 58.0449 71.478L55.2131 60.0468C55.2066 60.0215 55.1918 59.9991 55.1711 59.9832C55.1503 59.9673 55.1249 59.9588 55.0987 59.9591L52.7312 59.9799C52.7053 59.9801 52.6802 59.989 52.66 60.0051C52.6397 60.0212 52.6253 60.0436 52.6192 60.0688L49.8151 71.4745C49.8109 71.4916 49.8106 71.5094 49.8143 71.5265C49.818 71.5437 49.8255 71.5599 49.8362 71.5737C49.847 71.5876 49.8608 71.5989 49.8765 71.6067C49.8923 71.6145 49.9095 71.6187 49.9271 71.6189L52.3189 71.6535C52.3465 71.654 52.3735 71.6446 52.3948 71.627C52.4162 71.6094 52.4306 71.5849 52.4355 71.5577L52.8213 69.3992C52.8262 69.3719 52.8406 69.3474 52.862 69.3298C52.8834 69.3123 52.9103 69.3029 52.9379 69.3033L54.7811 69.3299Z" fill="#C1A553"/>
<path d="M48.2671 27.916C48.2412 28.9062 48.9774 29.7288 49.9115 29.7532C50.8456 29.7777 51.6239 28.9948 51.6498 28.0046C51.6758 27.0144 50.9395 26.1918 50.0054 26.1674C49.0713 26.1429 48.2931 26.9258 48.2671 27.916Z" fill="white"/>
<path d="M26.1554 31.7231C26.1554 33.6303 27.6099 35.1763 29.4041 35.1763C31.1983 35.1763 32.6528 33.6303 32.6528 31.7231C32.6528 29.816 31.1983 28.27 29.4041 28.27C27.6099 28.27 26.1554 29.816 26.1554 31.7231Z" fill="#C1A553"/>
<path d="M67.3026 31.7732C67.3292 33.6788 68.8062 35.2034 70.6015 35.1783C72.3968 35.1532 73.8307 33.5881 73.804 31.6824C73.7774 29.7768 72.3005 28.2523 70.5052 28.2773C68.7098 28.3024 67.276 29.8676 67.3026 31.7732Z" fill="#C1A553"/>
<path d="M48.2652 33.7485C48.2773 34.7364 49.0424 35.528 49.9742 35.5167C50.906 35.5053 51.6516 34.6952 51.6395 33.7073C51.6275 32.7193 50.8623 31.9277 49.9305 31.9391C48.9987 31.9505 48.2531 32.7606 48.2652 33.7485Z" fill="white"/>
<path d="M10.0003 39.4654C10.0003 41.3744 11.4553 42.922 13.2501 42.922C15.045 42.922 16.5 41.3744 16.5 39.4654C16.5 37.5564 15.045 36.0088 13.2501 36.0088C11.4553 36.0088 10.0003 37.5564 10.0003 39.4654Z" fill="#C1A553"/>
<path d="M83.4552 39.5121C83.4818 41.4184 84.9578 42.9434 86.7518 42.9184C88.5458 42.8933 89.9786 41.3277 89.952 39.4214C89.9254 37.5151 88.4495 35.99 86.6554 36.0151C84.8614 36.0401 83.4286 37.6058 83.4552 39.5121Z" fill="#C1A553"/>
<path d="M48.2677 39.5435C48.2885 40.5332 49.0626 41.3197 49.9968 41.3001C50.931 41.2805 51.6715 40.4624 51.6508 39.4727C51.6301 38.483 50.8559 37.6965 49.9217 37.7161C48.9875 37.7357 48.247 38.5538 48.2677 39.5435Z" fill="white"/>
<path d="M48.2674 45.2539C48.2554 46.2367 49.0026 47.0427 49.9363 47.0541C50.87 47.0655 51.6367 46.278 51.6487 45.2952C51.6607 44.3124 50.9135 43.5064 49.9798 43.495C49.0461 43.4836 48.2794 44.271 48.2674 45.2539Z" fill="white"/>
<path d="M48.2735 51.0206C48.2561 52.0135 48.9964 52.8316 49.9268 52.8479C50.8573 52.8641 51.6256 52.0723 51.6429 51.0794C51.6603 50.0864 50.92 49.2683 49.9896 49.2521C49.0591 49.2358 48.2908 50.0276 48.2735 51.0206Z" fill="white"/>
<path d="M46.3248 66.7728H44.4816C44.4617 66.7728 44.4426 66.7807 44.4285 66.7948C44.4144 66.8089 44.4065 66.828 44.4065 66.8479L44.3938 71.5483C44.3938 71.5582 44.3919 71.5679 44.3881 71.577C44.3843 71.5861 44.3788 71.5944 44.3718 71.6014C44.3649 71.6084 44.3566 71.6139 44.3475 71.6177C44.3384 71.6214 44.3286 71.6234 44.3187 71.6234H41.9154C41.8955 71.6234 41.8764 71.6155 41.8623 71.6014C41.8482 71.5873 41.8403 71.5682 41.8403 71.5483L41.8507 60.0317C41.8507 60.0118 41.8586 59.9927 41.8727 59.9786C41.8868 59.9646 41.9059 59.9566 41.9258 59.9566L44.3245 59.9636C44.344 59.9639 44.3626 59.9718 44.3764 59.9856C44.3902 59.9993 44.3981 60.018 44.3984 60.0375L44.4215 64.3891C44.4215 64.409 44.4294 64.4281 44.4435 64.4422C44.4576 64.4563 44.4767 64.4642 44.4966 64.4642L46.2948 64.4665C46.3147 64.4665 46.3338 64.4586 46.3478 64.4445C46.3619 64.4304 46.3698 64.4113 46.3698 64.3914L46.3929 60.0571C46.3929 60.0374 46.4007 60.0185 46.4145 60.0044C46.4283 59.9904 46.4471 59.9824 46.4668 59.9821L48.8632 59.9497C48.8732 59.9496 48.8831 59.9514 48.8923 59.9551C48.9016 59.9588 48.91 59.9643 48.9171 59.9713C48.9242 59.9783 48.9298 59.9866 48.9336 59.9958C48.9375 60.005 48.9395 60.0148 48.9395 60.0248L48.9487 71.5599C48.9487 71.5798 48.9408 71.5989 48.9267 71.6129C48.9126 71.627 48.8935 71.6349 48.8736 71.6349L46.4657 71.6176C46.4458 71.6176 46.4267 71.6097 46.4126 71.5956C46.3985 71.5815 46.3906 71.5624 46.3906 71.5425L46.3999 66.8479C46.3999 66.838 46.3979 66.8283 46.3941 66.8192C46.3904 66.8101 46.3848 66.8018 46.3779 66.7948C46.3709 66.7878 46.3626 66.7823 46.3535 66.7785C46.3444 66.7748 46.3346 66.7728 46.3248 66.7728Z" fill="white"/>
<path d="M54.7809 69.3298L52.9377 69.3032C52.91 69.3028 52.8831 69.3122 52.8618 69.3297C52.8404 69.3473 52.826 69.3719 52.8211 69.3991L52.4353 71.5576C52.4304 71.5848 52.416 71.6094 52.3946 71.6269C52.3732 71.6445 52.3463 71.6539 52.3187 71.6534L49.9269 71.6188C49.9093 71.6186 49.892 71.6144 49.8763 71.6066C49.8606 71.5988 49.8468 71.5875 49.836 71.5737C49.8252 71.5598 49.8177 71.5436 49.8141 71.5265C49.8104 71.5093 49.8107 71.4915 49.8149 71.4744L52.6189 60.0687C52.6251 60.0436 52.6394 60.0212 52.6597 60.0051C52.68 59.989 52.7051 59.9801 52.731 59.9798L55.0985 59.959C55.1246 59.9587 55.1501 59.9672 55.1708 59.9831C55.1916 59.999 55.2064 60.0214 55.2128 60.0468L58.0446 71.4779C58.0488 71.495 58.0491 71.5129 58.0454 71.5302C58.0416 71.5475 58.034 71.5637 58.0231 71.5776C58.0122 71.5915 57.9983 71.6027 57.9824 71.6105C57.9666 71.6182 57.9491 71.6222 57.9315 71.6223L55.3965 71.6257C55.3692 71.6256 55.3429 71.616 55.322 71.5985C55.3011 71.581 55.287 71.5567 55.2821 71.5299L54.8941 69.4256C54.8893 69.399 54.8753 69.3749 54.8547 69.3574C54.8341 69.3399 54.808 69.3302 54.7809 69.3298ZM54.0579 64.5786L53.8812 63.4525C53.8651 63.3486 53.8439 63.3474 53.8177 63.4491C53.6907 63.9353 53.6526 64.5901 53.5983 64.9227C53.4805 65.6518 53.3554 66.379 53.223 67.1043C53.2211 67.1145 53.2215 67.1249 53.2242 67.1349C53.2269 67.1448 53.2318 67.1541 53.2385 67.162C53.2452 67.17 53.2536 67.1763 53.2631 67.1807C53.2726 67.1851 53.2829 67.1874 53.2934 67.1875L54.4183 67.1852C54.4293 67.1851 54.4403 67.1827 54.4503 67.178C54.4604 67.1734 54.4693 67.1666 54.4764 67.1581C54.4836 67.1496 54.4888 67.1397 54.4917 67.129C54.4946 67.1183 54.4952 67.1071 54.4933 67.0962C54.3601 66.2609 54.2273 65.4332 54.0949 64.6132C54.0941 64.6086 54.0911 64.6059 54.0857 64.6051C54.0834 64.6051 54.081 64.6047 54.0787 64.604C54.068 64.6017 54.061 64.5932 54.0579 64.5786Z" fill="white"/>
<path d="M54.0786 64.604C54.0809 64.6048 54.0832 64.6052 54.0855 64.6052C54.0909 64.606 54.094 64.6087 54.0948 64.6133C54.2272 65.4332 54.36 66.2609 54.4932 67.0963C54.495 67.1072 54.4945 67.1184 54.4916 67.1291C54.4886 67.1398 54.4834 67.1497 54.4763 67.1582C54.4691 67.1666 54.4602 67.1734 54.4502 67.1781C54.4401 67.1828 54.4292 67.1852 54.4181 67.1852L53.2933 67.1875C53.2828 67.1875 53.2724 67.1852 53.2629 67.1808C53.2535 67.1764 53.2451 67.17 53.2383 67.1621C53.2316 67.1542 53.2267 67.1449 53.2241 67.1349C53.2214 67.1249 53.221 67.1145 53.2228 67.1044C53.3552 66.3791 53.4804 65.6519 53.5982 64.9228C53.6524 64.5902 53.6905 63.9354 53.8176 63.4491C53.8438 63.3475 53.8649 63.3487 53.8811 63.4526L54.0578 64.5786C54.0609 64.5933 54.0678 64.6017 54.0786 64.604Z" fill="#C1A553"/>
<path d="M52.2597 83.6701C45.6953 83.416 38.9784 84.2972 32.8159 87.2006C32.7812 87.2175 32.7562 87.2083 32.7408 87.1729L30.4206 81.8846C30.4029 81.8438 30.4145 81.8153 30.4553 81.7992C38.1457 78.6694 46.0775 77.7882 54.3443 78.3218C59.4119 78.6486 64.3733 79.7377 69.0749 81.6687C69.2004 81.7202 69.3097 81.7718 69.4029 81.8234C69.4328 81.8401 69.4555 81.8673 69.4664 81.8998C69.4773 81.9322 69.4756 81.9676 69.4618 81.999L67.1878 87.1602C67.1717 87.1979 67.1447 87.2083 67.107 87.1913C62.3981 85.0448 57.449 83.871 52.2597 83.6701ZM49.9304 82.2458C50.097 82.2493 50.2627 82.2187 50.4181 82.1557C50.5734 82.0927 50.7153 81.9986 50.8357 81.8787C50.9561 81.7589 51.0526 81.6156 51.1198 81.4571C51.1869 81.2986 51.2233 81.128 51.2269 80.955C51.2305 80.7819 51.2013 80.6099 51.1409 80.4488C51.0805 80.2876 50.99 80.1404 50.8748 80.0156C50.7595 79.8908 50.6216 79.7908 50.4691 79.7214C50.3165 79.652 50.1522 79.6144 49.9856 79.6109C49.8189 79.6074 49.6532 79.6381 49.4979 79.701C49.3425 79.764 49.2006 79.8581 49.0802 79.978C48.9598 80.0979 48.8633 80.2411 48.7962 80.3996C48.7291 80.5581 48.6926 80.7288 48.689 80.9018C48.6854 81.0748 48.7146 81.2468 48.775 81.408C48.8355 81.5691 48.9259 81.7163 49.0412 81.8411C49.1564 81.966 49.2943 82.0659 49.4469 82.1354C49.5994 82.2048 49.7637 82.2423 49.9304 82.2458ZM44.8271 82.4844C44.9911 82.4755 45.1516 82.4324 45.2995 82.3575C45.4474 82.2825 45.5798 82.1773 45.6891 82.0478C45.7984 81.9182 45.8825 81.7669 45.9365 81.6025C45.9906 81.4381 46.0135 81.2637 46.0041 81.0894C45.9947 80.9151 45.953 80.7442 45.8815 80.5866C45.81 80.429 45.7101 80.2876 45.5875 80.1706C45.4648 80.0537 45.3218 79.9633 45.1667 79.9048C45.0116 79.8463 44.8473 79.8208 44.6833 79.8297C44.5193 79.8386 44.3587 79.8817 44.2108 79.9566C44.0629 80.0315 43.9305 80.1368 43.8212 80.2663C43.7119 80.3958 43.6278 80.5471 43.5738 80.7116C43.5198 80.876 43.4968 81.0504 43.5062 81.2247C43.5157 81.399 43.5573 81.5698 43.6288 81.7275C43.7003 81.8851 43.8002 82.0265 43.9229 82.1434C44.0455 82.2604 44.1885 82.3507 44.3436 82.4092C44.4988 82.4677 44.663 82.4933 44.8271 82.4844ZM55.1364 82.4848C55.4671 82.4923 55.7875 82.3596 56.027 82.1159C56.2665 81.8722 56.4055 81.5375 56.4135 81.1853C56.4215 80.8332 56.2978 80.4925 56.0696 80.2382C55.8414 79.9838 55.5274 79.8368 55.1967 79.8293C54.866 79.8218 54.5456 79.9544 54.3061 80.1981C54.0666 80.4418 53.9276 80.7766 53.9196 81.1287C53.9116 81.4809 54.0353 81.8216 54.2635 82.0759C54.4917 82.3302 54.8057 82.4773 55.1364 82.4848ZM60.5887 83.3194C60.7524 83.3105 60.9127 83.2675 61.0603 83.1929C61.208 83.1183 61.3401 83.0135 61.4493 82.8846C61.5584 82.7556 61.6423 82.6049 61.6963 82.4412C61.7502 82.2774 61.7732 82.1038 61.7638 81.9303C61.7448 81.5798 61.5952 81.2508 61.348 81.0156C61.1008 80.7804 60.7762 80.6583 60.4456 80.6762C60.2819 80.6851 60.1216 80.7281 59.974 80.8027C59.8263 80.8773 59.6942 80.9821 59.5851 81.111C59.4759 81.24 59.392 81.3907 59.338 81.5544C59.2841 81.7182 59.2611 81.8918 59.2705 82.0653C59.2895 82.4158 59.4391 82.7448 59.6863 82.98C59.9335 83.2152 60.2581 83.3373 60.5887 83.3194ZM39.473 83.3331C39.8039 83.3146 40.1135 83.1569 40.3335 82.8947C40.5536 82.6325 40.6661 82.2873 40.6464 81.935C40.6267 81.5827 40.4764 81.2521 40.2285 81.0161C39.9806 80.7801 39.6554 80.6579 39.3245 80.6764C38.9936 80.6949 38.6841 80.8526 38.464 81.1148C38.244 81.377 38.1314 81.7222 38.1511 82.0745C38.1708 82.4268 38.3212 82.7573 38.5691 82.9933C38.817 83.2294 39.1421 83.3516 39.473 83.3331ZM34.2478 84.6574C34.4108 84.6592 34.5726 84.6262 34.7239 84.5605C34.8753 84.4949 35.0132 84.3977 35.1297 84.2746C35.2463 84.1515 35.3393 84.0049 35.4034 83.8432C35.4675 83.6815 35.5014 83.5078 35.5033 83.332C35.5051 83.1562 35.4748 82.9818 35.4141 82.8188C35.3534 82.6558 35.2635 82.5073 35.1496 82.3818C35.0356 82.2563 34.8998 82.1562 34.7498 82.0874C34.5999 82.0186 34.4389 81.9823 34.2758 81.9805C34.1128 81.9788 33.951 82.0118 33.7997 82.0775C33.6484 82.1431 33.5105 82.2403 33.3939 82.3634C33.2773 82.4865 33.1843 82.633 33.1202 82.7948C33.0561 82.9565 33.0222 83.1302 33.0204 83.306C33.0185 83.4818 33.0488 83.6561 33.1095 83.8192C33.1702 83.9822 33.2601 84.1307 33.3741 84.2562C33.488 84.3817 33.6239 84.4817 33.7738 84.5506C33.9237 84.6194 34.0848 84.6557 34.2478 84.6574ZM65.697 84.6391C66.03 84.6257 66.3437 84.4732 66.5692 84.2151C66.7946 83.957 66.9134 83.6144 66.8992 83.2628C66.8851 82.9111 66.7393 82.5792 66.4939 82.34C66.2484 82.1008 65.9235 81.974 65.5905 81.9873C65.2575 82.0007 64.9438 82.1532 64.7183 82.4113C64.4928 82.6694 64.3741 83.012 64.3882 83.3636C64.4023 83.7153 64.5482 84.0472 64.7936 84.2864C65.039 84.5256 65.364 84.6525 65.697 84.6391Z" fill="#BDBDBD"/>
<path d="M48.6894 80.9017C48.6741 81.6293 49.2299 82.2311 49.9307 82.2458C50.6316 82.2604 51.212 81.6825 51.2273 80.9549C51.2425 80.2273 50.6868 79.6256 49.9859 79.6109C49.2851 79.5962 48.7046 80.1741 48.6894 80.9017Z" fill="white"/>
<path d="M43.5067 81.2248C43.5464 81.9579 44.1377 82.5219 44.8275 82.4845C45.5172 82.4472 46.0442 81.8226 46.0045 81.0895C45.9648 80.3565 45.3735 79.7925 44.6837 79.8298C43.9939 79.8672 43.467 80.4918 43.5067 81.2248Z" fill="white"/>
<path d="M53.9198 81.1289C53.9031 81.8622 54.4479 82.4693 55.1366 82.4849C55.8253 82.5006 56.3971 81.9188 56.4137 81.1855C56.4304 80.4521 55.8856 79.845 55.1969 79.8294C54.5082 79.8137 53.9364 80.3955 53.9198 81.1289Z" fill="white"/>
<path d="M59.2707 82.0652C59.3103 82.7951 59.9004 83.3566 60.5889 83.3193C61.2774 83.282 61.8035 82.6601 61.764 81.9302C61.7244 81.2003 61.1343 80.6389 60.4458 80.6762C59.7573 80.7134 59.2312 81.3354 59.2707 82.0652Z" fill="white"/>
<path d="M38.1512 82.0746C38.1923 82.8082 38.7841 83.3717 39.4732 83.3332C40.1622 83.2946 40.6875 82.6687 40.6465 81.9351C40.6055 81.2014 40.0137 80.6379 39.3246 80.6764C38.6356 80.715 38.1102 81.3409 38.1512 82.0746Z" fill="white"/>
<path d="M33.0202 83.3061C33.0124 84.0453 33.562 84.6504 34.2476 84.6575C34.9332 84.6647 35.4953 84.0713 35.5031 83.3321C35.5108 82.5929 34.9613 81.9878 34.2756 81.9807C33.59 81.9735 33.0279 82.5669 33.0202 83.3061Z" fill="white"/>
<path d="M64.3884 83.3635C64.4178 84.0958 65.0038 84.6668 65.6972 84.639C66.3906 84.6111 66.9289 83.9949 66.8994 83.2627C66.87 82.5304 66.2841 81.9593 65.5907 81.9872C64.8973 82.015 64.359 82.6312 64.3884 83.3635Z" fill="white"/>
</svg>
