<svg width="100" height="100" viewBox="0 0 100 100" fill="none" xmlns="http://www.w3.org/2000/svg">
<rect width="100" height="100" fill="#D12831"/>
<path d="M24.0153 69.1456L50.1728 21.0656C50.1835 21.0458 50.1994 21.0292 50.2188 21.0177C50.2382 21.0061 50.2603 21 50.2828 21C50.3054 21 50.3275 21.0061 50.3469 21.0177C50.3663 21.0292 50.3821 21.0458 50.3928 21.0656L76.5503 69.1456C76.5608 69.1647 76.566 69.1861 76.5657 69.2079C76.5653 69.2296 76.5592 69.2508 76.5481 69.2695C76.537 69.2882 76.5212 69.3036 76.5023 69.3144C76.4834 69.3251 76.4621 69.3307 76.4403 69.3306H24.1253C24.1036 69.3307 24.0822 69.3251 24.0633 69.3144C24.0444 69.3036 24.0287 69.2882 24.0176 69.2695C24.0065 69.2508 24.0004 69.2296 24 69.2079C23.9996 69.1861 24.0049 69.1647 24.0153 69.1456ZM50.1178 22.2481C46.0595 30.7248 41.9945 39.1965 37.9228 47.6631C36.2878 51.0648 36.0428 54.4848 37.1878 57.9231C41.0028 69.3906 56.3153 71.0331 62.2828 60.4506C64.6195 56.3056 64.722 52.0156 62.5903 47.5806C58.512 39.099 54.437 30.619 50.3653 22.1406C50.3353 22.079 50.292 22.0681 50.2353 22.1081C50.1837 22.1448 50.1445 22.1915 50.1178 22.2481Z" fill="white"/>
<path d="M39.6327 45.6932C43.1127 38.3082 46.5502 30.8782 50.1527 23.5557C50.2427 23.374 50.331 23.374 50.4177 23.5557C54.0594 31.2023 57.706 38.854 61.3577 46.5107C62.2327 48.3457 63.0052 50.2307 63.1977 52.2007C64.0752 61.1257 55.5952 68.9507 46.6577 66.1707C41.0377 64.4232 37.2352 59.1032 37.3152 53.2557C37.3527 50.4882 38.4127 48.2807 39.6327 45.6932Z" fill="#015091"/>
<path d="M24.9651 70.0305L75.6001 70.043C75.6193 70.043 75.638 70.049 75.6537 70.0601C75.6694 70.0712 75.6812 70.0869 75.6875 70.1051C75.6938 70.1232 75.6943 70.1429 75.689 70.1613C75.6836 70.1798 75.6726 70.1961 75.6576 70.208L64.1376 79.1305C64.1212 79.1435 64.101 79.1505 64.0801 79.1505H36.5326C36.5117 79.1505 36.4915 79.1435 36.4751 79.1305L24.9101 70.1955C24.8952 70.1837 24.8843 70.1676 24.8789 70.1494C24.8734 70.1312 24.8737 70.1118 24.8797 70.0937C24.8858 70.0757 24.8972 70.06 24.9124 70.0487C24.9277 70.0373 24.9461 70.031 24.9651 70.0305Z" fill="white"/>
</svg>
