<svg width="100" height="100" viewBox="0 0 100 100" fill="none" xmlns="http://www.w3.org/2000/svg">
<rect width="100" height="100" fill="white"/>
<path d="M45.4118 18.9005C47.9458 16.3665 52.0542 16.3665 54.5882 18.9005L81.0995 45.4118C83.6335 47.9458 83.6335 52.0542 81.0995 54.5882L54.5882 81.0995C52.0542 83.6335 47.9458 83.6335 45.4118 81.0995L18.9005 54.5882C16.3665 52.0542 16.3665 47.9458 18.9005 45.4118L45.4118 18.9005Z" fill="url(#paint0_linear_65_706)"/>
<circle cx="50" cy="50" r="16.5" stroke="white"/>
<g filter="url(#filter0_f_65_706)">
<path d="M54.5033 45.9703C56.6629 48.9625 56.4854 51.8333 53.971 54.5828C51.3754 56.6554 48.7554 56.2707 46.0102 54.614C43.5305 51.8783 43.345 48.9994 45.4535 45.9772C48.4179 43.3432 51.4345 43.3409 54.5033 45.9703Z" fill="white"/>
</g>
<defs>
<filter id="filter0_f_65_706" x="39.0267" y="39.0267" width="21.9467" height="21.9467" filterUnits="userSpaceOnUse" color-interpolation-filters="sRGB">
<feFlood flood-opacity="0" result="BackgroundImageFix"/>
<feBlend mode="normal" in="SourceGraphic" in2="BackgroundImageFix" result="shape"/>
<feGaussianBlur stdDeviation="2.48667" result="effect1_foregroundBlur_65_706"/>
</filter>
<linearGradient id="paint0_linear_65_706" x1="50" y1="17" x2="50" y2="83" gradientUnits="userSpaceOnUse">
<stop stop-color="#0E3063"/>
<stop offset="0.483925" stop-color="#0E3E48"/>
<stop offset="1" stop-color="#0F630E"/>
</linearGradient>
</defs>
</svg>
