<svg width="100" height="100" viewBox="0 0 100 100" fill="none" xmlns="http://www.w3.org/2000/svg">
<rect width="100" height="100" fill="#595C62"/>
<path d="M23.8037 58V40.8203H27.2725V58H23.8037ZM46.4411 58H42.6677L41.1677 54.0977H34.3005L32.8825 58H29.2028L35.8942 40.8203H39.5622L46.4411 58ZM40.0544 51.2031L37.6872 44.8281L35.3669 51.2031H40.0544ZM50.7386 58V43.7266H45.6409V40.8203H59.2933V43.7266H54.2073V58H50.7386ZM69.8955 51.6836V48.7891H77.372V55.6328C76.6455 56.3359 75.5908 56.957 74.208 57.4961C72.833 58.0273 71.4384 58.293 70.0244 58.293C68.2275 58.293 66.6611 57.918 65.3252 57.168C63.9892 56.4102 62.9853 55.332 62.3134 53.9336C61.6416 52.5273 61.3056 51 61.3056 49.3516C61.3056 47.5625 61.6806 45.9727 62.4306 44.582C63.1806 43.1914 64.2783 42.125 65.7236 41.3828C66.8252 40.8125 68.1963 40.5273 69.8369 40.5273C71.9697 40.5273 73.6338 40.9766 74.8291 41.875C76.0322 42.7656 76.8056 44 77.1494 45.5781L73.7041 46.2227C73.4619 45.3789 73.0048 44.7148 72.333 44.2305C71.6689 43.7383 70.8369 43.4922 69.8369 43.4922C68.3213 43.4922 67.1142 43.9727 66.2158 44.9336C65.3252 45.8945 64.8798 47.3203 64.8798 49.2109C64.8798 51.25 65.333 52.7812 66.2392 53.8047C67.1455 54.8203 68.333 55.3281 69.8017 55.3281C70.5283 55.3281 71.2548 55.1875 71.9814 54.9062C72.7158 54.6172 73.3447 54.2695 73.8681 53.8633V51.6836H69.8955Z" fill="#F8F8F8"/>
</svg>
