<svg width="100" height="100" viewBox="0 0 100 100" fill="none" xmlns="http://www.w3.org/2000/svg">
<rect width="100" height="100" fill="#192F68"/>
<path d="M48.616 14.0002C48.6487 13.9989 48.6812 14.0053 48.7109 14.0191C48.7406 14.0328 48.7666 14.0534 48.7867 14.0792C48.8069 14.105 48.8206 14.1352 48.8267 14.1673C48.8329 14.1994 48.8313 14.2326 48.8221 14.264C48.5968 15.0526 47.9291 15.7259 47.5966 16.2727C46.97 17.3115 46.3032 18.3264 45.596 19.3175C45.5413 19.3955 45.4711 19.4614 45.3898 19.511C45.3085 19.5607 45.2178 19.593 45.1234 19.606C44.2028 19.7351 43.1888 19.7956 42.315 20.0374C26.8605 24.2858 17.6329 38.8252 19.9714 54.5627C20.2517 56.4368 21.1145 58.3851 21.4773 60.3938C21.4956 60.4909 21.48 60.5825 21.4305 60.6686L18.5287 65.6424C18.3473 65.9539 18.1642 65.9539 17.9791 65.6424C16.2342 62.6774 15.3658 59.3551 14.6651 55.8212C13.8929 51.9274 13.7143 47.9209 14.5524 44.0133C14.8904 42.4415 15.1762 40.7597 15.6351 39.3061C19.1003 28.3307 26.6901 20.2573 37.4236 16.1711C41.4082 14.6542 44.6288 14.1321 48.616 14.0002Z" fill="#FBC000"/>
<path d="M54.3541 19.5619C54.3222 19.5603 54.291 19.5518 54.2625 19.5371C54.2341 19.5224 54.2091 19.5019 54.1893 19.4768C53.0663 18.0515 52.0724 16.5319 51.2078 14.9179C51.0786 14.6788 50.8368 14.5112 50.6664 14.3051C50.6469 14.2822 50.6343 14.2542 50.6303 14.2244C50.6263 14.1946 50.6309 14.1643 50.6437 14.137C50.6564 14.1098 50.6768 14.0868 50.7022 14.0708C50.7277 14.0548 50.7572 14.0465 50.7873 14.0468C64.3979 14.0028 76.5329 22.178 82.3833 34.302C83.8534 37.3439 84.8647 40.8476 85.6203 45.3405C86.0023 47.602 86.1452 50.317 85.8182 52.5813C85.1532 57.1732 84.1172 61.6111 81.9491 65.7495C81.8978 65.8484 81.8382 65.8539 81.7705 65.766C80.4991 64.0751 79.4365 62.2624 78.5828 60.3278C78.5407 60.2344 78.5416 60.1409 78.5856 60.0475C80.5751 55.8019 80.8252 50.1521 80.2921 45.4944C79.5309 38.8471 75.8981 31.7024 70.949 27.1765C66.5551 23.159 60.3722 19.9274 54.3541 19.5619Z" fill="#FBC000"/>
<path d="M35.7115 40.3639L49.1682 19.4905C49.1787 19.4736 49.1944 19.4607 49.213 19.4537C49.2315 19.4466 49.2518 19.4459 49.2709 19.4515C49.2899 19.4571 49.3065 19.4688 49.3183 19.4847C49.33 19.5007 49.3362 19.5201 49.3359 19.5399L49.3249 55.365C49.3251 55.3836 49.3197 55.4018 49.3092 55.4172C49.2987 55.4326 49.2838 55.4444 49.2664 55.451C49.2489 55.4576 49.2299 55.4587 49.2119 55.4541C49.1938 55.4496 49.1776 55.4395 49.1655 55.4254L35.7198 40.4738C35.7065 40.459 35.6985 40.4401 35.697 40.4203C35.6955 40.4004 35.7006 40.3806 35.7115 40.3639Z" fill="#FBC000"/>
<path d="M71.9241 58.4813L52.4906 58.4346C52.0711 58.4822 51.7157 58.4538 51.4244 58.3494C51.3456 58.3201 51.3062 58.2633 51.3062 58.179L51.2705 21.9912C51.2705 21.3574 51.4409 21.3079 51.7816 21.8428C53.675 24.8216 55.3072 27.292 57.6045 30.6445C58.9675 32.634 60.3497 35.0742 61.4434 36.7752C65.7779 43.5242 70.0995 50.2814 74.4083 57.0468C74.6721 57.459 74.945 57.8227 75.2271 58.1378C75.2479 58.1617 75.2615 58.191 75.2663 58.2223C75.2712 58.2536 75.267 58.2857 75.2544 58.3147C75.2417 58.3438 75.2211 58.3686 75.1948 58.3865C75.1686 58.4043 75.1379 58.4143 75.1062 58.4153L71.9241 58.4813Z" fill="#FBC000"/>
<path d="M24.4862 58.2832C24.2755 58.252 24.2288 58.1476 24.3461 57.9699L34.5355 42.3286C34.5573 42.2949 34.5866 42.2666 34.621 42.2459C34.6555 42.2252 34.6942 42.2127 34.7342 42.2092C34.7742 42.2058 34.8145 42.2115 34.852 42.226C34.8895 42.2405 34.9231 42.2634 34.9504 42.2928C39.3984 47.1622 43.83 52.0059 48.245 56.824C48.529 57.1336 48.747 57.4295 48.899 57.7116C48.9376 57.7816 48.9573 57.8605 48.9562 57.9405C48.9551 58.0204 48.9333 58.0987 48.8928 58.1677C48.8524 58.2367 48.7947 58.294 48.7255 58.334C48.6562 58.374 48.5778 58.3953 48.4978 58.3958C41.6334 58.4508 34.824 58.503 27.9816 58.3684C27.0556 58.3491 25.7118 58.4645 24.4862 58.2832Z" fill="#FBC000"/>
<path d="M51.9467 59.454L71.1549 59.5035L71.9573 59.7618C72.0855 59.8021 72.0873 59.8479 71.9628 59.8992C70.6602 60.4351 69.0939 60.784 67.9947 61.1605C62.464 63.0511 56.9177 64.8941 51.3559 66.6894C49.24 67.3709 46.7063 68.4151 44.3239 69.1378C43.8787 69.2725 43.8292 69.1378 43.4748 68.94C39.2081 66.5932 34.9396 64.2519 30.6693 61.9162C29.5097 61.2805 28.2419 60.6512 26.8661 60.0283C26.5639 59.891 26.5446 59.7334 26.8084 59.5557C26.911 59.4861 27.1299 59.4513 27.4652 59.4513C35.6193 59.4458 43.7798 59.4467 51.9467 59.454Z" fill="#FBC000"/>
<path d="M33.1096 69.965C33.0017 69.9634 32.8955 69.9371 32.7989 69.888C32.7022 69.839 32.6177 69.7685 32.5517 69.682C31.9032 68.8356 31.2932 68.0937 30.5018 67.3023C28.3254 65.1259 26.6189 62.6747 24.5442 60.4461C24.5246 60.4242 24.5134 60.396 24.5127 60.3666C24.512 60.3372 24.5218 60.3086 24.5403 60.2857C24.5589 60.2629 24.5849 60.2474 24.6138 60.2421C24.6427 60.2367 24.6726 60.2418 24.6981 60.2565C28.3474 62.486 32.0315 64.6303 35.7504 66.6895C37.3772 67.5908 39.1496 68.4894 40.6197 69.649C40.6596 69.6812 40.6885 69.725 40.7023 69.7743C40.7162 69.8237 40.7145 69.8761 40.6973 69.9244C40.6801 69.9726 40.6483 70.0144 40.6063 70.0438C40.5644 70.0732 40.5143 70.0889 40.4631 70.0887L33.1096 69.965Z" fill="#FBC000"/>
<path d="M72.2617 63.8397C70.5909 66.1352 68.9449 68.1906 67.3236 70.0061L48.2116 70.0693C47.7536 70.0693 47.7188 69.9475 48.1072 69.7038C48.5175 69.4455 49.0946 69.1845 49.8384 68.9207C56.8841 66.431 63.9848 64.0513 70.9591 61.3693C72.0858 60.9379 73.5505 60.2949 74.765 60.5202C74.853 60.5367 74.8686 60.5797 74.8118 60.6493L72.2617 63.8397Z" fill="#FBC000"/>
<path d="M58.1183 84.444C42.9001 88.3928 26.3492 80.5666 18.7346 67.0769C18.7211 67.0525 18.7141 67.025 18.7144 66.9971C18.7146 66.9692 18.722 66.942 18.7359 66.918C18.7499 66.8941 18.7698 66.8743 18.7936 66.8607C18.8175 66.8472 18.8445 66.8402 18.872 66.8406L25.2912 66.8598C25.3244 66.8598 25.357 66.8687 25.3855 66.8856C25.4141 66.9025 25.4375 66.9269 25.4534 66.956C25.7914 67.5578 26.0854 68.0415 26.5086 68.5471C30.2843 73.0537 34.9072 76.2569 40.3775 78.1567C45.1507 79.8164 50.5559 79.7835 55.5819 79.1652C62.2402 78.3463 70.4978 73.433 74.2378 67.8024C74.617 67.2308 75.2765 66.7857 75.958 66.8076C77.6507 66.8681 79.3215 66.8608 80.9702 66.7857C81.0109 66.7839 81.0514 66.7909 81.0891 66.8061C81.1268 66.8213 81.1608 66.8443 81.1889 66.8737C81.217 66.9031 81.2385 66.9382 81.252 66.9765C81.2654 67.0149 81.2706 67.0557 81.267 67.0962C81.2597 67.1695 81.2231 67.2592 81.1571 67.3655C77.4492 73.3212 72.5175 77.9872 66.3621 81.3635C63.7516 82.7952 61.185 83.6471 58.1183 84.444Z" fill="#FBC000"/>
</svg>
