<svg width="100" height="100" viewBox="0 0 100 100" fill="none" xmlns="http://www.w3.org/2000/svg">
<rect width="100" height="100" fill="#E6212A"/>
<path d="M78.5406 23.6873C76.4331 21.2198 74.5206 20.4398 71.4606 19.4123C68.7501 18.6249 66.3699 18.8774 63.1731 19.2698C58.8281 19.8148 54.748 20.7598 50.933 22.1048C41.798 25.1273 24.2405 32.6348 20.603 42.6999C20.583 42.7449 20.443 43.0248 20.183 43.5398C19.268 45.3398 21.998 47.2673 23.648 47.8898C24.678 45.1098 25.6305 43.1624 26.5055 42.0474C32.4005 34.5323 46.598 28.5548 55.4855 25.8248C60.3006 24.3473 72.4281 21.0248 75.7206 25.4648C77.3856 28.3823 74.1531 32.9048 72.1431 35.1849C65.0981 43.1699 55.9981 48.2348 44.843 50.3798C44.843 50.3798 44.2155 50.4698 43.7105 50.7248C43.6039 50.7754 43.5148 50.8567 43.4547 50.9583C43.3945 51.0598 43.3661 51.177 43.373 51.2948C43.403 51.9098 43.658 52.5148 44.138 53.1098C45.118 53.7398 45.7105 54.4223 45.9155 55.1573C50.1639 54.3113 53.7367 54.7999 56.6341 56.623C57.2403 57.0045 57.7376 57.5581 57.9788 58.2326C60.5045 65.2966 48.2572 72.3116 43.478 74.2749C41.403 75.3199 39.3905 75.9574 37.4405 76.1874C34.8805 76.5974 32.488 76.2374 30.263 75.1074L28.808 75.2724C26.8205 76.8549 30.323 79.2024 31.658 79.6974C40.7405 82.4574 48.8705 78.1824 55.9281 72.9549C61.3915 68.9122 64.5246 62.7464 60.7517 56.8259C60.0192 55.6765 58.9845 54.7598 57.919 53.9099L57.8751 53.8749C57.9232 53.9133 56.8181 53.1398 56.3331 52.5848C56.1331 52.3598 56.1731 52.1948 56.4531 52.0898C65.4231 48.7448 86.2131 36.0173 78.5406 23.6873Z" fill="white"/>
<path d="M47.6555 34.5474C48.938 35.7549 49.2455 36.8649 48.2555 38.4849C41.6455 49.3349 38.1755 61.1524 37.8455 73.9374C37.8405 74.1924 37.768 74.4274 37.628 74.6424L37.2229 75.2799C36.6479 75.2849 36.2579 75.2049 36.0529 75.0399C34.1429 73.6999 33.3429 72.2874 33.6529 70.8024L33.6079 69.2649C33.5929 68.9299 33.4429 68.8474 33.1579 69.0174C32.0229 69.7024 30.7879 69.9349 29.4529 69.7149C22.8004 66.8499 25.1479 59.8074 27.0229 54.6174C27.1416 54.2864 27.3867 54.0161 27.7045 53.8656C28.0222 53.7152 28.3867 53.6969 28.7179 53.8149C29.8029 54.2049 30.8104 54.8949 31.7404 55.8849L29.8804 64.7274C29.8621 64.8045 29.8682 64.8854 29.8978 64.9589C29.9275 65.0324 29.9792 65.0949 30.0459 65.1378C30.1126 65.1806 30.191 65.2016 30.2702 65.198C30.3494 65.1943 30.4255 65.1662 30.4879 65.1174L33.4654 62.8974C34.0354 62.5924 34.3479 62.2724 34.4029 61.9374C36.0029 52.1724 39.518 42.9024 44.948 34.1274C45.0966 33.8882 45.3339 33.7176 45.608 33.653C45.8821 33.5883 46.1706 33.6348 46.4105 33.7824L47.6555 34.5474Z" fill="#FEFEFE"/>
<path d="M33.7352 38.8148C34.8502 39.4698 35.5777 40.0598 35.9177 40.5848C36.3902 41.1248 36.6002 41.5823 36.2852 42.3098C34.9602 45.3798 33.8602 48.5273 32.9852 51.7523C32.7602 52.5823 32.3177 52.9173 31.6577 52.7573C30.3477 52.1973 29.3702 51.3573 28.7252 50.2373C28.5952 50.0123 28.5702 49.7773 28.6502 49.5323L30.8927 42.4973C31.2777 41.6423 31.6452 40.8148 31.9952 40.0148C32.4052 39.0898 32.9852 38.6898 33.7352 38.8148Z" fill="#FEFEFE"/>
</svg>
