<svg width="100" height="100" viewBox="0 0 100 100" fill="none" xmlns="http://www.w3.org/2000/svg">
<rect width="100" height="100" fill="#292361"/>
<path d="M43.4622 44.488C49.2391 37.8928 60.3101 38.4574 60.9811 48.9802C62.143 67.44 46.7189 76.3426 30.5174 70.4512C30.2501 70.353 30.141 70.1675 30.1901 69.8948C31.8321 60.7849 33.4495 51.6968 35.0424 42.6305C36.0134 37.1373 36.5889 32.446 36.7689 28.5565C36.7907 28.1801 36.9898 27.9947 37.3662 28.0001L44.5342 28.0901C44.9706 28.0956 45.1806 28.3165 45.1642 28.7529C44.9515 33.9843 44.2178 39.142 42.9631 44.2261C42.9493 44.2899 42.9568 44.357 42.9845 44.4166C43.0122 44.4762 43.0584 44.525 43.1158 44.5551C43.1732 44.5852 43.2385 44.595 43.3013 44.5828C43.3641 44.5706 43.4207 44.5372 43.4622 44.488ZM39.9519 64.7889C52.8558 67.7509 55.4497 45.8053 47.7008 47.3191C41.122 48.6038 40.4511 57.9155 39.6573 64.3716C39.6301 64.6007 39.7283 64.7398 39.9519 64.7889Z" fill="white"/>
<path d="M32.2275 34.5298C28.079 30.3567 22.4903 30.3649 18.2763 34.448C18.1727 34.5465 18.0473 34.6188 17.9106 34.6587C17.7739 34.6985 17.6299 34.7048 17.4907 34.6771C16.4652 34.4752 15.9688 33.8643 16.0015 32.8442C16.0124 32.6205 16.0943 32.4323 16.247 32.2796C21.0502 27.3537 28.7418 26.8791 33.7167 31.7395C34.9441 32.9342 34.8623 34.4725 32.9312 34.7589C32.8047 34.7792 32.675 34.769 32.5527 34.7292C32.4304 34.6894 32.3189 34.621 32.2275 34.5298Z" fill="white"/>
<path d="M21.0256 38.0892C20.4419 37.8219 20.131 37.4728 20.0928 37.0419C20.0656 36.6982 20.2619 36.36 20.682 36.0272C24.1514 33.2724 27.4844 33.4688 30.681 36.6164C30.7428 36.6763 30.7898 36.7497 30.8185 36.8309C30.8472 36.9122 30.8568 36.9992 30.8465 37.0852C30.8362 37.1713 30.8064 37.2541 30.7593 37.3274C30.7122 37.4008 30.649 37.4626 30.5747 37.5083L29.5355 38.1465C29.4421 38.2009 29.3345 38.2254 29.2275 38.2166C29.1206 38.2079 29.0195 38.1662 28.9382 38.0974C26.6089 36.1063 24.285 36.0627 21.9666 37.9665C21.8366 38.074 21.6792 38.1426 21.5126 38.1643C21.3461 38.186 21.1772 38.16 21.0256 38.0892Z" fill="white"/>
<path d="M18.7019 41.6242C18.7274 41.4729 18.8028 41.3348 18.9157 41.2322C19.0286 41.1297 19.1725 41.0689 19.3238 41.0596L23.1041 40.8469C23.1654 40.8444 23.2252 40.8285 23.279 40.8001C23.3328 40.7718 23.3793 40.7318 23.4151 40.6832C23.9442 39.9795 24.6343 39.6713 25.4853 39.7586C25.7798 39.7859 26.0444 39.8895 26.279 40.0695C27.4954 40.9969 28.8756 41.256 30.4193 40.8469C30.4941 40.8262 30.5729 40.8249 30.6483 40.843C30.7237 40.8611 30.7933 40.8981 30.8505 40.9504C30.9077 41.0027 30.9507 41.0687 30.9755 41.1422C31.0003 41.2157 31.006 41.2943 30.9921 41.3706L25.7471 71.0814C25.6871 71.4305 25.4825 71.6051 25.1334 71.6051L17.9819 71.5805C17.6218 71.5805 17.4745 71.4032 17.54 71.0487L21.5904 48.1621C21.7104 47.4693 21.4185 47.1229 20.7148 47.1229H18.3419C17.9655 47.1229 17.81 46.9374 17.8755 46.5665L18.7019 41.6242Z" fill="white"/>
<path d="M60.1957 64.388C63.1087 65.4353 67.0036 66.2045 70.0148 65.2962C72.1177 64.658 74.0897 62.866 72.6741 60.6076C71.1685 58.2101 66.5618 57.9156 64.4425 55.4363C62.135 52.736 62.1923 48.9557 63.8943 45.9118C67.6419 39.2266 77.2564 39.4803 83.6142 41.5341C83.887 41.6214 84.0152 41.8096 83.9988 42.0987C83.8897 44.008 83.336 45.7836 82.3377 47.4255C82.1741 47.6874 81.945 47.7638 81.6504 47.6547C79.0238 46.64 72.2568 44.8971 71.054 48.8493C70.6721 50.1094 71.1931 51.0613 72.6169 51.705C76.8145 53.5952 80.8403 55.1335 81.4867 59.4621C82.4114 65.6399 77.4773 70.3612 71.6513 71.5232C67.0364 72.4451 62.6341 72.1559 58.4447 70.6558C58.2936 70.6017 58.1688 70.492 58.0958 70.3491C58.0228 70.2062 58.0071 70.0408 58.0519 69.8866L59.5657 64.7153C59.6639 64.3825 59.8739 64.2734 60.1957 64.388Z" fill="white"/>
</svg>
