<svg width="100" height="100" viewBox="0 0 100 100" fill="none" xmlns="http://www.w3.org/2000/svg">
<rect width="100" height="100" fill="#ECEAFF"/>
<path d="M69.2709 45.5525C69.2793 45.5758 69.281 45.605 69.276 45.64C69.2676 45.6883 69.2693 45.7367 69.281 45.785C70.4835 51.1125 67.0835 55.16 63.2935 58.4025" stroke="#383D6B" stroke-width="0.5"/>
<path d="M37.8712 59.9377L38.2812 58.3727C38.3146 58.2427 38.2646 58.1727 38.1312 58.1627L36.7188 58.0652" stroke="#383D6B" stroke-width="0.5"/>
<path d="M42.4385 45.92C43.0118 45.9567 43.5993 45.8634 44.201 45.64C44.2843 45.61 44.3468 45.5567 44.3885 45.48L45.1235 44.155" stroke="#383D6B" stroke-width="0.5"/>
<path d="M13.9312 41.3301C13.9595 41.4067 13.9945 41.4667 14.0362 41.5101C14.0728 41.5467 14.1328 41.5659 14.2162 41.5676C16.5712 41.6051 19.2711 41.3201 21.5511 41.7576" stroke="#383D6B" stroke-width="0.5"/>
<path d="M19.156 47.0725C17.526 50.2425 16.0301 53.5617 14.6685 57.03" stroke="#383D6B" stroke-width="0.5"/>
<path d="M24.0639 36.1525L22.1189 40.345C22.1108 40.3628 22.0978 40.3779 22.0814 40.3885C22.065 40.3991 22.0459 40.4049 22.0264 40.405L14.1589 40.3925C14.1416 40.3928 14.1245 40.3887 14.1092 40.3806C14.0939 40.3725 14.0809 40.3607 14.0714 40.3462C14.062 40.3317 14.0563 40.3151 14.055 40.2978C14.0537 40.2806 14.0567 40.2632 14.0639 40.2475L15.9689 36.06C15.977 36.0422 15.99 36.0271 16.0064 36.0165C16.0228 36.0059 16.0419 36.0001 16.0614 36L23.9714 36.0075C23.9885 36.0076 24.0053 36.012 24.0203 36.0203C24.0352 36.0286 24.0479 36.0405 24.0571 36.0549C24.0662 36.0693 24.0717 36.0858 24.0729 36.1028C24.0741 36.1199 24.071 36.1369 24.0639 36.1525Z" fill="#5C9BC9"/>
<path d="M69.2712 45.5526C69.2795 45.5759 69.2812 45.6051 69.2762 45.6401C69.2679 45.6884 69.2695 45.7367 69.2812 45.7851C70.4837 51.1126 67.0837 55.1601 63.2937 58.4026C60.812 60.1826 58.1179 61.4351 55.2112 62.1601C50.0087 63.4576 42.0612 64.0026 37.8712 59.9376L38.2812 58.3726C38.3146 58.2426 38.2646 58.1726 38.1312 58.1626L36.7187 58.0651C35.8087 52.8351 38.5612 49.0076 42.4387 45.9201C43.0121 45.9567 43.5996 45.8634 44.2012 45.6401C44.2846 45.6101 44.3471 45.5567 44.3887 45.4801L45.1237 44.1551C50.1212 41.3151 56.2762 40.4126 61.8637 41.1976C64.7712 41.6051 67.6087 42.7551 69.1162 45.5151C69.1345 45.5467 69.162 45.5642 69.1987 45.5676C69.2254 45.5709 69.2495 45.5659 69.2712 45.5526ZM44.9762 53.5376C44.2112 56.2976 46.1687 58.2876 48.8062 58.4901C53.4037 58.8476 58.3362 56.6226 60.3712 52.2826C63.0687 46.5301 58.2187 44.9126 53.6787 45.8801C49.5512 46.7601 46.1237 49.4001 44.9762 53.5376Z" fill="#384780"/>
<path d="M13.9314 41.3301C13.9598 41.4067 13.9948 41.4667 14.0364 41.5101C14.0731 41.5467 14.1331 41.5659 14.2164 41.5676C16.5714 41.6051 19.2714 41.3201 21.5514 41.7576L19.1564 47.0726C17.5264 50.2426 16.0306 53.5617 14.6689 57.0301L12.0839 62.5201C12.0506 62.5917 11.9948 62.6276 11.9164 62.6276H4.12145C4.00645 62.6276 3.97312 62.5751 4.02145 62.4701L13.6564 41.4626C13.6948 41.3809 13.7581 41.3384 13.8464 41.3351L13.9314 41.3301Z" fill="#384780"/>
<path d="M13.9312 41.3299L21.5436 41.3174C21.6336 41.3174 21.6786 41.3624 21.6786 41.4524C21.677 41.5357 21.6345 41.6374 21.5511 41.7574C19.2711 41.3199 16.5712 41.6049 14.2162 41.5674C14.1328 41.5657 14.0728 41.5465 14.0362 41.5099C13.9945 41.4665 13.9595 41.4065 13.9312 41.3299Z" fill="#373355"/>
<path d="M45.1239 44.1551L44.3889 45.4801C44.3473 45.5567 44.2848 45.6101 44.2014 45.6401C43.5998 45.8634 43.0123 45.9567 42.4389 45.9201C39.3656 45.8367 36.3614 45.8434 33.4264 45.9401C27.6814 46.1301 24.1864 48.9826 22.9414 54.4976C22.2539 57.5351 26.9264 58.0526 28.8664 58.0626C31.5031 58.0726 34.1206 58.0734 36.7189 58.0651L38.1314 58.1626C38.2648 58.1726 38.3148 58.2426 38.2814 58.3726L37.8714 59.9376L36.6839 62.51C36.6473 62.59 36.5848 62.6301 36.4964 62.6301C32.7564 62.6301 29.0264 62.6201 25.3064 62.6C21.3064 62.58 15.5889 61.9976 14.6689 57.0301C16.0306 53.5617 17.5264 50.2426 19.1564 47.0726C23.7264 42.8351 28.7189 41.4551 34.9664 41.3576C38.6414 41.2976 42.3864 41.2884 46.2014 41.3301C46.3248 41.3317 46.3614 41.3892 46.3114 41.5026L45.1239 44.1551Z" fill="#373355"/>
<path d="M63.2941 58.4025C67.0841 55.16 70.4841 51.1125 69.2816 45.785C69.2699 45.7366 69.2683 45.6883 69.2766 45.64C69.2816 45.605 69.2799 45.5758 69.2716 45.5525L71.1441 41.45C71.1808 41.3716 71.2424 41.3316 71.3291 41.33C76.4774 41.2883 81.6166 41.2991 86.7466 41.3625C91.3441 41.4175 97.7016 42.145 94.6391 48.8875C92.6374 53.3008 90.6183 57.7075 88.5816 62.1075C88.2641 62.79 87.9391 62.69 87.1641 62.675C84.9674 62.6316 82.7816 62.6166 80.6066 62.63C80.5917 62.6297 80.5771 62.6257 80.5641 62.6183C80.5511 62.6109 80.5401 62.6005 80.5322 62.5878C80.5242 62.5752 80.5196 62.5608 80.5186 62.5459C80.5176 62.531 80.5204 62.516 80.5266 62.5025C82.5649 58.0741 84.5908 53.6316 86.6041 49.175C87.9241 46.2525 85.8791 46.0475 83.6966 46.03C80.4116 46.0066 78.1449 45.9966 76.8966 46C76.8561 46.0008 76.8165 46.0129 76.7825 46.035C76.7485 46.0571 76.7214 46.0883 76.7041 46.125L69.2466 62.38C69.2123 62.4539 69.1576 62.5164 69.089 62.5603C69.0203 62.6041 68.9406 62.6274 68.8591 62.6275H61.5566C61.4716 62.6275 61.4466 62.5891 61.4816 62.5125L63.2941 58.4025Z" fill="#373355"/>
</svg>
