<svg width="100" height="100" viewBox="0 0 100 100" fill="none" xmlns="http://www.w3.org/2000/svg">
<rect width="100" height="100" fill="#181873"/>
<path d="M33.1979 90.5421C20.8056 85.085 11.6629 74.8148 7.80689 61.7972C0.753292 38.0168 15.05 13.54 38.5272 6.63805C38.8936 6.53067 39.7778 6.36171 41.18 6.13117C42.4022 5.92748 43.5202 5.40639 44.695 5.27849C69.0581 2.64464 89.9157 18.9593 93.9849 42.9387C94.3401 45.0325 94.6433 47.8227 94.5675 50.0539C93.8854 69.4666 82.1089 85.8382 63.5346 91.9112C54.984 94.7061 44.9318 94.7961 36.2629 91.5748C35.2349 91.1911 34.1359 90.9543 33.1979 90.5421ZM33.3164 10.9441C20.0192 16.676 11.1371 28.732 8.62641 42.9055C7.97269 46.5958 8.23323 50.8592 8.34692 54.791C8.38955 56.2121 8.91538 57.4106 9.19013 58.6375C10.1028 62.6894 11.6013 66.5391 13.6857 70.1867C13.7804 70.3509 13.8752 70.3509 13.9699 70.1867L49.8774 7.91233C50.0132 7.67548 49.9453 7.53652 49.6737 7.49547C46.1398 6.97912 42.7954 7.59968 39.4273 8.66554C37.3492 9.32558 35.3123 10.0851 33.3164 10.9441ZM70.4366 12.4552C65.8321 9.92088 62.3408 9.01609 58.049 7.81759C55.6993 7.15913 53.4871 7.36283 51.1564 7.37704C51.0975 7.37685 51.0396 7.39213 50.9885 7.42136C50.9373 7.45058 50.8948 7.49272 50.865 7.54356C50.8353 7.5944 50.8194 7.65216 50.819 7.71106C50.8186 7.76996 50.8337 7.82793 50.8627 7.87917C62.5666 28.2804 74.2957 48.6817 86.0502 69.0829C86.2744 69.4714 86.4544 69.7319 86.5902 69.8645C86.6482 69.9196 86.7182 69.9604 86.7948 69.9835C86.8714 70.0066 86.9523 70.0114 87.031 69.9976C87.1098 69.9838 87.1842 69.9517 87.2483 69.9039C87.3125 69.8561 87.3645 69.794 87.4002 69.7224C91.4363 61.5509 93.4922 52.5409 92.019 43.5308C89.8399 30.1816 82.4405 19.0588 70.4366 12.4552ZM43.4491 45.5394L32.0421 66.0038C32.0287 66.0269 32.0217 66.0532 32.0218 66.0799C32.0218 66.1067 32.0289 66.1329 32.0424 66.156C32.0559 66.1791 32.0752 66.1982 32.0984 66.2114C32.1217 66.2246 32.148 66.2314 32.1747 66.2312H49.0247C49.2047 66.2312 49.3389 66.1538 49.4274 65.9991L54.515 57.2827C54.5884 57.1565 54.6944 57.0525 54.822 56.9816C54.9496 56.9108 55.094 56.8757 55.2398 56.8801C56.342 56.9148 57.2815 57.319 58.0584 58.0928C58.1848 58.2159 58.2258 58.3628 58.1816 58.5333C57.58 60.8308 55.4909 63.5973 54.3587 65.838C54.2387 66.0717 54.3098 66.1901 54.5719 66.1933L60.4033 66.2501C60.5675 66.2501 60.6923 66.1806 60.7775 66.0417C62.1671 63.711 63.5188 61.3567 64.8325 58.9786C65.3663 58.0154 65.2289 56.9985 64.4204 55.9279C64.313 55.7858 64.332 55.6626 64.4772 55.5584C67.8501 53.133 69.7402 51.0771 68.8686 46.4489C68.4233 44.0677 67.1632 42.3529 65.0883 41.3044C64.9336 41.2223 64.8136 41.2586 64.7283 41.4133L63.0561 44.5398C62.9772 44.6883 62.9819 44.832 63.0703 44.9709C66.3484 50.1486 59.3517 53.9194 58.0584 51.6219C57.9732 51.4671 57.9732 51.3139 58.0584 51.1624L60.2801 47.1974C60.5265 46.7584 60.4459 46.6858 60.0385 46.9795C57.8974 48.5285 56.1446 48.0264 53.6718 48.1306C53.4981 48.1369 53.3671 48.2159 53.2787 48.3674L45.1355 62.5646C45.1022 62.6241 45.0538 62.674 44.9949 62.7097C44.936 62.7453 44.8687 62.7655 44.7992 62.7683L40.9195 62.8631C40.8857 62.8639 40.8522 62.8558 40.8225 62.8397C40.7928 62.8236 40.7679 62.8 40.7505 62.7715C40.7331 62.743 40.7238 62.7105 40.7235 62.6775C40.7232 62.6444 40.732 62.612 40.7489 62.5836L50.2895 45.7668C50.3742 45.6171 50.4969 45.4926 50.6451 45.4061C50.7932 45.3195 50.9615 45.274 51.1327 45.2741C53.4397 45.2646 56.1399 45.5583 58.1532 44.7625C64.3778 42.2944 64.6999 34.2887 58.7595 31.2901C56.6657 30.229 53.9276 30.5464 51.5496 30.5937C51.4043 30.5969 51.2954 30.6616 51.2227 30.7879L44.6144 42.3323C44.577 42.3972 44.5231 42.451 44.4583 42.4885C44.3934 42.5259 44.3198 42.5456 44.2449 42.5455H41.4311C41.3891 42.5451 41.3479 42.5338 41.3116 42.5127C41.2753 42.4916 41.2452 42.4613 41.2241 42.425C41.2031 42.3886 41.1919 42.3474 41.1916 42.3054C41.1914 42.2634 41.2021 42.2221 41.2226 42.1855L53.3402 20.7831C53.5139 20.4736 53.5234 20.161 53.3687 19.8452L50.5406 14.0943C50.522 14.0578 50.4924 14.0281 50.4559 14.0095C50.4195 13.9909 50.3781 13.9842 50.3376 13.9905C50.2972 13.9968 50.2597 14.0158 50.2307 14.0446C50.2016 14.0734 50.1824 14.1107 50.1758 14.1511C50.1695 14.1985 50.1616 14.2664 50.1521 14.3548C50.149 14.4212 50.1316 14.4827 50.1 14.5396C44.5386 24.3518 38.8557 34.4008 33.0511 44.6867C32.77 45.1857 32.9169 45.432 33.4916 45.4257L43.2975 45.2836C43.4965 45.2804 43.547 45.3657 43.4491 45.5394ZM14.2162 71.3804C20.5214 81.9632 30.7062 88.5004 42.5869 91.229C48.9726 92.6928 55.273 92.0012 61.4929 90.239C72.0946 87.2403 80.6167 80.6936 86.4197 71.2999C86.4477 71.2553 86.4632 71.2039 86.4646 71.1513C86.466 71.0986 86.4532 71.0465 86.4275 71.0005C86.4018 70.9545 86.3643 70.9162 86.3187 70.8897C86.2731 70.8632 86.2213 70.8494 86.1686 70.8499H14.5194C14.1057 70.8499 14.0046 71.0267 14.2162 71.3804Z" fill="white"/>
<path d="M56.2733 35.26C56.2931 35.2258 56.3255 35.2008 56.3636 35.1901C56.4016 35.1795 56.4423 35.1842 56.477 35.2031L56.638 35.2931C57.0173 35.5084 57.3556 35.7872 57.6337 36.1134C57.9119 36.4397 58.1243 36.8071 58.2589 37.1946C58.3935 37.5822 58.4476 37.9823 58.4183 38.3721C58.3889 38.7619 58.2765 39.1338 58.0876 39.4665L58.0639 39.5092C57.6818 40.1802 57.0116 40.6509 56.2006 40.8179C55.3896 40.9849 54.5042 40.8345 53.7389 40.3997L53.5778 40.3097C53.5437 40.2899 53.5186 40.2575 53.508 40.2194C53.4974 40.1814 53.5021 40.1407 53.521 40.106L56.2733 35.26Z" fill="white"/>
</svg>
