<svg width="100" height="100" viewBox="0 0 100 100" fill="none" xmlns="http://www.w3.org/2000/svg">
<rect width="100" height="100" fill="white"/>
<path d="M20.0668 27.7548C34.3768 8.29477 63.0618 7.85977 77.1968 27.7848C77.2207 27.8185 77.2348 27.8582 77.2376 27.8995C77.2404 27.9408 77.2318 27.982 77.2127 28.0187C77.1936 28.0554 77.1647 28.0861 77.1293 28.1075C77.0938 28.1288 77.0532 28.14 77.0118 28.1398H20.2618C20.2168 28.1405 20.1726 28.1285 20.134 28.1053C20.0955 28.082 20.0643 28.0484 20.044 28.0082C20.0236 27.9681 20.015 27.923 20.019 27.8782C20.0231 27.8334 20.0397 27.7906 20.0668 27.7548Z" fill="#DA251D"/>
<path d="M81.7274 37.7646H15.6325C15.5836 37.7644 15.5354 37.7527 15.4918 37.7306C15.4482 37.7084 15.4103 37.6764 15.3812 37.6371C15.3521 37.5978 15.3325 37.5523 15.3241 37.5042C15.3156 37.456 15.3185 37.4065 15.3325 37.3596C16.0458 34.9796 17.0325 32.7196 18.2925 30.5796C18.3658 30.453 18.4775 30.3896 18.6275 30.3896H78.6374C78.7217 30.3899 78.8041 30.4129 78.8755 30.4561C78.947 30.4993 79.0047 30.5611 79.0424 30.6346C79.9824 32.4196 81.3824 35.1046 81.9574 37.4746C82.0041 37.668 81.9274 37.7646 81.7274 37.7646Z" fill="#50AF35"/>
<path d="M57.0523 51.0198C58.1723 54.7648 63.0923 50.8198 59.6073 49.0848C57.2423 47.9098 54.2973 47.3098 54.8423 43.8998C55.5973 39.1998 62.0623 39.2098 62.9523 43.9048C62.9823 44.0581 62.9256 44.1648 62.7823 44.2248C61.4823 44.7714 60.5606 44.4898 60.0173 43.3798C59.9399 43.2189 59.8044 43.0923 59.6373 43.0248C57.5473 42.1648 56.4873 44.7698 58.4423 45.6798C61.3123 47.0098 64.1373 47.6298 63.2473 51.5148C62.0873 56.5948 55.0573 55.9648 54.3373 50.9798C54.3288 50.9246 54.3329 50.8682 54.3493 50.8149C54.3657 50.7616 54.394 50.7126 54.432 50.6717C54.47 50.6308 54.5167 50.5991 54.5687 50.5788C54.6207 50.5586 54.6767 50.5504 54.7323 50.5548L56.6573 50.7048C56.7481 50.7104 56.8348 50.7437 56.9056 50.8001C56.9763 50.8565 57.0276 50.9332 57.0523 51.0198Z" fill="#0193DC"/>
<path d="M6.34441 40.6466L4.21441 40.6429C4.10948 40.6427 4.02427 40.7276 4.02408 40.8326L4.00012 54.5625C3.99994 54.6675 4.08485 54.7527 4.18979 54.7529L6.31978 54.7566C6.42472 54.7568 6.50993 54.6719 6.51011 54.5669L6.53408 40.837C6.53426 40.732 6.44934 40.6468 6.34441 40.6466Z" fill="#0193DC"/>
<path d="M12.2622 45.0198V54.5948C12.2622 54.6398 12.2443 54.6831 12.2124 54.715C12.1805 54.7468 12.1373 54.7648 12.0922 54.7648H9.93221C9.88712 54.7648 9.84388 54.7468 9.812 54.715C9.78012 54.6831 9.76221 54.6398 9.76221 54.5948V40.8098C9.76221 40.7647 9.78012 40.7214 9.812 40.6896C9.84388 40.6577 9.88712 40.6398 9.93221 40.6398H12.5422C12.5725 40.6393 12.6024 40.6469 12.6288 40.6618C12.6552 40.6768 12.6771 40.6985 12.6922 40.7248L18.1922 50.3948C18.21 50.4282 18.2386 50.4547 18.2732 50.4701C18.3079 50.4855 18.3467 50.4889 18.3834 50.4797C18.4202 50.4705 18.4529 50.4493 18.4762 50.4194C18.4995 50.3895 18.5122 50.3527 18.5122 50.3148V40.8198C18.5122 40.7747 18.5301 40.7314 18.562 40.6996C18.5939 40.6677 18.6371 40.6498 18.6822 40.6498L20.9672 40.6348C20.9895 40.6348 21.0116 40.6392 21.0323 40.6477C21.0529 40.6563 21.0716 40.6688 21.0874 40.6846C21.1032 40.7003 21.1157 40.7191 21.1243 40.7397C21.1328 40.7603 21.1372 40.7824 21.1372 40.8048V54.6348C21.1373 54.6584 21.1324 54.6818 21.123 54.7035C21.1135 54.7251 21.0996 54.7446 21.0822 54.7606C21.0648 54.7766 21.0443 54.7888 21.0219 54.7964C20.9995 54.804 20.9758 54.8068 20.9522 54.8048L18.2222 54.5898C18.1945 54.5877 18.1676 54.5789 18.1441 54.5641C18.1206 54.5493 18.101 54.5289 18.0872 54.5048L12.5772 44.9348C12.558 44.9034 12.5292 44.8791 12.4951 44.8655C12.461 44.8519 12.4233 44.8497 12.3879 44.8593C12.3524 44.8689 12.321 44.8897 12.2983 44.9186C12.2757 44.9475 12.263 44.983 12.2622 45.0198Z" fill="#0193DC"/>
<path d="M24.0573 40.9699C24.0573 40.8877 24.09 40.8088 24.1481 40.7507C24.2063 40.6926 24.2851 40.6599 24.3673 40.6599L28.4473 40.6749C30.2638 40.6818 32.0034 41.3721 33.2833 42.5939C34.5632 43.8156 35.2786 45.4688 35.2723 47.1899V48.2599C35.2692 49.1123 35.0889 49.9557 34.7417 50.7419C34.3945 51.5281 33.8872 52.2418 33.2488 52.8421C32.6103 53.4425 31.8533 53.9177 31.0209 54.2408C30.1885 54.5638 29.297 54.7283 28.3973 54.7249L24.3173 54.7099C24.2351 54.7099 24.1563 54.6772 24.0981 54.6191C24.04 54.561 24.0073 54.4821 24.0073 54.3999L24.0573 40.9699ZM26.7273 43.3299L26.7873 52.0699C26.7873 52.1203 26.8073 52.1686 26.843 52.2043C26.8786 52.2399 26.9269 52.2599 26.9773 52.2599L28.0923 52.2499C29.3373 52.2416 30.5281 51.7602 31.4029 50.9117C32.2777 50.0631 32.7649 48.9168 32.7573 47.7249V47.5949C32.7536 47.0045 32.6284 46.4206 32.3889 45.8767C32.1494 45.3327 31.8003 44.8393 31.3615 44.4247C30.9228 44.0101 30.4029 43.6823 29.8317 43.4601C29.2604 43.238 28.649 43.1258 28.0323 43.1299L26.9173 43.1399C26.8669 43.1399 26.8186 43.1599 26.783 43.1956C26.7473 43.2312 26.7273 43.2795 26.7273 43.3299Z" fill="#0193DC"/>
<path d="M67.9622 40.6399H66.1922C65.9547 40.6399 65.7622 40.8324 65.7622 41.0699V54.3399C65.7622 54.5774 65.9547 54.7699 66.1922 54.7699H67.9622C68.1997 54.7699 68.3922 54.5774 68.3922 54.3399V41.0699C68.3922 40.8324 68.1997 40.6399 67.9622 40.6399Z" fill="#0193DC"/>
<path d="M71.762 54.6548C71.4087 54.7948 71.0604 54.7965 70.717 54.6598C70.5204 54.5832 70.462 54.4465 70.542 54.2498L75.902 41.3398C76.0091 41.0811 76.1904 40.86 76.4232 40.7044C76.6559 40.5489 76.9296 40.4658 77.2095 40.4658C77.4895 40.4658 77.7631 40.5489 77.9959 40.7044C78.2286 40.86 78.41 41.0811 78.517 41.3398L83.932 54.3398C84.002 54.5032 83.9487 54.5915 83.772 54.6048L81.532 54.7698C81.4518 54.7768 81.3712 54.7578 81.302 54.7156C81.2328 54.6734 81.1785 54.6101 81.147 54.5348L79.827 51.3248C79.7537 51.1448 79.6204 51.0565 79.427 51.0598L75.047 51.1048C74.847 51.1048 74.702 51.1948 74.612 51.3748C74.1687 52.2548 73.7887 53.1582 73.472 54.0848C73.3554 54.4282 73.2004 54.6415 73.007 54.7248C72.7737 54.8315 72.507 54.8132 72.207 54.6698C72.0604 54.5998 71.912 54.5948 71.762 54.6548ZM75.662 48.4498C75.653 48.4744 75.6502 48.5008 75.6537 48.5267C75.6573 48.5526 75.6672 48.5773 75.6825 48.5985C75.6977 48.6197 75.718 48.6368 75.7415 48.6484C75.7649 48.66 75.7909 48.6656 75.817 48.6648L78.642 48.6148C78.6686 48.6146 78.6947 48.6078 78.7179 48.595C78.7412 48.5822 78.7609 48.5638 78.7753 48.5415C78.7897 48.5192 78.7983 48.4936 78.8003 48.4671C78.8024 48.4407 78.7978 48.4141 78.787 48.3898L77.302 44.7748C77.2889 44.7462 77.2675 44.722 77.2407 44.7055C77.2139 44.6889 77.1827 44.6806 77.1512 44.6817C77.1197 44.6827 77.0892 44.6931 77.0635 44.7115C77.0379 44.7298 77.0182 44.7553 77.007 44.7848L75.662 48.4498Z" fill="#0193DC"/>
<path d="M88.6022 49.6198L88.5422 54.4498C88.5389 54.6731 88.4272 54.7748 88.2072 54.7548L86.2972 54.5948C86.1105 54.5815 86.0172 54.4815 86.0172 54.2948L85.8472 41.0298C85.8459 40.9325 85.8829 40.8386 85.9503 40.7684C86.0176 40.6983 86.1099 40.6574 86.2072 40.6548C87.3772 40.6181 88.8472 40.6231 90.6172 40.6698C96.2522 40.8198 96.9572 47.7648 91.9972 49.5448C91.8205 49.6081 91.7872 49.7148 91.8972 49.8648L95.1972 54.3648C95.3905 54.6315 95.3239 54.7648 94.9972 54.7648H92.6072C92.4239 54.7648 92.2822 54.6898 92.1822 54.5398L88.7472 49.5748C88.7374 49.5612 88.7236 49.5509 88.7077 49.5456C88.6917 49.5402 88.6745 49.54 88.6585 49.545C88.6424 49.55 88.6284 49.5599 88.6183 49.5733C88.6082 49.5868 88.6025 49.603 88.6022 49.6198ZM88.6372 43.3648L88.6272 47.1648C88.6272 47.2311 88.6535 47.2947 88.7004 47.3416C88.7473 47.3885 88.8109 47.4148 88.8772 47.4148L90.1322 47.4198C90.4625 47.4213 90.7899 47.3739 91.0955 47.2804C91.401 47.187 91.6788 47.0492 91.913 46.875C92.1471 46.7008 92.3329 46.4936 92.4597 46.2653C92.5866 46.0371 92.652 45.7922 92.6522 45.5448V45.0048C92.6526 44.5073 92.3897 44.0295 91.9211 43.6762C91.4525 43.3229 90.8164 43.1228 90.1522 43.1198L88.8922 43.1148C88.859 43.1141 88.8259 43.1201 88.795 43.1324C88.7641 43.1447 88.7359 43.163 88.7122 43.1862C88.6884 43.2095 88.6696 43.2373 88.6567 43.268C88.6438 43.2986 88.6372 43.3316 88.6372 43.3648Z" fill="#0193DC"/>
<path d="M15.6721 58.3447L81.857 58.2847C82.1304 58.2847 82.2137 58.4113 82.107 58.6647L79.477 64.8647C79.427 64.9832 79.3433 65.0844 79.2366 65.1555C79.1299 65.2267 79.0048 65.2646 78.877 65.2647C62.3104 65.268 45.6887 65.268 29.0121 65.2647C26.5521 65.2647 22.4771 65.0297 19.1421 65.3297C17.3371 65.4947 15.7271 60.0797 15.3971 58.6947C15.3404 58.4613 15.4321 58.3447 15.6721 58.3447Z" fill="#50AF35"/>
<path d="M77.5718 67.8649C63.4718 87.9349 33.4669 88.2149 19.6619 67.7149C19.5719 67.5816 19.6069 67.5149 19.7669 67.5149H77.3868C77.4281 67.5151 77.4687 67.5265 77.5041 67.5479C77.5395 67.5692 77.5684 67.5996 77.5875 67.6358C77.6066 67.672 77.6153 67.7125 77.6125 67.7529C77.6098 67.7933 77.5957 67.8321 77.5718 67.8649Z" fill="#0193DC"/>
<path d="M45.8873 87.5549C45.8773 87.5816 45.8673 87.6099 45.8573 87.6399H41.3423L45.8873 87.5549Z" fill="#F7B69D"/>
<path d="M45.8869 87.5549L49.9919 87.6399H45.8569C45.8669 87.6099 45.8769 87.5816 45.8869 87.5549Z" fill="#873C50"/>
<mask id="path-14-inside-1_65_716" fill="white">
<path d="M52.5 48.25C52.5 52.2541 49.2541 55.5 45.25 55.5C41.2459 55.5 38 52.2541 38 48.25C38 44.2459 41.2459 41 45.25 41C49.2541 41 52.5 44.2459 52.5 48.25ZM40.3498 48.25C40.3498 50.9563 42.5437 53.1502 45.25 53.1502C47.9563 53.1502 50.1502 50.9563 50.1502 48.25C50.1502 45.5437 47.9563 43.3498 45.25 43.3498C42.5437 43.3498 40.3498 45.5437 40.3498 48.25Z"/>
</mask>
<path d="M52.5 48.25C52.5 52.2541 49.2541 55.5 45.25 55.5C41.2459 55.5 38 52.2541 38 48.25C38 44.2459 41.2459 41 45.25 41C49.2541 41 52.5 44.2459 52.5 48.25ZM40.3498 48.25C40.3498 50.9563 42.5437 53.1502 45.25 53.1502C47.9563 53.1502 50.1502 50.9563 50.1502 48.25C50.1502 45.5437 47.9563 43.3498 45.25 43.3498C42.5437 43.3498 40.3498 45.5437 40.3498 48.25Z" fill="#F7B69D" stroke="#DA251D" mask="url(#path-14-inside-1_65_716)"/>
<circle cx="45.25" cy="48.25" r="6" stroke="black" stroke-width="0.5"/>
</svg>
