<svg width="100" height="100" viewBox="0 0 100 100" fill="none" xmlns="http://www.w3.org/2000/svg">
<rect width="100" height="100" fill="#595C62"/>
<path d="M23.0811 58V40.8203H26.5498V58H23.0811ZM30.2145 40.8203H36.5544C37.9841 40.8203 39.0739 40.9297 39.8239 41.1484C40.8317 41.4453 41.695 41.9727 42.4137 42.7305C43.1325 43.4883 43.6794 44.418 44.0544 45.5195C44.4294 46.6133 44.6169 47.9648 44.6169 49.5742C44.6169 50.9883 44.4411 52.207 44.0895 53.2305C43.6598 54.4805 43.0466 55.4922 42.2497 56.2656C41.6481 56.8516 40.8356 57.3086 39.8122 57.6367C39.0466 57.8789 38.0231 58 36.7419 58H30.2145V40.8203ZM33.6833 43.7266V55.1055H36.2731C37.2419 55.1055 37.9411 55.0508 38.3708 54.9414C38.9333 54.8008 39.3981 54.5625 39.7653 54.2266C40.1403 53.8906 40.445 53.3398 40.6794 52.5742C40.9137 51.8008 41.0309 50.75 41.0309 49.4219C41.0309 48.0938 40.9137 47.0742 40.6794 46.3633C40.445 45.6523 40.1169 45.0977 39.695 44.6992C39.2731 44.3008 38.738 44.0312 38.0895 43.8906C37.6052 43.7812 36.6559 43.7266 35.2419 43.7266H33.6833ZM52.3128 58L46.1722 40.8203H49.9339L54.2816 53.5352L58.4886 40.8203H62.1683L56.0159 58H52.3128ZM63.4189 52.4102L66.7939 52.082C66.997 53.2148 67.4072 54.0469 68.0244 54.5781C68.6494 55.1094 69.4892 55.375 70.5439 55.375C71.6611 55.375 72.5009 55.1406 73.0634 54.6719C73.6338 54.1953 73.9189 53.6406 73.9189 53.0078C73.9189 52.6016 73.7978 52.2578 73.5556 51.9766C73.3213 51.6875 72.9072 51.4375 72.3134 51.2266C71.9072 51.0859 70.9814 50.8359 69.5361 50.4766C67.6767 50.0156 66.372 49.4492 65.622 48.7773C64.5673 47.832 64.04 46.6797 64.04 45.3203C64.04 44.4453 64.2861 43.6289 64.7783 42.8711C65.2783 42.1055 65.9931 41.5234 66.9228 41.125C67.8603 40.7266 68.9892 40.5273 70.3095 40.5273C72.4658 40.5273 74.0869 41 75.1728 41.9453C76.2666 42.8906 76.8408 44.1523 76.8955 45.7305L73.4267 45.8828C73.2783 45 72.958 44.3672 72.4658 43.9844C71.9814 43.5938 71.2509 43.3984 70.2744 43.3984C69.2666 43.3984 68.4775 43.6055 67.9072 44.0195C67.54 44.2852 67.3564 44.6406 67.3564 45.0859C67.3564 45.4922 67.5283 45.8398 67.872 46.1289C68.3095 46.4961 69.372 46.8789 71.0595 47.2773C72.747 47.6758 73.9931 48.0898 74.7978 48.5195C75.6103 48.9414 76.2431 49.5234 76.6963 50.2656C77.1572 51 77.3877 51.9102 77.3877 52.9961C77.3877 53.9805 77.1142 54.9023 76.5673 55.7617C76.0205 56.6211 75.247 57.2617 74.247 57.6836C73.247 58.0977 72.0009 58.3047 70.5088 58.3047C68.3369 58.3047 66.6689 57.8047 65.5048 56.8047C64.3408 55.7969 63.6455 54.332 63.4189 52.4102Z" fill="#F8F8F8"/>
</svg>
