<svg width="100" height="100" viewBox="0 0 100 100" fill="none" xmlns="http://www.w3.org/2000/svg">
<rect width="100" height="100" fill="#9BAA39"/>
<path d="M79.4664 50.2376C82.5146 51.424 85.5984 54.1745 86.1094 57.5694C86.1302 57.7145 86.0946 57.8434 86.0028 57.9559C83.51 60.9642 79.382 62.2084 75.8538 60.431C73.4588 59.2268 71.828 56.4496 69.353 54.9477C65.1272 52.3882 59.5062 53.1125 56.058 56.6495C52.2766 60.5332 51.6856 67.6605 52.6543 72.7217C52.6839 72.8698 52.7728 72.9542 52.9209 72.9749C63.3987 74.5524 76.9647 76.2409 87.7091 72.7083C89.7946 72.024 89.8834 72.2225 87.9757 73.3038C76.8358 79.6268 60.2394 77.7739 48.0375 75.9076C35.1736 73.9392 22.754 73.9392 10.2277 77.8583C10.1715 77.8791 10.1167 77.8761 10.0633 77.8494C9.97743 77.808 9.97891 77.768 10.0678 77.7295C21.5883 72.652 33.6435 70.8065 46.2334 72.1929C46.3845 72.2107 46.4704 72.144 46.4912 71.9929C47.6376 64.4967 45.5491 54.6589 36.4177 53.468C33.3962 53.074 30.6649 53.9138 28.2239 55.9875C26.7976 57.2005 25.2957 59.2001 23.5538 60.1377C20.2123 61.9358 16.9434 61.487 13.747 58.7913C12.9205 58.0981 12.6539 57.5516 13.1027 56.4674C14.3291 53.5198 16.4649 51.4595 19.5102 50.2865C19.6939 50.2154 19.7176 50.1087 19.5813 49.9665C17.9668 48.3047 17.0485 46.311 16.8263 43.9856C16.8194 43.9135 16.829 43.8409 16.8544 43.7731C16.8798 43.7054 16.9204 43.6443 16.973 43.5946C18.543 42.066 20.4463 41.3476 22.6829 41.4395C22.7236 41.4408 22.7639 41.4304 22.799 41.4095C22.834 41.3886 22.8623 41.3582 22.8805 41.3217C22.8988 41.2852 22.9062 41.2443 22.9019 41.2037C22.8975 41.1632 22.8817 41.1247 22.8562 41.0929C20.3767 38.0121 19.6332 34.5224 20.6255 30.624C20.8166 29.8775 20.8922 29.5531 21.772 29.522C24.0441 29.448 26.177 29.959 28.1706 31.055C28.3869 31.1735 28.4683 31.1128 28.415 30.8728C27.8285 28.2541 28.0492 25.7139 29.0771 23.2523C29.1305 23.1253 29.218 23.0154 29.3301 22.9347C29.4422 22.854 29.5745 22.8055 29.7125 22.7946C33.4836 22.5043 36.4859 23.8418 38.7195 26.807C38.7437 26.8384 38.7754 26.8631 38.8116 26.8789C38.8479 26.8948 38.8875 26.9012 38.927 26.8977C38.9664 26.8941 39.0042 26.8807 39.0371 26.8587C39.07 26.8366 39.0967 26.8066 39.115 26.7715C39.9533 25.1215 41.1456 23.7899 42.692 22.7768C42.7662 22.7272 42.8539 22.7014 42.9436 22.703C43.0333 22.7046 43.1207 22.7334 43.1941 22.7857L44.5938 23.7633C44.6183 23.7805 44.6475 23.7901 44.6775 23.7908C44.7075 23.7914 44.737 23.7831 44.7623 23.7669C44.7876 23.7507 44.8075 23.7273 44.8194 23.6997C44.8313 23.6722 44.8348 23.6417 44.8293 23.6122C44.1124 19.2576 45.4766 15.7827 48.9218 13.1877C49.0847 13.0659 49.2826 13 49.4861 13C49.6895 13 49.8875 13.0659 50.0504 13.1877C53.5252 15.7561 54.9027 19.2353 54.1829 23.6255C54.1774 23.657 54.1815 23.6895 54.1947 23.7187C54.2079 23.7478 54.2295 23.7724 54.2568 23.7891C54.2841 23.8059 54.3157 23.8141 54.3477 23.8126C54.3797 23.8112 54.4105 23.8002 54.4361 23.781L55.8847 22.7235C55.947 22.6784 56.0216 22.654 56.0975 22.654C56.1735 22.654 56.2469 22.6784 56.3069 22.7235C57.791 23.8136 58.9937 25.1496 59.915 26.7315C59.995 26.8707 60.0927 26.8855 60.2083 26.7759C63.0254 24.1232 64.7717 22.448 68.9975 22.7901C71.277 22.9723 70.9038 29.4909 70.6149 30.9039C70.6066 30.9413 70.6097 30.9802 70.6238 31.0157C70.6378 31.0513 70.6622 31.0818 70.6938 31.1033C70.7254 31.1248 70.7627 31.1364 70.8009 31.1365C70.8391 31.1366 70.8765 31.1253 70.9082 31.1039C72.9611 29.7916 75.2199 29.2939 77.6845 29.6109C77.8155 29.6281 77.9386 29.683 78.0388 29.7691C78.139 29.8551 78.212 29.9684 78.2489 30.0952C79.4427 34.2158 78.7095 37.9039 76.0493 41.1595C75.9368 41.2988 75.9708 41.3758 76.1515 41.3906C78.4844 41.5817 80.2129 41.8083 81.9725 43.5012C82.0851 43.6079 82.1384 43.7382 82.1325 43.8923C82.0406 46.277 81.1283 48.2662 79.3953 49.8599C79.367 49.8859 79.3458 49.9187 79.3338 49.9552C79.3217 49.9917 79.3191 50.0307 79.3262 50.0684C79.3333 50.1062 79.3499 50.1416 79.3744 50.1711C79.3989 50.2007 79.4306 50.2236 79.4664 50.2376ZM49.0862 15.2984C44.736 19.0709 45.798 24.7586 49.3394 28.6644C49.3627 28.69 49.391 28.7106 49.4224 28.7249C49.4539 28.7391 49.4878 28.7466 49.5221 28.7471C49.5564 28.7475 49.5903 28.7407 49.6215 28.7273C49.6528 28.7138 49.6809 28.6939 49.7038 28.6689C53.8807 24.1039 53.8392 19.5701 49.5794 15.0673C49.5354 15.0207 49.4759 14.9917 49.412 14.986C49.3481 14.9803 49.2844 14.9981 49.2328 15.0362C49.1499 15.0984 49.101 15.1858 49.0862 15.2984ZM30.1435 24.4164C28.9838 29.8286 32.3297 33.0901 37.2398 34.5165C37.2707 34.5258 37.3032 34.5287 37.3353 34.5249C37.3674 34.5212 37.3984 34.5108 37.4263 34.4946C37.4542 34.4783 37.4785 34.4565 37.4977 34.4305C37.5168 34.4044 37.5303 34.3747 37.5375 34.3432C38.8839 28.7622 35.7112 25.4696 30.7078 24.0787C30.6486 24.0615 30.5864 24.0567 30.5252 24.0646C30.464 24.0725 30.405 24.0929 30.3521 24.1246C30.2991 24.1563 30.2532 24.1985 30.2174 24.2488C30.1815 24.299 30.1563 24.3561 30.1435 24.4164ZM68.4687 24.0965C63.4342 24.923 60.0127 29.1577 61.5591 34.3388C61.5946 34.4484 61.6687 34.4898 61.7812 34.4632C66.4869 33.3079 70.4416 29.4243 68.7309 24.2565C68.6864 24.1291 68.5991 24.0758 68.4687 24.0965ZM43.283 25.4829C43.2305 25.4328 43.1611 25.4042 43.0881 25.4025C43.015 25.4009 42.9436 25.4264 42.8875 25.474C37.6753 29.8997 39.1416 36.6183 43.2696 41.0884C43.3046 41.1261 43.3471 41.1561 43.3945 41.1764C43.4418 41.1967 43.4929 41.207 43.5447 41.2066C43.5964 41.2062 43.6476 41.1951 43.6951 41.174C43.7426 41.1529 43.7853 41.1222 43.8206 41.084C48.3308 36.054 48.2064 30.1397 43.283 25.4829ZM55.4182 25.7628C50.7051 30.8699 50.6636 36.0125 55.2937 41.1906C55.3974 41.3091 55.5041 41.3106 55.6137 41.1951C59.7861 36.7027 61.4258 30.0464 56.3113 25.7095C55.9973 25.4399 55.6996 25.4577 55.4182 25.7628ZM29.4326 42.3059C31.0855 36.8049 27.944 32.4636 22.6073 31.3661C22.551 31.354 22.4921 31.3643 22.4425 31.3949C22.393 31.4254 22.3566 31.4739 22.3407 31.5305C20.7633 37.0493 23.9982 41.1062 29.1437 42.4659C29.2918 42.5044 29.3881 42.4511 29.4326 42.3059ZM69.824 42.4437C74.7696 41.2573 78.2755 37.1159 76.7114 31.726C76.6782 31.6114 76.6016 31.5143 76.4978 31.4553C76.3941 31.3964 76.2714 31.3803 76.156 31.4105C70.6223 32.8472 68.3887 36.445 69.4552 42.2038C69.4937 42.4141 69.6166 42.4941 69.824 42.4437ZM41.7588 50.3442C42.9408 43.4257 39.3949 37.9735 32.2453 37.2226C32.0972 37.2078 32.0053 37.273 31.9698 37.4181C30.3168 44.4255 34.9514 49.3755 41.5278 50.5086C41.6611 50.5323 41.7381 50.4775 41.7588 50.3442ZM66.7935 37.2759C59.8839 37.8936 55.6759 43.5457 57.3244 50.3798C57.354 50.5012 57.4296 50.5501 57.551 50.5264C64.0697 49.2822 68.6731 44.5188 67.0112 37.4314C66.9846 37.3159 66.912 37.2641 66.7935 37.2759ZM48.0864 39.7376C42.7186 45.6386 44.4916 52.9748 49.2195 58.4536C49.2457 58.4842 49.2781 58.5089 49.3146 58.5261C49.3511 58.5433 49.391 58.5527 49.4316 58.5535C49.4721 58.5543 49.5126 58.5467 49.5503 58.531C49.588 58.5153 49.6221 58.492 49.6505 58.4625C55.9069 51.9928 55.6448 44.9854 49.5794 38.4979C49.4402 38.3498 49.3054 38.3542 49.175 38.5112C48.9321 38.7956 48.5692 39.2044 48.0864 39.7376ZM33.0851 50.0376C30.6634 43.7545 24.918 41.7949 19.0214 45.0298C18.9592 45.0654 18.9385 45.1172 18.9592 45.1853C21.1943 52.0639 26.9931 52.6237 32.9296 50.3842C33.0984 50.322 33.1503 50.2065 33.0851 50.0376ZM66.0381 50.3087C71.828 52.8637 77.5912 51.935 79.9996 45.412C80.0351 45.3184 80.0343 45.215 79.9973 45.122C79.9603 45.029 79.8897 44.9533 79.7996 44.9098C73.5965 41.8216 68.642 43.8123 65.9226 50.0065C65.91 50.0339 65.9031 50.0635 65.9021 50.0936C65.9011 50.1237 65.9062 50.1537 65.9169 50.1818C65.9277 50.21 65.944 50.2357 65.9648 50.2575C65.9856 50.2792 66.0105 50.2967 66.0381 50.3087ZM26.2244 53.8768C21.4965 50.7086 17.0307 52.6415 14.5424 57.3027C14.4868 57.407 14.4723 57.5286 14.5019 57.6436C14.5315 57.7586 14.6029 57.8589 14.7024 57.9248C19.6702 61.1775 23.5094 58.4625 26.3088 54.3034C26.3314 54.2699 26.3471 54.2322 26.3551 54.1926C26.3631 54.153 26.3631 54.1122 26.3553 54.0725C26.3474 54.0329 26.3318 53.9952 26.3094 53.9616C26.2869 53.928 26.258 53.8992 26.2244 53.8768ZM84.4787 57.4316C82.3191 52.5793 77.2135 50.6819 72.7256 53.9879C72.6964 54.0082 72.6761 54.0391 72.6687 54.0745C72.6613 54.1099 72.6673 54.1472 72.6856 54.179C75.1429 58.4047 79.8707 61.3774 84.3942 57.7649C84.5068 57.676 84.5349 57.5649 84.4787 57.4316Z" fill="white"/>
</svg>
