<svg width="100" height="100" viewBox="0 0 100 100" fill="none" xmlns="http://www.w3.org/2000/svg">
<rect width="100" height="100" fill="#311EBD"/>
<g clip-path="url(#clip0_71_62)">
<path d="M52.8859 16.3281H58.6515C59.6143 16.3459 60.5771 16.3611 61.5399 16.3736C62.3907 16.3848 63.2785 16.4162 64.1504 16.4097C64.2095 16.4092 64.2305 16.4434 64.2821 16.4439C65.1752 16.4548 66.0679 16.4842 66.9601 16.532C66.9658 16.5324 66.9712 16.5349 66.9751 16.5391C66.979 16.5433 66.9812 16.5488 66.9812 16.5545L67.0313 30.2364C67.0313 30.24 67.0299 30.2435 67.0274 30.246C67.0248 30.2486 67.0213 30.25 67.0177 30.25H16.8226C16.8127 30.25 16.803 30.2478 16.794 30.2437C16.7851 30.2396 16.7771 30.2336 16.7706 30.2261C16.7642 30.2187 16.7594 30.2099 16.7567 30.2004C16.7539 30.191 16.7532 30.181 16.7546 30.1713C17.147 27.4244 18.429 24.8392 20.1446 22.6914C20.1496 22.6852 20.2174 22.5989 20.3481 22.4327C20.4474 22.3061 20.6232 22.1673 20.6485 22.0698C20.6523 22.0555 20.6598 22.0434 20.671 22.0338C20.7999 21.9255 20.9241 21.7628 21.0043 21.677C22.9881 19.5395 25.6215 17.9495 28.4424 17.2042C32.0152 16.2602 35.1451 16.5705 39.324 16.4842C41.0199 16.4491 42.7173 16.4397 44.4132 16.4233C45.4298 16.4136 46.4462 16.4087 47.4624 16.4087C47.4747 16.4087 47.4868 16.4053 47.4976 16.3989C47.5195 16.3858 47.5499 16.3794 47.589 16.3797C48.8299 16.385 50.5956 16.3678 52.8859 16.3281Z" fill="white"/>
<path d="M84.0781 54.5808V57.698C84.0463 59.0846 84.0292 60.4713 84.027 61.8582C84.0264 62.0941 84.0194 62.4066 84.0059 62.7957C83.9867 63.3404 83.9961 63.9141 83.9769 64.4283C83.9456 65.2477 83.9236 66.0674 83.9108 66.8874C83.9108 66.9024 83.9066 66.9163 83.8981 66.9291C83.8778 66.9591 83.8722 67.0104 83.8813 67.0829C83.8827 67.0945 83.8817 67.1063 83.8783 67.1175C83.8748 67.1287 83.8691 67.1391 83.8614 67.1478C83.8536 67.1566 83.8441 67.1637 83.8335 67.1684C83.8229 67.1733 83.8113 67.1757 83.7997 67.1757H70.1445C70.1289 67.1757 70.1211 67.1679 70.1211 67.1522V16.8802C70.1211 16.8677 70.1272 16.8626 70.1394 16.8647C71.7947 17.1297 73.347 17.6113 74.7964 18.3094C81.1025 21.3465 83.8798 28.1672 83.9084 34.8174C83.9153 36.4668 83.9166 38.1162 83.9122 39.7655C83.9122 39.7827 83.9234 39.8063 83.9459 39.8363C83.9557 39.8491 83.9609 39.8647 83.9609 39.8808V44.4057C83.9609 44.4179 83.9641 44.4291 83.9703 44.4394L83.9891 44.4713C83.9947 44.4807 83.9975 44.491 83.9975 44.5022C83.9919 45.7135 83.9963 46.9249 84.0106 48.1365C84.0111 48.1819 83.9764 48.2424 84.0158 48.2996C84.0245 48.3121 84.0289 48.326 84.0289 48.3413C84.0312 50.4226 84.0495 52.4977 84.0781 54.5808Z" fill="white"/>
<path d="M58.9266 41.4058C56.8032 41.4086 54.6779 41.4222 52.5549 41.3927C49.4671 41.3496 46.764 41.3405 44.4455 41.3655C44.2299 41.3679 44.334 41.2094 44.2894 41.0871C44.2713 41.0371 44.2615 40.9983 44.2599 40.9708C44.2351 40.5433 44.1793 40.0788 44.1605 39.6911C44.1055 38.5496 44.0921 37.3479 44.1202 36.086C44.1396 35.2185 44.2095 34.3963 44.3298 33.6194C44.3301 33.6172 44.3315 33.5996 44.334 33.5665C44.3396 33.4952 44.3873 33.4582 44.4769 33.4554C46.8465 33.3794 49.2235 33.4132 51.5945 33.4141C52.7626 33.4141 53.9298 33.4685 55.0979 33.438C56.0424 33.4132 56.986 33.4207 57.9305 33.4029C58.833 33.386 59.7355 33.3726 60.638 33.3626C60.6449 33.3626 60.6534 33.3585 60.6634 33.3504C60.6752 33.3407 60.6888 33.3357 60.7041 33.3354C61.5354 33.3216 62.4244 33.336 63.3713 33.3785C64.4105 33.4254 65.7994 33.5618 66.398 34.5485C66.8162 35.238 66.8738 36.2224 66.9245 37.0155C66.9382 37.2308 66.9451 37.5432 66.9451 37.9526C66.9454 45.2016 66.9457 52.4505 66.946 59.6993C66.946 60.6166 66.9755 61.758 67.0041 62.4532C67.0627 63.904 67.2127 66.1033 65.7657 66.9916C65.221 67.3258 64.6112 67.4327 63.9034 67.4904C61.6257 67.6755 59.1498 67.7046 56.9734 67.7257C56.9699 67.7257 56.798 67.7322 56.4577 67.7454C56.1746 67.7557 55.8521 67.7252 55.613 67.7238C53.5749 67.71 51.5371 67.6774 49.4996 67.6258C49.178 67.6177 48.8565 67.6169 48.5349 67.6235C48.4655 67.6249 48.444 67.5766 48.3802 67.5808C48.2837 67.5868 48.1869 67.5883 48.0901 67.5855C46.7957 67.5486 45.5016 67.504 44.2079 67.4515C44.1919 67.4508 44.1841 67.441 44.1844 67.4219L44.3176 59.4021C44.3176 59.389 44.3241 59.3824 44.3373 59.3824C46.9951 59.3838 49.6604 59.4166 52.3182 59.3721C54.5348 59.3349 56.7516 59.3247 58.9688 59.3416C58.9854 59.3416 58.9937 59.3335 58.9937 59.3172C59.0146 56.6775 59.0038 54.0393 58.9613 51.4024C58.9079 48.0827 58.9543 44.7522 58.9524 41.4316C58.9524 41.4144 58.9438 41.4058 58.9266 41.4058Z" fill="white"/>
<path d="M16.2969 33.4136H30.0772C30.0837 33.4136 30.0899 33.4161 30.0944 33.4207C30.099 33.4253 30.1016 33.4315 30.1016 33.438V83.7348C30.1016 83.7498 30.0942 83.7594 30.0795 83.7634C29.9741 83.7934 29.8888 83.7409 29.8067 83.7339C29.7127 83.7258 29.5961 83.7101 29.457 83.687C25.8228 83.0795 22.4886 80.8347 20.2241 78.0025C18.6612 76.0478 17.4036 73.7687 16.835 71.3012C16.4047 69.4333 16.3034 67.4875 16.2969 65.4737V61.9464C16.3048 61.2479 16.3348 60.5322 16.333 59.8511C16.3242 56.782 16.3352 53.7129 16.3658 50.6439C16.3981 47.4184 16.3794 44.1911 16.378 40.9656C16.3775 40.7012 16.3259 40.3928 16.3283 40.1172C16.343 38.2565 16.3325 36.3962 16.2969 34.5362V33.4136Z" fill="white"/>
<path d="M34.1072 66.8613C33.8365 66.6128 33.6622 66.2877 33.584 65.8858C33.3848 64.863 33.3806 63.8055 33.3764 62.7667C33.3764 62.7511 33.3725 62.7366 33.3647 62.7231C33.3537 62.705 33.3483 62.6922 33.3483 62.6847C33.3473 61.616 33.3347 60.5453 33.359 59.477C33.4617 54.9227 33.4139 51.3986 33.3736 47.3594C33.3623 46.232 33.3183 45.1033 33.3009 43.976C33.2676 41.8342 33.2001 39.6892 33.2789 37.5475C33.2964 37.0769 33.3426 36.586 33.4176 36.0747C33.6389 34.5728 34.199 33.7633 35.759 33.5355C35.8083 33.5285 35.8875 33.5449 35.9484 33.5083C35.9613 33.5006 35.976 33.4966 35.9911 33.4966C36.2264 33.4994 36.4879 33.4614 36.6872 33.4539C37.8628 33.4114 39.0387 33.3997 40.215 33.4188C40.445 33.4225 40.6703 33.4572 40.8909 33.5228C40.9659 33.5449 40.9969 33.5913 41.0714 33.6199C41.0864 33.6255 41.0984 33.6347 41.1075 33.6475C41.3395 33.9766 41.3011 34.3933 41.2865 34.7735C41.2562 35.5669 41.2392 36.3608 41.2355 37.1552C41.2233 39.7427 41.1928 42.3353 41.2331 44.9219C41.2669 47.0975 41.2919 49.2733 41.3081 51.4492C41.31 51.6705 41.3386 51.9058 41.3386 52.1097C41.3408 53.171 41.3409 54.2325 41.339 55.2944C41.339 55.4711 41.354 55.727 41.3447 55.945C41.3376 56.1044 41.377 56.2647 41.377 56.4297C41.3751 57.7249 41.3995 59.027 41.3648 60.3208C41.3358 61.4163 41.3517 62.5099 41.3198 63.6049C41.2851 64.7964 41.2487 65.9947 41.2106 67.1997C41.2081 67.2806 41.1672 67.3295 41.0878 67.3464C40.8262 67.4014 40.5353 67.443 40.215 67.4711C39.2456 67.5564 38.4886 67.555 37.7114 67.5583C37.1765 67.5606 36.6619 67.5142 36.1373 67.4894C35.9279 67.4794 35.7028 67.4525 35.4619 67.4088C34.8914 67.3047 34.5009 67.2231 34.1072 66.8613Z" fill="white"/>
<path d="M65.4655 84.2969H64.7511C64.1591 84.2791 63.5741 84.2603 62.9736 84.2617C60.5983 84.2686 58.2237 84.2566 55.85 84.2256C55.2584 84.2178 54.667 84.2141 54.0758 84.2144C52.4877 84.2153 50.4308 84.2481 48.2689 84.2036C46.8255 84.1739 45.382 84.1733 43.9386 84.2017C41.9839 84.2402 40.0283 84.19 38.0736 84.2261C36.9133 84.2477 35.753 84.2642 34.5927 84.2758C34.5055 84.2767 34.3434 84.2837 34.1066 84.2969H33.4297L33.4639 70.4003C33.464 70.3936 33.4668 70.3871 33.4715 70.3824C33.4762 70.3777 33.4826 70.375 33.4892 70.375C39.6498 70.375 45.8136 70.375 51.9805 70.375C53.2114 70.375 54.4433 70.4209 55.6747 70.4214C64.9578 70.4217 74.2411 70.4219 83.5245 70.4219C83.5398 70.4219 83.5459 70.4294 83.5428 70.4444C82.5884 75.1998 79.8669 79.3797 75.6125 81.805C74.1673 82.6286 72.5863 83.2581 70.9531 83.6519C69.0983 84.0995 67.4005 84.2519 65.4655 84.2969Z" fill="white"/>
</g>
<defs>
<clipPath id="clip0_71_62">
<rect width="67.7812" height="67.9688" fill="white" transform="translate(16.2969 16.3281)"/>
</clipPath>
</defs>
</svg>
