<svg width="100" height="100" viewBox="0 0 100 100" fill="none" xmlns="http://www.w3.org/2000/svg">
<rect width="100" height="100" fill="#FFFAC3"/>
<circle cx="66.6562" cy="49.4375" r="7.875" fill="#0099C3"/>
<path d="M55.9688 27.7812C55.9688 29.8693 54.47 31.8881 51.745 33.4704C49.0199 35.0527 45.2497 36.0934 41.1198 36.4034C36.9899 36.7134 32.7747 36.272 29.2406 35.1594C25.7066 34.0469 23.0884 32.3372 21.8623 30.3411C20.6361 28.3451 20.8834 26.1953 22.5592 24.2827C24.235 22.3701 27.2279 20.8217 30.9938 19.9191C34.7596 19.0165 39.0483 18.8197 43.0799 19.3644C47.1114 19.909 50.6182 21.1591 52.9624 22.8872L45.3505 25.4686C44.2428 24.652 42.5857 24.0613 40.6806 23.8039C38.7756 23.5466 36.749 23.6396 34.9695 24.0661C33.19 24.4926 31.7757 25.2243 30.9838 26.128C30.192 27.0318 30.0751 28.0477 30.6545 28.9909C31.2339 29.9341 32.4711 30.742 34.1411 31.2677C35.811 31.7934 37.8029 32.002 39.7544 31.8556C41.706 31.7091 43.4876 31.2173 44.7752 30.4696C46.0629 29.7219 46.7712 28.768 46.7712 27.7812H55.9688Z" fill="url(#paint0_linear_65_720)"/>
<path d="M55.9688 55.625C62.7188 65.75 72 64.3438 77.9062 55.625V73.0625C77.9062 78.3437 73.625 82.625 68.3438 82.625H65.5312C60.25 82.625 55.9688 78.3437 55.9688 73.0625V55.625Z" fill="#FCD701"/>
<path fill-rule="evenodd" clip-rule="evenodd" d="M55.4062 30.1395C54.6795 31.2477 53.6151 32.4725 52.2464 33.2576C49.476 34.8467 45.6429 35.892 41.4442 36.2033C37.2455 36.5146 32.96 36.0713 29.367 34.954C25.7741 33.8366 23.1123 32.1195 21.8657 30.1148C21.7904 29.9937 21.7206 29.8721 21.6562 29.75V75.5633C27.3234 80.1621 33.044 81.0392 43.0779 82.5775L43.3875 82.625V54.9432C48.6174 54.8381 51.4543 54.1914 55.9688 49.5763V43.5852C62.8374 34.3307 72.011 35.8901 77.9062 44.375V26.9375C77.9062 21.6563 73.625 17.375 68.3438 17.375H64.9688C59.6875 17.375 55.4062 21.6563 55.4062 26.9375V30.1395Z" fill="url(#paint1_linear_65_720)"/>
<defs>
<linearGradient id="paint0_linear_65_720" x1="23.0625" y1="28.9063" x2="49.7813" y2="27.5" gradientUnits="userSpaceOnUse">
<stop stop-color="#FDEF3F"/>
<stop offset="0.619792" stop-color="#FFFBC5"/>
<stop offset="1" stop-color="#FFFBC4"/>
</linearGradient>
<linearGradient id="paint1_linear_65_720" x1="21.6563" y1="52.8125" x2="77.9063" y2="52.8125" gradientUnits="userSpaceOnUse">
<stop offset="0.0697174" stop-color="#0295CD"/>
<stop offset="0.321426" stop-color="#EAF9FF"/>
<stop offset="0.473958" stop-color="#0695D3"/>
<stop offset="0.644626" stop-color="#0096C8"/>
<stop offset="0.781187" stop-color="#ECFAFF"/>
<stop offset="0.955387" stop-color="#0295CD"/>
</linearGradient>
</defs>
</svg>
