<svg width="100" height="100" viewBox="0 0 100 100" fill="none" xmlns="http://www.w3.org/2000/svg">
<rect width="100" height="100" fill="#E2FEE9"/>
<path d="M35.1719 18.1807C43.4219 16.8532 46.6544 23.0407 50.1119 30.0982C50.2219 30.3182 50.1569 30.4607 49.9169 30.5257C41.6069 32.7082 38.4869 25.4032 34.9469 18.6382C34.8119 18.3832 34.8869 18.2307 35.1719 18.1807Z" fill="#269642"/>
<path d="M51.8515 29.8656C55.2265 23.4381 57.9715 17.0707 66.829 18.1581C67.089 18.1881 67.159 18.3206 67.039 18.5556C63.829 24.7431 60.5065 32.5581 52.174 30.5856C52.1004 30.5686 52.0317 30.5346 51.9733 30.4864C51.915 30.4382 51.8685 30.3769 51.8373 30.3074C51.8062 30.2379 51.7913 30.162 51.7937 30.0854C51.7962 30.0088 51.816 29.9336 51.8515 29.8656Z" fill="#269642"/>
<path d="M49.4441 45.0906C38.9891 48.0306 35.1866 37.6656 31.2041 30.7206C31.1831 30.6826 31.1716 30.64 31.1705 30.5966C31.1694 30.5531 31.1789 30.51 31.198 30.471C31.2171 30.432 31.2454 30.3982 31.2804 30.3724C31.3155 30.3467 31.3562 30.3297 31.3991 30.3231C42.3866 28.7706 45.4916 36.6006 49.7291 44.4156C49.9141 44.7606 49.8191 44.9856 49.4441 45.0906Z" fill="#269642"/>
<path d="M51.6338 44.6782C55.5188 36.4057 59.5013 28.5832 69.8663 30.4507C70.0413 30.4807 70.0863 30.5757 70.0013 30.7357C65.5838 38.9932 61.9838 47.7382 51.8288 45.0982C51.5988 45.0332 51.5338 44.8932 51.6338 44.6782Z" fill="#269642"/>
<path d="M29.9518 45.9158C41.8843 44.4683 44.8843 53.0258 49.6168 61.3433C49.6523 61.405 49.6725 61.4742 49.6756 61.5454C49.6787 61.6165 49.6646 61.6876 49.6346 61.7527C49.6046 61.8178 49.5595 61.8752 49.5029 61.9201C49.4464 61.9649 49.38 61.996 49.3093 62.0108C37.5118 64.4483 34.1743 54.5108 29.6818 46.4558C29.5018 46.1408 29.5918 45.9608 29.9518 45.9158Z" fill="#269642"/>
<path d="M51.5139 61.4634C53.1039 57.9609 56.3739 51.6534 59.2239 49.1859C62.5239 46.3309 66.4739 45.2984 71.0739 46.0884C71.3889 46.1434 71.4689 46.3084 71.3139 46.5834C67.0314 54.4209 63.0339 64.8009 51.7464 61.9584C51.6963 61.9459 51.6497 61.9224 51.6098 61.8894C51.5699 61.8565 51.5377 61.8149 51.5155 61.7677C51.4934 61.7205 51.4817 61.6688 51.4815 61.6162C51.4812 61.5636 51.4923 61.5114 51.5139 61.4634Z" fill="#269642"/>
<path d="M26.2767 62.2356C39.8591 60.0606 43.6016 70.0881 48.9191 79.4406C49.0045 79.5916 49.0511 79.7613 49.0548 79.9347C49.0586 80.1081 49.0194 80.2797 48.9406 80.4342C48.8619 80.5887 48.7461 80.7213 48.6036 80.8201C48.4611 80.919 48.2964 80.981 48.1241 81.0006C34.7966 82.4481 31.6617 72.7131 26.0667 62.6631C25.9317 62.4181 26.0017 62.2756 26.2767 62.2356Z" fill="#269642"/>
<path d="M51.2813 80.0181C56.5988 69.8556 60.2663 60.7056 74.1638 62.1456C74.2212 62.1515 74.2763 62.1717 74.3239 62.2044C74.3715 62.2371 74.4101 62.2812 74.4362 62.3327C74.4624 62.3842 74.4751 62.4415 74.4734 62.4992C74.4717 62.5569 74.4555 62.6133 74.4263 62.6631C69.2288 71.8881 64.7813 84.0906 51.4988 80.5131C51.2238 80.4381 51.1513 80.2731 51.2813 80.0181Z" fill="#269642"/>
</svg>
