<svg width="100" height="100" viewBox="0 0 100 100" fill="none" xmlns="http://www.w3.org/2000/svg">
<rect width="100" height="100" fill="#FFE9E9"/>
<path d="M59.3076 49.2375L53.3351 48.625C53.6576 46.825 54.5101 46.0875 55.3101 44.7725C55.5601 44.3608 55.4717 44.2683 55.0451 44.495L48.2076 48.1325C46.2001 48.0875 44.8851 48.4075 43.0426 49.245C43.2892 47.7517 43.7117 46.255 44.3101 44.755C44.3281 44.7115 44.3322 44.6635 44.3221 44.6176C44.312 44.5716 44.288 44.5299 44.2534 44.498C44.2187 44.4661 44.1752 44.4456 44.1285 44.4393C44.0819 44.4329 44.0345 44.441 43.9926 44.4625C41.1751 45.8775 38.1051 47.805 35.0476 48.7175C34.9914 48.7343 34.9323 48.7387 34.8743 48.7304C34.8162 48.7221 34.7607 48.7013 34.7115 48.6694C34.6623 48.6376 34.6206 48.5954 34.5893 48.5459C34.558 48.4963 34.5378 48.4406 34.5301 48.3825C34.4251 47.635 34.8676 47.2475 35.5001 46.86C37.5767 45.5917 39.6392 44.2983 41.6876 42.98C42.2259 42.635 42.7326 42.2242 43.2076 41.7475C43.6742 41.2808 44.1417 40.82 44.6101 40.365L45.4501 40.49L49.4451 40.9575C49.5817 40.9425 49.7084 40.9667 49.8251 41.03L47.7701 44.9925C47.5567 45.4025 47.6726 45.5467 48.1176 45.425C53.2076 44.035 57.5926 40.8475 62.7801 39.7625C62.8073 39.7564 62.8357 39.7578 62.8622 39.7665C62.8887 39.7753 62.9124 39.791 62.931 39.8121C62.9496 39.8332 62.9623 39.8589 62.9678 39.8866C62.9734 39.9144 62.9716 39.9432 62.9626 39.97C62.0826 42.5025 59.6676 43.5425 58.4251 45.7575C57.5051 47.395 59.2101 47.86 60.0726 48.6775C60.0942 48.6985 60.1095 48.7251 60.1169 48.7543C60.1242 48.7835 60.1233 48.8141 60.1141 48.8426C60.105 48.8711 60.088 48.8963 60.0652 48.9153C60.0424 48.9343 60.0146 48.9463 59.9851 48.95C59.7467 48.9833 59.5209 49.0792 59.3076 49.2375Z" fill="#CF3B49"/>
<path d="M22.7201 49.1699L30.1401 49.2649C30.165 49.2651 30.1894 49.2726 30.2101 49.2865C30.2308 49.3004 30.247 49.3201 30.2564 49.343C30.2658 49.3658 30.2681 49.3909 30.263 49.4148C30.2578 49.4388 30.2455 49.4606 30.2276 49.4774C29.4592 50.2274 28.5226 50.6941 27.4176 50.8774C24.2276 51.4049 20.7576 51.5324 17.6451 50.5849C17.622 50.578 17.6006 50.5661 17.5826 50.55C17.5646 50.534 17.5503 50.5142 17.5408 50.492C17.5312 50.4698 17.5267 50.4458 17.5274 50.4217C17.5282 50.3976 17.5342 50.3739 17.5451 50.3524C18.1251 49.2107 18.9309 48.2249 19.9626 47.3949C21.4409 46.2099 23.8726 44.4116 27.2576 41.9999C28.3292 41.2349 29.4217 40.8424 30.5351 40.8224C32.1967 40.7907 33.8567 40.7541 35.5151 40.7124C36.9026 40.6774 39.0201 40.7424 39.9851 41.9174C40.0434 41.9891 40.0551 42.0674 40.0201 42.1524C39.7276 42.8424 38.2551 42.7949 37.6501 42.7724C35.8167 42.7057 33.9826 42.6516 32.1476 42.6099C30.9976 42.5849 29.9959 43.0091 29.1426 43.8824C29.1295 43.896 29.1207 43.9131 29.1171 43.9317C29.1136 43.9502 29.1155 43.9694 29.1227 43.9868C29.1298 44.0043 29.1419 44.0193 29.1574 44.0301C29.1729 44.0408 29.1912 44.0468 29.2101 44.0474C30.7101 44.0799 32.7151 43.9524 34.0951 44.6199C34.1784 44.6599 34.2017 44.7224 34.1651 44.8074C33.1101 47.3324 30.7101 46.0474 28.6276 46.1399C26.2442 46.2466 24.2592 47.2224 22.6726 49.0674C22.6159 49.1357 22.6317 49.1699 22.7201 49.1699Z" fill="#CF3B49"/>
<path fill-rule="evenodd" clip-rule="evenodd" d="M65.8478 46.1774C67.2853 42.4774 75.4103 39.8574 78.6803 40.3949C78.6998 40.398 78.7182 40.4057 78.7343 40.4172C78.7503 40.4287 78.7634 40.4438 78.7726 40.4612C78.7818 40.4786 78.7869 40.498 78.7873 40.5177C78.7878 40.5374 78.7837 40.557 78.7753 40.5749C78.5753 40.9832 78.2853 41.3157 77.9053 41.5724C77.8503 41.609 77.8111 41.659 77.7878 41.7224L77.3803 42.7974C77.3716 42.8211 77.3686 42.8466 77.3717 42.8717C77.3747 42.8969 77.3837 42.9209 77.3979 42.9419C77.412 42.9629 77.4309 42.9802 77.4531 42.9925C77.4752 43.0047 77.5 43.0115 77.5253 43.0124C79.7978 43.0849 82.3803 41.9174 83.2553 39.6874C83.3004 39.5728 83.3065 39.4465 83.2726 39.3281C83.2387 39.2097 83.1667 39.1057 83.0678 39.0324C78.6728 35.7774 65.0328 41.4774 62.5203 45.9474C61.2528 48.2024 64.7653 48.6799 66.0878 48.7174C68.6128 48.7874 71.0278 48.3174 73.3328 47.3074C74.4553 46.8124 76.0628 45.8849 76.5053 44.6849C76.612 44.3982 76.522 44.3074 76.2353 44.4124C75.7777 44.5789 75.3102 44.7566 74.8352 44.9372C72.0168 46.0083 68.938 47.1784 66.1503 46.7099C66.0925 46.7001 66.0375 46.6776 65.9895 46.644C65.9415 46.6104 65.9015 46.5665 65.8725 46.5155C65.8436 46.4645 65.8263 46.4077 65.8221 46.3492C65.8178 46.2907 65.8266 46.232 65.8478 46.1774ZM65.1769 47.6275C65.1525 47.6928 65.1553 47.7586 65.1853 47.8249C65.2041 47.8651 65.2342 47.899 65.2719 47.9225C65.3096 47.9461 65.3533 47.9581 65.3977 47.9574C65.4421 47.9566 65.4854 47.9429 65.5222 47.9181C65.5494 47.8997 65.5722 47.8759 65.5893 47.8482C65.5722 47.8759 65.5494 47.8997 65.5222 47.918C65.4854 47.9429 65.4422 47.9565 65.3977 47.9573C65.3533 47.9581 65.3096 47.946 65.2719 47.9225C65.2342 47.899 65.2041 47.8651 65.1853 47.8248C65.1553 47.7586 65.1525 47.6928 65.1769 47.6275Z" fill="#CF3B49"/>
<path fill-rule="evenodd" clip-rule="evenodd" d="M65.3976 54.1999C73.3776 52.9799 82.3501 50.4499 88.6351 45.1699C90.3451 43.5274 92.6826 41.0899 91.6701 38.5874C90.1026 34.7149 82.3201 34.3449 79.0851 34.7249C73.4151 34.9399 67.6701 36.0774 62.4601 38.3749C61.7835 38.6732 61.1535 39.0257 60.5701 39.4324C60.5562 39.4387 60.5454 39.4503 60.54 39.4646C60.5346 39.4789 60.5351 39.4947 60.5414 39.5087C60.5477 39.5226 60.5592 39.5334 60.5735 39.5388C60.5878 39.5442 60.6037 39.5437 60.6176 39.5374C64.9576 38.4574 87.7801 32.9524 89.1701 39.6599C89.5226 41.3524 87.4276 43.4974 86.1601 44.4699C84.0751 46.0724 82.2401 47.1749 79.6976 47.9724C76.0426 49.1199 72.4126 49.4899 68.4851 49.6474C68.4691 50.2118 68.2699 50.5892 67.8877 50.7797C68.2699 50.5892 68.469 50.2118 68.4851 49.6474C65.4601 49.6524 62.4009 49.5158 59.3076 49.2374L53.3351 48.6249C51.6817 48.3133 49.9726 48.1491 48.2076 48.1324C46.2001 48.0874 44.8851 48.4074 43.0426 49.2449C40.4476 50.6624 40.0276 53.4349 42.6251 55.1074C44.3376 56.2099 46.6501 56.4099 48.6326 56.2499C53.3176 55.8699 57.9842 55.3533 62.6326 54.6999L65.3976 54.1999C65.4931 53.331 65.9442 52.1165 66.7702 51.6098C65.9443 52.1165 65.4932 53.331 65.3976 54.1999ZM67.1536 51.4301C67.2067 51.4016 67.2514 51.3624 67.2876 51.3124L67.5226 50.9899C67.5542 50.9453 67.5922 50.9099 67.6365 50.8837C67.5921 50.9099 67.5542 50.9453 67.5226 50.9899L67.2876 51.3124C67.2513 51.3624 67.2067 51.4016 67.1536 51.4301Z" fill="#15166A"/>
<path fill-rule="evenodd" clip-rule="evenodd" d="M49.8252 41.03C49.7086 40.9666 49.5819 40.9425 49.4452 40.9575C49.5519 40.8608 49.6311 40.7525 49.6827 40.6325C49.7194 40.5508 49.7002 40.4858 49.6252 40.4375C49.4756 40.3371 49.3232 40.251 49.1685 40.1779C49.3232 40.251 49.4754 40.3371 49.6251 40.4374C49.7001 40.4857 49.7192 40.5507 49.6826 40.6324C49.6309 40.7524 49.5517 40.8607 49.4451 40.9574L45.4502 40.49L45.4501 40.4899L44.6102 40.365C36.5827 39.4 27.2477 38.82 19.4877 41.57C16.6352 42.58 13.3477 44.685 11.5827 47.19C9.10024 50.7125 12.9777 52.255 15.6552 52.6425C18.7386 52.9941 21.7152 52.9925 24.5852 52.6375C29.7469 52.0008 34.8244 51.03 39.8177 49.725C39.844 49.7192 39.8714 49.7231 39.8951 49.7358C39.9187 49.7485 39.9371 49.7693 39.9467 49.7944C39.9564 49.8195 39.9568 49.8472 39.9478 49.8725C39.9388 49.8978 39.921 49.9191 39.8977 49.9325C33.6977 53.1825 26.9502 54.315 19.8502 54.6525C18.0969 54.7358 16.5785 54.6558 15.2952 54.4125C12.7077 54.1699 8.43774 52.9574 8.00774 49.8775C7.80024 46.485 11.8102 43.4 14.4327 41.8475C20.5427 38.2325 27.3977 36.315 34.3602 35.15C40.0636 34.195 45.8002 33.4983 51.5702 33.06C54.0502 32.8725 57.5377 33.0025 59.1577 35.2775C59.7694 36.1391 59.8852 37.03 59.5052 37.95C58.0927 41.37 52.6752 41.26 49.8252 41.03Z" fill="#15166A"/>
<path fill-rule="evenodd" clip-rule="evenodd" d="M56.5376 67.7301C61.976 66.9251 67.4726 66.7276 73.0276 67.1376C73.4359 67.1533 73.8563 67.1896 74.2815 67.2264C75.8195 67.3594 77.4212 67.4979 78.7451 66.6851C80.3026 65.7301 80.1251 63.8876 78.8676 62.7576C76.3715 60.5147 70.1028 61.521 66.1382 62.1574C65.719 62.2247 65.3256 62.2879 64.9651 62.3426C60.9551 63.1193 57.036 64.2459 53.2076 65.7226C53.2431 66.0476 53.341 66.246 53.5014 66.3177C53.341 66.246 53.243 66.0476 53.2076 65.7226C46.8476 68.1701 40.8201 71.5351 36.0676 76.5001C35.9793 76.5901 35.9068 76.6884 35.8501 76.7951C35.8473 76.7984 35.8452 76.8022 35.8439 76.8063C35.8425 76.8104 35.842 76.8147 35.8424 76.819C35.8427 76.8233 35.8439 76.8275 35.8459 76.8313C35.8479 76.8351 35.8506 76.8386 35.8538 76.8413C35.8571 76.8441 35.8609 76.8463 35.865 76.8476C35.8691 76.8489 35.8735 76.8494 35.8777 76.849C35.882 76.8487 35.8862 76.8475 35.8901 76.8455C35.8939 76.8436 35.8973 76.8409 35.9001 76.8376C42.0234 71.9809 48.9026 68.9451 56.5376 67.7301L56.5376 67.7301ZM55.2726 67.2901C55.1726 67.2551 55.1485 67.1918 55.2001 67.1001C55.2601 66.9934 55.2976 66.8843 55.3126 66.7726C55.321 66.6993 55.3093 66.6284 55.2776 66.5601C55.1752 66.3472 55.0556 66.2237 54.9202 66.1611C55.0556 66.2238 55.1752 66.3472 55.2776 66.5601C55.3093 66.6284 55.3209 66.6993 55.3126 66.7726C55.2976 66.8843 55.2601 66.9934 55.2001 67.1001C55.1484 67.1918 55.1726 67.2551 55.2726 67.2901L55.2726 67.2901Z" fill="#15166A"/>
<path fill-rule="evenodd" clip-rule="evenodd" d="M65.1105 60.5875C60.0555 60.8808 55.2163 61.98 50.593 63.885C50.6313 63.5433 50.8055 63.3 51.1155 63.155C51.1888 63.1217 51.2105 63.0675 51.1805 62.9925L50.843 62.1125C50.8097 62.0292 50.8297 61.9608 50.903 61.9075C51.418 61.5408 51.988 61.2925 52.613 61.1625C52.6904 61.1469 52.7741 61.1373 52.8601 61.1276C53.1185 61.0981 53.3979 61.0663 53.593 60.86C53.6139 60.8383 53.628 60.8111 53.6336 60.7816C53.6393 60.752 53.6362 60.7215 53.6248 60.6937C53.6134 60.6659 53.5942 60.642 53.5695 60.6249C53.5447 60.6078 53.5156 60.5983 53.4855 60.5975C53.4202 60.5957 53.357 60.5973 53.296 60.6023C53.3569 60.5973 53.4199 60.5957 53.4851 60.5975C53.5151 60.5983 53.5443 60.6078 53.569 60.6249C53.5938 60.642 53.613 60.6659 53.6244 60.6937C53.6358 60.7215 53.6389 60.7521 53.6332 60.7816C53.6276 60.8111 53.6134 60.8384 53.5926 60.86C53.3975 61.0663 53.118 61.0982 52.8597 61.1276C52.7737 61.1374 52.69 61.1469 52.6126 61.1625C51.9876 61.2925 51.4176 61.5409 50.9026 61.9075C50.8292 61.9609 50.8092 62.0292 50.8426 62.1125L51.1801 62.9925C51.2101 63.0675 51.1884 63.1217 51.1151 63.155C50.8051 63.3 50.6309 63.5434 50.5926 63.885C45.0726 66.3925 40.6926 69.8125 36.3126 73.9525C36.2969 73.9684 36.2761 73.9777 36.2541 73.9789C36.2321 73.98 36.2105 73.9728 36.1932 73.9586C36.176 73.9444 36.1643 73.9243 36.1605 73.902C36.1567 73.8796 36.161 73.8567 36.1726 73.8375C39.8126 68.01 45.3601 63.735 51.5326 60.805C51.6346 61.0578 51.8316 61.1723 52.1237 61.1484C51.8319 61.1721 51.635 61.0576 51.533 60.805C55.2763 58.9016 59.1897 57.3958 63.273 56.2875C66.253 55.4525 70.083 54.3975 73.163 54.735C74.6805 54.9 76.7355 56.1975 76.3155 57.9725C75.9205 59.645 73.6655 60.405 72.1455 60.3725C69.5688 60.3175 67.2238 60.3892 65.1105 60.5875ZM55.7043 60.3014C55.723 60.2992 55.7418 60.3012 55.7605 60.3075C55.7922 60.3158 55.8247 60.325 55.858 60.335C55.8778 60.3408 55.8947 60.3428 55.9087 60.341C55.8947 60.3428 55.8778 60.3407 55.8581 60.335C55.8248 60.325 55.7923 60.3158 55.7606 60.3075C55.7418 60.3012 55.723 60.2992 55.7043 60.3014ZM55.7703 59.8094C55.7866 59.7976 55.8055 59.7902 55.8252 59.7876C55.8055 59.7902 55.7865 59.7976 55.7702 59.8094C55.7459 59.827 55.729 59.8531 55.723 59.8825C55.6956 59.9952 55.6417 60.064 55.5616 60.089C55.6418 60.064 55.6956 59.9952 55.7231 59.8825C55.7291 59.8531 55.746 59.827 55.7703 59.8094ZM55.2355 60.104C55.2457 60.0881 55.2608 60.0762 55.2785 60.07C55.2834 60.0683 55.2885 60.067 55.2937 60.0663C55.2885 60.067 55.2835 60.0683 55.2785 60.07C55.2609 60.0761 55.2458 60.0881 55.2356 60.104C55.2253 60.1199 55.2205 60.1389 55.2219 60.1581C55.2233 60.1772 55.2307 60.1955 55.2431 60.21C55.3111 60.2856 55.3981 60.3252 55.5042 60.3287C55.3981 60.3252 55.311 60.2856 55.243 60.21C55.2306 60.1955 55.2232 60.1773 55.2218 60.1581C55.2205 60.139 55.2253 60.12 55.2355 60.104ZM42.9129 67.2025C42.907 67.194 42.8992 67.1869 42.8898 67.1813C42.8991 67.1868 42.9069 67.1939 42.9129 67.2025C42.9166 67.2079 42.9195 67.2137 42.9216 67.2198C42.9195 67.2136 42.9166 67.2078 42.9129 67.2025ZM42.7805 67.1695C42.8107 67.1644 42.8373 67.1645 42.8593 67.1695C42.7912 67.1542 42.6814 67.1864 42.5775 67.2584C42.5571 67.2725 42.538 67.2874 42.5205 67.3028C42.5382 67.2872 42.5574 67.2723 42.5775 67.2583C42.6446 67.2119 42.7176 67.1799 42.7805 67.1695ZM42.423 67.417C42.431 67.4032 42.4404 67.3892 42.4512 67.3754C42.437 67.3937 42.4252 67.4119 42.4161 67.4296C42.4182 67.4255 42.4205 67.4212 42.423 67.417Z" fill="#15166A"/>
</svg>
