<svg width="100" height="100" viewBox="0 0 100 100" fill="none" xmlns="http://www.w3.org/2000/svg">
<rect width="100" height="100" fill="white"/>
<path d="M85.9999 50C85.9999 54.7276 85.0688 59.4089 83.2596 63.7766C81.4504 68.1443 78.7987 72.1129 75.4558 75.4558C72.1129 78.7988 68.1443 81.4505 63.7766 83.2597C59.4088 85.0688 54.7276 86 50 86C40.4522 86 31.2955 82.2072 24.5442 75.4558C17.7928 68.7045 14 59.5478 14 50C14 40.4522 17.7928 31.2955 24.5442 24.5442C31.2955 17.7928 40.4522 14 50 14C59.5478 14 68.7045 17.7928 75.4558 24.5442C82.2071 31.2955 85.9999 40.4522 85.9999 50ZM84.3002 50.0026C84.3002 40.9063 80.6867 32.1826 74.2547 25.7505C67.8226 19.3184 59.0989 15.7049 50.0026 15.7049C40.9063 15.7049 32.1825 19.3184 25.7505 25.7505C19.3184 32.1826 15.7049 40.9063 15.7049 50.0026C15.7049 59.0989 19.3184 67.8227 25.7505 74.2547C32.1825 80.6868 40.9063 84.3003 50.0026 84.3003C59.0989 84.3003 67.8226 80.6868 74.2547 74.2547C80.6867 67.8227 84.3002 59.0989 84.3002 50.0026Z" fill="#1D65B7"/>
<path d="M82.6478 49.9999C82.6478 54.2873 81.8033 58.5326 80.1626 62.4936C78.5219 66.4546 76.1171 70.0537 73.0855 73.0853C70.0539 76.1169 66.4548 78.5217 62.4939 80.1624C58.5329 81.8031 54.2875 82.6476 50.0002 82.6476C41.3415 82.6476 33.0374 79.2079 26.9148 73.0853C20.7922 66.9627 17.3525 58.6586 17.3525 49.9999C17.3525 41.3412 20.7922 33.0372 26.9148 26.9146C33.0374 20.7919 41.3415 17.3523 50.0002 17.3523C58.6588 17.3523 66.9629 20.7919 73.0855 26.9146C79.2081 33.0372 82.6478 41.3412 82.6478 49.9999ZM80.9481 50.0052C80.9481 45.941 80.1476 41.9167 78.5923 38.1619C77.037 34.4071 74.7574 30.9955 71.8836 28.1217C69.0098 25.2479 65.5982 22.9683 61.8434 21.413C58.0886 19.8577 54.0643 19.0572 50.0002 19.0572C41.7923 19.0572 33.9205 22.3178 28.1167 28.1217C22.3128 33.9255 19.0523 41.7973 19.0523 50.0052C19.0523 58.2131 22.3128 66.0848 28.1167 71.8886C33.9205 77.6925 41.7923 80.9531 50.0002 80.9531C54.0643 80.9531 58.0886 80.1526 61.8434 78.5973C65.5982 77.042 69.0098 74.7624 71.8836 71.8886C74.7574 69.0149 77.037 65.6032 78.5923 61.8484C80.1476 58.0936 80.9481 54.0693 80.9481 50.0052Z" fill="#1D65B7"/>
<path d="M79.2975 50.0052C79.2975 57.7748 76.2111 65.2262 70.7171 70.7201C65.2232 76.214 57.7719 79.3005 50.0023 79.3005C42.2327 79.3005 34.7813 76.214 29.2874 70.7201C23.7935 65.2262 20.707 57.7748 20.707 50.0052C20.707 42.2356 23.7935 34.7843 29.2874 29.2903C34.7813 23.7964 42.2327 20.71 50.0023 20.71C57.7719 20.71 65.2232 23.7964 70.7171 29.2903C76.2111 34.7843 79.2975 42.2356 79.2975 50.0052ZM77.5952 50.0052C77.5952 42.6864 74.6878 35.6674 69.5126 30.4922C64.3375 25.3171 57.3185 22.4097 49.9997 22.4097C42.6809 22.4097 35.6618 25.3171 30.4867 30.4922C25.3115 35.6674 22.4041 42.6864 22.4041 50.0052C22.4041 57.324 25.3115 64.3431 30.4867 69.5182C35.6618 74.6934 42.6809 77.6008 49.9997 77.6008C57.3185 77.6008 64.3375 74.6934 69.5126 69.5182C74.6878 64.3431 77.5952 57.324 77.5952 50.0052Z" fill="#1D65B7"/>
<path d="M75.9457 50.0027C75.9457 56.8838 73.2122 63.4832 68.3464 68.3489C63.4807 73.2146 56.8814 75.9482 50.0002 75.9482C43.119 75.9482 36.5197 73.2146 31.6539 68.3489C26.7882 63.4832 24.0547 56.8838 24.0547 50.0027C24.0547 43.1215 26.7882 36.5221 31.6539 31.6564C36.5197 26.7907 43.119 24.0571 50.0002 24.0571C56.8814 24.0571 63.4807 26.7907 68.3464 31.6564C73.2122 36.5221 75.9457 43.1215 75.9457 50.0027ZM44.48 27.7599C42.9581 28.058 41.7788 28.8765 40.942 30.2153C40.1035 31.5542 39.4454 32.9279 38.9677 34.3365C38.9454 34.4013 38.909 34.4604 38.861 34.5094C38.8131 34.5584 38.7549 34.5962 38.6906 34.62C38.6263 34.6437 38.5575 34.6529 38.4892 34.6469C38.4209 34.6408 38.3548 34.6196 38.2957 34.5849C37.7544 34.2659 37.2523 34.6215 36.8104 34.6686C35.4036 34.8237 34.0795 35.2482 32.8383 35.9421C32.5977 36.078 32.5454 36.2637 32.5716 36.5147C25.1137 41.0151 25.0719 51.1192 32.5559 55.5777C32.6308 55.6213 32.6509 55.6823 32.616 55.7608C30.9032 59.6675 31.4341 64.5627 34.4308 67.6928C37.6315 71.0347 41.5426 72.0249 46.1641 70.6634C46.2111 70.639 46.2469 70.7061 46.2713 70.8647C46.2887 70.9815 46.3497 71.0129 46.4543 70.9589L50.1205 69.0918C50.2007 69.0499 50.2756 69.0587 50.3454 69.1179C51.2885 69.9146 52.3807 70.5222 53.6219 70.9405C54.0019 71.0695 54.3767 71.2116 54.7463 71.3668C55.8655 71.8322 57.1887 71.8322 58.2059 71.2308C62.9939 70.9929 66.7986 67.596 68.0616 63.0931L68.2944 63.0852C68.3833 63.0818 68.446 63.0399 68.4826 62.9597C69.5103 60.7893 68.9559 58.1587 68.1375 55.9386C68.1303 55.9192 68.1279 55.8984 68.1305 55.8779C68.1332 55.8574 68.1407 55.8378 68.1525 55.8209C68.1643 55.8039 68.1801 55.7901 68.1984 55.7805C68.2167 55.771 68.2371 55.766 68.2578 55.766H68.4408C68.521 55.766 68.5907 55.7381 68.65 55.6823C70.7472 53.6557 72.324 51.7887 73.0405 49.1371C73.2837 48.2428 73.1372 47.4034 73.0536 46.4908C73.0693 42.5579 71.5282 39.4452 68.4303 37.1528C68.1165 36.2062 67.6798 35.7512 66.6522 35.5054C65.0021 35.1079 63.6947 34.2711 61.9191 34.3809C60.996 34.4385 60.6064 33.0081 60.2874 32.3334C59.7121 31.1253 58.504 29.5407 57.4083 28.7614C56.8975 28.3971 56.4147 27.9987 55.9597 27.5664C55.8986 27.5071 55.8254 27.4775 55.74 27.4775L54.9215 27.4592C51.414 25.8623 47.9335 25.9626 44.48 27.7599Z" fill="#D5152A"/>
<path d="M54.9209 27.4592L55.7394 27.4775C55.8248 27.4775 55.898 27.5072 55.959 27.5664C56.414 27.9988 56.8969 28.3971 57.4077 28.7615C58.5034 29.5407 59.7115 31.1254 60.2868 32.3335C60.6058 33.0081 60.9954 34.4385 61.9185 34.381C63.694 34.2712 65.0015 35.108 66.6515 35.5054C67.6792 35.7512 68.1159 36.2062 68.4297 37.1528C66.1599 35.6065 63.6435 34.9833 60.8804 35.2832C60.7827 35.2936 60.7235 35.2518 60.7025 35.1576C59.9181 31.7111 57.9908 29.145 54.9209 27.4592Z" fill="#AB2331"/>
<path d="M44.48 27.7598C41.7482 29.5205 40.0276 31.969 39.3181 35.1052C39.2972 35.201 39.2379 35.2446 39.1403 35.2359C36.7903 35.0319 34.6007 35.4582 32.5715 36.5146C32.5454 36.2636 32.5977 36.0779 32.8383 35.9419C34.0795 35.2481 35.4035 34.8236 36.8104 34.6685C37.2523 34.6214 37.7544 34.2658 38.2956 34.5848C38.3548 34.6195 38.4209 34.6407 38.4891 34.6467C38.5574 34.6528 38.6262 34.6436 38.6905 34.6198C38.7548 34.596 38.8131 34.5583 38.861 34.5093C38.9089 34.4602 38.9454 34.4012 38.9677 34.3364C39.4454 32.9278 40.1034 31.5541 40.942 30.2152C41.7788 28.8763 42.9581 28.0579 44.48 27.7598Z" fill="#AB2331"/>
<path d="M51.3651 44.9036C51.2553 44.8879 51.1454 44.8277 51.0356 44.7231C50.9781 44.6673 50.9563 44.5993 50.9702 44.5192C51.7076 40.2097 54.0663 37.172 58.0463 35.4061C58.1321 35.3686 58.2005 35.2997 58.2374 35.2133C58.2743 35.1268 58.277 35.0293 58.245 34.9406C58.1317 34.6233 58.0131 34.2903 57.8894 33.9417C57.6174 33.1677 56.9741 32.6865 56.5427 31.9935C56.2289 31.4932 55.9752 31.1358 55.7817 30.9214C53.8022 28.7066 49.3385 27.7495 46.5771 29.3028C45.6933 29.797 44.88 30.1029 44.1766 30.8064C42.9789 32.0075 42.1117 33.2662 41.5747 34.5823C41.2269 35.4374 42.6129 35.6519 43.0862 35.9526C45.8894 37.7255 48.7946 40.5549 48.8338 44.1269C48.8338 44.2123 48.7955 44.2707 48.7188 44.3021C48.6072 44.3492 48.5575 44.3971 48.5697 44.4459C47.7556 40.14 45.26 37.2086 41.0831 35.6519C40.9715 35.61 40.9297 35.5316 40.9576 35.4165C43.3947 25.5372 57.0212 25.4745 59.0582 35.4897C59.0722 35.5612 59.0452 35.61 58.9772 35.6362C54.5876 37.2452 52.0502 40.3344 51.3651 44.9036Z" fill="#AB2331"/>
<path d="M51.3653 44.9034L51.2999 46.1873C51.2929 46.3128 51.2267 46.3756 51.1011 46.3756L48.9046 46.3808C48.7948 46.3825 48.7355 46.3294 48.7268 46.2213L48.5699 44.4457C48.5577 44.3969 48.6074 44.349 48.7189 44.3019C48.7956 44.2705 48.834 44.2121 48.834 44.1267C48.7948 40.5547 45.8896 37.7253 43.0863 35.9524C42.613 35.6517 41.2271 35.4372 41.5749 34.5821C42.1118 33.266 42.9791 32.0073 44.1768 30.8062C44.8802 30.1027 45.6934 29.7968 46.5773 29.3026C49.3387 27.7493 53.8024 28.7064 55.7819 30.9212C55.9754 31.1356 56.2291 31.493 56.5428 31.9933C56.9743 32.6863 57.6176 33.1675 57.8895 33.9415C58.0133 34.2901 58.1319 34.6231 58.2452 34.9404C58.2772 35.0291 58.2745 35.1266 58.2376 35.2131C58.2006 35.2995 58.1323 35.3684 58.0464 35.4059C54.0665 37.1718 51.7078 40.2095 50.9704 44.519C50.9564 44.5991 50.9782 44.6671 51.0358 44.7229C51.1456 44.8275 51.2554 44.8877 51.3653 44.9034Z" fill="#D5152A"/>
<path d="M44.9086 46.7888C44.6645 47.1148 44.4048 47.1671 44.1293 46.9457C42.9369 45.986 41.7027 45.3532 40.8528 44.0117C40.3507 43.222 39.8356 42.6154 39.5375 41.7629C39.0459 40.3534 39.0223 38.9021 38.5569 37.5502C38.5272 37.4648 38.468 37.4151 38.3791 37.4012C36.8467 37.1676 35.3806 37.4413 33.9807 38.2223C30.0217 40.4293 28.2409 44.9139 29.721 49.1972C29.9929 49.9869 30.5238 50.5779 31.0232 51.2525C31.5985 52.0266 32.4353 52.5156 33.0629 53.2922C33.0812 53.3141 33.1038 53.3322 33.1292 53.3453C33.1546 53.3583 33.1824 53.3662 33.2109 53.3684C33.2394 53.3706 33.2681 53.3671 33.2952 53.358C33.3223 53.349 33.3473 53.3346 33.3688 53.3157C34.2082 52.5626 34.7234 51.6082 35.7798 51.0878C36.9827 50.4942 38.2457 49.6914 39.5532 49.3829C40.0291 49.2695 40.5033 49.1466 40.9757 49.0141C41.0124 49.0031 41.0517 49.0051 41.087 49.0199C41.1223 49.0347 41.1514 49.0613 41.1692 49.0952C41.2843 49.3044 41.2878 49.47 41.1797 49.592C38.0278 50.0244 35.5035 51.5245 33.6068 54.0924C33.5527 54.1639 33.4874 54.1778 33.4107 54.1342C24.512 49.1161 28.9653 35.6491 39.0066 36.9305C39.0781 36.9392 39.1156 36.9802 39.1191 37.0534C39.2812 41.4012 41.211 44.6463 44.9086 46.7888Z" fill="#AB2331"/>
<path d="M57.9387 49.5084C58.6108 48.7161 60.9355 49.6444 61.8036 49.9006C62.3806 50.0697 62.9211 50.3295 63.4249 50.6799C64.0089 51.0861 64.5877 51.5001 65.1612 51.922C65.692 52.3116 65.9457 52.947 66.4661 53.3053C66.6997 53.4639 66.9176 53.4447 67.1198 53.2478C68.6365 51.7729 70.4486 49.9294 70.7337 47.7956C71.2514 43.9568 69.7871 40.2358 66.3092 38.4576C64.9076 37.7411 63.1686 37.0874 61.6336 37.5633C61.5552 37.5877 61.5107 37.6409 61.5003 37.7228C60.9851 41.7681 59.1076 44.9924 55.5748 47.0111C55.1896 47.2325 54.9045 47.229 54.7197 47.0006C58.6439 44.9017 60.7036 41.5842 60.8988 37.0481C60.9023 36.961 60.9485 36.913 61.0374 36.9043C71.1076 35.9786 75.4589 48.8599 66.6831 54.1107C66.6326 54.1408 66.5728 54.1514 66.5153 54.1403C66.4578 54.1292 66.4067 54.0972 66.3719 54.0505C64.28 51.256 61.4689 49.742 57.9387 49.5084Z" fill="#AB2331"/>
<path d="M44.909 46.7889L46.8022 47.5865C46.8435 47.6038 46.8767 47.6363 46.8952 47.6775C46.9136 47.7187 46.9159 47.7656 46.9016 47.8087L46.1877 49.9608C46.1563 50.0602 46.0901 50.0951 45.989 50.0654C44.4165 49.6139 42.8135 49.4561 41.1801 49.5921C41.2881 49.4701 41.2847 49.3045 41.1696 49.0953C41.1518 49.0614 41.1227 49.0348 41.0874 49.02C41.0521 49.0052 41.0127 49.0031 40.9761 49.0142C40.5037 49.1467 40.0295 49.2696 39.5536 49.3829C38.2461 49.6915 36.9831 50.4943 35.7802 51.0879C34.7238 51.6082 34.2086 52.5627 33.3692 53.3158C33.3477 53.3347 33.3227 53.3491 33.2956 53.3581C33.2685 53.3671 33.2398 53.3707 33.2113 53.3685C33.1828 53.3663 33.155 53.3584 33.1296 53.3453C33.1042 53.3322 33.0816 53.3142 33.0633 53.2923C32.4357 52.5156 31.5989 52.0266 31.0236 51.2526C30.5242 50.578 29.9933 49.987 29.7214 49.1973C28.2413 44.914 30.0221 40.4293 33.9811 38.2223C35.381 37.4413 36.8471 37.1676 38.3795 37.4012C38.4684 37.4152 38.5276 37.4649 38.5573 37.5503C39.0227 38.9022 39.0463 40.3535 39.5379 41.763C39.836 42.6154 40.3511 43.2221 40.8532 44.0118C41.703 45.3533 42.9373 45.9861 44.1297 46.9458C44.4052 47.1672 44.6649 47.1149 44.909 46.7889Z" fill="#D5152A"/>
<path d="M53.0304 45.7036C53.1559 41.9642 55.5355 38.6982 59.0474 37.4064C59.1259 37.3785 59.1642 37.4055 59.1625 37.4874C59.1206 41.2844 56.6391 44.3674 53.2213 45.8344C53.2001 45.8438 53.1769 45.8476 53.1538 45.8454C53.1307 45.8433 53.1085 45.8353 53.0894 45.8222C53.0703 45.8091 53.0548 45.7913 53.0445 45.7706C53.0342 45.7498 53.0293 45.7268 53.0304 45.7036Z" fill="#D5152A"/>
<path d="M46.9611 45.7454C46.9612 45.7615 46.9572 45.7774 46.9495 45.7917C46.9419 45.8059 46.9308 45.818 46.9173 45.8268C46.9038 45.8356 46.8882 45.841 46.8721 45.8423C46.856 45.8436 46.8399 45.8408 46.8251 45.8343C43.1659 44.2914 41.1498 41.5222 40.7767 37.5266C40.7752 37.5083 40.7783 37.4899 40.7858 37.4731C40.7932 37.4563 40.8047 37.4416 40.8193 37.4304C40.8339 37.4192 40.851 37.4119 40.8692 37.409C40.8873 37.4062 40.9059 37.4079 40.9232 37.4141C44.3723 38.6772 46.9899 41.9929 46.9611 45.7454Z" fill="#D5152A"/>
<path d="M57.9387 49.5084C56.6243 49.5084 55.3229 49.6941 54.0346 50.0654C53.9265 50.0968 53.8542 50.0584 53.8176 49.9504L53.1194 47.827C53.0845 47.7172 53.1202 47.6405 53.2266 47.5969L54.7197 47.0007C54.9045 47.2291 55.1895 47.2326 55.5748 47.0112C59.1076 44.9924 60.9851 41.7682 61.5003 37.7229C61.5107 37.6409 61.5552 37.5878 61.6336 37.5634C63.1686 37.0874 64.9075 37.7412 66.3092 38.4577C69.787 40.2358 71.2514 43.9569 70.7336 47.7956C70.4486 49.9294 68.6365 51.773 67.1198 53.2478C66.9176 53.4448 66.6997 53.464 66.4661 53.3053C65.9457 52.9471 65.692 52.3117 65.1612 51.922C64.5876 51.5002 64.0089 51.0861 63.4249 50.6799C62.9211 50.3295 62.3806 50.0698 61.8036 49.9007C60.9354 49.6444 58.6107 48.7161 57.9387 49.5084Z" fill="#D5152A"/>
<path d="M73.0531 46.4907C73.1368 47.4033 73.2833 48.2427 73.0401 49.137C72.3236 51.7886 70.7468 53.6557 68.6496 55.6823C68.5903 55.7381 68.5206 55.7659 68.4404 55.7659H68.2573C68.2367 55.7659 68.2163 55.7709 68.198 55.7805C68.1796 55.79 68.1639 55.8039 68.1521 55.8208C68.1403 55.8378 68.1327 55.8573 68.1301 55.8778C68.1275 55.8983 68.1299 55.9192 68.137 55.9385C68.9555 58.1586 69.5099 60.7893 68.4822 62.9597C68.4456 63.0399 68.3828 63.0817 68.2939 63.0852L68.0612 63.093C68.64 60.56 68.4203 58.1203 67.4022 55.7738C67.3656 55.6901 67.3866 55.6247 67.465 55.5777C70.8766 53.5276 72.7393 50.4986 73.0531 46.4907Z" fill="#AB2331"/>
<path d="M47.6751 50.6172C48.0125 49.8196 48.3446 48.9933 48.4439 48.1591C48.4484 48.1208 48.4666 48.0855 48.4951 48.0599C48.5236 48.0344 48.5603 48.0203 48.5982 48.0205L51.3622 48.0127C51.4267 48.0127 51.4686 48.0432 51.4877 48.1042L52.3062 50.7087C52.3138 50.7338 52.3134 50.7607 52.305 50.7856C52.2965 50.8104 52.2805 50.832 52.2591 50.8473L50.0913 52.3901C50.0234 52.4372 49.9562 52.4363 49.89 52.3875L47.7274 50.8028C47.699 50.7819 47.6784 50.7522 47.6689 50.7186C47.6594 50.6849 47.6616 50.6491 47.6751 50.6172Z" fill="#D5152A"/>
<path d="M44.9398 51.8722C42.358 54.8027 39.1233 55.8121 35.2358 54.9003C35.2181 54.8965 35.2017 54.8882 35.1882 54.8761C35.1748 54.8641 35.1646 54.8488 35.1588 54.8317C35.1531 54.8145 35.1518 54.7962 35.1552 54.7785C35.1586 54.7607 35.1665 54.7441 35.1782 54.7304C37.6799 51.7528 40.8849 50.6572 44.7934 51.4434C45.088 51.5027 45.1368 51.6456 44.9398 51.8722Z" fill="#D5152A"/>
<path d="M55.0963 51.4749C58.65 50.7061 62.6038 51.6919 64.7533 54.686C64.7679 54.7064 64.7773 54.73 64.7807 54.7548C64.7842 54.7795 64.7815 54.8047 64.7729 54.828C64.7644 54.8513 64.7503 54.872 64.7318 54.8883C64.7133 54.9046 64.691 54.916 64.667 54.9214C61.2135 55.7355 58.222 54.9519 55.6925 52.5705C55.3944 52.2899 55.1608 52.0057 54.9917 51.7181C54.915 51.5873 54.9499 51.5063 55.0963 51.4749Z" fill="#D5152A"/>
<path d="M47.3562 56.5268C45.7428 58.1794 46.3181 62.3189 46.862 64.2016C47.1732 65.2712 47.3641 65.9877 47.9786 66.7355C47.9864 66.7453 47.9922 66.7565 47.9957 66.7685C47.9991 66.7805 48.0002 66.7931 47.9987 66.8055C47.9972 66.8179 47.9933 66.8299 47.9872 66.8408C47.981 66.8517 47.9728 66.8612 47.9629 66.8689C46.7626 67.7841 45.4002 68.6601 43.9489 68.9269C40.7195 69.5204 37.0821 67.941 35.2935 65.1849C33.8169 62.9081 33.3846 60.4893 33.9965 57.9284C34.0679 57.6303 34.1934 57.3522 34.373 57.0942C34.4183 57.028 34.4802 57.0027 34.5587 57.0184L38.1072 57.6695C38.1856 57.6834 38.2597 57.6712 38.3294 57.6329C38.8524 57.3453 39.4111 57.1997 40.0056 57.1962C41.4804 57.1884 43.5306 55.7658 44.7544 54.997C44.8241 54.9534 44.8764 54.8933 44.9112 54.8166C45.0176 54.583 45.0481 54.3816 45.0028 54.2125L46.7312 52.3272C46.8045 52.247 46.8847 52.2391 46.9718 52.3036L48.7814 53.6268C48.865 53.6878 48.8816 53.7628 48.8311 53.8517L47.3562 56.5268Z" fill="#D5152A"/>
<path d="M65.3209 56.4955C65.7001 57.6644 66.176 58.8202 66.2126 60.0048C66.2754 62.1648 65.6216 64.0824 64.2514 65.7577C63.6343 66.5108 62.6955 67.4234 61.7751 67.7712C59.5341 68.6237 58.271 69.2303 55.779 68.757C54.984 68.6028 54.3172 68.2027 53.5981 67.8183C52.9862 67.4914 52.3665 67.6562 51.854 66.9292C51.8051 66.8595 51.8017 66.7871 51.8435 66.7121C52.2462 65.98 52.6201 65.233 52.9653 64.4711C53.0385 64.3073 52.9688 64.1277 52.7561 63.9325C53.8649 60.3203 53.3331 56.9628 51.161 53.8597C51.1359 53.8244 51.1259 53.7804 51.1332 53.7373C51.1406 53.6942 51.1646 53.6555 51.2002 53.6296L53.0411 52.2855C53.144 52.2088 53.2355 52.2218 53.3157 52.3247C56.4083 56.2959 60.4101 57.6862 65.3209 56.4955Z" fill="#D5152A"/>
<path d="M45.003 54.2126C45.0483 54.3817 45.0178 54.5831 44.9114 54.8167C44.8766 54.8934 44.8243 54.9535 44.7545 54.9971C43.5308 55.7659 41.4806 57.1885 40.0058 57.1963C39.4113 57.1998 38.8526 57.3454 38.3296 57.633C38.2599 57.6714 38.1858 57.6836 38.1073 57.6696L34.5589 57.0185C34.4804 57.0028 34.4185 57.0281 34.3732 57.0943C34.1936 57.3523 34.0681 57.6304 33.9967 57.9285C33.3848 60.4894 33.8171 62.9082 35.2937 65.185C37.0823 67.9411 40.7197 69.5206 43.9491 68.927C45.4004 68.6602 46.7628 67.7842 47.9631 66.869C47.973 66.8613 47.9812 66.8518 47.9874 66.8409C47.9935 66.83 47.9974 66.818 47.9989 66.8056C48.0004 66.7932 47.9993 66.7806 47.9959 66.7686C47.9924 66.7566 47.9866 66.7454 47.9788 66.7356C47.3643 65.9878 47.1734 65.2713 46.8622 64.2018C46.3183 62.319 45.743 58.1795 47.3564 56.5269C46.1082 60.2314 46.5885 63.6831 48.7973 66.8821C48.8194 66.9142 48.8294 66.953 48.8256 66.9918C48.8218 67.0306 48.8043 67.0668 48.7763 67.0939C44.7572 70.9666 38.3061 70.2214 35.0322 65.7786C33.1023 63.1619 32.7572 60.1181 33.9967 56.6472C34.0295 56.5572 34.0949 56.4829 34.1798 56.4392C34.2647 56.3956 34.3628 56.3858 34.4543 56.4118C38.3784 57.5101 41.8947 56.777 45.003 54.2126Z" fill="#AB2331"/>
<path d="M49.8533 55.3137C49.8704 55.2862 49.8942 55.2636 49.9225 55.248C49.9507 55.2324 49.9826 55.2244 50.0149 55.2246C50.0472 55.2249 50.0789 55.2334 50.1069 55.2495C50.135 55.2656 50.1584 55.2886 50.175 55.3163C52.1902 58.721 52.178 62.1195 50.1384 65.512C50.1242 65.5361 50.104 65.556 50.0797 65.5698C50.0554 65.5837 50.0279 65.5909 49.9997 65.5909C49.9716 65.5909 49.9438 65.5837 49.9191 65.5698C49.8943 65.556 49.8735 65.5361 49.8586 65.512C47.8067 62.1178 47.805 58.7183 49.8533 55.3137Z" fill="#D5152A"/>
<path d="M52.7561 63.9324C52.9688 64.1276 53.0385 64.3072 52.9653 64.471C52.6201 65.2329 52.2462 65.9799 51.8435 66.712C51.8016 66.787 51.8051 66.8594 51.8539 66.9291C52.3665 67.656 52.9862 67.4913 53.5981 67.8182C54.3172 68.2026 54.984 68.6026 55.779 68.7569C58.271 69.2302 59.534 68.6236 61.775 67.7711C62.6955 67.4233 63.6343 66.5107 64.2514 65.7576C65.6216 64.0823 66.2754 62.1646 66.2126 60.0047C66.176 58.8201 65.7001 57.6643 65.3209 56.4954C65.4795 56.3978 65.6112 56.3516 65.7158 56.3568C65.8099 56.3638 65.8901 56.4466 65.9563 56.6053C69.7375 65.8648 58.7835 73.9555 51.2107 67.0991C51.1444 67.038 51.1366 66.9709 51.1871 66.8977C51.8269 65.972 52.3499 64.9836 52.7561 63.9324Z" fill="#AB2331"/>
<path d="M58.2059 71.2307C57.1887 71.8321 55.8655 71.8321 54.7463 71.3667C54.3767 71.2115 54.0019 71.0694 53.6219 70.9404C52.3807 70.522 51.2885 69.9145 50.3454 69.1178C50.2756 69.0585 50.2007 69.0498 50.1205 69.0916L46.4543 70.9587C46.3497 71.0128 46.2887 70.9814 46.2713 70.8646C46.2469 70.7059 46.2111 70.6388 46.1641 70.6632C47.5221 70.1298 48.7764 69.354 49.927 68.3359C49.9513 68.3142 49.9831 68.3025 50.0164 68.303C50.0496 68.3035 50.082 68.3161 50.1074 68.3385C52.3615 70.3904 55.061 71.3545 58.2059 71.2307Z" fill="#AB2331"/>
</svg>
