<svg width="100" height="100" viewBox="0 0 100 100" fill="none" xmlns="http://www.w3.org/2000/svg">
<rect width="100" height="100" fill="white"/>
<path d="M66.1796 28.3837C60.7526 42.8151 57.2015 52.2961 55.5263 56.8264C54.4328 59.7795 53.3022 62.7479 51.9151 65.2622C50.4942 67.8385 48.4185 69.7588 45.6882 71.0233C42.1916 72.6417 38.7457 74.3899 35.2745 76.0605C34.1473 76.6039 32.9745 77.284 31.8084 77.8763C31.7533 77.9044 31.7223 77.8875 31.7156 77.8256C31.6897 77.5973 31.7071 77.4032 31.7679 77.2435C37.0009 63.5663 42.06 49.8199 47.2255 36.1175C47.8769 34.3883 48.6042 32.7695 49.4074 31.2608C50.7895 28.6705 52.6053 27.1754 55.4369 26.4042C58.5903 25.547 61.7504 24.7139 64.9173 23.905C65.8775 23.6587 66.9508 23.284 67.97 23.0056C67.9964 22.9981 68.0243 22.9981 68.0507 23.0056C68.0771 23.013 68.101 23.0276 68.1197 23.0477C68.1385 23.0679 68.1515 23.0928 68.1572 23.1199C68.1629 23.147 68.1612 23.1752 68.1523 23.2013C67.5364 24.953 66.6909 27.0235 66.1796 28.3837Z" fill="#25317B"/>
<path d="M87.0108 25.7901C85.7367 29.0217 84.5251 32.2769 83.2915 35.5253C82.3668 37.957 81.4235 40.2908 80.0853 42.3293C79.6566 42.9807 79.2213 43.7299 78.6897 44.2581C77.8201 45.1244 76.8143 45.8612 75.6724 46.4687C70.7365 49.0962 65.1896 51.6308 61.6037 53.4499C61.238 53.6367 60.9033 53.7396 60.5996 53.7587C60.5321 53.7632 60.4989 53.7317 60.5 53.6642C60.5079 53.374 60.5338 53.1754 60.5777 53.0685C63.276 46.4468 65.5305 39.8386 68.1816 33.286C69.0135 31.234 70.5323 28.9458 72.2383 27.7173C72.9246 27.2234 73.8803 26.81 75.1054 26.477C78.89 25.4465 82.684 24.4475 86.4877 23.48C86.9146 23.3703 87.3433 23.188 87.755 23.0463C87.9451 22.9799 88.0081 23.0418 87.944 23.2319C87.6448 24.1173 87.3337 24.97 87.0108 25.7901Z" fill="#25317B"/>
<path d="M46.3872 28.2909C42.6837 38.1583 38.9779 48.0256 35.2699 57.893C33.3951 62.8812 31.5911 68.1834 26.4341 70.7129C21.7147 73.0282 16.9857 75.3462 12.2472 77.6671C12.2268 77.6771 12.2045 77.6826 12.1818 77.6832C12.1591 77.6838 12.1365 77.6795 12.1157 77.6705C12.0948 77.6615 12.0762 77.6481 12.061 77.6312C12.0458 77.6143 12.0345 77.5943 12.0278 77.5726C11.9805 77.4151 11.9952 77.2334 12.0717 77.0275C17.0599 63.6828 22.0634 50.3443 27.0821 37.0119C28.2954 33.7922 29.7247 29.3912 32.877 27.5535C33.8068 27.0101 34.8531 26.6287 36.009 26.3081C39.8419 25.2427 43.6872 24.2269 47.5448 23.2605C47.7018 23.22 47.9178 23.2369 48.0578 23.2402C48.2333 23.2436 48.2907 23.328 48.23 23.4934C47.6343 25.1167 46.9086 26.9038 46.3872 28.2909Z" fill="#E32525"/>
</svg>
