<svg width="100" height="100" viewBox="0 0 100 100" fill="none" xmlns="http://www.w3.org/2000/svg">
<rect width="100" height="100" fill="#EFFEFF"/>
<path d="M75.0108 14H75.2685C75.4988 14.0813 75.7232 14.1689 75.942 14.2629C77.8833 15.0944 77.2528 17.1285 76.1241 18.3002C72.5885 21.9732 69.3415 25.3697 66.8263 29.4483C64.7544 32.8075 62.9843 36.3168 61.516 39.9762C60.9663 41.3471 60.7103 43.0205 60.3169 44.2385C59.3067 47.3601 57.4427 49.9337 54.9876 52.0468C49.5846 56.6992 40.7507 57.0531 34.0556 56.335C33.9984 56.3292 33.9566 56.3522 33.9302 56.4037C33.7802 56.7026 33.6931 56.8985 33.6691 56.9912C32.8845 60.0539 32.2306 63.1491 31.7071 66.277C31.6923 66.3629 31.7134 66.3732 31.7707 66.308C34.279 63.4544 37.1893 61.2588 40.8709 60.24C48.0744 58.2437 56.0494 55.5017 61.2669 49.9165C62.04 49.0896 63.5467 47.4037 65.7869 44.8587C66.1151 44.4876 67.2438 43.2455 68.0032 43.6012C69.369 44.2402 68.2299 48.3222 67.9018 49.365C65.9605 55.5378 62.6362 60.0751 56.3552 62.2621C52.6374 63.5557 49.1929 63.2637 45.6555 63.4612C42.3432 63.6445 39.1753 64.4342 36.1516 65.8304C29.8998 68.7166 27.1442 78.8923 26.4192 85.0479C26.3934 85.2713 26.2491 85.4774 26.1134 85.6406H25.366C25.24 85.2146 25.1616 84.7707 25.1307 84.3092C24.8661 80.2976 25.1839 76.1177 25.4485 72.1062C25.8488 66.0417 27.2352 59.9101 29.1697 54.0449C29.1812 54.0091 29.1809 53.9704 29.1689 53.9346C29.1568 53.8987 29.1336 53.8676 29.1027 53.8456C24.7957 50.8013 22.1963 46.5029 22.0005 41.1719V39.9315C22.1265 37.6271 22.4873 35.5151 23.0828 33.5955C24.5362 28.9145 26.5933 24.3303 29.2538 19.8429C29.649 19.1781 32.6503 15.1304 32.3548 19.0681C32.2781 20.1 32.1928 21.1314 32.0988 22.1622C31.8257 25.1481 33.6897 28.847 35.1964 31.4377C35.3155 31.6427 35.4529 32.1072 35.6087 32.831C36.1121 35.1658 35.7444 37.8905 35.0057 40.1428C35.005 40.1469 35.0027 40.1506 34.9993 40.153C34.996 40.1554 34.9917 40.1564 34.9876 40.1557C34.9835 40.155 34.9799 40.1527 34.9775 40.1494C34.9751 40.146 34.9741 40.1418 34.9748 40.1377C35.0091 37.2858 33.4578 34.6744 31.9717 32.252C30.6179 30.0427 29.9136 28.3779 29.8259 25.935C29.8252 25.9245 29.8209 25.9146 29.8137 25.9069C29.8066 25.8992 29.7971 25.8942 29.7867 25.8926C29.7764 25.891 29.7658 25.8929 29.7567 25.8981C29.7476 25.9033 29.7405 25.9115 29.7366 25.9212C27.9001 31.2075 26.5429 36.7687 26.3384 42.3041C26.225 45.4068 27.9465 48.9957 29.8328 51.4077C29.874 51.4604 29.9084 51.4564 29.9359 51.3957C33.6588 43.1459 39.5979 35.9131 46.5283 29.809C53.7335 23.4627 62.3888 17.8707 71.5319 14.8246C72.5936 14.4707 73.7533 14.1959 75.0108 14ZM66 22.121C66.3264 21.7911 66.8315 21.3754 67.1871 20.9631C67.2684 20.8691 67.2507 20.8434 67.1339 20.8857C52.2578 26.2579 41.1509 38.9849 34.9645 53.1859C34.9592 53.198 34.9571 53.2112 34.9585 53.2243C34.9599 53.2375 34.9647 53.25 34.9725 53.2609C34.9802 53.2717 34.9906 53.2805 35.0028 53.2863C35.0149 53.2921 35.0283 53.2948 35.0418 53.2941C39.2697 52.9746 44.2227 52.2238 47.9782 50.1983C52.5412 47.7398 54.5685 43.3349 56.137 38.5743C56.6902 36.8998 57.0664 35.8186 57.2657 35.3307C59.3032 30.3668 62.2147 25.9636 66 22.121Z" fill="#00ABBC"/>
<path d="M37.8293 29.785C36.1509 28.3849 36.0942 25.9934 37.3328 24.3029C38.5973 22.578 40.0433 21.2632 41.6708 20.3584C44.5639 18.7492 47.6815 17.7281 51.0235 17.2952C51.0326 17.2937 51.042 17.2954 51.05 17.2999C51.0581 17.3044 51.0644 17.3115 51.0679 17.32C51.0715 17.3285 51.0721 17.338 51.0697 17.3469C51.0672 17.3557 51.0619 17.3636 51.0544 17.3691C49.0043 18.945 47.457 20.931 46.4124 23.3271C44.8113 27.0019 44.0004 31.3948 38.879 30.3296C38.5286 30.2575 38.1787 30.076 37.8293 29.785Z" fill="#F36523"/>
</svg>
