<svg width="100" height="100" viewBox="0 0 100 100" fill="none" xmlns="http://www.w3.org/2000/svg">
<rect width="100" height="100" fill="#EDFCFF"/>
<path d="M83.5891 50.1698C83.1208 51.3998 82.5324 52.5123 81.8241 53.5073C81.2974 54.3523 80.8558 55.129 80.4991 55.8373C79.8441 57.1348 75.2766 56.5198 73.9666 56.5398C73.9492 56.5403 73.9321 56.536 73.917 56.5273C73.9019 56.5187 73.8893 56.5062 73.8807 56.4909C73.872 56.4756 73.8675 56.4581 73.8677 56.4404C73.8679 56.4226 73.8726 56.4052 73.8816 56.3898L76.2616 52.4698C76.3283 52.3615 76.2982 52.2998 76.1716 52.2848C74.0116 52.0148 71.5866 52.2373 69.3991 52.2223C69.3368 52.2216 69.276 52.2413 69.2263 52.2783C69.1766 52.3154 69.1406 52.3678 69.1241 52.4273C69.0107 52.8206 69.1732 53.0315 69.6116 53.0598C71.1932 53.1565 72.7382 53.1623 74.2466 53.0773C74.2808 53.0752 74.3149 53.0825 74.3453 53.0984C74.3757 53.1143 74.4012 53.1383 74.4192 53.1677C74.4371 53.1972 74.4468 53.2311 74.4472 53.2658C74.4476 53.3005 74.4388 53.3347 74.4216 53.3648L72.8091 56.1598C72.7324 56.2935 72.6219 56.4048 72.4885 56.4825C72.3551 56.5601 72.2036 56.6014 72.0491 56.6023L64.0541 56.6373C64.0028 56.6376 63.9519 56.6278 63.9044 56.6083C63.857 56.5888 63.8138 56.5601 63.7776 56.5238C63.7413 56.4875 63.7126 56.4444 63.6931 56.3969C63.6736 56.3495 63.6637 56.2986 63.6641 56.2473L63.7541 44.1548C63.7557 44.0848 63.7907 44.0506 63.8591 44.0523C67.3357 44.124 69.9566 44.1373 71.7216 44.0923C72.1799 44.0806 72.5107 44.229 72.7141 44.5373C73.3891 45.5523 73.9757 46.4956 74.4741 47.3673C74.6241 47.6306 74.5482 47.7615 74.2466 47.7598L69.3291 47.7373C69.2743 47.7366 69.2206 47.7531 69.1754 47.7844C69.1302 47.8158 69.0957 47.8604 69.0766 47.9123C68.9291 48.3223 69.1341 48.6198 69.5691 48.6248C71.7941 48.6515 74.0174 48.6331 76.2391 48.5698C76.3557 48.5665 76.3832 48.5156 76.3216 48.4173L73.8091 44.4498C73.7887 44.418 73.7773 44.3814 73.7759 44.3437C73.7746 44.306 73.7834 44.2686 73.8015 44.2353C73.8196 44.2019 73.8462 44.1739 73.8787 44.1541C73.9113 44.1342 73.9485 44.1232 73.9866 44.1223L79.8766 44.0423C79.9649 44.0406 80.0274 44.0798 80.0641 44.1598C81.0891 46.2923 82.7016 48.5798 83.5891 50.1698Z" fill="#99ADBB"/>
<path d="M12.4749 44.0287L7.11 44.0661C7.04925 44.0666 7.00034 44.1161 7.00077 44.1769L7.08671 56.4866C7.08713 56.5474 7.13672 56.5963 7.19747 56.5958L12.5623 56.5584C12.6231 56.558 12.672 56.5084 12.6716 56.4476L12.5856 44.1379C12.5852 44.0772 12.5356 44.0282 12.4749 44.0287Z" fill="#99ADBB"/>
<path d="M21.7941 48.3622L21.6941 44.4697C21.6874 44.2347 21.8016 44.1172 22.0366 44.1172L27.0266 44.0922C27.3066 44.0905 27.3916 44.218 27.2816 44.4747C27.1849 44.6963 27.1374 44.9463 27.1391 45.2247C27.1474 48.9797 27.1441 52.668 27.1291 56.2897C27.1284 56.371 27.0955 56.4489 27.0375 56.5064C26.9795 56.5639 26.9011 56.5965 26.8191 56.5972C25.3941 56.5997 22.5266 57.0297 21.6241 55.8147C20.6424 54.4947 19.6799 53.143 18.7366 51.7597C18.7189 51.7335 18.6931 51.7138 18.6632 51.7036C18.6333 51.6934 18.6009 51.6933 18.571 51.7032C18.541 51.7131 18.515 51.7325 18.4971 51.7585C18.4791 51.7845 18.4702 51.8156 18.4716 51.8472L18.6866 56.2322C18.6886 56.2737 18.6822 56.3152 18.6679 56.3543C18.6535 56.3933 18.6314 56.429 18.603 56.4594C18.5745 56.4897 18.5402 56.514 18.5022 56.5308C18.4642 56.5476 18.4231 56.5566 18.3816 56.5572L13.2615 56.6122C13.1699 56.6138 13.1165 56.5688 13.1015 56.4772C13.0882 56.3805 13.114 56.2805 13.179 56.1772C13.2053 56.133 13.2191 56.0829 13.219 56.0322L13.1265 44.1672C13.1265 44.0788 13.1707 44.0347 13.259 44.0347C14.1374 44.0413 15.9065 44.0347 15.9065 44.0347C17.2815 44.0997 17.833 43.8593 18.3241 44.4447C19.2124 45.688 20.2266 47.0447 21.3666 48.5147C21.6649 48.8997 21.8074 48.8488 21.7941 48.3622Z" fill="#99ADBB"/>
<path d="M47.1791 49.5422C47.1799 49.5129 47.172 49.4841 47.1563 49.4593C47.1406 49.4346 47.1179 49.415 47.0911 49.4032C47.0643 49.3914 47.0345 49.3879 47.0057 49.3931C46.9768 49.3982 46.9502 49.4119 46.9291 49.4322C44.9974 51.3472 43.0474 53.2581 41.0791 55.1647C40.7116 55.5197 40.0616 56.5672 39.3466 56.5947C37.6333 56.6597 33.8083 56.6389 27.8716 56.5322C27.8016 56.5306 27.7666 56.4939 27.7666 56.4222L27.8341 44.4447C27.8358 44.2214 27.9483 44.1089 28.1716 44.1072C30.8116 44.0997 34.8441 43.7022 37.0341 44.4872C38.5358 45.0239 39.6524 46.0806 40.3841 47.6572C40.4034 47.6983 40.4324 47.734 40.4686 47.7614C40.5048 47.7887 40.5471 47.8069 40.5919 47.8143C40.6367 47.8216 40.6826 47.818 40.7256 47.8037C40.7687 47.7894 40.8076 47.7649 40.8391 47.7322C41.8316 46.6997 43.9841 44.1447 45.4691 44.1122C47.6758 44.0672 49.9575 44.0689 52.3141 44.1172C52.5375 44.1222 52.6416 44.2356 52.6266 44.4572C52.5291 45.9572 52.6541 47.5797 52.6116 48.9772C52.535 51.4539 52.5966 53.9281 52.7966 56.3997C52.8033 56.4914 52.7608 56.5422 52.6691 56.5522C50.9725 56.7272 49.2791 56.7306 47.5891 56.5622C47.2541 56.5289 47 56.3631 46.8266 56.0647C46.0866 54.7964 45.305 53.5239 44.4816 52.2472C44.4592 52.2127 44.45 52.1712 44.4555 52.1304C44.461 52.0896 44.4809 52.0521 44.5116 52.0247C44.625 51.9231 44.7741 51.8947 44.9591 51.9397C45.6141 52.0997 46.2741 52.1231 46.9391 52.0097C47.0358 51.9931 47.0866 51.9347 47.0916 51.8347L47.1791 49.5422ZM33.5116 48.6197L33.4716 51.8997C33.4713 51.9184 33.4746 51.937 33.4815 51.9545C33.4883 51.9719 33.4986 51.9878 33.5116 52.0012C33.5246 52.0147 33.5401 52.0255 33.5573 52.0329C33.5744 52.0404 33.5929 52.0444 33.6116 52.0447H33.6491C33.8796 52.0477 34.1084 52.005 34.3224 51.9192C34.5365 51.8334 34.7316 51.706 34.8967 51.5444C35.0617 51.3829 35.1935 51.1902 35.2844 50.9775C35.3753 50.7648 35.4237 50.5362 35.4266 50.3047V50.2647C35.4296 50.0333 35.3871 49.8035 35.3017 49.5885C35.2162 49.3735 35.0894 49.1775 34.9286 49.0118C34.7677 48.846 34.5759 48.7137 34.364 48.6224C34.1522 48.5311 33.9246 48.4827 33.6941 48.4797H33.6566C33.6379 48.4794 33.6193 48.4828 33.6019 48.4896C33.5845 48.4965 33.5686 48.5067 33.5551 48.5197C33.5416 48.5327 33.5309 48.5482 33.5234 48.5654C33.5159 48.5825 33.5119 48.601 33.5116 48.6197Z" fill="#99ADBB"/>
<path d="M58.5736 51.9023C58.5733 51.914 58.5753 51.9256 58.5796 51.9365C58.5838 51.9475 58.5902 51.9574 58.5984 51.9658C58.6065 51.9742 58.6163 51.9809 58.6271 51.9854C58.6379 51.99 58.6494 51.9923 58.6611 51.9923L62.6112 52.0173C62.6553 52.0172 62.6987 52.0285 62.7373 52.0501C62.7758 52.0716 62.8083 52.1028 62.8315 52.1405C62.8548 52.1783 62.8681 52.2215 62.8702 52.2659C62.8723 52.3104 62.8632 52.3548 62.8436 52.3948C62.1437 53.8198 61.0186 54.9573 60.5786 56.4323C60.5503 56.5273 60.487 56.5756 60.3886 56.5773L53.4811 56.6798C53.4391 56.6805 53.3974 56.6727 53.3585 56.657C53.3195 56.6414 53.2841 56.618 53.2543 56.5885C53.2245 56.5589 53.2009 56.5236 53.1849 56.4848C53.1689 56.4459 53.1608 56.4043 53.1611 56.3623L53.2311 44.2798C53.2311 44.2278 53.2519 44.178 53.2888 44.141C53.3258 44.104 53.376 44.0829 53.4286 44.0823L58.3861 44.0198C58.4187 44.0195 58.4511 44.0256 58.4813 44.0379C58.5114 44.0503 58.5389 44.0685 58.5619 44.0915C58.5849 44.1146 58.6032 44.142 58.6155 44.1722C58.6278 44.2024 58.634 44.2347 58.6336 44.2673L58.5736 51.9023Z" fill="#99ADBB"/>
<path d="M87.7338 44.0222L93.5588 44.1197C93.6605 44.1214 93.6863 44.1664 93.6363 44.2547C92.5663 46.1531 91.443 48.0147 90.2663 49.8397C89.9538 50.3247 90.1888 50.9397 90.5163 51.4372C91.5697 53.0506 92.5747 54.7064 93.5313 56.4047C93.5432 56.4253 93.5494 56.4486 93.5494 56.4724C93.5494 56.4961 93.5431 56.5194 93.5312 56.54C93.5193 56.5605 93.5021 56.5776 93.4815 56.5894C93.4609 56.6012 93.4376 56.6073 93.4138 56.6072C91.7588 56.5997 90.1038 56.5022 88.4363 56.6172C86.9363 56.7197 86.9838 55.5472 86.3613 54.6322C85.3497 53.1472 84.5372 51.6397 83.9238 50.1097C85.1588 48.0397 86.3355 46.0939 87.4538 44.2722C87.5305 44.1472 87.6238 44.0639 87.7338 44.0222Z" fill="#CD2B1C"/>
</svg>
