<svg width="100" height="100" viewBox="0 0 100 100" fill="none" xmlns="http://www.w3.org/2000/svg">
<g clip-path="url(#clip0_72_1000)">
<rect width="100" height="100" fill="#FFF7F0"/>
<path fill-rule="evenodd" clip-rule="evenodd" d="M51.8072 39.3782L51.8071 39.3784C54.4784 42.7088 57.3089 45.9731 60.2985 49.1714C58.8883 50.6245 59.0377 52.0656 59.2027 53.6572C59.2756 54.3603 59.3516 55.0928 59.2974 55.8686C59.252 56.5463 59.2055 57.225 59.158 57.9047C59.1554 57.9492 59.1664 57.9855 59.1912 58.0134C59.1666 57.9855 59.1556 57.9494 59.1582 57.905C59.2057 57.2252 59.2522 56.5465 59.2977 55.8689C59.3518 55.093 59.2759 54.3606 59.203 53.6575C59.038 52.0659 58.8886 50.6247 60.2987 49.1716C60.5177 49.5208 60.7884 49.807 61.1107 50.0301L64.5507 54.5703C67.1137 57.967 69.4876 62.8016 68.561 66.9885C67.5259 71.6744 63.153 75.0463 59.2016 77.2405C59.0466 77.3272 59.0156 77.2942 59.1086 77.1413C59.171 77.0408 59.2626 76.9516 59.3532 76.8633C59.4471 76.7718 59.5399 76.6813 59.5983 76.5804C62.2511 71.9874 61.8978 67.0536 60.0539 62.1973L58.8762 59.5909C58.8163 58.9132 58.995 58.4814 59.4123 58.2955C59.5015 58.2566 59.5286 58.2178 59.4936 58.179C59.5282 58.2177 59.5011 58.2565 59.4121 58.2952C58.9947 58.4812 58.816 58.913 58.876 59.5906L57.0289 56.3335C55.6756 54.1021 54.564 52.4926 53.6942 51.505C51.6529 49.1848 49.7056 46.783 47.8523 44.2995L47.8525 44.2994C40.2598 32.5228 40.4056 20.6098 48.1409 9.04393C48.1541 9.02393 48.1745 9.00939 48.198 9.00323C48.2215 8.99708 48.2463 8.99977 48.2675 9.01077C48.2887 9.02176 48.3047 9.04025 48.3123 9.0625C48.3199 9.08475 48.3184 9.10912 48.3083 9.13071C44.1616 19.3702 44.7505 30.5767 51.8072 39.3782Z" fill="url(#paint0_linear_72_1000)"/>
<path d="M40.356 77.6277C28.5204 67.5245 43.8673 56.5536 52.0118 52.2861C52.0428 52.2695 52.0707 52.2654 52.0955 52.2737C52.1575 52.2943 52.1616 52.3232 52.1079 52.3604C47.5305 55.5897 42.4417 60.3593 40.2134 65.5999C36.8819 73.4314 47.0532 81.4861 52.486 84.9943C53.1347 85.4116 53.1037 85.4685 52.393 85.1648C48.0976 83.3239 44.0853 80.8115 40.356 77.6277Z" fill="#0787DB"/>
<path fill-rule="evenodd" clip-rule="evenodd" d="M61.1107 50.03L64.5508 54.5702C68.2263 45.9381 66.9578 38.3163 60.745 31.7048C60.735 31.6951 60.7217 31.6891 60.7075 31.688C60.6934 31.6868 60.6793 31.6905 60.668 31.6984C60.6567 31.7064 60.6488 31.718 60.6459 31.7311C60.643 31.7442 60.6452 31.758 60.6521 31.7699C64.1293 38.2595 64.2625 43.4041 61.1107 50.03ZM58.8766 59.5909L57.0295 56.3337C54.5419 59.4907 52.1225 62.5588 49.7713 65.5381C48.7651 66.8108 48.0389 67.975 47.5926 69.0308C44.6887 75.914 49.9418 82.1556 55.6008 85.357C55.6221 85.3703 55.6473 85.3757 55.6721 85.3724C55.6969 85.3692 55.7199 85.3574 55.737 85.3392C55.7542 85.3209 55.7645 85.2973 55.7662 85.2723C55.7679 85.2473 55.7609 85.2225 55.7464 85.2021C53.3663 81.4924 52.5047 77.4821 54.1628 73.2456C55.6814 69.3635 57.6452 65.6807 60.0542 62.1972L58.8766 59.5909Z" fill="url(#paint1_linear_72_1000)"/>
<path d="M38.8898 87.4305C36.6956 86.8788 30.9591 84.914 36.6057 82.3758C38.2772 81.6237 39.8381 81.101 41.2885 80.8076C41.3272 80.8033 41.3662 80.8134 41.398 80.8361C41.4297 80.8587 41.4519 80.8923 41.4604 80.9304C41.4688 80.9685 41.4629 81.0083 41.4438 81.0423C41.4246 81.0763 41.3936 81.102 41.3567 81.1144C40.086 81.4274 37.0458 83.6154 39.2307 85.0348C40.3216 85.7456 41.805 86.2621 43.681 86.5844C46.8876 87.1402 50.1169 87.5193 53.3689 87.7218C60.8378 88.1898 66.7138 88.1867 73.944 87.4986C73.9936 87.4925 74.0102 87.5131 73.9936 87.5606C73.9854 87.5792 73.9709 87.6009 73.9502 87.6257C73.9461 87.6298 73.942 87.6329 73.9378 87.635C68.6507 88.4377 63.5496 88.6453 58.0455 88.884C51.7574 89.1567 45.0168 88.9707 38.8898 87.4305Z" fill="url(#paint2_linear_72_1000)"/>
<path d="M30.6617 86.7608C31.6131 88.0841 34.954 88.7442 36.4571 88.9581C45.4032 90.2266 53.9816 90.612 62.1922 90.114C64.7377 89.9612 64.7428 90.0211 62.2077 90.2938C55.5136 91.0128 48.1336 91.2266 40.0676 90.9353C36.7288 90.8134 33.578 90.3764 30.6152 89.6244C19.6815 86.8476 31.2567 83.299 33.9158 82.7815C33.919 82.7815 33.9222 82.7825 33.9249 82.7844C33.9275 82.7863 33.9295 82.789 33.9305 82.7921C33.9315 82.7952 33.9316 82.7985 33.9306 82.8016C33.9296 82.8047 33.9277 82.8074 33.9251 82.8094C32.7877 83.3982 29.3167 84.8827 30.6617 86.7608Z" fill="url(#paint3_linear_72_1000)"/>
</g>
<defs>
<linearGradient id="paint0_linear_72_1000" x1="55.5067" y1="9" x2="55.5067" y2="77.2875" gradientUnits="userSpaceOnUse">
<stop stop-color="#9C5CEC"/>
<stop offset="0.73334" stop-color="#7738C7"/>
<stop offset="1" stop-color="#6728B6"/>
</linearGradient>
<linearGradient id="paint1_linear_72_1000" x1="56.6835" y1="31.6877" x2="56.6835" y2="85.3734" gradientUnits="userSpaceOnUse">
<stop stop-color="#0226BE"/>
<stop offset="1" stop-color="#0787DB"/>
</linearGradient>
<linearGradient id="paint2_linear_72_1000" x1="38.3964" y1="85.8585" x2="78.6851" y2="88.3378" gradientUnits="userSpaceOnUse">
<stop stop-color="#EF2F06"/>
<stop offset="1" stop-color="#EF2F06" stop-opacity="0"/>
<stop offset="1" stop-color="#FF927A"/>
</linearGradient>
<linearGradient id="paint3_linear_72_1000" x1="30.0251" y1="87.8937" x2="68.6054" y2="90.1394" gradientUnits="userSpaceOnUse">
<stop stop-color="#EF2F06"/>
<stop offset="1" stop-color="#EF2F06" stop-opacity="0"/>
<stop offset="1" stop-color="#FF927A"/>
</linearGradient>
<clipPath id="clip0_72_1000">
<rect width="100" height="100" fill="white"/>
</clipPath>
</defs>
</svg>
