<svg width="100" height="100" viewBox="0 0 100 100" fill="none" xmlns="http://www.w3.org/2000/svg">
<rect width="100" height="100" fill="white"/>
<path d="M45.6811 73.0825C45.6811 74.6475 48.4311 74.8725 48.4311 72.69C48.4294 56.16 48.4294 39.63 48.4311 23.1C48.4311 23.0333 48.4644 23 48.5311 23L50.7211 23.005C50.7595 23.005 50.7964 23.0205 50.8236 23.0482C50.8508 23.0759 50.8661 23.1134 50.8661 23.1525C50.8711 39.6658 50.8711 56.1775 50.8661 72.6875C50.8661 75.06 53.6161 74.905 53.6161 72.6375C53.6194 56.1875 53.6203 39.7367 53.6186 23.285C53.6186 23.2187 53.6449 23.1551 53.6918 23.1082C53.7387 23.0613 53.8023 23.035 53.8686 23.035C57.4569 23.0333 61.0819 23.0358 64.7436 23.0425C67.3786 23.0475 68.5836 23.5975 68.5586 26.435C68.558 26.5431 68.5208 26.6479 68.4532 26.7323C68.3856 26.8167 68.2915 26.8758 68.1861 26.9C65.5261 27.5025 63.0336 29.3325 61.2936 31.3475C54.0261 39.775 58.3061 52.7625 69.0836 55.325C72.5161 56.1425 77.5511 55.835 80.9911 55.7875C82.8061 55.7625 83.5086 56.7475 83.5261 58.4625C83.5828 64.1708 83.5853 69.8758 83.5336 75.5775C83.5111 77.95 81.5111 77.7375 79.8061 77.7075C73.1711 77.595 66.5361 77.6975 59.9036 77.7125C41.7386 77.7525 27.8102 77.7367 18.1186 77.665C15.8461 77.6475 16.0161 76.0575 16.0086 74.165C15.9886 69.06 16.0036 63.9542 16.0536 58.8475C16.0736 56.7575 16.4436 55.7475 18.7311 55.7325C24.0636 55.7 30.0786 56.52 34.7636 53.3025C38.5752 50.6858 40.7486 47.0725 41.2836 42.4625C41.291 42.3966 41.3225 42.3357 41.3723 42.2914C41.4221 42.2472 41.4866 42.2226 41.5536 42.2225H45.5536C45.6386 42.2225 45.6811 42.265 45.6811 42.35C45.6811 52.595 45.6811 62.8392 45.6811 73.0825Z" fill="#F7941D"/>
<path d="M32.1462 31.73C32.1603 31.7364 32.1719 31.7475 32.1791 31.7613C32.1863 31.7752 32.1887 31.791 32.1857 31.806C32.1828 31.8211 32.1747 31.8344 32.163 31.8438C32.1512 31.8532 32.1365 31.8581 32.1212 31.8575L24.0537 31.8425C23.0254 31.8409 23.0012 31.6842 23.9812 31.3725C26.7479 30.4925 29.4696 30.6117 32.1462 31.73Z" fill="#F7941D"/>
<path d="M34.2386 32.9549C34.2595 32.9689 34.2753 32.9893 34.2837 33.0129C34.2922 33.0366 34.2928 33.0623 34.2855 33.0864C34.2782 33.1105 34.2634 33.1315 34.2433 33.1466C34.2232 33.1616 34.1987 33.1698 34.1736 33.1699L21.2386 33.1249C21.0919 33.1249 21.0753 33.0782 21.1886 32.9849C21.4686 32.7624 21.7836 32.5399 22.1661 32.5399C25.8211 32.5332 29.4769 32.5324 33.1336 32.5374C33.6261 32.5374 33.8361 32.6999 34.2386 32.9549Z" fill="#F7941D"/>
<path d="M35.6987 34.2926C35.7221 34.3092 35.7397 34.333 35.7487 34.3603C35.7577 34.3876 35.7577 34.4171 35.7488 34.4445C35.7398 34.4718 35.7224 34.4956 35.699 34.5124C35.6756 34.5291 35.6475 34.5379 35.6187 34.5376L19.7987 34.5351C19.7287 34.5351 19.707 34.5034 19.7337 34.4401C19.9104 33.9967 20.2062 33.7767 20.6212 33.7801C25.2062 33.8034 29.7929 33.8042 34.3812 33.7826C35.0162 33.7776 35.2112 33.9376 35.6987 34.2926Z" fill="#F7941D"/>
<path d="M36.6335 35.5824L36.886 35.9349C36.941 36.0115 36.9219 36.0499 36.8285 36.0499L18.676 36.0324C18.6573 36.0327 18.6389 36.0281 18.6225 36.0192C18.6061 36.0102 18.5923 35.9971 18.5823 35.9811C18.5723 35.9651 18.5665 35.9467 18.5654 35.9277C18.5643 35.9087 18.5679 35.8896 18.576 35.8724C18.776 35.4574 19.2085 35.2299 19.6935 35.2299C25.2652 35.2182 30.6802 35.2174 35.9385 35.2274C36.2302 35.2274 36.4619 35.3457 36.6335 35.5824Z" fill="#F7941D"/>
<path d="M37.1336 36.8324C37.4202 36.8307 37.5702 37.0124 37.5836 37.3774C37.5852 37.4407 37.5544 37.4724 37.4911 37.4724H17.9936C17.9697 37.4722 17.9462 37.4663 17.9251 37.4551C17.9039 37.444 17.8858 37.428 17.8721 37.4084C17.8584 37.3889 17.8496 37.3663 17.8463 37.3427C17.8431 37.319 17.8456 37.2949 17.8536 37.2724C17.9769 36.9291 18.1644 36.7741 18.4161 36.8074C18.5944 36.8307 18.6877 36.8424 18.6961 36.8424C24.8427 36.8557 30.9886 36.8524 37.1336 36.8324Z" fill="#F7941D"/>
<path d="M38.041 38.9201C38.041 38.9393 38.0333 38.9577 38.0197 38.9713C38.0061 38.9849 37.9877 38.9926 37.9685 38.9926H18.6235C18.2873 38.9926 17.9649 38.9794 17.7272 38.956C17.4895 38.9325 17.356 38.9007 17.356 38.8676V38.3926C17.356 38.3594 17.4895 38.3276 17.7272 38.3042C17.9649 38.2807 18.2873 38.2676 18.6235 38.2676H37.9685C37.9877 38.2676 38.0061 38.2752 38.0197 38.2888C38.0333 38.3024 38.041 38.3209 38.041 38.3401V38.9201Z" fill="#F7941D"/>
<path d="M38.2137 39.9099H17.2537C17.1501 39.9099 17.0662 39.9939 17.0662 40.0974V40.3474C17.0662 40.451 17.1501 40.5349 17.2537 40.5349H38.2137C38.3172 40.5349 38.4012 40.451 38.4012 40.3474V40.0974C38.4012 39.9939 38.3172 39.9099 38.2137 39.9099Z" fill="#F7941D"/>
<path d="M38.2837 41.4099H17.1437C17.0608 41.4099 16.9937 41.4771 16.9937 41.5599V41.8849C16.9937 41.9678 17.0608 42.0349 17.1437 42.0349H38.2837C38.3665 42.0349 38.4337 41.9678 38.4337 41.8849V41.5599C38.4337 41.4771 38.3665 41.4099 38.2837 41.4099Z" fill="#F7941D"/>
<path d="M38.261 42.9099H17.251C17.2151 42.9099 17.186 42.939 17.186 42.9749V43.4049C17.186 43.4408 17.2151 43.4699 17.251 43.4699H38.261C38.2969 43.4699 38.326 43.4408 38.326 43.4049V42.9749C38.326 42.939 38.2969 42.9099 38.261 42.9099Z" fill="#F7941D"/>
<path d="M17.4536 44.3425C17.4536 44.3264 17.4568 44.3105 17.4629 44.2956C17.4691 44.2807 17.4781 44.2672 17.4895 44.2558C17.5009 44.2445 17.5144 44.2355 17.5292 44.2293C17.5441 44.2231 17.56 44.22 17.5761 44.22H17.5936C23.0014 44.22 28.1877 44.2392 32.0115 44.2734C35.8354 44.3076 37.9836 44.3541 37.9836 44.4025V44.7925C37.9836 44.8409 35.8354 44.8873 32.0115 44.9215C28.1877 44.9557 23.0014 44.975 17.5936 44.975H17.5761C17.5436 44.975 17.5125 44.9621 17.4895 44.9391C17.4665 44.9161 17.4536 44.885 17.4536 44.8525V44.3425Z" fill="#F7941D"/>
<path d="M18.381 45.7224H37.3635C37.3933 45.7224 37.4219 45.7343 37.443 45.7554C37.4641 45.7765 37.476 45.8051 37.476 45.8349C37.4735 46.1124 37.2685 46.2824 36.986 46.2824C30.7243 46.2857 24.506 46.2857 18.331 46.2824C18.2582 46.2823 18.1872 46.2602 18.1274 46.2192C18.0676 46.1781 18.0218 46.12 17.996 46.0524L17.9335 45.8899C17.8835 45.7582 17.9277 45.6807 18.066 45.6574C18.1227 45.6474 18.1743 45.6557 18.221 45.6824C18.271 45.7091 18.3243 45.7224 18.381 45.7224Z" fill="#F7941D"/>
<path d="M18.7185 47.1575L36.576 47.16C36.681 47.16 36.7169 47.21 36.6835 47.31C36.606 47.545 36.361 47.72 36.0935 47.72C30.5635 47.7233 25.0335 47.7233 19.5035 47.72C19.116 47.72 18.7985 47.575 18.6785 47.2175C18.6761 47.2106 18.6753 47.2033 18.6761 47.1961C18.6769 47.1888 18.6794 47.182 18.6834 47.1761C18.6873 47.1702 18.6926 47.1654 18.6987 47.1622C18.7048 47.1589 18.7116 47.1573 18.7185 47.1575Z" fill="#F7941D"/>
<path d="M20.0712 48.5826C25.2062 48.6092 30.3437 48.6092 35.4837 48.5826C35.5504 48.5826 35.5754 48.6159 35.5587 48.6826C35.467 49.0409 35.2579 49.2201 34.9312 49.2201C32.2112 49.2251 29.4904 49.2251 26.7687 49.2201C25.4187 49.2176 22.8387 49.0926 20.8687 49.2101C20.417 49.2367 20.0712 49.0726 19.8312 48.7176C19.8206 48.7023 19.8141 48.6847 19.8121 48.6662C19.8102 48.6477 19.8129 48.629 19.8201 48.6117C19.8273 48.5944 19.8387 48.579 19.8533 48.5669C19.8678 48.5549 19.8852 48.5465 19.9037 48.5426C19.9803 48.5276 20.0362 48.5409 20.0712 48.5826Z" fill="#F7941D"/>
<path d="M21.4112 49.97L34.0037 49.9675C34.107 49.9675 34.1287 50.01 34.0687 50.095C33.8503 50.3984 33.5487 50.5475 33.1637 50.5425C29.5287 50.5042 25.892 50.4767 22.2537 50.46C21.9212 50.46 21.5887 50.32 21.3562 50.12C21.3428 50.1088 21.3333 50.0937 21.3288 50.0768C21.3243 50.06 21.3251 50.0421 21.3311 50.0258C21.3371 50.0094 21.348 49.9953 21.3623 49.9853C21.3767 49.9753 21.3937 49.97 21.4112 49.97Z" fill="#F7941D"/>
<path d="M24.0536 51.3849L31.5586 51.3574C31.5653 51.3578 31.5717 51.3605 31.5768 51.365C31.5818 51.3695 31.5852 51.3756 31.5863 51.3822C31.5875 51.3889 31.5863 51.3957 31.5831 51.4016C31.5799 51.4076 31.5748 51.4123 31.5686 51.4149C29.0686 52.4383 26.5569 52.4616 24.0336 51.4849C23.8619 51.4183 23.8686 51.3849 24.0536 51.3849Z" fill="#F7941D"/>
</svg>
