<svg width="100" height="100" viewBox="0 0 100 100" fill="none" xmlns="http://www.w3.org/2000/svg">
<rect width="100" height="100" fill="#EAFEFF"/>
<path d="M53.1402 41.0778C56.6402 44.0128 60.7502 46.9378 65.2652 48.2628C70.4277 49.7803 76.0352 47.7978 80.1477 44.5703C81.206 43.7403 81.9043 43.207 82.2427 42.9703L49.1327 85.1328C49.1184 85.151 49.1 85.1656 49.0791 85.1754C49.0581 85.1852 49.0352 85.1899 49.012 85.1891C48.9889 85.1884 48.9663 85.1823 48.946 85.1712C48.9257 85.1601 48.9083 85.1444 48.8952 85.1253L11.0252 31.1928C10.9835 31.1328 10.9935 31.0812 11.0552 31.0378C16.0252 27.6328 22.1327 25.4703 28.1152 26.1128C37.9177 27.1653 45.9452 35.0778 53.1402 41.0778Z" fill="#00939A"/>
<path d="M82.2426 42.9705C81.9043 43.2071 81.206 43.7405 80.1476 44.5705C76.0351 47.798 70.4276 49.7805 65.2651 48.263C60.7501 46.938 56.6401 44.013 53.1401 41.078C59.6001 38.4255 65.3276 35.413 71.3426 32.3905C77.4001 29.348 83.8451 27.338 89.2276 32.7655C89.286 32.8255 89.291 32.8896 89.2426 32.958L82.2426 42.9705Z" fill="#ECB833"/>
</svg>
