<svg width="100" height="100" viewBox="0 0 100 100" fill="none" xmlns="http://www.w3.org/2000/svg">
<rect width="100" height="100" fill="#01539C"/>
<path d="M56.2225 41H56.5369C57.4323 41.1125 58.1781 41.5158 58.7744 42.21C58.7797 42.2162 58.7824 42.2243 58.7818 42.2325C58.7812 42.2407 58.7774 42.2483 58.7713 42.2538L56.7338 44.0619C56.7264 44.0686 56.7168 44.0723 56.7069 44.0723C56.6969 44.0723 56.6874 44.0686 56.68 44.0619C56.3525 43.76 56.1094 43.4669 55.6869 43.1213C54.5031 42.155 53.565 44.5975 55.6563 44.5906C56.3308 44.5885 57.0056 44.5908 57.6806 44.5975C57.7061 44.5975 57.7156 44.6098 57.7094 44.6344L57.4581 45.5994C57.4511 45.6269 57.4333 45.6406 57.405 45.6406H55.5631C55.5394 45.6406 55.5261 45.6523 55.5231 45.6756C55.4865 45.9619 55.4421 46.2417 55.39 46.515C55.1104 47.9846 54.8065 49.449 54.4781 50.9081C53.9663 53.1813 53.3094 55.2238 52.0031 57.0956C50.6375 59.0538 48.425 60.2794 46.0119 59.8838C45.1073 59.7359 44.3621 59.2723 43.7763 58.4932C42.4263 56.6981 43.6569 54.6794 45.64 54.2794C45.8788 54.2311 46.2794 54.2063 46.8419 54.205C47.9306 54.2025 49.0219 54.2017 50.1156 54.2025C50.1187 54.2025 50.1217 54.2032 50.1244 54.2046C50.1272 54.2059 50.1296 54.2079 50.1315 54.2104C50.1333 54.2129 50.1346 54.2157 50.1352 54.2188C50.1359 54.2219 50.1358 54.2251 50.135 54.2281L49.9 55.1038C49.8938 55.1279 49.8781 55.14 49.8531 55.14C48.7656 55.1417 47.6792 55.1415 46.5938 55.1394C45.6275 55.1381 44.9144 55.4619 44.4981 56.3913C44.0669 57.355 44.7625 58.2975 45.6075 58.7019C45.9046 58.844 46.2704 58.925 46.705 58.945C47.5519 58.9832 48.3781 58.8281 49.0156 58.25C50.2369 57.1419 50.7188 55.5169 51.0713 53.9825C51.6988 51.2504 52.1986 48.495 52.5706 45.7163C52.5731 45.6971 52.5646 45.6875 52.545 45.6875H51.0038C50.9985 45.6875 50.9933 45.6863 50.9886 45.6839C50.9839 45.6816 50.9798 45.6782 50.9766 45.6741C50.9734 45.6699 50.9712 45.6651 50.9702 45.6599C50.9691 45.6548 50.9693 45.6495 50.9706 45.6444L51.2044 44.7194C51.2078 44.706 51.215 44.6939 51.2252 44.6846C51.2354 44.6753 51.2482 44.6691 51.2619 44.6669C51.9463 44.5619 52.4838 44.2394 52.8875 43.6806C53.4588 42.889 54.0358 42.2225 54.6188 41.6813C55.0417 41.2888 55.5763 41.0617 56.2225 41Z" fill="white"/>
<path d="M36.2961 42.5774L36.5111 41.878C36.5182 41.8551 36.5336 41.8422 36.5574 41.8393L41.2374 41.2437C41.2603 41.2407 41.2694 41.2507 41.2649 41.2737C40.6144 44.5849 39.9734 47.8426 39.3417 51.0468C39.1505 52.0174 40.0892 52.2349 40.8149 52.123C40.8213 52.122 40.828 52.1226 40.8342 52.1247C40.8405 52.1268 40.8461 52.1303 40.8507 52.135C40.8553 52.1397 40.8587 52.1455 40.8606 52.1518C40.8625 52.1581 40.8629 52.1647 40.8617 52.1712L40.7561 52.7612C40.7538 52.7743 40.7473 52.7864 40.7377 52.7956C40.728 52.8049 40.7156 52.8108 40.7024 52.8124L35.9324 53.4306C35.9289 53.431 35.9255 53.4306 35.9222 53.4295C35.919 53.4283 35.916 53.4264 35.9136 53.4239C35.9113 53.4214 35.9095 53.4184 35.9085 53.4151C35.9075 53.4118 35.9074 53.4083 35.908 53.4049L37.3936 45.7668C37.395 45.7596 37.395 45.7523 37.3934 45.7451C37.3919 45.738 37.3889 45.7312 37.3846 45.7253C37.3803 45.7193 37.3749 45.7143 37.3686 45.7104C37.3623 45.7066 37.3553 45.7041 37.348 45.703C36.0036 45.5105 35.0449 46.7655 34.6236 47.8499C34.2055 48.9268 33.6217 51.0549 34.3686 52.073C34.6574 52.4662 34.9861 52.5737 35.4524 52.6787C35.4608 52.6805 35.4682 52.6855 35.4731 52.6927C35.478 52.6999 35.4799 52.7087 35.4786 52.7174L35.3786 53.3143C35.3749 53.3385 35.3617 53.3553 35.3392 53.3649C35.2905 53.3866 35.2401 53.4016 35.188 53.4099C34.4346 53.5287 33.6757 53.5095 32.9111 53.3524C30.8442 52.9268 30.5392 50.7612 31.0792 49.0624C31.9992 46.168 34.1774 44.5499 37.233 44.578C37.3055 44.5787 37.4642 44.6005 37.5799 44.5924C37.6019 44.5907 37.6151 44.5789 37.6192 44.5568C37.6905 44.1674 37.8924 43.4868 37.7974 43.1505C37.6386 42.5912 36.8149 42.5474 36.328 42.6149C36.2976 42.6191 36.2869 42.6066 36.2961 42.5774Z" fill="white"/>
<path d="M83.7048 45.7037C81.3792 45.4306 80.5036 48.7575 80.363 50.4256C80.2761 51.455 80.6017 52.5169 81.7905 52.6694C81.7961 52.6701 81.8016 52.672 81.8065 52.6749C81.8114 52.6778 81.8157 52.6816 81.8191 52.6862C81.8225 52.6907 81.8249 52.6959 81.8262 52.7014C81.8275 52.7069 81.8277 52.7126 81.8267 52.7181L81.7267 53.31C81.723 53.3312 81.7117 53.3471 81.693 53.3575C81.6463 53.3837 81.5884 53.4019 81.5192 53.4119C80.1948 53.6044 78.4323 53.5344 77.6267 52.2625C76.7205 50.8312 77.3305 48.8762 78.088 47.5375C79.2905 45.4131 81.5261 44.4481 83.9092 44.5925C83.9388 44.5946 83.9563 44.581 83.9617 44.5519C84.033 44.1619 84.2336 43.5037 84.148 43.1775C83.9942 42.5887 83.1548 42.5419 82.6686 42.6125C82.6641 42.6131 82.6594 42.6125 82.6552 42.6109C82.6509 42.6093 82.6471 42.6066 82.6441 42.6031C82.6411 42.5996 82.6391 42.5955 82.6381 42.591C82.6371 42.5865 82.6373 42.5819 82.6386 42.5775L82.858 41.8756C82.8609 41.8661 82.8666 41.8577 82.8742 41.8514C82.8819 41.8451 82.8912 41.8411 82.9011 41.84L87.5686 41.2456C87.6007 41.2414 87.6136 41.2552 87.6073 41.2868C86.9648 44.5535 86.3223 47.8198 85.6798 51.0856C85.4848 52.0762 86.4961 52.1756 87.1767 52.1387C87.1812 52.1385 87.1857 52.1393 87.1899 52.141C87.1941 52.1427 87.1978 52.1454 87.2008 52.1487C87.2038 52.1521 87.206 52.1561 87.2072 52.1604C87.2085 52.1647 87.2087 52.1693 87.208 52.1737L87.1067 52.7325C87.0976 52.7825 87.0678 52.8106 87.0173 52.8169L82.3142 53.4269C82.2721 53.4323 82.2551 53.4142 82.263 53.3725L83.7405 45.7519C83.7415 45.7464 83.7414 45.7408 83.7402 45.7353C83.739 45.7299 83.7366 45.7247 83.7332 45.7202C83.7299 45.7157 83.7257 45.7119 83.7208 45.7091C83.7159 45.7062 83.7105 45.7044 83.7048 45.7037Z" fill="white"/>
<path d="M13 54.2444V54.2069C14.1887 54.2765 14.8935 53.7402 15.1144 52.5981C15.6456 49.8556 16.1821 47.114 16.7237 44.3731C16.7908 44.0344 16.8096 43.7831 16.78 43.6194C16.6462 42.88 15.8944 42.7781 15.2469 42.7906C15.2177 42.791 15.2083 42.7777 15.2187 42.7506L15.5581 41.8594C15.5619 41.8502 15.5682 41.8423 15.5765 41.8367C15.5847 41.8311 15.5944 41.8281 15.6044 41.8281H22.185C22.193 41.8281 22.2008 41.831 22.207 41.8361C22.2131 41.8412 22.2173 41.8484 22.2187 41.8563L22.3919 42.7663C22.3929 42.7716 22.3927 42.7771 22.3911 42.7823C22.3896 42.7875 22.3869 42.7923 22.3832 42.7963C22.3795 42.8003 22.3749 42.8033 22.3697 42.8051C22.3646 42.807 22.3591 42.8076 22.3537 42.8069C21.5269 42.6956 20.5687 42.9019 20.3856 43.8456C19.8431 46.6398 19.3025 49.434 18.7637 52.2281C18.6496 52.8194 18.599 53.1798 18.6119 53.3094C18.6894 54.0813 19.45 54.2325 20.1187 54.2344C20.1425 54.2344 20.1506 54.2456 20.1431 54.2681L19.8606 55.0919C19.8531 55.114 19.8377 55.125 19.8144 55.125H13.2031C13.1819 55.125 13.1692 55.1146 13.165 55.0938L13 54.2444Z" fill="white"/>
<path d="M49.8575 46.0044C50.2051 46.4811 50.4431 47.0305 50.5579 47.6214C50.6727 48.2122 50.6621 48.8329 50.5266 49.448C50.3912 50.0631 50.1336 50.6605 49.7685 51.2061C49.4034 51.7518 48.938 52.235 48.3988 52.6281C47.3099 53.4221 45.9868 53.8012 44.7204 53.6819C43.4541 53.5627 42.3483 52.9548 41.6463 51.9921C41.2987 51.5154 41.0606 50.966 40.9458 50.3751C40.831 49.7842 40.8416 49.1636 40.9771 48.5485C41.1125 47.9334 41.3701 47.336 41.7352 46.7903C42.1003 46.2447 42.5657 45.7615 43.1049 45.3683C44.1938 44.5743 45.5169 44.1952 46.7833 44.3145C48.0496 44.4338 49.1554 45.0417 49.8575 46.0044ZM45.8581 45.4314C45.0056 45.8939 44.6 47.3964 44.3812 48.2764C44.1081 49.377 43.82 51.1314 44.3844 52.1614C44.7594 52.8464 45.5062 52.7776 46.0137 52.2939C47.1106 51.2489 47.4125 48.897 47.4756 47.4682C47.4994 46.9351 47.4519 46.2157 47.1669 45.7689C46.8844 45.327 46.3212 45.1801 45.8581 45.4314Z" fill="white"/>
<path d="M65.2294 46.0179C65.5755 46.496 65.8117 47.0465 65.9246 47.638C66.0374 48.2294 66.0247 48.8503 65.8871 49.4651C65.7495 50.0799 65.4897 50.6766 65.1227 51.2211C64.7556 51.7657 64.2884 52.2474 63.7478 52.6388C62.6559 53.4292 61.331 53.8036 60.0647 53.6798C58.7984 53.5559 57.6943 52.9439 56.9954 51.9784C56.6493 51.5003 56.4131 50.9498 56.3002 50.3583C56.1874 49.7668 56.2001 49.146 56.3377 48.5312C56.4753 47.9164 56.735 47.3196 57.1021 46.7751C57.4692 46.2306 57.9364 45.7489 58.477 45.3575C59.5689 44.5671 60.8938 44.1926 62.1601 44.3165C63.4264 44.4403 64.5305 45.0523 65.2294 46.0179ZM61.7936 45.3187C60.1005 45.1344 59.4661 49.2819 59.4305 50.3656C59.4043 51.1538 59.5311 53.0444 60.8674 52.6044C62.3768 52.1069 62.7918 48.7344 62.8461 47.4375C62.8786 46.6756 62.753 45.4231 61.7936 45.3187Z" fill="white"/>
<path d="M75.7864 46.0112C76.1333 46.4886 76.3705 47.0386 76.4844 47.6298C76.5983 48.2209 76.5867 48.8417 76.4503 49.4566C76.3139 50.0715 76.0553 50.6685 75.6894 51.2135C75.3234 51.7585 74.8573 52.2409 74.3175 52.6331C73.7777 53.0252 73.1749 53.3195 72.5435 53.4991C71.912 53.6787 71.2644 53.7402 70.6374 53.6799C70.0105 53.6196 69.4165 53.4388 68.8895 53.1478C68.3625 52.8568 67.9127 52.4613 67.5658 51.9839C67.2189 51.5064 66.9818 50.9564 66.8679 50.3653C66.754 49.7741 66.7656 49.1534 66.902 48.5385C67.0384 47.9236 67.2969 47.3266 67.6629 46.7816C68.0288 46.2365 68.495 45.7542 69.0348 45.362C69.5745 44.9698 70.1773 44.6755 70.8088 44.4959C71.4402 44.3163 72.0879 44.2549 72.7148 44.3152C73.3418 44.3755 73.9357 44.5563 74.4628 44.8473C74.9898 45.1383 75.4396 45.5338 75.7864 46.0112ZM72.2411 45.315C70.703 45.34 70.1511 48.8463 70.0342 49.9375C69.9561 50.6644 69.9386 51.875 70.4874 52.4182C70.8474 52.7738 71.3599 52.7144 71.7549 52.4413C72.3405 52.0369 72.7168 51.1663 72.9155 50.48C73.188 49.54 74.1667 45.2831 72.2411 45.315Z" fill="white"/>
<path d="M25.2638 45.6895C26.4113 44.8864 27.7019 44.1464 29.1663 44.522C30.2519 44.8007 30.4507 46.1407 30.2819 47.0632C30.0573 48.2924 29.8296 49.5216 29.5988 50.7507C29.5875 50.8099 29.5565 50.9437 29.5057 51.152C29.3088 51.962 29.9263 52.2345 30.6063 52.1245C30.612 52.1236 30.6178 52.1241 30.6232 52.1259C30.6287 52.1277 30.6336 52.1308 30.6376 52.1349C30.6416 52.139 30.6446 52.144 30.6464 52.1494C30.6481 52.1549 30.6485 52.1607 30.6475 52.1664L30.5438 52.7695C30.5375 52.8053 30.5165 52.8255 30.4807 52.8301L26.1082 53.3751C26.1025 53.3758 26.0967 53.3752 26.0913 53.3732C26.0859 53.3712 26.0811 53.3679 26.0772 53.3637C26.0732 53.3594 26.0704 53.3542 26.0688 53.3486C26.0673 53.343 26.067 53.3371 26.0682 53.3314C26.4369 51.518 26.8025 49.7009 27.165 47.8801C27.2613 47.3939 27.1819 46.6939 26.6844 46.4276C26.0369 46.0807 25.1019 46.4657 24.9525 47.2095C24.5471 49.2245 24.14 51.2664 23.7313 53.3351C23.728 53.3514 23.7182 53.3595 23.7019 53.3595H20.7494C20.7442 53.3595 20.7391 53.3584 20.7344 53.3561C20.7297 53.3539 20.7256 53.3506 20.7223 53.3466C20.719 53.3425 20.7167 53.3377 20.7154 53.3326C20.7141 53.3275 20.714 53.3222 20.715 53.317C21.1113 51.2816 21.5082 49.2541 21.9057 47.2345C22.05 46.5032 21.8869 45.6707 20.9088 45.8632C20.9037 45.8642 20.8985 45.864 20.8935 45.8625C20.8885 45.861 20.884 45.8583 20.8803 45.8547C20.8766 45.851 20.8739 45.8466 20.8723 45.8416C20.8707 45.8367 20.8704 45.8315 20.8713 45.8264L20.9882 45.1745C20.9923 45.1507 21.0063 45.1374 21.03 45.1345L25.4063 44.5601C25.445 44.5551 25.4605 44.5716 25.4525 44.6095L25.2344 45.6707C25.2282 45.7011 25.238 45.7074 25.2638 45.6895Z" fill="white"/>
<path d="M21.1406 54.2025L43.7956 54.2019C43.7997 54.2018 43.8037 54.2032 43.8069 54.2057C43.8101 54.2083 43.8123 54.2119 43.8131 54.2159C43.814 54.2199 43.8133 54.2241 43.8114 54.2277C43.8094 54.2313 43.8063 54.2341 43.8025 54.2357C43.3787 54.4111 43.0635 54.7034 42.8568 55.1125C42.8477 55.1313 42.8327 55.1407 42.8118 55.1407H20.8575C20.8536 55.1406 20.8498 55.1397 20.8464 55.1379C20.843 55.1362 20.84 55.1337 20.8377 55.1306C20.8354 55.1275 20.8339 55.1239 20.8332 55.1202C20.8325 55.1164 20.8327 55.1125 20.8337 55.1088L21.0969 54.235C21.1035 54.2134 21.1181 54.2025 21.1406 54.2025Z" fill="white"/>
<path d="M54.3754 54.2119C54.3757 54.2094 54.3769 54.2072 54.3788 54.2056C54.3806 54.204 54.383 54.2031 54.3854 54.2031H87.0586C87.0881 54.2031 87.0996 54.2175 87.0929 54.2463L86.8923 55.1125C86.8881 55.1313 86.8763 55.1406 86.8567 55.1406H54.0811C54.0527 55.1406 54.0457 55.1283 54.0598 55.1038C54.219 54.8258 54.3242 54.5285 54.3754 54.2119Z" fill="white"/>
</svg>
