<svg width="100" height="100" viewBox="0 0 100 100" fill="none" xmlns="http://www.w3.org/2000/svg">
<rect width="100" height="100" fill="white"/>
<g clip-path="url(#clip0_71_908)">
<path d="M48.721 15.1729C48.9467 14.6469 49.2075 14.2679 49.7961 14.1273C50.5097 13.9572 51.1327 14.3847 51.4125 15.0414C52.3229 17.177 53.2228 19.2873 54.1125 21.3723C54.1524 21.4656 54.21 21.4787 54.2855 21.4117C55.1597 20.6354 56.0164 19.8728 56.8554 19.1237C57.8384 18.2462 59.1666 18.9866 59.1673 20.2375C59.1678 22.9712 59.1682 25.7047 59.1687 28.438C59.1687 28.7301 59.1375 28.9562 59.0752 29.1165C58.8432 29.7142 58.3341 29.9954 57.7055 29.9954C52.8136 29.9964 47.9215 29.9964 43.0292 29.9954C42.8021 29.9954 42.3296 30.0531 42.1228 29.9926C41.611 29.844 41.2744 29.5518 41.1132 29.1158C41.0443 28.9302 41.0117 28.6115 41.0154 28.1596C41.0351 25.6586 41.0049 23.1576 41.0211 20.6572C41.0229 20.4224 41.0543 20.2318 41.1153 20.0856C41.3895 19.4275 42.1812 19.033 42.8668 19.2939C43.0046 19.3464 43.216 19.4837 43.501 19.7059C44.2796 20.3148 45.0718 20.9333 45.8775 21.5615C45.8882 21.5697 45.9006 21.5755 45.9138 21.5782C45.927 21.5809 45.9407 21.5806 45.9537 21.5772C45.9668 21.5738 45.9789 21.5674 45.9891 21.5586C45.9993 21.5498 46.0073 21.5387 46.0125 21.5263C46.9064 19.416 47.8093 17.2982 48.721 15.1729ZM50.0414 19.1504C49.9913 19.2522 49.9456 19.3508 49.9043 19.4465C49.2387 20.9835 48.5806 22.5238 47.93 24.0674C47.7535 24.4872 47.5397 24.8542 47.1361 25.0602C46.6432 25.3119 46.0955 25.2339 45.6666 24.8837C45.1641 24.4726 44.5929 24.0423 43.9531 23.5928C43.9212 23.5708 43.8928 23.5562 43.868 23.5492C43.8554 23.5458 43.8422 23.5454 43.8294 23.548C43.8166 23.5505 43.8046 23.5559 43.7942 23.5638C43.7839 23.5717 43.7755 23.5818 43.7698 23.5934C43.7641 23.605 43.7611 23.6178 43.7611 23.6308L43.7569 27.223C43.7569 27.2549 43.7714 27.2708 43.8005 27.2708L56.3478 27.2701C56.3593 27.2701 56.3704 27.2655 56.3786 27.2574C56.3868 27.2492 56.3914 27.2381 56.3914 27.2265L56.39 23.4444C56.39 23.3938 56.3646 23.3661 56.314 23.3615C56.2643 23.3568 56.2048 23.3851 56.1354 23.4465C55.6784 23.8515 55.2221 24.2563 54.7664 24.6608C54.3811 25.0026 54.0654 25.2493 53.5332 25.2001C52.9165 25.1425 52.5488 24.7333 52.3175 24.1911C51.6621 22.6536 51.0075 21.1159 50.3536 19.5779C50.2885 19.4247 50.2151 19.2808 50.1336 19.1462C50.1288 19.1381 50.1219 19.1315 50.1137 19.127C50.1054 19.1225 50.0961 19.1204 50.0866 19.1208C50.0772 19.1213 50.068 19.1242 50.06 19.1295C50.0521 19.1347 50.0457 19.1419 50.0414 19.1504Z" fill="#612467"/>
<path d="M19.2067 24.7249C18.9015 24.4281 18.3039 23.9388 18.1787 23.5443C17.9762 22.9045 18.3868 22.2527 19.0358 22.1367C19.4872 22.0558 19.8029 22.2428 20.1376 22.5775C29.7282 32.1728 39.3934 41.8457 49.1331 51.5962C49.1532 51.6164 49.153 51.6367 49.1324 51.6574L47.66 53.1107C47.6484 53.1222 47.6328 53.1287 47.6164 53.1287C47.6001 53.1287 47.5844 53.1222 47.5728 53.1107L19.2179 24.753C19.2118 24.7474 19.209 24.7417 19.2095 24.7361C19.2095 24.7338 19.2095 24.7317 19.2095 24.7298C19.209 24.7284 19.2081 24.7267 19.2067 24.7249Z" fill="#612467"/>
<path d="M81.5837 22.445L81.5797 22.4411C81.1538 22.0152 80.4633 22.0152 80.0375 22.4411L18.4472 84.0313C18.0214 84.4572 18.0214 85.1477 18.4472 85.5735L18.4512 85.5775C18.8771 86.0034 19.5676 86.0034 19.9935 85.5775L81.5837 23.9873C82.0096 23.5614 82.0096 22.8709 81.5837 22.445Z" fill="#612467"/>
<path d="M57.6576 32.7412H42.373C41.6255 32.7412 41.0195 33.3472 41.0195 34.0947V34.1397C41.0195 34.8873 41.6255 35.4932 42.373 35.4932H57.6576C58.4051 35.4932 59.0111 34.8873 59.0111 34.1397V34.0947C59.0111 33.3472 58.4051 32.7412 57.6576 32.7412Z" fill="#612467"/>
<path d="M24.816 56.3942C23.4519 57.8089 22.1251 59.1181 20.7611 60.4498C20.5225 60.6828 20.3214 60.8328 20.1578 60.8998C19.3731 61.219 18.4773 60.8126 18.1954 60.03C18.1227 59.8294 18.0866 59.4788 18.0871 58.9781C18.089 55.5521 18.0885 52.126 18.0857 48.6999C18.0852 47.866 18.4335 47.3344 19.1305 47.1052C19.3241 47.0414 19.6056 47.0098 19.975 47.0103C23.3589 47.0126 26.7433 47.0128 30.1281 47.011C30.572 47.011 30.8849 47.0428 31.0668 47.1066C32.1243 47.4792 32.4442 48.7674 31.637 49.5746C30.1961 51.016 28.7584 52.4557 27.3241 53.8939C27.293 53.9251 27.2755 53.9673 27.2754 54.0112C27.2752 54.0551 27.2925 54.0971 27.3234 54.128C28.6471 55.4602 29.9751 56.7942 31.3073 58.1302C31.6785 58.5028 31.9033 58.7796 31.9816 58.9606C32.5419 60.2628 30.903 61.6282 29.7245 60.7409C29.6655 60.6964 29.5033 60.5419 29.238 60.2775C27.8931 58.936 26.5415 57.5853 25.183 56.2254C25.1437 56.1856 25.0996 56.179 25.0508 56.2057C24.9759 56.2465 24.8976 56.3093 24.816 56.3942ZM21.1112 55.7269C21.1114 55.7365 21.1143 55.7459 21.1198 55.7539C21.1252 55.7618 21.1328 55.7681 21.1417 55.7717C21.1506 55.7754 21.1604 55.7764 21.1699 55.7745C21.1793 55.7727 21.188 55.7681 21.1949 55.7614L26.8368 50.1195C26.8435 50.1126 26.8481 50.1039 26.85 50.0944C26.8518 50.085 26.8508 50.0752 26.8472 50.0663C26.8435 50.0574 26.8373 50.0497 26.8293 50.0443C26.8214 50.0389 26.812 50.0359 26.8023 50.0358H21.1605C21.154 50.0358 21.1476 50.0371 21.1416 50.0396C21.1357 50.042 21.1302 50.0457 21.1257 50.0502C21.1211 50.0548 21.1175 50.0602 21.115 50.0662C21.1125 50.0722 21.1112 50.0786 21.1112 50.085V55.7269Z" fill="#612467"/>
<path d="M70.9101 59.7164C70.6211 61.5818 67.9401 61.3659 67.9401 59.3845C67.9397 55.9312 67.9392 52.4772 67.9387 49.0225C67.9387 48.5139 67.9753 48.1621 68.0484 47.9671C68.3079 47.2774 69.1495 46.8372 69.8885 47.0903C70.4165 47.2718 70.8883 47.7485 70.9087 48.344C70.9129 48.4713 70.9629 48.5887 70.9629 48.7082C70.9629 52.1854 70.9629 55.6628 70.9629 59.1405C70.9629 59.2961 70.9453 59.4881 70.9101 59.7164Z" fill="#612467"/>
<path d="M81.9844 48.4397V59.4788C81.9338 59.8266 81.8304 60.1144 81.6743 60.3422C80.9733 61.368 79.4412 61.1747 79.0193 60.0005C78.957 59.8256 78.9258 59.576 78.9258 59.2516C78.9263 55.7698 78.9263 52.2874 78.9258 48.8046C78.9253 48.453 78.9574 48.1877 79.0221 48.0087C79.2851 47.2774 80.0304 46.8949 80.7792 47.0637C81.4324 47.2106 81.8592 47.7893 81.9844 48.4397Z" fill="#612467"/>
<path d="M76.4465 59.5099C76.4443 61.0947 74.1683 61.6284 73.5383 60.0667C73.4746 59.9092 73.4406 59.6739 73.4364 59.3608C73.4153 57.8997 73.4158 56.4391 73.4378 54.9789C73.4645 53.2106 75.9177 52.8681 76.3825 54.5803C76.4233 54.7298 76.4441 54.9862 76.445 55.3495C76.4483 56.736 76.4488 58.1228 76.4465 59.5099Z" fill="#612467"/>
<path d="M80.0577 85.6062C70.3349 75.8919 60.6142 66.1761 50.9097 56.4448C50.8844 56.4195 50.8846 56.394 50.9104 56.3682L52.3792 54.8987C52.3869 54.891 52.3972 54.8867 52.408 54.8867C52.4188 54.8867 52.4292 54.891 52.4369 54.8987C62.0894 64.5441 71.7367 74.1973 81.3789 83.8583C81.6231 84.1029 81.7724 84.2919 81.8268 84.425C82.2459 85.4487 80.8797 86.4275 80.0577 85.6062Z" fill="#612467"/>
<path d="M49.8397 85.9614C49.2758 85.8637 48.8089 85.4812 48.6022 84.9461C48.5361 84.7755 48.5028 84.5155 48.5024 84.1663C48.4968 80.7107 48.4958 77.2551 48.4996 73.7994C48.5 73.4141 48.5338 73.1296 48.6008 72.9458C49.1851 71.3378 51.4984 71.7646 51.5068 73.5562C51.5228 76.8388 51.5275 80.1219 51.5209 83.4055C51.519 84.1738 51.4984 84.6362 51.459 84.7928C51.2931 85.4446 50.5766 86.0894 49.8397 85.9614Z" fill="#612467"/>
</g>
<defs>
<clipPath id="clip0_71_908">
<rect width="63.9844" height="72" fill="white" transform="translate(18 14)"/>
</clipPath>
</defs>
</svg>
