<svg width="100" height="100" viewBox="0 0 100 100" fill="none" xmlns="http://www.w3.org/2000/svg">
<rect width="100" height="100" fill="white"/>
<path d="M18.9965 80.8565C17.1231 78.0228 15.7886 74.8119 14.8202 71.5649C13.4664 67.0231 12.6722 62.254 12.2943 57.5418C11.7967 51.3351 11.9301 45.1426 12.6943 38.9644C13.2693 34.3127 14.2407 29.6772 15.776 25.2447C16.5954 22.8802 17.6396 20.6208 18.9087 18.4664C18.9692 18.364 19.0484 18.2796 19.1464 18.2132C23.3198 15.3987 28.1752 13.729 33.0646 12.6742C42.3548 10.6717 52.189 10.5455 61.5744 11.8704C64.8866 12.3384 68.1457 13.0495 71.3517 14.0036C74.6903 14.9979 77.8569 16.3081 80.7976 18.1468C80.8911 18.2053 80.9657 18.2819 81.0213 18.3763C82.3322 20.5996 83.4067 22.9326 84.2447 25.3753C85.8878 30.1673 86.8976 35.2516 87.4497 40.2739C88.1347 46.5062 88.1802 52.7232 87.5862 58.9251C87.2017 62.939 86.5012 66.9383 85.405 70.826C84.4041 74.3787 83.0039 77.8029 80.9903 80.906C80.9258 81.0059 80.8429 81.0863 80.7415 81.1474C75.4646 84.3427 69.3499 86.1187 63.3082 87.1085C55.4077 88.4032 47.4792 88.5915 39.5226 87.6732C34.8406 87.1329 30.1623 86.1394 25.7512 84.4557C23.3921 83.5552 21.2331 82.4484 19.2741 81.1355C19.1628 81.0612 19.0703 80.9682 18.9965 80.8565ZM20.1229 80.156C21.613 81.1407 23.1537 81.9726 24.7451 82.6517C29.6884 84.7605 35.0059 85.9076 40.3338 86.4774C47.8204 87.2776 55.28 87.0844 62.7126 85.898C68.6228 84.9547 74.7257 83.2887 79.8853 80.159C79.935 80.1285 79.9756 80.0886 80.0071 80.0394C82.809 75.6601 84.3798 70.5522 85.3408 65.4812C86.8931 57.2879 87.0732 48.7314 86.1602 40.4207C85.6693 35.9477 84.8197 31.4746 83.4748 27.1764C82.6178 24.4386 81.5047 21.76 80.0491 19.2842C79.9955 19.1932 79.9237 19.1201 79.8336 19.065C77.2797 17.5039 74.4998 16.3339 71.6492 15.4356C67.6256 14.1682 63.4544 13.3526 59.2677 12.8684C53.2844 12.177 47.2944 12.1199 41.2978 12.6971C37.3259 13.0802 33.4093 13.7719 29.5526 14.8946C26.2214 15.8645 22.9854 17.2057 20.1067 19.1263C20.0117 19.1898 19.9354 19.271 19.8779 19.3699C18.8494 21.1488 17.9914 22.9744 17.304 24.8468C15.5199 29.7097 14.454 34.8692 13.8694 40.034C13.2425 45.5759 13.1288 51.1289 13.5284 56.6929C13.8643 61.3698 14.5921 66.0348 15.8727 70.5499C16.819 73.8863 18.1329 77.1385 20.0159 80.0608C20.0341 80.0894 20.0698 80.1211 20.1229 80.156Z" fill="#0F62AC"/>
<path d="M21.0093 79.1951C20.9913 79.1834 20.9759 79.1678 20.9642 79.1494C18.9912 75.9968 17.6729 72.4737 16.7591 68.8738C15.9988 65.8799 15.4518 62.8467 15.1182 59.774C14.26 51.8755 14.4645 44.006 15.7316 36.1655C16.6203 30.6657 18.1158 25.1319 20.8498 20.2727C20.903 20.1778 20.9753 20.1008 21.0668 20.0417C22.5692 19.0688 24.0779 18.2724 25.5931 17.6524C30.2145 15.7598 35.2198 14.6614 40.1683 14.1123C47.0999 13.3426 54.0199 13.4322 60.9283 14.3809C63.8568 14.783 66.7453 15.3787 69.594 16.168C72.8285 17.0641 75.9848 18.2813 78.8798 19.9945C78.9659 20.0456 79.0338 20.1148 79.0835 20.2019C81.9157 25.1666 83.4245 30.9262 84.3102 36.5339C85.5454 44.3542 85.7262 52.1993 84.8528 60.0693C84.4852 63.3786 83.862 66.639 82.9831 69.8503C82.1032 73.0656 80.8831 76.1953 79.113 79.0305C79.055 79.123 78.9789 79.1968 78.8849 79.252C73.8354 82.2178 67.9355 83.7848 62.1869 84.675C55.3399 85.735 48.4659 85.9459 41.5648 85.3076C38.9435 85.0655 36.3452 84.6723 33.7701 84.1281C29.3221 83.1877 24.8357 81.7085 21.0093 79.1951ZM22.0043 78.3123C27.5395 81.7742 34.4455 83.2903 40.9064 83.9502C48.2583 84.7016 55.5771 84.4708 62.863 83.2578C68.0543 82.3935 73.3726 80.9423 77.9652 78.299C78.0538 78.2483 78.1242 78.1792 78.1763 78.0916C80.3103 74.5286 81.6463 70.4844 82.4996 66.4593C84.294 57.9929 84.5051 49.0054 83.5537 40.4954C83.0288 35.7994 82.1017 31.11 80.5635 26.6369C79.9046 24.7198 79.087 22.8732 78.1106 21.0972C78.0641 21.0124 77.9977 20.9659 77.9187 20.9208C73.1341 18.1823 67.5369 16.7031 62.1271 15.8602C55.3475 14.8046 48.5245 14.5999 41.6578 15.246C38.012 15.589 34.4982 16.213 31.1165 17.118C27.9352 17.969 24.7597 19.2143 21.9725 20.9858C21.9328 21.011 21.9001 21.0457 21.8773 21.0869C19.0886 26.1077 17.6478 31.9264 16.8218 37.5672C15.4459 46.9637 15.5116 56.789 17.4382 66.1072C18.2996 70.2733 19.6681 74.5028 21.8913 78.1972C21.9199 78.2449 21.9575 78.2833 22.0043 78.3123Z" fill="#EE3050"/>
<path d="M44.4669 37.4874C49.0418 31.2155 54.4797 25.4506 60.4585 20.4978C60.4782 20.482 60.5001 20.4773 60.5242 20.4837C63.7078 21.3422 66.5282 23.2045 69.0054 25.3296C69.0256 25.3473 69.0253 25.3645 69.0047 25.3813C68.2916 25.955 67.5806 26.5342 66.8715 27.1188C60.5496 32.3325 54.939 38.2191 50.0398 44.7787C50.0206 44.8048 50.0021 44.8045 49.9844 44.778C48.4816 42.5468 46.8441 40.4195 45.0721 38.3961C44.8891 38.1869 44.6866 37.9042 44.4646 37.5479C44.4518 37.5273 44.4526 37.5071 44.4669 37.4874Z" fill="#EE3050"/>
<path d="M59.0109 35.9948C61.742 33.1124 64.7336 30.492 67.8006 27.975C68.491 27.4081 69.1979 26.8626 69.9212 26.3385C69.9414 26.3237 69.9611 26.3247 69.9803 26.3415C72.1652 28.296 74.1655 30.3946 75.7665 32.8407C75.7803 32.8619 75.7766 32.8794 75.7555 32.8931C73.2281 34.5982 70.8439 36.5787 68.6804 38.5414C63.4567 43.2817 59.1061 49.0989 55.7823 55.3325C55.7796 55.3374 55.7757 55.3414 55.7709 55.3442C55.766 55.3469 55.7605 55.3483 55.755 55.348C55.7494 55.3478 55.7441 55.346 55.7395 55.3429C55.7349 55.3397 55.7313 55.3353 55.7291 55.3302C54.3567 52.112 52.7274 49.03 50.8412 46.0844C50.8342 46.0734 50.8306 46.0606 50.8308 46.0476C50.8311 46.0346 50.8352 46.022 50.8427 46.0113C53.3144 42.4722 56.0372 39.1333 59.0109 35.9948Z" fill="#EE3050"/>
<path d="M40.4032 48.693C36.0696 42.6181 30.5078 37.3611 24.2949 33.1752C24.2796 33.1648 24.2772 33.152 24.2875 33.1368C25.9542 30.7433 27.879 28.5798 30.0619 26.6464C30.0727 26.637 30.0863 26.6315 30.1005 26.6307C30.1146 26.6299 30.1286 26.6339 30.1402 26.6419C35.4835 30.3289 40.3611 34.6728 44.5183 39.6685C50.6751 47.0669 54.9135 55.6499 57.2482 64.9334C58.4934 69.8848 59.2183 74.8909 59.5615 79.9567C59.563 79.9764 59.5541 79.9897 59.5349 79.9966C56.6749 81.0427 53.7197 81.5562 50.6692 81.537C50.6456 81.537 50.6338 81.5252 50.6338 81.5016C50.591 69.8649 47.1741 58.1854 40.4032 48.693Z" fill="#0F62AC"/>
<path d="M72.7164 48.7594C66.088 55.455 62.1234 63.824 60.5645 73.0868C60.5636 73.0906 60.5614 73.094 60.5584 73.0964C60.5553 73.0988 60.5515 73.1 60.5476 73.0999C60.5437 73.0999 60.54 73.0984 60.537 73.0959C60.534 73.0934 60.532 73.0899 60.5313 73.0861C59.7636 67.7368 58.4652 62.4865 56.5454 57.431C56.5365 57.4079 56.537 57.385 56.5468 57.3623C60.6878 47.6418 67.7554 39.9519 76.5429 34.2026C76.5655 34.1878 76.5838 34.1923 76.5975 34.2159C78.125 36.8368 79.3114 39.604 80.1568 42.5177C80.1637 42.5418 80.1571 42.561 80.1369 42.5753C77.5571 44.3999 74.9493 46.5036 72.7164 48.7594Z" fill="#EE3050"/>
<path d="M33.3642 42.2978C39.3775 48.2634 43.7353 55.2545 46.4373 63.2712C48.4074 69.1165 49.4297 75.322 49.7161 81.492C49.7171 81.5152 49.7058 81.5265 49.6822 81.526C48.0356 81.4665 46.4696 81.353 44.9839 81.1857C43.5564 81.0248 42.1751 80.6385 40.84 80.0268C40.8164 80.0155 40.8031 79.9971 40.8002 79.9715C40.7958 79.9301 40.7923 79.8809 40.7898 79.8239C40.6009 75.0946 39.6981 70.3056 38.0772 65.8214C34.5716 56.1248 28.5029 48.4206 19.8711 42.7089C19.8657 42.7052 19.8615 42.7 19.8591 42.6939C19.8568 42.6878 19.8563 42.6812 19.8578 42.675C20.5376 39.7077 21.853 36.8991 23.4887 34.3422C23.4901 34.3398 23.492 34.3378 23.4943 34.3362C23.4965 34.3346 23.499 34.3334 23.5017 34.3328C23.5044 34.3322 23.5072 34.3321 23.5099 34.3326C23.5126 34.333 23.5152 34.3341 23.5175 34.3355C27.0704 36.6567 30.3526 39.3108 33.3642 42.2978Z" fill="#0F62AC"/>
</svg>
