<svg width="100" height="100" viewBox="0 0 100 100" fill="none" xmlns="http://www.w3.org/2000/svg">
<g clip-path="url(#clip0_71_910)">
<rect width="100" height="100" fill="white"/>
<g clip-path="url(#clip1_71_910)">
<path d="M49.8158 39.8524C51.0998 39.6915 52.3484 39.3439 53.5616 38.8097C44.9919 34.314 36.7471 29.6494 28.8274 24.8159C27.4614 23.9808 25.7863 23.7732 24.0679 24.2559C22.0888 24.8159 20.0485 24.9736 17.9471 24.729C17.7862 24.7129 17.6365 24.7483 17.4982 24.8352C12.2141 28.2689 6.89458 31.6511 1.53969 34.9818C0.0336266 35.9183 -0.767677 37.3423 -2.87713 37.7091C-3.04222 37.737 -3.19127 37.8227 -3.29709 37.9505C-3.86669 38.6359 -4.54571 39.1299 -5.33414 39.4324C-6.93192 40.0454 -7.6222 40.4799 -8.81932 41.3391L-9.05103 45.9587L2.60166 45.9828C2.77865 45.9828 2.86715 46.0729 2.86715 46.2531L2.84301 49.0046C2.84536 49.069 2.82333 49.1319 2.78132 49.1807C2.73931 49.2296 2.68041 49.2608 2.61639 49.2681C2.55238 49.2754 2.48796 49.2583 2.43601 49.2202C2.38406 49.1821 2.3484 49.1258 2.33617 49.0625C1.86954 47.1703 0.638625 46.3642 -1.35659 46.6441C-1.53036 46.6667 -1.61725 46.7664 -1.61725 46.9434L-1.57381 58.1761L-0.748368 54.8454C-0.73471 54.7908 -0.70956 54.7397 -0.6746 54.6956C-0.639639 54.6515 -0.595671 54.6154 -0.545629 54.5896L5.92755 51.2589C5.99122 51.2267 6.06311 51.215 6.13321 51.2254C6.2033 51.2358 6.26809 51.2677 6.31854 51.3168C6.7208 51.719 6.91389 52.2034 6.8978 52.7698L10.9024 52.1951L11.918 49.3039C14.1996 48.1164 16.7073 48.0488 19.8152 46.7841L21.6829 46.3902C21.6829 46.3902 21.8876 45.9941 22.1612 45.9973C23.1041 44.2434 24.2787 43.1959 25.685 42.8548C28.2192 42.237 31.1493 41.1798 33.7656 41.9039C34.4832 42.1034 35.151 42.1565 35.7688 42.0632C40.4512 41.3584 45.1238 40.4461 49.8158 39.8524Z" fill="#E52628"/>
<path d="M88.0466 37.0765C85.5783 37.8295 83.2983 39.0749 81.2066 40.8127C79.7681 42.0098 78.4841 43.6752 76.3215 43.2407C70.9087 42.1498 66.0269 40.861 61.676 39.3742C62.812 38.6115 64.0654 38.412 65.4364 38.7757C65.5973 38.8191 65.7707 38.7966 65.9191 38.7129C66.5208 38.3654 67.1757 38.2688 67.8837 38.4233C68.0439 38.4579 68.2126 38.441 68.3664 38.375C70.6352 37.3774 72.8379 36.2575 74.9748 35.0153C76.4856 34.1368 77.6248 34.383 79.1406 34.9477C79.2566 34.9916 79.3831 34.9984 79.5026 34.9671L81.6362 34.4409C81.7064 34.4242 81.7791 34.422 81.8497 34.4345C81.9203 34.4469 81.9873 34.4738 82.0465 34.5133L84.4552 36.1352C84.506 36.17 84.5655 36.1897 84.6269 36.1923C84.6884 36.1948 84.7493 36.1801 84.8028 36.1497C86.0257 35.4739 87.1069 35.7828 88.0466 37.0765Z" fill="#E52628"/>
<path d="M88.0466 37.0771C90.0498 37.2364 91.7538 37.2751 93.8053 37.7916C95.741 38.2791 100.525 39.2059 102.238 38.1488C102.377 38.0651 102.522 38.0458 102.673 38.0908L107.958 39.7128C108.139 39.7675 108.288 39.7224 108.407 39.5776C108.89 38.9983 109.498 38.625 110.232 38.4577C110.379 38.4235 110.534 38.4423 110.671 38.5108C112.139 39.222 113.473 40.1279 114.673 41.2285C114.805 41.3508 114.963 41.4055 115.146 41.3926C117.611 41.222 119.65 42.0764 121.262 43.9558C121.381 44.0942 121.529 44.1843 121.706 44.2261L127.866 45.7032C127.888 45.71 127.907 45.7244 127.92 45.7439C127.934 45.7633 127.939 45.7868 127.937 45.8101C127.935 45.8334 127.925 45.8553 127.908 45.8719C127.891 45.8885 127.87 45.8988 127.846 45.9011L119.669 45.9832C119.508 45.9864 119.429 46.0669 119.433 46.2246L119.437 48.9712C119.44 49.0309 119.463 49.0877 119.504 49.1315C119.545 49.1753 119.6 49.2032 119.659 49.2102C119.718 49.2172 119.778 49.2028 119.828 49.1696C119.877 49.1364 119.914 49.0866 119.93 49.0291C120.38 47.1594 121.618 46.3742 123.642 46.6735C123.799 46.696 123.875 46.7877 123.869 46.9486C123.695 51.4829 123.672 54.3357 123.801 55.5071C123.952 56.8587 123.841 58.0864 123.468 59.1902C120.253 60.2956 116.015 59.9626 112.24 59.8419C116.575 58.0172 115.552 51.5875 115.441 47.6389C115.432 47.3844 115.511 47.1345 115.665 46.9307C115.818 46.727 116.037 46.5817 116.285 46.519L117.072 46.3211C117.11 46.3116 117.143 46.2887 117.165 46.2567C117.187 46.2246 117.196 46.1857 117.191 46.1472C117.187 46.1086 117.168 46.0732 117.139 46.0474C117.11 46.0217 117.072 46.0074 117.033 46.0073L112.67 45.9542C112.625 45.951 112.596 45.9719 112.583 46.017C112.57 46.0556 112.557 46.0942 112.544 46.1328C112.522 46.194 112.543 46.2229 112.607 46.2197C113.823 46.2004 114.436 46.844 114.446 48.1506C114.47 51.1241 115.04 56.3953 113.606 58.1524C112.602 59.3833 110.266 59.8226 109.141 58.4855C107.901 57.0132 108.441 49.4684 108.465 47.3831C108.468 47.1426 108.552 46.9105 108.703 46.7246C108.854 46.5386 109.063 46.41 109.296 46.3597L110.015 46.2004C110.047 46.1966 110.076 46.1802 110.096 46.1548C110.116 46.1295 110.125 46.0973 110.121 46.0653C110.117 46.0332 110.101 46.0041 110.075 45.9842C110.05 45.9642 110.018 45.9552 109.986 45.9591C108.258 45.9591 105.559 46.2873 103.947 45.9397C103.786 45.9044 103.664 45.9381 103.58 46.0411C103.461 46.1892 103.497 46.2648 103.686 46.268C104.6 46.2776 105.056 46.7411 105.053 47.6582C105.049 49.9366 105.059 52.2086 105.081 54.4741C105.11 57.2207 105.612 58.8185 108.185 59.7936C105.649 60.228 103.339 60.0655 101.254 59.3061C98.6518 55.2802 96.9478 50.26 95.0459 45.8142C95.0252 45.7678 94.9916 45.7283 94.9491 45.7004C94.9066 45.6725 94.8569 45.6574 94.8061 45.6569C94.7553 45.6564 94.7053 45.6705 94.6623 45.6975C94.6192 45.7246 94.5848 45.7634 94.5632 45.8094L88.4472 59.1468C86.835 59.9706 85.7279 60.109 85.1262 59.5619C85.3804 58.2618 85.5558 56.9118 85.6523 55.5119C85.6588 55.409 85.6427 55.3317 85.604 55.2802C85.559 55.2159 85.493 55.174 85.4061 55.1547C85.2388 55.1129 85.139 55.1773 85.1068 55.3478C84.3731 59.1661 81.921 58.9199 78.8268 58.8909C78.6859 58.8909 78.5509 58.8345 78.4513 58.734C78.3517 58.6335 78.2958 58.4972 78.2958 58.3551L78.3151 46.9921C78.3166 46.9088 78.3408 46.8275 78.385 46.7569C78.4292 46.6863 78.4918 46.6291 78.5661 46.5914C79.007 46.3726 79.4768 46.2439 79.9756 46.2052C80.0464 46.202 80.0995 46.1731 80.1349 46.1184C80.1993 46.025 80.1751 45.9784 80.0625 45.9784H73.2225C73.1356 45.9784 73.1114 46.017 73.1501 46.0942C73.1694 46.1328 73.1983 46.165 73.237 46.1908C73.282 46.2262 73.348 46.2406 73.4349 46.2342C74.4872 46.1859 75.0149 46.622 75.0182 47.5424C75.0343 50.9278 75.0294 54.3068 75.0037 57.6793C74.9972 58.3551 74.7334 58.9344 74.212 59.4171C71.0873 60.0317 67.9062 60.0462 64.6688 59.4605C63.9447 59.1323 63.5795 58.5804 63.573 57.8048C63.5473 54.3454 63.5473 50.8988 63.573 47.4651C63.5755 47.2139 63.6651 46.9714 63.8263 46.7793C63.9875 46.5873 64.2103 46.4577 64.4564 46.4128L65.388 46.239C65.4226 46.2358 65.4545 46.219 65.4767 46.1923C65.4989 46.1656 65.5095 46.1312 65.5063 46.0966C65.5031 46.0621 65.4863 46.0302 65.4596 46.008C65.4329 45.9858 65.3985 45.9752 65.3639 45.9784H58.3453C58.3066 45.9784 58.2825 45.9961 58.2729 46.0315C58.26 46.0701 58.2471 46.1087 58.2342 46.1473C58.2117 46.2117 58.2342 46.2423 58.3018 46.239C58.9712 46.1875 59.5456 46.3694 60.0251 46.7845C60.1667 46.9068 60.2391 47.0629 60.2423 47.2527L60.3244 52.075C60.3276 52.2134 60.2584 52.2826 60.1168 52.2826L55.7579 52.2488C55.6485 52.2488 55.5938 52.1941 55.5938 52.0847V46.939C55.5939 46.8569 55.6209 46.7771 55.6706 46.7117C55.7202 46.6464 55.7899 46.599 55.869 46.5769L57.293 46.1811C57.3208 46.173 57.3449 46.1551 57.3606 46.1306C57.3763 46.1062 57.3827 46.0769 57.3786 46.0482C57.3745 46.0194 57.3602 45.9931 57.3382 45.9741C57.3163 45.9551 57.2882 45.9446 57.2592 45.9446L50.5253 45.9784C50.4706 45.9784 50.4417 45.9848 50.4384 45.9977C50.4256 46.0395 50.4127 46.0797 50.3998 46.1184C50.3902 46.1409 50.3966 46.1554 50.4191 46.1618L51.819 46.519C51.9188 46.5436 52.0076 46.6011 52.0714 46.6824C52.1351 46.7637 52.1703 46.8641 52.1714 46.9679C52.2744 52.4644 52.2937 56.1974 52.2293 58.1669C52.2196 58.4629 52.0475 58.7735 51.7128 59.0985C50.5446 59.3254 49.473 60.006 48.2324 59.3736C47.6467 58.9843 47.2944 58.6528 47.1753 58.3793C45.3185 54.1282 43.4922 49.9334 41.6965 45.7949C41.5742 45.515 41.4503 45.515 41.3248 45.7949L35.7205 58.4275C35.6731 58.529 35.6018 58.6169 35.513 58.6834L34.5041 59.446L31.0961 59.726C31.1187 56.4275 31.1074 53.1209 31.0624 49.8063C31.0479 48.5898 30.681 46.4707 32.4719 46.3597C32.5395 46.3565 32.5877 46.3404 32.6167 46.3114C32.6489 46.2793 32.6682 46.2406 32.6746 46.1956C32.6939 46.054 32.6344 45.9832 32.496 45.9832C31.6175 45.9639 29.3342 45.7274 28.6247 46.0122C28.3382 46.128 28.3479 46.2004 28.6536 46.2294C29.7542 46.3356 30.2707 46.9438 30.2514 48.0782C30.2192 49.9833 30.2482 51.8803 30.3383 53.7693C30.3672 54.3357 30.2096 54.3937 29.8652 53.9431C28.0116 51.5199 26.0405 48.9905 23.952 46.3549C23.6302 45.9494 23.0332 45.8303 22.1611 45.9977C23.104 44.2438 24.2786 43.1963 25.6849 42.8552C28.2192 42.2373 31.1492 41.1802 33.7655 41.9043C34.4832 42.1038 35.1509 42.1569 35.7688 42.0636C40.4511 41.3588 45.1238 40.4465 49.8157 39.8527C51.0998 39.6918 52.3484 39.3443 53.5616 38.8101C54.7909 38.1279 56.0476 37.8398 57.3316 37.946C58.9004 38.0715 59.8562 39.3362 61.676 39.3749C66.0268 40.8616 70.9087 42.1505 76.3215 43.2414C78.484 43.6758 79.7681 42.0105 81.2065 40.8133C83.2983 39.0756 85.5783 37.8302 88.0466 37.0771Z" fill="#D30201"/>
<path d="M-6.86922 59.6925C-7.2747 59.3481 -8.00359 59.398 -9.05591 59.8421C-9.00003 55.5121 -9.05591 48.8779 -9.05574 45.5609C-8.4797 43.4112 -6.94866 44.4196 -4.85369 44.7318C-4.696 44.7543 3.439 45.4001 3.439 45.561C3.439 45.561 3.51623 57.8757 3.439 59.6585C3.41003 60.315 -5.57233 59.3964 -6.86922 59.6925Z" fill="#E52628"/>
<path d="M19.8152 46.7838C20.2142 46.6776 20.5038 46.9592 20.6841 47.6285C21.3405 50.0373 20.8578 54.8306 20.7758 57.4614C20.7323 58.9674 19.8972 59.3343 18.5843 59.5805C18.3204 59.5741 18.079 59.6159 17.8602 59.706C16.7757 59.4357 9.7749 61.6656 9.24392 60.4878C-3.58327 62.6126 7.0725 54.172 5.92686 51.3659C8.20848 50.1784 16.832 47.2761 19.8152 46.7838Z" fill="#D30201"/>
<path d="M30.4785 59.769L23.957 59.6677L22.2434 59.0401C22.1125 58.9934 22.003 58.9028 21.9345 58.7843C21.7285 58.4432 21.6304 58.0763 21.64 57.6837C21.7012 54.7939 21.698 51.9024 21.6304 49.0094C21.6303 48.9824 21.6387 48.9561 21.6542 48.9341C21.6698 48.912 21.6918 48.8954 21.7172 48.8864C21.7426 48.8774 21.7702 48.8765 21.7961 48.8838C21.8221 48.8911 21.8451 48.9063 21.8621 48.9273L30.4785 59.769Z" fill="#D30201"/>
<path d="M38.2598 54.8065L40.1086 50.549C40.1204 50.5209 40.1402 50.497 40.1655 50.4802C40.1909 50.4633 40.2206 50.4543 40.251 50.4543C40.2814 50.4543 40.3112 50.4633 40.3365 50.4802C40.3618 50.497 40.3816 50.5209 40.3934 50.549L42.1939 54.8258C42.2033 54.849 42.2069 54.8741 42.2045 54.899C42.202 54.9239 42.1935 54.9479 42.1797 54.9688C42.1659 54.9897 42.1473 55.0069 42.1254 55.019C42.1035 55.0311 42.079 55.0377 42.0539 55.0382L38.3998 55.0189C38.3748 55.0184 38.3503 55.0118 38.3284 54.9997C38.3064 54.9876 38.2878 54.9703 38.274 54.9494C38.2603 54.9286 38.2518 54.9046 38.2493 54.8797C38.2468 54.8548 38.2504 54.8297 38.2598 54.8065Z" fill="#D30201"/>
<path d="M91.5754 54.7536L93.3035 50.7037C93.3185 50.666 93.3445 50.6338 93.3781 50.611C93.4116 50.5883 93.4512 50.5762 93.4917 50.5762C93.5323 50.5762 93.5719 50.5883 93.6054 50.611C93.639 50.6338 93.6649 50.666 93.68 50.7037L95.4081 54.7536C95.4207 54.7841 95.4256 54.8172 95.4225 54.85C95.4194 54.8828 95.4083 54.9144 95.3903 54.942C95.3722 54.9696 95.3477 54.9923 95.3188 55.0083C95.2899 55.0243 95.2576 55.0329 95.2247 55.0336H91.7588C91.7258 55.0329 91.6935 55.0243 91.6647 55.0083C91.6358 54.9923 91.6113 54.9696 91.5932 54.942C91.5751 54.9144 91.5641 54.8828 91.561 54.85C91.5579 54.8172 91.5628 54.7841 91.5754 54.7536Z" fill="#D30201"/>
<path d="M6.89779 52.7697C5.57033 55.526 5.06831 57.9348 3.0747 59.4795L-0.231878 59.5567C-1.15869 59.251 -1.606 58.7908 -1.57382 58.1761L-0.748381 54.8454C-0.734722 54.7908 -0.709573 54.7397 -0.674612 54.6956C-0.639651 54.6515 -0.595683 54.6153 -0.545641 54.5896L5.92753 51.2589C5.9912 51.2267 6.0631 51.215 6.13319 51.2254C6.20329 51.2357 6.26808 51.2677 6.31853 51.3168C6.72079 51.719 6.91388 52.2034 6.89779 52.7697Z" fill="#D30201"/>
<path d="M58.8182 59.4938L57.2107 59.5517L55.7867 58.8904C55.7348 58.8674 55.6904 58.8293 55.6588 58.7806C55.6272 58.7319 55.6096 58.6745 55.6081 58.6153L55.5599 53.3827C55.5592 53.3478 55.5656 53.3132 55.5786 53.2807C55.5916 53.2483 55.611 53.2186 55.6356 53.1935C55.6603 53.1684 55.6897 53.1483 55.7223 53.1344C55.7548 53.1205 55.7899 53.113 55.8254 53.1123L60.0443 53.0689C60.076 53.0683 60.1075 53.0739 60.137 53.0854C60.1665 53.0969 60.1935 53.1142 60.2164 53.1362C60.2392 53.1581 60.2575 53.1844 60.2702 53.2134C60.2829 53.2425 60.2898 53.2737 60.2904 53.3054C60.3194 54.3384 60.3065 55.8268 60.2518 57.7705C60.2261 58.6973 59.7482 59.2718 58.8182 59.4938Z" fill="#D30201"/>
<path d="M96.61 59.2813C96.2399 59.2941 95.7701 59.418 95.2005 59.6529C93.7427 60.2419 92.5407 59.9957 91.1505 59.2909C90.0371 58.6698 90.0242 57.5612 91.1119 55.965C91.2084 55.8202 91.3436 55.7478 91.5174 55.7478L95.5577 55.7526C95.634 55.7526 95.709 55.7726 95.7751 55.8108C95.8412 55.8489 95.8961 55.9038 95.9342 55.9699C96.4555 56.8806 96.7902 57.8428 96.9382 58.8565C96.9511 58.9273 96.8417 59.0689 96.61 59.2813Z" fill="#D30201"/>
<path d="M43.1499 59.3103L38.7717 59.6916L37.116 58.8758C37.0351 58.8354 36.971 58.7678 36.9348 58.6848C36.8986 58.6019 36.8927 58.5089 36.9181 58.4221L37.6084 56.0423C37.6663 55.8492 37.795 55.7527 37.9946 55.7527H42.31C42.487 55.7527 42.6173 55.8331 42.701 55.994C43.1033 56.7728 43.3848 57.5725 43.5457 58.3931C43.6326 58.8372 43.5007 59.1429 43.1499 59.3103Z" fill="#D30201"/>
<path d="M15.878 48.0488L22.5122 45.561H130.317V62.1464H14.2195L15.878 48.0488Z" fill="#D30201"/>
<rect x="-10.6584" y="55.5122" width="137.659" height="23.2195" fill="white"/>
<path d="M88.4477 53.902C89.1814 54.3558 90.0825 54.4041 91.1509 54.0468C92.5411 54.7516 93.743 54.9978 95.2008 54.4089C95.7704 54.174 96.2403 54.0501 96.6104 54.0372C98.1776 54.3558 99.7255 54.3638 101.254 54.0613C103.339 54.8208 105.65 54.9833 108.186 54.5489L112.241 54.5971C116.015 54.7178 120.254 55.0509 123.468 53.9455C124.936 54.351 126.558 54.4411 128.334 54.2158C129.276 54.4137 130.318 54.6116 131.327 54.6068C138.822 54.5746 146.32 54.6261 153.821 54.7613C153.986 54.7645 154.068 54.8481 154.068 55.0123L154.039 57.4838L-8.98301 57.5127L-9.05542 54.5971C-8.00311 54.153 -7.27421 54.1032 -6.86873 54.4475L-0.231433 54.3123L3.07515 54.2351C4.72603 54.544 6.32219 54.5987 7.86366 54.3992C8.66174 54.174 9.51292 54.1579 10.4172 54.351L17.8606 54.462C18.0795 54.3719 18.3208 54.33 18.5847 54.3365L23.9573 54.4234L30.4787 54.5247C30.5753 54.7017 30.7812 54.6872 31.0966 54.4813L34.5046 54.2013L38.7717 54.4475L43.1499 54.0662C44.8266 54.5328 46.5209 54.5537 48.2329 54.1289C49.4735 54.7613 50.5451 54.0806 51.7133 53.8538C51.694 54.1917 51.7808 54.3638 51.9739 54.3703C53.0102 54.4024 54.756 54.3815 57.2114 54.3075L58.8188 54.2496L64.6693 54.2158C67.9067 54.8015 71.0877 54.787 74.2125 54.1723L85.1266 54.3172C85.7284 54.8642 86.8354 54.7259 88.4477 53.902Z" fill="#ACA8AB"/>
<path d="M-8.91577 58.6371C30.2901 58.5068 69.4719 58.5454 108.663 58.5551C121.867 58.5583 135.071 58.584 148.275 58.6323C150.199 58.642 152.125 58.6999 154.053 58.8061V60.6694C147.285 61.0266 138.987 60.7707 133.822 60.7707C86.2752 60.7418 38.7183 60.6066 -8.82406 60.8624L-8.91577 58.6371Z" fill="#A7A8A9"/>
<path d="M-8.91577 75.0949C30.2901 74.9646 69.4719 75.0032 108.663 75.0128C121.867 75.0161 135.071 75.0418 148.275 75.0901C150.199 75.0997 152.125 75.1577 154.053 75.2639V77.1271C147.285 77.4843 138.987 77.2285 133.822 77.2285C86.2752 77.1995 38.7183 77.0644 -8.82406 77.3202L-8.91577 75.0949Z" fill="#A7A8A9"/>
<path d="M-8.91577 91.5527C30.2901 91.4223 69.4719 91.461 108.663 91.4706C121.867 91.4738 135.071 91.4996 148.275 91.5478C150.199 91.5575 152.125 91.6154 154.053 91.7216V93.5849C147.285 93.9421 138.987 93.6863 133.822 93.6863C86.2752 93.6573 38.7183 93.5221 -8.82406 93.778L-8.91577 91.5527Z" fill="#A7A8A9"/>
<path d="M154.048 62.5811V64.1258L-8.82385 64.1016L-8.87695 62.026C12.4783 62.1466 33.8093 61.9873 55.1356 62.0356C82.3509 62.1 109.566 62.1161 136.782 62.0839C142.087 62.0791 147.223 62.2335 153.179 61.9149C153.337 61.9085 153.479 61.9519 153.604 62.0453C153.817 62.2062 153.965 62.3848 154.048 62.5811Z" fill="#A7A8A9"/>
<path d="M154.048 79.0388V80.5835L-8.82385 80.5594L-8.87695 78.4837C12.4783 78.6044 33.8093 78.4451 55.1356 78.4934C82.3509 78.5577 109.566 78.5738 136.782 78.5416C142.087 78.5368 147.223 78.6913 153.179 78.3727C153.337 78.3663 153.479 78.4097 153.604 78.503C153.817 78.6639 153.965 78.8425 154.048 79.0388Z" fill="#A7A8A9"/>
<path d="M154.048 95.4966V97.0413L-8.82385 97.0171L-8.87695 94.9415C12.4783 95.0622 33.8093 94.9029 55.1356 94.9511C82.3509 95.0155 109.566 95.0316 136.782 94.9994C142.087 94.9946 147.223 95.149 153.179 94.8305C153.337 94.824 153.479 94.8675 153.604 94.9608C153.817 95.1217 153.965 95.3003 154.048 95.4966Z" fill="#A7A8A9"/>
<path d="M154.048 65.3569V67.1574L-8.8239 67.1622L-8.83838 65.3521L154.048 65.3569Z" fill="#A7A8A9"/>
<path d="M154.048 81.8146V83.6152L-8.8239 83.62L-8.83838 81.8098L154.048 81.8146Z" fill="#A7A8A9"/>
<path d="M154.048 98.2724V100.073L-8.8239 100.078L-8.83838 98.2676L154.048 98.2724Z" fill="#A7A8A9"/>
<path d="M154.048 68.3832V70.1741L-8.82861 70.1693V68.3784L154.048 68.3832Z" fill="#A7A8A9"/>
<path d="M154.048 84.841V86.6319L-8.82861 86.627V84.8362L154.048 84.841Z" fill="#A7A8A9"/>
<path d="M154.053 71.516V73.5337L-8.82395 73.6206L-8.84326 71.5063L154.053 71.516Z" fill="#A7A8A9"/>
<path d="M154.053 87.9738V89.9915L-8.82395 90.0784L-8.84326 87.9641L154.053 87.9738Z" fill="#A7A8A9"/>
</g>
</g>
<defs>
<clipPath id="clip0_71_910">
<rect width="100" height="100" fill="white"/>
</clipPath>
<clipPath id="clip1_71_910">
<rect width="136" height="76" fill="white" transform="translate(-9 24)"/>
</clipPath>
</defs>
</svg>
