<svg width="100" height="100" viewBox="0 0 100 100" fill="none" xmlns="http://www.w3.org/2000/svg">
<rect width="100" height="100" fill="white"/>
<path d="M77.2997 39.6329C77.6067 37.9591 77.8563 36.7458 77.3366 34.896C75.7549 29.2568 66.7968 29.9259 62.6656 30.5745C54.8022 31.8084 47.4074 34.6239 40.1496 37.8057C40.1471 37.8066 40.1444 37.807 40.1417 37.8067C40.139 37.8065 40.1363 37.8057 40.134 37.8043C40.1316 37.8029 40.1296 37.8011 40.1281 37.7988C40.1266 37.7966 40.1255 37.794 40.1251 37.7914C40.1224 37.7668 40.1292 37.7532 40.1456 37.7504C40.151 37.7491 40.1551 37.7477 40.1578 37.7463C48.7272 33.2652 58.1866 29.6313 67.5191 29.0522C74.7154 28.6061 82.0612 30.9265 81.4207 39.5858C81.4125 39.6977 81.3525 39.7536 81.2407 39.7536H77.4021C77.3188 39.7536 77.2847 39.7134 77.2997 39.6329Z" fill="#ADB7C0"/>
<path d="M15.3542 48.7523V55.253C15.3542 55.3212 15.3201 55.3553 15.2519 55.3553H12.9725C12.9207 55.3553 12.8947 55.3287 12.8947 55.2755L12.8579 45.0324C12.8579 44.9437 12.9009 44.8898 12.9868 44.8707C14.0815 44.6293 14.7363 44.9055 15.6468 45.6135C18.3396 47.7088 21.0364 49.789 23.7373 51.8543C23.7522 51.8652 23.7698 51.8718 23.7882 51.8734C23.8066 51.8749 23.825 51.8714 23.8415 51.8631C23.858 51.8549 23.8719 51.8423 23.8817 51.8266C23.8915 51.811 23.8968 51.7929 23.8969 51.7745V44.971C23.8969 44.9028 23.9311 44.8687 23.9993 44.8687H26.25C26.3523 44.8687 26.4035 44.9198 26.4035 45.0222V55.253C26.4035 55.2801 26.3927 55.3061 26.3735 55.3253C26.3543 55.3445 26.3283 55.3553 26.3012 55.3553H24.1097C23.9626 55.3552 23.8193 55.3055 23.7026 55.2141L15.4729 48.695C15.3938 48.6323 15.3542 48.6514 15.3542 48.7523Z" fill="#154994"/>
<path d="M62.0805 50.4506L62.0703 55.2713C62.0703 55.3273 62.043 55.3552 61.9884 55.3552H59.4266C59.3434 55.3552 59.3018 55.3136 59.3018 55.2304L59.2793 45.0508C59.2793 44.9294 59.3393 44.8687 59.4594 44.8687H62.0089C62.0798 44.8687 62.1146 44.9034 62.1132 44.973L62.0989 49.0469C62.0986 49.0549 62.1006 49.0628 62.1047 49.0696C62.1088 49.0764 62.1148 49.0819 62.1219 49.0854C62.1291 49.0889 62.1371 49.0902 62.145 49.0892C62.1529 49.0882 62.1604 49.0848 62.1664 49.0797C63.7488 47.811 65.3462 46.5404 66.9585 45.2677C67.2736 45.018 67.3985 44.8584 67.8302 44.8646C69.0743 44.8796 70.3006 44.8755 71.5092 44.8523C71.5199 44.8523 71.5304 44.8557 71.5391 44.862C71.5478 44.8682 71.5543 44.8771 71.5577 44.8873C71.5611 44.8975 71.5612 44.9085 71.558 44.9187C71.5548 44.9289 71.5485 44.9379 71.5399 44.9444L65.0004 49.4684C64.9281 49.5189 64.9281 49.5701 65.0004 49.6219L73.0459 55.2161C73.1795 55.3089 73.1645 55.3552 73.0009 55.3552H68.6998C68.6322 55.3553 68.566 55.3322 68.5116 55.2898L62.1787 50.4015C62.1696 50.3946 62.1587 50.3905 62.1474 50.3895C62.136 50.3884 62.1246 50.3906 62.1144 50.3957C62.1042 50.4008 62.0957 50.4086 62.0897 50.4183C62.0837 50.428 62.0805 50.4392 62.0805 50.4506Z" fill="#154994"/>
<path d="M7.03241 55.3552H4.13914C4.10224 55.3552 4.06685 55.3406 4.04075 55.3145C4.01466 55.2884 4 55.253 4 55.2161L4.02251 45.0078C4.02251 44.9895 4.02611 44.9714 4.0331 44.9545C4.04009 44.9377 4.05034 44.9223 4.06326 44.9094C4.07618 44.8965 4.09152 44.8862 4.1084 44.8792C4.12528 44.8723 4.14337 44.8687 4.16165 44.8687H7.02832C7.04659 44.8687 7.06468 44.8723 7.08156 44.8792C7.09845 44.8862 7.11378 44.8965 7.1267 44.9094C7.13962 44.9223 7.14987 44.9377 7.15687 44.9545C7.16386 44.9714 7.16746 44.9895 7.16746 45.0078L7.17155 55.2161C7.17155 55.253 7.15689 55.2884 7.1308 55.3145C7.1047 55.3406 7.06931 55.3552 7.03241 55.3552Z" fill="#154994"/>
<path d="M32.0364 44.973C32.0364 44.9453 32.0474 44.9188 32.067 44.8992C32.0865 44.8796 32.1131 44.8687 32.1407 44.8687L39.288 44.8809C40.1619 44.8824 41.0271 45.0078 41.834 45.2499C42.641 45.4919 43.374 45.8459 43.9911 46.2917C44.6083 46.7375 45.0975 47.2662 45.4308 47.8478C45.7642 48.4294 45.9351 49.0524 45.9339 49.6812V50.5529C45.9315 51.8226 45.2282 53.0391 43.9788 53.9347C42.7294 54.8303 41.0362 55.3317 39.2716 55.3286L32.1244 55.3163C32.0967 55.3163 32.0702 55.3054 32.0506 55.2858C32.031 55.2662 32.02 55.2397 32.02 55.212L32.0364 44.973ZM34.8949 46.9271V53.2988C34.8949 53.3058 34.8963 53.3127 34.8989 53.3192C34.9016 53.3256 34.9055 53.3315 34.9105 53.3365C34.9154 53.3414 34.9213 53.3453 34.9277 53.348C34.9342 53.3507 34.9411 53.352 34.9481 53.352H38.5636C39.8167 53.352 41.0184 53.0504 41.9044 52.5136C42.7905 51.9768 43.2882 51.2487 43.2882 50.4895V49.7365C43.2882 48.9773 42.7905 48.2492 41.9044 47.7123C41.0184 47.1755 39.8167 46.8739 38.5636 46.8739H34.9481C34.934 46.8739 34.9204 46.8795 34.9105 46.8895C34.9005 46.8995 34.8949 46.913 34.8949 46.9271Z" fill="#154994"/>
<path d="M53.4671 44.8663L50.492 44.8715C50.4615 44.8715 50.4368 44.8963 50.4369 44.9268L50.455 55.3008C50.455 55.3314 50.4798 55.356 50.5103 55.356L53.4854 55.3508C53.5159 55.3508 53.5406 55.326 53.5406 55.2955L53.5225 44.9214C53.5224 44.8909 53.4976 44.8662 53.4671 44.8663Z" fill="#154994"/>
<path d="M84.5657 52.6952H78.3229C78.3116 52.6953 78.3005 52.6983 78.2908 52.7041C78.2811 52.7098 78.2731 52.7181 78.2676 52.728L76.7699 55.3225C76.7644 55.3324 76.7564 55.3406 76.7467 55.3464C76.737 55.3521 76.7259 55.3552 76.7146 55.3552H73.6515C73.6402 55.3554 73.629 55.3525 73.6192 55.3469C73.6094 55.3413 73.6012 55.3332 73.5956 55.3234C73.5899 55.3136 73.587 55.3024 73.5872 55.2911C73.5873 55.2798 73.5904 55.2687 73.5963 55.2591L80.0458 44.8993C80.0513 44.8901 80.0591 44.8825 80.0684 44.8771C80.0777 44.8718 80.0882 44.8688 80.099 44.8687H82.939C82.9498 44.8688 82.9603 44.8718 82.9696 44.8771C82.9789 44.8825 82.9867 44.8901 82.9922 44.8993L89.4069 55.2591C89.4128 55.2687 89.4159 55.2798 89.4161 55.2911C89.4162 55.3024 89.4133 55.3136 89.4076 55.3234C89.402 55.3332 89.3938 55.3413 89.384 55.3469C89.3742 55.3525 89.363 55.3554 89.3517 55.3552H86.262C86.2513 55.355 86.2407 55.3521 86.2314 55.3467C86.2221 55.3414 86.2143 55.3337 86.2088 55.3245L84.6189 52.7259C84.6134 52.7167 84.6056 52.7091 84.5963 52.7037C84.587 52.6983 84.5765 52.6954 84.5657 52.6952ZM79.258 50.9437C79.2524 50.9542 79.2496 50.9659 79.2498 50.9777C79.25 50.9895 79.2532 51.0011 79.2592 51.0114C79.2651 51.0216 79.2736 51.0302 79.2838 51.0362C79.2939 51.0423 79.3055 51.0457 79.3173 51.046L83.4526 51.0685C83.4646 51.0685 83.4764 51.0654 83.4869 51.0595C83.4973 51.0536 83.5061 51.045 83.5123 51.0347C83.5185 51.0244 83.5219 51.0127 83.5222 51.0007C83.5225 50.9887 83.5197 50.9768 83.514 50.9662L81.4678 47.0396C81.4619 47.0285 81.4531 47.0192 81.4423 47.0127C81.4314 47.0062 81.4191 47.0028 81.4065 47.0028C81.3938 47.0028 81.3815 47.0062 81.3707 47.0127C81.3599 47.0192 81.351 47.0285 81.3451 47.0396L79.258 50.9437Z" fill="#154994"/>
<path d="M60.8978 59.4537C62.0873 59.4742 63.2755 59.4748 64.4622 59.4557C64.5509 59.4544 64.5843 59.5124 64.5625 59.6297C64.5554 59.665 64.5364 59.6967 64.5088 59.7195C64.4812 59.7423 64.4466 59.7546 64.4111 59.7545H60.7341C60.702 59.7544 60.6705 59.7622 60.6423 59.7772C60.6141 59.7922 60.5901 59.8139 60.5725 59.8404L60.0323 60.6466C60.0203 60.6643 60.0134 60.6849 60.0123 60.7062C60.0112 60.7275 60.016 60.7487 60.0262 60.7675C60.0363 60.7862 60.0514 60.8019 60.0698 60.8127C60.0882 60.8235 60.1092 60.829 60.1305 60.8287H63.8504C63.9159 60.8287 63.9466 60.8615 63.9425 60.9269C63.9371 61.017 63.8879 61.0647 63.7952 61.0702C62.4706 61.1452 60.9763 61.15 59.312 61.0845C59.2479 61.0818 59.2329 61.0538 59.267 61.0006L60.9081 58.3467C60.9367 58.3003 60.9783 58.2772 61.0329 58.2772L65.3441 58.2608C65.4042 58.2594 65.4342 58.2894 65.4342 58.3508C65.4342 58.3713 65.4342 58.3924 65.4342 58.4142C65.4355 58.4893 65.398 58.5268 65.3216 58.5268H61.5669C61.5038 58.5268 61.4419 58.5429 61.387 58.5738C61.3322 58.6046 61.2863 58.649 61.2539 58.7028L60.8508 59.3678C60.8167 59.4237 60.8323 59.4523 60.8978 59.4537Z" fill="black"/>
<path d="M72.8145 59.4581L76.3748 59.4499C76.4348 59.4499 76.4676 59.4792 76.473 59.5379C76.4921 59.7029 76.4232 59.7834 76.2664 59.7793C75.0605 59.7479 73.8533 59.7418 72.6447 59.7609C72.5778 59.7623 72.526 59.7909 72.4892 59.8468L71.9469 60.6837C71.9377 60.698 71.9325 60.7145 71.9319 60.7315C71.9313 60.7485 71.9353 60.7653 71.9434 60.7802C71.9516 60.7951 71.9637 60.8075 71.9783 60.8161C71.993 60.8247 72.0097 60.8291 72.0267 60.829H75.7732C75.7939 60.8289 75.8142 60.8346 75.8319 60.8455C75.8495 60.8564 75.8637 60.872 75.8728 60.8905C75.882 60.9091 75.8858 60.9298 75.8837 60.9504C75.8817 60.971 75.8739 60.9906 75.8612 61.007C75.7971 61.0889 75.6805 61.1291 75.5113 61.1277C73.4897 61.1223 72.0731 61.1066 71.2615 61.0807C71.1796 61.0779 71.1605 61.0418 71.2042 60.9722L72.8391 58.3327C72.8577 58.3021 72.884 58.2769 72.9155 58.2593C72.9471 58.2417 72.9827 58.2325 73.0191 58.2324L77.314 58.2365C77.4313 58.2365 77.46 58.2863 77.3999 58.3859L77.3713 58.4329C77.3345 58.4957 77.2799 58.5271 77.2076 58.5271H73.3833C73.3638 58.527 73.3446 58.5319 73.3274 58.5411C73.3103 58.5504 73.2957 58.5639 73.2851 58.5803L72.7654 59.3639C72.7231 59.4267 72.7395 59.4581 72.8145 59.4581Z" fill="black"/>
<path d="M81.6969 59.7997L81.967 59.9449C82.0502 59.9899 82.0741 60.0561 82.0386 60.1434L81.7092 60.968C81.6778 61.0458 81.6205 61.0846 81.5373 61.0846H81.1874C81.1693 61.0846 81.1515 61.08 81.1356 61.0712C81.1197 61.0625 81.1063 61.0499 81.0965 61.0347C81.0867 61.0194 81.0809 61.0019 81.0797 60.9839C81.0784 60.9658 81.0817 60.9477 81.0892 60.9312C81.1956 60.6918 81.4186 60.4544 81.4043 60.2068C81.392 59.994 81.2645 59.8815 81.0217 59.8692C80.5319 59.8433 79.5491 59.8426 78.0731 59.8672C78.0421 59.8678 78.0118 59.8764 77.9852 59.8922C77.9586 59.908 77.9368 59.9304 77.9217 59.9572C77.6312 60.479 77.267 61.3179 76.7656 61.101C76.7002 61.0724 76.6865 61.0274 76.7247 60.966L78.3535 58.3612C78.3705 58.3334 78.394 58.3103 78.4219 58.2939C78.4497 58.2775 78.4811 58.2683 78.5131 58.2671C79.487 58.218 82.0795 58.0502 82.8653 58.5167C82.9045 58.5398 82.9382 58.5713 82.9638 58.609C82.9894 58.6468 83.0064 58.6898 83.0134 58.7349C83.0205 58.7801 83.0174 58.8264 83.0045 58.8703C82.9917 58.9143 82.9693 58.955 82.9389 58.9894C82.6183 59.355 82.2118 59.5787 81.7194 59.6605C81.7037 59.6626 81.6892 59.6697 81.6779 59.6808C81.6666 59.6918 81.6591 59.7062 81.6566 59.7217C81.6541 59.7373 81.6566 59.7533 81.6639 59.7674C81.6711 59.7814 81.6827 59.7927 81.6969 59.7997ZM78.73 58.6599L78.2082 59.4805C78.1645 59.5487 78.183 59.5814 78.2634 59.5787C79.3643 59.548 81.6887 59.8713 82.3435 58.9239C82.3587 58.9021 82.3685 58.877 82.3722 58.8506C82.3758 58.8242 82.3731 58.7973 82.3644 58.772C82.3556 58.7467 82.341 58.7238 82.3217 58.705C82.3025 58.6863 82.2791 58.6722 82.2535 58.664C81.3286 58.3755 79.9433 58.5229 78.9755 58.5249C78.9267 58.5249 78.8786 58.5373 78.8357 58.5609C78.7927 58.5845 78.7564 58.6185 78.73 58.6599Z" fill="black"/>
<path d="M87.9827 60.6366C86.4051 61.2096 84.9339 61.4674 83.3502 60.7614C83.2906 60.7349 83.2416 60.6888 83.2111 60.6305C82.1164 58.5025 88.173 57.5633 89.235 58.6253C89.3441 58.7344 89.3946 58.8353 89.3864 58.9281C89.3795 59.0078 89.3428 59.0822 89.2837 59.1364C89.2246 59.1907 89.1473 59.2208 89.0674 59.2208C88.9874 59.2208 88.9105 59.1907 88.8521 59.1364C88.7937 59.0822 88.758 59.0078 88.7521 58.9281C88.7466 58.8708 88.6866 58.8053 88.572 58.7317C87.4814 58.0319 84.5104 58.5475 83.8106 59.8182C83.5958 60.2069 83.7861 60.6346 84.2035 60.7287C85.6876 61.0656 87.0886 60.8563 88.4063 60.1005C88.4265 60.0896 88.4425 60.0722 88.4517 60.0511C88.4608 60.03 88.4625 60.0064 88.4566 59.9842C88.4507 59.9619 88.4375 59.9424 88.4191 59.9286C88.4006 59.9148 88.3781 59.9076 88.3551 59.9082H86.5525C86.4788 59.9082 86.4467 59.8714 86.4563 59.7977L86.4665 59.7261C86.4733 59.677 86.5013 59.6524 86.5504 59.6524H89.0672C89.081 59.6525 89.0945 59.6563 89.1064 59.6634C89.1182 59.6704 89.128 59.6805 89.1346 59.6926C89.1413 59.7047 89.1446 59.7183 89.1443 59.7321C89.1439 59.7459 89.1399 59.7594 89.1327 59.7711L88.3019 61.0806C88.2784 61.1184 88.2431 61.1474 88.2015 61.1631C88.1599 61.1788 88.1143 61.1804 88.0717 61.1676C88.0291 61.1548 87.9919 61.1283 87.9658 61.0922C87.9398 61.0562 87.9263 61.0126 87.9275 60.9681C87.9288 60.9204 87.9745 60.8549 88.0646 60.7717C88.0793 60.7595 88.0892 60.7424 88.0924 60.7235C88.0956 60.7046 88.0919 60.6852 88.082 60.6688C88.0721 60.6524 88.0566 60.6401 88.0383 60.6342C88.0201 60.6283 88.0004 60.6292 87.9827 60.6366Z" fill="black"/>
<path d="M91.9664 59.8161L90.5485 58.3653C90.5374 58.3541 90.5299 58.34 90.5266 58.3247C90.5234 58.3093 90.5247 58.2933 90.5303 58.2786C90.5359 58.264 90.5456 58.2512 90.5583 58.2419C90.5709 58.2326 90.586 58.2272 90.6017 58.2262C91.4754 58.1771 91.9071 58.9792 92.4596 59.546C92.5128 59.6005 92.5728 59.6108 92.6396 59.5767C94.1838 58.7937 95.1885 58.3346 95.6536 58.1996C95.7996 58.1573 95.9053 58.1771 95.9708 58.2589C96.0185 58.3189 96.0076 58.3653 95.938 58.3981C94.9873 58.8373 94.0385 59.2718 93.0918 59.7015C92.4534 59.992 92.3798 60.344 92.0196 60.9189C91.8723 61.1549 91.6691 61.2074 91.4099 61.0765C91.3458 61.0451 91.3335 60.9994 91.3731 60.9394L91.9849 60.0104C92.0312 59.9409 92.0251 59.8761 91.9664 59.8161Z" fill="black"/>
<path d="M66.6614 58.7173C66.2918 59.3557 65.903 59.9907 65.4951 60.6223C65.3028 60.9231 65.2066 61.187 64.7646 61.1113C64.7494 61.1087 64.735 61.1023 64.7228 61.0928C64.7105 61.0833 64.7009 61.0709 64.6946 61.0567C64.6883 61.0425 64.6856 61.027 64.6868 61.0116C64.6879 60.9961 64.6929 60.9812 64.7012 60.9681L66.2542 58.482C66.3019 58.4061 66.3658 58.3418 66.4413 58.2936C66.5168 58.2454 66.602 58.2146 66.6907 58.2034C66.7795 58.1923 66.8695 58.201 66.9544 58.229C67.0392 58.257 67.1167 58.3036 67.1812 58.3654L69.5629 60.6407C69.6079 60.6844 69.6468 60.6796 69.6795 60.6264L71.0504 58.3838C71.0968 58.3088 71.1637 58.2713 71.251 58.2713H71.5538C71.6643 58.2713 71.6902 58.3183 71.6316 58.4124L70.0887 60.8863C70.0433 60.9594 69.982 61.0215 69.9095 61.068C69.8369 61.1145 69.755 61.1442 69.6695 61.155C69.584 61.1658 69.4972 61.1573 69.4154 61.1303C69.3336 61.1033 69.2589 61.0584 69.1966 60.9988L66.7924 58.6989C66.7832 58.6901 66.7721 58.6834 66.76 58.6795C66.7479 58.6755 66.735 58.6744 66.7224 58.6762C66.7098 58.6779 66.6977 58.6826 66.6872 58.6897C66.6766 58.6968 66.6678 58.7063 66.6614 58.7173Z" fill="black"/>
<path d="M25.6484 68.909C35.6173 69.2261 45.9545 65.3589 55.1602 61.1868C55.1902 61.1731 55.2168 61.1697 55.24 61.1765C55.2959 61.1943 55.2939 61.2195 55.2339 61.2522C46.9428 65.7354 37.064 69.5024 27.5943 70.0753C20.6435 70.4968 12.9479 68.1621 13.7664 59.4803C13.7746 59.3902 13.8244 59.3452 13.9157 59.3452H17.8096C17.9296 59.3452 17.9712 59.4018 17.9344 59.515C17.0607 62.2487 17.5047 65.6822 20.2138 67.3211C21.8617 68.3169 23.6732 68.8462 25.6484 68.909Z" fill="#ADB7C0"/>
</svg>
