<svg width="100" height="100" viewBox="0 0 100 100" fill="none" xmlns="http://www.w3.org/2000/svg">
<rect width="100" height="100" fill="white"/>
<mask id="mask0_71_912" style="mask-type:alpha" maskUnits="userSpaceOnUse" x="18" y="13" width="72" height="58">
<path fill-rule="evenodd" clip-rule="evenodd" d="M54.2488 13H60.515C71.7763 13.8738 82.2501 18.205 89.5851 26.7513C89.6001 26.766 89.6089 26.786 89.6097 26.8071C89.6105 26.8281 89.6031 26.8487 89.5892 26.8646C89.5753 26.8804 89.5558 26.8903 89.5348 26.8922C89.5138 26.8942 89.4929 26.888 89.4763 26.875C74.9226 17.44 53.8513 17.29 39.3163 26.8563C39.138 26.1792 38.8798 25.5947 38.6336 25.0374C38.0821 23.789 37.5909 22.6773 38.195 20.9688C38.2199 20.8962 38.2231 20.818 38.2041 20.7438C38.1852 20.6695 38.145 20.6023 38.0885 20.5506C38.0319 20.4988 37.9615 20.4647 37.8858 20.4524L37.8716 20.4503L37.8858 20.4524C37.9615 20.4647 38.0319 20.4988 38.0884 20.5506C38.145 20.6024 38.1852 20.6695 38.2041 20.7438C38.223 20.8181 38.2199 20.8963 38.195 20.9688C37.5909 22.6773 38.082 23.789 38.6336 25.0374C38.8798 25.5947 39.138 26.1792 39.3162 26.8563C37.0662 28.5038 35.2512 30.545 33.8712 32.98C32.4887 34.205 31.4275 35.6788 30.6875 37.4013C27.05 45.85 28.7037 55.57 32.0112 63.9138C32.0286 63.9535 32.04 63.9965 32.045 64.0413C32.0778 64.3397 32.0086 64.5561 31.8373 64.6905C32.0086 64.5561 32.0778 64.3397 32.045 64.0413C32.0401 63.9965 32.0287 63.9535 32.0113 63.9138C28.7038 55.57 27.05 45.85 30.6875 37.4013C31.4275 35.6788 32.4888 34.205 33.8713 32.98C32.1688 37.27 32.1113 41.6163 33.6988 46.0188C35.1913 50.155 39.3013 52.4913 43.3775 53.26C43.9784 53.3734 44.6286 53.4483 45.289 53.5244C46.5287 53.6671 47.8042 53.814 48.8563 54.2275C59.2176 58.3188 53.9338 73.78 43.07 70.525C38.88 69.2675 34.9963 67.3738 31.4188 64.8438C31.4188 64.8438 31.4188 64.8438 31.4187 64.8438C18.5225 56.2525 14.375 39.9588 24.41 27.2913C24.6556 27.453 24.8739 27.5356 25.065 27.5391C24.8739 27.5356 24.6556 27.453 24.41 27.2913C31.46 18.2838 42.8675 13.7875 54.2488 13Z" fill="#0588BD"/>
</mask>
<g mask="url(#mask0_71_912)">
<path fill-rule="evenodd" clip-rule="evenodd" d="M54.2488 13H60.515C71.7763 13.8738 82.2501 18.205 89.5851 26.7513C89.6001 26.766 89.6089 26.786 89.6097 26.8071C89.6105 26.8281 89.6031 26.8487 89.5892 26.8646C89.5753 26.8804 89.5558 26.8903 89.5348 26.8922C89.5138 26.8942 89.4929 26.888 89.4763 26.875C74.9226 17.44 53.8513 17.29 39.3163 26.8563C39.138 26.1792 38.8798 25.5947 38.6336 25.0374C38.0821 23.789 37.5909 22.6773 38.195 20.9688C38.2199 20.8962 38.2231 20.818 38.2041 20.7438C38.1852 20.6695 38.145 20.6023 38.0885 20.5506C38.0319 20.4988 37.9615 20.4647 37.8858 20.4524L37.8716 20.4503L37.8858 20.4524C37.9615 20.4647 38.0319 20.4988 38.0884 20.5506C38.145 20.6024 38.1852 20.6695 38.2041 20.7438C38.223 20.8181 38.2199 20.8963 38.195 20.9688C37.5909 22.6773 38.082 23.789 38.6336 25.0374C38.8798 25.5947 39.138 26.1792 39.3162 26.8563C37.0662 28.5038 35.2512 30.545 33.8712 32.98C32.4887 34.205 31.4275 35.6788 30.6875 37.4013C27.05 45.85 28.7037 55.57 32.0112 63.9138C32.0286 63.9535 32.04 63.9965 32.045 64.0413C32.0778 64.3397 32.0086 64.5561 31.8373 64.6905C32.0086 64.5561 32.0778 64.3397 32.045 64.0413C32.0401 63.9965 32.0287 63.9535 32.0113 63.9138C28.7038 55.57 27.05 45.85 30.6875 37.4013C31.4275 35.6788 32.4888 34.205 33.8713 32.98C32.1688 37.27 32.1113 41.6163 33.6988 46.0188C35.1913 50.155 39.3013 52.4913 43.3775 53.26C43.9784 53.3734 44.6286 53.4483 45.289 53.5244C46.5287 53.6671 47.8042 53.814 48.8563 54.2275C59.2176 58.3188 53.9338 73.78 43.07 70.525C38.88 69.2675 34.9963 67.3738 31.4188 64.8438C31.4188 64.8438 31.4188 64.8438 31.4187 64.8438C18.5225 56.2525 14.375 39.9588 24.41 27.2913C24.6556 27.453 24.8739 27.5356 25.065 27.5391C24.8739 27.5356 24.6556 27.453 24.41 27.2913C31.46 18.2838 42.8675 13.7875 54.2488 13Z" fill="#0588BD"/>
<ellipse cx="53.1875" cy="47.6875" rx="24.9375" ry="24.9375" fill="url(#paint0_linear_71_912)"/>
</g>
<mask id="mask1_71_912" style="mask-type:alpha" maskUnits="userSpaceOnUse" x="11" y="28" width="77" height="59">
<path fill-rule="evenodd" clip-rule="evenodd" d="M87.0763 53.2377C84.7363 41.2377 74.7163 32.6989 63.3275 29.4514C51.77 26.1514 47.2663 41.8827 57.2863 45.6139C57.9088 45.8464 59.0163 46.0477 60.6088 46.2177C67.1225 46.9227 72.4813 50.1552 73.3513 57.2539C73.7488 60.5089 73.5138 63.3939 72.6463 65.9089C69.9201 72.5126 63.3163 75.7451 56.5813 77.5189C43.3325 81.0026 28.07 78.7001 17.6413 69.4526C15.0788 67.1776 12.865 64.2839 11 60.7714V61.5514C14.4688 77.6276 31.295 85.9751 46.3438 86.8751H51.9425C64.7338 85.9226 78.4213 80.1026 84.6126 68.1551C87.0701 63.4101 87.8913 58.4376 87.0763 53.2377Z" fill="#C62227"/>
</mask>
<g mask="url(#mask1_71_912)">
<path fill-rule="evenodd" clip-rule="evenodd" d="M87.0763 53.2377C84.7363 41.2377 74.7163 32.6989 63.3275 29.4514C51.77 26.1514 47.2663 41.8827 57.2863 45.6139C57.9088 45.8464 59.0163 46.0477 60.6088 46.2177C67.1225 46.9227 72.4813 50.1552 73.3513 57.2539C73.7488 60.5089 73.5138 63.3939 72.6463 65.9089C69.9201 72.5126 63.3163 75.7451 56.5813 77.5189C43.3325 81.0026 28.07 78.7001 17.6413 69.4526C15.0788 67.1776 12.865 64.2839 11 60.7714V61.5514C14.4688 77.6276 31.295 85.9751 46.3438 86.8751H51.9425C64.7338 85.9226 78.4213 80.1026 84.6126 68.1551C87.0701 63.4101 87.8913 58.4376 87.0763 53.2377Z" fill="#C62227"/>
<ellipse cx="52.4375" cy="51.8125" rx="24.9375" ry="24.9375" fill="url(#paint1_linear_71_912)"/>
</g>
<defs>
<linearGradient id="paint0_linear_71_912" x1="54.3125" y1="32.5" x2="53.1875" y2="72.625" gradientUnits="userSpaceOnUse">
<stop stop-color="#0D729A"/>
<stop offset="0.857334" stop-color="#0D729A" stop-opacity="0.30745"/>
<stop offset="1" stop-color="#0D729A" stop-opacity="0"/>
</linearGradient>
<linearGradient id="paint1_linear_71_912" x1="66.6875" y1="29.6875" x2="53.9375" y2="61.1875" gradientUnits="userSpaceOnUse">
<stop stop-color="#A3161B"/>
<stop offset="1" stop-color="#A3161B" stop-opacity="0"/>
</linearGradient>
</defs>
</svg>
