<svg width="100" height="100" viewBox="0 0 100 100" fill="none" xmlns="http://www.w3.org/2000/svg">
<rect width="100" height="100" fill="#A28548"/>
<path d="M68.0277 63.2491C64.163 67.9449 59.2872 69.6752 53.4001 68.4401C52.4028 68.2323 51.5359 68.1261 50.7994 68.1215C44.8547 68.0707 38.9146 68.0603 32.979 68.0903C32.8567 68.0903 32.7828 68.0303 32.7574 67.9103L29.1282 51.2707C29.1222 51.2425 29.108 51.2167 29.0876 51.1964C29.0671 51.176 29.0412 51.1621 29.0129 51.1562C28.9847 51.1504 28.9553 51.1528 28.9285 51.1633C28.9016 51.1738 28.8784 51.1919 28.8616 51.2153L17.4407 67.9033C17.4021 67.9578 17.3512 68.0023 17.2921 68.033C17.2331 68.0637 17.1677 68.0798 17.1013 68.08H4.12217C4.09994 68.0801 4.07809 68.0742 4.05901 68.0628C4.03993 68.0514 4.02436 68.0349 4.01399 68.0153C4.00362 67.9956 3.99886 67.9735 4.00023 67.9513C4.0016 67.9291 4.00904 67.9077 4.02174 67.8895L12.042 56.1639C12.0951 56.0854 12.1701 56.0462 12.2671 56.0462H18.5004C18.556 56.046 18.6108 56.0324 18.6602 56.0065C18.7096 55.9806 18.7522 55.9431 18.7843 55.8973L22.0949 51.0837C22.2011 50.9291 22.1607 50.8517 21.9737 50.8517H15.9032C15.8832 50.8522 15.8635 50.8471 15.8463 50.8371C15.8291 50.827 15.815 50.8123 15.8057 50.7947C15.7963 50.7771 15.7921 50.7572 15.7934 50.7373C15.7947 50.7174 15.8015 50.6983 15.8131 50.682L28.9204 31.5249C28.9897 31.4233 29.0867 31.3726 29.2113 31.3726H35.7078C35.8325 31.3726 35.9087 31.4337 35.9364 31.5561L42.5645 62.2587C42.5922 62.388 42.6719 62.4526 42.8035 62.4526H45.0752C45.2622 62.4526 45.313 62.3695 45.2275 62.2033C42.0485 56.0392 43.593 49.096 46.824 43.2297C51.215 35.2649 59.2906 30.5103 68.4502 31.0401C76.6401 31.518 80.5359 37.1626 80.387 45.0755C80.3852 45.1386 80.3589 45.1985 80.3136 45.2424C80.2683 45.2864 80.2077 45.311 80.1446 45.311H69.7453C69.7315 45.311 69.7179 45.3082 69.7052 45.3029C69.6925 45.2976 69.6811 45.2898 69.6717 45.2801C69.6623 45.2703 69.6551 45.2588 69.6504 45.2463C69.6458 45.2337 69.6439 45.2204 69.6449 45.2071C69.8977 40.4628 66.4486 39.0603 62.5978 40.3624C58.4976 41.7441 55.935 46.6338 54.858 50.5747C54.8072 50.7594 54.686 50.8517 54.4944 50.8517H50.2696C50.1449 50.8517 50.0618 50.9106 50.0203 51.0283C49.4454 52.649 49.4477 54.2639 50.0272 55.873C50.0457 55.9237 50.0795 55.9675 50.1241 55.9985C50.1687 56.0294 50.2219 56.0461 50.2765 56.0462H54.6018C54.7241 56.0462 54.7945 56.1073 54.813 56.2297C55.6857 62.089 64.8244 60.6935 66.8364 56.3994C66.8918 56.2793 66.8537 56.2193 66.7221 56.2193H61.8567C61.6905 56.2193 61.6258 56.1385 61.6628 55.9769L62.8644 50.9244C62.8898 50.8182 62.9579 50.7651 63.0687 50.7651H78.8356C79.0711 50.7651 79.1611 50.8794 79.1057 51.108L76.505 62.2137C76.4681 62.373 76.5316 62.4526 76.6955 62.4526H79.0641C79.2188 62.4526 79.3146 62.3765 79.3516 62.2241L86.4749 31.5976C86.5095 31.4476 86.603 31.3726 86.7554 31.3726H95.5271C95.5562 31.3723 95.5849 31.3787 95.6112 31.3913C95.6375 31.4038 95.6606 31.4223 95.6789 31.4452C95.6972 31.4682 95.7102 31.495 95.7169 31.5238C95.7235 31.5526 95.7238 31.5826 95.7175 31.6115L87.2921 67.9691C87.2844 68.0009 87.2661 68.0291 87.2404 68.0492C87.2146 68.0693 87.1828 68.0801 87.1502 68.08H67.207C67.0638 68.08 67.0096 68.0107 67.0442 67.8722L68.1593 63.3149C68.2124 63.1002 68.1685 63.0783 68.0277 63.2491Z" fill="white"/>
</svg>
