<svg width="100" height="100" viewBox="0 0 100 100" fill="none" xmlns="http://www.w3.org/2000/svg">
<rect width="100" height="100" fill="#0D4D98"/>
<path d="M29.6315 11.0244C29.6263 11.5215 29.9721 11.9281 30.4039 11.9326C30.8357 11.9371 31.19 11.5378 31.1952 11.0408C31.2004 10.5438 30.8546 10.1372 30.4228 10.1327C29.991 10.1282 29.6367 10.5274 29.6315 11.0244Z" fill="#F7A026"/>
<path fill-rule="evenodd" clip-rule="evenodd" d="M58.5441 10.768V10.768C50.1178 10.5261 43.3003 21.7593 42.929 29.128C42.6759 33.9936 44.2678 39.6074 47.9465 43.1005C48.119 43.258 48.2297 43.2243 48.2784 42.9993C49.9884 34.9668 53.4647 27.5249 58.9603 21.3824C60.9628 19.5149 62.8434 17.6211 64.6022 15.7011C67.3134 12.7368 60.4228 10.9255 58.5441 10.768Z" fill="#A3CD67"/>
<path fill-rule="evenodd" clip-rule="evenodd" d="M58.5441 10.768V10.768C50.1178 10.5261 43.3003 21.7593 42.929 29.128C42.6759 33.9936 44.2678 39.6074 47.9465 43.1005C48.119 43.258 48.2297 43.2243 48.2784 42.9993C49.9884 34.9668 53.4647 27.5249 58.9603 21.3824C60.9628 19.5149 62.8434 17.6211 64.6022 15.7011C67.3134 12.7368 60.4228 10.9255 58.5441 10.768Z" fill="url(#paint0_linear_71_918)"/>
<path d="M28.4863 12.6208C28.3214 11.9808 28.2208 11.3261 28.1677 10.6673L28.0451 9.14817C28.0414 9.13691 28.0376 9.12743 28.0338 9.12002C27.9926 9.07497 27.9513 9.04311 27.9101 9.0243C27.8239 8.97568 27.7825 8.99999 27.7864 9.09749L27.8538 11.685C28.4688 15.8887 29.7419 19.9556 31.6732 23.8856C35.7531 32.1843 40.4726 39.9713 45.8313 47.2463C45.8953 47.3324 45.9854 47.3961 46.0882 47.4279C46.1911 47.4594 46.3012 47.4575 46.4023 47.4221C46.5033 47.3868 46.5899 47.3199 46.6491 47.2315C46.6848 47.1783 46.7094 47.1191 46.7222 47.0572C46.7305 47.016 46.7337 46.9737 46.7314 46.9313C46.7145 46.47 46.5569 45.8737 46.2757 45.48C40.1669 36.9788 35.0369 28.3107 30.8856 19.4756C29.9506 17.4851 29.1508 15.2002 28.4863 12.6208Z" fill="#F7A026"/>
<path d="M25.812 14.2949C26.278 14.2949 26.6558 13.9172 26.6558 13.4512C26.6558 12.9852 26.278 12.6074 25.812 12.6074C25.346 12.6074 24.9683 12.9852 24.9683 13.4512C24.9683 13.9172 25.346 14.2949 25.812 14.2949Z" fill="#F7A026"/>
<path d="M30.684 14.088C30.7439 14.5626 31.1348 14.9042 31.5571 14.8508C31.9793 14.7975 32.273 14.3695 32.2131 13.8948C32.1531 13.4202 31.7622 13.0786 31.3399 13.132C30.9177 13.1853 30.624 13.6133 30.684 14.088Z" fill="#F7A026"/>
<path d="M26.7908 17.2481C27.2599 17.2481 27.6402 16.8678 27.6402 16.3987C27.6402 15.9296 27.2599 15.5493 26.7908 15.5493C26.3217 15.5493 25.9414 15.9296 25.9414 16.3987C25.9414 16.8678 26.3217 17.2481 26.7908 17.2481Z" fill="#F7A026"/>
<path d="M32.2808 17.6194C32.7561 17.6194 33.1414 17.2341 33.1414 16.7588C33.1414 16.2835 32.7561 15.8982 32.2808 15.8982C31.8055 15.8982 31.4202 16.2835 31.4202 16.7588C31.4202 17.2341 31.8055 17.6194 32.2808 17.6194Z" fill="#F7A026"/>
<path d="M26.8251 19.0207C26.7386 19.5164 27.0133 19.9785 27.4386 20.0528C27.864 20.127 28.279 19.7853 28.3655 19.2895C28.4521 18.7938 28.1774 18.3317 27.752 18.2574C27.3266 18.1832 26.9116 18.5249 26.8251 19.0207Z" fill="#F7A026"/>
<path d="M57.6665 34.6125C63.3815 29.6438 70.1052 27.3412 77.8377 27.7049C80.8227 27.6037 83.3145 28.1381 85.3133 29.3081C89.6442 31.8331 89.8629 37.5381 88.3417 41.7267C87.8231 43.1545 86.6925 44.3922 85.1813 44.5465C84.0475 44.6623 82.8942 44.4333 81.5334 44.2144L78.9987 43.7657C77.0984 43.4293 75.1763 43.2311 73.2474 43.1727L71.9807 43.1343H69.9176L64.3489 43.258L63.3983 43.3369C59.0221 43.7494 55.2534 45.4124 52.092 48.3262C51.9158 48.4875 51.7995 48.4499 51.7434 48.2137C50.4721 42.8643 53.7964 37.9818 57.6665 34.6125Z" fill="url(#paint1_linear_71_918)"/>
<path d="M37.9396 41.3513C36.5408 40.1025 34.8383 39.1201 32.8321 38.4038C29.7796 37.1174 26.9277 36.9187 24.2765 37.8075C19.0339 39.568 12.6046 44.0175 10.6246 49.0237C9.00462 53.1131 10.6527 58.6593 14.219 61.7699C15.3702 62.7749 16.4277 62.67 17.3915 61.455C18.1944 60.4411 18.9798 59.3815 19.7718 58.3131C23.0845 53.8433 26.5119 49.2192 31.8159 47.1453C32.6789 46.8079 33.6027 46.6667 34.5276 46.6107L35.6605 46.5421C36.8822 46.4681 38.1053 46.6 39.3271 46.6724C40.1919 46.7237 41.0344 46.6806 41.8546 46.5431C41.9021 46.5356 41.9473 46.517 41.9863 46.489C42.0254 46.4609 42.0574 46.4242 42.0798 46.3815C42.1022 46.3389 42.1144 46.2917 42.1154 46.2436C42.1162 46.1955 42.1059 46.1478 42.0852 46.1044C41.2152 44.2931 39.8334 42.7088 37.9396 41.3513Z" fill="#A3CD67"/>
<path d="M37.9396 41.3513C36.5408 40.1025 34.8383 39.1201 32.8321 38.4038C29.7796 37.1174 26.9277 36.9187 24.2765 37.8075C19.0339 39.568 12.6046 44.0175 10.6246 49.0237C9.00462 53.1131 10.6527 58.6593 14.219 61.7699C15.3702 62.7749 16.4277 62.67 17.3915 61.455C18.1944 60.4411 18.9798 59.3815 19.7718 58.3131C23.0845 53.8433 26.5119 49.2192 31.8159 47.1453C32.6789 46.8079 33.6027 46.6667 34.5276 46.6107L35.6605 46.5421C36.8822 46.4681 38.1053 46.6 39.3271 46.6724C40.1919 46.7237 41.0344 46.6806 41.8546 46.5431C41.9021 46.5356 41.9473 46.517 41.9863 46.489C42.0254 46.4609 42.0574 46.4242 42.0798 46.3815C42.1022 46.3389 42.1144 46.2917 42.1154 46.2436C42.1162 46.1955 42.1059 46.1478 42.0852 46.1044C41.2152 44.2931 39.8334 42.7088 37.9396 41.3513Z" fill="url(#paint2_linear_71_918)"/>
<path d="M42.7359 55.9754C40.82 59.0421 39.2744 62.3581 38.6879 65.9262C38.417 67.5744 38.2183 69.2566 38.0917 70.9726C37.8152 74.7268 38.136 78.8806 38.4519 82.9686C38.5344 84.0379 38.6167 85.1026 38.6878 86.1545C38.9016 89.3046 37.8441 91.3914 34.4016 90.7839C28.979 89.8314 25.7204 86.5502 24.6253 80.9401C22.5497 70.3089 29.1872 56.7019 39.3066 52.112C41.0316 51.182 42.9479 51.0114 45.0554 51.6002C45.2916 51.6676 45.3442 51.8045 45.2129 52.0108L42.7359 55.9754Z" fill="url(#paint3_linear_71_918)"/>
<path d="M65.4503 74.0082L65.442 74.0003L65.4413 73.9996C63.2631 71.9046 61.0991 69.8233 59.5509 67.1926C57.9881 64.5446 56.8139 61.3171 55.6923 58.2339C55.3605 57.3219 55.0333 56.4226 54.702 55.5545C54.1283 54.0582 50.7871 48.8945 49.0827 52.2526C46.0621 58.2151 47.097 66.5176 48.8521 72.6657C50.8601 79.7195 56.952 89.7488 65.6595 88.7139C68.8791 88.1004 75.3513 84.3307 73.0432 80.9197C71.9676 79.3301 70.1139 78.4418 68.713 77.1297L67.1839 75.6975C66.6127 75.1264 66.0311 74.5669 65.4503 74.0082Z" fill="#A3CD67"/>
<path d="M65.4503 74.0082L65.442 74.0003L65.4413 73.9996C63.2631 71.9046 61.0991 69.8233 59.5509 67.1926C57.9881 64.5446 56.8139 61.3171 55.6923 58.2339C55.3605 57.3219 55.0333 56.4226 54.702 55.5545C54.1283 54.0582 50.7871 48.8945 49.0827 52.2526C46.0621 58.2151 47.097 66.5176 48.8521 72.6657C50.8601 79.7195 56.952 89.7488 65.6595 88.7139C68.8791 88.1004 75.3513 84.3307 73.0432 80.9197C71.9676 79.3301 70.1139 78.4418 68.713 77.1297L67.1839 75.6975C66.6127 75.1264 66.0311 74.5669 65.4503 74.0082Z" fill="url(#paint4_linear_71_918)"/>
<defs>
<linearGradient id="paint0_linear_71_918" x1="49.0166" y1="27.2322" x2="68.442" y2="26.5981" gradientUnits="userSpaceOnUse">
<stop offset="0.325951" stop-color="#A3CD67"/>
<stop offset="1" stop-color="#FCFFF9"/>
</linearGradient>
<linearGradient id="paint1_linear_71_918" x1="61.8008" y1="38.2068" x2="94.4259" y2="35.3943" gradientUnits="userSpaceOnUse">
<stop offset="0.325951" stop-color="#A3CD67"/>
<stop offset="1" stop-color="#FCFFF9"/>
</linearGradient>
<linearGradient id="paint2_linear_71_918" x1="18.7954" y1="50.0526" x2="46.6699" y2="48.3672" gradientUnits="userSpaceOnUse">
<stop offset="0.325951" stop-color="#A3CD67"/>
<stop offset="1" stop-color="#FCFFF9"/>
</linearGradient>
<linearGradient id="paint3_linear_71_918" x1="37.6134" y1="73.3633" x2="56.8036" y2="64.7255" gradientUnits="userSpaceOnUse">
<stop offset="0.325951" stop-color="#A3CD67"/>
<stop offset="1" stop-color="#FCFFF9"/>
</linearGradient>
<linearGradient id="paint4_linear_71_918" x1="54.3849" y1="70.2549" x2="77.3276" y2="69.4929" gradientUnits="userSpaceOnUse">
<stop offset="0.325951" stop-color="#A3CD67"/>
<stop offset="1" stop-color="#FCFFF9"/>
</linearGradient>
</defs>
</svg>
