<svg width="100" height="100" viewBox="0 0 100 100" fill="none" xmlns="http://www.w3.org/2000/svg">
<rect width="100" height="100" fill="#0A7123"/>
<path fill-rule="evenodd" clip-rule="evenodd" d="M37.5799 33.2654L45.1066 38.7612C46.254 39.5873 47.3282 40.3858 48.3383 41.1364C50.8464 43.0001 52.9586 44.5696 54.8086 45.5384C54.8493 45.5598 54.8943 45.5712 54.9397 45.5717C54.9851 45.5723 55.0297 45.5619 55.0696 45.5414C59.4616 43.2614 62.6476 39.0614 64.3696 34.4474C64.7383 33.4598 64.9961 32.3143 65.258 31.1501C65.4201 30.4294 65.5839 29.7015 65.7766 28.9994C65.7911 28.9453 65.7883 28.8879 65.7684 28.8355C65.7485 28.7831 65.7126 28.7383 65.6657 28.7074C65.6189 28.6765 65.5636 28.6612 65.5076 28.6635C65.4515 28.6658 65.3977 28.6858 65.3536 28.7205C61.3136 31.9444 57.1986 35.1424 53.0085 38.3144L52.9509 38.3581C52.1949 38.9309 51.6998 39.3061 50.7165 38.7764C47.4165 36.9974 43.6095 30.6254 43.7715 26.8635C43.7746 26.7856 43.7973 26.7098 43.8373 26.643C43.8774 26.5762 43.9336 26.5205 44.0008 26.4811C44.068 26.4416 44.144 26.4197 44.2219 26.4174C44.2998 26.415 44.377 26.4322 44.4465 26.4675C47.3601 27.9301 50.071 30.0754 52.7017 32.1573C53.4434 32.7443 54.1789 33.3263 54.9106 33.8864C55.0026 33.9564 55.0856 33.9464 55.1596 33.8564C57.5996 30.8804 59.1196 27.4784 59.7196 23.6505C59.8036 23.1205 59.6416 23.0305 59.2336 23.3805C57.1996 25.1305 55.1056 26.8015 52.9515 28.3935C51.5595 29.4225 50.9415 28.5764 50.1945 27.3825C49.3105 25.9745 48.9995 24.4035 49.2615 22.6695C49.2748 22.58 49.309 22.4949 49.3615 22.4213C49.4139 22.3476 49.483 22.2874 49.5632 22.2455C49.6434 22.2037 49.7323 22.1814 49.8228 22.1805C49.9132 22.1796 50.0026 22.2002 50.0835 22.2405C51.3195 22.8525 52.5195 23.5745 53.6835 24.4065C53.7775 24.4745 53.8756 24.5225 53.9776 24.5505C54.1276 24.5925 54.2366 24.6155 54.3046 24.6195C54.3653 24.6244 54.4264 24.6171 54.4842 24.598C54.542 24.5789 54.5953 24.5484 54.641 24.5084C54.6866 24.4683 54.7237 24.4195 54.7499 24.3649C54.7761 24.3103 54.791 24.2509 54.7936 24.1905C54.9076 21.6125 53.9376 19.5655 51.8835 18.0495C51.8115 17.9975 51.7345 17.9865 51.6525 18.0165C49.2725 18.9425 47.0155 20.0865 44.8815 21.4485C36.9015 26.4735 29.8756 34.5645 25.9876 43.1445C25.8976 43.3985 25.7813 43.6727 25.6606 43.958C25.3022 44.8048 24.9025 45.7491 25.0214 46.5524C25.1154 47.1804 25.3084 47.8194 25.6004 48.4694C27.9374 56.1974 33.2656 63.4725 39.4907 68.5185C40.6807 69.4825 41.8767 70.4365 43.0787 71.3805C43.2587 71.5225 43.3407 71.7665 43.3247 72.1125L43.2585 80.5394C43.2575 80.5756 43.2703 80.6109 43.2942 80.6381C43.3181 80.6654 43.3514 80.6826 43.3875 80.6864C48.4535 81.3204 53.5385 81.5544 58.6426 81.3884C58.7246 81.3864 58.7656 81.3444 58.7656 81.2624V72.6314C58.7656 72.4257 58.8076 72.2222 58.8892 72.0334C58.9707 71.8446 59.0899 71.6744 59.2396 71.5334C60.2701 70.5592 61.272 69.6785 62.2698 68.8012C64.2434 67.066 66.2016 65.3444 68.3356 62.9414C71.3386 59.5605 73.5735 55.8796 74.8366 51.5178C75.1946 50.7618 75.3658 50.0515 75.3498 49.3875C75.3483 49.3453 75.3353 49.3044 75.3122 49.2691C75.2891 49.2339 75.2568 49.2056 75.2188 49.1873C75.1808 49.1691 75.1385 49.1616 75.0965 49.1657C75.0546 49.1698 75.0145 49.1853 74.9808 49.2105C72.209 51.2999 69.3866 53.288 66.5834 55.2626C64.8629 56.4746 63.1496 57.6814 61.4597 58.9034C58.4017 61.1154 55.3226 63.2964 52.2226 65.4464C51.7426 65.7764 51.3046 65.8704 50.9086 65.7284C41.6356 62.4074 33.8085 54.8025 31.1595 45.2745C31.0875 45.0185 31.0605 44.5675 31.0785 43.9215C31.1025 43.0575 31.7265 42.7275 32.4435 43.1715C35.5515 45.1115 39.1035 47.5934 43.0995 50.6174C46.6075 53.3114 50.1435 55.9884 53.7076 58.6484C54.6296 59.3384 55.5846 59.2924 56.5726 58.5104C63.8626 52.7504 70.6096 47.2784 71.6987 37.2494C71.7066 37.1831 71.6914 37.1162 71.6557 37.06C71.6199 37.0038 71.5657 36.9617 71.5022 36.9406C71.4386 36.9195 71.3696 36.9208 71.3065 36.9443C71.2434 36.9677 71.1902 37.0119 71.1557 37.0694C70.6159 37.9763 69.702 38.5251 68.9232 38.9928C68.6328 39.1671 68.3611 39.3302 68.1346 39.4964C67.1653 40.2094 66.1877 40.9365 65.2042 41.6679L65.2025 41.6692C60.65 45.0549 55.9709 48.5347 51.3975 51.1544C51.3233 51.1974 51.2373 51.2163 51.1515 51.2084L51.0573 51.2001C50.7468 51.1733 50.3888 51.1423 50.1195 50.9954C44.9015 48.1694 40.8275 44.1674 37.8975 38.9894C37.0665 37.5254 36.1395 35.2124 36.2715 33.5054C36.2752 33.46 36.2914 33.4164 36.3183 33.3794C36.3453 33.3424 36.382 33.3133 36.4245 33.2954C36.8045 33.1354 37.1899 33.1254 37.5799 33.2654ZM73.7357 51.4065C73.7707 51.4299 73.8049 51.4521 73.8384 51.4729L71.5052 52.7827L71.5062 52.782C71.7917 52.5906 72.0731 52.402 72.3437 52.2134C72.4763 52.1217 72.5849 52.0018 72.6956 51.8796C72.8927 51.6618 73.0963 51.437 73.4537 51.3524C73.4919 51.3442 73.529 51.3415 73.565 51.3445C73.625 51.3495 73.682 51.3702 73.7357 51.4065ZM65.7555 57.2182C65.9989 57.0874 66.2451 56.9551 66.4937 56.8184C66.2456 56.9548 65.9998 57.0868 65.7568 57.2174L65.7555 57.2182Z" fill="white"/>
</svg>
