<svg width="100" height="100" viewBox="0 0 100 100" fill="none" xmlns="http://www.w3.org/2000/svg">
<rect width="100" height="100" fill="#595C62"/>
<path d="M22.9131 58V40.8203H26.3819V58H22.9131ZM30.0934 58V40.8203H33.4684L40.4997 52.293V40.8203H43.7223V58H40.2419L33.3161 46.7969V58H30.0934ZM46.8831 52.4102L50.2581 52.082C50.4612 53.2148 50.8714 54.0469 51.4886 54.5781C52.1136 55.1094 52.9534 55.375 54.0081 55.375C55.1253 55.375 55.9652 55.1406 56.5277 54.6719C57.098 54.1953 57.3831 53.6406 57.3831 53.0078C57.3831 52.6016 57.262 52.2578 57.0198 51.9766C56.7855 51.6875 56.3714 51.4375 55.7777 51.2266C55.3714 51.0859 54.4456 50.8359 53.0003 50.4766C51.1409 50.0156 49.8362 49.4492 49.0862 48.7773C48.0316 47.832 47.5042 46.6797 47.5042 45.3203C47.5042 44.4453 47.7503 43.6289 48.2425 42.8711C48.7425 42.1055 49.4573 41.5234 50.387 41.125C51.3245 40.7266 52.4534 40.5273 53.7737 40.5273C55.93 40.5273 57.5511 41 58.637 41.9453C59.7308 42.8906 60.305 44.1523 60.3597 45.7305L56.8909 45.8828C56.7425 45 56.4222 44.3672 55.93 43.9844C55.4456 43.5938 54.7152 43.3984 53.7386 43.3984C52.7308 43.3984 51.9417 43.6055 51.3714 44.0195C51.0042 44.2852 50.8206 44.6406 50.8206 45.0859C50.8206 45.4922 50.9925 45.8398 51.3362 46.1289C51.7737 46.4961 52.8362 46.8789 54.5237 47.2773C56.2112 47.6758 57.4573 48.0898 58.262 48.5195C59.0745 48.9414 59.7073 49.5234 60.1605 50.2656C60.6214 51 60.8519 51.9102 60.8519 52.9961C60.8519 53.9805 60.5784 54.9023 60.0316 55.7617C59.4847 56.6211 58.7112 57.2617 57.7112 57.6836C56.7112 58.0977 55.4652 58.3047 53.973 58.3047C51.8011 58.3047 50.1331 57.8047 48.9691 56.8047C47.805 55.7969 47.1097 54.332 46.8831 52.4102ZM79.622 58H75.8486L74.3486 54.0977H67.4814L66.0634 58H62.3838L69.0752 40.8203H72.7431L79.622 58ZM73.2353 51.2031L70.8681 44.8281L68.5478 51.2031H73.2353Z" fill="#F8F8F8"/>
</svg>
