<svg width="100" height="100" viewBox="0 0 100 100" fill="none" xmlns="http://www.w3.org/2000/svg">
<rect width="100" height="100" fill="#FFE9E9"/>
<path d="M49.6476 71.4551C46.5126 77.4326 43.7301 83.9951 35.8926 84.1976C29.7501 84.3626 25.7151 85.3151 22.6776 79.9826C17.8926 71.5726 14.8176 65.9901 13.4526 63.2351C11.4651 59.2225 16.5426 51.535 18.6426 47.8225C19.8476 45.6825 21.4426 44.57 23.4276 44.485C27.1576 44.325 30.8726 44.185 34.5726 44.065C34.8226 44.06 34.8876 43.9475 34.7676 43.7275C32.9976 40.5275 31.2501 37.3 29.5251 34.045C28.4151 31.94 28.4126 29.8275 29.5176 27.7075C32.7126 21.565 33.6501 16.06 42.0576 16.0225C47.8926 15.9925 53.7277 15.9925 59.5627 16.0225C62.5627 16.0375 64.2352 17.2375 65.7127 19.945C67.4627 23.145 69.0527 26.1825 70.4827 29.0575C70.7789 29.653 70.9275 30.3109 70.9157 30.9754C70.904 31.6399 70.7323 32.2915 70.4152 32.875L64.4152 43.93C64.3981 43.9597 64.3895 43.9933 64.3902 44.0275C64.3909 44.0617 64.4009 44.0953 64.4191 44.1249C64.4373 44.1545 64.4632 44.1791 64.4941 44.1962C64.525 44.2134 64.5598 44.2224 64.5952 44.2225C68.8652 44.1175 72.7327 44.1025 76.1977 44.1775C78.2977 44.2225 79.8352 45.6025 80.8702 47.53C82.6302 50.835 84.4252 54.1175 86.2552 57.3775C87.3302 59.3025 87.2827 61.3725 86.1127 63.5875C82.9877 69.5126 79.8777 75.4501 76.7827 81.4001C75.8452 83.2076 73.1827 84.0326 71.0152 84.0476C65.3677 84.0926 57.7852 85.3901 55.6177 81.4601C53.7877 78.1501 51.9401 74.8126 50.0751 71.4476C50.0547 71.4095 50.0242 71.3781 49.9869 71.3564C49.9495 71.3348 49.9068 71.3237 49.8631 71.3245C49.8194 71.3253 49.7763 71.3378 49.7384 71.3608C49.7005 71.3837 49.6691 71.4163 49.6476 71.4551ZM60.8527 21.1C60.7066 20.9164 60.5231 20.7664 60.3148 20.6602C60.1064 20.5541 59.878 20.4943 59.6452 20.485C52.6852 20.2 45.7276 20.285 38.7726 20.74C38.6137 20.7517 38.4609 20.8068 38.3312 20.8994C38.2014 20.992 38.0998 21.1183 38.0377 21.2644C37.9755 21.4105 37.9552 21.5706 37.979 21.7269C38.0029 21.8833 38.0699 22.0297 38.1726 22.15L41.6676 26.2825C41.7311 26.3579 41.8104 26.4184 41.8998 26.4599C41.9892 26.5013 42.0866 26.5227 42.1851 26.5225L63.0652 26.455C63.4452 26.455 63.5752 26.275 63.4552 25.915C62.8652 24.15 61.9977 22.545 60.8527 21.1ZM45.5601 43.405L36.5001 26.4925C36.4277 26.358 36.3239 26.2429 36.1976 26.157C36.0714 26.0711 35.9265 26.0169 35.7753 25.9993C35.6242 25.9816 35.4713 26.0008 35.3297 26.0554C35.1882 26.1099 35.0622 26.1982 34.9626 26.3125C33.7826 27.6575 32.9126 29.165 32.3526 30.835C32.2703 31.0822 32.2783 31.3482 32.3751 31.585C34.1951 35.86 36.3526 39.9575 38.8476 43.8775C38.9026 43.9667 38.98 44.04 39.0721 44.09C39.1642 44.14 39.2679 44.165 39.3726 44.1625L45.1926 44.0425C45.6576 44.0325 45.7801 43.82 45.5601 43.405ZM54.4777 30.25C51.1176 29.92 47.7651 29.9425 44.4201 30.3175C44.2426 30.337 44.0728 30.4006 43.9261 30.5024C43.7794 30.6041 43.6604 30.741 43.5799 30.9004C43.4995 31.0598 43.4601 31.2368 43.4654 31.4153C43.4706 31.5938 43.5204 31.7681 43.6101 31.9225L48.9126 41.08C49.0676 41.345 49.2301 41.3475 49.4001 41.0875L55.2952 31.9525C55.3978 31.7924 55.458 31.6086 55.4698 31.4188C55.4816 31.229 55.4447 31.0396 55.3626 30.8686C55.2805 30.6977 55.156 30.551 55.0011 30.4427C54.8461 30.3343 54.6659 30.268 54.4777 30.25ZM53.8777 43.81L59.0752 43.9825C59.2026 43.9845 59.328 43.9529 59.4387 43.891C59.5494 43.829 59.6414 43.739 59.7052 43.63L66.7402 31.2475C66.7785 31.1813 66.8008 31.107 66.8051 31.0306C66.8094 30.9542 66.7956 30.8779 66.765 30.8078C66.7343 30.7377 66.6875 30.6758 66.6285 30.6271C66.5695 30.5784 66.4998 30.5443 66.4252 30.5275C64.4552 30.0525 62.5002 30.095 60.5602 30.655C60.3819 30.7084 60.2292 30.8289 60.1327 30.9925L53.2402 42.64C52.7952 43.395 53.0077 43.785 53.8777 43.81ZM78.6652 52.435C77.9677 49.8625 75.4852 47.32 72.6877 47.3125C57.0477 47.2825 41.4076 47.2925 25.7676 47.3425C25.0476 47.3475 24.4951 47.6425 24.1101 48.2275C22.9251 50.02 25.5501 52.795 26.9076 53.5375C27.8426 54.0425 29.2876 54.29 31.2426 54.28C46.6776 54.19 62.0852 54.1025 77.4652 54.0175C78.5502 54.0125 78.9502 53.485 78.6652 52.435ZM20.5401 54.9625C19.1451 55.6675 18.1926 58.45 17.6076 59.89C17.5126 60.125 17.5226 60.3575 17.6376 60.5875C20.3126 65.9525 23.1551 71.2251 26.1651 76.4051C26.7851 77.4751 27.4051 78.2576 28.0251 78.7526C28.1332 78.8373 28.2666 78.8828 28.4031 78.8815C28.5396 78.8801 28.6709 78.832 28.7751 78.7451C31.0851 76.7726 32.1651 73.9901 30.6426 71.1026C28.0026 66.0976 25.3176 61.1175 22.5876 56.1625C22.3276 55.6925 22.0476 55.335 21.7476 55.09C21.3726 54.785 20.9701 54.7425 20.5401 54.9625ZM39.4626 58.09C36.3176 57.685 33.1826 57.6725 30.0576 58.0525C29.8532 58.0776 29.658 58.1528 29.4896 58.2713C29.3211 58.3898 29.1844 58.548 29.0917 58.732C28.999 58.9159 28.9531 59.1199 28.958 59.3258C28.963 59.5317 29.0187 59.7333 29.1201 59.9125L34.1601 68.7926C34.3601 69.1476 34.5626 69.1476 34.7676 68.7926L40.1226 59.4175C40.1953 59.2903 40.2355 59.1471 40.2397 59.0007C40.2439 58.8542 40.2119 58.709 40.1467 58.5778C40.0815 58.4466 39.9849 58.3334 39.8656 58.2484C39.7463 58.1633 39.6079 58.1089 39.4626 58.09ZM50.3001 58.225C47.6601 57.205 45.6101 57.9125 44.1501 60.3475C40.6001 66.2425 37.2176 72.0601 34.0026 77.8001C33.9227 77.943 33.8774 78.1026 33.8702 78.2662C33.863 78.4298 33.8942 78.5928 33.9612 78.7422C34.0283 78.8916 34.1293 79.0232 34.2563 79.1266C34.3833 79.23 34.5327 79.3022 34.6926 79.3376C38.4426 80.1776 40.5051 79.3826 42.4176 75.9551C45.3926 70.6251 48.2551 65.335 51.0051 60.085C51.0919 59.9178 51.1424 59.7341 51.1534 59.5462C51.1644 59.3582 51.1357 59.1702 51.0691 58.9945C51.0025 58.8188 50.8996 58.6594 50.7671 58.5268C50.6345 58.3942 50.4754 58.2913 50.3001 58.225ZM70.5052 57.8575L60.9652 57.8725C60.7367 57.8734 60.5124 57.9347 60.3152 58.05C60.118 58.1654 59.955 58.3307 59.8428 58.529C59.7307 58.7274 59.6734 58.9517 59.6769 59.179C59.6804 59.4063 59.7445 59.6284 59.8627 59.8225L65.2627 68.7776C65.4477 69.0776 65.6302 69.0776 65.8102 68.7776L71.3602 59.35C71.4489 59.1995 71.4961 59.0282 71.4972 58.8535C71.4982 58.6789 71.4531 58.507 71.3662 58.3554C71.2794 58.2039 71.154 58.078 71.0028 57.9905C70.8515 57.9031 70.6799 57.8572 70.5052 57.8575ZM81.4852 58.555C77.8402 57.16 76.5052 58.7725 74.7502 61.8175C71.7602 66.9875 68.7377 72.2976 65.6827 77.7476C65.5976 77.8998 65.5471 78.069 65.5349 78.2429C65.5227 78.4169 65.5491 78.5915 65.6122 78.7541C65.6752 78.9167 65.7734 79.0634 65.8996 79.1837C66.0259 79.304 66.1772 79.395 66.3427 79.4501C69.3127 80.4326 72.0502 79.4276 73.7002 76.6526C76.8202 71.4076 79.7277 66.195 82.4227 61.015C82.5373 60.7944 82.604 60.552 82.6183 60.3038C82.6326 60.0556 82.5942 59.8071 82.5057 59.5748C82.4171 59.3425 82.2804 59.1315 82.1045 58.9557C81.9287 58.78 81.7176 58.6434 81.4852 58.555ZM60.0877 77.8601C61.2327 76.6601 62.0402 75.2801 62.5102 73.7201C62.5776 73.4833 62.5536 73.2268 62.4427 73.0001C60.5177 69.2151 58.2177 65.6776 55.5427 62.3875C55.4848 62.3171 55.4112 62.2612 55.3279 62.2242C55.2445 62.1872 55.1537 62.1702 55.0626 62.1746C54.9715 62.179 54.8827 62.2046 54.8033 62.2494C54.7239 62.2941 54.656 62.3569 54.6052 62.4326C52.8727 65.0501 52.4827 67.5776 54.1177 70.4951C55.4477 72.8851 56.9452 75.3001 58.6102 77.7401C58.6902 77.8575 58.7955 77.9556 58.9184 78.0271C59.0412 78.0986 59.1786 78.1416 59.3202 78.1531C59.4619 78.1647 59.6044 78.1443 59.7372 78.0936C59.87 78.0429 59.9897 77.9631 60.0877 77.8601Z" fill="#C91216"/>
</svg>
