<svg width="100" height="100" viewBox="0 0 100 100" fill="none" xmlns="http://www.w3.org/2000/svg">
<g clip-path="url(#clip0_71_924)">
<rect width="100" height="100" fill="#0D4F9F"/>
<path d="M105.54 53.0537C104.269 75.5218 89.4895 95.0837 68.3414 102.599C62.2186 104.775 55.5136 105.931 48.9201 105.825C29.3339 105.51 11.7595 95.2637 1.65885 78.5575C-3.18615 70.5437 -5.83834 61.4471 -6.27803 52.045C-6.39803 49.4828 -6.30334 47.0556 -6.08678 44.5721C-4.00084 20.5731 13.6748 0.330552 37.1264 -4.90914C42.5214 -6.11476 47.8967 -6.54195 53.2523 -6.1907C54.7623 -6.09133 56.5004 -5.89195 58.4667 -5.59258C59.1186 -5.4932 59.7339 -5.38539 60.3126 -5.26914C70.877 -3.14664 80.0839 1.57805 87.9333 8.90493C96.9014 17.2759 102.879 28.4631 104.899 40.6215C104.996 41.204 105.083 41.8231 105.161 42.4787C105.456 44.9799 105.664 47.5 105.682 50.0209C105.689 50.9678 105.601 51.9671 105.54 53.0537Z" fill="#0D4F9F"/>
<path d="M20.5048 80.2702C13.2945 73.4002 8.6426 63.9568 7.68823 54.0202C7.37885 50.8046 7.41354 47.9958 7.7501 44.7277C7.81698 44.0808 7.9001 43.4618 7.99948 42.8705C9.05041 36.6427 11.306 30.864 14.9342 25.6355C23.4392 13.3796 37.5879 6.68114 52.4557 7.61114C52.8926 7.63864 53.7404 7.73021 54.9992 7.88583C58.6723 8.34146 62.3182 9.31365 65.6679 10.7086C79.9695 16.6627 89.8761 29.7568 91.6208 45.1787C92.8733 56.2459 89.6961 67.7302 82.6058 76.4349C66.8792 95.7428 38.5236 97.4424 20.5048 80.2702Z" fill="white"/>
<path d="M9.78963 57.5611C6.64994 41.9724 13.0793 25.5567 26.2203 16.463C35.4143 10.1002 46.2987 7.74233 57.4081 9.86202C75.1972 13.2577 88.5659 28.2389 90.1878 46.2586C91.1497 56.9349 87.9068 67.4274 81.2093 75.6821C75.0181 83.3114 65.9431 88.5314 56.2325 90.0286C55.1318 90.1983 54.0171 90.3699 52.9334 90.4468C43.1946 91.133 33.77 88.4583 25.8734 82.7527C20.3853 78.7871 15.8365 73.328 12.9593 67.2146C11.4874 64.088 10.4646 60.9146 9.78963 57.5611Z" fill="#0D4F9F"/>
<path d="M21.9578 78.3249C15.174 71.7652 10.7687 62.6367 10.0506 53.2214C9.86118 50.737 9.83775 49.1386 10.0037 46.718C11.2899 27.9098 25.8081 12.6726 44.4924 10.2633C45.669 10.1114 47.3284 9.95765 48.729 9.93421C50.0365 9.91233 50.9193 9.92015 51.3774 9.95765C53.3424 10.117 55.3243 10.2951 57.2603 10.6814C76.2672 14.4698 89.9762 31.4255 89.4625 50.8739C89.1793 61.598 84.7075 71.8533 76.7828 79.1264C70.4796 84.9114 63.035 88.3543 54.4487 89.4549C53.5456 89.5705 52.2562 89.6561 50.5806 89.7118C48.2799 89.7886 45.8724 89.5608 43.6665 89.2205C35.4634 87.9577 27.9587 84.1289 21.9578 78.3249Z" fill="white"/>
<path d="M59.9885 86.7244C37.2532 92.8575 14.4335 77.4085 11.7138 54.0375C11.6397 53.401 11.6144 52.41 11.5235 51.5953C11.4222 50.6906 11.4644 49.7869 11.4635 48.8869C11.4626 47.8416 11.5582 46.636 11.6407 45.7819C13.3338 28.3753 26.7523 14.3016 44.066 11.7356C44.4554 11.6775 45.2788 11.5906 46.5363 11.475C49.7744 11.1759 52.9573 11.3353 56.2526 11.8969C71.1138 14.43 82.9329 25.3931 86.8282 39.9075C87.5585 42.6272 87.8576 45.0291 88.0385 47.8603C88.0667 48.2981 88.0142 48.7069 87.956 49.1335C87.9092 49.4813 88.1098 49.7925 88.106 50.1C87.8613 66.4753 77.6538 80.6578 62.1579 86.0503C62.0385 86.0916 61.727 86.1791 61.2232 86.3129C60.8041 86.4235 60.3701 86.6213 59.9885 86.7244Z" fill="#DE2227"/>
<path d="M49.7355 65.81C49.5905 65.91 49.4849 66.0281 49.4186 66.1644C45.0771 75.0931 34.3174 78.531 25.5405 73.9063C17.0796 69.4484 13.7899 58.8275 18.1905 50.2728C21.4455 43.9447 28.1589 40.4169 35.2202 41.0309C35.4396 41.0503 35.583 41.0478 35.6505 41.0234C35.8342 40.9578 35.873 40.8438 35.7667 40.6812C34.2902 38.4294 33.2552 35.9591 32.8642 33.3331C31.4233 23.6375 37.8799 14.7547 47.6993 13.4365C48.2255 13.3659 48.8408 13.3275 49.5452 13.3212C50.3608 13.3137 51.2243 13.2978 52.0089 13.3953C58.4449 14.1912 63.8327 18.2937 66.2636 24.3144C68.493 29.8334 67.6689 36.1719 64.2611 41.0487C64.1868 41.1556 64.1518 41.2369 64.1561 41.2925C64.1661 41.4187 64.2205 41.4812 64.3193 41.48C65.6964 41.4603 67.0905 41.4116 68.4133 41.6366C69.3671 41.7984 70.264 42.0128 71.104 42.2797C81.5355 45.5938 86.2699 57.5684 81.3265 67.1778C76.3783 76.7956 63.8214 79.2566 55.3549 72.8441C53.0186 71.0741 51.2236 68.8138 49.9699 66.0631C49.9436 66.0063 49.8886 65.9253 49.8049 65.8203C49.7849 65.7953 49.7618 65.7919 49.7355 65.81Z" fill="white"/>
<path d="M50.085 45.485C58.2259 45.485 64.8254 38.8856 64.8254 30.7447C64.8254 22.6039 58.2259 16.0044 50.085 16.0044C41.9442 16.0044 35.3447 22.6039 35.3447 30.7447C35.3447 38.8856 41.9442 45.485 50.085 45.485Z" fill="#DE2227"/>
<path d="M34.3371 73.2819C26.8174 73.67 20.2362 68.3319 18.9705 60.9922C17.1677 50.5484 26.6552 41.5147 37.0249 43.9016C43.0296 45.2834 47.5277 50.2166 48.3762 56.2653C49.6043 65.0263 43.0868 72.831 34.3371 73.2819Z" fill="#DE2227"/>
<path d="M56.6035 70.4537C49.0641 64.3122 49.3256 52.4969 57.3938 46.8353C64.0266 42.1806 73.1072 43.7312 77.8294 50.3087C81.916 56.0031 81.4557 63.8172 76.6791 68.9659C71.4647 74.5862 62.6391 75.3709 56.6035 70.4537Z" fill="#DE2227"/>
<path d="M49.7847 51.6128C49.7572 51.5853 49.7341 51.5547 49.7154 51.5209L48.0176 48.459C48.0128 48.4508 48.0101 48.4416 48.0094 48.4321C48.0088 48.4225 48.0103 48.4128 48.0138 48.4037C48.0719 48.2518 48.1797 48.1706 48.3372 48.16C48.8285 48.1281 49.3919 48.2256 49.8288 48.2284C50.4313 48.2315 51.0335 48.219 51.6354 48.1909C51.721 48.1871 51.7713 48.1903 51.7863 48.2003C51.8751 48.2584 51.8888 48.3309 51.8276 48.4178C51.1632 49.3503 50.5832 50.3337 50.0876 51.3681C50.0313 51.4862 49.9704 51.5509 49.8766 51.6353C49.8516 51.6571 49.8276 51.6562 49.8044 51.6325L49.7847 51.6128Z" fill="#DE2227"/>
</g>
<defs>
<clipPath id="clip0_71_924">
<rect width="100" height="100" fill="white"/>
</clipPath>
</defs>
</svg>
