<svg width="100" height="100" viewBox="0 0 100 100" fill="none" xmlns="http://www.w3.org/2000/svg">
<rect width="100" height="100" fill="#595C62"/>
<path d="M23.0811 58V40.8203H26.5498V58H23.0811ZM30.2614 58V40.8203H33.6364L40.6677 52.293V40.8203H43.8903V58H40.4098L33.4841 46.7969V58H30.2614ZM52.3128 58L46.1722 40.8203H49.9339L54.2816 53.5352L58.4886 40.8203H62.1683L56.0159 58H52.3128ZM63.4189 52.4102L66.7939 52.082C66.997 53.2148 67.4072 54.0469 68.0244 54.5781C68.6494 55.1094 69.4892 55.375 70.5439 55.375C71.6611 55.375 72.5009 55.1406 73.0634 54.6719C73.6338 54.1953 73.9189 53.6406 73.9189 53.0078C73.9189 52.6016 73.7978 52.2578 73.5556 51.9766C73.3213 51.6875 72.9072 51.4375 72.3134 51.2266C71.9072 51.0859 70.9814 50.8359 69.5361 50.4766C67.6767 50.0156 66.372 49.4492 65.622 48.7773C64.5673 47.832 64.04 46.6797 64.04 45.3203C64.04 44.4453 64.2861 43.6289 64.7783 42.8711C65.2783 42.1055 65.9931 41.5234 66.9228 41.125C67.8603 40.7266 68.9892 40.5273 70.3095 40.5273C72.4658 40.5273 74.0869 41 75.1728 41.9453C76.2666 42.8906 76.8408 44.1523 76.8955 45.7305L73.4267 45.8828C73.2783 45 72.958 44.3672 72.4658 43.9844C71.9814 43.5938 71.2509 43.3984 70.2744 43.3984C69.2666 43.3984 68.4775 43.6055 67.9072 44.0195C67.54 44.2852 67.3564 44.6406 67.3564 45.0859C67.3564 45.4922 67.5283 45.8398 67.872 46.1289C68.3095 46.4961 69.372 46.8789 71.0595 47.2773C72.747 47.6758 73.9931 48.0898 74.7978 48.5195C75.6103 48.9414 76.2431 49.5234 76.6963 50.2656C77.1572 51 77.3877 51.9102 77.3877 52.9961C77.3877 53.9805 77.1142 54.9023 76.5673 55.7617C76.0205 56.6211 75.247 57.2617 74.247 57.6836C73.247 58.0977 72.0009 58.3047 70.5088 58.3047C68.3369 58.3047 66.6689 57.8047 65.5048 56.8047C64.3408 55.7969 63.6455 54.332 63.4189 52.4102Z" fill="#F8F8F8"/>
</svg>
