<svg width="100" height="100" viewBox="0 0 100 100" fill="none" xmlns="http://www.w3.org/2000/svg">
<rect width="100" height="100" fill="#A82646"/>
<g clip-path="url(#clip0_71_926)">
<path d="M20 14H79.3438V86H20V14ZM51.1822 64.6798C53.3347 63.7902 54.5464 62.2738 54.8173 60.1306C55.3855 55.6334 52.2481 53.4031 48.125 53.4045C45.5375 53.4055 43.002 53.4083 40.5186 53.413C40.4379 53.4133 40.3606 53.4457 40.3037 53.5028C40.2468 53.56 40.2148 53.6374 40.2148 53.7181C40.2148 58.9719 40.2148 64.213 40.2148 69.4414C40.2148 70.063 40.4384 70.4314 40.9334 70.7422C41.5902 71.1542 43.1342 70.9995 43.9062 70.9827C43.9332 70.9819 43.9588 70.9707 43.9775 70.9515C43.9962 70.9323 44.0065 70.9066 44.0061 70.88L43.9695 65.5602C43.9695 65.5173 43.9866 65.4761 44.0169 65.4458C44.0472 65.4155 44.0884 65.3984 44.1313 65.3984H47.0745C47.1205 65.3984 47.1561 65.4172 47.1814 65.4547C48.2333 67.0184 49.2973 68.5728 50.3736 70.1178C50.788 70.7122 51.3622 71.007 52.0963 71.0023C53.1697 70.9939 54.238 70.9827 55.3011 70.9686C55.3055 70.9687 55.3099 70.9675 55.3137 70.9652C55.3175 70.9629 55.3206 70.9596 55.3227 70.9557C55.3247 70.9518 55.3256 70.9473 55.3253 70.9429C55.325 70.9385 55.3234 70.9342 55.3208 70.9306L51.1428 64.812C51.1353 64.8011 51.1304 64.7887 51.1283 64.7756C51.1262 64.7626 51.1271 64.7492 51.1309 64.7365C51.1347 64.7238 51.1412 64.7122 51.1501 64.7024C51.159 64.6926 51.1699 64.6849 51.1822 64.6798ZM69.8122 67.1506C70.0147 67.4319 70.1103 67.8073 70.2158 68.0548C70.5833 68.9202 70.9475 69.8356 71.3084 70.8013C71.329 70.8561 71.3661 70.9034 71.4145 70.9368C71.463 70.9703 71.5207 70.9882 71.5798 70.9883H75.3261C75.3711 70.9883 75.3847 70.9677 75.3669 70.9264L67.9798 53.548C67.9627 53.5072 67.9338 53.4723 67.8968 53.4478C67.8597 53.4233 67.8162 53.4102 67.7717 53.4102H64.5078C64.4714 53.4102 64.4359 53.4209 64.4056 53.441C64.3754 53.461 64.3517 53.4894 64.3377 53.5227L56.9731 70.8448C56.967 70.8593 56.9644 70.8751 56.9657 70.8908C56.967 70.9065 56.972 70.9216 56.9805 70.9349C56.9889 70.9482 57.0005 70.9592 57.0141 70.9671C57.0278 70.9749 57.0432 70.9793 57.0589 70.9798C57.8877 71.0052 58.7234 70.993 59.5662 70.9433C60.6814 70.8786 61.1103 70.3034 61.5027 69.2909C61.7745 68.5887 62.0675 67.8795 62.3816 67.1633C62.4041 67.1117 62.4439 67.0859 62.5011 67.0859H69.6842C69.7377 67.0859 69.7803 67.1075 69.8122 67.1506ZM33.8038 85.3559L34.3916 85.3616C34.414 85.362 34.4361 85.3556 34.4551 85.3431C34.4742 85.3306 34.4892 85.3125 34.4984 85.2913L34.8641 84.4208C34.8732 84.3991 34.8886 84.3806 34.9084 84.3676C34.9281 84.3546 34.9514 84.3476 34.9752 84.3477H36.5614C36.6158 84.3477 36.6603 84.3683 36.695 84.4095C36.9078 84.6608 37.0386 84.9552 37.0873 85.2927C37.0939 85.3452 37.1239 85.3709 37.1773 85.37L37.948 85.3587C37.9611 85.3586 37.974 85.3553 37.9855 85.349C37.9971 85.3427 38.0069 85.3336 38.0141 85.3227C38.0213 85.3117 38.0257 85.2991 38.027 85.286C38.0282 85.273 38.0262 85.2598 38.0211 85.2477L36.2675 81.1231C36.2563 81.0969 36.2366 81.0833 36.2084 81.0823L35.5067 81.0669C35.4561 81.065 35.4209 81.0875 35.4012 81.1344L33.6744 85.1562C33.6652 85.1779 33.6614 85.2014 33.6634 85.2248C33.6654 85.2482 33.6732 85.2708 33.6859 85.2905C33.6987 85.3102 33.7161 85.3265 33.7367 85.3379C33.7572 85.3493 33.7803 85.3555 33.8038 85.3559ZM65.4177 85.3742L65.7355 85.4558C65.7842 85.468 65.8231 85.4544 65.8522 85.415L65.9155 85.3292C65.9214 85.3219 65.9243 85.3126 65.9233 85.3032C65.9224 85.2939 65.9178 85.2853 65.9105 85.2793C65.9033 85.2733 65.8939 85.2705 65.8846 85.2714C65.8752 85.2723 65.8666 85.2769 65.8606 85.2842C65.8053 85.347 65.7514 85.3747 65.6989 85.3672C65.7205 85.2491 65.7027 85.1286 65.6455 85.0058C65.3155 84.2961 64.7886 83.0694 64.0648 81.3256C64.0555 81.3022 64.0517 81.2769 64.0536 81.2497C64.0564 81.2216 64.0583 81.193 64.0592 81.1639C64.063 81.0992 64.0325 81.0659 63.9678 81.0641L63.2014 81.0359C63.1442 81.0341 63.1044 81.0598 63.0819 81.1133C62.5742 82.3311 62.0877 83.5728 61.5139 84.7625C61.4267 84.9434 61.363 85.1352 61.3227 85.3377C61.3152 85.3733 61.3297 85.3902 61.3662 85.3883L62.1003 85.3559C62.1195 85.355 62.1381 85.3491 62.1542 85.3387C62.1703 85.3283 62.1832 85.3139 62.1917 85.2969L62.622 84.4391C62.636 84.4116 62.6574 84.3885 62.6837 84.3723C62.71 84.3562 62.7402 84.3477 62.7711 84.3477H64.2491C64.2979 84.3477 64.3458 84.3616 64.3871 84.3877C64.4284 84.4139 64.4615 84.4512 64.4825 84.4953L64.8622 85.2969C64.8837 85.3419 64.9194 85.3648 64.9691 85.3658L65.4177 85.3742ZM24.6238 83.9652L25.317 83.9848C25.3319 83.9853 25.3464 83.9893 25.3593 83.9964C25.3723 84.0034 25.3833 84.0135 25.3916 84.0256L26.2592 85.3152C26.2902 85.3602 26.3328 85.3812 26.3872 85.3784L27.2281 85.3306C27.2881 85.3278 27.3008 85.302 27.2661 85.2533L26.307 83.9131C26.2798 83.8747 26.2859 83.8414 26.3253 83.8133C27.0397 83.3098 27.5558 82.5955 27.0256 81.7545C26.4139 80.7842 24.5802 81.0683 23.7434 81.0809C23.6938 81.0819 23.6689 81.1072 23.6689 81.1569L23.6577 85.1183C23.6567 85.257 23.7256 85.3278 23.8644 85.3306L24.4606 85.3405C24.4703 85.3407 24.48 85.3389 24.489 85.3352C24.4981 85.3315 24.5063 85.3261 24.5132 85.3191C24.5202 85.3122 24.5257 85.3039 24.5295 85.2948C24.5332 85.2857 24.5352 85.2758 24.5352 85.2659V84.0495C24.5352 83.9914 24.5647 83.9633 24.6238 83.9652Z" fill="#010001" fill-opacity="0.01"/>
<path d="M49.6817 14.4514C49.5823 14.5724 49.5326 14.7059 49.5326 14.8522C49.5317 22.7825 49.5307 30.7109 49.5298 38.6375" stroke="#D3D4D5" stroke-width="0.28125"/>
<path d="M65.6987 85.3672L65.4175 85.3742" stroke="#D3D4D5" stroke-width="0.28125"/>
<path d="M69.2354 85.3347C68.8847 85.4209 68.5918 85.3895 68.3564 85.2405" stroke="#D3D4D5" stroke-width="0.28125"/>
<path d="M75.4008 85.218C75.4373 85.2808 75.4012 85.3296 75.2925 85.3643" stroke="#D3D4D5" stroke-width="0.28125"/>
<path d="M49.6816 14.4513C49.5822 14.5723 49.5325 14.7059 49.5325 14.8521C49.5316 22.7824 49.5306 30.7109 49.5297 38.6374C49.4538 38.6431 49.375 38.6417 49.3089 38.6712C39.8392 42.9452 30.363 47.2273 20.8802 51.5173C20.8335 51.5383 20.7824 51.5473 20.7314 51.5434C20.6804 51.5396 20.6312 51.523 20.5884 51.4953C20.5455 51.4676 20.5104 51.4296 20.4862 51.3848C20.462 51.3399 20.4495 51.2898 20.4499 51.2388C20.4724 46.1585 20.4616 41.0346 20.4175 35.8671C20.4147 35.5324 20.5553 35.2877 20.838 35.0782C22.6399 33.7376 24.453 32.412 26.2774 31.1013C34.0155 25.541 41.7541 19.9807 49.4931 14.4204C49.5297 14.3951 49.5616 14.3838 49.5888 14.3867C49.6263 14.3904 49.6572 14.412 49.6816 14.4513Z" fill="white"/>
<path d="M49.6817 14.4514C59.0895 21.1808 68.4823 27.9308 77.8601 34.7014C78.3087 35.0249 78.6771 35.0502 78.6771 35.7209C78.6762 40.9709 78.6752 46.2364 78.6743 51.5174C78.6743 51.6692 78.6017 51.7231 78.4563 51.6791C78.1854 51.5956 77.8882 51.4808 77.5648 51.3345C68.3904 47.1917 59.2263 43.0255 50.0726 38.8358C49.8692 38.743 49.6882 38.6769 49.5298 38.6375C49.5307 30.7109 49.5317 22.7825 49.5326 14.8522C49.5326 14.7059 49.5823 14.5724 49.6817 14.4514Z" fill="#A6A8AB"/>
<path d="M27.4487 56.9806L27.4544 60.3162C27.4544 60.3588 27.4712 60.3995 27.5013 60.4296C27.5314 60.4597 27.5722 60.4766 27.6147 60.4766H35.6247C35.6672 60.4766 35.708 60.4935 35.738 60.5235C35.7681 60.5536 35.785 60.5944 35.785 60.6369V63.5998C35.785 63.6209 35.7808 63.6417 35.7728 63.6612C35.7647 63.6806 35.7529 63.6983 35.738 63.7132C35.7231 63.7281 35.7055 63.7399 35.686 63.748C35.6666 63.756 35.6457 63.7602 35.6247 63.7602L27.6133 63.7756C27.5922 63.7756 27.5714 63.7798 27.5519 63.7878C27.5325 63.7959 27.5148 63.8077 27.4999 63.8226C27.485 63.8375 27.4732 63.8551 27.4652 63.8746C27.4571 63.894 27.4529 63.9149 27.4529 63.9359V67.4881C27.4529 67.5092 27.4571 67.53 27.4652 67.5495C27.4732 67.5689 27.485 67.5866 27.4999 67.6015C27.5148 67.6164 27.5325 67.6282 27.5519 67.6362C27.5714 67.6443 27.5922 67.6484 27.6133 67.6484H36.8903C36.9328 67.6484 36.9736 67.6653 37.0037 67.6954C37.0337 67.7255 37.0506 67.7662 37.0506 67.8088V70.828C37.0506 70.8705 37.0337 70.9113 37.0037 70.9413C36.9736 70.9714 36.9328 70.9883 36.8903 70.9883H23.8122C23.7697 70.9883 23.7289 70.9714 23.6988 70.9413C23.6687 70.9113 23.6519 70.8705 23.6519 70.828L23.6954 53.5705C23.6954 53.528 23.7123 53.4872 23.7424 53.4571C23.7725 53.427 23.8132 53.4102 23.8558 53.4102H36.7497C36.7922 53.4102 36.833 53.427 36.863 53.4571C36.8931 53.4872 36.91 53.528 36.91 53.5705V56.66C36.91 56.7025 36.8931 56.7433 36.863 56.7734C36.833 56.8034 36.7922 56.8203 36.7497 56.8203H27.609C27.588 56.8203 27.5671 56.8245 27.5477 56.8325C27.5282 56.8406 27.5106 56.8524 27.4957 56.8673C27.4808 56.8822 27.469 56.8998 27.4609 56.9193C27.4529 56.9387 27.4487 56.9596 27.4487 56.9806Z" fill="white"/>
<path d="M51.1822 64.6799C51.1699 64.6849 51.159 64.6926 51.1501 64.7024C51.1412 64.7122 51.1347 64.7239 51.1309 64.7365C51.1271 64.7492 51.1262 64.7626 51.1283 64.7756C51.1304 64.7887 51.1353 64.8011 51.1428 64.812L55.3208 70.9306C55.3234 70.9342 55.325 70.9385 55.3253 70.9429C55.3256 70.9473 55.3247 70.9518 55.3227 70.9557C55.3206 70.9597 55.3175 70.9629 55.3137 70.9652C55.3099 70.9675 55.3055 70.9687 55.3011 70.9686C54.238 70.9827 53.1697 70.9939 52.0963 71.0024C51.3622 71.007 50.788 70.7122 50.3736 70.1178C49.2973 68.5728 48.2333 67.0184 47.1814 65.4547C47.1561 65.4172 47.1205 65.3984 47.0745 65.3984H44.1313C44.0884 65.3984 44.0472 65.4155 44.0169 65.4458C43.9866 65.4761 43.9695 65.5173 43.9695 65.5602L44.0061 70.88C44.0065 70.9066 43.9962 70.9323 43.9775 70.9515C43.9588 70.9707 43.9332 70.9819 43.9062 70.9827C43.1342 70.9995 41.5902 71.1542 40.9334 70.7422C40.4384 70.4314 40.2148 70.063 40.2148 69.4414C40.2148 64.213 40.2148 58.9719 40.2148 53.7181C40.2148 53.6374 40.2468 53.56 40.3037 53.5029C40.3606 53.4457 40.4379 53.4134 40.5186 53.413C43.002 53.4083 45.5375 53.4055 48.125 53.4045C52.2481 53.4031 55.3855 55.6335 54.8173 60.1306C54.5464 62.2738 53.3347 63.7902 51.1822 64.6799ZM43.9766 57.0059V61.8069C43.9766 61.8543 43.9954 61.8997 44.0289 61.9332C44.0624 61.9667 44.1078 61.9855 44.1552 61.9855H48.3191C49.0337 61.9855 49.719 61.7296 50.2243 61.2742C50.7296 60.8187 51.0134 60.201 51.0134 59.5569V59.2559C51.0134 58.6118 50.7296 57.9941 50.2243 57.5387C49.719 57.0832 49.0337 56.8274 48.3191 56.8274H44.1552C44.1078 56.8274 44.0624 56.8462 44.0289 56.8797C43.9954 56.9132 43.9766 56.9586 43.9766 57.0059Z" fill="white"/>
<path d="M69.6842 67.0859H62.5011C62.4439 67.0859 62.404 67.1117 62.3815 67.1633C62.0675 67.8795 61.7745 68.5887 61.5026 69.2909C61.1103 70.3034 60.6814 70.8786 59.5662 70.9433C58.7234 70.993 57.8876 71.0052 57.0589 70.9798C57.0431 70.9793 57.0278 70.9749 57.0141 70.9671C57.0005 70.9592 56.9889 70.9482 56.9805 70.9349C56.972 70.9216 56.9669 70.9065 56.9657 70.8908C56.9644 70.8751 56.9669 70.8593 56.9731 70.8448L64.3376 53.5227C64.3517 53.4894 64.3753 53.461 64.4056 53.441C64.4358 53.4209 64.4714 53.4102 64.5078 53.4102H67.7717C67.8162 53.4102 67.8597 53.4233 67.8967 53.4478C67.9337 53.4723 67.9627 53.5072 67.9798 53.548L75.3668 70.9264C75.3847 70.9677 75.3711 70.9883 75.3261 70.9883H71.5798C71.5207 70.9882 71.463 70.9703 71.4145 70.9368C71.366 70.9034 71.329 70.8561 71.3084 70.8013C70.9475 69.8356 70.5833 68.9202 70.2158 68.0548C70.1103 67.8073 70.0147 67.4319 69.8122 67.1506C69.7803 67.1075 69.7376 67.0859 69.6842 67.0859ZM63.7976 63.5436C63.7916 63.5581 63.7893 63.5739 63.7908 63.5896C63.7924 63.6053 63.7978 63.6203 63.8066 63.6334C63.8153 63.6465 63.8272 63.6572 63.8411 63.6646C63.855 63.672 63.8705 63.6758 63.8862 63.6758H68.33C68.3457 63.6758 68.3612 63.672 68.3751 63.6646C68.389 63.6572 68.4009 63.6465 68.4096 63.6334C68.4184 63.6203 68.4238 63.6053 68.4254 63.5896C68.4269 63.5739 68.4246 63.5581 68.4186 63.5436L66.1967 58.1169C66.1895 58.0992 66.1773 58.0842 66.1615 58.0735C66.1457 58.0629 66.1271 58.0572 66.1081 58.0572C66.0891 58.0572 66.0705 58.0629 66.0547 58.0735C66.0389 58.0842 66.0267 58.0992 66.0195 58.1169L63.7976 63.5436Z" fill="white"/>
<path d="M43.9766 57.006C43.9766 56.9586 43.9954 56.9132 44.0289 56.8797C44.0624 56.8462 44.1078 56.8274 44.1552 56.8274H48.3191C49.0337 56.8274 49.719 57.0833 50.2243 57.5387C50.7296 57.9942 51.0134 58.6119 51.0134 59.256V59.5569C51.0134 60.201 50.7296 60.8187 50.2243 61.2742C49.719 61.7296 49.0337 61.9855 48.3191 61.9855H44.1552C44.1078 61.9855 44.0624 61.9667 44.0289 61.9332C43.9954 61.8997 43.9766 61.8543 43.9766 61.8069V57.006Z" fill="#010001" fill-opacity="0.01"/>
<path d="M63.7978 63.5435L66.0197 58.1168C66.0268 58.0991 66.0391 58.0841 66.0549 58.0734C66.0706 58.0628 66.0892 58.0571 66.1083 58.0571C66.1273 58.0571 66.1459 58.0628 66.1617 58.0734C66.1774 58.0841 66.1897 58.0991 66.1969 58.1168L68.4187 63.5435C68.4247 63.558 68.4271 63.5738 68.4255 63.5895C68.424 63.6052 68.4186 63.6202 68.4098 63.6333C68.401 63.6464 68.3892 63.6571 68.3753 63.6645C68.3614 63.6719 68.3459 63.6757 68.3301 63.6757H63.8864C63.8706 63.6757 63.8551 63.6719 63.8412 63.6645C63.8273 63.6571 63.8155 63.6464 63.8067 63.6333C63.798 63.6202 63.7926 63.6052 63.791 63.5895C63.7894 63.5738 63.7918 63.558 63.7978 63.5435Z" fill="#010001" fill-opacity="0.01"/>
<path d="M75.3345 74.3225H23.7617C23.7035 74.3225 23.6562 74.3697 23.6562 74.428V77.668C23.6562 77.7262 23.7035 77.7734 23.7617 77.7734H75.3345C75.3928 77.7734 75.44 77.7262 75.44 77.668V74.428C75.44 74.3697 75.3928 74.3225 75.3345 74.3225Z" fill="white"/>
<path d="M53.9414 83.8077C53.49 83.5461 52.3087 83.4857 52.0584 82.9133C51.7729 82.258 51.8573 81.5155 52.559 81.1836C53.2692 80.8476 54.0145 81.0374 54.7148 81.3397C54.7462 81.3532 54.7742 81.3735 54.7968 81.3991C54.8195 81.4247 54.8361 81.4551 54.8457 81.488C54.8552 81.5209 54.8574 81.5556 54.852 81.5895C54.8467 81.6234 54.8339 81.6558 54.8147 81.6843L54.5433 82.0822C54.5281 82.1051 54.5047 82.1213 54.4779 82.1276C54.451 82.1338 54.4226 82.1297 54.3984 82.116C54.0089 81.891 52.8234 81.5169 52.739 82.22C52.7343 82.2632 52.7442 82.303 52.7686 82.3396C53.1145 82.8402 53.9217 82.746 54.4308 83.0329C55.7526 83.7824 54.9145 85.3349 53.6123 85.3546C53.099 85.3616 52.0936 85.214 51.7926 84.733C51.7636 84.688 51.7659 84.6444 51.7997 84.6022L52.1386 84.186C52.1533 84.168 52.1737 84.1556 52.1965 84.1507C52.2192 84.1459 52.2429 84.1489 52.2637 84.1593C52.7306 84.3829 53.6433 84.9158 54.0567 84.3632C54.0886 84.3202 54.1111 84.2709 54.1227 84.2185C54.1342 84.1662 54.1346 84.112 54.1237 84.0596C54.1128 84.0071 54.0909 83.9575 54.0595 83.9141C54.0281 83.8707 53.9878 83.8344 53.9414 83.8077Z" fill="white"/>
<path d="M57.6566 81.8291L56.5611 81.8137C56.5152 81.8137 56.4922 81.7907 56.4922 81.7448V81.1485C56.4922 81.1007 56.5156 81.0768 56.5625 81.0768L59.9783 81.0388C60.0027 81.0388 60.0144 81.0505 60.0134 81.074L60.005 81.7448C60.0041 81.7879 59.982 81.8099 59.9389 81.8108L58.925 81.8362C58.7844 81.8399 58.7136 81.9126 58.7127 82.0541L58.7 85.3307C58.7 85.3654 58.6827 85.3823 58.648 85.3813L57.8225 85.3616C57.7766 85.3598 57.7536 85.3363 57.7536 85.2913L57.7592 81.9332C57.7592 81.9058 57.7485 81.8796 57.7292 81.8601C57.71 81.8406 57.6839 81.8295 57.6566 81.8291Z" fill="white"/>
<path d="M70.652 81.7377C70.6267 81.5034 70.6243 81.269 70.6449 81.0346C70.6459 81.0234 70.6566 81.0168 70.6773 81.0149C70.6809 81.0147 70.6845 81.0153 70.6879 81.0165C70.6913 81.0178 70.6945 81.0197 70.6971 81.0222C70.6997 81.0247 70.7018 81.0278 70.7032 81.0311C70.7047 81.0344 70.7054 81.038 70.7054 81.0416L70.7096 81.8137C70.7098 81.8187 70.7086 81.8237 70.7062 81.8281C70.7038 81.8325 70.7003 81.8362 70.696 81.8388C70.6917 81.8413 70.6868 81.8427 70.6817 81.8428C70.6767 81.8428 70.6718 81.8415 70.6674 81.839C70.6206 81.8137 70.6154 81.7799 70.652 81.7377Z" fill="#A6A8AB"/>
<path d="M29.8438 82.1033V82.6602C29.8438 82.707 29.8672 82.7305 29.9141 82.7305H31.7056C31.7427 82.7308 31.7781 82.7457 31.8041 82.7717C31.8302 82.7978 31.8448 82.833 31.8448 82.8697L31.8434 83.4575C31.8434 83.4885 31.8311 83.5181 31.8093 83.54C31.7874 83.5619 31.7577 83.5742 31.7267 83.5742H29.9141C29.8672 83.5742 29.8438 83.5977 29.8438 83.6445V84.3828C29.8438 84.4531 29.8789 84.4883 29.9492 84.4883H32.0544C32.0809 84.4883 32.1063 84.4989 32.125 84.5179C32.1437 84.5369 32.1542 84.5627 32.1542 84.5895V85.197C32.1542 85.2324 32.1404 85.2663 32.1157 85.2915C32.091 85.3167 32.0573 85.3313 32.022 85.332C31.1502 85.3475 29.8663 85.5092 29.0914 85.3166C29.0552 85.3072 29.0232 85.2861 29.0003 85.2566C28.9774 85.2271 28.9649 85.1908 28.9648 85.1534V81.1484C28.9648 81.1016 28.9883 81.0781 29.0352 81.0781H32.0361C32.098 81.0781 32.1289 81.1086 32.1289 81.1695V81.725C32.1289 81.7822 32.1008 81.8108 32.0445 81.8108L30.118 81.8277C29.9352 81.8286 29.8438 81.9205 29.8438 82.1033Z" fill="white"/>
<path d="M33.804 85.3561C33.7805 85.3556 33.7574 85.3495 33.7369 85.338C33.7163 85.3266 33.6989 85.3104 33.6861 85.2906C33.6734 85.2709 33.6656 85.2484 33.6636 85.225C33.6616 85.2015 33.6654 85.178 33.6746 85.1564L35.4015 81.1345C35.4211 81.0876 35.4563 81.0651 35.5069 81.067L36.2086 81.0825C36.2368 81.0834 36.2565 81.097 36.2677 81.1233L38.0213 85.2478C38.0264 85.2599 38.0284 85.2731 38.0272 85.2862C38.026 85.2992 38.0215 85.3118 38.0143 85.3228C38.0071 85.3338 37.9973 85.3428 37.9857 85.3491C37.9742 85.3554 37.9613 85.3587 37.9482 85.3589L37.1776 85.3701C37.1241 85.3711 37.0941 85.3453 37.0876 85.2928C37.0388 84.9553 36.908 84.6609 36.6952 84.4097C36.6605 84.3684 36.616 84.3478 36.5616 84.3478H34.9754C34.9516 84.3478 34.9284 84.3547 34.9086 84.3677C34.8888 84.3807 34.8734 84.3992 34.8643 84.4209L34.4986 85.2914C34.4894 85.3126 34.4744 85.3307 34.4553 85.3432C34.4363 85.3557 34.4142 85.3622 34.3918 85.3617L33.804 85.3561ZM36.1102 82.874C36.0577 82.7728 36.031 82.7428 36.0301 82.784C36.046 82.5872 35.9865 82.4343 35.8515 82.3256C35.838 82.315 35.8222 82.3077 35.8054 82.3042C35.7886 82.3008 35.7712 82.3014 35.7547 82.3059C35.7381 82.3104 35.7229 82.3187 35.7101 82.3302C35.6974 82.3417 35.6875 82.356 35.6813 82.372L35.528 82.7658C35.5253 82.772 35.5239 82.7788 35.5239 82.7858C35.5239 82.7928 35.5253 82.7999 35.528 82.8065C35.5561 82.8684 35.5407 82.912 35.4816 82.9373C35.4497 82.9504 35.4272 82.9729 35.4141 83.0048L35.2496 83.4042C35.2438 83.4184 35.2416 83.4338 35.2432 83.4491C35.2448 83.4643 35.2501 83.4789 35.2588 83.4916C35.2674 83.5043 35.2791 83.5146 35.2927 83.5217C35.3063 83.5288 35.3214 83.5324 35.3368 83.5322L36.3015 83.5209C36.384 83.52 36.4069 83.4825 36.3704 83.4084L36.1102 82.874Z" fill="white"/>
<path d="M36.1099 82.874C36.0574 82.7728 36.0307 82.7428 36.0298 82.784" stroke="#D3D4D5" stroke-width="0.28125"/>
<path d="M65.699 85.3672L65.4177 85.3743L64.9691 85.3658C64.9194 85.3649 64.8838 85.3419 64.8622 85.2969L64.4826 84.4954C64.4616 84.4512 64.4285 84.4139 64.3872 84.3878C64.3459 84.3616 64.298 84.3477 64.2491 84.3477H62.7712C62.7403 84.3477 62.71 84.3563 62.6837 84.3724C62.6574 84.3885 62.6361 84.4116 62.6221 84.4391L62.1918 85.2969C62.1833 85.3139 62.1703 85.3284 62.1543 85.3388C62.1382 85.3491 62.1196 85.3551 62.1004 85.356L61.3663 85.3883C61.3297 85.3902 61.3152 85.3733 61.3227 85.3377C61.363 85.1352 61.4268 84.9435 61.514 84.7625C62.0877 83.5729 62.5743 82.3311 63.0819 81.1133C63.1044 81.0599 63.1443 81.0341 63.2015 81.036L63.9679 81.0641C64.0326 81.066 64.063 81.0993 64.0593 81.1639C64.0583 81.193 64.0565 81.2216 64.0537 81.2497C64.0518 81.2769 64.0555 81.3022 64.0649 81.3257C64.7887 83.0694 65.3155 84.2961 65.6455 85.0058C65.7027 85.1286 65.7205 85.2491 65.699 85.3672ZM62.9891 83.3577C62.961 83.3652 62.9432 83.3863 62.9357 83.421C62.9226 83.4763 62.9446 83.504 63.0018 83.504H63.9763C64.0419 83.504 64.0626 83.4735 64.0382 83.4125L63.5741 82.2819C63.5699 82.2721 63.563 82.2635 63.5543 82.2573C63.5456 82.251 63.5353 82.2472 63.5246 82.2464C63.5139 82.2455 63.5032 82.2476 63.4936 82.2523C63.484 82.2571 63.4758 82.2644 63.4701 82.2735C63.2704 82.5922 63.1283 82.9344 63.044 83.3C63.0374 83.33 63.0191 83.3493 62.9891 83.3577Z" fill="white"/>
<path d="M69.2356 85.3348C68.8849 85.4211 68.592 85.3897 68.3567 85.2406L68.3482 82.1019C68.3479 82.026 68.3175 81.9534 68.2637 81.8999C68.2099 81.8464 68.1372 81.8164 68.0613 81.8164H67.167C67.1427 81.8164 67.1195 81.8068 67.1023 81.7896C67.0852 81.7725 67.0756 81.7492 67.0756 81.725L67.0728 81.1316C67.0728 81.0725 67.1023 81.043 67.1613 81.043H70.4801C70.5002 81.043 70.5196 81.051 70.5338 81.0652C70.548 81.0795 70.556 81.0988 70.556 81.1189L70.5532 81.725C70.5532 81.749 70.5436 81.772 70.5265 81.7891C70.5094 81.8062 70.4862 81.816 70.4618 81.8164L69.5196 81.8178C69.3396 81.8178 69.2492 81.9078 69.2482 82.0878L69.2356 85.3348Z" fill="white"/>
<path d="M75.4008 85.2181C75.4374 85.2809 75.4013 85.3296 75.2925 85.3643H72.3507C72.2944 85.3643 72.2658 85.3362 72.2649 85.2799L72.2354 81.1245C72.2354 81.1025 72.2442 81.0814 72.2601 81.0658C72.2759 81.0502 72.2973 81.0415 72.3197 81.0415L75.3558 81.0471C75.413 81.0471 75.4416 81.0757 75.4416 81.1329V81.746C75.4416 81.792 75.4182 81.8149 75.3713 81.8149L73.29 81.8192C73.2572 81.8191 73.2248 81.8257 73.1946 81.8385C73.1644 81.8513 73.1372 81.87 73.1144 81.8935C73.0917 81.917 73.074 81.9448 73.0624 81.9753C73.0507 82.0058 73.0454 82.0383 73.0468 82.0709L73.0678 82.632C73.0686 82.6583 73.0797 82.6834 73.0989 82.7018C73.1181 82.7202 73.1438 82.7304 73.1705 82.7304H74.9705C74.9969 82.7304 75.0222 82.7407 75.0411 82.7591C75.06 82.7775 75.071 82.8025 75.0718 82.8289L75.0914 83.4518C75.092 83.4677 75.0894 83.4835 75.0837 83.4983C75.078 83.5131 75.0694 83.5267 75.0584 83.5381C75.0473 83.5495 75.0341 83.5586 75.0195 83.5648C75.0049 83.571 74.9892 83.5742 74.9733 83.5742H73.1972C73.1138 83.5742 73.0711 83.6159 73.0693 83.6993L73.0524 84.3813C73.0505 84.4526 73.0852 84.4882 73.1564 84.4882H75.3727C75.4205 84.4882 75.443 84.5121 75.4402 84.5599L75.4008 85.2181Z" fill="white"/>
<path d="M24.5352 84.0496V85.266C24.5352 85.2759 24.5333 85.2857 24.5295 85.2949C24.5258 85.304 24.5202 85.3123 24.5133 85.3192C24.5064 85.3261 24.4981 85.3316 24.4891 85.3353C24.4801 85.3389 24.4704 85.3407 24.4607 85.3405L23.8644 85.3307C23.7257 85.3279 23.6568 85.2571 23.6577 85.1183L23.669 81.1569C23.669 81.1072 23.6938 81.0819 23.7435 81.081C24.5802 81.0683 26.414 80.7843 27.0257 81.7546C27.5558 82.5955 27.0398 83.3099 26.3254 83.8133C26.286 83.8415 26.2799 83.8747 26.3071 83.9132L27.2662 85.2533C27.3008 85.3021 27.2882 85.3279 27.2282 85.3307L26.3873 85.3785C26.3329 85.3813 26.2902 85.3602 26.2593 85.3152L25.3916 84.0257C25.3834 84.0135 25.3724 84.0035 25.3594 83.9964C25.3464 83.9893 25.3319 83.9854 25.3171 83.9849L24.6238 83.9652C24.5648 83.9633 24.5352 83.9915 24.5352 84.0496ZM24.5324 82.1315V82.8458C24.5324 82.8867 24.5405 82.9271 24.5561 82.9648C24.5717 83.0025 24.5946 83.0367 24.6234 83.0656C24.6523 83.0945 24.6866 83.1174 24.7243 83.133C24.762 83.1486 24.8024 83.1566 24.8432 83.1566H25.4563C25.5614 83.1566 25.6654 83.1399 25.7625 83.1075C25.8596 83.0751 25.9478 83.0275 26.0221 82.9676C26.0964 82.9076 26.1554 82.8365 26.1956 82.7582C26.2358 82.6799 26.2565 82.5959 26.2565 82.5112V82.4662C26.2565 82.3814 26.2358 82.2975 26.1956 82.2191C26.1554 82.1408 26.0964 82.0697 26.0221 82.0097C25.9478 81.9498 25.8596 81.9023 25.7625 81.8698C25.6654 81.8374 25.5614 81.8207 25.4563 81.8207H24.8432C24.8024 81.8207 24.762 81.8287 24.7243 81.8443C24.6866 81.86 24.6523 81.8829 24.6234 81.9117C24.5946 81.9406 24.5717 81.9748 24.5561 82.0125C24.5405 82.0502 24.5324 82.0907 24.5324 82.1315Z" fill="white"/>
<path d="M40.6506 84.4882H42.6264C42.6488 84.4882 42.6703 84.4971 42.6861 84.513C42.7019 84.5288 42.7108 84.5502 42.7108 84.5726V85.2828C42.7108 85.3051 42.7019 85.3266 42.6861 85.3424C42.6703 85.3583 42.6488 85.3671 42.6264 85.3671H39.7872C39.7648 85.3671 39.7434 85.3583 39.7275 85.3424C39.7117 85.3266 39.7028 85.3051 39.7028 85.2828L39.6958 81.161C39.6958 81.1498 39.698 81.1388 39.7024 81.1284C39.7067 81.1181 39.713 81.1087 39.721 81.1009C39.729 81.093 39.7385 81.0868 39.7489 81.0827C39.7593 81.0785 39.7704 81.0765 39.7816 81.0767L40.4833 81.0837C40.5054 81.0841 40.5265 81.0931 40.5421 81.1089C40.5576 81.1247 40.5663 81.1459 40.5663 81.1681V84.4039C40.5663 84.4149 40.5685 84.4259 40.5727 84.4361C40.5769 84.4464 40.5831 84.4557 40.591 84.4635C40.5988 84.4714 40.6081 84.4776 40.6184 84.4818C40.6286 84.4861 40.6396 84.4882 40.6506 84.4882Z" fill="white"/>
<path d="M47.9141 83.667V84.3828C47.9141 84.4541 47.9492 84.4897 48.0195 84.4897L50.1148 84.4855C50.1711 84.4855 50.1992 84.5141 50.1992 84.5712V85.2786C50.1992 85.3377 50.1697 85.3672 50.1106 85.3672H47.2461C47.1901 85.3672 47.1365 85.345 47.0969 85.3054C47.0574 85.2658 47.0352 85.2122 47.0352 85.1562V81.1484C47.0352 81.1298 47.0426 81.1119 47.0558 81.0987C47.0689 81.0855 47.0868 81.0781 47.1055 81.0781H50.0769C50.135 81.0781 50.1641 81.1077 50.1641 81.1667V81.7517C50.1641 81.8108 50.1345 81.8384 50.0755 81.8347C49.4806 81.8052 48.5497 81.7208 47.9914 81.8867C47.9691 81.8931 47.9494 81.9068 47.9355 81.9256C47.9215 81.9443 47.914 81.9672 47.9141 81.9908V82.6602C47.9141 82.707 47.9375 82.7305 47.9844 82.7305H49.7295C49.7562 82.7305 49.7823 82.7384 49.8046 82.7532C49.8268 82.7679 49.8442 82.7889 49.8547 82.8134C49.9503 83.0403 49.9531 83.2709 49.8631 83.5053C49.8557 83.5251 49.8425 83.5421 49.8251 83.5542C49.8078 83.5662 49.7872 83.5727 49.7661 83.5728L48.0055 83.5756C47.9812 83.5756 47.958 83.5853 47.9408 83.6024C47.9237 83.6195 47.9141 83.6428 47.9141 83.667Z" fill="white"/>
<path d="M24.5322 82.1313C24.5322 82.0905 24.5403 82.0501 24.5559 82.0124C24.5715 81.9747 24.5944 81.9404 24.6233 81.9116C24.6521 81.8827 24.6864 81.8598 24.7241 81.8442C24.7618 81.8286 24.8022 81.8206 24.843 81.8206H25.4561C25.5612 81.8206 25.6653 81.8373 25.7623 81.8697C25.8594 81.9021 25.9476 81.9497 26.0219 82.0096C26.0962 82.0695 26.1552 82.1407 26.1954 82.219C26.2356 82.2973 26.2563 82.3813 26.2563 82.466V82.511C26.2563 82.5958 26.2356 82.6797 26.1954 82.758C26.1552 82.8363 26.0962 82.9075 26.0219 82.9674C25.9476 83.0274 25.8594 83.0749 25.7623 83.1074C25.6653 83.1398 25.5612 83.1565 25.4561 83.1565H24.843C24.8022 83.1565 24.7618 83.1485 24.7241 83.1328C24.6864 83.1172 24.6521 83.0943 24.6233 83.0655C24.5944 83.0366 24.5715 83.0024 24.5559 82.9646C24.5403 82.9269 24.5322 82.8865 24.5322 82.8457V82.1313Z" fill="#010001" fill-opacity="0.01"/>
<path d="M67.6032 82.0779C67.8727 82.0765 68.0911 82.054 68.0909 82.0276C68.0908 82.0012 67.8722 81.9809 67.6027 81.9823C67.3332 81.9837 67.1149 82.0063 67.115 82.0327C67.1151 82.0591 67.3337 82.0793 67.6032 82.0779Z" fill="#A6A8AB"/>
<path d="M69.8407 82.0781C70.0403 82.0763 70.2019 82.0548 70.2017 82.0299C70.2015 82.005 70.0395 81.9863 69.8399 81.9881C69.6403 81.9898 69.4787 82.0114 69.4789 82.0362C69.4791 82.0611 69.6411 82.0798 69.8407 82.0781Z" fill="#A6A8AB"/>
<path d="M73.8652 82.012C73.8652 82.0075 73.867 82.0032 73.8702 82.0001C73.8733 81.9969 73.8776 81.9951 73.8821 81.9951L75.2504 81.9979C75.2708 81.998 75.2905 82.0009 75.305 82.0062C75.3195 82.0115 75.3276 82.0186 75.3277 82.0261V82.0373C75.3278 82.041 75.3258 82.0447 75.3219 82.0481C75.3181 82.0515 75.3124 82.0546 75.3052 82.0572C75.298 82.0599 75.2895 82.0619 75.2801 82.0633C75.2707 82.0647 75.2606 82.0654 75.2504 82.0654L73.8821 82.0626C73.8776 82.0626 73.8733 82.0608 73.8702 82.0577C73.867 82.0545 73.8652 82.0502 73.8652 82.0457V82.012Z" fill="#A6A8AB"/>
<path d="M73.2461 82.0906C73.2902 81.994 73.3094 81.9987 73.3037 82.1046L73.2869 82.4182C73.2872 82.4311 73.2825 82.4434 73.2737 82.4525C73.2648 82.4616 73.2526 82.4667 73.2398 82.4667C73.2269 82.4667 73.2144 82.4616 73.205 82.4525C73.1957 82.4434 73.1902 82.4311 73.1898 82.4182C73.1805 82.3038 73.1992 82.1946 73.2461 82.0906Z" fill="#A6A8AB"/>
<path d="M63.0441 83.3C63.1285 82.9343 63.2705 82.5922 63.4702 82.2734C63.476 82.2643 63.4841 82.257 63.4937 82.2523C63.5033 82.2475 63.514 82.2454 63.5247 82.2463C63.5354 82.2472 63.5457 82.2509 63.5544 82.2572C63.5632 82.2635 63.57 82.272 63.5742 82.2818L64.0383 83.4125C64.0627 83.4734 64.0421 83.5039 63.9764 83.5039H63.0019C62.9447 83.5039 62.9227 83.4762 62.9358 83.4209C62.9433 83.3862 62.9611 83.3651 62.9892 83.3576C63.0192 83.3492 63.0375 83.33 63.0441 83.3Z" fill="#010001" fill-opacity="0.01"/>
<path d="M36.0301 82.784C35.9457 82.7643 35.8585 82.7062 35.7685 82.6096C35.7498 82.5899 35.7329 82.5913 35.7179 82.6138C35.7076 82.6288 35.7071 82.6424 35.7165 82.6546C35.8299 82.7915 35.9612 82.8646 36.1102 82.874L36.3704 83.4084C36.4069 83.4824 36.384 83.5199 36.3015 83.5209L35.3368 83.5321C35.3214 83.5323 35.3063 83.5287 35.2927 83.5217C35.2791 83.5146 35.2674 83.5043 35.2588 83.4916C35.2501 83.4789 35.2448 83.4643 35.2432 83.449C35.2416 83.4338 35.2438 83.4183 35.2496 83.4042L35.4141 83.0048C35.4273 82.9729 35.4498 82.9504 35.4816 82.9373C35.5407 82.912 35.5562 82.8684 35.528 82.8065C35.5253 82.7998 35.5239 82.7928 35.5239 82.7858C35.5239 82.7788 35.5253 82.772 35.528 82.7657L35.6813 82.372C35.6875 82.356 35.6974 82.3417 35.7101 82.3302C35.7229 82.3187 35.7381 82.3104 35.7547 82.3059C35.7712 82.3014 35.7886 82.3008 35.8054 82.3042C35.8222 82.3076 35.838 82.3149 35.8515 82.3256C35.9865 82.4343 36.046 82.5871 36.0301 82.784Z" fill="#010001" fill-opacity="0.01"/>
<path d="M36.0298 82.7839C36.0307 82.7426 36.0574 82.7726 36.1099 82.8739C35.9609 82.8645 35.8296 82.7914 35.7162 82.6545C35.7068 82.6423 35.7073 82.6287 35.7176 82.6137C35.7326 82.5912 35.7495 82.5898 35.7682 82.6095C35.8582 82.706 35.9454 82.7642 36.0298 82.7839Z" fill="#A6A8AB"/>
<path d="M73.2882 83.8654L73.2713 84.2127C73.2666 84.3121 73.2507 84.314 73.2235 84.2184C73.1841 84.0815 73.1799 83.9596 73.2108 83.8527C73.2134 83.8433 73.2193 83.8351 73.2275 83.8298C73.2357 83.8245 73.2456 83.8224 73.2553 83.824C73.2649 83.8256 73.2736 83.8307 73.2797 83.8383C73.2858 83.846 73.2888 83.8556 73.2882 83.8654Z" fill="#A6A8AB"/>
<path d="M65.4175 85.3742L65.6987 85.3672C65.7512 85.3747 65.8051 85.347 65.8604 85.2842C65.8664 85.2769 65.875 85.2723 65.8844 85.2714C65.8938 85.2705 65.9031 85.2733 65.9104 85.2793C65.9176 85.2853 65.9222 85.2939 65.9232 85.3032C65.9241 85.3126 65.9213 85.3219 65.9153 85.3292L65.852 85.415C65.8229 85.4544 65.784 85.468 65.7353 85.4558L65.4175 85.3742Z" fill="#A6A8AB"/>
<path d="M68.3567 85.2407C68.592 85.3898 68.885 85.4212 69.2356 85.3349C69.2525 85.3603 69.2595 85.386 69.2567 85.4123C69.252 85.4535 69.23 85.4695 69.1906 85.4601C68.9263 85.3973 68.6623 85.3884 68.3989 85.4334C68.3633 85.439 68.3464 85.424 68.3483 85.3884L68.3567 85.2407Z" fill="#A6A8AB"/>
<path d="M75.4008 85.218C75.4701 85.2986 75.4861 85.3652 75.4486 85.4177C75.412 85.4702 75.374 85.4711 75.3347 85.4205L75.2925 85.3643C75.4012 85.3296 75.4373 85.2808 75.4008 85.218Z" fill="#A6A8AB"/>
</g>
<defs>
<clipPath id="clip0_71_926">
<rect width="59.3438" height="72" fill="white" transform="translate(20 14)"/>
</clipPath>
</defs>
</svg>
