<svg width="100" height="100" viewBox="0 0 100 100" fill="none" xmlns="http://www.w3.org/2000/svg">
<rect width="100" height="100" fill="#092132"/>
<path d="M65.2298 17.1248L65.1898 30.5748C65.1898 30.7881 65.1165 30.9715 64.9698 31.1248C64.8965 31.1981 64.8198 31.2781 64.7398 31.3648C59.5098 31.4248 53.2498 30.8348 48.7798 33.1148C39.9698 37.6048 40.2298 44.9948 40.2498 53.8948C40.3365 53.6081 40.1665 53.5981 39.7398 53.8648L26.5098 53.7848C25.7765 53.6315 25.5565 53.6881 25.8498 53.9548C25.9298 52.7081 25.9632 50.0515 25.9498 45.9848C25.8898 30.4948 38.6598 18.4748 53.7398 17.2748C57.6198 16.9681 61.4498 16.9181 65.2298 17.1248Z" fill="#4DB5E2"/>
<path d="M40.2202 68.205C39.8802 68.005 39.8602 67.985 40.1602 68.145L40.0702 54.365C40.0702 54.2516 40.0269 54.155 39.9402 54.075C39.8802 54.015 39.8136 53.945 39.7402 53.865C40.1669 53.5983 40.3369 53.6083 40.2502 53.895C50.2902 53.395 59.5502 55.215 64.0602 44.045C65.4702 40.555 64.9302 36.085 65.1702 32.095C65.1836 31.8816 65.1136 31.705 64.9602 31.565L64.7402 31.365C64.8202 31.2783 64.8969 31.1983 64.9702 31.125C65.1169 30.9716 65.1902 30.7883 65.1902 30.575L65.2302 17.125L77.6302 17.055C77.8745 17.0536 78.1166 17.1005 78.3428 17.1927C78.569 17.285 78.7747 17.4209 78.9484 17.5927C79.122 17.7645 79.2601 17.9688 79.3548 18.1939C79.4495 18.4191 79.4989 18.6607 79.5002 18.905C79.5102 27.985 80.6102 40.065 78.0602 47.935C74.1102 60.105 62.6302 67.885 50.0002 68.125C46.7669 68.185 43.5069 68.2116 40.2202 68.205Z" fill="#1579BE"/>
<path d="M25.85 53.9549C25.5567 53.6882 25.7767 53.6316 26.51 53.7849L26.17 54.0449C26.092 54.107 26.0291 54.1869 25.9858 54.2787C25.9425 54.3704 25.92 54.4717 25.92 54.5749L25.87 68.2049C26.39 68.3782 26.35 68.4349 25.75 68.3749L20.69 68.2049C20.5052 68.1997 20.3297 68.1226 20.2008 67.99C20.072 67.8574 19.9999 67.6798 20 67.4949V54.4349C20 53.9682 20.2367 53.7416 20.71 53.7549L25.85 53.9549Z" fill="#1579BE"/>
<path d="M40.16 68.1448C39.86 67.9848 39.88 68.0048 40.22 68.2048L40.21 82.2448C40.21 82.5714 40.0467 82.7347 39.72 82.7347H26.52C26.3184 82.7347 26.1251 82.6536 25.9826 82.5092C25.8401 82.3648 25.76 82.169 25.76 81.9648L25.75 68.3747C26.35 68.4347 26.39 68.3781 25.87 68.2048L40.16 68.1448Z" fill="#4DB5E2"/>
</svg>
