<svg width="100" height="100" viewBox="0 0 100 100" fill="none" xmlns="http://www.w3.org/2000/svg">
<rect width="100" height="100" fill="#109AD9"/>
<path d="M87.4 49.7C87.4 59.6987 83.428 69.2878 76.3579 76.3579C69.2878 83.428 59.6987 87.4 49.7 87.4C39.7014 87.4 30.1122 83.428 23.0421 76.3579C15.972 69.2878 12 59.6987 12 49.7C12 39.7013 15.972 30.1122 23.0421 23.0421C30.1122 15.972 39.7014 12 49.7 12C59.6987 12 69.2878 15.972 76.3579 23.0421C83.428 30.1122 87.4 39.7013 87.4 49.7Z" fill="#0093D6"/>
<path d="M86.0501 49.7001C86.0501 59.3434 82.2193 68.5917 75.4005 75.4105C68.5817 82.2293 59.3334 86.0601 49.6901 86.0601C40.0468 86.0601 30.7985 82.2293 23.9797 75.4105C17.1609 68.5917 13.3301 59.3434 13.3301 49.7001C13.3301 40.0568 17.1609 30.8085 23.9797 23.9897C30.7985 17.1709 40.0468 13.3401 49.6901 13.3401C59.3334 13.3401 68.5817 17.1709 75.4005 23.9897C82.2193 30.8085 86.0501 40.0568 86.0501 49.7001Z" fill="white"/>
<path d="M84.4 49.72C84.4 58.9283 80.742 67.7595 74.2307 74.2707C67.7195 80.782 58.8883 84.44 49.68 84.44C40.4716 84.44 31.6405 80.782 25.1292 74.2707C18.6179 67.7595 14.96 58.9283 14.96 49.72C14.96 40.5117 18.6179 31.6805 25.1292 25.1693C31.6405 18.658 40.4716 15 49.68 15C58.8883 15 67.7195 18.658 74.2307 25.1693C80.742 31.6805 84.4 40.5117 84.4 49.72Z" fill="#0093D6"/>
<path d="M83.2099 49.71C83.2099 58.5974 79.6794 67.1208 73.3951 73.4051C67.1108 79.6894 58.5874 83.22 49.7 83.22C40.8125 83.22 32.2891 79.6894 26.0048 73.4051C19.7204 67.1208 16.1899 58.5974 16.1899 49.71C16.1899 40.8225 19.7204 32.2991 26.0048 26.0148C32.2891 19.7305 40.8125 16.2 49.7 16.2C58.5874 16.2 67.1108 19.7305 73.3951 26.0148C79.6794 32.2991 83.2099 40.8225 83.2099 49.71Z" fill="white"/>
<path d="M81.4999 49.7001C81.4999 58.1367 78.1485 66.2277 72.183 72.1932C66.2174 78.1587 58.1264 81.5101 49.6899 81.5101C41.2533 81.5101 33.1624 78.1587 27.1968 72.1932C24.243 69.2394 21.8999 65.7327 20.3013 61.8733C18.7027 58.0139 17.8799 53.8775 17.8799 49.7001C17.8799 45.5228 18.7027 41.3863 20.3013 37.527C21.8999 33.6676 24.243 30.1609 27.1968 27.2071C30.1507 24.2532 33.6574 21.9101 37.5167 20.3115C41.3761 18.7129 45.5125 17.8901 49.6899 17.8901C58.1264 17.8901 66.2174 21.2415 72.183 27.2071C78.1485 33.1726 81.4999 41.2636 81.4999 49.7001Z" fill="#0093D6"/>
<path d="M80.2499 49.7001C80.2499 57.8051 77.0302 65.5782 71.2991 71.3093C65.568 77.0404 57.7949 80.2601 49.6899 80.2601C41.5849 80.2601 33.8118 77.0404 28.0807 71.3093C22.3496 65.5782 19.1299 57.8051 19.1299 49.7001C19.1299 41.5951 22.3496 33.8221 28.0807 28.091C33.8118 22.3598 41.5849 19.1401 49.6899 19.1401C57.7949 19.1401 65.568 22.3598 71.2991 28.091C77.0302 33.8221 80.2499 41.5951 80.2499 49.7001Z" fill="white"/>
<path d="M78.6997 49.6899C78.6997 57.3812 75.6443 64.7575 70.2058 70.196C64.7672 75.6346 57.391 78.6899 49.6997 78.6899C42.0084 78.6899 34.6322 75.6346 29.1936 70.196C23.755 64.7575 20.6997 57.3812 20.6997 49.6899C20.6997 41.9987 23.755 34.6224 29.1936 29.1838C34.6322 23.7453 42.0084 20.6899 49.6997 20.6899C57.391 20.6899 64.7672 23.7453 70.2058 29.1838C75.6443 34.6224 78.6997 41.9987 78.6997 49.6899Z" fill="#ED1E26"/>
<path d="M36.7599 41.81C36.7488 41.8507 36.7457 41.8932 36.751 41.9351C36.7563 41.977 36.7697 42.0174 36.7906 42.0541C36.8115 42.0908 36.8394 42.123 36.8728 42.1489C36.9061 42.1748 36.9442 42.1939 36.9849 42.205C37.0256 42.2162 37.0681 42.2192 37.11 42.214C37.1519 42.2087 37.1924 42.1952 37.229 42.1743C37.2657 42.1534 37.2979 42.1255 37.3238 42.0922C37.3497 42.0588 37.3688 42.0207 37.3799 41.98C39.0799 37.16 42.4599 35.88 47.5699 35.82C56.7633 35.7134 63.0899 35.7367 66.5499 35.89C70.2233 36.0634 72.0966 38.0334 72.1699 41.8C72.3566 51.2134 72.4099 57.36 72.3299 60.24C72.2199 64.38 62.3399 65.26 62.9199 59.03C62.9293 58.9184 62.8993 58.807 62.8352 58.7151C62.771 58.6233 62.6768 58.5567 62.5688 58.5271C62.4607 58.4974 62.3457 58.5064 62.2437 58.5526C62.1416 58.5988 62.0589 58.6793 62.0099 58.78C60.3799 62.32 57.5199 63.25 53.5899 63.28C46.6099 63.3334 39.6299 63.3067 32.6499 63.2C28.7199 63.14 27.5799 60.95 27.3999 57.24C27.0866 50.98 27.0499 44.72 27.2899 38.46C27.3029 38.1128 27.4494 37.7806 27.6999 37.53C31.2199 34 37.9899 35.64 36.7599 41.81Z" fill="white"/>
<path d="M45.3297 44.1901C44.5363 45.2034 44.533 46.0201 45.3197 46.6401C45.713 46.9534 46.293 47.1068 47.0597 47.1001C52.3597 47.0601 55.8863 47.1901 57.6397 47.4901C62.2397 48.2801 63.3097 61.7601 54.9697 61.7901C47.1497 61.8168 39.583 61.8201 32.2697 61.8001C31.79 61.7988 31.3154 61.7023 30.8735 61.516C30.4315 61.3298 30.0309 61.0575 29.695 60.7152C29.3591 60.3728 29.0946 59.967 28.9169 59.5215C28.7392 59.076 28.6517 58.5997 28.6597 58.1201L28.9597 38.4801C28.9625 38.3267 29.0104 38.1775 29.0976 38.0512C29.1847 37.9249 29.3072 37.8271 29.4497 37.7701C30.9897 37.1368 32.573 37.0668 34.1997 37.5601C34.3694 37.6121 34.5185 37.7154 34.6261 37.8552C34.7337 37.9951 34.7944 38.1647 34.7997 38.3401L35.1397 53.2501C35.1547 54.0369 35.4723 54.7879 36.0269 55.348C36.5814 55.9082 37.3306 56.2347 38.1197 56.2601C42.853 56.4134 47.643 56.3468 52.4897 56.0601C54.3697 55.9501 55.2897 55.0501 54.4297 53.1901C54.303 52.9101 54.083 52.7568 53.7697 52.7301C48.5897 52.2801 42.4597 53.7801 39.5797 50.1201C38.2797 48.4601 38.2497 43.8701 39.0097 41.9201C40.1964 38.8801 42.5697 37.3501 46.1297 37.3301C53.163 37.2834 60.1864 37.2834 67.1997 37.3301C68.1775 37.3354 69.1135 37.7286 69.8031 38.4238C70.4926 39.119 70.8797 40.0596 70.8797 41.0401V61.0401C70.8797 61.232 70.8042 61.4162 70.6694 61.5528C70.5347 61.6894 70.3515 61.7675 70.1597 61.7701L65.7897 61.8301C65.6431 61.8314 65.4977 61.8037 65.3618 61.7485C65.226 61.6933 65.1024 61.6118 64.9983 61.5086C64.8942 61.4054 64.8115 61.2825 64.7551 61.1472C64.6987 61.0119 64.6697 60.8667 64.6697 60.7201L64.5597 46.4101C64.5518 45.6629 64.2508 44.9487 63.7215 44.4212C63.1922 43.8938 62.4769 43.5953 61.7297 43.5901L46.8697 43.4601C46.5738 43.4572 46.2814 43.5214 46.0146 43.6479C45.7477 43.7744 45.5135 43.9598 45.3297 44.1901Z" fill="#ED1E26"/>
<path d="M50.8101 46.1401C49.5501 46.1501 47.5901 46.6501 46.2701 45.6601C46.2036 45.6109 46.1519 45.5443 46.1209 45.4676C46.0898 45.3909 46.0804 45.3071 46.0939 45.2255C46.1073 45.1438 46.143 45.0674 46.197 45.0048C46.251 44.9421 46.3213 44.8955 46.4001 44.8701C50.2801 43.5801 57.5401 44.9802 61.8201 45.1802C61.9755 45.1865 62.1282 45.2238 62.269 45.2899C62.4099 45.356 62.5362 45.4495 62.6405 45.5649C62.7448 45.6804 62.825 45.8155 62.8764 45.9624C62.9279 46.1092 62.9495 46.2648 62.9401 46.4201L62.6901 50.7902C62.6701 51.2035 62.5867 51.2168 62.4401 50.8301C60.0001 44.3301 56.1101 46.0801 50.8101 46.1401Z" fill="#ED1E26"/>
<path d="M37.3901 48.9799C39.4801 55.3699 46.1601 54.03 52.5001 53.45C52.5719 53.4431 52.6443 53.4507 52.713 53.4723C52.7818 53.4938 52.8456 53.5289 52.9005 53.5755C52.9555 53.6221 53.0006 53.6793 53.0332 53.7436C53.0657 53.8079 53.0851 53.8781 53.0901 53.95L53.1301 54.47C53.1568 54.7566 53.0235 54.8966 52.7301 54.89L37.4801 54.45C37.3219 54.4448 37.1719 54.3793 37.0618 54.2673C36.9517 54.1553 36.8901 54.0057 36.8901 53.85L36.8701 49.06C36.8701 47.94 37.0434 47.9133 37.3901 48.9799Z" fill="#ED1E26"/>
</svg>
