<svg width="100" height="100" viewBox="0 0 100 100" fill="none" xmlns="http://www.w3.org/2000/svg">
<rect width="100" height="100" fill="#DFFFCA"/>
<path d="M49.9529 10.6318L56.2135 21.4758C56.216 21.4801 56.2173 21.485 56.2173 21.4899C56.2173 21.4948 56.216 21.4997 56.2135 21.504L50.3523 31.6618C50.3498 31.6661 50.3462 31.6696 50.342 31.6721C50.3377 31.6746 50.3328 31.6759 50.3279 31.6759C50.3229 31.6759 50.3181 31.6746 50.3138 31.6721C50.3095 31.6696 50.306 31.6661 50.3035 31.6618L44.0438 20.8149C44.0413 20.8106 44.04 20.8058 44.04 20.8008C44.04 20.7959 44.0413 20.791 44.0438 20.7868L49.9041 10.6318C49.9066 10.6275 49.9102 10.6239 49.9144 10.6215C49.9187 10.619 49.9236 10.6177 49.9285 10.6177C49.9335 10.6177 49.9383 10.619 49.9426 10.6215C49.9469 10.6239 49.9504 10.6275 49.9529 10.6318Z" fill="#FFBF00"/>
<path d="M43.8139 88.3598C26.217 84.0482 18.0758 63.7701 27.9233 48.5807C28.3614 47.9045 28.6917 47.3742 28.9142 46.9898C33.1686 39.626 37.4189 32.2635 41.6652 24.9023C41.6688 24.8961 41.674 24.8909 41.6803 24.8873C41.6865 24.8837 41.6936 24.8818 41.7008 24.8818C41.708 24.8818 41.7151 24.8837 41.7213 24.8873C41.7276 24.8909 41.7328 24.8961 41.7364 24.9023L47.9718 35.706C47.988 35.7342 47.9877 35.7623 47.9708 35.7904C44.2218 42.1542 40.0724 48.3876 36.7733 54.8901C36.0524 56.3104 35.307 57.9754 34.797 59.5429C31.3667 70.0889 35.0042 81.6173 43.828 88.3307C43.8307 88.3332 43.8324 88.3364 43.8331 88.34C43.8338 88.3436 43.8333 88.3472 43.8317 88.3505C43.8302 88.3537 43.8276 88.3564 43.8244 88.3581C43.8212 88.3598 43.8175 88.3604 43.8139 88.3598Z" fill="#FFBF00"/>
<path d="M52.3808 71.3837C52.3778 71.376 52.3728 71.3694 52.3662 71.3645C52.3596 71.3597 52.3518 71.3568 52.3436 71.3562C52.3355 71.3556 52.3273 71.3573 52.3201 71.3612C52.3129 71.3651 52.307 71.3709 52.3029 71.378L50.0914 75.2105C50.0805 75.2293 50.0753 75.2508 50.0765 75.2724C50.0777 75.2941 50.0851 75.3149 50.0979 75.3324C53.6473 80.1652 58.6198 77.1615 61.6873 73.8512C64.3323 70.9968 65.7714 67.6115 66.0045 63.6952C66.2258 59.979 64.7811 56.4933 62.9652 53.3415C61.4127 50.6452 59.8598 47.9558 58.3067 45.2733C58.305 45.2701 58.3024 45.2674 58.2992 45.2655C58.2961 45.2635 58.2924 45.2625 58.2887 45.2624C58.2849 45.2623 58.2811 45.2632 58.2777 45.2649C58.2743 45.2667 58.2714 45.2692 58.2692 45.2724C56.2198 48.5611 54.2386 51.8771 52.3254 55.2202C51.2745 57.0577 50.3595 58.9646 49.3001 60.7993C46.1057 66.333 42.9126 71.8649 39.7207 77.3949C39.718 77.3992 39.7143 77.4028 39.7098 77.4052C39.7053 77.4076 39.7003 77.4088 39.6953 77.4086C39.6903 77.4084 39.6855 77.4068 39.6814 77.4041C39.6773 77.4014 39.674 77.3975 39.672 77.393C37.152 71.7652 36.8538 65.2908 39.101 59.5215C40.2026 56.6949 41.5967 53.9583 43.0507 51.2996C47.5854 43.0074 52.7689 35.0921 57.673 27.0193C57.9642 26.5405 58.2483 26.0615 58.5251 25.5821C58.5284 25.5767 58.5329 25.5723 58.5384 25.5692C58.5438 25.5661 58.5499 25.5645 58.5561 25.5645C58.5623 25.5645 58.5683 25.5661 58.5736 25.5692C58.5788 25.5723 58.5831 25.5767 58.5861 25.5821C62.8036 32.899 67.0289 40.2161 71.2621 47.5336C71.3808 47.7386 71.7064 48.2721 72.2389 49.134C75.5014 54.4177 76.7539 60.7327 75.8146 66.8602C74.6511 74.4474 70.2327 81.009 63.7602 85.134C61.6983 86.4477 59.4936 87.3243 57.1461 87.7637C51.2117 88.8737 45.5548 86.0443 42.041 81.353C42.0217 81.3274 42.0201 81.3005 42.0364 81.2724L58.2589 53.1708C58.2745 53.144 58.2901 53.144 58.3058 53.1708C60.0036 56.064 61.858 59.0471 62.0661 62.4783C62.3239 66.713 60.1133 70.3955 56.8751 72.953C54.7404 74.6387 53.2414 73.5708 52.3808 71.3837Z" fill="#3E9902"/>
</svg>
