<svg width="100" height="100" viewBox="0 0 100 100" fill="none" xmlns="http://www.w3.org/2000/svg">
<rect width="100" height="100" fill="white"/>
<path d="M70.0099 41.0907L70.2405 41.2426C70.263 41.2576 70.2742 41.2763 70.2742 41.2988C70.4317 48.3151 70.4505 55.3313 70.3305 62.3476C70.329 62.4525 70.2857 62.5527 70.2099 62.6264C70.1341 62.7001 70.0319 62.7414 69.9255 62.7413L61.9043 62.8088C61.3193 62.8126 61.0249 63.1069 61.0211 63.6919L60.9143 84.7407C60.9143 84.9169 60.8261 85.0051 60.6499 85.0051H48.6012C47.7984 85.005 47.0048 84.8163 46.2837 84.4538L30.5337 76.4719C30.1662 76.2844 29.9824 75.9844 29.9824 75.5719L29.9656 37.1082C29.9656 36.8497 30.0434 36.5972 30.1889 36.3835C30.3343 36.1699 30.5407 36.0049 30.7812 35.9101L34.3305 34.5151C34.4316 34.4751 34.5192 34.4072 34.5831 34.3194C34.6471 34.2316 34.6848 34.1274 34.6919 34.0189C34.699 33.9105 34.6751 33.8023 34.6231 33.7069C34.5711 33.6115 34.493 33.5329 34.398 33.4801C32.8512 32.6251 30.0668 32.642 29.9768 30.4426C29.8006 26.0513 29.8156 21.662 30.0218 17.2745C30.0499 16.6838 29.7462 15.8063 29.7743 15.1145C29.7818 14.8482 29.9187 14.7151 30.1849 14.7151L46.1374 14.7263C46.3024 14.7263 46.4449 14.7826 46.5649 14.8951L69.7286 35.9551C69.7888 36.0081 69.8369 36.0736 69.8699 36.1473C69.9029 36.221 69.9199 36.3012 69.9199 36.3826L69.9592 41.0063C69.9592 41.0401 69.9761 41.0682 70.0099 41.0907ZM46.3292 17.6699C46.3293 17.6507 46.3256 17.6317 46.3183 17.6139C46.311 17.5961 46.3003 17.58 46.2867 17.5663C46.2732 17.5527 46.2571 17.5419 46.2394 17.5345C46.2217 17.5271 46.2027 17.5232 46.1835 17.5231L32.6499 17.4759C32.6306 17.4758 32.6116 17.4795 32.5938 17.4868C32.5761 17.4941 32.5599 17.5048 32.5463 17.5184C32.5327 17.5319 32.5218 17.548 32.5144 17.5657C32.507 17.5834 32.5032 17.6024 32.5031 17.6216L32.4569 30.8628C32.4568 30.882 32.4605 30.901 32.4678 30.9188C32.4751 30.9365 32.4858 30.9527 32.4993 30.9663C32.5129 30.98 32.529 30.9908 32.5467 30.9982C32.5644 31.0056 32.5834 31.0095 32.6026 31.0095L46.1362 31.0568C46.1554 31.0568 46.1745 31.0531 46.1922 31.0458C46.21 31.0386 46.2262 31.0278 46.2398 31.0143C46.2534 31.0008 46.2642 30.9847 46.2716 30.967C46.2791 30.9492 46.2829 30.9302 46.283 30.911L46.3292 17.6699ZM64.9083 37.3011C64.9084 37.2694 64.9022 37.2379 64.8901 37.2085C64.878 37.1792 64.8602 37.1525 64.8378 37.13C64.8154 37.1075 64.7888 37.0896 64.7594 37.0774C64.7301 37.0652 64.6987 37.0589 64.6669 37.0588L50.3682 37.0338C50.3364 37.0338 50.305 37.04 50.2756 37.0521C50.2462 37.0642 50.2195 37.082 50.197 37.1044C50.1745 37.1268 50.1567 37.1535 50.1445 37.1828C50.1323 37.2121 50.126 37.2436 50.1259 37.2753L50.0914 57.0415C50.0914 57.0733 50.0976 57.1047 50.1097 57.1341C50.1218 57.1635 50.1395 57.1902 50.162 57.2127C50.1844 57.2352 50.211 57.253 50.2403 57.2653C50.2697 57.2775 50.3011 57.2838 50.3329 57.2838L64.6316 57.3088C64.6633 57.3089 64.6948 57.3027 64.7242 57.2906C64.7535 57.2784 64.7802 57.2607 64.8027 57.2382C64.8252 57.2158 64.8431 57.1892 64.8553 57.1599C64.8675 57.1305 64.8738 57.0991 64.8739 57.0673L64.9083 37.3011ZM46.2902 37.3943C46.2902 37.361 46.2836 37.3281 46.2708 37.2975C46.258 37.2668 46.2393 37.2389 46.2158 37.2154C46.1922 37.192 46.1643 37.1734 46.1336 37.1607C46.1028 37.148 46.0699 37.1416 46.0367 37.1416L32.7054 37.1648C32.6722 37.1649 32.6393 37.1715 32.6086 37.1843C32.5779 37.1971 32.55 37.2158 32.5266 37.2393C32.5031 37.2629 32.4845 37.2908 32.4718 37.3215C32.4592 37.3523 32.4527 37.3852 32.4528 37.4184L32.5183 75.0159C32.5184 75.0491 32.525 75.082 32.5378 75.1127C32.5506 75.1434 32.5693 75.1712 32.5928 75.1947C32.6163 75.2182 32.6443 75.2368 32.675 75.2494C32.7057 75.2621 32.7387 75.2686 32.7719 75.2685L46.1031 75.2453C46.1364 75.2452 46.1693 75.2386 46.2 75.2259C46.2307 75.2131 46.2585 75.1944 46.282 75.1708C46.3055 75.1473 46.3241 75.1194 46.3367 75.0886C46.3494 75.0579 46.3559 75.025 46.3558 74.9917L46.2902 37.3943Z" fill="#05A049"/>
<path d="M46.1833 17.5233L32.6497 17.4761C32.5689 17.4758 32.5032 17.5411 32.5029 17.6218L32.4567 30.863C32.4564 30.9438 32.5217 31.0095 32.6024 31.0098L46.1361 31.057C46.2168 31.0573 46.2825 30.992 46.2828 30.9113L46.3291 17.6701C46.3293 17.5893 46.2641 17.5236 46.1833 17.5233Z" fill="white"/>
<path d="M64.667 37.0588L50.3683 37.0339C50.2348 37.0336 50.1263 37.1417 50.126 37.2753L50.0915 57.0415C50.0913 57.1751 50.1994 57.2836 50.333 57.2838L64.6317 57.3088C64.7653 57.309 64.8738 57.2009 64.874 57.0673L64.9085 37.3011C64.9087 37.1675 64.8006 37.0591 64.667 37.0588Z" fill="white"/>
<path d="M46.0365 37.1416L32.7053 37.1648C32.5655 37.1651 32.4523 37.2786 32.4526 37.4184L32.5182 75.0158C32.5185 75.1556 32.632 75.2688 32.7718 75.2685L46.103 75.2453C46.2428 75.245 46.3559 75.1315 46.3557 74.9917L46.29 37.3943C46.2898 37.2545 46.1763 37.1413 46.0365 37.1416Z" fill="white"/>
</svg>
