<svg width="100" height="100" viewBox="0 0 100 100" fill="none" xmlns="http://www.w3.org/2000/svg">
<rect width="100" height="100" fill="#071C2C"/>
<mask id="mask0_71_933" style="mask-type:alpha" maskUnits="userSpaceOnUse" x="11" y="10" width="78" height="80">
<path fill-rule="evenodd" clip-rule="evenodd" d="M49.6251 10.8086C31.4 13.7261 18.2075 27.5486 11.57 44.1836C11.53 44.2786 11.4525 44.3186 11.3375 44.3036C11.1975 44.2886 11.1425 44.2136 11.1725 44.0786C12.875 36.0311 17.3375 28.6586 23.0525 22.5911C42.635 1.78609 73.1001 8.49109 85.2726 33.1886C85.3626 33.3686 85.3826 33.5186 85.3326 33.6386C85.2676 33.7986 85.1976 33.8011 85.1226 33.6461C80.9676 25.1786 75.5301 20.0261 65.6376 19.7486C39.5675 19.0061 25.0475 47.4611 22.61 69.4061C22.59 69.6011 22.53 69.7261 22.43 69.7811C22.365 69.8211 22.2875 69.8386 22.1975 69.8336C22.0175 69.8236 21.935 69.7261 21.95 69.5411C23.9 47.9486 37.9625 15.3386 64.7076 16.6886C64.7188 16.689 64.73 16.6868 64.7402 16.6824C64.7504 16.6779 64.7593 16.6713 64.766 16.6631C64.7727 16.6549 64.777 16.6454 64.7786 16.6354C64.7802 16.6255 64.779 16.6154 64.7751 16.6061C64.7551 16.5411 64.7351 16.4786 64.7151 16.4186C64.7001 16.3786 64.6701 16.3561 64.6251 16.3511C41.4575 14.3861 25.4075 34.0736 19.73 54.3011C18.955 57.0661 18.2025 59.8436 17.4725 62.6336C17.459 62.6827 17.4308 62.7269 17.3918 62.76C17.3528 62.7931 17.3049 62.8136 17.2547 62.8185C17.2045 62.8235 17.1545 62.8127 17.1116 62.7876C17.0686 62.7625 17.0349 62.7244 17.015 62.6786C16.915 62.4636 16.8925 62.2161 16.9475 61.9361C21.08 40.6211 31.97 17.1161 55.9476 12.9686C56.0576 12.9486 56.1201 12.9036 56.1351 12.8336C56.1401 12.8086 56.1376 12.7811 56.1276 12.7511C56.1176 12.7011 56.0801 12.6786 56.0151 12.6836C32.8625 15.0086 18.4025 36.0161 13.82 57.0011C13.76 57.2611 13.605 57.3511 13.355 57.2711C13.1 57.1961 13.0025 57.0111 13.0625 56.7161C16.925 36.8786 29.1275 16.8536 49.6851 11.1836C49.7351 11.1686 49.7626 11.1336 49.7676 11.0786C49.7726 11.0086 49.7676 10.9461 49.7526 10.8911C49.7326 10.8261 49.6901 10.7986 49.6251 10.8086ZM61.5951 21.3535C75.2901 24.091 84.2301 36.5185 87.7776 49.171C89.3301 54.736 87.8376 60.556 85.5876 65.6935C85.4526 66.0035 85.3626 65.991 85.3176 65.656C83.0301 49.021 79.2276 28.861 61.4976 21.676C60.3876 21.226 60.4201 21.1185 61.5951 21.3535ZM30.6351 63.3085L30.6352 63.3086C28.2352 69.4335 26.8927 75.351 26.6077 81.061C26.5927 81.3709 26.7102 81.6134 26.9602 81.7885C46.8577 95.7459 72.9803 89.5959 84.3203 68.1684C84.438 67.9478 84.4925 67.7012 84.4778 67.4559C83.6003 51.5935 75.7628 30.1585 57.5153 27.0685C57.4814 27.064 57.4465 27.0719 57.4171 27.0905C57.3878 27.1091 57.366 27.1372 57.3558 27.1695C57.3457 27.2017 57.3479 27.236 57.3621 27.2657C57.3762 27.2955 57.4014 27.3187 57.4328 27.331C72.5228 34.321 78.4778 53.8359 78.9578 69.5184C78.9578 69.5784 78.9303 69.6134 78.8753 69.6234C78.8203 69.6284 78.7553 69.6209 78.6803 69.6009C78.6453 69.591 78.6253 69.5659 78.6203 69.5259C77.7803 55.2384 70.3778 32.971 52.4978 32.8285C52.4781 32.831 52.4598 32.84 52.4458 32.8541C52.4318 32.8681 52.4228 32.8864 52.4202 32.9061C52.4176 32.9257 52.4216 32.9457 52.4316 32.9629C52.4416 32.98 52.4569 32.9934 52.4753 33.001C67.3628 37.0885 72.7778 56.6035 73.3703 69.8109C73.4903 69.966 73.4853 70.1209 73.3553 70.2759C73.1703 70.4909 73.0703 70.4559 73.0553 70.1709C72.3428 57.5034 64.2428 35.086 46.8953 38.8735C46.8524 38.8858 46.8154 38.913 46.7909 38.9502C46.7663 38.9874 46.7558 39.0321 46.7612 39.0764C46.7666 39.1206 46.7876 39.1615 46.8204 39.1916C46.8532 39.2218 46.8957 39.2393 46.9403 39.241C60.6803 39.406 66.1703 59.8059 66.7178 70.3809C66.7478 70.9109 66.6578 70.9309 66.4478 70.4409C66.0828 69.5859 65.8953 68.6709 65.8853 67.6959C65.8852 67.696 65.8852 67.6959 65.8852 67.696C63.6276 58.981 57.5976 44.131 46.2426 46.096C43.7076 46.536 41.1851 47.961 38.6751 50.371C34.8551 54.031 32.1751 58.3435 30.6351 63.3085ZM61.8051 70.246C63.2008 69.0778 64.4165 68.281 65.4523 67.8556C64.4165 68.2811 63.2008 69.0779 61.8053 70.2459C61.1743 70.7743 60.3983 71.2382 59.5266 71.6405C60.3982 71.2382 61.1742 70.7743 61.8051 70.246ZM40.1977 72.0609C40.2344 72.0681 40.2672 72.0738 40.2961 72.0782C40.2671 72.0738 40.2343 72.0681 40.1976 72.061C40.1742 72.0563 40.1513 72.0533 40.1288 72.052C40.1513 72.0533 40.1743 72.0563 40.1977 72.0609Z" fill="#1484BC"/>
</mask>
<g mask="url(#mask0_71_933)">
<path fill-rule="evenodd" clip-rule="evenodd" d="M49.6251 10.8086C31.4 13.7261 18.2075 27.5486 11.57 44.1836C11.53 44.2786 11.4525 44.3186 11.3375 44.3036C11.1975 44.2886 11.1425 44.2136 11.1725 44.0786C12.875 36.0311 17.3375 28.6586 23.0525 22.5911C42.635 1.78609 73.1001 8.49109 85.2726 33.1886C85.3626 33.3686 85.3826 33.5186 85.3326 33.6386C85.2676 33.7986 85.1976 33.8011 85.1226 33.6461C80.9676 25.1786 75.5301 20.0261 65.6376 19.7486C39.5675 19.0061 25.0475 47.4611 22.61 69.4061C22.59 69.6011 22.53 69.7261 22.43 69.7811C22.365 69.8211 22.2875 69.8386 22.1975 69.8336C22.0175 69.8236 21.935 69.7261 21.95 69.5411C23.9 47.9486 37.9625 15.3386 64.7076 16.6886C64.7188 16.689 64.73 16.6868 64.7402 16.6824C64.7504 16.6779 64.7593 16.6713 64.766 16.6631C64.7727 16.6549 64.777 16.6454 64.7786 16.6354C64.7802 16.6255 64.779 16.6154 64.7751 16.6061C64.7551 16.5411 64.7351 16.4786 64.7151 16.4186C64.7001 16.3786 64.6701 16.3561 64.6251 16.3511C41.4575 14.3861 25.4075 34.0736 19.73 54.3011C18.955 57.0661 18.2025 59.8436 17.4725 62.6336C17.459 62.6827 17.4308 62.7269 17.3918 62.76C17.3528 62.7931 17.3049 62.8136 17.2547 62.8185C17.2045 62.8235 17.1545 62.8127 17.1116 62.7876C17.0686 62.7625 17.0349 62.7244 17.015 62.6786C16.915 62.4636 16.8925 62.2161 16.9475 61.9361C21.08 40.6211 31.97 17.1161 55.9476 12.9686C56.0576 12.9486 56.1201 12.9036 56.1351 12.8336C56.1401 12.8086 56.1376 12.7811 56.1276 12.7511C56.1176 12.7011 56.0801 12.6786 56.0151 12.6836C32.8625 15.0086 18.4025 36.0161 13.82 57.0011C13.76 57.2611 13.605 57.3511 13.355 57.2711C13.1 57.1961 13.0025 57.0111 13.0625 56.7161C16.925 36.8786 29.1275 16.8536 49.6851 11.1836C49.7351 11.1686 49.7626 11.1336 49.7676 11.0786C49.7726 11.0086 49.7676 10.9461 49.7526 10.8911C49.7326 10.8261 49.6901 10.7986 49.6251 10.8086ZM61.5951 21.3535C75.2901 24.091 84.2301 36.5185 87.7776 49.171C89.3301 54.736 87.8376 60.556 85.5876 65.6935C85.4526 66.0035 85.3626 65.991 85.3176 65.656C83.0301 49.021 79.2276 28.861 61.4976 21.676C60.3876 21.226 60.4201 21.1185 61.5951 21.3535ZM30.6351 63.3085L30.6352 63.3086C28.2352 69.4335 26.8927 75.351 26.6077 81.061C26.5927 81.3709 26.7102 81.6134 26.9602 81.7885C46.8577 95.7459 72.9803 89.5959 84.3203 68.1684C84.438 67.9478 84.4925 67.7012 84.4778 67.4559C83.6003 51.5935 75.7628 30.1585 57.5153 27.0685C57.4814 27.064 57.4465 27.0719 57.4171 27.0905C57.3878 27.1091 57.366 27.1372 57.3558 27.1695C57.3457 27.2017 57.3479 27.236 57.3621 27.2657C57.3762 27.2955 57.4014 27.3187 57.4328 27.331C72.5228 34.321 78.4778 53.8359 78.9578 69.5184C78.9578 69.5784 78.9303 69.6134 78.8753 69.6234C78.8203 69.6284 78.7553 69.6209 78.6803 69.6009C78.6453 69.591 78.6253 69.5659 78.6203 69.5259C77.7803 55.2384 70.3778 32.971 52.4978 32.8285C52.4781 32.831 52.4598 32.84 52.4458 32.8541C52.4318 32.8681 52.4228 32.8864 52.4202 32.9061C52.4176 32.9257 52.4216 32.9457 52.4316 32.9629C52.4416 32.98 52.4569 32.9934 52.4753 33.001C67.3628 37.0885 72.7778 56.6035 73.3703 69.8109C73.4903 69.966 73.4853 70.1209 73.3553 70.2759C73.1703 70.4909 73.0703 70.4559 73.0553 70.1709C72.3428 57.5034 64.2428 35.086 46.8953 38.8735C46.8524 38.8858 46.8154 38.913 46.7909 38.9502C46.7663 38.9874 46.7558 39.0321 46.7612 39.0764C46.7666 39.1206 46.7876 39.1615 46.8204 39.1916C46.8532 39.2218 46.8957 39.2393 46.9403 39.241C60.6803 39.406 66.1703 59.8059 66.7178 70.3809C66.7478 70.9109 66.6578 70.9309 66.4478 70.4409C66.0828 69.5859 65.8953 68.6709 65.8853 67.6959C65.8852 67.696 65.8852 67.6959 65.8852 67.696C63.6276 58.981 57.5976 44.131 46.2426 46.096C43.7076 46.536 41.1851 47.961 38.6751 50.371C34.8551 54.031 32.1751 58.3435 30.6351 63.3085ZM61.8051 70.246C63.2008 69.0778 64.4165 68.281 65.4523 67.8556C64.4165 68.2811 63.2008 69.0779 61.8053 70.2459C61.1743 70.7743 60.3983 71.2382 59.5266 71.6405C60.3982 71.2382 61.1742 70.7743 61.8051 70.246ZM40.1977 72.0609C40.2344 72.0681 40.2672 72.0738 40.2961 72.0782C40.2671 72.0738 40.2343 72.0681 40.1976 72.061C40.1742 72.0563 40.1513 72.0533 40.1288 72.052C40.1513 72.0533 40.1743 72.0563 40.1977 72.0609Z" fill="url(#paint0_radial_71_933)"/>
</g>
<defs>
<radialGradient id="paint0_radial_71_933" cx="0" cy="0" r="1" gradientUnits="userSpaceOnUse" gradientTransform="translate(49.7903 49.744) rotate(90) scale(39.5265 38.6257)">
<stop stop-color="#69C6F4"/>
<stop offset="1" stop-color="#1484BC"/>
</radialGradient>
</defs>
</svg>
