<svg width="100" height="100" viewBox="0 0 100 100" fill="none" xmlns="http://www.w3.org/2000/svg">
<rect width="100" height="100" fill="#2C348C"/>
<path d="M88 74.9668H12.1703C12.0023 74.6307 11.9586 74.392 12.0392 74.2509C24.6574 52.47 37.178 30.679 49.6011 8.87801C49.6262 8.83169 49.6634 8.793 49.7086 8.76604C49.7539 8.73909 49.8056 8.72485 49.8583 8.72485C49.911 8.72485 49.9627 8.73909 50.0079 8.76604C50.0532 8.793 50.0903 8.83169 50.1154 8.87801L88 74.9668Z" fill="#EDC76B"/>
<path d="M16.0623 71.9621L49.631 13.5168C49.6589 13.4664 49.6998 13.4243 49.7495 13.3951C49.7991 13.3658 49.8557 13.3503 49.9134 13.3503C49.971 13.3503 50.0276 13.3658 50.0773 13.3951C50.1269 13.4243 50.1678 13.4664 50.1957 13.5168L83.7645 71.9621C83.7929 72.0114 83.8078 72.0673 83.8077 72.1242C83.8076 72.1811 83.7924 72.2369 83.7637 72.2861C83.7351 72.3352 83.6939 72.3759 83.6445 72.404C83.595 72.4321 83.539 72.4466 83.4821 72.4461H16.3446C16.2877 72.4466 16.2317 72.4321 16.1823 72.404C16.1328 72.3759 16.0917 72.3352 16.063 72.2861C16.0343 72.2369 16.0192 72.1811 16.019 72.1242C16.0189 72.0673 16.0338 72.0114 16.0623 71.9621Z" fill="#2C348C"/>
<path d="M48.8442 35.9531L46.5854 36.5077" stroke="#FD8F8E" stroke-width="2.01675"/>
<path d="M49.0058 51.2601L48.8848 48.3157" stroke="#FD8F8E" stroke-width="2.01675"/>
<path d="M48.8848 48.3157C51.5469 48.0266 54.0712 47.4485 56.4576 46.5813C61.3987 44.7965 59.2105 38.0505 54.572 37.8992C52.6225 37.8387 50.7603 38.1513 48.9856 38.837" stroke="#969AC6" stroke-width="2.01675"/>
<path d="M48.9855 38.8372L46.5654 39.4422" stroke="#FD8F8E" stroke-width="2.01675"/>
<path d="M48.8848 48.3159L48.9856 38.8372" stroke="#942A55" stroke-width="2.01675"/>
<path d="M46.5454 52.2079L46.5151 49.4551" stroke="#FD8F8E" stroke-width="2.01675"/>
<path d="M48.8445 35.9529L46.5857 36.5075L46.7572 31.3446C46.7596 31.2555 46.7374 31.1674 46.693 31.0901C46.6486 31.0128 46.5837 30.9493 46.5055 30.9065C46.4273 30.8638 46.3388 30.8434 46.2497 30.8478C46.1607 30.8521 46.0746 30.881 46.0009 30.9312C45.2614 31.4286 44.5959 31.3849 44.0043 30.8001C43.9094 30.7066 43.8394 30.5909 43.8008 30.4634C43.7622 30.336 43.7562 30.2009 43.7832 30.0705C43.8103 29.9401 43.8697 29.8185 43.9559 29.717C44.042 29.6154 44.1523 29.5371 44.2766 29.4892L49.4697 27.4624C49.703 27.3721 49.9557 27.3436 50.2033 27.3797C50.4509 27.4158 50.685 27.5153 50.8828 27.6685C51.0806 27.8217 51.2355 28.0234 51.3324 28.254C51.4294 28.4847 51.465 28.7365 51.436 28.985C51.3352 29.8253 50.71 30.0976 49.5604 29.8018C49.4945 29.7867 49.426 29.7862 49.36 29.8003C49.2941 29.8144 49.2322 29.8428 49.179 29.8834C49.1259 29.924 49.0827 29.9758 49.0528 30.035C49.0228 30.0941 49.0068 30.1592 49.0058 30.2253L48.8445 35.9529Z" fill="#FB1F1D"/>
<path d="M49.006 51.26L48.885 48.3156C51.5471 48.0265 54.0714 47.4484 56.4579 46.5812C61.3989 44.7963 59.2108 38.0503 54.5723 37.8991C52.6227 37.8386 50.7606 38.1512 48.9859 38.8369L46.5658 39.4419C45.5372 40.0738 44.6936 40.2351 44.0348 39.9259C43.2012 39.5293 42.9827 38.9142 43.3793 38.0806C43.7759 37.247 44.8448 36.7226 46.5859 36.5075L48.8447 35.9529C52.011 34.642 56.0243 34.1278 58.7368 36.5781C61.4695 39.0587 62.4981 44.151 60.0881 47.3778C58.152 49.9693 52.0816 50.9373 49.006 51.26Z" fill="white"/>
<path d="M48.8848 48.3157L48.9856 38.837C50.7603 38.1513 52.6225 37.8387 54.572 37.8992C59.2105 38.0505 61.3987 44.7965 56.4576 46.5813C54.0712 47.4485 51.5469 48.0266 48.8848 48.3157Z" fill="#2C348C"/>
<path d="M48.9859 38.8369L48.8851 48.3156L49.0061 51.2601L49.0565 63.774C49.0561 63.8566 49.0732 63.9383 49.1066 64.014C49.1401 64.0896 49.1892 64.1576 49.2508 64.2136C49.3125 64.2695 49.3853 64.3123 49.4647 64.339C49.5441 64.3657 49.6283 64.3759 49.712 64.3689C52.6564 64.1168 51.8396 67.6663 49.5405 67.1319C49.2224 67.0536 48.8859 67.093 48.5927 67.2428L45.7692 68.6545C45.5087 68.7814 45.2097 68.8081 44.9297 68.7296C44.6498 68.6511 44.4085 68.4728 44.2523 68.2291C44.096 67.9853 44.0358 67.6932 44.0831 67.4089C44.1305 67.1245 44.282 66.8678 44.5088 66.6882L46.0919 65.4277C46.2111 65.3364 46.3076 65.2188 46.3741 65.0842C46.4405 64.9496 46.4751 64.8014 46.4751 64.6513L46.5457 52.2079L46.5154 49.4551L46.5658 39.4419L48.9859 38.8369Z" fill="#FB1F1D"/>
<path d="M46.5155 49.4551L46.5458 52.2079C45.4567 53.3776 44.4954 53.6029 43.6618 52.8835C43.4952 52.7394 43.3819 52.543 43.3399 52.3256C43.2978 52.1081 43.3295 51.8822 43.4299 51.6836C44.0551 50.4601 45.0836 49.7173 46.5155 49.4551Z" fill="white"/>
</svg>
