<svg width="100" height="100" viewBox="0 0 100 100" fill="none" xmlns="http://www.w3.org/2000/svg">
<rect width="100" height="100" fill="#FFEAFA"/>
<path d="M87.9601 43.8292C87.9592 43.8126 87.9426 43.8068 87.9103 43.8119C87.8674 40.9069 85.4493 38.5704 82.6177 38.3934C82.5863 38.3814 82.5697 38.3669 82.5679 38.3498C84.4349 36.8029 87.2548 37.3029 88.4116 39.4624C88.4614 39.556 88.487 39.6597 88.4884 39.7736C88.4995 40.7984 88.4995 41.8225 88.4884 42.8459C88.4843 43.1916 88.18 43.5788 87.9601 43.8292Z" fill="#FFCB08"/>
<path d="M82.5682 38.3499C82.57 38.3669 82.5866 38.3814 82.618 38.3934L82.5564 38.401C82.5375 38.4033 82.5212 38.4109 82.5073 38.4238C81.5522 39.3117 81.1232 40.393 81.2205 41.6676C81.2767 42.4089 81.5711 43.1329 82.1035 43.8396C81.064 43.0333 79.956 42.7588 78.7795 43.016C77.9991 43.1866 77.3018 43.5976 76.6878 44.2489C76.6103 41.019 79.146 38.3132 82.4168 38.3976C82.4707 38.3996 82.5184 38.3692 82.5682 38.3499Z" fill="#ED1C24"/>
<path d="M82.6175 38.3931C85.4492 38.5701 87.8673 40.9066 87.9102 43.8116L87.8804 43.8925C87.8773 43.9016 87.8723 43.9101 87.8659 43.9174C86.4269 45.4967 84.2045 45.5929 82.5401 44.2749L82.1031 43.8392C81.5706 43.1325 81.2763 42.4085 81.22 41.6673C81.1228 40.3926 81.5517 39.3114 82.5069 38.4235C82.5207 38.4106 82.5371 38.403 82.556 38.4007L82.6175 38.3931Z" fill="#EC008C"/>
<path d="M82.1038 43.8395L82.5408 44.2751C82.9534 44.8385 83.2166 45.3811 83.3305 45.9029C83.5953 47.1158 83.2765 48.6606 82.3133 49.5422C82.2534 49.5975 82.1971 49.6565 82.1446 49.7192C82.1446 49.7206 82.1448 49.722 82.1453 49.7234C79.102 49.5865 76.8796 47.2921 76.6846 44.262C76.6855 44.2574 76.6866 44.253 76.688 44.2489C77.3021 43.5975 77.9993 43.1865 78.7798 43.0159C79.9562 42.7587 81.0642 43.0332 82.1038 43.8395Z" fill="#C6168D"/>
<path d="M87.9104 43.8118C87.9426 43.8068 87.9592 43.8125 87.9602 43.8291C87.9429 43.8651 87.9249 43.9031 87.9249 43.946C87.9443 47.2326 85.4293 49.7241 82.144 49.7192C82.1966 49.6565 82.2528 49.5975 82.3128 49.5422C83.276 48.6606 83.5948 47.1158 83.3299 45.9029C83.2161 45.3811 82.9529 44.8385 82.5403 44.2751C84.2047 45.5931 86.4271 45.497 87.8661 43.9176C87.8725 43.9103 87.8774 43.9019 87.8806 43.8927L87.9104 43.8118Z" fill="#ED1C24"/>
<path d="M76.6839 44.262C76.8789 47.2921 79.1013 49.5864 82.1446 49.7233C80.4407 51.1616 77.9721 50.9542 76.5774 49.2027C75.4267 47.7581 75.5 45.7051 76.6839 44.262Z" fill="#25BDAD"/>
<path d="M18.956 48.002C19.7129 48.002 20.3265 47.3884 20.3265 46.6315C20.3265 45.8746 19.7129 45.261 18.956 45.261C18.1991 45.261 17.5854 45.8746 17.5854 46.6315C17.5854 47.3884 18.1991 48.002 18.956 48.002Z" fill="#313335"/>
<path d="M38.2044 49.4116L38.2065 46.0641C38.2065 46.0101 38.2332 45.9832 38.2867 45.9832L40.5652 45.9887C40.5722 45.9889 40.5789 45.9917 40.5838 45.9966C40.5887 46.0015 40.5914 46.0081 40.5914 46.015V57.4681C40.5914 57.4773 40.5878 57.4861 40.5813 57.4925C40.5748 57.499 40.566 57.5027 40.5569 57.5027H38.4112C38.4013 57.5027 38.3915 57.5007 38.3824 57.4969C38.3733 57.493 38.365 57.4874 38.3581 57.4803C38.3512 57.4732 38.3458 57.4648 38.3422 57.4556C38.3386 57.4463 38.3369 57.4365 38.3372 57.4266L38.3628 56.5484C38.3629 56.543 38.3614 56.5378 38.3584 56.5333C38.3553 56.5289 38.351 56.5255 38.3459 56.5237C38.3409 56.5218 38.3354 56.5216 38.3302 56.5231C38.325 56.5246 38.3205 56.5276 38.3171 56.5318C37.5676 57.5041 36.5227 57.856 35.3154 57.726C32.873 57.4619 30.9445 55.2961 31.1657 52.8068C31.369 50.5131 33.2617 48.7761 35.5297 48.6198C36.5204 48.5516 37.3917 48.8252 38.1436 49.4406C38.1491 49.445 38.1557 49.4478 38.1627 49.4487C38.1697 49.4495 38.1768 49.4483 38.1832 49.4453C38.1895 49.4423 38.1949 49.4375 38.1987 49.4315C38.2024 49.4255 38.2044 49.4186 38.2044 49.4116ZM38.3012 53.1836C38.3012 52.8706 38.2396 52.5607 38.1198 52.2715C38 51.9823 37.8244 51.7195 37.6031 51.4982C37.3818 51.2769 37.119 51.1013 36.8298 50.9815C36.5406 50.8617 36.2307 50.8001 35.9177 50.8001C35.6047 50.8001 35.2947 50.8617 35.0055 50.9815C34.7163 51.1013 34.4536 51.2769 34.2322 51.4982C34.0109 51.7195 33.8353 51.9823 33.7155 52.2715C33.5958 52.5607 33.5341 52.8706 33.5341 53.1836C33.5341 53.8158 33.7852 54.4221 34.2322 54.8691C34.6792 55.3161 35.2855 55.5672 35.9177 55.5672C36.5498 55.5672 37.1561 55.3161 37.6031 54.8691C38.0501 54.4221 38.3012 53.8158 38.3012 53.1836Z" fill="#313335"/>
<path d="M72.5922 50.7778C72.5889 51.5665 72.5885 52.3555 72.5908 53.1447C72.5956 54.5381 73.5886 55.4758 74.9377 55.5947C74.9635 55.597 74.9764 55.6111 74.9764 55.6369V57.7079C74.9764 57.7342 74.9635 57.748 74.9377 57.7494C72.5873 57.8621 70.7729 56.4355 70.3158 54.1557C70.2554 53.8538 70.225 53.3953 70.2245 52.7803C70.2213 50.5298 70.2208 48.2797 70.2231 46.03C70.2236 45.9941 70.2416 45.9761 70.2771 45.9761L72.5389 45.9878C72.5749 45.9878 72.5926 46.0056 72.5922 46.0411L72.5873 48.6438C72.5873 48.6669 72.5988 48.6784 72.6219 48.6784L74.9432 48.6895C74.952 48.6895 74.9605 48.6929 74.9667 48.699C74.9729 48.7051 74.9764 48.7134 74.9764 48.722V50.6547C74.9764 50.6782 74.9671 50.7007 74.9505 50.7173C74.9339 50.7339 74.9114 50.7432 74.8879 50.7432H72.6267C72.6037 50.7432 72.5922 50.7547 72.5922 50.7778Z" fill="#313335"/>
<path d="M25.2569 50.8354C24.1201 51.0511 23.6188 52.125 23.6174 53.2196C23.6155 54.633 23.6153 56.0428 23.6167 57.4488C23.6167 57.4644 23.6105 57.4793 23.5995 57.4903C23.5884 57.5014 23.5735 57.5076 23.5579 57.5076L21.2677 57.491C21.2608 57.491 21.254 57.4896 21.2477 57.4869C21.2413 57.4843 21.2356 57.4804 21.2308 57.4755C21.2259 57.4706 21.2221 57.4648 21.2196 57.4585C21.217 57.4521 21.2157 57.4453 21.2158 57.4384C21.2315 56.0043 21.2359 54.5678 21.229 53.129C21.2165 50.5104 23.2958 48.4484 25.9629 48.6185C28.0865 48.754 29.708 50.2393 30.0614 52.3477C30.107 52.6196 30.1305 53.0297 30.1319 53.5778C30.1347 54.8709 30.1347 56.1619 30.1319 57.4509C30.1319 57.4646 30.1264 57.4778 30.1167 57.4875C30.107 57.4973 30.0938 57.5027 30.08 57.5027H27.7663C27.7619 57.5027 27.7574 57.5018 27.7533 57.5001C27.7492 57.4984 27.7455 57.4959 27.7423 57.4928C27.7392 57.4896 27.7367 57.4859 27.735 57.4818C27.7333 57.4777 27.7324 57.4733 27.7324 57.4688C27.7278 55.9789 27.7276 54.4924 27.7317 53.0094C27.7322 52.8785 27.7038 52.6888 27.6467 52.4403C27.3791 51.2786 26.4186 50.6148 25.2569 50.8354Z" fill="#313335"/>
<path d="M51.1641 53.1836C51.1641 54.3966 50.6653 55.5599 49.7773 56.4176C48.8894 57.2753 47.6852 57.7571 46.4295 57.7571C45.1737 57.7571 43.9695 57.2753 43.0816 56.4176C42.1936 55.5599 41.6948 54.3966 41.6948 53.1836C41.6948 51.9706 42.1936 50.8074 43.0816 49.9497C43.9695 49.092 45.1737 48.6101 46.4295 48.6101C47.6852 48.6101 48.8894 49.092 49.7773 49.9497C50.6653 50.8074 51.1641 51.9706 51.1641 53.1836ZM46.4093 55.5768C47.03 55.5822 47.6276 55.3353 48.0704 54.8903C48.5133 54.4453 48.7652 53.8387 48.7707 53.204C48.7735 52.8898 48.7157 52.578 48.6006 52.2867C48.4855 51.9953 48.3154 51.73 48.1 51.5058C47.8846 51.2817 47.6281 51.1032 47.3451 50.9804C47.0622 50.8577 46.7584 50.7931 46.451 50.7905C45.8303 50.785 45.2327 51.032 44.7899 51.477C44.347 51.9219 44.0951 52.5285 44.0895 53.1632C44.0868 53.4775 44.1446 53.7892 44.2597 54.0806C44.3748 54.3719 44.5449 54.6373 44.7603 54.8614C44.9757 55.0855 45.2322 55.264 45.5151 55.3868C45.7981 55.5095 46.1019 55.5741 46.4093 55.5768Z" fill="#313335"/>
<path d="M56.4913 55.1267C56.7644 54.3184 55.4554 54.0618 54.9437 53.9761C54.1849 53.8484 53.5054 53.5469 52.9052 53.0716C51.1848 51.7101 52.157 49.5381 53.9362 48.8736C55.9491 48.1226 58.7317 48.9676 58.823 51.4902C58.8234 51.4987 58.822 51.5072 58.819 51.5151C58.816 51.5231 58.8114 51.5303 58.8056 51.5365C58.7997 51.5426 58.7926 51.5475 58.7848 51.5508C58.777 51.5542 58.7686 51.5559 58.7601 51.5559H56.5127C56.4895 51.5559 56.4672 51.5469 56.4506 51.5307C56.4339 51.5146 56.4242 51.4926 56.4235 51.4694C56.3827 50.2095 54.1838 50.4605 54.4348 51.484C54.5807 52.0807 55.8399 52.3379 56.3433 52.4016C58.061 52.6194 59.4094 53.9076 58.7642 55.7359C58.1107 57.5877 55.7541 58.0773 54.0973 57.5518C52.8285 57.1493 52.0097 56.2656 51.9108 54.8868C51.9101 54.8764 51.9115 54.866 51.9149 54.8562C51.9183 54.8464 51.9237 54.8374 51.9307 54.8298C51.9377 54.8222 51.9462 54.8162 51.9556 54.8121C51.9651 54.8079 51.9752 54.8058 51.9855 54.8059H54.2481C54.2635 54.8058 54.2783 54.8117 54.2894 54.8222C54.3006 54.8328 54.3074 54.8472 54.3082 54.8626C54.3802 55.989 56.1946 56.0015 56.4913 55.1267Z" fill="#313335"/>
<path d="M66.8892 56.5151C66.8893 56.5092 66.8876 56.5034 66.8843 56.4986C66.8809 56.4938 66.8761 56.4902 66.8706 56.4882C66.8651 56.4863 66.8591 56.4862 66.8534 56.4879C66.8478 56.4896 66.8429 56.4931 66.8394 56.4978C66.0739 57.4901 65.0616 57.8621 63.8224 57.7203C62.082 57.5212 60.5047 56.3622 59.9148 54.6653C58.6328 50.9804 62.268 47.7103 65.8457 48.8333C67.4009 49.3215 68.6463 50.6118 69.001 52.2216C69.0642 52.5079 69.0962 52.9106 69.0971 53.4296C69.0994 54.7762 69.0996 56.1223 69.0978 57.4679C69.0978 57.4771 69.0942 57.4859 69.0877 57.4924C69.0812 57.4989 69.0724 57.5025 69.0632 57.5025H66.9279C66.8984 57.5025 66.8839 57.4878 66.8843 57.4583L66.8892 56.5151ZM66.8145 53.1835C66.8145 52.5511 66.5633 51.9447 66.1162 51.4975C65.669 51.0504 65.0626 50.7992 64.4303 50.7992C63.7979 50.7992 63.1915 51.0504 62.7443 51.4975C62.2972 51.9447 62.046 52.5511 62.046 53.1835C62.046 53.8158 62.2972 54.4223 62.7443 54.8694C63.1915 55.3165 63.7979 55.5677 64.4303 55.5677C65.0626 55.5677 65.669 55.3165 66.1162 54.8694C66.5633 54.4223 66.8145 53.8158 66.8145 53.1835Z" fill="#313335"/>
<path d="M20.0933 48.8589H17.8211C17.7848 48.8589 17.7554 48.8883 17.7554 48.9246V57.4368C17.7554 57.4731 17.7848 57.5025 17.8211 57.5025H20.0933C20.1296 57.5025 20.159 57.4731 20.159 57.4368V48.9246C20.159 48.8883 20.1296 48.8589 20.0933 48.8589Z" fill="#313335"/>
</svg>
