<svg width="100" height="100" viewBox="0 0 100 100" fill="none" xmlns="http://www.w3.org/2000/svg">
<rect width="100" height="100" fill="#FFF682"/>
<path d="M25.827 69.7194C26.339 69.6334 26.569 69.3754 26.517 68.9454C26.507 68.8514 26.47 68.7684 26.406 68.6964C26.192 68.4524 26.143 68.1544 26.259 67.8024C26.287 67.7124 26.273 67.6284 26.217 67.5504L25.74 66.9144C25.69 66.8504 25.669 66.7774 25.677 66.6954C25.711 66.2474 25.603 65.8484 25.353 65.4984C25.297 65.4184 25.278 65.3294 25.296 65.2314C25.39 64.7514 25.226 64.4964 24.804 64.4664C24.183 62.0664 23.958 59.9604 24.228 57.3534C24.762 52.1934 25.08 46.2324 27.537 41.5494C27.841 40.9694 28.099 40.3244 28.311 39.6144C29.571 35.4264 32.691 32.6544 35.571 29.4084C36.495 28.3644 37.71 27.4704 38.775 26.4294C39.981 25.2534 41.454 24.6325 42.873 23.7985C47.2889 21.2065 52.1369 19.2955 57.0149 18.2455C61.9469 17.1865 67.6169 16.7335 72.9209 16.1065C73.5719 16.0285 74.2799 15.8815 74.8559 16.1755C74.9236 16.2096 74.9811 16.261 75.0226 16.3245C75.0641 16.3879 75.0882 16.4611 75.0925 16.5368C75.0967 16.6125 75.081 16.688 75.0468 16.7557C75.0127 16.8234 74.9613 16.8809 74.8979 16.9225C73.0999 18.1045 71.5569 19.4675 70.2689 21.0115C68.4059 23.2495 68.4929 26.1714 68.7479 29.0784C69.3599 36.0714 67.8089 42.3324 65.4359 48.8034C65.0009 49.9944 64.6049 50.7444 63.7019 51.7224C62.0789 53.4744 60.9959 55.2384 59.7179 57.0984C58.7969 58.4394 58.3109 60.0384 57.4139 61.4784C55.6979 64.2384 51.6569 66.6114 48.6959 67.9524C44.934 69.6594 41.394 71.1294 37.473 73.1964C35.436 74.2734 33.705 75.6534 31.881 77.0454C29.517 78.8494 27.429 80.9313 25.617 83.2913C25.371 83.6133 25.066 83.7633 24.702 83.7413C24.604 83.7353 24.524 83.6953 24.462 83.6213C24.154 83.2673 24 82.9563 24 82.6883C24 80.2523 24.522 77.5254 24.888 74.8524C25.137 73.0524 26.148 71.5644 25.827 69.7194Z" fill="#1C1C1B"/>
<path d="M63.8738 22.6435C63.6078 22.6215 63.5478 22.5045 63.6938 22.2925C63.9398 21.9385 64.3208 21.8365 64.5578 21.4255C64.5745 21.3972 64.5824 21.3645 64.5804 21.3317C64.5785 21.2988 64.5667 21.2673 64.5467 21.2412C64.5268 21.2151 64.4994 21.1956 64.4682 21.1851C64.4371 21.1746 64.4035 21.1737 64.3718 21.1825C63.6718 21.3705 63.0998 21.7435 62.6558 22.3015C61.9958 23.1335 60.7538 24.2725 58.9298 25.7185C57.9398 26.5025 57.0678 27.3885 56.3138 28.3765C56.2799 28.4207 56.2572 28.4726 56.2477 28.5276C56.2382 28.5825 56.2422 28.639 56.2593 28.6921C56.2764 28.7451 56.3061 28.7933 56.3459 28.8324C56.3857 28.8715 56.4344 28.9003 56.4878 28.9165C56.5458 28.9325 56.6338 28.9355 56.7518 28.9255C56.8338 28.9175 56.9108 28.8855 56.9828 28.8295C57.5588 28.3795 58.0978 27.8895 58.5998 27.3595C59.1608 26.7655 59.9348 26.5945 60.2948 25.7125C60.3328 25.6205 60.3938 25.5475 60.4778 25.4935C61.1678 25.0765 61.4258 24.3805 61.8998 23.7745C61.9286 23.7382 61.9659 23.7093 62.0086 23.69C62.0514 23.6707 62.0983 23.6616 62.1458 23.6635C62.3138 23.6715 62.4128 23.7415 62.4428 23.8735" stroke="#0F0F0F" stroke-width="0.599999"/>
<path d="M41.8808 63.5935C40.7948 64.3755 39.7938 65.2835 38.8778 66.3175C38.8138 66.3915 38.7338 66.4405 38.6378 66.4645C38.3098 66.5545 38.1548 66.7185 38.1728 66.9565C38.1774 67.011 38.1949 67.0636 38.2238 67.11C38.2527 67.1564 38.2922 67.1952 38.3391 67.2234C38.3859 67.2515 38.4388 67.2681 38.4934 67.2717C38.5479 67.2754 38.6026 67.2661 38.6528 67.2445L42.2948 65.6635C42.3788 65.6275 42.4118 65.5655 42.3938 65.4775L42.2888 64.9645C42.2548 64.7965 42.3238 64.7225 42.4958 64.7425C43.4218 64.8565 44.2568 64.6585 45.0008 64.1485" stroke="#0F0F0F" stroke-width="0.599999"/>
<path d="M46.7679 31.9134C46.7159 31.9754 46.6699 32.0144 46.6299 32.0304C46.5941 32.0431 46.5558 32.0474 46.5183 32.0429C46.4807 32.0384 46.445 32.0252 46.4143 32.0046C46.3836 31.9839 46.3588 31.9563 46.342 31.9242C46.3252 31.8921 46.3169 31.8565 46.3179 31.8204L46.3509 30.1824C46.3529 30.0864 46.3089 30.0234 46.2189 29.9934L44.7999 29.5134C44.7329 29.4906 44.6604 29.4891 44.5925 29.5092C44.5247 29.5293 44.4647 29.57 44.4209 29.6256C44.3771 29.6812 44.3517 29.7491 44.3481 29.8198C44.3445 29.8905 44.363 29.9606 44.4009 30.0204C44.9269 30.8664 45.2439 31.7894 45.3519 32.7894C45.3639 32.8934 45.3199 32.9634 45.2199 32.9994C45.0919 33.0434 44.9829 33.0024 44.8929 32.8764" stroke="#0F0F0F" stroke-width="0.599999"/>
<path d="M64.9713 19.8895L64.3023 20.2285C63.8763 20.2265 63.7923 19.9815 64.0503 19.4935C64.4343 18.7615 65.9973 17.1325 66.8283 18.0325C67.3953 18.6475 66.7473 19.6525 66.0423 19.7065C65.5003 19.7485 65.1433 19.8095 64.9713 19.8895Z" fill="#FFED01"/>
<path d="M62.6494 19.6466C61.3534 20.4886 59.9694 21.0146 58.4974 21.2246C58.2294 20.6086 58.2224 20.1246 58.4764 19.7726C59.5984 18.2126 61.1994 17.6936 63.2794 18.2156C63.3634 18.2376 63.4064 18.2906 63.4084 18.3746C63.4264 18.9286 63.1734 19.3526 62.6494 19.6466Z" fill="#FFED01"/>
<path d="M62.6493 19.6467C62.8373 19.7347 62.8783 19.8957 62.7723 20.1297C62.7303 20.2237 62.7533 20.2957 62.8413 20.3457C63.1293 20.5137 63.3903 20.4897 63.6243 20.2737C63.6843 20.2157 63.7433 20.2167 63.8013 20.2767C63.9153 20.3967 64.0823 20.3807 64.3023 20.2287L64.9713 19.8897L65.1993 19.9257C65.2209 19.9291 65.2415 19.9373 65.2594 19.9497C65.2773 19.9621 65.2921 19.9784 65.3026 19.9973C65.313 20.0162 65.3189 20.0372 65.3197 20.0586C65.3206 20.0801 65.3163 20.1013 65.3073 20.1207L65.0223 20.7627C65.0116 20.7865 65.0076 20.8127 65.0109 20.8385C65.0141 20.8644 65.0245 20.8889 65.0408 20.9095C65.0571 20.9301 65.0788 20.9461 65.1035 20.9556C65.1282 20.9651 65.1551 20.968 65.1813 20.9637C65.5533 20.8977 65.8093 21.0327 65.9493 21.3687L63.8733 22.6437C63.6073 22.6217 63.5473 22.5047 63.6933 22.2927C63.9393 21.9387 64.3203 21.8367 64.5573 21.4257C64.5741 21.3974 64.582 21.3647 64.58 21.3319C64.578 21.2991 64.5663 21.2676 64.5463 21.2415C64.5263 21.2154 64.499 21.1958 64.4678 21.1853C64.4366 21.1749 64.403 21.174 64.3713 21.1827C63.6713 21.3707 63.0993 21.7437 62.6553 22.3017C61.9953 23.1337 60.7533 24.2727 58.9293 25.7187C57.9393 26.5027 57.0673 27.3887 56.3133 28.3767C56.2794 28.421 56.2568 28.4728 56.2473 28.5278C56.2378 28.5828 56.2418 28.6392 56.2589 28.6923C56.276 28.7454 56.3057 28.7935 56.3455 28.8326C56.3853 28.8717 56.4339 28.9006 56.4873 28.9167C56.5453 28.9327 56.6333 28.9357 56.7513 28.9257C56.8333 28.9177 56.9103 28.8857 56.9823 28.8297C57.5583 28.3797 58.0973 27.8897 58.5993 27.3597C59.1603 26.7657 59.9343 26.5947 60.2943 25.7127C60.3323 25.6207 60.3933 25.5477 60.4773 25.4937C61.1673 25.0767 61.4253 24.3807 61.8993 23.7747C61.9282 23.7385 61.9654 23.7095 62.0082 23.6902C62.0509 23.671 62.0979 23.6619 62.1453 23.6637C62.3133 23.6717 62.4123 23.7417 62.4423 23.8737C60.1263 27.4047 55.7073 29.4117 54.3423 33.3747L54.1833 33.5157C54.1511 33.546 54.109 33.5637 54.0648 33.5653C54.0206 33.567 53.9773 33.5526 53.9428 33.5248C53.9084 33.497 53.8853 33.4576 53.8776 33.414C53.87 33.3704 53.8784 33.3256 53.9013 33.2877C54.0933 32.9517 54.1313 32.5927 54.0153 32.2107C53.9991 32.1586 53.9685 32.1122 53.9272 32.0766C53.8858 32.0411 53.8353 32.0179 53.7813 32.0097C53.4573 31.9617 53.2233 32.0847 53.0793 32.3787C53.0373 32.4667 52.9673 32.5127 52.8693 32.5167C51.1774 32.6007 52.0534 30.3417 52.3384 29.5707C52.6024 28.8527 52.4173 28.3657 51.7834 28.1097C51.746 28.0945 51.7054 28.0886 51.6653 28.0927C51.6251 28.0969 51.5866 28.1108 51.5531 28.1333C51.5196 28.1559 51.4921 28.1863 51.4732 28.2219C51.4542 28.2576 51.4443 28.2973 51.4443 28.3377C51.4473 29.0127 51.2674 31.0767 50.7514 31.5507C50.5514 31.7347 50.4344 31.7307 50.4004 31.5387C51.2104 29.1897 51.1114 26.3547 50.9884 23.7177C50.9684 23.2597 50.7104 22.7267 50.2144 22.1187C52.2154 23.2827 50.9164 24.4317 51.7804 26.0037C51.7919 26.0264 51.81 26.0451 51.8324 26.0573C51.8547 26.0696 51.8803 26.0747 51.9056 26.0721C51.9309 26.0695 51.9549 26.0593 51.9743 26.0428C51.9937 26.0263 52.0077 26.0043 52.0144 25.9797C52.3324 24.8997 52.5733 23.7827 52.7373 22.6287C52.8063 22.1607 53.0043 21.9537 53.3073 21.6297C53.4933 23.0967 52.7043 25.1277 52.3054 26.5527C52.2972 26.583 52.2959 26.6147 52.3014 26.6455C52.3069 26.6764 52.3192 26.7055 52.3374 26.7308C52.3555 26.7562 52.379 26.777 52.4062 26.7919C52.4333 26.8067 52.4635 26.8152 52.4943 26.8167C52.5763 26.8207 52.6563 26.7867 52.7343 26.7147C54.8163 24.7857 56.4843 23.6187 56.9103 20.6007C56.9403 20.5867 56.9873 20.5927 57.0513 20.6187C57.0893 20.6347 57.1083 20.6217 57.1083 20.5797V20.4327C57.1083 20.3787 57.1353 20.3547 57.1893 20.3607L57.2853 20.3757C57.3157 20.3795 57.3449 20.39 57.3708 20.4064C57.3967 20.4228 57.4188 20.4448 57.4353 20.4708C57.4519 20.4968 57.4627 20.5262 57.4668 20.557C57.4709 20.5877 57.4684 20.619 57.4593 20.6487L56.7723 22.9047C56.7656 22.9261 56.7656 22.949 56.7721 22.9704C56.7787 22.9919 56.7916 23.0108 56.8091 23.0248C56.8266 23.0387 56.848 23.0471 56.8703 23.0487C56.8927 23.0502 56.915 23.045 56.9343 23.0337L59.0583 21.8187C59.0983 21.7967 59.0963 21.7817 59.0523 21.7737C58.7043 21.7137 58.5193 21.5307 58.4973 21.2247C59.9693 21.0147 61.3533 20.4887 62.6493 19.6467Z" fill="#020202"/>
<path d="M56.9101 20.6007C56.4841 23.6187 54.8161 24.7857 52.7341 26.7147C52.6561 26.7867 52.5761 26.8207 52.4941 26.8167C52.4633 26.8152 52.4331 26.8067 52.406 26.7918C52.3788 26.777 52.3553 26.7561 52.3371 26.7308C52.319 26.7055 52.3067 26.6763 52.3012 26.6455C52.2957 26.6147 52.297 26.583 52.3051 26.5527C52.7041 25.1277 53.4931 23.0967 53.3071 21.6297C53.8711 20.2837 54.9891 19.7347 56.6611 19.9827C56.8451 20.0107 56.9281 20.2167 56.9101 20.6007Z" fill="#FFED01"/>
<path d="M52.2848 31.5866C52.8008 27.6296 55.6238 23.6036 59.5208 22.3616C61.0538 21.8726 62.0108 21.4406 63.2768 20.8556C63.3121 20.8366 63.3532 20.8317 63.392 20.8418C63.4308 20.8518 63.4643 20.8762 63.4859 20.9099C63.5075 20.9437 63.5156 20.9843 63.5085 21.0237C63.5014 21.0632 63.4798 21.0985 63.4478 21.1226C60.2318 23.8196 57.1088 26.4506 54.7058 29.9186C54.1508 30.7166 53.5838 31.3286 52.9238 31.9226C52.8655 31.9757 52.7922 32.0095 52.714 32.0196C52.6358 32.0296 52.5563 32.0152 52.4865 31.9785C52.4167 31.9418 52.3599 31.8845 52.3238 31.8144C52.2877 31.7443 52.2741 31.6647 52.2848 31.5866Z" fill="#FFED01"/>
<path d="M65.6073 23.5586C64.3383 24.5996 63.0513 25.4876 62.1063 26.8196C61.1763 28.1316 60.3353 29.4886 59.5833 30.8906C58.1403 31.8026 55.5033 33.6866 54.3423 33.3746C55.7073 29.4116 60.1263 27.4046 62.4423 23.8736L63.8733 22.6436L65.9493 21.3686C66.3293 21.1366 66.6313 21.0636 66.8553 21.1496C66.9673 21.1936 67.0063 21.2736 66.9723 21.3896C66.7223 22.2436 66.2673 22.9666 65.6073 23.5586Z" fill="#FFED01"/>
<path d="M63.8733 22.6435L62.4423 23.8735C62.4123 23.7415 62.3133 23.6715 62.1453 23.6635C62.0979 23.6616 62.0509 23.6707 62.0081 23.69C61.9654 23.7093 61.9281 23.7382 61.8993 23.7745C61.4253 24.3805 61.1673 25.0765 60.4773 25.4935C60.3933 25.5475 60.3323 25.6205 60.2943 25.7125C59.9343 26.5945 59.1603 26.7655 58.5993 27.3595C58.0973 27.8895 57.5583 28.3795 56.9823 28.8295C56.9103 28.8855 56.8333 28.9175 56.7513 28.9255C56.6333 28.9355 56.5453 28.9325 56.4873 28.9165C56.4339 28.9003 56.3852 28.8715 56.3454 28.8324C56.3056 28.7933 56.2759 28.7451 56.2588 28.6921C56.2417 28.639 56.2377 28.5825 56.2472 28.5276C56.2567 28.4726 56.2794 28.4207 56.3133 28.3765C57.0673 27.3885 57.9393 26.5025 58.9293 25.7185C60.7533 24.2725 61.9953 23.1335 62.6553 22.3015C63.0993 21.7435 63.6713 21.3705 64.3713 21.1825C64.403 21.1737 64.4366 21.1746 64.4677 21.1851C64.4989 21.1956 64.5263 21.2151 64.5463 21.2412C64.5662 21.2673 64.578 21.2988 64.5799 21.3317C64.5819 21.3645 64.574 21.3972 64.5573 21.4255C64.3203 21.8365 63.9393 21.9385 63.6933 22.2925C63.5473 22.5045 63.6073 22.6215 63.8733 22.6435Z" fill="#1C1C1B"/>
<path d="M50.2149 22.1189C50.7109 22.7269 50.9689 23.2599 50.9889 23.7179C51.1119 26.3549 51.2109 29.1899 50.4009 31.5389C50.0199 32.6339 48.9159 34.5389 50.2629 35.3459C51.1029 35.8499 53.7008 35.5919 54.7418 35.4809C56.6218 35.2809 58.5108 35.2119 60.4088 35.2739C61.5788 35.3129 64.1438 35.1149 64.5188 33.9389C64.5528 33.8289 64.5118 33.7749 64.3958 33.7769C62.5418 33.8189 60.6008 34.4339 58.8128 34.2959C58.743 34.29 58.6756 34.2673 58.6165 34.2297C58.5573 34.1922 58.5082 34.1409 58.4734 34.0804C58.4385 34.0198 58.419 33.9518 58.4165 33.8822C58.4139 33.8126 58.4285 33.7435 58.4588 33.6809C58.9838 32.5949 64.3838 31.7399 65.5418 31.6169C65.7698 31.5929 65.8838 31.6959 65.8838 31.9259C65.8808 33.7769 66.4688 41.1059 63.1748 40.4189C63.0788 40.3989 63.0198 40.3419 62.9978 40.2479C62.8638 39.6479 63.0658 39.1799 63.6038 38.8439C63.6795 38.7968 63.7424 38.7317 63.7869 38.6542C63.8314 38.5768 63.8561 38.4894 63.8588 38.3999C63.8708 38.0359 63.7248 37.8269 63.4208 37.7729C62.3738 37.5869 62.3498 40.4009 62.3438 40.9079C62.3419 40.9979 62.3126 41.0857 62.2598 41.1599C61.6808 41.9639 61.5338 42.7079 60.3818 43.0349C59.0798 43.4039 57.2678 43.4609 56.5718 44.8109C56.5502 44.8535 56.5411 44.9015 56.5454 44.9491C56.5498 44.9968 56.5675 45.0422 56.5965 45.08C56.6254 45.1177 56.6645 45.1463 56.709 45.1624C56.7535 45.1785 56.8017 45.1815 56.8478 45.1709L58.8188 44.7389C58.8516 44.7317 58.8859 44.7359 58.9159 44.7508C58.9459 44.7658 58.97 44.7905 58.984 44.821C58.998 44.8515 59.0012 44.8859 58.9929 44.9184C58.9847 44.9509 58.9656 44.9797 58.9388 44.9999L57.8648 45.8069C57.8272 45.8343 57.7998 45.8735 57.7869 45.9182C57.7739 45.9629 57.7763 46.0107 57.7934 46.054C57.8106 46.0972 57.8417 46.1336 57.8817 46.1573C57.9218 46.181 57.9686 46.1907 58.0148 46.1849C58.7708 46.0979 59.5478 46.1669 60.2648 45.8759C61.2828 45.4639 62.2568 45.0149 63.1868 44.5289C63.2586 44.4915 63.3389 44.4735 63.4197 44.4766C63.5005 44.4798 63.579 44.504 63.6474 44.5468C63.7157 44.5896 63.7715 44.6496 63.8092 44.7207C63.8468 44.7918 63.8649 44.8715 63.8618 44.9519C63.8058 46.5899 63.1848 47.9679 61.9988 49.0859C61.9626 49.1196 61.9191 49.1446 61.8716 49.1588C61.8241 49.1729 61.774 49.1759 61.7252 49.1675C61.6764 49.159 61.6302 49.1394 61.5902 49.1102C61.5503 49.0809 61.5176 49.0428 61.4948 48.9988L60.7298 47.5109C60.6798 47.4149 60.5935 47.3426 60.4898 47.3099C59.7718 47.0839 59.0468 47.0769 58.3148 47.2889C58.2188 47.3149 58.1468 47.3719 58.0988 47.4599C57.7418 48.1169 57.2618 49.1759 56.6108 49.5269C53.7458 51.0658 54.6848 42.5099 54.7118 41.5919C54.7568 40.1009 55.3358 38.7779 57.1358 39.3089C58.5308 39.7199 57.8648 41.2319 59.0468 41.8649C60.1448 42.4509 61.0688 42.2049 61.8188 41.1269C61.8786 41.042 61.9033 40.9357 61.8878 40.8299C61.6748 39.2969 60.3938 37.2959 58.6868 37.0529C56.6708 36.7679 53.0169 36.7169 51.9219 38.8169C51.6579 39.3269 51.5099 40.2309 51.4779 41.5289C51.4239 43.8369 51.4669 46.1409 51.6069 48.4408C51.7479 50.7688 52.7288 51.6748 54.9758 51.6958C56.5158 51.7118 58.0518 51.7478 59.5838 51.8038C59.6818 51.8078 59.7288 51.8588 59.7248 51.9568C59.7028 52.7068 59.5278 53.3228 59.1998 53.8048C58.1778 55.3108 57.4188 56.6868 56.9228 57.9328C55.9418 60.3868 53.2208 63.4138 50.2329 62.8318C50.1781 62.8216 50.1276 62.7959 50.0873 62.7576C50.0469 62.7193 50.0184 62.6701 50.0052 62.6158C49.9919 62.5616 49.9945 62.5045 50.0125 62.4513C50.0305 62.3981 50.0632 62.3511 50.1069 62.3158C51.2109 61.4398 51.8469 60.0688 52.7139 59.2468C53.7198 58.2908 54.8618 57.5288 56.1398 56.9608C56.2362 56.9168 56.3134 56.8389 56.3569 56.7419C56.4003 56.6449 56.407 56.5355 56.3756 56.4344C56.3442 56.3332 56.277 56.2473 56.1866 56.1929C56.0962 56.1384 55.9888 56.1192 55.8848 56.1388C55.6528 56.1828 55.4588 56.1298 55.3028 55.9798C55.2208 55.9018 55.2088 55.8138 55.2668 55.7158L56.0918 54.3748C56.1084 54.3482 56.1174 54.3174 56.1176 54.286C56.1179 54.2546 56.1096 54.2237 56.0934 54.1968C56.0773 54.1698 56.0541 54.1478 56.0263 54.1332C55.9985 54.1185 55.9672 54.1119 55.9358 54.1138C54.9298 54.1678 54.0928 54.5638 53.4248 55.3018C53.1508 55.6038 52.8279 55.7528 52.4559 55.7488C52.4297 55.7491 52.4043 55.7415 52.3826 55.727C52.361 55.7126 52.3441 55.6919 52.3342 55.6675C52.3242 55.6431 52.3217 55.6162 52.3268 55.5901C52.3319 55.564 52.3444 55.5399 52.3628 55.5208L53.4908 54.3958C53.5064 54.3807 53.516 54.3605 53.5178 54.3389C53.5196 54.3173 53.5136 54.2958 53.5009 54.2783C53.4881 54.2607 53.4694 54.2484 53.4483 54.2436C53.4272 54.2387 53.405 54.2417 53.3858 54.2518C50.8779 55.5358 49.3839 58.1968 48.1959 60.7048C47.3719 62.2288 46.3069 63.3768 45.0009 64.1488L42.1929 64.7128C42.0609 64.7408 41.9889 64.6878 41.9769 64.5538L41.8809 63.5938C42.5929 63.5418 42.8269 62.9958 42.5829 61.9558C42.5629 61.8758 42.5119 61.8398 42.4299 61.8478C42.0039 61.8918 41.7169 62.0588 41.5689 62.3488C40.4919 64.4608 39.3939 65.6158 37.1829 66.6568C36.0109 67.2068 34.8739 67.8278 33.7719 68.5198C33.4379 68.4798 33.2619 68.2428 33.2439 67.8088C33.24 67.7096 33.2685 67.6126 33.3249 67.5328C35.4279 64.6288 38.8239 62.6518 41.8509 60.8248C43.6009 59.7668 45.2179 58.5238 46.7019 57.0958C46.7679 57.0318 46.8459 56.9918 46.9359 56.9758C47.1519 56.9338 47.3029 56.8218 47.3889 56.6398C47.4329 56.5418 47.5049 56.4738 47.6049 56.4358C49.1439 55.8418 52.7828 54.2608 53.9198 52.7188C53.9346 52.6998 53.9433 52.6768 53.9448 52.6527C53.9463 52.6287 53.9405 52.6048 53.9282 52.584C53.9159 52.5633 53.8977 52.5468 53.8758 52.5366C53.854 52.5264 53.8296 52.523 53.8058 52.5268C53.5758 52.5608 53.3548 52.6038 53.1428 52.6558C52.8218 52.7368 52.4949 53.0728 52.0149 53.0548C51.9169 53.0528 51.8249 53.0758 51.7389 53.1238C51.0869 53.4998 50.4419 53.8868 49.8039 54.2848C49.2489 54.6328 48.7149 55.3048 48.0069 55.6078C47.2539 55.9258 46.6419 56.3128 45.8439 56.4898C45.7606 56.5087 45.6734 56.4971 45.5979 56.4572C45.5225 56.4172 45.4639 56.3516 45.4327 56.2722C45.4015 56.1927 45.3998 56.1047 45.4279 56.0241C45.456 55.9435 45.512 55.8757 45.5859 55.8328C45.7959 55.7128 45.9409 55.4918 46.0209 55.1698C46.1609 54.9758 46.2309 54.7368 46.2309 54.4528C46.2309 54.3428 46.1809 54.2638 46.0809 54.2158C44.4039 53.4088 41.2899 60.1798 39.1209 60.4138C39.0759 60.4193 39.0303 60.4108 38.9901 60.3893C38.9498 60.3679 38.917 60.3346 38.8959 60.2938C38.1549 58.8718 41.4519 55.6768 41.2839 53.3368C41.2759 53.2188 41.2179 53.1828 41.1099 53.2288C39.9849 53.7058 38.7309 55.2808 38.2029 56.0428C36.5529 58.4288 34.9249 60.8298 33.3189 63.2458C33.2289 63.3798 33.0899 63.4608 32.9019 63.4888L32.6799 63.3328C32.4609 60.9208 33.2139 59.2798 34.7379 57.5428C35.5659 56.6008 36.6429 55.7548 36.6009 54.3748C36.5999 54.3376 36.5888 54.3014 36.5689 54.27C36.5491 54.2385 36.5211 54.213 36.4879 54.1961C36.4547 54.1792 36.4176 54.1716 36.3805 54.174C36.3434 54.1764 36.3076 54.1888 36.2769 54.2098L33.7479 55.9648C33.7235 55.9801 33.6947 55.9867 33.666 55.9837C33.6374 55.9807 33.6106 55.9682 33.5899 55.9482C33.5692 55.9282 33.5558 55.9018 33.5518 55.8733C33.5478 55.8448 33.5535 55.8158 33.5679 55.7908C34.0899 54.9788 34.2059 54.1048 33.9159 53.1688C33.909 53.1467 33.8954 53.1273 33.8772 53.113C33.8589 53.0988 33.8367 53.0905 33.8135 53.0892C33.7904 53.0879 33.7674 53.0937 33.7477 53.1057C33.7279 53.1178 33.7123 53.1357 33.7029 53.1568L32.5689 55.6948C32.5399 55.7597 32.4949 55.8161 32.4382 55.8588C32.3814 55.9016 32.3147 55.9293 32.2442 55.9395C32.1737 55.9496 32.1016 55.9419 32.0346 55.917C31.9676 55.892 31.9079 55.8507 31.8609 55.7968C30.3729 54.0568 30.7029 51.9658 30.9429 49.2388C31.0309 48.2329 30.9299 46.3079 30.6399 43.4639C30.6069 42.2069 30.6879 40.5059 30.1899 39.3509C30.1499 39.2589 30.1399 39.1639 30.1599 39.0659C30.4239 37.7019 30.9979 36.5149 31.8819 35.5049C33.9609 33.1319 35.4219 31.0139 38.1609 29.2019C38.2085 29.1703 38.2642 29.1532 38.3213 29.1528C38.3784 29.1524 38.4344 29.1686 38.4824 29.1994C38.5305 29.2303 38.5685 29.2745 38.5918 29.3266C38.6152 29.3787 38.6228 29.4365 38.6139 29.4929C38.4669 30.4559 36.5529 35.1389 38.1939 35.4689C38.2859 35.4869 38.3729 35.4759 38.4549 35.4359C38.9549 35.1819 39.2759 34.9319 39.4179 34.6859C40.2539 33.2339 41.3099 31.9419 42.5859 30.8099C42.6228 30.7777 42.6478 30.734 42.657 30.6859C42.6662 30.6378 42.659 30.588 42.6365 30.5444C42.6141 30.5009 42.5777 30.4662 42.5331 30.4458C42.4886 30.4254 42.4385 30.4205 42.3909 30.4319C41.5149 30.6359 40.4289 31.6889 39.5559 32.1299C39.5287 32.1434 39.4987 32.1504 39.4684 32.1503C39.438 32.1502 39.4081 32.143 39.381 32.1294C39.3539 32.1157 39.3304 32.0958 39.3123 32.0714C39.2942 32.0471 39.2821 32.0188 39.2769 31.9889L39.1059 31.0529C39.0859 30.9409 39.1179 30.8459 39.2019 30.7679C39.8439 30.1619 39.9819 29.4199 39.6159 28.5419C39.5739 28.4399 39.4979 28.3889 39.3879 28.3889H39.0369C39.0101 28.3888 38.9838 28.3819 38.9605 28.3687C38.9372 28.3555 38.9177 28.3366 38.9038 28.3137C38.89 28.2908 38.8822 28.2647 38.8814 28.2379C38.8805 28.2112 38.8865 28.1846 38.8989 28.1609C39.4749 27.0689 41.1309 25.5629 42.5409 26.3219C43.0689 27.9819 43.7839 29.6389 44.6859 31.2929C44.8459 31.5869 44.9149 32.1149 44.8929 32.8769C44.9049 33.6899 44.9019 35.4959 46.1169 35.6939C46.2209 35.7112 46.3286 35.6864 46.4169 35.6249C47.9919 34.5119 50.0139 30.3089 49.3299 28.5059C49.32 28.4805 49.3038 28.4581 49.2827 28.4408C49.2617 28.4235 49.2366 28.4119 49.2098 28.407C49.183 28.4022 49.1554 28.4044 49.1297 28.4133C49.104 28.4222 49.0809 28.4375 49.0629 28.4579C48.0999 29.5679 48.5559 31.0739 47.0559 31.9589C46.9859 32.0009 46.9149 32.0009 46.8429 31.9589L46.7679 31.9139C46.7619 31.4969 46.7139 31.0619 46.8639 30.6539C47.6419 28.5679 47.7729 26.4529 47.2569 24.3089C47.2501 24.2842 47.2345 24.2625 47.2129 24.2481C47.1913 24.2337 47.1654 24.2276 47.1401 24.231C47.1147 24.2343 47.0918 24.2469 47.0757 24.2663C47.0596 24.2856 47.0515 24.3104 47.0529 24.3359C47.0869 25.5999 46.8299 26.7999 46.2819 27.9359C46.272 27.9557 46.2659 27.9771 46.2639 27.9989L46.1919 29.2649C46.1907 29.2889 46.1843 29.3124 46.1731 29.3337C46.1619 29.355 46.1461 29.3736 46.127 29.3882C46.1078 29.4028 46.0857 29.413 46.0622 29.4181C46.0387 29.4232 46.0143 29.4232 45.9909 29.4179C44.7309 29.1539 44.0089 28.4849 43.8249 27.4109C43.6749 26.5439 43.3779 25.9499 43.4979 25.1489C43.7899 24.6529 44.2429 24.2209 44.8569 23.8529C46.7429 22.7249 48.5289 22.1469 50.2149 22.1189Z" fill="#FFED01"/>
<path d="M35.7541 50.5105C35.3101 51.8645 34.5311 52.3125 33.4171 51.8545C32.8591 51.6235 33.0481 51.2785 33.0421 50.8435C33.0121 47.6115 33.0221 44.3795 33.0721 41.1475C33.0727 41.1232 33.0674 41.0992 33.0568 41.0772C33.0462 41.0553 33.0305 41.0362 33.011 41.0213C32.9915 41.0065 32.9687 40.9963 32.9444 40.9916C32.9201 40.987 32.895 40.988 32.8711 40.9945C32.8031 41.0145 32.7331 41.0645 32.6611 41.1445" stroke="#0F0F0F" stroke-width="0.599999"/>
<path d="M42.9332 40.7696C42.7992 40.6496 42.6512 40.6356 42.4892 40.7276C42.4012 40.7776 42.3602 40.8536 42.3662 40.9556C42.4762 42.7876 42.4492 44.6176 42.2852 46.4456C42.1232 48.2666 42.1172 49.7396 42.1292 51.4256C42.1293 51.489 42.1048 51.5499 42.0611 51.5953C42.0174 51.6407 41.9579 51.667 41.8952 51.6686L40.2482 51.7046C40.219 51.7054 40.1899 51.7003 40.1626 51.6897C40.1353 51.679 40.1105 51.663 40.0895 51.6426C40.0685 51.6222 40.0518 51.5978 40.0405 51.5708C40.0291 51.5438 40.0232 51.5149 40.0232 51.4856C40.0272 50.7636 39.8012 50.1266 39.3452 49.5746C39.315 49.5386 39.2998 49.4923 39.3026 49.445C39.3054 49.3976 39.326 49.3529 39.3602 49.3196C39.9602 48.7356 40.1712 48.0876 39.9932 47.3756C39.9392 47.1576 39.7922 47.1306 39.5522 47.2946" stroke="#0F0F0F" stroke-width="0.599999"/>
<path d="M65.6075 23.5588L65.2385 24.4378C65.1805 24.5758 65.2265 24.6418 65.3765 24.6358C65.6765 24.6238 65.9375 24.7448 66.1595 24.9988C66.1891 25.0343 66.2106 25.0753 66.2225 25.1188C66.8765 27.5428 64.4405 29.3668 62.4005 29.7658C62.2865 29.7878 62.2075 29.7458 62.1635 29.6398C62.0615 29.3938 62.1145 29.2728 62.3225 29.2768C63.6265 29.0588 64.6945 28.4178 65.5265 27.3538C66.0305 26.7118 65.9285 26.0038 65.8715 25.2478C65.868 25.1992 65.852 25.1523 65.8251 25.1117C65.7981 25.0711 65.761 25.038 65.7174 25.0158C65.6737 24.9935 65.625 24.9827 65.5758 24.9845C65.5266 24.9863 65.4787 25.0005 65.4365 25.0258C64.4985 25.6018 63.7025 26.3788 63.0485 27.3568L62.7245 27.2848C62.6545 27.2688 62.5955 27.2878 62.5475 27.3418L61.1225 28.9708C61.0565 29.0468 61.0115 29.1328 60.9875 29.2288C60.7375 30.2068 60.2695 30.7608 59.5835 30.8908C60.3355 29.4888 61.1765 28.1318 62.1065 26.8198C63.0515 25.4878 64.3385 24.5998 65.6075 23.5588Z" fill="#020202"/>
<path d="M46.767 31.9135C46.715 31.9755 46.669 32.0145 46.629 32.0305C46.5933 32.0432 46.555 32.0475 46.5174 32.043C46.4799 32.0385 46.4442 32.0254 46.4135 32.0047C46.3827 31.984 46.3579 31.9565 46.3411 31.9244C46.3243 31.8923 46.3161 31.8566 46.317 31.8205L46.35 30.1825C46.352 30.0865 46.308 30.0235 46.218 29.9935L44.799 29.5135C44.732 29.4907 44.6596 29.4892 44.5917 29.5093C44.5238 29.5295 44.4638 29.5701 44.4201 29.6258C44.3763 29.6814 44.3508 29.7493 44.3472 29.82C44.3437 29.8907 44.3621 29.9607 44.4 30.0205C44.926 30.8665 45.243 31.7895 45.351 32.7895C45.363 32.8935 45.319 32.9635 45.219 32.9995C45.091 33.0435 44.982 33.0025 44.892 32.8765C44.914 32.1145 44.845 31.5865 44.685 31.2925C43.783 29.6385 43.0681 27.9815 42.5401 26.3215C42.4401 26.1095 42.2941 25.9625 42.1021 25.8805C42.0041 25.8385 42.0051 25.8015 42.1051 25.7695C42.3391 25.6955 42.5111 25.7525 42.6211 25.9405C42.6437 25.9805 42.6791 26.0118 42.7215 26.0294C42.7639 26.0471 42.8109 26.0502 42.8553 26.0381C42.8996 26.0261 42.9387 25.9997 42.9663 25.963C42.994 25.9263 43.0087 25.8815 43.0081 25.8355V25.2475C43.0081 25.1155 43.0741 25.0385 43.2061 25.0165C43.3681 24.9905 43.4651 25.0345 43.4971 25.1485C43.3771 25.9495 43.6741 26.5435 43.8241 27.4105C44.008 28.4845 44.73 29.1535 45.99 29.4175C46.0135 29.4228 46.0379 29.4229 46.0614 29.4178C46.0849 29.4126 46.107 29.4024 46.1262 29.3878C46.1453 29.3733 46.1611 29.3547 46.1723 29.3334C46.1835 29.3121 46.1899 29.2886 46.191 29.2645L46.263 27.9985C46.265 27.9767 46.2711 27.9554 46.281 27.9355C46.829 26.7995 47.086 25.5995 47.052 24.3355C47.0507 24.3101 47.0588 24.2853 47.0749 24.2659C47.091 24.2466 47.1139 24.234 47.1392 24.2306C47.1646 24.2273 47.1905 24.2334 47.2121 24.2478C47.2336 24.2621 47.2493 24.2838 47.256 24.3085C47.772 26.4525 47.641 28.5675 46.863 30.6535C46.713 31.0615 46.761 31.4965 46.767 31.9135Z" fill="#020202"/>
<path d="M62.3226 29.2766L62.1186 29.1956C62.0086 29.1496 61.9736 29.0706 62.0136 28.9586C62.2276 28.3686 62.5726 27.8346 63.0486 27.3566C63.7026 26.3786 64.4985 25.6017 65.4365 25.0257C65.4787 25.0003 65.5267 24.9861 65.5759 24.9843C65.6251 24.9826 65.6738 24.9933 65.7174 25.0156C65.7611 25.0379 65.7982 25.0709 65.8251 25.1115C65.8521 25.1521 65.8681 25.199 65.8716 25.2477C65.9286 26.0036 66.0305 26.7116 65.5265 27.3536C64.6946 28.4176 63.6266 29.0586 62.3226 29.2766Z" fill="#FFED01"/>
<path d="M44.8919 32.8766C44.9819 33.0026 45.0909 33.0436 45.2189 32.9996C45.3189 32.9636 45.3629 32.8936 45.3509 32.7896C45.2429 31.7896 44.9259 30.8666 44.3999 30.0206C44.362 29.9609 44.3435 29.8908 44.3471 29.8201C44.3507 29.7494 44.3761 29.6815 44.4199 29.6259C44.4637 29.5702 44.5237 29.5296 44.5916 29.5095C44.6595 29.4894 44.7319 29.4908 44.7989 29.5136L46.2179 29.9936C46.3079 30.0236 46.3519 30.0866 46.3499 30.1826L46.3169 31.8206C46.3159 31.8567 46.3242 31.8924 46.341 31.9245C46.3578 31.9566 46.3826 31.9841 46.4133 32.0048C46.4441 32.0255 46.4797 32.0387 46.5173 32.0432C46.5549 32.0477 46.5932 32.0434 46.6289 32.0306C46.6689 32.0146 46.7149 31.9756 46.7669 31.9136L46.8419 31.9586C46.9139 32.0006 46.9849 32.0006 47.0549 31.9586C48.5549 31.0736 48.0989 29.5676 49.0619 28.4576C49.08 28.4373 49.103 28.4219 49.1288 28.413C49.1545 28.4041 49.1821 28.402 49.2089 28.4068C49.2357 28.4116 49.2608 28.4232 49.2818 28.4405C49.3028 28.4579 49.319 28.4803 49.3289 28.5056C50.0129 30.3086 47.9909 34.5116 46.4159 35.6246C46.3276 35.6862 46.2199 35.7109 46.1159 35.6936C44.9009 35.4956 44.9039 33.6896 44.8919 32.8766Z" fill="#1C1C1B"/>
<path d="M46.2273 38.7386C46.1373 36.1106 49.5363 36.2126 49.5693 38.3156C49.6333 42.5296 49.6133 46.7516 49.5093 50.9816C49.4953 51.5076 49.3603 51.8636 49.1043 52.0496C48.3393 52.6016 46.7133 52.5056 46.6653 51.2036C46.5153 47.0496 46.3693 42.8946 46.2273 38.7386Z" fill="#1C1C1B"/>
<path d="M35.7544 50.5106C35.3104 51.8646 34.5314 52.3126 33.4174 51.8546C32.8594 51.6236 33.0484 51.2786 33.0424 50.8436C33.0124 47.6116 33.0224 44.3796 33.0724 41.1476C33.0729 41.1233 33.0677 41.0992 33.0571 41.0773C33.0465 41.0554 33.0308 41.0362 33.0113 41.0214C32.9917 41.0065 32.9689 40.9963 32.9446 40.9917C32.9204 40.9871 32.8953 40.988 32.8714 40.9946C32.8034 41.0146 32.7334 41.0646 32.6614 41.1446C32.6554 40.1456 32.3854 38.0096 33.2074 37.3166C34.3444 36.3566 35.7124 37.2026 35.7754 38.6456C35.8754 41.0196 35.8684 44.9746 35.7544 50.5106Z" fill="#1C1C1B"/>
<path d="M42.9334 40.7694C42.7994 40.6494 42.6514 40.6354 42.4894 40.7274C42.4014 40.7774 42.3604 40.8534 42.3664 40.9554C42.4764 42.7874 42.4494 44.6174 42.2854 46.4454C42.1234 48.2664 42.1174 49.7394 42.1294 51.4254C42.1294 51.4888 42.105 51.5497 42.0613 51.5952C42.0176 51.6406 41.958 51.6668 41.8954 51.6684L40.2484 51.7044C40.2192 51.7052 40.19 51.7001 40.1628 51.6895C40.1355 51.6788 40.1106 51.6628 40.0897 51.6424C40.0687 51.622 40.052 51.5976 40.0406 51.5706C40.0293 51.5437 40.0234 51.5147 40.0234 51.4854C40.0274 50.7634 39.8014 50.1264 39.3454 49.5744C39.3152 49.5384 39.3 49.4921 39.3027 49.4448C39.3055 49.3975 39.3261 49.3527 39.3604 49.3194C39.9604 48.7354 40.1714 48.0874 39.9934 47.3754C39.9394 47.1574 39.7924 47.1304 39.5524 47.2944C39.5564 45.0864 39.5594 42.8844 39.5614 40.6884C39.5644 39.3564 37.6624 39.9084 37.0684 39.1614C36.2884 38.1804 37.2664 36.9384 38.4364 36.9414C39.8644 36.9454 41.2934 36.9414 42.7234 36.9294C44.1754 36.9204 45.3754 37.1604 44.9224 38.9754C44.7664 39.5964 44.0164 39.5484 43.6444 39.8364C43.3464 40.0664 43.1094 40.3774 42.9334 40.7694Z" fill="#1C1C1B"/>
<path d="M30.0783 43.3945L30.0003 48.4255C29.9985 48.5499 29.9607 48.6712 29.8916 48.775C29.8224 48.8787 29.7248 48.9605 29.6103 49.0105C29.1283 49.2165 28.8153 49.0315 28.6713 48.4555C28.5773 48.0795 28.4953 47.6875 28.4253 47.2795C28.5973 46.2535 28.8093 45.2315 29.0613 44.2135C29.3613 42.9895 27.9093 41.6095 29.5203 40.5356C29.5568 40.5117 29.5989 40.4978 29.6423 40.4951C29.6858 40.4924 29.7291 40.5011 29.768 40.5202C29.8069 40.5393 29.8399 40.5683 29.8639 40.6041C29.8878 40.64 29.9017 40.6815 29.9043 40.7246L30.0783 43.3945Z" fill="#FFED01"/>
<path d="M42.9334 40.7696C42.8674 44.1096 42.7664 47.4536 42.6304 50.8016C42.6304 50.8216 42.6394 50.9776 42.6574 51.2696C42.7234 52.3406 40.6564 52.2146 40.0564 52.1066C39.9078 52.0803 39.7743 51.9997 39.6818 51.8805C39.5892 51.7614 39.5442 51.6121 39.5554 51.4616C39.6074 50.7836 39.3924 50.2136 38.9104 49.7516C38.8765 49.7191 38.8494 49.6801 38.8308 49.6369C38.8123 49.5937 38.8025 49.5472 38.8023 49.5002C38.802 49.4532 38.8111 49.4066 38.8292 49.3632C38.8473 49.3198 38.8739 49.2805 38.9074 49.2476C39.4674 48.7056 39.6824 48.0546 39.5524 47.2946C39.7924 47.1306 39.9394 47.1576 39.9934 47.3756C40.1714 48.0876 39.9604 48.7356 39.3604 49.3196C39.3261 49.3529 39.3055 49.3976 39.3027 49.445C39.3 49.4923 39.3152 49.5386 39.3454 49.5746C39.8014 50.1266 40.0274 50.7636 40.0234 51.4856C40.0234 51.5149 40.0293 51.5438 40.0406 51.5708C40.052 51.5978 40.0687 51.6222 40.0897 51.6426C40.1106 51.663 40.1355 51.679 40.1628 51.6897C40.19 51.7003 40.2192 51.7054 40.2484 51.7046L41.8954 51.6686C41.958 51.667 42.0176 51.6407 42.0613 51.5953C42.105 51.5499 42.1295 51.489 42.1294 51.4256C42.1174 49.7396 42.1234 48.2666 42.2854 46.4456C42.4494 44.6176 42.4764 42.7876 42.3664 40.9556C42.3604 40.8536 42.4014 40.7776 42.4894 40.7276C42.6514 40.6356 42.7994 40.6496 42.9334 40.7696Z" fill="#020202"/>
<path d="M35.7547 50.5105C35.9317 52.8205 32.6617 53.4265 32.6587 50.3995C32.6567 47.3095 32.6577 44.2245 32.6617 41.1445C32.7337 41.0645 32.8037 41.0145 32.8717 40.9945C32.8956 40.988 32.9207 40.987 32.945 40.9916C32.9692 40.9963 32.9921 41.0065 33.0116 41.0213C33.0311 41.0362 33.0468 41.0553 33.0574 41.0772C33.068 41.0992 33.0733 41.1232 33.0727 41.1475C33.0227 44.3795 33.0127 47.6115 33.0427 50.8435C33.0487 51.2785 32.8597 51.6235 33.4177 51.8545C34.5317 52.3125 35.3107 51.8645 35.7547 50.5105Z" fill="#020202"/>
<path d="M59.403 45.0055C59.3281 44.9527 59.2678 44.8817 59.2278 44.7992C59.1878 44.7167 59.1696 44.6254 59.1747 44.5338C59.1798 44.4423 59.2081 44.3536 59.257 44.276C59.3058 44.1984 59.3737 44.1346 59.454 44.0905C61.257 43.0975 62.577 43.3345 64.02 41.5915C64.156 41.4275 64.31 41.3495 64.482 41.3575C64.5455 41.3606 64.6068 41.3825 64.6579 41.4205C64.709 41.4585 64.7475 41.5108 64.7685 41.5706C64.7895 41.6304 64.792 41.695 64.7757 41.7559C64.7594 41.8169 64.725 41.8714 64.677 41.9125C63.903 42.5875 60.756 45.0835 59.781 45.0805C59.597 45.0785 59.471 45.0535 59.403 45.0055Z" fill="#FFED01"/>
<path d="M30.0788 43.3946C30.3088 43.3626 30.4958 43.3856 30.6398 43.4636C30.9298 46.3076 31.0308 48.2326 30.9428 49.2386C30.7028 51.9656 30.3728 54.0566 31.8608 55.7966C31.9077 55.8504 31.9675 55.8918 32.0345 55.9167C32.1014 55.9416 32.1735 55.9494 32.2441 55.9392C32.3146 55.929 32.3813 55.9013 32.4381 55.8585C32.4948 55.8158 32.5398 55.7594 32.5688 55.6946L33.7028 53.1566C33.7122 53.1354 33.7278 53.1175 33.7475 53.1055C33.7673 53.0934 33.7903 53.0876 33.8134 53.0889C33.8366 53.0902 33.8587 53.0985 33.877 53.1128C33.8953 53.127 33.9088 53.1465 33.9158 53.1686C34.2058 54.1046 34.0898 54.9786 33.5678 55.7906C33.5534 55.8155 33.5477 55.8445 33.5517 55.873C33.5557 55.9015 33.5691 55.9279 33.5898 55.9479C33.6105 55.9679 33.6373 55.9804 33.6659 55.9834C33.6945 55.9865 33.7233 55.9798 33.7478 55.9646L36.2768 54.2096C36.3074 54.1885 36.3432 54.1761 36.3804 54.1737C36.4175 54.1713 36.4546 54.1789 36.4878 54.1958C36.5209 54.2127 36.5489 54.2382 36.5688 54.2697C36.5887 54.3011 36.5997 54.3374 36.6008 54.3746C36.6428 55.7546 35.5658 56.6006 34.7378 57.5426C33.2138 59.2795 32.4608 60.9205 32.6798 63.3325C32.5698 63.4005 32.4868 63.4315 32.4308 63.4255C32.353 63.4165 32.2815 63.3794 32.2303 63.3216C32.1792 63.2638 32.1522 63.1895 32.1548 63.1135L32.2268 61.1005C32.2288 61.0573 32.2173 61.0145 32.194 60.9779C32.1707 60.9414 32.1367 60.913 32.0966 60.8966C32.0565 60.8801 32.0124 60.8765 31.9701 60.8862C31.9279 60.8958 31.8897 60.9183 31.8608 60.9505C31.5548 61.2805 31.1758 61.4745 30.7238 61.5325C30.6278 61.5445 30.5758 61.5985 30.5678 61.6945C30.5078 62.4085 30.8918 62.5525 31.1258 63.0685C31.3278 63.5185 31.2568 63.7155 30.9128 63.6595C30.3728 62.0035 28.9808 60.9625 28.2698 59.4175C27.7378 58.2636 27.5318 57.0486 27.6518 55.7726C27.6575 55.7178 27.6793 55.6658 27.7145 55.6234C27.7497 55.5809 27.7967 55.5499 27.8493 55.5344C27.902 55.5189 27.9579 55.5196 28.0098 55.5364C28.0618 55.5532 28.1074 55.5853 28.1408 55.6286C29.2868 57.0836 28.9568 60.1705 30.8168 60.9715C30.9142 61.0129 31.0206 61.0289 31.1259 61.0181C31.2312 61.0073 31.3319 60.97 31.4186 60.9096C31.5053 60.8493 31.5752 60.768 31.6216 60.6734C31.668 60.5787 31.6894 60.4738 31.6838 60.3686C31.6178 59.0626 31.3418 57.8276 30.8558 56.6636C29.5208 53.4866 28.2008 50.8706 27.7568 47.0996L27.9308 46.8056C27.9888 46.7096 28.0548 46.7036 28.1288 46.7876C28.2688 46.9436 28.3678 47.1076 28.4258 47.2796C28.4958 47.6876 28.5778 48.0796 28.6718 48.4556C28.8158 49.0316 29.1288 49.2166 29.6108 49.0106C29.7252 48.9605 29.8229 48.8787 29.892 48.775C29.9612 48.6713 29.9989 48.55 30.0008 48.4256L30.0788 43.3946Z" fill="#020202"/>
<path d="M27.7563 47.0996C28.2003 50.8706 29.5203 53.4866 30.8553 56.6636C31.3413 57.8276 31.6173 59.0626 31.6833 60.3686C31.6889 60.4738 31.6675 60.5787 31.6211 60.6734C31.5747 60.768 31.5049 60.8494 31.4182 60.9097C31.3314 60.97 31.2307 61.0073 31.1254 61.0181C31.0201 61.029 30.9137 61.0129 30.8163 60.9716C28.9563 60.1706 29.2863 57.0836 28.1403 55.6286C28.1069 55.5853 28.0613 55.5532 28.0093 55.5364C27.9574 55.5196 27.9015 55.519 27.8489 55.5345C27.7962 55.55 27.7493 55.5809 27.7141 55.6234C27.6788 55.6658 27.657 55.7178 27.6513 55.7726C27.5313 57.0486 27.7373 58.2636 28.2693 59.4176C28.9803 60.9626 30.3723 62.0036 30.9123 63.6596L30.9453 66.4376C30.7573 67.3296 30.3743 67.7926 29.7963 67.8266C29.6578 67.8345 29.5202 67.7996 29.4026 67.7265C29.2849 67.6535 29.193 67.5459 29.1393 67.4186C28.5363 65.9996 28.5663 64.4756 27.9753 63.1646C27.4923 62.0936 26.8623 61.1756 26.7333 59.9996C26.6433 59.1756 26.6003 58.3576 26.6043 57.5456C26.6044 57.5282 26.5983 57.5115 26.587 57.4983C26.5757 57.4851 26.5601 57.4765 26.5429 57.4739C26.5258 57.4714 26.5083 57.4751 26.4937 57.4844C26.479 57.4937 26.4683 57.508 26.4633 57.5246C25.9973 59.1506 26.1093 60.7386 26.7993 62.2886C26.8173 62.3306 26.8133 62.3696 26.7873 62.4056C26.7633 62.4376 26.7463 62.4716 26.7363 62.5076C26.7263 62.5496 26.7343 62.6016 26.7603 62.6636C27.6633 64.7756 29.2293 67.6676 27.3183 69.4346C26.8263 69.4616 26.5893 69.2336 26.6043 68.7356C26.6523 66.9576 26.3853 65.2306 25.8033 63.5546C25.0653 61.4306 25.0833 58.2026 25.9743 56.1416C26.4363 55.0676 26.5863 54.3116 26.5923 53.2556C26.5953 52.3856 26.1363 51.4286 26.1903 50.5136C26.2483 49.4836 26.3143 48.4546 26.3883 47.4266C26.4093 47.1026 26.6613 46.7936 26.6733 46.5446C26.7033 45.8886 26.8803 45.3426 27.2043 44.9066C27.2307 44.8701 27.2677 44.8426 27.3103 44.8279C27.353 44.8132 27.3991 44.812 27.4424 44.8245C27.4857 44.8369 27.5241 44.8625 27.5523 44.8976C27.5806 44.9327 27.5974 44.9756 27.6003 45.0206L27.7563 47.0996Z" fill="#FFED01"/>
<path d="M30.4086 49.6108C30.5826 50.3878 30.2376 51.4858 30.0816 52.2208C30.076 52.2475 30.0632 52.2722 30.0447 52.2924C30.0262 52.3125 30.0027 52.3272 29.9768 52.3349C29.9508 52.3426 29.9234 52.3431 29.8975 52.3362C29.8715 52.3293 29.8481 52.3153 29.8296 52.2958C29.2376 51.6818 28.9276 50.9448 28.8996 50.0848C28.8956 49.9868 28.9436 49.9348 29.0436 49.9288C29.4356 49.9088 29.7836 49.7668 30.0876 49.5028C30.1136 49.4808 30.1449 49.4659 30.1783 49.4596C30.2118 49.4532 30.2463 49.4555 30.2786 49.4664C30.3108 49.4772 30.3398 49.4962 30.3625 49.5215C30.3853 49.5468 30.4012 49.5776 30.4086 49.6108Z" fill="#1C1C1B"/>
<path d="M46.0206 55.1698L45.8226 55.2898C45.796 55.3067 45.7645 55.3142 45.7332 55.3111C45.7018 55.308 45.6724 55.2945 45.6496 55.2728C45.6269 55.251 45.612 55.2223 45.6075 55.1911C45.6029 55.16 45.609 55.1282 45.6246 55.1008L45.7056 54.9478C45.7177 54.9251 45.724 54.8997 45.7242 54.874C45.7243 54.8483 45.7181 54.823 45.7062 54.8004C45.6943 54.7778 45.6771 54.7586 45.656 54.7446C45.635 54.7305 45.6108 54.722 45.5856 54.7198C45.0816 54.6678 44.7546 54.8748 44.6046 55.3408C44.5731 55.4333 44.5183 55.516 44.4456 55.5808C42.6186 57.1768 41.6136 60.1108 39.1176 60.9538C39.075 60.9684 39.0288 60.9686 38.986 60.9545C38.9433 60.9405 38.9063 60.9128 38.8806 60.8758L38.2416 59.9728C38.212 59.9303 38.1933 59.8815 38.187 59.8308C38.1807 59.78 38.1871 59.7288 38.2056 59.6818C38.9336 57.8638 39.8556 56.1528 40.9716 54.5488C41.0192 54.4806 41.0404 54.3978 41.0314 54.3154C41.0224 54.233 40.9838 54.1566 40.9226 54.1001C40.8614 54.0437 40.7818 54.011 40.6982 54.008C40.6147 54.005 40.5328 54.0319 40.4676 54.0838C38.3466 55.8118 36.8886 58.6708 35.2386 60.9988C34.7016 61.7608 34.1466 62.9668 33.3006 63.8038C33.2635 63.842 33.2149 63.867 33.1623 63.8752C33.1097 63.8834 33.0558 63.8743 33.0088 63.8493C32.9618 63.8243 32.9242 63.7847 32.9016 63.7364C32.879 63.6882 32.8727 63.6339 32.8836 63.5818L32.9016 63.4888C33.0896 63.4608 33.2286 63.3798 33.3186 63.2458C34.9246 60.8298 36.5526 58.4288 38.2026 56.0428C38.7306 55.2808 39.9846 53.7058 41.1096 53.2288C41.2176 53.1828 41.2756 53.2188 41.2836 53.3368C41.4516 55.6768 38.1546 58.8718 38.8956 60.2938C38.9167 60.3345 38.9496 60.3679 38.9898 60.3893C39.03 60.4107 39.0757 60.4193 39.1206 60.4138C41.2896 60.1798 44.4036 53.4088 46.0806 54.2158C46.1806 54.2638 46.2306 54.3428 46.2306 54.4528C46.2306 54.7368 46.1606 54.9758 46.0206 55.1698Z" fill="#020202"/>
<path d="M32.1758 56.3816L32.8988 55.9616C32.9748 55.9176 33.0458 55.9256 33.1118 55.9856C33.8168 56.6516 35.0408 55.6256 35.7818 55.3016C35.8578 55.2696 35.8768 55.2906 35.8388 55.3646C35.4328 56.1526 34.9128 56.8436 34.2788 57.4376C33.3578 58.3016 32.9798 59.2406 32.4338 60.2966C32.423 60.3177 32.4057 60.3346 32.3844 60.3449C32.363 60.3551 32.3389 60.3581 32.3158 60.3533C32.2926 60.3486 32.2716 60.3363 32.2561 60.3185C32.2406 60.3006 32.2313 60.2782 32.2298 60.2546C32.1248 58.8686 31.4678 57.4766 31.1498 56.1146C31.1449 56.0943 31.1442 56.0732 31.1476 56.0526C31.1511 56.032 31.1586 56.0123 31.1698 55.9947C31.181 55.9771 31.1956 55.9619 31.2128 55.95C31.23 55.9381 31.2493 55.9298 31.2698 55.9256C31.5498 55.8676 31.7428 55.9806 31.8488 56.2646C31.86 56.2958 31.878 56.3242 31.9015 56.3476C31.925 56.3711 31.9534 56.389 31.9847 56.4002C32.0159 56.4114 32.0493 56.4155 32.0823 56.4123C32.1154 56.4091 32.1473 56.3986 32.1758 56.3816Z" fill="#1C1C1B"/>
<path d="M52.7584 56.9248C53.0664 56.8768 53.1334 56.9828 52.9594 57.2428C52.3114 58.2048 51.5024 59.0188 50.5324 59.6848C50.4653 59.7307 50.3855 59.7543 50.3043 59.7524C50.2231 59.7504 50.1445 59.7229 50.0798 59.6737C50.0151 59.6246 49.9674 59.5564 49.9437 59.4786C49.9199 59.4009 49.9212 59.3177 49.9474 59.2408C50.4074 57.9168 51.3444 57.1448 52.7584 56.9248Z" fill="#FFED01"/>
<path d="M30.9454 66.4378C31.4054 67.1198 31.0824 67.7618 29.9764 68.3638C29.8864 68.4118 29.7954 68.4148 29.7034 68.3728C29.5414 68.2988 29.4414 68.1918 29.4034 68.0518C29.3783 67.9628 29.3234 67.8858 29.2478 67.8336C29.1722 67.7813 29.0804 67.757 28.9879 67.7648C28.8953 67.7725 28.8074 67.8117 28.7389 67.876C28.6704 67.9402 28.6254 68.0255 28.6114 68.1178C28.5194 68.7038 28.1774 69.2178 27.5854 69.6598C27.4454 69.7638 27.3104 69.7938 27.1804 69.7498C27.0904 69.7178 27.0734 69.6628 27.1294 69.5848C27.1714 69.5248 27.2344 69.4748 27.3184 69.4348C29.2294 67.6678 27.6634 64.7758 26.7604 62.6638C26.7344 62.6018 26.7264 62.5498 26.7364 62.5078C26.7464 62.4718 26.7634 62.4378 26.7874 62.4058C26.8134 62.3698 26.8174 62.3308 26.7994 62.2888C26.1094 60.7388 25.9974 59.1508 26.4634 57.5248C26.4684 57.5082 26.4791 57.4939 26.4938 57.4846C26.5084 57.4753 26.5259 57.4716 26.543 57.4742C26.5602 57.4767 26.5758 57.4854 26.5871 57.4985C26.5984 57.5117 26.6045 57.5285 26.6044 57.5458C26.6004 58.3578 26.6434 59.1758 26.7334 59.9998C26.8624 61.1758 27.4924 62.0938 27.9754 63.1648C28.5664 64.4758 28.5364 65.9998 29.1394 67.4188C29.1931 67.5461 29.2851 67.6537 29.4027 67.7268C29.5203 67.7998 29.6579 67.8348 29.7964 67.8268C30.3744 67.7928 30.7574 67.3298 30.9454 66.4378Z" fill="#020202"/>
<path d="M48.1951 60.7046C48.4671 60.8066 48.5622 60.9336 48.4802 61.0856C47.8682 62.2176 47.0742 63.1876 46.0982 63.9956C46.0711 64.0178 46.0523 64.0485 46.0448 64.0826C46.0373 64.1168 46.0415 64.1525 46.0568 64.184C46.072 64.2155 46.0974 64.241 46.1288 64.2563C46.1603 64.2717 46.196 64.276 46.2302 64.2686C47.1662 64.0646 47.8632 64.3586 48.3212 65.1506C48.3417 65.1864 48.3515 65.2274 48.3494 65.2689C48.3472 65.3103 48.3333 65.3505 48.3091 65.3846C47.7571 66.1346 46.8002 66.4166 46.2602 66.7856C44.4182 68.0366 41.2112 69.7286 38.9462 69.6806C37.6652 69.6506 35.7092 69.0986 37.4852 67.5296C37.6012 67.4256 37.5812 67.3676 37.4252 67.3556C36.2522 67.2626 34.8482 68.2736 33.9092 68.9576C33.8767 68.9822 33.8373 68.9961 33.7966 68.9972C33.7558 68.9984 33.7157 68.9867 33.6819 68.9638C33.6482 68.941 33.6224 68.9081 33.6083 68.8699C33.5941 68.8316 33.5924 68.7899 33.6032 68.7506C33.6232 68.6686 33.6792 68.5916 33.7712 68.5196C34.8732 67.8276 36.0102 67.2066 37.1822 66.6566C39.3932 65.6156 40.4912 64.4606 41.5682 62.3486C41.7162 62.0586 42.0032 61.8916 42.4292 61.8476C42.5112 61.8396 42.5622 61.8756 42.5822 61.9556C42.8262 62.9956 42.5922 63.5416 41.8802 63.5936C40.7942 64.3756 39.7932 65.2836 38.8772 66.3176C38.8132 66.3916 38.7332 66.4406 38.6372 66.4646C38.3092 66.5546 38.1542 66.7186 38.1722 66.9566C38.1768 67.0111 38.1942 67.0637 38.2231 67.1101C38.2521 67.1565 38.2916 67.1953 38.3385 67.2234C38.3853 67.2516 38.4382 67.2682 38.4928 67.2718C38.5473 67.2755 38.6019 67.2662 38.6522 67.2446L42.2942 65.6636C42.3782 65.6276 42.4112 65.5656 42.3932 65.4776L42.2882 64.9646C42.2542 64.7966 42.3232 64.7226 42.4952 64.7426C43.4212 64.8566 44.2562 64.6586 45.0002 64.1486C46.3062 63.3766 47.3711 62.2286 48.1951 60.7046Z" fill="#020202"/>
<path d="M41.8808 63.5938L41.9768 64.5537C41.9888 64.6877 42.0608 64.7407 42.1928 64.7127L45.0008 64.1487C44.2568 64.6587 43.4218 64.8567 42.4958 64.7427C42.3238 64.7227 42.2548 64.7967 42.2888 64.9647L42.3938 65.4777C42.4118 65.5657 42.3788 65.6277 42.2948 65.6637L38.6528 67.2447C38.6026 67.2663 38.5479 67.2757 38.4934 67.272C38.4388 67.2683 38.3859 67.2517 38.3391 67.2236C38.2922 67.1955 38.2527 67.1566 38.2238 67.1102C38.1949 67.0638 38.1774 67.0112 38.1728 66.9567C38.1548 66.7187 38.3098 66.5547 38.6378 66.4647C38.7338 66.4407 38.8138 66.3917 38.8778 66.3177C39.7938 65.2837 40.7948 64.3757 41.8808 63.5938Z" fill="#1C1C1B"/>
<path d="M24.8042 64.4666C25.2262 64.4966 25.3902 64.7516 25.2962 65.2316C25.2782 65.3296 25.2972 65.4186 25.3532 65.4986C25.6032 65.8486 25.7112 66.2476 25.6772 66.6956C25.6692 66.7776 25.6902 66.8505 25.7402 66.9145L26.2172 67.5505C26.2732 67.6285 26.2872 67.7126 26.2592 67.8026C26.1432 68.1545 26.1922 68.4525 26.4062 68.6965C26.4702 68.7685 26.5072 68.8515 26.5172 68.9455C26.5692 69.3755 26.3392 69.6335 25.8272 69.7195L24.8042 64.4666Z" fill="#020202"/>
<path d="M47.7542 64.8145C47.8162 64.8275 47.8712 64.8628 47.9088 64.9137C47.9464 64.9646 47.964 65.0275 47.9582 65.0905C47.9362 65.3265 47.8052 65.5195 47.5652 65.6695C44.9102 67.3285 40.4072 69.9205 37.2992 68.9335C37.238 68.9149 37.1837 68.8782 37.1436 68.8282C37.1036 68.7782 37.0795 68.7173 37.0746 68.6534C37.0698 68.5895 37.0843 68.5257 37.1164 68.4702C37.1484 68.4147 37.1965 68.3702 37.2542 68.3425C39.7162 67.1465 42.2472 66.0355 44.8472 65.0095C45.7412 64.6555 46.7102 64.5905 47.7542 64.8145Z" fill="#FFED01"/>
<path d="M26.6348 74.9456C27.2048 72.9926 28.6088 70.6886 30.3158 69.5186C30.3464 69.4974 30.3832 69.487 30.4205 69.489C30.4577 69.491 30.4932 69.5054 30.5213 69.5298C30.5495 69.5542 30.5688 69.5872 30.5761 69.6238C30.5834 69.6603 30.5784 69.6983 30.5618 69.7316C29.8328 71.1926 28.9058 72.4736 28.3178 73.9886C28.0518 74.6706 27.6398 75.2666 27.0818 75.7766C27.0443 75.8115 26.9956 75.8317 26.9447 75.8334C26.8939 75.835 26.8445 75.818 26.8058 75.7856C26.5798 75.6056 26.5228 75.3256 26.6348 74.9456Z" fill="#FFED01"/>
<path d="M35.9617 70.3285C35.9943 70.3383 36.0219 70.3603 36.0387 70.3899C36.0555 70.4195 36.0601 70.4545 36.0517 70.4875C35.7097 71.9305 31.1887 74.6725 29.7457 74.5825C29.6578 74.5772 29.5729 74.548 29.5003 74.4982C29.4276 74.4484 29.3698 74.3797 29.3332 74.2996C29.2965 74.2195 29.2823 74.1309 29.2921 74.0433C29.3019 73.9558 29.3353 73.8725 29.3887 73.8025C30.3757 72.5185 32.8087 70.1335 34.5367 70.1275C35.0127 70.1255 35.4877 70.1925 35.9617 70.3285Z" fill="#FFED01"/>
</svg>
