<svg width="100" height="100" viewBox="0 0 100 100" fill="none" xmlns="http://www.w3.org/2000/svg">
<rect width="100" height="100" fill="#EBF5FF"/>
<path d="M31.9246 26.1005C31.9274 26.0848 31.9349 26.0702 31.9462 26.0589C31.9575 26.0476 31.972 26.04 31.9878 26.0371C32.0035 26.0343 32.0197 26.0363 32.0343 26.043C32.0488 26.0497 32.061 26.0606 32.0691 26.0744C35.8159 32.691 37.8709 39.998 35.7697 47.5639C35.7283 47.7138 35.6681 47.7218 35.5891 47.588C31.7801 41.1118 30.7185 33.4777 31.9246 26.1005Z" fill="#0642F3"/>
<path d="M42.185 26.0481C42.1943 26.0314 42.2086 26.0179 42.2258 26.0094C42.243 26.001 42.2624 25.998 42.2813 26.0008C42.3003 26.0036 42.3179 26.0122 42.3319 26.0253C42.3459 26.0384 42.3556 26.0555 42.3596 26.0742C43.8969 32.9779 43.4172 41.6977 38.9118 47.5236C38.9056 47.5319 38.8972 47.5383 38.8876 47.542C38.8779 47.5457 38.8674 47.5465 38.8572 47.5444C38.8471 47.5423 38.8378 47.5373 38.8304 47.5301C38.823 47.5228 38.8178 47.5136 38.8155 47.5035C37.1658 40.5819 38.6951 32.1791 42.185 26.0481Z" fill="#F9740B"/>
<path d="M32.6683 28.0029C33.7025 30.0553 34.3841 31.5464 34.7133 32.4762C36.0538 36.2672 36.8465 40.301 36.0418 44.1863C35.8853 44.9429 35.8853 45.6433 35.8431 46.3979C35.8397 46.4518 35.8201 46.5035 35.7868 46.5461C35.7536 46.5888 35.7083 46.6204 35.6569 46.6367C35.6056 46.653 35.5506 46.6533 35.4993 46.6375C35.4479 46.6218 35.4027 46.5907 35.3695 46.5484C34.5086 45.4566 34.1513 43.9274 33.5593 42.653C33.3345 42.1714 33.1553 41.6603 33.0215 41.1198C32.8047 40.2528 32.4876 39.3959 32.3552 38.551C31.8053 35.0658 31.6401 31.5611 31.8595 28.0371C31.8776 27.734 31.7712 27.437 32.0803 27.1982C32.1364 27.1554 32.1933 27.154 32.2508 27.1942C32.578 27.425 32.5418 27.7521 32.6683 28.0029Z" fill="#0642F3"/>
<path d="M51.8101 31.4084C50.9251 33.7223 50.4836 36.3031 49.5644 38.4545C49.2474 39.1943 48.5831 40.545 47.5716 42.5063C47.5395 42.5665 47.5295 42.6301 47.5415 42.697C47.5549 42.7706 47.5897 42.8127 47.6459 42.8234C46.106 45.2571 44.1727 47.2292 41.8461 48.7397C41.8312 48.7491 41.8139 48.7542 41.7963 48.7544C41.7787 48.7545 41.7614 48.7497 41.7463 48.7405C41.7313 48.7313 41.7191 48.7181 41.7112 48.7023C41.7033 48.6866 41.6999 48.6689 41.7016 48.6514C41.9665 46.3568 42.5224 44.1533 43.3693 42.0407C43.7225 41.614 44.0068 41.1296 44.2222 40.5878C45.2256 38.0672 46.8672 35.9078 48.569 33.8146C49.1169 33.1403 49.8434 32.5101 50.4414 31.7997C50.4816 31.7515 50.4863 31.6994 50.4555 31.6432C50.3993 31.5402 50.3826 31.4325 50.4053 31.3201L51.9847 29.8069C51.997 29.7952 52.0126 29.7877 52.0294 29.7854C52.0462 29.7831 52.0632 29.7862 52.0782 29.7942C52.0931 29.8022 52.1051 29.8148 52.1125 29.83C52.1198 29.8453 52.1222 29.8625 52.1192 29.8791L51.8101 31.4084Z" fill="#0642F3"/>
<path d="M22.8879 30.714C28.3224 35.2997 32.583 41.7698 32.7596 48.9925C32.7601 49.02 32.7528 49.0472 32.7384 49.0707C32.724 49.0941 32.7033 49.113 32.6786 49.1249C32.654 49.1367 32.6265 49.1412 32.5996 49.1377C32.5727 49.1341 32.5474 49.1228 32.5268 49.1049C26.8775 44.3085 23.6465 38.0371 22.2738 30.7762C22.2417 30.6077 22.3106 30.5187 22.4805 30.5093C22.5835 30.504 22.7193 30.5722 22.8879 30.714Z" fill="#F9740B"/>
<path d="M50.4057 31.3203C50.3829 31.4327 50.3997 31.5404 50.4558 31.6434C50.4866 31.6996 50.4819 31.7518 50.4418 31.8C49.8438 32.5104 49.1173 33.1405 48.5694 33.8148C46.8676 35.908 45.226 38.0674 44.2225 40.588C44.0071 41.1299 43.7228 41.6142 43.3696 42.041C44.947 37.947 47.2924 34.3734 50.4057 31.3203Z" fill="#0642F3"/>
<path d="M51.8106 31.4084C51.1122 35.5265 49.7242 39.3315 47.6464 42.8235C47.5902 42.8128 47.5554 42.7706 47.542 42.6971C47.53 42.6302 47.54 42.5666 47.5721 42.5064C48.5836 40.545 49.2479 39.1944 49.5649 38.4545C50.4841 36.3032 50.9256 33.7224 51.8106 31.4084Z" fill="#0642F3"/>
<path d="M17.2524 39.7931C18.7307 40.6828 20.2245 41.513 21.7337 42.2836C23.0642 42.964 24.1559 44.0437 25.2938 44.9889C27.2565 46.6225 28.4546 48.545 29.735 50.7024C29.8394 50.879 29.9116 51.067 29.9518 51.2664C29.958 51.2969 29.9568 51.3284 29.9485 51.3585C29.9401 51.3885 29.9247 51.416 29.9036 51.4389C29.6628 51.7039 29.3758 51.8122 29.0426 51.7641L28.551 51.5614C28.0345 51.1413 27.4579 50.7981 26.8211 50.5318C24.752 49.6649 22.998 48.3504 21.3303 46.8673C20.5416 46.1669 19.6024 45.5287 18.9702 44.6698C18.3856 43.8751 17.3989 42.5626 16.0101 40.7323C15.97 40.6788 15.9165 40.6547 15.8496 40.6601L15.687 40.6761L14.5792 39.0425C14.5672 39.0247 14.5608 39.0036 14.561 38.982C14.5613 38.9605 14.568 38.9395 14.5804 38.9219C14.5928 38.9042 14.6103 38.8908 14.6305 38.8833C14.6507 38.8758 14.6727 38.8747 14.6936 38.88C15.6917 39.1355 16.5446 39.4399 17.2524 39.7931Z" fill="#0642F3"/>
<path d="M17.2524 39.793C23.0402 41.9102 27.943 45.93 30.4516 51.5973C30.5305 51.778 30.5706 51.9566 30.572 52.1332C30.5724 52.1545 30.5675 52.1756 30.5579 52.1946C30.5482 52.2136 30.5341 52.23 30.5167 52.2422C30.4992 52.2545 30.4791 52.2623 30.4579 52.265C30.4368 52.2677 30.4153 52.2652 30.3954 52.2576L29.0427 51.7639C29.3759 51.8121 29.6629 51.7037 29.9037 51.4388C29.9248 51.4159 29.9402 51.3883 29.9486 51.3583C29.9569 51.3283 29.9581 51.2967 29.9518 51.2662C29.9117 51.0669 29.8395 50.8789 29.7351 50.7023C28.4547 48.5449 27.2566 46.6223 25.2939 44.9887C24.156 44.0435 23.0643 42.9638 21.7338 42.2835C20.2246 41.5129 18.7308 40.6827 17.2524 39.793Z" fill="#0642F3"/>
<path d="M15.6865 40.676L15.8491 40.6599C15.916 40.6546 15.9695 40.6786 16.0096 40.7322C17.3984 42.5624 18.3851 43.8749 18.9697 44.6696C19.6019 45.5286 20.5411 46.1667 21.3298 46.8671C22.9975 48.3502 24.7515 49.6647 26.8206 50.5317C27.4574 50.7979 28.0341 51.1411 28.5505 51.5612C23.0276 49.3697 18.8975 45.6149 15.6865 40.676Z" fill="#0642F3"/>
<path d="M87.1605 47.9193C87.0193 48.6133 87.412 49.2791 88.0376 49.4064C88.6632 49.5336 89.2848 49.0742 89.426 48.3802C89.5672 47.6862 89.1745 47.0204 88.5489 46.8931C87.9233 46.7658 87.3017 47.2252 87.1605 47.9193Z" fill="#F9740B"/>
<path d="M11.3346 50.2009C17.883 49.5968 24.0922 50.5059 29.1054 55.1037C29.29 55.2736 29.3984 55.5057 29.4305 55.8001C29.4372 55.8616 29.4097 55.8937 29.3482 55.8964C28.6926 55.9205 28.0417 55.9566 27.3955 56.0048C21.2304 56.4663 14.949 54.4013 10.1385 50.5581C10.0529 50.4899 10.0629 50.4404 10.1686 50.4096C10.4964 50.3119 10.8851 50.2424 11.3346 50.2009Z" fill="#F9740B"/>
<path d="M59.6111 62.2238C60.7189 62.3603 61.6641 61.9228 62.7077 61.6398C62.7706 61.6238 62.8228 61.6405 62.8642 61.69C63.39 62.3242 63.1954 62.862 62.4769 63.1831C60.9336 63.8735 58.9388 64.0982 57.4558 63.2674C55.6215 62.2399 55.3666 60.0805 55.5151 58.1218C55.7339 55.2219 57.7026 51.6798 60.8895 51.2804C62.6355 51.0616 64.4978 52.1273 64.5922 54.088C64.7828 58.0536 60.0526 58.182 57.3153 58.2562C57.2845 58.2567 57.255 58.269 57.2327 58.2905C57.2104 58.3121 57.1969 58.3414 57.1949 58.3726C57.0865 60.0664 57.6404 61.979 59.6111 62.2238Z" fill="#F9740B"/>
<path d="M36.2591 52.1416C37.8104 51.0458 41.0033 50.7428 41.8041 53.0647C42.7553 55.8202 41.0595 57.3835 38.575 57.9153C37.7522 58.0906 36.4986 58.1849 34.8142 58.1983C34.7838 58.1981 34.7543 58.2092 34.7314 58.2296C34.7085 58.2499 34.6937 58.278 34.6897 58.3087C34.2021 62.5251 37.4171 62.7017 40.3792 61.5859C40.4016 61.5776 40.4259 61.5756 40.4494 61.5801C40.4728 61.5845 40.4947 61.5952 40.5126 61.611C40.5305 61.6269 40.5438 61.6473 40.551 61.67C40.5583 61.6928 40.5592 61.7171 40.5538 61.7404C40.4601 62.1217 40.5197 62.4615 40.7324 62.7599C40.7645 62.804 40.7565 62.8382 40.7083 62.8622C39.3931 63.5365 38.1971 63.8503 37.12 63.8035C32.3718 63.5968 32.3196 58.6037 33.6883 55.3465C34.2395 54.0314 35.0965 52.963 36.2591 52.1416Z" fill="#F9740B"/>
<path d="M46.7011 53.6505C46.9553 53.3669 47.2095 53.0866 47.4637 52.8096C49.888 50.1606 53.7512 51.0396 53.4041 55.1195C53.396 55.2078 53.3117 55.7697 53.1512 56.8053C52.8087 59.0249 52.3986 61.2318 51.921 63.4259C51.9149 63.4541 51.899 63.4791 51.8763 63.4967C51.8535 63.5144 51.8253 63.5234 51.7966 63.5223L50.3536 63.4761C50.3249 63.4755 50.2967 63.4686 50.2709 63.4559C50.2452 63.4431 50.2225 63.4248 50.2046 63.4022C50.1866 63.3797 50.1737 63.3534 50.1669 63.3252C50.16 63.2971 50.1594 63.2678 50.165 63.2393C50.6921 60.6665 51.145 58.0743 51.5236 55.4627C51.8527 53.201 49.8017 52.1273 48.0738 53.6746C46.673 54.9269 46.2295 56.123 45.8783 58.1017C45.5626 59.8731 45.2575 61.6478 44.9632 63.4259C44.9485 63.5156 44.8956 63.5591 44.8047 63.5564L43.3035 63.5122C43.2099 63.5095 43.1704 63.4621 43.1851 63.3697L45.1338 51.748C45.1446 51.6828 45.1795 51.624 45.2314 51.5831C45.2834 51.5423 45.3488 51.5223 45.4147 51.5272L46.6008 51.6216C46.634 51.6241 46.6648 51.6397 46.6866 51.6649C46.7084 51.69 46.7194 51.7228 46.7172 51.756L46.5827 53.6003C46.5734 53.7314 46.6128 53.7482 46.7011 53.6505Z" fill="#F9740B"/>
<path d="M69.029 53.4563C69.0156 53.8001 69.1012 53.8269 69.2859 53.5366C70.0445 52.3465 71.082 51.1865 72.6373 51.3109C72.6703 51.3135 72.701 51.3285 72.7231 51.3528C72.7451 51.3771 72.7568 51.4089 72.7557 51.4414C72.7377 51.8929 72.7919 53.1553 72.0935 53.2315C70.0364 53.4583 68.8845 55.6558 68.4972 57.5543C68.1065 59.4742 67.7888 61.4068 67.5439 63.3521C67.5332 63.4337 67.4871 63.4752 67.4055 63.4766L65.8441 63.4966C65.8248 63.497 65.8056 63.493 65.7879 63.485C65.7703 63.477 65.7547 63.4651 65.7422 63.4503C65.7297 63.4355 65.7207 63.4182 65.7157 63.3994C65.7108 63.3807 65.7101 63.3611 65.7137 63.3421C65.8822 62.4089 65.9866 61.4275 66.1592 60.5465C66.7372 57.6165 67.1887 54.6671 67.5138 51.6983C67.5176 51.6654 67.5331 51.635 67.5574 51.6125C67.5817 51.5901 67.6132 51.5771 67.6463 51.5759L68.9527 51.5397C69.0531 51.5371 69.1012 51.5859 69.0972 51.6862L69.029 53.4563Z" fill="#F9740B"/>
<path d="M79.8243 61.1963C79.6784 61.3381 79.5527 61.4966 79.447 61.6719C78.0984 63.9236 74.3255 64.2668 73.2458 61.5294C72.2323 58.9586 73.1535 55.8841 74.763 53.811C75.6754 52.6323 76.8929 51.845 78.4154 51.4489C79.8463 51.0757 81.6605 51.5172 83.0613 51.9808C83.1159 51.9995 83.1622 52.0367 83.1919 52.086C83.2217 52.1352 83.233 52.1931 83.2239 52.2497C82.6031 56.052 81.9328 59.8617 81.213 63.6788C80.4002 67.9855 76.9424 69.7295 72.9026 68.2083C72.7126 68.1374 72.528 67.9594 72.3487 67.6744C72.3139 67.6209 72.3086 67.5647 72.3326 67.5059L72.6196 66.8235C72.6412 66.7715 72.6727 66.7243 72.7126 66.6846C72.7524 66.6448 72.7996 66.6133 72.8517 66.5919C72.9037 66.5704 72.9594 66.5595 73.0157 66.5596C73.072 66.5598 73.1276 66.571 73.1795 66.5927C77.7753 68.4852 79.6416 65.2421 79.9366 61.2485C79.946 61.1307 79.9085 61.1133 79.8243 61.1963Z" fill="#F9740B"/>
<path d="M88.3454 51.6197C88.4164 51.6328 88.4793 51.6736 88.5203 51.733C88.5613 51.7925 88.5771 51.8657 88.5642 51.9367L86.5674 63.0407C86.5502 63.1368 86.5128 63.2282 86.4574 63.3098C86.4019 63.3914 86.3294 63.4616 86.2441 63.5164C86.1587 63.5712 86.0621 63.6095 85.9599 63.6291C85.8577 63.6488 85.7518 63.6493 85.6482 63.6307L85.4455 63.5946C85.342 63.576 85.243 63.5386 85.154 63.4846C85.065 63.4306 84.9878 63.3611 84.9268 63.2801C84.8659 63.199 84.8224 63.108 84.7988 63.0121C84.7752 62.9163 84.772 62.8176 84.7893 62.7216L86.7881 51.6177C86.7944 51.5823 86.8076 51.5486 86.827 51.5184C86.8463 51.4881 86.8714 51.462 86.9009 51.4415C86.9303 51.421 86.9635 51.4065 86.9986 51.3989C87.0337 51.3912 87.0699 51.3905 87.1052 51.3969L88.3454 51.6197Z" fill="#F9740B"/>
<path d="M39.1913 52.9441C40.5138 53.3374 40.6242 54.9791 39.6749 55.8099C38.6554 56.703 36.5784 56.7451 35.1133 56.703C35.0505 56.7016 35.025 56.6702 35.0371 56.6086C35.3642 54.9028 37.1102 52.326 39.1913 52.9441Z" fill="white"/>
<path d="M60.0728 53.1251C62.5633 51.8908 63.9119 55.0637 61.9171 55.9708C60.5698 56.5809 59.1616 56.807 57.6926 56.6491C57.6782 56.6474 57.6643 56.6428 57.6517 56.6355C57.6392 56.6283 57.6282 56.6185 57.6196 56.6068C57.6109 56.5952 57.6048 56.5819 57.6014 56.5678C57.5981 56.5536 57.5977 56.539 57.6003 56.5247C57.888 54.9312 58.7121 53.798 60.0728 53.1251Z" fill="white"/>
<path d="M75.6422 61.5456C73.84 60.0525 74.9558 56.3318 76.0676 54.7745C77.2517 53.1148 79.1622 52.4706 81.1108 53.2212C81.1534 53.2375 81.1891 53.2679 81.2121 53.3073C81.2351 53.3467 81.244 53.3928 81.2373 53.4379C80.9924 55.1223 80.6693 56.7666 80.268 58.3708C79.8525 60.0385 77.6791 63.2354 75.6422 61.5456Z" fill="white"/>
<path d="M13.1147 60.755C14.0285 60.4821 14.9129 60.1489 15.7678 59.7556C17.0622 59.1595 18.2101 58.8424 19.4865 58.423C20.6324 58.0477 21.4813 58.3628 22.6212 57.6744C25.083 57.4296 27.4624 57.7193 29.7596 58.5434C29.8319 58.5688 29.8399 58.6083 29.7837 58.6618C29.3355 59.09 28.902 59.4264 28.4833 59.6713C22.753 63.0227 16.6227 64.0529 10.0924 62.7618C10.0702 62.7573 10.0499 62.7463 10.0338 62.7304C10.0178 62.7144 10.0067 62.6941 10.002 62.6719C9.99735 62.6498 9.99922 62.6268 10.0074 62.6057C10.0156 62.5845 10.0298 62.5663 10.0483 62.5531C11.0878 61.8186 12.11 61.2192 13.1147 60.755Z" fill="#0642F3"/>
<path d="M22.6203 57.6743C21.4804 58.3627 20.6315 58.0476 19.4855 58.4229C18.2092 58.8423 17.0613 59.1594 15.7668 59.7554C14.9119 60.1488 14.0276 60.4819 13.1138 60.7549C16.1 59.0169 19.2688 57.9901 22.6203 57.6743Z" fill="#0642F3"/>
<path d="M30.638 62.4728C30.6521 62.4738 30.6657 62.4783 30.6776 62.4859C30.6895 62.4935 30.6993 62.504 30.7061 62.5164C30.7129 62.5288 30.7165 62.5427 30.7165 62.5568C30.7165 62.5709 30.713 62.5849 30.7062 62.5973C30.4694 63.0294 30.1931 63.4555 29.8774 63.8756C25.7968 69.2955 20.4505 72.6998 13.8386 74.0886C13.8102 74.0942 13.7808 74.0913 13.754 74.0802C13.7273 74.0692 13.7044 74.0504 13.6883 74.0264C13.6722 74.0023 13.6636 73.9741 13.6636 73.9451C13.6635 73.9162 13.672 73.8879 13.688 73.8638C17.2281 68.7021 22.3376 63.8275 28.7034 62.6575C29.5402 62.5029 29.9376 62.4267 30.638 62.4728Z" fill="#F9740B"/>
</svg>
