<svg width="100" height="100" viewBox="0 0 100 100" fill="none" xmlns="http://www.w3.org/2000/svg">
<rect width="100" height="100" fill="#321B50"/>
<path d="M33 23.2552V17.5552L33.73 12.5052C33.8233 11.8452 33.9667 11.8319 34.16 12.4652C37.76 24.1652 48.51 30.3552 56.63 38.4152C64.07 45.7952 68.07 58.8752 65.21 69.3052C65.0633 69.8252 64.8967 69.8319 64.71 69.3252C62.13 62.2919 57.9567 56.3919 52.19 51.6252C42.4 43.5252 34.19 37.0252 33 23.2552Z" fill="url(#paint0_linear_71_939)"/>
<path d="M33 48.5052V43.5552L33.9 38.9952C34.0133 38.4152 34.1967 38.3952 34.45 38.9352C38.89 48.4252 45.27 54.3652 53.78 61.0552C62.66 68.0485 66.3767 77.2019 64.93 88.5152C64.9191 88.5944 64.8834 88.6682 64.8281 88.726C64.7728 88.7837 64.7007 88.8226 64.622 88.837C64.5433 88.8514 64.4621 88.8406 64.39 88.8062C64.3178 88.7717 64.2583 88.7154 64.22 88.6452C60.25 81.2852 53.16 76.7952 46.68 71.8652C38.92 65.9652 34.36 58.1785 33 48.5052Z" fill="url(#paint1_linear_71_939)"/>
<defs>
<linearGradient id="paint0_linear_71_939" x1="33" y1="12.3252" x2="66" y2="65.8252" gradientUnits="userSpaceOnUse">
<stop stop-color="#429DF1"/>
<stop offset="0.843928" stop-color="#3164BD"/>
</linearGradient>
<linearGradient id="paint1_linear_71_939" x1="38" y1="42.8252" x2="62" y2="91.3252" gradientUnits="userSpaceOnUse">
<stop stop-color="#429DF1"/>
<stop offset="1" stop-color="#1C1A7A"/>
</linearGradient>
</defs>
</svg>
