<svg width="100" height="100" viewBox="0 0 100 100" fill="none" xmlns="http://www.w3.org/2000/svg">
<rect width="100" height="100" fill="#595C62"/>
<path d="M23.7491 58V40.8203H27.2178V58H23.7491ZM34.7614 58V43.7266H29.6637V40.8203H43.3161V43.7266H38.2302V58H34.7614ZM49.7933 58V43.7266H44.6956V40.8203H58.348V43.7266H53.262V58H49.7933ZM68.9502 51.6836V48.7891H76.4267V55.6328C75.7002 56.3359 74.6455 56.957 73.2627 57.4961C71.8877 58.0273 70.4931 58.293 69.0791 58.293C67.2822 58.293 65.7158 57.918 64.3798 57.168C63.0439 56.4102 62.04 55.332 61.3681 53.9336C60.6963 52.5273 60.3603 51 60.3603 49.3516C60.3603 47.5625 60.7353 45.9727 61.4853 44.582C62.2353 43.1914 63.333 42.125 64.7783 41.3828C65.8798 40.8125 67.2509 40.5273 68.8916 40.5273C71.0244 40.5273 72.6884 40.9766 73.8838 41.875C75.0869 42.7656 75.8603 44 76.2041 45.5781L72.7588 46.2227C72.5166 45.3789 72.0595 44.7148 71.3877 44.2305C70.7236 43.7383 69.8916 43.4922 68.8916 43.4922C67.3759 43.4922 66.1689 43.9727 65.2705 44.9336C64.3798 45.8945 63.9345 47.3203 63.9345 49.2109C63.9345 51.25 64.3877 52.7812 65.2939 53.8047C66.2002 54.8203 67.3877 55.3281 68.8564 55.3281C69.583 55.3281 70.3095 55.1875 71.0361 54.9062C71.7705 54.6172 72.3994 54.2695 72.9228 53.8633V51.6836H68.9502Z" fill="#F8F8F8"/>
</svg>
