<svg width="100" height="100" viewBox="0 0 100 100" fill="none" xmlns="http://www.w3.org/2000/svg">
<rect width="100" height="100" fill="#595C62"/>
<path d="M25.21 40.8203H28.667V51.6953C28.667 53.1172 28.542 54.2109 28.292 54.9766C27.9561 55.9766 27.3467 56.7812 26.4639 57.3906C25.5811 57.9922 24.417 58.293 22.9717 58.293C21.2764 58.293 19.9717 57.8203 19.0577 56.875C18.1436 55.9219 17.6827 54.5273 17.6748 52.6914L20.9444 52.3164C20.9834 53.3008 21.128 53.9961 21.378 54.4023C21.753 55.0195 22.3233 55.3281 23.0889 55.3281C23.8623 55.3281 24.4092 55.1094 24.7295 54.6719C25.0498 54.2266 25.21 53.3086 25.21 51.918V40.8203ZM48.2223 58H44.4489L42.9489 54.0977H36.0817L34.6637 58H30.9841L37.6755 40.8203H41.3434L48.2223 58ZM41.8356 51.2031L39.4684 44.8281L37.1481 51.2031H41.8356ZM50.4808 58V40.8203H53.9495V48.4492L60.9573 40.8203H65.6214L59.1527 47.5117L65.973 58H61.4847L56.762 49.9375L53.9495 52.8086V58H50.4808ZM83.6298 58H79.8564L78.3564 54.0977H71.4892L70.0713 58H66.3916L73.083 40.8203H76.7509L83.6298 58ZM77.2431 51.2031L74.8759 44.8281L72.5556 51.2031H77.2431Z" fill="#F8F8F8"/>
</svg>
