<svg width="100" height="100" viewBox="0 0 100 100" fill="none" xmlns="http://www.w3.org/2000/svg">
<rect width="100" height="100" fill="white"/>
<path d="M92.6138 49.7403C92.2163 49.9278 91.9113 50.2141 91.6988 50.5991C91.6488 50.6941 91.6275 50.7941 91.635 50.8991L91.9988 55.0128C92.0009 55.0387 91.9971 55.0647 91.9876 55.0888C91.978 55.1129 91.9631 55.1345 91.9439 55.1519C91.9246 55.1693 91.9017 55.1821 91.8767 55.1892C91.8518 55.1963 91.8255 55.1975 91.8 55.1928C91.7 55.1728 91.6463 55.1216 91.6388 55.0391C91.26 50.6028 90.0563 45.9828 89.0663 41.6403C89.0413 41.5253 89.045 41.4128 89.0775 41.3028C89.105 41.2178 89.11 41.149 89.0925 41.0965C87.7838 36.9715 86.4675 33.259 83.4825 30.559C83.4022 30.4855 83.2978 30.4304 83.1856 30.4023C83.0734 30.3743 82.9598 30.3749 82.8626 30.404C82.7653 30.4332 82.6898 30.4892 82.648 30.5634C82.6061 30.6376 82.6003 30.7257 82.6313 30.814C82.7313 31.119 82.9038 31.299 83.1488 31.354C83.2813 31.384 83.3625 31.464 83.3925 31.594C83.835 33.479 84.5438 35.2678 85.5188 36.9603C85.5863 37.0753 85.605 37.199 85.575 37.3315C85.395 38.1003 85.83 38.4453 85.95 38.9403C86.5875 41.5103 86.895 43.4066 86.8725 44.6291C86.8275 47.1528 87.1163 50.0441 86.8538 52.2528C86.2988 56.9853 84.3338 61.0903 80.9588 64.5678C80.7863 64.7478 80.43 64.9203 80.205 65.0403C80.135 65.0753 80.12 65.0603 80.16 64.9953L80.2125 64.9091C80.275 64.8016 80.2463 64.7341 80.1263 64.7066L79.9275 64.6578C85.2075 55.1141 85.2525 45.6603 81.75 35.5015C81.7422 35.4845 81.7288 35.4706 81.712 35.4622C81.6952 35.4537 81.6761 35.4513 81.6577 35.4552C81.6394 35.4592 81.6229 35.4692 81.6111 35.4838C81.5992 35.4984 81.5927 35.5165 81.5925 35.5353C82.1213 40.3203 82.5338 44.5915 81.7238 49.6841C80.3138 58.5566 75.8388 65.3278 68.2988 69.9978C68.2882 70.0025 68.2765 70.0035 68.2653 70.0008C68.2541 69.9981 68.2441 69.9918 68.2368 69.9828C68.2296 69.9739 68.2254 69.9628 68.2251 69.9513C68.2248 69.9397 68.2283 69.9284 68.235 69.9191C69.28 68.8341 70.29 67.7003 71.265 66.5178C82.6388 52.7141 79.6763 33.5553 66.9113 21.9378C65.9663 21.0753 64.9438 20.2365 63.8438 19.4215C61.5763 16.9115 58.785 15.1578 55.47 14.1603C45.03 11.014 34.2076 12.9565 25.6726 19.699C25.6463 19.719 25.6144 19.7306 25.5814 19.7323C25.5483 19.734 25.5156 19.7257 25.4877 19.7084C25.4598 19.6912 25.4381 19.666 25.4256 19.6361C25.413 19.6062 25.4102 19.5732 25.4176 19.5415C25.4451 19.4215 25.5226 19.2803 25.6501 19.1178C30.8851 12.4128 39.5888 9.73526 47.79 9.73151C47.8354 9.73135 47.8796 9.71662 47.9162 9.68953C47.9527 9.66245 47.9795 9.62448 47.9927 9.58134C48.0058 9.5382 48.0044 9.49222 47.9889 9.45032C47.9733 9.40842 47.9443 9.37286 47.9063 9.34901C46.7963 8.62151 42.8625 9.09026 41.535 9.31901C40.43 9.51401 39.5888 9.36401 39.0113 8.86901C48.5925 6.07525 59.0175 6.32275 68.1713 10.2265C81.2625 15.814 90.3938 28.3165 91.9837 42.4503C92.1113 43.5628 92.3213 45.9928 92.6138 49.7403Z" fill="#1E8F29"/>
<path d="M39.0109 8.8689C39.5884 9.3639 40.4297 9.5139 41.5347 9.3189C42.8622 9.09015 46.7959 8.6214 47.9059 9.3489C47.9439 9.37275 47.9729 9.40831 47.9885 9.45021C48.0041 9.49211 48.0054 9.53809 47.9923 9.58123C47.9792 9.62437 47.9523 9.66234 47.9158 9.68942C47.8792 9.71651 47.835 9.73124 47.7897 9.7314C39.5884 9.73515 30.8847 12.4127 25.6497 19.1177C25.5222 19.2802 25.4447 19.4214 25.4172 19.5414C25.4099 19.5731 25.4127 19.6061 25.4252 19.636C25.4378 19.6659 25.4594 19.6911 25.4873 19.7083C25.5152 19.7255 25.5479 19.7339 25.581 19.7322C25.6141 19.7305 25.6459 19.7189 25.6722 19.6989C34.2072 12.9564 45.0297 11.0139 55.4697 14.1602C58.7847 15.1577 61.5759 16.9114 63.8434 19.4214C54.9447 14.7002 45.6222 12.7764 36.6672 17.5952C36.6416 17.6047 36.6208 17.6239 36.6091 17.6485C36.5974 17.6732 36.5958 17.7014 36.6046 17.7273C36.6134 17.7531 36.6318 17.7745 36.6561 17.7869C36.6804 17.7994 36.7086 17.8019 36.7347 17.7939C48.5472 16.0352 60.6334 19.1139 67.8484 28.9089C68.4434 29.7164 68.3509 29.8052 67.5709 29.1752C63.4509 25.8477 58.9984 23.4964 54.2134 22.1214C36.1009 16.9164 18.7122 29.1939 15.2809 47.3064C15.4109 43.0739 16.0984 38.9689 17.3434 34.9914C17.3541 34.9615 17.3528 34.9286 17.3398 34.8995C17.3268 34.8705 17.3032 34.8476 17.2737 34.8355C17.2443 34.8235 17.2114 34.8232 17.1818 34.8348C17.1522 34.8463 17.1281 34.8689 17.1147 34.8977C15.9972 37.0177 15.0309 39.1677 14.2159 41.3477C9.82844 53.059 12.7234 65.1115 20.0284 74.8015C20.5159 75.449 20.4659 75.4927 19.8784 74.9327C11.9284 67.369 9.91469 58.4815 9.33719 47.7077C9.33518 47.6877 9.32627 47.6691 9.312 47.655C9.29773 47.6409 9.279 47.6322 9.25902 47.6305C9.23904 47.6287 9.21907 47.6339 9.20254 47.6453C9.18601 47.6566 9.17395 47.6734 9.16845 47.6927C8.50845 50.6977 8.15845 53.774 8.11845 56.9215C5.59595 45.8564 7.33845 35.5302 13.3459 25.9427C18.4347 17.8277 26.0884 11.9364 35.4109 9.77265C36.6384 9.48765 37.8384 9.1864 39.0109 8.8689Z" fill="#053A8B"/>
<path d="M92.6138 49.7402C95.1863 70.3464 79.5601 89.5802 59.0213 91.2115C55.1913 91.179 51.5251 90.7502 48.0226 89.9252C48.0003 89.9189 47.9809 89.9049 47.968 89.8856C47.9552 89.8663 47.9496 89.843 47.9523 89.82C47.955 89.797 47.9658 89.7756 47.9828 89.7599C47.9998 89.7441 48.0219 89.7349 48.0451 89.734C57.5251 89.9477 67.5188 88.0352 73.9501 80.5915C73.9725 80.5716 73.986 80.5436 73.9878 80.5137C73.9895 80.4838 73.9794 80.4545 73.9595 80.4321C73.9396 80.4097 73.9116 80.3961 73.8817 80.3944C73.8518 80.3926 73.8225 80.4028 73.8001 80.4227C72.4838 81.3002 71.1526 82.279 69.7576 82.9277C59.8088 87.544 46.7064 88.6427 36.8701 82.999C36.5151 82.794 36.2489 82.6152 36.0714 82.4627C35.6989 82.1402 35.7414 82.0715 36.1989 82.2565C37.7889 82.899 39.4764 83.274 41.2614 83.3815C47.3664 85.054 56.3626 85.1477 62.3588 82.6577C62.3817 82.6466 62.3999 82.6279 62.4104 82.6049C62.4209 82.5818 62.423 82.5557 62.4163 82.5312C62.4096 82.5068 62.3946 82.4854 62.3739 82.4708C62.3531 82.4563 62.3279 82.4494 62.3026 82.4515C50.1376 84.214 38.2164 79.7627 30.9039 69.7052C30.8915 69.6872 30.8859 69.6651 30.8882 69.6431C30.8905 69.621 30.9005 69.6006 30.9163 69.5858C30.9321 69.5709 30.9525 69.5626 30.9738 69.5625C30.995 69.5624 31.0155 69.5705 31.0314 69.5852C32.3839 70.7252 33.7976 71.8239 35.2726 72.8814C50.3176 83.6702 69.3901 79.2115 79.9276 64.6577L80.1263 64.7064C80.2463 64.7339 80.2751 64.8014 80.2126 64.9089L80.1601 64.9952C80.1201 65.0602 80.1351 65.0752 80.2051 65.0402C80.4301 64.9202 80.7863 64.7477 80.9588 64.5677C84.3338 61.0902 86.2988 56.9852 86.8538 52.2527C87.1163 50.0439 86.8276 47.1527 86.8726 44.6289C86.8951 43.4064 86.5876 41.5102 85.9501 38.9402C85.8301 38.4452 85.3951 38.1002 85.5751 37.3314C85.6051 37.1989 85.5863 37.0752 85.5188 36.9602C84.5438 35.2677 83.8351 33.4789 83.3926 31.5939C83.3626 31.4639 83.2813 31.3839 83.1488 31.3539C82.9038 31.2989 82.7313 31.1189 82.6313 30.8139C82.6003 30.7256 82.6062 30.6374 82.648 30.5633C82.6899 30.4891 82.7653 30.433 82.8626 30.4039C82.9599 30.3747 83.0735 30.3742 83.1857 30.4022C83.2978 30.4302 83.4023 30.4854 83.4826 30.5589C86.4676 33.2589 87.7838 36.9714 89.0926 41.0964C89.1101 41.1489 89.1051 41.2177 89.0776 41.3027C89.0451 41.4127 89.0413 41.5252 89.0663 41.6402C90.0563 45.9827 91.2601 50.6027 91.6388 55.0389C91.6463 55.1214 91.7001 55.1727 91.8001 55.1927C91.8256 55.1974 91.8518 55.1961 91.8768 55.189C91.9017 55.182 91.9247 55.1692 91.9439 55.1518C91.9632 55.1344 91.9781 55.1128 91.9876 55.0886C91.9971 55.0645 92.001 55.0385 91.9988 55.0127L91.6351 50.8989C91.6276 50.7939 91.6488 50.6939 91.6988 50.5989C91.9113 50.2139 92.2163 49.9277 92.6138 49.7402Z" fill="#8A0E42"/>
<path d="M41.2611 83.3816C39.4761 83.2741 37.7886 82.8991 36.1986 82.2566C35.7411 82.0716 35.6986 82.1403 36.0711 82.4628C36.2486 82.6153 36.5149 82.7941 36.8699 82.9991C46.7061 88.6428 59.8086 87.5441 69.7574 82.9278C71.1524 82.2791 72.4836 81.3003 73.7999 80.4228C73.8222 80.4029 73.8516 80.3927 73.8815 80.3945C73.9114 80.3962 73.9393 80.4098 73.9592 80.4322C73.9791 80.4546 73.9893 80.4839 73.9875 80.5138C73.9858 80.5437 73.9722 80.5717 73.9499 80.5915C67.5186 88.0353 57.5249 89.9478 48.0449 89.7341C48.0217 89.735 47.9996 89.7442 47.9826 89.76C47.9656 89.7757 47.9547 89.797 47.952 89.8201C47.9493 89.8431 47.9549 89.8664 47.9678 89.8857C47.9807 89.9049 48 89.919 48.0224 89.9253C51.5249 90.7503 55.1911 91.1791 59.0211 91.2116C56.9586 91.8841 54.5586 92.3553 51.8211 92.6253C29.2124 94.8453 10.8449 79.1103 8.11865 56.9215C8.15865 53.774 8.50865 50.6978 9.16865 47.6928C9.17416 47.6735 9.18621 47.6567 9.20274 47.6453C9.21928 47.634 9.23925 47.6287 9.25923 47.6305C9.27921 47.6323 9.29794 47.641 9.31221 47.6551C9.32648 47.6692 9.33538 47.6878 9.3374 47.7078C9.9149 58.4815 11.9286 67.369 19.8786 74.9328C20.4661 75.4928 20.5161 75.449 20.0286 74.8015C12.7237 65.1115 9.82865 53.059 14.2161 41.3478C15.0311 39.1678 15.9974 37.0177 17.1149 34.8977C17.1284 34.8689 17.1524 34.8464 17.182 34.8348C17.2116 34.8233 17.2445 34.8235 17.274 34.8356C17.3034 34.8477 17.327 34.8706 17.34 34.8996C17.353 34.9286 17.3543 34.9615 17.3436 34.9915C16.0986 38.969 15.4111 43.074 15.2811 47.3065C14.6174 52.7553 15.7836 58.039 17.9286 63.0603C17.9359 63.0748 17.9479 63.0864 17.9626 63.0932C17.9773 63.1 17.994 63.1016 18.0097 63.0976C18.0255 63.0937 18.0394 63.0845 18.0492 63.0716C18.059 63.0586 18.0641 63.0428 18.0636 63.0265C16.9574 50.5428 18.8061 40.6953 28.4586 32.0927C28.4827 32.0717 28.5135 32.0602 28.5454 32.0603C28.5773 32.0604 28.6081 32.0721 28.632 32.0932C28.6559 32.1144 28.6713 32.1435 28.6752 32.1752C28.6792 32.2068 28.6716 32.2388 28.6536 32.2652C15.4799 51.1053 20.1561 73.1928 41.2611 83.3816Z" fill="#F98A23"/>
</svg>
