<svg width="100" height="100" viewBox="0 0 100 100" fill="none" xmlns="http://www.w3.org/2000/svg">
<rect width="100" height="100" fill="#E7F2FF"/>
<path d="M51.0636 60.0196C51.8688 58.2517 52.1261 55.9026 52.7818 54.4169C58.011 42.456 69.6814 35.4173 82.7379 39.6422C82.9619 39.7141 83.1535 39.8623 83.2794 40.061C83.4053 40.2597 83.4575 40.4963 83.4268 40.7295C81.9327 52.2007 75.7462 59.7015 64.8671 63.2319C61.7019 64.2611 57.9336 63.9679 53.562 62.352C53.064 62.1694 52.2893 62.1418 51.2379 62.2691C50.9613 62.3023 50.7814 62.4544 50.6984 62.7256L50.1921 64.369C50.0703 64.773 50.2225 64.975 50.6486 64.975L72.2047 65.0414C72.5261 65.0414 72.8343 65.1691 73.0616 65.3963C73.2889 65.6236 73.4165 65.9318 73.4165 66.2532V86.3485C73.4165 86.6639 73.2588 86.8216 72.9434 86.8216L25.9716 86.8465C25.9087 86.8465 25.8465 86.8342 25.7886 86.8103C25.7306 86.7864 25.6781 86.7514 25.6341 86.7074C25.59 86.6633 25.5553 86.6111 25.5321 86.5538C25.5088 86.4964 25.4974 86.4351 25.4985 86.3734L25.6811 65.4979C25.6833 65.3452 25.7454 65.1996 25.8542 65.0924C25.9629 64.9852 26.1094 64.9252 26.2621 64.9252H49.0798C49.1783 64.9253 49.273 64.8873 49.3441 64.8193C49.4153 64.7512 49.4574 64.6583 49.4616 64.56C49.5336 62.8279 48.8696 62.1141 47.4696 62.4184C37.6502 64.5434 32.7779 63.954 25.1913 57.7121C19.6716 53.1801 16.6503 47.2453 16.0028 40.0738C15.9807 39.8303 16.0886 39.6726 16.3265 39.6007C24.8925 37.0525 32.4957 37.7165 39.0364 43.9003C43.6514 48.2608 46.6561 53.6034 48.0506 59.9283C48.0721 60.0197 48.1245 60.1008 48.199 60.1579C48.2735 60.215 48.3654 60.2446 48.4592 60.2416C48.553 60.2387 48.6429 60.2034 48.7136 60.1418C48.7844 60.0802 48.8317 59.9959 48.8474 59.9034C49.3122 56.8323 48.8557 54.2011 46.598 51.7774C41.5182 46.3323 40.8459 40.3311 40.6798 33.1679C40.4972 25.0944 43.3664 18.4209 49.2873 13.1474C49.5087 12.9482 49.7273 12.9509 49.9431 13.1557C58.1438 20.8335 60.5178 34.0394 57.1976 44.1825C55.2138 50.2086 49.8601 52.4248 50.632 59.9532C50.6873 60.5066 50.8312 60.5287 51.0636 60.0196Z" fill="#2C69AE"/>
<path d="M50.159 34.2386C49.9543 34.1833 49.7744 34.0892 49.6195 33.9564C49.4812 33.8402 49.3926 33.6742 49.3539 33.4584C49.0772 31.9145 49.0772 30.3651 49.3539 28.8102C49.4037 28.528 49.34 28.2762 49.163 28.0548C48.2084 26.8596 45.8594 24.4442 45.8013 22.975C45.7847 22.5877 45.9065 22.5379 46.1665 22.8256L48.391 25.3074C48.4662 25.3917 48.5653 25.4511 48.6751 25.4777C48.785 25.5043 48.9003 25.4969 49.0057 25.4563C49.1112 25.4157 49.2017 25.344 49.2654 25.2507C49.3291 25.1574 49.3629 25.0469 49.3622 24.9339L49.3954 19.6964C49.3943 19.6429 49.4037 19.5898 49.4232 19.5401C49.4426 19.4903 49.4716 19.4449 49.5086 19.4063C49.5456 19.3678 49.5899 19.3369 49.6388 19.3155C49.6877 19.294 49.7404 19.2824 49.7938 19.2813C49.8472 19.2802 49.9003 19.2897 49.9501 19.3091C49.9998 19.3286 50.0453 19.3576 50.0838 19.3946C50.1224 19.4316 50.1532 19.4758 50.1747 19.5248C50.1961 19.5737 50.2077 19.6264 50.2088 19.6798L50.4495 24.5272C50.4536 24.6033 50.4744 24.6776 50.5102 24.7449C50.5461 24.8121 50.5962 24.8708 50.6571 24.9166C50.718 24.9625 50.7881 24.9945 50.8627 25.0104C50.9372 25.0263 51.0144 25.0257 51.0887 25.0086C51.8468 24.826 52.3116 24.3197 52.4831 23.4896C52.5495 23.1632 52.6989 23.1189 52.9313 23.3568C53.5566 23.9987 53.5345 24.6047 52.8649 25.1746C50.3472 27.305 49.661 30.0635 50.8064 33.4501C50.8521 33.5877 50.9347 33.7101 51.0454 33.8038C51.156 33.8975 51.2904 33.9589 51.4336 33.9812C51.5769 34.0035 51.7236 33.9859 51.8574 33.9302C51.9913 33.8746 52.1073 33.7832 52.1926 33.6659L54.9566 29.8394C54.9964 29.7818 55.0556 29.7404 55.1234 29.7229C55.1913 29.7055 55.2631 29.7131 55.3258 29.7444C55.3884 29.7757 55.4376 29.8287 55.4644 29.8934C55.4911 29.9581 55.4936 30.0303 55.4713 30.0967C54.6523 32.6311 53.2025 34.7201 51.1219 36.3635C50.9005 36.5351 50.7566 36.7564 50.6902 37.0276C50.2254 38.8149 50.2199 40.6216 50.6736 42.4477C50.8009 42.9513 51.0444 43.0149 51.4041 42.6386L53.9357 39.9991C54.1072 39.822 54.2373 39.8469 54.3258 40.0738C54.3977 40.2509 54.3811 40.4307 54.276 40.6133C53.2578 42.4284 52.0626 44.1355 50.6902 45.7347C50.5718 45.8805 50.5021 46.0575 50.491 46.241L50.0843 52.209C50.0788 52.2698 50.0483 52.292 49.993 52.2754C49.9155 52.2532 49.8408 52.2283 49.7689 52.2007C49.7523 52.1951 49.7412 52.1841 49.7357 52.1675C49.6472 49.8766 49.4065 47.6078 49.0136 45.3611C48.9693 45.0845 48.8282 44.8714 48.5902 44.722C47.0962 43.7924 46.0725 42.4671 45.5191 40.7461C45.501 40.6864 45.5037 40.6217 45.5266 40.563C45.5495 40.5044 45.5913 40.4553 45.6449 40.4241C45.6986 40.393 45.7607 40.3815 45.821 40.3918C45.8812 40.4021 45.9358 40.4334 45.9756 40.4805L48.2831 43.0619C48.3746 43.1664 48.4965 43.2395 48.6317 43.271C48.7668 43.3026 48.9085 43.291 49.0368 43.2378C49.165 43.1847 49.2734 43.0927 49.3466 42.9748C49.4199 42.8569 49.4543 42.719 49.4452 42.5805L49.1713 37.426C49.1602 37.1604 49.0551 36.939 48.8559 36.762C46.8306 34.9746 45.1816 32.8967 43.9088 30.5284C43.7041 30.1355 43.657 29.7786 43.7677 29.4576C43.7914 29.3876 43.8338 29.3252 43.8903 29.2775C43.9468 29.2297 44.0151 29.1985 44.0875 29.1873C44.1599 29.1761 44.2336 29.1854 44.3003 29.214C44.3669 29.2427 44.424 29.2897 44.465 29.3497C45.4444 30.7442 48.1254 35.4588 50.1756 34.6039C50.5132 34.46 50.5076 34.3382 50.159 34.2386Z" fill="#E7F2FF"/>
<path d="M31.0676 50.8977L27.0419 48.1669C26.7763 47.9898 26.4941 47.9538 26.1952 48.0589L22.9166 49.2044C22.5514 49.3317 22.3162 49.2099 22.2111 48.8392C22.1281 48.5238 22.2332 48.3384 22.5265 48.2831C25.0553 47.8182 26.1178 45.804 25.7138 42.2404C25.6363 41.5542 25.7664 41.5127 26.1039 42.1159C26.7431 43.2779 26.8095 46.5732 27.5648 47.0629C29.3245 48.2139 30.9265 49.4092 32.3707 50.6487C32.4549 50.7203 32.5597 50.7634 32.6699 50.7717C32.7802 50.7801 32.8902 50.7533 32.9843 50.6952C33.0783 50.6371 33.1516 50.5507 33.1935 50.4484C33.2353 50.3461 33.2437 50.2331 33.2174 50.1257L31.3581 42.9376C31.3482 42.8967 31.3525 42.8534 31.3706 42.8144C31.3886 42.7754 31.4192 42.7428 31.4577 42.7218C31.5462 42.6775 31.6375 42.6748 31.7316 42.7135C31.798 42.7412 31.8561 42.802 31.9059 42.8961C33.566 46.006 34.3739 48.1171 34.3296 49.2293C34.147 53.7198 38.1146 52.7902 38.3387 55.1309C38.345 55.1789 38.3373 55.2274 38.3166 55.271C38.2958 55.3146 38.2628 55.3515 38.2212 55.3774C38.1797 55.4034 38.1314 55.4174 38.0817 55.4178C38.032 55.4182 37.983 55.4051 37.9403 55.3799L34.0059 52.9313C33.8874 52.8594 33.754 52.8166 33.6168 52.8065C33.4797 52.7964 33.3427 52.8193 33.2174 52.8732C31.0205 53.8028 28.702 54.2095 26.2616 54.0933C26.1558 54.0893 26.0552 54.0466 25.9789 53.9732C25.9025 53.8999 25.8558 53.801 25.8476 53.6954C25.8394 53.5899 25.8703 53.485 25.9344 53.4007C25.9985 53.3165 26.0913 53.2587 26.1952 53.2384L30.7853 52.3004C30.9354 52.2687 31.0732 52.1936 31.1814 52.0847C31.2896 51.9757 31.3634 51.8376 31.3935 51.6878C31.4236 51.538 31.4088 51.3831 31.3508 51.2426C31.2928 51.102 31.1943 50.982 31.0676 50.8977Z" fill="#E7F2FF"/>
<path d="M67.806 52.234L73.1597 53.2881C73.3257 53.3213 73.4087 53.4209 73.4087 53.5869C73.4142 53.7087 73.417 53.8332 73.417 53.9604C73.417 54.1209 73.3368 54.1928 73.1763 54.1762L65.4237 53.2383C65.0917 53.194 64.7846 53.2632 64.5024 53.4458L61.257 55.496C61.2113 55.5265 61.1582 55.5439 61.1034 55.5462C61.0485 55.5485 60.9941 55.5356 60.9461 55.5091C60.8981 55.4825 60.8583 55.4432 60.8311 55.3955C60.804 55.3478 60.7905 55.2936 60.7921 55.2387C60.7977 54.8181 60.9692 54.4861 61.3068 54.2427C62.2364 53.5454 63.1826 52.8509 64.1455 52.1592C64.3643 52.0045 64.5182 51.7707 64.5771 51.5035C65.2135 48.6703 66.0573 45.9118 67.1087 43.228C67.1807 43.0399 67.3245 42.9375 67.5403 42.9209C67.5948 42.9146 67.65 42.9218 67.701 42.9421C67.752 42.9623 67.7972 42.9948 67.8325 43.0367C67.8679 43.0786 67.8923 43.1287 67.9036 43.1823C67.9149 43.236 67.9127 43.2916 67.8973 43.3442L66.0629 49.7355C66.0314 49.8491 66.0357 49.9697 66.0753 50.0808C66.1149 50.1918 66.1878 50.2879 66.284 50.356C66.3802 50.4241 66.4951 50.4609 66.613 50.4612C66.7309 50.4616 66.8461 50.4256 66.9427 50.3581L71.8731 46.7972C71.9851 46.7138 72.0773 46.6074 72.1433 46.4855C72.2092 46.3636 72.2474 46.2291 72.255 46.0917C72.3324 44.5533 72.6229 43.0759 73.1265 41.6593C73.1573 41.5558 73.228 41.4688 73.3229 41.4174C73.4179 41.3661 73.5293 41.3545 73.6328 41.3853C73.7363 41.4162 73.8233 41.4868 73.8746 41.5818C73.926 41.6767 73.9375 41.7882 73.9067 41.8917L73.3838 43.9419C73.3373 44.1223 73.3432 44.3123 73.4008 44.4895C73.4585 44.6667 73.5655 44.8237 73.7093 44.9422C73.853 45.0608 74.0277 45.1358 74.2126 45.1586C74.3975 45.1813 74.5851 45.1508 74.7534 45.0707L77.4759 43.7842C77.7636 43.6458 77.9711 43.7261 78.0984 44.0249C78.2478 44.3901 78.1233 44.6363 77.7249 44.7636C76.6348 45.0956 75.5502 45.494 74.4712 45.9589C74.4055 45.9867 74.3461 46.0275 74.2965 46.0789C74.2469 46.1302 74.2082 46.191 74.1826 46.2576C74.157 46.3242 74.1452 46.3953 74.1477 46.4666C74.1502 46.538 74.1671 46.608 74.1972 46.6727C74.734 47.8015 75.6387 48.3549 76.9115 48.3328C77.1992 48.3272 77.2905 48.46 77.1854 48.7312C76.9972 49.2016 76.6348 49.3537 76.098 49.1877C75.6221 49.0383 74.6482 48.6067 73.1763 47.8928C72.9162 47.7656 72.6672 47.7849 72.4293 47.951L67.6067 51.3043C67.523 51.3621 67.4583 51.4434 67.4208 51.538C67.3832 51.6326 67.3746 51.7362 67.3959 51.8357C67.4172 51.9351 67.4675 52.0261 67.5405 52.097C67.6135 52.1679 67.7059 52.2155 67.806 52.234Z" fill="#E7F2FF"/>
<path d="M24.9093 45.3373L21.5973 43.4711C21.4136 43.3676 21.1807 43.4326 21.0772 43.6163L21.0283 43.7031C20.9248 43.8868 20.9898 44.1197 21.1735 44.2232L24.4855 46.0894C24.6692 46.1929 24.9021 46.1279 25.0056 45.9442L25.0545 45.8574C25.158 45.6737 25.093 45.4409 24.9093 45.3373Z" fill="#E7F2FF"/>
<path d="M40.846 54.5248C41.4354 57.6706 43.9421 57.488 44.5895 59.4718C44.6084 59.5273 44.6092 59.587 44.5918 59.6427C44.5744 59.6983 44.5397 59.7473 44.4924 59.7827C44.4451 59.8182 44.3875 59.8385 44.3277 59.8408C44.2678 59.8431 44.2085 59.8273 44.1579 59.7956L40.846 57.5793C40.6524 57.4465 40.4449 57.4106 40.2235 57.4714C38.6686 57.8643 37.1385 58.2461 35.6334 58.6169C35.2129 58.722 34.9223 58.7248 34.7619 58.6252C34.6553 58.557 34.5744 58.4554 34.5317 58.3363C34.489 58.2172 34.4869 58.0873 34.5257 57.9669C34.5646 57.8466 34.6422 57.7424 34.7465 57.6708C34.8508 57.5992 34.9759 57.5641 35.1022 57.571C41.0619 57.8616 38.8872 51.8106 38.1484 48.7311C38.1379 48.6889 38.1427 48.6444 38.1621 48.6054C38.1815 48.5665 38.2141 48.5357 38.2541 48.5187C38.2942 48.5017 38.339 48.4995 38.3805 48.5126C38.4219 48.5257 38.4574 48.5531 38.4804 48.59C39.6757 50.5379 40.4642 52.5161 40.846 54.5248Z" fill="#E7F2FF"/>
<path d="M59.8371 54.0102C60.2853 56.2734 61.6936 57.4549 64.062 57.5545C64.1826 57.5585 64.2973 57.6076 64.3834 57.6921C64.4695 57.7767 64.5206 57.8905 64.5268 58.011C64.5379 58.2213 64.5019 58.3679 64.4189 58.4509C64.3636 58.5062 64.2667 58.5228 64.1284 58.5007C60.2687 57.8865 58.4426 56.3924 55.1391 59.7375C55.0863 59.7911 55.0177 59.8272 54.9432 59.8404C54.8688 59.8536 54.7923 59.8433 54.7249 59.8109C54.6574 59.7786 54.6025 59.7259 54.5681 59.6605C54.5336 59.5951 54.5214 59.5203 54.5332 59.4469L54.5664 59.2228C54.6051 58.9406 54.7518 58.7386 55.0063 58.6169C58.9988 56.7659 58.0691 54.4086 59.4968 51.1134C60.7031 48.3244 61.0573 48.4296 60.5592 51.4288C60.5482 51.4897 60.3379 52.043 59.9284 53.0889C59.8067 53.3877 59.7762 53.6948 59.8371 54.0102Z" fill="#E7F2FF"/>
<path d="M63.7795 77.5584C63.7854 77.6227 63.8131 77.683 63.858 77.7293C63.903 77.7756 63.9625 77.8051 64.0266 77.8129C64.0907 77.8207 64.1555 77.8062 64.2102 77.772C64.2649 77.7378 64.3063 77.6858 64.3273 77.6248L67.5562 68.1956C67.6724 67.858 67.9048 67.6505 68.2534 67.573L69.6977 67.2493C69.8338 67.2191 69.9755 67.2264 70.1078 67.2703C70.2401 67.3142 70.3581 67.3931 70.4492 67.4986C70.5403 67.6042 70.601 67.7324 70.6251 67.8698C70.6492 68.0071 70.6356 68.1483 70.5858 68.2786L64.7008 83.3521C64.5716 83.6807 64.3368 83.957 64.0335 84.1377C63.7302 84.3185 63.3754 84.3934 63.0249 84.3506C62.6744 84.3079 62.348 84.1499 62.0969 83.9016C61.8459 83.6532 61.6845 83.3286 61.638 82.9785L60.5755 74.6616C60.5676 74.5655 60.5252 74.4755 60.456 74.4084C60.3868 74.3412 60.2957 74.3014 60.1994 74.2963C60.1031 74.2913 60.0083 74.3213 59.9325 74.3808C59.8566 74.4403 59.805 74.5253 59.787 74.62L57.9443 82.7544C57.8478 83.1835 57.6067 83.5663 57.2615 83.8387C56.9163 84.1111 56.488 84.2566 56.0482 84.2508C55.6085 84.245 55.1842 84.0882 54.8463 83.8067C54.5085 83.5252 54.2777 83.1361 54.1926 82.7046L51.2376 68.0296C51.1435 67.5758 51.3289 67.3489 51.7937 67.3489H53.2878C53.6198 67.3489 53.819 67.5094 53.8854 67.8303L56.0103 77.3592C56.0363 77.4639 56.0961 77.5572 56.1805 77.6244C56.2649 77.6916 56.3692 77.7291 56.4771 77.731C56.585 77.7329 56.6905 77.6991 56.7772 77.6349C56.8639 77.5706 56.927 77.4795 56.9566 77.3758L59.2807 68.4529C59.3846 68.046 59.6282 67.6884 59.9687 67.4427C60.3093 67.197 60.7254 67.0786 61.1443 67.1082C61.5633 67.1379 61.9585 67.3137 62.2611 67.6049C62.5637 67.8962 62.7544 68.2844 62.8001 68.7019L63.7795 77.5584Z" fill="#E7F2FF"/>
<path d="M48.482 68.0046L51.7855 83.3105C51.808 83.4114 51.8057 83.5163 51.7788 83.6161C51.7519 83.7159 51.7012 83.8077 51.631 83.8836C51.5608 83.9595 51.4732 84.0173 51.3758 84.0519C51.2784 84.0865 51.174 84.097 51.0717 84.0825L48.9883 83.7919C48.8496 83.7732 48.7209 83.7095 48.6219 83.6105C48.5229 83.5115 48.4592 83.3828 48.4405 83.2441L48.1001 80.8287C48.0782 80.6769 48.0025 80.538 47.8866 80.4374C47.7708 80.3369 47.6227 80.2813 47.4693 80.2809H43.1282C43.009 80.281 42.8921 80.3145 42.7909 80.3776C42.6897 80.4407 42.6082 80.5308 42.5555 80.6378L41.1195 83.601C41.0699 83.7059 40.9928 83.7953 40.8963 83.8596C40.7998 83.9239 40.6876 83.9608 40.5717 83.9662L38.6958 84.0326C38.5878 84.0362 38.4806 84.0123 38.3843 83.9632C38.2881 83.9141 38.2058 83.8413 38.1453 83.7518C38.0847 83.6622 38.0479 83.5588 38.0382 83.4511C38.0285 83.3435 38.0463 83.2351 38.0899 83.1362L44.9128 67.9963C44.9612 67.8899 45.0379 67.7988 45.1345 67.7329C45.2311 67.6671 45.3439 67.629 45.4606 67.6228L47.8262 67.4983C47.9779 67.4911 48.1271 67.538 48.2472 67.6308C48.3674 67.7236 48.4506 67.8561 48.482 68.0046Z" fill="#E7F2FF"/>
<path d="M33.4832 81.2521C33.5606 81.2785 33.643 81.2876 33.7243 81.2785C33.8057 81.2695 33.8841 81.2426 33.9538 81.1998C34.0236 81.157 34.0831 81.0993 34.128 81.0309C34.1729 80.9624 34.2021 80.8849 34.2136 80.8038L36.0729 68.4363C36.1227 68.0766 36.3302 67.8912 36.6954 67.8801L38.3638 67.8303C38.7678 67.8137 38.9448 68.0074 38.895 68.4114C38.3693 72.6667 37.7108 76.8916 36.9195 81.086C36.0812 85.5517 30.1049 85.2694 29.831 81.194C29.8218 81.0599 29.8462 80.9258 29.902 80.8036C29.9579 80.6814 30.0435 80.5748 30.1511 80.4934C30.2588 80.4121 30.3852 80.3584 30.5191 80.3373C30.653 80.3161 30.7901 80.3281 30.9184 80.3722L33.4832 81.2521Z" fill="#E7F2FF"/>
<path d="M44.2241 77.5585C44.2033 77.5565 44.1832 77.5503 44.1648 77.5404C44.1465 77.5305 44.1303 77.517 44.1172 77.5008C44.104 77.4846 44.0943 77.466 44.0884 77.4459C44.0825 77.4259 44.0807 77.4049 44.083 77.3842L44.0996 77.2431C44.2426 75.8114 44.5249 74.4529 44.8844 73.4662C45.2439 72.4794 45.6513 71.9451 46.017 71.9807L46.1166 71.989C46.2977 72.0077 46.463 72.166 46.6031 72.4548C46.7433 72.7436 46.8554 73.1572 46.9333 73.6721C47.0111 74.187 47.0531 74.793 47.0568 75.4556C47.0605 76.1181 47.0259 76.8243 46.9549 77.5336L46.9466 77.6747C46.9446 77.6955 46.9384 77.7156 46.9285 77.734C46.9186 77.7523 46.9051 77.7685 46.8889 77.7817C46.8727 77.7948 46.8541 77.8046 46.834 77.8104C46.814 77.8163 46.793 77.8181 46.7723 77.8158L44.2241 77.5585Z" fill="#2C69AE"/>
</svg>
