<svg width="100" height="100" viewBox="0 0 100 100" fill="none" xmlns="http://www.w3.org/2000/svg">
<rect width="100" height="100" fill="#AEF1E8"/>
<path d="M8.29238 39.5178C8.69838 37.6313 11.8449 38.0128 13.2169 38.0688C13.3429 38.0734 13.4059 38.1388 13.4059 38.2648C13.3756 43.1951 13.3744 48.1196 13.4024 53.0383C13.4199 55.7228 13.5284 58.6558 13.3499 61.5818C13.3436 61.6821 13.2991 61.7761 13.2255 61.8445C13.1519 61.9129 13.0549 61.9504 12.9544 61.9493L8.24688 61.9108C8.13721 61.9085 8.08237 61.8536 8.08237 61.7463C8.00887 55.7193 8.21188 49.6923 8.01587 43.6758C7.95987 42.0144 8.05204 40.6284 8.29238 39.5178Z" fill="#2F499E"/>
<path d="M48.6895 58.9777C45.7705 54.8932 45.4625 44.5437 50.5515 41.7752C53.6012 40.1115 56.6754 39.94 59.7741 41.2607C62.6406 42.4822 63.6731 44.3967 64.3241 47.3262C65.4406 52.3242 64.9296 59.9332 58.9306 61.7392C55.2695 62.8417 51.0065 62.2152 48.6895 58.9777Z" fill="#2F499E"/>
<path d="M91.8242 61.8897L86.8752 61.8652C86.7725 61.8652 86.7212 61.8138 86.7212 61.7112C86.7049 55.8848 86.7037 50.0701 86.7177 44.2671C86.7282 39.9306 88.5797 40.4206 91.9572 40.4136C92.0055 40.4136 92.0518 40.4324 92.0859 40.4659C92.1201 40.4994 92.1392 40.5448 92.1392 40.5921V61.5747C92.1392 61.7847 92.0342 61.8897 91.8242 61.8897Z" fill="#2F499E"/>
<path d="M14.1935 50.3642C16.8255 47.1302 19.6885 43.7912 21.7921 41.5547C22.6076 40.6867 25.5756 40.8722 26.7061 40.9982C26.8648 41.0169 26.8928 41.0869 26.7901 41.2082L19.391 50.1262C19.321 50.2102 19.3152 50.2977 19.3735 50.3887L26.6046 61.5887C26.6839 61.7101 26.6513 61.7766 26.5066 61.7882C23.6401 61.9912 21.1201 62.3762 19.622 59.9157C17.781 56.8941 15.9587 53.8946 14.155 50.9172C14.0383 50.7259 14.0512 50.5416 14.1935 50.3642Z" fill="#2F499E"/>
<path d="M37.006 49.3353C38.21 46.8689 39.4899 44.4154 40.8456 41.9747C41.5911 40.6342 45.3151 40.8967 46.6521 40.9597C46.6665 40.9608 46.6804 40.9653 46.6927 40.9728C46.705 40.9802 46.7152 40.9905 46.7225 41.0026C46.7298 41.0148 46.7339 41.0284 46.7344 41.0423C46.7349 41.0562 46.7319 41.0699 46.7256 41.0822C43.8976 46.6053 41.0637 52.1154 38.224 57.6128C37.3444 59.3161 36.5557 60.5761 35.858 61.3928C35.389 61.9423 34.5525 61.8373 33.87 61.8443C32.743 61.8606 31.616 61.8699 30.489 61.8723C30.3466 61.8746 30.3081 61.8128 30.3735 61.6868L34.6505 53.6298C34.7112 53.5131 34.7112 53.3964 34.6505 53.2798L28.4205 41.1767C28.3388 41.0181 28.3866 40.9387 28.564 40.9387H32.3265C32.4572 40.9387 32.5517 40.9971 32.61 41.1137L36.761 49.3388C36.7726 49.3615 36.7903 49.3805 36.8122 49.3937C36.834 49.4069 36.8591 49.4137 36.8846 49.4133C36.9101 49.4129 36.935 49.4054 36.9565 49.3916C36.9779 49.3779 36.9951 49.3583 37.006 49.3353Z" fill="#2F499E"/>
<path d="M73.1522 43.9137V58.0887C73.1522 58.3208 73.2444 58.5434 73.4085 58.7075C73.5725 58.8716 73.7951 58.9637 74.0272 58.9637H83.4667C83.5927 58.9637 83.6557 59.0268 83.6557 59.1528L83.6522 61.6728C83.6522 61.7918 83.5927 61.8513 83.4737 61.8513C79.4184 61.8513 75.3677 61.8524 71.3217 61.8548C69.1341 61.8583 68.1786 60.8083 68.1716 58.7222C68.1576 52.8539 68.1576 46.9832 68.1716 41.1102C68.1716 40.9959 68.2288 40.9387 68.3431 40.9387H83.8307C84.0197 40.9387 84.0536 41.0122 83.9322 41.1592C83.3839 41.8242 83.2147 42.6036 83.4247 43.4972C83.4644 43.6582 83.4002 43.7387 83.2322 43.7387H73.3272C73.2105 43.7387 73.1522 43.7971 73.1522 43.9137Z" fill="#2F499E"/>
<path d="M59.4686 55.9606C58.9191 60.9901 52.0801 61.0601 51.7441 55.6491C51.5796 52.9856 51.0371 46.6996 52.4231 44.4596C54.2431 41.5161 59.0521 42.5241 59.4126 46.0101C59.7813 49.6058 59.8 52.9226 59.4686 55.9606Z" fill="#AEF1E8"/>
<path d="M82.4942 49.4787L74.3812 49.507C74.3271 49.5072 74.2834 49.5512 74.2835 49.6053L74.293 52.3143C74.2932 52.3684 74.3372 52.4122 74.3913 52.412L82.5044 52.3836C82.5585 52.3835 82.6022 52.3394 82.602 52.2853L82.5926 49.5763C82.5924 49.5222 82.5483 49.4785 82.4942 49.4787Z" fill="#2F499E"/>
</svg>
