<svg width="100" height="100" viewBox="0 0 100 100" fill="none" xmlns="http://www.w3.org/2000/svg">
<rect width="100" height="100" fill="#F3FFFE"/>
<path d="M57.5164 40.6677C61.2644 35.0582 57.4727 27.4058 50.882 26.3927C47.1004 25.8115 43.48 27.5368 41.4875 30.7775C39.1808 34.5323 39.9688 39.3539 42.9894 42.4821C43.7252 43.2448 44.9684 44.2041 45.4657 45.1886C46.3948 47.0248 45.4271 49.691 43.1624 49.985C41.9478 50.1429 41.0288 49.5717 40.1754 48.7351C38.8482 47.4314 37.8615 46.3612 37.2152 45.5246C33.2992 40.4476 32.4793 33.4219 35.8528 27.893C38.1376 24.1483 41.6353 21.2217 46.0168 20.3414C51.5787 19.2236 56.3516 20.5945 60.3354 24.454C63.0503 27.0849 65.1234 30.4012 65.414 34.24C65.7517 38.692 64.1692 42.5711 61.1704 45.7984C57.7516 49.4743 54.1211 53.3903 50.5578 56.5655C48.7837 58.1464 46.3124 57.1334 45.6337 55.03C45.1583 53.5533 45.8387 52.631 46.9324 51.5373C49.72 48.7507 52.5049 45.9625 55.287 43.1726C56.4081 42.0492 57.1512 41.2143 57.5164 40.6677Z" fill="#06A38F"/>
<path d="M53.476 63.8282C52.2479 62.9832 51.7002 61.4023 52.4075 60.0247C52.5475 59.7492 52.832 59.4003 53.2609 58.978C56.5616 55.7222 59.9602 52.5733 63.4569 49.5314C64.6037 48.5346 65.4784 47.8374 66.081 47.4398C73.9451 42.2604 82.9936 45.9681 87.4271 53.5214C90.3167 58.4438 90.0529 64.7169 87.086 69.3974C86.1161 70.9262 84.771 72.3721 83.0507 73.7352C79.9679 76.1762 75.8166 77.0078 72.008 76.8297C67.7845 76.6315 64.2985 73.7587 61.5131 70.9279C60.7829 70.1876 60.3612 69.7351 60.248 69.5704C58.4286 66.9278 61.5265 63.7509 64.2868 64.932C64.6541 65.0888 65.1357 65.4449 65.7316 66.0004C66.8891 67.0824 68.1357 68.4684 69.3537 69.2193C75.0153 72.712 82.3148 68.6196 83.0893 62.1684C83.7244 56.868 79.5983 52.1102 74.392 51.6079C71.0672 51.287 68.9891 52.6512 66.5884 54.8906C63.5151 57.7589 60.4452 60.6295 57.3786 63.5023C56.1421 64.6604 54.8413 64.769 53.476 63.8282Z" fill="#332C2B"/>
<path d="M32.4491 67.5208C33.1681 66.7598 34.0518 65.6947 34.8531 65.2495C37.6554 63.6972 40.8272 67.2638 38.9036 69.8426C36.1199 73.5756 31.9333 76.4904 27.1957 76.8415C25.7274 76.9507 23.8155 76.9238 22.3472 76.6432C16.1715 75.4605 10.3436 69.4142 9.92027 63.0504C9.49691 56.6865 12.0203 51.6028 17.1275 47.8732C21.4417 44.7232 27.2663 44.2344 31.8896 46.8132C33.6346 47.7864 35.3835 49.0896 37.1363 50.7225C40.0931 53.4777 43.0751 56.1993 45.9747 59.015C46.929 59.939 47.5405 60.9184 47.097 62.1667C46.6579 63.4043 45.8482 64.1653 44.6677 64.4498C43.3506 64.7673 42.4988 64.1541 41.4723 63.21C38.3352 60.3237 35.2211 57.4128 32.1299 54.4773C30.2264 52.668 28.2121 51.6784 25.5459 51.6919C17.5323 51.7372 13.1795 61.4124 18.4866 67.4016C19.4509 68.4902 20.642 69.3084 22.0599 69.856C25.8282 71.3126 29.6418 70.4877 32.4491 67.5208Z" fill="#E7BB1E"/>
</svg>
