<svg width="100" height="100" viewBox="0 0 100 100" fill="none" xmlns="http://www.w3.org/2000/svg">
<rect width="100" height="100" fill="#F26722"/>
<path d="M46.06 21H47.8C51.3333 22.3733 53.44 24.7267 54.12 28.06C55.1 32.88 50.72 34.63 47.02 32.54C43.16 30.37 39.68 22.6 46.06 21Z" fill="white"/>
<path d="M15 66.5699V63.5799C17.18 51.6099 25.55 43.0899 35.75 36.0299C36.6967 35.3766 36.7567 35.4466 35.93 36.2399C29.25 42.6299 22.73 53.1499 23.59 62.8099C24.18 69.4899 27.82 74.4799 34.47 75.6099C41.61 76.8199 47.39 67.6599 48.66 61.7299C51.79 47.0999 44.48 36.8699 32.57 29.6299C32.47 29.5699 32.45 29.4932 32.51 29.3999C32.5633 29.3132 32.6267 29.2566 32.7 29.2299C32.7467 29.2166 32.8033 29.2232 32.87 29.2499C44.3967 34.9832 56.6067 37.2399 69.5 36.0199C70.02 35.9666 70.09 36.1199 69.71 36.4799C66.2433 39.7332 62.1067 41.2866 57.3 41.1399C56.8533 41.1266 56.7 41.3299 56.84 41.7499C61.5733 56.0232 57.7067 66.9899 45.24 74.6499C44.9368 74.8344 44.599 74.9504 44.25 74.9899C43.75 75.0566 43.2533 75.1632 42.76 75.3099C42.6588 75.3385 42.578 75.4043 42.5355 75.493C42.493 75.5817 42.4922 75.6858 42.5333 75.7827C42.5745 75.8795 42.6541 75.9609 42.7547 76.0092C42.8554 76.0574 42.9688 76.0685 43.07 76.0399C60.61 71.4299 72.5 58.1299 77.04 41.0499C80.68 27.3599 71.76 23.0499 60.02 25.5399C59.7047 25.6056 59.379 25.5953 59.07 25.5099C58.9767 25.4899 58.8833 25.4699 58.79 25.4499C58.6233 25.4166 58.6233 25.3732 58.79 25.3199C81.99 18.1599 93.07 34.2999 78.82 53.3599C68.8667 66.6666 55.9267 75.2166 40 79.0099C29.36 81.5499 16.98 78.8299 15 66.5699Z" fill="white"/>
</svg>
