<svg width="100" height="100" viewBox="0 0 100 100" fill="none" xmlns="http://www.w3.org/2000/svg">
<rect width="100" height="100" fill="#595C62"/>
<path d="M26.0459 40.8203H29.503V51.6953C29.503 53.1172 29.378 54.2109 29.128 54.9766C28.792 55.9766 28.1827 56.7812 27.2998 57.3906C26.417 57.9922 25.253 58.293 23.8077 58.293C22.1123 58.293 20.8077 57.8203 19.8936 56.875C18.9795 55.9219 18.5186 54.5273 18.5108 52.6914L21.7803 52.3164C21.8194 53.3008 21.9639 53.9961 22.2139 54.4023C22.5889 55.0195 23.1592 55.3281 23.9248 55.3281C24.6983 55.3281 25.2452 55.1094 25.5655 54.6719C25.8858 54.2266 26.0459 53.3086 26.0459 51.918V40.8203ZM33.5661 58V40.8203H39.1325C41.2419 40.8203 42.6169 40.9062 43.2575 41.0781C44.2419 41.3359 45.0661 41.8984 45.7302 42.7656C46.3942 43.625 46.7262 44.7383 46.7262 46.1055C46.7262 47.1602 46.5348 48.0469 46.152 48.7656C45.7692 49.4844 45.2809 50.0508 44.6872 50.4648C44.1012 50.8711 43.5036 51.1406 42.8942 51.2734C42.0661 51.4375 40.8669 51.5195 39.2966 51.5195H37.0348V58H33.5661ZM37.0348 43.7266V48.6016H38.9333C40.3005 48.6016 41.2145 48.5117 41.6755 48.332C42.1364 48.1523 42.4958 47.8711 42.7536 47.4883C43.0192 47.1055 43.152 46.6602 43.152 46.1523C43.152 45.5273 42.9684 45.0117 42.6012 44.6055C42.2341 44.1992 41.7692 43.9453 41.2067 43.8438C40.7927 43.7656 39.9606 43.7266 38.7106 43.7266H37.0348ZM49.9456 58V40.8203H57.2464C59.0823 40.8203 60.4144 40.9766 61.2425 41.2891C62.0784 41.5938 62.7464 42.1406 63.2464 42.9297C63.7464 43.7188 63.9964 44.6211 63.9964 45.6367C63.9964 46.9258 63.6175 47.9922 62.8597 48.8359C62.1019 49.6719 60.9691 50.1992 59.4612 50.418C60.2112 50.8555 60.8284 51.3359 61.3128 51.8594C61.805 52.3828 62.4652 53.3125 63.2933 54.6484L65.3909 58H61.2425L58.7347 54.2617C57.8441 52.9258 57.2347 52.0859 56.9066 51.7422C56.5784 51.3906 56.2308 51.1523 55.8636 51.0273C55.4964 50.8945 54.9144 50.8281 54.1175 50.8281H53.4144V58H49.9456ZM53.4144 48.0859H55.9808C57.6448 48.0859 58.6839 48.0156 59.098 47.875C59.512 47.7344 59.8362 47.4922 60.0706 47.1484C60.305 46.8047 60.4222 46.375 60.4222 45.8594C60.4222 45.2812 60.2659 44.8164 59.9534 44.4648C59.6487 44.1055 59.2152 43.8789 58.6527 43.7852C58.3714 43.7461 57.5277 43.7266 56.1214 43.7266H53.4144V48.0859ZM66.7588 52.4102L70.1338 52.082C70.3369 53.2148 70.747 54.0469 71.3642 54.5781C71.9892 55.1094 72.8291 55.375 73.8838 55.375C75.0009 55.375 75.8408 55.1406 76.4033 54.6719C76.9736 54.1953 77.2588 53.6406 77.2588 53.0078C77.2588 52.6016 77.1377 52.2578 76.8955 51.9766C76.6611 51.6875 76.247 51.4375 75.6533 51.2266C75.247 51.0859 74.3213 50.8359 72.8759 50.4766C71.0166 50.0156 69.7119 49.4492 68.9619 48.7773C67.9072 47.832 67.3798 46.6797 67.3798 45.3203C67.3798 44.4453 67.6259 43.6289 68.1181 42.8711C68.6181 42.1055 69.333 41.5234 70.2627 41.125C71.2002 40.7266 72.3291 40.5273 73.6494 40.5273C75.8056 40.5273 77.4267 41 78.5127 41.9453C79.6064 42.8906 80.1806 44.1523 80.2353 45.7305L76.7666 45.8828C76.6181 45 76.2978 44.3672 75.8056 43.9844C75.3213 43.5938 74.5908 43.3984 73.6142 43.3984C72.6064 43.3984 71.8173 43.6055 71.247 44.0195C70.8798 44.2852 70.6963 44.6406 70.6963 45.0859C70.6963 45.4922 70.8681 45.8398 71.2119 46.1289C71.6494 46.4961 72.7119 46.8789 74.3994 47.2773C76.0869 47.6758 77.333 48.0898 78.1377 48.5195C78.9502 48.9414 79.583 49.5234 80.0361 50.2656C80.497 51 80.7275 51.9102 80.7275 52.9961C80.7275 53.9805 80.4541 54.9023 79.9072 55.7617C79.3603 56.6211 78.5869 57.2617 77.5869 57.6836C76.5869 58.0977 75.3408 58.3047 73.8486 58.3047C71.6767 58.3047 70.0088 57.8047 68.8447 56.8047C67.6806 55.7969 66.9853 54.332 66.7588 52.4102Z" fill="#F8F8F8"/>
</svg>
