<svg width="100" height="100" viewBox="0 0 100 100" fill="none" xmlns="http://www.w3.org/2000/svg">
<rect width="100" height="100" fill="white"/>
<path fill-rule="evenodd" clip-rule="evenodd" d="M52.9761 68.2753L61.436 68.2729L70.4851 68.2563C70.5691 68.2563 70.611 68.2143 70.611 68.1304L70.5232 18.7273L70.6087 16.373C70.6182 16.1259 70.4994 16.0024 70.2523 16.0024L14 16.0071V82.8361L18.1741 82.7791L23.8497 82.7743C23.9352 82.7743 23.978 82.7315 23.978 82.646V25.4007C23.978 25.3752 23.9831 25.35 23.9931 25.3266C24.0031 25.3032 24.0178 25.2821 24.0363 25.2645C24.0547 25.247 24.0765 25.2333 24.1004 25.2245C24.1243 25.2156 24.1497 25.2117 24.1752 25.213C25.6275 25.2906 27.106 25.3263 28.6106 25.3199C39.0195 25.2835 49.4362 25.2637 59.8609 25.2605L60.241 25.2724C60.3392 25.2756 60.3883 25.3263 60.3883 25.4245L60.386 59.105C60.386 59.1523 60.3669 59.1976 60.3331 59.231C60.2992 59.2644 60.2533 59.2832 60.2054 59.2832L54.8006 59.2618L54.7793 31.8342L54.7959 30.9528C54.7975 30.8815 54.7626 30.8459 54.6914 30.8459H29.8484C29.8352 30.8459 29.8225 30.8511 29.8132 30.8605C29.8038 30.8698 29.7985 30.8825 29.7985 30.8958V34.7682L29.8627 82.8955C29.8627 82.9652 29.8975 83 29.9672 83L79.0378 82.9929L81.107 82.9857L85.9226 82.9881C86.005 82.9881 86.0462 82.9469 86.0462 82.8646L86.0414 18.5515L86.115 16.3682C86.1166 16.3208 86.1086 16.2735 86.0914 16.2291C86.0742 16.1848 86.0482 16.1444 86.015 16.1102C85.9817 16.0761 85.9419 16.049 85.8978 16.0304C85.8538 16.0119 85.8065 16.0024 85.7587 16.0024L76.0633 16C76.0298 15.9999 75.9965 16.0068 75.9657 16.0201C75.9349 16.0334 75.9071 16.0529 75.8842 16.0774C75.8612 16.102 75.8436 16.1309 75.8323 16.1626C75.821 16.1942 75.8164 16.2278 75.8186 16.2613C75.8495 16.6981 75.8231 17.1722 75.7984 17.6137C75.7833 17.8853 75.7688 18.145 75.7688 18.3757C75.7672 33.8923 75.768 49.4089 75.7711 64.9255C75.7711 65.4609 75.7711 66.8404 75.7711 66.8404L75.7687 73.0172C75.7687 73.0172 75.7999 73.0691 75.7274 73.1407C75.6549 73.2123 75.5571 73.2524 75.4552 73.2524L61.9879 73.2691L47.4763 73.3118L40.1472 73.2667C40.0886 73.2667 40.0324 73.2437 39.991 73.2027C39.9496 73.1617 39.9263 73.1061 39.9263 73.0481L39.9191 40.5103C39.9191 40.3947 39.977 40.3377 40.0926 40.3392L44.9414 40.3868C45.0222 40.3868 45.0626 40.4279 45.0626 40.5103L45.0602 68.0924C45.0602 68.1763 45.1022 68.2183 45.1861 68.2183L52.9761 68.2753Z" fill="#E9191B"/>
</svg>
