<svg width="100" height="100" viewBox="0 0 100 100" fill="none" xmlns="http://www.w3.org/2000/svg">
<rect width="100" height="100" fill="#52A9DF"/>
<path d="M83.214 55.0457L75.6791 55.0938C75.6632 55.0938 75.6474 55.0976 75.6332 55.1048C75.619 55.112 75.6066 55.1225 75.5972 55.1353C73.8533 57.5304 70.0564 57.5096 68.8775 54.5595C68.7056 54.1283 68.593 53.6042 68.5398 52.9872C68.5362 52.9442 68.5562 52.9228 68.5999 52.9228H83.2424C83.2561 52.9228 83.2693 52.9174 83.2791 52.9078C83.2889 52.8982 83.2945 52.8851 83.2948 52.8714C83.3429 50.5288 83.1244 47.9371 81.9673 45.8392C79.8279 41.9614 75.9097 41.0786 71.7719 41.084C67.0102 41.0895 62.8855 43.2759 61.4508 48.0507C61.4495 48.0544 61.4469 48.0576 61.4435 48.0597C61.4401 48.0618 61.4361 48.0626 61.4321 48.0621C61.4282 48.0616 61.4245 48.0598 61.4218 48.0569C61.419 48.054 61.4173 48.0503 61.417 48.0463C61.1154 37.2445 71.2769 29.2191 81.6996 32.0152C91.3541 34.6058 96.4032 45.4448 92.0173 54.5431C87.7582 63.376 76.6702 66.3808 68.4896 60.9045C68.4058 60.8484 68.4135 60.8287 68.5125 60.8455C70.5499 61.1929 72.6194 61.2483 74.7209 61.0115C76.7171 60.7865 78.5375 60.3429 80.0573 59.0514C81.2796 58.0126 82.3409 56.6931 83.2413 55.0927C83.2588 55.0614 83.2496 55.0457 83.214 55.0457Z" fill="white"/>
<path d="M41.9419 52.7862C41.942 52.7911 41.9436 52.7959 41.9465 52.8C41.9494 52.804 41.9533 52.8071 41.9579 52.8087C41.9624 52.8104 41.9673 52.8106 41.9719 52.8093C41.9765 52.808 41.9805 52.8053 41.9834 52.8015L45.3006 48.8286C45.3283 48.7951 45.364 48.7784 45.4077 48.7784L56.7995 48.738C56.8301 48.738 56.8523 48.7518 56.8662 48.7795C57.5123 50.0957 58.1489 51.4091 58.7761 52.7195C58.9476 53.0768 59.0657 53.4352 59.1705 53.8023C59.1722 53.8077 59.1756 53.8124 59.1801 53.8158C59.1846 53.8192 59.19 53.8211 59.1955 53.8212C59.201 53.8214 59.2064 53.8197 59.2107 53.8165C59.2151 53.8133 59.2182 53.8087 59.2197 53.8034C59.3486 53.3831 59.5045 52.9683 59.6874 52.5589C60.249 51.2987 60.8157 50.0407 61.3875 48.7849C61.3999 48.7573 61.421 48.7434 61.4509 48.7434H66.4879C66.4928 48.7434 66.4976 48.7447 66.5018 48.7471C66.5061 48.7495 66.5096 48.753 66.5122 48.7571C66.5147 48.7613 66.5161 48.766 66.5163 48.7709C66.5164 48.7758 66.5153 48.7806 66.5131 48.7849C65.0023 51.6906 63.4894 54.6014 61.9743 57.5173C61.4272 58.5706 60.8842 59.495 60.3451 60.2904C59.5333 61.489 58.4734 61.8179 56.9962 61.8791C55.7885 61.9286 54.5796 61.933 53.3697 61.8922C53.3268 61.8908 53.3053 61.8685 53.3053 61.8256V58.9913C53.3053 58.9578 53.322 58.9406 53.3555 58.9399C54.6722 58.9148 56.1669 59.1912 56.5133 57.4616C56.5205 57.4237 56.5147 57.3876 56.4958 57.3534L51.7297 48.9958C51.7248 48.9867 51.7177 48.979 51.7092 48.9732C51.7006 48.9674 51.6908 48.9637 51.6805 48.9624C51.6701 48.9611 51.6596 48.9623 51.6498 48.9658C51.6399 48.9693 51.631 48.9751 51.6237 48.9827L47.6115 53.2866C47.6001 53.299 47.5927 53.3147 47.5906 53.3313C47.5884 53.348 47.5915 53.3648 47.5995 53.3795L52.2629 61.8398C52.2986 61.9046 52.2796 61.937 52.2061 61.937H46.5866C46.5682 61.937 46.5501 61.9318 46.5345 61.9222C46.5189 61.9125 46.5063 61.8988 46.4981 61.8824L43.9971 56.9032C43.9752 56.8603 43.9476 56.8563 43.9141 56.8912L41.9801 58.9191C41.9555 58.9451 41.9418 58.9795 41.9419 59.0153V61.8824C41.9419 61.8969 41.9361 61.9108 41.9258 61.921C41.9156 61.9313 41.9017 61.937 41.8872 61.937H37.1616C37.1471 61.937 37.1332 61.9313 37.1229 61.921C37.1127 61.9108 37.1069 61.8969 37.1069 61.8824V45.2197C37.1069 45.2052 37.1127 45.1913 37.1229 45.181C37.1332 45.1708 37.1471 45.165 37.1616 45.165H41.8599C41.8816 45.165 41.9025 45.1737 41.9178 45.189C41.9332 45.2044 41.9419 45.2253 41.9419 45.247V52.7862Z" fill="white"/>
<path d="M68.6295 49.4341C68.6214 49.4341 68.6136 49.4309 68.6078 49.4252C68.6021 49.4194 68.5989 49.4116 68.5989 49.4035V49.2888C68.5979 48.7835 68.6849 48.283 68.8548 47.8159C69.0246 47.3487 69.2741 46.9241 69.589 46.5662C69.9038 46.2084 70.2778 45.9243 70.6897 45.7302C71.1016 45.5361 71.5432 45.4358 71.9893 45.4351H72.4024C73.3032 45.4335 74.1678 45.8373 74.8061 46.5575C75.4443 47.2778 75.804 48.2555 75.8059 49.2757V49.3904C75.8059 49.3985 75.8027 49.4063 75.797 49.412C75.7912 49.4178 75.7834 49.421 75.7753 49.421L68.6295 49.4341Z" fill="white"/>
<path d="M11.2276 67.4668C7.14224 66.6047 6.60357 63.53 6.74233 59.9276C6.74379 59.8831 6.7671 59.8609 6.81226 59.8609H11.4571C11.4694 59.8609 11.4814 59.8657 11.4903 59.8742C11.4993 59.8828 11.5046 59.8945 11.5051 59.9068C11.5915 62.1118 11.2735 64.5625 14.5754 63.9616C15.5752 63.7802 15.8811 63.0361 15.8811 62.103C15.8826 57.6487 15.883 53.1958 15.8822 48.7444C15.8822 48.7297 15.8881 48.7155 15.8986 48.705C15.909 48.6946 15.9232 48.6887 15.938 48.6887H20.9073C20.9221 48.6887 20.9362 48.6946 20.9467 48.705C20.9571 48.7155 20.963 48.7297 20.963 48.7444C20.963 53.1704 20.963 57.6043 20.963 62.0462C20.963 62.409 20.9058 62.8635 20.7915 63.4098C19.8649 67.8514 14.7743 68.2163 11.2276 67.4668Z" fill="white"/>
<path d="M31.8721 53.7697C33.003 53.9106 33.8979 54.0385 34.7796 54.6219C36.1126 55.5048 36.2284 57.2956 35.8864 58.704C35.2473 61.334 32.39 61.7241 30.1162 61.876C28.8765 61.959 27.6556 61.9233 26.4537 61.7689C23.9461 61.4476 22.1487 60.3168 22.0187 57.607C22.0165 57.5619 22.038 57.5393 22.0832 57.5393H27.4589C27.5048 57.5393 27.53 57.5619 27.5343 57.607C27.6523 58.8373 29.1591 58.8657 30.0594 58.6669C30.4702 58.5773 30.9598 58.2429 30.7838 57.7687C30.6112 57.3065 29.6956 57.0946 29.2683 57.041C27.5387 56.8247 25.7839 56.6357 24.1592 56.0926C22.8895 55.6676 22.4328 54.5793 22.2951 53.313C22.0198 50.778 23.5692 49.421 25.8845 49.0102C27.5773 48.7093 29.2789 48.654 30.9893 48.8441C33.392 49.1107 35.3718 50.0919 35.6078 52.8016C35.6087 52.8136 35.6072 52.8257 35.6032 52.8371C35.5993 52.8485 35.5931 52.8589 35.585 52.8677C35.5769 52.8766 35.5671 52.8836 35.5561 52.8884C35.5452 52.8932 35.5334 52.8956 35.5215 52.8956H30.491C30.4488 52.8956 30.4214 52.8755 30.4091 52.8355C30.2484 52.3252 30.1599 51.9679 29.5677 51.8292C28.9832 51.6904 27.5737 51.5593 27.1803 52.1602C26.646 52.9753 27.8326 53.3009 28.4773 53.372C29.61 53.4958 30.7416 53.6284 31.8721 53.7697Z" fill="white"/>
</svg>
