<svg width="100" height="100" viewBox="0 0 100 100" fill="none" xmlns="http://www.w3.org/2000/svg">
<g clip-path="url(#clip0_74_4114)">
<rect width="100" height="100" fill="#013BBE"/>
<path d="M63.365 1.92774C63.675 1.90342 63.9485 1.94395 64.1856 2.04931C63.8978 2.21545 63.8279 2.43934 63.9758 2.72098C64.1258 3.00869 64.2119 3.19206 64.2342 3.27108C65.0457 6.17354 65.3374 7.99707 65.7933 9.89963C66.0486 10.9512 66.1063 11.9329 66.392 12.9267C66.7476 14.1819 66.6747 15.4523 66.9573 16.7227C67.3312 18.4125 67.3281 19.9443 67.6077 21.5855C67.8225 22.8396 68.0008 24.0989 68.1426 25.3632C68.2905 26.6903 68.4729 29.2443 68.6897 33.0251C68.7231 33.5874 68.8265 34.2195 68.8173 34.7575C68.7596 38.2313 69.024 41.6747 69.0635 45.1486C69.0655 45.2499 69.0351 45.3411 68.9723 45.4221C68.8001 45.645 68.717 45.8638 68.7231 46.0786C68.7981 48.2304 68.7728 50.3811 68.6471 52.5309C68.6451 52.5795 68.6613 52.5866 68.6958 52.5521C68.7403 52.5096 68.7576 52.4569 68.7474 52.3941C68.7461 52.3833 68.747 52.3724 68.7501 52.3621C68.7532 52.3518 68.7583 52.3423 68.7653 52.3342C68.7722 52.3261 68.7807 52.3197 68.7902 52.3154C68.7997 52.311 68.81 52.3089 68.8204 52.309C68.8508 52.309 68.8801 52.309 68.9085 52.309C68.9916 52.313 69.0351 52.3556 69.0392 52.4366C69.1668 54.7404 69.2489 56.9104 68.8295 59.2263C68.5539 60.7378 68.2541 62.2473 67.9299 63.7547C67.9076 63.8601 67.858 63.9503 67.781 64.0252C67.5338 64.2724 67.4254 64.5753 67.4558 64.9339C67.4657 65.037 67.4445 65.1417 67.395 65.2348C66.9756 66.0098 66.8236 66.7848 66.3464 67.5021C65.5015 68.7786 64.8755 70.1158 63.7327 71.1431C62.8756 71.913 61.9953 72.6566 61.0916 73.3739C60.8505 73.5664 60.5729 73.7001 60.2589 73.7751C60.1616 73.7994 60.0877 73.8551 60.037 73.9422C59.8567 74.2441 59.5619 74.4943 59.1526 74.6929C56.1255 76.1548 52.755 77.3735 49.4392 77.2641C47.953 77.2155 46.5793 77.2641 45.0871 77.0939C44.6433 77.0453 44.2756 76.793 43.7832 76.7687C43.3517 76.7464 43.0325 76.6968 42.8259 76.6198C41.7601 76.2206 40.6812 75.86 39.5891 75.5378C39.2517 75.4406 39.0846 75.1518 38.7503 74.9908C36.0727 73.7143 33.3587 71.4166 31.6415 68.8789C30.1219 66.6329 28.9123 63.8672 28.5111 61.1076C28.4807 60.8928 28.3926 60.4906 28.2467 59.901C28.0218 59.0014 28.1646 57.889 28.1008 57.0623C28.0258 56.1283 28.0998 55.0524 28.3227 53.8347C29.7673 45.9509 34.1458 40.6485 41.4582 37.9274C42.0114 37.7207 42.369 37.7552 42.5311 38.0307C34.5379 40.6647 29.9497 46.0553 28.7664 54.2024C28.2822 57.5192 28.6317 60.8057 29.8149 64.0617C34.389 76.6654 50.0288 80.7957 60.6388 73.0396C66.0638 68.7695 68.5894 62.6636 68.5073 55.8041C68.483 53.5004 68.2551 50.4004 68.328 47.5708C68.4597 42.3029 68.3351 37.048 67.9542 31.8064C67.5125 21.6574 65.9828 11.6978 63.365 1.92774Z" fill="#E3CD52"/>
<path d="M64.1853 2.04907L68.7745 3.48359C70.1584 5.74477 71.2373 8.54694 72.0113 11.8901C72.917 15.8127 73.4924 18.8823 73.7376 21.0989C73.7639 21.3238 73.8328 21.5396 73.9442 21.7463C73.9928 21.8334 74.0111 21.9276 73.9989 22.029C73.9219 22.7523 74.0151 23.4513 74.2785 24.126C74.3191 24.2293 74.3292 24.3357 74.3089 24.4451C74.2137 24.9436 74.3079 25.3893 74.5916 25.7824C74.6429 25.8555 74.6695 25.9438 74.6676 26.0347C74.6432 27.4145 74.9654 28.6332 74.9502 30.0464C74.9421 30.6543 75.0464 31.2449 75.2632 31.8183C75.2997 31.9156 75.3088 32.0148 75.2906 32.1161C75.2055 32.5801 75.1771 32.954 75.2055 33.2376C75.5033 36.1796 75.862 39.158 75.9592 42.0635C76.1274 47.2302 76.177 52.3979 76.1082 57.5666C76.093 58.7003 75.9197 60.0193 75.631 61.1225C75.3909 62.0343 75.2693 63.0646 75.0475 63.8791C74.0931 67.3924 72.531 70.6009 70.361 73.5043C69.7015 74.3887 68.8414 75.264 68.0694 76.1728C66.4768 78.0449 64.4588 79.2819 62.4195 80.6344C61.3223 81.3638 60.1309 81.847 58.9548 82.4549C58.0399 82.9259 56.9701 83.0809 55.9095 83.4578C51.4813 85.0352 45.6399 84.6613 41.1692 83.4608C41.0598 83.4325 40.9463 83.3616 40.8288 83.2481C40.7635 83.1868 40.6809 83.1465 40.5917 83.1326C39.3983 82.928 38.4309 82.6018 37.6893 82.154C37.2901 81.9129 36.9507 81.771 36.6711 81.7285C36.5732 81.7145 36.4796 81.6781 36.3976 81.6221C35.34 80.9292 34.2651 80.2646 33.173 79.6284C31.7658 78.8108 30.7386 77.5131 29.5259 76.4372C27.4471 74.5924 25.8667 71.9239 24.2893 69.6445C24.2387 69.5716 24.2002 69.4551 24.1738 69.295C24.1556 69.1937 24.1131 69.1045 24.0462 69.0275C23.3046 68.1604 22.8558 67.1594 22.6998 66.0248C22.6877 65.9478 22.6481 65.889 22.5813 65.8485C22.5266 65.8161 22.4942 65.7594 22.484 65.6783C22.3381 64.5417 21.8579 63.4688 21.6969 62.4567C21.5044 61.2532 21.3443 60.0456 21.2167 58.834C21.0526 57.287 21.2744 55.6215 21.2653 53.9895C21.2531 52.482 21.8154 51.0657 21.9613 49.534C21.9694 49.4367 22.0109 49.3577 22.0859 49.2969C22.3148 49.1085 22.4151 48.8694 22.3868 48.5796C22.3766 48.4844 22.3868 48.3902 22.4172 48.297C24.9002 40.8965 30.9726 34.7663 38.1695 31.639C39.4318 31.0899 40.7214 30.5266 42.0384 29.9492C46.5699 28.3901 51.6697 28.8459 57.037 28.9949C58.1757 29.2724 59.3306 29.4366 60.5017 29.4872C61.1278 29.5146 61.7569 29.855 62.4438 29.8428C63.4204 29.8246 64.3707 29.8154 65.2946 29.8154C65.329 29.8156 65.3629 29.8231 65.3943 29.8373C65.4256 29.8516 65.4535 29.8723 65.4762 29.8982C65.4989 29.924 65.5158 29.9544 65.5259 29.9873C65.536 30.0202 65.539 30.0548 65.5347 30.089C65.2733 32.18 65.8477 34.584 65.9085 36.7479C65.9126 36.8695 65.8538 36.9364 65.7322 36.9485C64.5226 37.0822 63.2309 36.6689 61.8572 36.8756C61.0852 36.9911 60.4186 37.0417 59.8574 37.0275C58.202 36.9809 56.5426 37.0275 54.8791 37.1673C50.7914 37.0518 47.044 36.757 43.5185 37.839L42.5308 38.0305C42.3687 37.7549 42.0111 37.7205 41.4579 37.9271C34.1455 40.6483 29.767 45.9507 28.3224 53.8345C28.0995 55.0522 28.0256 56.1281 28.1005 57.0621C28.1643 57.8888 28.0215 59.0011 28.2464 59.9008C28.3923 60.4904 28.4804 60.8926 28.5108 61.1073C28.912 63.8669 30.1216 66.6326 31.6412 68.8786C33.3584 71.4164 36.0724 73.714 38.75 74.9905C39.0843 75.1516 39.2514 75.4403 39.5888 75.5376C40.6809 75.8597 41.7598 76.2204 42.8256 76.6195C43.0322 76.6965 43.3514 76.7462 43.7829 76.7685C44.2753 76.7928 44.643 77.045 45.0868 77.0937C46.579 77.2639 47.9528 77.2152 49.4389 77.2639C52.7547 77.3733 56.1252 76.1545 59.1523 74.6927C59.5616 74.4941 59.8564 74.2439 60.0367 73.942C60.0874 73.8549 60.1613 73.7991 60.2586 73.7748C60.5726 73.6999 60.8502 73.5661 61.0913 73.3736C61.995 72.6564 62.8754 71.9128 63.7324 71.1429C64.8752 70.1156 65.5013 68.7783 66.3462 67.5019C66.8233 66.7846 66.9753 66.0096 67.3947 65.2346C67.4443 65.1414 67.4654 65.0368 67.4555 64.9337C67.4251 64.5751 67.5335 64.2722 67.7807 64.025C67.8577 63.95 67.9073 63.8599 67.9296 63.7545C68.2538 62.247 68.5536 60.7376 68.8292 59.226C69.2486 56.9102 69.1666 54.7401 69.0389 52.4364C69.0349 52.3554 68.9913 52.3128 68.9082 52.3088C68.8799 52.3088 68.8505 52.3088 68.8201 52.3088C68.8097 52.3086 68.7994 52.3108 68.7899 52.3151C68.7804 52.3195 68.7719 52.3259 68.765 52.334C68.758 52.342 68.7529 52.3515 68.7498 52.3619C68.7467 52.3722 68.7458 52.3831 68.7471 52.3939C68.7573 52.4567 68.74 52.5094 68.6955 52.5519C68.661 52.5863 68.6448 52.5793 68.6469 52.5306C68.7725 50.3809 68.7978 48.2301 68.7228 46.0784C68.7168 45.8636 68.7998 45.6448 68.972 45.4219C69.0349 45.3408 69.0653 45.2497 69.0632 45.1483C69.0237 41.6745 68.7593 38.2311 68.817 34.7572C68.8262 34.2193 68.7228 33.5871 68.6894 33.0249C68.4726 29.2441 68.2902 26.6901 68.1423 25.363C68.0005 24.0987 67.8222 22.8394 67.6074 21.5852C67.3278 19.944 67.3309 18.4123 66.957 16.7225C66.6744 15.4521 66.7473 14.1817 66.3917 12.9265C66.1061 11.9326 66.0483 10.951 65.793 9.89939C65.3371 7.99684 65.0454 6.1733 64.2339 3.27084C64.2116 3.19182 64.1255 3.00846 63.9756 2.72074C63.8276 2.43911 63.8975 2.21522 64.1853 2.04907Z" fill="#FECD02"/>
<path d="M68.775 3.48364C69.0222 3.52619 69.2096 3.61838 69.3373 3.76021C71.6288 6.72042 72.5649 11.3704 73.2153 14.6406C74.9274 23.2417 75.9648 31.9166 76.3275 40.6655C76.3417 41.014 76.4126 43.0392 76.5402 46.741C76.7287 52.3291 76.7591 55.9772 76.6314 57.6852C75.5099 72.5045 64.4988 84.1538 49.4698 84.9714C31.6721 85.2206 17.8588 69.3832 20.9741 51.7648C21.8088 47.6558 23.4824 43.8891 25.9949 40.465C29.6845 35.665 34.5077 32.2621 40.4646 30.2562C41.0927 30.0434 41.6175 29.9411 42.0389 29.9492C40.7219 30.5267 39.4323 31.09 38.17 31.639C30.9731 34.7664 24.9007 40.8965 22.4177 48.297C22.3873 48.3902 22.3772 48.4845 22.3873 48.5797C22.4157 48.8694 22.3154 49.1085 22.0864 49.2969C22.0114 49.3577 21.9699 49.4367 21.9618 49.534C21.8159 51.0658 21.2537 52.4821 21.2658 53.9895C21.2749 55.6216 21.0531 57.2871 21.2172 58.834C21.3448 60.0457 21.5049 61.2533 21.6974 62.4568C21.8585 63.4689 22.3387 64.5417 22.4845 65.6784C22.4947 65.7594 22.5271 65.8162 22.5818 65.8486C22.6487 65.8891 22.6882 65.9479 22.7003 66.0248C22.8563 67.1595 23.3051 68.1604 24.0467 69.0276C24.1136 69.1046 24.1561 69.1937 24.1744 69.2951C24.2007 69.4551 24.2392 69.5716 24.2898 69.6446C25.8672 71.924 27.4476 74.5924 29.5264 76.4372C30.7391 77.5131 31.7663 78.8109 33.1735 79.6284C34.2656 80.2646 35.3405 80.9292 36.3981 81.6222C36.4802 81.6782 36.5737 81.7146 36.6717 81.7285C36.9513 81.7711 37.2906 81.9129 37.6898 82.154C38.4314 82.6018 39.3989 82.928 40.5923 83.1327C40.6814 83.1466 40.764 83.1868 40.8293 83.2481C40.9468 83.3616 41.0603 83.4325 41.1697 83.4609C45.6404 84.6614 51.4818 85.0352 55.91 83.4578C56.9707 83.081 58.0405 82.926 58.9553 82.4549C60.1314 81.8471 61.3228 81.3638 62.42 80.6344C64.4593 79.282 66.4773 78.045 68.0699 76.1728C68.8419 75.2641 69.702 74.3888 70.3615 73.5044C72.5315 70.6009 74.0937 67.3925 75.048 63.8792C75.2698 63.0646 75.3914 62.0343 75.6315 61.1226C75.9202 60.0193 76.0935 58.7003 76.1087 57.5667C76.1776 52.398 76.1279 47.2303 75.9597 42.0636C75.8625 39.1581 75.5039 36.1796 75.206 33.2377C75.1776 32.954 75.206 32.5802 75.2911 32.1162C75.3093 32.0149 75.3002 31.9156 75.2638 31.8184C75.047 31.245 74.9426 30.6543 74.9507 30.0465C74.9659 28.6332 74.6438 27.4145 74.6681 26.0347C74.67 25.9439 74.6434 25.8555 74.5921 25.7824C74.3084 25.3894 74.2142 24.9436 74.3094 24.4452C74.3297 24.3358 74.3196 24.2294 74.279 24.1261C74.0156 23.4514 73.9224 22.7523 73.9994 22.029C74.0116 21.9277 73.9934 21.8335 73.9447 21.7464C73.8333 21.5397 73.7644 21.3239 73.7381 21.099C73.4929 18.8824 72.9175 15.8128 72.0118 11.8901C71.2378 8.54699 70.1589 5.74483 68.775 3.48364Z" fill="#E3CD52"/>
<path d="M70.4766 4.27368C71.2081 4.37702 71.9223 4.65561 72.6193 5.10947C72.3478 5.1115 72.1857 5.30702 72.133 5.69604C72.1188 5.79532 72.1381 5.88751 72.1907 5.97261C73.4733 8.06056 73.8167 9.79596 74.5218 12.7106C74.7913 13.8169 75.0101 14.9363 75.1783 16.0689C75.3333 17.1175 75.8044 18.1933 75.8712 19.3726C75.9108 20.0807 76.1752 20.5974 76.3545 21.2538C76.5459 21.9407 76.3028 22.7674 76.5946 23.5302C77.2298 25.1805 76.8681 26.9585 77.4395 28.6088C77.6492 29.2136 77.5854 30.2469 77.6461 30.6542C78.2084 34.4988 78.1476 38.2917 78.5184 42.1273C78.9773 46.8715 78.8345 51.7555 78.8558 56.521C78.8649 58.2291 78.4607 59.8034 78.2145 61.4962C78.0777 62.4323 77.6431 63.4596 77.5702 64.5294C77.5621 64.6307 77.5317 64.7239 77.479 64.809C77.2966 65.1028 77.1629 65.4158 77.0778 65.7481C76.5672 67.7175 75.5491 69.9392 74.4155 71.6685C72.9293 73.9388 71.8868 75.6682 69.5132 78.2241C68.6744 79.1298 66.9258 80.4985 64.2675 82.3301C57.8851 86.734 48.3571 88.0773 40.8411 85.8344C37.9235 84.9621 35.1304 83.7586 32.5714 82.1022C31.0913 81.1448 29.7419 80.3638 28.4259 78.9566C27.8363 78.3275 26.8212 77.4856 26.0158 76.5009C24.1537 74.2215 22.6726 71.9968 21.5724 69.8268C21.229 69.1551 20.299 67.7571 20.223 67.2282C20.1045 66.3681 19.6668 65.426 19.4966 64.8394C18.1715 60.2319 18.0236 55.5819 19.0529 50.8893C19.1471 50.4547 19.3659 50.0931 19.4571 49.6129C20.1288 46.0722 21.8125 42.8536 24.0433 39.6716C26.0816 36.762 28.4269 34.4714 31.0791 32.7999C31.6262 32.4534 32.1398 31.9155 32.6808 31.5903C35.408 29.9389 38.3125 28.6868 41.3943 27.8338C41.5361 27.7953 41.7407 27.9097 42.0082 28.1772C40.3488 28.5885 38.8332 29.1092 37.4615 29.7394L33.863 31.493C30.297 33.5597 27.273 36.2291 24.791 39.5014C22.1691 42.9276 20.4236 46.7388 19.5544 50.9349C18.7743 54.8049 18.7652 58.6799 19.527 62.56C21.9888 73.6744 30.2008 82.6371 41.3213 85.4818C45.1892 86.5557 49.276 86.7451 53.5816 86.0501C66.7262 83.5306 76.3454 72.9359 77.9926 59.7457C78.1669 58.3517 78.2398 56.3285 78.2114 53.6763C78.0929 42.6743 77.6735 31.6662 75.6524 20.8253C74.8622 16.5826 74.1743 13.3316 73.5888 11.0724C72.9566 8.62889 72.1786 6.09722 70.4766 4.27368Z" fill="#E3CD52"/>
<path d="M72.6196 5.10986L76.9748 7.36801C76.9536 7.6385 76.9657 7.8634 77.1693 8.07007C78.462 9.40125 79.3019 10.699 79.6889 11.9633C80.0688 13.2033 80.6888 14.2579 80.9927 15.267C81.248 16.1179 81.5316 16.9588 81.8437 17.7895C82.1263 18.5402 82.1658 19.3031 82.3816 20.0872C82.5984 20.8814 82.7362 21.4538 82.795 21.8043C83.421 25.6601 84.0025 29.5219 84.5395 33.3899C84.9325 36.2386 85.1686 39.1006 85.2476 41.9757C85.276 42.9685 85.586 44.4466 86.1776 46.4099C86.1898 49.9293 86.521 53.5764 86.284 57.0958L85.9649 57.3086C85.8798 57.3633 85.8342 57.4423 85.8281 57.5456C85.4188 63.4701 83.8313 69.0471 81.0656 74.2766C80.6158 75.1276 79.7415 76.4841 78.4428 78.3461C76.4764 81.1635 74.0633 83.4216 71.5316 85.6676C68.155 88.6612 63.9913 90.7309 59.7941 92.1867C59.6259 92.2435 58.9563 92.4056 57.7852 92.673C56.8916 92.8756 56.1126 93.2403 55.448 93.7671C48.0505 95.1449 40.8567 94.3263 33.8664 91.3114C30.8698 89.9742 28.0767 88.3006 25.4873 86.2906C25.4832 86.0718 25.5126 85.8945 25.5754 85.7588C25.616 85.6737 25.6008 85.6017 25.5298 85.543C22.5848 83.1055 20.8859 81.1999 18.8375 78.6591C18.1628 77.8223 17.565 76.9278 17.0443 75.9755C15.9867 74.0274 14.853 72.1096 14.0932 70.0976C13.4388 68.3633 12.8775 66.5975 12.4095 64.8003C11.9962 63.2259 11.8898 61.4997 11.6679 59.8251C11.2212 56.4363 11.3123 52.2969 12.3396 48.8231C12.6071 47.9174 12.6922 47.0178 12.9839 46.2336C13.3142 45.3381 13.5908 44.56 13.8136 43.8995C14.4276 42.0608 15.2877 40.5776 16.1873 38.9456C16.2318 38.8605 16.2308 38.7115 16.1842 38.4988C16.164 38.3955 16.1883 38.3053 16.2572 38.2283C16.5388 37.9163 16.6431 37.5283 16.5702 37.0643C23.682 26.2264 35.1095 19.6981 48.0232 19.0478C49.3624 18.9789 51.7614 19.0072 55.22 19.1329C57.4286 19.5077 59.3544 19.6799 60.9976 19.6495C61.3623 19.6414 61.5842 19.7721 61.6632 20.0416C61.6936 20.1409 61.7595 20.1824 61.8608 20.1662C62.728 20.0385 63.5951 20.0548 64.4623 20.2148C64.5738 20.2371 64.6305 20.305 64.6325 20.4184C64.6477 20.9564 64.8969 21.3636 64.9091 21.8742C64.9496 23.6086 65.0803 25.3177 65.3012 27.0014C65.3052 27.0342 65.3021 27.0676 65.292 27.099C65.2819 27.1305 65.2651 27.1593 65.2427 27.1834C65.2204 27.2075 65.1931 27.2263 65.1627 27.2384C65.1324 27.2506 65.0997 27.2558 65.0672 27.2537C63.0896 27.1524 61.1759 27.0693 59.326 27.0044C59.014 26.9943 58.7911 27.045 58.6574 27.1564C58.5824 27.2172 58.4973 27.2506 58.4021 27.2567L56.7275 27.3874C51.8252 27.1686 46.8075 26.9285 42.0085 28.1776C41.7411 27.9101 41.5364 27.7957 41.3946 27.8342C38.3128 28.6872 35.4083 29.9393 32.6811 31.5906C32.1402 31.9158 31.6265 32.4538 31.0795 32.8003C28.4272 34.4718 26.082 36.7624 24.0437 39.6719C21.8129 42.854 20.1291 46.0726 19.4575 49.6133C19.3663 50.0935 19.1475 50.4551 19.0533 50.8897C18.024 55.5823 18.1719 60.2323 19.497 64.8398C19.6672 65.4263 20.1048 66.3685 20.2234 67.2286C20.2993 67.7574 21.2293 69.1555 21.5728 69.8271C22.673 71.9972 24.1541 74.2219 26.0161 76.5013C26.8215 77.486 27.8366 78.3279 28.4262 78.957C29.7422 80.3641 31.0916 81.1452 32.5717 82.1026C35.1308 83.759 37.9238 84.9625 40.8415 85.8347C48.3575 88.0777 57.8855 86.7344 64.2678 82.3305C66.9261 80.4989 68.6747 79.1302 69.5135 78.2245C71.8872 75.6685 72.9296 73.9392 74.4158 71.6689C75.5494 69.9396 76.5676 67.7179 77.0782 65.7485C77.1633 65.4162 77.297 65.1032 77.4793 64.8094C77.532 64.7243 77.5624 64.6311 77.5705 64.5298C77.6435 63.46 78.0781 62.4327 78.2148 61.4966C78.461 59.8038 78.8652 58.2295 78.8561 56.5214C78.8348 51.7559 78.9777 46.8719 78.5188 42.1276C78.148 38.2921 78.2088 34.4992 77.6465 30.6546C77.5857 30.2473 77.6495 29.214 77.4398 28.6092C76.8685 26.9589 77.2301 25.1809 76.5949 23.5306C76.3032 22.7678 76.5463 21.9411 76.3548 21.2542C76.1755 20.5978 75.9111 20.0811 75.8716 19.373C75.8047 18.1937 75.3337 17.1178 75.1787 16.0693C75.0105 14.9367 74.7917 13.8172 74.5222 12.711C73.8171 9.79635 73.4736 8.06095 72.1911 5.973C72.1384 5.88791 72.1192 5.79571 72.1334 5.69643C72.186 5.30741 72.3481 5.11189 72.6196 5.10986Z" fill="#FECD02"/>
<path d="M76.9746 7.36768C77.2299 7.48722 77.4223 7.62196 77.552 7.77189C81.3875 11.5041 82.8129 19.3757 83.9222 24.4542C84.6719 29.2866 85.2676 34.1625 85.7093 39.082L86.1773 46.4096C85.5857 44.4462 85.2757 42.9682 85.2473 41.9753C85.1683 39.1002 84.9323 36.2383 84.5392 33.3895C84.0023 29.5216 83.4208 25.6598 82.7947 21.804C82.7359 21.4535 82.5981 20.8811 82.3813 20.0868C82.1656 19.3027 82.126 18.5399 81.8434 17.7892C81.5314 16.9585 81.2477 16.1176 80.9924 15.2666C80.6885 14.2576 80.0685 13.203 79.6886 11.963C79.3016 10.6987 78.4617 9.40092 77.1691 8.06974C76.9654 7.86307 76.9533 7.63817 76.9746 7.36768Z" fill="#E3CD52"/>
<path d="M55.22 19.1328C58.475 19.0082 61.7482 19.5066 65.0276 19.7072C65.0716 19.7099 65.1132 19.7282 65.145 19.7588C65.1768 19.7895 65.1965 19.8304 65.2008 19.8743L65.912 27.6213C65.9141 27.647 65.9108 27.6729 65.9022 27.6973C65.8937 27.7216 65.88 27.7438 65.8622 27.7625C65.8444 27.7812 65.8228 27.7959 65.7989 27.8056C65.775 27.8153 65.7493 27.8198 65.7235 27.8189L56.7274 27.3873L58.402 27.2566C58.4973 27.2505 58.5824 27.2171 58.6573 27.1563C58.7911 27.0449 59.0139 26.9942 59.326 27.0044C61.1758 27.0692 63.0895 27.1523 65.0671 27.2536C65.0996 27.2557 65.1323 27.2505 65.1626 27.2383C65.193 27.2262 65.2203 27.2074 65.2426 27.1833C65.265 27.1592 65.2818 27.1304 65.2919 27.0989C65.302 27.0675 65.3052 27.0342 65.3011 27.0013C65.0802 25.3176 64.9495 23.6085 64.909 21.8742C64.8969 21.3636 64.6477 20.9563 64.6325 20.4184C64.6304 20.3049 64.5737 20.237 64.4623 20.2147C63.5951 20.0547 62.7279 20.0385 61.8607 20.1661C61.7594 20.1823 61.6935 20.1408 61.6631 20.0415C61.5841 19.772 61.3623 19.6413 60.9975 19.6494C59.3543 19.6798 57.4285 19.5076 55.22 19.1328Z" fill="#E3CD52"/>
<path d="M86.0892 23.1443C89.0453 23.7582 91.967 24.6558 94.8543 25.837L97.3282 27.542L97.7963 28.4143C95.7357 26.7549 93.5454 25.6091 91.2255 24.9769C91.1849 24.9668 91.1464 24.9668 91.11 24.9769C91.0532 24.9931 90.9975 24.9931 90.9428 24.9769L86.4569 23.6275C86.0213 23.4958 85.8531 23.6518 85.9524 24.0956C86.4052 26.141 86.615 28.5359 87.4112 30.5357L86.6879 30.4354C86.5765 30.4192 86.5126 30.3553 86.4964 30.2439C86.1418 27.9929 85.7336 25.7388 85.2716 23.4816C85.2149 23.202 85.2686 23.0501 85.4327 23.0257C85.5806 23.0014 85.7994 23.0409 86.0892 23.1443Z" fill="#E3CD52"/>
<path d="M97.7963 28.4145C98.8844 30.0679 99.8184 31.9593 100.598 34.0888C96.4621 31.9674 91.5841 31.1863 87.4113 30.5359C86.615 28.5361 86.4053 26.1412 85.9524 24.0958C85.8532 23.652 86.0213 23.496 86.457 23.6277L90.9429 24.9772C90.9976 24.9934 91.0533 24.9934 91.11 24.9772C91.1465 24.967 91.185 24.967 91.2255 24.9772C93.5454 25.6093 95.7357 26.7551 97.7963 28.4145Z" fill="#FECD02"/>
<path d="M57.0375 28.9949L65.833 29.3961C65.9607 29.4021 66.0275 29.469 66.0336 29.5966L66.4956 37.1674C66.4977 37.2003 66.4929 37.2332 66.4816 37.2642C66.4702 37.2952 66.4526 37.3234 66.4297 37.3472C66.4068 37.3709 66.3792 37.3896 66.3487 37.4021C66.3182 37.4146 66.2854 37.4205 66.2524 37.4196L54.8796 37.1674C56.5431 37.0275 58.2025 36.9809 59.8579 37.0275C60.4191 37.0417 61.0857 36.9911 61.8577 36.8756C63.2314 36.6689 64.5231 37.0823 65.7327 36.9485C65.8543 36.9364 65.913 36.8695 65.909 36.7479C65.8482 34.584 65.2738 32.18 65.5352 30.089C65.5395 30.0549 65.5365 30.0202 65.5264 29.9873C65.5163 29.9544 65.4994 29.9241 65.4767 29.8982C65.454 29.8724 65.426 29.8516 65.3947 29.8373C65.3634 29.8231 65.3295 29.8156 65.2951 29.8155C64.3711 29.8155 63.4209 29.8246 62.4443 29.8428C61.7574 29.855 61.1283 29.5146 60.5022 29.4872C59.3311 29.4366 58.1762 29.2725 57.0375 28.9949Z" fill="#E3CD52"/>
<path d="M88.2319 32.2195C87.7436 32.0756 87.4265 32.1476 87.2806 32.4353C87.234 32.5264 87.229 32.6197 87.2654 32.7149C87.6879 33.8516 87.5298 34.9183 87.773 36.0368C87.9766 36.9759 87.7973 37.8086 87.9736 38.6414C87.9938 38.7447 88.0566 38.8035 88.162 38.8176C89.7363 39.0405 91.3076 39.2816 92.8758 39.541C92.8799 39.541 92.8829 39.543 92.885 39.5471C92.8951 39.5775 92.9032 39.6099 92.9093 39.6443C92.9255 39.7355 92.9802 39.7791 93.0734 39.775C94.3762 39.7426 95.6517 39.9047 96.8998 40.2613C97.4711 40.4254 98.0547 40.4619 98.6412 40.629C98.6521 40.6318 98.6619 40.6374 98.6698 40.6454C98.6776 40.6533 98.6832 40.6634 98.686 40.6744C98.6887 40.6855 98.6886 40.6972 98.6855 40.7085C98.6825 40.7197 98.6767 40.73 98.6686 40.7384L98.5926 40.8114C98.544 40.862 98.5541 40.8894 98.623 40.8934C98.9431 40.9178 99.2491 41.0292 99.5409 41.2278C95.5838 40.3849 91.5994 39.7304 87.5876 39.2644C87.4883 39.2543 87.4346 39.1996 87.4265 39.1003L86.7731 32.0918C86.767 32.0067 86.8065 31.9632 86.8916 31.9612C87.4022 31.9449 87.849 32.0311 88.2319 32.2195Z" fill="#E3CD52"/>
<path d="M88.2319 32.2194C93.0988 32.6469 97.4803 33.8748 101.377 35.9029C102.248 38.1013 102.893 40.1761 103.313 42.1273L101.848 41.7869C101.88 41.7686 101.778 41.7464 101.541 41.72L101.118 41.6076L99.5409 41.2277C99.2491 41.0291 98.9432 40.9177 98.6231 40.8933C98.5542 40.8893 98.544 40.8619 98.5927 40.8113L98.6687 40.7383C98.6767 40.7299 98.6825 40.7196 98.6856 40.7084C98.6886 40.6971 98.6888 40.6854 98.686 40.6743C98.6832 40.6633 98.6776 40.6532 98.6698 40.6453C98.662 40.6373 98.6521 40.6317 98.6413 40.6289C98.0547 40.4618 97.4712 40.4253 96.8998 40.2612C95.6517 39.9046 94.3763 39.7425 93.0734 39.7749C92.9802 39.779 92.9255 39.7354 92.9093 39.6442C92.9032 39.6098 92.8951 39.5774 92.885 39.547C92.883 39.5429 92.8799 39.5409 92.8759 39.5409C91.3076 39.2815 89.7364 39.0404 88.162 38.8176C88.0567 38.8034 87.9939 38.7446 87.9736 38.6413C87.7973 37.8085 87.9767 36.9758 87.773 36.0367C87.5299 34.9182 87.6879 33.8515 87.2655 32.7148C87.229 32.6196 87.2341 32.5264 87.2807 32.4352C87.4266 32.1475 87.7436 32.0755 88.2319 32.2194Z" fill="#FECD02"/>
<path d="M16.5701 37.064C16.643 37.528 16.5387 37.916 16.257 38.228C16.1881 38.305 16.1638 38.3951 16.1841 38.4985C16.2307 38.7112 16.2317 38.8601 16.1871 38.9452C15.2875 40.5773 14.4274 42.0605 13.8135 43.8992C13.5906 44.5597 13.314 45.3378 12.9838 46.2333C12.692 47.0174 12.6069 47.917 12.3395 48.8227C11.3122 52.2966 11.221 56.436 11.6678 59.8247C11.8897 61.4993 11.996 63.2256 12.4094 64.8C12.8774 66.5971 13.4387 68.3629 14.0931 70.0973C14.8529 72.1093 15.9865 74.027 17.0442 75.9752C17.5649 76.9275 18.1626 77.822 18.8373 78.6588C20.8858 81.1996 22.5847 83.1052 25.5297 85.5427C25.6006 85.6014 25.6158 85.6734 25.5753 85.7585C25.5125 85.8942 25.4831 86.0715 25.4872 86.2903C10.987 74.7018 6.58317 55.3783 15.4942 38.8753L16.5701 37.064Z" fill="#E3CD52"/>
<path d="M86.284 57.0957C86.3083 57.7441 86.286 58.3965 86.2171 59.053C85.3743 67.0867 82.4282 74.2592 77.3791 80.5707C75.1179 83.2776 72.5416 85.6837 69.6503 87.7888C65.8411 90.3742 61.6298 92.298 57.0162 93.5603L55.448 93.767C56.1126 93.2402 56.8916 92.8755 57.7852 92.6729C58.9563 92.4054 59.6259 92.2433 59.7941 92.1866C63.9913 90.7308 68.155 88.6611 71.5316 85.6675C74.0633 83.4215 76.4764 81.1633 78.4428 78.346C79.7416 76.4839 80.6158 75.1274 81.0656 74.2764C83.8313 69.047 85.4188 63.47 85.8281 57.5455C85.8342 57.4422 85.8798 57.3632 85.9649 57.3084L86.284 57.0957Z" fill="#E3CD52"/>
<path d="M61.9853 1.45651C61.9752 1.62266 62.0026 1.76449 62.0674 1.882C62.116 1.9671 62.189 2.01573 62.2862 2.02789C62.6023 2.06132 62.7877 2.20112 62.8819 2.52328C64.0733 6.65663 64.9709 10.6633 65.5747 14.5434C65.599 14.6994 65.6314 14.8321 65.6719 14.9416C65.7084 15.0348 65.7297 15.131 65.7357 15.2303C65.7682 15.6862 65.8776 16.3963 66.064 17.3608C66.7367 20.8377 67.1591 24.7431 67.3313 29.077C67.3536 29.6382 67.5613 30.548 67.9544 31.8062C68.3353 37.0479 68.4599 42.3027 68.3282 47.5707C68.2553 50.4002 68.4832 53.5002 68.5075 55.804C68.5896 62.6635 66.064 68.7693 60.639 73.0394C60.3918 72.9158 60.1973 72.9341 60.0554 73.0941C59.4628 73.7658 58.0556 73.9816 57.004 74.6411C55.2747 75.7231 52.1656 76.3552 50.1445 76.3765C48.8559 76.3917 47.5733 76.7868 46.3333 76.5528C43.9688 76.106 40.2549 75.252 38.2915 73.7263C37.6654 73.24 37.2116 72.9371 36.93 72.8176C36.8205 72.6636 36.6848 72.6261 36.5227 72.7051C36.4295 72.7497 36.3444 72.7375 36.2674 72.6686L34.0913 70.7418C34.067 70.7195 34.066 70.6962 34.0883 70.6719C34.1085 70.6496 34.1318 70.6273 34.1582 70.605C34.2048 70.5645 34.2109 70.5189 34.1764 70.4682C33.4987 69.4957 32.6781 68.6082 32.1219 67.6387C28.8213 61.8885 28.2601 55.8151 30.4382 49.4185C30.4868 49.2747 30.581 49.1045 30.7208 48.908C30.9913 48.525 31.1372 47.9081 31.3317 47.5768C33.4136 43.9874 36.4528 40.9148 40.3278 39.3344C41.4037 38.8967 42.4674 38.3983 43.519 37.8391C47.0445 36.7571 50.7919 37.0519 54.8796 37.1674L66.2524 37.4197C66.2854 37.4206 66.3182 37.4146 66.3487 37.4021C66.3792 37.3897 66.4068 37.371 66.4297 37.3472C66.4526 37.3235 66.4702 37.2952 66.4816 37.2643C66.4929 37.2333 66.4977 37.2003 66.4955 37.1674L66.0336 29.5967C66.0275 29.4691 65.9606 29.4022 65.833 29.3961L57.0375 28.9949C51.6702 28.846 46.5704 28.3901 42.0389 29.9493C41.6175 29.9412 41.0927 30.0435 40.4646 30.2562C34.5077 32.2621 29.6844 35.665 25.9948 40.465C25.1925 40.9543 24.9615 42.0788 24.3506 42.2733C24.2583 42.3028 24.1795 42.3654 24.1287 42.4496C22.5544 45.0532 21.4005 47.8351 20.6671 50.7953C20.5799 51.1377 20.6822 51.4609 20.974 51.7648C17.8588 69.3832 31.6721 85.2206 49.4698 84.9714L50.5578 84.9866C50.5637 84.9873 50.5692 84.9898 50.5735 84.9939C50.5778 84.9979 50.5807 85.0032 50.5817 85.009C50.5827 85.0148 50.5819 85.0208 50.5792 85.0261C50.5765 85.0314 50.5722 85.0356 50.567 85.0383L50.4576 85.0747C50.4511 85.076 50.4454 85.0797 50.4417 85.0851C50.438 85.0905 50.4366 85.0972 50.4378 85.1036C50.439 85.1101 50.4427 85.1158 50.4481 85.1195C50.4536 85.1232 50.4602 85.1246 50.4667 85.1234C53.3864 85.0585 56.1845 84.4456 58.861 83.2846C60.8446 82.4235 62.1464 81.8056 62.7664 81.4307C64.8939 80.1451 68.1702 77.732 70.0636 75.3128C71.3644 73.6493 72.42 72.1104 73.2305 70.6962C75.0317 67.5475 76.1846 64.1628 76.6891 60.5421C76.7012 60.4574 76.7452 60.3805 76.8123 60.3269C76.8795 60.2733 76.9647 60.247 77.0508 60.2534C77.3669 60.2777 77.4783 60.5097 77.3851 60.9494C77.0326 62.6088 76.6263 64.2561 76.1664 65.8912C75.9962 66.496 75.6102 67.0309 75.3914 67.6448C74.5495 70.0184 73.2457 72.2006 71.7747 74.2338C71.1942 75.0362 70.4161 75.7808 69.7414 76.5832C67.4651 79.2759 64.5656 81.4003 61.4504 83.0293C61.3613 83.0759 61.2863 83.1377 61.2255 83.2147C61.106 83.3647 60.952 83.465 60.7636 83.5156C59.3838 83.9016 58.1589 84.552 56.7579 84.8894C56.1054 85.0454 55.4581 85.2389 54.8158 85.4698C54.7226 85.5043 54.6284 85.5094 54.5332 85.485C53.976 85.3513 53.6589 85.5397 53.5819 86.0503C49.2763 86.7453 45.1896 86.5559 41.3216 85.482C39.5852 84.8296 37.9066 84.1356 36.2856 83.4001C34.9362 82.7862 33.6891 82.0659 32.5443 81.2392C27.5205 77.6134 23.6394 73.1124 21.2232 67.2892C20.9558 66.6469 20.6974 65.7514 20.4482 64.6025C20.3044 63.94 19.9974 63.2592 19.5273 62.5602C18.7655 58.6801 18.7746 54.8051 19.5547 50.9351C19.8525 50.8561 20.0268 50.7143 20.0774 50.5096C20.8879 47.1645 22.2201 44.0472 24.074 41.1579C24.4023 40.6443 24.5968 40.0699 24.7913 39.5016C27.2733 36.2293 30.2973 33.5599 33.8634 31.4932C35.2513 31.2338 36.4508 30.6493 37.4618 29.7396C38.8335 29.1094 40.3491 28.5887 42.0085 28.1774C46.8074 26.9283 51.8252 27.1684 56.7275 27.3872L65.7236 27.8188C65.7494 27.8197 65.7751 27.8152 65.799 27.8055C65.8229 27.7957 65.8445 27.7811 65.8623 27.7624C65.8801 27.7437 65.8937 27.7215 65.9023 27.6971C65.9109 27.6728 65.9142 27.6469 65.912 27.6212L65.2008 19.8742C65.1966 19.8303 65.1768 19.7893 65.145 19.7587C65.1133 19.7281 65.0716 19.7098 65.0276 19.7071C61.7483 19.5065 58.475 19.008 55.22 19.1327C51.7614 19.007 49.3624 18.9787 48.0231 19.0476C35.1095 19.6979 23.682 26.2262 16.5702 37.0641L15.4943 38.8755C14.5461 38.9575 14.385 39.7994 14.0142 40.547C7.99044 52.6827 9.48574 68.359 17.7707 79.051C19.2356 80.9414 21.2486 83.0506 23.8096 85.3787C26.6331 87.9438 29.9792 89.7795 33.2738 91.3872C33.3811 91.4379 33.4814 91.4602 33.5746 91.4541C33.7367 91.4419 33.834 91.3943 33.8664 91.3112C40.8566 94.3261 48.0505 95.1447 55.448 93.7669L57.0162 93.5603C59.5104 93.2462 61.9246 92.5219 64.2587 91.3872C65.1735 90.9405 66.222 90.1776 67.2858 89.6701C68.2927 89.1919 69.0809 88.5648 69.6503 87.7888C72.5416 85.6836 75.1178 83.2775 77.379 80.5706C78.1024 80.216 78.848 79.4603 79.6159 78.3034C82.1324 74.5205 83.9448 70.838 85.0531 67.2558C86.3235 63.1467 86.909 59.1684 86.8097 55.3207C86.8097 55.2984 86.8037 55.2782 86.7915 55.2599C86.7753 55.2316 86.7591 55.2032 86.7429 55.1748C86.7133 55.1278 86.7015 55.0718 86.7094 55.0168C86.8736 53.6066 86.5301 52.09 86.6335 50.1692C86.6699 49.4966 86.6709 48.6831 86.6365 47.7287C86.5848 46.2547 86.7611 44.8962 86.5271 43.407C86.3225 42.0879 86.2272 40.7547 86.2414 39.4073C86.2434 39.3101 86.1989 39.2463 86.1077 39.2159L85.7095 39.0821C85.2678 34.1626 84.6721 29.2867 83.9225 24.4543C83.8414 21.6846 83.346 18.9098 82.4363 16.1299C81.8021 14.1949 81.017 12.3309 80.0809 10.5377C79.8742 10.1396 79.8469 9.69586 80.2177 9.4284C87.2646 14.1858 92.9682 20.2237 97.3285 27.5422L94.8546 25.8372C92.5448 24.0349 89.8125 23.6277 86.5848 22.5457C86.4856 22.5113 86.3964 22.5285 86.3174 22.5974C86.1897 22.7108 86.1138 22.8932 86.0894 23.1444C85.7997 23.0411 85.5809 23.0016 85.433 23.0259C85.2689 23.0502 85.2152 23.2022 85.2719 23.4818C85.7339 25.7389 86.1421 27.993 86.4967 30.2441C86.5129 30.3555 86.5767 30.4193 86.6882 30.4355L87.4115 30.5358C91.5844 31.1862 96.4623 31.9673 100.599 34.0887L101.377 35.9031C97.4805 33.8749 93.0989 32.6471 88.2321 32.2196C87.8492 32.0311 87.4024 31.945 86.8918 31.9612C86.8067 31.9633 86.7672 32.0068 86.7733 32.0919L87.4267 39.1004C87.4348 39.1997 87.4885 39.2544 87.5878 39.2645C91.5996 39.7305 95.584 40.385 99.5411 41.2278L101.118 41.6077C100.912 43.024 100.79 44.4687 100.754 45.9417C100.711 47.7348 100.64 49.1004 100.541 50.0385C100.369 51.6473 100.2 53.2561 100.033 54.8648C99.9483 55.7067 99.6444 56.4939 99.4894 57.36C98.6627 62.0222 97.0611 66.7695 95.3956 71.2007C95.3631 71.2858 95.3145 71.3526 95.2497 71.4013C95.1909 71.4479 95.1251 71.4823 95.0521 71.5046C94.9447 71.5391 94.8738 71.609 94.8394 71.7143L94.2285 73.6108C94.2225 73.6288 94.2132 73.6453 94.2011 73.6594C93.9985 73.8884 93.879 74.0728 93.8425 74.2126C93.5629 75.331 93.0979 76.3593 92.4475 77.2974C92.0403 77.8839 92.0099 78.4796 91.6604 79.0996C90.086 81.8937 88.4236 84.6199 86.673 87.2782C86.6304 87.343 86.5798 87.3977 86.521 87.4423C86.3346 87.5841 85.9881 88.0876 85.4816 88.9528C84.5881 90.4724 82.4667 92.454 81.1142 94.2684C80.9218 94.5257 80.634 94.8195 80.2511 95.1498C79.5733 95.7333 79.2086 96.5448 78.6525 97.0675C78.1236 97.5629 77.5371 97.9155 77.069 98.4595C76.0418 99.6509 74.8109 100.642 73.7745 101.845C73.4068 102.271 72.9752 102.404 72.5467 102.76C70.7474 104.255 68.778 105.447 66.9241 106.857C66.5138 107.173 66.301 107.632 65.9181 108.018C65.3254 108.62 64.3924 108.735 63.5931 108.972C63.5462 108.985 63.5048 109.013 63.4757 109.051C63.4465 109.09 63.4311 109.137 63.432 109.185L63.4442 110.088C23.3294 120.67 -13.8768 85.7191 -5.91706 45.039C0.219138 13.6772 31.2375 -5.60665 61.9853 1.45651ZM34.5411 6.8329C34.1643 7.21585 34.0761 7.55016 33.8847 8.04252C33.8482 8.13572 33.8624 8.2198 33.9272 8.29477C35.6352 10.2855 39.6106 9.27036 40.5132 6.89673C40.5569 6.78119 40.567 6.65562 40.5423 6.53458C40.5175 6.41355 40.459 6.30201 40.3734 6.2129C38.8264 4.59299 35.8662 5.47741 34.5411 6.8329ZM22.1107 12.884C21.0774 13.5445 20.0288 14.2506 18.9651 15.0023C5.00896 24.8525 -2.72284 40.1124 -2.10587 57.3449C-1.94175 60.686 -1.41597 64.0241 -0.528513 67.3591C-0.522615 67.3808 -0.512318 67.4011 -0.498286 67.4186C-0.484254 67.4361 -0.466798 67.4505 -0.447042 67.4608C-0.427286 67.4711 -0.405669 67.4771 -0.383582 67.4784C-0.361496 67.4798 -0.339428 67.4764 -0.318806 67.4685C-0.10606 67.3915 -0.0240016 67.2294 -0.072629 66.9822C-0.13544 66.654 -0.185078 66.3187 -0.221548 65.9763C-0.231679 65.883 -0.212434 65.7959 -0.163807 65.7149C0.550411 64.4992 0.121881 63.5145 0.155313 62.469C0.226228 60.1977 0.538256 57.5181 1.0914 54.4302C1.74382 50.7791 2.51679 47.6062 3.41033 44.9114C3.75376 43.8811 4.34641 42.635 4.74758 41.474C5.77484 38.5077 7.34004 35.7299 8.89917 33.0128C9.42192 32.1041 9.91123 30.7182 10.9263 29.7152C10.9903 29.6533 11.0382 29.5772 11.0661 29.4934C11.3245 28.7397 11.9779 28.0923 12.3061 27.5726C12.9109 26.6152 13.8045 25.7339 14.3789 24.971C16.0505 22.7524 17.2418 21.4516 18.725 19.7831C20.0744 18.2634 21.4056 17.1663 22.9222 15.9779C23.0073 15.9131 23.1005 15.8949 23.2018 15.9232C26.1316 16.7013 29.1222 15.5464 31.28 13.5466C32.7905 12.1455 34.0609 9.0637 31.0551 8.40114C28.104 7.75075 23.0741 9.81742 22.1107 12.884Z" fill="#013BBE"/>
<path d="M61.9853 1.45651C62.5527 1.54364 63.0126 1.70062 63.3651 1.92755C65.9829 11.6976 67.5127 21.6572 67.9544 31.8062C67.5613 30.548 67.3536 29.6382 67.3313 29.077C67.1591 24.7431 66.7367 20.8377 66.064 17.3608C65.8776 16.3963 65.7682 15.6862 65.7357 15.2303C65.7297 15.131 65.7084 15.0348 65.6719 14.9416C65.6314 14.8321 65.599 14.6994 65.5747 14.5434C64.9709 10.6633 64.0733 6.65663 62.8819 2.52328C62.7877 2.20112 62.6023 2.06132 62.2862 2.02789C62.189 2.01573 62.116 1.9671 62.0674 1.882C62.0026 1.76449 61.9752 1.62266 61.9853 1.45651Z" fill="#013BBE"/>
<path d="M69.3372 3.76023L70.4769 4.27386C72.1789 6.09739 72.9569 8.62907 73.5891 11.0726C74.1747 13.3318 74.8625 16.5827 75.6527 20.8255C77.6738 31.6664 78.0932 42.6745 78.2118 53.6765C78.2401 56.3287 78.1672 58.3518 77.993 59.7458C76.3457 72.9361 66.7265 83.5308 53.5819 86.0503C53.6589 85.5397 53.976 85.3513 54.5332 85.485C54.6284 85.5094 54.7226 85.5043 54.8158 85.4698C55.4581 85.2389 56.1054 85.0454 56.7579 84.8894C58.1589 84.552 59.3838 83.9016 60.7636 83.5156C60.952 83.465 61.106 83.3647 61.2255 83.2147C61.2863 83.1377 61.3613 83.0759 61.4504 83.0293C64.5656 81.4003 67.4651 79.2759 69.7414 76.5832C70.4161 75.7808 71.1942 75.0362 71.7747 74.2338C73.2457 72.2006 74.5495 70.0184 75.3914 67.6448C75.6102 67.0309 75.9962 66.496 76.1664 65.8912C76.6263 64.2561 77.0326 62.6088 77.3851 60.9494C77.4783 60.5097 77.3669 60.2777 77.0508 60.2534C76.9647 60.247 76.8795 60.2733 76.8123 60.3269C76.7452 60.3805 76.7012 60.4574 76.6891 60.5421C76.1846 64.1628 75.0317 67.5475 73.2305 70.6962C72.42 72.1104 71.3644 73.6493 70.0636 75.3128C68.1702 77.732 64.8939 80.1451 62.7664 81.4307C62.1464 81.8056 60.8446 82.4235 58.861 83.2846C56.1845 84.4456 53.3864 85.0585 50.4667 85.1234C50.4602 85.1246 50.4536 85.1232 50.4481 85.1195C50.4427 85.1158 50.439 85.1101 50.4378 85.1036C50.4366 85.0972 50.438 85.0905 50.4417 85.0851C50.4454 85.0797 50.4511 85.076 50.4576 85.0747L50.567 85.0383C50.5722 85.0356 50.5765 85.0314 50.5792 85.0261C50.5819 85.0208 50.5827 85.0148 50.5817 85.009C50.5807 85.0032 50.5778 84.9979 50.5735 84.9939C50.5692 84.9898 50.5637 84.9873 50.5578 84.9866L49.4698 84.9714C64.4988 84.1539 75.5099 72.5045 76.6314 57.6852C76.759 55.9772 76.7286 52.3291 76.5402 46.741C76.4126 43.0392 76.3416 41.014 76.3275 40.6656C75.9648 31.9166 74.9274 23.2417 73.2153 14.6407C72.5649 11.3705 71.6288 6.72043 69.3372 3.76023Z" fill="#013BBE"/>
<path d="M34.5411 6.8329C35.8662 5.47741 38.8264 4.59299 40.3734 6.2129C40.459 6.30201 40.5175 6.41355 40.5423 6.53458C40.567 6.65562 40.5569 6.78119 40.5132 6.89673C39.6106 9.27036 35.6352 10.2855 33.9272 8.29477C33.8624 8.2198 33.8482 8.13572 33.8847 8.04252C34.0761 7.55016 34.1643 7.21585 34.5411 6.8329Z" fill="#013BBE"/>
<path d="M77.5522 7.77199L80.2177 9.4284C79.8469 9.69586 79.8742 10.1396 80.0809 10.5377C81.017 12.3309 81.8021 14.1949 82.4363 16.1299C83.346 18.9098 83.8414 21.6846 83.9225 24.4543C82.8132 19.3758 81.3877 11.5042 77.5522 7.77199Z" fill="#013BBE"/>
<path d="M-2.10587 57.3449C-1.87692 57.5556 -1.69049 57.44 -1.54663 56.9983C-1.50205 56.8565 -1.47369 56.662 -1.46153 56.4148C-1.40075 55.0593 -0.884082 53.6491 -0.69565 52.558C-0.296498 50.2482 0.0621328 48.6972 0.380239 47.905C0.578802 47.4126 0.693276 46.9993 0.723668 46.665C0.731658 46.5651 0.762876 46.4683 0.814846 46.3823C1.33151 45.4888 1.24034 44.5527 1.55946 43.723C2.29495 41.8113 3.09123 39.9361 3.84192 38.0336C4.9178 35.2922 6.75045 32.3411 8.09379 29.9796C9.03393 28.3303 10.0278 26.7915 11.0753 25.363C13.7356 21.7423 16.5337 18.5298 19.4696 15.7257C20.1474 15.0783 20.5607 14.5008 21.3479 14.0358C21.4032 14.0041 21.4667 13.9893 21.5305 13.9934C21.5942 13.9974 21.6553 14.0202 21.7062 14.0587C21.757 14.0973 21.7954 14.15 21.8166 14.2102C21.8377 14.2705 21.8407 14.3356 21.825 14.3975C21.8027 14.4846 21.8341 14.5525 21.9192 14.6011C22.5727 14.9628 23.6698 13.58 24.0163 13.352C24.6302 12.9488 25.1287 12.574 25.5116 12.2275C26.0799 11.7169 26.9218 11.2975 27.3595 10.5894C27.3753 10.562 27.382 10.5302 27.3786 10.4988C27.3752 10.4673 27.3619 10.4378 27.3405 10.4144C27.3192 10.391 27.291 10.375 27.2599 10.3688C27.2289 10.3626 27.1967 10.3664 27.168 10.3797L22.1107 12.884C23.0741 9.81742 28.104 7.75075 31.0551 8.40114C34.0609 9.0637 32.7905 12.1455 31.28 13.5466C29.1222 15.5464 26.1316 16.7013 23.2018 15.9232C23.1005 15.8949 23.0073 15.9131 22.9222 15.9779C21.4056 17.1663 20.0744 18.2634 18.725 19.7831C17.2418 21.4516 16.0505 22.7524 14.3789 24.971C13.8045 25.7339 12.9109 26.6152 12.3061 27.5726C11.9779 28.0923 11.3245 28.7397 11.0661 29.4934C11.0382 29.5772 10.9903 29.6533 10.9263 29.7152C9.91123 30.7182 9.42192 32.1041 8.89917 33.0128C7.34004 35.7299 5.77484 38.5077 4.74758 41.474C4.34641 42.635 3.75376 43.8811 3.41033 44.9114C2.51679 47.6062 1.74382 50.7791 1.0914 54.4302C0.538256 57.5181 0.226228 60.1977 0.155313 62.469C0.121881 63.5145 0.550411 64.4992 -0.163807 65.7149C-0.212434 65.7959 -0.231679 65.883 -0.221548 65.9763C-0.185078 66.3187 -0.13544 66.654 -0.072629 66.9822C-0.0240016 67.2294 -0.10606 67.3915 -0.318806 67.4685C-0.339428 67.4764 -0.361496 67.4798 -0.383582 67.4784C-0.405669 67.4771 -0.427286 67.4711 -0.447042 67.4608C-0.466798 67.4505 -0.484254 67.4361 -0.498286 67.4186C-0.512318 67.4011 -0.522615 67.3808 -0.528513 67.3591C-1.41597 64.0241 -1.94175 60.686 -2.10587 57.3449ZM9.12713 31.7029C9.29429 31.3929 9.62556 31.0737 9.83223 30.703C10.3459 29.779 11.0844 28.9828 11.5767 28.0376C11.9212 27.373 12.2677 26.8249 12.6162 26.3933C13.5948 25.1746 14.3242 23.8161 15.5186 22.7888C16.0231 22.3542 16.2967 21.6886 16.8316 21.2175C17.7798 20.3909 18.6004 19.4487 19.4362 18.5126C19.8191 18.0811 20.3723 17.9139 20.7826 17.4063C21.3458 16.7114 22.0418 16.1896 22.8705 15.8411C22.9982 15.7864 22.9961 15.7358 22.8644 15.6892C21.8402 15.3275 20.6762 16.9201 20.0288 17.5036C17.4759 19.8104 14.9685 22.7463 13.0417 25.4816C12.4824 26.2778 11.7652 26.9981 11.2607 27.7367C9.3257 30.5753 7.64196 33.5568 6.20947 36.6811C6.17908 36.746 5.88022 37.3133 5.3129 38.3831C5.05355 38.8734 4.79421 39.461 4.53486 40.1458C3.34956 43.2854 2.00926 46.5009 1.29504 49.6647C0.358963 53.8163 -0.239766 58.0205 -0.50114 62.2775C-0.543689 62.9522 -0.929669 63.7029 -0.49506 64.566C-0.428197 64.6997 -0.382609 64.6926 -0.358296 64.5447C-0.0523472 62.6827 0.113797 60.8116 0.140137 58.9313C0.170529 56.6306 0.811809 54.3451 1.13093 52.0778C1.13701 52.0272 1.15321 51.9816 1.17955 51.9411C1.20589 51.8965 1.23527 51.8529 1.26769 51.8104C1.3305 51.7314 1.37102 51.6422 1.38926 51.5429C1.74181 49.6384 2.376 47.3447 3.29182 44.6621C4.3596 41.5317 5.3666 38.997 6.31281 37.058C6.88418 35.8869 7.82229 34.1018 9.12713 31.7029Z" fill="#013BBE"/>
<path d="M-2.10587 57.3449C-2.72284 40.1124 5.00896 24.8525 18.9651 15.0023C20.0288 14.2506 21.0774 13.5445 22.1107 12.884L27.168 10.3797C27.1967 10.3664 27.2289 10.3626 27.2599 10.3688C27.291 10.375 27.3192 10.391 27.3405 10.4144C27.3619 10.4378 27.3752 10.4673 27.3786 10.4988C27.382 10.5302 27.3753 10.562 27.3595 10.5894C26.9218 11.2975 26.0799 11.7169 25.5116 12.2275C25.1287 12.574 24.6302 12.9488 24.0163 13.352C23.6698 13.58 22.5727 14.9628 21.9192 14.6011C21.8341 14.5525 21.8027 14.4846 21.825 14.3975C21.8407 14.3356 21.8377 14.2705 21.8166 14.2102C21.7954 14.15 21.757 14.0973 21.7062 14.0587C21.6553 14.0202 21.5942 13.9974 21.5305 13.9934C21.4667 13.9893 21.4032 14.0041 21.3479 14.0358C20.5607 14.5008 20.1474 15.0783 19.4696 15.7257C16.5337 18.5298 13.7356 21.7423 11.0753 25.363C10.0278 26.7915 9.03393 28.3303 8.09379 29.9796C6.75045 32.3411 4.9178 35.2922 3.84192 38.0336C3.09123 39.9361 2.29495 41.8113 1.55946 43.723C1.24034 44.5527 1.33151 45.4888 0.814846 46.3823C0.762876 46.4683 0.731658 46.5651 0.723668 46.665C0.693276 46.9993 0.578802 47.4126 0.380239 47.905C0.0621328 48.6972 -0.296498 50.2482 -0.69565 52.558C-0.884082 53.6491 -1.40075 55.0593 -1.46153 56.4148C-1.47369 56.662 -1.50205 56.8565 -1.54663 56.9983C-1.69049 57.44 -1.87692 57.5556 -2.10587 57.3449Z" fill="#013BBE"/>
<path d="M9.12713 31.7029C7.82229 34.1018 6.88418 35.8869 6.31281 37.058C5.3666 38.997 4.3596 41.5317 3.29182 44.6621C2.376 47.3447 1.74181 49.6384 1.38926 51.5429C1.37102 51.6422 1.3305 51.7314 1.26769 51.8104C1.23527 51.8529 1.20589 51.8965 1.17955 51.9411C1.15321 51.9816 1.13701 52.0272 1.13093 52.0778C0.811809 54.3451 0.170529 56.6306 0.140137 58.9313C0.113797 60.8116 -0.0523472 62.6827 -0.358296 64.5447C-0.382609 64.6926 -0.428197 64.6997 -0.49506 64.566C-0.929669 63.7029 -0.543689 62.9522 -0.50114 62.2775C-0.239766 58.0205 0.358963 53.8163 1.29504 49.6647C2.00926 46.5009 3.34956 43.2854 4.53486 40.1458C4.79421 39.461 5.05355 38.8734 5.3129 38.3831C5.88022 37.3133 6.17908 36.746 6.20947 36.6811C7.64196 33.5568 9.3257 30.5753 11.2607 27.7367C11.7652 26.9981 12.4824 26.2778 13.0417 25.4816C14.9685 22.7463 17.4759 19.8104 20.0288 17.5036C20.6762 16.9201 21.8402 15.3275 22.8644 15.6892C22.9961 15.7358 22.9982 15.7864 22.8705 15.8411C22.0418 16.1896 21.3458 16.7114 20.7826 17.4063C20.3723 17.9139 19.8191 18.0811 19.4362 18.5126C18.6004 19.4487 17.7798 20.3909 16.8316 21.2175C16.2967 21.6886 16.0231 22.3542 15.5186 22.7888C14.3242 23.8161 13.5948 25.1746 12.6162 26.3933C12.2677 26.8249 11.9212 27.373 11.5767 28.0376C11.0844 28.9828 10.3459 29.779 9.83223 30.703C9.62556 31.0737 9.29429 31.3929 9.12713 31.7029Z" fill="#013BBE"/>
<path d="M94.8546 25.8372C91.9673 24.6559 89.0456 23.7584 86.0894 23.1444C86.1138 22.8932 86.1897 22.7108 86.3174 22.5974C86.3964 22.5285 86.4856 22.5113 86.5848 22.5457C89.8125 23.6277 92.5448 24.0349 94.8546 25.8372Z" fill="#013BBE"/>
<path d="M33.8634 31.4932C35.2513 31.2338 36.4508 30.6493 37.4618 29.7396L33.8634 31.4932Z" fill="#013BBE"/>
<path d="M43.519 37.8391C42.4674 38.3983 41.4037 38.8967 40.3278 39.3344C36.4528 40.9148 33.4136 43.9874 31.3317 47.5768C31.1372 47.9081 30.9913 48.525 30.7208 48.908C30.581 49.1045 30.4868 49.2747 30.4382 49.4185C28.2601 55.8151 28.8213 61.8885 32.1219 67.6387C32.6781 68.6082 33.4987 69.4957 34.1764 70.4682C34.2109 70.5189 34.2048 70.5645 34.1582 70.605C34.1318 70.6273 34.1085 70.6496 34.0883 70.6719C34.066 70.6962 34.067 70.7195 34.0913 70.7418L36.2674 72.6686C36.3444 72.7375 36.4295 72.7497 36.5227 72.7051C36.6848 72.6261 36.8205 72.6636 36.93 72.8176C37.2116 72.9371 37.6654 73.24 38.2915 73.7263C40.2549 75.252 43.9688 76.106 46.3333 76.5528C47.5733 76.7868 48.8559 76.3917 50.1445 76.3765C52.1656 76.3552 55.2747 75.7231 57.004 74.6411C58.0556 73.9816 59.4628 73.7658 60.0554 73.0941C60.1973 72.9341 60.3918 72.9158 60.639 73.0394C50.029 80.7955 34.3891 76.6652 29.8151 64.0615C28.6318 60.8055 28.2823 57.519 28.7666 54.2022C29.9498 46.0551 34.538 40.6645 42.5312 38.0305L43.519 37.8391Z" fill="#013BBE"/>
<path d="M15.4943 38.8755C6.58328 55.3785 10.9871 74.7019 25.4873 86.2904C28.0767 88.3004 30.8697 89.974 33.8664 91.3112C33.834 91.3943 33.7367 91.4419 33.5746 91.4541C33.4814 91.4602 33.3811 91.4379 33.2738 91.3872C29.9792 89.7795 26.6331 87.9438 23.8096 85.3787C21.2486 83.0506 19.2356 80.9414 17.7707 79.051C9.48574 68.359 7.99044 52.6827 14.0142 40.547C14.385 39.7994 14.5461 38.9575 15.4943 38.8755Z" fill="#013BBE"/>
<path d="M85.7095 39.0821L86.1077 39.2159C86.1989 39.2463 86.2434 39.3101 86.2414 39.4073C86.2272 40.7547 86.3225 42.0879 86.5271 43.407C86.7611 44.8962 86.5848 46.2547 86.6365 47.7287C86.6709 48.6831 86.6699 49.4966 86.6335 50.1692C86.5301 52.09 86.8736 53.6066 86.7094 55.0168C86.7015 55.0718 86.7133 55.1278 86.7429 55.1748C86.7591 55.2032 86.7753 55.2316 86.7915 55.2599C86.8037 55.2782 86.8097 55.2984 86.8097 55.3207C86.909 59.1684 86.3235 63.1467 85.0531 67.2558C83.9448 70.838 82.1324 74.5205 79.6159 78.3034C78.848 79.4603 78.1024 80.216 77.379 80.5706C82.4282 74.2591 85.3742 67.0866 86.217 59.0529C86.2859 58.3964 86.3082 57.744 86.2839 57.0956C86.521 53.5762 86.1897 49.9291 86.1775 46.4097L85.7095 39.0821Z" fill="#013BBE"/>
<path d="M24.7913 39.5016C24.5968 40.0699 24.4023 40.6443 24.074 41.1579C22.2201 44.0472 20.8879 47.1645 20.0774 50.5096C20.0268 50.7143 19.8525 50.8561 19.5547 50.9351C20.4239 46.739 22.1694 42.9278 24.7913 39.5016Z" fill="#013BBE"/>
<path d="M25.9948 40.465C23.4824 43.8892 21.8088 47.6558 20.974 51.7648C20.6822 51.4609 20.5799 51.1377 20.6671 50.7953C21.4005 47.8351 22.5544 45.0532 24.1287 42.4496C24.1795 42.3654 24.2583 42.3028 24.3506 42.2733C24.9615 42.0788 25.1925 40.9543 25.9948 40.465Z" fill="#013BBE"/>
<path d="M101.118 41.6077L101.541 41.7202C100.729 44.7381 101.243 47.7105 100.821 50.7831C100.593 52.4395 100.562 54.1324 100.167 55.7553C99.7234 57.5728 99.3556 59.5878 98.9028 61.1986C98.536 62.5014 98.1582 63.7991 97.7691 65.0918C97.5017 65.9732 97.2251 67.2254 96.7358 68.2678C96.4461 68.8878 96.2323 69.4146 96.0945 69.8482C95.6599 71.225 94.9761 72.1428 94.5871 73.3524C94.3824 73.9947 94.1596 74.5347 93.9184 74.9724C93.2285 76.2184 92.7757 77.5952 92.0858 78.7562C90.554 81.3426 89.1013 84.1447 87.4935 86.491C85.8665 88.8697 84.1575 91.1886 82.3663 93.4478C81.2236 94.8854 79.8559 96.171 78.54 97.4869C77.0234 99.0066 75.3761 101.055 73.7045 102.246C72.0431 103.432 70.411 104.659 68.8083 105.927C68.2339 106.383 67.0882 107.015 66.3922 107.811C66.299 107.917 66.3223 107.969 66.4621 107.969C66.9625 107.965 67.3657 107.796 67.6717 107.462C68.6533 106.389 69.7657 105.909 70.7352 105.009C71.8992 103.927 73.2943 103.204 74.3701 102.104C76.3608 100.07 78.5156 98.2893 80.3422 96.0919C81.8679 94.2562 83.0441 92.9767 84.4239 91.4298C85.0419 90.7348 85.671 89.8858 86.3113 88.8829C86.9211 87.9286 87.6505 86.8537 88.4995 85.6583C89.776 83.8621 90.8427 81.7042 92.0797 79.7439C92.955 78.352 93.2042 77.1636 93.8485 76.0148C94.0775 75.6096 94.196 75.3989 94.2041 75.3827C95.4016 72.8763 96.437 70.3142 97.3102 67.6964C98.1065 65.3015 98.5137 64.0524 98.532 63.9491C98.6009 63.5499 98.9737 62.2339 99.6504 60.0011C100.079 58.5879 100.073 56.8403 100.498 55.573C100.726 54.8891 100.623 54.2813 100.711 53.7555C101.25 50.5197 101.502 47.2597 101.468 43.9753C101.459 43.2398 101.778 42.559 101.848 41.787L103.313 42.1274L104.054 45.3764C103.149 46.431 103.267 47.1877 103.322 48.5098C103.323 48.5163 103.322 48.5229 103.318 48.5283C103.314 48.5337 103.309 48.5375 103.302 48.5387C103.296 48.5399 103.289 48.5385 103.284 48.5348C103.278 48.5311 103.274 48.5254 103.273 48.5189C103.263 48.4946 103.255 48.4703 103.249 48.446C103.229 48.3751 103.205 48.373 103.179 48.4399C102.857 49.221 102.945 50.1358 102.869 50.7345C101.793 59.3325 99.5349 67.4351 95.9821 75.3371C95.1432 77.2031 93.8637 79.2881 92.9216 81.3243C92.3654 82.5248 91.4172 83.6828 90.9339 84.7526C90.554 85.5914 89.9431 86.0959 89.5723 86.7311C88.4255 88.7005 87.143 90.5788 85.7247 92.3658C85.5322 92.6069 85.2678 92.8612 84.9314 93.1287C84.3084 93.6241 84.1321 94.1894 83.6124 94.8307C80.6978 98.4352 78.2026 100.736 75.2819 103.571C74.2759 104.55 72.8596 105.407 71.7655 106.495C71.5558 106.702 71.5467 106.948 71.65 107.203C69.0099 108.374 66.2747 109.336 63.4442 110.088L63.432 109.185C63.4311 109.137 63.4465 109.09 63.4757 109.051C63.5048 109.013 63.5462 108.985 63.5931 108.972C64.3924 108.735 65.3254 108.62 65.9181 108.018C66.301 107.632 66.5138 107.173 66.9241 106.857C68.778 105.447 70.7474 104.255 72.5467 102.76C72.9752 102.404 73.4068 102.271 73.7745 101.845C74.8109 100.642 76.0418 99.6509 77.069 98.4595C77.5371 97.9155 78.1236 97.5629 78.6525 97.0675C79.2086 96.5448 79.5733 95.7333 80.2511 95.1498C80.634 94.8195 80.9218 94.5257 81.1142 94.2684C82.4667 92.454 84.5881 90.4724 85.4816 88.9528C85.9881 88.0876 86.3346 87.5841 86.521 87.4423C86.5798 87.3977 86.6304 87.343 86.673 87.2782C88.4236 84.6199 90.086 81.8937 91.6604 79.0996C92.0099 78.4796 92.0403 77.8839 92.4475 77.2974C93.0979 76.3593 93.5629 75.331 93.8425 74.2126C93.879 74.0728 93.9985 73.8884 94.2011 73.6594C94.2132 73.6453 94.2225 73.6288 94.2285 73.6108L94.8394 71.7143C94.8738 71.609 94.9447 71.5391 95.0521 71.5046C95.1251 71.4823 95.1909 71.4479 95.2497 71.4013C95.3145 71.3526 95.3631 71.2858 95.3956 71.2007C97.0611 66.7695 98.6627 62.0222 99.4894 57.36C99.6444 56.4939 99.9483 55.7067 100.033 54.8648C100.2 53.2561 100.369 51.6473 100.541 50.0385C100.64 49.1004 100.711 47.7348 100.754 45.9417C100.79 44.4687 100.912 43.024 101.118 41.6077Z" fill="#013BBE"/>
<path d="M101.541 41.7202C101.778 41.7465 101.88 41.7688 101.848 41.787C101.778 42.559 101.459 43.2398 101.468 43.9753C101.502 47.2597 101.25 50.5197 100.711 53.7555C100.623 54.2813 100.726 54.8891 100.498 55.573C100.073 56.8403 100.079 58.5879 99.6504 60.0011C98.9737 62.2339 98.6009 63.5499 98.532 63.9491C98.5137 64.0524 98.1065 65.3015 97.3102 67.6964C96.437 70.3142 95.4016 72.8763 94.2041 75.3827C94.196 75.3989 94.0775 75.6096 93.8485 76.0148C93.2042 77.1636 92.955 78.352 92.0797 79.7439C90.8427 81.7042 89.776 83.8621 88.4995 85.6583C87.6505 86.8537 86.9211 87.9286 86.3113 88.8829C85.671 89.8858 85.0419 90.7348 84.4239 91.4298C83.0441 92.9767 81.8679 94.2562 80.3422 96.0919C78.5156 98.2893 76.3608 100.07 74.3701 102.104C73.2943 103.204 71.8992 103.927 70.7352 105.009C69.7657 105.909 68.6533 106.389 67.6717 107.462C67.3657 107.796 66.9625 107.965 66.4621 107.969C66.3223 107.969 66.299 107.917 66.3922 107.811C67.0882 107.015 68.2339 106.383 68.8083 105.927C70.411 104.659 72.0431 103.432 73.7045 102.246C75.3761 101.055 77.0234 99.0066 78.54 97.4869C79.8559 96.171 81.2236 94.8854 82.3663 93.4478C84.1575 91.1886 85.8665 88.8697 87.4935 86.491C89.1013 84.1447 90.554 81.3426 92.0858 78.7562C92.7757 77.5952 93.2285 76.2184 93.9184 74.9724C94.1596 74.5347 94.3824 73.9947 94.5871 73.3524C94.9761 72.1428 95.6599 71.225 96.0945 69.8482C96.2323 69.4146 96.4461 68.8878 96.7358 68.2678C97.2251 67.2254 97.5017 65.9732 97.7691 65.0918C98.1582 63.7991 98.536 62.5014 98.9028 61.1986C99.3556 59.5878 99.7234 57.5728 100.167 55.7553C100.562 54.1324 100.593 52.4395 100.821 50.7831C101.243 47.7105 100.729 44.7381 101.541 41.7202Z" fill="#013BBE"/>
<path d="M104.054 45.3764C108.814 71.4256 95.7328 96.3715 71.65 107.203C71.5467 106.948 71.5558 106.702 71.7655 106.495C72.8596 105.407 74.2759 104.55 75.2819 103.571C78.2026 100.736 80.6978 98.4352 83.6124 94.8307C84.1321 94.1894 84.3084 93.6241 84.9314 93.1287C85.2678 92.8612 85.5322 92.6069 85.7247 92.3658C87.143 90.5788 88.4255 88.7005 89.5723 86.7311C89.9431 86.0959 90.554 85.5914 90.9339 84.7526C91.4172 83.6828 92.3654 82.5248 92.9216 81.3243C93.8637 79.2881 95.1432 77.2031 95.9821 75.3371C99.5349 67.4351 101.793 59.3325 102.869 50.7345C102.945 50.1358 102.857 49.221 103.179 48.4399C103.205 48.373 103.229 48.3751 103.249 48.446C103.255 48.4703 103.263 48.4946 103.273 48.5189C103.274 48.5254 103.278 48.5311 103.284 48.5348C103.289 48.5385 103.296 48.5399 103.302 48.5387C103.309 48.5375 103.314 48.5337 103.318 48.5283C103.322 48.5229 103.323 48.5163 103.322 48.5098C103.267 47.1877 103.149 46.431 104.054 45.3764Z" fill="#013BBE"/>
<path d="M19.5273 62.5602C19.9974 63.2592 20.3044 63.94 20.4482 64.6025C20.6974 65.7514 20.9558 66.6469 21.2232 67.2892C23.6394 73.1124 27.5205 77.6134 32.5443 81.2392C33.6891 82.0659 34.9362 82.7862 36.2856 83.4001C37.9066 84.1356 39.5852 84.8296 41.3216 85.482C30.2011 82.6373 21.9891 73.6746 19.5273 62.5602Z" fill="#013BBE"/>
<path d="M69.6503 87.7888C69.0809 88.5648 68.2927 89.1919 67.2858 89.6701C66.222 90.1776 65.1735 90.9405 64.2587 91.3872C61.9246 92.5219 59.5104 93.2462 57.0162 93.5603C61.6297 92.298 65.8411 90.3741 69.6503 87.7888Z" fill="#013BBE"/>
</g>
<defs>
<clipPath id="clip0_74_4114">
<rect width="100" height="100" fill="white"/>
</clipPath>
</defs>
</svg>
