<svg width="100" height="100" viewBox="0 0 100 100" fill="none" xmlns="http://www.w3.org/2000/svg">
<rect width="100" height="100" fill="#FFFEF3"/>
<path d="M42.8492 46.3194C47.6792 39.5644 53.6842 31.6794 59.3792 25.0444C59.4359 24.9778 59.4809 24.9861 59.5142 25.0694C59.5409 25.1428 59.5392 25.1928 59.5092 25.2194C59.5026 25.2261 59.4976 25.2311 59.4942 25.2344C55.1642 31.7911 51.6742 38.7444 49.0242 46.0944C47.2192 51.1144 46.5342 56.3994 46.0092 61.7244C46.0096 61.7323 46.0083 61.7402 46.0056 61.7476C46.0029 61.755 45.9988 61.7618 45.9934 61.7676C45.9881 61.7734 45.9817 61.7781 45.9745 61.7814C45.9674 61.7847 45.9596 61.7866 45.9517 61.7869C45.9439 61.7873 45.936 61.786 45.9286 61.7833C45.9212 61.7806 45.9144 61.7765 45.9086 61.7711C45.9028 61.7658 45.8981 61.7594 45.8948 61.7522C45.8914 61.745 45.8896 61.7373 45.8892 61.7294C45.1026 58.0594 44.1759 54.4094 43.1092 50.7794C42.8026 49.7294 42.6659 48.3928 42.6992 46.7694C42.7024 46.6068 42.7548 46.4497 42.8492 46.3194Z" fill="#028A82"/>
<path d="M21.3589 69.9694C29.9639 71.4594 38.3489 71.4644 47.4039 71.2744C56.2405 71.0877 64.4405 69.0327 72.0039 65.1094C76.0189 63.0294 80.7839 59.0394 81.6389 54.2594C83.3539 44.6744 72.1789 38.5044 64.7789 36.3894C61.9989 35.5961 59.2889 34.8244 56.6489 34.0744C56.611 34.0608 56.5791 34.0342 56.559 33.9993C56.5389 33.9645 56.5318 33.9236 56.539 33.884C56.5462 33.8444 56.5672 33.8086 56.5983 33.783C56.6295 33.7575 56.6686 33.7438 56.7089 33.7444C64.9589 34.4194 73.8289 35.4694 81.8639 38.9344C88.8939 41.9644 95.6289 48.4444 93.0139 56.9444C89.5639 68.1894 69.6739 72.9744 59.7889 74.2094C42.3455 76.3827 25.4205 74.3994 9.01388 68.2594C7.95054 67.8627 7.05388 67.4477 6.32388 67.0144C5.86388 66.7411 5.89388 66.6694 6.41388 66.7994C11.3305 68.0427 16.3122 69.0994 21.3589 69.9694Z" fill="#028A82"/>
<path d="M38.909 63.5294C44.734 64.2794 49.949 65.0644 55.589 64.4844C57.9556 64.2411 60.299 64.0344 62.619 63.8644C62.66 63.8652 62.6994 63.8803 62.7304 63.9072C62.7614 63.9341 62.7819 63.971 62.7885 64.0115C62.795 64.052 62.7872 64.0935 62.7662 64.1287C62.7453 64.164 62.7126 64.1908 62.674 64.2044C52.404 66.8844 41.859 67.2244 31.449 65.4994C25.384 64.4944 9.96895 60.8344 8.43395 53.4394C7.70895 49.9494 10.754 46.6844 13.719 45.1294C21.959 40.8044 31.674 39.8794 41.064 40.0444C41.0756 40.0467 41.0862 40.0527 41.0942 40.0615C41.1021 40.0703 41.107 40.0814 41.1082 40.0932C41.1093 40.105 41.1066 40.1169 41.1004 40.127C41.0942 40.1371 41.085 40.145 41.074 40.1494C40.544 40.2928 39.979 40.4028 39.379 40.4794C33.044 41.2694 27.414 42.3344 22.014 45.9694C17.874 48.7594 17.709 53.5494 21.129 56.9394C25.194 60.9694 33.169 62.7894 38.909 63.5294Z" fill="#EDBE02"/>
</svg>
