<svg width="100" height="100" viewBox="0 0 100 100" fill="none" xmlns="http://www.w3.org/2000/svg">
<rect width="100" height="100" fill="#595C62"/>
<path d="M29.3741 40.8203H32.8311V51.6953C32.8311 53.1172 32.7061 54.2109 32.4561 54.9766C32.1202 55.9766 31.5108 56.7812 30.628 57.3906C29.7452 57.9922 28.5811 58.293 27.1358 58.293C25.4405 58.293 24.1358 57.8203 23.2217 56.875C22.3077 55.9219 21.8467 54.5273 21.8389 52.6914L25.1084 52.3164C25.1475 53.3008 25.292 53.9961 25.542 54.4023C25.917 55.0195 26.4873 55.3281 27.253 55.3281C28.0264 55.3281 28.5733 55.1094 28.8936 54.6719C29.2139 54.2266 29.3741 53.3086 29.3741 51.918V40.8203ZM39.3317 58L35.2302 40.8203H38.7809L41.3708 52.6211L44.5114 40.8203H48.6364L51.6481 52.8203L54.2848 40.8203H57.777L53.6052 58H49.9255L46.5036 45.1562L43.0934 58H39.3317ZM66.1175 40.8203H69.5745V51.6953C69.5745 53.1172 69.4495 54.2109 69.1995 54.9766C68.8636 55.9766 68.2542 56.7812 67.3714 57.3906C66.4886 57.9922 65.3245 58.293 63.8792 58.293C62.1839 58.293 60.8792 57.8203 59.9652 56.875C59.0511 55.9219 58.5902 54.5273 58.5823 52.6914L61.8519 52.3164C61.8909 53.3008 62.0355 53.9961 62.2855 54.4023C62.6605 55.0195 63.2308 55.3281 63.9964 55.3281C64.7698 55.3281 65.3167 55.1094 65.637 54.6719C65.9573 54.2266 66.1175 53.3086 66.1175 51.918V40.8203ZM73.5322 58V40.8203H77.0009V58H73.5322Z" fill="#F8F8F8"/>
</svg>
