<svg width="100" height="100" viewBox="0 0 100 100" fill="none" xmlns="http://www.w3.org/2000/svg">
<rect width="100" height="100" fill="#003A78"/>
<g clip-path="url(#clip0_74_4118)">
<path d="M49.5083 33.3442C49.513 33.4044 49.5608 33.4497 49.6151 33.4455C49.6695 33.4414 49.7098 33.3892 49.7052 33.3291C49.7005 33.269 49.6527 33.2236 49.5984 33.2278C49.544 33.232 49.5037 33.2841 49.5083 33.3442Z" fill="#F39200"/>
<path d="M50.9497 33.2996C50.9235 33.3544 50.9441 33.4188 50.9957 33.4435C51.0473 33.4682 51.1104 33.4439 51.1366 33.3892C51.1628 33.3344 51.1423 33.27 51.0907 33.2453C51.0391 33.2206 50.976 33.2449 50.9497 33.2996Z" fill="#F39200"/>
<path d="M47.826 33.3673C47.8263 33.4158 47.8609 33.4548 47.9032 33.4545C47.9455 33.4542 47.9795 33.4147 47.9791 33.3663C47.9788 33.3178 47.9442 33.2788 47.902 33.2791C47.8597 33.2794 47.8257 33.3189 47.826 33.3673Z" fill="#F39200"/>
<path d="M52.8079 33.5013C52.8628 33.5013 52.9073 33.4568 52.9073 33.4019C52.9073 33.347 52.8628 33.3025 52.8079 33.3025C52.753 33.3025 52.7085 33.347 52.7085 33.4019C52.7085 33.4568 52.753 33.5013 52.8079 33.5013Z" fill="#F39200"/>
<path d="M48.7309 34.4322C48.8252 34.4322 48.9017 34.3557 48.9017 34.2614C48.9017 34.167 48.8252 34.0906 48.7309 34.0906C48.6365 34.0906 48.5601 34.167 48.5601 34.2614C48.5601 34.3557 48.6365 34.4322 48.7309 34.4322Z" fill="#F39200"/>
<path d="M50.2223 34.2032C50.2123 34.2673 50.2487 34.3263 50.3037 34.3349C50.3587 34.3436 50.4115 34.2985 50.4215 34.2343C50.4316 34.1702 50.3951 34.1112 50.3401 34.1026C50.2851 34.094 50.2324 34.139 50.2223 34.2032Z" fill="#F39200"/>
<path d="M51.8325 34.2368C51.8245 34.3016 51.8644 34.3599 51.9216 34.3669C51.9788 34.3739 52.0316 34.327 52.0395 34.2622C52.0475 34.1973 52.0076 34.1391 51.9504 34.1321C51.8933 34.125 51.8405 34.1719 51.8325 34.2368Z" fill="#F39200"/>
<path d="M46.899 34.2698C46.9003 34.3328 46.9478 34.3829 47.005 34.3817C47.0622 34.3805 47.1075 34.3284 47.1061 34.2654C47.1048 34.2024 47.0574 34.1523 47.0002 34.1535C46.943 34.1547 46.8977 34.2068 46.899 34.2698Z" fill="#F39200"/>
<path d="M53.752 34.3687C53.813 34.3687 53.8626 34.3191 53.8626 34.2581C53.8626 34.197 53.813 34.1475 53.752 34.1475C53.6909 34.1475 53.6414 34.197 53.6414 34.2581C53.6414 34.3191 53.6909 34.3687 53.752 34.3687Z" fill="#F39200"/>
<path d="M55.4125 34.54C55.4724 34.54 55.521 34.4914 55.521 34.4315C55.521 34.3716 55.4724 34.323 55.4125 34.323C55.3525 34.323 55.304 34.3716 55.304 34.4315C55.304 34.4914 55.3525 34.54 55.4125 34.54Z" fill="#F39200"/>
<path d="M45.262 34.4621C45.2654 34.5097 45.3026 34.5458 45.3451 34.5428C45.3877 34.5398 45.4195 34.4989 45.4162 34.4513C45.4129 34.4038 45.3756 34.3676 45.3331 34.3706C45.2905 34.3736 45.2587 34.4146 45.262 34.4621Z" fill="#F39200"/>
<path d="M47.6845 35.2181C47.6804 35.3255 47.7541 35.4155 47.8491 35.4192C47.9442 35.4228 48.0245 35.3387 48.0287 35.2313C48.0328 35.1239 47.9591 35.0339 47.8641 35.0303C47.769 35.0266 47.6886 35.1107 47.6845 35.2181Z" fill="#F39200"/>
<path d="M52.8014 35.3785C52.8899 35.3785 52.9617 35.3067 52.9617 35.2182C52.9617 35.1296 52.8899 35.0579 52.8014 35.0579C52.7129 35.0579 52.6411 35.1296 52.6411 35.2182C52.6411 35.3067 52.7129 35.3785 52.8014 35.3785Z" fill="#F39200"/>
<path d="M51.1045 35.4114C51.1946 35.4114 51.2676 35.3384 51.2676 35.2483C51.2676 35.1582 51.1946 35.0852 51.1045 35.0852C51.0144 35.0852 50.9414 35.1582 50.9414 35.2483C50.9414 35.3384 51.0144 35.4114 51.1045 35.4114Z" fill="#F39200"/>
<path d="M54.5578 35.4388C54.649 35.4388 54.723 35.3648 54.723 35.2736C54.723 35.1824 54.649 35.1084 54.5578 35.1084C54.4665 35.1084 54.3926 35.1824 54.3926 35.2736C54.3926 35.3648 54.4665 35.4388 54.5578 35.4388Z" fill="#F39200"/>
<path d="M49.5696 35.4835C49.6709 35.4835 49.753 35.4014 49.753 35.3001C49.753 35.1988 49.6709 35.1167 49.5696 35.1167C49.4683 35.1167 49.3862 35.1988 49.3862 35.3001C49.3862 35.4014 49.4683 35.4835 49.5696 35.4835Z" fill="#F39200"/>
<path d="M46.1858 35.375C46.2469 35.375 46.2964 35.3255 46.2964 35.2644C46.2964 35.2033 46.2469 35.1538 46.1858 35.1538C46.1247 35.1538 46.0752 35.2033 46.0752 35.2644C46.0752 35.3255 46.1247 35.375 46.1858 35.375Z" fill="#F39200"/>
<path d="M56.2081 35.439C56.2677 35.439 56.3159 35.3907 56.3159 35.3312C56.3159 35.2717 56.2677 35.2234 56.2081 35.2234C56.1486 35.2234 56.1003 35.2717 56.1003 35.3312C56.1003 35.3907 56.1486 35.439 56.2081 35.439Z" fill="#F39200"/>
<path d="M57.9255 35.4425C57.9873 35.4425 58.0375 35.3924 58.0375 35.3305C58.0375 35.2686 57.9873 35.2185 57.9255 35.2185C57.8636 35.2185 57.8135 35.2686 57.8135 35.3305C57.8135 35.3924 57.8636 35.4425 57.9255 35.4425Z" fill="#F39200"/>
<path d="M42.813 35.4291C42.8648 35.4291 42.9068 35.3871 42.9068 35.3353C42.9068 35.2835 42.8648 35.2415 42.813 35.2415C42.7612 35.2415 42.7192 35.2835 42.7192 35.3353C42.7192 35.3871 42.7612 35.4291 42.813 35.4291Z" fill="#F39200"/>
<path d="M44.5258 35.4759C44.5764 35.4759 44.6175 35.4348 44.6175 35.3842C44.6175 35.3335 44.5764 35.2925 44.5258 35.2925C44.4751 35.2925 44.4341 35.3335 44.4341 35.3842C44.4341 35.4348 44.4751 35.4759 44.5258 35.4759Z" fill="#F39200"/>
<path d="M48.7672 36.5574C48.9053 36.5574 49.0171 36.4455 49.0171 36.3075C49.0171 36.1695 48.9053 36.0576 48.7672 36.0576C48.6292 36.0576 48.5173 36.1695 48.5173 36.3075C48.5173 36.4455 48.6292 36.5574 48.7672 36.5574Z" fill="#F39200"/>
<path d="M51.8984 36.5104C52.024 36.5104 52.1259 36.4086 52.1259 36.2829C52.1259 36.1573 52.024 36.0554 51.8984 36.0554C51.7728 36.0554 51.6709 36.1573 51.6709 36.2829C51.6709 36.4086 51.7728 36.5104 51.8984 36.5104Z" fill="#F39200"/>
<path d="M50.0941 36.3469C50.0992 36.4914 50.2116 36.6048 50.3453 36.6001C50.479 36.5954 50.5833 36.4745 50.5782 36.33C50.5732 36.1855 50.4607 36.0721 50.327 36.0768C50.1934 36.0815 50.0891 36.2024 50.0941 36.3469Z" fill="#F39200"/>
<path d="M55.3859 36.5988C55.5127 36.5988 55.6154 36.4961 55.6154 36.3692C55.6154 36.2424 55.5127 36.1396 55.3859 36.1396C55.259 36.1396 55.1562 36.2424 55.1562 36.3692C55.1562 36.4961 55.259 36.5988 55.3859 36.5988Z" fill="#F39200"/>
<path d="M57.1721 36.5503C57.2885 36.5503 57.3828 36.456 57.3828 36.3396C57.3828 36.2232 57.2885 36.1289 57.1721 36.1289C57.0558 36.1289 56.9614 36.2232 56.9614 36.3396C56.9614 36.456 57.0558 36.5503 57.1721 36.5503Z" fill="#F39200"/>
<path d="M43.548 36.5324C43.6516 36.5324 43.7356 36.4484 43.7356 36.3448C43.7356 36.2412 43.6516 36.1572 43.548 36.1572C43.4443 36.1572 43.3604 36.2412 43.3604 36.3448C43.3604 36.4484 43.4443 36.5324 43.548 36.5324Z" fill="#F39200"/>
<path d="M45.3402 36.5244C45.4438 36.5244 45.5278 36.4404 45.5278 36.3368C45.5278 36.2332 45.4438 36.1492 45.3402 36.1492C45.2366 36.1492 45.1526 36.2332 45.1526 36.3368C45.1526 36.4404 45.2366 36.5244 45.3402 36.5244Z" fill="#F39200"/>
<path d="M53.642 36.5916C53.7653 36.5916 53.8653 36.4916 53.8653 36.3683C53.8653 36.245 53.7653 36.145 53.642 36.145C53.5187 36.145 53.4187 36.245 53.4187 36.3683C53.4187 36.4916 53.5187 36.5916 53.642 36.5916Z" fill="#F39200"/>
<path d="M47.0483 36.586C47.1627 36.586 47.2555 36.4933 47.2555 36.3788C47.2555 36.2644 47.1627 36.1716 47.0483 36.1716C46.9338 36.1716 46.8411 36.2644 46.8411 36.3788C46.8411 36.4933 46.9338 36.586 47.0483 36.586Z" fill="#F39200"/>
<path d="M41.0449 36.2484C41.0524 36.2549 41.0581 36.2633 41.0613 36.2727C41.0645 36.282 41.0651 36.2921 41.0632 36.3019C41.0612 36.3116 41.0566 36.3206 41.05 36.328C41.0433 36.3353 41.0348 36.3408 41.0254 36.3438L40.9711 36.3605C40.962 36.3633 40.9524 36.3639 40.9432 36.3621C40.9339 36.3602 40.9252 36.3562 40.9178 36.3502C40.9105 36.3441 40.9048 36.3364 40.9012 36.3276C40.8976 36.3189 40.8963 36.3094 40.8973 36.3C40.908 36.1909 40.9572 36.1737 41.0449 36.2484Z" fill="#F39200"/>
<path d="M58.7666 36.5329C58.857 36.5329 58.9304 36.4596 58.9304 36.3691C58.9304 36.2787 58.857 36.2053 58.7666 36.2053C58.6761 36.2053 58.6028 36.2787 58.6028 36.3691C58.6028 36.4596 58.6761 36.5329 58.7666 36.5329Z" fill="#F39200"/>
<path d="M59.7743 36.4333C59.8369 36.4333 59.8877 36.3826 59.8877 36.3199C59.8877 36.2573 59.8369 36.2065 59.7743 36.2065C59.7117 36.2065 59.6609 36.2573 59.6609 36.3199C59.6609 36.3826 59.7117 36.4333 59.7743 36.4333Z" fill="#F39200"/>
<path d="M41.9528 36.5057C42.0236 36.5057 42.0809 36.4484 42.0809 36.3776C42.0809 36.3069 42.0236 36.2495 41.9528 36.2495C41.8821 36.2495 41.8247 36.3069 41.8247 36.3776C41.8247 36.4484 41.8821 36.5057 41.9528 36.5057Z" fill="#F39200"/>
<path d="M52.4307 37.3261C52.4152 37.523 52.5526 37.6945 52.7376 37.709C52.9226 37.7236 53.0851 37.5758 53.1006 37.3788C53.1161 37.1819 52.9787 37.0104 52.7937 36.9959C52.6087 36.9813 52.4462 37.1291 52.4307 37.3261Z" fill="#F39200"/>
<path d="M45.8505 37.3765C45.8451 37.584 45.9976 37.7563 46.1913 37.7614C46.3849 37.7665 46.5462 37.6023 46.5517 37.3948C46.5571 37.1873 46.4046 37.0149 46.2109 37.0099C46.0173 37.0048 45.856 37.1689 45.8505 37.3765Z" fill="#F39200"/>
<path d="M50.7694 37.4079C50.7731 37.6182 50.9362 37.7858 51.1337 37.7824C51.3312 37.7789 51.4883 37.6057 51.4847 37.3954C51.481 37.1851 51.3179 37.0174 51.1204 37.0209C50.9229 37.0243 50.7657 37.1976 50.7694 37.4079Z" fill="#F39200"/>
<path d="M54.5305 37.697C54.7138 37.697 54.8623 37.5485 54.8623 37.3652C54.8623 37.182 54.7138 37.0334 54.5305 37.0334C54.3473 37.0334 54.1987 37.182 54.1987 37.3652C54.1987 37.5485 54.3473 37.697 54.5305 37.697Z" fill="#F39200"/>
<path d="M47.8565 37.674C48.0243 37.674 48.1603 37.538 48.1603 37.3702C48.1603 37.2024 48.0243 37.0664 47.8565 37.0664C47.6888 37.0664 47.5527 37.2024 47.5527 37.3702C47.5527 37.538 47.6888 37.674 47.8565 37.674Z" fill="#F39200"/>
<path d="M44.5065 37.6515C44.6643 37.6515 44.7921 37.5237 44.7921 37.3659C44.7921 37.2082 44.6643 37.0803 44.5065 37.0803C44.3488 37.0803 44.2209 37.2082 44.2209 37.3659C44.2209 37.5237 44.3488 37.6515 44.5065 37.6515Z" fill="#F39200"/>
<path d="M57.9772 37.6055C58.121 37.6055 58.2376 37.4889 58.2376 37.3451C58.2376 37.2013 58.121 37.0847 57.9772 37.0847C57.8334 37.0847 57.7168 37.2013 57.7168 37.3451C57.7168 37.4889 57.8334 37.6055 57.9772 37.6055Z" fill="#F39200"/>
<path d="M42.7271 37.5802C42.8574 37.5802 42.963 37.4746 42.963 37.3443C42.963 37.214 42.8574 37.1084 42.7271 37.1084C42.5968 37.1084 42.4912 37.214 42.4912 37.3443C42.4912 37.4746 42.5968 37.5802 42.7271 37.5802Z" fill="#F39200"/>
<path d="M49.5527 37.7643C49.7309 37.7643 49.8754 37.6198 49.8754 37.4416C49.8754 37.2634 49.7309 37.1189 49.5527 37.1189C49.3745 37.1189 49.23 37.2634 49.23 37.4416C49.23 37.6198 49.3745 37.7643 49.5527 37.7643Z" fill="#F39200"/>
<path d="M56.211 37.7137C56.3792 37.7137 56.5155 37.5774 56.5155 37.4092C56.5155 37.2411 56.3792 37.1047 56.211 37.1047C56.0428 37.1047 55.9065 37.2411 55.9065 37.4092C55.9065 37.5774 56.0428 37.7137 56.211 37.7137Z" fill="#F39200"/>
<path d="M59.6753 37.6033C59.7913 37.6033 59.8853 37.5093 59.8853 37.3933C59.8853 37.2774 59.7913 37.1833 59.6753 37.1833C59.5594 37.1833 59.4653 37.2774 59.4653 37.3933C59.4653 37.5093 59.5594 37.6033 59.6753 37.6033Z" fill="#F39200"/>
<path d="M41.0748 37.5289C41.1586 37.5289 41.2267 37.4609 41.2267 37.377C41.2267 37.2931 41.1586 37.2251 41.0748 37.2251C40.9909 37.2251 40.9229 37.2931 40.9229 37.377C40.9229 37.4609 40.9909 37.5289 41.0748 37.5289Z" fill="#F39200"/>
<path d="M61.3596 37.5255C61.4388 37.5255 61.5031 37.4613 61.5031 37.382C61.5031 37.3028 61.4388 37.2385 61.3596 37.2385C61.2803 37.2385 61.2161 37.3028 61.2161 37.382C61.2161 37.4613 61.2803 37.5255 61.3596 37.5255Z" fill="#F39200"/>
<path d="M39.2481 37.399C39.2475 37.4721 39.2999 37.5318 39.3652 37.5324C39.4306 37.5329 39.484 37.4742 39.4847 37.4011C39.4853 37.328 39.4329 37.2683 39.3675 37.2678C39.3022 37.2672 39.2487 37.326 39.2481 37.399Z" fill="#F39200"/>
<path d="M53.2775 38.3456C53.2818 38.569 53.4545 38.7468 53.6632 38.7428C53.872 38.7388 54.0377 38.5545 54.0334 38.331C54.0291 38.1076 53.8564 37.9298 53.6477 37.9338C53.439 37.9378 53.2733 38.1221 53.2775 38.3456Z" fill="#F39200"/>
<path d="M46.6602 38.3419C46.6621 38.5576 46.8244 38.7311 47.0227 38.7294C47.221 38.7276 47.3803 38.5514 47.3784 38.3357C47.3765 38.1199 47.2142 37.9465 47.0159 37.9482C46.8176 37.9499 46.6584 38.1262 46.6602 38.3419Z" fill="#F39200"/>
<path d="M45.0045 38.3981C45.0134 38.6105 45.181 38.776 45.3787 38.7677C45.5765 38.7594 45.7296 38.5805 45.7207 38.3681C45.7118 38.1556 45.5443 37.9901 45.3465 37.9984C45.1487 38.0067 44.9956 38.1856 45.0045 38.3981Z" fill="#F39200"/>
<path d="M49.9491 38.414C49.9557 38.6362 50.1299 38.8113 50.3382 38.8051C50.5464 38.7989 50.7099 38.6138 50.7033 38.3916C50.6968 38.1694 50.5226 37.9943 50.3143 38.0005C50.106 38.0066 49.9425 38.1918 49.9491 38.414Z" fill="#F39200"/>
<path d="M55.381 38.7449C55.5859 38.7449 55.752 38.5788 55.752 38.3739C55.752 38.169 55.5859 38.0029 55.381 38.0029C55.1761 38.0029 55.01 38.169 55.01 38.3739C55.01 38.5788 55.1761 38.7449 55.381 38.7449Z" fill="#F39200"/>
<path d="M57.1141 38.7065C57.3109 38.7065 57.4704 38.547 57.4704 38.3502C57.4704 38.1534 57.3109 37.9939 57.1141 37.9939C56.9173 37.9939 56.7578 38.1534 56.7578 38.3502C56.7578 38.547 56.9173 38.7065 57.1141 38.7065Z" fill="#F39200"/>
<path d="M43.273 38.3925C43.2778 38.5888 43.4302 38.7443 43.6134 38.7398C43.7966 38.7354 43.9412 38.5726 43.9364 38.3762C43.9316 38.1799 43.7792 38.0244 43.596 38.0289C43.4128 38.0333 43.2682 38.1961 43.273 38.3925Z" fill="#F39200"/>
<path d="M51.909 38.7713C52.115 38.7713 52.2821 38.6043 52.2821 38.3982C52.2821 38.1922 52.115 38.0251 51.909 38.0251C51.7029 38.0251 51.5359 38.1922 51.5359 38.3982C51.5359 38.6043 51.7029 38.7713 51.909 38.7713Z" fill="#F39200"/>
<path d="M48.4127 38.4068C48.4049 38.6185 48.5612 38.7961 48.7617 38.8034C48.9622 38.8108 49.131 38.6451 49.1388 38.4334C49.1465 38.2217 48.9903 38.0441 48.7898 38.0367C48.5893 38.0294 48.4204 38.1951 48.4127 38.4068Z" fill="#F39200"/>
<path d="M41.931 38.6826C42.0721 38.6826 42.1865 38.5682 42.1865 38.4271C42.1865 38.286 42.0721 38.1716 41.931 38.1716C41.7899 38.1716 41.6755 38.286 41.6755 38.4271C41.6755 38.5682 41.7899 38.6826 41.931 38.6826Z" fill="#F39200"/>
<path d="M58.7865 38.7786C58.9566 38.7786 59.0945 38.6407 59.0945 38.4706C59.0945 38.3005 58.9566 38.1626 58.7865 38.1626C58.6164 38.1626 58.4785 38.3005 58.4785 38.4706C58.4785 38.6407 58.6164 38.7786 58.7865 38.7786Z" fill="#F39200"/>
<path d="M40.2686 38.6845C40.3985 38.6845 40.5038 38.5792 40.5038 38.4493C40.5038 38.3194 40.3985 38.2141 40.2686 38.2141C40.1388 38.2141 40.0334 38.3194 40.0334 38.4493C40.0334 38.5792 40.1388 38.6845 40.2686 38.6845Z" fill="#F39200"/>
<path d="M60.4664 38.6771C60.5939 38.6771 60.6974 38.5737 60.6974 38.4461C60.6974 38.3185 60.5939 38.2151 60.4664 38.2151C60.3388 38.2151 60.2354 38.3185 60.2354 38.4461C60.2354 38.5737 60.3388 38.6771 60.4664 38.6771Z" fill="#F39200"/>
<path d="M38.5326 38.5929C38.6297 38.5929 38.7083 38.5142 38.7083 38.4172C38.7083 38.3201 38.6297 38.2415 38.5326 38.2415C38.4356 38.2415 38.3569 38.3201 38.3569 38.4172C38.3569 38.5142 38.4356 38.5929 38.5326 38.5929Z" fill="#F39200"/>
<path d="M62.1675 38.5895C62.263 38.5895 62.3404 38.512 62.3404 38.4166C62.3404 38.3211 62.263 38.2437 62.1675 38.2437C62.072 38.2437 61.9946 38.3211 61.9946 38.4166C61.9946 38.512 62.072 38.5895 62.1675 38.5895Z" fill="#F39200"/>
<path d="M36.8584 38.641C36.9053 38.641 36.9433 38.603 36.9433 38.5561C36.9433 38.5092 36.9053 38.4712 36.8584 38.4712C36.8115 38.4712 36.7734 38.5092 36.7734 38.5561C36.7734 38.603 36.8115 38.641 36.8584 38.641Z" fill="#F39200"/>
<path d="M63.877 38.6959C63.9377 38.6959 63.9869 38.6467 63.9869 38.586C63.9869 38.5253 63.9377 38.4761 63.877 38.4761C63.8163 38.4761 63.7671 38.5253 63.7671 38.586C63.7671 38.6467 63.8163 38.6959 63.877 38.6959Z" fill="#F39200"/>
<path d="M50.6684 39.2605C50.6712 39.5237 50.8743 39.7351 51.1221 39.7325C51.3699 39.7299 51.5685 39.5143 51.5658 39.2511C51.563 38.9878 51.3599 38.7765 51.1121 38.7791C50.8643 38.7817 50.6657 38.9972 50.6684 39.2605Z" fill="#F39200"/>
<path d="M49.1748 39.2775C49.1673 39.5302 49.3523 39.7407 49.588 39.7477C49.8237 39.7547 50.0209 39.5555 50.0284 39.3028C50.0359 39.0501 49.8509 38.8395 49.6152 38.8325C49.3795 38.8256 49.1823 39.0248 49.1748 39.2775Z" fill="#F39200"/>
<path d="M47.4303 39.4452C47.4321 39.71 47.6326 39.9233 47.8781 39.9216C48.1236 39.9198 48.3211 39.7038 48.3193 39.439C48.3174 39.1741 48.1169 38.9609 47.8714 38.9626C47.6259 38.9643 47.4284 39.1804 47.4303 39.4452Z" fill="#F39200"/>
<path d="M44.0885 39.4726C44.0912 39.7254 44.2842 39.9283 44.5196 39.9259C44.755 39.9234 44.9437 39.7165 44.9411 39.4636C44.9384 39.2108 44.7454 39.0079 44.51 39.0103C44.2746 39.0128 44.0859 39.2197 44.0885 39.4726Z" fill="#F39200"/>
<path d="M45.7752 39.5261C45.7982 39.7891 46.0173 39.9848 46.2646 39.9632C46.5118 39.9415 46.6936 39.7108 46.6706 39.4477C46.6476 39.1847 46.4285 38.989 46.1812 39.0106C45.934 39.0322 45.7522 39.263 45.7752 39.5261Z" fill="#F39200"/>
<path d="M52.4289 39.4403C52.4242 39.6889 52.6099 39.894 52.8437 39.8985C53.0776 39.903 53.271 39.7051 53.2758 39.4566C53.2806 39.2081 53.0949 39.003 52.861 38.9985C52.6272 38.994 52.4337 39.1918 52.4289 39.4403Z" fill="#F39200"/>
<path d="M54.0852 39.462C54.0865 39.7164 54.2835 39.9216 54.5251 39.9203C54.7667 39.919 54.9615 39.7118 54.9602 39.4574C54.9588 39.203 54.7619 38.9979 54.5203 38.9991C54.2786 39.0004 54.0839 39.2076 54.0852 39.462Z" fill="#F39200"/>
<path d="M56.2172 39.9782C56.4855 39.9782 56.703 39.7607 56.703 39.4924C56.703 39.2241 56.4855 39.0066 56.2172 39.0066C55.9489 39.0066 55.7314 39.2241 55.7314 39.4924C55.7314 39.7607 55.9489 39.9782 56.2172 39.9782Z" fill="#F39200"/>
<path d="M42.4568 39.4056C42.4546 39.6135 42.6111 39.7838 42.8064 39.7858C43.0016 39.7879 43.1616 39.6209 43.1638 39.413C43.166 39.205 43.0095 39.0347 42.8142 39.0327C42.619 39.0306 42.459 39.1976 42.4568 39.4056Z" fill="#F39200"/>
<path d="M57.9393 39.814C58.1531 39.814 58.3264 39.6407 58.3264 39.4269C58.3264 39.2131 58.1531 39.0398 57.9393 39.0398C57.7256 39.0398 57.5522 39.2131 57.5522 39.4269C57.5522 39.6407 57.7256 39.814 57.9393 39.814Z" fill="#F39200"/>
<path d="M40.7043 39.4807C40.7123 39.6796 40.8691 39.8349 41.0545 39.8274C41.24 39.82 41.3838 39.6527 41.3758 39.4537C41.3678 39.2548 41.211 39.0995 41.0256 39.107C40.8402 39.1144 40.6963 39.2817 40.7043 39.4807Z" fill="#F39200"/>
<path d="M59.6894 39.7843C59.8765 39.7843 60.0282 39.6326 60.0282 39.4455C60.0282 39.2584 59.8765 39.1067 59.6894 39.1067C59.5023 39.1067 59.3506 39.2584 59.3506 39.4455C59.3506 39.6326 59.5023 39.7843 59.6894 39.7843Z" fill="#F39200"/>
<path d="M63.0291 39.5464C63.1423 39.5464 63.2342 39.4546 63.2342 39.3413C63.2342 39.2281 63.1423 39.1362 63.0291 39.1362C62.9158 39.1362 62.824 39.2281 62.824 39.3413C62.824 39.4546 62.9158 39.5464 63.0291 39.5464Z" fill="#F39200"/>
<path d="M37.7185 39.5631C37.8287 39.5631 37.918 39.4737 37.918 39.3636C37.918 39.2534 37.8287 39.1641 37.7185 39.1641C37.6084 39.1641 37.519 39.2534 37.519 39.3636C37.519 39.4737 37.6084 39.5631 37.7185 39.5631Z" fill="#F39200"/>
<path d="M61.3351 39.7989C61.5052 39.7989 61.6431 39.661 61.6431 39.4909C61.6431 39.3208 61.5052 39.1829 61.3351 39.1829C61.165 39.1829 61.0271 39.3208 61.0271 39.4909C61.0271 39.661 61.165 39.7989 61.3351 39.7989Z" fill="#F39200"/>
<path d="M39.1301 39.5205C39.1397 39.6768 39.2654 39.7963 39.4109 39.7874C39.5563 39.7785 39.6665 39.6446 39.657 39.4883C39.6474 39.332 39.5217 39.2125 39.3762 39.2214C39.2308 39.2303 39.1206 39.3642 39.1301 39.5205Z" fill="#F39200"/>
<path d="M36.0168 39.6528C36.0926 39.6528 36.154 39.5914 36.154 39.5156C36.154 39.4398 36.0926 39.3784 36.0168 39.3784C35.9411 39.3784 35.8796 39.4398 35.8796 39.5156C35.8796 39.5914 35.9411 39.6528 36.0168 39.6528Z" fill="#F39200"/>
<path d="M64.7316 39.667C64.8147 39.667 64.8821 39.5996 64.8821 39.5165C64.8821 39.4333 64.8147 39.366 64.7316 39.366C64.6484 39.366 64.5811 39.4333 64.5811 39.5165C64.5811 39.5996 64.6484 39.667 64.7316 39.667Z" fill="#F39200"/>
<path d="M44.9915 41.8018C45.1819 41.6674 45.3868 41.6425 45.6061 41.7269C45.6425 41.7409 45.6537 41.73 45.6397 41.694C45.1868 40.5271 47.1958 40.4137 46.885 41.6254C46.8794 41.6469 46.8876 41.6562 46.9095 41.6534L47.1867 41.6177C47.2096 41.6149 47.2192 41.6023 47.2154 41.5799C47.0579 40.6426 48.3081 40.5082 48.4873 41.1942C48.5013 41.247 48.5167 41.3746 48.5335 41.5771C48.5363 41.6093 48.552 41.618 48.5804 41.603C48.6812 41.5512 48.7851 41.5496 48.8919 41.5981C48.8975 41.6007 48.9036 41.6017 48.9096 41.6009C48.9157 41.6001 48.9214 41.5976 48.9261 41.5938C48.9307 41.5899 48.9342 41.5847 48.9361 41.5789C48.938 41.5732 48.9382 41.5669 48.9367 41.561C48.8882 41.366 48.9024 41.1779 48.9794 40.9968C48.9911 40.9684 48.9822 40.9586 48.9528 40.9674C48.6173 41.065 48.3744 40.9716 48.2241 40.6874C47.8951 40.0644 48.7442 39.3868 49.1957 40.0224C49.3577 40.2506 49.3579 40.5003 49.1964 40.7714C49.1754 40.806 49.1829 40.8139 49.2188 40.7952C49.3644 40.7178 49.521 40.6867 49.6885 40.7021C49.7128 40.7045 49.7354 40.7124 49.7564 40.7259L49.8474 40.7833C49.8513 40.7858 49.8559 40.7868 49.8604 40.7863C49.8649 40.7857 49.8691 40.7837 49.8723 40.7803C49.8755 40.777 49.8776 40.7727 49.8782 40.7681C49.8787 40.7634 49.8778 40.7587 49.8754 40.7546C49.4477 40.0777 50.3129 39.4022 50.7931 40.0273C50.949 40.2303 50.9644 40.4674 50.8393 40.7385C50.8263 40.7665 50.834 40.7747 50.8624 40.763C51.3909 40.5502 51.9362 40.9765 51.7577 41.5379C51.7507 41.5603 51.7589 41.5718 51.7822 41.5722L52.1098 41.5806C52.1355 41.5816 52.1502 41.5692 52.1539 41.5435C52.2092 41.1753 52.3051 40.8575 52.7027 40.7707C53.3103 40.6391 53.5168 41.1067 53.5322 41.6156C53.5332 41.6464 53.549 41.6625 53.5798 41.6639L53.8206 41.6744C53.8584 41.6758 53.8729 41.6583 53.864 41.6219C53.6134 40.5782 55.257 40.4914 55.0785 41.624C55.0757 41.6441 55.0844 41.6546 55.1044 41.6555L55.6791 41.6786C55.6983 41.6796 55.7062 41.6707 55.7029 41.652C55.6322 41.2733 55.8723 40.8008 56.3147 40.9569C57.1099 41.2376 56.8236 42.1868 56.0655 42.1098C56.0417 42.107 56.0326 42.1173 56.0382 42.1406L56.174 42.6929C56.1815 42.7228 56.2004 42.7361 56.2307 42.7328L56.4337 42.7118C56.458 42.7095 56.4694 42.6962 56.468 42.6719C56.4001 41.5547 57.9471 41.5428 57.9002 42.7293C57.8993 42.7522 57.8963 42.7748 57.8911 42.7972C57.8804 42.8467 57.8596 42.891 57.8288 42.9302C57.8134 42.9503 57.8179 42.9631 57.8421 42.9687L58.9677 43.2186C58.9839 43.2221 59.0008 43.2197 59.0153 43.2119C59.0299 43.204 59.041 43.1913 59.0468 43.1759C59.3527 42.3751 60.3824 42.737 60.3201 43.5889C60.3178 43.6169 60.3306 43.634 60.3586 43.64L60.6484 43.7016C60.6541 43.7028 60.66 43.7027 60.6656 43.7013C60.6712 43.6999 60.6764 43.6973 60.6809 43.6937C60.6853 43.6901 60.6888 43.6855 60.6912 43.6803C60.6936 43.6752 60.6948 43.6695 60.6946 43.6638C60.6834 42.5123 62.3697 42.7916 61.9686 44.0187C61.9672 44.0233 61.9667 44.028 61.967 44.0327C61.9674 44.0374 61.9687 44.042 61.9709 44.0462C61.973 44.0503 61.976 44.054 61.9796 44.057C61.9831 44.06 61.9873 44.0622 61.9917 44.0635L63.2153 44.4576C63.2345 44.4637 63.2466 44.4569 63.2517 44.4373C63.5282 43.3628 65.0094 44.0159 64.4802 44.8748C64.4763 44.8812 64.4739 44.8883 64.4731 44.8957C64.4723 44.903 64.4731 44.9105 64.4755 44.9175C64.4779 44.9245 64.4819 44.931 64.487 44.9363C64.4922 44.9416 64.4985 44.9457 64.5054 44.9483L65.939 45.5013C65.9619 45.5102 65.9838 45.5079 66.0048 45.4943C66.0422 45.4701 66.0692 45.4372 66.086 45.3956C66.092 45.381 66.1017 45.3684 66.114 45.3592C66.5522 45.0309 67.1332 45.3949 66.9526 45.9689C66.9424 46.0025 66.9536 46.0254 66.9862 46.0375L67.255 46.1383C67.2641 46.1419 67.274 46.1429 67.2836 46.1412C67.2933 46.1395 67.3023 46.1351 67.3096 46.1285C67.6204 45.8464 68.0572 46.1068 68.0656 46.4967C68.0656 46.514 68.0733 46.5264 68.0887 46.5338L68.4821 46.7256C68.4867 46.7278 68.4917 46.7291 68.4967 46.7292C68.5018 46.7294 68.5068 46.7286 68.5116 46.7267C68.5163 46.7249 68.5206 46.7221 68.5242 46.7186C68.5278 46.715 68.5306 46.7107 68.5325 46.706C68.6669 46.3612 68.9056 46.2926 69.2486 46.5002C69.4824 46.6416 69.4159 46.9356 69.3844 47.1645C69.383 47.1751 69.3847 47.1858 69.3895 47.1953C69.3942 47.2048 69.4017 47.2126 69.411 47.2177L69.656 47.3542C69.6775 47.3659 69.6999 47.3685 69.7232 47.3619C70.125 47.2495 70.3784 47.3881 70.4834 47.7777C70.4895 47.8001 70.5021 47.8179 70.5212 47.8309L72.0899 48.8851C72.0937 48.8877 72.0981 48.8892 72.1026 48.8896C72.1071 48.89 72.1117 48.8892 72.1159 48.8874C72.12 48.8856 72.1237 48.8828 72.1265 48.8792C72.1293 48.8757 72.1312 48.8714 72.1319 48.8669C72.1697 48.6602 72.2939 48.5862 72.5043 48.645C72.5253 48.651 72.5439 48.6632 72.5575 48.68C72.6905 48.8462 72.6812 49.0048 72.5295 49.156C72.5099 49.1752 72.5111 49.1927 72.533 49.2085L73.023 49.5648C73.0309 49.5706 73.0406 49.5736 73.0503 49.5732C73.0601 49.5728 73.0695 49.5691 73.0769 49.5627C73.2925 49.3828 73.5718 49.6411 73.5123 49.8854C73.5096 49.8959 73.5102 49.907 73.5139 49.9173C73.5177 49.9275 73.5244 49.9364 73.5333 49.9428C74.2427 50.4576 74.9149 51.0164 75.55 51.6193C75.7278 51.7883 75.7117 51.8095 75.5017 51.683C71.1813 49.0811 66.1623 47.4501 61.1818 46.5639C57.714 45.947 54.2201 45.6215 50.7 45.5874C50.2474 45.5828 49.7812 45.5907 49.3014 45.6112C46.0184 45.7517 42.8113 46.0714 39.6799 46.5702C34.4873 47.3976 29.4641 49.1063 24.9498 51.872C24.945 51.8751 24.939 51.8763 24.9333 51.8753C24.9275 51.8743 24.9224 51.8712 24.9188 51.8667C24.9153 51.8622 24.9136 51.8565 24.9142 51.8509C24.9147 51.8453 24.9175 51.8401 24.9218 51.8363C25.6288 51.151 26.375 50.4888 27.1835 49.9288C27.2013 49.9162 27.2087 49.8992 27.2059 49.8777C27.1604 49.5452 27.4789 49.4073 27.7589 49.4941C27.7851 49.5021 27.8093 49.4979 27.8317 49.4815L28.209 49.2015C28.231 49.1852 28.2324 49.1675 28.2132 49.1483C27.8226 48.75 28.4687 48.3223 28.6472 48.8466C28.6552 48.8695 28.6692 48.8744 28.6892 48.8613L30.2341 47.8554C30.2542 47.8428 30.2638 47.8246 30.2628 47.8008C30.2453 47.3584 30.6394 47.1666 31.009 47.3507C31.0314 47.3619 31.0536 47.3615 31.0755 47.3493L31.3716 47.1813C31.3992 47.1655 31.4008 47.1473 31.3765 47.1267C31.1987 46.9783 31.2568 46.6913 31.3681 46.538C31.6012 46.2188 32.0331 46.3735 32.1836 46.692C32.192 46.7093 32.2046 46.7137 32.2214 46.7053L32.6547 46.496C32.6757 46.4862 32.6879 46.4699 32.6911 46.447C32.7506 46.0291 33.1398 45.908 33.4849 46.1103C33.5055 46.1225 33.5265 46.1236 33.5479 46.1138L33.8146 45.9962C33.8389 45.986 33.8475 45.9682 33.8405 45.943C33.6781 45.3438 34.4383 45.0183 34.761 45.4971C34.7736 45.5158 34.7904 45.5209 34.8114 45.5125L36.2121 44.9434C36.2378 44.9332 36.2453 44.9154 36.2345 44.8902C35.8257 43.8962 37.0689 43.4265 37.4252 44.3848C37.4336 44.4068 37.449 44.4142 37.4714 44.4072L38.7587 43.9963C38.7825 43.9889 38.7914 43.973 38.7853 43.9487C38.4955 42.7405 40.0047 42.639 40.0831 43.6358C40.0855 43.6634 40.1004 43.6746 40.1279 43.6694L40.3281 43.6288C40.3552 43.6237 40.3685 43.6074 40.368 43.5798C40.3582 43.1185 40.6445 42.7622 41.1135 42.7762C41.3949 42.7846 41.6294 42.8595 41.7295 43.1458C41.7384 43.171 41.7561 43.1813 41.7827 43.1766L42.93 42.9638C42.9487 42.9606 42.9543 42.9501 42.9468 42.9323C42.4169 41.7045 44.3258 41.3062 44.3272 42.6824C44.3272 42.7109 44.3412 42.7223 44.3692 42.7167L44.6261 42.6656C44.6322 42.6645 44.638 42.662 44.6431 42.6584C44.6482 42.6548 44.6525 42.6502 44.6557 42.6448C44.6588 42.6395 44.6608 42.6335 44.6615 42.6273C44.6622 42.6211 44.6616 42.6149 44.6597 42.6089C44.5935 42.4036 44.6163 42.2113 44.7283 42.0321C44.7293 42.0304 44.7298 42.0283 44.7297 42.0263C44.7297 42.0242 44.729 42.0223 44.7279 42.0206C44.7268 42.019 44.7253 42.0177 44.7235 42.0171C44.7217 42.0164 44.7197 42.0163 44.7178 42.0167C44.379 42.0951 44.12 42.0174 43.9884 41.6814C43.7679 41.1186 44.4847 40.6244 44.8935 41.0801C45.0699 41.2771 45.0919 41.5083 44.9593 41.7738C44.9573 41.7783 44.9567 41.7834 44.9577 41.7882C44.9588 41.7931 44.9613 41.7974 44.965 41.8006C44.9687 41.8038 44.9733 41.8057 44.9781 41.8059C44.9829 41.8061 44.9876 41.8047 44.9915 41.8018ZM50.5019 41.4406C50.4312 41.2537 50.4515 41.1893 50.511 41.0353C50.5166 41.0204 50.5115 41.0129 50.4956 41.0129L50.168 41.0094C50.1641 41.0094 50.1602 41.0103 50.1567 41.0121C50.1532 41.0139 50.1502 41.0166 50.1479 41.0198C50.1457 41.0231 50.1443 41.0269 50.1439 41.0308C50.1435 41.0347 50.1441 41.0387 50.1456 41.0423C50.1988 41.1781 50.2198 41.3191 50.2086 41.4651C50.2084 41.4688 50.209 41.4724 50.2103 41.4757C50.2116 41.4791 50.2136 41.4822 50.2162 41.4847C50.2188 41.4872 50.2219 41.4891 50.2253 41.4904C50.2287 41.4916 50.2323 41.4921 50.2359 41.4917L50.4802 41.4742C50.4841 41.4739 50.4878 41.4727 50.4911 41.4708C50.4945 41.4688 50.4973 41.466 50.4994 41.4628C50.5015 41.4595 50.5028 41.4559 50.5032 41.452C50.5037 41.4482 50.5032 41.4443 50.5019 41.4406ZM45.7972 41.9313L45.8224 41.9565C45.8231 41.9576 45.8239 41.9584 45.8249 41.9591C45.8259 41.9598 45.827 41.9603 45.8282 41.9606C45.8293 41.9608 45.8305 41.9608 45.8317 41.9606C45.8329 41.9604 45.834 41.96 45.835 41.9593C45.836 41.9587 45.8369 41.9579 45.8376 41.9569C45.8383 41.9559 45.8388 41.9548 45.839 41.9536C45.8393 41.9525 45.8393 41.9512 45.8391 41.9501C45.8389 41.9489 45.8385 41.9478 45.8378 41.9467C45.8224 41.9085 45.7993 41.8758 45.7685 41.8487C45.7475 41.8305 45.738 41.8352 45.7398 41.8627C45.7426 41.8987 45.7599 41.9204 45.7916 41.9278C45.794 41.9288 45.7958 41.9299 45.7972 41.9313ZM46.3285 42.4619L46.3957 42.1413C46.3999 42.1199 46.3913 42.1117 46.3698 42.1168C46.2322 42.1495 46.1001 42.1343 45.9736 42.0713C45.97 42.0694 45.966 42.0687 45.9619 42.0691C45.9579 42.0696 45.9541 42.0712 45.951 42.0739C45.9479 42.0765 45.9456 42.08 45.9446 42.0839C45.9435 42.0878 45.9436 42.092 45.9449 42.0958L46.0828 42.4857C46.0922 42.5128 46.1111 42.5249 46.1395 42.5221L46.276 42.5088C46.3054 42.506 46.3229 42.4904 46.3285 42.4619ZM54.6508 42.4101L54.6851 42.2239C54.6864 42.2174 54.6861 42.2106 54.6844 42.2041C54.6827 42.1977 54.6795 42.1917 54.6752 42.1865C54.6708 42.1814 54.6654 42.1772 54.6593 42.1744C54.6531 42.1715 54.6464 42.1701 54.6396 42.17H54.4324C54.4266 42.1701 54.4209 42.1714 54.4157 42.174C54.4105 42.1766 54.4059 42.1803 54.4024 42.1849C54.3988 42.1895 54.3963 42.1948 54.3951 42.2005C54.3939 42.2061 54.394 42.212 54.3953 42.2176L54.4471 42.4409C54.4537 42.468 54.4695 42.4867 54.4947 42.4969C54.5405 42.5165 54.5874 42.4983 54.6354 42.4423C54.6437 42.4332 54.649 42.422 54.6508 42.4101ZM28.6178 48.9096L28.2846 49.1434C28.2822 49.1451 28.2806 49.1477 28.2801 49.1506C28.2796 49.1535 28.2802 49.1564 28.2818 49.1588L28.2881 49.1679C28.2963 49.1798 28.3087 49.1885 28.3247 49.1935C28.3407 49.1986 28.3599 49.1999 28.3813 49.1973C28.4027 49.1948 28.4259 49.1885 28.4494 49.1788C28.4729 49.169 28.4964 49.1561 28.5184 49.1406L28.5352 49.128C28.5796 49.097 28.6155 49.0578 28.6352 49.0191C28.6549 48.9804 28.6567 48.9453 28.6402 48.9215L28.6339 48.9124C28.6331 48.9112 28.632 48.9101 28.6307 48.9092C28.6294 48.9084 28.628 48.9078 28.6265 48.9076C28.625 48.9073 28.6234 48.9073 28.6219 48.9077C28.6205 48.9081 28.6191 48.9087 28.6178 48.9096Z" fill="#F39200"/>
<path d="M51.9564 40.9794C52.2904 40.9794 52.5612 40.7086 52.5612 40.3746C52.5612 40.0406 52.2904 39.7698 51.9564 39.7698C51.6223 39.7698 51.3516 40.0406 51.3516 40.3746C51.3516 40.7086 51.6223 40.9794 51.9564 40.9794Z" fill="#F39200"/>
<path d="M53.1433 40.488C53.1604 40.7677 53.3904 40.9813 53.657 40.965C53.9237 40.9487 54.126 40.7087 54.1089 40.4289C54.0918 40.1492 53.8617 39.9356 53.5951 39.9519C53.3284 39.9682 53.1262 40.2082 53.1433 40.488Z" fill="#F39200"/>
<path d="M46.5732 40.4847C46.5645 40.7799 46.777 41.0258 47.0479 41.0338C47.3187 41.0419 47.5454 40.809 47.5542 40.5138C47.563 40.2186 47.3505 39.9727 47.0796 39.9647C46.8087 39.9567 46.582 40.1895 46.5732 40.4847Z" fill="#F39200"/>
<path d="M55.4223 41.0821C55.7234 41.0821 55.9676 40.8379 55.9676 40.5368C55.9676 40.2356 55.7234 39.9915 55.4223 39.9915C55.1211 39.9915 54.877 40.2356 54.877 40.5368C54.877 40.8379 55.1211 41.0821 55.4223 41.0821Z" fill="#F39200"/>
<path d="M44.8333 40.5294C44.8363 40.81 45.0514 41.0353 45.3139 41.0326C45.5764 41.0298 45.7868 40.8001 45.7839 40.5194C45.7809 40.2387 45.5658 40.0135 45.3033 40.0162C45.0408 40.019 44.8304 40.2487 44.8333 40.5294Z" fill="#F39200"/>
<path d="M56.6157 40.5053C56.6153 40.7755 56.8208 40.9949 57.0748 40.9954C57.3288 40.9958 57.5351 40.7771 57.5355 40.5069C57.536 40.2366 57.3305 40.0172 57.0765 40.0168C56.8225 40.0163 56.6162 40.235 56.6157 40.5053Z" fill="#F39200"/>
<path d="M41.5119 40.5146C41.5141 40.7752 41.7137 40.9847 41.9577 40.9826C42.2016 40.9804 42.3975 40.7675 42.3952 40.5069C42.393 40.2464 42.1934 40.0369 41.9494 40.039C41.7055 40.0411 41.5096 40.2541 41.5119 40.5146Z" fill="#F39200"/>
<path d="M43.2037 40.506C43.2 40.7719 43.4007 40.9904 43.652 40.9939C43.9032 40.9974 44.1099 40.7846 44.1136 40.5187C44.1174 40.2527 43.9167 40.0343 43.6654 40.0308C43.4141 40.0272 43.2074 40.24 43.2037 40.506Z" fill="#F39200"/>
<path d="M58.7662 40.8842C58.9865 40.8842 59.1652 40.7055 59.1652 40.4852C59.1652 40.2648 58.9865 40.0862 58.7662 40.0862C58.5458 40.0862 58.3672 40.2648 58.3672 40.4852C58.3672 40.7055 58.5458 40.8842 58.7662 40.8842Z" fill="#F39200"/>
<path d="M39.8955 40.4851C39.8966 40.6969 40.0602 40.8678 40.2608 40.8667C40.4615 40.8657 40.6232 40.6931 40.6221 40.4813C40.621 40.2694 40.4575 40.0985 40.2568 40.0996C40.0562 40.1006 39.8944 40.2732 39.8955 40.4851Z" fill="#F39200"/>
<path d="M60.4867 40.8687C60.6947 40.8687 60.8633 40.7001 60.8633 40.4921C60.8633 40.2841 60.6947 40.1155 60.4867 40.1155C60.2787 40.1155 60.1101 40.2841 60.1101 40.4921C60.1101 40.7001 60.2787 40.8687 60.4867 40.8687Z" fill="#F39200"/>
<path d="M62.1624 40.8106C62.3453 40.8106 62.4935 40.6624 62.4935 40.4795C62.4935 40.2967 62.3453 40.1484 62.1624 40.1484C61.9795 40.1484 61.8313 40.2967 61.8313 40.4795C61.8313 40.6624 61.9795 40.8106 62.1624 40.8106Z" fill="#F39200"/>
<path d="M38.5906 40.7979C38.7619 40.7979 38.9007 40.6591 38.9007 40.4878C38.9007 40.3166 38.7619 40.1777 38.5906 40.1777C38.4194 40.1777 38.2805 40.3166 38.2805 40.4878C38.2805 40.6591 38.4194 40.7979 38.5906 40.7979Z" fill="#F39200"/>
<path d="M36.8652 40.7828C37.0117 40.7828 37.1305 40.664 37.1305 40.5175C37.1305 40.371 37.0117 40.2522 36.8652 40.2522C36.7186 40.2522 36.5999 40.371 36.5999 40.5175C36.5999 40.664 36.7186 40.7828 36.8652 40.7828Z" fill="#F39200"/>
<path d="M63.883 40.7811C64.0295 40.7811 64.1483 40.6623 64.1483 40.5158C64.1483 40.3693 64.0295 40.2505 63.883 40.2505C63.7365 40.2505 63.6177 40.3693 63.6177 40.5158C63.6177 40.6623 63.7365 40.7811 63.883 40.7811Z" fill="#F39200"/>
<path d="M65.6184 40.6533C65.7116 40.6533 65.7871 40.5778 65.7871 40.4846C65.7871 40.3914 65.7116 40.3159 65.6184 40.3159C65.5252 40.3159 65.4497 40.3914 65.4497 40.4846C65.4497 40.5778 65.5252 40.6533 65.6184 40.6533Z" fill="#F39200"/>
<path d="M35.1174 40.6251C35.1939 40.6251 35.256 40.563 35.256 40.4865C35.256 40.41 35.1939 40.3479 35.1174 40.3479C35.0408 40.3479 34.9788 40.41 34.9788 40.4865C34.9788 40.563 35.0408 40.6251 35.1174 40.6251Z" fill="#F39200"/>
<path d="M42.2817 41.4442C42.2807 41.7411 42.5071 41.9826 42.7873 41.9836C43.0676 41.9846 43.2957 41.7447 43.2967 41.4478C43.2977 41.1508 43.0714 40.9094 42.7911 40.9084C42.5108 40.9074 42.2827 41.1473 42.2817 41.4442Z" fill="#F39200"/>
<path d="M57.5014 41.4469C57.5044 41.7353 57.7253 41.9668 57.9947 41.964C58.2642 41.9612 58.4802 41.7251 58.4771 41.4367C58.4741 41.1483 58.2533 40.9168 57.9838 40.9197C57.7144 40.9225 57.4984 41.1586 57.5014 41.4469Z" fill="#F39200"/>
<path d="M40.6748 41.5155C40.6808 41.7613 40.8749 41.956 41.1084 41.9503C41.3418 41.9446 41.5262 41.7407 41.5202 41.4949C41.5141 41.2491 41.32 41.0544 41.0866 41.0601C40.8532 41.0658 40.6688 41.2697 40.6748 41.5155Z" fill="#F39200"/>
<path d="M59.634 41.967C59.8818 41.967 60.0827 41.7661 60.0827 41.5183C60.0827 41.2705 59.8818 41.0696 59.634 41.0696C59.3862 41.0696 59.1853 41.2705 59.1853 41.5183C59.1853 41.7661 59.3862 41.967 59.634 41.967Z" fill="#F39200"/>
<path d="M61.3261 42.0167C61.5747 42.0167 61.7762 41.8151 61.7762 41.5666C61.7762 41.318 61.5747 41.1165 61.3261 41.1165C61.0775 41.1165 60.876 41.318 60.876 41.5666C60.876 41.8151 61.0775 42.0167 61.3261 42.0167Z" fill="#F39200"/>
<path d="M38.9919 41.6022C38.989 41.8411 39.1709 42.037 39.3982 42.0398C39.6255 42.0426 39.8121 41.8512 39.815 41.6123C39.8179 41.3734 39.636 41.1774 39.4087 41.1747C39.1814 41.1719 38.9948 41.3633 38.9919 41.6022Z" fill="#F39200"/>
<path d="M63.0305 41.9565C63.2404 41.9565 63.4106 41.7863 63.4106 41.5764C63.4106 41.3665 63.2404 41.1963 63.0305 41.1963C62.8206 41.1963 62.6504 41.3665 62.6504 41.5764C62.6504 41.7863 62.8206 41.9565 63.0305 41.9565Z" fill="#F39200"/>
<path d="M37.3713 41.5787C37.3664 41.7805 37.514 41.9477 37.7011 41.9523C37.8881 41.9569 38.0438 41.797 38.0487 41.5953C38.0536 41.3935 37.906 41.2263 37.7189 41.2217C37.5319 41.2171 37.3762 41.377 37.3713 41.5787Z" fill="#F39200"/>
<path d="M64.737 41.8797C64.8982 41.8797 65.0289 41.749 65.0289 41.5878C65.0289 41.4266 64.8982 41.2959 64.737 41.2959C64.5758 41.2959 64.4451 41.4266 64.4451 41.5878C64.4451 41.749 64.5758 41.8797 64.737 41.8797Z" fill="#F39200"/>
<path d="M36.0093 41.8577C36.1547 41.8577 36.2725 41.7399 36.2725 41.5945C36.2725 41.4491 36.1547 41.3313 36.0093 41.3313C35.8639 41.3313 35.7461 41.4491 35.7461 41.5945C35.7461 41.7399 35.8639 41.8577 36.0093 41.8577Z" fill="#F39200"/>
<path d="M34.3016 41.7824C34.4114 41.7824 34.5004 41.6934 34.5004 41.5836C34.5004 41.4738 34.4114 41.3848 34.3016 41.3848C34.1918 41.3848 34.1028 41.4738 34.1028 41.5836C34.1028 41.6934 34.1918 41.7824 34.3016 41.7824Z" fill="#F39200"/>
<path d="M66.4592 41.8219C66.579 41.8219 66.6762 41.7248 66.6762 41.6049C66.6762 41.4851 66.579 41.3879 66.4592 41.3879C66.3393 41.3879 66.2422 41.4851 66.2422 41.6049C66.2422 41.7248 66.3393 41.8219 66.4592 41.8219Z" fill="#F39200"/>
<path d="M67.9061 41.8605C67.9811 41.8605 68.0419 41.7997 68.0419 41.7247C68.0419 41.6497 67.9811 41.5889 67.9061 41.5889C67.8311 41.5889 67.7703 41.6497 67.7703 41.7247C67.7703 41.7997 67.8311 41.8605 67.9061 41.8605Z" fill="#F39200"/>
<path d="M32.8219 41.8629C32.8753 41.8629 32.9185 41.8196 32.9185 41.7663C32.9185 41.7129 32.8753 41.6697 32.8219 41.6697C32.7686 41.6697 32.7253 41.7129 32.7253 41.7663C32.7253 41.8196 32.7686 41.8629 32.8219 41.8629Z" fill="#F39200"/>
<path d="M58.1265 42.3777C58.1057 42.7092 58.344 42.9939 58.6589 43.0137C58.9737 43.0335 59.2458 42.7809 59.2667 42.4495C59.2875 42.118 59.0492 41.8333 58.7344 41.8135C58.4195 41.7937 58.1474 42.0463 58.1265 42.3777Z" fill="#F39200"/>
<path d="M41.4945 42.4549C41.4888 42.7831 41.7336 43.0535 42.0413 43.0588C42.349 43.0642 42.603 42.8025 42.6088 42.4743C42.6145 42.1462 42.3697 41.8758 42.062 41.8704C41.7543 41.865 41.5003 42.1267 41.4945 42.4549Z" fill="#F39200"/>
<path d="M60.5307 42.9552C60.8351 42.936 61.0669 42.6815 61.0484 42.3867C61.0298 42.092 60.768 41.8685 60.4636 41.8877C60.1591 41.9068 59.9274 42.1613 59.9459 42.4561C59.9645 42.7509 60.2263 42.9743 60.5307 42.9552Z" fill="#F39200"/>
<path d="M39.7206 42.457C39.7153 42.7628 39.9416 43.0147 40.226 43.0196C40.5105 43.0246 40.7455 42.7808 40.7508 42.475C40.7562 42.1692 40.5299 41.9174 40.2454 41.9124C39.9609 41.9074 39.7259 42.1513 39.7206 42.457Z" fill="#F39200"/>
<path d="M38.0635 42.6062C38.0828 42.8513 38.2859 43.0352 38.5171 43.017C38.7484 42.9988 38.9202 42.7854 38.9009 42.5403C38.8816 42.2951 38.6785 42.1112 38.4473 42.1294C38.216 42.1476 38.0442 42.361 38.0635 42.6062Z" fill="#F39200"/>
<path d="M62.2443 43.0074C62.4867 43.0074 62.6832 42.8109 62.6832 42.5685C62.6832 42.3261 62.4867 42.1296 62.2443 42.1296C62.0019 42.1296 61.8054 42.3261 61.8054 42.5685C61.8054 42.8109 62.0019 43.0074 62.2443 43.0074Z" fill="#F39200"/>
<path d="M63.9104 43.0595C64.1435 43.0595 64.3325 42.8706 64.3325 42.6374C64.3325 42.4043 64.1435 42.2153 63.9104 42.2153C63.6773 42.2153 63.4883 42.4043 63.4883 42.6374C63.4883 42.8706 63.6773 43.0595 63.9104 43.0595Z" fill="#F39200"/>
<path d="M36.4894 42.625C36.4891 42.8372 36.6499 43.0096 36.8486 43.0099C37.0473 43.0103 37.2087 42.8385 37.209 42.6262C37.2094 42.414 37.0486 42.2417 36.8499 42.2413C36.6512 42.241 36.4898 42.4127 36.4894 42.625Z" fill="#F39200"/>
<path d="M34.8906 42.6617C34.8782 42.8336 34.9989 42.9824 35.1601 42.994C35.3213 43.0055 35.4619 42.8755 35.4743 42.7035C35.4866 42.5315 35.3659 42.3827 35.2047 42.3712C35.0435 42.3596 34.9029 42.4897 34.8906 42.6617Z" fill="#F39200"/>
<path d="M67.3062 42.8924C67.4512 42.8924 67.5687 42.7749 67.5687 42.6299C67.5687 42.485 67.4512 42.3674 67.3062 42.3674C67.1612 42.3674 67.0437 42.485 67.0437 42.6299C67.0437 42.7749 67.1612 42.8924 67.3062 42.8924Z" fill="#F39200"/>
<path d="M33.4487 42.8954C33.589 42.8954 33.7028 42.7816 33.7028 42.6413C33.7028 42.501 33.589 42.3872 33.4487 42.3872C33.3083 42.3872 33.1946 42.501 33.1946 42.6413C33.1946 42.7816 33.3083 42.8954 33.4487 42.8954Z" fill="#F39200"/>
<path d="M65.5511 42.9638C65.7131 42.9638 65.8444 42.8325 65.8444 42.6705C65.8444 42.5085 65.7131 42.3772 65.5511 42.3772C65.3891 42.3772 65.2578 42.5085 65.2578 42.6705C65.2578 42.8325 65.3891 42.9638 65.5511 42.9638Z" fill="#F39200"/>
<path d="M31.9024 42.7671C31.9866 42.7671 32.055 42.6988 32.055 42.6145C32.055 42.5302 31.9866 42.4619 31.9024 42.4619C31.8181 42.4619 31.7498 42.5302 31.7498 42.6145C31.7498 42.6988 31.8181 42.7671 31.9024 42.7671Z" fill="#F39200"/>
<path d="M68.828 42.8329C68.9347 42.8329 69.0212 42.7464 69.0212 42.6397C69.0212 42.533 68.9347 42.4465 68.828 42.4465C68.7213 42.4465 68.6348 42.533 68.6348 42.6397C68.6348 42.7464 68.7213 42.8329 68.828 42.8329Z" fill="#F39200"/>
<path d="M37.2721 43.5583C37.266 43.8753 37.5027 44.1368 37.8007 44.1426C38.0987 44.1483 38.3452 43.896 38.3513 43.579C38.3574 43.2621 38.1207 43.0005 37.8227 42.9948C37.5247 42.989 37.2782 43.2413 37.2721 43.5583Z" fill="#F39200"/>
<path d="M62.9198 44.1209C63.2353 44.1209 63.491 43.8652 63.491 43.5497C63.491 43.2343 63.2353 42.9785 62.9198 42.9785C62.6044 42.9785 62.3486 43.2343 62.3486 43.5497C62.3486 43.8652 62.6044 44.1209 62.9198 44.1209Z" fill="#F39200"/>
<path d="M35.5241 43.6176C35.5299 43.8712 35.726 44.0724 35.9621 44.067C36.1983 44.0617 36.3851 43.8518 36.3793 43.5982C36.3736 43.3447 36.1775 43.1435 35.9413 43.1489C35.7052 43.1542 35.5184 43.3641 35.5241 43.6176Z" fill="#F39200"/>
<path d="M64.7707 44.0158C65.0042 44.0158 65.1935 43.8265 65.1935 43.593C65.1935 43.3595 65.0042 43.1702 64.7707 43.1702C64.5372 43.1702 64.3479 43.3595 64.3479 43.593C64.3479 43.8265 64.5372 44.0158 64.7707 44.0158Z" fill="#F39200"/>
<path d="M66.4631 43.9809C66.6351 43.9809 66.7746 43.8414 66.7746 43.6694C66.7746 43.4974 66.6351 43.3579 66.4631 43.3579C66.2911 43.3579 66.1516 43.4974 66.1516 43.6694C66.1516 43.8414 66.2911 43.9809 66.4631 43.9809Z" fill="#F39200"/>
<path d="M34.0204 43.6768C34.021 43.843 34.1481 43.9773 34.3043 43.9768C34.4604 43.9762 34.5866 43.841 34.586 43.6748C34.5854 43.5085 34.4583 43.3742 34.3022 43.3748C34.146 43.3753 34.0198 43.5105 34.0204 43.6768Z" fill="#F39200"/>
<path d="M68.1166 43.9689C68.2833 43.9689 68.4183 43.8338 68.4183 43.6672C68.4183 43.5006 68.2833 43.3655 68.1166 43.3655C67.95 43.3655 67.8149 43.5006 67.8149 43.6672C67.8149 43.8338 67.95 43.9689 68.1166 43.9689Z" fill="#F39200"/>
<path d="M32.6114 43.9174C32.7533 43.9174 32.8683 43.8023 32.8683 43.6605C32.8683 43.5186 32.7533 43.4036 32.6114 43.4036C32.4695 43.4036 32.3545 43.5186 32.3545 43.6605C32.3545 43.8023 32.4695 43.9174 32.6114 43.9174Z" fill="#F39200"/>
<path d="M31.0736 43.8599C31.171 43.8599 31.25 43.7809 31.25 43.6835C31.25 43.5861 31.171 43.5071 31.0736 43.5071C30.9762 43.5071 30.8972 43.5861 30.8972 43.6835C30.8972 43.7809 30.9762 43.8599 31.0736 43.8599Z" fill="#F39200"/>
<path d="M69.6629 43.8815C69.77 43.8815 69.8568 43.7946 69.8568 43.6876C69.8568 43.5805 69.77 43.4937 69.6629 43.4937C69.5558 43.4937 69.469 43.5805 69.469 43.6876C69.469 43.7946 69.5558 43.8815 69.6629 43.8815Z" fill="#F39200"/>
<path d="M34.6561 44.6966C34.6542 44.9641 34.8558 45.1824 35.1063 45.1841C35.3568 45.1859 35.5614 44.9704 35.5633 44.7029C35.5651 44.4354 35.3636 44.2171 35.1131 44.2153C34.8626 44.2136 34.658 44.429 34.6561 44.6966Z" fill="#F39200"/>
<path d="M65.6023 45.2073C65.8671 45.2073 66.0818 44.9926 66.0818 44.7278C66.0818 44.463 65.8671 44.2483 65.6023 44.2483C65.3375 44.2483 65.1228 44.463 65.1228 44.7278C65.1228 44.9926 65.3375 45.2073 65.6023 45.2073Z" fill="#F39200"/>
<path d="M67.3354 45.0226C67.5136 45.0226 67.6581 44.8781 67.6581 44.6999C67.6581 44.5217 67.5136 44.3772 67.3354 44.3772C67.1572 44.3772 67.0127 44.5217 67.0127 44.6999C67.0127 44.8781 67.1572 45.0226 67.3354 45.0226Z" fill="#F39200"/>
<path d="M33.3967 45.0373C33.5715 45.0373 33.7131 44.8957 33.7131 44.7209C33.7131 44.5462 33.5715 44.4045 33.3967 44.4045C33.222 44.4045 33.0803 44.5462 33.0803 44.7209C33.0803 44.8957 33.222 45.0373 33.3967 45.0373Z" fill="#F39200"/>
<path d="M68.9525 45.036C69.1196 45.036 69.2549 44.9006 69.2549 44.7336C69.2549 44.5665 69.1196 44.4312 68.9525 44.4312C68.7855 44.4312 68.6501 44.5665 68.6501 44.7336C68.6501 44.9006 68.7855 45.036 68.9525 45.036Z" fill="#F39200"/>
<path d="M31.8239 44.9756C31.965 44.9756 32.0794 44.8612 32.0794 44.7201C32.0794 44.579 31.965 44.4646 31.8239 44.4646C31.6828 44.4646 31.5684 44.579 31.5684 44.7201C31.5684 44.8612 31.6828 44.9756 31.8239 44.9756Z" fill="#F39200"/>
<path d="M30.2245 44.9358C30.3397 44.9358 30.4331 44.8424 30.4331 44.7272C30.4331 44.6119 30.3397 44.5186 30.2245 44.5186C30.1093 44.5186 30.0159 44.6119 30.0159 44.7272C30.0159 44.8424 30.1093 44.9358 30.2245 44.9358Z" fill="#F39200"/>
<path d="M70.5374 44.9371C70.6418 44.9371 70.7264 44.8525 70.7264 44.7481C70.7264 44.6437 70.6418 44.5591 70.5374 44.5591C70.433 44.5591 70.3484 44.6437 70.3484 44.7481C70.3484 44.8525 70.433 44.9371 70.5374 44.9371Z" fill="#F39200"/>
<path d="M32.1979 45.6506C32.2048 45.8585 32.367 46.0218 32.5602 46.0154C32.7534 46.009 32.9044 45.8352 32.8975 45.6274C32.8906 45.4195 32.7284 45.2562 32.5352 45.2626C32.342 45.269 32.191 45.4427 32.1979 45.6506Z" fill="#F39200"/>
<path d="M68.1858 46.0073C68.3779 46.0073 68.5337 45.8516 68.5337 45.6594C68.5337 45.4673 68.3779 45.3115 68.1858 45.3115C67.9936 45.3115 67.8379 45.4673 67.8379 45.6594C67.8379 45.8516 67.9936 46.0073 68.1858 46.0073Z" fill="#F39200"/>
<path d="M30.9244 46.0739C31.0837 46.0739 31.2128 45.9447 31.2128 45.7855C31.2128 45.6262 31.0837 45.4971 30.9244 45.4971C30.7651 45.4971 30.636 45.6262 30.636 45.7855C30.636 45.9447 30.7651 46.0739 30.9244 46.0739Z" fill="#F39200"/>
<path d="M69.8245 46.0692C69.978 46.0692 70.1024 45.9448 70.1024 45.7913C70.1024 45.6378 69.978 45.5134 69.8245 45.5134C69.6711 45.5134 69.5466 45.6378 69.5466 45.7913C69.5466 45.9448 69.6711 46.0692 69.8245 46.0692Z" fill="#F39200"/>
<path d="M29.3897 45.9963C29.4964 45.9963 29.5829 45.9098 29.5829 45.8031C29.5829 45.6964 29.4964 45.6099 29.3897 45.6099C29.283 45.6099 29.1965 45.6964 29.1965 45.8031C29.1965 45.9098 29.283 45.9963 29.3897 45.9963Z" fill="#F39200"/>
<path d="M71.4024 45.9892C71.5091 45.9892 71.5956 45.9027 71.5956 45.796C71.5956 45.6893 71.5091 45.6028 71.4024 45.6028C71.2957 45.6028 71.2092 45.6893 71.2092 45.796C71.2092 45.9027 71.2957 45.9892 71.4024 45.9892Z" fill="#F39200"/>
<path d="M30.0473 47.1226C30.2058 47.1226 30.3343 46.9941 30.3343 46.8356C30.3343 46.6771 30.2058 46.5486 30.0473 46.5486C29.8887 46.5486 29.7603 46.6771 29.7603 46.8356C29.7603 46.9941 29.8887 47.1226 30.0473 47.1226Z" fill="#F39200"/>
<path d="M70.6704 47.0867C70.8131 47.0867 70.9287 46.971 70.9287 46.8284C70.9287 46.6857 70.8131 46.5701 70.6704 46.5701C70.5278 46.5701 70.4121 46.6857 70.4121 46.8284C70.4121 46.971 70.5278 47.0867 70.6704 47.0867Z" fill="#F39200"/>
<path d="M28.5078 46.9943C28.6129 46.9943 28.6982 46.9091 28.6982 46.8039C28.6982 46.6988 28.6129 46.6135 28.5078 46.6135C28.4026 46.6135 28.3174 46.6988 28.3174 46.8039C28.3174 46.9091 28.4026 46.9943 28.5078 46.9943Z" fill="#F39200"/>
<path d="M72.2256 47.0355C72.3327 47.0355 72.4195 46.9487 72.4195 46.8416C72.4195 46.7345 72.3327 46.6477 72.2256 46.6477C72.1186 46.6477 72.0317 46.7345 72.0317 46.8416C72.0317 46.9487 72.1186 47.0355 72.2256 47.0355Z" fill="#F39200"/>
<path d="M29.2234 48.1594C29.3807 48.1594 29.5083 48.0318 29.5083 47.8745C29.5083 47.7172 29.3807 47.5896 29.2234 47.5896C29.066 47.5896 28.9385 47.7172 28.9385 47.8745C28.9385 48.0318 29.066 48.1594 29.2234 48.1594Z" fill="#F39200"/>
<path d="M71.4955 48.1424C71.6478 48.1424 71.7713 48.0189 71.7713 47.8666C71.7713 47.7143 71.6478 47.5908 71.4955 47.5908C71.3432 47.5908 71.2197 47.7143 71.2197 47.8666C71.2197 48.0189 71.3432 48.1424 71.4955 48.1424Z" fill="#F39200"/>
<path d="M73.0789 48.0416C73.186 48.0416 73.2728 47.9548 73.2728 47.8477C73.2728 47.7406 73.186 47.6538 73.0789 47.6538C72.9718 47.6538 72.885 47.7406 72.885 47.8477C72.885 47.9548 72.9718 48.0416 73.0789 48.0416Z" fill="#F39200"/>
<path d="M27.6551 48.0211C27.7475 48.0211 27.8224 47.9462 27.8224 47.8538C27.8224 47.7614 27.7475 47.6865 27.6551 47.6865C27.5627 47.6865 27.4878 47.7614 27.4878 47.8538C27.4878 47.9462 27.5627 48.0211 27.6551 48.0211Z" fill="#F39200"/>
<path d="M73.8456 49.1357C73.955 49.1357 74.0437 49.047 74.0437 48.9376C74.0437 48.8282 73.955 48.7395 73.8456 48.7395C73.7362 48.7395 73.6475 48.8282 73.6475 48.9376C73.6475 49.047 73.7362 49.1357 73.8456 49.1357Z" fill="#F39200"/>
<path d="M26.8924 49.06C26.9698 49.06 27.0324 48.9973 27.0324 48.92C27.0324 48.8427 26.9698 48.78 26.8924 48.78C26.8151 48.78 26.7524 48.8427 26.7524 48.92C26.7524 48.9973 26.8151 49.06 26.8924 49.06Z" fill="#F39200"/>
<path d="M26.0558 50.008C26.1215 50.008 26.1748 49.9547 26.1748 49.889C26.1748 49.8233 26.1215 49.77 26.0558 49.77C25.99 49.77 25.9368 49.8233 25.9368 49.889C25.9368 49.9547 25.99 50.008 26.0558 50.008Z" fill="#F39200"/>
<path d="M74.6617 50.0639C74.7394 50.0639 74.8024 50.0009 74.8024 49.9232C74.8024 49.8455 74.7394 49.7825 74.6617 49.7825C74.584 49.7825 74.521 49.8455 74.521 49.9232C74.521 50.0009 74.584 50.0639 74.6617 50.0639Z" fill="#F39200"/>
<path d="M75.3939 51.1105C75.4542 51.1105 75.5031 51.0616 75.5031 51.0013C75.5031 50.941 75.4542 50.8921 75.3939 50.8921C75.3336 50.8921 75.2847 50.941 75.2847 51.0013C75.2847 51.0616 75.3336 51.1105 75.3939 51.1105Z" fill="#F39200"/>
<path d="M25.2239 51.0433C25.2426 51.0954 25.2954 51.124 25.342 51.1074C25.3886 51.0907 25.4113 51.035 25.3926 50.9829C25.374 50.9309 25.3211 50.9022 25.2745 50.9189C25.2279 50.9356 25.2053 50.9913 25.2239 51.0433Z" fill="#F39200"/>
<path d="M54.1641 55.4175H55.9043C55.9098 55.4175 55.9152 55.4188 55.9202 55.4211C55.9252 55.4234 55.9296 55.4268 55.9331 55.431C55.9366 55.4352 55.9392 55.4401 55.9406 55.4454C55.9421 55.4507 55.9423 55.4562 55.9414 55.4616L55.6894 57.0044C55.6848 57.0315 55.6687 57.045 55.6411 57.045H53.8659C53.8569 57.0451 53.8482 57.0484 53.8414 57.0543C53.8346 57.0602 53.8302 57.0683 53.8288 57.0772L52.8992 62.7486C52.8967 62.7637 52.889 62.7774 52.8773 62.7873C52.8656 62.7972 52.8508 62.8026 52.8355 62.8025H50.3967C50.3915 62.8025 50.3863 62.8013 50.3816 62.7991C50.3769 62.7969 50.3726 62.7937 50.3693 62.7897C50.3659 62.7857 50.3634 62.781 50.362 62.776C50.3605 62.771 50.3602 62.7657 50.361 62.7605L51.2927 57.0814C51.2935 57.0769 51.2933 57.0723 51.2921 57.0678C51.2909 57.0634 51.2888 57.0593 51.2858 57.0557C51.2828 57.0522 51.279 57.0494 51.2748 57.0474C51.2705 57.0454 51.2659 57.0444 51.2612 57.0443L50.4303 57.0464C50.3804 57.0464 50.3594 57.0219 50.3673 56.9729L50.6165 55.456C50.6207 55.4304 50.6359 55.4175 50.662 55.4175H51.523C51.5346 55.4176 51.5459 55.4137 51.555 55.4066C51.5641 55.3995 51.5706 55.3895 51.5734 55.3783C51.7176 54.8064 51.8261 54.0973 52.0585 53.6311C52.9888 51.7607 55.5242 52.068 57.1356 52.6357C57.158 52.6437 57.1671 52.6593 57.1629 52.6826L56.9137 54.1414C56.9091 54.169 56.8934 54.1788 56.8668 54.1708C56.0415 53.9153 54.6653 53.3105 54.3083 54.5264C54.2113 54.8578 54.1504 55.1403 54.1256 55.3741C54.1224 55.4031 54.1352 55.4175 54.1641 55.4175Z" fill="white"/>
<path d="M11.2445 59.7806L10.7398 62.7178C10.7372 62.7318 10.7298 62.7445 10.7189 62.7536C10.708 62.7626 10.6944 62.7676 10.6803 62.7675H8.27649C8.2695 62.7675 8.2626 62.766 8.25626 62.7631C8.24992 62.7601 8.2443 62.7558 8.23977 62.7505C8.23524 62.7452 8.23193 62.739 8.23005 62.7322C8.22817 62.7255 8.22778 62.7184 8.22889 62.7115L9.87109 52.9682C9.87279 52.9571 9.87866 52.9471 9.88758 52.94C9.8965 52.9328 9.90783 52.9292 9.91939 52.9297C10.2745 52.947 10.6299 52.9542 10.9855 52.9514C11.5504 52.9472 12.0152 53.0718 12.1608 53.6514C12.2019 53.8152 12.1935 54.07 12.1356 54.4158C11.9261 55.6758 11.7156 56.9342 11.5042 58.1909C11.5034 58.1955 11.5041 58.2003 11.5063 58.2044C11.5084 58.2086 11.5119 58.2119 11.5162 58.2138C11.5205 58.2157 11.5252 58.2162 11.5298 58.2151C11.5343 58.214 11.5384 58.2114 11.5413 58.2077L13.8289 55.4224C13.8348 55.4154 13.8421 55.4098 13.8503 55.4059C13.8586 55.402 13.8675 55.4 13.8765 55.4H16.4483C16.4992 55.4 16.508 55.4192 16.4749 55.4574L13.5384 58.8258C13.5207 58.8459 13.5179 58.8681 13.53 58.8923C13.992 59.824 14.7851 60.2762 15.6531 60.7515C15.6627 60.7569 15.6704 60.7651 15.6752 60.775C15.6799 60.7849 15.6815 60.796 15.6797 60.8068L15.3234 62.8942C15.3197 62.9157 15.3071 62.9248 15.2856 62.9215C13.5601 62.6905 12.0467 61.2548 11.2599 59.7778C11.259 59.7764 11.2577 59.7753 11.2562 59.7746C11.2546 59.7739 11.2529 59.7737 11.2512 59.774C11.2496 59.7743 11.248 59.7751 11.2468 59.7763C11.2456 59.7775 11.2448 59.779 11.2445 59.7806Z" fill="white"/>
<path d="M74.0641 56.2909C74.7732 55.4201 76.0535 55.1009 77.1301 55.2437C77.782 55.3301 78.2114 55.6677 78.4181 56.2566C78.4316 56.2954 78.4526 56.3 78.4811 56.2706C79.0593 55.6719 79.7448 55.3287 80.5377 55.2409C81.5667 55.1268 83.0535 55.2563 83.2537 56.4876C83.2901 56.7135 83.2546 57.1412 83.1473 57.7707C82.8664 59.4204 82.5885 61.0675 82.3136 62.712C82.3121 62.7223 82.307 62.7317 82.2991 62.7385C82.2913 62.7453 82.2813 62.7491 82.2709 62.7491L79.9602 62.7519C79.9369 62.7519 79.9268 62.7403 79.9301 62.7169C80.1532 61.2796 80.3737 59.8437 80.5916 58.4091C80.6406 58.0881 80.6446 57.8564 80.6035 57.714C80.5188 57.4193 80.292 57.1337 79.9497 57.1463C78.9235 57.1848 78.4489 57.9597 78.2935 58.8774C78.0774 60.1566 77.8637 61.4327 77.6523 62.7057C77.6496 62.7231 77.6408 62.739 77.6275 62.7504C77.6141 62.7618 77.5971 62.7681 77.5795 62.768L75.1491 62.7666C75.1435 62.7666 75.138 62.7654 75.133 62.763C75.1279 62.7607 75.1235 62.7572 75.1199 62.753C75.1163 62.7487 75.1136 62.7437 75.1122 62.7383C75.1107 62.733 75.1104 62.7273 75.1113 62.7218C75.3703 61.1912 75.6277 59.6547 75.8834 58.1123C75.9401 57.77 75.8953 57.1484 75.3633 57.1505C74.3567 57.1547 73.7547 57.9457 73.5993 58.8704C73.3832 60.1556 73.169 61.4401 72.9567 62.7239C72.9547 62.7362 72.9485 62.7474 72.9391 62.7555C72.9298 62.7636 72.9179 62.768 72.9056 62.768L70.4626 62.7666C70.4561 62.7665 70.4497 62.765 70.4439 62.7622C70.438 62.7595 70.4328 62.7555 70.4286 62.7506C70.4245 62.7457 70.4214 62.7399 70.4196 62.7338C70.4179 62.7276 70.4175 62.7212 70.4185 62.7148L71.6225 55.4075C71.6237 55.4005 71.6273 55.394 71.6327 55.3894C71.6381 55.3848 71.6449 55.3823 71.6519 55.3823H74.1362C74.1628 55.3823 74.174 55.3954 74.1698 55.4215L74.0298 56.2748C74.0219 56.3234 74.0333 56.3287 74.0641 56.2909Z" fill="white"/>
<path d="M28.6278 56.2946C29.1029 55.7841 29.6582 55.4567 30.2938 55.3125C31.5783 55.0206 33.7833 55.2635 33.4683 57.1857C33.1664 59.0291 32.8628 60.8738 32.5576 62.7199C32.5525 62.7517 32.5338 62.7675 32.5016 62.7675H30.1041C30.0992 62.7675 30.0944 62.7664 30.09 62.7643C30.0856 62.7623 30.0816 62.7593 30.0784 62.7556C30.0753 62.7518 30.0729 62.7475 30.0715 62.7428C30.0702 62.7381 30.0698 62.7332 30.0705 62.7283C30.2833 61.3437 30.4973 59.9568 30.7124 58.5675C30.7887 58.0754 30.8454 57.7681 30.5864 57.4027C30.4548 57.2165 30.2637 57.143 30.0292 57.1626C29.0723 57.2417 28.5879 57.9683 28.4416 58.8475C28.227 60.1402 28.0144 61.4333 27.8039 62.7269C27.7997 62.754 27.7841 62.7675 27.757 62.7675H25.3077C25.276 62.7675 25.2627 62.7519 25.2678 62.7206C25.5156 61.2446 25.7618 59.7706 26.0063 58.2987C26.0721 57.9053 26.1148 57.1507 25.5044 57.1591C24.4509 57.1738 23.879 58.0138 23.7236 58.9658C23.5192 60.2202 23.3153 61.4749 23.1118 62.7297C23.11 62.7403 23.1046 62.7499 23.0965 62.7568C23.0885 62.7637 23.0783 62.7675 23.0677 62.7675H20.6051C20.5729 62.7675 20.5594 62.7517 20.5645 62.7199L21.7594 55.4469C21.7646 55.4157 21.7828 55.4 21.814 55.4H24.278C24.3116 55.4 24.3254 55.4166 24.3193 55.4497L24.1751 56.2589C24.1742 56.2648 24.1753 56.2709 24.1782 56.2761C24.1811 56.2814 24.1856 56.2855 24.191 56.2879C24.1965 56.2902 24.2025 56.2907 24.2081 56.2891C24.2137 56.2875 24.2186 56.284 24.222 56.2792C24.3606 56.0902 24.5314 55.9316 24.7344 55.8032C25.7914 55.1361 28.0097 54.7378 28.5711 56.2827C28.5837 56.3177 28.6026 56.3217 28.6278 56.2946Z" fill="white"/>
<path d="M43.6336 59.2438C42.7397 59.661 41.7219 59.6547 40.8707 60.2C40.3611 60.5262 40.2232 61.3662 40.9771 61.5286C41.5903 61.6616 42.2462 61.4908 42.8069 61.2668C42.8531 61.2482 42.8688 61.2624 42.8538 61.3095L42.4912 62.4561C42.4838 62.4809 42.4684 62.4984 42.445 62.5086C41.5854 62.8936 40.6871 63.0306 39.75 62.9195C38.8281 62.8096 38.0532 62.3595 38 61.3333C37.874 58.8924 40.8042 58.4864 42.5626 58.1469C43.1415 58.0356 43.9766 57.8725 43.9969 57.2033C44.013 56.6825 43.4551 56.6839 43.0932 56.6741C41.8773 56.6433 40.6138 57.0122 39.4917 57.4427C39.4516 57.4581 39.4353 57.4446 39.4427 57.4021L39.7304 55.7494C39.7346 55.7247 39.7491 55.7095 39.7738 55.7039C41.0835 55.4099 47.0377 54.2269 46.5512 57.1501C46.2418 59.0112 45.9261 60.8748 45.6041 62.741C45.603 62.7484 45.5992 62.7551 45.5934 62.76C45.5876 62.7649 45.5803 62.7676 45.5726 62.7676H43.1289C43.086 62.7676 43.0683 62.7466 43.0757 62.7046L43.6693 59.2704C43.6745 59.2392 43.6626 59.2303 43.6336 59.2438Z" fill="white"/>
<path d="M88.967 59.2492C88.1396 59.6223 85.796 59.7539 85.7708 60.9635C85.7561 61.6768 86.8558 61.6313 87.2996 61.5011C87.6183 61.4073 87.9268 61.2876 88.225 61.142C88.2279 61.1406 88.2312 61.1401 88.2344 61.1406C88.2377 61.141 88.2407 61.1424 88.2431 61.1446C88.2456 61.1467 88.2474 61.1495 88.2482 61.1527C88.2491 61.1558 88.2491 61.1592 88.2481 61.1623L87.8141 62.4552C87.8061 62.478 87.7912 62.4944 87.7693 62.5042C86.4736 63.0866 83.3831 63.4905 83.3285 61.2281C83.2683 58.7354 86.4589 58.4652 88.1977 58.0725C88.6268 57.9752 89.6852 57.6973 89.3275 57.0141C88.827 56.0586 85.6805 56.949 84.872 57.2437C84.864 57.2465 84.8554 57.247 84.8472 57.2453C84.8389 57.2436 84.8313 57.2396 84.8252 57.2339C84.8191 57.2282 84.8148 57.2209 84.8126 57.2128C84.8105 57.2048 84.8107 57.1963 84.8132 57.1884L85.2535 55.6995C85.26 55.6785 85.2738 55.6656 85.2948 55.661C86.5954 55.3775 91.3386 54.5242 91.8412 56.4149C91.9154 56.6949 91.8944 57.0442 91.8391 57.369C91.5404 59.1236 91.2333 60.9082 90.9179 62.7226C90.9127 62.7524 90.8948 62.7674 90.864 62.7674H88.4266C88.4004 62.7674 88.3897 62.7543 88.3944 62.7282L89.0111 59.2835C89.0176 59.2443 89.0029 59.2328 88.967 59.2492Z" fill="white"/>
<path d="M60.9831 59.2822C60.1627 59.6959 57.6469 59.7981 57.8044 61.1379C57.8152 61.2326 57.8611 61.3197 57.9423 61.399C58.4197 61.8694 59.6188 61.5327 60.1606 61.3101C60.1662 61.3078 60.1724 61.3071 60.1784 61.3082C60.1843 61.3092 60.1899 61.312 60.1943 61.3161C60.1987 61.3203 60.2019 61.3256 60.2034 61.3315C60.2048 61.3374 60.2046 61.3436 60.2026 61.3493L59.8407 62.4854C59.8333 62.5083 59.8186 62.5248 59.7966 62.5351C58.7515 63.0321 56.8622 63.3044 55.8913 62.5288C55.1283 61.9191 55.2473 60.6213 55.7457 59.908C56.2749 59.1506 57.3333 58.7698 58.2384 58.5633C58.9156 58.4093 59.5929 58.2553 60.2705 58.1013C60.6597 58.0131 61.1763 57.8822 61.3163 57.4454C61.5109 56.8413 60.9005 56.7265 60.4833 56.7195C59.2604 56.6978 57.9801 57.0527 56.8125 57.5028C56.8091 57.5041 56.8054 57.5044 56.8017 57.5038C56.7981 57.5032 56.7947 57.5016 56.7919 57.4993C56.7891 57.497 56.7869 57.4939 56.7856 57.4905C56.7843 57.4871 56.7839 57.4833 56.7845 57.4797L57.0792 55.792C57.083 55.7701 57.0958 55.7568 57.1177 55.7521C58.4386 55.4707 64.3921 54.2681 63.8944 57.22C63.5799 59.082 63.2619 60.93 62.9403 62.764C62.9357 62.7911 62.9196 62.8046 62.892 62.8046L60.4462 62.8018C60.4229 62.8018 60.4131 62.7901 60.4168 62.7668L61.016 59.3067C61.0216 59.2764 61.0107 59.2682 60.9831 59.2822Z" fill="white"/>
<path d="M18.9886 55.4013C19.5759 55.4055 20.0638 55.9585 20.0771 56.5367C20.0799 56.6781 20.026 56.8566 19.998 57.0225C19.6821 58.9115 19.3654 60.8104 19.0481 62.7191C19.043 62.7513 19.0238 62.7674 18.9907 62.7674H16.5568C16.5335 62.7674 16.5237 62.7557 16.5274 62.7324L17.7195 55.4391C17.7232 55.4139 17.7379 55.4013 17.7636 55.4013C18.1775 55.3985 18.5859 55.3985 18.9886 55.4013Z" fill="white"/>
<path d="M35.281 55.4006C36.1049 55.3957 37.3964 55.2025 37.5875 56.3799C37.6094 56.5162 37.5905 56.76 37.5308 57.1114C37.213 58.9888 36.897 60.8674 36.583 62.7471C36.582 62.7528 36.579 62.758 36.5747 62.7618C36.5703 62.7655 36.5648 62.7675 36.5592 62.7674H34.0945C34.088 62.7674 34.0816 62.766 34.0757 62.7633C34.0699 62.7605 34.0647 62.7566 34.0605 62.7517C34.0563 62.7467 34.0532 62.741 34.0515 62.7347C34.0497 62.7285 34.0493 62.722 34.0504 62.7156L35.2453 55.4314C35.2485 55.4114 35.2604 55.4011 35.281 55.4006Z" fill="white"/>
<path d="M68.0285 56.2588C68.0276 56.2641 68.0287 56.2696 68.0314 56.2742C68.0341 56.2788 68.0384 56.2824 68.0435 56.2842C68.0485 56.286 68.0541 56.286 68.0591 56.2842C68.0642 56.2824 68.0685 56.2788 68.0712 56.2742C68.6417 55.2837 69.4775 55.4118 70.4855 55.4167C70.5242 55.4172 70.5403 55.4363 70.5338 55.4741L70.2699 57.0302C70.2652 57.0577 70.2491 57.0706 70.2216 57.0687C69.2136 57.0057 68.2273 57.3956 67.7807 58.3154C67.671 58.5408 67.5665 58.9627 67.4671 59.581C67.2982 60.6291 67.1276 61.677 66.9554 62.7247C66.9507 62.7532 66.9339 62.7674 66.905 62.7674H64.4613C64.4554 62.7674 64.4497 62.7661 64.4444 62.7636C64.4391 62.7611 64.4344 62.7576 64.4306 62.7531C64.4268 62.7487 64.424 62.7434 64.4224 62.7378C64.4208 62.7322 64.4205 62.7263 64.4214 62.7205L65.6051 55.4342C65.6084 55.4113 65.6217 55.3999 65.645 55.3999H68.1321C68.1685 55.3999 68.1834 55.4179 68.1769 55.4538L68.0285 56.2588Z" fill="white"/>
</g>
<defs>
<clipPath id="clip0_74_4118">
<rect width="84" height="30.17" fill="white" transform="translate(8 33)"/>
</clipPath>
</defs>
</svg>
