<svg width="100" height="100" viewBox="0 0 100 100" fill="none" xmlns="http://www.w3.org/2000/svg">
<rect width="100" height="100" fill="#595C62"/>
<path d="M19.0577 58V40.8203H22.5264V48.4492L29.5342 40.8203H34.1983L27.7295 47.5117L34.5498 58H30.0616L25.3389 49.9375L22.5264 52.8086V58H19.0577ZM52.2067 58H48.4333L46.9333 54.0977H40.0661L38.6481 58H34.9684L41.6598 40.8203H45.3278L52.2067 58ZM45.82 51.2031L43.4528 44.8281L41.1325 51.2031H45.82ZM54.43 58V40.8203H61.7308C63.5667 40.8203 64.8988 40.9766 65.7269 41.2891C66.5628 41.5938 67.2308 42.1406 67.7308 42.9297C68.2308 43.7188 68.4808 44.6211 68.4808 45.6367C68.4808 46.9258 68.1019 47.9922 67.3441 48.8359C66.5863 49.6719 65.4534 50.1992 63.9456 50.418C64.6956 50.8555 65.3128 51.3359 65.7972 51.8594C66.2894 52.3828 66.9495 53.3125 67.7777 54.6484L69.8753 58H65.7269L63.2191 54.2617C62.3284 52.9258 61.7191 52.0859 61.3909 51.7422C61.0628 51.3906 60.7152 51.1523 60.348 51.0273C59.9808 50.8945 59.3988 50.8281 58.6019 50.8281H57.8988V58H54.43ZM57.8988 48.0859H60.4652C62.1292 48.0859 63.1683 48.0156 63.5823 47.875C63.9964 47.7344 64.3206 47.4922 64.555 47.1484C64.7894 46.8047 64.9066 46.375 64.9066 45.8594C64.9066 45.2812 64.7503 44.8164 64.4378 44.4648C64.1331 44.1055 63.6995 43.8789 63.137 43.7852C62.8558 43.7461 62.012 43.7266 60.6058 43.7266H57.8988V48.0859ZM79.8213 58H76.5283V45.5898C75.3252 46.7148 73.9072 47.5469 72.2744 48.0859V45.0977C73.1338 44.8164 74.0673 44.2852 75.0752 43.5039C76.083 42.7148 76.7744 41.7969 77.1494 40.75H79.8213V58Z" fill="#F8F8F8"/>
</svg>
