<svg width="100" height="100" viewBox="0 0 100 100" fill="none" xmlns="http://www.w3.org/2000/svg">
<rect width="100" height="100" fill="#595C62"/>
<path d="M15.8975 58V40.8203H19.3662V48.4492L26.3741 40.8203H31.0381L24.5694 47.5117L31.3897 58H26.9014L22.1787 49.9375L19.3662 52.8086V58H15.8975ZM49.0466 58H45.2731L43.7731 54.0977H36.9059L35.488 58H31.8083L38.4997 40.8203H42.1677L49.0466 58ZM42.6598 51.2031L40.2927 44.8281L37.9723 51.2031H42.6598ZM51.2698 58V40.8203H58.5706C60.4066 40.8203 61.7386 40.9766 62.5667 41.2891C63.4027 41.5938 64.0706 42.1406 64.5706 42.9297C65.0706 43.7188 65.3206 44.6211 65.3206 45.6367C65.3206 46.9258 64.9417 47.9922 64.1839 48.8359C63.4261 49.6719 62.2933 50.1992 60.7855 50.418C61.5355 50.8555 62.1527 51.3359 62.637 51.8594C63.1292 52.3828 63.7894 53.3125 64.6175 54.6484L66.7152 58H62.5667L60.0589 54.2617C59.1683 52.9258 58.5589 52.0859 58.2308 51.7422C57.9027 51.3906 57.555 51.1523 57.1878 51.0273C56.8206 50.8945 56.2386 50.8281 55.4417 50.8281H54.7386V58H51.2698ZM54.7386 48.0859H57.305C58.9691 48.0859 60.0081 48.0156 60.4222 47.875C60.8363 47.7344 61.1605 47.4922 61.3948 47.1484C61.6292 46.8047 61.7464 46.375 61.7464 45.8594C61.7464 45.2812 61.5902 44.8164 61.2777 44.4648C60.973 44.1055 60.5394 43.8789 59.9769 43.7852C59.6956 43.7461 58.8519 43.7266 57.4456 43.7266H54.7386V48.0859ZM82.79 55.8203C83.6416 56.4297 84.5673 56.9141 85.5673 57.2734L84.29 59.7227C83.7666 59.5664 83.2548 59.3516 82.7548 59.0781C82.6455 59.0234 81.8759 58.5156 80.4463 57.5547C79.3213 58.0469 78.0752 58.293 76.708 58.293C74.0673 58.293 71.997 57.5156 70.497 55.9609C69.0048 54.4062 68.2588 52.2227 68.2588 49.4102C68.2588 46.6055 69.0088 44.4258 70.5088 42.8711C72.0088 41.3086 74.0439 40.5273 76.6142 40.5273C79.1611 40.5273 81.1806 41.3086 82.6728 42.8711C84.165 44.4258 84.9111 46.6055 84.9111 49.4102C84.9111 50.8945 84.7041 52.1992 84.29 53.3242C83.9775 54.1836 83.4775 55.0156 82.79 55.8203ZM80.0009 53.8633C80.4463 53.3398 80.7783 52.707 80.997 51.9648C81.2236 51.2227 81.3369 50.3711 81.3369 49.4102C81.3369 47.4258 80.8994 45.9453 80.0244 44.9688C79.1494 43.9844 78.0048 43.4922 76.5908 43.4922C75.1767 43.4922 74.0283 43.9844 73.1455 44.9688C72.2705 45.9531 71.833 47.4336 71.833 49.4102C71.833 51.418 72.2705 52.9219 73.1455 53.9219C74.0283 54.9141 75.1416 55.4102 76.4853 55.4102C76.9853 55.4102 77.458 55.3281 77.9033 55.1641C77.2002 54.7031 76.4853 54.3438 75.7588 54.0859L76.7314 52.1055C77.872 52.4961 78.9619 53.082 80.0009 53.8633Z" fill="#F8F8F8"/>
</svg>
