<svg width="100" height="100" viewBox="0 0 100 100" fill="none" xmlns="http://www.w3.org/2000/svg">
<rect width="100" height="100" fill="#FA6301"/>
<path d="M71.6178 51.0069L71.623 72.6983C71.6231 72.7392 71.6148 72.7797 71.5987 72.8173C71.5826 72.8549 71.559 72.8888 71.5294 72.917C71.4998 72.9452 71.4647 72.9671 71.4263 72.9813C71.388 72.9955 71.3472 73.0017 71.3063 72.9996L69.0636 72.8957C68.8663 72.8853 68.7676 72.7814 68.7676 72.584V70.3759C68.7676 70.1611 68.6604 70.0537 68.4458 70.0537L56.0534 70.0381C55.7904 70.0381 55.6589 70.1698 55.6589 70.433V72.6671C55.6589 72.7069 55.6509 72.7462 55.6354 72.7829C55.6199 72.8195 55.5972 72.8526 55.5686 72.8803C55.54 72.9079 55.5061 72.9295 55.469 72.9437C55.4319 72.958 55.3923 72.9646 55.3526 72.9632L53.1098 72.8801C52.9091 72.8732 52.8087 72.7675 52.8087 72.5632V50.9498C52.8087 50.7696 52.7187 50.6796 52.5387 50.6796L8.34272 50.5809C8.11083 50.5809 7.99662 50.4648 8.00008 50.2328L8.03642 48.0974C8.03988 47.9 8.14025 47.8065 8.33753 47.8168C10.4349 47.9052 12.3558 48.1234 14.3079 47.1414C27.5949 40.46 40.8594 33.7595 54.1014 27.0399C54.1488 27.0156 54.2012 27.002 54.255 27.0002C54.3088 26.9984 54.3627 27.0084 54.4129 27.0295L86.715 41.6238C86.8373 41.6783 86.9414 41.7665 87.015 41.8779C87.0886 41.9894 87.1286 42.1193 87.1303 42.2524L87.2082 47.4376C87.2116 47.7043 87.3466 47.8376 87.6131 47.8376H91.7404C91.9135 47.8376 92 47.9242 92 48.0974V50.1548C92 50.2545 91.9608 50.3502 91.8908 50.4212C91.8209 50.4922 91.7258 50.5327 91.6262 50.5341L71.9293 50.6952C71.7217 50.6986 71.6178 50.8025 71.6178 51.0069ZM52.8087 47.5727L52.9229 31.2535C52.9229 30.9106 52.7724 30.8171 52.4712 30.9729L19.7642 47.609C19.7384 47.6203 19.7174 47.6405 19.7049 47.6658C19.6925 47.6911 19.6894 47.7201 19.6963 47.7475C19.7031 47.7749 19.7194 47.7989 19.7423 47.8154C19.7652 47.8319 19.7932 47.8398 19.8213 47.8376H52.5439C52.6141 47.8376 52.6815 47.8097 52.7311 47.76C52.7808 47.7103 52.8087 47.6429 52.8087 47.5727ZM71.623 42.746C71.623 42.0325 71.9795 41.6861 72.6925 41.7069L79.4208 41.8939C79.4692 41.8943 79.5163 41.8782 79.5544 41.8482C79.5924 41.8182 79.6191 41.7761 79.6299 41.7288C79.6408 41.6816 79.6353 41.6321 79.6143 41.5884C79.5932 41.5447 79.5579 41.5096 79.5142 41.4887L56.4168 30.9729C55.9427 30.7582 55.7056 30.9123 55.7056 31.4353L55.6693 47.583C55.6686 47.6162 55.6746 47.6492 55.6871 47.6801C55.6996 47.7109 55.7182 47.739 55.7419 47.7627C55.7656 47.7864 55.7939 47.8053 55.8251 47.8181C55.8563 47.831 55.8898 47.8376 55.9236 47.8376H71.1039C71.2415 47.8376 71.3736 47.7829 71.471 47.6855C71.5683 47.588 71.623 47.4559 71.623 47.3181V42.746ZM61.1931 50.6328C59.4418 50.6051 57.6836 50.6242 55.9185 50.69C55.7454 50.6969 55.6589 50.787 55.6589 50.9601V64.0841C55.6589 64.562 55.806 64.614 56.1002 64.2399L66.5456 51.0589C66.6737 50.8961 66.6374 50.7991 66.4366 50.7679C64.6455 50.4666 62.4806 50.6536 61.1931 50.6328ZM68.7676 53.2566C68.7676 53.2239 68.7574 53.192 68.7382 53.1654C68.7191 53.1389 68.6922 53.119 68.6611 53.1087C68.6301 53.0984 68.5967 53.098 68.5655 53.1078C68.5343 53.1175 68.5069 53.1369 68.4873 53.1631L57.6057 66.9364C57.5868 66.9595 57.5749 66.9876 57.5715 67.0172C57.5681 67.0469 57.5732 67.0769 57.5863 67.1037C57.5995 67.1306 57.62 67.153 57.6455 67.1685C57.6711 67.184 57.7005 67.1918 57.7303 67.191H68.6119C68.6532 67.191 68.6928 67.1746 68.722 67.1453C68.7512 67.1161 68.7676 67.0765 68.7676 67.0351V53.2566Z" fill="#1D1815"/>
</svg>
