<svg width="100" height="100" viewBox="0 0 100 100" fill="none" xmlns="http://www.w3.org/2000/svg">
<rect width="100" height="100" fill="#C3F3E7"/>
<path d="M73.7992 9H71.0992C70.9473 9 70.8242 9.12312 70.8242 9.275V63.845C70.8242 63.9968 70.9473 64.12 71.0992 64.12H73.7992C73.9511 64.12 74.0742 63.9968 74.0742 63.845V9.275C74.0742 9.12312 73.9511 9 73.7992 9Z" fill="#68431F"/>
<path d="M69.2243 11.655H66.5443C66.4201 11.655 66.3193 11.7558 66.3193 11.88V63.92C66.3193 64.0443 66.4201 64.145 66.5443 64.145H69.2243C69.3486 64.145 69.4493 64.0443 69.4493 63.92V11.88C69.4493 11.7558 69.3486 11.655 69.2243 11.655Z" fill="#68431F"/>
<path d="M64.6242 14.3701H61.8942C61.7865 14.3701 61.6992 14.4574 61.6992 14.5651V63.9151C61.6992 64.0228 61.7865 64.1101 61.8942 64.1101H64.6242C64.7319 64.1101 64.8192 64.0228 64.8192 63.9151V14.5651C64.8192 14.4574 64.7319 14.3701 64.6242 14.3701Z" fill="#68431F"/>
<path d="M59.9182 16.908L57.4382 16.9124C57.2836 16.9126 57.1584 17.0382 57.1587 17.1928L57.2401 63.8427C57.2404 63.9974 57.366 64.1225 57.5206 64.1223L60.0006 64.1179C60.1552 64.1177 60.2804 63.9921 60.2801 63.8374L60.1987 17.1875C60.1984 17.0329 60.0728 16.9078 59.9182 16.908Z" fill="#68431F"/>
<path d="M55.4042 19.53H52.8642C52.7041 19.53 52.5742 19.6599 52.5742 19.82V63.84C52.5742 64.0002 52.7041 64.13 52.8642 64.13H55.4042C55.5644 64.13 55.6942 64.0002 55.6942 63.84V19.82C55.6942 19.6599 55.5644 19.53 55.4042 19.53Z" fill="#68431F"/>
<path d="M53.8293 87.88C64.2643 85.855 71.2093 76.465 70.8343 65.8C70.8276 65.62 70.9143 65.53 71.0943 65.53H73.7243C73.9143 65.53 74.0126 65.625 74.0193 65.815C74.5343 80.71 62.3043 92.915 47.3993 91.495C31.0143 89.935 20.5443 73.055 26.8643 57.815C30.8943 48.09 40.2643 42.2 50.7693 42.575C50.9726 42.5817 51.0743 42.6867 51.0743 42.89V45.54C51.0743 45.577 51.0668 45.6136 51.0521 45.6476C51.0374 45.6816 51.0159 45.7124 50.9888 45.7381C50.9618 45.7638 50.9297 45.7838 50.8945 45.797C50.8594 45.8102 50.8219 45.8163 50.7843 45.815C44.7809 45.5883 39.7059 47.3233 35.5593 51.02C19.3143 65.52 32.2643 92.055 53.8293 87.88Z" fill="#68431F"/>
<path d="M36.2341 77.1251C44.7791 88.7751 63.1241 84.1951 65.9741 70.1901C66.2441 68.8751 66.1691 67.2951 66.3391 65.8201C66.3624 65.6268 66.4724 65.5301 66.6691 65.5301H69.1041C69.3441 65.5301 69.4657 65.6501 69.4691 65.8901C69.5057 73.0901 66.9591 78.6834 61.8291 82.6701C50.9891 91.0951 35.1341 86.4201 30.7941 73.5201C26.2791 60.1001 36.5541 46.3251 50.8091 47.3451C50.9857 47.3585 51.0741 47.4535 51.0741 47.6301V50.1401C51.0741 50.3001 50.9941 50.3785 50.8341 50.3751C36.4691 50.0251 27.5191 65.2501 36.2341 77.1251Z" fill="#68431F"/>
<path d="M39.2691 60.8349C33.5491 70.4249 42.7441 82.0999 53.2741 78.4949C58.9291 76.5599 61.7041 71.8799 61.7541 65.9799C61.7575 65.6799 61.9091 65.5299 62.2091 65.5299H64.5541C64.6908 65.5299 64.7641 65.5999 64.7741 65.7399C65.8541 82.7549 43.4591 88.7099 35.8241 73.7799C30.4991 63.3699 39.0891 50.8549 50.7691 51.9549C50.9725 51.9749 51.0741 52.0866 51.0741 52.2899V54.6599C51.0741 54.8499 50.9775 54.9449 50.7841 54.9449C45.4608 54.9249 41.6225 56.8883 39.2691 60.8349Z" fill="#68431F"/>
<path d="M52.3342 74.0549C56.0892 72.6699 56.9292 69.5749 57.2242 65.8499C57.2442 65.6365 57.3608 65.5299 57.5742 65.5299H59.8542C60.0875 65.5299 60.2075 65.6465 60.2142 65.8799C60.5492 75.2849 50.7942 81.3798 42.9942 75.4899C34.3242 68.9399 40.1942 55.6549 50.7792 56.4649C50.8593 56.47 50.9344 56.5059 50.9892 56.5654C51.044 56.6248 51.0744 56.7033 51.0742 56.7849V59.2699C51.0742 59.4499 50.9825 59.5349 50.7992 59.5249C37.3992 58.7899 40.7792 78.2999 52.3342 74.0549Z" fill="#68431F"/>
<path d="M50.0741 69.9C51.9874 69.5367 52.7958 68.1767 52.4991 65.82C52.4948 65.7841 52.4983 65.7477 52.5092 65.7132C52.5201 65.6787 52.5382 65.6469 52.5623 65.62C52.5864 65.593 52.616 65.5715 52.649 65.5568C52.6821 65.5422 52.7179 65.5347 52.7541 65.535L55.4291 65.53C55.6058 65.5267 55.6974 65.615 55.7041 65.795C55.8241 69.9717 54.1241 72.3817 50.6041 73.025C41.2291 74.74 41.1191 59.35 50.7891 61.08C50.9791 61.1133 51.0741 61.225 51.0741 61.415V63.89C51.0741 64.0667 50.9858 64.1433 50.8091 64.12C45.1341 63.36 45.6041 70.75 50.0741 69.9Z" fill="#68431F"/>
<path d="M49.5543 68.59C50.3965 68.59 51.0793 67.9073 51.0793 67.065C51.0793 66.2228 50.3965 65.54 49.5543 65.54C48.7121 65.54 48.0293 66.2228 48.0293 67.065C48.0293 67.9073 48.7121 68.59 49.5543 68.59Z" fill="#68431F"/>
</svg>
