<svg width="100" height="100" viewBox="0 0 100 100" fill="none" xmlns="http://www.w3.org/2000/svg">
<rect width="100" height="100" fill="#E3E2F7"/>
<path d="M79.7652 47.7037L90.294 41.8114C90.2968 41.8098 90.2999 41.809 90.303 41.809C90.3062 41.809 90.3093 41.8098 90.312 41.8114C90.3148 41.813 90.317 41.8153 90.3186 41.818C90.3202 41.8208 90.321 41.8239 90.321 41.827V76.4453C90.321 76.4501 90.3191 76.4547 90.3157 76.458C90.3123 76.4614 90.3078 76.4633 90.303 76.4633H9.70889C9.70412 76.4633 9.69955 76.4614 9.69618 76.458C9.69281 76.4547 9.69092 76.4501 9.69092 76.4453V41.8516C9.69091 41.8485 9.69174 41.8454 9.69331 41.8426C9.69488 41.8399 9.69715 41.8376 9.69989 41.836C9.70262 41.8344 9.70572 41.8336 9.70888 41.8336C9.71204 41.8336 9.71514 41.8344 9.71788 41.836L20.5069 47.8816C20.5096 47.8831 20.5127 47.884 20.5159 47.884C20.519 47.884 20.5221 47.8831 20.5249 47.8815C20.5276 47.88 20.5299 47.8777 20.5314 47.8749C20.533 47.8722 20.5338 47.8691 20.5338 47.8659V36.0866C20.5338 36.0834 20.5346 36.0803 20.5362 36.0776C20.5378 36.0748 20.5401 36.0725 20.5428 36.071C20.5455 36.0694 20.5486 36.0685 20.5518 36.0685C20.5549 36.0685 20.558 36.0694 20.5608 36.0709L31.3734 42.1307C31.3762 42.1323 31.3793 42.1331 31.3824 42.1331C31.3856 42.1331 31.3887 42.1322 31.3914 42.1307C31.3941 42.1291 31.3964 42.1268 31.398 42.1241C31.3996 42.1213 31.4004 42.1182 31.4004 42.1151V29.7421C31.4004 29.7389 31.4012 29.7358 31.4028 29.7331C31.4043 29.7304 31.4066 29.7281 31.4093 29.7265C31.4121 29.7249 31.4152 29.7241 31.4183 29.7241C31.4215 29.7241 31.4246 29.7249 31.4273 29.7265L42.3691 35.8572C42.3718 35.8587 42.3749 35.8596 42.3781 35.8596C42.3812 35.8596 42.3843 35.8587 42.3871 35.8572C42.3898 35.8556 42.3921 35.8533 42.3937 35.8506C42.3952 35.8478 42.3961 35.8447 42.396 35.8416V23.3669C42.396 23.3637 42.3969 23.3606 42.3984 23.3579C42.4 23.3552 42.4023 23.3529 42.405 23.3513C42.4078 23.3497 42.4109 23.3489 42.414 23.3489C42.4172 23.3489 42.4203 23.3497 42.423 23.3513L50.1244 27.6482C50.1272 27.6498 50.1303 27.6507 50.1334 27.6507C50.1366 27.6507 50.1397 27.6498 50.1424 27.6482L57.7067 23.427C57.7094 23.4254 57.7125 23.4246 57.7157 23.4246C57.7188 23.4246 57.7219 23.4254 57.7247 23.427C57.7274 23.4286 57.7297 23.4308 57.7312 23.4336C57.7328 23.4363 57.7336 23.4394 57.7336 23.4426L57.7327 35.9253C57.7327 35.9284 57.7335 35.9315 57.7351 35.9343C57.7366 35.937 57.7389 35.9393 57.7416 35.9409C57.7444 35.9425 57.7475 35.9433 57.7506 35.9433C57.7538 35.9433 57.7569 35.9425 57.7596 35.9409L68.7146 29.7998C68.7174 29.7982 68.7205 29.7974 68.7236 29.7974C68.7268 29.7974 68.7299 29.7982 68.7326 29.7998C68.7354 29.8014 68.7376 29.8037 68.7392 29.8064C68.7408 29.8091 68.7416 29.8122 68.7416 29.8154V42.1912C68.7416 42.1944 68.7424 42.1975 68.744 42.2002C68.7456 42.203 68.7478 42.2052 68.7506 42.2068C68.7533 42.2084 68.7564 42.2092 68.7596 42.2092C68.7627 42.2092 68.7658 42.2084 68.7685 42.2068L79.7113 36.0785C79.714 36.0769 79.7171 36.0761 79.7203 36.0761C79.7234 36.0761 79.7265 36.0769 79.7292 36.0785C79.732 36.0801 79.7342 36.0824 79.7358 36.0851C79.7374 36.0879 79.7382 36.091 79.7382 36.0941V47.6881C79.7382 47.6913 79.739 47.6944 79.7406 47.6971C79.7422 47.6998 79.7444 47.7021 79.7472 47.7037C79.7499 47.7053 79.753 47.7061 79.7562 47.7061C79.7593 47.7061 79.7624 47.7053 79.7652 47.7037ZM47.044 55.3999C47.044 55.4041 47.0456 55.408 47.0485 55.411C47.0515 55.4139 47.0554 55.4155 47.0596 55.4155H53.1888C53.193 55.4155 53.1969 55.4139 53.1999 55.411C53.2028 55.408 53.2044 55.4041 53.2044 55.3999V36.0818C53.2044 36.079 53.2036 36.0762 53.2021 36.0738C53.2006 36.0714 53.1985 36.0694 53.1959 36.0681L50.1504 34.4524C50.1482 34.4513 50.1458 34.4507 50.1433 34.4507C50.1409 34.4507 50.1385 34.4513 50.1363 34.4524L47.0525 36.0832C47.0499 36.0845 47.0478 36.0865 47.0463 36.0889C47.0448 36.0913 47.044 36.0941 47.044 36.097V55.3999ZM42.3615 42.5374C42.3615 42.5346 42.3607 42.5318 42.3592 42.5294C42.3577 42.527 42.3555 42.525 42.353 42.5237L36.1173 39.2233C36.115 39.2221 36.1123 39.2215 36.1097 39.2216C36.107 39.2217 36.1044 39.2225 36.1022 39.2239C36.0999 39.2252 36.098 39.2272 36.0967 39.2295C36.0954 39.2318 36.0947 39.2344 36.0946 39.237V56.6476C36.0946 56.6499 36.0951 56.6521 36.096 56.6542C36.0969 56.6563 36.0983 56.6581 36.1 56.6596C36.1017 56.6611 36.1037 56.6622 36.1059 56.6628C36.1081 56.6634 36.1104 56.6636 36.1126 56.6632L42.3483 55.7608C42.352 55.7602 42.3554 55.7583 42.3578 55.7555C42.3603 55.7526 42.3616 55.749 42.3615 55.7452V42.5374ZM57.9115 55.7996L64.1433 56.7564C64.1582 56.7586 64.1656 56.7523 64.1656 56.7375V39.2408C64.1656 39.2381 64.1649 39.2354 64.1635 39.233C64.1622 39.2307 64.1603 39.2287 64.1579 39.2273C64.1556 39.2259 64.1529 39.2252 64.1502 39.2251C64.1475 39.2251 64.1448 39.2258 64.1424 39.2271L57.9119 42.5516C57.9078 42.5538 57.9043 42.5571 57.9019 42.5611C57.8995 42.5651 57.8982 42.5696 57.8982 42.5743L57.8987 55.7215C57.8987 55.7304 57.8965 55.7384 57.8921 55.7457C57.8854 55.7561 57.8845 55.7679 57.8892 55.7811C57.8909 55.7859 57.8939 55.7901 57.8978 55.7933C57.9017 55.7966 57.9064 55.7987 57.9115 55.7996ZM31.3886 48.8095C31.3885 48.8054 31.3873 48.8014 31.3852 48.7979C31.383 48.7944 31.3799 48.7915 31.3763 48.7897L25.1311 45.5082C25.1277 45.5064 25.1238 45.5055 25.12 45.5057C25.1161 45.5058 25.1123 45.5069 25.109 45.5089C25.1057 45.5109 25.103 45.5137 25.101 45.517C25.0991 45.5204 25.0981 45.5242 25.098 45.528V59.6609C25.098 59.6645 25.0988 59.668 25.1004 59.6712C25.102 59.6743 25.1043 59.6771 25.1072 59.6792C25.11 59.6813 25.1133 59.6828 25.1168 59.6834C25.1203 59.684 25.1239 59.6837 25.1273 59.6827L31.3725 57.735C31.3771 57.7336 31.3812 57.7307 31.3841 57.7268C31.387 57.7229 31.3886 57.7181 31.3886 57.7132V48.8095ZM68.8792 57.8528L75.0913 59.8279C75.0971 59.8299 75.1034 59.8303 75.1095 59.8292C75.1156 59.828 75.1213 59.8254 75.1261 59.8215C75.1309 59.8176 75.1347 59.8125 75.137 59.8068C75.1394 59.801 75.1402 59.7948 75.1395 59.7886C75.1351 59.7461 75.1329 59.6994 75.1329 59.6486C75.1281 54.9504 75.1263 50.2552 75.1272 45.563C75.1271 45.5592 75.1261 45.5554 75.1242 45.552C75.1223 45.5487 75.1195 45.5459 75.1162 45.5439C75.1129 45.5419 75.1091 45.5408 75.1052 45.5407C75.1014 45.5405 75.0975 45.5414 75.0941 45.5432L68.8806 48.8001C68.8668 48.8076 68.8598 48.8191 68.8598 48.8346V57.8263C68.8598 57.8398 68.8663 57.8487 68.8792 57.8528ZM79.821 61.585C79.821 61.5894 79.8222 61.5938 79.8245 61.5975C79.8269 61.6013 79.8302 61.6043 79.8342 61.6063L85.7223 64.5505C85.7259 64.5523 85.7299 64.5531 85.7339 64.5529C85.7379 64.5527 85.7418 64.5515 85.7452 64.5494C85.7486 64.5472 85.7514 64.5443 85.7534 64.5407C85.7553 64.5372 85.7563 64.5333 85.7563 64.5293L85.7573 51.2732C85.7572 51.2692 85.7562 51.2652 85.7542 51.2617C85.7522 51.2582 85.7493 51.2553 85.7458 51.2532C85.7424 51.2511 85.7384 51.2499 85.7344 51.2498C85.7303 51.2497 85.7263 51.2506 85.7227 51.2524L79.8338 54.3547C79.8299 54.3566 79.8267 54.3596 79.8245 54.3633C79.8222 54.367 79.821 54.3712 79.821 54.3755V61.585ZM20.4156 54.5169C20.4155 54.514 20.4147 54.5113 20.4132 54.5088C20.4117 54.5064 20.4096 54.5045 20.4071 54.5032L14.266 51.269C14.2636 51.2678 14.2609 51.2672 14.2582 51.2673C14.2555 51.2674 14.2529 51.2682 14.2506 51.2696C14.2483 51.2711 14.2465 51.2731 14.2452 51.2754C14.2439 51.2778 14.2432 51.2805 14.2433 51.2832V64.5364C14.2434 64.5389 14.2441 64.5415 14.2454 64.5437C14.2467 64.546 14.2485 64.5479 14.2507 64.5492C14.2529 64.5506 14.2554 64.5514 14.258 64.5515C14.2606 64.5517 14.2632 64.5512 14.2655 64.5501L20.4066 61.6063C20.4093 61.605 20.4116 61.603 20.4132 61.6005C20.4148 61.598 20.4156 61.5951 20.4156 61.5921V54.5169ZM35.5044 66.161C35.5022 65.2586 35.5018 64.3558 35.5034 63.4528C35.5039 63.1742 35.5748 63.0001 35.8558 62.9424C35.8731 62.9386 35.8818 62.9279 35.8818 62.9103V62.7646C35.8818 62.7447 35.872 62.7348 35.8525 62.7348H33.4105C33.3947 62.7348 33.3869 62.7427 33.3869 62.7584V62.9103C33.3869 62.9276 33.3955 62.9379 33.4129 62.941C33.7132 62.9935 33.7539 63.1827 33.7539 63.4665C33.7529 65.656 33.7529 67.8459 33.7539 70.0361C33.7539 70.3076 33.6853 70.4769 33.4115 70.5327C33.3951 70.5359 33.3869 70.5458 33.3869 70.5625V70.7162C33.3869 70.732 33.3947 70.7399 33.4105 70.7399H35.8477C35.8607 70.7399 35.869 70.7337 35.8728 70.7214C35.9419 70.492 35.79 70.5393 35.6794 70.4636C35.5479 70.3738 35.5048 70.2674 35.5044 70.1004C35.5025 69.402 35.5025 68.7032 35.5044 68.0042C35.5044 67.9868 35.5111 67.9727 35.5247 67.9616L36.6802 67.0336C36.7004 67.0176 36.7185 67.0195 36.7346 67.0393C37.6093 68.1108 38.4609 69.1505 39.2896 70.1586C39.4731 70.3818 39.2508 70.493 39.0673 70.5388C39.0483 70.5436 39.0389 70.5556 39.0389 70.5748V70.7101C39.0389 70.7299 39.0488 70.7399 39.0687 70.7399H42.1487C42.1645 70.7399 42.1723 70.732 42.1723 70.7162V70.5753C42.1723 70.5592 42.1643 70.5494 42.1482 70.5459C41.653 70.4424 41.3683 70.0446 41.023 69.6307C40.0184 68.4278 39.0118 67.2187 38.0031 66.0035C37.9986 65.998 37.9965 65.9909 37.9972 65.9838C37.9979 65.9767 38.0014 65.9702 38.0069 65.9657C39.1332 65.0718 40.2508 64.1655 41.3598 63.247C41.5341 63.1026 41.7292 62.9954 41.9448 62.9254C41.9625 62.9194 41.9713 62.9071 41.9713 62.8885V62.7646C41.9713 62.7447 41.9615 62.7348 41.942 62.7348H38.7272C38.7086 62.7348 38.6983 62.7441 38.6965 62.7627L38.6827 62.8923C38.6819 62.9 38.6839 62.9077 38.6884 62.9141C38.6928 62.9204 38.6994 62.9249 38.7069 62.9268C39.0602 63.0157 39.133 63.1818 38.8289 63.4353C37.73 64.3494 36.6292 65.2614 35.5266 66.1714C35.5118 66.1834 35.5044 66.1799 35.5044 66.161ZM52.7518 66.5266C53.3908 66.2424 53.7507 65.7084 53.8037 65.0112C53.8533 64.3528 53.6675 63.5885 53.0833 63.221C52.5461 62.8828 51.8063 62.7348 51.147 62.7348C49.3037 62.7348 47.4602 62.7348 45.6165 62.7348C45.5986 62.7348 45.5896 62.7438 45.5896 62.7618V62.897C45.5896 62.9188 45.6003 62.9319 45.6217 62.9363C45.8525 62.9842 45.9679 63.1338 45.9679 63.3851C45.9679 65.5832 45.9679 67.7813 45.9679 69.9793C45.9679 70.274 45.9268 70.467 45.6208 70.5332C45.6053 70.5366 45.5971 70.5461 45.5962 70.5616L45.5872 70.7058C45.5859 70.7279 45.5963 70.7389 45.6184 70.7389C47.5094 70.7418 49.4005 70.741 51.2917 70.7366C52.3777 70.7342 53.7483 70.2347 54.0118 69.0329C54.2596 67.9025 53.833 66.9991 52.7523 66.5602C52.749 66.5588 52.7463 66.5565 52.7443 66.5535C52.7423 66.5506 52.7413 66.5471 52.7412 66.5436C52.7412 66.54 52.7421 66.5365 52.744 66.5335C52.7459 66.5305 52.7486 66.5281 52.7518 66.5266ZM59.6927 68.7066L63.2698 68.7056C63.2884 68.7056 63.3019 68.7138 63.3104 68.7302C63.5592 69.2111 63.7631 69.6273 63.922 69.9788C64.0596 70.2825 63.9158 70.492 63.6037 70.5407C63.5955 70.5421 63.5881 70.5462 63.5827 70.5525C63.5773 70.5587 63.5744 70.5666 63.5744 70.5748V70.7162C63.5744 70.732 63.5822 70.7399 63.598 70.7399H66.4973C66.5147 70.7399 66.5233 70.7312 66.5233 70.7138V70.5677C66.523 70.5522 66.5153 70.5429 66.5002 70.5398C66.2545 70.4909 66.0819 70.3686 65.9823 70.1728C65.4872 69.1997 64.4033 67.0108 62.7306 63.606C62.5698 63.2792 62.5854 63.0673 62.9576 62.9363C62.9651 62.9336 62.9715 62.9287 62.9761 62.9222C62.9807 62.9157 62.9831 62.9079 62.9831 62.8999V62.7703C62.9831 62.7466 62.9713 62.7348 62.9477 62.7348H60.1822C60.1686 62.7348 60.1597 62.7413 60.1552 62.7542C60.0829 62.9661 60.2508 62.9429 60.3435 63.0328C60.5568 63.2395 60.4858 63.4636 60.3624 63.7214C59.4306 65.6707 58.4994 67.6201 57.5686 69.5697C57.3756 69.9746 57.2266 70.4485 56.7896 70.5426C56.7722 70.5464 56.7635 70.5573 56.7635 70.5753V70.7101C56.7635 70.7299 56.7735 70.7399 56.7934 70.7399H59.3706C59.3904 70.7399 59.4004 70.7299 59.4004 70.7101V70.5649C59.4004 70.551 59.3938 70.5425 59.3805 70.5393C59.1426 70.4802 58.9302 70.2915 59.0466 70.0205C59.1481 69.7834 59.3517 69.3526 59.6572 68.7283C59.6645 68.7138 59.6763 68.7066 59.6927 68.7066Z" fill="#272360"/>
<path d="M35.5264 66.1715C36.6291 65.2615 37.7299 64.3494 38.8287 63.4353C39.1329 63.1818 39.06 63.0158 38.7067 62.9269C38.6992 62.925 38.6926 62.9205 38.6882 62.9141C38.6838 62.9078 38.6818 62.9001 38.6826 62.8924L38.6963 62.7628C38.6982 62.7442 38.7085 62.7349 38.7271 62.7349H41.9419C41.9614 62.7349 41.9712 62.7448 41.9712 62.7647V62.8886C41.9712 62.9072 41.9623 62.9195 41.9447 62.9255C41.729 62.9955 41.534 63.1027 41.3596 63.2471C40.2507 64.1656 39.133 65.0718 38.0067 65.9657C38.0012 65.9703 37.9977 65.9768 37.997 65.9839C37.9963 65.991 37.9984 65.9981 38.0029 66.0036C39.0116 67.2188 40.0183 68.4279 41.0229 69.6308C41.3681 70.0447 41.6529 70.4424 42.1481 70.546C42.1642 70.5495 42.1722 70.5593 42.1722 70.5753V70.7163C42.1722 70.732 42.1643 70.7399 42.1485 70.7399H39.0685C39.0487 70.7399 39.0387 70.73 39.0387 70.7101V70.5749C39.0387 70.5556 39.0482 70.5436 39.0671 70.5389C39.2506 70.493 39.4729 70.3819 39.2894 70.1586C38.4608 69.1506 37.6091 68.1108 36.7344 67.0394C36.7183 67.0195 36.7002 67.0176 36.68 67.0337L35.5246 67.9617C35.511 67.9727 35.5042 67.9869 35.5042 68.0043C35.5023 68.7033 35.5023 69.402 35.5042 70.1005C35.5047 70.2674 35.5477 70.3739 35.6792 70.4637C35.7899 70.5394 35.9417 70.4921 35.8727 70.7215C35.8689 70.7338 35.8605 70.7399 35.8476 70.7399H33.4104C33.3946 70.7399 33.3867 70.732 33.3867 70.7163V70.5626C33.3867 70.5459 33.3949 70.5359 33.4113 70.5328C33.6852 70.477 33.7537 70.3076 33.7537 70.0361C33.7528 67.846 33.7528 65.6561 33.7537 63.4666C33.7537 63.1828 33.7131 62.9936 33.4127 62.9411C33.3954 62.9379 33.3867 62.9277 33.3867 62.9103V62.7585C33.3867 62.7427 33.3946 62.7349 33.4104 62.7349H35.8523C35.8719 62.7349 35.8817 62.7448 35.8817 62.7647V62.9103C35.8817 62.928 35.873 62.9387 35.8556 62.9425C35.5747 63.0002 35.5037 63.1743 35.5033 63.4528C35.5017 64.3559 35.502 65.2586 35.5042 66.1611C35.5042 66.18 35.5116 66.1835 35.5264 66.1715Z" fill="#C79A73"/>
<path d="M52.7519 66.5267C52.7487 66.5282 52.746 66.5306 52.7441 66.5336C52.7422 66.5366 52.7412 66.5401 52.7413 66.5436C52.7413 66.5472 52.7424 66.5506 52.7444 66.5536C52.7463 66.5565 52.7491 66.5588 52.7523 66.5603C53.8331 66.9992 54.2597 67.9026 54.0119 69.033C53.7484 70.2348 52.3777 70.7343 51.2918 70.7366C49.4005 70.741 47.5094 70.7418 45.6185 70.739C45.5964 70.739 45.586 70.728 45.5873 70.7059L45.5962 70.5616C45.5972 70.5462 45.6054 70.5367 45.6208 70.5332C45.9269 70.467 45.968 70.2741 45.968 69.9794C45.968 67.7813 45.968 65.5833 45.968 63.3852C45.968 63.1339 45.8526 62.9843 45.6218 62.9364C45.6003 62.9319 45.5896 62.9188 45.5896 62.8971V62.7618C45.5896 62.7439 45.5986 62.7349 45.6166 62.7349C47.4602 62.7349 49.3037 62.7349 51.1471 62.7349C51.8064 62.7349 52.5461 62.8829 53.0834 63.2211C53.6675 63.5886 53.8534 64.3529 53.8037 65.0113C53.7508 65.7084 53.3908 66.2424 52.7519 66.5267ZM47.7057 64.0871V65.8863C47.7057 65.8932 47.7084 65.8998 47.7133 65.9047C47.7182 65.9096 47.7248 65.9123 47.7317 65.9123H51.0875C51.216 65.9123 51.3433 65.8915 51.4621 65.851C51.5809 65.8106 51.6888 65.7513 51.7798 65.6765C51.8707 65.6018 51.9428 65.513 51.992 65.4154C52.0412 65.3177 52.0665 65.213 52.0665 65.1073V64.8661C52.0665 64.7604 52.0412 64.6557 51.992 64.558C51.9428 64.4604 51.8707 64.3716 51.7798 64.2969C51.6888 64.2221 51.5809 64.1628 51.4621 64.1224C51.3433 64.0819 51.216 64.0611 51.0875 64.0611H47.7317C47.7248 64.0611 47.7182 64.0638 47.7133 64.0687C47.7084 64.0736 47.7057 64.0802 47.7057 64.0871ZM47.7076 67.2522L47.7038 69.3995C47.7038 69.4027 47.7051 69.4057 47.7073 69.4079C47.7095 69.4101 47.7125 69.4113 47.7156 69.4113L51.0676 69.417C51.2284 69.4173 51.3876 69.3925 51.5363 69.344C51.6849 69.2955 51.82 69.2242 51.9339 69.1342C52.0477 69.0443 52.1381 68.9374 52.1998 68.8197C52.2615 68.7021 52.2934 68.5759 52.2935 68.4484V68.2185C52.2939 67.9612 52.1654 67.7142 51.9362 67.5318C51.707 67.3495 51.3959 67.2467 51.0714 67.2461L47.7194 67.2404C47.7163 67.2404 47.7133 67.2417 47.7111 67.2439C47.7088 67.2461 47.7076 67.2491 47.7076 67.2522Z" fill="#C79A73"/>
<path d="M59.6571 68.7284C59.3515 69.3527 59.148 69.7834 59.0465 70.0205C58.9301 70.2916 59.1425 70.4803 59.3804 70.5394C59.3936 70.5425 59.4003 70.5511 59.4003 70.5649V70.7101C59.4003 70.73 59.3903 70.7399 59.3705 70.7399H56.7932C56.7734 70.7399 56.7634 70.73 56.7634 70.7101V70.5753C56.7634 70.5574 56.7721 70.5465 56.7894 70.5427C57.2265 70.4486 57.3755 69.9747 57.5684 69.5698C58.4992 67.6202 59.4305 65.6708 60.3623 63.7215C60.4857 63.4637 60.5567 63.2395 60.3434 63.0328C60.2507 62.943 60.0828 62.9661 60.1551 62.7543C60.1595 62.7413 60.1685 62.7349 60.1821 62.7349H62.9475C62.9712 62.7349 62.983 62.7467 62.983 62.7703V62.8999C62.983 62.9079 62.9806 62.9157 62.976 62.9223C62.9714 62.9288 62.9649 62.9337 62.9575 62.9364C62.5853 63.0674 62.5696 63.2793 62.7305 63.6061C64.4032 67.0109 65.4871 69.1998 65.9821 70.1728C66.0818 70.3686 66.2544 70.491 66.5 70.5399C66.5152 70.543 66.5229 70.5523 66.5232 70.5678V70.7139C66.5232 70.7313 66.5146 70.7399 66.4972 70.7399H63.5979C63.5821 70.7399 63.5742 70.732 63.5742 70.7163V70.5749C63.5743 70.5667 63.5772 70.5588 63.5826 70.5525C63.588 70.5463 63.5954 70.5422 63.6036 70.5408C63.9157 70.4921 64.0595 70.2826 63.9219 69.9789C63.763 69.6273 63.5591 69.2111 63.3103 68.7303C63.3018 68.7139 63.2883 68.7057 63.2696 68.7057L59.6926 68.7066C59.6762 68.7066 59.6643 68.7139 59.6571 68.7284ZM60.1963 67.5805C60.1951 67.5828 60.1946 67.5854 60.1948 67.5879C60.1949 67.5905 60.1957 67.593 60.1971 67.5952C60.1984 67.5973 60.2003 67.5991 60.2026 67.6004C60.2049 67.6016 60.2074 67.6022 60.21 67.6022L62.7735 67.6112C62.776 67.6112 62.7785 67.6106 62.7807 67.6093C62.7829 67.6081 62.7847 67.6064 62.7861 67.6043C62.7875 67.6022 62.7883 67.5997 62.7885 67.5972C62.7887 67.5947 62.7882 67.5922 62.7872 67.5899L61.5154 64.7857C61.5142 64.7831 61.5122 64.7809 61.5098 64.7793C61.5074 64.7778 61.5046 64.7769 61.5017 64.7769C61.4988 64.7769 61.496 64.7778 61.4935 64.7793C61.4911 64.7809 61.4892 64.7831 61.488 64.7857L60.1963 67.5805Z" fill="#C79A73"/>
<path d="M47.7056 64.0871C47.7056 64.0802 47.7083 64.0735 47.7132 64.0687C47.7181 64.0638 47.7247 64.061 47.7316 64.061H51.0873C51.2159 64.061 51.3432 64.0819 51.462 64.1223C51.5808 64.1628 51.6887 64.2221 51.7796 64.2968C51.8705 64.3716 51.9426 64.4603 51.9919 64.558C52.0411 64.6556 52.0664 64.7603 52.0664 64.866V65.1073C52.0664 65.213 52.0411 65.3176 51.9919 65.4153C51.9426 65.513 51.8705 65.6017 51.7796 65.6765C51.6887 65.7512 51.5808 65.8105 51.462 65.851C51.3432 65.8914 51.2159 65.9123 51.0873 65.9123H47.7316C47.7247 65.9123 47.7181 65.9095 47.7132 65.9046C47.7083 65.8998 47.7056 65.8931 47.7056 65.8862V64.0871Z" fill="#272360"/>
<path d="M60.1963 67.5804L61.488 64.7856C61.4893 64.783 61.4912 64.7808 61.4936 64.7792C61.4961 64.7777 61.4989 64.7769 61.5018 64.7769C61.5046 64.7769 61.5075 64.7777 61.5099 64.7792C61.5123 64.7808 61.5143 64.783 61.5155 64.7856L62.7873 67.5898C62.7883 67.5921 62.7887 67.5947 62.7886 67.5972C62.7884 67.5997 62.7875 67.6021 62.7862 67.6042C62.7848 67.6063 62.783 67.608 62.7808 67.6093C62.7786 67.6105 62.7761 67.6111 62.7736 67.6111L60.2101 67.6021C60.2075 67.6022 60.205 67.6015 60.2027 67.6003C60.2004 67.5991 60.1985 67.5973 60.1972 67.5951C60.1958 67.5929 60.195 67.5904 60.1948 67.5878C60.1947 67.5853 60.1952 67.5827 60.1963 67.5804Z" fill="#272360"/>
<path d="M47.7074 67.2521C47.7074 67.2489 47.7086 67.2459 47.7109 67.2437C47.7131 67.2415 47.7161 67.2402 47.7192 67.2402L51.0712 67.2459C51.3957 67.2465 51.7068 67.3493 51.936 67.5317C52.1652 67.714 52.2937 67.961 52.2933 68.2183V68.4482C52.2932 68.5757 52.2613 68.7019 52.1996 68.8196C52.1379 68.9372 52.0475 69.0441 51.9337 69.1341C51.8198 69.224 51.6847 69.2953 51.5361 69.3438C51.3874 69.3923 51.2282 69.4172 51.0674 69.4169L47.7154 69.4112C47.7123 69.4112 47.7093 69.4099 47.7071 69.4077C47.7049 69.4055 47.7036 69.4025 47.7036 69.3994L47.7074 67.2521Z" fill="#272360"/>
</svg>
