<svg width="100" height="100" viewBox="0 0 100 100" fill="none" xmlns="http://www.w3.org/2000/svg">
<rect width="100" height="100" fill="white"/>
<g clip-path="url(#clip0_74_4127)">
<path d="M75.02 31.9648H94.0001V38.7452L87.8363 38.7482C87.8223 38.7482 87.8154 38.7551 87.8154 38.7691V66.0288C87.8154 66.0373 87.812 66.0455 87.806 66.0515C87.8 66.0575 87.7918 66.0609 87.7833 66.0609L81.3529 66.0604C81.3244 66.0604 81.3102 66.0463 81.3102 66.0181V38.7644C81.3102 38.747 81.3015 38.7383 81.2841 38.7383L75.0447 38.74C75.0381 38.74 75.0316 38.7373 75.0269 38.7325C75.0222 38.7277 75.0195 38.7212 75.0195 38.7144L75.02 31.9648Z" fill="#1DAD4B"/>
<path d="M19.6235 42.3261H28.0621C28.0763 42.3261 28.0835 42.3332 28.0835 42.3475V48.0528C28.0835 48.0662 28.0768 48.0729 28.0634 48.0729H19.6235C19.6179 48.0729 19.6124 48.0751 19.6084 48.0791C19.6044 48.0831 19.6022 48.0886 19.6022 48.0942V66.0395C19.6022 66.0452 19.5999 66.0506 19.5959 66.0546C19.5919 66.0586 19.5865 66.0609 19.5808 66.0609H11.3324C11.3133 66.0609 11.3036 66.0515 11.3033 66.0327C11.3016 65.9184 11.3008 65.8059 11.3008 65.6951C11.2948 54.567 11.2914 43.4406 11.2905 32.3156C11.2905 32.3075 11.2937 32.2998 11.2994 32.294C11.3051 32.2883 11.3128 32.285 11.3209 32.2849L31.3286 32.1956C31.3585 32.1953 31.3734 32.2102 31.3734 32.2404V38.7477C31.3734 38.7534 31.3712 38.7588 31.3672 38.7628C31.3632 38.7668 31.3577 38.7691 31.3521 38.7691H19.6129C19.61 38.7691 19.6073 38.7702 19.6053 38.7722C19.6033 38.7742 19.6022 38.7769 19.6022 38.7798V42.3047C19.6022 42.319 19.6093 42.3261 19.6235 42.3261Z" fill="#3B60AD"/>
<path d="M47.6191 48.8539L47.6204 59.0964C47.6204 59.1106 47.6131 59.1177 47.5986 59.1177H42.086C42.0697 59.1177 42.061 59.1098 42.0599 59.0938C42.0496 58.9517 42.0445 58.8591 42.0445 58.8161C42.0439 49.977 42.0438 41.139 42.0441 32.3019C42.0441 32.2976 42.0458 32.2935 42.049 32.2905C42.0521 32.2874 42.0563 32.2857 42.0608 32.2857C45.0166 32.2849 47.9734 32.285 50.9313 32.2861C51.6647 32.2864 52.4061 32.3693 53.1552 32.5348C57.3506 33.462 59.3916 37.3454 59.1096 41.3895C58.9024 44.3607 56.1798 46.4347 53.6769 47.5106C53.6723 47.5125 53.6683 47.5154 53.665 47.5192C53.6618 47.523 53.6595 47.5275 53.6583 47.5323C53.6571 47.5371 53.657 47.5422 53.6581 47.5471C53.6592 47.552 53.6614 47.5566 53.6645 47.5606L60.6491 56.088C60.6599 56.1011 60.6583 56.1125 60.6444 56.1222L55.7564 59.5634C55.7515 59.5669 55.7453 59.5684 55.7393 59.5674C55.7333 59.5664 55.728 59.5631 55.7244 59.5582L47.646 48.8449C47.6281 48.8213 47.6191 48.8243 47.6191 48.8539ZM47.6178 43.1511C48.9463 43.14 50.2647 43.0231 51.573 42.8004C51.8576 42.7521 52.199 42.6717 52.4498 42.5718C53.8884 41.9967 53.8247 40.3906 53.5133 39.137C53.4594 38.9196 53.3915 38.7476 53.3094 38.6208C52.9027 37.9927 51.9755 37.6629 51.2833 37.5095C50.1207 37.2518 48.9244 37.2194 47.7186 37.2677C47.6876 37.2688 47.6719 37.285 47.6716 37.3164L47.605 43.1383C47.605 43.1469 47.6093 43.1511 47.6178 43.1511Z" fill="#F8981C"/>
<path d="M36.7111 40.6326C38.5745 40.6326 40.0852 39.1219 40.0852 37.2584C40.0852 35.3949 38.5745 33.8843 36.7111 33.8843C34.8476 33.8843 33.3369 35.3949 33.3369 37.2584C33.3369 39.1219 34.8476 40.6326 36.7111 40.6326Z" fill="#E01F28"/>
<path d="M71.6993 59.3459C72.1843 58.4585 71.24 57.3736 70.6474 56.8131C70.2739 56.4599 69.7162 55.9743 68.9742 55.3565C67.3155 53.9751 65.6231 52.6361 63.9623 51.2569C62.5959 50.1225 61.6042 48.636 61.0719 46.9491C60.31 44.5364 61.0103 41.8788 62.945 40.2299C64.7494 38.693 67.3647 38.0534 69.6899 38.1628C70.4239 38.197 71.0862 38.3324 71.7519 38.6084C73.4588 39.3164 75.0948 40.4457 76.5018 41.6331C77.0978 42.1364 77.7345 42.7209 78.131 43.396C78.1345 43.4019 78.1356 43.4089 78.1342 43.4157C78.1328 43.4225 78.1289 43.4286 78.1233 43.4327L73.5571 46.8252C73.5394 46.8381 73.5239 46.8359 73.5105 46.8188C72.7085 45.7844 71.5335 44.7534 70.2949 44.359C69.7881 44.1978 69.2585 44.1296 68.7059 44.1544C67.8975 44.1911 66.9575 44.6398 67.454 45.6379C67.6445 46.0207 68.1017 46.3634 68.4516 46.639C70.4688 48.2258 72.4863 49.8106 74.4031 51.5192C75.2639 52.2869 76.0366 53.0665 76.7214 53.8581C77.1871 54.3973 77.6584 55.0732 77.8362 55.7658C77.8997 56.0125 77.9917 56.4913 78.1122 57.2023C78.4993 59.4818 78.298 61.8732 76.6667 63.6391C76.123 64.2276 75.4715 64.7225 74.7124 65.1239C73.1241 65.9636 71.4385 66.4551 69.6557 66.5984C65.2544 66.9513 61.5491 64.5402 59.5431 60.7384C59.5343 60.7219 59.5371 60.7078 59.5516 60.6961L64.4182 56.7742C64.4404 56.7562 64.4588 56.7597 64.4733 56.7844C65.3757 58.3166 67.1169 60.5504 69.1113 60.4393C69.9531 60.3923 71.2661 60.1389 71.6993 59.3459Z" fill="#3B60AD"/>
<path d="M40.0351 42.5078H33.4877C33.4815 42.5078 33.4766 42.5128 33.4766 42.5189V65.8572C33.4766 65.8633 33.4815 65.8683 33.4877 65.8683H40.0351C40.0413 65.8683 40.0462 65.8633 40.0462 65.8572V42.5189C40.0462 42.5128 40.0413 42.5078 40.0351 42.5078Z" fill="#E01F28"/>
<path d="M91.8738 74.4262C88.365 73.5794 84.7679 73.0551 81.1852 72.6355C76.1276 72.0429 71.0504 71.6306 65.9685 71.3153C59.1131 70.8897 52.252 70.6024 45.3853 70.4535C37.5594 70.2843 29.5374 70.6667 21.7701 71.3242C16.678 71.7555 11.5982 72.3035 6.53076 72.9684C6.05934 73.0305 5.58849 73.0966 5.11821 73.1666C5.11052 73.1678 5.10468 73.1662 5.10069 73.1619C5.09186 73.1525 5.09371 73.1464 5.10624 73.1436C6.87827 72.7006 8.50303 72.3272 9.98052 72.0233C14.6161 71.069 19.3685 70.28 24.2376 69.6562C31.3286 68.7478 38.3359 68.1729 45.2596 67.9313C46.4791 67.8886 47.9318 67.8769 49.6178 67.8963C55.4 67.9625 61.1698 68.4449 66.8974 69.2315C75.2992 70.386 83.6591 72.0814 91.8212 74.3925C91.8229 74.393 91.8298 74.3936 91.8417 74.3942C91.8557 74.3953 91.8664 74.406 91.8738 74.4262Z" fill="#3B60AD"/>
</g>
<defs>
<clipPath id="clip0_74_4127">
<rect width="89" height="42.9405" fill="white" transform="translate(5 31.9648)"/>
</clipPath>
</defs>
</svg>
