<svg width="100" height="100" viewBox="0 0 100 100" fill="none" xmlns="http://www.w3.org/2000/svg">
<rect width="100" height="100" fill="#DEF1FF"/>
<path d="M55.7571 25.6157L13.8472 51.9332C13.8077 51.9587 13.7634 51.9759 13.717 51.9836C13.6706 51.9914 13.6232 51.9896 13.5775 51.9784C13.5319 51.9671 13.489 51.9467 13.4515 51.9183C13.4141 51.8899 13.3828 51.8541 13.3597 51.8132C12.7897 50.7832 12.8972 50.0207 13.6822 49.5257C27.7021 40.7057 41.7321 31.8982 55.7721 23.1032C55.9871 22.9682 56.2046 22.9657 56.4246 23.0957C64.0746 27.5707 71.7221 32.0132 79.367 36.4232C81.5345 37.6682 83.2895 38.1557 85.127 36.3107C85.1818 36.2562 85.2524 36.2204 85.3287 36.2084C85.4049 36.1963 85.4831 36.2086 85.552 36.2434C85.6209 36.2783 85.6771 36.334 85.7125 36.4026C85.748 36.4712 85.7609 36.5493 85.7495 36.6257L85.502 38.3057C85.467 38.5357 85.3645 38.7282 85.1945 38.8832C83.7145 40.2482 82.0095 40.3782 80.0795 39.2732C72.1846 34.7382 64.3046 30.1807 56.4396 25.6007C56.2096 25.4657 55.9821 25.4707 55.7571 25.6157Z" fill="#2F3A93"/>
<path d="M55.6977 30.8055L13.8703 56.7931C13.5903 56.9681 13.3828 56.9031 13.2478 56.5981C12.8278 55.6156 13.4353 54.8281 14.2827 54.2956C28.0977 45.5956 41.8652 36.938 55.5852 28.323C55.7438 28.2256 55.9253 28.1727 56.1102 28.17C56.2952 28.1674 56.4766 28.2151 56.6352 28.308C64.4002 32.903 72.2126 37.448 80.0726 41.9431C81.9976 43.0431 83.5726 42.9581 84.7976 41.6881C84.926 41.5529 85.0992 41.4693 85.2849 41.4528C85.4705 41.4364 85.6558 41.4883 85.8058 41.5988C85.9559 41.7093 86.0605 41.8708 86.1 42.0529C86.1394 42.2351 86.111 42.4254 86.0201 42.5881C84.5701 45.2131 82.5401 45.7856 79.9301 44.3056C72.0701 39.8455 64.2351 35.343 56.4252 30.798C56.1802 30.658 55.9377 30.6605 55.6977 30.8055Z" fill="#71AFE0"/>
<path d="M56.4324 33.4981C64.7199 38.2831 73.1498 42.9706 81.4223 47.8756C82.9373 48.7756 83.9423 47.5006 85.2923 46.8106C85.5773 46.6606 85.7248 46.7481 85.7348 47.0731C85.8323 50.7856 81.7973 50.7931 79.4048 49.3906C71.7748 44.9056 64.1799 40.4431 56.6199 36.0031C56.4893 35.9261 56.3397 35.8868 56.1876 35.8895C56.0355 35.8921 55.8866 35.9366 55.7574 36.0181L13.87 61.8556C13.57 62.0406 13.36 61.9706 13.24 61.6456C12.8275 60.5581 13.0825 59.7106 14.11 59.0806C27.9699 50.5256 41.8099 42.0031 55.6299 33.5131C55.7497 33.4381 55.8877 33.3971 56.029 33.3944C56.1704 33.3918 56.3098 33.4276 56.4324 33.4981Z" fill="#2F3A93"/>
<path d="M39.2276 56.1555V76.8255C39.2277 76.8787 39.2143 76.931 39.1887 76.9776C39.1631 77.0242 39.1261 77.0636 39.0812 77.092C39.0362 77.1205 38.9848 77.1371 38.9318 77.1403C38.8787 77.1436 38.8257 77.1333 38.7776 77.1105L13.7202 65.538C13.3152 65.348 13.3027 65.1355 13.6827 64.9005L55.5176 38.658C55.7002 38.543 55.911 38.4808 56.1267 38.4781C56.3425 38.4755 56.5547 38.5325 56.7401 38.643C64.2101 43.053 71.765 47.5105 79.405 52.0155C81.41 53.2005 83.33 53.103 85.165 51.723C85.2148 51.684 85.2742 51.6595 85.337 51.652C85.3998 51.6445 85.4636 51.6543 85.5219 51.6803C85.5801 51.7064 85.6307 51.7477 85.6682 51.8001C85.7056 51.8525 85.7287 51.9139 85.735 51.978C85.955 54.353 84.81 55.5505 82.3 55.5705C68.0601 55.6805 53.8151 55.7605 39.5651 55.8105C39.3401 55.8105 39.2276 55.9255 39.2276 56.1555Z" fill="#71AFE0"/>
<path d="M45.7601 66.4456L48.0475 63.9181C48.2125 63.7331 48.42 63.6406 48.67 63.6406H51.7825C51.8518 63.6413 51.9192 63.6624 51.9766 63.7011C52.0339 63.7399 52.0785 63.7947 52.1049 63.8587C52.1313 63.9227 52.1383 63.993 52.125 64.0609C52.1117 64.1288 52.0786 64.1914 52.03 64.2406L48.8575 67.4206C48.6425 67.6356 48.6125 67.8756 48.7675 68.1406L52.3075 74.1856C52.5325 74.5706 52.4225 74.7531 51.9775 74.7331L49.375 74.6281C49.08 74.6181 48.86 74.4856 48.715 74.2306L46.7876 70.8031C46.7091 70.6679 46.5888 70.5618 46.4447 70.501C46.3007 70.4401 46.1408 70.4279 45.9891 70.466C45.8375 70.5041 45.7024 70.5906 45.6042 70.7123C45.506 70.834 45.4502 70.9844 45.4451 71.1406L45.4001 74.2531C45.3981 74.3752 45.3474 74.4916 45.259 74.5771C45.1706 74.6627 45.0516 74.7107 44.9276 74.7106L42.5651 74.6956C42.447 74.6937 42.3345 74.6454 42.2517 74.5612C42.1689 74.477 42.1225 74.3637 42.1226 74.2456L42.2726 60.0556C42.2726 59.8206 42.3901 59.7031 42.6251 59.7031H44.9576C45.2826 59.7031 45.4426 59.8631 45.4376 60.1831L45.3626 66.2956C45.3576 66.6956 45.4901 66.7456 45.7601 66.4456Z" fill="#2F3A93"/>
<path d="M59.6726 64.0681C68.7701 60.3931 69.0551 76.0906 61.1651 74.7781C60.9422 74.7435 60.7281 74.6645 60.5351 74.5456C59.7251 74.0356 58.9226 74.0681 58.1276 74.6431C57.9388 74.7817 57.7154 74.8652 57.4821 74.8845C57.2487 74.9038 57.0146 74.8581 56.8057 74.7525C56.5967 74.6469 56.4212 74.4854 56.2984 74.2861C56.1756 74.0867 56.1104 73.8573 56.1101 73.6231L56.0801 60.1831C56.0801 59.8631 56.2401 59.7031 56.5601 59.7031H58.9151C59.1651 59.7031 59.2901 59.8281 59.2901 60.0781V63.8131C59.2901 64.0881 59.4176 64.1731 59.6726 64.0681ZM61.3736 72.1525C61.6444 72.1473 61.9111 72.0633 62.1583 71.9051C62.4056 71.7469 62.6286 71.5177 62.8146 71.2307C63.0007 70.9436 63.1461 70.6042 63.2426 70.232C63.3392 69.8597 63.3849 69.4618 63.3772 69.061C63.3616 68.2516 63.1295 67.4795 62.7318 66.9146C62.3341 66.3497 61.8034 66.0382 61.2565 66.0487C60.9857 66.0539 60.7191 66.138 60.4718 66.2962C60.2246 66.4544 60.0016 66.6835 59.8155 66.9706C59.6295 67.2577 59.484 67.597 59.3875 67.9693C59.291 68.3416 59.2453 68.7394 59.2529 69.1402C59.2685 69.9496 59.5007 70.7217 59.8984 71.2866C60.2961 71.8516 60.8267 72.163 61.3736 72.1525Z" fill="#2F3A93"/>
<path d="M85.1376 59.7126L82.9176 59.7087C82.6152 59.7082 82.3697 59.9529 82.3692 60.2553L82.3657 62.2203C82.3652 62.5226 82.6099 62.7682 82.9123 62.7687L85.1323 62.7726C85.4346 62.7731 85.6802 62.5284 85.6807 62.226L85.6842 60.261C85.6847 59.9587 85.44 59.7131 85.1376 59.7126Z" fill="#71AFE0"/>
<path d="M75.4975 63.7007C76.4375 63.3057 77.37 63.3607 78.295 63.8657C78.555 64.0057 78.635 64.2157 78.535 64.4957L77.7625 66.6932C77.746 66.7408 77.7188 66.784 77.6829 66.8196C77.647 66.8552 77.6034 66.8822 77.5552 66.8988C77.507 66.9153 77.4555 66.9209 77.4044 66.9152C77.3533 66.9095 77.304 66.8926 77.26 66.8657C76.01 66.0907 75.2125 66.3257 74.8675 67.5707C74.4375 69.1357 74.3475 71.3332 74.5975 74.1632C74.6038 74.2319 74.5955 74.301 74.573 74.3663C74.5506 74.4316 74.5146 74.4916 74.4673 74.5425C74.42 74.5933 74.3624 74.6338 74.2983 74.6615C74.2342 74.6892 74.165 74.7034 74.095 74.7032H71.665C71.415 74.7032 71.29 74.5782 71.29 74.3282V63.9782C71.29 63.6982 71.43 63.5682 71.71 63.5882L74.815 63.8132C75.055 63.8332 75.2825 63.7957 75.4975 63.7007Z" fill="#2F3A93"/>
<path d="M85.2327 63.6482H82.8327C82.5635 63.6482 82.3452 63.8665 82.3452 64.1357V74.1557C82.3452 74.4249 82.5635 74.6432 82.8327 74.6432H85.2327C85.5019 74.6432 85.7202 74.4249 85.7202 74.1557V64.1357C85.7202 63.8665 85.5019 63.6482 85.2327 63.6482Z" fill="#71AFE0"/>
</svg>
