<svg width="100" height="100" viewBox="0 0 100 100" fill="none" xmlns="http://www.w3.org/2000/svg">
<rect width="100" height="100" fill="white"/>
<g clip-path="url(#clip0_74_4129)">
<path d="M47.5525 56.3856C49.9519 59.0731 52.3356 61.4481 55.1156 64.2875C55.7912 64.9775 56.1063 65.8625 56.0363 66.83C55.9725 67.7125 54.7819 67.9163 54.1181 68.0713C54.0956 68.0767 54.0755 68.0893 54.0608 68.1071C54.0462 68.1249 54.0378 68.147 54.0369 68.17L54 69.0175C53.9991 69.035 54.0052 69.0522 54.0169 69.0653C54.0286 69.0784 54.045 69.0864 54.0625 69.0875C57.3356 69.2813 60.6006 69.1094 63.8713 69.1719C65.7419 69.2069 67.2144 69.2144 68.875 69.0756C68.9629 69.0685 69.0525 69.0575 69.1437 69.0425C69.1662 69.0388 69.1765 69.0256 69.1744 69.0031C69.0469 67.555 67.875 66.5713 66.9875 65.5556C65.6825 64.0638 64.3537 62.5919 63.0544 61.095C59.5919 57.1081 56.1131 53.1369 52.6275 49.17C52.2069 48.6912 51.5531 48.1387 51.9444 47.4281C52.2219 46.9235 52.5067 46.4848 52.7988 46.1119C54.8529 43.4856 56.891 40.8469 58.9131 38.1956C60.1406 36.5856 61.4306 35.0219 62.7625 33.4969C62.8 33.454 62.841 33.4133 62.8856 33.375C62.9015 33.3613 62.9198 33.3535 62.9406 33.3519L64.5719 33.2288C64.5935 33.2275 64.6046 33.2158 64.605 33.1938L64.6281 31.3144C64.6282 31.3101 64.6274 31.3058 64.6258 31.3017C64.6242 31.2977 64.6219 31.2941 64.6188 31.291C64.6158 31.2879 64.6122 31.2855 64.6082 31.2838C64.6042 31.2821 64.5999 31.2812 64.5956 31.2813H52.1413C52.1312 31.2812 52.1214 31.2847 52.1137 31.2911C52.1059 31.2975 52.1006 31.3064 52.0988 31.3163L51.9106 32.2512C51.9065 32.2708 51.9125 32.2867 51.9287 32.2988C52.6992 32.865 53.4927 33.3963 54.3094 33.8925C54.3252 33.9021 54.3302 33.9156 54.3244 33.9331C54.1044 34.595 53.8169 35.045 53.3444 35.6488C51.4081 38.1225 49.381 40.7596 47.2631 43.56C46.8835 44.0617 46.4379 44.5192 45.9263 44.9325C45.9079 44.9471 45.8973 44.9429 45.8944 44.92C45.8852 44.855 45.88 44.7723 45.8787 44.6719C45.8275 41.2281 45.8675 38.7456 45.8406 34.535C45.8388 34.2569 45.9313 33.7244 46.1775 33.5075C46.6708 33.0733 47.1835 32.6608 47.7156 32.27C47.7335 32.2567 47.7404 32.2392 47.7363 32.2175L47.5669 31.3213C47.5651 31.3118 47.5602 31.3032 47.5529 31.2971C47.5456 31.2909 47.5364 31.2875 47.5269 31.2875L35.4363 31.29C35.4204 31.29 35.4127 31.2979 35.4131 31.3137L35.4794 33.5519C35.4798 33.5752 35.4898 33.5931 35.5094 33.6056L37.0187 34.5781C37.0322 34.5867 37.0432 34.5986 37.0509 34.6125C37.0585 34.6265 37.0625 34.6422 37.0625 34.6581V67.4087C37.0625 67.4321 37.051 67.4448 37.0281 67.4469L35.325 67.5981C35.3063 67.5998 35.2969 67.61 35.2969 67.6287V68.72C35.2968 68.7331 35.3018 68.7458 35.3107 68.7554C35.3197 68.765 35.3319 68.7709 35.345 68.7719C36.2283 68.8327 37.0925 68.8631 37.9375 68.8631C40.6288 68.8638 43.3194 68.8613 46.0112 68.8706C47.0462 68.8744 47.9894 68.825 48.9738 68.72C48.9786 68.7195 48.9833 68.718 48.9875 68.7156C48.9918 68.7131 48.9955 68.7099 48.9985 68.706C49.0014 68.7021 49.0036 68.6976 49.0048 68.6928C49.0061 68.688 49.0063 68.683 49.0056 68.6781L48.8862 67.9C48.8839 67.8844 48.8763 67.8699 48.8646 67.8591C48.853 67.8482 48.8379 67.8415 48.8219 67.84L45.9269 67.6006C45.8819 67.5969 45.8594 67.5723 45.8594 67.5269C45.8562 63.3394 45.8413 59.1687 45.8913 55.0025C45.8913 54.9817 45.8998 54.9773 45.9169 54.9894C46.6106 55.476 47.1558 55.9415 47.5525 56.3856Z" stroke="#507DBD" stroke-width="0.125"/>
<path d="M47.4281 4H53.0037C53.3042 4.04458 53.6048 4.08729 53.9056 4.12812C59.5537 4.8925 64.9469 6.94625 69.53 10.3606C73.4387 13.2723 76.7113 16.6929 79.3475 20.6225C82.2121 24.8917 84.3615 29.5362 85.7956 34.5562C86.5619 37.2375 87.1581 39.8963 87.4825 42.6725C87.565 43.3763 87.7375 44.711 88 46.6769V54.2212C87.8233 55.5071 87.6598 56.794 87.5094 58.0819C87.2438 60.3575 86.8063 62.3925 86.2194 64.6437C83.7356 74.1781 78.5387 83.1575 70.7669 89.36C65.8419 93.2913 59.9875 95.7744 53.6987 96.5625H47.5C42.4229 95.94 37.7298 94.291 33.4206 91.6156C32.1613 90.8337 31.0037 89.9581 29.8037 88.9613C26.8104 86.4758 24.2315 83.6748 22.0669 80.5581C18.9056 76.0063 16.5794 70.9062 15.0812 65.5644C14.5512 63.6752 14.2056 62.3206 14.0444 61.5006C13.5831 59.1525 13.3388 56.77 13 54.4012V47.3094C13.2819 44.9469 13.4869 42.4012 13.8775 40.2225C13.9987 39.5471 14.2025 38.5563 14.4887 37.25C15.7575 31.4656 18.1912 26.1075 21.3875 21.1381C24.14 16.8587 27.7469 12.9819 31.9406 10.0813C32.194 9.90625 32.6921 9.57292 33.435 9.08125C37.6319 6.3025 42.4944 4.79625 47.4281 4ZM47.0513 5.55813C38.7106 6.51125 31.105 11.3331 25.77 17.6763C19.5275 25.0994 16.0294 34.2056 14.7962 43.755C14.7446 44.1579 14.7054 44.5725 14.6788 44.9987C14.4754 48.25 14.4602 51.5021 14.6331 54.755C14.6565 55.1863 14.6892 55.6015 14.7313 56.0006C15.7019 65.195 18.8906 74.0181 24.4969 81.4075C26.69 84.2988 29.3462 86.8419 32.23 89.035C39.2113 94.3456 48.6775 96.6163 57.2375 94.5038C68.2312 91.79 76.7519 83.3688 81.4794 73.3506C86.2131 63.3194 87.6556 52.0338 85.8112 41.11C83.5737 27.8594 76.3069 14.95 64.0006 8.62125C58.7775 5.935 52.8906 4.89062 47.0513 5.55813Z" fill="#133283"/>
<path d="M60.0337 38.2313C60.0334 38.2271 60.0319 38.2231 60.0294 38.2197C60.0269 38.2163 60.0235 38.2137 60.0196 38.2121C60.0157 38.2105 60.0115 38.2101 60.0073 38.2108C60.0032 38.2116 59.9993 38.2135 59.9962 38.2163C59.5641 38.6025 59.1775 39.0321 58.8362 39.505C57.0168 42.0238 54.9531 44.3669 53.205 46.9332C53.2035 46.9353 53.2026 46.9378 53.2024 46.9404C53.2021 46.9429 53.2025 46.9455 53.2035 46.9478C53.2045 46.9502 53.2061 46.9522 53.2081 46.9536C53.2101 46.9551 53.2125 46.956 53.215 46.9563C60.2806 47.9007 67.3043 49.135 74.3412 50.2657C74.3523 50.2673 74.3626 50.2724 74.3706 50.2802C74.3786 50.2879 74.3838 50.2979 74.3856 50.3088C74.5487 51.2232 74.5162 51.9738 74.3912 52.9944C74.1118 55.2744 74.0856 57.6088 73.6368 59.8619C72.9975 63.0713 72.4093 66.3588 71.23 69.4225C70.0293 72.5388 68.69 75.5213 66.7987 78.2219C66.5504 78.5765 66.2991 78.909 66.045 79.2194C63.5418 82.2732 60.1456 84.8163 56.3843 86.0275C55.996 86.1525 55.5922 86.254 55.1731 86.3319C52.725 86.7844 50.2575 86.9363 47.8181 86.335C46.3347 85.9692 44.8891 85.4902 43.4812 84.8982C37.575 82.4144 32.8306 77.7919 30.1287 71.9957C28.6958 68.9223 27.7481 65.6927 27.2856 62.3069C27.2822 62.284 27.2693 62.2698 27.2468 62.2644C27.1931 62.2523 27.1304 62.2436 27.0587 62.2382C25.6506 62.1294 23.9375 62.0713 22.7981 61.0682C22.485 60.7919 22.3731 59.8457 22.365 59.4725C22.3487 58.7404 22.3627 57.8696 22.4068 56.86C22.4077 56.8388 22.4187 56.8275 22.44 56.8263C26.7481 56.6063 30.84 56.7169 35.5112 56.7375C35.7506 56.7382 36.0381 56.7125 36.3037 56.7194C36.3245 56.7202 36.3352 56.7102 36.3356 56.6894C36.3781 54.3713 36.3987 52.8888 36.2618 51.1782C36.2604 51.1596 36.2528 51.1421 36.2402 51.1284C36.2276 51.1146 36.2108 51.1056 36.1925 51.1025C32.8354 50.5442 29.4839 49.9546 26.1381 49.3338C26.1272 49.3318 26.1174 49.326 26.1105 49.3174C26.1036 49.3088 26.1001 49.2979 26.1006 49.2869C26.2037 47.1032 26.6093 44.96 27.1618 42.8482C27.641 41.0177 28.161 39.199 28.7218 37.3919C30.5137 31.6138 33.2356 25.9469 37.3656 21.4594C39.1 19.5744 40.9475 18.0894 43.2906 16.9607C47.7518 14.8113 53.09 14.5682 57.5787 16.7813C64.3137 20.1019 68.6456 26.7732 71.2606 33.5332C71.7981 34.9227 72.3337 36.3129 72.8675 37.7038C72.9041 37.7992 72.9581 37.8794 73.0293 37.9444C74.3443 39.1469 76.1881 39.4307 77.56 40.5494C77.5764 40.563 77.587 40.5825 77.5893 40.6038C77.7006 41.5763 77.6512 42.3063 77.6343 43.2132C77.6335 43.2727 77.6033 43.3021 77.5437 43.3013C71.8525 43.25 66.1614 43.2494 60.4706 43.2994C60.4252 43.2998 60.4008 43.2775 60.3975 43.2325L60.0337 38.2313ZM47.7768 21.0263C44.7812 23.2025 43.2931 27.0244 43.5068 30.6488C43.5081 30.6713 43.5202 30.6823 43.5431 30.6819C45.1502 30.6569 46.7566 30.6704 48.3625 30.7225C48.381 30.7232 48.3986 30.7308 48.4117 30.744C48.4247 30.7571 48.4321 30.7747 48.4325 30.7932C48.4456 31.3375 48.6468 32.6394 48.1687 32.9819C47.6933 33.3219 47.1972 33.6298 46.6806 33.9057C46.6618 33.9157 46.6506 33.9311 46.6468 33.9519C46.6343 34.0248 46.627 34.0982 46.625 34.1719C46.5487 37.0982 46.5525 39.1825 46.5956 42.9638C46.5956 42.9667 46.5912 42.98 46.5825 43.0038C46.5808 43.0079 46.5791 43.0121 46.5775 43.0163C46.5747 43.0222 46.5744 43.0287 46.5765 43.0345C46.5787 43.0403 46.5832 43.045 46.5892 43.0478C46.5952 43.0506 46.6024 43.0513 46.6093 43.0498C46.6162 43.0482 46.6224 43.0446 46.6268 43.0394C48.935 40.2694 51.1031 37.3225 53.2931 34.4257C53.3064 34.4082 53.3056 34.3913 53.2906 34.375C52.6806 33.7132 51.9018 33.2594 51.15 32.8438C51.1416 32.8392 51.1346 32.8325 51.1297 32.8243C51.1247 32.816 51.122 32.8066 51.1218 32.7969L51.0762 30.5944C51.0758 30.5694 51.0881 30.5569 51.1131 30.5569C53.4643 30.5713 55.8175 30.6038 58.16 30.5119C58.1646 30.5118 58.1692 30.5107 58.1734 30.5087C58.1776 30.5067 58.1814 30.5038 58.1844 30.5003C58.1875 30.4968 58.1898 30.4926 58.1911 30.4882C58.1925 30.4837 58.193 30.479 58.1925 30.4744C57.98 28.1438 56.795 25.8757 55.5781 23.9207C54.95 22.9107 54.1462 21.9894 53.1006 21.3982C51.516 20.5019 49.8481 20.3344 48.0968 20.8957C47.9289 20.9498 47.8222 20.9934 47.7768 21.0263ZM47.5525 56.3857C49.9518 59.0732 52.3356 61.4482 55.1156 64.2875C55.7912 64.9775 56.1062 65.8625 56.0362 66.83C55.9725 67.7125 54.7818 67.9163 54.1181 68.0713C54.0956 68.0767 54.0755 68.0893 54.0608 68.1071C54.0461 68.1249 54.0377 68.147 54.0368 68.17L54 69.0175C53.9991 69.0351 54.0052 69.0522 54.0169 69.0653C54.0286 69.0784 54.0449 69.0864 54.0625 69.0875C57.3356 69.2813 60.6006 69.1094 63.8712 69.1719C65.7418 69.2069 67.2143 69.2144 68.875 69.0757C68.9629 69.0686 69.0525 69.0575 69.1437 69.0425C69.1662 69.0388 69.1764 69.0257 69.1743 69.0032C69.0468 67.555 67.875 66.5713 66.9875 65.5557C65.6825 64.0638 64.3537 62.5919 63.0543 61.095C59.5918 57.1082 56.1131 53.1369 52.6275 49.17C52.2068 48.6913 51.5531 48.1388 51.9443 47.4282C52.2218 46.9236 52.5066 46.4848 52.7987 46.1119C54.8529 43.4857 56.891 40.8469 58.9131 38.1957C60.1406 36.5857 61.4306 35.0219 62.7625 33.4969C62.8 33.454 62.841 33.4134 62.8856 33.375C62.9014 33.3613 62.9197 33.3536 62.9406 33.3519L64.5718 33.2288C64.5935 33.2275 64.6045 33.2159 64.605 33.1938L64.6281 31.3144C64.6282 31.3101 64.6274 31.3058 64.6258 31.3018C64.6242 31.2978 64.6218 31.2941 64.6188 31.291C64.6158 31.2879 64.6121 31.2855 64.6082 31.2838C64.6042 31.2821 64.5999 31.2813 64.5956 31.2813H52.1412C52.1312 31.2812 52.1214 31.2847 52.1136 31.2911C52.1059 31.2975 52.1006 31.3064 52.0987 31.3163L51.9106 32.2513C51.9064 32.2709 51.9125 32.2867 51.9287 32.2988C52.6991 32.865 53.4927 33.3963 54.3093 33.8925C54.3252 33.9021 54.3302 33.9157 54.3243 33.9332C54.1043 34.595 53.8168 35.045 53.3443 35.6488C51.4081 38.1225 49.381 40.7596 47.2631 43.56C46.8835 44.0617 46.4379 44.5192 45.9262 44.9325C45.9079 44.9471 45.8972 44.9429 45.8943 44.92C45.8852 44.855 45.88 44.7723 45.8787 44.6719C45.8275 41.2282 45.8675 38.7457 45.8406 34.535C45.8387 34.2569 45.9312 33.7244 46.1775 33.5075C46.6708 33.0734 47.1835 32.6609 47.7156 32.27C47.7335 32.2567 47.7404 32.2392 47.7362 32.2175L47.5668 31.3213C47.5651 31.3118 47.5601 31.3033 47.5528 31.2971C47.5455 31.2909 47.5363 31.2875 47.5268 31.2875L35.4362 31.29C35.4204 31.29 35.4127 31.2979 35.4131 31.3138L35.4793 33.5519C35.4797 33.5752 35.4897 33.5932 35.5093 33.6057L37.0187 34.5782C37.0321 34.5868 37.0432 34.5986 37.0508 34.6126C37.0585 34.6265 37.0625 34.6422 37.0625 34.6582V67.4088C37.0625 67.4321 37.051 67.4448 37.0281 67.4469L35.325 67.5982C35.3062 67.5998 35.2968 67.61 35.2968 67.6288V68.72C35.2968 68.7332 35.3017 68.7458 35.3107 68.7554C35.3196 68.7651 35.3319 68.771 35.345 68.7719C36.2283 68.8327 37.0925 68.8632 37.9375 68.8632C40.6287 68.8638 43.3193 68.8613 46.0112 68.8707C47.0462 68.8744 47.9893 68.825 48.9737 68.72C48.9785 68.7195 48.9832 68.718 48.9875 68.7156C48.9917 68.7132 48.9954 68.7099 48.9984 68.706C49.0014 68.7021 49.0036 68.6976 49.0048 68.6928C49.006 68.6881 49.0063 68.6831 49.0056 68.6782L48.8862 67.9C48.8839 67.8844 48.8763 67.87 48.8646 67.8591C48.8529 67.8482 48.8379 67.8415 48.8218 67.84L45.9268 67.6007C45.8818 67.5969 45.8593 67.5723 45.8593 67.5269C45.8562 63.3394 45.8412 59.1688 45.8912 55.0025C45.8912 54.9817 45.8997 54.9773 45.9168 54.9894C46.6106 55.4761 47.1558 55.9415 47.5525 56.3857ZM53.3137 67.2294L55.3593 67.0613C55.3665 67.0606 55.3732 67.0572 55.3778 67.0517C55.3825 67.0462 55.3848 67.0391 55.3843 67.0319C55.29 65.78 54.59 64.75 53.6881 63.8588C52.206 62.3954 50.7506 60.9059 49.3218 59.39C48.4756 58.4913 47.6137 57.6438 46.6918 56.8407C46.6854 56.8349 46.6774 56.8312 46.6688 56.8299C46.6603 56.8287 46.6515 56.8299 46.6436 56.8335C46.6357 56.8372 46.629 56.843 46.6242 56.8504C46.6195 56.8577 46.6169 56.8663 46.6168 56.875L46.6062 67.0763C46.6062 67.1071 46.6216 67.1219 46.6525 67.1207C47.665 67.0777 48.6735 67.1169 49.6781 67.2382C49.6893 67.2395 49.6997 67.2449 49.7072 67.2534C49.7147 67.2618 49.7188 67.2726 49.7187 67.2838V69.4188C49.7187 69.4363 49.7097 69.4461 49.6918 69.4482C48.821 69.544 48.1152 69.5919 47.5743 69.5919C45.9206 69.5919 44.2408 69.5859 42.535 69.5738C42.4504 69.5734 42.4131 69.615 42.4231 69.6988C42.531 70.5934 42.717 71.4913 42.9812 72.3925C43.9406 75.665 45.3112 79.6869 48.6025 81.3669C48.7825 81.4586 48.9735 81.5234 49.1756 81.5613C50.6593 81.8375 52.3262 81.7369 53.6306 80.9225C53.9327 80.7342 54.2529 80.47 54.5912 80.13C57.2581 77.4519 58.1531 73.5932 58.3693 69.9288C58.3706 69.9054 58.3597 69.8929 58.3368 69.8913C56.6793 69.745 54.9756 69.7782 53.3137 69.7657C53.305 69.7655 53.2968 69.762 53.2907 69.7559C53.2846 69.7498 53.2812 69.7417 53.2812 69.7332V67.2644C53.2812 67.2427 53.292 67.2311 53.3137 67.2294Z" fill="#133283"/>
<path d="M55.1156 64.2875C52.3356 61.4481 49.9519 59.0731 47.5525 56.3856C47.1558 55.9415 46.6106 55.476 45.9169 54.9894C45.8998 54.9773 45.8913 54.9817 45.8913 55.0025C45.8413 59.1687 45.8562 63.3394 45.8594 67.5269C45.8594 67.5723 45.8819 67.5969 45.9269 67.6006L48.8219 67.84C48.8379 67.8415 48.853 67.8482 48.8646 67.8591C48.8763 67.8699 48.8839 67.8844 48.8862 67.9L49.0056 68.6781C49.0063 68.683 49.0061 68.688 49.0048 68.6928C49.0036 68.6976 49.0014 68.7021 48.9985 68.706C48.9955 68.7099 48.9918 68.7131 48.9875 68.7156C48.9833 68.718 48.9786 68.7195 48.9738 68.72C47.9894 68.825 47.0462 68.8744 46.0112 68.8706C43.3194 68.8613 40.6288 68.8638 37.9375 68.8631C37.0925 68.8631 36.2283 68.8327 35.345 68.7719C35.3319 68.7709 35.3197 68.765 35.3107 68.7554C35.3018 68.7458 35.2968 68.7331 35.2969 68.72V67.6287C35.2969 67.61 35.3063 67.5998 35.325 67.5981L37.0281 67.4469C37.051 67.4448 37.0625 67.4321 37.0625 67.4087V34.6581C37.0625 34.6422 37.0585 34.6265 37.0509 34.6125C37.0432 34.5986 37.0322 34.5867 37.0187 34.5781L35.5094 33.6056C35.4898 33.5931 35.4798 33.5752 35.4794 33.5519L35.4131 31.3137C35.4127 31.2979 35.4204 31.29 35.4363 31.29L47.5269 31.2875C47.5364 31.2875 47.5456 31.2909 47.5529 31.2971C47.5602 31.3032 47.5651 31.3118 47.5669 31.3213L47.7363 32.2175C47.7404 32.2392 47.7335 32.2567 47.7156 32.27C47.1835 32.6608 46.6708 33.0733 46.1775 33.5075C45.9313 33.7244 45.8388 34.2569 45.8406 34.535C45.8675 38.7456 45.8275 41.2281 45.8787 44.6719C45.88 44.7723 45.8852 44.855 45.8944 44.92C45.8973 44.9429 45.9079 44.9471 45.9263 44.9325C46.4379 44.5192 46.8835 44.0617 47.2631 43.56C49.381 40.7596 51.4081 38.1225 53.3444 35.6488C53.8169 35.045 54.1044 34.595 54.3244 33.9331C54.3302 33.9156 54.3252 33.9021 54.3094 33.8925C53.4927 33.3963 52.6992 32.865 51.9287 32.2988C51.9125 32.2867 51.9065 32.2708 51.9106 32.2512L52.0988 31.3163C52.1006 31.3064 52.1059 31.2975 52.1137 31.2911C52.1215 31.2847 52.1312 31.2812 52.1413 31.2813H64.5956C64.5999 31.2812 64.6042 31.2821 64.6082 31.2838C64.6122 31.2855 64.6158 31.2879 64.6188 31.291C64.6219 31.2941 64.6242 31.2977 64.6258 31.3017C64.6274 31.3058 64.6282 31.3101 64.6281 31.3144L64.605 33.1938C64.6046 33.2158 64.5935 33.2275 64.5719 33.2288L62.9406 33.3519C62.9198 33.3535 62.9015 33.3613 62.8856 33.375C62.841 33.4133 62.8 33.454 62.7625 33.4969C61.4306 35.0219 60.1406 36.5856 58.9131 38.1956C56.891 40.8469 54.8529 43.4856 52.7988 46.1119C52.5067 46.4848 52.2219 46.9235 51.9444 47.4281C51.5531 48.1387 52.2069 48.6912 52.6275 49.17C56.1131 53.1369 59.5919 57.1081 63.0544 61.095C64.3538 62.5919 65.6825 64.0638 66.9875 65.5556C67.875 66.5713 69.0469 67.555 69.1744 69.0031C69.1765 69.0256 69.1662 69.0388 69.1437 69.0425C69.0525 69.0575 68.9629 69.0685 68.875 69.0756C67.2144 69.2144 65.7419 69.2069 63.8713 69.1719C60.6006 69.1094 57.3356 69.2812 54.0625 69.0875C54.045 69.0864 54.0286 69.0784 54.0169 69.0653C54.0052 69.0522 53.9991 69.035 54 69.0175L54.0369 68.17C54.0378 68.147 54.0462 68.1249 54.0608 68.1071C54.0755 68.0893 54.0956 68.0767 54.1181 68.0713C54.7819 67.9163 55.9725 67.7125 56.0363 66.83C56.1063 65.8625 55.7912 64.9775 55.1156 64.2875Z" fill="#8DC7F6"/>
</g>
<defs>
<clipPath id="clip0_74_4129">
<rect width="75" height="92.5625" fill="white" transform="translate(13 4)"/>
</clipPath>
</defs>
</svg>
