<svg width="100" height="100" viewBox="0 0 100 100" fill="none" xmlns="http://www.w3.org/2000/svg">
<rect width="100" height="100" fill="white"/>
<path fill-rule="evenodd" clip-rule="evenodd" d="M46.547 57.8864C46.5458 57.8579 46.5533 57.812 46.5697 57.7488C46.4547 57.6338 46.3909 57.5301 46.3784 57.4376C44.9734 47.0351 43.5072 36.6413 41.9797 26.2563C41.9465 26.0308 41.9221 25.8342 41.9005 25.6603L41.9005 25.6601C41.7808 24.695 41.7476 24.4272 40.7722 23.7663C38.2222 22.0363 35.7209 20.3263 33.2684 18.6363C33.2319 18.6113 33.1893 18.5967 33.1451 18.5942C33.1009 18.5916 33.057 18.6011 33.0182 18.6217C32.9794 18.6422 32.9472 18.6731 32.9252 18.7107C32.9031 18.7484 32.8922 18.7914 32.8934 18.8351L33.1859 39.8988C33.2159 42.0538 33.1134 42.0601 32.8784 39.9176L32.1097 32.9726L30.7259 18.7938C30.7228 18.7636 30.7124 18.7346 30.6958 18.7092C30.6792 18.6838 30.6568 18.6627 30.6304 18.6476C30.604 18.6326 30.5744 18.6241 30.5441 18.6228C30.5137 18.6214 30.4835 18.6274 30.4559 18.64L17.9609 24.4675C17.8509 24.5194 17.758 24.6009 17.6929 24.7025C17.6278 24.8041 17.5933 24.9216 17.5934 25.0413L17.5859 33.5388L17.7209 58.1988C17.7234 58.6388 17.9434 58.8776 18.3809 58.9151C22.8322 59.3013 26.7059 58.1351 30.3472 55.8063C30.5228 55.6954 30.7273 55.6391 30.9349 55.6444C31.1425 55.6498 31.3438 55.7165 31.5134 55.8363C35.9034 58.9663 40.6947 59.6613 45.8872 57.9213C45.8947 57.9188 45.9472 57.8926 46.0447 57.8426C46.1745 57.7776 46.3419 57.7923 46.547 57.8864ZM70.6483 64.4811L70.6486 64.4802C72.6886 62.1552 75.6061 61.1427 78.6361 60.7414C78.6593 60.7379 78.6807 60.7263 78.6963 60.7088C78.712 60.6912 78.7211 60.6687 78.722 60.6452C78.7229 60.6216 78.7155 60.5985 78.7012 60.5798C78.6869 60.5611 78.6665 60.548 78.6436 60.5427C75.0098 59.6689 72.7598 58.9902 70.2023 56.0127C70.0248 55.8077 69.8186 55.7714 69.5836 55.9039C69.1322 56.1513 68.6739 56.442 68.2202 56.7298L68.2202 56.7299C67.6148 57.1139 67.0177 57.4928 66.4561 57.7564C60.8586 60.4014 55.6298 59.8002 50.7698 55.9527C50.6555 55.8619 50.5168 55.8071 50.3713 55.795C50.2258 55.783 50.08 55.8144 49.9523 55.8852L46.5698 57.7489C46.5535 57.8121 46.5459 57.858 46.5471 57.8865L46.547 57.8864C46.5476 57.9008 46.5505 57.9108 46.5556 57.9163C46.5635 57.9252 46.577 57.9232 46.5961 57.9102C46.9361 59.7927 47.2036 61.6977 47.3986 63.6252C47.4086 63.7077 47.3348 63.7402 47.1773 63.7227C47.1772 63.7226 47.1771 63.7226 47.177 63.7226C41.7295 61.4826 36.5358 61.9451 31.5958 65.1101C31.4991 65.1722 31.4196 65.2577 31.3646 65.3586C31.3095 65.4595 31.2807 65.5726 31.2808 65.6876V76.8101C31.2808 76.9751 31.1983 77.0588 31.0333 77.0613L30.3245 77.0763C30.2527 77.0781 30.1824 77.0538 30.1267 77.0077C30.0709 76.9616 30.0334 76.8968 30.0208 76.8251C29.9358 76.3026 29.892 75.7763 29.8895 75.2463C29.8795 71.9563 29.8733 68.6563 29.8708 65.3463C29.8707 65.2873 29.8584 65.2288 29.8345 65.1746C29.8106 65.1204 29.7757 65.0716 29.732 65.0313C27.0208 62.5638 21.4108 61.8701 18.0095 62.2413C17.918 62.2514 17.8334 62.2949 17.7719 62.3633C17.7104 62.4318 17.6761 62.5205 17.6758 62.6126L17.7058 77.2901C17.7058 77.4176 17.7695 77.4801 17.897 77.4776C27.2745 77.3876 36.652 77.4488 46.0295 77.6613C55.0145 77.8638 64.0445 78.6401 72.9095 79.4538C76.6245 79.7963 80.3233 80.2563 84.0058 80.8338C84.0333 80.8388 84.0558 80.8363 84.0733 80.8263C84.1033 80.8088 84.1233 80.7801 84.1333 80.7401C84.1433 80.7051 84.1295 80.6813 84.092 80.6688C79.7395 79.3213 75.2983 78.4051 70.7683 77.9201C70.6433 77.9076 70.582 77.8388 70.5845 77.7138L70.6483 64.4811ZM69.4708 65.2C63.6909 60.9052 57.6685 60.7015 51.4036 64.5889C50.7698 64.9827 50.6123 65.4439 50.8598 66.1339C50.8597 66.134 50.8596 66.1342 50.8595 66.1343L50.9008 76.3638C50.9008 76.4676 50.9417 76.5672 51.0148 76.6409C51.0878 76.7146 51.187 76.7566 51.2908 76.7576C53.3433 76.7676 55.332 76.7863 57.257 76.8138C59.8206 76.8529 62.432 77.0644 65.0507 77.2765C66.4465 77.3895 67.8444 77.5027 69.2383 77.5901C69.2643 77.5921 69.2905 77.5887 69.3151 77.5801C69.3398 77.5714 69.3625 77.5577 69.3819 77.5398C69.4012 77.5219 69.4167 77.5001 69.4275 77.4759C69.4383 77.4516 69.4441 77.4254 69.4445 77.3988L69.4708 65.2001C69.4708 65.2 69.4708 65.2 69.4708 65.2ZM50.6315 67.2557C50.6158 67.2475 50.6069 67.2248 50.6048 67.1877L50.5673 66.4302C50.5634 66.3542 50.543 66.3081 50.5061 66.2918C50.5428 66.3082 50.5631 66.3543 50.567 66.4301L50.6045 67.1876C50.6066 67.2249 50.6156 67.2476 50.6315 67.2557ZM49.8077 66.3836C49.762 66.3617 49.7177 66.3322 49.6748 66.2952C49.9723 65.2477 49.2323 64.4664 47.4548 63.9514C47.5936 63.9664 47.5762 63.9273 47.4028 63.834C47.576 63.9272 47.5932 63.9663 47.4545 63.9513C47.4764 65.3373 47.7385 66.7754 47.995 68.1836C48.0897 68.7033 48.1837 69.2189 48.2645 69.7263C48.3367 70.1779 48.4076 70.7502 48.4868 71.3896C48.6792 72.9432 48.9206 74.8923 49.3483 76.4651C49.3568 76.5105 49.3824 76.5509 49.4199 76.5779C49.4574 76.605 49.5038 76.6166 49.5496 76.6103C49.5954 76.604 49.637 76.5804 49.6659 76.5443C49.6947 76.5082 49.7086 76.4623 49.7045 76.4163L49.6745 66.2951C49.7175 66.3322 49.7619 66.3617 49.8077 66.3836Z" fill="url(#paint0_linear_74_4130)"/>
<defs>
<linearGradient id="paint0_linear_74_4130" x1="50.8612" y1="18.5938" x2="50.8612" y2="80.8363" gradientUnits="userSpaceOnUse">
<stop stop-color="#379074"/>
<stop offset="1" stop-color="#7BA15E"/>
</linearGradient>
</defs>
</svg>
