<svg width="100" height="100" viewBox="0 0 100 100" fill="none" xmlns="http://www.w3.org/2000/svg">
<rect width="100" height="100" fill="#D2AD31"/>
<path fill-rule="evenodd" clip-rule="evenodd" d="M51.9745 21.0156L50.3849 25.2569C48.9505 28.062 47.2183 30.8014 45.1885 33.4753L35.0039 45.7553C40.0709 51.1931 45.8328 55.7358 52.2892 59.3835C52.3403 59.4115 52.3841 59.451 52.4173 59.4989C52.4505 59.5468 52.4723 59.6019 52.481 59.6599C52.4897 59.7179 52.485 59.7773 52.4673 59.8335C52.4497 59.8898 52.4195 59.9415 52.3791 59.9846C47.6379 64.973 44.4621 70.8133 42.8518 77.5057C42.8181 77.6555 42.7319 77.693 42.5934 77.6181C30.9344 71.027 26.9809 58.1995 31.7127 45.9521L31.6923 45.9431L31.9198 45.4295C31.6593 44.6893 31.3976 43.977 31.1437 43.2858C29.1583 37.881 27.6476 33.7682 30.875 27.7567C32.3767 25.4947 34.1032 23.5735 36.0544 21.9931L44.02 16.4092L47.2613 18.6562L39.4811 24.2288C37.6011 25.7493 35.929 27.4496 34.4647 29.3296C31.5773 33.0372 29.7065 38.9918 32.931 42.8454C33.0284 42.9578 33.1239 42.9578 33.2175 42.8454L42.3572 31.7564L47.5254 23.6895L49.3175 19.1507L49.969 16.1003C49.9805 16.0568 49.9767 16.0107 49.9583 15.9697C49.9399 15.9287 49.9081 15.8953 49.868 15.8749C49.8279 15.8545 49.7821 15.8485 49.7381 15.8578C49.6942 15.8672 49.6547 15.8913 49.6264 15.9261L47.2613 18.6562L44.02 16.4092C47.5534 13.7184 50.0084 10.8872 49.9072 6.05608C49.906 6.04428 49.9088 6.03241 49.9154 6.02253C49.922 6.01265 49.9319 6.0054 49.9432 6.00205C49.9546 5.99871 49.9668 5.99947 49.9777 6.00421C49.9886 6.00895 49.9974 6.01737 50.0027 6.02799C52.8639 10.713 53.5211 15.709 51.9745 21.0156ZM33.6896 48.3899C32.1841 51.1818 30.746 54.6928 31.51 57.8836C32.8132 63.3382 36.6444 68.4053 40.9699 71.8657C41.1497 72.0118 41.2714 71.9706 41.335 71.7421C42.4885 67.4466 44.597 63.6903 47.6604 60.4733C47.8214 60.2973 47.799 60.1512 47.593 60.0351C42.3237 56.9604 37.7585 53.0712 33.8974 48.3675C33.8188 48.2701 33.7495 48.2776 33.6896 48.3899Z" fill="white"/>
<path fill-rule="evenodd" clip-rule="evenodd" d="M67.2655 55.6367C69.2204 59.187 70.196 62.9114 70.1922 66.81C69.7391 70.1805 68.3366 73.1747 65.9848 75.7924C62.9063 78.8409 59.5169 81.4287 55.8168 83.5559C53.7196 85.0989 52.0233 86.8048 50.7276 88.6735C49.4136 90.5627 49.3607 91.6266 49.2827 93.197C49.267 93.5132 49.2503 93.85 49.222 94.2181C49.2071 94.4241 49.1453 94.4372 49.0367 94.2574C46.9245 90.8083 46.0556 87.0445 46.4301 82.9662C46.4301 82.9662 46.4302 82.9663 46.4301 82.9662C47.1042 78.6369 48.6864 74.6689 51.1768 71.0625L54.4912 72.068C51.7911 75.6931 49.9823 79.9343 49.0647 84.7914L51.8286 81.7864L61.5467 74.7476C64.434 72.0175 66.3874 69.055 67.406 65.8606C68.3834 62.5912 67.9977 59.8611 66.2487 57.6702C66.1176 57.5129 65.9884 57.5129 65.8611 57.6702L59.8954 65.0516L54.4912 72.068L51.1768 71.0625L56.2439 64.2709L63.85 54.8502C63.9849 54.6817 63.9774 54.5188 63.8276 54.3615C58.7212 48.9462 52.9857 44.9745 46.7671 40.9805C46.5948 40.8719 46.5798 40.7426 46.7222 40.5928C51.4858 35.5895 54.6728 29.7266 56.2832 23.0043C56.3281 22.817 56.4349 22.7721 56.6034 22.8695C68.3834 29.6667 72.2426 42.632 67.2318 55.1199C67.1606 55.2959 67.1719 55.4681 67.2655 55.6367ZM65.1589 52.0639C60.9795 47.0306 56.6821 43.8735 51.6431 40.4524C51.4334 40.3064 51.4147 40.1416 51.5869 39.9581C54.5905 36.7523 56.6596 33.0297 57.7943 28.7904C57.8054 28.7496 57.8264 28.7123 57.8556 28.6818C57.8848 28.6512 57.9212 28.6285 57.9614 28.6157C58.0016 28.6028 58.0444 28.6003 58.0859 28.6082C58.1273 28.6161 58.1662 28.6344 58.1988 28.6612C62.3895 32.0354 65.4304 36.2486 67.3217 41.3007C68.653 44.8734 67.2206 48.8563 65.5297 52.0246C65.4248 52.2231 65.3012 52.2362 65.1589 52.0639Z" fill="white"/>
</svg>
