<svg width="100" height="100" viewBox="0 0 100 100" fill="none" xmlns="http://www.w3.org/2000/svg">
<rect width="100" height="100" fill="#FFEB96"/>
<path d="M61.0034 22.8074L18.3901 42.5442C16.0487 43.6286 13.7849 44.9237 11.9066 46.6929C7.75194 50.6059 6.26041 54.112 6.0181 58.89C5.83725 62.4562 6.58776 66.1707 8.86755 68.9191C11.7825 72.4331 15.8551 73.5602 23.05 74.0638C39.5726 73.5663 55.9614 68.4627 80.9152 61.1107C85.0073 59.905 89.1559 58.3454 92.0034 55.1688C95.9488 50.7674 97.7309 45.0171 97.1214 37.5526C96.8317 34.0045 95.8415 30.4745 93.7964 27.5606C88.998 20.7234 81.1604 18.1037 70.5038 19.7016C67.1944 20.1979 64.0399 21.4011 61.0034 22.8074Z" fill="#FFD00C"/>
<path d="M8.15949 63.1023C5.99439 55.9481 9.49366 48.3011 16.3229 45.2626L67.9074 22.3118C76.9408 18.2927 87.5152 22.4526 91.389 31.5492C95.4538 41.0942 90.476 52.0727 80.6179 55.305L26.9684 72.8955C19.0614 75.488 10.5698 71.0667 8.15949 63.1023Z" fill="url(#paint0_linear_74_4132)"/>
<mask id="mask0_74_4132" style="mask-type:alpha" maskUnits="userSpaceOnUse" x="23" y="55" width="66" height="22">
<path d="M43.6861 68.1927C34.7198 74.0279 26.4296 74.6565 23.4053 74.2414C43.3303 79.0448 58.452 75.1309 67.525 68.1927C74.7834 62.6422 84.7815 61.0174 88.8732 60.8987C67.3471 48.9793 54.8939 60.8987 43.6861 68.1927Z" fill="black"/>
</mask>
<g mask="url(#mask0_74_4132)">
<path d="M43.6861 68.1927C34.7198 74.0279 26.4296 74.6565 23.4053 74.2414C43.3303 79.0448 58.452 75.1309 67.525 68.1927C74.7834 62.6422 84.7815 61.0174 88.8732 60.8987C67.3471 48.9793 54.8939 60.8987 43.6861 68.1927Z" fill="#8EC645"/>
<path d="M57.0289 68.0149C43.6507 77.1235 28.5646 75.724 22.6938 73.8857C41.5515 71.7509 46.3548 63.7453 58.9859 56.2734C69.0907 50.2959 84.6631 57.2222 91.1861 61.4325C82.291 57.6966 73.7517 56.6292 57.0289 68.0149Z" fill="url(#paint1_linear_74_4132)"/>
</g>
<path d="M71.6489 27.0974C73.2334 27.949 73.3639 29.3568 72.0403 31.3208C71.3903 32.2839 70.4842 32.6503 69.3219 32.4203C68.7408 32.0099 68.468 31.4726 68.5036 30.8085C68.6008 28.944 69.6493 27.707 71.6489 27.0974Z" fill="white"/>
<path d="M72.1084 49.3171C71.9969 47.856 72.3005 46.5395 73.0193 45.3677C74.9999 42.137 76.996 38.8956 79.0074 35.6435C79.0248 35.6172 79.0332 35.5859 79.0313 35.5543C79.0294 35.5228 79.0173 35.4927 78.9969 35.4687C78.9764 35.4446 78.9487 35.4278 78.9179 35.4209C78.887 35.4139 78.8548 35.4171 78.826 35.4301L77.7479 35.8855L73.3964 37.2874C72.9362 35.7361 73.496 34.4397 75.0758 33.3984C77.4621 32.5208 79.8614 31.6538 82.2737 30.7975C82.9118 30.5721 83.5012 30.4559 84.0421 30.4488C84.1031 30.4477 84.1636 30.4606 84.2191 30.4865C84.2745 30.5124 84.3235 30.5506 84.3623 30.5982C85.2233 31.6728 84.6647 32.7188 83.8926 33.9143C81.8029 37.1427 79.7511 40.3947 77.7372 43.6705C77.5949 43.903 77.4834 44.1153 77.4028 44.3074C77.39 44.3378 77.3861 44.3712 77.3915 44.4037C77.397 44.4363 77.4115 44.4666 77.4335 44.4912C77.4555 44.5157 77.484 44.5336 77.5157 44.5426C77.5474 44.5517 77.581 44.5515 77.6127 44.5422C79.0952 44.1034 80.5362 43.6776 81.9357 43.2649C83.3838 42.8379 84.1986 44.9051 83.4479 45.9405C83.2439 46.2228 82.8217 46.4588 82.1812 46.6486C79.3087 47.5049 76.4421 48.3648 73.5814 49.2282C73.1236 49.3681 72.6326 49.3978 72.1084 49.3171Z" fill="white"/>
<path d="M66.4759 39.7177L65.6611 50.1891C65.4951 51.7261 64.2166 52.5208 61.8255 52.573C61.7259 52.1602 61.7176 51.5684 61.8006 50.7975C61.9714 49.1869 62.2051 46.3476 62.5016 42.2795C62.5905 41.0627 61.4271 41.1445 60.6727 41.664C59.7168 42.3021 59.1641 43.1999 59.0147 44.3574C58.6233 47.3936 58.2758 50.3931 57.9722 53.3557C57.9602 53.4755 57.9196 53.5905 57.8539 53.6909C57.7883 53.7913 57.6994 53.874 57.595 53.9321C56.6391 54.4706 55.599 54.7612 54.4746 54.8039C54.4533 54.7446 54.4331 54.6947 54.4141 54.6544C54.3762 54.5738 54.3608 54.4884 54.3679 54.3982C55.0439 47.5099 55.746 40.6238 56.4743 33.7402C56.5122 33.3678 56.7909 32.9823 57.3104 32.5838C58.2711 31.89 59.9718 31.8722 59.9291 33.4983C59.8769 35.5785 59.7073 37.641 59.4203 39.6857C59.4137 39.7271 59.4212 39.7695 59.4418 39.806C59.4624 39.8425 59.4948 39.871 59.5336 39.8867C59.5725 39.9024 59.6155 39.9044 59.6557 39.8925C59.6959 39.8805 59.7308 39.8553 59.7548 39.8209C60.8613 38.2874 62.925 36.6685 64.8392 37.1453C65.9042 37.4133 66.4498 38.2708 66.4759 39.7177Z" fill="white"/>
<path d="M71.9766 35.8075L71.8912 37.743L70.9697 46.8481L71.1761 49.6269C70.334 50.2057 69.4042 50.6267 68.3866 50.89C67.2598 50.9019 66.751 50.233 66.8602 48.8833C67.2088 44.6089 67.637 40.3345 68.1446 36.0601C68.1909 35.6651 68.3688 35.4481 68.6819 35.2524C69.8276 34.6796 71.3077 34.1672 71.9766 35.8075Z" fill="white"/>
<path d="M54.873 41.938L54.5456 43.9269L52.9765 45.19C52.1902 44.4962 51.3541 43.9768 50.429 44.6777C48.4128 47.0616 47.7367 49.6625 48.4009 52.4805C49.785 54.8715 51.4644 52.0464 52.2969 51.0039C52.8734 50.9185 53.2991 51.0407 53.5743 51.3704C54.006 52.2006 53.8945 53.0699 53.2398 53.9784C52.3717 55.0743 51.322 55.9223 50.091 56.5224C45.1987 58.0133 44.1063 54.4872 44.4621 50.6161C44.8251 46.6738 46.6361 43.621 49.8953 41.4577C51.7241 40.6678 53.3833 40.8279 54.873 41.938Z" fill="white"/>
<path d="M43.8642 49.1536C43.8998 50.6883 43.7278 52.3582 43.3483 54.1633C42.1599 57.3264 40.8363 59.3332 37.5771 60.5714C35.2952 60.8987 33.974 59.9096 33.6135 57.6039C32.8781 52.9334 34.2017 49.1417 37.5842 46.2289C41.2668 44.1652 42.9889 45.5493 43.8642 49.1536ZM38.3706 48.9828C36.9165 50.8164 36.282 53.0153 36.467 55.5794C36.5987 57.3762 38.1144 58.0024 39.1284 56.4013C40.2551 54.6223 40.6928 52.6428 40.4413 50.463C40.2848 49.118 40.0428 48.1075 38.3706 48.9828Z" fill="white"/>
<path d="M24.1246 47.4778C24.9596 48.5808 25.3972 49.6708 25.4375 50.7477C25.4304 52.1543 25.2134 53.5419 24.7864 54.9106C23.6739 57.1854 21.7834 58.7106 19.1149 59.4862C18.6263 59.6286 18.3511 60.0093 18.2894 60.6284C18.1258 62.3078 17.9597 63.9895 17.7913 65.6737C17.7462 66.103 17.515 66.377 17.0975 66.4956L15.2188 67.0186C15.1595 66.9973 15.1133 66.9617 15.0801 66.9119C15.054 66.8716 15.0445 66.8182 15.0516 66.7518C15.5782 61.149 16.0692 55.5416 16.5246 49.9293C16.5816 49.2355 16.8128 49.1821 17.343 48.8619C19.8526 47.358 22.1131 46.8967 24.1246 47.4778ZM20.5808 50.3599C19.5419 50.3848 19.0758 50.7726 19.001 51.8471C18.8943 53.4482 18.7709 55.047 18.631 56.6434C18.6191 56.7762 18.6796 56.8319 18.8125 56.8106C19.1706 56.7489 19.4743 56.6196 19.7233 56.4228C23.2351 55.213 22.9113 49.0825 20.5808 50.3599Z" fill="white"/>
<path d="M32.4713 52.854C32.3788 52.9702 32.202 52.9738 31.9411 52.8646C30.9982 51.3311 29.5928 52.5088 29.3366 53.7684C28.7602 56.6196 28.3807 59.4885 28.1981 62.3753C27.8316 63.6704 26.6254 63.8555 25.5082 64.0049C25.4554 64.0122 25.4016 64.0073 25.351 63.9908C25.3003 63.9743 25.254 63.9465 25.2157 63.9095C25.1773 63.8725 25.1478 63.8273 25.1295 63.7772C25.1111 63.7272 25.1043 63.6736 25.1097 63.6206C25.5117 59.4648 25.6292 55.0457 26.4013 50.9219C27.2528 50.3598 28.0379 50.2258 28.7567 50.5199C28.6642 50.7334 28.7401 50.8828 28.9844 50.9682C29.0316 50.9849 29.0828 50.9871 29.1316 50.9744C29.1804 50.9617 29.2245 50.9348 29.2584 50.897C30.2582 49.7691 31.7881 47.371 33.5209 48.8085C33.6661 48.9281 33.7751 49.086 33.8354 49.2646C33.8957 49.4431 33.9051 49.6351 33.8625 49.8189C33.6158 50.8603 33.152 51.8719 32.4713 52.854Z" fill="white"/>
<defs>
<linearGradient id="paint0_linear_74_4132" x1="46.5329" y1="34.0357" x2="54.1827" y2="58.942" gradientUnits="userSpaceOnUse">
<stop stop-color="#E42128"/>
<stop offset="1" stop-color="#BA1D26"/>
</linearGradient>
<linearGradient id="paint1_linear_74_4132" x1="57.7406" y1="61.7884" x2="64.3229" y2="75.131" gradientUnits="userSpaceOnUse">
<stop stop-color="#8EC645" stop-opacity="0"/>
<stop offset="0.438148" stop-color="#6AB444"/>
</linearGradient>
</defs>
</svg>
