<svg width="100" height="100" viewBox="0 0 100 100" fill="none" xmlns="http://www.w3.org/2000/svg">
<rect width="100" height="100" fill="#6E0E1C"/>
<path d="M11 40H21.1371L21.1424 49.5147C21.1424 49.6661 21.2048 49.6973 21.3294 49.6082L34.7922 40H41.4434L31.1994 47.2255C31.1264 47.279 31.1228 47.3359 31.1887 47.3965L45.183 60.4238C45.1929 60.4337 45.1996 60.4463 45.2025 60.46C45.2053 60.4737 45.2041 60.4879 45.199 60.5009C45.1939 60.5139 45.1851 60.5252 45.1738 60.5333C45.1624 60.5414 45.1489 60.5461 45.1349 60.5467L31.7069 60.5333C31.6179 60.5333 31.5413 60.5022 31.4772 60.4398L23.9178 53.0433C23.8865 53.013 23.8454 52.9947 23.8019 52.9918C23.7583 52.9888 23.7152 53.0014 23.6801 53.0273L21.2573 54.841C21.1861 54.8927 21.1505 54.963 21.1505 55.0521V60.4318C21.1505 60.4672 21.1364 60.5012 21.1113 60.5263C21.0863 60.5513 21.0523 60.5654 21.0169 60.5654L11 60.5547V40Z" fill="white"/>
<path d="M46.2646 40H56.5941L56.5967 60.3837C56.5967 60.4567 56.5594 60.4933 56.4846 60.4933L46.3875 60.5547C46.3056 60.5547 46.2646 60.5137 46.2646 60.4318V40Z" fill="white"/>
<path d="M70.4281 40H78.8156L90.9828 60.357C90.9941 60.3758 91 60.3973 90.9998 60.4192C90.9996 60.4412 90.9934 60.4628 90.9816 60.4819C90.9699 60.501 90.9532 60.5168 90.9332 60.5277C90.9132 60.5386 90.8907 60.5442 90.8679 60.544L79.9321 60.5093C79.8342 60.5093 79.7603 60.4665 79.7104 60.3811L76.2352 54.403C76.1889 54.3228 76.1195 54.2837 76.0269 54.2854L66.635 54.3068C66.5477 54.3086 66.4819 54.3469 66.4373 54.4217L62.8553 60.4265C62.8292 60.4697 62.7926 60.5054 62.7491 60.5302C62.7055 60.555 62.6566 60.568 62.6069 60.568H57.6759C57.5263 60.568 57.4916 60.5039 57.5717 60.3757L70.4281 40ZM74.4001 50.7702L71.6915 46.1357C71.6239 46.0182 71.5535 46.0164 71.4805 46.1303L68.4808 50.8476C68.4309 50.926 68.4523 50.9652 68.5449 50.9652L74.2986 50.9465C74.4357 50.9465 74.4696 50.8877 74.4001 50.7702Z" fill="white"/>
</svg>
