<svg width="100" height="100" viewBox="0 0 100 100" fill="none" xmlns="http://www.w3.org/2000/svg">
<rect width="100" height="100" fill="white"/>
<path d="M69.7879 65.0858L91.3379 65.4258C91.8179 65.4325 91.9379 65.6458 91.6979 66.0658C83.2913 80.7924 70.7113 86.7991 53.9579 84.0858C52.4113 83.8391 50.8446 83.8624 49.2579 84.1558C13.9179 90.6858 -5.39207 45.7358 21.8779 23.4158C29.6713 17.0358 38.9979 14.7724 49.8579 16.6258C51.5179 16.9124 53.1679 16.9358 54.8079 16.6958C71.1813 14.2958 83.5179 20.3791 91.8179 34.9458C91.8795 35.0525 91.9119 35.1735 91.9117 35.2967C91.9115 35.4199 91.8789 35.5409 91.817 35.6474C91.7551 35.754 91.6662 35.8423 91.5593 35.9034C91.4523 35.9646 91.3311 35.9964 91.2079 35.9958H69.8679C69.4946 35.9958 69.2213 35.8324 69.0479 35.5058C65.2746 28.6724 60.1246 24.0324 53.5979 21.5858C51.2879 20.7258 49.0279 22.2158 46.4179 23.8058C23.9379 37.4758 27.7979 70.5558 51.7479 79.5458C52.0413 79.6591 52.3346 79.6591 52.6279 79.5458C59.7213 76.8524 65.1546 72.1958 68.9279 65.5758C69.1146 65.2491 69.4013 65.0858 69.7879 65.0858ZM45.5579 80.8358C22.7779 66.8958 21.7679 34.4058 44.9879 20.4558C45.1077 20.3819 45.2005 20.2703 45.2516 20.1386C45.3027 20.0069 45.3094 19.8624 45.2706 19.7276C45.2317 19.5929 45.1496 19.4755 45.037 19.3937C44.9243 19.312 44.7875 19.2705 44.6479 19.2758C1.60792 20.3558 2.33792 81.1958 44.6079 81.3458C44.9813 81.3458 45.3013 81.2124 45.5679 80.9458C45.5766 80.9377 45.5834 80.9277 45.5878 80.9168C45.5922 80.9058 45.594 80.8943 45.593 80.8833C45.592 80.8723 45.5882 80.8621 45.5821 80.8538C45.576 80.8455 45.5676 80.8393 45.5579 80.8358Z" fill="#FF0000"/>
<path d="M46.5879 47.3256C46.587 47.389 46.6076 47.4507 46.6463 47.5008C46.685 47.5509 46.7396 47.5864 46.8011 47.6015C46.8627 47.6166 46.9275 47.6104 46.985 47.5839C47.0425 47.5574 47.0894 47.5122 47.1179 47.4556L52.7779 36.7756C52.841 36.6581 52.9347 36.5597 53.0491 36.4911C53.1636 36.4224 53.2944 36.386 53.4279 36.3856L58.0279 36.3656C58.6279 36.3656 58.7745 36.6223 58.4679 37.1356L52.3079 47.5556C52.1414 47.8363 52.0462 48.1535 52.0305 48.4794C52.0149 48.8054 52.0792 49.1302 52.2179 49.4256L58.8279 63.6156C59.0612 64.1223 58.9012 64.3756 58.3479 64.3756H53.8479C53.4945 64.3756 53.2479 64.2123 53.1079 63.8856L49.4179 55.0056C49.303 54.7297 49.0966 54.5018 48.8333 54.3603C48.5701 54.2187 48.2661 54.1722 47.9726 54.2286C47.6791 54.2849 47.4139 54.4407 47.2218 54.6697C47.0297 54.8986 46.9224 55.1868 46.9179 55.4856L46.7979 63.8956C46.7979 64.2156 46.6379 64.3756 46.3179 64.3756H41.9579C41.5379 64.3756 41.3279 64.1656 41.3279 63.7456L41.3179 36.7156C41.3179 36.6361 41.3495 36.5598 41.4057 36.5035C41.462 36.4472 41.5383 36.4156 41.6179 36.4156L45.9479 36.3556C46.3745 36.349 46.5879 36.559 46.5879 36.9856V47.3256Z" fill="#FF0000"/>
<path d="M67.5277 36.4258H63.9677C63.5204 36.4258 63.1577 36.7884 63.1577 37.2358V63.5758C63.1577 64.0231 63.5204 64.3858 63.9677 64.3858H67.5277C67.9751 64.3858 68.3377 64.0231 68.3377 63.5758V37.2358C68.3377 36.7884 67.9751 36.4258 67.5277 36.4258Z" fill="#FF0000"/>
</svg>
