<svg width="100" height="100" viewBox="0 0 100 100" fill="none" xmlns="http://www.w3.org/2000/svg">
<rect width="100" height="100" fill="#302F2B"/>
<path d="M33.6388 18.2731C23.8531 23.4557 17.122 32.4587 14.9656 43.2909C14.9438 43.4015 14.9888 43.4568 15.1006 43.4568H19.8063C19.8799 43.4568 19.9256 43.4206 19.9433 43.3482C21.3428 37.2916 24.2637 32.1091 28.7061 27.8005C28.7191 27.7873 28.7357 27.7783 28.7539 27.7748C28.772 27.7712 28.7908 27.7732 28.8078 27.7805C28.8248 27.7878 28.8393 27.8001 28.8492 27.8157C28.8591 27.8313 28.8642 27.8496 28.8636 27.8681L28.8104 47.3652C28.8104 47.4226 28.7818 47.4513 28.7245 47.4513H11.1131C11.0408 47.4513 11.0081 47.4151 11.0149 47.3427C11.8646 37.1196 15.9238 28.5564 23.1923 21.6531C37.2335 8.31971 59.4666 7.32007 74.494 19.6845C83.2915 26.9224 88.1267 36.3842 88.9996 48.0699C89.0037 48.1354 88.9737 48.1682 88.9096 48.1682L71.7095 48.1723C71.6399 48.1723 71.6051 48.1375 71.6051 48.0679C71.6283 41.7259 71.6297 35.3736 71.6092 29.0111C71.6092 28.8595 71.6345 28.6424 71.6849 28.3597C71.6958 28.2983 71.7231 28.2901 71.7668 28.3351C75.088 31.7123 77.524 35.6297 79.0748 40.0871C79.3858 40.9843 79.6988 42.1786 79.9955 43.2253C80.016 43.2963 80.0637 43.3312 80.1387 43.3298L85.0714 43.2909C85.141 43.2909 85.169 43.2567 85.1553 43.1884C82.9253 32.4197 76.1716 23.1874 66.3225 18.2035C66.2407 18.1625 66.1998 18.1878 66.1998 18.2793L66.2018 81.5641C66.2018 81.7608 66.2898 81.814 66.4658 81.7239C76.2719 76.6622 82.9232 67.5425 85.1574 56.8045C85.1765 56.7144 85.1403 56.6693 85.0489 56.6693H80.1162C80.0789 56.6693 80.0427 56.682 80.0134 56.7055C79.984 56.7289 79.9633 56.7616 79.9546 56.7984C78.5974 62.5504 75.8511 67.5227 71.7156 71.7152C71.7075 71.7229 71.6972 71.7282 71.6862 71.7303C71.6751 71.7325 71.6637 71.7314 71.6534 71.7272C71.6432 71.7231 71.6345 71.716 71.6284 71.707C71.6224 71.6979 71.6193 71.6872 71.6195 71.6762L71.6133 52.8551C71.6133 52.7663 71.657 52.7219 71.7443 52.7219L88.7439 52.7752C88.8244 52.7766 88.8626 52.8175 88.8585 52.8981C88.7875 54.1613 88.6402 55.4232 88.4165 56.6836C84.5313 78.5324 63.5626 92.6462 41.845 88.1724C31.0241 85.9437 21.4553 78.7926 16.0172 69.2161C13.0281 63.9495 11.4016 58.304 11.0006 52.0685C10.9951 51.9975 11.0285 51.962 11.1008 51.962L28.6201 51.9394C28.7306 51.9394 28.7865 51.9947 28.7879 52.1054C28.8759 58.7526 28.7061 65.1663 28.8227 72.1064C28.8254 72.2471 28.7756 72.2683 28.6733 72.1699C24.2514 67.8764 21.3448 62.7095 19.9536 56.6693C19.9358 56.5942 19.8888 56.5566 19.8124 56.5566L15.0577 56.5402C14.9881 56.5402 14.9595 56.5744 14.9717 56.6427C17.0156 67.4134 23.937 76.6151 33.5815 81.6952C33.6715 81.7416 33.7165 81.7137 33.7165 81.6112V18.3182C33.7165 18.2608 33.6906 18.2458 33.6388 18.2731ZM53.6644 41.3571H46.4525C46.4253 41.3571 46.3993 41.3463 46.3801 41.3271C46.3609 41.3079 46.3502 41.2819 46.3502 41.2547V14.545C46.3501 14.5271 46.3462 14.5095 46.3386 14.4933C46.3311 14.4771 46.3201 14.4628 46.3065 14.4513C46.2929 14.4398 46.2769 14.4314 46.2597 14.4267C46.2425 14.422 46.2245 14.4211 46.2069 14.4241L41.3213 15.3008C41.2299 15.3172 41.1842 15.3725 41.1842 15.4668V46.298C41.1842 46.384 41.2265 46.427 41.311 46.427H58.6196C58.6919 46.427 58.728 46.3909 58.728 46.3185V15.4483C58.728 15.3828 58.6967 15.3418 58.6339 15.3254C57.0531 14.9185 55.4491 14.6289 53.8219 14.4569C53.8147 14.456 53.8074 14.4567 53.8004 14.4589C53.7935 14.461 53.7871 14.4647 53.7817 14.4695C53.7763 14.4744 53.7719 14.4803 53.769 14.487C53.7661 14.4936 53.7646 14.5008 53.7646 14.5081L53.7687 41.2547C53.7687 41.323 53.7339 41.3571 53.6644 41.3571ZM46.3174 59.1971C46.327 59.1746 46.343 59.1555 46.3634 59.142C46.3837 59.1285 46.4076 59.1213 46.432 59.1213L53.6337 59.0598C53.7278 59.0585 53.7748 59.1049 53.7748 59.1991L53.7482 85.5053C53.7481 85.5156 53.7502 85.5258 53.7544 85.5352C53.7587 85.5445 53.7649 85.5528 53.7728 85.5595C53.7806 85.5662 53.7898 85.571 53.7997 85.5737C53.8096 85.5764 53.82 85.5768 53.8301 85.575L58.6135 84.7392C58.6899 84.7256 58.728 84.6798 58.728 84.602V54.1087C58.728 54.0405 58.6939 54.0063 58.6257 54.0063H41.2865C41.2594 54.0063 41.2333 54.0171 41.2142 54.0363C41.195 54.0555 41.1842 54.0816 41.1842 54.1087V84.5262C41.1842 84.5835 41.2122 84.619 41.2681 84.6327C42.8734 85.0219 44.4959 85.3094 46.1353 85.4951C46.2786 85.5115 46.3502 85.4466 46.3502 85.3005V59.3855C46.3502 59.3637 46.3413 59.3453 46.3236 59.3302C46.2936 59.3029 46.2915 59.2585 46.3174 59.1971Z" fill="#B7A787"/>
</svg>
