<svg width="100" height="100" viewBox="0 0 100 100" fill="none" xmlns="http://www.w3.org/2000/svg">
<rect width="100" height="100" fill="#10224E"/>
<path d="M42.5297 31.3013L26.6992 39.0317" stroke="#807F59" stroke-width="0.337501"/>
<path d="M56.1663 49.8318L40.999 70.5458" stroke="#886838" stroke-width="0.337501"/>
<path d="M60.6988 56.0417L44.3267 71.8654" stroke="#0B407C" stroke-width="0.337501"/>
<path d="M29.1484 15H29.572C30.3899 15.1215 31.039 15.5107 31.5194 16.1678C35.1014 21.0649 38.6828 25.9626 42.2637 30.8608C42.4032 31.0521 42.4921 31.1989 42.5303 31.3013L26.6999 39.0317C26.6942 32.3379 26.6926 25.6684 26.6948 19.023C26.6948 16.9001 26.8501 15.3763 29.1484 15Z" fill="#02579D"/>
<path d="M76.2344 15H76.739C78.2796 15.2498 79.4052 16.6133 79.0475 18.1658C78.8517 19.0095 78.0029 19.9984 77.4376 20.7696C70.3366 30.4558 63.2462 40.1432 56.1666 49.8317L40.9993 70.5458C37.7841 74.9411 34.5733 79.3303 31.367 83.7133C30.9643 84.2623 30.345 84.5891 29.5091 84.6937H29.2172C27.506 84.4963 26.8226 83.4197 26.691 81.7929C25.4608 66.5801 34.1025 51.2391 45.5151 41.7486C45.8717 41.4527 46.0967 41.2057 46.1901 41.0077C46.5259 40.2973 46.0483 39.3253 45.2586 39.2106C44.9998 39.1723 44.6511 39.2443 44.2123 39.4266C39.5852 41.3469 35.0222 43.1509 30.1537 44.7017C28.455 45.2428 26.7669 45.6641 25.0895 45.9656C23.0527 46.3318 21.4428 46.0416 20.999 43.7618V43.2116C21.1329 42.2632 21.6847 41.5393 22.6545 41.0398C24.0281 40.3333 25.3764 39.6639 26.6994 39.0317L42.5299 31.3013C53.4649 25.9508 64.4044 20.6109 75.3485 15.2818C75.6421 15.1384 75.9239 15.0726 76.2344 15Z" fill="#FDA715"/>
<path d="M56.1668 49.8318L60.6994 56.0418L44.3273 71.8655L40.9995 70.5459L56.1668 49.8318Z" fill="#13285B"/>
<path d="M60.6998 56.0417C66.6859 64.2317 72.6743 72.4206 78.665 80.6084C79.8901 82.2841 78.5975 84.4255 76.6771 84.6938H76.3818C75.9306 84.6173 75.4452 84.4733 74.9255 84.2618C67.9077 81.4021 57.7084 77.2699 44.3276 71.8654L60.6998 56.0417Z" fill="#02579D"/>
</svg>
