<svg width="100" height="100" viewBox="0 0 100 100" fill="none" xmlns="http://www.w3.org/2000/svg">
<rect width="100" height="100" fill="white"/>
<path d="M14.823 49.4056C16.073 48.3272 17.3071 47.2272 18.5255 46.1056C19.7905 44.9406 21.3205 44.6906 22.008 46.6731C22.428 47.8856 18.7105 50.6831 17.8255 51.4581C17.7571 51.5181 17.7521 51.5822 17.8105 51.6506C19.0855 53.1789 20.3396 54.7164 21.573 56.2631C23.303 58.4356 20.368 60.5356 18.783 58.5706C17.573 57.0706 16.3755 55.5881 15.1905 54.1231C15.1543 54.0776 15.105 54.0447 15.0492 54.0287C14.9935 54.0128 14.9341 54.0147 14.8792 54.0342C14.8243 54.0537 14.7767 54.0898 14.7429 54.1375C14.7091 54.1852 14.6908 54.2422 14.6905 54.3006V59.0506C14.6905 59.0711 14.6864 59.0915 14.6783 59.1104C14.6703 59.1293 14.6585 59.1463 14.6437 59.1603C14.629 59.1744 14.6115 59.1852 14.5925 59.1922C14.5734 59.1991 14.5532 59.2019 14.533 59.2006C12.9155 59.1081 11.0405 59.5531 11.0305 57.2156C11.0038 51.5539 10.9946 45.8897 11.003 40.2231C11.0046 40.1297 11.0513 40.0789 11.143 40.0706C13.1505 39.8731 14.7005 39.9306 14.6905 42.4181C14.6821 44.7281 14.6838 47.0381 14.6955 49.3481C14.6971 49.4581 14.7396 49.4772 14.823 49.4056Z" fill="#0A8BCF"/>
<path d="M25.8405 44.4505C27.0528 44.4505 28.0355 43.4678 28.0355 42.2555C28.0355 41.0433 27.0528 40.0605 25.8405 40.0605C24.6282 40.0605 23.6455 41.0433 23.6455 42.2555C23.6455 43.4678 24.6282 44.4505 25.8405 44.4505Z" fill="#FFB116"/>
<path d="M32.8407 46.2256C37.3582 43.6856 43.1457 46.3356 43.4432 51.7156C43.9282 60.4606 31.9782 62.1231 29.7607 54.3556C28.8907 51.3056 30.0732 47.7856 32.8407 46.2256ZM36.4907 55.858C37.3812 55.8612 38.2365 55.4878 38.8685 54.82C39.5004 54.1522 39.8574 53.2448 39.8607 52.2973C39.864 51.3498 39.5134 50.4399 38.8861 49.7677C38.2588 49.0956 37.4061 48.7162 36.5157 48.7131C35.6252 48.71 34.7699 49.0834 34.1379 49.7512C33.5059 50.4189 33.149 51.3264 33.1457 52.2738C33.1424 53.2213 33.493 54.1312 34.1203 54.8034C34.7476 55.4756 35.6003 55.8549 36.4907 55.858Z" fill="#0A8BCF"/>
<path d="M49.0529 55.128C49.8154 55.6855 53.4329 56.523 53.3904 54.8655C53.3887 54.7805 53.3571 54.7088 53.2954 54.6505C52.8921 54.2621 52.4846 54.0305 52.0729 53.9555C50.2529 53.623 48.0429 53.1505 46.8454 51.8255C44.9854 49.7705 46.0779 46.748 48.5229 45.8205C50.7079 44.9922 52.8137 45.0888 54.8404 46.1105C55.7954 46.593 57.1954 47.783 56.7529 48.9905C56.1954 50.5205 54.6054 50.213 53.5804 49.458C52.5604 48.7047 51.4021 48.518 50.1054 48.898C49.4829 49.078 49.4154 49.7305 50.0329 49.9405C51.5629 50.4655 53.3254 50.638 54.7454 51.378C56.5779 52.3305 57.5804 54.008 56.8779 56.0855C55.7579 59.403 51.7879 59.7255 48.8129 58.9205C47.6379 58.603 45.7379 57.808 45.4354 56.513C45.1104 55.118 46.7029 53.9405 47.9429 54.388C48.0696 54.433 48.4396 54.6796 49.0529 55.128Z" fill="#0A8BCF"/>
<path d="M68.2655 45.6555C71.2805 46.703 73.088 49.4005 72.933 52.603C72.6805 57.763 67.7855 60.583 63.113 58.773C59.2655 57.283 57.9855 52.643 59.6405 49.0605C61.1305 45.833 65.0955 44.553 68.2655 45.6555ZM65.9542 55.8555C66.8433 55.8508 67.694 55.471 68.3192 54.7997C68.9444 54.1283 69.2929 53.2203 69.288 52.2755C69.283 51.3307 68.9251 50.4264 68.2929 49.7616C67.6607 49.0968 66.806 48.7259 65.9169 48.7306C65.0277 48.7352 64.177 49.115 63.5518 49.7864C62.9266 50.4578 62.5781 51.3658 62.5831 52.3106C62.588 53.2554 62.946 54.1597 63.5782 54.8245C64.2104 55.4893 65.065 55.8601 65.9542 55.8555Z" fill="#FFB116"/>
<path d="M75.1104 59.0754L75.1929 45.5154C75.1929 45.4271 75.237 45.3804 75.3254 45.3754C76.4804 45.3079 77.7453 45.1629 78.5303 46.0979C78.587 46.1646 78.6537 46.1779 78.7304 46.1379C81.6354 44.6404 85.2279 45.0279 87.1379 47.7754C88.2729 49.4104 88.2654 50.9354 88.3029 53.2529C88.3362 55.1946 88.3345 57.1379 88.2979 59.0829C88.2972 59.1219 88.2815 59.159 88.2539 59.1865C88.2264 59.214 88.1893 59.2298 88.1504 59.2304C85.7679 59.2629 84.5154 59.3504 84.5054 56.5129C84.502 54.8163 84.5004 53.1188 84.5004 51.4204C84.5029 47.9779 79.0004 47.9204 78.9404 50.9979C78.902 52.9713 78.8804 54.9438 78.8754 56.9154C78.8679 59.5104 77.2204 59.2904 75.2554 59.2254C75.1587 59.2238 75.1104 59.1738 75.1104 59.0754Z" fill="#FFB116"/>
<path d="M24.1304 45.3681C25.4279 45.3206 27.6429 45.1206 27.6504 47.0481C27.6688 51.0415 27.6863 55.0381 27.7029 59.0381C27.7046 59.1248 27.6621 59.1681 27.5754 59.1681C26.1879 59.1806 24.0129 59.5281 24.0079 57.3906C23.9996 53.4273 23.9988 49.4631 24.0054 45.4981C24.0054 45.4148 24.0471 45.3715 24.1304 45.3681Z" fill="#0A8BCF"/>
</svg>
