<svg width="100" height="100" viewBox="0 0 100 100" fill="none" xmlns="http://www.w3.org/2000/svg">
<rect width="100" height="100" fill="white"/>
<path d="M7.10751 32H22.385C22.4052 32.0001 22.425 32.0061 22.4419 32.0172C22.4587 32.0283 22.4721 32.044 22.4803 32.0625C22.4884 32.081 22.4911 32.1014 22.488 32.1214C22.4848 32.1413 22.476 32.1599 22.4625 32.175L7.18251 48.8275C7.16814 48.8432 7.14931 48.8542 7.12854 48.859C7.10777 48.8638 7.08604 48.8621 7.06623 48.8543C7.04643 48.8464 7.02948 48.8327 7.01766 48.8149C7.00583 48.7972 6.99967 48.7763 7.00001 48.755L7.00251 32.105C7.00251 32.0772 7.01358 32.0504 7.03327 32.0308C7.05296 32.0111 7.07967 32 7.10751 32Z" fill="#F05725"/>
<path d="M31.8399 66.9175C31.6766 66.7875 31.5233 66.645 31.3799 66.49C27.2416 62.03 23.0941 57.5783 18.9374 53.135C17.9308 52.0583 17.3283 51.2258 17.1299 50.6375C16.5449 48.8975 17.2699 47.6475 18.5249 46.305C22.8499 41.685 27.1874 37.0292 31.5374 32.3375C31.636 32.231 31.7555 32.1461 31.8884 32.088C32.0214 32.03 32.1649 32 32.3099 32H41.1224C41.2308 32 41.2483 32.04 41.1749 32.12L25.4774 49.36C25.4421 49.3991 25.4226 49.4498 25.4226 49.5025C25.4226 49.5552 25.4421 49.6059 25.4774 49.645L41.1224 66.8275C41.2258 66.9425 41.1999 67 41.0449 67H32.0724C31.9858 67 31.9083 66.9725 31.8399 66.9175Z" fill="#231F20"/>
<path d="M43.04 66.8925L36.575 59.7425C36.5607 59.7275 36.5511 59.7087 36.5475 59.6883C36.5439 59.6679 36.5464 59.6469 36.5547 59.628C36.563 59.609 36.5766 59.5929 36.594 59.5817C36.6114 59.5705 36.6318 59.5647 36.6525 59.565C39.3391 59.5617 42.0366 59.56 44.745 59.56C48.485 59.5575 51.565 58.22 51.8225 53.9925C52.2575 46.84 52 39.5125 51.9925 32.315C51.9925 32.2315 52.0256 32.1513 52.0847 32.0923C52.1438 32.0332 52.2239 32 52.3075 32H59.385C59.4816 32 59.5308 32.0483 59.5325 32.145C59.5975 41.0933 59.5875 48.2317 59.5025 53.56C59.465 55.8275 59.1325 58.7075 58.155 60.7175C55.45 66.285 48.965 67.5375 43.2775 67.01C43.1825 67.0017 43.1033 66.9625 43.04 66.8925Z" fill="#231F20"/>
<path d="M84.3076 55.21V32.0775C84.3076 32.0569 84.3158 32.0372 84.3303 32.0227C84.3449 32.0082 84.3646 32 84.3851 32H92.0876C92.1082 32 92.1279 32.0082 92.1424 32.0227C92.157 32.0372 92.1651 32.0569 92.1651 32.0775L92.2226 67.11C92.2226 67.1306 92.2145 67.1503 92.1999 67.1648C92.1854 67.1793 92.1657 67.1875 92.1451 67.1875H83.7551C83.742 67.1873 83.7292 67.1837 83.7178 67.1771C83.7064 67.1706 83.6969 67.1612 83.6901 67.15L69.4501 44.49C69.441 44.476 69.4276 44.4653 69.4119 44.4595C69.3962 44.4537 69.379 44.4532 69.363 44.4579C69.3469 44.4627 69.3329 44.4726 69.3229 44.486C69.3129 44.4995 69.3076 44.5158 69.3076 44.5325V67.11C69.3076 67.1306 69.2995 67.1503 69.2849 67.1648C69.2704 67.1793 69.2507 67.1875 69.2301 67.1875H61.6351C61.6146 67.1875 61.5948 67.1793 61.5803 67.1648C61.5658 67.1503 61.5576 67.1306 61.5576 67.11V32.0775C61.5576 32.0569 61.5658 32.0372 61.5803 32.0227C61.5948 32.0082 61.6146 32 61.6351 32H69.5951C69.6082 32.0002 69.6211 32.0038 69.6325 32.0104C69.6438 32.0169 69.6533 32.0263 69.6601 32.0375L84.1651 55.25C84.1741 55.2639 84.1873 55.2745 84.2028 55.2803C84.2183 55.2862 84.2352 55.2869 84.2511 55.2825C84.267 55.278 84.2811 55.2685 84.2913 55.2555C84.3014 55.2425 84.3072 55.2265 84.3076 55.21Z" fill="#231F20"/>
<path d="M7.04248 67.0351L7.06248 59.1301C7.06289 59.1096 7.07091 59.09 7.08498 59.0751L11.28 54.4976C11.2877 54.4894 11.297 54.4829 11.3073 54.4784C11.3176 54.474 11.3287 54.4717 11.34 54.4717C11.3512 54.4717 11.3623 54.474 11.3727 54.4784C11.383 54.4829 11.3923 54.4894 11.4 54.4976L22.8725 67.0051C22.883 67.0168 22.89 67.0314 22.8925 67.047C22.895 67.0626 22.8929 67.0786 22.8866 67.0931C22.8803 67.1075 22.87 67.1199 22.8568 67.1287C22.8437 67.1375 22.8283 67.1423 22.8125 67.1426L7.12498 67.1176C7.1031 67.1176 7.08212 67.1089 7.06664 67.0934C7.05117 67.0779 7.04248 67.0569 7.04248 67.0351Z" fill="#231F20"/>
</svg>
