<svg width="100" height="100" viewBox="0 0 100 100" fill="none" xmlns="http://www.w3.org/2000/svg">
<g clip-path="url(#clip0_74_4142)">
<rect width="100" height="100" fill="white"/>
<path d="M117.994 35.4841L71.767 45.5431C67.9464 43.9353 63.9787 42.1853 59.8639 40.293C58.5225 39.6783 57.1051 39.0022 55.789 39.3674C54.6428 39.6856 53.3483 39.8917 52.3215 40.1629C40.7221 43.2194 29.0854 46.2747 17.4113 49.3288C14.8562 48.1742 12.3083 46.9002 9.76764 45.5069C9.03243 45.1044 8.34664 45.0502 7.71027 45.3442C3.44006 47.3184 -1.9908 50.2002 -6.88654 52.5757C-9.47783 53.8292 -12.139 55.1393 -14.8701 56.5061L-16.8696 56.5603C-16.995 56.3337 -17.0299 55.9746 -16.9745 55.4828L-7.4289 50.5762L-1.40867 47.5715L3.32797 45.1598C4.5043 44.8682 5.60831 44.3475 6.64001 43.5978L7.70666 42.9831L8.61421 42.9036C8.69918 42.8965 8.78564 42.914 8.8637 42.9542C12.0311 44.5934 14.632 45.8938 16.6665 46.8556C17.4788 47.2389 18.2852 47.2534 19.0854 46.899L20.9005 46.4651L28.3201 44.4801L44.9381 40.105C45.6516 40.064 46.3133 39.8857 46.9231 39.5699L47.5487 39.3349C47.7801 39.3975 48.0561 39.3843 48.3767 39.2951C50.7366 38.6298 53.6292 37.8837 57.0545 37.0569C57.1726 37.028 57.2871 37.0388 57.398 37.0895L70.8956 43.0302L72.9638 43.1133C83.4953 41.0451 94.0003 38.7877 104.479 36.341L111.689 34.7103L117.55 34.4355C117.606 34.4324 117.663 34.4453 117.712 34.4728C117.762 34.5003 117.804 34.5412 117.832 34.591C117.964 34.8272 118.019 35.1249 117.994 35.4841Z" fill="#FCF222"/>
<path d="M111.688 34.7102L104.479 36.3409C101.964 36.5314 99.4901 36.964 97.0555 37.639C95.6851 38.0186 93.9785 38.1669 92.4815 38.7165C91.7873 38.9732 91.1365 38.9551 90.5001 39.1214C84.6571 40.6328 78.7127 41.1571 72.9637 43.1132L70.8955 43.0301C69.9891 42.2732 69.0804 41.7163 68.1692 41.3596C64.4631 39.9133 61.386 38.3657 57.9981 36.9628C57.6944 36.8363 57.2243 36.8037 56.9604 36.8544C53.7616 37.4594 50.6244 38.2862 47.5485 39.3348L46.923 39.5698C46.1999 39.5987 45.5382 39.7771 44.938 40.1049L28.32 44.48C25.7624 44.7692 23.2892 45.4309 20.9004 46.465L19.0853 46.8989C18.0838 46.8772 17.2268 46.9459 16.3157 46.4072C13.8449 44.9512 11.3946 43.7532 8.96482 42.8131C8.43451 42.6106 8.01508 42.6673 7.70654 42.9831L6.63989 43.5977C5.44187 43.9641 4.33786 44.4848 3.32786 45.1597L-1.40878 47.5715C-3.5469 48.338 -5.55364 49.3396 -7.42902 50.5761L-16.9746 55.4827L-16.8336 34.8874C-16.8336 34.7572 -16.7685 34.6921 -16.6383 34.6921L111.688 34.7102Z" fill="#71E3E0"/>
<path d="M117.994 35.4841L117.871 56.5387L95.1063 56.5495C95.1449 56.2723 95.0894 56.1518 94.94 56.1879C87.788 53.0446 80.6782 49.8097 73.6106 46.4833C73.1093 46.247 72.4946 45.9337 71.7666 45.5432L117.994 35.4841Z" fill="#37941A"/>
<path d="M104.478 36.3411C93.9999 38.7877 83.4949 41.0452 72.9634 43.1134C78.7124 41.1572 84.6567 40.633 90.4998 39.1216C91.1362 38.9553 91.787 38.9733 92.4812 38.7166C93.9781 38.167 95.6848 38.0188 97.0552 37.6391C99.4898 36.9642 101.964 36.5315 104.478 36.3411Z" fill="#76CE4D"/>
<path d="M70.8958 43.0303L57.3982 37.0896C57.2873 37.039 57.1728 37.0282 57.0546 37.0571C53.6293 37.8839 50.7367 38.6299 48.3768 39.2952C48.0562 39.3844 47.7802 39.3977 47.5488 39.335C50.6246 38.2864 53.7619 37.4596 56.9606 36.8546C57.2246 36.804 57.6946 36.8365 57.9984 36.9631C61.3863 38.366 64.4633 39.9135 68.1695 41.3598C69.0807 41.7166 69.9894 42.2734 70.8958 43.0303Z" fill="#76CE4D"/>
<path d="M71.7668 45.5429C72.4948 45.9334 73.1094 46.2468 73.6108 46.483C80.6784 49.8095 87.7882 53.0444 94.9402 56.1877C95.0896 56.1515 95.1451 56.272 95.1065 56.5492L30.8364 56.5456C30.957 56.3697 30.957 56.2516 30.8364 56.1913C27.6039 54.5763 23.1288 52.2887 17.4111 49.3286C29.0852 46.2745 40.7219 43.2192 52.3213 40.1627C53.3481 39.8915 54.6426 39.6854 55.7888 39.3672C57.1049 39.002 58.5223 39.6781 59.8637 40.2928C63.9785 42.1851 67.9461 43.9351 71.7668 45.5429Z" fill="#76CE4D"/>
<path d="M46.923 39.5696C46.3132 39.8854 45.6515 40.0637 44.938 40.1047C45.5382 39.7769 46.1999 39.5985 46.923 39.5696Z" fill="#76CE4D"/>
<path d="M19.0853 46.899C18.285 47.2534 17.4787 47.2389 16.6664 46.8557C14.6319 45.8939 12.031 44.5934 8.86359 42.9543C8.78553 42.9141 8.69907 42.8965 8.6141 42.9036L7.70654 42.9832C8.01509 42.6674 8.43452 42.6108 8.96483 42.8132C11.3946 43.7533 13.8449 44.9514 16.3157 46.4073C17.2268 46.9461 18.0838 46.8774 19.0853 46.899Z" fill="#76CE4D"/>
<path d="M6.63967 43.5977C5.60797 44.3473 4.50396 44.868 3.32764 45.1597C4.33764 44.4847 5.44165 43.9641 6.63967 43.5977Z" fill="#76CE4D"/>
<path d="M28.3199 44.48L20.9004 46.465C23.2892 45.4309 25.7624 44.7692 28.3199 44.48Z" fill="#76CE4D"/>
<path d="M17.4109 49.3287C23.1286 52.2888 27.6037 54.5764 30.8362 56.1914C30.9567 56.2517 30.9567 56.3698 30.8362 56.5458L-14.8706 56.506C-12.1395 55.1393 -9.47831 53.8291 -6.88702 52.5757C-1.99128 50.2001 3.43958 47.3184 7.70979 45.3442C8.34616 45.0501 9.03195 45.1043 9.76716 45.5069C12.3078 46.9002 14.8557 48.1741 17.4109 49.3287Z" fill="#DBFAB3"/>
<path d="M-14.8703 56.5061L30.8365 56.5459L95.1065 56.5495L117.871 56.5386L117.882 65.3394C117.882 65.4065 117.856 65.4709 117.809 65.5184C117.762 65.5658 117.699 65.5925 117.633 65.5925L-16.7252 65.4732C-16.7616 65.4732 -16.7976 65.466 -16.8312 65.4519C-16.8648 65.4379 -16.8952 65.4173 -16.9208 65.3914C-16.9463 65.3655 -16.9665 65.3348 -16.9801 65.301C-16.9937 65.2673 -17.0005 65.2312 -17 65.1948L-16.8698 56.5603L-14.8703 56.5061Z" fill="#1E264B"/>
<path d="M-14.8684 65L30.8783 65.1576L95.2045 65.1719L117.989 65.1289L118 99.9972C118 100.263 117.974 100.518 117.927 100.706C117.88 100.894 117.817 101 117.75 101L-16.7249 100.527C-16.7614 100.527 -16.7974 100.499 -16.831 100.443C-16.8646 100.387 -16.8951 100.306 -16.9207 100.203C-16.9463 100.101 -16.9665 99.979 -16.9801 99.8452C-16.9937 99.7115 -17.0005 99.5684 -17 99.4242L-16.8697 65.2149L-14.8684 65Z" fill="#F4F024"/>
<path d="M-14.8684 -1L30.8783 -0.842419L95.2045 -0.828101L117.989 -0.871076L118 33.9972C118 34.2632 117.974 34.5182 117.927 34.7063C117.88 34.8944 117.817 35 117.75 35L-16.7249 34.5273C-16.7614 34.5273 -16.7974 34.4986 -16.831 34.443C-16.8646 34.3874 -16.8951 34.306 -16.9207 34.2033C-16.9463 34.1007 -16.9665 33.979 -16.9801 33.8452C-16.9937 33.7115 -17.0005 33.5684 -17 33.4242L-16.8697 -0.785126L-14.8684 -1Z" fill="#71E3E0"/>
</g>
<defs>
<clipPath id="clip0_74_4142">
<rect width="100" height="100" fill="white"/>
</clipPath>
</defs>
</svg>
