<svg width="100" height="100" viewBox="0 0 100 100" fill="none" xmlns="http://www.w3.org/2000/svg">
<rect width="100" height="100" fill="#F4FEFF"/>
<path d="M54.8337 10L53.8911 10.115C53.8779 10.116 53.8656 10.1222 53.8569 10.1323C53.8482 10.1424 53.8439 10.1555 53.8449 10.1688C53.8459 10.182 53.8521 10.1943 53.8622 10.203C53.8723 10.2117 53.8854 10.216 53.8986 10.215C61.5462 10.225 69.4237 13.0775 75.6662 17.375C78.9145 19.5 81.7387 22.0342 84.1387 24.9775L85.1237 27.1625C85.1603 27.2442 85.2187 27.3042 85.2987 27.3425L85.3687 27.3775C85.3833 27.3851 85.3954 27.3969 85.4032 27.4114C85.4111 27.4259 85.4144 27.4424 85.4128 27.4588C85.4112 27.4753 85.4047 27.4908 85.3942 27.5035C85.3836 27.5162 85.3695 27.5254 85.3537 27.53C85.2287 27.5583 85.117 27.5183 85.0187 27.41C84.5003 26.8367 83.987 26.2825 83.4787 25.7475C83.2737 25.3825 82.947 25.0433 82.4987 24.73L80.5687 22.9775C78.332 21.1475 75.9453 19.5383 73.4087 18.15L70.6437 16.775C67.9553 15.55 65.1687 14.6333 62.2837 14.025C62.1237 13.9925 61.9262 14.06 61.7537 14.0775L61.5887 14.02C61.3503 13.7333 61.0187 13.6767 60.5937 13.85C60.3937 13.89 60.237 13.87 60.1237 13.79C59.7737 13.26 59.1362 13.65 58.6262 13.62L57.9237 13.4925C57.4637 13.2808 56.967 13.275 56.4337 13.475C56.307 13.54 56.212 13.5608 56.1487 13.5375C55.3787 13.2492 54.572 13.1292 53.7286 13.1775C53.7194 13.1795 53.711 13.1845 53.7049 13.1918C53.6988 13.1991 53.6954 13.2083 53.6951 13.2178C53.6948 13.2273 53.6977 13.2366 53.7033 13.2443C53.709 13.2519 53.717 13.2575 53.7261 13.26L56.4437 13.62L57.4362 13.685C57.5112 13.7767 57.6878 13.8233 57.9662 13.825L62.6312 15.0375L63.5987 15.7125L64.4112 16.875C64.4578 16.94 64.5162 16.9908 64.5862 17.0275C65.4587 17.4875 66.5612 17.905 67.2612 18.2475C72.3545 20.7375 76.7095 24.125 80.3262 28.41C80.4728 28.585 80.5978 28.6917 80.7012 28.73C80.6995 28.7567 80.6987 28.7833 80.6987 28.81C80.6987 28.8733 80.7187 28.9292 80.7587 28.9775C85.6537 35.1925 88.3087 42.2475 88.8862 50.1325C88.9428 50.8975 89.027 51.6608 89.1387 52.4225L89.0587 53.7275C88.8462 55.48 88.7637 57.4 88.5037 58.9725C87.8787 62.7475 86.7678 66.3775 85.1712 69.8625C85.1562 69.8925 85.1603 69.92 85.1837 69.945C85.197 69.96 85.2137 69.9767 85.2337 69.995C85.1703 70.1367 85.1145 70.2108 85.0662 70.2175L83.0937 73.795L81.1412 76.7375C80.5212 77.5975 79.4795 78.8683 78.0162 80.55C76.2962 82.5275 74.9912 83.825 72.5712 84.7025C72.551 84.7104 72.529 84.7109 72.5087 84.704C72.4884 84.6971 72.4712 84.6831 72.46 84.6645C72.4488 84.6459 72.4442 84.6239 72.4472 84.6021C72.4501 84.5803 72.4604 84.5601 72.4762 84.545L73.2712 83.795C75.5628 81.4783 77.6028 78.9584 79.3912 76.235C79.5378 76.01 79.6287 75.7717 79.6637 75.52C79.7303 75.4033 79.7645 75.3883 79.7662 75.475C80.5495 74.3767 81.2062 73.2158 81.7362 71.9925L83.0462 68.995C84.1678 66.3433 84.9395 63.595 85.3612 60.75C85.3712 60.685 85.3462 60.6392 85.2862 60.6125C85.2645 60.6042 85.2403 60.5967 85.2137 60.59C85.2553 60.5267 85.2837 60.4459 85.2987 60.3475C85.4253 60.3242 85.4978 60.265 85.5162 60.17C85.7162 59.1717 85.7987 58.0917 85.7637 56.93C85.7562 56.6625 85.5787 56.475 85.7637 56.145C85.7987 56.0817 85.8187 56.0133 85.8237 55.94C85.8637 55.28 85.9045 54.6208 85.9462 53.9625C85.9462 53.9542 85.9437 53.9475 85.9387 53.9425L85.8812 53.8825C85.8512 53.8542 85.8345 53.8608 85.8312 53.9025L85.4437 57.5775C85.3387 57.6525 85.2953 57.7967 85.3137 58.01C85.0303 58.27 84.9762 58.5975 85.1512 58.9925L85.0637 59.48C84.762 59.66 84.7178 59.8567 84.9312 60.07L84.8287 60.365C84.8003 60.3583 84.7737 60.355 84.7487 60.355C84.6853 60.3533 84.6487 60.3842 84.6387 60.4475C84.5362 61.105 83.6137 64.2025 82.6987 63.755C82.777 63.7 82.8328 63.6142 82.8662 63.4975L83.6687 60.395C83.6737 60.375 83.6687 60.3633 83.6537 60.36C83.6453 60.3583 83.6362 60.3575 83.6262 60.3575C83.5995 60.3608 83.5803 60.38 83.5687 60.415L82.6662 63.3375C82.5962 63.4125 82.562 63.5017 82.5637 63.605C82.3787 63.5817 82.287 63.7025 82.2887 63.9675C82.2887 64.0275 82.3187 64.0567 82.3787 64.055H82.4737C82.4933 64.0552 82.5124 64.0618 82.528 64.0738C82.5435 64.0859 82.5547 64.1027 82.5598 64.1217C82.5649 64.1407 82.5637 64.1608 82.5562 64.179C82.5488 64.1972 82.5356 64.2125 82.5187 64.2225L82.2787 64.36C82.2103 64.4 82.162 64.4558 82.1337 64.5275C78.4637 73.735 71.9462 81.0025 63.0062 85.35C59.0778 87.2583 54.677 88.4883 49.8037 89.04C49.4253 89.185 49.047 89.2175 48.6687 89.1375L44.4261 89.125C43.8261 89.215 43.267 89.1734 42.7486 89C32.412 87.6367 23.6836 83.2892 16.5636 75.9575C15.7511 75.12 15.2436 74.24 14.8361 73.2025C14.8226 73.1664 14.8219 73.1268 14.8342 73.0903C14.8465 73.0537 14.871 73.0226 14.9036 73.002C14.9362 72.9814 14.9749 72.9728 15.0132 72.9774C15.0514 72.982 15.0869 72.9997 15.1136 73.0275C15.867 73.8508 16.707 74.5942 17.6336 75.2575L18.6586 76.09C18.637 76.1117 18.6211 76.1342 18.6111 76.1575C18.5845 76.2192 18.597 76.2717 18.6486 76.315C24.7936 81.3475 33.1286 85.37 41.1511 85.6925L41.8961 85.7725C41.8311 85.9008 41.8961 85.9659 42.0911 85.9675C43.1061 85.9742 43.9236 85.9792 44.5436 85.9825C45.512 85.9858 45.5145 85.9375 44.5511 85.8375L42.6036 85.635C40.922 85.46 39.3403 85.1109 37.8586 84.5875C36.8703 84.1709 35.9986 83.65 35.2436 83.025C35.182 82.9734 35.1711 82.9134 35.2111 82.845L35.3061 82.68C35.3661 82.5767 35.3495 82.4883 35.2561 82.415C35.0928 82.29 34.9236 82.2667 34.7486 82.345L34.6336 82.295C34.642 82.2517 34.632 82.2075 34.6036 82.1625C34.5836 82.1292 34.5495 82.1033 34.5011 82.085C25.1461 78.315 17.8436 71.465 13.6136 62.315C13.522 62.115 13.3986 61.9825 13.2436 61.9175C13.2036 61.9109 13.1903 61.875 13.2036 61.81C13.2853 61.6683 13.287 61.5292 13.2086 61.3925C12.6511 60.41 12.2961 59.025 11.9486 57.9425C11.9394 57.9145 11.9209 57.8906 11.8962 57.875C11.8715 57.8595 11.8422 57.8533 11.8136 57.8575C11.7903 57.8608 11.7636 57.8667 11.7336 57.875C11.692 57.8083 11.6886 57.7833 11.7236 57.8L11.7886 57.5275C11.807 57.4475 11.8045 57.3683 11.7811 57.29C11.0811 54.95 10.6495 52.9942 10.4861 51.4225C10.4295 50.8858 10.342 50.54 10.2236 50.385C10.2186 50.55 10.2136 50.5008 10.2086 50.2375C10.302 49.8792 10.3428 49.6275 10.3311 49.4825C10.1595 47.4242 10.1536 45.3642 10.3136 43.3025C10.3203 43.2325 10.292 43.1808 10.2286 43.1475L10.1611 43.1125C10.1711 42.8142 10.2145 42.6333 10.2911 42.57C10.5495 41.265 10.8061 39.9675 11.0611 38.6775C11.3678 37.1258 11.6786 35.8425 11.9936 34.8275C12.9486 31.7592 14.2103 28.7892 15.7786 25.9175C17.352 23.0775 19.2611 20.4767 21.5061 18.115C21.9611 17.845 22.4436 17.4058 22.9536 16.7975C23.477 16.1708 24.2386 15.5592 25.2386 14.9625L27.3436 13.98C27.3739 13.9679 27.4075 13.967 27.4385 13.9774C27.4694 13.9878 27.4956 14.0088 27.5124 14.0368C27.5293 14.0647 27.5356 14.0977 27.5303 14.1299C27.5251 14.1621 27.5085 14.1914 27.4836 14.2125C26.382 15.0492 25.3928 16.0017 24.5161 17.07C24.3511 17.065 24.1736 17.1725 23.9836 17.3925C19.2653 22.8808 16.0486 29.0158 14.3336 35.7975C14.322 35.8442 14.3678 35.89 14.4711 35.935L14.3211 36.4575C14.0045 36.8158 13.9553 37.1025 14.1736 37.3175C14.1703 37.5142 14.1345 37.6908 14.0661 37.8475C13.8378 38.1025 13.7395 38.3983 13.7711 38.735C13.7723 38.7502 13.7792 38.7646 13.7906 38.7756C13.8021 38.7865 13.8173 38.7934 13.8336 38.795L13.9111 38.8L13.4461 41.575C13.3461 42.8933 13.2886 44.205 13.2736 45.51C13.272 45.5383 13.2761 45.5608 13.2861 45.5775C13.3028 45.6025 13.3236 45.615 13.3486 45.615C13.3936 45.615 13.4178 45.5925 13.4211 45.5475L13.6936 42.0675C13.807 42.0042 13.852 41.8992 13.8286 41.7525L14.5836 38.11C14.5936 37.91 14.6536 37.6975 14.7636 37.4725L14.8186 37.5125C14.8503 37.5358 14.8745 37.5292 14.8911 37.4925L15.7561 35.68C15.8761 35.3617 16.0895 35.0617 16.3961 34.78L16.7061 35.055C16.7928 35.13 16.8561 35.1142 16.8961 35.0075L17.0361 34.6375C17.2661 34.2275 17.5911 33.53 18.0111 32.545C18.7495 30.8067 19.9428 28.7292 21.5911 26.3125C21.9878 25.7325 22.2228 25.3433 22.2961 25.145C23.8895 22.985 25.7078 21.0117 27.7511 19.225C27.8011 19.31 27.8695 19.3158 27.9561 19.2425C33.4495 14.5708 39.8061 11.6942 47.0261 10.6125C48.3828 10.4092 49.7562 10.2267 51.1462 10.065L54.8337 10ZM30.6786 23.75C30.0786 24.63 29.2886 25.0575 28.6061 25.8875C22.4395 33.2558 19.9003 41.7942 20.9886 51.5025L21.2686 52.795C21.2353 52.895 21.2795 52.9983 21.4011 53.105C21.3561 53.5267 21.3653 53.8875 21.4286 54.1875C22.4053 58.7792 24.2195 62.9533 26.8711 66.71C27.4761 67.43 28.0503 68.1708 28.5936 68.9325C28.622 68.9709 28.637 69.01 28.6386 69.05C28.6403 69.0984 28.6386 69.1408 28.6336 69.1775C28.6329 69.1882 28.6293 69.1984 28.6233 69.2072C28.6173 69.216 28.609 69.2232 28.5992 69.2279C28.5894 69.2327 28.5785 69.2349 28.5675 69.2344C28.5564 69.2339 28.5457 69.2307 28.5361 69.225C26.5228 68.0333 24.9861 66.4333 23.9261 64.425L21.3311 59.5175C21.1761 59.3308 21.0678 59.1183 21.0061 58.88C20.8545 58.0333 20.5611 57.2867 20.1261 56.64L19.9386 56.29C20.0686 56.1233 20.0303 55.9533 19.8236 55.78C19.8403 55.6383 19.8145 55.4983 19.7461 55.36C19.7811 55.3217 19.8061 55.2808 19.8211 55.2375C19.8345 55.2008 19.8328 55.1542 19.8161 55.0975C19.5045 54.0075 19.1928 52.8917 18.8811 51.75C18.7878 51.6433 18.7361 51.4517 18.7261 51.175C18.8786 50.6175 18.7511 48.8975 18.3711 48.41L18.1961 46.14C18.4161 45.64 18.407 45.2058 18.1686 44.8375L18.5211 41.0475C18.8811 40.455 18.8186 39.775 18.9436 39.2675C19.1061 38.6225 19.2811 38.0325 19.1786 37.3625C19.1186 37.3592 19.1453 37.3033 19.2586 37.195C19.7761 36.925 19.6136 36.495 19.7061 36.1175C19.8611 35.4842 20.0461 34.8583 20.2611 34.24C20.2778 34.195 20.2628 34.1792 20.2161 34.1925C20.1911 34.2008 20.1711 34.2208 20.1561 34.2525C19.8161 34.8925 19.5778 35.515 19.4411 36.12L19.0886 36.745C18.897 36.8083 18.8045 36.965 18.8111 37.215C18.8118 37.2507 18.8043 37.286 18.7891 37.3181C18.7739 37.3502 18.7515 37.3782 18.7236 37.4C18.552 37.535 18.5195 37.7133 18.6261 37.935L18.2886 38.5775C16.7286 42.5175 15.847 46.6108 15.6436 50.8575C15.587 52.0275 15.702 53.1783 15.9886 54.31C17.2703 59.3817 19.6245 63.8834 23.0511 67.815C23.1495 67.9283 23.2495 67.95 23.3511 67.88L23.7311 68.435L26.0586 70.7825C33.262 76.8058 41.6478 79.31 51.2162 78.295C51.7412 78.29 52.2445 78.1792 52.7261 77.9625C52.7078 77.9408 52.6903 77.9183 52.6736 77.895C52.692 77.9667 52.7628 78 52.8862 77.995C58.2412 77.2925 63.4412 74.8175 67.8237 71.7275C67.8465 71.7114 67.8738 71.7028 67.9017 71.7029C67.9296 71.703 67.9568 71.7117 67.9796 71.7279C68.0023 71.7441 68.0195 71.7669 68.0288 71.7932C68.038 71.8196 68.0388 71.8482 68.0312 71.875C67.6462 73.185 66.0287 74.13 64.6712 75.0075C62.0145 76.7225 59.1837 78.1258 56.1787 79.2175L55.9362 79.41C55.7328 79.3217 55.5387 79.3475 55.3537 79.4875C55.3253 79.5092 55.312 79.5375 55.3137 79.5725V79.6975C55.3137 79.7792 55.2803 79.7967 55.2137 79.75C55.0037 79.6033 54.7487 79.5767 54.4487 79.67C53.1787 80.0575 51.6887 80.4175 50.2787 80.525C49.8303 80.56 49.3853 80.6033 48.9437 80.655C45.1953 81.09 41.4878 80.8683 37.8211 79.99C37.7095 79.9633 37.6245 80.0183 37.5661 80.155C37.1011 79.93 36.6553 79.8158 36.2286 79.8125C35.5953 79.4642 34.9186 79.1667 34.1986 78.92C34.1286 78.8967 34.0686 78.8975 34.0186 78.9225C33.9536 78.9542 33.9536 78.9859 34.0186 79.0175L36.0636 80.01C36.977 80.4783 38.0895 80.9308 39.4011 81.3675C43.0828 82.5958 46.7687 83.3542 50.4587 83.6425C54.8362 83.985 60.4162 81.325 63.9312 79.0225C65.5762 77.9425 67.2687 76.8925 68.3837 75.5525L70.3712 73.605C76.7078 66.2067 79.3203 57.5583 78.2087 47.66L77.9937 46.3025C78.032 46.0308 77.9553 45.7992 77.7637 45.6075C77.7737 44.8608 77.6162 44.1492 77.2912 43.4725C77.2545 43.5992 77.2128 43.5633 77.1662 43.365C77.2645 43.2667 77.3012 43.1758 77.2762 43.0925C76.6962 41.1075 76.037 39.3158 75.2987 37.7175L73.4137 34.095L71.3937 30.985C71.3692 30.9544 71.3576 30.9154 71.3615 30.8764C71.3654 30.8374 71.3844 30.8014 71.4145 30.7763C71.4446 30.7511 71.4833 30.7387 71.5224 30.7417C71.5615 30.7448 71.5978 30.763 71.6237 30.7925C72.1437 31.275 72.7862 31.615 73.2087 32.1525C75.9712 35.665 77.7612 39.355 79.3037 43.49C79.3703 43.54 79.4012 43.6167 79.3962 43.72C79.3945 44.005 79.4537 44.1608 79.5737 44.1875L79.6912 44.535C79.6745 44.545 79.6578 44.5575 79.6412 44.5725C79.6062 44.6008 79.5945 44.6367 79.6062 44.68C80.5628 48.2817 80.9645 51.945 80.8112 55.67C80.8062 55.8033 80.8503 55.8875 80.9437 55.9225L80.8187 56.97C80.5387 57.2967 80.4937 57.6583 80.6837 58.055L80.5537 58.91C80.3353 59.17 80.2387 59.4875 80.2637 59.8625C80.2686 59.9463 80.2531 60.0295 80.2187 60.105C80.0303 60.52 79.9912 60.94 80.1012 61.365C80.0762 61.4117 80.0637 61.4692 80.0637 61.5375C79.7987 61.7442 79.7437 61.9875 79.8987 62.2675L79.5987 63.0625C79.5703 63.1375 79.5953 63.1758 79.6737 63.1775H79.7612L79.7012 63.285L79.5687 63.36C79.492 63.405 79.437 63.4692 79.4037 63.5525C79.2687 63.9108 79.1478 64.275 79.0412 64.645C78.8678 65.245 78.9195 65.265 79.1962 64.705L79.8137 63.4525C82.1087 58.5425 83.352 53.4033 83.5437 48.035C83.462 47.9067 83.4712 47.6958 83.5712 47.4025C83.6412 47.0775 83.6628 46.8542 83.6362 46.7325C82.8912 43.1975 81.4187 38.67 79.2937 35.7125L77.8737 33.61C77.0953 32.4967 76.1953 31.4783 75.1737 30.555C74.962 30.27 74.737 30.0767 74.4987 29.975C74.262 29.4917 73.8562 29.0775 73.2812 28.7325C73.1228 28.4975 72.8378 28.215 72.4262 27.885C65.4212 22.2775 56.6762 19.7125 47.7337 20.97L46.1311 21.2625C46.0928 21.3275 46.0336 21.365 45.9536 21.375C45.3453 21.3233 44.7386 21.3758 44.1336 21.5325C39.3553 22.7642 34.9411 24.8867 30.8911 27.9C30.865 27.9166 30.8338 27.9234 30.8032 27.9191C30.7725 27.9147 30.7444 27.8996 30.7239 27.8764C30.7034 27.8532 30.6919 27.8234 30.6914 27.7925C30.6909 27.7615 30.7014 27.7314 30.7211 27.7075C31.0111 27.4075 31.2128 27.0558 31.3261 26.6525C31.4895 26.2192 31.847 25.8808 32.3986 25.6375C35.812 23.1792 39.5095 21.2542 43.4911 19.8625L43.7161 19.6325C43.9428 19.7025 44.1661 19.6158 44.3861 19.3725C44.4278 19.3258 44.467 19.3275 44.5036 19.3775L44.5536 19.4425C44.6003 19.5075 44.6628 19.5308 44.7411 19.5125C46.1178 19.2025 47.5028 18.9258 48.8962 18.6825C49.0962 18.6475 49.5962 18.615 50.3962 18.585C50.9228 18.565 51.4211 18.4583 51.8911 18.265L56.3287 18.2625L55.9012 18.29C55.8746 18.2948 55.8506 18.309 55.8336 18.3301C55.8167 18.3511 55.8078 18.3775 55.8088 18.4045C55.8097 18.4315 55.8203 18.4573 55.8386 18.4771C55.8569 18.4969 55.8818 18.5095 55.9087 18.5125C57.987 18.5108 59.8387 18.7642 61.4637 19.2725C62.0537 19.4575 62.5203 19.52 62.8637 19.46C63.022 19.3117 62.9803 19.2092 62.7387 19.1525L62.5937 18.9125C62.5537 18.8492 62.4995 18.8042 62.4312 18.7775C60.1295 17.8842 57.7812 17.1417 55.3862 16.55C55.2445 16.515 55.0787 16.545 54.8887 16.64C54.7603 16.67 54.7353 16.6508 54.8137 16.5825C54.0353 16.2025 53.2237 16.0467 52.3787 16.115C52.3487 16.2083 52.2603 16.1975 52.1137 16.0825C51.542 15.7458 50.9803 15.6775 50.4287 15.8775L49.1287 15.7175C47.757 15.4775 46.282 15.57 44.7036 15.995C39.242 17.4667 34.567 20.0517 30.6786 23.75ZM62.6232 16.1223C62.6277 16.1049 62.6252 16.0865 62.6162 16.0711C62.6072 16.0556 62.5925 16.0443 62.5752 16.0398L60.482 15.4867C60.4647 15.4822 60.4463 15.4846 60.4308 15.4936C60.4153 15.5026 60.4041 15.5174 60.3995 15.5347L60.3842 15.5928C60.3796 15.6101 60.3821 15.6285 60.3911 15.6439C60.4001 15.6594 60.4148 15.6707 60.4322 15.6753L62.5253 16.2283C62.5426 16.2328 62.561 16.2304 62.5765 16.2214C62.592 16.2124 62.6033 16.1976 62.6078 16.1803L62.6232 16.1223ZM63.3687 16.32L62.9112 16.095C62.9017 16.0901 62.8911 16.0878 62.8804 16.0883C62.8698 16.0889 62.8595 16.0923 62.8506 16.0981C62.8416 16.104 62.8344 16.1121 62.8297 16.1217C62.825 16.1312 62.8229 16.1419 62.8237 16.1525C62.8253 16.1775 62.8237 16.2042 62.8187 16.2325C62.8138 16.2647 62.8197 16.2977 62.8356 16.3262C62.8514 16.3547 62.8762 16.3771 62.9062 16.39L64.0662 16.8775C64.1428 16.9108 64.172 16.8867 64.1537 16.805C64.0937 16.5267 63.9078 16.3842 63.5962 16.3775C63.5162 16.3742 63.4403 16.355 63.3687 16.32ZM64.9194 20.1653C64.9316 20.1366 64.932 20.1042 64.9204 20.0753C64.9087 20.0464 64.8861 20.0233 64.8574 20.0111L63.188 19.299C63.1593 19.2868 63.1269 19.2864 63.098 19.298C63.0691 19.3097 63.046 19.3323 63.0338 19.361L63.0279 19.3748C63.0157 19.4034 63.0153 19.4358 63.027 19.4647C63.0386 19.4936 63.0612 19.5167 63.0899 19.5289L64.7594 20.241C64.788 20.2533 64.8204 20.2536 64.8493 20.242C64.8782 20.2303 64.9013 20.2077 64.9135 20.1791L64.9194 20.1653ZM16.4361 35.5075C16.2695 35.7008 16.2528 35.8408 16.3861 35.9275C16.4711 35.9842 16.532 35.9642 16.5686 35.8675C16.5836 35.8275 16.5886 35.7833 16.5836 35.735C16.762 35.6367 16.8136 35.5008 16.7386 35.3275C16.729 35.3045 16.7139 35.2842 16.6947 35.2684C16.6754 35.2526 16.6526 35.2418 16.6281 35.2369C16.6037 35.2319 16.5785 35.2331 16.5546 35.2401C16.5307 35.2472 16.5089 35.2601 16.4911 35.2775C16.3861 35.3792 16.3678 35.4558 16.4361 35.5075ZM16.4147 36.1399C16.4168 36.1316 16.4173 36.123 16.4161 36.1145C16.4149 36.1061 16.412 36.0979 16.4077 36.0906C16.4033 36.0833 16.3976 36.0768 16.3908 36.0717C16.3839 36.0666 16.3762 36.0629 16.3679 36.0607L16.3147 36.0471C16.3064 36.0449 16.2978 36.0445 16.2893 36.0457C16.2809 36.0469 16.2728 36.0497 16.2654 36.0541C16.2581 36.0584 16.2516 36.0642 16.2465 36.071C16.2414 36.0778 16.2377 36.0856 16.2355 36.0939L15.6126 38.5202C15.6104 38.5284 15.61 38.537 15.6112 38.5455C15.6124 38.5539 15.6152 38.5621 15.6196 38.5694C15.6239 38.5768 15.6297 38.5832 15.6365 38.5883C15.6433 38.5934 15.6511 38.5972 15.6594 38.5993L15.7126 38.613C15.7209 38.6151 15.7295 38.6156 15.7379 38.6144C15.7464 38.6131 15.7545 38.6103 15.7619 38.6059C15.7692 38.6016 15.7756 38.5958 15.7808 38.589C15.7859 38.5822 15.7896 38.5744 15.7917 38.5662L16.4147 36.1399ZM35.8486 83.005C35.8836 83.02 35.9195 83.03 35.9561 83.035C36.0461 83.045 36.0853 83.005 36.0736 82.915C36.0486 82.715 35.942 82.5925 35.7536 82.5475C35.7293 82.5421 35.704 82.5428 35.6801 82.5496C35.6561 82.5563 35.6342 82.569 35.6163 82.5863C35.5985 82.6037 35.5852 82.6253 35.5778 82.649C35.5703 82.6728 35.5689 82.6981 35.5736 82.7225L35.6036 82.8775C35.607 82.8892 35.6886 82.9317 35.8486 83.005ZM38.8407 83.6127C38.8428 83.6044 38.8433 83.5958 38.842 83.5873C38.8408 83.5789 38.838 83.5708 38.8336 83.5634C38.8293 83.5561 38.8235 83.5497 38.8166 83.5446C38.8098 83.5394 38.802 83.5357 38.7938 83.5336L36.3954 82.9223C36.3787 82.918 36.361 82.9206 36.3462 82.9294C36.3314 82.9382 36.3207 82.9525 36.3164 82.9692L36.3016 83.0274C36.2995 83.0356 36.299 83.0442 36.3002 83.0527C36.3015 83.0611 36.3043 83.0693 36.3087 83.0766C36.313 83.0839 36.3188 83.0904 36.3256 83.0955C36.3325 83.1006 36.3402 83.1043 36.3485 83.1064L38.7468 83.7177C38.7636 83.722 38.7813 83.7194 38.7961 83.7106C38.8109 83.7018 38.8216 83.6875 38.8259 83.6708L38.8407 83.6127Z" fill="#006FB4"/>
<path d="M51.146 10.0649C49.756 10.2266 48.3827 10.4091 47.026 10.6124C39.806 11.6941 33.4493 14.5707 27.956 19.2424C27.8693 19.3157 27.801 19.3099 27.751 19.2249C33.0426 14.6666 39.2127 11.7524 46.261 10.4824C48.061 10.1591 49.6893 10.0199 51.146 10.0649Z" fill="#57B7DF"/>
<path d="M54.8336 10C62.4903 10.4917 69.4703 12.9 75.7736 17.225L75.6661 17.375C69.4236 13.0775 61.5461 10.225 53.8986 10.215C53.8854 10.216 53.8722 10.2117 53.8622 10.203C53.8521 10.1943 53.8459 10.182 53.8449 10.1688C53.8439 10.1555 53.8482 10.1424 53.8569 10.1323C53.8655 10.1222 53.8779 10.116 53.8911 10.115L54.8336 10Z" fill="#57B7DF"/>
<path d="M56.4339 13.4749C56.4556 13.5099 56.4589 13.5582 56.4439 13.6199L53.7264 13.2599C53.7172 13.2574 53.7092 13.2518 53.7036 13.2441C53.6979 13.2365 53.695 13.2272 53.6953 13.2177C53.6956 13.2082 53.6991 13.199 53.7052 13.1917C53.7113 13.1844 53.7196 13.1794 53.7289 13.1774C54.5722 13.1291 55.3789 13.2491 56.1489 13.5374C56.2122 13.5607 56.3072 13.5399 56.4339 13.4749Z" fill="#57B7DF"/>
<path d="M57.9236 13.4924L57.4361 13.6849L56.4436 13.6199C56.4586 13.5582 56.4553 13.5099 56.4336 13.4749C56.9669 13.2749 57.4636 13.2807 57.9236 13.4924Z" fill="#AEDFE5"/>
<path d="M60.124 13.7898C59.6056 13.8382 59.1065 13.7815 58.6265 13.6198C59.1365 13.6498 59.774 13.2598 60.124 13.7898Z" fill="#57B7DF"/>
<path d="M61.5888 14.0199L60.5938 13.8499C61.0188 13.6766 61.3504 13.7333 61.5888 14.0199Z" fill="#57B7DF"/>
<path d="M57.9663 13.825C59.578 13.99 61.133 14.3941 62.6313 15.0375L57.9663 13.825Z" fill="#57B7DF"/>
<path d="M70.6439 16.7748C70.5106 16.7832 70.4414 16.8165 70.4364 16.8748C67.6447 15.6332 64.7506 14.7007 61.7539 14.0773C61.9264 14.0598 62.1239 13.9923 62.2839 14.0248C65.1689 14.6332 67.9556 15.5498 70.6439 16.7748Z" fill="#57B7DF"/>
<path d="M25.2388 14.9624C24.2388 15.5591 23.4772 16.1707 22.9538 16.7974C22.4438 17.4057 21.9613 17.8449 21.5063 18.1149C22.4613 16.9774 23.8563 15.3524 25.2388 14.9624Z" fill="#57B7DF"/>
<path d="M49.1287 15.7173C47.3087 15.7007 45.8737 15.8307 44.8237 16.1073C39.4787 17.514 34.8079 20.0898 30.8112 23.8348C30.8045 23.8698 30.7604 23.8415 30.6787 23.7498C34.567 20.0515 39.242 17.4665 44.7037 15.9948C46.282 15.5698 47.757 15.4773 49.1287 15.7173Z" fill="#57B7DF"/>
<path d="M62.5754 16.0398L60.4823 15.4867C60.4462 15.4772 60.4093 15.4987 60.3997 15.5347L60.3844 15.5928C60.3749 15.6288 60.3964 15.6657 60.4324 15.6753L62.5256 16.2283C62.5617 16.2378 62.5986 16.2163 62.6081 16.1803L62.6234 16.1223C62.633 16.0862 62.6115 16.0493 62.5754 16.0398Z" fill="#AEDFE5"/>
<path d="M52.1137 16.0824L50.4287 15.8774C50.9804 15.6774 51.542 15.7458 52.1137 16.0824Z" fill="#57B7DF"/>
<path d="M63.5986 15.7124C64.1503 16.0141 64.5953 16.4157 64.9336 16.9174C64.982 16.9907 65.0461 17.0441 65.1261 17.0774C71.2228 19.6241 76.3795 23.4366 80.5961 28.5149C80.6478 28.5766 80.6828 28.6482 80.7011 28.7299C80.5978 28.6916 80.4728 28.5849 80.3261 28.4099C76.7095 24.1249 72.3545 20.7374 67.2611 18.2474C66.5611 17.9049 65.4586 17.4874 64.5861 17.0274C64.5161 16.9907 64.4578 16.9399 64.4111 16.8749L63.5986 15.7124Z" fill="#57B7DF"/>
<path d="M54.8139 16.5825L52.3789 16.115C53.2239 16.0467 54.0356 16.2025 54.8139 16.5825Z" fill="#57B7DF"/>
<path d="M63.5965 16.3774C63.9082 16.3841 64.094 16.5266 64.154 16.8049C64.1724 16.8866 64.1432 16.9107 64.0665 16.8774L62.9065 16.3899C62.8766 16.377 62.8518 16.3545 62.8359 16.326C62.8201 16.2976 62.8142 16.2646 62.819 16.2324C62.824 16.2041 62.8257 16.1774 62.824 16.1524C62.8233 16.1417 62.8254 16.1311 62.8301 16.1215C62.8348 16.112 62.842 16.1038 62.8509 16.098C62.8598 16.0921 62.8702 16.0888 62.8808 16.0882C62.8915 16.0877 62.9021 16.09 62.9115 16.0949L63.369 16.3199C63.4407 16.3549 63.5165 16.3741 63.5965 16.3774Z" fill="#AEDFE5"/>
<path d="M62.7387 19.1523C60.2037 18.0589 57.587 17.2214 54.8887 16.6398C55.0787 16.5448 55.2445 16.5148 55.3862 16.5498C57.7812 17.1414 60.1295 17.8839 62.4312 18.7773C62.4995 18.8039 62.5537 18.8489 62.5937 18.9123L62.7387 19.1523Z" fill="#57B7DF"/>
<path d="M70.644 16.7749L73.409 18.1499C73.3874 18.2132 73.3365 18.2457 73.2565 18.2474L70.4365 16.8749C70.4415 16.8166 70.5107 16.7832 70.644 16.7749Z" fill="#AEDFE5"/>
<path d="M24.5163 17.07C19.6096 22.495 16.2613 28.7833 14.4713 35.935C14.368 35.89 14.3221 35.8442 14.3338 35.7975C16.0488 29.0158 19.2655 22.8808 23.9838 17.3925C24.1738 17.1725 24.3513 17.065 24.5163 17.07Z" fill="#57B7DF"/>
<path d="M75.774 17.2249C78.6923 19.1665 81.3115 21.4407 83.6315 24.0474C83.874 24.3199 84.0115 24.6474 84.139 24.9774C81.739 22.034 78.9148 19.4999 75.6665 17.3749L75.774 17.2249Z" fill="#AEDFE5"/>
<path d="M73.4089 18.1499C75.9455 19.5382 78.3322 21.1474 80.5689 22.9774L80.4339 23.0699C78.1755 21.2749 75.783 19.6674 73.2563 18.2474C73.3363 18.2457 73.3872 18.2132 73.4089 18.1499Z" fill="#57B7DF"/>
<path d="M51.8911 18.2649C51.4211 18.4582 50.9227 18.5649 50.3961 18.5849C49.5961 18.6149 49.0961 18.6474 48.8961 18.6824C47.5027 18.9257 46.1177 19.2024 44.7411 19.5124C44.6627 19.5307 44.6002 19.5074 44.5536 19.4424L44.5036 19.3774C44.4669 19.3274 44.4277 19.3257 44.3861 19.3724C44.1661 19.6157 43.9427 19.7024 43.7161 19.6324C43.5161 19.5891 43.2844 19.6041 43.0211 19.6774C32.1586 22.7549 23.9085 31.4524 22.7985 42.8974C22.7569 43.0607 22.696 43.1524 22.616 43.1724C22.566 43.1841 22.541 43.2157 22.541 43.2674C22.521 50.8399 24.8535 58.7624 30.8435 63.9124C33.5869 66.5507 36.7344 68.5774 40.2861 69.9924C40.3073 70.0011 40.3248 70.0168 40.3359 70.0369C40.3469 70.057 40.3507 70.0803 40.3465 70.1028C40.3424 70.1254 40.3307 70.1458 40.3133 70.1608C40.296 70.1757 40.274 70.1842 40.2511 70.1849C38.7861 70.1899 37.5886 69.9299 36.2086 69.2774C29.6486 66.1749 24.1935 60.5999 21.756 53.6874C21.726 53.6057 21.681 53.5966 21.621 53.6599C21.546 53.7366 21.5244 53.8449 21.556 53.9849C22.586 58.5066 24.3577 62.7482 26.871 66.7099C24.2194 62.9532 22.4052 58.7791 21.4285 54.1874C21.3652 53.8874 21.356 53.5266 21.401 53.1049C21.441 53.0799 21.4802 53.0482 21.5185 53.0099C21.5535 52.9749 21.5685 52.9407 21.5635 52.9074C21.5585 52.8724 21.5419 52.8349 21.5135 52.7949C21.4752 52.3882 21.3927 51.9916 21.266 51.6049C21.2277 51.4882 21.1352 51.4541 20.9885 51.5024C19.9002 41.7941 22.4394 33.2557 28.6061 25.8874C28.636 25.8991 28.6652 25.9082 28.6936 25.9149C28.7686 25.9349 28.8344 25.9174 28.891 25.8624L30.8561 24.0199C34.8286 21.1549 40.0636 18.6074 44.7536 19.1199C45.1769 19.1666 45.5927 19.1399 46.0011 19.0399C47.8977 18.5749 49.8611 18.3166 51.8911 18.2649Z" fill="#57B7DF"/>
<path d="M56.3286 18.2625C58.5152 18.3525 60.6936 18.7516 62.8636 19.46C62.5202 19.52 62.0536 19.4575 61.4636 19.2725C59.8386 18.7641 57.9869 18.5108 55.9086 18.5125C55.8817 18.5094 55.8568 18.4969 55.8385 18.477C55.8202 18.4572 55.8096 18.4314 55.8087 18.4044C55.8077 18.3774 55.8166 18.351 55.8336 18.33C55.8505 18.309 55.8745 18.2948 55.9011 18.29L56.3286 18.2625Z" fill="#57B7DF"/>
<path d="M43.4909 19.8623C39.5093 21.254 35.8118 23.179 32.3984 25.6373C35.6301 22.899 39.3276 20.974 43.4909 19.8623Z" fill="#57B7DF"/>
<path d="M73.2814 28.7323L74.1314 29.8098C74.1815 29.8745 74.2523 29.9196 74.3314 29.9373L74.4989 29.9748C77.1089 33.3548 78.9431 37.0898 80.0014 41.1798C80.1714 41.8365 80.1756 42.9532 80.0139 44.5298C80.012 44.5449 80.0048 44.5587 79.9938 44.569C79.9827 44.5794 79.9684 44.5855 79.9533 44.5864C79.9381 44.5873 79.9232 44.5829 79.911 44.5739C79.8988 44.565 79.8901 44.552 79.8864 44.5373L79.7989 44.1898C79.7945 44.1708 79.7844 44.1536 79.77 44.1406C79.7557 44.1276 79.7379 44.1195 79.7189 44.1173C79.6656 44.109 79.6172 44.1323 79.5739 44.1873C79.4539 44.1607 79.3947 44.0048 79.3964 43.7198L79.4539 43.8198C79.4604 43.8299 79.47 43.8377 79.4813 43.842C79.4926 43.8464 79.5048 43.8471 79.5162 43.8439C79.5276 43.8408 79.5375 43.834 79.5443 43.8247C79.5511 43.8154 79.5545 43.804 79.5539 43.7923C79.5539 43.584 79.5089 43.3907 79.4189 43.2123C79.3689 43.114 79.3389 43.1198 79.3289 43.2298L79.3039 43.4898C77.7614 39.3548 75.9714 35.6648 73.2089 32.1523C72.7864 31.6148 72.1439 31.2748 71.6239 30.7923C71.5981 30.7628 71.5617 30.7446 71.5226 30.7416C71.4835 30.7385 71.4448 30.7509 71.4147 30.7761C71.3847 30.8013 71.3657 30.8372 71.3618 30.8762C71.3579 30.9152 71.3694 30.9542 71.3939 30.9848L73.4139 34.0948C73.3739 34.1582 73.3214 34.1873 73.2564 34.1823C72.4814 32.8623 71.5931 31.6215 70.5914 30.4598C70.4681 30.3182 70.4672 30.1965 70.5889 30.0948C70.6218 30.068 70.6623 30.052 70.7045 30.0493C70.7466 30.0467 70.7884 30.0573 70.8239 30.0798C72.0139 30.8473 72.9964 31.5173 73.8589 32.6773C76.1556 35.7657 77.9397 39.1315 79.2114 42.7748C79.2447 42.8698 79.2814 42.8715 79.3214 42.7798C79.3464 42.7232 79.3497 42.6632 79.3314 42.5998C75.8589 30.7698 65.8264 22.5323 53.2714 22.5748C46.6989 22.8273 39.4114 25.8773 35.1264 30.9723C35.0997 31.004 35.0831 31.039 35.0764 31.0773C35.0647 31.149 35.0839 31.1715 35.1339 31.1448C35.1955 31.1132 35.2139 31.1298 35.1889 31.1948C35.1589 31.2698 35.1239 31.294 35.0839 31.2673C34.8572 31.4107 34.4989 31.774 34.0089 32.3573C32.0455 34.6973 30.4864 37.2965 29.3314 40.1548C29.218 40.4332 29.1447 40.4232 29.1114 40.1248C28.978 38.9598 29.1989 37.7598 29.7739 36.5248C33.1872 29.1932 38.6547 24.1573 46.1764 21.4173C46.8347 21.4257 47.3539 21.2765 47.7339 20.9698C56.6764 19.7123 65.4214 22.2773 72.4264 27.8848C72.8381 28.2148 73.1231 28.4973 73.2814 28.7323Z" fill="#57B7DF"/>
<path d="M47.7338 20.97C47.3538 21.2766 46.8347 21.4258 46.1763 21.4175C46.2313 21.3941 46.2163 21.3425 46.1313 21.2625L47.7338 20.97Z" fill="#AEDFE5"/>
<path d="M45.9535 21.3749C40.1551 22.5033 34.911 24.9316 30.221 28.6599C30.2039 28.6736 30.1826 28.6813 30.1606 28.6817C30.1386 28.682 30.1171 28.6752 30.0997 28.6621C30.0823 28.6491 30.07 28.6306 30.0648 28.6098C30.0596 28.589 30.0617 28.567 30.071 28.5474C30.361 27.8708 30.7793 27.2391 31.326 26.6524C31.2126 27.0558 31.011 27.4074 30.721 27.7074C30.7012 27.7313 30.6907 27.7614 30.6912 27.7924C30.6917 27.8233 30.7032 27.8531 30.7237 27.8763C30.7442 27.8995 30.7723 27.9147 30.803 27.919C30.8336 27.9233 30.8648 27.9166 30.891 27.8999C34.941 24.8866 39.3551 22.7641 44.1335 21.5324C44.7385 21.3758 45.3451 21.3233 45.9535 21.3749Z" fill="#57B7DF"/>
<path d="M53.2713 22.575C58.1063 23.29 62.2388 25.2666 65.6688 28.505C66.4555 29.25 67.008 30.12 67.3263 31.115C67.3341 31.1384 67.3335 31.1639 67.3246 31.187C67.3158 31.2101 67.2993 31.2294 67.2778 31.2418C67.2564 31.2541 67.2314 31.2587 67.2069 31.2547C67.1825 31.2507 67.1603 31.2385 67.1438 31.22C54.3788 17.1724 32.4788 25.705 32.7263 44.735C32.738 45.6616 32.7746 46.5708 32.8363 47.4625C32.8384 47.4833 32.833 47.5041 32.8212 47.5212C32.8094 47.5384 32.7918 47.5508 32.7715 47.5564C32.7511 47.562 32.7293 47.5604 32.7097 47.5519C32.69 47.5435 32.6738 47.5286 32.6638 47.51C32.1688 46.57 31.9038 45.7075 31.8188 44.6C31.4521 39.8183 32.5405 35.3741 35.0838 31.2675C35.1238 31.2941 35.1588 31.27 35.1888 31.195C35.2138 31.13 35.1955 31.1133 35.1338 31.145C35.0838 31.1716 35.0646 31.1491 35.0763 31.0775C35.083 31.0391 35.0996 31.0041 35.1263 30.9725C39.4113 25.8775 46.6988 22.8275 53.2713 22.575Z" fill="#AEDFE5"/>
<path d="M80.5686 22.9773L82.4986 24.7298C82.4269 24.7231 82.3861 24.744 82.3761 24.7923L80.4336 23.0698L80.5686 22.9773Z" fill="#AEDFE5"/>
<path d="M30.6785 23.75C30.7601 23.8417 30.8043 23.87 30.811 23.835C30.811 23.8967 30.826 23.9583 30.856 24.02L28.891 25.8625C28.8343 25.9175 28.7685 25.935 28.6935 25.915C28.6651 25.9083 28.636 25.8992 28.606 25.8875C29.2885 25.0575 30.0785 24.63 30.6785 23.75Z" fill="#AEDFE5"/>
<path d="M82.499 24.73C82.9473 25.0433 83.274 25.3825 83.479 25.7475L82.3765 24.7925C82.3865 24.7441 82.4273 24.7233 82.499 24.73Z" fill="#57B7DF"/>
<path d="M22.2962 25.1448C22.2229 25.3431 21.9879 25.7323 21.5912 26.3123C19.9429 28.7289 18.7496 30.8064 18.0112 32.5448C17.5912 33.5298 17.2662 34.2273 17.0362 34.6373C16.9646 34.5806 16.9146 34.5114 16.8862 34.4298C16.9046 34.4231 16.9271 34.4181 16.9537 34.4148C16.9971 34.4114 17.0271 34.3889 17.0437 34.3473C18.3037 31.2698 20.0887 27.7898 22.2962 25.1448Z" fill="#57B7DF"/>
<path d="M15.7785 25.9175C14.2102 28.7891 12.9485 31.7591 11.9935 34.8275C11.6785 35.8425 11.3677 37.1258 11.061 38.6775C10.806 39.9675 10.5493 41.265 10.291 42.57C10.741 36.78 12.751 30.7325 15.7785 25.9175Z" fill="#57B7DF"/>
<path d="M73.2812 28.7324C73.8563 29.0774 74.2621 29.4916 74.4987 29.9749L74.3313 29.9374C74.2521 29.9197 74.1814 29.8746 74.1312 29.8099L73.2812 28.7324Z" fill="#AEDFE5"/>
<path d="M80.7012 28.73C80.8829 28.8716 81.0121 28.9925 81.0887 29.0925C86.3787 35.9308 89.0621 43.7075 89.1387 52.4225C89.0271 51.6608 88.9429 50.8975 88.8862 50.1325C88.3087 42.2475 85.6537 35.1925 80.7587 28.9775C80.7187 28.9291 80.6987 28.8733 80.6987 28.81C80.6987 28.7833 80.6996 28.7566 80.7012 28.73Z" fill="#57B7DF"/>
<path d="M77.6864 46.2448L78.0089 47.5823C78.0239 47.6457 78.0639 47.6757 78.1289 47.6723C78.1523 47.6707 78.1789 47.6665 78.2089 47.6598C79.3206 57.5582 76.7081 66.2065 70.3714 73.6048C69.6148 74.0582 68.9297 74.614 68.3164 75.2723C65.3389 77.4223 58.0564 81.4298 54.6239 79.8973C54.5473 79.8623 54.4681 79.8557 54.3864 79.8773C48.8031 81.3307 43.1964 81.4232 37.5664 80.1548C37.6247 80.0182 37.7097 79.9632 37.8214 79.9898C41.4881 80.8682 45.1956 81.0898 48.9439 80.6548C49.3856 80.6032 49.8306 80.5598 50.2789 80.5248C51.6889 80.4173 53.1789 80.0573 54.4489 79.6698C54.7489 79.5765 55.0039 79.6032 55.2139 79.7498C55.2806 79.7965 55.3139 79.779 55.3139 79.6973V79.5723C55.3122 79.5373 55.3256 79.509 55.3539 79.4873C55.5389 79.3473 55.7331 79.3215 55.9364 79.4098C55.9581 79.4948 56.0264 79.5215 56.1414 79.4898C66.7589 76.6673 74.8664 68.1323 76.3114 57.1198C76.7031 56.6265 76.7298 56.1348 76.3914 55.6448L76.5139 53.6448C76.6739 46.9573 73.3289 40.1023 68.6839 35.4998C68.3839 35.2031 68.1648 35.079 68.0264 35.1273C65.3798 32.5123 62.3081 30.5456 58.8114 29.2273C58.7942 29.2212 58.7797 29.2093 58.7702 29.1938C58.7607 29.1782 58.7567 29.1599 58.7591 29.1418C58.7614 29.1237 58.7698 29.1069 58.783 29.0943C58.7962 29.0817 58.8132 29.0739 58.8314 29.0723C60.0164 28.9148 61.0064 29.0673 62.1564 29.5698C69.3239 32.7048 75.2889 38.7048 77.6864 46.2448Z" fill="#57B7DF"/>
<path d="M75.1738 30.5549C76.1955 31.4783 77.0955 32.4966 77.8738 33.6099C77.8088 33.5983 77.7663 33.6158 77.7463 33.6624L75.1738 30.5549Z" fill="#57B7DF"/>
<path d="M68.0264 35.1275C68.1648 35.0792 68.3839 35.2033 68.6839 35.5C73.3289 40.1025 76.674 46.9575 76.514 53.645C75.7115 58.605 72.9264 64.7675 68.3739 67.3275C68.3344 67.3491 68.2884 67.3555 68.2445 67.3456C68.2005 67.3356 68.1618 67.31 68.1354 67.2735C68.109 67.237 68.0968 67.1921 68.1012 67.1473C68.1055 67.1025 68.1261 67.0608 68.159 67.03C81.794 54.3725 73.3214 32.28 54.4664 32.6575C53.7489 32.6725 52.6114 32.835 51.6589 32.785C51.6385 32.7843 51.619 32.7766 51.6035 32.7633C51.5881 32.75 51.5776 32.7318 51.5738 32.7117C51.57 32.6917 51.5732 32.6709 51.5827 32.6529C51.5923 32.6349 51.6077 32.6206 51.6264 32.6125C56.5189 30.355 63.6464 32.385 68.0264 35.1275Z" fill="#AEDFE5"/>
<path d="M30.8436 63.9123C24.8536 58.7623 22.5211 50.8398 22.5411 43.2673C22.5411 43.2156 22.5661 43.184 22.6161 43.1723C22.6961 43.1523 22.757 43.0606 22.7986 42.8973C22.7653 43.3406 22.7953 43.7048 22.8886 43.9898C22.9336 44.1281 22.972 44.1265 23.0036 43.9848C23.972 39.6181 26.0986 35.9298 29.3836 32.9198C29.9003 32.4448 30.467 32.0673 31.0837 31.7873C31.1087 31.7755 31.1372 31.7729 31.164 31.7801C31.1908 31.7873 31.2142 31.8037 31.23 31.8264C31.2459 31.8492 31.2532 31.8768 31.2507 31.9044C31.2481 31.932 31.2359 31.9578 31.2162 31.9773C30.3462 32.854 29.5161 33.7998 28.7261 34.8148C19.0986 47.1948 26.1461 64.7348 41.9637 66.4623C43.8587 66.6673 45.5862 66.7148 47.3462 66.3123C47.3836 66.3037 47.4229 66.3088 47.4568 66.3268C47.4908 66.3447 47.5172 66.3743 47.5311 66.4101C47.5451 66.4459 47.5457 66.4855 47.5328 66.5217C47.52 66.5579 47.4945 66.5883 47.4612 66.6073C46.1237 67.3498 44.9462 67.4198 43.2387 67.4623C38.8103 67.574 34.6786 66.3906 30.8436 63.9123Z" fill="#AEDFE5"/>
<path d="M77.8736 33.6099L79.2936 35.7124C79.2603 35.8124 79.2344 35.8608 79.2161 35.8574L77.7461 33.6624C77.7661 33.6158 77.8086 33.5983 77.8736 33.6099Z" fill="#AEDFE5"/>
<path d="M73.4138 34.095L75.2989 37.7175L75.2189 37.9375L73.2563 34.1825C73.3213 34.1875 73.3738 34.1583 73.4138 34.095Z" fill="#AEDFE5"/>
<path d="M19.2588 37.1948C19.4205 36.7898 19.4813 36.4315 19.4413 36.1198C19.578 35.5148 19.8163 34.8923 20.1563 34.2523C20.1713 34.2207 20.1913 34.2006 20.2163 34.1923C20.263 34.179 20.278 34.1948 20.2613 34.2398C20.0463 34.8581 19.8613 35.484 19.7063 36.1173C19.6138 36.4948 19.7763 36.9248 19.2588 37.1948Z" fill="#AEDFE5"/>
<path d="M16.886 34.4298C16.9143 34.5115 16.9643 34.5806 17.036 34.6373L16.896 35.0073C16.856 35.114 16.7927 35.1298 16.706 35.0548L16.396 34.7798C16.4377 34.4848 16.601 34.3681 16.886 34.4298Z" fill="#AEDFE5"/>
<path d="M16.5839 35.7348L16.4364 35.5073C16.3681 35.4556 16.3864 35.379 16.4914 35.2773C16.5092 35.2598 16.531 35.247 16.5549 35.2399C16.5787 35.2329 16.604 35.2317 16.6284 35.2367C16.6528 35.2416 16.6757 35.2524 16.6949 35.2682C16.7142 35.284 16.7293 35.3043 16.7389 35.3273C16.8139 35.5006 16.7622 35.6365 16.5839 35.7348Z" fill="#AEDFE5"/>
<path d="M15.7562 35.6799L14.8912 37.4924C14.8745 37.5291 14.8503 37.5358 14.8187 37.5124L14.7637 37.4724C14.877 36.7924 15.2078 36.1949 15.7562 35.6799Z" fill="#57B7DF"/>
<path d="M79.2938 35.7124C81.4188 38.6699 82.8913 43.1974 83.6363 46.7324C83.663 46.8541 83.6413 47.0774 83.5713 47.4024C82.7746 43.3007 81.323 39.4524 79.2163 35.8574C79.2346 35.8607 79.2605 35.8124 79.2938 35.7124Z" fill="#57B7DF"/>
<path d="M16.3682 36.0606L16.3149 36.0469C16.2801 36.038 16.2447 36.0589 16.2358 36.0937L15.6128 38.52C15.6039 38.5548 15.6248 38.5902 15.6596 38.5991L15.7129 38.6128C15.7477 38.6217 15.7831 38.6008 15.792 38.566L16.415 36.1397C16.4239 36.105 16.403 36.0695 16.3682 36.0606Z" fill="#AEDFE5"/>
<path d="M14.3212 36.4573L14.1737 37.3173C13.9554 37.1023 14.0045 36.8156 14.3212 36.4573Z" fill="#57B7DF"/>
<path d="M19.0888 36.7449L18.6263 37.9349C18.5196 37.7132 18.5521 37.5349 18.7238 37.3999C18.7516 37.3781 18.774 37.3501 18.7892 37.3179C18.8044 37.2858 18.812 37.2505 18.8113 37.2149C18.8046 36.9649 18.8971 36.8082 19.0888 36.7449Z" fill="#57B7DF"/>
<path d="M19.1785 37.3623C19.281 38.0323 19.106 38.6223 18.9435 39.2673C18.8185 39.7748 18.881 40.4548 18.521 41.0473L19.1785 37.3623Z" fill="#57B7DF"/>
<path d="M75.2988 37.7173C76.0371 39.3156 76.6962 41.1073 77.2762 43.0923C77.3012 43.1756 77.2646 43.2665 77.1662 43.3648C76.6279 41.5098 75.9788 39.7006 75.2188 37.9373L75.2988 37.7173Z" fill="#57B7DF"/>
<path d="M14.0664 37.8474C14.0831 38.2057 14.0314 38.5232 13.9114 38.7999L13.8339 38.7949C13.8176 38.7933 13.8023 38.7864 13.7909 38.7755C13.7795 38.7645 13.7726 38.7501 13.7714 38.7349C13.7397 38.3982 13.8381 38.1024 14.0664 37.8474Z" fill="#57B7DF"/>
<path d="M14.5836 38.1099L13.8286 41.7524C13.8686 40.519 14.1203 39.3049 14.5836 38.1099Z" fill="#57B7DF"/>
<path d="M18.2884 38.5774C16.9201 42.6424 16.0976 46.6524 15.8209 50.6074C15.7426 51.7191 15.8659 52.9241 16.1909 54.2224C17.4809 59.3657 19.8676 63.9182 23.3509 67.8799C23.2493 67.9499 23.1493 67.9282 23.0509 67.8149C19.6243 63.8832 17.2701 59.3816 15.9884 54.3099C15.7018 53.1782 15.5868 52.0274 15.6434 50.8574C15.8468 46.6107 16.7284 42.5174 18.2884 38.5774Z" fill="#57B7DF"/>
<path d="M13.4463 41.575C13.5596 41.6983 13.6421 41.8625 13.6938 42.0675L13.4213 45.5475C13.418 45.5925 13.3938 45.615 13.3488 45.615C13.3238 45.615 13.303 45.6025 13.2863 45.5775C13.2763 45.5608 13.2721 45.5383 13.2738 45.51C13.2888 44.205 13.3463 42.8933 13.4463 41.575Z" fill="#AEDFE5"/>
<path d="M10.1614 43.1123L10.2289 43.1473C10.2922 43.1806 10.3206 43.2323 10.3139 43.3023C10.1539 45.364 10.1597 47.424 10.3314 49.4823C10.3431 49.6273 10.3022 49.879 10.2089 50.2373C9.94722 47.8623 9.93139 45.4873 10.1614 43.1123Z" fill="#57B7DF"/>
<path d="M77.764 45.6074C77.4723 44.9524 77.3148 44.2407 77.2915 43.4724C77.6165 44.1491 77.774 44.8607 77.764 45.6074Z" fill="#57B7DF"/>
<path d="M79.6914 44.5349C79.7931 44.5849 79.8498 44.6357 79.8614 44.6874C80.6164 48.1699 81.4089 52.3699 80.9439 55.9224C80.8506 55.8874 80.8064 55.8032 80.8114 55.6699C80.9648 51.9449 80.5631 48.2816 79.6064 44.6799C79.5948 44.6366 79.6064 44.6007 79.6414 44.5724C79.6581 44.5574 79.6748 44.5449 79.6914 44.5349Z" fill="#57B7DF"/>
<path d="M18.1685 44.8374C18.4068 45.2057 18.416 45.6399 18.196 46.1399L18.1685 44.8374Z" fill="#57B7DF"/>
<path d="M77.7637 45.6074C77.9553 45.7991 78.032 46.0308 77.9937 46.3024C77.9487 46.1824 77.8737 46.1391 77.7687 46.1724L77.7637 45.6074Z" fill="#57B7DF"/>
<path d="M77.769 46.1725C77.874 46.1392 77.949 46.1825 77.994 46.3025L78.209 47.66C78.179 47.6667 78.1523 47.6708 78.129 47.6725C78.064 47.6758 78.024 47.6458 78.009 47.5825L77.6865 46.245C77.7365 46.2333 77.764 46.2092 77.769 46.1725Z" fill="#AEDFE5"/>
<path d="M83.5437 48.0349C83.352 53.4032 82.1087 58.5424 79.8137 63.4524L79.7012 63.2849L79.7612 63.1774C80.1987 62.2099 80.6387 61.2449 80.9712 60.2449C82.2812 56.3099 83.1387 52.2399 83.5437 48.0349Z" fill="#57B7DF"/>
<path d="M18.3711 48.4099C18.7511 48.8974 18.8786 50.6174 18.7261 51.1749L18.3711 48.4099Z" fill="#57B7DF"/>
<path d="M11.7236 57.8C10.9853 55.445 10.4853 52.9733 10.2236 50.385C10.342 50.54 10.4295 50.8858 10.4861 51.4225C10.6495 52.9942 11.0811 54.95 11.7811 57.29C11.8045 57.3683 11.807 57.4475 11.7886 57.5275L11.7236 57.8Z" fill="#57B7DF"/>
<path d="M63.8989 68.325C63.8139 68.545 63.683 68.7408 63.5064 68.9125C58.7147 73.6208 52.9472 76.2083 46.2039 76.675C45.8955 76.6967 45.418 76.6267 44.7714 76.465C40.503 75.63 36.7822 73.73 33.6089 70.765C32.8289 70.035 32.2522 69.1583 31.8788 68.135C31.8725 68.1171 31.8724 68.0974 31.8786 68.0793C31.8849 68.0612 31.897 68.0457 31.913 68.0357C31.929 68.0256 31.9478 68.0216 31.9662 68.0242C31.9846 68.0268 32.0014 68.0359 32.0139 68.05C40.4639 77.1875 55.0539 77.6175 62.6514 67.13C65.9364 62.5967 67.1472 57.4025 66.2839 51.5475C66.2605 51.3875 66.2972 51.3717 66.3939 51.5C67.4914 52.9625 67.5639 55.5075 67.4664 57.355C67.258 61.315 66.0689 64.9717 63.8989 68.325Z" fill="#AEDFE5"/>
<path d="M20.9888 51.5024C21.1354 51.4541 21.2279 51.4883 21.2663 51.6049C21.3929 51.9916 21.4754 52.3883 21.5138 52.7949H21.2688L20.9888 51.5024Z" fill="#AEDFE5"/>
<path d="M18.8813 51.75C19.193 52.8917 19.5047 54.0075 19.8163 55.0975C19.833 55.1542 19.8347 55.2008 19.8213 55.2375C19.8063 55.2808 19.7813 55.3217 19.7463 55.36C19.688 55.3017 19.6538 55.275 19.6438 55.28C19.6041 55.3013 19.5702 55.3319 19.5449 55.3693C19.5197 55.4066 19.5039 55.4495 19.499 55.4943C19.4941 55.5391 19.5001 55.5845 19.5167 55.6264C19.5332 55.6683 19.5597 55.7056 19.5938 55.735C19.6672 55.7967 19.7438 55.8117 19.8238 55.78C20.0305 55.9533 20.0688 56.1233 19.9388 56.29C19.7872 56.3867 19.7697 56.5317 19.8863 56.725C19.9147 56.7733 19.9572 56.7975 20.0138 56.7975C20.0372 56.7975 20.0747 56.745 20.1263 56.64C20.5613 57.2867 20.8547 58.0333 21.0063 58.88L20.2863 57.135C20.2793 57.1183 20.2678 57.1037 20.2533 57.0928C20.2387 57.082 20.2215 57.0752 20.2034 57.0731C20.1854 57.0711 20.1671 57.0739 20.1505 57.0813C20.1339 57.0886 20.1195 57.1003 20.1088 57.115C20.0338 57.2217 20.028 57.36 20.0913 57.53C21.6288 61.6775 23.6788 65.5125 26.7838 68.7025C31.3572 73.4025 36.9555 76.015 43.5789 76.54C44.0322 76.575 44.4297 76.55 44.7714 76.465C45.418 76.6267 45.8955 76.6967 46.2039 76.675C52.9472 76.2083 58.7147 73.6208 63.5064 68.9125C63.683 68.7408 63.8139 68.545 63.8989 68.325C66.5739 65.57 68.5922 62.3883 69.9539 58.78C69.9615 58.7622 69.9748 58.7474 69.9917 58.7379C70.0086 58.7285 70.0281 58.7249 70.0473 58.7278C70.0664 58.7306 70.0841 58.7398 70.0975 58.7537C70.1109 58.7677 70.1193 58.7857 70.1214 58.805C70.2889 60.895 69.6189 62.3425 68.5414 64.3475C65.0489 70.8275 59.7289 75.5775 52.6739 77.895C52.6905 77.9183 52.708 77.9408 52.7264 77.9625C52.1114 77.9108 51.608 78.0217 51.2164 78.295C41.648 79.31 33.2622 76.8058 26.0588 70.7825C26.1305 70.7042 26.1538 70.6475 26.1288 70.6125C25.7355 70.0708 25.2738 69.6092 24.7438 69.2275C22.1205 65.9458 20.2947 62.2708 19.2663 58.2025C18.9863 57.095 19.0463 56.055 19.0838 54.9175C19.0842 54.8953 19.091 54.8737 19.1036 54.8555C19.1161 54.8372 19.1338 54.823 19.1543 54.8147C19.1749 54.8064 19.1974 54.8044 19.2192 54.8089C19.2409 54.8134 19.2608 54.8242 19.2763 54.84L19.4638 55.03C19.5505 55.115 19.5913 55.0967 19.5863 54.975C19.5763 54.775 19.513 54.5442 19.3963 54.2825C19.088 53.5842 18.9163 52.74 18.8813 51.75Z" fill="#57B7DF"/>
<path d="M89.0589 53.7275C89.2264 59.175 87.5264 65.1725 85.2339 69.995C85.2139 69.9767 85.1972 69.96 85.1839 69.945C85.1606 69.92 85.1564 69.8925 85.1714 69.8625C86.7681 66.3775 87.8789 62.7475 88.5039 58.9725C88.7639 57.4 88.8464 55.48 89.0589 53.7275Z" fill="#57B7DF"/>
<path d="M85.2988 60.3474C85.3963 59.5749 85.7813 58.2749 85.4438 57.5774L85.8313 53.9024C85.8347 53.8608 85.8513 53.8541 85.8813 53.8824L85.9388 53.9424C85.9438 53.9474 85.9463 53.9541 85.9463 53.9624C85.9047 54.6208 85.8638 55.2799 85.8238 55.9399C85.8188 56.0133 85.7988 56.0816 85.7638 56.1449C85.5788 56.4749 85.7563 56.6624 85.7638 56.9299C85.7988 58.0916 85.7163 59.1716 85.5163 60.1699C85.498 60.2649 85.4255 60.3241 85.2988 60.3474Z" fill="#AEDFE5"/>
<path d="M76.3915 55.645C76.7299 56.135 76.7032 56.6267 76.3115 57.12L76.3915 55.645Z" fill="#AEDFE5"/>
<path d="M80.8186 56.97L80.6836 58.055C80.4936 57.6583 80.5386 57.2966 80.8186 56.97Z" fill="#57B7DF"/>
<path d="M11.7339 57.875C11.7639 57.8667 11.7905 57.8608 11.8139 57.8575C11.8425 57.8533 11.8717 57.8595 11.8964 57.875C11.9211 57.8906 11.9397 57.9145 11.9489 57.9425C12.2964 59.025 12.6514 60.41 13.2089 61.3925C13.2872 61.5292 13.2855 61.6683 13.2039 61.81L11.7339 57.875Z" fill="#57B7DF"/>
<path d="M85.314 58.01C85.324 58.3567 85.2698 58.6842 85.1515 58.9925C84.9765 58.5975 85.0307 58.27 85.314 58.01Z" fill="#57B7DF"/>
<path d="M80.5539 58.9099L80.1014 61.3649C79.9914 60.9399 80.0305 60.5199 80.2189 60.1049C80.2533 60.0294 80.2688 59.9462 80.2639 59.8624C80.2389 59.4874 80.3355 59.1699 80.5539 58.9099Z" fill="#57B7DF"/>
<path d="M85.0639 59.48C85.0606 59.6816 85.0164 59.8783 84.9314 60.07C84.718 59.8566 84.7622 59.66 85.0639 59.48Z" fill="#57B7DF"/>
<path d="M21.3311 59.5173L23.9261 64.4248C22.8127 62.9348 21.9477 61.299 21.3311 59.5173Z" fill="#57B7DF"/>
<path d="M82.8665 63.4974C82.7998 63.4158 82.7332 63.3624 82.6665 63.3374L83.569 60.4149C83.5807 60.3799 83.5998 60.3608 83.6265 60.3574C83.6365 60.3574 83.6457 60.3583 83.654 60.3599C83.669 60.3633 83.674 60.3749 83.669 60.3949L82.8665 63.4974Z" fill="#AEDFE5"/>
<path d="M84.8287 60.365C84.6254 61.6334 84.0412 62.8825 83.0762 64.1125C82.7862 64.4825 82.5287 64.7267 82.3037 64.845C82.2321 64.8834 82.1787 64.94 82.1437 65.015C81.1187 67.2434 80.4079 68.7117 80.0112 69.42C73.7187 80.6125 62.6937 88.0576 49.8037 89.0401C54.677 88.4884 59.0779 87.2584 63.0062 85.35C71.9462 81.0026 78.4637 73.735 82.1337 64.5275C82.1621 64.4559 82.2104 64.4 82.2787 64.36L82.5187 64.2225C82.5357 64.2125 82.5489 64.1973 82.5563 64.1791C82.5637 64.1608 82.565 64.1407 82.5599 64.1217C82.5548 64.1027 82.5436 64.0859 82.528 64.0738C82.5125 64.0618 82.4934 64.0552 82.4737 64.055H82.3787C82.3187 64.0567 82.2887 64.0275 82.2887 63.9675C82.2871 63.7025 82.3787 63.5817 82.5637 63.605C82.5554 63.6917 82.6004 63.7417 82.6987 63.755C83.6137 64.2025 84.5362 61.105 84.6387 60.4475C84.6487 60.3842 84.6854 60.3534 84.7487 60.355C84.7737 60.355 84.8004 60.3584 84.8287 60.365Z" fill="#57B7DF"/>
<path d="M85.2137 60.5898C85.2404 60.5965 85.2646 60.604 85.2862 60.6123C85.3462 60.639 85.3713 60.6848 85.3613 60.7498C84.9396 63.5948 84.1679 66.3432 83.0462 68.9948L82.9688 68.7948C84.0138 66.1448 84.7621 63.4098 85.2137 60.5898Z" fill="#57B7DF"/>
<path d="M80.0638 61.5374C80.0588 61.8057 80.0038 62.049 79.8988 62.2674C79.7438 61.9874 79.7988 61.744 80.0638 61.5374Z" fill="#57B7DF"/>
<path d="M13.2437 61.9175C13.3987 61.9825 13.522 62.115 13.6137 62.315C17.8437 71.465 25.1462 78.315 34.5012 82.085C34.5495 82.1033 34.5837 82.1292 34.6037 82.1625C34.632 82.2075 34.642 82.2516 34.6337 82.295C34.2612 82.3075 33.9412 82.045 33.6812 81.935C25.0845 78.2683 18.5987 72.2975 14.2237 64.0225C13.8687 63.3508 13.542 62.6491 13.2437 61.9175Z" fill="#57B7DF"/>
<path d="M79.7011 63.2849L79.8136 63.4524L79.1961 64.7049C78.9194 65.2649 78.8677 65.2449 79.0411 64.6449C79.1477 64.2749 79.2686 63.9107 79.4036 63.5524C79.4369 63.4691 79.4919 63.4049 79.5686 63.3599L79.7011 63.2849Z" fill="#AEDFE5"/>
<path d="M23.731 68.4351C24.1026 68.6151 24.4401 68.8792 24.7435 69.2276C25.2735 69.6092 25.7351 70.0709 26.1285 70.6126C26.1535 70.6476 26.1301 70.7042 26.0585 70.7826L23.731 68.4351Z" fill="#AEDFE5"/>
<path d="M82.9689 68.7949L83.0464 68.9949L81.7364 71.9924C81.6964 71.9474 81.6831 71.8808 81.6964 71.7924L82.9689 68.7949Z" fill="#AEDFE5"/>
<path d="M85.0662 70.2175C84.5629 71.5025 83.9279 72.7217 83.1612 73.875C83.1296 73.8167 83.1071 73.79 83.0938 73.795L85.0662 70.2175Z" fill="#57B7DF"/>
<path d="M56.1787 79.2175C59.1837 78.1259 62.0146 76.7225 64.6712 75.0075C66.0287 74.13 67.6462 73.185 68.0312 71.875C68.0389 71.8482 68.0381 71.8196 68.0288 71.7933C68.0196 71.7669 68.0024 71.7441 67.9797 71.7279C67.9569 71.7117 67.9297 71.703 67.9018 71.7029C67.8738 71.7029 67.8466 71.7115 67.8237 71.7275C63.4412 74.8175 58.2412 77.2925 52.8862 77.995C53.6862 77.7025 54.7212 77.5625 55.3112 77.41C60.3579 76.1067 64.8971 73.8392 68.9287 70.6075C68.9529 70.5868 68.9837 70.5755 69.0156 70.5757C69.0474 70.5758 69.0781 70.5875 69.1021 70.6084C69.126 70.6293 69.1417 70.6582 69.1461 70.6897C69.1505 70.7212 69.1435 70.7533 69.1262 70.78C68.3312 72.1125 67.6062 73.1375 66.3412 74.09C63.2912 76.3917 59.9304 78.125 56.2587 79.29C56.2404 79.295 56.2254 79.29 56.2137 79.275C56.2037 79.2617 56.1921 79.2425 56.1787 79.2175Z" fill="#57B7DF"/>
<path d="M17.6336 75.2574C16.707 74.594 15.867 73.8507 15.1136 73.0274C15.0869 72.9996 15.0514 72.9819 15.0132 72.9772C14.9749 72.9726 14.9362 72.9813 14.9036 73.0018C14.871 73.0224 14.8465 73.0536 14.8342 73.0901C14.8219 73.1266 14.8226 73.1663 14.8361 73.2024C15.2436 74.2399 15.7511 75.1199 16.5636 75.9574C23.6836 83.289 32.412 87.6365 42.7486 88.9999C36.947 88.4732 31.447 86.719 26.2486 83.7374C22.397 81.5274 19.0378 78.8657 16.1711 75.7524C15.1536 74.6474 14.5861 73.3074 13.9911 71.9624C13.9773 71.9318 13.9748 71.8973 13.9839 71.8649C13.993 71.8326 14.0133 71.8046 14.0411 71.7857C14.0689 71.7669 14.1025 71.7585 14.1359 71.762C14.1692 71.7655 14.2003 71.7807 14.2236 71.8049L17.6336 75.2574Z" fill="#57B7DF"/>
<path d="M81.6961 71.7925C81.6828 71.8808 81.6961 71.9475 81.7361 71.9925C81.2061 73.2158 80.5494 74.3767 79.7661 75.475L81.6961 71.7925Z" fill="#57B7DF"/>
<path d="M83.094 73.795C83.1073 73.79 83.1298 73.8167 83.1615 73.875C83.014 74.2675 82.699 74.535 82.524 74.8975C82.1657 75.6325 81.7248 76.2984 81.2015 76.895C81.1298 76.8367 81.1098 76.7842 81.1415 76.7375L83.094 73.795Z" fill="#AEDFE5"/>
<path d="M68.3235 75.4275C68.3152 75.5025 68.3352 75.5442 68.3835 75.5525C67.2685 76.8925 65.576 77.9425 63.931 79.0225C60.416 81.325 54.836 83.985 50.4585 83.6425C46.7685 83.3542 43.0826 82.5958 39.401 81.3675C38.0893 80.9308 36.9768 80.4783 36.0635 80.01C36.1935 79.9 36.2568 79.8783 36.2535 79.945C41.1451 82.0667 46.2268 83.2508 51.4985 83.4975C52.3035 83.5342 53.1443 83.4392 54.021 83.2125C59.4427 81.8125 64.2102 79.2175 68.3235 75.4275Z" fill="#57B7DF"/>
<path d="M79.6636 75.52C79.6286 75.7717 79.5378 76.01 79.3911 76.235C77.6028 78.9584 75.5628 81.4784 73.2711 83.795L73.1611 83.645C75.6145 81.1684 77.782 78.46 79.6636 75.52Z" fill="#AEDFE5"/>
<path d="M18.6588 76.0898C24.0388 80.4948 30.6913 83.9049 37.5638 85.0949C38.7504 85.2999 39.9463 85.499 41.1513 85.6923C33.1288 85.3698 24.7938 81.3473 18.6488 76.3148C18.5971 76.2715 18.5846 76.219 18.6113 76.1573C18.6213 76.134 18.6371 76.1115 18.6588 76.0898Z" fill="#57B7DF"/>
<path d="M81.1414 76.7375C81.1097 76.7842 81.1297 76.8367 81.2014 76.8951C80.9064 77.2734 80.6122 77.6559 80.3189 78.0425C78.8172 80.0242 77.1322 81.8317 75.2639 83.4651C74.2764 84.3301 72.9989 84.7551 71.7839 85.3301C71.7556 85.3428 71.7237 85.3451 71.6938 85.3367C71.6639 85.3283 71.638 85.3097 71.6204 85.2841C71.6029 85.2585 71.5948 85.2276 71.5978 85.1967C71.6007 85.1658 71.6144 85.1369 71.6364 85.1151L73.1614 83.6451L73.2714 83.7951L72.4764 84.5451C72.4606 84.5601 72.4504 84.5803 72.4474 84.6021C72.4445 84.6239 72.449 84.646 72.4602 84.6646C72.4714 84.6832 72.4886 84.6971 72.5089 84.7041C72.5292 84.711 72.5513 84.7104 72.5714 84.7026C74.9914 83.8251 76.2964 82.5276 78.0164 80.5501C79.4797 78.8684 80.5214 77.5975 81.1414 76.7375Z" fill="#57B7DF"/>
<path d="M52.7263 77.9625C52.2446 78.1792 51.7413 78.29 51.2163 78.295C51.608 78.0217 52.1113 77.9108 52.7263 77.9625Z" fill="#AEDFE5"/>
<path d="M36.2285 79.8125C36.2668 79.7775 36.2751 79.8216 36.2535 79.945C36.2568 79.8783 36.1935 79.9 36.0635 80.01L34.0185 79.0175C33.9535 78.9858 33.9535 78.9541 34.0185 78.9225C34.0685 78.8975 34.1285 78.8966 34.1985 78.92C34.9185 79.1666 35.5951 79.4641 36.2285 79.8125Z" fill="#AEDFE5"/>
<path d="M37.8589 84.5876C36.5989 84.2776 35.4939 83.6442 34.5439 82.6876C34.4872 82.6326 34.4964 82.5917 34.5714 82.5651C34.7214 82.5134 34.7806 82.4401 34.7489 82.3451C34.9239 82.2667 35.0931 82.2901 35.2564 82.4151C35.3497 82.4884 35.3664 82.5767 35.3064 82.6801L35.2114 82.8451C35.1714 82.9134 35.1822 82.9734 35.2439 83.0251C35.9989 83.6501 36.8706 84.1709 37.8589 84.5876Z" fill="#57B7DF"/>
<path d="M38.7938 83.5336L36.3955 82.9223C36.3607 82.9134 36.3253 82.9344 36.3165 82.9692L36.3016 83.0274C36.2928 83.0622 36.3138 83.0976 36.3486 83.1064L38.7469 83.7177C38.7817 83.7266 38.8171 83.7056 38.8259 83.6708L38.8408 83.6127C38.8496 83.5779 38.8286 83.5425 38.7938 83.5336Z" fill="#AEDFE5"/>
<path d="M42.6035 85.635L44.551 85.8375C45.5143 85.9375 45.5118 85.9858 44.5435 85.9825C43.9235 85.9792 43.106 85.9742 42.091 85.9675C41.896 85.9658 41.831 85.9008 41.896 85.7725C42.1593 85.7975 42.3951 85.7517 42.6035 85.635Z" fill="#57B7DF"/>
<path d="M48.6688 89.1375C47.2604 89.3425 45.8463 89.3383 44.4263 89.125L48.6688 89.1375Z" fill="#57B7DF"/>
</svg>
