<svg width="100" height="100" viewBox="0 0 100 100" fill="none" xmlns="http://www.w3.org/2000/svg">
<rect width="100" height="100" fill="#D1F1A8"/>
<path d="M49.4714 34.0305C46.0137 35.3003 42.8194 36.9789 39.8886 39.0663C34.8665 33.0554 32.3064 26.0852 33.7337 18.2587C34.1631 15.9064 35.4991 8.82203 38.226 8.01356C38.296 7.99225 38.3653 7.99606 38.4338 8.02498C39.1737 8.33786 38.7718 9.75838 38.5868 10.3339C35.2799 20.6429 41.7818 28.4284 49.4714 34.0305Z" fill="#87BD40"/>
<path d="M52.2989 17.3726C57.9947 17.2128 59.4563 26.606 52.5729 27.4122C45.5389 28.2389 45.0296 17.5782 52.2989 17.3726Z" fill="#076535"/>
<path d="M58.8441 40.5051L48.003 47.3336C45.2989 49.019 42.7708 50.9123 40.7062 53.3765C33.9005 61.5007 31.045 71.0417 32.1397 81.9993C32.4184 84.7992 32.6924 87.603 32.9619 90.4105C33.1446 92.3152 31.4409 93.3475 30.267 91.6323C26.1334 85.5894 23.1804 78.8043 23 71.5281V69.3105C23.4042 56.7862 29.8034 46.2077 39.8886 39.0663C42.8195 36.9789 46.0138 35.3003 49.4714 34.0305C59.4744 30.196 67.8445 27.8597 74.431 20.6817C75.8538 19.1333 76.3928 20.4077 75.8538 21.8282C72.926 29.5588 66.2436 36.0791 59.2095 40.2013C59.1456 40.2379 59.0862 40.2812 59.0314 40.3315L58.8441 40.5051Z" fill="#076535"/>
<path d="M58.8443 40.5049C63.6997 44.1422 67.3058 48.7418 69.6627 54.3036C72.2936 60.5063 73.5862 67.8213 72.3301 74.4626C72.1063 75.6433 71.5125 77.2785 69.9207 76.3056C69.2013 75.8671 69.1534 74.5334 69.0049 73.7752C67.6438 66.837 61.8612 60.0747 56.9168 55.4455C54.0134 52.7277 51.0421 50.0237 48.0032 47.3334L58.8443 40.5049Z" fill="#87BD40"/>
</svg>
