<svg width="100" height="100" viewBox="0 0 100 100" fill="none" xmlns="http://www.w3.org/2000/svg">
<rect width="100" height="100" fill="#D1F1A8"/>
<path d="M49.4714 34.0305C46.0137 35.3003 42.8194 36.9789 39.8886 39.0663C34.8665 33.0554 32.3064 26.0852 33.7337 18.2587C34.1631 15.9064 35.4991 8.82203 38.226 8.01356C38.296 7.99225 38.3653 7.99606 38.4338 8.02498C39.1737 8.33786 38.7718 9.75838 38.5868 10.3339C35.2799 20.6429 41.7818 28.4284 49.4714 34.0305Z" fill="#87BD40"/>
<path d="M52.2991 17.3724C57.9949 17.2125 59.4565 26.6058 52.5732 27.4119C45.5391 28.2387 45.0298 17.5779 52.2991 17.3724Z" fill="#076535"/>
<path d="M58.8441 40.5053L48.003 47.3338C45.2989 49.0193 42.7708 50.9126 40.7062 53.3768C33.9005 61.501 31.045 71.0419 32.1397 81.9995C32.4184 84.7995 32.6924 87.6032 32.9619 90.4108C33.1446 92.3154 31.4409 93.3477 30.267 91.6326C26.1334 85.5897 23.1804 78.8045 23 71.5284V69.3108C23.4042 56.7865 29.8034 46.2079 39.8886 39.0665C42.8195 36.9791 46.0138 35.3005 49.4714 34.0307C59.4744 30.1963 67.8445 27.8599 74.431 20.682C75.8538 19.1336 76.3928 20.4079 75.8538 21.8284C72.926 29.5591 66.2436 36.0793 59.2095 40.2016C59.1456 40.2381 59.0862 40.2815 59.0314 40.3317L58.8441 40.5053Z" fill="#076535"/>
<path d="M58.8441 40.5051C63.6994 44.1424 67.3055 48.742 69.6624 54.3038C72.2933 60.5066 73.586 67.8216 72.3299 74.4629C72.1061 75.6436 71.5123 77.2788 69.9205 76.3059C69.2011 75.8674 69.1531 74.5336 69.0047 73.7754C67.6435 66.8373 61.861 60.075 56.9166 55.4457C54.0131 52.728 51.0419 50.024 48.0029 47.3337L58.8441 40.5051Z" fill="#87BD40"/>
</svg>
