<svg width="100" height="100" viewBox="0 0 100 100" fill="none" xmlns="http://www.w3.org/2000/svg">
<rect width="100" height="100" fill="#F5CDE7"/>
<path d="M39.7547 29.3067C39.7798 29.2186 39.9047 29.2186 39.9299 29.3067L40.7397 32.1409C40.7483 32.1712 40.772 32.1948 40.8023 32.2035L43.6365 33.0133C43.7246 33.0384 43.7246 33.1633 43.6365 33.1885L40.8023 33.9983C40.772 34.0069 40.7483 34.0306 40.7397 34.0609L39.9299 36.8951C39.9047 36.9832 39.7798 36.9832 39.7547 36.8951L38.9449 34.0609C38.9362 34.0306 38.9126 34.0069 38.8823 33.9983L36.0481 33.1885C35.96 33.1633 35.96 33.0384 36.0481 33.0133L38.8823 32.2035C38.9126 32.1948 38.9362 32.1712 38.9449 32.1409L39.7547 29.3067Z" fill="#A837CF"/>
<path d="M70.048 30.8088C69.9812 34.6211 69.9371 38.233 69.9158 41.6443C69.9128 41.9602 70.1072 42.1987 70.4991 42.3597C70.6874 42.545 70.9502 42.5283 71.2874 42.3095C72.4219 41.5759 73.3287 41.298 72.5678 39.6759C71.5152 37.4249 75.894 37.3201 76.9967 37.434C77.9931 37.4735 78.6963 37.9353 79.1064 38.8192C80.405 41.6124 74.2263 40.4778 76.1947 44.3873C77.6893 47.3491 79.2279 49.7413 80.8105 51.5639C84.2507 55.5326 75.9715 54.7945 74.3585 54.6122C74.2978 54.6052 74.2394 54.5838 74.188 54.5498C74.1366 54.5158 74.0936 54.4701 74.0623 54.4163L70.4763 48.4518C70.3548 48.2513 70.2591 48.2619 70.1892 48.4837C69.9645 49.2218 69.9189 49.9554 70.0525 50.6845C70.335 52.22 71.9481 52.58 70.6859 54.5484C70.6031 54.6755 70.4814 54.7715 70.3396 54.8218C68.7904 55.3868 62.794 56.8631 62.4705 54.1019C62.2882 52.5481 63.8374 52.0651 63.8602 50.206C63.8693 49.3221 63.9999 48.5414 64.2521 47.864C64.9356 43.7813 64.9614 39.7275 64.3295 35.7026C63.9316 35.6023 63.5473 35.5826 63.1767 35.6433C62.6148 34.5558 62.9778 33.602 64.2657 32.7818C66.2888 31.4938 68.2163 30.8362 70.048 30.8088Z" fill="#A837CF"/>
<path d="M33.4357 34.7637C32.8889 41.4679 32.6687 48.0521 32.775 54.5163C32.7872 55.3486 32.8752 56.1749 33.0393 56.995C33.0538 57.0628 33.0819 57.1269 33.1219 57.1833C33.1618 57.2397 33.2128 57.2873 33.2717 57.3231L33.9551 57.7423C34.107 57.8365 34.2073 57.9701 34.2559 58.1433C35.2674 61.6564 27.6671 63.3468 25.8035 62.0118C25.6698 61.9176 25.5711 61.9465 25.5073 62.0984C24.7099 63.9438 20.281 64.8551 18.5768 65.2834C18.4609 65.3117 18.3398 65.3071 18.2277 65.27C18.1155 65.2329 18.0169 65.1648 17.9435 65.0738L12.9951 58.9999C12.964 58.9625 12.9247 58.9328 12.8803 58.9131C12.8358 58.8934 12.7874 58.8843 12.7388 58.8865C12.6902 58.8887 12.6428 58.9022 12.6003 58.9258C12.5578 58.9494 12.5214 58.9826 12.4939 59.0227C11.2545 60.8681 11.6145 62.9368 13.3368 64.2855C13.4574 64.3825 13.5384 64.5219 13.5647 64.6774C14.1479 68.0811 7.73685 69.8399 5.34467 70.2773C3.54484 70.61 3.77722 68.1449 4.72954 67.3475C5.48288 66.5182 5.86867 65.4018 5.8869 63.9984C5.93246 59.615 6.16484 55.2635 6.11017 50.871C6.10105 49.9005 5.85044 49.659 5.03938 49.0074C2.62897 47.0663 8.18339 43.4165 9.62325 42.7422C10.8672 41.4527 14.476 41.4071 12.9404 44.3461C11.9744 46.196 11.5233 48.2115 11.5871 50.3926C11.5888 50.4383 11.6046 50.4826 11.6323 50.5192C11.66 50.5558 11.6983 50.5828 11.7417 50.5964C11.785 50.61 11.8313 50.6095 11.8739 50.595C11.9165 50.5805 12.2068 50.5156 12.2068 50.5156C12.6412 50.4275 13.0148 50.0888 13.3277 49.4995C14.0871 48.0566 14.7524 46.556 15.3235 44.9977C15.4158 44.7458 15.3326 44.5329 15.3326 44.5329C14.7008 42.4521 15.5088 40.7722 17.7567 39.4934C19.0143 38.5243 20.5863 38.0034 22.4727 37.9305C22.6246 37.9244 22.7582 37.97 22.8737 38.0672C23.9125 38.9329 23.3521 40.6872 22.7051 41.6304C22.6167 41.7541 22.4881 41.8441 22.3405 41.8855C21.2105 42.1772 20.4314 42.4961 19.7342 43.5168C17.9253 46.1778 15.9386 48.447 17.7567 51.0487C19.4304 53.4485 21.1725 55.7967 22.983 58.0932C23.6756 58.9726 24.5869 59.205 25.5073 59.7973C25.6288 59.8763 25.7458 59.8702 25.8582 59.7791C27.2024 58.6673 26.9563 56.0336 27.1295 54.4343C27.573 51.1748 27.6899 47.9017 27.4803 44.6149C27.4074 43.4621 27.0292 42.9609 26.1179 42.364C26.0618 42.3281 26.0138 42.2808 25.977 42.2251C25.9401 42.1694 25.9152 42.1065 25.9038 42.0405C25.3387 38.819 30.2279 36.3266 33.4357 34.7637Z" fill="#A837CF"/>
<path d="M91.0623 38.7419C94.4979 40.1635 96.7853 44.8158 96.2521 48.4063C95.1996 55.5419 86.0409 57.7837 82.0175 51.4136C81.4556 50.5236 81.1974 49.3283 81.2429 47.8276C81.3614 41.8859 84.8244 37.3658 91.0623 38.7419ZM88.5835 42.1548C88.4706 42.0733 88.3399 42.0201 88.2022 41.9997C88.0646 41.9792 87.924 41.9921 87.7924 42.0371C87.6607 42.0822 87.5418 42.1582 87.4455 42.2588C87.3493 42.3593 87.2786 42.4814 87.2393 42.615C86.5194 45.039 87.3396 47.8413 88.2099 50.8258C88.2676 51.0294 88.4012 51.119 88.6108 51.0947L89.791 50.9489C89.9915 50.9215 90.1039 50.8061 90.1282 50.6026C90.3241 48.7526 90.274 43.3805 88.5835 42.1548Z" fill="#A837CF"/>
<path d="M60.1374 46.2693C60.4518 43.0205 60.543 37.9445 55.8635 37.8579C54.4965 38.6446 53.3193 39.9236 52.3321 41.6945C51.767 41.6581 51.4831 41.5654 51.48 41.4166C51.474 40.5782 51.272 39.7276 50.874 38.8649C49.6772 39.0776 48.5183 39.5742 47.3974 40.3549C47.3024 40.4214 47.1992 40.4919 47.0904 40.5664C45.723 41.5021 43.4623 43.0492 45.1465 44.7838C45.6842 45.3306 46.0031 45.6314 45.9666 46.4834C45.9381 47.1491 45.9588 47.9183 45.9806 48.7313C46.046 51.1627 46.1216 53.9848 44.9231 55.5965L44.627 56.1114C44.627 56.1114 44.3989 56.3393 44.5404 57.1595C44.5981 57.7245 44.9658 58.0115 45.6431 58.0206C47.8622 58.048 51.9039 57.8475 52.4414 55.2092C52.4739 55.0471 52.4496 54.8796 52.3731 54.7354C51.4119 52.9441 51.3496 51.0072 51.2867 49.0482C51.2709 48.5555 51.2551 48.0615 51.2248 47.5679C51.1018 45.6223 51.5118 43.6721 53.8448 43.4442C54.6013 44.0214 54.9553 44.9874 54.9065 46.3422C54.8789 47.9097 54.6511 47.2262 54.6376 49.5363C54.7014 51.1463 54.4066 52.8064 53.7536 54.5166C52.4688 57.8839 58.9298 56.3483 60.1463 55.9063C62.0784 55.2046 61.9736 53.423 60.6794 52.1153C60.6107 52.0445 60.5622 51.9646 60.5339 51.8757C60.5186 51.8276 60.5094 51.7768 60.5063 51.7234L60.1374 46.2693Z" fill="#A837CF"/>
<path fill-rule="evenodd" clip-rule="evenodd" d="M42.5077 46.9708C42.6855 44.7025 42.8623 42.4478 42.5262 40.25C39.9427 41.0428 35.2312 43.0386 35.5046 46.1416C35.8995 46.2935 36.185 46.579 36.3612 46.9982L36.7804 47.3126C36.908 47.4068 36.9657 47.5329 36.9536 47.6908L36.5572 52.5891C36.466 54.2112 36.0453 55.683 35.295 57.0044C32.6385 61.7022 39.6237 59.7474 41.378 59.0548C43.4512 58.2347 44.768 56.4804 42.7586 54.5758C42.6462 54.4694 42.5763 54.3388 42.549 54.1839C42.1292 51.7986 42.319 49.377 42.5077 46.9708ZM36.78 47.313L36.3608 46.9986L36.5568 52.5894L36.9532 47.6911C36.9653 47.5332 36.9076 47.4071 36.78 47.313Z" fill="#A837CF"/>
</svg>
