<svg width="100" height="100" viewBox="0 0 100 100" fill="none" xmlns="http://www.w3.org/2000/svg">
<rect width="100" height="100" fill="#E0B358"/>
<path d="M56.313 31.1834C55.7281 30.2171 54.7992 30.0837 53.8024 30.4721C53.7197 30.5049 53.6839 30.4768 53.6948 30.3879C54.0536 27.552 54.7875 24.5134 55.8965 21.272C56.898 18.3448 59.4929 13.1177 62.4995 11.9876C63.9549 11.44 69.9167 9.41843 70.9814 10.1625C71.0063 10.1796 71.2302 10.4004 71.6529 10.8247C73.8242 13.0054 76.5267 16.2273 76.4378 19.4001C76.4113 20.3454 76.083 21.5254 75.4528 22.9402C73.3914 27.5637 70.4877 31.2489 66.51 34.3656C63.7271 36.5463 61.1455 38.9454 58.7652 41.5629C58.5 41.8561 58.2091 42.0542 57.8924 42.1572C57.3043 42.349 56.6944 42.4653 56.0627 42.5058C56.0448 42.5068 56.0269 42.5028 56.0111 42.4944C55.9953 42.4859 55.9821 42.4733 55.9729 42.4579C55.9637 42.4424 55.959 42.4248 55.9591 42.4068C55.9593 42.3889 55.9643 42.3713 55.9738 42.3561C57.1047 40.5513 57.8269 38.7566 58.1404 36.9721C58.4259 35.3506 57.1062 32.4937 56.313 31.1834Z" fill="#78581A"/>
<path d="M43.4981 43.8979C40.9757 44.0688 35.7275 43.692 33.9563 41.2188C29.2041 34.5738 29.3187 26.1738 32.3512 18.8455C33.121 16.9853 36.2376 16.6344 38.0135 16.8964C41.1629 17.3597 47.7706 19.7253 47.918 23.7334C48.0833 28.257 49.0364 32.6099 50.7772 36.7919C51.4745 38.4719 50.8193 40.5216 50.2929 42.1665C50.1642 42.5689 49.9396 42.7046 49.5184 42.8146C47.1505 43.4261 45.1437 43.7872 43.4981 43.8979Z" fill="#78581A"/>
<path d="M57.916 46.3081C57.8115 46.2629 57.7896 46.1919 57.8505 46.0952C61.2479 40.6762 66.9851 36.647 71.8145 32.2411C71.8423 32.2162 71.875 32.1977 71.9101 32.1868C71.9453 32.1759 71.9821 32.1729 72.0181 32.1779C73.7519 32.4377 77.0346 33.0484 78.4268 34.0568C78.4845 34.0993 78.5272 34.16 78.5485 34.23C79.0321 35.8585 79.2583 37.5244 79.2271 39.2278C79.2255 39.3198 79.1803 39.3752 79.0913 39.3939C77.5517 39.7215 76.0566 40.6762 74.3509 41.8297C72.2326 43.2632 69.6471 45.277 66.5944 47.8711C66.5354 47.921 66.461 47.9491 66.3838 47.9507C63.4309 48.0396 60.6083 47.4921 57.916 46.3081Z" fill="#78581A"/>
<path d="M24.6486 68.4801C24.6215 68.4683 24.5974 68.4506 24.5779 68.4284C24.5585 68.4061 24.5443 68.3798 24.5363 68.3514C23.6893 65.5927 23.9092 62.2094 24.1128 59.3571C24.3585 55.8942 24.9926 49.4807 29.0077 48.4044C30.3905 48.0347 31.7851 47.5948 33.1609 47.3515C38.8934 46.3313 44.9863 46.1348 50.286 44.6818C50.9014 44.5133 51.2875 44.3425 51.6033 43.7458C52.9386 41.2235 53.2428 38.5889 52.5159 35.8419C52.1532 34.4638 52.4761 33.8156 53.4658 32.875C54.018 32.3494 54.5102 32.3767 54.9422 32.9569C57.1861 35.9706 56.2081 39.8126 54.3152 42.7304C54.0079 43.2014 53.7973 43.6616 53.6834 44.1108C53.6649 44.1838 53.663 44.26 53.6779 44.3338C53.6927 44.4076 53.7239 44.4772 53.7692 44.5375C53.8145 44.5978 53.8727 44.6473 53.9397 44.6824C54.0066 44.7175 54.0805 44.7373 54.1561 44.7403C54.9516 44.7699 55.7316 44.656 56.4959 44.3987C56.5107 44.3939 56.5266 44.3932 56.5418 44.3967C56.557 44.4002 56.571 44.4078 56.5822 44.4186C56.5935 44.4293 56.6016 44.443 56.6058 44.458C56.61 44.473 56.61 44.4889 56.6059 44.5039C55.9024 46.9576 55.3252 49.4363 54.8744 51.9399C54.2894 55.1712 54.3175 58.5967 52.6071 61.6829C50.9295 64.7083 48.3369 67.5746 45.4543 69.3177C39.448 72.9491 30.669 71.1919 24.6486 68.4801Z" fill="#78581A"/>
<path d="M16.59 55.8707C15.4762 55.1547 15.1276 53.9052 14.6947 52.6441C13.79 50.011 13.0225 47.3381 12.3924 44.6255C11.6811 41.565 11.2903 38.3361 14.3695 36.4806C16.0659 35.4604 17.8979 35.2779 20.0342 35.2428C22.8677 35.1937 28.2587 35.8254 29.9059 38.6005C31.5508 41.3661 33.0787 43.5656 36.2468 44.4102C36.8287 44.5662 36.8208 44.6856 36.2234 44.7682C33.3564 45.1676 30.5189 45.7751 27.7111 46.591C26.8173 46.8507 25.6194 47.9972 25.0157 48.8419C23.207 51.3712 22.8537 53.704 22.3577 56.6873C22.3436 56.7699 22.296 56.8027 22.2149 56.7855C21.0185 56.5297 19.8267 56.3035 18.6397 56.107C18.0875 56.0157 17.0392 56.1608 16.59 55.8707Z" fill="#78581A"/>
<path d="M74.8683 60.5342C68.3566 59.8019 60.5486 57.5369 56.7206 51.8675C56.677 51.802 56.6629 51.731 56.6785 51.6546L57.3243 48.669C57.3368 48.6191 57.3672 48.6027 57.4156 48.6199C60.1368 49.5956 63.8313 49.7874 66.4356 49.9372C66.8848 49.9629 67.4908 49.7032 67.7435 49.4365C70.3571 46.6708 73.806 44.4644 77.1051 42.5153C81.5789 39.8689 86.916 39.1623 91.2821 42.4194C91.658 42.7001 91.9193 43.0355 92.0659 43.4255C92.4567 44.4573 93.2663 46.8767 92.913 47.8314C91.6198 51.3442 89.7222 54.4905 87.2202 57.2702C86.4106 58.1687 85.6104 58.9642 84.4498 59.4111C81.5079 60.5483 78.314 60.9226 74.8683 60.5342Z" fill="#78581A"/>
<path d="M54.1583 87.1495C52.1413 86.6231 51.1516 85.1607 50.1712 83.4737C47.808 79.4048 47.7472 74.5286 48.9849 70.0595C49.0847 69.7039 49.2641 69.3732 49.5231 69.0674C51.5985 66.634 53.6505 63.9409 54.8345 61.0301C55.6659 58.9836 56.2469 56.8653 56.5776 54.6752C56.5817 54.6457 56.5946 54.6181 56.6145 54.5959C56.6344 54.5737 56.6604 54.558 56.6893 54.5507C56.7182 54.5434 56.7486 54.5449 56.7767 54.555C56.8047 54.5651 56.8291 54.5833 56.8467 54.6073C58.2038 56.3879 59.7247 57.8386 61.7931 58.8214C63.0917 59.4391 64.6687 59.9047 65.7567 60.499C68.5037 61.9965 70.5276 64.2302 71.8286 67.2002C74.2901 72.8135 69.8233 82.5331 66.8377 87.3157C66.1475 88.4201 64.0089 90.692 62.5442 90.8324C62.4677 90.8402 62.3968 90.8231 62.3312 90.7809C59.7972 89.1946 57.0549 87.9076 54.1583 87.1495Z" fill="#78581A"/>
<path d="M7.40651 68.8566C5.24919 67.2305 12.3201 60.6953 13.593 59.6073C16.12 57.4453 19.4963 58.5567 22.1731 59.5933C22.2464 59.6214 22.2768 59.6736 22.2644 59.7501C21.8479 62.5649 21.4922 66.9567 22.7066 69.5375C22.7399 69.6087 22.7969 69.6664 22.868 69.7013C30.3227 73.4286 40.5617 75.7989 47.5578 69.7317C47.6358 69.6646 47.6709 69.6826 47.6631 69.7855C47.6186 70.3541 47.525 71.8212 47.0805 72.1792C44.2696 74.4348 41.33 76.5055 38.2617 78.3914C35.5826 80.0363 32.7023 81.5127 29.4336 81.8192C24.4638 82.2849 18.8131 81.5268 14.9197 78.12C14.6358 77.872 14.3987 77.5491 14.2084 77.1513C12.6344 73.8553 10.3672 71.0904 7.40651 68.8566Z" fill="#78581A"/>
</svg>
