<svg width="100" height="100" viewBox="0 0 100 100" fill="none" xmlns="http://www.w3.org/2000/svg">
<rect width="100" height="100" fill="#0F5401"/>
<g clip-path="url(#clip0_79_3207)">
<path d="M25.1837 74.8279C24.9382 74.6002 24.6571 74.3023 24.3404 73.9341C10.6723 58.0597 13.5704 34.1948 31.1848 22.6023C44.167 14.0564 61.4429 15.4372 72.9671 25.8656C86.9321 38.5004 87.8615 59.4969 75.7197 73.7381C75.3238 74.2013 74.9862 74.5656 74.7071 74.8308C74.6291 74.9052 74.5249 74.9466 74.4161 74.9467H25.4865C25.3697 74.9467 25.2688 74.9071 25.1837 74.8279ZM73.5075 27.0979C59.9374 14.2078 39.6594 14.3504 26.2348 27.288C26.2222 27.3 26.2135 27.3156 26.2099 27.3327C26.2063 27.3498 26.208 27.3676 26.2148 27.3837C26.2215 27.3998 26.233 27.4135 26.2478 27.4229C26.2625 27.4324 26.2797 27.4371 26.2972 27.4365H73.3709C73.6995 27.4365 73.745 27.3236 73.5075 27.0979ZM83.4609 51.9072L26.4664 28.1164C26.4534 28.1123 26.4394 28.1126 26.4265 28.1172C26.4137 28.1218 26.4027 28.1306 26.3953 28.142C26.3879 28.1535 26.3844 28.1671 26.3855 28.1807C26.3865 28.1943 26.392 28.2072 26.4011 28.2174L74.4191 73.9668C74.4453 73.992 74.4763 74.0116 74.5102 74.0245C74.5442 74.0375 74.5804 74.0434 74.6167 74.042C74.653 74.0407 74.6887 74.032 74.7216 74.0165C74.7545 74.001 74.7839 73.979 74.8081 73.9519C80.347 67.7914 83.2966 60.5461 83.6568 52.216C83.6595 52.1507 83.6422 52.0861 83.6072 52.0309C83.5722 51.9757 83.5211 51.9325 83.4609 51.9072ZM48.523 74.427C48.5468 74.427 48.5702 74.4209 48.5909 74.4093C48.6117 74.3977 48.6292 74.381 48.6416 74.3608C48.6541 74.3406 48.6613 74.3175 48.6623 74.2937C48.6634 74.27 48.6584 74.2464 48.6478 74.2251L26.119 29.2448C26.1049 29.2168 26.0818 29.1943 26.0533 29.181C26.0249 29.1677 25.9928 29.1644 25.9623 29.1716C25.9317 29.1788 25.9045 29.1961 25.885 29.2207C25.8655 29.2453 25.8548 29.2758 25.8547 29.3072V74.2874C25.8547 74.3245 25.8694 74.36 25.8956 74.3861C25.9218 74.4123 25.9573 74.427 25.9943 74.427H48.523Z" fill="white"/>
</g>
<defs>
<clipPath id="clip0_79_3207">
<rect width="69" height="58.5" fill="white" transform="translate(15.5 17)"/>
</clipPath>
</defs>
</svg>
