<svg width="100" height="100" viewBox="0 0 100 100" fill="none" xmlns="http://www.w3.org/2000/svg">
<rect width="100" height="100" fill="#FDDAC6"/>
<path d="M43.8427 35.0318L20.87 75L8.121 74.9906C8 74.9906 7.96975 74.9385 8.03025 74.8341L37.2867 24.1291C37.3639 23.9977 37.44 23.9977 37.5151 24.1291L43.8427 35.0318Z" fill="#F14D21"/>
<path d="M56.7576 35.0193L79.8148 74.9969L20.8701 75L43.8428 35.0318L50.211 24.0509C50.2205 24.0353 50.2339 24.0225 50.2498 24.0136C50.2656 24.0047 50.2835 24 50.3018 24C50.32 24 50.3379 24.0047 50.3538 24.0136C50.3697 24.0225 50.383 24.0353 50.3925 24.0509L56.7576 35.0193Z" fill="#0059A8"/>
<path d="M79.8145 74.9967L56.7573 35.0191L63.0599 24.1195C63.0726 24.0981 63.0907 24.0804 63.1124 24.0681C63.1341 24.0558 63.1586 24.0493 63.1835 24.0493C63.2084 24.0493 63.2329 24.0558 63.2546 24.0681C63.2762 24.0804 63.2943 24.0981 63.3071 24.1195L92.5416 74.7745C92.6188 74.908 92.5802 74.9748 92.4258 74.9748L79.8145 74.9967Z" fill="#F14D21"/>
</svg>
