<svg width="100" height="100" viewBox="0 0 100 100" fill="none" xmlns="http://www.w3.org/2000/svg">
<rect width="100" height="100" fill="#FFF4E0"/>
<path d="M51.4771 18.3332L48.0977 21.7127L45.9907 24.0865L42.9738 27.1854L40.2785 29.8876L37.4327 32.6719L34.238 35.7571L30.8654 39.1092L28.129 41.4625L25.0779 44.7598L20.5492 48.1255L18.1754 49.3774C17.9428 49.5006 17.9405 49.626 18.1686 49.7537L20.5424 51.0398L23.9765 53.5709L27.4654 56.9162L29.9829 59.3105L33.5128 62.7788L36.6323 65.8025L39.2934 68.4705L42.105 71.4395L45.334 74.6889L48.3919 77.6511L51.2035 80.7432L53.3447 82.6791C53.394 82.7233 53.4283 82.7813 53.4434 82.8456C53.4585 82.9098 53.4535 82.9773 53.4291 83.0393C53.4048 83.1013 53.3622 83.1549 53.3068 83.1932C53.2515 83.2314 53.1861 83.2526 53.119 83.2538H16.342C16.2513 83.2538 16.1643 83.2177 16.1002 83.1536C16.036 83.0894 16 83.0025 16 82.9117V16.4451C16 16.3689 16.0296 16.2959 16.0822 16.242C16.1348 16.1881 16.2061 16.1578 16.2805 16.1578L51.7439 16.0757C53.1212 16.0712 53.2763 16.4611 52.2091 17.2455C52.2046 17.2455 51.9606 17.6081 51.4771 18.3332Z" fill="#951616"/>
<path d="M81.2079 18.7641L78.5399 21.3636L75.742 24.0042L72.8688 27.0484L70.1256 29.6548L67.2319 32.7948L64.2082 35.6612C63.1227 36.327 62.0624 37.449 61.0271 39.0269L57.7982 41.818L54.8976 44.8691L50.5058 48.0843L48.0909 49.3978C47.8537 49.5255 47.8515 49.6578 48.0841 49.7946L50.6836 51.3475L53.9399 53.6802L57.1894 56.9228L59.9394 59.5292L63.353 62.8403L66.5341 65.7613C67.1999 66.9061 68.0984 67.8752 69.2294 68.6687L72.342 71.713L75.4752 74.6409L78.6768 77.7672L81.3447 80.613C82.2751 81.3427 82.9341 82.0793 83.3218 82.8226C83.4723 83.11 83.3833 83.2536 83.055 83.2536H59.0364C58.9309 83.2538 58.8266 83.232 58.73 83.1896C58.6334 83.1472 58.5467 83.0851 58.4755 83.0074L56.3684 80.7156L53.0301 77.5893L49.8901 74.5041L46.9143 71.3983L44.1779 68.6756C43.1381 67.2344 41.9386 66.1558 40.5795 65.4398L37.8158 62.6624L34.409 59.2214L32.1378 56.8818L28.7037 53.5161L26.5146 51.368L23.7166 49.7946C23.4703 49.6532 23.4384 49.4731 23.6208 49.2542C23.931 48.8847 24.5284 48.5427 25.4132 48.228L29.3672 45.1427L32.6167 41.8728L35.4899 39.0201L38.4725 35.9485L41.4757 33.0138L44.8825 29.6617L47.1195 27.4589L50.1979 24.0932L52.5512 21.8014L55.9101 18.4425C57.0183 17.1086 58.1129 16.1919 60.0078 16.2056C67.5237 16.2694 75.0465 16.201 82.5761 16.0003C82.6606 15.9971 82.7439 16.0186 82.8161 16.0622C82.8884 16.1059 82.9464 16.1699 82.9832 16.2465C83.0201 16.3231 83.0342 16.409 83.0239 16.494C83.0135 16.579 82.9792 16.6593 82.925 16.7255L81.2079 18.7641Z" fill="#951616"/>
<path d="M51.4771 18.3335L55.91 18.443L52.5511 21.8019L48.0977 21.7129L51.4771 18.3335Z" fill="#B78A3A"/>
<path d="M78.54 21.3638L81.208 18.7642L82.9935 18.4701C83.0413 18.4622 83.0903 18.4647 83.137 18.4775C83.1837 18.4904 83.2271 18.5132 83.2641 18.5444C83.3012 18.5756 83.3311 18.6145 83.3517 18.6583C83.3723 18.7022 83.3831 18.75 83.3834 18.7984V21.1791C83.3834 21.4801 83.2352 21.6215 82.9388 21.6032L78.54 21.3638Z" fill="#B78A3A"/>
<path d="M45.9905 24.0864L50.1977 24.0933L47.1192 27.459L42.9736 27.1854L45.9905 24.0864Z" fill="#B78A3A"/>
<path d="M75.7419 24.0043L83.3011 23.847C83.3565 23.8461 83.4115 23.8562 83.4629 23.8768C83.5143 23.8973 83.5611 23.9279 83.6006 23.9668C83.6401 24.0056 83.6714 24.0519 83.6928 24.103C83.7142 24.1541 83.7252 24.2089 83.7252 24.2643V26.6449C83.7252 26.7683 83.6762 26.8866 83.589 26.9739C83.5017 27.0611 83.3834 27.1101 83.2601 27.1101L72.8687 27.0485L75.7419 24.0043Z" fill="#B78A3A"/>
<path d="M44.8824 29.6619L41.4756 33.0139L37.4326 32.6719L40.2784 29.8876L44.8824 29.6619Z" fill="#B78A3A"/>
<path d="M70.1257 29.655L83.5818 29.6756C83.8737 29.6756 84.0128 29.8192 83.9991 30.1065L83.8965 32.3093C83.8828 32.5419 83.7597 32.6605 83.5271 32.665L67.2319 32.795L70.1257 29.655Z" fill="#B78A3A"/>
<path d="M64.2079 35.6611L83.2462 35.839C83.3086 35.8397 83.3701 35.8533 83.4269 35.8789C83.4837 35.9045 83.5346 35.9416 83.5764 35.9879C83.6182 36.0342 83.6499 36.0886 83.6696 36.1477C83.6893 36.2069 83.6966 36.2695 83.6909 36.3315L83.4994 38.6917C83.4811 38.9516 83.342 39.0816 83.0821 39.0816L61.0269 39.0269C62.0621 37.4489 63.1225 36.327 64.2079 35.6611Z" fill="#B78A3A"/>
<path d="M34.2378 35.7571L38.4724 35.9486L35.4897 39.0202L30.8652 39.1091L34.2378 35.7571Z" fill="#B78A3A"/>
<path d="M28.1287 41.4626L32.6164 41.8731L29.3669 45.1431L25.0776 44.76L28.1287 41.4626Z" fill="#B78A3A"/>
<path d="M57.798 41.8181L83.1779 41.8455C83.4379 41.8455 83.5656 41.9732 83.561 42.2286L83.5473 44.5887C83.5473 44.7985 83.4424 44.9034 83.2327 44.9034L54.8975 44.8692L57.798 41.8181Z" fill="#B78A3A"/>
<path d="M50.5061 48.0845L83.411 48.1734C83.671 48.1734 83.7873 48.3034 83.7599 48.5633L83.5205 50.5883C83.5003 50.7741 83.4116 50.9459 83.2715 51.0708C83.1314 51.1958 82.9497 51.2651 82.7611 51.2655L50.6839 51.3476L48.0844 49.7947C47.8518 49.6579 47.8541 49.5256 48.0912 49.3979L50.5061 48.0845Z" fill="#B78A3A"/>
<path d="M20.5495 48.1255L25.4134 48.2281C24.5286 48.5428 23.9312 48.8848 23.6211 49.2542C23.4386 49.4732 23.4706 49.6533 23.7168 49.7947L26.5148 51.3681L20.5426 51.0397L18.1688 49.7536C17.9408 49.6259 17.9431 49.5005 18.1757 49.3774L20.5495 48.1255Z" fill="#B78A3A"/>
<path d="M28.7041 53.5161L32.1383 56.8819L27.4659 56.9161L23.9771 53.5708L28.7041 53.5161Z" fill="#B78A3A"/>
<path d="M53.9399 53.6804L83.2329 53.6736C83.3653 53.6736 83.4923 53.7262 83.586 53.8198C83.6796 53.9135 83.7323 54.0405 83.7323 54.173L83.7186 56.4989C83.7168 56.6102 83.6713 56.7163 83.5919 56.7944C83.5126 56.8725 83.4057 56.9162 83.2944 56.9162L57.1894 56.923L53.9399 53.6804Z" fill="#B78A3A"/>
<path d="M34.409 59.2217L37.8158 62.6627L33.5128 62.779L29.9829 59.3106L34.409 59.2217Z" fill="#B78A3A"/>
<path d="M63.3526 62.8404L59.939 59.5294L83.5949 59.3789C83.8367 59.3789 83.9575 59.4975 83.9575 59.7346L83.9849 62.5394C83.9894 62.772 83.8754 62.8883 83.6428 62.8883L63.3526 62.8404Z" fill="#B78A3A"/>
<path d="M40.5795 65.4399C41.9386 66.156 43.1381 67.2346 44.1779 68.6757C42.5087 69.0269 40.8806 68.9585 39.2935 68.4705L36.6323 65.8025L40.5795 65.4399Z" fill="#B78A3A"/>
<path d="M69.2295 68.6687C68.0985 67.8751 67.2 66.906 66.5342 65.7613L83.1303 65.5218C83.4131 65.5173 83.5544 65.6564 83.5544 65.9391V68.3882C83.5544 68.6755 83.4108 68.8169 83.1235 68.8123L69.2295 68.6687Z" fill="#B78A3A"/>
<path d="M46.9147 71.3984L49.8905 74.5042L45.3344 74.6889L42.1055 71.4395L46.9147 71.3984Z" fill="#B78A3A"/>
<path d="M75.475 74.6408L72.3418 71.7129L83.2873 71.4803C83.3421 71.4792 83.3965 71.4895 83.4471 71.5104C83.4976 71.5314 83.543 71.5626 83.5805 71.602C83.6179 71.6413 83.6465 71.688 83.6644 71.739C83.6822 71.7899 83.6889 71.844 83.6841 71.8976L83.5062 74.4219C83.4834 74.691 83.3375 74.8232 83.0684 74.8187L75.475 74.6408Z" fill="#B78A3A"/>
<path d="M53.0302 77.5894L56.3686 80.7157L51.2037 80.743L48.3921 77.6509L53.0302 77.5894Z" fill="#B78A3A"/>
<path d="M81.3452 80.6133L78.6772 77.7675L83.1581 77.5622C83.4226 77.5531 83.5548 77.6808 83.5548 77.9453V80.0592C83.5551 80.1689 83.5134 80.2746 83.4384 80.3546C83.3634 80.4347 83.2607 80.4832 83.1512 80.4902L81.3452 80.6133Z" fill="#B78A3A"/>
</svg>
