<svg width="100" height="100" viewBox="0 0 100 100" fill="none" xmlns="http://www.w3.org/2000/svg">
<rect width="100" height="100" fill="#595C62"/>
<path d="M19.9053 58V40.8203H23.3741V48.4492L30.3819 40.8203H35.0459L28.5772 47.5117L35.3975 58H30.9092L26.1866 49.9375L23.3741 52.8086V58H19.9053ZM36.8591 49.5156C36.8591 47.7656 37.1208 46.2969 37.6442 45.1094C38.0348 44.2344 38.5661 43.4492 39.238 42.7539C39.9177 42.0586 40.6598 41.543 41.4645 41.207C42.5348 40.7539 43.7692 40.5273 45.1677 40.5273C47.6989 40.5273 49.7223 41.3125 51.238 42.8828C52.7614 44.4531 53.5231 46.6367 53.5231 49.4336C53.5231 52.207 52.7692 54.3789 51.2614 55.9492C49.7536 57.5117 47.738 58.293 45.2145 58.293C42.6598 58.293 40.6286 57.5156 39.1208 55.9609C37.613 54.3984 36.8591 52.25 36.8591 49.5156ZM40.4333 49.3984C40.4333 51.3438 40.8825 52.8203 41.7809 53.8281C42.6794 54.8281 43.82 55.3281 45.2028 55.3281C46.5856 55.3281 47.7184 54.832 48.6012 53.8398C49.4919 52.8398 49.9372 51.3438 49.9372 49.3516C49.9372 47.3828 49.5036 45.9141 48.6364 44.9453C47.777 43.9766 46.6325 43.4922 45.2028 43.4922C43.7731 43.4922 42.6208 43.9844 41.7458 44.9688C40.8708 45.9453 40.4333 47.4219 40.4333 49.3984ZM56.555 58V40.8203H61.7464L64.8636 52.5391L67.9456 40.8203H73.1488V58H69.9261V44.4766L66.5159 58H63.1761L59.7777 44.4766V58H56.555ZM76.8486 58V40.8203H80.3173V58H76.8486Z" fill="#F8F8F8"/>
</svg>
