<svg width="100" height="100" viewBox="0 0 100 100" fill="none" xmlns="http://www.w3.org/2000/svg">
<rect width="100" height="100" fill="white"/>
<path d="M81.6067 31.0538C87.9742 36.1313 92.3618 44.5387 92.1368 52.7962C91.1842 86.9287 11.6841 90.0712 8.09157 51.1312C6.38157 32.5838 29.0016 22.3688 44.1141 21.2363C57.8017 20.2013 70.7842 22.4063 81.6067 31.0538ZM90.2167 44.7787C88.3417 39.4912 83.5417 33.5438 78.0817 31.7213C77.9879 31.694 77.8877 31.6998 77.7976 31.7375C77.7075 31.7752 77.633 31.8426 77.5866 31.9285C77.5401 32.0144 77.5245 32.1136 77.5422 32.2096C77.56 32.3056 77.6101 32.3927 77.6842 32.4563C80.2342 34.4813 81.6217 36.9937 81.8467 40.3312C82.2567 46.3312 79.5442 50.8262 73.7092 53.8162C62.9542 59.3262 52.1717 59.7762 41.3616 55.1662C34.2816 52.1437 27.6891 46.0762 31.0491 37.8338C32.3316 34.6913 35.3691 31.9388 38.0916 29.8238C38.1429 29.7809 38.1775 29.7214 38.1894 29.6557C38.2013 29.5899 38.1897 29.5221 38.1566 29.464C38.1236 29.406 38.0711 29.3614 38.0086 29.338C37.946 29.3147 37.8771 29.314 37.8141 29.3363C27.7791 33.3563 16.8216 42.8437 20.6691 55.1437C24.7491 68.2087 39.1341 74.0287 51.9292 74.9137C61.6792 75.5887 70.3967 73.8737 78.0817 69.7687C87.2467 64.8787 94.0417 55.5637 90.2167 44.7787Z" fill="#2A57A0"/>
</svg>
