<svg width="100" height="100" viewBox="0 0 100 100" fill="none" xmlns="http://www.w3.org/2000/svg">
<rect width="100" height="100" fill="#EE7202"/>
<path d="M30.7119 67.0951C31.5794 63.0476 30.5594 60.0426 28.5219 56.5026C25.4318 51.1376 21.6793 45.4375 22.0218 38.9375C22.5893 28.23 29.2294 21.62 39.8744 21C39.8802 20.9997 39.8857 21.0014 39.8902 21.0049C39.8946 21.0084 39.8976 21.0134 39.8988 21.0192C39.8999 21.025 39.8992 21.0312 39.8965 21.0368C39.8939 21.0424 39.8896 21.047 39.8844 21.05C36.9627 22.2484 34.706 24.0375 33.1144 26.4175C29.8319 31.325 31.2969 35.95 33.7444 40.7225C35.7394 44.615 37.9019 48.43 39.7519 52.3925C45.5094 64.7451 34.2594 75.6351 23.7118 79.4201C23.699 79.4241 23.6852 79.4236 23.6726 79.4188C23.66 79.4141 23.6494 79.4052 23.6425 79.3937C23.6356 79.3821 23.6328 79.3686 23.6344 79.3552C23.6361 79.3419 23.6423 79.3295 23.6518 79.3201C27.3302 75.9684 29.6835 71.8934 30.7119 67.0951Z" fill="#FFED00"/>
<path d="M41.6518 33.6651C43.9643 25.8226 50.7643 21.7326 58.6243 21.3751C58.6326 21.3745 58.6409 21.377 58.6475 21.382C58.6542 21.387 58.6588 21.3943 58.6606 21.4024C58.6625 21.4105 58.6613 21.4191 58.6574 21.4264C58.6535 21.4338 58.6471 21.4395 58.6393 21.4426C55.1443 22.7092 52.561 24.9934 50.8893 28.2951C48.6393 32.7451 50.4618 37.2026 52.4568 41.2701C54.3643 45.1576 56.9568 49.4776 58.5118 52.9451C64.0143 65.2076 52.9593 75.8976 42.4868 79.7601C42.1618 79.8818 42.1284 79.8259 42.3868 79.5926C47.9718 74.5576 51.9543 65.7126 48.0618 58.5826C46.6735 56.0376 45.2668 53.5051 43.8418 50.9851C40.7368 45.4926 39.8168 39.8851 41.6518 33.6651Z" fill="#FFED00"/>
<path d="M59.6569 34.4652C61.6319 26.2427 68.6469 21.8502 76.7269 21.3502C76.7421 21.3495 76.7571 21.3543 76.7692 21.3636C76.7813 21.3729 76.7897 21.3862 76.793 21.4011C76.7963 21.416 76.7942 21.4316 76.7872 21.4452C76.7801 21.4587 76.7685 21.4693 76.7544 21.4752C73.0827 22.8818 70.4886 25.3127 68.9719 28.7677C67.0869 33.0627 68.7244 37.2077 70.7544 41.1602C72.7669 45.0802 75.0819 48.9877 76.8269 53.0202C82.1669 65.3627 71.2219 75.9527 60.6594 79.8002C60.6475 79.8045 60.6346 79.8045 60.6228 79.8002C60.6111 79.7958 60.6012 79.7875 60.5948 79.7764C60.5884 79.7653 60.5858 79.7522 60.5876 79.7393C60.5893 79.7263 60.5952 79.7143 60.6044 79.7052C65.0919 75.5602 69.2819 68.0377 67.6269 61.7177C67.3519 60.666 66.6727 59.151 65.5894 57.1727C63.6244 53.5777 61.1994 49.9427 59.9369 46.0027C58.6819 42.0902 58.7194 38.3802 59.6569 34.4652Z" fill="#FFED00"/>
</svg>
