<svg width="100" height="100" viewBox="0 0 100 100" fill="none" xmlns="http://www.w3.org/2000/svg">
<rect width="100" height="100" fill="#676767"/>
<path d="M15.7566 45.6214C15.8594 45.5704 15.9431 45.4879 15.9952 45.386C16.0474 45.2842 16.0653 45.1685 16.0462 45.0561C15.7946 43.529 10.2066 44.2184 11.4855 40.7264C12.3646 38.3202 17.6733 38.3754 18.1869 41.2641C18.2076 41.3767 18.1605 41.4388 18.0456 41.4503L16.091 41.6158C16.0335 41.6208 15.976 41.6075 15.9269 41.5777C15.8779 41.5479 15.8399 41.5032 15.8187 41.4503C15.497 40.6597 14.9167 40.4104 14.0778 40.7022C13.9678 40.7394 13.8731 40.8118 13.8084 40.9083C13.7438 41.0048 13.7128 41.1199 13.7202 41.2358C13.7277 41.3518 13.7732 41.462 13.8497 41.5493C13.9262 41.6367 14.0294 41.6964 14.1433 41.7192C15.4119 41.9812 17.9698 42.4776 18.3972 43.9805C19.5727 48.0965 11.6441 49.1617 11.0029 44.8665C10.9868 44.7516 11.0374 44.6918 11.1546 44.6872L13.1574 44.6148C13.2746 44.6102 13.3562 44.6631 13.4022 44.7734C13.8664 45.8811 14.6512 46.1638 15.7566 45.6214Z" fill="#CDCDCD"/>
<path d="M76.1277 44.7946C76.045 46.0149 77.5445 46.07 78.1926 45.6391C78.2941 45.5721 78.3759 45.4793 78.4294 45.3701C78.483 45.2609 78.5064 45.1394 78.4973 45.0181C78.4882 44.8969 78.4468 44.7802 78.3775 44.6803C78.3081 44.5804 78.2134 44.5008 78.103 44.4498C76.6241 43.7604 73.4148 43.6501 73.8801 41.1129C74.4041 38.2414 80.2403 38.2793 80.6712 41.3335C80.685 41.4438 80.6367 41.5013 80.5264 41.5059L78.5753 41.6059C78.5256 41.6089 78.4762 41.5978 78.4329 41.574C78.3895 41.5502 78.354 41.5146 78.3305 41.4714L78.1064 41.0578C78.0513 40.9589 77.9743 40.8797 77.8755 40.8199C77.3837 40.5211 76.9022 40.5223 76.4311 40.8233C76.3384 40.8822 76.2663 40.9683 76.2246 41.0698C76.1829 41.1714 76.1737 41.2834 76.1983 41.3903C76.2228 41.4973 76.28 41.5941 76.3618 41.6672C76.4436 41.7404 76.5461 41.7864 76.6551 41.7989C77.8375 41.9402 79.5577 42.2746 80.3506 43.1709C81.3882 44.343 81.0986 46.2872 79.7128 47.0387C77.6445 48.1556 74.0628 47.8729 73.5182 44.9566C73.4883 44.7957 73.5549 44.7107 73.7181 44.7015L75.9174 44.5774C75.9459 44.5763 75.9743 44.5813 76.0007 44.592C76.0272 44.6026 76.0511 44.6187 76.0709 44.6392C76.0908 44.6596 76.1061 44.684 76.1158 44.7108C76.1256 44.7376 76.1297 44.7661 76.1277 44.7946Z" fill="#CDCDCD"/>
<path d="M47.7397 39.2685C47.7397 39.2563 47.7422 39.2442 47.7468 39.2329C47.7515 39.2216 47.7584 39.2113 47.767 39.2027C47.7757 39.194 47.7859 39.1872 47.7972 39.1825C47.8085 39.1778 47.8206 39.1754 47.8328 39.1754L51.6179 39.1616C52.5947 39.1588 53.5326 39.5374 54.2255 40.2142C54.9185 40.8909 55.3097 41.8105 55.3133 42.7709L55.3168 43.7706C55.3204 44.7314 54.9356 45.6544 54.2471 46.3364C53.5586 47.0185 52.6228 47.4037 51.6455 47.4074L47.8604 47.4212C47.8357 47.4212 47.812 47.4114 47.7946 47.3939C47.7771 47.3765 47.7673 47.3528 47.7673 47.3281L47.7397 39.2685ZM50.2528 41.4678L50.2941 45.2322C50.2946 45.2797 50.3044 45.3267 50.323 45.3705C50.3416 45.4142 50.3687 45.4538 50.4026 45.4871C50.4365 45.5204 50.4767 45.5467 50.5208 45.5645C50.5649 45.5823 50.612 45.5912 50.6596 45.5907L51.1111 45.5838C51.3276 45.5816 51.5414 45.5358 51.7405 45.449C51.9396 45.3623 52.12 45.2362 52.2714 45.0781C52.4228 44.9199 52.5423 44.7328 52.623 44.5274C52.7037 44.322 52.744 44.1023 52.7417 43.8809L52.7279 42.764C52.7232 42.317 52.5452 41.8901 52.233 41.5772C51.9207 41.2643 51.4998 41.091 51.0629 41.0955L50.6113 41.1024C50.5638 41.1029 50.5168 41.1127 50.473 41.1313C50.4293 41.1499 50.3896 41.1769 50.3564 41.2109C50.3231 41.2448 50.2968 41.285 50.279 41.3291C50.2612 41.3731 50.2523 41.4203 50.2528 41.4678Z" fill="#CDCDCD"/>
<path d="M24.9196 41.3199V47.263C24.9196 47.2977 24.9058 47.331 24.8813 47.3556C24.8567 47.3801 24.8234 47.3939 24.7886 47.3939H22.5445C22.5103 47.394 22.4775 47.3806 22.4531 47.3568C22.4286 47.333 22.4144 47.3005 22.4135 47.2664L22.3342 41.3579C22.3342 41.3401 22.3306 41.3224 22.3236 41.3061C22.3166 41.2897 22.3063 41.275 22.2934 41.2627C22.2805 41.2504 22.2653 41.2409 22.2486 41.2348C22.2319 41.2286 22.2141 41.2259 22.1963 41.2269L19.9694 41.2993C19.9519 41.2997 19.9345 41.2967 19.9182 41.2903C19.9019 41.2839 19.8871 41.2743 19.8745 41.2621C19.862 41.2499 19.852 41.2353 19.8453 41.2192C19.8385 41.2031 19.835 41.1858 19.835 41.1683V39.3378C19.835 39.303 19.8488 39.2697 19.8733 39.2452C19.8979 39.2206 19.9312 39.2068 19.966 39.2068H27.4051C27.4226 39.2068 27.4399 39.2103 27.456 39.2171C27.4721 39.2239 27.4867 39.2338 27.4989 39.2464C27.5112 39.2589 27.5207 39.2737 27.5271 39.29C27.5335 39.3063 27.5365 39.3237 27.5361 39.3412L27.4913 41.0614C27.4904 41.0955 27.4762 41.128 27.4517 41.1518C27.4272 41.1756 27.3944 41.189 27.3603 41.1889H25.0506C25.0334 41.1889 25.0164 41.1923 25.0005 41.1989C24.9846 41.2055 24.9702 41.2151 24.958 41.2273C24.9458 41.2395 24.9362 41.2539 24.9296 41.2698C24.923 41.2857 24.9196 41.3027 24.9196 41.3199Z" fill="#CDCDCD"/>
<path d="M31.976 45.5945L35.9954 45.5635C36.0378 45.5635 36.0785 45.5801 36.1088 45.6097C36.1391 45.6393 36.1565 45.6797 36.1575 45.722L36.185 47.2285C36.1855 47.25 36.1816 47.2715 36.1737 47.2915C36.1658 47.3116 36.1539 47.3299 36.1388 47.3453C36.1237 47.3607 36.1057 47.3729 36.0858 47.3813C36.0659 47.3897 36.0446 47.394 36.023 47.3939H29.3905C29.3476 47.3939 29.3064 47.3769 29.276 47.3465C29.2456 47.3161 29.2285 47.2749 29.2285 47.2319V39.3688C29.2285 39.3258 29.2456 39.2846 29.276 39.2542C29.3064 39.2239 29.3476 39.2068 29.3905 39.2068H35.9644C35.986 39.2068 36.0073 39.2111 36.0272 39.2194C36.0471 39.2278 36.0651 39.24 36.0802 39.2555C36.0953 39.2709 36.1072 39.2891 36.1151 39.3092C36.123 39.3292 36.1269 39.3507 36.1264 39.3723L36.0816 40.7339C36.0799 40.7751 36.0625 40.814 36.033 40.8429C36.0036 40.8717 35.9642 40.8882 35.923 40.889L31.8863 40.9097C31.8635 40.9096 31.8409 40.9143 31.8201 40.9235C31.7992 40.9327 31.7805 40.9462 31.7652 40.9631C31.7499 40.98 31.7384 41 31.7313 41.0217C31.7243 41.0434 31.7219 41.0663 31.7243 41.089L31.8415 42.0818C31.8466 42.1211 31.8658 42.1571 31.8957 42.1832C31.9256 42.2092 31.9639 42.2234 32.0035 42.2231L35.6162 42.2266C35.6592 42.2266 35.7004 42.2436 35.7308 42.274C35.7612 42.3044 35.7783 42.3456 35.7783 42.3886V43.764C35.7783 43.7856 35.774 43.8069 35.7656 43.8268C35.7572 43.8467 35.745 43.8647 35.7296 43.8798C35.7142 43.8949 35.6959 43.9068 35.6758 43.9147C35.6558 43.9226 35.6344 43.9265 35.6128 43.926L31.9794 43.8364C31.9578 43.836 31.9364 43.8398 31.9163 43.8477C31.8963 43.8557 31.878 43.8675 31.8626 43.8826C31.8472 43.8977 31.8349 43.9157 31.8266 43.9356C31.8182 43.9555 31.8139 43.9769 31.8139 43.9984V45.4325C31.8139 45.4754 31.831 45.5167 31.8614 45.547C31.8918 45.5774 31.933 45.5945 31.976 45.5945Z" fill="#CDCDCD"/>
<path d="M43.1206 46.2357L40.4386 46.1461C40.4127 46.1449 40.3871 46.1524 40.3659 46.1674C40.3447 46.1824 40.329 46.204 40.3214 46.2288L39.9629 47.3629C39.9553 47.3878 39.9397 47.4093 39.9184 47.4243C39.8972 47.4393 39.8716 47.4468 39.8457 47.4457L37.5671 47.3664C37.5487 47.3654 37.5307 47.3601 37.5147 47.3509C37.4987 47.3417 37.4852 47.3288 37.4751 47.3134C37.465 47.2979 37.4587 47.2803 37.4567 47.2619C37.4547 47.2436 37.4571 47.2251 37.4637 47.2078L40.4248 39.2826C40.4333 39.2602 40.4484 39.241 40.4681 39.2274C40.4878 39.2139 40.5112 39.2067 40.5351 39.2068H43.1447C43.1686 39.2067 43.192 39.2139 43.2117 39.2274C43.2315 39.241 43.2466 39.2602 43.255 39.2826L46.2472 47.2595C46.2537 47.2768 46.2561 47.2953 46.2541 47.3137C46.2521 47.332 46.2459 47.3496 46.2358 47.3651C46.2257 47.3805 46.2121 47.3934 46.1961 47.4026C46.1801 47.4118 46.1622 47.4171 46.1438 47.4181L43.7583 47.4974C43.7338 47.4982 43.7096 47.4914 43.6892 47.4778C43.6688 47.4641 43.6532 47.4445 43.6445 47.4215L43.2274 46.3115C43.2192 46.2897 43.2046 46.2708 43.1856 46.2573C43.1665 46.2438 43.1439 46.2362 43.1206 46.2357ZM41.0315 44.095C41.0273 44.112 41.027 44.1298 41.0308 44.147C41.0346 44.1642 41.0423 44.1802 41.0533 44.1939C41.0643 44.2076 41.0783 44.2186 41.0943 44.2259C41.1103 44.2333 41.1277 44.2368 41.1453 44.2363L42.5276 44.2225C42.5457 44.2228 42.5636 44.2188 42.5798 44.2108C42.596 44.2029 42.61 44.1912 42.6208 44.1767C42.6316 44.1622 42.6388 44.1453 42.6417 44.1275C42.6447 44.1097 42.6434 44.0915 42.6379 44.0743L41.914 41.644C41.9064 41.6209 41.8917 41.6009 41.8719 41.5869C41.8522 41.5728 41.8284 41.5654 41.8042 41.5658C41.7799 41.5662 41.7564 41.5743 41.7371 41.589C41.7178 41.6037 41.7037 41.6242 41.6969 41.6474L41.0315 44.095Z" fill="#CDCDCD"/>
<path d="M59.8324 41.0407L59.8566 42.3024C59.8565 42.3167 59.8594 42.3309 59.865 42.3441C59.8706 42.3573 59.8788 42.3692 59.8891 42.3792C59.8994 42.3892 59.9115 42.397 59.9249 42.4021C59.9383 42.4073 59.9525 42.4097 59.9669 42.4093L62.9039 42.3679C62.9323 42.3679 62.9594 42.3792 62.9795 42.3992C62.9995 42.4192 63.0108 42.4464 63.0108 42.4748V43.926C63.0108 43.9401 63.008 43.954 63.0026 43.9669C62.9973 43.9799 62.9894 43.9917 62.9795 44.0016C62.9696 44.0115 62.9578 44.0194 62.9448 44.0248C62.9318 44.0301 62.9179 44.0329 62.9039 44.0329H59.9186C59.8903 44.0329 59.8631 44.0442 59.843 44.0642C59.823 44.0842 59.8117 44.1114 59.8117 44.1398L59.8428 47.2871C59.8428 47.3154 59.8315 47.3426 59.8115 47.3626C59.7914 47.3827 59.7642 47.3939 59.7359 47.3939H57.4366C57.4083 47.3939 57.3811 47.3827 57.361 47.3626C57.341 47.3426 57.3297 47.3154 57.3297 47.2871L57.3125 39.3137C57.3125 39.2996 57.3153 39.2857 57.3206 39.2728C57.326 39.2598 57.3339 39.248 57.3438 39.2381C57.3537 39.2282 57.3655 39.2203 57.3785 39.2149C57.3914 39.2096 57.4053 39.2068 57.4194 39.2068H63.3969C63.4246 39.2068 63.4513 39.2176 63.4712 39.2369C63.4912 39.2562 63.5028 39.2825 63.5037 39.3102L63.5761 40.8201C63.5766 40.8344 63.5742 40.8487 63.569 40.862C63.5638 40.8754 63.556 40.8876 63.5461 40.8979C63.5361 40.9082 63.5242 40.9164 63.511 40.9219C63.4978 40.9275 63.4836 40.9304 63.4693 40.9304H59.9393C59.925 40.9304 59.9108 40.9333 59.8976 40.9389C59.8844 40.9444 59.8725 40.9526 59.8625 40.9629C59.8525 40.9732 59.8447 40.9854 59.8395 40.9988C59.8344 41.0121 59.832 41.0264 59.8324 41.0407Z" fill="#CDCDCD"/>
<path d="M66.5479 46.315L66.3686 47.2767C66.363 47.3093 66.3461 47.3389 66.3209 47.3603C66.2957 47.3817 66.2638 47.3936 66.2307 47.3939H63.8039C63.7809 47.3939 63.7583 47.3882 63.738 47.3774C63.7177 47.3666 63.7004 47.351 63.6875 47.332C63.6746 47.313 63.6665 47.2911 63.664 47.2682C63.6614 47.2454 63.6645 47.2223 63.6729 47.2009L66.6823 39.2964C66.6927 39.2701 66.7107 39.2475 66.734 39.2315C66.7574 39.2155 66.785 39.2069 66.8133 39.2068H69.3987C69.4274 39.2072 69.4553 39.2163 69.4787 39.2329C69.5021 39.2495 69.5199 39.2729 69.5297 39.2999L72.4909 47.2354C72.4986 47.2566 72.5011 47.2793 72.4982 47.3017C72.4954 47.3241 72.4872 47.3454 72.4743 47.364C72.4615 47.3825 72.4444 47.3978 72.4245 47.4084C72.4046 47.419 72.3825 47.4247 72.3599 47.425L70.0054 47.4836C69.9741 47.4849 69.9433 47.4759 69.9177 47.4578C69.8921 47.4397 69.8733 47.4136 69.8641 47.3836L69.5401 46.2495C69.5311 46.2201 69.5128 46.1944 69.4879 46.1764C69.463 46.1583 69.4329 46.1489 69.4022 46.1495L66.6823 46.1978C66.6498 46.1989 66.6188 46.2111 66.5943 46.2325C66.5698 46.2538 66.5534 46.283 66.5479 46.315ZM68.6472 44.2501C68.6774 44.2503 68.7072 44.2434 68.7342 44.23C68.7612 44.2165 68.7847 44.197 68.8028 44.1729C68.8209 44.1487 68.8331 44.1207 68.8384 44.091C68.8437 44.0613 68.842 44.0308 68.8334 44.0019L68.1508 41.7302C68.1026 41.5693 68.052 41.5693 67.9992 41.7302L67.258 44.0329C67.2504 44.0555 67.2483 44.0796 67.2517 44.1032C67.2552 44.1268 67.2642 44.1493 67.2779 44.1687C67.2917 44.1882 67.3099 44.2042 67.331 44.2153C67.3521 44.2264 67.3755 44.2325 67.3993 44.2328L68.6472 44.2501Z" fill="#CDCDCD"/>
<path d="M84.7706 41.1924L82.4403 41.1889C82.4116 41.189 82.3841 41.1778 82.3635 41.1579C82.3429 41.1379 82.3309 41.1107 82.33 41.0821L82.2886 39.3205C82.2882 39.3058 82.2907 39.2911 82.296 39.2773C82.3013 39.2635 82.3094 39.2509 82.3197 39.2403C82.33 39.2297 82.3423 39.2213 82.3559 39.2155C82.3695 39.2097 82.3842 39.2068 82.3989 39.2068H89.876C89.9052 39.2068 89.9333 39.2184 89.954 39.2391C89.9747 39.2598 89.9863 39.2878 89.9863 39.3171V41.1097C89.9863 41.1244 89.9833 41.1391 89.9776 41.1527C89.9718 41.1663 89.9634 41.1786 89.9528 41.1889C89.9422 41.1992 89.9296 41.2072 89.9158 41.2126C89.902 41.2179 89.8873 41.2204 89.8725 41.22L87.5836 41.1752C87.5549 41.1751 87.5274 41.1863 87.5068 41.2062C87.4862 41.2262 87.4742 41.2534 87.4733 41.282L87.3802 47.2836C87.3802 47.3129 87.3686 47.3409 87.3479 47.3616C87.3272 47.3823 87.2991 47.3939 87.2699 47.3939H85.0568C85.0275 47.3939 84.9994 47.3823 84.9787 47.3616C84.9581 47.3409 84.9464 47.3129 84.9464 47.2836L84.8809 41.3027C84.8809 41.2734 84.8693 41.2454 84.8486 41.2247C84.8279 41.204 84.7999 41.1924 84.7706 41.1924Z" fill="#CDCDCD"/>
<path d="M15.0221 55.5154L15.0256 60.4863C15.0256 60.6655 14.9359 60.7552 14.7567 60.7552L13.7466 60.7448C13.6991 60.7448 13.6535 60.7259 13.6199 60.6923C13.5863 60.6587 13.5674 60.6131 13.5674 60.5656L13.6294 53.4333C13.6317 53.323 13.6869 53.2701 13.7949 53.2747L15.7219 53.3643C15.7641 53.3665 15.8043 53.3818 15.8366 53.4079C15.8689 53.434 15.8915 53.4695 15.9012 53.5091L17.1249 58.118C17.1306 58.1393 17.1432 58.158 17.1607 58.1714C17.1781 58.1847 17.1995 58.192 17.2214 58.192C17.2434 58.192 17.2648 58.1847 17.2822 58.1714C17.2997 58.158 17.3122 58.1393 17.318 58.118L18.5073 53.4333C18.5173 53.395 18.5395 53.3613 18.5701 53.3375C18.6008 53.3138 18.6382 53.3013 18.6762 53.3023L20.5928 53.3161C20.7146 53.3161 20.7755 53.3758 20.7755 53.4953L20.8031 60.6104C20.8031 60.7046 20.7572 60.7517 20.6652 60.7517H19.7172C19.5817 60.7517 19.5127 60.6839 19.5104 60.5483L19.4415 55.2327C19.4398 55.216 19.4324 55.2005 19.4206 55.1886C19.4087 55.1768 19.3931 55.1694 19.3765 55.1678C19.3598 55.1662 19.3431 55.1704 19.3291 55.1797C19.3152 55.189 19.305 55.2029 19.3001 55.2189L18.1005 60.2174C18.0517 60.4176 17.9374 60.5957 17.7757 60.7235C17.614 60.8512 17.4143 60.9212 17.2082 60.9224C17.0022 60.9236 16.8017 60.8559 16.6385 60.73C16.4754 60.6042 16.359 60.4274 16.3079 60.2277L15.1152 55.5016C15.1112 55.4914 15.1039 55.4829 15.0945 55.4774C15.085 55.4719 15.074 55.4698 15.0632 55.4714C15.0523 55.473 15.0424 55.4782 15.0349 55.4862C15.0275 55.4942 15.023 55.5045 15.0221 55.5154Z" fill="#CDCDCD"/>
<path d="M30.8692 59.1592L28.2218 59.0661C28.1378 59.0631 28.0552 59.0878 27.9866 59.1364C27.9181 59.185 27.8675 59.2548 27.8426 59.335L27.4496 60.5794C27.4128 60.6944 27.3347 60.7518 27.2152 60.7518H26.0534C25.888 60.7518 25.8351 60.6748 25.8949 60.5208L28.6078 53.4609C28.6299 53.4042 28.6697 53.3562 28.7212 53.3239C28.7727 53.2916 28.8333 53.2768 28.894 53.2817L30.0557 53.3644C30.1959 53.3759 30.2912 53.446 30.3418 53.5747L33.172 60.5829C33.195 60.6404 33.1766 60.6771 33.1168 60.6932C31.8896 61.0356 31.2335 60.6139 31.1485 59.4281C31.1434 59.3572 31.1122 59.2906 31.0607 59.2411C31.0092 59.1915 30.9411 59.1623 30.8692 59.1592ZM28.5527 57.5942C28.5466 57.612 28.5449 57.6311 28.5477 57.6498C28.5506 57.6685 28.5579 57.6862 28.5691 57.7014C28.5802 57.7167 28.5949 57.729 28.6119 57.7373C28.6288 57.7456 28.6476 57.7497 28.6664 57.7493L30.2556 57.732C30.2746 57.7321 30.2934 57.7276 30.3103 57.7189C30.3271 57.7101 30.3416 57.6974 30.3525 57.6818C30.3633 57.6662 30.3702 57.6481 30.3726 57.6293C30.3749 57.6104 30.3726 57.5913 30.3659 57.5735L29.5489 55.3569C29.5416 55.3329 29.5267 55.312 29.5066 55.2971C29.4864 55.2822 29.462 55.2741 29.4369 55.2741C29.4118 55.2741 29.3874 55.2822 29.3673 55.2971C29.3471 55.312 29.3322 55.3329 29.3249 55.3569L28.5527 57.5942Z" fill="#CDCDCD"/>
<path d="M43.1759 61C42.5623 59.759 41.7901 58.6766 40.8593 57.7528C40.5399 57.6287 40.2434 57.6034 39.9699 57.6769C39.832 57.7114 39.762 57.801 39.7597 57.9458L39.7493 60.6209C39.7493 60.7105 39.7045 60.7553 39.6149 60.7553L38.5014 60.7484C38.4417 60.7475 38.3847 60.7231 38.3428 60.6806C38.3008 60.638 38.2773 60.5806 38.2773 60.5209V53.5092C38.2773 53.3598 38.352 53.2875 38.5014 53.2921C40.2078 53.3438 43.9687 52.6543 44.3066 55.1156C44.4697 56.3061 43.9388 57.0656 42.7139 57.3942C42.6289 57.4172 42.6128 57.4643 42.6657 57.5356L44.8236 60.4416C44.9362 60.5933 44.9006 60.6864 44.7168 60.7208L43.1759 61ZM39.7459 54.795L39.739 56.2429C39.739 56.3133 39.7669 56.3808 39.8167 56.4306C39.8665 56.4803 39.934 56.5083 40.0044 56.5083L41.4764 56.5152C41.6445 56.5163 41.8112 56.4959 41.9668 56.4553C42.1225 56.4146 42.2641 56.3545 42.3835 56.2783C42.503 56.2021 42.5979 56.1113 42.6629 56.0112C42.7278 55.9111 42.7616 55.8035 42.7622 55.6948V55.3707C42.7634 55.1516 42.6302 54.9406 42.3917 54.7842C42.1532 54.6278 41.829 54.5387 41.4902 54.5365L40.0147 54.5296C39.9796 54.5291 39.9447 54.5357 39.9121 54.5488C39.8795 54.5619 39.8498 54.5814 39.8248 54.6061C39.7998 54.6308 39.7799 54.6602 39.7664 54.6927C39.7528 54.7251 39.7459 54.7599 39.7459 54.795Z" fill="#CDCDCD"/>
<path d="M51.2152 53.2804L50.0638 53.2824C49.9763 53.2826 49.9054 53.3537 49.9056 53.4413L49.9181 60.6115C49.9182 60.6991 49.9893 60.77 50.0769 60.7698L51.2283 60.7678C51.3159 60.7676 51.3867 60.6965 51.3866 60.6089L51.3741 53.4387C51.3739 53.3511 51.3028 53.2803 51.2152 53.2804Z" fill="#CDCDCD"/>
<path d="M58.53 56.2325V60.5795C58.53 60.6944 58.4726 60.7518 58.3577 60.7518H57.2373C57.1224 60.7518 57.0649 60.6944 57.0649 60.5795V53.5126C57.0649 53.3977 57.1224 53.3403 57.2373 53.3403H58.4094C58.5266 53.3403 58.615 53.3897 58.6748 53.4885L61.4946 58.1285C61.5042 58.143 61.5182 58.1542 61.5345 58.1603C61.5508 58.1665 61.5686 58.1673 61.5855 58.1627C61.6023 58.1581 61.6172 58.1484 61.6281 58.1348C61.6391 58.1212 61.6454 58.1045 61.6463 58.0871L61.6049 53.5437C61.6045 53.5103 61.6107 53.4772 61.6234 53.4463C61.636 53.4154 61.6547 53.3872 61.6784 53.3635C61.7022 53.3398 61.7304 53.3209 61.7616 53.3081C61.7928 53.2952 61.8262 53.2886 61.86 53.2886H62.8184C62.9563 53.2886 63.0264 53.3575 63.0287 53.4954L63.0873 60.4967C63.0873 60.6668 63.0034 60.7518 62.8356 60.7518H61.6256C61.4785 60.7518 61.3671 60.6886 61.2912 60.5622L58.6817 56.1911C58.6721 56.1766 58.6581 56.1654 58.6418 56.1593C58.6255 56.1531 58.6077 56.1523 58.5909 56.1569C58.5741 56.1615 58.5591 56.1713 58.5482 56.1848C58.5373 56.1984 58.5309 56.2151 58.53 56.2325Z" fill="#CDCDCD"/>
<path d="M70.461 56.1841H73.9013C73.9289 56.1839 73.9555 56.1941 73.9759 56.2126C73.9963 56.2311 74.0091 56.2566 74.0116 56.284L74.0978 57.3699C74.0993 57.3852 74.0975 57.4007 74.0926 57.4153C74.0877 57.4299 74.0798 57.4433 74.0694 57.4547C74.059 57.4661 74.0464 57.4751 74.0323 57.4813C74.0182 57.4875 74.0029 57.4906 73.9875 57.4906L70.4472 57.4768C70.418 57.4768 70.3899 57.4884 70.3692 57.5091C70.3485 57.5298 70.3369 57.5578 70.3369 57.5871V59.4348C70.3369 59.4641 70.3485 59.4921 70.3692 59.5128C70.3899 59.5335 70.418 59.5451 70.4472 59.5451H74.3943C74.4094 59.5451 74.4243 59.5481 74.4382 59.5541C74.452 59.5601 74.4645 59.5688 74.4748 59.5798C74.4852 59.5908 74.4931 59.6038 74.4983 59.618C74.5034 59.6322 74.5055 59.6473 74.5046 59.6623L74.4563 60.6482C74.4546 60.6763 74.4422 60.7026 74.4217 60.7218C74.4012 60.741 74.3741 60.7517 74.346 60.7516H68.896C68.8667 60.7516 68.8386 60.74 68.818 60.7193C68.7973 60.6986 68.7856 60.6706 68.7856 60.6413V53.4194C68.7856 53.3901 68.7973 53.3621 68.818 53.3414C68.8386 53.3207 68.8667 53.3091 68.896 53.3091L74.3047 53.3539C74.3201 53.3538 74.3353 53.357 74.3494 53.3632C74.3635 53.3693 74.3762 53.3784 74.3866 53.3898C74.3969 53.4011 74.4048 53.4145 74.4097 53.4292C74.4146 53.4438 74.4164 53.4592 74.415 53.4745L74.3219 54.4329C74.3193 54.4603 74.3066 54.4858 74.2861 54.5043C74.2657 54.5228 74.2391 54.533 74.2116 54.5328L70.4196 54.5191C70.4049 54.519 70.3902 54.522 70.3766 54.5278C70.363 54.5335 70.3507 54.542 70.3404 54.5526C70.3301 54.5632 70.322 54.5758 70.3167 54.5895C70.3114 54.6033 70.3089 54.618 70.3093 54.6328L70.3507 56.0772C70.3516 56.1059 70.3636 56.133 70.3842 56.153C70.4048 56.1729 70.4323 56.1841 70.461 56.1841Z" fill="#CDCDCD"/>
<circle cx="11" cy="27" r="3" fill="#CDCDCD"/>
<circle cx="11" cy="73" r="3" fill="#CDCDCD"/>
<circle cx="89" cy="27" r="3" fill="#CDCDCD"/>
<circle cx="89" cy="73" r="3" fill="#CDCDCD"/>
</svg>
