<svg width="100" height="100" viewBox="0 0 100 100" fill="none" xmlns="http://www.w3.org/2000/svg">
<rect width="100" height="100" fill="#595C62"/>
<path d="M21.8975 58V40.8203H25.3662V48.4492L32.3741 40.8203H37.0381L30.5694 47.5117L37.3897 58H32.9014L28.1787 49.9375L25.3662 52.8086V58H21.8975ZM39.5544 58V40.8203H45.1208C47.2302 40.8203 48.6052 40.9062 49.2458 41.0781C50.2302 41.3359 51.0544 41.8984 51.7184 42.7656C52.3825 43.625 52.7145 44.7383 52.7145 46.1055C52.7145 47.1602 52.5231 48.0469 52.1403 48.7656C51.7575 49.4844 51.2692 50.0508 50.6755 50.4648C50.0895 50.8711 49.4919 51.1406 48.8825 51.2734C48.0544 51.4375 46.8552 51.5195 45.2848 51.5195H43.0231V58H39.5544ZM43.0231 43.7266V48.6016H44.9216C46.2887 48.6016 47.2028 48.5117 47.6637 48.332C48.1247 48.1523 48.4841 47.8711 48.7419 47.4883C49.0075 47.1055 49.1403 46.6602 49.1403 46.1523C49.1403 45.5273 48.9567 45.0117 48.5895 44.6055C48.2223 44.1992 47.7575 43.9453 47.195 43.8438C46.7809 43.7656 45.9489 43.7266 44.6989 43.7266H43.0231ZM63.9144 51.6836V48.7891H71.3909V55.6328C70.6644 56.3359 69.6097 56.957 68.2269 57.4961C66.8519 58.0273 65.4573 58.293 64.0433 58.293C62.2464 58.293 60.68 57.918 59.3441 57.168C58.0081 56.4102 57.0042 55.332 56.3323 53.9336C55.6605 52.5273 55.3245 51 55.3245 49.3516C55.3245 47.5625 55.6995 45.9727 56.4495 44.582C57.1995 43.1914 58.2972 42.125 59.7425 41.3828C60.8441 40.8125 62.2152 40.5273 63.8558 40.5273C65.9886 40.5273 67.6527 40.9766 68.848 41.875C70.0511 42.7656 70.8245 44 71.1683 45.5781L67.723 46.2227C67.4808 45.3789 67.0238 44.7148 66.3519 44.2305C65.6878 43.7383 64.8558 43.4922 63.8558 43.4922C62.3402 43.4922 61.1331 43.9727 60.2347 44.9336C59.3441 45.8945 58.8988 47.3203 58.8988 49.2109C58.8988 51.25 59.3519 52.7812 60.2581 53.8047C61.1644 54.8203 62.3519 55.3281 63.8206 55.3281C64.5472 55.3281 65.2738 55.1875 66.0003 54.9062C66.7347 54.6172 67.3636 54.2695 67.887 53.8633V51.6836H63.9144ZM74.8564 58V40.8203H78.3252V58H74.8564Z" fill="#F8F8F8"/>
</svg>
