<svg width="100" height="100" viewBox="0 0 100 100" fill="none" xmlns="http://www.w3.org/2000/svg">
<rect width="100" height="100" fill="white"/>
<path d="M70.494 34.4913C68.0044 34.022 65.8327 34.5385 63.979 36.0405C63.7077 36.2606 63.1913 36.7504 62.4297 37.5099" stroke="#91873C" stroke-width="0.301415"/>
<path d="M62.4288 37.5095C55.4119 30.6885 44.6529 30.6644 37.5244 37.3362" stroke="#FFE980" stroke-width="0.301415"/>
<path d="M37.5241 37.3359C36.7464 36.5844 36.2536 36.0846 36.0456 35.8364C34.7119 34.2404 34.0005 31.8231 34.4542 29.7162C34.4738 29.6227 34.4466 29.5745 34.4059 29.4946" stroke="#9FB222" stroke-width="0.301415"/>
<path d="M37.5249 37.3362C30.4401 44.3817 30.3723 55.4467 37.5068 62.5013" stroke="#9FC9A2" stroke-width="0.301415"/>
<path d="M37.5068 62.502C36.8437 63.1063 36.1851 63.8613 35.522 64.33C33.8582 65.5106 31.9764 65.9411 29.8765 65.6216C29.8343 65.6156 29.7961 65.6256 29.762 65.6517L29.7002 65.7015" stroke="#976434" stroke-width="0.301415"/>
<path d="M62.4291 37.51C69.3541 44.5028 69.3043 55.3703 62.417 62.3511" stroke="#919EBB" stroke-width="0.301415"/>
<path d="M62.4172 62.3506C55.3807 69.2289 44.6458 69.1339 37.5068 62.5013" stroke="#F79A92" stroke-width="0.301415"/>
<path d="M38.3743 38.2605C31.7869 44.8328 31.7779 55.0583 38.3924 61.6036" stroke="#9FC9A2" stroke-width="0.301415"/>
<path d="M38.3926 61.6035C45.0086 67.8729 54.9252 67.7403 61.493 61.5085" stroke="#F79A92" stroke-width="0.301415"/>
<path d="M61.4932 61.5082C67.9238 55.0791 67.9977 44.7978 61.5143 38.3687" stroke="#919EBB" stroke-width="0.301415"/>
<path d="M61.5146 38.369C54.9754 32.0062 44.9594 32.0529 38.375 38.2605" stroke="#FFE980" stroke-width="0.301415"/>
<path d="M61.5143 38.3687L58.791 41.11" stroke="#91873C" stroke-width="0.301415"/>
<path d="M58.7905 41.1106L57.501 42.3654" stroke="#9C8F41" stroke-width="0.301415"/>
<path d="M57.5019 42.3655C56.7303 41.5437 55.8421 40.8836 54.8374 40.3852C54.8042 40.3682 54.7821 40.342 54.7711 40.3069C54.763 40.2797 54.7485 40.2612 54.7274 40.2511C51.7012 38.9239 48.7066 38.949 45.7437 40.3265C44.5893 40.863 43.6037 41.8335 42.6572 42.6549" stroke="#FFD731" stroke-width="0.301415"/>
<path d="M42.6567 42.6549L42.375 42.3943" stroke="#B3B92E" stroke-width="0.301415"/>
<path d="M42.3748 42.3944L38.375 38.2605" stroke="#9FB222" stroke-width="0.301415"/>
<path d="M58.6495 58.4853C58.5752 58.4471 58.5029 58.3803 58.4326 58.2849" stroke="#934053" stroke-width="0.301415"/>
<path d="M58.4314 58.2843L57.0049 56.8894" stroke="#96616A" stroke-width="0.301415"/>
<path d="M57.0052 56.8892C57.5357 56.7189 58.2093 56.4778 58.5348 55.9834C59.0573 55.1907 59.41 54.5914 59.5928 54.1855C59.6461 54.0659 59.7033 53.766 59.7646 53.2858C59.7676 53.2546 59.7827 53.2315 59.8098 53.2164L59.8671 53.1818C59.9133 53.1547 59.9399 53.114 59.947 53.0597C60.0344 52.3956 60.1082 51.7295 60.1685 51.0613C60.2077 50.6318 60.3494 49.922 60.3042 49.3146C60.3011 49.2704 60.2866 49.2302 60.2604 49.1941C59.8083 48.5626 60.1519 47.4428 59.9967 46.6667C59.9078 46.2251 59.9244 45.7881 59.7601 45.3601C59.7473 45.3266 59.7442 45.2896 59.7511 45.2531C59.8611 44.6834 59.6335 44.5779 59.2266 44.3488C59.2065 44.3368 59.1869 44.3338 59.1678 44.3398C59.1327 44.3508 59.0995 44.3473 59.0684 44.3292L58.5997 44.0519C58.5927 44.0479 58.5865 44.0417 58.5816 44.0338C58.2631 43.5606 57.9581 43.0794 57.6668 42.5901C57.6559 42.5721 57.6393 42.5583 57.6196 42.5509C57.5999 42.5435 57.5783 42.543 57.5583 42.5494C57.3453 42.6177 57.1458 42.7443 56.96 42.9292" stroke="#4B568A" stroke-width="0.301415"/>
<path d="M44.3812 44.3847C44.2888 44.3827 44.2014 44.3254 44.119 44.2129C44.0788 44.1576 44.0371 44.1566 43.9939 44.2099C41.8222 46.8713 41.5298 49.9111 42.6556 53.0805C42.832 53.5778 43.1997 54.0043 43.4438 54.4986C43.4629 54.5358 43.4916 54.5634 43.5297 54.5815C43.6774 54.6509 44.113 55.3833 44.3451 55.5883" stroke="#7EAB72" stroke-width="0.301415"/>
<path d="M44.3432 55.5891L42.1152 57.8487" stroke="#AD8B57" stroke-width="0.301415"/>
<path d="M42.3743 42.3946C42.2146 42.3484 42.1101 42.2871 42.0609 42.2108C42.0384 42.1759 42.0084 42.1467 41.9729 42.1252C41.9375 42.1037 41.8977 42.0906 41.8564 42.0868C41.8152 42.0831 41.7736 42.0887 41.7349 42.1034C41.6961 42.1181 41.6612 42.1414 41.6329 42.1716C40.2931 43.6018 39.737 45.029 39.1462 46.8767C38.7182 48.2195 38.7679 49.6572 38.8749 51.098C38.9307 51.8455 39.1477 52.4076 39.2652 53.1054C39.3004 53.3114 39.3737 53.547 39.4853 53.8122C40.1253 55.3454 40.9406 56.6219 41.9312 57.6417C41.9393 57.6497 41.9493 57.6537 41.9614 57.6537C41.9775 57.6537 41.994 57.6532 42.0111 57.6522C42.017 57.6518 42.0228 57.653 42.0281 57.6556C42.0333 57.6583 42.0378 57.6622 42.041 57.6671C42.0442 57.672 42.0461 57.6777 42.0464 57.6835C42.0467 57.6894 42.0454 57.6952 42.0428 57.7005L41.9945 57.8044C41.9835 57.8275 41.9905 57.8401 42.0156 57.8421L42.1151 57.8496" stroke="#539950" stroke-width="0.301415"/>
<path d="M42.1147 57.8496L41.7969 58.187" stroke="#99844B" stroke-width="0.301415"/>
<path d="M41.7971 58.1868L38.3926 61.6033" stroke="#976434" stroke-width="0.301415"/>
<path d="M61.4933 61.5088L61.4767 61.4229C61.4676 61.3747 61.4455 61.3325 61.4104 61.2963L58.6494 58.4856" stroke="#88394E" stroke-width="0.301415"/>
<path d="M58.6494 58.4849L59.195 58.9611C59.2332 58.9943 59.2759 59.0018 59.3231 58.9837C59.4798 58.9254 59.5858 58.8094 59.6411 58.6356C59.6431 58.6306 59.6456 58.6296 59.6486 58.6326C59.6617 58.6446 59.6747 58.6572 59.6878 58.6702C59.6938 58.6762 59.7014 58.6803 59.7097 58.6821C59.718 58.684 59.7266 58.6834 59.7344 58.6805C59.7423 58.6776 59.749 58.6726 59.7538 58.6659C59.7587 58.6593 59.7614 58.6514 59.7616 58.6431C59.7757 58.3598 59.8852 58.1297 60.0902 57.9529C60.1163 57.9308 60.1269 57.9031 60.1218 57.87L60.1068 57.7615C60.1017 57.7243 60.1073 57.6886 60.1233 57.6545C60.3042 57.2777 60.587 56.9984 60.9718 56.8166C61.0141 56.7968 61.0502 56.7655 61.0758 56.7261C61.2989 56.387 61.6364 56.1806 61.8098 55.8445C62.2197 55.0498 62.4005 54.1983 62.3523 53.29C62.3503 53.2428 62.3367 53.1986 62.3116 53.1574C62.2272 53.0137 62.1981 52.854 62.2242 52.6781C62.402 51.4468 62.7577 50.2261 62.7547 48.9783C62.7547 48.9279 62.7417 48.8791 62.717 48.8366C62.4819 48.4297 62.5301 47.9339 62.4412 47.5767C62.3558 47.2351 62.29 46.9065 62.2438 46.5911C62.2347 46.5328 62.2438 46.5298 62.2709 46.582L62.3327 46.6996C62.391 46.8121 62.4055 46.8071 62.3764 46.6845C62.2091 45.9747 61.87 44.9077 62.2438 44.234C62.286 44.1576 62.2644 44.1285 62.179 44.1466L62.1202 44.1586C62.1128 44.1603 62.1051 44.1595 62.0982 44.1564C62.0913 44.1532 62.0857 44.1479 62.0821 44.1413C62.0785 44.1346 62.0772 44.1269 62.0784 44.1195C62.0795 44.112 62.0831 44.1051 62.0886 44.0999L62.1398 44.0486C62.174 44.0155 62.189 43.9748 62.185 43.9266C62.0695 42.6265 61.3923 41.8001 60.1535 41.4474C60.1478 41.4461 60.1419 41.4465 60.1365 41.4485C60.1311 41.4505 60.1263 41.454 60.1228 41.4586C60.1193 41.4632 60.1173 41.4687 60.1168 41.4745C60.1164 41.4803 60.1176 41.486 60.1203 41.4911L60.149 41.5378C60.1761 41.5841 60.1665 41.5936 60.1203 41.5665L60.0826 41.5439C60.0605 41.5308 60.0475 41.5117 60.0435 41.4866L59.849 40.4422C59.835 40.3658 59.7968 40.3508 59.7345 40.397L58.7911 41.1098" stroke="#2D447D" stroke-width="0.301415"/>
<path d="M57.5008 42.366L56.96 42.9294" stroke="#9C9372" stroke-width="0.301415"/>
<path d="M56.9597 42.9294L56.2803 43.5441" stroke="#AE9E7A" stroke-width="0.301415"/>
<path d="M56.2809 43.544C55.3525 42.2434 53.9163 41.6602 52.4318 41.2322C51.2412 40.8901 50.0642 40.8961 48.8344 41.0197C48.2105 41.0815 47.6514 41.3814 47.0365 41.5698C46.9951 41.5826 46.9581 41.6066 46.9295 41.6391C46.7773 41.8169 46.5407 41.7958 46.3869 41.8712C46.0147 42.052 45.3712 42.575 45.02 42.6398C44.9678 42.6498 44.9216 42.6724 44.8814 42.7076L44.1942 43.321C44.164 43.3471 44.1304 43.3546 44.0932 43.3436C44.045 43.3305 44.0083 43.3481 43.9832 43.3963C43.8968 43.5591 43.8008 43.6581 43.6953 43.6932" stroke="#FFE17C" stroke-width="0.301415"/>
<path d="M43.6951 43.6927L42.6572 42.6548" stroke="#B3BD5E" stroke-width="0.301415"/>
<path d="M58.4319 58.2847C58.443 58.4274 58.4254 58.5138 58.3792 58.5439C58.1396 58.7037 57.9798 58.9207 57.7568 59.0729C57.172 59.4708 56.5798 59.8576 55.9799 60.2334C55.4675 60.5544 54.8858 60.7443 54.3191 60.9568C51.4015 62.0464 47.6941 61.8836 44.8924 60.3961C43.7561 59.7943 42.7242 59.0579 41.7969 58.1868" stroke="#F1563B" stroke-width="0.301415"/>
<path d="M57.0045 56.8888L55.5479 55.4788" stroke="#A86B72" stroke-width="0.301415"/>
<path d="M55.5479 55.4789C56.0191 55.1473 56.3456 54.7756 56.5274 54.3636C56.9715 53.3509 57.4116 52.3366 57.8476 51.3209C58.1897 50.5221 57.9562 49.1869 57.7964 48.3504C57.7391 48.0535 57.7813 47.6647 57.605 47.2849C57.5839 47.2397 57.599 47.1834 57.6502 47.1161C57.6639 47.0985 57.6717 47.077 57.6725 47.0546C57.6733 47.0322 57.6671 47.01 57.6547 46.991C57.1845 46.2506 56.763 45.4825 56.3903 44.6867C56.214 44.31 55.9668 44.2452 55.5765 44.2542" stroke="#7E80A7" stroke-width="0.301415"/>
<path d="M56.2806 43.5444L55.5771 44.2539" stroke="#AEA395" stroke-width="0.301415"/>
<path d="M55.5758 44.2539L53.7471 46.0254" stroke="#CFC3AA" stroke-width="0.301415"/>
<path d="M53.7472 46.0264C53.0469 45.4568 52.3692 45.0674 51.7141 44.8584C50.0594 44.3325 47.8138 44.8976 46.6458 46.2043C46.5926 46.2635 46.5604 46.3324 46.5494 46.4107C46.5474 46.4258 46.5117 46.4328 46.4424 46.4318" stroke="#FFECB3" stroke-width="0.301415"/>
<path d="M46.4419 46.4317L46.3018 46.3066" stroke="#E3DEAB" stroke-width="0.301415"/>
<path d="M46.3015 46.3059L44.3809 44.3853" stroke="#CACF90" stroke-width="0.301415"/>
<path d="M44.3807 44.3848L43.6953 43.6934" stroke="#B3C379" stroke-width="0.301415"/>
<path d="M46.3018 46.3067C46.1602 46.2615 46.0436 46.1696 45.9522 46.0309C45.9251 45.9897 45.8904 45.9827 45.8482 46.0098C45.5121 46.2298 45.3885 46.6337 45.1565 47.0572C44.0925 49.0059 44.3848 51.3298 45.6463 53.2106C45.7306 53.3372 45.9085 53.504 46.1798 53.7109" stroke="#AEC7A3" stroke-width="0.301415"/>
<path d="M46.1802 53.7107L45.1543 54.7848" stroke="#C7B48E" stroke-width="0.301415"/>
<path d="M45.1537 54.7854L44.3447 55.5883" stroke="#C4976D" stroke-width="0.301415"/>
<path d="M55.548 55.4787L55.1699 55.1021" stroke="#C98B87" stroke-width="0.301415"/>
<path d="M55.1695 55.1013L53.6104 53.5708" stroke="#CCA8A8" stroke-width="0.301415"/>
<path d="M53.6101 53.5707L53.1943 53.1323" stroke="#CDB7BC" stroke-width="0.301415"/>
<path d="M53.1943 53.1324C53.4023 53.3002 53.5862 53.2474 53.7459 52.9742C54.0624 52.4296 54.3714 51.8815 54.6728 51.3299C55.1385 50.4815 54.8672 49.4793 55.0028 48.5388C55.0099 48.4896 54.9963 48.4469 54.9621 48.4107C54.6004 48.0249 54.3035 47.6828 54.1649 47.1418C54.0805 46.8087 54.0398 46.2059 53.5168 46.2707" stroke="#BABACE" stroke-width="0.301415"/>
<path d="M53.5166 46.2709L53.7471 46.0269" stroke="#CFC9C6" stroke-width="0.301415"/>
<path d="M55.1703 55.1019C54.8578 55.4967 54.3655 55.8499 53.6934 56.1614C51.6046 57.1309 49.564 57.2243 47.5716 56.4417C46.9969 56.2156 46.5539 56.0056 46.2424 55.8117C45.8104 55.5435 45.4477 55.2014 45.1543 54.7854" stroke="#F69373" stroke-width="0.301415"/>
<path d="M53.5157 46.2705L51.8662 47.911" stroke="#EAE3D8" stroke-width="0.301415"/>
<path d="M51.8662 47.9117C50.5369 46.7683 49.2303 46.7693 47.9463 47.9147" stroke="#FFD200" stroke-width="0.301415"/>
<path d="M47.9458 47.9139L46.4424 46.4316" stroke="#E3E4C7" stroke-width="0.301415"/>
<path d="M47.946 47.915C47.0327 49.2292 47.1131 50.4811 48.1871 51.6707" stroke="#3F9244" stroke-width="0.301415"/>
<path d="M48.1867 51.6704L46.6924 53.2145" stroke="#E2D3BD" stroke-width="0.301415"/>
<path d="M46.6919 53.2148L46.1797 53.7105" stroke="#E0C3A9" stroke-width="0.301415"/>
<path d="M53.6098 53.5705C52.5358 54.4135 51.3432 54.8179 50.0321 54.7837C49.7382 54.7762 49.4835 54.6556 49.1791 54.6224C48.8535 54.5863 48.6405 54.5531 48.5401 54.523C47.7644 54.2829 47.1485 53.8468 46.6924 53.2148" stroke="#FBC0A7" stroke-width="0.301415"/>
<path d="M53.1934 53.1318L51.6357 51.657" stroke="#E9D2CE" stroke-width="0.301415"/>
<path d="M51.6357 51.6567C52.7249 50.4611 52.8017 49.2127 51.8663 47.9116" stroke="#223C77" stroke-width="0.301415"/>
<path d="M51.6357 51.657C50.5114 52.5582 49.3766 52.3909 48.1875 51.6705" stroke="#EE3524" stroke-width="0.301415"/>
<path d="M65.5155 70.3923C65.8581 68.2191 65.4894 66.2675 64.4093 64.5373C63.915 63.7461 63.1208 63.0318 62.417 62.3506" stroke="#88394E" stroke-width="0.301415"/>
<path d="M49.4691 17H50.2197C52.9776 17.2246 54.5178 18.7467 56.4454 20.7014C57.0392 21.3042 57.7611 21.8724 58.3548 22.4586C61.0987 25.1603 65.1447 29.1711 70.4928 34.4911C68.0031 34.0219 65.8314 34.5383 63.9777 36.0404C63.7065 36.2604 63.19 36.7502 62.4285 37.5098C55.4115 30.6887 44.6525 30.6646 37.5241 37.3364C36.7464 36.5849 36.2536 36.0851 36.0456 35.8369C34.7119 34.2409 34.0005 31.8236 34.4542 29.7167C34.4738 29.6232 34.4466 29.575 34.4059 29.4951C37.6281 26.2851 40.8638 23.0886 44.113 19.9056C45.7708 18.2825 47.0985 17.1869 49.4691 17Z" fill="#FFD200"/>
<path d="M34.4064 29.4946C34.4471 29.5745 34.4742 29.6227 34.4546 29.7162C34.001 31.8231 34.7123 34.2404 36.0461 35.8364C36.2541 36.0846 36.7469 36.5844 37.5245 37.3359C30.4398 44.3815 30.372 55.4464 37.5064 62.501C36.8433 63.1054 36.1847 63.8604 35.5216 64.3291C33.8578 65.5097 31.976 65.9402 29.8761 65.6207C29.8339 65.6146 29.7958 65.6247 29.7616 65.6508L29.6998 65.7005C26.4566 62.4232 23.2219 59.1377 19.9958 55.8443C19.5537 55.3942 19.1382 54.92 18.7494 54.4216C15.8227 50.669 16.7872 46.8275 20.0199 43.6611C24.8289 38.9515 29.6184 34.2253 34.4064 29.4946Z" fill="#3F9244"/>
<path d="M62.4293 37.5095C69.3543 44.5023 69.3045 55.3699 62.4172 62.3506C55.3807 69.2289 44.6458 69.1339 37.5068 62.5013C30.3723 55.4467 30.4401 44.3818 37.5249 37.3362C44.6534 30.6644 55.4123 30.6885 62.4293 37.5095ZM38.3749 38.2601C31.7875 44.8324 31.7784 55.0579 38.393 61.6031C45.009 67.8725 54.9256 67.7399 61.4934 61.5082C67.9241 55.079 67.9979 44.7977 61.5145 38.3686C54.9753 32.0057 44.9593 32.0524 38.3749 38.2601Z" fill="white"/>
<path d="M61.5146 38.369L58.7913 41.1104L57.5013 42.3658C56.7296 41.5439 55.8415 40.8839 54.8368 40.3855C54.8036 40.3684 54.7815 40.3423 54.7704 40.3071C54.7624 40.28 54.7478 40.2614 54.7267 40.2514C51.7005 38.9242 48.706 38.9493 45.7431 40.3267C44.5887 40.8633 43.603 41.8338 42.6566 42.6552L42.3748 42.3944L38.375 38.2605C44.9594 32.0529 54.9754 32.0062 61.5146 38.369Z" fill="#FFD200"/>
<path d="M70.4934 34.4913C73.6914 37.6641 76.918 40.8611 80.1733 44.0823C82.4535 46.3368 83.6306 48.9004 82.6555 52.115C82.226 53.5301 81.4619 54.4163 80.2954 55.5812C75.4265 60.438 70.5778 65.3159 65.7491 70.2149C65.7019 70.2621 65.624 70.3214 65.5155 70.3927C65.8581 68.2195 65.4894 66.2679 64.4093 64.5378C63.915 63.7466 63.1208 63.0322 62.417 62.351C69.3043 55.3702 69.3541 44.5027 62.4291 37.5099C63.1906 36.7504 63.7071 36.2606 63.9783 36.0405C65.832 34.5385 68.0037 34.022 70.4934 34.4913Z" fill="#223C77"/>
<path d="M38.3743 38.2605L42.3741 42.3944C42.2143 42.3482 42.1098 42.2869 42.0606 42.2105C42.0382 42.1757 42.0081 42.1465 41.9727 42.125C41.9373 42.1035 41.8974 42.0904 41.8562 42.0866C41.8149 42.0828 41.7733 42.0885 41.7346 42.1032C41.6959 42.1179 41.661 42.1412 41.6326 42.1714C40.2928 43.6016 39.7367 45.0288 39.1459 46.8764C38.7179 48.2192 38.7677 49.657 38.8747 51.0977C38.9304 51.8453 39.1474 52.4074 39.265 53.1052C39.3002 53.3111 39.3735 53.5467 39.485 53.812C40.125 55.3452 40.9403 56.6217 41.931 57.6415C41.939 57.6495 41.9491 57.6535 41.9611 57.6535C41.9772 57.6535 41.9938 57.653 42.0109 57.652C42.0167 57.6516 42.0226 57.6528 42.0278 57.6554C42.0331 57.658 42.0375 57.662 42.0407 57.6669C42.044 57.6718 42.0458 57.6775 42.0461 57.6833C42.0464 57.6892 42.0452 57.695 42.0425 57.7002L41.9943 57.8042C41.9832 57.8273 41.9903 57.8399 42.0154 57.8419L42.1149 57.8494L41.7969 58.187L38.3924 61.6036C31.7779 55.0583 31.7869 44.8328 38.3743 38.2605Z" fill="#3F9244"/>
<path d="M61.5134 38.3689C67.9968 44.7981 67.923 55.0793 61.4923 61.5085L61.4757 61.4226C61.4667 61.3744 61.4446 61.3322 61.4094 61.296L58.6484 58.4853L59.194 58.9615C59.2322 58.9947 59.2749 59.0022 59.3221 58.9841C59.4788 58.9259 59.5848 58.8098 59.6401 58.636C59.6421 58.631 59.6446 58.63 59.6476 58.633C59.6607 58.6451 59.6738 58.6576 59.6868 58.6707C59.6928 58.6766 59.7005 58.6807 59.7088 58.6826C59.717 58.6844 59.7256 58.6838 59.7335 58.681C59.7413 58.6781 59.748 58.673 59.7529 58.6664C59.7577 58.6597 59.7604 58.6518 59.7607 58.6436C59.7747 58.3602 59.8842 58.1301 60.0892 57.9533C60.1153 57.9312 60.1259 57.9036 60.1209 57.8704L60.1058 57.7619C60.1008 57.7247 60.1063 57.6891 60.1224 57.6549C60.3032 57.2781 60.586 56.9988 60.9708 56.817C61.0132 56.7973 61.0492 56.7659 61.0748 56.7266C61.2979 56.3875 61.6355 56.181 61.8088 55.8449C62.2187 55.0502 62.3995 54.1987 62.3513 53.2904C62.3493 53.2432 62.3357 53.199 62.3106 53.1578C62.2262 53.0141 62.1971 52.8544 62.2232 52.6786C62.4011 51.4473 62.7567 50.2265 62.7537 48.9787C62.7537 48.9284 62.7407 48.8795 62.716 48.837C62.4809 48.4301 62.5292 47.9343 62.4402 47.5771C62.3548 47.2355 62.289 46.907 62.2428 46.5915C62.2338 46.5332 62.2428 46.5302 62.2699 46.5824L62.3317 46.7C62.39 46.8125 62.4046 46.8075 62.3754 46.6849C62.2081 45.9751 61.8691 44.9081 62.2428 44.2344C62.285 44.1581 62.2634 44.1289 62.178 44.147L62.1192 44.1591C62.1119 44.1607 62.1041 44.1599 62.0972 44.1568C62.0904 44.1536 62.0847 44.1483 62.0811 44.1417C62.0775 44.135 62.0762 44.1274 62.0774 44.1199C62.0786 44.1124 62.0821 44.1055 62.0876 44.1003L62.1388 44.0491C62.173 44.0159 62.1881 43.9752 62.184 43.927C62.0685 42.6269 61.3913 41.8005 60.1525 41.4478C60.1469 41.4466 60.141 41.447 60.1355 41.4489C60.1301 41.4509 60.1254 41.4544 60.1219 41.459C60.1184 41.4636 60.1163 41.4692 60.1158 41.4749C60.1154 41.4807 60.1166 41.4865 60.1193 41.4916L60.148 41.5383C60.1751 41.5845 60.1656 41.594 60.1193 41.5669L60.0817 41.5443C60.0596 41.5312 60.0465 41.5121 60.0425 41.487L59.8481 40.4426C59.834 40.3663 59.7958 40.3512 59.7335 40.3974L58.7901 41.1103L61.5134 38.3689Z" fill="#223C77"/>
<path d="M57.5009 42.3655L56.9599 42.9292L56.2802 43.5441C55.3518 42.2435 53.9156 41.6602 52.4311 41.2322C51.2405 40.8901 50.0635 40.8961 48.8337 41.0197C48.2098 41.0815 47.6507 41.3814 47.0358 41.5698C46.9944 41.5826 46.9574 41.6066 46.9288 41.6391C46.7766 41.817 46.54 41.7959 46.3863 41.8712C46.014 42.0521 45.3705 42.575 45.0193 42.6398C44.9671 42.6499 44.9209 42.6725 44.8807 42.7076L44.1935 43.321C44.1633 43.3471 44.1297 43.3547 44.0925 43.3436C44.0443 43.3306 44.0076 43.3481 43.9825 43.3964C43.8961 43.5591 43.8001 43.6581 43.6946 43.6933L42.6562 42.6549C43.6027 41.8335 44.5883 40.863 45.7427 40.3265C48.7056 38.949 51.7002 38.9239 54.7264 40.2511C54.7475 40.2612 54.7621 40.2797 54.7701 40.3069C54.7812 40.342 54.8033 40.3682 54.8364 40.3852C55.8411 40.8836 56.7293 41.5437 57.5009 42.3655Z" fill="#FFD200"/>
<path d="M58.6494 58.4849C58.575 58.4467 58.5027 58.3799 58.4324 58.2844L57.0052 56.8889C57.5357 56.7186 58.2093 56.4775 58.5348 55.9831C59.0573 55.1904 59.41 54.5911 59.5928 54.1852C59.6461 54.0656 59.7033 53.7657 59.7646 53.2855C59.7676 53.2543 59.7827 53.2312 59.8098 53.2162L59.8671 53.1815C59.9133 53.1544 59.9399 53.1137 59.947 53.0594C60.0344 52.3953 60.1082 51.7292 60.1685 51.061C60.2077 50.6315 60.3494 49.9217 60.3042 49.3143C60.3011 49.2701 60.2866 49.2299 60.2604 49.1938C59.8083 48.5623 60.1519 47.4426 59.9967 46.6664C59.9078 46.2248 59.9244 45.7878 59.7601 45.3598C59.7473 45.3263 59.7442 45.2893 59.7511 45.2528C59.8611 44.6831 59.6335 44.5776 59.2266 44.3485C59.2065 44.3365 59.1869 44.3335 59.1678 44.3395C59.1327 44.3505 59.0995 44.347 59.0684 44.3289L58.5997 44.0516C58.5927 44.0476 58.5865 44.0414 58.5816 44.0336C58.2631 43.5603 57.9581 43.0791 57.6668 42.5898C57.6559 42.5718 57.6393 42.558 57.6196 42.5506C57.5999 42.5432 57.5783 42.5427 57.5583 42.5491C57.3453 42.6174 57.1458 42.744 56.96 42.9289L57.501 42.3652L58.791 41.1098L59.7345 40.397C59.7968 40.3508 59.835 40.3658 59.849 40.4422L60.0434 41.4866C60.0474 41.5117 60.0605 41.5308 60.0826 41.5439L60.1203 41.5665C60.1665 41.5936 60.1761 41.5841 60.1489 41.5378L60.1203 41.4911C60.1175 41.486 60.1163 41.4803 60.1168 41.4745C60.1172 41.4687 60.1193 41.4632 60.1228 41.4586C60.1263 41.454 60.1311 41.4505 60.1365 41.4485C60.1419 41.4465 60.1478 41.4461 60.1534 41.4474C61.3923 41.8001 62.0694 42.6265 62.185 43.9266C62.189 43.9748 62.1739 44.0155 62.1398 44.0486L62.0885 44.0999C62.0831 44.1051 62.0795 44.112 62.0783 44.1195C62.0772 44.1269 62.0785 44.1346 62.0821 44.1413C62.0857 44.1479 62.0913 44.1532 62.0982 44.1564C62.1051 44.1595 62.1128 44.1603 62.1202 44.1586L62.179 44.1466C62.2644 44.1285 62.286 44.1576 62.2438 44.234C61.87 44.9077 62.2091 45.9747 62.3764 46.6845C62.4055 46.8071 62.3909 46.8121 62.3327 46.6996L62.2709 46.582C62.2438 46.5298 62.2347 46.5328 62.2438 46.5911C62.29 46.9065 62.3558 47.2351 62.4412 47.5767C62.5301 47.9339 62.4819 48.4297 62.717 48.8366C62.7417 48.8791 62.7547 48.9279 62.7546 48.9783C62.7577 50.2261 62.402 51.4468 62.2242 52.6781C62.198 52.854 62.2272 53.0137 62.3116 53.1574C62.3367 53.1986 62.3503 53.2428 62.3523 53.29C62.4005 54.1983 62.2196 55.0498 61.8097 55.8445C61.6364 56.1806 61.2988 56.387 61.0758 56.7261C61.0501 56.7655 61.0141 56.7968 60.9718 56.8166C60.587 56.9984 60.3042 57.2777 60.1233 57.6545C60.1072 57.6886 60.1017 57.7243 60.1067 57.7615L60.1218 57.87C60.1268 57.9031 60.1163 57.9308 60.0901 57.9529C59.8852 58.1297 59.7757 58.3598 59.7616 58.6431C59.7614 58.6514 59.7586 58.6593 59.7538 58.6659C59.749 58.6726 59.7422 58.6777 59.7344 58.6805C59.7266 58.6834 59.718 58.684 59.7097 58.6821C59.7014 58.6803 59.6938 58.6762 59.6878 58.6702C59.6747 58.6572 59.6616 58.6446 59.6486 58.6326C59.6456 58.6296 59.643 58.6306 59.641 58.6356C59.5858 58.8094 59.4798 58.9254 59.3231 58.9837C59.2758 59.0018 59.2331 58.9943 59.1949 58.9611L58.6494 58.4849Z" fill="#223C77"/>
<path d="M56.2799 43.544L55.5761 44.2539L53.7465 46.0262C53.0462 45.4565 52.3685 45.0672 51.7135 44.8582C50.0587 44.3322 47.8132 44.8974 46.6452 46.204C46.5919 46.2633 46.5598 46.3321 46.5487 46.4105C46.5467 46.4256 46.5111 46.4326 46.4417 46.4316L46.3016 46.3065L44.3801 44.385L43.6943 43.6932C43.7998 43.6581 43.8958 43.5591 43.9822 43.3963C44.0073 43.3481 44.044 43.3305 44.0922 43.3436C44.1294 43.3547 44.163 43.3471 44.1932 43.321L44.8804 42.7076C44.9206 42.6724 44.9668 42.6498 45.019 42.6398C45.3702 42.575 46.0137 42.052 46.386 41.8712C46.5397 41.7958 46.7763 41.8169 46.9285 41.6391C46.9571 41.6066 46.9941 41.5826 47.0355 41.5698C47.6504 41.3814 48.2095 41.0815 48.8335 41.0197C50.0632 40.8961 51.2402 40.8901 52.4308 41.2322C53.9153 41.6602 55.3515 42.2434 56.2799 43.544Z" fill="#FFD200"/>
<path d="M42.3743 42.3946L42.6562 42.6553L43.6945 43.6937L44.3802 44.3855C44.2878 44.3835 44.2004 44.3262 44.118 44.2137C44.0778 44.1584 44.0361 44.1574 43.9929 44.2106C41.8212 46.8721 41.5289 49.9119 42.6546 53.0813C42.831 53.5786 43.1987 54.0051 43.4428 54.4994C43.4619 54.5366 43.4906 54.5642 43.5288 54.5823C43.6764 54.6516 44.112 55.3841 44.3441 55.589L42.1151 57.8496L42.0156 57.8421C41.9905 57.8401 41.9835 57.8275 41.9945 57.8044L42.0428 57.7005C42.0454 57.6952 42.0467 57.6894 42.0464 57.6835C42.0461 57.6777 42.0442 57.672 42.041 57.6671C42.0378 57.6622 42.0333 57.6583 42.0281 57.6556C42.0228 57.653 42.017 57.6518 42.0111 57.6522C41.994 57.6532 41.9775 57.6537 41.9614 57.6537C41.9493 57.6537 41.9393 57.6497 41.9312 57.6417C40.9406 56.6219 40.1253 55.3454 39.4853 53.8122C39.3737 53.547 39.3004 53.3114 39.2652 53.1054C39.1477 52.4076 38.9307 51.8455 38.8749 51.098C38.7679 49.6572 38.7182 48.2195 39.1462 46.8767C39.737 45.029 40.2931 43.6018 41.6329 42.1716C41.6612 42.1414 41.6961 42.1181 41.7349 42.1034C41.7736 42.0887 41.8152 42.0831 41.8564 42.0868C41.8977 42.0906 41.9375 42.1037 41.9729 42.1252C42.0084 42.1467 42.0384 42.1759 42.0609 42.2108C42.1101 42.2871 42.2146 42.3484 42.3743 42.3946Z" fill="#3F9244"/>
<path d="M57.0052 56.8892L55.5479 55.4786C56.0191 55.147 56.3456 54.7753 56.5274 54.3633C56.9715 53.3506 57.4116 52.3363 57.8476 51.3205C58.1897 50.5218 57.9562 49.1865 57.7964 48.3501C57.7391 48.0532 57.7813 47.6644 57.605 47.2846C57.5839 47.2394 57.599 47.1831 57.6502 47.1158C57.6639 47.0982 57.6717 47.0767 57.6725 47.0543C57.6733 47.0318 57.6671 47.0096 57.6547 46.9907C57.1845 46.2502 56.763 45.4821 56.3903 44.6864C56.214 44.3096 55.9668 44.2448 55.5765 44.2539L56.2803 43.544L56.96 42.9292C57.1459 42.7443 57.3453 42.6177 57.5583 42.5494C57.5783 42.543 57.5999 42.5435 57.6196 42.5509C57.6393 42.5583 57.6559 42.5721 57.6668 42.5901C57.9582 43.0794 58.2631 43.5606 58.5816 44.0338C58.5865 44.0417 58.5927 44.0479 58.5997 44.0519L59.0684 44.3292C59.0995 44.3473 59.1327 44.3508 59.1678 44.3398C59.1869 44.3338 59.2065 44.3368 59.2266 44.3488C59.6335 44.5779 59.8611 44.6834 59.7511 45.2531C59.7442 45.2896 59.7473 45.3266 59.7601 45.3601C59.9244 45.7881 59.9078 46.2251 59.9967 46.6667C60.152 47.4428 59.8083 48.5626 60.2605 49.1941C60.2866 49.2302 60.3012 49.2704 60.3042 49.3146C60.3494 49.922 60.2077 50.6318 60.1685 51.0613C60.1083 51.7295 60.0344 52.3956 59.947 53.0597C59.94 53.114 59.9133 53.1547 59.8671 53.1818L59.8098 53.2164C59.7827 53.2315 59.7677 53.2546 59.7646 53.2858C59.7034 53.766 59.6461 54.0659 59.5928 54.1855C59.41 54.5914 59.0573 55.1907 58.5349 55.9834C58.2093 56.4778 57.5357 56.7189 57.0052 56.8892Z" fill="#223C77"/>
<path d="M44.3802 44.3847L46.3018 46.3062C46.1601 46.261 46.0436 46.169 45.9521 46.0304C45.925 45.9892 45.8903 45.9822 45.8481 46.0093C45.5121 46.2293 45.3885 46.6332 45.1564 47.0567C44.0924 49.0054 44.3848 51.3293 45.6462 53.2101C45.7306 53.3367 45.9084 53.5035 46.1797 53.7104L45.1534 54.785L44.3441 55.5883C44.112 55.3833 43.6765 54.6509 43.5288 54.5815C43.4906 54.5634 43.4619 54.5358 43.4429 54.4986C43.1987 54.0043 42.831 53.5778 42.6546 53.0805C41.5289 49.9111 41.8212 46.8713 43.9929 44.2099C44.0361 44.1566 44.0778 44.1576 44.118 44.2129C44.2004 44.3254 44.2878 44.3827 44.3802 44.3847Z" fill="#3F9244"/>
<path d="M55.576 44.2542C55.9664 44.2452 56.2135 44.31 56.3899 44.6867C56.7626 45.4825 57.1841 46.2506 57.6543 46.991C57.6666 47.01 57.6729 47.0322 57.672 47.0546C57.6712 47.077 57.6634 47.0985 57.6498 47.1161C57.5985 47.1834 57.5835 47.2397 57.6046 47.2849C57.7809 47.6647 57.7387 48.0535 57.796 48.3504C57.9557 49.1869 58.1893 50.5221 57.8472 51.3209C57.4111 52.3366 56.9711 53.3509 56.527 54.3636C56.3452 54.7756 56.0186 55.1473 55.5474 55.4789L55.1691 55.1021L53.6093 53.5709L53.1934 53.1324C53.4013 53.3002 53.5852 53.2474 53.7449 52.9741C54.0614 52.4296 54.3704 51.8815 54.6718 51.3299C55.1375 50.4814 54.8662 49.4792 55.0018 48.5388C55.0089 48.4896 54.9953 48.4469 54.9612 48.4107C54.5995 48.0249 54.3026 47.6828 54.1639 47.1418C54.0795 46.8087 54.0388 46.2059 53.5159 46.2707L53.7465 46.0265L55.576 44.2542Z" fill="#223C77"/>
<path d="M53.7472 46.0264L53.5166 46.2706L51.8663 47.9118C50.5371 46.7684 49.2305 46.7694 47.9464 47.9148L46.4424 46.4318C46.5117 46.4328 46.5474 46.4258 46.5494 46.4107C46.5604 46.3324 46.5926 46.2635 46.6458 46.2043C47.8138 44.8976 50.0594 44.3325 51.7141 44.8584C52.3692 45.0674 53.0469 45.4568 53.7472 46.0264Z" fill="#FFD200"/>
<path d="M46.3018 46.3067L46.442 46.4318L47.946 47.9147C47.0328 49.2289 47.1131 50.4808 48.1872 51.6704L46.6922 53.2151L46.1798 53.7109C45.9085 53.504 45.7306 53.3372 45.6463 53.2106C44.3848 51.3298 44.0925 49.0059 45.1565 47.0572C45.3885 46.6337 45.5121 46.2298 45.8482 46.0098C45.8904 45.9827 45.9251 45.9897 45.9522 46.0309C46.0436 46.1696 46.1602 46.2615 46.3018 46.3067Z" fill="#3F9244"/>
<path d="M53.5166 46.2707C54.0395 46.2059 54.0802 46.8087 54.1646 47.1418C54.3033 47.6828 54.6002 48.0249 54.9619 48.4107C54.996 48.4469 55.0096 48.4896 55.0025 48.5388C54.8669 49.4793 55.1382 50.4815 54.6725 51.3299C54.3711 51.8815 54.0621 52.4296 53.7456 52.9742C53.5859 53.2474 53.402 53.3002 53.1941 53.1324L51.6357 51.657C52.7249 50.4614 52.8017 49.213 51.8663 47.9119L53.5166 46.2707Z" fill="#223C77"/>
<path d="M51.6356 51.657L53.1939 53.1324L53.6098 53.571C52.5358 54.4139 51.3432 54.8183 50.0321 54.7842C49.7382 54.7766 49.4835 54.6561 49.1791 54.6229C48.8535 54.5867 48.6405 54.5536 48.5401 54.5234C47.7644 54.2833 47.1485 53.8473 46.6924 53.2153L48.1874 51.6705C49.3765 52.3909 50.5113 52.5582 51.6356 51.657Z" fill="#EE3524"/>
<path d="M46.692 53.2153C47.1482 53.8473 47.7641 54.2833 48.5397 54.5235C48.6402 54.5536 48.8532 54.5868 49.1787 54.6229C49.4831 54.6561 49.7378 54.7767 50.0317 54.7842C51.3429 54.8184 52.5355 54.414 53.6095 53.571L55.1693 55.1022C54.8569 55.497 54.3646 55.8502 53.6924 56.1617C51.6036 57.1312 49.563 57.2246 47.5707 56.442C46.996 56.2159 46.5529 56.0059 46.2414 55.812C45.8094 55.5438 45.4467 55.2017 45.1533 54.7857L46.1796 53.7112L46.692 53.2153Z" fill="#EE3524"/>
<path d="M45.1531 54.7854C45.4465 55.2014 45.8092 55.5435 46.2412 55.8117C46.5527 56.0056 46.9958 56.2156 47.5705 56.4417C49.5628 57.2243 51.6034 57.1309 53.6922 56.1614C54.3644 55.8499 54.8567 55.4967 55.1691 55.1019L55.5474 55.4787L57.0048 56.8893L58.4319 58.2848C58.443 58.4275 58.4254 58.5139 58.3792 58.544C58.1396 58.7038 57.9798 58.9208 57.7568 59.073C57.172 59.4709 56.5798 59.8577 55.9799 60.2335C55.4675 60.5545 54.8858 60.7444 54.3191 60.9569C51.4015 62.0465 47.6941 61.8837 44.8924 60.3962C43.7561 59.7944 42.7242 59.058 41.7969 58.1869L42.1149 57.8493L44.3438 55.5887L45.1531 54.7854Z" fill="#EE3524"/>
<path d="M41.7971 58.1868C42.7244 59.0579 43.7563 59.7943 44.8926 60.3961C47.6942 61.8836 51.4016 62.0464 54.3193 60.9568C54.886 60.7443 55.4677 60.5544 55.9801 60.2334C56.5799 59.8576 57.1722 59.4708 57.757 59.0729C57.98 58.9207 58.1398 58.7037 58.3794 58.5439C58.4256 58.5138 58.4432 58.4274 58.4321 58.2847C58.5025 58.3802 58.5748 58.447 58.6491 58.4852L61.4101 61.2959C61.4453 61.332 61.4674 61.3742 61.4764 61.4225L61.493 61.5084C54.9252 67.7401 45.0086 67.8727 38.3926 61.6033L41.7971 58.1868Z" fill="#EE3524"/>
<path d="M62.4172 62.3506C63.121 63.0318 63.9153 63.7461 64.4096 64.5373C65.4897 66.2675 65.8584 68.2191 65.5158 70.3923C65.3158 70.6445 65.0812 70.8957 64.812 71.1459C61.5597 74.1721 58.4567 77.4138 55.3114 80.5545C53.9385 81.9244 52.6439 82.6584 50.7691 82.8588H49.6734C47.4641 82.676 45.5626 81.7677 43.9692 80.134C40.1894 76.2599 35.4331 71.4488 29.7002 65.7008L29.762 65.6511C29.7961 65.625 29.8343 65.6149 29.8765 65.6209C31.9764 65.9404 33.8582 65.5099 35.522 64.3294C36.1851 63.8607 36.8437 63.1056 37.5068 62.5013C44.6458 69.1339 55.3807 69.2289 62.4172 62.3506Z" fill="#EE3524"/>
<g filter="url(#filter0_f_74_4157)">
<path d="M54.36 46.2846C56.367 49.1029 56.2021 51.807 53.8653 54.3969C51.453 56.3491 49.0181 55.9867 46.4668 54.4263C44.1623 51.8495 43.9899 49.1378 45.9494 46.2911C48.7045 43.8101 51.508 43.8079 54.36 46.2846Z" fill="white"/>
</g>
<g filter="url(#filter1_f_74_4157)">
<path d="M54.36 46.2846C56.367 49.1029 56.2021 51.807 53.8653 54.3969C51.453 56.3491 49.0181 55.9867 46.4668 54.4263C44.1623 51.8495 43.9899 49.1378 45.9494 46.2911C48.7045 43.8101 51.508 43.8079 54.36 46.2846Z" fill="white"/>
</g>
<defs>
<filter id="filter0_f_74_4157" x="39.6253" y="39.4554" width="21.099" height="21.2497" filterUnits="userSpaceOnUse" color-interpolation-filters="sRGB">
<feFlood flood-opacity="0" result="BackgroundImageFix"/>
<feBlend mode="normal" in="SourceGraphic" in2="BackgroundImageFix" result="shape"/>
<feGaussianBlur stdDeviation="2.48667" result="effect1_foregroundBlur_74_4157"/>
</filter>
<filter id="filter1_f_74_4157" x="37.6661" y="37.4962" width="25.0174" height="25.168" filterUnits="userSpaceOnUse" color-interpolation-filters="sRGB">
<feFlood flood-opacity="0" result="BackgroundImageFix"/>
<feBlend mode="normal" in="SourceGraphic" in2="BackgroundImageFix" result="shape"/>
<feGaussianBlur stdDeviation="3.46627" result="effect1_foregroundBlur_74_4157"/>
</filter>
</defs>
</svg>
