<svg width="100" height="100" viewBox="0 0 100 100" fill="none" xmlns="http://www.w3.org/2000/svg">
<rect width="100" height="100" fill="white"/>
<path d="M77.2517 72.67L81.2267 74.485C81.2847 74.512 81.3485 74.524 81.4124 74.52C81.4763 74.516 81.5385 74.4961 81.5933 74.462C81.6481 74.4279 81.694 74.3807 81.7268 74.3246C81.7597 74.2684 81.7785 74.205 81.7817 74.14C82.1217 65.37 82.4317 56.5575 82.7117 47.7025C82.7717 45.6925 82.7492 44.3525 82.6442 43.6825C82.6292 43.6075 82.6592 43.5825 82.7342 43.6075C82.8092 43.6325 82.8842 43.6575 82.9592 43.6825C83.0492 43.7125 83.0942 43.7725 83.0942 43.8625L83.8367 76.1425C83.8419 76.3015 83.9062 76.4516 84.0167 76.5625C90.1442 82.7875 74.5292 86.8975 71.1242 87.5949C56.3441 90.6349 41.6266 90.53 26.9715 87.28C22.959 86.3875 16.614 84.37 14.5964 80.5225C13.6289 78.6925 15.5564 76.7575 16.6214 75.475C16.8064 75.255 16.9015 75 16.9065 74.71L17.4315 35.47C17.4365 35.23 17.3465 35.03 17.1615 34.87C12.7739 31.03 13.0814 29.71 17.2889 25.915C17.484 25.74 17.5815 25.52 17.5815 25.255L17.6265 10.255C17.6315 9.915 17.6465 9.915 17.6715 10.255C18.0815 15.07 18.3015 19.89 18.3315 24.715C18.332 24.7727 18.3466 24.8294 18.3742 24.8801C18.4017 24.9308 18.4413 24.974 18.4895 25.0059C18.5376 25.0377 18.5928 25.0572 18.6503 25.0628C18.7077 25.0683 18.7656 25.0596 18.819 25.0375C35.1765 18.22 57.4966 18.6775 74.9417 23.2825C75.1867 23.3475 75.3167 23.255 75.3317 23.005L76.0742 10.255C76.0792 10.16 76.1092 10.1125 76.1642 10.1125C76.1792 10.1125 76.1917 10.1125 76.2017 10.1125C76.2967 10.1125 76.3442 10.1125 76.3442 10.1125L76.4417 23.4025C76.4413 23.5522 76.489 23.6983 76.578 23.8197C76.667 23.9411 76.7926 24.0313 76.9367 24.0775C78.5517 24.5875 80.0692 25.3475 81.4892 26.3575C88.4867 31.3225 80.9717 35.065 76.9442 36.82C76.6892 36.935 76.5642 37.13 76.5692 37.405L76.9892 72.2725C76.9942 72.4575 77.0817 72.59 77.2517 72.67ZM71.4692 38.29L75.2342 36.1675C75.4692 36.0375 75.5842 35.84 75.5792 35.575L75.5042 26.665C75.5041 26.5903 75.4831 26.5167 75.4435 26.452C75.4039 26.3873 75.3471 26.3339 75.2792 26.2975C62.3116 19.225 41.6716 20.7025 28.254 24.3925C24.6765 25.375 15.3089 29.215 20.499 34.12C22.409 35.925 24.3515 37.1975 26.3265 37.9375C26.358 37.9488 26.387 37.9662 26.4118 37.9888C26.4366 38.0113 26.4567 38.0385 26.4709 38.0688C26.4852 38.0991 26.4934 38.1319 26.495 38.1653C26.4966 38.1988 26.4916 38.2322 26.4802 38.2637C26.4689 38.2953 26.4515 38.3242 26.429 38.349C26.4064 38.3738 26.3792 38.3939 26.349 38.4082C26.3187 38.4225 26.2859 38.4306 26.2524 38.4322C26.2189 38.4338 26.1855 38.4288 26.154 38.4175L18.9765 35.815C18.9108 35.7922 18.8406 35.7855 18.7719 35.7954C18.7031 35.8054 18.6377 35.8316 18.5811 35.872C18.5246 35.9124 18.4785 35.9658 18.4468 36.0276C18.4151 36.0895 18.3987 36.158 18.399 36.2275L18.8715 73.555C18.8765 73.845 19.024 73.9825 19.314 73.9675C21.024 73.8775 21.9015 73.03 21.879 71.215C21.804 63.09 21.889 54.86 22.134 46.525C22.154 45.845 22.279 45.825 22.509 46.465C22.539 46.55 22.514 46.755 22.434 47.08C22.379 47.3 22.354 47.5075 22.359 47.7025C22.559 55.8325 22.779 63.9725 23.019 72.1225C23.029 72.3825 23.1565 72.4775 23.4015 72.4075C24.5865 72.085 26.5065 71.2525 26.9415 71.395C27.2065 71.48 27.214 71.5875 26.964 71.7175L23.1915 73.72C23.0065 73.815 22.9165 73.9675 22.9215 74.1775L23.0865 82.9825C23.0915 83.2725 23.2265 83.48 23.4915 83.605C37.194 89.8675 60.5116 90.07 74.2892 84.4225C74.4322 84.3641 74.5553 84.265 74.6432 84.1371C74.7311 84.0093 74.7801 83.8582 74.7842 83.7025L74.9792 73.0375C74.9788 72.9529 74.9538 72.8702 74.9072 72.7996C74.8606 72.729 74.7944 72.6735 74.7167 72.64L72.8792 71.8825C72.8455 71.8697 72.8145 71.8504 72.7879 71.8256C72.7613 71.8008 72.7397 71.771 72.7243 71.738C72.6931 71.6713 72.689 71.5952 72.7128 71.5266C72.7367 71.458 72.7866 71.4024 72.8516 71.3721C72.9165 71.3418 72.9912 71.3392 73.0592 71.365L74.5067 71.8C74.8467 71.9 75.0192 71.7725 75.0242 71.4175L75.5117 37.9525C75.5167 37.6275 75.3642 37.51 75.0542 37.6L71.5892 38.5825C71.5504 38.5984 71.5069 38.5983 71.4682 38.5821C71.4295 38.5659 71.3988 38.535 71.3829 38.4962C71.367 38.4574 71.3672 38.4139 71.3833 38.3752C71.3995 38.3366 71.4304 38.3059 71.4692 38.29ZM77.3717 27.3475C77.3086 27.2549 77.2173 27.1853 77.1112 27.149C77.0052 27.1128 76.8903 27.112 76.7838 27.1466C76.6773 27.1813 76.5849 27.2496 76.5205 27.3413C76.4561 27.4329 76.4232 27.543 76.4267 27.655L76.6667 34.525C76.671 34.6362 76.7111 34.7431 76.781 34.8297C76.8509 34.9163 76.9468 34.9781 77.0546 35.0059C77.1624 35.0337 77.2763 35.026 77.3793 34.984C77.4824 34.9419 77.5691 34.8677 77.6267 34.7725L79.7042 31.2625C79.7562 31.1773 79.7825 31.0788 79.7798 30.979C79.7772 30.8792 79.7457 30.7823 79.6892 30.7L77.3717 27.3475ZM78.2942 74.86C78.2046 74.7275 78.0746 74.6274 77.9236 74.5748C77.7726 74.5221 77.6086 74.5196 77.4561 74.5676C77.3035 74.6157 77.1706 74.7117 77.077 74.8414C76.9834 74.9711 76.9342 75.1275 76.9367 75.2875L77.0342 81.955C77.0373 82.1138 77.0913 82.2675 77.1882 82.3933C77.2851 82.5192 77.4198 82.6107 77.5726 82.6544C77.7253 82.698 77.8881 82.6915 78.0369 82.6358C78.1856 82.5801 78.3127 82.4782 78.3992 82.345L80.5517 78.9775C80.6306 78.8554 80.6719 78.7129 80.6706 78.5676C80.6693 78.4223 80.6253 78.2805 80.5442 78.16L78.2942 74.86ZM21.6315 81.7825L21.8715 75.295C21.8725 75.2825 21.871 75.27 21.8669 75.2582C21.8628 75.2464 21.8564 75.2356 21.8479 75.2264C21.8395 75.2172 21.8292 75.2099 21.8177 75.205C21.8063 75.2 21.794 75.1974 21.7815 75.1975C21.2058 75.1781 20.6417 75.4989 20.2128 76.0894C19.784 76.68 19.5255 77.492 19.494 78.3475L19.4865 78.5575C19.4541 79.4132 19.6516 80.2428 20.0355 80.8643C20.4194 81.4859 20.9583 81.8484 21.534 81.8725C21.5464 81.8735 21.5589 81.8719 21.5707 81.8679C21.5825 81.8638 21.5934 81.8574 21.6025 81.8489C21.6117 81.8404 21.619 81.8302 21.624 81.8187C21.629 81.8073 21.6315 81.7949 21.6315 81.7825Z" fill="#019EE3"/>
<path d="M48.6993 25.5175C53.6043 30.4925 57.8668 35.975 61.4868 41.965C61.5344 42.0433 61.5639 42.1313 61.5732 42.2224C61.5824 42.3136 61.5712 42.4057 61.5403 42.4919C61.5094 42.5782 61.4596 42.6565 61.3945 42.721C61.3295 42.7856 61.2508 42.8348 61.1643 42.865L52.0518 46.015C51.7468 46.12 51.5718 46.0125 51.5268 45.6925C50.6268 38.9725 49.3968 32.515 48.1968 25.7725C48.0868 25.1475 48.2543 25.0625 48.6993 25.5175ZM52.8468 44.2525C52.8521 44.3104 52.8708 44.3663 52.9014 44.4157C52.932 44.4651 52.9737 44.5068 53.0232 44.5373C53.0726 44.5679 53.1285 44.5865 53.1864 44.5917C53.2443 44.597 53.3026 44.5887 53.3568 44.5675L59.1018 42.3625C59.1551 42.3415 59.2029 42.3085 59.2414 42.2661C59.28 42.2237 59.3083 42.173 59.3242 42.118C59.3402 42.063 59.3433 42.005 59.3333 41.9486C59.3234 41.8922 59.3006 41.8388 59.2668 41.7925L52.4793 32.695C52.4307 32.6294 52.362 32.5815 52.2837 32.5584C52.2054 32.5354 52.1218 32.5386 52.0454 32.5674C51.9691 32.5962 51.9042 32.6492 51.8607 32.7183C51.8172 32.7873 51.7974 32.8687 51.8043 32.95L52.8468 44.2525Z" fill="#EF331B"/>
<path d="M63.6696 31.5176L67.2246 39.9026C67.2389 39.9343 67.2456 39.9689 67.2443 40.0037C67.2429 40.0385 67.2335 40.0725 67.2168 40.103C67.2001 40.1336 67.1765 40.1598 67.1479 40.1797C67.1193 40.1995 67.0865 40.2125 67.0521 40.2176L63.7671 40.6301C63.7357 40.6343 63.7039 40.6319 63.6735 40.6229C63.6432 40.614 63.6151 40.5988 63.591 40.5783C63.5669 40.5578 63.5475 40.5324 63.5339 40.5038C63.5203 40.4753 63.5129 40.4442 63.5121 40.4126L63.2346 31.6076C63.2323 31.5542 63.249 31.5017 63.2819 31.4596C63.3147 31.4174 63.3615 31.3883 63.4138 31.3775C63.4661 31.3666 63.5206 31.3748 63.5675 31.4005C63.6143 31.4261 63.6505 31.4677 63.6696 31.5176Z" fill="#EF331B"/>
<path d="M52.8466 44.2525L51.8041 32.95C51.7972 32.8687 51.817 32.7873 51.8605 32.7183C51.904 32.6492 51.9689 32.5963 52.0452 32.5674C52.1216 32.5386 52.2052 32.5354 52.2836 32.5585C52.3619 32.5815 52.4305 32.6294 52.4791 32.695L59.2666 41.7925C59.3004 41.8388 59.3232 41.8922 59.3331 41.9486C59.3431 42.005 59.34 42.063 59.324 42.118C59.3081 42.1731 59.2798 42.2237 59.2412 42.2661C59.2027 42.3085 59.1549 42.3415 59.1016 42.3625L53.3566 44.5675C53.3025 44.5887 53.2441 44.597 53.1862 44.5917C53.1283 44.5865 53.0724 44.5679 53.023 44.5373C52.9735 44.5068 52.9318 44.4651 52.9012 44.4157C52.8706 44.3663 52.8519 44.3104 52.8466 44.2525Z" fill="#FFEC01"/>
<path d="M34.0215 36.0551C34.7015 35.2951 34.9115 35.4076 34.6515 36.3926C32.9165 42.9626 33.159 49.4326 35.379 55.8026C35.4045 55.8764 35.4147 55.9546 35.4091 56.0324C35.4036 56.1103 35.3823 56.1862 35.3465 56.2556C35.3107 56.325 35.2613 56.3865 35.2011 56.4362C35.141 56.486 35.0713 56.523 34.9965 56.5451L25.8089 59.3201C25.7438 59.3388 25.6753 59.3423 25.6087 59.3304C25.5421 59.3185 25.4794 59.2914 25.4255 59.2513C25.3716 59.2113 25.328 59.1593 25.2982 59.0996C25.2684 59.04 25.2533 58.9742 25.2539 58.9076C25.2839 50.1426 28.2064 42.5251 34.0215 36.0551ZM30.8864 44.5376C28.3414 47.9326 26.8839 51.7426 26.5139 55.9676C26.5055 56.0607 26.5187 56.1545 26.5525 56.2417C26.5863 56.3288 26.6397 56.407 26.7087 56.4702C26.7776 56.5333 26.8602 56.5797 26.95 56.6057C27.0398 56.6317 27.1344 56.6366 27.2264 56.6201L33.264 55.5326C33.3114 55.5248 33.3566 55.5064 33.3961 55.4789C33.4357 55.4513 33.4688 55.4152 33.4931 55.373C33.5174 55.3309 33.5323 55.2837 33.5368 55.2348C33.5412 55.1859 33.5352 55.1365 33.519 55.0901C32.3239 51.7601 31.689 48.3201 31.614 44.7701C31.594 43.9951 31.3514 43.9176 30.8864 44.5376Z" fill="#EF331B"/>
<path d="M36.4447 44.3801L40.6373 38.8751C40.6734 38.8286 40.7242 38.7957 40.7813 38.7816C40.8385 38.7675 40.8987 38.773 40.9524 38.7972C41.006 38.8214 41.0499 38.863 41.0771 38.9152C41.1043 38.9674 41.1132 39.0272 41.1023 39.0851L39.8573 45.8876C39.8502 45.9262 39.8346 45.9628 39.8115 45.9946C39.7885 46.0264 39.7586 46.0527 39.724 46.0714C39.6895 46.0901 39.6512 46.1008 39.6119 46.1028C39.5727 46.1047 39.5335 46.0978 39.4973 46.0826L36.5497 44.7776C36.5135 44.7617 36.4814 44.7379 36.4557 44.7078C36.43 44.6778 36.4114 44.6424 36.4013 44.6042C36.3912 44.5659 36.3899 44.5259 36.3974 44.4871C36.4049 44.4483 36.4211 44.4117 36.4447 44.3801Z" fill="#EF331B"/>
<path d="M37.5089 55.0901C38.6264 49.3601 42.3914 44.2901 46.7789 41.1101C46.8193 41.08 46.8685 41.0643 46.9188 41.0655C46.9691 41.0667 47.0175 41.0847 47.0564 41.1166C47.0953 41.1486 47.1223 41.1926 47.1332 41.2418C47.1441 41.2909 47.1382 41.3422 47.1164 41.3876C45.4664 45.1451 44.3639 48.9401 45.6389 52.5776C45.7056 52.7663 45.694 52.974 45.6069 53.1553C45.5198 53.3366 45.3641 53.4767 45.1739 53.5451L38.4239 55.8851C37.6589 56.1551 37.3539 55.8901 37.5089 55.0901ZM43.3814 46.6376C41.0789 47.9951 39.3314 51.7526 38.8439 53.9051C38.8289 53.9707 38.8315 54.0391 38.8515 54.1034C38.8714 54.1677 38.9079 54.2256 38.9574 54.2712C39.0068 54.3169 39.0675 54.3487 39.1331 54.3634C39.1988 54.3781 39.2672 54.3753 39.3314 54.3551L43.9514 52.9001C44.0107 52.8806 44.0651 52.8486 44.1108 52.8063C44.1565 52.764 44.1924 52.7125 44.216 52.6553C44.2396 52.5981 44.2503 52.5367 44.2473 52.4753C44.2444 52.414 44.2279 52.3541 44.1989 52.3001C43.2889 50.5901 43.1639 48.8251 43.8239 47.0051C43.8442 46.9461 43.8461 46.8822 43.8292 46.8221C43.8124 46.762 43.7776 46.7084 43.7296 46.6685C43.6816 46.6286 43.6225 46.6043 43.5603 46.5988C43.4981 46.5932 43.4357 46.6068 43.3814 46.6376Z" fill="#EF331B"/>
<path d="M67.6521 41.755L67.3146 49.63C67.3096 49.6976 67.2819 49.7616 67.236 49.8114C67.19 49.8612 67.1286 49.894 67.0616 49.9045C66.9946 49.9149 66.9261 49.9023 66.8672 49.8689C66.8082 49.8354 66.7624 49.7829 66.7371 49.72L63.9621 42.3475C63.9472 42.3062 63.9416 42.2621 63.9456 42.2184C63.9496 42.1747 63.9632 42.1323 63.9854 42.0944C64.0076 42.0565 64.0378 42.0239 64.0739 41.999C64.1101 41.974 64.1513 41.9573 64.1946 41.95L67.2996 41.4475C67.3438 41.4396 67.3892 41.4418 67.4325 41.4538C67.4757 41.4658 67.5157 41.4873 67.5496 41.5168C67.5834 41.5463 67.6102 41.583 67.6279 41.6243C67.6457 41.6655 67.6539 41.7102 67.6521 41.755Z" fill="#EF331B"/>
<path d="M65.7925 76.0226L59.0275 67.8326C59.003 67.8021 58.9851 67.7669 58.9748 67.7292C58.9646 67.6915 58.9622 67.652 58.9678 67.6133C58.9734 67.5746 58.987 67.5375 59.0076 67.5043C59.0281 67.471 59.0554 67.4424 59.0875 67.4201C67.4125 61.7276 70.24 51.7151 68.8975 42.1451C68.8832 42.0762 68.8949 42.0044 68.9305 41.9435C68.966 41.8827 69.0228 41.8372 69.0899 41.8158C69.1569 41.7943 69.2296 41.7985 69.2938 41.8275C69.358 41.8564 69.4092 41.9081 69.4375 41.9726C75.4825 53.7701 76.1801 66.1526 66.3175 76.0451C66.2818 76.0801 66.2394 76.1074 66.193 76.1253C66.1465 76.1433 66.097 76.1515 66.0476 76.1493C65.9982 76.1472 65.9501 76.1349 65.9061 76.1131C65.8622 76.0912 65.8235 76.0604 65.7925 76.0226ZM65.9875 72.4901C66.059 72.5656 66.1462 72.6245 66.2427 72.6627C66.3393 72.7009 66.4429 72.7173 66.5462 72.7109C66.6494 72.7044 66.7496 72.6752 66.8398 72.6254C66.9299 72.5756 67.0077 72.5063 67.0675 72.4226C71.4625 66.3426 72.8975 59.5401 71.3725 52.0151C71.3646 51.9625 71.3384 51.9148 71.2984 51.8805C71.2585 51.8462 71.2072 51.8274 71.1537 51.8274C71.1001 51.8274 71.0477 51.8462 71.0054 51.8805C70.9632 51.9148 70.9339 51.9625 70.9225 52.0151C69.4375 58.5251 67.165 63.2951 62.005 67.7051C61.815 67.8651 61.805 68.0351 61.975 68.2151L65.9875 72.4901Z" fill="#EF331B"/>
<path d="M62.0872 44.2001L61.6897 50.1326C61.6881 50.1904 61.667 50.2458 61.6298 50.29C61.5925 50.3341 61.5414 50.3643 61.4848 50.3757C61.4282 50.387 61.3694 50.3788 61.3181 50.3523C61.2667 50.3259 61.2259 50.2828 61.2022 50.2301L58.5547 44.9126C58.5365 44.8773 58.5268 44.8382 58.5264 44.7984C58.526 44.7587 58.5349 44.7194 58.5524 44.6837C58.5698 44.648 58.5954 44.6168 58.6271 44.5928C58.6588 44.5687 58.6956 44.5524 58.7347 44.5451L61.7872 43.9376C61.8249 43.9308 61.8636 43.9326 61.9005 43.9428C61.9374 43.9531 61.9716 43.9715 62.0004 43.9967C62.0292 44.0219 62.052 44.0533 62.067 44.0885C62.082 44.1237 62.0889 44.1619 62.0872 44.2001Z" fill="#EF331B"/>
<path d="M30.8867 44.5376C31.3517 43.9176 31.5942 43.9951 31.6142 44.7701C31.6892 48.3201 32.3242 51.7601 33.5192 55.0901C33.5354 55.1365 33.5415 55.1859 33.537 55.2348C33.5326 55.2837 33.5177 55.3309 33.4934 55.373C33.4691 55.4152 33.436 55.4513 33.3964 55.4789C33.3568 55.5064 33.3117 55.5248 33.2642 55.5326L27.2267 56.6201C27.1347 56.6366 27.0401 56.6317 26.9503 56.6057C26.8605 56.5797 26.7779 56.5333 26.7089 56.4702C26.64 56.407 26.5865 56.3288 26.5528 56.2417C26.519 56.1545 26.5058 56.0607 26.5142 55.9676C26.8842 51.7426 28.3417 47.9326 30.8867 44.5376Z" fill="#FFEC01"/>
<path d="M39.1972 47.1926L36.3472 51.6101C36.3186 51.6561 36.2757 51.6913 36.2251 51.7106C36.1745 51.7298 36.119 51.7319 36.0671 51.7166C36.0152 51.7013 35.9698 51.6694 35.9377 51.6258C35.9057 51.5822 35.8888 51.5293 35.8897 51.4751L35.8672 46.2176C35.8669 46.1792 35.8756 46.1413 35.8925 46.1068C35.9094 46.0723 35.9341 46.0422 35.9647 46.0189C35.9953 45.9956 36.0308 45.9798 36.0686 45.9726C36.1063 45.9654 36.1452 45.9672 36.1822 45.9777L39.0622 46.8176C39.0994 46.8287 39.1334 46.8484 39.1616 46.875C39.1898 46.9016 39.2113 46.9345 39.2245 46.971C39.2376 47.0075 39.242 47.0466 39.2373 47.0851C39.2325 47.1236 39.2188 47.1604 39.1972 47.1926Z" fill="#EF331B"/>
<path d="M51.4517 58.0002C54.7743 55.8477 57.9168 50.6277 56.3868 46.4352C56.352 46.3327 56.3542 46.2213 56.3927 46.1203C56.4313 46.0192 56.504 45.9347 56.5981 45.8814C56.6923 45.8281 56.8021 45.8093 56.9086 45.8282C57.0152 45.8472 57.1118 45.9027 57.1818 45.9852C62.2468 52.2402 62.6143 58.7977 58.2843 65.6577C58.0043 66.1027 57.6943 66.1227 57.3543 65.7177L51.3692 58.5477C51.336 58.5067 51.3116 58.4592 51.2977 58.4085C51.2837 58.3577 51.2806 58.3047 51.2883 58.253C51.2961 58.2013 51.3147 58.1521 51.3429 58.1085C51.371 58.065 51.4081 58.0281 51.4517 58.0002ZM53.1617 59.0652L57.0543 62.9727C57.3193 63.2377 57.5543 63.2127 57.7593 62.8977C59.9343 59.5327 60.3793 55.8877 59.0943 51.9627C59.0795 51.9177 59.0509 51.8785 59.0125 51.8507C58.9741 51.8229 58.9279 51.808 58.8805 51.808C58.8331 51.808 58.787 51.8229 58.7486 51.8507C58.7102 51.8785 58.6816 51.9177 58.6668 51.9627C57.6968 54.7827 55.8968 56.9177 53.2667 58.3677C52.9217 58.5577 52.8867 58.7902 53.1617 59.0652Z" fill="#EF331B"/>
<path d="M55.6222 46.6001L55.6372 50.8826C55.6379 50.9759 55.6086 51.067 55.5535 51.1424C55.4985 51.2178 55.4206 51.2735 55.3315 51.3012C55.2424 51.329 55.1467 51.3273 55.0586 51.2965C54.9705 51.2657 54.8946 51.2073 54.8422 51.1301L52.4347 47.5901C52.3964 47.5342 52.3716 47.4702 52.3624 47.4031C52.3532 47.336 52.3598 47.2677 52.3817 47.2036C52.4035 47.1395 52.44 47.0814 52.4883 47.0339C52.5366 46.9865 52.5952 46.9509 52.6597 46.9301L55.0597 46.1876C55.1245 46.1677 55.193 46.1633 55.2598 46.1746C55.3266 46.1859 55.3898 46.2126 55.4445 46.2527C55.4991 46.2927 55.5436 46.345 55.5745 46.4053C55.6053 46.4656 55.6217 46.5323 55.6222 46.6001Z" fill="#EF331B"/>
<path d="M62.5075 53.0501L63.025 46.3001C63.0299 46.2417 63.0541 46.1867 63.0938 46.1438C63.1335 46.1008 63.1864 46.0723 63.2441 46.0628C63.3018 46.0533 63.3611 46.0634 63.4124 46.0914C63.4638 46.1195 63.5043 46.1639 63.5275 46.2176L66.1675 52.45C66.1828 52.4868 66.1895 52.5265 66.1871 52.5663C66.1847 52.606 66.1734 52.6446 66.1539 52.6793C66.1344 52.714 66.1072 52.7438 66.0745 52.7664C66.0418 52.7891 66.0044 52.804 65.965 52.8101L62.815 53.3275C62.7757 53.3345 62.7353 53.3324 62.6969 53.3214C62.6585 53.3103 62.6231 53.2907 62.5935 53.2639C62.5638 53.2372 62.5407 53.204 62.5258 53.1669C62.5109 53.1299 62.5046 53.0899 62.5075 53.0501Z" fill="#EF331B"/>
<path d="M38.8445 53.9049C39.332 51.7524 41.0796 47.9949 43.3821 46.6374C43.4364 46.6066 43.4988 46.5931 43.561 46.5986C43.6232 46.6041 43.6822 46.6285 43.7302 46.6684C43.7783 46.7083 43.813 46.7618 43.8299 46.8219C43.8467 46.8821 43.8449 46.9459 43.8246 47.005C43.1646 48.8249 43.2896 50.5899 44.1996 52.2999C44.2285 52.354 44.245 52.4138 44.248 52.4752C44.2509 52.5365 44.2402 52.598 44.2166 52.6551C44.1931 52.7123 44.1571 52.7639 44.1114 52.8062C44.0657 52.8484 44.0113 52.8805 43.9521 52.8999L39.332 54.3549C39.2678 54.3751 39.1994 54.378 39.1338 54.3632C39.0681 54.3485 39.0075 54.3167 38.958 54.2711C38.9086 54.2254 38.872 54.1675 38.8521 54.1032C38.8322 54.039 38.8296 53.9706 38.8445 53.9049Z" fill="#FFEC01"/>
<path d="M51.9763 52.9527L53.3113 53.1102C53.9213 53.1852 54.0213 53.4527 53.6113 53.9127L51.3613 56.4177C51.1013 56.7127 50.9013 56.6752 50.7613 56.3052C49.7913 53.7552 49.9038 51.2727 51.0988 48.8577C51.3288 48.3927 51.5688 48.3877 51.8188 48.8427L53.4313 51.7752C53.469 51.8434 53.4883 51.9202 53.4873 51.9981C53.4864 52.0761 53.4652 52.1524 53.4259 52.2197C53.3866 52.287 53.3305 52.3429 53.263 52.382C53.1956 52.4211 53.1192 52.442 53.0413 52.4427H52.0513C51.9263 52.4427 51.8638 52.5052 51.8638 52.6302C51.8638 52.6952 51.8638 52.7602 51.8638 52.8252C51.8636 52.8565 51.8749 52.8869 51.8957 52.9104C51.9164 52.9339 51.9451 52.949 51.9763 52.9527Z" fill="#EF331B"/>
<path d="M57.055 62.9724L53.1625 59.0649C52.8875 58.7899 52.9225 58.5574 53.2675 58.3674C55.8975 56.9174 57.6975 54.7824 58.6675 51.9624C58.6823 51.9173 58.7109 51.8781 58.7493 51.8504C58.7877 51.8226 58.8338 51.8076 58.8812 51.8076C58.9286 51.8076 58.9748 51.8226 59.0132 51.8504C59.0516 51.8781 59.0802 51.9173 59.095 51.9624C60.38 55.8874 59.935 59.5324 57.76 62.8974C57.555 63.2124 57.32 63.2374 57.055 62.9724Z" fill="#FFEC01"/>
<path d="M65.9874 72.4901L61.9749 68.2151C61.8049 68.0351 61.8149 67.8651 62.0049 67.7051C67.1649 63.2951 69.4374 58.5251 70.9225 52.0151C70.9338 51.9624 70.9631 51.9148 71.0054 51.8805C71.0476 51.8462 71.1001 51.8274 71.1536 51.8274C71.2071 51.8274 71.2584 51.8462 71.2984 51.8805C71.3384 51.9148 71.3646 51.9624 71.3724 52.0151C72.8975 59.5401 71.4625 66.3426 67.0674 72.4226C67.0076 72.5063 66.9298 72.5755 66.8397 72.6253C66.7496 72.6752 66.6493 72.7044 66.5461 72.7108C66.4429 72.7173 66.3392 72.7008 66.2427 72.6627C66.1461 72.6245 66.0589 72.5656 65.9874 72.4901Z" fill="#FFEC01"/>
<path d="M60.1674 64.24C61.9749 61.2325 62.4324 58.36 62.1549 54.7675C62.1508 54.7186 62.1565 54.6694 62.1717 54.6228C62.187 54.5762 62.2114 54.5331 62.2435 54.496C62.2757 54.459 62.3149 54.4287 62.359 54.4071C62.403 54.3855 62.4509 54.3729 62.4999 54.37L64.9224 54.19C65.6024 54.14 65.8749 54.45 65.7399 55.12C64.9749 58.795 63.2749 61.9575 60.6399 64.6075C60.5892 64.6642 60.5189 64.6995 60.4432 64.7063C60.3675 64.7132 60.292 64.691 60.232 64.6444C60.172 64.5977 60.132 64.53 60.12 64.4549C60.108 64.3799 60.1249 64.3031 60.1674 64.24Z" fill="#EF331B"/>
<path d="M46.2621 54.5427C46.2858 54.5358 46.3105 54.5336 46.335 54.5363C46.3595 54.5389 46.3832 54.5464 46.4048 54.5583C46.4264 54.5701 46.4454 54.5861 46.4608 54.6053C46.4762 54.6245 46.4877 54.6465 46.4946 54.6702L46.5621 54.8651C46.6169 55.0374 46.6427 55.217 46.638 55.3937C46.6333 55.5703 46.5983 55.7406 46.5348 55.8946C46.4714 56.0486 46.3809 56.1833 46.2685 56.2911C46.156 56.3989 46.0239 56.4776 45.8796 56.5227L45.7221 56.5751C45.4323 56.6668 45.1108 56.6172 44.8282 56.4372C44.5456 56.2572 44.3249 55.9616 44.2146 55.6151L44.1546 55.4127C44.1404 55.3659 44.145 55.3154 44.1674 55.272C44.1898 55.2286 44.2283 55.1956 44.2746 55.1801L46.2621 54.5427Z" fill="#EF331B"/>
<path d="M39.0319 58.1951C38.9522 58.1435 38.8883 58.071 38.8471 57.9854C38.806 57.8999 38.7891 57.8047 38.7984 57.7102C38.8077 57.6158 38.8428 57.5257 38.8998 57.4498C38.9569 57.374 39.0337 57.3153 39.1219 57.2801L42.0619 56.1401C42.1213 56.1192 42.1856 56.115 42.2473 56.128C42.309 56.141 42.3658 56.1707 42.4111 56.2136C42.4564 56.2566 42.4885 56.3112 42.5037 56.3711C42.5188 56.431 42.5165 56.4939 42.4969 56.5526C42.0769 57.7926 42.3644 58.8502 43.3594 59.7252C43.4598 59.8085 43.5244 59.9272 43.5399 60.0568C43.5554 60.1863 43.5207 60.3169 43.4429 60.4216C43.3651 60.5264 43.25 60.5973 43.1215 60.6198C42.993 60.6423 42.8607 60.6147 42.7519 60.5426L39.0319 58.1951Z" fill="#EF331B"/>
<path d="M48.5047 58.5625C48.5078 58.5633 48.5106 58.5648 48.5131 58.5668C48.5155 58.5688 48.5175 58.5713 48.5189 58.5741C48.5203 58.577 48.5211 58.5801 48.5213 58.5832C48.5214 58.5864 48.5209 58.5895 48.5197 58.5925C48.4346 58.9076 48.291 59.2037 48.0971 59.4637C47.9032 59.7236 47.6629 59.9424 47.3898 60.1075C47.1167 60.2726 46.8162 60.3808 46.5056 60.4258C46.195 60.4709 45.8804 60.4519 45.5797 60.37L45.5272 60.355C45.2265 60.274 44.9455 60.1318 44.7002 59.9365C44.4549 59.7411 44.2502 59.4964 44.0976 59.2164C43.9451 58.9364 43.8478 58.6266 43.8112 58.3046C43.7747 57.9827 43.7997 57.6549 43.8847 57.34C43.8863 57.3354 43.8894 57.3314 43.8934 57.3287C43.8975 57.326 43.9023 57.3247 43.9072 57.325L48.5047 58.5625Z" fill="#EF331B"/>
<path d="M38.724 65.7326C36.114 64.3076 34.164 62.2676 32.139 60.1001C32.0869 60.0431 32.0498 59.9739 32.0312 59.899C32.0126 59.824 32.0131 59.7459 32.0325 59.6717C32.052 59.5976 32.0899 59.5299 32.1426 59.475C32.1953 59.42 32.2611 59.3797 32.334 59.3576L35.364 58.4276C35.654 58.3376 35.819 58.4426 35.859 58.7426C36.189 61.2926 37.2665 63.4576 39.0915 65.2376C39.1462 65.2888 39.1799 65.3578 39.1865 65.4318C39.1931 65.5057 39.172 65.5797 39.1272 65.64C39.0824 65.7004 39.0169 65.743 38.9428 65.76C38.8687 65.777 38.791 65.7673 38.724 65.7326Z" fill="#EF331B"/>
<path d="M38.3648 58.6675C41.2673 62.26 46.4573 63.4 49.8398 59.3725C49.8786 59.3267 49.9268 59.2899 49.9812 59.2647C50.0356 59.2394 50.0949 59.2263 50.1548 59.2263C50.2148 59.2263 50.2741 59.2394 50.3285 59.2647C50.3829 59.2899 50.4311 59.3267 50.4698 59.3725L56.5824 66.7075C56.6183 66.7504 56.6436 66.8013 56.656 66.8559C56.6684 66.9105 56.6676 66.9673 56.6536 67.0216C56.6397 67.0758 56.613 67.126 56.5759 67.1679C56.5387 67.2098 56.4921 67.2422 56.4399 67.2625C48.1148 70.5475 39.9923 67.8325 37.6523 59.02C37.6304 58.9312 37.6395 58.8381 37.678 58.7556C37.7164 58.6731 37.7821 58.6062 37.8644 58.5654C37.9467 58.5247 38.0409 58.5127 38.1316 58.5312C38.2224 58.5497 38.3045 58.5977 38.3648 58.6675ZM42.5273 63.715C42.0823 63.485 41.8598 63.645 41.8598 64.195C41.8601 64.2598 41.8759 64.3236 41.9059 64.381C41.9359 64.4384 41.9792 64.4878 42.0323 64.525C45.5673 67.105 49.4823 67.77 53.7774 66.52C53.8416 66.5001 53.9004 66.4652 53.9486 66.4184C53.9968 66.3716 54.0331 66.3141 54.0544 66.2509C54.0758 66.1877 54.0815 66.1205 54.0711 66.0551C54.0607 65.9897 54.0346 65.9279 53.9948 65.875L50.5298 61.285C50.4777 61.2149 50.4115 61.1565 50.3353 61.1136C50.259 61.0707 50.1745 61.0441 50.0871 61.0357C49.9996 61.0272 49.9111 61.037 49.8272 61.0644C49.7434 61.0919 49.6659 61.1363 49.5998 61.195C47.7798 62.84 45.6273 63.725 43.1423 63.85C42.9273 63.86 42.7223 63.815 42.5273 63.715Z" fill="#EF331B"/>
<path d="M35.7017 69.9249C32.4392 68.4699 28.7267 64.1649 26.9867 61.8024C26.7417 61.4674 26.8117 61.2274 27.1967 61.0824L29.9717 60.0474C30.2917 59.9274 30.4817 60.0374 30.5417 60.3774C31.1967 64.0974 33.0017 67.1449 35.9567 69.5199C36.0053 69.556 36.0384 69.609 36.0496 69.6685C36.0607 69.7279 36.049 69.7894 36.0168 69.8405C35.9845 69.8917 35.9342 69.9288 35.8758 69.9445C35.8174 69.9601 35.7552 69.9531 35.7017 69.9249Z" fill="#EF331B"/>
<path d="M43.1419 63.85C45.6269 63.725 47.7794 62.84 49.5994 61.195C49.6655 61.1363 49.7429 61.0919 49.8268 61.0644C49.9107 61.037 49.9992 61.0272 50.0866 61.0357C50.1741 61.0441 50.2586 61.0707 50.3348 61.1136C50.4111 61.1565 50.4773 61.2149 50.5294 61.285L53.9944 65.875C54.0342 65.9279 54.0603 65.9897 54.0707 66.0551C54.0811 66.1205 54.0753 66.1877 54.054 66.2509C54.0327 66.3141 53.9964 66.3716 53.9482 66.4184C53.8999 66.4652 53.8412 66.5001 53.7769 66.52C49.4819 67.77 45.5669 67.105 42.0319 64.525C41.9788 64.4878 41.9355 64.4384 41.9054 64.381C41.8754 64.3236 41.8596 64.2598 41.8594 64.195C41.8594 63.645 42.0819 63.485 42.5269 63.715C42.7219 63.815 42.9269 63.86 43.1419 63.85Z" fill="#FFEC01"/>
<path d="M26.1467 62.3352C33.3392 73.1127 46.5318 78.7001 57.3768 68.7177C57.4304 68.6675 57.4937 68.6289 57.5629 68.6043C57.6321 68.5797 57.7058 68.5695 57.7795 68.5744C57.8532 68.5794 57.9253 68.5992 57.9915 68.6329C58.0577 68.6665 58.1165 68.7132 58.1643 68.7702L64.4044 76.3077C64.4601 76.3726 64.5005 76.4493 64.5226 76.5321C64.5448 76.615 64.5481 76.7019 64.5323 76.7866C64.5165 76.8713 64.482 76.9516 64.4313 77.0219C64.3807 77.0921 64.3151 77.1504 64.2394 77.1926C53.2893 83.1476 39.4818 82.4501 31.1642 72.7001C28.7042 69.8126 27.0542 66.1902 25.7342 62.5377C25.7177 62.4847 25.7206 62.4275 25.7425 62.3766C25.7644 62.3256 25.8039 62.2841 25.8537 62.2596C25.9035 62.2352 25.9604 62.2293 26.0142 62.2432C26.0679 62.257 26.1149 62.2897 26.1467 62.3352ZM57.3393 70.6601C51.6618 75.5726 45.4143 76.4202 38.1393 74.9577C38.0754 74.9444 38.0089 74.9534 37.9508 74.9832C37.8928 75.0131 37.8468 75.0619 37.8205 75.1216C37.7941 75.1813 37.7891 75.2483 37.8061 75.3112C37.8232 75.3742 37.8614 75.4294 37.9143 75.4676C44.8818 80.5901 54.0918 80.0277 61.8918 76.7052C61.9597 76.6757 62.0201 76.6311 62.0681 76.5749C62.1161 76.5187 62.1506 76.4525 62.1687 76.3813C62.1869 76.3101 62.1882 76.236 62.1727 76.1647C62.1572 76.0933 62.1253 76.0268 62.0793 75.9701L57.9393 70.7201C57.7593 70.4901 57.5593 70.4701 57.3393 70.6601Z" fill="#EF331B"/>
<path d="M41.8518 68.4025C41.9 68.4149 41.9449 68.438 41.9831 68.4701C42.0213 68.5023 42.0519 68.5428 42.0727 68.5887C42.0935 68.6346 42.104 68.6847 42.1034 68.7355C42.1028 68.7863 42.0911 68.8365 42.0693 68.8825L40.8543 71.44C40.8184 71.5154 40.7664 71.5819 40.7019 71.635C40.6375 71.688 40.5622 71.7262 40.4814 71.747C40.4005 71.7677 40.3161 71.7705 40.2341 71.755C40.1521 71.7396 40.0745 71.7063 40.0068 71.6575C36.9017 69.4525 34.3992 66.695 32.4992 63.385C32.4613 63.3114 32.4511 63.2266 32.4706 63.1461C32.49 63.0656 32.5377 62.9948 32.6051 62.9466C32.6724 62.8984 32.7548 62.876 32.8373 62.8835C32.9197 62.891 32.9967 62.9279 33.0542 62.9875C35.4592 65.6375 38.3917 67.4425 41.8518 68.4025Z" fill="#EF331B"/>
<path d="M43.599 68.9649C47.2515 70.1949 50.3565 70.4124 53.754 69.3924C53.8308 69.3676 53.9134 69.3725 53.9858 69.4061C54.0583 69.4397 54.1155 69.4997 54.1463 69.5744C54.1771 69.6491 54.1793 69.7332 54.1526 69.8104C54.1259 69.8876 54.072 69.9525 54.0015 69.9924C50.4165 71.9374 46.5815 72.7299 42.4965 72.3699C42.4223 72.3626 42.3508 72.3387 42.2873 72.2999C42.2238 72.2611 42.1701 72.2086 42.1303 72.1463C42.0904 72.084 42.0655 72.0136 42.0575 71.9406C42.0495 71.8675 42.0586 71.7938 42.084 71.7249L42.9315 69.2949C42.9776 69.1636 43.0732 69.0555 43.198 68.9939C43.3227 68.9322 43.4667 68.9218 43.599 68.9649Z" fill="#EF331B"/>
<path d="M38.1389 74.9577C45.414 76.4202 51.6615 75.5727 57.339 70.6602C57.559 70.4702 57.759 70.4902 57.939 70.7202L62.079 75.9702C62.125 76.0268 62.1569 76.0934 62.1724 76.1647C62.1879 76.236 62.1866 76.3102 62.1684 76.3813C62.1502 76.4525 62.1158 76.5188 62.0678 76.575C62.0197 76.6311 61.9594 76.6757 61.8915 76.7052C54.0915 80.0277 44.8815 80.5902 37.9139 75.4677C37.861 75.4295 37.8229 75.3742 37.8058 75.3113C37.7888 75.2483 37.7938 75.1814 37.8201 75.1217C37.8465 75.062 37.8925 75.0131 37.9505 74.9833C38.0085 74.9534 38.0751 74.9444 38.1389 74.9577Z" fill="#FFEC01"/>
</svg>
