<svg width="100" height="100" viewBox="0 0 100 100" fill="none" xmlns="http://www.w3.org/2000/svg">
<rect width="100" height="100" fill="white"/>
<path d="M16.1815 56.4379C16.1298 56.4243 16.084 56.394 16.0513 56.3515C16.0186 56.309 16.0008 56.2568 16.0007 56.203C16.0007 43.577 16.0007 30.9339 16.0007 18.2737C16.0007 16.7679 16.5401 16.0051 18.09 16.0051C25.3751 16.0032 32.6493 16.0027 39.9126 16.0036C39.9718 16.0037 40.0296 16.0221 40.078 16.0562C40.1264 16.0903 40.163 16.1386 40.183 16.1944C40.2456 16.3694 40.0976 16.5502 40.0093 16.6982C32.1825 29.902 24.3551 43.1054 16.5273 56.3083C16.4524 56.4345 16.3371 56.4777 16.1815 56.4379Z" fill="#00A0D1"/>
<path d="M20.9054 79.2616C19.5714 80.5681 18.6282 81.4752 18.076 81.9828C16.8492 83.1114 16.0038 82.1564 16.0038 80.7802C16 75.8282 15.9991 70.8763 16.0009 65.9244C16.0019 64.6767 16.0546 63.7312 16.1589 63.0879C16.4312 61.4151 16.9991 59.9212 17.8625 58.6061C26.4741 45.4924 35.0852 32.3782 43.6957 19.2635C45.1716 17.0148 47.0788 16.0313 49.7687 16.0356C60.609 16.0536 71.4489 16.0418 82.2883 16C83.7628 15.9943 84.4744 16.9892 83.2746 18.1648C62.4839 38.5294 41.6942 58.895 20.9054 79.2616Z" fill="#00A0D1"/>
<path d="M55.5312 54.0302C64.7722 63.1973 73.9308 72.4555 83.1349 81.6624C83.7269 82.2545 84.1568 82.8309 83.7056 83.5994C83.5462 83.8699 83.1462 83.9994 82.8089 83.9994C62.1407 84.0003 41.4724 84.0003 20.8041 83.9994C20.4588 83.9994 20.2287 83.8903 20.1139 83.672C20.1001 83.6469 20.0926 83.6188 20.0919 83.5901C20.0911 83.5614 20.0972 83.5329 20.1096 83.5069C20.2149 83.2849 20.3482 83.1018 20.5095 82.9576C31.4485 73.2008 42.3861 63.4421 53.3223 53.6815C54.1165 52.9742 54.848 53.3513 55.5312 54.0302Z" fill="#00A0D1"/>
</svg>
