<svg width="100" height="100" viewBox="0 0 100 100" fill="none" xmlns="http://www.w3.org/2000/svg">
<rect width="100" height="100" fill="#E3E2FF"/>
<path d="M58.0935 24.6201C48.3513 26.7273 40.7025 31.8571 35.1471 40.0094C35.0667 40.13 34.862 40.1877 34.533 40.1827C33.2145 28.297 39.2572 13.1903 51.433 8.85415C51.6439 8.7788 51.6954 8.83908 51.5874 9.03498C49.1161 13.5632 52.7741 16.0383 55.6259 18.9466C57.1077 20.4586 57.9302 22.3497 58.0935 24.6201Z" fill="#7D83A7"/>
<path d="M58.0935 24.6204C58.3246 27.6442 57.1115 30.0804 54.4543 31.9289C52.8018 33.0791 51.1743 34.2683 49.572 35.4964C44.3769 39.486 39.7658 47.6383 45.8386 53.229C45.8549 53.2455 45.8766 53.255 45.8994 53.2555C45.9221 53.2561 45.9443 53.2477 45.9614 53.232C45.9786 53.2163 45.9894 53.1944 45.9918 53.1708C45.9942 53.1472 45.9879 53.1236 45.9742 53.1046C44.0705 50.5027 43.5782 47.5881 44.4975 44.3608C46.2831 38.1034 53.1885 33.5036 59.2764 31.8347C69.9152 28.915 82.5054 30.9155 89.9458 39.7045C89.9766 39.7402 89.9953 39.7846 89.9992 39.8316C90.0031 39.8785 89.9921 39.9255 89.9676 39.9662C89.9431 40.0068 89.9065 40.039 89.8627 40.0583C89.8189 40.0776 89.7703 40.0829 89.7235 40.0737C84.4154 38.9322 83.4585 44.1386 81.3639 47.514C79.3484 50.7614 75.4154 52.5169 71.7612 51.3416C69.6666 50.6672 67.3271 48.6065 65.3116 47.1712C63.5109 45.8928 62.0316 45.0088 60.8738 44.519C55.7239 42.3265 48.713 42.0854 46.1701 48.3315C46.0772 48.5626 46.1136 48.5852 46.2794 48.3993C46.7239 47.9134 47.0818 47.2918 47.5113 46.8924C50.9885 43.6413 55.9876 43.6714 60.1844 45.5023C74.2777 51.6542 80.9382 73.2294 72.4958 86.0833C72.4732 86.1161 72.4411 86.1415 72.4039 86.156C72.3667 86.1705 72.3261 86.1734 72.2875 86.1644C72.249 86.1554 72.2143 86.1348 72.1883 86.1055C72.1622 86.0762 72.1459 86.0395 72.1417 86.0004C71.5728 80.8656 66.9767 81.118 63.1153 80.4135C59.1371 79.6902 55.9123 76.4428 55.916 72.3252C55.916 69.6392 57.86 65.4952 58.5418 62.8355C60.0826 56.8079 58.9186 48.7421 51.7645 47.126C51.3752 47.0381 51.0324 47.0318 50.736 47.1072C50.4648 47.175 50.4661 47.2365 50.7398 47.2918C55.2342 48.2072 57.6904 52.6865 57.9165 56.9699C58.5305 68.7313 48.227 78.9857 38.0253 82.7718C37.1211 81.5563 36.2697 80.3545 35.4711 79.1666C32.515 74.7714 30.5661 69.8288 29.6243 64.3386C30.6314 63.7308 31.9311 63.4006 33.5234 63.3478C36.7783 63.2386 40.6096 63.6492 43.744 62.8543C49.3158 61.4341 55.2116 57.712 53.4899 50.9611C53.4849 50.9413 53.4728 50.9245 53.4561 50.9135C53.4393 50.9026 53.419 50.8983 53.3988 50.9015C53.3786 50.9047 53.3599 50.9152 53.3462 50.931C53.3325 50.9468 53.3246 50.9668 53.3242 50.9874C53.5728 57.275 48.1592 61.1477 42.5159 61.9012C37.8595 62.5215 33.4455 61.9301 29.2739 60.1268C29.3568 53.8079 30.7972 47.9573 33.595 42.5751C35.0755 47.2277 36.7105 51.157 40.7038 54.2047C43.7729 56.5429 46.9977 56.8054 50.3782 54.992C50.4912 54.9318 50.4924 54.8665 50.3819 54.7961C50.3317 54.7635 50.2727 54.7597 50.2049 54.7848C41.9357 57.9606 35.9495 48.3805 34.8269 41.6898C34.7465 41.2051 34.6486 40.7028 34.533 40.1829C34.862 40.188 35.0667 40.1302 35.1471 40.0096C40.7026 31.8573 48.3514 26.7275 58.0935 24.6204Z" fill="#37348C"/>
<path d="M33.595 42.5751C30.7972 47.9573 29.3569 53.8079 29.274 60.1268C19.1626 55.9489 10.8445 47.2654 10.0006 36.0352C9.99713 35.9892 10.0083 35.9433 10.0325 35.904C10.0567 35.8647 10.0927 35.8341 10.1353 35.8165C10.178 35.799 10.2251 35.7954 10.2699 35.8062C10.3147 35.8171 10.355 35.8418 10.3849 35.877C12.1028 37.8962 14.2162 38.3068 16.7252 37.1089C20.7524 35.18 24.0977 32.8933 28.7164 35.0708C31.7566 36.4986 32.9546 39.5237 33.595 42.5751Z" fill="#7D83A7"/>
<path d="M29.6243 64.3386C30.5661 69.8288 32.5151 74.7714 35.4711 79.1666C36.2698 80.3545 37.1212 81.5563 38.0253 82.7718C33.0651 84.7233 28.1714 85.0699 23.3443 83.8116C22.9776 83.7137 22.96 83.5718 23.2915 83.3859C27.6955 80.9033 26.117 77.0757 25.5971 73.1992C25.0973 69.4521 26.4397 66.4985 29.6243 64.3386Z" fill="#7D83A7"/>
</svg>
