<svg width="100" height="100" viewBox="0 0 100 100" fill="none" xmlns="http://www.w3.org/2000/svg">
<rect width="100" height="100" fill="#FEF509"/>
<path d="M15.5 45.75L27.5 36.375V79.125H15.5V45.75Z" fill="#DC271E"/>
<path d="M67.25 51.8467L77.75 42.375V79.125H67.25V51.8467Z" fill="#DC271E"/>
<path d="M84.5 51.8467L77.75 42.375V79.125H84.5V51.8467Z" fill="#211A19"/>
<path d="M36.5 29.191L48.5 19.875V79.125H36.5V29.191Z" fill="#DC271E"/>
<path d="M57.5 29.191L48.5 19.875V79.125H57.5V29.191Z" fill="#211A19"/>
<path d="M46.25 59.941L55.25 50.625V79.125H46.25V59.941Z" fill="#DC271E"/>
<path d="M64.25 54L55.25 50.625V79.125H64.25V54Z" fill="#211A19"/>
<path d="M33.5 45.75L27.5 36.375V79.125H33.5V45.75Z" fill="#211A19"/>
</svg>
