<svg width="100" height="100" viewBox="0 0 100 100" fill="none" xmlns="http://www.w3.org/2000/svg">
<rect width="100" height="100" fill="#151E6D"/>
<path d="M55.6369 61.0076C58.2169 62.1851 60.5794 60.6851 62.0044 58.4876C62.0456 58.4199 62.1079 58.3677 62.1818 58.339C62.2556 58.3104 62.3369 58.3069 62.4129 58.3291C62.489 58.3513 62.5556 58.398 62.6024 58.4619C62.6492 58.5258 62.6736 58.6034 62.6719 58.6826V69.4001C62.6719 69.6451 62.5819 69.8501 62.4019 70.0151C59.9569 72.2251 57.2769 72.7276 54.3619 71.5226C39.1744 65.2526 42.0544 21.31 61.7719 27.6176C62.0195 27.6974 62.2352 27.8546 62.3876 28.0663C62.54 28.2781 62.6212 28.5334 62.6194 28.7951L62.5294 40.3001C62.5285 40.3607 62.5077 40.4194 62.4702 40.4672C62.4328 40.5149 62.3807 40.549 62.322 40.5643C62.2633 40.5796 62.2012 40.5753 62.1452 40.552C62.0892 40.5286 62.0423 40.4876 62.0119 40.4351C60.5919 37.9301 58.7469 37.0151 56.4769 37.6901C49.3069 39.8201 49.7944 58.3376 55.6369 61.0076Z" fill="#FAB80A"/>
<path d="M30.0693 27.3853H35.6418C35.7494 27.3864 35.8533 27.4241 35.9365 27.4923C36.0197 27.5605 36.0772 27.655 36.0993 27.7603L45.0019 70.6828C45.0149 70.7495 45.0133 70.8182 44.9974 70.8842C44.9814 70.9503 44.9515 71.0121 44.9095 71.0655C44.8675 71.1188 44.8144 71.1625 44.754 71.1936C44.6936 71.2246 44.6272 71.2423 44.5593 71.2453L38.6718 71.5153C38.5581 71.521 38.4462 71.4854 38.3566 71.4152C38.2671 71.3449 38.2059 71.2446 38.1843 71.1328L36.8943 63.9628C36.875 63.8536 36.8178 63.7546 36.7327 63.6833C36.6477 63.612 36.5403 63.5729 36.4293 63.5728H28.7118C28.6019 63.5726 28.4954 63.6106 28.4105 63.6804C28.3256 63.7502 28.2678 63.8474 28.2468 63.9553L26.8743 71.0653C26.8534 71.1732 26.7955 71.2704 26.7106 71.3402C26.6258 71.4101 26.5192 71.4481 26.4093 71.4478H20.4768C20.4055 71.4485 20.3349 71.433 20.2704 71.4025C20.206 71.372 20.1492 71.3273 20.1045 71.2717C20.0597 71.2161 20.0282 71.1512 20.0121 71.0816C19.9961 71.0121 19.996 70.9399 20.0118 70.8703L29.6043 27.7528C29.6283 27.6477 29.6875 27.5539 29.772 27.487C29.8566 27.4202 29.9615 27.3843 30.0693 27.3853Z" fill="#FAB80A"/>
<path d="M78.0769 71.3728C74.7869 70.5778 71.3894 70.3078 67.8844 70.5628C67.6366 70.5776 67.391 70.509 67.1869 70.3678C66.6269 69.9678 66.1969 69.4378 65.8969 68.7778L65.7694 64.0228L65.5369 40.0228L65.7919 28.0078C65.7958 27.8413 65.8647 27.683 65.9838 27.5666C66.1029 27.4503 66.2629 27.3852 66.4294 27.3853H78.7819C78.9291 27.3853 79.0702 27.4437 79.1743 27.5478C79.2784 27.6519 79.3369 27.7931 79.3369 27.9403L79.3969 36.7378C79.3979 36.8142 79.3837 36.8901 79.3551 36.9611C79.3265 37.032 79.2841 37.0966 79.2304 37.151C79.1767 37.2054 79.1127 37.2486 79.0421 37.2781C78.9716 37.3076 78.8959 37.3228 78.8194 37.3228H72.6094C72.3594 37.3228 72.2344 37.4478 72.2344 37.6978V44.0128C72.2344 44.4728 72.4644 44.7003 72.9244 44.6953L78.2344 44.6128C78.5344 44.6128 78.6844 44.7628 78.6844 45.0628L78.5794 53.5828C78.5784 53.6399 78.5662 53.6963 78.5434 53.7487C78.5206 53.8011 78.4878 53.8485 78.4467 53.8882C78.4056 53.9279 78.3571 53.9591 78.3039 53.9801C78.2508 54.001 78.194 54.0113 78.1369 54.0103L72.7069 53.9578C72.3569 53.9528 72.1869 54.1253 72.1969 54.4753L72.3319 62.0803C72.3369 62.3553 72.4769 62.4878 72.7519 62.4778L78.9694 62.3053C79.3144 62.2953 79.4869 62.4628 79.4869 62.8078L79.4344 71.0353C79.4344 71.3403 79.2819 71.4778 78.9769 71.4478L78.0769 71.3728Z" fill="#FAB80A"/>
<path d="M29.7992 54.8276L32.7392 42.4976C32.7504 42.4461 32.7793 42.4002 32.8209 42.3678C32.8624 42.3354 32.9141 42.3187 32.9667 42.3204C33.0194 42.3222 33.0698 42.3424 33.1091 42.3776C33.1484 42.4127 33.1741 42.4605 33.1817 42.5126L35.4242 54.9851C35.431 55.0182 35.4302 55.0524 35.422 55.0851C35.4137 55.1178 35.3982 55.1483 35.3766 55.1742C35.355 55.2002 35.3279 55.2209 35.2972 55.2349C35.2664 55.2489 35.233 55.2558 35.1992 55.2551L30.0092 55.1051C29.976 55.1038 29.9434 55.0952 29.9139 55.0798C29.8844 55.0644 29.8586 55.0426 29.8386 55.0161C29.8185 54.9895 29.8045 54.9589 29.7977 54.9263C29.7909 54.8937 29.7914 54.86 29.7992 54.8276Z" fill="#030E73"/>
</svg>
