<svg width="100" height="100" viewBox="0 0 100 100" fill="none" xmlns="http://www.w3.org/2000/svg">
<rect width="100" height="100" fill="white"/>
<path d="M23.3928 32.7622C16.0233 34.4429 11.1224 40.3188 10.3674 47.8524C10.3649 47.8777 10.3531 47.9011 10.3343 47.9181C10.3155 47.9351 10.291 47.9444 10.2656 47.9443L4.1271 47.9148C4.03081 47.9148 3.98923 47.8677 4.00236 47.7736C4.22886 46.28 4.393 44.6781 4.73439 43.3191C6.89435 34.6891 13.65 28.2749 22.303 26.4235C23.592 26.1477 25.2738 26.0099 27.3484 26.0099C41.8554 26.0208 56.3624 26.0175 70.8694 26C73.8653 25.9978 76.045 26.1226 77.4084 26.3742C87.9751 28.3208 95.2035 37.1511 95.9946 47.7474C96.0033 47.8634 95.9486 47.9224 95.8305 47.9246L89.8823 47.9345C89.8137 47.9346 89.7476 47.9085 89.6976 47.8615C89.6476 47.8145 89.6174 47.7502 89.6132 47.6817C89.1536 40.4501 83.8555 34.4823 76.8766 32.7819C75.6883 32.4909 74.0459 32.3442 71.9494 32.342C57.7575 32.3311 43.5645 32.3267 29.3705 32.3289C26.6547 32.3289 24.6621 32.4734 23.3928 32.7622Z" fill="#EE1C25"/>
<path d="M15.984 30.0573C20.4483 27.5067 24.2627 27.0898 29.8301 27.0866C44.3721 27.0734 58.913 27.0756 73.4529 27.0931C84.6039 27.1063 93.2569 35.6247 94.8818 46.4376C94.8898 46.49 94.8865 46.5434 94.872 46.5944C94.8576 46.6453 94.8325 46.6926 94.7983 46.733C94.7641 46.7735 94.7216 46.8061 94.6737 46.8288C94.6258 46.8514 94.5737 46.8635 94.5207 46.8643L90.8343 46.9234C90.7941 46.9241 90.7551 46.9105 90.7243 46.8852C90.6936 46.8598 90.6732 46.8245 90.6669 46.7856C89.2423 38.1293 82.5424 31.2686 73.4266 31.2686C58.6898 31.2664 43.953 31.2642 29.2162 31.2621C26.2422 31.2599 24.0789 31.4207 22.7265 31.7446C15.6294 33.4351 10.3904 39.4555 9.45155 46.7363C9.43404 46.872 9.35636 46.9398 9.21849 46.9398H5.33843C5.20056 46.9398 5.14147 46.872 5.16116 46.7363C6.08358 39.7246 9.78638 33.596 15.984 30.0573Z" fill="white"/>
<path d="M25.566 41.5958C25.786 41.6681 25.9173 41.691 26.1175 41.6878C26.2291 41.6856 26.2849 41.7403 26.2849 41.8519V54.8182C26.2849 54.8835 26.3109 54.9461 26.3571 54.9923C26.4032 55.0385 26.4658 55.0644 26.5311 55.0644H34.16C34.265 55.0644 34.3175 55.118 34.3175 55.2253L34.3471 59.8603C34.3471 59.9632 34.2945 60.0146 34.1895 60.0146L20.5338 59.9785C20.4287 59.9763 20.3762 59.9227 20.3762 59.8177V41.9405C20.3762 41.853 20.4211 41.8059 20.5108 41.7994C21.826 41.7293 23.1391 41.6943 24.45 41.6943C24.8012 41.6943 25.2247 41.4875 25.566 41.5958Z" fill="#EE1C25"/>
<path d="M51.6958 50.298C55.7629 52.0772 54.7683 57.6346 51.269 59.2661C50.2383 59.7486 48.3573 59.962 47.1658 59.9751C44.0888 60.0123 41.0119 60.0101 37.935 59.9686C37.8278 59.9686 37.7742 59.9139 37.7742 59.8044V41.8584C37.7742 41.7621 37.8234 41.7128 37.9219 41.7106C40.9747 41.6559 44.021 41.6614 47.0607 41.7271C48.9668 41.7664 50.2941 41.9503 51.0425 42.2785C54.2004 43.6572 54.5779 48.0724 51.6728 50.0386C51.6505 50.0533 51.6325 50.0737 51.6209 50.0978C51.6092 50.1218 51.6043 50.1486 51.6067 50.1752C51.6091 50.2018 51.6186 50.2273 51.6343 50.2489C51.65 50.2705 51.6712 50.2875 51.6958 50.298Z" fill="#EE1C25"/>
<path d="M63.4279 48.4992L63.441 59.7914C63.441 59.9227 63.3765 59.9883 63.2474 59.9883H58.2906C58.1812 59.9883 58.1265 59.9336 58.1265 59.8242V41.8519C58.1265 41.8083 58.1438 41.7666 58.1745 41.7358C58.2053 41.705 58.2471 41.6877 58.2906 41.6877H65.194C65.2968 41.6877 65.3614 41.737 65.3876 41.8355L68.4831 53.0653C68.4919 53.0981 68.5006 53.0981 68.5094 53.0653L71.6377 41.819C71.6618 41.7315 71.7198 41.6877 71.8117 41.6877H78.7249C78.8343 41.6877 78.8891 41.7425 78.8891 41.8519V59.9096C78.8891 59.9314 78.8847 59.953 78.8763 59.9731C78.8678 59.9933 78.8554 60.0115 78.8398 60.0268C78.8242 60.0421 78.8058 60.0541 78.7855 60.0621C78.7652 60.0702 78.7435 60.0741 78.7216 60.0737L73.6631 59.9785C73.6088 59.9776 73.5571 59.9551 73.519 59.9158C73.4809 59.8765 73.4596 59.8236 73.4596 59.7684L73.5811 48.7618C73.5805 48.7372 73.5711 48.7134 73.5546 48.6949C73.5381 48.6763 73.5156 48.6643 73.4913 48.6611C73.4671 48.6579 73.4428 48.6636 73.4231 48.6774C73.4033 48.6911 73.3895 48.7118 73.3841 48.7355L70.584 59.8505C70.5599 59.9424 70.5009 59.9883 70.4068 59.9883H66.5792C66.4829 59.9883 66.4217 59.9402 66.3954 59.8439L63.5198 48.4893C63.5185 48.4771 63.5124 48.466 63.5029 48.4583C63.4933 48.4506 63.4811 48.447 63.4689 48.4483C63.4567 48.4496 63.4456 48.4557 63.4379 48.4652C63.4302 48.4748 63.4266 48.487 63.4279 48.4992Z" fill="#EE1C25"/>
<path d="M43.5122 45.8697C43.5122 45.8462 43.5215 45.8237 43.5382 45.8071C43.5548 45.7904 43.5773 45.7811 43.6008 45.7811L46.4305 45.7713C46.652 45.7703 46.8715 45.8059 47.0765 45.8761C47.2814 45.9462 47.4678 46.0495 47.6248 46.18C47.7819 46.3105 47.9065 46.4657 47.9917 46.6366C48.0768 46.8076 48.1208 46.9909 48.121 47.1762V47.5045C48.1215 47.8773 47.9452 48.2352 47.6307 48.4998C47.3163 48.7644 46.8894 48.9141 46.4436 48.916L43.614 48.9259C43.5905 48.9259 43.5679 48.9165 43.5513 48.8999C43.5347 48.8833 43.5253 48.8607 43.5253 48.8372L43.5122 45.8697Z" fill="white"/>
<path d="M27.8803 67.0295C41.9015 67.0514 55.9227 67.0558 69.9439 67.0426C73.1105 67.0383 75.2912 66.9146 76.4861 66.6717C83.5372 65.2306 88.9634 59.2267 89.6002 51.9721C89.6111 51.8452 89.6801 51.7817 89.807 51.7817H95.7945C95.9455 51.7817 96.0134 51.8572 95.998 52.0082C95.0297 62.1318 88.1985 70.7815 77.9764 72.9152C76.5233 73.2172 74.3852 73.3682 71.5622 73.3682C57.1909 73.3639 42.8206 73.3639 28.4515 73.3682C25.7773 73.3682 23.742 73.2293 22.3458 72.9513C11.9333 70.8767 5.03983 62.3452 4.08459 51.9262C4.07584 51.8299 4.1196 51.7817 4.2159 51.7817H10.2034C10.3369 51.7817 10.4113 51.8474 10.4266 51.9787C11.2517 58.3842 14.4861 62.9153 20.1301 65.572C22.4837 66.6783 25.0113 67.0229 27.8803 67.0295Z" fill="#EE1C25"/>
<path d="M43.5122 52.3857C43.5122 52.3604 43.5222 52.3362 43.5401 52.3184C43.5579 52.3005 43.5822 52.2905 43.6074 52.2905L46.9097 52.2774C47.1439 52.2764 47.3759 52.3151 47.5925 52.3913C47.8092 52.4675 48.0062 52.5797 48.1723 52.7215C48.3385 52.8632 48.4705 53.0318 48.5608 53.2175C48.6511 53.4032 48.698 53.6024 48.6988 53.8038V54.0992C48.7003 54.5057 48.5141 54.8962 48.181 55.1849C47.848 55.4736 47.3954 55.6368 46.9228 55.6388L43.6205 55.6519C43.5953 55.6519 43.5711 55.6419 43.5532 55.624C43.5354 55.6062 43.5253 55.5819 43.5253 55.5567L43.5122 52.3857Z" fill="white"/>
<path d="M27.5027 68.0964C42.6618 68.1205 57.821 68.1303 72.9801 68.1259C82.0041 68.1227 89.0125 61.9415 90.5914 53.0259C90.6133 52.9077 90.6833 52.8486 90.8015 52.8486H94.6422C94.7538 52.8486 94.8052 52.9044 94.7965 53.016C94.0513 62.3781 86.1435 70.2432 77.2016 71.9075C75.8251 72.1636 73.6454 72.2927 70.6626 72.2949C56.0068 72.2992 41.351 72.3003 26.6951 72.2981C15.5211 72.2949 6.91406 63.9472 5.19725 53.0456C5.17537 52.9143 5.23117 52.8486 5.36466 52.8486H9.28083C9.37712 52.8486 9.43402 52.8957 9.45153 52.9898C11.0994 62.2139 18.0881 68.08 27.5027 68.0964Z" fill="white"/>
</svg>
