<svg width="100" height="100" viewBox="0 0 100 100" fill="none" xmlns="http://www.w3.org/2000/svg">
<rect width="100" height="100" fill="#E7232B"/>
<path d="M95.4375 57.7724C95.4363 57.7608 95.4536 57.7568 95.4894 57.7606C95.4927 57.7626 95.4963 57.7645 95.5 57.7662V68.2818C95.4883 68.2835 95.4738 68.2929 95.4563 68.3099C95.4421 68.2829 95.4242 68.2693 95.4025 68.2693C88.7213 68.2801 82.0402 68.2824 75.3594 68.2762C75.1506 68.2756 74.765 68.2487 74.4631 68.2762C74.4594 68.2766 74.4556 68.2757 74.4523 68.2738C74.449 68.2718 74.4465 68.2688 74.4451 68.2653C74.4437 68.2617 74.4435 68.2579 74.4445 68.2542C74.4455 68.2505 74.4476 68.2473 74.4506 68.2449C77.9488 65.4712 79.3663 61.2449 78.6563 56.8812C78.1619 53.8437 76.52 51.4649 73.805 49.9781C73.5967 49.8639 73.3871 49.7527 73.1763 49.6443C73.1575 49.6347 73.1481 49.6193 73.1481 49.5981C73.149 48.3702 73.1454 47.5293 73.1375 47.0756C73.135 46.9518 73.1194 46.9074 73.2244 46.8268C76.1163 44.6206 77.2338 41.0937 76.7325 37.5593C76.3763 35.0512 75.0944 32.9162 73.17 31.2956C73.1529 31.2814 73.1444 31.2631 73.1444 31.2406L73.1394 25.7318C73.1393 25.7277 73.1401 25.7235 73.1416 25.7197C73.1432 25.7158 73.1455 25.7123 73.1485 25.7093C73.1515 25.7064 73.155 25.704 73.1589 25.7024C73.1628 25.7008 73.167 25.7 73.1713 25.7H87.2031C87.224 25.7 87.2344 25.7104 87.2344 25.7312V57.7462C87.2344 57.7543 87.2376 57.7621 87.2434 57.7678C87.2491 57.7736 87.2569 57.7768 87.265 57.7768L95.4375 57.7724Z" fill="#FCFAFA"/>
<path d="M5 60.5237V59.2656L17.5244 59.2643C17.5335 59.2643 17.5422 59.2677 17.549 59.2738C17.5557 59.2799 17.5598 59.2884 17.5606 59.2974C17.7387 61.3156 18.59 63.6874 20.9381 63.9487C25.7612 64.4856 25.9362 59.8049 25.9362 56.4612C25.9379 47.8529 25.9381 39.2452 25.9369 30.6381C25.9369 30.6296 25.9403 30.6215 25.9464 30.6155C25.9525 30.6096 25.9607 30.6062 25.9694 30.6062H39.14C39.1483 30.6062 39.1562 30.6095 39.1621 30.6154C39.1679 30.6212 39.1712 30.6292 39.1712 30.6375C39.1733 38.4091 39.1725 46.1852 39.1687 53.9656C39.1675 57.1918 38.9944 60.5343 38.2075 63.6743C37.6719 65.8112 36.6537 67.6793 35.0975 69.2512C31.9987 72.3812 28.0475 73.7362 23.6919 73.8812C21.6435 73.9491 19.6227 73.8501 17.6294 73.5843C16.1525 73.3868 14.5869 73.0262 13.205 72.4324C8.10812 70.2412 5.76562 65.8124 5 60.5237Z" fill="#FCFAFA"/>
<path d="M95.4999 49.0005V49.2824C95.4737 49.1878 95.4737 49.0938 95.4999 49.0005Z" fill="#E61E26"/>
<path fill-rule="evenodd" clip-rule="evenodd" d="M68.3075 48.5287C70.1044 48.958 71.9262 49.6537 73.4137 50.7662C76.4544 53.0399 77.4812 56.693 77.1262 60.3718C76.7975 63.7737 74.9987 66.7799 72.175 68.703C70.4919 69.8493 68.5362 70.2943 66.5556 70.5468C64.9231 70.7549 63.2962 70.9562 61.655 71.0905C60.5627 71.18 59.449 71.1635 58.3393 71.147H58.3393C57.7047 71.1376 57.0715 71.1282 56.4444 71.1387C55.2836 71.1577 54.1233 71.1507 52.9631 71.1436H52.963C51.9181 71.1373 50.8733 71.1309 49.8281 71.1437C49.3606 71.1495 48.9442 71.1514 48.5787 71.1493C44.96 71.1299 41.34 71.1318 37.7212 71.1399C37.6987 71.1399 37.6875 71.1287 37.6875 71.1062V67.4818C37.6875 67.4623 37.6936 67.4432 37.705 67.4274C38.6463 66.1424 39.3127 64.733 39.7044 63.1993C40.4731 60.1868 40.6694 56.8662 40.67 53.7893C40.6725 45.8868 40.6729 37.9864 40.6712 30.088C40.6712 30.0763 40.6666 30.065 40.6583 30.0567C40.6499 30.0483 40.6386 30.0437 40.6269 30.0437H37.7344C37.7031 30.0437 37.6875 30.028 37.6875 29.9968V28.6205C37.6875 28.6084 37.6922 28.5968 37.7007 28.5883C37.7091 28.5797 37.7206 28.5749 37.7325 28.5749C46.1712 28.5745 54.6094 28.5747 63.0469 28.5755C64.7969 28.5755 66.7756 28.9112 68.4819 29.5518C72.1262 30.9205 74.8037 34.143 75.1506 38.0605C75.3981 40.8562 74.7562 43.3674 72.9694 45.5199C71.7694 46.9643 70.0519 47.8787 68.3056 48.4937C68.3018 48.4949 68.2985 48.4973 68.2962 48.5006C68.2956 48.5016 68.295 48.5026 68.2946 48.5036C68.2942 48.5046 68.2938 48.5055 68.2936 48.5065C68.2932 48.5082 68.293 48.5101 68.2931 48.5119C68.2933 48.5159 68.2948 48.5197 68.2974 48.5227C68.3 48.5258 68.3036 48.5278 68.3075 48.5287ZM59.6762 37.5342C61.8362 38.1236 62.5894 40.2492 62.1469 42.2667C61.535 45.0605 58.8981 45.2705 56.5587 45.283C54.7212 45.2926 52.8842 45.2961 51.0475 45.2936C51.039 45.2936 51.0309 45.2903 51.025 45.2843C51.019 45.2783 51.0156 45.2702 51.0156 45.2617V37.2474C51.0156 37.2348 51.0206 37.2227 51.0294 37.2138C51.0381 37.2049 51.0501 37.1999 51.0625 37.1999C53.1246 37.1986 55.1715 37.199 57.2031 37.2011C58.0431 37.2024 58.8675 37.3134 59.6762 37.5342ZM63.8537 58.5649C64.32 56.2443 63.155 54.288 60.8419 53.7343C60.0677 53.5493 59.3442 53.4451 58.6712 53.4218C56.8378 53.3585 54.9953 53.3684 53.1582 53.3783C52.454 53.3821 51.7505 53.3859 51.0487 53.3855C51.04 53.3855 51.0315 53.389 51.0253 53.3952C51.0191 53.4014 51.0156 53.4099 51.0156 53.4187V61.9811C51.0156 61.9881 51.0183 61.9948 51.0231 61.9997C51.0279 62.0046 51.0344 62.0074 51.0412 62.0074C53.2804 62.0203 55.5206 62.0176 57.7619 61.9993C60.2675 61.9786 63.2487 61.5736 63.8537 58.5649Z" fill="#FCFAFA"/>
<path d="M95.4999 55.875V57.7663C95.4961 57.7646 95.4926 57.7627 95.4893 57.7606L95.4999 55.875Z" fill="#E61E26"/>
</svg>
