<svg width="100" height="100" viewBox="0 0 100 100" fill="none" xmlns="http://www.w3.org/2000/svg">
<rect width="100" height="100" fill="#0079C2"/>
<path d="M76.6188 42.7214C61.9565 55.3408 69.962 24.3916 70.6718 21.15C70.6876 21.0764 70.7376 21.0396 70.8217 21.0396C70.8901 21.0396 70.9216 21.0711 70.9163 21.1342C70.7376 23.8369 70.9085 27.2073 71.429 31.2455C72.691 40.9704 83.6226 35.2207 87.787 32.192C89.1857 31.1772 89.2566 31.2639 88 32.4523C84.4823 35.7964 80.6885 39.2195 76.6188 42.7214Z" fill="#9FCF67"/>
<path d="M53.8329 43.5813C49.5948 40.9575 45.4383 38.1444 41.3632 35.142C41.3452 35.1272 41.3333 35.1063 41.3297 35.0833C41.3262 35.0603 41.3312 35.0368 41.3439 35.0172C41.3566 34.9977 41.3761 34.9835 41.3985 34.9774C41.421 34.9714 41.445 34.9738 41.4658 34.9842C44.5575 36.4907 51.9715 39.8349 55.292 38.6045C60.0558 36.8456 58.9832 26.9788 58.2102 23.1219C58.1524 22.8222 58.2549 22.7486 58.5178 22.9011C58.7124 23.0115 58.7781 23.1982 58.715 23.4611C58.6519 23.7135 58.6624 23.9606 58.7466 24.2025C60.508 29.1924 62.1407 34.2192 63.6445 39.2827C66.5075 48.9288 58.4074 46.4127 53.8329 43.5813Z" fill="#9FCF67"/>
<path d="M73.1723 55.3802C67.8879 52.2964 72.2969 48.266 75.9881 47.2091C81.0727 45.7474 86.8881 44.4381 93.4345 43.2813C93.5239 43.2656 93.5948 43.2708 93.6474 43.2971C93.7053 43.3287 93.7394 43.3812 93.75 43.4549C93.7552 43.4917 93.7421 43.5153 93.7105 43.5258C91.602 44.1831 88.4393 45.6659 84.2223 47.9742C76.2483 52.3437 84.7901 60.2309 88.994 62.739C90.7344 63.7801 90.6608 63.9115 88.7732 63.1333C83.5361 60.9775 78.3358 58.3931 73.1723 55.3802Z" fill="#9FCF67"/>
<path d="M48.2567 55.3644C47.2945 51.7363 32.0012 51.8231 29.5089 51.4129C29.4625 51.4028 29.4211 51.3769 29.3917 51.3396C29.3623 51.3024 29.3467 51.256 29.3476 51.2086C29.3486 51.1611 29.3659 51.1154 29.3968 51.0794C29.4276 51.0433 29.4701 51.019 29.5168 51.0107C36.163 50.1641 42.8146 49.4753 49.4713 48.9443C54.3377 48.5578 57.8869 48.1477 61.4283 49.7645C65.6164 51.689 64.2913 55.4512 61.9488 58.3379C57.7949 63.4435 53.2624 68.0102 48.3513 72.0379C47.9044 72.406 47.8413 72.3481 48.1621 71.8644C50.2968 68.678 51.9374 65.247 53.0836 61.5716C53.1454 61.3676 53.1494 61.1505 53.0951 60.9444C53.0408 60.7383 52.9303 60.5514 52.7761 60.4043C52.3186 59.9679 51.7244 59.9232 50.9935 60.2702C36.2866 67.3161 21.4824 74.2752 6.58091 81.1476C6.49986 81.1847 6.40893 81.1944 6.32187 81.1752C6.23482 81.156 6.15639 81.109 6.09845 81.0413C6.04051 80.9735 6.00622 80.8887 6.00077 80.7998C5.99532 80.7108 6.019 80.6225 6.06824 80.5481C6.45734 79.9803 7.00681 79.4965 7.71666 79.0969C21.0565 71.6146 34.3805 64.1481 47.6888 56.6973C47.9169 56.5685 48.0961 56.3681 48.1988 56.1272C48.3014 55.8862 48.3218 55.6181 48.2567 55.3644Z" fill="white"/>
<path d="M71.1139 57.8253C75.0049 62.1475 78.4043 66.8955 81.312 72.0695C81.3192 72.0799 81.3244 72.0915 81.3271 72.1039C81.3299 72.1162 81.3301 72.129 81.3279 72.1414C81.3257 72.1539 81.3211 72.1658 81.3143 72.1765C81.3075 72.1871 81.2987 72.1963 81.2883 72.2036C81.278 72.2108 81.2663 72.216 81.2539 72.2187C81.2416 72.2215 81.2288 72.2217 81.2164 72.2195C81.2039 72.2173 81.192 72.2127 81.1814 72.2059C81.1707 72.1991 81.1615 72.1903 81.1542 72.1799C79.2377 69.8374 73.1567 63.4173 69.781 64.9553C66.3264 66.5248 64.2126 73.5996 63.5501 76.9911C63.549 76.9974 63.5455 77.003 63.5404 77.0067C63.5352 77.0104 63.5288 77.0119 63.5225 77.0108C63.5162 77.0098 63.5106 77.0063 63.5069 77.0011C63.5032 76.9959 63.5017 76.9895 63.5028 76.9832C63.7604 71.1888 64.2284 65.4101 64.9067 59.6472C65.2695 56.5633 68.9449 55.4197 71.1139 57.8253Z" fill="#9FCF67"/>
</svg>
