<svg width="100" height="100" viewBox="0 0 100 100" fill="none" xmlns="http://www.w3.org/2000/svg">
<rect width="100" height="100" fill="#EDFFFA"/>
<path d="M79.0702 19.2142C80.2835 20.1942 80.1102 20.6676 78.5502 20.6342C72.3202 20.4842 66.9202 18.4942 60.4602 15.0642C54.1002 11.7042 49.0602 9.97424 42.5102 8.95424C42.424 8.93769 42.3465 8.89104 42.2915 8.82262C42.2365 8.7542 42.2077 8.66847 42.2101 8.58074C42.2125 8.49301 42.246 8.40899 42.3046 8.34368C42.3633 8.27838 42.4432 8.23604 42.5302 8.22424C56.2902 7.01757 68.4702 10.6809 79.0702 19.2142Z" fill="#4DAA8F"/>
<path d="M60.8804 19.1942C65.6504 21.5842 75.0604 23.5442 81.7404 22.6742C82.1137 22.6275 82.4104 22.7575 82.6304 23.0642L86.3404 28.2342C86.4003 28.3176 86.4373 28.4151 86.4479 28.5172C86.4586 28.6193 86.4424 28.7224 86.401 28.8163C86.3596 28.9102 86.2944 28.9917 86.2119 29.0527C86.1293 29.1137 86.0323 29.1521 85.9304 29.1642C66.9104 31.5142 52.5804 19.2242 35.0704 14.5542C33.6204 14.1642 31.2604 14.2142 29.4604 13.6742C29.3994 13.6546 29.3467 13.6153 29.3104 13.5626C29.2741 13.5098 29.2563 13.4466 29.2597 13.3826C29.2631 13.3187 29.2876 13.2577 29.3293 13.2091C29.3711 13.1606 29.4277 13.1272 29.4904 13.1142C41.0004 11.0742 50.5504 14.0342 60.8804 19.1942Z" fill="#4DAA8F"/>
<path d="M44.6302 22.2043C57.2702 27.0843 71.7602 35.3543 85.5602 32.4343C85.7069 32.4009 85.8236 32.4276 85.9102 32.5143C86.0969 32.6943 86.0669 32.8276 85.8202 32.9143C76.7002 35.8743 69.4002 35.5843 59.4102 33.1143C43.7002 29.2243 28.9402 23.2943 12.7202 29.2643C12.6721 29.2812 12.62 29.283 12.5708 29.2695C12.5217 29.2559 12.4778 29.2277 12.4452 29.1885C12.4125 29.1493 12.3926 29.1011 12.3882 29.0503C12.3837 28.9995 12.3949 28.9485 12.4202 28.9043C14.5402 25.2343 17.7002 20.2843 22.0302 19.1343C28.9802 17.2943 38.0802 19.6643 44.6302 22.2043Z" fill="#4DAA8F"/>
<path d="M42.9003 34.1341C59.7003 38.1841 74.0003 41.5641 89.7403 36.0941C90.107 35.9608 90.337 36.0841 90.4303 36.4641L92.4103 44.4141C92.497 44.7608 92.3803 45.0208 92.0603 45.1941C89.4003 46.6408 86.5036 47.4008 83.3703 47.4741C67.6503 47.8441 54.5303 44.6841 37.3203 40.0241C27.9203 37.4741 17.0203 37.8541 8.57029 42.7441C8.44746 42.8116 8.30425 42.8344 8.16578 42.8084C8.0273 42.7824 7.90238 42.7094 7.81293 42.602C7.72348 42.4947 7.6752 42.3599 7.67654 42.2213C7.67789 42.0828 7.72878 41.9492 7.82029 41.8441C16.1503 32.2041 31.3003 31.3441 42.9003 34.1341Z" fill="#ADCF5E"/>
<path d="M73.1304 50.9442C79.3838 51.3709 85.4738 50.7009 91.4004 48.9342C92.7004 48.5476 92.8371 48.7976 91.8104 49.6842C84.4704 56.0442 70.9904 56.7442 62.0704 55.9642C44.2704 54.3942 22.7204 48.7042 10.5604 66.4042C10.2804 66.8109 10.0571 66.7809 9.89042 66.3142C9.09708 64.0676 8.22708 60.7376 7.28042 56.3242C6.13042 51.0342 8.60042 48.9742 13.1704 47.1042C31.6904 39.4942 56.4604 49.8042 73.1304 50.9442Z" fill="#ADCF5E"/>
<path d="M54.3503 59.9843C67.1703 61.3343 80.8403 61.4143 92.1103 54.3843C92.1887 54.3346 92.2803 54.3097 92.3731 54.313C92.4659 54.3163 92.5555 54.3477 92.6301 54.4028C92.7048 54.458 92.761 54.5345 92.7913 54.6222C92.8217 54.7099 92.8249 54.8047 92.8003 54.8943L89.9503 65.4343C89.8356 65.8581 89.6214 66.2481 89.3256 66.5717C89.0298 66.8953 88.6611 67.1431 88.2503 67.2943C63.9203 76.2643 38.8903 56.9143 16.2303 73.7443C16.1823 73.7821 16.1229 73.8025 16.0618 73.8022C16.0007 73.8019 15.9415 73.7808 15.8939 73.7425C15.8463 73.7042 15.8131 73.6509 15.7998 73.5913C15.7864 73.5316 15.7936 73.4692 15.8203 73.4143C16.3603 72.1543 17.077 70.9743 17.9703 69.8743C27.9403 57.6543 40.2003 58.5043 54.3503 59.9843Z" fill="#FAAD3D"/>
<path d="M45.8304 72.5642C60.4604 75.1942 73.4404 79.1642 85.0704 73.2142C85.0887 73.2082 85.1084 73.2081 85.1267 73.214C85.145 73.22 85.1609 73.2316 85.1721 73.2473C85.1833 73.263 85.1892 73.2818 85.1889 73.3011C85.1885 73.3203 85.1821 73.3389 85.1704 73.3542C77.5804 80.3242 70.0504 81.8042 59.6304 80.6442C47.9704 79.3642 36.7304 77.8942 27.4804 85.5842C27.2204 85.8042 26.9371 85.8376 26.6304 85.6842C23.8237 84.2642 21.3237 82.4376 19.1304 80.2042C19.0177 80.0889 18.949 79.9377 18.9363 79.7769C18.9235 79.6161 18.9674 79.456 19.0604 79.3242C23.8204 72.4642 38.6904 71.2742 45.8304 72.5642Z" fill="#E86636"/>
<path d="M48.2804 85.1142C58.7304 86.1042 68.2804 85.4542 77.3204 81.1542C80.2671 79.7542 80.4804 80.0876 77.9604 82.1542C65.4004 92.4442 46.7104 95.1442 32.1404 88.3142C30.9871 87.7742 31.0171 87.3042 32.2304 86.9042C37.4238 85.1842 42.7738 84.5876 48.2804 85.1142Z" fill="#E86636"/>
</svg>
