<svg width="100" height="100" viewBox="0 0 100 100" fill="none" xmlns="http://www.w3.org/2000/svg">
<rect width="100" height="100" fill="#DBE7FF"/>
<path d="M29.4165 61.9446L28.9545 27.1445C28.9508 26.954 28.9905 26.7652 29.0706 26.5926C29.1507 26.42 29.2689 26.2681 29.4165 26.1485L35.3925 21.2525C35.5822 21.0974 35.8203 21.0145 36.0645 21.0185L48.7245 21.2345C48.8396 21.2361 48.9495 21.283 49.0303 21.3649C49.1112 21.4469 49.1565 21.5574 49.1565 21.6725C49.1605 34.7565 49.1605 47.8946 49.1565 61.0866C49.1565 61.4906 49.2385 61.9826 49.4025 62.5626C49.4625 62.7826 49.6065 62.8926 49.8345 62.8926L51.0825 62.8746C51.3785 62.8706 51.5285 62.7206 51.5325 62.4246L51.6165 21.8165C51.6165 21.66 51.6789 21.5099 51.7901 21.3986C51.9014 21.2874 52.0524 21.2241 52.2105 21.2225C55.9145 21.1825 59.5965 21.1085 63.2565 21.0005C65.2605 20.9465 69.3705 24.9185 70.7206 26.3525C70.8358 26.4753 70.8983 26.6391 70.8945 26.8085L70.3905 61.6626C70.3825 62.0266 70.5605 62.2186 70.9245 62.2386C73.8926 62.3946 76.9326 62.4606 80.0446 62.4366C82.5706 62.4186 87.0706 65.9046 89.1646 67.3926C89.3206 67.5006 89.3946 67.6506 89.3866 67.8426L89.1646 73.3086C89.1568 73.5182 89.0674 73.7166 88.9152 73.8621C88.763 74.0076 88.5599 74.0888 88.3486 74.0886L12.1304 74.1126C11.6904 74.1126 11.4524 73.8926 11.4164 73.4526L11.0024 68.0226C10.9901 67.8598 11.0249 67.6969 11.1026 67.5533C11.1802 67.4097 11.2975 67.2914 11.4404 67.2126C13.8924 65.8646 16.3724 64.5066 18.8804 63.1386C21.3104 61.8066 26.3024 62.2686 29.0924 62.2746C29.3125 62.2786 29.4205 62.1686 29.4165 61.9446Z" fill="#234998"/>
<path d="M89.6208 78.8346C89.6208 79.1051 89.5133 79.3645 89.322 79.5558C89.1307 79.7471 88.8713 79.8546 88.6007 79.8546H13.2046C12.9341 79.8546 12.6746 79.7471 12.4833 79.5558C12.292 79.3645 12.1846 79.1051 12.1846 78.8346V76.6626C12.1846 76.3921 12.292 76.1326 12.4833 75.9413C12.6746 75.75 12.9341 75.6426 13.2046 75.6426H88.6007C88.8713 75.6426 89.1307 75.75 89.322 75.9413C89.5133 76.1326 89.6208 76.3921 89.6208 76.6626V78.8346Z" fill="#234998"/>
</svg>
