<svg width="100" height="100" viewBox="0 0 100 100" fill="none" xmlns="http://www.w3.org/2000/svg">
<g clip-path="url(#clip0_79_4236)">
<rect width="100" height="100" fill="white"/>
<path fill-rule="evenodd" clip-rule="evenodd" d="M94.162 56.888C94.0045 66.1805 87.382 72.7805 77.902 72.7355C77.677 72.7355 77.5645 72.623 77.5645 72.398V70.5155C77.5641 70.3984 77.6079 70.2855 77.6872 70.1993C77.7664 70.1131 77.8753 70.06 77.992 70.0505C85.0045 69.5255 90.0295 66.1805 91.0945 58.928C93.0967 45.3382 83.1521 45.3472 73.824 45.3555C72.6346 45.3566 71.4553 45.3577 70.312 45.3305C70.022 45.3255 69.877 45.468 69.877 45.758L69.8695 107.258C69.8695 107.473 69.967 107.533 70.162 107.438C99.5 112.5 111 112.5 106.859 55.3955C107.109 52.0646 107.628 48.0692 108.19 43.7443C111.353 19.3907 115.872 -15.4087 81.367 -0.816996C65.072 -12.602 46.572 -15.837 25.867 -10.522C25.6915 -10.4771 25.5359 -10.3747 25.4246 -10.2308C25.3133 -10.0869 25.2526 -9.90972 25.252 -9.727V81.533C25.252 81.5999 25.2385 81.6662 25.2123 81.7278C25.186 81.7894 25.1475 81.845 25.0991 81.8912C25.0508 81.9375 24.9935 81.9735 24.9308 81.997C24.8681 82.0205 24.8013 82.0311 24.7345 82.028L22.9795 81.938C22.6195 81.918 22.4395 81.728 22.4395 81.368V-8.7895C22.4395 -9.0495 22.317 -9.1345 22.072 -9.0445C-22.5 -15 -26.798 39.098 -15.458 70.718C-12.0003 122 33.0445 121.591 66.607 108.841C66.837 108.756 66.952 108.591 66.952 108.346L67.1095 42.938C67.1095 42.733 67.212 42.628 67.417 42.623C68.4646 42.6044 69.5481 42.5689 70.6518 42.5328C81.5579 42.1759 94.4344 41.7545 94.162 56.888ZM33.6895 81.4956V47.0856C33.6883 47.0444 33.6991 47.0039 33.7206 46.9688C33.7422 46.9338 33.7736 46.9056 33.8113 46.8876C33.8489 46.8695 33.8913 46.8624 33.9335 46.8669C33.9756 46.8714 34.0159 46.8874 34.0495 46.9131L44.737 55.3656C45.0946 55.6486 45.5359 55.8045 45.991 55.8085C46.4462 55.8126 46.8891 55.6646 47.2495 55.3881L58.042 47.0706C58.0791 47.0423 58.1234 47.0251 58.1698 47.0209C58.2163 47.0167 58.2629 47.0257 58.3045 47.0469C58.346 47.068 58.3807 47.1005 58.4046 47.1405C58.4285 47.1805 58.4406 47.2265 58.4395 47.2731V81.3981C58.4395 81.6231 58.552 81.7456 58.777 81.7656L60.577 81.9456C60.6393 81.9508 60.7019 81.9432 60.761 81.9233C60.82 81.9034 60.8742 81.8717 60.92 81.8301C60.9659 81.7884 61.0024 81.7379 61.0273 81.6816C61.0522 81.6253 61.0649 81.5645 61.0645 81.5031V44.6031C61.0642 44.3204 60.9848 44.0435 60.8354 43.8036C60.6859 43.5637 60.4723 43.3705 60.2187 43.2456C59.9651 43.1208 59.6817 43.0694 59.4004 43.0972C59.1191 43.125 58.8512 43.231 58.627 43.4031L46.4695 52.8006C46.3619 52.8821 46.2309 52.9262 46.0968 52.9262C45.9626 52.9262 45.8326 52.8821 45.7271 52.8006L33.9295 43.6431C33.6669 43.4399 33.3526 43.3144 33.0223 43.2807C32.6919 43.2471 32.3587 43.3066 32.0605 43.4526C31.7623 43.5986 31.5109 43.8252 31.3349 44.1068C31.1589 44.3883 31.0652 44.7135 31.0645 45.0456V81.3981C31.0645 81.7731 31.252 81.9606 31.627 81.9606H33.217C33.532 81.9606 33.6895 81.8056 33.6895 81.4956Z" fill="#002C49"/>
</g>
<defs>
<clipPath id="clip0_79_4236">
<rect width="100" height="100" fill="white"/>
</clipPath>
</defs>
</svg>
