<svg width="100" height="100" viewBox="0 0 100 100" fill="none" xmlns="http://www.w3.org/2000/svg">
<rect width="100" height="100" fill="#FFF5D1"/>
<path d="M9.19967 54.8086C9.20316 57.8342 10.949 57.2406 13.1453 57.2563C13.2093 57.2575 13.2419 57.2901 13.2431 57.3541C13.2582 58.2061 13.2594 59.0447 13.2466 59.8699C13.2344 60.7778 12.7368 60.7219 11.9686 60.7743C9.10714 60.975 5.00436 60.7219 5.00262 56.7954C4.99913 50.8956 4.99913 44.9963 5.00262 39.0976C5.00262 39.0382 5.03172 39.0085 5.08991 39.0085H8.40006C8.50347 39.0085 8.60585 39.0289 8.70138 39.0685C8.79691 39.1081 8.88371 39.166 8.95683 39.2392C9.02994 39.3123 9.08794 39.3991 9.12751 39.4946C9.16708 39.5901 9.18745 39.6925 9.18745 39.7959C9.19094 44.7542 9.19501 49.7584 9.19967 54.8086Z" fill="#FDB934"/>
<path d="M19.434 39.1587C19.516 41.7513 18.0513 43.5338 15.4342 43.9843C15.3964 43.9906 15.3577 43.9886 15.3207 43.9785C15.2838 43.9683 15.2495 43.9502 15.2202 43.9255C15.191 43.9007 15.1675 43.8699 15.1514 43.8351C15.1353 43.8003 15.1269 43.7625 15.127 43.7241V39.0958C15.127 39.0727 15.1362 39.0505 15.1525 39.0341C15.1689 39.0177 15.1911 39.0085 15.2142 39.0085H19.2786C19.3189 39.0085 19.3577 39.0242 19.3867 39.0522C19.4157 39.0802 19.4326 39.1184 19.434 39.1587Z" fill="#C51E45"/>
<path d="M41.6727 52.286C41.6731 52.3015 41.6781 52.3164 41.6871 52.329C41.6961 52.3415 41.7087 52.351 41.7232 52.3563C41.7377 52.3616 41.7535 52.3624 41.7685 52.3586C41.7834 52.3547 41.7969 52.3465 41.8071 52.3349L47.228 46.0463C47.2542 46.0156 47.2869 45.991 47.3236 45.9741C47.3604 45.9573 47.4004 45.9485 47.441 45.9485H52.3172C52.3277 45.9485 52.3381 45.9515 52.3469 45.9572C52.3558 45.9629 52.3628 45.9711 52.367 45.9808C52.3713 45.9904 52.3727 46.0011 52.3709 46.0115C52.3692 46.0219 52.3645 46.0316 52.3573 46.0393L46.2067 53.0315C46.176 53.0665 46.1582 53.1109 46.1563 53.1576C46.1544 53.2043 46.1685 53.2503 46.1962 53.2881C47.6406 55.2342 49.0967 57.196 50.5643 59.1735C50.9892 59.7461 50.9636 60.2198 50.4875 60.5946C50.4367 60.6353 50.3733 60.6574 50.3077 60.6575H46.5035C46.475 60.6575 46.4469 60.6505 46.4217 60.6371C46.3964 60.6237 46.3748 60.6043 46.3586 60.5806L41.8228 53.784C41.8115 53.7669 41.795 53.754 41.7758 53.7472C41.7565 53.7404 41.7356 53.74 41.7161 53.7461C41.6966 53.7522 41.6796 53.7645 41.6677 53.7811C41.6557 53.7977 41.6495 53.8177 41.65 53.8381C41.6674 55.6038 41.6698 57.3904 41.657 59.1979C41.6517 60.0359 41.7058 60.6609 40.7142 60.6592C39.6574 60.6569 38.6075 60.6563 37.5647 60.6575C37.5528 60.6577 37.5411 60.6555 37.5301 60.6511C37.5191 60.6466 37.509 60.6399 37.5006 60.6315C37.4921 60.623 37.4854 60.6129 37.4808 60.6018C37.4762 60.5907 37.4739 60.5787 37.4739 60.5667V39.0977C37.4739 39.0407 37.5018 39.0122 37.5577 39.0122C38.5842 39.004 39.6027 39.0035 40.6129 39.0105C41.295 39.0139 41.6366 39.3334 41.6378 39.9689C41.6482 44.0915 41.6599 48.1972 41.6727 52.286Z" fill="#FDB934"/>
<path d="M90.9373 46.0638C91.0025 46.108 91.0042 46.1889 90.9426 46.3065C90.8925 46.3379 90.8535 46.3652 90.8256 46.3885C90.793 46.4153 90.7767 46.456 90.7767 46.5107C90.7488 49.3681 90.7546 52.2249 90.7942 55.0812C90.8308 57.8379 92.76 57.2565 94.6944 57.253C94.7287 57.2526 94.7617 57.2659 94.7863 57.2902C94.8108 57.3144 94.8249 57.3475 94.8253 57.3822C94.8265 58.1807 94.8265 58.9867 94.8253 59.8003C94.8253 60.3939 94.6543 60.7326 94.0362 60.7745C90.5724 61.0101 86.5814 60.9455 86.5779 56.2928C86.5767 53.9941 86.5762 51.7099 86.5762 49.4403C86.5762 49.406 86.5625 49.3732 86.5383 49.3489C86.5141 49.3247 86.4812 49.3111 86.447 49.3111C85.705 49.3111 84.0062 49.6376 83.8805 48.5586C83.841 48.2153 83.8445 47.3685 83.891 46.0184C83.8922 45.9683 83.9178 45.9433 83.9678 45.9433L86.5308 45.959C86.5442 45.959 86.5571 45.9537 86.5666 45.9442C86.5761 45.9347 86.5814 45.9218 86.5814 45.9084L86.5744 39.0995C86.5744 39.0425 86.6023 39.014 86.6582 39.014C87.7278 39.0058 88.7922 39.0012 89.8514 39C90.5986 39 90.7592 39.4836 90.761 40.1575C90.768 42.0582 90.7691 43.9594 90.7645 45.8613C90.7645 46.0254 90.8221 46.0929 90.9373 46.0638Z" fill="#FDB934"/>
<path d="M15.1707 46.1092C15.1707 46.0657 15.1879 46.0239 15.2187 45.9931C15.2495 45.9624 15.2912 45.9451 15.3348 45.9451H18.4057C18.5321 45.9451 18.6572 45.9714 18.7739 46.0225C18.8906 46.0737 18.9966 46.1487 19.0859 46.2432C19.1753 46.3377 19.2461 46.4499 19.2945 46.5734C19.3428 46.6969 19.3677 46.8292 19.3677 46.9629V59.6519C19.3677 59.7855 19.3428 59.9179 19.2945 60.0414C19.2461 60.1649 19.1753 60.2771 19.0859 60.3716C18.9966 60.4661 18.8906 60.5411 18.7739 60.5922C18.6572 60.6434 18.5321 60.6697 18.4057 60.6697H15.3348C15.2912 60.6697 15.2495 60.6524 15.2187 60.6216C15.1879 60.5909 15.1707 60.5491 15.1707 60.5056V46.1092Z" fill="#FDB934"/>
<path d="M25.8988 48.6231C25.8984 48.6408 25.9036 48.6582 25.9136 48.6729C25.9236 48.6876 25.9379 48.6987 25.9544 48.7047C25.9709 48.7108 25.9888 48.7113 26.0055 48.7064C26.0221 48.7014 26.0367 48.6912 26.0472 48.6772C27.4334 46.8056 29.4726 46.329 31.6636 46.844C34.1427 47.4272 34.9738 49.7073 35.0017 52.0066C35.0343 54.6929 35.0419 57.3478 35.0244 59.9712C35.023 60.1537 34.9496 60.3282 34.8201 60.4567C34.6906 60.5852 34.5155 60.6573 34.333 60.6573H30.967C30.9369 60.6573 30.9081 60.6454 30.8868 60.6241C30.8655 60.6028 30.8535 60.574 30.8535 60.5439C30.8361 58.1753 30.832 55.798 30.8413 53.412C30.85 51.5649 30.2512 49.9447 28.0218 50.3672C26.4662 50.6623 26.0472 52.0555 26.0419 53.5447C26.0373 55.6723 26.0367 57.7941 26.0402 59.9101C26.0402 60.1083 25.9615 60.2984 25.8213 60.4385C25.6812 60.5786 25.4912 60.6573 25.293 60.6573H21.9357C21.8775 60.6573 21.8484 60.6282 21.8484 60.5701V46.0741C21.8484 46.0415 21.8612 46.0103 21.8841 45.9871C21.9069 45.9639 21.938 45.9506 21.9706 45.9502C22.5363 45.9478 23.4854 45.9513 24.8181 45.9606C26.234 45.9711 25.9424 47.7013 25.8988 48.6231Z" fill="#FDB934"/>
<path d="M57.4292 48.7435C57.4295 48.7551 57.4335 48.7662 57.4406 48.7753C57.4477 48.7844 57.4575 48.791 57.4687 48.7941C57.4798 48.7972 57.4916 48.7967 57.5024 48.7926C57.5132 48.7886 57.5224 48.7811 57.5287 48.7715C58.7386 46.8894 60.9331 46.3342 63.0683 46.7969C65.7709 47.38 66.5339 49.8906 66.5635 52.3557C66.5938 54.8791 66.599 57.4019 66.5792 59.9241C66.5779 60.119 66.4993 60.3055 66.3606 60.4429C66.2219 60.5802 66.0344 60.6573 65.839 60.6573H62.5219C62.5041 60.6573 62.4864 60.6538 62.47 60.6469C62.4536 60.6401 62.4387 60.63 62.4262 60.6173C62.4137 60.6047 62.4038 60.5896 62.3972 60.5731C62.3905 60.5566 62.3872 60.5389 62.3874 60.5211C62.4142 57.8569 62.4049 55.2108 62.3595 52.5827C62.342 51.6225 61.7048 50.4615 60.5298 50.3392C57.918 50.0669 57.609 52.0205 57.5811 54.0335C57.5531 56.0028 57.5438 57.96 57.5531 59.9048C57.5536 60.0035 57.5345 60.1013 57.497 60.1925C57.4595 60.2838 57.4043 60.3668 57.3345 60.4367C57.2647 60.5066 57.1818 60.5621 57.0905 60.6C56.9992 60.6378 56.9013 60.6573 56.8024 60.6573H53.4713C53.398 60.6573 53.3613 60.6207 53.3613 60.5473V46.1212C53.3613 46.0754 53.3794 46.0314 53.4114 45.999C53.4435 45.9666 53.487 45.9484 53.5324 45.9484C54.4857 45.9449 55.4471 45.9496 56.4166 45.9624C57.1167 45.9711 57.3611 46.3656 57.382 47.0413C57.3995 47.6151 57.4152 48.1825 57.4292 48.7435Z" fill="#FDB934"/>
<path d="M90.9425 46.3062C91.0042 46.1887 91.0024 46.1078 90.9373 46.0635C91.8119 45.772 93.9035 46.0181 94.8847 46.0496C94.9155 46.0505 94.9448 46.0634 94.9663 46.0856C94.9879 46.1077 94.9999 46.1374 94.9999 46.1683V49.3074C94.9999 49.3552 94.9808 49.4011 94.9468 49.4351C94.9128 49.4691 94.8666 49.4885 94.8183 49.4889C92.6604 49.5041 91.3685 48.4432 90.9425 46.3062Z" fill="#C51E45"/>
<path d="M70.5473 49.2988C72.3438 47.1392 75.3135 46.2749 78.0196 46.8127C82.0473 47.6123 83.2328 51.3694 82.9709 55.0933C82.9674 55.1364 82.9447 55.1579 82.9028 55.1579H73.3459C73.2016 55.1579 73.1475 55.2278 73.1836 55.3674C73.9448 58.3249 77.4819 58.6357 79.2557 56.408C79.2944 56.3589 79.3496 56.3254 79.4114 56.3135C79.4732 56.3017 79.5375 56.3122 79.5926 56.3434C80.2223 56.7065 80.8566 57.0923 81.4956 57.5009C82.1591 57.9234 82.297 58.4471 81.6894 58.9936C79.4291 61.0246 76.8249 61.5635 73.8767 60.6103C69.0948 59.0652 67.3297 53.1641 70.5473 49.2988ZM73.2342 52.3139L78.8245 52.2755C78.8296 52.2755 78.8344 52.2735 78.838 52.2699C78.8416 52.2663 78.8437 52.2614 78.8437 52.2563V52.2441C78.8388 51.5534 78.547 50.893 78.0323 50.4081C77.5176 49.9232 76.8223 49.6536 76.0992 49.6584H75.9246C75.5664 49.6608 75.2121 49.7306 74.8821 49.8638C74.5521 49.997 74.2527 50.191 74.0011 50.4346C73.7494 50.6783 73.5505 50.9669 73.4156 51.284C73.2808 51.601 73.2126 51.9403 73.215 52.2825V52.2947C73.215 52.2998 73.217 52.3047 73.2206 52.3083C73.2242 52.3119 73.2291 52.3139 73.2342 52.3139Z" fill="#FDB934"/>
</svg>
