<svg width="100" height="100" viewBox="0 0 100 100" fill="none" xmlns="http://www.w3.org/2000/svg">
<rect width="100" height="100" fill="white"/>
<path d="M58.26 35.6676C50.84 39.961 45.16 38.461 41.22 31.1676C41.06 30.8716 40.8227 30.6248 40.5337 30.4538C40.2447 30.2829 39.915 30.1943 39.58 30.1976L19.45 30.4776C19.1367 30.4776 18.9733 30.6343 18.96 30.9476L18.68 37.5776C18.6667 37.931 18.8367 38.1076 19.19 38.1076C27.2 38.1476 32.92 43.7876 32.01 51.7976C31.22 58.7676 26.09 62.1476 19.24 63.8576C19.0681 63.9002 18.9175 64.0038 18.8164 64.1492C18.7152 64.2945 18.6703 64.4716 18.69 64.6476L19.02 67.5576C19.0427 67.7522 19.1396 67.9304 19.2905 68.0553C19.4414 68.1801 19.6347 68.2418 19.83 68.2276L25.49 67.8676C25.8537 67.8466 26.2063 67.7327 26.5143 67.5367C26.8223 67.3407 27.0755 67.0691 27.25 66.7476C31.6033 58.7076 36.0267 50.651 40.52 42.5776C41.3133 41.1643 42.27 40.4776 43.39 40.5176C43.6594 40.528 43.9228 40.6005 44.1596 40.7295C44.3964 40.8585 44.6002 41.0404 44.7551 41.2611C44.91 41.4818 45.0118 41.7353 45.0525 42.0019C45.0933 42.2684 45.0719 42.5407 44.99 42.7976L32.74 81.6776C32.6133 82.0776 32.34 82.281 31.92 82.2877L20.56 82.3976C19.96 82.4043 19.78 82.131 20.02 81.5776L23.23 74.0776C23.2663 73.9875 23.2785 73.8893 23.2654 73.7931C23.2523 73.6968 23.2144 73.6059 23.1554 73.5297C23.0964 73.4534 23.0186 73.3946 22.9298 73.3591C22.841 73.3236 22.7445 73.3127 22.65 73.3276C19.73 73.7543 16.99 73.261 14.43 71.8477C14.3003 71.7787 14.1918 71.6752 14.116 71.5484C14.0403 71.4216 14.0002 71.2762 14 71.1277V60.1176C13.9991 59.8404 14.0609 59.5666 14.1808 59.3164C14.3006 59.0662 14.4755 58.8461 14.6925 58.6723C14.9095 58.4986 15.163 58.3756 15.4343 58.3124C15.7056 58.2493 15.9878 58.2477 16.26 58.3076C24.32 60.1176 31.09 54.0076 26.69 46.5576C24.09 42.1676 19.28 42.8876 14.62 43.2076C14.5405 43.2131 14.4608 43.2022 14.3858 43.1755C14.3107 43.1488 14.2419 43.107 14.1838 43.0526C14.1256 42.9982 14.0793 42.9323 14.0477 42.8592C14.016 42.7861 13.9998 42.7073 14 42.6276V26.8876C14 26.4057 14.1911 25.9433 14.5319 25.6007C14.8726 25.258 15.3355 25.0629 15.82 25.0576L40.12 24.8276C40.44 24.8276 40.6567 24.6776 40.77 24.3776C44.76 13.9576 56.38 15.0076 60.66 24.8076C68.9267 43.701 77.1967 62.5676 85.47 81.4076C85.4947 81.4664 85.505 81.5304 85.4999 81.5938C85.4949 81.6573 85.4747 81.7184 85.4411 81.7717C85.4076 81.825 85.3617 81.8689 85.3074 81.8996C85.2532 81.9303 85.1923 81.9468 85.13 81.9476L72.02 82.2276C71.62 82.2343 71.37 82.0443 71.27 81.6576L58.74 35.8676C58.6667 35.5943 58.5067 35.5276 58.26 35.6676Z" fill="#FC6C35"/>
<path d="M55.59 27.6777C55.59 28.8765 55.1138 30.0262 54.2662 30.8738C53.4185 31.7215 52.2688 32.1977 51.0701 32.1977C49.8713 32.1977 48.7216 31.7215 47.8739 30.8738C47.0263 30.0262 46.55 28.8765 46.55 27.6777C46.55 26.4789 47.0263 25.3293 47.8739 24.4816C48.7216 23.6339 49.8713 23.1577 51.0701 23.1577C52.2688 23.1577 53.4185 23.6339 54.2662 24.4816C55.1138 25.3293 55.59 26.4789 55.59 27.6777Z" fill="white"/>
<path d="M41.0701 36.6277C41.0701 37.8159 40.5981 38.9554 39.7579 39.7955C38.9178 40.6357 37.7783 41.1077 36.5901 41.1077C35.4019 41.1077 34.2624 40.6357 33.4223 39.7955C32.5821 38.9554 32.1101 37.8159 32.1101 36.6277C32.1101 35.4395 32.5821 34.3 33.4223 33.4599C34.2624 32.6197 35.4019 32.1477 36.5901 32.1477C37.7783 32.1477 38.9178 32.6197 39.7579 33.4599C40.5981 34.3 41.0701 35.4395 41.0701 36.6277Z" fill="#FC6C35"/>
<path d="M37.3799 82.1676C37.307 82.1672 37.2352 82.15 37.17 82.1171C37.1048 82.0842 37.0478 82.0366 37.0035 81.9778C36.9592 81.919 36.9286 81.8506 36.9141 81.7778C36.8996 81.705 36.9016 81.6297 36.9199 81.5576L47.3699 42.0576C47.5105 41.5519 47.8321 41.1155 48.2735 40.8314C48.7149 40.5474 49.2453 40.4354 49.7639 40.5169C50.2824 40.5984 50.7529 40.8676 51.0859 41.2734C51.4189 41.6791 51.5911 42.1931 51.5699 42.7176L49.6599 81.5176C49.6496 81.7174 49.5629 81.9057 49.4178 82.0435C49.2726 82.1812 49.08 82.2578 48.8799 82.2576L37.3799 82.1676Z" fill="#FC6C35"/>
<path d="M53.91 82.1277C53.8106 82.1277 53.7123 82.108 53.6206 82.0697C53.529 82.0314 53.4458 81.9752 53.3761 81.9045C53.3063 81.8338 53.2513 81.7499 53.2142 81.6578C53.1771 81.5656 53.1587 81.467 53.16 81.3677L53.56 42.4877C53.5626 42.1314 53.706 41.7906 53.9589 41.5396C54.2118 41.2886 54.5537 41.1477 54.91 41.1477H56.77C57.1833 41.1477 57.4633 41.3377 57.61 41.7177C57.8766 42.4177 58.09 43.0977 58.25 43.7577C61.31 56.3377 64.2866 68.9411 67.18 81.5677C67.2733 81.9611 67.1166 82.1577 66.71 82.1577L53.91 82.1277Z" fill="#FC6C35"/>
</svg>
