<svg width="100" height="100" viewBox="0 0 100 100" fill="none" xmlns="http://www.w3.org/2000/svg">
<rect width="100" height="100" fill="white"/>
<path d="M68.6806 41.7669L68.4931 42.697C66.1381 50.242 64.698 57.3069 61.0905 64.3794C61.0655 64.4394 61.033 64.4619 60.993 64.4469C60.933 64.4269 60.8705 64.4069 60.8055 64.3869C60.7605 64.3719 60.7455 64.3419 60.7605 64.2969C62.4405 59.0394 64.4205 53.5569 65.2455 48.0894C65.5055 46.3544 65.783 44.6194 66.0781 42.8844C66.243 41.9294 66.3331 40.2894 66.3331 40.2894C66.7131 36.2644 66.8006 32.8794 66.5956 30.1344C66.0481 22.9494 61.413 13.5294 52.3605 19.5219C49.278 21.5619 46.278 24.7344 43.458 27.3369C43.133 27.6369 43.0605 27.5844 43.2405 27.1794C43.4155 26.7794 43.6805 26.4669 44.0355 26.2419C44.1192 26.1879 44.1864 26.1156 44.2305 26.0319C47.6355 19.7244 53.8605 12.5544 60.813 11.0169C66.4456 9.77194 69.6706 18.1644 70.1206 22.4619C70.7956 28.9469 70.3156 35.3819 68.6806 41.7669Z" fill="#F6BB1E"/>
<path d="M65.8682 40.8221V41.1971C57.6782 38.0171 49.0807 35.6545 40.3757 34.8145C40.0957 34.7745 39.8282 34.8095 39.5732 34.9195C34.8882 34.4995 30.2907 34.8695 25.7807 36.0295C21.8357 37.042 15.9706 40.627 17.6806 45.532C19.8032 51.6295 24.4157 55.2745 29.4932 58.8745C29.5188 58.8889 29.5373 58.9121 29.5451 58.9396C29.5529 58.967 29.5492 58.9965 29.5349 59.0222C29.5207 59.0479 29.4968 59.0679 29.4682 59.0781C29.4395 59.0882 29.4083 59.0878 29.3807 59.077C22.7607 56.497 17.3081 52.3445 13.0231 46.6195C10.3306 43.0195 9.85064 38.0395 13.6081 35.062C19.8781 30.0895 34.0157 30.8395 41.3732 32.2345C49.8132 33.8395 57.6682 37.0571 65.8682 40.8221Z" fill="#1B4520"/>
<path d="M39.5732 34.9196C39.8282 34.8096 40.0957 34.7746 40.3757 34.8146C37.0207 43.1146 34.9182 51.6846 34.0682 60.5246C34.0752 60.5651 34.0905 60.6453 34.1121 60.7532C34.1337 60.8612 34.1604 60.9913 34.1882 61.1246C34.2082 61.2196 34.2132 61.3321 34.2032 61.4621L34.1807 61.7021C33.5207 67.2221 34.2582 72.3121 36.3932 76.972C41.3058 87.6895 52.5033 77.7295 56.0283 72.1271C58.7183 67.8621 58.9333 67.9996 56.6733 72.5396C53.9583 77.9995 48.8358 84.802 42.8958 87.397C34.1732 91.2145 30.8882 81.292 30.5507 74.9846C29.8007 61.0121 33.4382 47.2646 39.5732 34.9196Z" fill="#D42D28"/>
<path d="M68.8682 41.947C75.5732 44.3545 87.2732 52.1096 88.2107 59.7596C89.4557 69.9371 72.8582 70.6871 66.4307 70.2071C55.1957 69.3571 44.4457 66.5221 34.1807 61.7021L34.2032 61.4621C34.6532 61.3871 35.0432 61.4096 35.3732 61.5296C47.5607 66.0746 62.9357 69.1796 75.5582 64.9496C78.7157 63.8846 82.4282 60.8171 81.6932 57.0596C80.3957 50.4971 74.4332 44.932 68.8682 42.322V41.947Z" fill="#305DA4"/>
</svg>
