<svg width="100" height="100" viewBox="0 0 100 100" fill="none" xmlns="http://www.w3.org/2000/svg">
<rect width="100" height="100" fill="#947117"/>
<path fill-rule="evenodd" clip-rule="evenodd" d="M90.5402 49.77C90.5402 60.5829 86.2448 70.9529 78.5989 78.5987C70.953 86.2446 60.583 90.54 49.7701 90.54C38.9572 90.54 28.5872 86.2446 20.9413 78.5987C13.2954 70.9529 9 60.5829 9 49.77C9 38.9571 13.2954 28.5871 20.9413 20.9413C28.5872 13.2954 38.9572 9 49.7701 9C60.583 9 70.953 13.2954 78.5989 20.9413C86.2448 28.5871 90.5402 38.9571 90.5402 49.77ZM54.7915 65.5465L77.0928 65.419C77.2953 65.419 77.3465 65.3315 77.2465 65.1565L55.1102 26.824C55.0102 26.649 54.9065 26.6478 54.799 26.8203L46.2977 40.7215C46.2452 40.809 46.2189 40.9028 46.2189 41.0028L46.2977 83.059C46.2975 83.1048 46.2877 83.1499 46.2687 83.1916C46.2497 83.2332 46.2221 83.2703 46.1877 83.3005C46.1533 83.3306 46.1129 83.3531 46.0692 83.3664C46.0254 83.3798 45.9793 83.3836 45.9339 83.3778C38.8964 82.4228 32.8152 79.7328 27.6902 75.3078C15.5889 64.8565 12.3376 47.2165 20.2726 33.2703C31.1064 14.2165 56.4865 10.2115 72.6228 24.8928C87.1203 38.0815 87.2403 61.1253 72.7803 74.4678C67.6278 79.2228 61.3202 82.2053 53.8577 83.4153C53.7785 83.4284 53.6973 83.424 53.62 83.4025C53.5426 83.381 53.4708 83.3428 53.4098 83.2906C53.3487 83.2385 53.2997 83.1736 53.2663 83.1006C53.233 83.0275 53.2159 82.9481 53.2165 82.8678L53.479 37.9465C53.48 37.9173 53.4905 37.8892 53.5088 37.8665C53.5271 37.8438 53.5524 37.8276 53.5807 37.8204C53.609 37.8132 53.6389 37.8154 53.6658 37.8267C53.6928 37.8379 53.7154 37.8576 53.7302 37.8828L65.119 58.2003C65.2115 58.3653 65.164 58.449 64.9765 58.4515L58.3652 58.5715C58.3095 58.5728 58.2551 58.5891 58.2076 58.6187C58.1601 58.6484 58.1213 58.6904 58.0952 58.7403L54.6265 65.2765C54.529 65.459 54.584 65.549 54.7915 65.5465ZM44.4788 58.2675L34.7326 58.08C34.7117 58.0796 34.6914 58.0737 34.6735 58.063C34.6556 58.0523 34.6408 58.0371 34.6306 58.0189C34.6204 58.0007 34.6151 57.9802 34.6152 57.9594C34.6153 57.9385 34.6209 57.9181 34.6313 57.9L53.9588 24.5663C53.9688 24.5477 53.9737 24.5268 53.9731 24.5058C53.9724 24.4847 53.9662 24.4642 53.9551 24.4463L50.1376 18.0788C50.1268 18.0617 50.1118 18.0477 50.0941 18.038C50.0764 18.0283 50.0565 18.0232 50.0363 18.0232C50.0161 18.0232 49.9963 18.0283 49.9786 18.038C49.9609 18.0477 49.9459 18.0617 49.9351 18.0788L21.4463 65.235C21.4347 65.2534 21.4284 65.2746 21.4279 65.2963C21.4275 65.3181 21.4329 65.3395 21.4437 65.3584C21.4545 65.3772 21.4702 65.3928 21.4891 65.4035C21.5081 65.4141 21.5296 65.4194 21.5513 65.4188H40.9088C40.9311 65.4193 40.953 65.4136 40.9722 65.4023C40.9914 65.3911 41.0071 65.3747 41.0176 65.355L44.5801 58.4438C44.5896 58.4258 44.5944 58.4058 44.5941 58.3855C44.5938 58.3652 44.5883 58.3453 44.5782 58.3277C44.5681 58.3101 44.5536 58.2953 44.5363 58.2848C44.5189 58.2743 44.4991 58.2683 44.4788 58.2675Z" fill="#FFD200"/>
</svg>
