<svg width="100" height="100" viewBox="0 0 100 100" fill="none" xmlns="http://www.w3.org/2000/svg">
<rect width="100" height="100" fill="#D7180E"/>
<path fill-rule="evenodd" clip-rule="evenodd" d="M61.6777 68.1258C54.3611 73.3202 45.1243 72.2425 38.2329 66.9119C38.1283 66.8293 38.0251 66.8321 37.9233 66.9202C25.2347 78.0975 6.12537 67.6221 5.05181 51.8284C3.84613 34.0239 23.9381 22.4749 38.65 33.0288C38.7656 33.1114 38.8757 33.1045 38.9803 33.0082C45.9254 26.7072 55.8021 28.4951 62.2517 34.4864C62.2968 34.5287 62.3567 34.5515 62.4185 34.55C62.4804 34.5484 62.5391 34.5226 62.582 34.4781C66.5996 30.3532 71.125 28.2019 77.0915 29.3292C91.4648 32.0337 99.4875 47.2121 92.3525 60.4045C86.4191 71.3754 72.6115 74.8521 62.0617 68.1176C61.9324 68.035 61.8044 68.0378 61.6777 68.1258ZM11.9927 61.536C3.30515 50.8376 9.60609 34.8953 22.9595 32.3889C27.6446 31.5108 32.1783 32.4206 36.5606 35.1182C36.7065 35.2063 36.7285 35.3192 36.6267 35.4568C32.7429 40.6869 30.646 47.996 29.1535 53.1986L28.992 53.761C27.2248 59.8885 23.4508 67.6057 15.4281 64.2281C14.1646 63.6968 13.0195 62.7995 11.9927 61.536ZM64.1966 65.4667C64.0397 65.6511 64.0673 65.8025 64.2792 65.9209C77.6863 73.4812 93.9424 63.014 91.6136 47.3855C90.5896 40.4982 83.9294 31.5217 76.3691 38.3429C73.9577 40.5189 72.2937 44.7842 71.311 47.8975C70.9955 48.8993 70.6788 49.9871 70.3483 51.122L70.3482 51.1222L70.3481 51.1224C68.9051 56.0776 67.2 61.9325 64.1966 65.4667ZM60.0712 37.2529C60.2832 37.3575 60.3286 37.5103 60.2075 37.7112C57.5544 42.1066 55.9866 47.4955 54.4875 52.6482C54.2742 53.3815 54.0622 54.1101 53.8487 54.8303C53.837 54.8693 53.8145 54.9041 53.7837 54.9308C53.753 54.9575 53.7153 54.9748 53.675 54.9809C53.6348 54.987 53.5937 54.9814 53.5564 54.965C53.5192 54.9486 53.4874 54.9219 53.4647 54.8881L47.3578 45.4986C47.2725 45.3665 47.2546 45.2261 47.3042 45.0775C49.1457 39.5404 53.3615 33.9909 60.0712 37.2529ZM40.2852 63.7615C40.1861 63.9404 40.2315 64.0684 40.4214 64.1455C45.8594 66.3504 49.8976 63.8234 52.2264 58.9181C52.2925 58.7832 52.2842 58.6524 52.2017 58.5258L46.0617 48.9753C46.0474 48.9529 46.0269 48.935 46.0028 48.9238C45.9786 48.9126 45.9517 48.9085 45.9253 48.9119C45.8989 48.9154 45.874 48.9263 45.8536 48.9434C45.8332 48.9604 45.818 48.983 45.8099 49.0083C44.3977 53.9384 42.837 59.2814 40.2852 63.7615Z" fill="white"/>
</svg>
