<svg width="100" height="100" viewBox="0 0 100 100" fill="none" xmlns="http://www.w3.org/2000/svg">
<rect width="100" height="100" fill="#020201"/>
<rect width="50" height="100" fill="#DA0905"/>
<path d="M49.7277 42.005L11.9327 36.335C11.927 36.3343 11.9213 36.3348 11.9158 36.3365C11.9104 36.3382 11.9054 36.341 11.9011 36.3448C11.8969 36.3486 11.8935 36.3533 11.8911 36.3585C11.8888 36.3637 11.8877 36.3693 11.8877 36.375L12.2227 65.4975C12.2227 65.5859 12.2669 65.6242 12.3552 65.6125L49.5877 60.555" stroke="#EA7D78" stroke-width="0.5"/>
<path d="M49.5874 60.5551L87.2624 65.7626C87.2708 65.764 87.2795 65.7635 87.2878 65.7612C87.296 65.7588 87.3037 65.7547 87.3104 65.749C87.317 65.7433 87.3224 65.7362 87.3262 65.7282C87.33 65.7202 87.3321 65.7115 87.3324 65.7026L87.7699 36.5551C87.7716 36.4817 87.7357 36.4501 87.6624 36.4601C69.9441 39.1517 57.5166 41.0184 50.3799 42.0601C50.0266 42.1117 49.8091 42.0934 49.7274 42.0051" stroke="#7E7A76" stroke-width="0.5"/>
<path d="M49.7277 42.005C49.8094 42.0934 50.0269 42.1117 50.3802 42.06C57.5169 41.0184 69.9444 39.1517 87.6627 36.46C87.736 36.45 87.7719 36.4817 87.7702 36.555L87.3327 65.7025C87.3324 65.7114 87.3303 65.7202 87.3265 65.7282C87.3227 65.7362 87.3173 65.7433 87.3107 65.749C87.304 65.7546 87.2963 65.7588 87.288 65.7611C87.2798 65.7635 87.2711 65.764 87.2627 65.7625L49.5877 60.555L12.3552 65.6125C12.2669 65.6242 12.2227 65.5859 12.2227 65.4975L11.8877 36.375C11.8877 36.3693 11.8888 36.3637 11.8911 36.3585C11.8935 36.3533 11.8969 36.3486 11.9011 36.3448C11.9054 36.341 11.9104 36.3382 11.9158 36.3365C11.9213 36.3348 11.927 36.3343 11.9327 36.335L49.7277 42.005Z" fill="#FAF1EB"/>
<path d="M22.2649 49.235L20.5374 49.17C20.5022 49.1687 20.4685 49.155 20.4421 49.1313C20.4157 49.1076 20.3981 49.0754 20.3924 49.04C19.9949 46.715 17.2799 46.5375 16.3724 48.64C15.5874 50.455 15.3849 54.745 17.9574 55.505C19.3424 55.915 20.4274 54.7 20.4899 53.34C20.4912 53.2998 20.5081 53.2617 20.537 53.2337C20.566 53.2057 20.6046 53.19 20.6449 53.19L22.3024 53.1875C22.3924 53.1875 22.4357 53.2325 22.4324 53.3225C22.3957 54.5125 22.0632 55.55 21.4349 56.435C19.9974 58.4625 17.0624 58.405 15.5149 56.545C13.2599 53.8325 13.1074 45.9025 17.5174 44.8525C20.3399 44.18 22.0274 46.7025 22.3674 49.1225C22.3696 49.1367 22.3686 49.1512 22.3644 49.165C22.3603 49.1788 22.353 49.1915 22.3432 49.2023C22.3334 49.213 22.3213 49.2215 22.3078 49.2272C22.2943 49.2328 22.2796 49.2355 22.2649 49.235Z" fill="#020201"/>
<path d="M70.7748 44.85C76.5023 44.285 76.8323 55.335 72.8498 57.4825C71.1598 58.3925 69.1798 57.98 68.0023 56.44C65.8473 53.62 65.9848 45.32 70.7748 44.85Z" fill="#020201"/>
<path d="M25.375 52.0775V57.4225C25.375 57.4431 25.3668 57.4628 25.3523 57.4773C25.3377 57.4918 25.318 57.5 25.2975 57.5H23.525C23.5044 57.5 23.4847 57.4918 23.4702 57.4773C23.4556 57.4628 23.4475 57.4431 23.4475 57.4225L23.335 45.2025C23.335 45.1819 23.3431 45.1622 23.3577 45.1477C23.3722 45.1332 23.3919 45.125 23.4125 45.125H25.235C25.2555 45.125 25.2752 45.1332 25.2898 45.1477C25.3043 45.1622 25.3125 45.1819 25.3125 45.2025V49.7975C25.3125 49.8181 25.3206 49.8378 25.3352 49.8523C25.3497 49.8668 25.3694 49.875 25.39 49.875H29C29.0104 49.875 29.0206 49.8729 29.0302 49.8689C29.0398 49.8648 29.0484 49.8589 29.0557 49.8514C29.0629 49.844 29.0686 49.8351 29.0723 49.8254C29.076 49.8157 29.0778 49.8054 29.0775 49.795L28.985 45.205C28.9846 45.1946 28.9864 45.1843 28.9901 45.1746C28.9939 45.1649 28.9995 45.156 29.0068 45.1486C29.014 45.1411 29.0226 45.1352 29.0322 45.1311C29.0418 45.1271 29.0521 45.125 29.0625 45.125H30.9125C30.933 45.125 30.9527 45.1332 30.9673 45.1477C30.9818 45.1622 30.99 45.1819 30.99 45.2025L31.0825 57.4225C31.0825 57.4431 31.0743 57.4628 31.0598 57.4773C31.0452 57.4918 31.0255 57.5 31.005 57.5H29.1575C29.1369 57.5 29.1172 57.4918 29.1027 57.4773C29.0881 57.4628 29.08 57.4431 29.08 57.4225L29.055 52.0775C29.055 52.0569 29.0468 52.0372 29.0323 52.0227C29.0177 52.0082 28.998 52 28.9775 52H25.4525C25.4319 52 25.4122 52.0082 25.3977 52.0227C25.3831 52.0372 25.375 52.0569 25.375 52.0775Z" fill="#020201"/>
<path d="M34.9974 55.1825L34.4299 57.4425C34.4255 57.459 34.4158 57.4736 34.4022 57.484C34.3887 57.4944 34.372 57.5 34.3549 57.5H32.5224C32.5106 57.5 32.4988 57.4973 32.4881 57.4921C32.4775 57.4868 32.4681 57.4792 32.4609 57.4698C32.4536 57.4603 32.4487 57.4494 32.4463 57.4377C32.444 57.426 32.4444 57.414 32.4474 57.4025L35.5575 45.1825C35.5619 45.166 35.5716 45.1514 35.5852 45.141C35.5987 45.1306 35.6154 45.125 35.6324 45.125H37.6924C37.7095 45.125 37.7262 45.1306 37.7397 45.141C37.7533 45.1514 37.763 45.166 37.7674 45.1825L40.9924 57.4025C40.9955 57.414 40.9959 57.426 40.9936 57.4377C40.9912 57.4494 40.9863 57.4603 40.979 57.4698C40.9718 57.4792 40.9624 57.4868 40.9518 57.4921C40.9411 57.4973 40.9293 57.5 40.9174 57.5H39.1074C39.0904 57.5 39.0737 57.4944 39.0602 57.484C39.0466 57.4736 39.0369 57.459 39.0324 57.4425L38.4274 55.1825C38.423 55.166 38.4133 55.1514 38.3997 55.141C38.3862 55.1306 38.3695 55.125 38.3525 55.125H35.0724C35.0554 55.125 35.0387 55.1306 35.0252 55.141C35.0116 55.1514 35.0019 55.166 34.9974 55.1825Z" fill="#020201"/>
<path d="M44.1877 50.4425V57.375C44.1877 57.4583 44.146 57.5 44.0627 57.5H42.3852C42.3085 57.5 42.2702 57.4617 42.2702 57.385L42.2002 45.3375C42.1999 45.3097 42.2051 45.2821 42.2157 45.2564C42.2262 45.2306 42.2418 45.2072 42.2616 45.1874C42.2813 45.1676 42.3049 45.1519 42.3308 45.1412C42.3568 45.1305 42.3846 45.125 42.4127 45.125H44.9102C44.9529 45.125 44.9943 45.1396 45.0278 45.1664C45.0614 45.1931 45.0851 45.2305 45.0952 45.2725L46.7877 52.9025C46.7925 52.9228 46.804 52.9408 46.8204 52.9537C46.8367 52.9666 46.8569 52.9736 46.8777 52.9736C46.8985 52.9736 46.9187 52.9666 46.9351 52.9537C46.9514 52.9408 46.9629 52.9228 46.9677 52.9025L48.6902 45.24C48.6971 45.209 48.7144 45.1814 48.739 45.1618C48.7636 45.1422 48.794 45.1319 48.8252 45.1325L51.4427 45.185C51.5277 45.1867 51.5702 45.2308 51.5702 45.3175L51.5602 57.3775C51.5602 57.4592 51.5185 57.5 51.4352 57.5H49.8127C49.6877 57.5 49.6252 57.4375 49.6252 57.3125V49.9625C49.6269 49.9472 49.6224 49.932 49.6128 49.92C49.6032 49.9081 49.5892 49.9004 49.574 49.8988C49.5587 49.8971 49.5434 49.9016 49.5315 49.9112C49.5195 49.9208 49.5119 49.9348 49.5102 49.95L47.9227 57.365C47.9044 57.455 47.8494 57.5 47.7577 57.5H45.9877C45.9473 57.4998 45.9083 57.486 45.8773 57.4609C45.8463 57.4358 45.8252 57.4011 45.8177 57.3625L44.3402 50.4275C44.3356 50.4095 44.3248 50.3938 44.3096 50.3832C44.2944 50.3725 44.276 50.3677 44.2575 50.3695C44.2391 50.3713 44.2219 50.3797 44.2091 50.3931C44.1963 50.4064 44.1887 50.424 44.1877 50.4425Z" fill="#020201"/>
<path d="M53.7876 45.1425C56.4676 45.2175 60.8351 44.215 60.8726 48.425C60.8876 50.225 61.0576 51.9125 59.2351 52.8325C58.2926 53.3075 56.8651 53.115 55.7476 53.13C55.7149 53.1306 55.6837 53.1438 55.6608 53.1667C55.6379 53.1896 55.6251 53.2204 55.6251 53.2525V57.3125C55.6251 57.4375 55.5626 57.5 55.4376 57.5H53.8451C53.7417 57.5 53.6892 57.4483 53.6876 57.345L53.6851 45.2425C53.6851 45.1742 53.7192 45.1408 53.7876 45.1425Z" fill="#020201"/>
<path d="M64.5592 57.4343C64.5592 57.4515 64.5523 57.4681 64.5401 57.4802C64.5279 57.4924 64.5114 57.4992 64.4941 57.4992L62.6791 57.496C62.6619 57.496 62.6454 57.4891 62.6332 57.4769C62.6211 57.4647 62.6142 57.4481 62.6143 57.4309L62.6355 45.2409C62.6356 45.2237 62.6424 45.2071 62.6546 45.195C62.6669 45.1828 62.6834 45.176 62.7006 45.176L64.5156 45.1792C64.5329 45.1792 64.5494 45.1861 64.5616 45.1983C64.5737 45.2105 64.5805 45.2271 64.5805 45.2443L64.5592 57.4343Z" fill="#020201"/>
<path d="M79.0875 57.5H77.2875C77.2669 57.5 77.2472 57.4918 77.2327 57.4773C77.2181 57.4628 77.21 57.4431 77.21 57.4225L77.355 45.28C77.355 45.2599 77.3628 45.2405 77.3768 45.2261C77.3908 45.2116 77.4098 45.2031 77.43 45.2025L79.2625 45.155C79.2776 45.1546 79.2926 45.1586 79.3055 45.1666C79.3184 45.1746 79.3286 45.1862 79.335 45.2L82.91 53C82.9164 53.0172 82.9288 53.0316 82.9449 53.0405C82.961 53.0494 82.9797 53.0523 82.9977 53.0487C83.0157 53.0451 83.0319 53.0352 83.0433 53.0208C83.0547 53.0064 83.0606 52.9884 83.06 52.97L83.1475 45.2025C83.1475 45.1819 83.1556 45.1622 83.1702 45.1477C83.1847 45.1332 83.2044 45.125 83.225 45.125H85.05C85.0705 45.125 85.0902 45.1332 85.1048 45.1477C85.1193 45.1622 85.1275 45.1819 85.1275 45.2025L84.9725 57.4225C84.9725 57.4431 84.9643 57.4628 84.9498 57.4773C84.9352 57.4918 84.9155 57.5 84.895 57.5H83.0475C83.0327 57.4999 83.0183 57.4957 83.0059 57.4877C82.9935 57.4797 82.9836 57.4684 82.9775 57.455L79.395 49.63C79.3874 49.6142 79.3748 49.6014 79.359 49.5936C79.3433 49.5859 79.3254 49.5838 79.3083 49.5876C79.2912 49.5913 79.2758 49.6008 79.2648 49.6144C79.2537 49.628 79.2476 49.645 79.2475 49.6625L79.165 57.4225C79.165 57.4431 79.1568 57.4628 79.1423 57.4773C79.1277 57.4918 79.108 57.5 79.0875 57.5Z" fill="#020201"/>
<path d="M71.0164 55.6245C70.6737 55.6191 70.3361 55.5046 70.0228 55.2876C69.7095 55.0706 69.4267 54.7552 69.1905 54.3596C68.9543 53.964 68.7694 53.4958 68.6463 52.9818C68.5232 52.4678 68.4643 51.9181 68.473 51.364C68.4906 50.2449 68.7824 49.176 69.2842 48.3924C69.7861 47.6088 70.4568 47.1746 71.149 47.1855C71.4917 47.1909 71.8293 47.3054 72.1426 47.5224C72.4559 47.7394 72.7387 48.0547 72.9749 48.4503C73.211 48.846 73.396 49.3141 73.5191 49.8281C73.6422 50.3421 73.7011 50.8919 73.6924 51.446C73.6748 52.565 73.383 53.634 72.8811 54.4176C72.3793 55.2012 71.7085 55.6353 71.0164 55.6245Z" fill="#FAF1EB"/>
<path d="M55.6201 47.4901C55.6201 47.4607 55.6316 47.4324 55.6522 47.4114C55.6727 47.3904 55.7007 47.3782 55.7301 47.3776L57.4926 47.3726C57.6818 47.3718 57.8692 47.4022 58.0443 47.462C58.2193 47.5218 58.3784 47.6098 58.5126 47.721C58.6468 47.8322 58.7534 47.9644 58.8263 48.1101C58.8993 48.2558 58.9371 48.4121 58.9376 48.5701L58.9426 49.7701C58.9437 50.0889 58.7932 50.3952 58.5241 50.6216C58.255 50.848 57.8894 50.9761 57.5076 50.9776L55.7451 50.9826C55.7301 50.9829 55.7152 50.9802 55.7013 50.9747C55.6874 50.9692 55.6747 50.961 55.6639 50.9505C55.6532 50.94 55.6447 50.9275 55.6389 50.9137C55.6331 50.8999 55.6301 50.8851 55.6301 50.8701L55.6201 47.4901Z" fill="#FAF1EB"/>
<path d="M35.6349 52.7876L36.6124 48.8501C36.6163 48.834 36.6255 48.8197 36.6384 48.8093C36.6514 48.799 36.6674 48.7933 36.6839 48.793C36.7005 48.7927 36.7167 48.7979 36.7299 48.8078C36.7432 48.8176 36.7529 48.8316 36.7574 48.8476L37.7899 52.7726C37.793 52.7837 37.7934 52.7954 37.7912 52.8068C37.789 52.8182 37.7842 52.8289 37.7772 52.8381C37.7702 52.8473 37.7611 52.8547 37.7508 52.8598C37.7404 52.8649 37.729 52.8676 37.7174 52.8676L35.7074 52.8801C35.6961 52.88 35.6849 52.8774 35.6748 52.8724C35.6646 52.8674 35.6558 52.8602 35.6488 52.8513C35.6418 52.8424 35.6369 52.8321 35.6345 52.821C35.6321 52.81 35.6322 52.7985 35.6349 52.7876Z" fill="#FAF1EB"/>
</svg>
