<svg width="100" height="100" viewBox="0 0 100 100" fill="none" xmlns="http://www.w3.org/2000/svg">
<rect width="100" height="100" fill="#092132"/>
<path d="M51.9159 9.50013C68.6759 7.01013 86.2759 13.7101 89.0159 32.0201C91.5359 48.7601 78.7159 63.5901 62.2559 65.0001C60.0659 65.1801 58.0159 64.5801 55.8759 64.1301C55.8043 64.1143 55.7394 64.0763 55.6905 64.0216C55.6416 63.9669 55.6112 63.8983 55.6034 63.8253C55.5957 63.7524 55.6111 63.6788 55.6474 63.6151C55.6837 63.5514 55.7392 63.5007 55.8059 63.4701C68.4459 57.8601 74.6859 46.0401 71.5859 32.5101C69.0159 21.3001 60.5759 13.9601 49.8959 10.0701C49.5825 9.9568 49.5759 9.82346 49.8759 9.67013C50.6559 9.25013 51.2759 9.60013 51.9159 9.50013Z" fill="#FDB720"/>
<path d="M34.9259 11.1402C59.7459 5.00018 79.7559 31.1702 67.0659 53.4102C67.0135 53.4974 66.9347 53.5657 66.8409 53.6053C66.7472 53.6448 66.6433 53.6535 66.5442 53.6301C66.4452 53.6068 66.3561 53.5525 66.2899 53.4753C66.2237 53.398 66.1838 53.3016 66.1759 53.2002C65.1459 37.8202 54.6159 27.9202 39.7359 25.8002C28.6226 24.2202 19.2659 28.4035 11.6659 38.3502C11.4059 38.6902 11.3226 38.6535 11.4159 38.2402C14.3759 25.3102 21.3459 14.5002 34.9259 11.1402Z" fill="#EE3126"/>
<path d="M30.7762 27.2002C40.6862 25.4402 52.7462 28.7502 59.4662 37.3602C59.5053 37.413 59.5272 37.4771 59.5287 37.5433C59.5301 37.6094 59.511 37.674 59.4741 37.7276C59.4372 37.7812 59.3845 37.8211 59.3237 37.8414C59.2629 37.8616 59.1972 37.8612 59.1362 37.8402C33.3762 29.5302 10.0062 57.6602 25.8362 80.9502C25.8845 81.0259 25.906 81.1158 25.8971 81.2052C25.8881 81.2946 25.8493 81.3784 25.787 81.4431C25.7246 81.5078 25.6423 81.5496 25.5532 81.5618C25.4642 81.5739 25.3736 81.5558 25.2962 81.5102C11.7462 73.2202 3.72618 59.3502 10.3862 43.5302C14.2062 34.4502 20.9962 28.9302 30.7762 27.2002Z" fill="#126BB5"/>
<path d="M37.9259 64.3001C42.1859 77.4201 57.0759 85.7701 70.8559 83.8001C70.9369 83.7898 71.019 83.8073 71.0888 83.8499C71.1585 83.8924 71.2117 83.9574 71.2396 84.0342C71.2675 84.1109 71.2685 84.1949 71.2424 84.2723C71.2162 84.3497 71.1646 84.4159 71.0959 84.4601C56.8259 93.2501 33.9359 96.2901 25.2159 77.6801C18.8225 64.0401 21.6892 52.1367 33.8159 41.9701C36.3292 39.8567 39.6559 38.4367 43.7959 37.7101C44.1892 37.6434 44.2759 37.7734 44.0559 38.1001C38.4159 46.4601 34.7359 54.5001 37.9259 64.3001Z" fill="#5EBB46"/>
<path d="M61.4759 66.0501C73.7359 66.6601 84.4059 57.7901 88.5659 46.7901C89.1259 45.3034 89.6892 43.8134 90.2559 42.3201C90.4025 41.9467 90.5092 41.9567 90.5759 42.3501C94.0359 62.0001 88.2559 83.0701 64.1659 82.6501C61.0992 82.5967 57.1992 81.3701 52.4659 78.9701C42.3359 73.8401 35.5059 62.5001 38.6259 50.8901C38.7726 50.3567 38.9925 50.3234 39.2859 50.7901C44.9259 59.7601 50.1559 65.4901 61.4759 66.0501Z" fill="#126BB5"/>
</svg>
