<svg width="100" height="100" viewBox="0 0 100 100" fill="none" xmlns="http://www.w3.org/2000/svg">
<rect width="100" height="100" fill="#D9F0FF"/>
<path d="M50.5491 59.666L28.4898 21.5413C28.4724 21.5112 28.4631 21.477 28.4629 21.4422C28.4627 21.4074 28.4716 21.3731 28.4886 21.3428C28.5057 21.3124 28.5304 21.2871 28.5602 21.2692C28.5901 21.2513 28.6241 21.2414 28.6589 21.2407L32.5359 21.1342C32.5724 21.1327 32.6086 21.1413 32.6407 21.159C32.6727 21.1766 32.6993 21.2027 32.7175 21.2344L52.8979 56.1961C52.9155 56.2266 52.9247 56.2611 52.9247 56.2963C52.9247 56.3315 52.9155 56.3661 52.8979 56.3965L50.8936 59.6722C50.8753 59.7018 50.8497 59.726 50.8191 59.7427C50.7886 59.7593 50.7543 59.7677 50.7196 59.7671C50.6849 59.7664 50.6509 59.7568 50.621 59.7391C50.5911 59.7213 50.5664 59.6962 50.5491 59.666Z" fill="#0D486D"/>
<path d="M41.8621 74.7793L11.0279 21.4975C11.01 21.4679 11.0004 21.434 11 21.3993C10.9996 21.3647 11.0086 21.3306 11.0258 21.3006C11.0431 21.2705 11.068 21.2457 11.0981 21.2285C11.1282 21.2114 11.1624 21.2026 11.197 21.2031H15.1617C15.1956 21.2027 15.2291 21.2111 15.2587 21.2276C15.2884 21.244 15.3132 21.268 15.3308 21.2971L44.1858 71.2281C44.204 71.2583 44.2137 71.293 44.2137 71.3283C44.2137 71.3636 44.204 71.3982 44.1858 71.4285L42.2003 74.7793C42.1834 74.8093 42.1589 74.8343 42.1292 74.8516C42.0994 74.869 42.0656 74.8781 42.0312 74.8781C41.9968 74.8781 41.963 74.869 41.9333 74.8516C41.9036 74.8343 41.879 74.8093 41.8621 74.7793Z" fill="#0D486D"/>
<path d="M46.7601 66.9565C46.7541 66.968 46.7194 67.0008 46.6614 67.0497C46.6035 67.0985 46.5257 67.1605 46.4407 67.2258C46.3029 67.3218 46.1839 67.2801 46.0837 67.1005C37.3443 51.9392 28.6028 36.7945 19.8592 21.6666C19.8318 21.6203 19.8174 21.5676 19.8174 21.5138C19.8173 21.46 19.8317 21.407 19.8589 21.3601C19.8862 21.3131 19.9254 21.274 19.9727 21.2464C20.0201 21.2189 20.0738 21.2039 20.1285 21.2031H23.6673C23.8802 21.2031 24.041 21.295 24.1496 21.4787L48.3823 63.449C48.4356 63.5425 48.4636 63.6483 48.4636 63.7559C48.4636 63.8636 48.4356 63.9693 48.3823 64.0628L46.7601 66.9565Z" fill="#EC6715"/>
<path d="M54.8898 52.125L37.1897 21.5226C37.1711 21.4904 37.1613 21.4539 37.1611 21.4168C37.161 21.3796 37.1706 21.3431 37.189 21.3108C37.2073 21.2785 37.2338 21.2516 37.2658 21.2327C37.2978 21.2138 37.3342 21.2036 37.3713 21.2032H41.2984C41.3364 21.2025 41.3738 21.2121 41.4068 21.2308C41.4399 21.2495 41.4673 21.2767 41.4863 21.3096L57.251 48.6051C57.2697 48.6374 57.2796 48.6742 57.2796 48.7115C57.2796 48.7489 57.2697 48.7856 57.251 48.818L55.2593 52.1313C55.2401 52.1635 55.2128 52.1901 55.18 52.2084C55.1472 52.2266 55.1102 52.2359 55.0727 52.2353C55.0352 52.2346 54.9986 52.2241 54.9664 52.2047C54.9343 52.1854 54.9079 52.1579 54.8898 52.125Z" fill="#EC6715"/>
<path d="M71.9199 44.3836L75.9597 44.3711C75.9943 44.3706 76.0285 44.3794 76.0586 44.3965C76.0887 44.4136 76.1136 44.4385 76.1309 44.4685C76.1481 44.4986 76.157 44.5327 76.1567 44.5673C76.1563 44.6019 76.1467 44.6358 76.1288 44.6655L56.4495 78.7315C56.432 78.7606 56.4072 78.7846 56.3775 78.8011C56.3478 78.8176 56.3143 78.826 56.2804 78.8255H52.2656C52.2319 78.8253 52.1988 78.8164 52.1696 78.7996C52.1404 78.7828 52.116 78.7587 52.099 78.7296C52.0819 78.7005 52.0727 78.6675 52.0723 78.6338C52.0718 78.6001 52.0802 78.5669 52.0965 78.5374L71.7508 44.4776C71.7683 44.4485 71.7931 44.4245 71.8228 44.4081C71.8525 44.3916 71.8859 44.3832 71.9199 44.3836Z" fill="#EC6715"/>
<path d="M89.8328 44.3775H93.7536C93.7973 44.3781 93.84 44.3902 93.8775 44.4125C93.915 44.4348 93.9461 44.4665 93.9676 44.5044C93.9891 44.5424 94.0004 44.5853 94.0002 44.629C94 44.6726 93.9884 44.7155 93.9666 44.7532L74.3499 78.6502C74.3288 78.6868 74.2988 78.7175 74.2627 78.7394C74.2265 78.7613 74.1854 78.7737 74.1432 78.7755L70.1347 78.9383C70.0895 78.941 70.0444 78.9314 70.0042 78.9106C69.964 78.8897 69.9302 78.8583 69.9064 78.8197C69.8826 78.7812 69.8698 78.7369 69.8692 78.6916C69.8686 78.6463 69.8802 78.6017 69.903 78.5625L89.6136 44.5027C89.6358 44.4643 89.6678 44.4325 89.7063 44.4105C89.7448 44.3884 89.7885 44.3771 89.8328 44.3775Z" fill="#EC6715"/>
<path d="M67.7859 45.6426L48.7204 78.7253C48.7014 78.7582 48.674 78.7854 48.6409 78.8042C48.6079 78.8229 48.5704 78.8324 48.5325 78.8318L44.6242 78.8193C44.5865 78.8199 44.5493 78.8105 44.5165 78.7921C44.4836 78.7736 44.4562 78.7468 44.4371 78.7143C44.418 78.6819 44.4079 78.6449 44.4077 78.6072C44.4076 78.5695 44.4174 78.5325 44.4363 78.4998L63.6834 45.2105C63.7029 45.1766 63.7313 45.1488 63.7656 45.13C63.7998 45.1112 63.8386 45.1022 63.8776 45.104L67.6168 45.3232C67.6528 45.3257 67.6877 45.3374 67.718 45.3572C67.7483 45.3769 67.773 45.404 67.79 45.436C67.8069 45.4679 67.8154 45.5037 67.8147 45.5398C67.814 45.576 67.804 45.6114 67.7859 45.6426Z" fill="#0D486D"/>
<path d="M84.1523 45.2041C84.4278 45.1582 84.7139 45.1519 85.0103 45.1853C85.3152 45.2187 85.3903 45.3691 85.2358 45.6363L66.2392 78.5248C66.1911 78.6054 66.1228 78.6724 66.0406 78.7196C65.9584 78.7667 65.8651 78.7924 65.7695 78.7942L61.9113 78.8881C61.7275 78.8923 61.6816 78.813 61.7735 78.6501L80.9079 45.5486C81.0081 45.3774 81.1563 45.273 81.3526 45.2354C82.1 45.0935 82.8307 45.0851 83.5447 45.2104C83.7451 45.2438 83.9477 45.2417 84.1523 45.2041Z" fill="#0D486D"/>
</svg>
