<svg width="100" height="100" viewBox="0 0 100 100" fill="none" xmlns="http://www.w3.org/2000/svg">
<g clip-path="url(#clip0_79_4254)">
<rect width="100" height="100" fill="#1A963E"/>
<path d="M101.494 5.82897C101.241 9.5117 101.282 13.0634 101.62 16.484C89.1791 17.9673 77.4053 21.1193 66.2983 25.9401C33.6186 40.1244 12.6533 68.891 0.71235 101.427C0.680212 101.513 0.516308 102.127 0.220637 103.268C0.0535182 103.904 -0.216442 104.491 -0.589245 105.028C-0.373919 102.809 -0.484796 101.03 -0.921875 99.6907C-0.362671 99.6076 -0.0268271 98.9363 0.0856565 97.6768C10.4936 63.6978 32.1435 32.0253 65.1317 16.5319C76.4186 11.2316 88.4977 7.59521 101.369 5.62277C101.379 5.61958 101.39 5.61478 101.403 5.60839C101.483 5.57322 101.514 5.64675 101.494 5.82897Z" fill="#BAD6B7"/>
<path d="M101.62 16.4839L101.861 31.023L101.374 30.5435C101.248 30.4188 101.107 30.3996 100.95 30.486C93.561 34.5395 86.0487 38.3581 78.4127 41.9417C49.3196 55.5986 22.7815 78.045 6.27054 105.761C4.89824 108.066 3.56129 110.37 2.25969 112.671L-0.276008 112.599C-0.472051 112.596 -0.570073 112.497 -0.570073 112.302L-0.589355 105.028C-0.216553 104.491 0.0534077 103.904 0.220526 103.268C0.516197 102.127 0.680102 101.513 0.71224 101.427C12.6532 68.8909 33.6185 40.1244 66.2982 25.9401C77.4052 21.1193 89.179 17.9672 101.62 16.4839Z" fill="#7CB57E"/>
<path d="M101.861 31.0229L101.914 111.573C101.917 112.519 101.443 112.994 100.492 112.997C68.5335 113.001 36.5705 113.001 4.60264 112.997C3.74776 112.997 2.96681 112.889 2.25977 112.671C3.56136 110.37 4.89831 108.066 6.27061 105.761C22.7816 78.0449 49.3197 55.5984 78.4128 41.9416C86.0488 38.358 93.5611 34.5394 100.95 30.4858C101.107 30.3995 101.249 30.4187 101.374 30.5434L101.861 31.0229Z" fill="#1A963E"/>
</g>
<defs>
<clipPath id="clip0_79_4254">
<rect width="100" height="100" fill="white"/>
</clipPath>
</defs>
</svg>
