<svg width="100" height="100" viewBox="0 0 100 100" fill="none" xmlns="http://www.w3.org/2000/svg">
<rect width="100" height="100" fill="#E8F4FF"/>
<path fill-rule="evenodd" clip-rule="evenodd" d="M9.20454 52.4876C10.2286 57.7781 15.0545 62.9816 19.2201 66.299C25.1538 71.0254 31.8282 74.3356 39.2433 76.2296C54.0056 79.9997 69.4955 75.6424 81.2489 66.2417C84.8806 63.3375 88.3365 59.6306 90.2759 55.3543C94.9654 45.0165 84.2025 34.5423 76.2964 29.9299C63.2383 22.3105 47.5013 21.0492 33.2668 25.7762C26.0507 28.1704 19.2853 32.2588 14.2835 38.0238C11.0293 41.7742 8.20417 47.3237 9.20454 52.4876ZM18.7283 62.6416C24.4972 67.8451 31.1334 71.4887 38.6368 73.5725C54.0338 77.8488 70.097 73.1356 81.7555 62.5428C85.3121 59.3084 89.6022 54.2512 88.9162 49.0457C88.333 44.6271 85.2904 40.3191 82.0579 37.2686C66.1766 22.2769 39.0717 21.6799 21.7136 34.4336C17.0379 37.8696 11.8384 43.6385 11.4173 49.7515C11.0871 54.5497 15.397 59.6365 18.7283 62.6416ZM52.2803 33.5854C52.3103 37.1043 52.2973 40.7101 52.2835 44.536C52.2701 48.2764 52.2559 52.2272 52.2803 56.5129C52.2833 56.986 52.2723 57.5311 52.2606 58.1072V58.1074V58.1074V58.1075C52.2417 59.0454 52.2211 60.0657 52.2566 60.9928C52.2614 61.1243 52.2651 61.2503 52.2687 61.3712L52.2687 61.3714C52.3028 62.5292 52.3232 63.2225 53.2075 63.9385C53.2734 63.9912 53.2642 64.0176 53.1798 64.0176L47.4346 64.0295C47.2923 64.0295 47.2798 63.9893 47.3971 63.9089C48.5205 63.1321 48.4271 60.7073 48.3511 58.7338V58.7337C48.3335 58.2761 48.3168 57.8428 48.3164 57.4599C48.3045 49.5057 48.2933 41.5515 48.2828 33.5973C48.2828 33.5261 48.2479 33.4919 48.178 33.4945C37.251 33.8484 25.9149 38.5379 19.6635 47.8298C19.628 47.8825 19.5785 47.9089 19.5153 47.9089H15.2765C15.2644 47.909 15.2525 47.906 15.2419 47.9001C15.2313 47.8942 15.2225 47.8856 15.2163 47.8751C15.2101 47.8647 15.2067 47.8529 15.2066 47.8408C15.2064 47.8286 15.2094 47.8167 15.2153 47.8061C20.4504 38.1108 31.0551 32.3043 41.6282 30.6357C48.1259 29.609 54.5941 29.7586 61.0325 31.0845C70.6883 33.0734 80.3598 38.87 85.1363 47.7784C85.1824 47.8654 85.156 47.9089 85.0572 47.9089H81.202C81.1308 47.9089 81.0748 47.8799 81.034 47.8219C74.3892 38.528 63.6007 33.8365 52.3495 33.5162C52.3034 33.5149 52.2803 33.538 52.2803 33.5854ZM57.084 38.7632V49.4904C57.084 49.5563 57.0511 49.5893 56.9852 49.5893H55.4134C55.3436 49.5893 55.3225 49.6216 55.3502 49.6862C55.8424 50.8012 57.4102 53.7015 58.8139 53.6956C60.2835 53.6876 61.7563 53.6876 63.2325 53.6956C64.1795 53.7015 64.48 53.4109 64.994 52.7011C65.8494 51.5189 66.4972 50.5211 66.9374 49.7079C66.944 49.6955 66.9472 49.6817 66.947 49.6677C66.9467 49.6537 66.9429 49.6401 66.936 49.6282C66.929 49.6162 66.9191 49.6064 66.9072 49.5996C66.8953 49.5927 66.8819 49.5892 66.8682 49.5893H61.1863C61.147 49.5893 61.1093 49.5737 61.0815 49.5459C61.0536 49.5181 61.038 49.4803 61.038 49.441V41.8908C61.038 41.8381 61.0176 41.7953 60.9767 41.7623L57.1927 38.7098C57.1202 38.6518 57.084 38.6696 57.084 38.7632ZM35.1395 49.4409V41.9006C35.1395 41.8347 35.1685 41.7859 35.2265 41.7543L38.9848 39.7417C38.9959 39.7355 39.0084 39.7323 39.0211 39.7324C39.0338 39.7325 39.0462 39.736 39.0572 39.7423C39.0682 39.7487 39.0773 39.7579 39.0837 39.7688C39.0901 39.7798 39.0935 39.7922 39.0936 39.8049V49.4903C39.0936 49.5165 39.104 49.5417 39.1225 49.5602C39.1411 49.5787 39.1662 49.5892 39.1924 49.5892H44.8684C44.9383 49.5892 44.9581 49.6208 44.9277 49.6841C44.2885 50.9731 43.5115 52.156 42.5968 53.2328C42.3161 53.5649 42.0176 53.6875 41.5589 53.6895L37.3479 53.6934C36.8338 53.6948 36.4312 53.613 36.1399 53.4483C34.9181 52.7563 33.8782 50.8268 33.3721 49.7157C33.3339 49.6313 33.3616 49.5892 33.4551 49.5892H34.9913C35.0901 49.5892 35.1395 49.5397 35.1395 49.4409ZM36.2082 66.6313C36.1989 66.6408 36.1917 66.6521 36.187 66.6645L35.7086 67.9021C35.6957 67.9358 35.6961 67.9731 35.7097 68.0062C35.7234 68.0394 35.7491 68.0658 35.7817 68.0801C38.1924 69.1305 40.8119 69.8389 43.6404 70.2053C50.7536 71.1247 58.4818 70.7747 65.0218 67.997C65.1035 67.9628 65.1272 67.9048 65.0929 67.823L64.5987 66.6447C64.5936 66.6324 64.5861 66.6211 64.5765 66.6117C64.5669 66.6023 64.5554 66.5949 64.5427 66.5899C64.53 66.585 64.5164 66.5825 64.5026 66.5828C64.4888 66.583 64.475 66.5859 64.4623 66.5914C62.8187 67.3018 61.3814 67.7835 60.1504 68.0366C54.8138 69.1371 49.2755 69.3289 43.5356 68.6119C41.0024 68.2956 38.597 67.6286 36.3195 66.6111C36.3072 66.6056 36.2938 66.6025 36.2804 66.6022C36.2669 66.6019 36.2535 66.6043 36.2411 66.6094C36.2287 66.6144 36.2175 66.6218 36.2082 66.6313Z" fill="#014286"/>
</svg>
