<svg width="100" height="100" viewBox="0 0 100 100" fill="none" xmlns="http://www.w3.org/2000/svg">
<rect width="100" height="100" fill="#F0F3FA"/>
<path d="M71.7469 23.3191L61.8169 39.3191" stroke="#2A397E" stroke-width="0.5"/>
<path d="M50.5522 16.5917C50.6739 15.735 50.6797 14.83 50.5697 13.8767" stroke="#2A397E" stroke-width="0.5"/>
<path d="M39.3271 39.3468L29.3696 23.3218" stroke="#2A397E" stroke-width="0.5"/>
<path d="M34.842 57.8867C34.447 57.8967 34.1787 57.9184 34.037 57.9517C28.162 59.3551 22.2887 60.7576 16.417 62.1592" stroke="#2A397E" stroke-width="0.5"/>
<path d="M83.6622 62.5766C77.5839 61.1299 71.5164 59.6766 65.4597 58.2166C65.4147 58.2066 65.3347 58.2266 65.2197 58.2766" stroke="#2A397E" stroke-width="0.5"/>
<path d="M50.1694 66.0193L50.0244 84.7968" stroke="#2A397E" stroke-width="0.5"/>
<path d="M71.7473 23.3192L61.8173 39.3192C58.2106 32.2842 54.6747 25.3234 51.2097 18.4367C50.9147 17.8467 50.7722 17.2317 50.5522 16.5917C50.6739 15.735 50.6797 14.83 50.5697 13.8767C51.3564 10.7484 53.1173 8.70086 55.8523 7.7342C58.9173 6.6517 62.1448 7.3392 64.3923 9.6667C64.9456 10.24 65.5681 11.2059 66.2598 12.5642C68.0898 16.1542 69.9189 19.7392 71.7473 23.3192Z" fill="#3957A7"/>
<path d="M50.5696 13.8768C50.6796 14.8301 50.6738 15.7351 50.5521 16.5918C50.3421 17.5035 50.0821 18.2643 49.7721 18.8743C46.3171 25.6426 42.8355 32.4668 39.3271 39.3468L29.3696 23.3218C30.843 20.4751 32.3046 17.6301 33.7546 14.7868C35.0613 12.2268 35.853 10.7635 36.1296 10.3968C38.4146 7.3668 42.3996 6.4618 45.8546 7.9643C48.3046 9.03097 49.8763 11.0018 50.5696 13.8768Z" fill="#1A1A55"/>
<path d="M29.3697 23.3217L39.3272 39.3467C38.9222 39.3742 38.4772 39.3117 38.1072 39.3167C28.5755 39.4567 21.1146 39.4567 15.7246 39.3167C14.158 39.2767 12.673 38.6817 11.2696 37.5317C5.88214 33.1142 8.65214 24.1067 15.5796 23.3642C16.8796 23.2242 18.4346 23.3467 19.4396 23.3267C22.7746 23.2584 26.0847 23.2567 29.3697 23.3217Z" fill="#3957A7"/>
<path d="M61.8169 39.3193L71.7469 23.3193C75.6369 23.2459 79.5402 23.2401 83.4569 23.3018C85.1136 23.3268 86.3586 23.4718 87.1919 23.7368C94.5219 26.0518 94.5119 36.7193 87.1719 38.9718C86.4419 39.1968 85.3286 39.3184 83.8319 39.3368C79.2252 39.3934 74.6177 39.4109 70.0094 39.3893C68.0044 39.3793 64.8719 39.2743 62.2869 39.3893C62.0469 39.4009 61.8902 39.3776 61.8169 39.3193Z" fill="#1A1A55"/>
<path d="M34.842 57.8868C34.447 57.8968 34.1787 57.9184 34.037 57.9518C28.162 59.3551 22.2887 60.7576 16.417 62.1593C13.5237 59.3343 10.6462 56.5026 7.78453 53.6643C6.5962 52.4843 5.8062 51.5284 5.41453 50.7968C3.81203 47.8018 4.49203 43.8843 6.93703 41.4918C10.2245 38.2768 15.192 38.4043 18.482 41.6318C23.917 46.9651 29.3529 52.2993 34.7895 57.6343C34.8345 57.6776 34.8545 57.7309 34.8495 57.7943L34.842 57.8868Z" fill="#1A1A55"/>
<path d="M83.6622 62.5768C77.5839 61.1301 71.5164 59.6768 65.4597 58.2168C65.4147 58.2068 65.3347 58.2268 65.2197 58.2768C65.1997 58.2735 65.1831 58.2593 65.1697 58.2343C65.1564 58.2093 65.1606 58.1868 65.1822 58.1668C70.1139 53.3185 75.0514 48.4743 79.9947 43.6343C81.7564 41.9076 83.0256 40.8376 83.8022 40.4243C90.5847 36.8218 98.3372 44.5043 94.5597 51.3693C94.1631 52.091 93.4256 52.9843 92.3472 54.0493C89.4606 56.9043 86.5656 59.7468 83.6622 62.5768Z" fill="#3957A7"/>
<path d="M34.8421 57.8867C32.7221 64.3434 30.5913 70.7951 28.4496 77.2417C27.7496 79.3467 27.143 80.7576 26.6296 81.4742C23.7871 85.4417 17.9896 85.7417 14.4846 82.4692C11.8846 80.0417 11.5796 76.8492 12.6671 73.5442C13.9171 69.7426 15.1671 65.9476 16.4171 62.1592C22.2888 60.7576 28.1621 59.3551 34.0371 57.9517C34.1788 57.9184 34.4471 57.8967 34.8421 57.8867Z" fill="#3957A7"/>
<path d="M83.6622 62.5769C84.7339 65.8452 85.8097 69.1135 86.8897 72.3819C87.6281 74.6119 88.0131 76.1902 88.0447 77.1169C88.2372 82.6494 82.3672 86.5994 77.1422 84.6319C74.7039 83.7119 73.0164 81.841 72.0797 79.0194C69.7847 72.1094 67.4981 65.1952 65.2197 58.2769C65.3347 58.2269 65.4147 58.2069 65.4597 58.2169C71.5164 59.6769 77.5839 61.1302 83.6622 62.5769Z" fill="#1A1A55"/>
<path d="M50.1696 66.0191L50.0246 84.7966C46.8462 86.655 43.6754 88.5241 40.512 90.4041C38.642 91.5158 37.2695 92.1841 36.3945 92.4091C28.962 94.3291 23.232 85.1016 28.4945 79.2991C29.0262 78.7141 29.9004 78.055 31.117 77.3216C37.3937 73.535 43.6762 69.7566 49.9646 65.9866C50.0079 65.9616 50.0512 65.96 50.0946 65.9816L50.1696 66.0191Z" fill="#1A1A55"/>
<path d="M50.1694 66.0193C56.4627 69.9126 62.7469 73.821 69.0219 77.7443C70.0969 78.416 70.8861 79.0376 71.3894 79.6093C76.8469 85.8018 70.3619 95.2793 62.6394 92.4593C62.0577 92.2476 60.6128 91.4251 58.3044 89.9918C55.5444 88.2801 52.7844 86.5485 50.0244 84.7968L50.1694 66.0193Z" fill="#3957A7"/>
</svg>
