<svg width="100" height="100" viewBox="0 0 100 100" fill="none" xmlns="http://www.w3.org/2000/svg">
<rect width="100" height="100" fill="#C6F5CC"/>
<path d="M58.51 29.9715C58.0204 30.706 57.71 30.636 57.5788 29.7617L54.5492 8.82976C54.5273 8.68589 54.5495 8.53877 54.6128 8.40772C54.676 8.27667 54.7775 8.16783 54.9037 8.09548C55.03 8.02313 55.1752 7.99065 55.3202 8.00232C55.4653 8.014 55.6034 8.06927 55.7165 8.16088C63.966 14.9152 64.3069 21.3155 58.51 29.9715Z" fill="#737576"/>
<path d="M65.1982 25.6435C65.185 25.6614 65.1658 25.674 65.1441 25.6788C65.1224 25.6836 65.0996 25.6804 65.0801 25.6697L65.067 25.6566C64.2397 25.017 63.9863 23.7007 64.3625 21.9967C64.7387 20.2926 65.7138 18.3401 67.0736 16.5677L67.3359 16.2399C68.6967 14.4666 70.3314 13.0188 71.8807 12.2146C73.4301 11.4104 74.7673 11.3157 75.5985 11.9512C75.6144 11.9661 75.6244 11.9862 75.6268 12.0078C75.6292 12.0294 75.6238 12.0512 75.6117 12.0692L65.1982 25.6435Z" fill="#40AD4C"/>
<path d="M50.9549 45.3685C50.9279 45.4202 50.8673 45.4564 50.7835 45.4708C50.6997 45.4851 50.598 45.4768 50.4959 45.4472C50.3822 45.4123 50.2555 45.2986 50.1156 45.1062C50.0194 44.9751 49.9538 44.8133 49.9188 44.621C48.1264 34.6709 46.6706 24.6683 45.5515 14.6133C45.4728 13.9138 45.7176 13.7696 46.2859 14.1805C50.5615 17.2757 53.2501 26.0629 54.5616 30.6532C56.1355 36.1354 53.8009 40.8438 50.9549 45.3685Z" fill="#737576"/>
<path d="M46.6408 42.7847C48.3589 49.762 46.6801 55.9917 42.6538 61.8542C42.1816 62.5362 41.8887 62.4663 41.775 61.6444L36.2929 23.2561C35.9868 21.0877 36.4765 20.891 37.7618 22.6659C41.657 28.0563 45.3293 37.4861 46.6408 42.7847Z" fill="#737576"/>
<path d="M57.4477 37.2372L62.5888 28.8041C62.6837 28.6468 62.816 28.5155 62.9738 28.4217C63.1317 28.3279 63.3103 28.2745 63.4938 28.2663L73.3696 27.886C73.6207 27.873 73.8688 27.9454 74.0737 28.0912C74.2785 28.2371 74.428 28.4479 74.4979 28.6895C74.5678 28.9311 74.5539 29.1892 74.4586 29.4219C74.3633 29.6546 74.1921 29.8482 73.9729 29.9713L58.9559 38.7716C58.7425 38.8915 58.4956 38.9377 58.2533 38.9032C58.011 38.8688 57.7867 38.7556 57.6152 38.581C57.4436 38.4065 57.3342 38.1803 57.304 37.9374C57.2737 37.6946 57.3242 37.4485 57.4477 37.2372Z" fill="#40AD4C"/>
<path d="M34.2206 80.7536C33.7834 81.6455 33.2588 82.2531 32.6467 82.5767C32.5282 82.6409 32.396 82.6751 32.2611 82.6765C32.1262 82.6779 31.9927 82.6464 31.8718 82.5847C31.7509 82.5229 31.6461 82.4328 31.5664 82.3218C31.4868 82.2108 31.4344 82.0823 31.4139 81.9471L24.0169 29.1058C23.9557 28.6774 24.0606 28.6293 24.3317 28.9616C31.9647 38.575 35.0337 52.2673 37.2108 63.835C38.3781 70.1172 36.8698 75.2846 34.2206 80.7536Z" fill="#737576"/>
<path d="M49.4212 54.3393C51.2967 43.7553 65.3431 39.401 74.3139 39.06C74.4799 39.0544 74.6429 39.1041 74.7774 39.2014C74.9119 39.2987 75.0102 39.438 75.0568 39.5973C75.1034 39.7566 75.0957 39.9269 75.0348 40.0814C74.9739 40.2358 74.8633 40.3656 74.7205 40.4502L50.1819 54.877C49.5436 55.2529 49.2901 55.0737 49.4212 54.3393Z" fill="#40AD4C"/>
<path d="M41.6445 71.481C44.8971 57.6969 61.3698 53.5656 73.0817 51.336C75.5561 50.8638 75.7266 51.301 73.5932 52.6475L42.5101 72.0974C42.4136 72.1567 42.3017 72.1863 42.1884 72.1825C42.0751 72.1787 41.9655 72.1416 41.8732 72.0758C41.7809 72.0101 41.71 71.9186 41.6693 71.8128C41.6286 71.707 41.62 71.5916 41.6445 71.481Z" fill="#40AD4C"/>
<path d="M31.9779 91.5473C33.1321 87.3504 35.8207 81.1207 39.5979 78.6812C50.5447 71.564 62.3878 66.9344 75.127 64.7922C75.2984 64.7651 75.4748 64.7981 75.6256 64.8857C75.7765 64.9733 75.8923 65.1099 75.953 65.2718C76.0137 65.4337 76.0155 65.6107 75.9581 65.7723C75.9006 65.9338 75.7876 66.0696 75.6385 66.1562L32.7779 92.1637C32.6863 92.2203 32.58 92.2474 32.4727 92.2416C32.3655 92.2357 32.2622 92.1972 32.1761 92.1309C32.0901 92.0646 32.0252 91.9736 31.9899 91.8696C31.9546 91.7656 31.9504 91.6533 31.9779 91.5473Z" fill="#40AD4C"/>
</svg>
