<svg width="100" height="100" viewBox="0 0 100 100" fill="none" xmlns="http://www.w3.org/2000/svg">
<rect width="100" height="100" fill="#FFFF00"/>
<path d="M52.3807 46.8698C52.3823 46.874 52.3848 46.8777 52.3881 46.8807C52.3914 46.8837 52.3954 46.8858 52.3997 46.8869C52.404 46.888 52.4085 46.888 52.4128 46.887C52.4171 46.886 52.4211 46.884 52.4245 46.8811C52.9228 46.4352 53.402 45.9711 53.862 45.4886C54.4182 44.9048 55.3132 44.9186 56.0395 45.0373C56.2457 45.0711 56.3907 45.1848 56.2782 45.4023C56.2696 45.4194 56.2553 45.433 56.2376 45.4405C56.22 45.4481 56.2003 45.4492 56.182 45.4436C55.6182 45.2773 55.2057 45.4823 55.0907 46.0698C54.6157 48.4736 54.1495 50.8698 53.877 53.3061C53.7728 54.2394 53.5932 55.1578 53.3382 56.0611C53.0932 56.9323 52.637 57.8636 52.2795 58.7648C51.7532 60.0898 49.522 60.7873 48.2407 60.8536C48.2237 60.8545 48.2068 60.8516 48.191 60.8452C48.1753 60.8388 48.1612 60.8289 48.1497 60.8164C48.1382 60.8038 48.1297 60.7889 48.1247 60.7726C48.1196 60.7564 48.1183 60.7392 48.1207 60.7223C48.2245 59.9961 47.5657 59.2636 46.967 58.7861C46.9345 58.7603 46.9116 58.7273 46.8982 58.6873C46.732 58.2011 46.452 57.7361 46.2957 57.2973C45.9245 56.2448 45.547 55.2436 45.4095 54.1198C45.162 52.1023 44.9645 50.0802 44.817 48.0536C44.7182 46.6998 44.3707 45.5136 43.912 44.2886C43.8912 44.2336 43.9041 44.224 43.9507 44.2598C44.312 44.5411 44.642 45.0411 44.817 45.4661C44.857 45.5636 44.9149 45.6452 44.9907 45.7111C45.702 46.3311 46.1145 46.6548 46.417 47.5973C46.5012 47.8598 46.6045 47.8861 46.727 47.6761C46.7408 47.6524 46.7478 47.6255 46.747 47.5986C46.6903 45.9427 46.7841 44.3323 47.0282 42.7673C47.1095 42.2411 47.3732 41.6323 47.4145 41.0011C47.417 40.9619 47.4299 40.9261 47.4532 40.8936C47.5682 40.7336 47.6362 40.5544 47.657 40.3561C47.6593 40.3359 47.6658 40.3166 47.6759 40.2991C47.686 40.2817 47.6996 40.2666 47.7157 40.2548C47.8874 40.1273 47.9495 39.9523 47.902 39.7298C47.892 39.684 47.9036 39.644 47.937 39.6098C48.3195 39.2223 49.1932 37.9536 49.8982 38.4236C50.3741 38.7411 50.8082 39.1086 51.2007 39.5261C51.2282 39.5552 51.2457 39.5898 51.2532 39.6298C51.3345 40.0773 51.5057 40.4111 51.6582 40.8348C51.7845 41.1861 51.822 41.6648 51.952 42.0811C52.1045 42.5686 52.0645 43.1248 52.162 43.6361C52.1882 43.7723 52.0957 43.9248 52.1345 44.1036C52.2737 44.7594 52.3445 45.4232 52.347 46.0948C52.3482 46.3286 52.2707 46.5861 52.3807 46.8698Z" fill="#D70418"/>
<path d="M51.6793 43.2997C51.7343 43.3364 51.796 43.3526 51.8643 43.3484C51.9043 43.3456 51.9441 43.3545 51.9791 43.3738C52.0142 43.3931 52.0428 43.4222 52.0617 43.4575C52.0806 43.4927 52.0889 43.5327 52.0856 43.5726C52.0823 43.6124 52.0675 43.6505 52.0431 43.6822L51.8218 43.9722C51.8147 43.9814 51.8097 43.9921 51.8072 44.0035C51.8048 44.0149 51.8048 44.0267 51.8075 44.0381C51.8101 44.0494 51.8152 44.0601 51.8225 44.0692C51.8297 44.0784 51.8389 44.0858 51.8493 44.0909C52.0793 44.2026 52.1293 44.3759 51.9993 44.6109C51.9935 44.6213 51.9903 44.6331 51.9898 44.6452C51.9894 44.6574 51.9918 44.6696 51.9968 44.6809L52.2081 45.1634C52.2199 45.1909 52.2222 45.2215 52.2145 45.2505C52.2068 45.2795 52.1896 45.3052 52.1656 45.3234C51.9581 45.4826 51.9493 45.6376 52.1393 45.7884C52.1501 45.7969 52.1584 45.808 52.1637 45.8206C52.1689 45.8333 52.1709 45.8472 52.1693 45.8609L52.0856 46.7572C52.0823 46.7922 52.0898 46.8251 52.1081 46.8559C52.2893 47.1497 52.1306 47.4384 52.1356 47.6897C52.1431 48.0347 52.1514 48.3822 52.1606 48.7322C52.161 48.7464 52.1578 48.7605 52.1513 48.7731C52.1447 48.7858 52.135 48.7967 52.1231 48.8047L51.9818 48.8997C51.936 48.9314 51.9373 48.9605 51.9856 48.9872C52.2264 49.1172 52.2627 49.3051 52.0943 49.5509C52.0821 49.5687 52.0753 49.5896 52.0749 49.6112C52.0744 49.6328 52.0803 49.654 52.0918 49.6722C52.1902 49.8297 52.2093 49.9955 52.1493 50.1697C52.1368 50.2047 52.1352 50.2401 52.1443 50.2759C52.2406 50.6722 52.2493 53.0634 51.9943 53.5459C51.4968 54.491 50.9156 55.2235 50.6068 56.0935C50.5893 56.1435 50.5548 56.176 50.5031 56.191L49.9793 56.3422C49.9559 56.3488 49.9356 56.3635 49.9219 56.3836C49.9082 56.4037 49.902 56.428 49.9043 56.4522L49.9418 56.841C49.9433 56.8552 49.9416 56.8695 49.9371 56.8831C49.9326 56.8966 49.9252 56.9091 49.9156 56.9196C49.9059 56.9301 49.8941 56.9384 49.8809 56.944C49.8678 56.9497 49.8536 56.9525 49.8393 56.9522C49.7435 56.9505 49.6818 56.8872 49.6543 56.7622C49.5281 56.1947 49.4856 55.6497 49.2881 55.0947C49.1898 54.8189 49.1802 54.533 49.2593 54.2372C49.2649 54.2158 49.2629 54.1931 49.2535 54.1732C49.2441 54.1533 49.228 54.1374 49.2081 54.1285L48.9868 54.0259C48.9762 54.0211 48.9666 54.0141 48.9586 54.0055C48.9506 53.9969 48.9445 53.9868 48.9405 53.9759C48.9366 53.9649 48.9349 53.9533 48.9355 53.9417C48.9362 53.9301 48.9392 53.9188 48.9443 53.9085C48.966 53.8626 48.9977 53.8355 49.0393 53.8272C49.0768 53.8189 49.1127 53.8055 49.1468 53.7872C49.216 53.7489 49.2331 53.7051 49.1981 53.656C49.1756 53.6243 49.1452 53.603 49.1068 53.5922L48.7593 53.4947C48.7406 53.4894 48.7237 53.4789 48.7106 53.4646C48.6976 53.4502 48.6889 53.4325 48.6856 53.4134C48.5731 52.7718 48.4048 52.1472 48.1806 51.5397C48.1014 51.3247 48.1031 51.0747 48.1856 50.7897C48.1913 50.7691 48.1894 50.7471 48.1802 50.7277C48.1709 50.7084 48.155 50.6931 48.1354 50.6846C48.1158 50.676 48.0937 50.6749 48.0733 50.6814C48.0529 50.6878 48.0355 50.7014 48.0243 50.7197C47.9893 50.7789 47.9335 50.7793 47.8568 50.7209C47.8396 50.7078 47.8255 50.6907 47.8156 50.6709C47.5731 50.1659 47.3631 49.7022 47.2281 49.1572C47.1923 49.0114 47.1185 48.888 47.0068 48.7872C46.9768 48.7597 46.9577 48.7259 46.9493 48.6859C46.8793 48.3284 46.8664 48.083 46.9106 47.9497C47.0731 47.4634 46.8643 47.0509 47.1256 46.7197C47.1456 46.6947 47.1427 46.673 47.1168 46.6547L46.8968 46.4959C46.8875 46.4891 46.8798 46.4801 46.8745 46.4697C46.8692 46.4594 46.8663 46.4479 46.8662 46.4363C46.8661 46.4246 46.8687 46.4131 46.8738 46.4026C46.8789 46.3922 46.8864 46.383 46.8956 46.3759L47.0481 46.2597C47.0621 46.249 47.0724 46.2343 47.0778 46.2175C47.0831 46.2008 47.0832 46.1828 47.0781 46.1659C47.0598 46.1109 47.0264 46.0709 46.9781 46.0459C46.9439 46.0284 46.9223 46.0014 46.9131 45.9647C46.8823 45.8414 46.9302 45.7714 47.0568 45.7547C47.1099 45.7469 47.1591 45.7198 47.1948 45.6787C47.2306 45.6376 47.2504 45.5853 47.2506 45.5318C47.2507 45.4784 47.2312 45.4276 47.1957 45.3891C47.1601 45.3507 47.1112 45.3273 47.0581 45.3234C46.9589 45.3184 46.8977 45.2555 46.8743 45.1347C46.8668 45.0947 46.8748 45.0589 46.8981 45.0272L47.1531 44.6872C47.1642 44.6722 47.1693 44.6535 47.1672 44.635C47.1651 44.6164 47.156 44.5993 47.1418 44.5872L47.0093 44.4734C46.9857 44.4528 46.9686 44.4257 46.9603 44.3954C46.9519 44.3652 46.9526 44.3331 46.9624 44.3033C46.9721 44.2734 46.9904 44.2471 47.015 44.2276C47.0395 44.208 47.0693 44.1962 47.1006 44.1934C47.2506 44.1809 47.3335 44.0972 47.3493 43.9422C47.3543 43.8972 47.3352 43.868 47.2918 43.8547L47.0343 43.7722C47.0238 43.769 47.0141 43.7636 47.0059 43.7562C46.9976 43.7489 46.9912 43.7398 46.9868 43.7297C46.9131 43.5634 46.9981 43.3634 47.1968 43.3622C47.256 43.3622 47.2993 43.3584 47.3268 43.3509C47.411 43.3284 47.4268 43.2826 47.3743 43.2134C47.1535 42.9243 47.1764 42.6597 47.4431 42.4197C47.4806 42.3864 47.4814 42.3518 47.4456 42.3159L47.3393 42.2097C47.2952 42.1647 47.2885 42.1151 47.3193 42.0609C47.3727 41.9676 47.4556 41.9109 47.5681 41.8909C47.5811 41.8886 47.5934 41.8831 47.6038 41.875C47.6143 41.8669 47.6226 41.8563 47.628 41.8442C47.6334 41.8321 47.6358 41.8189 47.6349 41.8057C47.6341 41.7925 47.63 41.7797 47.6231 41.7684C47.5339 41.6243 47.5135 41.4738 47.5618 41.3172C47.5665 41.3021 47.5746 41.2884 47.5857 41.2771C47.5968 41.2657 47.6105 41.2572 47.6256 41.2522L47.8868 41.1697C47.8963 41.1665 47.9045 41.1603 47.9102 41.152C47.9159 41.1438 47.9187 41.1339 47.9183 41.1239C47.9179 41.1139 47.9142 41.1043 47.9079 41.0965C47.9015 41.0888 47.8928 41.0833 47.8831 41.0809L47.6856 41.0372C47.6356 41.0264 47.6098 40.9951 47.6081 40.9434C47.6023 40.7559 47.6981 40.6422 47.8956 40.6022C47.9058 40.6001 47.9155 40.5958 47.924 40.5897C47.9324 40.5835 47.9394 40.5757 47.9445 40.5667C47.9496 40.5576 47.9527 40.5477 47.9535 40.5374C47.9544 40.5271 47.9529 40.5168 47.9493 40.5072L47.8781 40.3059C47.8707 40.2859 47.8708 40.2638 47.8784 40.2439C47.886 40.2239 47.9005 40.2073 47.9193 40.1972L48.2406 40.0259C48.2889 40.0001 48.3068 39.9605 48.2943 39.9072L48.2168 39.5734C48.2052 39.5218 48.2243 39.4872 48.2743 39.4697C48.411 39.4205 48.5039 39.3284 48.5531 39.1934C48.5677 39.1537 48.5949 39.1195 48.6306 39.0959C49.0318 38.8322 49.1531 38.5097 49.7168 38.5359C49.7568 38.5376 49.7923 38.5505 49.8231 38.5747L50.9943 39.4634C51.0185 39.4809 51.026 39.5043 51.0168 39.5334L50.8818 39.9534C50.8693 39.9943 50.8789 40.0288 50.9106 40.0572C50.9556 40.0988 51.0156 40.1143 51.0906 40.1034C51.1151 40.1 51.1402 40.1019 51.1639 40.1091C51.1876 40.1163 51.2095 40.1286 51.2279 40.1452C51.2464 40.1617 51.261 40.1821 51.2707 40.2049C51.2805 40.2277 51.2851 40.2524 51.2843 40.2772L51.2806 40.3884C51.2789 40.4318 51.256 40.453 51.2118 40.4522L50.3231 40.4347C50.3125 40.4339 50.302 40.437 50.2935 40.4434C50.285 40.4498 50.2791 40.4591 50.277 40.4695C50.2748 40.4799 50.2765 40.4907 50.2818 40.5C50.2871 40.5092 50.2955 40.5162 50.3056 40.5197C50.5731 40.6288 50.8377 40.6268 51.0993 40.5134C51.1386 40.4966 51.1826 40.4957 51.2218 40.5109C51.3777 40.5718 51.4835 40.6768 51.5393 40.8259C51.5457 40.8426 51.5463 40.861 51.5408 40.8781C51.5353 40.8951 51.5242 40.9098 51.5093 40.9197L51.3106 41.0522C51.3009 41.0588 51.2936 41.0683 51.2896 41.0794C51.2856 41.0904 51.2852 41.1024 51.2883 41.1137C51.2915 41.125 51.2981 41.135 51.3073 41.1424C51.3164 41.1497 51.3276 41.154 51.3393 41.1547C51.7331 41.1647 51.7306 41.5009 51.5243 41.7422C51.4877 41.7847 51.4956 41.8151 51.5481 41.8334C51.6881 41.8826 51.7873 41.9739 51.8456 42.1072C51.8589 42.137 51.8603 42.1708 51.8497 42.2019C51.839 42.2329 51.817 42.2589 51.7881 42.2747L51.7106 42.3159C51.6639 42.3401 51.6614 42.3684 51.7031 42.4009C51.9081 42.5622 52.0943 43.1772 51.6918 43.2409C51.6368 43.2493 51.6327 43.2689 51.6793 43.2997Z" fill="#FFFF00"/>
<path d="M49.2206 38.8497C49.2248 38.8147 49.2652 38.8176 49.3418 38.8584C49.3537 38.8647 49.3634 38.8743 49.3699 38.8861C49.3763 38.8979 49.3792 38.9113 49.3781 38.9247L49.3756 38.9584C49.3739 38.977 49.366 38.9942 49.3531 39.0072C49.2656 39.0963 49.2018 39.0876 49.1618 38.9809C49.1443 38.9326 49.1573 38.898 49.2006 38.8772C49.2123 38.8713 49.2189 38.8622 49.2206 38.8497Z" fill="#D70418"/>
<path d="M50.6166 39.9963C50.6181 40.029 50.6065 40.0611 50.5844 40.0853C50.5623 40.1095 50.5314 40.124 50.4986 40.1255L50.4337 40.1284C50.4009 40.1299 50.3689 40.1183 50.3446 40.0962C50.3204 40.0741 50.306 40.0432 50.3045 40.0104L50.2853 39.5884C50.2838 39.5556 50.2954 39.5235 50.3175 39.4993C50.3397 39.4751 50.3705 39.4606 50.4033 39.4591L50.4682 39.4562C50.501 39.4547 50.5331 39.4663 50.5573 39.4884C50.5815 39.5106 50.596 39.5414 50.5975 39.5742L50.6166 39.9963Z" fill="#D70418"/>
<path d="M49.327 40.1739C49.284 40.1768 49.2403 40.1422 49.2055 40.0778C49.1707 40.0134 49.1476 39.9244 49.1413 39.8305C49.1383 39.784 49.1394 39.7376 49.1447 39.6941C49.15 39.6506 49.1593 39.6108 49.1722 39.5769C49.1851 39.543 49.2012 39.5157 49.2197 39.4966C49.2382 39.4775 49.2587 39.4669 49.28 39.4655C49.323 39.4626 49.3667 39.4972 49.4015 39.5616C49.4363 39.626 49.4594 39.715 49.4656 39.8089C49.4687 39.8555 49.4676 39.9018 49.4623 39.9453C49.457 39.9888 49.4476 40.0287 49.4348 40.0626C49.4219 40.0965 49.4058 40.1238 49.3873 40.1429C49.3688 40.162 49.3483 40.1725 49.327 40.1739Z" fill="#D70418"/>
<path d="M49.8439 40.1292C49.809 40.1255 49.7793 40.0867 49.7612 40.0213C49.7432 39.956 49.7384 39.8694 49.7479 39.7808C49.7526 39.7369 49.7607 39.6938 49.7716 39.6539C49.7826 39.614 49.7962 39.5782 49.8118 39.5485C49.8273 39.5187 49.8445 39.4957 49.8623 39.4806C49.8801 39.4655 49.8981 39.4587 49.9154 39.4605C49.9504 39.4642 49.9801 39.503 49.9981 39.5684C50.0161 39.6337 50.0209 39.7203 50.0114 39.8089C50.0067 39.8528 49.9987 39.896 49.9877 39.9358C49.9768 39.9757 49.9631 40.0115 49.9476 40.0412C49.932 40.071 49.9149 40.094 49.8971 40.1091C49.8793 40.1242 49.8612 40.1311 49.8439 40.1292Z" fill="#D70418"/>
<path d="M48.6525 40.1065C48.6221 40.104 48.5955 40.0706 48.5786 40.0137C48.5616 39.9568 48.5557 39.881 48.5621 39.803C48.5653 39.7644 48.5714 39.7265 48.5801 39.6913C48.5888 39.6561 48.5999 39.6243 48.6128 39.5979C48.6256 39.5715 48.6401 39.5509 48.6552 39.5372C48.6703 39.5236 48.6858 39.5172 48.7009 39.5185C48.7313 39.521 48.7579 39.5543 48.7748 39.6112C48.7918 39.6681 48.7977 39.7439 48.7913 39.8219C48.7881 39.8605 48.782 39.8985 48.7733 39.9337C48.7646 39.9689 48.7535 40.0006 48.7407 40.027C48.7278 40.0535 48.7134 40.0741 48.6982 40.0877C48.6831 40.1013 48.6676 40.1077 48.6525 40.1065Z" fill="#D70418"/>
<path d="M49.971 40.6573C49.9584 40.6745 49.9418 40.6882 49.9225 40.6973C49.9032 40.7064 49.882 40.7105 49.8608 40.7092C49.8395 40.708 49.8189 40.7014 49.8008 40.6902C49.7828 40.6789 49.7678 40.6633 49.7573 40.6448C49.6589 40.4748 49.6815 40.3811 49.8248 40.3636C49.936 40.3498 50.0473 40.4336 50.1498 40.4761C50.2189 40.5052 50.216 40.5177 50.141 40.5136C50.1302 40.5127 50.119 40.5123 50.1073 40.5123C50.0987 40.5123 50.0903 40.5144 50.0827 40.5183C50.0751 40.5222 50.0685 40.5279 50.0635 40.5348L49.971 40.6573Z" fill="#D70418"/>
<path d="M48.9532 40.5487C48.943 40.5438 48.9346 40.5358 48.9292 40.5258C48.9239 40.5158 48.9218 40.5044 48.9233 40.4931C48.9249 40.4819 48.9299 40.4714 48.9377 40.4632C48.9456 40.455 48.9558 40.4495 48.9669 40.4475L49.4257 40.3737C49.4422 40.3712 49.459 40.3738 49.474 40.3811C49.489 40.3883 49.5014 40.4 49.5097 40.4144C49.518 40.4289 49.5216 40.4456 49.5202 40.4622C49.5189 40.4788 49.5125 40.4946 49.5019 40.5075L49.3619 40.6712C49.3353 40.7037 49.3024 40.7112 49.2632 40.6937L48.9532 40.5487Z" fill="#D70418"/>
<path d="M48.6872 40.4222C48.6938 40.4222 48.7001 40.4248 48.7048 40.4295C48.7095 40.4342 48.7122 40.4405 48.7122 40.4472V40.4597C48.7118 40.5066 48.6866 40.5515 48.6418 40.5845C48.5971 40.6175 48.5365 40.636 48.4734 40.6359H48.4409C48.4095 40.6359 48.3783 40.6312 48.3493 40.6222C48.3202 40.6132 48.2938 40.6 48.2717 40.5834C48.2495 40.5668 48.2319 40.5471 48.22 40.5254C48.2081 40.5037 48.202 40.4806 48.2022 40.4572V40.4447C48.2022 40.438 48.2048 40.4317 48.2095 40.427C48.2142 40.4223 48.2205 40.4197 48.2272 40.4197L48.6872 40.4222Z" fill="#D70418"/>
<path d="M48.4342 41.3159C48.4264 41.3232 48.4172 41.3289 48.4072 41.3327C48.3972 41.3365 48.3866 41.3382 48.3759 41.3379C48.3652 41.3375 48.3547 41.3351 48.345 41.3307C48.3352 41.3263 48.3264 41.32 48.3191 41.3122L48.2742 41.2647C48.2318 41.2194 48.2041 41.164 48.1971 41.1105C48.19 41.0571 48.2043 41.01 48.2367 40.9797L48.2667 40.9522C48.2991 40.9221 48.3469 40.9111 48.3996 40.9216C48.4523 40.9322 48.5056 40.9634 48.5479 41.0084L48.5929 41.0559C48.6002 41.0637 48.6059 41.0729 48.6097 41.0829C48.6135 41.0929 48.6152 41.1035 48.6149 41.1142C48.6145 41.1249 48.6121 41.1354 48.6077 41.1451C48.6033 41.1548 48.597 41.1636 48.5892 41.1709L48.4342 41.3159Z" fill="#D70418"/>
<path d="M48.9073 41.1773C48.8972 41.1706 48.889 41.1612 48.8837 41.1502C48.8784 41.1392 48.8762 41.127 48.8772 41.1149C48.8782 41.1029 48.8825 41.0914 48.8896 41.0817C48.8966 41.072 48.9062 41.0644 48.9173 41.0598L49.2086 40.9361C49.2509 40.92 49.2977 40.9208 49.3395 40.9383C49.3812 40.9558 49.4146 40.9886 49.4327 41.0301C49.4509 41.0715 49.4524 41.1184 49.437 41.1609C49.4216 41.2035 49.3904 41.2384 49.3498 41.2586C49.224 41.3153 49.0765 41.2882 48.9073 41.1773Z" fill="#D70418"/>
<path d="M49.8022 41.2623C49.7747 41.2492 49.752 41.228 49.7372 41.2015C49.7224 41.1751 49.7163 41.1448 49.7197 41.1148C49.7363 40.9448 49.8509 40.8902 50.0634 40.951C50.0904 40.9585 50.1147 40.9735 50.1334 40.9944C50.1521 41.0152 50.1644 41.041 50.1689 41.0687C50.1734 41.0963 50.1698 41.1247 50.1586 41.1503C50.1475 41.176 50.1292 41.198 50.1059 41.2135C49.9942 41.2894 49.893 41.3056 49.8022 41.2623Z" fill="#D70418"/>
<path d="M50.5488 41.1161C50.5445 41.1108 50.5412 41.1048 50.5393 41.0983C50.5373 41.0918 50.5367 41.085 50.5374 41.0782C50.5381 41.0715 50.5401 41.065 50.5433 41.059C50.5466 41.053 50.551 41.0478 50.5563 41.0436L50.5725 41.0286C50.6046 41.0016 50.6394 40.9784 50.6748 40.9603C50.7103 40.9423 50.7457 40.9297 50.779 40.9233C50.8123 40.9169 50.8429 40.9168 50.8691 40.9231C50.8952 40.9294 50.9163 40.9418 50.9313 40.9598L50.9525 40.9848C50.9676 41.0026 50.9762 41.0256 50.9778 41.0524C50.9794 41.0792 50.974 41.1094 50.962 41.1411C50.9499 41.1728 50.9314 41.2054 50.9074 41.2372C50.8835 41.2689 50.8546 41.2991 50.8225 41.3261L50.805 41.3398C50.7999 41.3442 50.7939 41.3475 50.7874 41.3495C50.781 41.3516 50.7742 41.3524 50.7675 41.3518C50.7607 41.3512 50.7542 41.3493 50.7482 41.3462C50.7422 41.343 50.7369 41.3387 50.7325 41.3336L50.5488 41.1161Z" fill="#D70418"/>
<path d="M47.9683 41.7296L48.3583 41.6196C48.3902 41.6104 48.4243 41.6126 48.4548 41.6259C48.4852 41.6391 48.5101 41.6626 48.525 41.6923C48.54 41.7219 48.5442 41.7559 48.5368 41.7883C48.5294 41.8206 48.5109 41.8494 48.4845 41.8696C48.317 41.9988 48.1374 41.9946 47.9458 41.8571C47.9348 41.849 47.9263 41.838 47.9213 41.8253C47.9162 41.8127 47.9148 41.7989 47.9171 41.7856C47.9195 41.7723 47.9255 41.76 47.9346 41.7501C47.9436 41.7402 47.9553 41.7331 47.9683 41.7296Z" fill="#D70418"/>
<path d="M49.4326 41.7703C49.4335 41.8174 49.4035 41.8631 49.3493 41.8975C49.2951 41.9318 49.2211 41.9519 49.1435 41.9534C49.1051 41.9541 49.067 41.9503 49.0314 41.942C48.9957 41.9338 48.9632 41.9214 48.9357 41.9054C48.9083 41.8894 48.8864 41.8703 48.8712 41.849C48.8561 41.8278 48.8481 41.8049 48.8477 41.7816C48.8468 41.7345 48.8767 41.6888 48.9309 41.6544C48.9851 41.6201 49.0592 41.6 49.1367 41.5985C49.1751 41.5977 49.2132 41.6016 49.2489 41.6098C49.2845 41.6181 49.317 41.6305 49.3445 41.6465C49.372 41.6624 49.3939 41.6816 49.409 41.7028C49.4241 41.7241 49.4321 41.747 49.4326 41.7703Z" fill="#D70418"/>
<path d="M50.1734 41.8585C50.1661 41.882 50.1534 41.9036 50.1359 41.9221C50.1184 41.9405 50.0965 41.9554 50.0714 41.9659C50.0463 41.9764 50.0186 41.9823 49.9897 41.9832C49.9608 41.9842 49.9314 41.9803 49.9032 41.9716C49.875 41.9629 49.8484 41.9496 49.8251 41.9326C49.8018 41.9156 49.7821 41.8951 49.7673 41.8723C49.7524 41.8495 49.7427 41.8249 49.7386 41.7998C49.7344 41.7747 49.736 41.7497 49.7433 41.7262C49.7505 41.7027 49.7633 41.6811 49.7808 41.6626C49.7983 41.6442 49.8202 41.6293 49.8453 41.6188C49.8703 41.6083 49.8981 41.6024 49.927 41.6015C49.9558 41.6005 49.9852 41.6045 50.0135 41.6131C50.0417 41.6218 50.0683 41.6351 50.0916 41.6521C50.1149 41.6691 50.1345 41.6896 50.1494 41.7124C50.1642 41.7352 50.174 41.7598 50.1781 41.7849C50.1822 41.81 50.1806 41.835 50.1734 41.8585Z" fill="#D70418"/>
<path d="M51.1068 41.657C51.1174 41.6587 51.1276 41.6625 51.1367 41.6681C51.1459 41.6737 51.1538 41.6811 51.1601 41.6898C51.1664 41.6986 51.1709 41.7084 51.1733 41.7189C51.1758 41.7294 51.1761 41.7402 51.1743 41.7508L51.1731 41.7558C51.1608 41.8299 51.1236 41.8968 51.0697 41.9418C51.0158 41.9868 50.9496 42.0062 50.8856 41.9958L50.8606 41.9908C50.7965 41.9801 50.74 41.9404 50.7034 41.8804C50.6669 41.8204 50.6532 41.745 50.6656 41.6708V41.6658C50.6692 41.6446 50.6812 41.6257 50.6987 41.6133C50.7163 41.6009 50.7381 41.5959 50.7593 41.5996L51.1068 41.657Z" fill="#D70418"/>
<path d="M49.9647 42.5759L49.7484 42.4372C49.7084 42.4113 49.7076 42.3847 49.7459 42.3572C49.8776 42.2613 50.0167 42.2205 50.1634 42.2347C50.1783 42.2361 50.1927 42.2412 50.2051 42.2496C50.2176 42.258 50.2278 42.2693 50.2348 42.2827C50.2418 42.296 50.2455 42.3109 50.2455 42.3261C50.2455 42.3413 50.2417 42.3562 50.2347 42.3697C50.1834 42.4672 50.1372 42.7084 50.0947 42.7534C50.0855 42.7643 50.0751 42.7722 50.0634 42.7772C50.0226 42.7972 50.0022 42.7847 50.0022 42.7397V42.6434C50.0022 42.6143 49.9897 42.5918 49.9647 42.5759Z" fill="#D70418"/>
<path d="M50.7685 42.4773C50.7533 42.4735 50.7393 42.4662 50.7275 42.456C50.7156 42.4457 50.7064 42.4329 50.7006 42.4185C50.6947 42.4041 50.6924 42.3885 50.6937 42.3731C50.6951 42.3577 50.7002 42.3429 50.7085 42.3298C50.811 42.1686 51.226 42.1361 51.2623 42.4398C51.2998 42.7598 50.9348 42.9398 51.3748 43.2186C51.4298 43.2544 51.4302 43.2907 51.376 43.3273C51.256 43.4115 51.1214 43.4411 50.9723 43.4161C50.9494 43.4121 50.9283 43.4012 50.9116 43.3849C50.8949 43.3687 50.8834 43.3478 50.8785 43.3248C50.8577 43.2198 50.8919 43.1394 50.981 43.0836C51.0219 43.0577 51.0469 43.0215 51.056 42.9748C51.1094 42.7023 51.0135 42.5365 50.7685 42.4773Z" fill="#D70418"/>
<path d="M48.3721 42.4747C48.0171 42.5084 48.1634 43.0384 48.3246 43.1834C48.3588 43.2143 48.3625 43.2484 48.3359 43.2859C48.2634 43.3868 48.1596 43.4422 48.0246 43.4522C47.9829 43.4552 47.9416 43.4426 47.9086 43.4168C47.8755 43.3909 47.8532 43.3536 47.8459 43.3122C47.83 43.2197 47.8604 43.1468 47.9371 43.0934C47.9688 43.0718 47.9884 43.0413 47.9959 43.0022C48.035 42.7888 48.0046 42.5893 47.9046 42.4034C47.8971 42.3889 47.8933 42.3728 47.8938 42.3565C47.8942 42.3401 47.8988 42.3242 47.9071 42.3103C47.9154 42.2963 47.9271 42.2848 47.9411 42.2768C47.9551 42.2688 47.971 42.2647 47.9871 42.2647L48.3621 42.2609C48.3904 42.2593 48.4181 42.2689 48.4391 42.2878C48.4601 42.3067 48.4726 42.3332 48.4739 42.3616C48.4753 42.3899 48.4653 42.4177 48.4462 42.439C48.4271 42.4602 48.4004 42.473 48.3721 42.4747Z" fill="#D70418"/>
<path d="M49.3213 42.261C49.3303 42.2607 49.3393 42.2622 49.3477 42.2653C49.3561 42.2685 49.3637 42.2733 49.3703 42.2795C49.3768 42.2856 49.382 42.293 49.3856 42.3012C49.3892 42.3095 49.3912 42.3183 49.3913 42.3273V42.3648C49.3931 42.4342 49.3687 42.5015 49.3235 42.5519C49.2783 42.6023 49.2159 42.6316 49.1501 42.6335H49.1176C49.0517 42.6351 48.9878 42.609 48.94 42.561C48.8921 42.5129 48.8643 42.4469 48.8626 42.3773L48.8613 42.3398C48.861 42.3221 48.8676 42.305 48.8798 42.2921C48.8919 42.2793 48.9087 42.2717 48.9263 42.271L49.3213 42.261Z" fill="#D70418"/>
<path d="M5.09619 44.1372H3.56494C3.52327 44.1372 3.50244 44.1164 3.50244 44.0747V43.1072C3.50244 42.9831 3.56452 42.921 3.68869 42.921L8.56119 42.9172C8.61505 42.9172 8.66751 42.9343 8.71108 42.966C8.75464 42.9976 8.78706 43.0423 8.80369 43.0935C9.06453 43.9052 9.32911 44.6935 9.59744 45.4585C10.0224 46.6685 10.6599 47.861 11.0824 49.1172C11.3999 50.0597 11.7316 51.0285 12.0774 52.0235C12.087 52.0509 12.1038 52.0751 12.126 52.0937C12.1482 52.1122 12.1751 52.1244 12.2037 52.1289C12.2323 52.1334 12.2616 52.13 12.2885 52.1192C12.3153 52.1083 12.3387 52.0904 12.3562 52.0673C12.5579 51.8023 12.7216 51.491 12.8474 51.1335C13.2841 49.8977 13.7016 48.6564 14.0999 47.4097C14.2116 47.0589 14.3687 46.6864 14.5712 46.2922C15.1087 45.2439 15.5254 44.1585 15.8212 43.036C15.8303 43.0022 15.8501 42.9724 15.8777 42.9512C15.9053 42.93 15.939 42.9185 15.9737 42.9185H20.9987C21.0144 42.9185 21.0295 42.9246 21.0407 42.9356C21.0519 42.9466 21.0584 42.9615 21.0587 42.9772L21.0799 44.0197C21.0803 44.0351 21.0775 44.0503 21.0719 44.0645C21.0663 44.0788 21.0579 44.0917 21.0472 44.1027C21.0364 44.1136 21.0237 44.1223 21.0095 44.1283C20.9954 44.1342 20.9803 44.1372 20.9649 44.1372H19.4712C19.4304 44.1372 19.4099 44.1581 19.4099 44.1997L19.4074 56.2098C19.4074 56.2589 19.432 56.2839 19.4812 56.2848L20.9612 56.3135C20.9859 56.3141 21.0093 56.3242 21.0268 56.3417C21.0442 56.3591 21.0543 56.3826 21.0549 56.4073L21.0899 57.451C21.0903 57.463 21.0882 57.475 21.0839 57.4862C21.0796 57.4974 21.0731 57.5077 21.0648 57.5163C21.0566 57.5249 21.0467 57.5318 21.0357 57.5364C21.0248 57.5411 21.0131 57.5435 21.0012 57.5435H14.5649C14.5484 57.5435 14.5325 57.5369 14.5208 57.5252C14.509 57.5135 14.5024 57.4976 14.5024 57.481V56.4148C14.5024 56.3887 14.5126 56.3636 14.5308 56.3449C14.5491 56.3262 14.5739 56.3154 14.5999 56.3148L16.1162 56.2848C16.1332 56.2844 16.1494 56.2774 16.1613 56.2653C16.1733 56.2531 16.1799 56.2368 16.1799 56.2198L16.2124 45.2697C16.2124 45.2682 16.2118 45.2666 16.2108 45.2654C16.2098 45.2642 16.2085 45.2633 16.2069 45.2629C16.2054 45.2625 16.2038 45.2625 16.2023 45.2631C16.2008 45.2637 16.1996 45.2647 16.1987 45.266C15.6324 46.4885 15.2599 47.7785 14.7149 49.0147C13.9512 50.7435 13.4124 52.491 12.8012 54.2423C12.7154 54.4898 12.5054 54.8477 12.1712 55.316C12.152 55.3427 12.1262 55.356 12.0937 55.356H10.2562C10.2082 55.356 10.1614 55.3412 10.1222 55.3137C10.0831 55.2862 10.0535 55.2472 10.0374 55.2023C9.44619 53.5485 8.89244 51.8898 8.23369 50.2235C7.58869 48.5943 6.97161 46.9543 6.38244 45.3035C6.35661 45.2318 6.33036 45.2318 6.30369 45.3035C6.24203 45.4668 6.21161 45.6327 6.21244 45.801C6.22827 49.2735 6.23452 52.746 6.23119 56.2185C6.23119 56.2668 6.25536 56.291 6.30369 56.291L7.78619 56.2985C7.84702 56.2985 7.87744 56.3289 7.87744 56.3898V57.481C7.87744 57.5227 7.85661 57.5435 7.81494 57.5435H3.56494C3.52327 57.5435 3.50244 57.5227 3.50244 57.481V56.386C3.50244 56.369 3.50911 56.3526 3.52103 56.3405C3.53296 56.3283 3.54917 56.3213 3.56619 56.321L5.06744 56.2835C5.09187 56.2829 5.11508 56.2727 5.13212 56.2552C5.14917 56.2377 5.1587 56.2142 5.15869 56.1898V44.1997C5.15869 44.1581 5.13786 44.1372 5.09619 44.1372Z" fill="#D70418"/>
<path d="M48.8078 43.4123C48.8037 43.4127 48.7996 43.4122 48.7957 43.4109C48.7917 43.4097 48.7881 43.4076 48.785 43.405C48.7818 43.4023 48.7793 43.399 48.7774 43.3954C48.7755 43.3917 48.7744 43.3877 48.7741 43.3836L48.7728 43.3661C48.7654 43.2899 48.7892 43.2139 48.8391 43.1546C48.8891 43.0953 48.961 43.0576 49.0391 43.0498L49.0816 43.0461C49.1597 43.0386 49.2376 43.0616 49.2981 43.1101C49.3586 43.1586 49.3967 43.2287 49.4041 43.3048L49.4066 43.3223C49.4069 43.3264 49.4064 43.3306 49.4052 43.3345C49.4039 43.3384 49.4019 43.342 49.3992 43.3452C49.3966 43.3483 49.3933 43.3509 49.3896 43.3528C49.3859 43.3546 49.3819 43.3558 49.3778 43.3561L48.8078 43.4123Z" fill="#D70418"/>
<path d="M49.7947 43.1522C49.7948 43.1449 49.7965 43.1376 49.7994 43.1309C49.8024 43.1242 49.8067 43.1182 49.8121 43.1132C49.8175 43.1082 49.8238 43.1043 49.8306 43.1018C49.8375 43.0992 49.8448 43.0981 49.8522 43.0984L49.8672 43.0997C49.9308 43.1022 49.9937 43.1083 50.0523 43.1176C50.1108 43.127 50.1638 43.1395 50.2083 43.1543C50.2527 43.1692 50.2878 43.1862 50.3114 43.2042C50.335 43.2223 50.3467 43.2412 50.3459 43.2597L50.3447 43.2822C50.3432 43.3196 50.2908 43.3536 50.1989 43.3765C50.107 43.3995 49.9832 43.4096 49.8547 43.4047L49.8397 43.4034C49.8324 43.4031 49.8254 43.4014 49.8188 43.3983C49.8122 43.3953 49.8064 43.3909 49.8015 43.3856C49.7966 43.3802 49.7928 43.374 49.7904 43.3672C49.7879 43.3604 49.7868 43.3532 49.7872 43.3459L49.7947 43.1522Z" fill="#D70418"/>
<path d="M51.3801 44.0594C51.366 44.1218 51.3241 44.1753 51.2636 44.208C51.2032 44.2408 51.129 44.2501 51.0576 44.234C51.0222 44.226 50.9885 44.2121 50.9585 44.1929C50.9284 44.1737 50.9026 44.1496 50.8825 44.1221C50.8624 44.0946 50.8484 44.0642 50.8413 44.0326C50.8342 44.001 50.8341 43.9688 50.8411 43.9379C50.8552 43.8755 50.8971 43.8221 50.9575 43.7893C51.018 43.7566 51.0922 43.7472 51.1636 43.7633C51.199 43.7713 51.2327 43.7853 51.2627 43.8045C51.2928 43.8237 51.3186 43.8477 51.3387 43.8752C51.3588 43.9027 51.3728 43.9331 51.3799 43.9647C51.387 43.9963 51.387 44.0285 51.3801 44.0594Z" fill="#D70418"/>
<path d="M48.3526 44.0335C48.3476 44.0966 48.3128 44.1548 48.2558 44.1952C48.1987 44.2357 48.1242 44.255 48.0485 44.2491C47.9728 44.2431 47.9022 44.2123 47.8522 44.1635C47.8022 44.1146 47.7769 44.0517 47.7819 43.9886C47.7868 43.9255 47.8217 43.8673 47.8787 43.8269C47.9357 43.7864 48.0103 43.7671 48.086 43.773C48.1616 43.779 48.2323 43.8098 48.2823 43.8586C48.3323 43.9075 48.3576 43.9704 48.3526 44.0335Z" fill="#D70418"/>
<path d="M49.3966 44.063C49.3956 44.1011 49.3795 44.1373 49.3519 44.1635C49.3242 44.1898 49.2873 44.204 49.2492 44.203L48.9193 44.1943C48.8812 44.1933 48.845 44.1772 48.8188 44.1496C48.7925 44.1219 48.7783 44.085 48.7793 44.0469L48.7814 43.9669C48.7824 43.9288 48.7985 43.8926 48.8262 43.8664C48.8538 43.8401 48.8908 43.826 48.9289 43.827L49.2588 43.8356C49.2969 43.8366 49.3331 43.8527 49.3593 43.8803C49.3855 43.908 49.3997 43.9449 49.3987 43.9831L49.3966 44.063Z" fill="#D70418"/>
<path d="M50.2526 43.85C50.2748 43.8528 50.2949 43.8642 50.3087 43.8817C50.3225 43.8993 50.3288 43.9216 50.3264 43.9437V43.9537C50.3216 43.9936 50.3109 44.0323 50.2947 44.0677C50.2786 44.1031 50.2574 44.1344 50.2323 44.16C50.2072 44.1855 50.1787 44.2047 50.1486 44.2165C50.1184 44.2283 50.087 44.2325 50.0564 44.2287L50.0264 44.225C49.9645 44.2177 49.909 44.1788 49.872 44.1169C49.8349 44.0551 49.8194 43.9752 49.8289 43.895L49.8301 43.885C49.8314 43.8738 49.8348 43.8629 49.8403 43.8531C49.8457 43.8433 49.8531 43.8346 49.8619 43.8276C49.8708 43.8206 49.8809 43.8155 49.8918 43.8125C49.9026 43.8094 49.9139 43.8086 49.9251 43.81L50.2526 43.85Z" fill="#D70418"/>
<path d="M47.8528 44.92C47.8145 44.8857 47.7971 44.8313 47.8043 44.7688C47.8116 44.7063 47.8429 44.6409 47.8914 44.5868C47.9154 44.5601 47.9429 44.5369 47.9723 44.5187C48.0017 44.5005 48.0325 44.4876 48.0629 44.4807C48.0933 44.4737 48.1226 44.473 48.1493 44.4785C48.176 44.4839 48.1995 44.4955 48.2184 44.5125C48.2567 44.5468 48.2741 44.6012 48.2668 44.6636C48.2596 44.7261 48.2283 44.7916 48.1798 44.8456C48.1558 44.8724 48.1283 44.8955 48.0989 44.9137C48.0694 44.932 48.0387 44.9449 48.0083 44.9518C47.9779 44.9587 47.9485 44.9594 47.9219 44.954C47.8952 44.9485 47.8717 44.937 47.8528 44.92Z" fill="#D70418"/>
<path d="M50.0726 44.9597C50.0455 44.9568 50.0194 44.9477 49.9956 44.933C49.9719 44.9182 49.9511 44.8982 49.9343 44.874C49.9176 44.8497 49.9053 44.8218 49.898 44.7917C49.8908 44.7616 49.8888 44.73 49.8922 44.6987C49.8957 44.6673 49.9044 44.6369 49.9179 44.6091C49.9314 44.5813 49.9494 44.5566 49.971 44.5365C49.9926 44.5165 50.0172 44.5014 50.0435 44.4921C50.0699 44.4828 50.0974 44.4796 50.1245 44.4825C50.1516 44.4854 50.1777 44.4945 50.2014 44.5092C50.2252 44.5239 50.246 44.544 50.2627 44.5682C50.2795 44.5925 50.2918 44.6204 50.299 44.6505C50.3063 44.6806 50.3082 44.7122 50.3048 44.7435C50.3014 44.7748 50.2927 44.8053 50.2792 44.8331C50.2657 44.8609 50.2476 44.8856 50.2261 44.9057C50.2045 44.9257 50.1799 44.9408 50.1535 44.9501C50.1272 44.9594 50.0997 44.9626 50.0726 44.9597Z" fill="#D70418"/>
<path d="M51.4054 44.6499C51.4252 44.6603 51.4401 44.678 51.4468 44.6993C51.4536 44.7206 51.4518 44.7437 51.4416 44.7636L51.4354 44.7774C51.3999 44.847 51.3423 44.9018 51.2752 44.9297C51.2082 44.9575 51.1372 44.9563 51.0779 44.9261L51.0466 44.9099C50.9874 44.8796 50.9447 44.823 50.9278 44.7525C50.911 44.682 50.9213 44.6033 50.9566 44.5336L50.9629 44.5199C50.9679 44.5098 50.9749 44.5008 50.9834 44.4935C50.992 44.4862 51.0019 44.4806 51.0126 44.4771C51.0233 44.4736 51.0345 44.4723 51.0458 44.4732C51.057 44.4741 51.0679 44.4772 51.0779 44.4824L51.4054 44.6499Z" fill="#D70418"/>
<path d="M48.8071 44.6537C48.8053 44.645 48.8052 44.6361 48.8068 44.6273C48.8085 44.6186 48.8119 44.6103 48.8167 44.6028C48.8216 44.5954 48.8279 44.589 48.8353 44.584C48.8426 44.579 48.8509 44.5755 48.8596 44.5737L48.8746 44.5712C48.9281 44.5607 48.982 44.5548 49.0332 44.554C49.0844 44.5533 49.132 44.5576 49.1731 44.5668C49.2142 44.5759 49.248 44.5898 49.2728 44.6075C49.2975 44.6252 49.3125 44.6464 49.3171 44.67L49.3246 44.7087C49.3294 44.7323 49.3236 44.7576 49.3075 44.7834C49.2914 44.8092 49.2654 44.8349 49.2309 44.8591C49.1965 44.8832 49.1542 44.9054 49.1066 44.9242C49.0589 44.943 49.0069 44.9581 48.9534 44.9687L48.9384 44.9712C48.921 44.9746 48.903 44.9709 48.8882 44.9611C48.8735 44.9513 48.8632 44.9361 48.8596 44.9187L48.8071 44.6537Z" fill="#D70418"/>
<path d="M49.3214 45.6298C49.3205 45.649 49.3159 45.6678 49.3077 45.6852C49.2996 45.7026 49.2881 45.7182 49.2739 45.7312C49.2597 45.7441 49.2431 45.7542 49.2251 45.7607C49.207 45.7672 49.1878 45.7702 49.1687 45.7693L48.8965 45.7569C48.8773 45.7561 48.8584 45.7514 48.841 45.7433C48.8236 45.7351 48.808 45.7236 48.7951 45.7095C48.7821 45.6953 48.7721 45.6787 48.7656 45.6606C48.759 45.6426 48.7561 45.6234 48.757 45.6042L48.7669 45.3869C48.7677 45.3677 48.7724 45.3489 48.7805 45.3315C48.7887 45.3141 48.8002 45.2985 48.8143 45.2856C48.8285 45.2726 48.8451 45.2626 48.8632 45.256C48.8812 45.2495 48.9004 45.2466 48.9196 45.2475L49.1918 45.2598C49.211 45.2607 49.2298 45.2653 49.2472 45.2735C49.2646 45.2816 49.2802 45.2931 49.2932 45.3073C49.3061 45.3215 49.3161 45.3381 49.3227 45.3561C49.3292 45.3742 49.3321 45.3934 49.3313 45.4126L49.3214 45.6298Z" fill="#D70418"/>
<path d="M50.3173 45.601C50.3185 45.6209 50.3157 45.6407 50.3092 45.6595C50.3026 45.6782 50.2925 45.6955 50.2793 45.7104C50.266 45.7252 50.25 45.7373 50.2322 45.7459C50.2143 45.7546 50.1949 45.7596 50.175 45.7607L50.0452 45.7682C50.0052 45.7705 49.9659 45.7568 49.9359 45.7301C49.906 45.7035 49.8878 45.666 49.8855 45.6259L49.8733 45.4138C49.8722 45.3939 49.8749 45.3741 49.8815 45.3553C49.888 45.3366 49.8982 45.3193 49.9114 45.3044C49.9246 45.2896 49.9406 45.2775 49.9585 45.2689C49.9764 45.2602 49.9958 45.2552 50.0156 45.2541L50.1454 45.2466C50.1854 45.2443 50.2248 45.258 50.2547 45.2847C50.2847 45.3113 50.3028 45.3488 50.3051 45.3889L50.3173 45.601Z" fill="#D70418"/>
<path d="M51.0074 45.7486C50.9933 45.7483 50.9793 45.7451 50.9664 45.7394C50.9535 45.7337 50.9418 45.7255 50.9321 45.7153C50.9223 45.7051 50.9147 45.6931 50.9096 45.6799C50.9045 45.6667 50.902 45.6527 50.9024 45.6386L50.9061 45.5361C50.9073 45.495 50.9152 45.4544 50.9294 45.4168C50.9436 45.3792 50.9637 45.3453 50.9887 45.317C51.0137 45.2886 51.043 45.2664 51.0749 45.2517C51.1069 45.237 51.1408 45.23 51.1749 45.2311L51.2399 45.2336C51.3084 45.2357 51.3731 45.2707 51.4197 45.3307C51.4663 45.3907 51.4911 45.4708 51.4886 45.5536L51.4849 45.6561C51.4845 45.6703 51.4814 45.6843 51.4756 45.6973C51.4698 45.7103 51.4615 45.722 51.4512 45.7318C51.4408 45.7416 51.4287 45.7492 51.4153 45.7542C51.402 45.7592 51.3878 45.7616 51.3736 45.7611L51.0074 45.7486Z" fill="#D70418"/>
<path d="M48.2705 45.6004C48.2653 45.6479 48.2415 45.6913 48.2043 45.7213C48.1671 45.7512 48.1196 45.7651 48.0721 45.7599L47.8832 45.7394C47.8597 45.7369 47.837 45.7297 47.8162 45.7184C47.7955 45.707 47.7772 45.6917 47.7624 45.6733C47.7476 45.6548 47.7365 45.6337 47.7299 45.611C47.7233 45.5883 47.7212 45.5645 47.7237 45.541L47.7377 45.4118C47.7429 45.3643 47.7667 45.3208 47.8039 45.2909C47.8411 45.261 47.8887 45.2471 47.9361 45.2523L48.125 45.2728C48.1485 45.2753 48.1713 45.2825 48.192 45.2938C48.2128 45.3052 48.2311 45.3205 48.2459 45.3389C48.2607 45.3574 48.2717 45.3785 48.2784 45.4012C48.285 45.4239 48.2871 45.4477 48.2845 45.4712L48.2705 45.6004Z" fill="#D70418"/>
<path d="M28.371 54.0698L24.8198 54.0861C24.7974 54.0865 24.7755 54.0928 24.7564 54.1045C24.7373 54.1161 24.7217 54.1326 24.711 54.1523C24.3227 54.8932 24.0231 55.6673 23.8123 56.4748C23.8077 56.4923 23.8074 56.5107 23.8112 56.5283C23.8151 56.546 23.8231 56.5625 23.8345 56.5765C23.846 56.5905 23.8606 56.6016 23.8771 56.6089C23.8937 56.6162 23.9117 56.6195 23.9298 56.6186L25.0573 56.5623C25.1056 56.5598 25.1298 56.5827 25.1298 56.6311L25.1235 57.4561C25.1232 57.4794 25.1137 57.5016 25.0971 57.518C25.0805 57.5344 25.0581 57.5436 25.0348 57.5436H22.0323C22.0189 57.5436 22.0057 57.5409 21.9935 57.5356C21.9812 57.5303 21.9702 57.5226 21.961 57.5128C21.9519 57.5031 21.9448 57.4916 21.9403 57.4791C21.9358 57.4665 21.9339 57.4531 21.9348 57.4398L21.9785 56.6861C21.9795 56.6648 21.9887 56.6448 22.0043 56.6301C22.0199 56.6155 22.0407 56.6073 22.0623 56.6073L22.8135 56.6061C22.8494 56.6052 22.8723 56.5882 22.8823 56.5548C23.3056 55.2248 23.7402 53.9019 24.186 52.5861C24.3385 52.1348 24.6323 51.7586 24.7798 51.3148C25.4198 49.3948 25.8394 48.1086 26.0385 47.4561C26.2502 46.7594 26.4356 46.2181 26.5948 45.8323C26.6042 45.8099 26.6197 45.7906 26.6396 45.7767C26.6596 45.7627 26.683 45.7547 26.7073 45.7536L28.1998 45.6811C28.2207 45.6799 28.2415 45.6853 28.2594 45.6965C28.2773 45.7077 28.2914 45.7241 28.2998 45.7436C28.7085 46.7148 29.1723 47.6536 29.4923 48.6573C30.3373 51.3048 31.3798 53.8673 32.2573 56.5011C32.2686 56.5345 32.2901 56.5634 32.3189 56.5838C32.3476 56.6043 32.382 56.6151 32.4173 56.6148L33.181 56.6023C33.2402 56.6015 33.2706 56.6307 33.2723 56.6898L33.2885 57.4586C33.2894 57.5152 33.2614 57.5436 33.2048 57.5436H28.431C28.3835 57.5436 28.3606 57.5198 28.3623 57.4723L28.3848 56.7186C28.3853 56.7012 28.3892 56.684 28.3963 56.6681C28.4034 56.6523 28.4136 56.6379 28.4262 56.626C28.4389 56.614 28.4538 56.6047 28.47 56.5985C28.4863 56.5923 28.5036 56.5893 28.521 56.5898L29.4323 56.6123C29.4434 56.6127 29.4546 56.6104 29.4646 56.6056C29.4747 56.6007 29.4834 56.5935 29.4901 56.5845C29.4967 56.5755 29.5011 56.565 29.5028 56.554C29.5045 56.5429 29.5034 56.5316 29.4998 56.5211C29.2148 55.6952 28.8677 54.8957 28.4585 54.1223C28.4402 54.0873 28.411 54.0698 28.371 54.0698Z" fill="#D70418"/>
<path d="M35.4487 46.5122H34.1487C34.1265 46.5122 34.1052 46.5033 34.0895 46.4876C34.0738 46.4719 34.0649 46.4506 34.0649 46.4284V45.7859C34.0649 45.7637 34.0738 45.7424 34.0895 45.7267C34.1052 45.711 34.1265 45.7021 34.1487 45.7021L39.8987 45.7084C39.9101 45.7084 39.9214 45.7107 39.9319 45.7152C39.9424 45.7197 39.9519 45.7264 39.9598 45.7347C39.9676 45.743 39.9737 45.7528 39.9776 45.7636C39.9815 45.7743 39.9831 45.7857 39.9824 45.7971L39.9387 46.4347C39.9371 46.4558 39.9276 46.4755 39.9121 46.4899C39.8965 46.5042 39.8761 46.5122 39.8549 46.5122H38.5237C38.5015 46.5122 38.4802 46.521 38.4645 46.5367C38.4488 46.5524 38.4399 46.5737 38.4399 46.5959V56.3472C38.4399 56.3694 38.4488 56.3907 38.4645 56.4064C38.4802 56.4221 38.5015 56.4309 38.5237 56.4309L42.9812 56.4122C43.0034 56.4122 43.0247 56.4033 43.0404 56.3876C43.0561 56.3719 43.0649 56.3506 43.0649 56.3284V54.6272C43.0649 54.605 43.0738 54.5836 43.0895 54.5679C43.1052 54.5522 43.1265 54.5434 43.1487 54.5434H44.0112C44.0332 54.5434 44.0543 54.5521 44.07 54.5675C44.0856 54.5829 44.0946 54.6039 44.0949 54.6259L44.1249 57.4647C44.1251 57.4758 44.1231 57.4868 44.1189 57.4971C44.1148 57.5074 44.1087 57.5168 44.1009 57.5247C44.0931 57.5326 44.0838 57.5389 44.0735 57.5432C44.0633 57.5475 44.0523 57.5497 44.0412 57.5497L34.1487 57.5297C34.1265 57.5297 34.1052 57.5208 34.0895 57.5051C34.0738 57.4894 34.0649 57.4681 34.0649 57.4459V56.6897C34.0649 56.6675 34.0738 56.6462 34.0895 56.6304C34.1052 56.6147 34.1265 56.6059 34.1487 56.6059H35.4299C35.4522 56.6059 35.4735 56.5971 35.4892 56.5814C35.5049 56.5657 35.5137 56.5444 35.5137 56.5222L35.5324 46.5959C35.5324 46.5737 35.5236 46.5524 35.5079 46.5367C35.4922 46.521 35.4709 46.5122 35.4487 46.5122Z" fill="#D70418"/>
<path d="M60.0319 49.0012C60.0171 48.9781 59.9952 48.9605 59.9694 48.951C59.9437 48.9415 59.9155 48.9406 59.8893 48.9485C59.863 48.9564 59.84 48.9727 59.8238 48.9948C59.8076 49.017 59.799 49.0438 59.7994 49.0712L59.8582 56.5525C59.8582 56.5601 59.8597 56.5676 59.8627 56.5746C59.8657 56.5816 59.87 56.5879 59.8755 56.5932C59.881 56.5984 59.8875 56.6025 59.8946 56.6052C59.9017 56.6079 59.9093 56.6091 59.9169 56.6087L61.1044 56.565C61.1155 56.5647 61.1265 56.5665 61.1368 56.5704C61.1471 56.5744 61.1565 56.5803 61.1644 56.5879C61.1723 56.5955 61.1786 56.6045 61.1829 56.6146C61.1872 56.6246 61.1894 56.6354 61.1894 56.6462V57.4387C61.1894 57.4536 61.1865 57.4682 61.1807 57.4819C61.175 57.4956 61.1666 57.5079 61.156 57.5183C61.1454 57.5287 61.1328 57.5368 61.119 57.5422C61.1052 57.5477 61.0905 57.5503 61.0757 57.55L57.4657 57.5037C57.4273 57.5037 57.4082 57.4842 57.4082 57.445V56.7C57.4082 56.6375 57.4394 56.6062 57.5019 56.6062H58.6907C58.7332 56.6062 58.7544 56.585 58.7544 56.5425L58.7694 46.6675C58.7694 46.6291 58.7544 46.5923 58.7275 46.5649C58.7006 46.5376 58.664 46.5219 58.6257 46.5212L57.4382 46.4937C57.4285 46.4936 57.419 46.4915 57.4102 46.4875C57.4015 46.4835 57.3936 46.4778 57.3872 46.4706C57.3807 46.4634 57.3758 46.455 57.3727 46.4459C57.3697 46.4367 57.3686 46.4271 57.3694 46.4175L57.4132 45.7887C57.4165 45.7446 57.4403 45.7225 57.4844 45.7225L60.6269 45.6912C60.6537 45.6904 60.68 45.6983 60.7019 45.7137C61.0761 45.9712 61.3619 46.2291 61.5594 46.4875C62.9078 48.2533 64.2803 50.0008 65.6769 51.73C65.8969 52.0033 66.1228 52.3046 66.3544 52.6337C66.5994 52.9812 67.0557 53.7975 67.4882 53.8837C67.5033 53.8867 67.5189 53.8862 67.5339 53.8825C67.5489 53.8787 67.5628 53.8716 67.5748 53.8618C67.5867 53.8521 67.5963 53.8398 67.603 53.8258C67.6096 53.8119 67.6131 53.7967 67.6132 53.7812L67.6144 46.6C67.6144 46.5416 67.5853 46.5125 67.5269 46.5125H66.2244C66.1853 46.5125 66.1653 46.4929 66.1644 46.4537L66.1432 45.795C66.1415 45.7441 66.1665 45.7187 66.2182 45.7187L69.9194 45.6925C69.9744 45.6916 70.0019 45.7187 70.0019 45.7737V46.4187C70.0019 46.4812 69.9707 46.5125 69.9082 46.5125H68.5969C68.5787 46.5125 68.5612 46.5197 68.5483 46.5326C68.5354 46.5455 68.5282 46.563 68.5282 46.5812L68.5357 57.4775C68.5357 57.4957 68.5284 57.5132 68.5155 57.5261C68.5026 57.539 68.4852 57.5462 68.4669 57.5462L66.5732 57.5387C66.5539 57.5387 66.5349 57.5335 66.5182 57.5236C66.5015 57.5137 66.4877 57.4995 66.4782 57.4825C66.2582 57.0937 66.0619 56.7312 65.7807 56.3812C64.264 54.4921 62.7544 52.5979 61.2519 50.6987C60.8319 50.1679 60.4253 49.6021 60.0319 49.0012Z" fill="#D70418"/>
<path d="M72.5957 46.5123H71.2407C71.2192 46.5123 71.1985 46.5037 71.1833 46.4885C71.168 46.4733 71.1595 46.4526 71.1595 46.431V45.806C71.1595 45.7924 71.1621 45.7789 71.1673 45.7663C71.1724 45.7538 71.18 45.7423 71.1895 45.7327C71.199 45.723 71.2103 45.7154 71.2227 45.7102C71.2352 45.705 71.2485 45.7023 71.262 45.7023C73.0961 45.6981 74.9257 45.696 76.7507 45.696C79.5382 45.696 82.0482 46.4923 82.7182 49.5061C83.117 51.3011 83.1332 54.4398 81.5907 55.8473C79.537 57.7198 77.7057 57.4961 75.1157 57.5286C73.819 57.5452 72.5224 57.5502 71.2257 57.5436C71.1807 57.5436 71.1582 57.5211 71.1582 57.4761V56.7336C71.1582 56.7134 71.1622 56.6934 71.17 56.6748C71.1777 56.6562 71.1891 56.6394 71.2035 56.6253C71.2178 56.6112 71.2348 56.6001 71.2534 56.5927C71.272 56.5854 71.2919 56.5818 71.312 56.5823L72.5745 56.6148C72.6303 56.6156 72.6582 56.5886 72.6582 56.5336V46.5748C72.6582 46.5331 72.6374 46.5123 72.5957 46.5123Z" fill="#D70418"/>
<path d="M86.5821 56.406C86.0421 55.9423 85.4159 55.3548 85.1309 54.7248C84.3146 52.9148 84.3209 50.0897 85.1996 48.3122C85.6121 47.4797 86.6096 46.5185 87.5371 46.1897C89.5054 45.4931 91.4392 45.5602 93.3384 46.391C93.8534 46.616 94.1771 46.9047 94.5134 47.386C96.2109 49.8122 96.3921 52.9898 94.7021 55.481C93.0646 57.8935 88.7196 58.241 86.5821 56.406Z" fill="#D70418"/>
<path d="M50.294 46.1453C50.3016 46.184 50.2885 46.2251 50.2575 46.2596C50.2265 46.2941 50.1802 46.3192 50.1288 46.3293C50.0774 46.3393 50.0251 46.3336 49.9834 46.3134C49.9417 46.2932 49.914 46.26 49.9064 46.2213C49.8988 46.1826 49.9119 46.1415 49.9429 46.107C49.9739 46.0725 50.0202 46.0474 50.0716 46.0373C50.123 46.0273 50.1753 46.033 50.217 46.0532C50.2587 46.0734 50.2864 46.1066 50.294 46.1453Z" fill="#D70418"/>
<path d="M48.2606 46.1618C48.2643 46.2011 48.241 46.2413 48.1958 46.2736C48.1506 46.3059 48.0872 46.3276 48.0195 46.334C47.986 46.3372 47.9525 46.3365 47.9208 46.332C47.8892 46.3275 47.86 46.3192 47.835 46.3077C47.81 46.2962 47.7897 46.2816 47.7752 46.2649C47.7606 46.2481 47.7522 46.2295 47.7504 46.21C47.7467 46.1708 47.77 46.1306 47.8152 46.0983C47.8604 46.066 47.9238 46.0442 47.9915 46.0378C48.025 46.0347 48.0585 46.0354 48.0902 46.0399C48.1218 46.0444 48.151 46.0527 48.176 46.0642C48.201 46.0757 48.2213 46.0902 48.2358 46.107C48.2504 46.1237 48.2588 46.1424 48.2606 46.1618Z" fill="#D70418"/>
<path d="M48.8135 46.1022C48.8133 46.0951 48.8146 46.0881 48.8171 46.0815C48.8196 46.0749 48.8235 46.0689 48.8283 46.0638C48.8332 46.0587 48.8391 46.0546 48.8455 46.0518C48.852 46.0489 48.8589 46.0474 48.866 46.0472L48.906 46.0459C48.9594 46.0449 49.0123 46.0466 49.0617 46.0507C49.1111 46.0549 49.156 46.0615 49.1938 46.0702C49.2316 46.0789 49.2617 46.0896 49.2822 46.1015C49.3028 46.1134 49.3134 46.1264 49.3135 46.1397L49.316 46.2197C49.3162 46.2465 49.2736 46.2731 49.1977 46.2934C49.1218 46.3138 49.0186 46.3264 48.911 46.3284L48.871 46.3297C48.8639 46.3299 48.8569 46.3286 48.8503 46.3261C48.8437 46.3235 48.8377 46.3197 48.8326 46.3148C48.8275 46.31 48.8234 46.3041 48.8206 46.2977C48.8177 46.2912 48.8162 46.2843 48.816 46.2772L48.8135 46.1022Z" fill="#D70418"/>
<path d="M51.4511 46.161C51.4536 46.1784 51.4489 46.1966 51.4373 46.2146C51.4256 46.2326 51.4074 46.2501 51.3835 46.266C51.3596 46.2819 51.3305 46.2959 51.2979 46.3073C51.2654 46.3187 51.23 46.3271 51.1937 46.3322C51.1205 46.3425 51.0483 46.3384 50.9931 46.3209C50.9378 46.3033 50.904 46.2737 50.8991 46.2386C50.8966 46.2212 50.9013 46.203 50.913 46.1849C50.9246 46.1669 50.9428 46.1495 50.9667 46.1336C50.9907 46.1177 51.0197 46.1036 51.0523 46.0923C51.0848 46.0809 51.1202 46.0724 51.1565 46.0673C51.2297 46.057 51.3019 46.0611 51.3571 46.0787C51.4124 46.0963 51.4462 46.1259 51.4511 46.161Z" fill="#D70418"/>
<path d="M88.7758 56.0825C87.1783 54.7613 87.3683 51.5438 87.5883 49.5988C87.7333 48.3162 88.5058 46.6162 89.907 46.4862C93.1995 46.1787 92.9408 51.47 92.7308 53.3888C92.5858 54.71 92.2633 56.015 90.9045 56.4763C90.1237 56.7421 89.4141 56.6108 88.7758 56.0825Z" fill="#FFFF00"/>
<path d="M75.4394 46.742C75.4394 46.6774 75.4651 46.6154 75.5108 46.5697C75.5565 46.524 75.6185 46.4983 75.6831 46.4983L76.6306 46.5008C77.5007 46.5025 78.3343 46.9256 78.9482 47.6771C79.5622 48.4286 79.9061 49.447 79.9044 50.5083L79.9019 52.6208C79.901 53.1465 79.8153 53.667 79.6496 54.1524C79.4838 54.6379 79.2413 55.0788 78.9359 55.45C78.6305 55.8212 78.2682 56.1155 77.8696 56.3159C77.4711 56.5164 77.0441 56.6191 76.6131 56.6183L75.6656 56.6158C75.601 56.6158 75.539 56.5901 75.4933 56.5444C75.4476 56.4987 75.4219 56.4367 75.4219 56.3721L75.4394 46.742Z" fill="#FFFF00"/>
<path d="M50.3231 46.7193C50.3238 46.7369 50.3187 46.7544 50.3082 46.7711C50.2977 46.7877 50.2819 46.803 50.2618 46.8162C50.2418 46.8294 50.2177 46.8401 50.1912 46.8478C50.1646 46.8555 50.1359 46.86 50.1069 46.8611C50.0483 46.8632 49.9915 46.8512 49.9491 46.8277C49.9068 46.8041 49.8822 46.771 49.8809 46.7355C49.8803 46.718 49.8854 46.7004 49.8959 46.6838C49.9064 46.6671 49.9221 46.6518 49.9422 46.6386C49.9623 46.6255 49.9863 46.6147 50.0129 46.607C50.0395 46.5993 50.0681 46.5948 50.0971 46.5938C50.1558 46.5916 50.2125 46.6036 50.2549 46.6272C50.2973 46.6507 50.3218 46.6839 50.3231 46.7193Z" fill="#D70418"/>
<path d="M51.5024 46.684C51.5068 46.7185 51.478 46.7558 51.4225 46.7876C51.367 46.8195 51.2892 46.8432 51.2063 46.8537C51.1653 46.8589 51.1242 46.8606 51.0855 46.8589C51.0468 46.8571 51.0111 46.8519 50.9805 46.8435C50.95 46.835 50.9252 46.8236 50.9075 46.8098C50.8898 46.796 50.8795 46.78 50.8774 46.7629C50.873 46.7284 50.9018 46.6911 50.9573 46.6593C51.0128 46.6275 51.0906 46.6037 51.1735 46.5933C51.2145 46.5881 51.2556 46.5863 51.2943 46.5881C51.333 46.5898 51.3687 46.5951 51.3993 46.6035C51.4298 46.6119 51.4546 46.6234 51.4723 46.6372C51.49 46.651 51.5003 46.6669 51.5024 46.684Z" fill="#D70418"/>
<path d="M48.308 46.7426C48.3071 46.7598 48.2986 46.7765 48.283 46.7916C48.2673 46.8067 48.2449 46.8201 48.2169 46.8308C48.1889 46.8415 48.1559 46.8495 48.1198 46.8542C48.0837 46.8589 48.0452 46.8603 48.0066 46.8583C47.9679 46.8562 47.9297 46.8508 47.8943 46.8424C47.8589 46.8339 47.827 46.8226 47.8003 46.809C47.7735 46.7954 47.7526 46.7798 47.7386 46.7631C47.7247 46.7464 47.7179 46.729 47.7188 46.7118C47.7197 46.6945 47.7282 46.6779 47.7439 46.6628C47.7595 46.6476 47.782 46.6343 47.81 46.6236C47.838 46.6129 47.871 46.6049 47.907 46.6002C47.9431 46.5955 47.9816 46.5941 48.0203 46.5961C48.059 46.5981 48.0971 46.6035 48.1325 46.612C48.1679 46.6205 48.1999 46.6318 48.2266 46.6454C48.2533 46.659 48.2743 46.6746 48.2882 46.6913C48.3022 46.708 48.3089 46.7254 48.308 46.7426Z" fill="#D70418"/>
<path d="M49.3384 46.7328C49.3385 46.75 49.3313 46.7672 49.3173 46.7832C49.3032 46.7992 49.2825 46.8138 49.2563 46.8262C49.2302 46.8386 49.1991 46.8484 49.1649 46.8553C49.1306 46.8621 49.0939 46.8658 49.0568 46.866C48.9819 46.8665 48.91 46.8532 48.8568 46.829C48.8037 46.8047 48.7737 46.7716 48.7734 46.7368C48.7733 46.7195 48.7805 46.7024 48.7946 46.6864C48.8087 46.6704 48.8294 46.6557 48.8555 46.6434C48.8817 46.631 48.9127 46.6211 48.947 46.6143C48.9812 46.6074 49.0179 46.6038 49.055 46.6035C49.1299 46.603 49.2019 46.6163 49.255 46.6406C49.3082 46.6648 49.3382 46.698 49.3384 46.7328Z" fill="#D70418"/>
<path d="M48.1345 48.4448C48.1345 48.4463 48.1342 48.4477 48.1336 48.449C48.1331 48.4503 48.1322 48.4514 48.1312 48.4524C48.1301 48.4533 48.1288 48.4541 48.1275 48.4545C48.1261 48.4549 48.1247 48.455 48.1233 48.4548H48.122C48.0317 48.4524 47.9469 48.3729 47.8862 48.234C47.8255 48.095 47.7939 47.9079 47.7983 47.7136V47.6836C47.8004 47.5871 47.8114 47.4917 47.8306 47.4029C47.8499 47.3141 47.8769 47.2336 47.9102 47.1662C47.9436 47.0987 47.9825 47.0455 48.0249 47.0097C48.0672 46.9738 48.1121 46.9561 48.157 46.9573H48.1583C48.1607 46.9576 48.1629 46.9588 48.1645 46.9607C48.1661 46.9625 48.167 46.9649 48.167 46.9673L48.1345 48.4448Z" fill="#D70418"/>
<path d="M50.0628 48.7123C49.9903 48.1364 49.9944 47.5614 50.0753 46.9873C50.0755 46.9813 50.0769 46.9755 50.0794 46.9702C50.0819 46.9648 50.0854 46.96 50.0898 46.956C50.0941 46.952 50.0992 46.9489 50.1048 46.9468C50.1103 46.9448 50.1162 46.9439 50.1221 46.9441C50.1281 46.9444 50.1339 46.9458 50.1392 46.9483C50.1446 46.9508 50.1494 46.9543 50.1534 46.9586C50.1574 46.963 50.1605 46.9681 50.1626 46.9736C50.1646 46.9792 50.1655 46.9851 50.1653 46.991C50.1886 47.381 50.1982 47.7793 50.194 48.186C50.1903 48.4373 49.9865 48.7123 50.3378 48.8998C50.3803 48.9223 50.384 48.9498 50.349 48.9823C50.1907 49.1298 50.0257 49.1423 49.854 49.0198C49.8423 49.0115 49.8329 49.0004 49.8267 48.9875C49.8204 48.9746 49.8176 48.9604 49.8185 48.9461C49.8194 48.9318 49.8239 48.9179 49.8317 48.9059C49.8394 48.8938 49.8501 48.884 49.8628 48.8773L50.0228 48.7898C50.0544 48.7731 50.0678 48.7473 50.0628 48.7123Z" fill="#D70418"/>
<path d="M51.1565 48.5234C51.1018 48.5228 51.0502 48.4426 51.013 48.3004C50.9758 48.1582 50.9561 47.9656 50.9582 47.765C50.9592 47.6657 50.9656 47.5675 50.9769 47.4758C50.9882 47.3842 51.0043 47.301 51.0242 47.2309C51.0441 47.1609 51.0674 47.1055 51.0928 47.0677C51.1182 47.03 51.1452 47.0107 51.1723 47.011C51.227 47.0116 51.2786 47.0918 51.3158 47.234C51.353 47.3762 51.3727 47.5688 51.3706 47.7694C51.3696 47.8687 51.3632 47.967 51.3519 48.0586C51.3406 48.1502 51.3245 48.2334 51.3046 48.3035C51.2847 48.3735 51.2614 48.4289 51.236 48.4667C51.2106 48.5044 51.1836 48.5237 51.1565 48.5234Z" fill="#D70418"/>
<path d="M48.9745 48.4933C48.9345 48.5133 48.914 48.5008 48.9132 48.4558L48.8994 47.092C48.899 47.0803 48.9025 47.0687 48.9092 47.0591C48.916 47.0495 48.9257 47.0424 48.9369 47.0389C48.9481 47.0353 48.9602 47.0356 48.9713 47.0395C48.9823 47.0435 48.9918 47.0509 48.9982 47.0608C49.1907 47.3491 49.2274 47.6437 49.1082 47.9445C49.094 47.9804 49.0961 48.0158 49.1145 48.0508C49.2178 48.2491 49.1711 48.3966 48.9745 48.4933Z" fill="#D70418"/>
<path d="M25.2291 53.2309C25.2083 53.2309 25.1878 53.2259 25.1692 53.2165C25.1506 53.2072 25.1346 53.1936 25.1223 53.1769C25.11 53.1602 25.1018 53.1409 25.0984 53.1205C25.0951 53.1002 25.0966 53.0793 25.1029 53.0597L26.4341 48.8809C26.4414 48.858 26.4549 48.8377 26.4729 48.8222C26.6366 48.6909 26.8241 48.7409 26.8866 48.9397C27.3291 50.3438 27.7712 51.748 28.2129 53.1522C28.2295 53.2047 28.2104 53.2309 28.1554 53.2309H25.2291Z" fill="#FFFF00"/>
<path d="M48.315 48.9198C48.317 48.9645 48.2857 49.0089 48.2281 49.043C48.1704 49.0772 48.0912 49.0985 48.0077 49.1021C47.9664 49.1039 47.9253 49.1014 47.8867 49.0946C47.8482 49.0878 47.8129 49.0769 47.783 49.0625C47.7531 49.0481 47.7291 49.0305 47.7124 49.0108C47.6957 48.991 47.6866 48.9694 47.6856 48.9473C47.6837 48.9026 47.715 48.8582 47.7726 48.8241C47.8302 48.7899 47.9095 48.7686 47.993 48.765C48.0343 48.7632 48.0754 48.7657 48.114 48.7725C48.1525 48.7793 48.1877 48.7902 48.2177 48.8046C48.2476 48.819 48.2715 48.8366 48.2883 48.8563C48.305 48.8761 48.3141 48.8977 48.315 48.9198Z" fill="#D70418"/>
<path d="M48.7894 49.0712C48.7729 49.0655 48.7592 49.0537 48.751 49.0384C48.7429 49.023 48.741 49.0053 48.7457 48.9887L48.7919 48.8237C48.8069 48.7696 48.8419 48.7492 48.8969 48.7625L49.3369 48.8712C49.349 48.8744 49.3601 48.8809 49.3687 48.89C49.3774 48.8991 49.3833 48.9104 49.3858 48.9225C49.3883 48.9347 49.3872 48.9473 49.3828 48.9588C49.3783 48.9703 49.3707 48.9802 49.3607 48.9875C49.1882 49.1158 48.9978 49.1437 48.7894 49.0712Z" fill="#D70418"/>
<path d="M51.5163 48.9683C51.5149 48.989 51.5045 49.0088 51.4859 49.0267C51.4672 49.0446 51.4406 49.0601 51.4075 49.0725C51.3744 49.0849 51.3356 49.0939 51.2931 49.099C51.2507 49.104 51.2055 49.105 51.1601 49.1019C51.1147 49.0988 51.0701 49.0917 51.0287 49.0809C50.9873 49.0702 50.95 49.056 50.919 49.0392C50.8879 49.0225 50.8636 49.0034 50.8476 48.9832C50.8315 48.9629 50.824 48.9419 50.8254 48.9212C50.8268 48.9006 50.8371 48.8808 50.8557 48.8629C50.8744 48.845 50.901 48.8294 50.9341 48.817C50.9672 48.8046 51.0061 48.7956 51.0485 48.7906C51.091 48.7856 51.1362 48.7846 51.1815 48.7876C51.2269 48.7907 51.2715 48.7979 51.3129 48.8086C51.3543 48.8194 51.3916 48.8335 51.4227 48.8503C51.4537 48.8671 51.478 48.8862 51.4941 48.9064C51.5101 48.9267 51.5177 48.9477 51.5163 48.9683Z" fill="#D70418"/>
<path d="M50.1982 49.4485C50.2196 49.4482 50.2402 49.4562 50.2556 49.471C50.2711 49.4857 50.2801 49.5059 50.2807 49.5272L50.282 49.5447C50.2828 49.5851 50.2792 49.6251 50.2715 49.6626C50.2638 49.7 50.2521 49.7341 50.2371 49.7629C50.2222 49.7917 50.2042 49.8147 50.1842 49.8304C50.1642 49.8462 50.1426 49.8545 50.1207 49.8547H50.0807C50.0368 49.8554 49.9941 49.8239 49.962 49.7672C49.9299 49.7105 49.911 49.6332 49.9095 49.5522L49.9082 49.5347C49.9079 49.524 49.9097 49.5132 49.9136 49.5032C49.9174 49.4931 49.9233 49.4839 49.9307 49.4761C49.9381 49.4683 49.9471 49.4621 49.9569 49.4578C49.9668 49.4535 49.9775 49.4512 49.9882 49.451L50.1982 49.4485Z" fill="#D70418"/>
<path d="M50.9655 49.4609L51.3793 49.4847C51.3976 49.4857 51.4153 49.4921 51.4301 49.5029C51.4449 49.5138 51.4563 49.5288 51.4627 49.546C51.4692 49.5632 51.4706 49.5819 51.4666 49.5999C51.4627 49.6178 51.4536 49.6342 51.4405 49.6471L51.1468 49.9409C51.1355 49.9519 51.1217 49.9599 51.1066 49.9642C51.0915 49.9686 51.0756 49.9691 51.0602 49.9658C51.0448 49.9624 51.0305 49.9553 51.0186 49.9451C51.0067 49.9349 50.9974 49.9218 50.9918 49.9072L50.8705 49.5897C50.8648 49.5748 50.863 49.5587 50.8651 49.5429C50.8673 49.5271 50.8733 49.5121 50.8828 49.4993C50.8923 49.4865 50.9048 49.4762 50.9193 49.4695C50.9337 49.4628 50.9496 49.4598 50.9655 49.4609Z" fill="#D70418"/>
<path d="M48.137 50.0637C48.2137 50.1621 48.2341 50.2725 48.1983 50.395C48.1913 50.42 48.1764 50.442 48.1557 50.4576C48.1351 50.4733 48.1098 50.4818 48.0839 50.4818C48.058 50.4818 48.0328 50.4733 48.0121 50.4576C47.9915 50.442 47.9765 50.42 47.9695 50.395L47.9345 50.2775C47.9289 50.2583 47.9285 50.2379 47.9336 50.2185C47.9387 50.1991 47.9489 50.1815 47.9633 50.1675C48.0666 50.0658 48.0875 49.9442 48.0258 49.8025C48.01 49.7658 47.9825 49.7433 47.9433 49.735C47.8725 49.72 47.8183 49.6775 47.7808 49.6075C47.7752 49.5968 47.7723 49.5848 47.7725 49.5727C47.7726 49.5606 47.7757 49.5487 47.7815 49.5381C47.7873 49.5275 47.7956 49.5184 47.8058 49.5118C47.8159 49.5051 47.8275 49.5011 47.8395 49.5L48.1583 49.4775C48.2308 49.4717 48.2558 49.5029 48.2333 49.5712L48.1145 49.9387C48.0995 49.9846 48.107 50.0262 48.137 50.0637Z" fill="#D70418"/>
<path d="M48.9729 49.7547C48.9687 49.7672 48.9645 49.7802 48.9604 49.7935C48.9593 49.7957 48.9574 49.7975 48.9551 49.7984C48.9528 49.7993 48.9502 49.7994 48.9479 49.7985C48.8429 49.7485 48.7858 49.6693 48.7766 49.561C48.7758 49.5506 48.7771 49.5402 48.7804 49.5304C48.7838 49.5205 48.7892 49.5115 48.7963 49.5039C48.8033 49.4962 48.8119 49.4901 48.8214 49.486C48.8309 49.4818 48.8412 49.4797 48.8516 49.4797L49.2379 49.4822C49.2522 49.4824 49.2661 49.4865 49.2782 49.4941C49.2903 49.5017 49.3001 49.5125 49.3064 49.5254C49.3127 49.5382 49.3154 49.5525 49.3141 49.5667C49.3129 49.5809 49.3077 49.5945 49.2991 49.606C49.225 49.7035 49.1287 49.7452 49.0104 49.731C48.9912 49.7285 48.9787 49.7364 48.9729 49.7547Z" fill="#D70418"/>
<path d="M48.9241 50.1409C49.1257 50.0484 49.2491 50.0926 49.2941 50.2734C49.2975 50.2865 49.2973 50.3002 49.2935 50.3132C49.2897 50.3261 49.2826 50.3378 49.2727 50.3471C49.2629 50.3563 49.2507 50.3627 49.2375 50.3655C49.2243 50.3684 49.2106 50.3677 49.1978 50.3634C49.0953 50.3301 49.0157 50.3501 48.9591 50.4235C48.9282 50.4635 48.9007 50.4614 48.8766 50.4172L48.8491 50.3634C48.8387 50.344 48.8324 50.3227 48.8306 50.3008C48.8288 50.2789 48.8315 50.2568 48.8385 50.236C48.8455 50.2152 48.8568 50.196 48.8715 50.1796C48.8862 50.1633 48.9041 50.1501 48.9241 50.1409Z" fill="#D70418"/>
<path d="M50.2207 50.1288C50.2274 50.1283 50.2342 50.1291 50.2406 50.1312C50.247 50.1334 50.253 50.1367 50.2581 50.1411C50.2632 50.1455 50.2674 50.1509 50.2704 50.157C50.2734 50.163 50.2752 50.1696 50.2757 50.1763L50.2769 50.1938C50.2813 50.2496 50.268 50.3044 50.2398 50.3464C50.2117 50.3883 50.1711 50.4139 50.1269 50.4176L50.0894 50.4201C50.0675 50.4218 50.0453 50.4181 50.0242 50.4092C50.0031 50.4002 49.9834 50.3862 49.9663 50.3678C49.9493 50.3495 49.9351 50.3272 49.9247 50.3023C49.9143 50.2773 49.9079 50.2503 49.9057 50.2226L49.9044 50.2051C49.9039 50.1983 49.9048 50.1916 49.9069 50.1851C49.909 50.1787 49.9124 50.1728 49.9168 50.1677C49.9212 50.1626 49.9266 50.1584 49.9326 50.1554C49.9386 50.1523 49.9452 50.1505 49.9519 50.1501L50.2207 50.1288Z" fill="#D70418"/>
<path d="M51.4625 50.2973C51.4599 50.331 51.4272 50.361 51.3718 50.3806C51.3165 50.4002 51.2428 50.4079 51.1671 50.4019C51.1297 50.399 51.0928 50.3928 51.0587 50.3837C51.0246 50.3746 50.9938 50.3627 50.9683 50.3488C50.9427 50.3349 50.9228 50.3193 50.9097 50.3027C50.8965 50.2862 50.8905 50.2691 50.8918 50.2524C50.8944 50.2187 50.927 50.1887 50.9824 50.1691C51.0378 50.1494 51.1115 50.1418 51.1871 50.1477C51.2246 50.1507 51.2615 50.1569 51.2956 50.166C51.3297 50.1751 51.3604 50.1869 51.386 50.2008C51.4116 50.2147 51.4315 50.2304 51.4446 50.2469C51.4577 50.2635 51.4638 50.2806 51.4625 50.2973Z" fill="#D70418"/>
<path d="M49.0747 51.6225L49.2284 51.6675C49.2398 51.6708 49.2501 51.6768 49.2586 51.6849C49.2671 51.6931 49.2735 51.7033 49.2772 51.7145C49.2809 51.7257 49.2818 51.7376 49.2798 51.7493C49.2779 51.7609 49.2731 51.7719 49.2659 51.7813C49.1876 51.8821 49.0867 51.94 48.9634 51.955C48.8826 51.965 48.8484 51.9296 48.8609 51.8488L48.9459 51.3013C48.9526 51.2588 48.9484 51.2175 48.9334 51.1775C48.8776 51.0242 48.8601 50.8658 48.8809 50.7025C48.8884 50.6392 48.9142 50.63 48.9584 50.675C49.0184 50.735 49.0959 50.7521 49.1909 50.7263C49.2032 50.723 49.2161 50.7231 49.2283 50.7266C49.2405 50.73 49.2516 50.7368 49.2604 50.7461C49.2692 50.7554 49.2754 50.7669 49.2783 50.7795C49.2813 50.792 49.2809 50.8052 49.2772 50.8175L49.0409 51.5575C49.0301 51.5908 49.0413 51.6125 49.0747 51.6225Z" fill="#D70418"/>
<path d="M50.0493 51.4961L49.9705 50.7886C49.9655 50.7377 49.988 50.7073 50.038 50.6973L50.2155 50.6623C50.2259 50.6601 50.2367 50.6605 50.2469 50.6635C50.2572 50.6665 50.2665 50.672 50.2741 50.6795C50.2818 50.687 50.2875 50.6963 50.2908 50.7066C50.2941 50.7169 50.2949 50.7279 50.293 50.7386L50.158 51.4898C50.1553 51.5039 50.1558 51.5184 50.1595 51.5323C50.1632 51.5461 50.1699 51.559 50.1793 51.5698C50.2693 51.674 50.2822 51.7898 50.218 51.9173C50.1996 51.9534 50.1683 51.9799 50.1308 51.9912C50.0932 52.0025 50.0524 51.9976 50.0171 51.9777C49.9818 51.9577 49.9548 51.9243 49.9419 51.8845C49.929 51.8447 49.9312 51.8018 49.948 51.7648C49.9714 51.714 49.9985 51.659 50.0293 51.5998C50.0468 51.5673 50.0535 51.5327 50.0493 51.4961Z" fill="#D70418"/>
<path d="M51.3123 51.0935C51.2198 51.3427 51.2548 51.5636 51.4173 51.7561C51.4231 51.7628 51.4273 51.7708 51.4296 51.7794C51.432 51.788 51.4325 51.797 51.4311 51.8059C51.4297 51.8148 51.4264 51.8233 51.4214 51.8309C51.4164 51.8384 51.4099 51.8449 51.4023 51.8498L51.1823 51.9873C51.1448 52.0115 51.1102 52.0077 51.0785 51.976C50.9469 51.8427 50.9473 51.6994 51.0798 51.546C51.0952 51.528 51.1059 51.5064 51.1109 51.4833C51.1159 51.4602 51.1151 51.4362 51.1085 51.4135L50.9498 50.8748C50.9415 50.8472 50.9412 50.8179 50.9489 50.7901C50.9566 50.7624 50.972 50.7374 50.9933 50.7181C51.0147 50.6987 51.041 50.6858 51.0694 50.6808C51.0977 50.6758 51.1269 50.6789 51.1535 50.6898L51.4585 50.8135C51.5369 50.8452 51.5419 50.8865 51.4735 50.9373L51.3748 51.0098C51.3456 51.0315 51.3248 51.0594 51.3123 51.0935Z" fill="#D70418"/>
<path d="M49.3144 52.3552C49.3142 52.3726 49.3071 52.3897 49.2937 52.4055C49.2804 52.4214 49.2609 52.4357 49.2365 52.4476C49.212 52.4596 49.1831 52.4689 49.1513 52.475C49.1195 52.4812 49.0854 52.4841 49.0511 52.4835C49.0168 52.483 48.9829 52.479 48.9513 52.4719C48.9197 52.4647 48.8911 52.4545 48.867 52.4418C48.843 52.4292 48.824 52.4143 48.8111 52.398C48.7982 52.3817 48.7917 52.3644 48.792 52.347C48.7923 52.3296 48.7993 52.3124 48.8127 52.2966C48.8261 52.2807 48.8455 52.2664 48.87 52.2545C48.8944 52.2426 48.9234 52.2332 48.9552 52.2271C48.987 52.2209 49.021 52.218 49.0553 52.2186C49.0896 52.2191 49.1235 52.2231 49.1551 52.2302C49.1867 52.2374 49.2153 52.2476 49.2394 52.2603C49.2635 52.273 49.2825 52.2879 49.2953 52.3041C49.3082 52.3204 49.3147 52.3378 49.3144 52.3552Z" fill="#D70418"/>
<path d="M50.3457 52.3863C50.3446 52.4053 50.3375 52.4238 50.3247 52.4407C50.3119 52.4575 50.2938 52.4725 50.2713 52.4846C50.2488 52.4968 50.2225 52.5059 50.1938 52.5115C50.165 52.5171 50.1344 52.519 50.1038 52.5172C50.0732 52.5154 50.043 52.5098 50.0152 52.5009C49.9873 52.4919 49.9622 52.4797 49.9413 52.465C49.9205 52.4503 49.9042 52.4333 49.8935 52.415C49.8828 52.3968 49.8779 52.3776 49.8791 52.3586C49.8802 52.3396 49.8873 52.3211 49.9001 52.3043C49.9129 52.2874 49.931 52.2725 49.9535 52.2603C49.9759 52.2482 50.0023 52.239 50.0311 52.2334C50.0598 52.2278 50.0904 52.2259 50.121 52.2277C50.1516 52.2295 50.1818 52.2351 50.2096 52.244C50.2375 52.253 50.2626 52.2652 50.2835 52.2799C50.3044 52.2946 50.3206 52.3116 50.3313 52.3299C50.342 52.3481 50.3469 52.3673 50.3457 52.3863Z" fill="#D70418"/>
<path d="M51.4841 52.3623C51.4838 52.3775 51.4757 52.3923 51.46 52.406C51.4443 52.4197 51.4215 52.432 51.3927 52.4422C51.364 52.4525 51.33 52.4604 51.2926 52.4656C51.2552 52.4708 51.2152 52.4731 51.1748 52.4725C51.0933 52.4712 51.0152 52.4579 50.9579 52.4354C50.9006 52.4129 50.8687 52.3832 50.8691 52.3527C50.8694 52.3376 50.8776 52.3228 50.8932 52.3091C50.9089 52.2953 50.9318 52.283 50.9605 52.2728C50.9892 52.2626 51.0232 52.2546 51.0606 52.2494C51.098 52.2442 51.138 52.2419 51.1784 52.2425C51.26 52.2438 51.338 52.2572 51.3953 52.2796C51.4526 52.3021 51.4845 52.3319 51.4841 52.3623Z" fill="#D70418"/>
<path d="M48.7881 53.1111L48.8906 52.9298C48.9181 52.8807 48.9598 52.8615 49.0156 52.8723C49.1681 52.9023 49.2706 52.9861 49.3231 53.1236C49.327 53.1343 49.3285 53.1458 49.3273 53.1571C49.3261 53.1685 49.3223 53.1794 49.3162 53.189C49.3102 53.1985 49.302 53.2065 49.2923 53.2123C49.2827 53.2181 49.2718 53.2215 49.2606 53.2223L48.8794 53.2548C48.8619 53.2562 48.8444 53.2528 48.8287 53.245C48.813 53.2372 48.7998 53.2253 48.7904 53.2105C48.781 53.1957 48.7758 53.1786 48.7754 53.1611C48.775 53.1436 48.7794 53.1263 48.7881 53.1111Z" fill="#D70418"/>
<path d="M49.973 53.2622C49.9501 53.2622 49.9282 53.2531 49.912 53.2369C49.8958 53.2207 49.8867 53.1988 49.8867 53.1759V53.1522C49.8868 53.074 49.907 52.9991 49.9428 52.9437C49.9787 52.8884 50.0273 52.8573 50.078 52.8572H50.123C50.1481 52.8571 50.173 52.8647 50.1962 52.8795C50.2194 52.8943 50.2405 52.916 50.2583 52.9434C50.2761 52.9708 50.2902 53.0034 50.2997 53.0392C50.3093 53.075 50.3143 53.1134 50.3142 53.1522V53.1759C50.3142 53.1988 50.3051 53.2207 50.289 53.2369C50.2728 53.2531 50.2508 53.2622 50.228 53.2622H49.973Z" fill="#D70418"/>
<path d="M51.4894 53.1518C51.4863 53.1808 51.4718 53.2073 51.4491 53.2257C51.4264 53.244 51.3973 53.2525 51.3683 53.2494L50.988 53.2088C50.959 53.2057 50.9324 53.1912 50.914 53.1685C50.8957 53.1458 50.8872 53.1167 50.8903 53.0877L50.8927 53.0654C50.8958 53.0363 50.9103 53.0098 50.933 52.9914C50.9557 52.9731 50.9847 52.9646 51.0137 52.9677L51.3941 53.0083C51.4231 53.0114 51.4496 53.0259 51.468 53.0486C51.4863 53.0713 51.4948 53.1004 51.4917 53.1294L51.4894 53.1518Z" fill="#D70418"/>
<path d="M50.2869 53.6805C50.2903 53.7144 50.2746 53.7489 50.2432 53.7763C50.2117 53.8037 50.1672 53.8218 50.1194 53.8266C50.0715 53.8314 50.0243 53.8224 49.9881 53.8018C49.9519 53.7811 49.9296 53.7504 49.9262 53.7165C49.9228 53.6825 49.9386 53.648 49.97 53.6206C50.0014 53.5932 50.046 53.5751 50.0938 53.5704C50.1416 53.5656 50.1888 53.5745 50.2251 53.5951C50.2613 53.6158 50.2835 53.6465 50.2869 53.6805Z" fill="#D70418"/>
<path d="M51.3944 53.6487C51.4014 53.6805 51.3864 53.7156 51.3528 53.7464C51.3192 53.7773 51.2698 53.8013 51.2154 53.8131C51.1609 53.825 51.106 53.8238 51.0626 53.8097C51.0193 53.7957 50.991 53.7699 50.9841 53.7382C50.9772 53.7064 50.9921 53.6713 51.0257 53.6405C51.0593 53.6096 51.1087 53.5856 51.1632 53.5738C51.2176 53.5619 51.2725 53.5631 51.3159 53.5772C51.3593 53.5912 51.3875 53.617 51.3944 53.6487Z" fill="#D70418"/>
<path d="M51.2162 54.4436C51.2077 54.4576 51.1965 54.4698 51.1833 54.4795C51.17 54.4892 51.155 54.4962 51.139 54.5001C51.1231 54.504 51.1065 54.5047 51.0903 54.5022C51.0741 54.4997 51.0585 54.494 51.0445 54.4855L50.9526 54.4296C50.9386 54.4211 50.9264 54.4099 50.9167 54.3966C50.907 54.3834 50.9 54.3684 50.8961 54.3524C50.8922 54.3365 50.8915 54.3199 50.894 54.3037C50.8966 54.2875 50.9022 54.2719 50.9108 54.2579L50.9926 54.1233C51.0011 54.1093 51.0123 54.0971 51.0256 54.0874C51.0388 54.0777 51.0538 54.0707 51.0698 54.0668C51.0857 54.0629 51.1023 54.0622 51.1185 54.0647C51.1348 54.0672 51.1503 54.0729 51.1643 54.0814L51.2562 54.1373C51.2702 54.1458 51.2824 54.157 51.2921 54.1703C51.3018 54.1835 51.3088 54.1985 51.3127 54.2145C51.3166 54.2304 51.3173 54.247 51.3148 54.2632C51.3123 54.2794 51.3066 54.295 51.2981 54.309L51.2162 54.4436Z" fill="#D70418"/>
<path d="M50.1329 54.6138C50.1306 54.6164 50.1277 54.6185 50.1246 54.6199C50.1214 54.6214 50.1179 54.6222 50.1145 54.6223C50.111 54.6224 50.1075 54.6219 50.1042 54.6206C50.101 54.6194 50.098 54.6175 50.0954 54.6151L50.0104 54.5338C49.9805 54.5055 49.9547 54.4733 49.9346 54.4391C49.9145 54.4049 49.9004 54.3694 49.8932 54.3345C49.886 54.2997 49.8858 54.2662 49.8927 54.2361C49.8995 54.2059 49.9132 54.1797 49.9329 54.1588L49.9504 54.1413C49.9702 54.1204 49.9957 54.1053 50.0255 54.0969C50.0552 54.0885 50.0887 54.0869 50.1238 54.0922C50.159 54.0975 50.1953 54.1097 50.2305 54.128C50.2658 54.1463 50.2993 54.1704 50.3292 54.1988L50.4142 54.2788C50.4168 54.2812 50.4188 54.284 50.4203 54.2872C50.4218 54.2904 50.4226 54.2938 50.4227 54.2973C50.4228 54.3008 50.4222 54.3043 50.421 54.3075C50.4197 54.3108 50.4179 54.3138 50.4154 54.3163L50.1329 54.6138Z" fill="#D70418"/>
<path d="M50.0258 54.9199C50.0858 54.8616 50.1383 54.8678 50.1833 54.9386L50.2871 55.1036C50.3118 55.1429 50.3221 55.1917 50.3158 55.2401C50.3095 55.2885 50.2871 55.3328 50.2532 55.364C50.2193 55.3952 50.1765 55.4108 50.1335 55.4077C50.0906 55.4046 50.0507 55.383 50.0221 55.3474C49.8937 55.1891 49.895 55.0466 50.0258 54.9199Z" fill="#D70418"/>
<path d="M50.0674 55.6211C50.1316 55.5536 50.1712 55.5656 50.1862 55.6573L50.2274 55.9036C50.2313 55.9322 50.2247 55.9613 50.2087 55.9854C50.1927 56.0094 50.1685 56.0269 50.1406 56.0344C50.1127 56.0419 50.083 56.039 50.0571 56.0262C50.0312 56.0134 50.0109 55.9915 49.9999 55.9648C49.9507 55.8348 49.9732 55.7202 50.0674 55.6211Z" fill="#D70418"/>
</svg>
