<svg width="100" height="100" viewBox="0 0 100 100" fill="none" xmlns="http://www.w3.org/2000/svg">
<rect width="100" height="100" fill="#FFF1D5"/>
<path d="M36.9597 40.1153C30.4367 37.1342 24.6727 32.0852 20.7842 26.6017C20.6742 26.4441 20.6742 26.2882 20.7842 26.1342C23.3142 22.5977 26.0477 18.9952 29.8317 16.6962C34.2867 13.9847 38.9012 11.5097 44.0822 10.8332C53.9987 9.52972 61.3797 11.2952 69.8882 16.4377C73.4027 18.5607 75.3717 20.6947 77.6268 24.0002C77.8284 24.2936 78.3839 24.8857 79.2933 25.7767C79.4326 25.9124 79.4601 26.0682 79.3758 26.2442C76.6972 31.9147 68.4967 37.6402 63.0132 40.1977C62.97 40.2183 62.9224 40.2282 62.8745 40.2264C62.8266 40.2246 62.7798 40.2112 62.7382 40.1875C62.6966 40.1637 62.6614 40.1302 62.6355 40.0898C62.6097 40.0495 62.594 40.0035 62.5897 39.9557C62.1644 34.6904 61.0351 29.5809 59.2017 24.6272C57.4912 20.0072 56.2262 16.8502 51.9472 15.0682C47.6132 13.2642 43.8952 17.8237 42.3607 21.2282C39.695 27.1352 38.111 33.3044 37.6087 39.7358C37.602 39.8096 37.5778 39.8809 37.5381 39.9435C37.4984 40.0061 37.4445 40.0582 37.3808 40.0954C37.3172 40.1326 37.2457 40.1539 37.1723 40.1573C37.099 40.1608 37.0261 40.1463 36.9597 40.1153Z" fill="#A36C00"/>
<path d="M19.5466 28.7192C23.2261 33.9332 27.2741 38.4927 33.1536 41.9412C34.0886 42.4912 36.208 43.274 39.5116 44.2897C45.6661 46.1817 51.4797 46.5612 57.6672 45.1367C68.0292 42.7552 74.7227 37.5357 80.4977 28.7742C80.5446 28.7029 80.6094 28.6453 80.6857 28.6072C80.7619 28.569 80.8471 28.5516 80.9326 28.5566C81.0182 28.5616 81.1012 28.5889 81.1735 28.6357C81.2458 28.6825 81.3048 28.7473 81.3447 28.8237C88.1134 41.9797 88.3591 55.2787 82.0817 68.7207C81.726 69.4797 81.3264 69.5035 80.8827 68.7922C75.7402 60.5532 68.5572 54.1842 59.0202 52.0227C47.4701 49.4102 35.2876 51.6707 26.4766 59.8547C23.7046 62.4287 21.1966 65.8002 18.9911 69.0507C18.9452 69.1187 18.882 69.1733 18.8081 69.2088C18.7341 69.2443 18.6521 69.2595 18.5703 69.2527C18.4885 69.246 18.41 69.2176 18.3429 69.1705C18.2757 69.1234 18.2223 69.0593 18.1881 68.9847C11.8154 55.4547 12.0226 42.0512 18.8096 28.7742C18.844 28.7078 18.8948 28.6512 18.9571 28.61C19.0194 28.5687 19.0911 28.5441 19.1652 28.5385C19.2394 28.533 19.3134 28.5467 19.3802 28.5784C19.447 28.61 19.5044 28.6585 19.5466 28.7192Z" fill="#A36C00"/>
<path d="M26.3778 79.462C23.5948 76.9815 21.5488 74.8695 20.1738 71.6905C20.1061 71.5331 20.0826 71.3606 20.1059 71.1919C20.1292 71.0231 20.1983 70.8645 20.3058 70.7335C25.1733 64.821 29.9638 60.2449 36.9708 57.1044C37.0167 57.0843 37.0668 57.0752 37.1169 57.078C37.167 57.0808 37.2158 57.0954 37.2592 57.1206C37.3026 57.1458 37.3394 57.1809 37.3667 57.223C37.394 57.2651 37.411 57.313 37.4163 57.3629C38.1423 65.052 40.0893 77.0035 46.3648 82.256C52.1398 87.096 57.3593 79.1595 59.0148 74.457C60.5952 69.9653 61.7282 65.2866 62.4138 60.4209C62.4303 60.3062 62.4112 60.1891 62.3591 60.085C62.3071 59.9809 62.2245 59.8947 62.1223 59.8379C59.871 58.5913 57.4363 57.7571 54.8183 57.3354C53.9108 57.1869 53.3003 56.7304 53.6963 55.7459C53.7655 55.5718 53.8872 55.4233 54.0447 55.3209C54.2023 55.2185 54.388 55.1671 54.5763 55.1739C57.2603 55.2729 59.6638 55.5149 62.1663 56.5929C69.4043 59.7114 75.0308 64.4194 79.9259 71.0305C80.0469 71.1955 80.0725 71.3733 80.0029 71.564C79.3429 73.313 78.3914 74.8658 77.1484 76.2225C63.4038 91.2485 41.7833 93.201 26.3778 79.462Z" fill="#A36C00"/>
</svg>
