<svg width="100" height="100" viewBox="0 0 100 100" fill="none" xmlns="http://www.w3.org/2000/svg">
<rect width="100" height="100" fill="#595C62"/>
<path d="M15.8155 58V40.8203H21.0069L24.1241 52.5391L27.2061 40.8203H32.4092V58H29.1866V44.4766L25.7764 58H22.4366L19.0381 44.4766V58H15.8155ZM51.7067 58H47.9333L46.4333 54.0977H39.5661L38.1481 58H34.4684L41.1598 40.8203H44.8278L51.7067 58ZM45.32 51.2031L42.9528 44.8281L40.6325 51.2031H45.32ZM53.9534 58V40.8203H57.3284L64.3597 52.293V40.8203H67.5823V58H64.1019L57.1761 46.7969V58H53.9534ZM76.1338 58V50.7695L69.8408 40.8203H73.9072L77.9502 47.6172L81.9111 40.8203H85.9072L79.5908 50.793V58H76.1338Z" fill="#F8F8F8"/>
</svg>
