<svg width="100" height="100" viewBox="0 0 100 100" fill="none" xmlns="http://www.w3.org/2000/svg">
<rect width="100" height="100" fill="#E82121"/>
<path d="M34.1724 38.6724L34.1779 62.3418C34.1779 62.4105 34.1435 62.4467 34.0748 62.4504L30.8018 62.6493C30.7257 62.6727 30.6606 62.6727 30.6066 62.6493C30.5415 62.6223 30.5176 62.5744 30.5348 62.5057L30.5863 62.2994L30.7503 42.7226L30.7355 42.5366C30.7311 42.4769 30.7067 42.4205 30.6663 42.3763C30.6259 42.3321 30.5718 42.3028 30.5128 42.293C30.4538 42.2833 30.3931 42.2936 30.3407 42.3224C30.2882 42.3512 30.2469 42.3968 30.2235 42.4519C27.4092 49.0217 24.8675 55.7425 22.1821 62.3823C22.1711 62.4092 22.1526 62.4324 22.1287 62.4491C22.1049 62.4657 22.0767 62.4752 22.0476 62.4762L20.1892 62.537C20.1155 62.5394 20.0664 62.5057 20.0419 62.4357C19.3727 60.6086 18.6636 58.7975 17.9146 57.0023C15.9499 52.2983 14.0437 47.5703 12.1957 42.8184C12.1257 42.6391 12.0318 42.4727 11.9139 42.3192C11.877 42.2714 11.8371 42.2695 11.7942 42.3137C11.7352 42.3751 11.7058 42.4298 11.7058 42.4776L11.6965 43.091C11.6548 43.0836 11.6161 43.0879 11.5805 43.1039C11.5216 43.1297 11.4921 43.1745 11.4921 43.2383L11.5824 62.1834C11.5826 62.2261 11.5743 62.2684 11.5578 62.3078C11.5414 62.3473 11.5172 62.3831 11.4867 62.4131C11.4561 62.4432 11.4199 62.4668 11.38 62.4827C11.3401 62.4986 11.2975 62.5064 11.2545 62.5057L8.35731 62.4467C8.26188 62.4448 8.171 62.4055 8.1042 62.3374C8.03739 62.2692 7.99998 62.1775 8 62.0821L8.09209 38.1254C8.09332 38.0591 8.12647 38.026 8.19155 38.026H13.5513C13.6188 38.026 13.6655 38.0579 13.6912 38.1217C15.274 42.1504 16.8635 46.1711 18.4597 50.1839C18.6206 50.5878 18.7446 50.9218 18.8318 51.1858C19.3862 52.849 20.1192 54.4422 20.6791 56.1127C20.7012 56.1765 20.7448 56.2017 20.8099 56.1882L20.9738 56.1551C20.9787 56.3331 21.0205 56.4289 21.0991 56.4424L21.3606 56.4663C21.4208 56.4725 21.4631 56.4479 21.4877 56.3926C22.055 55.0978 22.5136 53.7717 23.0588 52.4696C23.3037 51.8875 23.4253 51.2632 23.6758 50.7253C24.6016 48.7362 25.1996 47.3149 25.4697 46.4615C25.6797 45.7985 26.0002 45.1391 26.1678 44.6436C26.8087 42.7502 27.524 40.8845 28.3135 39.0463C28.4774 38.6669 28.4093 38.072 29.041 38.0738C30.6483 38.0775 32.2876 38.0548 33.9587 38.0057C33.986 38.005 34.0132 38.0096 34.0387 38.0195C34.0641 38.0293 34.0873 38.0442 34.1069 38.063C34.1265 38.0819 34.142 38.1045 34.1526 38.1295C34.1632 38.1544 34.1687 38.1812 34.1687 38.2083L34.1724 38.6724Z" fill="white"/>
<path d="M90.4014 40.5472C91.8638 42.2933 92.1548 44.0136 91.9338 46.2827C91.8012 47.6395 91.3174 48.8293 90.4825 49.8522C89.9612 50.4894 89.1821 51.0143 88.4914 51.5503C87.9536 51.9684 86.8964 52.2631 86.1155 52.3736C84.0367 52.6659 81.9849 52.777 79.9601 52.707C79.9186 52.7055 79.8771 52.7125 79.8384 52.7276C79.7996 52.7428 79.7644 52.7657 79.7347 52.795C79.7051 52.8243 79.6817 52.8594 79.666 52.8981C79.6502 52.9368 79.6425 52.9783 79.6433 53.0201C79.701 55.8823 79.725 58.7261 79.7151 61.5514C79.7151 61.5785 79.7446 61.7375 79.8035 62.0285C79.8735 62.3729 79.6488 62.5092 79.332 62.5166C78.3866 62.5374 77.4454 62.5356 76.5085 62.511C76.4311 62.5086 76.3925 62.4687 76.3925 62.3913L76.3906 38.21C76.3906 38.07 76.4612 38 76.6024 38C79.5248 38.0147 82.4901 38.035 85.4985 38.0608C87.3642 38.0774 89.2503 39.1696 90.4014 40.5472ZM79.6672 41.284L79.7114 49.5022C79.7119 49.5703 79.7393 49.6354 79.7876 49.6834C79.8359 49.7313 79.9012 49.7582 79.9693 49.7582L84.432 49.7343C84.9891 49.7315 85.5403 49.6244 86.0539 49.4191C86.5676 49.2139 87.0337 48.9145 87.4257 48.538C87.8178 48.1616 88.1279 47.7155 88.3386 47.2252C88.5493 46.7348 88.6563 46.2099 88.6535 45.6804L88.6498 45.01C88.6443 43.9408 88.1921 42.9178 87.3929 42.1658C86.5936 41.4139 85.5127 40.9946 84.3878 41.0003L79.9251 41.0243C79.8911 41.0243 79.8574 41.031 79.826 41.0441C79.7946 41.0572 79.7661 41.0763 79.7421 41.1005C79.7181 41.1246 79.6992 41.1532 79.6863 41.1847C79.6735 41.2162 79.667 41.25 79.6672 41.284Z" fill="white"/>
<path d="M64.9732 59.7722L66.012 62.5312C66.0402 62.6049 66.015 62.6411 65.9364 62.6399L64.4777 62.6252L62.1681 62.522C62.1376 62.521 62.1083 62.5093 62.0855 62.4887C62.0626 62.4682 62.0475 62.4403 62.0428 62.4097C61.9888 62.0597 61.9004 61.7239 61.7776 61.4022C61.0003 59.359 60.2329 57.3133 59.4753 55.2652C59.4544 55.2075 59.4133 55.1787 59.3519 55.1787L50.6419 55.1271C50.443 55.1259 50.3085 55.2186 50.2385 55.4052L47.6176 62.3655C47.5967 62.4219 47.5562 62.4496 47.4961 62.4484L44.4257 62.4207C44.3812 62.4203 44.3375 62.4087 44.2986 62.3872C44.2596 62.3657 44.2266 62.3348 44.2025 62.2974C44.1784 62.26 44.164 62.2172 44.1605 62.1728C44.157 62.1284 44.1646 62.0839 44.1826 62.0431C44.6044 61.0928 45.0833 60.1755 45.4148 59.1938C46.297 56.5748 47.1535 54.4254 47.8976 52.4251C48.2291 51.5318 48.7117 50.6165 49.0119 49.8263C49.6074 48.2644 50.2097 46.705 50.8187 45.1481C51.666 42.9802 52.4027 40.5656 53.2573 38.2946C53.3027 38.1743 53.3893 38.1135 53.517 38.1123L56.3571 38.0755C56.3981 38.075 56.4383 38.0871 56.4722 38.1102C56.5061 38.1332 56.5321 38.1661 56.5468 38.2044C59.1082 44.7662 61.6143 51.3636 64.0651 57.9967C64.2788 58.575 64.5815 59.1668 64.9732 59.7722ZM52.0988 52.0512L57.8932 52.0549C57.937 52.0548 57.9803 52.0443 58.0193 52.0242C58.0583 52.0042 58.092 51.9752 58.1177 51.9396C58.1434 51.9041 58.1603 51.8629 58.1671 51.8196C58.1738 51.7763 58.1702 51.7319 58.1566 51.6902L55.2188 42.8237C55.2012 42.7692 55.1669 42.7216 55.1209 42.6875C55.0748 42.6535 55.0192 42.6347 54.9618 42.6337C54.9044 42.6326 54.8479 42.6495 54.8003 42.6819C54.7526 42.7143 54.7161 42.7606 54.6958 42.8145C53.5956 45.7381 52.5936 48.6985 51.6899 51.6958C51.6664 51.7741 51.6701 51.8575 51.7002 51.9305C51.7303 52.0036 51.7848 52.0614 51.8538 52.0936C51.8673 52.0997 51.8913 52.0967 51.9257 52.0844C51.9809 52.0623 52.0386 52.0512 52.0988 52.0512Z" fill="white"/>
</svg>
