<svg width="100" height="100" viewBox="0 0 100 100" fill="none" xmlns="http://www.w3.org/2000/svg">
<rect width="100" height="100" fill="white"/>
<path d="M16.3735 46.684L16.286 46.759C16.2077 46.8273 16.1452 46.8148 16.0985 46.7215C14.5785 43.6348 13.0785 40.539 11.5985 37.434C11.4552 37.1323 11.2885 36.859 11.0985 36.614C11.0821 36.5935 11.0602 36.5781 11.0353 36.5696C11.0104 36.5612 10.9836 36.56 10.958 36.5663C10.9325 36.5727 10.9093 36.5862 10.8913 36.6052C10.8732 36.6243 10.8609 36.6482 10.856 36.674C10.701 37.6107 10.571 38.5698 10.466 39.5515C9.77601 46.0632 9.06935 52.5732 8.34601 59.0815C8.16601 60.709 8.32601 62.0615 7.16101 63.369C7.09268 63.4473 7.10851 63.499 7.20851 63.524C8.28018 63.7857 9.35935 63.7948 10.446 63.5515C10.491 63.5415 10.4968 63.5215 10.4635 63.4915C9.90185 62.9582 9.65851 62.2348 9.73351 61.3215C10.2185 55.3982 10.7277 49.464 11.261 43.519C11.2659 43.4645 11.2906 43.4136 11.3306 43.3759C11.3707 43.3382 11.4232 43.3162 11.4785 43.314C11.5035 43.314 11.5352 43.3398 11.5735 43.3915C10.7402 52.5432 10.2135 58.7273 9.99351 61.944C9.89101 63.4015 11.566 63.5065 12.5585 63.574C12.5984 63.5768 12.6361 63.5938 12.6648 63.6219C12.6935 63.65 12.7113 63.6872 12.7149 63.7269C12.7186 63.7666 12.7078 63.8061 12.6846 63.8381C12.6614 63.8702 12.6273 63.8927 12.5885 63.9015C12.3652 63.9548 12.1377 63.9782 11.906 63.9715C9.87935 63.9032 7.85435 63.9123 5.83101 63.999C5.60351 64.0065 5.34601 63.929 5.13101 63.894C5.09287 63.8875 5.05845 63.8672 5.03434 63.8369C5.01022 63.8066 4.99808 63.7686 5.00025 63.7299C5.00241 63.6913 5.01872 63.6548 5.04607 63.6274C5.07341 63.6001 5.10988 63.5837 5.14851 63.5815C6.50101 63.5315 7.61351 63.259 7.78601 61.6965C8.71268 53.2732 9.63935 44.8598 10.566 36.4565C10.5758 36.3619 10.6122 36.2725 10.671 36.199C10.8927 35.924 11.0785 35.934 11.2285 36.229C12.9802 39.6973 14.6952 43.1823 16.3735 46.684Z" fill="#010001"/>
<path d="M32.2484 43.6366C32.2834 43.6016 32.3193 43.5791 32.3559 43.5691C32.4476 43.5424 32.4984 43.5774 32.5084 43.6741C33.0501 49.1941 33.5576 54.7183 34.0309 60.2466C34.1209 61.2966 34.3459 62.2366 34.1134 63.4041C34.1086 63.4283 34.1091 63.4532 34.1149 63.4771C34.1207 63.501 34.1317 63.5233 34.1469 63.5424C34.1622 63.5615 34.1815 63.577 34.2033 63.5876C34.2252 63.5983 34.2491 63.6039 34.2734 63.6041L38.4534 63.7091C38.4709 63.7102 38.4883 63.7052 38.5027 63.6951C38.517 63.685 38.5275 63.6704 38.5325 63.6535C38.5374 63.6367 38.5365 63.6187 38.5298 63.6024C38.5232 63.5862 38.5112 63.5727 38.4959 63.5641C37.3476 62.8641 36.7401 61.8249 36.6734 60.4466C36.6727 60.4284 36.6683 60.4106 36.6606 60.3943C36.6528 60.378 36.6419 60.3635 36.6284 60.3516C36.5718 60.2999 36.5359 60.2008 36.5209 60.0541C36.3209 57.9958 35.8276 53.4916 35.0409 46.5416C34.6659 43.2491 34.4234 39.9666 33.8859 36.7216C33.8813 36.6901 33.8666 36.661 33.8441 36.6386C33.8215 36.6161 33.7923 36.6016 33.7609 36.5971C33.7294 36.5926 33.6973 36.5984 33.6693 36.6136C33.6414 36.6288 33.6192 36.6527 33.6059 36.6816C30.0493 44.2566 26.5243 51.7858 23.0309 59.2691C23.0076 59.3174 22.8734 59.3833 22.6284 59.4666L33.5534 36.1766C33.5737 36.1335 33.6046 36.0963 33.6433 36.0685C33.682 36.0407 33.7271 36.0233 33.7744 36.0177C33.8217 36.0122 33.8696 36.0189 33.9136 36.0371C33.9576 36.0552 33.9963 36.0843 34.0259 36.1216C34.1876 36.3266 34.2868 36.5999 34.3234 36.9416C35.1318 44.5699 35.9409 52.1974 36.7509 59.8241C37.0659 62.7791 38.3734 63.6216 41.2209 63.6066C41.2464 63.6064 41.2715 63.613 41.2936 63.6257C41.3157 63.6385 41.3339 63.6569 41.3464 63.6792C41.3589 63.7014 41.3653 63.7265 41.3647 63.752C41.3642 63.7775 41.3568 63.8024 41.3434 63.8241C41.2809 63.9241 41.1734 64.0041 41.0459 64.0041C38.6809 64.0258 36.2609 63.9666 33.7859 63.8266C33.7367 63.8238 33.6896 63.8057 33.6513 63.7747C33.6129 63.7437 33.5853 63.7015 33.5723 63.6539C33.5593 63.6064 33.5616 63.5559 33.5789 63.5098C33.5961 63.4636 33.6274 63.424 33.6684 63.3966C34.0534 63.1416 33.9984 62.6116 33.9559 62.1566C33.3943 55.9816 32.8251 49.8083 32.2484 43.6366Z" fill="#010001"/>
<path d="M55.9085 48.1991C60.8935 49.8466 64.6135 55.0991 61.346 60.2191C58.691 64.3841 53.536 64.4266 49.1985 64.0916C48.1335 64.0082 45.8685 64.0216 42.4035 64.1316C42.2618 64.1349 42.1501 64.1257 42.0685 64.1041C41.7685 64.0257 41.7335 63.8549 41.9635 63.5916C42.004 63.5458 42.0557 63.5111 42.1135 63.491C42.1712 63.4709 42.2332 63.4659 42.2935 63.4766C44.606 63.8866 44.836 62.2166 44.8835 60.3691C45.0418 54.3341 45.0601 47.1732 44.9385 38.8866C44.9085 36.7541 43.4135 36.6316 41.7135 36.7016C41.658 36.7031 41.6027 36.6935 41.5508 36.6734C41.4988 36.6532 41.4513 36.6228 41.411 36.5841C41.2276 36.4024 41.2043 36.2516 41.341 36.1316C41.4026 36.0766 41.4943 36.0499 41.616 36.0516C44.4876 36.1066 48.0418 36.1091 52.2785 36.0591C60.4335 35.9666 61.846 43.7091 55.876 47.9766C55.8569 47.9896 55.842 48.0077 55.8328 48.0289C55.8236 48.05 55.8205 48.0734 55.8239 48.0964C55.8273 48.1195 55.8369 48.1412 55.8519 48.1593C55.8668 48.1774 55.8864 48.1912 55.9085 48.1991Z" fill="#EC1C24"/>
<path d="M82.156 48.8164C81.9727 48.8564 81.8594 48.8222 81.816 48.7139C80.2077 44.6356 78.5844 40.5931 76.9461 36.5864C76.9287 36.5429 76.899 36.5054 76.8608 36.4784C76.8225 36.4514 76.7773 36.436 76.7305 36.4342C76.6837 36.4323 76.6373 36.444 76.5971 36.468C76.5568 36.4919 76.5243 36.5269 76.5035 36.5689C73.9885 41.6514 71.9185 47.0364 69.7335 52.2364C69.6269 52.4934 69.4333 52.7055 69.186 52.8364C67.341 53.8214 65.2135 55.5789 64.1535 57.5664C64.1085 57.6531 64.1277 57.6714 64.211 57.6214C64.836 57.2431 65.4219 56.8106 65.9685 56.3239C66.6385 55.7306 67.3594 55.3922 68.131 55.3089C65.141 56.9264 61.8485 60.0414 60.946 63.3389C60.9227 63.4272 60.9085 63.4256 60.9035 63.3339C60.9002 63.2689 60.9085 63.2047 60.9285 63.1414C62.4185 58.7264 65.151 54.7814 69.2685 52.4764C69.3419 52.4364 69.3952 52.3772 69.4285 52.2989C71.6785 46.9564 73.8535 41.5914 76.2811 36.3239C76.3088 36.2644 76.3504 36.2124 76.4023 36.1722C76.4542 36.1321 76.515 36.1048 76.5795 36.0929C76.6441 36.0809 76.7106 36.0845 76.7734 36.1034C76.8363 36.1222 76.8938 36.1559 76.941 36.2014C77.0944 36.3497 77.2252 36.5572 77.3335 36.8239C78.9635 40.8122 80.5711 44.8097 82.156 48.8164Z" fill="#010001"/>
<path d="M82.1561 48.8165L82.5836 49.739C85.2386 49.434 87.5327 48.6899 89.4661 47.5065C90.4161 46.9265 91.2011 46.3515 91.8836 46.054C91.9786 46.014 91.9944 46.0349 91.9311 46.1165C89.8661 48.7349 87.2819 50.6715 84.1786 51.9265C84.0836 51.9648 84.0211 52.0157 83.9911 52.079C83.9477 52.1673 83.9536 52.2565 84.0086 52.3465C83.7286 52.4032 83.6361 52.5357 83.7311 52.744C83.9994 53.324 84.1511 53.8232 84.1861 54.2415C84.9827 56.7448 85.9094 59.1857 86.9661 61.564C87.3444 62.419 87.8269 63.004 88.4136 63.319C88.9802 63.6257 88.9302 63.759 88.2636 63.719C86.7586 63.6273 85.2527 63.634 83.7461 63.739C83.7291 63.74 83.7123 63.7359 83.6977 63.7273C83.6831 63.7187 83.6715 63.7059 83.6642 63.6905C83.6569 63.6752 83.6544 63.6581 83.657 63.6413C83.6595 63.6246 83.6671 63.609 83.6786 63.5965C84.4261 62.804 84.0811 62.174 83.6936 61.099C82.7969 58.614 81.8744 56.1407 80.9261 53.679C80.9227 53.6707 80.9144 53.6332 80.9011 53.5665C80.8761 53.4499 80.761 53.4157 80.556 53.464C80.6394 53.4657 80.6119 53.4249 80.4736 53.3415C80.5219 53.3048 80.4802 53.2523 80.3486 53.184C80.2936 53.1557 80.2311 53.144 80.1611 53.149C79.6777 53.1773 79.1944 53.2007 78.7111 53.219C77.7036 53.254 76.6111 52.934 75.4836 53.159C74.7369 53.309 74.2169 53.3974 73.9235 53.424C73.1885 53.489 70.4936 53.8015 70.2086 54.5065C69.1836 57.0298 68.2652 59.5923 67.4536 62.194C67.3202 62.619 67.4744 63.0665 67.9161 63.5365C68.0344 63.6632 68.0069 63.724 67.8336 63.719L64.3286 63.6315C64.2352 63.6298 64.2244 63.599 64.2961 63.539C64.9677 62.9757 65.4394 62.4207 65.7111 61.874C66.4944 60.2957 67.3761 58.1082 68.3561 55.3115C68.2811 55.3098 68.2061 55.309 68.1311 55.309C67.3594 55.3923 66.6386 55.7307 65.9686 56.324C65.4219 56.8107 64.8361 57.2432 64.2111 57.6215C64.1277 57.6715 64.1086 57.6532 64.1536 57.5665C65.2136 55.579 67.3411 53.8215 69.1861 52.8365C69.4333 52.7057 69.6269 52.4935 69.7336 52.2365C71.9186 47.0365 73.9886 41.6515 76.5036 36.569C76.5243 36.527 76.5568 36.492 76.5971 36.4681C76.6374 36.4442 76.6837 36.4324 76.7305 36.4343C76.7773 36.4361 76.8225 36.4515 76.8608 36.4785C76.899 36.5055 76.9287 36.543 76.9461 36.5865C78.5844 40.5932 80.2077 44.6357 81.8161 48.714C81.8594 48.8224 81.9727 48.8565 82.1561 48.8165Z" fill="#231F20"/>
<path d="M75.9912 41.2715L79.2237 49.8915" stroke="#808080" stroke-width="0.5"/>
<path d="M78.8939 50.3089C76.4664 50.4839 74.3014 50.5164 71.8339 51.3414C71.7306 51.3748 71.6989 51.3414 71.7389 51.2414L75.5014 41.7739" stroke="#808080" stroke-width="0.5"/>
<path d="M16.3737 46.6839L22.6287 59.4664C22.8737 59.3831 23.0079 59.3173 23.0312 59.2689C26.5246 51.7856 30.0496 44.2564 33.6062 36.6815C33.6195 36.6525 33.6417 36.6287 33.6697 36.6135C33.6976 36.5982 33.7297 36.5924 33.7612 36.5969C33.7927 36.6014 33.8218 36.616 33.8444 36.6384C33.8669 36.6609 33.8816 36.69 33.8862 36.7215C34.4237 39.9665 34.6662 43.2489 35.0412 46.5414C35.8279 53.4914 36.3212 57.9956 36.5212 60.0539C36.5362 60.2006 36.5721 60.2998 36.6287 60.3514C36.6422 60.3633 36.6531 60.3778 36.6609 60.3942C36.6686 60.4105 36.673 60.4283 36.6737 60.4464C36.7404 61.8248 37.3479 62.8639 38.4962 63.5639C38.5116 63.5725 38.5235 63.586 38.5302 63.6023C38.5368 63.6185 38.5377 63.6365 38.5328 63.6534C38.5278 63.6702 38.5173 63.6849 38.503 63.695C38.4886 63.7051 38.4713 63.71 38.4537 63.7089L34.2737 63.6039C34.2495 63.6038 34.2255 63.5981 34.2037 63.5875C34.1818 63.5768 34.1626 63.5614 34.1473 63.5423C34.132 63.5232 34.1211 63.5009 34.1153 63.477C34.1095 63.453 34.1089 63.4281 34.1137 63.4039C34.3462 62.2364 34.1212 61.2964 34.0312 60.2464C33.5579 54.7181 33.0504 49.1939 32.5087 43.6739C32.4987 43.5773 32.4479 43.5423 32.3562 43.5689C32.3196 43.5789 32.2837 43.6014 32.2487 43.6364C32.2304 43.1431 32.1512 42.9714 32.0112 43.1214C31.9246 43.0798 31.8354 43.0889 31.7437 43.1489C31.7063 43.1717 31.6766 43.2058 31.6587 43.2464L22.1087 63.4689C22.0921 63.5048 22.0658 63.5353 22.0326 63.5568C21.9995 63.5784 21.9609 63.5902 21.9212 63.591C21.8815 63.5918 21.8422 63.5815 21.8077 63.5612C21.7733 63.541 21.7451 63.5116 21.7262 63.4764C18.3396 57.0031 15.1646 50.4356 12.2012 43.7739C12.1179 43.5889 11.9921 43.5256 11.8237 43.5839C11.8021 43.4439 11.7187 43.3798 11.5737 43.3914C11.5354 43.3398 11.5037 43.3139 11.4787 43.3139C11.4235 43.3161 11.3709 43.3381 11.3309 43.3759C11.2908 43.4136 11.2661 43.4645 11.2612 43.5189C10.7279 49.4639 10.2187 55.3981 9.73374 61.3214C9.65874 62.2348 9.90207 62.9581 10.4637 63.4914C10.4971 63.5214 10.4912 63.5414 10.4462 63.5514C9.35957 63.7948 8.2804 63.7856 7.20874 63.5239C7.10874 63.4989 7.0929 63.4473 7.16124 63.3689C8.32624 62.0614 8.16624 60.7089 8.34624 59.0814C9.06957 52.5731 9.77624 46.0631 10.4662 39.5515C10.5712 38.5698 10.7012 37.6106 10.8562 36.674C10.8612 36.6481 10.8734 36.6243 10.8915 36.6052C10.9096 36.5861 10.9327 36.5726 10.9583 36.5663C10.9838 36.56 11.0106 36.5611 11.0355 36.5695C11.0604 36.578 11.0823 36.5934 11.0987 36.614C11.2887 36.859 11.4554 37.1323 11.5987 37.434C13.0787 40.5389 14.5787 43.6348 16.0987 46.7214C16.1454 46.8148 16.2079 46.8273 16.2862 46.7589L16.3737 46.6839Z" fill="#231F20"/>
<path d="M49.7488 47.8964C49.6714 47.8884 49.5997 47.8517 49.5475 47.7936C49.4954 47.7354 49.4664 47.6598 49.4663 47.5814V38.0664C49.4664 37.9416 49.5119 37.8211 49.5942 37.7273C49.6765 37.6335 49.7901 37.5728 49.9138 37.5564C54.4938 36.9339 56.4788 41.6589 55.3913 45.3739C54.5988 48.0789 52.0788 48.1439 49.7488 47.8964Z" fill="white"/>
<path d="M75.9909 41.2714L79.2234 49.8914L79.2909 50.1239C79.3126 50.1972 79.2859 50.2406 79.2109 50.2539L78.8934 50.3089C76.4659 50.4839 74.3009 50.5164 71.8334 51.3414C71.7301 51.3747 71.6984 51.3414 71.7384 51.2414L75.5009 41.7739L75.7609 41.1539C75.7993 41.0606 75.8543 41.0497 75.9259 41.1214C75.9543 41.1514 75.9759 41.2014 75.9909 41.2714Z" fill="white"/>
<path d="M79.2237 49.8916L75.9912 41.2716C76.0295 41.2316 76.072 41.2058 76.1187 41.1941C76.2054 41.1724 76.2645 41.2041 76.2962 41.2891C77.2829 43.9924 78.2854 46.6891 79.3037 49.3791C79.3404 49.4758 79.3587 49.5624 79.3587 49.6391C79.357 49.8124 79.312 49.8966 79.2237 49.8916Z" fill="#010001"/>
<path d="M75.5011 41.774L71.7385 51.2415C71.6985 51.3415 71.7302 51.3749 71.8335 51.3415C74.301 50.5165 76.466 50.484 78.8935 50.309L78.7511 50.519C78.7077 50.584 78.6469 50.6199 78.5686 50.6265C76.2585 50.8415 74.1561 50.8215 71.9686 51.5915C71.8938 51.6179 71.813 51.6221 71.7358 51.6038C71.6587 51.5854 71.5885 51.5452 71.5337 51.4879C71.4788 51.4307 71.4416 51.3589 71.4265 51.281C71.4114 51.2032 71.4191 51.1226 71.4485 51.049L75.1435 41.754C75.1556 41.7237 75.1756 41.6971 75.2016 41.6769C75.2275 41.6567 75.2583 41.6436 75.291 41.639C75.3927 41.624 75.4627 41.669 75.5011 41.774Z" fill="#010001"/>
<path d="M32.0112 43.1216L22.3187 63.684C22.2902 63.7447 22.2459 63.7965 22.1905 63.8342C22.1351 63.8719 22.0706 63.8941 22.0038 63.8985C21.9369 63.9028 21.8701 63.8891 21.8103 63.8589C21.7505 63.8287 21.6999 63.783 21.6637 63.7266C21.6404 63.6899 21.6154 63.6457 21.5887 63.594C18.0871 57.0457 14.8321 50.3757 11.8237 43.5841C11.9921 43.5257 12.1179 43.5891 12.2012 43.7741C15.1646 50.4357 18.3396 57.0032 21.7262 63.4766C21.7451 63.5118 21.7733 63.5411 21.8077 63.5614C21.8422 63.5816 21.8815 63.5919 21.9212 63.5911C21.9609 63.5904 21.9995 63.5785 22.0326 63.5569C22.0658 63.5354 22.0921 63.5049 22.1087 63.469L31.6587 43.2466C31.6766 43.2059 31.7063 43.1718 31.7437 43.1491C31.8354 43.0891 31.9246 43.0799 32.0112 43.1216Z" fill="#010001"/>
<path d="M84.0085 52.3464C83.9535 52.2564 83.9477 52.1672 83.991 52.0789C84.021 52.0156 84.0835 51.9647 84.1785 51.9264C87.2818 50.6714 89.866 48.7347 91.931 46.1164C91.9943 46.0347 91.9785 46.0139 91.8835 46.0539C91.201 46.3514 90.416 46.9264 89.466 47.5064C87.5327 48.6897 85.2385 49.4339 82.5835 49.7389C87.1285 48.6922 91.0027 46.6764 94.206 43.6914C94.216 43.6831 94.216 43.6764 94.206 43.6714C94.2043 43.6714 94.2018 43.6706 94.1985 43.6689C94.1918 43.6656 94.1868 43.6672 94.1835 43.6739C91.6752 47.6506 88.2835 50.5414 84.0085 52.3464Z" fill="#010001"/>
<path d="M54.9287 50.859C57.207 52.9324 58.207 55.4599 57.9287 58.4415C57.7387 60.464 56.7237 62.0165 54.7337 62.4715C52.9687 62.874 49.4937 62.709 49.4812 60.119C49.4628 56.6223 49.4595 53.1515 49.4712 49.7065C49.4712 49.64 49.4971 49.5761 49.5435 49.5289C49.5898 49.4816 49.6528 49.4547 49.7187 49.454C51.5137 49.429 53.5037 49.5615 54.9287 50.859Z" fill="white"/>
<path d="M80.4735 53.3414C77.221 53.7664 73.936 53.3764 70.6485 54.3389C70.5685 54.3623 70.5135 54.4131 70.4835 54.4914C69.7885 56.2581 69.116 58.0231 68.466 59.7864C67.8035 61.5864 66.7435 63.8414 69.7885 63.5589C69.8283 63.5559 69.8681 63.5656 69.902 63.5868C69.9359 63.6079 69.9622 63.6394 69.977 63.6765C69.9918 63.7136 69.9943 63.7545 69.9842 63.7931C69.9742 63.8318 69.952 63.8662 69.921 63.8914C69.7677 64.0131 69.5527 64.0673 69.276 64.0539C67.136 63.9456 64.9968 63.9406 62.8585 64.0389C62.5918 64.0523 62.3835 63.9981 62.2335 63.8764C62.2035 63.8524 62.1822 63.8193 62.1726 63.7822C62.163 63.745 62.1658 63.7057 62.1804 63.6702C62.1951 63.6347 62.2208 63.6049 62.2538 63.5853C62.2868 63.5657 62.3253 63.5573 62.3635 63.5614C64.2485 63.7739 65.2185 62.5139 65.8235 60.9389C66.5185 59.1239 67.3627 57.2481 68.356 55.3114C67.376 58.1081 66.4943 60.2956 65.711 61.8739C65.4393 62.4206 64.9677 62.9756 64.296 63.5389C64.2243 63.5989 64.2352 63.6298 64.3285 63.6314L67.8335 63.7189C68.0068 63.7239 68.0343 63.6631 67.916 63.5364C67.4743 63.0664 67.3202 62.6189 67.4535 62.1939C68.2652 59.5923 69.1835 57.0298 70.2085 54.5064C70.4935 53.8014 73.1885 53.4889 73.9235 53.4239C74.2168 53.3973 74.7368 53.3089 75.4835 53.1589C76.611 52.9339 77.7035 53.2539 78.711 53.2189C79.1943 53.2006 79.6777 53.1773 80.161 53.1489C80.231 53.1439 80.2935 53.1556 80.3485 53.1839C80.4802 53.2523 80.5218 53.3048 80.4735 53.3414Z" fill="#010001"/>
<path d="M80.5562 53.4641C80.7612 53.4158 80.8762 53.4499 80.9012 53.5666C80.9145 53.6333 80.9228 53.6708 80.9262 53.6791C81.8745 56.1408 82.797 58.6141 83.6937 61.0991C84.0812 62.1741 84.4262 62.8041 83.6787 63.5966C83.6672 63.6091 83.6596 63.6247 83.6571 63.6414C83.6545 63.6582 83.657 63.6753 83.6643 63.6906C83.6716 63.706 83.6832 63.7188 83.6978 63.7274C83.7124 63.736 83.7292 63.7401 83.7462 63.7391C85.2528 63.6341 86.7587 63.6274 88.2637 63.7191C88.9303 63.7591 88.9803 63.6258 88.4137 63.3191C87.827 63.0041 87.3445 62.4191 86.9662 61.5641C85.9095 59.1858 84.9828 56.7449 84.1862 54.2416C85.2628 56.5749 86.2578 58.9158 87.1712 61.2641C87.8078 62.8958 89.0762 63.6658 90.9762 63.5741C91.0014 63.5728 91.0266 63.5766 91.0504 63.5854C91.0741 63.5942 91.0959 63.6077 91.1143 63.6252C91.1328 63.6427 91.1475 63.6639 91.1577 63.6873C91.1679 63.7107 91.1733 63.736 91.1737 63.7616C91.1753 63.9949 91.0012 64.1033 90.6512 64.0866C87.8428 63.9499 84.9303 63.9433 81.9137 64.0666C81.8567 64.0685 81.8014 64.0491 81.7584 64.0121C81.7154 63.9751 81.688 63.9232 81.6814 63.8665C81.6748 63.8099 81.6896 63.7526 81.7229 63.7059C81.7561 63.6592 81.8054 63.6265 81.8612 63.6141C82.9112 63.4066 84.3612 63.6666 83.7287 61.9366C82.697 59.1016 81.6395 56.2774 80.5562 53.4641Z" fill="#010001"/>
</svg>
