<svg width="100" height="100" viewBox="0 0 100 100" fill="none" xmlns="http://www.w3.org/2000/svg">
<rect width="100" height="100" fill="#E10717"/>
<rect width="81.6462" height="28.4043" transform="translate(9 36)" fill="#E82121"/>
<path d="M50.5113 55.613C50.5142 55.6061 50.515 55.5985 50.5134 55.5912C50.5117 55.5839 50.5079 55.5773 50.5023 55.5723C50.4967 55.5673 50.4898 55.5642 50.4823 55.5634C50.4749 55.5626 50.4674 55.5641 50.4609 55.5678C47.1373 57.3507 44.7541 59.9586 43.3114 63.3914C43.3086 63.3984 43.3051 63.4117 43.3009 63.4313C43.296 63.4516 43.2859 63.4656 43.2705 63.4733C43.2425 63.4866 43.233 63.4785 43.2421 63.4491C44.688 58.9173 47.5681 54.8885 51.7618 52.5428C51.7925 52.5251 51.8165 52.4982 51.8301 52.4661C54.7197 45.5015 56.3125 41.5451 58.7359 36.398C58.9197 36.0084 59.3334 35.8887 59.5896 36.2982C59.6911 36.4592 59.8013 36.6867 59.9203 36.9807C61.6514 41.2549 63.3713 45.5305 65.08 49.8075C65.0829 49.8151 65.0884 49.8214 65.0955 49.8253C65.1027 49.8291 65.111 49.8303 65.1189 49.8285C68.9682 49.0043 72.6936 47.3978 75.7207 44.8463C75.7473 44.8232 75.761 44.7941 75.7617 44.7591C75.7911 42.9356 75.7775 41.1191 75.7207 39.3096C75.6619 37.4175 74.6077 36.986 72.8679 37.028C72.8154 37.0292 72.7638 37.0147 72.7196 36.9865C72.6754 36.9582 72.6408 36.9175 72.6201 36.8694C72.4615 36.5009 73.0684 36.4967 73.2711 36.503C74.62 36.5443 75.9696 36.5744 77.3199 36.5933C80.2882 36.6353 83.2912 36.1911 86.1661 37.0773C89.4978 38.1053 91.0581 41.0757 90.553 44.4525C89.8139 49.4043 85.4753 52.1543 80.6757 51.7007C80.621 51.6955 80.5695 51.6726 80.5289 51.6352C80.4884 51.5979 80.461 51.5482 80.451 51.4938C80.368 51.0287 81.3813 51.1295 81.6763 51.1179C84.8904 51.0003 87.5595 48.7355 87.7873 45.4437C88.0509 41.6354 85.744 37.9037 81.7236 37.6359C81.3466 37.6118 78.8172 37.4459 78.8172 38.2638C78.8158 44.6758 78.8207 51.0875 78.8319 57.4988C78.8333 58.4445 78.8473 59.3895 78.8739 60.3338C78.8984 61.2312 79.0003 62.0099 79.1795 62.67C79.3559 63.3231 79.8619 63.5919 80.535 63.6927C81.0747 63.7732 81.606 63.8212 82.1289 63.8366C82.1673 63.8375 82.2049 63.848 82.2382 63.8671C82.2716 63.8861 82.2997 63.9132 82.32 63.9458C82.6024 64.3941 81.6459 64.3521 81.439 64.349C79.717 64.329 77.9814 64.2188 76.271 64.2797C73.9305 64.3637 71.884 64.4162 69.595 64.3059C69.0102 64.2776 68.2216 64.2902 67.4709 64.3238C66.4891 64.3679 65.2963 64.4897 64.3345 64.3059C64.2867 64.2967 64.2441 64.2698 64.2152 64.2306C64.1862 64.1913 64.173 64.1425 64.1781 64.0938C64.1935 63.9489 64.2866 63.8765 64.4574 63.8765C64.8242 63.8758 65.1885 63.8481 65.5504 63.7935C66.906 63.5888 66.2991 62.2773 65.9977 61.4657C65.0191 58.8358 64.0374 56.2094 63.0525 53.5865C63.0492 53.5775 63.0429 53.57 63.0346 53.5652C63.0264 53.5604 63.0168 53.5586 63.0073 53.5602C61.6077 53.7713 60.439 53.8395 58.842 53.8185C56.8694 53.7919 54.9279 54.0418 53.0176 54.5682C52.9833 54.5773 52.9599 54.5983 52.9473 54.6312C52.0457 56.9657 51.1941 59.3142 50.3926 61.6767C49.7395 63.6024 50.4336 63.9363 52.2091 63.8754C52.2369 63.8745 52.2646 63.8795 52.2902 63.8903C52.3158 63.9011 52.3389 63.9173 52.3577 63.9378C52.3765 63.9583 52.3907 63.9827 52.3994 64.0093C52.408 64.0358 52.4108 64.0639 52.4076 64.0917C52.3859 64.2751 52.2571 64.3686 52.0212 64.3721C50.0955 64.4057 48.195 64.265 46.264 64.3469C44.2911 64.4298 42.3654 64.3532 40.4187 64.3164C39.8149 64.3049 38.1843 64.2912 37.8819 64.0025C37.8569 63.9788 37.8415 63.9466 37.8388 63.9122C37.8255 63.7519 37.8973 63.6549 38.0541 63.6213C38.0938 63.6129 38.13 63.5929 38.1581 63.5639C38.1862 63.5349 38.2048 63.4982 38.2116 63.4586C38.2592 63.1793 38.2704 62.8993 38.2452 62.6186C37.6579 56.145 37.0678 49.6808 36.4749 43.2261C36.4733 43.2111 36.4669 43.1971 36.4567 43.1861C36.4464 43.175 36.4328 43.1677 36.418 43.1651C36.4032 43.1624 36.3879 43.1647 36.3745 43.1716C36.361 43.1784 36.3502 43.1895 36.3436 43.203C33.1957 49.8838 30.0405 56.5702 26.8779 63.2622C26.7235 63.5888 26.2531 64.7648 25.8079 64.0686C25.5601 63.6808 25.2819 63.1891 24.9732 62.5934C21.7364 56.3501 18.6896 50.0154 15.8329 43.5894C15.8154 43.5509 15.7853 43.5324 15.7426 43.5338C15.7314 43.5338 15.7202 43.5334 15.709 43.5327C15.6946 43.5318 15.6804 43.5366 15.6694 43.546C15.6585 43.5554 15.6516 43.5687 15.6502 43.5831C15.1658 49.1635 14.6856 54.745 14.2096 60.3275C14.1498 61.031 14.1466 61.6935 14.1519 62.3802C14.1634 63.7841 15.5778 63.7946 16.6236 63.846C16.6392 63.8467 16.6546 63.8504 16.6689 63.8571C16.6831 63.8638 16.6959 63.8732 16.7065 63.8849C17.0152 64.2177 16.4881 64.3532 16.2466 64.3511C14.7546 64.3332 13.2468 64.2188 11.7747 64.2797C11.1265 64.307 10.4786 64.3329 9.83114 64.3574C9.63059 64.3658 8.92289 64.3553 9.00689 64.0035C9.01743 63.961 9.04162 63.923 9.07575 63.8955C9.10988 63.868 9.15208 63.8525 9.19589 63.8513C10.1755 63.8261 11.1846 63.8093 11.5615 62.6963C11.8461 61.8573 11.9122 60.9417 12.0078 60.065C12.8366 52.5155 13.6671 44.9663 14.4994 37.4175C14.5446 37.0059 14.5498 36.209 14.8806 36.0273C15.3163 35.7879 15.8739 37.1844 16.1742 37.8029C19.7099 45.0941 23.2487 52.3818 26.7907 59.666C26.7929 59.6704 26.7962 59.6741 26.8004 59.6768C26.8046 59.6794 26.8094 59.6808 26.8144 59.6808C26.8193 59.6808 26.8241 59.6794 26.8283 59.6768C26.8325 59.6741 26.8358 59.6704 26.838 59.666C30.4451 51.9562 34.0539 44.245 37.6645 36.5324C37.7874 36.2688 37.9911 35.8824 38.3533 36.0389C38.3858 36.053 38.4119 36.0788 38.4268 36.1113C38.529 36.329 38.5966 36.5894 38.6295 36.8925C39.4079 44.0325 40.1838 51.1729 40.9573 58.3136C41.1138 59.7489 41.1799 62.1912 42.4336 63.1635C43.2012 63.7589 44.5914 63.908 45.5563 63.8219C47.2836 63.6686 47.9241 61.871 48.5268 60.444C49.2065 58.8333 49.868 57.223 50.5113 55.613ZM58.3065 41.1114C56.8764 44.5323 55.4974 47.9746 54.1695 51.4382C54.1548 51.476 54.1667 51.4886 54.2052 51.476C55.1887 51.1477 56.1939 50.91 57.2208 50.763C58.5364 50.5761 60.2794 50.5289 61.7988 50.3882C61.805 50.3876 61.811 50.3856 61.8163 50.3824C61.8216 50.3791 61.8261 50.3746 61.8293 50.3693C61.8326 50.364 61.8346 50.358 61.8351 50.3518C61.8356 50.3456 61.8347 50.3393 61.8324 50.3336L58.3674 41.0967C58.3653 41.0911 58.3618 41.0859 58.3572 41.0818C58.3526 41.0777 58.3472 41.0749 58.3418 41.0738C58.3363 41.0727 58.331 41.0732 58.3266 41.0755C58.3222 41.0777 58.3188 41.0814 58.317 41.0862C58.3156 41.0904 58.3121 41.0988 58.3065 41.1114ZM70.7248 62.9913C71.7139 63.9038 73.2805 63.9899 74.5668 63.6759C75.6105 63.4208 75.6703 61.2494 75.7008 60.4125C75.8803 55.4607 75.8131 50.4648 75.79 45.5141C75.79 45.5083 75.7881 45.5028 75.7847 45.4982C75.7813 45.4936 75.7765 45.4901 75.771 45.4884C75.7656 45.4867 75.7597 45.4867 75.7543 45.4884C75.7488 45.4902 75.7441 45.4937 75.7407 45.4983C73.2725 48.7855 70.125 51.1823 66.298 52.6887C66.2623 52.7034 66.2515 52.7286 66.2655 52.7643C67.4191 55.6868 68.5884 58.6069 69.7735 61.5245C70.0297 62.1545 70.3468 62.6434 70.7248 62.9913Z" fill="white"/>
</svg>
