<svg width="100" height="100" viewBox="0 0 100 100" fill="none" xmlns="http://www.w3.org/2000/svg">
<rect width="100" height="100" fill="#F0F3FA"/>
<path d="M29.588 42.3441L20.2843 56.9822C20.2493 57.0385 20.198 57.0666 20.1305 57.0666H14.1718C14.1093 57.0666 14.078 57.0354 14.078 56.9729V41.461C14.0774 41.449 14.0728 41.4376 14.0648 41.4286C14.0568 41.4196 14.046 41.4137 14.0342 41.4117C14.0223 41.4097 14.0102 41.4119 13.9997 41.4178C13.9893 41.4237 13.9812 41.433 13.9768 41.4441L9.14675 56.9616C9.12675 57.0291 9.08175 57.0629 9.01175 57.0629L4.10862 57.0741C4.04862 57.0741 4.02612 57.0454 4.04112 56.9879L9.41112 37.0998C9.42862 37.036 9.46987 37.0042 9.53487 37.0042H17.9686C18.0311 37.0042 18.0624 37.0354 18.0624 37.0979V52.711C18.0627 52.7201 18.066 52.7288 18.0716 52.7359C18.0772 52.743 18.0849 52.7482 18.0936 52.7507C18.1023 52.7532 18.1116 52.7529 18.1202 52.7498C18.1287 52.7467 18.136 52.741 18.1411 52.7335L28.3299 37.0848C28.3649 37.031 28.4143 37.0042 28.478 37.0042H36.473C36.5393 37.0042 36.5636 37.036 36.5461 37.0998L32.0761 53.5341C32.0211 53.7379 32.0599 53.7579 32.1924 53.5941L45.5161 37.0791C45.5574 37.0291 45.6105 37.0042 45.6755 37.0042H52.3374C52.3974 37.0042 52.433 37.0341 52.4443 37.0941L56.0761 56.941C56.0911 57.0247 56.0561 57.0666 55.9711 57.0666H49.9993C49.9443 57.0666 49.9124 57.0397 49.9036 56.986L47.5243 42.2541C47.5118 42.1704 47.478 42.1616 47.423 42.2279L41.8899 48.9741C41.8842 48.9809 41.8806 48.9892 41.8794 48.998C41.8783 49.0068 41.8796 49.0158 41.8834 49.0238C41.8871 49.0319 41.8931 49.0387 41.9005 49.0435C41.908 49.0483 41.9166 49.0509 41.9255 49.051H47.3143C47.3241 49.0512 47.3336 49.0547 47.3411 49.0609C47.3487 49.0672 47.3539 49.0759 47.3558 49.0855C47.3578 49.0951 47.3564 49.1051 47.3519 49.1138C47.3474 49.1226 47.3401 49.1295 47.3311 49.1335C44.9961 50.0885 42.6611 51.0491 40.3261 52.0154C40.0686 52.1229 39.848 52.2816 39.6643 52.4916C38.3593 53.9916 37.0561 55.4916 35.7549 56.9916C35.7161 57.0379 35.6668 57.061 35.6068 57.061L25.8943 57.0797C25.8293 57.0797 25.8049 57.0479 25.8211 56.9841L29.663 42.376C29.708 42.2048 29.683 42.1941 29.588 42.3441Z" fill="black"/>
<path d="M81.7187 49.3473C83.0837 49.7148 84.4862 50.6486 84.2443 52.2442C84.0031 53.8267 83.7312 55.4023 83.4287 56.9711C83.4174 57.0323 83.3812 57.063 83.3199 57.063L77.2731 57.0761C77.2641 57.076 77.2553 57.074 77.2472 57.07C77.2392 57.0661 77.2321 57.0604 77.2265 57.0534C77.2209 57.0464 77.217 57.0382 77.215 57.0295C77.213 57.0208 77.213 57.0117 77.2149 57.003C77.4606 55.9248 77.9349 54.4005 77.7943 53.3955C77.6387 52.2911 77.0649 51.0667 75.7543 51.0667C72.0743 51.0655 68.3943 51.0661 64.7143 51.0686C64.653 51.0686 64.6187 51.0992 64.6112 51.1605L63.9249 56.9748C63.9217 56.9998 63.9097 57.0228 63.891 57.0393C63.8724 57.0559 63.8484 57.065 63.8237 57.0648L57.4487 57.0705C57.4306 57.0706 57.4127 57.0667 57.3964 57.059C57.38 57.0512 57.3656 57.0399 57.3543 57.0259C57.3429 57.0118 57.3349 56.9954 57.3308 56.9778C57.3267 56.9601 57.3266 56.9418 57.3305 56.9242L58.3599 52.0942C58.3662 52.0666 58.3793 52.041 58.398 52.0198C58.4166 51.9985 58.4403 51.9822 58.4668 51.9723L65.8374 49.2292C66.1537 49.1105 66.143 49.0511 65.8055 49.0511H58.928C58.9195 49.0509 58.9111 49.049 58.9035 49.0453C58.8958 49.0417 58.889 49.0364 58.8837 49.03C58.8783 49.0236 58.8745 49.0161 58.8724 49.008C58.8704 49 58.8701 48.9917 58.8718 48.9836L61.1555 37.098C61.1668 37.0405 61.2018 37.0117 61.2605 37.0117C67.8668 36.9967 74.4687 36.9961 81.0662 37.0099C83.0424 37.0155 85.7124 37.5086 86.3987 39.7117C86.8393 41.1255 86.2787 43.8405 85.9899 45.3086C85.5474 47.5642 84.0512 48.9648 81.7243 49.2648C81.5843 49.2836 81.5824 49.3111 81.7187 49.3473ZM79.6243 44.7874C79.9206 43.623 79.8474 42.0236 78.2949 42.0217C74.3912 42.018 70.483 42.018 66.5705 42.0217C66.5055 42.0217 66.4662 42.0536 66.4524 42.1174L65.453 46.938C65.4508 46.9496 65.4512 46.9616 65.454 46.9731C65.4568 46.9846 65.4621 46.9952 65.4694 47.0044C65.4768 47.0135 65.486 47.0209 65.4965 47.0259C65.5069 47.031 65.5183 47.0336 65.5299 47.0336C68.9437 47.0361 72.3574 47.0373 75.7712 47.0373C77.7606 47.0355 79.1068 46.8255 79.6243 44.7874Z" fill="#C92524"/>
<path d="M89.9351 37.0042H96.3439C96.3535 37.004 96.3631 37.006 96.3719 37.01C96.3807 37.014 96.3885 37.0198 96.3947 37.0272C96.401 37.0345 96.4056 37.0431 96.4081 37.0525C96.4107 37.0618 96.4111 37.0715 96.4095 37.081L92.7964 57.0104C92.7937 57.0254 92.7859 57.0391 92.7743 57.0491C92.7626 57.059 92.7479 57.0645 92.7326 57.0647L86.1476 57.0704C86.1379 57.0703 86.1284 57.0681 86.1196 57.0639C86.1109 57.0597 86.1032 57.0536 86.0971 57.046C86.091 57.0385 86.0867 57.0297 86.0844 57.0203C86.0821 57.0109 86.0819 57.0011 86.0838 56.9916L89.8713 37.0567C89.8744 37.0419 89.8823 37.0287 89.8939 37.0191C89.9055 37.0096 89.9201 37.0043 89.9351 37.0042Z" fill="#C92524"/>
<path d="M92.3069 59.0823H4.09937C4.04449 59.0823 4 59.1268 4 59.1816V63.0141C4 63.069 4.04449 63.1135 4.09937 63.1135H92.3069C92.3618 63.1135 92.4063 63.069 92.4063 63.0141V59.1816C92.4063 59.1268 92.3618 59.0823 92.3069 59.0823Z" fill="#C92524"/>
</svg>
