<svg width="100" height="100" viewBox="0 0 100 100" fill="none" xmlns="http://www.w3.org/2000/svg">
<rect width="100" height="100" fill="white"/>
<path d="M18.7431 21.7505C25.6679 13.7446 34.5795 8.84807 45.4781 7.06087C45.5608 6.98783 45.6509 6.98052 45.7483 7.03896C45.8847 7.12174 45.8749 7.18262 45.7191 7.22157C19.3347 14.1172 5.76271 41.5096 19.1886 65.9436C32.6365 90.4142 66.6907 95.8123 86.8808 76.5354C86.983 76.4428 87.0463 76.4526 87.0707 76.5646C87.0804 76.6035 87.0853 76.6425 87.0853 76.6814C87.0804 76.7204 87.0634 76.7569 87.0342 76.791C76.6981 89.7933 60.7009 96.0242 44.5504 93.2411C10.9417 87.4485 -3.67488 47.6747 18.7431 21.7505Z" fill="#057DBE"/>
<path d="M31.2628 55.6585C17.9683 32.3421 37.0408 4.86201 62.7896 7.2068C70.8905 7.93727 77.5012 11.2317 83.396 16.7101C83.5227 16.827 83.6079 16.9366 83.6517 17.0389C83.8124 17.3944 83.7174 17.4406 83.3668 17.1776C73.5129 9.73421 59.561 8.79191 48.6917 14.7963C23.1254 28.9235 27.3987 65.1399 56.4127 71.7579C56.7633 71.8359 56.7609 71.9114 56.4054 71.9844C56.045 72.0623 55.6871 72.0672 55.3316 71.999C44.3454 69.9781 36.3225 64.5312 31.2628 55.6585Z" fill="#057DBE"/>
<path d="M73.0972 73.0511C96.9177 55.3373 87.2098 17.8791 56.7129 15.5928C55.6416 15.5148 54.6749 15.3907 53.813 15.2202C53.4964 15.1569 53.4964 15.1058 53.813 15.0668C58.0399 14.5701 62.0794 14.8331 65.9314 15.8557C92.3377 22.839 101.198 55.5127 80.7086 74.2199C69.1381 84.7824 51.4097 85.8708 38.6412 77.5289C37.4189 76.7302 37.4749 76.6255 38.8092 77.2147C50.3067 82.2696 63.141 80.4507 73.0972 73.0511Z" fill="#057DBE"/>
</svg>
