<svg width="100" height="100" viewBox="0 0 100 100" fill="none" xmlns="http://www.w3.org/2000/svg">
<rect width="100" height="100" fill="#CA1315"/>
<path d="M88.2573 31.195L90.2898 33.505C90.4698 33.715 90.5598 33.9575 90.5598 34.2325L90.4098 66.325C90.4048 66.595 90.3073 66.825 90.1173 67.015L67.0923 89.59C66.8673 89.81 66.5948 89.92 66.2748 89.92L33.7773 89.77C33.4973 89.77 33.2623 89.6701 33.0723 89.47L28.4223 84.58C22.5673 78.645 16.5923 72.5825 10.4973 66.3925C9.90729 65.7925 9.84229 64.9725 10.3023 63.9325L10.4823 33.1375C10.4823 32.9125 10.5648 32.72 10.7298 32.56L27.9723 15.76C28.2923 15.445 28.4523 15.5125 28.4523 15.9625V71.125C28.4523 71.375 28.5773 71.5 28.8273 71.5L72.1848 71.5075C72.2848 71.5075 72.3348 71.4575 72.3348 71.3575V28.12C72.3348 27.939 72.2629 27.7654 72.1349 27.6374C72.0069 27.5094 71.8333 27.4375 71.6523 27.4375H39.5148C39.4153 27.4375 39.32 27.477 39.2496 27.5473C39.1793 27.6177 39.1398 27.7131 39.1398 27.8125V60.25C39.1398 60.5 39.2648 60.625 39.5148 60.625H60.6348C60.8448 60.625 60.9498 60.5225 60.9498 60.3175V39.19C60.9498 39.1065 60.9174 39.0264 60.8597 38.9673C60.8021 38.9082 60.7239 38.875 60.6423 38.875H45.2823C45.2334 38.875 45.185 38.8653 45.1399 38.8463C45.0948 38.8274 45.054 38.7997 45.0197 38.7647C44.9855 38.7298 44.9586 38.6884 44.9406 38.643C44.9226 38.5975 44.9138 38.5489 44.9148 38.5L44.9673 33.7075C44.9723 33.4025 45.1273 33.25 45.4323 33.25L66.2373 33.205C66.5473 33.205 66.7023 33.36 66.7023 33.67V65.6875C66.7023 65.9375 66.5773 66.0625 66.3273 66.0625H34.4523C34.2023 66.0625 34.0773 65.9375 34.0773 65.6875V10.375C34.0773 10.125 34.2023 10 34.4523 10H66.8973C67.1473 10 67.3598 10.0875 67.5348 10.2625L88.2573 31.195Z" fill="white"/>
</svg>
