<svg width="100" height="100" viewBox="0 0 100 100" fill="none" xmlns="http://www.w3.org/2000/svg">
<rect width="100" height="100" fill="#D2992A"/>
<path d="M56.125 55.5C55.5213 59.2323 51.1834 60.425 49.332 60.2307C50.0082 58.1779 52.0286 56.0319 52.9543 55.2155C51.4088 55.8686 49.7345 58.5201 49.0905 59.7641C48.1246 52.1131 55.125 52.0001 58.875 52.375C57.9896 52.6861 56.4872 53.8672 56.125 55.5Z" fill="#6CA63C"/>
<path d="M14 63.125H17.8372C18.578 63.125 19.2078 62.5843 19.32 61.8521L21.25 49.25L27.875 63.125C28.6005 62.8026 29.1851 62.2289 29.5212 61.5097L35.25 49.25L37.4906 61.6853C37.6408 62.5187 38.3661 63.125 39.2129 63.125H45.3314C45.7361 63.125 46.1009 62.8811 46.2555 62.5071L52.6397 47.069C52.7254 46.8616 53.0199 46.8635 53.103 47.072L55.1024 52.0895C56.6748 51.8933 58.2687 52.0422 59.5 52.3183C58.5798 52.6559 56.8925 53.6861 56.4251 55.4087L59.3118 62.6526C59.4254 62.9379 59.7015 63.125 60.0085 63.125H67.0429C67.3236 63.125 67.5808 62.9682 67.7095 62.7187L71.625 55.125L76 63.125H85.5C86.0523 63.125 86.5 62.6773 86.5 62.125V37H86.125C83.6397 37 81.625 39.0147 81.625 41.5V59.6538C81.625 60.5158 81.2826 61.3424 80.6731 61.9519L80.625 62L74 50.5L81.125 37H76L71.625 45.375L67.5 37H61.75L69.125 50.5L63.625 59.375C63.2256 59.2153 62.9084 58.8999 62.7464 58.5015L54.1908 37.4657C54.0754 37.184 53.8011 37 53.4967 37H52.2557C51.9501 37 51.675 37.1855 51.5604 37.4688L42.75 59.5C42.4244 59.1744 42.2059 58.7573 42.1236 58.3043L38.3639 37.613C38.2979 37.2577 37.9879 37 37.6265 37H36.2252C35.935 37 35.671 37.1673 35.547 37.4296L28.25 52.875L21.0766 37.434C20.9537 37.1693 20.6883 37 20.3964 37H19.2539C18.8901 37 18.5788 37.2611 18.5154 37.6193L14 63.125Z" fill="#F9E384"/>
</svg>
