<svg width="100" height="100" viewBox="0 0 100 100" fill="none" xmlns="http://www.w3.org/2000/svg">
<rect width="100" height="100" fill="#FFF4D5"/>
<path fill-rule="evenodd" clip-rule="evenodd" d="M33.1506 14.4414C32.2595 14.5117 31.4374 14.7502 30.6969 15.1677C23.5982 19.1701 26.6911 38.1066 37.605 57.4637C47.3807 74.8021 60.1154 86.5968 67.7665 85.9922C53.147 71.9837 46.6979 54.241 46.219 47.2215L49.9687 53.921C49.785 59.3632 64.6366 84.2198 71.2969 84.4741C76.955 79.1832 73.6261 61.2644 63.3114 42.97C54.7118 27.7176 43.8224 16.7552 36.1182 14.7497C54.0489 33.619 57.6816 48.3496 56.3437 54.7959L53.8437 49.6709C56.4095 43.312 40.6557 18.8325 33.1506 14.4414Z" fill="url(#paint0_linear_81_469)"/>
<ellipse cx="50.8337" cy="50.537" rx="3.57626" ry="9.75203" transform="rotate(-29.4151 50.8337 50.537)" fill="#151E6D"/>
<defs>
<linearGradient id="paint0_linear_81_469" x1="63.8436" y1="40.1709" x2="35.9686" y2="60.6709" gradientUnits="userSpaceOnUse">
<stop stop-color="#FEEE03"/>
<stop offset="0.433541" stop-color="#E40D18"/>
<stop offset="1" stop-color="#FFF006"/>
</linearGradient>
</defs>
</svg>
