<svg width="100" height="100" viewBox="0 0 100 100" fill="none" xmlns="http://www.w3.org/2000/svg">
<rect width="100" height="100" fill="#595C62"/>
<path d="M20.9795 58V40.8203H26.1709L29.2881 52.5391L32.3702 40.8203H37.5733V58H34.3506V44.4766L30.9405 58H27.6006L24.2022 44.4766V58H20.9795ZM41.3903 40.8203H48.2575C49.6169 40.8203 50.6286 40.8789 51.2927 40.9961C51.9645 41.1055 52.5622 41.3398 53.0856 41.6992C53.6169 42.0586 54.0583 42.5391 54.4098 43.1406C54.7614 43.7344 54.9372 44.4023 54.9372 45.1445C54.9372 45.9492 54.7184 46.6875 54.2809 47.3594C53.8512 48.0312 53.2653 48.5352 52.5231 48.8711C53.57 49.1758 54.3747 49.6953 54.9372 50.4297C55.4997 51.1641 55.7809 52.0273 55.7809 53.0195C55.7809 53.8008 55.5973 54.5625 55.2302 55.3047C54.8708 56.0391 54.3747 56.6289 53.7419 57.0742C53.1169 57.5117 52.3434 57.7812 51.4216 57.8828C50.8434 57.9453 49.4489 57.9844 47.238 58H41.3903V40.8203ZM44.8591 43.6797V47.6523H47.1325C48.4841 47.6523 49.3239 47.6328 49.652 47.5938C50.2458 47.5234 50.7106 47.3203 51.0466 46.9844C51.3903 46.6406 51.5622 46.1914 51.5622 45.6367C51.5622 45.1055 51.4137 44.6758 51.1169 44.3477C50.8278 44.0117 50.3942 43.8086 49.8161 43.7383C49.4723 43.6992 48.4841 43.6797 46.8512 43.6797H44.8591ZM44.8591 50.5117V55.1055H48.07C49.32 55.1055 50.113 55.0703 50.4489 55C50.9645 54.9062 51.3825 54.6797 51.7028 54.3203C52.0309 53.9531 52.195 53.4648 52.195 52.8555C52.195 52.3398 52.07 51.9023 51.82 51.543C51.57 51.1836 51.2067 50.9219 50.7302 50.7578C50.2614 50.5938 49.238 50.5117 47.6598 50.5117H44.8591ZM74.5745 58H70.8011L69.3011 54.0977H62.4339L61.0159 58H57.3363L64.0277 40.8203H67.6956L74.5745 58ZM68.1878 51.2031L65.8206 44.8281L63.5003 51.2031H68.1878ZM76.6806 58V40.8203H80.1494V58H76.6806Z" fill="#F8F8F8"/>
</svg>
