<svg width="100" height="100" viewBox="0 0 100 100" fill="none" xmlns="http://www.w3.org/2000/svg">
<rect width="100" height="100" fill="#0D3956"/>
<path d="M33.3087 60.7315C30.5632 63.8646 25.7838 63.4639 23.41 60.0448C21.2817 56.9807 19.1565 53.9136 17.0344 50.8433C17.0104 50.8083 16.9984 50.7667 17.0002 50.7247C17.0186 50.2423 17.5155 50.2594 17.7976 50.527C18.6899 51.3719 20.2044 51.1768 21.102 50.5072C21.5976 50.1369 21.9746 49.5569 22.3595 48.9915C28.1274 40.5233 33.8961 32.0555 39.6658 23.5882C40.3565 22.575 40.9008 21.8888 41.2989 21.5294C43.5515 19.5009 47.1643 19.4982 49.438 21.474C49.8308 21.815 50.315 22.3962 50.8905 23.2178C52.9344 26.1325 54.9581 29.0459 56.9616 31.958C57.0055 32.0216 57.0268 32.098 57.022 32.175C57.0172 32.252 56.9866 32.3251 56.9352 32.3824C56.8183 32.5133 56.6764 32.5494 56.5095 32.4905C56.4803 32.4805 56.454 32.4704 56.4332 32.4612C56.4124 32.4519 56.3978 32.4438 56.3908 32.4378C55.2863 31.4558 53.6637 31.6113 52.6383 32.5841C52.4625 32.7501 52.1067 33.2273 51.5706 34.0155C45.9934 42.2069 40.4136 50.3965 34.8311 58.5844C33.9928 59.8155 33.4853 60.5312 33.3087 60.7315Z" fill="#23BCB7"/>
<path d="M36.932 79.2163C36.4918 78.7892 36.0977 78.3231 35.7497 77.8178C33.719 74.8671 31.6821 71.9212 29.6391 68.9801C29.4058 68.644 29.8157 68.1998 30.2402 68.528C31.7652 69.709 33.4971 69.133 34.5252 67.6264C40.2676 59.2057 46.0087 50.7837 51.7485 42.3603C52.5965 41.116 53.1035 40.399 53.2696 40.2092C55.5512 37.5862 59.5317 37.3318 62.1257 39.6582C62.4588 39.957 62.8718 40.4579 63.3647 41.1608C66.1792 45.1757 68.2236 48.115 69.4977 49.9788C69.5399 50.0403 69.5715 50.1571 69.5926 50.3294C69.5953 50.3493 69.592 50.3696 69.5831 50.3879C69.5742 50.4061 69.5601 50.4215 69.5425 50.4322L69.2407 50.6114C69.2247 50.6212 69.2063 50.6261 69.1878 50.6257C69.1693 50.6252 69.1515 50.6193 69.1366 50.6088C68.9134 50.4541 68.6875 50.3048 68.4591 50.1607C67.4903 49.5464 66.1393 49.8614 65.3576 50.5139C65.1204 50.7125 64.6476 51.3315 63.9394 52.3711C58.1715 60.834 52.4049 69.2982 46.6397 77.7638C46.1216 78.523 45.6221 79.1754 44.8958 79.704C42.4653 81.4715 39.0976 81.316 36.932 79.2163Z" fill="#36AF68"/>
<path d="M59.4502 80.9178C58.426 80.9257 58.2441 80.1731 58.2375 79.3454C58.1993 74.8481 59.2907 70.0964 61.6171 66.2332C65.8863 59.1459 73.315 56.055 81.288 55.367C82.3733 55.2738 82.8689 55.7725 82.7748 56.863C82.3109 62.2486 80.6369 67.8003 77.5131 72.1948C73.1898 78.2777 66.8354 80.8559 59.4502 80.9178Z" fill="#99CA3B"/>
</svg>
