<svg width="100" height="100" viewBox="0 0 100 100" fill="none" xmlns="http://www.w3.org/2000/svg">
<rect width="100" height="100" fill="#F1F2FF"/>
<path d="M64.3717 42.7228C64.4475 42.7994 64.4312 42.8378 64.3229 42.8378C50.8979 42.8011 37.8208 44.8911 25.0917 49.1078C24.8042 49.2028 24.7983 49.1882 25.0742 49.064C26.0983 48.6015 27.1763 48.1099 28.3079 47.589C38.3213 42.9774 48.7717 39.7815 59.6592 38.0015C59.6967 37.9957 59.7292 38.0065 59.7567 38.034L64.3717 42.7228Z" fill="#EA2727"/>
<path d="M92.7391 50.0164C92.7904 50.0302 92.8816 50.0327 92.9541 50.0427C93.0133 50.0502 93.0174 50.0698 92.9666 50.1014C89.3458 52.3289 85.7254 54.5573 82.1054 56.7864C81.9791 56.8639 81.9354 56.9089 81.7766 56.8639C56.7141 49.8439 30.0229 51.4227 6.09411 61.4989C5.97161 61.5506 5.9687 61.5443 6.08537 61.4802C32.5379 46.7964 63.3704 42.7977 92.7391 50.0164Z" fill="#323469"/>
</svg>
