<svg width="100" height="100" viewBox="0 0 100 100" fill="none" xmlns="http://www.w3.org/2000/svg">
<rect width="100" height="100" fill="#C28608"/>
<path d="M31.8387 54.2758C31.9137 54.2408 32.0012 54.2108 32.1012 54.1858C32.1562 54.1708 32.1887 54.1333 32.1987 54.0733C33.1437 48.2883 36.5587 45.4358 42.4437 45.5158C42.6887 45.5208 42.8062 45.4008 42.7962 45.1558C42.7912 45.0458 42.7587 44.9633 42.6987 44.9083C42.6537 44.8633 42.5737 44.8483 42.4587 44.8633C41.9837 44.9383 41.5162 44.9358 41.0562 44.8558C40.8062 44.8158 40.6787 44.6683 40.6737 44.4133L40.6212 41.0683C40.6192 40.9323 40.5638 40.8026 40.467 40.7072C40.3702 40.6117 40.2397 40.5582 40.1037 40.5583H35.3112C34.9662 40.5583 34.7912 40.7333 34.7862 41.0833L34.7562 44.6608C34.7512 44.9258 34.6187 45.0583 34.3587 45.0583H32.9337C32.6187 45.0583 32.4612 44.9033 32.4612 44.5933V24.8232C32.4618 24.7571 32.4449 24.6921 32.4123 24.6346C32.3796 24.5771 32.3323 24.529 32.2749 24.495C32.2175 24.461 32.152 24.4423 32.0847 24.4407C32.0175 24.439 31.9508 24.4546 31.8912 24.4857C28.0287 26.5107 27.9537 33.2307 28.3212 36.9658C28.3512 37.2358 28.2312 37.3708 27.9612 37.3708H26.0937C25.8437 37.3708 25.7187 37.2433 25.7187 36.9883C25.6887 32.6308 26.9562 27.0507 22.0812 24.7332C21.7812 24.5882 21.6312 24.6807 21.6312 25.0107L21.3687 65.1583C21.3687 65.5133 21.2237 65.5858 20.9337 65.3758L19.6062 64.4233C19.5252 64.3656 19.459 64.2886 19.4134 64.1986C19.3677 64.1085 19.3438 64.0082 19.3437 63.9058L19.3137 21.4857C19.3141 21.4172 19.3291 21.3496 19.3578 21.2874C19.3865 21.2252 19.4282 21.1698 19.4801 21.1251C19.5319 21.0803 19.5928 21.0472 19.6585 21.0279C19.7243 21.0086 19.7934 21.0036 19.8612 21.0132C22.9912 21.4682 25.2887 23.0707 26.7537 25.8207C26.7788 25.8715 26.8174 25.9144 26.8653 25.9446C26.9132 25.9748 26.9685 25.9912 27.0251 25.992C27.0818 25.9927 27.1375 25.9779 27.1862 25.949C27.2349 25.9201 27.2747 25.8783 27.3012 25.8282C28.7462 23.1982 30.9612 21.5982 33.9462 21.0282C34.5762 20.9082 34.8912 21.1707 34.8912 21.8157L34.8762 34.1983C34.8762 34.4783 34.9587 34.5058 35.1237 34.2808C37.1637 31.5282 39.3537 28.8732 42.6837 27.6582C42.7333 27.6402 42.7865 27.6344 42.8389 27.6412C42.8912 27.6481 42.9412 27.6674 42.9845 27.6975C43.0279 27.7276 43.0634 27.7677 43.088 27.8144C43.1127 27.861 43.1258 27.913 43.1262 27.9657L43.1937 47.9158C43.1937 47.964 43.1841 48.0118 43.1653 48.0561C43.1466 48.1004 43.1191 48.1403 43.0847 48.1733C43.0502 48.2064 43.0095 48.2319 42.965 48.2482C42.9206 48.2645 42.8733 48.2713 42.8262 48.2683C39.3562 48.0383 36.8462 49.4208 35.2962 52.4158C35.2473 52.5108 35.2236 52.6168 35.2275 52.7236C35.2315 52.8304 35.2628 52.9344 35.3186 53.0256C35.3743 53.1167 35.4526 53.192 35.5459 53.2442C35.6392 53.2963 35.7443 53.3235 35.8512 53.3233L40.4412 53.2858C40.7462 53.2808 40.8987 53.4308 40.8987 53.7358V55.6333C40.8987 55.9383 40.7462 56.0983 40.4412 56.1133L35.4387 56.3683C35.0737 56.3833 34.9537 56.5633 35.0787 56.9083C36.3037 60.3633 38.8287 61.9983 42.6537 61.8133C42.9037 61.8033 43.0762 61.9133 43.1712 62.1433C43.4912 62.9433 43.4587 63.7058 43.0737 64.4308C42.9437 64.6758 42.7437 64.7808 42.4737 64.7458L38.9412 64.2433C38.7062 64.2083 38.5937 64.3083 38.6037 64.5433C39.3762 85.0183 8.14619 84.4183 13.6512 60.9733C13.6644 60.9125 13.6925 60.856 13.733 60.8089C13.7734 60.7617 13.825 60.7253 13.883 60.703C13.941 60.6807 14.0037 60.6731 14.0653 60.681C14.127 60.6889 14.1857 60.7121 14.2362 60.7483L16.3137 62.1658C16.413 62.234 16.4892 62.3308 16.532 62.4433C16.5749 62.5559 16.5825 62.6788 16.5537 62.7958C15.2487 68.3258 16.5687 72.2533 20.5137 74.5783C32.8362 81.8383 42.9312 61.4308 27.4662 55.9933C27.3699 55.9583 27.2847 55.898 27.2198 55.8188C27.1548 55.7395 27.1124 55.6442 27.097 55.5428C27.0817 55.4415 27.0939 55.3379 27.1325 55.243C27.1711 55.148 27.2345 55.0652 27.3162 55.0033C31.0587 52.1833 29.2362 47.6608 24.9912 48.3283C24.8792 48.3444 24.7767 48.4003 24.7024 48.4856C24.6281 48.5709 24.5868 48.6801 24.5862 48.7933V66.6433C24.5862 67.0283 24.4037 67.1633 24.0387 67.0483C22.8312 66.6658 22.1412 66.0433 22.1412 64.6633C22.1512 58.4383 22.1512 52.2733 22.1412 46.1683C22.1418 46 22.2039 45.8377 22.3158 45.7121C22.4277 45.5864 22.5816 45.5059 22.7487 45.4858C28.2837 44.8408 33.5637 47.5333 31.6137 54.0658C31.5437 54.3008 31.6187 54.3708 31.8387 54.2758ZM40.2912 32.4957C39.0162 33.3807 37.5687 35.6083 37.0887 36.8008C36.9887 37.0558 37.0737 37.1833 37.3437 37.1833H40.2462C40.5562 37.1833 40.7112 37.0258 40.7112 36.7108V32.7207C40.7112 32.3807 40.5712 32.3057 40.2912 32.4957Z" fill="white"/>
<path d="M55.0362 42.7706C55.3737 38.4806 54.6762 34.2431 55.1712 29.9531C55.1775 29.8953 55.1716 29.8368 55.1537 29.7814C55.1358 29.7261 55.1065 29.6751 55.0675 29.6319C55.0285 29.5887 54.9809 29.5542 54.9277 29.5307C54.8744 29.5072 54.8168 29.4953 54.7587 29.4956H52.6512C52.3612 29.4956 52.1862 29.3531 52.1262 29.0681L51.9312 28.0856C51.9157 28.0098 51.9174 27.9316 51.9362 27.8564C51.955 27.7813 51.9904 27.7111 52.0399 27.6509C52.0893 27.5907 52.1516 27.542 52.2222 27.5082C52.2929 27.4745 52.3702 27.4565 52.4487 27.4556L59.9937 27.4256C60.3537 27.4256 60.5262 27.6056 60.5112 27.9656L60.4737 29.0006C60.4587 29.3306 60.2862 29.4956 59.9562 29.4956H58.3362C58.187 29.4956 58.0439 29.5549 57.9384 29.6604C57.8329 29.7659 57.7737 29.909 57.7737 30.0581V44.5482C57.7737 44.8282 57.6312 44.9681 57.3462 44.9681L52.5012 44.8932C52.3981 44.8915 52.2993 44.8514 52.2244 44.7806C52.1494 44.7098 52.1037 44.6135 52.0962 44.5106C51.8562 41.2656 50.2237 39.0856 47.1987 37.9706C46.8487 37.8406 46.6762 37.9631 46.6812 38.3381L46.7787 44.3907C46.7837 44.6507 46.6562 44.7981 46.3962 44.8331L44.6937 45.0582C44.4387 45.0932 44.3112 44.9832 44.3112 44.7281L44.1912 27.7406C44.1905 27.6348 44.2266 27.5317 44.2934 27.4485C44.3603 27.3654 44.4538 27.307 44.5587 27.2831C50.9937 25.8581 54.7737 31.3406 51.5112 37.0331C51.3762 37.2731 51.4112 37.4881 51.6162 37.6781C53.1462 39.0781 54.1587 40.7856 54.6537 42.8006C54.8437 43.5906 54.9712 43.5806 55.0362 42.7706ZM46.9062 30.0581L46.8762 36.6731C46.8762 36.7089 46.8904 36.7433 46.9157 36.7686C46.941 36.7939 46.9754 36.8081 47.0112 36.8081H47.0637C47.8532 36.8119 48.612 36.4624 49.1732 35.8365C49.7344 35.2106 50.052 34.3596 50.0562 33.4706V33.2906C50.0583 32.8503 49.9833 32.4139 49.8355 32.0063C49.6877 31.5988 49.4701 31.2281 49.195 30.9153C48.9199 30.6026 48.5927 30.354 48.2322 30.1838C47.8716 30.0136 47.4847 29.925 47.0937 29.9231H47.0412C47.0054 29.9231 46.971 29.9374 46.9457 29.9627C46.9204 29.988 46.9062 30.0223 46.9062 30.0581Z" fill="white"/>
<path d="M76.2087 44.7956L76.0887 31.5206C76.0887 31.4788 76.0721 31.4388 76.0426 31.4092C76.013 31.3797 75.973 31.3631 75.9312 31.3631C75.8894 31.3631 75.8494 31.3797 75.8198 31.4092C75.7903 31.4388 75.7737 31.4788 75.7737 31.5206V44.8256C75.0787 45.1256 74.3887 45.1831 73.7037 44.9981C73.598 44.9699 73.5046 44.9076 73.4382 44.8207C73.3717 44.7339 73.3358 44.6275 73.3362 44.5181C73.3212 39.8831 71.6237 36.0406 68.2437 32.9906C67.4987 32.3206 67.1287 32.4881 67.1337 33.4931L67.1787 44.1506C67.1837 44.4506 67.0362 44.6231 66.7362 44.6681L65.2662 44.9006C64.8862 44.9606 64.7012 44.7981 64.7112 44.4131C64.8162 39.8581 64.9187 35.3256 65.0187 30.8156C65.0437 29.7706 64.9062 28.8456 64.6062 28.0406C64.5834 27.97 64.5359 27.9099 64.4724 27.8716C64.4088 27.8333 64.3336 27.8192 64.2605 27.832C64.1874 27.8448 64.1214 27.8836 64.0747 27.9412C64.0279 27.9988 64.0036 28.0714 64.0062 28.1456L63.9537 44.4731C63.9537 44.7081 63.8387 44.8431 63.6087 44.8781L62.2437 45.0656C61.8887 45.1156 61.7112 44.9606 61.7112 44.6006V27.9956C61.7112 27.7306 61.8437 27.5906 62.1087 27.5756C66.9987 27.2831 70.2162 29.3456 72.8187 33.7706C72.8526 33.8306 72.9052 33.8773 72.9685 33.9038C73.0317 33.9302 73.1022 33.9348 73.1692 33.917C73.2362 33.8992 73.296 33.8599 73.3397 33.8051C73.3834 33.7502 73.4085 33.6828 73.4112 33.6131L73.5087 28.1081C73.5114 27.9453 73.5554 27.7858 73.6367 27.6447C73.718 27.5035 73.8338 27.3854 73.9733 27.3014C74.1129 27.2174 74.2714 27.1703 74.4342 27.1644C74.597 27.1586 74.7585 27.1943 74.9037 27.2681C75.4337 27.5331 75.9862 27.6056 76.5612 27.4856C76.8858 27.4226 77.2206 27.4757 77.5062 27.6356C83.9412 31.3006 87.2387 36.9231 87.3987 44.5031C87.4037 44.7481 87.2837 44.8706 87.0387 44.8706H84.9387C84.8338 44.8712 84.7323 44.8325 84.6535 44.762C84.5747 44.6915 84.524 44.594 84.5112 44.4881L84.1212 41.0456C84.0862 40.7206 83.9062 40.5581 83.5812 40.5581H79.3362C79.2367 40.5581 79.1414 40.5976 79.071 40.6679C79.0007 40.7383 78.9612 40.8337 78.9612 40.9331V44.5031C78.9613 44.6047 78.9277 44.7037 78.8654 44.785C78.8031 44.8662 78.7155 44.9253 78.6162 44.9531C77.8212 45.1781 77.0187 45.1256 76.2087 44.7956ZM79.5087 32.5181C79.4771 32.4907 79.4384 32.473 79.397 32.4671C79.3557 32.4612 79.3135 32.4673 79.2756 32.4847C79.2376 32.5021 79.2055 32.5301 79.183 32.5652C79.1605 32.6004 79.1486 32.6413 79.1487 32.6831V36.7631C79.1487 36.9881 79.2612 37.1081 79.4862 37.1231L82.3812 37.3481C82.6662 37.3681 82.7587 37.2456 82.6587 36.9806C81.9937 35.2006 80.9437 33.7131 79.5087 32.5181Z" fill="white"/>
<path d="M68.2215 64.646C66.9906 64.6718 65.7666 64.447 64.6192 63.9843C63.4718 63.5216 62.4236 62.8302 61.5344 61.9495C60.6452 61.0689 59.9325 60.0162 59.4368 58.8516C58.9412 57.6869 58.6724 56.4332 58.6457 55.162C58.6191 53.8907 58.8352 52.6268 59.2816 51.4425C59.728 50.2581 60.3961 49.1765 61.2476 48.2594C62.0992 47.3422 63.1175 46.6075 64.2445 46.0972C65.3715 45.5869 66.585 45.311 67.8159 45.2852C69.0468 45.2594 70.2709 45.4843 71.4183 45.9469C72.5656 46.4096 73.6138 47.101 74.503 47.9817C75.3922 48.8623 76.105 49.915 76.6006 51.0797C77.0963 52.2443 77.3651 53.498 77.3917 54.7693C77.4183 56.0405 77.2023 57.3044 76.7558 58.4887C76.3094 59.6731 75.6414 60.7547 74.7898 61.6719C73.9383 62.589 72.92 63.3237 71.793 63.834C70.666 64.3443 69.4524 64.6202 68.2215 64.646ZM74.6337 54.9806C74.6337 53.2381 73.9415 51.567 72.7094 50.3349C71.4773 49.1028 69.8062 48.4106 68.0637 48.4106C66.3213 48.4106 64.6501 49.1028 63.418 50.3349C62.1859 51.567 61.4937 53.2381 61.4937 54.9806C61.4937 56.7231 62.1859 58.3942 63.418 59.6263C64.6501 60.8584 66.3213 61.5506 68.0637 61.5506C69.8062 61.5506 71.4773 60.8584 72.7094 59.6263C73.9415 58.3942 74.6337 56.7231 74.6337 54.9806Z" fill="white"/>
<path d="M51.6163 56.2932C53.8113 58.1182 54.8338 60.4758 54.6838 63.3658C54.6688 63.6558 54.5188 63.8008 54.2338 63.8008H52.5013C52.2013 63.8008 52.0438 63.6533 52.0288 63.3583C51.8388 60.1382 50.2813 57.9657 47.3563 56.8407C47.2844 56.8126 47.2068 56.8024 47.1301 56.8112C47.0534 56.8199 46.9801 56.8474 46.9164 56.891C46.8528 56.9347 46.8008 56.9932 46.7651 57.0616C46.7293 57.13 46.7108 57.2061 46.7113 57.2832V63.4333C46.7113 63.6833 46.5863 63.8083 46.3363 63.8083H44.5588C44.2488 63.8083 44.0938 63.6532 44.0938 63.3433L44.1238 46.2807C44.1238 45.9957 44.2638 45.8232 44.5438 45.7632C51.4288 44.3382 54.7588 49.8132 51.4888 55.6032C51.3388 55.8682 51.3813 56.0982 51.6163 56.2932ZM46.8088 48.5382L46.8538 55.0182C46.8557 55.0547 46.8715 55.0891 46.8981 55.1142C46.9246 55.1393 46.9597 55.1533 46.9963 55.1532H47.0413C47.4462 55.1505 47.8465 55.0633 48.2195 54.8967C48.5924 54.7301 48.9306 54.4873 49.2148 54.1822C49.4989 53.8772 49.7235 53.5158 49.8756 53.1188C50.0277 52.7217 50.1044 52.2968 50.1013 51.8682V51.6282C50.095 50.7632 49.7644 49.9359 49.1821 49.3283C48.5998 48.7207 47.8136 48.3826 46.9963 48.3882H46.9513C46.9319 48.3882 46.9127 48.3921 46.8949 48.3998C46.8771 48.4074 46.8611 48.4186 46.8477 48.4326C46.8344 48.4466 46.8241 48.4632 46.8174 48.4814C46.8107 48.4996 46.8077 48.5189 46.8088 48.5382Z" fill="white"/>
<path d="M60.8186 46.1382L60.6686 47.7132C60.663 47.7714 60.6459 47.828 60.6183 47.8795C60.5907 47.9311 60.5531 47.9767 60.5078 48.0137C60.4624 48.0506 60.4102 48.0782 60.3541 48.0949C60.2981 48.1115 60.2393 48.1169 60.1811 48.1107L58.4486 47.9457C58.3874 47.9394 58.3257 47.946 58.2672 47.9649C58.2087 47.9839 58.1548 48.0148 58.1089 48.0557C58.0631 48.0967 58.0262 48.1467 58.0008 48.2026C57.9753 48.2586 57.9618 48.3192 57.9611 48.3807L57.7436 63.3882C57.7426 63.4463 57.7302 63.5037 57.7071 63.557C57.6839 63.6103 57.6505 63.6585 57.6087 63.6989C57.5669 63.7393 57.5176 63.7711 57.4635 63.7924C57.4094 63.8137 57.3517 63.8242 57.2936 63.8232L55.5836 63.8007C55.4675 63.7988 55.3569 63.7513 55.2755 63.6685C55.1942 63.5857 55.1486 63.4743 55.1486 63.3582V48.2907C55.1487 48.2307 55.1365 48.1712 55.1129 48.116C55.0893 48.0608 55.0546 48.011 55.0111 47.9696C54.9676 47.9282 54.9162 47.8961 54.8598 47.8752C54.8035 47.8543 54.7436 47.8452 54.6836 47.8482L52.6961 47.9532C52.5799 47.9594 52.466 47.9196 52.379 47.8424C52.2919 47.7652 52.2388 47.6568 52.2311 47.5407L52.1336 46.1907C52.1295 46.1301 52.1379 46.0693 52.1583 46.0121C52.1786 45.9549 52.2106 45.9026 52.2521 45.8582C52.2936 45.8139 52.3438 45.7786 52.3995 45.7545C52.4553 45.7304 52.5154 45.7181 52.5761 45.7182L60.3761 45.6582C60.4375 45.658 60.4983 45.6705 60.5546 45.6951C60.6108 45.7196 60.6614 45.7556 60.703 45.8008C60.7446 45.8459 60.7764 45.8992 60.7963 45.9573C60.8162 46.0154 60.8238 46.077 60.8186 46.1382Z" fill="white"/>
</svg>
