<svg width="100" height="100" viewBox="0 0 100 100" fill="none" xmlns="http://www.w3.org/2000/svg">
<rect width="100" height="100" fill="white"/>
<path d="M37.8503 28.2806C36.8228 27.4087 36.6118 25.9547 37.4218 24.8587C37.5812 24.6431 37.8978 24.3556 38.3715 23.9962C45.4993 18.6 54.3727 14.1553 63.3371 13.0191C64.8446 12.8278 66.1074 14.1047 66.2002 15.5437C66.2208 15.8625 66.1586 16.345 66.0136 16.9912C65.1518 20.8206 64.3021 24.6519 63.4646 28.485C63.3333 29.0862 63.2065 29.6981 63.084 30.3206C62.2133 34.765 61.3377 39.2087 60.4571 43.6519C60.2743 44.5744 60.1637 45.6375 58.8793 45.5006C58.119 45.42 57.023 44.5622 56.4062 44.039C50.2206 38.7865 44.0353 33.5337 37.8503 28.2806Z" fill="#D7402C"/>
<path d="M65.5628 45.4116C64.6553 46.2225 63.3419 46.8506 63.2997 44.8753C63.22 41.1056 63.1609 37.3369 63.0672 33.5681C63.0559 33.1131 63.0922 32.7806 63.1759 32.5706C63.4609 31.8553 64.2391 31.5178 64.945 31.3275C69.5512 30.09 74.1562 28.8491 78.76 27.6047C79.2456 27.4744 79.7396 27.4659 80.1568 27.6694C81.0428 28.1016 81.4628 29.1506 81.0428 30.0572C80.9584 30.2384 80.7649 30.4822 80.4625 30.7884C74.4672 36.8531 70.3628 41.1253 65.5628 45.4116Z" fill="#503480"/>
<path d="M19.5744 40.4867C18.6885 39.7085 18.0322 39.1929 18.0079 38.066C17.9841 36.9398 18.5007 36.116 19.5575 35.5948C26.2738 32.2798 30.5853 30.161 32.4922 29.2385C36.1869 27.4507 39.7428 30.5285 42.0931 33.0373C45.115 36.2642 48.1625 39.4667 51.2356 42.6448C52.6262 44.0823 53.8215 45.3557 54.8215 46.4651C56.2118 48.0063 54.5712 48.6138 53.3234 48.7001C48.5828 49.0251 43.8409 49.3348 39.0978 49.6292C37.8059 49.7088 36.5122 49.7904 35.2213 49.8813C34.3406 49.9438 33.7169 49.967 33.35 49.9507C31.3463 49.862 29.58 49.1704 28.0513 47.876C26.7032 46.7354 23.8775 44.2723 19.5744 40.4867Z" fill="#503480"/>
<path d="M19.5279 65.0953C18.3176 64.4991 17.7429 63.2869 18.1094 61.9931C18.266 61.4391 18.6241 61.0425 19.1022 60.6225C21.9916 58.0869 24.8897 55.561 27.7966 53.0447C29.3416 51.7078 31.07 50.955 32.9819 50.7863C33.3831 50.7513 34.0072 50.7578 34.8541 50.806C37.1172 50.9344 39.4019 51.0891 41.6772 51.2297C45.5372 51.4685 49.3969 51.7156 53.2562 51.9713C54.1918 52.0331 56.215 52.5628 54.985 54.0281C54.4956 54.6113 53.8031 55.3722 52.9075 56.3109C49.2465 60.1434 45.5687 63.9572 41.9331 67.8131C40.0975 69.7612 37.7275 71.9016 34.9319 71.9653C33.5594 71.9963 32.7222 71.5744 31.2925 70.875C27.3682 68.9544 23.4466 67.0278 19.5279 65.0953Z" fill="#503480"/>
<path d="M64.8147 69.3348C63.8191 69.0676 63.0766 68.5529 63.0747 67.427C63.0729 66.1229 63.1357 64.6642 63.1516 63.5185C63.1891 60.8935 63.2466 58.2688 63.3241 55.6445C63.3288 55.4729 63.3691 55.187 63.4347 55.0248C63.9101 53.8417 65.1729 54.9151 65.7691 55.456C70.7472 59.971 75.4188 64.8357 80.1672 69.5907C80.6353 70.0601 80.9263 70.417 81.04 70.6613C81.5678 71.7985 80.77 73.0745 79.541 73.2001C79.3422 73.2207 79.0872 73.1888 78.776 73.1045C74.1241 71.842 69.4704 70.5854 64.8147 69.3348Z" fill="#D7402C"/>
<path d="M37.8446 76.2871C36.6474 75.2736 36.6071 73.4736 37.8211 72.4443C44.073 67.1411 50.3267 61.8402 56.5823 56.5415C57.382 55.8637 59.5758 54.1424 60.2301 56.0343C60.2708 56.1518 60.3254 56.3852 60.3942 56.7346C61.3329 61.4971 62.2742 66.2593 63.2179 71.0211C64.0607 75.2765 65.0732 79.5186 66.0257 83.7514C66.2704 84.8418 66.3464 85.6743 65.6686 86.6052C64.6251 88.0377 63.1748 87.6936 61.5529 87.3964C53.408 85.9049 45.7955 82.1296 39.1036 77.2536C38.543 76.8455 38.1233 76.5233 37.8446 76.2871Z" fill="#D7402C"/>
</svg>
