<svg width="100" height="100" viewBox="0 0 100 100" fill="none" xmlns="http://www.w3.org/2000/svg">
<rect width="100" height="100" fill="#C6E9FF"/>
<path d="M71.5092 19.6696C75.5855 23.2058 79.4292 27.5371 83.2617 31.3809C84.2967 32.4196 84.6492 33.5296 83.5992 34.6659C82.6917 35.6484 80.8154 37.5209 77.9705 40.2834C77.878 40.3734 77.7855 40.3721 77.693 40.2796C71.6355 34.1446 65.553 28.0409 59.4455 21.9683C55.4367 17.9858 52.5717 15.6458 47.1718 16.3133C46.8718 16.3483 46.8605 16.3071 47.138 16.1896C55.853 12.4508 64.3092 13.4296 71.5092 19.6696Z" fill="#085BAB"/>
<path d="M48.7018 68.4536C48.7822 68.5341 48.8775 68.5981 48.9825 68.6419C49.0874 68.6856 49.1999 68.7083 49.3134 68.7087C49.4269 68.709 49.5393 68.687 49.6441 68.6439C49.7489 68.6008 49.8441 68.5374 49.9243 68.4573L66.488 51.9011C66.5154 51.8726 66.5485 51.85 66.5852 51.8345C66.6219 51.819 66.6616 51.8111 66.7018 51.811C72.0818 51.8085 77.4605 51.8085 82.838 51.811C83.8542 51.811 84.0755 52.8423 84.023 53.7236C82.6505 77.2886 58.4855 92.9224 36.4881 83.7949C17.9106 76.0886 9.72437 54.6273 18.5744 36.5035C23.2468 26.941 31.7218 20.5022 42.1506 17.971C48.0381 16.5422 52.0168 18.3047 56.0105 22.3472C62.588 29.0022 69.198 35.6248 75.8405 42.2148C75.8831 42.2576 75.907 42.3156 75.907 42.376C75.907 42.4364 75.8831 42.4944 75.8405 42.5373C73.1955 45.1923 70.5193 47.8685 67.8118 50.566C66.7243 51.646 65.5168 50.8398 64.5755 49.9023C59.668 45.0048 54.7968 40.1348 49.9618 35.2923C49.5368 34.8648 49.1105 34.8648 48.6831 35.2923L32.7531 51.2298C32.5971 51.3857 32.5091 51.5969 32.5084 51.817C32.5077 52.0371 32.5943 52.248 32.7493 52.4035L48.7018 68.4536Z" fill="#085BAB"/>
</svg>
