<svg width="100" height="100" viewBox="0 0 100 100" fill="none" xmlns="http://www.w3.org/2000/svg">
<rect width="100" height="100" fill="#595C62"/>
<path d="M15.1475 58V40.8203H20.3389L23.4561 52.5391L26.5381 40.8203H31.7412V58H28.5186V44.4766L25.1084 58H21.7686L18.3702 44.4766V58H15.1475ZM35.5348 40.8203H41.8747C43.3044 40.8203 44.3942 40.9297 45.1442 41.1484C46.152 41.4453 47.0153 41.9727 47.7341 42.7305C48.4528 43.4883 48.9997 44.418 49.3747 45.5195C49.7497 46.6133 49.9372 47.9648 49.9372 49.5742C49.9372 50.9883 49.7614 52.207 49.4098 53.2305C48.9802 54.4805 48.3669 55.4922 47.57 56.2656C46.9684 56.8516 46.1559 57.3086 45.1325 57.6367C44.3669 57.8789 43.3434 58 42.0622 58H35.5348V40.8203ZM39.0036 43.7266V55.1055H41.5934C42.5622 55.1055 43.2614 55.0508 43.6911 54.9414C44.2536 54.8008 44.7184 54.5625 45.0856 54.2266C45.4606 53.8906 45.7653 53.3398 45.9997 52.5742C46.2341 51.8008 46.3512 50.75 46.3512 49.4219C46.3512 48.0938 46.2341 47.0742 45.9997 46.3633C45.7653 45.6523 45.4372 45.0977 45.0153 44.6992C44.5934 44.3008 44.0583 44.0312 43.4098 43.8906C42.9255 43.7812 41.9762 43.7266 40.5622 43.7266H39.0036ZM53.262 40.8203H60.1292C61.4886 40.8203 62.5003 40.8789 63.1644 40.9961C63.8363 41.1055 64.4339 41.3398 64.9573 41.6992C65.4886 42.0586 65.93 42.5391 66.2816 43.1406C66.6331 43.7344 66.8089 44.4023 66.8089 45.1445C66.8089 45.9492 66.5902 46.6875 66.1527 47.3594C65.723 48.0312 65.137 48.5352 64.3948 48.8711C65.4417 49.1758 66.2464 49.6953 66.8089 50.4297C67.3714 51.1641 67.6527 52.0273 67.6527 53.0195C67.6527 53.8008 67.4691 54.5625 67.1019 55.3047C66.7425 56.0391 66.2464 56.6289 65.6136 57.0742C64.9886 57.5117 64.2152 57.7812 63.2933 57.8828C62.7152 57.9453 61.3206 57.9844 59.1097 58H53.262V40.8203ZM56.7308 43.6797V47.6523H59.0042C60.3558 47.6523 61.1956 47.6328 61.5238 47.5938C62.1175 47.5234 62.5823 47.3203 62.9183 46.9844C63.262 46.6406 63.4339 46.1914 63.4339 45.6367C63.4339 45.1055 63.2855 44.6758 62.9886 44.3477C62.6995 44.0117 62.2659 43.8086 61.6878 43.7383C61.3441 43.6992 60.3558 43.6797 58.723 43.6797H56.7308ZM56.7308 50.5117V55.1055H59.9417C61.1917 55.1055 61.9847 55.0703 62.3206 55C62.8363 54.9062 63.2542 54.6797 63.5745 54.3203C63.9027 53.9531 64.0667 53.4648 64.0667 52.8555C64.0667 52.3398 63.9417 51.9023 63.6917 51.543C63.4417 51.1836 63.0784 50.9219 62.6019 50.7578C62.1331 50.5938 61.1097 50.5117 59.5316 50.5117H56.7308ZM70.9892 58V40.8203H74.3642L81.3955 52.293V40.8203H84.6181V58H81.1377L74.2119 46.7969V58H70.9892Z" fill="#F8F8F8"/>
</svg>
