<svg width="100" height="100" viewBox="0 0 100 100" fill="none" xmlns="http://www.w3.org/2000/svg">
<rect width="100" height="100" fill="#530708"/>
<path d="M88.7262 71.5308C87.5372 84.1838 74.2134 91.8763 62.6611 86.5795L58.3095 84.5842C47.0603 79.4264 36.3453 73.1755 26.3188 65.9217L25.3812 65.2433C15.2453 57.9104 15.1886 42.8306 25.2689 35.4216L26.1387 34.7823C37.3349 26.5531 49.4049 19.5845 62.1296 14.0029L63.1182 13.5693C74.5748 8.54395 87.6059 16.133 88.8885 28.5774L89.0071 29.7285C90.2759 42.0386 90.3318 54.4436 89.174 66.7646L88.7262 71.5308Z" fill="url(#paint0_linear_81_480)"/>
<path d="M11.2763 28.7441C12.4652 16.0911 25.7891 8.39856 37.3414 13.6954L41.6929 15.6907C52.9421 20.8485 63.6572 27.0994 73.6837 34.3532L74.6213 35.0316C84.7571 42.3645 84.8139 57.4443 74.7335 64.8533L73.8637 65.4926C62.6675 73.7218 50.5975 80.6904 37.8728 86.272L36.8842 86.7057C25.4276 91.731 12.3965 84.1419 11.1139 71.6975L10.9953 70.5464C9.72656 58.2363 9.67065 45.8313 10.8284 33.5103L11.2763 28.7441Z" fill="url(#paint1_linear_81_480)"/>
<path d="M56.8214 55.1271C56.536 56.2579 55.6462 57.165 54.5161 57.4704C54.2699 57.5374 53.9083 57.5711 53.4312 57.5715C51.911 57.5739 50.3909 57.5749 48.8708 57.5744C48.289 57.5739 47.8645 57.5386 47.5973 57.4683C46.4981 57.1786 45.6304 56.2773 45.3386 55.178C45.2721 54.9285 45.2384 54.5714 45.2375 54.1068C45.2346 53.0302 45.2339 51.9535 45.2353 50.8765C45.2358 50.4673 45.2602 50.1534 45.3085 49.935C45.5702 48.744 46.4823 47.8032 47.6432 47.5092C47.9013 47.4437 48.2742 47.4107 48.7618 47.4103C50.8235 47.4098 52.8858 47.4095 54.9485 47.4095C54.9733 47.4095 54.986 47.3969 54.9865 47.3715C54.9879 46.0617 54.9884 44.7541 54.9879 43.4486C54.9879 42.089 56.9218 41.9894 56.9218 43.5389C56.9232 46.9262 56.9237 50.3138 56.9232 53.7016C56.9232 54.3833 56.8893 54.8585 56.8214 55.1271ZM47.2208 54.6919C47.4066 55.2734 47.9221 55.6161 48.5338 55.6176C50.0826 55.6209 51.6312 55.6214 53.1795 55.619C53.6465 55.6181 53.9721 55.5829 54.1561 55.5136C54.7714 55.282 54.9879 54.7636 54.9879 54.1204C54.9884 52.5434 54.9879 50.9644 54.9865 49.3836C54.9865 49.3587 54.974 49.3463 54.9492 49.3463C52.8439 49.3453 50.7384 49.3448 48.6327 49.3448C48.001 49.3448 47.5026 49.5492 47.2646 50.1465C47.1919 50.3291 47.1551 50.637 47.1542 51.0701C47.1518 52.0419 47.1522 53.0137 47.1556 53.9856C47.157 54.324 47.1788 54.5595 47.2208 54.6919Z" fill="white"/>
<path d="M61.0059 45.8165C60.699 46.8383 59.1459 46.7501 59.0642 45.6472C59.0405 45.3303 59.0054 44.7732 59.1861 44.4491C59.5776 43.7456 60.6424 43.8051 60.9607 44.5301C61.0776 44.7968 61.0963 45.5146 61.0059 45.8165Z" fill="white"/>
<path d="M42.5483 48.523C43.2331 49.3153 43.3866 50.0654 43.3873 51.1617C43.3877 52.9027 43.3889 54.6447 43.3909 56.3876C43.3913 56.6452 43.3605 56.8462 43.2984 56.9906C42.8696 57.988 41.401 57.6768 41.4003 56.5224C41.3989 54.7283 41.3984 52.9343 41.3989 51.1402C41.3989 50.7291 41.3638 50.433 41.2935 50.2518C41.0382 49.5986 40.4918 49.4358 39.8078 49.4358C38.7312 49.4353 37.6554 49.4348 36.5803 49.4344C35.5765 49.4336 35.0917 49.9513 35.0903 50.943C35.0874 52.7744 35.0874 54.6064 35.0903 56.4392C35.091 56.9375 34.9175 57.2982 34.4636 57.4918C33.9545 57.7091 33.335 57.5241 33.1199 56.9913C33.0577 56.8379 33.0266 56.5764 33.0266 56.2069C33.0276 54.4353 33.0278 52.6637 33.0274 50.8921C33.0274 49.9047 32.4795 49.4372 31.5201 49.4358C30.4838 49.4348 29.4471 49.4346 28.4103 49.4351C27.3641 49.4351 26.898 49.9772 26.8973 50.9968C26.8959 52.8033 26.8961 54.6091 26.898 56.4141C26.898 56.6651 26.8665 56.8589 26.8034 56.9956C26.4578 57.7485 25.3126 57.7923 24.9986 56.982C24.9498 56.8558 24.9254 56.6589 24.9254 56.3912C24.9245 55.0393 24.9242 53.6896 24.9247 52.342C24.9247 51.6443 24.881 50.8089 24.9728 50.2152C25.1735 48.9202 26.1351 47.7952 27.4451 47.4919C27.6756 47.4383 28.0083 47.4113 28.4433 47.4108C29.4256 47.4089 30.408 47.4085 31.3903 47.4094C32.4774 47.4094 33.2583 47.6295 34.0162 48.3925C34.0339 48.4102 34.0518 48.4102 34.07 48.3925C34.7999 47.6719 35.5772 47.4116 36.6033 47.4101C37.5632 47.4092 38.5223 47.4089 39.4808 47.4094C40.1486 47.4099 40.623 47.4465 40.9041 47.5191C41.5361 47.6817 42.0842 48.0163 42.5483 48.523Z" fill="white"/>
<path d="M61.0469 52.3079C61.0464 53.6617 61.0462 55.0183 61.0462 56.3779C61.0462 57.1537 60.6833 57.6592 59.8107 57.5574C59.1553 57.3616 59.0556 56.9314 59.0556 56.2681C59.0576 53.7384 59.0571 51.2082 59.0542 48.6775C59.0537 48.3682 59.0865 48.1368 59.1524 47.9834C59.4909 47.1989 60.6188 47.2326 60.9651 48.0006C61.0201 48.1225 61.0474 48.2946 61.0469 48.5169C61.0454 49.7774 61.0454 51.0411 61.0469 52.3079Z" fill="white"/>
<path d="M73.1389 47.6977C74.4331 48.3444 74.9903 49.4172 74.9917 50.8218C74.9927 51.8922 74.9929 52.9622 74.9924 54.0321C74.9924 54.5421 74.9592 54.9277 74.8928 55.1887C74.6088 56.2987 73.719 57.2014 72.5982 57.4811C72.352 57.5423 71.9827 57.5729 71.4904 57.5729C69.9014 57.5719 68.3124 57.5731 66.7234 57.5764C66.1708 57.5779 65.7583 57.5451 65.4858 57.4782C62.2555 56.6873 62.2591 52.0566 65.4665 51.2442C65.7475 51.173 66.21 51.1373 66.8539 51.1373C68.9128 51.1383 70.972 51.1383 73.0313 51.1373C73.0533 51.1373 73.065 51.1266 73.0664 51.1051C73.1116 50.3751 72.9718 49.7248 72.2705 49.4422C72.1008 49.3744 71.8315 49.3409 71.4624 49.3419C68.9504 49.349 66.4414 49.3483 63.9356 49.3397C62.7159 49.0328 62.9037 47.4109 64.2382 47.4101C66.8071 47.4092 69.376 47.4089 71.945 47.4094C72.2997 47.4099 72.6976 47.506 73.1389 47.6977ZM65.2348 53.6269C64.6347 54.5412 65.2836 55.639 66.3341 55.6383C67.9895 55.6383 69.6449 55.6383 71.3004 55.6383C71.7468 55.6383 72.0642 55.6024 72.2526 55.5307C73.2687 55.1435 73.0715 54.017 73.0751 53.13C73.0751 53.1201 73.071 53.1107 73.0639 53.1037C73.0568 53.0967 73.0471 53.0927 73.037 53.0927C70.8558 53.0913 68.674 53.0915 66.4918 53.0935C65.9648 53.0942 65.5116 53.2039 65.2348 53.6269Z" fill="white"/>
<defs>
<linearGradient id="paint0_linear_81_480" x1="79.6771" y1="82.1977" x2="42.9842" y2="22.4008" gradientUnits="userSpaceOnUse">
<stop stop-color="#D62428"/>
<stop offset="1" stop-color="#9A1E20"/>
</linearGradient>
<linearGradient id="paint1_linear_81_480" x1="20.3253" y1="18.0772" x2="57.0182" y2="77.8741" gradientUnits="userSpaceOnUse">
<stop stop-color="#D62428"/>
<stop offset="1" stop-color="#9A1E20"/>
</linearGradient>
</defs>
</svg>
