<svg width="100" height="100" viewBox="0 0 100 100" fill="none" xmlns="http://www.w3.org/2000/svg">
<rect width="100" height="100" fill="#EFE6BD"/>
<path d="M34.212 59.7021C30.8551 63.0726 25.3872 62.3847 22.734 58.5523C22.5171 58.2383 22.2791 57.7824 22.0201 57.1845C20.6813 54.0957 19.3545 51.0016 18.0398 47.9022C17.8274 47.4019 18.5232 47.0664 18.7705 47.7588C19.0992 48.6793 19.9283 49.2836 20.8985 49.2588C21.7841 49.2351 22.5227 48.5856 23.005 47.8717C30.1299 37.326 37.2529 26.7791 44.3741 16.231C44.7777 15.6339 45.1282 15.2077 45.4256 14.9525C46.8895 13.6964 49.2648 13.6513 50.7456 15.0044C51.0144 15.2491 51.3631 15.7006 51.7915 16.3587C54.6333 20.7216 57.4597 25.0637 60.2707 29.3852C60.3083 29.443 60.327 29.511 60.3244 29.5798C60.3218 29.6485 60.2979 29.7147 60.256 29.7692C60.0143 30.0844 59.733 29.8957 59.5523 29.6348C59.3456 29.3366 59.1299 29.0091 58.8328 28.8024C56.8957 27.456 55.3709 28.6793 54.2775 30.2956C48.0465 39.5018 41.8157 48.7083 35.5854 57.9153C35.0116 58.7631 34.5538 59.3588 34.212 59.7021Z" fill="#9A4A1D"/>
<path d="M44.2385 82.8873C40.7924 86.3673 34.928 85.641 32.4544 81.3557C32.3181 81.12 32.0188 80.463 31.5565 79.3847C30.3968 76.6845 29.2402 73.9823 28.0866 71.2783C27.7817 70.5622 28.526 70.3058 28.7655 70.9993C29.2647 72.4496 31.0256 72.9534 32.1912 71.9865C32.5572 71.683 32.9013 71.2919 33.2236 70.8129C41.1294 59.0767 49.0434 47.3457 56.9657 35.62C57.4092 34.9634 57.7816 34.5085 58.0828 34.2555C59.8222 32.794 62.3162 33.1238 63.7913 34.7966C63.9193 34.9426 64.1478 35.2698 64.4769 35.7781C67.2058 39.9919 69.9418 44.2012 72.685 48.4059C72.8443 48.651 73.1278 49.061 72.7076 49.253C72.5088 49.3434 72.3687 49.2576 72.2445 49.0881C71.7994 48.4759 71.5239 48.0512 70.7682 47.7858C69.1406 47.2143 67.9874 48.0558 67.1075 49.3536C59.9374 59.9325 52.7711 70.5136 45.6086 81.097C45.0295 81.9532 44.5728 82.55 44.2385 82.8873Z" fill="#B3A66B"/>
<path d="M82.0001 70.4392V72.304C81.9707 72.6323 81.9414 72.9587 81.912 73.2833C81.4184 78.8325 78.0841 83.5651 72.4378 84.7918C67.3279 85.9021 62.1988 83.869 60.0437 78.9319C58.0343 74.3292 59.6778 68.8217 64.0049 66.1437C66.4311 64.643 69.073 64.2202 71.9306 64.8753C72.7642 65.0658 73.2702 65.1671 73.4487 65.1791C75.9641 65.3474 77.359 63.3064 77.2822 60.9401C77.1839 57.8385 75.6365 54.5257 73.9976 51.9425C73.6915 51.4591 74.2743 50.9915 74.5691 51.4331C78.4207 57.1913 81.5698 63.4544 82.0001 70.4392Z" fill="#AAAAAA"/>
</svg>
