<svg width="100" height="100" viewBox="0 0 100 100" fill="none" xmlns="http://www.w3.org/2000/svg">
<rect width="100" height="100" fill="#CD2328"/>
<path d="M60.3785 34.7056C58.4885 38.9881 56.7935 41.6956 56.2385 47.1406C56.1885 47.6156 56.041 47.6506 55.796 47.2456C49.5335 37.0231 42.5285 27.9331 53.681 16.9606C53.7223 16.921 53.7743 16.8943 53.8306 16.884C53.8869 16.8736 53.945 16.88 53.9977 16.9024C54.0504 16.9247 54.0954 16.9621 54.1271 17.0097C54.1588 17.0574 54.1758 17.1133 54.176 17.1706C54.161 23.5981 56.846 28.7281 60.3185 33.9631C60.4735 34.1981 60.4935 34.4456 60.3785 34.7056Z" fill="#F1DE3C"/>
<path d="M68.546 28.9081C70.901 24.4632 74.061 20.6832 78.026 17.5682C78.316 17.3432 78.466 17.4132 78.476 17.7782C78.581 20.9132 79.2135 23.9357 80.3735 26.8457C82.841 33.0331 88.391 37.0306 90.236 43.6531C93.176 54.2206 86.426 60.2506 79.7735 67.1656C79.4985 67.4506 79.386 67.3956 79.436 67.0006C80.096 61.4356 80.606 55.7206 78.161 50.9956C77.756 50.2156 76.5785 48.7031 74.6285 46.4581C70.5135 41.7281 68.4285 36.1106 68.3735 29.6056C68.3736 29.3596 68.4328 29.12 68.546 28.9081Z" fill="#F1DE3C"/>
<path d="M36.6185 62.5154L31.0385 68.5229C30.7735 68.8079 30.6585 68.7579 30.6935 68.3729C31.1485 63.1229 30.4785 58.0954 28.6835 53.2904C27.4535 49.9829 25.1435 46.7354 23.246 43.4654C19.706 37.3679 17.0435 33.6479 21.341 27.6704C23.791 24.2604 26.5535 21.1229 29.6285 18.258C29.8935 18.013 30.036 18.0705 30.056 18.4305C30.401 24.3204 32.3685 29.5654 35.9585 34.1654C36.0576 34.2956 36.1118 34.4544 36.1132 34.6179C36.1145 34.7815 36.0629 34.9411 35.966 35.0729C29.7185 43.4804 31.5935 53.3579 36.701 61.6679C36.7828 61.7985 36.819 61.9524 36.8041 62.1057C36.7892 62.259 36.7239 62.4031 36.6185 62.5154Z" fill="#F1DE3C"/>
<path d="M46.6835 54.3181C41.486 45.0556 35.2235 35.2156 45.626 25.8256C45.6672 25.7876 45.7192 25.7633 45.7748 25.7561C45.8304 25.749 45.8869 25.7593 45.9363 25.7857C45.9858 25.8121 46.0258 25.8532 46.0509 25.9033C46.0759 25.9535 46.0847 26.0102 46.076 26.0656C44.4185 36.2506 52.421 42.6406 55.6985 51.1681C58.6935 58.9581 57.361 66.4131 51.701 73.5331C51.6728 73.5657 51.6349 73.5889 51.5927 73.5993C51.5506 73.6096 51.5065 73.6066 51.467 73.5906C51.4274 73.5746 51.3946 73.5466 51.3733 73.5105C51.3519 73.4745 51.3433 73.4324 51.3485 73.3905C51.9485 66.2431 50.321 60.7831 46.6835 54.3181Z" fill="#F1DE3C"/>
<path d="M66.0411 30.0781C66.4361 29.6181 66.6361 29.6906 66.6411 30.2956C66.6561 36.9106 68.8211 42.668 73.1361 47.568C80.2236 55.6005 79.8486 65.898 73.5936 74.3955C72.1886 76.3055 70.0386 78.7105 67.1436 81.6105C66.8636 81.8905 66.7586 81.833 66.8286 81.438C67.8336 75.738 67.1086 70.323 64.6536 65.193C62.8311 61.4055 59.0661 55.2555 58.1961 50.8005C56.5236 42.2355 60.7686 36.2356 66.0411 30.0781Z" fill="#F1DE3C"/>
<path d="M29.2085 69.8355C28.541 72.738 22.286 78.2655 20.201 80.4705C19.546 81.1605 19.3085 81.038 19.4885 80.103C21.4535 70.0755 16.4135 62.658 12.0785 54.213C6.70101 43.7506 10.526 38.7556 18.0785 31.6306C18.3335 31.3906 18.441 31.4456 18.401 31.7956C18.3185 32.5006 17.891 33.1456 17.846 33.8356C17.381 41.0431 24.671 48.0481 27.131 54.2505C28.8935 58.698 30.326 64.983 29.2085 69.8355Z" fill="#F1DE3C"/>
<path d="M37.4734 35.1781C37.5163 35.1209 37.5762 35.0787 37.6445 35.0578C37.7129 35.0368 37.7862 35.0381 37.8537 35.0615C37.9213 35.0848 37.9797 35.1291 38.0205 35.1878C38.0614 35.2465 38.0825 35.3166 38.0809 35.3881C37.8109 43.5481 41.7484 49.1731 45.5884 55.9231C48.3834 60.8531 49.6609 66.1081 49.4209 71.688C49.2559 75.408 46.1434 79.293 43.7584 81.9555C43.4884 82.2605 43.3884 82.213 43.4584 81.813C44.4784 75.948 43.6509 70.5555 40.9759 65.6356C35.4109 55.4131 29.6884 46.1206 37.4734 35.1781Z" fill="#F1DE3C"/>
<path d="M58.5334 65.1405L59.0284 58.5405C59.0484 58.2505 59.1334 58.228 59.2834 58.473L61.2859 61.7505C61.4359 62.0055 61.4184 62.248 61.2334 62.478L58.9459 65.3205C58.6359 65.7055 58.4984 65.6455 58.5334 65.1405Z" fill="#F1DE3C"/>
</svg>
