<svg width="100" height="100" viewBox="0 0 100 100" fill="none" xmlns="http://www.w3.org/2000/svg">
<rect width="100" height="100" fill="white"/>
<path d="M68.5731 27.0579L82.6354 27.0491C82.6632 27.0486 82.6906 27.0562 82.7143 27.0708C82.738 27.0854 82.757 27.1065 82.7691 27.1316C82.7812 27.1567 82.7859 27.1848 82.7825 27.2124C82.7792 27.2401 82.7679 27.2662 82.7502 27.2877L45.2112 72.9467C45.1973 72.9636 45.1797 72.9772 45.1598 72.9864C45.1399 72.9955 45.1182 73.0001 45.0963 72.9998H31.0474C31.0195 73.0002 30.9921 72.9927 30.9684 72.9781C30.9447 72.9634 30.9257 72.9423 30.9136 72.9172C30.9015 72.8921 30.8969 72.8641 30.9002 72.8364C30.9036 72.8088 30.9148 72.7827 30.9325 72.7612L68.4583 27.1109C68.4722 27.094 68.4898 27.0805 68.5097 27.0713C68.5295 27.0621 68.5512 27.0576 68.5731 27.0579Z" fill="#FF1E02"/>
<path fill-rule="evenodd" clip-rule="evenodd" d="M9.75299 71.8822C9.90614 71.8822 10.0225 72.0383 10.102 72.3505C10.1187 72.4151 10.1564 72.4723 10.2092 72.5131C10.262 72.5539 10.3269 72.576 10.3936 72.5758L22.3175 72.4831C22.4256 72.4823 22.533 72.4698 22.6379 72.446C22.5331 72.4698 22.4258 72.4823 22.3178 72.483L10.3938 72.5758C10.3271 72.5759 10.2623 72.5538 10.2095 72.5131C10.1567 72.4723 10.1189 72.415 10.1023 72.3504C10.0227 72.0382 9.9064 71.8821 9.75325 71.8821L16.7468 63.3688C16.788 63.4277 16.8396 63.469 16.9014 63.4925C16.9863 63.5252 17.0639 63.5293 17.1343 63.505C17.064 63.5293 16.9863 63.5251 16.9015 63.4925C16.8396 63.4689 16.7881 63.4277 16.7468 63.3688L41.496 33.2696C41.5347 33.2209 41.5559 33.1609 41.5559 33.0997C41.5559 33.0385 41.5347 32.9799 41.496 32.9338L36.7423 27.2215C36.651 27.1125 36.6775 27.058 36.8218 27.058L48.3349 27.2038L59.8833 27.1022C59.8833 27.1022 59.8833 27.1023 59.8833 27.1023L60.7313 27.0051C60.961 26.9786 61.0023 27.0552 60.855 27.2348L23.3602 72.8232C23.26 72.9411 23.1334 73 22.9802 73H9.16982C8.98722 73 8.95187 72.9278 9.06379 72.7835L9.75299 71.8822ZM38.0191 27.4556C37.9671 27.4575 37.9165 27.4737 37.8731 27.5025C37.8622 27.5096 37.8519 27.5176 37.8423 27.5261C37.8519 27.5176 37.8622 27.5097 37.873 27.5025C37.9165 27.4737 37.9671 27.4575 38.0191 27.4556L38.0191 27.4556ZM17.2494 63.434C17.2634 63.4211 17.277 63.4067 17.2902 63.3909L17.2902 63.3909C17.277 63.4067 17.2634 63.4211 17.2494 63.434Z" fill="#342C2A"/>
<path d="M76.4195 61.9773L67.4378 72.9514C67.4248 72.9668 67.4086 72.9791 67.3903 72.9875C67.3719 72.9959 67.352 73.0002 67.3318 72.9999H53.2431C53.2169 73.0002 53.1911 72.9929 53.1689 72.979C53.1467 72.9651 53.1289 72.945 53.1178 72.9213C53.1066 72.8976 53.1025 72.8712 53.1059 72.8451C53.1093 72.8191 53.1201 72.7947 53.1371 72.7746L90.5524 27.2392C90.5703 27.2173 90.5947 27.2014 90.6221 27.1939C90.6495 27.1863 90.6785 27.1875 90.7052 27.1972C90.7319 27.2069 90.7549 27.2247 90.7711 27.248C90.7872 27.2714 90.7957 27.2992 90.7954 27.3276V72.863C90.7954 72.8993 90.7809 72.9342 90.7552 72.9598C90.7296 72.9855 90.6947 72.9999 90.6584 72.9999H76.7817C76.7454 72.9999 76.7106 72.9855 76.6849 72.9598C76.6592 72.9342 76.6448 72.8993 76.6448 72.863L76.6624 62.0656C76.6628 62.0372 76.6543 62.0094 76.6382 61.9861C76.622 61.9627 76.599 61.9449 76.5723 61.9352C76.5456 61.9255 76.5166 61.9244 76.4892 61.9319C76.4618 61.9394 76.4374 61.9553 76.4195 61.9773Z" fill="#FF1E02"/>
</svg>
