<svg width="100" height="100" viewBox="0 0 100 100" fill="none" xmlns="http://www.w3.org/2000/svg">
<rect width="100" height="100" fill="#E5E9FF"/>
<path d="M59.6318 30.5249C56.2192 28.8152 53.2698 28.8356 49.0331 30.0685C48.6244 30.1866 48.0477 30.1548 47.303 29.9731C47.0669 29.9186 47.0555 29.8324 47.2689 29.7143C54.8978 25.4866 62.4971 21.2136 70.0669 16.8951C71.2567 16.2185 72.4805 15.5986 73.7383 15.0355C73.7998 15.0081 73.8672 14.9962 73.9343 15.0011C74.0014 15.0059 74.066 15.0273 74.1223 15.0632C74.1786 15.0992 74.2247 15.1485 74.2564 15.2068C74.2881 15.265 74.3044 15.3303 74.3037 15.3966L74.2083 37.5816C74.207 37.6331 74.1928 37.6835 74.1669 37.728C74.141 37.7725 74.1043 37.8095 74.0605 37.8356C74.0167 37.8616 73.9671 37.8757 73.9167 37.8766C73.8662 37.8774 73.8165 37.8649 73.7724 37.8404C69.1043 35.3565 64.3907 32.918 59.6318 30.5249Z" fill="#078419"/>
<path d="M73.8816 47.4514C73.9474 47.486 74.0025 47.5374 74.0409 47.5998C74.0793 47.6622 74.0996 47.7334 74.0995 47.8056L74.0859 60.7542C74.0859 61.0449 73.9565 61.1266 73.6977 60.9994C61.0737 54.6239 48.443 48.2597 35.8054 41.9068C33.5031 40.7489 30.8058 41.1916 28.2991 41.1576C28.2469 41.1592 28.1957 41.143 28.1538 41.1118C28.1118 41.0806 28.0817 41.0361 28.0683 40.9855C28.0549 40.935 28.059 40.8815 28.0798 40.8335C28.1007 40.7856 28.1372 40.7462 28.1834 40.7216C31.0669 39.0733 33.9799 37.4226 36.9225 35.7697C43.0256 32.3503 46.949 33.5696 52.8273 36.6075C59.7841 40.204 66.8022 43.8186 73.8816 47.4514Z" fill="#04136C"/>
<path d="M73.6363 69.7658C73.7578 69.8278 73.86 69.9221 73.932 70.0385C74.004 70.1549 74.0431 70.2891 74.045 70.4265L74.0859 83.8996C74.0859 84.2447 73.936 84.3355 73.6363 84.1721L11.5088 51.1568C11.4131 51.1061 11.333 51.0305 11.2768 50.9379C11.2207 50.8453 11.1907 50.7392 11.19 50.6309C11.1893 50.5227 11.2179 50.4162 11.2728 50.3229C11.3278 50.2296 11.407 50.1529 11.502 50.101C16.8558 47.1925 21.474 43.3713 27.9177 46.5795C43.1572 54.1629 58.3968 61.8917 73.6363 69.7658Z" fill="#04136C"/>
</svg>
