<svg width="100" height="100" viewBox="0 0 100 100" fill="none" xmlns="http://www.w3.org/2000/svg">
<rect width="100" height="100" fill="#005CC5"/>
<path d="M41.4321 82.5274C33.2957 82.499 25.5041 79.1779 19.7712 73.2948C14.0384 67.4116 10.834 59.4483 10.863 51.1567C10.8773 47.0511 11.685 42.9885 13.24 39.2008C14.795 35.4131 17.0667 31.9745 19.9256 29.0813C22.7845 26.1882 26.1745 23.8971 29.902 22.339C33.6295 20.7808 37.6216 19.9861 41.6504 20.0002C49.7867 20.0286 57.5784 23.3497 63.3112 29.2328C69.044 35.116 72.2484 43.0793 72.2194 51.3709C72.2051 55.4765 71.3974 59.5391 69.8424 63.3268C68.2875 67.1145 66.0157 70.5531 63.1568 73.4462C60.2979 76.3394 56.908 78.6304 53.1804 80.1886C49.4529 81.7467 45.4608 82.5415 41.4321 82.5274ZM41.3779 78.8784C44.9455 78.8971 48.4818 78.2013 51.785 76.8308C55.0882 75.4603 58.0937 73.4419 60.6298 70.8909C63.1658 68.3398 65.1828 65.3061 66.5655 61.9628C67.9483 58.6196 68.6698 55.0324 68.6888 51.406C68.7271 44.0822 65.9017 37.0433 60.8342 31.8379C55.7666 26.6325 48.872 23.6869 41.6671 23.6492C38.0996 23.6305 34.5633 24.3263 31.26 25.6968C27.9568 27.0673 24.9513 29.0857 22.4153 31.6367C19.8793 34.1878 17.8623 37.2215 16.4795 40.5647C15.0967 43.9079 14.3753 47.4952 14.3563 51.1216C14.3179 58.4454 17.1433 65.4843 22.2109 70.6897C27.2784 75.8951 34.173 78.8407 41.3779 78.8784Z" fill="white"/>
<path d="M79.6234 28.4994L83.0979 32.0237C83.1624 32.0883 83.2132 32.1652 83.2474 32.2498C83.2815 32.3345 83.2981 32.4252 83.2964 32.5164C83.2946 32.6077 83.2745 32.6977 83.2372 32.781C83.1999 32.8643 83.1461 32.9392 83.0792 33.0013L79.586 36.2204C79.5303 36.2702 79.491 36.3359 79.4736 36.4086C79.4561 36.4814 79.4613 36.5577 79.4883 36.6274C79.5154 36.6971 79.5631 36.7569 79.6251 36.7988C79.687 36.8407 79.7603 36.8626 79.8351 36.8618H88.1289C88.3863 36.8618 88.515 36.9925 88.515 37.254V40.2615C88.515 40.5853 88.3531 40.7472 88.0293 40.7472L73.4778 40.7721C73.2827 40.7721 73.1727 40.6745 73.1478 40.4794C72.6559 36.7185 75.2275 35.0747 77.662 32.7647C77.8281 32.6069 77.8343 32.4388 77.6807 32.2603C75.4952 29.7759 72.0208 28.0138 73.3408 23.9789C73.3823 23.8502 73.4715 23.7859 73.6085 23.7859H88.1289C88.3863 23.7859 88.515 23.9146 88.515 24.1719V27.6775C88.515 27.9888 88.3593 28.1445 88.048 28.1445H79.7729C79.4408 28.1445 79.3909 28.2628 79.6234 28.4994Z" fill="white"/>
<path d="M59.8348 47.1915L56.1362 51.0334C56.1101 51.0597 56.0791 51.0806 56.0449 51.0949C56.0107 51.1092 55.974 51.1166 55.9369 51.1166C55.8999 51.1166 55.8631 51.1092 55.8289 51.0949C55.7947 51.0806 55.7637 51.0597 55.7377 51.0334L52.4127 47.5963C52.3739 47.557 52.3243 47.5301 52.2702 47.5189C52.2161 47.5077 52.16 47.5127 52.1088 47.5333C52.0575 47.554 52.0135 47.5893 51.9823 47.6348C51.9511 47.6803 51.934 47.7341 51.9332 47.7893V55.8839C51.9332 55.9582 51.9037 56.0295 51.8512 56.082C51.7986 56.1346 51.7273 56.1641 51.653 56.1641H47.6991C47.6248 56.1641 47.5535 56.1346 47.501 56.082C47.4484 56.0295 47.4189 55.9582 47.4189 55.8839V40.8342C47.4189 40.7963 47.4266 40.7588 47.4414 40.724C47.4563 40.6892 47.478 40.6577 47.5054 40.6315C47.5327 40.6053 47.5651 40.585 47.6005 40.5716C47.636 40.5583 47.6737 40.5523 47.7116 40.554L51.2172 40.7408C51.2882 40.7451 51.3551 40.7762 51.404 40.828L55.6879 45.4419C55.7141 45.4702 55.7459 45.4927 55.7813 45.5082C55.8166 45.5236 55.8547 45.5316 55.8933 45.5316C55.9319 45.5316 55.9701 45.5236 56.0054 45.5082C56.0408 45.4927 56.0726 45.4702 56.0988 45.4419L60.5944 40.7283C60.6201 40.7013 60.651 40.6796 60.6852 40.6646C60.7194 40.6497 60.7563 40.6417 60.7937 40.6412L64.1 40.5851C64.1373 40.5843 64.1744 40.5909 64.2091 40.6046C64.2438 40.6183 64.2755 40.6389 64.3022 40.665C64.3288 40.6911 64.35 40.7222 64.3645 40.7566C64.379 40.791 64.3864 40.828 64.3864 40.8653V55.8839C64.3864 55.9582 64.3569 56.0295 64.3044 56.082C64.2518 56.1346 64.1805 56.1641 64.1062 56.1641H60.6318C60.5574 56.1641 60.4862 56.1346 60.4336 56.082C60.3811 56.0295 60.3516 55.9582 60.3516 55.8839L60.3142 47.3846C60.3135 47.3294 60.2964 47.2756 60.2651 47.2301C60.2339 47.1845 60.1899 47.1492 60.1387 47.1286C60.0875 47.108 60.0313 47.1029 59.9772 47.1141C59.9231 47.1253 59.8736 47.1523 59.8348 47.1915Z" fill="white"/>
</svg>
