<svg width="100" height="100" viewBox="0 0 100 100" fill="none" xmlns="http://www.w3.org/2000/svg">
<rect width="100" height="100" fill="#D2E6F7"/>
<path d="M50.6259 10.2828C57.4209 11.666 64.1789 15.3253 64.7496 23.1207C64.9376 25.6789 64.5952 29.8821 62.6413 31.6144C60.3651 33.6287 56.9542 31.4062 55.2991 29.3953C48.1416 20.6901 39.2048 15.3454 27.5151 16.9166C27.4955 16.919 27.4754 16.9144 27.4585 16.9037C27.4416 16.893 27.429 16.8769 27.4229 16.8582C27.4169 16.8396 27.4177 16.8197 27.4254 16.8021C27.433 16.7845 27.447 16.7703 27.4647 16.7622C33.8232 13.4352 43.3543 8.80563 50.6259 10.2828Z" fill="#4393D2"/>
<path d="M73.0053 18.1421C80.1158 24.9841 87.5956 33.2999 86.2561 43.9925C85.6518 48.8 83.1037 53.3054 78.4775 55.1787C75.9462 56.206 70.3934 57.6059 68.4664 55.1921C66.8885 53.2214 67.9427 50.2033 69.2016 48.3535C75.5232 39.0843 78.0109 28.7643 72.9113 18.2093C72.9048 18.1973 72.9029 18.1836 72.9059 18.1705C72.909 18.1575 72.9168 18.146 72.928 18.138C72.9392 18.13 72.953 18.126 72.9672 18.1268C72.9813 18.1276 72.9948 18.133 73.0053 18.1421Z" fill="black"/>
<path d="M34.6592 26.1592C37.6068 27.0321 46.2583 30.9533 42.6056 35.5795C40.8263 37.8288 38.0768 38.5271 35.4515 39.3093C24.9166 42.4416 16.8862 49.1828 13.6298 59.9191C13.5828 60.0713 13.5123 60.1787 13.4183 60.2414C13.3973 60.2551 13.373 60.263 13.3479 60.2643C13.3228 60.2655 13.2979 60.26 13.2756 60.2484C13.2534 60.2367 13.2347 60.2194 13.2214 60.1981C13.2081 60.1768 13.2007 60.1523 13.2 60.1272C12.8442 49.025 11.9445 37.6274 21.3647 29.7178C24.9737 26.6863 29.9826 24.7693 34.6592 26.1592Z" fill="#4393D2"/>
<path d="M52.8987 87.8577C53.3396 88.2113 53.7638 88.5638 54.1711 88.9152C54.1785 88.923 54.1832 88.933 54.1846 88.9436C54.1859 88.9543 54.1838 88.9651 54.1785 88.9745C54.1733 88.9839 54.1652 88.9913 54.1554 88.9958C54.1456 89.0002 54.1346 89.0014 54.1241 88.9991C45.8084 86.5954 36.2907 83.537 30.56 77.353C24.7991 71.1355 21.546 60.7585 27.7467 53.5539C29.7543 51.2207 33.2626 47.9004 36.4888 47.9776C39.2316 48.0414 40.6886 51.0125 40.9807 53.4029C41.0501 53.9691 41.0053 55.3097 40.8464 57.4248C39.9299 69.5039 43.3207 80.1563 52.8987 87.8577Z" fill="#4393D2"/>
</svg>
