<svg width="100" height="100" viewBox="0 0 100 100" fill="none" xmlns="http://www.w3.org/2000/svg">
<rect width="100" height="100" fill="#2121BF"/>
<path d="M13.005 50.1499C12.9823 50.1184 12.9502 50.0948 12.9133 50.0826C12.8765 50.0703 12.8367 50.07 12.7996 50.0816C12.7626 50.0932 12.7301 50.1162 12.7068 50.1473C12.6836 50.1784 12.6707 50.216 12.67 50.2549L12.775 57.4998C12.7757 57.5344 12.7694 57.5687 12.7567 57.6009C12.7439 57.633 12.7248 57.6623 12.7006 57.6869C12.6764 57.7116 12.6475 57.7312 12.6157 57.7446C12.5838 57.758 12.5496 57.7648 12.515 57.7648H7.25C7.08333 57.7648 7 57.6815 7 57.5148V42.4049C7 42.1449 7.13 42.0149 7.39 42.0149H14.67C14.8639 42.0148 15.0551 42.0627 15.2268 42.1542C15.3986 42.2457 15.5456 42.3782 15.655 42.5399L19.48 48.1699C19.5033 48.2055 19.5352 48.2346 19.5727 48.2547C19.6103 48.2749 19.6523 48.2854 19.6953 48.2854C19.7382 48.2854 19.7807 48.2749 19.819 48.2547C19.8573 48.2346 19.8903 48.2055 19.915 48.1699L23.655 42.6649C23.7921 42.4646 23.9758 42.3008 24.1901 42.1875C24.4044 42.0743 24.6429 42.015 24.885 42.0149H31.87C32.0366 42.0149 32.12 42.0966 32.12 42.2599L32.135 57.4448C32.135 57.6582 32.03 57.7648 31.82 57.7648H26.765C26.505 57.7648 26.375 57.6348 26.375 57.3748V50.2749C26.3759 50.2346 26.3636 50.1952 26.3401 50.1626C26.3166 50.13 26.283 50.1059 26.2446 50.094C26.2062 50.0822 26.1649 50.0831 26.1271 50.0968C26.0893 50.1105 26.0569 50.1362 26.035 50.1699L21.32 56.9848C21.1138 57.282 20.8385 57.5246 20.5177 57.6917C20.1969 57.8588 19.8402 57.9453 19.4785 57.9438C19.1168 57.9424 18.7609 57.8529 18.4415 57.6832C18.1221 57.5136 17.8487 57.2687 17.645 56.9698L13.005 50.1499Z" fill="white"/>
<path d="M58.865 50.14L58.895 57.5049C58.8983 57.6783 58.8117 57.7649 58.635 57.7649H53.125C52.9583 57.7649 52.875 57.6816 52.875 57.5149V42.265C52.875 42.0983 52.9583 42.015 53.125 42.015H58.62C58.7925 42.0149 58.96 42.0673 59.1 42.165L69.94 49.725C69.9828 49.754 70.0327 49.7708 70.0843 49.7737C70.1359 49.7765 70.1873 49.7653 70.2331 49.7411C70.2788 49.717 70.3171 49.6809 70.3438 49.6366C70.3706 49.5924 70.3848 49.5417 70.385 49.49L70.355 42.155C70.3517 42.0517 70.4033 42 70.51 42L76.26 42.025C76.3543 42.0249 76.445 42.0528 76.52 42.105L87.54 49.765C87.5721 49.7866 87.6094 49.7991 87.6481 49.8013C87.6867 49.8034 87.7252 49.7951 87.7595 49.7772C87.7938 49.7592 87.8227 49.7324 87.843 49.6994C87.8633 49.6665 87.8744 49.6287 87.875 49.59V42.265C87.875 42.0983 87.9583 42.015 88.125 42.015H92.62C92.9506 42.015 93.2678 42.146 93.5021 42.3793C93.7364 42.6127 93.8686 42.9293 93.87 43.26L93.885 57.5099C93.8883 57.6799 93.8033 57.7649 93.63 57.7649H88.505C88.125 57.7649 87.7783 57.6566 87.465 57.4399L76.82 50.09C76.6066 49.9433 76.5 50 76.5 50.26V57.5149C76.5 57.6816 76.4166 57.7649 76.25 57.7649H70.725C70.5263 57.7649 70.3329 57.7057 70.17 57.5949L59.16 49.985C58.9633 49.8483 58.865 49.9 58.865 50.14Z" fill="white"/>
<path d="M34.6251 42.03C35.3751 43.35 38.7151 45.325 40.0901 46.33L44.3201 49.535C44.376 49.5769 44.4213 49.6313 44.4526 49.6937C44.4838 49.7562 44.5001 49.8251 44.5001 49.895C44.5001 49.9648 44.4838 50.0337 44.4526 50.0962C44.4213 50.1587 44.376 50.2131 44.3201 50.255L40.1351 53.35C38.3818 54.62 36.6768 55.8883 35.0201 57.155C34.8001 57.3216 34.7101 57.5216 34.7501 57.755C34.6001 57.785 34.4701 57.7916 34.3601 57.775C34.1868 57.7516 34.1001 57.6533 34.1001 57.48L34.1151 42.215C34.1151 42.0783 34.1834 42.0117 34.3201 42.015L34.6251 42.03Z" fill="white"/>
<path d="M34.625 42.0299L39.85 42.0249C40.0233 42.0249 40.11 42.1116 40.11 42.2849L40.09 46.3299C38.715 45.3249 35.375 43.3499 34.625 42.0299Z" fill="#010066"/>
<path d="M50.3948 50.3399C50.4672 50.2864 50.526 50.2167 50.5665 50.1364C50.6071 50.0561 50.6282 49.9673 50.6282 49.8774C50.6282 49.7874 50.6071 49.6987 50.5665 49.6183C50.526 49.538 50.4672 49.4683 50.3948 49.4149L40.5198 42.1349C40.4132 42.0549 40.4265 42.0149 40.5598 42.0149H50.7498C50.9165 42.0149 50.9998 42.0982 50.9998 42.2649V57.4548C50.9998 57.6615 50.8948 57.7648 50.6848 57.7648H40.7698C40.4598 57.7648 40.4298 57.6732 40.6798 57.4898L50.3948 50.3399Z" fill="white"/>
<path d="M40.1349 53.3499L40.1749 57.5598C40.1749 57.6965 40.1066 57.7648 39.9699 57.7648L34.75 57.7548C34.71 57.5215 34.8 57.3215 35.02 57.1548C36.6766 55.8882 38.3816 54.6198 40.1349 53.3499Z" fill="#010066"/>
</svg>
