<svg width="100" height="100" viewBox="0 0 100 100" fill="none" xmlns="http://www.w3.org/2000/svg">
<rect width="100" height="100" fill="#5FAEDB"/>
<path d="M31.7187 43.0229C33.5764 43.0427 35.6595 42.6312 35.6641 45.3041C35.6712 48.6455 35.6722 52.0173 35.6671 55.4197C35.6666 55.5059 35.6348 55.589 35.5775 55.6533C35.5202 55.7176 35.4415 55.7586 35.3562 55.7687C29.663 56.4483 34.0701 50.8145 30.8334 49.9885C29.6844 49.6975 28.3388 50.5112 27.5067 51.2854C26.0875 52.603 24.9964 53.5687 24.2335 54.1823C22.7964 55.3389 21.3244 55.0143 20.0275 53.8623C18.9334 52.8921 17.8347 51.9229 16.7314 50.9547C15.8902 50.2171 14.4532 49.5573 13.3941 50.1546C12.5651 50.6225 12.4752 51.36 12.4722 52.3277C12.4681 53.3619 12.4645 54.4185 12.4615 55.4974C12.4615 55.5358 12.4539 55.5737 12.4392 55.6091C12.4245 55.6446 12.4029 55.6767 12.3757 55.7038C12.3485 55.7308 12.3162 55.7522 12.2808 55.7667C12.2453 55.7813 12.2073 55.7887 12.1689 55.7885C11.0199 55.7854 9.7627 56.0064 9.18058 54.7324C9.06273 54.4723 9.0033 54.0685 9.00229 53.5209C8.99924 50.1267 8.99924 46.7239 9.00229 43.3124C9.0033 43.1549 9.08254 43.0711 9.24001 43.0609C10.0395 43.0091 10.8777 43.0015 11.7544 43.0381C12.8912 43.0853 13.5434 43.5166 14.4182 44.3486C16.2605 46.1026 17.5634 47.5518 19.162 48.2224C21.463 49.187 24.014 49.0696 26.152 47.8688C26.6732 47.5752 27.333 47.0571 28.1315 46.3145C29.2876 45.2376 30.4397 44.1571 31.5877 43.0731C31.6229 43.0399 31.67 43.0218 31.7187 43.0229Z" fill="white"/>
<path d="M45.83 48.2529C45.3952 47.7388 44.8954 47.2999 44.3305 46.9362C42.7518 45.9183 40.1475 46.0767 40.2069 48.5515C40.245 50.1531 41.2447 51.6968 42.7731 52.247C43.1744 52.3912 43.8622 52.4669 44.8365 52.474C47.4301 52.4938 50.0268 51.7517 49.5346 55.6788C49.5275 55.7316 49.4975 55.759 49.4447 55.7611C47.7156 55.8261 45.9901 55.8367 44.2681 55.7931C43.2979 55.7687 42.5278 55.6691 41.9579 55.4944C39.5669 54.7599 37.6727 52.7834 37.0403 50.3634C36.892 49.7976 36.8163 48.9564 36.8133 47.8399C36.8092 46.317 36.8097 44.7992 36.8148 43.2865C36.8148 43.2212 36.8407 43.1584 36.8869 43.1119C36.9331 43.0654 36.9959 43.0389 37.0616 43.0381C38.7714 43.0219 40.4411 43.0153 42.0706 43.0183C45.3698 43.0229 48.9906 45.4824 49.5148 48.9142C49.6855 50.0251 49.4203 51.1086 48.0884 51.104C47.102 51.102 46.116 51.1015 45.1306 51.1025C44.2671 51.1035 43.6595 51.0334 43.308 50.8922C42.38 50.5189 41.6638 49.6 41.7567 48.547C41.7608 48.4998 41.7823 48.4558 41.8169 48.4234C41.8515 48.3911 41.8968 48.3727 41.9442 48.3717L45.798 48.3245C45.859 48.3235 45.8697 48.2996 45.83 48.2529Z" fill="white"/>
<path d="M61.0965 51.8263C61.0894 51.8293 61.0832 51.8341 61.0785 51.8402C61.0738 51.8463 61.0707 51.8534 61.0695 51.861C61.0682 51.8686 61.069 51.8764 61.0716 51.8837C61.0742 51.8909 61.0785 51.8974 61.0843 51.9025C62.149 52.8524 63.3061 53.6687 64.5557 54.3514C64.6055 54.3788 64.6293 54.4205 64.6273 54.4763L64.5984 55.6513C64.5972 55.6894 64.581 55.7255 64.5533 55.7518C64.5256 55.778 64.4887 55.7923 64.4505 55.7915C63.4956 55.7782 62.6133 55.7859 61.8036 55.8143C61.0112 55.8433 60.5372 55.5933 59.8759 55.0767C58.6588 54.1258 57.4443 53.1724 56.2323 52.2164C55.2829 51.4667 55.4886 50.4121 55.5343 49.3515C55.5359 49.3142 55.5466 49.2779 55.5654 49.2456C55.5842 49.2133 55.6105 49.1861 55.6422 49.1663C55.6738 49.1465 55.7098 49.1347 55.7471 49.132C55.7843 49.1292 55.8216 49.1355 55.8559 49.1503C56.6259 49.4866 57.4504 49.6416 58.3291 49.6151C59.0987 49.5908 60.0374 48.8593 59.6945 47.9876C59.1033 46.4805 57.1603 46.0416 55.7004 46.1818C54.7937 46.2687 54.1887 46.7167 54.1827 47.6569C54.1694 49.5191 54.1562 51.3783 54.143 53.2344C54.1293 55.1027 52.5887 56.0063 50.8347 55.7381C50.8033 55.7334 50.7747 55.7175 50.754 55.6935C50.7333 55.6695 50.7219 55.6388 50.7219 55.6071L50.7158 43.2163C50.7156 43.1919 50.7202 43.1677 50.7294 43.1451C50.7386 43.1224 50.7521 43.1018 50.7692 43.0844C50.7863 43.067 50.8067 43.0532 50.8292 43.0436C50.8517 43.0341 50.8758 43.0291 50.9002 43.0289C52.671 43.0167 54.4219 43.0294 56.153 43.067C58.5567 43.1198 60.5748 43.9727 62.2074 45.6256C64.2235 47.6661 63.8501 50.6544 61.0965 51.8263Z" fill="white"/>
<path d="M64.6377 43.1555C64.6387 43.0824 64.6758 43.0519 64.7489 43.0641C64.8663 43.0839 64.9531 43.0291 65.0552 43.0291C66.639 43.024 68.2223 43.0219 69.8052 43.023C71.8085 43.024 73.5326 43.6914 74.9772 45.0253C75.2225 45.2509 75.314 45.4551 75.0427 45.7004C74.229 46.4334 73.3192 47.8811 72.2129 47.171C71.6414 46.8037 71.1873 46.4944 70.5397 46.3923C69.0295 46.1515 68.0009 47.2243 68.1411 48.6872C68.3011 50.333 69.543 51.8508 71.0121 52.4817C71.8959 52.8617 72.6589 52.7515 73.3009 52.151C73.9547 51.5415 73.755 50.5464 74.9589 50.4839C75.7442 50.4433 76.4818 50.4412 77.1716 50.4778C77.2071 50.4797 77.2419 50.4888 77.2739 50.5045C77.3058 50.5203 77.3342 50.5424 77.3573 50.5695C77.3804 50.5966 77.3977 50.6281 77.4082 50.6621C77.4187 50.6962 77.4222 50.732 77.4184 50.7674C77.1695 53.0694 76.1313 54.6416 74.3036 55.4838C70.4437 57.2652 65.8659 54.1656 64.8693 50.3483C64.7078 49.7306 64.624 48.7223 64.6179 47.3234C64.6128 45.9681 64.6194 44.5789 64.6377 43.1555Z" fill="white"/>
<path d="M82.1044 49.3713C83.8406 47.6432 85.5727 45.9136 87.3008 44.1824C88.1379 43.3433 89.0898 42.9669 90.1565 43.0532C91.8481 43.1888 91.3665 45.0571 90.5954 45.8556C90.0082 46.4622 89.0685 47.408 87.7763 48.6931C85.4325 51.0247 89.7055 51.5398 90.6518 52.5669C91.4549 53.4416 91.2949 54.4336 91.2888 55.5278C91.2885 55.5918 91.2638 55.6533 91.2197 55.7C91.1756 55.7467 91.1153 55.775 91.0511 55.7792C90.0316 55.8463 89.3428 55.6497 88.1481 55.1331C87.0397 54.6536 85.9252 54.1878 84.8047 53.7357C84.5405 53.629 84.1956 53.5711 83.77 53.5619C82.5128 53.536 82.1044 54.5266 81.2678 55.1575C80.514 55.7274 79.6718 55.9219 78.7412 55.7411C78.5989 55.7137 78.5278 55.6278 78.5278 55.4836L78.5309 43.2163C78.5309 43.1553 78.5639 43.1193 78.6299 43.1081C80.6369 42.7652 82.0282 43.1599 82.0297 45.4351C82.0297 46.7365 82.0312 48.0389 82.0343 49.3423C82.0343 49.4073 82.0576 49.417 82.1044 49.3713Z" fill="white"/>
</svg>
