<svg width="100" height="100" viewBox="0 0 100 100" fill="none" xmlns="http://www.w3.org/2000/svg">
<rect width="100" height="100" fill="#9AD2FF"/>
<path d="M85.2677 60.47C84.781 59.84 84.2235 59.3025 83.5952 58.8575C77.2052 54.33 69.6152 51.805 61.9252 50.665C61.913 50.6632 61.9006 50.664 61.8888 50.6675C61.877 50.671 61.8661 50.6769 61.8568 50.685C61.8476 50.6931 61.8401 50.7031 61.8351 50.7143C61.8301 50.7255 61.8276 50.7377 61.8277 50.75V60.2375C61.8277 60.2705 61.8211 60.3033 61.8084 60.3338C61.7957 60.3643 61.7771 60.3919 61.7536 60.4152C61.7301 60.4384 61.7022 60.4568 61.6716 60.4692C61.641 60.4816 61.6082 60.4878 61.5752 60.4875L55.1452 60.44C55.0009 60.44 54.862 60.3835 54.7577 60.2825C51.4352 57.02 48.5377 53.24 45.3252 49.775C45.2913 49.7391 45.2475 49.7142 45.1993 49.7034C45.1511 49.6926 45.1008 49.6964 45.0549 49.7144C45.0089 49.7324 44.9694 49.7638 44.9414 49.8044C44.9134 49.8451 44.8981 49.8931 44.8977 49.9425L44.8852 60.1275C44.8852 60.1766 44.8755 60.2253 44.8568 60.2706C44.838 60.316 44.8105 60.3572 44.7759 60.3918C44.7413 60.4264 44.7002 60.4538 44.655 60.4724C44.6099 60.4909 44.5615 60.5003 44.5127 60.5L38.1877 60.4625C38.1105 60.4618 38.0368 60.4307 37.9825 60.376C37.9281 60.3212 37.8977 60.2472 37.8977 60.17L37.8877 49.86C37.8877 49.79 37.8527 49.7583 37.7827 49.765C30.5727 50.36 24.7927 51.575 18.6852 53.7325C15.3118 54.9258 12.1677 56.6708 9.25266 58.9675L7.07516 60.3475C7.0662 60.3555 7.05446 60.3595 7.0425 60.3588C7.03055 60.3581 7.01936 60.3527 7.01141 60.3438C7.00345 60.3348 6.99937 60.3231 7.00008 60.3111C7.00078 60.2992 7.00621 60.288 7.01516 60.28C14.1877 51.9325 27.4077 48.7175 37.8377 47.745C37.9143 47.7367 37.9527 47.6942 37.9527 47.6175V39.125C37.9527 39.0918 37.9658 39.0601 37.9893 39.0366C38.0127 39.0132 38.0445 39 38.0777 39H44.6477C44.7287 39 44.8088 39.0185 44.8819 39.054C44.9551 39.0894 45.0194 39.1411 45.0702 39.205L54.6277 51.415C54.6437 51.4346 54.6653 51.4488 54.6897 51.4556C54.7141 51.4625 54.74 51.4616 54.7638 51.4531C54.7876 51.4446 54.8083 51.4289 54.8228 51.4082C54.8374 51.3875 54.8452 51.3628 54.8452 51.3375L54.7827 39.165C54.781 39.075 54.8243 39.03 54.9127 39.03L61.6577 39.0175C61.7844 39.0175 61.8469 39.08 61.8452 39.205L61.7727 47.635C61.7725 47.67 61.7854 47.7038 61.8089 47.7301C61.8324 47.7563 61.8649 47.7732 61.9002 47.7775C72.7052 49.0575 84.2652 52.515 92.2277 60.3525C92.311 60.4342 92.2944 60.475 92.1777 60.475L85.2677 60.47Z" fill="#1F5180"/>
<path d="M85.2675 60.4702H82.4175C82.3426 60.4685 82.2702 60.4441 82.21 60.4002C76.5975 56.2627 69.805 53.9202 62.785 52.3177C62.645 52.286 62.575 52.3427 62.575 52.4877L62.58 61.0052C62.58 61.2102 62.4766 61.3127 62.27 61.3127C59.8016 61.3093 57.4033 61.316 55.075 61.3327C54.495 61.336 54.0466 61.1518 53.73 60.7802C51.1466 57.7335 48.5233 54.6985 45.86 51.6752C45.7183 51.5152 45.6483 51.5418 45.65 51.7552L45.7225 61.1777C45.7225 61.2677 45.6775 61.3127 45.5875 61.3127H37.2975C37.1941 61.3127 37.1416 61.261 37.14 61.1577L37.0575 51.4977C37.0571 51.4784 37.053 51.4594 37.0454 51.4418C37.0378 51.4241 37.0268 51.4082 37.013 51.395C36.9993 51.3817 36.9831 51.3713 36.9654 51.3645C36.9477 51.3577 36.9289 51.3545 36.91 51.3552C28.355 51.6502 20.6024 53.7277 12.8824 57.3252C11.6974 57.8768 10.4874 58.4243 9.25244 58.9677C12.1674 56.671 15.3116 54.926 18.6849 53.7327C24.7924 51.5752 30.5725 50.3602 37.7825 49.7652C37.8525 49.7585 37.8875 49.7902 37.8875 49.8602L37.8975 60.1702C37.8975 60.2473 37.9279 60.3213 37.9822 60.3761C38.0366 60.4309 38.1103 60.462 38.1875 60.4627L44.5125 60.5002C44.5613 60.5005 44.6096 60.4911 44.6548 60.4725C44.7 60.4539 44.7411 60.4266 44.7757 60.3919C44.8103 60.3573 44.8378 60.3161 44.8566 60.2708C44.8753 60.2254 44.885 60.1768 44.885 60.1277L44.8975 49.9427C44.8979 49.8933 44.9131 49.8452 44.9412 49.8046C44.9692 49.7639 45.0087 49.7326 45.0547 49.7146C45.1006 49.6966 45.1509 49.6927 45.1991 49.7035C45.2472 49.7143 45.2911 49.7392 45.325 49.7752C48.5375 53.2402 51.435 57.0202 54.7575 60.2827C54.8617 60.3836 55.0007 60.4401 55.145 60.4402L61.575 60.4877C61.608 60.488 61.6408 60.4818 61.6714 60.4693C61.702 60.4569 61.7299 60.4386 61.7534 60.4153C61.7768 60.3921 61.7955 60.3644 61.8082 60.3339C61.8209 60.3034 61.8275 60.2707 61.8275 60.2377V50.7502C61.8273 50.7379 61.8299 50.7257 61.8349 50.7145C61.8399 50.7032 61.8473 50.6932 61.8566 50.6852C61.8659 50.6771 61.8768 50.6711 61.8886 50.6676C61.9004 50.6642 61.9128 50.6633 61.925 50.6652C69.615 51.8052 77.205 54.3302 83.595 58.8577C84.2233 59.3027 84.7808 59.8402 85.2675 60.4702Z" fill="#EC2027"/>
</svg>
