<svg width="100" height="100" viewBox="0 0 100 100" fill="none" xmlns="http://www.w3.org/2000/svg">
<rect width="100" height="100" fill="#204282"/>
<mask id="mask0_81_493" style="mask-type:alpha" maskUnits="userSpaceOnUse" x="10" y="30" width="81" height="41">
<path d="M45.25 65.3125C42.6788 68.2648 41.2154 69.7817 38.25 70.25H16.5C12.9101 70.25 10 67.3399 10 63.75V36.75C10 33.0221 13.0221 30 16.75 30H37.4237C39.3134 30 41.1257 30.7507 42.4619 32.0869L50.4375 40.0625L58.4131 32.0869C59.7493 30.7507 61.5616 30 63.4513 30H84.125C87.8529 30 90.875 33.0221 90.875 36.75V63.75C90.875 67.3399 87.9649 70.25 84.375 70.25H62.625C59.6596 69.7817 58.1962 68.2648 55.625 65.3125L65.625 55.0625L70.6875 60.125V39.875L50.4375 60.125L30.1875 39.875V60.125L35.25 55.0625L45.25 65.3125Z" fill="url(#paint0_linear_81_493)"/>
</mask>
<g mask="url(#mask0_81_493)">
<path d="M45.25 65.3125C42.6788 68.2648 41.2154 69.7817 38.25 70.25H16.5C12.9101 70.25 10 67.3399 10 63.75V36.75C10 33.0221 13.0221 30 16.75 30H37.4237C39.3134 30 41.1257 30.7507 42.4619 32.0869L50.4375 40.0625L58.4131 32.0869C59.7493 30.7507 61.5616 30 63.4513 30H84.125C87.8529 30 90.875 33.0221 90.875 36.75V63.75C90.875 67.3399 87.9649 70.25 84.375 70.25H62.625C59.6596 69.7817 58.1962 68.2648 55.625 65.3125L65.625 55.0625L70.6875 60.125V39.875L50.4375 60.125L30.1875 39.875V60.125L35.25 55.0625L45.25 65.3125Z" fill="url(#paint1_linear_81_493)"/>
<rect x="8.625" y="58.375" width="24.875" height="14" fill="url(#paint2_linear_81_493)"/>
<path d="M45.75 65.1843L35.2083 54.625C27.771 62.3987 20.2689 70.3668 14.125 72.375H38.5713L45.75 65.1843Z" fill="#FEDC01"/>
<rect width="24.875" height="14" transform="matrix(-1 0 0 1 92.25 58.375)" fill="url(#paint3_linear_81_493)"/>
<path d="M55.125 65.1843L65.6667 54.625C73.104 62.3987 80.6061 70.3668 86.75 72.375H62.3037L55.125 65.1843Z" fill="#FEDC01"/>
<path fill-rule="evenodd" clip-rule="evenodd" d="M50.3438 60.3443C50.3542 60.3545 50.3646 60.3647 50.375 60.375V60.3135C57.2335 53.5651 62.5072 48.2449 66.6407 44.0751C78.782 31.827 81.0853 29.5034 84.8125 30.0625L50.375 22.7632V22.75L50.3438 22.7566L50.3125 22.75V22.7632L15.875 30.0625C19.6022 29.5034 21.9055 31.827 34.0468 44.0751C38.1803 48.2449 43.454 53.5651 50.3125 60.3135V60.375C50.3229 60.3647 50.3333 60.3545 50.3438 60.3443Z" fill="#EC3025"/>
</g>
<defs>
<linearGradient id="paint0_linear_81_493" x1="50.4375" y1="30" x2="50.4375" y2="70.25" gradientUnits="userSpaceOnUse">
<stop stop-color="#A02C2C"/>
<stop offset="1" stop-color="#EC3025"/>
</linearGradient>
<linearGradient id="paint1_linear_81_493" x1="50.4375" y1="30" x2="50.4375" y2="70.25" gradientUnits="userSpaceOnUse">
<stop stop-color="#A02C2C"/>
<stop offset="1" stop-color="#EC3025"/>
</linearGradient>
<linearGradient id="paint2_linear_81_493" x1="21.0625" y1="58.375" x2="21.0625" y2="72.375" gradientUnits="userSpaceOnUse">
<stop stop-color="#FEDC01" stop-opacity="0.76"/>
<stop offset="1" stop-color="#FEDC01"/>
</linearGradient>
<linearGradient id="paint3_linear_81_493" x1="12.4375" y1="0" x2="12.4375" y2="14" gradientUnits="userSpaceOnUse">
<stop stop-color="#FEDC01" stop-opacity="0.76"/>
<stop offset="1" stop-color="#FEDC01"/>
</linearGradient>
</defs>
</svg>
