<svg width="100" height="100" viewBox="0 0 100 100" fill="none" xmlns="http://www.w3.org/2000/svg">
<rect width="100" height="100" fill="#030303"/>
<path d="M40.2074 36.0321L40.0612 42.4784C40.0587 42.6006 40.0195 42.7194 39.9487 42.8196L30.3449 56.2671C30.3252 56.2943 30.2978 56.3151 30.2663 56.3266C30.2347 56.3382 30.2004 56.3401 30.1678 56.332C30.1351 56.3239 30.1056 56.3063 30.0831 56.2814C30.0605 56.2565 30.0459 56.2254 30.0412 56.1921C29.9212 55.3071 29.8649 54.4484 29.8724 53.6159C29.9049 49.1184 29.9324 44.6284 29.9549 40.1459L29.8574 29.5746C29.8575 29.5038 29.8798 29.4344 29.9212 29.3759L39.8699 15.4372C39.8768 15.4272 39.8866 15.4196 39.8979 15.4153C39.9092 15.411 39.9215 15.4102 39.9333 15.4131C39.945 15.4159 39.9557 15.4222 39.9638 15.4312C39.9719 15.4402 39.9771 15.4514 39.9787 15.4634C40.0762 16.1796 40.1924 16.8997 40.1887 17.6271C40.1487 23.6746 40.1549 29.8096 40.2074 36.0321Z" fill="white"/>
<path d="M56.2685 34.4761L56.2273 42.366C56.2273 42.501 56.1873 42.6235 56.1073 42.7335L46.4248 56.1923C46.3948 56.2345 46.3521 56.2661 46.3029 56.2825C46.2537 56.2988 46.2006 56.2991 46.1513 56.2832C46.102 56.2673 46.059 56.2361 46.0286 56.1941C45.9982 56.1522 45.982 56.1016 45.9823 56.0498L45.986 34.2923L45.9785 29.5411C45.9785 29.4385 46.0113 29.3376 46.0723 29.2523L55.5373 15.9436C55.9823 15.3211 56.206 15.3923 56.2085 16.1573L56.2685 34.4761Z" fill="white"/>
<path d="M72.8174 37.2619L72.8699 41.6569C72.8772 42.1441 72.7287 42.6199 72.4462 43.0144L62.6812 56.6532C62.6187 56.7382 62.5874 56.7294 62.5874 56.6269L62.5762 34.8207L62.7149 29.2032C62.7199 29.0782 62.7587 28.9645 62.8312 28.862L72.2099 15.9545C72.6674 15.3245 72.8949 15.3982 72.8924 16.1757L72.8174 37.2619Z" fill="white"/>
<path d="M45.9858 34.2922L45.982 56.0497C45.9817 56.1015 45.9979 56.1521 46.0283 56.1941C46.0587 56.236 46.1017 56.2672 46.151 56.2831C46.2004 56.299 46.2535 56.2987 46.3027 56.2824C46.3518 56.2661 46.3945 56.2345 46.4245 56.1922L56.107 42.7335C56.187 42.6235 56.227 42.501 56.227 42.366L56.2683 34.476C58.3533 34.376 60.4558 34.491 62.5758 34.821L62.587 56.6272C62.587 56.7297 62.6183 56.7385 62.6808 56.6535L72.4458 43.0147C72.7283 42.6202 72.8768 42.1444 72.8695 41.6572L72.817 37.2622C74.957 37.7197 77.2658 38.5197 79.7432 39.6622C83.2757 41.2897 87.8245 44.4172 88.9645 48.2647C91.4132 56.5072 78.9258 62.0047 72.9033 63.6059L62.542 65.8334L56.2158 66.3959L46.0083 66.5909C44.7483 66.5122 41.7295 66.6509 40.672 66.0022C40.5695 65.9397 40.4795 65.9122 40.402 65.9197C40.262 65.9322 40.182 66.0022 40.162 66.1297C36.732 65.7147 33.327 65.1009 29.947 64.2884C23.467 62.6122 14.8683 59.8447 11.6133 53.3347C9.58079 49.266 12.517 44.8222 15.8583 42.441C19.8108 39.631 24.1758 37.6947 28.9533 36.6322C29.2308 36.5697 29.392 36.6797 29.437 36.9622L29.9545 40.146C29.932 44.6285 29.9045 49.1185 29.872 53.616C29.8645 54.4485 29.9208 55.3072 30.0408 56.1922C30.0455 56.2255 30.0601 56.2566 30.0827 56.2815C30.1052 56.3064 30.1347 56.324 30.1674 56.3321C30.2 56.3402 30.2343 56.3383 30.2659 56.3267C30.2974 56.3152 30.3248 56.2944 30.3445 56.2672L39.9483 42.8197C40.0191 42.7196 40.0583 42.6007 40.0608 42.4785L40.207 36.0322C40.572 35.7047 40.817 35.2235 40.942 34.5885C40.9549 34.5209 40.9906 34.4598 41.0432 34.4154C41.0958 34.3711 41.162 34.3461 41.2308 34.3447L45.9858 34.2922Z" fill="#E5332D"/>
<path d="M72.9039 63.606L72.8814 70.641C72.8789 70.7685 72.8414 70.8835 72.7689 70.986L62.7114 84.9022C62.6993 84.9187 62.6824 84.931 62.6629 84.9374C62.6435 84.9437 62.6225 84.9438 62.603 84.9376C62.5835 84.9314 62.5665 84.9192 62.5543 84.9027C62.5421 84.8863 62.5354 84.8664 62.5352 84.8459L62.6252 65.9572C62.6277 65.9397 62.6214 65.9235 62.6064 65.9085C62.5864 65.8835 62.5652 65.8585 62.5427 65.8335L72.9039 63.606Z" fill="white"/>
<path d="M29.9478 64.2886C33.3278 65.1011 36.7328 65.7148 40.1628 66.1298V70.2923C40.1627 70.6996 40.0341 71.0971 39.7953 71.4286L30.2628 84.6923C30.2339 84.7317 30.1934 84.7609 30.147 84.776C30.1006 84.7911 30.0506 84.7911 30.0041 84.7762C29.9576 84.7612 29.9171 84.7321 29.8881 84.6928C29.8591 84.6535 29.8433 84.6061 29.8428 84.5573L29.9478 64.2886Z" fill="white"/>
<path d="M56.2163 66.3958L56.2725 70.7008C56.2749 70.8102 56.242 70.9169 56.1788 71.0045L46.3125 84.7407C46.2915 84.7688 46.2622 84.7897 46.2287 84.8003C46.1953 84.811 46.1594 84.8109 46.1259 84.8002C46.0925 84.7895 46.0632 84.7686 46.0423 84.7405C46.0213 84.7123 46.0096 84.6783 46.0088 84.6432V66.5908L56.2163 66.3958Z" fill="white"/>
</svg>
