<svg width="100" height="100" viewBox="0 0 100 100" fill="none" xmlns="http://www.w3.org/2000/svg">
<rect width="100" height="100" fill="#D3D3D3"/>
<path d="M28.7863 24H28.885C29.6788 24.1975 30.2 25.3125 30.49 25.9112C36.6883 38.6862 42.88 51.4567 49.065 64.2225C49.0715 64.2356 49.0815 64.2467 49.0939 64.2544C49.1063 64.2622 49.1206 64.2663 49.1351 64.2663C49.1496 64.2663 49.1638 64.2622 49.1759 64.2544C49.1881 64.2467 49.1977 64.2356 49.2038 64.2225C55.2629 51.4892 61.3162 38.7658 67.3638 26.0525C67.6587 25.4313 68.1562 24.15 69.0375 24H69.1325C69.8825 24.13 70.105 25.0525 70.2 25.69C72.2533 39.4767 74.2929 53.265 76.3187 67.055C76.5787 68.8325 76.8212 70.6375 77.42 72.3387C77.835 73.5163 78.49 74.4575 79.73 74.8575C81.3208 75.3692 82.9525 75.6121 84.625 75.5863C84.82 75.5825 85.0875 75.815 85.085 76.045C85.0788 76.7437 83.7125 76.7913 83.1975 76.7863C78.7158 76.7371 74.2363 76.5996 69.7588 76.3737C69.2138 76.3462 68.0525 76.2925 67.7163 75.9362C67.2788 75.4675 67.9688 75.045 68.3075 74.8875C68.9712 74.58 68.7913 72.9012 68.7075 72.2887C67.35 62.2962 65.9867 52.2887 64.6175 42.2663C64.6119 42.2252 64.5946 42.1866 64.5678 42.1551C64.541 42.1237 64.5057 42.1006 64.4663 42.0888C64.4263 42.0763 64.3821 42.0942 64.3338 42.1425C64.3079 42.1683 64.2829 42.2063 64.2588 42.2563C59.3746 52.4346 54.4883 62.6121 49.6 72.7887C49.1267 73.7738 48.6313 74.7471 48.1138 75.7088C47.6525 76.5662 47.1 77.1888 46.2875 76.18C46.02 75.8483 45.6196 75.175 45.0863 74.16C42.2863 68.8337 39.4613 63.4788 36.9125 58.0288C34.555 52.9846 32.1867 47.9425 29.8075 42.9025C29.7932 42.8723 29.7694 42.8475 29.7398 42.8318C29.7102 42.8162 29.6764 42.8106 29.6433 42.8158C29.6103 42.821 29.5798 42.8367 29.5564 42.8607C29.5331 42.8847 29.5181 42.9156 29.5138 42.9487C28.3546 51.7437 27.2 60.5612 26.05 69.4012C25.8913 70.6237 25.7337 72.0687 25.785 73.065C25.8975 75.2562 28.5238 75.5013 30.2513 75.5325C30.7438 75.5408 31.0863 75.5729 31.2787 75.6287C31.8112 75.7837 31.8225 76.2925 31.385 76.555C31.1408 76.7025 30.8663 76.7767 30.5612 76.7775C28.5787 76.7833 26.5971 76.7362 24.6163 76.6362C21.7113 76.4888 18.7863 76.7738 15.8775 76.7825C15.3808 76.7842 15.0883 76.5638 15 76.1213V75.9925C15.1338 75.4963 16.1087 75.5412 16.5625 75.5687C17.24 75.61 18.455 75.3575 19.0375 74.9075C20.4637 73.805 20.7425 71.1275 21.02 69.2975C23.2133 54.855 25.4008 40.4117 27.5825 25.9675C27.6913 25.2525 27.9225 24.1175 28.7863 24Z" fill="black"/>
</svg>
