<svg width="100" height="100" viewBox="0 0 100 100" fill="none" xmlns="http://www.w3.org/2000/svg">
<rect width="100" height="100" fill="#EE2639"/>
<path d="M22.4815 59.8725L14.3927 59.85C14.3291 59.85 14.268 59.8247 14.223 59.7797C14.178 59.7346 14.1527 59.6736 14.1527 59.61L14.149 57.51C14.1465 57.3825 14.2102 57.3187 14.3402 57.3187L23.8052 57.345C23.8886 57.3451 23.9706 57.3221 24.042 57.2784C24.1135 57.2347 24.1717 57.1721 24.2102 57.0975C26.2277 53.1562 27.0527 48.2062 28.3315 43.8975C28.3426 43.8617 28.345 43.8238 28.3386 43.7868C28.3322 43.7498 28.317 43.7148 28.2944 43.6845C28.2719 43.6543 28.2424 43.6296 28.2085 43.6126C28.1745 43.5955 28.137 43.5865 28.099 43.5862L14.3627 43.5975C14.2202 43.5975 14.149 43.5262 14.149 43.3837V41.1075C14.149 40.9825 14.2115 40.92 14.3365 40.92H28.879C29.0365 40.92 29.1327 40.8425 29.1677 40.6875C30.139 36.3975 31.1364 32.625 31.4552 27.9412C31.5939 25.875 31.0727 23.7712 31.3014 21.5587C31.31 21.4832 31.3464 21.4138 31.4035 21.3643C31.4606 21.3149 31.534 21.2892 31.6089 21.2925L36.5477 21.4537C36.6556 21.4561 36.7593 21.5019 36.8364 21.5812L39.8627 24.7087C39.9988 24.8496 40.1002 25.0206 40.1588 25.2081C40.2174 25.3955 40.2316 25.5943 40.2002 25.7887C39.4014 30.6525 37.5077 35.46 36.1914 40.2225C36.1489 40.375 36.2077 40.4512 36.3677 40.4512H47.7189C47.8864 40.4512 47.9939 40.3712 48.0414 40.2112C49.8264 34.125 51.2964 27.8362 51.6714 21.4762C51.7089 20.8237 51.6526 19.9787 51.5026 18.9412C51.2926 17.4762 51.3026 15.9837 51.5326 14.4637C51.5487 14.3598 51.599 14.2641 51.6756 14.1915C51.7523 14.1189 51.851 14.0735 51.9564 14.0625C55.0914 13.7287 60.1201 13.2375 61.7589 16.7962C62.0626 17.4637 62.5314 17.7825 63.0001 18.2962C63.0833 18.3869 63.1899 18.4519 63.3076 18.4837C65.9851 19.2187 64.3426 22.95 63.7126 24.6112C62.8276 26.9512 62.0939 29.335 61.5114 31.7625C60.8139 34.6725 59.4601 37.2862 58.3539 39.9975C58.3379 40.0374 58.3318 40.0807 58.3361 40.1235C58.3405 40.1662 58.3552 40.2072 58.3789 40.2428C58.4026 40.2784 58.4346 40.3074 58.4721 40.3274C58.5096 40.3474 58.5514 40.3577 58.5939 40.3575L85.1851 40.3987C85.3276 40.3987 85.3988 40.47 85.3988 40.6125V43.1812C85.3988 43.3387 85.3201 43.4175 85.1626 43.4175C75.7751 43.4725 66.3939 43.545 57.0189 43.635C56.8664 43.635 56.7476 43.665 56.6626 43.725C56.6317 43.7463 56.6064 43.7749 56.5889 43.8082C56.5715 43.8415 56.5623 43.8786 56.5623 43.9162C56.5623 43.9538 56.5715 43.9909 56.5889 44.0242C56.6064 44.0575 56.6317 44.0861 56.6626 44.1075C59.3401 45.9412 62.3326 47.6925 63.7764 50.7637C64.8064 52.9562 65.9776 55.0737 67.2901 57.1162C67.3476 57.2037 67.4289 57.2475 67.5339 57.2475L85.1626 57.1612C85.1929 57.1607 85.223 57.1664 85.2512 57.1778C85.2794 57.1893 85.3051 57.2063 85.3267 57.228C85.3484 57.2496 85.3655 57.2754 85.3773 57.3039C85.389 57.3323 85.3951 57.3629 85.3951 57.3937L85.3988 59.6737C85.4013 59.8012 85.3376 59.865 85.2076 59.865L70.1138 59.8537C70.0769 59.8539 70.0408 59.8643 70.0095 59.8839C69.9782 59.9034 69.9529 59.9313 69.9366 59.9644C69.9202 59.9975 69.9134 60.0345 69.9169 60.0712C69.9204 60.108 69.9341 60.143 69.9563 60.1725C72.9488 64.1362 75.2963 68.5087 77.8088 72.7837C78.7163 74.3262 80.3688 76.26 82.7663 78.585C82.8273 78.6411 82.9034 78.6765 82.9838 78.6862L85.2901 78.9412C85.3133 78.9437 85.3356 78.9515 85.3554 78.964C85.3752 78.9765 85.3919 78.9933 85.4042 79.0132C85.4164 79.0331 85.424 79.0555 85.4264 79.0788C85.4287 79.102 85.4257 79.1255 85.4176 79.1475C84.0226 82.8149 79.9538 84.9937 76.1588 86.1824C76.0388 86.22 75.9188 86.2225 75.7988 86.1899C74.3988 85.8424 72.9776 85.6912 71.5351 85.7362C71.3578 85.7419 71.1836 85.6887 71.0398 85.5848C70.896 85.481 70.7906 85.3325 70.7401 85.1625C68.1939 76.5187 65.5576 67.8375 60.9076 60.135C60.7501 59.8725 60.4801 59.765 60.0976 59.8125C57.6864 60.1162 54.9676 59.9962 52.5076 59.8462C52.3414 59.8355 52.176 59.8784 52.0357 59.9689C51.8953 60.0593 51.7874 60.1924 51.7276 60.3487C51.3526 61.3237 50.8564 62.3512 50.2389 63.4312C49.4327 64.845 51.9114 66.2024 52.9876 66.2475C53.0963 66.2525 53.2017 66.2858 53.2935 66.3443C53.3852 66.4027 53.46 66.4842 53.5104 66.5805C53.5609 66.6769 53.5852 66.7848 53.581 66.8934C53.5768 67.0021 53.5442 67.1078 53.4864 67.2C52.2526 69.1387 48.6902 72.3937 46.1027 71.2199C45.9369 71.1456 45.7492 71.1364 45.5769 71.194C45.4046 71.2517 45.2603 71.3721 45.1727 71.5312C43.9164 73.8262 41.0589 77.7637 38.5352 78.705C35.4977 79.8375 32.8427 82.0987 30.1802 83.91C28.8865 84.7912 26.0927 84.4537 24.589 84.2924C24.5272 84.2858 24.4688 84.2608 24.4214 84.2207C24.3739 84.1806 24.3396 84.1272 24.3227 84.0675C23.9477 82.755 26.644 82.2037 27.4427 81.375C33.2027 75.4387 37.3014 70.575 40.9689 63.6749C41.6664 62.3624 41.5839 61.1587 40.6239 60.1237C40.5364 60.0287 40.4277 59.9812 40.2977 59.9812L28.5827 59.8425C28.5368 59.8426 28.492 59.8553 28.4535 59.8792C28.415 59.9031 28.3844 59.9371 28.3652 59.9775C27.3152 62.2012 25.594 65.2237 23.3665 66.375C21.9565 67.105 20.6715 68.0062 19.5115 69.0787C18.0377 70.4362 16.6277 71.1412 14.7902 70.26C14.6647 70.1992 14.5587 70.1046 14.4839 69.9868C14.4092 69.8691 14.3688 69.7328 14.3672 69.5933C14.3657 69.4539 14.403 69.3168 14.4751 69.1974C14.5472 69.078 14.6511 68.981 14.7752 68.9175C18.019 67.275 20.6027 63.0862 22.6127 60.1237C22.7277 59.9562 22.684 59.8725 22.4815 59.8725ZM46.6689 43.5675L37.3314 43.5337C37.2907 43.5342 37.2509 43.5465 37.2169 43.5689C37.1828 43.5913 37.156 43.6229 37.1397 43.6599C37.1234 43.6969 37.1183 43.7376 37.1251 43.7772C37.1318 43.8167 37.1501 43.8533 37.1777 43.8825C38.0402 44.8125 38.9102 45.5437 39.4727 46.74C40.7077 49.385 42.2589 51.8237 44.1264 54.0562C44.1889 54.1312 44.2327 54.1225 44.2577 54.03L47.0664 44.0962C47.1664 43.7462 47.0339 43.57 46.6689 43.5675ZM30.769 57.33L39.4802 57.2587C39.5174 57.2588 39.554 57.2489 39.5862 57.2302C39.6184 57.2114 39.6451 57.1844 39.6634 57.152C39.6817 57.1195 39.6911 57.0828 39.6905 57.0455C39.6899 57.0083 39.6795 56.9718 39.6602 56.94C37.7352 53.755 35.6452 50.6812 33.3902 47.7187C33.2952 47.5962 33.2364 47.6112 33.2139 47.7637C32.6589 51.675 32.2314 54.0975 30.4915 56.835C30.279 57.1675 30.3715 57.3325 30.769 57.33ZM58.3201 57.225C58.3323 57.2244 58.3442 57.2216 58.3552 57.2166C58.3662 57.2115 58.376 57.2044 58.3841 57.1956C58.3921 57.1869 58.3982 57.1767 58.4021 57.1656C58.4059 57.1545 58.4074 57.1428 58.4064 57.1312C58.3764 56.6775 58.0089 56.4262 57.7651 56.13C56.6001 54.72 55.4851 53.3012 54.4201 51.8737C54.3961 51.8425 54.363 51.8192 54.3254 51.8072C54.2877 51.7951 54.2474 51.7948 54.21 51.8063C54.1726 51.8178 54.1399 51.8406 54.1164 51.8715C54.0929 51.9023 54.0798 51.9398 54.0789 51.9787C54.0214 53.7987 53.5626 55.5087 52.7026 57.1087C52.691 57.1311 52.6853 57.1562 52.6862 57.1814C52.6871 57.2066 52.6945 57.2312 52.7078 57.2527C52.721 57.2743 52.7395 57.292 52.7616 57.3042C52.7837 57.3164 52.8086 57.3227 52.8339 57.3225L58.3201 57.225Z" fill="white"/>
</svg>
