<svg width="100" height="100" viewBox="0 0 100 100" fill="none" xmlns="http://www.w3.org/2000/svg">
<rect width="100" height="100" fill="#E1FFF1"/>
<path d="M89.1691 43.8451H85.2053C85.1241 43.8451 85.0835 43.8051 85.0835 43.7251L85.076 39.6113C85.0747 39.5276 85.116 39.4857 85.1997 39.4857H94.5503C94.6691 39.4857 94.7285 39.5451 94.7285 39.6638L94.7041 48.3863C94.7041 48.4413 94.6822 48.4851 94.6385 48.5176C91.8278 50.5051 89.1972 51.7745 85.6947 51.8757C83.501 51.9395 81.3785 51.7557 79.4322 50.8613C72.8829 47.8538 72.536 36.767 77.6022 32.282C80.3491 29.852 84.6185 29.7657 88.1397 30.2063C90.9535 30.5588 92.8878 32.0407 93.9428 34.652C94.1091 35.0632 94.2772 35.4595 94.4472 35.8407C94.4531 35.8544 94.4558 35.8692 94.4552 35.8841C94.4545 35.899 94.4506 35.9136 94.4435 35.9267C94.4365 35.9399 94.4266 35.9513 94.4146 35.9601C94.4026 35.9689 94.3887 35.9748 94.3741 35.9776L88.5578 37.0501C88.4853 37.0626 88.4372 37.0345 88.4135 36.9657C87.7685 35.1545 86.261 34.4551 84.3897 34.6576C80.8535 35.042 80.2141 38.5332 80.3716 41.5088C80.4729 43.4532 80.7335 45.1445 82.1885 46.3463C84.2472 48.047 87.1966 47.2763 89.1803 45.9338C89.2353 45.8963 89.2628 45.8445 89.2628 45.7782V43.9388C89.2628 43.8763 89.2316 43.8451 89.1691 43.8451Z" fill="#ED1D26"/>
<path d="M34.0329 45.0806L19.0348 69.2587C19.0023 69.3112 18.9548 69.3381 18.8923 69.3394L6.10671 69.3487C5.99796 69.3487 5.97233 69.3025 6.02983 69.21C13.0098 57.965 19.9854 46.7169 26.9567 35.4656C27.8854 33.9656 28.6017 32.9919 29.1054 32.5444C31.6573 30.2719 36.4217 30.1819 39.0598 32.415C39.481 32.7712 39.9448 33.3544 40.451 34.1644C41.9985 36.6394 43.5367 39.12 45.0654 41.6062C45.1029 41.6662 45.1029 41.7262 45.0654 41.7862L38.7204 51.9956C38.7079 52.0152 38.6907 52.0313 38.6704 52.0425C38.6501 52.0537 38.6273 52.0596 38.6042 52.0596C38.5812 52.0596 38.5585 52.0537 38.5385 52.0425C38.5185 52.0313 38.5017 52.0152 38.4898 51.9956L34.1979 45.0806C34.1891 45.0667 34.177 45.0552 34.1625 45.0472C34.1481 45.0393 34.1319 45.0351 34.1154 45.0351C34.0989 45.0351 34.0827 45.0393 34.0683 45.0472C34.0539 45.0552 34.0417 45.0667 34.0329 45.0806Z" fill="#016939"/>
<path d="M57.8661 45.0619L42.8473 69.2644C42.8148 69.3181 42.7673 69.345 42.7048 69.345H29.8724C29.8622 69.3452 29.8522 69.3427 29.8434 69.3377C29.8345 69.3326 29.8272 69.3253 29.8222 69.3164C29.8172 69.3076 29.8147 69.2976 29.815 69.2874C29.8152 69.2773 29.8182 69.2674 29.8236 69.2588C36.6536 58.24 43.4848 47.2256 50.3173 36.2156C51.4736 34.3519 52.1542 33.305 52.3592 33.075C54.7986 30.3338 60.0936 29.9719 62.8817 32.4206C63.3404 32.8231 63.8836 33.5306 64.5111 34.5431C71.696 46.1206 78.871 57.69 86.036 69.2513C86.0416 69.2606 86.0447 69.2713 86.0449 69.2822C86.045 69.2931 86.0423 69.3038 86.037 69.3134C86.0317 69.3229 86.0239 69.3308 86.0145 69.3364C86.0051 69.3419 85.9944 69.3449 85.9835 69.345H73.2823C73.2159 69.345 73.1507 69.3282 73.0929 69.296C73.0351 69.2638 72.9867 69.2174 72.9523 69.1613L58.0048 45.0619C57.9973 45.0503 57.9871 45.0407 57.975 45.0341C57.9628 45.0275 57.9493 45.024 57.9354 45.024C57.9216 45.024 57.908 45.0275 57.8959 45.0341C57.8838 45.0407 57.8735 45.0503 57.8661 45.0619Z" fill="#016939"/>
<path d="M49.2203 69.3075L46.9534 65.6438C46.9456 65.6314 46.9414 65.6171 46.9414 65.6025C46.9414 65.5879 46.9456 65.5736 46.9534 65.5613L53.3753 55.2019C53.3821 55.1906 53.3918 55.1813 53.4033 55.1749C53.4148 55.1684 53.4277 55.165 53.4409 55.165C53.4541 55.165 53.467 55.1684 53.4785 55.1749C53.49 55.1813 53.4997 55.1906 53.5065 55.2019L62.2103 69.2288C62.2177 69.2404 62.2218 69.2539 62.2222 69.2677C62.2227 69.2816 62.2193 69.2952 62.2126 69.3073C62.2059 69.3194 62.196 69.3295 62.1841 69.3365C62.1721 69.3434 62.1585 69.347 62.1446 69.3469L49.2859 69.3431C49.2728 69.3433 49.26 69.34 49.2485 69.3338C49.237 69.3276 49.2273 69.3185 49.2203 69.3075Z" fill="#016939"/>
</svg>
