<svg width="100" height="100" viewBox="0 0 100 100" fill="none" xmlns="http://www.w3.org/2000/svg">
<rect width="100" height="100" fill="#ECF7FF"/>
<path d="M68.5997 54.8925C71.1699 56.8382 69.8247 58.9108 67.759 60.3898C65.4289 62.0541 63.7647 63.5022 60.7483 62.7884C59.9637 62.6031 58.9697 62.0701 57.7663 61.1893C49.2722 54.9806 40.7769 48.7718 32.2804 42.563C31.0794 41.6846 29.192 41.489 27.5037 41.6914C27.3642 41.7097 27.3516 41.6777 27.466 41.5953C29.7651 39.9585 32.3147 37.6971 34.7991 36.7843C37.5352 35.7778 40.2141 35.74 42.8358 36.6711C44.0482 37.1035 45.9607 38.2668 48.5733 40.161C57.8407 46.889 64.5162 51.7996 68.5997 54.8925Z" fill="#006CB7"/>
<path d="M90.9902 54.6348C93.8967 56.7692 92.6579 58.8075 90.3726 60.41C86.7351 62.9597 84.5973 64.2431 80.5035 61.2473C71.14 54.3843 61.661 47.4435 52.0664 40.4248C52.0519 40.4146 52.0401 40.401 52.0319 40.3852C52.0238 40.3693 52.0195 40.3516 52.0195 40.3336C52.0195 40.3156 52.0238 40.2976 52.0319 40.2813C52.0401 40.265 52.0519 40.2507 52.0664 40.2395C53.7685 38.9699 55.5597 37.4875 57.4711 36.7977C60.2712 35.7866 63.0061 35.7648 65.6758 36.7325C66.8586 37.1626 68.6293 38.2401 70.9879 39.965C77.661 44.8492 84.3285 49.7391 90.9902 54.6348Z" fill="#C5161D"/>
<path d="M31.8169 44.4877C33.5395 45.7093 35.7803 47.0991 37.3039 48.5095C37.3885 48.5895 37.384 48.6639 37.2902 48.7325C31.7059 52.8275 26.1206 56.9167 20.534 61.0002C19.5286 61.7346 18.6879 62.4071 17.5555 62.74C14.2681 63.6974 12.2091 61.8478 9.56344 59.7923C6.60546 57.4932 8.35211 55.6299 10.6238 53.9622C14.9201 50.8097 19.2175 47.6585 23.516 44.5083C26.4328 42.3705 28.9825 42.4803 31.8169 44.4877Z" fill="#009F4D"/>
</svg>
