<svg width="100" height="100" viewBox="0 0 100 100" fill="none" xmlns="http://www.w3.org/2000/svg">
<rect width="100" height="100" fill="#E9FEFF"/>
<mask id="mask0_81_499" style="mask-type:alpha" maskUnits="userSpaceOnUse" x="11" y="11" width="78" height="77">
<path fill-rule="evenodd" clip-rule="evenodd" d="M14.28 61.1959H35.9734C24.1609 46.2897 41.1297 27.6334 55.6609 34.7584V22.4771C56.0359 17.9771 60.8734 9.7084 70.8484 11.8834C77.5984 13.7584 79.1922 19.0084 79.2859 20.0397C81.8484 20.7897 87.1609 23.7897 87.9109 29.7897C88.8484 37.2897 83.8797 42.6334 77.9734 43.7584C76.9984 43.9834 68.8172 43.8522 64.8484 43.7584C66.1922 46.1022 67.8859 52.421 63.9109 58.946C60.0672 65.2555 54.3484 67.7585 48.1609 67.4772C47.6297 74.446 43.2484 88.2897 29.9734 87.9147C15.0012 87.4918 11.63 72.4911 11.5962 63.7789C11.5905 62.3161 12.8173 61.1959 14.28 61.1959ZM76.0984 26.0397V26.0405C79.2136 26.0906 81.7234 28.6314 81.7234 31.7585C81.7234 34.8856 79.2136 37.4264 76.0984 37.4765V37.4773H62.0359V23.4147H62.0478C62.2411 20.3794 64.7643 17.9772 67.8484 17.9772C70.9325 17.9772 73.4557 20.3794 73.649 23.4147H73.6609V25.1022C73.6609 25.62 74.0806 26.0397 74.5984 26.0397H76.0984ZM46.2859 61.1023C55.0046 62.0398 59.9734 55.946 59.7859 50.4148C59.7859 44.5122 55.0009 39.7273 49.0984 39.7273C43.1959 39.7273 38.4109 44.5122 38.4109 50.4148C38.4109 56.3173 42.6296 59.5085 46.2859 61.1023ZM18.2546 67.4773H41.6921C41.2234 72.071 39.0671 80.6246 31.0984 81.2585C22.8484 81.9148 19.8484 76.3835 18.2546 67.4773Z" fill="#2B96D4"/>
</mask>
<g mask="url(#mask0_81_499)">
<path fill-rule="evenodd" clip-rule="evenodd" d="M14.28 61.1959H35.9734C24.1609 46.2897 41.1297 27.6334 55.6609 34.7584V22.4771C56.0359 17.9771 60.8734 9.7084 70.8484 11.8834C77.5984 13.7584 79.1922 19.0084 79.2859 20.0397C81.8484 20.7897 87.1609 23.7897 87.9109 29.7897C88.8484 37.2897 83.8797 42.6334 77.9734 43.7584C76.9984 43.9834 68.8172 43.8522 64.8484 43.7584C66.1922 46.1022 67.8859 52.421 63.9109 58.946C60.0672 65.2555 54.3484 67.7585 48.1609 67.4772C47.6297 74.446 43.2484 88.2897 29.9734 87.9147C15.0012 87.4918 11.63 72.4911 11.5962 63.7789C11.5905 62.3161 12.8173 61.1959 14.28 61.1959ZM76.0984 26.0397V26.0405C79.2136 26.0906 81.7234 28.6314 81.7234 31.7585C81.7234 34.8856 79.2136 37.4264 76.0984 37.4765V37.4773H62.0359V23.4147H62.0478C62.2411 20.3794 64.7643 17.9772 67.8484 17.9772C70.9325 17.9772 73.4557 20.3794 73.649 23.4147H73.6609V25.1022C73.6609 25.62 74.0806 26.0397 74.5984 26.0397H76.0984ZM46.2859 61.1023C55.0046 62.0398 59.9734 55.946 59.7859 50.4148C59.7859 44.5122 55.0009 39.7273 49.0984 39.7273C43.1959 39.7273 38.4109 44.5122 38.4109 50.4148C38.4109 56.3173 42.6296 59.5085 46.2859 61.1023ZM18.2546 67.4773H41.6921C41.2234 72.071 39.0671 80.6246 31.0984 81.2585C22.8484 81.9148 19.8484 76.3835 18.2546 67.4773Z" fill="#2B96D4"/>
<rect x="55.4712" y="10.7756" width="33" height="33.75" rx="2.8125" fill="url(#paint0_linear_81_499)"/>
<rect x="8.59619" y="61.0259" width="39.75" height="33.5625" rx="2.8125" fill="url(#paint1_linear_81_499)"/>
</g>
<defs>
<linearGradient id="paint0_linear_81_499" x1="83.5024" y1="16.5881" x2="54.4399" y2="35.0569" gradientUnits="userSpaceOnUse">
<stop offset="0.69678" stop-color="#D9176E"/>
<stop offset="0.923003" stop-color="#D9176E" stop-opacity="0.39608"/>
<stop offset="1" stop-color="#D9176E" stop-opacity="0"/>
</linearGradient>
<linearGradient id="paint1_linear_81_499" x1="48.3462" y1="65.9009" x2="23.7837" y2="87.2759" gradientUnits="userSpaceOnUse">
<stop stop-color="#E35C26" stop-opacity="0"/>
<stop offset="0.109186" stop-color="#E35C26" stop-opacity="0.311422"/>
<stop offset="0.350604" stop-color="#E35C26"/>
</linearGradient>
</defs>
</svg>
