<svg width="100" height="100" viewBox="0 0 100 100" fill="none" xmlns="http://www.w3.org/2000/svg">
<rect width="100" height="100" fill="#595C62"/>
<path d="M14.9795 58V40.8203H20.1709L23.2881 52.5391L26.3702 40.8203H31.5733V58H28.3506V44.4766L24.9405 58H21.6006L18.2022 44.4766V58H14.9795ZM35.4255 58V40.8203H38.8942V48.4492L45.902 40.8203H50.5661L44.0973 47.5117L50.9177 58H46.4294L41.7067 49.9375L38.8942 52.8086V58H35.4255ZM53.0706 40.8203H59.4105C60.8402 40.8203 61.93 40.9297 62.68 41.1484C63.6878 41.4453 64.5511 41.9727 65.2698 42.7305C65.9886 43.4883 66.5355 44.418 66.9105 45.5195C67.2855 46.6133 67.473 47.9648 67.473 49.5742C67.473 50.9883 67.2972 52.207 66.9456 53.2305C66.5159 54.4805 65.9027 55.4922 65.1058 56.2656C64.5042 56.8516 63.6917 57.3086 62.6683 57.6367C61.9027 57.8789 60.8792 58 59.598 58H53.0706V40.8203ZM56.5394 43.7266V55.1055H59.1292C60.098 55.1055 60.7972 55.0508 61.2269 54.9414C61.7894 54.8008 62.2542 54.5625 62.6214 54.2266C62.9964 53.8906 63.3011 53.3398 63.5355 52.5742C63.7698 51.8008 63.887 50.75 63.887 49.4219C63.887 48.0938 63.7698 47.0742 63.5355 46.3633C63.3011 45.6523 62.973 45.0977 62.5511 44.6992C62.1292 44.3008 61.5941 44.0312 60.9456 43.8906C60.4613 43.7812 59.512 43.7266 58.098 43.7266H56.5394ZM70.083 49.5156C70.083 47.7656 70.3447 46.2969 70.8681 45.1094C71.2588 44.2344 71.79 43.4492 72.4619 42.7539C73.1416 42.0586 73.8838 41.543 74.6884 41.207C75.7588 40.7539 76.9931 40.5273 78.3916 40.5273C80.9228 40.5273 82.9463 41.3125 84.4619 42.8828C85.9853 44.4531 86.747 46.6367 86.747 49.4336C86.747 52.207 85.9931 54.3789 84.4853 55.9492C82.9775 57.5117 80.9619 58.293 78.4384 58.293C75.8838 58.293 73.8525 57.5156 72.3447 55.9609C70.8369 54.3984 70.083 52.25 70.083 49.5156ZM73.6572 49.3984C73.6572 51.3438 74.1064 52.8203 75.0048 53.8281C75.9033 54.8281 77.0439 55.3281 78.4267 55.3281C79.8095 55.3281 80.9423 54.832 81.8252 53.8398C82.7158 52.8398 83.1611 51.3438 83.1611 49.3516C83.1611 47.3828 82.7275 45.9141 81.8603 44.9453C81.0009 43.9766 79.8564 43.4922 78.4267 43.4922C76.997 43.4922 75.8447 43.9844 74.9697 44.9688C74.0947 45.9453 73.6572 47.4219 73.6572 49.3984Z" fill="#F8F8F8"/>
</svg>
