<svg width="100" height="100" viewBox="0 0 100 100" fill="none" xmlns="http://www.w3.org/2000/svg">
<rect width="100" height="100" fill="#F8EFFF"/>
<path d="M48.1891 28.5657C51.9351 28.5657 54.9719 25.5289 54.9719 21.7828C54.9719 18.0368 51.9351 15 48.1891 15C44.443 15 41.4062 18.0368 41.4062 21.7828C41.4062 25.5289 44.443 28.5657 48.1891 28.5657Z" fill="#662E91"/>
<path d="M77.192 30.2764C80.9381 30.2764 83.9748 27.2396 83.9748 23.4935C83.9748 19.7475 80.9381 16.7107 77.192 16.7107C73.446 16.7107 70.4092 19.7475 70.4092 23.4935C70.4092 27.2396 73.446 30.2764 77.192 30.2764Z" fill="#662E91"/>
<path d="M84.6969 63.3369C83.0758 55.014 81.6339 46.5846 79.4583 38.3982C79.4418 38.3377 79.4429 38.2737 79.4616 38.2138C79.4803 38.1539 79.5157 38.1006 79.5637 38.0603C79.6118 38.0199 79.6703 37.9941 79.7325 37.9859C79.7948 37.9778 79.858 37.9876 79.9148 38.0143C83.0886 39.4533 85.6724 41.6688 87.666 44.6606C87.8451 44.9251 88.0328 45.0815 88.2291 45.1299C88.2855 45.1445 88.345 45.1424 88.4004 45.124C88.4557 45.1056 88.5046 45.0716 88.5411 45.0261C88.5776 44.9806 88.6001 44.9255 88.6061 44.8675C88.612 44.8095 88.6011 44.751 88.5746 44.699C82.9905 33.5436 67.5734 31.2059 56.4351 32.1742C45.5612 33.117 35.6686 36.005 26.5309 41.5038C26.5272 41.5059 26.523 41.5069 26.5188 41.5067C26.5145 41.5064 26.5103 41.505 26.5065 41.5024C26.5026 41.4999 26.4994 41.4964 26.497 41.4921C26.4945 41.4879 26.493 41.4831 26.4925 41.4782C26.4897 41.4413 26.4883 41.4029 26.4883 41.3631C26.4883 41.3432 26.4968 41.3289 26.5139 41.3204C41.1247 31.9353 63.4142 26.1209 79.8593 34.2261C92.2305 40.3264 92.5846 53.3375 84.6969 63.3369Z" fill="#572C7E"/>
<path d="M70.4264 57.1728C72.7513 58.9432 74.7819 64.9923 75.4303 67.7865C75.709 68.9809 76.12 69.9905 76.6632 70.8153C76.8481 71.0968 76.804 71.3372 76.531 71.5362C62.9738 81.3863 45.33 86.7315 28.7014 83.6984C10.7845 80.4307 3.91632 64.9283 16.2278 50.4881C17.0867 49.4814 18.2114 48.5116 19.6021 47.5788C22.6565 45.5339 25.2545 43.91 27.396 42.7071C40.8934 35.1222 57.4196 31.7521 72.6874 35.2843C72.752 35.2995 72.8112 35.3323 72.8584 35.3792C72.9055 35.426 72.9386 35.4851 72.9541 35.5497C72.9696 35.6143 72.9668 35.682 72.9461 35.7451C72.9253 35.8082 72.8875 35.8643 72.8367 35.9072C70.853 37.6007 69.2447 39.2602 67.8413 41.6192C66.7748 43.4109 58.8657 58.828 56.2507 53.1373C54.3865 49.0889 52.8593 44.6054 50.5387 40.8215C49.9272 39.829 49.0356 39.4763 47.8639 39.7636C44.2165 40.6637 42.6296 42.6601 40.6758 46.0857C35.7828 54.6474 31.5809 63.2433 28.8891 72.7862C28.5449 74.0091 28.9075 75.0087 29.9769 75.7851C33.8461 78.5964 36.3843 73.81 37.4678 70.9817C38.8358 67.4068 40.2165 63.8362 41.6101 60.2699C42.2286 58.6958 43.5809 55.7224 45.3385 58.2009C47.1899 60.8145 48.5607 63.667 49.4508 66.7584C50.0779 68.9212 52.9062 81.2028 57.4793 76.7236C58.1192 76.0951 59.1174 74.6831 60.474 72.4875C63.5583 67.5049 66.1861 62.0872 69.5391 57.3093C69.5867 57.2406 69.6479 57.1823 69.7189 57.138C69.7899 57.0937 69.8693 57.0643 69.9523 57.0515C70.0352 57.0388 70.12 57.0429 70.2015 57.0638C70.283 57.0846 70.3595 57.1217 70.4264 57.1728Z" fill="#572C7E"/>
<path d="M84.6956 63.3372C85.0369 66.8821 86.4191 69.5953 82.7973 71.997C81.0269 73.1701 78.7233 72.4279 77.162 71.2633C77.0084 71.1495 76.9999 71.0272 77.1364 70.8964L84.4013 63.7211C84.4752 63.6472 84.5321 63.5633 84.5719 63.4694C84.6089 63.3812 84.6501 63.3372 84.6956 63.3372Z" fill="#662E91"/>
</svg>
