<svg width="100" height="100" viewBox="0 0 100 100" fill="none" xmlns="http://www.w3.org/2000/svg">
<g clip-path="url(#clip0_81_505)">
<rect width="100" height="100" fill="white"/>
<g clip-path="url(#clip1_81_505)">
<rect x="-2.90674" y="50" width="105.813" height="41.6" fill="url(#paint0_linear_81_505)"/>
<rect x="-2.90674" y="8.61353" width="105.813" height="53.12" fill="url(#paint1_linear_81_505)"/>
<path d="M-14 -14H114V114H-14V-14ZM36.3893 21.1616C36.0437 23.7387 36.3275 26.298 37.2405 28.8395C37.808 30.4196 38.4188 31.7714 39.0731 32.8949C41.8101 37.6672 45.6779 41.8699 49.9104 45.3429C49.9659 45.3899 50.0213 45.3899 50.0768 45.3429C53.3664 42.6137 56.2656 39.5346 58.7744 36.1056C61.9147 31.8795 64.2528 26.6379 63.5616 21.3323C62.8085 15.28 59.1712 10.3797 52.9909 9.1424C44.7563 7.49547 37.4325 12.8587 36.3893 21.1616ZM14.5803 35.3312C13.7084 37.2484 13.3401 39.2764 13.4752 41.4155C13.626 43.3412 14.0505 45.1566 14.7488 46.8619C17.3109 52.8288 22.4715 57.9339 28.8992 59.7877C32.8267 60.9205 36.8053 61.3003 40.8821 61.3941L40.8843 67.7621L40.8885 70.8576L40.8928 75.5509L40.8885 77.2597L40.8843 80.9909V91.0112C40.8843 91.078 40.9177 91.1115 40.9845 91.1115L47.6405 91.1413C47.6489 91.1413 47.6573 91.1397 47.665 91.1365C47.6728 91.1332 47.6798 91.1285 47.6858 91.1226C47.6917 91.1167 47.6964 91.1096 47.6997 91.1018C47.7029 91.0941 47.7045 91.0857 47.7045 91.0773V80.2933L47.7003 76.9824V74.3755L47.6896 69.7355L47.6917 66.8427L47.7237 61.4005C47.7259 56.624 47.3781 52.0331 45.9765 47.4443C45.3138 45.2725 44.4377 43.2039 43.3483 41.2384C42.2361 39.2188 40.8857 37.3877 39.2971 35.7451C35.4585 31.8482 30.7943 29.7604 25.3045 29.4816C20.6048 29.2427 16.6645 30.9408 14.5803 35.3312ZM60.3915 36.0736C58.7915 37.7717 57.429 39.7024 56.304 41.8656C55.3099 43.7657 54.4864 45.8073 53.8336 47.9904C52.6418 52.3851 52.1284 56.8665 52.2933 61.4347L52.2955 66.8021L52.2976 69.6843L52.2997 73.5776L52.2976 75.6597V80.6155V91.0133C52.2976 91.0844 52.3332 91.12 52.4043 91.12H59.0112C59.0837 91.12 59.12 91.0837 59.12 91.0112L59.1157 79.6981V75.4955L59.1093 72.9099L59.1157 69.5179L59.1179 66.7979L59.12 61.4048C63.4336 61.3216 67.8816 60.8821 71.9861 59.5104C77.3536 57.7184 81.8549 53.4624 84.4768 48.5131C85.5392 46.4779 86.2012 44.3239 86.4629 42.0512C86.6976 39.9506 86.4388 37.9225 85.6864 35.9669C83.9029 31.5872 80.3744 29.5691 75.8197 29.4624C69.9467 29.3216 64.3893 31.7984 60.3915 36.0736Z" fill="#F0FAF2"/>
<path d="M56.7032 21.3878C57.3944 27.1094 55.0072 31.5233 51.2099 35.4806L50.0856 36.7051C50.0316 36.7634 49.9761 36.7649 49.9192 36.7094C48.6478 35.5005 47.5583 34.2347 46.651 32.9121C44.1464 29.2982 42.4419 25.055 43.5406 20.6326C44.2467 18.4161 45.772 16.5473 47.9971 15.8326C50.5635 15.0049 53.7102 15.8305 55.3166 18.0193C56.0206 18.9764 56.4828 20.0993 56.7032 21.3878Z" fill="#F0F3FA"/>
<path d="M35.3208 41.8656C36.8071 43.5894 38.0152 45.4475 38.9454 47.44C40.0163 49.7241 40.6435 52.0324 40.827 54.3648C40.8369 54.48 40.7836 54.5384 40.667 54.5398C38.7896 54.5419 36.812 54.6187 35.0776 54.3478C29.9704 53.5499 24.6798 51.007 21.8019 46.5696C20.731 44.8061 20.2268 42.8655 20.2894 40.7478C20.6051 37.0656 23.3998 35.8731 26.6915 36.4832C30.0451 37.1062 33.0915 39.2928 35.3208 41.8656Z" fill="#F0F3FA"/>
<path d="M76.7522 36.5983C79.1373 37.5156 79.7602 39.3844 79.7069 41.7119C79.5305 44.1581 78.6473 46.2914 77.0573 48.1119C73.9554 51.6447 69.2173 53.7375 64.6391 54.3881C63.0327 54.6164 61.117 54.5225 59.3762 54.5375C59.2013 54.5403 59.1238 54.4543 59.1437 54.2793C59.4011 52.0137 59.9543 49.9167 60.8034 47.9881C61.7222 45.8832 62.9097 43.964 64.3661 42.2303C66.7042 39.3865 69.9405 37.0356 73.6098 36.434C74.7519 36.205 75.7993 36.2598 76.7522 36.5983Z" fill="#F0F3FA"/>
</g>
</g>
<defs>
<linearGradient id="paint0_linear_81_505" x1="49.9999" y1="50" x2="49.9999" y2="91.6" gradientUnits="userSpaceOnUse">
<stop offset="0.14024" stop-color="#103F07"/>
<stop offset="0.896174" stop-color="#288700"/>
</linearGradient>
<linearGradient id="paint1_linear_81_505" x1="49.9999" y1="8.61353" x2="49.9999" y2="61.7335" gradientUnits="userSpaceOnUse">
<stop offset="0.14024" stop-color="#103F07"/>
<stop offset="0.896174" stop-color="#288700"/>
</linearGradient>
<clipPath id="clip0_81_505">
<rect width="100" height="100" fill="white"/>
</clipPath>
<clipPath id="clip1_81_505">
<rect width="128" height="128" fill="white" transform="translate(-14 -14)"/>
</clipPath>
</defs>
</svg>
