<svg width="100" height="100" viewBox="0 0 100 100" fill="none" xmlns="http://www.w3.org/2000/svg">
<rect width="100" height="100" fill="#96D2E9"/>
<path d="M43.6783 29.3911C45.643 32.8934 47.2908 36.032 48.6218 38.8066C48.9655 39.5243 49.2122 40.3738 49.3617 41.3553L49.368 42.1519C49.3684 42.1901 49.3572 42.2275 49.3358 42.2591C49.3144 42.2908 49.2838 42.3151 49.2482 42.329C49.2126 42.3428 49.1736 42.3454 49.1365 42.3366C49.0993 42.3277 49.0658 42.3076 49.0403 42.2792L47.0979 40.0999C44.4762 37.2727 41.5583 34.6711 38.6012 32.193C36.4446 30.3099 34.1443 28.4482 31.6952 26.9584C27.3857 24.3367 22.8758 22.0212 17.8756 21.8548C17.442 21.8405 17.0181 21.8216 16.6038 21.7981C16.5851 21.797 16.567 21.791 16.5513 21.7808C16.5356 21.7706 16.5228 21.7565 16.5141 21.7398C16.5055 21.7232 16.5013 21.7046 16.502 21.6859C16.5027 21.6672 16.5083 21.6489 16.5181 21.633C19.1852 17.3701 24.2006 14.2177 29.3684 15.1707C32.0986 15.6748 34.9648 17.868 36.8669 19.8709C39.5554 22.7018 41.7246 26.0937 43.6783 29.3911Z" fill="#029916"/>
<path d="M61.1711 32.5598C57.6834 35.4916 54.3609 38.5759 51.3723 42.0321C51.2488 42.1741 51.1068 42.3115 50.9463 42.4443C50.9233 42.4632 50.8953 42.475 50.8657 42.4785C50.8361 42.4819 50.8061 42.4767 50.7794 42.4635C50.7527 42.4504 50.7303 42.4298 50.715 42.4042C50.6996 42.3787 50.692 42.3493 50.693 42.3195L50.7232 41.2746C50.9165 40.2721 51.1955 39.3994 51.5601 38.6566C52.9492 35.8282 54.5315 32.8274 56.307 29.6545C58.8279 25.321 61.9627 20.4292 66.1133 17.4457C68.6368 15.6319 71.2018 14.7912 74.2924 15.2992C78.1834 15.9395 81.3749 18.4049 83.5341 21.7187C83.6139 21.8413 83.5811 21.9081 83.4357 21.9191C82.2887 22.0035 81.027 22.0212 79.9657 22.1976C77.0541 22.6804 74.5622 23.7089 71.9593 25.0462C67.8767 27.1449 64.8113 29.4377 61.1711 32.5598Z" fill="#029916"/>
<path d="M37.7145 32.8644C40.6236 35.3618 43.4575 37.9453 46.2162 40.6149C46.6221 41.0158 49.0094 43.8682 48.1031 44.1064C48.0707 44.1153 48.0358 44.1107 48.0061 44.0938L45.1688 42.5409C41.5525 40.6767 37.7208 39.1465 33.9117 37.7411C30.4442 36.4038 27.1317 35.292 23.5167 34.6593C22.1739 34.424 20.8265 34.2215 19.4744 34.0518C17.0166 33.7417 14.604 33.7493 12.1638 34.1047C10.7408 34.3127 9.26225 34.7929 7.83542 35.229C7.8227 35.2328 7.80931 35.2337 7.79619 35.2318C7.78307 35.2298 7.77054 35.225 7.75949 35.2176C7.74843 35.2103 7.73912 35.2007 7.7322 35.1893C7.72529 35.178 7.72093 35.1653 7.71945 35.1521C7.71441 35.1068 7.72071 35.045 7.73836 34.9669C9.02402 29.136 13.839 23.5749 20.2294 23.8068C26.5191 24.035 32.9978 28.9104 37.7145 32.8644Z" fill="#029916"/>
<path d="M65.3333 37.83C61.5431 39.2505 57.4101 40.8891 53.8166 42.96C53.4527 43.1743 53.0834 43.3714 52.7086 43.5512C52.4196 43.6907 52.27 43.6348 52.2599 43.3836C52.2591 43.3644 52.2621 43.3451 52.2687 43.3268C52.7149 42.0197 53.7094 40.811 54.6989 39.8719C57.0484 37.6418 59.4478 35.4625 61.8973 33.334C64.1275 31.4626 66.3215 29.8018 68.4794 28.3514C72.2646 25.8078 77.8257 23.3335 82.3683 24.9167C86.8203 26.4683 89.7836 30.5698 90.7718 35.0784C90.7763 35.0997 90.7751 35.1217 90.7684 35.1424C90.7618 35.1631 90.7498 35.1816 90.7338 35.1963C90.7178 35.2109 90.6982 35.2211 90.677 35.2259C90.6558 35.2306 90.6337 35.2298 90.613 35.2234C89.2857 34.8112 87.9395 34.3814 86.6148 34.1785C84.3107 33.8255 82.1003 33.786 79.9836 34.06C76.9925 34.4469 74.2435 34.8818 71.4024 35.7112C69.8378 36.1675 67.8147 36.8737 65.3333 37.83Z" fill="#029916"/>
<path d="M67.3423 45.6925L54.9823 44.8883C54.4302 44.8438 53.889 44.7396 53.3588 44.5757C53.3339 44.5678 53.312 44.5527 53.2956 44.5323C53.2793 44.512 53.2694 44.4872 53.2671 44.4612C53.2648 44.4352 53.2703 44.4091 53.2828 44.3862C53.2953 44.3633 53.3143 44.3446 53.3374 44.3324L54.1378 43.9114C58.1536 42.4661 62.1958 41.1254 66.2646 39.8893C68.2847 39.3221 70.298 38.7415 72.3047 38.1474C74.8281 37.3987 77.2167 36.9361 80.0388 36.3802C83.2051 35.7576 85.8029 35.4904 88.9641 36.4344C92.2236 37.4075 93.6517 39.7457 93.9378 42.9535C94.3298 47.3626 92.8387 50.912 90.8232 54.8547C90.5989 55.2933 90.3573 55.6269 90.0985 55.8555C90.0812 55.8709 90.0606 55.8821 90.0384 55.8885C90.0161 55.8948 89.9927 55.896 89.9699 55.892C89.6817 55.8441 89.4494 55.7156 89.2729 55.5063C88.5822 54.682 87.8839 53.7795 87.1906 53.0459C85.8503 51.6275 84.5243 50.4435 83.2126 49.494C81.443 48.2146 79.4968 47.6852 77.2091 47.1357C73.9765 46.3592 70.6875 45.8782 67.3423 45.6925Z" fill="#026B0F"/>
<path d="M33.0376 39.6702C37.4252 40.8852 40.952 42.1192 44.8871 43.4213C45.6484 43.6607 46.735 43.9444 47.3727 44.4057C47.395 44.4218 47.4125 44.4437 47.4233 44.4689C47.4341 44.4942 47.438 44.5219 47.4343 44.5492C47.4307 44.5764 47.4198 44.6022 47.4028 44.6237C47.3857 44.6453 47.3631 44.6618 47.3374 44.6716C47.1509 44.741 46.895 44.8368 46.6883 44.8594C45.2783 45.0124 43.8636 45.1237 42.4444 45.1935L31.8881 45.8867C28.2202 46.1438 24.5338 46.7875 20.8289 47.8177C19.0592 48.3093 17.7269 49.0063 16.2257 50.1773C14.33 51.6545 12.6334 53.3402 11.136 55.2342C9.9877 56.6863 9.58688 55.6262 9.00959 54.5397C6.97018 50.7004 5.52948 46.7577 6.14332 42.307C6.62356 38.8332 8.80666 37.0409 12.0221 36.2997C13.906 35.8653 15.8076 35.7787 17.7269 36.0401C17.9622 36.072 18.7903 36.2169 20.2112 36.4749C23.0498 36.9904 25.8845 37.5929 28.655 38.4047C30.1188 38.8324 31.5797 39.2542 33.0376 39.6702Z" fill="#026B0F"/>
<path d="M54.1981 45.7822C59.7202 46.0444 62.8196 46.1175 67.2161 46.6532C75.8565 47.7448 86.1115 50.4484 87.6039 60.8345C88.0526 63.9579 87.6707 66.9683 86.4582 69.8657C86.4237 69.948 86.404 69.993 86.3989 70.0005C86.3292 70.1039 86.2628 70.1018 86.1998 69.9942C85.4007 68.6254 84.5763 67.2074 83.6436 66.0011C82.0823 63.981 80.3214 62.1975 78.361 60.6505C76.8371 59.4493 74.9868 58.0111 73.2461 56.8969C70.9117 55.4045 68.4778 54.0651 65.9443 52.8786L54.6267 47.2771C54.1301 46.991 53.1242 46.5133 52.8041 46.0431C52.7921 46.0253 52.785 46.0046 52.7835 45.9832C52.782 45.9618 52.7862 45.9403 52.7957 45.921C52.8051 45.9017 52.8195 45.8852 52.8374 45.8733C52.8552 45.8613 52.8759 45.8542 52.8974 45.8528L54.1981 45.7822Z" fill="#004D09"/>
<path d="M36.1708 51.5687L33.336 52.9703C30.9151 54.1106 28.7719 55.2589 26.9064 56.4151C25.2225 57.4575 23.4742 58.7987 21.7764 60.0818C19.7454 61.6153 17.9169 63.3678 16.2909 65.3391C15.1098 66.7723 14.2212 68.3604 13.2582 69.9272C13.2507 69.9398 13.2397 69.9501 13.2266 69.9569C13.2136 69.9637 13.1988 69.9667 13.184 69.9657C13.1692 69.9646 13.1549 69.9596 13.1427 69.951C13.1304 69.9424 13.1207 69.9307 13.1145 69.9171C10.4739 63.814 11.5327 55.8895 17.1404 51.754C21.4714 48.56 26.6569 47.4533 31.9104 46.7676C35.5947 46.3 38.8404 46.1727 42.3066 46.0076C43.5633 45.9433 44.8326 45.8185 46.0779 45.8752C46.2485 45.8836 46.346 45.8958 46.3703 45.9118C46.5855 46.0563 46.5838 46.1988 46.3653 46.3391C45.4309 46.9382 44.4843 47.4794 43.5255 47.9626C41.0878 49.1911 38.6362 50.3931 36.1708 51.5687Z" fill="#004D09"/>
<path d="M53.9099 48.7845C57.7198 50.5592 61.4919 52.3994 65.2262 54.3052C70.9852 57.4677 77.0947 61.1243 80.5017 66.9854C83.9742 72.9587 81.563 80.4445 76.5854 84.7338C76.5149 84.7952 76.4695 84.83 76.4493 84.8384C76.3317 84.8838 76.2649 84.8439 76.2489 84.7187C76.0548 83.2188 75.867 81.6571 75.48 80.2453C74.7754 77.669 73.7608 75.2439 72.4398 72.9246C70.5403 69.5882 68.6585 66.6514 66.1678 63.7359C64.7376 62.0621 63.278 60.4092 61.789 58.7773L56.8505 53.3032C55.7455 52.094 54.6447 50.7907 53.5481 49.3933L53.3087 48.9319C53.2952 48.9062 53.2893 48.8772 53.2915 48.8483C53.2937 48.8193 53.304 48.7916 53.3212 48.7682C53.3384 48.7448 53.3618 48.7268 53.3888 48.716C53.4158 48.7053 53.4452 48.7024 53.4738 48.7076L53.9099 48.7845Z" fill="#00401E"/>
<path d="M46.0921 49.6792L42.7494 53.6206L37.7668 59.1401C34.6522 62.5509 31.612 65.9592 29.1819 69.9094C26.7404 73.8761 24.6316 77.6902 23.8464 82.2619C23.6938 83.1517 23.5653 84.0656 23.4443 84.9617C23.4417 84.981 23.4339 84.9993 23.4218 85.0145C23.4098 85.0298 23.3938 85.0416 23.3756 85.0485C23.3574 85.0555 23.3377 85.0574 23.3185 85.0541C23.2993 85.0508 23.2814 85.0424 23.2665 85.0298C19.4398 81.7804 17.2176 77.065 17.6865 71.9879C18.2121 66.3096 23.1443 61.6699 27.576 58.6738C29.7171 57.2268 31.9212 55.8928 34.1884 54.6718L36.921 53.2374C39.3369 52.0619 41.7624 50.877 44.1976 49.683C44.8245 49.3754 45.4707 49.1095 46.1362 48.8851C46.337 48.817 46.4223 48.888 46.3921 49.0981C46.3702 49.2468 46.2702 49.4405 46.0921 49.6792Z" fill="#00401E"/>
</svg>
