<svg width="100" height="100" viewBox="0 0 100 100" fill="none" xmlns="http://www.w3.org/2000/svg">
<rect width="100" height="100" fill="white"/>
<path d="M22.4671 66.8158H39.2246C39.2443 66.8159 39.2635 66.8103 39.2801 66.7998C39.2967 66.7893 39.3099 66.7743 39.3182 66.7565L44.7387 54.9077C44.7469 54.8897 44.7601 54.8746 44.7767 54.8639C44.7933 54.8533 44.8126 54.8476 44.8323 54.8476C44.852 54.8476 44.8713 54.8533 44.8879 54.8639C44.9045 54.8746 44.9177 54.8897 44.9259 54.9077L49.173 64.1571C49.1795 64.1708 49.1828 64.1857 49.1828 64.2008C49.1828 64.2159 49.1795 64.2308 49.173 64.2445L44.3018 74.714C44.2935 74.7318 44.2803 74.7468 44.2637 74.7573C44.2471 74.7678 44.2278 74.7734 44.2082 74.7733H10.1033C10.086 74.7734 10.0689 74.769 10.0536 74.7607C10.0384 74.7524 10.0255 74.7404 10.0162 74.7257C10.0068 74.7111 10.0013 74.6943 10.0002 74.677C9.99909 74.6597 10.0024 74.6424 10.0097 74.6266L32.8649 25.0593C32.8732 25.0415 32.8864 25.0265 32.903 25.016C32.9196 25.0055 32.9389 24.9999 32.9585 25H41.4059C41.4256 24.9999 41.4448 25.0055 41.4614 25.016C41.478 25.0265 41.4912 25.0415 41.4995 25.0593L60.7473 66.7565C60.7556 66.7743 60.7689 66.7893 60.7854 66.7998C60.802 66.8103 60.8213 66.8159 60.8409 66.8158H77.5329C77.55 66.8154 77.5667 66.8107 77.5815 66.8021C77.5964 66.7936 77.6088 66.7815 77.6178 66.767C77.6268 66.7524 77.632 66.7358 77.633 66.7188C77.634 66.7017 77.6307 66.6846 77.6234 66.6692L62.9442 34.7331C62.936 34.7152 62.9228 34.7 62.9062 34.6893C62.8896 34.6787 62.8703 34.673 62.8506 34.673C62.8308 34.673 62.8115 34.6787 62.7949 34.6893C62.7784 34.7 62.7652 34.7152 62.7569 34.7331L55.2675 50.9601C55.2593 50.9781 55.2461 50.9933 55.2295 51.0039C55.213 51.0146 55.1936 51.0202 55.1739 51.0202C55.1542 51.0202 55.1349 51.0146 55.1183 51.0039C55.1017 50.9933 55.0885 50.9781 55.0803 50.9601L50.827 41.7326C50.8206 41.7189 50.8172 41.704 50.8172 41.6889C50.8172 41.6738 50.8206 41.6589 50.827 41.6452L58.4942 25.0593C58.5026 25.0415 58.5158 25.0265 58.5324 25.016C58.549 25.0055 58.5682 24.9999 58.5878 25H67.0415C67.0611 24.9999 67.0804 25.0055 67.097 25.016C67.1136 25.0265 67.1268 25.0415 67.1351 25.0593L89.9903 74.6266C89.9976 74.6424 90.0009 74.6597 89.9998 74.677C89.9987 74.6943 89.9932 74.7111 89.9838 74.7257C89.9745 74.7404 89.9616 74.7524 89.9464 74.7607C89.9311 74.769 89.914 74.7734 89.8967 74.7733H55.745C55.7254 74.7734 55.7061 74.7678 55.6895 74.7573C55.6729 74.7468 55.6597 74.7318 55.6514 74.714L37.2555 34.8111C37.2473 34.7932 37.2341 34.778 37.2175 34.7673C37.2009 34.7567 37.1816 34.751 37.1619 34.751C37.1422 34.751 37.1229 34.7567 37.1063 34.7673C37.0897 34.778 37.0765 34.7932 37.0683 34.8111L22.3735 66.6692C22.3661 66.6849 22.3628 66.7022 22.364 66.7195C22.3651 66.7369 22.3706 66.7536 22.3799 66.7682C22.3893 66.7829 22.4022 66.7949 22.4174 66.8032C22.4326 66.8116 22.4497 66.8159 22.4671 66.8158Z" fill="#40BF9F"/>
</svg>
