<svg width="100" height="100" viewBox="0 0 100 100" fill="none" xmlns="http://www.w3.org/2000/svg">
<rect width="100" height="100" fill="#595C62"/>
<path d="M16.9834 58V40.8203H22.1748L25.292 52.5391L28.3741 40.8203H33.5772V58H30.3545V44.4766L26.9444 58H23.6045L20.2061 44.4766V58H16.9834ZM37.4762 58V40.9609H40.945V55.1055H49.57V58H37.4762ZM52.4027 40.8203H58.7425C60.1722 40.8203 61.262 40.9297 62.012 41.1484C63.0198 41.4453 63.8831 41.9727 64.6019 42.7305C65.3206 43.4883 65.8675 44.418 66.2425 45.5195C66.6175 46.6133 66.805 47.9648 66.805 49.5742C66.805 50.9883 66.6292 52.207 66.2777 53.2305C65.848 54.4805 65.2347 55.4922 64.4378 56.2656C63.8363 56.8516 63.0238 57.3086 62.0003 57.6367C61.2347 57.8789 60.2113 58 58.93 58H52.4027V40.8203ZM55.8714 43.7266V55.1055H58.4613C59.43 55.1055 60.1292 55.0508 60.5589 54.9414C61.1214 54.8008 61.5863 54.5625 61.9534 54.2266C62.3284 53.8906 62.6331 53.3398 62.8675 52.5742C63.1019 51.8008 63.2191 50.75 63.2191 49.4219C63.2191 48.0938 63.1019 47.0742 62.8675 46.3633C62.6331 45.6523 62.305 45.0977 61.8831 44.6992C61.4613 44.3008 60.9261 44.0312 60.2777 43.8906C59.7933 43.7812 58.8441 43.7266 57.43 43.7266H55.8714ZM70.1533 58V40.8203H73.5283L80.5595 52.293V40.8203H83.7822V58H80.3017L73.3759 46.7969V58H70.1533Z" fill="#F8F8F8"/>
</svg>
