<svg width="100" height="100" viewBox="0 0 100 100" fill="none" xmlns="http://www.w3.org/2000/svg">
<rect width="100" height="100" fill="white"/>
<path d="M70.4935 34.4913C68.0039 34.022 65.8322 34.5385 63.9785 36.0405C63.7072 36.2606 63.1908 36.7504 62.4292 37.5099" stroke="#91873C" stroke-width="0.301415"/>
<path d="M62.4288 37.5095C55.4119 30.6885 44.6529 30.6644 37.5244 37.3362" stroke="#FFE980" stroke-width="0.301415"/>
<path d="M37.5241 37.3359C36.7464 36.5844 36.2536 36.0846 36.0456 35.8364C34.7119 34.2404 34.0005 31.8231 34.4542 29.7162C34.4738 29.6227 34.4466 29.5745 34.4059 29.4946" stroke="#9FB222" stroke-width="0.301415"/>
<path d="M37.5244 37.3362C30.4397 44.3817 30.3718 55.4467 37.5063 62.5013" stroke="#9FC9A2" stroke-width="0.301415"/>
<path d="M37.5063 62.502C36.8432 63.1063 36.1846 63.8613 35.5215 64.33C33.8577 65.5106 31.9759 65.9411 29.876 65.6216C29.8338 65.6156 29.7957 65.6256 29.7615 65.6517L29.6997 65.7015" stroke="#976434" stroke-width="0.301415"/>
<path d="M62.4291 37.51C69.3541 44.5028 69.3043 55.3703 62.417 62.3511" stroke="#919EBB" stroke-width="0.301415"/>
<path d="M62.4168 62.3506C55.3802 69.2289 44.6454 69.1339 37.5063 62.5013" stroke="#F79A92" stroke-width="0.301415"/>
<path d="M38.3743 38.2605C31.7869 44.8328 31.7779 55.0583 38.3924 61.6036" stroke="#9FC9A2" stroke-width="0.301415"/>
<path d="M38.3926 61.6035C45.0086 67.8729 54.9252 67.7403 61.493 61.5085" stroke="#F79A92" stroke-width="0.301415"/>
<path d="M61.4932 61.5082C67.9238 55.0791 67.9977 44.7978 61.5143 38.3687" stroke="#919EBB" stroke-width="0.301415"/>
<path d="M61.5141 38.369C54.9749 32.0062 44.9589 32.0529 38.3745 38.2605" stroke="#FFE980" stroke-width="0.301415"/>
<path d="M61.5138 38.3687L58.7905 41.11" stroke="#91873C" stroke-width="0.301415"/>
<path d="M58.79 41.1106L57.5005 42.3654" stroke="#9C8F41" stroke-width="0.301415"/>
<path d="M57.5014 42.3655C56.7298 41.5437 55.8416 40.8836 54.8369 40.3852C54.8037 40.3682 54.7816 40.342 54.7706 40.3069C54.7626 40.2797 54.748 40.2612 54.7269 40.2511C51.7007 38.9239 48.7061 38.949 45.7432 40.3265C44.5888 40.863 43.6032 41.8335 42.6567 42.6549" stroke="#FFD731" stroke-width="0.301415"/>
<path d="M42.6557 42.6549L42.374 42.3943" stroke="#B3B92E" stroke-width="0.301415"/>
<path d="M42.3743 42.3944L38.3745 38.2605" stroke="#9FB222" stroke-width="0.301415"/>
<path d="M58.6491 58.4853C58.5747 58.4471 58.5024 58.3803 58.4321 58.2849" stroke="#934053" stroke-width="0.301415"/>
<path d="M58.431 58.2843L57.0044 56.8894" stroke="#96616A" stroke-width="0.301415"/>
<path d="M57.0047 56.8892C57.5352 56.7189 58.2088 56.4778 58.5344 55.9834C59.0568 55.1907 59.4095 54.5914 59.5923 54.1855C59.6456 54.0659 59.7028 53.766 59.7641 53.2858C59.7671 53.2546 59.7822 53.2315 59.8093 53.2164L59.8666 53.1818C59.9128 53.1547 59.9395 53.114 59.9465 53.0597C60.0339 52.3956 60.1077 51.7295 60.168 51.0613C60.2072 50.6318 60.3489 49.922 60.3037 49.3146C60.3007 49.2704 60.2861 49.2302 60.26 49.1941C59.8078 48.5626 60.1514 47.4428 59.9962 46.6667C59.9073 46.2251 59.9239 45.7881 59.7596 45.3601C59.7468 45.3266 59.7437 45.2896 59.7506 45.2531C59.8606 44.6834 59.633 44.5779 59.2261 44.3488C59.206 44.3368 59.1864 44.3338 59.1673 44.3398C59.1322 44.3508 59.099 44.3473 59.0679 44.3292L58.5992 44.0519C58.5922 44.0479 58.586 44.0417 58.5811 44.0338C58.2626 43.5606 57.9577 43.0794 57.6663 42.5901C57.6554 42.5721 57.6388 42.5583 57.6191 42.5509C57.5994 42.5435 57.5778 42.543 57.5578 42.5494C57.3448 42.6177 57.1453 42.7443 56.9595 42.9292" stroke="#4B568A" stroke-width="0.301415"/>
<path d="M44.3807 44.3847C44.2883 44.3827 44.2009 44.3254 44.1185 44.2129C44.0783 44.1576 44.0366 44.1566 43.9934 44.2099C41.8217 46.8713 41.5294 49.9111 42.6551 53.0805C42.8315 53.5778 43.1992 54.0043 43.4433 54.4986C43.4624 54.5358 43.4911 54.5634 43.5292 54.5815C43.6769 54.6509 44.1125 55.3833 44.3446 55.5883" stroke="#7EAB72" stroke-width="0.301415"/>
<path d="M44.3432 55.5891L42.1152 57.8487" stroke="#AD8B57" stroke-width="0.301415"/>
<path d="M42.3738 42.3946C42.2141 42.3484 42.1096 42.2871 42.0604 42.2108C42.0379 42.1759 42.0079 42.1467 41.9724 42.1252C41.937 42.1037 41.8972 42.0906 41.8559 42.0868C41.8147 42.0831 41.7731 42.0887 41.7344 42.1034C41.6956 42.1181 41.6607 42.1414 41.6324 42.1716C40.2926 43.6018 39.7365 45.029 39.1457 46.8767C38.7177 48.2195 38.7674 49.6572 38.8744 51.098C38.9302 51.8455 39.1472 52.4076 39.2647 53.1054C39.2999 53.3114 39.3733 53.547 39.4848 53.8122C40.1248 55.3454 40.9401 56.6219 41.9308 57.6417C41.9388 57.6497 41.9488 57.6537 41.9609 57.6537C41.977 57.6537 41.9936 57.6532 42.0106 57.6522C42.0165 57.6518 42.0223 57.653 42.0276 57.6556C42.0328 57.6583 42.0373 57.6622 42.0405 57.6671C42.0437 57.672 42.0456 57.6777 42.0459 57.6835C42.0462 57.6894 42.045 57.6952 42.0423 57.7005L41.9941 57.8044C41.983 57.8275 41.99 57.8401 42.0152 57.8421L42.1146 57.8496" stroke="#539950" stroke-width="0.301415"/>
<path d="M42.1142 57.8496L41.7964 58.187" stroke="#99844B" stroke-width="0.301415"/>
<path d="M41.7971 58.1868L38.3926 61.6033" stroke="#976434" stroke-width="0.301415"/>
<path d="M61.4928 61.5088L61.4762 61.4229C61.4672 61.3747 61.445 61.3325 61.4099 61.2963L58.6489 58.4856" stroke="#88394E" stroke-width="0.301415"/>
<path d="M58.6489 58.4849L59.1945 58.9611C59.2327 58.9943 59.2754 59.0018 59.3226 58.9837C59.4793 58.9254 59.5853 58.8094 59.6406 58.6356C59.6426 58.6306 59.6451 58.6296 59.6481 58.6326C59.6612 58.6446 59.6742 58.6572 59.6873 58.6702C59.6933 58.6762 59.701 58.6803 59.7092 58.6821C59.7175 58.684 59.7261 58.6834 59.7339 58.6805C59.7418 58.6776 59.7485 58.6726 59.7534 58.6659C59.7582 58.6593 59.7609 58.6514 59.7611 58.6431C59.7752 58.3598 59.8847 58.1297 60.0897 57.9529C60.1158 57.9308 60.1264 57.9031 60.1213 57.87L60.1063 57.7615C60.1012 57.7243 60.1068 57.6886 60.1228 57.6545C60.3037 57.2777 60.5865 56.9984 60.9713 56.8166C61.0137 56.7968 61.0497 56.7655 61.0753 56.7261C61.2984 56.387 61.6359 56.1806 61.8093 55.8445C62.2192 55.0498 62.4 54.1983 62.3518 53.29C62.3498 53.2428 62.3362 53.1986 62.3111 53.1574C62.2267 53.0137 62.1976 52.854 62.2237 52.6781C62.4015 51.4468 62.7572 50.2261 62.7542 48.9783C62.7542 48.9279 62.7412 48.8791 62.7165 48.8366C62.4814 48.4297 62.5296 47.9339 62.4407 47.5767C62.3553 47.2351 62.2895 46.9065 62.2433 46.5911C62.2343 46.5328 62.2433 46.5298 62.2704 46.582L62.3322 46.6996C62.3905 46.8121 62.4051 46.8071 62.3759 46.6845C62.2086 45.9747 61.8695 44.9077 62.2433 44.234C62.2855 44.1576 62.2639 44.1285 62.1785 44.1466L62.1197 44.1586C62.1123 44.1603 62.1046 44.1595 62.0977 44.1564C62.0909 44.1532 62.0852 44.1479 62.0816 44.1413C62.078 44.1346 62.0767 44.1269 62.0779 44.1195C62.079 44.112 62.0826 44.1051 62.0881 44.0999L62.1393 44.0486C62.1735 44.0155 62.1885 43.9748 62.1845 43.9266C62.069 42.6265 61.3918 41.8001 60.153 41.4474C60.1473 41.4461 60.1415 41.4465 60.136 41.4485C60.1306 41.4505 60.1258 41.454 60.1224 41.4586C60.1189 41.4632 60.1168 41.4687 60.1163 41.4745C60.1159 41.4803 60.1171 41.486 60.1198 41.4911L60.1485 41.5378C60.1756 41.5841 60.166 41.5936 60.1198 41.5665L60.0822 41.5439C60.0601 41.5308 60.047 41.5117 60.043 41.4866L59.8486 40.4422C59.8345 40.3658 59.7963 40.3508 59.734 40.397L58.7906 41.1098" stroke="#2D447D" stroke-width="0.301415"/>
<path d="M57.5003 42.366L56.9595 42.9294" stroke="#9C9372" stroke-width="0.301415"/>
<path d="M56.9592 42.9294L56.2798 43.5441" stroke="#AE9E7A" stroke-width="0.301415"/>
<path d="M56.2799 43.544C55.3515 42.2434 53.9153 41.6602 52.4308 41.2322C51.2402 40.8901 50.0632 40.8961 48.8335 41.0197C48.2095 41.0815 47.6504 41.3814 47.0355 41.5698C46.9941 41.5826 46.9571 41.6066 46.9285 41.6391C46.7763 41.8169 46.5397 41.7958 46.386 41.8712C46.0137 42.052 45.3702 42.575 45.019 42.6398C44.9668 42.6498 44.9206 42.6724 44.8804 42.7076L44.1932 43.321C44.163 43.3471 44.1294 43.3546 44.0922 43.3436C44.044 43.3305 44.0073 43.3481 43.9822 43.3963C43.8958 43.5591 43.7998 43.6581 43.6943 43.6932" stroke="#FFE17C" stroke-width="0.301415"/>
<path d="M43.6947 43.6927L42.6567 42.6548" stroke="#B3BD5E" stroke-width="0.301415"/>
<path d="M58.4315 58.2847C58.4425 58.4274 58.4249 58.5138 58.3787 58.5439C58.1391 58.7037 57.9793 58.9207 57.7563 59.0729C57.1715 59.4708 56.5793 59.8576 55.9795 60.2334C55.4671 60.5544 54.8853 60.7443 54.3187 60.9568C51.401 62.0464 47.6936 61.8836 44.8919 60.3961C43.7556 59.7943 42.7237 59.0579 41.7964 58.1868" stroke="#F1563B" stroke-width="0.301415"/>
<path d="M57.0045 56.8888L55.5479 55.4788" stroke="#A86B72" stroke-width="0.301415"/>
<path d="M55.5479 55.4789C56.0191 55.1473 56.3456 54.7756 56.5274 54.3636C56.9715 53.3509 57.4116 52.3366 57.8476 51.3209C58.1897 50.5221 57.9562 49.1869 57.7964 48.3504C57.7391 48.0535 57.7813 47.6647 57.605 47.2849C57.5839 47.2397 57.599 47.1834 57.6502 47.1161C57.6639 47.0985 57.6717 47.077 57.6725 47.0546C57.6733 47.0322 57.6671 47.01 57.6547 46.991C57.1845 46.2506 56.763 45.4825 56.3903 44.6867C56.214 44.31 55.9668 44.2452 55.5765 44.2542" stroke="#7E80A7" stroke-width="0.301415"/>
<path d="M56.2801 43.5444L55.5767 44.2539" stroke="#AEA395" stroke-width="0.301415"/>
<path d="M55.5754 44.2539L53.7466 46.0254" stroke="#CFC3AA" stroke-width="0.301415"/>
<path d="M53.7467 46.0264C53.0464 45.4568 52.3687 45.0674 51.7136 44.8584C50.0589 44.3325 47.8133 44.8976 46.6454 46.2043C46.5921 46.2635 46.56 46.3324 46.5489 46.4107C46.5469 46.4258 46.5112 46.4328 46.4419 46.4318" stroke="#FFECB3" stroke-width="0.301415"/>
<path d="M46.4419 46.4317L46.3018 46.3066" stroke="#E3DEAB" stroke-width="0.301415"/>
<path d="M46.301 46.3059L44.3804 44.3853" stroke="#CACF90" stroke-width="0.301415"/>
<path d="M44.3797 44.3848L43.6943 43.6934" stroke="#B3C379" stroke-width="0.301415"/>
<path d="M46.3013 46.3067C46.1597 46.2615 46.0431 46.1696 45.9517 46.0309C45.9246 45.9897 45.8899 45.9827 45.8477 46.0098C45.5116 46.2298 45.3881 46.6337 45.156 47.0572C44.092 49.0059 44.3843 51.3298 45.6458 53.2106C45.7302 53.3372 45.908 53.504 46.1793 53.7109" stroke="#AEC7A3" stroke-width="0.301415"/>
<path d="M46.1792 53.7107L45.1533 54.7848" stroke="#C7B48E" stroke-width="0.301415"/>
<path d="M45.1527 54.7854L44.3438 55.5883" stroke="#C4976D" stroke-width="0.301415"/>
<path d="M55.5475 55.4787L55.1694 55.1021" stroke="#C98B87" stroke-width="0.301415"/>
<path d="M55.169 55.1013L53.6099 53.5708" stroke="#CCA8A8" stroke-width="0.301415"/>
<path d="M53.6096 53.5707L53.1938 53.1323" stroke="#CDB7BC" stroke-width="0.301415"/>
<path d="M53.1938 53.1324C53.4018 53.3002 53.5857 53.2474 53.7454 52.9742C54.0619 52.4296 54.3709 51.8815 54.6723 51.3299C55.138 50.4815 54.8667 49.4793 55.0023 48.5388C55.0094 48.4896 54.9958 48.4469 54.9616 48.4107C54.5999 48.0249 54.303 47.6828 54.1644 47.1418C54.08 46.8087 54.0393 46.2059 53.5164 46.2707" stroke="#BABACE" stroke-width="0.301415"/>
<path d="M53.5161 46.2709L53.7466 46.0269" stroke="#CFC9C6" stroke-width="0.301415"/>
<path d="M55.1693 55.1019C54.8569 55.4967 54.3646 55.8499 53.6924 56.1614C51.6036 57.1309 49.563 57.2243 47.5707 56.4417C46.996 56.2156 46.5529 56.0056 46.2414 55.8117C45.8094 55.5435 45.4467 55.2014 45.1533 54.7854" stroke="#F69373" stroke-width="0.301415"/>
<path d="M53.5148 46.2705L51.8652 47.911" stroke="#EAE3D8" stroke-width="0.301415"/>
<path d="M51.8657 47.9117C50.5365 46.7683 49.2298 46.7693 47.9458 47.9147" stroke="#FFD200" stroke-width="0.301415"/>
<path d="M47.9453 47.9139L46.4419 46.4316" stroke="#E3E4C7" stroke-width="0.301415"/>
<path d="M47.9455 47.915C47.0322 49.2292 47.1126 50.4811 48.1866 51.6707" stroke="#3F9244" stroke-width="0.301415"/>
<path d="M48.1867 51.6704L46.6924 53.2145" stroke="#E2D3BD" stroke-width="0.301415"/>
<path d="M46.6914 53.2148L46.1792 53.7105" stroke="#E0C3A9" stroke-width="0.301415"/>
<path d="M53.6098 53.5705C52.5358 54.4135 51.3432 54.8179 50.0321 54.7837C49.7382 54.7762 49.4835 54.6556 49.1791 54.6224C48.8535 54.5863 48.6405 54.5531 48.5401 54.523C47.7644 54.2829 47.1485 53.8468 46.6924 53.2148" stroke="#FBC0A7" stroke-width="0.301415"/>
<path d="M53.1929 53.1318L51.6353 51.657" stroke="#E9D2CE" stroke-width="0.301415"/>
<path d="M51.6353 51.6567C52.7244 50.4611 52.8012 49.2127 51.8658 47.9116" stroke="#223C77" stroke-width="0.301415"/>
<path d="M51.6352 51.657C50.5109 52.5582 49.3761 52.3909 48.187 51.6705" stroke="#EE3524" stroke-width="0.301415"/>
<path d="M65.5155 70.3923C65.8581 68.2191 65.4894 66.2675 64.4093 64.5373C63.915 63.7461 63.1208 63.0318 62.417 62.3506" stroke="#88394E" stroke-width="0.301415"/>
<path d="M49.4691 17H50.2197C52.9776 17.2246 54.5178 18.7467 56.4454 20.7014C57.0392 21.3042 57.7611 21.8724 58.3548 22.4586C61.0987 25.1603 65.1447 29.1711 70.4928 34.4911C68.0031 34.0219 65.8314 34.5383 63.9777 36.0404C63.7065 36.2604 63.19 36.7502 62.4285 37.5098C55.4115 30.6887 44.6525 30.6646 37.5241 37.3364C36.7464 36.5849 36.2536 36.0851 36.0456 35.8369C34.7119 34.2409 34.0005 31.8236 34.4542 29.7167C34.4738 29.6232 34.4466 29.575 34.4059 29.4951C37.6281 26.2851 40.8638 23.0886 44.113 19.9056C45.7708 18.2825 47.0985 17.1869 49.4691 17Z" fill="#FFD200"/>
<path d="M34.4064 29.4946C34.4471 29.5745 34.4742 29.6227 34.4546 29.7162C34.001 31.8231 34.7123 34.2404 36.0461 35.8364C36.2541 36.0846 36.7469 36.5844 37.5245 37.3359C30.4398 44.3815 30.372 55.4464 37.5064 62.501C36.8433 63.1054 36.1847 63.8604 35.5216 64.3291C33.8578 65.5097 31.976 65.9402 29.8761 65.6207C29.8339 65.6146 29.7958 65.6247 29.7616 65.6508L29.6998 65.7005C26.4566 62.4232 23.2219 59.1377 19.9958 55.8443C19.5537 55.3942 19.1382 54.92 18.7494 54.4216C15.8227 50.669 16.7872 46.8275 20.0199 43.6611C24.8289 38.9515 29.6184 34.2253 34.4064 29.4946Z" fill="#3F9244"/>
<path d="M62.4288 37.5095C69.3538 44.5023 69.3041 55.3699 62.4167 62.3506C55.3802 69.2289 44.6453 69.1339 37.5063 62.5013C30.3718 55.4467 30.4397 44.3818 37.5244 37.3362C44.6529 30.6644 55.4119 30.6885 62.4288 37.5095ZM38.3744 38.2601C31.787 44.8324 31.7779 55.0579 38.3925 61.6031C45.0085 67.8725 54.9251 67.7399 61.4929 61.5082C67.9236 55.079 67.9974 44.7977 61.514 38.3686C54.9748 32.0057 44.9588 32.0524 38.3744 38.2601Z" fill="white"/>
<path d="M61.5141 38.369L58.7908 41.1104L57.5008 42.3658C56.7291 41.5439 55.841 40.8839 54.8363 40.3855C54.8031 40.3684 54.781 40.3423 54.77 40.3071C54.7619 40.28 54.7474 40.2614 54.7263 40.2514C51.7001 38.9242 48.7055 38.9493 45.7426 40.3267C44.5882 40.8633 43.6025 41.8338 42.6561 42.6552L42.3743 42.3944L38.3745 38.2605C44.9589 32.0529 54.9749 32.0062 61.5141 38.369Z" fill="#FFD200"/>
<path d="M70.4934 34.4913C73.6914 37.6641 76.918 40.8611 80.1733 44.0823C82.4535 46.3368 83.6306 48.9004 82.6555 52.115C82.226 53.5301 81.4619 54.4163 80.2954 55.5812C75.4265 60.438 70.5778 65.3159 65.7491 70.2149C65.7019 70.2621 65.624 70.3214 65.5155 70.3927C65.8581 68.2195 65.4894 66.2679 64.4093 64.5378C63.915 63.7466 63.1208 63.0322 62.417 62.351C69.3043 55.3702 69.3541 44.5027 62.4291 37.5099C63.1906 36.7504 63.7071 36.2606 63.9783 36.0405C65.832 34.5385 68.0037 34.022 70.4934 34.4913Z" fill="#223C77"/>
<path d="M38.3743 38.2605L42.3741 42.3944C42.2143 42.3482 42.1098 42.2869 42.0606 42.2105C42.0382 42.1757 42.0081 42.1465 41.9727 42.125C41.9373 42.1035 41.8974 42.0904 41.8562 42.0866C41.8149 42.0828 41.7733 42.0885 41.7346 42.1032C41.6959 42.1179 41.661 42.1412 41.6326 42.1714C40.2928 43.6016 39.7367 45.0288 39.1459 46.8764C38.7179 48.2192 38.7677 49.657 38.8747 51.0977C38.9304 51.8453 39.1474 52.4074 39.265 53.1052C39.3002 53.3111 39.3735 53.5467 39.485 53.812C40.125 55.3452 40.9403 56.6217 41.931 57.6415C41.939 57.6495 41.9491 57.6535 41.9611 57.6535C41.9772 57.6535 41.9938 57.653 42.0109 57.652C42.0167 57.6516 42.0226 57.6528 42.0278 57.6554C42.0331 57.658 42.0375 57.662 42.0407 57.6669C42.044 57.6718 42.0458 57.6775 42.0461 57.6833C42.0464 57.6892 42.0452 57.695 42.0425 57.7002L41.9943 57.8042C41.9832 57.8273 41.9903 57.8399 42.0154 57.8419L42.1149 57.8494L41.7969 58.187L38.3924 61.6036C31.7779 55.0583 31.7869 44.8328 38.3743 38.2605Z" fill="#3F9244"/>
<path d="M61.5139 38.3689C67.9973 44.7981 67.9235 55.0793 61.4928 61.5085L61.4762 61.4226C61.4672 61.3744 61.445 61.3322 61.4099 61.296L58.6489 58.4853L59.1945 58.9615C59.2327 58.9947 59.2754 59.0022 59.3226 58.9841C59.4793 58.9259 59.5853 58.8098 59.6406 58.636C59.6426 58.631 59.6451 58.63 59.6481 58.633C59.6612 58.6451 59.6742 58.6576 59.6873 58.6707C59.6933 58.6766 59.701 58.6807 59.7092 58.6826C59.7175 58.6844 59.7261 58.6838 59.7339 58.681C59.7418 58.6781 59.7485 58.673 59.7534 58.6664C59.7582 58.6597 59.7609 58.6518 59.7611 58.6436C59.7752 58.3602 59.8847 58.1301 60.0897 57.9533C60.1158 57.9312 60.1264 57.9036 60.1213 57.8704L60.1063 57.7619C60.1012 57.7247 60.1068 57.6891 60.1228 57.6549C60.3037 57.2781 60.5865 56.9988 60.9713 56.817C61.0137 56.7973 61.0497 56.7659 61.0753 56.7266C61.2984 56.3875 61.6359 56.181 61.8093 55.8449C62.2192 55.0502 62.4 54.1987 62.3518 53.2904C62.3498 53.2432 62.3362 53.199 62.3111 53.1578C62.2267 53.0141 62.1976 52.8544 62.2237 52.6786C62.4015 51.4473 62.7572 50.2265 62.7542 48.9787C62.7542 48.9284 62.7412 48.8795 62.7165 48.837C62.4814 48.4301 62.5296 47.9343 62.4407 47.5771C62.3553 47.2355 62.2895 46.907 62.2433 46.5915C62.2343 46.5332 62.2433 46.5302 62.2704 46.5824L62.3322 46.7C62.3905 46.8125 62.4051 46.8075 62.3759 46.6849C62.2086 45.9751 61.8695 44.9081 62.2433 44.2344C62.2855 44.1581 62.2639 44.1289 62.1785 44.147L62.1197 44.1591C62.1123 44.1607 62.1046 44.1599 62.0977 44.1568C62.0909 44.1536 62.0852 44.1483 62.0816 44.1417C62.078 44.135 62.0767 44.1274 62.0779 44.1199C62.079 44.1124 62.0826 44.1055 62.0881 44.1003L62.1393 44.0491C62.1735 44.0159 62.1885 43.9752 62.1845 43.927C62.069 42.6269 61.3918 41.8005 60.153 41.4478C60.1473 41.4466 60.1415 41.447 60.136 41.4489C60.1306 41.4509 60.1258 41.4544 60.1224 41.459C60.1189 41.4636 60.1168 41.4692 60.1163 41.4749C60.1159 41.4807 60.1171 41.4865 60.1198 41.4916L60.1485 41.5383C60.1756 41.5845 60.166 41.594 60.1198 41.5669L60.0822 41.5443C60.06 41.5312 60.047 41.5121 60.043 41.487L59.8486 40.4426C59.8345 40.3663 59.7963 40.3512 59.734 40.3974L58.7906 41.1103L61.5139 38.3689Z" fill="#223C77"/>
<path d="M57.5009 42.3655L56.9599 42.9292L56.2802 43.5441C55.3518 42.2435 53.9156 41.6602 52.4311 41.2322C51.2405 40.8901 50.0635 40.8961 48.8337 41.0197C48.2098 41.0815 47.6507 41.3814 47.0358 41.5698C46.9944 41.5826 46.9574 41.6066 46.9288 41.6391C46.7766 41.817 46.54 41.7959 46.3863 41.8712C46.014 42.0521 45.3705 42.575 45.0193 42.6398C44.9671 42.6499 44.9209 42.6725 44.8807 42.7076L44.1935 43.321C44.1633 43.3471 44.1297 43.3547 44.0925 43.3436C44.0443 43.3306 44.0076 43.3481 43.9825 43.3964C43.8961 43.5591 43.8001 43.6581 43.6946 43.6933L42.6562 42.6549C43.6027 41.8335 44.5883 40.863 45.7427 40.3265C48.7056 38.949 51.7002 38.9239 54.7264 40.2511C54.7475 40.2612 54.7621 40.2797 54.7701 40.3069C54.7812 40.342 54.8033 40.3682 54.8364 40.3852C55.8411 40.8836 56.7293 41.5437 57.5009 42.3655Z" fill="#FFD200"/>
<path d="M58.6489 58.4849C58.5745 58.4467 58.5022 58.3799 58.4319 58.2844L57.0047 56.8889C57.5352 56.7186 58.2088 56.4775 58.5344 55.9831C59.0568 55.1904 59.4095 54.5911 59.5923 54.1852C59.6456 54.0656 59.7028 53.7657 59.7641 53.2855C59.7671 53.2543 59.7822 53.2312 59.8093 53.2162L59.8666 53.1815C59.9128 53.1544 59.9395 53.1137 59.9465 53.0594C60.0339 52.3953 60.1077 51.7292 60.168 51.061C60.2072 50.6315 60.3489 49.9217 60.3037 49.3143C60.3007 49.2701 60.2861 49.2299 60.26 49.1938C59.8078 48.5623 60.1514 47.4426 59.9962 46.6664C59.9073 46.2248 59.9239 45.7878 59.7596 45.3598C59.7468 45.3263 59.7437 45.2893 59.7506 45.2528C59.8606 44.6831 59.633 44.5776 59.2261 44.3485C59.206 44.3365 59.1864 44.3335 59.1673 44.3395C59.1322 44.3505 59.099 44.347 59.0679 44.3289L58.5992 44.0516C58.5922 44.0476 58.586 44.0414 58.5811 44.0336C58.2626 43.5603 57.9577 43.0791 57.6663 42.5898C57.6554 42.5718 57.6388 42.558 57.6191 42.5506C57.5994 42.5432 57.5778 42.5427 57.5578 42.5491C57.3448 42.6174 57.1453 42.744 56.9595 42.9289L57.5005 42.3652L58.7906 41.1098L59.734 40.397C59.7963 40.3508 59.8345 40.3658 59.8485 40.4422L60.0429 41.4866C60.047 41.5117 60.06 41.5308 60.0821 41.5439L60.1198 41.5665C60.166 41.5936 60.1756 41.5841 60.1484 41.5378L60.1198 41.4911C60.1171 41.486 60.1158 41.4803 60.1163 41.4745C60.1167 41.4687 60.1188 41.4632 60.1223 41.4586C60.1258 41.454 60.1306 41.4505 60.136 41.4485C60.1414 41.4465 60.1473 41.4461 60.153 41.4474C61.3918 41.8001 62.069 42.6265 62.1845 43.9266C62.1885 43.9748 62.1734 44.0155 62.1393 44.0486L62.088 44.0999C62.0826 44.1051 62.079 44.112 62.0778 44.1195C62.0767 44.1269 62.078 44.1346 62.0816 44.1413C62.0852 44.1479 62.0908 44.1532 62.0977 44.1564C62.1046 44.1595 62.1123 44.1603 62.1197 44.1586L62.1785 44.1466C62.2639 44.1285 62.2855 44.1576 62.2433 44.234C61.8695 44.9077 62.2086 45.9747 62.3759 46.6845C62.405 46.8071 62.3905 46.8121 62.3322 46.6996L62.2704 46.582C62.2433 46.5298 62.2342 46.5328 62.2433 46.5911C62.2895 46.9065 62.3553 47.2351 62.4407 47.5767C62.5296 47.9339 62.4814 48.4297 62.7165 48.8366C62.7412 48.8791 62.7542 48.9279 62.7542 48.9783C62.7572 50.2261 62.4015 51.4468 62.2237 52.6781C62.1976 52.854 62.2267 53.0137 62.3111 53.1574C62.3362 53.1986 62.3498 53.2428 62.3518 53.29C62.4 54.1983 62.2192 55.0498 61.8092 55.8445C61.6359 56.1806 61.2983 56.387 61.0753 56.7261C61.0497 56.7655 61.0136 56.7968 60.9713 56.8166C60.5865 56.9984 60.3037 57.2777 60.1228 57.6545C60.1067 57.6886 60.1012 57.7243 60.1062 57.7615L60.1213 57.87C60.1263 57.9031 60.1158 57.9308 60.0897 57.9529C59.8847 58.1297 59.7752 58.3598 59.7611 58.6431C59.7609 58.6514 59.7582 58.6593 59.7533 58.6659C59.7485 58.6726 59.7418 58.6777 59.7339 58.6805C59.7261 58.6834 59.7175 58.684 59.7092 58.6821C59.7009 58.6803 59.6933 58.6762 59.6873 58.6702C59.6742 58.6572 59.6611 58.6446 59.6481 58.6326C59.6451 58.6296 59.6426 58.6306 59.6406 58.6356C59.5853 58.8094 59.4793 58.9254 59.3226 58.9837C59.2753 59.0018 59.2326 58.9943 59.1945 58.9611L58.6489 58.4849Z" fill="#223C77"/>
<path d="M56.2799 43.544L55.5761 44.2539L53.7465 46.0262C53.0462 45.4565 52.3685 45.0672 51.7135 44.8582C50.0587 44.3322 47.8132 44.8974 46.6452 46.204C46.5919 46.2633 46.5598 46.3321 46.5487 46.4105C46.5467 46.4256 46.5111 46.4326 46.4417 46.4316L46.3016 46.3065L44.3801 44.385L43.6943 43.6932C43.7998 43.6581 43.8958 43.5591 43.9822 43.3963C44.0073 43.3481 44.044 43.3305 44.0922 43.3436C44.1294 43.3547 44.163 43.3471 44.1932 43.321L44.8804 42.7076C44.9206 42.6724 44.9668 42.6498 45.019 42.6398C45.3702 42.575 46.0137 42.052 46.386 41.8712C46.5397 41.7958 46.7763 41.8169 46.9285 41.6391C46.9571 41.6066 46.9941 41.5826 47.0355 41.5698C47.6504 41.3814 48.2095 41.0815 48.8335 41.0197C50.0632 40.8961 51.2402 40.8901 52.4308 41.2322C53.9153 41.6602 55.3515 42.2434 56.2799 43.544Z" fill="#FFD200"/>
<path d="M42.3738 42.3946L42.6557 42.6553L43.694 43.6937L44.3798 44.3855C44.2873 44.3835 44.1999 44.3262 44.1175 44.2137C44.0773 44.1584 44.0356 44.1574 43.9924 44.2106C41.8207 46.8721 41.5284 49.9119 42.6542 53.0813C42.8305 53.5786 43.1982 54.0051 43.4424 54.4994C43.4614 54.5366 43.4901 54.5642 43.5283 54.5823C43.676 54.6516 44.1115 55.3841 44.3436 55.589L42.1146 57.8496L42.0152 57.8421C41.99 57.8401 41.983 57.8275 41.9941 57.8044L42.0423 57.7005C42.045 57.6952 42.0462 57.6894 42.0459 57.6835C42.0456 57.6777 42.0437 57.672 42.0405 57.6671C42.0373 57.6622 42.0328 57.6583 42.0276 57.6556C42.0223 57.653 42.0165 57.6518 42.0106 57.6522C41.9936 57.6532 41.977 57.6537 41.9609 57.6537C41.9488 57.6537 41.9388 57.6497 41.9308 57.6417C40.9401 56.6219 40.1248 55.3454 39.4848 53.8122C39.3733 53.547 39.2999 53.3114 39.2647 53.1054C39.1472 52.4076 38.9302 51.8455 38.8744 51.098C38.7674 49.6572 38.7177 48.2195 39.1457 46.8767C39.7365 45.029 40.2926 43.6018 41.6324 42.1716C41.6607 42.1414 41.6956 42.1181 41.7344 42.1034C41.7731 42.0887 41.8147 42.0831 41.8559 42.0868C41.8972 42.0906 41.937 42.1037 41.9724 42.1252C42.0079 42.1467 42.0379 42.1759 42.0604 42.2108C42.1096 42.2871 42.2141 42.3484 42.3738 42.3946Z" fill="#3F9244"/>
<path d="M57.0052 56.8892L55.5479 55.4786C56.0191 55.147 56.3456 54.7753 56.5274 54.3633C56.9715 53.3506 57.4116 52.3363 57.8476 51.3205C58.1897 50.5218 57.9562 49.1865 57.7964 48.3501C57.7391 48.0532 57.7813 47.6644 57.605 47.2846C57.5839 47.2394 57.599 47.1831 57.6502 47.1158C57.6639 47.0982 57.6717 47.0767 57.6725 47.0543C57.6733 47.0318 57.6671 47.0096 57.6547 46.9907C57.1845 46.2502 56.763 45.4821 56.3903 44.6864C56.214 44.3096 55.9668 44.2448 55.5765 44.2539L56.2803 43.544L56.96 42.9292C57.1459 42.7443 57.3453 42.6177 57.5583 42.5494C57.5783 42.543 57.5999 42.5435 57.6196 42.5509C57.6393 42.5583 57.6559 42.5721 57.6668 42.5901C57.9582 43.0794 58.2631 43.5606 58.5816 44.0338C58.5865 44.0417 58.5927 44.0479 58.5997 44.0519L59.0684 44.3292C59.0995 44.3473 59.1327 44.3508 59.1678 44.3398C59.1869 44.3338 59.2065 44.3368 59.2266 44.3488C59.6335 44.5779 59.8611 44.6834 59.7511 45.2531C59.7442 45.2896 59.7473 45.3266 59.7601 45.3601C59.9244 45.7881 59.9078 46.2251 59.9967 46.6667C60.152 47.4428 59.8083 48.5626 60.2605 49.1941C60.2866 49.2302 60.3012 49.2704 60.3042 49.3146C60.3494 49.922 60.2077 50.6318 60.1685 51.0613C60.1083 51.7295 60.0344 52.3956 59.947 53.0597C59.94 53.114 59.9133 53.1547 59.8671 53.1818L59.8098 53.2164C59.7827 53.2315 59.7677 53.2546 59.7646 53.2858C59.7034 53.766 59.6461 54.0659 59.5928 54.1855C59.41 54.5914 59.0573 55.1907 58.5349 55.9834C58.2093 56.4778 57.5357 56.7189 57.0052 56.8892Z" fill="#223C77"/>
<path d="M44.3802 44.3847L46.3018 46.3062C46.1601 46.261 46.0436 46.169 45.9521 46.0304C45.925 45.9892 45.8903 45.9822 45.8481 46.0093C45.5121 46.2293 45.3885 46.6332 45.1564 47.0567C44.0924 49.0054 44.3848 51.3293 45.6462 53.2101C45.7306 53.3367 45.9084 53.5035 46.1797 53.7104L45.1534 54.785L44.3441 55.5883C44.112 55.3833 43.6765 54.6509 43.5288 54.5815C43.4906 54.5634 43.4619 54.5358 43.4429 54.4986C43.1987 54.0043 42.831 53.5778 42.6546 53.0805C41.5289 49.9111 41.8212 46.8713 43.9929 44.2099C44.0361 44.1566 44.0778 44.1576 44.118 44.2129C44.2004 44.3254 44.2878 44.3827 44.3802 44.3847Z" fill="#3F9244"/>
<path d="M55.5765 44.2542C55.9669 44.2452 56.214 44.31 56.3903 44.6867C56.7631 45.4825 57.1846 46.2506 57.6548 46.991C57.6671 47.01 57.6733 47.0322 57.6725 47.0546C57.6717 47.077 57.6639 47.0985 57.6503 47.1161C57.599 47.1834 57.5839 47.2397 57.605 47.2849C57.7814 47.6647 57.7392 48.0535 57.7964 48.3504C57.9562 49.1869 58.1898 50.5221 57.8477 51.3209C57.4116 52.3366 56.9716 53.3509 56.5275 54.3636C56.3456 54.7756 56.0191 55.1473 55.5479 55.4789L55.1696 55.1021L53.6098 53.5709L53.1938 53.1324C53.4018 53.3002 53.5857 53.2474 53.7454 52.9741C54.0619 52.4296 54.3709 51.8815 54.6723 51.3299C55.138 50.4814 54.8667 49.4792 55.0023 48.5388C55.0094 48.4896 54.9958 48.4469 54.9616 48.4107C54.5999 48.0249 54.303 47.6828 54.1644 47.1418C54.08 46.8087 54.0393 46.2059 53.5164 46.2707L53.7469 46.0265L55.5765 44.2542Z" fill="#223C77"/>
<path d="M53.7467 46.0264L53.5161 46.2706L51.8658 47.9118C50.5366 46.7684 49.23 46.7694 47.946 47.9148L46.4419 46.4318C46.5112 46.4328 46.5469 46.4258 46.5489 46.4107C46.56 46.3324 46.5921 46.2635 46.6454 46.2043C47.8133 44.8976 50.0589 44.3325 51.7136 44.8584C52.3687 45.0674 53.0464 45.4568 53.7467 46.0264Z" fill="#FFD200"/>
<path d="M46.3013 46.3067L46.4415 46.4318L47.9456 47.9147C47.0323 49.2289 47.1126 50.4808 48.1867 51.6704L46.6917 53.2151L46.1793 53.7109C45.908 53.504 45.7302 53.3372 45.6458 53.2106C44.3843 51.3298 44.092 49.0059 45.156 47.0572C45.3881 46.6337 45.5116 46.2298 45.8477 46.0098C45.8899 45.9827 45.9246 45.9897 45.9517 46.0309C46.0431 46.1696 46.1597 46.2615 46.3013 46.3067Z" fill="#3F9244"/>
<path d="M53.5161 46.2707C54.039 46.2059 54.0797 46.8087 54.1641 47.1418C54.3028 47.6828 54.5997 48.0249 54.9614 48.4107C54.9955 48.4469 55.0091 48.4896 55.0021 48.5388C54.8664 49.4793 55.1377 50.4815 54.672 51.3299C54.3706 51.8815 54.0616 52.4296 53.7452 52.9742C53.5854 53.2474 53.4015 53.3002 53.1936 53.1324L51.6353 51.657C52.7244 50.4614 52.8012 49.213 51.8658 47.9119L53.5161 46.2707Z" fill="#223C77"/>
<path d="M51.6356 51.657L53.1939 53.1324L53.6098 53.571C52.5358 54.4139 51.3432 54.8183 50.0321 54.7842C49.7382 54.7766 49.4835 54.6561 49.1791 54.6229C48.8535 54.5867 48.6405 54.5536 48.5401 54.5234C47.7644 54.2833 47.1485 53.8473 46.6924 53.2153L48.1874 51.6705C49.3765 52.3909 50.5113 52.5582 51.6356 51.657Z" fill="#EE3524"/>
<path d="M46.692 53.2153C47.1482 53.8473 47.7641 54.2833 48.5397 54.5235C48.6402 54.5536 48.8532 54.5868 49.1787 54.6229C49.4831 54.6561 49.7378 54.7767 50.0317 54.7842C51.3429 54.8184 52.5355 54.414 53.6095 53.571L55.1693 55.1022C54.8569 55.497 54.3646 55.8502 53.6924 56.1617C51.6036 57.1312 49.563 57.2246 47.5707 56.442C46.996 56.2159 46.5529 56.0059 46.2414 55.812C45.8094 55.5438 45.4467 55.2017 45.1533 54.7857L46.1796 53.7112L46.692 53.2153Z" fill="#EE3524"/>
<path d="M45.1526 54.7854C45.446 55.2014 45.8087 55.5435 46.2408 55.8117C46.5522 56.0056 46.9953 56.2156 47.57 56.4417C49.5623 57.2243 51.6029 57.1309 53.6917 56.1614C54.3639 55.8499 54.8562 55.4967 55.1687 55.1019L55.5469 55.4787L57.0043 56.8893L58.4315 58.2848C58.4425 58.4275 58.4249 58.5139 58.3787 58.544C58.1391 58.7038 57.9793 58.9208 57.7563 59.073C57.1715 59.4709 56.5793 59.8577 55.9795 60.2335C55.4671 60.5545 54.8853 60.7444 54.3187 60.9569C51.401 62.0465 47.6936 61.8837 44.8919 60.3962C43.7556 59.7944 42.7237 59.058 41.7964 58.1869L42.1144 57.8493L44.3433 55.5887L45.1526 54.7854Z" fill="#EE3524"/>
<path d="M41.7971 58.1868C42.7244 59.0579 43.7563 59.7943 44.8926 60.3961C47.6942 61.8836 51.4016 62.0464 54.3193 60.9568C54.886 60.7443 55.4677 60.5544 55.9801 60.2334C56.5799 59.8576 57.1722 59.4708 57.757 59.0729C57.98 58.9207 58.1398 58.7037 58.3794 58.5439C58.4256 58.5138 58.4432 58.4274 58.4321 58.2847C58.5025 58.3802 58.5748 58.447 58.6491 58.4852L61.4101 61.2959C61.4453 61.332 61.4674 61.3742 61.4764 61.4225L61.493 61.5084C54.9252 67.7401 45.0086 67.8727 38.3926 61.6033L41.7971 58.1868Z" fill="#EE3524"/>
<path d="M62.4168 62.3506C63.1206 63.0318 63.9148 63.7461 64.4091 64.5373C65.4892 66.2675 65.8579 68.2191 65.5153 70.3923C65.3154 70.6445 65.0808 70.8957 64.8115 71.1459C61.5592 74.1721 58.4562 77.4138 55.3109 80.5545C53.938 81.9244 52.6434 82.6584 50.7686 82.8588H49.6729C47.4636 82.676 45.5622 81.7677 43.9687 80.134C40.1889 76.2599 35.4326 71.4488 29.6997 65.7008L29.7615 65.6511C29.7957 65.625 29.8338 65.6149 29.876 65.6209C31.9759 65.9404 33.8577 65.5099 35.5215 64.3294C36.1846 63.8607 36.8432 63.1056 37.5063 62.5013C44.6453 69.1339 55.3802 69.2289 62.4168 62.3506Z" fill="#EE3524"/>
<g filter="url(#filter0_f_81_515)">
<path d="M54.36 46.2846C56.367 49.1029 56.2021 51.807 53.8653 54.3969C51.453 56.3491 49.0181 55.9867 46.4668 54.4263C44.1623 51.8495 43.9899 49.1378 45.9494 46.2911C48.7045 43.8101 51.508 43.8079 54.36 46.2846Z" fill="white"/>
</g>
<g filter="url(#filter1_f_81_515)">
<path d="M54.36 46.2846C56.367 49.1029 56.2021 51.807 53.8653 54.3969C51.453 56.3491 49.0181 55.9867 46.4668 54.4263C44.1623 51.8495 43.9899 49.1378 45.9494 46.2911C48.7045 43.8101 51.508 43.8079 54.36 46.2846Z" fill="white"/>
</g>
<defs>
<filter id="filter0_f_81_515" x="39.6253" y="39.4554" width="21.099" height="21.2497" filterUnits="userSpaceOnUse" color-interpolation-filters="sRGB">
<feFlood flood-opacity="0" result="BackgroundImageFix"/>
<feBlend mode="normal" in="SourceGraphic" in2="BackgroundImageFix" result="shape"/>
<feGaussianBlur stdDeviation="2.48667" result="effect1_foregroundBlur_81_515"/>
</filter>
<filter id="filter1_f_81_515" x="37.6661" y="37.4962" width="25.0174" height="25.168" filterUnits="userSpaceOnUse" color-interpolation-filters="sRGB">
<feFlood flood-opacity="0" result="BackgroundImageFix"/>
<feBlend mode="normal" in="SourceGraphic" in2="BackgroundImageFix" result="shape"/>
<feGaussianBlur stdDeviation="3.46627" result="effect1_foregroundBlur_81_515"/>
</filter>
</defs>
</svg>
