<svg width="100" height="100" viewBox="0 0 100 100" fill="none" xmlns="http://www.w3.org/2000/svg">
<rect width="100" height="100" fill="#363E6C"/>
<path d="M82.948 55.3332C82.8501 50.1249 82.6492 36.4803 74.9753 35.9549C71.9647 35.7488 69.6135 38.9995 68.1834 41.224C66.4525 43.9172 64.7349 47.1164 63.4872 49.6427C61.6347 53.3911 59.7458 57.1208 57.8204 60.8321C56.99 62.4311 56.0483 64.0776 54.9056 65.3191C53.763 66.5617 51.9115 67.4138 50.2795 66.6616C48.1065 65.6591 46.4075 62.7608 45.3566 60.6806C42.1131 54.2565 40.0411 47.9777 36.3659 42.1214C34.7607 39.562 31.7501 35.6973 28.2449 36.3093C26.856 36.5514 25.5537 37.5014 24.6501 38.5956C22.4638 41.2415 21.5519 44.3891 20.9389 47.6583C20.2335 51.417 19.6431 55.3483 19.1678 59.4525C18.3888 66.177 17.7995 72.9318 17.3997 79.7169C14.8479 77.5724 13.0737 74.9994 12.0771 71.9977C9.13547 63.1369 12.6571 53.3313 17.4224 45.8398C22.8069 37.3736 30.217 30.4767 38.7697 25.1272C42.8889 22.55 47.241 20.4561 51.826 18.8453C58.2202 16.5972 65.2439 15.3834 72.0142 16.3179C75.2875 16.7702 78.496 17.7707 81.2408 19.4944C85.6083 22.2351 88.521 26.5305 89.3649 31.6677C90.7228 39.9288 87.3939 48.5114 82.948 55.3332Z" fill="#07114A"/>
<path d="M82.9482 55.333C81.0441 58.2502 78.8945 61.0001 76.4994 63.5828C76.4904 63.5814 76.4815 63.58 76.4726 63.5787C76.4637 63.5773 76.4592 63.5725 76.4592 63.5642C76.4317 61.8807 76.3204 60.1182 76.1254 58.2766C76.0168 57.2573 75.8231 56.285 75.5443 55.3598C74.4202 51.6352 71.6012 54.5335 70.4194 56.0779C69.5443 57.2216 68.7259 58.4047 67.9642 59.6274C65.9468 62.8647 64.0273 66.0741 61.7585 69.2351C60.1512 71.4751 58.2307 73.749 55.9001 75.1997C51.3059 78.0588 47.0382 75.7509 44.0843 71.9841C42.249 69.6438 40.6386 67.3843 39.2531 65.2056C38.036 63.2912 36.8243 61.3738 35.6181 59.4533C34.7341 58.0438 32.2253 53.9173 30.4418 53.7875C28.4615 53.6443 27.5744 58.2344 27.3353 59.5645C25.9341 67.361 25.2747 75.2821 24.1341 83.1208C24.119 83.2218 24.096 83.2829 24.0651 83.3042C21.5985 82.5171 19.3768 81.3212 17.3999 79.7166C17.7997 72.9316 18.389 66.1768 19.1679 59.4522C19.6433 55.3481 20.2336 51.4167 20.9391 47.6581C21.5521 44.3889 22.464 41.2412 24.6503 38.5954C25.5539 37.5012 26.8562 36.5512 28.2451 36.3091C31.7503 35.6971 34.7609 39.5618 36.3661 42.1211C40.0413 47.9775 42.1133 54.2563 45.3568 60.6804C46.4077 62.7606 48.1067 65.6589 50.2797 66.6614C51.9117 67.4135 53.7632 66.5615 54.9058 65.3189C56.0484 64.0773 56.9902 62.4309 57.8206 60.8318C59.7459 57.1206 61.6349 53.3908 63.4874 49.6425C64.7351 47.1161 66.4527 43.917 68.1836 41.2237C69.6137 38.9993 71.9649 35.7486 74.9755 35.9546C82.6494 36.4801 82.8503 50.1247 82.9482 55.333Z" fill="#FEFEFE"/>
<path d="M76.4997 63.5828C69.7336 70.8188 61.4147 76.705 52.2685 80.5358C45.1737 83.5062 37.1877 85.3021 29.4654 84.4613C27.6163 84.2601 25.8163 83.8744 24.0654 83.3043C24.0963 83.283 24.1193 83.2218 24.1345 83.1209C25.275 75.2822 25.9344 67.361 27.3357 59.5646C27.5747 58.2344 28.4618 53.6443 30.4421 53.7875C32.2256 53.9174 34.7345 58.0438 35.6185 59.4533C36.8246 61.3738 38.0363 63.2913 39.2535 65.2056C40.6389 67.3844 42.2493 69.6439 44.0847 71.9841C47.0386 75.751 51.3062 78.0589 55.9004 75.1997C58.231 73.749 60.1516 71.4751 61.7589 69.2352C64.0276 66.0742 65.9471 62.8647 67.9645 59.6274C68.7263 58.4048 69.5447 57.2216 70.4198 56.078C71.6016 54.5335 74.4205 51.6352 75.5446 55.3598C75.8235 56.2851 76.0172 57.2573 76.1257 58.2767C76.3208 60.1182 76.4321 61.8807 76.4595 63.5643C76.4595 63.5725 76.464 63.5773 76.4729 63.5787C76.4819 63.5801 76.4908 63.5815 76.4997 63.5828Z" fill="#07114A"/>
</svg>
