<svg width="100" height="100" viewBox="0 0 100 100" fill="none" xmlns="http://www.w3.org/2000/svg">
<rect width="100" height="100" fill="#F36F21"/>
<path d="M33.5061 43.926C30.8362 46.8884 28.1692 49.8532 25.505 52.8206C25.1769 53.1861 24.9255 53.432 24.751 53.5582C23.61 54.3835 22.0259 54.1731 21.0778 53.1177C18.3283 50.0556 15.5802 46.9969 12.8336 43.9418C12.8311 43.9392 12.8279 43.9373 12.8244 43.9365C12.8209 43.9357 12.8172 43.9359 12.8138 43.9372C12.8105 43.9386 12.8076 43.9409 12.8055 43.9438C12.8035 43.9468 12.8024 43.9504 12.8024 43.954C12.8024 49.0909 12.8024 54.2299 12.8024 59.3707C12.8024 60.2183 12.189 60.8967 11.3256 60.9776C11.0735 61.0008 10.6405 60.9987 10.0264 60.9712C10.0088 60.9705 10 60.9614 10 60.9437V39.0276C10 39.0205 10.0028 39.0136 10.0079 39.0086C10.013 39.0035 10.0198 39.0007 10.027 39.0007C10.7017 39.0007 11.38 39.0007 12.0621 39.0007C12.6723 39.0001 13.0356 39.2846 13.4538 39.7636C16.6841 43.4642 19.913 47.1638 23.1405 50.8626C23.143 50.8654 23.1461 50.8677 23.1496 50.8692C23.153 50.8708 23.1568 50.8716 23.1606 50.8716C23.1644 50.8716 23.1681 50.8708 23.1716 50.8692C23.175 50.8677 23.1781 50.8654 23.1807 50.8626C26.4445 47.1226 29.7098 43.381 32.9768 39.6378C33.4458 39.1011 33.8318 39.0038 34.5673 39.0017C35.1429 39 35.718 38.9998 36.2926 39.0012C36.2995 39.0013 36.3061 39.0042 36.3109 39.0091C36.3158 39.0141 36.3185 39.0207 36.3185 39.0276V60.9564C36.3185 60.9636 36.3157 60.9704 36.3106 60.9755C36.3055 60.9806 36.2987 60.9834 36.2915 60.9834C35.7823 60.9834 35.1241 61.0447 34.6677 60.912C34.1171 60.7516 33.7593 60.3942 33.5944 59.8397C33.5496 59.6895 33.5272 59.489 33.5272 59.238C33.5315 54.1366 33.5316 49.0354 33.5278 43.9344C33.5278 43.9129 33.5205 43.9101 33.5061 43.926Z" fill="white"/>
<path d="M58.8961 39.0012C59.4994 39.0017 60.052 39.4168 60.2259 39.9995C60.265 40.1313 60.2846 40.3663 60.2846 40.7043C60.2842 43.5793 60.2844 46.4543 60.2851 49.3293C60.2857 50.042 60.0133 50.6173 59.298 50.8378C59.1397 50.8868 58.9047 50.9113 58.5931 50.9113C53.6363 50.9106 48.6796 50.9104 43.7231 50.9107C43.7158 50.9107 43.7088 50.9137 43.7037 50.919C43.6985 50.9242 43.6956 50.9313 43.6956 50.9388C43.6942 53.7112 43.6944 56.4871 43.6961 59.2666C43.6967 60.0629 43.3276 60.6878 42.5456 60.9147C42.0745 61.0511 41.3871 60.9829 40.8673 60.9834C40.86 60.9834 40.8531 60.9805 40.8479 60.9754C40.8427 60.9702 40.8398 60.9632 40.8398 60.9559V39.0276C40.8398 39.0104 40.8487 39.0017 40.8663 39.0017C46.8775 38.9996 52.8874 38.9994 58.8961 39.0012Z" fill="white"/>
<path d="M67.2922 43.9397C67.2887 49.0174 67.2887 54.101 67.2922 59.1904C67.2933 59.9952 66.9951 60.6423 66.1893 60.8983C65.7277 61.0447 65.0477 60.9881 64.5227 60.9813C64.4997 60.9809 64.4883 60.9693 64.4883 60.9464V39.0276C64.4883 39.0205 64.4911 39.0136 64.496 39.0085C64.501 39.0035 64.5077 39.0007 64.5147 39.0007C65.2028 39.0003 65.8946 39.0005 66.5901 39.0012C67.2119 39.0017 67.5709 39.3316 68.0039 39.8276C71.2163 43.5081 74.4237 47.1832 77.6261 50.8531C77.6448 50.8746 77.6637 50.8746 77.6827 50.8531C80.9056 47.16 84.1218 43.4747 87.3313 39.7975C87.8553 39.1968 88.1667 39.0054 88.9382 39.0022C89.5572 38.9998 90.1758 38.9996 90.7941 39.0017C90.801 39.0017 90.8075 39.0044 90.8124 39.0093C90.8173 39.0142 90.82 39.0207 90.82 39.0276V60.957C90.82 60.9606 90.8193 60.9642 90.8179 60.9676C90.8164 60.971 90.8144 60.974 90.8118 60.9766C90.8091 60.9791 90.8061 60.9812 90.8027 60.9825C90.7993 60.9839 90.7956 60.9845 90.792 60.9844C90.287 60.9797 89.6462 61.0389 89.2073 60.9236C88.3946 60.71 88.0166 60.066 88.0171 59.2475C88.0182 54.1433 88.0182 49.0418 88.0171 43.9429C88.0172 43.9398 88.0163 43.9369 88.0146 43.9344C88.0129 43.9318 88.0105 43.9299 88.0076 43.9288C88.0048 43.9277 88.0017 43.9275 87.9988 43.9282C87.9958 43.9289 87.9932 43.9305 87.9912 43.9328C85.3785 46.8381 82.7654 49.7434 80.152 52.6487C79.761 53.0834 79.5197 53.34 79.4281 53.4186C78.4885 54.2254 77.0551 54.2752 76.0674 53.5587C75.8915 53.4311 75.64 53.1856 75.3128 52.8221C72.6472 49.8587 69.9815 46.8949 67.3155 43.9307C67.3 43.9134 67.2922 43.9164 67.2922 43.9397Z" fill="white"/>
</svg>
