<svg width="100" height="100" viewBox="0 0 100 100" fill="none" xmlns="http://www.w3.org/2000/svg">
<rect width="100" height="100" fill="#DA251D"/>
<path d="M75.3112 42.1479L75.2891 42.439" stroke="#791C17" stroke-width="0.736754"/>
<path d="M20.9751 47.1578C21.2133 46.7968 21.271 46.3879 21.1482 45.9311C21.1089 45.7838 21.0132 45.7101 20.8609 45.7101L18.8385 45.7322C18.6887 45.7322 18.577 45.7973 18.5033 45.9275L16.0352 50.2227C16.0158 50.2548 15.9872 50.2801 15.953 50.2955C15.9189 50.3108 15.8809 50.3154 15.8441 50.3086C15.8073 50.3018 15.7734 50.2839 15.747 50.2574C15.7206 50.2309 15.7029 50.1969 15.6963 50.1601L15.0663 46.1964C15.0438 46.0523 14.969 45.9216 14.8562 45.8291C14.7434 45.7367 14.6005 45.6891 14.4548 45.6954L12.3551 45.7801C12.2914 45.7835 12.2307 45.8076 12.1821 45.8489C12.1335 45.8902 12.0998 45.9462 12.0862 46.0085L10.3659 54.3743C10.3566 54.4188 10.3573 54.4647 10.3679 54.5088C10.3786 54.553 10.399 54.5942 10.4275 54.6294C10.4561 54.6647 10.4922 54.6932 10.5331 54.7128C10.5741 54.7324 10.6189 54.7426 10.6642 54.7427H12.7198C12.8647 54.7427 12.9506 54.6715 12.9776 54.5291L13.346 52.4404C13.3508 52.4136 13.3648 52.3897 13.3857 52.3729C13.4066 52.356 13.433 52.3472 13.4603 52.3481C13.4875 52.349 13.5139 52.3595 13.5348 52.3777C13.5557 52.3959 13.5697 52.4207 13.5744 52.4477L13.8507 54.4517C13.8654 54.5696 13.9305 54.642 14.0459 54.6691C15.0798 54.9122 15.8105 54.7882 16.2378 54.297" stroke="#E88E8A" stroke-width="0.736754"/>
<path d="M27.7499 49.9539L27.6836 50.477" stroke="#878584" stroke-width="0.736754"/>
<path d="M86.5314 54.9968C85.8364 54.7659 85.1107 54.6824 84.3543 54.7463C84.2875 54.7519 84.2206 54.7382 84.1618 54.7068C84.1029 54.6754 84.0546 54.6277 84.0227 54.5695L82.3945 51.6003" stroke="#E88E8A" stroke-width="0.736754"/>
<path d="M80.98 52.5361L80.4679 54.518C80.4311 54.658 80.3402 54.7304 80.1953 54.7353L74.585 54.9269" stroke="#E88E8A" stroke-width="0.736754"/>
<path d="M27.8857 50.6058C27.9987 50.3038 28.0478 50.0471 28.0331 49.8359" stroke="#878584" stroke-width="0.736754"/>
<path d="M87.0955 54.6801L85.3015 51.081C85.2401 50.9583 85.2695 50.8649 85.3899 50.8011C87.9869 49.4086 87.7622 46.0785 84.4726 45.7801C82.8763 45.6327 81.3132 45.6585 79.7832 45.8574" stroke="#E88E8A" stroke-width="0.736754"/>
<path d="M18.4776 49.8471L17.6414 53.9729C17.6119 54.1154 17.6696 54.1866 17.8145 54.1866L18.8828 54.1976C19.0449 54.1976 19.1419 54.1191 19.1738 53.9619L20.6289 46.6275C20.6355 46.5954 20.6347 46.5622 20.6266 46.5304C20.6185 46.4985 20.6034 46.4689 20.5822 46.4435C20.561 46.4181 20.5344 46.3976 20.5043 46.3836C20.4741 46.3695 20.4412 46.3623 20.4079 46.3623H19.0449C18.9172 46.3623 18.8202 46.4175 18.7539 46.528L15.6743 51.8437C15.5539 52.0525 15.4741 52.0377 15.4348 51.7995L14.606 46.6717C14.5917 46.579 14.5442 46.4946 14.4724 46.4343C14.4006 46.374 14.3093 46.3419 14.2155 46.3438L12.7383 46.3696C12.688 46.3709 12.6397 46.3891 12.6009 46.4211C12.5622 46.4532 12.5353 46.4973 12.5246 46.5464L10.9996 53.8993C10.9932 53.9309 10.9937 53.9636 11.0009 53.9951C11.0081 54.0266 11.0219 54.0562 11.0414 54.082C11.0609 54.1077 11.0856 54.1291 11.114 54.1446C11.1423 54.1601 11.1737 54.1694 11.2059 54.1719L12.2005 54.2382C12.2569 54.2422 12.3128 54.2257 12.3581 54.1919C12.4034 54.1581 12.4351 54.1092 12.4473 54.054L13.4456 49.5082C13.45 49.4842 13.4628 49.4628 13.4817 49.4478C13.5005 49.4327 13.5243 49.4249 13.5488 49.4258C13.5733 49.4267 13.5971 49.4362 13.6159 49.4526C13.6347 49.4689 13.6475 49.4912 13.6519 49.5156L14.2597 53.6119C14.2866 53.7894 14.3681 53.9541 14.4927 54.0833C14.6174 54.2125 14.7792 54.2997 14.9556 54.3328C15.132 54.366 15.3144 54.3435 15.4775 54.2685C15.6405 54.1935 15.7763 54.0696 15.8658 53.914L18.2492 49.7624C18.2645 49.7372 18.2883 49.7179 18.3163 49.708C18.3444 49.6982 18.3749 49.6983 18.4024 49.7085C18.4299 49.7187 18.4526 49.7383 18.4663 49.7637C18.4801 49.7891 18.4841 49.8186 18.4776 49.8471Z" stroke="#878584" stroke-width="0.736754"/>
<path d="M22.6107 51.0407C22.6208 50.9936 22.6468 50.9514 22.6844 50.9212C22.722 50.891 22.7688 50.8747 22.8169 50.8749H26.9317C26.9868 50.8749 27.0396 50.8533 27.0789 50.8147C27.1182 50.7761 27.1407 50.7236 27.1417 50.6686L27.149 49.685C27.1495 49.6571 27.1445 49.6294 27.1341 49.6035C27.1238 49.5776 27.1084 49.5541 27.0889 49.5342C27.0693 49.5143 27.046 49.4985 27.0203 49.4877C26.9946 49.4769 26.967 49.4714 26.9391 49.4714L23.1669 49.4677C23.1362 49.4672 23.1059 49.46 23.0783 49.4465C23.0507 49.433 23.0264 49.4137 23.0071 49.3898C22.9877 49.3659 22.9739 49.3381 22.9665 49.3082C22.9591 49.2784 22.9584 49.2473 22.9643 49.2172L23.2443 47.8026C23.2544 47.7555 23.2804 47.7133 23.318 47.6831C23.3556 47.653 23.4024 47.6366 23.4505 47.6369L27.8011 47.6811C27.8504 47.682 27.8985 47.6655 27.9369 47.6345C27.9753 47.6035 28.0015 47.56 28.011 47.5116L28.1916 46.5428C28.1976 46.512 28.1967 46.4803 28.1889 46.4499C28.1811 46.4196 28.1666 46.3913 28.1465 46.3673C28.1263 46.3433 28.1011 46.3241 28.0725 46.3111C28.044 46.2981 28.0129 46.2917 27.9816 46.2923L22.1133 46.3807C22.0653 46.3815 22.0189 46.3987 21.9821 46.4296C21.9452 46.4604 21.92 46.503 21.9107 46.5501L20.4483 53.9472C20.4423 53.9776 20.4431 54.009 20.4507 54.0391C20.4583 54.0692 20.4725 54.0972 20.4922 54.1212C20.512 54.1451 20.5367 54.1644 20.5648 54.1776C20.5929 54.1909 20.6235 54.1977 20.6546 54.1977L26.7254 54.205C26.772 54.2048 26.8171 54.1891 26.8538 54.1605C26.8905 54.1318 26.9166 54.0917 26.928 54.0466L27.1564 53.1551C27.1643 53.1239 27.165 53.0913 27.1582 53.0598C27.1515 53.0283 27.1377 52.9988 27.1177 52.9735C27.0978 52.9482 27.0723 52.9279 27.0432 52.914C27.0142 52.9002 26.9823 52.8932 26.9501 52.8936L22.4596 52.9194C22.4278 52.9197 22.3964 52.9127 22.3676 52.8991C22.3389 52.8854 22.3137 52.8654 22.2938 52.8406C22.2739 52.8158 22.26 52.7867 22.253 52.7557C22.2459 52.7247 22.2461 52.6925 22.2533 52.6615L22.6107 51.0407Z" stroke="#878584" stroke-width="0.736754"/>
<path d="M34.1703 51.3391C34.2781 51.3398 34.383 51.3752 34.4693 51.44C34.5557 51.5047 34.6189 51.5954 34.6495 51.6985C34.6802 51.8016 34.6766 51.9116 34.6394 52.0121C34.6022 52.1127 34.5333 52.1983 34.4429 52.2563C30.936 54.5403 28.1179 51.0922 30.9986 48.3515C32.0374 47.3643 34.7008 46.9369 35.036 48.8672C35.0655 49.0269 35.16 49.0932 35.3197 49.0662L36.2517 48.9041C36.4285 48.8746 36.5132 48.7702 36.5058 48.591C36.2811 44.0673 27.4806 46.097 28.4163 52.0058C28.9357 55.2881 33.662 54.4261 35.5039 53.2251C35.5737 53.1797 35.6338 53.1204 35.6807 53.0508C35.7275 52.9812 35.7601 52.9027 35.7765 52.8199L36.3143 50.1823C36.3204 50.1548 36.3202 50.1263 36.3137 50.0989C36.3073 50.0715 36.2948 50.0458 36.2771 50.0239C36.2594 50.002 36.237 49.9843 36.2116 49.9722C36.1861 49.9601 36.1583 49.9538 36.1301 49.954H32.6821C32.5446 49.954 32.4635 50.0215 32.439 50.1566L32.2622 51.0554C32.2556 51.0891 32.2565 51.1239 32.2648 51.1571C32.273 51.1904 32.2885 51.2213 32.31 51.2478C32.3315 51.2742 32.3585 51.2954 32.3891 51.31C32.4197 51.3245 32.4531 51.3319 32.4869 51.3317L34.1703 51.3391Z" stroke="#878584" stroke-width="0.736754"/>
<path d="M59.5974 47.204C58.9358 46.4666 57.9425 46.0814 56.8361 46.133C55.7296 46.1846 54.6006 46.6689 53.6975 47.4792C53.2503 47.8805 52.872 48.3497 52.5842 48.8602C52.2964 49.3706 52.1047 49.9122 52.0201 50.4541C51.9355 50.996 51.9597 51.5276 52.0912 52.0185C52.2227 52.5093 52.459 52.9499 52.7866 53.315C53.4482 54.0524 54.4415 54.4376 55.548 54.386C56.6544 54.3344 57.7834 53.8501 58.6866 53.0398C59.1338 52.6385 59.5121 52.1693 59.7999 51.6588C60.0877 51.1484 60.2794 50.6068 60.3639 50.0649C60.4485 49.523 60.4243 48.9914 60.2928 48.5005C60.1613 48.0097 59.925 47.5691 59.5974 47.204Z" stroke="#878584" stroke-width="0.736754"/>
<path d="M41.7073 52.2304L42.0646 53.9838C42.0917 54.1214 42.1764 54.1901 42.3188 54.1901H43.6487C43.7985 54.1901 43.8562 54.1165 43.8218 53.9691L42.0904 46.8336C42.0454 46.6499 41.9473 46.4835 41.8082 46.3553C41.6691 46.2271 41.4952 46.1428 41.3085 46.1129C41.1217 46.083 40.9302 46.1089 40.7581 46.1873C40.5859 46.2657 40.4407 46.3931 40.3406 46.5537L35.7654 53.9581C35.6696 54.1128 35.7126 54.1901 35.8943 54.1901H37.0695C37.1359 54.1903 37.2015 54.1731 37.2602 54.1403C37.3188 54.1074 37.3685 54.0599 37.4047 54.0023L38.5356 52.1825C38.6191 52.0474 38.7407 51.9799 38.9003 51.9799H41.3979C41.5698 51.9799 41.6729 52.0634 41.7073 52.2304Z" stroke="#878584" stroke-width="0.736754"/>
<path d="M46.4923 51.243C48.6952 51.2799 51.167 51.3241 51.8264 48.7639C52.6478 45.5848 47.6048 46.211 45.9323 46.3105C45.8689 46.3148 45.8087 46.3397 45.7614 46.381C45.7141 46.4223 45.6822 46.4779 45.6708 46.5389L44.1789 53.9543C44.147 54.1115 44.2108 54.1901 44.3704 54.1901H45.4719C45.602 54.1901 45.6806 54.1262 45.7076 53.9985L46.2455 51.4383C46.2725 51.3057 46.3548 51.2406 46.4923 51.243Z" stroke="#878584" stroke-width="0.736754"/>
<path d="M63.28 51.4162C63.2696 51.4374 63.2526 51.4546 63.2314 51.465C63.2103 51.4755 63.1862 51.4787 63.1631 51.474C63.14 51.4694 63.119 51.4572 63.1035 51.4395C63.088 51.4217 63.0788 51.3992 63.0774 51.3757L62.7569 46.4984C62.7496 46.3707 62.682 46.3068 62.5543 46.3068L61.3681 46.3031C61.3362 46.3029 61.3046 46.3095 61.2753 46.3225C61.246 46.3355 61.2198 46.3546 61.1983 46.3786C61.1768 46.4025 61.1604 46.4308 61.1503 46.4616C61.1403 46.4924 61.1367 46.525 61.1397 46.5573L61.8212 53.947C61.836 54.109 61.9256 54.1901 62.0902 54.1901H63.1327C63.19 54.1902 63.2463 54.174 63.2952 54.1434C63.344 54.1128 63.3834 54.069 63.4089 54.0169L66.1239 48.6202C66.1339 48.6 66.1502 48.5837 66.1703 48.5736C66.1905 48.5636 66.2133 48.5604 66.2355 48.5646C66.2576 48.5687 66.2778 48.58 66.2929 48.5967C66.308 48.6134 66.3172 48.6346 66.3191 48.6571L66.798 53.9948C66.8078 54.125 66.8778 54.1901 67.008 54.1901H68.0321C68.1622 54.1901 68.2568 54.1311 68.3157 54.0133L72.0253 46.5941C72.0411 46.5618 72.0485 46.5259 72.0468 46.4899C72.0451 46.454 72.0342 46.4191 72.0153 46.3888C71.9965 46.3584 71.9702 46.3336 71.939 46.3166C71.9078 46.2997 71.8729 46.2912 71.8374 46.2921L70.7691 46.3068C70.6537 46.3093 70.5714 46.3621 70.5223 46.4652L68.1647 51.4604C68.1559 51.477 68.1421 51.4903 68.1253 51.4985C68.1085 51.5067 68.0895 51.5094 68.0711 51.5061C68.0526 51.5029 68.0357 51.4938 68.0227 51.4803C68.0098 51.4668 68.0014 51.4495 67.9989 51.4309L67.5569 46.5389C67.5513 46.4689 67.5192 46.4036 67.4672 46.3564C67.4152 46.3092 67.3471 46.2835 67.2769 46.2847L66.0907 46.2958C65.9311 46.2958 65.8144 46.3682 65.7408 46.5131L63.28 51.4162Z" stroke="#878584" stroke-width="0.736754"/>
<path d="M73.8112 49.4456C73.7822 49.4454 73.7536 49.439 73.7274 49.4268C73.7011 49.4146 73.6777 49.3969 73.6589 49.3749C73.64 49.3529 73.6261 49.3271 73.6181 49.2993C73.61 49.2714 73.608 49.2422 73.6123 49.2135L73.8038 47.8174C73.8101 47.7682 73.8342 47.7231 73.8716 47.6905C73.9089 47.6579 73.9569 47.6402 74.0064 47.6406L78.4675 47.6737C78.5165 47.6742 78.564 47.657 78.6012 47.6251C78.6385 47.5933 78.6629 47.5491 78.6701 47.5006L78.8064 46.5612C78.8106 46.5325 78.8086 46.5033 78.8006 46.4755C78.7925 46.4477 78.7786 46.4219 78.7597 46.3999C78.7409 46.3779 78.7175 46.3602 78.6913 46.348C78.665 46.3358 78.6364 46.3293 78.6074 46.3291L72.8018 46.2481C72.7544 46.2471 72.7082 46.2628 72.6712 46.2924C72.6342 46.3221 72.6087 46.3637 72.5992 46.4102L71.1184 53.9472C71.1123 53.9766 71.113 54.0071 71.1202 54.0363C71.1274 54.0655 71.141 54.0927 71.1601 54.116C71.1791 54.1393 71.2031 54.158 71.2303 54.1709C71.2575 54.1837 71.2872 54.1904 71.3173 54.1903H77.3697C77.4175 54.1901 77.4637 54.1729 77.5001 54.1419C77.5365 54.1109 77.5608 54.068 77.5686 54.0209L77.7086 53.1736C77.7134 53.1446 77.7119 53.115 77.7041 53.0867C77.6963 53.0584 77.6825 53.0322 77.6636 53.0098C77.6447 52.9874 77.6211 52.9693 77.5945 52.9569C77.568 52.9445 77.539 52.938 77.5097 52.9378L73.0818 52.8899C73.0524 52.8894 73.0235 52.8824 72.9971 52.8695C72.9706 52.8567 72.9473 52.8382 72.9288 52.8154C72.9102 52.7926 72.8968 52.7661 72.8895 52.7376C72.8822 52.7091 72.8812 52.6794 72.8866 52.6505L73.1849 51.0407C73.1935 50.9942 73.2181 50.9521 73.2545 50.9219C73.2908 50.8916 73.3366 50.875 73.3839 50.8749H77.5318C77.5791 50.8748 77.6248 50.8582 77.6612 50.8279C77.6975 50.7977 77.7221 50.7556 77.7307 50.7091L77.9112 49.7182C77.9166 49.6893 77.9156 49.6596 77.9083 49.6311C77.901 49.6026 77.8876 49.5761 77.869 49.5533C77.8504 49.5305 77.8271 49.512 77.8007 49.4992C77.7743 49.4863 77.7454 49.4793 77.716 49.4788L73.8112 49.4456Z" stroke="#878584" stroke-width="0.736754"/>
<path d="M84.6165 50.5875C85.9598 50.1626 86.6008 49.2834 86.5394 47.9499C86.4289 45.6217 81.8352 46.3622 80.2881 46.3327C80.2341 46.3326 80.1817 46.3513 80.1401 46.3856C80.0984 46.4198 80.07 46.4676 80.0597 46.5206L78.5825 54.0208C78.5604 54.1337 78.607 54.1902 78.7225 54.1902H79.835C79.8936 54.1899 79.9501 54.17 79.9951 54.1337C80.0401 54.0975 80.0707 54.0471 80.0818 53.9913L80.638 51.3021C80.665 51.1818 80.7363 51.102 80.8517 51.0627C83.0325 50.2891 83.6108 52.6136 84.307 54.0465C84.3513 54.1399 84.4262 54.1865 84.5318 54.1865L85.9905 54.1939C86.2165 54.1963 86.2779 54.0969 86.1747 53.8955L84.5465 50.7606C84.5023 50.6747 84.5256 50.6169 84.6165 50.5875Z" stroke="#878584" stroke-width="0.736754"/>
<path d="M54.4385 52.6811C54.6911 52.8626 54.9861 52.9799 55.3067 53.0263C55.6272 53.0727 55.9671 53.0472 56.3068 52.9514C56.6465 52.8556 56.9794 52.6913 57.2865 52.4678C57.5937 52.2444 57.869 51.9662 58.0968 51.6492C58.3246 51.3322 58.5005 50.9825 58.6143 50.6201C58.7281 50.2578 58.7776 49.8898 58.7601 49.5373C58.7426 49.1847 58.6583 48.8545 58.5121 48.5655C58.3659 48.2765 58.1606 48.0343 57.908 47.8528C57.6554 47.6713 57.3604 47.554 57.0399 47.5076C56.7193 47.4612 56.3795 47.4867 56.0398 47.5825C55.7001 47.6783 55.3671 47.8427 55.06 48.0661C54.7529 48.2895 54.4775 48.5677 54.2497 48.8847C54.0219 49.2018 53.8461 49.5515 53.7323 49.9138C53.6185 50.2762 53.5689 50.6441 53.5865 50.9967C53.604 51.3492 53.6883 51.6794 53.8344 51.9684C53.9806 52.2574 54.1859 52.4996 54.4385 52.6811Z" stroke="#878584" stroke-width="0.736754"/>
<path d="M40.9413 48.5061C40.9373 48.4824 40.926 48.4605 40.9091 48.4433C40.8922 48.4262 40.8704 48.4146 40.8468 48.4102C40.8231 48.4058 40.7986 48.4087 40.7767 48.4186C40.7547 48.4285 40.7364 48.4449 40.724 48.4656L39.4936 50.5138C39.4823 50.5318 39.4761 50.5527 39.4756 50.574C39.4752 50.5953 39.4805 50.6164 39.4911 50.6349C39.5017 50.6534 39.5171 50.6688 39.5357 50.6792C39.5543 50.6897 39.5754 50.6949 39.5968 50.6943L41.1845 50.6832C41.2013 50.6829 41.2179 50.679 41.2331 50.6717C41.2483 50.6644 41.2618 50.654 41.2726 50.6411C41.2834 50.6281 41.2913 50.6131 41.2958 50.5968C41.3003 50.5806 41.3013 50.5636 41.2987 50.5469L40.9413 48.5061Z" stroke="#878584" stroke-width="0.736754"/>
<path d="M50.2502 48.8488C50.578 47.239 48.1689 47.5779 47.1853 47.7142C47.1289 47.7227 47.0764 47.7476 47.0344 47.7856C46.9925 47.8237 46.9629 47.8732 46.9495 47.9279L46.5627 49.5746C46.5573 49.5986 46.5572 49.6235 46.5626 49.6475C46.5679 49.6716 46.5786 49.6941 46.5938 49.7135C46.6089 49.7329 46.6282 49.7487 46.6503 49.7597C46.6723 49.7707 46.6965 49.7767 46.7211 49.7772C47.6089 49.7882 50.0034 50.0608 50.2502 48.8488Z" stroke="#878584" stroke-width="0.736754"/>
<path d="M81.3704 47.7878L81.0609 49.4455C81.029 49.6248 81.1027 49.7071 81.282 49.6923C82.3282 49.6039 84.45 49.8581 84.9878 48.7603C85.312 48.0973 84.7189 47.6736 84.0927 47.6589C83.2233 47.6417 82.3662 47.6417 81.5214 47.6589C81.4848 47.66 81.4498 47.6734 81.4222 47.6969C81.3947 47.7204 81.3764 47.7525 81.3704 47.7878Z" stroke="#878584" stroke-width="0.736754"/>
<path d="M83.713 48.9924C84.1084 48.9384 84.3393 48.7824 84.4056 48.5246C84.4375 48.3969 84.3958 48.2999 84.2803 48.2336C84.0667 48.1108 83.8137 48.1329 83.5215 48.2999" stroke="#E88E8A" stroke-width="0.736754"/>
<path d="M75.3113 42.1478L75.2892 42.4388C66.819 41.5056 57.7017 41.3018 47.9373 41.8273C39.5285 42.2767 31.6649 43.5268 24.3464 45.5774L21.8194 45.769C21.6745 45.7788 21.5898 45.8561 21.5652 46.001L21.171 48.2887C21.23 47.7386 21.1649 47.3616 20.9758 47.1577C21.214 46.7967 21.2717 46.3878 21.1489 45.931C21.1096 45.7837 21.0139 45.71 20.8616 45.71L18.8392 45.7321C18.6894 45.7321 18.5777 45.7972 18.504 45.9274L16.0359 50.2226C16.0165 50.2547 15.9879 50.2801 15.9537 50.2954C15.9196 50.3107 15.8816 50.3153 15.8448 50.3085C15.808 50.3017 15.7741 50.2838 15.7477 50.2573C15.7213 50.2308 15.7036 50.1969 15.697 50.16L15.067 46.1963C15.0445 46.0522 14.9697 45.9215 14.8569 45.829C14.7441 45.7366 14.6012 45.689 14.4555 45.6953L12.3558 45.78C12.2921 45.7834 12.2314 45.8076 12.1828 45.8488C12.1342 45.8901 12.1005 45.9461 12.0869 46.0084L10.3666 54.3743C10.3573 54.4187 10.358 54.4646 10.3686 54.5088C10.3793 54.5529 10.3997 54.5941 10.4282 54.6293C10.4568 54.6646 10.4929 54.6931 10.5338 54.7127C10.5748 54.7323 10.6196 54.7425 10.665 54.7426H12.7205C12.8654 54.7426 12.9513 54.6714 12.9784 54.529L13.3467 52.4403C13.3515 52.4136 13.3655 52.3897 13.3864 52.3728C13.4073 52.3559 13.4337 52.3471 13.461 52.348C13.4882 52.3489 13.5146 52.3594 13.5355 52.3776C13.5564 52.3958 13.5704 52.4206 13.5751 52.4476L13.8514 54.4516C13.8661 54.5695 13.9312 54.6419 14.0466 54.669C15.0806 54.9121 15.8112 54.7881 16.2385 54.2969C19.1155 57.406 24.5343 59.0269 28.5165 59.8557C28.5309 59.8596 28.5435 59.8682 28.5524 59.8802C28.5613 59.8921 28.5659 59.9067 28.5655 59.9216C28.5651 59.9365 28.5596 59.9509 28.5501 59.9623C28.5405 59.9737 28.5274 59.9816 28.5128 59.9847C28.3433 60.0092 28.1346 60.0043 27.8865 59.9699C23.9302 59.4395 5.87974 56.2604 7.05486 50.2079C8.10473 44.8222 23.4181 42.122 27.8165 41.5105C43.6764 39.3027 59.508 39.5151 75.3113 42.1478Z" fill="white"/>
<path d="M75.3112 42.1479L76.2358 42.4758C76.3831 42.5298 76.3782 42.563 76.2211 42.5753C75.9288 42.6023 75.6181 42.5568 75.2891 42.439L75.3112 42.1479Z" fill="white"/>
<path d="M87.0956 54.6802L85.3016 51.0811C85.2402 50.9583 85.2697 50.865 85.39 50.8012C87.987 49.4087 87.7623 46.0786 84.4727 45.7802C82.8764 45.6328 81.3133 45.6586 79.7833 45.8575C79.663 45.6291 79.3683 45.4327 78.8992 45.2681C75.5593 44.0942 72.3753 43.2961 69.3472 42.8737C69.33 42.8737 69.3239 42.8651 69.3288 42.8479C69.3386 42.8184 69.346 42.7865 69.3509 42.7521C69.3573 42.7161 69.3769 42.6838 69.4056 42.6619C69.4344 42.6399 69.4702 42.6301 69.5056 42.6342C74.9428 43.2936 88.6096 44.8666 91.7629 49.1324C93.8258 51.921 88.8932 54.065 87.0956 54.6802Z" fill="white"/>
<path d="M20.9761 47.1578L19.5505 54.5475C19.5234 54.6875 19.4387 54.7562 19.2963 54.7538L17.3365 54.7169C17.2994 54.7166 17.2628 54.7081 17.2294 54.692C17.196 54.6758 17.1666 54.6524 17.1434 54.6235C17.1201 54.5946 17.1036 54.5609 17.0949 54.5248C17.0863 54.4887 17.0857 54.4512 17.0934 54.4149L17.5244 52.444C17.5299 52.4291 17.5325 52.4131 17.5319 52.3971C17.5313 52.3811 17.5276 52.3654 17.5209 52.3509C17.5142 52.3364 17.5048 52.3233 17.493 52.3124C17.4813 52.3015 17.4675 52.2931 17.4526 52.2875C17.4376 52.2819 17.4216 52.2794 17.4056 52.28C17.3896 52.2806 17.3739 52.2843 17.3594 52.291C17.3449 52.2977 17.3318 52.3071 17.3209 52.3188C17.31 52.3306 17.3016 52.3443 17.296 52.3593L16.2388 54.297C15.8114 54.7882 15.0808 54.9122 14.0469 54.6691C13.9315 54.642 13.8664 54.5696 13.8517 54.4517L13.5754 52.4477C13.5707 52.4207 13.5566 52.3959 13.5358 52.3777C13.5149 52.3595 13.4885 52.349 13.4612 52.3481C13.434 52.3472 13.4076 52.356 13.3867 52.3729C13.3658 52.3897 13.3517 52.4136 13.347 52.4404L12.9786 54.5291C12.9516 54.6715 12.8657 54.7427 12.7208 54.7427H10.6652C10.6198 54.7426 10.575 54.7324 10.5341 54.7128C10.4932 54.6932 10.4571 54.6647 10.4285 54.6294C10.3999 54.5942 10.3796 54.553 10.3689 54.5088C10.3582 54.4647 10.3575 54.4188 10.3668 54.3743L12.0872 46.0085C12.1008 45.9462 12.1345 45.8902 12.1831 45.8489C12.2316 45.8076 12.2924 45.7835 12.3561 45.7801L14.4558 45.6954C14.6015 45.6891 14.7444 45.7367 14.8572 45.8291C14.97 45.9216 15.0448 46.0523 15.0673 46.1964L15.6972 50.1601C15.7039 50.1969 15.7216 50.2309 15.748 50.2574C15.7744 50.2839 15.8082 50.3018 15.845 50.3086C15.8818 50.3154 15.9198 50.3108 15.954 50.2955C15.9881 50.2801 16.0168 50.2548 16.0361 50.2227L18.5043 45.9275C18.5779 45.7973 18.6897 45.7322 18.8395 45.7322L20.8619 45.7101C21.0141 45.7101 21.1099 45.7838 21.1492 45.9311C21.272 46.3879 21.2143 46.7968 20.9761 47.1578ZM18.4785 49.847L17.6423 53.9728C17.6128 54.1153 17.6705 54.1865 17.8154 54.1865L18.8837 54.1975C19.0458 54.1975 19.1428 54.1189 19.1747 53.9618L20.6298 46.6274C20.6364 46.5953 20.6356 46.5621 20.6275 46.5303C20.6194 46.4984 20.6042 46.4687 20.5831 46.4434C20.5619 46.418 20.5353 46.3975 20.5052 46.3835C20.475 46.3694 20.4421 46.3621 20.4088 46.3621H19.0458C18.9181 46.3621 18.8211 46.4174 18.7548 46.5279L15.6751 51.8436C15.5548 52.0523 15.475 52.0376 15.4357 51.7994L14.6068 46.6716C14.5926 46.5789 14.5451 46.4945 14.4733 46.4342C14.4014 46.3739 14.3101 46.3417 14.2164 46.3437L12.7392 46.3695C12.6889 46.3708 12.6405 46.389 12.6018 46.421C12.5631 46.4531 12.5362 46.4972 12.5255 46.5463L11.0004 53.8991C10.9941 53.9308 10.9945 53.9635 11.0017 53.995C11.009 54.0265 11.0228 54.0561 11.0423 54.0819C11.0618 54.1076 11.0865 54.129 11.1149 54.1444C11.1432 54.1599 11.1745 54.1692 11.2067 54.1717L12.2013 54.238C12.2577 54.242 12.3137 54.2256 12.359 54.1918C12.4043 54.158 12.4359 54.1091 12.4482 54.0539L13.4465 49.5081C13.4509 49.4841 13.4637 49.4627 13.4825 49.4476C13.5014 49.4326 13.5251 49.4248 13.5497 49.4257C13.5742 49.4266 13.5979 49.436 13.6168 49.4524C13.6356 49.4688 13.6483 49.4911 13.6528 49.5154L14.2606 53.6118C14.2875 53.7893 14.3689 53.954 14.4936 54.0832C14.6183 54.2123 14.78 54.2995 14.9565 54.3327C15.1329 54.3659 15.3153 54.3434 15.4783 54.2684C15.6414 54.1933 15.7771 54.0695 15.8667 53.9139L18.2501 49.7623C18.2653 49.737 18.2891 49.7178 18.3172 49.7079C18.3453 49.698 18.3758 49.6982 18.4033 49.7084C18.4308 49.7186 18.4534 49.7382 18.4672 49.7636C18.481 49.7889 18.485 49.8185 18.4785 49.847Z" fill="#F7F7F8" fill-opacity="0.996"/>
<path d="M24.3467 45.5774C25.8055 45.8402 27.2323 45.904 28.6273 45.7689C28.6578 45.7657 28.6887 45.7699 28.7173 45.7811C28.7459 45.7923 28.7713 45.8102 28.7916 45.8333C28.8118 45.8564 28.8262 45.8841 28.8335 45.9139C28.8408 45.9437 28.8408 45.9749 28.8335 46.0047L28.3731 47.9608C28.3597 48.016 28.328 48.065 28.2832 48.0998C28.2383 48.1346 28.183 48.1531 28.1263 48.1524L23.9231 48.0971C23.8309 48.0951 23.7416 48.1296 23.6747 48.1931C23.6078 48.2565 23.5687 48.3438 23.5658 48.436L23.551 48.8302C23.55 48.8559 23.5543 48.8816 23.5637 48.9057C23.5731 48.9298 23.5873 48.9518 23.6055 48.9704C23.6238 48.9889 23.6456 49.0037 23.6698 49.0138C23.694 49.0239 23.72 49.0291 23.7463 49.0291L27.5295 49.0328C27.6744 49.0328 27.7689 49.1028 27.8131 49.2427C27.8745 49.4392 27.8537 49.6762 27.7505 49.9537L27.6842 50.4768C27.5565 51.0245 27.3121 51.2909 26.9511 51.2762C25.8828 51.2271 24.8207 51.2173 23.7647 51.2467C23.1127 51.2651 22.7148 51.5746 22.8511 52.2561C22.858 52.291 22.8773 52.3223 22.9056 52.3445C22.9339 52.3668 22.9694 52.3785 23.0058 52.3776L27.4227 52.3334C27.4619 52.3331 27.5007 52.3416 27.5362 52.3583C27.5717 52.375 27.603 52.3994 27.6277 52.4299C27.6525 52.4603 27.6701 52.4959 27.6792 52.534C27.6884 52.5722 27.6888 52.6119 27.6805 52.6502L27.2716 54.4921C27.2557 54.5633 27.216 54.6269 27.1591 54.6724C27.1022 54.7179 27.0314 54.7427 26.9585 54.7426H20.1435C20.1089 54.7428 20.0746 54.7353 20.0433 54.7205C20.0119 54.7057 19.9843 54.6841 19.9624 54.6573C19.9405 54.6304 19.9249 54.599 19.9167 54.5653C19.9085 54.5316 19.908 54.4966 19.9152 54.4627L21.1713 48.2887L21.5655 46.001C21.59 45.8561 21.6748 45.7788 21.8197 45.7689L24.3467 45.5774ZM22.6117 51.0404C22.6218 50.9933 22.6478 50.9511 22.6854 50.921C22.723 50.8908 22.7698 50.8744 22.818 50.8747H26.9327C26.9878 50.8747 27.0406 50.8531 27.0799 50.8145C27.1192 50.7759 27.1417 50.7234 27.1427 50.6684L27.1501 49.6848C27.1506 49.6569 27.1455 49.6292 27.1351 49.6033C27.1248 49.5774 27.1094 49.5538 27.0899 49.5339C27.0703 49.5141 27.047 49.4983 27.0213 49.4875C26.9956 49.4767 26.968 49.4711 26.9401 49.4711L23.1679 49.4675C23.1372 49.467 23.107 49.4597 23.0793 49.4463C23.0517 49.4328 23.0274 49.4134 23.0081 49.3896C22.9888 49.3657 22.9749 49.3378 22.9675 49.308C22.9601 49.2782 22.9594 49.2471 22.9653 49.217L23.2453 47.8024C23.2554 47.7553 23.2815 47.7131 23.319 47.6829C23.3566 47.6527 23.4034 47.6364 23.4516 47.6366L27.8021 47.6808C27.8514 47.6818 27.8995 47.6653 27.9379 47.6343C27.9763 47.6033 28.0025 47.5598 28.0121 47.5114L28.1926 46.5425C28.1986 46.5118 28.1977 46.4801 28.1899 46.4497C28.1821 46.4193 28.1676 46.3911 28.1475 46.3671C28.1273 46.3431 28.1021 46.3239 28.0735 46.3109C28.045 46.2979 28.0139 46.2915 27.9826 46.292L22.1144 46.3805C22.0663 46.3812 22.0199 46.3985 21.9831 46.4293C21.9462 46.4602 21.921 46.5027 21.9118 46.5499L20.4493 53.9469C20.4433 53.9774 20.4441 54.0088 20.4517 54.0389C20.4593 54.0689 20.4735 54.097 20.4932 54.1209C20.513 54.1449 20.5378 54.1642 20.5658 54.1774C20.5939 54.1906 20.6246 54.1975 20.6556 54.1974L26.7264 54.2048C26.773 54.2046 26.8181 54.1889 26.8548 54.1602C26.8915 54.1316 26.9176 54.0915 26.929 54.0464L27.1574 53.1549C27.1653 53.1237 27.166 53.0911 27.1593 53.0596C27.1526 53.0281 27.1387 52.9986 27.1188 52.9733C27.0988 52.948 27.0733 52.9277 27.0443 52.9138C27.0152 52.8999 26.9833 52.8929 26.9511 52.8934L22.4606 52.9192C22.4288 52.9194 22.3974 52.9125 22.3687 52.8988C22.3399 52.8852 22.3147 52.8652 22.2948 52.8404C22.275 52.8155 22.261 52.7865 22.254 52.7555C22.247 52.7245 22.2471 52.6923 22.2543 52.6613L22.6117 51.0404Z" fill="#F7F7F8" fill-opacity="0.996"/>
<path d="M79.7836 45.8574C81.3135 45.6585 82.8767 45.6327 84.473 45.7801C87.7626 46.0784 87.9873 49.4086 85.3902 50.801C85.2699 50.8649 85.2404 50.9582 85.3018 51.081L87.0958 54.6801C86.6759 54.8029 86.488 54.9085 86.5322 54.9969C85.8372 54.766 85.1115 54.6825 84.3551 54.7464C84.2883 54.752 84.2214 54.7383 84.1626 54.7069C84.1037 54.6755 84.0554 54.6278 84.0236 54.5695L82.3953 51.6004C81.5591 50.8931 80.8371 51.6041 80.9808 52.5361L80.4687 54.518C80.4319 54.658 80.341 54.7304 80.1961 54.7353L74.5858 54.9269C73.2154 54.6985 71.9175 54.653 70.692 54.7906C70.657 54.7944 70.6216 54.7898 70.5887 54.7771C70.5558 54.7645 70.5264 54.7441 70.503 54.7178C70.4796 54.6915 70.4628 54.66 70.454 54.6259C70.4452 54.5917 70.4447 54.556 70.4526 54.5217L71.7198 48.6608C71.7247 48.6395 71.7215 48.6169 71.7109 48.5974C71.7003 48.5778 71.6831 48.5629 71.6627 48.5555C71.6423 48.5481 71.6202 48.5487 71.6007 48.5573C71.5813 48.5659 71.5659 48.5818 71.5577 48.6018L68.5628 54.5953C68.5137 54.6936 68.4327 54.7427 68.3197 54.7427H66.6399C66.5796 54.7429 66.5214 54.7205 66.4765 54.6796C66.4315 54.6388 66.4031 54.5825 66.3968 54.5217L65.9768 50.44C65.9736 50.4116 65.9613 50.385 65.9417 50.3641C65.9221 50.3433 65.8963 50.3293 65.8681 50.3243C65.8399 50.3194 65.8109 50.3236 65.7853 50.3365C65.7598 50.3494 65.7391 50.3702 65.7263 50.3958L63.7002 54.529C63.6681 54.5933 63.6186 54.6473 63.5575 54.6851C63.4963 54.7228 63.4258 54.7428 63.354 54.7427H61.5784C61.5183 54.7429 61.4605 54.7205 61.4167 54.6801C61.3729 54.6397 61.3464 54.5843 61.3426 54.5253L61.0443 50.2301C60.9951 49.5424 60.8944 49.5351 60.7422 50.208C60.1565 52.7755 58.4914 54.5843 55.8207 54.8016C53.1868 55.0153 51.3265 53.446 51.5659 50.6942C51.5807 50.5444 51.5144 50.4842 51.367 50.5137C51.2614 50.5334 51.1988 50.6009 51.1791 50.7163C51.1649 50.7849 51.1239 50.8456 51.0649 50.8858C49.9377 51.5881 48.7 51.8153 47.3517 51.5673C47.1798 51.5358 47.0024 51.573 46.8582 51.671C46.7141 51.769 46.6147 51.9197 46.5818 52.0904L46.1066 54.4885C46.0747 54.658 45.9715 54.7427 45.7972 54.7427H41.9734C41.9134 54.7425 41.8553 54.722 41.8085 54.6846C41.7616 54.6471 41.7289 54.5949 41.7155 54.5364L41.2551 52.5693C41.243 52.5146 41.2115 52.466 41.1662 52.4323C41.121 52.3985 41.065 52.3818 41.0083 52.3851L39.1111 52.4624C39.043 52.4647 38.9764 52.4837 38.9173 52.5178C38.8582 52.5518 38.8084 52.5999 38.7722 52.6577L37.6266 54.5438C37.5455 54.6764 37.4276 54.7427 37.2729 54.7427H35.0627C34.8711 54.7427 34.8208 54.6592 34.9116 54.4922L35.0406 54.2527C35.0556 54.2226 35.0607 54.1884 35.055 54.1552C35.0493 54.122 35.0332 54.0914 35.0089 54.068C34.9847 54.0446 34.9536 54.0295 34.9202 54.025C34.8868 54.0204 34.8528 54.0267 34.8232 54.0428C31.9683 55.6673 27.1205 54.7722 27.8867 50.6058C27.9997 50.3037 28.0488 50.0471 28.034 49.8359C28.8911 47.1492 30.6483 45.7776 33.3055 45.7211C35.4642 45.6732 37.0703 46.5831 37.0114 48.9334C37.0065 49.0783 36.9328 49.1409 36.7904 49.1212C36.6332 49.1016 36.5128 49.1544 36.4293 49.2796C36.336 49.4221 36.3741 49.4933 36.5435 49.4933H36.7572C36.7853 49.493 36.8131 49.4992 36.8384 49.5113C36.8638 49.5235 36.886 49.5412 36.9034 49.5633C36.9208 49.5853 36.933 49.6111 36.9389 49.6385C36.9449 49.666 36.9444 49.6944 36.9377 49.7217L36.5178 51.3905C36.5098 51.4215 36.5134 51.4543 36.5278 51.4829C36.5422 51.5114 36.5664 51.5338 36.596 51.546C36.6257 51.5581 36.6587 51.5591 36.6889 51.5488C36.7192 51.5385 36.7448 51.5176 36.7609 51.4899L40.1242 45.9606C40.1954 45.8476 40.2973 45.7923 40.4299 45.7948L42.165 45.8169C42.2927 45.8194 42.3713 45.8832 42.4007 46.0085L43.8411 52.083C43.9295 52.4612 44.0118 52.4587 44.0879 52.0756L45.2962 45.9753C45.3158 45.8697 45.3784 45.8169 45.484 45.8169C47.7238 45.7911 51.5843 45.0102 52.3948 47.8061C52.4025 47.8334 52.4176 47.858 52.4383 47.8772C52.4591 47.8965 52.4847 47.9097 52.5125 47.9154C52.5402 47.9211 52.569 47.9191 52.5956 47.9096C52.6223 47.9 52.6458 47.8834 52.6637 47.8614C54.6566 45.4301 59.1987 44.4207 60.6427 47.9572C60.6992 48.0922 60.7766 48.107 60.8748 48.0014C60.9116 47.9596 60.9374 47.9044 60.9522 47.8356C61.0111 47.5409 60.6464 46.491 60.6648 45.9937C60.6697 45.8709 60.7336 45.8095 60.8564 45.8095H62.9524C63.0223 45.8094 63.0894 45.8361 63.1402 45.8841C63.1909 45.9321 63.2213 45.9977 63.225 46.0674L63.3834 49.6259C63.385 49.6569 63.3967 49.6864 63.4169 49.71C63.437 49.7335 63.4644 49.7497 63.4947 49.756C63.525 49.7624 63.5566 49.7584 63.5845 49.7449C63.6123 49.7313 63.6349 49.7089 63.6487 49.6812L65.439 46.0269C65.5102 45.882 65.6269 45.8095 65.7889 45.8095H67.664C67.8433 45.8095 67.9427 45.8992 67.9624 46.0784L68.3123 49.3902C68.3157 49.4267 68.3311 49.4612 68.3562 49.488C68.3812 49.5149 68.4145 49.5327 68.4508 49.5386C68.487 49.5445 68.5242 49.5382 68.5565 49.5207C68.5888 49.5031 68.6143 49.4754 68.6291 49.4417L70.1689 46.0306C70.2352 45.8832 70.3482 45.8095 70.5078 45.8095H79.021C79.161 45.8095 79.2715 45.8648 79.3526 45.9753C79.4803 46.1546 79.4753 46.3314 79.3378 46.5058C79.2666 46.5917 79.2212 46.6912 79.2015 46.8042L79.01 47.9056C78.9854 48.0431 78.9031 48.1119 78.7631 48.1119C77.4444 48.1094 76.1342 48.1143 74.8326 48.1266C74.4679 48.1303 74.2284 48.3219 74.1695 48.6645C74.162 48.7099 74.1644 48.7564 74.1765 48.8008C74.1886 48.8452 74.2101 48.8864 74.2396 48.9215C74.269 48.9565 74.3057 48.9847 74.347 49.0039C74.3884 49.0231 74.4334 49.033 74.4789 49.0328H78.1958C78.407 49.0328 78.4942 49.136 78.4574 49.3423L78.1369 51.1252C78.1262 51.1866 78.0924 51.2417 78.042 51.2799C77.9916 51.318 77.9282 51.3364 77.8643 51.3315C75.8579 51.1719 74.5858 51.1485 74.0479 51.2615C73.542 51.3696 73.3701 51.6704 73.5322 52.164C73.574 52.2917 73.6624 52.3556 73.7974 52.3556L78.2437 52.3445C78.3518 52.3445 78.4169 52.2917 78.439 52.1861L79.7836 45.8574ZM34.1712 51.3389C34.279 51.3396 34.3839 51.375 34.4702 51.4398C34.5565 51.5046 34.6197 51.5952 34.6504 51.6984C34.681 51.8015 34.6775 51.9115 34.6402 52.012C34.603 52.1125 34.5341 52.1981 34.4438 52.2561C30.9369 54.5401 28.1188 51.0921 30.9995 48.3513C32.0383 47.3641 34.7017 46.9368 35.0369 48.8671C35.0664 49.0267 35.1609 49.093 35.3205 49.066L36.2525 48.9039C36.4293 48.8744 36.5141 48.7701 36.5067 48.5908C36.282 44.0671 27.4815 46.0969 28.4172 52.0056C28.9366 55.2879 33.6628 54.4259 35.5047 53.225C35.5746 53.1795 35.6347 53.1203 35.6815 53.0507C35.7283 52.9811 35.7609 52.9026 35.7773 52.8198L36.3151 50.1822C36.3212 50.1547 36.321 50.1261 36.3146 50.0987C36.3082 50.0713 36.2956 50.0456 36.2779 50.0237C36.2603 50.0018 36.2379 49.9841 36.2124 49.972C36.187 49.9599 36.1591 49.9537 36.131 49.9538H32.683C32.5454 49.9538 32.4644 50.0213 32.4398 50.1564L32.263 51.0552C32.2565 51.0889 32.2573 51.1237 32.2656 51.1569C32.2739 51.1902 32.2893 51.2212 32.3108 51.2476C32.3323 51.274 32.3593 51.2953 32.3899 51.3098C32.4205 51.3243 32.4539 51.3317 32.4877 51.3315L34.1712 51.3389ZM59.5981 47.204C58.9365 46.4667 57.9432 46.0814 56.8368 46.133C55.7303 46.1847 54.6013 46.6689 53.6982 47.4793C53.251 47.8805 52.8727 48.3498 52.5849 48.8602C52.2971 49.3706 52.1054 49.9123 52.0208 50.4542C51.9363 50.9961 51.9604 51.5276 52.0919 52.0185C52.2235 52.5094 52.4598 52.9499 52.7874 53.315C53.449 54.0524 54.4422 54.4376 55.5487 54.386C56.6551 54.3344 57.7841 53.8502 58.6873 53.0398C59.1345 52.6385 59.5128 52.1693 59.8006 51.6589C60.0884 51.1484 60.2801 50.6068 60.3646 50.0649C60.4492 49.523 60.4251 48.9914 60.2935 48.5006C60.162 48.0097 59.9257 47.5691 59.5981 47.204ZM41.7082 52.2304L42.0655 53.9838C42.0925 54.1214 42.1772 54.1901 42.3197 54.1901H43.6495C43.7993 54.1901 43.857 54.1164 43.8227 53.9691L42.0913 46.8336C42.0463 46.6499 41.9481 46.4835 41.809 46.3553C41.6699 46.2271 41.4961 46.1428 41.3093 46.1129C41.1225 46.083 40.9311 46.1089 40.7589 46.1873C40.5868 46.2657 40.4416 46.3931 40.3415 46.5537L35.7663 53.958C35.6705 54.1128 35.7135 54.1901 35.8952 54.1901H37.0703C37.1368 54.1903 37.2024 54.1731 37.261 54.1402C37.3197 54.1074 37.3694 54.0599 37.4055 54.0022L38.5365 52.1825C38.62 52.0474 38.7415 51.9799 38.9012 51.9799H41.3987C41.5707 51.9799 41.6738 52.0634 41.7082 52.2304ZM46.4934 51.2431C48.6963 51.2799 51.1681 51.3241 51.8275 48.7639C52.649 45.5848 47.6059 46.2111 45.9335 46.3105C45.87 46.3149 45.8098 46.3397 45.7625 46.381C45.7152 46.4224 45.6833 46.4779 45.6719 46.5389L44.18 53.9544C44.1481 54.1115 44.2119 54.1901 44.3715 54.1901H45.473C45.6031 54.1901 45.6817 54.1263 45.7087 53.9986L46.2466 51.4383C46.2736 51.3057 46.3559 51.2406 46.4934 51.2431ZM63.2803 51.4162C63.2699 51.4374 63.2528 51.4546 63.2317 51.4651C63.2105 51.4755 63.1865 51.4787 63.1634 51.4741C63.1402 51.4694 63.1193 51.4573 63.1038 51.4395C63.0883 51.4217 63.0791 51.3993 63.0777 51.3757L62.7572 46.4984C62.7498 46.3707 62.6823 46.3068 62.5546 46.3068L61.3684 46.3032C61.3365 46.303 61.3048 46.3096 61.2756 46.3226C61.2463 46.3356 61.2201 46.3546 61.1986 46.3786C61.177 46.4026 61.1607 46.4308 61.1506 46.4616C61.1405 46.4924 61.1369 46.525 61.14 46.5573L61.8215 53.947C61.8363 54.1091 61.9259 54.1901 62.0904 54.1901H63.1329C63.1903 54.1902 63.2466 54.1741 63.2954 54.1435C63.3443 54.1129 63.3837 54.069 63.4092 54.017L66.1242 48.6203C66.1341 48.6001 66.1504 48.5837 66.1706 48.5736C66.1907 48.5636 66.2136 48.5604 66.2358 48.5646C66.2579 48.5688 66.278 48.5801 66.2931 48.5968C66.3082 48.6135 66.3175 48.6347 66.3194 48.6571L66.7983 53.9949C66.8081 54.125 66.8781 54.1901 67.0083 54.1901H68.0324C68.1625 54.1901 68.2571 54.1312 68.316 54.0133L72.0255 46.5942C72.0414 46.5618 72.0488 46.5259 72.0471 46.49C72.0453 46.454 72.0345 46.4192 72.0156 46.3888C71.9967 46.3585 71.9705 46.3336 71.9393 46.3167C71.9081 46.2997 71.8731 46.2913 71.8377 46.2921L70.7694 46.3068C70.654 46.3093 70.5717 46.3621 70.5226 46.4652L68.165 51.4604C68.1562 51.477 68.1424 51.4903 68.1256 51.4986C68.1088 51.5068 68.0898 51.5094 68.0713 51.5062C68.0529 51.5029 68.036 51.4938 68.023 51.4803C68.01 51.4668 68.0017 51.4495 67.9992 51.431L67.5571 46.5389C67.5515 46.4689 67.5195 46.4036 67.4675 46.3564C67.4155 46.3092 67.3474 46.2836 67.2772 46.2847L66.091 46.2958C65.9314 46.2958 65.8147 46.3682 65.7411 46.5131L63.2803 51.4162ZM73.8122 49.4454C73.7832 49.4452 73.7546 49.4388 73.7283 49.4266C73.7021 49.4144 73.6787 49.3967 73.6599 49.3747C73.641 49.3527 73.6271 49.3269 73.6191 49.2991C73.611 49.2712 73.609 49.242 73.6133 49.2133L73.8048 47.8172C73.8111 47.768 73.8352 47.7229 73.8725 47.6903C73.9099 47.6577 73.9579 47.64 74.0074 47.6404L78.4685 47.6735C78.5175 47.674 78.565 47.6568 78.6022 47.625C78.6395 47.5931 78.6639 47.5489 78.6711 47.5004L78.8074 46.561C78.8116 46.5324 78.8096 46.5031 78.8016 46.4753C78.7935 46.4475 78.7796 46.4217 78.7607 46.3997C78.7419 46.3777 78.7185 46.36 78.6923 46.3478C78.666 46.3356 78.6374 46.3292 78.6084 46.3289L72.8028 46.2479C72.7554 46.2469 72.7092 46.2626 72.6722 46.2923C72.6352 46.3219 72.6097 46.3635 72.6002 46.41L71.1193 53.947C71.1133 53.9765 71.1139 54.0069 71.1212 54.0361C71.1284 54.0653 71.142 54.0925 71.161 54.1158C71.1801 54.1391 71.2041 54.1578 71.2313 54.1707C71.2585 54.1835 71.2882 54.1902 71.3183 54.1901H77.3707C77.4185 54.1899 77.4647 54.1728 77.5011 54.1417C77.5375 54.1107 77.5618 54.0678 77.5696 54.0207L77.7096 53.1734C77.7144 53.1445 77.7129 53.1148 77.7051 53.0865C77.6973 53.0583 77.6835 53.032 77.6646 53.0096C77.6457 52.9872 77.6221 52.9691 77.5955 52.9567C77.569 52.9443 77.54 52.9378 77.5107 52.9376L73.0828 52.8897C73.0534 52.8892 73.0245 52.8822 72.9981 52.8693C72.9716 52.8565 72.9483 52.838 72.9297 52.8152C72.9112 52.7924 72.8978 52.7659 72.8905 52.7374C72.8832 52.7089 72.8822 52.6792 72.8875 52.6503L73.1859 51.0405C73.1945 50.994 73.2191 50.952 73.2555 50.9217C73.2918 50.8914 73.3376 50.8748 73.3849 50.8747H77.5328C77.5801 50.8747 77.6258 50.858 77.6622 50.8278C77.6985 50.7975 77.7231 50.7555 77.7317 50.709L77.9122 49.718C77.9175 49.6891 77.9166 49.6594 77.9093 49.6309C77.902 49.6024 77.8886 49.5759 77.87 49.5531C77.8514 49.5303 77.8281 49.5119 77.8017 49.499C77.7753 49.4861 77.7463 49.4791 77.717 49.4786L73.8122 49.4454ZM84.6167 50.5874C85.96 50.1625 86.601 49.2833 86.5396 47.9498C86.4291 45.6217 81.8354 46.3621 80.2882 46.3326C80.2343 46.3325 80.1819 46.3512 80.1402 46.3855C80.0985 46.4198 80.0701 46.4675 80.0598 46.5205L78.5826 54.0207C78.5605 54.1336 78.6072 54.1901 78.7226 54.1901H79.8351C79.8937 54.1898 79.9503 54.1699 79.9953 54.1336C80.0403 54.0974 80.0709 54.0471 80.0819 53.9912L80.6382 51.302C80.6652 51.1817 80.7364 51.1019 80.8518 51.0626C83.0326 50.289 83.611 52.6135 84.3072 54.0465C84.3514 54.1398 84.4263 54.1864 84.5319 54.1864L85.9907 54.1938C86.2166 54.1963 86.278 54.0968 86.1749 53.8954L84.5467 50.7605C84.5025 50.6746 84.5258 50.6169 84.6167 50.5874ZM32.2741 49.4933H34.1565C34.2334 49.4929 34.309 49.4732 34.3764 49.4361C34.4437 49.3989 34.5007 49.3455 34.5421 49.2806C34.5835 49.2158 34.608 49.1416 34.6134 49.0648C34.6187 48.9881 34.6047 48.9112 34.5727 48.8413C34.1454 47.9093 33.3755 47.7472 32.4398 48.0714C30.8828 48.619 30.2259 49.831 30.469 51.7073C30.4794 51.7827 30.5071 51.8546 30.55 51.9173C30.5928 51.9799 30.6496 52.0316 30.7158 52.0683C31.6761 52.5987 32.6695 52.6343 33.696 52.1751C33.7471 52.1519 33.7888 52.1119 33.8142 52.0618C33.8395 52.0117 33.847 51.9544 33.8354 51.8994C33.8238 51.8445 33.7939 51.7951 33.7504 51.7595C33.707 51.7239 33.6527 51.7042 33.5965 51.7036H31.9609C31.789 51.7036 31.7166 51.6188 31.7436 51.4494L32.0051 49.7217C32.0156 49.6579 32.0484 49.6 32.0977 49.5581C32.1469 49.5163 32.2094 49.4933 32.2741 49.4933Z" fill="#F7F7F8" fill-opacity="0.996"/>
<path d="M34.1713 51.3388L32.4878 51.3314C32.454 51.3316 32.4206 51.3242 32.39 51.3097C32.3595 51.2952 32.3324 51.274 32.3109 51.2475C32.2894 51.2211 32.274 51.1901 32.2657 51.1569C32.2575 51.1236 32.2566 51.0889 32.2631 51.0552L32.4399 50.1563C32.4645 50.0212 32.5456 49.9537 32.6831 49.9537H36.1311C36.1593 49.9536 36.1871 49.9598 36.2125 49.9719C36.238 49.984 36.2604 50.0017 36.2781 50.0236C36.2958 50.0456 36.3083 50.0712 36.3147 50.0986C36.3212 50.1261 36.3213 50.1546 36.3153 50.1821L35.7774 52.8197C35.761 52.9025 35.7285 52.981 35.6816 53.0506C35.6348 53.1202 35.5747 53.1795 35.5048 53.2249C33.663 54.4258 28.9367 55.2878 28.4173 52.0056C27.4816 46.0968 36.2821 44.067 36.5068 48.5907C36.5142 48.77 36.4295 48.8744 36.2526 48.9038L35.3207 49.0659C35.161 49.0929 35.0665 49.0266 35.037 48.867C34.7018 46.9367 32.0384 47.364 30.9996 48.3513C28.1189 51.092 30.937 54.54 34.4439 52.2561C34.5342 52.1981 34.6031 52.1124 34.6404 52.0119C34.6776 51.9114 34.6812 51.8014 34.6505 51.6983C34.6199 51.5952 34.5567 51.5045 34.4703 51.4397C34.384 51.3749 34.2791 51.3395 34.1713 51.3388Z" fill="#181311"/>
<path d="M59.5984 47.204C59.926 47.5691 60.1623 48.0097 60.2938 48.5005C60.4253 48.9914 60.4495 49.523 60.3649 50.0649C60.2803 50.6068 60.0887 51.1484 59.8009 51.6588C59.5131 52.1693 59.1348 52.6385 58.6876 53.0398C57.7844 53.8501 56.6554 54.3344 55.549 54.386C54.4425 54.4376 53.4492 54.0524 52.7876 53.315C52.46 52.9499 52.2237 52.5093 52.0922 52.0185C51.9607 51.5276 51.9365 50.996 52.0211 50.4541C52.1057 49.9122 52.2973 49.3706 52.5851 48.8602C52.8729 48.3497 53.2512 47.8805 53.6984 47.4792C54.6016 46.6689 55.7306 46.1846 56.837 46.133C57.9435 46.0814 58.9368 46.4666 59.5984 47.204ZM54.4398 52.681C54.6924 52.8626 54.9874 52.9798 55.308 53.0262C55.6285 53.0726 55.9684 53.0472 56.3081 52.9513C56.6478 52.8555 56.9807 52.6912 57.2878 52.4677C57.595 52.2443 57.8703 51.9661 58.0981 51.6491C58.3259 51.3321 58.5018 50.9824 58.6156 50.62C58.7294 50.2577 58.7789 49.8897 58.7614 49.5372C58.7439 49.1847 58.6596 48.8545 58.5134 48.5654C58.3672 48.2764 58.1619 48.0342 57.9093 47.8527C57.6567 47.6712 57.3617 47.5539 57.0412 47.5075C56.7206 47.4611 56.3808 47.4866 56.0411 47.5824C55.7014 47.6782 55.3685 47.8426 55.0613 48.066C54.7542 48.2894 54.4788 48.5676 54.251 48.8846C54.0232 49.2017 53.8474 49.5514 53.7336 49.9137C53.6198 50.2761 53.5702 50.644 53.5878 50.9966C53.6053 51.3491 53.6896 51.6793 53.8358 51.9683C53.982 52.2573 54.1872 52.4995 54.4398 52.681Z" fill="#181311"/>
<path d="M18.2502 49.7621L15.8668 53.9138C15.7772 54.0693 15.6415 54.1932 15.4784 54.2682C15.3154 54.3433 15.133 54.3658 14.9566 54.3326C14.7801 54.2994 14.6184 54.2122 14.4937 54.083C14.369 53.9539 14.2876 53.7892 14.2607 53.6117L13.6529 49.5153C13.6484 49.491 13.6357 49.4687 13.6169 49.4523C13.598 49.4359 13.5743 49.4265 13.5498 49.4256C13.5252 49.4247 13.5015 49.4325 13.4826 49.4475C13.4638 49.4626 13.451 49.484 13.4466 49.508L12.4483 54.0537C12.436 54.1089 12.4044 54.1579 12.3591 54.1917C12.3138 54.2255 12.2578 54.2419 12.2015 54.2379L11.2068 54.1716C11.1746 54.1691 11.1433 54.1598 11.115 54.1443C11.0866 54.1288 11.0619 54.1075 11.0424 54.0817C11.0229 54.056 11.0091 54.0264 11.0018 53.9949C10.9946 53.9634 10.9942 53.9307 11.0005 53.899L12.5256 46.5462C12.5363 46.4971 12.5632 46.453 12.6019 46.4209C12.6407 46.3888 12.689 46.3707 12.7393 46.3694L14.2165 46.3436C14.3102 46.3416 14.4015 46.3738 14.4734 46.4341C14.5452 46.4944 14.5927 46.5787 14.607 46.6714L15.4358 51.7993C15.4751 52.0375 15.5549 52.0522 15.6752 51.8435L18.7549 46.5278C18.8212 46.4173 18.9182 46.362 19.0459 46.362H20.4089C20.4422 46.362 20.4751 46.3693 20.5053 46.3833C20.5354 46.3974 20.562 46.4178 20.5832 46.4432C20.6043 46.4686 20.6195 46.4983 20.6276 46.5301C20.6357 46.562 20.6365 46.5951 20.6299 46.6272L19.1748 53.9616C19.1429 54.1188 19.0459 54.1974 18.8838 54.1974L17.8155 54.1864C17.6706 54.1864 17.6129 54.1151 17.6424 53.9727L18.4786 49.8469C18.4851 49.8184 18.4811 49.7888 18.4673 49.7634C18.4535 49.738 18.4309 49.7185 18.4034 49.7083C18.3759 49.6981 18.3454 49.6979 18.3173 49.7078C18.2892 49.7176 18.2654 49.7369 18.2502 49.7621Z" fill="#181311"/>
<path d="M22.6116 51.0404L22.2543 52.6613C22.247 52.6922 22.2469 52.7244 22.2539 52.7555C22.2609 52.7865 22.2749 52.8155 22.2948 52.8403C22.3146 52.8652 22.3399 52.8852 22.3686 52.8988C22.3973 52.9125 22.4288 52.9194 22.4606 52.9191L26.9511 52.8934C26.9833 52.8929 27.0152 52.8999 27.0442 52.9138C27.0733 52.9276 27.0988 52.948 27.1187 52.9733C27.1387 52.9986 27.1525 53.0281 27.1592 53.0596C27.1659 53.0911 27.1653 53.1237 27.1574 53.1549L26.929 54.0464C26.9176 54.0915 26.8915 54.1316 26.8548 54.1602C26.8181 54.1889 26.7729 54.2046 26.7264 54.2048L20.6555 54.1974C20.6245 54.1975 20.5939 54.1906 20.5658 54.1774C20.5377 54.1642 20.5129 54.1449 20.4932 54.1209C20.4735 54.097 20.4593 54.0689 20.4517 54.0388C20.4441 54.0088 20.4433 53.9774 20.4493 53.9469L21.9117 46.5499C21.921 46.5027 21.9462 46.4602 21.983 46.4293C22.0199 46.3985 22.0663 46.3812 22.1143 46.3804L27.9826 46.292C28.0139 46.2914 28.045 46.2979 28.0735 46.3109C28.102 46.3238 28.1273 46.3431 28.1474 46.3671C28.1676 46.3911 28.1821 46.4193 28.1899 46.4497C28.1977 46.48 28.1986 46.5118 28.1925 46.5425L28.012 47.5114C28.0025 47.5598 27.9763 47.6033 27.9379 47.6343C27.8995 47.6653 27.8514 47.6817 27.802 47.6808L23.4515 47.6366C23.4033 47.6364 23.3565 47.6527 23.319 47.6829C23.2814 47.7131 23.2554 47.7553 23.2452 47.8024L22.9653 49.2169C22.9593 49.2471 22.9601 49.2782 22.9675 49.308C22.9749 49.3378 22.9887 49.3657 23.008 49.3895C23.0274 49.4134 23.0517 49.4328 23.0793 49.4462C23.1069 49.4597 23.1372 49.4669 23.1679 49.4674L26.9401 49.4711C26.9679 49.4711 26.9955 49.4767 27.0213 49.4875C27.047 49.4982 27.0703 49.514 27.0898 49.5339C27.1094 49.5538 27.1248 49.5774 27.1351 49.6033C27.1454 49.6292 27.1505 49.6569 27.15 49.6848L27.1427 50.6684C27.1417 50.7234 27.1191 50.7759 27.0799 50.8145C27.0406 50.853 26.9877 50.8747 26.9327 50.8746H22.8179C22.7697 50.8744 22.7229 50.8908 22.6854 50.9209C22.6478 50.9511 22.6218 50.9933 22.6116 51.0404Z" fill="#181311"/>
<path d="M41.3989 51.9799H38.9013C38.7416 51.9799 38.6201 52.0474 38.5366 52.1825L37.4057 54.0023C37.3695 54.0599 37.3198 54.1074 37.2611 54.1403C37.2025 54.1731 37.1369 54.1903 37.0704 54.1901H35.8953C35.7136 54.1901 35.6706 54.1128 35.7664 53.9581L40.3416 46.5537C40.4417 46.3931 40.5869 46.2657 40.759 46.1873C40.9312 46.1089 41.1226 46.083 41.3094 46.1129C41.4962 46.1428 41.67 46.2271 41.8091 46.3553C41.9482 46.4835 42.0464 46.6499 42.0914 46.8336L43.8228 53.9691C43.8572 54.1165 43.7994 54.1901 43.6496 54.1901H42.3198C42.1774 54.1901 42.0926 54.1214 42.0656 53.9838L41.7083 52.2304C41.6739 52.0634 41.5708 51.9799 41.3989 51.9799ZM40.9421 48.5061C40.938 48.4823 40.9267 48.4604 40.9098 48.4433C40.8929 48.4261 40.8712 48.4146 40.8475 48.4102C40.8238 48.4058 40.7994 48.4087 40.7774 48.4186C40.7555 48.4285 40.7371 48.4449 40.7247 48.4655L39.4944 50.5137C39.483 50.5318 39.4768 50.5526 39.4763 50.574C39.4759 50.5953 39.4813 50.6164 39.4918 50.6349C39.5024 50.6534 39.5179 50.6687 39.5365 50.6792C39.5551 50.6896 39.5762 50.6948 39.5975 50.6942L41.1852 50.6832C41.202 50.6829 41.2186 50.6789 41.2338 50.6717C41.249 50.6644 41.2625 50.6539 41.2733 50.641C41.2841 50.6281 41.2921 50.613 41.2966 50.5968C41.3011 50.5805 41.302 50.5635 41.2994 50.5469L40.9421 48.5061Z" fill="#181311"/>
<path d="M46.2464 51.4383L45.7086 53.9985C45.6816 54.1262 45.603 54.1901 45.4729 54.1901H44.3714C44.2118 54.1901 44.1479 54.1115 44.1799 53.9543L45.6718 46.5389C45.6832 46.4779 45.715 46.4223 45.7624 46.381C45.8097 46.3397 45.8698 46.3148 45.9333 46.3105C47.6058 46.211 52.6488 45.5848 51.8273 48.7639C51.168 51.3241 48.6961 51.2799 46.4933 51.243C46.3557 51.2406 46.2735 51.3057 46.2464 51.4383ZM50.2507 48.8486C50.5786 47.2388 48.1694 47.5777 47.1858 47.714C47.1294 47.7225 47.0769 47.7473 47.035 47.7854C46.993 47.8234 46.9634 47.8729 46.95 47.9276L46.5633 49.5743C46.5578 49.5983 46.5577 49.6232 46.5631 49.6473C46.5684 49.6713 46.5791 49.6939 46.5943 49.7133C46.6094 49.7327 46.6287 49.7484 46.6508 49.7595C46.6728 49.7705 46.697 49.7764 46.7217 49.7769C47.6094 49.788 50.0039 50.0606 50.2507 48.8486Z" fill="#181311"/>
<path d="M63.28 51.4162L65.7408 46.5131C65.8144 46.3682 65.9311 46.2958 66.0907 46.2958L67.2769 46.2847C67.3471 46.2835 67.4152 46.3092 67.4672 46.3564C67.5192 46.4036 67.5513 46.4689 67.5569 46.5389L67.9989 51.4309C68.0014 51.4495 68.0098 51.4668 68.0227 51.4803C68.0357 51.4938 68.0526 51.5029 68.0711 51.5061C68.0895 51.5094 68.1085 51.5067 68.1253 51.4985C68.1421 51.4903 68.1559 51.477 68.1647 51.4604L70.5223 46.4652C70.5714 46.3621 70.6537 46.3093 70.7691 46.3068L71.8374 46.2921C71.8729 46.2912 71.9078 46.2997 71.939 46.3166C71.9702 46.3336 71.9965 46.3584 72.0153 46.3888C72.0342 46.4191 72.0451 46.454 72.0468 46.4899C72.0485 46.5259 72.0411 46.5618 72.0253 46.5941L68.3157 54.0133C68.2568 54.1311 68.1622 54.1901 68.0321 54.1901H67.008C66.8778 54.1901 66.8078 54.125 66.798 53.9948L66.3191 48.6571C66.3172 48.6346 66.308 48.6134 66.2929 48.5967C66.2778 48.58 66.2576 48.5687 66.2355 48.5646C66.2133 48.5604 66.1905 48.5636 66.1703 48.5736C66.1502 48.5837 66.1339 48.6 66.1239 48.6202L63.4089 54.0169C63.3834 54.069 63.344 54.1128 63.2952 54.1434C63.2463 54.174 63.19 54.1902 63.1327 54.1901H62.0902C61.9256 54.1901 61.836 54.109 61.8212 53.947L61.1397 46.5573C61.1367 46.525 61.1403 46.4924 61.1503 46.4616C61.1604 46.4308 61.1768 46.4025 61.1983 46.3786C61.2198 46.3546 61.246 46.3355 61.2753 46.3225C61.3046 46.3095 61.3362 46.3029 61.3681 46.3031L62.5543 46.3068C62.682 46.3068 62.7496 46.3707 62.7569 46.4984L63.0774 51.3757C63.0788 51.3992 63.088 51.4217 63.1035 51.4395C63.119 51.4572 63.14 51.4694 63.1631 51.474C63.1862 51.4787 63.2103 51.4755 63.2314 51.465C63.2526 51.4546 63.2696 51.4374 63.28 51.4162Z" fill="#181311"/>
<path d="M73.8122 49.4454L77.7169 49.4785C77.7463 49.4791 77.7753 49.4861 77.8017 49.4989C77.8281 49.5118 77.8514 49.5303 77.87 49.553C77.8886 49.5758 77.902 49.6024 77.9093 49.6309C77.9165 49.6593 77.9175 49.6891 77.9122 49.718L77.7317 50.7089C77.7231 50.7554 77.6985 50.7974 77.6622 50.8277C77.6258 50.858 77.5801 50.8746 77.5328 50.8747H73.3848C73.3376 50.8747 73.2918 50.8914 73.2554 50.9216C73.2191 50.9519 73.1945 50.9939 73.1859 51.0404L72.8875 52.6502C72.8822 52.6791 72.8832 52.7089 72.8905 52.7373C72.8978 52.7658 72.9112 52.7924 72.9297 52.8152C72.9483 52.8379 72.9716 52.8564 72.998 52.8693C73.0245 52.8821 73.0534 52.8891 73.0828 52.8897L77.5107 52.9376C77.54 52.9377 77.5689 52.9442 77.5955 52.9566C77.6221 52.9691 77.6456 52.9871 77.6646 53.0095C77.6835 53.0319 77.6973 53.0582 77.7051 53.0865C77.7128 53.1148 77.7144 53.1444 77.7096 53.1733L77.5696 54.0206C77.5618 54.0678 77.5375 54.1107 77.5011 54.1417C77.4647 54.1727 77.4185 54.1898 77.3707 54.1901H71.3183C71.2882 54.1901 71.2585 54.1835 71.2313 54.1706C71.2041 54.1578 71.1801 54.139 71.161 54.1158C71.142 54.0925 71.1284 54.0652 71.1211 54.036C71.1139 54.0068 71.1133 53.9764 71.1193 53.9469L72.6002 46.4099C72.6097 46.3635 72.6351 46.3218 72.6722 46.2922C72.7092 46.2626 72.7554 46.2469 72.8028 46.2478L78.6084 46.3289C78.6374 46.3291 78.666 46.3355 78.6922 46.3477C78.7185 46.3599 78.7419 46.3776 78.7607 46.3996C78.7796 46.4216 78.7935 46.4474 78.8015 46.4752C78.8096 46.5031 78.8116 46.5323 78.8073 46.561L78.671 47.5003C78.6639 47.5488 78.6395 47.5931 78.6022 47.6249C78.565 47.6567 78.5174 47.674 78.4684 47.6735L74.0074 47.6403C73.9578 47.6399 73.9099 47.6577 73.8725 47.6903C73.8352 47.7228 73.8111 47.768 73.8048 47.8171L73.6132 49.2133C73.609 49.2419 73.611 49.2712 73.619 49.299C73.6271 49.3268 73.641 49.3526 73.6599 49.3746C73.6787 49.3966 73.7021 49.4143 73.7283 49.4265C73.7546 49.4387 73.7832 49.4451 73.8122 49.4454Z" fill="#181311"/>
<path d="M84.5465 50.7604L86.1747 53.8953C86.2779 54.0966 86.2165 54.1961 85.9905 54.1936L84.5318 54.1863C84.4262 54.1863 84.3513 54.1396 84.307 54.0463C83.6108 52.6133 83.0325 50.2888 80.8517 51.0624C80.7363 51.1017 80.665 51.1815 80.638 51.3019L80.0818 53.991C80.0707 54.0469 80.0401 54.0972 79.9951 54.1335C79.9501 54.1697 79.8936 54.1897 79.835 54.19H78.7225C78.607 54.19 78.5604 54.1335 78.5825 54.0205L80.0597 46.5203C80.07 46.4674 80.0984 46.4196 80.1401 46.3853C80.1817 46.351 80.2341 46.3323 80.2881 46.3325C81.8352 46.3619 86.4289 45.6215 86.5394 47.9496C86.6008 49.2832 85.9598 50.1624 84.6165 50.5872C84.5256 50.6167 84.5023 50.6744 84.5465 50.7604ZM81.3711 47.7876L81.0616 49.4453C81.0297 49.6245 81.1034 49.7068 81.2827 49.6921C82.3289 49.6037 84.4507 49.8578 84.9885 48.7601C85.3127 48.097 84.7196 47.6734 84.0934 47.6586C83.224 47.6414 82.3669 47.6414 81.5221 47.6586C81.4855 47.6597 81.4505 47.6731 81.4229 47.6966C81.3954 47.7201 81.3771 47.7523 81.3711 47.7876Z" fill="#181311"/>
<path d="M54.4395 52.6811C54.1869 52.4996 53.9816 52.2574 53.8354 51.9684C53.6892 51.6794 53.605 51.3492 53.5874 50.9967C53.5699 50.6441 53.6194 50.2762 53.7333 49.9138C53.8471 49.5515 54.0229 49.2018 54.2507 48.8847C54.4785 48.5677 54.7538 48.2895 55.061 48.0661C55.3681 47.8427 55.701 47.6783 56.0407 47.5825C56.3805 47.4867 56.7203 47.4612 57.0408 47.5076C57.3614 47.554 57.6564 47.6713 57.909 47.8528C58.1616 48.0343 58.3669 48.2765 58.5131 48.5655C58.6593 48.8545 58.7435 49.1847 58.7611 49.5373C58.7786 49.8898 58.729 50.2578 58.6152 50.6201C58.5014 50.9825 58.3256 51.3322 58.0978 51.6492C57.87 51.9662 57.5946 52.2444 57.2875 52.4678C56.9804 52.6913 56.6474 52.8556 56.3077 52.9514C55.968 53.0472 55.6282 53.0727 55.3076 53.0263C54.9871 52.9799 54.6921 52.8626 54.4395 52.6811ZM54.7283 52.307C54.932 52.4513 55.1712 52.5411 55.4323 52.5715C55.6934 52.6019 55.9712 52.5721 56.2498 52.484C56.5285 52.3959 56.8026 52.2511 57.0564 52.0579C57.3103 51.8647 57.5389 51.6269 57.7293 51.358C58.1137 50.815 58.319 50.1785 58.2999 49.5885C58.2809 48.9986 58.039 48.5035 57.6276 48.2122C57.4238 48.068 57.1846 47.9781 56.9235 47.9477C56.6625 47.9173 56.3847 47.9471 56.106 48.0352C55.8273 48.1233 55.5533 48.2681 55.2994 48.4613C55.0456 48.6545 54.817 48.8923 54.6266 49.1612C54.2421 49.7042 54.0368 50.3407 54.0559 50.9307C54.075 51.5206 54.3169 52.0157 54.7283 52.307Z" fill="#F7F7F8" fill-opacity="0.996"/>
<path d="M47.1863 47.714C48.1698 47.5777 50.579 47.2388 50.2512 48.8486C50.0044 50.0606 47.6099 49.788 46.7221 49.7769C46.6975 49.7764 46.6733 49.7705 46.6513 49.7595C46.6292 49.7485 46.6099 49.7327 46.5947 49.7133C46.5796 49.6939 46.5689 49.6713 46.5636 49.6473C46.5582 49.6233 46.5582 49.5983 46.5637 49.5743L46.9505 47.9277C46.9639 47.873 46.9934 47.8234 47.0354 47.7854C47.0774 47.7473 47.1299 47.7225 47.1863 47.714ZM47.201 48.4876L47.2636 49.2207C47.2702 49.2924 47.3049 49.3586 47.3601 49.4049C47.4153 49.4511 47.4866 49.4736 47.5583 49.4675L48.9029 49.357C49.0268 49.3465 49.1483 49.3214 49.2603 49.283C49.3723 49.2446 49.4728 49.1937 49.5559 49.1331C49.639 49.0726 49.7032 49.0036 49.7448 48.9301C49.7863 48.8567 49.8044 48.7801 49.7981 48.7049L49.787 48.5723C49.7743 48.4205 49.6628 48.2832 49.477 48.1906C49.2912 48.098 49.0462 48.0578 48.7961 48.0787L47.4478 48.1929C47.3761 48.1994 47.3099 48.2341 47.2636 48.2893C47.2174 48.3446 47.1949 48.4158 47.201 48.4876Z" fill="#F7F7F8" fill-opacity="0.996"/>
<path d="M81.3714 47.7876C81.3773 47.7523 81.3957 47.7202 81.4232 47.6966C81.4507 47.6731 81.4858 47.6597 81.5224 47.6586C82.3672 47.6415 83.2243 47.6415 84.0937 47.6586C84.7199 47.6734 85.313 48.097 84.9888 48.7601C84.451 49.8579 82.3291 49.6037 81.283 49.6921C81.1037 49.7068 81.03 49.6246 81.0619 49.4453L81.3714 47.7876ZM83.7142 48.9922C84.1096 48.9381 84.3405 48.7822 84.4068 48.5243C84.4387 48.3966 84.397 48.2996 84.2815 48.2333C84.0679 48.1105 83.8149 48.1326 83.5227 48.2996C83.0585 47.9804 82.5416 47.9116 81.9718 48.0933C81.8563 48.1294 81.7576 48.2065 81.6943 48.3102C81.6311 48.4138 81.6077 48.5368 81.6285 48.6559C81.6494 48.775 81.713 48.8821 81.8074 48.9569C81.9019 49.0318 82.0206 49.0692 82.1413 49.0622L83.7142 48.9922Z" fill="#F7F7F8" fill-opacity="0.996"/>
<path d="M83.714 48.9922L83.5225 48.2996C83.8147 48.1326 84.0677 48.1105 84.2813 48.2333C84.3967 48.2996 84.4385 48.3966 84.4066 48.5243C84.3403 48.7822 84.1094 48.9381 83.714 48.9922Z" fill="white"/>
<path d="M40.9423 48.5061L41.2996 50.5469C41.3023 50.5636 41.3013 50.5806 41.2968 50.5968C41.2923 50.6131 41.2844 50.6281 41.2736 50.6411C41.2628 50.654 41.2493 50.6644 41.2341 50.6717C41.2189 50.679 41.2023 50.6829 41.1854 50.6832L39.5977 50.6943C39.5764 50.6949 39.5553 50.6897 39.5367 50.6792C39.5181 50.6688 39.5027 50.6534 39.4921 50.6349C39.4815 50.6164 39.4761 50.5953 39.4766 50.574C39.477 50.5527 39.4833 50.5318 39.4946 50.5138L40.725 48.4656C40.7373 48.4449 40.7557 48.4285 40.7777 48.4186C40.7996 48.4087 40.8241 48.4058 40.8478 48.4102C40.8714 48.4146 40.8932 48.4262 40.9101 48.4433C40.927 48.4605 40.9382 48.4824 40.9423 48.5061ZM40.2682 50.1859C40.2675 50.2058 40.2711 50.2256 40.2788 50.2439C40.2866 50.2622 40.2982 50.2786 40.313 50.2919C40.3277 50.3053 40.3452 50.3152 40.3642 50.3211C40.3832 50.3269 40.4032 50.3286 40.4229 50.3259C40.5973 50.3013 40.7164 50.208 40.7802 50.0459C40.801 49.9968 40.8033 49.9418 40.7868 49.8911C40.7702 49.8405 40.7359 49.7975 40.6901 49.7701C40.6444 49.7427 40.5902 49.7328 40.5377 49.7422C40.4852 49.7516 40.4379 49.7797 40.4045 49.8212C40.3185 49.9194 40.2731 50.041 40.2682 50.1859Z" fill="#F7F7F8" fill-opacity="0.996"/>
<path d="M28.0336 49.8359C28.0483 50.0471 27.9992 50.3038 27.8862 50.6058L27.6836 50.4769L27.7499 49.9538C27.8039 50.0717 27.8985 50.0324 28.0336 49.8359Z" fill="#181311"/>
<path d="M82.3959 51.6003L84.0241 54.5695C84.056 54.6277 84.1043 54.6754 84.1632 54.7068C84.222 54.7382 84.2889 54.7519 84.3557 54.7463C85.1121 54.6824 85.8378 54.7659 86.5328 54.9968C80.3441 56.7724 73.2577 58.0003 65.2738 58.6806C51.8796 59.8201 38.6267 59.5045 25.5149 57.7338C24.9796 57.6626 24.982 57.6172 25.5223 57.5975C26.8558 57.5496 28.403 57.8554 29.6555 57.9033C44.5637 58.4927 59.8734 58.4043 74.5863 54.9268L80.1967 54.7352C80.3416 54.7303 80.4325 54.6579 80.4693 54.5179L80.9814 52.536C81.5339 52.3396 82.0054 52.0277 82.3959 51.6003Z" fill="white"/>
</svg>
