<svg width="100" height="100" viewBox="0 0 100 100" fill="none" xmlns="http://www.w3.org/2000/svg">
<rect width="100" height="100" fill="#E2134D"/>
<path d="M16.045 44.3457C17.2275 42.0382 19.0225 40.6232 21.7225 41.0882C23.54 41.4032 24.6925 42.4982 24.7975 44.3632C24.7978 44.3875 24.8066 44.4109 24.8222 44.4295C24.8379 44.448 24.8595 44.4606 24.8834 44.465C24.9072 44.4694 24.9319 44.4655 24.9532 44.4537C24.9744 44.442 24.991 44.4233 25 44.4007C26.065 41.9491 27.8467 40.8332 30.345 41.0532C33.1925 41.3057 33.7875 43.2857 33.8175 45.7732C33.8542 48.7165 33.8767 51.6607 33.885 54.6057C33.885 54.6774 33.9208 54.7132 33.9925 54.7132H35.51C35.6283 54.7132 35.6875 54.7732 35.6875 54.8932V55.4132C35.6875 55.5182 35.635 55.5707 35.53 55.5707H28.99C28.8883 55.5707 28.8408 55.5207 28.8475 55.4207L28.89 54.8332C28.8967 54.7332 28.95 54.684 29.05 54.6857L30.8775 54.7207C30.9475 54.7224 30.9825 54.6882 30.9825 54.6182C31.0225 49.2199 31.0233 45.6274 30.985 43.8407C30.925 41.0507 27.59 41.9407 26.415 43.3032C25.305 44.5899 24.7483 46.0966 24.745 47.8232C24.74 50.0699 24.7442 52.3199 24.7575 54.5732C24.7575 54.6549 24.7983 54.6957 24.88 54.6957H26.455C26.5517 54.6957 26.6042 54.744 26.6125 54.8407L26.6525 55.4207C26.6592 55.5207 26.6117 55.5707 26.51 55.5707H20.0475C20.0101 55.5707 19.9743 55.5563 19.9476 55.5306C19.921 55.5049 19.9057 55.4699 19.905 55.4332L19.89 54.8407C19.8893 54.8198 19.8929 54.799 19.9006 54.7796C19.9082 54.7602 19.9198 54.7426 19.9346 54.7278C19.9493 54.713 19.967 54.7014 19.9864 54.6938C20.0058 54.6861 20.0266 54.6825 20.0475 54.6832L21.8375 54.7282C21.9292 54.7315 21.9758 54.6874 21.9775 54.5957C22.0342 50.479 22.0233 46.8882 21.945 43.8232C21.925 43.0582 21.585 42.3507 20.785 42.1282C18.2475 41.4207 16.6 44.1182 16.0475 46.1732C15.43 48.4632 15.74 51.9907 15.7525 54.5682C15.7525 54.6532 15.795 54.6957 15.88 54.6957H17.5475C17.572 54.6956 17.5961 54.7018 17.6174 54.7137C17.6388 54.7256 17.6568 54.7428 17.6696 54.7636C17.6824 54.7845 17.6896 54.8082 17.6906 54.8327C17.6915 54.8572 17.6862 54.8814 17.675 54.9032C17.595 55.0599 17.5975 55.2174 17.6825 55.3757C17.6933 55.3959 17.6987 55.4186 17.6981 55.4416C17.6975 55.4645 17.691 55.4869 17.6792 55.5066C17.6673 55.5263 17.6506 55.5425 17.6305 55.5537C17.6105 55.565 17.5879 55.5708 17.565 55.5707H11.1875C11.1042 55.5707 11.0625 55.529 11.0625 55.4457V54.8107C11.0625 54.7224 11.1075 54.679 11.1975 54.6807L12.855 54.7332C12.8738 54.7339 12.8925 54.7307 12.9101 54.7238C12.9277 54.717 12.9437 54.7066 12.9572 54.6933C12.9707 54.68 12.9815 54.664 12.9889 54.6464C12.9962 54.6288 13 54.6099 13 54.5907V42.2332C13 42.1888 12.9824 42.1462 12.9509 42.1148C12.9195 42.0834 12.8769 42.0657 12.8325 42.0657L11.1 42.0857C11.0333 42.0857 11 42.0524 11 41.9857V41.4632C11 41.3716 11.0467 41.3257 11.14 41.3257C12.66 41.3341 14.1733 41.2332 15.68 41.0232C15.7041 41.0196 15.7287 41.0214 15.7521 41.0282C15.7755 41.0351 15.7972 41.047 15.8156 41.0632C15.8341 41.0793 15.849 41.0992 15.8592 41.1217C15.8695 41.1441 15.8749 41.1685 15.875 41.1932V44.3057C15.8753 44.3258 15.8822 44.3452 15.8948 44.3609C15.9074 44.3765 15.9248 44.3875 15.9444 44.3921C15.9639 44.3967 15.9844 44.3946 16.0027 44.3862C16.0209 44.3778 16.0358 44.3636 16.045 44.3457Z" fill="white"/>
<path d="M42.3125 44.0983C43.805 40.7133 47.8375 40.1933 50.625 42.2558C55.8325 46.1108 54.1125 55.8508 46.895 55.9083C44.8875 55.9233 43.425 55.1083 42.33 53.4808C42.3232 53.4695 42.3129 53.4608 42.3007 53.4562C42.2885 53.4516 42.275 53.4512 42.2622 53.4552C42.2495 53.4592 42.2383 53.4672 42.2302 53.4782C42.2221 53.4891 42.2177 53.5023 42.2175 53.5158L42.2425 62.6608C42.2442 62.7675 42.2975 62.8208 42.4025 62.8208H44.5625C44.6458 62.8208 44.6875 62.8625 44.6875 62.9458V63.5708C44.6875 63.6541 44.6458 63.6958 44.5625 63.6958H37.4375C37.3542 63.6958 37.3125 63.6541 37.3125 63.5708V63.0083C37.3125 62.8833 37.375 62.8208 37.5 62.8208H39.3075C39.3433 62.8208 39.3776 62.8066 39.403 62.7813C39.4283 62.7559 39.4425 62.7216 39.4425 62.6858L39.4375 42.2308C39.4375 42.1392 39.3917 42.0925 39.3 42.0908L37.495 42.0608C37.463 42.0602 37.4324 42.0472 37.41 42.0248C37.3876 42.0024 37.375 41.9722 37.375 41.9408V41.4808C37.375 41.4075 37.4108 41.3692 37.4825 41.3658L42.055 41.0783C42.1433 41.0733 42.1875 41.115 42.1875 41.2033V44.0733C42.1875 44.0883 42.1927 44.1029 42.2022 44.1145C42.2118 44.1261 42.225 44.1341 42.2398 44.1371C42.2545 44.14 42.2698 44.1378 42.283 44.1307C42.2963 44.1236 42.3067 44.1122 42.3125 44.0983ZM42.4025 51.3683C42.835 54.1758 45.705 56.0708 48.3125 54.6258C50.855 53.2183 50.48 47.3758 50.0175 44.9433C49.7008 43.2783 48.8733 42.2808 47.535 41.9508C44.8125 41.2808 42.72 43.4558 42.4 46.0783C42.16 48.0366 42.1608 49.8 42.4025 51.3683Z" fill="white"/>
<path d="M83.73 53.7182C82.8417 54.7665 81.7541 55.4415 80.4675 55.7432C78.0675 56.3081 74.4875 55.8806 74.5675 52.5732C74.6725 48.1982 80.3475 47.3557 83.6125 47.2857C83.7008 47.2823 83.745 47.2365 83.745 47.1482C83.7575 45.5707 84.375 42.4907 82.365 41.9057C80.9383 41.489 79.53 41.6565 78.14 42.4082C78.0693 42.4467 78.0084 42.501 77.962 42.5668C77.9156 42.6326 77.8851 42.7081 77.8728 42.7875C77.8604 42.8669 77.8666 42.948 77.8908 43.0244C77.9151 43.1009 77.9567 43.1706 78.0125 43.2282C80.775 46.0832 75.88 47.4857 75.8425 44.6157C75.7925 40.8207 82.145 40.6782 84.385 41.3207C85.8066 41.729 86.5433 42.7457 86.595 44.3707C86.64 45.8323 86.65 48.844 86.625 53.4057C86.6125 55.2432 88.325 54.3807 88.6475 53.2582C88.6573 53.2224 88.6788 53.1908 88.7085 53.1682C88.7383 53.1456 88.7748 53.1333 88.8125 53.1332H89.1175C89.2141 53.1332 89.2542 53.1807 89.2375 53.2757C88.7 56.3231 84.3775 57.2156 83.8925 53.7657C83.8725 53.629 83.8183 53.6132 83.73 53.7182ZM83.7675 48.1957C83.7678 48.1835 83.7657 48.1714 83.7614 48.1601C83.7571 48.1487 83.7505 48.1383 83.7422 48.1295C83.7338 48.1207 83.7238 48.1136 83.7127 48.1086C83.7016 48.1037 83.6896 48.101 83.6775 48.1007C81.86 48.0307 78.7875 48.4232 77.7675 50.1507C77.3175 50.914 77.2041 51.7073 77.4275 52.5307C78.1875 55.3307 82.205 55.0606 83.42 52.8857C84.0125 51.8232 83.7475 49.5207 83.7675 48.1957Z" fill="white"/>
<path d="M60.625 53.5084V62.6959C60.625 62.729 60.6382 62.7608 60.6616 62.7843C60.6851 62.8077 60.7168 62.8209 60.75 62.8209H62.9675C63.0725 62.8209 63.125 62.8734 63.125 62.9784V63.5384C63.125 63.6434 63.0733 63.6959 62.97 63.6959H55.8175C55.7375 63.6959 55.6983 63.6559 55.7 63.5759L55.715 62.9684C55.7183 62.87 55.7692 62.8209 55.8675 62.8209H57.68C57.77 62.8209 57.815 62.7759 57.815 62.6859L57.8125 42.2384C57.8125 42.1434 57.7642 42.0951 57.6675 42.0934L55.9625 42.0609C55.8625 42.0592 55.8125 42.0084 55.8125 41.9084V41.5059C55.8125 41.4176 55.8558 41.3709 55.9425 41.3659L60.5075 41.0759C60.5975 41.0692 60.6417 41.1117 60.64 41.2034L60.59 44.0759C60.5883 44.2159 60.6208 44.2251 60.6875 44.1034C61.6125 42.4459 62.5425 41.3984 64.52 41.0959C68.9525 40.4184 72.1425 44.6784 72.015 48.7409C71.935 51.2184 70.91 53.6209 68.79 54.9284C66.1425 56.5584 62.4275 56.3109 60.7725 53.4684C60.7633 53.454 60.7498 53.4428 60.7339 53.4367C60.718 53.4305 60.7005 53.4296 60.684 53.434C60.6675 53.4385 60.6529 53.4481 60.6423 53.4615C60.6317 53.4749 60.6256 53.4913 60.625 53.5084ZM60.69 50.0009C60.73 52.7834 62.2275 55.5709 65.49 55.0384C69.455 54.3934 68.8975 47.8784 68.3725 44.9484C67.63 40.8109 62.9625 40.9509 61.305 44.3134C60.4475 46.0534 60.66 47.7534 60.69 50.0009Z" fill="white"/>
</svg>
