<svg width="100" height="100" viewBox="0 0 100 100" fill="none" xmlns="http://www.w3.org/2000/svg">
<rect width="100" height="100" fill="#1B244C"/>
<g clip-path="url(#clip0_84_2593)">
<path d="M92.3866 99.5787L92.4062 75.8674L92.3671 33.915C92.3671 33.8877 92.3595 33.8609 92.3451 33.8374C92.3307 33.8139 92.3101 33.7947 92.2854 33.7818L83.1639 28.9298C83.1071 28.899 83.0491 28.8972 82.9899 28.9244L71.8562 34.0144C71.7923 34.0428 71.7603 34.0926 71.7603 34.1636L71.7461 55.7312C71.7461 55.7845 71.7212 55.8011 71.6715 55.781L63.9264 52.4652C63.8719 52.4415 63.8187 52.4439 63.7666 52.4723L46.9959 61.4854C46.9225 61.5245 46.8858 61.5026 46.8858 61.4197V56.4026C46.8859 56.3751 46.8779 56.3483 46.8627 56.3252C46.8476 56.3022 46.8259 56.284 46.8005 56.2729L37.9543 52.4794C37.914 52.4617 37.8701 52.4535 37.8261 52.4554C37.7821 52.4572 37.7391 52.4691 37.7004 52.4901L35.5798 53.6285C35.51 53.6663 35.475 53.645 35.475 53.5645V32.3059C35.475 32.2455 35.4472 32.2017 35.3916 32.1745L26.7904 28.0205C26.7301 27.992 26.6709 27.9932 26.6128 28.024L8.47111 37.792C8.41664 37.8216 8.38941 37.8666 8.38941 37.9269C8.39178 50.54 8.39178 63.1484 8.38941 75.752C8.35152 75.7638 8.33613 75.8041 8.34324 75.8727L8.37876 99.9356C8.37994 100.01 8.4125 100.029 8.47643 99.9907L9.50118 99.378C9.55801 99.3436 9.58702 99.2927 9.5882 99.2252L9.59353 77.4374L9.59176 38.6746C9.59175 38.6472 9.59901 38.6203 9.61276 38.5968C9.62652 38.5734 9.64626 38.5543 9.6699 38.5414L26.2346 29.6224C26.2442 29.6172 26.255 29.6146 26.266 29.6148C26.2769 29.615 26.2876 29.618 26.297 29.6236C26.3065 29.6291 26.3144 29.6369 26.3199 29.6464C26.3254 29.6558 26.3285 29.6665 26.3287 29.6775V58.4876C26.3286 58.5275 26.3179 58.5666 26.2976 58.601C26.2773 58.6353 26.2482 58.6636 26.2132 58.6829L19.5426 62.2775C19.5264 62.2867 19.5129 62.2999 19.5036 62.3158C19.4942 62.3317 19.4893 62.3498 19.4893 62.3681L19.4858 106.487V109.993C19.4857 110.006 19.4891 110.019 19.4957 110.03C19.5023 110.042 19.5118 110.051 19.5232 110.057C19.5347 110.064 19.5477 110.067 19.5608 110.067C19.5739 110.066 19.5866 110.062 19.5977 110.055L20.6437 109.4C20.6665 109.386 20.6851 109.366 20.6979 109.343C20.7106 109.319 20.7171 109.293 20.7166 109.267L20.6935 107.34L20.6917 63.1726C20.6917 63.1361 20.7015 63.1005 20.72 63.0695C20.7385 63.0385 20.7649 63.0134 20.7965 62.9968L37.3398 54.1062C37.3978 54.0754 37.4269 54.0926 37.4269 54.1577V114.813L46.7597 117.809C46.8378 117.789 46.8769 117.739 46.8769 117.658L46.8858 116.275V63.0412C46.8858 63.0137 46.893 62.9869 46.9068 62.9634C46.9205 62.94 46.9403 62.9208 46.9639 62.908L63.3883 54.0689C63.3944 54.0659 63.4012 54.0646 63.408 54.0649C63.4148 54.0652 63.4214 54.0672 63.4272 54.0707C63.433 54.0743 63.4379 54.0792 63.4413 54.0851C63.4448 54.091 63.4467 54.0976 63.4469 54.1044L63.4451 114.758L63.4504 116.305C63.4516 116.357 63.4771 116.377 63.5268 116.364L72.7797 113.98C72.8448 113.964 72.8792 113.921 72.8827 113.852L72.9946 111.361V34.993C72.9946 34.9302 73.023 34.8858 73.0798 34.8598L82.9863 30.2706C82.9953 30.2664 83.0051 30.2646 83.015 30.2652C83.0249 30.2659 83.0344 30.269 83.0427 30.2743C83.051 30.2796 83.0579 30.287 83.0626 30.2956C83.0674 30.3043 83.0698 30.314 83.0698 30.3239L83.068 105.169L83.0733 105.745C83.0745 105.834 83.1118 105.853 83.1852 105.803L92.3049 99.7278C92.3594 99.6923 92.3866 99.6426 92.3866 99.5787Z" fill="white"/>
</g>
<defs>
<clipPath id="clip0_84_2593">
<rect width="84.0043" height="71.75" fill="white" transform="translate(8.34155 28)"/>
</clipPath>
</defs>
</svg>
