<svg width="100" height="100" viewBox="0 0 100 100" fill="none" xmlns="http://www.w3.org/2000/svg">
<rect width="100" height="100" fill="#8E744B"/>
<path d="M95.4099 49.9399C95.4099 61.9993 90.6193 73.5648 82.0921 82.0921C73.5648 90.6193 61.9993 95.4099 49.9399 95.4099C37.8805 95.4099 26.3151 90.6193 17.7878 82.0921C9.26053 73.5648 4.46997 61.9993 4.46997 49.9399C4.46997 37.8806 9.26053 26.3151 17.7878 17.7878C26.3151 9.26054 37.8805 4.46997 49.9399 4.46997C61.9993 4.46997 73.5648 9.26054 82.0921 17.7878C90.6193 26.3151 95.4099 37.8806 95.4099 49.9399Z" fill="#8E744B"/>
<path d="M64.1947 8.91486L70.3497 11.5749C70.479 11.631 70.5887 11.7241 70.6652 11.8424C70.7417 11.9607 70.7816 12.099 70.7797 12.2399L70.7197 20.8599C70.7185 21.046 70.6446 21.2244 70.5139 21.357C70.3832 21.4896 70.2059 21.566 70.0197 21.5699L63.3298 21.7299C63.2316 21.732 63.134 21.714 63.0431 21.6768C62.9523 21.6396 62.87 21.5841 62.8015 21.5137C62.733 21.4434 62.6798 21.3597 62.645 21.2678C62.6103 21.1759 62.5949 21.0779 62.5997 20.9799L63.1947 9.53486C63.2005 9.41929 63.2342 9.30683 63.2929 9.20714C63.3517 9.10746 63.4338 9.02352 63.5321 8.96254C63.6305 8.90157 63.7421 8.86537 63.8576 8.85707C63.973 8.84876 64.0887 8.8686 64.1947 8.91486Z" fill="white"/>
<path d="M55.1696 13.2648C55.2996 12.0198 54.9246 10.9298 56.4846 10.4648C58.1213 9.97475 59.8913 9.60642 61.7946 9.35975C62.1913 9.30642 62.3779 9.47975 62.3546 9.87975L61.6146 21.3947C61.6046 21.5386 61.5455 21.6747 61.4472 21.7803C61.3489 21.8858 61.2174 21.9545 61.0746 21.9747L54.7946 22.7947C54.7573 22.7999 54.7193 22.7966 54.6833 22.7853C54.6472 22.774 54.614 22.7548 54.586 22.7291C54.5579 22.7034 54.5357 22.6719 54.5207 22.6366C54.5058 22.6013 54.4986 22.5631 54.4996 22.5247C54.6196 19.4147 54.8429 16.3281 55.1696 13.2648Z" fill="white"/>
<path d="M52.2047 13.2947C52.4547 12.0497 53.1096 11.5847 54.2796 11.3097C54.5063 11.2564 54.6096 11.3447 54.5896 11.5747L53.7296 22.5047C53.7168 22.6678 53.6513 22.8222 53.5431 22.9448C53.4349 23.0675 53.2898 23.1517 53.1296 23.1847L51.0346 23.6247C50.838 23.6647 50.748 23.5847 50.7646 23.3847C51.058 19.9814 51.538 16.6181 52.2047 13.2947Z" fill="white"/>
<path d="M71.7048 21.4849L71.5647 12.7349C71.564 12.692 71.5749 12.6498 71.5964 12.6127C71.618 12.5756 71.6492 12.5451 71.6868 12.5245C71.7244 12.5039 71.7669 12.494 71.8097 12.4958C71.8525 12.4976 71.894 12.5111 71.9297 12.5349L75.2797 14.6899C75.3087 14.7087 75.3331 14.7338 75.3512 14.7631C75.3694 14.7925 75.3808 14.8256 75.3847 14.8599L76.3097 22.3649C76.3147 22.4024 76.3105 22.4406 76.2975 22.4762C76.2845 22.5118 76.2632 22.5438 76.2352 22.5693C76.2072 22.5948 76.1734 22.6132 76.1368 22.6229C76.1001 22.6326 76.0617 22.6332 76.0247 22.6249L71.8897 21.7099C71.8381 21.6986 71.7917 21.6703 71.7582 21.6295C71.7246 21.5887 71.7058 21.5377 71.7048 21.4849Z" fill="white"/>
<path d="M77.9248 42.8598C79.8848 36.9948 78.5798 27.4498 77.3048 20.9648C77.2915 20.8915 77.3215 20.8565 77.3948 20.8598C77.4315 20.8632 77.4698 20.8798 77.5098 20.9098C77.5332 20.9332 77.5498 20.9632 77.5598 20.9998C79.5548 27.7348 80.6498 36.0498 79.0948 42.9598C78.9215 43.7332 78.9265 44.6265 79.1098 45.6398C79.4598 47.5898 78.8598 50.1998 78.0048 52.2848C76.5048 55.9448 75.0282 59.6131 73.5748 63.2898C72.8548 65.1148 71.4398 65.5298 69.6598 64.9998C69.6432 64.9935 69.6293 64.9814 69.6208 64.9658C69.6122 64.9501 69.6095 64.932 69.6131 64.9145C69.6167 64.8971 69.6264 64.8815 69.6405 64.8706C69.6545 64.8596 69.672 64.854 69.6898 64.8548C72.5048 65.1748 72.4198 62.7548 73.1848 61.0248C75.6682 55.3715 77.2015 51.3615 77.7848 48.9948C78.1798 47.3948 77.2448 44.9098 77.9248 42.8598Z" fill="white"/>
<path d="M18.9197 25.2898L18.1547 24.9297C18.1238 24.9161 18.0976 24.8934 18.0796 24.8648C18.0615 24.8361 18.0525 24.8027 18.0536 24.7689C18.0546 24.735 18.0658 24.7023 18.0856 24.6748C18.1054 24.6474 18.1329 24.6265 18.1647 24.6147C18.8514 24.3447 19.043 23.8531 18.7397 23.1398C18.7222 23.1 18.7165 23.0561 18.7234 23.0132C18.7302 22.9704 18.7494 22.9304 18.7784 22.8982C18.8075 22.8659 18.8453 22.8428 18.8872 22.8315C18.9291 22.8203 18.9734 22.8214 19.0147 22.8348C19.8214 23.0981 20.2547 22.7864 20.3147 21.8998C20.3191 21.8464 20.3401 21.7958 20.3749 21.755C20.4096 21.7143 20.4563 21.6856 20.5083 21.6728C20.5603 21.6601 20.6149 21.6641 20.6646 21.6842C20.7142 21.7042 20.7562 21.7394 20.7847 21.7848L21.2997 22.6148C21.3279 22.6606 21.3691 22.697 21.4181 22.7193C21.4671 22.7416 21.5216 22.7487 21.5747 22.7398L22.5897 22.5898C22.6308 22.5832 22.6729 22.5877 22.7117 22.6027C22.7505 22.6177 22.7846 22.6428 22.8106 22.6754C22.8365 22.7079 22.8533 22.7468 22.8593 22.7879C22.8653 22.8291 22.8603 22.8712 22.8447 22.9098L22.5597 23.6198C22.5318 23.6883 22.5221 23.7629 22.5315 23.8363C22.5409 23.9098 22.5691 23.9795 22.6133 24.0388C22.6576 24.0982 22.7164 24.1451 22.7841 24.175C22.8518 24.205 22.926 24.2169 22.9997 24.2098C23.8964 24.1231 24.578 23.7131 25.0447 22.9798C25.1714 22.7864 25.333 22.7514 25.5297 22.8748C26.023 23.1914 26.5047 23.1431 26.9747 22.7298C27.0167 22.6924 27.0689 22.6685 27.1247 22.6612C27.1804 22.6539 27.237 22.6636 27.2872 22.689C27.3374 22.7143 27.3787 22.7542 27.4059 22.8034C27.4331 22.8526 27.4449 22.9088 27.4397 22.9648C27.3697 23.7848 27.7364 24.2281 28.5397 24.2948C28.5903 24.3 28.6382 24.3203 28.6772 24.353C28.7162 24.3858 28.7445 24.4294 28.7585 24.4783C28.7724 24.5273 28.7715 24.5793 28.7556 24.6276C28.7398 24.676 28.7099 24.7185 28.6697 24.7497C28.2464 25.0597 28.0197 25.4664 27.9897 25.9698C27.9863 26.0499 27.9522 26.1252 27.8947 26.1797L26.5497 27.4397C26.523 27.4643 26.4916 27.4831 26.4575 27.495C26.4233 27.5068 26.3872 27.5115 26.3514 27.5087C26.3157 27.5059 26.281 27.4956 26.2497 27.4786C26.2184 27.4615 26.1912 27.4381 26.1697 27.4097L25.9397 27.0997C25.8868 27.0299 25.8094 26.9827 25.723 26.9678C25.6367 26.953 25.5479 26.9715 25.4747 27.0197L24.6847 27.5297C24.6556 27.5484 24.622 27.5589 24.5874 27.5603C24.5528 27.5617 24.5184 27.5538 24.4879 27.5375C24.4574 27.5212 24.4317 27.4971 24.4136 27.4676C24.3954 27.4381 24.3855 27.4044 24.3847 27.3697V26.4247C24.3847 26.2148 24.2797 26.1097 24.0697 26.1097H23.5397C23.4986 26.1097 23.4592 26.0929 23.4301 26.0629C23.401 26.0329 23.3847 25.9922 23.3847 25.9497C23.3847 25.8764 23.3847 25.8031 23.3847 25.7298C23.3847 25.6964 23.3997 25.6714 23.4297 25.6547C23.8464 25.4181 24.0414 25.0564 24.0147 24.5697C24.0133 24.5381 24.0045 24.5071 23.9891 24.4794C23.9736 24.4517 23.952 24.4279 23.9258 24.41C23.8996 24.3921 23.8696 24.3804 23.8382 24.3761C23.8068 24.3717 23.7748 24.3747 23.7447 24.3848C22.7947 24.7081 22.4414 25.3231 22.6847 26.2298C22.6966 26.2742 22.6957 26.3213 22.6821 26.3654C22.6684 26.4094 22.6427 26.4486 22.6078 26.4781C22.573 26.5077 22.5306 26.5264 22.4857 26.532C22.4408 26.5376 22.3953 26.5299 22.3547 26.5097C21.648 26.1764 21.2064 26.3714 21.0297 27.0947C21.0184 27.1402 20.9966 27.1824 20.966 27.2179C20.9355 27.2534 20.897 27.2813 20.8538 27.2992C20.8105 27.3172 20.7636 27.3248 20.7169 27.3214C20.6702 27.3181 20.6249 27.3038 20.5847 27.2797C20.3347 27.1297 20.2264 26.9131 20.2597 26.6297C20.2648 26.5857 20.2582 26.5411 20.2408 26.5004C20.2234 26.4597 20.1956 26.4242 20.1603 26.3974C20.125 26.3707 20.0833 26.3536 20.0393 26.3479C19.9954 26.3421 19.9507 26.348 19.9097 26.3647L19.1047 26.6947C18.8814 26.7881 18.7997 26.7181 18.8597 26.4847L19.0747 25.6198C19.0915 25.5553 19.0852 25.487 19.0569 25.4267C19.0286 25.3664 18.98 25.318 18.9197 25.2898Z" fill="white"/>
<path d="M50.7297 25.0797C50.7331 24.943 50.7831 24.863 50.8797 24.8397C58.4197 23.1147 68.8297 21.4597 76.3047 23.9297C76.4714 23.9864 76.5881 24.0947 76.6547 24.2547C76.7681 24.518 76.8464 24.8447 76.8897 25.2347C77.2647 28.5647 77.9097 32.4197 77.7547 35.7447C77.7532 35.7867 77.7427 35.828 77.7239 35.8656C77.7051 35.9033 77.6785 35.9365 77.6458 35.963C77.6131 35.9896 77.5752 36.0088 77.5344 36.0194C77.4937 36.03 77.4512 36.0318 77.4097 36.0247C70.7097 34.8497 64.4297 35.3697 58.0197 35.6247C57.9467 35.6294 57.8743 35.6085 57.815 35.5656C57.7557 35.5227 57.7132 35.4605 57.6947 35.3897C56.6147 31.1763 54.2931 27.858 50.7297 25.4347C50.6464 25.378 50.6164 25.2997 50.6397 25.1997C50.6497 25.1497 50.6797 25.1097 50.7297 25.0797Z" fill="white"/>
<path d="M22.9198 31.8397L22.0298 27.7047C22.0198 27.6547 22.0398 27.6247 22.0898 27.6147C22.1564 27.598 22.1998 27.608 22.2198 27.6447C22.8298 28.908 23.2748 30.2364 23.5548 31.6297C23.5644 31.6776 23.5887 31.7213 23.6243 31.7547C23.6599 31.7882 23.705 31.8097 23.7534 31.8163C23.8018 31.8229 23.8511 31.8142 23.8943 31.7915C23.9376 31.7689 23.9727 31.7333 23.9948 31.6897L25.2998 29.0547C25.306 29.0413 25.3151 29.0294 25.3262 29.0197C25.3374 29.0101 25.3505 29.0029 25.3647 28.9986C25.3789 28.9944 25.3937 28.9932 25.4084 28.9951C25.4231 28.997 25.4372 29.002 25.4498 29.0097L25.5998 29.0947C25.7131 29.1647 25.8164 29.1514 25.9098 29.0547C33.4547 21.2597 47.0247 20.3547 54.1597 29.3547C54.6497 29.9714 54.6064 30.0114 54.0297 29.4747C45.4097 21.4647 30.8647 21.9197 24.6598 32.7947C24.5649 32.9628 24.5097 33.1503 24.4985 33.3427C24.4872 33.5351 24.5201 33.7273 24.5948 33.9047C26.2014 37.7014 26.1281 41.478 24.3748 45.2347C24.3737 45.2389 24.3707 45.2417 24.366 45.2427C24.3613 45.2437 24.355 45.243 24.3476 45.2405C24.3403 45.2381 24.3321 45.234 24.3238 45.2286C24.3154 45.2233 24.3072 45.2168 24.2998 45.2097C24.2798 45.193 24.2664 45.1697 24.2598 45.1397C24.2564 45.1197 24.2581 45.0964 24.2648 45.0697C26.1314 39.103 24.6998 34.2164 19.9698 30.4097C19.9592 30.4012 19.9511 30.3899 19.9465 30.3771C19.9418 30.3644 19.9407 30.3506 19.9432 30.3372C19.9458 30.3238 19.952 30.3114 19.961 30.3013C19.9701 30.2912 19.9818 30.2837 19.9948 30.2797C20.0414 30.2664 20.0881 30.2514 20.1348 30.2347C20.1514 30.228 20.1814 30.2414 20.2248 30.2747L22.5598 32.0697C22.596 32.0985 22.6402 32.1151 22.6862 32.1173C22.7323 32.1196 22.7781 32.1073 22.8174 32.0823C22.8566 32.0572 22.8875 32.0204 22.9058 31.9771C22.9241 31.9337 22.929 31.8857 22.9198 31.8397Z" fill="white"/>
<path d="M22.9048 65.1199C22.9265 65.103 22.942 65.0791 22.9488 65.0522C22.9556 65.0252 22.9532 64.9969 22.942 64.9721C22.9308 64.9473 22.9114 64.9276 22.8873 64.9162C22.8632 64.9049 22.8358 64.9026 22.8098 64.9099C14.4648 67.3149 7.90978 58.9449 13.9298 52.1699C14.0398 52.0466 14.0298 51.9332 13.8998 51.8299C8.00978 47.1599 8.33978 37.0549 14.1198 32.4799C14.7648 31.9649 15.7798 31.8549 16.4798 31.4799C16.6209 31.4007 16.7281 31.2725 16.7808 31.1195C16.8336 30.9665 16.8283 30.7994 16.766 30.6501C16.7036 30.5007 16.5886 30.3795 16.4427 30.3094C16.2969 30.2393 16.1303 30.2253 15.9748 30.2699L15.6398 30.3749C15.3931 30.4516 15.2964 30.3632 15.3498 30.1099L15.5448 29.1899C15.5848 29.0066 15.5214 28.8716 15.3548 28.7849L14.8648 28.5349C14.8264 28.5144 14.7947 28.4834 14.7733 28.4455C14.7518 28.4077 14.7415 28.3645 14.7436 28.3211C14.7457 28.2776 14.7601 28.2357 14.7851 28.2001C14.8101 28.1645 14.8446 28.1367 14.8848 28.1199L15.5798 27.8349C15.7398 27.7682 15.8098 27.6499 15.7898 27.4799L15.6798 26.4799C15.6364 26.1099 15.7664 26.0349 16.0698 26.2549C16.8264 26.8049 17.3781 26.7032 17.7248 25.9499C17.8248 25.7399 17.9531 25.7216 18.1098 25.8949C18.3465 26.1582 18.4381 26.4666 18.3848 26.8199C18.3548 27.0132 18.4381 27.1099 18.6348 27.1099H19.4098C19.4578 27.1093 19.5051 27.1218 19.5466 27.146C19.5881 27.1702 19.6222 27.2053 19.6453 27.2474C19.6684 27.2895 19.6796 27.3371 19.6778 27.3851C19.6759 27.4331 19.6611 27.4797 19.6348 27.5199L19.2448 28.1349C19.2107 28.1893 19.1985 28.2544 19.2106 28.3168C19.2227 28.3791 19.2582 28.4339 19.3098 28.4699L19.8998 28.8999C20.1864 29.1066 20.1581 29.2532 19.8148 29.3399L19.1248 29.5149C19.0474 29.5338 18.9797 29.5809 18.9345 29.6472C18.8893 29.7136 18.8699 29.7946 18.8798 29.8749L18.9848 30.7599C18.9906 30.8034 18.9841 30.8476 18.9661 30.8876C18.9481 30.9276 18.9193 30.9618 18.8829 30.9863C18.8464 31.0107 18.8039 31.0245 18.7601 31.026C18.7162 31.0275 18.6728 31.0168 18.6348 30.9949L17.9698 30.6099C17.8498 30.5432 17.7364 30.5532 17.6298 30.6399C17.4164 30.8099 17.3548 30.9732 17.4448 31.1299C17.5048 31.2366 17.5931 31.3016 17.7098 31.3249L18.5048 31.5049C18.5393 31.5136 18.5696 31.5343 18.5902 31.5632C18.6109 31.5922 18.6206 31.6276 18.6176 31.663C18.6146 31.6985 18.5991 31.7317 18.5738 31.7568C18.5486 31.7819 18.5153 31.7971 18.4798 31.7999C9.64478 32.3849 8.62479 46.8099 14.9498 51.1449C15.0898 51.2416 15.2415 51.2649 15.4048 51.2149C18.2581 50.3282 21.1098 50.3682 23.9598 51.3349C23.9783 51.3414 23.9937 51.3545 24.0032 51.3716C24.0126 51.3888 24.0155 51.4088 24.0112 51.428C24.0069 51.4471 23.9957 51.4639 23.9798 51.4753C23.9638 51.4868 23.9443 51.4919 23.9248 51.4899C22.1481 51.3499 20.3848 51.3116 18.6348 51.3749C12.4598 51.5999 10.7898 61.6599 17.1448 63.7949C19.6148 64.6249 22.1181 64.6132 24.6548 63.7599C24.9281 63.6699 24.9781 63.7399 24.8048 63.9699C21.8198 67.9499 16.5048 69.7399 11.7698 69.9849C11.5964 69.9949 11.4714 69.9232 11.3948 69.7699L10.4698 67.9949C10.3531 67.7715 10.4198 67.6815 10.6698 67.7249C15.1165 68.4882 19.1948 67.6199 22.9048 65.1199Z" fill="white"/>
<path d="M39.3748 55.3948C43.2998 53.6448 40.5948 49.4798 40.8798 46.6298C41.2148 43.2098 45.2298 41.9748 48.1448 41.3798C48.5181 41.3031 48.8298 41.0198 49.0798 40.5298C49.9848 38.7448 48.1898 36.0448 46.8448 34.9598C46.7314 34.8698 46.7014 34.7564 46.7548 34.6198C46.7748 34.5664 46.7931 34.5131 46.8098 34.4598C46.816 34.4388 46.8272 34.4197 46.8424 34.4041C46.8575 34.3884 46.8762 34.3768 46.8966 34.3703C46.9171 34.3639 46.9386 34.3627 46.9593 34.367C46.9799 34.3712 46.999 34.3808 47.0148 34.3948L52.1998 38.8248C52.2444 38.8625 52.2995 38.8855 52.3576 38.8909C52.4157 38.8962 52.4741 38.8836 52.5248 38.8547C52.5756 38.8258 52.6162 38.782 52.6412 38.7293C52.6662 38.6765 52.6745 38.6173 52.6648 38.5598C52.3381 36.6964 51.6748 34.9598 50.6748 33.3498C50.6465 33.3077 50.6352 33.2565 50.6432 33.2065C50.6512 33.1565 50.6779 33.1113 50.7179 33.0802C50.7579 33.0491 50.8082 33.0343 50.8587 33.0389C50.9091 33.0435 50.956 33.067 50.9898 33.1048C52.9998 35.1948 54.2948 37.5798 56.5348 39.4198C56.6681 39.5298 56.7431 39.6698 56.7598 39.8398C57.0831 42.8098 56.4914 45.5114 54.9848 47.9448C53.3848 50.5198 52.9948 52.5498 54.7148 55.1698C54.8081 55.3131 54.8164 55.4598 54.7398 55.6098C54.5198 56.0398 54.0864 56.1898 53.4398 56.0598C53.2464 56.0198 53.0931 55.9198 52.9798 55.7598C52.7498 55.4298 52.4498 55.3381 52.0798 55.4848C52.0084 55.5111 51.944 55.5538 51.892 55.6093C51.8399 55.6649 51.8015 55.7318 51.7798 55.8048C51.5698 56.4614 51.5748 57.1164 51.7948 57.7698C51.8614 57.9664 51.7898 58.0631 51.5798 58.0598L48.3748 58.0298C48.3346 58.0278 48.2948 58.0393 48.262 58.0626C48.2291 58.0859 48.205 58.1195 48.1934 58.1581C48.1819 58.1966 48.1837 58.238 48.1984 58.2755C48.2132 58.3129 48.24 58.3444 48.2748 58.3648L50.2248 59.6198C50.3001 59.6679 50.3609 59.7358 50.4004 59.8161C50.44 59.8963 50.4568 59.9858 50.4491 60.075C50.4413 60.1641 50.4093 60.2494 50.3566 60.3216C50.3038 60.3939 50.2323 60.4503 50.1498 60.4848L49.0648 60.9348C48.988 60.9669 48.9253 61.0253 48.8877 61.0995C48.8502 61.1737 48.8403 61.2589 48.8598 61.3398C49.6098 64.3248 46.4948 64.5398 44.5398 63.5648C41.5398 62.0648 39.2064 59.8514 37.5398 56.9248C37.4398 56.7481 37.3248 56.7381 37.1948 56.8948C37.0448 57.0714 37.0265 57.3114 37.1398 57.6148C37.7364 59.2048 38.5548 60.6781 39.5948 62.0348C39.6447 62.1002 39.6762 62.1779 39.6859 62.2597C39.6955 62.3415 39.6831 62.4244 39.6498 62.4998C37.9848 66.3398 34.7948 68.2148 34.8798 72.6648C34.8815 72.7267 34.9049 72.786 34.9459 72.8324C34.9869 72.8789 35.0428 72.9095 35.104 72.919C35.1652 72.9285 35.2278 72.9163 35.2809 72.8845C35.334 72.8526 35.3743 72.8032 35.3948 72.7448L35.7098 71.8298C35.7301 71.7706 35.7671 71.7185 35.8162 71.6798C35.8654 71.6411 35.9247 71.6175 35.987 71.6117C36.0493 71.6059 36.112 71.6182 36.1674 71.6471C36.2229 71.676 36.2689 71.7203 36.2998 71.7748C38.6631 75.9648 40.3881 80.4064 41.4748 85.0997C41.5148 85.2731 41.4448 85.3597 41.2648 85.3597H37.7248C37.5881 85.3597 37.4864 85.2997 37.4198 85.1797L36.8798 84.1847C36.7831 84.0081 36.6398 83.8831 36.4498 83.8097C35.5464 83.4597 34.9664 82.8231 34.7098 81.8997C34.6631 81.7331 34.6831 81.5747 34.7698 81.4248C36.4948 78.4648 31.3048 78.1397 33.7648 75.5597C33.8196 75.5016 33.8613 75.4323 33.8872 75.3564C33.9131 75.2805 33.9225 75.1998 33.9148 75.1198C33.7598 73.4898 32.1248 73.0648 32.1398 71.5498C32.1398 71.3864 32.1998 71.2481 32.3198 71.1348C34.5148 69.0548 31.5898 68.2148 31.8548 66.1048C31.8646 66.0237 31.8997 65.9483 31.9548 65.8898L32.9698 64.7798C33.0192 64.7257 33.0523 64.6583 33.0656 64.585C33.0788 64.5118 33.0716 64.4355 33.0448 64.3648L32.0348 61.7048C31.9956 61.6018 31.9932 61.4886 32.0279 61.3846C32.0625 61.2806 32.1321 61.1923 32.2248 61.1348C33.3648 60.4314 33.5448 59.5064 32.7648 58.3598C32.6511 58.1974 32.5916 58.0049 32.5948 57.8098C32.6098 55.9148 33.8548 54.9398 34.8948 53.6398C34.9643 53.5527 35.0152 53.4521 35.0441 53.3444C35.0731 53.2367 35.0796 53.124 35.0632 53.0134C35.0468 52.9028 35.0078 52.7966 34.9488 52.7014C34.8897 52.6062 34.8118 52.5239 34.7198 52.4598C33.6548 51.7248 32.4448 50.9998 31.6848 50.0748C26.6498 43.9448 35.5598 39.0348 36.4348 45.6698C36.8148 48.5448 37.9048 49.7348 39.3998 51.6848C40.4048 52.9948 40.4348 54.0948 39.2498 55.2048C39.2293 55.2232 39.2161 55.2483 39.2126 55.2756C39.209 55.3029 39.2154 55.3305 39.2305 55.3535C39.2457 55.3765 39.2685 55.3934 39.295 55.4009C39.3215 55.4085 39.3498 55.4063 39.3748 55.3948Z" fill="white"/>
<path d="M71.4799 44.9949L72.0599 44.2599C72.2632 43.9999 72.4449 44.0149 72.6049 44.3049C73.4999 45.9449 75.4349 45.5099 74.8999 43.7499C74.8165 43.4699 74.9149 43.3699 75.1949 43.4499L75.7949 43.6199C75.9882 43.6732 76.1049 43.7982 76.1449 43.9949C76.6899 46.6449 76.6649 48.7099 75.6149 51.3549C74.0682 55.2716 72.4816 59.1699 70.8549 63.0499C70.7916 63.1999 70.6815 63.2949 70.5249 63.3349C64.2949 64.9049 61.8199 62.1549 58.2649 57.9649C58.2354 57.9283 58.1939 57.9033 58.1478 57.8942C58.1017 57.8852 58.0539 57.8926 58.0127 57.9153C57.9716 57.938 57.9397 57.9744 57.9227 58.0182C57.9058 58.062 57.9048 58.1104 57.9199 58.1549C58.6199 60.3099 60.3599 62.4699 62.2349 63.7649C63.8049 64.8449 65.9949 64.8849 67.8699 64.8599C68.0147 64.8573 68.1566 64.8988 68.277 64.979C68.3974 65.0592 68.4905 65.1744 68.5442 65.3093C68.5978 65.4441 68.6094 65.5924 68.5773 65.7344C68.5453 65.8765 68.4713 66.0057 68.3649 66.1049C67.8049 66.6216 67.1416 67.0099 66.3749 67.2699C66.2099 67.3249 66.0687 67.4343 65.9749 67.5799L65.5649 68.2349C65.5425 68.2697 65.5127 68.2991 65.4775 68.3211C65.4424 68.343 65.4028 68.3568 65.3617 68.3616C65.3206 68.3664 65.2789 68.362 65.2397 68.3487C65.2005 68.3355 65.1647 68.3137 65.1349 68.2849L64.3749 67.5599C64.3124 67.5006 64.2372 67.4562 64.1549 67.4299C59.6599 66.0799 55.5099 64.5599 52.2999 60.9499C52.2616 60.9076 52.2338 60.857 52.2187 60.802C52.2035 60.7471 52.2015 60.6894 52.2127 60.6335C52.2238 60.5776 52.248 60.5251 52.2831 60.4802C52.3182 60.4353 52.3633 60.3992 52.4149 60.3749C53.4816 59.8582 53.7799 59.0116 53.3099 57.8349C53.2942 57.7951 53.2884 57.752 53.293 57.7095C53.2976 57.6671 53.3124 57.6264 53.3361 57.5913C53.3599 57.5562 53.3918 57.5277 53.4291 57.5082C53.4664 57.4888 53.5079 57.4791 53.5499 57.4799C54.5632 57.4966 55.3682 57.1082 55.9649 56.3149C56.0653 56.1787 56.1165 56.0147 56.1099 55.8499C56.0899 55.2832 56.0032 54.8832 55.8499 54.6499C54.2549 52.2699 54.6499 50.4399 56.2549 48.1449C57.7116 46.0649 58.4682 43.7099 58.5249 41.0799C58.5282 40.9132 58.6132 40.8199 58.7799 40.7999C60.2766 40.6199 61.3816 40.6532 62.0949 40.8999C63.5849 41.4099 67.0699 43.2049 68.1599 41.3399C68.2665 41.1566 68.2232 41.0216 68.0299 40.9349C65.0899 39.6416 62.0366 39.2832 58.8699 39.8599C58.6566 39.8999 58.5399 39.8116 58.5199 39.5949L58.3549 37.7649C58.3508 37.7222 58.3551 37.6791 58.3678 37.6381C58.3804 37.5971 58.401 37.559 58.4284 37.526C58.4558 37.4929 58.4895 37.4657 58.5276 37.4458C58.5656 37.4259 58.6071 37.4137 58.6499 37.4099C60.5649 37.2199 78.7499 35.4349 77.3099 39.3549C77.2565 39.4982 77.1532 39.5599 76.9999 39.5399C74.6032 39.2232 72.7615 40.0349 71.4749 41.9749C71.4318 42.0376 71.4119 42.1129 71.4185 42.1883C71.4251 42.2637 71.4578 42.3345 71.5111 42.389C71.5644 42.4435 71.6351 42.4783 71.7114 42.4876C71.7876 42.4968 71.8648 42.48 71.9299 42.4399C73.3865 41.5299 74.9799 41.0432 76.7099 40.9799C76.7512 40.9786 76.7923 40.9865 76.8301 41.003C76.868 41.0195 76.9018 41.0441 76.9291 41.0752C76.9563 41.1062 76.9763 41.1429 76.9877 41.1827C76.9991 41.2224 77.0015 41.2641 76.9949 41.3049L76.8249 42.3799C76.7882 42.6166 76.6549 42.6982 76.4249 42.6249C74.0982 41.8916 72.2949 42.5732 71.0149 44.6699C70.9801 44.7316 70.9696 44.804 70.9853 44.8731C71.001 44.9421 71.0419 45.0028 71.0999 45.0434C71.158 45.0839 71.229 45.1014 71.2993 45.0925C71.3695 45.0835 71.4339 45.0487 71.4799 44.9949Z" fill="white"/>
<path d="M61.5498 43.4898L60.0498 44.1648C59.7365 44.3048 59.7182 44.4764 59.9948 44.6798L60.3548 44.9448C60.8648 45.3181 60.8165 45.4131 60.2098 45.2298C59.6765 45.0698 59.2915 44.8264 59.0548 44.4998C58.8082 44.1598 58.8632 43.8814 59.2198 43.6648C61.7698 42.1198 64.4898 41.8898 66.3398 44.7198C66.3679 44.7669 66.3782 44.8225 66.3689 44.8766C66.3596 44.9307 66.3313 44.9796 66.289 45.0146C66.2468 45.0497 66.1934 45.0684 66.1385 45.0675C66.0837 45.0666 66.0309 45.0461 65.9898 45.0098L64.8398 43.9098C64.8103 43.8809 64.7737 43.8603 64.7336 43.8501C64.6935 43.8399 64.6514 43.8403 64.6111 43.8514C64.5709 43.8624 64.534 43.8838 64.504 43.9132C64.474 43.9427 64.4519 43.9794 64.4398 44.0198L64.1448 45.0448C64.0848 45.2514 63.9482 45.3531 63.7348 45.3498L62.4298 45.3148C62.1632 45.3081 62.0148 45.1731 61.9848 44.9098L61.8448 43.6598C61.8215 43.4698 61.7232 43.4131 61.5498 43.4898Z" fill="#8E744B"/>
<path d="M50.6596 44.1247C49.6046 43.7047 48.5297 44.1097 47.4797 44.3747C47.4705 44.3784 47.4606 44.3801 47.4508 44.3799C47.4409 44.3798 47.4312 44.3776 47.4221 44.3737C47.413 44.3697 47.4049 44.3641 47.398 44.3569C47.3912 44.3498 47.3858 44.3414 47.3822 44.3322C47.3785 44.3231 47.3768 44.3132 47.377 44.3034C47.3771 44.2935 47.3793 44.2837 47.3832 44.2747C47.3872 44.2656 47.3929 44.2575 47.4 44.2506C47.4071 44.2437 47.4155 44.2384 47.4246 44.2347C50.4496 42.6047 51.8747 43.7347 54.5797 45.0097C54.6398 45.0367 54.6897 45.0825 54.7216 45.1402C54.7536 45.1979 54.766 45.2644 54.757 45.3297C54.748 45.3951 54.718 45.4557 54.6716 45.5026C54.6252 45.5495 54.5649 45.5801 54.4997 45.5897C52.9647 45.8497 51.9996 44.6597 50.6596 44.1247Z" fill="#8E744B"/>
<path d="M69.0348 52.7348C69.1768 52.7251 69.3152 52.685 69.4403 52.617C69.5654 52.5491 69.6744 52.4549 69.7598 52.341C69.8453 52.2271 69.9051 52.0961 69.9353 51.957C69.9655 51.8178 69.9653 51.6738 69.9348 51.5348C69.4698 49.4148 68.3898 45.3548 70.0748 43.6448C70.2281 43.4881 70.2831 43.5181 70.2398 43.7348C69.7465 46.0514 69.8765 48.5081 70.6298 51.1048C71.6248 54.5048 67.9198 53.7448 65.9098 53.2898C65.8655 53.2809 65.8252 53.2583 65.7944 53.2252C65.7637 53.1921 65.7442 53.1501 65.7387 53.1053C65.7331 53.0605 65.7419 53.015 65.7636 52.9755C65.7854 52.9359 65.819 52.9041 65.8598 52.8848L66.9248 52.3748C67.1081 52.2881 67.2865 52.2964 67.4598 52.3998C67.9198 52.6631 68.4448 52.7748 69.0348 52.7348Z" fill="#8E744B"/>
<path d="M34.9599 48.6148C34.4749 47.3198 34.8749 46.2248 34.5899 44.9898C34.5579 44.8451 34.4741 44.7184 34.3549 44.6348C33.8216 44.2514 33.2465 44.1614 32.6299 44.3648C32.5808 44.3853 32.5256 44.3855 32.4764 44.3654C32.4271 44.3452 32.3879 44.3063 32.3674 44.2573C32.3468 44.2082 32.3466 44.153 32.3668 44.1037C32.3869 44.0545 32.4258 44.0153 32.4749 43.9948C34.2749 43.0198 35.6349 44.2348 35.3699 46.1048C35.2799 46.7498 35.2549 48.1098 35.0949 48.6097C35.0516 48.7431 35.0065 48.7448 34.9599 48.6148Z" fill="#8E744B"/>
<path d="M51.1548 51.2348C51.1607 51.2607 51.1562 51.2878 51.1421 51.3103C51.1281 51.3329 51.1056 51.3488 51.0798 51.3548C51.0539 51.3608 51.0267 51.3562 51.0042 51.3422C50.9817 51.3281 50.9657 51.3057 50.9598 51.2798C50.3664 49.9465 49.5164 48.7998 48.4098 47.8398C48.3635 47.7992 48.3311 47.7448 48.3173 47.6845C48.3035 47.6243 48.3089 47.5614 48.3329 47.505C48.3569 47.4486 48.3982 47.4017 48.4507 47.3711C48.5032 47.3405 48.5642 47.3278 48.6248 47.3348C50.0048 47.4815 51.3464 47.3298 52.6498 46.8798C52.6875 46.8686 52.7279 46.8704 52.7645 46.885C52.801 46.8996 52.8316 46.9261 52.8513 46.9602C52.8709 46.9943 52.8785 47.034 52.8728 47.073C52.8671 47.1119 52.8484 47.1478 52.8198 47.1748C52.3531 47.5848 52.2831 48.0315 52.6098 48.5148C52.7364 48.7048 52.6981 48.8498 52.4948 48.9498C51.5614 49.4198 51.1148 50.1815 51.1548 51.2348Z" fill="#8E744B"/>
<path d="M50.4148 48.7646C50.3748 48.8346 50.3181 48.8646 50.2448 48.8546C50.2143 48.8509 50.1862 48.8362 50.1659 48.8131C50.1456 48.7901 50.1345 48.7603 50.1348 48.7296V48.4946C50.1347 48.4396 50.1536 48.3862 50.1881 48.3435C50.2227 48.3007 50.271 48.2711 50.3248 48.2596C50.6148 48.1996 50.7231 48.3196 50.6498 48.6196C50.6264 48.7063 50.5481 48.7546 50.4148 48.7646Z" fill="white"/>
<path d="M35.2649 51.7598C35.6791 51.7598 36.0149 51.424 36.0149 51.0098C36.0149 50.5956 35.6791 50.2598 35.2649 50.2598C34.8507 50.2598 34.5149 50.5956 34.5149 51.0098C34.5149 51.424 34.8507 51.7598 35.2649 51.7598Z" fill="#8E744B"/>
<path d="M65.2696 53.2342C65.3829 53.2509 65.4196 53.3426 65.3796 53.5093C65.3672 53.5563 65.3428 53.5994 65.309 53.6344C65.2751 53.6695 65.2329 53.6952 65.1863 53.7093C65.1396 53.7233 65.0902 53.7252 65.0426 53.7146C64.9951 53.7041 64.951 53.6816 64.9146 53.6492L64.4046 53.1893C64.2513 53.0526 64.2113 52.8876 64.2846 52.6942C64.4679 52.2142 64.7763 51.8459 65.2096 51.5892C65.2461 51.5653 65.2899 51.5564 65.3323 51.5644C65.3746 51.5723 65.4123 51.5965 65.4377 51.6321C65.4631 51.6676 65.4743 51.7119 65.4691 51.7559C65.4639 51.7999 65.4426 51.8404 65.4096 51.8692C65.0063 52.2192 64.9129 52.6392 65.1296 53.1292C65.142 53.1568 65.1613 53.1809 65.1857 53.1992C65.2102 53.2176 65.239 53.2296 65.2696 53.2342Z" fill="#8E744B"/>
<path d="M70.1397 57.2647C69.5964 57.198 69.0914 57.2113 68.6247 57.3047C68.4547 57.338 68.2864 57.333 68.1197 57.2897C66.5747 56.8597 64.2647 57.6747 62.9397 56.4447C62.823 56.338 62.843 56.2897 62.9997 56.2997C65.8097 56.4697 68.3347 55.8547 71.6797 56.5897C71.8497 56.6263 71.8913 56.7213 71.8047 56.8747L70.5897 58.9747C70.5631 59.0213 70.5257 59.061 70.4805 59.0905C70.4353 59.1201 70.3837 59.1386 70.3297 59.1446C68.6147 59.3246 65.5497 59.6897 64.3197 58.1897C64.2857 58.1555 64.266 58.1097 64.2645 58.0616C64.263 58.0135 64.2799 57.9666 64.3116 57.9304C64.3434 57.8942 64.3877 57.8714 64.4356 57.8667C64.4835 57.8619 64.5314 57.8755 64.5697 57.9046C65.523 58.5013 66.538 58.643 67.6147 58.3297C67.7513 58.2897 67.8897 58.2747 68.0297 58.2847L69.7547 58.4347C69.9174 58.4507 70.0938 58.4045 70.245 58.3061C70.3962 58.2078 70.5098 58.0654 70.5609 57.9102C70.6119 57.7551 70.5963 57.5999 70.5173 57.4788C70.4383 57.3578 70.3025 57.2807 70.1397 57.2647Z" fill="#8E744B"/>
<path d="M31.5699 60.3748L31.2049 61.0598C31.1826 61.1024 31.1501 61.1389 31.1104 61.1661C31.0706 61.1933 31.0248 61.2103 30.977 61.2157C30.9292 61.2211 30.8807 61.2148 30.8359 61.1972C30.7911 61.1796 30.7513 61.1513 30.7199 61.1148L29.2749 59.4298C29.2242 59.3691 29.196 59.293 29.1951 59.2145C29.1942 59.136 29.2206 59.0601 29.2699 58.9998L31.0799 56.7698C31.1189 56.723 31.1715 56.6891 31.2304 56.6729C31.2893 56.6566 31.3516 56.6588 31.4087 56.6791C31.4657 56.6994 31.5148 56.7369 31.5491 56.7862C31.5833 56.8356 31.6011 56.8945 31.5999 56.9548C31.5899 57.8414 31.8433 58.6464 32.3599 59.3698C32.3835 59.4031 32.4001 59.4407 32.4088 59.4806C32.4176 59.5204 32.4182 59.5616 32.4108 59.6017C32.4033 59.6418 32.3879 59.6799 32.3654 59.714C32.343 59.748 32.3139 59.7772 32.2799 59.7998L31.8099 60.1148C31.7066 60.1814 31.6266 60.2681 31.5699 60.3748Z" fill="white"/>
<path d="M27.9848 60.3448C28.0057 60.3049 28.0352 60.2702 28.0713 60.2432C28.1074 60.2163 28.149 60.1978 28.1932 60.1892C28.2374 60.1805 28.2829 60.1819 28.3265 60.1933C28.3701 60.2047 28.4105 60.2257 28.4448 60.2548L29.1698 60.8648C29.3098 60.9848 29.3248 61.1198 29.2148 61.2698C28.1798 62.6348 26.6798 64.7348 28.8848 65.6398C28.9199 65.6536 28.9515 65.675 28.9773 65.7026C29.0032 65.7301 29.0228 65.7631 29.0347 65.7992C29.0466 65.8354 29.0505 65.8738 29.0462 65.9119C29.0419 65.95 29.0295 65.9868 29.0098 66.0198C28.1598 67.4248 26.0248 70.3198 28.6648 71.3598C28.7511 71.3943 28.829 71.4467 28.8934 71.5136C28.9578 71.5805 29.0073 71.6604 29.0385 71.7478C29.0697 71.8353 29.0819 71.9284 29.0744 72.021C29.0669 72.1136 29.0398 72.2035 28.9948 72.2848C28.4248 73.3081 28.1265 74.4215 28.0998 75.6248C28.0934 75.9224 28.1964 76.2119 28.3892 76.4379C28.582 76.6639 28.851 76.8105 29.1448 76.8498C29.4815 76.8931 29.7582 77.0298 29.9748 77.2598C30.0982 77.3865 30.1332 77.5348 30.0798 77.7048C29.5848 79.2748 28.5148 82.0598 31.1098 82.4998C31.2913 82.5306 31.4532 82.6316 31.5601 82.7806C31.6669 82.9296 31.71 83.1146 31.6798 83.2948L31.2448 85.8598C31.2321 85.9414 31.1937 86.0168 31.1353 86.0752C31.0769 86.1336 31.0014 86.172 30.9198 86.1848C30.6198 86.2281 30.4232 86.0331 30.3298 85.5998C29.3065 80.8698 27.7332 76.5498 25.6098 72.6398C24.3848 70.3798 23.9698 68.5648 25.1298 66.1048C26.0232 64.2181 26.9748 62.2981 27.9848 60.3448Z" fill="white"/>
<path d="M28.5698 64.0146C29.0448 63.3196 29.5648 61.6596 30.6998 61.8196C30.7722 61.8303 30.841 61.8587 30.9002 61.9022C30.9595 61.9458 31.0074 62.0033 31.0398 62.0696L32.0148 64.0696C32.1248 64.2996 32.0614 64.4596 31.8248 64.5496L31.4398 64.6996C31.3812 64.7219 31.33 64.7604 31.292 64.8108C31.254 64.8612 31.2307 64.9214 31.2248 64.9846C31.1648 65.518 30.8931 65.8413 30.4098 65.9546C30.3515 65.9686 30.2909 65.9694 30.2323 65.9571C30.1736 65.9448 30.1182 65.9197 30.0701 65.8835C30.022 65.8472 29.9822 65.8008 29.9536 65.7475C29.9251 65.6941 29.9084 65.6351 29.9048 65.5746C29.8581 64.8613 29.4848 64.488 28.7848 64.4546C28.7349 64.452 28.6866 64.4361 28.6449 64.4086C28.6032 64.381 28.5697 64.3428 28.5477 64.2979C28.5258 64.253 28.5163 64.2031 28.5201 64.1533C28.524 64.1035 28.5411 64.0556 28.5698 64.0146Z" fill="white"/>
<path d="M56.7798 67.3096L50.8898 63.5046C50.6598 63.3546 50.6231 63.1663 50.7798 62.9396L51.2098 62.3246C51.2365 62.2857 51.2712 62.2529 51.3117 62.2285C51.3521 62.2041 51.3975 62.1885 51.4447 62.1828C51.4919 62.1772 51.5399 62.1815 51.5856 62.1956C51.6313 62.2097 51.6736 62.2332 51.7098 62.2646C54.6398 64.8696 57.7998 66.5546 61.5948 67.5296C62.7314 67.8229 63.6864 68.4079 64.4598 69.2846C64.5086 69.341 64.5375 69.4118 64.5421 69.4862C64.5467 69.5606 64.5268 69.6345 64.4853 69.6964C64.4438 69.7583 64.3831 69.8049 64.3125 69.829C64.242 69.8531 64.1655 69.8533 64.0948 69.8296C62.5398 69.2896 60.0598 68.0496 58.4198 68.3646C57.5548 68.5296 56.6648 68.9546 55.8348 68.8046C54.3981 68.5446 53.5265 67.7413 53.2198 66.3946C53.2078 66.3211 53.2226 66.2457 53.2616 66.1822C53.3007 66.1188 53.3612 66.0715 53.4323 66.049C53.5033 66.0266 53.58 66.0304 53.6484 66.0599C53.7168 66.0894 53.7723 66.1425 53.8048 66.2096C54.3281 67.4896 55.2848 68.0179 56.6748 67.7946C56.7281 67.7868 56.7779 67.7628 56.8173 67.726C56.8567 67.6892 56.8839 67.6412 56.8953 67.5885C56.9067 67.5358 56.9018 67.4808 56.8811 67.431C56.8605 67.3811 56.8251 67.3388 56.7798 67.3096Z" fill="white"/>
<path d="M52.6149 74.6046C50.6749 72.1646 46.5149 70.6196 43.7549 69.1196C43.2449 68.8429 43.2599 68.6012 43.7999 68.3946L48.1299 66.7346C48.2067 66.704 48.2922 66.7029 48.3704 66.7315C48.4487 66.76 48.5142 66.8162 48.5549 66.8896C50.4449 70.3346 53.1799 71.8345 56.6149 73.5595C60.1749 75.3495 53.7449 80.4195 59.0899 81.5896C59.1285 81.598 59.1646 81.6152 59.1955 81.64C59.2264 81.6648 59.2512 81.6965 59.2681 81.7326C59.2849 81.7688 59.2934 81.8084 59.2928 81.8486C59.2923 81.8888 59.2827 81.9285 59.2649 81.9645C58.3099 83.8095 56.2149 86.4845 59.0999 87.9495C59.1515 87.9754 59.1969 88.0122 59.2331 88.0573C59.2693 88.1025 59.2953 88.155 59.3095 88.2113C59.3237 88.2677 59.3258 88.3266 59.3155 88.384C59.3052 88.4415 59.2828 88.4962 59.2499 88.5445L57.7449 90.7545C57.6115 90.9512 57.5432 90.9295 57.5399 90.6895C57.5349 86.8095 57.2649 82.4295 55.0499 78.8595C52.3799 74.5596 47.0749 73.5795 43.0449 71.5846C39.8349 69.9996 38.6249 66.1096 41.1499 63.2896C41.2735 63.1493 41.4479 63.0638 41.6351 63.0517C41.8223 63.0395 42.0073 63.1016 42.1499 63.2246C43.5799 64.4596 46.8549 66.1846 48.6649 64.6046C49.0799 64.2396 49.2499 63.6196 49.5899 63.1096C49.7832 62.8162 49.8632 62.8446 49.8299 63.1946C49.3749 67.8246 44.7949 66.1696 42.3449 64.6296C42.0582 64.4496 41.8115 64.4929 41.6049 64.7596C39.4449 67.5146 41.8399 70.1896 44.7049 71.2446C47.3782 72.2312 49.9782 73.3962 52.5049 74.7395C52.7615 74.8762 52.7982 74.8312 52.6149 74.6046Z" fill="white"/>
<path d="M60.7796 71.3946C60.203 70.1479 59.193 69.6946 57.7496 70.0346C57.6685 70.0556 57.5824 70.0463 57.5076 70.0085C57.4328 69.9707 57.3743 69.9069 57.3431 69.8292C57.3118 69.7514 57.31 69.6649 57.3379 69.5858C57.3658 69.5068 57.4215 69.4406 57.4946 69.3996C60.7196 67.4896 61.8346 71.9946 64.6196 72.8396C64.6835 72.8612 64.7377 72.9048 64.7725 72.9626C64.8073 73.0204 64.8205 73.0886 64.8097 73.1552C64.7989 73.2218 64.7648 73.2824 64.7136 73.3263C64.6623 73.3701 64.5971 73.3943 64.5296 73.3946C59.9396 73.2846 51.9496 70.9446 49.7396 66.3296C49.7247 66.294 49.7216 66.2546 49.7308 66.2171C49.7399 66.1796 49.7609 66.1461 49.7906 66.1214C49.8203 66.0968 49.8571 66.0823 49.8957 66.0802C49.9342 66.078 49.9724 66.0884 50.0046 66.1096L50.9546 66.7896C51.0137 66.8331 51.0843 66.858 51.1575 66.8613C51.2308 66.8646 51.3033 66.846 51.366 66.808C51.4287 66.77 51.4787 66.7142 51.5096 66.6477C51.5405 66.5812 51.5509 66.507 51.5396 66.4346C51.4296 65.7313 51.0246 65.2646 50.3246 65.0346C50.2405 65.0107 50.1684 64.9562 50.1224 64.8818C50.0765 64.8074 50.06 64.7186 50.0763 64.6326C50.0926 64.5467 50.1405 64.4701 50.2105 64.4177C50.2805 64.3653 50.3676 64.341 50.4546 64.3496C51.2246 64.3946 51.7846 64.8846 52.0646 65.6496C53.4796 69.5196 56.8596 70.6996 60.5496 71.6646C60.8163 71.7346 60.893 71.6446 60.7796 71.3946Z" fill="white"/>
<path d="M70.6198 67.0797C70.6242 67.0872 70.6271 67.0955 70.6282 67.1042C70.6293 67.1128 70.6287 67.1216 70.6264 67.13C70.6241 67.1384 70.6201 67.1462 70.6146 67.1531C70.6092 67.1599 70.6025 67.1655 70.5948 67.1697L70.2198 67.3897C69.2226 67.9701 68.2427 68.4871 67.4948 68.8273C66.7469 69.1675 66.292 69.3032 66.2298 69.2047L66.1598 69.0797C66.1059 68.9765 66.4485 68.6483 67.1128 68.1667C67.7771 67.6851 68.709 67.0894 69.7048 66.5097L70.0798 66.2897C70.0873 66.2853 70.0957 66.2824 70.1043 66.2813C70.1129 66.2802 70.1217 66.2808 70.1301 66.2831C70.1385 66.2855 70.1464 66.2895 70.1532 66.2949C70.16 66.3003 70.1657 66.307 70.1698 66.3147L70.6198 67.0797Z" fill="white"/>
<path d="M29.3449 70.1748L28.8099 70.2448C28.7003 70.2604 28.5885 70.2454 28.4869 70.2015C28.3853 70.1576 28.2978 70.0864 28.2341 69.9958C28.1705 69.9052 28.1331 69.7988 28.1262 69.6883C28.1193 69.5778 28.143 69.4676 28.1949 69.3698L29.3399 67.1948C29.4134 67.0559 29.5227 66.9392 29.6563 66.8565C29.7899 66.7739 29.943 66.7284 30.0997 66.7248C30.2563 66.7213 30.4108 66.7597 30.5472 66.8362C30.6835 66.9127 30.7967 67.0244 30.8749 67.1598L32.1849 69.4148C32.2385 69.5058 32.2583 69.6128 32.241 69.717C32.2236 69.8212 32.1701 69.916 32.0899 69.9848C31.9632 70.0948 31.8016 70.1381 31.6049 70.1148C31.4316 70.0948 31.3199 70.1681 31.2699 70.3348C31.2332 70.4648 31.2416 70.6231 31.2949 70.8097C31.3493 70.9877 31.3374 71.1794 31.2614 71.3492C31.1854 71.5191 31.0504 71.6557 30.8815 71.7338C30.7126 71.8118 30.5211 71.8261 30.3425 71.7739C30.1638 71.7216 30.0102 71.6065 29.9099 71.4497C29.7099 71.1364 29.6165 70.7964 29.6299 70.4298C29.6365 70.2331 29.5416 70.1481 29.3449 70.1748Z" fill="white"/>
<path d="M86.7347 72.9746C86.7257 73.0004 86.7117 73.0241 86.6935 73.0444C86.6753 73.0647 86.6531 73.0812 86.6285 73.0928C86.6038 73.1045 86.577 73.1111 86.5498 73.1122C86.5225 73.1134 86.4953 73.1091 86.4697 73.0996L86.3897 73.0696C82.7123 71.7674 79.2007 70.4702 76.6197 69.4607C74.0388 68.4512 72.5975 67.811 72.6097 67.6796C72.6298 67.6191 73.0106 67.6871 73.7305 67.8795C74.4503 68.0719 75.4951 68.3851 76.805 68.8012C78.1149 69.2172 79.6643 69.728 81.3646 70.3042C83.065 70.8805 84.883 71.511 86.7147 72.1596L86.7947 72.1846C86.8205 72.1936 86.8442 72.2076 86.8645 72.2258C86.8848 72.244 86.9013 72.2662 86.9129 72.2908C86.9245 72.3155 86.9311 72.3423 86.9323 72.3695C86.9335 72.3968 86.9292 72.424 86.9197 72.4496L86.7347 72.9746Z" fill="white"/>
<path d="M68.7746 69.4747C69.0346 68.9347 69.4096 68.5997 69.8996 68.4697C69.9472 68.4557 69.9977 68.4572 70.0441 68.4742C70.0905 68.4911 70.1304 68.5226 70.158 68.5641C70.1857 68.6056 70.1998 68.655 70.1983 68.7054C70.1968 68.7558 70.1797 68.8045 70.1496 68.8447L69.1146 70.1797C69.0776 70.2283 69.0543 70.2861 69.0474 70.3469C69.0404 70.4077 69.05 70.4692 69.075 70.525C69.1001 70.5808 69.1398 70.6288 69.1899 70.664C69.24 70.6991 69.2986 70.7201 69.3596 70.7247L69.7296 70.7547C69.7849 70.7596 69.8374 70.782 69.8794 70.8185C69.9214 70.855 69.9507 70.9037 69.963 70.9574C69.9753 71.0112 69.97 71.0671 69.9478 71.117C69.9256 71.1669 69.8877 71.2082 69.8396 71.2347L66.4146 73.2147C66.3598 73.2483 66.2952 73.2623 66.2313 73.2546C66.1675 73.2468 66.1081 73.2177 66.0629 73.1719C66.0177 73.1261 65.9893 73.0664 65.9824 73.0024C65.9754 72.9385 65.9903 72.8741 66.0246 72.8197L66.1646 72.5847C66.228 72.478 66.3113 72.388 66.4146 72.3147C67.4313 71.5947 68.218 70.648 68.7746 69.4747Z" fill="white"/>
<path d="M71.5947 70.7596C71.7347 70.1696 71.7297 69.8196 71.7647 69.2446C71.778 69.038 71.883 68.968 72.0797 69.0346C76.5263 70.558 80.848 72.3763 85.0447 74.4896C85.1005 74.5186 85.1495 74.559 85.1885 74.6082C85.2275 74.6574 85.2555 74.7143 85.2707 74.7749C85.2859 74.8355 85.2878 74.8986 85.2764 74.9598C85.265 75.021 85.2406 75.0789 85.2047 75.1296C82.2147 79.3463 78.5397 82.888 74.1797 85.7546C74.0263 85.8546 73.9313 85.8996 73.8947 85.8896C73.7829 85.8571 73.6827 85.7931 73.6061 85.7055C73.5294 85.6178 73.4795 85.51 73.4621 85.3949C73.4448 85.2797 73.4607 85.162 73.5082 85.0556C73.5556 84.9493 73.6324 84.8587 73.7297 84.7946C76.5147 82.9396 74.0547 80.8196 72.9697 78.9096C72.9309 78.8383 72.9213 78.7549 72.9428 78.6773C72.9643 78.5997 73.0152 78.5341 73.0847 78.4946C77.1747 76.0796 70.9647 73.5096 71.5947 70.7596Z" fill="white"/>
<path d="M23.0749 81.9797C24.5249 82.6564 25.4065 83.7714 25.7199 85.3247C25.7316 85.3809 25.7261 85.4394 25.7041 85.4924C25.6821 85.5454 25.6446 85.5905 25.5965 85.6219C25.5484 85.6532 25.492 85.6693 25.4346 85.668C25.3772 85.6668 25.3215 85.6482 25.2749 85.6147C20.2015 82.0447 16.0382 77.6214 12.7849 72.3447C12.761 72.3049 12.7477 72.2597 12.746 72.2133C12.7444 72.1669 12.7545 72.1208 12.7755 72.0793C12.7964 72.0379 12.8275 72.0025 12.8659 71.9763C12.9043 71.9501 12.9486 71.9341 12.9949 71.9297C15.6915 71.6931 18.1865 70.8764 20.4799 69.4797C20.6365 69.3831 20.7182 69.4264 20.7249 69.6097C20.7715 70.8597 21.1632 71.9864 21.8999 72.9897C22.0032 73.1297 22.0699 73.2864 22.0999 73.4597C22.2732 74.5097 21.9365 75.3347 21.0899 75.9347C21.0601 75.9557 21.0354 75.983 21.0173 76.0145C20.9993 76.046 20.9884 76.081 20.9855 76.1169C20.9827 76.1529 20.9878 76.1888 21.0007 76.2222C21.0136 76.2555 21.0338 76.2854 21.0599 76.3097C22.2799 77.4597 24.0799 78.1097 23.8849 80.1247C23.875 80.2196 23.8404 80.3094 23.7849 80.3847L22.9549 81.5197C22.928 81.556 22.9097 81.5978 22.9011 81.6421C22.8926 81.6865 22.8942 81.7324 22.9056 81.7763C22.9171 81.8203 22.9382 81.8614 22.9675 81.8966C22.9968 81.9317 23.0334 81.9601 23.0749 81.9797Z" fill="white"/>
<path d="M67.0837 70.8245C67.5323 70.3867 67.7913 69.9245 67.6621 69.7921C67.5328 69.6596 67.0644 69.9072 66.6158 70.345C66.1672 70.7828 65.9082 71.245 66.0374 71.3775C66.1667 71.5099 66.6351 71.2623 67.0837 70.8245Z" fill="white"/>
<path d="M63.3904 71.2893C64.052 71.7206 64.6641 71.954 64.7576 71.8106C64.8511 71.6671 64.3905 71.2012 63.7289 70.7699C63.0673 70.3386 62.4552 70.1053 62.3617 70.2487C62.2682 70.3921 62.7288 70.858 63.3904 71.2893Z" fill="white"/>
<path d="M50.1748 84.3696C50.6681 87.4229 51.7481 90.2496 53.4148 92.8496C53.4383 92.8849 53.4517 92.926 53.4538 92.9684C53.4558 93.0108 53.4463 93.0529 53.4263 93.0903C53.4063 93.1278 53.3766 93.1591 53.3402 93.1809C53.3038 93.2028 53.2622 93.2145 53.2198 93.2146L47.8848 93.2996C47.6115 93.3029 47.4881 93.1679 47.5148 92.8946C47.6715 91.3379 47.0965 90.1329 45.7898 89.2796C45.6322 89.1762 45.5213 89.0152 45.4811 88.831C45.4409 88.6468 45.4746 88.4542 45.5748 88.2946C47.2798 85.5846 44.3548 84.5596 42.6348 83.4496C42.5831 83.4157 42.5414 83.3684 42.5142 83.3129C42.4871 83.2573 42.4754 83.1956 42.4806 83.1344C42.4857 83.0731 42.5074 83.0147 42.5434 82.9654C42.5794 82.9161 42.6283 82.8778 42.6848 82.8546C43.9298 82.3296 44.3998 80.7896 43.5048 79.6646C42.9098 78.9196 41.7648 78.5046 41.1198 77.5196C41.0786 77.4548 41.0639 77.3767 41.0788 77.302C41.0938 77.2273 41.1372 77.1618 41.1998 77.1196C44.5398 74.8896 39.3198 73.0296 39.2998 70.4496C39.2998 70.2263 39.3815 70.1913 39.5448 70.3446C40.1648 70.9246 40.7048 71.5046 41.4498 71.8996C47.3798 75.0296 54.1698 76.8346 55.2298 84.3846C55.6131 87.1113 55.9798 89.8463 56.3298 92.5896C56.3389 92.6566 56.3264 92.7246 56.2941 92.7838C56.2617 92.843 56.2112 92.8904 56.1496 92.9192C56.0881 92.9481 56.0187 92.9568 55.9514 92.9443C55.8841 92.9318 55.8223 92.8987 55.7748 92.8496C53.4181 90.3629 51.6431 87.5113 50.4498 84.2946C50.4351 84.2642 50.4101 84.2398 50.3793 84.2258C50.3485 84.2119 50.3138 84.2091 50.2812 84.218C50.2486 84.2269 50.22 84.2469 50.2006 84.2746C50.1812 84.3023 50.1721 84.3359 50.1748 84.3696Z" fill="white"/>
<path d="M30.1449 75.7896L29.4499 75.9746C29.3962 75.9893 29.3399 75.9913 29.2854 75.9806C29.2308 75.9698 29.1795 75.9466 29.1354 75.9127C29.0913 75.8788 29.0557 75.8351 29.0313 75.7851C29.0069 75.7352 28.9945 75.6802 28.9949 75.6246C28.9982 74.5546 29.2866 73.5796 29.8599 72.6996C29.9391 72.5787 30.0461 72.4785 30.1719 72.4075C30.2977 72.3364 30.4388 72.2965 30.5832 72.2912C30.7276 72.2858 30.8712 72.315 31.002 72.3765C31.1328 72.438 31.2469 72.5299 31.3349 72.6446L32.8649 74.6296C32.8939 74.6688 32.9139 74.7141 32.9234 74.762C32.9328 74.8099 32.9315 74.8593 32.9196 74.9067C32.9076 74.954 32.8853 74.9981 32.8542 75.0358C32.8231 75.0735 32.7841 75.1038 32.7399 75.1246L32.3899 75.2846C32.1999 75.3713 32.1266 75.5163 32.1699 75.7196C32.3266 76.5129 31.9532 76.9196 31.0499 76.9396C30.8565 76.9429 30.7299 76.8529 30.6699 76.6696L30.4299 75.9446C30.3832 75.8046 30.2882 75.7529 30.1449 75.7896Z" fill="white"/>
<path d="M67.0398 76.9846C66.6548 74.7146 68.3798 73.8596 70.0498 72.9046C70.1998 72.8179 70.2948 72.8579 70.3348 73.0246C71.4315 77.5746 72.0965 82.1879 72.3298 86.8646C72.3326 86.9441 72.313 87.0229 72.2732 87.0918C72.2334 87.1608 72.1751 87.2172 72.1048 87.2546L68.5398 89.1196C68.3131 89.2396 68.1965 89.1712 68.1898 88.9146C68.0831 84.8979 67.6998 80.9212 67.0398 76.9846Z" fill="white"/>
<path d="M64.0398 75.0798C66.5848 76.7498 66.8648 86.7748 66.7998 89.6298C66.7964 89.8364 66.6965 89.9748 66.4998 90.0448L62.3098 91.5498C61.9831 91.6664 61.8298 91.5514 61.8498 91.2048C62.1431 85.4714 61.4448 79.8648 59.7548 74.3848C59.7181 74.2648 59.7631 74.2014 59.8898 74.1948C61.5931 74.0848 62.9764 74.3798 64.0398 75.0798Z" fill="white"/>
<path d="M31.6447 81.0646C31.5114 81.1213 31.4297 81.2313 31.3997 81.3946C31.3822 81.5049 31.3255 81.5961 31.2399 81.6519C31.1543 81.7077 31.0452 81.7245 30.9322 81.6992C30.8192 81.674 30.7096 81.6083 30.623 81.5141C30.5365 81.4198 30.4786 81.303 30.4597 81.1846C30.2664 80.1113 30.4447 79.1213 30.9947 78.2146C31.0674 78.0951 31.1666 77.9938 31.2846 77.9186C31.4026 77.8433 31.5363 77.7962 31.6754 77.7807C31.8145 77.7653 31.9552 77.7819 32.0869 77.8294C32.2185 77.8769 32.3375 77.9539 32.4347 78.0546L34.2197 79.9046C34.2548 79.9409 34.2808 79.9851 34.2956 80.0334C34.3103 80.0817 34.3135 80.1328 34.3047 80.1826C34.2959 80.2323 34.2755 80.2793 34.2451 80.3196C34.2146 80.3599 34.1751 80.3925 34.1297 80.4146L33.6297 80.6546C33.523 80.7079 33.4764 80.7946 33.4897 80.9146L33.5447 81.4146C33.5575 81.5318 33.5452 81.6503 33.5086 81.7624C33.472 81.8744 33.412 81.9774 33.3325 82.0644C33.2531 82.1514 33.156 82.2205 33.0477 82.2671C32.9395 82.3137 32.8226 82.3367 32.7047 82.3346C32.0514 82.3179 31.7797 81.9596 31.8897 81.2596C31.8947 81.2282 31.8912 81.196 31.8796 81.1663C31.8681 81.1367 31.8489 81.1106 31.824 81.0908C31.7991 81.0709 31.7694 81.0581 31.7379 81.0535C31.7064 81.0489 31.6742 81.0527 31.6447 81.0646Z" fill="white"/>
<path d="M33.7299 86.5746C33.6532 86.618 33.6016 86.703 33.5749 86.8296C33.5408 86.9988 33.4448 87.1412 33.3062 87.2284C33.1676 87.3157 32.9965 87.3413 32.8272 87.3003C32.6579 87.2592 32.5028 87.1544 32.393 87.0069C32.2832 86.8594 32.2267 86.68 32.2349 86.5046C32.2899 85.1996 31.9699 83.0497 33.7949 82.8997C33.9649 82.8863 34.0982 82.9513 34.1949 83.0947C34.6949 83.828 35.3416 84.388 36.1349 84.7747C36.2123 84.8117 36.2779 84.8697 36.3241 84.942C36.3703 85.0144 36.3953 85.0982 36.3964 85.184C36.3974 85.2699 36.3744 85.3543 36.33 85.4277C36.2855 85.5012 36.2214 85.5607 36.1449 85.5996L35.6349 85.8596C35.5978 85.8783 35.5664 85.9063 35.5436 85.941C35.5209 85.9757 35.5076 86.0159 35.5051 86.0577C35.5026 86.0994 35.5109 86.1414 35.5293 86.1794C35.5476 86.2174 35.5754 86.2502 35.6099 86.2746C35.8699 86.458 35.9616 86.7313 35.8849 87.0946C35.8588 87.2144 35.8078 87.3273 35.7353 87.426C35.6628 87.5247 35.5705 87.6069 35.4642 87.6674C35.358 87.7278 35.2404 87.765 35.119 87.7766C34.9976 87.7882 34.8752 87.7739 34.7599 87.7346C34.2932 87.578 34.0449 87.243 34.0149 86.7297C34.0016 86.5263 33.9066 86.4746 33.7299 86.5746Z" fill="white"/>
<path d="M36.9598 87.0748C36.9922 86.9846 37.0504 86.906 37.1269 86.8491C37.2035 86.7921 37.2949 86.7593 37.3898 86.7548L41.4848 86.5798C41.7614 86.5665 41.9214 86.6965 41.9648 86.9698L42.8848 92.3798C42.9248 92.6231 42.8231 92.7231 42.5798 92.6798C38.5698 91.9931 34.7331 90.7615 31.0698 88.9848C30.8898 88.8981 30.7964 88.7531 30.7898 88.5498L30.7598 87.5798C30.7578 87.5312 30.7681 87.4829 30.7896 87.4393C30.8112 87.3958 30.8434 87.3583 30.8832 87.3304C30.923 87.3026 30.9692 87.2851 31.0176 87.2798C31.0659 87.2744 31.1148 87.2813 31.1598 87.2998C32.8548 88.0048 35.9598 89.9548 36.9598 87.0748Z" fill="white"/>
</svg>
