<svg width="100" height="100" viewBox="0 0 100 100" fill="none" xmlns="http://www.w3.org/2000/svg">
<rect width="100" height="100" fill="#595C62"/>
<path d="M15.8155 58V40.8203H21.0069L24.1241 52.5391L27.2061 40.8203H32.4092V58H29.1866V44.4766L25.7764 58H22.4366L19.0381 44.4766V58H15.8155ZM35.3356 52.4102L38.7106 52.082C38.9137 53.2148 39.3239 54.0469 39.9411 54.5781C40.5661 55.1094 41.4059 55.375 42.4606 55.375C43.5778 55.375 44.4177 55.1406 44.9802 54.6719C45.5505 54.1953 45.8356 53.6406 45.8356 53.0078C45.8356 52.6016 45.7145 52.2578 45.4723 51.9766C45.238 51.6875 44.8239 51.4375 44.2302 51.2266C43.8239 51.0859 42.8981 50.8359 41.4528 50.4766C39.5934 50.0156 38.2887 49.4492 37.5387 48.7773C36.4841 47.832 35.9567 46.6797 35.9567 45.3203C35.9567 44.4453 36.2028 43.6289 36.695 42.8711C37.195 42.1055 37.9098 41.5234 38.8395 41.125C39.777 40.7266 40.9059 40.5273 42.2262 40.5273C44.3825 40.5273 46.0036 41 47.0895 41.9453C48.1833 42.8906 48.7575 44.1523 48.8122 45.7305L45.3434 45.8828C45.195 45 44.8747 44.3672 44.3825 43.9844C43.8981 43.5938 43.1677 43.3984 42.1911 43.3984C41.1833 43.3984 40.3942 43.6055 39.8239 44.0195C39.4567 44.2852 39.2731 44.6406 39.2731 45.0859C39.2731 45.4922 39.445 45.8398 39.7887 46.1289C40.2262 46.4961 41.2887 46.8789 42.9762 47.2773C44.6637 47.6758 45.9098 48.0898 46.7145 48.5195C47.527 48.9414 48.1598 49.5234 48.613 50.2656C49.0739 51 49.3044 51.9102 49.3044 52.9961C49.3044 53.9805 49.0309 54.9023 48.4841 55.7617C47.9372 56.6211 47.1637 57.2617 46.1637 57.6836C45.1637 58.0977 43.9177 58.3047 42.4255 58.3047C40.2536 58.3047 38.5856 57.8047 37.4216 56.8047C36.2575 55.7969 35.5622 54.332 35.3356 52.4102ZM52.5941 58V40.8203H59.8948C61.7308 40.8203 63.0628 40.9766 63.8909 41.2891C64.7269 41.5938 65.3948 42.1406 65.8948 42.9297C66.3948 43.7188 66.6448 44.6211 66.6448 45.6367C66.6448 46.9258 66.2659 47.9922 65.5081 48.8359C64.7503 49.6719 63.6175 50.1992 62.1097 50.418C62.8597 50.8555 63.4769 51.3359 63.9613 51.8594C64.4534 52.3828 65.1136 53.3125 65.9417 54.6484L68.0394 58H63.8909L61.3831 54.2617C60.4925 52.9258 59.8831 52.0859 59.555 51.7422C59.2269 51.3906 58.8792 51.1523 58.512 51.0273C58.1448 50.8945 57.5628 50.8281 56.7659 50.8281H56.0628V58H52.5941ZM56.0628 48.0859H58.6292C60.2933 48.0859 61.3323 48.0156 61.7464 47.875C62.1605 47.7344 62.4847 47.4922 62.7191 47.1484C62.9534 46.8047 63.0706 46.375 63.0706 45.8594C63.0706 45.2812 62.9144 44.8164 62.6019 44.4648C62.2972 44.1055 61.8636 43.8789 61.3011 43.7852C61.0198 43.7461 60.1761 43.7266 58.7698 43.7266H56.0628V48.0859ZM85.7783 58H82.0048L80.5048 54.0977H73.6377L72.2197 58H68.54L75.2314 40.8203H78.8994L85.7783 58ZM79.3916 51.2031L77.0244 44.8281L74.7041 51.2031H79.3916Z" fill="#F8F8F8"/>
</svg>
