<svg width="100" height="100" viewBox="0 0 100 100" fill="none" xmlns="http://www.w3.org/2000/svg">
<rect width="100" height="100" fill="white"/>
<path d="M53.9743 24H58.8128C58.8118 28.7724 58.8119 33.545 58.8133 38.3177C58.8133 38.5359 58.4935 38.9902 58.3794 39.1928C52.0896 50.3485 45.8018 61.4984 39.516 72.6427C39.5023 72.6671 39.4953 72.6654 39.495 72.6377L39.3679 59.2387C39.3677 59.2359 39.3666 59.2333 39.3649 59.2312C39.3631 59.2291 39.3607 59.2276 39.358 59.2269C39.3554 59.2262 39.3526 59.2264 39.35 59.2275C39.3475 59.2285 39.3453 59.2303 39.3439 59.2327L29.9071 76.0722C29.9024 76.0805 29.8955 76.0874 29.8872 76.0923C29.8788 76.0971 29.8693 76.0997 29.8596 76.0997H11.0271C11.0001 76.0997 10.9933 76.088 11.0066 76.0647L40.4792 24.053C40.4885 24.0367 40.5027 24.0285 40.5217 24.0285L53.9743 24Z" fill="#EC1B24"/>
<path d="M68.8211 24H77.829L77.8375 24.012C77.8439 24.021 77.8444 24.0302 77.8391 24.0395L48.359 76.0947C48.3523 76.1064 48.3423 76.1122 48.329 76.1122H39.3366C39.3339 76.1122 39.3313 76.1115 39.329 76.1102C39.3268 76.1089 39.3249 76.107 39.3235 76.1047C39.3222 76.1024 39.3215 76.0998 39.3215 76.0972C39.3215 76.0946 39.3222 76.092 39.3235 76.0897L68.8211 24Z" fill="#17479D"/>
<path d="M79.4005 24H88.4114C88.4347 24.017 88.4364 24.0367 88.4164 24.059C88.3991 24.0791 88.3882 24.0927 88.3839 24.1001C78.6132 41.3527 68.8436 58.6062 59.0749 75.8605C59.0309 75.9386 58.985 76.0155 58.9373 76.0912C58.9334 76.0976 58.9278 76.1029 58.9212 76.1066C58.9147 76.1103 58.9073 76.1122 58.8998 76.1122H49.9304C49.9031 76.1122 49.8961 76.1004 49.9094 76.0767L79.4005 24Z" fill="#17479D"/>
<path d="M88.4194 26.8483C88.4209 26.8454 88.4233 26.8431 88.4262 26.8418C88.4291 26.8405 88.4324 26.8402 88.4355 26.841C88.4387 26.8419 88.4414 26.8437 88.4433 26.8463C88.4452 26.8489 88.4461 26.8521 88.446 26.8553C88.446 32.1498 88.446 37.4482 88.446 42.7507C88.446 42.8552 88.2843 43.1029 88.2333 43.1925C82.6763 52.9491 77.1199 62.7062 71.5639 72.4639C71.5312 72.5216 71.4962 72.5773 71.4588 72.631C71.4576 72.6325 71.456 72.6337 71.4541 72.6343C71.4523 72.6348 71.4502 72.6348 71.4484 72.6342C71.4465 72.6336 71.4449 72.6325 71.4437 72.6309C71.4425 72.6293 71.4419 72.6274 71.4418 72.6255C71.4492 71.5827 71.4505 70.5632 71.4458 69.5668C71.4265 65.3191 71.418 61.0714 71.4203 56.8237C71.4203 56.8175 71.422 56.8113 71.4253 56.8057L88.4194 26.8483Z" fill="#17479D"/>
<path d="M88.4958 55.7007V61.7145L80.2584 76.1148C80.2454 76.1375 80.2257 76.149 80.1994 76.1493L71.233 76.1864C71.2299 76.1863 71.2269 76.1854 71.2242 76.1839C71.2216 76.1823 71.2194 76.1801 71.2178 76.1775C71.2162 76.1748 71.2154 76.1718 71.2153 76.1687C71.2153 76.1656 71.216 76.1626 71.2175 76.1598L88.4238 45.7792C88.4258 45.7754 88.4289 45.7725 88.4328 45.7708C88.4366 45.7692 88.441 45.7688 88.4451 45.7699C88.4492 45.771 88.4529 45.7734 88.4555 45.7768C88.4582 45.7802 88.4597 45.7844 88.4598 45.7887L88.4958 55.7007Z" fill="#17479D"/>
<path d="M82.0414 76.0762L88.4254 64.7291C88.4275 64.7254 88.4307 64.7226 88.4346 64.7209C88.4385 64.7193 88.4428 64.719 88.4468 64.7201C88.4509 64.7212 88.4545 64.7236 88.457 64.7269C88.4596 64.7303 88.461 64.7344 88.461 64.7386L88.475 76.0962C88.475 76.1012 88.473 76.1061 88.4694 76.1096C88.4658 76.1132 88.461 76.1152 88.4559 76.1152L82.0579 76.1047C82.0545 76.1047 82.0512 76.1038 82.0484 76.1022C82.0455 76.1005 82.0431 76.0981 82.0414 76.0952C82.0397 76.0923 82.0388 76.089 82.0388 76.0857C82.0388 76.0823 82.0397 76.0791 82.0414 76.0762Z" fill="#17479D"/>
</svg>
