<svg width="100" height="100" viewBox="0 0 100 100" fill="none" xmlns="http://www.w3.org/2000/svg">
<rect width="100" height="100" fill="white"/>
<path d="M41.4033 68.3346C42.5873 66.0077 43.85 63.7236 45.1912 61.4823C45.211 61.4491 45.2211 61.4111 45.2203 61.3727C45.2194 61.3343 45.2077 61.2971 45.1864 61.2654C37.1612 49.3511 25.5111 39.6243 13.0459 32.5266C13.0319 32.5184 13.0203 32.5065 13.0122 32.4924C13.0042 32.4782 13 32.4622 13 32.4459V23.0673C12.9999 23.0559 13.0027 23.0446 13.0081 23.0346C13.0136 23.0246 13.0216 23.0161 13.0313 23.0101C13.041 23.004 13.0521 23.0006 13.0636 23.0001C13.075 22.9996 13.0864 23.002 13.0966 23.0072C22.5823 27.626 31.133 33.5603 38.7488 40.8099C42.9292 44.7876 46.8279 49.2165 49.9557 54.0776C49.9705 54.1008 49.9858 54.1008 50.0016 54.0776C52.5215 50.361 55.2483 46.9725 58.1819 43.9123C66.5058 35.2307 76.0807 28.265 86.9066 23.0151C86.9689 22.9856 87 23.0051 87 23.0737V32.4412C87 32.4865 86.9799 32.5208 86.9398 32.544C74.4873 39.6116 62.8815 49.3352 54.8231 61.2543C54.8003 61.2885 54.7876 61.3284 54.7865 61.3695C54.7854 61.4107 54.7958 61.4514 54.8167 61.487C56.158 63.7263 57.4206 66.0093 58.6046 68.3361C58.6225 68.3699 58.641 68.3704 58.66 68.3377C65.4047 56.8428 75.5003 47.1936 86.9604 40.316C86.9643 40.3134 86.9687 40.312 86.9734 40.3119C86.978 40.3118 86.9826 40.3131 86.9866 40.3155C86.9907 40.318 86.9941 40.3215 86.9965 40.3258C86.9988 40.33 87 40.3349 87 40.3397V50.2137C87 50.2697 86.9768 50.3135 86.9304 50.3451C76.9075 57.1895 68.4343 66.6488 63.081 77.5738C63.0588 77.6171 63.0235 77.6387 62.9749 77.6387H53.8401C53.7863 77.6387 53.7514 77.6129 53.7356 77.5612C52.8619 74.7014 51.6325 72.0047 50.0475 69.4711C50.0179 69.4236 49.9879 69.4236 49.9573 69.4711C48.3775 72.0068 47.1482 74.703 46.2691 77.5596C46.2523 77.6124 46.2164 77.6387 46.1615 77.6387H37.0599C37.0291 77.6388 36.9989 77.6301 36.9726 77.6136C36.9463 77.597 36.925 77.5734 36.9111 77.5453C31.5372 66.5791 23.0957 57.2117 13.0633 50.334C13.0211 50.3045 13 50.2639 13 50.2122V40.4046C13 40.3329 13.0311 40.3155 13.0934 40.3524C24.4633 47.1683 34.6539 56.8144 41.3226 68.3361C41.3511 68.3857 41.378 68.3852 41.4033 68.3346Z" fill="#EE2E24"/>
<path d="M13.0681 58.9658C19.4218 63.7841 25.4716 70.247 28.9033 77.5172C28.9094 77.5302 28.9122 77.5446 28.9112 77.559C28.9103 77.5734 28.9058 77.5873 28.8981 77.5995C28.8903 77.6117 28.8796 77.6217 28.867 77.6286C28.8543 77.6355 28.8401 77.6391 28.8257 77.6391H13.0791C13.0582 77.6391 13.038 77.6307 13.0232 77.6159C13.0083 77.601 13 77.5809 13 77.5599V59.0007C12.9999 58.9927 13.0021 58.9849 13.0062 58.9781C13.0103 58.9713 13.0162 58.9658 13.0233 58.9622C13.0303 58.9586 13.0383 58.957 13.0462 58.9577C13.0541 58.9583 13.0617 58.9611 13.0681 58.9658Z" fill="#EE2E24"/>
<path d="M71.9152 75.8534C75.5479 69.3699 80.8442 63.6256 86.8925 58.991C86.9642 58.9361 87.0001 58.954 87.0001 59.0448V77.5597C87.0001 77.5807 86.9918 77.6009 86.9769 77.6157C86.9621 77.6306 86.9419 77.6389 86.9209 77.6389H71.1696C71.1042 77.6389 71.0842 77.6088 71.1095 77.5487C71.3965 76.8649 71.6651 76.2998 71.9152 75.8534Z" fill="#EE2E24"/>
</svg>
