<svg width="100" height="100" viewBox="0 0 100 100" fill="none" xmlns="http://www.w3.org/2000/svg">
<rect width="100" height="100" fill="#E8321E"/>
<path d="M87.6958 25.8269L74.2975 34.498C74.2461 34.5319 74.1867 34.5512 74.1252 34.554C74.0638 34.5569 74.0024 34.5431 73.9473 34.5142C73.8923 34.4852 73.8454 34.4421 73.8114 34.3891C73.7774 34.3361 73.7576 34.2752 73.7538 34.2123C73.6064 30.9503 72.7586 27.8848 71.2105 25.016C71.057 24.7334 71.1399 24.5829 71.4593 24.5644C75.735 24.3249 83.5953 23.4495 87.5208 24.6197C87.6435 24.6566 87.7532 24.7277 87.8368 24.8247C87.9205 24.9217 87.9748 25.0407 87.9931 25.1675C88.0115 25.2943 87.9933 25.4237 87.9407 25.5405C87.888 25.6574 87.803 25.7567 87.6958 25.8269Z" fill="white"/>
<path fill-rule="evenodd" clip-rule="evenodd" d="M27.8639 41.5198C27.956 42.1096 27.7103 42.4659 27.1267 42.5888C24.2578 43.2092 21.392 44.2659 18.5293 45.7587C16.373 46.8829 17.0457 49.7579 19.4139 50.2923C29.8171 52.6475 29.785 56.8563 29.7254 64.6661C29.7174 65.7179 29.7089 66.835 29.7253 68.0216C29.7323 68.4933 29.7415 68.9502 29.7505 69.3932C29.86 74.801 29.9276 78.1434 25.3114 81.1159C25.1321 81.2317 24.9927 81.3999 24.9122 81.5975C24.8316 81.7952 24.8138 82.0128 24.861 82.221C24.9083 82.4292 25.0184 82.6178 25.1764 82.7613C25.3344 82.9048 25.5327 82.9963 25.7445 83.0233C33.9457 84.0554 39.0015 80.8087 40.912 73.2833C41.4096 71.3298 42.4694 70.1503 44.0912 69.2656C45.1261 68.708 46.1994 68.1488 47.2868 67.5824C51.6793 65.2943 56.2999 62.8873 59.5352 59.9771C73.3758 47.5463 70.8878 24.0854 51.2142 18.8698C46.4143 17.594 41.0693 18.0323 35.5784 18.4826C34.5652 18.5657 33.5471 18.6492 32.5266 18.7224C27.2557 19.1094 21.2016 18.8729 14.3642 18.0129C13.9464 17.9576 13.8881 18.0804 14.1891 18.3815C19.59 23.824 26.4288 23.884 33.2508 23.9438C41.5135 24.0163 49.7514 24.0885 55.3793 33.7241C55.5759 34.062 55.4868 34.2862 55.1121 34.3968L36.9958 39.8243C36.883 39.8569 36.7625 39.8476 36.6572 39.7984C36.5519 39.7491 36.469 39.6633 36.4244 39.5571L35.3463 37.0691C35.2296 36.7926 35.0238 36.6206 34.7289 36.5531C30.7942 35.5671 27.1359 36.9677 27.8639 41.5198ZM56.1535 36.0555C49.9611 38.6172 41.1886 43.9157 40.8292 51.4903C40.6142 56.0731 40.5159 60.6775 40.5344 65.3033C40.5335 65.34 40.543 65.3762 40.562 65.4077C40.5809 65.4392 40.6084 65.4647 40.6413 65.4811C40.6741 65.4975 40.711 65.5043 40.7475 65.5005C40.7841 65.4968 40.8188 65.4827 40.8477 65.4599C43.778 63.2115 46.7882 61.0246 49.8782 58.899C56.6142 54.2732 58.6691 44.2843 56.9828 36.4978C56.9635 36.4096 56.9253 36.3266 56.871 36.2547C56.8167 36.1827 56.7476 36.1236 56.6685 36.0814C56.5894 36.0392 56.5023 36.0151 56.4133 36.0106C56.3243 36.0061 56.2356 36.0214 56.1535 36.0555Z" fill="white"/>
</svg>
