<svg width="100" height="100" viewBox="0 0 100 100" fill="none" xmlns="http://www.w3.org/2000/svg">
<rect width="100" height="100" fill="#00938F"/>
<path d="M18.8813 46.9664C18.871 46.8642 18.8524 46.8628 18.8255 46.9621C17.9702 50.1249 17.0918 53.2813 16.1902 56.4313C16.1865 56.4438 16.1782 56.4501 16.1654 56.4501H12.4941C12.4827 56.4501 12.4717 56.4464 12.4626 56.4395C12.4536 56.4327 12.447 56.423 12.444 56.4121C11.9449 54.663 11.4408 52.9152 10.9318 51.1687C10.5221 49.7638 10.0097 48.3764 9.69239 46.9471C9.6912 46.9411 9.6878 46.9357 9.68286 46.932C9.67792 46.9283 9.67179 46.9266 9.66566 46.9272C9.65952 46.9278 9.65383 46.9306 9.64967 46.9352C9.64552 46.9397 9.6432 46.9457 9.64317 46.9518C9.60989 48.0342 9.55223 49.1207 9.55083 50.2031C9.54895 52.2721 9.51661 54.3477 9.58692 56.4154C9.58711 56.4199 9.58639 56.4243 9.5848 56.4285C9.58321 56.4327 9.58079 56.4366 9.57768 56.4398C9.57457 56.4431 9.57084 56.4456 9.56671 56.4474C9.56258 56.4492 9.55813 56.4501 9.55364 56.4501H6.01786C6.00536 56.4501 5.99942 56.4437 6.00004 56.4308C6.05114 55.6349 6.1177 54.8371 6.14301 54.0444C6.20458 52.131 6.26661 50.2177 6.32911 48.3046C6.38629 46.5562 6.3802 44.797 6.39754 43.0298C6.39767 43.0223 6.40073 43.0152 6.40608 43.0099C6.41143 43.0046 6.41864 43.0017 6.42614 43.0017L11.9958 43.0012C12.0067 43.0012 12.0172 43.005 12.0256 43.012C12.034 43.0189 12.0397 43.0285 12.0418 43.0392C12.2011 43.8562 12.4154 44.6203 12.69 45.4392C13.4152 47.601 13.8788 49.2688 14.3738 51.2179C14.3857 51.2648 14.3979 51.3082 14.4104 51.3482C14.4117 51.3527 14.4146 51.3565 14.4184 51.3592C14.4222 51.3619 14.4268 51.3632 14.4315 51.363C14.4361 51.3628 14.4406 51.3611 14.4442 51.358C14.4477 51.355 14.4502 51.3509 14.4511 51.3463C14.7618 49.9323 15.1315 48.5324 15.5602 47.1468C15.9807 45.7884 16.4565 44.4351 16.7447 43.0434C16.7471 43.0316 16.7535 43.021 16.7628 43.0134C16.7721 43.0058 16.7838 43.0017 16.7958 43.0017L22.4466 43.0022C22.4556 43.0022 22.4642 43.0057 22.4706 43.012C22.477 43.0183 22.4807 43.0269 22.4808 43.0359C22.4852 45.6453 22.5358 48.2571 22.6327 50.8715C22.6993 52.6663 22.7616 54.456 22.8825 56.2485C22.8858 56.2912 22.9079 56.3657 22.8961 56.4285C22.8933 56.4429 22.8847 56.4501 22.8704 56.4501L19.1527 56.4496C19.1349 56.4496 19.126 56.4405 19.126 56.4224C19.1291 53.8312 19.0847 51.2365 18.9929 48.6384C18.9719 48.0534 18.9347 47.496 18.8813 46.9664Z" fill="white"/>
<path d="M52.0436 56.4538L48.2191 56.4557C48.191 56.4557 48.1772 56.4416 48.1779 56.4135C48.1976 55.514 48.2332 54.6041 48.2304 53.7013C48.2238 51.5276 48.2136 49.3538 48.1999 47.1801C48.191 45.8034 48.1385 44.4239 48.1043 43.042C48.1036 43.0145 48.1171 43.0007 48.1446 43.0007L51.9419 43.0012C51.9719 43.0012 51.9868 43.0162 51.9865 43.0462C51.9833 43.9674 51.9674 44.8765 51.9386 45.7734C51.9221 46.2824 51.9294 47.4348 51.9607 49.2304C51.9879 50.8063 51.9574 52.3827 52.0015 53.9586C52.0246 54.7824 52.0463 55.6061 52.0666 56.4299C52.0672 56.4458 52.0596 56.4538 52.0436 56.4538Z" fill="white"/>
<path d="M39.0216 49.2389L37.5024 49.2403C37.4902 49.2403 37.4841 49.2342 37.4841 49.222L37.449 46.5989C37.4484 46.5545 37.4702 46.5323 37.5146 46.5323H39.0934C39.1096 46.5323 39.1179 46.5244 39.1182 46.5084L39.1534 44.5983C39.1538 44.5828 39.1594 44.568 39.1693 44.5562C39.1792 44.5445 39.1928 44.5365 39.2077 44.5336C40.4068 44.3027 41.6001 44.046 42.7876 43.7635C42.8101 43.7581 42.8215 43.767 42.8218 43.7902L42.8827 46.4372C42.8843 46.5022 42.9174 46.5347 42.9821 46.5347L45.1604 46.537C45.1785 46.537 45.1877 46.5461 45.1881 46.5642L45.2593 49.208C45.2594 49.2119 45.2586 49.2159 45.2572 49.2196C45.2557 49.2233 45.2536 49.2266 45.2508 49.2295C45.2481 49.2323 45.2448 49.2346 45.2412 49.2361C45.2376 49.2376 45.2337 49.2384 45.2298 49.2384L42.9952 49.2459C42.964 49.2459 42.9484 49.2615 42.9484 49.2928C42.9456 50.3715 42.9613 51.4279 42.9957 52.462C43.0121 52.9622 43.1466 53.4867 43.607 53.7023C44.1127 53.9395 44.9804 53.7576 45.5162 53.5734C45.5195 53.5723 45.523 53.572 45.5265 53.5726C45.5299 53.5732 45.5332 53.5747 45.5359 53.5769C45.5386 53.5791 45.5407 53.5819 45.542 53.5852C45.5433 53.5884 45.5438 53.592 45.5434 53.5954L45.1899 56.3521C45.1891 56.3587 45.1863 56.3647 45.1819 56.3696C45.1776 56.3745 45.1719 56.3778 45.1656 56.3793C43.7832 56.7075 42.3816 56.8415 41.0068 56.5621C39.692 56.295 39.0109 55.2126 39.0216 53.9123C39.0341 52.3629 39.0426 50.8136 39.047 49.2642C39.047 49.2473 39.0385 49.2389 39.0216 49.2389Z" fill="white"/>
<path d="M61.1309 51.9877C60.3518 52.3421 59.5296 52.5301 58.8743 52.7781C58.6076 52.8788 58.279 53.1156 58.1562 53.3706C57.9893 53.7156 58.1304 54.1674 58.4435 54.3774C58.962 54.7252 59.7907 54.556 60.3443 54.391C60.369 54.3838 60.3776 54.3926 60.3701 54.4173C60.1588 55.122 59.9785 55.8346 59.8291 56.5552C59.8275 56.5629 59.8235 56.57 59.8177 56.5753C59.8119 56.5807 59.8046 56.5841 59.7968 56.5852C58.0052 56.8501 55.616 56.9124 54.5838 55.0309C54.3848 54.668 54.2595 54.2932 54.2079 53.9063C54.0541 52.7598 54.8112 51.6582 55.7848 51.1304C56.0779 50.9717 56.4293 50.8295 56.839 50.7038C57.6462 50.4567 58.4648 50.2546 59.2948 50.0978C59.6185 50.0365 59.9738 49.9421 60.3607 49.8146C60.8013 49.6698 61.0798 49.2517 60.8773 48.8078C60.4516 47.8731 57.964 48.4407 57.1985 48.6535C56.5545 48.8326 55.956 49.0254 55.4032 49.232C55.3866 49.2382 55.3796 49.2326 55.3821 49.2151C55.4934 48.4142 55.5759 47.6103 55.6296 46.8034C55.6305 46.7891 55.6361 46.7755 55.6455 46.7646C55.6549 46.7538 55.6676 46.7463 55.6816 46.7434C57.6659 46.3126 64.0334 45.1023 64.9207 48.1257C65.1223 48.8143 65.0604 49.599 65.0618 50.3181C65.0621 50.5324 65.0582 50.8448 65.0501 51.2551C65.0159 52.9759 65.0609 54.6929 65.1087 56.4202C65.1087 56.4241 65.108 56.428 65.1066 56.4317C65.1052 56.4353 65.103 56.4386 65.1003 56.4414C65.0976 56.4442 65.0944 56.4464 65.0908 56.4479C65.0873 56.4494 65.0835 56.4502 65.0796 56.4502L61.1445 56.4498C61.1351 56.4498 61.1306 56.4451 61.1309 56.4357C61.1756 54.9585 61.1841 53.4813 61.1566 52.0042C61.1563 51.9854 61.1477 51.9799 61.1309 51.9877Z" fill="white"/>
<path d="M71.4741 47.707C71.4756 47.7094 71.4775 47.7113 71.4799 47.7128C71.4823 47.7142 71.4849 47.715 71.4877 47.7152C71.4904 47.7154 71.4932 47.7149 71.4957 47.7138C71.4982 47.7127 71.5005 47.711 71.5022 47.7089C72.095 46.9661 72.8464 46.4949 73.7564 46.2952C75.8091 45.8452 78.8724 46.2056 79.2291 48.8409C79.2647 49.102 79.2882 49.3481 79.2886 49.6233C79.2943 51.892 79.3022 54.1636 79.3824 56.4309C79.383 56.4443 79.3766 56.4511 79.3632 56.4511L75.3216 56.4478C75.3063 56.4478 75.2988 56.4401 75.2991 56.4248C75.3404 54.522 75.3386 52.8222 75.2939 51.3253C75.2868 51.0859 75.2425 50.8048 75.1613 50.482C74.8557 49.2722 73.4602 48.9652 72.5143 49.6795C71.6635 50.3217 71.5664 51.5555 71.5313 52.5234C71.4844 53.8158 71.5191 55.0997 71.5453 56.3948C71.546 56.4317 71.5279 56.4501 71.491 56.4501L67.4161 56.4496C67.4002 56.4496 67.3927 56.4417 67.3936 56.4257C67.5924 53.257 67.5919 50.0189 67.4527 46.8956C67.4427 46.6722 67.4383 46.5083 67.4396 46.4039C67.4399 46.387 67.4485 46.3788 67.4654 46.3791C68.8004 46.3927 70.1288 46.417 71.4643 46.3833C71.4786 46.383 71.4857 46.39 71.4854 46.4044L71.4605 47.6813C71.4605 47.6831 71.461 47.6849 71.4619 47.6864L71.4741 47.707Z" fill="white"/>
<path fill-rule="evenodd" clip-rule="evenodd" d="M30.1023 53.7151C29.3209 53.2656 29.1273 52.689 29.0884 51.827C29.0883 51.823 29.089 51.819 29.0904 51.8152C29.0919 51.8115 29.094 51.8081 29.0968 51.8052C29.0996 51.8023 29.103 51.8 29.1067 51.7984C29.1104 51.7969 29.1144 51.7961 29.1184 51.7961L36.3925 51.7872C36.41 51.7872 36.4195 51.7784 36.4211 51.7609C36.5181 50.7948 36.49 49.9351 36.1482 49.03C35.3031 46.7884 32.9884 46.1547 30.8429 46.1411C28.9651 46.1298 27.0217 46.5494 25.9079 48.1956C24.7445 49.9154 24.6859 52.2798 25.6318 54.092C26.4362 55.6337 28.022 56.4109 29.7071 56.6003C31.5953 56.8124 33.4704 56.7257 35.3326 56.3401C35.3436 56.3379 35.3496 56.3314 35.3509 56.3204L35.6861 53.5145C35.6873 53.5054 35.6834 53.5021 35.6743 53.5046C35.6258 53.5178 35.5766 53.5312 35.5269 53.5448C33.8923 53.9905 31.6467 54.6026 30.1023 53.7151ZM29.0976 50.3045C29.0997 50.3054 29.102 50.3059 29.1043 50.3059H32.5074C32.5271 50.3059 32.5374 50.2962 32.5384 50.2768C32.6045 48.9976 31.7256 48.1956 30.4478 48.4703C30.0328 48.5596 29.7042 48.777 29.462 49.1223C29.2046 49.4893 29.1423 49.8517 29.0879 50.2871C29.0876 50.2895 29.0879 50.2919 29.0886 50.2942C29.0893 50.2965 29.0904 50.2986 29.092 50.3003C29.0935 50.3021 29.0954 50.3035 29.0976 50.3045Z" fill="white"/>
<path fill-rule="evenodd" clip-rule="evenodd" d="M89.4715 55.2288C89.474 55.2322 89.4754 55.2362 89.4755 55.2404L89.5027 56.4179C89.5028 56.4223 89.5037 56.4267 89.5054 56.4308C89.5072 56.4349 89.5097 56.4385 89.5129 56.4416C89.5161 56.4447 89.5198 56.4472 89.524 56.4488C89.5281 56.4504 89.5325 56.4512 89.5369 56.4512L93.2147 56.4498C93.2159 56.4498 93.2171 56.4496 93.2183 56.4493C93.2187 56.4491 93.2192 56.449 93.2197 56.4488C93.2205 56.4484 93.2213 56.4479 93.2221 56.4474C93.2227 56.447 93.2233 56.4465 93.2238 56.4459C93.225 56.4447 93.2259 56.4432 93.2265 56.4416C93.2272 56.4401 93.2274 56.4384 93.2274 56.4367C93.0427 52.4139 93.0492 48.3808 93.1341 44.3612C93.137 44.2269 93.1436 44.0646 93.1507 43.8904C93.1623 43.6094 93.1751 43.2971 93.1753 43.0202C93.1753 43.0077 93.1691 43.0014 93.1566 43.0014L89.1535 43C89.1432 43 89.1382 43.0052 89.1385 43.0155L89.2111 46.2465C89.2117 46.2669 89.2018 46.2761 89.1811 46.2742C86.9663 46.038 84.4228 45.9419 82.7555 47.7465C82.2427 48.3015 81.9014 48.9943 81.6722 49.7232C81.1824 51.2795 81.2532 53.0757 82.0561 54.4876C82.8797 55.9356 84.4458 56.7343 86.1075 56.7156C87.4453 56.7002 88.5558 56.204 89.4389 55.2268C89.4418 55.2238 89.4455 55.2216 89.4495 55.2206C89.4536 55.2197 89.4579 55.2199 89.4618 55.2214C89.4657 55.2228 89.4691 55.2254 89.4715 55.2288ZM85.5843 50.1807C85.1465 51.1782 85.0842 52.622 86.0001 53.3907C86.7342 54.0071 87.9328 53.9799 88.5435 53.1976C89.1553 52.4143 89.227 51.4079 89.2298 50.4231C89.2313 49.8993 89.2295 49.3842 89.2242 48.8776C89.2238 48.847 89.2087 48.8289 89.1787 48.8233C87.7959 48.5514 86.2167 48.7398 85.5843 50.1807Z" fill="white"/>
</svg>
