<svg width="100" height="100" viewBox="0 0 100 100" fill="none" xmlns="http://www.w3.org/2000/svg">
<rect width="100" height="100" fill="#DEFFFA"/>
<path d="M92.7594 27.2154C92.8619 27.3554 92.8282 27.4129 92.6582 27.3879C91.2594 27.1779 89.6207 24.0317 87.8994 23.3716C82.3307 21.2341 77.5644 29.5629 73.5219 27.5042C72.2207 26.8404 71.3019 25.0029 70.2669 24.2717C68.7744 23.2141 67.2507 22.9829 65.6957 23.5779C63.8332 24.2904 60.9257 25.7679 56.9732 28.0104C55.1882 29.0229 52.6157 26.4204 51.7419 25.1004C51.6694 24.9904 51.6882 24.9017 51.7982 24.8342C55.1732 22.7141 58.2332 20.9141 60.9782 19.4341C62.8044 18.4516 65.0582 17.9004 67.0232 18.9504C69.3819 20.2104 70.3119 24.2567 73.5819 22.4866C75.8169 21.2766 78.0519 20.0654 80.2869 18.8529C82.9944 17.3854 85.3132 17.8116 87.2432 20.1316C89.1182 22.3841 90.9569 24.7454 92.7594 27.2154Z" fill="#BC252C"/>
<path d="M63.0929 53.2852C58.5591 51.6539 54.9554 56.3602 53.0579 59.7352C53.0459 59.7608 53.0246 59.7809 52.9984 59.7916C52.9722 59.8023 52.943 59.8027 52.9165 59.7927C52.89 59.7828 52.8683 59.7633 52.8556 59.738C52.8428 59.7128 52.8401 59.6836 52.8479 59.6565C54.0666 53.4464 57.6816 48.3389 63.6779 46.2689C66.4904 45.3014 70.6566 45.1927 73.4766 44.7764C80.9616 43.6664 89.9991 40.2239 92.8266 32.5589C92.8324 32.5378 92.8459 32.5197 92.8645 32.5082C92.8831 32.4968 92.9053 32.4928 92.9267 32.497C92.9482 32.5013 92.9672 32.5136 92.9799 32.5313C92.9926 32.5491 92.9982 32.571 92.9954 32.5927C92.7966 38.0077 90.8279 40.6664 87.3216 45.1664C84.7941 48.4102 80.5191 54.5339 82.0979 58.884C82.3629 59.609 83.0554 60.6165 84.1754 61.9065C88.8966 67.3477 95.2154 73.704 93.6141 81.7552C93.5716 81.9752 93.5091 81.9802 93.4266 81.7702C88.8029 70.044 76.8479 68.0677 66.7829 73.929C62.4329 76.464 58.2929 82.3027 52.9829 82.209C52.955 82.2081 52.9279 82.1995 52.9047 82.1842C52.8814 82.1688 52.8629 82.1472 52.8512 82.1219C52.8395 82.0966 52.8351 82.0685 52.8385 82.0408C52.8419 82.0132 52.8529 81.987 52.8704 81.9652C56.7454 77.1852 60.4691 72.3002 64.0416 67.3102C66.9254 63.2827 69.6479 55.6477 63.0929 53.2852Z" fill="#007AA8"/>
<path d="M30.2316 42.9615C32.8184 42.9615 34.9153 40.8645 34.9153 38.2778C34.9153 35.691 32.8184 33.594 30.2316 33.594C27.6448 33.594 25.5479 35.691 25.5479 38.2778C25.5479 40.8645 27.6448 42.9615 30.2316 42.9615Z" fill="#5CB6A8"/>
<path d="M73.4205 42.9427C76.0011 42.9427 78.093 40.8507 78.093 38.2702C78.093 35.6896 76.0011 33.5977 73.4205 33.5977C70.84 33.5977 68.748 35.6896 68.748 38.2702C68.748 40.8507 70.84 42.9427 73.4205 42.9427Z" fill="#007AA8"/>
<path d="M17.6206 50.319C29.1668 42.8152 48.2393 42.1177 51.5056 59.6715C51.5139 59.7044 51.5095 59.7393 51.4933 59.7692C51.4771 59.7991 51.4502 59.8217 51.418 59.8326C51.3858 59.8435 51.3506 59.8418 51.3196 59.828C51.2886 59.8141 51.2639 59.789 51.2505 59.7577C49.653 56.619 45.5393 51.5265 41.418 53.1952C34.9793 55.8052 37.0718 62.4727 40.0943 66.8415C43.6718 72.019 47.4455 77.0328 51.4156 81.8828C51.4423 81.9145 51.4589 81.9534 51.4632 81.9946C51.4674 82.0359 51.4592 82.0775 51.4396 82.1144C51.42 82.1513 51.3898 82.1817 51.3528 82.2019C51.3158 82.222 51.2737 82.2311 51.2318 82.2278C50.0193 82.1228 48.8955 81.6803 47.8605 80.9003C42.0743 76.539 32.5493 68.499 24.6556 71.7128C20.5006 73.4003 16.8856 77.6603 14.9506 81.4703C14.5656 82.2303 14.3343 82.1865 14.2568 81.339C13.5068 73.1115 16.6193 67.0552 21.2581 60.7177C22.4318 59.1127 24.0181 55.6815 22.0793 54.2265C18.7343 51.7177 13.0193 60.099 7.10556 56.4577C7.06607 56.4335 7.03519 56.3975 7.01725 56.3548C6.99932 56.3121 6.99524 56.2648 7.0056 56.2197C7.01595 56.1745 7.04022 56.1338 7.07497 56.1031C7.10973 56.0725 7.15321 56.0536 7.19931 56.049C10.4843 55.7715 14.7743 52.1677 17.6206 50.319Z" fill="#5CB6A8"/>
<path d="M55.023 65.4953L58.5443 65.499C58.6258 65.499 58.704 65.5314 58.7617 65.5891C58.8194 65.6468 58.8518 65.725 58.8518 65.8065V70.1603C58.8518 70.2418 58.8194 70.3201 58.7617 70.3777C58.704 70.4354 58.6258 70.4678 58.5443 70.4678H55.008C54.9277 70.4678 54.8506 70.4991 54.7932 70.5552C54.7357 70.6112 54.7025 70.6875 54.7005 70.7678L54.6068 74.2928C54.6048 74.373 54.5715 74.4493 54.5141 74.5054C54.4566 74.5614 54.3795 74.5928 54.2993 74.5928H50.0843C50.0033 74.5928 49.9257 74.5609 49.8681 74.5041C49.8106 74.4472 49.7777 74.3699 49.7768 74.289L49.7093 70.7715C49.7083 70.6906 49.6754 70.6134 49.6179 70.5565C49.5603 70.4997 49.4827 70.4678 49.4018 70.4678H45.9518C45.8702 70.4678 45.792 70.4354 45.7343 70.3777C45.6767 70.3201 45.6443 70.2418 45.6443 70.1603L45.6143 65.8065C45.6143 65.7661 45.6222 65.7262 45.6377 65.6889C45.6531 65.6515 45.6758 65.6176 45.7043 65.5891C45.7329 65.5605 45.7668 65.5379 45.8041 65.5224C45.8414 65.507 45.8814 65.499 45.9218 65.499H49.3718C49.452 65.4991 49.5291 65.4677 49.5866 65.4116C49.644 65.3556 49.6773 65.2793 49.6793 65.199L49.788 61.674C49.7909 61.5944 49.8246 61.5191 49.882 61.4638C49.9393 61.4086 50.0159 61.3777 50.0955 61.3778L54.3518 61.374C54.4327 61.374 54.5103 61.4059 54.5679 61.4628C54.6254 61.5196 54.6583 61.5969 54.6593 61.6778L54.7155 65.1915C54.7165 65.2724 54.7493 65.3497 54.8069 65.4065C54.8644 65.4634 54.9421 65.4953 55.023 65.4953Z" fill="#BC252C"/>
</svg>
