<svg width="100" height="100" viewBox="0 0 100 100" fill="none" xmlns="http://www.w3.org/2000/svg">
<rect width="100" height="100" fill="#C4599F"/>
<path d="M80.3915 28.2096C88.4515 34.8596 89.5415 41.7496 89.6115 52.7196C89.6515 59.2996 89.6482 65.9096 89.6015 72.5496C89.5948 72.9963 89.3682 73.2196 88.9215 73.2196H82.9115C82.5248 73.2196 82.3315 73.0263 82.3315 72.6396C82.4248 59.8796 82.4182 51.833 82.3115 48.4996C81.7015 29.5996 59.9415 22.4496 50.2115 39.4796C49.9715 39.8996 49.7382 39.8996 49.5115 39.4796C44.2915 29.7796 32.9315 26.4396 24.2815 33.5596C18.5515 38.2896 17.9515 44.1596 17.9015 52.0196C17.8548 58.9063 17.8482 65.7996 17.8815 72.6996C17.8882 73.0463 17.7182 73.2196 17.3715 73.2196H10.8915C10.7615 73.2196 10.6369 73.168 10.545 73.0761C10.4531 72.9842 10.4015 72.8596 10.4015 72.7296C10.3215 62.5996 8.9115 47.5196 11.9015 38.8296C17.5615 22.3796 35.4715 16.5796 49.5715 27.7996C49.8382 28.013 50.1248 28.043 50.4315 27.8896C51.1915 27.5196 51.8615 26.4996 52.5215 26.0996C62.2682 20.213 71.5582 20.9163 80.3915 28.2096Z" fill="white"/>
<path d="M20.1317 46.2196C20.1817 27.8996 48.5417 26.8296 48.6617 45.4196C48.7217 54.1796 48.695 63.2096 48.5817 72.5096C48.575 72.9829 48.335 73.2196 47.8617 73.2196H41.8817C41.5484 73.2196 41.3817 73.0496 41.3817 72.7096C41.3617 65.0096 41.3584 57.3196 41.3717 49.6396C41.3817 44.9596 40.2117 41.1596 35.2617 40.4896C30.4917 39.8496 27.5117 43.0596 27.4717 47.7296C27.3984 56.0496 27.3617 64.3796 27.3617 72.7196C27.3617 73.0529 27.1917 73.2196 26.8517 73.2196H20.6417C20.3017 73.2196 20.1317 73.0496 20.1317 72.7096C20.1117 63.8763 20.1117 55.0463 20.1317 46.2196Z" fill="white"/>
<path d="M73.9315 34.9098C78.5915 38.3398 79.7815 43.2098 79.8315 49.2698C79.8981 57.0432 79.9048 64.8398 79.8515 72.6598C79.8448 73.0598 79.6415 73.2598 79.2415 73.2598L73.3215 73.1998C73.2335 73.1998 73.1464 73.1822 73.0651 73.1481C72.9838 73.1139 72.9099 73.0638 72.8477 73.0007C72.7855 72.9375 72.7361 72.8625 72.7025 72.78C72.6688 72.6975 72.6515 72.6091 72.6515 72.5198C72.6181 64.1132 72.5815 55.7698 72.5415 47.4898C72.5215 42.6198 69.1615 40.1798 64.5615 40.6098C59.5215 41.0798 58.4015 45.0398 58.3915 49.6798C58.3715 57.3598 58.3648 65.0332 58.3715 72.6998C58.3715 73.0465 58.2015 73.2198 57.8615 73.2198H51.3915C51.0581 73.2198 50.8915 73.0532 50.8915 72.7198C50.8448 63.6465 50.8515 54.5832 50.9115 45.5298C50.9815 34.2398 65.1115 28.3998 73.9315 34.9098Z" fill="white"/>
</svg>
