<svg width="100" height="100" viewBox="0 0 100 100" fill="none" xmlns="http://www.w3.org/2000/svg">
<g clip-path="url(#clip0_84_2608)">
<rect width="100" height="100" fill="#CA012D"/>
<path d="M36.58 15.31L46.89 62.91C47.01 63.4767 47.1433 63.48 47.29 62.92L49.63 53.75L59.85 15.77C59.9367 15.4433 60.15 15.28 60.49 15.28L77.6 15.36V77.13C77.6 77.2768 77.5424 77.4177 77.4395 77.5225C77.3367 77.6272 77.1968 77.6874 77.05 77.69L66.87 77.72C66.44 71.13 67.41 65.03 66.48 58.08C66.7667 50.1333 66.8667 41.8733 66.78 33.3C66.75 31.12 67.38 27.77 66.65 25.03C66.6233 24.9367 66.6 24.9367 66.58 25.03L53.36 77.2C53.2667 77.56 53.0367 77.74 52.67 77.74L43.31 77.75L38.77 62L29.78 29.77C29.7133 29.51 29.6767 29.5133 29.67 29.78L29.45 77.28C29.4433 77.58 29.29 77.73 28.99 77.73L19.5 77.75C19.4067 77.7633 19.3067 77.7667 19.2 77.76C18.9 77.74 18.75 77.58 18.75 77.28V15.76C18.75 15.4133 18.9267 15.24 19.28 15.24L36.58 15.31Z" fill="white"/>
<path d="M36.5801 15.3101C40.3401 19.0901 42.3734 21.7567 42.6801 23.3101C44.6401 33.1767 46.9567 43.3234 49.6301 53.7501L47.2901 62.9201C47.1434 63.4801 47.0101 63.4767 46.8901 62.9101L36.5801 15.3101Z" fill="#76051E"/>
<path d="M77.6001 15.3601L83.3301 22.0101C83.5168 22.2301 83.6101 22.4834 83.6101 22.7701L83.7201 84.2701C83.7201 84.7634 83.4735 85.0101 82.9801 85.0101L73.4901 84.9801C73.1034 84.9801 72.7834 84.8268 72.5301 84.5201L66.8701 77.7201L77.0501 77.6901C77.1969 77.6875 77.3368 77.6273 77.4396 77.5226C77.5425 77.4179 77.6001 77.2769 77.6001 77.1301V15.3601Z" fill="#76051E"/>
<path d="M66.4801 58.08L59.5101 84.34C59.4576 84.5275 59.345 84.6926 59.1897 84.81C59.0343 84.9274 58.8448 84.9906 58.6501 84.99L49.9701 85C49.8126 84.9997 49.657 84.9657 49.5138 84.9001C49.3706 84.8346 49.2431 84.739 49.1401 84.62L43.3101 77.75L52.6701 77.74C53.0367 77.74 53.2667 77.56 53.3601 77.2L66.5801 25.03C66.6001 24.9366 66.6234 24.9366 66.6501 25.03C67.3801 27.77 66.7501 31.12 66.7801 33.3C66.8667 41.8733 66.7667 50.1333 66.4801 58.08Z" fill="#76051E"/>
<path d="M38.77 61.9999C37.7233 61.7933 36.96 61.4799 36.48 61.0599C35.84 60.4999 35.52 60.6466 35.52 61.4999L35.49 84.5299C35.49 84.8699 35.3167 85.0399 34.97 85.0399L25.11 84.9199C25.0087 84.9166 24.9094 84.8927 24.8183 84.8497C24.7271 84.8067 24.646 84.7455 24.58 84.6699L19.8 78.9999C19.6067 78.7666 19.5067 78.4999 19.5 78.1999V77.7499L28.99 77.7299C29.29 77.7299 29.4433 77.5799 29.45 77.2799L29.67 29.7799C29.6767 29.5133 29.7133 29.5099 29.78 29.7699L38.77 61.9999Z" fill="#76051E"/>
</g>
<defs>
<clipPath id="clip0_84_2608">
<rect width="100" height="100" fill="white"/>
</clipPath>
</defs>
</svg>
