<svg width="100" height="100" viewBox="0 0 100 100" fill="none" xmlns="http://www.w3.org/2000/svg">
<rect width="100" height="100" fill="#90603D"/>
<path fill-rule="evenodd" clip-rule="evenodd" d="M45.7876 57.5457C39.8908 49.7268 33.8634 42.0147 27.7055 34.4093C27.486 34.1364 27.2043 34 26.8602 34H5.36102C5.29306 33.9999 5.2267 34.019 5.16936 34.0554C5.11203 34.0917 5.066 34.1437 5.03643 34.2056C5.00687 34.2675 4.99493 34.3369 5.00197 34.4059C5.009 34.4748 5.03473 34.5408 5.07626 34.5962L24.591 59.628C24.7756 59.8644 24.8759 60.1557 24.8758 60.4556V64.4778C24.8758 64.7744 25.0241 64.9227 25.3207 64.9227H46.6953C47.0038 64.9227 47.1847 64.7685 47.2381 64.46C47.7008 61.6658 47.594 59.9395 45.7876 57.5457ZM72.4246 34.0592C72.3459 34.0978 72.2777 34.1537 72.2254 34.2227C65.765 42.4806 59.6753 50.3203 53.9565 57.7417C52.2883 59.913 52.3885 61.734 52.5292 64.2902L52.5327 64.3534C52.5418 64.5076 52.6095 64.6526 52.722 64.7585C52.8345 64.8643 52.9833 64.9232 53.1378 64.9229H74.4679C74.5706 64.9221 74.6719 64.8979 74.7639 64.8521C74.8559 64.8064 74.9363 64.7402 74.9989 64.6587C75.0615 64.5772 75.1048 64.4825 75.1253 64.3818C75.1458 64.2811 75.1432 64.1771 75.1175 64.0776C74.5302 61.8618 74.7704 60.26 76.2387 58.3735C82.4796 50.4063 88.7146 42.4242 94.9437 34.4273C94.9741 34.3874 94.9931 34.3397 94.9984 34.2896C95.0038 34.2396 94.9952 34.1894 94.9738 34.1447C94.9524 34.1 94.919 34.0627 94.8774 34.0372C94.8359 34.0116 94.7879 33.9988 94.739 34.0002H72.6792C72.5905 34.0004 72.5034 34.0206 72.4246 34.0592ZM40.1813 46.1645L49.6584 34.7209C49.8423 34.4955 50.0291 34.4955 50.219 34.7209L59.8829 46.3692C59.9801 46.4834 60.0335 46.6285 60.0335 46.7785C60.0335 46.9285 59.9801 47.0736 59.8829 47.1878L51.1444 57.7594C50.9843 57.9492 50.9042 58.1688 50.9042 58.4179V64.9317C50.9048 65.1031 50.8543 65.2708 50.7592 65.4135C50.6641 65.5561 50.5287 65.6672 50.3703 65.7326C49.8126 65.9699 49.4033 65.9283 49.1422 65.608C48.7655 65.1456 48.8145 64.1176 48.8749 62.854C48.9712 60.8345 49.0963 58.213 47.5583 56.3356C45.0845 53.316 42.6284 50.3587 40.1902 47.4637C40.0377 47.2807 39.9534 47.0508 39.9518 46.8137C39.9502 46.5765 40.0313 46.3469 40.1813 46.1645ZM25.7033 58.3289C23.9112 56.0615 22.0957 53.7942 20.2773 51.5232C16.1723 46.3966 12.0526 41.2516 8.1551 36.0468C7.91187 35.7205 7.99196 35.5573 8.39537 35.5573H26.2194C26.516 35.5573 26.7563 35.676 26.9402 35.9133C35.9219 47.6298 41.6022 54.9356 43.9811 57.8306C45.2684 59.4027 45.8765 61.0341 45.8053 62.7248C45.7875 63.152 45.568 63.3655 45.1468 63.3655H26.869C26.7991 63.3661 26.7299 63.3517 26.6661 63.3233C26.6023 63.2949 26.5452 63.2532 26.4989 63.2009C26.4525 63.1486 26.4179 63.087 26.3973 63.0203C26.3767 62.9535 26.3707 62.8831 26.3796 62.8138C26.6346 60.7197 26.4092 59.2247 25.7033 58.3289ZM72.688 36.3405C73.0974 35.8184 73.6372 35.5574 74.3076 35.5574H91.393C91.7845 35.5574 91.8587 35.7116 91.6154 36.0201C86.3593 42.8009 81.0972 49.5668 75.8292 56.3179C75.6221 56.5835 75.4234 56.8322 75.2349 57.0683C73.7307 58.9517 72.8701 60.0293 73.4711 62.449C73.4982 62.5582 73.5 62.6721 73.4764 62.7821C73.4528 62.892 73.4044 62.9952 73.3348 63.0836C73.2653 63.172 73.1765 63.2433 73.0752 63.2922C72.9739 63.3411 72.8628 63.3662 72.7503 63.3656H54.8551C54.5882 63.3656 54.425 63.2351 54.3657 62.974C54.0038 61.3308 54.1165 60.1324 54.7038 59.379C60.7075 51.6787 66.7022 43.9992 72.688 36.3405Z" fill="white"/>
</svg>
