<svg width="100" height="100" viewBox="0 0 100 100" fill="none" xmlns="http://www.w3.org/2000/svg">
<rect width="100" height="100" fill="#154A72"/>
<path d="M49.1588 88.385C31.6838 85.025 20.2488 69.24 20.0388 51.99C19.9855 47.7934 19.9871 37.5417 20.0438 21.235C20.0438 21.0783 20.1221 21 20.2788 21H80.0137C80.1804 21 80.2637 21.0817 80.2637 21.245C80.2771 30.0883 80.2787 38.9217 80.2687 47.745C80.2654 52.5084 80.1287 55.835 79.8587 57.725C77.7387 72.66 66.7137 84.61 52.1138 88.19C51.0738 88.4451 50.2538 88.595 49.1588 88.385Z" fill="#0F71BA"/>
<path d="M49.0685 84.49C36.5385 81.04 27.1685 72.155 24.5085 59.4C24.0385 57.14 23.7969 53.8234 23.7835 49.45C23.7569 41.14 23.7552 32.8233 23.7785 24.5C23.7785 24.4337 23.8049 24.3701 23.8518 24.3232C23.8986 24.2763 23.9622 24.25 24.0285 24.25H76.3685C76.4885 24.25 76.5485 24.31 76.5485 24.43C76.5018 32.5067 76.4901 40.5717 76.5135 48.625C76.5268 53.1884 76.3485 56.5084 75.9785 58.585C73.6635 71.595 64.0235 81.175 51.2285 84.505C50.5085 84.695 49.7885 84.69 49.0685 84.49Z" fill="white"/>
<path d="M49.1989 82.665C37.7239 79.7 29.1789 71.385 26.5639 60.035C26.0472 57.8017 25.7606 54.49 25.7039 50.1C25.6039 42.3733 25.5956 34.6233 25.6789 26.85C25.6822 26.7 25.7589 26.625 25.9089 26.625H74.2688C74.4388 26.625 74.5238 26.71 74.5238 26.88C74.5105 34.9667 74.5172 43.0433 74.5438 51.11C74.5938 66.77 66.5338 78.2 51.3339 82.625C50.6172 82.835 49.9055 82.8484 49.1989 82.665Z" fill="#0F71BA"/>
<path d="M45.2238 46.615L40.3738 53.825C40.3591 53.8467 40.3394 53.8644 40.3163 53.8767C40.2932 53.8889 40.2674 53.8953 40.2413 53.8953C40.2151 53.8953 40.1894 53.8889 40.1663 53.8767C40.1432 53.8644 40.1235 53.8467 40.1088 53.825L35.2838 46.7C35.265 46.6705 35.2371 46.6479 35.2043 46.6357C35.1714 46.6236 35.1355 46.6225 35.1021 46.6328C35.0686 46.643 35.0394 46.6639 35.0189 46.6923C34.9985 46.7207 34.9879 46.755 34.9888 46.79L35.0338 57.34C35.0338 57.3824 35.0169 57.4231 34.9869 57.4531C34.9569 57.4832 34.9162 57.5 34.8738 57.5H29.6338C29.5914 57.5 29.5507 57.4832 29.5207 57.4531C29.4907 57.4231 29.4738 57.3824 29.4738 57.34L29.4038 38.035C29.4038 37.9926 29.4207 37.9519 29.4507 37.9219C29.4807 37.8919 29.5214 37.875 29.5638 37.875H35.3738C35.4008 37.8751 35.4273 37.882 35.4509 37.8951C35.4746 37.9082 35.4945 37.9271 35.5088 37.95L40.1538 45.245C40.1682 45.2677 40.1882 45.2864 40.2118 45.2994C40.2354 45.3123 40.2619 45.3191 40.2888 45.3191C40.3157 45.3191 40.3422 45.3123 40.3658 45.2994C40.3894 45.2864 40.4093 45.2677 40.4238 45.245L45.0988 37.95C45.1131 37.9271 45.133 37.9082 45.1566 37.8951C45.1802 37.882 45.2068 37.8751 45.2338 37.875H50.9888C51.0312 37.875 51.0719 37.8919 51.1019 37.9219C51.1319 37.9519 51.1488 37.9926 51.1488 38.035L51.1388 57.34C51.1388 57.3824 51.1219 57.4231 51.0919 57.4531C51.0619 57.4832 51.0212 57.5 50.9788 57.5H45.6788C45.6364 57.5 45.5957 57.4832 45.5657 57.4531C45.5356 57.4231 45.5188 57.3824 45.5188 57.34V46.705C45.5197 46.67 45.5091 46.6357 45.4887 46.6073C45.4682 46.5789 45.439 46.558 45.4055 46.5478C45.3721 46.5375 45.3362 46.5386 45.3033 46.5507C45.2705 46.5629 45.2426 46.5855 45.2238 46.615Z" fill="white"/>
<path d="M58.7935 42.625H53.1186C53.0589 42.625 53.0017 42.6013 52.9595 42.5591C52.9173 42.5169 52.8936 42.4597 52.8936 42.4V38.1C52.8936 38.0403 52.9173 37.9831 52.9595 37.9409C53.0017 37.8987 53.0589 37.875 53.1186 37.875H70.5435C70.5731 37.875 70.6023 37.8808 70.6296 37.8921C70.6569 37.9034 70.6817 37.92 70.7026 37.9409C70.7235 37.9618 70.7401 37.9866 70.7514 38.0139C70.7627 38.0412 70.7685 38.0705 70.7685 38.1V42.4C70.7685 42.4296 70.7627 42.4588 70.7514 42.4861C70.7401 42.5134 70.7235 42.5382 70.7026 42.5591C70.6817 42.58 70.6569 42.5966 70.6296 42.6079C70.6023 42.6192 70.5731 42.625 70.5435 42.625H64.9335C64.8739 42.625 64.8166 42.6487 64.7744 42.6909C64.7322 42.7331 64.7085 42.7903 64.7085 42.85L64.7335 57.27C64.7335 57.3297 64.7098 57.3869 64.6676 57.4291C64.6254 57.4713 64.5682 57.495 64.5085 57.495L59.2435 57.5C59.1839 57.5 59.1266 57.4763 59.0845 57.4341C59.0423 57.3919 59.0185 57.3347 59.0185 57.275V42.85C59.0185 42.7903 58.9948 42.7331 58.9526 42.6909C58.9104 42.6487 58.8532 42.625 58.7935 42.625Z" fill="white"/>
</svg>
