<svg width="100" height="100" viewBox="0 0 100 100" fill="none" xmlns="http://www.w3.org/2000/svg">
<rect width="100" height="100" fill="#FFE6DE"/>
<path d="M65.3773 48.2835L64.1069 49.6109L57.3007 53.3998L56.341 53.9211C56.336 53.9232 56.3304 53.9235 56.3252 53.922C56.32 53.9205 56.3154 53.9173 56.3122 53.913C56.3091 53.9086 56.3074 53.9033 56.3076 53.8979C56.3078 53.8924 56.3098 53.8873 56.3133 53.8831L78.2751 32.9226L79.8148 31.4553L81.6963 29.6567L83.4431 27.9979L85.1399 26.3857L87.037 24.5749L88.6129 23.087C89.6521 22.0628 90.3028 21.4103 90.5652 21.1295C90.6481 21.0409 90.7246 20.9978 90.7948 21.0001C90.873 21.0024 90.8851 21.0323 90.831 21.0898L65.3773 48.2835Z" fill="#0C4DA1"/>
<path d="M88.8343 24.1399L88.0748 25.0513L85.9585 27.625L84.7778 29.0836L83.1691 31.029L71.6885 45.0418L71.055 45.677L66.1855 48.8549L89.504 23.1612C89.527 23.1347 89.546 23.1376 89.561 23.1698C89.5736 23.1986 89.5725 23.2176 89.5575 23.2268C89.317 23.5272 89.0759 23.8315 88.8343 24.1399Z" fill="#0C4DA1"/>
<path d="M53.7382 53.4239L51.5598 55.2846L50.2911 56.3531L47.31 58.8284L46.9665 59.1063C43.5119 61.9407 40.028 64.6605 36.5147 67.2658L34.1016 69.0092L33.0089 69.7618C30.7419 71.3591 28.4496 72.8487 26.132 74.2308C23.873 75.5829 21.5888 76.7452 19.2792 77.7176C15.1675 79.3316 9.34178 80.5606 9 74.0133V73.4627C9.33487 71.5386 9.7549 69.6433 10.2601 67.7767C10.2649 67.7585 10.2756 67.7425 10.2906 67.7311C10.3056 67.7197 10.3239 67.7136 10.3427 67.7138C10.3616 67.714 10.3798 67.7204 10.3945 67.7322C10.4092 67.7439 10.4196 67.7602 10.4241 67.7785C10.5817 68.4091 10.8539 68.939 11.2405 69.3682C11.557 69.6974 11.9563 69.9603 12.4385 70.1571C13.4155 70.5196 14.5294 70.6347 15.7803 70.5023C18.2021 70.3142 20.8327 69.4442 23.0284 68.5794L26.1855 67.233L28.8783 65.9419L29.8087 65.4896L36.7081 61.6973C40.3226 59.5695 43.8284 57.3796 47.2255 55.1276L54.1594 50.4376L56.6174 48.708L57.3942 48.1695L64.2504 43.2396L66.1716 41.8173L67.7735 40.621C67.9725 40.4438 68.121 40.3426 68.2188 40.3172C68.289 40.3 68.2976 40.3161 68.2447 40.3656C63.4921 44.8225 58.6565 49.1752 53.7382 53.4239Z" fill="#0C4DA1"/>
<path d="M29.4947 41.1926C33.5805 41.8053 36.6116 44.814 37.1243 48.9067C37.1979 49.7502 37.168 50.5695 37.0345 51.3647C36.9206 52.1495 36.6887 52.8975 36.3389 53.6087L35.317 55.2969C34.6806 56.1001 33.8883 56.7998 32.9401 57.3959C31.39 58.305 29.7122 58.725 27.9067 58.656L26.3618 58.4005C25.1178 58.0909 23.9348 57.4966 22.8128 56.6174L21.7029 55.4919C19.2397 52.4332 19.0378 48.47 21.0694 45.1247C21.585 44.3871 22.1569 43.7415 22.7852 43.188C23.4227 42.6897 24.1282 42.2438 24.9015 41.8502L26.2945 41.3876C27.4015 41.1459 28.4683 41.0809 29.4947 41.1926Z" fill="#D2252B"/>
<path d="M32.0753 47.3066C31.455 48.4033 30.7237 49.4257 29.8814 50.3739C29.8319 50.4315 29.8319 50.489 29.8814 50.5466L31.1346 51.9931C31.1806 52.046 31.2283 52.0483 31.2778 52C32.2145 51.092 32.9833 50.0684 33.5839 48.9292C33.6979 48.7255 34.4505 47.0615 34.4522 47.0597C34.4971 47.0494 34.5126 47.0661 34.4988 47.1098C33.8831 49.0189 32.9315 50.7416 31.6438 52.2779C31.6332 52.2903 31.6254 52.3047 31.6206 52.3203C31.6159 52.3359 31.6143 52.3523 31.6161 52.3686C31.6179 52.3848 31.6229 52.4006 31.6309 52.415C31.639 52.4294 31.6498 52.442 31.6627 52.4522L32.783 53.3049C32.8256 53.3372 32.8647 53.3337 32.9004 53.2946C33.7347 52.3694 34.4113 51.3412 34.9303 50.21C34.9534 50.1593 34.9695 50.1616 34.9787 50.2169C34.9856 50.2652 34.9764 50.3245 34.9511 50.3947C34.5299 51.5178 33.9844 52.5391 33.3147 53.4586C33.2525 53.5437 33.2675 53.6128 33.3595 53.6657L34.0069 54.0437C34.0172 54.0507 34.0248 54.061 34.0283 54.073C34.0319 54.0849 34.0311 54.0978 34.0262 54.1092C34.0213 54.1207 34.0125 54.1301 34.0014 54.1358C33.9903 54.1415 33.9776 54.1431 33.9654 54.1404L33.1162 53.8797C33.0912 53.872 33.0645 53.872 33.0396 53.8797C33.0146 53.8874 32.9926 53.9024 32.9763 53.9229C32.2583 54.8377 31.3912 55.5788 30.375 56.1462C30.268 56.206 30.2686 56.2647 30.3768 56.3222L31.0793 56.6899C31.1909 56.7486 31.184 56.7722 31.0586 56.7607C30.4648 56.7037 30.0799 56.3015 29.4913 56.5018C28.623 56.7952 27.3405 57.0921 26.7104 56.3706C26.6874 56.3441 26.6938 56.3274 26.7294 56.3205L28.7231 55.9735C28.8497 55.9517 28.8624 55.9011 28.7611 55.8216L27.8911 55.1433C27.8642 55.1221 27.8324 55.108 27.7986 55.1023C27.7649 55.0966 27.7302 55.0994 27.6978 55.1105C27.0119 55.3521 26.3054 55.492 25.5781 55.5299C25.5291 55.5322 25.4808 55.5169 25.4417 55.4868L24.5873 54.8153C24.5774 54.8073 24.5701 54.7964 24.5666 54.7841C24.5631 54.7719 24.5634 54.7588 24.5676 54.7468C24.5717 54.7347 24.5795 54.7242 24.5898 54.7167C24.6001 54.7092 24.6125 54.7051 24.6253 54.7048C25.4354 54.6956 26.2271 54.5731 27.0004 54.3372C27.0672 54.3165 27.081 54.2773 27.0419 54.2198L26.2202 52.9856C26.1903 52.943 26.1506 52.9298 26.1011 52.9459C25.2173 53.2336 24.3105 53.3717 23.3807 53.3602C23.3266 53.3602 23.284 53.3383 23.253 53.2946L22.5608 52.3124C22.5516 52.2989 22.5463 52.2831 22.5455 52.2667C22.5448 52.2504 22.5486 52.2342 22.5565 52.2201C22.5645 52.206 22.5763 52.1945 22.5905 52.187C22.6047 52.1795 22.6207 52.1763 22.6367 52.1778C23.6483 52.2549 24.6442 52.1663 25.6247 51.9119C25.6799 51.8981 25.6995 51.8636 25.6834 51.8084L25.4366 50.9884C25.6517 51.1829 25.7806 51.4016 25.8232 51.6444C25.8278 51.6716 25.8382 51.6976 25.8538 51.7205C25.8693 51.7434 25.8895 51.7628 25.9132 51.7773C25.9369 51.7919 25.9634 51.8012 25.991 51.8048C26.0187 51.8083 26.0468 51.806 26.0735 51.798C27.2185 51.4528 28.268 50.9211 29.222 50.2031C29.25 50.182 29.2699 50.1518 29.2784 50.1176C29.2868 50.0833 29.2834 50.0471 29.2686 50.0149C28.982 49.3854 28.7519 48.7353 28.5781 48.0644C28.5738 48.0477 28.5761 48.0299 28.5847 48.0148C28.5932 47.9996 28.6073 47.9884 28.6238 47.9836C28.6403 47.9788 28.6578 47.9808 28.6726 47.9891C28.6873 47.9975 28.698 48.0115 28.7024 48.0281C28.7697 48.237 28.7853 48.4614 28.8578 48.6271C29.0442 49.054 29.2536 49.4694 29.4861 49.8734C29.5195 49.932 29.5597 49.9378 29.6069 49.8906L31.1052 48.3699C31.7036 47.5954 32.2174 46.7726 32.6467 45.9015C32.6743 45.844 32.703 45.8434 32.733 45.8998C32.7514 45.9354 32.7502 45.974 32.7295 46.0154C32.512 46.4435 32.2939 46.8739 32.0753 47.3066Z" fill="#F2D0C5"/>
<path d="M17.1763 51.9721C16.9875 53.0895 16.9346 54.2391 17.0175 55.4209C17.373 59.0078 19.3006 61.051 22.8 61.5504C23.9646 61.6747 25.1165 61.6644 26.2558 61.5194C27.4687 61.3721 28.6436 61.1471 29.7806 60.8444C32.1028 60.2219 34.3606 59.4394 36.5539 58.4969L40.2185 56.8571L42.7042 55.6246L43.6139 55.1672L47.313 53.1855C47.6329 53.0014 47.9079 52.842 48.1381 52.7074C48.1588 52.6947 48.1778 52.6965 48.1951 52.7126C48.2227 52.7379 48.221 52.7603 48.1899 52.7799L46.8935 53.586C43.47 55.7886 39.9965 57.8663 36.4728 59.8191C34.2173 61.0861 31.9388 62.2622 29.6373 63.3474L26.2713 64.8491L24.4416 65.5689L22.769 66.1696L19.2269 67.1104C18.1636 67.3152 17.0992 67.3923 16.0335 67.3417C13.0818 67.0068 12.1428 65.1115 12.476 62.3307L12.6572 61.0205L13.5531 58.9578L15.0963 55.5883L17.3765 50.6585C17.3795 50.6529 17.3844 50.6485 17.3902 50.6461C17.3961 50.6437 17.4026 50.6434 17.4087 50.6452C17.4148 50.647 17.42 50.6509 17.4236 50.6561C17.4272 50.6614 17.4288 50.6677 17.4283 50.674L17.1763 51.9721Z" fill="#0C4DA1"/>
</svg>
