<svg width="100" height="100" viewBox="0 0 100 100" fill="none" xmlns="http://www.w3.org/2000/svg">
<rect width="100" height="100" fill="white"/>
<path fill-rule="evenodd" clip-rule="evenodd" d="M37.3912 55.9C35.5446 57.3329 32.0903 58.8085 30.6105 55.9043C29.3439 53.4138 31.4932 50.9915 33.5445 49.4008C35.7649 47.6808 39.9073 45.1064 45.9715 41.6776C58.5691 34.5558 71.5207 30.8157 84.9328 38.6541C84.9672 38.676 85.0084 38.6845 85.0486 38.678C85.0888 38.6716 85.1253 38.6506 85.1511 38.619C85.1768 38.5875 85.1901 38.5476 85.1884 38.5068C85.1867 38.4661 85.1701 38.4275 85.1418 38.3982C82.2845 35.2225 78.7591 33.0134 74.5656 31.771C62.4542 28.1845 50.0186 34.0909 40.1802 40.8077C39.9751 40.9476 39.7659 41.0911 39.5535 41.237C36.9741 43.0078 33.9009 45.1175 31.4975 45.0978C28.1669 45.068 28.7724 41.0465 30.2139 39.2426C32.87 35.9108 37.9518 33.1942 41.9368 31.064C42.3282 30.8547 42.709 30.6512 43.0759 30.4533C54.0273 24.534 67.5205 23.3015 79.1159 27.8519C79.1536 27.8671 79.1953 27.8679 79.2332 27.8542C79.271 27.8404 79.3025 27.813 79.3218 27.777C79.3411 27.7411 79.3469 27.699 79.338 27.6586C79.3292 27.6183 79.3063 27.5824 79.2737 27.5576C69.3031 20.2822 55.4986 21.246 44.6879 26.5554C43.728 27.0267 42.6813 27.688 41.5941 28.375C39.2081 29.8825 36.6271 31.5133 34.342 31.5279C31.9794 31.545 30.926 29.5534 31.6382 27.4467C33.101 23.0968 41.7624 19.8344 45.2806 18.7299C51.6434 16.7369 58.1498 15.8286 64.7997 16.0048C64.8099 16.0071 64.8205 16.0052 64.8293 15.9996C64.8381 15.994 64.8443 15.9852 64.8466 15.975C64.8489 15.9648 64.847 15.9541 64.8414 15.9453C64.8358 15.9365 64.8269 15.9303 64.8167 15.9281C43.0801 7.00655 18.8231 19.2417 13.8464 42.1851C8.93781 64.8173 26.0004 86.1445 48.961 86.9761C62.4925 87.4623 75.1157 80.4939 82.0798 68.89C82.7877 67.713 83.0351 66.4336 83.1118 65.1158C83.5255 57.7253 72.9237 59.2861 68.8809 60.5314C61.8102 62.7106 56.1767 66.9837 50.5602 72.0628C49.3633 73.146 47.9972 73.78 46.4619 73.9648C42.7901 74.4084 42.1163 70.3016 44.1505 68.1053C45.5721 66.5757 47.4115 65.0718 49.6689 63.5934L49.868 63.4629C58.9318 57.5227 66.2457 52.7293 76.7917 53.0215C80.5403 53.1238 83.4956 54.5269 85.6365 57.4566C85.6808 57.519 85.7469 57.5625 85.8217 57.5787C85.8965 57.5949 85.9747 57.5826 86.0408 57.5442C86.107 57.5057 86.1565 57.444 86.1795 57.371C86.2025 57.298 86.1974 57.219 86.1653 57.1496C83.5127 51.1479 79.0747 48.4541 72.8512 49.0682C63.6525 49.9765 54.3088 55.8872 47.221 61.38C44.1448 63.7597 41.8917 65.3816 40.4617 66.2459C38.3763 67.4997 35.2717 66.7577 35.0499 63.9601C34.785 60.6144 39.629 57.4466 42.5826 55.5152C42.957 55.2704 43.301 55.0454 43.6004 54.8424C54.1723 47.6779 74.169 36.8672 85.726 48.2366C86.0871 48.5891 86.4851 48.9004 86.9201 49.1705C87.1532 49.3127 87.2001 49.2672 87.0608 49.0341C79.6916 36.5303 64.4329 39.217 53.8439 45.068C48.0811 48.2522 42.5968 51.8629 37.3912 55.9ZM55.1233 76.7028C54.522 80.8437 59.8655 79.8415 61.8955 79.1805C66.45 77.6964 70.5455 75.3793 74.1818 72.2292C75.8023 70.8304 78.634 67.9689 78.5828 65.7812C78.4549 60.0965 56.0189 70.5234 55.1233 76.7028Z" fill="#1874A5"/>
</svg>
