<svg width="100" height="100" viewBox="0 0 100 100" fill="none" xmlns="http://www.w3.org/2000/svg">
<rect width="100" height="100" fill="#FFE4D5"/>
<path fill-rule="evenodd" clip-rule="evenodd" d="M30.6317 43.9272C28.9008 43.8489 26.9083 43.9297 24.6542 44.1697C24.1842 44.2197 23.65 44.208 23.0517 44.1347C17.7317 43.4897 14.4429 38.0797 16.3129 33.071C18.8667 26.2347 28.3104 25.9134 31.4679 32.4935C31.4552 32.4989 31.4427 32.5045 31.4307 32.5103C31.4427 32.5045 31.4552 32.4989 31.4679 32.4935C33.6967 36.5497 36.6692 40.2997 40.3229 43.1685L40.3505 43.1901C41.3761 43.9946 42.2545 44.6836 43.4042 44.8335C44.7492 45.0097 45.3792 44.0272 45.5167 42.8272C46.1554 37.271 43.9654 31.4872 40.8454 26.9897C40.1554 25.9955 39.7308 25.348 39.5717 25.0472C35.8154 17.9447 41.8829 9.48595 49.8929 11.1359C57.0217 12.6034 59.9267 21.066 55.3142 26.6872C54.845 27.2589 54.5333 27.6585 54.3792 27.886C51.5542 32.061 49.1454 36.8672 48.5004 41.9235C48.4796 42.0868 48.4908 42.4805 48.5342 43.1047C48.6942 45.401 48.5829 49.2735 45.6254 49.8122C44.4604 50.0247 43.6867 49.391 42.8979 48.6572C39.7617 45.7335 34.8279 44.2272 30.6317 43.9272ZM31.3528 32.5533C31.2187 32.6385 31.1387 32.7552 31.1129 32.9035C30.9996 33.5551 31.0346 34.2335 31.2179 34.9385C31.2795 35.1755 31.2285 35.3904 31.1784 35.6015C31.1339 35.7889 31.0902 35.9732 31.1267 36.1672C31.135 36.2097 31.1308 36.251 31.1142 36.291C30.9304 36.7385 30.7929 37.0947 30.8654 37.6022C30.9884 38.4571 30.9963 39.3279 31.0042 40.2006C31.0104 40.8973 31.0167 41.5952 31.0817 42.2872C31.1005 42.4843 31.0724 42.6567 31.0434 42.8351C31.0362 42.879 31.029 42.9232 31.0225 42.9682C31.029 42.9232 31.0362 42.879 31.0434 42.8351C31.0725 42.6567 31.1006 42.4843 31.0817 42.2872C31.0168 41.5952 31.0105 40.8973 31.0042 40.2006C30.9963 39.3279 30.9885 38.4571 30.8654 37.6022C30.7929 37.0947 30.9304 36.7385 31.1142 36.291C31.1308 36.251 31.135 36.2097 31.1267 36.1672C31.0902 35.9732 31.134 35.7889 31.1784 35.6015C31.2285 35.3904 31.2795 35.1755 31.2179 34.9385C31.0346 34.2335 30.9996 33.5551 31.1129 32.9035C31.1387 32.7552 31.2187 32.6385 31.3528 32.5533ZM30.5779 43.8422C30.5537 43.8397 30.5333 43.8418 30.5167 43.8485C30.5334 43.8418 30.5538 43.8397 30.5779 43.8422Z" fill="#B92F41"/>
<path d="M56.4991 42.8686C58.6247 42.8686 60.3479 41.1455 60.3479 39.0199C60.3479 36.8943 58.6247 35.1711 56.4991 35.1711C54.3735 35.1711 52.6504 36.8943 52.6504 39.0199C52.6504 41.1455 54.3735 42.8686 56.4991 42.8686Z" fill="#B92F41"/>
<path d="M30.0529 65.0924C32.5596 65.0924 34.5917 63.0603 34.5917 60.5536C34.5917 58.047 32.5596 56.0149 30.0529 56.0149C27.5462 56.0149 25.5142 58.047 25.5142 60.5536C25.5142 63.0603 27.5462 65.0924 30.0529 65.0924Z" fill="#B92F41"/>
<path fill-rule="evenodd" clip-rule="evenodd" d="M57.9132 51.9225C59.6282 50.9142 61.5678 50.1083 63.732 49.505C66.3653 48.7625 69.0424 48.3354 71.7632 48.2237C72.8515 48.1787 73.5874 48.1179 73.9707 48.0412C77.782 47.2762 80.5082 43.7462 80.0907 39.84C79.3082 32.5325 69.777 30.3212 65.9357 36.6387C65.7274 36.9812 65.4607 37.5687 65.1357 38.4012C64.589 39.8029 63.9495 41.1629 63.217 42.4812C61.6128 45.2029 59.5307 47.47 56.9707 49.2825C55.7695 50.1325 54.7132 50.5837 53.322 51.1087C52.7607 51.32 52.2082 51.8287 51.9782 52.4075C50.902 55.1187 54.2307 57.0437 56.222 57.86C56.8211 58.1058 57.3816 58.4229 57.9032 58.8112C61.1282 61.2125 63.6619 64.5124 65.6782 67.9649L65.6781 67.965C66.269 68.9317 66.6173 69.5533 66.7231 69.83C67.7315 72.465 69.4906 74.2675 72.0006 75.2375C77.1456 77.225 82.8094 73.9737 83.8431 68.6637C84.8431 63.535 81.3506 58.7625 76.1956 58.095C75.1222 57.956 74.0847 58.0952 73.0557 58.2333C72.7978 58.2679 72.5404 58.3024 72.2831 58.3325C70.284 58.5675 68.2861 58.5841 66.2894 58.3825L66.2895 58.3825C63.3507 58.0775 60.4032 57.2037 57.9082 55.5812C56.7145 54.805 56.1182 53.8387 57.1832 52.565C57.4182 52.285 57.6616 52.0708 57.9132 51.9225ZM63.7909 43.0828C63.7904 43.0646 63.7852 43.0468 63.7757 43.0312C63.7852 43.0468 63.7904 43.0646 63.7909 43.0828C63.7913 43.101 63.7869 43.119 63.7782 43.135C63.7869 43.119 63.7913 43.101 63.7909 43.0828ZM63.7782 43.135C63.7762 43.1387 63.7742 43.1423 63.7724 43.1459C63.7713 43.148 63.7703 43.1501 63.7693 43.1522C63.772 43.1465 63.775 43.1408 63.7782 43.135Z" fill="#B92F41"/>
<path d="M56.839 71.1135C58.9646 71.1135 60.6877 69.3904 60.6877 67.2648C60.6877 65.1392 58.9646 63.416 56.839 63.416C54.7134 63.416 52.9902 65.1392 52.9902 67.2648C52.9902 69.3904 54.7134 71.1135 56.839 71.1135Z" fill="#B92F41"/>
<path fill-rule="evenodd" clip-rule="evenodd" d="M43.6522 86.5612C43.7205 87.3029 43.6338 88.0262 43.3922 88.7312C44.8555 89.1329 46.3013 89.1475 47.7297 88.775C52.8034 87.4525 55.4771 82.0287 53.4746 77.185C53.1592 76.4213 52.6394 75.6285 52.1307 74.8526C51.9642 74.5985 51.7988 74.3463 51.6421 74.0975C48.8122 69.6058 47.5455 64.7041 47.8422 59.3925C47.8733 58.8319 48.0296 58.2363 48.1878 57.6334C48.538 56.2994 48.8974 54.93 47.9297 53.8262C46.1147 51.7575 42.9659 53.0962 40.9722 54.2362C40.083 54.7454 39.5934 55.4533 39.5034 56.36C39.3243 58.1535 40.8615 57.673 41.9075 57.3461C41.971 57.3262 42.0327 57.3069 42.0922 57.2887C43.8984 56.7362 44.9384 58.2875 44.7934 59.895C44.5767 62.295 43.9759 64.7749 42.9909 67.3349C42.9909 67.3349 42.9908 67.3349 42.9908 67.3349C41.9008 70.1815 40.5029 72.8765 38.7971 75.4199C38.3221 76.129 38.0004 76.6782 37.8321 77.0674C35.7433 81.8999 38.3221 87.2824 43.3921 88.7311C43.6337 88.0261 43.7204 87.3028 43.6521 86.5611C43.5568 85.5277 43.5358 84.5099 43.5145 83.4786C43.5109 83.3049 43.5073 83.1307 43.5033 82.9561C43.5014 82.8941 43.5174 82.828 43.5336 82.7614C43.5493 82.6964 43.5652 82.631 43.5646 82.5686C43.5312 80.1219 43.5171 77.6757 43.5221 75.2299C43.5231 74.6926 43.518 74.155 43.513 73.6173C43.5002 72.2595 43.4873 70.9012 43.5733 69.5474C43.5841 69.384 43.5796 69.1561 43.5596 68.8636C43.5543 68.783 43.5587 68.677 43.5637 68.5595C43.577 68.2421 43.5939 67.8401 43.4328 67.6233C43.594 67.8401 43.5771 68.2422 43.5638 68.5596C43.5588 68.6772 43.5544 68.7831 43.5597 68.8637C43.5797 69.1562 43.5842 69.3841 43.5734 69.5475C43.4874 70.9013 43.5003 72.2596 43.5131 73.6174C43.5181 74.1551 43.5232 74.6928 43.5222 75.23C43.5172 77.6758 43.5313 80.1221 43.5647 82.5687C43.5653 82.6311 43.5494 82.6965 43.5337 82.7615C43.5175 82.8281 43.5015 82.8942 43.5034 82.9562C43.5074 83.1309 43.511 83.305 43.5146 83.4787C43.5359 84.51 43.5569 85.5278 43.6522 86.5612Z" fill="#B92F41"/>
</svg>
