<svg width="100" height="100" viewBox="0 0 100 100" fill="none" xmlns="http://www.w3.org/2000/svg">
<rect width="100" height="100" fill="#748235"/>
<path d="M36.2047 20.4904C35.6571 15.1756 39.3699 11.5465 44.4528 11.0011C44.5172 10.9939 44.5487 11.0232 44.5473 11.0891C44.3948 16.0045 41.5667 20.31 36.3034 20.5741C36.2433 20.577 36.2104 20.5491 36.2047 20.4904Z" fill="white"/>
<path d="M65.0914 20.3787C65.0885 20.5161 65.0184 20.5827 64.8809 20.5784C59.6435 20.383 56.8475 15.8713 56.6628 11.0912C56.66 11.0239 56.6929 10.9946 56.7616 11.0032C62.0163 11.6624 65.2395 14.8706 65.0914 20.3787Z" fill="white"/>
<path d="M28.8881 15.2348C28.8334 15.3009 28.7831 15.3616 28.7382 15.4118C25.3925 19.0989 26.0196 23.6771 29.0731 27.2439C29.1147 27.294 29.1562 27.294 29.1977 27.2439C32.4123 23.5182 33.3228 18.431 29.5628 14.6838C29.5184 14.638 29.4711 14.6352 29.421 14.6752C29.22 14.8339 29.0373 15.0546 28.8881 15.2348Z" fill="white"/>
<path d="M46.4648 27.974C44.7147 23.078 46.3338 18.2871 51.363 16.3695C51.4303 16.3438 51.4776 16.3645 51.5048 16.4318C53.5104 21.4223 50.9228 25.6355 46.583 28.0191C46.5257 28.0506 46.4863 28.0356 46.4648 27.974Z" fill="white"/>
<path d="M75.8906 19.5004C70.6102 19.0731 66.8716 22.8847 66.6461 28.0148C66.6432 28.0649 66.6668 28.0878 66.7169 28.0835C71.6323 27.6948 75.7682 24.929 75.9679 19.5863C75.9693 19.5333 75.9436 19.5047 75.8906 19.5004Z" fill="white"/>
<path d="M34.2827 24.6542C39.5288 24.6907 42.4514 29.0649 42.8036 33.8987C42.8093 33.9817 42.7706 34.0196 42.6876 34.0125C37.4093 33.5572 34.0744 30.2159 34.1174 24.8174C34.1188 24.7086 34.1739 24.6542 34.2827 24.6542Z" fill="white"/>
<path d="M62.057 24.7808C56.7809 24.6713 53.242 28.6612 53.2355 33.7827C53.2355 33.8528 53.2706 33.8836 53.3408 33.875C58.3442 33.2501 62.1064 30.1987 62.1537 24.8796C62.1537 24.8538 62.1436 24.829 62.1255 24.8105C62.1074 24.7921 62.0829 24.7814 62.057 24.7808Z" fill="white"/>
<path d="M25.5534 28.6504C29.2125 32.5135 28.3686 37.4568 25.1626 41.2083C25.1153 41.2627 25.0681 41.2627 25.0208 41.2083C21.6108 37.3451 21.4261 32.2 25.4181 28.6439C25.4639 28.6024 25.509 28.6045 25.5534 28.6504Z" fill="white"/>
<path d="M78.9053 29.3118C73.5476 29.5115 70.2363 32.6445 69.8369 37.9314C69.8312 38.013 69.8691 38.0502 69.9507 38.043C74.6771 37.6608 79.1931 34.8177 79.1888 29.5845C79.1888 29.3955 79.0943 29.3046 78.9053 29.3118Z" fill="white"/>
<path d="M87.3727 44.3414C82.554 42.3099 80.2928 37.9293 82.2297 32.8743C82.2512 32.8185 82.2898 32.8006 82.3457 32.8206C87.3061 34.5751 88.7685 39.542 87.4865 44.2877C87.4694 44.3478 87.4314 44.3657 87.3727 44.3414Z" fill="white"/>
<path d="M63.8802 32.8593C59.9161 36.4497 60.1159 41.5476 63.556 45.4494C63.5614 45.4558 63.5682 45.4609 63.5758 45.4644C63.5834 45.4679 63.5916 45.4697 63.6 45.4697C63.6084 45.4697 63.6166 45.4679 63.6242 45.4644C63.6318 45.4609 63.6386 45.4558 63.644 45.4494C66.8157 41.698 67.7842 36.6559 64.0391 32.8636C63.9876 32.8121 63.9346 32.8106 63.8802 32.8593Z" fill="white"/>
<path d="M18.1107 33.9158C17.9926 39.1877 13.6335 42.078 8.85552 42.4109C8.8372 42.4119 8.81886 42.409 8.8018 42.4023C8.78473 42.3957 8.76933 42.3855 8.75667 42.3724C8.74401 42.3593 8.73437 42.3437 8.72845 42.3266C8.72253 42.3096 8.72046 42.2914 8.72237 42.2735C9.19909 37.1283 12.5941 33.4692 17.9991 33.7956C18.075 33.7999 18.1122 33.84 18.1107 33.9158Z" fill="white"/>
<path d="M31.4675 33.8793C30.2134 39.1104 33.2606 43.2076 38.221 44.4595C38.327 44.4867 38.3849 44.4452 38.395 44.335C38.8373 39.4475 36.7565 34.8628 31.5942 33.7977C31.5255 33.7834 31.4832 33.8106 31.4675 33.8793Z" fill="white"/>
<path d="M42.7819 38.1268C42.6903 38.0437 42.6946 37.9657 42.7948 37.8927C46.9672 34.8284 51.9556 35.0045 55.2604 39.2219C55.3033 39.2763 55.2983 39.325 55.2454 39.3679C51.0687 42.8854 46.4368 41.4058 42.7819 38.1268Z" fill="white"/>
<path d="M82.4702 44.8675C78.5663 41.7259 74.4304 40.2721 70.0368 43.7852C69.8979 43.8969 69.8844 44.0214 69.996 44.1589C73.3739 48.3377 78.5083 48.0821 82.4702 45.0028C82.5275 44.9584 82.5275 44.9133 82.4702 44.8675Z" fill="white"/>
<path d="M61.0972 52.9245C56.1818 51.6833 52.9972 47.5152 54.3179 42.3293C54.3365 42.2577 54.3823 42.2298 54.4553 42.2455C59.6263 43.4051 61.7135 47.8373 61.2261 52.8343C61.2247 52.8492 61.2201 52.8636 61.2126 52.8766C61.205 52.8895 61.1948 52.9007 61.1826 52.9092C61.1703 52.9178 61.1563 52.9236 61.1416 52.9263C61.1268 52.9289 61.1117 52.9283 61.0972 52.9245Z" fill="white"/>
<path d="M38.2082 52.1085C43.0613 51.6382 47.2465 48.3269 47.0253 43.1088C47.0225 43.053 46.9938 43.0257 46.9394 43.0272C41.3841 43.0701 38.4422 46.8109 38.1158 52.0183C38.1115 52.0841 38.1423 52.1142 38.2082 52.1085Z" fill="white"/>
<path d="M26.1999 52.6926C20.9753 52.5208 18.1473 48.007 17.9647 43.2226C17.9619 43.1453 17.9984 43.1109 18.0742 43.1195C23.3375 43.7015 26.6251 47.1652 26.3567 52.5487C26.3545 52.5884 26.3369 52.6256 26.3076 52.6525C26.2783 52.6794 26.2397 52.6937 26.1999 52.6926Z" fill="white"/>
<path d="M34.4309 46.437C29.4232 48.2086 28.2035 53.0402 29.2557 57.8182C29.2857 57.9484 29.3623 57.9878 29.4854 57.9363C34.1904 55.9714 36.5997 51.4061 34.5576 46.4929C34.5332 46.4356 34.491 46.417 34.4309 46.437Z" fill="white"/>
<path d="M72.4137 60.9662C67.6659 58.9391 65.3037 54.5648 67.2643 49.5056C67.2872 49.4455 67.3294 49.4261 67.391 49.4476C72.3622 51.2128 73.8246 56.1475 72.5275 60.9104C72.5104 60.9719 72.4724 60.9905 72.4137 60.9662Z" fill="white"/>
<path d="M47.9895 49.6411C44.6611 54.2408 46.1557 58.6494 50.109 62.0681C50.1634 62.1139 50.2078 62.106 50.2422 62.0444C52.6644 57.7132 52.5227 52.6303 48.1399 49.6154C48.0812 49.5753 48.0311 49.5839 47.9895 49.6411Z" fill="white"/>
<path d="M84.5078 62.0422C79.251 61.8768 76.4594 57.363 76.2447 52.5636C76.2418 52.4734 76.2855 52.4341 76.3757 52.4455C81.5337 53.1069 85.0082 56.4762 84.641 61.9241C84.6352 62.0057 84.5909 62.0451 84.5078 62.0422Z" fill="white"/>
<path d="M23.4814 55.2737C18.3813 55.8707 14.6728 59.4203 15.2118 64.7953C15.219 64.8654 15.2576 64.8983 15.3278 64.894C20.6683 64.4882 23.3525 60.3308 23.578 55.3639C23.5809 55.2966 23.5487 55.2666 23.4814 55.2737Z" fill="white"/>
<path d="M16.8142 52.1342C13.4621 48.2444 8.4441 47.1616 4.29418 50.6197C4.24009 50.6649 4.23448 50.7154 4.27734 50.7711C7.6059 54.9672 12.5533 54.861 16.7937 52.2647C16.851 52.2294 16.8578 52.1859 16.8142 52.1342Z" fill="white"/>
<path d="M95.8438 52.0812C92.459 48.2198 87.4321 47.1794 83.3114 50.6723C83.2577 50.7179 83.2525 50.7684 83.2959 50.8238C86.6596 54.9917 91.606 54.8439 95.8243 52.212C95.8814 52.1762 95.8878 52.1326 95.8438 52.0812Z" fill="white"/>
<path d="M46.3531 100H53.2734C53.2365 95.1519 53.4216 90.3085 53.8292 85.4696C53.9813 83.6731 54.1888 82.2586 54.4522 81.2266C55.9509 75.3406 59.9342 69.549 64.0142 65.0804C64.8748 64.1398 65.7623 63.3272 66.6772 62.643C66.7046 62.6232 66.7197 62.6028 66.7225 62.5815C66.7247 62.5661 66.7208 62.5507 66.7102 62.5351C66.7035 62.5253 66.6945 62.5155 66.6833 62.5054L64.2334 60.3002C64.2127 60.2806 64.1926 60.2686 64.1736 60.2636C64.1344 60.2535 64.0986 60.2731 64.0657 60.3217C61.4547 64.2986 57.2908 68.7994 52.4312 69.7638C51.6203 69.9243 50.6618 69.9187 49.7263 69.9131C49.4724 69.9114 49.2207 69.91 48.9741 69.912C43.189 69.957 38.5526 64.7001 35.5227 60.313C35.5015 60.2826 35.4786 60.2675 35.454 60.2672C35.4333 60.2669 35.4109 60.2773 35.3874 60.2979L32.9353 62.5054C32.8956 62.5407 32.8805 62.5745 32.89 62.6072C32.8933 62.6198 32.9006 62.6324 32.9118 62.6447C32.9196 62.6536 32.9297 62.6623 32.9414 62.671C33.901 63.3753 34.7751 64.1582 35.5636 65.0202C39.6458 69.4761 43.8718 75.5916 45.2721 81.7033C45.5025 82.7138 45.691 84.1306 45.8369 85.9528C46.2088 90.6281 46.381 95.3104 46.3531 100Z" fill="white"/>
</svg>
