<svg width="100" height="100" viewBox="0 0 100 100" fill="none" xmlns="http://www.w3.org/2000/svg">
<rect width="100" height="100" fill="#28231E"/>
<path d="M40.0151 58.64C39.1117 59.46 38.8592 60.4917 39.2576 61.735C39.6026 62.815 40.3151 64.3275 41.3951 66.2725C43.6584 70.3525 45.8934 74.4483 48.1001 78.56C48.4601 79.2325 48.7176 79.9375 48.9876 80.675C49.0016 80.7154 49.0019 80.7594 48.9885 80.8001C48.975 80.8408 48.9485 80.8759 48.9132 80.8997C48.8778 80.9236 48.8357 80.9348 48.7935 80.9317C48.7513 80.9286 48.7113 80.9113 48.6801 80.8825C48.1517 80.4025 47.6309 79.8433 47.1176 79.205C40.9801 71.5825 36.1476 65.8625 32.1951 59.965C32.0134 59.695 31.7501 59.4358 31.4051 59.1875C30.3176 58.4075 29.8501 57.2225 29.1301 56.52C27.2301 54.6575 25.2826 56.37 24.0351 58.105C23.1651 59.3167 22.0734 60.2842 20.7601 61.0075C20.2226 61.3025 19.5626 62.255 19.2351 62.9475C18.5501 64.3975 17.6742 65.725 16.6076 66.93C16.5259 67.0233 16.4759 67.0092 16.4576 66.8875C16.3692 66.3442 16.3251 65.8142 16.3251 65.2975C16.3151 57.8625 16.3101 50.4275 16.3101 42.9925C16.3101 39.2325 17.6626 37.64 20.7551 35.7925C28.7901 30.9992 36.8851 26.3092 45.0401 21.7225C48.1951 19.9475 50.4851 18.6075 53.9551 20.605C63.0784 25.8533 72.1926 31.1175 81.2976 36.3975C83.6676 37.7725 84.8026 39.78 84.8076 42.525C84.8159 47.77 84.8167 53.0133 84.8101 58.255C84.8101 58.95 84.6326 60.2475 83.7176 60.31C83.6426 60.3167 83.5742 60.2975 83.5126 60.2525C82.2009 59.3142 81.3376 58.2558 80.9226 57.0775C80.3601 55.4775 79.9176 54.68 78.3576 53.845C76.5001 52.8525 74.4876 52.0425 72.7251 50.995C71.7576 50.4225 70.2651 49.08 69.0276 49.7975C68.1226 50.3208 67.4059 51.0258 66.8776 51.9125C66.2476 52.965 66.6701 54.64 67.1926 55.615C70.1126 61.0567 72.0134 64.5542 72.8951 66.1075C73.5267 67.2208 73.9676 68.2425 74.2176 69.1725C74.223 69.1927 74.2222 69.214 74.2155 69.2337C74.2087 69.2535 74.1962 69.2708 74.1796 69.2834C74.1629 69.296 74.1429 69.3034 74.1221 69.3045C74.1012 69.3057 74.0805 69.3007 74.0626 69.29C73.4326 68.9217 72.8959 68.4658 72.4526 67.9225C68.7309 63.3542 65.0251 58.7725 61.3351 54.1775C60.6767 53.3608 60.0976 52.68 59.5976 52.135C58.1251 50.525 56.7876 49.7925 55.4526 48.495C54.8351 47.895 54.3851 46.915 53.5076 46.32C52.5276 45.655 51.1101 45.755 49.9951 45.98C49.3276 46.115 48.0176 46.1 47.4976 46.5025C46.6751 47.1375 45.7126 48.555 44.5376 49.3825C43.3442 50.2242 42.6242 51.3658 42.3776 52.8075C41.9326 55.39 41.8626 56.9675 40.0151 58.64Z" fill="#63554A"/>
</svg>
