<svg width="100" height="100" viewBox="0 0 100 100" fill="none" xmlns="http://www.w3.org/2000/svg">
<rect width="100" height="100" fill="#13BA21"/>
<g clip-path="url(#clip0_84_2621)">
<path d="M54.3211 18H54.988C56.1658 18.3094 56.8561 19.0569 57.0589 20.2425C57.0667 20.2867 57.0888 20.2945 57.1252 20.2659C63.7045 14.958 68.6224 27.4302 59.98 27.9177C59.8656 27.9237 59.7578 27.9737 59.6793 28.0573C59.6009 28.1409 59.5577 28.2515 59.5588 28.3662C59.564 28.7484 59.7876 28.9356 60.2297 28.9278C69.8003 28.764 79.558 33.4011 83.3605 42.609C83.3745 42.6431 83.4004 42.6711 83.4334 42.6876C83.4664 42.7041 83.5043 42.708 83.5399 42.6987C86.5039 41.8849 88.3239 42.9535 88.9999 45.9045V46.7742C88.4266 49.4691 86.4298 50.3193 83.9611 50.5221C78.8599 50.9394 80.7047 48.2406 79.6244 45.1089C75.5723 33.3387 60.3934 30.7452 50.386 35.3784C45.3277 37.7184 41.2288 42.1332 40.8739 47.9286C40.6867 50.9394 39.2359 50.4636 36.9466 50.4324C30.8704 50.3466 31.007 41.8329 37.399 42.5388C37.529 42.5518 37.62 42.4998 37.672 42.3828C40.9207 35.1522 47.4025 30.8154 55.0972 29.3373C55.2168 29.3139 55.2727 29.2411 55.2649 29.1189L55.1362 27.3132C55.1284 27.1988 55.0855 27.1013 55.0075 27.0207C52.8261 24.7171 52.154 22.0534 52.9912 19.0296C53.129 18.5356 53.5723 18.1924 54.3211 18ZM61.189 23.4639L60.5767 22.6176C60.5503 22.582 60.5108 22.5583 60.467 22.5517C60.4231 22.5452 60.3785 22.5562 60.3427 22.5825L60.292 22.6176C60.0831 22.7691 59.8866 22.9336 59.7137 23.1015C59.5408 23.2694 59.3949 23.4375 59.2844 23.5962C59.1739 23.7549 59.1009 23.901 59.0697 24.0262C59.0385 24.1514 59.0497 24.2532 59.1025 24.3258L59.1143 24.3375C59.1668 24.4102 59.2599 24.4524 59.3883 24.4615C59.5167 24.4707 59.6779 24.4467 59.8626 24.3909C60.0473 24.3352 60.252 24.2487 60.4649 24.1365C60.6777 24.0242 60.8947 23.8885 61.1032 23.7369L61.1539 23.6979C61.1896 23.6715 61.2132 23.632 61.2198 23.5881C61.2264 23.5443 61.2153 23.4996 61.189 23.4639ZM83.8636 47.8233C88.4227 47.9559 85.4977 42.8976 83.6023 46.0566C83.5347 46.1684 83.5074 46.288 83.5204 46.4154L83.653 47.6283C83.666 47.7557 83.7362 47.8207 83.8636 47.8233ZM37.5706 45.3117C36.8244 45.0777 36.1133 45.1245 35.4373 45.4521C35.3529 45.4934 35.2813 45.557 35.2304 45.636C35.1796 45.7151 35.1513 45.8066 35.1487 45.9006C35.1175 47.1824 35.735 47.8233 37.0012 47.8233C37.0729 47.823 37.142 47.7967 37.1957 47.7494C37.2495 47.7021 37.2843 47.6369 37.2937 47.5659L37.6135 45.378C37.6145 45.3633 37.6108 45.3488 37.603 45.3368C37.5953 45.3248 37.5839 45.3159 37.5706 45.3117Z" fill="white"/>
<path d="M67.039 48.2134C68.0858 48.2134 68.9344 47.3648 68.9344 46.318C68.9344 45.2712 68.0858 44.4226 67.039 44.4226C65.9922 44.4226 65.1436 45.2712 65.1436 46.318C65.1436 47.3648 65.9922 48.2134 67.039 48.2134Z" fill="white"/>
<path d="M55.5731 48.3848C56.6242 48.3848 57.4763 47.5327 57.4763 46.4816C57.4763 45.4305 56.6242 44.5784 55.5731 44.5784C54.522 44.5784 53.6699 45.4305 53.6699 46.4816C53.6699 47.5327 54.522 48.3848 55.5731 48.3848Z" fill="white"/>
<path d="M81.1144 69.48H87.3856C87.4163 69.48 87.4468 69.4862 87.475 69.4983C87.5032 69.5104 87.5287 69.5281 87.5499 69.5504C87.571 69.5726 87.5874 69.5989 87.5981 69.6278C87.6087 69.6566 87.6134 69.6872 87.6118 69.7179L87.3193 75.5484C87.3167 75.5987 87.3035 75.6478 87.2806 75.6927C87.2577 75.7375 87.2256 75.7772 87.1863 75.8091C87.1471 75.841 87.1015 75.8645 87.0526 75.878C87.0037 75.8916 86.9524 75.8948 86.902 75.8877C83.3842 75.3651 79.8417 75.148 76.2745 75.2364C75.3697 75.2598 74.5624 74.7879 73.5211 75.0999C73.3755 75.1441 73.3027 75.0895 73.3027 74.9361V69.5853C73.3027 69.4841 73.3356 69.3855 73.3963 69.3045C75.7207 66.1585 77.8293 62.8747 79.7221 59.4531C79.7347 59.4307 79.741 59.4053 79.7404 59.3796C79.7398 59.3539 79.7324 59.3288 79.7189 59.3069C79.7054 59.285 79.6862 59.2672 79.6635 59.2552C79.6408 59.2432 79.6152 59.2375 79.5895 59.2386L73.8175 59.4921C73.7836 59.4937 73.7497 59.4884 73.7178 59.4766C73.686 59.4649 73.6568 59.4468 73.6321 59.4235C73.6073 59.4002 73.5875 59.3722 73.5738 59.3411C73.5601 59.31 73.5528 59.2765 73.5523 59.2425L73.4782 53.2716C73.4782 53.1312 73.5484 53.0584 73.6888 53.0532C74.7366 53.0142 75.7584 53.0493 76.7542 53.1585C78.2011 53.3184 79.4296 52.9284 81.0091 53.3847C81.2275 53.4471 81.4342 53.3964 81.6292 53.2326C81.6596 53.2099 81.6966 53.1975 81.7345 53.1975L87.5026 53.2677C87.5517 53.268 87.6001 53.2786 87.6449 53.2988C87.6896 53.3189 87.7298 53.3483 87.7627 53.3849C87.7957 53.4215 87.8208 53.4647 87.8365 53.5117C87.8521 53.5586 87.858 53.6084 87.8536 53.6577C87.6976 55.3308 87.8029 58.014 86.9644 59.3478C84.9052 62.6238 82.924 65.9492 81.0208 69.324C80.9636 69.428 80.9948 69.48 81.1144 69.48ZM81.0637 54.7341C79.2749 54.2817 77.4627 54.2115 75.6271 54.5235C75.5964 54.5304 75.5692 54.548 75.5502 54.5732C75.5313 54.5983 75.5219 54.6294 75.5238 54.6608C75.5257 54.6922 75.5387 54.722 75.5605 54.7447C75.5823 54.7674 75.6114 54.7816 75.6427 54.7848L81.0169 55.0539C81.0557 55.0532 81.093 55.0387 81.1221 55.0131C81.1513 54.9874 81.1703 54.9523 81.176 54.9139C81.1816 54.8755 81.1734 54.8363 81.1528 54.8034C81.1323 54.7705 81.1007 54.7459 81.0637 54.7341ZM78.6276 64.0607C78.6465 64.0721 78.6778 64.0624 78.7196 64.0322C78.7615 64.002 78.8132 63.952 78.8716 63.8849C78.9301 63.8178 78.9943 63.735 79.0605 63.6411C79.1267 63.5473 79.1936 63.4444 79.2575 63.3381C79.3213 63.2319 79.3808 63.1244 79.4326 63.0219C79.4843 62.9195 79.5273 62.8239 79.5591 62.7408C79.5909 62.6576 79.6109 62.5885 79.6178 62.5374C79.6248 62.4862 79.6187 62.4541 79.5998 62.4428C79.581 62.4314 79.5497 62.4411 79.5078 62.4712C79.466 62.5014 79.4143 62.5515 79.3558 62.6186C79.2973 62.6857 79.2332 62.7685 79.167 62.8623C79.1008 62.9561 79.0338 63.0591 78.97 63.1653C78.9061 63.2716 78.8467 63.379 78.7949 63.4815C78.7432 63.584 78.7002 63.6795 78.6684 63.7627C78.6366 63.8458 78.6166 63.9149 78.6096 63.9661C78.6026 64.0172 78.6088 64.0494 78.6276 64.0607ZM85.8411 70.8896C85.842 70.8151 85.6267 70.7411 85.2427 70.6837C84.8587 70.6264 84.3373 70.5904 83.7933 70.5838C83.2493 70.5771 82.7272 70.6003 82.3419 70.6483C81.9566 70.6962 81.7396 70.765 81.7386 70.8394C81.7377 70.9139 81.9529 70.988 82.337 71.0453C82.721 71.1027 83.2424 71.1386 83.7864 71.1453C84.3304 71.1519 84.8525 71.1287 85.2378 71.0808C85.6231 71.0328 85.8401 70.9641 85.8411 70.8896Z" fill="white"/>
<path d="M42.6565 53.3885C46.8568 53.7824 50.3395 55.3502 50.2498 60.3305C50.2446 60.5749 50.3356 60.8518 50.5228 61.1612C50.5904 61.2704 50.6268 61.3887 50.632 61.5161C50.7724 65.2263 50.7217 68.0109 50.4799 69.8699C50.2745 71.4793 50.177 72.7338 50.1874 73.6334C50.19 73.766 50.1302 73.8609 50.008 73.9181C45.5581 75.9968 37.684 77.5763 34.0336 72.8963C33.0508 71.6379 32.6153 70.1832 32.7271 68.5322C33.0157 64.2305 36.5179 61.3679 40.7689 61.0598C42.0377 60.9662 43.3104 60.9064 44.587 60.8804C44.717 60.8752 44.7833 60.8089 44.7859 60.6815C44.8717 56.7698 37.9921 59.2658 36.2566 60.0536C36.1162 60.116 36.0174 60.077 35.9602 59.9366L34.0648 55.3931C34.0076 55.2527 34.0492 55.1565 34.1896 55.1045C36.7597 54.1763 39.9148 53.135 42.6565 53.3885ZM47.2507 56.567C46.2185 55.5036 44.9627 54.89 43.4833 54.7262C43.4555 54.7224 43.4276 54.7287 43.4045 54.744C43.3814 54.7593 43.3646 54.7826 43.3571 54.8097C43.3496 54.8369 43.3519 54.8661 43.3636 54.8923C43.3753 54.9184 43.3956 54.9397 43.4209 54.9524L47.1415 56.7152C47.1612 56.7248 47.1836 56.7271 47.2048 56.7219C47.226 56.7167 47.2448 56.7042 47.2578 56.6866C47.2707 56.6689 47.2771 56.6473 47.2758 56.6255C47.2745 56.6037 47.2656 56.583 47.2507 56.567ZM45.016 66.8669C43.4599 66.4379 38.6317 66.5627 38.5966 68.9807C38.5966 69.0977 38.6304 69.203 38.698 69.2966C39.8914 70.9385 43.1908 70.0454 44.7586 69.9362C44.823 69.9309 44.8835 69.9029 44.9292 69.8572C44.9749 69.8115 45.0029 69.751 45.0082 69.6866L45.1993 67.1282C45.2097 66.9904 45.1486 66.9033 45.016 66.8669ZM46.4617 71.8595C46.4511 71.8385 46.421 71.8275 46.3732 71.8273C46.3255 71.827 46.2609 71.8375 46.1832 71.858C46.1056 71.8786 46.0164 71.9089 45.9206 71.9471C45.8249 71.9854 45.7246 72.0309 45.6254 72.081C45.5262 72.1311 45.4301 72.1848 45.3425 72.2392C45.2549 72.2935 45.1776 72.3474 45.1149 72.3977C45.0523 72.448 45.0056 72.4937 44.9774 72.5323C44.9493 72.5709 44.9403 72.6016 44.9509 72.6227C44.9615 72.6437 44.9916 72.6547 45.0394 72.6549C45.0871 72.6552 45.1517 72.6447 45.2293 72.6241C45.307 72.6036 45.3962 72.5733 45.4919 72.5351C45.5877 72.4968 45.688 72.4513 45.7872 72.4012C45.8864 72.3511 45.9825 72.2974 46.0701 72.243C46.1577 72.1887 46.235 72.1348 46.2976 72.0845C46.3603 72.0342 46.407 71.9884 46.4351 71.9498C46.4633 71.9112 46.4723 71.8805 46.4617 71.8595Z" fill="white"/>
<path d="M60.4324 81.96H59.4418C56.1736 81.648 54.0403 79.3938 52.2073 76.8393C51.9291 76.4519 52.0084 76.1594 52.4452 75.9618L56.5051 74.1366C56.6377 74.0768 56.7495 74.1041 56.8405 74.2185C58.6111 76.5 60.526 77.7051 62.1367 74.2848C62.866 72.7443 62.8153 71.1375 62.8114 69.5385C62.8114 69.4241 62.7542 69.3773 62.6398 69.3981C53.2798 71.0556 51.3064 60.67 52.8469 54.0673C52.8781 53.9295 52.9639 53.871 53.1043 53.8918L58.4395 54.7381C58.7021 54.7771 58.8087 54.9266 58.7593 55.1866C58.5175 56.471 58.3927 57.823 58.3849 59.2426C58.3823 59.5416 58.3238 59.8263 58.2094 60.0967C58.1574 60.2189 58.1535 60.341 58.1977 60.4632C58.7827 62.1285 59.6797 65.4708 61.4113 64.7805C64.27 63.6339 63.412 56.3254 63.2287 54.1687C63.2157 54.0179 63.2846 53.9347 63.4354 53.9191L69.1177 53.4277C69.2243 53.4173 69.2802 53.4654 69.2854 53.572C69.47 56.3878 69.5415 59.201 69.4999 62.0115C69.4024 68.6337 69.4687 80.8914 60.4324 81.96ZM54.2509 60.2839C54.2821 59.5221 54.2249 58.7538 54.0793 57.979C54.0507 57.823 54.0208 57.823 53.9896 57.979C53.8362 58.7174 53.8505 59.4922 54.0325 60.3034C54.1573 60.8624 54.2301 60.8558 54.2509 60.2839ZM58.1314 77.2566C58.1135 77.2541 58.0954 77.2579 58.08 77.2672C58.0646 77.2766 58.0529 77.291 58.0469 77.308C58.041 77.325 58.0411 77.3436 58.0472 77.3605C58.0534 77.3774 58.0652 77.3917 58.0807 77.4009C59.4717 78.1601 60.7379 78.0067 61.8793 76.9407C61.8973 76.925 61.9089 76.9033 61.9119 76.8796C61.9149 76.856 61.9091 76.832 61.8957 76.8123C61.8822 76.7926 61.862 76.7785 61.8389 76.7727C61.8157 76.7669 61.7912 76.7698 61.7701 76.7808C60.6131 77.3398 59.4002 77.4984 58.1314 77.2566Z" fill="white"/>
<path d="M11 54.8277V53.9814L17.1542 53.9229C17.2764 53.9203 17.3388 53.9801 17.3414 54.1023L17.3726 55.6389C17.3739 55.6624 17.3814 55.6852 17.3944 55.7048C17.4074 55.7245 17.4253 55.7402 17.4462 55.7502C17.4672 55.7603 17.4903 55.7643 17.5131 55.7619C17.5358 55.7595 17.5574 55.7506 17.5754 55.7364C21.8966 52.4721 28.9907 52.8426 29.8175 59.3478C29.9215 60.1746 30.0476 60.8506 30.1958 61.3758C30.3986 62.0934 30.5 62.6524 30.5 63.0528C30.5 66.7396 30.4948 70.6929 30.4844 74.9127C30.4844 75.2975 30.292 75.4964 29.9072 75.5094L25.157 75.6498C24.7462 75.6602 24.5434 75.4613 24.5486 75.0531C24.5616 73.4047 24.5252 71.6536 24.4394 69.7998C24.4199 69.402 24.728 68.856 24.7241 68.5752C24.6929 67.0334 24.6526 65.4916 24.6032 63.9498C24.5213 61.5357 22.5557 57.7917 19.7711 60.9429C18.2657 62.6459 17.4701 64.6804 17.3843 67.0464C17.2933 69.5684 17.1971 72.0917 17.0957 74.6163C17.0905 74.7931 16.9995 74.8828 16.8227 74.8854L11.9126 74.9634C11.7878 74.966 11.715 74.9036 11.6942 74.7762C11.3978 72.86 11.312 71.573 11.4368 70.9152C11.5252 70.455 11.5382 70.0546 11.4758 69.714C11.3536 69.0224 11.2925 68.6441 11.2925 68.5791C11.3211 64.5179 11.2483 61.0157 11.0741 58.0725C11.0403 57.4901 11.1287 57.0104 11.3393 56.6334C11.4043 56.519 11.4199 56.3981 11.3861 56.2707L11 54.8277ZM27.9455 58.9812C27.4034 57.0039 25.4768 55.4205 23.3591 55.362C23.3283 55.3609 23.2982 55.3712 23.2746 55.391C23.2509 55.4108 23.2355 55.4386 23.2311 55.4691C23.2267 55.4996 23.2338 55.5306 23.251 55.5562C23.2681 55.5818 23.2941 55.6001 23.324 55.6077C25.274 56.1147 26.6923 57.2847 27.5789 59.1177C27.597 59.1663 27.6337 59.2057 27.6808 59.2273C27.728 59.2489 27.7818 59.2508 27.8304 59.2327C27.8791 59.2146 27.9185 59.178 27.9401 59.1308C27.9616 59.0836 27.9636 59.0298 27.9455 58.9812ZM12.4829 58.2624C12.549 58.2661 12.6168 58.1905 12.6714 58.0521C12.726 57.9138 12.763 57.7241 12.7741 57.5248C12.7796 57.4261 12.7786 57.328 12.7712 57.2362C12.7638 57.1443 12.7501 57.0604 12.7308 56.9893C12.7116 56.9182 12.6872 56.8614 12.6591 56.8219C12.631 56.7824 12.5996 56.7612 12.5669 56.7594C12.5008 56.7557 12.433 56.8313 12.3784 56.9697C12.3238 57.108 12.2868 57.2977 12.2757 57.497C12.2702 57.5957 12.2712 57.6938 12.2786 57.7856C12.286 57.8775 12.2997 57.9614 12.319 58.0325C12.3382 58.1036 12.3626 58.1604 12.3907 58.1999C12.4188 58.2394 12.4502 58.2606 12.4829 58.2624Z" fill="white"/>
</g>
<defs>
<clipPath id="clip0_84_2621">
<rect width="78" height="63.9599" fill="white" transform="translate(11 18)"/>
</clipPath>
</defs>
</svg>
