<svg width="100" height="100" viewBox="0 0 100 100" fill="none" xmlns="http://www.w3.org/2000/svg">
<rect width="100" height="100" fill="#E1FFD3"/>
<path d="M69.0379 25.4546C65.145 29.9774 59.2205 32.6566 53.3764 33.2603C45.3921 34.0844 37.4016 31.3823 32.0484 25.3627C32.044 25.3577 32.0407 25.3518 32.0389 25.3453C32.037 25.3389 32.0366 25.3321 32.0377 25.3255C32.0388 25.3189 32.0414 25.3126 32.0452 25.3071C32.0491 25.3016 32.0541 25.2971 32.0599 25.2938C37.3313 22.4381 42.6061 19.5799 47.8843 16.7194C49.8397 15.6602 51.4002 15.8315 53.2563 16.8353C58.5144 19.6799 63.7704 22.5276 69.0243 25.3784C69.0605 25.3979 69.065 25.4233 69.0379 25.4546Z" fill="#37A506"/>
<path fill-rule="evenodd" clip-rule="evenodd" d="M49.7477 82.8371L49.6683 82.9322C50.9813 83.1432 51.9213 82.8528 53.1455 82.1812C61.7238 77.4753 70.302 72.7697 78.8803 68.0645C79.7438 67.591 80.3409 67.2338 80.6716 66.9929C82.8581 65.3989 83.9514 63.1529 83.9514 60.2547C83.9535 51.3352 83.9542 42.4196 83.9535 33.5078C83.9536 33.5011 83.952 33.4945 83.949 33.4886C83.9459 33.4827 83.9414 33.4775 83.9359 33.4736C83.9304 33.4698 83.924 33.4672 83.9172 33.4663C83.9105 33.4653 83.9036 33.4659 83.8971 33.4681C83.4201 33.6408 82.956 33.8299 82.5048 34.0353C74.064 37.876 66.1372 43.2124 59.8095 50.0279C55.5145 54.654 52.1156 60.167 50.6157 66.3463C50.6139 66.3527 50.6101 66.3583 50.6049 66.3623C50.6022 66.3645 50.5991 66.3661 50.5959 66.3672C50.593 66.3683 50.5899 66.3688 50.5867 66.369C50.5801 66.3692 50.5736 66.3673 50.5681 66.3636C50.5626 66.3599 50.5584 66.3546 50.5562 66.3484L49.988 64.5111L49.9878 64.511C46.1095 53.8946 37.5184 45.0434 28.0248 39.1492L28.0248 39.1492C24.7506 37.0978 21.1972 35.2553 17.3645 33.6217C17.2357 33.5667 17.1393 33.5214 17.0752 33.4859C17.0674 33.4818 17.0587 33.4797 17.0499 33.4799C17.0411 33.4801 17.0325 33.4826 17.0249 33.4871C17.0174 33.4917 17.0111 33.498 17.0067 33.5057C17.0024 33.5133 17 33.522 17 33.5308V60.0416C17 60.9072 17.0463 61.582 17.1389 62.0659C17.5331 64.1173 18.5629 65.7524 20.2286 66.971C20.5496 67.2063 21.1464 67.5635 22.0189 68.0426C24.0508 69.1589 26.0835 70.2737 28.1168 71.3872L28.1168 71.3871C34.8977 75.1146 41.6829 78.8355 48.4722 82.5498C48.7508 82.7023 49.1494 82.8298 49.6682 82.9321L49.7476 82.8371C49.7617 82.8205 49.7632 82.8087 49.7522 82.8017C49.7634 82.8087 49.7619 82.8205 49.7477 82.8371ZM49.6936 82.7895C49.6926 82.789 49.6918 82.7884 49.691 82.7876C49.6898 82.7864 49.6891 82.7848 49.6889 82.783C49.6886 82.7813 49.6889 82.7796 49.6897 82.778C49.6906 82.7765 49.6918 82.7752 49.6934 82.7745C49.7101 82.7682 49.7247 82.7598 49.7373 82.7494C49.7413 82.7462 49.7446 82.7422 49.7469 82.7376C49.7478 82.7358 49.7486 82.734 49.7492 82.7321C49.7502 82.7291 49.7508 82.7261 49.7509 82.7229C49.7512 82.7178 49.7505 82.7127 49.7486 82.7079C49.7468 82.7031 49.744 82.6987 49.7404 82.6951C49.7341 82.6881 49.7272 82.6811 49.7195 82.6742V82.6721C49.7202 78.0985 49.7199 73.5249 49.7185 68.9513C49.7185 68.8828 49.7048 68.807 49.691 68.7306C49.6804 68.6719 49.6697 68.6128 49.6652 68.5565C49.6631 68.5252 49.652 68.497 49.6318 68.4719C49.5233 68.3353 49.5891 68.0837 49.6506 67.8485C49.685 67.7169 49.7181 67.5904 49.7185 67.4922C49.7199 66.6036 49.7202 65.7147 49.7195 64.8255C49.7195 64.7879 49.7313 64.7548 49.755 64.7263L49.8595 64.5988C49.8685 64.5884 49.8675 64.5793 49.8563 64.5717L49.8562 64.5716C49.8673 64.5793 49.8684 64.5883 49.8593 64.5988L49.7549 64.7262C49.7312 64.7548 49.7194 64.7878 49.7194 64.8254C49.7201 65.7147 49.7197 66.6036 49.7183 67.4921C49.718 67.5903 49.6849 67.7168 49.6504 67.8485C49.589 68.0836 49.5232 68.3352 49.6316 68.4718C49.6518 68.4969 49.663 68.5251 49.6651 68.5564C49.6696 68.6128 49.6803 68.6718 49.6909 68.7306C49.7046 68.8069 49.7183 68.8828 49.7183 68.9513C49.7197 73.5249 49.7201 78.0984 49.7194 82.672V82.6741C49.7226 82.6771 49.7258 82.6801 49.7288 82.683C49.7328 82.687 49.7367 82.691 49.7403 82.695C49.7422 82.697 49.7439 82.6991 49.7453 82.7014C49.7466 82.7034 49.7477 82.7056 49.7485 82.7078C49.7503 82.7126 49.7511 82.7177 49.7508 82.7229C49.7505 82.728 49.7491 82.733 49.7468 82.7376C49.7444 82.7421 49.7411 82.7461 49.7371 82.7493C49.7246 82.7598 49.71 82.7681 49.6933 82.7744C49.6917 82.7752 49.6904 82.7764 49.6896 82.778C49.6888 82.7795 49.6885 82.7812 49.6887 82.783C49.6889 82.7847 49.6897 82.7863 49.6909 82.7876C49.6917 82.7884 49.6926 82.789 49.6936 82.7895ZM49.8062 64.5351C49.747 64.4919 49.7536 64.4759 49.826 64.4871L49.8259 64.487C49.7535 64.4759 49.7469 64.4919 49.8061 64.5351L49.8062 64.5351ZM27.8066 71.078C27.7894 71.075 27.7781 71.0703 27.7728 71.0639C27.7782 71.0703 27.7894 71.0749 27.8065 71.0779C27.8332 71.0828 27.8551 71.0916 27.8723 71.1042C27.8552 71.0917 27.8332 71.0829 27.8066 71.078ZM27.9674 71.2618C27.9557 71.2587 27.946 71.2539 27.9385 71.2473C27.946 71.2538 27.9556 71.2586 27.9673 71.2617C27.9903 71.2676 28.0107 71.2747 28.0284 71.2829C28.0107 71.2747 27.9904 71.2677 27.9674 71.2618Z" fill="url(#paint0_linear_84_2622)"/>
<defs>
<linearGradient id="paint0_linear_84_2622" x1="83.9795" y1="53.3097" x2="17.0261" y2="53.3097" gradientUnits="userSpaceOnUse">
<stop offset="0.465697" stop-color="#37A506"/>
<stop offset="0.849129" stop-color="#208C19"/>
</linearGradient>
</defs>
</svg>
