<svg width="100" height="100" viewBox="0 0 100 100" fill="none" xmlns="http://www.w3.org/2000/svg">
<rect width="100" height="100" fill="#EC2028"/>
<path d="M45.2268 47.0765L43.3333 38.4505C43.2907 38.2418 43.3229 38.0251 43.4241 37.8395C43.5254 37.6539 43.689 37.5115 43.8856 37.438L44.7666 37.1092C45.3803 36.8901 45.7309 37.1005 45.8186 37.7404L46.9626 46.1297C46.98 46.3425 47.0812 46.5396 47.244 46.6777C47.4068 46.8158 47.6177 46.8835 47.8304 46.8661C48.0432 46.8487 48.2403 46.7474 48.3784 46.5847C48.5165 46.4219 48.5843 46.211 48.5668 45.9982L47.9356 23.6179C47.9302 23.404 47.9684 23.1913 48.0477 22.9926C48.1271 22.7939 48.246 22.6134 48.3973 22.4622C48.5486 22.3109 48.729 22.1919 48.9277 22.1126C49.1264 22.0332 49.3391 21.9951 49.553 22.0005C50.5699 22.018 51.2098 22.6492 51.4728 23.894C51.5517 24.271 51.5824 24.6523 51.5649 25.038L50.5918 46.2612C50.5901 46.3159 50.5993 46.3703 50.619 46.4213C50.6387 46.4723 50.6684 46.5188 50.7065 46.558C50.7445 46.5973 50.79 46.6285 50.8404 46.6498C50.8907 46.6711 50.9448 46.682 50.9995 46.682C51.166 46.682 51.337 46.682 51.5123 46.682C51.7665 46.6908 51.9111 46.5681 51.9462 46.3138L53.0771 38.4768C53.0937 38.3325 53.1586 38.1982 53.2612 38.0954L53.5899 37.7667C53.7771 37.5824 54.0193 37.4641 54.2797 37.4297C54.5402 37.3952 54.8047 37.4464 55.0335 37.5757C55.2622 37.7049 55.4427 37.905 55.5476 38.1459C55.6525 38.3868 55.6761 38.6552 55.6149 38.9107C54.8873 41.9088 54.2605 44.5211 53.7345 46.7478C53.5592 47.5192 53.9143 47.7603 54.7997 47.471C54.9379 47.4261 55.0634 47.3504 55.1662 47.2499C55.2689 47.1495 55.346 47.027 55.3914 46.8924C57.7495 40.23 60.0682 33.5063 62.3474 26.7212C62.8383 25.266 63.807 25.0073 65.2535 25.9453C65.6307 26.1898 65.9075 26.5611 66.0331 26.9911C66.1587 27.4211 66.1247 27.8808 65.9372 28.2859L56.943 47.9707C56.7414 48.4177 56.886 48.6632 57.3769 48.707C57.7714 48.7421 58.1177 48.5317 58.4158 48.0759C59.8096 45.9544 61.2692 43.7848 62.7945 41.5669C62.8887 41.4248 63.0264 41.3171 63.1869 41.2598C63.3474 41.2025 63.5222 41.1988 63.685 41.2491C63.8479 41.2994 63.9901 41.4012 64.0903 41.539C64.1905 41.6769 64.2433 41.8435 64.241 42.014V43.1185C64.2409 43.3656 64.1576 43.6063 64.0043 43.8023L59.7044 49.4829C59.6395 49.5688 59.5936 49.6675 59.5696 49.7725C59.5456 49.8774 59.5442 49.9863 59.5653 50.0919C59.5864 50.1975 59.6296 50.2974 59.6921 50.3851C59.7546 50.4727 59.835 50.5462 59.9279 50.6006C60.3575 50.8548 60.6906 50.8548 60.9273 50.6006C66.2046 44.9814 71.5082 39.3885 76.8381 33.8219C76.9159 33.7423 77.0105 33.6812 77.1149 33.6427C77.2193 33.6043 77.3309 33.5896 77.4417 33.5996C77.5525 33.6097 77.6596 33.6443 77.7554 33.7009C77.8511 33.7576 77.9331 33.8348 77.9953 33.9271L79.2182 35.7285C79.5601 36.2282 79.5075 36.6797 79.0604 37.0829C73.748 41.7992 68.3699 46.4234 62.926 50.9556C62.3124 51.464 61.9442 52.0251 61.8215 52.6387C61.8 52.7423 61.8095 52.8498 61.8488 52.948C61.888 53.0462 61.9553 53.1307 62.0421 53.191C62.129 53.2512 62.2317 53.2846 62.3375 53.287C62.4432 53.2893 62.5472 53.2605 62.6367 53.2041C64.802 51.8366 66.8577 50.3157 68.8038 48.6413C69.0668 48.4134 69.3429 48.2819 69.6322 48.2468C70.0968 48.1854 70.4168 48.2205 70.5921 48.352C70.7591 48.474 70.8901 48.6372 70.9735 48.8274C71.057 49.0176 71.0905 49.229 71.071 49.443C71.0516 49.6571 70.9798 49.8673 70.8619 50.0553C70.7441 50.2433 70.5837 50.4035 70.3949 50.5217L63.8333 54.598C63.6707 54.7096 63.5549 54.8772 63.5081 55.0687C63.4612 55.2603 63.4866 55.4624 63.5793 55.6364C63.672 55.8105 63.8256 55.9443 64.0107 56.0123C64.1958 56.0803 64.3995 56.0777 64.5828 56.005L84.6883 46.7346C84.9145 46.6306 85.1685 46.6 85.4155 46.6471C85.6626 46.6941 85.8908 46.8165 86.069 46.9976C86.9281 47.8655 87.2174 48.6851 86.9369 49.4566C86.744 50.0088 86.1742 50.434 85.2275 50.7321C78.4161 52.9236 71.7537 55.1327 65.2403 57.3594C65.0415 57.4152 64.873 57.5476 64.7719 57.7277C64.6708 57.9077 64.6454 58.1205 64.7012 58.3193C64.757 58.5181 64.8895 58.6865 65.0695 58.7876C65.2495 58.8888 65.4623 58.9142 65.6611 58.8584L73.6428 57.149C73.7821 57.1208 73.9259 57.1248 74.0635 57.1606C74.201 57.1965 74.3285 57.2632 74.4362 57.3558C74.544 57.4484 74.6293 57.5643 74.6855 57.6948C74.7417 57.8253 74.7673 57.967 74.7605 58.1089L74.7211 58.8453C74.6948 59.3888 74.4099 59.6824 73.8664 59.7263C71.4469 59.9279 69.0361 60.1076 66.6342 60.2654C65.9504 60.3092 65.5997 60.6555 65.5822 61.3042C65.5803 61.3887 65.5958 61.4727 65.6277 61.551C65.6596 61.6293 65.7072 61.7003 65.7676 61.7594C65.828 61.8186 65.8999 61.8647 65.9788 61.895C66.0578 61.9253 66.142 61.939 66.2265 61.9354C73.599 61.5847 80.9583 61.2341 88.3044 60.8834C89.5536 60.8308 90.4741 61.8039 90.1322 63.0662C90.0566 63.3381 89.893 63.5773 89.6669 63.7462C89.4409 63.9151 89.1652 64.0043 88.883 63.9998L9.73649 62.6323C9.63806 62.6306 9.54093 62.6095 9.45064 62.5702C9.36036 62.531 9.27869 62.4743 9.21031 62.4035C9.14193 62.3327 9.08818 62.2491 9.05211 62.1575C9.01605 62.0659 8.99838 61.9681 9.00012 61.8696L9.03956 59.6342C9.04101 59.5616 9.05749 59.4901 9.08795 59.4241C9.11841 59.3582 9.1622 59.2993 9.21655 59.2511C9.27091 59.2029 9.33466 59.1665 9.40377 59.1442C9.47289 59.1219 9.54588 59.1141 9.61814 59.1214L32.1037 61.4094C32.232 61.4184 32.3593 61.3811 32.4626 61.3045C32.5658 61.2278 32.6383 61.1168 32.6669 60.9913C32.6954 60.8659 32.6782 60.7345 32.6184 60.6206C32.5585 60.5068 32.4599 60.4181 32.3404 60.3706C30.0173 59.5466 27.554 58.9768 24.9504 58.6612C24.5208 58.6086 24.2097 58.4858 24.0168 58.293C23.71 57.9774 23.6398 57.6092 23.8064 57.1884C23.9086 56.9259 24.1027 56.7103 24.3508 56.5838C24.5989 56.4573 24.883 56.4291 25.1476 56.5047L33.3266 58.7795C33.7562 58.8935 33.8876 58.7444 33.7211 58.3324C33.3792 57.4733 32.8839 56.9298 32.2352 56.7019C25.5728 54.335 18.9586 51.8191 12.3927 49.1541C12.2719 49.1031 12.1635 49.0265 12.0754 48.9298C11.9872 48.833 11.9213 48.7184 11.8824 48.5942C11.8435 48.47 11.8325 48.3391 11.8503 48.2109C11.868 48.0827 11.914 47.9603 11.985 47.8523L13.4578 45.6038C13.7558 45.1392 14.1503 45.034 14.6412 45.2882L34.4706 55.479C34.8388 55.6631 35.0974 55.5623 35.2464 55.1766C35.448 54.6681 35.3253 54.278 34.8782 54.0063C32.4675 52.5072 30.1094 50.9161 27.8038 49.233C27.6377 49.1119 27.5191 48.9365 27.4687 48.7372C27.4183 48.5378 27.4391 48.3272 27.5277 48.1416C27.7469 47.6682 28.0668 47.3965 28.4876 47.3263C28.7857 47.2825 29.1144 47.3965 29.4738 47.6682C31.5164 49.2023 33.4713 50.8372 35.3385 52.573C35.4677 52.6937 35.618 52.7874 35.7807 52.8484C35.9433 52.9094 36.1149 52.9365 36.2852 52.928C36.4255 52.928 36.5657 52.928 36.706 52.928C36.7894 52.9317 36.8716 52.91 36.942 52.8657C37.0124 52.8214 37.068 52.7565 37.1018 52.6791C37.1356 52.6017 37.146 52.5154 37.1317 52.431C37.1174 52.3466 37.0791 52.2679 37.0216 52.2048L20.9924 35.4392C20.6593 35.0974 20.6549 34.7511 20.9793 34.4004L22.1364 33.1644C22.2234 33.0684 22.33 32.9921 22.449 32.9407C22.568 32.8893 22.6966 32.864 22.8262 32.8665C22.9557 32.869 23.0833 32.8992 23.2002 32.9551C23.3171 33.0111 23.4207 33.0914 23.504 33.1907C28.1501 38.7398 32.8094 44.2581 37.4818 49.7458C37.9903 50.342 38.4987 50.6488 39.0072 50.6663C39.7786 50.6838 39.9408 50.3814 39.4937 49.759L34.9177 43.4604C34.7455 43.2229 34.6642 42.9311 34.6883 42.6372C34.7124 42.3434 34.8403 42.0665 35.0492 41.8562L35.3911 41.5143C35.4803 41.4234 35.589 41.3539 35.709 41.3111C35.8289 41.2684 35.9571 41.2534 36.0837 41.2673C36.2103 41.2812 36.3321 41.3237 36.4399 41.3915C36.5477 41.4594 36.6387 41.5508 36.706 41.6589L41.0322 48.5229C41.1154 48.6377 41.237 48.7187 41.375 48.7514C41.5129 48.784 41.6579 48.766 41.7837 48.7007C41.9095 48.6354 42.0077 48.5272 42.0604 48.3956C42.1132 48.264 42.1169 48.1179 42.071 47.9838L33.5107 27.0236C33.2828 26.4713 33.4362 26.0637 33.9709 25.8007L34.9177 25.3142C35.4963 25.0249 35.8995 25.1827 36.1274 25.7875C38.6784 32.5201 41.0979 39.2964 43.3859 46.1166C43.6226 46.8354 44.0522 47.3132 44.6746 47.5499C45.1567 47.734 45.3408 47.5762 45.2268 47.0765Z" fill="white"/>
<path d="M46.8182 56.6101L45.9372 60.2524C45.8832 60.4668 45.7632 60.6592 45.5935 60.8029C45.4239 60.9466 45.2131 61.0346 44.9904 61.0546L43.5439 61.1598C43.447 61.1673 43.3494 61.1507 43.2605 61.1117C43.1715 61.0726 43.0939 61.0122 43.0349 60.9361C42.9759 60.8601 42.9374 60.7708 42.9229 60.6766C42.9085 60.5824 42.9185 60.4862 42.9522 60.3971L45.8583 52.5337C46.0201 52.1098 46.3231 51.7546 46.7162 51.528C47.1094 51.3015 47.5687 51.2174 48.0166 51.29C48.4645 51.3626 48.8737 51.5874 49.1752 51.9266C49.4766 52.2657 49.652 52.6984 49.6716 53.1517C49.7067 54.1511 49.9214 55.0847 50.3159 55.9526C50.3699 56.07 50.458 56.1684 50.5687 56.2351C50.6794 56.3018 50.8076 56.3336 50.9366 56.3265C51.0656 56.3195 51.1895 56.2737 51.2922 56.1953C51.3949 56.1169 51.4717 56.0094 51.5125 55.8868L52.6302 52.468C52.7617 52.0647 53.0247 51.7754 53.4192 51.6001L54.195 51.2714C54.3671 51.1983 54.557 51.1778 54.7407 51.2125C54.9244 51.2472 55.0938 51.3355 55.2274 51.4663C55.361 51.5971 55.4529 51.7645 55.4915 51.9474C55.5301 52.1304 55.5136 52.3207 55.4442 52.4943L52.3672 60.1341C52.2146 60.5034 51.9484 60.8153 51.6072 61.0244C51.266 61.2335 50.8676 61.3288 50.4701 61.2965C50.0726 61.2643 49.6967 61.1061 49.397 60.845C49.0973 60.5839 48.8894 60.2335 48.8037 59.8448L48.0674 56.6232C48.0336 56.4838 47.9544 56.3597 47.8422 56.2705C47.73 56.1812 47.5913 56.1319 47.4479 56.1304C47.3045 56.1289 47.1647 56.1752 47.0507 56.2621C46.9366 56.349 46.8548 56.4714 46.8182 56.6101Z" fill="#0A9AED"/>
</svg>
