<svg width="100" height="100" viewBox="0 0 100 100" fill="none" xmlns="http://www.w3.org/2000/svg">
<rect width="100" height="100" fill="#13B8E1"/>
<g clip-path="url(#clip0_84_2624)">
<path d="M5 40H13.3848L27.1001 51.8222C27.1045 51.8259 27.1098 51.8282 27.1154 51.829C27.1211 51.8298 27.1268 51.8289 27.132 51.8265C27.1372 51.8241 27.1416 51.8202 27.1446 51.8154C27.1477 51.8106 27.1493 51.805 27.1493 51.7993V40H33.9143V58.8974C33.9143 58.9261 33.8999 58.9404 33.8712 58.9404H25.6956C25.6661 58.9404 25.6378 58.9301 25.6156 58.9114L11.6322 47.0154C11.6286 47.0124 11.6242 47.0105 11.6195 47.0099C11.6148 47.0093 11.61 47.01 11.6058 47.0121C11.6015 47.0141 11.5979 47.0173 11.5955 47.0214C11.593 47.0254 11.5917 47.03 11.5918 47.0348V58.8763C11.5918 58.9114 11.5742 58.9296 11.5391 58.9308C10.3203 58.9536 9.36582 58.9539 8.67559 58.9316C6.72266 58.8675 5.13184 57.4999 5 55.5065V40Z" fill="white"/>
<path d="M35.3232 40H60.6516L60.6533 45.3438C60.6533 45.3542 60.6492 45.3643 60.6417 45.3717C60.6343 45.3791 60.6243 45.3833 60.6138 45.3833H42.2437C42.2321 45.3833 42.2209 45.3879 42.2127 45.3962C42.2044 45.4044 42.1998 45.4156 42.1998 45.4272V46.7131C42.1998 46.7494 42.2183 46.7676 42.2552 46.7676H60.6129C60.6245 46.7676 60.6357 46.7722 60.644 46.7804C60.6522 46.7887 60.6568 46.7999 60.6568 46.8115V51.9092C60.6568 51.9208 60.6522 51.932 60.644 51.9403C60.6357 51.9485 60.6245 51.9531 60.6129 51.9531H42.2657C42.2482 51.9531 42.2315 51.9601 42.2191 51.9724C42.2067 51.9848 42.1998 52.0016 42.1998 52.019V53.6011C42.1998 53.645 42.2218 53.667 42.2657 53.667H60.6129C60.6422 53.667 60.6568 53.6816 60.6568 53.7109V58.8956C60.6568 58.9073 60.6523 58.9184 60.6442 58.9267C60.6361 58.9349 60.6252 58.9396 60.6138 58.9396L35.3505 58.9431C35.3323 58.9431 35.3232 58.934 35.3232 58.9158V40Z" fill="white"/>
<path d="M62.0464 40H87.5127C89.4841 40.1046 90.9598 41.2375 91.1417 43.2924C91.1909 43.8549 91.1982 44.5354 91.1637 45.3341C91.1625 45.3669 91.1452 45.3833 91.1118 45.3833H80.1466C80.1349 45.3833 80.1237 45.3879 80.1155 45.3962C80.1073 45.4044 80.1026 45.4156 80.1026 45.4272V58.8965C80.1026 58.9081 80.098 58.9193 80.0898 58.9276C80.0815 58.9358 80.0703 58.9404 80.0587 58.9404H72.9835C72.966 58.9404 72.9492 58.9335 72.9369 58.9211C72.9245 58.9088 72.9176 58.892 72.9176 58.8745V45.4272C72.9176 45.3979 72.9029 45.3833 72.8736 45.3833H62.0859C62.0743 45.3833 62.0631 45.3787 62.0549 45.3704C62.0466 45.3622 62.042 45.351 62.042 45.3394L62.0464 40Z" fill="white"/>
<path d="M91.1107 59.3361H90.7969C89.4838 59.2177 88.471 58.6696 87.7585 57.6916C86.3505 55.7598 86.9429 52.9816 89.0813 51.8408C92.4906 50.0214 96.2382 53.632 94.5367 57.1001C93.8804 58.4361 92.7384 59.1814 91.1107 59.3361Z" fill="white"/>
</g>
<defs>
<clipPath id="clip0_84_2624">
<rect width="90" height="19.3359" fill="white" transform="translate(5 40)"/>
</clipPath>
</defs>
</svg>
