<svg width="100" height="100" viewBox="0 0 100 100" fill="none" xmlns="http://www.w3.org/2000/svg">
<rect width="100" height="100" fill="#595C62"/>
<path d="M15.0616 58V40.8203H18.4366L25.4678 52.293V40.8203H28.6905V58H25.21L18.2842 46.7969V58H15.0616ZM32.7302 58V40.8203H45.4684V43.7266H36.1989V47.5352H44.8239V50.4297H36.1989V55.1055H45.7966V58H32.7302ZM51.5355 58L47.4339 40.8203H50.9847L53.5745 52.6211L56.7152 40.8203H60.8402L63.8519 52.8203L66.4886 40.8203H69.9808L65.8089 58H62.1292L58.7073 45.1562L55.2972 58H51.5355ZM72.1689 58V40.8203H75.6377V48.4492L82.6455 40.8203H87.3095L80.8408 47.5117L87.6611 58H83.1728L78.4502 49.9375L75.6377 52.8086V58H72.1689Z" fill="#F8F8F8"/>
</svg>
