<svg width="100" height="100" viewBox="0 0 100 100" fill="none" xmlns="http://www.w3.org/2000/svg">
<rect width="100" height="100" fill="#DAF3FF"/>
<path fill-rule="evenodd" clip-rule="evenodd" d="M69.3125 36.6875C65.6881 36.6875 62.75 39.6256 62.75 43.25V57.125C62.75 60.7494 65.6881 63.6875 69.3125 63.6875H89.9375V57.3125H68.75V42.875H89.9375V36.6875H69.3125Z" fill="#123F6F"/>
<path fill-rule="evenodd" clip-rule="evenodd" d="M38.0937 43.1562C38.0937 39.5319 35.1556 36.5937 31.5312 36.5937L11.0938 36.5937L11.0937 63.7812L17.4687 63.7812L17.4687 42.5937L31.9063 42.5938L31.9062 63.7812L38.0937 63.7812L38.0937 43.1562Z" fill="#123F6F"/>
<path fill-rule="evenodd" clip-rule="evenodd" d="M42.875 68.1875H11L15.3125 74.1875H42.4062C45.9271 74.1875 48.7812 71.3333 48.7812 67.8125V51.7812H60.3121C61.3355 53.6262 63.3032 54.875 65.5625 54.875C68.8762 54.875 71.5625 52.1887 71.5625 48.875C71.5625 45.5613 68.8762 42.875 65.5625 42.875C63.3806 42.875 61.4707 44.0397 60.4206 45.7812H48.7812V32H89.75L85.5312 26H49.25C45.7292 26 42.875 28.8542 42.875 32.375V45.7812H40.1419C39.0918 44.0397 37.1819 42.875 35 42.875C31.6863 42.875 29 45.5613 29 48.875C29 52.1887 31.6863 54.875 35 54.875C37.2593 54.875 39.227 53.6262 40.2504 51.7812H42.875V68.1875Z" fill="url(#paint0_linear_85_773)"/>
<circle cx="35" cy="48.875" r="3.75" fill="#FEFEFC"/>
<circle cx="65.5625" cy="48.875" r="3.75" fill="#FEFEFC"/>
<path d="M54 74.32V70H54.714V74.32H54Z" fill="#0F4375"/>
<path d="M55.2712 74.32V70H56.0932L58.8652 73.3V70H59.5912V74.32H58.7692L55.9912 71.014V74.32H55.2712Z" fill="#0F4375"/>
<path d="M60.2154 74.32V70H63.7254C63.8734 70 64.0074 70.036 64.1274 70.108C64.2514 70.18 64.3494 70.278 64.4214 70.402C64.4974 70.526 64.5354 70.662 64.5354 70.81V73.51C64.5354 73.658 64.4974 73.794 64.4214 73.918C64.3494 74.042 64.2514 74.14 64.1274 74.212C64.0074 74.284 63.8734 74.32 63.7254 74.32H60.2154ZM61.0434 73.594H63.7014C63.7294 73.594 63.7534 73.584 63.7734 73.564C63.7974 73.544 63.8094 73.518 63.8094 73.486V70.834C63.8094 70.802 63.7974 70.776 63.7734 70.756C63.7534 70.736 63.7294 70.726 63.7014 70.726H61.0434C61.0114 70.726 60.9834 70.736 60.9594 70.756C60.9394 70.776 60.9294 70.802 60.9294 70.834V73.486C60.9294 73.518 60.9394 73.544 60.9594 73.564C60.9834 73.584 61.0114 73.594 61.0434 73.594Z" fill="#0F4375"/>
<path d="M65.9453 74.32C65.7973 74.32 65.6613 74.284 65.5373 74.212C65.4133 74.14 65.3153 74.042 65.2433 73.918C65.1713 73.794 65.1353 73.658 65.1353 73.51V70.81C65.1353 70.662 65.1713 70.526 65.2433 70.402C65.3153 70.278 65.4133 70.18 65.5373 70.108C65.6613 70.036 65.7973 70 65.9453 70H68.6454C68.7934 70 68.9274 70.036 69.0474 70.108C69.1714 70.18 69.2694 70.278 69.3414 70.402C69.4174 70.526 69.4554 70.662 69.4554 70.81V73.51C69.4554 73.658 69.4174 73.794 69.3414 73.918C69.2694 74.042 69.1714 74.14 69.0474 74.212C68.9274 74.284 68.7934 74.32 68.6454 74.32H65.9453ZM65.9633 73.594H68.6214C68.6494 73.594 68.6734 73.584 68.6934 73.564C68.7174 73.544 68.7294 73.518 68.7294 73.486V70.834C68.7294 70.802 68.7174 70.776 68.6934 70.756C68.6734 70.736 68.6494 70.726 68.6214 70.726H65.9633C65.9353 70.726 65.9093 70.736 65.8853 70.756C65.8653 70.776 65.8553 70.802 65.8553 70.834V73.486C65.8553 73.518 65.8653 73.544 65.8853 73.564C65.9093 73.584 65.9353 73.594 65.9633 73.594Z" fill="#0F4375"/>
<path d="M70.0561 74.32V70H70.8781L73.6501 73.3V70H74.3761V74.32H73.5541L70.7761 71.014V74.32H70.0561Z" fill="#0F4375"/>
<path d="M75.0003 74.32V70H78.9663V70.726H75.7263V71.8H78.3363V72.52H75.7263V73.594H78.9663V74.32H75.0003Z" fill="#0F4375"/>
<path d="M80.3081 74.32C80.1601 74.32 80.0241 74.284 79.9001 74.212C79.7801 74.14 79.6841 74.042 79.6121 73.918C79.5401 73.794 79.5041 73.658 79.5041 73.51V73.222H80.2241V73.486C80.2241 73.518 80.2341 73.544 80.2541 73.564C80.2741 73.584 80.3001 73.594 80.3321 73.594H82.9841C83.0161 73.594 83.0421 73.584 83.0621 73.564C83.0861 73.544 83.0981 73.518 83.0981 73.486V72.628C83.0981 72.6 83.0861 72.576 83.0621 72.556C83.0421 72.532 83.0161 72.52 82.9841 72.52H80.3081C80.1601 72.52 80.0241 72.484 79.9001 72.412C79.7801 72.34 79.6841 72.244 79.6121 72.124C79.5401 72 79.5041 71.864 79.5041 71.716V70.81C79.5041 70.662 79.5401 70.526 79.6121 70.402C79.6841 70.278 79.7801 70.18 79.9001 70.108C80.0241 70.036 80.1601 70 80.3081 70H83.0141C83.1621 70 83.2961 70.036 83.4161 70.108C83.5401 70.18 83.6381 70.278 83.7101 70.402C83.7861 70.526 83.8241 70.662 83.8241 70.81V71.098H83.0981V70.834C83.0981 70.802 83.0861 70.776 83.0621 70.756C83.0421 70.736 83.0161 70.726 82.9841 70.726H80.3321C80.3001 70.726 80.2741 70.736 80.2541 70.756C80.2341 70.776 80.2241 70.802 80.2241 70.834V71.692C80.2241 71.72 80.2341 71.746 80.2541 71.77C80.2741 71.79 80.3001 71.8 80.3321 71.8H83.0141C83.1621 71.8 83.2961 71.836 83.4161 71.908C83.5401 71.98 83.6381 72.078 83.7101 72.202C83.7861 72.322 83.8241 72.456 83.8241 72.604V73.51C83.8241 73.658 83.7861 73.794 83.7101 73.918C83.6381 74.042 83.5401 74.14 83.4161 74.212C83.2961 74.284 83.1621 74.32 83.0141 74.32H80.3081Z" fill="#0F4375"/>
<path d="M84.3653 74.32V70H85.0793V74.32H84.3653Z" fill="#0F4375"/>
<path d="M85.6485 74.32V70.81C85.6485 70.662 85.6845 70.526 85.7565 70.402C85.8285 70.278 85.9265 70.18 86.0505 70.108C86.1745 70.036 86.3105 70 86.4585 70H89.1585C89.3065 70 89.4405 70.036 89.5605 70.108C89.6845 70.18 89.7825 70.278 89.8545 70.402C89.9305 70.526 89.9685 70.662 89.9685 70.81V74.32H89.2425V72.838H86.3685V74.32H85.6485ZM86.3685 72.118H89.2425V70.834C89.2425 70.802 89.2305 70.776 89.2065 70.756C89.1865 70.736 89.1625 70.726 89.1345 70.726H86.4765C86.4485 70.726 86.4225 70.736 86.3985 70.756C86.3785 70.776 86.3685 70.802 86.3685 70.834V72.118Z" fill="#0F4375"/>
<defs>
<linearGradient id="paint0_linear_85_773" x1="50.375" y1="26" x2="50.375" y2="74.1875" gradientUnits="userSpaceOnUse">
<stop offset="0.180464" stop-color="#123F6F"/>
<stop offset="0.345428" stop-color="#0C578B"/>
<stop offset="0.482544" stop-color="#008BC5"/>
<stop offset="0.65941" stop-color="#0E5082"/>
<stop offset="0.795595" stop-color="#123F6F"/>
</linearGradient>
</defs>
</svg>
