<svg width="100" height="100" viewBox="0 0 100 100" fill="none" xmlns="http://www.w3.org/2000/svg">
<rect width="100" height="100" fill="#006FB4"/>
<path d="M18.4634 78.7749L23.6694 78.7074C23.7063 78.7074 23.7417 78.7221 23.7678 78.7482C23.7939 78.7743 23.8086 78.8097 23.8086 78.8467V82.8334C23.8086 82.8517 23.805 82.8698 23.798 82.8867C23.791 82.9035 23.7807 82.9189 23.7678 82.9318C23.7549 82.9447 23.7395 82.955 23.7227 82.962C23.7058 82.969 23.6877 82.9726 23.6694 82.9726H14.1392C14.1209 82.9726 14.1028 82.969 14.0859 82.962C14.0691 82.955 14.0537 82.9447 14.0408 82.9318C14.0278 82.9189 14.0176 82.9035 14.0106 82.8867C14.0036 82.8698 14 82.8517 14 82.8334V16.1392C14 16.1023 14.0147 16.0669 14.0408 16.0408C14.0669 16.0147 14.1023 16 14.1392 16H85.4614C85.4983 16 85.5337 16.0147 85.5599 16.0408C85.586 16.0669 85.6006 16.1023 85.6006 16.1392L85.512 53.5131C85.512 53.55 85.4974 53.5854 85.4713 53.6115C85.4451 53.6376 85.4097 53.6523 85.3728 53.6523H81.538C81.501 53.6523 81.4656 53.6376 81.4395 53.6115C81.4134 53.5854 81.3988 53.55 81.3988 53.5131L81.2637 20.4634C81.2637 20.4265 81.2491 20.3911 81.223 20.365C81.1969 20.3389 81.1615 20.3242 81.1245 20.3242H18.4634C18.4265 20.3242 18.3911 20.3389 18.365 20.365C18.3389 20.3911 18.3242 20.4265 18.3242 20.4634V78.6357C18.3242 78.6726 18.3389 78.7081 18.365 78.7342C18.3911 78.7603 18.4265 78.7749 18.4634 78.7749Z" fill="white"/>
<path d="M30.9002 66.9159C32.2502 67.2225 33.4778 66.8104 34.5831 65.6798C34.6084 65.6531 34.6388 65.6319 34.6725 65.6174C34.7062 65.6028 34.7426 65.5953 34.7793 65.5953C34.816 65.5953 34.8524 65.6028 34.8861 65.6174C34.9198 65.6319 34.9502 65.6531 34.9755 65.6798L35.9669 66.7219C35.99 66.7468 36.0081 66.776 36.02 66.8078C36.0319 66.8397 36.0374 66.8734 36.0363 66.9072C36.0351 66.9409 36.0272 66.974 36.0132 67.0044C35.9991 67.0349 35.979 67.0622 35.9542 67.0847C34.1739 68.7412 32.1939 69.2601 30.0142 68.6414C24.5636 67.0973 25.0909 59.2336 30.5669 58.1789C32.6369 57.7795 34.4608 58.3786 36.0386 59.9761C36.1624 60.097 36.1595 60.2151 36.0302 60.3305L35.0683 61.1869C34.953 61.2909 34.825 61.3106 34.6844 61.2459C34.3581 61.094 34.0459 60.9197 33.7478 60.7228C28.7866 57.3984 25.6858 65.7347 30.9002 66.9159Z" fill="white"/>
<path d="M84.293 65.7686L85.2338 66.7262C85.3294 66.8247 85.3294 66.9217 85.2338 67.0173C81.3441 70.9112 74.8978 68.38 75.5222 62.7817C76.0791 57.8036 82.1077 56.7278 85.3434 59.9847C85.3652 60.0062 85.3821 60.032 85.3933 60.0606C85.4045 60.0891 85.4096 60.1198 85.4084 60.1506C85.4073 60.1814 85.3998 60.2118 85.3864 60.2399C85.373 60.2679 85.3541 60.2931 85.3308 60.3137L84.2424 61.2672C84.158 61.3403 84.068 61.3459 83.9724 61.284C75.653 55.9473 75.6192 69.6372 82.6519 66.587C83.0695 66.4098 83.4281 65.9668 83.8795 65.7095C84.0314 65.6251 84.1692 65.6448 84.293 65.7686Z" fill="white"/>
<path d="M39.1269 62.1953H42.3627C42.3973 62.1953 42.4306 62.1815 42.4551 62.157C42.4797 62.1324 42.4934 62.0992 42.4934 62.0645L42.4428 58.525C42.4422 58.5071 42.4453 58.4893 42.4519 58.4726C42.4585 58.456 42.4684 58.4409 42.481 58.4282C42.4937 58.4155 42.5088 58.4056 42.5255 58.399C42.5421 58.3925 42.5599 58.3894 42.5778 58.39L44.3497 58.4026C44.3669 58.4026 44.3839 58.406 44.3997 58.4126C44.4156 58.4191 44.43 58.4288 44.4422 58.4409C44.4543 58.4531 44.4639 58.4675 44.4705 58.4834C44.4771 58.4992 44.4805 58.5162 44.4805 58.5334V68.4939C44.4805 68.511 44.4771 68.528 44.4705 68.5439C44.4639 68.5598 44.4543 68.5742 44.4422 68.5863C44.43 68.5985 44.4156 68.6081 44.3997 68.6147C44.3839 68.6213 44.3669 68.6246 44.3497 68.6246L42.5061 68.6373C42.4886 68.6373 42.4712 68.6338 42.4551 68.627C42.4389 68.6201 42.4243 68.6101 42.4121 68.5975C42.3999 68.5849 42.3903 68.57 42.384 68.5536C42.3777 68.5373 42.3747 68.5198 42.3753 68.5023L42.5145 64.2287C42.5151 64.2112 42.5121 64.1937 42.5058 64.1774C42.4995 64.161 42.49 64.1461 42.4778 64.1335C42.4655 64.1209 42.4509 64.1109 42.4348 64.1041C42.4186 64.0972 42.4013 64.0937 42.3837 64.0937H39.1269C39.0922 64.0937 39.0589 64.1075 39.0344 64.132C39.0099 64.1565 38.9961 64.1898 38.9961 64.2245V68.4981C38.9961 68.5328 38.9823 68.566 38.9578 68.5906C38.9333 68.6151 38.9 68.6289 38.8653 68.6289H37.123C37.0883 68.6289 37.055 68.6151 37.0305 68.5906C37.006 68.566 36.9922 68.5328 36.9922 68.4981V58.5292C36.9922 58.4945 37.006 58.4612 37.0305 58.4367C37.055 58.4122 37.0883 58.3984 37.123 58.3984H38.8653C38.9 58.3984 38.9333 58.4122 38.9578 58.4367C38.9823 58.4612 38.9961 58.4945 38.9961 58.5292V62.0645C38.9961 62.0992 39.0099 62.1324 39.0344 62.157C39.0589 62.1815 39.0922 62.1953 39.1269 62.1953Z" fill="white"/>
<path d="M69.3711 64.6928V58.6094C69.3711 58.4687 69.4414 58.3984 69.582 58.3984H71.1641C71.3047 58.3984 71.375 58.4687 71.375 58.6094V68.3547C71.375 68.5234 71.2906 68.6106 71.1219 68.6162L69.6706 68.6626C69.5497 68.6655 69.4569 68.6162 69.3922 68.515L65.2578 62.1742C65.2447 62.1528 65.2248 62.1363 65.2013 62.1274C65.1779 62.1184 65.1521 62.1175 65.128 62.1247C65.1039 62.1319 65.0829 62.1469 65.0682 62.1673C65.0536 62.1877 65.0461 62.2124 65.0469 62.2375V68.418C65.0469 68.5586 64.9766 68.6289 64.8359 68.6289H63.2539C63.1133 68.6289 63.043 68.5586 63.043 68.418V58.66C63.043 58.4856 63.1316 58.3984 63.3088 58.3984H64.7558C64.933 58.3984 65.0694 58.473 65.165 58.622L69.1813 64.7477C69.3078 64.9389 69.3711 64.9206 69.3711 64.6928Z" fill="white"/>
<path d="M74.5345 58.3943H72.7542C72.6936 58.3943 72.6445 58.4434 72.6445 58.504V68.5361C72.6445 68.5967 72.6936 68.6458 72.7542 68.6458H74.5345C74.5951 68.6458 74.6442 68.5967 74.6442 68.5361V58.504C74.6442 58.4434 74.5951 58.3943 74.5345 58.3943Z" fill="white"/>
<path fill-rule="evenodd" clip-rule="evenodd" d="M57.7653 68.3546L57.7695 64.5324C57.7695 64.1977 57.8483 64.178 58.0058 64.4733L60.132 68.4727C60.1561 68.5196 60.1929 68.559 60.2382 68.5866C60.2836 68.6141 60.3359 68.6287 60.3894 68.6288H62.0938C62.2822 68.6288 62.3328 68.5458 62.2456 68.3799L60.0856 64.3088C60.0153 64.1766 60.0448 64.0739 60.1742 64.0008C61.6733 63.1542 62.202 61.9603 61.7605 60.4191C61.1069 58.1426 58.7469 58.2693 56.7997 58.3738C56.5096 58.3893 56.2287 58.4044 55.9639 58.411C55.8317 58.4138 55.7656 58.4827 55.7656 58.6177V68.3124C55.7656 68.5233 55.8711 68.6288 56.082 68.6288H57.4911C57.5638 68.6288 57.6336 68.5999 57.685 68.5485C57.7364 68.497 57.7653 68.4273 57.7653 68.3546ZM57.7975 60.3332C57.777 60.3537 57.7654 60.3816 57.7654 60.4107L57.7738 62.2079C57.7738 62.2223 57.7767 62.2366 57.7822 62.2499C57.7877 62.2632 57.7958 62.2753 57.806 62.2855C57.8162 62.2956 57.8283 62.3037 57.8416 62.3092C57.8549 62.3147 57.8691 62.3176 57.8835 62.3176L58.7526 62.3134C59.0791 62.3121 59.3919 62.2096 59.6221 62.0284C59.8523 61.8472 59.9811 61.6023 59.9803 61.3473V61.2545C59.9798 61.1281 59.9475 61.0031 59.8851 60.8865C59.8228 60.77 59.7316 60.6642 59.6168 60.5753C59.502 60.4863 59.3659 60.416 59.2161 60.3682C59.0664 60.3204 58.906 60.2962 58.7442 60.2968L57.8751 60.301C57.846 60.301 57.8181 60.3126 57.7975 60.3332Z" fill="white"/>
<path fill-rule="evenodd" clip-rule="evenodd" d="M48.0625 66.5195H52.0576C52.0896 66.5192 52.121 66.5288 52.1474 66.5469C52.1738 66.565 52.194 66.5908 52.2053 66.6208L52.9182 68.5741C52.9297 68.6047 52.9506 68.631 52.9778 68.6492C53.0051 68.6674 53.0374 68.6765 53.0701 68.6753L54.766 68.6078C54.791 68.6074 54.8156 68.6009 54.8376 68.5891C54.8596 68.5772 54.8784 68.5602 54.8924 68.5395C54.9065 68.5188 54.9154 68.4951 54.9183 68.4703C54.9213 68.4454 54.9183 68.4203 54.9095 68.3969L51.121 58.4997C51.1101 58.4704 51.0905 58.445 51.0649 58.427C51.0393 58.4089 51.0089 58.399 50.9776 58.3984H49.096C49.0647 58.399 49.0343 58.4089 49.0087 58.427C48.9832 58.445 48.9636 58.4704 48.9526 58.4997L45.1389 68.418C45.13 68.4417 45.127 68.4672 45.1301 68.4924C45.1333 68.5176 45.1426 68.5416 45.1571 68.5623C45.1717 68.5831 45.191 68.6 45.2136 68.6116C45.2361 68.6232 45.2612 68.6291 45.2865 68.6289H46.9993C47.0301 68.6287 47.0602 68.6194 47.0857 68.6021C47.1113 68.5848 47.1311 68.5604 47.1428 68.5319L47.919 66.6166C47.9307 66.588 47.9505 66.5636 47.976 66.5463C48.0016 66.5291 48.0316 66.5197 48.0625 66.5195ZM48.9357 64.5156H51.0155C51.2349 64.5156 51.3038 64.4129 51.2222 64.2076L50.1549 61.4739C50.0761 61.2714 49.996 61.2714 49.9144 61.4739L48.7922 64.3089C48.7388 64.4467 48.7866 64.5156 48.9357 64.5156Z" fill="white"/>
<path d="M34.1487 79.201L35.8742 79.7621C36.0457 79.8183 36.102 79.9322 36.0429 80.1038C34.1909 85.4701 26.9979 83.9977 26.6393 78.4796C26.4832 76.1002 26.9599 73.8516 29.2296 72.6619C31.6554 71.3879 35.1781 72.1304 35.9923 75.0835C36.0288 75.2241 35.9768 75.3113 35.8362 75.3451L34.1192 75.7627C33.9842 75.7965 33.8913 75.7487 33.8407 75.6193C33.4231 74.5604 32.5413 73.9065 31.3643 74.0077C27.4113 74.3537 28.2045 83.0485 32.5413 81.2218C33.3513 80.8843 33.6888 80.1502 33.8871 79.3487C33.9237 79.2052 34.0109 79.156 34.1487 79.201Z" fill="white"/>
<path d="M58.7145 72.2148H56.9342C56.8131 72.2148 56.7148 72.3131 56.7148 72.4342V82.9642C56.7148 83.0854 56.8131 83.1836 56.9342 83.1836H58.7145C58.8357 83.1836 58.9339 83.0854 58.9339 82.9642V72.4342C58.9339 72.3131 58.8357 72.2148 58.7145 72.2148Z" fill="white"/>
<path d="M64.9414 74.2483V83.0486C64.9414 83.0844 64.9272 83.1187 64.9019 83.144C64.8766 83.1694 64.8422 83.1836 64.8064 83.1836H62.8616C62.8258 83.1836 62.7914 83.1694 62.7661 83.144C62.7408 83.1187 62.7266 83.0844 62.7266 83.0486V74.2483C62.7266 74.2125 62.7123 74.1781 62.687 74.1528C62.6617 74.1275 62.6274 74.1133 62.5916 74.1133H59.6975C59.6617 74.1133 59.6274 74.0991 59.602 74.0737C59.5767 74.0484 59.5625 74.0141 59.5625 73.9783V72.3498C59.5625 72.314 59.5767 72.2797 59.602 72.2544C59.6274 72.2291 59.6617 72.2148 59.6975 72.2148H68.0759C68.1117 72.2148 68.1461 72.2291 68.1714 72.2544C68.1967 72.2797 68.2109 72.314 68.2109 72.3498V73.9783C68.2109 74.0141 68.1967 74.0484 68.1714 74.0737C68.1461 74.0991 68.1117 74.1133 68.0759 74.1133H65.0764C65.0406 74.1133 65.0063 74.1275 64.9809 74.1528C64.9556 74.1781 64.9414 74.2125 64.9414 74.2483Z" fill="white"/>
<path d="M85.7188 81.5467V83.0359C85.7188 83.0751 85.7032 83.1126 85.6755 83.1403C85.6478 83.168 85.6103 83.1836 85.5711 83.1836H78.1672C78.128 83.1836 78.0905 83.168 78.0628 83.1403C78.0351 83.1126 78.0195 83.0751 78.0195 83.0359V72.5186C78.0195 72.4988 78.0235 72.4793 78.0312 72.4611C78.0388 72.4429 78.0501 72.4264 78.0643 72.4126C78.0784 72.3989 78.0952 72.3881 78.1136 72.3809C78.132 72.3738 78.1517 72.3703 78.1714 72.3709L80.0909 72.4511C80.1294 72.4522 80.1658 72.4682 80.1926 72.4958C80.2194 72.5234 80.2344 72.5603 80.2344 72.5987V81.2218C80.2344 81.261 80.2499 81.2986 80.2776 81.3263C80.3053 81.3539 80.3429 81.3695 80.382 81.3695L85.5711 81.399C85.6103 81.399 85.6478 81.4146 85.6755 81.4423C85.7032 81.47 85.7188 81.5075 85.7188 81.5467Z" fill="white"/>
<path fill-rule="evenodd" clip-rule="evenodd" d="M49.6484 82.9219V79.2811C49.6484 79.1264 49.7244 79.0533 49.8763 79.0618C49.9499 79.0647 50.0245 79.0678 50.1 79.0709C51.6548 79.1353 53.5731 79.2148 54.7278 78.1969C56.6052 76.5474 56.0694 72.7041 53.2048 72.3497C51.8352 72.1782 49.9705 72.1458 47.6108 72.2527C47.4927 72.2583 47.4336 72.3216 47.4336 72.4425V82.9219C47.4336 83.0963 47.5208 83.1835 47.6952 83.1835H49.3827C49.5598 83.1835 49.6484 83.0963 49.6484 82.9219ZM49.7035 74.1822C49.672 74.213 49.6537 74.2548 49.6526 74.2988L49.6442 76.9988C49.6436 77.0213 49.6476 77.0437 49.6558 77.0647C49.664 77.0857 49.6763 77.1048 49.6921 77.1209C49.7078 77.137 49.7266 77.1498 49.7473 77.1586C49.7681 77.1673 49.7904 77.1718 49.8129 77.1718L51.5764 77.176C52.0928 77.1777 52.5885 77.0266 52.9547 76.7561C53.3209 76.4856 53.5277 76.1177 53.5296 75.7332V75.5982C53.5306 75.4074 53.481 75.2183 53.3838 75.0417C53.2865 74.865 53.1435 74.7043 52.9628 74.5687C52.7822 74.4332 52.5675 74.3254 52.331 74.2516C52.0946 74.1777 51.841 74.1393 51.5848 74.1385L49.8214 74.1343C49.7773 74.1343 49.735 74.1515 49.7035 74.1822Z" fill="white"/>
<path fill-rule="evenodd" clip-rule="evenodd" d="M38.4605 83.0908L39.3422 80.7452C39.3525 80.7178 39.371 80.6942 39.3951 80.6776C39.4193 80.661 39.4479 80.6522 39.4772 80.6524H43.5399C43.5687 80.6519 43.5969 80.6601 43.621 80.6759C43.6451 80.6917 43.6638 80.7143 43.6749 80.741L44.6156 83.095C44.6266 83.1216 44.6454 83.1443 44.6695 83.1601C44.6936 83.1759 44.7218 83.1841 44.7506 83.1836H46.8516C46.875 83.1833 46.898 83.1773 46.9186 83.1661C46.9392 83.1548 46.9567 83.1387 46.9696 83.1192C46.9825 83.0996 46.9904 83.0772 46.9926 83.0538C46.9948 83.0305 46.9913 83.007 46.9824 82.9853L42.7172 72.3035C42.7062 72.2768 42.6874 72.2542 42.6634 72.2384C42.6393 72.2226 42.611 72.2144 42.5822 72.2149H40.4095C40.381 72.2156 40.3533 72.2248 40.33 72.2413C40.3067 72.2578 40.2888 72.2809 40.2788 72.3077L36.1655 82.9895C36.1573 83.0113 36.1545 83.0348 36.1573 83.0578C36.1602 83.0809 36.1687 83.103 36.1819 83.1221C36.1952 83.1412 36.213 83.1568 36.2336 83.1675C36.2543 83.1782 36.2772 83.1837 36.3005 83.1836H38.3255C38.3548 83.1838 38.3834 83.175 38.4075 83.1584C38.4317 83.1418 38.4501 83.1182 38.4605 83.0908ZM41.3544 75.3113L40.1647 78.6146C40.1573 78.6356 40.155 78.658 40.1581 78.68C40.1611 78.702 40.1694 78.723 40.1822 78.7412C40.195 78.7594 40.212 78.7742 40.2317 78.7845C40.2514 78.7948 40.2733 78.8002 40.2955 78.8002L42.7255 78.7834C42.7483 78.7835 42.7707 78.7781 42.7909 78.7676C42.8111 78.7571 42.8284 78.7418 42.8413 78.7231C42.8542 78.7044 42.8623 78.6828 42.8649 78.6602C42.8675 78.6376 42.8646 78.6147 42.8563 78.5935L41.616 75.3113C41.6062 75.2845 41.5884 75.2613 41.565 75.245C41.5416 75.2286 41.5138 75.2198 41.4852 75.2198C41.4567 75.2198 41.4288 75.2286 41.4054 75.245C41.382 75.2613 41.3642 75.2845 41.3544 75.3113Z" fill="white"/>
<path fill-rule="evenodd" clip-rule="evenodd" d="M68.958 83.0868L69.8186 80.7623C69.8288 80.7344 69.8471 80.7103 69.8712 80.693C69.8953 80.6757 69.924 80.666 69.9536 80.6653L74.0711 80.6484C74.1015 80.6483 74.1312 80.6575 74.1561 80.6749C74.181 80.6923 74.1999 80.7169 74.2104 80.7454L75.0668 83.0868C75.0769 83.1147 75.0952 83.1388 75.1193 83.1561C75.1434 83.1734 75.1721 83.1831 75.2018 83.1838H77.3533C77.3776 83.1842 77.4017 83.1785 77.4233 83.1674C77.4448 83.1562 77.4634 83.1399 77.4771 83.1199C77.4909 83.0998 77.4995 83.0767 77.5022 83.0525C77.5049 83.0284 77.5016 83.0039 77.4925 82.9813L73.1979 72.3079C73.1868 72.2802 73.1675 72.2565 73.1427 72.2399C73.1178 72.2233 73.0885 72.2147 73.0586 72.2151H70.9197C70.8899 72.2147 70.8606 72.2233 70.8357 72.2399C70.8108 72.2565 70.7916 72.2802 70.7805 72.3079L66.6419 82.9813C66.6329 83.0039 66.6296 83.0284 66.6323 83.0525C66.6349 83.0767 66.6436 83.0998 66.6573 83.1199C66.6711 83.1399 66.6896 83.1562 66.7112 83.1674C66.7328 83.1785 66.7568 83.1842 66.7811 83.1838H68.823C68.8527 83.1831 68.8814 83.1734 68.9055 83.1561C68.9295 83.1388 68.9479 83.1147 68.958 83.0868ZM70.8014 78.8173L73.206 78.8679C73.3917 78.8707 73.4507 78.7863 73.3832 78.6148L72.0839 75.2567C72.0023 75.0457 71.9221 75.0471 71.8434 75.2609L70.6368 78.581C70.6274 78.6076 70.6245 78.6359 70.6283 78.6638C70.632 78.6917 70.6424 78.7183 70.6585 78.7414C70.6746 78.7645 70.6959 78.7834 70.7207 78.7966C70.7456 78.8098 70.7732 78.8169 70.8014 78.8173Z" fill="white"/>
</svg>
