<svg width="100" height="100" viewBox="0 0 100 100" fill="none" xmlns="http://www.w3.org/2000/svg">
<rect width="100" height="100" fill="#FA323A"/>
<circle cx="50" cy="50" r="45" fill="#292121"/>
<path d="M77.72 18.4442C77.6877 18.3778 77.6405 18.3193 77.582 18.2732C57.447 1.71513 31.2293 5.85219 15.418 25.8005C15.3555 25.88 15.3165 25.9756 15.3056 26.0762C15.2946 26.1769 15.3122 26.2786 15.3562 26.3697C15.4003 26.4609 15.469 26.5378 15.5547 26.5918C15.6403 26.6458 15.7394 26.6746 15.8406 26.675H77.1201C77.5525 26.675 77.7687 26.4621 77.7687 26.0363V18.6564C77.769 18.5832 77.7524 18.5106 77.72 18.4442Z" fill="#FA323A"/>
<path d="M79.8228 55.6738C74.025 70.2272 53.5756 67.6723 50.1952 52.3917C50.0707 51.8152 49.9266 51.8086 49.7628 52.372C48.2593 57.6097 46.0188 61.9433 40.7713 64.056C34.4232 66.6012 27.5052 65.1959 22.8768 60.0762C22.8271 60.0218 22.7619 59.9833 22.69 59.9658C22.6182 59.9483 22.543 59.9527 22.4746 59.9783C22.4063 60.004 22.3479 60.0497 22.3074 60.1093C22.2669 60.1689 22.2461 60.2397 22.2479 60.312V69.1758C22.2479 69.5033 22.4117 69.6671 22.7393 69.6671H86.0726C86.8456 69.6671 87.3861 69.3133 87.694 68.6058C94.9855 51.8086 93.0168 36.4101 81.7881 22.4103C81.7467 22.3573 81.6899 22.3185 81.6254 22.2993C81.561 22.28 81.4922 22.2813 81.4285 22.3029C81.3648 22.3245 81.3094 22.3653 81.27 22.4198C81.2305 22.4742 81.209 22.5396 81.2084 22.6069V44.9922C81.2084 49.7876 80.7465 53.3482 79.8228 55.6738Z" fill="#FA323A"/>
<path d="M23.2897 39.0175C19.8995 42.2112 18.8676 47.1049 18.8382 52.1166C18.7923 60.5151 18.7858 68.7499 18.8185 76.821C18.8251 77.7054 18.5532 77.7971 18.0029 77.0961C6.99039 63.1291 5.0709 47.8419 12.2444 31.2347C12.5654 30.4879 13.1354 30.1145 13.9543 30.1145H77.2778C77.6053 30.1145 77.7691 30.2783 77.7691 30.6058L77.7593 39.1354C77.7592 39.2254 77.7323 39.3132 77.682 39.3878C77.6317 39.4623 77.5603 39.5202 77.477 39.5539C77.3936 39.5877 77.3021 39.5958 77.2141 39.5773C77.1261 39.5588 77.0456 39.5144 76.983 39.4499C69.0626 31.2937 56.3468 33.2492 51.4335 43.3904C51.1853 43.9088 50.9804 44.5975 50.7668 45.3157C50.5998 45.8771 50.4274 46.4567 50.2248 46.987C50.1973 47.053 50.1494 47.1091 50.0881 47.1468C50.0269 47.1845 49.9557 47.2019 49.885 47.1964C49.8143 47.1909 49.748 47.1627 49.6959 47.1161C49.6438 47.0696 49.6087 47.007 49.5959 46.9379C46.8935 34.1631 32.3401 30.5272 23.2897 39.0175Z" fill="#FA323A"/>
<path d="M43.7487 49.8661C43.7487 55.0056 39.5823 59.172 34.4427 59.172C29.3032 59.172 25.1368 55.0056 25.1368 49.8661C25.1368 44.7266 29.3032 40.5602 34.4427 40.5602C39.5823 40.5602 43.7487 44.7266 43.7487 49.8661Z" fill="#FA323A"/>
<path d="M65.5443 59.172C70.6838 59.172 74.8502 55.0056 74.8502 49.8661C74.8502 44.7266 70.6838 40.5602 65.5443 40.5602C60.4048 40.5602 56.2383 44.7266 56.2383 49.8661C56.2383 55.0056 60.4048 59.172 65.5443 59.172Z" fill="#FA323A"/>
<path d="M84.3518 72.9356C84.2724 72.8865 84.1809 72.8607 84.0875 72.8608H22.9848C22.7894 72.8608 22.6019 72.9385 22.4637 73.0767C22.3255 73.2149 22.2478 73.4023 22.2478 73.5978V80.7222C22.2478 81.0956 22.3887 81.4002 22.6704 81.6361C42.0683 97.7028 69.8387 94.1259 84.5002 73.6764C84.5542 73.5984 84.5863 73.507 84.593 73.4123C84.5998 73.3175 84.5808 73.223 84.5383 73.139C84.4958 73.055 84.4313 72.9846 84.3518 72.9356Z" fill="#FA323A"/>
</svg>
