<svg width="100" height="100" viewBox="0 0 100 100" fill="none" xmlns="http://www.w3.org/2000/svg">
<rect width="100" height="100" fill="#125292"/>
<path d="M71.0343 71.4182C64.6968 74.7482 57.9168 77.7913 50.6944 80.5475C47.8762 81.623 43.1363 82.4713 39.2138 82.4713C38.3437 82.4375 36.1558 82.3257 35.5294 81.7625C29.6794 77.4819 31.5919 70.2594 33.645 64.2351C36.3113 56.4351 39.6281 48.9201 43.5956 41.6901C43.6369 41.6151 43.6594 41.5513 43.6631 41.4988C43.6669 41.3301 43.6125 41.3338 43.5 41.5101C39.1425 48.3838 35.3081 55.5351 31.9969 62.9638C29.7525 68.0094 26.0401 78.3088 27.8626 83.6582C28.8638 86.5869 31.0688 88.4769 34.4775 89.3282C35.9465 89.5323 36.7841 89.5729 38.2969 89.4463C42.6785 89.0392 47.3644 87.635 47.3644 87.635C56.5518 84.6725 65.5087 80.9094 74.2349 76.3457C74.315 76.303 74.4036 76.277 74.4953 76.2693C74.5871 76.2616 74.6803 76.2722 74.7693 76.3007C77.6605 77.2569 79.3537 77.4369 81.9186 75.6369C88.9724 70.7038 81.418 60.8713 74.9212 64.8763C72.958 66.0857 71.7487 68.2738 71.5912 70.5576C71.581 70.7361 71.5244 70.9091 71.4268 71.06C71.3293 71.2108 71.194 71.3342 71.0343 71.4182Z" fill="#D93030"/>
<path d="M64.8468 56.2307C58.5093 59.5607 51.7293 62.6038 44.5069 65.36C41.6887 66.4355 36.9488 67.2838 33.0263 67.2838C32.1562 67.25 29.9683 67.1382 29.3419 66.575C23.4919 62.2944 25.4044 55.0719 27.4575 49.0476C30.1238 41.2476 33.4406 33.7326 37.4081 26.5026C37.4494 26.4276 37.4719 26.3638 37.4756 26.3113C37.4794 26.1426 37.425 26.1463 37.3125 26.3226C32.955 33.1963 29.1206 40.3476 25.8094 47.7763C23.565 52.8219 19.8526 63.1213 21.6751 68.4707C22.6763 71.3994 24.8813 73.2894 28.29 74.1407C29.759 74.3448 30.5966 74.3854 32.1094 74.2588C36.491 73.8517 41.1769 72.4475 41.1769 72.4475C50.3643 69.485 59.3212 65.7219 68.0474 61.1582C68.1275 61.1155 68.2161 61.0895 68.3078 61.0818C68.3996 61.0741 68.4928 61.0847 68.5818 61.1132C71.473 62.0694 73.1662 62.2494 75.7311 60.4494C82.7849 55.5163 75.2305 45.6838 68.7337 49.6888C66.7705 50.8982 65.5612 53.0863 65.4037 55.3701C65.3935 55.5486 65.3369 55.7216 65.2393 55.8725C65.1418 56.0233 65.0065 56.1467 64.8468 56.2307Z" fill="#EA9128"/>
<path d="M58.6593 41.0432C52.3218 44.3732 45.5418 47.4163 38.3194 50.1725C35.5012 51.248 30.7613 52.0963 26.8388 52.0963C25.9687 52.0625 23.7808 51.9507 23.1544 51.3875C17.3044 47.1069 19.2169 39.8844 21.27 33.8601C23.9363 26.0601 27.2531 18.5451 31.2206 11.3151C31.2619 11.2401 31.2844 11.1763 31.2881 11.1238C31.2919 10.9551 31.2375 10.9588 31.125 11.1351C26.7675 18.0088 22.9331 25.1601 19.6219 32.5888C17.3775 37.6344 13.6651 47.9338 15.4876 53.2832C16.4888 56.2119 18.6938 58.1019 22.1025 58.9532C23.5715 59.1573 24.4091 59.1979 25.9219 59.0713C30.3035 58.6642 34.9894 57.26 34.9894 57.26C44.1768 54.2975 53.1337 50.5344 61.8599 45.9707C61.94 45.928 62.0286 45.902 62.1203 45.8943C62.2121 45.8866 62.3053 45.8972 62.3943 45.9257C65.2855 46.8819 66.9787 47.0619 69.5436 45.2619C76.5974 40.3288 69.043 30.4963 62.5462 34.5013C60.583 35.7107 59.3737 37.8988 59.2162 40.1826C59.206 40.3611 59.1494 40.5341 59.0518 40.685C58.9543 40.8358 58.819 40.9592 58.6593 41.0432Z" fill="#84C55C"/>
</svg>
