<svg width="100" height="100" viewBox="0 0 100 100" fill="none" xmlns="http://www.w3.org/2000/svg">
<rect width="100" height="100" fill="#595C62"/>
<path d="M15.8975 57V39.8203H19.2725L26.3037 51.293V39.8203H29.5264V57H26.0459L19.1202 45.7969V57H15.8975ZM33.5192 57V39.8203H38.7106L41.8278 51.5391L44.9098 39.8203H50.113V57H46.8903V43.4766L43.4802 57H40.1403L36.7419 43.4766V57H33.5192ZM53.9066 39.8203H60.2464C61.6761 39.8203 62.7659 39.9297 63.5159 40.1484C64.5238 40.4453 65.387 40.9727 66.1058 41.7305C66.8245 42.4883 67.3714 43.418 67.7464 44.5195C68.1214 45.6133 68.3089 46.9648 68.3089 48.5742C68.3089 49.9883 68.1331 51.207 67.7816 52.2305C67.3519 53.4805 66.7386 54.4922 65.9417 55.2656C65.3402 55.8516 64.5277 56.3086 63.5042 56.6367C62.7386 56.8789 61.7152 57 60.4339 57H53.9066V39.8203ZM57.3753 42.7266V54.1055H59.9652C60.9339 54.1055 61.6331 54.0508 62.0628 53.9414C62.6253 53.8008 63.0902 53.5625 63.4573 53.2266C63.8323 52.8906 64.137 52.3398 64.3714 51.5742C64.6058 50.8008 64.723 49.75 64.723 48.4219C64.723 47.0938 64.6058 46.0742 64.3714 45.3633C64.137 44.6523 63.8089 44.0977 63.387 43.6992C62.9652 43.3008 62.43 43.0312 61.7816 42.8906C61.2972 42.7812 60.348 42.7266 58.9339 42.7266H57.3753ZM71.622 57V39.8203H84.3603V42.7266H75.0908V46.5352H83.7158V49.4297H75.0908V54.1055H84.6884V57H71.622Z" fill="#F8F8F8"/>
</svg>
