<svg width="100" height="100" viewBox="0 0 100 100" fill="none" xmlns="http://www.w3.org/2000/svg">
<rect width="100" height="100" fill="#DC242D"/>
<path d="M15.8809 44.2171V42.9424C15.9588 41.2439 16.028 40.1232 16.0885 39.5806C16.2718 37.9242 16.6224 36.177 17.1404 34.3391C20.8584 21.1501 32.1471 11.3986 45.684 9.57397C47.609 9.31364 49.754 9.24626 52.119 9.37185C69.0247 10.2697 82.6551 23.5178 84.3422 40.242C85.1906 48.6432 82.8737 56.9152 78.0282 63.7118C73.8729 69.5418 67.9398 73.818 61.1569 76.1638C61.1401 76.1696 61.1224 76.1721 61.1046 76.1711C61.0869 76.17 61.0695 76.1654 61.0535 76.1576C61.0375 76.1498 61.0233 76.139 61.0115 76.1256C60.9998 76.1123 60.9908 76.0968 60.985 76.0799L60.369 74.2952C60.3553 74.2548 60.3686 74.2278 60.4089 74.2141C67.4306 71.7775 72.9833 67.5137 77.0671 61.4224C83.1817 52.2993 84.0493 40.4276 79.6039 30.4533C75.0211 20.1725 65.2874 13.0403 54.1554 11.6172C45.2825 10.4815 36.3216 13.2328 29.5869 18.8428C23.5259 23.8918 19.5521 30.936 18.3022 38.8133C17.8306 41.7792 17.8897 45.2277 18.2266 47.8017C19.2441 55.5897 23.035 62.5458 28.8568 67.7832C28.8925 67.8153 28.8943 67.8492 28.8623 67.8849L27.5574 69.3466C27.5345 69.3722 27.5097 69.3736 27.4831 69.3507C20.2011 62.9556 16.1119 53.8764 15.8809 44.2171Z" fill="white"/>
<path d="M51.3937 30.8743C51.2424 31.251 51.0692 31.6333 51.1365 32.0417C51.3662 33.4565 52.7082 34.4933 53.9415 34.9704C54.3119 35.1143 55.2208 35.333 56.6682 35.6263C57.1783 35.7294 57.5991 35.9948 58.0253 36.1474C59.1501 36.5503 60.6777 37.5719 60.9417 38.8369C60.944 38.8471 60.9431 38.8579 60.939 38.8675C60.9348 38.8772 60.9277 38.8853 60.9187 38.8906C60.9097 38.896 60.8992 38.8983 60.8887 38.8973C60.8783 38.8963 60.8684 38.892 60.8606 38.885C60.5801 38.6499 60.3931 38.4588 60.0177 38.39C58.7541 38.159 57.3502 37.5664 56.2901 38.6472C56.2774 38.66 56.2691 38.6764 56.2663 38.6941C56.2635 38.7119 56.2664 38.7301 56.2746 38.7462C56.2827 38.7624 56.2958 38.7757 56.3118 38.7843C56.3279 38.7929 56.3462 38.7964 56.3643 38.7943C58.1105 38.5647 59.7537 39.5313 61.0696 40.7358C61.5412 41.1662 61.7997 41.5622 61.7309 42.1837C61.7277 42.2126 61.7172 42.2403 61.7004 42.2641C61.6836 42.2879 61.6609 42.307 61.6347 42.3197C61.6084 42.3323 61.5794 42.3381 61.5503 42.3364C61.5212 42.3348 61.493 42.3257 61.4683 42.3102L60.9596 41.9843C60.9128 41.9549 60.8835 41.9673 60.8716 42.0214L60.7299 42.68C60.7265 42.6956 60.7263 42.7118 60.7293 42.7274C60.7324 42.743 60.7387 42.7578 60.7478 42.7708C61.2456 43.4592 61.4898 44.231 61.4807 45.0863C61.4807 45.1108 61.4731 45.1346 61.459 45.1546C61.4449 45.1746 61.4249 45.1898 61.4018 45.1979C61.3787 45.206 61.3536 45.2068 61.3301 45.2001C61.3065 45.1934 61.2857 45.1796 61.2703 45.1605C60.9829 44.8127 60.7863 44.4455 60.4178 44.1898C59.9631 43.8744 59.5282 43.6265 59.1129 43.4459C57.8094 42.8767 56.7122 42.3088 55.4815 41.8825C54.068 41.3944 53.5758 40.2339 52.9804 38.8479C52.8723 38.5977 52.781 38.2791 52.7068 37.8923C52.5491 37.0691 52.2581 36.3032 51.8337 35.5947C50.735 33.7618 49.1703 33.3534 47.3072 32.6577C47.2969 32.6542 47.2857 32.6544 47.2756 32.6583C47.2655 32.6622 47.257 32.6694 47.2517 32.6789C47.2463 32.6883 47.2444 32.6993 47.2462 32.71C47.2481 32.7206 47.2536 32.7303 47.2618 32.7374C47.7912 33.1527 48.7482 33.649 49.1098 34.1935C49.4494 34.705 49.8935 35.1712 50.163 35.6937C50.5095 36.3619 50.8501 37.0334 51.1847 37.708C51.7237 38.7929 51.9808 40.6148 51.571 41.7657C51.2007 42.8042 50.7612 43.8135 50.2524 44.7934C49.4357 46.3678 47.6097 47.2973 46.0614 47.8706C44.9587 48.2786 43.8715 48.7227 42.7999 49.203C42.7669 49.2177 42.7435 49.2076 42.7298 49.1728C42.5327 48.6521 42.4951 48.1392 42.617 47.6341C42.8865 46.5259 44.3922 46.7514 45.0618 45.9099C45.6356 45.1857 45.6654 44.3869 45.1512 43.5133C44.5792 42.5398 43.057 42.5288 42.8879 43.8392C42.8302 44.2856 43.0208 44.5248 43.4599 44.5569C43.5057 44.5597 43.5456 44.5464 43.5795 44.517L43.6772 44.4332C43.6856 44.4257 43.6957 44.4204 43.7065 44.4175C43.7174 44.4147 43.7288 44.4145 43.7398 44.4169C43.7508 44.4193 43.7611 44.4243 43.7698 44.4314C43.7785 44.4385 43.7854 44.4476 43.7899 44.4579C44.0938 45.1481 43.9013 46.3636 42.9869 46.4736C42.2568 46.563 41.4992 46.2523 41.3465 45.4355C41.308 45.2284 41.2503 45.0551 41.1733 44.9158C40.4418 43.5884 40.4885 42.3207 41.3135 41.1125C41.748 40.4759 41.9625 40.1157 41.8993 39.4199C41.8978 39.4035 41.9011 39.387 41.9088 39.3723C41.9164 39.3577 41.9281 39.3456 41.9424 39.3373C41.9567 39.3291 41.973 39.3251 41.9895 39.3259C42.006 39.3266 42.0219 39.332 42.0354 39.3415C42.276 39.5065 42.4768 39.5505 42.7724 39.4612C43.6868 39.1862 44.3592 39.0707 44.5737 37.9803C44.6974 37.3547 44.7634 36.6108 44.3647 36.069C43.9618 35.5232 42.4452 34.5868 41.8952 35.4819C41.6192 35.932 41.677 36.3147 42.0684 36.63C42.0855 36.6433 42.1057 36.6516 42.127 36.6543C42.1483 36.657 42.1699 36.6538 42.1894 36.6452L42.5057 36.5008C42.5643 36.4733 42.5772 36.432 42.5442 36.377L42.474 36.2574C42.4419 36.2042 42.4566 36.1731 42.518 36.1639C43.8367 35.9522 44.0498 37.51 43.1987 38.1274C42.3599 38.7352 40.4954 39.072 40.571 37.3932C40.5727 37.3463 40.5571 37.3003 40.527 37.2639C39.5907 36.1392 39.1355 34.7972 40.1297 33.5088C40.3652 33.2035 40.5128 32.8272 40.5724 32.3799C40.5779 32.3322 40.5674 32.2887 40.5408 32.2493L40.2452 31.8189C40.2366 31.806 40.2315 31.7912 40.2303 31.7757C40.2291 31.7603 40.2319 31.7448 40.2384 31.7308C40.2448 31.7167 40.2548 31.7045 40.2673 31.6954C40.2798 31.6863 40.2944 31.6805 40.3098 31.6787C40.7457 31.6278 40.978 32.4363 41.2503 32.7085C42.0877 33.5473 42.7532 34.2843 43.882 34.9965C45.0302 35.7225 46.7338 37.0027 47.259 38.3777C47.6784 39.4777 47.6069 41.1194 46.3584 41.7217C46.319 41.7409 46.2777 41.7487 46.2347 41.745C46.1384 41.7359 46.0555 41.7675 45.9858 41.8399C45.9759 41.8503 45.9627 41.8568 45.9486 41.8583C45.9344 41.8597 45.9202 41.856 45.9083 41.8478C45.8965 41.8396 45.8879 41.8274 45.8839 41.8134C45.88 41.7993 45.881 41.7844 45.8868 41.7712C46.1343 41.2432 45.7727 40.4938 45.1883 40.4072C44.278 40.2724 44.1873 41.2322 44.608 41.7904C45.4977 42.9715 47.0968 42.6938 47.9603 41.591C48.6437 40.7193 49.1373 39.2302 48.502 38.1948C47.2302 36.1227 45.3478 35.5617 43.6414 33.7604C42.92 32.9987 42.3274 32.3052 41.8635 31.68C41.3534 30.9898 41.2819 29.5818 41.8017 28.8929C42.0437 28.5712 42.5373 28.3017 42.859 27.9318C42.8848 27.9016 42.8989 27.8636 42.8989 27.8245V27.3515C42.8986 27.3352 42.9035 27.3192 42.9127 27.3057C42.922 27.2923 42.9352 27.282 42.9507 27.2763C42.9661 27.2706 42.983 27.2698 42.9991 27.2739C43.0151 27.278 43.0296 27.2869 43.0405 27.2993L43.7005 28.0679C43.7162 28.0862 43.7361 28.1003 43.7583 28.1092C43.7806 28.1181 43.8047 28.1214 43.8284 28.1188C44.3885 28.0601 44.927 28.1284 45.444 28.3237C45.4542 28.3274 45.4653 28.3278 45.4757 28.3247C45.4861 28.3217 45.4953 28.3155 45.5019 28.3069C45.5085 28.2983 45.5121 28.2878 45.5124 28.277C45.5126 28.2662 45.5094 28.2555 45.5032 28.2467C44.5517 26.9679 42.5579 27.3653 42.4094 25.2437C42.3709 24.6868 42.6308 24.0419 42.7202 23.4232C42.7302 23.3581 42.7518 23.354 42.7848 23.4108C43.7088 25.0003 45.3272 24.6373 46.5619 23.7133C47.2109 23.2284 47.909 23.2307 48.656 23.7202C49.9884 24.5947 50.823 26.3904 52.4373 26.6448C53.7944 26.8607 56.1677 27.4835 57.2278 26.4385C57.5871 26.0847 57.9776 25.9435 58.3993 26.015C59.0167 26.1195 60.0906 26.4674 60.3229 27.1302C60.7354 28.3168 60.1139 30.074 58.6248 29.8142C58.1559 29.7317 57.8988 29.3219 57.4409 29.161C56.2786 28.7531 55.3995 29.0547 54.8037 30.0658C54.5397 30.5113 54.6593 31.0805 54.9205 31.5384C55.4032 32.3868 56.2818 33.2159 57.313 33.3039C57.6527 33.3328 57.9524 33.1912 57.8356 32.7993C57.8265 32.7705 57.8271 32.7396 57.8372 32.7112C57.8473 32.6828 57.8664 32.6585 57.8915 32.6418C57.9167 32.6252 57.9465 32.6173 57.9766 32.6191C58.0067 32.621 58.0354 32.6326 58.0583 32.6522L58.5616 33.0702C58.5766 33.0826 58.596 33.0894 58.6166 33.0894C59.8596 33.055 59.6808 34.6322 58.7527 35.0048C57.9478 35.3265 57.2388 35.2069 56.6255 34.6459C56.5916 34.6157 56.5518 34.6001 56.5059 34.5992C56.1484 34.5937 55.8102 34.639 55.4733 34.5153C54.2129 34.0533 53.0991 33.3603 52.132 32.4363C51.8185 32.1365 51.7003 31.779 51.5518 31.3858C51.5353 31.3436 51.5275 31.2996 51.5284 31.2538C51.5312 31.1209 51.5069 30.9939 51.4555 30.8729C51.4335 30.8234 51.4129 30.8239 51.3937 30.8743Z" fill="white"/>
<path d="M55.0017 24.9466C54.5425 24.9548 54.372 25.168 54.3032 25.5956C54.2968 25.6359 54.2739 25.663 54.2345 25.6767C52.6463 26.235 50.8698 24.8022 50.2085 23.496C50.1883 23.4556 50.2011 23.4345 50.247 23.4327C50.8373 23.4153 51.4244 23.4043 52.0083 23.3997C52.8553 23.3928 53.3861 24.0363 54.2936 24.0061C55.2643 23.9745 57.1838 23.8053 57.4685 25.0428C57.4717 25.057 57.4713 25.0717 57.4673 25.0857C57.4634 25.0997 57.4559 25.1125 57.4457 25.123C57.4355 25.1335 57.4228 25.1413 57.4088 25.1458C57.3948 25.1503 57.3799 25.1513 57.3653 25.1487C56.5743 25.0002 55.7864 24.9328 55.0017 24.9466Z" fill="white"/>
<path d="M54.6894 25.8073C54.9314 25.535 55.2417 25.448 55.6202 25.546C55.6652 25.558 55.6872 25.5873 55.6862 25.634C55.6862 25.6478 55.6862 25.662 55.6862 25.6767C55.6862 25.7353 55.7151 25.7633 55.7729 25.7605C56.0442 25.745 56.2514 25.854 56.3944 26.0878C56.4074 26.1093 56.4152 26.1335 56.4172 26.1585C56.4192 26.1836 56.4152 26.2087 56.4058 26.232C56.3963 26.2552 56.3815 26.276 56.3625 26.2925C56.3436 26.309 56.3211 26.3208 56.2967 26.327C55.7321 26.4719 55.2064 26.3793 54.7196 26.0493C54.7005 26.0363 54.6844 26.0195 54.6723 25.9998C54.6603 25.9801 54.6526 25.9581 54.6497 25.9351C54.6468 25.9122 54.6489 25.889 54.6557 25.8669C54.6626 25.8449 54.674 25.8246 54.6894 25.8073Z" fill="white"/>
<path d="M26.7812 53.1713C26.9008 52.6144 26.7895 52.2253 26.3756 51.8169C25.7335 51.1816 26.0841 50.3924 26.1006 49.6788C26.1024 49.632 26.0901 49.5889 26.0635 49.5495L25.7995 49.1563C25.7637 49.1031 25.7775 49.0793 25.8407 49.0848C27.1717 49.2058 26.6231 50.6096 27.4275 51.1418C27.6392 51.2806 28.3295 51.4168 28.4739 51.0785C28.687 50.578 28.3982 49.9648 28.0366 49.5921C27.5457 49.0848 27.4343 48.6351 27.3463 47.9531C27.2904 47.515 27.0865 47.1625 26.7345 46.8958C26.7221 46.8863 26.7129 46.8732 26.7084 46.8583C26.7038 46.8434 26.7041 46.8275 26.7091 46.8127C26.7141 46.798 26.7236 46.7852 26.7363 46.7761C26.749 46.7671 26.7643 46.7623 26.7798 46.7624C29.2232 46.7789 28.082 50.0156 29.9272 49.8163C30.2366 49.7833 30.8059 49.3969 31.0864 49.1961C31.9425 48.5838 32.8005 47.9738 33.6604 47.366C34.8332 46.5369 36.266 45.1303 35.9662 43.5614C35.9332 43.384 35.7985 43.2891 35.6184 43.2383C34.6274 42.9578 33.9839 42.3138 33.6879 41.3064C33.6848 41.2962 33.6853 41.2852 33.6891 41.2753C33.693 41.2654 33.7 41.257 33.7091 41.2515C33.7183 41.246 33.7289 41.2437 33.7395 41.2449C33.7501 41.2461 33.76 41.2508 33.7676 41.2583C33.9326 41.4178 34.0082 41.6309 34.1664 41.7643C34.4551 42.009 35.0106 42.1424 35.1715 41.6625C35.1935 41.5956 35.1862 41.5236 35.1495 41.4466C34.6944 40.4869 32.57 39.8351 34 38.5096C34.3318 38.2026 34.698 37.9404 35.0986 37.7231C36.0735 37.1951 35.3874 36.4141 34.7617 36.0608C33.2809 35.2234 35.0642 34.7408 35.4479 34.2664C35.8319 33.7916 35.8562 33.336 35.5207 32.8996C35.3392 32.6645 34.9295 32.4693 34.7411 32.1654C33.5339 30.2211 36.8009 29.568 35.9181 27.5647C35.8452 27.3983 35.6637 27.2333 35.6046 27.0133C35.6027 27.0056 35.6031 26.9976 35.6057 26.9901C35.6083 26.9827 35.6131 26.9762 35.6195 26.9715C35.6258 26.9668 35.6334 26.9641 35.6413 26.9637C35.6491 26.9633 35.657 26.9652 35.6637 26.9693C36.6785 27.6197 36.5534 28.996 36.0666 29.909C35.859 30.2981 35.8494 30.7381 35.9332 31.1108C35.9653 31.2538 36.0419 31.3198 36.1629 31.3088C36.2114 31.3042 36.2371 31.2776 36.2399 31.229L36.288 30.4205C36.2917 30.36 36.3228 30.3394 36.3815 30.3586C36.8779 30.5305 37.0704 30.7904 37.1556 31.3239C37.2945 32.1901 38.0755 32.4225 38.015 33.4386C38.0123 33.4814 37.9954 33.522 37.9669 33.5541C37.6662 33.9071 37.2872 34.1413 36.8297 34.2568C36.233 34.408 36.3031 35.3678 36.7184 35.6881C37.047 35.9411 37.5434 36.0621 37.7757 36.454C38.1177 37.0306 38.0998 37.5884 37.7221 38.1274C37.4224 38.5536 35.7944 39.3209 36.7871 39.9149C37.0401 40.0671 37.3147 40.1088 37.6107 40.04C37.6281 40.0357 37.6442 40.0274 37.6576 40.0157C37.671 40.0039 37.6813 39.9892 37.6877 39.9726L37.8816 39.468C37.885 39.4592 37.8911 39.4518 37.899 39.4467C37.9069 39.4416 37.9162 39.4392 37.9256 39.4399C37.935 39.4405 37.9439 39.4441 37.9511 39.4501C37.9582 39.4562 37.9633 39.4644 37.9655 39.4735C38.2295 40.6038 37.5915 40.7014 37.2491 41.514C36.8861 42.3761 37.6094 43.1241 37.7111 43.8103C37.9174 45.1949 36.0886 47.2808 35.2952 48.0645C33.6617 49.6815 30.8884 51.4071 29.2109 52.7065C27.2116 54.2561 25.7912 59.7795 29.7031 60.1865C31.3119 60.3542 32.7006 59.4247 33.2492 57.9191C33.8102 56.3778 34.4496 55.1458 35.9374 54.3524C36.6753 53.96 37.4173 53.5764 38.1635 53.2015C40.0445 52.2569 41.7797 51.139 43.5727 50.0789C44.5792 49.4849 45.737 49.1508 46.8081 48.6434C46.8521 48.6232 46.8778 48.637 46.8851 48.6846C46.9649 49.198 46.9172 49.6911 46.7421 50.1641C46.5991 50.5478 46.2237 50.8736 46.0546 51.348C46.0473 51.3686 46.0443 51.3906 46.0459 51.4124C46.0476 51.4343 46.0538 51.4556 46.0641 51.4749C46.0745 51.4942 46.0888 51.5111 46.1061 51.5245C46.1234 51.538 46.1434 51.5476 46.1646 51.5529C47.9659 51.9915 50.236 50.5794 51.5313 49.4271C51.5725 49.3904 51.6255 49.3696 51.6808 49.3686C51.736 49.3676 51.7898 49.3864 51.8324 49.4216C52.8829 50.2824 53.6611 52.0259 54.2015 53.2551C54.2244 53.3055 54.257 53.3133 54.2991 53.2785C54.9729 52.7331 55.6315 52.1776 56.275 51.612C57.5565 50.4873 58.3169 49.8369 58.7445 48.389C58.7479 48.3779 58.7536 48.3677 58.7611 48.3589C58.7686 48.3501 58.7779 48.3431 58.7883 48.3381C58.7986 48.3332 58.8099 48.3305 58.8213 48.3303C58.8327 48.3301 58.844 48.3323 58.8545 48.3368C59.7029 48.6956 59.6864 50.4584 60.2584 51.0675C61.8534 52.7661 63.4557 54.4573 65.0654 56.1413C65.5521 56.6514 66.0595 56.9951 66.6233 57.4118C67.198 57.8366 68.4424 57.9411 69.057 57.5933C69.8655 57.1354 70.7937 56.7628 71.4867 57.6029C71.6929 57.8531 71.8414 58.0346 71.9322 58.1474C71.9642 58.1877 72.005 58.2134 72.0545 58.2244C72.6174 58.3564 73.0175 58.6877 73.2549 59.2185C73.2587 59.2277 73.2593 59.238 73.2565 59.2476C73.2537 59.2572 73.2478 59.2655 73.2396 59.2713C73.2315 59.277 73.2216 59.2798 73.2116 59.2792C73.2017 59.2787 73.1922 59.2747 73.1848 59.268C72.7379 58.8431 71.6077 58.9545 71.191 59.246C71.165 59.264 71.1349 59.274 71.1044 59.2749L70.6039 59.2859C70.5898 59.2862 70.5761 59.2903 70.5643 59.2979C70.5524 59.3055 70.5428 59.3161 70.5366 59.3287C70.5303 59.3413 70.5277 59.3554 70.5289 59.3694C70.5301 59.3835 70.5351 59.3969 70.5434 59.4082C70.8005 59.7575 71.1278 60.2374 71.6324 60.2511C71.6746 60.252 71.716 60.2644 71.752 60.2869C71.8992 60.379 72.1109 60.4271 72.2223 60.5426C72.7365 61.0752 72.7429 61.6362 72.2415 62.2256C72.2085 62.2641 72.2026 62.3063 72.2237 62.3521C72.4162 62.7674 72.3909 63.1762 72.148 63.5786C72.1333 63.6024 72.1107 63.6204 72.0841 63.6294C72.0575 63.6384 72.0286 63.6378 72.0025 63.6278C71.9765 63.6178 71.9549 63.599 71.9415 63.5747C71.9281 63.5503 71.9238 63.522 71.9294 63.4947C72.2058 62.1129 70.4802 62.3081 69.9865 61.3704C69.7954 61.0087 69.618 60.8781 69.2289 60.8657C69.1794 60.8648 69.1615 60.8882 69.1753 60.9359C69.2578 61.2246 69.2853 61.5432 69.2578 61.8915C69.2248 62.3012 69.739 62.6065 69.9975 62.887C70.762 63.7134 70.3922 64.7982 69.3912 65.2135C69.3687 65.2231 69.3494 65.2385 69.3351 65.2581C69.3208 65.2777 69.3121 65.3008 69.31 65.3249L69.244 66.1004C69.2428 66.1178 69.2368 66.1345 69.2267 66.1488C69.2167 66.1631 69.2029 66.1743 69.187 66.1814C69.171 66.1884 69.1534 66.191 69.1361 66.1889C69.1188 66.1867 69.1024 66.1799 69.0886 66.1691C68.7064 65.8675 68.5354 65.4702 68.5758 64.977C68.5785 64.9394 68.5648 64.9092 68.5345 64.8862L68.1371 64.5989C68.1172 64.5843 68.1016 64.5644 68.0919 64.5415C68.0822 64.5185 68.0788 64.4932 68.0821 64.4682C68.221 63.4494 67.5143 63.0974 66.8873 62.4717C66.725 62.3095 66.4734 62.1981 66.2905 62.0455C66.2811 62.0375 66.2695 62.0323 66.2573 62.0305C66.245 62.0288 66.2325 62.0305 66.2211 62.0355C66.2098 62.0405 66.2001 62.0487 66.1932 62.0589C66.1862 62.0692 66.1823 62.0812 66.1819 62.0936L66.1379 63.0602C66.1351 63.1134 66.1562 63.1542 66.2011 63.1826L66.5009 63.3751C66.5192 63.3868 66.5341 63.4031 66.544 63.4225C66.5539 63.4418 66.5585 63.4634 66.5573 63.4851C66.4486 65.1186 64.833 63.8275 64.7478 65.0664C64.7441 65.125 64.7139 65.1461 64.657 65.1296C64.5571 65.0994 64.5122 65.016 64.5223 64.8794C64.5406 64.6163 64.5649 64.3514 64.5951 64.0846C64.6005 64.0391 64.5914 63.9929 64.569 63.9526C64.2376 63.36 63.9255 63.2005 64.1813 62.4429C64.36 61.913 64.4132 61.3983 64.3408 60.8987C64.3345 60.8549 64.3148 60.8145 64.2844 60.7832C63.9461 60.4267 63.5538 60.1915 63.1074 60.0779C62.2045 59.8478 61.3973 59.4633 60.686 58.9243C59.2523 57.838 57.8361 56.7307 56.4373 55.6023C56.4015 55.5729 56.3653 55.5725 56.3286 55.6009C55.6301 56.133 54.9894 56.6335 54.3748 57.2976C53.9196 57.7885 53.4645 58.355 52.898 58.674C52.2417 59.0443 51.5322 59.2799 50.7695 59.3807C49.2144 59.5884 47.7266 59.5196 46.6184 60.7296C46.1665 61.2228 45.6751 61.9318 45.1444 62.8567C43.2936 66.088 42.1359 68.0941 40.7581 70.1662C39.687 71.7764 37.0594 72.7966 35.2017 73.282C35.1559 73.2939 35.1312 73.3232 35.1275 73.37C35.0642 74.1409 35.039 74.9127 35.0519 75.6855C35.0656 76.5119 35.4286 77.3204 35.6651 78.1124C36.0199 79.3017 36.9906 80.2092 37.5956 81.2487C37.6319 81.3112 37.6856 81.3617 37.7501 81.3939C37.8146 81.4262 37.8871 81.4388 37.9586 81.4302C38.5728 81.356 39.1888 81.3299 39.8066 81.3519C39.8264 81.3528 39.8464 81.348 39.8644 81.3381C40.0981 81.2134 40.2828 81.0379 40.4185 80.8115C40.4432 80.7702 40.4772 80.7391 40.5202 80.718C41.1417 80.4237 41.6587 80.4929 42.0712 80.9256C42.4356 81.3079 42.8605 81.4385 43.2194 81.7066C43.3321 81.7919 43.3697 81.8931 43.3321 82.0105C43.3291 82.0202 43.3238 82.0291 43.3166 82.0364C43.3095 82.0437 43.3006 82.0491 43.2909 82.0522C43.2812 82.0553 43.2708 82.056 43.2608 82.0542C43.2507 82.0525 43.2412 82.0483 43.2331 82.0421C42.5607 81.5334 42.2871 82.1521 41.7 82.2291C41.6872 82.2304 41.6754 82.2362 41.6665 82.2455C41.6577 82.2547 41.6524 82.2669 41.6518 82.2797C41.6511 82.2925 41.6551 82.3051 41.6629 82.3152C41.6707 82.3254 41.6819 82.3324 41.6945 82.335C42.2692 82.4684 43.757 83.1077 44.0787 83.6027C44.2754 83.9052 44.1805 84.2861 44.1227 84.6147C44.1137 84.6681 44.1223 84.723 44.1474 84.7711C44.1724 84.8193 44.2125 84.858 44.2616 84.8815C44.747 85.1125 44.5847 85.569 44.4349 85.9856C44.4249 86.0145 44.4052 86.039 44.3792 86.055C44.3533 86.071 44.3225 86.0776 44.2921 86.0735C44.2617 86.0695 44.2335 86.0552 44.2122 86.0329C44.1909 86.0107 44.1778 85.9818 44.175 85.9512C44.0952 85.0492 43.3954 85.0712 42.7051 84.9035C41.9832 84.7302 41.6587 84.0702 40.919 84.1376C40.8832 84.1413 40.8718 84.1596 40.8846 84.1926C41.0854 84.6867 41.3759 85.1143 41.7564 85.4755C42.2995 85.9925 42.5442 86.4338 42.1675 87.1296C42.0919 87.2698 42.0726 87.4954 42.151 87.6329C42.404 88.0848 42.4457 88.5619 42.2761 89.0642C42.2505 89.1403 42.2083 89.182 42.1496 89.1894C42.1349 89.1908 42.12 89.189 42.106 89.1842C42.092 89.1793 42.0792 89.1715 42.0686 89.1613C42.058 89.1511 42.0498 89.1387 42.0445 89.125C42.0393 89.1113 42.0371 89.0967 42.0382 89.0821C42.0758 88.5339 41.8884 88.1311 41.4759 87.8735C41.1376 87.6631 40.6591 87.6892 40.3057 87.4816C39.5834 87.0553 38.8409 86.6814 38.0782 86.3596C38.0654 86.3543 38.0512 86.3531 38.0376 86.356C38.024 86.359 38.0116 86.366 38.0021 86.3761C37.9926 86.3862 37.9863 86.399 37.9842 86.4128C37.9821 86.4265 37.9842 86.4406 37.9902 86.4531C38.1222 86.7217 38.2597 86.9852 38.4027 87.2437C38.8056 87.9725 38.2694 88.6586 37.7812 89.2306C37.7501 89.2673 37.7391 89.3094 37.7482 89.3571C37.8243 89.7449 37.7395 90.0886 37.4939 90.3883C37.3774 90.5304 37.327 90.5098 37.3426 90.3265C37.4059 89.5996 37.1171 89.0931 36.4764 88.8071C36.4277 88.7864 36.3851 88.7532 36.3526 88.7108C36.1812 88.4863 36.0758 88.3093 36.0364 88.1801C35.6706 86.9894 35.0656 85.9911 33.934 85.4315C33.6796 85.305 33.5119 84.8059 33.5146 84.4855C33.5187 83.6632 33.5875 82.7049 33.3799 81.9747C33.1805 81.2721 32.6044 79.9865 31.7615 79.8586C30.8746 79.7239 30.1624 79.8531 29.5436 78.9896C29.2979 78.6459 28.9404 78.4139 28.4711 78.2939C28.4409 78.286 28.4143 78.2678 28.396 78.2425C28.3776 78.2172 28.3687 78.1863 28.3706 78.1551C28.3726 78.1239 28.3853 78.0943 28.4066 78.0715C28.428 78.0486 28.4566 78.0339 28.4876 78.0299C28.94 77.9735 29.3621 77.9666 29.8007 78.1839C30.5089 78.5331 30.9695 78.7875 31.6542 78.6761C31.6667 78.6743 31.6786 78.6696 31.6889 78.6623C31.6993 78.6551 31.7079 78.6455 31.714 78.6344C31.7201 78.6232 31.7236 78.6108 31.7242 78.598C31.7248 78.5852 31.7225 78.5724 31.7175 78.5606L31.5277 78.1206C31.5191 78.1012 31.5052 78.0848 31.4877 78.0731C31.4701 78.0614 31.4497 78.055 31.4287 78.0546C30.8265 78.0464 30.1239 77.9941 29.633 77.6105C29.2269 77.2933 28.7686 77.0733 28.258 76.9505C28.0756 76.9065 27.9555 76.8075 27.8977 76.6535C27.8896 76.6319 27.89 76.608 27.8986 76.5868C27.9073 76.5656 27.9237 76.5486 27.9445 76.5394C28.3166 76.3753 28.6865 76.395 29.0541 76.5985C29.5409 76.868 30.0634 76.9693 30.6216 76.9024C30.6684 76.8969 30.6881 76.8707 30.6807 76.824C30.6147 76.3987 30.3892 76.1424 30.0042 76.0554C29.3085 75.8986 28.6114 75.812 28.0504 75.3294C27.7148 75.0434 27.4192 74.932 27.0246 74.8027C27.0014 74.7952 26.981 74.7808 26.9662 74.7614C26.9514 74.7419 26.9429 74.7184 26.9418 74.694C26.9408 74.6696 26.9472 74.6455 26.9603 74.6248C26.9734 74.6042 26.9925 74.5881 27.015 74.5786C28.1741 74.096 28.9084 75.0076 29.9795 74.7904C30.0299 74.7803 30.0386 74.756 30.0056 74.7175C29.1435 73.7027 29.1201 72.0472 29.457 70.829C29.6962 69.9669 31.9237 69.5269 32.7955 69.2134C34.6724 68.5396 34.5802 66.2296 33.505 64.9316C32.8285 64.1135 32.8615 62.1115 32.9124 61.116C32.9131 61.1063 32.9112 61.0966 32.9069 61.0879C32.9025 61.0792 32.8959 61.0719 32.8877 61.0667C32.8795 61.0614 32.8701 61.0585 32.8604 61.0583C32.8507 61.058 32.8411 61.0604 32.8326 61.0651C30.2779 62.4497 26.8775 62.2669 25.6812 59.1704C25.1023 57.6702 25.2536 56.265 25.6317 54.6631C25.7266 54.2616 25.4832 53.834 25.2027 53.449C24.6674 52.7138 24.4346 51.8742 24.5042 50.93C24.5088 50.8713 24.5303 50.8645 24.5688 50.9094L24.8163 51.1995C24.8308 51.2167 24.8491 51.2303 24.87 51.2394C25.453 51.4924 25.8265 51.9154 25.9906 52.5085C26.113 52.9458 26.234 53.218 26.6877 53.2428C26.74 53.2464 26.7711 53.2226 26.7812 53.1713Z" fill="white"/>
<path d="M74.9109 35.0597C75.2537 35.1019 75.4999 35.2838 75.6493 35.6056C75.6777 35.667 75.6575 35.6982 75.5888 35.6991C75.4843 35.7009 75.3866 35.6716 75.2959 35.6111C75.2895 35.6075 75.2825 35.6051 75.2753 35.6042L74.7995 35.5767C74.7546 35.574 74.712 35.5836 74.6716 35.6056C74.4663 35.7165 74.2399 35.7417 73.9924 35.6812C73.9401 35.6675 73.9062 35.6863 73.8906 35.7376C73.8366 35.9044 73.7289 36.0328 73.5675 36.1226C73.5299 36.1437 73.4901 36.1524 73.4479 36.1487L72.781 36.102C72.7329 36.0984 72.685 36.1105 72.6443 36.1362C72.6037 36.162 72.5725 36.2001 72.5555 36.245C72.1925 37.1868 71.725 37.7643 70.8381 38.3281C68.8169 39.6123 67.7155 41.6666 66.4423 43.5627C66.0133 44.2021 65.6516 44.7988 65.4165 45.5551C65.0013 46.8971 64.9243 48.0342 63.3334 48.4715C62.6775 48.6516 62.276 48.6282 61.7659 49.1617C61.7566 49.1721 61.7437 49.1786 61.7298 49.1798C61.7159 49.1811 61.7021 49.177 61.6911 49.1685C61.6801 49.1599 61.6728 49.1475 61.6706 49.1337C61.6684 49.12 61.6715 49.1059 61.6792 49.0943C62.034 48.5347 62.0326 48.1717 61.9419 47.4498C61.8438 46.6762 62.1403 46.068 62.8315 45.6252C62.9736 45.5345 63.0387 45.3534 63.0268 45.0821C62.9947 44.302 62.6899 43.659 62.1124 43.153C62.0949 43.1376 62.0819 43.1178 62.0747 43.0958C62.0674 43.0738 62.0662 43.0504 62.0711 43.0278C62.1577 42.6607 62.749 42.3885 63.0446 42.3046C63.0914 42.2918 63.1083 42.262 63.0955 42.2152C62.8132 41.1922 62.3273 40.2774 61.638 39.4707C61.594 39.4185 61.6055 39.3988 61.6724 39.4116C62.0262 39.4776 62.265 39.4657 62.3887 39.3758C64.7162 37.6892 66.2264 36.5516 66.9194 35.9631C67.0935 35.8146 67.3956 35.4181 67.8255 34.7737C68.5625 33.671 67.8998 32.5627 67.5161 31.4888C67.2356 30.7065 67.204 30.0753 67.974 29.656C67.9938 29.6449 68.0095 29.6278 68.0186 29.6072C68.0278 29.5866 68.03 29.5637 68.0249 29.5418C67.9085 29.0707 68.0693 28.7416 68.5075 28.5546C68.5174 28.5504 68.5282 28.5486 68.5389 28.5495C68.5496 28.5503 68.56 28.5537 68.5692 28.5593C68.5783 28.565 68.586 28.5727 68.5915 28.582C68.5971 28.5912 68.6003 28.6016 68.601 28.6123L68.645 29.2242C68.6478 29.2673 68.6643 29.3049 68.6945 29.337C68.9296 29.59 69.4178 29.6037 69.4755 29.9956C69.4823 30.036 69.5033 30.0727 69.5348 30.099C69.5663 30.1253 69.6061 30.1394 69.6471 30.1389C69.6881 30.1384 69.7275 30.1233 69.7584 30.0963C69.7892 30.0692 69.8093 30.0321 69.8151 29.9915C69.9187 29.1316 70.4183 28.7751 71.3139 28.9217C71.3616 28.9291 71.3968 28.9116 71.4198 28.8695C71.5637 28.6101 71.7837 28.4689 72.0798 28.446C72.0933 28.445 72.1068 28.4479 72.1187 28.4544C72.1306 28.4608 72.1405 28.4705 72.1471 28.4823C72.1537 28.4941 72.1569 28.5076 72.1561 28.5211C72.1554 28.5346 72.1509 28.5477 72.143 28.5587L71.8268 28.9877C71.8095 29.0111 71.8012 29.0398 71.8032 29.0688C71.8052 29.0978 71.8175 29.1251 71.8378 29.1458C72.3809 29.6945 72.0358 30.2733 71.549 30.7051C71.516 30.7344 71.4968 30.7716 71.4913 30.8165L71.439 31.2922C71.4382 31.3028 71.4406 31.3134 71.4458 31.3226C71.4511 31.3319 71.4589 31.3393 71.4684 31.3439C71.4778 31.3486 71.4883 31.3502 71.4985 31.3486C71.5088 31.3469 71.5182 31.3422 71.5256 31.3348C72.1169 30.7422 73.221 30.1193 73.9003 30.9856C74.1661 31.3238 74.3847 31.6864 74.5561 32.0732C74.5763 32.1181 74.6107 32.1374 74.6593 32.131C75.0979 32.065 75.3179 32.417 75.1886 32.813C75.1854 32.8232 75.1796 32.8324 75.1717 32.8397C75.1637 32.8469 75.154 32.8519 75.1435 32.8541C75.133 32.8564 75.1221 32.8558 75.1119 32.8524C75.1017 32.849 75.0926 32.843 75.0855 32.835C74.8499 32.5746 74.6382 32.6044 74.4503 32.9243C74.4398 32.942 74.425 32.9566 74.4074 32.9667C74.3898 32.9768 74.37 32.9821 74.3499 32.9821H73.9649C73.9006 32.9822 73.8383 33.0048 73.7886 33.0459C73.739 33.087 73.7051 33.1442 73.6926 33.2076C73.6477 33.4413 73.5171 33.6008 73.3008 33.6861C73.2684 33.6986 73.2399 33.7194 73.2181 33.7463C73.1963 33.7733 73.182 33.8055 73.1766 33.8398C73.1711 33.874 73.1748 33.9091 73.1872 33.9415C73.1996 33.9739 73.2202 34.0025 73.2471 34.0243C73.3503 34.1096 73.4878 34.1563 73.6349 34.1453C74.3554 34.0958 74.5176 34.4355 74.8146 34.9923C74.8348 35.0318 74.8669 35.0542 74.9109 35.0597Z" fill="white"/>
<path d="M64.5828 31.5549C64.593 31.5553 64.603 31.5579 64.6122 31.5625C64.6213 31.5671 64.6294 31.5736 64.6359 31.5815C64.6423 31.5894 64.6471 31.5986 64.6498 31.6084C64.6525 31.6183 64.6531 31.6286 64.6515 31.6387C64.6396 31.7212 64.5897 31.7547 64.5017 31.7391C64.4577 31.7318 64.4146 31.735 64.3724 31.7487C63.9695 31.8849 63.7715 32.2245 63.4759 32.3826C62.325 33.0014 61.0573 32.1667 60.0013 31.6374C59.8189 31.5457 59.614 31.493 59.3866 31.4792C58.8055 31.4462 58.2344 31.3537 57.6734 31.2015C57.6202 31.1868 57.6175 31.1653 57.6651 31.1369C58.244 30.8 59.2794 30.2857 59.938 30.6817C60.3753 30.9457 60.7507 31.3527 61.2044 31.5081C62.347 31.9027 63.4223 31.5026 64.5828 31.5549Z" fill="white"/>
<path d="M51.9947 44.4303C52.1954 43.8459 52.8279 41.4919 52.5983 40.9969C52.5921 40.983 52.5908 40.9674 52.5944 40.9526C52.5981 40.9378 52.6066 40.9246 52.6186 40.9152C52.6305 40.9057 52.6453 40.9005 52.6605 40.9004C52.6758 40.9003 52.6906 40.9052 52.7028 40.9144C54.0695 41.9979 55.0128 42.9824 54.3679 44.8772C53.8619 46.3663 51.7059 48.085 50.434 48.9059C49.6255 49.4284 48.7139 49.8152 47.6991 50.0664C47.6341 50.082 47.6139 50.0586 47.6386 49.9963C47.8834 49.3904 47.9879 48.7615 47.9521 48.1098C47.9494 48.0539 47.9728 48.014 48.0223 47.9902C49.5733 47.2284 51.4474 46.0212 51.9947 44.4303Z" fill="white"/>
<path d="M55.9243 45.3336C55.8785 45.3345 55.8404 45.3189 55.8102 45.2868C55.7937 45.2694 55.785 45.2446 55.7841 45.2126C55.7483 44.4737 55.614 43.7583 55.3812 43.0662C55.3767 43.052 55.3762 43.0369 55.3798 43.0225C55.3833 43.0081 55.3907 42.9949 55.4012 42.9845C55.4117 42.974 55.4249 42.9665 55.4393 42.963C55.4537 42.9595 55.4688 42.96 55.4829 42.9644C56.1136 43.1661 56.698 43.4805 57.2361 43.9077C57.3942 44.0342 57.7091 44.1593 57.9469 44.2294C58.6198 44.4256 59.1831 44.6195 59.6368 44.8111C60.1607 45.0324 60.3078 45.7516 60.4811 46.2411C60.6736 46.7883 60.8729 47.8773 60.3119 48.2568C60.2734 48.2834 60.2322 48.288 60.1882 48.2706C60.1213 48.2449 60.0777 48.194 60.0576 48.1179C60.0475 48.0776 60.0287 48.0414 60.0012 48.0093C59.5667 47.4923 58.9424 46.8309 58.3347 46.8309C58.0831 46.8309 57.9593 46.8131 57.7668 46.6316C57.2315 46.1274 56.6375 45.6998 55.9848 45.3487C55.9659 45.3388 55.9451 45.3336 55.9243 45.3336Z" fill="white"/>
<path d="M52.6919 48.6158C52.6822 48.6071 52.6745 48.5966 52.669 48.5848C52.6636 48.573 52.6606 48.5603 52.6602 48.5473C52.6598 48.5343 52.6621 48.5214 52.6668 48.5093C52.6715 48.4972 52.6787 48.4862 52.6878 48.477C53.3175 47.8362 53.972 47.2074 54.6513 46.5905C55.1353 46.1518 56.0345 46.3113 56.4993 46.6702C57.4123 47.377 57.3724 48.8716 56.7303 49.7337C56.3306 50.2718 55.7128 50.9313 54.8768 51.7123C54.8709 51.7183 54.8632 51.7221 54.855 51.7231C54.8467 51.7241 54.8384 51.7224 54.8312 51.7181C54.8241 51.7138 54.8186 51.7073 54.8156 51.6995C54.8127 51.6917 54.8124 51.6832 54.8149 51.6752C54.9194 51.3113 54.9212 50.9469 54.8204 50.5821C54.8114 50.5507 54.7942 50.523 54.7709 50.5023L52.6919 48.6158Z" fill="white"/>
<path d="M65.3898 79.1036L65.5108 79.127C65.5253 79.1296 65.5391 79.1355 65.5511 79.144C65.5631 79.1526 65.573 79.1637 65.5803 79.1766C65.5875 79.1895 65.5918 79.2038 65.5928 79.2185C65.5939 79.2332 65.5917 79.248 65.5864 79.2617L65.4379 79.6522C65.4196 79.7008 65.4352 79.7334 65.4847 79.7499C66.0035 79.9213 66.2024 80.2916 66.0814 80.8609C66.0767 80.8817 66.077 80.9033 66.0823 80.9241C66.0875 80.9449 66.0976 80.9642 66.1117 80.9805C66.3335 81.2353 66.3844 81.5309 66.2643 81.8674C66.2611 81.8768 66.2552 81.8852 66.2473 81.8913C66.2394 81.8974 66.2298 81.9011 66.2198 81.9018C66.2099 81.9025 66.1999 81.9003 66.1912 81.8954C66.1824 81.8905 66.1754 81.8831 66.1708 81.8742L65.9549 81.4645C65.9355 81.4274 65.9019 81.3993 65.8614 81.3861C65.668 81.3219 65.4828 81.3412 65.3059 81.4439C65.2708 81.4645 65.2304 81.4755 65.1891 81.4755C64.3159 81.47 64.9196 80.2132 63.7027 80.392C63.6523 80.3993 63.6225 80.4282 63.6133 80.4786C63.4332 81.5291 64.3283 81.8247 64.4273 82.6814C64.4727 83.0636 64.4466 83.5008 64.0396 83.6658C64.0197 83.6739 64.0027 83.6878 63.9909 83.7058C63.9792 83.7237 63.9731 83.7448 63.9736 83.7662L63.9956 84.506C63.9958 84.5473 63.9803 84.5871 63.9522 84.6173C63.9241 84.6476 63.8855 84.666 63.8443 84.6688C63.8031 84.6716 63.7624 84.6586 63.7305 84.6324C63.6985 84.6063 63.6778 84.5689 63.6724 84.528C63.6385 84.1998 63.4694 83.9619 63.1651 83.8143C63.1247 83.7942 63.0826 83.7887 63.0386 83.7978C62.7214 83.8657 62.3992 83.8826 62.0719 83.8487C62.0204 83.8434 61.9723 83.8206 61.9358 83.7841C61.3652 83.2258 60.8743 82.9233 60.0685 83.252C60.0227 83.2703 60.0071 83.3028 60.0218 83.3496C60.2445 84.0962 60.2528 84.8236 59.4745 85.1783C59.452 85.1886 59.4329 85.2052 59.4195 85.2262C59.4061 85.2472 59.399 85.2716 59.3989 85.2966V85.7462C59.3989 85.7635 59.3935 85.7804 59.3834 85.7945C59.3732 85.8085 59.3589 85.819 59.3425 85.8245C59.3261 85.83 59.3084 85.8301 59.2918 85.825C59.2753 85.8198 59.2608 85.8096 59.2504 85.7957C58.8975 85.3236 58.7692 84.792 58.8654 84.2007C58.8748 84.1422 58.8698 84.0822 58.8509 84.026C58.8319 83.9697 58.7997 83.9188 58.7568 83.8776L58.1229 83.274C58.0789 83.2327 58.0629 83.1819 58.0748 83.1214C58.1362 82.8106 58.0895 82.5599 57.9345 82.3692C57.2406 81.5131 56.5472 80.8196 55.8542 80.2888C55.0388 79.6646 54.4943 80.2421 53.6445 80.1734C52.8842 80.1129 52.2572 79.6907 51.5628 80.2352C51.4885 80.293 51.4583 80.2751 51.472 80.1816C51.5518 79.616 51.8914 79.3525 52.4909 79.391C52.5117 79.3927 52.5327 79.39 52.5526 79.3829C52.5725 79.3758 52.5909 79.3645 52.6064 79.3497C52.9318 79.0472 53.3164 78.9469 53.76 79.0486C53.7883 79.0548 53.8178 79.0515 53.844 79.0393C53.8703 79.0271 53.8918 79.0066 53.9052 78.981C53.9186 78.9553 53.9233 78.926 53.9184 78.8975C53.9136 78.869 53.8995 78.8428 53.8783 78.8231C52.9337 77.9582 52.3644 78.83 51.4899 78.9469C50.9867 79.0138 50.532 78.8909 50.1259 78.5784C50.0645 78.5307 50.0727 78.5091 50.1507 78.5137C50.9454 78.5619 51.1365 78.0325 51.7759 77.73C51.8107 77.7135 51.8121 77.6938 51.78 77.6709C50.6869 76.8857 49.6639 78.4862 48.5405 77.0906C48.5239 77.0699 48.5141 77.0446 48.5125 77.0181C48.5109 76.9916 48.5176 76.9653 48.5317 76.9427C48.5457 76.9202 48.5665 76.9026 48.591 76.8924C48.6155 76.8822 48.6425 76.8799 48.6684 76.8857C49.0406 76.9691 49.3995 76.9371 49.745 76.7895C50.5164 76.4595 50.2662 75.8462 49.7038 75.5039C49.3032 75.26 48.9686 74.9644 48.7 74.617C48.6438 74.5443 48.6171 74.453 48.6253 74.3612C48.6334 74.2695 48.6758 74.1841 48.744 74.122L49.1222 73.7796C49.1419 73.7617 49.1663 73.7502 49.1923 73.7466C49.6378 73.6957 50.5205 73.8869 50.8244 73.4056C50.8475 73.3692 50.8567 73.3253 50.8505 73.2819C50.7103 72.2864 49.3023 70.91 48.4732 70.1345C47.2453 68.9877 45.9335 68.6357 44.399 68.3759C44.372 68.3713 44.3464 68.3604 44.3243 68.3442C44.3023 68.3279 44.2843 68.3066 44.272 68.2821C44.2597 68.2576 44.2533 68.2305 44.2534 68.2031C44.2535 68.1757 44.2601 68.1487 44.2725 68.1242C44.6905 67.3102 44.9999 66.532 45.3093 65.652C45.8373 64.1532 47.5945 61.483 49.5113 61.9395C51.8887 62.506 56.3712 64.2536 57.2154 66.8372C57.5303 67.7984 57.2113 69.2091 56.8662 70.151C56.2557 71.8134 55.0388 73.462 56.3313 75.178C57.0202 76.0924 57.9978 77.4619 59.1377 77.8029C60.2817 78.1452 61.5109 78.1054 62.6219 77.6337C62.8328 77.5448 62.9964 77.4999 63.1128 77.499C64.0629 77.4949 65.1258 77.2804 65.5301 78.4312C65.5447 78.4716 65.5727 78.4968 65.6139 78.5069C65.9723 78.5903 66.191 78.8144 66.2698 79.1792C66.2845 79.248 66.2661 79.2585 66.2148 79.2109C66.0012 79.0129 65.7688 78.9033 65.5177 78.8822C65.4168 78.8731 65.3563 78.9207 65.3362 79.0252C65.327 79.0692 65.3449 79.0954 65.3898 79.1036Z" fill="white"/>
</svg>
