<svg width="100" height="100" viewBox="0 0 100 100" fill="none" xmlns="http://www.w3.org/2000/svg">
<rect width="100" height="100" fill="#2D3695"/>
<path d="M53.0872 41.2164C54.9706 42.8931 55.3839 44.9214 54.3272 47.3014C53.2172 49.8013 48.7672 49.0963 46.4722 49.0314C46.4103 49.0288 46.3518 49.0023 46.3089 48.9576C46.266 48.9129 46.2421 48.8533 46.2422 48.7914V40.6764C46.2422 40.4597 46.3489 40.3547 46.5622 40.3614C48.4672 40.4164 51.6722 39.9564 53.0872 41.2164Z" fill="white"/>
<path fill-rule="evenodd" clip-rule="evenodd" d="M60.4411 42.7963C60.8461 45.5863 60.5361 49.2013 57.4311 50.2263C57.3979 50.2374 57.3683 50.2575 57.3458 50.2843C57.3232 50.3112 57.3086 50.3438 57.3034 50.3785C57.2982 50.4131 57.3027 50.4486 57.3164 50.4808C57.3302 50.5131 57.3525 50.5409 57.3811 50.5613C60.1055 52.4025 60.3676 54.4821 60.7334 57.3844C60.757 57.5715 60.781 57.7621 60.8061 57.9562C61.0561 59.8912 62.2011 60.4212 64.0811 60.4262C66.5645 60.4296 68.9428 60.4296 71.2162 60.4262C71.6763 60.4229 72.1285 60.3115 72.5362 60.1012L91.5263 50.3063C91.5514 50.2932 91.5725 50.2735 91.5872 50.2492C91.6019 50.225 91.6097 50.1971 91.6097 50.1688C91.6097 50.1404 91.6019 50.1126 91.5872 50.0884C91.5725 50.0641 91.5514 50.0444 91.5263 50.0313L50.9061 29.1264C50.741 29.0417 50.5579 28.9983 50.3724 29.0001C50.1868 29.0018 50.0045 29.0486 49.8411 29.1364C44.0411 32.2197 38.1977 35.2197 32.311 38.1364C32.3031 38.1383 32.2962 38.1434 32.292 38.1505C32.2878 38.1575 32.2865 38.1659 32.2885 38.1739C32.2905 38.1818 32.2956 38.1887 32.3026 38.1929C32.3096 38.1971 32.3181 38.1983 32.326 38.1964C39.706 38.1797 46.8661 38.1747 53.8061 38.1814C57.4911 38.1864 59.8761 38.9364 60.4411 42.7963ZM72.8163 55.0113C66.3913 59.8662 60.5162 51.5963 64.8563 46.0313C67.8263 42.2263 70.8313 43.7213 73.7113 46.3263C74.0113 46.5963 74.2563 46.563 74.4463 46.2263C74.4993 46.1321 74.5262 46.0255 74.5245 45.9175C74.5227 45.8094 74.4923 45.7037 74.4363 45.6113L72.1263 41.7813C72.1096 41.754 72.0874 41.7304 72.0612 41.7119C72.035 41.6934 72.0053 41.6805 71.9739 41.674C71.9425 41.6674 71.9101 41.6673 71.8787 41.6738C71.8473 41.6802 71.8176 41.693 71.7913 41.7113C70.4713 42.6463 69.5863 42.9413 67.8763 42.5313C65.6229 41.998 63.4663 42.3563 61.4063 43.6063C61.3384 43.6479 61.2816 43.7051 61.2407 43.773C61.1998 43.8409 61.176 43.9175 61.1712 43.9963C61.165 44.1143 61.1589 44.2306 61.1529 44.3453C61.0121 47.0537 60.9186 48.8505 58.7312 50.4863C58.5846 50.5963 58.5796 50.7129 58.7162 50.8363C60.2662 52.2296 61.0929 53.9746 61.1963 56.0712C61.21 56.3368 61.2923 56.5943 61.4352 56.8186C61.578 57.0429 61.7764 57.2264 62.0112 57.3512C67.6213 60.3212 74.4913 59.0012 76.8263 52.5663C76.8806 52.4244 76.8805 52.2675 76.8259 52.1257C76.7714 51.9839 76.6663 51.8674 76.531 51.7984C76.3956 51.7295 76.2395 51.7131 76.0928 51.7524C75.9461 51.7917 75.8191 51.8839 75.7363 52.0113C75.0096 53.0879 74.0363 54.0879 72.8163 55.0113Z" fill="white"/>
<path fill-rule="evenodd" clip-rule="evenodd" d="M40.3613 59.2112L40.3763 58.0262C40.3761 57.9474 40.4061 57.8714 40.4599 57.8138C40.5138 57.7562 40.5876 57.7213 40.6663 57.7163L42.5113 57.5813C42.7747 57.5646 42.908 57.4229 42.9113 57.1563L42.9913 43.9963C42.9913 43.9442 43.0046 43.893 43.0299 43.8474C43.0553 43.8019 43.092 43.7637 43.1363 43.7363L43.7813 43.3263C43.9394 43.2269 44.0615 43.0796 44.1299 42.9058C44.1982 42.732 44.2091 42.5409 44.1611 42.3605C44.1131 42.18 44.0085 42.0197 43.8629 41.9029C43.7172 41.7861 43.5379 41.719 43.3513 41.7113L40.6363 41.5913C40.473 41.5847 40.343 41.5147 40.2463 41.3813L39.0513 39.7764C38.9977 39.7071 38.9303 39.6499 38.8536 39.6085C38.7769 39.5672 38.6927 39.5426 38.6063 39.5364C38.4286 39.5237 38.2441 39.5102 38.0537 39.4962C35.0834 39.2782 30.6763 38.9548 28.1813 40.2564C21.8746 43.5397 15.5262 46.768 9.1362 49.9413C9.09555 49.9625 9.06129 49.9943 9.03718 50.0333C9.01307 50.0723 9.00004 50.117 8.99953 50.1625C8.99901 50.2079 9.01103 50.2524 9.03425 50.291C9.05748 50.3296 9.09102 50.3608 9.13119 50.3813L50.1814 71.3062C50.348 71.3928 50.5164 71.3928 50.6864 71.3062L69.7014 61.6162C69.7169 61.6101 69.7298 61.5987 69.7376 61.5839C69.7454 61.5692 69.7477 61.5522 69.7441 61.5359C69.7405 61.5196 69.7312 61.5052 69.7179 61.4952C69.7045 61.4851 69.6881 61.4802 69.6714 61.4812C66.1414 61.4279 62.5997 61.4096 59.0464 61.4262C55.7696 61.4411 55.2273 58.9152 54.6834 56.3819C54.3111 54.6476 53.938 52.9099 52.6864 51.9813C51.6779 51.2329 49.6155 51.3238 47.9991 51.395C47.596 51.4128 47.2207 51.4293 46.8963 51.4313C46.6963 51.4313 46.598 51.5313 46.6013 51.7313L46.7263 59.8212C46.7297 60.0312 46.8047 60.2096 46.9513 60.3562C47.4713 60.8762 48.123 61.0979 48.9063 61.0212C48.9215 61.0192 48.9369 61.0213 48.951 61.0273C48.9652 61.0333 48.9776 61.043 48.9871 61.0555C48.9966 61.068 49.0029 61.0829 49.0054 61.0988C49.0079 61.1147 49.0065 61.131 49.0014 61.1462C48.988 61.1896 48.973 61.2329 48.9563 61.2762C48.923 61.3696 48.8563 61.4179 48.7563 61.4212C44.9297 61.4312 41.103 61.4112 37.2763 61.3612C37.183 61.3612 37.1346 61.2846 37.1313 61.1312C37.1312 61.0991 37.1378 61.0672 37.1505 61.0377C37.1632 61.0082 37.1819 60.9816 37.2053 60.9595C37.2288 60.9375 37.2565 60.9205 37.2868 60.9096C37.317 60.8987 37.3492 60.8942 37.3813 60.8962C38.5746 60.9629 39.5213 60.5362 40.2213 59.6162C40.3146 59.4962 40.3613 59.3612 40.3613 59.2112ZM41.381 44.0966L41.321 51.9365L41.336 53.0665C41.346 53.6999 41.176 53.7515 40.826 53.2215L34.191 43.1616C34.1521 43.1043 34.1002 43.0568 34.0395 43.023C33.9787 42.9891 33.9108 42.9698 33.841 42.9666L29.971 42.8316C29.9325 42.8298 29.8944 42.8392 29.8612 42.8586C29.828 42.878 29.801 42.9065 29.7836 42.9408C29.7662 42.9751 29.759 43.0137 29.763 43.052C29.767 43.0903 29.7819 43.1266 29.806 43.1566L30.101 43.5266C30.1943 43.6466 30.241 43.7816 30.241 43.9316V55.4765C30.2409 55.5999 30.2024 55.719 30.131 55.8165L29.551 56.5865C29.5266 56.6177 29.5118 56.655 29.5082 56.6943C29.5047 56.7337 29.5124 56.7733 29.5307 56.8088C29.549 56.8443 29.577 56.8741 29.6115 56.8949C29.646 56.9158 29.6857 56.9267 29.726 56.9265H31.996C32.2293 56.9265 32.291 56.8248 32.181 56.6215L31.776 55.8615C31.6793 55.6782 31.6293 55.4815 31.626 55.2715L31.591 46.5166C31.5916 46.4846 31.6024 46.4536 31.6218 46.4282C31.6413 46.4029 31.6683 46.3843 31.699 46.3754C31.7298 46.3665 31.7625 46.3676 31.7925 46.3786C31.8226 46.3896 31.8483 46.4099 31.866 46.4366L38.216 56.4715C38.3254 56.6459 38.4792 56.7882 38.6619 56.8839C38.8446 56.9797 39.0496 57.0254 39.256 57.0165L42.011 56.8915C42.1643 56.8848 42.241 56.8048 42.241 56.6515V43.7166C42.2412 43.6561 42.2553 43.5966 42.2822 43.5428C42.3091 43.489 42.348 43.4424 42.396 43.4066L43.281 42.7216C43.3161 42.6945 43.3419 42.6572 43.355 42.6149C43.368 42.5726 43.3677 42.5272 43.354 42.4851C43.3403 42.443 43.314 42.4061 43.2785 42.3795C43.2431 42.3529 43.2003 42.3379 43.156 42.3366L40.591 42.2116C40.5037 42.2089 40.4183 42.2376 40.3503 42.2924C40.2824 42.3473 40.2364 42.4247 40.2206 42.5107C40.2049 42.5966 40.2205 42.6853 40.2646 42.7607C40.3087 42.8361 40.3784 42.8932 40.461 42.9216C41.0877 43.1282 41.3943 43.5199 41.381 44.0966Z" fill="white"/>
</svg>
