<svg width="100" height="100" viewBox="0 0 100 100" fill="none" xmlns="http://www.w3.org/2000/svg">
<g clip-path="url(#clip0_86_3465)">
<rect width="100" height="100" fill="#DD9641"/>
<g clip-path="url(#clip1_86_3465)">
<circle cx="50" cy="55" r="52" fill="white"/>
<ellipse cx="51" cy="140.5" rx="57" ry="56.5" fill="#296F57"/>
<path d="M104.277 35.0786C113.188 57.5424 107.578 82.9361 89.6818 99.3524C89.6719 99.3614 89.659 99.3664 89.6456 99.3664C89.6322 99.3664 89.6192 99.3614 89.6093 99.3524C81.0706 91.6724 70.4493 86.4636 59.0218 84.9199C58.9752 84.9141 58.9489 84.8878 58.9431 84.8411C58.8248 84.0011 58.6814 83.167 58.5131 82.3386C58.2293 80.9386 58.7206 79.9061 59.5781 78.8474C59.603 78.8168 59.6155 78.778 59.6132 78.7387C59.6109 78.6994 59.5939 78.6623 59.5656 78.6349C58.9893 78.0799 58.3906 77.9224 57.6643 77.6911C57.6227 77.6778 57.6031 77.649 57.6056 77.6049C57.6806 76.3907 57.7481 75.1795 57.8081 73.9711C57.8681 72.7574 58.0306 71.9874 58.8306 71.1836C58.8639 71.1503 58.8673 71.1149 58.8406 71.0774C58.4498 70.5241 57.9173 70.1886 57.2431 70.0711C57.225 70.068 57.2088 70.0583 57.1976 70.0439C57.1865 70.0295 57.1813 70.0116 57.1831 69.9936C57.2539 69.2395 57.2718 68.6153 57.2368 68.1211C57.0568 65.5686 56.7698 63.2611 56.3756 61.1986C56.2898 60.7511 56.096 60.259 55.7943 59.7224C55.1102 58.5024 54.3685 57.3174 53.5693 56.1674C53.5443 56.1315 53.5343 56.0915 53.5393 56.0474C53.8343 53.4857 54.7756 51.1928 56.3631 49.1686C56.3677 49.1625 56.3736 49.1574 56.3804 49.1537C56.3872 49.15 56.3947 49.1477 56.4025 49.1471C56.4103 49.1466 56.4182 49.1476 56.4256 49.1502C56.433 49.1529 56.4398 49.157 56.4456 49.1624C57.9256 50.5524 58.9635 52.2203 59.5593 54.1661C59.5618 54.1737 59.5667 54.1803 59.5733 54.1849C59.5799 54.1894 59.5878 54.1917 59.5958 54.1912C59.6038 54.1908 59.6114 54.1877 59.6175 54.1825C59.6235 54.1773 59.6277 54.1702 59.6293 54.1624C59.8768 52.7211 60.0768 51.2349 59.9443 49.7811C59.9435 49.7755 59.9444 49.7698 59.9467 49.7647C59.949 49.7595 59.9527 49.7551 59.9574 49.752C59.9621 49.7488 59.9676 49.7471 59.9732 49.7469C59.9789 49.7468 59.9845 49.7482 59.9893 49.7511C62.7881 51.3649 65.4231 53.7849 66.7593 56.7749C66.7622 56.7817 66.7673 56.7874 66.7738 56.791C66.7803 56.7945 66.7878 56.7957 66.7951 56.7944C66.8024 56.7931 66.809 56.7893 66.8139 56.7837C66.8188 56.7781 66.8216 56.771 66.8218 56.7636C66.9456 55.2386 67.0818 53.3999 66.8131 51.8949C66.8114 51.885 66.8126 51.8748 66.8166 51.8656C66.8205 51.8564 66.827 51.8485 66.8353 51.8428C66.8435 51.8372 66.8533 51.834 66.8633 51.8337C66.8733 51.8334 66.8832 51.836 66.8918 51.8411C70.5206 54.0686 72.8506 57.8674 73.4193 62.0536C73.5135 62.7436 73.5814 63.6082 73.6231 64.6474C73.6264 64.7207 73.6506 64.7286 73.6956 64.6711C75.0689 62.9345 75.9039 60.9657 76.2006 58.7649C76.2015 58.7595 76.204 58.7545 76.2078 58.7507C76.2116 58.7468 76.2165 58.7442 76.2219 58.7432C76.2272 58.7423 76.2327 58.743 76.2376 58.7453C76.2426 58.7476 76.2467 58.7514 76.2493 58.7561C78.4631 62.9174 79.7331 67.8436 79.2481 72.5736C79.2468 72.5826 79.2488 72.5918 79.2536 72.5995C79.2584 72.6072 79.2657 72.613 79.2744 72.6159C79.283 72.6187 79.2924 72.6184 79.3008 72.615C79.3093 72.6116 79.3163 72.6054 79.3206 72.5974C80.8268 69.9786 81.1293 66.9624 81.2181 64.0099C81.2206 63.9365 81.2435 63.9295 81.2868 63.9886C83.5743 67.0911 84.9793 71.2699 85.4393 75.0611C85.4392 75.0684 85.4419 75.0755 85.4469 75.0808C85.452 75.086 85.4589 75.0891 85.4662 75.0893C85.4735 75.0894 85.4806 75.0867 85.4858 75.0816C85.4911 75.0766 85.4942 75.0697 85.4943 75.0624C86.6918 68.4911 84.9981 61.7111 81.1743 56.4311C75.8931 49.1361 66.7693 45.2399 58.2256 43.2599C58.2189 43.2581 58.213 43.2541 58.2089 43.2484C58.2048 43.2428 58.2029 43.2359 58.2033 43.229C58.2038 43.222 58.2066 43.2155 58.2113 43.2104C58.2161 43.2053 58.2224 43.202 58.2293 43.2011C62.0631 42.7399 65.9893 43.0574 69.6043 44.4699C69.6527 44.489 69.6643 44.4757 69.6393 44.4299C68.8443 42.9465 67.8056 41.6611 66.5231 40.5736C66.4564 40.5178 66.4664 40.4845 66.5531 40.4736C71.6568 39.8561 76.5381 42.0399 79.6618 46.0486C79.7602 46.1745 79.8093 46.1574 79.8093 45.9974C79.8093 43.7499 79.1906 41.6995 77.9531 39.8461C77.9509 39.8431 77.9498 39.8394 77.95 39.8356C77.9501 39.8319 77.9516 39.8283 77.9541 39.8254C77.9566 39.8225 77.96 39.8203 77.9639 39.8194C77.9678 39.8184 77.9719 39.8185 77.9756 39.8199C82.1493 41.6124 86.7368 44.5486 88.9881 48.5911C89.1147 48.8186 89.1627 48.8032 89.1318 48.5449C88.7793 45.6011 87.0181 43.1111 85.2018 40.8961C85.1956 40.8885 85.1919 40.879 85.1914 40.8692C85.1909 40.8593 85.1935 40.8495 85.199 40.8413C85.2044 40.833 85.2124 40.8267 85.2217 40.8233C85.231 40.8199 85.2411 40.8196 85.2506 40.8224C89.0656 41.9199 92.6518 44.1524 95.5968 46.8899C95.6021 46.8943 95.6088 46.8968 95.6157 46.897C95.6226 46.8971 95.6293 46.8949 95.6347 46.8906C95.6402 46.8863 95.644 46.8803 95.6455 46.8736C95.647 46.8669 95.6462 46.8598 95.6431 46.8536C92.7931 41.5836 88.1368 37.3724 82.5881 35.1036L82.4831 34.9286C82.4783 34.9207 82.4752 34.9118 82.4742 34.9025C82.4732 34.8933 82.4742 34.8839 82.4772 34.8751C82.4801 34.8663 82.485 34.8582 82.4914 34.8515C82.4978 34.8448 82.5057 34.8395 82.5143 34.8361C82.6368 34.7878 82.7643 34.764 82.8968 34.7649C84.7831 34.7699 86.7331 34.6686 88.6068 34.8774C88.641 34.8815 88.6735 34.8765 88.7043 34.8624L88.8531 34.7936C88.8806 34.7811 88.8877 34.7615 88.8743 34.7349L88.8356 34.6599C88.8289 34.6457 88.8331 34.6395 88.8481 34.6411C88.8648 34.6436 88.881 34.6449 88.8968 34.6449C88.9177 34.6449 88.9281 34.6553 88.9281 34.6761V34.8361C88.9281 34.8803 88.9502 34.9032 88.9943 34.9049L90.1018 34.9399C90.1327 34.9407 90.1614 34.9495 90.1881 34.9661C90.2514 35.007 90.316 35.0216 90.3818 35.0099C90.4005 35.0067 90.4178 34.9978 90.4315 34.9844C90.4451 34.971 90.4544 34.9537 90.4581 34.9349C90.4656 34.899 90.4839 34.8936 90.5131 34.9186C90.5423 34.9436 90.576 34.9561 90.6143 34.9561C91.3952 34.947 92.1743 34.9282 92.9518 34.8999C93.0318 34.8974 93.1643 34.9524 93.2743 34.9024C93.3127 34.884 93.3522 34.8795 93.3931 34.8886C93.8218 34.9811 94.1981 34.8899 94.6243 34.9311C94.8556 34.9524 95.1281 34.9236 95.3218 34.9261C96.0943 34.9353 96.8668 34.9432 97.6393 34.9499C98.0593 34.9524 98.4968 34.8261 98.9806 35.0524C99.2206 35.1636 99.3981 35.1524 99.5618 34.9499C99.5727 34.9365 99.5802 34.9382 99.5843 34.9549C99.5877 34.9657 99.591 34.9761 99.5943 34.9861C99.5948 34.9872 99.5956 34.9881 99.5966 34.9887C99.5976 34.9893 99.5988 34.9897 99.6 34.9897C99.6011 34.9897 99.6023 34.9893 99.6033 34.9887C99.6043 34.9881 99.6051 34.9872 99.6056 34.9861L99.6243 34.9311C99.6262 34.9252 99.6298 34.92 99.6346 34.9162C99.6394 34.9123 99.6453 34.91 99.6514 34.9094C99.6576 34.9089 99.6637 34.9102 99.6692 34.9132C99.6746 34.9161 99.679 34.9207 99.6818 34.9261C99.7268 35.0161 99.7918 35.0403 99.8768 34.9986C100.131 34.8749 100.272 34.7724 100.557 34.7711C101.574 34.7695 102.591 34.769 103.608 34.7699C103.739 34.7711 103.906 34.6549 104.008 34.8436C104.02 34.8653 104.034 34.8674 104.052 34.8499C104.066 34.8349 104.081 34.8203 104.098 34.8061C104.1 34.804 104.103 34.8028 104.106 34.8028C104.109 34.8028 104.112 34.804 104.114 34.8061C104.116 34.8083 104.118 34.8112 104.118 34.8143C104.118 34.8173 104.116 34.8202 104.114 34.8224C104.081 34.8649 104.057 34.9099 104.042 34.9574C104.032 34.9907 104.041 35.0174 104.071 35.0374C104.131 35.0791 104.199 35.0928 104.277 35.0786Z" fill="#DD9641"/>
<path fill-rule="evenodd" clip-rule="evenodd" d="M104.071 35.0374C104.131 35.0791 104.199 35.0928 104.277 35.0786C96.1718 15.4674 78.337 1.71981 57.2095 -0.638936C31.4107 -3.51769 7.04948 11.0411 -2.78927 35.0498C-2.78926 35.0498 -2.78928 35.0498 -2.78927 35.0498C-11.8343 57.4886 -6.00548 83.0311 11.7958 99.3573C11.8044 99.3652 11.8156 99.3696 11.8271 99.3699C11.8386 99.3701 11.8497 99.3661 11.8583 99.3586C20.5908 91.4886 30.792 86.6661 42.462 84.8911C42.4995 84.8852 42.5208 84.864 42.5258 84.8273C42.6566 83.9456 42.8095 83.0681 42.9845 82.1948C43.2533 80.8561 42.6458 79.8186 41.8658 78.7986C41.8391 78.7644 41.8399 78.7306 41.8683 78.6973C42.3545 78.1236 43.097 77.8873 43.802 77.7011C43.8462 77.6894 43.8666 77.6611 43.8633 77.6161C43.7749 76.1911 43.6983 74.7661 43.6333 73.3411C43.5966 72.5352 43.2633 71.814 42.6333 71.1773C42.6016 71.1448 42.5987 71.1102 42.6245 71.0736C43.017 70.5261 43.547 70.1936 44.2145 70.0761C44.262 70.0677 44.2837 70.0394 44.2795 69.9911C44.0595 67.2886 44.5583 64.3186 45.0245 61.5823C45.1495 60.8473 45.3633 60.2948 45.7083 59.6773C46.3758 58.4848 47.0987 57.3223 47.877 56.1898C47.9005 56.1558 47.9115 56.1147 47.9083 56.0736C47.712 53.5786 46.642 51.1573 45.1358 49.1911C45.128 49.181 45.1182 49.1727 45.107 49.1666C45.0958 49.1605 45.0836 49.1568 45.071 49.1558C45.0584 49.1547 45.0457 49.1563 45.0339 49.1604C45.022 49.1646 45.0111 49.1712 45.002 49.1798C43.5295 50.5706 42.4954 52.2377 41.8995 54.1811C41.8974 54.1869 41.8934 54.1918 41.8882 54.1952C41.883 54.1985 41.8768 54.2001 41.8706 54.1997C41.8644 54.1993 41.8586 54.1969 41.8539 54.1928C41.8515 54.1908 41.8494 54.1884 41.8478 54.1857C41.8463 54.1831 41.8452 54.1803 41.8445 54.1773C41.6033 52.8161 41.337 51.1761 41.5245 49.7998C41.5253 49.7918 41.5239 49.7838 41.5205 49.7766C41.517 49.7693 41.5116 49.7632 41.5049 49.7588C41.4982 49.7544 41.4904 49.752 41.4824 49.7517C41.4744 49.7514 41.4665 49.7534 41.4595 49.7573C38.6358 51.4036 36.117 53.7536 34.7045 56.7461C34.6795 56.8002 34.6641 56.7973 34.6583 56.7373C34.4891 55.1231 34.4795 53.5081 34.6295 51.8923C34.6345 51.8448 34.6162 51.8336 34.5745 51.8586C30.0945 54.5461 27.8408 59.5023 27.8695 64.6323C27.8697 64.6436 27.8663 64.6546 27.8599 64.6639C27.8534 64.6732 27.8442 64.6801 27.8336 64.6839C27.8229 64.6876 27.8114 64.6879 27.8005 64.6847C27.7897 64.6815 27.7802 64.675 27.7733 64.6661C26.3908 62.9336 25.6058 60.9948 25.282 58.7948C25.2704 58.7156 25.2458 58.7115 25.2083 58.7823C22.9758 62.9836 21.7658 67.8148 22.212 72.5911C22.2125 72.5989 22.2103 72.6066 22.2058 72.6131C22.2038 72.616 22.2014 72.6185 22.1987 72.6207C22.1953 72.6233 22.1915 72.6253 22.1874 72.6266C22.1799 72.6289 22.1718 72.6286 22.1645 72.6258C22.1604 72.6242 22.1566 72.6219 22.1534 72.6189C22.1509 72.6166 22.1488 72.614 22.147 72.6111C20.7208 70.0261 20.237 66.9823 20.272 64.0098C20.2722 63.9984 20.2688 63.9873 20.2621 63.9781C20.2555 63.9689 20.246 63.9621 20.2352 63.9587C20.2243 63.9553 20.2127 63.9555 20.2019 63.9593C20.1912 63.9632 20.1821 63.9703 20.1758 63.9798C17.9083 67.3356 16.5245 71.0286 16.0245 75.0586C16.0233 75.065 16.0199 75.0709 16.0149 75.0752C16.0119 75.0777 16.0084 75.0796 16.0047 75.0807C16.0022 75.0815 15.9996 75.0819 15.9969 75.082C15.9903 75.0821 15.9839 75.08 15.9787 75.076C15.9734 75.0719 15.9698 75.0662 15.9683 75.0598C14.7645 68.1786 16.5745 61.1873 20.8158 55.7598C26.2008 48.8648 34.967 45.1561 43.2608 43.2586C43.2684 43.2582 43.2756 43.2549 43.2807 43.2493C43.2835 43.2462 43.2856 43.2427 43.2868 43.2389C43.2879 43.2356 43.2884 43.2321 43.2883 43.2286C43.2879 43.2209 43.2846 43.2137 43.279 43.2086C43.2733 43.2034 43.2659 43.2007 43.2583 43.2011C39.452 42.7448 35.462 43.0373 31.9045 44.4598C31.8287 44.4898 31.8099 44.4694 31.8483 44.3986C32.6408 42.9177 33.6795 41.6386 34.9645 40.5611C34.9713 40.5555 34.9763 40.5482 34.9789 40.5398C34.9814 40.5315 34.9814 40.5225 34.9789 40.514C34.9764 40.5056 34.9715 40.4979 34.9647 40.4921C34.9579 40.4862 34.9496 40.4824 34.9408 40.4811C29.7845 39.8298 24.897 42.0636 21.7495 46.1298C21.7434 46.1379 21.7349 46.1438 21.7252 46.1468C21.7155 46.1498 21.7052 46.1497 21.6955 46.1465C21.6859 46.1434 21.6775 46.1373 21.6715 46.1292C21.6655 46.121 21.6622 46.1112 21.662 46.1011C21.6395 43.8386 22.2474 41.7669 23.4858 39.8861C23.5233 39.8286 23.5108 39.8136 23.4483 39.8411C19.2058 41.6648 14.6645 44.6073 12.3808 48.7573C12.3784 48.7625 12.3741 48.7667 12.3689 48.769C12.3637 48.7713 12.3578 48.7717 12.3523 48.77C12.3468 48.7684 12.3421 48.7648 12.3391 48.7599C12.336 48.755 12.3349 48.7492 12.3358 48.7436C12.5233 45.8311 14.457 43.0598 16.272 40.8923C16.317 40.839 16.3054 40.8211 16.237 40.8386C12.462 41.8098 8.71077 44.2186 5.95327 46.8361C5.77494 47.0061 5.74535 46.9831 5.86452 46.7673C8.79077 41.4798 13.4645 37.2298 19.1195 35.0123C26.702 32.1348 34.922 33.2986 42.2432 36.3011C42.2459 36.3026 42.2489 36.3036 42.252 36.304C42.2551 36.3044 42.2583 36.3042 42.2613 36.3034C42.2631 36.3029 42.2649 36.3022 42.2666 36.3013C42.2676 36.3007 42.2686 36.3 42.2696 36.2993C42.2721 36.2974 42.2742 36.295 42.2757 36.2923C42.2773 36.2896 42.2783 36.2866 42.2787 36.2835C42.279 36.2812 42.279 36.2788 42.2786 36.2765C42.2784 36.2757 42.2783 36.275 42.2781 36.2743C42.2773 36.2712 42.2759 36.2684 42.274 36.2659C42.2721 36.2635 42.2697 36.2614 42.267 36.2598C40.2595 34.6961 37.8207 33.2311 35.3395 32.5723C35.3311 32.5703 35.3237 32.5656 35.3183 32.5589C35.313 32.5522 35.31 32.5439 35.3098 32.5353C35.3097 32.5267 35.3124 32.5183 35.3175 32.5115C35.3227 32.5046 35.33 32.4996 35.3382 32.4973C36.8349 32.0448 38.3649 31.789 39.9282 31.7298C39.936 31.7298 39.9436 31.7274 39.9501 31.7231C39.9566 31.7188 39.9617 31.7127 39.9647 31.7055C39.9678 31.6983 39.9687 31.6904 39.9673 31.6827C39.9659 31.6751 39.9623 31.668 39.957 31.6623C36.687 28.0998 31.0182 27.2811 26.5032 27.9873C26.4924 27.9888 26.4813 27.9869 26.4716 27.9819C26.4619 27.9769 26.4539 27.969 26.4487 27.9594C26.4436 27.9498 26.4415 27.9388 26.4427 27.9279C26.444 27.917 26.4485 27.9068 26.4557 27.8986C27.8999 26.3369 29.6486 25.2677 31.702 24.6911C31.7096 24.6889 31.7164 24.6842 31.7211 24.6778C31.7258 24.6714 31.7283 24.6636 31.7282 24.6556C31.728 24.6476 31.7253 24.6399 31.7203 24.6337C31.7153 24.6274 31.7085 24.623 31.7007 24.6211C27.6924 23.5619 23.6874 23.4036 19.6857 24.1461C19.2749 24.2225 18.833 24.3416 18.407 24.4564C18.2407 24.5012 18.0769 24.5454 17.9182 24.5861C17.6674 24.6502 17.6349 24.5919 17.8207 24.4111C19.8495 22.4348 22.8057 21.6323 25.5395 21.4173C25.5515 21.4169 25.563 21.4123 25.5721 21.4044C25.5812 21.3965 25.5873 21.3857 25.5893 21.3738C25.5914 21.3619 25.5893 21.3497 25.5834 21.3392C25.5775 21.3287 25.5682 21.3205 25.557 21.3161C21.9161 19.6886 18.1041 19.0919 14.1207 19.5261C14.1143 19.5277 14.1074 19.5267 14.1017 19.5233C14.0959 19.5199 14.0918 19.5144 14.0901 19.5079C14.0884 19.5015 14.0894 19.4946 14.0928 19.4889C14.0962 19.4831 14.1018 19.479 14.1082 19.4773C20.9732 16.7073 28.9782 17.0323 35.4245 20.7536C42.7207 24.9648 47.3407 32.0123 50.697 39.5336C50.722 39.5894 50.747 39.589 50.772 39.5323C53.6882 32.9136 57.8782 26.2761 63.9232 22.0748C70.8007 17.2973 79.2132 16.3623 87.1507 19.3786C87.4416 19.4894 87.432 19.5298 87.122 19.4998C83.217 19.1165 79.4824 19.7211 75.9182 21.3136C75.9077 21.3183 75.8991 21.3264 75.8937 21.3366C75.8882 21.3467 75.8863 21.3584 75.8881 21.3698C75.89 21.3811 75.8955 21.3916 75.9039 21.3995C75.9123 21.4074 75.923 21.4124 75.9345 21.4136C78.2457 21.6023 82.2795 22.5098 83.7107 24.5511C83.7424 24.5961 83.7316 24.6115 83.6782 24.5973C79.0382 23.3573 74.3991 23.3719 69.7607 24.6411C69.7555 24.6423 69.7509 24.6452 69.7475 24.6494C69.7442 24.6536 69.7424 24.6588 69.7424 24.6642C69.7424 24.6695 69.7442 24.6747 69.7475 24.6789C69.7509 24.6831 69.7555 24.6861 69.7607 24.6873C71.8166 25.2665 73.5678 26.3381 75.0145 27.9023C75.0214 27.9095 75.0259 27.9186 75.0273 27.9284C75.0288 27.9382 75.0271 27.9483 75.0226 27.9571C75.018 27.966 75.0108 27.9731 75.002 27.9777C74.9931 27.9822 74.9831 27.9838 74.9732 27.9823C70.4332 27.2986 64.8045 28.0823 61.507 31.6611C61.5018 31.6669 61.4983 31.674 61.497 31.6817C61.4957 31.6894 61.4966 31.6973 61.4996 31.7045C61.5026 31.7117 61.5076 31.7179 61.514 31.7224C61.5204 31.7269 61.5279 31.7294 61.5357 31.7298C63.1157 31.7848 64.6607 32.0456 66.1707 32.5123C66.1731 32.5132 66.1752 32.5144 66.1771 32.516C66.1786 32.5172 66.1798 32.5185 66.1809 32.5201C66.1834 32.5237 66.1848 32.5279 66.1848 32.5323C66.1848 32.5367 66.1834 32.541 66.1809 32.5445C66.1784 32.5481 66.1749 32.5508 66.1707 32.5523C63.6245 33.2773 61.3182 34.6461 59.2182 36.2398C59.2135 36.2442 59.2103 36.2501 59.2093 36.2565C59.2083 36.2629 59.2095 36.2694 59.2127 36.2751C59.2159 36.2807 59.2209 36.2851 59.2269 36.2876C59.2328 36.29 59.2395 36.2904 59.2457 36.2886C66.7045 33.2623 74.9068 32.1249 82.5881 35.1036L82.4831 34.9286C82.4806 34.9245 82.4787 34.92 82.4771 34.9154C82.4758 34.9112 82.4747 34.9069 82.4742 34.9025C82.4732 34.8933 82.4742 34.8839 82.4772 34.8751C82.4801 34.8663 82.485 34.8582 82.4914 34.8515C82.4978 34.8448 82.5057 34.8395 82.5143 34.8361C82.6368 34.7878 82.7643 34.764 82.8968 34.7649C83.3768 34.7662 83.8611 34.7605 84.3471 34.7548C85.7708 34.7384 87.2099 34.7218 88.6068 34.8774C88.641 34.8815 88.6735 34.8765 88.7043 34.8624L88.8531 34.7936C88.8806 34.7811 88.8877 34.7615 88.8743 34.7349L88.8356 34.6599C88.8289 34.6457 88.8331 34.6395 88.8481 34.6411C88.8648 34.6436 88.881 34.6449 88.8968 34.6449C88.9177 34.6449 88.9281 34.6553 88.9281 34.6761V34.8361C88.9281 34.8803 88.9502 34.9032 88.9943 34.9049L90.1018 34.9399C90.1327 34.9407 90.1614 34.9495 90.1881 34.9661C90.2514 35.007 90.316 35.0216 90.3818 35.0099C90.4005 35.0067 90.4178 34.9978 90.4315 34.9844C90.4451 34.971 90.4544 34.9537 90.4581 34.9349C90.4656 34.899 90.4839 34.8936 90.5131 34.9186C90.5423 34.9436 90.576 34.9561 90.6143 34.9561C91.3952 34.947 92.1743 34.9282 92.9518 34.8999C92.9778 34.8991 93.0095 34.9043 93.044 34.91C93.1157 34.922 93.2001 34.9361 93.2743 34.9024C93.3127 34.884 93.3522 34.8795 93.3931 34.8886C93.6419 34.9423 93.8731 34.934 94.1066 34.9258C94.2755 34.9198 94.4454 34.9138 94.6243 34.9311C94.7706 34.9446 94.9336 34.9379 95.0825 34.9319C95.169 34.9284 95.2507 34.9252 95.3218 34.9261C96.0943 34.9353 96.8668 34.9432 97.6393 34.9499C97.7501 34.9505 97.8622 34.9422 97.9759 34.9338C98.2934 34.9102 98.6244 34.8858 98.9806 35.0524C99.2206 35.1636 99.3981 35.1524 99.5618 34.9499C99.5727 34.9365 99.5802 34.9382 99.5843 34.9549C99.5877 34.9657 99.591 34.9761 99.5943 34.9861C99.5948 34.9872 99.5956 34.9881 99.5966 34.9887C99.5976 34.9893 99.5988 34.9897 99.6 34.9897C99.6007 34.9897 99.6016 34.9895 99.6022 34.9892C99.6027 34.9891 99.6029 34.9889 99.6033 34.9887C99.6043 34.9881 99.6051 34.9872 99.6056 34.9861L99.6243 34.9311C99.6262 34.9252 99.6298 34.92 99.6346 34.9162C99.6394 34.9123 99.6453 34.91 99.6514 34.9094C99.6576 34.9089 99.6637 34.9102 99.6692 34.9132C99.6746 34.9161 99.679 34.9207 99.6818 34.9261C99.7268 35.0161 99.7918 35.0403 99.8768 34.9986C99.9205 34.9773 99.9611 34.9566 99.9994 34.9369C100.184 34.8425 100.321 34.7722 100.557 34.7711C101.574 34.7695 102.591 34.769 103.608 34.7699C103.644 34.7702 103.683 34.7617 103.722 34.7531C103.826 34.7303 103.934 34.7066 104.008 34.8436C104.02 34.8653 104.034 34.8674 104.052 34.8499C104.066 34.8349 104.081 34.8203 104.098 34.8061C104.099 34.805 104.101 34.8041 104.102 34.8035C104.103 34.803 104.105 34.8028 104.106 34.8028C104.109 34.8028 104.112 34.804 104.114 34.8061C104.116 34.8077 104.117 34.8095 104.118 34.8116C104.118 34.8124 104.118 34.8134 104.118 34.8143C104.118 34.8157 104.118 34.8171 104.117 34.8184C104.116 34.8198 104.115 34.8213 104.114 34.8224C104.081 34.8649 104.057 34.9099 104.042 34.9574C104.032 34.9907 104.041 35.0174 104.071 35.0374ZM-2.45052 34.7873C-2.45054 34.7873 -2.45051 34.7873 -2.45052 34.7873C-2.26648 34.784 -2.08238 34.781 -1.89834 34.7785C-0.609898 34.7606 0.678539 34.7619 1.96698 34.7823C1.98593 34.7826 2.00686 34.7834 2.02975 34.7847C2.18998 34.7936 2.44656 34.8262 2.79948 34.8823M9.55573 34.9086C9.55571 34.9086 9.55574 34.9086 9.55573 34.9086ZM9.27698 34.9173C9.27696 34.9173 9.27699 34.9173 9.27698 34.9173C9.27852 34.917 9.28004 34.9166 9.28143 34.9161ZM7.66926 34.926C7.66925 34.926 7.66928 34.926 7.66926 34.926C7.69104 34.9257 7.71272 34.9253 7.7342 34.9249ZM6.01906 34.9425C6.01904 34.9425 6.01907 34.9425 6.01906 34.9425C6.03172 34.9406 6.04446 34.9388 6.05721 34.937ZM5.33573 34.9086C5.33571 34.9086 5.33574 34.9086 5.33573 34.9086ZM4.29577 34.9148C4.31023 34.9063 4.32607 34.9006 4.3425 34.898Z" fill="#DD9641"/>
<path d="M48.827 48.496C46.1158 46.3898 49.1058 42.2635 50.692 40.546C50.7237 40.511 50.7558 40.511 50.7883 40.546C52.0208 41.8898 53.8383 44.4173 53.742 46.3123C53.6145 48.8198 50.8033 50.0323 48.827 48.496Z" fill="#DD9641"/>
</g>
</g>
<defs>
<clipPath id="clip0_86_3465">
<rect width="100" height="100" fill="white"/>
</clipPath>
<clipPath id="clip1_86_3465">
<rect width="115" height="101" fill="white" transform="translate(-7 -1)"/>
</clipPath>
</defs>
</svg>
