<svg width="100" height="100" viewBox="0 0 100 100" fill="none" xmlns="http://www.w3.org/2000/svg">
<rect width="100" height="100" fill="#1B5EDA"/>
<path d="M71.5082 47.6534C71.5096 47.5599 71.4761 47.4693 71.4141 47.3993C71.3522 47.3293 71.2664 47.285 71.1735 47.275C71.0805 47.2649 70.9872 47.29 70.9118 47.3452C70.8364 47.4004 70.7843 47.4818 70.7657 47.5734C70.7207 47.7759 70.6382 48.0534 70.6382 48.2634C70.6349 50.5717 70.6332 52.88 70.6332 55.1884C70.6332 55.285 70.5841 55.3334 70.4857 55.3334L67.3032 55.3284C67.2282 55.3284 67.1907 55.29 67.1907 55.2134C67.2041 53.0384 67.2016 50.8684 67.1832 48.7034C67.1732 47.455 67.2832 46.5476 67.5132 45.9809C68.4532 43.6584 71.6782 43.3134 73.1557 45.4284C73.2141 45.5117 73.2749 45.5134 73.3382 45.4334C74.3782 44.1201 75.6866 43.7092 77.2632 44.2009C78.7382 44.6584 79.2107 45.9059 79.2607 47.4434C79.3491 50.0567 79.3607 52.6609 79.2957 55.2559C79.2951 55.2733 79.2877 55.2899 79.2751 55.302C79.2625 55.3141 79.2457 55.3209 79.2282 55.3209L76.0857 55.3684C76.055 55.3687 76.0245 55.3629 75.996 55.3514C75.9675 55.3399 75.9416 55.3228 75.9197 55.3012C75.8979 55.2795 75.8805 55.2538 75.8687 55.2254C75.8568 55.197 75.8507 55.1666 75.8507 55.1359L75.8082 47.6334C75.8081 47.5941 75.7991 47.5554 75.782 47.5201C75.7649 47.4847 75.74 47.4537 75.7093 47.4292C75.6786 47.4047 75.6428 47.3875 75.6046 47.3787C75.5663 47.3699 75.5266 47.3698 75.4882 47.3784L75.1607 47.4534C75.0591 47.4767 75.0082 47.5409 75.0082 47.6459V55.1709C75.0082 55.2093 74.993 55.2462 74.9658 55.2734C74.9386 55.3006 74.9017 55.3159 74.8632 55.3159L71.7457 55.3584C71.7148 55.359 71.684 55.3534 71.6552 55.3419C71.6265 55.3304 71.6002 55.3132 71.5781 55.2913C71.556 55.2694 71.5384 55.2433 71.5264 55.2145C71.5144 55.1856 71.5082 55.1546 71.5082 55.1234V47.6534Z" fill="white"/>
<path d="M11.0053 48.2009C11.0253 42.9859 18.8203 42.5259 19.2453 47.4059C19.372 48.8526 19.3828 51.4476 19.2778 55.1909C19.2761 55.2792 19.2311 55.3234 19.1428 55.3234H16.0478C15.9495 55.3234 15.8995 55.2742 15.8978 55.1759L15.8303 47.9334C15.8289 47.8182 15.7913 47.7063 15.7227 47.6134C15.654 47.5206 15.5579 47.4515 15.4478 47.4159C15.0695 47.2959 14.7836 47.3776 14.5903 47.6609C14.5403 47.7342 14.5153 47.8151 14.5153 47.9034L14.4253 55.2034C14.4253 55.2784 14.3878 55.3159 14.3128 55.3159L11.1278 55.3409C11.0545 55.3409 11.0178 55.3042 11.0178 55.2309C10.9995 52.8842 10.9953 50.5409 11.0053 48.2009Z" fill="white"/>
<path d="M32.6803 51.4959C32.3803 50.7234 31.8878 49.9109 31.6753 49.2484C30.6453 46.0385 33.3903 43.4035 36.5628 44.2035C36.6184 44.2169 36.6678 44.2486 36.7031 44.2935C36.7385 44.3384 36.7577 44.3938 36.7578 44.451V47.2409C36.7578 47.3559 36.7012 47.4051 36.5878 47.3884L36.2728 47.3459C36.1878 47.3343 36.1037 47.3368 36.0203 47.3534C34.9703 47.5584 35.2003 48.5759 35.6728 49.2659C38.1328 52.8484 34.6528 56.7759 30.9378 55.3309C30.8847 55.3095 30.8391 55.2728 30.807 55.2256C30.775 55.1784 30.7578 55.1228 30.7578 55.0659V52.2059C30.7576 52.1808 30.7642 52.1561 30.7769 52.1343C30.7895 52.1126 30.8078 52.0946 30.8299 52.0822C30.852 52.0697 30.8771 52.0633 30.9026 52.0635C30.9281 52.0637 30.9532 52.0706 30.9753 52.0834C31.6303 52.4751 32.1845 52.3751 32.6378 51.7834C32.6685 51.7429 32.6884 51.6954 32.6959 51.6451C32.7033 51.5949 32.6979 51.5436 32.6803 51.4959Z" fill="white"/>
<path d="M41.6325 52.8858V55.1933C41.6325 55.275 41.5917 55.3158 41.51 55.3158L38.3275 55.3408C38.2408 55.3408 38.1975 55.2975 38.1975 55.2108C38.1858 52.8241 38.1942 50.4466 38.2225 48.0783C38.25 45.8283 39.585 44.4083 41.77 44.0933C44.9525 43.6333 46.4325 45.1433 46.505 48.2783C46.5567 50.5866 46.58 52.8908 46.575 55.1908C46.575 55.2259 46.561 55.2596 46.5362 55.2845C46.5113 55.3093 46.4776 55.3233 46.4425 55.3233H43.2025C43.1225 55.3233 43.0825 55.2833 43.0825 55.2033C43.0708 52.8233 43.0475 50.4475 43.0125 48.0758C43.0025 47.4625 42.6833 47.2475 42.055 47.4308C41.9592 47.4585 41.8744 47.5152 41.8122 47.5931C41.7499 47.671 41.7134 47.7663 41.7075 47.8658L41.6075 49.5533C41.5992 49.6916 41.6642 49.7608 41.8025 49.7608H42.445C42.57 49.7608 42.6325 49.8233 42.6325 49.9483V52.6033C42.6325 52.7083 42.58 52.7608 42.475 52.7608H41.7575C41.6742 52.7608 41.6325 52.8025 41.6325 52.8858Z" fill="white"/>
<path d="M60.441 55.3334L57.1835 55.3284C57.1101 55.3284 57.0735 55.2917 57.0735 55.2184C57.0701 53.2451 57.0668 51.2701 57.0635 49.2934C57.061 46.0484 58.171 43.7534 62.0235 44.0634C65.1535 44.3159 65.411 46.4009 65.4385 49.1834C65.4568 51.1867 65.456 53.1934 65.436 55.2034C65.436 55.2784 65.3985 55.3159 65.3235 55.3159L62.131 55.3409C62.0593 55.3409 62.0235 55.3051 62.0235 55.2334C61.9918 52.3234 61.9885 50.1659 62.0135 48.7609C62.0218 48.2993 61.9618 47.8984 61.8335 47.5584C61.8169 47.5151 61.7886 47.4775 61.7518 47.4501C61.715 47.4226 61.6714 47.4064 61.626 47.4034L61.2385 47.3809C61.1566 47.3758 61.0745 47.3872 60.9971 47.4143C60.9198 47.4415 60.8486 47.4838 60.788 47.5388C60.7274 47.5939 60.6785 47.6605 60.6442 47.7347C60.6099 47.8089 60.591 47.8892 60.5885 47.9709L60.5335 49.6159C60.5328 49.635 60.536 49.6541 60.5429 49.672C60.5497 49.6899 60.5601 49.7062 60.5734 49.7199C60.5867 49.7337 60.6026 49.7446 60.6203 49.7521C60.6379 49.7596 60.6568 49.7634 60.676 49.7634L61.3735 49.7559C61.4635 49.7559 61.5085 49.8009 61.5085 49.8909V52.6359C61.5085 52.7192 61.4668 52.7609 61.3835 52.7609H60.681C60.5877 52.7609 60.5418 52.8076 60.5435 52.9009L60.5835 55.1884C60.5852 55.2851 60.5376 55.3334 60.441 55.3334Z" fill="white"/>
<path d="M85.61 47.4683C84.345 46.8258 84.475 48.9233 84.5125 49.5733C84.5192 49.6983 84.585 49.7608 84.71 49.7608H85.3525C85.4558 49.7608 85.5075 49.8125 85.5075 49.9158V52.6058C85.5075 52.7091 85.455 52.7608 85.35 52.7608H84.6325C84.5492 52.7608 84.5075 52.8025 84.5075 52.8858V55.2033C84.5075 55.2883 84.4642 55.3308 84.3775 55.3308L81.2 55.3208C81.125 55.3191 81.0867 55.2816 81.085 55.2083C81.0467 52.9983 81.0517 50.7908 81.1 48.5858C81.17 45.2983 82.9875 43.6483 86.345 44.1083C88.3575 44.3833 89.3825 45.7383 89.41 47.7508C89.45 50.8841 89.4592 53.3658 89.4375 55.1958C89.4375 55.2708 89.4 55.3083 89.325 55.3083L86.0975 55.3608C86.0776 55.3611 86.0578 55.3575 86.0393 55.3501C86.0208 55.3427 86.004 55.3317 85.9898 55.3177C85.9756 55.3038 85.9644 55.2871 85.9567 55.2688C85.949 55.2504 85.945 55.2307 85.945 55.2108V48.0133C85.9451 47.9006 85.9138 47.79 85.8547 47.6938C85.7956 47.5976 85.7109 47.5195 85.61 47.4683Z" fill="white"/>
<path d="M25.9007 44.736C25.8707 44.6577 25.8657 44.5685 25.8857 44.4685C25.9057 44.3718 25.9649 44.3235 26.0632 44.3235H29.1882C29.2866 44.3235 29.3366 44.3727 29.3382 44.471C29.4466 48.3143 29.4316 50.916 29.2932 52.276C28.9107 56.0385 22.8207 56.951 21.4132 53.491C21.1999 52.9676 21.0891 51.9951 21.0807 50.5735C21.0691 48.5385 21.0641 46.501 21.0657 44.461C21.0657 44.3693 21.1116 44.3235 21.2032 44.3235H24.3807C24.4657 44.3235 24.5082 44.3668 24.5082 44.4535C24.5049 46.8001 24.5082 49.1468 24.5182 51.4935C24.5207 52.4585 25.8407 52.7635 25.8682 51.386C25.9132 49.1993 25.9299 47.0126 25.9182 44.826C25.9183 44.7946 25.9123 44.7641 25.9007 44.736Z" fill="white"/>
<path d="M53.5703 47.5985V55.231C53.5703 55.2568 53.56 55.2816 53.5418 55.2999C53.5235 55.3182 53.4987 55.3285 53.4728 55.3285L50.1678 55.3435C50.142 55.3435 50.1172 55.3332 50.0989 55.3149C50.0806 55.2966 50.0703 55.2718 50.0703 55.246V47.6085C50.0703 47.5826 50.06 47.5578 50.0418 47.5395C50.0235 47.5213 49.9987 47.511 49.9728 47.511H47.6053C47.5795 47.511 47.5547 47.5007 47.5364 47.4824C47.5181 47.4641 47.5078 47.4393 47.5078 47.4135V44.421C47.5078 44.4082 47.5103 44.3955 47.5152 44.3837C47.5201 44.3718 47.5273 44.3611 47.5364 44.352C47.5454 44.343 47.5562 44.3358 47.568 44.3309C47.5798 44.326 47.5925 44.3235 47.6053 44.3235H56.0353C56.0481 44.3235 56.0608 44.326 56.0726 44.3309C56.0845 44.3358 56.0952 44.343 56.1043 44.352C56.1133 44.3611 56.1205 44.3718 56.1254 44.3837C56.1303 44.3955 56.1328 44.4082 56.1328 44.421V47.436C56.1322 47.4614 56.1216 47.4856 56.1034 47.5033C56.0852 47.5211 56.0608 47.531 56.0353 47.531L53.6678 47.5035C53.6424 47.5035 53.618 47.5134 53.5997 47.5311C53.5815 47.5489 53.571 47.5731 53.5703 47.5985Z" fill="white"/>
</svg>
