<svg width="100" height="100" viewBox="0 0 100 100" fill="none" xmlns="http://www.w3.org/2000/svg">
<rect width="100" height="100" fill="#E4F6F5"/>
<path d="M56.2007 14.1297C57.1607 18.8847 56.5657 22.7847 54.4158 25.8297C53.3058 27.3997 51.7333 28.9222 49.6984 30.3972C54.6633 22.9072 54.4358 15.7072 49.0159 8.79718C48.4059 8.02218 48.5134 7.90468 49.3384 8.44468C51.9183 10.1397 54.2058 12.0347 56.2007 14.1297Z" fill="#18827E"/>
<path d="M56.1995 14.1294C67.5543 23.8044 63.2719 37.4169 51.7221 44.1369C46.8972 46.8069 42.0473 48.8244 37.1724 50.1894C34.2175 51.0194 31.75 52.1769 29.7701 53.6619C21.6477 50.1894 24.3627 43.3944 30.8425 40.1469C37.0824 37.0119 43.8998 34.2444 49.6971 30.3969C51.7321 28.9219 53.3046 27.3994 54.4146 25.8294C56.5645 22.7844 57.1595 18.8844 56.1995 14.1294Z" fill="#17ADA4"/>
<path d="M51.7225 44.1377C58.5624 44.2652 64.3298 43.3502 69.9472 46.3952L47.1251 55.3877C41.5378 55.5377 34.3379 56.0777 29.7705 53.6627C31.7505 52.1777 34.2179 51.0202 37.1729 50.1902C42.0478 48.8252 46.8976 46.8077 51.7225 44.1377Z" fill="#18827E"/>
<path d="M69.9477 46.395C72.3877 47.305 73.8152 49.0775 74.2301 51.7125C74.6651 54.5175 72.6027 57.15 70.3302 58.4325C66.2003 60.7675 60.6579 63.46 53.7031 66.51C51.9831 67.265 50.1982 68.6875 48.3482 70.7775C43.5583 73.3225 41.7083 78.21 42.7983 85.44C32.351 75.8625 35.186 62.4225 46.8707 55.9575C47.2407 55.7525 47.3257 55.5625 47.1257 55.3875L69.9477 46.395Z" fill="#17ADA4"/>
<path d="M48.3471 70.7773C44.6272 77.7923 45.2747 84.5899 50.2896 91.1699C50.5146 91.4699 50.4671 91.5199 50.1471 91.3199C47.2171 89.4849 44.7672 87.5249 42.7972 85.4399C41.7072 78.2098 43.5572 73.3223 48.3471 70.7773Z" fill="#18827E"/>
</svg>
