<svg width="100" height="100" viewBox="0 0 100 100" fill="none" xmlns="http://www.w3.org/2000/svg">
<rect width="100" height="100" fill="#E0FFFD"/>
<path d="M35.1509 22.1635C30.7931 18.6015 26.5231 14.8996 22.2311 11.2607C22.2084 11.2419 22.1921 11.2164 22.1844 11.1879C22.1768 11.1594 22.1782 11.1292 22.1884 11.1015C22.1987 11.0738 22.2172 11.05 22.2416 11.0333C22.2659 11.0166 22.2949 11.0078 22.3244 11.0083L78.9898 11C79.0109 10.9994 79.0315 11.0059 79.0484 11.0185C79.0653 11.0311 79.0774 11.049 79.0828 11.0694C79.0882 11.0897 79.0866 11.1113 79.0782 11.1306C79.0698 11.1499 79.0551 11.1658 79.0365 11.1757C72.3186 14.992 65.63 18.7991 58.9707 22.5971C58.3752 22.9347 56.9126 22.7673 56.4131 22.7727C51.3894 22.8185 44.6724 22.8002 36.2623 22.7179C35.6119 22.7096 35.5735 22.5093 35.1509 22.1635Z" fill="#18A4DE"/>
<path d="M80.4991 62.0233L80.3838 88.8701C80.3835 88.895 80.376 88.9194 80.3624 88.9403C80.3487 88.9612 80.3294 88.9778 80.3067 88.9882C80.284 88.9985 80.2588 89.0022 80.234 88.9988C80.2093 88.9954 80.1861 88.985 80.167 88.9688L20.0493 37.9071C20.0349 37.895 20.0233 37.8799 20.0153 37.8628C20.0072 37.8458 20.0029 37.8272 20.0027 37.8083V11.2635C20.003 11.2385 20.0104 11.2142 20.0241 11.1933C20.0377 11.1724 20.0571 11.1558 20.0798 11.1454C20.1025 11.135 20.1277 11.1314 20.1524 11.1348C20.1772 11.1382 20.2004 11.1486 20.2195 11.1647L80.4524 61.9246C80.4668 61.9367 80.4784 61.9518 80.4864 61.9689C80.4945 61.9859 80.4988 62.0045 80.4991 62.0233Z" fill="#1D81C4"/>
<path d="M59.9338 43.017L59.9283 23.3793C59.9282 23.3532 59.935 23.3275 59.948 23.3049C59.961 23.2822 59.9798 23.2634 60.0024 23.2504L80.2905 11.7384C80.313 11.7253 80.3387 11.7185 80.3647 11.7185C80.3908 11.7185 80.4164 11.7254 80.4389 11.7385C80.4615 11.7516 80.4802 11.7704 80.4931 11.793C80.5061 11.8156 80.5129 11.8413 80.5127 11.8673V60.0833C80.5127 60.1116 80.5045 60.1392 80.4893 60.163C80.474 60.1868 80.4522 60.2057 80.4266 60.2176C80.4009 60.2294 80.3724 60.2336 80.3444 60.2298C80.3164 60.2259 80.29 60.2141 80.2685 60.1958L59.986 43.1295C59.9697 43.1156 59.9566 43.0984 59.9476 43.079C59.9386 43.0595 59.9339 43.0384 59.9338 43.017Z" fill="#74C047"/>
<path d="M40.8204 57.4544L40.8094 84.9762C40.8093 84.9917 40.8048 85.0069 40.7964 85.02C40.7881 85.0331 40.7761 85.0435 40.7621 85.0501C40.748 85.0567 40.7324 85.0592 40.717 85.0573C40.7015 85.0554 40.687 85.0491 40.675 85.0393L20.0302 67.6217C20.0208 67.6141 20.0133 67.6044 20.0081 67.5935C20.0028 67.5826 20.0001 67.5707 20 67.5586L20.0082 39.831C20.0083 39.8155 20.0129 39.8003 20.0212 39.7872C20.0296 39.7741 20.0415 39.7637 20.0556 39.7571C20.0696 39.7505 20.0853 39.748 20.1007 39.7499C20.1161 39.7518 20.1307 39.758 20.1427 39.7679L40.7902 57.3913C40.7996 57.3989 40.8071 57.4086 40.8124 57.4195C40.8176 57.4304 40.8203 57.4423 40.8204 57.4544Z" fill="#74C047"/>
</svg>
