<svg width="100" height="100" viewBox="0 0 100 100" fill="none" xmlns="http://www.w3.org/2000/svg">
<rect width="100" height="100" fill="white"/>
<path d="M29.6032 27H30.0562C32.2818 27.4837 33.3379 29.6296 32.0154 31.4908C30.4144 33.7469 26.796 32.299 27.0869 29.449C27.2236 28.1306 28.0624 27.3143 29.6032 27Z" fill="#13100B"/>
<path d="M26.2908 29.7979C26.2908 30.5318 25.9992 31.2357 25.4803 31.7547C24.9613 32.2737 24.2574 32.5652 23.5235 32.5652C22.7895 32.5652 22.0856 32.2737 21.5666 31.7547C21.0477 31.2357 20.7561 30.5318 20.7561 29.7979C20.7561 29.0639 21.0477 28.36 21.5666 27.8411C22.0856 27.3221 22.7895 27.0305 23.5235 27.0305C24.2574 27.0305 24.9613 27.3221 25.4803 27.8411C25.9992 28.36 26.2908 29.0639 26.2908 29.7979Z" fill="#1B3D6D"/>
<path d="M36.1022 32.5745C37.6323 32.5745 38.8726 31.3342 38.8726 29.8041C38.8726 28.274 37.6323 27.0337 36.1022 27.0337C34.5721 27.0337 33.3318 28.274 33.3318 29.8041C33.3318 31.3342 34.5721 32.5745 36.1022 32.5745Z" fill="#13100B"/>
<path d="M23.5113 31.1232C24.2468 31.1232 24.843 30.527 24.843 29.7916C24.843 29.0562 24.2468 28.46 23.5113 28.46C22.7759 28.46 22.1797 29.0562 22.1797 29.7916C22.1797 30.527 22.7759 31.1232 23.5113 31.1232Z" fill="white"/>
<path d="M23.5112 38.8653C25.0396 38.8653 26.2786 37.6263 26.2786 36.0979C26.2786 34.5695 25.0396 33.3306 23.5112 33.3306C21.9829 33.3306 20.7439 34.5695 20.7439 36.0979C20.7439 37.6263 21.9829 38.8653 23.5112 38.8653Z" fill="#13100B"/>
<path d="M29.8051 38.908C31.3351 38.908 32.5755 37.6676 32.5755 36.1376C32.5755 34.6075 31.3351 33.3672 29.8051 33.3672C28.275 33.3672 27.0347 34.6075 27.0347 36.1376C27.0347 37.6676 28.275 38.908 29.8051 38.908Z" fill="#13100B"/>
<path d="M36.0899 38.8653C37.6182 38.8653 38.8572 37.6263 38.8572 36.0979C38.8572 34.5695 37.6182 33.3306 36.0899 33.3306C34.5615 33.3306 33.3225 34.5695 33.3225 36.0979C33.3225 37.6263 34.5615 38.8653 36.0899 38.8653Z" fill="#13100B"/>
<path d="M17.2206 45.2449C18.7507 45.2449 19.991 44.0046 19.991 42.4745C19.991 40.9445 18.7507 39.7041 17.2206 39.7041C15.6905 39.7041 14.4502 40.9445 14.4502 42.4745C14.4502 44.0046 15.6905 45.2449 17.2206 45.2449Z" fill="#13100B"/>
<path d="M23.5114 45.2449C25.0414 45.2449 26.2818 44.0046 26.2818 42.4745C26.2818 40.9445 25.0414 39.7041 23.5114 39.7041C21.9813 39.7041 20.741 40.9445 20.741 42.4745C20.741 44.0046 21.9813 45.2449 23.5114 45.2449Z" fill="#13100B"/>
<path d="M29.8082 45.242C31.3349 45.242 32.5725 44.0043 32.5725 42.4777C32.5725 40.951 31.3349 39.7134 29.8082 39.7134C28.2816 39.7134 27.0439 40.951 27.0439 42.4777C27.0439 44.0043 28.2816 45.242 29.8082 45.242Z" fill="#13100B"/>
<path d="M38.8694 42.4746C38.8694 43.2102 38.5772 43.9157 38.0571 44.4358C37.537 44.9559 36.8315 45.2481 36.096 45.2481C35.7318 45.2481 35.3711 45.1764 35.0346 45.037C34.6981 44.8976 34.3924 44.6933 34.1348 44.4358C33.8773 44.1782 33.673 43.8725 33.5336 43.536C33.3942 43.1995 33.3225 42.8389 33.3225 42.4746C33.3225 42.1104 33.3942 41.7498 33.5336 41.4133C33.673 41.0768 33.8773 40.771 34.1348 40.5135C34.3924 40.256 34.6981 40.0517 35.0346 39.9123C35.3711 39.7729 35.7318 39.7012 36.096 39.7012C36.8315 39.7012 37.537 39.9934 38.0571 40.5135C38.5772 41.0336 38.8694 41.7391 38.8694 42.4746Z" fill="#1B3D6D"/>
<path d="M42.3867 45.2388C43.9151 45.2388 45.1541 43.9998 45.1541 42.4714C45.1541 40.9431 43.9151 39.7041 42.3867 39.7041C40.8584 39.7041 39.6194 40.9431 39.6194 42.4714C39.6194 43.9998 40.8584 45.2388 42.3867 45.2388Z" fill="#13100B"/>
<path d="M36.0684 43.797C36.8005 43.797 37.3939 43.2036 37.3939 42.4715C37.3939 41.7394 36.8005 41.146 36.0684 41.146C35.3364 41.146 34.7429 41.7394 34.7429 42.4715C34.7429 43.2036 35.3364 43.797 36.0684 43.797Z" fill="white"/>
<path d="M23.5142 51.5786C25.0425 51.5786 26.2815 50.3397 26.2815 48.8113C26.2815 47.2829 25.0425 46.0439 23.5142 46.0439C21.9858 46.0439 20.7468 47.2829 20.7468 48.8113C20.7468 50.3397 21.9858 51.5786 23.5142 51.5786Z" fill="#13100B"/>
<path d="M29.8081 51.5845C31.3399 51.5845 32.5816 50.3428 32.5816 48.8111C32.5816 47.2793 31.3399 46.0376 29.8081 46.0376C28.2764 46.0376 27.0347 47.2793 27.0347 48.8111C27.0347 50.3428 28.2764 51.5845 29.8081 51.5845Z" fill="#13100B"/>
<path d="M36.096 51.5877C37.6277 51.5877 38.8694 50.346 38.8694 48.8142C38.8694 47.2825 37.6277 46.0408 36.096 46.0408C34.5642 46.0408 33.3225 47.2825 33.3225 48.8142C33.3225 50.346 34.5642 51.5877 36.096 51.5877Z" fill="#13100B"/>
<path d="M32.5784 55.154C32.5784 55.5178 32.5068 55.878 32.3675 56.2141C32.2283 56.5503 32.0242 56.8557 31.767 57.1129C31.5097 57.3702 31.2043 57.5743 30.8682 57.7135C30.5321 57.8527 30.1718 57.9244 29.808 57.9244C29.0732 57.9244 28.3686 57.6325 27.849 57.1129C27.3295 56.5934 27.0376 55.8887 27.0376 55.154C27.0376 54.4192 27.3295 53.7145 27.849 53.195C28.3686 52.6754 29.0732 52.3835 29.808 52.3835C30.1718 52.3835 30.5321 52.4552 30.8682 52.5944C31.2043 52.7337 31.5097 52.9377 31.767 53.195C32.0242 53.4522 32.2283 53.7576 32.3675 54.0938C32.5068 54.4299 32.5784 54.7901 32.5784 55.154Z" fill="#016F26"/>
<path d="M29.805 56.4736C30.5405 56.4736 31.1367 55.8774 31.1367 55.1419C31.1367 54.4065 30.5405 53.8103 29.805 53.8103C29.0696 53.8103 28.4734 54.4065 28.4734 55.1419C28.4734 55.8774 29.0696 56.4736 29.805 56.4736Z" fill="#87CEEC"/>
<path d="M8 65.9206V64.791C8.07959 64.193 8.18061 63.6155 8.30306 63.0583C9.09898 59.4155 13.3908 57.3644 16.0969 60.5787C16.2092 60.7134 16.2653 60.693 16.2653 60.5175V55.99C16.2653 55.8879 16.3133 55.8226 16.4092 55.794C17.9429 55.3195 19.3235 55.8981 19.3265 57.6032C19.3327 60.6542 19.3163 63.69 19.2776 66.7104C19.2531 68.7451 18.3255 70.143 16.4949 70.9042C12.1357 72.7195 8.32755 70.9195 8 65.9206Z" fill="#1B3D6D"/>
<path d="M34.0694 55.8398C35.2694 55.5765 37.1031 55.6714 37.0909 57.3306C37.0562 61.9367 37.0705 66.5572 37.1337 71.1918C37.1358 71.3225 37.0715 71.3878 36.9409 71.3878H34.1521C34.0337 71.3878 33.9745 71.3296 33.9745 71.2133L33.9378 56.0051C33.9358 55.9153 33.9796 55.8602 34.0694 55.8398Z" fill="#1B3D6D"/>
<path d="M53.0123 60.6612C55.2562 58.1173 59.3797 58.6867 60.6409 61.7816C60.9062 62.4346 61.0399 63.5489 61.0419 65.1244C61.0419 67.1612 61.0388 69.1969 61.0327 71.2316C61.0327 71.3357 60.9807 71.3877 60.8766 71.3877H58.2103C58.1902 71.3877 58.1703 71.3836 58.1518 71.3757C58.1334 71.3677 58.1167 71.3561 58.103 71.3415C58.0892 71.3268 58.0786 71.3095 58.0718 71.2906C58.0649 71.2717 58.0621 71.2516 58.0633 71.2316C58.195 68.3234 58.5317 63.854 57.2429 62.4581C56.0276 61.1357 53.9215 61.6836 53.2756 63.1928C53.0654 63.6826 52.9511 64.5581 52.9327 65.8193C52.9062 67.6091 52.8899 69.401 52.8837 71.1948C52.8837 71.3234 52.8194 71.3877 52.6909 71.3877H50.0154C49.9133 71.3877 49.8623 71.3367 49.8623 71.2346V55.9285C49.8623 55.8265 49.9133 55.7755 50.0154 55.7755C50.9705 55.7724 52.5348 55.5734 52.847 56.8469C52.998 57.4714 52.998 58.7193 52.847 60.5908C52.8307 60.7826 52.8858 60.8061 53.0123 60.6612Z" fill="#1B3D6D"/>
<path d="M28.3296 58.6928C30.4021 58.3101 32.6276 58.5918 32.6368 61.1693C32.647 64.7305 32.648 68.2897 32.6398 71.8469C32.6398 71.8874 32.6237 71.9264 32.595 71.9551C32.5663 71.9838 32.5273 71.9999 32.4868 71.9999H28.4337C28.2806 71.9999 28.2041 71.9234 28.2041 71.7703V58.8458C28.2041 58.7601 28.2459 58.7091 28.3296 58.6928Z" fill="#016F26"/>
<path d="M41.2023 67.1021C41.8023 69.3857 44.5145 69.4898 45.8247 67.7878C45.8513 67.7526 45.8858 67.7241 45.9256 67.7045C45.9655 67.6848 46.0095 67.6746 46.0543 67.6745L48.6227 67.6225C48.7206 67.6204 48.7584 67.6674 48.7359 67.7633C47.8696 71.247 43.887 72.3031 40.9819 71.0908C38.0859 69.8847 37.4125 65.6725 38.1502 63.0398C39.6288 57.7531 47.0553 57.5694 48.6655 62.7674C48.6921 62.847 48.6625 62.8878 48.5768 62.8898L45.7237 62.9602C45.6836 62.9612 45.6438 62.9516 45.6083 62.9322C45.5729 62.9129 45.543 62.8846 45.5216 62.85C44.787 61.6439 43.79 61.2837 42.5308 61.7694C40.7553 62.4521 40.8074 65.5959 41.2023 67.1021Z" fill="#1B3D6D"/>
<path d="M65.2141 66.2233C65.0978 68.3386 67.057 69.6457 68.8907 68.6508C69.4111 68.3692 69.7019 67.6927 70.5223 67.6437C71.0427 67.611 71.7621 67.6151 72.6805 67.6559C72.7907 67.66 72.8305 67.7141 72.7999 67.8182C72.1896 69.8365 70.8274 71.0355 68.7131 71.4151C65.0519 72.0733 62.658 70.1325 62.0427 66.6672C61.305 62.5192 63.3437 58.6927 68.0825 59.109C72.1417 59.4641 72.9713 62.2896 73.0662 65.8529C73.0703 66.0223 72.9876 66.107 72.8182 66.107H65.3366C65.259 66.107 65.2182 66.1457 65.2141 66.2233Z" fill="#1B3D6D"/>
<path d="M82.746 60.0215C82.782 60.0437 82.8233 60.0557 82.8654 60.0562C82.9075 60.0568 82.9487 60.0458 82.9848 60.0245C85.9082 58.3256 91.4858 58.6562 91.6235 63.1837C91.7052 65.8429 91.7409 68.5051 91.7307 71.1705C91.7307 71.2745 91.6786 71.3358 91.5746 71.3541C90.6868 71.4949 88.6786 71.4184 88.6725 70.0684C88.6633 68.4154 89.0644 63.7868 88.3511 62.498C87.6746 61.2705 85.3817 61.2245 84.6439 62.5164C84.4644 62.8327 84.3756 63.3562 84.3776 64.0868C84.3878 66.4664 84.3858 68.847 84.3715 71.2286C84.3695 71.3347 84.3164 71.3878 84.2123 71.3878H81.4082C81.3082 71.3878 81.2572 71.3368 81.2552 71.2347C81.2266 68.7776 81.2184 66.3286 81.2307 63.8878C81.246 60.6888 77.0001 60.8296 76.9756 63.7592C76.9531 66.2449 76.947 68.7347 76.9572 71.2286C76.9572 71.3347 76.9042 71.3878 76.798 71.3878H74.0521C73.9317 71.3878 73.8695 71.3276 73.8654 71.2072C73.745 68.6296 73.7644 66.0623 73.9235 63.5052C74.0491 61.4449 74.695 60.3582 76.544 59.596C78.7174 58.7001 80.7848 58.8419 82.746 60.0215Z" fill="#1B3D6D"/>
<path d="M20.2663 71.247C20.1714 65.948 19.0449 59.2256 26.8939 59.2868C27.002 59.2868 27.0561 59.3409 27.0561 59.449V62.3572C27.0561 62.378 27.052 62.3985 27.0439 62.4177C27.0359 62.4368 27.0241 62.4542 27.0093 62.4687C26.9945 62.4832 26.9769 62.4947 26.9576 62.5023C26.9383 62.51 26.9177 62.5137 26.8969 62.5133C25.051 62.4705 23.4071 62.6572 23.3979 64.9623C23.3877 67.0501 23.3816 69.1409 23.3796 71.2348C23.3796 71.3368 23.3286 71.3878 23.2265 71.3878H20.4071C20.3153 71.3878 20.2684 71.3409 20.2663 71.247Z" fill="#1B3D6D"/>
<path d="M29.4073 70.5458L29.4899 60.1499C29.4919 60.0662 29.5317 60.0111 29.6093 59.9846C30.846 59.5621 31.3481 60.1989 31.345 61.3744C31.343 64.4377 31.3419 67.4958 31.3419 70.5489C31.3419 70.6 31.3219 70.6491 31.2864 70.6852C31.2508 70.7214 31.2025 70.7417 31.1521 70.7417H29.6001C29.5745 70.7417 29.5492 70.7367 29.5256 70.7268C29.502 70.7169 29.4806 70.7024 29.4626 70.6842C29.4447 70.6659 29.4306 70.6443 29.421 70.6206C29.4115 70.5968 29.4068 70.5714 29.4073 70.5458Z" fill="#87CEEC"/>
<path d="M65.2633 64.0531C65.2414 64.0531 65.2204 64.0443 65.2049 64.0288C65.1894 64.0133 65.1807 63.9923 65.1807 63.9704V63.9184C65.1807 63.3192 65.4097 62.7446 65.8173 62.3209C66.2249 61.8972 66.7777 61.6592 67.3541 61.6592H67.5929C67.8783 61.6592 68.161 61.7176 68.4247 61.8311C68.6884 61.9447 68.928 62.1111 69.1298 62.3209C69.3316 62.5307 69.4917 62.7797 69.6009 63.0538C69.7102 63.3279 69.7664 63.6217 69.7664 63.9184V63.9704C69.7664 63.9813 69.7642 63.992 69.7601 64.002C69.7559 64.0121 69.7498 64.0212 69.7422 64.0288C69.7345 64.0365 69.7254 64.0426 69.7154 64.0468C69.7053 64.0509 69.6946 64.0531 69.6837 64.0531H65.2633Z" fill="white"/>
<path d="M11.5113 63.2603C12.6317 60.5267 15.8552 61.6624 16.1797 64.2797C17.095 71.6818 8.99195 69.4165 11.5113 63.2603Z" fill="white"/>
</svg>
