<svg width="100" height="100" viewBox="0 0 100 100" fill="none" xmlns="http://www.w3.org/2000/svg">
<rect width="100" height="100" fill="#F3D73B"/>
<path d="M51.3283 15.5876C53.7456 16.887 55.0492 19.2853 52.8365 21.5993C50.9655 23.5589 47.4513 23.7889 44.9706 23.1603C40.8531 22.114 39.1593 18.0345 43.5384 15.6045C46.1498 14.4682 48.7464 14.4626 51.3283 15.5876Z" fill="black"/>
<path fill-rule="evenodd" clip-rule="evenodd" d="M64.9972 54.8452C70.5744 53.2125 74.346 48.517 75.3775 42.8934C76.7464 35.3039 73.5993 27.4823 65.7482 25.1536C61.8669 24.004 57.49 24.5018 54.7351 27.7334C54.6578 27.8248 54.6191 27.8107 54.6191 27.6912V24.9427C54.6191 24.8625 54.5797 24.8259 54.501 24.833L40.3724 26.0606C40.3035 26.0662 40.269 26.1042 40.269 26.1745L40.288 29.4862C40.2894 29.5594 40.3253 29.6044 40.3956 29.6212L43.952 30.4629C44.1356 30.5061 44.2993 30.6103 44.4164 30.7584C44.5336 30.9066 44.5974 31.0901 44.5975 31.2792L44.5954 39.8749C44.6024 47.224 44.6045 54.5723 44.6017 61.92C44.6017 62.652 44.4308 63.0759 43.6989 63.2341C42.6034 63.469 41.4932 63.6314 40.3682 63.7214C40.3419 63.723 40.3172 63.7346 40.2991 63.7538C40.2811 63.773 40.2711 63.7984 40.2711 63.8248L40.2817 67.5141C40.2831 67.5816 40.3175 67.6153 40.385 67.6153H59.4179C59.4882 67.6153 59.5234 67.5802 59.5234 67.5099V63.8227C59.5234 63.787 59.5095 63.7528 59.4847 63.7272C59.4599 63.7016 59.4261 63.6866 59.3905 63.6856C59.37 63.6849 59.3481 63.6842 59.3249 63.6835C58.301 63.6516 54.733 63.5406 54.7309 62.171C54.7225 59.2741 54.7211 56.3527 54.7267 53.4066C54.7266 53.3948 54.73 53.3833 54.7363 53.3734C54.7426 53.3635 54.7517 53.3557 54.7624 53.3508C54.773 53.3459 54.7849 53.3442 54.7965 53.3458C54.8082 53.3475 54.8191 53.3525 54.8279 53.3602C55.6914 54.1083 56.6884 54.6005 57.819 54.8367C58.1242 54.9 58.3836 55.0139 58.5974 55.1784C63.1157 58.6758 67.0138 61.9791 67.0032 68.2481C66.9948 74.0806 59.5782 76.9198 54.8279 77.58C48.0146 78.5271 38.282 78.0525 33.4895 72.353C32.4411 71.1084 32.0593 69.6783 32.0361 67.9929C31.9518 61.7681 35.4702 58.5851 39.9062 55.0392C39.9332 55.018 39.9541 54.9901 39.9671 54.9583C39.98 54.9265 39.9845 54.8919 39.98 54.8578C39.8176 53.6175 38.9106 53.531 37.8517 53.7652C29.0113 55.7142 19.055 64.5124 24.358 74.4687C30.5764 86.142 50.8855 86.663 61.5146 83.7394C66.7206 82.3071 72.2176 79.2654 74.7826 74.2767C79.0457 65.9784 72.4454 57.9565 64.9909 54.9802C64.9772 54.9746 64.9656 54.9648 64.9576 54.9524C64.9496 54.9399 64.9457 54.9252 64.9464 54.9104C64.9471 54.8956 64.9524 54.8814 64.9615 54.8697C64.9706 54.858 64.9831 54.8495 64.9972 54.8452ZM64.8706 43.0875C64.8087 43.0861 64.7546 43.065 64.7082 43.0242C64.6786 42.9989 64.6554 43.0045 64.6386 43.0411L64.569 43.1866C64.5651 43.194 64.5591 43.2001 64.5519 43.2043C64.5446 43.2084 64.5364 43.2104 64.5283 43.2099C64.5201 43.2095 64.5124 43.2066 64.5062 43.2017C64.4999 43.1968 64.4953 43.1901 64.493 43.1824L64.4931 43.1826C64.4954 43.1903 64.4999 43.197 64.5062 43.2019C64.5125 43.2068 64.5202 43.2097 64.5283 43.2101C64.5365 43.2106 64.5447 43.2086 64.5519 43.2045C64.5592 43.2003 64.5651 43.1942 64.569 43.1868L64.6386 43.0413C64.6555 43.0047 64.6787 42.9991 64.7082 43.0244C64.7546 43.0652 64.8088 43.0863 64.8707 43.0877C64.7778 45.6696 64.0501 48.5974 61.2868 49.4032C59.2154 50.0064 56.2496 49.7723 54.7899 47.9646C54.7464 47.9111 54.7246 47.85 54.7246 47.7811L54.7288 43.7057C54.8764 43.6101 54.9939 43.428 55.081 43.1594C55.1064 43.0807 55.1605 43.0413 55.2435 43.0413H64.375C64.4214 43.0413 64.4523 43.0631 64.4678 43.1067L64.4677 43.1065C64.4522 43.0629 64.4213 43.0411 64.3749 43.0411H55.2434C55.1604 43.0411 55.1063 43.0805 55.081 43.1592C54.9938 43.4278 54.8764 43.6099 54.7287 43.7055V33.0658C54.7287 33.0012 54.7491 32.9435 54.7899 32.8929C56.5913 30.6654 59.7195 30.1992 61.9765 31.7918C65.3072 34.1459 65.1343 39.6471 64.8706 43.0875Z" fill="black"/>
</svg>
