<svg width="100" height="100" viewBox="0 0 100 100" fill="none" xmlns="http://www.w3.org/2000/svg">
<rect width="100" height="100" fill="#AFF5FF"/>
<path d="M21.3498 47.2786C21.6142 49.9411 21.4773 52.7443 21.4736 55.4312C21.4736 55.5199 21.4292 55.5643 21.3404 55.5643H20.0242C19.9267 55.5643 19.8779 55.5156 19.8779 55.4181L19.8723 45.1073C19.8723 45.0835 19.8818 45.0606 19.8987 45.0437C19.9156 45.0268 19.9384 45.0173 19.9623 45.0173H20.8604C20.9135 45.0173 20.9655 45.0373 21.0067 45.0736C23.5367 47.3211 26.0598 49.5768 28.5761 51.8405C29.0767 52.2924 29.5023 52.7612 29.9279 53.2712C30.0092 53.3687 30.0461 53.3543 30.0386 53.228C30.0198 52.8418 29.9073 52.4218 29.9073 52.0768C29.9098 49.7605 29.9073 47.4436 29.8998 45.1261C29.8998 45.0536 29.9361 45.0173 30.0086 45.0173H31.4073C31.4698 45.0173 31.5011 45.0486 31.5011 45.1111V55.4274C31.5011 55.4924 31.4692 55.5312 31.4054 55.5437C30.8936 55.6524 30.5917 55.6093 30.1848 55.2474C27.2248 52.6174 24.2967 49.9524 21.4004 47.2524C21.3617 47.2161 21.3448 47.2249 21.3498 47.2786Z" fill="#000080"/>
<path d="M38.6767 54.0586L45.7173 54.0904C45.8373 54.0917 45.8967 54.0317 45.8954 53.9104L45.8823 51.5667C45.8819 51.5517 45.885 51.5368 45.8913 51.5232C45.8976 51.5095 45.9069 51.4975 45.9186 51.4879C45.9304 51.4784 45.9442 51.4716 45.959 51.468C45.9738 51.4644 45.9892 51.4642 46.0042 51.4673L47.5792 51.8085C47.6101 51.8152 47.6377 51.8328 47.657 51.8582C47.6762 51.8836 47.6859 51.9152 47.6842 51.9473C47.6667 52.3048 47.6317 52.916 47.5792 53.781C47.4517 55.8867 45.3029 55.5886 43.771 55.5229C42.5317 55.4704 40.1917 55.7854 38.1198 55.3729C36.7867 55.1067 36.7829 53.5823 36.7754 52.5173C36.7604 50.2848 36.7835 48.4541 36.8448 47.0254C36.9367 44.8935 38.3804 45.0772 40.2085 45.0303C42.286 44.9778 44.2073 44.9935 45.9723 45.0772C47.686 45.1578 47.6992 46.8979 47.6448 48.3941C47.6423 48.4604 47.6085 48.4997 47.5435 48.5122L46.0529 48.8141C45.9442 48.8354 45.8898 48.791 45.8898 48.681L45.8917 46.5566C45.8917 46.4979 45.8623 46.4685 45.8035 46.4685L38.6485 46.4722C38.601 46.4722 38.5773 46.4954 38.5773 46.5416L38.5792 53.961C38.5792 54.026 38.6117 54.0586 38.6767 54.0586Z" fill="#000080"/>
<path fill-rule="evenodd" clip-rule="evenodd" d="M84.9554 55.5324L86.2754 52.9899C86.2803 52.9802 86.2878 52.9721 86.2971 52.9665C86.3063 52.9608 86.317 52.9579 86.3279 52.958L93.3816 52.9393C93.3925 52.9392 93.4031 52.9421 93.4124 52.9477C93.4217 52.9534 93.4292 52.9615 93.4341 52.9712L94.7597 55.5324C94.7646 55.5421 94.7721 55.5502 94.7814 55.5559C94.7907 55.5615 94.8014 55.5644 94.8122 55.5643H96.6085C96.6186 55.5643 96.6285 55.5616 96.6372 55.5566C96.646 55.5515 96.6532 55.5443 96.6584 55.5356C96.6635 55.5269 96.6662 55.517 96.6663 55.5069C96.6665 55.4968 96.664 55.4869 96.6591 55.4781L90.8616 45.0473C90.8566 45.0383 90.8493 45.0307 90.8404 45.0255C90.8315 45.0202 90.8213 45.0174 90.811 45.0173H89.0054C88.995 45.0174 88.9849 45.0202 88.976 45.0255C88.9671 45.0307 88.9597 45.0383 88.9547 45.0473L83.2585 55.4781C83.2536 55.4869 83.2511 55.4968 83.2512 55.5069C83.2514 55.517 83.2541 55.5269 83.2592 55.5356C83.2643 55.5443 83.2716 55.5515 83.2804 55.5566C83.2891 55.5616 83.299 55.5643 83.3091 55.5643H84.9029C84.9137 55.5644 84.9244 55.5615 84.9337 55.5559C84.9429 55.5502 84.9505 55.5421 84.9554 55.5324ZM89.8116 46.3392L87.0685 51.5386C87.0636 51.5479 87.0612 51.5583 87.0615 51.5687C87.0619 51.5792 87.0649 51.5894 87.0704 51.5983C87.0759 51.6072 87.0837 51.6145 87.0929 51.6195C87.1021 51.6245 87.1124 51.627 87.1229 51.6268H92.6054C92.6158 51.627 92.6262 51.6245 92.6354 51.6195C92.6446 51.6145 92.6523 51.6072 92.6578 51.5983C92.6633 51.5894 92.6664 51.5792 92.6667 51.5687C92.6671 51.5583 92.6647 51.5479 92.6597 51.5386L89.9166 46.3392C89.9114 46.3298 89.9038 46.322 89.8946 46.3166C89.8854 46.3111 89.8748 46.3083 89.8641 46.3083C89.8534 46.3083 89.8429 46.3111 89.8336 46.3166C89.8244 46.322 89.8168 46.3298 89.8116 46.3392Z" fill="#000080"/>
<path fill-rule="evenodd" clip-rule="evenodd" d="M16.3904 55.4593L10.606 45.0548C10.6 45.0436 10.5911 45.0342 10.5802 45.0277C10.5693 45.0211 10.5568 45.0175 10.5441 45.0173H8.76288C8.74984 45.0172 8.73699 45.0206 8.72575 45.0272C8.71451 45.0338 8.7053 45.0434 8.69913 45.0548L3.0085 55.4593C3.0027 55.4701 2.99977 55.4822 3.00001 55.4945C3.00025 55.5067 3.00365 55.5187 3.00987 55.5292C3.01609 55.5398 3.02492 55.5486 3.03552 55.5547C3.04612 55.5609 3.05813 55.5642 3.07038 55.5643H4.63788C4.65092 55.5645 4.66376 55.5611 4.675 55.5545C4.68624 55.5479 4.69545 55.5383 4.70163 55.5268L6.0235 52.9768C6.02968 52.9653 6.03889 52.9557 6.05013 52.9491C6.06137 52.9425 6.07421 52.9391 6.08725 52.9393H13.1129C13.1259 52.9391 13.1388 52.9425 13.15 52.9491C13.1612 52.9557 13.1704 52.9653 13.1766 52.9768L14.5041 55.5268C14.5103 55.5383 14.5195 55.5479 14.5307 55.5545C14.542 55.5611 14.5548 55.5645 14.5679 55.5643H16.3266C16.339 55.5645 16.3513 55.5614 16.3621 55.5554C16.373 55.5494 16.3821 55.5407 16.3885 55.53C16.395 55.5194 16.3985 55.5073 16.3989 55.4949C16.3992 55.4825 16.3963 55.4702 16.3904 55.4593ZM9.55605 46.3504L6.81105 51.5386C6.80622 51.5477 6.80381 51.5579 6.80407 51.5682C6.80432 51.5785 6.80723 51.5886 6.8125 51.5975C6.81778 51.6063 6.82525 51.6137 6.83419 51.6188C6.84313 51.6239 6.85324 51.6267 6.86355 51.6267H12.3535C12.3639 51.6267 12.374 51.6239 12.3829 51.6188C12.3918 51.6137 12.3993 51.6063 12.4046 51.5975C12.4099 51.5886 12.4128 51.5785 12.413 51.5682C12.4133 51.5579 12.4109 51.5477 12.406 51.5386L9.66105 46.3504C9.65586 46.3411 9.64825 46.3333 9.63902 46.3278C9.62979 46.3224 9.61927 46.3195 9.60855 46.3195C9.59783 46.3195 9.58731 46.3224 9.57808 46.3278C9.56884 46.3333 9.56124 46.3411 9.55605 46.3504Z" fill="#000080"/>
<path fill-rule="evenodd" clip-rule="evenodd" d="M71.4891 55.4443L71.476 51.5143C71.4747 51.4643 71.4997 51.4393 71.551 51.4393H74.4853C74.5478 51.4392 74.6077 51.4635 74.6522 51.5068L78.8091 55.4987C78.8523 55.5408 78.9109 55.5643 78.9722 55.5643H81.3197C81.4335 55.5643 81.4472 55.5274 81.361 55.4537L76.7878 51.5761C76.7726 51.5639 76.7618 51.547 76.7571 51.528C76.7523 51.509 76.7539 51.489 76.7615 51.471C76.7691 51.453 76.7824 51.4379 76.7993 51.4282C76.8163 51.4184 76.8359 51.4144 76.8553 51.4168C80.5678 51.7515 80.5256 50.2542 80.456 47.7819C80.448 47.4984 80.4397 47.2021 80.4366 46.8942C80.4197 45.1767 79.0753 45.0267 77.7197 45.0248C75.0835 45.0198 72.4585 45.0173 69.8447 45.0173C69.8074 45.0173 69.7717 45.0321 69.7453 45.0585C69.7189 45.0849 69.7041 45.1207 69.7041 45.158V55.4237C69.7041 55.5174 69.751 55.5643 69.8447 55.5643H71.371C71.451 55.5643 71.4903 55.5243 71.4891 55.4443ZM71.4885 46.4134C71.4864 46.4185 71.4853 46.4238 71.4853 46.4292V50.0405C71.4853 50.0459 71.4864 50.0513 71.4885 50.0563C71.4906 50.0613 71.4936 50.0659 71.4974 50.0697C71.5013 50.0735 71.5058 50.0766 71.5108 50.0786C71.5158 50.0807 71.5212 50.0818 71.5266 50.0818H77.6053C77.8828 50.0818 78.1489 49.982 78.3452 49.8044C78.5414 49.6269 78.6516 49.386 78.6516 49.1349V47.3349C78.6516 47.0837 78.5414 46.8429 78.3452 46.6653C78.1489 46.4877 77.8828 46.388 77.6053 46.388H71.5266C71.5212 46.388 71.5158 46.3891 71.5108 46.3911C71.5058 46.3932 71.5013 46.3962 71.4974 46.4001C71.4936 46.4039 71.4906 46.4084 71.4885 46.4134Z" fill="#000080"/>
<path fill-rule="evenodd" clip-rule="evenodd" d="M54.5278 45.0434C53.1403 45.0566 52.1728 45.4484 52.1784 47.0328C52.1871 48.8978 52.1734 50.7622 52.1371 52.626C52.0978 54.5929 52.4428 55.5285 54.6215 55.5548C55.7778 55.5698 58.0553 55.5748 61.454 55.5698C63.3515 55.566 64.289 55.3242 64.3396 53.1866C64.3859 51.2516 64.3802 49.3166 64.3227 47.3816C64.2627 45.3397 63.5184 45.0322 61.5946 45.0191C60.0496 45.0078 57.694 45.0159 54.5278 45.0434ZM53.9577 46.4703H62.5752C62.6032 46.4703 62.6258 46.493 62.6258 46.521V54.0135C62.6258 54.0415 62.6032 54.0642 62.5752 54.0642H53.9577C53.9297 54.0642 53.9071 54.0415 53.9071 54.0135V46.521C53.9071 46.493 53.9297 46.4703 53.9577 46.4703Z" fill="#000080"/>
</svg>
