<svg width="100" height="100" viewBox="0 0 100 100" fill="none" xmlns="http://www.w3.org/2000/svg">
<rect width="100" height="100" fill="#DFEFFF"/>
<path d="M89 50C89 71.5391 71.5391 89 50 89C28.4609 89 11 71.5391 11 50C11 28.4609 28.4609 11 50 11C71.5391 11 89 28.4609 89 50ZM26.2214 50C26.2214 63.1326 36.8674 73.7786 50 73.7786C63.1326 73.7786 73.7786 63.1326 73.7786 50C73.7786 36.8674 63.1326 26.2214 50 26.2214C36.8674 26.2214 26.2214 36.8674 26.2214 50Z" fill="#1A6CBB"/>
<rect x="46" y="36" width="8" height="28" rx="2" fill="#DB3939"/>
<rect x="64" y="46" width="8" height="28" rx="2" transform="rotate(90 64 46)" fill="#DB3939"/>
</svg>
