<svg width="100" height="100" viewBox="0 0 100 100" fill="none" xmlns="http://www.w3.org/2000/svg">
<rect width="100" height="100" fill="#595C62"/>
<path d="M15.1592 49.5156C15.1592 47.7656 15.4209 46.2969 15.9444 45.1094C16.335 44.2344 16.8662 43.4492 17.5381 42.7539C18.2178 42.0586 18.96 41.543 19.7647 41.207C20.835 40.7539 22.0694 40.5273 23.4678 40.5273C25.9991 40.5273 28.0225 41.3125 29.5381 42.8828C31.0616 44.4531 31.8233 46.6367 31.8233 49.4336C31.8233 52.207 31.0694 54.3789 29.5616 55.9492C28.0537 57.5117 26.0381 58.293 23.5147 58.293C20.96 58.293 18.9287 57.5156 17.4209 55.9609C15.9131 54.3984 15.1592 52.25 15.1592 49.5156ZM18.7334 49.3984C18.7334 51.3438 19.1827 52.8203 20.0811 53.8281C20.9795 54.8281 22.1202 55.3281 23.503 55.3281C24.8858 55.3281 26.0186 54.832 26.9014 53.8398C27.792 52.8398 28.2373 51.3438 28.2373 49.3516C28.2373 47.3828 27.8037 45.9141 26.9366 44.9453C26.0772 43.9766 24.9327 43.4922 23.503 43.4922C22.0733 43.4922 20.9209 43.9844 20.0459 44.9688C19.1709 45.9453 18.7334 47.4219 18.7334 49.3984ZM34.8552 58V40.8203H40.0466L43.1637 52.5391L46.2458 40.8203H51.4489V58H48.2262V44.4766L44.8161 58H41.4762L38.0778 44.4766V58H34.8552ZM59.1214 58V43.7266H54.0238V40.8203H67.6761V43.7266H62.5902V58H59.1214ZM70.2978 58V40.8203H77.5986C79.4345 40.8203 80.7666 40.9766 81.5947 41.2891C82.4306 41.5938 83.0986 42.1406 83.5986 42.9297C84.0986 43.7188 84.3486 44.6211 84.3486 45.6367C84.3486 46.9258 83.9697 47.9922 83.2119 48.8359C82.4541 49.6719 81.3213 50.1992 79.8134 50.418C80.5634 50.8555 81.1806 51.3359 81.665 51.8594C82.1572 52.3828 82.8173 53.3125 83.6455 54.6484L85.7431 58H81.5947L79.0869 54.2617C78.1963 52.9258 77.5869 52.0859 77.2588 51.7422C76.9306 51.3906 76.583 51.1523 76.2158 51.0273C75.8486 50.8945 75.2666 50.8281 74.4697 50.8281H73.7666V58H70.2978ZM73.7666 48.0859H76.333C77.997 48.0859 79.0361 48.0156 79.4502 47.875C79.8642 47.7344 80.1884 47.4922 80.4228 47.1484C80.6572 46.8047 80.7744 46.375 80.7744 45.8594C80.7744 45.2812 80.6181 44.8164 80.3056 44.4648C80.0009 44.1055 79.5673 43.8789 79.0048 43.7852C78.7236 43.7461 77.8798 43.7266 76.4736 43.7266H73.7666V48.0859Z" fill="#F8F8F8"/>
</svg>
