<svg width="100" height="100" viewBox="0 0 100 100" fill="none" xmlns="http://www.w3.org/2000/svg">
<rect width="100" height="100" fill="#2A3959"/>
<path d="M76.9993 33.0988C76.386 34.1188 76.146 34.9322 76.2793 35.5388C73.346 46.3922 69.7793 56.7822 65.5793 66.7089L60.2693 65.2588C60.3093 55.4255 59.3593 45.4988 57.4193 35.4788L55.7293 29.7288C52.1426 20.8955 45.7893 16.8888 36.6693 17.7088C26.7393 18.5988 23.5793 27.9888 22.5693 36.4988C21.9426 36.9655 21.3126 37.1588 20.6793 37.0788C17.5293 10.0588 45.0293 6.89885 64.0493 12.0788C71.1293 14.0088 78.5193 19.0888 77.9993 27.0688C77.8593 29.1488 77.526 31.1588 76.9993 33.0988Z" fill="#00AFEF"/>
<path d="M55.7293 29.729C44.3827 31.3556 33.3293 33.6123 22.5693 36.499C23.5793 27.989 26.7393 18.599 36.6693 17.709C45.7893 16.889 52.1427 20.8956 55.7293 29.729Z" fill="#2A3959"/>
<path d="M55.7294 29.729L57.4194 35.479C48.9194 40.8323 40.7727 46.7457 32.9794 53.219L28.4594 58.019C23.4594 64.3057 22.8894 70.859 26.7494 77.679C31.6394 86.329 41.9694 86.439 50.3194 82.659C50.9127 82.8523 51.5894 83.439 52.3494 84.419C43.1694 89.709 34.2494 91.599 25.3294 84.769C20.3094 80.9223 16.096 75.1557 12.6894 67.469C9.50937 60.309 6.63937 48.149 11.9494 41.899C14.0894 39.369 17.5994 38.159 20.6794 37.079C21.3127 37.159 21.9427 36.9657 22.5694 36.499C33.3294 33.6123 44.3827 31.3557 55.7294 29.729Z" fill="#A8CF45"/>
<path d="M76.9992 33.0989C85.1092 36.8389 92.8592 46.4589 90.7492 55.9889C87.9392 68.6889 80.0892 82.1889 68.1392 87.9689C61.4592 91.1889 57.6292 88.3089 52.3492 84.4189C51.5892 83.4389 50.9126 82.8522 50.3192 82.6589C42.6592 74.8189 35.3726 66.6055 28.4592 58.0189L32.9792 53.2189C41.7659 58.3122 50.8626 62.3255 60.2692 65.2589L65.5792 66.7089C74.9392 67.8622 81.2959 64.7022 84.6492 57.2289C88.4292 48.7789 83.7992 40.0889 76.2792 35.5389C76.1459 34.9322 76.3859 34.1189 76.9992 33.0989Z" fill="#FFCC29"/>
<path d="M65.5793 66.7088C69.7793 56.7822 73.346 46.3922 76.2794 35.5388C83.7994 40.0888 88.4293 48.7788 84.6493 57.2288C81.296 64.7022 74.9393 67.8622 65.5793 66.7088Z" fill="#CC7145"/>
<path d="M28.4593 58.0188C35.3726 66.6055 42.6593 74.8188 50.3193 82.6588C41.9693 86.4388 31.6393 86.3288 26.7493 77.6788C22.8893 70.8588 23.4593 64.3055 28.4593 58.0188Z" fill="#00A859"/>
</svg>
