<svg width="100" height="100" viewBox="0 0 100 100" fill="none" xmlns="http://www.w3.org/2000/svg">
<rect width="100" height="100" fill="#002C49"/>
<path d="M50.6987 26.9789C50.1509 31.6986 50.6966 36.579 52.3358 41.62C46.3805 41.863 40.6187 41.2658 35.0505 39.8285C39.3502 30.4013 37.1633 18.6884 33.6049 9.38481C33.5555 9.25302 33.5555 9.15006 33.6049 9.07593C33.6791 8.96885 33.747 8.97503 33.8088 9.09446C37.8449 16.8578 43.4749 22.8192 50.6987 26.9789Z" fill="#117ABE"/>
<path d="M59.9569 28.2391C65.6513 28.2292 70.2602 24.0143 70.2511 18.8249C70.242 13.6355 65.6185 9.43667 59.9241 9.4466C54.2297 9.45654 49.6209 13.6714 49.6299 18.8609C49.639 24.0503 54.2625 28.249 59.9569 28.2391Z" fill="#D7BE75"/>
<path d="M50.6987 26.9785C58.7792 31.34 67.8913 33.0018 76.7254 33.5886C76.7462 33.5886 76.7665 33.5927 76.7854 33.6006C76.8042 33.6086 76.8212 33.6202 76.8353 33.6348C76.8493 33.6494 76.8603 33.6668 76.8675 33.6859C76.8746 33.705 76.8779 33.7255 76.8771 33.7462C76.8763 33.7669 76.8714 33.7873 76.8627 33.8065C76.8541 33.8256 76.8417 33.8429 76.8265 33.8576C76.8113 33.8722 76.7934 33.8838 76.774 33.8917C76.7545 33.8996 76.7338 33.9037 76.7131 33.9037C69.2751 33.8605 63.1345 37.9192 62.2449 45.6166C59.6338 45.4848 57.0247 45.7546 54.4177 46.4259L52.3358 41.6196C50.6967 36.5786 50.151 31.6983 50.6987 26.9785Z" fill="#ED3237"/>
<path d="M35.0504 39.8281C40.6186 41.2655 46.3804 41.8626 52.3357 41.6197L54.4176 46.4259C49.1665 47.5255 44.2161 49.5518 39.5664 52.5047C34.9125 50.1449 29.8509 48.654 24.3815 48.0321C23.8791 47.9744 23.8729 47.8859 24.363 47.7665C28.7821 46.6833 32.3446 44.0372 35.0504 39.8281Z" fill="#FFF212"/>
<path d="M62.2446 45.6174C62.677 61.179 67.0694 76.6912 73.3953 90.7516C73.4242 90.8093 73.4324 90.8566 73.42 90.8937C73.3995 90.939 73.3624 90.974 73.3088 90.9987C73.2965 91.0028 73.2862 90.9987 73.278 90.9864C64.9628 76.0981 54.2321 61.2408 39.5662 52.5055C44.2159 49.5526 49.1663 47.5263 54.4174 46.4267C57.0244 45.7554 59.6334 45.4856 62.2446 45.6174Z" fill="#65BC50"/>
</svg>
