<svg width="100" height="100" viewBox="0 0 100 100" fill="none" xmlns="http://www.w3.org/2000/svg">
<rect width="100" height="100" fill="#E1F3FF"/>
<path d="M73.6835 75.392C67.4015 69.9398 62.5579 64.6413 60.0315 56.8288C55.4829 42.765 64.4265 34.0489 73.1733 25.0746C75.8533 22.3209 77.5805 19.3438 78.355 16.1434C78.396 15.9631 78.4636 15.9528 78.5579 16.1126C81.3485 20.8088 85.5222 25.929 87.2002 30.6313C89.6835 37.5812 88.823 44.2525 84.6186 50.6451C78.8345 59.4534 73.8064 65.5387 74.0646 75.2137C74.0728 75.5621 73.9458 75.6215 73.6835 75.392Z" fill="#202583"/>
<path d="M74.5687 79.0062C74.7654 79.1086 74.9273 79.2541 75.0543 79.4426C75.0769 79.4769 75.0914 79.5158 75.0967 79.5566C75.1021 79.5974 75.0981 79.639 75.0852 79.6785C75.0722 79.7179 75.0506 79.7541 75.0219 79.7846C74.9932 79.815 74.9581 79.8389 74.9191 79.8544C64.8569 83.8007 52.3359 85.1284 42.12 81.6124C24.5833 75.5825 22.2106 59.4841 18.0124 43.7484C16.9879 39.9005 15.0128 36.6632 12.0869 34.0365C11.9517 33.9136 11.9742 33.8541 12.1545 33.8582C15.8221 33.932 19.4897 33.889 23.1572 33.7292C28.0214 33.5161 31.3058 33.5509 33.0105 33.8337C40.0977 35.0077 46.7301 38.9293 51.1865 44.5905C52.4035 46.1395 53.93 48.8768 55.7658 52.8026C60.6586 63.2766 64.654 73.9167 74.5687 79.0062Z" fill="#00A751"/>
</svg>
