<svg width="100" height="100" viewBox="0 0 100 100" fill="none" xmlns="http://www.w3.org/2000/svg">
<rect width="100" height="100" fill="#595C62"/>
<path d="M25.2452 58V40.8203H30.8116C32.9209 40.8203 34.2959 40.9062 34.9366 41.0781C35.9209 41.3359 36.7452 41.8984 37.4092 42.7656C38.0733 43.625 38.4053 44.7383 38.4053 46.1055C38.4053 47.1602 38.2139 48.0469 37.8311 48.7656C37.4483 49.4844 36.96 50.0508 36.3662 50.4648C35.7803 50.8711 35.1827 51.1406 34.5733 51.2734C33.7452 51.4375 32.5459 51.5195 30.9756 51.5195H28.7139V58H25.2452ZM28.7139 43.7266V48.6016H30.6123C31.9795 48.6016 32.8936 48.5117 33.3545 48.332C33.8155 48.1523 34.1748 47.8711 34.4327 47.4883C34.6983 47.1055 34.8311 46.6602 34.8311 46.1523C34.8311 45.5273 34.6475 45.0117 34.2803 44.6055C33.9131 44.1992 33.4483 43.9453 32.8858 43.8438C32.4717 43.7656 31.6397 43.7266 30.3897 43.7266H28.7139ZM55.3239 58H51.5505L50.0505 54.0977H43.1833L41.7653 58H38.0856L44.777 40.8203H48.445L55.3239 58ZM48.9372 51.2031L46.57 44.8281L44.2497 51.2031H48.9372ZM57.5589 58V40.8203H69.3363V43.7266H61.0277V47.793H68.1995V50.6992H61.0277V58H57.5589ZM72.4619 58V40.8203H75.9306V58H72.4619Z" fill="#F8F8F8"/>
</svg>
