<svg width="100" height="100" viewBox="0 0 100 100" fill="none" xmlns="http://www.w3.org/2000/svg">
<g clip-path="url(#clip0_86_1898)">
<rect width="100" height="100" fill="#DA251D"/>
<path d="M38.0001 24C42.0001 3.2 51.6668 -5.33333 56.0001 -7H106V108L36.5 106C75.5 77.5 57.0001 59 49.5001 52.5C42.0001 46 35.5001 36 38.0001 24Z" fill="#163B86"/>
<path d="M47.8292 14H51.5392C66.9595 14.8921 82.2637 21.0066 90.6193 34.4648C96.7845 44.3908 96.6576 56.489 90.4634 66.444L90.4271 34.7767C90.4262 34.7235 90.4047 34.6728 90.3674 34.6355C90.3301 34.5981 90.2799 34.5772 90.2276 34.5772H37.7473C37.0728 27.5743 37.8416 21.3547 40.3186 14.7507L47.8292 14Z" fill="#163B86"/>
<path d="M40.3185 14.7507C37.8415 21.3547 37.0727 27.5743 37.7472 34.5773H9.53599C9.2918 34.5773 9.17092 34.6994 9.17333 34.9436L9.22048 66.6725C9.22048 66.7572 9.25448 66.8383 9.31501 66.8982C9.37554 66.958 9.45764 66.9917 9.54324 66.9917L59.6699 67.0171C59.711 67.2975 59.8537 67.9491 60.0978 68.9718C61.5739 75.1551 59.4922 80.9177 56.163 86.3721C36.5396 88.8273 11.284 79.6956 5.19859 58.694C1.34716 45.4099 7.09893 32.4775 17.8481 24.2705C24.4171 19.2562 31.9072 16.0829 40.3185 14.7507Z" fill="#DA251D"/>
<path d="M37.7472 34.5774H90.2276C90.2799 34.5774 90.33 34.5983 90.3673 34.6356C90.4047 34.6729 90.4261 34.7236 90.427 34.7769L90.4633 66.4442C90.5092 66.6183 90.4125 66.8274 90.1732 67.0716L59.67 67.0172L9.54329 66.9918C9.45768 66.9918 9.37559 66.9582 9.31506 66.8983C9.25453 66.8385 9.22052 66.7573 9.22052 66.6727L9.17338 34.9437C9.17096 34.6995 9.29184 34.5774 9.53603 34.5774H37.7472Z" fill="#FEFEFE"/>
<path d="M38.3383 36.7603C38.9065 39.2384 39.8845 41.5534 41.2722 43.7052C41.0002 47.0634 42.5125 49.3119 45.5153 50.6936C46.6468 51.2134 47.7747 51.6075 48.8989 51.8759L53.7368 56.9168C49.1238 59.644 46.1318 58.7059 44.761 54.1026C44.7247 53.9865 44.6462 53.9345 44.5253 53.9466L40.6521 54.3528C40.5481 54.3649 40.4998 54.4217 40.507 54.5233C41.0075 61.3775 46.9116 63.198 52.7903 62.0702C54.0717 61.826 55.243 61.2723 56.3044 60.4092C57.2643 61.7269 57.9956 63.1183 58.4985 64.5834H11.7192C11.5983 64.5834 11.5378 64.5242 11.5378 64.4057V36.9452C11.5378 36.8962 11.5573 36.8491 11.592 36.8144C11.6267 36.7797 11.6737 36.7603 11.7228 36.7603H38.3383Z" fill="#DA251D"/>
<path d="M38.3381 36.7603H87.7866C87.9075 36.7603 87.968 36.8219 87.968 36.9452V64.4021C87.968 64.523 87.9075 64.5834 87.7866 64.5834H58.4983C57.9954 63.1183 57.2641 61.7269 56.3042 60.4092C59.8184 56.9313 59.347 50.8278 54.7339 48.7171C52.8445 47.8503 48.0864 47.31 46.3203 45.7469C42.7444 42.5737 52.5616 39.3097 53.3558 45.1776C53.3638 45.2353 53.3928 45.2882 53.4376 45.3262C53.4823 45.3643 53.5396 45.3849 53.5988 45.3843L57.6969 45.2537C57.8395 45.2489 57.9072 45.1739 57.8999 45.0289C57.6134 39.2626 52.975 37.8265 48.0574 38.1819C44.4163 38.4454 42.1545 40.2865 41.272 43.7052C39.8843 41.5534 38.9063 39.2384 38.3381 36.7603Z" fill="#163B86"/>
<path d="M56.3045 60.4093C55.2431 61.2724 54.0717 61.8261 52.7903 62.0703C46.9116 63.1981 41.0075 61.3776 40.5071 54.5234C40.4998 54.4218 40.5482 54.365 40.6521 54.3529L44.5253 53.9467C44.6462 53.9346 44.7248 53.9866 44.761 54.1027C46.1319 58.706 49.1238 59.6441 53.7368 56.9169C54.3243 55.0819 54.0765 53.8549 52.9934 53.2359C51.9659 52.6484 50.6011 52.1951 48.899 51.876C47.7747 51.6076 46.6469 51.2135 45.5154 50.6937C42.5126 49.312 41.0003 47.0635 41.2723 43.7053C42.1547 40.2866 44.4165 38.4455 48.0576 38.182C52.9753 37.8266 57.6137 39.2627 57.9002 45.029C57.9074 45.174 57.8397 45.249 57.6971 45.2538L53.599 45.3844C53.5399 45.385 53.4825 45.3644 53.4378 45.3263C53.3931 45.2883 53.364 45.2354 53.356 45.1777C52.5618 39.3098 42.7447 42.5738 46.3205 45.747C48.0866 47.3101 52.8447 47.8505 54.7342 48.7172C59.3472 50.8279 59.8186 56.9314 56.3045 60.4093Z" fill="#FEFEFE"/>
<path d="M29.0217 49.9575C32.5323 51.5628 33.7073 54.2248 32.5468 57.9432C31.4298 61.5299 28.5974 62.2117 24.9455 62.3169C21.3938 62.4184 17.8579 62.4462 14.3377 62.4003C14.2925 62.4003 14.2491 62.3823 14.2172 62.3504C14.1852 62.3184 14.1672 62.275 14.1672 62.2298V39.1249C14.1672 39.0209 14.2204 38.9677 14.3268 38.9653C18.0477 38.8831 21.7601 38.9012 25.4641 39.0197C26.7575 39.0608 27.773 39.2566 28.5104 39.6072C32.7245 41.6127 32.982 47.2774 29.0109 49.7471C28.8851 49.8269 28.8888 49.897 29.0217 49.9575Z" fill="#FEFEFE"/>
<path d="M72.0112 53.8927V62.2338C72.0112 62.3547 71.9507 62.4151 71.8298 62.4151H67.8406C67.6593 62.4151 67.5686 62.3245 67.5686 62.1431V39.205C67.5686 39.0599 67.6411 38.985 67.7862 38.9802C73.3445 38.8544 76.9844 38.8738 78.7058 39.0382C86.8584 39.8215 86.4776 52.5617 78.8872 53.3233C76.8684 53.5264 74.7081 53.5892 72.4065 53.5119C72.1429 53.5022 72.0112 53.6291 72.0112 53.8927Z" fill="#FEFEFE"/>
<path d="M18.704 42.9473C18.704 42.9303 18.7074 42.9135 18.714 42.8979C18.7206 42.8822 18.7302 42.8681 18.7424 42.8562C18.7546 42.8444 18.769 42.8351 18.7848 42.829C18.8006 42.8228 18.8175 42.8199 18.8345 42.8204L24.6661 42.8421C25.3952 42.8453 26.0934 43.0987 26.6074 43.5467C27.1214 43.9948 27.4093 44.6009 27.4078 45.232V45.805C27.407 46.1183 27.3349 46.4283 27.1956 46.7174C27.0563 47.0064 26.8524 47.2687 26.5957 47.4893C26.3391 47.71 26.0346 47.8846 25.6997 48.0032C25.3649 48.1218 25.0062 48.182 24.6443 48.1805L18.8128 48.1587C18.7797 48.1578 18.7484 48.144 18.7253 48.1203C18.7023 48.0966 18.6894 48.0648 18.6895 48.0318L18.704 42.9473Z" fill="#DA251D"/>
<path d="M72.0981 43.0088C72.0981 42.9838 72.1081 42.9598 72.1258 42.9422C72.1435 42.9245 72.1674 42.9146 72.1924 42.9146H76.4899C77.4181 42.9146 78.3083 43.2458 78.9646 43.8355C79.6209 44.4251 79.9896 45.2249 79.9896 46.0588V46.3997C79.9896 47.2336 79.6209 48.0334 78.9646 48.623C78.3083 49.2127 77.4181 49.5439 76.4899 49.5439H72.1924C72.1674 49.5439 72.1435 49.534 72.1258 49.5163C72.1081 49.4986 72.0981 49.4747 72.0981 49.4497V43.0088Z" fill="#163B86"/>
<path d="M48.8992 51.8762C50.6012 52.1954 51.9661 52.6487 52.9936 53.2362C54.0767 53.8551 54.3245 55.0821 53.737 56.9172L48.8992 51.8762Z" fill="#163B86"/>
<path d="M18.6931 52.4128C18.6931 52.3551 18.716 52.2997 18.7568 52.2589C18.7977 52.2181 18.853 52.1952 18.9107 52.1952L25.094 52.1843C25.5061 52.1838 25.9141 52.2562 26.295 52.3975C26.6758 52.5388 27.0219 52.7462 27.3136 53.0079C27.6052 53.2696 27.8367 53.5804 27.9947 53.9226C28.1527 54.2647 28.2343 54.6316 28.2347 55.0022V55.5897C28.2354 56.3379 27.9058 57.0558 27.3182 57.5856C26.7306 58.1154 25.9331 58.4137 25.1013 58.4148L18.9216 58.4257C18.8927 58.4262 18.864 58.4209 18.8372 58.4102C18.8104 58.3994 18.786 58.3835 18.7654 58.3632C18.7448 58.343 18.7284 58.3188 18.7173 58.2922C18.7061 58.2656 18.7004 58.237 18.7004 58.2081L18.6931 52.4128Z" fill="#DA251D"/>
<path d="M90.1732 67.0715C82.3579 78.4191 69.6939 84.8309 56.1631 86.3722C59.4923 80.9178 61.5739 75.1551 60.0979 68.9718C59.8537 67.9491 59.7111 67.2975 59.67 67.0171L90.1732 67.0715Z" fill="#163B86"/>
</g>
<defs>
<clipPath id="clip0_86_1898">
<rect width="100" height="100" fill="white"/>
</clipPath>
</defs>
</svg>
