<svg width="100" height="100" viewBox="0 0 100 100" fill="none" xmlns="http://www.w3.org/2000/svg">
<rect width="100" height="100" fill="#EDF3FF"/>
<path d="M79.1538 62.355C79.5188 62.02 79.5989 61.615 79.3938 61.14C77.7738 57.4133 76.1438 54.1467 74.5038 51.34C74.3405 51.06 74.0472 50.9783 73.6238 51.095C65.0372 37.615 53.3671 28.185 38.6138 22.805C31.7538 20.305 23.6938 19.025 16.2388 17.885C15.8921 17.8317 15.7454 17.6817 15.7988 17.435C15.809 17.3883 15.8349 17.3464 15.8722 17.3164C15.9095 17.2864 15.9559 17.27 16.0038 17.27L83.9138 17C83.9429 17 83.9717 17.0058 83.9985 17.0173C84.0253 17.0287 84.0494 17.0454 84.0695 17.0665C84.0896 17.0875 84.1052 17.1124 84.1154 17.1396C84.1256 17.1669 84.1302 17.1959 84.1289 17.225C83.9189 21.865 84.1038 26.99 84.1538 31.095C84.3772 48.6983 84.6405 66.28 84.9438 83.84C84.9438 83.8726 84.9318 83.9044 84.9103 83.9295C84.8889 83.9546 84.8593 83.9712 84.8273 83.9761C84.7952 83.9811 84.7629 83.974 84.7365 83.9563C84.7101 83.9386 84.6913 83.9114 84.6839 83.88C84.0805 81.7233 83.6039 79.5283 83.2539 77.295C82.4472 72.1217 81.0805 67.1417 79.1538 62.355Z" fill="#003399"/>
<path d="M15.7693 33.7899C46.0493 28.6049 69.9994 53.4199 64.1444 83.6649C64.1344 83.7124 64.1093 83.7554 64.0729 83.7875C64.0366 83.8195 63.9908 83.839 63.9424 83.8429C63.8941 83.8469 63.8458 83.8351 63.8047 83.8093C63.7636 83.7835 63.7319 83.7452 63.7144 83.6999C63.661 83.5599 63.621 83.3883 63.5944 83.1849C60.7144 58.2099 40.3043 37.7199 15.1943 34.3749C14.9776 34.3449 14.9426 34.2483 15.0893 34.0849C15.2126 33.9449 15.4393 33.8466 15.7693 33.7899Z" fill="#003399"/>
<path d="M73.6245 51.0949C74.0478 50.9783 74.3412 51.0599 74.5045 51.3399C76.1445 54.1466 77.7745 57.4133 79.3945 61.1399C79.5995 61.6149 79.5195 62.0199 79.1545 62.3549C77.5878 58.4449 75.7445 54.6916 73.6245 51.0949Z" fill="#003399"/>
<path d="M38.3587 59.3648C44.0354 64.6881 46.8021 71.2481 46.6588 79.0448C46.6238 80.9598 46.6338 82.1448 46.1188 83.6448C46.1013 83.6959 46.0671 83.7397 46.0217 83.7691C45.9763 83.7984 45.9223 83.8115 45.8684 83.8063C45.8146 83.8011 45.7641 83.7779 45.7252 83.7404C45.6862 83.7029 45.661 83.6533 45.6538 83.5998C43.4088 68.4398 31.7537 55.7298 16.3437 53.5948C16.2919 53.5885 16.2433 53.5659 16.2052 53.5301C16.1672 53.4944 16.1415 53.4474 16.132 53.396C16.1225 53.3447 16.1297 53.2916 16.1525 53.2446C16.1753 53.1976 16.2125 53.1591 16.2587 53.1348C16.502 53.0014 16.802 52.9131 17.1587 52.8698C25.3137 51.8648 32.3437 53.7148 38.3587 59.3648Z" fill="#003399"/>
</svg>
