<svg width="100" height="100" viewBox="0 0 100 100" fill="none" xmlns="http://www.w3.org/2000/svg">
<rect width="100" height="100" fill="white"/>
<path d="M45.7299 8.01562H53.5074C63.1975 8.56812 72.555 10.7406 81.58 14.5331C81.6837 14.5765 81.7678 14.6566 81.8162 14.7581C87.6625 26.5481 91.4125 41.0231 90.3888 54.2231C89.5463 65.1081 86.6963 75.4668 81.8387 85.2993C81.7857 85.4057 81.6965 85.4895 81.5875 85.5355C60.9625 94.2843 38.1399 94.3293 17.5861 85.5018C17.4711 85.4543 17.3873 85.3743 17.3348 85.2618C12.5948 75.6018 9.76858 65.4381 8.85608 54.7706C7.71233 41.4093 11.4586 26.7206 17.3836 14.7769C17.4386 14.6644 17.5248 14.5831 17.6423 14.5331C26.6299 10.7356 35.9924 8.56312 45.7299 8.01562ZM21.8686 19.9931C18.1561 28.1581 15.9023 36.6393 15.1073 45.4368C14.0536 57.1106 17.1173 69.913 22.0224 80.488C22.0634 80.575 22.1357 80.6433 22.2249 80.6793C40.3724 87.6193 58.5349 87.6555 76.7125 80.788C77.0912 80.6455 77.215 80.4318 77.3725 80.083C81.1725 71.7505 83.455 63.0106 84.22 53.8631C84.3775 51.9581 84.39 49.9181 84.2575 47.7431C83.655 37.8706 81.3075 28.5006 77.215 19.6331C77.1645 19.5225 77.0715 19.4362 76.9562 19.3931C58.7762 12.4681 40.6087 12.4456 22.4536 19.3256C22.1011 19.4569 22.0149 19.6744 21.8686 19.9931Z" fill="#E30917"/>
<path d="M70.2473 39.8983C70.1223 36.4458 69.4423 33.1108 68.2073 29.8933C68.1684 29.7919 68.1081 29.6999 68.0304 29.6236C67.9528 29.5473 67.8597 29.4884 67.7573 29.4508C56.046 25.2546 43.2098 25.6071 31.461 29.4846C31.356 29.5196 31.2835 29.5896 31.2435 29.6946C25.0035 46.2846 26.3647 62.1383 35.3272 77.2558C35.3424 77.2796 35.3496 77.3077 35.348 77.3359C35.3463 77.3641 35.3359 77.3911 35.318 77.4131C35.3002 77.4351 35.276 77.4509 35.2487 77.4583C35.2214 77.4657 35.1925 77.4644 35.166 77.4545L28.1197 75.0583C27.9947 75.0158 27.901 74.9358 27.8385 74.8183C19.4385 58.967 19.0747 40.8283 27.3247 24.8458C27.3747 24.7508 27.4497 24.6858 27.5497 24.6508C42.8698 18.9608 58.0973 19.1746 73.2323 25.2921C73.3794 25.3499 73.4998 25.4609 73.5698 25.6033C76.7798 32.0871 77.7398 39.9921 77.9423 46.6521C77.9433 46.6872 77.9373 46.7221 77.9245 46.7548C77.9118 46.7875 77.8926 46.8174 77.8681 46.8425C77.8437 46.8677 77.8144 46.8877 77.7821 46.9014C77.7497 46.915 77.715 46.9221 77.6798 46.9221H43.836C43.8002 46.9222 43.7648 46.9149 43.732 46.9005C43.6992 46.886 43.6698 46.8649 43.6457 46.8383C43.6217 46.8118 43.6035 46.7805 43.5923 46.7465C43.5812 46.7124 43.5773 46.6764 43.581 46.6408L44.1998 40.3558C44.2072 40.2796 44.2425 40.209 44.2987 40.1576C44.3548 40.1063 44.4279 40.078 44.5035 40.0783H70.0748C70.1948 40.0783 70.2523 40.0183 70.2473 39.8983Z" fill="#E30917"/>
<path d="M34.7948 33.8119C34.8177 33.7333 34.8615 33.6623 34.9215 33.6063C34.9815 33.5502 35.0556 33.5111 35.1361 33.4931L40.7161 32.2594C40.9536 32.2069 41.0348 32.2969 40.9598 32.5294C38.8798 38.9394 38.0736 45.5144 38.5411 52.2544C38.5459 52.3337 38.5811 52.4081 38.6397 52.4625C38.6983 52.5169 38.7757 52.5471 38.8561 52.5469H77.6724C77.8099 52.5469 77.8737 52.6156 77.8637 52.7531C77.3424 60.1406 76.0674 68.3418 72.9699 75.1181C72.8299 75.4231 72.6124 75.6318 72.3174 75.7443C62.2699 79.6043 51.9249 80.5993 41.2823 78.7293C41.2198 78.7187 41.1601 78.6949 41.1071 78.6594C41.0541 78.6238 41.0091 78.5774 40.9748 78.5231C32.3611 65.0418 30.411 49.1681 34.7948 33.8119ZM68.5524 70.5993C69.8299 67.0418 70.7211 63.3893 71.2261 59.6418C71.2304 59.6104 71.2279 59.5783 71.2188 59.5479C71.2096 59.5175 71.194 59.4895 71.173 59.4656C71.152 59.4418 71.1261 59.4227 71.0971 59.4098C71.0681 59.3968 71.0366 59.3903 71.0049 59.3906H39.8198C39.6848 59.3906 39.6336 59.4556 39.6661 59.5856C40.7436 64.0481 42.3186 68.3268 44.3911 72.4218C44.4207 72.4787 44.4615 72.529 44.5112 72.5697C44.5608 72.6103 44.6182 72.6404 44.6798 72.6581C52.3524 74.7918 60.8836 73.9668 68.1549 71.0118C68.3499 70.9318 68.4824 70.7943 68.5524 70.5993Z" fill="#E30917"/>
</svg>
