<svg width="100" height="100" viewBox="0 0 100 100" fill="none" xmlns="http://www.w3.org/2000/svg">
<rect width="100" height="100" fill="#F7F1E6"/>
<path d="M65.2717 33.3031C59.1208 32.5231 52.9576 32.9637 46.7907 33.1746C46.7858 33.1745 46.7812 33.1727 46.7775 33.1694C46.7738 33.1661 46.7715 33.1617 46.7708 33.1569C46.7701 33.152 46.7712 33.1471 46.7738 33.143C46.7764 33.1388 46.7804 33.1358 46.7851 33.1343C52.727 31.7346 58.7889 30.7137 64.8742 30.2243C67.7399 29.9943 70.6089 29.9412 73.4814 30.0649C78.8139 30.2956 85.624 31.3746 89.1368 35.9421C90.373 37.5496 90.7093 39.3474 90.1456 41.3356C89.1724 44.7678 86.9355 47.2165 84.1558 49.3587C82.219 50.8506 79.903 52.3384 77.208 53.8221C70.3192 57.614 63.1552 60.6375 55.7158 62.8925C44.6963 66.2318 33.4407 68.4097 21.9844 69.4709C18.04 69.8359 14.09 70.1193 10.1344 70.3212C10.1237 70.3218 10.1147 70.3184 10.1072 70.3109C10.1016 70.3053 10.0956 70.2997 10.0894 70.294C10.0875 70.2915 10.0909 70.2893 10.0997 70.2875C14.4909 69.4465 18.9122 68.764 23.3241 68.0356C28.691 67.15 34.0841 65.9456 39.5035 64.4225C50.8276 61.2415 61.7448 56.6365 70.5733 48.7587C71.8736 47.5981 73.1561 46.2078 74.0749 44.6196C75.6124 41.9637 76.1299 38.3656 73.4102 36.2196C71.1367 34.4253 68.0927 33.6603 65.2717 33.3031Z" fill="#C08332"/>
<path d="M10.2522 66.1119L10.2476 66.0612C14.1823 65.0984 18.1498 64.2744 22.1107 63.4287C26.2926 62.5356 30.4342 61.4853 34.5354 60.2778C42.4536 57.9462 50.5011 54.4353 56.1505 48.3294C57.7902 46.5584 59.6961 43.3137 58.3668 40.8781C57.7058 39.6659 56.1983 38.6815 54.9036 38.1331C52.6593 37.1825 50.1711 36.754 47.7542 36.5572C44.787 36.3162 41.8123 36.2853 38.8376 36.2103C38.8322 36.2097 38.8271 36.2073 38.8233 36.2034C38.8195 36.1995 38.8171 36.1943 38.8167 36.1889C38.8162 36.1834 38.8177 36.178 38.8208 36.1735C38.824 36.169 38.8286 36.1658 38.8339 36.1643C43.1061 35.2587 47.532 34.8593 52.0771 34.7581C54.9227 34.6943 57.6905 34.87 60.3805 35.285C63.3102 35.7359 66.9843 36.8112 68.9137 39.1503C70.0152 40.4862 70.424 41.9825 69.9281 43.6784C69.3777 45.5619 68.3249 47.0881 66.9027 48.4156C64.9358 50.2522 62.6802 51.6912 60.3421 53.0037C55.5002 55.7219 50.4358 57.9322 45.1489 59.6347C40.3648 61.175 35.4945 62.2719 30.5445 63.1259C23.802 64.2884 17.4429 65.3047 10.2522 66.1119Z" fill="#A6A8AB"/>
<path d="M30.5738 39.3218C30.3619 39.313 30.3597 39.2874 30.5672 39.2449C34.411 38.4649 38.4441 38.0149 42.4042 38.0749C45.9939 38.1293 51.2214 38.7602 53.372 42.1296C54.6367 44.1105 53.1798 46.788 51.6826 48.244C50.1901 49.6943 48.5214 50.7837 46.7504 51.7887C42.2029 54.3699 37.4029 56.339 32.3504 57.6959C30.6016 58.1659 28.841 58.5884 27.0685 58.9634C21.4278 60.1565 15.7466 61.1059 10.0247 61.8115C9.99843 61.8146 9.99312 61.8056 10.0087 61.7843C10.0156 61.7749 10.0247 61.769 10.0359 61.7665C15.4528 60.4718 20.9016 59.3299 26.2538 57.7774C32.5688 55.9455 39.5166 53.1368 43.8995 48.0077C44.9514 46.7768 45.9404 44.8249 45.3639 43.1937C44.8857 41.839 43.1926 41.0224 41.9326 40.6127C38.296 39.4315 34.3548 39.4859 30.5738 39.3218Z" fill="#00A551"/>
<path d="M10.2477 66.0613L10.2524 66.1119C10.2005 66.1325 10.1505 66.1375 10.1024 66.1269C10.058 66.1175 10.0577 66.1075 10.1014 66.0969L10.2477 66.0613Z" fill="#00A551"/>
</svg>
