<svg width="100" height="100" viewBox="0 0 100 100" fill="none" xmlns="http://www.w3.org/2000/svg">
<rect width="100" height="100" fill="#F38D2B"/>
<path d="M18.86 55.8608L16.8077 54.523C10.9141 50.1861 8.48872 42.7292 9.08885 35.7034C9.206 34.5175 9.44528 33.3615 9.80669 32.2352C10.2289 30.909 10.7798 29.6501 11.4595 28.4587C11.9701 27.5768 12.5581 26.765 13.2235 26.0234C13.2311 26.0152 13.2405 26.0088 13.251 26.0049C13.2616 26.001 13.2729 25.9997 13.284 26.001C13.2952 26.0023 13.3058 26.0062 13.3152 26.0124C13.3246 26.0186 13.3323 26.0269 13.3378 26.0367C14.4663 28.0603 15.7113 30.0104 17.0729 31.8871C17.1105 31.939 17.1055 31.986 17.058 32.028C16.1174 32.8536 15.4317 33.856 15.0006 35.0353C13.7457 38.4653 15.0819 41.1808 18.1306 42.8967C18.1814 42.9243 18.2052 42.9669 18.2019 43.0243C18.172 43.8068 18.124 44.4202 18.5252 45.1215C18.8783 45.7398 19.495 45.8095 20.0802 45.5077C20.131 45.4812 20.1614 45.4398 20.1714 45.3834C20.3388 44.3771 20.0056 43.7405 19.5431 42.7723C19.5315 42.7482 19.5267 42.7213 19.529 42.6945C19.5313 42.6677 19.5408 42.6419 19.5563 42.6198C20.4648 41.335 21.0997 39.2644 21.2854 38.1918C21.4634 37.1706 21.6407 36.1615 21.8176 35.1646C21.8201 35.1508 21.8273 35.1383 21.8381 35.1291C21.8488 35.12 21.8624 35.1149 21.8763 35.1147C21.8902 35.1145 21.9036 35.1192 21.9141 35.128C21.9246 35.1369 21.9315 35.1493 21.9336 35.163C21.995 35.4945 22.0464 35.8277 22.1541 36.1527C23.109 39.0251 23.5091 41.9014 23.3544 44.7816C23.1267 48.9836 21.6286 52.6767 18.86 55.8608Z" fill="white"/>
<path d="M91 37.7474V38.5315C90.9613 41.383 90.4049 44.0941 89.3306 46.6648C87.686 50.6436 85.0203 53.6735 81.3333 55.7546C81.2847 55.7811 81.194 55.7811 81.0614 55.7546C78.8178 53.0689 77.4225 49.9893 76.8754 46.5156C76.6831 45.2247 76.6162 43.9299 76.6748 42.6313C76.7765 41.2233 77.0484 39.5505 77.4905 37.6131C77.7038 36.6781 77.9563 35.9127 78.2481 35.317C78.2901 35.2319 78.3177 35.2363 78.331 35.3303L78.6907 37.7739C79.0803 39.4765 79.5163 41.3879 80.5027 42.633C80.5403 42.6805 80.5442 42.7302 80.5143 42.7822C80.196 43.3375 79.4517 45.4048 80.3054 45.7712C80.9354 46.0431 81.5024 45.2987 81.6698 44.7749C81.871 44.1449 81.9572 43.5381 81.9284 42.9546C81.9251 42.8982 81.9478 42.8551 81.9964 42.8253C83.7703 41.7162 85.2739 40.3303 85.4629 38.1287C85.6718 35.7149 84.8296 33.6603 82.9364 31.9649C84.2726 30.0451 85.5872 28.1204 86.6864 26.0647C86.6958 26.0469 86.7094 26.0318 86.7262 26.0206C86.7429 26.0094 86.7622 26.0025 86.7823 26.0006C86.8024 25.9986 86.8228 26.0016 86.8417 26.0093C86.8605 26.0171 86.8772 26.0292 86.8903 26.0448C89.0222 28.6233 90.3358 31.5621 90.8309 34.8611C90.9619 35.7381 90.9387 36.7908 91 37.7474Z" fill="white"/>
<path d="M71.7392 52.2634L73.9142 53.7471C75.8483 55.1331 77.5703 56.6936 79.08 58.4288L80.4112 60.0203C80.4332 60.0467 80.4455 60.0799 80.4461 60.1142C80.4467 60.1486 80.4356 60.1821 80.4145 60.2093C78.4981 62.6585 76.2971 64.8147 73.8114 66.6781L71.396 68.2829C66.6828 71.1592 61.7624 72.6844 56.3463 73.6111C56.0512 73.6625 55.6666 73.9443 55.398 73.9261C54.9958 73.8996 54.3188 73.8952 53.3672 73.9128C50.9568 73.9559 48.0279 73.9322 44.5808 73.8416C44.5045 73.8393 44.4183 73.8012 44.3222 73.7272C44.2824 73.6962 44.2371 73.6774 44.1862 73.6708C34.7018 72.4125 26.1342 68.1801 20.0152 60.7398L19.5925 60.2474C19.5688 60.2194 19.5559 60.1838 19.5562 60.1473C19.5565 60.1107 19.57 60.0756 19.5941 60.0485L22.4274 56.8904C28.1667 51.335 35.665 47.7889 43.5894 46.781C44.4332 46.6732 45.2406 46.5257 45.9634 46.471C54.8692 45.8078 63.9192 47.3645 71.7392 52.2634Z" fill="white"/>
<path d="M70.9901 61.0961C71.5338 63.4369 69.8976 64.2608 67.8734 64.1249C66.0166 64.0011 64.1621 63.8387 62.3098 63.6375C59.0604 63.2827 51.4328 61.8471 49.9723 58.3772C49.9611 58.3508 49.9554 58.3223 49.9556 58.2935C49.9557 58.2648 49.9617 58.2364 49.9732 58.21C49.9847 58.1837 50.0014 58.1599 50.0223 58.1402C50.0432 58.1205 50.0679 58.1053 50.0949 58.0954C52.6944 57.1471 55.6934 56.4094 58.2978 57.6345C60.1457 58.5032 61.7107 59.3548 62.9928 60.1892C65.0518 61.5288 66.5737 62.5765 68.069 63.286C68.7299 63.601 69.345 63.5552 69.9142 63.1484C69.9551 63.1197 69.9821 63.0816 69.9954 63.0341C70.3203 61.8553 67.9911 60.927 67.0428 60.7048C66.9632 60.6871 66.9544 60.6512 67.0163 60.5971L68.4055 59.3935C68.44 59.3634 68.483 59.3453 68.5282 59.3421C69.8766 59.2526 70.6972 59.8372 70.9901 61.0961Z" fill="#F38D2B"/>
<path d="M29.3609 62.7025C29.8035 63.989 31.3337 63.3673 32.2223 62.8849C32.692 62.6285 33.8166 61.9184 35.5959 60.7546C36.994 59.8384 38.6336 58.894 40.5147 57.9214C43.3081 56.4757 46.7199 56.9167 49.4652 58.1932C49.5216 58.2187 49.5399 58.2607 49.52 58.3192C48.9447 60.0086 46.3983 61.2586 44.8532 61.8255C40.649 63.3656 36.7315 63.6972 32.2737 64.0967C31.3298 64.1818 30.5291 64.1393 29.8715 63.9691C28.3264 63.5712 28.1756 61.9797 28.5917 60.7032C28.9183 59.6969 30.3092 58.8365 31.269 59.5941C31.6923 59.9279 32.1024 60.276 32.4991 60.6385C32.5478 60.6838 32.5395 60.7131 32.4743 60.7264C31.1447 61.0099 30.1666 61.4492 29.3791 62.5732C29.3662 62.5917 29.3578 62.6131 29.3547 62.6355C29.3515 62.658 29.3536 62.6809 29.3609 62.7025Z" fill="#F38D2B"/>
<path d="M53.6096 58.7307C54.0026 58.9414 54.4769 58.8218 54.669 58.4635C54.8611 58.1052 54.6982 57.644 54.3053 57.4333C53.9123 57.2226 53.438 57.3422 53.2459 57.7005C53.0538 58.0587 53.2166 58.52 53.6096 58.7307Z" fill="white"/>
<path d="M45.4255 58.7416C45.8369 58.9274 46.3023 58.7857 46.4651 58.4252C46.6279 58.0648 46.4263 57.6219 46.0149 57.4362C45.6035 57.2504 45.1381 57.3921 44.9753 57.7526C44.8125 58.1131 45.0141 58.5559 45.4255 58.7416Z" fill="white"/>
</svg>
