<svg width="100" height="100" viewBox="0 0 100 100" fill="none" xmlns="http://www.w3.org/2000/svg">
<rect width="100" height="100" fill="#1D3568"/>
<path fill-rule="evenodd" clip-rule="evenodd" d="M37.1259 43.6656L47.9153 32.8762C49.2333 31.5582 51.3702 31.5582 52.6882 32.8762L54.0291 34.2171C55.3471 35.5351 55.3471 37.672 54.0291 38.9901L43.2488 49.7704L43.2494 49.7711C41.7632 51.2617 40.7748 53.1759 40.4201 55.2507C40.0653 57.3256 40.3615 59.4594 41.268 61.3591C42.1745 63.2589 43.6468 64.8315 45.4828 65.861C47.3189 66.8905 49.4285 67.3264 51.5222 67.1088C53.6159 66.8913 55.5909 66.031 57.1761 64.6461C58.7613 63.2612 59.8789 61.4195 60.3755 59.374C60.8721 57.3284 60.7233 55.1793 59.9496 53.2217C59.5522 52.2162 58.9167 51.2287 58.1639 50.2774L55.8808 47.9943C55.2218 47.3353 55.2218 46.2668 55.8808 45.6078L67.8634 33.6251L73.9773 39.739L66.5575 47.1587C67.115 48.0729 67.5961 49.0372 67.9934 50.0425C69.4235 53.661 69.6985 57.6335 68.7806 61.4145C67.8627 65.1955 65.7969 68.5997 62.8668 71.1596C59.9367 73.7195 56.286 75.3097 52.416 75.7118C48.546 76.1138 44.6464 75.3081 41.2527 73.4052C37.8589 71.5022 35.1375 68.5954 33.4619 65.0839C31.7863 61.5723 31.2388 57.6282 31.8946 53.793C32.5503 49.9578 34.3772 46.4196 37.1243 43.6643L37.1916 43.7313L37.1259 43.6656Z" fill="#ED3841"/>
<mask id="mask0_86_1909" style="mask-type:alpha" maskUnits="userSpaceOnUse" x="17" y="10" width="67" height="81">
<path d="M32.9815 39.2885L50.1875 21.25V10L26.9734 33.2141L26.933 33.1732C22.1253 37.9285 18.8708 44.0285 17.5981 50.6698C16.3254 57.3111 17.0944 64.1821 19.8036 70.3778C22.5128 76.5735 27.0352 81.8033 32.7752 85.3781C38.5151 88.953 45.2033 90.7053 51.9587 90.4043C58.7141 90.1033 65.2199 87.763 70.6191 83.6917C76.0183 79.6205 80.0577 74.0093 82.2051 67.5971C84.3525 61.185 84.5072 54.2728 82.6489 47.7711C80.7905 41.2693 75.9304 35.1213 70.7187 30.8125L64.8125 36.7187C68.6783 39.9148 72.9603 45.3235 74.3387 50.1463C75.7171 54.969 75.6024 60.0962 74.0095 64.8525C72.4166 69.6087 69.4204 73.7709 65.4155 76.7908C61.4106 79.8107 56.5848 81.5466 51.5739 81.7699C46.563 81.9932 41.602 80.6934 37.3443 78.0417C33.0867 75.39 29.7321 71.5108 27.7225 66.9151C25.713 62.3194 25.1426 57.2227 26.0866 52.2964C27.0306 47.3702 29.4447 42.8454 33.0109 39.3182L32.9815 39.2885Z" fill="#3481C3"/>
</mask>
<g mask="url(#mask0_86_1909)">
<path d="M32.9815 39.2885L50.1875 21.25V10L26.9734 33.2141L26.933 33.1732C22.1253 37.9285 18.8708 44.0285 17.5981 50.6698C16.3254 57.3111 17.0944 64.1821 19.8036 70.3778C22.5128 76.5735 27.0352 81.8033 32.7752 85.3781C38.5151 88.953 45.2033 90.7053 51.9587 90.4043C58.7141 90.1033 65.2199 87.763 70.6191 83.6917C76.0183 79.6205 80.0577 74.0093 82.2051 67.5971C84.3525 61.185 84.5072 54.2728 82.6489 47.7711C80.7905 41.2693 75.9304 35.1213 70.7187 30.8125L64.8125 36.7187C68.6783 39.9148 72.9603 45.3235 74.3387 50.1463C75.7171 54.969 75.6024 60.0962 74.0095 64.8525C72.4166 69.6087 69.4204 73.7709 65.4155 76.7908C61.4106 79.8107 56.5848 81.5466 51.5739 81.7699C46.563 81.9932 41.602 80.6934 37.3443 78.0417C33.0867 75.39 29.7321 71.5108 27.7225 66.9151C25.713 62.3194 25.1426 57.2227 26.0866 52.2964C27.0306 47.3702 29.4447 42.8454 33.0109 39.3182L32.9815 39.2885Z" fill="url(#paint0_linear_86_1909)"/>
<path d="M24.8751 45.4375L9.12514 83.069C23.8883 90.3863 56.2258 103.612 67.4705 97.9764C78.7151 92.3408 85.2592 63.2517 87.0314 53.5937C60.22 89.612 48.5001 91.2813 24.8751 45.4375Z" fill="url(#paint1_linear_86_1909)"/>
<path d="M51.8751 26.3125V4.09375C37.1563 11.5 7.15637 29.4062 4.90637 41.7812C2.65637 54.1562 15.4063 71.6875 22.0626 78.9062C17.7876 46.2812 40.1563 30.25 51.8751 26.3125Z" fill="url(#paint2_linear_86_1909)"/>
</g>
<defs>
<linearGradient id="paint0_linear_86_1909" x1="58.0625" y1="27.4375" x2="73.8125" y2="75.25" gradientUnits="userSpaceOnUse">
<stop stop-color="#267FAF"/>
<stop offset="1" stop-color="#273F92"/>
</linearGradient>
<linearGradient id="paint1_linear_86_1909" x1="19.8127" y1="75.25" x2="81.4064" y2="63.4375" gradientUnits="userSpaceOnUse">
<stop offset="0.0807893" stop-color="#273F92"/>
<stop offset="1" stop-color="#23A6E2"/>
</linearGradient>
<linearGradient id="paint2_linear_86_1909" x1="30.7814" y1="22.375" x2="22.0626" y2="81.1562" gradientUnits="userSpaceOnUse">
<stop stop-color="#3E59AE"/>
<stop offset="1" stop-color="#3EC1FD"/>
</linearGradient>
</defs>
</svg>
