<svg width="100" height="100" viewBox="0 0 100 100" fill="none" xmlns="http://www.w3.org/2000/svg">
<rect width="100" height="100" fill="#CF2A1E"/>
<path d="M34.2639 54.5543C34.2927 54.583 34.3291 54.6027 34.3688 54.611C34.4085 54.6192 34.45 54.6158 34.4883 54.6011C34.5266 54.5863 34.5603 54.5609 34.5853 54.5277C34.6103 54.4945 34.6256 54.455 34.6295 54.4137C35.6477 41.8306 39.9283 20.2418 54.0302 15.483C63.4521 12.2993 72.6883 17.7049 77.0027 26.0018C80.059 31.8855 81.079 37.8181 80.0627 43.7993C78.6621 52.0568 73.8077 60.5731 66.0902 64.3924C56.9608 68.915 45.8627 65.7649 37.1383 61.9512C37.1048 61.9368 37.0684 61.9306 37.0321 61.933C36.9958 61.9354 36.9605 61.9464 36.9292 61.9651C36.8979 61.9837 36.8715 62.0095 36.8521 62.0404C36.8328 62.0712 36.8209 62.1062 36.8177 62.1424C36.1614 69.8412 35.8577 77.5531 35.9064 85.2781C35.9102 85.3606 35.8802 85.4075 35.8164 85.4187C35.7939 85.4225 35.7733 85.4206 35.7545 85.4131C35.7245 85.4018 35.7058 85.3718 35.6983 85.3231C35.3458 82.5518 35.0083 79.7806 34.6858 77.0093C34.0783 71.7162 34.2133 66.4681 34.2302 61.1356C34.2304 61.0432 34.2066 60.9525 34.1612 60.8726C34.1158 60.7927 34.0504 60.7262 33.9714 60.6799L19.8133 52.2424C19.7602 52.2106 19.7166 52.1652 19.6869 52.111C19.6572 52.0568 19.6425 51.9956 19.6442 51.9338C19.6459 51.8719 19.664 51.8117 19.6967 51.7592C19.7294 51.7067 19.7754 51.6638 19.8302 51.6349L28.6558 46.9381C28.8358 46.8406 28.967 46.8856 29.0495 47.0731C30.3058 49.8968 32.0439 52.3906 34.2639 54.5543ZM74.5108 34.8499C71.3327 21.3668 54.9358 16.6024 46.4758 28.7749C41.0308 36.6162 38.702 47.0731 37.5208 56.5006C37.5002 56.6536 37.5212 56.8092 37.5816 56.9509C37.642 57.0925 37.7396 57.2149 37.8639 57.3049C47.0496 64.0268 61.8546 66.845 69.9152 56.8493C74.5952 51.0499 76.204 42.0443 74.5108 34.8499Z" fill="white"/>
</svg>
