<svg width="100" height="100" viewBox="0 0 100 100" fill="none" xmlns="http://www.w3.org/2000/svg">
<rect width="100" height="100" fill="#087FC9"/>
<ellipse cx="48.6254" cy="50.6228" rx="44.067" ry="24.3167" transform="rotate(-11.3034 48.6254 50.6228)" fill="white"/>
<path fill-rule="evenodd" clip-rule="evenodd" d="M66.4321 24.2753C64.2448 24.0682 62.049 23.9779 59.8448 24.0046C54.9943 24.036 50.1988 24.5235 45.4585 25.467C37.4287 26.9579 29.867 29.6829 22.7735 33.6421C15.167 37.8895 6.96109 44.7929 5.2207 53.7927C4.66114 57.0676 5.16561 60.162 6.73401 63.076C10.5309 69.9503 19.0493 73.4911 26.4251 74.8517C26.4565 74.8575 26.4816 74.8536 26.5005 74.84C26.5172 74.8279 26.529 74.8082 26.5359 74.7809L34.3802 44.5821C35.7228 39.3047 37.505 32.8482 44.0287 32.1215C46.2578 31.9598 50.2345 32.3122 50.9775 35.0881C51.4553 36.8703 50.2436 38.9813 48.3052 39.0721C46.7029 39.1466 45.4821 38.1874 45.6528 36.4852C45.6815 36.1974 45.824 35.8671 45.9691 35.5309C46.3203 34.7167 46.6862 33.8687 45.4839 33.5113C44.641 33.2605 43.5219 33.8074 42.8897 34.3487C41.6762 35.3933 40.9331 37.5443 40.5534 39.0812C40.3613 39.8641 40.1601 40.6446 39.9588 41.4253L39.957 41.4328L39.9554 41.4395L39.9538 41.4453C39.6963 42.4443 39.4387 43.4438 39.2 44.4495C39.1906 44.4902 39.1977 44.5178 39.2212 44.5322C39.234 44.5401 39.2518 44.544 39.2745 44.544H48.447C48.4615 44.5441 48.4759 44.5475 48.4889 44.5539C48.502 44.5603 48.5133 44.5696 48.5221 44.5811C48.5256 44.5858 48.5287 44.5907 48.5314 44.5959C48.5332 44.5995 48.5348 44.6032 48.5361 44.6069C48.5371 44.6099 48.538 44.613 48.5388 44.6162L48.5396 44.6198C48.5423 44.6339 48.5417 44.6483 48.5378 44.6621L47.475 48.5843L44.7353 58.9485C44.729 58.9714 44.7157 58.9916 44.6974 59.006C44.679 59.0204 44.6566 59.0283 44.6337 59.0284L40.0374 59.0393C40.0341 59.0393 40.0309 59.0389 40.0277 59.0381L40.0228 59.0365L40.0191 59.0349C40.0163 59.0335 40.0137 59.0318 40.0113 59.0298C40.0088 59.0277 40.0065 59.0254 40.0045 59.0228C40.0027 59.0204 40.0012 59.0178 39.9999 59.015C39.9985 59.012 39.9975 59.0088 39.9968 59.0055C39.9966 59.0046 39.9965 59.0036 39.9963 59.0026C39.9962 59.0017 39.9961 59.0007 39.9961 58.9998C39.9958 58.9954 39.9963 58.9909 39.9975 58.9866L41.3019 54.1361L43.2076 47.002C43.2246 46.9378 43.1998 46.9057 43.1332 46.9057H38.6423C38.6127 46.9056 38.584 46.9154 38.5606 46.9335C38.5475 46.9436 38.5366 46.956 38.5282 46.9699C38.5254 46.9747 38.5228 46.9795 38.5206 46.9846C38.5176 46.9913 38.5152 46.9984 38.5133 47.0056L36.1207 56.258L32.1494 71.5381L31.1266 75.3804C31.0842 75.539 31.1453 75.625 31.3101 75.6383L34.9653 75.9327C42.8036 76.2548 50.5258 75.421 58.1316 73.4311C62.924 72.2224 67.5402 70.5613 71.9802 68.4479C76.8344 66.2025 81.2665 63.3346 85.2765 59.8441C90.9464 54.9082 96.173 47.2763 93.666 39.3683C92.5886 35.9693 90.1143 33.0244 87.1932 30.997C85.2589 29.6163 83.1697 28.4766 80.9256 27.578C77.8021 26.316 74.5066 25.4125 71.0392 24.8675L66.4321 24.2753ZM71.9802 68.4479C71.9787 68.4304 71.9773 68.4141 71.9762 68.3992L71.9776 68.4173L71.9802 68.4479ZM29.7329 62.209L29.7279 62.206L29.7265 62.2095L29.7329 62.209ZM59.7576 59.0775C57.9542 58.9963 56.2029 58.9999 54.5037 59.0884L47.7184 59.0448C47.7013 59.0447 47.6844 59.0409 47.6689 59.0338C47.6535 59.0267 47.6396 59.0163 47.6285 59.0034C47.6173 58.9905 47.609 58.9754 47.6042 58.959C47.6012 58.9492 47.5996 58.939 47.5992 58.9288C47.599 58.9221 47.5994 58.9153 47.6003 58.9085C48.095 55.4111 50.9533 52.7088 53.643 50.166C54.7562 49.1136 55.8405 48.0885 56.7164 47.0456C56.7261 47.0339 56.7322 47.0197 56.7341 47.0046C56.7359 46.9896 56.7335 46.9743 56.7271 46.9606C56.7206 46.9469 56.7103 46.9353 56.6975 46.9272C56.6847 46.9191 56.6698 46.9148 56.6547 46.9148L50.4053 46.9202C50.3374 46.965 50.2806 46.9711 50.2345 46.9384C50.1825 46.9008 50.1643 46.8512 50.18 46.7894L50.756 44.6384C50.7717 44.5779 50.8104 44.5476 50.8722 44.5476L55.2649 44.5422L62.6733 44.5458C61.9237 46.3104 60.8718 47.8649 59.5178 49.2092C58.9753 49.7477 58.3992 50.2896 57.8155 50.8385L57.8154 50.8386L57.815 50.839L57.8147 50.8393C56.0747 52.4757 54.2678 54.1752 53.083 56.0345C53.076 56.0457 53.0712 56.058 53.0685 56.0708C53.0673 56.0769 53.0666 56.083 53.0664 56.0891C53.0658 56.1085 53.0703 56.1277 53.0795 56.1447C53.0846 56.1541 53.091 56.1627 53.0986 56.1702C53.1047 56.1762 53.1115 56.1815 53.119 56.186L53.1248 56.1893C53.1274 56.1906 53.1301 56.1919 53.1327 56.193C53.1365 56.1946 53.1405 56.1961 53.1446 56.1972C53.1541 56.2 53.1639 56.2015 53.1739 56.2017L60.3825 56.2216C60.4178 56.2216 60.4441 56.2284 60.4612 56.2419C60.487 56.2622 60.4922 56.2979 60.477 56.3488L60.4461 56.4506L59.7576 59.0775ZM74.1493 56.823C73.0133 58.0195 71.6363 58.8171 70.0182 59.2155C66.3212 60.2038 62.1592 59.0084 61.4998 54.7701C61.2182 51.1422 63.0167 47.8486 66.0142 45.8611C68.6502 44.1007 72.983 43.2796 75.3665 45.8157C76.6491 47.7741 75.2266 50.2629 73.519 51.4383C71.4606 52.8263 68.5994 53.1805 66.1759 53.1533C66.1463 53.1533 66.1229 53.1608 66.1057 53.1759C66.0899 53.1898 66.0793 53.2101 66.0741 53.2368C65.4275 56.3742 68.3396 57.5842 70.8103 56.416C71.7683 55.9618 72.6379 55.3599 73.419 54.6102L74.1838 56.6595C74.2069 56.72 74.1953 56.7745 74.1493 56.823ZM12.7345 58.8922L18.517 37.4644C18.5248 37.4354 18.5369 37.4118 18.5531 37.3937C18.5795 37.364 18.6171 37.3488 18.6659 37.3481C19.058 37.337 19.4562 37.3234 19.8591 37.3096L19.862 37.3095L19.8652 37.3093C22.8807 37.2059 26.1483 37.0938 28.9175 37.9603C32.5727 39.1048 33.3266 42.4112 32.1785 45.7267C30.5525 50.8897 24.1251 51.3257 19.6852 51.2857C19.6369 51.2851 19.5899 51.3008 19.5514 51.3304C19.5128 51.3601 19.4851 51.4019 19.4726 51.4492L17.436 58.9449C17.4203 59.0018 17.3834 59.0302 17.3252 59.0302L12.8454 59.0375C12.7865 59.0375 12.7496 59.0205 12.7345 58.9865C12.7241 58.9631 12.7241 58.9316 12.7345 58.8922ZM32.8732 46.3517C32.8497 46.3647 32.8237 46.3721 32.7973 46.3734L32.7954 46.3735L33.0523 45.9755L32.9524 46.2589C32.938 46.2984 32.91 46.3313 32.8732 46.3517ZM33.0921 45.9088C33.0855 45.916 33.0795 45.9238 33.074 45.9321C33.0659 45.9444 33.059 45.9579 33.0534 45.9727L33.0995 45.9011L33.0921 45.9088ZM83.1256 46.6786C83.1171 46.4897 83.1662 46.3225 83.2727 46.1772L83.6888 44.6875C83.7057 44.6294 83.6845 44.5918 83.6252 44.5749C83.3095 44.4847 82.9955 44.5196 82.7062 44.5518L82.706 44.5518C82.5407 44.5701 82.3836 44.5876 82.2391 44.5803C81.6455 44.5513 81.0557 44.5434 80.4696 44.5567L79.1216 44.5731L76.5491 54.1252C76.5722 54.3153 76.5243 54.5 76.4056 54.6793L75.2648 58.9376C75.2634 58.9429 75.2622 58.9481 75.2613 58.953C75.2601 58.9604 75.2595 58.9673 75.2595 58.9737C75.2598 58.9896 75.2643 59.0022 75.273 59.0116C75.281 59.0203 75.2926 59.0262 75.3078 59.0293C75.3165 59.0311 75.3263 59.0321 75.3374 59.0321H79.8374C79.9027 59.0321 79.9458 59.0012 79.9663 58.9394L80.1407 58.4216C80.6737 56.3676 81.2271 54.3135 81.8012 52.2595C82.2978 50.4852 83.1286 48.9634 84.2937 47.6941C84.8072 47.1346 85.48 46.8869 86.312 46.9511C86.3732 46.9558 86.4308 46.9815 86.4755 47.0238C86.7856 47.3143 86.8451 47.629 86.9042 47.9428C86.9434 48.1511 86.9827 48.3589 87.095 48.5589C87.6746 49.5889 89.1206 49.7215 90.0163 49.0385C91.1444 48.1792 91.1971 46.2808 90.3651 45.2016C89.2659 43.7755 86.8534 44.2806 85.5581 45.149C84.5238 45.8429 83.6815 46.5896 83.0311 47.3889C83.012 47.4122 82.996 47.4263 82.983 47.4314C82.9811 47.4321 82.9792 47.4327 82.9774 47.433C82.9751 47.4335 82.9729 47.4336 82.9708 47.4333L82.9683 47.4329L82.9666 47.4324L82.9646 47.4315C82.9513 47.4248 82.9437 47.4009 82.942 47.3599C82.9312 47.1455 82.9923 46.9184 83.1256 46.6786ZM74.3425 51.4744L74.3423 51.4772L74.3423 51.4788C74.3426 51.4754 74.3427 51.472 74.3426 51.4685L74.3425 51.4744ZM74.3528 51.6309L74.3439 51.6303L74.3398 51.6298C74.3439 51.6303 74.3482 51.6307 74.3528 51.6309ZM37.714 74.8343L37.7077 74.8345L37.7127 74.8344L37.714 74.8343ZM47.5889 49.1741C47.5788 49.1534 47.5778 49.1305 47.5859 49.1053L47.584 49.1121L47.583 49.1165C47.582 49.121 47.5813 49.1254 47.5809 49.1297C47.5799 49.1414 47.5811 49.1525 47.5846 49.1631L47.587 49.1696L47.5889 49.1741ZM80.6564 32.8486L80.6572 32.8444C80.7194 32.5486 80.7807 32.2561 80.8373 31.9688C80.7808 32.2561 80.7195 32.5485 80.6574 32.8444L80.657 32.8464L80.6564 32.8486ZM45.8775 26.1592C45.8888 26.1891 45.8885 26.2223 45.8768 26.2522C45.8844 26.2326 45.8872 26.2116 45.885 26.191C45.8838 26.1802 45.8813 26.1695 45.8775 26.1592ZM65.445 32.6896C65.445 32.6807 65.4452 32.6718 65.4456 32.6629C65.4447 32.6801 65.4448 32.6972 65.446 32.7141L65.4455 32.7041L65.445 32.6896ZM22.799 39.4191C24.7519 39.3501 28.0129 39.4609 27.9257 42.2804C27.876 43.8754 27.4515 45.284 26.6522 46.506C25.2243 48.6897 22.6537 49.1039 20.2556 48.9912C20.1769 48.9864 20.1478 48.9458 20.1684 48.8695L22.6936 39.5027C22.6999 39.4791 22.7136 39.4581 22.7326 39.443C22.7338 39.4421 22.7349 39.4412 22.7361 39.4404C22.7373 39.4395 22.7386 39.4386 22.7399 39.4377L22.7427 39.4359L22.7469 39.4334C22.7628 39.4244 22.7807 39.4195 22.799 39.4191ZM66.3921 51.1658C66.7791 49.5035 67.8872 47.6905 69.4714 46.8984C70.2472 46.5115 71.3027 46.2135 72.0094 46.7894C72.6034 47.2727 72.3672 48.1047 72.0112 48.706C70.814 50.7334 68.6848 51.2185 66.4758 51.2694C66.4628 51.2697 66.45 51.2671 66.4383 51.2617C66.4266 51.2563 66.4163 51.2483 66.4083 51.2383C66.4002 51.2283 66.3945 51.2165 66.3917 51.2039C66.3889 51.1914 66.3891 51.1783 66.3921 51.1658Z" fill="#087FC9"/>
</svg>
