<svg width="100" height="100" viewBox="0 0 100 100" fill="none" xmlns="http://www.w3.org/2000/svg">
<rect width="100" height="100" fill="#566072"/>
<path d="M51.8876 20.6939C56.4138 17.3865 57.6251 12.954 53.8601 8.29645C53.8386 8.27026 53.8247 8.23862 53.8201 8.20505C53.8155 8.17148 53.8202 8.13728 53.8338 8.10624C53.8474 8.07519 53.8693 8.0485 53.8971 8.02913C53.9249 8.00975 53.9575 7.99844 53.9913 7.99645C65.7288 7.1452 76.255 14.1765 78.6888 25.9364C79.1838 28.3327 79.1613 32.3789 78.3513 34.7002C78.3428 34.7251 78.3268 34.7467 78.3056 34.7621C78.2843 34.7776 78.2588 34.7861 78.2326 34.7865C78.2063 34.7869 78.1806 34.7792 78.1589 34.7644C78.1371 34.7497 78.1205 34.7285 78.1113 34.7039C74.1588 24.2977 65.0726 18.4777 54.0813 19.3439C54.0387 19.3474 53.9979 19.3628 53.9635 19.3884C53.9292 19.4139 53.9027 19.4486 53.8871 19.4884C53.8714 19.5283 53.8673 19.5717 53.8751 19.6138C53.8829 19.6559 53.9024 19.6949 53.9313 19.7264C59.5601 25.7939 53.7776 31.6739 48.1788 34.1189C38.0126 38.5552 26.9727 41.3714 22.4577 52.7564C22.443 52.7906 22.4179 52.8193 22.386 52.8383C22.3541 52.8574 22.3169 52.8658 22.2799 52.8625C22.2429 52.8592 22.2079 52.8442 22.1798 52.8198C22.1518 52.7953 22.1323 52.7627 22.1239 52.7264C19.2702 38.7202 28.1877 31.0289 39.9289 26.3339C45.1676 24.2377 48.7601 22.9814 51.8876 20.6939Z" fill="#00AEF0"/>
<path d="M47.9842 45.3651C52.4355 43.4301 57.9817 38.9789 55.5217 33.3051C55.1655 32.4876 54.3705 31.6401 53.838 30.8151C53.8187 30.7866 53.8074 30.7535 53.805 30.7192C53.8027 30.6849 53.8095 30.6505 53.8248 30.6197C53.84 30.5888 53.8631 30.5626 53.8918 30.5436C53.9204 30.5245 53.9536 30.5134 53.988 30.5114C60.7955 30.0164 66.7229 31.8989 71.7704 36.1589C73.0492 37.2351 74.2192 38.8701 75.4717 40.1976C75.5542 40.2851 75.5567 40.3739 75.4792 40.4639C69.5467 47.5889 62.3767 50.0001 53.163 53.7164C47.5642 55.9739 40.998 62.0264 46.5817 68.2139C46.6452 68.2841 46.6873 68.371 46.7032 68.4643C46.7191 68.5576 46.7081 68.6535 46.6715 68.7408C46.635 68.8281 46.5743 68.9032 46.4967 68.9573C46.419 69.0114 46.3275 69.0423 46.233 69.0464C37.4605 69.4239 30.4843 66.1789 25.3043 59.3114C25.2421 59.2288 25.2091 59.1278 25.2105 59.024C25.2118 58.9202 25.2475 58.8196 25.3118 58.7376C31.2218 51.3239 39.6743 48.9764 47.9842 45.3651Z" fill="#00AEF0"/>
<path d="M78.569 56.3226C76.619 64.1413 68.8941 70.0026 61.6153 72.8038C56.5566 74.7501 51.2841 76.4826 47.0541 80.1126C47.0395 80.1251 47.0223 80.1342 47.0038 80.1393C46.9853 80.1445 46.9658 80.1454 46.9469 80.1422C46.9279 80.139 46.9099 80.1317 46.8941 80.1207C46.8783 80.1097 46.865 80.0955 46.8554 80.0788C46.3754 79.2688 45.5916 78.5976 45.2279 77.8213C42.1829 71.2776 48.6666 66.6576 53.6391 64.6101C62.0091 61.1638 71.1891 58.4113 76.304 50.1988C76.9378 49.1788 77.4928 47.7613 78.0815 46.5238C78.159 46.3563 78.2215 46.3613 78.269 46.5388C79.2115 50.0863 79.3115 53.3476 78.569 56.3226Z" fill="#00AEF0"/>
<path d="M21.9967 64.9101C22.0267 64.7226 22.1042 64.5926 22.2292 64.5201C22.2495 64.5076 22.2724 64.4999 22.2962 64.4976C22.32 64.4952 22.344 64.4983 22.3664 64.5067C22.3888 64.515 22.409 64.5283 22.4255 64.5455C22.442 64.5628 22.4544 64.5836 22.4617 64.6064C25.9754 75.0164 35.6916 80.7951 46.4353 80.2739C46.4798 80.2714 46.524 80.2822 46.5624 80.3048C46.6007 80.3275 46.6315 80.361 46.6508 80.4012C46.6701 80.4413 46.677 80.4863 46.6707 80.5304C46.6644 80.5745 46.6451 80.6157 46.6153 80.6489C44.7478 82.7589 44.1116 85.0739 44.7066 87.5939C45.0066 88.8576 45.9328 89.9751 46.7091 91.0476C46.733 91.0803 46.7477 91.1187 46.7516 91.159C46.7555 91.1992 46.7485 91.2399 46.7313 91.2769C46.7142 91.3138 46.6875 91.3458 46.6539 91.3694C46.6204 91.393 46.5812 91.4075 46.5403 91.4114C40.8329 91.8389 35.6716 90.5039 31.0566 87.4064C25.3379 83.5739 21.5392 76.8689 21.5804 69.8564C21.5879 68.1989 21.7267 66.5501 21.9967 64.9101Z" fill="#00AEF0"/>
</svg>
