<svg width="100" height="100" viewBox="0 0 100 100" fill="none" xmlns="http://www.w3.org/2000/svg">
<rect width="100" height="100" fill="#FFF0F0"/>
<path d="M67.1137 42.0106C64.6762 42.0094 62.2787 40.8744 60.92 38.8069C57.825 34.0944 54.695 29.3102 51.53 24.4544C51.4758 24.3702 51.4988 24.3281 51.5988 24.3281C57.0779 24.3248 62.5829 24.3252 68.1137 24.3294C70.2875 24.3307 72.1062 24.9094 73.6662 26.4531C74.0471 26.8298 74.5475 27.4923 75.1675 28.4406C78.1083 32.9423 81.0425 37.4394 83.97 41.9319C83.9751 41.9398 83.9781 41.949 83.9785 41.9584C83.9789 41.9678 83.9767 41.9772 83.9722 41.9855C83.9678 41.9939 83.9611 42.0008 83.953 42.0057C83.9449 42.0105 83.9357 42.0131 83.9262 42.0131C78.3295 42.0165 72.7254 42.0156 67.1137 42.0106Z" fill="#E51937"/>
<path d="M32.7525 49.683C33.7913 48.0918 35.4663 46.9793 37.2713 46.5668C37.7704 46.4526 38.4879 46.3947 39.4238 46.393C45.2529 46.3872 51.0758 46.3864 56.8925 46.3905C56.8997 46.3908 56.9067 46.3932 56.9125 46.3975C56.9183 46.4018 56.9227 46.4077 56.9251 46.4144C56.9274 46.4212 56.9276 46.4284 56.9255 46.4351C56.9235 46.4417 56.9194 46.4476 56.9137 46.4518C55.3612 47.6568 54.295 48.9118 53.1525 50.6605C48.4558 57.853 43.7625 65.0476 39.0725 72.2443C38.4492 73.201 37.9517 73.8664 37.58 74.2405C35.985 75.8468 34.1263 76.418 31.8913 76.4193C26.3871 76.4218 20.9021 76.4218 15.4363 76.4193C15.3471 76.4193 15.3271 76.3822 15.3763 76.308C21.1621 67.438 26.9542 58.563 32.7525 49.683Z" fill="#0077C0"/>
<path d="M60.8837 49.5979C61.8862 48.0629 63.6199 46.9642 65.3524 46.5679C65.8608 46.4512 66.6074 46.3925 67.5924 46.3917C73.0266 46.3875 78.4716 46.3871 83.9274 46.3904C83.9357 46.3904 83.9438 46.3927 83.9509 46.3969C83.958 46.4012 83.9639 46.4073 83.9679 46.4146C83.9718 46.4218 83.9738 46.4301 83.9735 46.4383C83.9731 46.4466 83.9706 46.4547 83.9661 46.4617C81.1003 50.8542 78.2328 55.2537 75.3637 59.6604C74.707 60.6696 74.2207 61.3454 73.9049 61.6879C72.8557 62.8254 71.567 63.5617 70.0387 63.8967C69.4987 64.015 68.6841 64.0746 67.5949 64.0754C62.2383 64.0779 56.8991 64.0779 51.5774 64.0754C51.4841 64.0754 51.4629 64.0367 51.5137 63.9592C54.6579 59.1375 57.7812 54.3504 60.8837 49.5979Z" fill="#B2BB1C"/>
</svg>
