<svg width="100" height="100" viewBox="0 0 100 100" fill="none" xmlns="http://www.w3.org/2000/svg">
<rect width="100" height="100" fill="#FFC8B7"/>
<path d="M62.2172 66.2681C59.4946 66.6437 56.9214 66.2858 54.4975 65.1942C54.4307 65.1643 54.356 65.1581 54.2858 65.1765C54.2156 65.1949 54.1543 65.2369 54.1122 65.2953C48.8871 72.3745 39.2073 73.0054 33.1153 66.663C23.0022 55.5819 34.8827 39.4634 48.68 44.9967C48.8341 45.0577 48.9593 45.0224 49.0556 44.8908C50.6769 42.7173 52.7541 41.104 55.2872 40.0509C63.5897 37.1277 72.3111 42.1988 73.6258 50.9491C74.7431 58.3509 69.4987 64.9486 62.2172 66.2681Z" fill="white"/>
<path d="M52.1476 49.1046C55.9184 51.5222 58.7693 45.9455 55.0901 44.2985C55.0309 44.2713 54.9807 44.2277 54.9454 44.1729C54.9101 44.1181 54.8914 44.0545 54.8914 43.9898C54.8914 43.9251 54.9101 43.862 54.9454 43.8082C54.9807 43.7545 55.0309 43.7123 55.0901 43.6869C67.6978 38.1198 76.4914 54.9317 65.1069 61.6064C62.1757 63.3273 58.8769 63.3722 55.2105 61.7413C54.5314 61.4427 53.7561 60.7011 53.0096 60.2917C52.8491 60.2018 52.74 60.2452 52.6822 60.4217C48.1409 74.1516 27.4715 66.0899 33.8717 52.5913C33.9519 52.4275 34.0354 52.4259 34.1221 52.5864C36.713 57.33 42.7905 51.4981 37.8736 48.7242C37.6746 48.6086 37.6794 48.5027 37.8881 48.4063C42.2287 46.3612 46.2435 46.8252 49.9323 49.7981C50.0832 49.9201 50.1924 49.8896 50.2598 49.7066L50.8618 48.1078C50.8775 48.0655 50.9044 48.0283 50.9396 48.0001C50.9748 47.9718 51.0168 47.9537 51.0611 47.9478C51.1053 47.9418 51.1502 47.9482 51.1906 47.9662C51.2311 47.9842 51.2656 48.0132 51.2904 48.05L51.7864 48.7579C51.886 48.8992 52.0063 49.0147 52.1476 49.1046Z" fill="#474545"/>
<path d="M25.3668 54.2092C25.4984 54.129 25.6301 54.2237 25.7617 54.4934C25.8355 54.641 25.8612 54.7951 25.8388 54.9557C24.707 63.0751 28.7957 69.6583 35.5137 73.8432C41.413 77.3106 48.4826 77.6621 55.1621 76.6749C56.5346 76.4726 57.8204 75.9718 59.1978 75.7069C60.0999 75.5336 60.5141 74.9444 60.4402 73.9395C60.437 73.8817 60.3953 73.8079 60.315 73.718C60.2439 73.6378 60.2076 73.5321 60.2139 73.4242L60.498 67.2937C60.5076 67.1172 60.5991 67.0305 60.7725 67.0337C61.9347 67.0433 62.4163 66.7881 62.2173 66.268C69.4987 64.9484 74.7431 58.3508 73.6259 50.9489C72.3111 42.1986 63.5898 37.1276 55.2873 40.0508C53.125 40.0074 50.433 39.1695 47.8325 39.5548C47.2353 39.6446 46.7313 39.6992 46.3203 39.7185C42.5592 39.9111 38.8462 40.7972 35.0899 41.2403C34.9679 41.2563 34.8619 41.2194 34.7721 41.1295L34.642 40.9995C34.4815 40.839 34.3178 40.8342 34.1508 40.985L31.9596 42.998C31.8408 43.1072 31.6996 43.1522 31.5358 43.1329C30.7364 43.0398 29.709 42.7717 28.4537 42.3287C26.5563 41.6609 24.1099 41.5389 21.1145 41.9627C21.1016 41.9627 21.1016 41.9643 21.1145 41.9675C21.153 41.9835 21.1931 42.0044 21.2349 42.0301C21.3858 42.1264 21.3745 42.1954 21.2011 42.2372C17.6134 43.104 14.3483 45.3722 14.8732 49.3742C14.8925 49.509 14.9663 49.5588 15.0947 49.5235C15.6405 49.3726 16.0771 49.5026 16.4046 49.9135C16.517 50.0548 16.6631 50.1142 16.8429 50.0917C17.4914 50.0115 17.8012 50.3437 17.7723 51.0886C15.1718 50.1591 11.3673 48.9744 8.59821 49.4608C8.50674 49.4771 8.42115 49.5172 8.35004 49.577C8.27893 49.6368 8.2248 49.7142 8.19309 49.8016C8.16137 49.8889 8.15319 49.9831 8.16935 50.0746C8.18552 50.1661 8.22547 50.2517 8.28519 50.3229C11.1458 53.7662 18.2009 55.8177 22.4147 56.5641C22.4458 56.571 22.474 56.5876 22.4949 56.6116C22.5159 56.6355 22.5287 56.6656 22.5314 56.6973C22.5341 56.7291 22.5266 56.7609 22.5099 56.788C22.4932 56.8152 22.4683 56.8363 22.4388 56.8483C19.6681 57.8339 16.8717 57.8484 14.0497 56.8916C10.5968 55.7166 2.14987 51.4401 4.36513 46.6147C5.00563 45.2133 6.92713 43.9179 8.49708 43.3255C15.4463 40.7202 24.2351 40.0652 31.2324 42.8151C31.3769 42.8696 31.5037 42.8423 31.6129 42.7332C39.7275 34.6715 51.6225 31.3631 62.7277 34.4741C62.8818 34.519 63.007 34.4757 63.1034 34.3441C67.322 28.6229 74.9984 24.9196 81.6682 23.3881C86.0747 22.3768 91.401 23.4026 89.6625 29.4609C88.1985 34.5704 83.1708 42.0638 77.6759 42.1986C77.387 42.205 77.3485 42.1119 77.5604 41.9193C80.3487 39.3621 86.4407 33.2605 86.8115 29.3982C86.8242 29.2644 86.8001 29.1297 86.7417 29.0086C86.6834 28.8876 86.593 28.7848 86.4804 28.7114C86.3678 28.6379 86.2373 28.5967 86.103 28.5922C85.9686 28.5876 85.8356 28.6199 85.7183 28.6855C80.9988 31.3535 76.8717 36.7231 73.9293 41.1873C73.8394 41.3254 73.8458 41.4586 73.9485 41.587C82.4821 52.3022 77.074 65.849 66.6141 72.4948C57.7851 78.1004 48.5404 79.3091 38.8799 76.1211C29.5373 73.039 23.768 63.9757 25.3668 54.2092Z" fill="#E0562C"/>
<path d="M55.2873 40.0508C52.7542 41.1038 50.677 42.7172 49.0557 44.8907C48.9593 45.0223 48.8341 45.0576 48.68 44.9966C34.8828 39.4633 23.0022 55.5817 33.1154 66.6629C32.9388 66.6822 32.7767 66.7801 32.629 66.9567C32.5391 67.0626 32.5182 67.1782 32.5664 67.3034C32.621 67.4414 32.7173 67.5426 32.8553 67.6068C32.8714 67.6132 32.8714 67.6196 32.8553 67.626C32.804 67.6389 32.7542 67.6501 32.706 67.6598C32.6033 67.6887 32.56 67.7545 32.576 67.8572C32.9709 70.347 34.772 71.4642 36.0097 73.3617C36.0932 73.4933 36.0578 73.5575 35.9037 73.5543C35.5987 73.5447 35.4687 73.6409 35.5137 73.8432C28.7957 69.6583 24.707 63.0751 25.8388 54.9557C25.8612 54.7951 25.8355 54.641 25.7617 54.4934C25.6301 54.2237 25.4984 54.129 25.3668 54.2092L17.7723 51.0886C17.8012 50.3437 17.4914 50.0115 16.8429 50.0917C16.6631 50.1142 16.517 50.0548 16.4046 49.9135C16.0771 49.5026 15.6405 49.3726 15.0947 49.5235C14.9663 49.5588 14.8925 49.509 14.8732 49.3742C14.3483 45.3722 17.6134 43.104 21.2011 42.2372C21.3745 42.1954 21.3858 42.1264 21.2349 42.0301C21.1931 42.0044 21.153 41.9835 21.1145 41.9675C21.1016 41.9643 21.1016 41.9627 21.1145 41.9627C24.1099 41.5389 26.5563 41.6609 28.4537 42.3287C29.709 42.7717 30.7364 43.0398 31.5358 43.1329C31.6996 43.1522 31.8408 43.1072 31.9596 42.998L34.1508 40.985C34.3178 40.8342 34.4815 40.839 34.642 40.9995L34.7721 41.1295C34.8619 41.2194 34.9679 41.2563 35.0899 41.2403C38.8462 40.7972 42.5592 39.9111 46.3203 39.7185C46.7313 39.6992 47.2353 39.6446 47.8325 39.5548C50.433 39.1695 53.125 40.0074 55.2873 40.0508Z" fill="#E0562C"/>
<path d="M62.2173 66.268C62.4163 66.7881 61.9347 67.0433 60.7725 67.0337C60.5991 67.0305 60.5076 67.1172 60.498 67.2937L60.2139 73.4242C60.2076 73.5321 60.2439 73.6378 60.315 73.718C60.3953 73.8079 60.437 73.8817 60.4402 73.9395C60.5141 74.9444 60.0999 75.5336 59.1978 75.7069C57.8204 75.9718 56.5346 76.4726 55.1621 76.6749C48.4826 77.6621 41.413 77.3106 35.5137 73.8432C35.4687 73.6409 35.5987 73.5447 35.9037 73.5543C36.0578 73.5575 36.0932 73.4933 36.0097 73.3617C34.772 71.4642 32.9709 70.347 32.576 67.8572C32.56 67.7545 32.6033 67.6887 32.706 67.6598C32.7542 67.6501 32.804 67.6389 32.8553 67.626C32.8714 67.6196 32.8714 67.6132 32.8553 67.6068C32.7173 67.5426 32.621 67.4414 32.5664 67.3034C32.5182 67.1782 32.5391 67.0626 32.629 66.9567C32.7767 66.7801 32.9388 66.6822 33.1154 66.6629C39.2074 73.0053 48.887 72.3744 54.1122 65.2952C54.1543 65.2368 54.2156 65.1948 54.2858 65.1764C54.3559 65.158 54.4307 65.1642 54.4974 65.194C56.9214 66.2856 59.4947 66.6436 62.2173 66.268Z" fill="#E0562C"/>
</svg>
