<svg width="100" height="100" viewBox="0 0 100 100" fill="none" xmlns="http://www.w3.org/2000/svg">
<rect width="100" height="100" fill="#8BB916"/>
<path d="M31.5938 39.9351V31.6851C31.5937 31.6342 31.6039 31.5838 31.6236 31.5369C31.6433 31.49 31.6721 31.4475 31.7084 31.4119C31.7447 31.3763 31.7878 31.3483 31.8351 31.3295C31.8823 31.3107 31.9329 31.3016 31.9837 31.3026L39.2288 31.5051C39.2851 31.5072 39.3412 31.4969 39.393 31.4749C39.4449 31.4528 39.4912 31.4196 39.5288 31.3776L49.6388 19.85C49.6746 19.81 49.7186 19.7779 49.7677 19.756C49.8168 19.734 49.87 19.7227 49.9237 19.7227C49.9775 19.7227 50.0307 19.734 50.0798 19.756C50.1289 19.7779 50.1729 19.81 50.2087 19.85L60.4837 31.4151C60.5205 31.4561 60.5656 31.4888 60.6161 31.5108C60.6666 31.5328 60.7212 31.5436 60.7763 31.5426L67.7663 31.4376C67.8171 31.4366 67.8677 31.4457 67.9149 31.4645C67.9622 31.4833 68.0053 31.5113 68.0416 31.5469C68.0779 31.5825 68.1067 31.625 68.1264 31.6719C68.1461 31.7188 68.1563 31.7692 68.1562 31.8201V39.9351C68.1562 40.0365 68.1965 40.1338 68.2683 40.2055C68.34 40.2773 68.4373 40.3176 68.5387 40.3176H85.7738C85.8752 40.3176 85.9725 40.3579 86.0442 40.4296C86.116 40.5013 86.1562 40.5986 86.1562 40.7001V75.9351C86.1562 76.0366 86.116 76.1339 86.0442 76.2056C85.9725 76.2773 85.8752 76.3176 85.7738 76.3176H71.3512C71.2498 76.3176 71.1525 76.2773 71.0808 76.2056C71.009 76.1339 70.9688 76.0366 70.9688 75.9351V57.5751C70.9688 57.4737 70.9285 57.3764 70.8567 57.3046C70.785 57.2329 70.6877 57.1926 70.5863 57.1926H58.5188C58.465 57.1926 58.4118 57.1812 58.3626 57.1593C58.3135 57.1373 58.2696 57.1052 58.2337 57.0651L50.3063 48.1851C50.2704 48.145 50.2264 48.1129 50.1773 48.091C50.1282 48.069 50.075 48.0577 50.0212 48.0577C49.9675 48.0577 49.9143 48.069 49.8652 48.091C49.8161 48.1129 49.7721 48.145 49.7362 48.1851L41.9062 57.0651C41.8704 57.1052 41.8265 57.1373 41.7774 57.1593C41.7282 57.1812 41.675 57.1926 41.6213 57.1926H29.6963C29.5948 57.1926 29.4975 57.2329 29.4258 57.3046C29.354 57.3764 29.3137 57.4737 29.3137 57.5751L29.3588 75.9351C29.3588 76.0366 29.3185 76.1339 29.2467 76.2056C29.175 76.2773 29.0777 76.3176 28.9762 76.3176H13.9763C13.8748 76.3176 13.7775 76.2773 13.7058 76.2056C13.634 76.1339 13.5938 76.0366 13.5938 75.9351V40.7001C13.5938 40.5986 13.634 40.5013 13.7058 40.4296C13.7775 40.3579 13.8748 40.3176 13.9763 40.3176H31.2113C31.3127 40.3176 31.41 40.2773 31.4817 40.2055C31.5535 40.1338 31.5938 40.0365 31.5938 39.9351Z" fill="#FEF200"/>
<path d="M34.2188 42.3279V34.3704C34.2205 34.2681 34.2609 34.1702 34.3319 34.0965C34.4028 34.0227 34.4991 33.9786 34.6012 33.9729L40.3013 33.6954C40.3554 33.6931 40.4085 33.68 40.4574 33.6568C40.5064 33.6336 40.5502 33.6008 40.5863 33.5604L49.6763 23.4054C49.7148 23.3628 49.762 23.3288 49.8146 23.3058C49.8673 23.2828 49.9242 23.2713 49.9817 23.272C50.0392 23.2727 50.0958 23.2856 50.1479 23.3099C50.2 23.3342 50.2463 23.3693 50.2837 23.4129L59.4338 33.7929C59.4717 33.8375 59.5188 33.8733 59.5719 33.8979C59.625 33.9225 59.6827 33.9353 59.7412 33.9354L65.3887 33.8604C65.4432 33.8594 65.4973 33.8694 65.5478 33.8897C65.5983 33.9101 65.6442 33.9404 65.6827 33.979C65.7212 34.0175 65.7516 34.0633 65.7719 34.1138C65.7923 34.1644 65.8023 34.2185 65.8013 34.2729L65.5987 42.2154C65.5967 42.2705 65.6059 42.3254 65.6258 42.3768C65.6457 42.4282 65.6759 42.475 65.7145 42.5143C65.7531 42.5536 65.7994 42.5846 65.8504 42.6054C65.9014 42.6263 65.9562 42.6365 66.0112 42.6354L83.2087 42.5379C83.2632 42.5369 83.3173 42.5469 83.3678 42.5672C83.4183 42.5876 83.4642 42.618 83.5027 42.6565C83.5412 42.695 83.5716 42.7409 83.5919 42.7914C83.6123 42.8419 83.6223 42.896 83.6213 42.9504L83.4937 73.483C83.4938 73.5891 83.4521 73.691 83.3778 73.7667C83.3035 73.8424 83.2024 73.886 83.0963 73.888L73.5713 73.978C73.5181 73.9789 73.4652 73.9695 73.4157 73.95C73.3662 73.9306 73.321 73.9016 73.2827 73.8647C73.2443 73.8277 73.2137 73.7836 73.1924 73.7349C73.1712 73.6861 73.1597 73.6336 73.1587 73.5805L72.9788 55.3404C72.9768 55.2343 72.9333 55.1332 72.8575 55.0589C72.7818 54.9846 72.6799 54.9429 72.5737 54.9429H59.5088C59.4502 54.9428 59.3925 54.93 59.3394 54.9054C59.2863 54.8808 59.2392 54.845 59.2012 54.8004L50.6138 44.5254C50.5768 44.4801 50.5305 44.4433 50.478 44.4176C50.4256 44.3919 50.3681 44.3778 50.3097 44.3764C50.2513 44.375 50.1932 44.3862 50.1395 44.4094C50.0859 44.4325 50.0378 44.467 49.9987 44.5104L40.5487 54.8154C40.5103 54.8563 40.4638 54.8887 40.4121 54.9107C40.3605 54.9326 40.3049 54.9436 40.2488 54.9429H27.0563C27.0031 54.9429 26.9504 54.9534 26.9013 54.9738C26.8521 54.9941 26.8075 55.0239 26.7699 55.0616C26.7323 55.0992 26.7024 55.1438 26.6821 55.1929C26.6617 55.2421 26.6512 55.2947 26.6512 55.3479L26.4788 73.663C26.4788 73.7161 26.4683 73.7688 26.4479 73.8179C26.4276 73.8671 26.3977 73.9117 26.3601 73.9493C26.3225 73.9869 26.2779 74.0168 26.2287 74.0371C26.1796 74.0575 26.1269 74.068 26.0737 74.068H16.6238C16.5706 74.068 16.5179 74.0575 16.4688 74.0371C16.4196 74.0168 16.375 73.9869 16.3374 73.9493C16.2998 73.9117 16.2699 73.8671 16.2496 73.8179C16.2292 73.7688 16.2188 73.7161 16.2188 73.663V43.3029C16.2187 43.1968 16.2604 43.0949 16.3347 43.0192C16.409 42.9434 16.5101 42.8999 16.6163 42.8979L33.8213 42.7329C33.9274 42.7309 34.0285 42.6874 34.1028 42.6117C34.1771 42.5359 34.2188 42.434 34.2188 42.3279Z" fill="#8BB916"/>
<path d="M73.6462 53.6677L60.6638 53.6152C60.4231 53.6128 60.1858 53.5594 59.9673 53.4586C59.7488 53.3578 59.5542 53.2118 59.3963 53.0302L50.7938 43.0477C50.7284 42.9708 50.6473 42.9089 50.5559 42.866C50.4645 42.8231 50.3648 42.8002 50.2634 42.7987C50.162 42.7973 50.0613 42.8174 49.9678 42.8578C49.8743 42.8981 49.7903 42.9577 49.7213 43.0327C46.5963 46.4977 43.5338 49.8202 40.5338 53.0002C39.3038 54.3052 38.7788 53.5627 37.5263 53.6002C33.5663 53.7052 29.6013 53.7702 25.6313 53.7952C25.3313 53.7952 25.1838 53.9452 25.1888 54.2452L25.3013 72.3202C25.3013 72.6202 25.1538 72.7677 24.8588 72.7627L17.8913 72.7252C17.5263 72.7202 17.3438 72.5377 17.3438 72.1777V44.4502C17.3435 44.3074 17.3725 44.1661 17.429 44.035C17.4856 43.9039 17.5685 43.7858 17.6726 43.6881C17.7766 43.5904 17.8997 43.515 18.034 43.4668C18.1684 43.4186 18.3113 43.3984 18.4538 43.4077C23.1788 43.7227 27.9038 43.7652 32.6288 43.5352C32.8038 43.5252 32.9738 43.5552 33.1388 43.6252C33.5488 43.8002 33.9588 43.8352 34.3688 43.7302C34.5086 43.6954 34.633 43.6147 34.7226 43.5007C34.8121 43.3867 34.8618 43.2459 34.8638 43.1002L35.0138 35.4727C35.0147 35.385 35.033 35.2984 35.0674 35.2178C35.1019 35.1372 35.1519 35.0642 35.2146 35.0029C35.2772 34.9416 35.3514 34.8932 35.4327 34.8606C35.5141 34.828 35.6011 34.8117 35.6888 34.8127L40.4663 34.9027C40.7913 34.9077 41.0588 34.7877 41.2688 34.5427L49.5938 24.9727C49.636 24.9248 49.6879 24.8864 49.7461 24.8602C49.8043 24.8339 49.8674 24.8203 49.9313 24.8203C49.9951 24.8203 50.0582 24.8339 50.1164 24.8602C50.1746 24.8864 50.2265 24.9248 50.2688 24.9727L58.6313 34.6477C58.8413 34.8877 59.1063 35.0077 59.4263 35.0077L64.1063 34.9402C64.3063 34.9402 64.4763 35.0127 64.6163 35.1577C64.8413 35.3977 64.8538 35.7177 64.6538 36.1177C64.6242 36.1818 64.6088 36.2509 64.6087 36.3202L64.8413 42.7177C64.8471 42.8868 64.9184 43.0471 65.0401 43.1646C65.1619 43.2821 65.3245 43.3478 65.4937 43.3477L81.9863 43.4977C82.1016 43.4977 82.2123 43.5435 82.2938 43.6251C82.3754 43.7067 82.4212 43.8173 82.4212 43.9327L82.4287 72.4177C82.4288 72.4627 82.4198 72.5072 82.4024 72.5486C82.3849 72.5901 82.3594 72.6276 82.3273 72.6591C82.2951 72.6905 82.257 72.7152 82.2152 72.7317C82.1734 72.7482 82.1287 72.7562 82.0837 72.7552L74.8613 72.7402C74.4963 72.7402 74.3162 72.5577 74.3213 72.1927L74.4038 54.4327C74.4038 54.2298 74.3239 54.0352 74.1819 53.8918C74.0398 53.7483 73.8472 53.6677 73.6462 53.6677Z" fill="#808080"/>
<path d="M54.694 36.5377C54.694 37.1661 54.5703 37.7883 54.3298 38.3688C54.0893 38.9494 53.7369 39.4769 53.2925 39.9212C52.8482 40.3655 52.3207 40.718 51.7402 40.9585C51.1596 41.1989 50.5374 41.3227 49.909 41.3227C49.2806 41.3227 48.6584 41.1989 48.0779 40.9585C47.4973 40.718 46.9698 40.3655 46.5255 39.9212C46.0812 39.4769 45.7287 38.9494 45.4883 38.3688C45.2478 37.7883 45.124 37.1661 45.124 36.5377C45.124 35.2686 45.6282 34.0515 46.5255 33.1542C47.4229 32.2568 48.64 31.7527 49.909 31.7527C51.1781 31.7527 52.3952 32.2568 53.2925 33.1542C54.1899 34.0515 54.694 35.2686 54.694 36.5377Z" fill="#57696C"/>
<path d="M49.9239 40.4152C52.0654 40.4152 53.8014 38.6791 53.8014 36.5377C53.8014 34.3962 52.0654 32.6602 49.9239 32.6602C47.7824 32.6602 46.0464 34.3962 46.0464 36.5377C46.0464 38.6791 47.7824 40.4152 49.9239 40.4152Z" fill="white"/>
</svg>
