<svg width="100" height="100" viewBox="0 0 100 100" fill="none" xmlns="http://www.w3.org/2000/svg">
<rect width="100" height="100" fill="#C33D29"/>
<path d="M74.0274 71.583C81.1339 69.108 88.0978 64.9378 91.848 58.2439C98.6769 43.9372 82.6527 33.9169 71.5523 30.4855C55.7906 25.6216 36.2337 25.5916 20.1307 32.0268C14.498 34.2769 9.93414 37.2507 6.04527 41.7096C5.98027 41.7821 5.98527 41.8721 6.06027 41.9796C6.07113 41.9945 6.08492 42.007 6.10075 42.0163C6.11657 42.0256 6.13408 42.0315 6.15212 42.0337C6.17016 42.0358 6.18833 42.0341 6.20546 42.0286C6.22259 42.0232 6.23828 42.0142 6.25153 42.0021C11.9405 36.6807 19.7594 33.6919 27.5634 31.9406C31.2161 31.118 34.3424 30.698 36.9425 30.6805L38.9675 30.5755C42 30.5 43.5874 30.3993 47.0191 30.3993L51.5417 30.6393C62.6533 31.3143 80.9426 36.5232 86.1553 47.8936C88.6566 53.3575 87.3328 59.3089 83.0989 63.9065C82.9754 64.0403 82.8479 64.1741 82.7171 64.3078C79.7427 67.3464 75.958 69.4322 72.2081 71.437L68.0347 73.6681C70.1423 72.9356 72.1398 72.2405 74.0274 71.583Z" fill="white"/>
<path d="M22.9288 55.7091H50.6391C50.6883 55.7093 50.7367 55.7207 50.7809 55.7424C50.825 55.7641 50.8636 55.7956 50.8938 55.8344C50.924 55.8732 50.945 55.9184 50.9552 55.9665C50.9654 56.0147 50.9645 56.0645 50.9526 56.1122C50.2415 58.9678 46.0813 60.6811 43.6289 61.3866C42.2478 61.786 40.0678 61.9894 37.0891 61.9969C32.3746 62.0118 27.6582 62.0137 22.94 62.0025C22.7384 62.0025 22.6376 62.1033 22.6376 62.3049L22.6712 68.6599C22.6712 68.7594 22.6323 68.8548 22.563 68.9252C22.4937 68.9955 22.3997 69.035 22.3017 69.035L14.5412 68.9958C14.2575 68.9921 14.1157 68.8484 14.1157 68.5647L14.1045 41.2688C14.1045 41.1083 14.1829 41.0281 14.3397 41.0281C21.8425 40.987 29.3212 40.9926 36.7755 41.0449C40.5008 41.071 43.6233 41.6216 46.1429 42.6966C46.4453 42.8273 46.4584 42.984 46.1821 43.167C44.1552 44.4884 42.6976 46.2745 41.8092 48.5253C41.7308 48.7232 41.5889 48.7978 41.3836 48.7493C40.1854 48.4805 39.116 48.2902 37.8674 48.2902C32.8766 48.2902 27.9008 48.2902 22.94 48.2902C22.8628 48.2902 22.7887 48.3209 22.7341 48.3755C22.6795 48.4301 22.6488 48.5041 22.6488 48.5813V55.4291C22.6488 55.6157 22.7421 55.7091 22.9288 55.7091Z" fill="white"/>
<path d="M50.9243 53.5759L42.3856 53.4303C42.349 53.4299 42.3129 53.4216 42.2796 53.4058C42.2464 53.39 42.2167 53.3672 42.1924 53.3387C42.1682 53.3103 42.1499 53.2768 42.1388 53.2405C42.1277 53.2042 42.1241 53.1659 42.128 53.1279C43.1302 44.5108 48.7238 40.9722 56.753 41.0002C63.9424 41.0226 71.1224 41.0244 78.293 41.0058C78.3599 41.0058 78.4239 41.0323 78.4712 41.0796C78.5184 41.1268 78.545 41.1909 78.545 41.2577L78.5058 47.8983C78.5021 48.0626 78.4199 48.1447 78.2594 48.1447C71.8652 48.1596 65.484 48.1596 59.1159 48.1447C54.9501 48.1335 52.0049 48.7886 51.3274 53.2399C51.2938 53.4676 51.1595 53.5796 50.9243 53.5759Z" fill="white"/>
<path d="M70.102 61.8513V57.9487C70.102 57.6687 69.962 57.5288 69.6821 57.5288H60.729C60.5461 57.5288 60.4546 57.4373 60.4546 57.2544L60.4154 51.8736C60.4154 51.7243 60.4901 51.6497 60.6394 51.6497H78.2152C78.4018 51.6497 78.4952 51.7411 78.4952 51.924L78.512 68.7327C78.512 68.8969 78.4298 68.9809 78.2656 68.9846C70.8822 69.0294 63.495 69.0425 56.1041 69.0238C52.1119 69.0182 46.4623 67.2545 44.6258 63.3015C44.5823 63.2072 44.5607 63.1044 44.5626 63.0006C44.5645 62.8969 44.5898 62.7949 44.6366 62.7023C44.6835 62.6097 44.7507 62.5288 44.8331 62.4658C44.9156 62.4028 45.0112 62.3593 45.1129 62.3384C47.4832 61.8457 49.4541 60.6942 51.0256 58.8838C51.1451 58.7494 51.2496 58.7587 51.3392 58.9118C53.7412 63.0383 65.785 62.4336 69.8444 62.1313C70.0162 62.1163 70.102 62.023 70.102 61.8513Z" fill="white"/>
</svg>
