<svg width="100" height="100" viewBox="0 0 100 100" fill="none" xmlns="http://www.w3.org/2000/svg">
<rect width="100" height="100" fill="white"/>
<path d="M62.625 50.0625C62.625 57.0006 57.0006 62.625 50.0625 62.625C43.1244 62.625 37.5 57.0006 37.5 50.0625C37.5 43.1244 43.1244 37.5 50.0625 37.5C57.0006 37.5 62.625 43.1244 62.625 50.0625ZM41.2688 50.0625C41.2688 54.9192 45.2058 58.8563 50.0625 58.8563C54.9192 58.8563 58.8563 54.9192 58.8563 50.0625C58.8563 45.2058 54.9192 41.2688 50.0625 41.2688C45.2058 41.2688 41.2688 45.2058 41.2688 50.0625Z" fill="#DB464E"/>
<path d="M67.125 50.0625C67.125 59.4859 59.4859 67.125 50.0625 67.125C40.6391 67.125 33 59.4859 33 50.0625C33 40.6391 40.6391 33 50.0625 33C59.4859 33 67.125 40.6391 67.125 50.0625ZM36.4125 50.0625C36.4125 57.6012 42.5238 63.7125 50.0625 63.7125C57.6012 63.7125 63.7125 57.6012 63.7125 50.0625C63.7125 42.5238 57.6012 36.4125 50.0625 36.4125C42.5238 36.4125 36.4125 42.5238 36.4125 50.0625Z" fill="#E19153"/>
<path d="M72 50.25C72 62.4693 62.0943 72.375 49.875 72.375C37.6557 72.375 27.75 62.4693 27.75 50.25C27.75 38.0307 37.6557 28.125 49.875 28.125C62.0943 28.125 72 38.0307 72 50.25ZM31.5112 50.25C31.5112 60.392 39.733 68.6138 49.875 68.6138C60.017 68.6138 68.2388 60.392 68.2388 50.25C68.2388 40.108 60.017 31.8862 49.875 31.8862C39.733 31.8862 31.5112 40.108 31.5112 50.25Z" fill="#F2E43B"/>
<path d="M76.5 50.25C76.5 64.9546 64.5796 76.875 49.875 76.875C35.1704 76.875 23.25 64.9546 23.25 50.25C23.25 35.5454 35.1704 23.625 49.875 23.625C64.5796 23.625 76.5 35.5454 76.5 50.25ZM26.7113 50.25C26.7113 63.043 37.082 73.4137 49.875 73.4137C62.668 73.4137 73.0387 63.043 73.0387 50.25C73.0387 37.457 62.668 27.0863 49.875 27.0863C37.082 27.0863 26.7113 37.457 26.7113 50.25Z" fill="#6F973E"/>
<path d="M81.375 50.0625C81.375 67.3559 67.3559 81.375 50.0625 81.375C32.7691 81.375 18.75 67.3559 18.75 50.0625C18.75 32.7691 32.7691 18.75 50.0625 18.75C67.3559 18.75 81.375 32.7691 81.375 50.0625ZM22.5075 50.0625C22.5075 65.2807 34.8443 77.6175 50.0625 77.6175C65.2807 77.6175 77.6175 65.2807 77.6175 50.0625C77.6175 34.8443 65.2807 22.5075 50.0625 22.5075C34.8443 22.5075 22.5075 34.8443 22.5075 50.0625Z" fill="#2E80BC"/>
<path d="M86.25 50.0625C86.25 70.0483 70.0483 86.25 50.0625 86.25C30.0767 86.25 13.875 70.0483 13.875 50.0625C13.875 30.0767 30.0767 13.875 50.0625 13.875C70.0483 13.875 86.25 30.0767 86.25 50.0625ZM17.4938 50.0625C17.4938 68.0497 32.0753 82.6312 50.0625 82.6312C68.0497 82.6312 82.6312 68.0497 82.6312 50.0625C82.6312 32.0753 68.0497 17.4938 50.0625 17.4938C32.0753 17.4938 17.4938 32.0753 17.4938 50.0625Z" fill="#79658F"/>
<path d="M91.125 50.0625C91.125 72.7407 72.7407 91.125 50.0625 91.125C27.3843 91.125 9 72.7407 9 50.0625C9 27.3843 27.3843 9 50.0625 9C72.7407 9 91.125 27.3843 91.125 50.0625ZM12.6956 50.0625C12.6956 70.6997 29.4253 87.4294 50.0625 87.4294C70.6997 87.4294 87.4294 70.6997 87.4294 50.0625C87.4294 29.4253 70.6997 12.6956 50.0625 12.6956C29.4253 12.6956 12.6956 29.4253 12.6956 50.0625Z" fill="#E1A1BB"/>
</svg>
