<svg width="100" height="100" viewBox="0 0 100 100" fill="none" xmlns="http://www.w3.org/2000/svg">
<rect width="100" height="100" fill="#DBFDFF"/>
<path d="M48.9596 60.3209C56.8321 60.9134 64.2446 59.4072 71.1971 55.8022C71.211 55.7956 71.2265 55.7929 71.2419 55.7944C71.2572 55.7958 71.2717 55.8013 71.2838 55.8103C71.2959 55.8193 71.3051 55.8314 71.3104 55.8452C71.3156 55.859 71.3166 55.874 71.3134 55.8884C68.0621 71.9234 53.8009 82.8734 37.3946 80.9646C22.8408 79.2696 11.5383 67.2434 10.387 52.7384C8.27202 26.0535 38.4783 9.786 59.8571 25.866C59.9546 25.9385 59.9784 26.031 59.9284 26.1435C57.0596 32.5372 51.9896 36.621 45.3971 38.7885C45.2846 38.826 45.1833 38.8059 45.0933 38.7284C40.3408 34.676 35.0858 33.2572 29.3283 34.4722C19.9008 36.4635 13.7245 45.6547 15.4083 55.0147C18.412 71.7209 40.5371 75.4596 48.7871 60.4147C48.804 60.3843 48.8292 60.3594 48.8598 60.3428C48.8903 60.3262 48.9249 60.3186 48.9596 60.3209Z" fill="#017CC2"/>
<path d="M30.022 44.9234C48.6971 54.6697 74.1184 39.5647 77.9134 19.7122C77.9154 19.6969 77.9234 19.6825 77.9357 19.6724C77.948 19.6622 77.9636 19.6571 77.979 19.6581C77.9944 19.6591 78.0084 19.6661 78.0179 19.6777C78.0274 19.6893 78.0316 19.7044 78.0296 19.7197C78.0746 27.0122 75.6696 33.346 70.8146 38.7209C60.6446 49.9859 42.9408 55.2772 29.947 45.0322C29.5795 44.7422 29.6045 44.7059 30.022 44.9234Z" fill="#007A36"/>
<path d="M57.6446 39.576C50.1671 45.5423 38.9433 48.3548 30.7758 42.0248C30.6033 41.8898 30.6183 41.8635 30.8208 41.946C45.4045 47.946 64.5821 34.0973 67.6683 19.7948C67.6703 19.7699 67.6821 19.7469 67.7011 19.7307C67.7201 19.7145 67.7447 19.7066 67.7696 19.7086C67.7945 19.7105 67.8175 19.7223 67.8337 19.7413C67.8499 19.7603 67.8578 19.7849 67.8558 19.8098C68.2383 27.936 63.7571 34.701 57.6446 39.576Z" fill="#D8BA00"/>
<path d="M29.0923 47.7397C54.3148 61.0897 83.7374 48.096 89.2049 19.791C89.2059 19.7811 89.2108 19.7719 89.2186 19.7656C89.2263 19.7593 89.2362 19.7563 89.2462 19.7573C89.2561 19.7583 89.2653 19.7632 89.2716 19.7709C89.2779 19.7786 89.2809 19.7886 89.2799 19.7985C89.4862 48.2722 57.3711 68.0497 33.0336 50.8935C31.6436 49.9135 30.3098 48.891 29.0323 47.826C29.0266 47.822 29.0218 47.817 29.0181 47.8112C29.0144 47.8054 29.0118 47.7989 29.0106 47.7921C29.0081 47.7784 29.0112 47.7643 29.0192 47.7528C29.0271 47.7414 29.0393 47.7336 29.053 47.7311C29.0667 47.7287 29.0809 47.7318 29.0923 47.7397Z" fill="#1F1A17"/>
</svg>
