<svg width="100" height="100" viewBox="0 0 100 100" fill="none" xmlns="http://www.w3.org/2000/svg">
<rect width="100" height="100" fill="#FFCB98"/>
<path d="M19.8025 31.6863C30.0344 17.6575 45.2892 10.2213 61.9901 6.91379C62.0332 6.90693 62.0725 6.88502 62.1011 6.85206L62.1129 6.83668C62.1175 6.83009 62.1219 6.82322 62.1255 6.81608C62.1384 6.79068 62.1458 6.76239 62.1464 6.73334C62.1469 6.68967 62.1324 6.64717 62.1046 6.61332C62.0772 6.57946 62.0384 6.55639 61.9956 6.54815C52.5624 4.20257 38.7419 9.8444 31.0017 14.7606C24.7318 18.7507 20.0236 24.4038 16.8774 31.72C15.1188 35.6726 13.9092 39.672 13.2492 43.7182C12.7993 46.4932 12.9586 46.5289 13.7274 43.8251C14.8375 39.9101 16.8623 35.8639 19.8025 31.6863Z" fill="url(#paint0_linear_86_1925)"/>
<path d="M64.7575 19.0864L76.0131 13.3095C76.2081 13.212 76.3432 13.0601 76.4182 12.8538C76.8719 11.6726 76.4201 10.7801 75.0625 10.1763C72.5087 9.04006 70.51 8.24884 69.0661 7.80259C68.8901 7.74635 68.8112 7.81007 68.8299 7.99382L68.903 8.76444C68.9137 8.85617 68.9043 8.94976 68.8752 9.03903L68.8623 9.0757L68.8511 9.10199L68.8332 9.13928C68.8241 9.15665 68.8145 9.17368 68.8041 9.19023C68.7835 9.2225 68.7601 9.25319 68.7343 9.28196C68.168 9.90819 67.4069 10.4219 66.4505 10.8232C57.5744 14.5507 48.3549 19.0264 38.7924 24.2501C35.1889 26.0913 31.7969 28.1632 28.6169 30.4657C25.4218 32.9145 22.6955 35.7457 20.4381 38.9594C18.5707 41.7832 17.1287 44.787 16.1125 47.9707C15.1336 51.0569 14.5131 54.2126 14.2506 57.4376C13.896 63.5294 16.7873 70.0938 20.2804 74.7963C21.0942 75.8913 21.1728 75.8407 20.5166 74.6444C16.5154 67.3769 16.5434 59.6913 20.6012 51.5876L23.6162 47.0089L28.8418 41.3782C32.4945 38.0782 36.3419 35.1851 40.3843 32.6988C48.3308 27.6738 56.4552 23.1363 64.7575 19.0864Z" fill="url(#paint1_linear_86_1925)"/>
<path fill-rule="evenodd" clip-rule="evenodd" d="M86.5094 23.8395C83.1492 27.312 79.3112 30.1507 74.9949 32.3557C67.1386 36.0795 59.6668 40.287 52.5792 44.9782L48.9062 47.5094C39.698 54.7151 29.2692 63.3551 30.2481 76.4501C30.7507 79.7051 32.0875 82.5401 34.2589 84.9551C39.6417 90.6532 49.6543 93.1057 57.2143 93.1057C57.3456 93.1057 57.4467 93.145 57.5181 93.2238C57.6156 93.3363 57.5912 93.3944 57.4448 93.3982C48.3212 93.7751 38.3593 91.885 31.7051 85.2645C22.7276 76.692 20.5224 67.0001 28.0711 56.4701C30.0849 52.9676 32.6763 49.707 35.8448 46.6882L40.2943 42.5257C45.7091 38.1532 51.5704 34.4764 57.8782 31.4951C63.6455 28.7126 69.4169 25.9132 75.1918 23.0969C78.4542 21.5107 81.7787 18.6757 80.5749 14.2488C80.5636 14.2118 80.5644 14.1723 80.5771 14.136C80.59 14.0996 80.6141 14.0681 80.6463 14.0458C80.6784 14.0236 80.7169 14.0117 80.7564 14.0118C80.7767 14.0119 80.7968 14.015 80.816 14.0211C80.8341 14.027 80.8514 14.0354 80.8674 14.0463C82.3225 15.0663 84.2069 16.6526 86.5207 18.8051C88.4556 20.6051 88.315 21.9776 86.5094 23.8395ZM72.1898 31.9273C72.1651 31.9227 72.1398 31.9227 72.1151 31.9277L72.2524 31.9507C72.2329 31.9393 72.2118 31.9315 72.1898 31.9273Z" fill="url(#paint2_linear_86_1925)"/>
<defs>
<linearGradient id="paint0_linear_86_1925" x1="57.8652" y1="4.9939" x2="50.4592" y2="93.4439" gradientUnits="userSpaceOnUse">
<stop stop-color="#CD5C1F"/>
<stop offset="0.57905" stop-color="#633011"/>
</linearGradient>
<linearGradient id="paint1_linear_86_1925" x1="57.8652" y1="4.9939" x2="50.4592" y2="93.4439" gradientUnits="userSpaceOnUse">
<stop stop-color="#CD5C1F"/>
<stop offset="0.57905" stop-color="#633011"/>
</linearGradient>
<linearGradient id="paint2_linear_86_1925" x1="57.8652" y1="4.9939" x2="50.4592" y2="93.4439" gradientUnits="userSpaceOnUse">
<stop stop-color="#CD5C1F"/>
<stop offset="0.57905" stop-color="#633011"/>
</linearGradient>
</defs>
</svg>
