<svg width="100" height="100" viewBox="0 0 100 100" fill="none" xmlns="http://www.w3.org/2000/svg">
<rect width="100" height="100" fill="#C0C2C5"/>
<path d="M50.6335 14.721L50.971 14.5973C51.0157 14.5806 51.0637 14.5745 51.1112 14.5795C51.1587 14.5845 51.2044 14.6004 51.2448 14.626C51.2851 14.6517 51.3189 14.6862 51.3436 14.7271C51.3683 14.768 51.3833 14.814 51.3872 14.8616C51.826 20.0085 52.501 25.3691 47.6466 27.321C45.2335 28.2885 41.0316 28.0129 37.9941 28.1254C37.7953 28.1329 37.7016 28.0372 37.7128 27.8385C37.8534 25.0541 37.5272 21.4541 38.1178 19.221C39.4959 14.001 44.7666 14.0066 49.2497 14.2035C49.4074 14.2107 49.5582 14.2636 49.6828 14.3554L50.071 14.6423C50.1504 14.7008 50.2434 14.7387 50.3416 14.7524C50.4398 14.7662 50.5401 14.7554 50.6335 14.721Z" fill="white"/>
<path d="M70.2983 39.2629C66.7658 48.3585 56.4664 45.8272 48.9345 46.2322C48.7358 46.2435 48.6364 46.1479 48.6364 45.9454C48.642 41.2822 47.9895 34.5716 49.452 30.741C52.7933 21.9941 63.6383 23.3048 70.9227 23.6816C71.1139 23.6929 71.2077 23.7923 71.2039 23.9798C71.1364 28.6204 71.8002 35.3872 70.2983 39.2629Z" fill="white"/>
<path d="M28.5551 30.5383C33.3814 30.6452 42.1339 29.0983 43.1183 36.2702C43.5345 39.2739 43.677 42.3095 43.5457 45.377C43.5382 45.5533 43.4464 45.6433 43.2701 45.647C37.7464 45.7652 31.4464 46.4289 29.112 41.4058C27.8464 38.6833 28.3976 33.9977 28.2851 30.8083C28.2776 30.6246 28.3676 30.5346 28.5551 30.5383Z" fill="white"/>
<path d="M53.6985 50.0405C60.7973 50.3273 67.1816 55.1817 69.4542 61.8754C70.0767 63.7017 70.4029 66.7523 70.4329 71.0273C70.4629 75.8948 70.4385 80.7398 70.3598 85.5623C70.3568 85.6901 70.304 85.8117 70.2125 85.9011C70.1211 85.9904 69.9983 86.0405 69.8704 86.0404C65.5504 86.0404 61.2116 86.0404 56.8541 86.0404C52.2266 86.0404 49.0223 85.7817 47.241 85.2642C41.5373 83.6104 36.711 78.9248 35.0179 73.1592C34.5491 71.5692 34.3147 69.0436 34.3147 65.5823C34.3147 60.4823 34.2697 55.3823 34.1797 50.2823C34.179 50.2432 34.186 50.2043 34.2003 50.1678C34.2146 50.1314 34.2359 50.0981 34.2631 50.0699C34.2902 50.0417 34.3227 50.0191 34.3586 50.0034C34.3945 49.9878 34.4331 49.9793 34.4722 49.9786C41.5147 49.7873 47.9235 49.808 53.6985 50.0405Z" fill="white"/>
</svg>
