<svg width="100" height="100" viewBox="0 0 100 100" fill="none" xmlns="http://www.w3.org/2000/svg">
<rect width="100" height="100" fill="#DBF5FF"/>
<path d="M45.7311 55.8388L44.5248 56.7601C43.609 57.5342 42.764 58.3342 41.9898 59.1601C41.7198 59.4476 41.1461 59.8338 40.7461 59.6538C40.4123 59.5026 40.5123 58.9988 40.6836 58.7788C41.0902 58.2538 41.8969 57.2584 43.1036 55.7926L43.9136 54.8001L48.2148 49.6213C48.2183 49.6169 48.2203 49.6115 48.2206 49.6058C48.2208 49.6002 48.2194 49.5946 48.2164 49.5898C48.2134 49.5851 48.209 49.5813 48.2038 49.5791C48.1986 49.5769 48.1928 49.5764 48.1873 49.5776C47.0998 49.8451 46.354 49.4747 45.9498 48.4663C45.947 48.4593 45.9425 48.4532 45.9367 48.4485C45.9308 48.4437 45.9239 48.4406 45.9165 48.4393C45.909 48.4381 45.9014 48.4387 45.8944 48.4413C45.8873 48.4438 45.881 48.4481 45.8761 48.4538C44.7298 49.7713 42.0986 52.8763 40.4398 50.2276C40.4338 50.218 40.4258 50.2099 40.4163 50.2038C40.4068 50.1976 40.396 50.1937 40.3848 50.1921C40.3737 50.1906 40.3623 50.1915 40.3515 50.1948C40.3406 50.1981 40.3307 50.2038 40.3223 50.2113C39.2606 51.1613 38.2027 52.1092 37.1486 53.0551C36.5386 53.6026 36.0302 53.9997 35.6236 54.2463C34.9986 54.6276 34.3698 54.3251 34.2623 53.6251C34.1511 52.8926 34.8161 51.7238 35.3548 50.6351C38.1973 44.8867 41.5161 39.4292 45.3111 34.2626C45.5336 33.9588 46.0786 33.4201 46.3773 34.0251C46.5486 34.3726 46.0161 35.1588 45.8011 35.4463C44.7461 36.8588 43.6673 38.3001 42.7186 39.7326C40.2069 43.5317 37.9752 47.4905 36.0236 51.6088C35.9436 51.7788 35.8781 51.9538 35.8273 52.1338C35.7898 52.2663 35.8006 52.3522 35.8598 52.3913C35.9152 52.4277 35.9805 52.4464 36.047 52.4448C36.1135 52.4433 36.1781 52.4216 36.2323 52.3826C37.6423 51.3638 38.9386 50.0126 40.2111 48.8201C40.5648 48.4876 40.7361 47.5938 40.8961 47.1213C41.9052 44.1447 43.6602 41.8347 46.1611 40.1913C47.3102 39.4363 48.5756 39.3326 49.9573 39.8801C49.9754 39.8872 49.9953 39.8887 50.0144 39.8845C50.0336 39.8803 50.0511 39.8705 50.0648 39.8563C50.8673 39.0226 51.5298 39.7701 51.0286 40.5576C49.8877 42.3484 48.8515 44.1976 47.9198 46.1051C47.7286 46.4963 47.1011 47.6501 47.3686 48.0488C47.6186 48.4201 48.2048 48.0913 48.4886 47.8938C51.7211 45.6426 54.3886 42.9926 57.0973 40.1601C57.2431 40.0076 57.3602 39.8434 57.4486 39.6676C57.4667 39.6322 57.4759 39.5929 57.4753 39.5531C57.4748 39.5133 57.4645 39.4743 57.4454 39.4394C57.4263 39.4045 57.3989 39.3748 57.3657 39.3529C57.3325 39.331 57.2944 39.3176 57.2548 39.3138C57.0398 39.2926 56.8561 39.3213 56.6473 39.4151C55.2398 40.0442 54.1006 40.6088 53.2298 41.1088C52.9248 41.2838 52.5123 41.5288 52.2048 41.2626C51.8836 40.9838 52.1498 40.4926 52.4548 40.2951C54.2756 39.1151 56.2565 38.3642 58.3973 38.0426C58.8373 37.9763 60.3073 37.9001 60.0611 38.7676C60.0111 38.9459 59.9381 39.0851 59.8423 39.1851C56.0411 43.1501 52.2836 47.2126 48.4186 51.1376C48.0061 51.5563 46.4923 53.0276 46.4311 53.6663C46.4261 53.718 46.4494 53.7442 46.5011 53.7451C46.6861 53.7509 46.8315 53.7234 46.9373 53.6626C48.3281 52.8642 49.634 52.2009 50.8548 51.6726C55.8836 49.4976 60.9561 47.9163 66.3811 47.5776C66.8436 47.5488 67.1411 47.5126 67.4598 47.7276C67.498 47.7532 67.5306 47.7863 67.5557 47.8249C67.5807 47.8634 67.5977 47.9067 67.6057 47.952C67.6136 47.9973 67.6123 48.0437 67.6019 48.0885C67.5914 48.1333 67.572 48.1755 67.5448 48.2126C67.4411 48.3538 67.1986 48.4438 67.0073 48.4613C65.0948 48.6313 63.1936 48.8909 61.3036 49.2401C55.6302 50.2859 50.4394 52.4855 45.7311 55.8388ZM41.5586 49.0901C41.4998 49.4888 41.7148 50.2038 42.2748 50.0576C42.5981 49.9726 42.9073 49.8026 43.2023 49.5476C45.6686 47.4188 47.4411 44.5688 48.8523 41.6651C49.0986 41.1576 49.0261 40.6863 48.3748 40.6713C46.9336 40.6376 44.7561 42.9113 44.0261 43.8726C42.8686 45.3976 41.8373 47.1676 41.5586 49.0901Z" fill="#00ACED"/>
<path d="M34.6923 38.5925C32.5623 39.3438 30.6898 40.3863 28.666 41.5963C26.9019 42.6505 25.1919 43.7859 23.536 45.0025C21.8073 46.2738 19.6885 48.1038 18.346 49.0963C17.6135 49.6375 17.1223 48.6838 17.641 48.1725C18.226 47.5967 19.0181 46.9109 20.0173 46.115C23.0564 43.6934 26.3194 41.5388 29.806 39.6513C31.7577 38.5955 33.7594 37.7475 35.811 37.1075C35.8527 37.095 35.8856 37.0709 35.9098 37.035C36.2289 36.5567 36.5439 36.0742 36.8548 35.5875C37.096 35.2075 37.416 34.9513 37.8398 35.2275C38.1873 35.455 37.7623 36.15 37.631 36.4225C37.6249 36.4353 37.6222 36.4495 37.6232 36.4637C37.6243 36.4779 37.629 36.4915 37.637 36.5033C37.645 36.5151 37.6559 36.5245 37.6686 36.5308C37.6814 36.537 37.6956 36.5397 37.7098 36.5388C40.2735 36.3725 41.6748 37.7125 40.4448 40.2663C38.6885 43.9113 34.9473 45.7363 31.501 47.4375C31.4635 47.4559 31.4364 47.4846 31.4198 47.5238C30.6198 49.3955 29.7635 51.2375 28.851 53.05C28.451 53.8425 27.4785 53.4888 27.5498 52.7575C27.5614 52.6375 27.6385 52.4371 27.781 52.1563C28.1769 51.3763 28.5648 50.5913 28.9448 49.8013C30.7206 46.1105 32.666 42.4096 34.781 38.6988C34.846 38.5846 34.8164 38.5492 34.6923 38.5925ZM39.261 37.9875C38.6535 37.5588 37.6785 37.6538 36.9885 37.8013C36.9477 37.8096 36.9152 37.8309 36.891 37.865C35.1877 40.27 33.7448 42.8234 32.5623 45.525C32.5605 45.5291 32.56 45.5336 32.5607 45.538C32.5615 45.5424 32.5636 45.5464 32.5666 45.5496C32.5697 45.5528 32.5737 45.5551 32.578 45.556C32.5824 45.557 32.5869 45.5566 32.591 45.555C34.8835 44.5792 36.8669 43.1688 38.541 41.3238C39.2823 40.505 40.5523 38.8963 39.261 37.9875Z" fill="#00ACED"/>
<path d="M61.7213 45.5587C60.8101 46.4537 59.9213 47.4312 58.7501 47.4712C57.7976 47.5037 56.9676 46.9249 56.8801 45.9374C56.5988 42.7687 60.3713 38.1437 63.3763 37.3862C64.0572 37.2145 64.7297 37.3149 65.3938 37.6874C65.4305 37.7082 65.4659 37.7062 65.5001 37.6812C66.1701 37.1812 67.0963 37.4799 66.4426 38.3824C65.6801 39.4349 64.9288 40.4957 64.1888 41.5649C63.5363 42.5087 62.8126 43.7499 62.8063 44.7812C62.8038 45.3662 63.5963 45.7012 64.1176 45.6174C64.2967 45.5891 64.5588 45.4807 64.9038 45.2924C68.9638 43.0824 73.0563 41.1087 77.5963 40.0999C80.4601 39.4637 83.4263 39.3499 86.3426 39.6624C86.7651 39.7074 88.6663 39.7687 88.2388 40.5849C88.0788 40.8899 87.7201 40.8437 87.3338 40.8137C85.9326 40.7049 84.4301 40.5487 83.1238 40.5612C80.0072 40.5912 76.9826 41.157 74.0501 42.2587C72.0234 43.0195 70.5797 43.6082 69.7188 44.0249C68.5613 44.5837 66.9076 45.7174 65.2538 46.4824C64.3551 46.8987 63.4963 47.2862 62.6326 46.6774C62.2834 46.4316 62.0134 46.0657 61.8226 45.5799C61.7992 45.5216 61.7655 45.5145 61.7213 45.5587ZM61.1188 44.1174C62.3988 42.3699 63.3738 41.0424 64.4001 39.5299C64.6838 39.1112 64.8926 38.6374 64.2126 38.4649C62.8338 38.1162 60.6401 40.4874 59.8001 41.5162C59.3726 42.0395 58.9163 42.7707 58.4313 43.7099C58.0676 44.4174 57.5163 46.6124 58.9988 46.3924C59.5038 46.3174 60.7413 44.6324 61.1188 44.1174Z" fill="#00ACED"/>
<path d="M43.9136 54.8001L43.1036 55.7926C41.3836 55.2113 39.4236 55.7826 38.4923 57.2901C37.4836 58.9201 37.6061 61.1213 38.8848 62.6126C40.8923 64.9563 44.7736 64.3588 45.5448 61.2288C45.9482 59.5896 45.6082 58.1001 44.5248 56.7601L45.7311 55.8388C49.9898 59.9176 45.7748 66.5063 40.2248 64.9951C37.9161 64.3663 36.0161 62.4788 36.0323 60.0088C36.0623 55.7438 40.0811 53.5838 43.9136 54.8001Z" fill="#BA8C49"/>
<path d="M73.9364 63.9013C72.4739 65.4763 69.7377 65.4201 67.8502 64.7776C67.806 64.7626 67.7793 64.7326 67.7702 64.6876L67.3814 62.9051C67.3794 62.8962 67.3803 62.887 67.3838 62.8786C67.3872 62.8703 67.3933 62.8632 67.4009 62.8584C67.4086 62.8536 67.4176 62.8513 67.4267 62.8518C67.4357 62.8523 67.4444 62.8557 67.4514 62.8613C68.6739 63.8588 70.4439 64.4138 71.9752 63.7613C73.5727 63.0813 73.0614 61.4026 71.7777 60.8438C70.0564 60.0926 67.4102 59.1801 67.6189 56.9151C67.8714 54.1763 71.9552 54.2576 73.7839 54.7963C73.8012 54.8014 73.8164 54.812 73.8272 54.8264C73.838 54.8408 73.8439 54.8583 73.8439 54.8763V56.4376C73.8438 56.4446 73.8416 56.4515 73.8378 56.4575C73.834 56.4634 73.8286 56.4682 73.8224 56.4712C73.8161 56.4742 73.8091 56.4753 73.8023 56.4745C73.7955 56.4736 73.7892 56.4708 73.7839 56.4663C72.9398 55.7847 71.9706 55.5034 70.8764 55.6226C69.9639 55.7226 69.2189 56.3126 69.4614 57.3213C69.6189 57.9776 70.3352 58.3351 70.8852 58.6138C72.0552 59.2051 73.7364 59.8251 74.4639 60.9101C75.0739 61.8213 74.6114 63.1751 73.9364 63.9013Z" fill="#BA8C49"/>
<path d="M62.0811 63.6511C63.0411 63.7274 64.2286 63.9624 65.0911 63.7811C65.7127 63.6503 66.2894 63.3795 66.8211 62.9686C66.8285 62.9627 66.8375 62.9594 66.8469 62.9592C66.8564 62.959 66.8656 62.9619 66.8733 62.9675C66.8811 62.9731 66.8868 62.9811 66.8898 62.9903C66.8928 62.9996 66.8928 63.0095 66.8898 63.0186L66.2473 64.9049C66.2323 64.9474 66.2019 64.9686 66.1561 64.9686H59.7911C59.7824 64.9692 59.7737 64.9668 59.7666 64.9617C59.7595 64.9566 59.7544 64.9492 59.7522 64.9408C59.75 64.9323 59.7508 64.9234 59.7545 64.9155C59.7581 64.9075 59.7644 64.9011 59.7723 64.8974C60.3973 64.5536 60.4411 63.7886 60.4398 63.0936C60.439 61.052 60.4365 59.0103 60.4323 56.9686C60.4298 56.1311 60.5098 55.1199 59.7936 54.7686C59.7878 54.766 59.7831 54.7614 59.7803 54.7557C59.7775 54.75 59.7767 54.7434 59.7782 54.7372C59.7797 54.731 59.7833 54.7255 59.7884 54.7217C59.7934 54.7178 59.7997 54.7159 59.8061 54.7161L65.0623 54.7199C65.064 54.7199 65.0657 54.7194 65.0673 54.7186C65.1848 54.697 65.2969 54.6674 65.4036 54.6299C65.4116 54.6271 65.4202 54.6263 65.4286 54.6275C65.437 54.6287 65.445 54.6318 65.4519 54.6367C65.4589 54.6416 65.4646 54.648 65.4686 54.6555C65.4725 54.6631 65.4747 54.6714 65.4748 54.6799L65.4723 56.3499C65.4723 56.36 65.4693 56.3699 65.4637 56.3784C65.4581 56.3868 65.45 56.3934 65.4407 56.3973C65.4313 56.4011 65.421 56.4021 65.4111 56.4002C65.4011 56.3982 65.392 56.3933 65.3848 56.3861C64.6211 55.6374 63.0536 55.7949 62.0836 55.9074C62.0605 55.9099 62.0391 55.9208 62.0237 55.9381C62.0082 55.9555 61.9997 55.9779 61.9998 56.0011V58.7799C61.9998 58.7956 62.0061 58.8107 62.0173 58.8219C62.0285 58.8331 62.0438 58.8396 62.0598 58.8399C62.8086 58.8524 63.8436 58.9511 64.5448 58.7336C64.5506 58.7319 64.5568 58.7315 64.5628 58.7326C64.5688 58.7336 64.5744 58.7361 64.5793 58.7397C64.5842 58.7434 64.5881 58.7481 64.5908 58.7536C64.5935 58.759 64.5949 58.765 64.5948 58.7711L64.5973 60.3536C64.5971 60.3591 64.5954 60.3644 64.5923 60.369C64.5891 60.3735 64.5848 60.377 64.5798 60.379C64.5748 60.381 64.5694 60.3815 64.5643 60.3803C64.5592 60.3791 64.5546 60.3764 64.5511 60.3724C64.0061 59.7836 62.8036 59.9111 62.0811 59.9449C62.0269 59.9482 61.9998 59.977 61.9998 60.0311V63.5624C61.9997 63.5849 62.0081 63.6066 62.0232 63.623C62.0382 63.6395 62.0589 63.6496 62.0811 63.6511Z" fill="#BA8C49"/>
<path d="M11.0099 63.0238C11.0324 60.5975 11.1299 58.105 10.9924 55.685C10.9691 55.2692 10.7991 54.9821 10.4824 54.8237C10.3416 54.7537 10.3499 54.7188 10.5074 54.7188H13.2462C13.2837 54.7188 13.2874 54.73 13.2574 54.7525C12.8649 55.0408 12.6674 55.4537 12.6649 55.9912C12.6533 58.4004 12.6508 60.8096 12.6574 63.2188C12.6587 63.8588 12.6887 64.56 13.2749 64.87C13.2852 64.8755 13.2933 64.8842 13.298 64.8948C13.3028 64.9054 13.3039 64.9173 13.3012 64.9285C13.2984 64.9398 13.2921 64.9499 13.283 64.9572C13.274 64.9644 13.2628 64.9685 13.2512 64.9688H10.4149C10.4051 64.9691 10.3955 64.9659 10.3877 64.9599C10.3799 64.9539 10.3744 64.9454 10.3722 64.9358C10.37 64.9262 10.3712 64.9162 10.3755 64.9074C10.3799 64.8986 10.3872 64.8915 10.3962 64.8875C11.0562 64.5725 11.0037 63.7275 11.0099 63.0238Z" fill="#BA8C49"/>
<path d="M16.3351 56.9449C16.3327 56.9423 16.3295 56.9403 16.3259 56.9395C16.3224 56.9386 16.3186 56.9387 16.3152 56.9399C16.3117 56.9411 16.3087 56.9433 16.3065 56.9462C16.3043 56.9491 16.3029 56.9525 16.3026 56.9562C16.3118 59.1695 16.3168 61.3299 16.3176 63.4374C16.3176 64.0633 16.5739 64.5441 17.0864 64.8799C17.0948 64.8858 17.1012 64.8941 17.1045 64.9038C17.1079 64.9135 17.1082 64.924 17.1053 64.9338C17.1024 64.9436 17.0965 64.9523 17.0884 64.9585C17.0803 64.9648 17.0704 64.9684 17.0601 64.9687H14.4064C14.3983 64.9691 14.3903 64.9667 14.3837 64.962C14.3771 64.9573 14.3722 64.9506 14.3699 64.9428C14.3676 64.935 14.368 64.9267 14.371 64.9191C14.374 64.9116 14.3794 64.9053 14.3864 64.9012C14.9131 64.567 15.1781 64.0712 15.1814 63.4137C15.1922 61.1204 15.1972 58.8262 15.1964 56.5312C15.1951 55.6862 15.0314 55.1712 14.3851 54.7799C14.3781 54.7758 14.3727 54.7695 14.3697 54.762C14.3667 54.7544 14.3664 54.7461 14.3687 54.7384C14.371 54.7306 14.3758 54.7238 14.3824 54.7191C14.389 54.7144 14.397 54.7121 14.4051 54.7124L16.5664 54.7212C16.6047 54.722 16.6343 54.7383 16.6551 54.7699C16.7151 54.8624 16.7781 54.9512 16.8439 55.0362C18.8081 57.5479 20.7789 60.0554 22.7564 62.5587C22.7604 62.564 22.766 62.568 22.7724 62.5699C22.7788 62.5718 22.7856 62.5717 22.7919 62.5694C22.7982 62.5672 22.8036 62.563 22.8073 62.5575C22.811 62.5519 22.8129 62.5454 22.8126 62.5387C22.8126 60.5629 22.8118 58.5812 22.8101 56.5937C22.8101 55.8699 22.7801 55.1462 22.0414 54.7812C22.0339 54.7782 22.0277 54.7726 22.024 54.7655C22.0203 54.7584 22.0192 54.7501 22.021 54.7423C22.0228 54.7344 22.0274 54.7275 22.0339 54.7227C22.0404 54.7179 22.0483 54.7156 22.0564 54.7162H24.6651C24.6727 54.7163 24.6801 54.7189 24.6861 54.7236C24.6921 54.7282 24.6964 54.7347 24.6984 54.7421C24.7004 54.7494 24.6999 54.7572 24.6971 54.7643C24.6942 54.7713 24.6892 54.7773 24.6826 54.7812C23.8589 55.2562 23.8951 56.0699 23.8989 56.9074C23.9131 59.7208 23.9281 62.5341 23.9439 65.3474C23.9447 65.4008 23.9193 65.4204 23.8676 65.4062C22.6589 65.0824 21.8876 63.9862 21.2439 63.1624C19.6164 61.0799 17.9801 59.0074 16.3351 56.9449Z" fill="#BA8C49"/>
<path d="M29.6551 54.7162C33.2301 54.7024 35.9676 57.3199 35.0726 61.0212C34.4239 63.7099 32.0589 64.8874 29.4164 64.9499C28.1572 64.9791 26.9034 64.9824 25.6551 64.9599C25.6467 64.9599 25.6386 64.9573 25.6319 64.9523C25.6251 64.9473 25.6202 64.9402 25.6178 64.9322C25.6154 64.9242 25.6157 64.9156 25.6186 64.9078C25.6215 64.8999 25.6268 64.8932 25.6339 64.8887C26.3526 64.4024 26.3501 63.5587 26.3451 62.7887C26.3318 60.5795 26.3184 58.3703 26.3051 56.1612C26.3014 55.5049 26.2164 55.0549 25.6476 54.7474C25.6441 54.7454 25.6413 54.7422 25.6397 54.7385C25.6381 54.7347 25.6378 54.7306 25.6388 54.7266C25.6397 54.7226 25.642 54.7191 25.6452 54.7165C25.6484 54.714 25.6523 54.7125 25.6564 54.7124C26.9922 54.7199 28.3251 54.7212 29.6551 54.7162ZM33.4664 59.8074C33.4076 56.5412 30.8826 55.3162 27.9639 55.9912C27.9255 56.0003 27.9064 56.0249 27.9064 56.0649V63.6587C27.9064 63.7112 27.9322 63.7424 27.9839 63.7524C30.6926 64.2837 33.5226 62.8962 33.4664 59.8074Z" fill="#BA8C49"/>
<path d="M56.7473 62.5676C56.7524 62.5738 56.7593 62.5783 56.767 62.5805C56.7748 62.5826 56.783 62.5823 56.7905 62.5795C56.7981 62.5768 56.8046 62.5717 56.8092 62.5651C56.8137 62.5585 56.8161 62.5507 56.816 62.5426C56.786 60.5118 56.7744 58.4768 56.781 56.4376C56.7835 55.7614 56.7023 55.0701 56.0135 54.7789C56.0063 54.7762 56.0003 54.7711 55.9966 54.7644C55.9929 54.7577 55.9918 54.7498 55.9935 54.7422C55.9951 54.7346 55.9994 54.7277 56.0056 54.7228C56.0118 54.7178 56.0195 54.7151 56.0273 54.7151L58.661 54.7176C58.7227 54.7176 58.7277 54.7339 58.676 54.7664C58.176 55.0789 57.9235 55.5422 57.9185 56.1564C57.896 59.2197 57.9023 62.2826 57.9373 65.3451C57.9373 65.391 57.9152 65.408 57.871 65.3964C57.1777 65.2164 56.6327 64.8797 56.2361 64.3864C54.2869 61.9589 52.3402 59.5068 50.3961 57.0301C50.3194 56.9335 50.281 56.9468 50.281 57.0701C50.2802 59.0785 50.2802 61.1176 50.281 63.1876C50.281 63.8489 50.4298 64.5026 51.0823 64.8676C51.093 64.8733 51.1015 64.8824 51.1063 64.8934C51.1112 64.9045 51.1122 64.9169 51.1092 64.9286C51.1062 64.9403 51.0993 64.9507 51.0896 64.958C51.08 64.9653 51.0681 64.9691 51.0561 64.9689H48.4073C48.399 64.9686 48.3911 64.9658 48.3845 64.9607C48.378 64.9556 48.3733 64.9486 48.3711 64.9406C48.3688 64.9326 48.3692 64.9242 48.3721 64.9164C48.375 64.9087 48.3804 64.9021 48.3873 64.8976C48.8731 64.5876 49.119 64.1347 49.1248 63.5389C49.1523 61.068 49.1598 58.5968 49.1473 56.1251C49.144 55.526 48.8923 55.0805 48.3923 54.7889C48.3845 54.7846 48.3783 54.7777 48.3749 54.7695C48.3714 54.7613 48.3707 54.7522 48.373 54.7436C48.3753 54.7349 48.3804 54.7273 48.3875 54.722C48.3947 54.7166 48.4034 54.7137 48.4123 54.7139L50.5635 54.7214C50.5795 54.7214 50.5951 54.7255 50.6089 54.7334C50.6227 54.7413 50.6342 54.7527 50.6423 54.7664C50.7148 54.8826 50.7723 54.9976 50.8548 55.1001C52.8281 57.591 54.7923 60.0801 56.7473 62.5676Z" fill="#BA8C49"/>
<path d="M76.5261 56.7501C76.5224 55.9363 76.6011 55.2851 75.9136 54.7738C75.8603 54.7347 75.867 54.7151 75.9336 54.7151L78.7461 54.7201C78.7811 54.7209 78.7849 54.7313 78.7574 54.7513C78.3649 55.0422 78.1674 55.4555 78.1649 55.9913C78.1491 59.353 78.147 61.7934 78.1586 63.3126C78.1624 63.8526 78.1811 64.5826 78.7911 64.8801C78.8011 64.8843 78.8092 64.8919 78.8142 64.9016C78.8191 64.9112 78.8205 64.9222 78.8181 64.9328C78.8157 64.9433 78.8097 64.9527 78.8011 64.9593C78.7926 64.9659 78.7819 64.9693 78.7711 64.9688H75.9061C75.896 64.9691 75.8861 64.9658 75.8781 64.9596C75.8702 64.9533 75.8646 64.9445 75.8624 64.9347C75.8602 64.9248 75.8615 64.9144 75.866 64.9054C75.8706 64.8964 75.8781 64.8892 75.8874 64.8851C76.5349 64.5813 76.4949 63.8301 76.5024 63.1476C76.5249 61.0151 76.5328 58.8826 76.5261 56.7501Z" fill="#BA8C49"/>
<path d="M89.9999 64.545V64.96L87.4149 64.9638C87.4018 64.9644 87.3888 64.9601 87.3787 64.9517C87.3685 64.9432 87.3619 64.9313 87.3602 64.9182C87.3585 64.9051 87.3617 64.8919 87.3693 64.8811C87.3769 64.8703 87.3883 64.8628 87.4012 64.86C87.9162 64.7163 87.9437 64.3588 87.7737 63.9013C87.432 62.9854 87.0837 62.0729 86.7287 61.1637C86.7112 61.1179 86.6774 61.095 86.6274 61.095L82.8374 61.0912C82.8008 61.0912 82.7758 61.1087 82.7624 61.1437C82.4283 62.0212 82.1124 62.9021 81.8149 63.7862C81.6462 64.2887 81.7237 64.7162 82.2562 64.8825C82.2671 64.8849 82.2766 64.8914 82.2829 64.9006C82.2891 64.9098 82.2916 64.9211 82.2899 64.9321C82.2881 64.9431 82.2822 64.953 82.2734 64.9598C82.2646 64.9666 82.2535 64.9698 82.2424 64.9688H79.5012C79.4915 64.9688 79.4821 64.9657 79.4743 64.9599C79.4665 64.9542 79.4608 64.9461 79.458 64.9368C79.4552 64.9275 79.4554 64.9176 79.4587 64.9085C79.462 64.8994 79.4681 64.8916 79.4762 64.8862C80.3099 64.3375 80.5062 63.74 80.9424 62.6612C81.8166 60.4971 82.6795 58.3287 83.5312 56.1562C83.7487 55.6037 83.9599 55.1387 83.3587 54.7725C83.2987 54.7367 83.3037 54.7188 83.3737 54.7188H85.6949C85.7416 54.7188 85.7737 54.7404 85.7912 54.7838C86.9528 57.6596 88.1208 60.53 89.2949 63.395C89.4716 63.8258 89.7066 64.2092 89.9999 64.545ZM83.1937 59.8725C83.191 59.8791 83.19 59.8862 83.1908 59.8933C83.1915 59.9003 83.194 59.9071 83.1979 59.913C83.2018 59.9189 83.2071 59.9238 83.2134 59.9272C83.2196 59.9306 83.2266 59.9324 83.2337 59.9325L86.1912 59.9425C86.1982 59.9425 86.2052 59.9408 86.2114 59.9376C86.2177 59.9344 86.2231 59.9297 86.2271 59.9239C86.2312 59.9181 86.2338 59.9115 86.2347 59.9045C86.2356 59.8975 86.2348 59.8904 86.2324 59.8838L84.7674 56.11C84.7644 56.1015 84.7588 56.0941 84.7514 56.0889C84.7441 56.0836 84.7352 56.0808 84.7262 56.0808C84.7171 56.0808 84.7083 56.0836 84.7009 56.0889C84.6935 56.0941 84.6879 56.1015 84.6849 56.11L83.1937 59.8725Z" fill="#BA8C49"/>
</svg>
