<svg width="100" height="100" viewBox="0 0 100 100" fill="none" xmlns="http://www.w3.org/2000/svg">
<rect width="100" height="100" fill="white"/>
<path d="M61.0837 59.5224C43.5829 65.4939 26.7586 67.583 10.3877 56.9538C9.55338 56.4085 9.2052 55.2786 9.13294 54.2209C8.22198 41.5333 11.9928 30.6785 20.4454 21.6565C45.5602 -5.13993 91.8679 13.5499 90.9876 50.253C90.9833 50.4851 90.8694 50.6296 90.646 50.6866C80.6605 53.2618 70.8064 56.207 61.0837 59.5224Z" fill="#FFD204"/>
<path d="M63.1594 66.9127C50.6907 72.6937 32.027 81.096 18.1919 75.5843C15.1305 74.3624 12.2072 66.9258 11.1758 63.9302C11.1609 63.885 11.1596 63.8365 11.1721 63.7906C11.1845 63.7447 11.2102 63.7034 11.2458 63.6719C11.2815 63.6405 11.3256 63.6201 11.3727 63.6135C11.4198 63.6069 11.4678 63.6142 11.5108 63.6346C32.5197 73.8565 50.4345 67.4185 70.3726 58.9638C76.7931 56.244 83.3778 53.9448 90.1268 52.0659C90.2131 52.0414 90.3039 52.0371 90.3921 52.0533C90.4803 52.0696 90.5633 52.1059 90.6347 52.1595C90.7061 52.213 90.7639 52.2823 90.8034 52.3618C90.843 52.4414 90.8632 52.529 90.8625 52.6177V55.7842C90.8625 56.0513 90.7312 56.209 90.4684 56.2572C80.8376 58.0506 72.7967 62.4455 63.1594 66.9127Z" fill="#F68E2F"/>
<path d="M90.1662 58.2017C90.6523 60.6061 89.8859 62.1849 87.8669 62.9382C81.1311 65.4565 75.7573 67.931 71.7456 70.3616C59.9929 77.4828 48.549 84.5318 35.4825 89.0778C35.2767 89.1522 35.073 89.15 34.8716 89.0712C30.8511 87.4945 27.2182 85.285 23.9729 82.4427C23.9392 82.4135 23.9153 82.3749 23.9042 82.3318C23.8932 82.2888 23.8957 82.2431 23.9112 82.2008C23.9267 82.1585 23.9546 82.1214 23.9913 82.0943C24.0281 82.0672 24.072 82.0512 24.1175 82.0485C36.757 81.6872 47.6228 77.3777 59.1521 71.4259C65.0733 68.3689 72.6259 64.5631 81.8099 60.0083C84.4464 58.6988 87.0829 57.9805 89.7195 57.8535C89.9691 57.8404 90.118 57.9565 90.1662 58.2017Z" fill="#41B3E5"/>
<path d="M41.5461 91.042C41.1914 90.9675 41.1761 90.8493 41.5002 90.6873C45.8316 88.5369 49.9572 86.3493 53.8769 84.1245C65.1566 77.7127 76.18 68.2726 88.4188 64.4098C88.6641 64.3309 88.7429 64.412 88.6553 64.6528C81.4749 84.1901 61.8981 95.2398 41.5461 91.042Z" fill="#0B4062"/>
</svg>
