<svg width="100" height="100" viewBox="0 0 100 100" fill="none" xmlns="http://www.w3.org/2000/svg">
<rect width="100" height="100" fill="#E01A22"/>
<path d="M33.12 59.79H37.9238C38.1516 59.79 38.2655 59.676 38.2655 59.4482C38.2913 50.2147 38.2935 40.9962 38.272 31.7927C38.2526 21.3727 42.9919 13.777 53.7988 11.6362C67.1075 8.999 83.9819 14.4024 83.9239 30.8062C83.8852 42.0816 83.8831 53.559 83.9174 65.2385C83.9174 65.2898 83.8978 65.339 83.8627 65.3753C83.8276 65.4116 83.7801 65.432 83.7305 65.432H53.8891C53.6526 65.432 53.5366 65.548 53.5409 65.7802L53.7408 87.2778C53.7451 87.7593 53.5065 88 53.025 88H38.7814C38.4461 88 38.2784 87.8324 38.2784 87.4971L38.272 65.9091C38.272 65.8253 38.238 65.745 38.1776 65.6857C38.1171 65.6265 38.0351 65.5932 37.9496 65.5932H17.3224C17.1075 65.5932 17 65.4857 17 65.2708V35.7711C17 35.6856 17.034 35.6036 17.0944 35.5432C17.1549 35.4827 17.2369 35.4487 17.3224 35.4487H32.4752C32.6902 35.4487 32.7976 35.5562 32.7976 35.7711V59.4676C32.7976 59.6825 32.9051 59.79 33.12 59.79ZM56.7326 60.1124H66.8818C67.4205 60.1124 67.9371 59.8984 68.318 59.5175C68.6989 59.1366 68.9129 58.6199 68.9129 58.0812V29.6907C68.9129 28.4731 68.4435 27.3053 67.6079 26.4443C66.7723 25.5834 65.639 25.0997 64.4574 25.0997H59.1571C57.9754 25.0997 56.8421 25.5834 56.0065 26.4443C55.1709 27.3053 54.7015 28.4731 54.7015 29.6907V58.0812C54.7015 58.6199 54.9155 59.1366 55.2964 59.5175C55.6773 59.8984 56.194 60.1124 56.7326 60.1124Z" fill="white"/>
<path d="M25.5759 33.3597C29.689 33.3597 33.0233 30.0254 33.0233 25.9123C33.0233 21.7992 29.689 18.4648 25.5759 18.4648C21.4628 18.4648 18.1284 21.7992 18.1284 25.9123C18.1284 30.0254 21.4628 33.3597 25.5759 33.3597Z" fill="white"/>
</svg>
