<svg width="100" height="100" viewBox="0 0 100 100" fill="none" xmlns="http://www.w3.org/2000/svg">
<rect width="100" height="100" fill="white"/>
<path fill-rule="evenodd" clip-rule="evenodd" d="M49.5 48C58.0604 48 65 41.0604 65 32.5C65 23.9396 58.0604 17 49.5 17C40.9396 17 34 23.9396 34 32.5C34 41.0604 40.9396 48 49.5 48ZM49.5 17C51.433 17 53 18.567 53 20.5C53 22.433 51.433 24 49.5 24C47.567 24 46 22.433 46 20.5C46 18.567 47.567 17 49.5 17Z" fill="#0E7DC2"/>
<path fill-rule="evenodd" clip-rule="evenodd" d="M52.7499 53.4234C48.4697 60.8369 51.0097 70.3166 58.4233 74.5968C65.8368 78.877 75.3165 76.3369 79.5967 68.9234C83.8769 61.5099 81.3368 52.0302 73.9233 47.75C66.5098 43.4698 57.0301 46.0099 52.7499 53.4234ZM79.5967 68.9234C78.6302 70.5974 76.4896 71.171 74.8156 70.2045C73.1416 69.238 72.568 67.0974 73.5345 65.4234C74.501 63.7494 76.6416 63.1758 78.3156 64.1423C79.9896 65.1088 80.5632 67.2494 79.5967 68.9234Z" fill="#0E7DC2"/>
<path fill-rule="evenodd" clip-rule="evenodd" d="M46.5968 53.4234C50.877 60.8369 48.3369 70.3166 40.9234 74.5968C33.5099 78.877 24.0302 76.3369 19.75 68.9234C15.4698 61.5099 18.0099 52.0302 25.4234 47.75C32.8369 43.4698 42.3166 46.0099 46.5968 53.4234ZM19.75 68.9234C20.7165 70.5974 22.8571 71.171 24.5311 70.2045C26.2051 69.238 26.7787 67.0974 25.8122 65.4234C24.8457 63.7494 22.7051 63.1758 21.0311 64.1423C19.3571 65.1088 18.7835 67.2494 19.75 68.9234Z" fill="#0E7DC2"/>
<circle cx="49.5" cy="51.5" r="4.5" fill="#0E7DC2"/>
</svg>
