<svg width="100" height="100" viewBox="0 0 100 100" fill="none" xmlns="http://www.w3.org/2000/svg">
<rect width="100" height="100" fill="#595C62"/>
<path d="M23.1866 58V40.8203H28.753C30.8623 40.8203 32.2373 40.9062 32.878 41.0781C33.8623 41.3359 34.6866 41.8984 35.3506 42.7656C36.0147 43.625 36.3467 44.7383 36.3467 46.1055C36.3467 47.1602 36.1553 48.0469 35.7725 48.7656C35.3897 49.4844 34.9014 50.0508 34.3077 50.4648C33.7217 50.8711 33.1241 51.1406 32.5147 51.2734C31.6866 51.4375 30.4873 51.5195 28.917 51.5195H26.6553V58H23.1866ZM26.6553 43.7266V48.6016H28.5537C29.9209 48.6016 30.835 48.5117 31.2959 48.332C31.7569 48.1523 32.1162 47.8711 32.3741 47.4883C32.6397 47.1055 32.7725 46.6602 32.7725 46.1523C32.7725 45.5273 32.5889 45.0117 32.2217 44.6055C31.8545 44.1992 31.3897 43.9453 30.8272 43.8438C30.4131 43.7656 29.5811 43.7266 28.3311 43.7266H26.6553ZM38.8512 49.5156C38.8512 47.7656 39.113 46.2969 39.6364 45.1094C40.027 44.2344 40.5583 43.4492 41.2302 42.7539C41.9098 42.0586 42.652 41.543 43.4567 41.207C44.527 40.7539 45.7614 40.5273 47.1598 40.5273C49.6911 40.5273 51.7145 41.3125 53.2302 42.8828C54.7536 44.4531 55.5153 46.6367 55.5153 49.4336C55.5153 52.207 54.7614 54.3789 53.2536 55.9492C51.7458 57.5117 49.7302 58.293 47.2067 58.293C44.652 58.293 42.6208 57.5156 41.113 55.9609C39.6052 54.3984 38.8512 52.25 38.8512 49.5156ZM42.4255 49.3984C42.4255 51.3438 42.8747 52.8203 43.7731 53.8281C44.6716 54.8281 45.8122 55.3281 47.195 55.3281C48.5778 55.3281 49.7106 54.832 50.5934 53.8398C51.4841 52.8398 51.9294 51.3438 51.9294 49.3516C51.9294 47.3828 51.4958 45.9141 50.6286 44.9453C49.7692 43.9766 48.6247 43.4922 47.195 43.4922C45.7653 43.4922 44.613 43.9844 43.738 44.9688C42.863 45.9453 42.4255 47.4219 42.4255 49.3984ZM58.6175 58V40.8203H70.3948V43.7266H62.0863V47.793H69.2581V50.6992H62.0863V58H58.6175ZM73.5205 58V40.8203H76.9892V58H73.5205Z" fill="#F8F8F8"/>
</svg>
