<svg width="100" height="100" viewBox="0 0 100 100" fill="none" xmlns="http://www.w3.org/2000/svg">
<rect width="100" height="100" fill="#ECFFCC"/>
<path d="M81.0813 64.3112L81.0787 32.0472C81.0787 32.036 81.0831 32.0253 81.091 32.0174C81.0989 32.0095 81.1096 32.0051 81.1208 32.0051H84.9567C84.9678 32.0051 84.9785 32.0095 84.9864 32.0174C84.9943 32.0253 84.9987 32.036 84.9987 32.0472L85 68.2631C85 68.2742 84.9956 68.2849 84.9877 68.2928C84.9798 68.3007 84.9691 68.3051 84.9579 68.3051H16.0421C16.0309 68.3051 16.0202 68.3007 16.0123 68.2928C16.0044 68.2849 16 68.2742 16 68.2631V32.0421C16 32.0309 16.0044 32.0202 16.0123 32.0123C16.0202 32.0044 16.0309 32 16.0421 32L19.8461 32.0076C19.8572 32.0076 19.8679 32.0121 19.8758 32.02C19.8837 32.0279 19.8881 32.0386 19.8881 32.0497V64.3112C19.8881 64.3223 19.8926 64.333 19.9005 64.3409C19.9084 64.3488 19.9191 64.3532 19.9302 64.3532H81.0392C81.0503 64.3532 81.061 64.3488 81.0689 64.3409C81.0768 64.333 81.0813 64.3223 81.0813 64.3112Z" fill="#96C93F"/>
<path d="M54.7782 35.1526C54.785 34.5517 54.7838 34.1017 54.7744 33.8026C54.7736 33.7516 54.7986 33.7261 54.8496 33.7261H57.2016C57.2458 33.7261 57.2679 33.7482 57.2679 33.7924C57.2756 36.6734 57.276 39.5511 57.2692 42.4253C57.2666 43.2756 58.1616 43.2795 58.8245 43.0283C58.8357 43.024 58.8477 43.0223 58.8598 43.0233C58.8718 43.0244 58.8834 43.028 58.8939 43.0341C58.9044 43.0402 58.9134 43.0486 58.9204 43.0586C58.9273 43.0686 58.932 43.08 58.9341 43.0921L59.2388 44.9443C59.2447 44.9775 59.232 45 59.2005 45.0119C57.2756 45.7704 54.7502 45.8495 54.7464 43.0436C54.7413 40.0164 54.7519 37.386 54.7782 35.1526Z" fill="#253179"/>
<path d="M29.6722 44.0521V48.6414C29.6722 48.6839 29.651 48.7051 29.6085 48.7051H27.2654C27.2118 48.7051 27.1851 48.6783 27.1851 48.6248L27.1863 37.0572C27.1863 37.0037 27.2127 36.9769 27.2654 36.9769H29.2923C29.3011 36.9769 29.3098 36.9786 29.318 36.982C29.3261 36.9853 29.3335 36.9902 29.3396 36.9964C29.3458 37.0026 29.3507 37.0099 29.3539 37.0179C29.3572 37.026 29.3588 37.0346 29.3586 37.0432L29.342 38.2249C29.3419 38.2381 29.346 38.251 29.3538 38.2617C29.3616 38.2723 29.3726 38.2802 29.3853 38.284C29.3979 38.2879 29.4114 38.2876 29.4238 38.2832C29.4363 38.2787 29.4469 38.2704 29.4542 38.2594C30.8157 36.1853 33.749 36.504 35.1424 38.3562C36.5255 40.1971 36.2833 43.3841 34.3775 44.8195C32.8975 45.9337 30.7545 45.629 29.741 44.0329C29.7369 44.0259 29.7306 44.0205 29.723 44.0174C29.7155 44.0144 29.7071 44.0139 29.6993 44.0161C29.6914 44.0182 29.6845 44.023 29.6796 44.0295C29.6747 44.036 29.6721 44.0439 29.6722 44.0521ZM32.0981 39.0714C31.2122 38.7323 29.7347 39.2996 29.6824 40.4367C29.6544 41.0563 29.6008 41.7651 29.9106 42.303C30.1579 42.7348 30.4957 43.039 30.9241 43.2158C33.3118 44.1999 34.5725 40.0199 32.0981 39.0714Z" fill="#253179"/>
<path d="M37.6322 44.4102C35.5568 42.6612 35.836 39.1937 37.9381 37.6703C39.5763 36.4847 42.0991 36.5497 43.6327 37.8819C45.5143 39.5162 45.5882 42.7287 43.7015 44.3821C42.0137 45.8622 39.3188 45.8316 37.6322 44.4102ZM40.5894 43.3706C41.0873 43.3819 41.57 43.1602 41.9315 42.7542C42.2929 42.3483 42.5035 41.7913 42.5168 41.2059C42.5233 40.916 42.4813 40.6278 42.393 40.3579C42.3048 40.0879 42.172 39.8415 42.0023 39.6325C41.8327 39.4236 41.6294 39.2563 41.4041 39.1402C41.1789 39.0241 40.9361 38.9615 40.6895 38.9559C40.1917 38.9446 39.7089 39.1663 39.3474 39.5723C38.986 39.9783 38.7754 40.5352 38.7622 41.1207C38.7556 41.4105 38.7976 41.6987 38.8859 41.9686C38.9742 42.2386 39.1069 42.4851 39.2766 42.694C39.4463 42.9029 39.6495 43.0702 39.8748 43.1863C40.1 43.3024 40.3428 43.365 40.5894 43.3706Z" fill="#253179"/>
<path d="M45.2885 41.1135C45.212 36.2259 52.2004 35.2634 53.8551 39.5659C54.8163 42.0658 53.4268 44.7913 50.7714 45.365C49.735 45.5881 48.6093 45.4912 47.6456 45.0335C46.1039 44.3027 45.3182 42.996 45.2885 41.1135ZM49.6402 43.3706C50.1391 43.3819 50.6229 43.1601 50.9851 42.7539C51.3472 42.3477 51.5582 41.7904 51.5715 41.2047C51.5848 40.6189 51.3993 40.0526 51.056 39.6304C50.7126 39.2082 50.2394 38.9646 49.7405 38.9533C49.2416 38.942 48.7578 39.1638 48.3956 39.57C48.0335 39.9762 47.8225 40.5335 47.8092 41.1193C47.7959 41.705 47.9814 42.2713 48.3248 42.6935C48.6681 43.1157 49.1413 43.3593 49.6402 43.3706Z" fill="#253179"/>
<path d="M42.1334 53.0725V48.1632C42.1334 48.0995 42.1652 48.0676 42.229 48.0676H42.795C42.8426 48.0676 42.8664 48.0914 42.8664 48.139C42.8664 51.6541 42.8664 55.1679 42.8664 58.6804C42.8664 58.8129 42.9475 58.9052 43.1099 58.957C43.1343 58.9646 43.1555 58.9801 43.1703 59.0014C43.185 59.0226 43.1925 59.0482 43.1914 59.0743L43.1698 59.5893C43.1681 59.6369 43.1434 59.662 43.0958 59.6645C42.0734 59.7206 42.2341 58.8078 42.2277 58.1348C42.2274 58.1219 42.2231 58.1095 42.2154 58.0992C42.2077 58.0889 42.1969 58.0814 42.1847 58.0775C42.1724 58.0737 42.1592 58.0739 42.147 58.078C42.1349 58.0821 42.1243 58.0899 42.1168 58.1003C40.8407 59.931 38.6493 60.372 36.8914 58.985C35.201 57.6503 34.8644 55.0102 35.8804 53.2497C37.4408 50.5458 40.2581 50.6963 42.0569 53.098C42.1079 53.166 42.1334 53.1575 42.1334 53.0725ZM40.2301 52.2018C38.2707 51.3158 36.5574 52.852 36.1545 54.6953C35.6765 56.8842 37.3197 59.5855 39.8056 59.0603C40.7362 58.8627 42.1359 57.8951 42.1334 56.7988C42.1317 56.0466 42.1325 55.2902 42.1359 54.5296C42.1397 53.5161 41.0829 52.5868 40.2301 52.2018Z" fill="#253179"/>
<path d="M54.1828 48.0706L53.5199 48.0671C53.4995 48.067 53.4828 48.0834 53.4827 48.1039L53.4758 49.4296C53.4757 49.4501 53.4921 49.4667 53.5126 49.4668L54.1754 49.4703C54.1959 49.4704 54.2125 49.4539 54.2126 49.4335L54.2195 48.1077C54.2196 48.0873 54.2032 48.0707 54.1828 48.0706Z" fill="#253179"/>
<path d="M64.3469 52.0234L63.3844 52.0081C63.3249 52.0073 63.2952 51.9771 63.2952 51.9176V51.4778C63.2952 51.4353 63.3164 51.4141 63.3589 51.4141H64.315C64.3787 51.4141 64.4106 51.3822 64.4106 51.3185V48.6414C64.4106 48.5989 64.4319 48.5776 64.4744 48.5776H65.0799C65.1224 48.5776 65.1436 48.5989 65.1436 48.6414V51.3503C65.1436 51.3672 65.1503 51.3835 65.1623 51.3954C65.1743 51.4074 65.1905 51.4141 65.2074 51.4141H66.9602C67.0027 51.4141 67.024 51.4353 67.024 51.4778V51.924C67.024 51.9877 66.9921 52.0196 66.9284 52.0196H65.2086C65.1662 52.0196 65.1449 52.0413 65.1449 52.0846C65.1424 54.0937 65.1419 56.1011 65.1436 58.1068C65.1449 59.2643 66.6122 59.147 67.2955 58.7276C67.3745 58.6792 67.4302 58.6983 67.4625 58.785L67.618 59.2006C67.6234 59.2158 67.6234 59.2324 67.618 59.2475C67.6127 59.2626 67.6023 59.2753 67.5887 59.2834C66.7078 59.8201 65.1385 60.0547 64.5993 58.9851C64.4701 58.7276 64.4068 58.261 64.4093 57.5854C64.4153 55.7514 64.4144 53.9178 64.4068 52.0846C64.4068 52.0447 64.3868 52.0243 64.3469 52.0234Z" fill="#253179"/>
<path d="M32.6949 55.1545C32.7574 53.6884 32.4757 52.2046 30.8146 51.905C29.7731 51.7176 28.6436 52.1383 27.7869 52.768C27.7767 52.7754 27.765 52.7806 27.7527 52.7834C27.7404 52.7861 27.7276 52.7863 27.7153 52.7839C27.703 52.7815 27.6913 52.7766 27.681 52.7695C27.6708 52.7623 27.6621 52.7532 27.6556 52.7425L27.4504 52.406C27.4223 52.3592 27.4304 52.3206 27.4746 52.29C29.2963 50.996 32.3775 50.5881 33.2291 53.2384C33.3642 53.66 33.4322 54.4338 33.433 55.5598C33.433 56.623 33.433 57.6879 33.433 58.7545C33.433 58.7755 33.4384 58.7961 33.4487 58.8144C33.459 58.8327 33.4738 58.8481 33.4917 58.859L33.7046 58.9852C33.7201 58.9945 33.7328 59.0077 33.7416 59.0236C33.7503 59.0395 33.7547 59.0575 33.7543 59.0758L33.7454 59.5729C33.7451 59.596 33.7363 59.6181 33.7207 59.6349C33.7052 59.6516 33.6839 59.6618 33.6612 59.6634C32.8823 59.717 32.6733 59.0923 32.7918 58.4473C32.795 58.4295 32.7923 58.4112 32.7841 58.395C32.7759 58.3789 32.7626 58.3659 32.7464 58.3582C32.7302 58.3505 32.7119 58.3484 32.6946 58.3523C32.6772 58.3562 32.6616 58.3658 32.6503 58.3797C31.95 59.2075 31.0458 59.6762 29.9375 59.7858C26.8627 60.0892 25.4247 56.131 28.715 55.0486C29.912 54.6547 31.387 54.8307 32.5636 55.2424C32.6478 55.2722 32.6915 55.2428 32.6949 55.1545ZM32.6299 55.7919C31.5285 55.3848 30.416 55.2743 29.2925 55.4604C28.5238 55.5879 27.6046 56.2253 27.5651 57.0871C27.4185 60.269 32.6567 59.4187 32.6682 57.1674C32.6699 56.7212 32.6694 56.2805 32.6669 55.8454C32.6669 55.8191 32.6546 55.8012 32.6299 55.7919Z" fill="#253179"/>
<path d="M56.3809 54.1256C56.1451 52.9261 56.7888 51.8488 57.9387 51.4715C59.3257 51.0151 60.9166 51.2739 61.9658 52.3282C61.9807 52.3431 61.989 52.3633 61.989 52.3845C61.989 52.4058 61.9807 52.4263 61.9658 52.4416L61.6956 52.7119C61.6624 52.7442 61.628 52.7455 61.5923 52.7157C60.6829 51.9534 59.6223 51.6971 58.4104 51.947C56.8602 52.2683 56.3299 54.3832 58.1643 54.8536C59.3151 55.1493 60.2385 55.4149 60.9345 55.6503C61.8218 55.9512 62.3546 56.6995 62.2565 57.6505C62.1405 58.78 61.2353 59.4977 60.1479 59.6965C58.5842 59.9821 57.207 59.6256 56.0163 58.627C55.9747 58.5921 55.9696 58.5526 56.001 58.5084L56.2815 58.1171C56.3129 58.0729 56.3486 58.069 56.3885 58.1056C57.3081 58.9614 58.4227 59.3145 59.7324 59.1649C60.3927 59.0885 61.0352 58.8271 61.3654 58.2458C61.7083 57.6403 61.5948 56.8231 60.9753 56.4088C59.7961 55.621 56.7085 55.788 56.3809 54.1256Z" fill="#253179"/>
<path d="M74.1935 58.3413C73.4516 59.1895 72.5155 59.6731 71.3852 59.7921C69.6399 59.9756 68.0566 58.6498 68.3702 56.8715C68.5933 55.6081 70.0109 54.9529 71.185 54.8586C72.1598 54.7804 73.1193 54.9087 74.0635 55.2436C74.0795 55.2495 74.0968 55.2513 74.1137 55.249C74.1306 55.2466 74.1467 55.2401 74.1604 55.23C74.1742 55.2198 74.1853 55.2065 74.1926 55.1911C74.1999 55.1756 74.2033 55.1586 74.2025 55.1416C74.1668 54.1855 74.2203 53.2727 73.5001 52.5295C72.3081 51.3019 70.4431 51.9533 69.2524 52.7819C69.245 52.7871 69.2367 52.7907 69.2279 52.7926C69.2191 52.7944 69.21 52.7944 69.2011 52.7926C69.1923 52.7908 69.1839 52.7873 69.1765 52.7821C69.1691 52.777 69.1628 52.7704 69.1581 52.7628L68.9171 52.3842C68.9124 52.3772 68.909 52.3693 68.9074 52.361C68.9057 52.3527 68.9057 52.3441 68.9073 52.3358C68.909 52.3275 68.9123 52.3196 68.917 52.3126C68.9218 52.3056 68.9279 52.2996 68.935 52.2949C69.8592 51.683 70.9696 51.1808 72.1041 51.2636C73.806 51.3873 74.8794 52.6009 74.9074 54.3397C74.9312 55.7488 74.9368 57.1592 74.924 58.5708C74.9227 58.785 74.9763 58.9022 75.1777 58.9647C75.1976 58.9709 75.215 58.9835 75.2274 59.0004C75.2398 59.0174 75.2465 59.0379 75.2465 59.059V59.5753C75.2467 59.596 75.239 59.616 75.2252 59.6315C75.2113 59.647 75.1921 59.657 75.1713 59.6595C74.2841 59.7589 74.2445 59.017 74.2586 58.3668C74.2603 58.298 74.2386 58.2895 74.1935 58.3413ZM69.4092 56.2519C68.8394 56.9033 69.0115 57.9627 69.5431 58.5364C70.6598 59.7411 73.2158 59.1789 73.9934 57.8097C74.2764 57.3138 74.1706 56.4482 74.1591 55.8771C74.1583 55.8321 74.1366 55.8019 74.0941 55.7866C72.7212 55.2716 70.5017 55.0026 69.4092 56.2519Z" fill="#253179"/>
<path d="M54.1804 51.4102H53.5124C53.4941 51.4102 53.4792 51.425 53.4792 51.4433V59.602C53.4792 59.6204 53.4941 59.6352 53.5124 59.6352H54.1804C54.1987 59.6352 54.2135 59.6204 54.2135 59.602V51.4433C54.2135 51.425 54.1987 51.4102 54.1804 51.4102Z" fill="#253179"/>
<path d="M48.2641 58.8362L51.2165 51.4424C51.2199 51.434 51.2257 51.4268 51.2332 51.4218C51.2407 51.4168 51.2496 51.4142 51.2586 51.4143H51.8616C51.8688 51.4144 51.8759 51.4163 51.8823 51.4197C51.8886 51.4232 51.8941 51.4282 51.8981 51.4342C51.9021 51.4402 51.9046 51.4471 51.9053 51.4543C51.9061 51.4615 51.9051 51.4688 51.9024 51.4755L48.6083 59.6088C48.6049 59.6171 48.5991 59.6243 48.5916 59.6293C48.5841 59.6343 48.5752 59.6369 48.5662 59.6368H47.851C47.842 59.6369 47.8332 59.6343 47.8257 59.6293C47.8181 59.6243 47.8123 59.6171 47.809 59.6088L44.5213 51.4755C44.5185 51.4687 44.5175 51.4613 44.5183 51.454C44.5192 51.4467 44.5218 51.4397 44.5259 51.4336C44.5301 51.4276 44.5357 51.4227 44.5422 51.4193C44.5487 51.4159 44.556 51.4142 44.5633 51.4143H45.2237C45.2327 51.4142 45.2416 51.4168 45.2491 51.4218C45.2566 51.4268 45.2624 51.434 45.2657 51.4424L48.1812 58.8362C48.1845 58.8445 48.1902 58.8516 48.1976 58.8566C48.205 58.8616 48.2137 58.8643 48.2227 58.8643C48.2316 58.8643 48.2403 58.8616 48.2477 58.8566C48.2551 58.8516 48.2608 58.8445 48.2641 58.8362Z" fill="#253179"/>
</svg>
