<svg width="100" height="100" viewBox="0 0 100 100" fill="none" xmlns="http://www.w3.org/2000/svg">
<rect width="100" height="100" fill="#183773"/>
<path d="M60.3585 36.9085L77.736 33.1735C77.7521 33.1697 77.7689 33.1712 77.7841 33.1777C77.7993 33.1842 77.812 33.1954 77.8203 33.2096C77.8287 33.2239 77.8323 33.2404 77.8306 33.2568C77.8289 33.2733 77.8221 33.2887 77.811 33.301L65.8985 46.4734C65.8901 46.4821 65.8839 46.4926 65.8803 46.5041C65.8767 46.5156 65.8759 46.5278 65.8778 46.5397C65.8797 46.5516 65.8844 46.5629 65.8915 46.5726C65.8986 46.5824 65.9078 46.5904 65.9185 46.5959L81.606 54.8934C81.6203 54.9011 81.6319 54.9131 81.6391 54.9278C81.6462 54.9424 81.6486 54.9589 81.6458 54.975C81.6431 54.991 81.6353 55.0058 81.6237 55.0172C81.612 55.0286 81.5971 55.036 81.581 55.0384L63.991 57.4734C63.9795 57.4753 63.9686 57.4796 63.959 57.4862C63.9495 57.4928 63.9415 57.5015 63.9358 57.5115C63.93 57.5216 63.9266 57.5329 63.9258 57.5444C63.9249 57.556 63.9267 57.5676 63.931 57.5784L70.626 74.0409C70.6321 74.0561 70.6333 74.0728 70.6293 74.0886C70.6254 74.1044 70.6166 74.1186 70.6041 74.1292C70.5916 74.1397 70.5762 74.146 70.5599 74.1472C70.5436 74.1485 70.5274 74.1445 70.5135 74.1359L55.4685 64.6859C55.4584 64.6797 55.4471 64.6758 55.4353 64.6746C55.4236 64.6734 55.4117 64.6749 55.4006 64.679C55.3895 64.6831 55.3794 64.6897 55.3713 64.6982C55.3631 64.7068 55.357 64.7172 55.3535 64.7284L49.901 81.6259C49.8959 81.6415 49.8861 81.6551 49.8728 81.6648C49.8596 81.6744 49.8436 81.6796 49.8272 81.6796C49.8108 81.6796 49.7949 81.6744 49.7816 81.6648C49.7684 81.6551 49.7585 81.6415 49.7535 81.6259L44.306 64.7284C44.3024 64.7172 44.2964 64.7068 44.2882 64.6982C44.28 64.6897 44.27 64.6831 44.2589 64.679C44.2478 64.6749 44.2359 64.6734 44.2241 64.6746C44.2124 64.6758 44.201 64.6797 44.191 64.6859L29.1385 74.1384C29.1246 74.147 29.1083 74.1509 29.0921 74.1497C29.0758 74.1485 29.0603 74.1422 29.0479 74.1317C29.0354 74.1211 29.0266 74.1069 29.0226 74.0911C29.0187 74.0752 29.0199 74.0586 29.026 74.0434L35.7285 57.5759C35.7328 57.565 35.7345 57.5532 35.7335 57.5414C35.7325 57.5297 35.7289 57.5183 35.7229 57.5082C35.7168 57.4981 35.7086 57.4895 35.6987 57.483C35.6889 57.4765 35.6777 57.4724 35.666 57.4709L18.066 55.0409C18.0499 55.0385 18.0349 55.0311 18.0233 55.0197C18.0117 55.0083 18.0039 54.9935 18.0011 54.9775C17.9984 54.9614 18.0007 54.9449 18.0079 54.9303C18.015 54.9156 18.0266 54.9036 18.041 54.8959L33.741 46.5984C33.7517 46.5929 33.7609 46.5849 33.768 46.5751C33.775 46.5654 33.7797 46.5541 33.7817 46.5422C33.7836 46.5303 33.7827 46.5181 33.7792 46.5066C33.7756 46.4951 33.7693 46.4846 33.761 46.4759L21.8535 33.3034C21.8424 33.2912 21.8355 33.2758 21.8338 33.2593C21.8322 33.2429 21.8358 33.2264 21.8441 33.2121C21.8525 33.1979 21.8652 33.1867 21.8804 33.1802C21.8956 33.1737 21.9124 33.1722 21.9285 33.176L39.296 36.9085C39.3077 36.9112 39.32 36.9112 39.3317 36.9083C39.3434 36.9055 39.3543 36.9 39.3635 36.8923C39.3728 36.8845 39.38 36.8747 39.3848 36.8636C39.3896 36.8525 39.3917 36.8405 39.391 36.8284L38.7335 19.0785C38.7333 19.0624 38.7381 19.0466 38.7472 19.0334C38.7564 19.0202 38.7694 19.0102 38.7845 19.0047C38.7996 18.9992 38.816 18.9985 38.8315 19.0028C38.847 19.007 38.8608 19.016 38.871 19.0285L49.7635 33.0459C49.7708 33.0548 49.7799 33.062 49.7903 33.0669C49.8007 33.0718 49.812 33.0744 49.8235 33.0744C49.835 33.0744 49.8463 33.0718 49.8567 33.0669C49.8671 33.062 49.8762 33.0548 49.8835 33.0459L60.786 19.0285C60.7962 19.016 60.8099 19.007 60.8254 19.0028C60.8409 18.9985 60.8574 18.9992 60.8725 19.0047C60.8876 19.0102 60.9006 19.0202 60.9097 19.0334C60.9189 19.0466 60.9237 19.0624 60.9235 19.0785L60.2635 36.8284C60.2628 36.8405 60.2649 36.8525 60.2697 36.8636C60.2744 36.8747 60.2817 36.8845 60.2909 36.8923C60.3002 36.9 60.3111 36.9055 60.3228 36.9083C60.3345 36.9112 60.3467 36.9112 60.3585 36.9085ZM42.8685 53.9909L39.6635 61.8634C39.6567 61.8779 39.6549 61.8943 39.6583 61.9099C39.6618 61.9255 39.6703 61.9396 39.6826 61.9498C39.6948 61.9601 39.7102 61.966 39.7262 61.9667C39.7422 61.9674 39.7579 61.9627 39.771 61.9534L46.9035 57.4709C47.0335 57.3893 47.1218 57.4218 47.1685 57.5684L49.766 65.6234C49.806 65.7518 49.8468 65.7518 49.8885 65.6234L52.4985 57.5434C52.5057 57.5207 52.5181 57.4999 52.5347 57.4827C52.5513 57.4655 52.5717 57.4523 52.5944 57.4441C52.617 57.4359 52.6413 57.4329 52.6654 57.4354C52.6895 57.4379 52.7128 57.4458 52.7335 57.4584L59.896 61.9584C59.9091 61.9666 59.9244 61.9704 59.9398 61.9692C59.9552 61.968 59.9698 61.962 59.9815 61.9519C59.9932 61.9419 60.0014 61.9284 60.0049 61.9134C60.0084 61.8984 60.007 61.8826 60.001 61.8684L56.8135 54.0409C56.7618 53.9159 56.8035 53.8434 56.9385 53.8234L65.281 52.6659C65.299 52.6636 65.3157 52.6555 65.3288 52.6429C65.3419 52.6304 65.3506 52.6139 65.3536 52.5961C65.3567 52.5782 65.354 52.5598 65.3459 52.5436C65.3377 52.5274 65.3246 52.5142 65.3085 52.5059L57.7735 48.5284C57.7617 48.5228 57.7514 48.5144 57.7435 48.5039C57.7355 48.4934 57.7301 48.4812 57.7277 48.4681C57.7253 48.455 57.7259 48.4415 57.7295 48.4286C57.7331 48.4156 57.7396 48.4036 57.7485 48.3934L63.501 42.0334C63.5112 42.0229 63.5178 42.0093 63.5196 41.9947C63.5214 41.9801 63.5184 41.9653 63.5111 41.9526C63.5037 41.9399 63.4924 41.9299 63.4788 41.9242C63.4653 41.9185 63.4502 41.9173 63.436 41.9209L55.096 43.7184C55.006 43.7368 54.9627 43.6993 54.966 43.6059L55.291 34.996C55.2943 34.9093 55.2693 34.9001 55.216 34.9685L49.9185 41.7734C49.8585 41.8518 49.7976 41.8518 49.736 41.7734L44.5135 35.056C44.5031 35.0423 44.4885 35.0323 44.472 35.0273C44.4555 35.0223 44.4379 35.0227 44.4219 35.0283C44.4058 35.0339 44.3922 35.0445 44.3831 35.0585C44.3739 35.0725 44.3696 35.0892 44.371 35.1059L44.691 43.6109C44.6943 43.7026 44.6518 43.7393 44.5635 43.7209L36.241 41.9384C36.226 41.9358 36.2104 41.9378 36.1965 41.9442C36.1826 41.9506 36.1711 41.9611 36.1636 41.9741C36.1561 41.9872 36.153 42.0021 36.1548 42.0168C36.1566 42.0315 36.1631 42.0452 36.1735 42.0559L41.8785 48.3634C41.9468 48.4384 41.936 48.5001 41.846 48.5484L34.336 52.5109C34.181 52.5926 34.1902 52.6451 34.3635 52.6684L42.7785 53.8309C42.8768 53.8443 42.9068 53.8976 42.8685 53.9909Z" fill="white"/>
</svg>
