<svg width="100" height="100" viewBox="0 0 100 100" fill="none" xmlns="http://www.w3.org/2000/svg">
<rect width="100" height="100" fill="white"/>
<path d="M13 60.8387V56.4137C15.085 35.5487 30.97 18.1937 50.98 13.5137C60.955 11.1887 75.34 12.2387 86.935 12.2237C87.465 12.2237 87.6799 12.4787 87.5799 12.9887L84.31 29.0687C84.21 29.5587 83.91 29.8037 83.41 29.8037C57.535 30.0737 36.955 24.7337 29.965 56.6987C28.185 64.8487 26.415 73.1137 24.655 81.4937C24.525 82.1337 24.21 82.2487 23.71 81.8387C17.31 76.5887 13.74 69.5887 13 60.8387Z" fill="#EC1C23"/>
<path d="M36.1897 87.1788L39.2497 72.8988C39.3397 72.4488 39.6147 72.2238 40.0747 72.2238H58.0597C58.2637 72.2246 58.4618 72.1549 58.6204 72.0264C58.7789 71.8979 58.8882 71.7186 58.9297 71.5188L61.3147 60.2688C61.3373 60.1741 61.3377 60.0754 61.3158 59.9803C61.2939 59.8852 61.2503 59.7961 61.1883 59.7196C61.1262 59.6431 61.0473 59.5812 60.9575 59.5387C60.8677 59.4961 60.7693 59.4739 60.6697 59.4738H42.9847C42.3647 59.4738 42.1097 59.1638 42.2197 58.5438C44.2147 48.1038 46.3147 42.7338 58.2397 42.6138C65.6597 42.5438 73.0897 42.5538 80.5297 42.6438C81.0697 42.6438 81.2847 42.9088 81.1747 43.4388C78.8547 54.9588 76.3797 66.4288 73.7497 77.8488C71.9047 85.8888 66.8047 87.8838 58.7347 87.9438C51.3047 88.0038 43.9947 88.0038 36.8047 87.9438C36.2847 87.9438 36.0797 87.6888 36.1897 87.1788Z" fill="#EC1C23"/>
</svg>
