<svg width="100" height="100" viewBox="0 0 100 100" fill="none" xmlns="http://www.w3.org/2000/svg">
<rect width="100" height="100" fill="#CBD6FF"/>
<path d="M45.2623 10H45.5767C47.6881 10.1771 49.0702 12.1364 49.4236 14.0657C49.4852 14.4039 49.5173 14.9563 49.5201 15.7231C49.5229 16.6772 49.524 17.6316 49.5234 18.5863C49.5226 19.1859 49.7796 19.4071 50.2361 19.8736C50.9197 20.571 51.6044 21.2671 52.2902 21.9617C52.8451 22.5245 53.2085 22.9411 53.3804 23.2116C54.0157 24.2129 54.1255 25.2291 54.1172 26.4299C54.1056 28.2157 54.092 30.0017 54.0764 31.7879C54.0698 32.5818 54.0357 33.1338 53.9742 33.4437C53.1733 37.4969 47.2332 37.6116 46.3475 33.4786C46.2738 33.1354 46.2378 32.5838 46.2394 31.8237C46.2439 29.4902 46.255 27.1565 46.2727 24.8225C46.2794 23.9465 46.5981 23.215 47.229 22.6279C47.2484 22.6096 47.2695 22.6076 47.2922 22.622C48.1829 23.1884 49.0652 24.01 49.3588 25.0437C49.4369 25.3192 49.4746 25.7477 49.4719 26.3293C49.4613 28.431 49.4503 30.5331 49.4386 32.6353C49.4336 33.5717 50.8557 33.6283 50.8656 32.5314C50.8806 30.871 50.8909 28.6273 50.8964 25.8004C50.8981 25.2657 50.7717 24.9871 50.3816 24.5904C49.4735 23.6674 48.5635 22.7468 47.6515 21.8287C46.1189 20.2869 46.2394 18.3859 46.3966 16.3568C46.469 15.4295 46.4889 13.7505 45.2216 13.5751C45.0187 13.5473 44.6722 13.5751 44.1821 13.6582C42.8759 13.88 41.3834 14.2118 39.7047 14.6536C37.9176 15.1243 36.5829 14.4807 34.8881 13.8104C34.3401 13.5933 33.8053 13.4694 33.2498 13.373C33.1251 13.3514 33.1207 13.3156 33.2365 13.2657C37.1367 11.5925 41.0253 10.3983 45.2623 10Z" fill="#F26B35"/>
<path d="M50.9553 15.3232C50.9678 12.6222 52.4214 9.84215 55.5699 10.1257C57.5131 10.3015 59.4202 10.6624 61.2913 11.2085C62.72 11.6251 63.2555 12.5765 63.816 13.8546C64.1592 14.6374 64.5409 15.4044 64.9611 16.1557C65.0055 16.2349 64.9836 16.2632 64.8955 16.2405C64.8794 16.2366 64.85 16.2319 64.8073 16.2263C64.7763 16.223 64.7471 16.2153 64.72 16.2031C61.8942 14.9656 58.9553 14.1127 55.9034 13.6442C54.6451 13.4513 54.152 14.0775 54.1587 15.2575C54.1648 16.2837 54.1573 17.3102 54.1362 18.3369C54.1146 19.3906 53.8984 20.4401 53.1848 21.2567C53.1695 21.2743 53.149 21.2867 53.1263 21.2923C53.1036 21.298 53.0796 21.2966 53.0576 21.2883C51.9682 20.8825 51.2339 20.1302 50.8547 19.0313C50.8433 18.9977 50.8421 18.9612 50.8514 18.9266C50.9018 18.7403 50.9279 18.5784 50.9295 18.4409C50.9417 17.4014 50.9503 16.3622 50.9553 15.3232Z" fill="#F26B35"/>
<path d="M63.1007 38.1406C64.7207 36.5631 66.3207 34.9647 67.9274 33.3747C68.1707 33.1335 68.2935 32.8039 68.2958 32.3859C68.3035 31.0288 68.3135 29.6721 68.3257 28.3161C68.3465 26.0109 70.0039 24.8109 71.5199 23.413C72.5818 22.435 73.3735 21.3564 71.8109 20.2429C70.522 19.3242 69.1872 18.4785 67.8068 17.7057C66.4064 16.9215 65.7619 15.7947 65.1323 14.3759C64.7775 13.5765 64.3412 12.815 63.8234 12.0915C63.8183 12.0845 63.8153 12.0761 63.8148 12.0673C63.8144 12.0586 63.8164 12.0499 63.8207 12.0423C63.8249 12.0347 63.8313 12.0285 63.839 12.0244C63.8467 12.0203 63.8555 12.0185 63.8642 12.0192C63.9495 12.0253 64.0366 12.0469 64.1253 12.0841C67.9939 13.6874 71.5215 15.4903 74.7847 18.1464C76.6492 19.6641 76.3008 22.336 75.0908 24.1107C74.8934 24.4001 74.5261 24.8142 73.9889 25.3531C73.3098 26.0344 72.6298 26.7152 71.949 27.3955C71.5972 27.7473 71.5407 28.0691 71.5365 28.5972C71.5265 29.798 71.5166 30.9985 71.5066 32.1988C71.4958 33.5601 71.134 34.6786 70.1702 35.6599C69.3319 36.5137 67.7092 38.1198 65.302 40.4782C64.1178 41.6383 62.5577 42.0416 61.0143 41.4296C58.4114 40.3976 57.6679 37.0321 59.7037 35.0055C61.9002 32.82 63.6371 31.0989 64.9145 29.8421C65.697 29.0728 66.334 28.5963 67.4708 28.6495C67.5013 28.6512 67.5193 28.667 67.5249 28.6969C67.8309 30.336 67.7461 31.5535 66.5336 32.7493C65.0644 34.1991 63.5983 35.6513 62.1353 37.1061C61.8176 37.4221 61.5756 37.7905 61.8525 38.1847C62.2118 38.6961 62.7149 38.5165 63.1007 38.1406Z" fill="#FFD525"/>
<path d="M29.1201 23.3316C30.2893 24.5366 31.8028 25.7341 31.9009 27.5195C31.9026 27.5478 31.8912 27.5697 31.8669 27.5852C31.0727 28.0783 29.3571 28.1282 28.6502 27.4946C28.4614 27.3249 28.3118 27.0696 28.1438 26.9041C26.9551 25.7271 26.1967 24.9557 25.8685 24.5898C24.1987 22.7253 23.4311 19.9428 25.5916 18.0442C27.1334 16.6904 28.8298 15.4671 30.6186 14.5648C31.0605 14.342 31.4272 14.2039 31.7188 14.1507C32.76 13.9619 33.8494 14.3719 34.8066 14.7611C35.535 15.058 36.1055 15.2592 36.7575 15.4912C36.7746 15.4972 36.7894 15.5082 36.8 15.5228C36.8106 15.5374 36.8165 15.555 36.8169 15.5731C36.8172 15.5913 36.812 15.6091 36.802 15.6244C36.792 15.6396 36.7777 15.6515 36.7608 15.6584C33.7205 16.875 30.9471 18.3395 28.271 20.3278C26.8323 21.3973 28.4074 22.5973 29.1201 23.3316Z" fill="#ED3237"/>
<path d="M25.3194 26.0768C25.8649 26.6481 26.4221 27.2061 26.9842 27.7608C27.5855 28.3537 27.7718 28.6007 28.5618 28.6065C29.8181 28.6159 31.0735 28.6245 32.3281 28.6323C34.0345 28.6431 34.9634 29.266 36.1543 30.4485C38.5388 32.818 40.0581 34.3573 40.7123 35.0664C42.8903 37.4256 41.3684 41.2211 38.2325 41.5919C36.9269 41.7458 35.7992 41.2052 34.8753 40.2805C33.1988 38.6023 31.5292 36.917 29.8666 35.2244C29.0491 34.3919 28.6225 33.794 28.6682 32.6747C28.6687 32.6635 28.6729 32.6528 28.6801 32.6442C28.6873 32.6356 28.6972 32.6297 28.7081 32.6273C29.7593 32.4086 30.9302 32.3554 31.8932 32.8926C32.1349 33.0273 32.4395 33.2798 32.8071 33.6502C34.2923 35.147 35.7773 36.6442 37.262 38.1416C37.6337 38.5167 38.1751 38.4892 38.4362 38.0244C38.6408 37.6618 38.4528 37.335 38.1718 37.0481C35.8294 34.6581 34.2297 33.0417 33.3726 32.199C33.0691 31.9013 32.6824 31.8331 32.225 31.8323C30.126 31.8273 28.7902 31.8168 28.2175 31.8007C26.0054 31.7391 24.842 30.1516 23.5056 28.6988C22.6192 27.735 21.4807 26.7063 20.388 28.204C19.5176 29.3971 18.7084 30.6303 17.9605 31.9038C17.3094 33.0132 16.4412 33.8556 15.2454 34.3329C14.2718 34.7215 13.3346 35.167 12.4337 35.6693C12.4216 35.6759 12.4079 35.6791 12.3942 35.6784C12.3804 35.6777 12.3671 35.6731 12.3558 35.6653C12.3444 35.6574 12.3355 35.6465 12.3301 35.6338C12.3246 35.6212 12.3228 35.6073 12.3248 35.5936C12.3464 35.4533 12.3847 35.3186 12.4395 35.1894C13.9456 31.6493 15.7044 28.387 18.1377 25.3932C19.647 23.5354 22.2716 23.8057 24.0612 25.0032C24.4875 25.2881 24.9069 25.646 25.3194 26.0768Z" fill="#ED3237"/>
<path d="M76.6469 29.2543C75.4444 30.4843 74.3176 31.74 72.686 31.8822C72.6529 31.8851 72.6199 31.878 72.5912 31.8618C72.5625 31.8456 72.5396 31.8211 72.5255 31.7916C72.0947 30.8943 72.0349 29.6785 72.5297 28.7762C72.6843 28.4926 73.0735 28.2988 73.2922 28.0743C74.4315 26.9051 75.2551 26.1001 75.7629 25.6593C77.3438 24.2872 79.7022 23.6477 81.486 24.9949C81.7948 25.2277 82.1748 25.6286 82.6261 26.1974C83.7044 27.5568 84.6599 28.9996 85.4927 30.5259C86.3026 32.0111 85.4286 33.661 84.8581 35.1121C84.7093 35.493 84.5854 35.9263 84.4357 36.3304C84.4327 36.3383 84.428 36.3454 84.4218 36.3511C84.4156 36.3568 84.4082 36.361 84.4002 36.3633C84.3921 36.3657 84.3836 36.3661 84.3753 36.3646C84.367 36.363 84.3592 36.3596 84.3525 36.3545L84.3243 36.3338C84.3065 36.321 84.2935 36.3044 84.2852 36.2839C83.1631 33.4126 81.6811 30.7412 79.8394 28.2697C78.7317 26.7837 77.4153 28.4676 76.6469 29.2543Z" fill="#FFD525"/>
<path d="M90.0001 43.8099V46.3479C89.4271 48.0394 87.6998 49.1197 86.0192 49.409C85.6849 49.4667 85.1324 49.4972 84.3618 49.5005C83.6025 49.503 82.8425 49.5105 82.0832 49.4864C81.6067 49.4714 81.0287 49.4764 80.6612 49.834C79.686 50.7837 78.7158 51.7389 77.7506 52.6997C76.8281 53.6183 75.7068 54.0779 74.3867 54.0785C72.1143 54.0796 69.8415 54.0691 67.5685 54.0469C66.1065 54.0319 64.8283 53.3367 64.1107 52.0718C62.8125 49.7858 64.0558 46.9209 66.6055 46.3371C66.9547 46.2573 67.5058 46.2176 68.2587 46.2182C71.6854 46.2204 74.0818 46.2334 75.4479 46.2573C76.2573 46.2711 76.9472 46.5905 77.5177 47.2153C77.5344 47.2336 77.536 47.2533 77.5227 47.2743C76.9472 48.16 76.1589 49.0199 75.1194 49.3267C74.866 49.4016 74.5129 49.4393 74.0599 49.4398C71.8889 49.4426 69.7181 49.434 67.5477 49.414C66.687 49.4066 66.4832 50.5625 67.3589 50.8086C67.4066 50.8219 67.5247 50.8297 67.7132 50.8319C69.8958 50.8563 72.0788 50.871 74.262 50.876C74.8774 50.8777 75.1477 50.7637 75.6009 50.3147C76.509 49.4154 77.4165 48.5156 78.3235 47.6153C79.8703 46.0801 81.8213 46.2207 83.8512 46.377C84.7285 46.4444 86.2786 46.4303 86.5398 45.3492C86.5963 45.1158 86.5727 44.6847 86.4691 44.056C86.2135 42.5009 85.862 40.9683 85.4146 39.4581C85.0936 38.3729 85.0712 37.2386 85.4728 36.1999C85.8853 35.1327 86.2562 34.0261 86.5855 32.8801C86.5891 32.8679 86.596 32.8569 86.6053 32.8482C86.6147 32.8395 86.6262 32.8336 86.6387 32.831C86.6511 32.8285 86.664 32.8293 86.6758 32.8336C86.6877 32.8379 86.6982 32.8453 86.7061 32.8552C86.7876 32.9544 86.8572 33.0753 86.9148 33.2178C88.3219 36.6964 89.4653 40.0777 90.0001 43.8099Z" fill="#246D42"/>
<path d="M15.4263 49.1903C12.4816 49.197 9.78469 47.6377 10.1506 44.2864C10.3391 42.5572 10.6665 40.856 11.1327 39.1828C11.339 38.4433 11.4981 37.9651 11.6101 37.7483C12.0417 36.9059 12.8699 36.3637 13.724 35.9928C14.5811 35.6208 15.4318 35.2397 16.2762 34.8494C16.2959 34.8404 16.3181 34.8367 16.3409 34.8386C16.3636 34.8405 16.3862 34.8479 16.4067 34.8602C16.4328 34.8757 16.4356 34.9098 16.415 34.9625C16.2443 35.3954 16.0697 35.827 15.8911 36.2573C14.8444 38.7748 14.1112 41.3783 13.6916 44.0677C13.5676 44.8618 13.5668 45.5213 14.3635 45.8423C14.5905 45.9338 15.0063 45.9945 15.2666 45.9903C16.9969 45.9637 18.1728 45.9751 18.7943 46.0244C19.7315 46.0993 20.6113 46.3537 21.2716 46.9541C21.2901 46.9709 21.3032 46.9928 21.3092 47.017C21.3153 47.0413 21.3141 47.0669 21.3057 47.0905C20.9514 48.0785 20.1281 48.9674 19.0986 49.256C18.8841 49.3167 18.7202 49.2211 18.539 49.2178C17.5017 49.1972 16.4641 49.1881 15.4263 49.1903Z" fill="#EC268F"/>
<path d="M49.4526 65.985C50.9836 67.5135 52.5013 69.0544 54.0306 70.5838C55.574 72.128 56.0439 73.9783 56.0563 76.1172C56.0674 78.0349 56.0724 79.9526 56.0713 81.8702C56.0702 82.7174 56.2351 83.5287 56.5661 84.3043C57.2314 85.8628 58.7757 85.99 60.2119 85.5318C61.1358 85.2374 62.2193 84.7767 63.0568 84.6677C63.8174 84.5685 64.5523 84.6478 65.2613 84.9056C66.3003 85.2826 67.3409 85.6174 68.3832 85.9102C68.4019 85.9153 68.4185 85.926 68.4309 85.9409C68.4433 85.9558 68.4509 85.9742 68.4526 85.9936C68.4543 86.013 68.4501 86.0325 68.4405 86.0495C68.431 86.0665 68.4165 86.0803 68.399 86.0889C65.8676 87.3139 63.2297 88.3501 60.4938 89.017C55.6946 90.1863 52.6925 86.4008 52.6509 82.0208C52.6354 80.3781 52.6329 78.4224 52.6435 76.1538C52.6493 74.9871 52.4846 73.8661 51.6198 72.9954C49.8207 71.1836 48.0175 69.3763 46.2102 67.5734C44.5927 65.9601 44.1204 64.0166 44.1187 61.7821C44.1154 57.9656 44.1148 54.1491 44.1171 50.3326C44.1179 47.9043 44.8979 45.9093 46.9437 44.6411C48.6534 43.5817 50.7915 43.4661 52.6218 44.2877C54.5528 45.1542 55.7661 46.9513 56.0131 49.0669C56.0486 49.3702 56.0669 49.8719 56.068 50.5721C56.0735 54.6109 56.0727 58.6494 56.0655 62.6877C56.0611 65.0306 55.2192 66.9948 53.5399 68.5804C53.5207 68.5991 53.4952 68.6098 53.4684 68.6104C52.4065 68.6386 51.2588 66.8507 51.322 65.8719C51.3228 65.8578 51.3267 65.8441 51.3333 65.8317C51.3399 65.8194 51.3491 65.8087 51.3603 65.8004C52.5329 64.9314 52.6368 63.5226 52.6376 62.1896C52.641 58.1059 52.6412 54.0219 52.6385 49.9376C52.6351 46.1871 47.5316 46.2594 47.5283 49.9634C47.525 53.9395 47.5236 57.9157 47.5241 61.8919C47.525 62.9563 47.6547 63.9193 48.3 64.7892C48.3843 64.9028 48.7685 65.3014 49.4526 65.985Z" fill="#354B9C"/>
<path d="M22.3109 47.5219C23.229 46.5955 24.3965 46.03 25.6597 46.0342C27.7232 46.0403 29.7864 46.0511 31.8493 46.0666C32.631 46.0722 33.1829 46.1096 33.5051 46.1789C36.0323 46.7211 37.3146 49.5261 36.1213 51.8163C35.4028 53.1935 34.0473 53.9061 32.4888 53.9011C29.3992 53.8901 26.9595 53.8756 25.1699 53.8579C24.073 53.8471 23.3604 53.6849 22.6485 52.9082C22.6308 52.8888 22.6288 52.868 22.6427 52.8458C23.2132 51.9527 24.0339 51.0737 25.0826 50.7793C25.3653 50.7 25.8197 50.6626 26.4456 50.6671C29.2143 50.6859 31.2631 50.6959 32.592 50.697C33.6165 50.6978 33.6306 49.3082 32.6036 49.2833C31.4449 49.255 29.5159 49.2445 26.8165 49.2517C26.4863 49.2525 25.8768 49.1976 25.426 49.2758C24.9803 49.3531 24.7732 49.5893 24.3915 49.9693C22.9917 51.362 22.0697 52.2679 21.6256 52.687C20.3342 53.9036 18.5138 53.9219 16.8589 53.7747C15.8227 53.6833 13.357 53.5203 13.5791 55.2766C13.7781 56.8533 14.1285 58.5074 14.6302 60.2388C14.9154 61.2217 14.8606 62.0741 14.5213 63.0429C14.162 64.0675 13.7986 65.0906 13.431 66.1124C13.3712 66.2787 13.3071 66.4062 13.2389 66.4949C13.2344 66.501 13.2286 66.506 13.222 66.5098C13.2153 66.5135 13.208 66.5159 13.2004 66.5168C13.1928 66.5176 13.1851 66.5169 13.1777 66.5148C13.1703 66.5126 13.1634 66.5089 13.1574 66.5041C13.0527 66.4159 12.977 66.3122 12.9304 66.193C11.5816 62.7095 10.4972 59.2608 10.0822 55.5311C10.0173 54.9473 10.0159 54.4899 10.078 54.1589C10.424 52.3095 12.2643 51.0729 14.0148 50.7336C14.3752 50.6637 14.9271 50.628 15.6705 50.6263C16.6352 50.6235 17.6001 50.623 18.5653 50.6246C18.9828 50.6252 19.334 50.4774 19.619 50.1814C20.2144 49.5619 21.3038 48.5382 22.3109 47.5219Z" fill="#EC268F"/>
<path d="M89.9999 54.4959V55.9728C89.8536 56.9829 89.5883 58.4011 89.2041 60.2273C89.081 60.8138 88.9532 61.2546 88.8207 61.5495C88.365 62.5649 87.4935 63.1138 86.518 63.5528C85.7236 63.911 84.9239 64.296 84.1189 64.7079C84.1031 64.716 84.0853 64.7193 84.0677 64.7175C84.05 64.7157 84.0333 64.7089 84.0194 64.6978C84.0056 64.6868 83.9952 64.672 83.9895 64.6552C83.9839 64.6384 83.9831 64.6203 83.9875 64.6032C84.0324 64.4263 84.097 64.2398 84.1812 64.0435C85.3361 61.3458 86.1136 58.5425 86.5139 55.6335C86.681 54.4244 85.7505 54.1242 84.755 54.1366C83.613 54.1505 82.4715 54.1375 81.3305 54.0975C80.4773 54.0676 79.5534 53.7383 78.8997 53.1795C78.8781 53.1612 78.8627 53.1367 78.8555 53.1093C78.8484 53.0819 78.8499 53.053 78.8598 53.0264C79.2667 51.9382 80.0193 51.2072 81.1176 50.8335C81.1527 50.8211 81.1908 50.8199 81.2266 50.8302C81.4095 50.8806 81.562 50.907 81.6839 50.9092C82.1164 50.9186 83.1761 50.93 84.8631 50.9433C87.1401 50.9616 89.6099 52.0077 89.9999 54.4959Z" fill="#246D42"/>
<path d="M25.4045 75.5693C26.3201 74.4824 27.5501 73.4861 28.3775 72.5356C28.5455 72.3421 28.6303 72.0794 28.632 71.7473C28.6386 70.4228 28.6417 69.0989 28.6411 67.7755C28.6403 66.3211 29.2274 65.2142 30.2378 64.2088C31.6288 62.825 33.024 61.4457 34.4233 60.0708C34.9893 59.5141 35.4076 59.1527 35.6781 58.9864C38.1222 57.4812 41.2923 59.0878 41.6174 61.9194C41.7596 63.1602 41.2249 64.3635 40.3393 65.2458C37.5567 68.0162 35.6964 69.8496 34.7584 70.746C34.2101 71.2699 33.519 71.508 32.6852 71.4604C32.6586 71.4587 32.6428 71.4451 32.6378 71.4196C32.3293 69.8512 32.4083 68.5913 33.5742 67.4313C35.0406 65.9732 36.5092 64.5179 37.98 63.0654C38.1802 62.868 38.306 62.7133 38.3576 62.6013C38.5488 62.1888 38.2927 61.7389 37.8727 61.6408C37.4561 61.5435 37.1418 61.8812 36.8174 62.2022C35.4176 63.5882 34.0194 64.9758 32.6228 66.3651C32.1871 66.7984 31.8478 67.1161 31.8461 67.734C31.8439 69.0784 31.8409 70.4225 31.837 71.7664C31.8342 72.7028 31.5725 73.5394 31.0519 74.2762C30.0316 75.719 28.4781 76.4733 27.6457 77.8928C27.1825 78.682 27.6066 79.3223 28.2644 79.8038C29.2246 80.5074 30.2129 81.1682 31.2291 81.7864C31.6393 82.0358 31.9215 82.229 32.0756 82.366C32.7384 82.9514 33.1567 83.7464 33.496 84.5498C33.8636 85.4196 34.2589 86.28 34.6819 87.1311C34.6869 87.141 34.6905 87.1516 34.6927 87.1627C34.7243 87.3096 34.6738 87.3561 34.5413 87.3024C31.486 86.0561 28.645 84.4419 26.0183 82.46C25.5043 82.0719 25.1373 81.7317 24.9172 81.4396C23.6075 79.7007 24.0848 77.136 25.4045 75.5693Z" fill="#5A3E95"/>
<path d="M67.3723 66.49C65.8954 65.0097 64.4451 63.5012 62.9557 62.0359C62.6164 61.7016 62.2022 61.5652 61.8347 61.9461C61.4563 62.3386 61.6866 62.7685 62.0268 63.1153C63.8679 64.992 65.4394 66.5784 66.7411 67.8746C67.0155 68.1479 67.3551 68.2848 67.7598 68.2854C69.1164 68.287 70.4731 68.2937 71.8297 68.3053C74.1133 68.3261 75.3964 70.0151 76.7619 71.5544C77.0241 71.8493 77.3587 72.1299 77.7657 72.396C79.0746 73.25 79.7465 72.0351 80.3553 71.0463C81.7931 68.7095 82.9141 66.2771 85.5054 65.0322C86.297 64.6518 87.0915 64.2538 87.8887 63.838C87.906 63.8291 87.9251 63.8245 87.9446 63.8247C87.964 63.8249 87.9831 63.8298 88.0001 63.8391C88.0172 63.8484 88.0317 63.8617 88.0425 63.8779C88.0532 63.8941 88.0598 63.9126 88.0617 63.932C88.0722 64.0367 88.0501 64.1554 87.9952 64.2879C86.5016 67.9095 84.7295 71.3257 82.2904 74.4101C81.3424 75.6076 80.3395 76.1914 78.7644 76.0442C77.3679 75.9134 76.1604 75.3376 75.142 74.317C74.353 73.527 73.5616 72.7386 72.7677 71.9519C72.4126 71.6001 72.1232 71.5211 71.5952 71.517C70.3821 71.5081 69.1694 71.4981 67.9569 71.487C66.2289 71.4712 65.3 70.9598 64.0941 69.7573C62.0329 67.701 60.511 66.1651 59.5286 65.1494C57.3657 62.9149 58.574 59.3241 61.4771 58.6097C62.8659 58.2679 64.2555 58.7843 65.2684 59.8047C67.0602 61.6099 68.8467 63.4202 70.628 65.2359C71.2362 65.8552 71.5253 66.5917 71.4954 67.4455C71.4943 67.4776 71.4776 67.4967 71.4455 67.5028C70.3511 67.7091 69.2559 67.769 68.2621 67.2193C68.021 67.0862 67.7244 66.8431 67.3723 66.49Z" fill="#1CA2EA"/>
<path d="M27.4095 71.5958C25.4436 73.1459 24.0906 75.5642 21.308 75.8644C19.7687 76.0307 18.5804 75.2549 17.6482 74.0765C16.3858 72.4792 15.2825 70.7797 14.3384 68.9779C14.1771 68.6708 14.0764 68.3969 14.0365 68.1563C13.8993 67.3264 14.1064 66.4865 14.4723 65.7363C14.8415 64.9796 15.1863 64.2112 15.5068 63.4312C15.5133 63.415 15.5235 63.4006 15.5365 63.389C15.5495 63.3774 15.565 63.3689 15.5818 63.3642C15.5987 63.3594 15.6164 63.3586 15.6336 63.3617C15.6509 63.3648 15.6672 63.3718 15.6814 63.3821C15.6897 63.3882 15.7025 63.3982 15.7197 63.412C15.7357 63.4242 15.7477 63.4397 15.7554 63.4586C16.2045 64.617 16.6644 65.8162 17.2082 66.8964C18.1646 68.7975 19.2529 70.5056 20.4731 72.0208C21.1351 72.8424 22.0398 72.3401 22.6677 71.7072C23.2737 71.0952 24.0221 70.3623 24.913 69.5085C25.6032 68.8465 26.5812 68.2312 27.5542 68.2569C27.583 68.2575 27.6046 68.2702 27.619 68.2952C28.0739 69.0935 28.1845 70.9846 27.4095 71.5958Z" fill="#5A3E95"/>
<path d="M36.8273 88.1423C36.103 87.793 35.5666 87.0728 35.2664 86.3585C34.8844 85.4487 34.493 84.5425 34.0922 83.64C34.055 83.5563 34.0398 83.4983 34.0464 83.4662C34.0692 83.3603 34.1299 83.3295 34.2286 83.3739C36.3004 84.3025 38.4176 85.0748 40.5803 85.6907C40.8556 85.7697 41.1458 85.8121 41.4319 85.8603C42.6701 86.0657 43.4319 85.0146 43.7595 83.9901C44.0381 83.1186 44.1146 82.3718 44.1138 81.3689C44.1127 78.6839 44.116 76.8469 44.1238 75.8579C44.1329 74.6737 44.3699 73.4337 45.0003 72.4092C45.6129 71.4157 46.3652 70.5362 47.2572 69.7705C47.2673 69.762 47.2792 69.7559 47.292 69.7528C47.3049 69.7496 47.3183 69.7494 47.3313 69.7522C48.2768 69.9718 48.9562 71.2716 49.0984 72.1373C49.1383 72.3818 48.9837 72.6637 48.7974 72.8658C47.8302 73.9194 47.5508 74.835 47.5491 76.2396C47.5475 78.1007 47.5455 79.9624 47.5433 81.8246C47.5383 86.03 45.1001 89.9926 40.2801 89.2233C39.4186 89.0861 38.5121 88.7285 37.6839 88.4475C37.181 88.2767 36.8955 88.175 36.8273 88.1423Z" fill="#354B9C"/>
<path d="M65.0963 83.8818C65.0852 83.8781 65.0753 83.8714 65.0678 83.8624C65.0602 83.8535 65.0553 83.8426 65.0535 83.831C65.0517 83.8194 65.0531 83.8076 65.0576 83.7968C65.062 83.7859 65.0694 83.7765 65.0788 83.7696C65.0982 83.7552 65.1207 83.7349 65.1462 83.7089C65.1689 83.6861 65.1933 83.6692 65.2194 83.6581C67.5717 82.6502 69.7743 81.3818 71.8273 79.8527C72.7986 79.1301 72.5383 78.2976 71.8007 77.5534C71.1149 76.8609 70.4291 76.1685 69.7433 75.476C68.9915 74.7176 68.2747 73.6756 68.2664 72.5829C68.2658 72.5535 68.2788 72.5324 68.3054 72.5197C69.2185 72.0798 70.4161 72.0016 71.3383 72.4931C71.6244 72.6461 71.7674 72.9596 71.9969 73.19C72.6705 73.8641 73.3394 74.543 74.0036 75.2265C75.6019 76.8698 76.7354 79.4203 75.1237 81.4976C74.8948 81.7926 74.4898 82.169 73.9088 82.627C72.7695 83.524 71.6332 84.2841 70.5 84.9072C69.7217 85.3347 68.6048 85.0918 67.8007 84.8074C66.9114 84.4925 66.01 84.184 65.0963 83.8818Z" fill="#1CA2EA"/>
</svg>
