<svg width="100" height="100" viewBox="0 0 100 100" fill="none" xmlns="http://www.w3.org/2000/svg">
<rect width="100" height="100" fill="#0E3F62"/>
<path d="M65.4991 32.5141C65.4916 32.5366 65.4761 32.5525 65.4527 32.5619C65.4246 32.5722 65.4161 32.5914 65.4274 32.6195C67.2667 36.8636 68.111 41.305 67.96 45.9438C58.0052 37.9478 44.5178 36.8552 33.3621 42.9907C33.2918 42.9935 33.2393 43.0047 33.2046 43.0244C29.3055 45.2453 25.9793 48.2219 23.2258 51.9541C24.2707 40.6928 32.2357 31.3075 43.1889 28.4486C43.6108 28.3389 44.3018 28.1898 45.2618 28.0014C46.8241 27.6963 50.0739 27.3053 50.5028 25.3394C50.7953 23.9978 49.6661 22.0656 49.1247 20.8661C48.7521 20.0406 48.5397 18.6006 49.8461 18.4628C51.4844 18.2898 53.3139 19.8044 54.2899 20.9786C55.6061 22.5606 56.4414 24.1862 57.2894 26.0327C57.9714 27.5191 58.8039 29.0111 60.2622 29.6228C62.111 30.3991 63.8566 31.3628 65.4991 32.5141Z" fill="#3DA3CB"/>
<path d="M65.4991 32.5142C75.3203 39.6326 79.2592 51.8487 75.3751 63.3772C74.9617 64.6048 74.7283 66.0898 75.25 67.3034C76.0023 69.0528 79.2058 68.6928 80.5712 68.7744C82.4247 68.8855 82.9126 70.2214 81.5641 71.5559C79.5644 73.5345 75.6564 73.9395 73.0127 73.813C71.0003 73.7174 69.3859 73.581 67.8166 74.7341C66.1984 75.9238 64.532 77.0431 62.8173 78.0922C62.6922 78.1696 62.4981 78.2244 62.3716 78.32C62.0781 78.2506 61.7898 78.2066 61.5067 78.1878C56.7916 77.8785 52.0961 76.2753 48.0517 73.8664C48.0461 73.8627 48.04 73.8594 48.0334 73.8566C59.7377 69.2497 67.4692 58.5467 67.96 45.9439C68.1109 41.3051 67.2667 36.8637 65.4273 32.6196C65.4161 32.5915 65.4245 32.5723 65.4527 32.562C65.4761 32.5526 65.4916 32.5367 65.4991 32.5142Z" fill="#FCBA64"/>
<path d="M33.3621 42.9907C31.6324 55.325 37.4303 67.4314 48.0335 73.8566C48.04 73.8594 48.0461 73.8626 48.0517 73.8664C52.0961 76.2753 56.7916 77.8784 61.5067 78.1878C61.7899 78.2066 62.0781 78.2506 62.3716 78.32C59.5441 79.7844 56.56 80.7261 53.4194 81.1452H46.4978C39.9911 80.2198 34.1707 77.1978 29.8408 72.2858C28.5189 70.7853 25.968 67.4806 23.711 69.8755C22.8518 70.7867 22.2808 71.8231 21.5496 72.8187C20.8732 73.7412 19.7144 74.2405 19.0521 72.9172C18.1113 71.0342 18.8721 68.3567 19.7299 66.5637C20.2905 65.3909 21.1263 64.0025 22.2372 62.3984C22.9868 61.317 23.4719 59.7926 23.3594 58.4187C23.2722 57.3472 23.2019 56.0548 23.1485 54.5417C23.11 53.4786 23.1358 52.6161 23.2258 51.9542C25.9792 48.222 29.3055 45.2454 33.2046 43.0245C33.2392 43.0048 33.2917 42.9935 33.3621 42.9907Z" fill="#F15A2C"/>
</svg>
