<svg width="100" height="100" viewBox="0 0 100 100" fill="none" xmlns="http://www.w3.org/2000/svg">
<rect width="100" height="100" fill="#FFFCBE"/>
<path d="M67.625 31.625L85.875 35.125L67.875 67.625L67.625 31.625Z" fill="#4CA93E"/>
<path d="M86.125 76.875L68.125 70.875L86.125 38.375V76.875Z" fill="#90C43B"/>
<path d="M64.625 18.875L33.625 25.875L64.625 68.625V18.875Z" fill="#4CA93E"/>
<path d="M34.125 71.625H65.125L34.125 28.875V71.625Z" fill="#90C43B"/>
<path d="M14.625 77.125L44.875 70.375L14.625 41.875V77.125Z" fill="#90C43B"/>
<path d="M44.875 32.875L14.625 39.625L44.875 68.125V32.875Z" fill="#4CA93E"/>
<path d="M8.375 80.6251C21.7917 70.4584 57.325 56.2251 92.125 80.6251C78.9583 73.9584 43.775 64.6251 8.375 80.6251Z" fill="#EFE512"/>
</svg>
