<svg width="100" height="100" viewBox="0 0 100 100" fill="none" xmlns="http://www.w3.org/2000/svg">
<rect width="100" height="100" fill="#E1100F"/>
<path d="M33.2685 17H66.4835C66.5848 17 66.6849 17.0215 66.7772 17.0631C66.8696 17.1048 66.952 17.1656 67.019 17.2415L72.059 22.971C72.1741 23.1015 72.2376 23.2695 72.2375 23.4435V78.068C72.2371 78.2538 72.1642 78.432 72.0345 78.565L67.1765 83.5455C67.1101 83.614 67.0307 83.6684 66.943 83.7057C66.8552 83.743 66.7609 83.7623 66.6655 83.7625H33.1565C32.9792 83.7624 32.8083 83.6962 32.677 83.577L27.231 78.5965C27.1579 78.5293 27.0995 78.4476 27.0598 78.3566C27.02 78.2656 26.9996 78.1673 27 78.068V23.4575C27.0004 23.2734 27.0719 23.0966 27.1995 22.964L32.754 17.217C32.8208 17.1481 32.9008 17.0934 32.9892 17.0561C33.0776 17.0188 33.1726 16.9998 33.2685 17Z" fill="#E1100F"/>
<path d="M28.3475 77.6692C28.2812 77.6074 28.2284 77.533 28.1922 77.4505C28.1561 77.368 28.1375 77.2792 28.1375 77.1897V24.3292C28.1375 24.1495 28.1993 23.9944 28.323 23.8637L33.6675 18.2532C33.7398 18.1762 33.8285 18.1377 33.9335 18.1377H65.7729C65.829 18.1377 65.8846 18.1499 65.9359 18.1735C65.9872 18.197 66.0331 18.2314 66.0704 18.2742L71.0089 23.9407C71.0676 24.0085 71.0999 24.0942 71.0999 24.1822V77.3647C71.1001 77.4655 71.0599 77.5635 70.9879 77.6377L66.2979 82.4222C66.2069 82.5155 66.0961 82.568 65.9654 82.5797C64.0964 82.7512 61.8004 82.6532 60.4459 82.6637C52.6829 82.722 44.9211 82.736 37.1604 82.7057C36.429 82.7022 35.246 82.5342 34.3395 82.6987C34.1873 82.7269 34.0305 82.7192 33.8816 82.676C33.7328 82.6329 33.5959 82.5556 33.482 82.4502L28.3475 77.6692Z" fill="white"/>
<path d="M44.4298 25.5787L33.2438 74.0642C33.2398 74.0761 33.2318 74.0864 33.2212 74.0932C33.2106 74.1001 33.198 74.1031 33.1854 74.1019C33.1729 74.1007 33.1611 74.0953 33.152 74.0865C33.1429 74.0778 33.137 74.0662 33.1353 74.0537L33.1213 25.5437C33.1213 25.4037 33.1913 25.3325 33.3313 25.3302L44.2233 25.3057C44.403 25.3034 44.4718 25.3944 44.4298 25.5787Z" fill="#B2B2B2"/>
<path d="M49.3018 46.694L58.1638 42.9315C58.1862 42.922 58.2109 42.9188 58.235 42.9223C58.2591 42.9258 58.2818 42.9359 58.3006 42.9514C58.3193 42.9669 58.3335 42.9873 58.3415 43.0104C58.3495 43.0334 58.351 43.0582 58.3458 43.082L51.0168 74.596C51.0145 74.6164 51.0042 74.6351 50.9881 74.6479C50.972 74.6607 50.9515 74.6666 50.9311 74.6642C50.9106 74.6619 50.892 74.6516 50.8792 74.6355C50.8664 74.6194 50.8605 74.5989 50.8628 74.5785L50.5828 52.4305C50.5828 52.3115 50.5291 52.28 50.4218 52.336L40.7618 57.383C40.7413 57.3942 40.7179 57.3991 40.6946 57.397C40.6713 57.395 40.6491 57.3861 40.6308 57.3716C40.6125 57.357 40.5989 57.3374 40.5917 57.3151C40.5845 57.2929 40.584 57.269 40.5903 57.2465L48.0243 25.575C48.0663 25.4 48.1771 25.3125 48.3568 25.3125H55.5143C55.687 25.3125 55.7476 25.3953 55.6963 25.561L49.1338 46.54C49.0801 46.7127 49.1361 46.764 49.3018 46.694Z" fill="#E1100F"/>
<path d="M66.025 26.338V74.267C66.025 74.414 65.9515 74.4875 65.8045 74.4875H54.9405C54.9146 74.4877 54.889 74.482 54.8657 74.4708C54.8423 74.4595 54.8218 74.443 54.8056 74.4224C54.7895 74.4019 54.7781 74.3779 54.7723 74.3522C54.7666 74.3265 54.7666 74.2997 54.7725 74.274L65.829 26.317C65.9596 25.7523 66.025 25.7593 66.025 26.338Z" fill="#B2B2B2"/>
</svg>
