<svg width="100" height="100" viewBox="0 0 100 100" fill="none" xmlns="http://www.w3.org/2000/svg">
<rect width="100" height="100" fill="#FFF2D3"/>
<path d="M73.8735 55.8293L92.5641 55.7878C92.6025 55.7885 92.6401 55.7996 92.6727 55.8198C92.7054 55.84 92.7318 55.8685 92.749 55.9022C92.7662 55.9359 92.7735 55.9734 92.7701 56.0105C92.7667 56.0476 92.7528 56.0828 92.7298 56.1122L88.2918 62.0825C88.1538 62.2711 87.9674 62.3655 87.7327 62.3655L65.9914 62.3862C65.7614 62.3862 65.6463 62.2734 65.6463 62.048L65.674 44.5859C65.674 44.4065 65.6027 44.2344 65.4758 44.1076C65.349 43.9807 65.1769 43.9095 64.9976 43.9095C58.795 43.9003 52.5187 43.9164 46.1689 43.9578C44.4342 43.967 42.8444 44.4225 41.3996 45.3244C41.1465 45.4854 41.0039 45.4164 40.9717 45.1173C40.7508 42.9593 39.8375 41.1786 38.2316 39.7752C38.1884 39.7375 38.1555 39.6895 38.136 39.6357C38.1165 39.5819 38.1109 39.5239 38.1199 39.4674C38.1289 39.4108 38.152 39.3575 38.1873 39.3123C38.2225 39.2671 38.2686 39.2317 38.3213 39.2092C40.6818 38.1808 42.7455 37.042 45.4235 37.0282C54.6169 36.996 63.792 36.9914 72.9487 37.0144C73.0774 37.0162 73.2003 37.0679 73.2907 37.1583C73.3811 37.2487 73.4318 37.3706 73.4318 37.4975V55.3944C73.4318 55.6843 73.579 55.8293 73.8735 55.8293Z" fill="#1A3680"/>
<path d="M55.8316 53.5722H46.9418C46.767 53.5722 46.622 53.5032 46.507 53.3651L42.1587 48.0023C42.1382 47.976 42.1254 47.9445 42.1218 47.9114C42.1181 47.8783 42.1238 47.8448 42.1381 47.8147C42.1525 47.7846 42.1749 47.759 42.2029 47.741C42.2309 47.7229 42.2634 47.713 42.2968 47.7124L63.2995 47.6434C63.3746 47.6434 63.4466 47.6732 63.4996 47.7263C63.5527 47.7793 63.5825 47.8513 63.5825 47.9264L63.6239 62.0686C63.6239 62.271 63.525 62.3723 63.3272 62.3723C57.2902 62.3677 51.2717 62.3746 45.2715 62.393C36.6854 62.4206 31.4951 56.5953 32.0059 47.8573C32.1715 45.0919 30.8947 43.7115 28.1753 43.7161C21.2871 43.7253 14.3966 43.7345 7.50377 43.7437C7.16787 43.7437 7.10806 43.6126 7.32432 43.3503L11.7761 38.0082C11.8557 37.909 11.9566 37.829 12.0713 37.774C12.186 37.7191 12.3115 37.6906 12.4387 37.6907C17.5462 37.6999 22.6468 37.7022 27.7404 37.6976C34.7667 37.6838 39.9777 40.2444 39.9294 48.0851C39.9087 51.5775 40.0122 56.0707 44.7953 55.8499C48.4395 55.6796 52.0907 55.6405 55.7488 55.7325C56.034 55.7417 56.1767 55.6037 56.1767 55.3184V53.9173C56.1767 53.6872 56.0617 53.5722 55.8316 53.5722Z" fill="#FEC339"/>
<path d="M14.4197 56.34V62.0204C14.4197 62.0702 14.4098 62.1196 14.3908 62.1656C14.3717 62.2117 14.3437 62.2535 14.3085 62.2888C14.2732 62.324 14.2314 62.352 14.1853 62.3711C14.1393 62.3901 14.0899 62.4 14.04 62.4L7.3313 62.3862C7.11043 62.3862 7 62.2757 7 62.0549V49.6036C7 49.5121 7.03636 49.4243 7.10108 49.3596C7.1658 49.2949 7.25357 49.2585 7.3451 49.2585H30.2736C30.5174 49.2585 30.6394 49.3805 30.6394 49.6244C30.6256 51.5109 30.9661 53.3261 31.6609 55.07C31.7621 55.3139 31.6839 55.4704 31.4262 55.5394C26.8087 56.7748 19.6721 55.9673 14.7509 56.0018C14.5301 56.0064 14.4197 56.1191 14.4197 56.34Z" fill="#1A3680"/>
</svg>
