<svg width="100" height="100" viewBox="0 0 100 100" fill="none" xmlns="http://www.w3.org/2000/svg">
<rect width="100" height="100" fill="#0165B3"/>
<path d="M48.3802 14.8557C48.3802 14.9122 48.352 14.9417 48.2955 14.9444C40.1955 15.2156 32.3376 18.6549 26.3761 24.0117C26.3434 24.0408 26.3112 24.04 26.2795 24.0091C25.3743 23.1136 24.4789 22.2094 23.5931 21.2963C23.3708 21.066 23.1392 20.8547 22.8984 20.6624C22.8907 20.6563 22.8845 20.6485 22.8801 20.6397C22.8757 20.6309 22.8733 20.6213 22.8731 20.6114C22.8728 20.6016 22.8747 20.5918 22.8786 20.5828C22.8826 20.5738 22.8884 20.5657 22.8958 20.5592C29.4691 14.5999 37.1973 11.1588 46.0803 10.236C46.8248 10.1584 47.5672 10.0799 48.3074 10.0005C48.3174 9.99933 48.3276 10.0003 48.3372 10.0033C48.3468 10.0063 48.3557 10.0113 48.3632 10.018C48.3707 10.0246 48.3767 10.0327 48.3808 10.0418C48.3848 10.0508 48.3869 10.0607 48.3868 10.0706L48.3802 14.8557Z" fill="white"/>
<path d="M76.9903 20.5447L73.6516 23.9324C73.619 23.9651 73.585 23.9659 73.5497 23.9351C67.4453 18.5095 59.8349 15.3176 51.6608 14.9365C51.6158 14.9339 51.5933 14.91 51.5933 14.865V10.072C51.5933 10.0358 51.6118 10.0186 51.6488 10.0204C61.3435 10.5559 69.7897 14.03 76.9877 20.4428C77.0239 20.4755 77.0247 20.5094 76.9903 20.5447Z" fill="white"/>
<path d="M89.9086 48.431L85.2386 48.4416C85.1839 48.4416 85.1552 48.4147 85.1526 48.3609C84.7591 41.0235 82.3493 34.4475 77.9233 28.6329C77.5554 28.1512 76.9048 27.3779 75.9714 26.3131C75.9432 26.2804 75.9445 26.2491 75.9754 26.2191L79.3088 22.8606C79.316 22.8534 79.3245 22.8477 79.3339 22.844C79.3433 22.8402 79.3533 22.8384 79.3634 22.8386C79.3734 22.8389 79.3833 22.8412 79.3923 22.8454C79.4014 22.8496 79.4094 22.8557 79.416 22.8632C85.7203 29.8133 89.7008 38.8714 89.9708 48.3675C89.9716 48.4098 89.9509 48.431 89.9086 48.431Z" fill="white"/>
<path d="M20.6038 22.9704L23.9399 26.3011C23.9822 26.3426 23.9835 26.385 23.9438 26.4282C18.3603 32.6513 15.3343 39.9697 14.8659 48.3833C14.8641 48.4142 14.8482 48.4296 14.8183 48.4296L10.0583 48.4191C10.0504 48.4189 10.0425 48.4172 10.0353 48.414C10.028 48.4108 10.0215 48.4063 10.0161 48.4006C10.0107 48.3949 10.0064 48.3882 10.0037 48.381C10.0009 48.3737 9.99971 48.3659 10.0001 48.3582C10.5426 38.6371 14.034 30.1758 20.4741 22.9743C20.4821 22.9652 20.4919 22.9578 20.503 22.9526C20.514 22.9474 20.5259 22.9445 20.5381 22.9441C20.5503 22.9438 20.5624 22.9459 20.5737 22.9504C20.585 22.9549 20.5952 22.9617 20.6038 22.9704Z" fill="white"/>
<path d="M34.2352 53.4145C34.2314 53.4106 34.2265 53.4079 34.2212 53.4067C34.2159 53.4056 34.2104 53.406 34.2053 53.408C34.2002 53.41 34.1958 53.4134 34.1927 53.4178C34.1895 53.4223 34.1878 53.4275 34.1876 53.433C34.1916 57.3871 34.2498 61.3094 34.1571 65.1986C34.1421 65.8479 34.1598 66.3874 34.2101 66.817C34.3173 67.7274 36.248 68.0358 36.9374 68.0318C36.955 68.0318 36.9718 68.0388 36.9842 68.0512C36.9966 68.0636 37.0036 68.0804 37.0036 68.098V68.9899C37.0036 69.034 36.9815 69.0561 36.9374 69.0561H26.7532C26.7117 69.0561 26.6906 69.0358 26.6897 68.9952L26.6619 68.1231C26.6615 68.1078 26.6671 68.0929 26.6774 68.0815C26.6878 68.0702 26.7021 68.0633 26.7175 68.0622C27.7377 67.9921 29.2159 67.8492 29.2172 66.4676C29.2269 56.0928 29.2322 45.7185 29.2331 35.3446C29.2331 34.0543 27.7549 33.7725 26.7611 33.8281C26.7082 33.8316 26.6817 33.8069 26.6817 33.7539V32.9547C26.6817 32.8929 26.713 32.862 26.7757 32.862C31.1956 32.8656 35.6141 32.8647 40.0313 32.8594C40.9497 32.8585 41.6842 32.9145 42.2347 33.0274C49.2085 34.4566 52.0325 42.419 49.8728 48.5394C48.0983 53.5706 42.9691 57.2759 37.5554 55.5106C36.2656 55.0898 35.1589 54.3911 34.2352 53.4145ZM34.3742 49.3122C34.9128 51.2111 36.4849 52.6893 38.45 53.0545C41.184 53.564 44.618 52.7065 45.494 49.684C45.6131 49.2729 45.6726 48.6832 45.6726 47.9148C45.6726 45.4834 45.6718 43.0516 45.67 40.6193C45.6673 37.5307 43.6678 35.8024 40.7301 35.6119C38.1509 35.4451 35.2079 36.3357 34.3808 39.0988C34.2537 39.5214 34.1902 40.1791 34.1902 41.0719C34.1911 43.2068 34.192 45.3418 34.1929 47.4767C34.1929 48.2769 34.2533 48.8887 34.3742 49.3122Z" fill="white"/>
<path d="M61.5578 53.4292C61.5442 53.4182 61.5277 53.4112 61.5102 53.4092C61.4928 53.4072 61.4752 53.4102 61.4594 53.4178C61.4435 53.4254 61.4302 53.4374 61.421 53.4523C61.4117 53.4672 61.4068 53.4844 61.407 53.502C61.448 56.5244 61.4678 59.5469 61.4242 62.572C61.4048 63.8715 61.4109 65.1714 61.4427 66.4718C61.4731 67.7501 63.1789 68.0399 64.1806 68.0201C64.2398 68.0192 64.2706 68.0483 64.2733 68.1074L64.3064 68.9834C64.3081 69.032 64.2847 69.0562 64.2362 69.0562H54.0176C53.9576 69.0562 53.9289 69.0262 53.9316 68.9662L53.9792 68.1273C53.9827 68.0629 54.0167 68.0315 54.0811 68.0333C54.8698 68.0536 55.5054 67.8974 55.988 67.5649C56.6523 67.1057 56.4763 66.4466 56.4789 65.7625C56.5169 53.5747 56.5319 43.4271 56.5239 35.3196C56.5226 34.0651 55.0061 33.7515 54.0282 33.8335C53.9699 33.8388 53.9413 33.8123 53.9422 33.7541L53.9435 32.9442C53.9435 32.8904 53.9704 32.8635 54.0242 32.8635C58.4794 32.8635 62.9341 32.8635 67.3884 32.8635C68.2785 32.8635 68.9922 32.9204 69.5295 33.0342C76.9308 34.5997 79.6648 43.4395 76.6833 49.6921C73.96 55.4062 66.9384 58.348 61.7127 53.6409C61.6891 53.6192 61.6711 53.5929 61.6597 53.5642C61.6403 53.5148 61.6064 53.4698 61.5578 53.4292ZM61.6081 49.1959C62.5371 52.753 66.2053 53.8156 69.3945 52.8919C71.8321 52.1853 72.9185 50.4305 72.9542 48.0062C72.9794 46.3481 72.9437 44.6874 72.9595 43.0332C72.9728 41.6914 73.072 40.0862 72.7465 38.9693C71.8374 35.8529 68.5436 35.2204 65.7395 35.7616C63.7135 36.1533 62.1771 37.2172 61.6227 39.23C61.5062 39.6508 61.4493 40.2644 61.452 41.0707C61.4581 42.9154 61.4529 44.7593 61.4361 46.6022C61.4255 47.8488 61.4828 48.7133 61.6081 49.1959Z" fill="white"/>
<path d="M10.0676 51.6836L14.7972 51.6611C14.8466 51.6611 14.8726 51.6858 14.8753 51.7352C15.274 58.8282 17.5232 65.1625 21.6228 70.7381C21.9422 71.173 22.7133 72.1209 23.936 73.5819C23.9475 73.5959 23.9533 73.6137 23.9523 73.6319C23.9513 73.65 23.9436 73.6671 23.9307 73.6798L20.5827 77.0225C20.5457 77.0595 20.5099 77.0587 20.4755 77.0198C14.046 69.8554 10.5577 61.4303 10.0107 51.7445C10.0081 51.7039 10.0271 51.6836 10.0676 51.6836Z" fill="white"/>
<path d="M76.0125 73.7777C75.9929 73.7582 75.9815 73.732 75.9808 73.7044C75.98 73.6767 75.99 73.6499 76.0085 73.6294C80.8616 68.3035 83.8042 62.0478 84.8364 54.8622C84.9458 54.1017 85.0538 53.0589 85.1606 51.7339C85.1619 51.7186 85.169 51.7044 85.1806 51.6942C85.1921 51.6839 85.2072 51.6782 85.2228 51.6783L89.947 51.665C89.9543 51.665 89.9615 51.6665 89.9682 51.6694C89.9749 51.6723 89.981 51.6766 89.9859 51.6819C89.9909 51.6873 89.9947 51.6936 89.9971 51.7005C89.9995 51.7074 90.0005 51.7147 89.9999 51.7219C89.4318 61.4571 85.9069 69.9175 79.4253 77.1032C79.3997 77.1323 79.3728 77.1332 79.3446 77.1058L76.0125 73.7777Z" fill="white"/>
<path d="M22.8906 79.4482C22.8809 79.4455 22.8734 79.4433 22.8681 79.4416C22.8611 79.4391 22.855 79.4346 22.8506 79.4286C22.8461 79.4225 22.8433 79.4151 22.8425 79.4071C22.8417 79.399 22.8429 79.3905 22.846 79.3824C22.8491 79.3744 22.854 79.3669 22.8602 79.3608L26.2174 76.0261C26.2774 75.9661 26.3392 75.9643 26.4027 76.0208C32.6461 81.5611 39.964 84.5721 48.3565 85.0538C48.375 85.0546 48.3843 85.0639 48.3843 85.0815V89.8931C48.3843 89.9452 48.3583 89.9694 48.3062 89.9659C38.5657 89.4366 30.1005 85.9346 22.9104 79.4601C22.9052 79.4548 22.8985 79.4508 22.8906 79.4482Z" fill="white"/>
<path d="M76.9784 79.4033C77.0269 79.4518 77.0256 79.499 76.9744 79.5449C69.7994 85.9638 61.3681 89.4384 51.6806 89.9686C51.6259 89.9713 51.5985 89.9452 51.5985 89.8905L51.5906 85.1359C51.5905 85.1176 51.5975 85.1 51.6101 85.0867C51.6226 85.0734 51.6398 85.0654 51.6581 85.0644C60.0232 84.566 67.3275 81.5691 73.5709 76.0738C73.5991 76.0491 73.626 76.05 73.6516 76.0764L76.9784 79.4033Z" fill="white"/>
</svg>
