<svg width="100" height="100" viewBox="0 0 100 100" fill="none" xmlns="http://www.w3.org/2000/svg">
<rect width="100" height="100" fill="#FFE8C5"/>
<path d="M45.6527 48.2763C45.6452 48.2697 45.6382 48.2632 45.6316 48.2566" stroke="#C3742F" stroke-width="0.28125"/>
<path d="M52.8063 24.6652C49.226 25.6149 46.3535 27.6451 44.1888 30.7557C42.5253 33.1491 41.6745 36.309 41.9276 39.1257C42.237 42.5584 43.2073 45.7252 45.6528 48.2762C45.6453 48.2696 45.6382 48.2631 45.6317 48.2565C44.9885 50.7868 44.1138 53.8613 43.0076 57.4801C40.5063 65.6635 37.984 73.8404 35.4406 82.0107C35.4359 82.0257 35.4279 82.0355 35.4167 82.0402C35.397 82.0477 35.389 82.0412 35.3928 82.0205L36.8778 73.5184C36.9237 73.2559 36.9068 73.2516 36.8271 73.5057C36.1868 75.5495 35.5413 77.6649 34.8907 79.8521C34.887 79.8652 34.8804 79.8751 34.871 79.8816C34.857 79.891 34.8513 79.8873 34.8542 79.8704L36.1381 72.8096C36.1859 72.5452 36.1709 72.542 36.0931 72.7998L33.0696 82.7448C33.0612 82.771 33.0518 82.7715 33.0415 82.7462C33.0368 82.734 33.0359 82.7218 33.0387 82.7096C33.4728 80.7099 33.9068 78.758 34.3409 76.854C34.3924 76.628 34.3751 76.6229 34.2888 76.8385C33.8988 77.8126 33.5262 78.7941 33.1709 79.7832C33.1688 79.7908 33.1638 79.7974 33.157 79.8013C33.1501 79.8053 33.142 79.8063 33.1343 79.8043C33.1267 79.8022 33.1202 79.7972 33.1162 79.7904C33.1122 79.7835 33.1112 79.7754 33.1132 79.7677C35.9857 63.0437 38.8587 46.3229 41.7321 29.6054C41.9599 28.2807 42.1442 27.3615 42.2848 26.8477C42.9513 24.4135 44.3281 21.4843 46.422 19.943C47.8113 18.9193 49.9235 18.4805 51.2243 19.9135C52.3113 21.1102 52.7515 23.0888 52.8063 24.6652Z" fill="#9DCB3A"/>
<path d="M68.8336 36.2455C68.7407 35.7655 68.6526 35.2715 68.5692 34.7634C68.4665 34.1474 68.0798 33.644 67.9209 33.0126C67.2965 30.5263 64.6964 28.2074 62.5786 26.9404C60.2653 25.558 57.1434 25.0855 54.5081 25.3837C53.7065 25.4751 52.8923 25.7676 52.1006 26.0221C48.1054 27.3032 44.7361 30.7527 43.7868 34.8998C43.5407 35.977 43.3481 37.2355 43.4521 38.3071C43.8206 42.1124 44.9737 45.1612 47.9564 47.5855C50.0995 49.3293 51.846 49.8806 54.5643 50.159C55.1915 50.2227 55.7732 50.3751 56.3095 50.616L56.0718 51.6285C56.0618 51.6711 56.0369 51.7086 56.0015 51.734C55.9012 51.8043 55.8703 51.8995 55.9087 52.0195C55.9218 52.0616 55.9148 52.0996 55.8876 52.1334C55.8304 52.2046 55.8075 52.2885 55.8187 52.3851C55.8205 52.4018 55.8185 52.4186 55.8129 52.4344C55.8073 52.4503 55.7982 52.4646 55.7864 52.4765C55.0945 53.1627 54.7921 52.6227 54.1382 52.4526C52.4273 52.0063 51.3515 51.6834 50.9109 51.4837C50.2387 51.1785 49.6776 50.7046 49.0068 50.4487C48.1265 50.114 47.3151 49.207 46.1845 48.0074C46.1517 47.9727 46.1114 47.9596 46.0635 47.9681C45.8732 48.0037 45.7364 48.1063 45.6529 48.276C43.2075 45.7251 42.2371 42.5582 41.9278 39.1255C41.6746 36.3088 42.5254 33.149 44.189 30.7555C46.3537 27.6449 49.2262 25.6148 52.8065 24.6651C60.3482 23.0971 67.3148 27.3004 69.2934 34.7184C70.4142 38.9188 69.3229 43.6621 66.5315 46.9766C64.5459 49.3335 61.9959 50.8565 58.8815 51.5455C58.7587 51.5727 58.7175 51.5446 58.7578 51.4612C58.7644 51.4469 58.7758 51.4353 58.7902 51.4284C58.8045 51.4215 58.8208 51.4197 58.8365 51.4232C58.9603 51.4513 59.0371 51.3979 59.0671 51.2629C59.0775 51.2198 59.1037 51.1926 59.1459 51.1813C63.1523 50.1168 66.4064 47.7107 68.1712 43.8604C69.1809 41.661 69.6056 39.442 69.3834 37.0105C69.3721 36.8934 69.3586 36.7977 69.3426 36.7237C69.3411 36.7114 69.3348 36.7002 69.325 36.6925C69.3153 36.6849 69.3029 36.6814 69.2906 36.6829C69.2783 36.6844 69.2671 36.6907 69.2594 36.7005C69.2518 36.7102 69.2483 36.7226 69.2498 36.7349C69.3271 38.7445 69.1781 40.5895 68.5157 42.4879C67.2459 46.1315 64.3181 49.1634 60.6126 50.3671C60.1026 50.5321 59.595 50.6995 59.0896 50.8691C59.0475 50.8832 59.0385 50.872 59.0629 50.8354C59.0704 50.8241 59.0784 50.8134 59.0868 50.803C59.0943 50.7937 59.1051 50.7871 59.1192 50.7834C62.1482 49.7751 64.5037 48.6205 66.4612 45.9838C68.4018 43.3691 69.2582 40.3438 69.0304 36.9079C69.0098 36.591 68.9442 36.3702 68.8336 36.2455Z" fill="#EF5223"/>
<path d="M68.8334 36.2457C69.5365 41.7301 66.7985 47.2412 61.7079 49.5559C60.9232 49.9131 59.9023 50.1985 59.0051 50.5037C59.0021 50.5046 58.9989 50.5047 58.9959 50.504C58.9929 50.5033 58.9901 50.5019 58.9879 50.4998C58.9857 50.4978 58.9842 50.4952 58.9835 50.4924C58.9828 50.4896 58.983 50.4867 58.984 50.484C58.9887 50.47 58.9938 50.4554 58.9994 50.4404C59.0013 50.432 59.0065 50.4264 59.0149 50.4235C61.0441 49.7092 62.6163 49.2001 64.1632 47.9064C66.5998 45.871 68.0871 43.2587 68.6252 40.0693C68.9262 38.289 68.8301 36.5612 68.3369 34.8859C68.3304 34.8653 68.3168 34.8582 68.2962 34.8648C68.2737 34.8732 68.2638 34.885 68.2666 34.9C68.5901 36.2884 68.6899 37.6946 68.5662 39.1187C68.554 39.0381 68.5062 38.9832 68.4227 38.9542C68.4165 38.9523 68.4099 38.9518 68.4035 38.9527C68.3971 38.9537 68.3909 38.9561 68.3855 38.9597C68.3801 38.9633 68.3756 38.9682 68.3723 38.9738C68.369 38.9794 68.367 38.9857 68.3665 38.9921C68.3093 39.6981 68.1499 40.3871 67.8884 41.0593C67.849 41.0481 67.8077 41.0448 67.7646 41.0495C68.1677 39.421 68.2151 37.7917 67.9066 36.1614C67.8532 35.8787 67.8307 35.5918 67.7548 35.3275C66.9541 32.5384 65.3754 30.2931 63.0185 28.5915C58.8096 25.554 52.8387 25.8648 48.9391 29.1892C46.7552 31.0496 45.1001 34.1167 44.9384 36.9981C44.7119 41.0298 46.5696 44.8435 50.0149 46.9979C50.8174 47.4995 51.6382 47.8412 52.4773 48.0231C53.8652 48.324 55.3235 47.7798 56.3107 49.1509C56.6463 49.6178 56.6459 50.1062 56.3093 50.6162C55.773 50.3753 55.1913 50.2229 54.5641 50.1592C51.8459 49.8807 50.0993 49.3295 47.9562 47.5857C44.9735 45.1614 43.8204 42.1126 43.4519 38.3073C43.3479 37.2357 43.5405 35.9771 43.7866 34.9C44.7359 30.7529 48.1052 27.3034 52.1004 26.0223C52.8921 25.7678 53.7063 25.4753 54.5079 25.3839C57.1432 25.0857 60.2651 25.5582 62.5784 26.9406C64.6962 28.2076 67.2963 30.5265 67.9207 33.0128C68.0796 33.6442 68.4663 34.1476 68.569 34.7635C68.6524 35.2717 68.7405 35.7657 68.8334 36.2457Z" fill="#F44023"/>
<path d="M67.7647 41.0494C66.5202 45.309 62.8513 48.954 58.34 49.5305C58.3383 49.5302 58.3368 49.5294 58.3356 49.5282C58.3344 49.527 58.3336 49.5254 58.3333 49.5237C58.333 49.5221 58.3332 49.5203 58.3339 49.5188C58.3346 49.5172 58.3358 49.5159 58.3372 49.515C59.4369 49.1846 60.6364 48.8443 61.5969 48.3352C63.0125 47.5852 64.2135 46.5629 65.1997 45.2682C65.2297 45.2288 65.2222 45.2194 65.1772 45.24C65.0656 45.2925 64.9888 45.3432 64.9466 45.3919C63.5891 46.9416 61.9283 47.9991 59.9642 48.5644C59.4383 48.7163 58.7464 48.7768 58.1459 48.9272C58.1234 48.9329 58.1066 48.931 58.0953 48.9216C58.0709 48.901 58.0784 48.886 58.1178 48.8766C59.967 48.4618 61.483 48.0863 62.9666 46.9599C70.9386 40.9074 67.3597 28.0585 57.087 27.9643C56.4416 27.9586 55.7919 27.9066 55.1788 28.0219C52.8599 28.455 50.4552 29.7277 48.9392 31.5235C48.6036 31.7391 48.3603 32.033 48.2094 32.4052C47.0731 34.239 46.5791 36.2068 46.7272 38.3086C46.9761 41.8482 49.1066 45.6071 52.6953 46.7827C53.435 47.0246 54.6374 47.019 55.3813 47.4338C56.3797 47.9907 57.028 49.2015 56.6174 50.37C56.4449 50.8613 56.3338 51.3661 56.2841 51.8846C56.1772 52.9758 55.4924 53.2543 54.5094 52.9491C53.2616 52.5638 52.4422 52.3154 52.0513 52.2038C49.5284 51.4819 47.3886 50.1661 45.6317 48.2565C45.6383 48.263 45.6453 48.2696 45.6528 48.2761C45.7363 48.1065 45.8731 48.0038 46.0634 47.9682C46.1113 47.9597 46.1516 47.9729 46.1844 48.0075C47.315 49.2071 48.1264 50.1141 49.0067 50.4488C49.6775 50.7047 50.2386 51.1786 50.9108 51.4838C51.3514 51.6835 52.4272 52.0065 54.1381 52.4527C54.792 52.6229 55.0944 53.1629 55.7863 52.4766C55.7981 52.4647 55.8072 52.4504 55.8128 52.4346C55.8184 52.4188 55.8204 52.4019 55.8186 52.3852C55.8074 52.2886 55.8303 52.2047 55.8875 52.1335C55.9147 52.0997 55.9217 52.0618 55.9086 52.0196C55.8702 51.8996 55.9011 51.8044 56.0014 51.7341C56.0368 51.7087 56.0617 51.6712 56.0717 51.6286L56.3094 50.6161C56.6459 50.1061 56.6464 49.6177 56.3108 49.1508C55.3236 47.7797 53.8653 48.324 52.4774 48.023C51.6383 47.8411 50.8175 47.4994 50.015 46.9979C46.5697 44.8435 44.712 41.0297 44.9384 36.998C45.1002 34.1166 46.7553 31.0496 48.9392 29.1891C52.8388 25.8647 58.8097 25.554 63.0186 28.5915C65.3755 30.293 66.9542 32.5383 67.7549 35.3274C67.8308 35.5918 67.8533 35.8786 67.9067 36.1613C68.2152 37.7916 68.1678 39.421 67.7647 41.0494Z" fill="#E91D23"/>
<path d="M38.6764 28.6379C39.9027 28.3398 40.2627 30.4154 38.7088 30.4675C38.6989 30.4676 38.689 30.4659 38.6798 30.4623C38.6706 30.4587 38.6622 30.4533 38.6552 30.4465C38.6481 30.4397 38.6425 30.4316 38.6386 30.4226C38.6348 30.4137 38.6328 30.404 38.6328 30.3943V30.1553C38.6328 30.1404 38.6358 30.1258 38.6417 30.1121C38.6476 30.0985 38.6562 30.0863 38.667 30.0761C38.6778 30.0659 38.6906 30.0581 38.7045 30.0531C38.7185 30.0481 38.7333 30.046 38.7481 30.047C39.4724 30.0948 39.6622 29.192 38.983 29.0598C38.2588 28.9192 38.3446 30.2185 37.4741 30.0962C36.373 29.9415 36.5235 28.4382 37.543 28.465C37.6058 28.4668 37.6311 28.4987 37.6189 28.5606L37.5852 28.7476C37.5739 28.8076 37.5378 28.84 37.4769 28.8446C37.1267 28.8728 36.9608 29.289 37.1521 29.552C37.3166 29.7798 37.7553 29.7517 37.8903 29.5168C38.1167 29.1231 38.2138 28.7504 38.6764 28.6379Z" fill="#201F20"/>
<path d="M37.3236 33.6679C37.0269 33.3332 36.1691 32.6442 36.2872 32.1801C36.2896 32.1707 36.2944 32.1621 36.3012 32.1552C36.308 32.1483 36.3165 32.1434 36.3257 32.1409C36.335 32.1385 36.3447 32.1386 36.3537 32.1413C36.3628 32.144 36.3709 32.1491 36.3772 32.1562L37.3799 33.2489C37.4057 33.2772 37.4405 33.2959 37.4786 33.3018C37.5167 33.3077 37.5558 33.3004 37.5894 33.2812L39.1025 32.4037C39.1569 32.3718 39.1874 32.3873 39.1939 32.4501C39.2136 32.6371 39.1405 32.7848 38.9675 32.8846C38.4978 33.1546 38.0314 33.4317 37.5683 33.7157C37.5186 33.7457 37.5224 33.7664 37.5795 33.7776L38.7988 34.004C38.844 34.0136 38.8838 34.0404 38.9097 34.0788C38.9356 34.1172 38.9455 34.1641 38.9375 34.2097C38.9295 34.2552 38.9041 34.2959 38.8667 34.3231C38.8292 34.3504 38.7827 34.362 38.7369 34.3556L35.2227 33.772C35.1859 33.7657 35.1525 33.7466 35.1285 33.718C35.1045 33.6895 35.0914 33.6533 35.0916 33.616C35.0917 33.5787 35.1051 33.5426 35.1294 33.5143C35.1537 33.4859 35.1872 33.4671 35.2241 33.4612C35.7669 33.381 36.7105 33.6665 37.2884 33.7368C37.3606 33.7453 37.3724 33.7223 37.3236 33.6679Z" fill="#201F20"/>
<path d="M35.8823 38.4506C36.6993 39.5587 38.5964 38.684 37.8553 37.2384C37.8328 37.1934 37.8009 37.1573 37.7596 37.1301C37.5871 37.0148 37.5365 36.8577 37.6078 36.659C37.6256 36.6084 37.6579 36.5962 37.7048 36.6224C39.4289 37.5688 37.664 40.2717 35.9878 39.0538C34.9331 38.2888 35.1946 36.7884 36.4026 36.3932C36.4198 36.3875 36.4382 36.3866 36.4558 36.3907C36.4734 36.3948 36.4896 36.4036 36.5025 36.4162C36.5154 36.4289 36.5246 36.4448 36.5291 36.4623C36.5335 36.4799 36.5331 36.4983 36.5278 36.5156L36.4757 36.6871C36.4696 36.7083 36.4589 36.7278 36.4446 36.7443C36.4303 36.7608 36.4126 36.7739 36.3928 36.7827C35.729 37.0879 35.4281 37.836 35.8823 38.4506Z" fill="#201F20"/>
<path d="M68.5662 39.1186C68.2357 42.7959 66.4301 45.8728 63.4967 48.0511C61.902 49.2338 60.2215 49.695 58.3301 50.1689C58.2392 50.1924 58.1445 50.1994 58.046 50.19C58.0076 50.1863 58.0071 50.1797 58.0446 50.1703C59.2371 49.8656 60.1413 49.5975 60.7573 49.366C64.512 47.9541 66.7971 44.8252 67.8884 41.0592C68.1499 40.387 68.3093 39.698 68.3665 38.992C68.3671 38.9856 68.369 38.9793 68.3723 38.9737C68.3756 38.9681 68.3801 38.9633 68.3855 38.9596C68.3909 38.956 68.3971 38.9536 68.4035 38.9526C68.41 38.9517 68.4165 38.9522 68.4227 38.9541C68.5062 38.9831 68.554 39.038 68.5662 39.1186Z" fill="#E91D23"/>
<path d="M37.5782 42.9918C37.5597 43.1882 37.5015 43.3788 37.4071 43.5529C37.3127 43.727 37.1839 43.8812 37.028 44.0065C36.8722 44.1319 36.6923 44.226 36.4987 44.2835C36.3051 44.341 36.1015 44.3608 35.8997 44.3417C35.492 44.3032 35.1159 44.1087 34.8541 43.801C34.5923 43.4934 34.4663 43.0977 34.5038 42.7012C34.5224 42.5048 34.5805 42.3142 34.6749 42.1401C34.7693 41.9659 34.8981 41.8118 35.054 41.6865C35.2099 41.5611 35.3897 41.467 35.5833 41.4095C35.7769 41.352 35.9805 41.3322 36.1824 41.3513C36.5901 41.3898 36.9662 41.5843 37.2279 41.892C37.4897 42.1996 37.6157 42.5952 37.5782 42.9918ZM37.1868 43.0794C37.2444 42.7916 37.1782 42.4913 37.0029 42.2446C36.8277 41.9979 36.5576 41.8251 36.2522 41.764C35.9469 41.703 35.6311 41.7588 35.3745 41.9192C35.1179 42.0796 34.9415 42.3314 34.8839 42.6192C34.8264 42.907 34.8926 43.2073 35.0679 43.454C35.2431 43.7007 35.5131 43.8735 35.8185 43.9346C36.1239 43.9956 36.4396 43.9398 36.6962 43.7794C36.9529 43.619 37.1293 43.3672 37.1868 43.0794Z" fill="#201F20"/>
<path d="M34.1749 46.6644L33.9724 46.1877C33.9452 46.1221 33.9668 46.0841 34.0371 46.0738L34.286 46.0358C34.3498 46.0255 34.3835 46.0527 34.3873 46.1174C34.4393 47.0694 35.937 46.9991 36.6288 47.0975C36.7985 47.1219 36.8524 47.2349 36.7906 47.4364C36.7737 47.4889 36.7381 47.511 36.6837 47.5025L33.9724 47.061C33.9554 47.0581 33.9393 47.0516 33.9252 47.0417C33.911 47.0319 33.8992 47.0191 33.8906 47.0042C33.882 46.9892 33.8768 46.9726 33.8754 46.9554C33.874 46.9383 33.8764 46.921 33.8824 46.9049L33.9415 46.746C33.964 46.686 34.0024 46.6724 34.0568 46.7052L34.099 46.7305C34.1086 46.7359 34.1197 46.7382 34.1306 46.7371C34.1416 46.736 34.1519 46.7315 34.1603 46.7242C34.1686 46.717 34.1745 46.7074 34.1771 46.6966C34.1797 46.6859 34.179 46.6747 34.1749 46.6644Z" fill="#201F20"/>
<path d="M34.746 52.0827C35.6109 52.1137 36.1875 51.2362 35.781 50.4683C35.6629 50.2462 35.324 50.1196 35.4703 49.7427C35.4853 49.7024 35.511 49.6935 35.5476 49.716C36.951 50.564 36.134 52.6269 34.566 52.4512C32.5635 52.2276 32.8279 49.2112 34.9739 49.4868C35.047 49.4962 35.0779 49.5374 35.0667 49.6105L34.6814 52.004C34.6739 52.0546 34.6954 52.0808 34.746 52.0827ZM34.3607 51.966L34.6814 49.8932C34.6818 49.8911 34.6818 49.8891 34.6813 49.887C34.6809 49.885 34.6801 49.8831 34.6789 49.8814C34.6777 49.8797 34.6762 49.8782 34.6745 49.8771C34.6727 49.876 34.6707 49.8752 34.6687 49.8749H34.6645C34.4192 49.8371 34.167 49.91 33.9635 50.0777C33.7599 50.2454 33.6216 50.4942 33.5789 50.7693L33.5732 50.7974C33.5521 50.9337 33.5552 51.0724 33.5822 51.2056C33.6093 51.3387 33.6597 51.4637 33.7308 51.5734C33.8018 51.6831 33.892 51.7753 33.9963 51.8449C34.1005 51.9144 34.2167 51.9599 34.3382 51.9786H34.3425C34.3445 51.9791 34.3466 51.979 34.3486 51.9786C34.3506 51.9782 34.3526 51.9774 34.3543 51.9762C34.356 51.975 34.3574 51.9735 34.3585 51.9718C34.3596 51.97 34.3604 51.968 34.3607 51.966Z" fill="#201F20"/>
<path d="M34.8669 57.2395L36.0172 57.4477C36.0856 57.4608 36.1119 57.5011 36.0959 57.5686L36.058 57.7275C36.042 57.7931 36.0008 57.8203 35.9342 57.8091L32.3708 57.2184C32.326 57.213 32.2851 57.1905 32.2566 57.1556C32.2281 57.1207 32.2142 57.0762 32.2179 57.0312C32.2215 56.9863 32.2424 56.9446 32.2761 56.9147C32.3099 56.8849 32.3539 56.8692 32.3989 56.8711H32.6155C32.6511 56.8711 32.6605 56.8552 32.6436 56.8233C32.1233 55.8291 32.51 54.69 33.6462 54.5198C35.2409 54.2808 36.1128 56.0864 34.8486 57.1692C34.8055 57.2058 34.8115 57.2292 34.8669 57.2395ZM35.0813 56.0983C35.0963 55.9556 35.0812 55.8111 35.0369 55.6732C34.9927 55.5352 34.9201 55.4065 34.8233 55.2943C34.7265 55.1821 34.6074 55.0887 34.4728 55.0193C34.3382 54.9499 34.1908 54.906 34.0389 54.8901C33.7321 54.8578 33.4259 54.9414 33.1876 55.1224C32.9493 55.3034 32.7984 55.5669 32.7681 55.8551C32.7531 55.9979 32.7681 56.1423 32.8124 56.2803C32.8567 56.4182 32.9293 56.547 33.0261 56.6591C33.1229 56.7713 33.242 56.8648 33.3765 56.9341C33.5111 57.0035 33.6586 57.0474 33.8105 57.0634C34.1172 57.0956 34.4234 57.0121 34.6617 56.8311C34.9001 56.6501 35.051 56.3865 35.0813 56.0983Z" fill="#201F20"/>
<path d="M34.3073 60.3756C35.5364 62.1291 32.797 63.7562 31.762 61.9956C31.3711 61.3332 31.5018 60.5316 32.1304 60.062C32.1456 60.0515 32.1566 60.036 32.1614 60.0182C32.1661 60.0003 32.1644 59.9814 32.1564 59.9648C32.1484 59.9481 32.1347 59.9349 32.1179 59.9274C32.101 59.92 32.082 59.9188 32.0643 59.9241C31.9247 59.9616 31.8248 59.904 31.7648 59.7512C31.7552 59.7265 31.7523 59.6998 31.7564 59.6737C31.7605 59.6475 31.7715 59.623 31.7883 59.6025C31.805 59.5821 31.8269 59.5664 31.8517 59.5572C31.8765 59.548 31.9033 59.5455 31.9293 59.5501L34.6603 59.9987C34.7212 60.009 34.7461 60.0446 34.7348 60.1056L34.6997 60.2954C34.6893 60.3545 34.6547 60.3774 34.5956 60.3643L34.3495 60.3123C34.282 60.2982 34.2679 60.3193 34.3073 60.3756ZM34.2209 61.4191C34.2668 61.1326 34.1895 60.8384 34.0061 60.6013C33.8227 60.3641 33.5481 60.2034 33.2428 60.1545C33.0917 60.1303 32.9375 60.1342 32.7892 60.1661C32.6408 60.1981 32.5012 60.2573 32.3782 60.3405C32.2552 60.4237 32.1514 60.5292 32.0725 60.651C31.9937 60.7728 31.9414 60.9085 31.9187 61.0504C31.8728 61.3369 31.9501 61.6311 32.1335 61.8683C32.3169 62.1055 32.5915 62.2662 32.8968 62.3151C33.0479 62.3393 33.2021 62.3353 33.3505 62.3034C33.4988 62.2715 33.6385 62.2122 33.7614 62.129C33.8844 62.0458 33.9882 61.9403 34.0671 61.8185C34.1459 61.6967 34.1982 61.561 34.2209 61.4191Z" fill="#201F20"/>
<path d="M33.1849 67.5219L34.383 67.7343C34.4308 67.7427 34.4505 67.7708 34.4421 67.8186L34.4069 68.0155C34.3966 68.0718 34.3633 68.0952 34.3071 68.0858L30.7169 67.5022C30.693 67.4984 30.6702 67.4893 30.6502 67.4755C30.6302 67.4617 30.6135 67.4437 30.6014 67.4227C30.5893 67.4017 30.582 67.3782 30.5801 67.354C30.5782 67.3298 30.5817 67.3055 30.5904 67.2829C30.6513 67.1244 30.7746 67.0921 30.9602 67.1858C30.9688 67.1898 30.9784 67.1908 30.9876 67.1889C30.9969 67.1869 31.0052 67.1819 31.0114 67.1748C31.0176 67.1677 31.0213 67.1587 31.0219 67.1493C31.0226 67.1399 31.0202 67.1305 31.0151 67.1225C30.2346 66.0088 31.1233 64.6124 32.4804 64.7924C33.874 64.9752 34.2143 66.5755 33.1708 67.4699C33.139 67.4971 33.1436 67.5144 33.1849 67.5219ZM33.4232 66.3627C33.45 66.0734 33.3533 65.7846 33.1543 65.5598C32.9554 65.335 32.6704 65.1927 32.3622 65.1641C32.2096 65.1499 32.0558 65.1641 31.9097 65.2059C31.7636 65.2476 31.6281 65.3161 31.5107 65.4074C31.3934 65.4986 31.2967 65.6109 31.226 65.7379C31.1553 65.8648 31.1121 66.0038 31.0988 66.1471C31.072 66.4364 31.1687 66.7252 31.3676 66.95C31.5666 67.1747 31.8516 67.3171 32.1598 67.3457C32.3124 67.3598 32.4662 67.3456 32.6123 67.3039C32.7583 67.2622 32.8939 67.1937 33.0112 67.1024C33.1285 67.0112 33.2253 66.8989 33.296 66.7719C33.3667 66.645 33.4099 66.506 33.4232 66.3627Z" fill="#201F20"/>
</svg>
