<svg width="100" height="100" viewBox="0 0 100 100" fill="none" xmlns="http://www.w3.org/2000/svg">
<rect width="100" height="100" fill="#595C62"/>
<path d="M19.0225 58V40.8203H24.5889C26.6983 40.8203 28.0733 40.9062 28.7139 41.0781C29.6983 41.3359 30.5225 41.8984 31.1866 42.7656C31.8506 43.625 32.1827 44.7383 32.1827 46.1055C32.1827 47.1602 31.9912 48.0469 31.6084 48.7656C31.2256 49.4844 30.7373 50.0508 30.1436 50.4648C29.5577 50.8711 28.96 51.1406 28.3506 51.2734C27.5225 51.4375 26.3233 51.5195 24.753 51.5195H22.4912V58H19.0225ZM22.4912 43.7266V48.6016H24.3897C25.7569 48.6016 26.6709 48.5117 27.1319 48.332C27.5928 48.1523 27.9522 47.8711 28.21 47.4883C28.4756 47.1055 28.6084 46.6602 28.6084 46.1523C28.6084 45.5273 28.4248 45.0117 28.0577 44.6055C27.6905 44.1992 27.2256 43.9453 26.6631 43.8438C26.2491 43.7656 25.417 43.7266 24.167 43.7266H22.4912ZM35.402 58V40.8203H42.7028C44.5387 40.8203 45.8708 40.9766 46.6989 41.2891C47.5348 41.5938 48.2028 42.1406 48.7028 42.9297C49.2028 43.7188 49.4528 44.6211 49.4528 45.6367C49.4528 46.9258 49.0739 47.9922 48.3161 48.8359C47.5583 49.6719 46.4255 50.1992 44.9177 50.418C45.6677 50.8555 46.2848 51.3359 46.7692 51.8594C47.2614 52.3828 47.9216 53.3125 48.7497 54.6484L50.8473 58H46.6989L44.1911 54.2617C43.3005 52.9258 42.6911 52.0859 42.363 51.7422C42.0348 51.3906 41.6872 51.1523 41.32 51.0273C40.9528 50.8945 40.3708 50.8281 39.5739 50.8281H38.8708V58H35.402ZM38.8708 48.0859H41.4372C43.1012 48.0859 44.1403 48.0156 44.5544 47.875C44.9684 47.7344 45.2927 47.4922 45.527 47.1484C45.7614 46.8047 45.8786 46.375 45.8786 45.8594C45.8786 45.2812 45.7223 44.8164 45.4098 44.4648C45.1052 44.1055 44.6716 43.8789 44.1091 43.7852C43.8278 43.7461 42.9841 43.7266 41.5778 43.7266H38.8708V48.0859ZM53.0823 40.8203H59.4222C60.8519 40.8203 61.9417 40.9297 62.6917 41.1484C63.6995 41.4453 64.5628 41.9727 65.2816 42.7305C66.0003 43.4883 66.5472 44.418 66.9222 45.5195C67.2972 46.6133 67.4847 47.9648 67.4847 49.5742C67.4847 50.9883 67.3089 52.207 66.9573 53.2305C66.5277 54.4805 65.9144 55.4922 65.1175 56.2656C64.5159 56.8516 63.7034 57.3086 62.68 57.6367C61.9144 57.8789 60.8909 58 59.6097 58H53.0823V40.8203ZM56.5511 43.7266V55.1055H59.1409C60.1097 55.1055 60.8089 55.0508 61.2386 54.9414C61.8011 54.8008 62.2659 54.5625 62.6331 54.2266C63.0081 53.8906 63.3128 53.3398 63.5472 52.5742C63.7816 51.8008 63.8988 50.75 63.8988 49.4219C63.8988 48.0938 63.7816 47.0742 63.5472 46.3633C63.3128 45.6523 62.9847 45.0977 62.5628 44.6992C62.1409 44.3008 61.6058 44.0312 60.9573 43.8906C60.473 43.7812 59.5238 43.7266 58.1097 43.7266H56.5511ZM74.665 58V43.7266H69.5673V40.8203H83.2197V43.7266H78.1338V58H74.665Z" fill="#F8F8F8"/>
</svg>
