<svg width="100" height="100" viewBox="0 0 100 100" fill="none" xmlns="http://www.w3.org/2000/svg">
<rect width="100" height="100" fill="#5B3B18"/>
<path d="M33.6279 44.2559C42.733 49.0259 54.538 55.806 54.418 68.6535C54.413 69.1635 54.288 69.196 54.043 68.751C49.513 60.4485 42.0805 56.601 33.6879 53.181C26.7429 50.3534 22.2954 47.1209 19.4904 40.3334C16.3029 32.6084 18.8454 22.3109 23.4879 15.7259C24.2229 14.6859 24.3679 14.7634 23.9229 15.9584C19.6479 27.3509 22.4154 38.3834 33.6279 44.2559Z" fill="#D1A16C"/>
<path d="M50.4282 27.7033L49.2357 26.6158C49.1146 26.5043 49.0173 26.3695 48.9496 26.2194C48.8819 26.0694 48.8452 25.9072 48.8417 25.7426C48.8382 25.578 48.8679 25.4144 48.9292 25.2616C48.9905 25.1088 49.082 24.9699 49.1982 24.8533C50.9082 23.1508 53.1432 24.8308 51.9282 26.9083C51.8182 27.0883 51.8032 27.2758 51.8832 27.4708C53.9907 32.6834 60.9508 31.1834 61.0258 25.4908C61.0308 25.2658 60.9208 25.1408 60.6958 25.1158C57.4258 24.7483 56.8333 21.0358 60.1483 20.2633C60.4233 20.1983 60.5183 20.0333 60.4333 19.7683C59.3608 16.4608 63.3358 14.9008 64.9408 17.9608C64.9954 18.0675 65.0276 18.1844 65.0353 18.3043C65.0431 18.4243 65.0262 18.5447 64.9858 18.6583C64.5708 19.8633 64.9333 20.5283 66.0733 20.6533C66.3433 20.6833 66.5483 20.8158 66.6883 21.0508C67.6983 22.7458 67.3133 24.0483 65.5333 24.9583C65.3501 25.055 65.136 25.0791 64.9333 25.0258C64.2483 24.8508 63.9283 25.0733 63.9733 25.6933C64.3483 31.1009 71.3533 32.7509 73.2208 27.4558C73.3108 27.2058 73.2983 26.9633 73.1833 26.7283C72.7833 25.9183 72.9058 25.1733 73.5508 24.4933C73.7109 24.3243 73.9091 24.1959 74.1287 24.1189C74.3484 24.0419 74.5831 24.0186 74.8131 24.0509C75.0431 24.0832 75.2617 24.1703 75.4506 24.3047C75.6394 24.4391 75.7929 24.617 75.8983 24.8233C76.4733 25.9383 76.1783 26.7858 75.0133 27.3658C74.8105 27.4672 74.631 27.6096 74.4861 27.7842C74.3412 27.9587 74.2341 28.1616 74.1713 28.3799C74.1087 28.5983 74.0918 28.8276 74.1218 29.0532C74.1518 29.2788 74.2281 29.4959 74.3458 29.6909C76.0308 32.4859 78.1233 33.0909 80.6233 31.5059C82.1683 30.5234 81.2908 28.6408 82.1083 27.5383C82.3933 27.1583 82.7658 26.9883 83.2258 27.0283C83.4423 27.0457 83.6511 27.1164 83.8337 27.2343C84.0162 27.3523 84.1668 27.5137 84.2722 27.7044C84.3775 27.895 84.4343 28.109 84.4376 28.3273C84.4408 28.5456 84.3904 28.7615 84.2908 28.9558L79.0108 39.3209C78.9058 39.5259 78.7408 39.6259 78.5158 39.6209L46.6482 39.5159C46.5202 39.5162 46.3946 39.4806 46.2858 39.4129C46.1771 39.3453 46.0895 39.2484 46.0332 39.1334L40.7457 28.7233C40.6732 28.5819 40.634 28.4257 40.631 28.2668C40.6281 28.1078 40.6616 27.9503 40.7289 27.8063C40.7962 27.6622 40.8956 27.5355 41.0194 27.4358C41.1432 27.336 41.2882 27.2659 41.4432 27.2308L42.3282 27.0208C42.6682 26.9458 42.8932 27.0733 43.0032 27.4033C43.2807 28.2208 43.1382 29.0384 43.4232 29.8184C45.0207 34.1909 51.0207 32.5709 50.7207 28.3033C50.7007 28.0633 50.6032 27.8633 50.4282 27.7033Z" fill="#D1A16C"/>
<path d="M76.7608 40.7458H48.3808C47.3701 40.7458 46.5508 41.5652 46.5508 42.5759V42.6359C46.5508 43.6465 47.3701 44.4659 48.3808 44.4659H76.7608C77.7715 44.4659 78.5908 43.6465 78.5908 42.6359V42.5759C78.5908 41.5652 77.7715 40.7458 76.7608 40.7458Z" fill="#D1A16C"/>
<path d="M30.1783 60.3286C39.0733 62.3011 48.7333 65.2861 51.4558 75.5911C51.4656 75.6273 51.4628 75.6657 51.4478 75.7001C51.4329 75.7345 51.4066 75.7628 51.3734 75.7803C51.3402 75.7977 51.3021 75.8034 51.2652 75.7962C51.2284 75.7891 51.1951 75.7697 51.1708 75.7411C45.8083 69.4636 38.7508 68.5861 31.7608 66.9436C23.0508 64.8886 17.7983 59.3486 16.0033 50.3235C15.9923 50.2448 16.009 50.1647 16.0503 50.0968C16.0917 50.0288 16.1552 49.9773 16.2302 49.9508C16.3052 49.9244 16.387 49.9246 16.4618 49.9515C16.5366 49.9784 16.5998 50.0304 16.6408 50.0985C19.5883 55.6786 24.0283 58.9711 30.1783 60.3286Z" fill="#D1A16C"/>
<path d="M66.1855 62.1134C61.108 76.6484 56.968 88.2134 38.0305 84.2159C38.0229 84.2159 38.0156 84.2145 38.009 84.2117C38.0024 84.2088 37.9967 84.2047 37.992 84.1995C37.9874 84.1942 37.984 84.188 37.982 84.1812C37.98 84.1744 37.9795 84.1671 37.9805 84.1597C37.9815 84.1523 37.9839 84.145 37.9877 84.1382C37.9915 84.1313 37.9966 84.1251 38.0026 84.1199C38.0087 84.1147 38.0155 84.1105 38.0229 84.1077C38.0303 84.1049 38.0379 84.1034 38.0455 84.1034C61.3855 84.1634 53.998 55.5584 74.488 52.9784C74.553 52.9684 74.5555 52.9759 74.4955 53.0009C70.4555 54.7859 67.6855 57.8234 66.1855 62.1134Z" fill="#D1A16C"/>
</svg>
