<svg width="100" height="100" viewBox="0 0 100 100" fill="none" xmlns="http://www.w3.org/2000/svg">
<rect width="100" height="100" fill="#595C62"/>
<path d="M17.0186 58V40.8203H22.585C24.6944 40.8203 26.0694 40.9062 26.71 41.0781C27.6944 41.3359 28.5186 41.8984 29.1827 42.7656C29.8467 43.625 30.1787 44.7383 30.1787 46.1055C30.1787 47.1602 29.9873 48.0469 29.6045 48.7656C29.2217 49.4844 28.7334 50.0508 28.1397 50.4648C27.5537 50.8711 26.9561 51.1406 26.3467 51.2734C25.5186 51.4375 24.3194 51.5195 22.7491 51.5195H20.4873V58H17.0186ZM20.4873 43.7266V48.6016H22.3858C23.753 48.6016 24.667 48.5117 25.128 48.332C25.5889 48.1523 25.9483 47.8711 26.2061 47.4883C26.4717 47.1055 26.6045 46.6602 26.6045 46.1523C26.6045 45.5273 26.4209 45.0117 26.0537 44.6055C25.6866 44.1992 25.2217 43.9453 24.6592 43.8438C24.2452 43.7656 23.4131 43.7266 22.1631 43.7266H20.4873ZM33.3981 58V40.8203H40.6989C42.5348 40.8203 43.8669 40.9766 44.695 41.2891C45.5309 41.5938 46.1989 42.1406 46.6989 42.9297C47.1989 43.7188 47.4489 44.6211 47.4489 45.6367C47.4489 46.9258 47.07 47.9922 46.3122 48.8359C45.5544 49.6719 44.4216 50.1992 42.9137 50.418C43.6637 50.8555 44.2809 51.3359 44.7653 51.8594C45.2575 52.3828 45.9177 53.3125 46.7458 54.6484L48.8434 58H44.695L42.1872 54.2617C41.2966 52.9258 40.6872 52.0859 40.3591 51.7422C40.0309 51.3906 39.6833 51.1523 39.3161 51.0273C38.9489 50.8945 38.3669 50.8281 37.57 50.8281H36.8669V58H33.3981ZM36.8669 48.0859H39.4333C41.0973 48.0859 42.1364 48.0156 42.5505 47.875C42.9645 47.7344 43.2887 47.4922 43.5231 47.1484C43.7575 46.8047 43.8747 46.375 43.8747 45.8594C43.8747 45.2812 43.7184 44.8164 43.4059 44.4648C43.1012 44.1055 42.6677 43.8789 42.1052 43.7852C41.8239 43.7461 40.9802 43.7266 39.5739 43.7266H36.8669V48.0859ZM50.387 49.5156C50.387 47.7656 50.6488 46.2969 51.1722 45.1094C51.5628 44.2344 52.0941 43.4492 52.7659 42.7539C53.4456 42.0586 54.1878 41.543 54.9925 41.207C56.0628 40.7539 57.2972 40.5273 58.6956 40.5273C61.2269 40.5273 63.2503 41.3125 64.7659 42.8828C66.2894 44.4531 67.0511 46.6367 67.0511 49.4336C67.0511 52.207 66.2972 54.3789 64.7894 55.9492C63.2816 57.5117 61.2659 58.293 58.7425 58.293C56.1878 58.293 54.1566 57.5156 52.6488 55.9609C51.1409 54.3984 50.387 52.25 50.387 49.5156ZM53.9613 49.3984C53.9613 51.3438 54.4105 52.8203 55.3089 53.8281C56.2073 54.8281 57.348 55.3281 58.7308 55.3281C60.1136 55.3281 61.2464 54.832 62.1292 53.8398C63.0198 52.8398 63.4652 51.3438 63.4652 49.3516C63.4652 47.3828 63.0316 45.9141 62.1644 44.9453C61.305 43.9766 60.1605 43.4922 58.7308 43.4922C57.3011 43.4922 56.1488 43.9844 55.2738 44.9688C54.3988 45.9453 53.9613 47.4219 53.9613 49.3984ZM70.1181 40.8203H76.458C77.8877 40.8203 78.9775 40.9297 79.7275 41.1484C80.7353 41.4453 81.5986 41.9727 82.3173 42.7305C83.0361 43.4883 83.583 44.418 83.958 45.5195C84.333 46.6133 84.5205 47.9648 84.5205 49.5742C84.5205 50.9883 84.3447 52.207 83.9931 53.2305C83.5634 54.4805 82.9502 55.4922 82.1533 56.2656C81.5517 56.8516 80.7392 57.3086 79.7158 57.6367C78.9502 57.8789 77.9267 58 76.6455 58H70.1181V40.8203ZM73.5869 43.7266V55.1055H76.1767C77.1455 55.1055 77.8447 55.0508 78.2744 54.9414C78.8369 54.8008 79.3017 54.5625 79.6689 54.2266C80.0439 53.8906 80.3486 53.3398 80.583 52.5742C80.8173 51.8008 80.9345 50.75 80.9345 49.4219C80.9345 48.0938 80.8173 47.0742 80.583 46.3633C80.3486 45.6523 80.0205 45.0977 79.5986 44.6992C79.1767 44.3008 78.6416 44.0312 77.9931 43.8906C77.5088 43.7812 76.5595 43.7266 75.1455 43.7266H73.5869Z" fill="#F8F8F8"/>
</svg>
