<svg width="100" height="100" viewBox="0 0 100 100" fill="none" xmlns="http://www.w3.org/2000/svg">
<rect width="100" height="100" fill="#EA9602"/>
<path d="M15.0354 73.7814L49.7754 15.1165C49.7976 15.0809 49.8286 15.0515 49.8653 15.0311C49.9021 15.0107 49.9434 15 49.9854 15C50.0274 15 50.0688 15.0107 50.1055 15.0311C50.1422 15.0515 50.1732 15.0809 50.1954 15.1165L84.9355 73.7814C84.9579 73.8188 84.9701 73.8615 84.9708 73.9051C84.9715 73.9488 84.9606 73.9918 84.9393 74.0299C84.9179 74.0679 84.8869 74.0997 84.8494 74.1219C84.8118 74.1442 84.7691 74.1561 84.7255 74.1564H15.2454C15.2017 74.1561 15.159 74.1442 15.1214 74.1219C15.0839 74.0997 15.0529 74.0679 15.0316 74.0299C15.0102 73.9918 14.9994 73.9488 15 73.9051C15.0007 73.8615 15.0129 73.8188 15.0354 73.7814ZM52.5504 57.0865C54.1254 54.7415 54.3704 54.8715 53.2854 57.4765C51.9354 60.709 48.8229 67.6614 49.3554 71.6814C49.3904 71.9514 49.5379 72.1239 49.7979 72.1989C55.2129 73.8039 63.1554 65.2089 65.6829 61.1515C68.4954 56.629 69.4629 49.4815 64.6404 46.0915C60.1704 42.9565 54.2529 45.9115 50.6829 49.2265C45.0779 54.4265 42.6829 60.719 43.4979 68.1039C43.6429 69.3889 44.0654 70.4439 44.7654 71.2689C44.8441 71.361 44.946 71.4305 45.0604 71.4702C45.1748 71.5099 45.2976 71.5183 45.4157 71.4945C45.5339 71.4707 45.6431 71.4156 45.7319 71.335C45.8207 71.2544 45.8858 71.1513 45.9204 71.0364C47.4454 66.0514 49.6554 61.4014 52.5504 57.0865Z" fill="white"/>
<path d="M52.5505 57.0867C49.6555 61.4017 47.4455 66.0516 45.9205 71.0366C45.8859 71.1515 45.8207 71.2546 45.7319 71.3352C45.6431 71.4158 45.5339 71.4709 45.4158 71.4947C45.2976 71.5185 45.1749 71.5101 45.0605 71.4704C44.946 71.4307 44.8441 71.3612 44.7655 71.2691C44.0655 70.4441 43.643 69.3891 43.498 68.1041C42.683 60.7192 45.078 54.4267 50.683 49.2267C54.253 45.9117 60.1705 42.9567 64.6405 46.0917C69.463 49.4817 68.4955 56.6292 65.683 61.1517C63.1555 65.2092 55.213 73.8041 49.798 72.1991C49.538 72.1241 49.3905 71.9516 49.3555 71.6816C48.823 67.6616 51.9355 60.7092 53.2855 57.4767C54.3705 54.8717 54.1255 54.7417 52.5505 57.0867Z" fill="#602F00"/>
</svg>
