<svg width="100" height="100" viewBox="0 0 100 100" fill="none" xmlns="http://www.w3.org/2000/svg">
<rect width="100" height="100" fill="#E6FFE0"/>
<path d="M50.212 22.5376C52.5195 23.8276 54.5545 25.3151 56.317 27.0001L60.2657 31.0088L54.367 34.9876C53.037 34.0076 51.7845 32.9326 50.6095 31.7626C50.5045 31.6576 50.3907 31.5863 50.2682 31.5488C50.0882 31.4913 49.9508 31.4688 49.8558 31.4813C48.0633 30.0388 46.2358 28.6751 44.3733 27.3901C44.2983 27.3376 44.1208 27.2901 43.8408 27.2476C43.7333 27.0276 43.5583 26.8388 43.3158 26.6813C37.0833 22.6463 28.8408 20.4601 22.267 24.7951C21.3945 25.3701 21.3058 25.2676 22.0008 24.4876C27.6445 18.1426 35.062 16.6351 42.922 19.1663C45.482 19.9913 47.912 21.1151 50.212 22.5376Z" fill="#98C94B"/>
<path d="M56.3169 27C54.5544 25.315 52.5194 23.8275 50.2119 22.5375C60.1494 16.5938 70.9344 15.9375 78.7606 25.425C78.7694 25.4354 78.7741 25.4487 78.7738 25.4623C78.7735 25.4759 78.7683 25.489 78.7592 25.499C78.75 25.5091 78.7375 25.5155 78.724 25.5171C78.7105 25.5186 78.6968 25.5152 78.6856 25.5075C71.4856 20.505 63.1456 22.6388 56.3169 27Z" fill="#035253"/>
<path d="M39.9932 30.8662C42.1832 31.9637 44.1807 33.3662 45.9857 35.0737L50.1744 38.6025L55.0607 43.8112C55.0925 43.8455 55.1345 43.8691 55.1807 43.8787C55.2857 43.8962 55.3332 43.8837 55.3232 43.8412L55.2969 44.0437C55.291 44.0899 55.2946 44.1369 55.3075 44.182C55.3204 44.2271 55.3423 44.2694 55.3719 44.3062C62.8269 53.3062 68.8869 65.2949 60.5769 76.1849C59.6269 77.4324 58.2744 78.6024 56.5194 79.6949C56.8369 78.9949 57.2669 78.3737 57.8094 77.8312C58.2619 77.3787 58.5644 76.9587 58.7169 76.5712C59.3882 74.8687 60.3069 71.9962 59.3507 70.2224C59.9457 69.3099 60.0619 68.1162 59.6994 66.6412C58.3344 61.0725 55.7169 56.6925 52.3344 52.17C51.5794 51.165 50.7632 50.2175 49.8857 49.3275L45.217 44.2612C45.1595 44.2012 45.0907 44.1687 45.0107 44.1637L44.8832 44.1562C44.842 43.95 44.797 43.7475 44.6282 43.6012C43.5332 42.6362 42.4332 41.6762 41.3282 40.7212C41.2357 40.6437 41.1295 40.6025 41.0095 40.5975L40.642 40.59C40.6495 40.38 40.582 40.1962 40.3982 40.0612C38.5182 38.7112 36.6882 37.385 34.9082 36.0825C33.3307 34.96 31.6807 34.0837 29.9582 33.4537C28.9057 33.0712 27.9382 32.86 27.0557 32.82C25.9382 31.7075 24.412 31.2787 22.477 31.5337C19.8033 31.8825 17.6883 31.9125 14.8608 33C14.7433 33.045 14.6508 33.1187 14.5833 33.2212C14.2833 33.6637 13.922 33.745 13.4995 33.465C16.5183 28.4325 23.3095 26.4975 28.7995 27.0862C32.747 27.5087 36.4782 28.7687 39.9932 30.8662Z" fill="#98C94B"/>
<path d="M43.8407 27.2476C44.1207 27.2901 44.2982 27.3376 44.3732 27.3901C46.2357 28.6751 48.0632 30.0388 49.8556 31.4813L45.9857 35.0738C44.1807 33.3663 42.1832 31.9638 39.9932 30.8663C41.2507 29.3863 42.5332 28.1801 43.8407 27.2476Z" fill="#035253"/>
<path d="M86.7668 34.0238C82.6268 31.3113 78.1743 30.8313 73.4093 32.5838C70.5718 33.2838 67.8193 34.4725 65.1518 36.15C63.0943 37.38 61.1443 38.7838 59.3018 40.3613L55.3231 43.8413C55.3331 43.8838 55.2856 43.8963 55.1806 43.8788C55.1343 43.8691 55.0924 43.8455 55.0606 43.8113L50.1743 38.6025L54.3668 34.9875L60.2655 31.0088C64.6043 28.6538 68.9918 27.0863 74.0168 27.2438C78.528 27.3825 84.4793 29.73 86.7668 34.0238Z" fill="#035253"/>
<path d="M27.0556 32.82C19.3681 33.2212 14.8794 39.93 17.1181 47.16C18.9144 52.9537 21.9556 56.7074 26.0919 61.7062C26.1519 61.7787 26.1544 61.8374 26.0994 61.8824C26.0369 61.9374 25.9756 61.9362 25.9156 61.8787C19.8031 55.9949 7.78815 42.7762 13.4994 33.465C13.9219 33.745 14.2831 33.6637 14.5831 33.2212C14.6506 33.1187 14.7431 33.045 14.8606 33C17.6881 31.9125 19.8031 31.8825 22.4769 31.5337C24.4119 31.2787 25.9381 31.7075 27.0556 32.82Z" fill="#75C9CA"/>
<path d="M86.7671 34.0238C88.7734 37.0688 88.2821 41.6438 86.9884 44.8463C84.3372 51.4163 79.1472 57.4012 74.0022 62.1637C73.9714 62.1918 73.9313 62.208 73.8893 62.2093C73.8473 62.2106 73.8063 62.1968 73.7741 62.1705C73.7419 62.1443 73.7206 62.1074 73.7143 62.0668C73.7079 62.0262 73.717 61.9847 73.7397 61.95C73.8484 61.77 74.0097 61.4212 74.1559 61.275C82.0609 53.2425 90.7121 37.3275 73.4097 32.5838C78.1747 30.8313 82.6271 31.3113 86.7671 34.0238Z" fill="#75C9CA"/>
<path d="M34.9084 36.0825C36.6884 37.385 38.5184 38.7113 40.3984 40.0613C40.5822 40.1963 40.6497 40.38 40.6422 40.59C34.1022 48.0225 26.546 60.0712 33.5059 69.7912C33.5162 69.8073 33.5207 69.8264 33.5185 69.8453C33.5163 69.8643 33.5076 69.8818 33.4939 69.8951C33.4802 69.9084 33.4623 69.9165 33.4433 69.918C33.4243 69.9196 33.4054 69.9145 33.3897 69.9037C21.1272 60.3375 26.921 45.81 34.9084 36.0825Z" fill="#035253"/>
<path d="M65.1517 36.1501C73.1955 46.1926 78.6892 59.6401 66.8092 69.8776C66.7802 69.9017 66.7433 69.9148 66.7053 69.9145C66.6672 69.9141 66.6306 69.9003 66.6023 69.8756C66.5739 69.8509 66.5557 69.817 66.551 69.7801C66.5463 69.7433 66.5555 69.706 66.5767 69.6751C73.2292 59.7751 65.5267 48.0676 59.3018 40.3614C61.1443 38.7839 63.0942 37.3801 65.1517 36.1501Z" fill="#98C94B"/>
<path d="M44.8833 44.1562L45.0108 44.1638C45.0908 44.1688 45.1596 44.2012 45.2171 44.2612L49.8858 49.3275C46.7396 53.0587 43.9046 56.895 41.8908 61.2712C40.5683 64.1437 39.8871 66.9287 39.8471 69.6262C39.6821 73.0662 40.6508 76.3037 42.7533 79.3387C37.1696 75.1537 34.2333 68.1675 35.6583 61.2187C36.9708 54.8325 40.5446 48.9487 44.8833 44.1562Z" fill="#035253"/>
<path d="M39.8471 69.6262C43.0746 72.9637 46.5283 74.6075 50.2083 74.5575C53.5558 74.51 56.6033 73.065 59.3508 70.2225C60.3071 71.9962 59.3883 74.8687 58.7171 76.5712C58.5646 76.9587 58.2621 77.3787 57.8096 77.8312C57.2671 78.3737 56.8371 78.995 56.5196 79.695C51.8071 82.345 47.2183 82.2262 42.7534 79.3387C40.6509 76.3037 39.6821 73.0662 39.8471 69.6262Z" fill="#75C9CA"/>
</svg>
