<svg width="100" height="100" viewBox="0 0 100 100" fill="none" xmlns="http://www.w3.org/2000/svg">
<rect width="100" height="100" fill="#E31D1A"/>
<path d="M69.0582 64.097C69.0117 64.1207 68.9707 64.154 68.9381 64.1948C68.9055 64.2356 68.882 64.2829 68.8692 64.3335C68.8564 64.3841 68.8546 64.4369 68.8639 64.4883C68.8733 64.5397 68.8935 64.5885 68.9232 64.6314C72.1595 69.3152 75.3639 74.0233 78.5364 78.7558C79.4814 80.1621 78.2439 81.4727 76.7532 81.4783C70.8545 81.5083 64.8001 81.5252 58.5901 81.5289C58.2299 81.5287 57.8749 81.4399 57.5562 81.2703C57.2375 81.1007 56.9648 80.8554 56.762 80.5558L36.1576 50.1189C35.9871 49.8653 35.8879 49.5706 35.8704 49.2656C35.8528 48.9606 35.9176 48.6565 36.0579 48.3851C36.1982 48.1137 36.4089 47.8849 36.6679 47.7229C36.9269 47.5608 37.2247 47.4714 37.5301 47.4639C44.1039 47.3326 50.7901 47.2989 57.5889 47.3626C59.3589 47.3776 60.6545 47.1339 61.4757 46.6314C64.007 45.0845 63.9676 40.607 61.3182 39.1332C60.557 38.7095 59.3532 38.4976 57.707 38.4976C48.1257 38.4939 38.6457 38.492 29.267 38.492C28.9466 38.492 28.6309 38.413 28.3474 38.262C28.064 38.1109 27.8216 37.8925 27.6414 37.6257L17.2351 22.2301C17.048 21.9543 16.9397 21.6327 16.9216 21.3C16.9036 20.9672 16.9766 20.6358 17.1327 20.3414C17.2889 20.047 17.5224 19.8007 17.808 19.629C18.0936 19.4573 18.4206 19.3667 18.7539 19.367C30.8664 19.3632 42.9957 19.3613 55.142 19.3613C57.9151 19.367 61.4532 19.322 64.097 20.042C85.877 25.9313 89.1563 53.657 69.0582 64.097Z" fill="white"/>
</svg>
