<svg width="100" height="100" viewBox="0 0 100 100" fill="none" xmlns="http://www.w3.org/2000/svg">
<rect width="100" height="100" fill="white"/>
<path d="M9.0432 50.2263L49.6237 25.0132C49.6379 25.0046 49.6541 25 49.6706 25C49.6871 25 49.7034 25.0046 49.7175 25.0132L90.3486 50.1682C90.3618 50.1762 90.3727 50.1875 90.3803 50.201C90.3879 50.2144 90.3918 50.2296 90.3918 50.2451C90.3918 50.2605 90.3879 50.2757 90.3803 50.2891C90.3727 50.3026 90.3618 50.3139 90.3486 50.3219L49.6219 75.6701C49.6077 75.6787 49.5915 75.6832 49.575 75.6832C49.5584 75.6832 49.5422 75.6787 49.5281 75.6701L9.0432 50.3801C9.03001 50.372 9.01911 50.3607 9.01154 50.3473C9.00398 50.3338 9 50.3186 9 50.3032C9 50.2877 9.00398 50.2725 9.01154 50.2591C9.01911 50.2456 9.03001 50.2343 9.0432 50.2263ZM37.2244 62.4344C38.6406 61.7432 40 60.9207 41.3025 59.9669C44.5894 57.5613 43.8731 54.2782 41.4131 51.6663C41.1869 51.4251 40.9831 51.1932 40.8019 50.9707C40.7906 50.957 40.784 50.94 40.7832 50.9223C40.7823 50.9045 40.7872 50.887 40.7971 50.8722C40.807 50.8575 40.8214 50.8463 40.8381 50.8404C40.8548 50.8345 40.873 50.8342 40.89 50.8394C41.6363 51.0794 42.3775 51.2369 43.1138 51.3119C46.4812 51.6494 49.8056 51.3007 53.1637 51.0532C57.0693 50.7663 60.5887 51.1788 63.7856 53.6219C65.3025 54.7807 66.9581 56.7419 65.2912 58.6563C63.3187 60.9251 58.6425 61.2232 55.9275 61.1782C55.5431 61.1707 55.1587 61.2401 54.7893 61.2926C54.6331 61.3138 54.5487 61.3638 54.5362 61.4426C54.5259 61.5143 54.5292 61.5842 54.5459 61.6458C54.5626 61.7075 54.5922 61.7588 54.6319 61.7951C55.8487 62.8994 57.6037 64.0769 59.2781 64.2138C63.2156 64.5344 72.0974 62.6351 71.2331 56.9688C71.23 56.9474 71.2321 56.9257 71.239 56.9053C71.246 56.8849 71.2577 56.8665 71.2731 56.8516C71.2885 56.8367 71.3072 56.8258 71.3277 56.8198C71.3481 56.8137 71.3697 56.8128 71.3906 56.8169C74.9156 57.5051 83.6137 55.6226 84.0037 50.9444C84.1462 49.2382 83.0662 47.2226 81.913 46.1313C77.7531 42.1888 72.8506 40.1232 67.2056 39.9344C61.7606 39.7525 56.2406 41.4682 50.9981 39.4151C49.3312 38.7626 45.5962 36.4207 46.8844 34.1388C48.3919 31.4744 53.5594 31.8438 56.0137 31.5532C56.0634 31.547 56.1101 31.5264 56.1483 31.4941C56.1864 31.4617 56.2142 31.4188 56.2284 31.3709C56.2425 31.3229 56.2423 31.2718 56.2278 31.2239C56.2134 31.176 56.1852 31.1334 56.1468 31.1013C54.8325 30.0082 53.0231 28.6863 51.2212 28.6919C48.4987 28.6994 44.7469 29.4513 42.7594 31.4332C41.0744 33.1157 40.9388 34.9769 42.3525 37.0169C42.5375 37.2844 42.7225 37.555 42.9075 37.8288C42.9813 37.9375 42.9631 37.9569 42.8531 37.8869C41.4825 37.0132 40.2338 35.98 38.3794 35.9969C36.6219 36.0144 34.8669 36.3238 33.1144 36.925C29.5257 38.1588 26.9888 41.3257 30.0375 44.8732C30.0527 44.8901 30.0618 44.9115 30.0636 44.9341C30.0653 44.9567 30.0595 44.9793 30.0471 44.9983C30.0347 45.0173 30.0164 45.0317 29.995 45.0393C29.9736 45.0468 29.9504 45.0471 29.9288 45.0401C25.6688 43.6576 21.5813 44.0525 17.6663 46.225C16.8751 46.6638 15.1401 47.6619 12.4613 49.2194C11.4657 49.7969 12.1688 50.6088 12.8626 51.0513C24.0375 58.1851 35.225 65.2988 46.425 72.3926C47.0906 72.8144 47.5256 73.2251 48.3375 73.0057C48.6619 72.9176 51.5719 71.7494 50.5087 71.0726C46.0987 68.2626 41.6675 65.4494 37.215 62.6332C37.1979 62.6224 37.184 62.6072 37.1746 62.5893C37.1653 62.5714 37.1609 62.5513 37.1618 62.5311C37.1628 62.5109 37.1691 62.4913 37.1801 62.4743C37.191 62.4573 37.2063 62.4436 37.2244 62.4344Z" fill="#B31322"/>
<path d="M37.2244 62.4344C37.2063 62.4436 37.191 62.4573 37.1801 62.4743C37.1691 62.4913 37.1628 62.5109 37.1618 62.5311C37.1609 62.5513 37.1653 62.5714 37.1746 62.5893C37.184 62.6072 37.1979 62.6224 37.215 62.6332C41.6675 65.4494 46.0987 68.2625 50.5087 71.0725C51.5719 71.7494 48.6619 72.9175 48.3375 73.0057C47.5256 73.225 47.0906 72.8144 46.425 72.3925C35.225 65.2988 24.0375 58.185 12.8626 51.0513C12.1688 50.6088 11.4657 49.7969 12.4613 49.2194C15.1401 47.6619 16.8751 46.6638 17.6663 46.225C21.5813 44.0525 25.6688 43.6575 29.9288 45.04C29.9503 45.0471 29.9736 45.0468 29.995 45.0392C30.0164 45.0317 30.0347 45.0173 30.0471 44.9983C30.0595 44.9793 30.0653 44.9567 30.0636 44.9341C30.0618 44.9115 30.0527 44.8901 30.0375 44.8732C26.9888 41.3257 29.5257 38.1588 33.1144 36.925C34.8669 36.3238 36.6219 36.0144 38.3794 35.9969C40.2338 35.98 41.4825 37.0132 42.8531 37.8869C42.9631 37.9569 42.9813 37.9375 42.9075 37.8288C42.7225 37.555 42.5375 37.2844 42.3525 37.0169C40.9388 34.9769 41.0744 33.1157 42.7594 31.4332C44.7469 29.4513 48.4987 28.6994 51.2212 28.6919C53.0231 28.6863 54.8325 30.0082 56.1468 31.1013C56.1852 31.1334 56.2134 31.176 56.2278 31.2239C56.2423 31.2718 56.2425 31.3229 56.2284 31.3709C56.2142 31.4188 56.1864 31.4617 56.1483 31.494C56.1101 31.5264 56.0634 31.547 56.0137 31.5532C53.5594 31.8438 48.3919 31.4744 46.8844 34.1388C45.5962 36.4207 49.3312 38.7625 50.9981 39.415C56.2406 41.4682 61.7606 39.7525 67.2056 39.9344C72.8506 40.1232 77.7531 42.1888 81.913 46.1313C83.0662 47.2225 84.1462 49.2382 84.0037 50.9444C83.6137 55.6225 74.9156 57.505 71.3906 56.8169C71.3697 56.8128 71.3481 56.8137 71.3277 56.8198C71.3072 56.8258 71.2885 56.8367 71.2731 56.8516C71.2577 56.8664 71.246 56.8849 71.239 56.9053C71.2321 56.9256 71.23 56.9474 71.2331 56.9688C72.0974 62.635 63.2156 64.5344 59.2781 64.2138C57.6037 64.0769 55.8487 62.8994 54.6319 61.795C54.5922 61.7588 54.5626 61.7074 54.5459 61.6458C54.5292 61.5842 54.5259 61.5143 54.5362 61.4425C54.5487 61.3638 54.6331 61.3138 54.7893 61.2925C55.1587 61.24 55.5431 61.1707 55.9275 61.1782C58.6425 61.2232 63.3187 60.925 65.2912 58.6563C66.9581 56.7419 65.3025 54.7807 63.7856 53.6219C60.5887 51.1788 57.0693 50.7663 53.1637 51.0532C49.8056 51.3007 46.4812 51.6494 43.1138 51.3119C42.3775 51.2369 41.6363 51.0794 40.89 50.8394C40.873 50.8342 40.8548 50.8345 40.8381 50.8404C40.8214 50.8463 40.807 50.8575 40.7971 50.8722C40.7872 50.887 40.7823 50.9045 40.7832 50.9222C40.784 50.94 40.7906 50.957 40.8019 50.9707C40.9831 51.1932 41.1869 51.425 41.4131 51.6663C43.8731 54.2782 44.5894 57.5613 41.3025 59.9669C40 60.9207 38.6406 61.7432 37.2244 62.4344ZM34.5694 40.9582C32.7038 42.7713 35.0756 44.8882 36.5944 45.7994C41.3775 48.67 46.6162 47.6369 51.8325 47.2975C58.7912 46.8438 64.6993 49.0044 69.5568 53.7794C69.6006 53.8232 69.6537 53.845 69.7162 53.845C72.0824 53.8732 79.6068 53.0332 78.6055 49.0263C78.1387 47.1513 75.6656 45.5857 74.0456 44.8375C70.2243 43.0732 65.8331 43.7725 61.8281 44.0482C59.7993 44.1888 57.4237 44.2169 55.5075 43.9694C51.0837 43.3994 47.1712 41.6375 43.77 38.6838C43.7188 38.6388 43.6631 38.6332 43.6031 38.6669L43.1625 38.9144C43.115 38.9407 43.0638 38.9532 43.0088 38.9519C40.3369 38.8975 36.6225 38.9613 34.5694 40.9582ZM37.0631 52.8288C33.2644 48.9738 26.6269 45.8725 21.4013 48.895C20.4057 49.4707 19.4007 50.0257 18.4201 50.6369C18.4135 50.6412 18.4081 50.647 18.4043 50.6539C18.4006 50.6608 18.3986 50.6685 18.3986 50.6763C18.3986 50.6841 18.4006 50.6918 18.4043 50.6987C18.4081 50.7056 18.4135 50.7114 18.4201 50.7157L33.0169 59.9725C33.0856 60.0163 33.1556 60.0182 33.2269 59.9782C34.4519 59.3094 35.6506 58.5957 36.8231 57.8369C38.7806 56.5694 38.5444 54.3344 37.0631 52.8288Z" fill="white"/>
<path d="M34.5696 40.9582C36.6227 38.9613 40.3371 38.8976 43.0089 38.952C43.0639 38.9532 43.1152 38.9407 43.1627 38.9145L43.6033 38.667C43.6633 38.6332 43.7189 38.6388 43.7702 38.6838C47.1714 41.6376 51.0839 43.3995 55.5077 43.9695C57.4239 44.217 59.7995 44.1888 61.8283 44.0482C65.8333 43.7726 70.2245 43.0732 74.0457 44.8376C75.6657 45.5857 78.1389 47.1513 78.6057 49.0263C79.607 53.0332 72.0826 53.8732 69.7164 53.8451C69.6539 53.8451 69.6008 53.8232 69.557 53.7795C64.6995 49.0045 58.7914 46.8438 51.8327 47.2976C46.6164 47.637 41.3777 48.6701 36.5946 45.7995C35.0758 44.8882 32.704 42.7713 34.5696 40.9582Z" fill="#B31322"/>
<path d="M21.4011 48.895C26.6267 45.8725 33.2642 48.9737 37.063 52.8287C38.5442 54.3344 38.7805 56.5694 36.823 57.8369C35.6505 58.5956 34.4517 59.3094 33.2267 59.9781C33.1555 60.0181 33.0855 60.0162 33.0167 59.9725L18.4199 50.7156C18.4133 50.7114 18.4079 50.7055 18.4041 50.6986C18.4004 50.6918 18.3984 50.6841 18.3984 50.6762C18.3984 50.6684 18.4004 50.6607 18.4041 50.6538C18.4079 50.6469 18.4133 50.6411 18.4199 50.6369C19.4005 50.0256 20.4055 49.4706 21.4011 48.895Z" fill="#B31322"/>
</svg>
