<svg width="100" height="100" viewBox="0 0 100 100" fill="none" xmlns="http://www.w3.org/2000/svg">
<rect width="100" height="100" fill="white"/>
<path d="M37.1776 35.7322C33.5341 44.8314 40.2586 54.9597 50.0642 55.03C57.8242 55.0844 64.1589 48.9799 64.4145 41.2294C64.6095 35.2048 60.8637 29.698 55.1459 27.6014C54.1008 27.221 52.9087 27.0133 51.7293 26.8151C51.5781 26.7896 51.5653 26.732 51.691 26.6425C57.2585 22.6954 64.0182 21.695 70.4519 23.8204C76.0003 25.6518 80.9159 29.8418 82.9358 35.4094C86.0008 43.8726 81.8523 63.049 70.1131 63.2407C64.0214 63.343 59.7131 59.757 54.1008 58.3476C49.6625 57.2332 45.3031 57.687 41.0225 59.7091C39.4095 60.4697 37.7977 61.2336 36.1868 62.0007C26.1576 66.7724 19.1614 59.0123 17.004 49.7373C14.2266 37.7904 17.2246 25.9618 25.8348 17.131C25.8741 17.0896 25.9214 17.0566 25.9736 17.0341C26.0258 17.0115 26.0819 16.9999 26.1384 17L49.7222 17.0032C49.8735 17.0032 49.8959 17.0575 49.7893 17.1662C44.6117 22.5388 39.9103 28.9086 37.1776 35.7322Z" fill="#FFC40D"/>
<path d="M68.1222 68.7088C75.6777 68.9293 80.1171 65.4616 83.8629 59.3922C83.9545 59.2452 84.0003 59.258 84.0003 59.4306V83.7207C84.0003 83.7631 83.9835 83.8037 83.9535 83.8337C83.9235 83.8637 83.8829 83.8805 83.8405 83.8805H16.1733C16.0604 83.8805 16.0039 83.824 16.0039 83.7111V59.4274C16.004 59.413 16.0091 59.3991 16.0185 59.3882C16.0278 59.3773 16.0407 59.37 16.0549 59.3677C16.0691 59.3654 16.0836 59.3682 16.096 59.3756C16.1083 59.383 16.1176 59.3946 16.1222 59.4082C17.4901 63.6238 22.3737 67.0116 26.4263 67.9992C32.0002 69.3576 39.3065 67.213 44.1932 64.458C48.5143 62.0226 52.1802 62.1728 56.4502 64.6945C59.8188 66.6856 63.5646 68.5745 68.1222 68.7088Z" fill="#CE4147"/>
</svg>
