<svg width="100" height="100" viewBox="0 0 100 100" fill="none" xmlns="http://www.w3.org/2000/svg">
<rect width="100" height="100" fill="white"/>
<path d="M56.0182 50.8691L39.882 38.7922C39.8583 38.7747 39.8302 38.7641 39.8009 38.7616C39.7715 38.7591 39.7421 38.7648 39.7158 38.7781C39.6895 38.7915 39.6675 38.8118 39.6521 38.837C39.6368 38.8621 39.6287 38.891 39.6289 38.9205V77.3007C39.6292 77.3341 39.619 77.3668 39.5996 77.3941C39.5802 77.4214 39.5526 77.4418 39.5209 77.4525L23.2092 82.919C23.1855 82.927 23.1602 82.9293 23.1355 82.9256C23.1107 82.922 23.0872 82.9125 23.0668 82.898C23.0464 82.8836 23.0297 82.8645 23.0181 82.8423C23.0065 82.8201 23.0003 82.7955 23 82.7705L23.0135 11.1594C23.0133 11.13 23.0214 11.1011 23.0367 11.0759C23.0521 11.0508 23.0741 11.0304 23.1004 11.0171C23.1267 11.0038 23.1561 10.9981 23.1855 11.0006C23.2148 11.0031 23.2429 11.0137 23.2666 11.0312L62.8479 40.6481C62.8679 40.663 62.8842 40.6823 62.8953 40.7046C62.9064 40.7269 62.9122 40.7515 62.9121 40.7764V65.7907C62.9124 65.8241 62.9021 65.8568 62.8827 65.8841C62.8633 65.9114 62.8358 65.9318 62.8041 65.9425L48.5305 70.7206C48.5068 70.7286 48.4815 70.7309 48.4568 70.7272C48.432 70.7236 48.4085 70.7141 48.3881 70.6997C48.3677 70.6852 48.351 70.6661 48.3394 70.6439C48.3278 70.6218 48.3216 70.5972 48.3213 70.5722L48.3179 66.172C48.3176 66.1385 48.3278 66.1058 48.3472 66.0785C48.3666 66.0512 48.3942 66.0308 48.4259 66.0201L56.0857 63.4387C56.1174 63.428 56.1449 63.4076 56.1643 63.3803C56.1837 63.353 56.194 63.3203 56.1937 63.2869L56.0823 50.994C56.0819 50.9697 56.076 50.9457 56.0648 50.9241C56.0537 50.9024 56.0378 50.8836 56.0182 50.8691Z" fill="#EF313B"/>
<path d="M65.359 68.5069L65.3556 23.5332C65.3551 23.4997 65.3641 23.4667 65.3814 23.4381C65.3987 23.4094 65.4238 23.3862 65.4537 23.3711C65.4836 23.3559 65.5171 23.3495 65.5505 23.3525C65.5839 23.3555 65.6157 23.3679 65.6424 23.3881L76.9297 31.7937C76.952 31.8106 76.9701 31.8326 76.9824 31.8578C76.9947 31.883 77.0009 31.9107 77.0005 31.9388V76.1836C77.0004 76.2209 76.9886 76.2572 76.9668 76.2875C76.9451 76.3177 76.9144 76.3404 76.8791 76.3524L42.3964 88.0547C42.3695 88.0638 42.3409 88.0664 42.3128 88.0622C42.2848 88.0581 42.2581 88.0473 42.2351 88.0308C42.212 88.0144 42.1932 87.9926 42.1801 87.9675C42.1671 87.9423 42.1603 87.9143 42.1602 87.886V43.4319C42.1603 43.3987 42.1697 43.3662 42.1873 43.338C42.2049 43.3098 42.23 43.2871 42.2598 43.2724C42.2895 43.2577 42.3228 43.2516 42.3559 43.2547C42.389 43.2579 42.4205 43.2701 42.447 43.2902L46.3073 46.1618C46.3296 46.1787 46.3477 46.2007 46.36 46.2259C46.3723 46.2511 46.3785 46.2788 46.3781 46.3069V74.7597C46.3777 74.7883 46.3841 74.8166 46.3969 74.8422C46.4097 74.8679 46.4285 74.89 46.4516 74.9069C46.4748 74.9238 46.5016 74.9348 46.53 74.9392C46.5583 74.9435 46.5872 74.9409 46.6143 74.9317L65.2375 68.6756C65.2728 68.6637 65.3035 68.641 65.3253 68.6108C65.347 68.5805 65.3588 68.5442 65.359 68.5069Z" fill="#EF313B"/>
</svg>
