<svg width="100" height="100" viewBox="0 0 100 100" fill="none" xmlns="http://www.w3.org/2000/svg">
<rect width="100" height="100" fill="#126A98"/>
<mask id="mask0_97_34" style="mask-type:alpha" maskUnits="userSpaceOnUse" x="10" y="10" width="80" height="80">
<path fill-rule="evenodd" clip-rule="evenodd" d="M50.149 10.0093C55.7772 10.2006 62.3529 11.0094 74.774 29.3843C89.899 51.7593 91.274 67.1343 88.274 73.6343C85.274 80.1343 78.6522 88.9281 47.399 89.3843C13.149 89.8843 10.274 71.6343 10.024 68.0093C9.24805 56.7593 27.4022 9.23617 50.149 10.0093ZM74.6523 50.3844C71.7356 57.1761 60.8023 72.2344 40.4023 78.1344C36.3606 72.1761 29.4523 54.9094 34.1523 33.5094C41.2773 33.0511 59.3523 35.7844 74.6523 50.3844Z" fill="white"/>
</mask>
<g mask="url(#mask0_97_34)">
<path d="M60.7119 40.5093C43.6119 31.1093 25.5869 32.8426 18.7119 34.8843C21.8786 25.426 32.6619 6.63429 50.4619 7.13429C72.7119 7.75929 85.4619 40.5093 89.8369 59.6343C93.3369 74.9343 83.2119 82.7593 77.7119 84.7593C97.4619 74.6343 82.0869 52.2593 60.7119 40.5093Z" fill="url(#paint0_linear_97_34)"/>
<path d="M32.8502 51.1273C33.1357 70.6386 44.5758 85.2934 49.75 90.2594C39.9631 92.1841 17.2772 92.2588 8.90977 76.5402C-1.54946 56.8918 20.6115 29.6151 35.0711 16.3553C46.6389 5.74738 56.1288 9.34293 60.5869 13.1344C42.0202 0.974849 32.4933 26.7383 32.8502 51.1273Z" fill="url(#paint1_linear_97_34)"/>
<path d="M54.5806 71.0632C71.2712 60.9542 78.7826 44.4774 80.452 37.5027C87.0598 44.9743 97.9422 63.7087 88.6092 78.874C76.9429 97.8305 42.2056 92.4974 23.4553 86.7237C8.45516 82.1048 8.81901 70.1017 9.83696 64.3386C8.73046 86.5051 33.7173 83.6995 54.5806 71.0632Z" fill="url(#paint2_linear_97_34)"/>
<path d="M60.7119 40.5093C43.6119 31.1093 25.5869 32.8426 18.7119 34.8843C21.8786 25.426 32.6619 6.63429 50.4619 7.13429C72.7119 7.75929 85.4619 40.5093 89.8369 59.6343C93.3369 74.9343 83.2119 82.7593 77.7119 84.7593C97.4619 74.6343 82.0869 52.2593 60.7119 40.5093Z" fill="url(#paint3_linear_97_34)"/>
</g>
<defs>
<linearGradient id="paint0_linear_97_34" x1="35.3749" y1="24.8843" x2="97.6249" y2="80.8843" gradientUnits="userSpaceOnUse">
<stop offset="0.058951" stop-color="#508D47"/>
<stop offset="0.65918" stop-color="#B3D286"/>
</linearGradient>
<linearGradient id="paint1_linear_97_34" x1="28.8749" y1="84.1344" x2="30.3749" y2="16.5094" gradientUnits="userSpaceOnUse">
<stop stop-color="#3C9FBF"/>
<stop offset="1" stop-color="#D9F2F9"/>
</linearGradient>
<linearGradient id="paint2_linear_97_34" x1="90.75" y1="63.6344" x2="16.375" y2="79.8844" gradientUnits="userSpaceOnUse">
<stop offset="0.14709" stop-color="#293B84"/>
<stop offset="0.698839" stop-color="#5BB4DC"/>
</linearGradient>
<linearGradient id="paint3_linear_97_34" x1="35.3749" y1="24.8843" x2="97.6249" y2="80.8843" gradientUnits="userSpaceOnUse">
<stop offset="0.058951" stop-color="#508D47" stop-opacity="0"/>
<stop offset="0.535582" stop-color="#9FC479"/>
<stop offset="0.65918" stop-color="#B3D286"/>
</linearGradient>
</defs>
</svg>
