<svg width="100" height="100" viewBox="0 0 100 100" fill="none" xmlns="http://www.w3.org/2000/svg">
<rect width="100" height="100" fill="#0165B3"/>
<path d="M48.3802 14.8557C48.3802 14.9122 48.352 14.9417 48.2955 14.9444C40.1955 15.2156 32.3376 18.6549 26.3761 24.0117C26.3434 24.0408 26.3112 24.04 26.2795 24.0091C25.3743 23.1136 24.4789 22.2094 23.5931 21.2963C23.3708 21.066 23.1392 20.8547 22.8984 20.6624C22.8907 20.6563 22.8845 20.6485 22.8801 20.6397C22.8757 20.6309 22.8733 20.6213 22.8731 20.6114C22.8728 20.6016 22.8747 20.5918 22.8786 20.5828C22.8826 20.5738 22.8884 20.5657 22.8958 20.5592C29.4691 14.5999 37.1973 11.1588 46.0803 10.236C46.8248 10.1584 47.5672 10.0799 48.3074 10.0005C48.3174 9.99933 48.3276 10.0003 48.3372 10.0033C48.3468 10.0063 48.3557 10.0113 48.3632 10.018C48.3707 10.0246 48.3767 10.0327 48.3808 10.0418C48.3848 10.0508 48.3869 10.0607 48.3868 10.0706L48.3802 14.8557Z" fill="white"/>
<path d="M76.9903 20.5447L73.6516 23.9324C73.619 23.9651 73.585 23.9659 73.5497 23.9351C67.4453 18.5095 59.8349 15.3176 51.6608 14.9365C51.6158 14.9339 51.5933 14.91 51.5933 14.865V10.072C51.5933 10.0358 51.6118 10.0186 51.6488 10.0204C61.3435 10.5559 69.7897 14.03 76.9877 20.4428C77.0239 20.4755 77.0247 20.5094 76.9903 20.5447Z" fill="white"/>
<path d="M89.9086 48.431L85.2386 48.4416C85.1839 48.4416 85.1552 48.4147 85.1526 48.3609C84.7591 41.0235 82.3493 34.4475 77.9233 28.6329C77.5554 28.1512 76.9048 27.3779 75.9714 26.3131C75.9432 26.2804 75.9445 26.2491 75.9754 26.2191L79.3088 22.8606C79.316 22.8534 79.3245 22.8477 79.3339 22.844C79.3433 22.8402 79.3533 22.8384 79.3634 22.8386C79.3734 22.8389 79.3833 22.8412 79.3923 22.8454C79.4014 22.8496 79.4094 22.8557 79.416 22.8632C85.7203 29.8133 89.7008 38.8714 89.9708 48.3675C89.9716 48.4098 89.9509 48.431 89.9086 48.431Z" fill="white"/>
<path d="M20.6038 22.9704L23.9399 26.3011C23.9822 26.3426 23.9835 26.385 23.9438 26.4282C18.3603 32.6513 15.3343 39.9697 14.8659 48.3833C14.8641 48.4142 14.8482 48.4296 14.8183 48.4296L10.0583 48.4191C10.0504 48.4189 10.0425 48.4172 10.0353 48.414C10.028 48.4108 10.0215 48.4063 10.0161 48.4006C10.0107 48.3949 10.0064 48.3882 10.0037 48.381C10.0009 48.3737 9.99971 48.3659 10.0001 48.3582C10.5426 38.6371 14.034 30.1758 20.4741 22.9743C20.4821 22.9652 20.4919 22.9578 20.503 22.9526C20.514 22.9474 20.5259 22.9445 20.5381 22.9441C20.5503 22.9438 20.5624 22.9459 20.5737 22.9504C20.585 22.9549 20.5952 22.9617 20.6038 22.9704Z" fill="white"/>
<path d="M34.2355 53.4145C34.2317 53.4106 34.2268 53.4079 34.2215 53.4067C34.2161 53.4056 34.2106 53.406 34.2055 53.408C34.2005 53.41 34.1961 53.4134 34.1929 53.4178C34.1898 53.4223 34.188 53.4275 34.1878 53.433C34.1918 57.3871 34.25 61.3094 34.1574 65.1986C34.1424 65.8479 34.16 66.3874 34.2103 66.817C34.3175 67.7274 36.2482 68.0358 36.9377 68.0318C36.9552 68.0318 36.9721 68.0388 36.9845 68.0512C36.9969 68.0636 37.0038 68.0804 37.0038 68.098V68.9899C37.0038 69.034 36.9818 69.0561 36.9377 69.0561H26.7534C26.712 69.0561 26.6908 69.0358 26.6899 68.9952L26.6621 68.1231C26.6618 68.1078 26.6673 68.0929 26.6777 68.0815C26.688 68.0702 26.7024 68.0633 26.7177 68.0622C27.738 67.9921 29.2161 67.8492 29.2175 66.4676C29.2272 56.0928 29.2324 45.7185 29.2333 35.3446C29.2333 34.0543 27.7552 33.7725 26.7614 33.8281C26.7084 33.8316 26.682 33.8069 26.682 33.7539V32.9547C26.682 32.8929 26.7133 32.862 26.7759 32.862C31.1958 32.8656 35.6144 32.8647 40.0316 32.8594C40.95 32.8585 41.6844 32.9145 42.2349 33.0274C49.2088 34.4566 52.0327 42.419 49.8731 48.5394C48.0985 53.5706 42.9694 57.2759 37.5557 55.5106C36.2659 55.0898 35.1591 54.3911 34.2355 53.4145ZM34.3744 49.3122C34.913 51.2111 36.4851 52.6893 38.4502 53.0545C41.1842 53.564 44.6182 52.7065 45.4942 49.684C45.6133 49.2729 45.6729 48.6832 45.6729 47.9148C45.6729 45.4834 45.672 43.0516 45.6702 40.6193C45.6676 37.5307 43.6681 35.8024 40.7303 35.6119C38.1512 35.4451 35.2081 36.3357 34.381 39.0988C34.254 39.5214 34.1905 40.1791 34.1905 41.0719C34.1914 43.2068 34.1922 45.3418 34.1931 47.4767C34.1931 48.2769 34.2536 48.8887 34.3744 49.3122Z" fill="white"/>
<path d="M61.5576 53.4292C61.5439 53.4182 61.5274 53.4112 61.51 53.4092C61.4926 53.4072 61.4749 53.4102 61.4591 53.4178C61.4433 53.4254 61.43 53.4374 61.4207 53.4523C61.4114 53.4672 61.4066 53.4844 61.4067 53.502C61.4478 56.5244 61.4676 59.5469 61.4239 62.572C61.4045 63.8715 61.4107 65.1714 61.4425 66.4718C61.4729 67.7501 63.1787 68.0399 64.1804 68.0201C64.2395 68.0192 64.2704 68.0483 64.273 68.1074L64.3061 68.9834C64.3079 69.032 64.2845 69.0562 64.236 69.0562H54.0173C53.9573 69.0562 53.9287 69.0262 53.9313 68.9662L53.979 68.1273C53.9825 68.0629 54.0165 68.0315 54.0809 68.0333C54.8696 68.0536 55.5052 67.8974 55.9878 67.5649C56.6521 67.1057 56.4761 66.4466 56.4787 65.7625C56.5166 53.5747 56.5316 43.4271 56.5237 35.3196C56.5224 34.0651 55.0059 33.7515 54.0279 33.8335C53.9697 33.8388 53.941 33.8123 53.9419 33.7541L53.9432 32.9442C53.9432 32.8904 53.9701 32.8635 54.024 32.8635C58.4791 32.8635 62.9338 32.8635 67.3881 32.8635C68.2783 32.8635 68.992 32.9204 69.5292 33.0342C76.9306 34.5997 79.6645 43.4395 76.6831 49.6921C73.9597 55.4062 66.9382 58.348 61.7124 53.6409C61.6889 53.6192 61.6708 53.5929 61.6595 53.5642C61.6401 53.5148 61.6061 53.4698 61.5576 53.4292ZM61.6079 49.1959C62.5368 52.753 66.2051 53.8156 69.3943 52.8919C71.8318 52.1853 72.9183 50.4305 72.954 48.0062C72.9791 46.3481 72.9434 44.6874 72.9593 43.0332C72.9725 41.6914 73.0718 40.0862 72.7462 38.9693C71.8371 35.8529 68.5434 35.2204 65.7393 35.7616C63.7133 36.1533 62.1769 37.2172 61.6224 39.23C61.506 39.6508 61.4491 40.2644 61.4517 41.0707C61.4579 42.9154 61.4526 44.7593 61.4358 46.6022C61.4253 47.8488 61.4826 48.7133 61.6079 49.1959Z" fill="white"/>
<path d="M10.0674 51.6836L14.7969 51.6611C14.8463 51.6611 14.8724 51.6858 14.875 51.7352C15.2738 58.8282 17.523 65.1625 21.6226 70.7381C21.942 71.173 22.713 72.1209 23.9358 73.5819C23.9472 73.5959 23.9531 73.6137 23.9521 73.6319C23.9511 73.65 23.9434 73.6671 23.9305 73.6798L20.5825 77.0225C20.5454 77.0595 20.5097 77.0587 20.4753 77.0198C14.0457 69.8554 10.5575 61.4303 10.0105 51.7445C10.0079 51.7039 10.0268 51.6836 10.0674 51.6836Z" fill="white"/>
<path d="M76.0123 73.7777C75.9926 73.7582 75.9812 73.732 75.9805 73.7044C75.9798 73.6767 75.9897 73.6499 76.0083 73.6294C80.8613 68.3035 83.8039 62.0478 84.8361 54.8622C84.9455 54.1017 85.0536 53.0589 85.1603 51.7339C85.1617 51.7186 85.1688 51.7044 85.1803 51.6942C85.1918 51.6839 85.2069 51.6782 85.2225 51.6783L89.9468 51.665C89.9541 51.665 89.9613 51.6665 89.968 51.6694C89.9747 51.6723 89.9807 51.6766 89.9857 51.6819C89.9907 51.6873 89.9945 51.6936 89.9969 51.7005C89.9993 51.7074 90.0002 51.7147 89.9997 51.7219C89.4316 61.4571 85.9067 69.9175 79.4251 77.1032C79.3995 77.1323 79.3726 77.1332 79.3444 77.1058L76.0123 73.7777Z" fill="white"/>
<path d="M22.8906 79.4482C22.8809 79.4455 22.8734 79.4433 22.8681 79.4416C22.8611 79.4391 22.855 79.4346 22.8506 79.4286C22.8461 79.4225 22.8433 79.4151 22.8425 79.4071C22.8417 79.399 22.8429 79.3905 22.846 79.3824C22.8491 79.3744 22.854 79.3669 22.8602 79.3608L26.2174 76.0261C26.2774 75.9661 26.3392 75.9643 26.4027 76.0208C32.6461 81.5611 39.964 84.5721 48.3565 85.0538C48.375 85.0546 48.3843 85.0639 48.3843 85.0815V89.8931C48.3843 89.9452 48.3583 89.9694 48.3062 89.9659C38.5657 89.4366 30.1005 85.9346 22.9104 79.4601C22.9052 79.4548 22.8985 79.4508 22.8906 79.4482Z" fill="white"/>
<path d="M76.9786 79.4033C77.0272 79.4518 77.0258 79.499 76.9747 79.5449C69.7997 85.9638 61.3684 89.4384 51.6808 89.9686C51.6261 89.9713 51.5988 89.9452 51.5988 89.8905L51.5908 85.1359C51.5908 85.1176 51.5978 85.1 51.6103 85.0867C51.6229 85.0734 51.6401 85.0654 51.6583 85.0644C60.0234 84.566 67.3277 81.5691 73.5711 76.0738C73.5993 76.0491 73.6262 76.05 73.6518 76.0764L76.9786 79.4033Z" fill="white"/>
</svg>
