<svg width="100" height="100" viewBox="0 0 100 100" fill="none" xmlns="http://www.w3.org/2000/svg">
<rect width="100" height="100" fill="white"/>
<path d="M26.9743 87.3162C26.8564 87.2794 26.7504 87.2122 26.6668 87.1212C21.2668 81.3012 15.8769 75.5262 10.4969 69.7962C10.1519 69.4287 10.0056 68.7012 10.0056 68.1387C9.99813 56.6913 9.99813 45.2438 10.0056 33.7963C10.0094 33.1588 10.1369 32.51 10.2719 31.8838C10.294 31.771 10.3459 31.6672 10.4219 31.5838L26.6631 13.6138C27.0156 13.2238 27.4543 13.0288 27.9793 13.0288C42.2893 12.9963 56.703 12.9913 71.2204 13.0138C72.4842 13.0176 72.9829 13.0251 73.8754 14.0151C78.7929 19.4701 83.7029 24.9338 88.6054 30.4063C89.5691 31.4825 90.1054 31.9138 90.0904 33.4813C90.0029 44.8588 89.9604 56.2325 89.9629 67.6025C89.9629 68.3375 89.6104 68.8925 89.1604 69.3837C84.1054 74.9537 79.0579 80.53 74.0179 86.1125C73.2004 87.0162 72.7992 87.5375 71.4642 87.5375C57.0067 87.535 42.5505 87.5187 28.0956 87.4887C27.6881 87.4887 27.3143 87.4312 26.9743 87.3162Z" fill="#D5393B"/>
<path d="M27.7053 84.2528C22.8303 79.1453 18.0066 73.9753 13.2341 68.7428C12.8291 68.3003 12.5928 68.0115 12.5891 67.3665C12.5166 56.1366 12.5028 44.9378 12.5478 33.7703C12.5503 33.3911 12.6917 33.0256 12.9453 32.7428L27.7428 16.3178C27.8574 16.1904 27.9974 16.0884 28.1537 16.0187C28.3101 15.9489 28.4793 15.9128 28.6503 15.9128H71.8726C71.9801 15.9128 72.0702 15.9528 72.1427 16.0328C76.9501 21.4203 81.7701 26.7878 86.6026 32.1353C86.9439 32.5141 87.4389 33.1966 87.4464 33.7066C87.5889 44.5416 87.5614 55.3741 87.3639 66.204C87.3376 67.629 86.4976 68.3565 85.5901 69.3765C81.2401 74.254 76.8501 79.094 72.4202 83.8965C71.9814 84.3728 71.4452 84.5528 70.8452 84.5415C56.6214 84.3353 42.289 84.4253 28.1553 84.444C28.0711 84.444 27.9878 84.427 27.9105 84.3942C27.8332 84.3613 27.7634 84.3132 27.7053 84.2528Z" fill="white"/>
<path d="M29.6287 82.0175L15.7688 67.1713C15.5495 66.94 15.4262 66.6331 15.4237 66.3125C15.3287 56.325 15.3087 46.2751 15.3637 36.1626C15.3687 34.9101 15.7425 33.8851 16.485 33.0876C21.025 28.2151 25.4487 23.3626 29.7562 18.5301C29.8743 18.3968 30.0195 18.2898 30.1823 18.2161C30.3451 18.1425 30.5219 18.1038 30.7012 18.1026C43.6462 17.9863 56.5949 18.0351 69.5361 18.0538C70.3723 18.0538 70.4811 18.5376 70.9348 19.0513C75.3248 24.0188 79.7423 28.9626 84.1873 33.8826C84.6898 34.4376 84.7836 36.6501 84.7311 38.0151C84.3823 47.1726 84.6185 56.4238 84.6298 65.4988C84.6298 65.8873 84.4855 66.2616 84.2248 66.5488C79.6598 71.5538 75.0823 76.6213 70.4923 81.7513C69.6523 82.6925 66.0861 82.3625 64.5861 82.3438C58.9111 82.2738 48.5549 82.2575 33.5174 82.295C32.4862 82.295 31.1812 82.4788 29.9362 82.1938C29.8162 82.1663 29.7137 82.1075 29.6287 82.0175Z" fill="#D5393B"/>
<path d="M27.8698 23.2216C28.9611 22.1716 29.6698 21.3728 30.5735 20.4578C30.666 20.3653 30.776 20.3191 30.9035 20.3191H69.1309C69.2018 20.3192 69.2719 20.3343 69.3365 20.3634C69.4011 20.3924 69.4589 20.4349 69.5059 20.4878L82.7809 35.0866C82.8584 35.1716 82.8946 35.2716 82.8896 35.3866C82.6346 40.8241 82.8297 47.2066 82.7847 51.6541C82.7247 57.6615 82.7072 61.694 82.7322 63.7515C82.7434 64.8728 82.8184 65.154 82.0347 66.024C77.7922 70.7315 73.5634 75.4103 69.3484 80.0603C69.2739 80.1419 69.183 80.207 69.0816 80.2516C68.9802 80.2961 68.8706 80.3191 68.7597 80.319L30.8435 80.259C30.736 80.259 30.6448 80.219 30.5698 80.139L17.3961 66.0315C17.2998 65.9304 17.2461 65.7962 17.2461 65.6565C17.3261 55.6416 17.3486 45.8103 17.3136 36.1628C17.3111 35.5803 17.4973 35.0766 17.8723 34.6516C20.3248 31.8666 22.7936 29.0966 25.2786 26.3416C26.0698 25.4678 26.8836 24.1703 27.8698 23.2216Z" fill="white"/>
<path d="M48.4463 57.3351C48.39 57.272 48.3186 57.2242 48.2386 57.196C48.1587 57.1678 48.0727 57.1602 47.9888 57.1739L43.9313 57.8339C43.8746 57.8436 43.8231 57.8734 43.7861 57.918C43.749 57.9627 43.7287 58.0192 43.7288 58.0776C43.7588 63.2301 43.3613 68.8213 43.9838 73.9176C44.1863 75.5451 45.75 75.5901 46.9388 75.9313C47.0381 75.9614 47.1234 76.0261 47.1792 76.1135C47.2351 76.201 47.2578 76.3056 47.2433 76.4083C47.2289 76.5111 47.1781 76.6053 47.1002 76.6739C47.0224 76.7426 46.9226 76.7811 46.8188 76.7826H37.2188C37.1821 76.7826 37.1457 76.7752 37.1119 76.7607C37.0781 76.7462 37.0477 76.725 37.0224 76.6983C36.9971 76.6716 36.9776 76.64 36.9649 76.6055C36.9523 76.571 36.9468 76.5343 36.9488 76.4976C36.9688 76.1526 37.1501 75.9376 37.4926 75.8526C39.0826 75.4576 39.8876 74.3888 39.9076 72.6463C39.9651 67.7238 40.0188 62.7951 40.0688 57.8601C40.0713 57.7201 40.0026 57.6414 39.8626 57.6239C37.4476 57.3014 32.8163 56.3939 31.5601 54.4589C30.7051 53.1351 31.0763 49.6289 31.1701 48.0426C31.172 48.0052 31.1813 47.9685 31.1974 47.9346C31.2136 47.9008 31.2362 47.8704 31.2641 47.8454C31.2919 47.8203 31.3245 47.8009 31.3598 47.7885C31.3952 47.776 31.4327 47.7706 31.4701 47.7726L33.4538 47.8551C33.5006 47.857 33.5465 47.8689 33.5883 47.8901C33.63 47.9113 33.6668 47.9413 33.6959 47.9779C33.7251 48.0145 33.7461 48.057 33.7573 48.1025C33.7686 48.148 33.77 48.1953 33.7613 48.2414C33.5513 49.4451 33.6038 50.3826 34.6313 51.1964C36.1438 52.3914 37.8551 53.1951 39.7651 53.6076C39.8976 53.6376 39.9651 53.5851 39.9676 53.4501C40.0576 50.5514 40.3951 47.5214 39.1988 45.2114C39.1672 45.1505 39.1222 45.0974 39.0671 45.0559C39.0119 45.0144 38.9481 44.9855 38.8801 44.9714C38.3501 44.8689 37.9001 44.6276 37.5301 44.2476C37.4986 44.2149 37.4774 44.1737 37.469 44.1291C37.4607 44.0845 37.4656 44.0384 37.4831 43.9965C37.5007 43.9546 37.5301 43.9188 37.5677 43.8935C37.6054 43.8681 37.6497 43.8544 37.6951 43.8539C39.9626 43.8464 42.2538 43.8464 44.5688 43.8539C45.4125 43.8539 46.0275 44.2289 46.5525 44.7989C48.3325 46.7439 50.1288 48.6751 51.9413 50.5926C52.0288 50.6876 52.1025 50.6776 52.1625 50.5626C54.2438 46.5726 51.3225 43.7939 47.6325 43.1264C45.3326 42.7114 43.0363 42.2739 40.7438 41.8139C35.6551 40.7939 29.9288 36.1964 32.0926 30.2826C34.9013 22.6139 47.0513 22.5614 53.1263 23.7839C55.575 24.2789 56.505 25.6364 56.3775 28.1039C56.2988 29.6301 54.9488 29.8514 53.8013 29.8851C53.6599 29.8893 53.5209 29.8497 53.4033 29.7718C53.2857 29.6938 53.1955 29.5815 53.145 29.4501C52.2825 27.2151 50.4263 26.7651 48.0713 26.4126C45.225 25.9926 36.6563 26.2439 37.2076 31.1264C37.6463 34.9964 42.2438 35.7801 45.2176 36.4101C45.8 36.5351 46.71 36.6201 47.9475 36.6651C57.195 36.9951 61.3088 46.9176 55.11 53.8064C55.0125 53.9139 55.0138 54.0201 55.1138 54.1251L63.7387 63.1438C63.7542 63.1606 63.7745 63.1722 63.7967 63.1772C63.819 63.1822 63.8422 63.1802 63.8634 63.1717C63.8845 63.1632 63.9026 63.1484 63.9152 63.1294C63.9277 63.1103 63.9342 63.0879 63.9338 63.0651C63.8625 59.0114 63.7687 54.9614 63.9 50.8889C63.9787 48.4176 64.1325 44.9601 60.7913 44.6076C60.6238 44.5901 60.54 44.4964 60.54 44.3264V43.8576C60.5375 43.6651 60.6337 43.5689 60.8287 43.5689H70.2937C70.3567 43.5689 70.4188 43.584 70.4747 43.6129C70.5307 43.6419 70.5789 43.6838 70.6152 43.7353C70.6516 43.7867 70.6751 43.8461 70.6838 43.9085C70.6924 43.9709 70.686 44.0345 70.665 44.0939C70.5 44.5614 70.1487 44.7789 69.6112 44.7464C69.4737 44.7389 69.3525 44.7801 69.2475 44.8701C68.205 45.7576 67.68 46.8951 67.6725 48.2826C67.6475 54.1951 67.6437 63.2801 67.6612 75.5376C67.6637 76.0126 67.6 76.5688 67.47 77.2063C67.445 77.3263 67.3725 77.4001 67.2525 77.4276C66.5 77.5951 65.87 77.3851 65.3625 76.7976C59.7325 70.2651 54.0938 63.7776 48.4463 57.3351Z" fill="#D5393B"/>
<path d="M45.3864 53.7163C45.3996 53.7308 45.4067 53.7499 45.406 53.7696C45.4053 53.7892 45.3969 53.8078 45.3826 53.8213L45.3564 53.8476C45.1403 54.0416 44.8589 54.145 44.5741 54.1352C44.2893 54.1253 44.0243 54.003 43.8376 53.7951L43.8264 53.7838C43.6401 53.5757 43.5473 53.2992 43.5684 53.0151C43.5895 52.731 43.7227 52.4626 43.9389 52.2688L43.9651 52.2426C43.9801 52.2298 43.9995 52.2234 44.0192 52.2248C44.0388 52.2262 44.0571 52.2353 44.0701 52.2501L45.3864 53.7163Z" fill="white"/>
</svg>
