<svg width="100" height="100" viewBox="0 0 100 100" fill="none" xmlns="http://www.w3.org/2000/svg">
<g clip-path="url(#clip0_97_41)">
<rect width="100" height="100" fill="white"/>
<path d="M33.5855 44.4903C33.5919 44.4938 33.5975 44.4985 33.6019 44.5043C33.6063 44.51 33.6094 44.5166 33.6109 44.5236C33.6162 44.5501 33.6125 44.5744 33.5998 44.5966C33.5913 44.6115 33.577 44.6236 33.5569 44.6331C31.9961 45.3263 30.4606 46.0252 28.9506 46.73C28.9186 46.7447 28.8833 46.7503 28.8485 46.7461C28.8138 46.7419 28.7809 46.728 28.7537 46.7062C25.4797 44.048 21.9178 41.8892 18.068 40.23C16.1236 39.3935 14.5014 38.9697 12.5029 38.9395C11.4363 38.9236 9.87438 39.3887 9.44898 40.4792C8.56803 42.7331 11.876 47.5268 13.2109 49.2871C13.2123 49.289 13.2132 49.2912 13.2136 49.2935C13.2141 49.2959 13.214 49.2983 13.2134 49.3005C13.2128 49.3028 13.2117 49.3049 13.2101 49.3067C13.2086 49.3085 13.2067 49.31 13.2045 49.3109C13.2014 49.312 13.1987 49.3125 13.1966 49.3125C13.1902 49.3146 13.1844 49.313 13.1791 49.3078C11.1045 47.1728 6.95692 42.0855 8.89184 39.0935C11.1522 35.5982 17.9776 37.2506 21.0283 38.4633C25.3363 40.176 29.4696 42.3395 33.5855 44.4903Z" fill="#D22046"/>
<path d="M41.7316 52.484C41.7378 52.4904 41.7458 52.4947 41.7545 52.4965C41.7632 52.4983 41.7722 52.4974 41.7804 52.494C41.7886 52.4905 41.7956 52.4848 41.8005 52.4773C41.8053 52.4699 41.8079 52.4612 41.8078 52.4523L41.7205 48.9396C41.7186 48.8614 41.6896 48.7863 41.6384 48.7269C41.5872 48.6676 41.5169 48.6278 41.4395 48.6142L41.0697 48.5523C41.0579 48.5495 41.0476 48.5425 41.0405 48.5327C41.0334 48.5229 41.03 48.511 41.031 48.4989C41.0319 48.4869 41.0372 48.4756 41.0457 48.467C41.0542 48.4585 41.0656 48.4533 41.0776 48.4523H42.8792C42.8993 48.4523 42.9062 48.4618 42.8998 48.4809C42.8945 48.4978 42.8892 48.5142 42.8839 48.5301C42.8808 48.5407 42.8739 48.5459 42.8633 48.5459C42.2839 48.5444 42.322 48.9094 42.3141 49.3618C42.2855 50.9174 42.2543 52.4179 42.2205 53.8634C42.2152 54.0835 42.1353 54.1153 41.9808 53.9586L38.0633 49.9809C38.0574 49.9752 38.0501 49.9715 38.0421 49.97C38.0341 49.9686 38.0258 49.9695 38.0184 49.9728C38.0109 49.976 38.0046 49.9813 38.0001 49.9881C37.9957 49.9949 37.9934 50.0029 37.9935 50.011L38.0982 53.4682C38.1 53.5343 38.1243 53.5979 38.167 53.6481C38.2098 53.6984 38.2684 53.7324 38.3332 53.7444L38.7728 53.8285C38.7859 53.8297 38.7979 53.8361 38.8062 53.8463C38.8146 53.8564 38.8185 53.8694 38.8173 53.8825C38.816 53.8955 38.8096 53.9075 38.7995 53.9159C38.7894 53.9242 38.7764 53.9282 38.7633 53.9269L36.8887 53.9285C36.8242 53.9285 36.8088 53.901 36.8427 53.8459C36.8511 53.8332 36.8628 53.8227 36.8776 53.8142C36.9982 53.7444 37.2141 53.784 37.3808 53.6888C37.4045 53.6753 37.4243 53.6559 37.4383 53.6325C37.4522 53.6091 37.4597 53.5826 37.4601 53.5555L37.5538 48.4523C37.557 48.2777 37.622 48.2555 37.749 48.3856L41.7316 52.484Z" fill="#0A509D"/>
<path d="M35.286 50.4521C35.3755 50.8191 35.3887 51.2008 35.3251 51.5755C35.2614 51.9502 35.122 52.3106 34.9149 52.6359C34.7078 52.9613 34.437 53.2454 34.118 53.472C33.799 53.6985 33.438 53.8631 33.0556 53.9563C32.2835 54.1445 31.4711 54.0306 30.7973 53.6397C30.1236 53.2488 29.6436 52.6128 29.4629 51.8717C29.3734 51.5047 29.3602 51.123 29.4238 50.7483C29.4875 50.3736 29.6269 50.0133 29.834 49.6879C30.0411 49.3625 30.3119 49.0784 30.6309 48.8519C30.9499 48.6253 31.3109 48.4608 31.6933 48.3675C32.4655 48.1793 33.2778 48.2932 33.9516 48.6841C34.6253 49.0751 35.1054 49.711 35.286 50.4521Z" fill="#0A509D"/>
<path d="M69.6856 49.9984C69.6771 51.0736 69.7089 52.1577 69.7808 53.2508C69.8094 53.6667 70.0157 53.8381 70.4189 53.8016C70.4271 53.8011 70.4354 53.8026 70.4429 53.8061C70.4503 53.8096 70.4568 53.8149 70.4617 53.8215C70.4666 53.8281 70.4698 53.8359 70.4709 53.8441C70.472 53.8522 70.4711 53.8606 70.4681 53.8683C70.4544 53.9021 70.4406 53.9191 70.4268 53.9191C69.811 53.9286 69.1956 53.9307 68.5808 53.9254C68.5332 53.9254 68.5163 53.9027 68.53 53.8572C68.5342 53.8413 68.539 53.8254 68.5443 53.8095C68.5475 53.8 68.5538 53.7958 68.5634 53.7969C68.9517 53.8381 69.148 53.6476 69.1522 53.2254C69.1692 51.6117 69.2009 50.0111 69.2475 48.4238C69.2478 48.4051 69.2538 48.3869 69.2645 48.3716C69.2753 48.3563 69.2905 48.3445 69.3081 48.3377C69.3257 48.331 69.345 48.3295 69.3636 48.3335C69.3821 48.3375 69.3992 48.3469 69.4126 48.3603L73.3586 52.4349C73.3695 52.4461 73.3834 52.4536 73.3987 52.4567C73.4139 52.4598 73.4297 52.4583 73.4441 52.4523C73.4584 52.4463 73.4706 52.4362 73.4792 52.4232C73.4877 52.4102 73.4921 52.3949 73.4919 52.3794C73.4665 51.3011 73.4337 50.2133 73.3935 49.1159C73.3861 48.9043 73.3316 48.7461 73.23 48.6413C73.2094 48.6197 73.182 48.6057 73.1522 48.6016L72.711 48.5381C72.7024 48.5359 72.6949 48.5307 72.6898 48.5236C72.6846 48.5164 72.6821 48.5077 72.6827 48.4989C72.6832 48.4901 72.6868 48.4817 72.6929 48.4753C72.6989 48.4688 72.707 48.4647 72.7157 48.4635C73.3104 48.4519 73.8993 48.4339 74.4824 48.4096C74.5194 48.4085 74.5411 48.4244 74.5475 48.4572C74.5549 48.4984 74.5385 48.5254 74.4983 48.5381L74.1173 48.6635C74.0517 48.6847 74.0178 48.7297 74.0157 48.7984C73.9607 50.2725 73.9395 51.7439 73.9522 53.2127C73.9544 53.4931 73.9284 53.7233 73.8745 53.9032C73.83 54.0513 73.7533 54.0699 73.6443 53.9588L69.7395 49.9762C69.7351 49.9719 69.7295 49.9689 69.7234 49.9677C69.7173 49.9665 69.711 49.9672 69.7052 49.9695C69.6995 49.9719 69.6946 49.9759 69.6911 49.981C69.6876 49.9862 69.6857 49.9922 69.6856 49.9984Z" fill="#0A509D"/>
<path d="M89.607 50.4495C89.7888 51.1894 89.6561 51.9745 89.2383 52.6319C88.8204 53.2894 88.1516 53.7654 87.3789 53.9551C86.6062 54.1449 85.793 54.033 85.1181 53.644C84.4432 53.2549 83.962 52.6206 83.7802 51.8807C83.5985 51.1407 83.7311 50.3556 84.1489 49.6982C84.5668 49.0407 85.2356 48.5648 86.0083 48.375C86.781 48.1852 87.5942 48.2971 88.2691 48.6862C88.944 49.0752 89.4252 49.7095 89.607 50.4495Z" fill="#0A509D"/>
<path d="M27.6696 53.8016C27.7405 53.7952 27.794 53.8079 27.8299 53.8397C27.8373 53.8463 27.8424 53.8549 27.8448 53.8645C27.8471 53.874 27.8465 53.8841 27.8431 53.8933C27.8397 53.9025 27.8336 53.9105 27.8256 53.9162C27.8176 53.922 27.808 53.9252 27.7982 53.9254C27.0839 53.9317 26.3665 53.9312 25.6458 53.9238C25.6067 53.9238 25.5823 53.9063 25.5728 53.8714C25.5702 53.863 25.5697 53.8541 25.5713 53.8455C25.5729 53.8368 25.5766 53.8287 25.5821 53.8218C25.5876 53.8149 25.5947 53.8095 25.6027 53.806C25.6108 53.8024 25.6196 53.8009 25.6284 53.8016C26.1855 53.8381 26.1347 53.5063 26.1522 53.1016C26.2305 51.3079 26.2299 49.9037 26.1506 48.8889C26.1315 48.6487 25.9755 48.5434 25.6823 48.573C25.6411 48.5772 25.6109 48.5709 25.5919 48.554C25.577 48.5423 25.5675 48.5275 25.5633 48.5095C25.5538 48.4704 25.5691 48.4508 25.6093 48.4508C26.2633 48.4614 26.9172 48.4561 27.5712 48.4349C27.6061 48.4339 27.6294 48.4407 27.6411 48.4556C27.6495 48.4651 27.6548 48.4778 27.6569 48.4937C27.6577 48.5013 27.656 48.509 27.6519 48.5154C27.6478 48.5218 27.6418 48.5264 27.6347 48.5286L27.1855 48.6571C27.1601 48.6645 27.1376 48.6798 27.1214 48.7009C27.1051 48.722 27.0959 48.7478 27.095 48.7746C27.0442 50.2899 27.0437 51.8032 27.0934 53.3143C27.1046 53.6952 27.3077 53.8381 27.6696 53.8016Z" fill="#0A509D"/>
<path d="M46.9078 53.4618C47.3824 53.6285 48.4633 53.7364 48.5554 52.9793C48.5607 52.9391 48.5707 52.911 48.5856 52.8952C48.6046 52.8751 48.6279 52.8645 48.6554 52.8634C48.6924 52.8624 48.7088 52.8798 48.7046 52.9158L48.6205 53.819C48.6169 53.8533 48.6009 53.885 48.5757 53.908C48.5504 53.9309 48.5177 53.9433 48.484 53.9428L45.1967 53.9237C45.1891 53.9238 45.1817 53.9215 45.1755 53.9174C45.1692 53.9132 45.1643 53.9072 45.1614 53.9002C45.1585 53.8933 45.1577 53.8856 45.1592 53.8782C45.1607 53.8708 45.1643 53.864 45.1697 53.8587L45.2062 53.8222C45.2136 53.8147 45.2221 53.811 45.2316 53.811C45.5766 53.8333 45.7501 53.6576 45.7522 53.2841C45.7565 51.8946 45.7575 50.5058 45.7554 49.1174C45.7538 48.6968 45.5713 48.492 45.1459 48.5825C45.1328 48.5855 45.1191 48.5849 45.1064 48.5805C45.0937 48.5762 45.0825 48.5683 45.074 48.5579C45.0656 48.5474 45.0602 48.5348 45.0586 48.5215C45.057 48.5081 45.0592 48.4946 45.0649 48.4825C45.0829 48.4433 45.1173 48.4248 45.1681 48.4269C46.2644 48.465 47.3607 48.4634 48.457 48.4222C48.5025 48.4211 48.5231 48.4433 48.5189 48.4888L48.4411 49.3698C48.4407 49.3828 48.4356 49.3952 48.4267 49.4048C48.4178 49.4143 48.4058 49.4203 48.3928 49.4217C48.3798 49.423 48.3668 49.4197 48.3561 49.4122C48.3455 49.4047 48.3379 49.3935 48.3348 49.3809L48.2427 49.0729C48.2256 49.0152 48.1911 48.9642 48.144 48.9267C48.0968 48.8892 48.0393 48.8671 47.9792 48.8634L46.7919 48.792C46.7743 48.7909 46.7567 48.7935 46.7401 48.7995C46.7236 48.8056 46.7085 48.8151 46.6958 48.8273C46.6831 48.8396 46.6731 48.8543 46.6664 48.8707C46.6597 48.887 46.6565 48.9045 46.657 48.9222L46.6887 50.7047C46.6891 50.7371 46.7021 50.7682 46.7249 50.7912C46.7477 50.8143 46.7785 50.8277 46.811 50.8285C47.2332 50.8444 47.9887 50.8809 48.3348 50.6301C48.3877 50.592 48.411 50.6058 48.4046 50.6714L48.3141 51.738C48.3128 51.7512 48.3068 51.7634 48.2973 51.7725C48.2877 51.7817 48.2753 51.7871 48.2621 51.7879C48.2489 51.7886 48.2359 51.7847 48.2253 51.7767C48.2148 51.7687 48.2075 51.7573 48.2046 51.7444L48.1268 51.3825C48.1172 51.3369 48.0926 51.2957 48.0571 51.2653C48.0215 51.2349 47.9769 51.217 47.93 51.2142L46.7459 51.146C46.7346 51.1453 46.7233 51.147 46.7127 51.151C46.7021 51.1549 46.6924 51.1611 46.6843 51.169C46.6763 51.1769 46.6699 51.1865 46.6658 51.197C46.6616 51.2075 46.6597 51.2188 46.6602 51.2301L46.7173 53.2031C46.7192 53.2606 46.7385 53.3161 46.7725 53.3623C46.8065 53.4085 46.8537 53.4432 46.9078 53.4618Z" fill="#0A509D"/>
<path d="M52.7952 50.7714C53.3296 50.8412 53.855 50.8158 54.3714 50.6952C54.4338 50.6804 54.4624 50.7052 54.4571 50.7698L54.3698 51.7126C54.3656 51.756 54.3417 51.7756 54.2984 51.7714C54.2634 51.7682 54.2455 51.746 54.2444 51.7047C54.2402 51.5206 54.1867 51.3756 54.0841 51.2698C54.0525 51.2371 54.0095 51.2173 53.9634 51.2142L52.8238 51.1428C52.773 51.1396 52.7465 51.164 52.7444 51.2158C52.7317 51.7476 52.6253 52.9063 52.8222 53.3555C52.834 53.3827 52.8519 53.4068 52.8744 53.4261C52.897 53.4453 52.9236 53.4592 52.9523 53.4666C53.4116 53.5883 53.8714 53.5904 54.3317 53.4729C54.3973 53.456 54.4428 53.4169 54.4682 53.3555L54.6666 52.8714C54.6719 52.8586 54.6816 52.8482 54.694 52.8421C54.7063 52.836 54.7205 52.8345 54.7338 52.838C54.7471 52.8415 54.7588 52.8497 54.7666 52.861C54.7743 52.8724 54.7777 52.8862 54.7761 52.8999L54.6634 53.8079C54.6596 53.841 54.6435 53.8716 54.6184 53.8938C54.5932 53.9161 54.5607 53.9284 54.5269 53.9285H51.265C51.251 53.9287 51.2373 53.9238 51.2267 53.9146C51.216 53.9053 51.2092 53.8925 51.2074 53.8786C51.2056 53.8646 51.2091 53.8505 51.2171 53.8389C51.2251 53.8273 51.2371 53.8191 51.2507 53.8158L51.5412 53.7428C51.6193 53.7227 51.6885 53.6774 51.738 53.6139C51.7874 53.5504 51.8142 53.4723 51.8142 53.392L51.8285 48.9237C51.8284 48.8447 51.7995 48.7684 51.7472 48.7091C51.6949 48.6498 51.6228 48.6115 51.5444 48.6015L51.1349 48.5523C51.0841 48.546 51.0724 48.5206 51.0999 48.4761C51.1126 48.456 51.1296 48.446 51.1507 48.446C52.2661 48.465 53.382 48.4581 54.4984 48.4253C54.5407 48.4243 54.5608 48.4449 54.5587 48.4872L54.5111 49.3872C54.5105 49.3971 54.5071 49.4067 54.5012 49.4149C54.4953 49.423 54.4872 49.4294 54.4777 49.4333C54.464 49.4375 54.4497 49.4423 54.4349 49.4476C54.4264 49.4507 54.4206 49.4476 54.4174 49.438L54.2619 48.9856C54.2365 48.9105 54.1841 48.8708 54.1047 48.8666L52.8285 48.7936C52.817 48.7927 52.8053 48.7943 52.7944 48.7982C52.7835 48.8021 52.7734 48.8083 52.7649 48.8163C52.7564 48.8244 52.7497 48.8341 52.745 48.845C52.7404 48.8558 52.738 48.8675 52.738 48.8793V50.7063C52.738 50.7444 52.7571 50.7661 52.7952 50.7714Z" fill="#0A509D"/>
<path d="M60.0379 51.4459C60.6808 52.33 61.4538 53.5046 62.5474 53.8189C62.648 53.8475 62.6469 53.8724 62.5443 53.8935C61.8617 54.03 61.1379 53.9951 60.6411 53.438C60.1681 52.9068 59.7406 52.3417 59.3586 51.7427C59.3463 51.7236 59.3295 51.7078 59.3097 51.6964C59.2898 51.6851 59.2673 51.6787 59.2443 51.6777L58.5967 51.6443C58.5437 51.6422 58.5157 51.6671 58.5125 51.7189C58.4617 52.5327 58.476 53.1142 58.5554 53.4634C58.6379 53.83 58.8601 53.7443 59.1332 53.803C59.1488 53.8066 59.1626 53.8157 59.1719 53.8288C59.1812 53.8418 59.1853 53.8578 59.1836 53.8737C59.1818 53.8896 59.1742 53.9044 59.1623 53.915C59.1503 53.9257 59.1349 53.9316 59.1189 53.9316L57.1538 53.9237C57.1415 53.9233 57.1298 53.9186 57.1208 53.9103C57.1118 53.902 57.1061 53.8907 57.1047 53.8785C57.1034 53.8663 57.1065 53.8541 57.1134 53.844C57.1204 53.8339 57.1308 53.8267 57.1427 53.8237L57.4125 53.757C57.4728 53.7433 57.5131 53.7068 57.5332 53.6475C57.5797 53.5205 57.6057 53.3893 57.6109 53.2538C57.6776 51.7713 57.6824 50.2888 57.6252 48.8062C57.6231 48.7353 57.5877 48.6914 57.5189 48.6745L57.0109 48.5411C56.9644 48.5295 56.9559 48.5041 56.9855 48.465C57.0342 48.3993 57.1014 48.3861 57.1871 48.4253C57.2295 48.4443 57.2739 48.4533 57.3205 48.4523C58.1252 48.4507 59.4808 48.311 60.1554 48.6046C61.4681 49.1729 60.8411 50.6221 60.0522 51.3126C60.0067 51.3517 60.0019 51.3962 60.0379 51.4459Z" fill="#0A509D"/>
<path d="M64.744 53.6573C64.8033 53.4393 64.834 53.216 64.8361 52.9874C64.853 51.6583 64.853 50.3282 64.8361 48.997C64.834 48.7589 64.6478 48.6017 64.2774 48.5255C64.2685 48.5247 64.2604 48.5204 64.2547 48.5135C64.2491 48.5067 64.2464 48.4979 64.2472 48.489C64.2481 48.4802 64.2524 48.472 64.2592 48.4664C64.2661 48.4607 64.2749 48.458 64.2837 48.4589L66.2345 48.4382C66.2452 48.4384 66.2554 48.4423 66.2635 48.4493C66.2716 48.4562 66.2771 48.4657 66.2789 48.4762C66.2808 48.4866 66.279 48.4975 66.2738 48.5067C66.2686 48.516 66.2603 48.5232 66.2504 48.5271L65.9631 48.6287C65.9017 48.6507 65.8486 48.691 65.8111 48.7441C65.7736 48.7973 65.7535 48.8606 65.7536 48.9255V53.4446C65.7535 53.5218 65.782 53.5963 65.8336 53.6537C65.8852 53.7111 65.9562 53.7475 66.0329 53.7557L66.4313 53.8001C66.445 53.8031 66.4572 53.8108 66.4657 53.8219C66.4743 53.833 66.4785 53.8468 66.4777 53.8608C66.477 53.8748 66.4712 53.888 66.4616 53.8981C66.4519 53.9083 66.4389 53.9146 66.425 53.916L64.4171 53.9351C64.4015 53.9361 64.3861 53.9312 64.3739 53.9214C64.3618 53.9116 64.3538 53.8975 64.3516 53.882C64.3494 53.8666 64.3531 53.8509 64.362 53.838C64.3709 53.8252 64.3843 53.8162 64.3996 53.8128L64.6536 53.7478C64.6753 53.742 64.6951 53.7306 64.711 53.7147C64.7269 53.6989 64.7383 53.679 64.744 53.6573Z" fill="#0A509D"/>
<path d="M21.7459 53.6825C21.9157 53.8206 22.149 53.7222 22.2887 53.8222C22.2987 53.8294 22.3062 53.8396 22.3101 53.8513C22.314 53.863 22.3141 53.8756 22.3104 53.8874C22.3067 53.8992 22.2994 53.9095 22.2895 53.9169C22.2797 53.9243 22.2677 53.9284 22.2554 53.9286H20.1744C20.1592 53.9287 20.1445 53.9231 20.133 53.913C20.1216 53.9029 20.1143 53.889 20.1126 53.8739C20.1108 53.8587 20.1147 53.8435 20.1235 53.831C20.1322 53.8186 20.1453 53.8098 20.1601 53.8063L20.5252 53.7127C20.5919 53.6958 20.6268 53.6529 20.63 53.5841C20.6882 52.1545 20.6982 50.7275 20.6601 49.3032C20.6517 49.0048 20.6474 48.8545 20.6474 48.8524C20.5903 48.5524 20.3252 48.6111 20.0744 48.573C20.0589 48.572 20.0443 48.5648 20.0341 48.553C20.0238 48.5412 20.0186 48.5259 20.0197 48.5103C20.0207 48.4947 20.0279 48.4802 20.0397 48.47C20.0514 48.4597 20.0668 48.4545 20.0824 48.4556C20.9427 48.4476 22.5332 48.2778 23.2522 48.6619C24.203 49.1683 24.0236 50.3825 23.3474 51.0143C22.9877 51.3508 22.5236 51.4989 21.9554 51.4587C21.9423 51.4589 21.9297 51.454 21.9204 51.4449C21.911 51.4358 21.9056 51.4234 21.9054 51.4103C21.9052 51.3973 21.9102 51.3847 21.9192 51.3753C21.9283 51.3659 21.9407 51.3605 21.9538 51.3603C23.6316 51.173 23.2808 48.5016 21.6665 48.7556C21.6136 48.764 21.5861 48.7947 21.584 48.8476C21.5205 50.3481 21.5268 51.8439 21.603 53.3349C21.6115 53.4968 21.6591 53.6127 21.7459 53.6825Z" fill="#0A509D"/>
<path d="M76.9139 53.5588C76.9695 51.9556 77.0171 50.3842 76.9329 48.7762C76.9315 48.7492 76.9213 48.7234 76.9038 48.7028C76.8863 48.6822 76.8625 48.6678 76.8361 48.662L76.3456 48.5461C76.3404 48.544 76.3361 48.5408 76.333 48.5366L76.3123 48.5001C76.2964 48.4747 76.3038 48.4614 76.3345 48.4604C77.3568 48.4424 78.3784 48.4429 79.3996 48.462C82.706 48.5239 83.1631 52.7794 80.2742 53.7874C79.2218 54.154 77.5949 53.9397 76.4282 53.9143C76.4007 53.9143 76.3806 53.9069 76.3679 53.8921C76.3509 53.8731 76.3546 53.8593 76.379 53.8508L76.8171 53.6921C76.8795 53.6699 76.9118 53.6255 76.9139 53.5588Z" fill="#0A509D"/>
<path d="M30.4293 51.5134C30.6772 52.8913 31.7448 53.8523 32.8138 53.66C33.8828 53.4677 34.5484 52.1948 34.3005 50.8169C34.0525 49.439 32.985 48.4779 31.916 48.6703C30.847 48.8626 30.1814 50.1355 30.4293 51.5134Z" fill="white"/>
<path d="M84.7528 51.5193C85.0057 52.8972 86.0747 53.8556 87.1404 53.66C88.2061 53.4644 88.8651 52.1889 88.6122 50.811C88.3593 49.4331 87.2904 48.4747 86.2246 48.6703C85.1589 48.8659 84.5 50.1415 84.7528 51.5193Z" fill="white"/>
<path d="M58.4888 49.0095C58.4886 48.9803 58.4941 48.9513 58.5051 48.9243C58.5161 48.8973 58.5322 48.8726 58.5527 48.8519C58.5732 48.8311 58.5976 48.8145 58.6245 48.8032C58.6514 48.7918 58.6802 48.7859 58.7094 48.7857H59.0427C59.3138 48.7845 59.5742 48.9096 59.7668 49.1335C59.9594 49.3573 60.0683 49.6616 60.0697 49.9793V50.1317C60.0704 50.2891 60.0446 50.4451 59.9939 50.5908C59.9431 50.7365 59.8683 50.8689 59.7739 50.9807C59.6794 51.0924 59.567 51.1812 59.4432 51.242C59.3194 51.3027 59.1865 51.3343 59.0523 51.3349H58.7189C58.6897 51.3351 58.6608 51.3295 58.6338 51.3186C58.6067 51.3076 58.5821 51.2914 58.5613 51.2709C58.5405 51.2504 58.524 51.226 58.5126 51.1991C58.5013 51.1723 58.4953 51.1434 58.4951 51.1142L58.4888 49.0095Z" fill="white"/>
<path d="M80.3094 53.2935C79.9157 53.5539 77.957 54.057 77.9348 53.084C77.9041 51.6904 77.8903 50.3152 77.8935 48.9586C77.894 48.9179 77.9092 48.8787 77.9363 48.8484C77.9635 48.818 78.0007 48.7985 78.0411 48.7935C79.5443 48.6237 80.93 49.3174 81.1634 50.9396C81.2983 51.8761 81.13 52.7491 80.3094 53.2935Z" fill="white"/>
<path d="M27.2605 60.0221C29.7288 60.9999 34.2367 61.7618 35.3954 58.4571C35.5589 57.9888 35.6716 57.1158 35.6049 56.665C35.4811 55.8216 35.569 55.8057 35.8684 56.6174C36.4986 58.3237 35.8732 60.9031 34.324 61.9396C33.224 62.6761 31.7684 62.8841 30.3526 62.8491C26.5621 62.7555 23.3256 61.4936 19.8907 59.8983C16.5711 58.3565 13.3034 56.747 10.0875 55.0698C10.0652 55.0581 10.0466 55.0405 10.0336 55.0189C10.0205 54.9974 10.0137 54.9727 10.0137 54.9475C10.0137 54.9224 10.0205 54.8977 10.0336 54.8762C10.0466 54.8546 10.0652 54.837 10.0875 54.8253C11.5076 54.074 12.9325 53.3624 14.3621 52.6904C14.5642 52.5952 14.7743 52.5296 14.9922 52.4936C15.0177 52.4892 15.0439 52.4909 15.0685 52.4987C15.093 52.5064 15.1154 52.5199 15.1335 52.538C18.3843 55.7952 22.97 58.3253 27.2605 60.0221Z" fill="#FBB032"/>
</g>
<defs>
<clipPath id="clip0_97_41">
<rect width="100" height="100" fill="white"/>
</clipPath>
</defs>
</svg>
