<svg width="100" height="100" viewBox="0 0 100 100" fill="none" xmlns="http://www.w3.org/2000/svg">
<rect width="100" height="100" fill="#BC8445"/>
<path d="M75.1222 20.579C83.2022 25.889 69.3022 34.639 64.9522 36.939C50.6522 44.489 31.9422 48.549 16.0022 50.249C15.8873 50.2602 15.7714 50.2424 15.6651 50.1973C15.5588 50.1521 15.4656 50.0809 15.3939 49.9904C15.3223 49.8998 15.2745 49.7927 15.255 49.6789C15.2355 49.5651 15.2448 49.4482 15.2822 49.339C18.9922 38.699 31.3222 32.959 41.5222 30.799C41.541 30.7958 41.5604 30.7994 41.5767 30.8093C41.5931 30.8191 41.6054 30.8344 41.6115 30.8526C41.6175 30.8707 41.6169 30.8904 41.6097 30.908C41.6025 30.9257 41.5892 30.9402 41.5722 30.949C36.2922 33.639 30.6022 36.909 28.1722 42.159C28.0436 42.4364 28.0222 42.7533 28.1122 43.049C29.7122 48.189 43.2822 43.759 46.8722 42.589C47.1655 42.4957 47.3622 42.299 47.4622 41.999C50.8622 31.799 52.7289 24.879 53.0622 21.239C53.2689 19.0123 52.4655 17.619 50.6522 17.059C46.4922 15.769 40.7722 19.849 38.0722 22.799C34.7922 26.399 31.2922 25.829 26.9022 25.789C24.2522 25.769 21.9322 24.099 24.3122 21.579C35.7122 9.46899 73.5722 9.11898 85.9622 18.959C96.0222 26.949 87.3122 40.179 79.2022 46.249C72.9155 50.9557 66.2022 54.9823 59.0622 58.329C58.9178 58.398 58.7896 58.498 58.6861 58.6221C58.5827 58.7463 58.5063 58.8918 58.4622 59.049C56.6222 65.989 54.6822 76.759 50.3422 81.859C45.2022 87.909 36.2422 88.989 28.8422 87.209C17.9422 84.579 11.2322 75.889 10.0122 64.769C9.9832 64.5096 10.0061 64.2469 10.0794 63.9962C10.1528 63.7455 10.2753 63.5117 10.4398 63.3081C10.6043 63.1046 10.8076 62.9354 11.038 62.8102C11.2683 62.6851 11.5213 62.6065 11.7822 62.579C14.4822 62.289 19.4522 62.879 18.3522 67.049C13.1822 86.629 44.4922 84.519 39.8522 65.819C39.8143 65.6692 39.8319 65.5107 39.9018 65.3728C39.9716 65.235 40.089 65.1271 40.2322 65.069C50.9789 60.6957 60.8188 56.0023 69.7522 50.989C77.3422 46.729 84.8922 41.119 88.0222 32.289C89.9222 26.9423 88.7255 22.549 84.4322 19.109C84.3389 19.029 84.2488 18.989 84.1622 18.989C84.0622 18.989 83.9922 19.0323 83.9522 19.119C83.9255 19.179 83.9355 19.2323 83.9822 19.279C91.0122 26.769 85.9622 36.069 79.4822 41.699C68.1022 51.569 54.0422 57.229 40.3122 63.019C39.0455 63.5523 37.9655 63.4057 37.0722 62.579C36.9765 62.4924 36.9051 62.3823 36.8651 62.2596C36.8251 62.1369 36.8178 62.0059 36.8441 61.8795C36.8704 61.7532 36.9293 61.6359 37.0149 61.5393C37.1005 61.4427 37.2099 61.3702 37.3322 61.329C51.4322 56.569 69.6022 49.539 80.4322 38.949C84.8122 34.659 88.7022 25.009 83.2822 19.999C83.217 19.9448 83.1347 19.9154 83.0499 19.9159C82.9651 19.9164 82.8832 19.9469 82.8187 20.0019C82.7542 20.0568 82.7111 20.1328 82.6971 20.2165C82.6831 20.3001 82.6991 20.386 82.7422 20.459C90.0422 31.539 74.4622 42.599 66.5422 46.729C56.3955 52.0223 45.9122 56.5223 35.0922 60.229C32.6822 61.059 30.2522 60.779 27.7622 60.789C25.1022 60.8023 25.0622 60.4857 27.6422 59.839C44.2522 55.689 58.4722 50.369 71.4022 42.079C77.8522 37.949 88.4522 27.589 80.6222 19.659C80.4688 19.499 80.3055 19.4857 80.1322 19.619C79.9855 19.7257 79.9722 19.8623 80.0922 20.029C89.2422 32.519 64.8022 44.619 56.6422 48.119C44.1622 53.4657 32.4755 57.279 21.5822 59.559C19.7622 59.9323 18.2522 59.2057 17.0522 57.379C16.8655 57.0923 16.9422 56.9223 17.2822 56.869C32.4622 54.489 47.0489 50.2323 61.0422 44.099C67.4322 41.299 88.8322 29.379 78.2422 19.689C78.1952 19.6449 78.1335 19.6198 78.069 19.6186C78.0046 19.6174 77.942 19.6402 77.8934 19.6826C77.8448 19.7249 77.8137 19.7838 77.8061 19.8479C77.7985 19.9119 77.8149 19.9764 77.8522 20.029C91.7222 39.559 26.4022 53.749 16.1922 55.469C16.0343 55.4958 15.8725 55.4605 15.7415 55.3707C15.6106 55.2809 15.521 55.1438 15.4922 54.989L15.0222 52.629C14.9422 52.2223 15.1088 51.999 15.5222 51.959C29.9222 50.5323 44.1889 47.1523 58.3222 41.819C64.2722 39.569 74.8322 34.209 77.6222 28.479C79.0822 25.469 79.0922 21.349 75.3022 20.179C75.2501 20.1603 75.1929 20.162 75.1419 20.1836C75.091 20.2053 75.0501 20.2453 75.0274 20.2958C75.0046 20.3463 75.0018 20.4035 75.0194 20.456C75.0369 20.5084 75.0737 20.5524 75.1222 20.579ZM75.4522 26.479C78.3722 21.719 72.2622 20.719 69.2322 21.439C68.8389 21.5323 68.5889 21.7723 68.4822 22.159L65.0522 34.529C64.9322 34.9757 65.0822 35.109 65.5022 34.929C69.7888 33.1157 73.1055 30.299 75.4522 26.479Z" fill="white"/>
</svg>
