<svg width="100" height="100" viewBox="0 0 100 100" fill="none" xmlns="http://www.w3.org/2000/svg">
<g clip-path="url(#clip0_97_43)">
<rect width="100" height="100" fill="#FFCB44"/>
<path fill-rule="evenodd" clip-rule="evenodd" d="M-22.5011 56.225C-9.62613 48.975 19.5738 33.65 33.3737 30.35C40.5737 28.85 45.3737 29.475 46.8737 29.975L53.9987 37.85C59.8736 36.1 72.7486 32.975 77.2486 34.475C82.8736 36.35 87.7485 46.475 88.1235 53.975C83.9986 51.6 74.1736 48.35 67.8736 54.35C61.5736 60.35 40.9987 83.85 31.4987 94.85L37.4987 97.475C42.7487 90.35 54.8987 74.45 61.4986 67.85C58.8736 75.725 55.7237 93.05 64.1236 99.35L65.2486 106.1C61.4765 105.808 55.5183 106.279 48.4088 106.842C15.9387 109.409 -40.5484 113.877 -22.5011 56.225ZM40.124 44.225C38.924 43.925 34.374 39.6 32.249 37.475C42.749 33.575 49.874 37.35 52.124 39.725C48.624 41.35 41.324 44.525 40.124 44.225ZM38.6236 58.85C27.2237 58.55 10.1237 69.975 2.99876 75.725L15.7487 83.975C22.0487 72.875 33.6237 62.6 38.6236 58.85Z" fill="url(#paint0_linear_97_43)"/>
</g>
<defs>
<linearGradient id="paint0_linear_97_43" x1="-22.4974" y1="82.729" x2="93.3927" y2="37.3169" gradientUnits="userSpaceOnUse">
<stop stop-color="#333333"/>
<stop offset="1"/>
</linearGradient>
<clipPath id="clip0_97_43">
<rect width="100" height="100" fill="white"/>
</clipPath>
</defs>
</svg>
