<svg width="100" height="100" viewBox="0 0 100 100" fill="none" xmlns="http://www.w3.org/2000/svg">
<rect width="100" height="100" fill="#1D3220"/>
<mask id="mask0_97_44" style="mask-type:alpha" maskUnits="userSpaceOnUse" x="17" y="19" width="67" height="61">
<path d="M83.0156 19.5156H17.4844V37.2344H29.0156V54.3906H41.3906V37.2344H43.9219V54.3906H56.5781V37.2344H59.1094V54.3906H71.4844V37.2344H83.0156V19.5156Z" fill="#3D6E41"/>
<path d="M43.9219 69.8594H41.3906V57.2031H29.0156V79.9844H71.4844V57.2031H59.1094V69.8594H56.5781V57.2031H43.9219V69.8594Z" fill="#3D6E41"/>
</mask>
<g mask="url(#mask0_97_44)">
<path d="M83.0156 19.5156H17.4844V37.2344H29.0156V54.3906H41.3906V37.2344H43.9219V54.3906H56.5781V37.2344H59.1094V54.3906H71.4844V37.2344H83.0156V19.5156Z" fill="#3D6E41"/>
<path d="M43.9219 69.8594H41.3906V57.2031H29.0156V79.9844H71.4844V57.2031H59.1094V69.8594H56.5781V57.2031H43.9219V69.8594Z" fill="#3D6E41"/>
<rect x="17.4844" y="56.0781" width="65.5312" height="37.125" fill="#CFD0D2"/>
</g>
</svg>
