<svg width="100" height="100" viewBox="0 0 100 100" fill="none" xmlns="http://www.w3.org/2000/svg">
<rect width="100" height="100" fill="white"/>
<path d="M75.6894 43.1073L75.1888 43.307C75.1476 43.3229 75.1326 43.3524 75.1438 43.3956C75.4701 44.6612 76.8707 45.8157 77.9366 46.5104C78.7677 47.0518 79.3457 47.5426 80.0305 48.1262C80.2921 48.3498 80.6619 48.4173 80.908 48.669C81.7292 49.5099 82.7221 50.3537 83.3478 51.2312C83.8222 51.8987 84.2169 52.6145 84.5319 53.3785C84.5369 53.3902 84.5445 53.4005 84.554 53.4088C84.5636 53.417 84.5749 53.4229 84.587 53.4259C84.5991 53.4289 84.6116 53.429 84.6235 53.4261C84.6354 53.4233 84.6465 53.4176 84.6556 53.4095L84.8553 53.2393C84.8778 53.2205 84.892 53.1937 84.8949 53.1647C84.8978 53.1358 84.8892 53.107 84.8708 53.0846C84.7686 52.9581 84.7625 52.8287 84.8525 52.6965C84.8741 52.6637 84.8722 52.6323 84.8469 52.6023C84.7644 52.502 84.7789 52.3871 84.8905 52.2577C85.7961 53.8215 85.8538 55.3571 85.7427 57.1318C85.6316 58.8854 84.8778 60.5377 83.5883 61.6571C79.5468 65.1629 74.736 64.3642 70.6438 61.4813C68.6141 60.0517 66.6838 58.4959 64.8529 56.814C61.1264 53.3921 57.4134 49.9553 53.7141 46.5034C53.6813 46.4724 53.647 46.4715 53.6114 46.5006C53.2092 46.8226 52.8113 47.2107 52.44 47.5074C45.4369 53.1231 38.4709 58.7781 31.5418 64.4724C31.5118 64.4968 31.5081 64.4931 31.5306 64.4612C31.6853 64.239 31.8634 64.0248 32.065 63.8185C34.4818 61.3595 36.9151 58.9313 39.3648 56.5342C39.3959 56.5036 39.4165 56.4639 39.4239 56.4208C39.4312 56.3776 39.4248 56.3332 39.4055 56.2937C38.4887 54.422 38.0105 52.4701 38.0148 50.3846C38.0162 49.5929 37.9754 48.7731 38.0851 48.0123C38.7727 43.2634 41.4094 39.4103 45.7407 37.4246C47.4239 36.6526 49.4391 36.031 51.2405 36.0226C53.3808 36.0113 55.5366 35.9593 57.6712 36.1463C59.3123 36.2912 61.4386 36.7229 63.3426 36.9268C63.3663 36.9292 63.3883 36.9402 63.4046 36.9578C63.4209 36.9753 63.4303 36.9983 63.4312 37.0224C63.4664 37.907 63.3173 39.0053 63.2456 40.5381C63.2048 41.4184 63.24 42.3563 63.2301 43.269C63.2245 43.7106 63.1401 43.982 62.6268 43.8821C62.5547 43.8681 62.5115 43.8254 62.4975 43.7542C62.3611 43.0778 62.3161 42.3043 62.0503 41.7151C61.2698 39.984 59.4375 39.0024 57.7134 38.4217C53.5509 37.0196 48.5166 37.3431 45.4004 40.7265C42.9282 43.4096 42.6624 47.3556 43.0407 50.8529C43.1044 51.4407 43.2333 51.9498 43.4274 52.3801C43.4518 52.4326 43.4836 52.4378 43.523 52.3956C46.6449 49.0093 50.0677 45.7665 53.437 42.4534C53.5458 42.3465 53.6536 42.3479 53.7605 42.4576C56.1858 44.9523 58.6814 47.4479 61.2473 49.9445C61.4161 50.109 61.7943 50.1906 62.0643 50.1793C63.3618 50.1249 64.6903 50.0424 66.0496 49.9318C66.0856 49.929 66.1213 49.9395 66.1501 49.9613C66.1788 49.9831 66.1986 50.0146 66.2057 50.0499L66.3238 50.6406C66.3271 50.6571 66.3267 50.6742 66.3226 50.6905C66.3185 50.7069 66.3108 50.7222 66.3001 50.7353C66.2894 50.7485 66.2759 50.7591 66.2605 50.7666C66.2452 50.774 66.2284 50.778 66.2114 50.7784C65.947 50.784 65.677 50.7901 65.4014 50.7967C64.3818 50.8234 63.0473 51.6713 64.0949 52.7978C67.4981 56.4554 71.4313 59.9893 75.8118 61.8849C79.1263 63.3179 82.4745 60.9849 82.0949 57.3807C81.9149 55.6721 80.676 54.107 79.371 53.0495C75.9763 50.3003 71.7027 47.5609 71.7295 42.6545C71.7491 39.1895 74.1637 36.8453 77.3994 36.1674C78.5272 35.9312 79.9616 36.0128 81.2202 36.017C82.4591 36.0198 84.0481 36.1267 85.1281 36.7946C85.1467 36.8063 85.1622 36.8222 85.1733 36.8411C85.1843 36.8599 85.1905 36.8812 85.1914 36.9029C85.2111 37.3417 85.0902 37.7917 85.0789 38.1587C85.047 39.2621 85.04 40.3646 85.0578 41.4662C85.0625 41.7381 85.0053 41.9874 84.8863 42.2143C84.8643 42.2562 84.8317 42.2916 84.7917 42.317C84.7517 42.3423 84.7058 42.3567 84.6585 42.3587C84.6112 42.3607 84.5642 42.3502 84.5223 42.3284C84.4803 42.3065 84.4448 42.2739 84.4194 42.234C84.2127 41.9063 84.2534 41.4845 84.207 41.1034C83.9778 39.1853 81.95 37.7059 80.1064 37.5638C77.9746 37.3993 75.7921 38.1981 75.2887 40.4973C75.0974 41.371 75.231 42.241 75.6894 43.1073Z" fill="#0B3559"/>
<path d="M23.0226 38.1995C22.9708 38.2236 22.9267 38.2618 22.8956 38.3099C22.8645 38.3579 22.8476 38.4137 22.8469 38.4709C22.7662 45.1768 22.7756 51.8626 22.875 58.5282C22.8815 58.9754 22.8994 59.3889 22.9284 59.7686C23.0465 61.3295 22.9411 62.5979 24.7875 62.7357C25.244 62.7704 25.8084 62.7939 26.4806 62.8061C26.9053 62.8131 26.7731 63.4825 26.3062 63.4684C21.7162 63.3278 19.0584 63.3995 15.9366 63.4726C15.736 63.4773 15.577 63.4145 15.4599 63.2842C15.4242 63.2445 15.4005 63.1956 15.3912 63.1431C15.382 63.0905 15.3876 63.0365 15.4075 62.987C15.4274 62.9375 15.4608 62.8946 15.5039 62.8631C15.5469 62.8316 15.5979 62.8128 15.6511 62.8089C16.2178 62.7667 17.1038 62.7751 17.6269 62.439C18.4973 61.8807 18.427 57.9742 18.427 56.8956C18.4327 51.2837 18.4308 45.6718 18.4214 40.06C18.42 39.6198 18.368 39.1937 18.33 38.7521C18.1978 37.2123 16.3317 36.8565 15.1055 37.1167C15.0474 37.1289 15.0174 37.105 15.0155 37.045L15 36.3868C14.9991 36.3287 15.0272 36.3015 15.0844 36.3053C19.1541 36.5893 22.5262 36.4614 26.2697 36.4361C30.629 36.4079 34.6734 38.4737 34.3302 43.4406C33.9646 48.7196 29.6362 51.6587 24.6272 51.4253C24.61 51.4244 24.5932 51.4201 24.5776 51.4128C24.5621 51.4054 24.5482 51.3951 24.5367 51.3824C24.5252 51.3698 24.5164 51.355 24.5106 51.3389C24.5049 51.3229 24.5025 51.3059 24.5034 51.2889L24.5386 50.6715C24.5414 50.6153 24.5709 50.5848 24.6272 50.5801C24.9872 50.5478 25.3654 50.6209 25.6833 50.5857C28.5014 50.2679 30.1748 47.3303 30.2128 44.6992C30.2521 41.9303 28.9964 39.2275 26.2387 38.26C25.2684 37.9196 23.9845 37.7495 23.0226 38.1995Z" fill="#0B3559"/>
<path d="M75.6894 43.1072C76.4277 44.3939 77.855 45.5442 79.0362 46.4161C81.334 48.1106 83.4954 49.8276 84.8904 52.2576C84.7789 52.387 84.7643 52.5019 84.8468 52.6022C84.8721 52.6322 84.874 52.6636 84.8525 52.6964C84.7625 52.8286 84.7686 52.958 84.8707 53.0845C84.8891 53.1069 84.8978 53.1357 84.8949 53.1646C84.892 53.1936 84.8778 53.2204 84.8553 53.2392L84.6556 53.4094C84.6464 53.4175 84.6354 53.4232 84.6235 53.426C84.6115 53.4289 84.599 53.4288 84.5869 53.4258C84.5749 53.4227 84.5636 53.4169 84.554 53.4087C84.5444 53.4004 84.5368 53.3901 84.5318 53.3784C84.2168 52.6144 83.8222 51.8986 83.3478 51.2311C82.722 50.3536 81.7292 49.5098 80.908 48.6689C80.6619 48.4172 80.292 48.3497 80.0304 48.1261C79.3456 47.5425 78.7676 47.0517 77.9366 46.5103C76.8706 45.8156 75.47 44.6611 75.1438 43.3955C75.1325 43.3523 75.1475 43.3228 75.1888 43.3069L75.6894 43.1072Z" fill="#06264F"/>
<path d="M52.737 51.9069L52.0318 51.8736C51.8565 51.8653 51.7077 52.0008 51.6994 52.1761L51.6493 53.238C51.641 53.4134 51.7765 53.5622 51.9518 53.5705L52.6569 53.6037C52.8323 53.612 52.9811 53.4766 52.9894 53.3012L53.0395 52.2393C53.0477 52.064 52.9123 51.9151 52.737 51.9069Z" fill="#BD7F33"/>
<path d="M54.9173 51.8901L54.3633 51.8939C54.0853 51.8959 53.8614 52.1229 53.8634 52.4009L53.8682 53.0899C53.8701 53.368 54.0971 53.5918 54.3751 53.5898L54.9292 53.586C55.2072 53.584 55.431 53.3571 55.4291 53.079L55.4243 52.39C55.4223 52.112 55.1954 51.8881 54.9173 51.8901Z" fill="#BD7F33"/>
<path d="M63.2186 62.3011C63.4647 61.5403 62.8347 61.6458 62.4086 61.7484C61.8808 61.8741 61.1318 62.0869 60.1615 62.3869C59.6524 62.5444 59.1996 62.4234 58.803 62.0241C58.7955 62.0163 58.7897 62.007 58.7862 61.9967C58.7827 61.9865 58.7815 61.9756 58.7827 61.9648C58.7839 61.9541 58.7875 61.9437 58.7932 61.9345C58.7989 61.9253 58.8066 61.9174 58.8157 61.9116C58.9891 61.8019 59.1194 61.6528 59.2066 61.4644C59.214 61.4488 59.225 61.4352 59.2388 61.4249C59.2525 61.4146 59.2685 61.4079 59.2854 61.4053C59.5807 61.3613 59.725 61.1963 59.7185 60.9103C59.7175 60.8597 59.6988 60.8161 59.6622 60.7795C59.5657 60.6848 59.508 60.5705 59.4893 60.4364C59.4827 60.3877 59.4565 60.3548 59.4105 60.338C59.3308 60.3089 59.2258 60.3117 59.0955 60.3464C59.0693 58.9111 59.0618 57.4758 59.073 56.0405C59.0786 55.3514 59.1419 54.6652 59.0013 53.9452C58.9977 53.9262 59.0001 53.9066 59.0082 53.8892C59.0164 53.8717 59.0298 53.8573 59.0467 53.8479C59.0635 53.8386 59.0829 53.8348 59.102 53.8371C59.1211 53.8394 59.139 53.8477 59.1532 53.8608C60.5407 55.1358 61.9324 56.4173 63.3283 57.7055C63.7825 58.1259 63.618 60.7781 63.6363 61.4939C63.6419 61.7377 63.5027 62.0067 63.2186 62.3011Z" fill="#BD7F33"/>
<path d="M51.6667 54.6553C51.6693 54.5667 51.7068 54.4829 51.7712 54.422C51.8355 54.3611 51.9213 54.3282 52.0098 54.3304L52.4472 54.3417C52.6242 54.3467 52.7925 54.4028 52.9151 54.4977C53.0377 54.5926 53.1046 54.7186 53.1011 54.8479L53.0884 55.312C53.0867 55.3761 53.0678 55.439 53.0327 55.4973C52.9975 55.5556 52.9469 55.608 52.8837 55.6516C52.8205 55.6952 52.746 55.7292 52.6643 55.7515C52.5827 55.7738 52.4955 55.7841 52.4078 55.7817L51.9705 55.769C51.8819 55.7664 51.798 55.7289 51.7371 55.6646C51.6763 55.6003 51.6433 55.5144 51.6456 55.4259L51.6667 54.6553Z" fill="#BD7F33"/>
<path d="M54.994 54.3892L54.3811 54.371C54.1288 54.3635 53.9182 54.562 53.9108 54.8143L53.8977 55.2556C53.8902 55.5079 54.0886 55.7185 54.3409 55.726L54.9538 55.7442C55.2061 55.7517 55.4167 55.5532 55.4242 55.3009L55.4373 54.8596C55.4448 54.6073 55.2463 54.3967 54.994 54.3892Z" fill="#BD7F33"/>
<path d="M48.2355 60.054C47.9702 60.1206 47.9186 60.2781 48.0808 60.5265C48.1586 60.6456 48.2214 60.7707 48.2693 60.902C48.4249 61.3314 48.7605 61.5057 49.2761 61.4251C49.2872 61.4235 49.2985 61.4242 49.3093 61.4272C49.3201 61.4302 49.3301 61.4354 49.3387 61.4424C49.3474 61.4494 49.3544 61.4581 49.3593 61.468C49.3643 61.4779 49.3671 61.4886 49.3675 61.4997C49.3942 61.9778 48.8922 61.9708 48.5716 62.0298C47.8868 62.1564 46.7111 61.7275 46.0924 61.4265C45.7169 61.2423 45.3893 61.2479 44.9969 61.2606C44.9631 61.2617 44.9302 61.2714 44.9011 61.2887C44.8721 61.3061 44.8479 61.3305 44.8309 61.3598C44.8139 61.389 44.8046 61.4221 44.8039 61.4559C44.8032 61.4897 44.811 61.5232 44.8268 61.5531L45.0124 61.9061C43.834 61.2915 42.0762 60.2101 41.0974 59.0261C41.0627 58.9839 41.0669 58.9454 41.1101 58.9107L44.5061 56.2122C44.53 56.1932 44.5576 56.1796 44.5871 56.1722C44.6167 56.1648 44.6475 56.1638 44.6774 56.1692C44.7074 56.1747 44.7358 56.1865 44.7609 56.2038C44.7859 56.2212 44.8069 56.2437 44.8225 56.2698C45.7104 57.7567 46.848 59.0181 48.2355 60.054Z" fill="#BD7F33"/>
<path d="M48.2354 60.054C51.1547 61.9346 54.3333 62.5824 57.7711 61.9974C58.6552 61.8474 59.0967 61.2971 59.0958 60.3465C59.2261 60.3118 59.3311 60.309 59.4108 60.338C59.4567 60.3549 59.483 60.3877 59.4895 60.4365C59.5083 60.5705 59.566 60.6849 59.6625 60.7796C59.6991 60.8161 59.7178 60.8597 59.7188 60.9104C59.7253 61.1963 59.581 61.3613 59.2856 61.4054C59.2688 61.4079 59.2528 61.4147 59.239 61.425C59.2253 61.4353 59.2143 61.4488 59.2069 61.4644C59.1197 61.6529 58.9894 61.8019 58.816 61.9116C58.8069 61.9175 58.7992 61.9253 58.7935 61.9345C58.7878 61.9437 58.7842 61.9541 58.783 61.9649C58.7817 61.9756 58.7829 61.9865 58.7865 61.9968C58.79 62.007 58.7957 62.0164 58.8033 62.0241C59.1999 62.4235 59.6527 62.5444 60.1617 62.3869C61.132 62.0869 61.8811 61.8741 62.4089 61.7485C62.835 61.6458 63.465 61.5404 63.2189 62.3011C62.3461 62.7718 61.388 63.1163 60.3445 63.3347C55.7321 64.3008 49.6121 64.336 45.0123 61.906L44.8266 61.553C44.8109 61.5231 44.803 61.4896 44.8038 61.4558C44.8045 61.422 44.8138 61.3889 44.8308 61.3597C44.8478 61.3305 44.872 61.306 44.901 61.2887C44.93 61.2713 44.963 61.2616 44.9968 61.2605C45.3891 61.2479 45.7168 61.2422 46.0923 61.4265C46.711 61.7274 47.8866 62.1563 48.5715 62.0297C48.8921 61.9707 49.3941 61.9777 49.3674 61.4996C49.367 61.4886 49.3642 61.4778 49.3592 61.4679C49.3542 61.458 49.3472 61.4493 49.3386 61.4423C49.33 61.4353 49.32 61.4301 49.3092 61.4271C49.2984 61.4242 49.2871 61.4235 49.276 61.425C48.7604 61.5057 48.4248 61.3313 48.2691 60.9019C48.2213 60.7707 48.1585 60.6455 48.0807 60.5265C47.9185 60.278 47.9701 60.1205 48.2354 60.054Z" fill="#AD6B06"/>
</svg>
