<svg width="100" height="100" viewBox="0 0 100 100" fill="none" xmlns="http://www.w3.org/2000/svg">
<rect width="100" height="100" fill="#F0F3FA"/>
<path d="M60.5559 45.8863V42.8289C60.5559 42.753 60.523 42.6971 60.457 42.6612L45.7184 34.5598C45.651 34.5226 45.5844 34.5247 45.5185 34.5663L30.7132 43.6739C30.6835 43.6923 30.6591 43.7179 30.6421 43.7484C30.6252 43.7789 30.6163 43.8132 30.6164 43.8481V75.843C30.6164 75.9219 30.577 75.9613 30.4982 75.9613L16.9184 75.9591C16.8876 75.9591 16.8581 75.9467 16.8363 75.9245C16.8146 75.9023 16.8023 75.8722 16.8023 75.8409V43.8567C16.8023 43.7893 16.7686 43.7549 16.7013 43.7535L10.0318 43.6847C9.99167 43.6832 9.98952 43.6725 10.0254 43.6524L45.5056 23.0506C45.5772 23.009 45.6496 23.0076 45.7227 23.0463L72.0114 36.8948C72.042 36.9111 72.0675 36.9354 72.0853 36.9649C72.1031 36.9945 72.1125 37.0282 72.1125 37.0625V59.709C72.1125 59.8094 72.0623 59.8595 71.962 59.8595L33.0911 59.8724C32.9822 59.8724 32.9277 59.818 32.9277 59.709V46.1529C32.9277 46.0755 32.9664 46.0361 33.0438 46.0347L60.4549 45.9852C60.5223 45.9852 60.5559 45.9523 60.5559 45.8863Z" fill="#2D3091"/>
<path d="M74.4152 64.3682L74.4259 29.9845C74.4259 29.9663 74.4187 29.9488 74.4058 29.9359C74.3929 29.923 74.3754 29.9157 74.3571 29.9157L70.0334 29.8921C70.0183 29.8925 70.0036 29.8879 69.9914 29.8791C69.9791 29.8703 69.9702 29.8578 69.9658 29.8434C69.9614 29.829 69.9618 29.8136 69.967 29.7994C69.9723 29.7853 69.982 29.7733 69.9947 29.7652L80.1236 23.0119C80.135 23.0042 80.1485 23 80.1623 23C80.1761 23 80.1896 23.0042 80.201 23.0119L90.3406 29.7717C90.3524 29.7801 90.3612 29.792 90.3658 29.8057C90.3704 29.8194 90.3706 29.8342 90.3663 29.848C90.362 29.8618 90.3535 29.8739 90.3419 29.8826C90.3304 29.8913 90.3164 29.8961 90.3019 29.8964L85.9954 29.8749C85.9771 29.8749 85.9596 29.8821 85.9467 29.895C85.9338 29.9079 85.9266 29.9254 85.9266 29.9437V75.9312C85.9266 75.9494 85.9193 75.9669 85.9064 75.9798C85.8935 75.9928 85.876 76 85.8578 76L32.9965 75.9764C32.9783 75.9764 32.9608 75.9691 32.9479 75.9562C32.935 75.9433 32.9277 75.9258 32.9277 75.9075V64.508C32.9277 64.4897 32.935 64.4722 32.9479 64.4593C32.9608 64.4464 32.9783 64.4392 32.9965 64.4392L74.3464 64.437C74.3646 64.437 74.3821 64.4298 74.395 64.4169C74.4079 64.404 74.4152 64.3865 74.4152 64.3682Z" fill="#EB1C24"/>
</svg>
