<svg width="100" height="100" viewBox="0 0 100 100" fill="none" xmlns="http://www.w3.org/2000/svg">
<rect width="100" height="100" fill="#595C62"/>
<path d="M21.0264 58V40.8203H26.5928C28.7022 40.8203 30.0772 40.9062 30.7178 41.0781C31.7022 41.3359 32.5264 41.8984 33.1905 42.7656C33.8545 43.625 34.1866 44.7383 34.1866 46.1055C34.1866 47.1602 33.9952 48.0469 33.6123 48.7656C33.2295 49.4844 32.7412 50.0508 32.1475 50.4648C31.5616 50.8711 30.9639 51.1406 30.3545 51.2734C29.5264 51.4375 28.3272 51.5195 26.7569 51.5195H24.4952V58H21.0264ZM24.4952 43.7266V48.6016H26.3936C27.7608 48.6016 28.6748 48.5117 29.1358 48.332C29.5967 48.1523 29.9561 47.8711 30.2139 47.4883C30.4795 47.1055 30.6123 46.6602 30.6123 46.1523C30.6123 45.5273 30.4287 45.0117 30.0616 44.6055C29.6944 44.1992 29.2295 43.9453 28.667 43.8438C28.253 43.7656 27.4209 43.7266 26.1709 43.7266H24.4952ZM39.8317 58L35.7302 40.8203H39.2809L41.8708 52.6211L45.0114 40.8203H49.1364L52.1481 52.8203L54.7848 40.8203H58.277L54.1052 58H50.4255L47.0036 45.1562L43.5934 58H39.8317ZM59.5394 52.4102L62.9144 52.082C63.1175 53.2148 63.5277 54.0469 64.1448 54.5781C64.7698 55.1094 65.6097 55.375 66.6644 55.375C67.7816 55.375 68.6214 55.1406 69.1839 54.6719C69.7542 54.1953 70.0394 53.6406 70.0394 53.0078C70.0394 52.6016 69.9183 52.2578 69.6761 51.9766C69.4417 51.6875 69.0277 51.4375 68.4339 51.2266C68.0277 51.0859 67.1019 50.8359 65.6566 50.4766C63.7972 50.0156 62.4925 49.4492 61.7425 48.7773C60.6878 47.832 60.1605 46.6797 60.1605 45.3203C60.1605 44.4453 60.4066 43.6289 60.8988 42.8711C61.3988 42.1055 62.1136 41.5234 63.0433 41.125C63.9808 40.7266 65.1097 40.5273 66.43 40.5273C68.5863 40.5273 70.2073 41 71.2933 41.9453C72.387 42.8906 72.9613 44.1523 73.0159 45.7305L69.5472 45.8828C69.3988 45 69.0784 44.3672 68.5863 43.9844C68.1019 43.5938 67.3714 43.3984 66.3948 43.3984C65.387 43.3984 64.598 43.6055 64.0277 44.0195C63.6605 44.2852 63.4769 44.6406 63.4769 45.0859C63.4769 45.4922 63.6488 45.8398 63.9925 46.1289C64.43 46.4961 65.4925 46.8789 67.18 47.2773C68.8675 47.6758 70.1136 48.0898 70.9183 48.5195C71.7308 48.9414 72.3636 49.5234 72.8167 50.2656C73.2777 51 73.5081 51.9102 73.5081 52.9961C73.5081 53.9805 73.2347 54.9023 72.6878 55.7617C72.1409 56.6211 71.3675 57.2617 70.3675 57.6836C69.3675 58.0977 68.1214 58.3047 66.6292 58.3047C64.4573 58.3047 62.7894 57.8047 61.6253 56.8047C60.4613 55.7969 59.7659 54.332 59.5394 52.4102ZM76.6806 58V40.8203H80.1494V58H76.6806Z" fill="#F8F8F8"/>
</svg>
