<svg width="100" height="100" viewBox="0 0 100 100" fill="none" xmlns="http://www.w3.org/2000/svg">
<rect width="100" height="100" fill="#E82229"/>
<path d="M33.7662 51.1271C33.7631 52.8935 33.0585 54.5864 31.8073 55.8332C30.556 57.0801 28.8608 57.7788 27.0943 57.7757L13.6487 57.7523C12.774 57.7508 11.9083 57.577 11.1008 57.2409C10.2933 56.9047 9.55993 56.4129 8.94255 55.7933C8.32516 55.1738 7.83585 54.4387 7.50255 53.6301C7.16925 52.8214 6.99848 51.955 7.00001 51.0804L7.02347 37.6486C7.02656 35.8822 7.73122 34.1894 8.98244 32.9425C10.2337 31.6957 11.929 30.9969 13.6954 31L27.141 31.0235C28.0157 31.025 28.8814 31.1988 29.6889 31.5349C30.4964 31.871 31.2298 32.3629 31.8472 32.9824C32.4645 33.602 32.9539 34.337 33.2872 35.1457C33.6205 35.9543 33.7912 36.8207 33.7897 37.6954L33.7662 51.1271ZM31.2425 37.6252C31.2416 37.0838 31.134 36.5479 30.9259 36.0481C30.7179 35.5483 30.4134 35.0943 30.0299 34.7122C29.6464 34.33 29.1914 34.0271 28.6909 33.8208C28.1903 33.6145 27.654 33.5088 27.1126 33.5097L13.6322 33.5333C13.0908 33.5342 12.5549 33.6418 12.0551 33.8499C11.5552 34.0579 11.1013 34.3624 10.7191 34.7459C10.337 35.1294 10.0341 35.5844 9.82777 36.0849C9.62145 36.5855 9.51575 37.1218 9.5167 37.6632L9.54023 51.1436C9.54118 51.685 9.64875 52.2209 9.85681 52.7207C10.0649 53.2205 10.3693 53.6745 10.7528 54.0566C11.1363 54.4388 11.5913 54.7417 12.0919 54.948C12.5924 55.1543 13.1287 55.26 13.6701 55.2591L27.1506 55.2355C27.692 55.2346 28.2279 55.127 28.7277 54.919C29.2275 54.7109 29.6815 54.4064 30.0636 54.0229C30.4458 53.6394 30.7487 53.1844 30.955 52.6839C31.1613 52.1833 31.267 51.647 31.2661 51.1056L31.2425 37.6252Z" fill="white"/>
<path d="M77.2433 31.4183C82.8886 32.7879 98.0723 40.279 91.7597 48.5C88.1514 53.2032 79.9825 57.7813 74.0105 57.6874C65.8034 57.5553 66.5055 43.5083 67.6631 38.5096C68.9006 33.1633 71.2887 29.9688 77.2433 31.4183ZM90.6751 43.543C88.8988 38.8364 78.9014 33.0868 73.8576 33.6813C71.678 33.935 70.7256 36.4865 70.2737 38.3045C69.4046 41.805 67.9203 56.0328 74.9039 55.1081C79.6453 54.4789 83.9905 52.2959 87.6022 49.2022C89.0587 47.9543 91.4433 45.5662 90.6751 43.543Z" fill="white"/>
<path d="M63.5808 44.3807C63.5808 47.8997 62.1829 51.2746 59.6945 53.7629C57.2062 56.2512 53.8314 57.6491 50.3124 57.6491C46.7934 57.6491 43.4185 56.2512 40.9302 53.7629C38.4419 51.2746 37.0439 47.8997 37.0439 44.3807C37.0439 40.8617 38.4419 37.4868 40.9302 34.9985C43.4185 32.5102 46.7934 31.1123 50.3124 31.1123C53.8314 31.1123 57.2062 32.5102 59.6945 34.9985C62.1829 37.4868 63.5808 40.8617 63.5808 44.3807ZM61.0675 44.3772C61.0675 41.5239 59.934 38.7874 57.9164 36.7697C55.8988 34.7521 53.1623 33.6186 50.3089 33.6186C47.4555 33.6186 44.719 34.7521 42.7014 36.7697C40.6837 38.7874 39.5502 41.5239 39.5502 44.3772C39.5502 47.2306 40.6837 49.9671 42.7014 51.9847C44.719 54.0023 47.4555 55.1358 50.3089 55.1358C53.1623 55.1358 55.8988 54.0023 57.9164 51.9847C59.934 49.9671 61.0675 47.2306 61.0675 44.3772Z" fill="white"/>
<path d="M77.9166 47.5996V50.5578C77.9166 50.6039 77.8983 50.6481 77.8657 50.6807C77.8331 50.7133 77.7889 50.7316 77.7428 50.7316H74.875C74.8058 50.7316 74.7395 50.7041 74.6906 50.6552C74.6417 50.6063 74.6143 50.54 74.6143 50.4709V39.4446C74.6142 39.3864 74.6366 39.3305 74.6767 39.2884C74.7169 39.2463 74.7717 39.2213 74.8298 39.2186C77.051 39.1283 81.0694 38.805 82.9605 39.8339C84.8758 40.8733 85.5606 43.2336 84.6255 45.1837C83.5271 47.4744 80.5967 47.5614 78.1356 47.3945C77.9896 47.3852 77.9166 47.4536 77.9166 47.5996ZM77.9201 42.4375L77.9131 44.1617C77.9131 44.1977 77.9274 44.2321 77.9528 44.2576C77.9782 44.283 78.0127 44.2973 78.0487 44.2973L80.4681 44.3112C80.6124 44.3122 80.7554 44.2887 80.8891 44.242C81.0228 44.1954 81.1444 44.1265 81.2471 44.0393C81.3497 43.9522 81.4314 43.8484 81.4874 43.734C81.5434 43.6196 81.5727 43.4968 81.5735 43.3726V43.2683C81.5743 43.144 81.5466 43.0206 81.492 42.9054C81.4374 42.7902 81.3569 42.6853 81.2552 42.5968C81.1535 42.5084 81.0326 42.438 80.8993 42.3898C80.766 42.3416 80.623 42.3165 80.4785 42.3159L78.0591 42.302C78.041 42.3015 78.023 42.3047 78.0062 42.3113C77.9893 42.3179 77.974 42.3278 77.961 42.3404C77.948 42.3531 77.9377 42.3682 77.9307 42.3848C77.9237 42.4015 77.9201 42.4194 77.9201 42.4375Z" fill="white"/>
<path d="M50.4272 43.1295L52.3912 39.5074C52.4031 39.4854 52.4206 39.467 52.442 39.4542C52.4635 39.4413 52.4879 39.4345 52.5129 39.4344H56.1663C56.1903 39.4345 56.2139 39.4408 56.2347 39.4527C56.2556 39.4647 56.273 39.4818 56.2852 39.5025C56.2975 39.5231 56.3041 39.5466 56.3046 39.5706C56.3051 39.5946 56.2994 39.6183 56.288 39.6394L50.4098 50.5441C50.3978 50.5658 50.3802 50.5839 50.3588 50.5965C50.3374 50.6091 50.313 50.6158 50.2882 50.6158C50.2633 50.6158 50.2389 50.6091 50.2175 50.5965C50.1961 50.5839 50.1785 50.5658 50.1665 50.5441L44.337 39.6394C44.3255 39.6181 44.3197 39.594 44.3204 39.5697C44.321 39.5454 44.328 39.5217 44.3407 39.5009C44.3533 39.4802 44.3712 39.4631 44.3925 39.4514C44.4138 39.4398 44.4378 39.4339 44.4622 39.4344H48.0808C48.1058 39.4345 48.1302 39.4413 48.1517 39.4542C48.1731 39.467 48.1906 39.4854 48.2025 39.5074L50.1839 43.1295C50.1959 43.1512 50.2135 43.1693 50.2349 43.1819C50.2563 43.1946 50.2807 43.2012 50.3055 43.2012C50.3304 43.2012 50.3548 43.1946 50.3762 43.1819C50.3976 43.1693 50.4152 43.1512 50.4272 43.1295Z" fill="white"/>
<path d="M17.7804 46.5742V50.6065C17.7804 50.6397 17.7672 50.6716 17.7437 50.695C17.7203 50.7185 17.6884 50.7317 17.6552 50.7317H14.339C14.3058 50.7317 14.274 50.7185 14.2505 50.695C14.2271 50.6716 14.2139 50.6397 14.2139 50.6065L14.2243 39.6254C14.224 39.6019 14.2303 39.5787 14.2425 39.5586C14.2547 39.5385 14.2724 39.5223 14.2935 39.5117C14.3145 39.5012 14.3381 39.4968 14.3615 39.4991C14.385 39.5014 14.4073 39.5102 14.4259 39.5246L20.4083 44.1965C20.4302 44.2135 20.4571 44.2226 20.4848 44.2226C20.5125 44.2226 20.5394 44.2135 20.5613 44.1965L26.5298 39.5385C26.5485 39.5241 26.5708 39.5153 26.5942 39.513C26.6176 39.5107 26.6412 39.5151 26.6623 39.5256C26.6833 39.5362 26.701 39.5524 26.7132 39.5725C26.7255 39.5927 26.7318 39.6158 26.7314 39.6393V50.6065C26.7314 50.6397 26.7183 50.6716 26.6948 50.695C26.6713 50.7185 26.6395 50.7317 26.6063 50.7317H23.3735C23.3403 50.7317 23.3085 50.7185 23.285 50.695C23.2615 50.6716 23.2484 50.6397 23.2484 50.6065L23.2762 46.5847C23.2763 46.5604 23.2694 46.5367 23.2563 46.5164C23.2432 46.496 23.2244 46.4799 23.2024 46.47C23.1803 46.46 23.1558 46.4567 23.1319 46.4604C23.108 46.4641 23.0856 46.4747 23.0676 46.4908L20.5856 48.6286C20.5627 48.6491 20.533 48.6605 20.5022 48.6605C20.4714 48.6605 20.4417 48.6491 20.4188 48.6286L17.989 46.4804C17.9709 46.4642 17.9486 46.4537 17.9246 46.45C17.9007 46.4463 17.8762 46.4496 17.8542 46.4595C17.8321 46.4695 17.8134 46.4856 17.8003 46.5059C17.7872 46.5263 17.7803 46.55 17.7804 46.5742Z" fill="white"/>
<path d="M46.2811 64.7091C46.2312 64.7344 46.1895 64.7737 46.1612 64.8221C46.1329 64.8705 46.1192 64.9259 46.1217 64.9816C46.1243 65.0373 46.1431 65.0909 46.1757 65.1357C46.2083 65.1805 46.2534 65.2147 46.3055 65.234C47.1536 65.5538 48.3112 65.8667 48.77 66.6419C50.0388 68.7866 45.6033 70.2188 44.6856 67.4518C44.676 67.4242 44.6722 67.395 44.6745 67.3658C44.6767 67.3367 44.6849 67.3084 44.6986 67.2826C44.7124 67.2568 44.7312 67.2342 44.7541 67.216C44.777 67.1979 44.8034 67.1847 44.8316 67.1772L45.579 66.979C45.7342 66.9373 45.8478 66.9883 45.9196 67.132C46.2093 67.7137 46.6728 67.9257 47.3101 67.7681C47.3982 67.7459 47.4767 67.6957 47.5339 67.6252C47.5911 67.5546 47.6239 67.4674 47.6275 67.3766C47.631 67.2858 47.605 67.1963 47.5534 67.1215C47.5019 67.0467 47.4275 66.9906 47.3414 66.9617C46.6009 66.7183 45.5129 66.4124 45.068 65.825C43.6879 64 47.609 62.0916 48.8882 64.7891C48.9508 64.9235 48.9126 65.0127 48.7735 65.0567L47.8802 65.3487C47.7805 65.3812 47.711 65.3487 47.6716 65.2514C47.3912 64.5747 46.9277 64.394 46.2811 64.7091Z" fill="white"/>
<path d="M59.5281 66.2142C59.5281 66.9555 59.2336 67.6663 58.7095 68.1905C58.1854 68.7146 57.4745 69.0091 56.7333 69.0091C55.9921 69.0091 55.2812 68.7146 54.7571 68.1905C54.2329 67.6663 53.9385 66.9555 53.9385 66.2142C53.9385 65.473 54.2329 64.7621 54.7571 64.238C55.2812 63.7139 55.9921 63.4194 56.7333 63.4194C57.4745 63.4194 58.1854 63.7139 58.7095 64.238C59.2336 64.7621 59.5281 65.473 59.5281 66.2142ZM58.2385 66.2142C58.2385 65.8178 58.081 65.4376 57.8007 65.1573C57.5203 64.877 57.1401 64.7195 56.7437 64.7195C56.3473 64.7195 55.9671 64.877 55.6868 65.1573C55.4065 65.4376 55.249 65.8178 55.249 66.2142C55.249 66.6107 55.4065 66.9909 55.6868 67.2712C55.9671 67.5515 56.3473 67.709 56.7437 67.709C57.1401 67.709 57.5203 67.5515 57.8007 67.2712C58.081 66.9909 58.2385 66.6107 58.2385 66.2142Z" fill="white"/>
<path d="M90.6642 67.6849C90.9284 67.8146 91.2215 67.8459 91.5436 67.7787C91.6438 67.758 91.7338 67.7037 91.7989 67.6248C91.8639 67.5459 91.9 67.4472 91.9013 67.3449C91.9025 67.2427 91.8687 67.1431 91.8056 67.0627C91.7424 66.9822 91.6537 66.9258 91.5541 66.9027C90.7754 66.7243 90.0628 66.4068 89.4162 65.9503C89.318 65.8833 89.2486 65.7816 89.2216 65.6652C88.6167 63.0825 92.1485 62.6757 93.1774 64.7997C93.2446 64.9387 93.2041 65.0302 93.0558 65.0743L92.2389 65.3176C92.184 65.335 92.1244 65.3311 92.0718 65.3067C92.0191 65.2823 91.9771 65.2391 91.9538 65.1855C91.7314 64.6803 91.3455 64.4741 90.7963 64.5668C90.713 64.581 90.6366 64.6227 90.5794 64.6852C90.5222 64.7476 90.4874 64.8272 90.4806 64.9112C90.4738 64.9953 90.4954 65.0789 90.5419 65.1488C90.5884 65.2187 90.6571 65.2708 90.7372 65.2967C96.4554 67.2156 90.8762 71.0428 88.9713 67.5945C88.9423 67.5429 88.9333 67.4825 88.9461 67.4247C88.959 67.367 88.9927 67.316 89.0408 67.2816C89.6549 66.8274 90.1126 66.8807 90.4139 67.4415C90.4718 67.5504 90.5553 67.6315 90.6642 67.6849Z" fill="white"/>
<path d="M9.57313 65.7311C9.587 65.7538 9.60648 65.7726 9.62965 65.7857C9.65281 65.7988 9.67886 65.8057 9.7052 65.8057C9.73155 65.8057 9.75727 65.7988 9.77984 65.7857C9.8024 65.7726 9.82102 65.7538 9.83384 65.7311L11.0644 63.6628C11.0931 63.6151 11.1338 63.5757 11.1825 63.5483C11.2313 63.5209 11.2863 63.5065 11.3425 63.5064H12.0447C12.1138 63.5064 12.1801 63.5338 12.229 63.5827C12.2779 63.6316 12.3054 63.6979 12.3054 63.7671L12.3332 68.651C12.3332 68.7156 12.3075 68.7775 12.2619 68.8231C12.2163 68.8687 12.1544 68.8944 12.0899 68.8944H11.2625C11.1467 68.8944 11.0887 68.8364 11.0887 68.7206V66.2004C11.0887 66.174 11.0799 66.1484 11.0637 66.1276C11.0475 66.1068 11.0248 66.0921 10.9992 66.0857C10.9736 66.0793 10.9467 66.0816 10.9226 66.0923C10.8985 66.103 10.8787 66.1215 10.8663 66.1447L10.1919 67.4135C10.1461 67.5006 10.0775 67.5736 9.99349 67.6247C9.90943 67.6758 9.81298 67.7031 9.71433 67.7038C9.61569 67.7045 9.51851 67.6786 9.43308 67.6287C9.34765 67.5788 9.27714 67.5069 9.22899 67.4205L8.56505 66.2143C8.55136 66.1862 8.5284 66.1638 8.50007 66.1507C8.47173 66.1376 8.43975 66.1347 8.40951 66.1424C8.37928 66.1502 8.35265 66.1682 8.33413 66.1933C8.3156 66.2184 8.30631 66.2491 8.30782 66.2803V68.7206C8.30782 68.8364 8.24988 68.8944 8.13401 68.8944H7.26498C7.23941 68.8944 7.2141 68.8893 7.19048 68.8795C7.16686 68.8698 7.1454 68.8554 7.12733 68.8373C7.10925 68.8193 7.09491 68.7978 7.08513 68.7742C7.07535 68.7506 7.07031 68.7253 7.07031 68.6997L7.1016 63.9861C7.10261 63.8428 7.15042 63.7038 7.23773 63.5903C7.32504 63.4767 7.44708 63.3948 7.58525 63.357C7.72342 63.3192 7.87015 63.3276 8.00311 63.3809C8.13606 63.4343 8.24795 63.5296 8.32172 63.6524L9.57313 65.7311Z" fill="white"/>
<path d="M15.6281 66.868C15.6489 67.9526 17.679 68.3558 17.686 66.5621C17.6906 65.6189 17.7126 64.6723 17.752 63.7221C17.7566 63.5784 17.8308 63.5066 17.9745 63.5066H18.8018C18.9339 63.5066 18.9999 63.5726 18.9999 63.7047C18.9895 65.0535 19.2746 67.1287 18.5411 68.1577C17.7937 69.2005 15.8367 69.3256 14.9051 68.2793C14.0951 67.3651 14.2342 64.8553 14.3523 63.7152C14.3686 63.5761 14.4462 63.5066 14.5853 63.5066H15.4091C15.5435 63.5066 15.6107 63.5738 15.6107 63.7082C15.6014 64.7696 15.6072 65.8229 15.6281 66.868Z" fill="white"/>
<path d="M22.4933 67.6777H24.7111C24.7627 67.6777 24.8123 67.6982 24.8488 67.7347C24.8853 67.7712 24.9058 67.8207 24.9058 67.8724V68.6997C24.9058 68.7513 24.8853 68.8008 24.8488 68.8373C24.8123 68.8738 24.7627 68.8944 24.7111 68.8944H21.2767C21.2251 68.8944 21.1756 68.8738 21.139 68.8373C21.1025 68.8008 21.082 68.7513 21.082 68.6997V63.701C21.082 63.6494 21.1025 63.5999 21.139 63.5634C21.1756 63.5269 21.2251 63.5063 21.2767 63.5063H22.104C22.1556 63.5063 22.2052 63.5269 22.2417 63.5634C22.2782 63.5999 22.2987 63.6494 22.2987 63.701V67.483C22.2987 67.5347 22.3192 67.5842 22.3557 67.6207C22.3922 67.6572 22.4417 67.6777 22.4933 67.6777Z" fill="white"/>
<path d="M26.8842 64.723H25.6398C25.5835 64.723 25.5296 64.7007 25.4898 64.6609C25.4501 64.6211 25.4277 64.5672 25.4277 64.5109V63.7184C25.4277 63.6622 25.4501 63.6082 25.4898 63.5685C25.5296 63.5287 25.5835 63.5063 25.6398 63.5063H29.7347C29.7628 63.5063 29.7907 63.5119 29.8166 63.5228C29.8426 63.5337 29.8661 63.5496 29.8858 63.5697C29.9056 63.5897 29.9211 63.6135 29.9316 63.6397C29.942 63.6658 29.9472 63.6937 29.9467 63.7219L29.9432 64.5144C29.9423 64.5701 29.9196 64.6231 29.8799 64.6621C29.8402 64.7011 29.7868 64.723 29.7312 64.723H28.5076C28.4797 64.723 28.4522 64.7285 28.4264 64.7391C28.4007 64.7498 28.3773 64.7654 28.3577 64.7851C28.338 64.8048 28.3223 64.8282 28.3117 64.8539C28.301 64.8796 28.2955 64.9072 28.2955 64.935V68.6823C28.2955 68.7385 28.2732 68.7925 28.2334 68.8322C28.1937 68.872 28.1397 68.8944 28.0835 68.8944H27.2527C27.2246 68.8944 27.1967 68.8888 27.1707 68.8779C27.1448 68.867 27.1213 68.8511 27.1015 68.831C27.0818 68.811 27.0662 68.7872 27.0558 68.761C27.0453 68.7349 27.0402 68.707 27.0407 68.6788L27.0963 64.9385C27.0967 64.9104 27.0916 64.8824 27.0811 64.8563C27.0707 64.8302 27.0552 64.8064 27.0354 64.7863C27.0157 64.7663 26.9921 64.7503 26.9662 64.7395C26.9402 64.7286 26.9124 64.723 26.8842 64.723Z" fill="white"/>
<path d="M32.7893 63.5153L31.823 63.5119C31.7519 63.5117 31.6941 63.5691 31.6939 63.6401L31.676 68.7569C31.6758 68.828 31.7332 68.8857 31.8042 68.886L32.7706 68.8894C32.8416 68.8896 32.8994 68.8322 32.8996 68.7612L32.9175 63.6444C32.9177 63.5733 32.8603 63.5155 32.7893 63.5153Z" fill="white"/>
<path d="M37.3713 66.8921L38.5393 63.6871C38.5833 63.5666 38.6702 63.5064 38.8 63.5064H39.7559C39.9297 63.5064 39.9842 63.5875 39.9193 63.7497L38.07 68.4459C38.0054 68.6087 37.8934 68.7483 37.7486 68.8468C37.6039 68.9453 37.4329 68.9982 37.2578 68.9985C37.0826 68.9989 36.9114 68.9468 36.7662 68.8489C36.621 68.751 36.5085 68.6119 36.4432 68.4494L34.5626 63.7497C34.5517 63.7226 34.5477 63.6933 34.5509 63.6642C34.5541 63.6352 34.5644 63.6074 34.5809 63.5834C34.5974 63.5593 34.6196 63.5397 34.6455 63.5262C34.6714 63.5128 34.7002 63.506 34.7294 63.5064H35.6576C35.7241 63.5064 35.789 63.5267 35.8437 63.5646C35.8983 63.6025 35.9401 63.6561 35.9635 63.7184L37.1453 66.8956C37.1533 66.9188 37.1684 66.9388 37.1884 66.9528C37.2084 66.9667 37.2325 66.974 37.2572 66.9737C37.282 66.9733 37.3063 66.9652 37.3267 66.9506C37.3471 66.936 37.3627 66.9156 37.3713 66.8921Z" fill="white"/>
<path d="M42.6277 63.51H41.7726C41.6727 63.51 41.5918 63.5909 41.5918 63.6908V68.7173C41.5918 68.8171 41.6727 68.898 41.7726 68.898H42.6277C42.7275 68.898 42.8084 68.8171 42.8084 68.7173V63.6908C42.8084 63.5909 42.7275 63.51 42.6277 63.51Z" fill="white"/>
<path d="M51.9047 63.5063H51.0078C50.8946 63.5063 50.8027 63.5982 50.8027 63.7114V68.6893C50.8027 68.8025 50.8946 68.8944 51.0078 68.8944H51.9047C52.0179 68.8944 52.1098 68.8025 52.1098 68.6893V63.7114C52.1098 63.5982 52.0179 63.5063 51.9047 63.5063Z" fill="white"/>
<path d="M62.6219 66.0091V68.6753C62.6219 68.8213 62.5489 68.8943 62.4029 68.8943H61.6243C61.4783 68.8943 61.4053 68.8213 61.4053 68.6753V64.0138C61.4062 63.8722 61.4517 63.7346 61.5353 63.6203C61.6188 63.5061 61.7362 63.421 61.8708 63.3771C62.0054 63.3333 62.1503 63.3329 62.2851 63.3761C62.42 63.4192 62.5378 63.5037 62.6219 63.6175L64.6728 66.4262C64.6855 66.4428 64.7031 66.455 64.723 66.4611C64.7429 66.4673 64.7643 66.4671 64.7841 66.4607C64.804 66.4542 64.8213 66.4417 64.8338 66.4249C64.8462 66.4082 64.8531 66.388 64.8536 66.3671L64.8188 63.767C64.8165 63.5932 64.9023 63.5063 65.0761 63.5063H65.8791C66.0251 63.5063 66.0981 63.5793 66.0981 63.7253V68.2894C66.0981 68.4417 66.0499 68.59 65.9603 68.7131C65.8707 68.8362 65.7443 68.9277 65.5995 68.9744C65.4546 69.0212 65.2986 69.0208 65.1539 68.9733C65.0093 68.9258 64.8835 68.8336 64.7945 68.71L62.7992 65.95C62.681 65.7854 62.6219 65.8051 62.6219 66.0091Z" fill="white"/>
<path d="M71.4585 63.593C72.4666 63.3532 74.959 63.3428 75.2614 64.7506C75.6855 66.725 74.3298 67.1874 72.7516 67.2499C72.7253 67.2508 72.6994 67.257 72.6754 67.2682C72.6515 67.2794 72.63 67.2953 72.6122 67.315C72.5944 67.3348 72.5806 67.3579 72.5718 67.3832C72.5629 67.4084 72.559 67.4352 72.5604 67.462L72.6369 68.6126C72.6393 68.6487 72.6342 68.6849 72.622 68.719C72.6098 68.7531 72.5907 68.7843 72.566 68.8107C72.5412 68.8371 72.5112 68.8582 72.478 68.8725C72.4448 68.8869 72.4089 68.8942 72.3727 68.8941H71.5732C71.3994 68.8941 71.3125 68.8072 71.3125 68.6334V63.7773C71.3125 63.6776 71.3612 63.6162 71.4585 63.593ZM72.6161 64.841V65.8838C72.6161 65.917 72.6292 65.9488 72.6527 65.9723C72.6762 65.9958 72.708 66.009 72.7412 66.009H73.2278C73.436 66.0087 73.6356 65.9559 73.7829 65.8621C73.9302 65.7682 74.0131 65.641 74.0135 65.5084V65.2164C74.0136 65.1506 73.9934 65.0854 73.954 65.0247C73.9146 64.9639 73.8568 64.9087 73.7838 64.8622C73.7108 64.8157 73.6242 64.7788 73.5288 64.7537C73.4334 64.7286 73.3311 64.7157 73.2278 64.7158H72.7412C72.7248 64.7158 72.7085 64.7191 72.6933 64.7254C72.6781 64.7316 72.6643 64.7409 72.6527 64.7525C72.6411 64.7641 72.6319 64.7779 72.6256 64.7931C72.6193 64.8083 72.6161 64.8245 72.6161 64.841Z" fill="white"/>
<path d="M78.6088 67.6778H80.6666C80.7137 67.6782 80.759 67.6958 80.7942 67.7271C80.8293 67.7584 80.8519 67.8014 80.8578 67.8481L80.9656 68.6754C80.9691 68.7029 80.9666 68.7309 80.9584 68.7574C80.9502 68.7839 80.9364 68.8083 80.9179 68.8291C80.8995 68.8498 80.8769 68.8664 80.8515 68.8776C80.8261 68.8889 80.7987 68.8946 80.7709 68.8944H77.3226C77.297 68.8944 77.2717 68.8894 77.2481 68.8796C77.2245 68.8698 77.203 68.8555 77.1849 68.8374C77.1669 68.8193 77.1525 68.7979 77.1427 68.7742C77.133 68.7506 77.1279 68.7253 77.1279 68.6997V63.6976C77.1279 63.672 77.133 63.6467 77.1427 63.6231C77.1525 63.5995 77.1669 63.578 77.1849 63.5599C77.203 63.5419 77.2245 63.5275 77.2481 63.5177C77.2717 63.508 77.297 63.5029 77.3226 63.5029L78.2229 63.5134C78.2745 63.5134 78.3241 63.5339 78.3606 63.5704C78.3971 63.6069 78.4176 63.6564 78.4176 63.708L78.4141 67.4831C78.4141 67.5347 78.4346 67.5842 78.4711 67.6207C78.5076 67.6573 78.5571 67.6778 78.6088 67.6778Z" fill="white"/>
<path d="M87.2017 63.7359C87.2399 65.6095 87.7335 68.6372 85.3767 68.9188C81.8832 69.3429 82.5263 65.8876 82.5158 63.7463C82.5154 63.7162 82.5209 63.6863 82.532 63.6582C82.5431 63.6302 82.5596 63.6047 82.5806 63.5831C82.6015 63.5614 82.6266 63.5441 82.6542 63.5322C82.6819 63.5202 82.7117 63.5139 82.7418 63.5134L83.5656 63.503C83.7255 63.5007 83.8066 63.5806 83.809 63.7428C83.8298 64.81 83.2458 68.3348 85.2863 67.7369C86.2249 67.4588 85.9155 64.525 85.9224 63.7359C85.9248 63.5829 86.0024 63.5065 86.1553 63.5065H86.9688C87.1217 63.5065 87.1993 63.5829 87.2017 63.7359Z" fill="white"/>
</svg>
