<svg width="100" height="100" viewBox="0 0 100 100" fill="none" xmlns="http://www.w3.org/2000/svg">
<g clip-path="url(#clip0_97_51)">
<rect width="100" height="100" fill="white"/>
<path d="M99.828 99.9881C99.8989 99.9881 99.9344 99.9526 99.9344 99.8817L99.9408 0.108555C99.9408 0.0361848 99.9039 0 99.8301 0H-0.0537293C-0.0819555 0 -0.109026 0.0112127 -0.128985 0.0311716C-0.148944 0.0511306 -0.160156 0.0782008 -0.160156 0.106427V99.8817C-0.160156 99.9099 -0.148944 99.937 -0.128985 99.9569C-0.109026 99.9769 -0.0819555 99.9881 -0.0537293 99.9881H27.6705C27.7415 99.9881 27.7769 99.9526 27.7769 99.8817V59.8652C27.7769 59.7232 27.8479 59.6523 27.9898 59.6523L44.8563 59.6544C44.9613 59.6544 45.0138 59.6012 45.0138 59.4948L45.0245 52.1513C45.0253 52.1386 45.022 52.126 45.0151 52.1153C45.0082 52.1046 44.9981 52.0964 44.9862 52.0919C44.9743 52.0874 44.9613 52.0868 44.949 52.0902C44.9367 52.0936 44.9259 52.1009 44.9181 52.1109C40.9483 56.7064 35.1417 58.554 29.1073 58.5667C22.4322 58.5795 16.3807 56.6844 10.953 52.8814C10.899 52.8417 10.8877 52.792 10.9189 52.7324L16.4446 42.3558C16.4531 42.3393 16.4653 42.3249 16.4803 42.3139C16.4953 42.3028 16.5126 42.2954 16.5309 42.2921C16.5492 42.2888 16.568 42.2897 16.5859 42.2949C16.6038 42.3 16.6203 42.3092 16.634 42.3217C19.9673 45.3953 24.3542 47.6729 28.9838 47.3642C30.1744 47.2848 31.14 47.0556 31.8808 46.6767C34.2115 45.4826 35.3928 42.641 33.9965 40.2507C33.3792 39.1928 31.9872 38.2945 30.8527 37.839C28.9739 37.0841 26.4438 36.1695 23.2623 35.0953C17.3428 33.0988 13.3667 29.4398 12.9814 22.8797C12.4791 14.3591 16.932 7.56695 25.2504 5.47247C32.0532 3.75687 40.1225 5.70874 46.225 8.91432C46.2552 8.93036 46.2779 8.95746 46.2883 8.98974C46.2986 9.02202 46.2958 9.05687 46.2803 9.08673L41.142 19.1675C41.136 19.1795 41.1273 19.1899 41.1165 19.1979C41.1058 19.206 41.0934 19.2114 41.0802 19.2139C41.067 19.2164 41.0535 19.2158 41.0406 19.2122C41.0277 19.2085 41.0158 19.202 41.0058 19.193C38.3664 16.9559 34.8799 15.4915 31.3848 15.9044C28.9072 16.1982 26.5402 17.7925 26.7552 20.551C26.9702 23.3394 30.6888 24.5612 32.9025 25.1998C37.4341 26.5109 41.4485 27.9796 44.9138 31.2938C44.924 31.3032 44.9367 31.3094 44.9504 31.3118C44.964 31.3142 44.9781 31.3126 44.9909 31.3072C45.0037 31.3018 45.0146 31.2929 45.0225 31.2814C45.0303 31.27 45.0347 31.2566 45.0351 31.2427L45.0096 27.622C45.0096 27.5927 45.0212 27.5645 45.042 27.5438C45.0628 27.523 45.0909 27.5114 45.1203 27.5114H58.0809C58.1159 27.5114 58.1495 27.5253 58.1743 27.55C58.199 27.5748 58.2129 27.6083 58.2129 27.6433L58.1959 48.3689C58.1945 48.5378 58.2456 48.5548 58.3491 48.42L74.3664 27.5986C74.4118 27.5419 74.4707 27.5135 74.5431 27.5135L90.5029 27.5092C90.632 27.5092 90.6547 27.5589 90.571 27.6582L70.5904 51.4936C70.5658 51.5228 70.5523 51.5597 70.5523 51.5979C70.5523 51.6361 70.5658 51.673 70.5904 51.7022L92.5335 78.3345C92.5411 78.3434 92.5459 78.3542 92.5474 78.3658C92.5488 78.3774 92.5469 78.3892 92.5418 78.3999C92.5366 78.4106 92.5285 78.4197 92.5184 78.4262C92.5083 78.4327 92.4965 78.4363 92.4845 78.4366H75.6201C75.5935 78.4366 75.5672 78.4305 75.5433 78.4187C75.5193 78.4069 75.4982 78.3897 75.4818 78.3685L58.3726 56.4297C58.3576 56.4112 58.3373 56.3978 58.3144 56.3913C58.2915 56.3849 58.2672 56.3857 58.2448 56.3936C58.2224 56.4015 58.203 56.4162 58.1893 56.4356C58.1755 56.4551 58.1682 56.4783 58.1682 56.5021L58.2236 63.0069C58.225 63.0707 58.2484 63.1261 58.2938 63.1729C59.9824 64.8644 61.0439 66.8978 61.4781 69.2733C62.4977 74.865 61.4079 80.2906 56.2823 83.3067C56.2635 83.3175 56.2485 83.3338 56.2394 83.3535C56.2303 83.3732 56.2276 83.3952 56.2315 83.4165C56.2355 83.4378 56.246 83.4573 56.2616 83.4723C56.2772 83.4874 56.2971 83.4972 56.3185 83.5004C61.5632 84.4285 65.3435 87.3254 66.3482 92.7553C66.7924 95.1606 66.7115 97.5339 66.1055 99.8753C66.1023 99.8888 66.1021 99.9029 66.105 99.9165C66.1079 99.9301 66.1137 99.9428 66.1221 99.9537C66.1306 99.9645 66.1413 99.9733 66.1535 99.9792C66.1658 99.9852 66.1792 99.9883 66.1928 99.9881H99.828Z" fill="#F1592A"/>
<path d="M40.9717 69.8606C40.9717 69.8448 40.978 69.8297 40.9891 69.8185C41.0003 69.8073 41.0155 69.801 41.0313 69.801H44.6392C45.9799 69.801 47.2657 70.2708 48.2138 71.1071C49.1618 71.9434 49.6944 73.0776 49.6944 74.2603V75.1756C49.6944 76.3583 49.1618 77.4925 48.2138 78.3288C47.2657 79.1651 45.9799 79.6349 44.6392 79.6349H41.0313C41.0155 79.6349 41.0003 79.6286 40.9891 79.6174C40.978 79.6062 40.9717 79.5911 40.9717 79.5753V69.8606Z" fill="#F1592A"/>
<path d="M41.1079 99.9732C41.0171 99.9717 40.9717 99.9256 40.9717 99.8348L40.9738 89.6093C40.9744 89.5694 40.9905 89.5313 41.0187 89.5031C41.0469 89.4748 41.085 89.4587 41.1249 89.4582C42.71 89.4284 44.2738 89.4624 45.8162 89.5604C49.6008 89.7988 53.8323 90.7268 53.264 95.648C52.9298 98.5662 50.3543 99.9476 47.6447 99.9817C45.4452 100.009 43.2662 100.006 41.1079 99.9732Z" fill="#F1592A"/>
</g>
<defs>
<clipPath id="clip0_97_51">
<rect width="100" height="100" fill="white"/>
</clipPath>
</defs>
</svg>
