<svg width="100" height="100" viewBox="0 0 100 100" fill="none" xmlns="http://www.w3.org/2000/svg">
<rect width="100" height="100" fill="#C5FFEA"/>
<path d="M62.9962 59.8099C62.2395 59.9399 60.9054 60.3008 58.9937 60.8924C58.3637 61.0899 58.0962 61.3074 57.6262 61.5149C54.6945 62.8049 52.0612 64.5441 49.7262 66.7324" stroke="#6F954E" stroke-width="0.5"/>
<path d="M49.7261 66.7325C49.6578 66.8359 49.5778 66.9 49.4861 66.925C49.4128 66.9467 49.3828 66.92 49.3961 66.845C49.8061 64.515 50.2378 62.7784 50.6911 61.635C51.9561 58.435 54.6561 56.275 57.6636 54.0875" stroke="#808F3E" stroke-width="0.5"/>
<path d="M49.7262 66.7324L50.1462 66.8624C50.2245 66.8874 50.2962 66.8758 50.3612 66.8274C51.4162 66.0649 52.4687 65.2574 53.6037 64.6174C54.5512 64.0824 55.5162 63.3949 56.3712 62.9624C58.2195 62.0258 60.1162 61.1999 62.0612 60.4849C62.9787 60.1474 63.4962 61.1549 63.6062 61.7674C63.9362 63.5874 64.2829 65.4291 64.6462 67.2924" stroke="#E59830" stroke-width="0.5"/>
<path d="M39.3087 65.3075L39.6112 65.2625C39.6204 65.2614 39.6297 65.2622 39.6385 65.2649C39.6473 65.2675 39.6554 65.272 39.6623 65.2779C39.6691 65.2838 39.6746 65.2911 39.6783 65.2992C39.682 65.3073 39.6838 65.3161 39.6837 65.325C39.6837 65.35 39.6837 65.375 39.6837 65.4C39.6834 65.4154 39.6882 65.4305 39.6973 65.4429C39.7065 65.4554 39.7195 65.4644 39.7343 65.4687C39.7491 65.473 39.765 65.4722 39.7793 65.4666C39.7937 65.461 39.8058 65.4507 39.8137 65.4375C40.6912 63.925 41.8662 62.8175 42.9137 61.455C43.5812 60.5875 44.4962 60.21 45.2462 59.545C46.2287 58.6775 47.5087 58.0175 48.3987 57.415C49.6271 56.5817 50.9146 55.8483 52.2612 55.215C52.7146 55.0017 53.0896 54.69 53.3862 54.28C53.4279 54.2217 53.4337 54.1592 53.4037 54.0925C53.3421 53.9642 53.3829 53.7408 53.5262 53.4225" stroke="#E59830" stroke-width="0.5"/>
<path d="M54.7711 52.6525L53.5261 53.4225" stroke="#808F3E" stroke-width="0.5"/>
<path d="M53.5262 53.4225C50.1412 55.3858 47.8337 56.785 46.6037 57.62C43.5612 59.6825 40.7587 61.8175 39.3087 65.3075" stroke="#6F954E" stroke-width="0.5"/>
<path d="M39.3087 65.3075L38.6912 67.565C38.6842 67.5886 38.6699 67.6094 38.6503 67.6243C38.6306 67.6392 38.6067 67.6474 38.5821 67.6477C38.5574 67.648 38.5334 67.6403 38.5134 67.6259C38.4934 67.6114 38.4786 67.5909 38.4712 67.5674C37.2762 63.6091 37.9053 59.9775 40.3587 56.6725C41.147 55.6108 41.9628 54.5575 42.8062 53.5125" stroke="#808F3E" stroke-width="0.5"/>
<path d="M38.2412 28.1575C44.7812 22.1125 49.7962 17.7125 49.3012 8.12499C49.3004 8.09847 49.3084 8.0723 49.3239 8.0506C49.3394 8.02891 49.3615 8.01293 49.3868 8.00519C49.412 7.99745 49.4389 7.99839 49.4632 8.00786C49.4876 8.01733 49.508 8.03479 49.5212 8.05749C50.0037 8.87499 50.3487 10.025 50.6137 10.665C54.5362 20.15 51.1262 27.155 44.0387 33.5575C40.2162 37.01 36.3287 40.355 32.8087 44.125C32.7958 44.1385 32.7793 44.148 32.7612 44.1524C32.7431 44.1568 32.7242 44.1559 32.7065 44.1499C32.6889 44.1438 32.6734 44.1328 32.6618 44.1182C32.6502 44.1036 32.6431 44.086 32.6412 44.0675C32.1562 39.375 32.4862 34.9025 35.4312 31.0475C35.9329 30.3892 36.8695 29.4258 38.2412 28.1575Z" fill="#098C5B"/>
<path d="M62.9961 59.8101C62.2395 59.9401 60.9053 60.3009 58.9936 60.8926C58.3636 61.0901 58.0961 61.3076 57.6261 61.5151C54.6945 62.8051 52.0611 64.5442 49.7261 66.7326C49.6578 66.8359 49.5778 66.9001 49.4861 66.9251C49.4128 66.9467 49.3828 66.9201 49.3961 66.8451C49.8061 64.5151 50.2378 62.7784 50.6911 61.6351C51.9561 58.4351 54.6561 56.2751 57.6636 54.0876C60.7711 51.7426 63.3111 50.0026 64.9486 46.2776C65.7611 44.4251 65.7461 42.2751 65.6761 40.2851C65.6754 40.2645 65.6798 40.244 65.689 40.2256C65.6982 40.2072 65.712 40.1914 65.7289 40.1797C65.7459 40.1679 65.7655 40.1607 65.786 40.1586C65.8065 40.1565 65.8272 40.1596 65.8461 40.1676C65.9378 40.2042 66.012 40.2792 66.0686 40.3926C68.3953 45.0526 70.4945 49.8109 72.3661 54.6676C73.1195 56.6192 73.6453 58.1992 73.9436 59.4076C77.1762 72.4826 70.7561 85.7026 57.8211 90.1601C50.6761 92.6201 42.2561 91.4201 35.9461 87.0676C23.0611 78.1751 21.3486 60.4426 31.8886 48.9726C36.4911 43.9626 42.3736 39.2276 46.9461 35.0276C51.8436 30.5301 54.8711 25.2301 54.4511 18.2526C54.449 18.2274 54.4561 18.2025 54.471 18.1824C54.4858 18.1623 54.5076 18.1483 54.5323 18.1429C54.5571 18.1374 54.5831 18.141 54.6058 18.1528C54.6285 18.1647 54.6464 18.1841 54.6561 18.2076C56.1886 22.0476 57.4161 25.8076 57.1936 30.0276C56.8536 36.4851 51.8736 41.2651 47.3886 45.2776C45.2986 47.1476 43.212 49.0209 41.1286 50.8976C35.7361 55.7526 31.8911 62.8951 33.7486 70.3501C35.8411 78.7576 44.7536 84.5351 53.3361 82.5601C56.9261 81.7334 59.9503 79.8559 62.4086 76.9276C66.5536 71.9926 67.0486 65.9751 65.1036 59.9751C65.0749 59.8871 65.0231 59.8085 64.9536 59.7474C64.8841 59.6863 64.7995 59.6449 64.7086 59.6276C64.2786 59.5476 63.7078 59.6084 62.9961 59.8101Z" fill="#098C5B"/>
<path d="M54.7712 52.6525L53.5262 53.4225C50.1412 55.3858 47.8337 56.785 46.6037 57.62C43.5612 59.6825 40.7587 61.8175 39.3087 65.3075L38.6912 67.565C38.6842 67.5887 38.6699 67.6095 38.6503 67.6244C38.6306 67.6393 38.6067 67.6475 38.5821 67.6477C38.5574 67.648 38.5334 67.6404 38.5134 67.6259C38.4934 67.6115 38.4786 67.591 38.4712 67.5675C37.2762 63.6092 37.9053 59.9775 40.3587 56.6725C41.147 55.6108 41.9628 54.5575 42.8062 53.5125C47.1512 49.4725 52.0062 45.775 55.8812 41.2775C58.8237 37.8675 60.5087 33.495 59.7462 28.8925C59.7195 28.7392 59.7495 28.6217 59.8362 28.54C59.8503 28.5259 59.8677 28.5155 59.8868 28.5096C59.9059 28.5037 59.9262 28.5026 59.9461 28.5063C59.9659 28.5099 59.9847 28.5183 60.0008 28.5307C60.0169 28.5431 60.0299 28.5591 60.0387 28.5775C62.3262 33.365 64.5362 38.815 62.6487 44.07C61.2637 47.93 58.0587 50.46 54.7712 52.6525Z" fill="#098C5B"/>
<path d="M54.7712 52.6525C55.8028 52.9691 56.767 53.4475 57.6637 54.0875C54.6562 56.275 51.9562 58.435 50.6912 61.635C50.2378 62.7783 49.8062 64.515 49.3962 66.845C49.3828 66.92 49.4128 66.9466 49.4862 66.925C49.5778 66.9 49.6578 66.8358 49.7262 66.7325L50.1462 66.8625C50.2245 66.8875 50.2962 66.8758 50.3612 66.8275C51.4162 66.065 52.4687 65.2575 53.6037 64.6175C54.5512 64.0825 55.5162 63.395 56.3712 62.9625C58.2195 62.0258 60.1162 61.2 62.0612 60.485C62.9787 60.1475 63.4962 61.155 63.6062 61.7675C63.9362 63.5875 64.2829 65.4291 64.6462 67.2925C64.1712 73.9775 59.5062 79.445 53.0112 80.9375C44.1587 82.9675 35.6562 76.385 35.1262 67.3925C34.7837 61.5525 37.8087 56.5625 42.8062 53.5125C41.9628 54.5575 41.147 55.6108 40.3587 56.6725C37.9053 59.9775 37.2762 63.6091 38.4712 67.5675C38.4786 67.591 38.4934 67.6114 38.5134 67.6259C38.5334 67.6403 38.5574 67.648 38.5821 67.6477C38.6067 67.6474 38.6306 67.6392 38.6503 67.6243C38.6699 67.6094 38.6843 67.5886 38.6912 67.565L39.3087 65.3075L39.6112 65.2625C39.6203 65.2614 39.6296 65.2622 39.6384 65.2649C39.6472 65.2675 39.6553 65.2719 39.6622 65.2779C39.6691 65.2838 39.6745 65.291 39.6782 65.2992C39.6819 65.3073 39.6838 65.3161 39.6837 65.325C39.6837 65.35 39.6837 65.375 39.6837 65.4C39.6833 65.4154 39.6881 65.4305 39.6973 65.4429C39.7064 65.4554 39.7194 65.4644 39.7343 65.4687C39.7491 65.473 39.7649 65.4722 39.7793 65.4666C39.7936 65.4609 39.8057 65.4507 39.8137 65.4375C40.6912 63.925 41.8662 62.8175 42.9137 61.455C43.5812 60.5875 44.4962 60.21 45.2462 59.545C46.2287 58.6775 47.5087 58.0175 48.3987 57.415C49.627 56.5816 50.9145 55.8483 52.2612 55.215C52.7145 55.0016 53.0895 54.69 53.3862 54.28C53.4278 54.2216 53.4337 54.1591 53.4037 54.0925C53.342 53.9641 53.3828 53.7408 53.5262 53.4225L54.7712 52.6525Z" fill="#F69120"/>
<path d="M53.5261 53.4225C53.3828 53.7408 53.3419 53.9642 53.4036 54.0925C53.4336 54.1592 53.4278 54.2217 53.3861 54.28C53.0894 54.69 52.7144 55.0017 52.2611 55.215C50.9144 55.8483 49.6269 56.5817 48.3986 57.415C47.5086 58.0175 46.2286 58.6775 45.2461 59.545C44.4961 60.21 43.5811 60.5875 42.9136 61.455C41.8661 62.8175 40.6911 63.925 39.8136 65.4375C39.8057 65.4507 39.7936 65.461 39.7792 65.4666C39.7648 65.4722 39.749 65.473 39.7342 65.4687C39.7193 65.4644 39.7063 65.4554 39.6972 65.4429C39.6881 65.4305 39.6833 65.4154 39.6836 65.4C39.6836 65.375 39.6836 65.35 39.6836 65.325C39.6837 65.3161 39.6819 65.3073 39.6782 65.2992C39.6745 65.2911 39.669 65.2838 39.6621 65.2779C39.6553 65.272 39.6472 65.2675 39.6384 65.2649C39.6296 65.2622 39.6203 65.2614 39.6111 65.2625L39.3086 65.3075C40.7586 61.8175 43.5611 59.6825 46.6036 57.62C47.8336 56.785 50.1411 55.3858 53.5261 53.4225Z" fill="#D49E40"/>
<path d="M62.9962 59.8099C64.3795 62.1733 64.9295 64.6674 64.6462 67.2924C64.2829 65.4291 63.9362 63.5874 63.6062 61.7674C63.4962 61.1549 62.9787 60.1474 62.0612 60.4849C60.1162 61.1999 58.2195 62.0258 56.3712 62.9624C55.5162 63.3949 54.5512 64.0824 53.6037 64.6174C52.4687 65.2574 51.4162 66.0649 50.3612 66.8274C50.2962 66.8758 50.2245 66.8874 50.1462 66.8624L49.7262 66.7324C52.0612 64.5441 54.6945 62.8049 57.6262 61.5149C58.0962 61.3074 58.3637 61.0899 58.9937 60.8924C60.9054 60.3008 62.2395 59.9399 62.9962 59.8099Z" fill="#D49E40"/>
</svg>
