<svg width="100" height="100" viewBox="0 0 100 100" fill="none" xmlns="http://www.w3.org/2000/svg">
<rect width="100" height="100" fill="#FF0000"/>
<g clip-path="url(#clip0_101_105)">
<path d="M14 15H86V85.5H14V15Z" fill="#FF0000"/>
<path d="M49.565 41.8688C46.2412 41.8238 42.9188 41.8037 39.5975 41.8088C39.5716 41.8088 39.5468 41.819 39.5286 41.8373C39.5103 41.8556 39.5 41.8804 39.5 41.9062V80.9062C39.5 80.9311 39.4901 80.955 39.4725 80.9725C39.455 80.9901 39.4311 81 39.4062 81H18.5938C18.5689 81 18.545 80.9901 18.5275 80.9725C18.5099 80.955 18.5 80.9311 18.5 80.9062V19.5938C18.5 19.5689 18.5099 19.545 18.5275 19.5275C18.545 19.5099 18.5689 19.5 18.5938 19.5H81.5469C81.5842 19.5 81.6199 19.5148 81.6463 19.5412C81.6727 19.5676 81.6875 19.6033 81.6875 19.6406V80.9044C81.6875 80.9297 81.6774 80.9541 81.6595 80.972C81.6416 80.9899 81.6172 81 81.5919 81C71.7781 80.9987 61.9512 80.9994 52.1112 81.0019C51.1681 81.0019 49.6419 81.1369 48.7344 81.0019C45.5844 80.5312 42.9669 78.3731 42.6331 75.1331C42.2956 71.8594 42.89 69.0469 44.6356 66.3075C45.9481 64.2506 47.6469 62.6063 49.7525 60.8119C52.1525 58.7681 54.5412 56.7113 56.9187 54.6413C59.3844 52.4925 61.3512 49.3988 60.1025 45.9038C58.8069 42.2719 52.8312 41.9137 49.565 41.8688Z" fill="white"/>
<path d="M54.2075 32.865C46.7738 32.8225 39.3412 32.8038 31.91 32.8088C31.884 32.8092 31.8592 32.8197 31.841 32.838C31.8227 32.8562 31.8125 32.8807 31.8125 32.9062V73.7812C31.8125 73.8061 31.8026 73.83 31.785 73.8475C31.7675 73.8651 31.7436 73.875 31.7188 73.875H27.4062C27.3814 73.875 27.3575 73.8651 27.34 73.8475C27.3224 73.83 27.3125 73.8061 27.3125 73.7812V26.9062C27.3125 26.8437 27.3437 26.8125 27.4062 26.8125H74.4688C74.4936 26.8125 74.5175 26.8224 74.535 26.84C74.5526 26.8575 74.5625 26.8814 74.5625 26.9062V73.5919C74.5625 73.6531 74.5319 73.6838 74.4706 73.6838C68.6419 73.6913 62.8187 73.6919 57.0012 73.6856C55.4394 73.6837 54.3256 73.9687 52.9906 72.9C52.3944 72.4225 52.0556 71.8731 51.9744 71.2519C51.5731 68.2219 53.2644 66.1819 55.5481 64.3988C56.9906 63.2712 58.44 62.1525 59.8962 61.0425C64.8106 57.2944 69.4194 52.2169 69.4681 45.6506C69.5094 39.8663 65.9356 36.0244 60.7831 33.9C58.7244 33.0506 56.3319 32.8762 54.2075 32.865Z" fill="#FF0000"/>
</g>
<defs>
<clipPath id="clip0_101_105">
<rect width="72" height="70.5" fill="white" transform="translate(14 15)"/>
</clipPath>
</defs>
</svg>
