<svg width="100" height="100" viewBox="0 0 100 100" fill="none" xmlns="http://www.w3.org/2000/svg">
<rect width="100" height="100" fill="white"/>
<path d="M85.7272 53.7409L85.6822 56.7709L85.6709 60.6634L85.5359 62.4559C85.6784 63.7659 85.5509 64.7471 85.1534 65.3996C83.1234 67.6521 80.9584 69.7871 78.6584 71.8046C78.2009 72.2071 77.8159 72.6771 77.5034 73.2146L71.0984 79.5071C69.3859 81.2046 67.6784 82.9059 65.9759 84.6109C64.5247 86.0696 63.2084 86.2421 61.2659 85.7734L53.9946 85.9046L50.0946 85.7884L35.3721 85.8259C35.0346 85.8284 34.7459 85.7084 34.5059 85.4659C28.1559 79.0734 21.7771 72.6434 15.3696 66.1759C14.4396 65.2346 14.0271 64.6459 14.0196 63.2321C13.9746 54.1971 14.0071 45.1621 14.1171 36.1271C14.1321 35.1409 14.4021 34.6684 15.1296 33.9409C21.3596 27.7083 27.5734 21.4608 33.7709 15.1983C34.8096 14.1521 35.7246 14.0096 37.2959 14.0058C45.9734 13.9833 54.6496 14.0258 63.3246 14.1333C64.3596 14.1446 64.8584 14.1596 65.6384 14.9133C72.0884 21.1533 78.2947 27.6708 84.7259 33.9446C85.3634 34.5709 85.6409 35.1409 85.6372 36.0896C85.6097 41.9846 85.6397 47.8684 85.7272 53.7409Z" fill="#0B79BF"/>
<path d="M82.4608 34.211C83.3533 35.111 84.2271 35.4935 84.2346 36.971C84.2721 46.0035 84.2508 55.016 84.1708 64.0085C84.1707 64.0826 84.1542 64.1559 84.1225 64.2233C84.0907 64.2906 84.0445 64.3505 83.9871 64.3985C81.1333 66.7835 78.5233 69.8435 76.0558 72.1535C71.9533 75.9935 68.057 80.1448 64.0745 84.1198C63.982 84.2123 63.8695 84.2585 63.737 84.2585L36.197 84.251C35.9895 84.251 35.8133 84.1773 35.6683 84.0298L15.7257 64.1023C15.6457 64.0223 15.607 63.926 15.6095 63.8135C15.617 63.1798 15.4932 62.5685 15.5007 61.9835C15.6057 53.801 15.5982 45.6198 15.4782 37.4398C15.4632 36.4198 15.6845 35.8498 16.4345 35.0998C22.7595 28.8023 29.0833 22.5048 35.4058 16.2073C35.912 15.701 36.5308 15.6523 37.1908 15.656C40.0908 15.666 42.9895 15.6848 45.887 15.7123C51.2308 15.7648 57.1858 15.506 62.8558 15.6335C63.2283 15.641 63.5995 15.6873 63.9695 15.7723C64.0849 15.7993 64.1901 15.8577 64.2733 15.941C70.3483 22.0185 76.4108 28.1085 82.4608 34.211Z" fill="white"/>
<path d="M37.0821 17.1409C40.0109 16.9346 39.6809 18.7084 39.6959 20.8759C39.7259 26.1084 39.7171 31.4971 39.6696 37.0421C39.6671 37.4446 39.4646 37.6271 39.0621 37.5896C38.8484 37.5709 38.4959 37.7021 38.2521 37.6984C32.2071 37.6384 26.1621 37.6559 20.1171 37.7509C19.1271 37.7659 15.9396 37.7134 17.8446 35.6809C23.5558 29.5871 28.7533 24.5884 35.6533 17.8909C36.1358 17.4234 36.6121 17.1734 37.0821 17.1409Z" fill="#0B79BF"/>
<path d="M41.8048 25.8523C42.0216 30.4491 45.8651 34.0026 50.3895 33.7892C54.9139 33.5758 58.4059 29.6764 58.1891 25.0796C57.9724 20.4828 54.1289 16.9293 49.6045 17.1427C45.0801 17.356 41.5881 21.2555 41.8048 25.8523Z" fill="#E62F36"/>
<path d="M64.2734 17.9997C70.1684 23.6809 75.4746 28.8897 81.6284 35.5459C82.1584 36.1159 82.4284 36.7234 82.4384 37.3684C82.4984 40.9284 82.4722 44.5497 82.3597 48.2322C82.3538 48.4109 82.2784 48.5803 82.1495 48.7043C82.0207 48.8282 81.8485 48.897 81.6697 48.8959L60.6509 48.8022C60.5361 48.8012 60.4262 48.7557 60.3443 48.6753C60.2624 48.5948 60.215 48.4857 60.2121 48.3709C59.9596 38.3784 59.9009 28.3834 60.0359 18.3859C60.0371 18.3243 60.0507 18.2636 60.0758 18.2076C60.1009 18.1515 60.1371 18.1012 60.1821 18.0597C61.4234 16.9047 62.9946 16.7734 64.2734 17.9997Z" fill="#0B79BF"/>
<path d="M38.8781 39.2358H18.2156C17.76 39.2358 17.3906 39.6052 17.3906 40.0608V48.9858C17.3906 49.4415 17.76 49.8109 18.2156 49.8109H38.8781C39.3338 49.8109 39.7031 49.4415 39.7031 48.9858V40.0608C39.7031 39.6052 39.3338 39.2358 38.8781 39.2358Z" fill="#0B79BF"/>
<path d="M58.0488 39.3136L42.0138 39.2857C41.5457 39.2848 41.1656 39.6636 41.1648 40.1317L41.0918 81.9666C41.0909 82.4347 41.4697 82.8148 41.9378 82.8156L57.9728 82.8436C58.4408 82.8444 58.8209 82.4656 58.8218 81.9976L58.8948 40.1626C58.8956 39.6946 58.5168 39.3145 58.0488 39.3136Z" fill="#0B79BF"/>
<path d="M38.9759 51.221C39.0697 51.2205 39.1628 51.2385 39.2497 51.2741C39.3365 51.3097 39.4155 51.3621 39.4821 51.4283C39.5487 51.4945 39.6015 51.5732 39.6375 51.6599C39.6736 51.7466 39.6921 51.8396 39.6921 51.9335C39.7021 60.756 39.7046 69.5022 39.6996 78.1722C39.6959 79.2035 39.8984 80.6135 39.6059 81.9035C39.5809 82.0235 39.5171 82.1197 39.4146 82.1922C37.7571 83.3472 36.3659 83.2872 35.2409 82.0122C32.8746 79.3272 30.1671 76.9197 27.6733 74.3472C25.8283 72.4422 23.1246 70.0535 21.0733 67.6872C19.7608 66.1772 18.8996 65.2585 18.4896 64.931C16.9521 63.701 17.3833 63.1685 17.3833 61.5222C17.3908 58.2672 17.3008 54.9935 17.4771 51.7497C17.4846 51.6363 17.5345 51.53 17.6166 51.4521C17.6986 51.3742 17.8069 51.3305 17.9196 51.3297L38.9759 51.221Z" fill="#0B79BF"/>
<path d="M60.4896 82.3684C60.1796 82.1909 60.0271 81.9334 60.0321 81.5959C60.0946 76.2659 60.1308 70.9359 60.1408 65.6059C60.1446 62.5384 59.9346 56.4746 60.1559 51.9146C60.1626 51.7671 60.2256 51.6278 60.3318 51.5258C60.438 51.4239 60.5791 51.367 60.7259 51.3671L81.8684 51.2921C82.2409 51.2921 82.4284 51.4784 82.4309 51.8509C82.4484 55.6234 82.4546 59.2884 82.4496 62.8459C82.4459 63.6559 82.5996 63.8546 81.9359 64.4696C79.2209 66.9859 76.8096 69.6709 74.0984 72.2921C72.9584 73.3921 71.8559 74.5296 70.7909 75.7046C68.8446 77.8496 66.5196 79.6946 64.5246 81.8771C63.2496 83.2684 62.0721 83.2759 60.4896 82.3684Z" fill="#0B79BF"/>
</svg>
