<svg width="100" height="100" viewBox="0 0 100 100" fill="none" xmlns="http://www.w3.org/2000/svg">
<rect width="100" height="100" fill="#C7B242"/>
<path d="M34.0337 21.4644C34.5037 17.0894 38.1737 14.2994 42.3487 14.1494C42.6887 14.1394 42.8437 14.3027 42.8137 14.6394C42.3837 19.8194 39.5437 22.1994 34.2937 21.7794C34.2553 21.7762 34.218 21.7654 34.1839 21.7477C34.1498 21.73 34.1197 21.7057 34.0954 21.6762C34.0711 21.6468 34.0531 21.6128 34.0425 21.5764C34.0319 21.54 34.0289 21.5019 34.0337 21.4644Z" fill="white"/>
<path d="M64.8438 21.6243C59.8788 22.7593 56.0588 19.0943 56.3338 14.2793C56.336 14.2377 56.347 14.197 56.3661 14.16C56.3852 14.1229 56.4119 14.0903 56.4445 14.0643C56.4771 14.0383 56.5148 14.0196 56.5552 14.0092C56.5956 13.9989 56.6377 13.9972 56.6788 14.0043C60.9738 14.7243 64.4938 16.6543 65.0238 21.3693C65.0405 21.5093 64.9805 21.5943 64.8438 21.6243Z" fill="white"/>
<path d="M69.6887 26.8294C69.3537 25.2994 68.3087 21.2494 69.1387 19.7794C69.2154 19.6461 69.3271 19.5978 69.4737 19.6344C75.1587 21.0844 75.4037 27.8094 73.1937 32.2544C73.1271 32.3878 73.0204 32.4594 72.8737 32.4694C67.7037 32.8194 62.9337 31.3844 61.7037 25.6944C61.6964 25.6613 61.6964 25.627 61.7037 25.5938C61.7109 25.5607 61.7252 25.5295 61.7456 25.5024C61.7661 25.4754 61.7921 25.453 61.822 25.437C61.8519 25.4209 61.8849 25.4115 61.9187 25.4094C64.5321 25.2461 66.9471 25.8428 69.1637 27.1994C69.6304 27.4861 69.8054 27.3628 69.6887 26.8294Z" fill="white"/>
<path d="M29.3437 27.0694C29.3332 27.1141 29.3363 27.161 29.3527 27.204C29.3691 27.247 29.398 27.2841 29.4357 27.3104C29.4734 27.3368 29.5181 27.3513 29.5641 27.352C29.6101 27.3527 29.6553 27.3396 29.6937 27.3144C31.9704 25.881 34.4621 25.246 37.1687 25.4094C37.2058 25.4119 37.2419 25.4226 37.2744 25.4405C37.3069 25.4585 37.3351 25.4834 37.357 25.5134C37.3789 25.5434 37.394 25.5778 37.4012 25.6142C37.4084 25.6507 37.4076 25.6883 37.3987 25.7244C36.2854 29.9844 33.5487 32.206 29.1887 32.3894C28.4187 32.4244 27.1637 32.6844 26.1037 32.4194C25.9404 32.376 25.8237 32.2794 25.7537 32.1294C23.8887 28.1294 23.8887 22.1344 28.4937 19.9444C29.0171 19.6977 29.4387 19.651 29.7587 19.8044C30.2054 20.021 30.3854 20.5194 30.2987 21.2994C30.0754 23.2827 29.7571 25.206 29.3437 27.0694Z" fill="white"/>
<path d="M22.7487 39.1244C22.7461 39.1696 22.7578 39.2145 22.7821 39.2526C22.8065 39.2908 22.8423 39.3203 22.8844 39.3369C22.9265 39.3536 22.9728 39.3565 23.0167 39.3452C23.0606 39.334 23.0998 39.3092 23.1287 39.2744C24.7137 37.2244 27.5437 34.9744 30.2337 35.0344C30.3187 35.0356 30.3999 35.069 30.4604 35.1277C30.5209 35.1863 30.5562 35.2657 30.5587 35.3494C30.7937 40.8694 26.4337 44.4294 21.3837 45.2344C21.3109 45.2451 21.2367 45.237 21.1683 45.2107C21.0999 45.1844 21.0398 45.1409 20.9937 45.0844C18.1237 41.5944 16.0537 33.6794 21.0787 31.2594C21.6021 31.006 21.9404 31.161 22.0937 31.7244C22.7471 34.141 22.9654 36.6077 22.7487 39.1244Z" fill="white"/>
<path d="M75.7687 39.0344C76.2154 39.5711 76.4087 39.4911 76.3487 38.7944C76.1254 36.3277 76.3354 33.9061 76.9787 31.5294C77.1054 31.0727 77.3837 30.9394 77.8137 31.1294C83.5337 33.6444 80.1937 45.9894 76.9537 45.1294C72.0237 43.8194 68.7137 40.9494 68.3937 35.6144C68.3885 35.5312 68.4012 35.4478 68.4308 35.3699C68.4605 35.292 68.5064 35.2213 68.5656 35.1626C68.6248 35.1039 68.6958 35.0585 68.774 35.0295C68.8521 35.0005 68.9356 34.9885 69.0187 34.9944C71.5937 35.1744 74.1737 37.1244 75.7687 39.0344Z" fill="white"/>
<path d="M43.2836 57.3743C34.2736 60.1493 36.2786 44.8193 36.3186 40.6543C36.3436 37.9243 37.3236 35.2143 39.7736 33.9043C42.3386 32.5343 45.8286 34.0493 46.8586 36.7643C47.1386 37.5043 47.2803 38.7177 47.2836 40.4043C47.3036 48.071 47.3103 55.7377 47.3036 63.4043C47.3036 64.3243 47.1853 65.2227 46.9486 66.0993C45.4486 71.7343 38.1186 71.1293 36.7736 65.7843C36.3636 64.1543 36.1803 62.416 36.2236 60.5693C36.227 60.376 36.3253 60.2793 36.5186 60.2793H39.5236C39.6903 60.2793 39.7753 60.3627 39.7786 60.5293C39.812 61.9693 39.8186 63.3977 39.7986 64.8143C39.7586 67.7293 43.1386 67.4593 43.6236 65.2493C43.8736 64.106 43.847 61.5393 43.5436 57.5493C43.5303 57.3827 43.4436 57.3243 43.2836 57.3743Z" fill="white"/>
<path d="M58.5186 57.3793L56.8685 57.7943C56.7996 57.814 56.7276 57.8174 56.6585 57.8043C53.2819 57.161 51.5569 55.161 51.4835 51.8043C51.4069 48.2976 51.3802 44.7876 51.4035 41.2743C51.4235 38.5943 51.9885 36.0043 54.2685 34.3643C56.5835 32.6993 59.7535 33.3143 61.3435 35.6493C63.2685 38.4843 62.3086 45.3343 62.3586 48.6293C62.4286 53.386 62.4369 58.1443 62.3836 62.9043C62.3686 64.3843 62.2786 66.0493 61.6236 67.3293C60.2036 70.0943 56.8735 70.8243 54.3085 69.2343C51.5685 67.5343 51.3085 63.6343 51.3135 60.5243C51.3135 60.361 51.3952 60.2793 51.5585 60.2793H54.6485C54.8085 60.2793 54.8919 60.3593 54.8985 60.5193C54.9519 62.1693 54.9519 63.7976 54.8985 65.4043C54.8335 67.5193 58.7086 67.6043 58.7886 64.6543C58.8319 63.1643 58.8269 60.806 58.7735 57.5793C58.7735 57.406 58.6886 57.3393 58.5186 57.3793Z" fill="white"/>
<path d="M41.7237 36.7844H41.6237C40.5495 36.7844 39.6787 37.6552 39.6787 38.7294V53.0794C39.6787 54.1536 40.5495 55.0244 41.6237 55.0244H41.7237C42.7979 55.0244 43.6687 54.1536 43.6687 53.0794V38.7294C43.6687 37.6552 42.7979 36.7844 41.7237 36.7844Z" fill="#C7B242"/>
<path d="M56.8688 36.8794H56.7288C55.6629 36.8794 54.7988 37.7435 54.7988 38.8094V53.0894C54.7988 54.1553 55.6629 55.0194 56.7288 55.0194H56.8688C57.9347 55.0194 58.7988 54.1553 58.7988 53.0894V38.8094C58.7988 37.7435 57.9347 36.8794 56.8688 36.8794Z" fill="#C7B242"/>
<path d="M20.6536 53.1893C20.6725 53.2297 20.7032 53.2634 20.7417 53.2859C20.7801 53.3085 20.8245 53.3188 20.869 53.3155C20.9134 53.3123 20.9558 53.2956 20.9906 53.2677C21.0254 53.2398 21.0508 53.202 21.0636 53.1593C21.8403 50.3327 23.4353 48.096 25.8486 46.4493C25.8862 46.4245 25.929 46.4085 25.9736 46.4028C26.0182 46.397 26.0634 46.4016 26.1056 46.4162C26.1478 46.4307 26.1859 46.4548 26.2168 46.4866C26.2477 46.5184 26.2706 46.557 26.2837 46.5993C27.9737 52.0593 25.3637 57.2543 20.6336 60.1993C20.507 60.2793 20.3853 60.271 20.2686 60.1743C15.7886 56.3443 13.5336 51.7943 16.1986 46.1243C16.262 45.9943 16.3586 45.9577 16.4886 46.0143C18.2136 46.7293 19.9036 51.4693 20.6536 53.1893Z" fill="white"/>
<path d="M78.0088 53.1644C78.021 53.2073 78.0461 53.2454 78.0808 53.2733C78.1155 53.3013 78.158 53.3178 78.2025 53.3205C78.2469 53.3233 78.2912 53.3121 78.329 53.2886C78.3669 53.2652 78.3965 53.2305 78.4138 53.1894C79.4938 50.6944 80.3938 48.0094 82.3488 46.0344C82.3908 45.9929 82.4421 45.9622 82.4985 45.9448C82.5549 45.9275 82.6147 45.9241 82.6727 45.9349C82.7307 45.9457 82.7852 45.9704 82.8315 46.0069C82.8779 46.0434 82.9147 46.0906 82.9388 46.1444C85.4538 51.8894 83.2238 56.4644 78.7788 60.2294C78.7252 60.2742 78.6584 60.3003 78.5881 60.3039C78.5179 60.3075 78.448 60.2884 78.3888 60.2494C73.8038 57.2044 71.0288 52.1694 72.8138 46.6094C72.8271 46.5654 72.8507 46.5253 72.8828 46.4924C72.9149 46.4595 72.9546 46.4346 72.9985 46.42C73.0424 46.4054 73.0894 46.4013 73.1355 46.4081C73.1817 46.415 73.2256 46.4326 73.2638 46.4594C75.6405 48.1194 77.2222 50.3544 78.0088 53.1644Z" fill="white"/>
<path d="M76.1689 65.8344C76.1698 65.8793 76.1845 65.9229 76.211 65.9592C76.2374 65.9956 76.2744 66.023 76.3169 66.0377C76.3593 66.0524 76.4053 66.0537 76.4486 66.0415C76.4919 66.0293 76.5303 66.0041 76.5589 65.9694C78.8889 63.1694 81.6339 59.4244 85.8939 60.1244C86.0505 60.151 86.1155 60.241 86.0889 60.3944C85.1289 66.4394 80.4389 69.6144 74.7139 70.3794C74.595 70.396 74.4738 70.3796 74.3635 70.3319C74.2533 70.2843 74.1583 70.2073 74.0889 70.1094C71.5639 66.5694 69.9389 62.1444 70.8689 57.6694C70.8989 57.5294 70.9772 57.4927 71.1039 57.5594C74.3372 59.3394 76.0255 62.0977 76.1689 65.8344Z" fill="white"/>
<path d="M22.9288 66.0144C22.9554 62.2244 24.6071 59.421 27.8838 57.6044C27.9262 57.5811 27.9737 57.5686 28.0221 57.568C28.0704 57.5674 28.1182 57.5787 28.1612 57.601C28.2042 57.6232 28.241 57.6557 28.2685 57.6955C28.296 57.7353 28.3132 57.7813 28.3188 57.8294C28.8421 62.456 27.6804 66.5877 24.8338 70.2244C24.7471 70.3344 24.6354 70.381 24.4988 70.3644C18.5938 69.6744 13.8638 66.4644 13.0038 60.2994C12.9837 60.1627 13.0438 60.0844 13.1838 60.0644C17.5138 59.5144 20.2288 63.1594 22.5788 66.1344C22.6036 66.1669 22.638 66.1908 22.6772 66.2027C22.7164 66.2146 22.7583 66.2138 22.797 66.2005C22.8357 66.1872 22.8693 66.1621 22.8929 66.1287C22.9166 66.0953 22.9291 66.0553 22.9288 66.0144Z" fill="white"/>
<path d="M69.1786 75.4593C69.0053 75.8026 69.097 75.9009 69.4536 75.7543C71.6636 74.8343 79.5886 71.2743 81.5836 72.0743C82.1136 72.2876 82.2053 72.6226 81.8586 73.0793C77.1936 79.2393 69.2786 79.6593 62.1836 79.4743C58.667 79.3843 55.1853 79.4443 51.7386 79.6543C51.669 79.6576 51.602 79.6823 51.5468 79.7249C51.4916 79.7676 51.4509 79.8262 51.4301 79.8928C51.4094 79.9594 51.4096 80.0308 51.4308 80.0972C51.452 80.1637 51.4932 80.222 51.5486 80.2643C53.412 81.7076 55.2553 83.1226 57.0786 84.5093C57.3953 84.7526 57.5153 85.0526 57.4386 85.4093C57.4058 85.5616 57.3408 85.7051 57.2479 85.83C57.155 85.9549 57.0365 86.0584 56.9003 86.1334C56.7642 86.2083 56.6136 86.253 56.4589 86.2644C56.3042 86.2758 56.1489 86.2535 56.0036 86.1993C54.2086 85.5293 51.2586 82.5043 49.7186 81.1543C49.5886 81.0376 49.457 81.0376 49.3236 81.1543C47.5803 82.6776 45.8153 84.1693 44.0286 85.6293C43.1286 86.3593 42.3486 86.4076 41.6886 85.7743C41.6207 85.7082 41.5723 85.6245 41.5485 85.5319C41.5247 85.4394 41.5265 85.3417 41.5536 85.2493C41.7003 84.7393 41.9953 84.3343 42.4386 84.0343C44.262 82.8076 45.992 81.4993 47.6286 80.1093C47.6671 80.0757 47.6949 80.0314 47.7084 79.9821C47.7219 79.9328 47.7206 79.8806 47.7045 79.832C47.6885 79.7835 47.6586 79.7407 47.6184 79.7091C47.5782 79.6775 47.5296 79.6584 47.4786 79.6543C43.142 79.3476 38.7803 79.3326 34.3936 79.6093C28.5386 79.9743 20.5036 77.9693 17.0036 72.7793C16.9593 72.7136 16.9319 72.638 16.9236 72.5592C16.9153 72.4804 16.9264 72.4007 16.956 72.3272C16.9856 72.2537 17.0328 72.1886 17.0934 72.1375C17.154 72.0864 17.2262 72.051 17.3036 72.0343C20.1736 71.4243 26.8836 74.6043 29.6986 75.7843C29.7374 75.8002 29.7804 75.8038 29.8215 75.7945C29.8626 75.7851 29.8997 75.7634 29.9274 75.7323C29.9551 75.7013 29.9721 75.6625 29.9759 75.6216C29.9797 75.5806 29.9702 75.5395 29.9486 75.5043C28.5186 73.0393 27.0836 68.6043 31.3286 67.6893C31.4019 67.6746 31.4781 67.6874 31.5426 67.7252C31.6072 67.763 31.6556 67.8232 31.6786 67.8943C35.3486 79.3593 41.1186 78.6843 52.5086 78.4043C57.1336 78.2893 59.8136 78.4243 62.8936 75.8993C65.1686 74.0343 66.4236 70.7793 67.3786 67.9293C67.4386 67.7493 67.5603 67.6826 67.7436 67.7293C71.9736 68.7493 70.5036 72.8493 69.1786 75.4593Z" fill="white"/>
</svg>
