<svg width="100" height="100" viewBox="0 0 100 100" fill="none" xmlns="http://www.w3.org/2000/svg">
<rect width="100" height="100" fill="#818387"/>
<path d="M54.5476 69.3541C60.7301 73.2516 67.6489 75.0578 75.3039 74.7728C77.7414 74.6791 79.6426 74.4616 81.9264 73.4903C87.0339 71.3078 91.2601 68.3078 96.0489 65.6116C96.0787 65.5923 96.1145 65.5846 96.1496 65.5898C96.1847 65.5951 96.2167 65.6129 96.2397 65.6399C96.2626 65.667 96.2749 65.7015 96.2743 65.737C96.2737 65.7725 96.2602 65.8065 96.2364 65.8328C95.8264 66.3453 95.3564 66.8378 94.8264 67.3103C90.5064 71.1503 85.7401 74.3191 80.5276 76.8166C78.2139 77.9266 76.1889 78.2678 73.4701 78.2453C63.5926 78.1666 54.4464 74.3078 45.5926 69.3541C45.5626 69.2466 45.4326 69.2153 45.2026 69.2603C45.2076 69.2253 45.2089 69.1928 45.2064 69.1628C45.2014 69.1128 45.1776 69.0766 45.1351 69.0541C41.5251 66.9541 37.9901 64.7341 34.5301 62.3941C33.1914 61.4903 31.3876 61.1378 29.5726 60.9841C26.3351 60.7116 23.1001 60.4241 19.8676 60.1216C14.8351 59.6491 7.26763 58.9853 4.61263 55.1941C3.52513 53.6378 3.82138 51.6128 6.01888 51.2753C12.6614 50.2603 19.0926 50.9703 25.3126 53.4053C29.3101 54.9703 33.2914 56.5616 37.2564 58.1791C37.8714 58.4303 38.8801 58.6103 39.5476 58.5878C44.2901 58.4053 48.7689 57.6728 52.9839 56.3903C60.9901 53.9528 70.3501 46.5728 67.9051 37.0853C67.0764 33.8791 62.7826 30.0166 60.1426 28.2878C56.2126 25.7191 51.0076 23.8216 46.1589 22.9741C46.0761 22.9594 45.9988 22.9227 45.9354 22.8679C45.872 22.8131 45.8248 22.7422 45.7989 22.6628C45.6789 22.3053 45.8664 22.1091 46.3614 22.0741C47.3176 21.9991 48.2176 21.9541 49.1889 22.0741C57.1651 23.0753 68.3101 26.4241 74.1226 32.2516C76.3576 34.4903 78.9376 38.0416 79.0014 41.3566C79.0239 42.5566 78.9251 43.7416 78.7051 44.9116C77.3476 52.1228 68.5801 57.1103 62.2689 59.0303C56.7164 60.7178 50.9801 61.7416 45.0601 62.1016C44.9826 62.1069 44.9086 62.1362 44.8485 62.1855C44.7883 62.2347 44.745 62.3014 44.7244 62.3763C44.7038 62.4513 44.707 62.5308 44.7336 62.6038C44.7601 62.6769 44.8087 62.7398 44.8726 62.7841L54.5476 69.3541Z" fill="white"/>
<path d="M25.0848 57.1028C20.8444 55.3477 13.6518 53.3793 8.99821 54.2927C8.6201 54.3673 8.59797 54.5281 8.93183 54.7752C13.8559 58.4566 19.8802 58.2575 25.0794 57.4763C25.5243 57.4089 25.5261 57.2844 25.0848 57.1028Z" fill="#818387"/>
</svg>
