<svg width="100" height="100" viewBox="0 0 100 100" fill="none" xmlns="http://www.w3.org/2000/svg">
<rect width="100" height="100" fill="#2E5948"/>
<path d="M49.6339 13.2362H51.0439C55.6439 14.3862 59.0765 16.8262 61.3414 20.5562C67.5364 30.7562 61.5664 42.5612 54.2164 50.2262C47.3689 57.3662 37.049 62.7212 27.779 65.9462C27.534 66.0312 27.3215 65.9787 27.1415 65.7887C21.8815 60.1837 17.5114 53.9537 14.0314 47.0987C13.8864 46.8137 13.9739 46.6712 14.2939 46.6712C26.1964 46.7462 40.949 44.6312 50.2565 36.0512C53.7065 32.8712 56.7139 26.5937 55.0714 21.9137C54.2514 19.5687 52.4939 18.4187 49.7989 18.4637C41.5189 18.5987 46.6339 30.3212 48.6289 33.7637C48.7099 33.9034 48.7362 34.0683 48.7031 34.2273C48.6699 34.3862 48.5795 34.5281 48.4489 34.6262C45.6789 36.7062 42.6889 38.3887 39.4789 39.6737C39.3275 39.7337 39.1587 39.7318 39.0096 39.6685C38.8606 39.6052 38.7434 39.4857 38.6839 39.3362C34.9939 30.0737 36.0139 20.6162 44.7814 14.9837C46.1014 14.1387 47.7189 13.5562 49.6339 13.2362Z" fill="#46B98C"/>
<path d="M13.169 31.3787C19.889 23.9387 29.3615 18.8087 38.699 15.4862C38.964 15.3912 39.0139 15.4587 38.8489 15.6887C33.4189 23.2687 32.5865 31.4262 36.3514 40.1612C36.5464 40.6062 36.4114 40.9037 35.9464 41.0537C28.6014 43.3837 21.0614 44.3937 13.3264 44.0837C13.0464 44.0687 12.854 43.9312 12.749 43.6712C11.0765 39.6137 9.80145 35.0987 13.169 31.3787Z" fill="#0A0B0C"/>
<path d="M64.064 40.4763C67.769 32.1438 67.274 23.2188 61.754 15.8238C61.559 15.5688 61.614 15.4938 61.919 15.5988C69.104 18.0738 86.834 26.6688 89.129 34.3188C89.9165 36.9363 88.7615 41.2113 87.7865 43.6938C87.6815 43.9688 87.4815 44.1113 87.1865 44.1213C79.3615 44.3763 71.729 43.3313 64.289 40.9863C64.239 40.9699 64.1931 40.9432 64.1542 40.9079C64.1152 40.8726 64.0841 40.8295 64.0629 40.7814C64.0417 40.7333 64.0308 40.6813 64.031 40.6287C64.0312 40.5762 64.0424 40.5242 64.064 40.4763Z" fill="#0A0B0C"/>
<path d="M86.4588 47.1138C83.1738 53.6988 78.5013 60.5462 73.3038 65.8487C73.1388 66.0187 72.9464 66.0637 72.7264 65.9837C65.6214 63.4637 58.9589 60.0712 52.7389 55.8062C52.686 55.7697 52.642 55.7217 52.6102 55.6658C52.5785 55.6099 52.5597 55.5475 52.5554 55.4834C52.5511 55.4192 52.5613 55.3549 52.5853 55.2952C52.6092 55.2356 52.6464 55.1821 52.6939 55.1388C56.5339 51.7238 59.8188 47.8388 62.5488 43.4838C62.6211 43.3689 62.7301 43.2818 62.8581 43.2369C62.9862 43.1919 63.1257 43.1917 63.2539 43.2363C70.6538 45.7513 78.2713 46.8613 86.1063 46.5663C86.1726 46.5648 86.2382 46.5804 86.2968 46.6113C86.3553 46.6422 86.4048 46.6876 86.4404 46.7428C86.4759 46.798 86.4963 46.8612 86.4996 46.9263C86.5028 46.9913 86.4888 47.0559 86.4588 47.1138Z" fill="#46B98C"/>
<path d="M71.0914 68.1362C71.1058 68.1426 71.1185 68.1523 71.1283 68.1647C71.1381 68.177 71.1447 68.1916 71.1477 68.2071C71.1506 68.2225 71.1498 68.2385 71.1452 68.2536C71.1406 68.2687 71.1324 68.2824 71.1214 68.2937C64.7514 74.9337 57.8839 81.0187 50.5189 86.5487C50.3289 86.6887 50.1414 86.6887 49.9564 86.5487C42.6714 81.0937 35.8864 75.0787 29.6014 68.5037C29.3964 68.2887 29.4339 68.1287 29.7139 68.0237C36.8639 65.3137 43.5689 61.7612 49.8289 57.3662C49.9494 57.2806 50.0936 57.2346 50.2414 57.2346C50.3892 57.2346 50.5334 57.2806 50.6539 57.3662C56.9989 61.8412 63.8114 65.4312 71.0914 68.1362Z" fill="#46B98C"/>
</svg>
