<svg width="100" height="100" viewBox="0 0 100 100" fill="none" xmlns="http://www.w3.org/2000/svg">
<rect width="100" height="100" fill="white"/>
<path d="M52.0428 12.5408C58.0332 10.9589 65.4233 12.7635 67.9969 19.0641C68.8806 21.2296 69.5249 23.4153 69.8453 25.7797C71.7915 40.1687 66.4319 53.9169 53.8237 61.5499C53.6776 61.6391 53.5044 61.6729 53.3359 61.645C53.1674 61.6171 53.0149 61.5295 52.9063 61.3981C51.4447 59.6419 50.2473 57.716 49.3141 55.6203C49.2062 55.3774 49.2635 55.1829 49.4861 55.0367C56.4412 50.4832 61.1431 44.1151 61.9323 35.5208C62.6092 28.1723 60.3043 21.7513 55.0178 16.2578C53.9609 15.1605 52.9198 14.1048 51.8944 13.0906C51.8532 13.05 51.8235 12.9991 51.8084 12.9432C51.7933 12.8873 51.7932 12.8284 51.8083 12.7725C51.8234 12.7166 51.8531 12.6657 51.8943 12.625C51.9355 12.5843 51.9867 12.5552 52.0428 12.5408Z" fill="#304E76"/>
<path d="M34.3921 21.7895C26.2802 21.324 17.5948 24.4609 11.0344 29.0312C10.9843 29.0658 10.9248 29.0845 10.8638 29.0848C10.8028 29.0851 10.7433 29.067 10.6931 29.0329C10.6429 28.9989 10.6045 28.9504 10.5829 28.8941C10.5613 28.8378 10.5576 28.7762 10.5723 28.7176C11.0445 26.7241 11.7697 25.2299 12.8018 23.3276C19.1599 11.6234 34.9149 9.99764 45.8568 14.9222C52.1238 17.742 56.3804 21.4623 57.4126 28.6771C57.418 28.7117 57.413 28.747 57.3982 28.7787C57.3834 28.8104 57.3594 28.837 57.3293 28.8553C57.2991 28.8736 57.2641 28.8828 57.2286 28.8817C57.193 28.8806 57.1585 28.8692 57.1292 28.8491C50.5857 24.2956 42.2714 22.2415 34.3921 21.7895Z" fill="#D24C4E"/>
<path d="M62.6103 68.1946C60.9104 67.6044 59.0923 66.8185 57.642 65.783C57.6042 65.756 57.5735 65.7204 57.5524 65.6792C57.5313 65.6379 57.5204 65.5923 57.5208 65.5462C57.5211 65.5001 57.5326 65.4549 57.5543 65.4145C57.576 65.3741 57.6072 65.3396 57.6453 65.3141C69.8757 56.9694 76.6452 43.6834 75.603 28.8187C75.3905 25.7527 74.6889 23.0948 73.0901 20.6494C73.0448 20.581 73.0217 20.5003 73.024 20.4183C73.0263 20.3363 73.0539 20.257 73.103 20.1913C73.1521 20.1255 73.2203 20.0766 73.2983 20.0511C73.3763 20.0257 73.4603 20.0249 73.5387 20.049C76.2483 20.8675 78.3947 22.2212 79.9777 24.1101C88.2988 34.0333 80.5039 51.9269 73.6973 60.0557C72.5133 61.469 64.8163 68.9637 62.6103 68.1946Z" fill="#304E76"/>
<path d="M32.5337 33.4599C22.8095 33.1023 15.1866 37.5614 9.71905 45.4035C9.49644 45.7251 9.28731 45.9646 9.09168 46.122C8.97475 46.2187 8.88818 46.1962 8.83197 46.0545C5.0104 36.3067 15.1461 29.4022 23.1266 27.4155C34.7127 24.5283 47.3242 27.5302 57.1867 34.2525C57.2896 34.322 57.374 34.4157 57.4328 34.5256C57.4915 34.6355 57.5228 34.7582 57.524 34.8833C57.5409 37.0521 56.6841 39.4435 56.0635 41.5314C56.0511 41.572 56.0292 41.6092 55.9996 41.6397C55.97 41.6701 55.9335 41.6929 55.8934 41.7062C55.8533 41.7195 55.8107 41.7228 55.7692 41.7158C55.7277 41.7089 55.6887 41.6919 55.6554 41.6663C48.8667 36.5124 41.1595 33.7769 32.5337 33.4599Z" fill="#D24C4E"/>
<path d="M88.4439 34.6101C91.2907 37.359 92.0901 42.2026 91.9923 45.9871C91.7798 54.1968 88.0358 66.1034 79.1683 68.5555C75.9302 69.4494 72.4325 70.1476 69.299 69.4628C69.1753 69.4359 69.1663 69.3898 69.272 69.3246C81.6845 61.6174 88.4439 48.9317 87.0104 34.2087C86.9542 33.6443 87.1836 33.479 87.6985 33.7129C87.7907 33.7556 87.9177 33.904 88.0796 34.1581C88.1898 34.329 88.3112 34.4797 88.4439 34.6101Z" fill="#304E76"/>
<path d="M13.0617 64.481C10.7815 63.9312 9.29407 61.1957 9.10518 59.1517C8.53853 52.9792 12.097 46.8067 17.0789 43.3393C22.1495 39.8134 27.8926 38.263 34.3079 38.688C41.4417 39.1602 47.4321 41.8383 53.4427 45.5013C53.5507 45.5665 53.5664 45.6497 53.4899 45.7509C51.5516 48.3683 49.1478 50.4416 46.2786 51.9707C46.1448 52.0416 45.995 52.0767 45.8437 52.0726C45.6924 52.0684 45.5447 52.0252 45.4151 51.9471C44.5583 51.4254 43.6825 50.8969 42.7875 50.3618C30.4864 43.0222 15.7196 50.3415 13.3349 64.3022C13.3298 64.3321 13.3186 64.3607 13.3019 64.3861C13.2851 64.4115 13.2633 64.4332 13.2377 64.45C13.2122 64.4667 13.1833 64.4781 13.1531 64.4834C13.1228 64.4888 13.0917 64.4879 13.0617 64.481Z" fill="#D24C4E"/>
<path d="M66.5703 86.1084C66.5868 86.1127 66.6013 86.1225 66.6113 86.1362C66.6214 86.1499 66.6265 86.1667 66.6257 86.1836C66.6249 86.2006 66.6183 86.2169 66.607 86.2296C66.5957 86.2423 66.5804 86.2507 66.5636 86.2534C61.2781 87.2147 55.6993 89.306 50.2755 87.9602C49.0725 87.6611 47.6165 87.027 45.9076 86.0578C41.7543 83.7012 38.2611 81.1355 35.4278 78.3607C29.9096 72.9572 25.3055 64.7711 25.825 56.794C25.9059 55.5764 25.6462 54.4633 27.073 53.9034C29.0495 53.1276 31.1093 52.778 33.2522 52.8544C33.3827 52.8611 33.4445 52.9286 33.4377 53.0568C32.7834 67.9012 43.334 79.376 56.7314 83.8485C59.6389 84.8199 63.2918 85.2112 66.5703 86.1084Z" fill="#818181"/>
<path d="M67.4708 82.8231C57.9996 82.4352 49.2366 76.9272 43.1383 70.0801C38.912 65.331 36.8073 59.9309 36.5948 53.5627C36.5939 53.5254 36.6019 53.4883 36.6179 53.4546C36.634 53.4208 36.6577 53.3913 36.6872 53.3683C36.7167 53.3454 36.7512 53.3296 36.7878 53.3224C36.8245 53.3152 36.8623 53.3166 36.8984 53.3266C39.4056 54.0214 41.652 55.1941 43.6375 56.8446C45.1958 58.1432 46.3932 60.8719 47.25 62.1537C52.8221 70.4882 62.2428 74.8326 72.2132 74.1142C75.3737 73.8848 78.8613 72.8797 82.0252 71.8813C82.1174 71.852 82.1556 71.8858 82.1398 71.9825C80.9256 79.4839 74.662 83.1199 67.4708 82.8231Z" fill="#818181"/>
<path d="M44.2142 88.6516C31.117 88.5875 18.8664 80.3946 18.4111 66.3867C18.3481 64.4461 18.5348 62.8159 18.971 61.4959C19.3825 60.2648 21.1162 56.7738 22.6509 56.676C22.7768 56.667 22.8409 56.7243 22.8431 56.848C23.1332 67.8596 27.4562 76.6 35.8122 83.0694C38.2474 84.9548 41.3607 86.5637 44.2311 88.0411C44.4087 88.1333 44.5043 88.1962 44.5178 88.23C44.6167 88.5133 44.5155 88.6538 44.2142 88.6516Z" fill="#818181"/>
</svg>
