<svg width="100" height="100" viewBox="0 0 100 100" fill="none" xmlns="http://www.w3.org/2000/svg">
<rect width="100" height="100" fill="#FFE996"/>
<path d="M9.9043 56.8795L5.1193 54.1645C5.06983 54.1389 5.03211 54.0962 5.01325 54.0446C4.99439 53.9929 4.9957 53.9359 5.01693 53.8842C5.03816 53.8325 5.07784 53.7898 5.12848 53.764C5.17912 53.7383 5.23722 53.7314 5.2918 53.7445L12.1018 55.4695C12.3118 55.5245 12.5043 55.4895 12.6793 55.3645L15.2443 53.5045C15.4843 53.3295 15.5218 53.117 15.3568 52.867L14.2918 51.277C14.0768 50.957 13.8468 50.9445 13.6018 51.2395L11.4268 53.902C11.3932 53.9481 11.3439 53.9794 11.2886 53.9896C11.2333 53.9998 11.176 53.9882 11.128 53.9571C11.08 53.9261 11.0448 53.8778 11.0293 53.8218C11.0138 53.7658 11.0192 53.7061 11.0443 53.6545L12.7993 50.032C12.8943 49.837 12.8943 49.642 12.7993 49.447L11.0143 45.8395C10.9821 45.784 10.9728 45.7189 10.9884 45.6576C11.0039 45.5962 11.0431 45.5433 11.0978 45.5097C11.1525 45.4761 11.2187 45.4643 11.2827 45.4769C11.3466 45.4894 11.4036 45.5252 11.4418 45.577L13.5193 48.1795C13.7243 48.4395 13.9343 48.442 14.1493 48.187L15.3943 46.6795C15.5693 46.4695 15.5468 46.282 15.3268 46.117L12.6643 44.062C12.5986 44.0107 12.5224 43.9751 12.4417 43.9582C12.361 43.9413 12.2781 43.9435 12.1993 43.9645L5.3143 45.7645C5.26213 45.7736 5.20844 45.7646 5.16208 45.739C5.11573 45.7134 5.0795 45.6728 5.05939 45.6238C5.03927 45.5748 5.03648 45.5205 5.05146 45.4697C5.06645 45.4189 5.09831 45.3747 5.1418 45.3445L9.9118 42.5995C9.96197 42.5724 10.0044 42.5329 10.0352 42.4849C10.066 42.4369 10.0842 42.3818 10.0879 42.3249C10.0916 42.268 10.0809 42.211 10.0567 42.1594C10.0324 42.1077 9.99548 42.063 9.9493 42.0295L7.3993 40.1095C7.1993 39.9595 7.0993 39.7595 7.0993 39.5095L7.1143 37.5295C7.11499 37.4655 7.1335 37.4029 7.16778 37.3487C7.20205 37.2946 7.25073 37.251 7.30835 37.223C7.36597 37.195 7.43026 37.1836 7.49401 37.19C7.55777 37.1965 7.61846 37.2205 7.6693 37.2595L11.8618 40.492C12.0968 40.672 12.3368 40.677 12.5818 40.507C16.2818 37.917 17.9368 34.3145 17.5468 29.6995C17.5218 29.3695 17.3468 29.182 17.0218 29.137L11.3818 28.2745C10.9318 28.2045 10.8793 28.022 11.2243 27.727L12.7543 26.4145C12.9793 26.2245 13.2368 26.152 13.5268 26.197L16.8718 26.692C16.9276 26.7015 16.9848 26.6968 17.0383 26.6784C17.0917 26.6599 17.1397 26.6284 17.1778 26.5866C17.2159 26.5447 17.2428 26.494 17.2562 26.4391C17.2696 26.3841 17.2689 26.3267 17.2543 26.272L15.7918 20.4595C15.7803 20.4284 15.7808 20.3941 15.793 20.3632C15.8052 20.3323 15.8284 20.3071 15.8581 20.2922C15.8878 20.2774 15.922 20.274 15.954 20.2827C15.986 20.2914 16.0137 20.3117 16.0318 20.3395C17.5718 22.2795 18.7718 24.412 19.6318 26.737C19.7268 26.992 19.9093 27.137 20.1793 27.172L23.0893 27.5845C23.1386 27.5919 23.1889 27.5894 23.2372 27.5772C23.2856 27.5649 23.331 27.5431 23.3708 27.5131C23.4106 27.483 23.444 27.4454 23.4691 27.4023C23.4941 27.3592 23.5104 27.3115 23.5168 27.262L23.7868 25.4095C23.8418 25.0195 23.6743 24.842 23.2843 24.877L20.4493 25.1245C20.1493 25.1495 20.0868 25.037 20.2618 24.787C20.4868 24.472 20.8368 24.2695 21.3118 24.1795C22.1918 24.0145 23.0493 23.772 23.8843 23.452C23.9731 23.4192 24.053 23.367 24.118 23.2994C24.183 23.2318 24.2314 23.1506 24.2593 23.062L25.3618 19.657C25.3757 19.5884 25.4163 19.5281 25.4747 19.4895C25.5331 19.4508 25.6044 19.4369 25.6731 19.4508C25.7417 19.4647 25.802 19.5053 25.8406 19.5637C25.8793 19.6221 25.8932 19.6934 25.8793 19.762L25.6318 22.642C25.5968 23.012 25.7643 23.172 26.1343 23.122L27.9118 22.8745C28.0308 22.8578 28.1383 22.7949 28.2113 22.6994C28.2843 22.604 28.3168 22.4837 28.3018 22.3645L28.0468 20.302C28.0118 20.027 27.8768 19.8245 27.6418 19.6945L20.9443 15.9295C20.8868 15.8926 20.8441 15.8367 20.8235 15.7716C20.8029 15.7064 20.8058 15.6361 20.8316 15.5728C20.8574 15.5096 20.9046 15.4574 20.9649 15.4253C21.0252 15.3932 21.0949 15.3832 21.1618 15.397L27.1243 16.987C27.1846 17.0026 27.2479 17.0032 27.3084 16.9888C27.369 16.9743 27.4248 16.9453 27.471 16.9044C27.5171 16.8634 27.5521 16.8118 27.5728 16.7542C27.5935 16.6967 27.5991 16.6349 27.5893 16.5745L27.0493 12.7195C27.0193 12.5145 27.0793 12.342 27.2293 12.202L28.7968 10.732C29.0468 10.497 29.1943 10.5495 29.2393 10.8895L30.0268 16.567C30.0868 16.992 30.3318 17.2195 30.7618 17.2495C34.8518 17.4995 38.1743 16.047 40.7293 12.892C40.83 12.7673 40.8861 12.6124 40.8889 12.4521C40.8916 12.2918 40.8407 12.1352 40.7443 12.007L37.5118 7.65705C37.3068 7.38205 37.3743 7.23205 37.7143 7.20705L39.5068 7.07955C39.8368 7.05455 40.1018 7.17205 40.3018 7.43205L42.3343 10.132C42.5743 10.457 42.7968 10.4445 43.0018 10.0945L45.9193 5.12205C45.953 5.07003 46.0043 5.03113 46.064 5.01238C46.1237 4.99363 46.1879 4.99625 46.2449 5.01978C46.3019 5.04331 46.348 5.08619 46.375 5.1407C46.4019 5.1952 46.4079 5.25775 46.3918 5.31705L44.4268 12.4795C44.3668 12.6945 44.4043 12.892 44.5393 13.072L46.2043 15.2395C46.2414 15.2865 46.2876 15.3255 46.3402 15.3541C46.3928 15.3827 46.4506 15.4004 46.5102 15.406C46.5698 15.4116 46.6299 15.4051 46.6869 15.3868C46.7439 15.3685 46.7966 15.3388 46.8418 15.2995L48.2593 14.0545C48.4643 13.8695 48.4643 13.6845 48.2593 13.4995L45.9043 11.4295C45.7393 11.2845 45.7593 11.1795 45.9643 11.1145C46.1243 11.0595 46.2818 11.0745 46.4368 11.1595C47.6718 11.8245 48.7193 12.3545 49.5793 12.7495C49.6477 12.7802 49.7219 12.796 49.7968 12.796C49.8718 12.796 49.9459 12.7802 50.0143 12.7495L54.0793 10.8745C54.1184 10.8593 54.1616 10.8582 54.2014 10.8713C54.2412 10.8845 54.2752 10.9112 54.2974 10.9468C54.3197 10.9824 54.3288 11.0246 54.3232 11.0662C54.3176 11.1078 54.2977 11.1461 54.2668 11.1745L51.4543 13.432C51.1393 13.682 51.1468 13.927 51.4768 14.167L52.8868 15.202C53.1718 15.407 53.4218 15.372 53.6368 15.097L55.2568 12.982C55.3324 12.8838 55.3818 12.7681 55.4002 12.646C55.4185 12.5239 55.4053 12.3995 55.3618 12.2845C54.5818 10.2645 53.9993 8.18705 53.6143 6.05205C53.4193 4.97705 53.6043 4.90705 54.1693 5.84205L56.7568 10.1545C56.9268 10.4395 57.1168 10.4545 57.3268 10.1995L59.5393 7.43205C59.7243 7.20205 59.9643 7.09455 60.2593 7.10955L61.9918 7.19955C62.3418 7.21455 62.4118 7.36205 62.2018 7.64205L58.9093 12.0745C58.7443 12.2945 58.7468 12.512 58.9168 12.727C61.4668 16.082 64.8843 17.587 69.1693 17.242C69.4793 17.217 69.6543 17.0495 69.6943 16.7395L70.4668 10.882C70.5168 10.512 70.6718 10.4595 70.9318 10.7245L72.3868 12.1795C72.5718 12.3595 72.6468 12.577 72.6118 12.832L72.1018 16.552C72.0937 16.6119 72.1004 16.6729 72.1214 16.7295C72.1425 16.7861 72.1771 16.8367 72.2224 16.8768C72.2676 16.9168 72.322 16.9451 72.3808 16.9591C72.4396 16.9731 72.5009 16.9724 72.5593 16.957L78.7393 15.4195C78.795 15.3977 78.8571 15.3988 78.912 15.4227C78.9668 15.4466 79.0099 15.4914 79.0318 15.547C79.0537 15.6027 79.0526 15.6649 79.0287 15.7197C79.0047 15.7746 78.96 15.8177 78.9043 15.8395L72.1543 19.567C71.9043 19.707 71.7593 19.917 71.7193 20.197L71.3668 22.432C71.3318 22.687 71.4393 22.832 71.6893 22.867L73.6618 23.1295C73.9618 23.1695 74.1043 23.0395 74.0893 22.7395L73.9393 19.8595C73.9293 19.6495 74.0218 19.577 74.2168 19.642C74.4018 19.707 74.5143 19.8195 74.5543 19.9795C74.8143 20.9895 75.1018 22.007 75.4168 23.032C75.449 23.1383 75.507 23.2349 75.5855 23.3134C75.664 23.3919 75.7606 23.4498 75.8668 23.482L79.4893 24.5395C79.5355 24.5532 79.5779 24.5773 79.6133 24.61C79.6487 24.6426 79.6761 24.6829 79.6935 24.7278C79.7109 24.7727 79.7178 24.821 79.7136 24.869C79.7094 24.917 79.6942 24.9633 79.6693 25.0045L79.5493 25.207C79.4743 25.332 79.3693 25.372 79.2343 25.327C78.2593 24.987 77.2518 24.8845 76.2118 25.0195C75.9968 25.0495 75.9068 25.172 75.9418 25.387L76.2643 27.352C76.2943 27.532 76.3993 27.6095 76.5793 27.5845L79.5868 27.1495C79.6824 27.136 79.7728 27.0977 79.8491 27.0385C79.9254 26.9793 79.9849 26.9013 80.0218 26.812C80.9118 24.687 82.0168 22.692 83.3368 20.827C83.8318 20.122 83.9743 20.187 83.7643 21.022L82.4218 26.2495C82.4058 26.3065 82.4046 26.3665 82.4184 26.4241C82.4323 26.4817 82.4606 26.5349 82.501 26.579C82.5413 26.6231 82.5923 26.6565 82.6492 26.6763C82.7062 26.696 82.7672 26.7015 82.8268 26.692L86.2543 26.137C86.4643 26.107 86.6518 26.1595 86.8168 26.2945L88.5268 27.712C88.5724 27.7504 88.6058 27.8012 88.6231 27.8583C88.6403 27.9153 88.6406 27.9761 88.6239 28.0333C88.6072 28.0905 88.5743 28.1417 88.5291 28.1805C88.4839 28.2193 88.4284 28.2442 88.3693 28.252L82.6768 29.092C82.3918 29.137 82.2318 29.302 82.1968 29.587C81.7093 33.682 83.3818 38.2045 87.1543 40.5145C87.4093 40.6745 87.6593 40.662 87.9043 40.477L92.1793 37.222C92.4643 37.007 92.6068 37.0795 92.6068 37.4395V39.3895C92.6068 39.6945 92.4868 39.942 92.2468 40.132L89.7793 42.0745C89.5043 42.2895 89.5218 42.482 89.8318 42.652L94.5268 45.232C94.5811 45.2651 94.622 45.3163 94.6423 45.3766C94.6625 45.4369 94.6608 45.5024 94.6375 45.5616C94.6142 45.6207 94.5708 45.6698 94.5148 45.7C94.4589 45.7303 94.3941 45.7399 94.3318 45.727L87.7168 44.0245C87.4568 43.9545 87.2168 43.9995 86.9968 44.1595L84.4243 46.0195C84.2343 46.1595 84.2068 46.327 84.3418 46.522L85.5343 48.1945C85.7593 48.5095 85.9893 48.517 86.2243 48.217L88.2418 45.637C88.2576 45.6119 88.2781 45.5902 88.3023 45.573C88.3265 45.5558 88.3538 45.5436 88.3827 45.537C88.4116 45.5303 88.4415 45.5295 88.4707 45.5344C88.5 45.5394 88.528 45.55 88.5531 45.5658C88.5782 45.5815 88.6 45.6021 88.6171 45.6263C88.6343 45.6504 88.6466 45.6778 88.6532 45.7067C88.6598 45.7356 88.6606 45.7655 88.6557 45.7947C88.6507 45.8239 88.6401 45.8519 88.6243 45.877L86.9368 49.342C86.8218 49.577 86.8218 49.812 86.9368 50.047L88.6768 53.6545C88.6991 53.7075 88.7017 53.7667 88.6841 53.8214C88.6665 53.876 88.6298 53.9226 88.5808 53.9525C88.5318 53.9825 88.4736 53.9939 88.417 53.9846C88.3603 53.9753 88.3088 53.946 88.2718 53.902L86.1568 51.247C85.9718 51.022 85.7918 51.0245 85.6168 51.2545L84.4018 52.8445C84.2368 53.0645 84.2618 53.257 84.4768 53.422L86.9668 55.342C87.0671 55.4192 87.1833 55.4728 87.3066 55.4988C87.43 55.5248 87.5574 55.5225 87.6793 55.492L94.2568 53.797C94.309 53.7853 94.3636 53.7926 94.411 53.8175C94.4583 53.8424 94.4952 53.8834 94.515 53.933C94.5349 53.9827 94.5364 54.0378 94.5193 54.0884C94.5023 54.1391 94.4677 54.182 94.4218 54.2095L89.8693 56.7895C89.811 56.8235 89.7619 56.8713 89.7263 56.9287C89.6907 56.9862 89.6698 57.0514 89.6654 57.1188C89.6609 57.1862 89.6731 57.2537 89.7008 57.3152C89.7285 57.3768 89.7709 57.4307 89.8243 57.472L92.2993 59.422C92.3949 59.4969 92.4722 59.5925 92.5255 59.7017C92.5788 59.8108 92.6066 59.9306 92.6068 60.052V62.047C92.6064 62.1019 92.5909 62.1557 92.562 62.2024C92.5331 62.2491 92.492 62.2868 92.4435 62.3111C92.3949 62.3353 92.3409 62.3452 92.2875 62.3397C92.2342 62.3341 92.1837 62.3133 92.1418 62.2795L87.8593 58.9795C87.6093 58.7895 87.3593 58.787 87.1093 58.972C83.5543 61.557 81.8943 65.087 82.1293 69.562C82.1543 70.037 82.4018 70.3095 82.8718 70.3795L88.3093 71.2045C88.3632 71.2121 88.4137 71.2349 88.455 71.2703C88.4964 71.3056 88.5267 71.3521 88.5425 71.4041C88.5582 71.4562 88.5588 71.5116 88.5441 71.564C88.5293 71.6163 88.4999 71.6633 88.4593 71.6995L86.9293 73.0945C86.6993 73.2995 86.4318 73.377 86.1268 73.327L82.8343 72.7945C82.7786 72.7851 82.7213 72.7898 82.6679 72.8082C82.6144 72.8266 82.5664 72.8582 82.5283 72.9C82.4902 72.9418 82.4633 72.9925 82.4499 73.0475C82.4365 73.1025 82.4372 73.1599 82.4518 73.2145L83.8768 78.8545C83.8978 78.92 83.8929 78.9911 83.8633 79.0531C83.8337 79.1152 83.7815 79.1636 83.7173 79.1885C83.6532 79.2134 83.582 79.2129 83.5183 79.187C83.4545 79.1612 83.403 79.112 83.3743 79.0495L79.7668 72.517C79.7297 72.452 79.6785 72.3965 79.6174 72.3549C79.5562 72.3133 79.4867 72.2866 79.4143 72.277L76.7818 71.887C76.4168 71.832 76.2093 71.9895 76.1593 72.3595L75.9418 74.032C75.8968 74.377 76.0493 74.542 76.3993 74.527L79.1368 74.3845C79.207 74.3827 79.276 74.4063 79.3311 74.4507C79.3862 74.4952 79.4237 74.5575 79.4365 74.6262C79.4493 74.695 79.4367 74.7653 79.4009 74.8243C79.3651 74.8833 79.3086 74.9269 79.2418 74.947L75.8893 76.012C75.6493 76.092 75.4943 76.2495 75.4243 76.4845L74.3893 79.837C74.3764 79.9056 74.3367 79.9663 74.2791 80.0057C74.2214 80.0451 74.1505 80.06 74.0818 80.047C74.0132 80.0341 73.9525 79.9944 73.9131 79.9368C73.8738 79.8791 73.8589 79.8082 73.8718 79.7395L74.0968 76.8295C74.1021 76.7589 74.0914 76.688 74.0655 76.6221C74.0397 76.5561 73.9994 76.4968 73.9475 76.4486C73.8957 76.4003 73.8336 76.3644 73.766 76.3433C73.6984 76.3223 73.6269 76.3167 73.5568 76.327L71.7868 76.597C71.4768 76.642 71.3468 76.8195 71.3968 77.1295L71.7043 79.147C71.7443 79.417 71.8843 79.622 72.1243 79.762L78.8818 83.647C78.9309 83.6748 78.9682 83.7195 78.9868 83.7727C79.0054 83.8259 79.004 83.8841 78.9829 83.9364C78.9618 83.9887 78.9224 84.0315 78.8721 84.0569C78.8218 84.0823 78.7639 84.0886 78.7093 84.0745L72.4318 82.4995C72.1618 82.4345 72.0468 82.5395 72.0868 82.8145L72.6193 86.632C72.6543 86.887 72.5793 87.107 72.3943 87.292L70.9393 88.7545C70.6893 88.9995 70.5393 88.9495 70.4893 88.6045L69.6643 82.717C69.6243 82.412 69.4493 82.247 69.1393 82.222C65.0593 81.907 61.7418 83.297 59.1868 86.392C58.8418 86.812 58.8293 87.2395 59.1493 87.6745L62.2243 91.8595C62.3993 92.0995 62.3393 92.2345 62.0443 92.2645L60.2368 92.452C60.0964 92.4658 59.9547 92.4434 59.8248 92.387C59.6949 92.3306 59.5812 92.242 59.4943 92.1295L57.3643 89.3395C57.1243 89.0295 56.9043 89.0445 56.7043 89.3845L53.7268 94.4995C53.6999 94.5571 53.6519 94.6022 53.5926 94.6253C53.5334 94.6485 53.4675 94.6479 53.4087 94.6238C53.3499 94.5997 53.3026 94.5539 53.2766 94.4958C53.2507 94.4378 53.248 94.3719 53.2693 94.312L55.2718 87.1045C55.3418 86.8545 55.2993 86.627 55.1443 86.422L53.5243 84.247C53.4894 84.1997 53.4452 84.1601 53.3942 84.1305C53.3432 84.101 53.2865 84.0821 53.2276 84.0751C53.1688 84.0681 53.1089 84.0731 53.0516 84.0897C52.9943 84.1064 52.9408 84.1344 52.8943 84.172L51.4393 85.3795C51.3944 85.4166 51.3583 85.4633 51.3338 85.5162C51.3093 85.5691 51.2969 85.6268 51.2977 85.6851C51.2984 85.7433 51.3122 85.8007 51.338 85.853C51.3638 85.9052 51.401 85.951 51.4468 85.987L53.9893 87.9595C54.1693 88.0945 54.1843 88.247 54.0343 88.417C53.9443 88.517 53.8268 88.5295 53.6818 88.4545C52.4968 87.8545 51.2968 87.2845 50.0818 86.7445C49.8768 86.6495 49.6718 86.652 49.4668 86.752L45.9343 88.477C45.6393 88.627 45.5368 88.542 45.6268 88.222C45.6718 88.057 45.7818 87.927 45.9568 87.832C46.8718 87.342 47.6418 86.6895 48.2668 85.8745C48.4468 85.6345 48.4143 85.432 48.1693 85.267L46.6468 84.2245C46.4518 84.0895 46.2818 84.117 46.1368 84.307L44.5168 86.452C44.4539 86.5338 44.411 86.6286 44.3915 86.729C44.3719 86.8293 44.3763 86.9322 44.4043 87.0295L46.4518 94.267C46.4636 94.3199 46.4565 94.3753 46.4317 94.4235C46.407 94.4717 46.3662 94.5098 46.3164 94.5311C46.2666 94.5525 46.2109 94.5557 46.159 94.5404C46.107 94.525 46.062 94.492 46.0318 94.447L42.9493 89.2645C42.8043 89.0295 42.6443 89.0195 42.4693 89.2345L40.1143 92.1895C40.0674 92.2485 40.0082 92.2964 39.9408 92.3301C39.8735 92.3638 39.7996 92.3824 39.7243 92.3845L37.6318 92.4295C37.5735 92.4309 37.5158 92.416 37.4654 92.3865C37.415 92.357 37.374 92.3142 37.3473 92.263C37.3205 92.2119 37.3091 92.1545 37.3143 92.0977C37.3195 92.0408 37.3412 91.9868 37.3768 91.942L40.8268 87.4045C40.9818 87.1945 40.9818 86.9845 40.8268 86.7745C38.2718 83.3795 34.8293 81.867 30.4993 82.237C30.1993 82.262 30.0318 82.4245 29.9968 82.7245L29.2618 88.5745C29.2218 88.9095 29.0768 88.9645 28.8268 88.7395L27.3493 87.4345C27.1393 87.2495 27.0543 87.017 27.0943 86.737L27.6193 82.9495C27.6743 82.5595 27.5118 82.412 27.1318 82.507L21.1393 84.022C21.0833 84.032 21.0255 84.0223 20.9758 83.9947C20.926 83.967 20.8874 83.9231 20.8662 83.8703C20.8451 83.8174 20.8428 83.7589 20.8598 83.7046C20.8767 83.6503 20.9119 83.6035 20.9593 83.572L27.6568 79.8295C27.8968 79.6945 28.0343 79.487 28.0693 79.207L28.3168 77.1145C28.3568 76.8045 28.2218 76.6295 27.9118 76.5895L26.0893 76.3345C25.8093 76.2945 25.6693 76.417 25.6693 76.702V77.692C25.6693 79.627 25.3493 79.682 24.7093 77.857L24.2218 76.4695C24.1418 76.2395 23.9868 76.087 23.7568 76.012L20.2693 74.932C20.1878 74.9102 20.1178 74.858 20.0737 74.7861C20.0295 74.7143 20.0145 74.6282 20.0318 74.5457C20.0491 74.4631 20.0973 74.3903 20.1666 74.3422C20.2358 74.2941 20.3209 74.2744 20.4043 74.287L23.4418 74.6095C23.4853 74.6143 23.5293 74.6092 23.5706 74.5947C23.6119 74.5801 23.6494 74.5565 23.6804 74.5256C23.7113 74.4946 23.7349 74.4571 23.7494 74.4158C23.764 74.3746 23.7691 74.3305 23.7643 74.287L23.5543 72.2545C23.549 72.1968 23.5317 72.1407 23.5036 72.0898C23.4755 72.0389 23.4371 71.9942 23.3908 71.9584C23.3445 71.9226 23.2912 71.8965 23.2342 71.8816C23.1772 71.8668 23.1177 71.8635 23.0593 71.872L20.2843 72.3145C20.1979 72.3288 20.1158 72.3625 20.0443 72.4132C19.9729 72.4639 19.9139 72.5302 19.8718 72.607L16.2193 79.1845C16.1967 79.2357 16.1552 79.2762 16.1034 79.2976C16.0517 79.3189 15.9937 79.3195 15.9416 79.2992C15.8894 79.279 15.8471 79.2393 15.8234 79.1886C15.7997 79.1379 15.7964 79.0801 15.8143 79.027L17.2843 73.2145C17.3743 72.8595 17.2393 72.7145 16.8793 72.7795L13.4893 73.3645C13.3857 73.3808 13.2797 73.3745 13.1787 73.3461C13.0778 73.3176 12.9841 73.2676 12.9043 73.1995L11.2693 71.797C11.2183 71.7528 11.1811 71.6949 11.1621 71.6301C11.1431 71.5654 11.1431 71.4966 11.162 71.4318C11.181 71.367 11.2181 71.3091 11.2691 71.2648C11.32 71.2205 11.3825 71.1918 11.4493 71.182L16.8568 70.387C17.2968 70.322 17.5318 70.067 17.5618 69.622C17.8918 65.047 16.2043 61.492 12.4993 58.957C12.2743 58.802 12.0543 58.8095 11.8393 58.9795L7.5343 62.3395C7.2493 62.5645 7.1068 62.4945 7.1068 62.1295V60.0145C7.10679 59.8912 7.1352 59.7696 7.18983 59.659C7.24446 59.5484 7.32384 59.4519 7.4218 59.377L9.9418 57.442C10.2118 57.237 10.1993 57.0495 9.9043 56.8795Z" fill="url(#paint0_radial_101_112)"/>
<path d="M49.8494 11.5118C50.7483 11.5118 51.4769 10.7832 51.4769 9.88434C51.4769 8.98549 50.7483 8.25684 49.8494 8.25684C48.9506 8.25684 48.2219 8.98549 48.2219 9.88434C48.2219 10.7832 48.9506 11.5118 49.8494 11.5118Z" fill="#A57C0B"/>
<path d="M34.7069 15.4345C35.9744 15.4345 37.0019 14.407 37.0019 13.1395C37.0019 11.872 35.9744 10.8445 34.7069 10.8445C33.4394 10.8445 32.4119 11.872 32.4119 13.1395C32.4119 14.407 33.4394 15.4345 34.7069 15.4345Z" fill="#A57C0B"/>
<path d="M65.0294 15.4345C66.2928 15.4345 67.3169 14.4103 67.3169 13.147C67.3169 11.8836 66.2928 10.8595 65.0294 10.8595C63.7661 10.8595 62.7419 11.8836 62.7419 13.147C62.7419 14.4103 63.7661 15.4345 65.0294 15.4345Z" fill="#A57C0B"/>
<path d="M42.2743 27.7871L40.1068 28.6646C38.8618 24.5146 35.9193 22.5646 31.2793 22.8146C31.1642 22.8213 31.0506 22.7844 30.9605 22.7109C30.8704 22.6375 30.8103 22.5328 30.7918 22.4171L30.5668 21.0221C30.5567 20.9636 30.5611 20.9035 30.5798 20.8472C30.5985 20.7909 30.6308 20.7401 30.6738 20.6993C30.7169 20.6584 30.7693 20.6289 30.8266 20.6132C30.8838 20.5976 30.944 20.5963 31.0018 20.6096C37.1368 21.9071 39.6118 20.7971 42.7168 15.5096C42.8818 15.2246 43.0693 15.2096 43.2793 15.4646L44.3518 16.7921C44.4378 16.8984 44.4802 17.0335 44.4704 17.1699C44.4607 17.3063 44.3995 17.434 44.2993 17.5271C41.2168 20.4146 39.6118 23.7971 42.2743 27.7871Z" fill="#F3D871"/>
<path d="M59.7946 28.792L57.4771 27.7345C60.1171 23.752 58.4896 20.4295 55.4071 17.5195C55.313 17.4304 55.2555 17.3091 55.2458 17.179C55.2362 17.0488 55.2749 16.919 55.3546 16.8145L56.4346 15.4345C56.5946 15.2295 56.7521 15.232 56.9071 15.442C60.6571 20.6095 61.8421 21.982 68.6896 20.5795C68.7462 20.5681 68.8047 20.5704 68.8602 20.5863C68.9157 20.6023 68.9665 20.6313 69.0085 20.671C69.0504 20.7107 69.0821 20.7599 69.101 20.8145C69.1199 20.8691 69.1254 20.9274 69.1171 20.9845L68.9221 22.2745C68.8821 22.5595 68.7171 22.7095 68.4271 22.7245C64.2121 22.897 60.5821 23.962 59.7946 28.792Z" fill="#F3D871"/>
<path d="M48.1168 17.3995L49.5643 15.4645C49.5906 15.4292 49.6245 15.4003 49.6634 15.3799C49.7024 15.3595 49.7455 15.3482 49.7895 15.3467C49.8334 15.3453 49.8772 15.3538 49.9174 15.3716C49.9576 15.3894 49.9933 15.416 50.0218 15.4495L51.6418 17.362C51.6849 17.4132 51.7092 17.4776 51.7105 17.5444C51.7119 17.6113 51.6903 17.6766 51.6493 17.7295L50.1118 19.777C50.0851 19.8132 50.0504 19.8428 50.0104 19.8634C49.9704 19.884 49.9262 19.8951 49.8812 19.8958C49.8362 19.8965 49.7916 19.8869 49.751 19.8676C49.7103 19.8483 49.6747 19.8198 49.6468 19.7845L48.1168 17.7445C48.0803 17.6944 48.0605 17.634 48.0605 17.572C48.0605 17.51 48.0803 17.4496 48.1168 17.3995Z" fill="#F3D871"/>
<path d="M21.942 22.9045C22.8533 22.9045 23.592 22.1658 23.592 21.2545C23.592 20.3432 22.8533 19.6045 21.942 19.6045C21.0307 19.6045 20.292 20.3432 20.292 21.2545C20.292 22.1658 21.0307 22.9045 21.942 22.9045Z" fill="#A57C0B"/>
<path d="M77.742 22.867C78.6533 22.867 79.392 22.1283 79.392 21.217C79.392 20.3057 78.6533 19.567 77.742 19.567C76.8308 19.567 76.092 20.3057 76.092 21.217C76.092 22.1283 76.8308 22.867 77.742 22.867Z" fill="#A57C0B"/>
<path d="M53.9744 26.932L45.5444 26.827C45.3744 24.507 45.6844 22.367 46.4744 20.407C46.6044 20.087 46.7744 20.067 46.9844 20.347L49.6094 23.842C49.6409 23.8839 49.6816 23.9179 49.7285 23.9414C49.7754 23.9648 49.827 23.977 49.8794 23.977C49.9318 23.977 49.9835 23.9648 50.0304 23.9414C50.0772 23.9179 50.118 23.8839 50.1494 23.842L52.6994 20.3545C52.8894 20.0945 53.0494 20.112 53.1794 20.407C54.1194 22.517 54.3844 24.692 53.9744 26.932Z" fill="#F3D871"/>
<path d="M25.9021 27.832L25.7896 25.372C25.7873 25.3353 25.7929 25.2985 25.8061 25.2642C25.8194 25.2299 25.8399 25.1988 25.8662 25.1732C25.8926 25.1475 25.9242 25.1279 25.9589 25.1156C25.9935 25.1033 26.0304 25.0987 26.0671 25.102L28.5421 25.3645C28.5995 25.3709 28.6531 25.3967 28.694 25.4376C28.7348 25.4785 28.7606 25.532 28.7671 25.5895L29.0296 28.1545C29.0332 28.1925 29.0283 28.2308 29.0152 28.2667C29.002 28.3025 28.981 28.335 28.9536 28.3616C28.9263 28.3882 28.8933 28.4084 28.8571 28.4206C28.8209 28.4328 28.7825 28.4367 28.7446 28.432L26.1196 28.072C26.0611 28.0634 26.0075 28.0347 25.9678 27.991C25.9282 27.9472 25.9049 27.891 25.9021 27.832Z" fill="#F3D871"/>
<path d="M71.307 25.402L73.5345 25.1245C73.6004 25.1166 73.6673 25.1242 73.7298 25.1466C73.7923 25.169 73.8487 25.2057 73.8946 25.2538C73.9405 25.3018 73.9745 25.3599 73.994 25.4234C74.0135 25.4868 74.018 25.554 74.007 25.6195L73.6695 27.772C73.6538 27.8635 73.6087 27.9474 73.541 28.011C73.4733 28.0746 73.3868 28.1144 73.2945 28.1245L71.2095 28.387C71.1458 28.3952 71.0811 28.3889 71.0202 28.3687C70.9593 28.3484 70.9037 28.3147 70.8576 28.27C70.8115 28.2254 70.776 28.1709 70.7538 28.1106C70.7317 28.0504 70.7234 27.9859 70.7295 27.922L70.9395 25.7845C70.9487 25.6887 70.9901 25.5988 71.0568 25.5294C71.1235 25.4599 71.2116 25.4151 71.307 25.402Z" fill="#F3D871"/>
<path d="M36.9493 30.6144C34.5243 32.2494 32.5093 34.2194 30.9043 36.5244C29.0643 34.9844 27.7193 33.1494 26.8693 31.0194C26.7493 30.7294 26.8443 30.6094 27.1543 30.6594L31.4818 31.3644C31.7818 31.4144 31.9118 31.2869 31.8718 30.9819L31.3168 26.6769C31.2768 26.3719 31.3993 26.2744 31.6843 26.3844C33.8443 27.2194 35.5993 28.6294 36.9493 30.6144Z" fill="#F3D871"/>
<path d="M68.742 36.337C66.982 34.097 64.992 32.152 62.772 30.502C64.202 28.547 65.972 27.1895 68.082 26.4295C68.1182 26.4164 68.1573 26.4127 68.1953 26.419C68.2334 26.4253 68.2692 26.4412 68.2993 26.4653C68.3295 26.4894 68.3529 26.5209 68.3674 26.5566C68.3818 26.5924 68.3869 26.6313 68.382 26.6695L67.827 30.982C67.787 31.297 67.922 31.4295 68.232 31.3795L72.402 30.7045C72.662 30.6595 72.7545 30.767 72.6795 31.027C71.9945 33.307 70.682 35.077 68.742 36.337Z" fill="#F3D871"/>
<path d="M45.5445 26.8269L53.9745 26.9319C54.9445 27.4419 56.112 27.7094 57.477 27.7344L59.7945 28.7919L62.772 30.5019C64.992 32.1519 66.982 34.0969 68.742 36.3369L70.632 39.4419L71.907 42.1494L72.687 45.2994C73.077 48.2144 73.0595 51.1294 72.6345 54.0444L71.7645 57.3144L70.632 60.1419L68.8095 63.0819L62.8095 68.9544C61.7095 69.2994 60.707 69.9544 59.802 70.9194C58.767 70.8894 58.022 71.1869 57.567 71.8119L54.1245 72.4944C51.3445 72.9294 48.5245 72.9319 45.6645 72.5019L42.2295 71.8419C41.4495 71.1219 40.667 70.7619 39.882 70.7619C38.872 69.8519 37.8795 69.2294 36.9045 68.8944C34.5545 67.1444 32.522 65.1519 30.807 62.9169L29.232 60.1719L27.972 57.2919L27.0345 53.9994L27.012 45.4794L27.957 42.0894L29.082 39.2319L30.9045 36.5244C32.5095 34.2194 34.5245 32.2494 36.9495 30.6144L40.107 28.6644L42.2745 27.7869C43.2595 27.7619 44.3495 27.4419 45.5445 26.8269Z" fill="url(#paint1_radial_101_112)"/>
<path d="M29.0819 39.232L27.9569 42.0895C24.0168 39.9145 20.6043 40.622 17.7193 44.212C17.5043 44.482 17.2618 44.512 16.9918 44.302L15.2368 42.9595C14.9918 42.7695 15.0018 42.597 15.2668 42.442C20.6218 39.247 22.5644 36.652 20.7568 30.157C20.7403 30.1002 20.7387 30.04 20.7521 29.9824C20.7655 29.9248 20.7935 29.8715 20.8334 29.8278C20.8733 29.7842 20.9238 29.7515 20.98 29.7329C21.0362 29.7144 21.0963 29.7106 21.1543 29.722L22.8494 30.037C23.0694 30.082 23.1844 30.2145 23.1944 30.4345C23.4419 34.672 24.0493 38.392 29.0819 39.232Z" fill="#F3D871"/>
<path d="M71.9068 42.1495L70.6318 39.442C74.8168 38.262 76.7243 35.317 76.3543 30.607C76.3416 30.4636 76.3851 30.3207 76.4758 30.2077C76.5664 30.0947 76.6975 30.0202 76.8418 29.9995L78.5593 29.7295C78.6143 29.7205 78.6707 29.7253 78.7233 29.7434C78.776 29.7614 78.8234 29.7923 78.8613 29.8331C78.8992 29.874 78.9264 29.9235 78.9404 29.9774C78.9545 30.0313 78.9549 30.0879 78.9418 30.142C78.3643 32.6245 77.6593 36.277 79.4818 38.407C80.8868 40.052 82.5443 41.3945 84.4543 42.4345C84.7243 42.5845 84.7368 42.752 84.4918 42.937L82.8043 44.2495C82.6961 44.3336 82.56 44.3735 82.4235 44.3609C82.287 44.3484 82.1604 44.2844 82.0693 44.182C79.2343 41.077 75.8443 39.5995 71.9068 42.1495Z" fill="#F3D871"/>
<path d="M13.3921 36.4271C14.6513 36.4271 15.6721 35.4063 15.6721 34.1471C15.6721 32.8879 14.6513 31.8671 13.3921 31.8671C12.1329 31.8671 11.1121 32.8879 11.1121 34.1471C11.1121 35.4063 12.1329 36.4271 13.3921 36.4271Z" fill="#A57C0B"/>
<path d="M86.307 36.4495C87.5704 36.4495 88.5945 35.4254 88.5945 34.162C88.5945 32.8987 87.5704 31.8745 86.307 31.8745C85.0437 31.8745 84.0195 32.8987 84.0195 34.162C84.0195 35.4254 85.0437 36.4495 86.307 36.4495Z" fill="#A57C0B"/>
<path d="M72.687 45.2994L79.1745 46.3344C79.2354 46.3431 79.2923 46.3698 79.3378 46.4111C79.3834 46.4524 79.4155 46.5064 79.43 46.5662C79.4446 46.626 79.4409 46.6887 79.4194 46.7463C79.3979 46.8039 79.3596 46.8538 79.3095 46.8894L75.8895 49.3944C75.8379 49.4315 75.7958 49.4801 75.7664 49.5365C75.7371 49.5928 75.7215 49.6553 75.7207 49.7188C75.72 49.7823 75.7342 49.8451 75.7622 49.9021C75.7903 49.9591 75.8313 50.0087 75.882 50.0469L79.392 52.6719C79.4256 52.6974 79.4518 52.7313 79.4682 52.7702C79.4845 52.8091 79.4903 52.8515 79.4849 52.8934C79.4796 52.9352 79.4634 52.9748 79.4378 53.0084C79.4123 53.0419 79.3784 53.0682 79.3395 53.0844C77.2895 53.8744 75.0545 54.1944 72.6345 54.0444C73.0595 51.1294 73.077 48.2144 72.687 45.2994Z" fill="#F3D871"/>
<path d="M27.012 45.4795L27.0345 53.9995C24.7245 54.2645 22.5445 53.9645 20.4945 53.0995C20.1745 52.9645 20.152 52.7945 20.427 52.5895L23.862 50.017C23.9024 49.9862 23.9352 49.9465 23.9577 49.9009C23.9803 49.8554 23.992 49.8053 23.992 49.7545C23.992 49.7037 23.9803 49.6535 23.9577 49.608C23.9352 49.5625 23.9024 49.5228 23.862 49.492L20.4345 46.882C20.1445 46.667 20.167 46.492 20.502 46.357C22.552 45.522 24.722 45.2295 27.012 45.4795Z" fill="#F3D871"/>
<path d="M9.93436 51.4045C10.8498 51.4045 11.5919 50.6624 11.5919 49.747C11.5919 48.8316 10.8498 48.0895 9.93436 48.0895C9.01894 48.0895 8.27686 48.8316 8.27686 49.747C8.27686 50.6624 9.01894 51.4045 9.93436 51.4045Z" fill="#A57C0B"/>
<path d="M15.5594 49.5669L17.4269 47.9769C17.4772 47.9327 17.5412 47.9071 17.608 47.9044C17.6749 47.9017 17.7407 47.922 17.7944 47.9619L19.8419 49.4919C19.8781 49.5186 19.9077 49.5533 19.9283 49.5933C19.9489 49.6333 19.96 49.6776 19.9607 49.7226C19.9615 49.7675 19.9518 49.8121 19.9325 49.8527C19.9132 49.8934 19.8848 49.929 19.8494 49.9569L17.8769 51.5169C17.8255 51.5571 17.7622 51.5789 17.6969 51.5789C17.6317 51.5789 17.5684 51.5571 17.5169 51.5169L15.5669 50.0169C15.5334 49.99 15.5063 49.9561 15.4874 49.9175C15.4684 49.8789 15.4583 49.8366 15.4576 49.7937C15.4568 49.7507 15.4656 49.7081 15.4832 49.6689C15.5008 49.6297 15.5268 49.5949 15.5594 49.5669Z" fill="#F3D871"/>
<path d="M83.3446 48.8545L83.9596 49.417C84.2146 49.652 84.2096 49.882 83.9446 50.107L82.4146 51.382C82.3184 51.4608 82.1991 51.5053 82.0764 51.508C81.9537 51.5107 81.8349 51.4716 81.7396 51.397L80.0071 50.047C79.8421 49.917 79.8196 49.7645 79.9396 49.5895C80.4196 48.9095 81.1321 48.522 82.0771 48.427C82.5621 48.377 82.9846 48.5195 83.3446 48.8545Z" fill="#F3D871"/>
<path d="M89.7796 51.3895C90.695 51.3895 91.4371 50.6474 91.4371 49.732C91.4371 48.8165 90.695 48.0745 89.7796 48.0745C88.8642 48.0745 88.1221 48.8165 88.1221 49.732C88.1221 50.6474 88.8642 51.3895 89.7796 51.3895Z" fill="#A57C0B"/>
<path d="M70.6318 60.142L71.7643 57.3145C75.8293 59.962 79.2043 58.5145 82.1218 55.207C82.2918 55.012 82.4793 54.992 82.6843 55.147L84.4318 56.4445C84.7368 56.6745 84.7243 56.8845 84.3943 57.0745C82.3043 58.3095 80.4793 59.8545 78.9193 61.7095C78.7331 61.9301 78.6135 62.1953 78.5743 62.4745C78.2293 64.7445 78.3443 66.9945 78.9193 69.2245C78.9367 69.2924 78.9364 69.3638 78.9186 69.4316C78.9007 69.4993 78.8659 69.5612 78.8175 69.6111C78.7691 69.661 78.7088 69.6972 78.6425 69.7162C78.5762 69.7353 78.5062 69.7364 78.4393 69.7195L76.9768 69.3745C76.6818 69.3045 76.5243 69.1195 76.5043 68.8195C76.2418 64.567 75.5068 61.162 70.6318 60.142Z" fill="#F3D871"/>
<path d="M27.9719 57.2919L29.2319 60.1719C24.3794 60.9144 23.2769 64.6794 23.2544 68.9919C23.2539 69.113 23.2104 69.2297 23.1319 69.3207C23.0533 69.4116 22.945 69.4707 22.8269 69.4869L21.1544 69.7494C21.0949 69.7591 21.034 69.7537 20.9771 69.7336C20.9203 69.7136 20.8694 69.6797 20.8291 69.6349C20.7888 69.5901 20.7604 69.536 20.7465 69.4773C20.7325 69.4187 20.7335 69.3576 20.7494 69.2994C21.3544 67.0544 21.4969 64.7894 21.1769 62.5044C21.1419 62.2544 21.0469 62.0344 20.8919 61.8444C19.3219 59.8794 17.4444 58.2819 15.2594 57.0519C14.9894 56.8969 14.9794 56.7244 15.2294 56.5344L17.0069 55.1694C17.1056 55.0931 17.2299 55.0575 17.3541 55.0701C17.4783 55.0827 17.5929 55.1424 17.6744 55.2369C20.5844 58.7169 23.9819 59.7444 27.9719 57.2919Z" fill="#F3D871"/>
<path d="M13.392 67.6194C14.6553 67.6194 15.6795 66.5953 15.6795 65.3319C15.6795 64.0686 14.6553 63.0444 13.392 63.0444C12.1286 63.0444 11.1045 64.0686 11.1045 65.3319C11.1045 66.5953 12.1286 67.6194 13.392 67.6194Z" fill="#A57C0B"/>
<path d="M30.807 62.9169C32.522 65.1519 34.5545 67.1444 36.9045 68.8944C35.6345 70.8894 33.9045 72.2444 31.7145 72.9594C31.4245 73.0544 31.2995 72.9494 31.3395 72.6444L31.8795 68.4819C31.9195 68.1719 31.782 68.0419 31.467 68.0919L27.387 68.7519C27.012 68.8119 26.892 68.6644 27.027 68.3094C27.767 66.3244 29.027 64.5269 30.807 62.9169Z" fill="#F3D871"/>
<path d="M86.2995 67.612C87.5587 67.612 88.5795 66.5912 88.5795 65.332C88.5795 64.0728 87.5587 63.052 86.2995 63.052C85.0403 63.052 84.0195 64.0728 84.0195 65.332C84.0195 66.5912 85.0403 67.612 86.2995 67.612Z" fill="#A57C0B"/>
<path d="M68.8096 63.082C70.6846 64.532 72.0271 66.327 72.8371 68.467C72.9471 68.747 72.8521 68.8645 72.5521 68.8195L68.2246 68.1145C68.1728 68.1058 68.1198 68.1096 68.0697 68.1255C68.0196 68.1414 67.9739 68.169 67.936 68.2061C67.8982 68.2432 67.8693 68.2888 67.8517 68.3393C67.8341 68.3898 67.8282 68.4438 67.8346 68.497L68.3896 72.8095C68.4296 73.1045 68.3096 73.197 68.0296 73.087C65.8446 72.202 64.1046 70.8245 62.8096 68.9545L68.8096 63.082Z" fill="#F3D871"/>
<path d="M39.8819 70.762C40.6669 70.762 41.4494 71.122 42.2294 71.842C39.6119 75.6745 41.2619 79.162 44.2694 81.922C44.3636 82.0108 44.4235 82.1297 44.4386 82.2574C44.4537 82.3851 44.423 82.5134 44.3519 82.6195L43.3544 84.112C43.3224 84.1595 43.2791 84.1984 43.2283 84.225C43.1776 84.2516 43.1209 84.2652 43.0636 84.2644C43.0063 84.2637 42.9501 84.2487 42.9 84.2207C42.85 84.1928 42.8076 84.1528 42.7769 84.1045C39.8219 79.2895 36.9419 76.9795 31.0094 79.0045C30.9541 79.0235 30.8948 79.0278 30.8373 79.0169C30.7798 79.0061 30.7262 78.9806 30.6816 78.9427C30.6369 78.9049 30.6029 78.8562 30.5828 78.8013C30.5627 78.7463 30.5572 78.6871 30.5669 78.6295L30.7994 77.197C30.8201 77.0718 30.8831 76.9578 30.9775 76.8744C31.0719 76.7909 31.1918 76.7432 31.3169 76.7395C35.5319 76.612 39.1094 75.397 39.8819 70.762Z" fill="#F3D871"/>
<path d="M59.8018 70.9195C60.7618 75.3595 64.2118 76.747 68.4418 76.687C68.5589 76.6851 68.6729 76.7247 68.7635 76.7989C68.8542 76.873 68.9156 76.9769 68.9368 77.092L69.1918 78.442C69.2055 78.5117 69.2013 78.5837 69.1796 78.6514C69.1579 78.719 69.1194 78.78 69.0677 78.8287C69.016 78.8774 68.9528 78.9122 68.884 78.9298C68.8152 78.9475 68.7431 78.9474 68.6743 78.9295C62.5318 77.3545 60.0718 78.9295 56.9368 83.9995C56.7768 84.2595 56.6018 84.2695 56.4118 84.0295L55.2943 82.612C55.2176 82.5154 55.181 82.3929 55.1922 82.27C55.2033 82.1471 55.2614 82.0332 55.3543 81.952C58.7143 79.027 59.8318 75.7945 57.5668 71.812C58.0218 71.187 58.7668 70.8895 59.8018 70.9195Z" fill="#F3D871"/>
<path d="M73.1971 71.3394C73.3499 71.3616 73.491 71.4332 73.5982 71.5432C73.7054 71.6531 73.7728 71.7951 73.7896 71.9469L74.0296 73.9494C74.0354 74.0014 74.0296 74.054 74.0125 74.1035C73.9954 74.1529 73.9676 74.1979 73.931 74.2352C73.8943 74.2726 73.8499 74.3013 73.8008 74.3193C73.7517 74.3373 73.6992 74.3442 73.6471 74.3394L71.4196 74.0769C71.2983 74.0625 71.1855 74.0079 71.0997 73.9221C71.0138 73.8363 70.9601 73.7243 70.9471 73.6044L70.6921 71.3094C70.6671 71.0994 70.7621 71.0069 70.9771 71.0319L73.1971 71.3394Z" fill="#F3D871"/>
<path d="M26.3969 71.3394L28.6169 71.0844C28.6769 71.0782 28.7375 71.0856 28.7942 71.1063C28.8508 71.1269 28.902 71.1601 28.944 71.2035C28.9859 71.2469 29.0174 71.2992 29.0361 71.3565C29.0548 71.4139 29.0602 71.4747 29.0519 71.5344L28.7444 73.7619C28.7315 73.8494 28.6899 73.93 28.626 73.9911C28.5622 74.0523 28.4798 74.0904 28.3919 74.0994L26.1419 74.3694C26.0806 74.3772 26.0183 74.3706 25.9601 74.3501C25.9018 74.3296 25.8491 74.2958 25.8061 74.2514C25.7632 74.207 25.7312 74.1532 25.7126 74.0943C25.6941 74.0354 25.6896 73.9729 25.6994 73.9119L26.0519 71.6769C26.0644 71.5906 26.105 71.5108 26.1673 71.4498C26.2296 71.3888 26.3103 71.35 26.3969 71.3394Z" fill="#F3D871"/>
<path d="M45.6645 72.5019C48.5245 72.9319 51.3445 72.9294 54.1245 72.4944C54.3745 74.8794 54.067 77.0694 53.202 79.0644C53.077 79.3444 52.922 79.3644 52.737 79.1244L50.0895 75.6969C49.8945 75.4419 49.7045 75.4444 49.5195 75.7044L46.9995 79.1769C46.8045 79.4469 46.6445 79.4269 46.5195 79.1169C45.6195 76.9269 45.3345 74.7219 45.6645 72.5019Z" fill="#F3D871"/>
<path d="M21.9942 79.927C22.9055 79.927 23.6442 79.1882 23.6442 78.277C23.6442 77.3657 22.9055 76.627 21.9942 76.627C21.083 76.627 20.3442 77.3657 20.3442 78.277C20.3442 79.1882 21.083 79.927 21.9942 79.927Z" fill="#A57C0B"/>
<path d="M77.757 79.8894C78.6641 79.8894 79.3995 79.154 79.3995 78.2469C79.3995 77.3397 78.6641 76.6044 77.757 76.6044C76.8499 76.6044 76.1145 77.3397 76.1145 78.2469C76.1145 79.154 76.8499 79.8894 77.757 79.8894Z" fill="#A57C0B"/>
<path d="M49.4369 80.0695C49.4419 79.9595 49.4769 79.8595 49.5419 79.7695C49.5783 79.7228 49.625 79.6849 49.6783 79.6589C49.7316 79.6329 49.7901 79.6194 49.8494 79.6194C49.9087 79.6194 49.9672 79.6329 50.0205 79.6589C50.0737 79.6849 50.1204 79.7228 50.1569 79.7695L51.5369 81.622C51.596 81.703 51.6285 81.8001 51.6298 81.8997C51.6312 81.9992 51.6013 82.0962 51.5444 82.177L50.2619 83.9545C50.2286 84.001 50.185 84.0393 50.1347 84.0665C50.0843 84.0936 50.0283 84.1088 49.9711 84.111C49.9139 84.1132 49.857 84.1022 49.8047 84.079C49.7524 84.0558 49.7061 84.0209 49.6694 83.977L48.3194 82.3645C48.1344 82.1495 48.1094 81.917 48.2444 81.667C48.5644 81.057 48.9619 80.5245 49.4369 80.0695Z" fill="#F3D871"/>
<path d="M34.6919 88.627C35.9511 88.627 36.9719 87.6062 36.9719 86.347C36.9719 85.0878 35.9511 84.067 34.6919 84.067C33.4327 84.067 32.4119 85.0878 32.4119 86.347C32.4119 87.6062 33.4327 88.627 34.6919 88.627Z" fill="#A57C0B"/>
<path d="M65.0219 88.6194C66.2812 88.6194 67.3019 87.5987 67.3019 86.3394C67.3019 85.0802 66.2812 84.0594 65.0219 84.0594C63.7627 84.0594 62.7419 85.0802 62.7419 86.3394C62.7419 87.5987 63.7627 88.6194 65.0219 88.6194Z" fill="#A57C0B"/>
<path d="M49.887 91.2595C50.7859 91.2595 51.5145 90.5309 51.5145 89.632C51.5145 88.7332 50.7859 88.0045 49.887 88.0045C48.9882 88.0045 48.2595 88.7332 48.2595 89.632C48.2595 90.5309 48.9882 91.2595 49.887 91.2595Z" fill="#A57C0B"/>
<defs>
<radialGradient id="paint0_radial_101_112" cx="0" cy="0" r="1" gradientUnits="userSpaceOnUse" gradientTransform="translate(49.8282 49.8212) rotate(90) scale(44.8212 44.8282)">
<stop stop-color="#FFD256"/>
<stop offset="0.795422" stop-color="#A57C0B"/>
</radialGradient>
<radialGradient id="paint1_radial_101_112" cx="0" cy="0" r="1" gradientUnits="userSpaceOnUse" gradientTransform="translate(49.9894 49.8247) rotate(90) scale(22.9978 22.9775)">
<stop stop-color="#FFDA77"/>
<stop offset="1" stop-color="#987004"/>
</radialGradient>
</defs>
</svg>
