<svg width="100" height="100" viewBox="0 0 100 100" fill="none" xmlns="http://www.w3.org/2000/svg">
<rect width="100" height="100" fill="#14155F"/>
<path d="M71.8315 27.7082C74.0776 27.7082 75.8984 25.8874 75.8984 23.6413C75.8984 21.3953 74.0776 19.5745 71.8315 19.5745C69.5854 19.5745 67.7646 21.3953 67.7646 23.6413C67.7646 25.8874 69.5854 27.7082 71.8315 27.7082Z" fill="white"/>
<path d="M32.4734 76.3982H55.654C55.7038 76.3982 55.7516 76.4175 55.7873 76.4522C55.823 76.4868 55.8438 76.5341 55.8453 76.5838L55.9465 79.9982C55.9473 80.0238 55.9429 80.0492 55.9336 80.0731C55.9243 80.097 55.9104 80.1187 55.8925 80.1371C55.8747 80.1554 55.8534 80.17 55.8298 80.18C55.8062 80.1899 55.7809 80.1951 55.7553 80.195H25.0709C25.0458 80.195 25.021 80.1901 24.9977 80.1805C24.9745 80.1709 24.9535 80.1568 24.9357 80.139C24.9179 80.1213 24.9039 80.1002 24.8942 80.077C24.8846 80.0538 24.8797 80.0289 24.8797 80.0038L24.8516 35.1051C24.8516 35.0543 24.8717 35.0057 24.9076 34.9698C24.9434 34.934 24.9921 34.9138 25.0428 34.9138H31.9447C31.9954 34.9138 32.044 34.934 32.0799 34.9698C32.1158 35.0057 32.1359 35.0543 32.1359 35.1051L32.2822 76.2069C32.2822 76.2577 32.3023 76.3063 32.3382 76.3422C32.3741 76.378 32.4227 76.3982 32.4734 76.3982Z" fill="#E73B27"/>
<path d="M75.6789 79.5257C75.7164 79.627 75.7258 79.7376 75.707 79.8576C75.662 80.0826 75.5251 80.1951 75.2964 80.1951H68.6252C68.4039 80.1951 68.2933 80.0845 68.2933 79.8632L68.417 39.2845C68.4178 39.2094 68.4035 39.135 68.375 39.0654C68.3465 38.9958 68.3043 38.9325 68.251 38.8792C68.1976 38.8258 68.1341 38.7835 68.0641 38.7546C67.9942 38.7257 67.9191 38.7108 67.8433 38.7108H44.8652C44.6477 38.7108 44.5427 38.602 44.5502 38.3845L44.6402 35.2008C44.6477 35.0283 44.7377 34.942 44.9102 34.942L75.2964 35.0939C75.4614 35.0939 75.5439 35.1783 75.5439 35.347L75.6114 79.1826C75.6114 79.3026 75.6339 79.417 75.6789 79.5257Z" fill="#E73B27"/>
</svg>
