<svg width="100" height="100" viewBox="0 0 100 100" fill="none" xmlns="http://www.w3.org/2000/svg">
<rect width="100" height="100" fill="white"/>
<path d="M60.6163 18.2587C62.8138 20.0512 63.5188 21.7312 65.1838 24.9637C66.8138 28.1237 68.4138 31.3012 69.9838 34.4962C71.5963 37.7812 71.21 40.125 69.3688 43.3012C66.3163 48.5737 63.1813 53.0775 63.41 59.5087C63.415 59.6562 63.3438 59.7287 63.1963 59.7262L56.9563 59.6962C56.8063 59.6962 56.73 59.6212 56.7275 59.4712C56.5438 53.445 58.6888 49.1475 62.15 44.4037C64.2838 41.4787 65.0413 39.5737 63.6313 36.1462C62.6263 33.7012 61.0388 30.195 58.8688 25.6275C55.6813 18.9037 48.3425 19.0275 44.4838 24.9225C35.5813 38.5275 26.655 52.1175 17.705 65.6925C17.63 65.805 17.565 65.8 17.51 65.6775C15.715 61.7025 15.9938 57.9137 18.3463 54.3112C25.3588 43.5587 32.3763 32.81 39.3988 22.065C40.6413 20.1625 41.7238 18.8237 42.6463 18.0487C47.8213 13.6912 55.5313 14.1 60.6163 18.2587Z" fill="#E21E26"/>
<path d="M47.465 27.2512C49.5237 24.0675 53.2775 23.6287 55.2387 27.2775C56.5737 29.76 57.8687 32.2625 59.1237 34.785C60.125 36.7987 60.2562 38.4637 59.405 40.4287C57.9612 43.7512 55.9025 46.6237 53.8962 49.6537C52.2237 52.1837 51.5575 54.9625 51.8975 57.99C51.9175 58.165 51.84 58.25 51.665 58.245L47.2325 58.1437C47.09 58.1412 46.9787 58.08 46.8987 57.96C45.0087 55.0575 46.295 52.2075 48.1625 49.62C50.6825 46.1362 56.3637 39.6787 52.4862 35.9737C50.6487 34.2187 48.395 35.2687 47.1762 37.305C41.0437 47.5475 34.87 57.7662 28.655 67.9612C26.6562 71.2425 25.7937 73.4775 26.9712 77.0137C27.0237 77.1687 26.9675 77.2487 26.8025 77.2537C22.6512 77.4075 20.1087 73.2262 20.96 69.48C21.195 68.45 22.0687 66.7512 23.5812 64.3837C31.5087 51.9887 39.47 39.6112 47.465 27.2512Z" fill="#26316F"/>
<path d="M35.4687 71.6625C47.5287 71.6513 59.6037 71.895 71.6599 71.8012C78.7587 71.745 81.1662 62.3813 78.1962 57.2175C78.1828 57.1959 78.1757 57.171 78.1755 57.1456C78.1753 57.1202 78.1821 57.0952 78.1951 57.073C78.2081 57.0508 78.2268 57.0324 78.2495 57.0195C78.2721 57.0067 78.2977 57 78.3237 57H83.0824C83.2024 57 83.2962 57.0475 83.3637 57.1425C86.3037 61.2488 85.0999 65.9437 82.7637 69.9525C80.6937 73.5037 76.7112 77.8125 72.1962 77.82C60.1087 77.8425 48.0224 77.8288 35.9374 77.7787C31.5049 77.76 31.6137 71.6663 35.4687 71.6625Z" fill="#26316F"/>
<path d="M47.5175 63.36C54.2425 63.385 60.97 63.3875 67.7 63.3675C67.7606 63.3675 67.8204 63.3532 67.8745 63.3259C67.9285 63.2985 67.9754 63.2588 68.0113 63.21C69.4963 61.2187 68.7875 59.745 68.0825 57.6862C68.0425 57.5712 68.0838 57.5137 68.2063 57.5137L73.7825 57.4537C73.885 57.4537 73.9625 57.4975 74.015 57.585C75.62 60.2975 75.7413 62.9662 74.3788 65.5912C73.595 67.1025 71.9525 68.2462 70.2388 68.2462C59.1138 68.2512 47.9913 68.2525 36.8713 68.25C36.7438 68.25 36.6788 68.1862 36.6763 68.0587C36.5375 61.7137 43.7188 63.345 47.5175 63.36Z" fill="#E21E26"/>
</svg>
