<svg width="100" height="100" viewBox="0 0 100 100" fill="none" xmlns="http://www.w3.org/2000/svg">
<rect width="100" height="100" fill="#595C62"/>
<path d="M21.8623 58V40.8203H29.1631C30.9991 40.8203 32.3311 40.9766 33.1592 41.2891C33.9952 41.5938 34.6631 42.1406 35.1631 42.9297C35.6631 43.7188 35.9131 44.6211 35.9131 45.6367C35.9131 46.9258 35.5342 47.9922 34.7764 48.8359C34.0186 49.6719 32.8858 50.1992 31.378 50.418C32.128 50.8555 32.7452 51.3359 33.2295 51.8594C33.7217 52.3828 34.3819 53.3125 35.21 54.6484L37.3077 58H33.1592L30.6514 54.2617C29.7608 52.9258 29.1514 52.0859 28.8233 51.7422C28.4952 51.3906 28.1475 51.1523 27.7803 51.0273C27.4131 50.8945 26.8311 50.8281 26.0342 50.8281H25.3311V58H21.8623ZM25.3311 48.0859H27.8975C29.5616 48.0859 30.6006 48.0156 31.0147 47.875C31.4287 47.7344 31.753 47.4922 31.9873 47.1484C32.2217 46.8047 32.3389 46.375 32.3389 45.8594C32.3389 45.2812 32.1827 44.8164 31.8702 44.4648C31.5655 44.1055 31.1319 43.8789 30.5694 43.7852C30.2881 43.7461 29.4444 43.7266 28.0381 43.7266H25.3311V48.0859ZM39.4489 58V40.8203H42.9177V58H39.4489ZM46.6292 58V40.8203H50.0042L57.0355 52.293V40.8203H60.2581V58H56.7777L49.8519 46.7969V58H46.6292ZM79.79 58H76.0166L74.5166 54.0977H67.6494L66.2314 58H62.5517L69.2431 40.8203H72.9111L79.79 58ZM73.4033 51.2031L71.0361 44.8281L68.7158 51.2031H73.4033Z" fill="#F8F8F8"/>
</svg>
