<svg width="100" height="100" viewBox="0 0 100 100" fill="none" xmlns="http://www.w3.org/2000/svg">
<rect width="100" height="100" fill="#042672"/>
<path d="M28.545 64.295C26.665 63.605 26.595 63.7567 28.335 64.75L36.3 69.3C36.6234 69.4867 36.5984 69.5717 36.225 69.555C22.965 69.02 13.905 57.48 11.02 45.535C10.95 45.245 11.0634 45.1067 11.36 45.12C20.095 45.46 33.19 47.285 39.475 54.57C39.5006 54.6002 39.5349 54.6217 39.5733 54.6315C39.6116 54.6413 39.652 54.6388 39.6889 54.6245C39.7258 54.6102 39.7573 54.5847 39.779 54.5516C39.8007 54.5186 39.8116 54.4795 39.81 54.44C39.465 44.44 43.26 34.85 49.44 27.11C49.5567 26.9633 49.6734 26.9633 49.79 27.11C54.38 32.8267 57.4134 39.2683 58.89 46.435C59.4851 49.325 59.295 51.85 59.365 54.415C59.3684 54.615 59.4417 54.645 59.585 54.505C66.945 47.405 78.47 45.435 88.06 45.105C88.2434 45.0983 88.3134 45.1833 88.27 45.36C85.275 57.615 76.34 69.005 62.745 69.605C62.7251 69.6077 62.7049 69.6033 62.688 69.5925C62.671 69.5817 62.6584 69.5653 62.6524 69.5461C62.6464 69.527 62.6474 69.5063 62.6552 69.4878C62.663 69.4692 62.6771 69.4541 62.695 69.445L72.775 63.685C72.7964 63.6723 72.8122 63.652 72.8194 63.6283C72.8267 63.6045 72.8248 63.5789 72.8142 63.5564C72.8036 63.534 72.785 63.5163 72.7621 63.5067C72.7391 63.4972 72.7134 63.4966 72.69 63.505L60.15 68.21C60.1312 68.2175 60.1102 68.218 60.091 68.2114C60.0717 68.2048 60.0555 68.1916 60.0452 68.174C60.0349 68.1565 60.0313 68.1358 60.0349 68.1158C60.0386 68.0958 60.0492 68.0778 60.065 68.065L79.505 52C79.5136 51.9926 79.52 51.9831 79.5237 51.9725C79.5275 51.9618 79.5284 51.9504 79.5264 51.9393C79.5243 51.9282 79.5195 51.9178 79.5122 51.9092C79.505 51.9005 79.4956 51.8939 79.485 51.89C79.4417 51.8733 79.3984 51.8583 79.355 51.845C79.3184 51.8317 79.285 51.8367 79.255 51.86L57.11 67.455C57.0964 67.4645 57.0799 67.4692 57.0633 67.4684C57.0466 67.4675 57.0308 67.4611 57.0181 67.4502C57.0055 67.4393 56.9969 67.4245 56.9936 67.4082C56.9903 67.3919 56.9926 67.3749 57 67.36C59.09 63.2533 61.2284 59.1417 63.415 55.025C63.4484 54.9617 63.4534 54.9133 63.43 54.88C63.4067 54.8533 63.3717 54.8283 63.325 54.805C63.2817 54.785 63.245 54.795 63.215 54.835L54.255 66.85C54.0284 67.1567 53.9534 67.1233 54.03 66.75L56.885 52.63C56.9284 52.41 56.8517 52.3517 56.655 52.455C56.455 52.5617 56.3267 52.815 56.27 53.215C56.23 53.5083 56.1717 53.7517 56.095 53.945C54.4117 58.2383 52.7534 62.5317 51.12 66.825C51.1181 66.8383 51.1109 66.8502 51.1001 66.8582C51.0893 66.8661 51.0758 66.8695 51.0625 66.8675C51.0493 66.8655 51.0374 66.8583 51.0294 66.8475C51.0214 66.8368 51.0181 66.8233 51.02 66.81L49.71 36.67C49.7034 36.5167 49.645 36.4933 49.535 36.6C49.4717 36.6667 49.4467 36.7517 49.46 36.855C49.48 36.9783 49.4884 37.055 49.485 37.085C49.05 46.94 48.515 56.98 48.305 66.905C48.3046 66.9224 48.2982 66.939 48.2868 66.9522C48.2755 66.9653 48.2599 66.9741 48.2428 66.977C48.2257 66.98 48.2081 66.9769 48.193 66.9683C48.1779 66.9598 48.1663 66.9462 48.16 66.93L43.15 53.935C42.3934 51.9783 42.225 52.0283 42.645 54.085L45.22 66.71C45.3 67.1067 45.22 67.1433 44.98 66.82L36.33 55.235C36.2567 55.1383 36.185 55.1383 36.115 55.235C36.0484 55.3283 36.035 55.4117 36.075 55.485C38.1684 59.415 40.225 63.365 42.245 67.335C42.3517 67.5483 42.3067 67.5867 42.11 67.45C34.6467 62.2533 27.215 57.0267 19.815 51.77C19.7617 51.73 19.705 51.7217 19.645 51.745C19.555 51.7783 19.5484 51.8267 19.625 51.89L39.05 68C39.0626 68.0122 39.0709 68.0283 39.0734 68.0457C39.076 68.0631 39.0727 68.0808 39.0642 68.0962C39.0557 68.1115 39.0423 68.1237 39.0262 68.1307C39.0101 68.1377 38.9921 68.1392 38.975 68.135L28.545 64.295Z" fill="#FFD140"/>
</svg>
