<svg width="100" height="100" viewBox="0 0 100 100" fill="none" xmlns="http://www.w3.org/2000/svg">
<rect width="100" height="100" fill="white"/>
<path d="M22.32 60.9599L66.57 60.9549C66.5975 60.9551 66.6246 60.9625 66.6483 60.9766C66.6721 60.9907 66.6916 61.0108 66.705 61.0349L70.2249 67.4499C70.238 67.4735 70.2446 67.5 70.2443 67.5269C70.2439 67.5538 70.2366 67.5802 70.223 67.6034C70.2094 67.6266 70.1899 67.6459 70.1666 67.6593C70.1433 67.6727 70.1169 67.6798 70.09 67.6799L15.155 67.7199C15.1139 67.7199 15.0745 67.7036 15.0454 67.6745C15.0163 67.6455 15 67.606 15 67.5649V29.1199C14.9996 29.0928 15.0063 29.0661 15.0195 29.0424C15.0327 29.0187 15.0518 28.9989 15.075 28.9849L48.255 9.02494C48.284 9.00615 48.3184 8.99757 48.3528 9.00059C48.3873 9.00361 48.4197 9.01804 48.445 9.0416C48.4702 9.06516 48.4869 9.09649 48.4924 9.13061C48.4978 9.16473 48.4917 9.1997 48.475 9.22994L42.445 20.4649C42.4316 20.4877 42.4127 20.5066 42.39 20.5199L22.21 33.0799C22.1875 33.0935 22.1688 33.1125 22.1557 33.1353C22.1426 33.158 22.1355 33.1837 22.135 33.2099L22.165 60.8049C22.165 60.8253 22.169 60.8455 22.1768 60.8643C22.1846 60.8831 22.196 60.9002 22.2104 60.9145C22.2248 60.9289 22.2419 60.9404 22.2607 60.9481C22.2795 60.9559 22.2997 60.9599 22.32 60.9599Z" fill="#094284"/>
<path d="M54.2199 19.0099L32.17 58.2449C32.1548 58.2712 32.1329 58.2929 32.1065 58.3079C32.0802 58.3228 32.0503 58.3304 32.02 58.3299H24.585C24.556 58.3291 24.5278 58.3209 24.5029 58.3061C24.4781 58.2913 24.4574 58.2703 24.4429 58.2453C24.4283 58.2203 24.4205 58.1919 24.4199 58.163C24.4194 58.1341 24.4263 58.1055 24.44 58.0799L50.7399 9.97494C50.7611 9.93647 50.7964 9.90769 50.8383 9.89464C50.8803 9.88159 50.9256 9.88528 50.9649 9.90494L85.6549 27.5449C85.683 27.5588 85.7068 27.5801 85.7235 27.6066C85.7403 27.633 85.7494 27.6636 85.7499 27.6949V67.0599C85.7513 67.0975 85.7402 67.1345 85.7184 67.1652C85.6965 67.1958 85.6651 67.2183 85.6291 67.2292C85.5931 67.24 85.5545 67.2386 85.5193 67.2252C85.4842 67.2118 85.4545 67.1871 85.4349 67.1549L78.3999 55.8999C78.3833 55.8729 78.3747 55.8417 78.3749 55.8099V32.4249C78.3754 32.3946 78.3678 32.3647 78.3528 32.3384C78.3379 32.312 78.3162 32.2901 78.2899 32.2749L54.4549 18.9449C54.4353 18.9335 54.4136 18.926 54.391 18.9231C54.3685 18.9201 54.3456 18.9217 54.3237 18.9278C54.3018 18.9338 54.2813 18.9442 54.2635 18.9584C54.2457 18.9725 54.2309 18.99 54.2199 19.0099Z" fill="#094284"/>
<path d="M50.0948 82.1299C50.2348 82.2065 50.3731 82.2015 50.5098 82.1149L72.4048 67.8749C72.5034 67.812 72.574 67.7135 72.6019 67.5999C72.6299 67.4863 72.613 67.3663 72.5548 67.2649L51.2598 30.4349C51.1518 30.2497 51.0949 30.0389 51.0949 29.8237C51.0949 29.6086 51.1518 29.3968 51.2598 29.2099L54.8448 22.9799C54.8691 22.9386 54.9037 22.9043 54.9451 22.8803C54.9865 22.8562 55.0333 22.8433 55.0808 22.8428C55.1283 22.8423 55.1749 22.8542 55.2159 22.8774C55.257 22.9005 55.2911 22.9342 55.3148 22.9749L83.4798 70.7549C83.5158 70.817 83.5266 70.8904 83.5098 70.9596C83.493 71.0287 83.4499 71.088 83.3897 71.1249L50.6298 91.6399C50.5413 91.6957 50.4388 91.7257 50.3337 91.7266C50.2287 91.7275 50.1252 91.6992 50.0348 91.6449L15.5998 70.9649C15.3532 70.8149 15.3732 70.7382 15.6598 70.7349C19.9498 70.6749 24.2315 70.6632 28.5048 70.6999C29.2382 70.7065 29.9282 70.8865 30.5748 71.2399C37.1115 74.8432 43.6181 78.4732 50.0948 82.1299Z" fill="#EF2A23"/>
</svg>
