<svg width="100" height="100" viewBox="0 0 100 100" fill="none" xmlns="http://www.w3.org/2000/svg">
<rect width="100" height="100" fill="white"/>
<g clip-path="url(#clip0_101_122)">
<path d="M52.29 42H54.68C54.8367 42.65 54.8483 43.355 54.715 44.115C54.704 44.1802 54.6713 44.2398 54.6224 44.2842C54.5734 44.3286 54.5109 44.3553 54.445 44.36L52.95 44.47C52.6733 44.49 52.5317 44.64 52.525 44.92L52.49 46.89C52.4833 47.1633 52.6167 47.2917 52.89 47.275L54.13 47.19C54.1735 47.1866 54.2172 47.192 54.2586 47.2059C54.3 47.2197 54.3381 47.2418 54.3708 47.2707C54.4035 47.2997 54.43 47.3349 54.4487 47.3743C54.4675 47.4136 54.4781 47.4564 54.48 47.5L54.55 49.155C54.5527 49.1993 54.5464 49.2438 54.5312 49.2855C54.5161 49.3273 54.4926 49.3655 54.4622 49.3979C54.4317 49.4302 54.395 49.4559 54.3542 49.4735C54.3134 49.4911 54.2694 49.5001 54.225 49.5H52.7C52.6213 49.5 52.5457 49.5315 52.4896 49.5876C52.4335 49.6437 52.4013 49.72 52.4 49.8L52.385 55.95C52.385 56.0296 52.3529 56.1059 52.2957 56.1621C52.2385 56.2184 52.1609 56.25 52.08 56.25H49.875C49.6217 56.25 49.495 56.1233 49.495 55.87L49.51 50.175C49.51 49.725 49.285 49.5 48.835 49.5H48C47.9005 49.5 47.8052 49.4605 47.7348 49.3902C47.6645 49.3198 47.625 49.2245 47.625 49.125V47.565C47.625 47.355 47.7283 47.25 47.935 47.25H49.27C49.3567 47.25 49.4399 47.2154 49.5016 47.1536C49.5633 47.0919 49.5987 47.008 49.6 46.92C49.625 44.675 49.385 42.495 52.29 42Z" fill="black"/>
<path d="M40.315 56.275L37.8 56.24C37.7531 56.2387 37.7086 56.2192 37.6759 56.1856C37.6433 56.152 37.625 56.1069 37.625 56.0601V42.445C37.625 42.3982 37.6433 42.3531 37.6759 42.3195C37.7086 42.2859 37.7531 42.2664 37.8 42.265L40.315 42.23C40.3391 42.2294 40.363 42.2335 40.3854 42.2423C40.4078 42.251 40.4283 42.2642 40.4455 42.281C40.4628 42.2978 40.4765 42.3178 40.4858 42.34C40.4952 42.3622 40.5 42.386 40.5 42.41V50.37C40.5008 50.4063 40.5125 50.4414 40.5336 50.4708C40.5547 50.5003 40.5842 50.5227 40.6182 50.5351C40.6523 50.5475 40.6892 50.5494 40.7243 50.5405C40.7595 50.5315 40.791 50.5122 40.815 50.485L43.495 47.3401C43.5114 47.3217 43.5314 47.3069 43.5538 47.2966C43.5761 47.2862 43.6004 47.2806 43.625 47.2801L46.765 47.205C46.8002 47.2039 46.8351 47.2131 46.8651 47.2316C46.8952 47.25 46.9191 47.2769 46.934 47.3088C46.9489 47.3408 46.9541 47.3764 46.949 47.4113C46.9438 47.4462 46.9285 47.4788 46.905 47.5051L43.57 51.19C43.5417 51.2212 43.5252 51.2612 43.5234 51.3032C43.5216 51.3453 43.5345 51.3866 43.56 51.42L47.045 56.01C47.066 56.0372 47.0788 56.0698 47.0819 56.1039C47.085 56.1381 47.0783 56.1724 47.0625 56.2029C47.0468 56.2334 47.0226 56.2587 46.9929 56.2759C46.9633 56.2931 46.9293 56.3015 46.895 56.3L43.66 56.22C43.6312 56.2193 43.603 56.2116 43.5778 56.1977C43.5525 56.1838 43.531 56.164 43.515 56.14L40.83 52.13C40.8086 52.0978 40.7774 52.0733 40.7409 52.0602C40.7045 52.0471 40.6648 52.0461 40.6278 52.0573C40.5907 52.0685 40.5583 52.0914 40.5353 52.1225C40.5123 52.1536 40.4999 52.1913 40.5 52.23V56.095C40.5 56.1191 40.4952 56.1429 40.4858 56.1651C40.4765 56.1873 40.4628 56.2073 40.4455 56.2241C40.4283 56.2409 40.4078 56.2541 40.3854 56.2628C40.363 56.2716 40.3391 56.2757 40.315 56.275Z" fill="black"/>
<path d="M57.425 45.4C58.328 45.4 59.06 44.668 59.06 43.765C59.06 42.862 58.328 42.13 57.425 42.13C56.5221 42.13 55.79 42.862 55.79 43.765C55.79 44.668 56.5221 45.4 57.425 45.4Z" fill="black"/>
<path d="M72.898 42.2529L70.508 42.2571C70.3892 42.2573 70.2931 42.3537 70.2933 42.4724L70.317 56.0324C70.3172 56.1512 70.4136 56.2473 70.5324 56.247L72.9224 56.2429C73.0411 56.2427 73.1372 56.1462 73.137 56.0275L73.1133 42.4675C73.1131 42.3488 73.0167 42.2527 72.898 42.2529Z" fill="black"/>
<path d="M81.2798 47.755L81.2348 42.57C81.2348 42.3567 81.3414 42.25 81.5548 42.25H83.8298C84.0298 42.25 84.1298 42.35 84.1298 42.55L84.1248 55.985C84.1248 56.1383 84.0464 56.2183 83.8898 56.225L81.9298 56.305C81.7498 56.315 81.6331 56.2333 81.5798 56.06L81.4648 55.69C81.3981 55.4833 81.2781 55.4433 81.1048 55.57C79.9081 56.4433 78.6648 56.7083 77.3748 56.365C71.1298 54.685 74.8998 43.65 81.0448 47.88C81.0674 47.8956 81.0938 47.9046 81.1213 47.9062C81.1487 47.9077 81.176 47.9017 81.2002 47.8888C81.2244 47.876 81.2447 47.8567 81.2587 47.8331C81.2727 47.8095 81.28 47.7825 81.2798 47.755ZM81.5198 51.76C81.5198 51.1593 81.2811 50.5832 80.8564 50.1584C80.4316 49.7336 79.8555 49.495 79.2548 49.495C78.654 49.495 78.0779 49.7336 77.6532 50.1584C77.2284 50.5832 76.9898 51.1593 76.9898 51.76C76.9898 52.3607 77.2284 52.9368 77.6532 53.3616C78.0779 53.7864 78.654 54.025 79.2548 54.025C79.8555 54.025 80.4316 53.7864 80.8564 53.3616C81.2811 52.9368 81.5198 52.3607 81.5198 51.76Z" fill="black"/>
<path d="M7.72 43.0749C10.905 43.1349 16.725 42.0849 17.62 46.1949C18.02 48.0499 17.275 49.9349 15.395 50.5599C15.3321 50.5812 15.2747 50.6164 15.2272 50.6627C15.1797 50.709 15.1433 50.7653 15.1207 50.8273C15.098 50.8894 15.0898 50.9556 15.0967 51.021C15.1035 51.0864 15.1251 51.1493 15.16 51.2049L18.09 55.9899C18.1099 56.0231 18.1207 56.0611 18.1213 56.0998C18.1218 56.1386 18.1121 56.1766 18.0932 56.2099C18.0742 56.2432 18.0467 56.2706 18.0136 56.2891C17.9804 56.3076 17.9429 56.3165 17.905 56.3149L14.845 56.2249C14.715 56.2183 14.62 56.1583 14.56 56.0449L12 51.2549C11.9175 51.0965 11.784 50.9706 11.6211 50.8973C11.4582 50.824 11.2754 50.8077 11.1021 50.851C10.9289 50.8944 10.7752 50.9948 10.666 51.1361C10.5568 51.2774 10.4983 51.4513 10.5 51.6299V55.9399C10.5 56.1466 10.395 56.2499 10.185 56.2499H7.75C7.58333 56.2499 7.5 56.1666 7.5 55.9999V43.2849C7.49998 43.2569 7.50569 43.2292 7.51679 43.2034C7.5279 43.1776 7.54419 43.1542 7.56468 43.1347C7.58518 43.1151 7.60948 43.0997 7.63616 43.0895C7.66283 43.0792 7.69134 43.0743 7.72 43.0749ZM10.5 45.8249V48.3049C10.5 48.3558 10.5198 48.4047 10.5553 48.4411C10.5908 48.4775 10.6392 48.4986 10.69 48.4999L12.99 48.5049C13.2047 48.5056 13.4175 48.4712 13.6161 48.4037C13.8147 48.3362 13.9953 48.237 14.1476 48.1116C14.2999 47.9863 14.4209 47.8373 14.5036 47.6731C14.5864 47.509 14.6294 47.3329 14.63 47.1549V46.9949C14.6313 46.6356 14.4603 46.2904 14.1546 46.0354C13.849 45.7803 13.4336 45.6363 13 45.6349L10.7 45.6299C10.674 45.6293 10.6481 45.6338 10.6238 45.6433C10.5996 45.6528 10.5775 45.6671 10.5589 45.6853C10.5402 45.7034 10.5254 45.7252 10.5153 45.7491C10.5052 45.7731 10.5 45.7989 10.5 45.8249Z" fill="black"/>
<path d="M27.9052 51.782C27.9019 52.4091 27.7653 53.0293 27.5032 53.6072C27.2411 54.1852 26.8587 54.7096 26.3776 55.1505C25.8966 55.5914 25.3265 55.9401 24.6998 56.1768C24.0732 56.4135 23.4022 56.5335 22.7252 56.53C22.0483 56.5264 21.3786 56.3994 20.7544 56.1562C20.1302 55.9129 19.5638 55.5582 19.0874 55.1123C18.6111 54.6664 18.2341 54.138 17.9781 53.5574C17.7221 52.9767 17.592 52.3551 17.5953 51.728C17.5986 51.101 17.7351 50.4807 17.9972 49.9028C18.2593 49.3248 18.6418 48.8004 19.1228 48.3595C19.6038 47.9186 20.1739 47.5699 20.8006 47.3332C21.4273 47.0965 22.0983 46.9765 22.7752 46.9801C23.4522 46.9836 24.1219 47.1106 24.746 47.3539C25.3702 47.5971 25.9367 47.9518 26.413 48.3977C26.8894 48.8436 27.2663 49.372 27.5224 49.9527C27.7784 50.5333 27.9085 51.1549 27.9052 51.782ZM25.0152 51.765C25.0152 51.1643 24.7766 50.5882 24.3518 50.1634C23.9271 49.7386 23.3509 49.5 22.7502 49.5C22.1495 49.5 21.5734 49.7386 21.1486 50.1634C20.7239 50.5882 20.4852 51.1643 20.4852 51.765C20.4852 52.3657 20.7239 52.9418 21.1486 53.3666C21.5734 53.7914 22.1495 54.03 22.7502 54.03C23.3509 54.03 23.9271 53.7914 24.3518 53.3666C24.7766 52.9418 25.0152 52.3657 25.0152 51.765Z" fill="black"/>
<path d="M32.4148 49.785C30.0798 51.45 32.1098 55.365 34.8598 53.55C35.0131 53.45 35.1531 53.465 35.2798 53.595L36.7198 55.03C36.7526 55.0637 36.7777 55.1041 36.7937 55.1483C36.8096 55.1926 36.8158 55.2397 36.8121 55.2866C36.8083 55.3335 36.7945 55.379 36.7717 55.4201C36.7489 55.4612 36.7175 55.497 36.6798 55.525C34.5448 57.11 31.1698 56.705 29.5698 54.7C25.7798 49.95 32.1598 44.835 36.7398 48.025C36.9064 48.1384 36.9181 48.2667 36.7748 48.41L35.2248 49.965C35.1732 50.0164 35.1047 50.0473 35.032 50.0519C34.9593 50.0565 34.8874 50.0345 34.8298 49.99C33.9631 49.3234 33.1581 49.255 32.4148 49.785Z" fill="black"/>
<path d="M63.0348 52.625C62.9876 52.6262 62.9416 52.64 62.9015 52.6649C62.8615 52.6899 62.8288 52.725 62.8069 52.7668C62.7849 52.8086 62.7746 52.8555 62.7769 52.9027C62.7791 52.9498 62.794 52.9955 62.8198 53.035C63.9065 54.6417 65.2048 54.8 66.7148 53.51C66.8515 53.3933 66.9948 53.385 67.1448 53.485L68.7198 54.545C68.8931 54.6617 68.9048 54.7933 68.7548 54.94C66.0248 57.62 61.0748 56.735 60.0248 52.98C58.1348 46.245 70.2148 44.22 69.2898 52.375C69.2698 52.5417 69.1765 52.625 69.0098 52.625H63.0348ZM62.8698 50.765L66.3798 50.735C66.3903 50.735 66.4007 50.7329 66.4104 50.7289C66.4201 50.7249 66.4289 50.719 66.4364 50.7116C66.4438 50.7041 66.4497 50.6953 66.4537 50.6856C66.4577 50.6759 66.4598 50.6655 66.4598 50.655V50.61C66.4564 50.2112 66.2682 49.8304 65.9363 49.551C65.6044 49.2716 65.1561 49.1166 64.6898 49.12H64.5398C64.3084 49.1217 64.0796 49.1623 63.8664 49.2396C63.6532 49.3169 63.4598 49.4294 63.2972 49.5706C63.1347 49.7118 63.0062 49.8789 62.9191 50.0624C62.8321 50.2459 62.7881 50.4422 62.7898 50.64V50.685C62.7898 50.7062 62.7982 50.7266 62.8132 50.7416C62.8282 50.7566 62.8486 50.765 62.8698 50.765Z" fill="black"/>
<path d="M89.7952 53.2C88.5602 52.815 86.3302 52.63 85.6602 51.305C84.7402 49.475 85.9702 47.67 87.8402 47.19C89.5235 46.7566 91.0585 47.025 92.4452 47.995C92.4804 48.0193 92.5097 48.0514 92.5309 48.0886C92.5521 48.1259 92.5646 48.1675 92.5675 48.2102C92.5703 48.253 92.5635 48.2959 92.5476 48.3356C92.5316 48.3754 92.5068 48.4111 92.4752 48.44L91.0652 49.71C91.0111 49.7585 90.9412 49.7857 90.8686 49.7867C90.796 49.7876 90.7254 49.7621 90.6702 49.715C90.0502 49.1916 89.3385 49.08 88.5352 49.38C88.418 49.4253 88.3192 49.5081 88.2539 49.6155C88.1887 49.7228 88.1608 49.8487 88.1745 49.9736C88.1881 50.0984 88.2427 50.2153 88.3296 50.306C88.4165 50.3966 88.531 50.456 88.6552 50.475C90.1302 50.685 92.1302 51.045 92.7802 52.49C93.3552 53.775 92.8102 55.22 91.5152 55.86C89.5352 56.8366 87.4735 56.73 85.3302 55.54C85.2941 55.5204 85.2629 55.4928 85.2391 55.4594C85.2153 55.426 85.1994 55.3876 85.1926 55.3471C85.1859 55.3066 85.1885 55.2651 85.2002 55.2257C85.2119 55.1864 85.2324 55.1502 85.2602 55.12L86.6802 53.555C86.7024 53.5295 86.7297 53.5089 86.7603 53.4944C86.7909 53.48 86.8242 53.4721 86.858 53.4711C86.8918 53.4702 86.9254 53.4763 86.9568 53.489C86.9882 53.5017 87.0165 53.5208 87.0402 53.545C87.8202 54.3216 88.7402 54.5383 89.8002 54.195C89.9067 54.162 89.9998 54.0957 90.0657 54.0057C90.1316 53.9158 90.1669 53.8071 90.1664 53.6956C90.1658 53.5841 90.1294 53.4758 90.0626 53.3865C89.9958 53.2973 89.902 53.2319 89.7952 53.2Z" fill="black"/>
<path d="M58.58 47.25H56.3C56.1343 47.25 56 47.3843 56 47.55V55.95C56 56.1157 56.1343 56.25 56.3 56.25H58.58C58.7457 56.25 58.88 56.1157 58.88 55.95V47.55C58.88 47.3843 58.7457 47.25 58.58 47.25Z" fill="black"/>
</g>
<defs>
<clipPath id="clip0_101_122">
<rect width="86.5" height="15" fill="white" transform="translate(7 42)"/>
</clipPath>
</defs>
</svg>
