<svg width="100" height="100" viewBox="0 0 100 100" fill="none" xmlns="http://www.w3.org/2000/svg">
<rect width="100" height="100" fill="#EF492F"/>
<path d="M62.8972 34H58.3972C58.1045 34 57.8672 34.2373 57.8672 34.53V65.17C57.8672 65.4627 58.1045 65.7 58.3972 65.7H62.8972C63.1899 65.7 63.4272 65.4627 63.4272 65.17V34.53C63.4272 34.2373 63.1899 34 62.8972 34Z" fill="white"/>
<path d="M16.587 51.48C16.627 45.38 8.98696 47.69 5.71696 49.44C5.32362 49.6533 5.12696 49.5366 5.12696 49.09V45.6C5.12723 45.4373 5.17477 45.2786 5.26366 45.1435C5.35256 45.0083 5.4789 44.9028 5.62696 44.84C10.237 42.95 18.517 42.14 21.027 47.56C22.737 51.25 21.927 60.16 22.117 64.67C22.137 65.0233 21.967 65.2 21.607 65.2H17.807C17.4203 65.2 17.207 65.01 17.167 64.63L17.027 63.19C16.9736 62.65 16.7536 62.57 16.367 62.95C4.85696 74.24 -6.67304 50 16.017 52C16.3903 52.0333 16.5803 51.86 16.587 51.48Z" fill="white"/>
<path d="M27.717 57.08C29.597 62.93 35.867 62.12 40.227 59.79C40.7003 59.5366 40.927 59.68 40.907 60.22L40.777 63.61C40.757 64.0433 40.5436 64.3366 40.137 64.49C17.917 72.7 16.317 40.22 35.587 43.76C40.807 44.72 42.437 51.16 42.477 55.58C42.477 55.6977 42.4539 55.8142 42.409 55.9229C42.3642 56.0315 42.2984 56.1301 42.2157 56.2129C42.1329 56.2956 42.0347 56.361 41.9268 56.4051C41.8189 56.4493 41.7034 56.4713 41.587 56.47L28.207 56.41C28.1258 56.4091 28.0456 56.4275 27.973 56.4639C27.9004 56.5002 27.8375 56.5533 27.7896 56.6189C27.7416 56.6844 27.71 56.7604 27.6974 56.8406C27.6848 56.9208 27.6915 57.0029 27.717 57.08Z" fill="white"/>
<path d="M43.4071 60.49C46.0471 61.13 49.3671 62.61 51.4771 60.25C51.6805 60.0214 51.826 59.7473 51.9013 59.4508C51.9767 59.1542 51.9797 58.8439 51.9101 58.5459C51.8405 58.248 51.7004 57.9711 51.5015 57.7386C51.3025 57.5061 51.0507 57.3248 50.7671 57.21C46.7971 55.59 40.9171 54.73 42.5171 48.54C44.0471 42.66 51.2671 42.89 56.0771 44.05C56.4371 44.1367 56.6171 44.3633 56.6171 44.73V47.71C56.6171 48.09 56.4304 48.25 56.0571 48.19C53.5771 47.79 50.8471 46.54 48.6771 48.47C48.469 48.653 48.3107 48.8858 48.2169 49.1466C48.1232 49.4075 48.0971 49.6878 48.141 49.9614C48.1849 50.235 48.2975 50.4931 48.4682 50.7114C48.6389 50.9298 48.8621 51.1013 49.1171 51.21C52.3871 52.63 56.7371 52.97 57.5171 57.44C59.0771 66.38 48.3571 66.6 42.8171 64.83C42.5237 64.73 42.3937 64.5267 42.4271 64.22L42.7671 60.94C42.7749 60.8663 42.7985 60.7952 42.8361 60.7314C42.8736 60.6675 42.9244 60.6125 42.985 60.5699C43.0456 60.5273 43.1146 60.4981 43.1874 60.4843C43.2602 60.4705 43.3351 60.4725 43.4071 60.49Z" fill="white"/>
<path d="M69.6772 56.85C70.5072 62.96 77.8772 62.02 81.8972 59.77C82.3772 59.5033 82.6172 59.6433 82.6172 60.19V63.69C82.617 63.835 82.5743 63.9767 82.4943 64.0976C82.4143 64.2185 82.3006 64.3132 82.1672 64.37C75.2072 67.37 66.1472 65.89 64.3072 57.48C60.5772 40.48 85.3972 37.61 84.0072 55.66C83.987 55.8835 83.8841 56.0912 83.7191 56.2414C83.5541 56.3916 83.3391 56.4732 83.1172 56.47L70.0772 56.4C69.7705 56.4 69.6372 56.55 69.6772 56.85Z" fill="white"/>
<path d="M90.1074 47.57C91.2741 44.8966 93.3441 43.55 96.3174 43.53C96.4199 43.5287 96.5215 43.5478 96.6167 43.5863C96.7118 43.6248 96.7985 43.6819 96.8719 43.7543C96.9452 43.8267 97.0038 43.9131 97.0442 44.0084C97.0846 44.1038 97.1061 44.2062 97.1074 44.31L97.1274 48.16C97.1274 48.5733 96.9208 48.7633 96.5074 48.73C88.0574 48.04 90.3574 60.17 90.3674 65.19C90.3674 65.53 90.1974 65.7 89.8574 65.7H85.5074C85.3474 65.6999 85.1937 65.636 85.0796 65.5219C84.9655 65.4077 84.9001 65.2526 84.8974 65.09L84.6974 44.54C84.6908 44.1466 84.8841 43.95 85.2774 43.95H88.9474C89.1198 43.95 89.2851 44.0174 89.407 44.1374C89.5289 44.2574 89.5974 44.4202 89.5974 44.59L89.6274 47.47C89.627 47.5278 89.6465 47.5839 89.6828 47.6289C89.7191 47.6739 89.7698 47.705 89.8264 47.7168C89.883 47.7285 89.9419 47.7204 89.9932 47.6936C90.0444 47.6668 90.0848 47.6231 90.1074 47.57Z" fill="white"/>
<path d="M27.9274 52.46C27.8823 52.46 27.839 52.442 27.8072 52.4102C27.7753 52.3783 27.7574 52.335 27.7574 52.29V52.22C27.7547 51.608 27.8721 51.0015 28.1029 50.4351C28.3336 49.8687 28.6732 49.3535 29.1022 48.9189C29.5312 48.4844 30.0413 48.1389 30.6032 47.9023C31.1652 47.6657 31.768 47.5426 32.3774 47.54H32.3974C33.628 47.5347 34.8103 48.0206 35.6842 48.8907C36.5581 49.7609 37.052 50.9441 37.0574 52.18V52.25C37.0574 52.2951 37.0395 52.3383 37.0076 52.3702C36.9757 52.4021 36.9325 52.42 36.8874 52.42L27.9274 52.46Z" fill="#EF492F"/>
<path d="M69.7972 52.4599C69.7495 52.4599 69.7037 52.441 69.6699 52.4072C69.6362 52.3734 69.6172 52.3277 69.6172 52.2799V52.1899C69.6159 51.5968 69.7279 51.0092 69.9469 50.4608C70.1659 49.9125 70.4876 49.4141 70.8935 48.9942C71.2995 48.5744 71.7817 48.2413 72.3125 48.014C72.8434 47.7868 73.4125 47.6699 73.9872 47.6699H74.4072C75.5644 47.6701 76.6744 48.1439 77.4937 48.9875C78.3129 49.8311 78.7745 50.9756 78.7772 52.1699V52.2599C78.7772 52.3077 78.7582 52.3534 78.7245 52.3872C78.6907 52.421 78.6449 52.4399 78.5972 52.4399L69.7972 52.4599Z" fill="#EF492F"/>
<path d="M10.207 61.5399C9.85935 61.5032 9.52808 61.3733 9.24819 61.1638C8.96831 60.9543 8.75023 60.6731 8.61701 60.3499C6.61701 55.5499 13.617 55.0999 16.297 55.5199C16.617 55.5666 16.7637 55.7499 16.737 56.0699C16.3637 60.1299 14.187 61.9532 10.207 61.5399Z" fill="#EF492F"/>
</svg>
