<svg width="100" height="100" viewBox="0 0 100 100" fill="none" xmlns="http://www.w3.org/2000/svg">
<g clip-path="url(#clip0_101_125)">
<rect width="100" height="100" fill="#032A77"/>
<rect x="-8" y="50" width="116" height="50" fill="white"/>
<path d="M79.0237 42.3734C83.3237 67.2434 66.4637 80.5434 43.2937 79.9734C38.1237 79.8434 35.2837 76.5534 33.3737 72.0934C33.3228 71.979 33.3026 71.8532 33.3152 71.7286C33.3277 71.604 33.3725 71.4848 33.4453 71.3828C33.518 71.2808 33.616 71.1995 33.7297 71.147C33.8435 71.0945 33.9689 71.0726 34.0937 71.0834C44.9337 72.0134 60.0737 71.5134 67.4637 61.8534C74.6037 52.5034 71.3337 35.3234 60.1537 30.5134C47.3937 25.0134 31.1337 30.6434 30.2237 46.2034C29.4337 59.7234 43.2837 61.9134 52.9237 58.0834C68.6537 51.8434 57.6637 31.6434 45.3637 40.5634C35.3037 47.8634 51.6637 55.3234 48.2437 42.6634C48.1978 42.4994 48.2104 42.3239 48.2794 42.1658C48.3485 42.0077 48.4699 41.8764 48.6237 41.7934C52.6237 39.6534 56.6237 41.2934 57.7737 45.7434C61.9037 61.6534 27.7837 62.4034 33.5137 42.4034C37.6237 28.0534 60.4937 27.3534 66.2337 40.9334C70.1237 50.1534 65.4837 60.3634 56.8637 64.3834C50.5237 67.3434 39.3937 68.3034 32.5037 65.9234C22.2437 62.3834 19.8837 51.9634 21.4337 42.2134C25.6837 25.9334 39.3837 17.8734 56.1037 20.4834C68.3937 22.4034 76.6637 29.6534 79.0237 42.3734Z" fill="#F0B00A"/>
</g>
<defs>
<clipPath id="clip0_101_125">
<rect width="100" height="100" fill="white"/>
</clipPath>
</defs>
</svg>
