<svg width="100" height="100" viewBox="0 0 100 100" fill="none" xmlns="http://www.w3.org/2000/svg">
<rect width="100" height="100" fill="#C0ECFF"/>
<path fill-rule="evenodd" clip-rule="evenodd" d="M55.9627 34.4436C55.3592 34.7694 54.8726 35.1703 54.3826 35.574C54.0194 35.8732 53.6545 36.1738 53.2386 36.4467C52.6713 36.8195 52.1717 37.2295 51.6401 37.6658L51.64 37.6658C51.1582 38.0612 50.65 38.4782 50.0414 38.9086C49.6127 39.2131 49.0194 39.6869 48.2616 40.33C47.6747 40.8287 47.0079 41.2849 46.377 41.7165L46.3769 41.7165C45.9532 42.0064 45.5456 42.2852 45.1893 42.5584C42.1129 44.9152 39.1574 46.9962 36.3228 48.8013C36.2193 48.8672 36.1083 48.9034 35.9897 48.9097C36.1084 48.9034 36.2194 48.8673 36.3229 48.8013C39.1576 46.9962 42.1131 44.9152 45.1894 42.5585C45.5458 42.2853 45.9533 42.0064 46.3771 41.7166L46.3771 41.7165L46.3771 41.7165C47.008 41.2849 47.6748 40.8287 48.2617 40.3301C49.0195 39.6869 49.6128 39.2131 50.0416 38.9086C50.6502 38.4782 51.1583 38.0612 51.6402 37.6658L51.6402 37.6658C52.1718 37.2295 52.6715 36.8195 53.2388 36.4467C53.6546 36.1739 54.0196 35.8732 54.3827 35.574C54.8727 35.1703 55.3593 34.7695 55.9628 34.4436L55.9649 37.606C55.9649 37.6192 55.9675 37.6322 55.9725 37.6444C55.9776 37.6566 55.985 37.6676 55.9943 37.6769C56.0036 37.6863 56.0147 37.6937 56.0268 37.6987C56.039 37.7037 56.0521 37.7063 56.0653 37.7063L63.3512 37.7243C63.4141 37.7227 63.4781 37.7228 63.5432 37.7247C64.2791 37.7234 64.6505 38.0832 64.6574 38.8041C64.6888 42.3133 64.6847 45.7515 64.6451 49.1187C64.6429 49.3411 64.5531 49.5537 64.395 49.7101C64.237 49.8666 64.0236 49.9544 63.8012 49.9544L56.0694 49.9585C56.0011 49.9585 55.967 49.9919 55.967 50.0588V57.7477C55.967 57.9628 55.8815 58.1691 55.7294 58.3212C55.5773 58.4733 55.371 58.5588 55.1559 58.5588C51.8174 58.5601 48.4584 58.5601 45.0789 58.5588C44.3067 58.5588 43.852 58.3908 43.8479 57.547C43.8343 54.7423 43.8302 52.9283 43.8356 52.105C43.8363 52.1028 43.8369 52.1007 43.8376 52.0986C43.8369 52.1007 43.8362 52.1028 43.8356 52.105L43.8295 50.0527C43.8295 50.0234 43.8176 49.9953 43.7965 49.9745C43.7753 49.9538 43.7467 49.9421 43.7168 49.9421C39.6191 49.979 37.0118 49.9729 35.8948 49.9237C35.4592 49.906 35.2217 49.6431 35.1821 49.1352C35.305 49.1529 35.419 49.1406 35.5241 49.0983C35.5746 49.0792 35.5972 49.0423 35.5917 48.9877C35.589 48.9672 35.5876 48.9488 35.5876 48.9324C35.5886 48.8831 35.6066 48.8581 35.6416 48.8575C35.6066 48.858 35.5885 48.883 35.5875 48.9324C35.5875 48.9488 35.5888 48.9672 35.5916 48.9877C35.597 49.0423 35.5745 49.0792 35.524 49.0983C35.4188 49.1406 35.3048 49.1529 35.1819 49.1351C35.1737 45.6546 35.1737 42.1734 35.1819 38.6915C35.1839 37.6723 36.2099 37.6949 36.8811 37.7096L36.9188 37.7104C39.1882 37.7582 41.4582 37.7555 43.729 37.7022C43.7972 37.6995 43.8314 37.664 43.8314 37.5957C43.8341 35.2157 43.83 32.833 43.8191 30.4476C43.8163 30.0721 43.8785 29.7082 44.0055 29.3559C44.017 29.3232 44.0354 29.2932 44.0594 29.2682C44.0834 29.2431 44.1125 29.2234 44.1447 29.2105C44.381 29.1163 44.6691 29.0692 45.0091 29.0692C48.3203 29.0623 51.6315 29.0583 54.9427 29.0569C55.5913 29.0569 55.9211 29.3491 55.932 29.9335C55.9593 31.4792 55.9695 32.9825 55.9627 34.4436ZM49.8633 48.0636C49.8663 48.0543 49.869 48.0448 49.8716 48.0353C49.8729 48.0306 49.8742 48.0259 49.8757 48.0214C49.8742 48.026 49.8728 48.0306 49.8716 48.0353C49.869 48.0448 49.8663 48.0543 49.8633 48.0636ZM49.9986 47.855C49.9986 47.855 49.9986 47.855 49.9986 47.855L51.7047 46.6835C51.7047 46.6835 51.7047 46.6835 51.7047 46.6835M51.8562 46.2063C51.8586 46.1966 51.8614 46.1871 51.8647 46.178C51.8614 46.1871 51.8587 46.1965 51.8563 46.2062M62.1696 38.2838C62.1845 38.2467 62.1801 38.2092 62.1565 38.1712C62.1404 38.1443 62.1365 38.1166 62.145 38.088C62.1365 38.1166 62.1404 38.1444 62.1565 38.1713C62.1801 38.2092 62.1844 38.2467 62.1696 38.2838Z" fill="url(#paint0_linear_101_126)"/>
<path fill-rule="evenodd" clip-rule="evenodd" d="M84.9918 50.661L85.2252 50.9826C85.9503 32.3339 72.885 15.4693 54.1073 13.0074C53.9148 12.9828 53.9018 13.0197 54.0684 13.118C60.7598 17.0587 67.7891 22.7014 70.888 29.9376C75.4022 40.4836 70.4722 51.6503 64.1311 60.1604C62.5007 62.3458 60.3993 64.4964 58.4085 66.3254C55.7623 68.7573 52.8395 71.1701 49.6403 73.5637C45.2551 76.8264 40.4112 80.1629 36.1367 82.8112C35.91 82.9518 35.7912 83.1191 35.7803 83.313C41.9098 85.9565 48.3192 86.7758 55.0085 85.7708C72.2295 83.0303 84.5062 68.1032 85.2251 50.9826L84.9916 50.661C84.967 50.6266 84.9404 50.6111 84.9118 50.6146C84.9404 50.611 84.9671 50.6265 84.9918 50.661Z" fill="url(#paint1_linear_101_126)"/>
<path fill-rule="evenodd" clip-rule="evenodd" d="M27.0875 43.6645C26.854 43.6686 26.7093 43.728 26.6533 43.8426C26.6301 43.8904 26.5973 43.93 26.555 43.9614C26.3993 44.0734 26.2655 44.2072 26.1535 44.3629C24.8564 46.1694 23.5052 47.9342 22.1002 49.6574C22.079 49.6821 22.0812 49.6962 22.1066 49.6996C22.0815 49.6961 22.0795 49.682 22.1006 49.6575C23.5056 47.9343 24.8567 46.1694 26.1539 44.3629C26.2659 44.2073 26.3997 44.0735 26.5554 43.9615C26.5977 43.9301 26.6305 43.8905 26.6537 43.8427C26.7097 43.728 26.8544 43.6686 27.0879 43.6645C28.4663 49.8336 31.7331 55.7487 35.512 60.7668L35.5119 60.7668C35.7628 61.0491 36.0128 61.342 36.262 61.6341C36.6782 62.1218 37.0923 62.607 37.5048 63.0361C41.1819 66.858 45.2271 70.3672 49.6402 73.5638C45.2551 76.8265 40.4111 80.163 36.1366 82.8113C35.9099 82.9519 35.7911 83.1192 35.7802 83.3131C31.0571 81.2267 26.956 78.2623 23.4768 74.4199C23.4769 74.4199 23.4769 74.4199 23.4769 74.4199C19.1157 69.5493 16.2298 63.8868 14.8193 57.4323C14.9777 57.4064 15.0788 57.3231 15.1224 57.1825C15.1322 57.1528 15.1477 57.1254 15.1682 57.1022C15.1886 57.0789 15.2135 57.0602 15.2412 57.0473L15.9561 56.7216C16.0312 56.6875 16.0557 56.6315 16.0298 56.5537C15.9888 56.4226 16.0257 56.3564 16.1404 56.355C16.2182 56.355 16.2838 56.3263 16.337 56.269C18.4931 54.0242 20.2326 52.09 21.5558 50.4665C21.8493 50.1074 22.0644 49.8732 22.2009 49.764C22.2069 49.7596 22.2112 49.7534 22.2133 49.7463C22.2153 49.7393 22.2149 49.7317 22.2122 49.7246C22.2094 49.7176 22.2045 49.7115 22.1981 49.7071C22.1928 49.7036 22.1867 49.7014 22.1805 49.7007C22.1866 49.7014 22.1925 49.7036 22.1977 49.7071C22.2041 49.7114 22.2091 49.7175 22.2118 49.7246C22.2145 49.7316 22.2149 49.7392 22.2129 49.7463C22.2109 49.7533 22.2065 49.7595 22.2006 49.7639C22.064 49.8732 21.849 50.1073 21.5554 50.4664C20.2323 52.09 18.4927 54.0241 16.3366 56.2689C16.2834 56.3263 16.2178 56.3549 16.14 56.3549C16.0253 56.3563 15.9884 56.4225 16.0294 56.5536C16.0554 56.6314 16.0308 56.6874 15.9557 56.7216L15.2409 57.0472C15.2131 57.0602 15.1882 57.0789 15.1678 57.1021C15.1474 57.1254 15.1318 57.1527 15.1221 57.1824C15.0784 57.323 14.9773 57.4063 14.8189 57.4323C10.4891 36.8707 23.7244 15.711 45.1647 13.0094C45.2985 12.9917 45.3074 13.0176 45.1913 13.0873C34.2131 19.6025 24.0378 29.4563 27.0875 43.6645ZM23.6391 74.4076C23.8048 74.4415 23.9807 74.6135 24.1671 74.9237C24.1747 74.9363 24.1868 74.9455 24.2009 74.9497C24.2067 74.9514 24.2126 74.9522 24.2185 74.9521C24.2126 74.9521 24.2068 74.9513 24.201 74.9497C24.1869 74.9455 24.1749 74.9363 24.1672 74.9237C23.9808 74.6134 23.8048 74.4414 23.6391 74.4076ZM35.4066 61.0066C35.4096 61.0065 35.4126 61.0064 35.4156 61.0064C35.4157 61.0064 35.4157 61.0064 35.4158 61.0064C35.4205 61.0062 35.4251 61.0049 35.4292 61.0025C35.4333 61.0001 35.4367 60.9967 35.439 60.9927C35.4413 60.9887 35.4425 60.9843 35.4423 60.9799C35.4422 60.9754 35.4407 60.9711 35.4382 60.9675L35.3931 60.8897C35.3914 60.8871 35.39 60.8843 35.3889 60.8814C35.3877 60.8783 35.3869 60.8751 35.3864 60.8718C35.3854 60.8654 35.3858 60.8588 35.3875 60.8525C35.3893 60.8462 35.3923 60.8402 35.3964 60.835C35.4005 60.8297 35.4057 60.8253 35.4115 60.8221L35.4117 60.8221" fill="url(#paint2_linear_101_126)"/>
<defs>
<linearGradient id="paint0_linear_101_126" x1="44.9236" y1="34.0675" x2="52.711" y2="56.3138" gradientUnits="userSpaceOnUse">
<stop stop-color="#179ACD"/>
<stop offset="0.812136" stop-color="#0758B4"/>
</linearGradient>
<linearGradient id="paint1_linear_101_126" x1="52.1268" y1="25.4296" x2="77.4217" y2="74.2785" gradientUnits="userSpaceOnUse">
<stop stop-color="#179ACD"/>
<stop offset="0.983481" stop-color="#065DB8"/>
</linearGradient>
<linearGradient id="paint2_linear_101_126" x1="25.7758" y1="24.945" x2="55.82" y2="70.0874" gradientUnits="userSpaceOnUse">
<stop stop-color="#179ACD"/>
<stop offset="0.788746" stop-color="#0948AB"/>
</linearGradient>
</defs>
</svg>
