<svg width="100" height="100" viewBox="0 0 100 100" fill="none" xmlns="http://www.w3.org/2000/svg">
<rect width="100" height="100" fill="white"/>
<path fill-rule="evenodd" clip-rule="evenodd" d="M15 26H42.5625V26.0519L42.5924 26L48.9824 37.0676L42 49.1614L49.7344 62.5577H65.2031L72.9375 49.1614L65.9551 37.0676L72.0638 26.4871L85.3125 49.4345L71.25 73.7915H43.125L29.0625 49.4345L36.0972 37.25H26.25L26.25 73.8125H15V37.25V33.875V26Z" fill="black"/>
<path d="M65.6964 44.4821C63.5848 39.7924 61.4043 36.4124 57.5067 31.0625C56.8398 32.0108 56.2119 32.8855 55.6184 33.7126C52.6614 37.8335 50.5556 40.7685 48.7132 45.6875H48.7157C48.3737 46.6552 48.1875 47.6965 48.1875 48.7812C48.1875 53.9071 52.3428 58.0625 57.4688 58.0625C62.5947 58.0625 66.75 53.9071 66.75 48.7812C66.75 47.6965 66.5638 46.6552 66.2218 45.6875H66.2254C66.2185 45.6712 66.2114 45.6548 66.2045 45.6385C66.0609 45.2397 65.8909 44.8535 65.6964 44.4821Z" fill="#F6020D"/>
</svg>
