<svg width="100" height="100" viewBox="0 0 100 100" fill="none" xmlns="http://www.w3.org/2000/svg">
<rect width="100" height="100" fill="#324458"/>
<path d="M39.6649 21.756L79.7148 61.7666C79.7576 61.8095 79.7916 61.8603 79.8147 61.9163C79.8379 61.9723 79.8498 62.0323 79.8498 62.0929L79.9398 79.6766C79.9435 79.8566 79.8798 79.8828 79.7485 79.7553L20.9224 21.2385C20.8928 21.2102 20.8725 21.1735 20.8641 21.1334C20.8558 21.0933 20.8598 21.0516 20.8756 21.0138C20.8915 20.9761 20.9184 20.944 20.9529 20.9218C20.9873 20.8997 21.0277 20.8885 21.0687 20.8897L38.0055 21.0585C38.6295 21.0658 39.2251 21.3161 39.6649 21.756Z" fill="#3373BA"/>
<path d="M79.6306 60.1016L41.2063 21.7672C41.0825 21.6435 40.9944 21.501 40.9419 21.3397L40.8856 21.1766C40.8756 21.1482 40.8726 21.1178 40.8769 21.088C40.8813 21.0582 40.8928 21.0298 40.9105 21.0055C40.9282 20.9811 40.9516 20.9614 40.9786 20.9481C41.0057 20.9348 41.0355 20.9283 41.0656 20.9291C46.5219 21.0566 51.9594 21.036 57.3781 20.8672C58.745 20.8279 59.8306 21.0528 60.8543 22.1103C67.0006 28.4666 73.1843 34.6541 79.4056 40.6728C79.5995 40.8615 79.7537 41.0871 79.859 41.3364C79.9643 41.5857 80.0186 41.8535 80.0187 42.1241V59.9441C80.0192 59.9893 80.0061 60.0336 79.981 60.0712C79.956 60.1089 79.9202 60.1381 79.8783 60.1551C79.8364 60.1721 79.7904 60.1761 79.7462 60.1666C79.702 60.157 79.6617 60.1344 79.6306 60.1016Z" fill="#4EA8DC"/>
<path d="M61.4846 20.8841L79.8052 20.8335C79.8604 20.8335 79.9133 20.8554 79.9523 20.8945C79.9914 20.9335 80.0133 20.9864 80.0133 21.0416L79.9627 39.3622C79.9635 39.4043 79.9515 39.4456 79.9283 39.4808C79.9052 39.5159 79.8719 39.5432 79.8329 39.559C79.7939 39.5749 79.751 39.5785 79.7099 39.5695C79.6688 39.5605 79.6314 39.5392 79.6027 39.5085L61.3383 21.2441C61.3076 21.2154 61.2863 21.178 61.2773 21.1368C61.2683 21.0957 61.2719 21.0529 61.2878 21.0139C61.3036 20.9749 61.3309 20.9416 61.366 20.9184C61.4012 20.8953 61.4425 20.8833 61.4846 20.8841Z" fill="#2EBECC"/>
</svg>
