<svg width="100" height="100" viewBox="0 0 100 100" fill="none" xmlns="http://www.w3.org/2000/svg">
<rect width="100" height="100" fill="#2F3527"/>
<path fill-rule="evenodd" clip-rule="evenodd" d="M45.5904 18.0001H18V35.0666H64.9333L58.9284 46.16H36.4615C36.4851 46.2035 36.5108 46.2459 36.5385 46.2872L52.0304 69.1719L52.0283 69.1732L60.7863 82.2418H82L75.6333 72.8255C75.5986 72.7587 75.5587 72.6915 75.5134 72.624C73.3746 69.4335 71.2201 66.2551 69.0498 63.0888L66.6156 59.4886C66.6097 59.4458 66.6121 59.4021 66.6227 59.3601C66.6344 59.3135 66.6561 59.27 66.686 59.2325C66.716 59.195 66.7537 59.1643 66.7965 59.1426C85.2803 49.5412 82.2644 24.0424 62.2338 18.6261C59.955 18.0055 56.9537 18.0029 54.4863 18.0008C54.321 18.0006 54.1581 18.0005 53.9981 18.0001C52.9893 18.0001 51.9807 18.0001 50.9722 18.0001C49.1778 18 47.3839 17.9999 45.5904 18.0001Z" fill="white"/>
</svg>
