<svg width="100" height="100" viewBox="0 0 100 100" fill="none" xmlns="http://www.w3.org/2000/svg">
<rect width="100" height="100" fill="white"/>
<path d="M64.6951 36.7513C64.2114 36.7757 63.7282 36.7994 63.2457 36.8225C47.851 37.5585 35.8239 50.2775 35.731 65.631C35.7311 65.6585 35.7229 65.6852 35.7076 65.7078L35.6785 65.75C29.1248 65.7507 22.5739 65.7503 16.0257 65.7491C15.3207 65.7485 14.8067 65.7025 14.4835 65.6113C12.7398 65.1172 11.9364 63.5235 11.9926 61.7872C12.0045 61.411 12.0104 61.2203 12.0104 61.2153C11.9748 55.9625 12.0348 51.9303 12.002 48.0257C11.9732 44.5538 11.977 41.8994 12.0132 40.0625C12.0507 38.1894 13.6445 36.7653 15.5232 36.7644C22.2264 36.7594 28.9285 36.7569 35.6298 36.7569C35.643 36.7569 35.6556 36.7517 35.6649 36.7424C35.6742 36.733 35.6795 36.7204 35.6795 36.7072C35.6795 30.1035 35.6795 23.4928 35.6795 16.8753C35.6795 15.275 36.3479 13.9719 37.8039 13.34C38.7939 12.9107 39.9751 13.0607 41.042 13.0607C47.7701 13.0625 54.4982 13.0622 61.2264 13.0597C63.1998 13.0588 64.6942 14.6188 64.6942 16.5782C64.6954 23.2882 64.6957 30.0125 64.6951 36.7513Z" fill="#01B1AE"/>
<path d="M64.6953 36.7512L68.5793 36.7568C68.6112 36.7568 68.6275 36.7728 68.6281 36.8047C68.6975 40.1347 68.3309 43.385 67.625 46.6297C65.5596 56.1293 59.87 63.799 49.6868 65.374C49.0187 65.4772 48.35 65.5728 47.6806 65.6609C47.6193 65.669 47.5878 65.6959 47.5859 65.7415C47.5854 65.7524 47.5871 65.7633 47.5909 65.7735C47.5948 65.7838 47.6006 65.7931 47.6081 65.801C47.6157 65.8089 47.6247 65.8151 47.6348 65.8194C47.6448 65.8237 47.6556 65.8259 47.6665 65.8259C53.2334 65.8043 58.4056 64.0334 62.4959 60.2703C68.749 54.5168 71.5643 45.0022 72.0856 36.7953C72.0861 36.7852 72.0905 36.7756 72.098 36.7686C72.1055 36.7616 72.1155 36.7578 72.1259 36.7578H80.8681C80.875 36.7578 80.8819 36.7592 80.8883 36.7619C80.8946 36.7646 80.9004 36.7686 80.9052 36.7735C80.91 36.7785 80.9138 36.7844 80.9163 36.7909C80.9188 36.7974 80.9199 36.8043 80.9196 36.8112C80.9072 37.1093 80.8743 37.5056 80.8212 38C80.2775 43.0297 78.7475 48.0322 76.1553 52.3915C72.7596 58.1015 67.899 61.9947 61.5734 64.0709C58.8687 64.9587 56.1584 65.4143 53.3271 65.6515C53.2496 65.6578 53.2109 65.6912 53.2109 65.7518C53.2109 65.7708 53.2184 65.7891 53.2317 65.8026C53.245 65.8161 53.2632 65.8238 53.2822 65.824C61.6878 65.8662 69.5797 63.0706 75.3537 56.8625C80.3712 51.4681 83.375 44.0497 84.3828 36.8009C84.3865 36.7722 84.4031 36.7578 84.4325 36.7578H90.215C90.2393 36.7578 90.2515 36.7703 90.2515 36.7953C90.2281 51.4409 79.2884 63.8065 64.745 65.5447C64.7143 65.5484 64.699 65.5656 64.699 65.5962C64.7478 76.3297 56.5493 85.2425 45.8206 85.9962C45.3837 86.0268 44.7593 86.0428 43.9475 86.044C41.2081 86.0484 38.4696 86.049 35.7321 86.0459C35.7179 86.0457 35.7043 86.0399 35.6943 86.0299C35.6843 86.0199 35.6787 86.0065 35.6787 85.9925V65.75L35.7078 65.7078C35.7231 65.6852 35.7312 65.6584 35.7312 65.6309C35.824 50.2775 47.8512 37.5584 63.2459 36.8225C63.7284 36.7993 64.2115 36.7756 64.6953 36.7512Z" fill="#008C8C"/>
</svg>
