<svg width="100" height="100" viewBox="0 0 100 100" fill="none" xmlns="http://www.w3.org/2000/svg">
<rect width="100" height="100" fill="#092B33"/>
<path fill-rule="evenodd" clip-rule="evenodd" d="M45.7519 27.9562C48.4045 27.0026 51.8722 22.6758 53.4485 20.6218L50.3163 11.1979C50.2299 10.934 50.1434 10.934 50.057 11.1979L47.0817 20.3284C47.0181 20.524 46.8839 20.6218 46.6791 20.6218H36.9481C36.6706 20.6218 36.6433 20.706 36.8662 20.8743L44.6797 26.6884C44.8708 26.8339 44.939 27.0227 44.8844 27.2547L44.6729 28.1419C44.6729 28.1419 44.6729 28.1419 44.673 28.1419L41.8615 36.1942C41.8436 36.2426 41.8419 36.2956 41.8566 36.3451C41.8714 36.3947 41.9018 36.4381 41.9434 36.4688C41.9849 36.4996 42.0353 36.5161 42.0869 36.5157C42.1386 36.5154 42.1888 36.4984 42.23 36.4671L49.866 30.7964C49.9576 30.7308 50.0673 30.6956 50.1799 30.6956C50.2925 30.6956 50.4023 30.7308 50.4938 30.7964L58.3278 36.4876C58.6144 36.6969 58.7031 36.6332 58.5939 36.2965L55.6255 27.1387C55.5481 26.9113 55.6073 26.727 55.8029 26.586L63.6027 20.9698C63.8939 20.7606 63.8597 20.6559 63.5003 20.6559L53.4486 20.6218C51.8722 22.6759 48.4045 27.0026 45.7519 27.9562Z" fill="#EACC85"/>
<path d="M21.4778 30.2641C30.6902 33.717 39.5341 40.2066 46.1124 47.1262C46.2853 47.3036 46.2944 47.4901 46.1397 47.6857L42.3524 52.5103C42.3196 52.5532 42.2778 52.5883 42.2298 52.6133C42.1818 52.6383 42.1288 52.6526 42.0744 52.6552C42.02 52.6578 41.9655 52.6486 41.9145 52.6283C41.8636 52.608 41.8174 52.5771 41.7792 52.5376C35.9105 46.3005 29.1047 41.3462 21.3618 37.6749C21.1161 37.5566 20.9956 37.361 21.0001 37.0881L21.1093 30.5097C21.1139 30.255 21.2367 30.1731 21.4778 30.2641Z" fill="#1EAD60"/>
<path d="M35.7878 63.8791C35.7841 63.8846 35.7792 63.8894 35.7737 63.893C35.7681 63.8965 35.762 63.8987 35.756 63.8994C35.7499 63.9001 35.744 63.8992 35.7389 63.8968C35.7337 63.8945 35.7294 63.8907 35.7264 63.8859C31.6457 58.9044 26.8802 54.6963 21.4302 51.2615C21.2072 51.1205 21.0958 50.918 21.0958 50.6542L21.0753 43.216C21.0753 42.9158 21.205 42.8407 21.4643 42.9908C27.9243 46.7486 33.7247 51.3388 38.8654 56.7616C38.9806 56.8824 39.0551 57.0362 39.0783 57.2014C39.1016 57.3667 39.0725 57.535 38.9951 57.6829L35.7878 63.8791Z" fill="#1EAD60"/>
<path d="M55.7753 55.9632C48.5465 64.7071 44.0336 74.7224 42.2366 86.0093C42.1863 86.3186 42.0317 86.3891 41.7725 86.2208L36.2793 82.645C36.1863 82.5841 36.114 82.4975 36.0717 82.3965C36.0291 82.2954 36.0181 82.1847 36.0404 82.0787C38.4198 69.9001 43.6811 59.1978 51.8242 49.9718C59.3763 41.2643 68.4407 34.6564 79.0179 30.148C79.409 29.9843 79.6046 30.1139 79.6046 30.537V37.0062C79.605 37.1467 79.5647 37.2847 79.4883 37.4043C79.4124 37.5238 79.3038 37.62 79.1748 37.6817C70.067 42.0399 62.2671 48.1339 55.7753 55.9632Z" fill="#1EAD60"/>
<path d="M65.1994 63.5515C59.3626 70.8577 55.4069 78.7258 53.3324 87.1557C53.1368 87.9564 52.3816 88.3544 51.0669 88.3499L50.4117 88.3499L46.5561 87.7699C46.3014 87.7289 46.2013 87.5811 46.2559 87.3263C49.5268 72.5137 56.9742 60.1941 68.5977 50.3676C71.7959 47.5743 75.3421 45.104 79.2363 42.9567C79.4819 42.8202 79.6048 42.893 79.6048 43.1751V50.7838C79.6048 50.9749 79.5229 51.1227 79.3591 51.2274C73.8772 54.6348 69.1573 58.7429 65.1994 63.5515Z" fill="#1EAD60"/>
<path d="M30.7245 78.4005C30.7245 78.4023 30.7238 78.404 30.7225 78.4053C30.7212 78.4066 30.7195 78.4073 30.7177 78.4073C30.7159 78.4073 30.7141 78.4066 30.7128 78.4053C30.7116 78.404 30.7109 78.4023 30.7109 78.4005C25.8203 72.1906 22.7836 65.1642 21.6008 57.3212C21.5371 56.9208 21.6554 56.8571 21.9557 57.1301C26.0774 60.9379 29.76 65.1301 33.0037 69.7067C33.1402 69.8978 33.1743 70.1048 33.1061 70.3277L30.7245 78.4005Z" fill="#1EAD60"/>
<path fill-rule="evenodd" clip-rule="evenodd" d="M72.5009 74.4904C76.0267 69.3678 78.1603 63.6538 78.9018 57.3485C78.9337 57.0528 78.8404 57.005 78.622 57.2052C75.6195 59.8984 72.874 62.81 70.3855 65.9399C65.4358 72.0178 61.719 78.7281 59.2351 86.0707C59.1441 86.33 59.2237 86.4028 59.4739 86.289C65.0104 83.7687 69.3528 79.8358 72.5009 74.4904Z" fill="#1EAD60"/>
</svg>
