<svg width="100" height="100" viewBox="0 0 100 100" fill="none" xmlns="http://www.w3.org/2000/svg">
<rect width="100" height="100" fill="white"/>
<path d="M14.4723 39.5262C7.76731 65.6337 24.7248 84.0762 49.8798 87.5262L47.2548 86.4086C32.5548 80.7461 18.0198 69.3462 19.9848 52.1262C21.8298 36.0087 35.5923 17.5662 53.8473 20.6712C68.6897 23.1987 76.4222 33.9387 80.4347 47.6787C80.5147 47.9537 80.6447 47.9812 80.8247 47.7612L86.3297 40.9287C86.405 40.8369 86.4594 40.7304 86.4892 40.6164C86.519 40.5024 86.5234 40.3837 86.5022 40.2687C86.3672 39.4687 86.1122 38.5937 85.7372 37.6437C79.1447 20.9562 64.0772 10.5762 46.0773 12.1587C30.6723 13.5162 18.3198 24.5487 14.4723 39.5262Z" fill="#112ED3"/>
<path d="M59.4425 77.8812C65.69 68.7687 48.44 56.3712 42.725 50.6787C34.295 42.2937 39.965 34.3587 46.0475 27.3837C46.4425 26.9337 46.5525 26.9962 46.3775 27.5712C45.755 29.5962 44.7575 31.6887 44.795 33.6312C44.975 44.1912 64.19 51.0537 67.3025 62.1912C68.825 67.6512 63.785 74.7987 59.9225 78.3087C59.8638 78.3645 59.7864 78.3961 59.7055 78.3974C59.6246 78.3987 59.5462 78.3696 59.4858 78.3158C59.4254 78.262 59.3874 78.1875 59.3794 78.107C59.3714 78.0265 59.3939 77.9459 59.4425 77.8812Z" fill="#EF3339"/>
<path d="M49.5211 86.7425C55.7686 77.6301 38.5186 65.2326 32.8036 59.5401C24.3736 51.1551 30.0436 43.2201 36.1261 36.2451C36.5211 35.7951 36.6311 35.8576 36.4561 36.4326C35.8336 38.4576 34.8361 40.5501 34.8736 42.4926C35.0536 53.0526 54.2686 59.9151 57.3811 71.0526C58.9036 76.5126 53.8636 83.66 50.0011 87.17C49.9425 87.2258 49.865 87.2574 49.7841 87.2588C49.7033 87.2601 49.6248 87.2309 49.5644 87.1771C49.504 87.1233 49.466 87.0488 49.458 86.9683C49.45 86.8878 49.4725 86.8072 49.5211 86.7425Z" fill="#112ED3"/>
</svg>
