<svg width="100" height="100" viewBox="0 0 100 100" fill="none" xmlns="http://www.w3.org/2000/svg">
<rect width="100" height="100" fill="#3963AF"/>
<path d="M48.6854 37H49.1814C53.2376 37.1844 56.5229 38.8588 59.0373 42.0231C59.6467 42.7909 59.5613 43.3628 58.7448 43.8653C57.3285 44.7372 55.9057 45.5978 54.4764 46.4472C53.1367 47.2431 52.8442 46.1753 51.8982 45.5078C49.8282 44.0444 47.0992 44.2403 45.2326 45.9522C42.9986 48.0016 42.9329 51.5444 45.107 53.6444C47.1582 55.6253 50.4479 55.7547 52.4926 53.6725C53.0551 53.0997 53.4882 52.5925 54.2889 53.0669C55.8501 53.9925 57.4126 54.9153 58.9763 55.8353C59.8107 56.3266 59.5145 57.0044 59.0251 57.6325C56.4938 60.8769 53.1139 62.5619 48.8851 62.6875H48.4135C45.0023 62.5537 42.1164 61.3169 39.7558 58.9769C34.8564 54.1206 34.6745 46.0272 39.4839 41.0106C41.9401 38.4488 45.0073 37.1119 48.6854 37ZM53.9823 42.4197C54.2542 42.0634 54.0057 41.8534 53.6954 41.6706C50.3326 39.6831 46.1148 39.88 42.9939 42.2509C40.4814 44.1597 38.9851 47.2525 39.2148 50.4475C39.7408 57.7525 47.5492 61.8812 53.852 58.0347C54.4173 57.6897 53.8923 57.0372 53.4423 57.2762C52.6857 57.6775 52.0304 58.0244 51.2448 58.2456C45.6592 59.8178 40.3557 55.9075 40.1064 50.1531C39.8982 45.3634 43.8057 41.3903 48.5157 41.2188C50.1573 41.1588 51.9245 41.6528 53.4104 42.5134C53.6417 42.6478 53.8323 42.6166 53.9823 42.4197Z" fill="white"/>
<path d="M12 58.2765V58.1818C12.0406 57.9312 12.1706 57.6725 12.39 57.4056C13.2462 56.3662 14.1041 55.3272 14.9634 54.2884C15.4941 53.6472 15.9441 53.2684 16.7278 53.7672C19.2047 55.3459 21.9069 56.0912 24.8344 56.0031C25.5769 55.9815 26.7862 55.5428 26.2837 54.5659C26.0728 54.1543 25.3622 53.8628 24.914 53.7578C22.1906 53.1193 19.3453 52.6215 16.8319 51.414C14.3784 50.2356 12.9712 48.2837 12.9187 45.535C12.8744 43.1956 13.7072 41.2643 15.4172 39.7412C18.4875 37.0075 23.2715 36.9634 27.0843 37.5756C28.8393 37.8568 30.5078 38.4181 32.0897 39.2593C32.6203 39.5418 33.0622 39.8372 33.4153 40.1453C34.0153 40.6675 33.569 41.3453 33.2175 41.8347C31.935 43.6215 31.1159 44.7553 30.7603 45.2359C30.3918 45.7347 29.8631 45.7872 29.3297 45.5031C27.3403 44.4465 25.4887 43.8278 23.1637 43.7106C22.5909 43.6815 21.6169 43.7453 21.2972 44.2797C20.4478 45.6962 23.4965 46.1556 24.2953 46.3028C28.1418 47.0143 34.1315 48.2087 34.6818 53.2178C35.2837 58.6975 31.2168 61.7434 26.294 62.2918C21.6937 62.8056 16.305 61.9525 12.51 59.1081C12.2244 58.8943 12.0544 58.6172 12 58.2765ZM26.7731 58.5672C23.6315 59.1072 20.5162 58.6131 17.5772 57.4459C17.2622 57.3212 16.9584 57.3034 16.8441 57.6737C16.7587 57.9475 16.9312 58.1472 17.1872 58.2522C19.3303 59.1315 21.7481 59.7015 24.0694 59.6837C25.9706 59.6687 28.064 59.4934 29.7112 58.4603C31.2325 57.5065 31.8875 56.1372 31.6762 54.3522C31.3893 51.9306 28.7859 50.9312 26.8134 50.2365C25.8465 49.8959 23.7784 49.2622 20.609 48.3353C19.4072 47.9837 18.3403 47.3715 17.7928 46.1997C16.9228 44.3397 18.1416 42.4843 19.8562 41.7128C22.4587 40.54 25.514 41.0556 28.14 41.9059C28.8384 42.1318 29.0662 41.3218 28.5253 41.1222C26.9078 40.524 25.2356 40.1953 23.5087 40.1359C20.8406 40.044 17.0719 41.2375 16.6284 44.4231C16.3162 46.6722 17.9541 48.459 19.994 49.089C22.4025 49.8315 24.8381 50.5037 27.2165 51.3362C28.1609 51.6662 29.0253 52.1387 29.8097 52.7537C30.7322 53.4765 30.9637 54.5359 30.7378 55.6534C30.3722 57.4628 28.3847 58.2897 26.7731 58.5672Z" fill="white"/>
<path d="M74.7982 45.594C75.0045 45.9315 75.4048 45.7684 75.582 45.4768C76.8232 43.4387 78.0664 41.4018 79.3114 39.3662C79.9048 38.394 80.5789 37.7649 81.7789 37.7593C83.532 37.7518 85.2854 37.7484 87.0392 37.749C87.9992 37.7499 88.6798 37.8737 88.6807 38.9753C88.6863 46.1209 88.6842 53.2671 88.6742 60.414C88.6732 61.6918 88.3629 61.9571 87.1076 61.959C85.5238 61.9628 83.9395 61.9628 82.3545 61.959C81.2454 61.9562 80.8339 61.6946 80.8348 60.5743C80.8367 57.1456 80.8367 53.7174 80.8348 50.2899C80.8348 50.2568 80.8435 50.2262 80.861 50.1981L84.4348 44.2759C84.4383 44.2702 84.4436 44.2658 84.4498 44.2634C84.4561 44.261 84.4629 44.2607 84.4693 44.2625C84.4758 44.2642 84.4815 44.2681 84.4855 44.2734C84.4896 44.2787 84.4919 44.2851 84.492 44.2918C84.492 48.8706 84.492 53.4556 84.492 58.0468C84.492 58.4424 85.3592 58.6253 85.3592 57.8499C85.3592 52.8343 85.3592 47.8187 85.3592 42.8031C85.3592 42.159 84.7704 41.9743 84.431 42.5396C81.501 47.4065 78.5739 52.2749 75.6495 57.1449C75.2717 57.774 74.832 57.3999 74.5667 56.9593C71.6929 52.1787 68.8189 47.3984 65.9445 42.6184C65.7776 42.3418 65.5592 42.0943 65.2386 42.2556C65.0595 42.3446 64.9929 42.5724 64.9929 42.7806C64.9917 47.7137 64.9917 52.6471 64.9929 57.5809C64.9929 57.9615 64.977 58.3243 65.3633 58.4003C65.757 58.4771 65.9051 58.1434 65.9051 57.7965C65.9064 53.3078 65.9067 48.83 65.9061 44.3631C65.9061 44.2499 65.9351 44.2418 65.9933 44.3387L69.5154 50.1934C69.5314 50.2204 69.5398 50.2512 69.5398 50.2824C69.5373 53.7168 69.5376 57.1503 69.5408 60.5828C69.5417 61.6768 69.027 61.9553 68.0154 61.9571C66.3711 61.9615 64.7261 61.9631 63.0804 61.9618C61.8795 61.9609 61.5711 61.5737 61.5711 60.4262C61.5698 53.3931 61.5695 46.3596 61.5701 39.3259C61.5701 38.2046 61.8251 37.7546 62.9708 37.7518C64.8083 37.7474 66.6461 37.7471 68.4842 37.7509C69.6814 37.7528 70.4051 38.3949 70.9864 39.3493C72.2564 41.4312 73.527 43.5128 74.7982 45.594Z" fill="white"/>
</svg>
