<svg width="100" height="100" viewBox="0 0 100 100" fill="none" xmlns="http://www.w3.org/2000/svg">
<rect width="100" height="100" fill="#595C62"/>
<path d="M16.9756 52.4102L20.3506 52.082C20.5537 53.2148 20.9639 54.0469 21.5811 54.5781C22.2061 55.1094 23.0459 55.375 24.1006 55.375C25.2178 55.375 26.0577 55.1406 26.6202 54.6719C27.1905 54.1953 27.4756 53.6406 27.4756 53.0078C27.4756 52.6016 27.3545 52.2578 27.1123 51.9766C26.878 51.6875 26.4639 51.4375 25.8702 51.2266C25.4639 51.0859 24.5381 50.8359 23.0928 50.4766C21.2334 50.0156 19.9287 49.4492 19.1787 48.7773C18.1241 47.832 17.5967 46.6797 17.5967 45.3203C17.5967 44.4453 17.8428 43.6289 18.335 42.8711C18.835 42.1055 19.5498 41.5234 20.4795 41.125C21.417 40.7266 22.5459 40.5273 23.8662 40.5273C26.0225 40.5273 27.6436 41 28.7295 41.9453C29.8233 42.8906 30.3975 44.1523 30.4522 45.7305L26.9834 45.8828C26.835 45 26.5147 44.3672 26.0225 43.9844C25.5381 43.5938 24.8077 43.3984 23.8311 43.3984C22.8233 43.3984 22.0342 43.6055 21.4639 44.0195C21.0967 44.2852 20.9131 44.6406 20.9131 45.0859C20.9131 45.4922 21.085 45.8398 21.4287 46.1289C21.8662 46.4961 22.9287 46.8789 24.6162 47.2773C26.3037 47.6758 27.5498 48.0898 28.3545 48.5195C29.167 48.9414 29.7998 49.5234 30.253 50.2656C30.7139 51 30.9444 51.9102 30.9444 52.9961C30.9444 53.9805 30.6709 54.9023 30.1241 55.7617C29.5772 56.6211 28.8037 57.2617 27.8037 57.6836C26.8037 58.0977 25.5577 58.3047 24.0655 58.3047C21.8936 58.3047 20.2256 57.8047 19.0616 56.8047C17.8975 55.7969 17.2022 54.332 16.9756 52.4102ZM45.2145 51.6836L48.5778 52.75C48.0622 54.625 47.2028 56.0195 45.9997 56.9336C44.8044 57.8398 43.2848 58.293 41.4411 58.293C39.1598 58.293 37.2848 57.5156 35.8161 55.9609C34.3473 54.3984 33.613 52.2656 33.613 49.5625C33.613 46.7031 34.3512 44.4844 35.8278 42.9062C37.3044 41.3203 39.2458 40.5273 41.652 40.5273C43.7536 40.5273 45.4606 41.1484 46.7731 42.3906C47.5544 43.125 48.1403 44.1797 48.5309 45.5547L45.0973 46.375C44.8942 45.4844 44.4684 44.7812 43.82 44.2656C43.1794 43.75 42.3981 43.4922 41.4762 43.4922C40.2028 43.4922 39.1677 43.9492 38.3708 44.8633C37.5817 45.7773 37.1872 47.2578 37.1872 49.3047C37.1872 51.4766 37.5778 53.0234 38.3591 53.9453C39.1403 54.8672 40.1559 55.3281 41.4059 55.3281C42.3278 55.3281 43.1208 55.0352 43.7848 54.4492C44.4489 53.8633 44.9255 52.9414 45.2145 51.6836ZM51.9613 58V40.8203H55.3363L62.3675 52.293V40.8203H65.5902V58H62.1097L55.1839 46.7969V58H51.9613ZM69.6298 58V40.8203H75.1963C77.3056 40.8203 78.6806 40.9062 79.3213 41.0781C80.3056 41.3359 81.1298 41.8984 81.7939 42.7656C82.458 43.625 82.79 44.7383 82.79 46.1055C82.79 47.1602 82.5986 48.0469 82.2158 48.7656C81.833 49.4844 81.3447 50.0508 80.7509 50.4648C80.165 50.8711 79.5673 51.1406 78.958 51.2734C78.1298 51.4375 76.9306 51.5195 75.3603 51.5195H73.0986V58H69.6298ZM73.0986 43.7266V48.6016H74.997C76.3642 48.6016 77.2783 48.5117 77.7392 48.332C78.2002 48.1523 78.5595 47.8711 78.8173 47.4883C79.083 47.1055 79.2158 46.6602 79.2158 46.1523C79.2158 45.5273 79.0322 45.0117 78.665 44.6055C78.2978 44.1992 77.833 43.9453 77.2705 43.8438C76.8564 43.7656 76.0244 43.7266 74.7744 43.7266H73.0986Z" fill="#F8F8F8"/>
</svg>
