<svg width="100" height="100" viewBox="0 0 100 100" fill="none" xmlns="http://www.w3.org/2000/svg">
<rect width="100" height="100" fill="#182D60"/>
<path d="M56.1143 13.0064L55.7768 13.007C53.7109 13.0106 52.0391 14.6883 52.0427 16.7542L52.0623 28.0041C52.0659 30.07 53.7436 31.7418 55.8095 31.7382L56.147 31.7376C58.2128 31.734 59.8847 30.0564 59.8811 27.9905L59.8614 16.7405C59.8578 14.6746 58.1802 13.0028 56.1143 13.0064Z" fill="#EA0B7F"/>
<path d="M44.875 26.5854H44.5375C42.4654 26.5854 40.7856 28.2652 40.7856 30.3373V41.5086C40.7856 43.5807 42.4654 45.2604 44.5375 45.2604H44.875C46.9471 45.2604 48.6269 43.5807 48.6269 41.5086V30.3373C48.6269 28.2652 46.9471 26.5854 44.875 26.5854Z" fill="#EA0B7F"/>
<path d="M74.3319 35.165L56.6019 35.1959C54.4832 35.1996 52.7686 36.9202 52.7723 39.0389L52.7728 39.3089C52.7765 41.4276 54.497 43.1421 56.6157 43.1384L74.3458 43.1075C76.4645 43.1038 78.179 41.3832 78.1753 39.2645L78.1748 38.9945C78.1711 36.8758 76.4506 35.1613 74.3319 35.165Z" fill="#EA0B7F"/>
<path d="M33.3775 42.8698C35.4279 42.8698 37.0901 41.2077 37.0901 39.1573C37.0901 37.107 35.4279 35.4448 33.3775 35.4448C31.3272 35.4448 29.665 37.107 29.665 39.1573C29.665 41.2077 31.3272 42.8698 33.3775 42.8698Z" fill="#1E4192"/>
<path d="M85.4594 42.8811C87.519 42.8811 89.1888 41.2114 89.1888 39.1517C89.1888 37.0921 87.519 35.4224 85.4594 35.4224C83.3997 35.4224 81.73 37.0921 81.73 39.1517C81.73 41.2114 83.3997 42.8811 85.4594 42.8811Z" fill="#059BD4"/>
<path d="M22.2738 46.5486H13.7238C11.6672 46.5486 10 48.2158 10 50.2723V50.6661C10 52.7227 11.6672 54.3898 13.7238 54.3898H22.2738C24.3304 54.3898 25.9975 52.7227 25.9975 50.6661V50.2723C25.9975 48.2158 24.3304 46.5486 22.2738 46.5486Z" fill="#EA0B7F"/>
<path d="M33.6194 46.5712H33.2819C31.2191 46.5712 29.5469 48.2434 29.5469 50.3062V61.5787C29.5469 63.6414 31.2191 65.3136 33.2819 65.3136H33.6194C35.6822 65.3136 37.3544 63.6414 37.3544 61.5787V50.3062C37.3544 48.2434 35.6822 46.5712 33.6194 46.5712Z" fill="#EA0B7F"/>
<path d="M67.3806 46.5768H67.0544C64.9854 46.5768 63.3081 48.254 63.3081 50.323V61.5505C63.3081 63.6195 64.9854 65.2968 67.0544 65.2968H67.3806C69.4496 65.2968 71.1269 63.6195 71.1269 61.5505V50.323C71.1269 48.254 69.4496 46.5768 67.3806 46.5768Z" fill="#EA0B7F"/>
<path d="M86.9389 46.5712H78.3102C76.2598 46.5712 74.5977 48.2333 74.5977 50.2837V50.6662C74.5977 52.7165 76.2598 54.3787 78.3102 54.3787H86.9389C88.9893 54.3787 90.6514 52.7165 90.6514 50.6662V50.2837C90.6514 48.2333 88.9893 46.5712 86.9389 46.5712Z" fill="#EA0B7F"/>
<path d="M50.6237 58.0123C53.5533 58.0123 55.9281 55.6375 55.9281 52.708C55.9281 49.7784 53.5533 47.4036 50.6237 47.4036C47.6942 47.4036 45.3193 49.7784 45.3193 52.708C45.3193 55.6375 47.6942 58.0123 50.6237 58.0123Z" fill="#EA0B7F"/>
<path d="M56.0969 60.8024H55.8381C53.7443 60.8024 52.0469 62.4998 52.0469 64.5936V82.2449C52.0469 84.3387 53.7443 86.0361 55.8381 86.0361H56.0969C58.1907 86.0361 59.8881 84.3387 59.8881 82.2449V64.5936C59.8881 62.4998 58.1907 60.8024 56.0969 60.8024Z" fill="#EA0B7F"/>
<path d="M44.9024 61.9378L44.4524 61.9394C42.43 61.9464 40.7963 63.5916 40.8033 65.614L40.8244 71.6552C40.8315 73.6776 42.4767 75.3113 44.499 75.3043L44.949 75.3027C46.9714 75.2956 48.6052 73.6505 48.5981 71.6281L48.577 65.5869C48.57 63.5645 46.9248 61.9307 44.9024 61.9378Z" fill="#EA0B7F"/>
<path d="M44.6444 86.3511C46.7041 86.3511 48.3738 84.6814 48.3738 82.6217C48.3738 80.562 46.7041 78.8923 44.6444 78.8923C42.5847 78.8923 40.915 80.562 40.915 82.6217C40.915 84.6814 42.5847 86.3511 44.6444 86.3511Z" fill="#58B64F"/>
</svg>
