<svg width="100" height="100" viewBox="0 0 100 100" fill="none" xmlns="http://www.w3.org/2000/svg">
<rect width="100" height="100" fill="white"/>
<ellipse cx="50.5" cy="50" rx="44.25" ry="12" fill="#8B8B8B"/>
<ellipse cx="50.5" cy="50.1875" rx="38.0273" ry="10.3125" fill="#F9F9F9"/>
<path d="M85 48.6875H14.5C26.6821 45.1909 33.7266 43.5413 47.875 42.875C62.6895 43.9388 70.8004 45.2849 85 48.6875Z" fill="#888A8A"/>
<path d="M85 51.125H14.5C26.6821 52.9297 33.7266 53.7811 47.875 54.125C62.6895 53.5759 70.8004 52.8812 85 51.125Z" fill="#888A8A"/>
<path d="M73.375 57.5H67.75V40.625H73.375V57.5Z" fill="#FD0513"/>
<path d="M31.375 57.6875H26.6875V40.625L34.1875 40.8125L36.625 50L39.4375 40.8125H46.375V57.6875H41.5L41.3125 47.1875L38.6875 57.6875H34.5625L31.375 47.1875V57.6875Z" fill="#FD0513"/>
<path fill-rule="evenodd" clip-rule="evenodd" d="M49.75 57.6875H55.375V51.125C58.375 51.3125 63.8125 51.3125 64.375 46.8125C64.75 41 59.6875 40.625 58.1875 40.625H49.75V57.6875ZM55.375 44.375V47.9375C58.0364 48.0257 58.941 47.6978 58.9375 46.0625C58.9365 44.746 58.2529 44.3314 55.375 44.375Z" fill="#FD0513"/>
</svg>
