<svg width="100" height="100" viewBox="0 0 100 100" fill="none" xmlns="http://www.w3.org/2000/svg">
<rect width="100" height="100" fill="#00A8A8"/>
<path d="M61.1439 15.7628L43.6489 43.6653C43.6396 43.6804 43.6344 43.6978 43.634 43.7155C43.6336 43.7333 43.638 43.7509 43.6467 43.7664C43.6553 43.782 43.668 43.7949 43.6833 43.804C43.6986 43.813 43.7161 43.8177 43.7339 43.8178C48.3989 43.8128 53.0814 43.8136 57.7814 43.8203C59.3164 43.8228 62.6189 44.2903 61.3364 46.7403C54.0664 60.6403 46.7889 74.5361 39.5039 88.4278C39.4722 88.4861 39.4389 88.5177 39.4039 88.5228C39.3456 88.5294 39.3264 88.5061 39.3464 88.4528C42.8347 79.0094 46.3081 69.5603 49.7664 60.1053C50.5539 57.9503 49.5214 57.1878 47.4664 57.1878C42.5364 57.1928 37.6056 57.1919 32.6739 57.1853C31.3322 57.1853 30.3822 57.0844 29.8239 56.8828C27.1214 55.9128 25.7289 52.7103 26.0439 50.0328C26.1172 49.4161 26.3656 48.6803 26.7889 47.8253C32.2022 36.8703 37.6189 25.9069 43.0389 14.9353L45.7439 9.50276C45.7789 9.43276 45.8356 9.39276 45.9139 9.38276C52.2764 8.55026 57.7339 8.92276 63.3464 12.0378C63.4097 12.0728 63.4222 12.1211 63.3839 12.1828L61.1439 15.7628Z" fill="#EB1C24"/>
<path d="M44.3815 89.8678C43.1765 91.5603 41.2515 90.4253 42.164 88.6503C49.399 74.567 56.6281 60.4803 63.8515 46.3903C64.3865 45.3453 65.004 44.4603 64.7815 43.3128C64.434 41.5403 63.1115 41.1303 61.389 41.1278C57.6823 41.1278 53.9765 41.1278 50.2715 41.1278C50.2478 41.1278 50.2244 41.1232 50.2026 41.1141C50.1807 41.1051 50.1609 41.0918 50.1442 41.0751C50.1275 41.0584 50.1142 41.0386 50.1052 41.0167C50.0961 40.9949 50.0915 40.9715 50.0915 40.9478V39.9403C50.0913 39.9125 50.0971 39.885 50.1083 39.8595C50.1195 39.834 50.136 39.8112 50.1567 39.7923C50.1774 39.7735 50.2019 39.7592 50.2285 39.7502C50.2552 39.7413 50.2834 39.7379 50.3115 39.7403C51.0531 39.812 51.759 39.8362 52.429 39.8128C57.5915 39.6378 62.799 39.7478 67.9665 39.7553C69.239 39.7578 70.614 39.7678 71.7465 40.2703C74.3565 41.4228 75.6565 44.6153 74.4815 47.2553C74.3215 47.6153 73.7706 48.4595 72.829 49.7878C63.3556 63.1545 53.8731 76.5145 44.3815 89.8678Z" fill="#FEFCFC"/>
</svg>
