<svg width="100" height="100" viewBox="0 0 100 100" fill="none" xmlns="http://www.w3.org/2000/svg">
<rect width="100" height="100" fill="white"/>
<path d="M92.6562 42.7626C93.5783 48.8728 93.6061 52.1815 92.6562 58.0076C89.1712 75.8651 75.6113 89.1451 57.7762 92.6901H42.1963C23.0838 88.8726 9.10875 73.7276 7.00125 54.3101C6.99625 54.2634 7.00625 54.2192 7.03125 54.1776L7.09375 54.0726C7.10875 54.0459 7.12042 54.0476 7.12875 54.0776C11.2987 70.5601 22.3637 83.1276 39.7337 85.8626C42.8354 86.3492 46.2054 86.5851 49.8438 86.5701C59.6804 86.5301 68.0996 83.2384 75.1012 76.6951C90.8313 61.9951 90.2613 36.5176 73.8838 22.5601C65.3488 15.2876 54.3263 12.2801 43.1263 14.3801C27.3863 17.3326 13.5513 30.7151 14.2963 47.6251C14.9988 63.5701 27.5037 75.8726 42.5363 79.2801C52.4329 81.5234 61.7888 80.2259 70.6038 75.3876C70.6321 75.3726 70.6546 75.3701 70.6712 75.3801C70.7029 75.3984 70.7038 75.4184 70.6738 75.4401C68.7354 76.8267 67.4963 77.6784 66.9562 77.9951C57.6362 83.4751 46.5438 85.1601 36.1213 82.0426C28.9438 79.8976 23.2712 76.3176 18.2688 70.5851C12.1821 63.6084 8.99958 55.5384 8.72125 46.3751C8.41875 36.3776 12.9313 26.8301 19.7963 19.7376C27.9963 11.2676 38.1371 7.02173 50.2188 7.00006C71.0387 6.96506 89.0287 22.2476 92.6562 42.7626Z" fill="#1979F5"/>
<path d="M38.0462 59.6749C39.6937 59.7424 41.8612 59.4349 42.7162 57.9224C43.9262 55.7824 40.9662 54.5699 39.2037 54.1324C34.6237 52.9974 27.3037 51.8224 25.3837 46.6599C24.4737 44.2149 24.7562 41.8541 26.2312 39.5774C31.6312 31.2474 49.0912 32.9299 49.5337 44.4399C49.537 44.5249 49.4962 44.5674 49.4112 44.5674H42.4437C42.342 44.5674 42.2778 44.5182 42.2512 44.4199C40.8312 38.9949 31.3612 40.9849 32.4987 44.1674C32.8037 45.0199 34.0912 45.6449 34.9037 45.8799C36.857 46.4466 38.8145 46.9941 40.7762 47.5224C44.6487 48.5674 48.9287 50.2274 50.0687 54.4924C50.4587 55.9491 50.4337 57.4566 49.9937 59.0149C48.7012 63.5974 44.0462 65.7024 39.5462 66.0174C32.2612 66.5224 25.3462 63.1974 24.3987 55.2399C24.3923 55.1866 24.3973 55.1325 24.4134 55.0812C24.4295 55.03 24.4562 54.9827 24.4919 54.9425C24.5276 54.9024 24.5713 54.8702 24.6203 54.8482C24.6693 54.8262 24.7225 54.8149 24.7762 54.8149H31.5887C31.6653 54.8149 31.7145 54.8516 31.7362 54.9249C32.6378 57.9532 34.7412 59.5366 38.0462 59.6749Z" fill="#1979F5"/>
<path d="M75.6738 35.6949H52.5137C52.4199 35.6949 52.3438 35.7711 52.3438 35.8649V42.3949C52.3438 42.4888 52.4199 42.5649 52.5137 42.5649H75.6738C75.7676 42.5649 75.8438 42.4888 75.8438 42.3949V35.8649C75.8438 35.7711 75.7676 35.6949 75.6738 35.6949Z" fill="#1979F5"/>
<path d="M69.4538 46.8774H52.4837C52.4064 46.8774 52.3438 46.9401 52.3438 47.0174V53.6124C52.3438 53.6898 52.4064 53.7524 52.4837 53.7524H69.4538C69.5311 53.7524 69.5938 53.6898 69.5938 53.6124V47.0174C69.5938 46.9401 69.5311 46.8774 69.4538 46.8774Z" fill="#1979F5"/>
<path d="M59.5979 58.0062L52.4629 58.0187C52.3939 58.0188 52.338 58.0749 52.3381 58.1439L52.3497 64.7589C52.3498 64.8279 52.4058 64.8838 52.4749 64.8837L59.6099 64.8712C59.6789 64.8711 59.7348 64.8151 59.7346 64.746L59.7231 58.131C59.723 58.062 59.6669 58.0061 59.5979 58.0062Z" fill="#1979F5"/>
</svg>
