<svg width="100" height="100" viewBox="0 0 100 100" fill="none" xmlns="http://www.w3.org/2000/svg">
<rect width="100" height="100" fill="#FFD7AB"/>
<path d="M48.157 93.744C32.482 92.4615 21.7645 74.6715 23.1145 60.2265C24.832 41.874 37.7395 21.264 49.6345 7.07395C49.6535 7.05018 49.6778 7.03119 49.7055 7.0184C49.7333 7.0056 49.7638 6.99934 49.7948 7.00006C49.8257 7.00078 49.8564 7.00847 49.8845 7.02256C49.9126 7.03665 49.9374 7.05678 49.957 7.08145C61.957 22.0065 78.067 46.869 76.3795 66.5715C75.1645 80.679 63.7345 95.0115 48.157 93.744Z" fill="#ED830F"/>
<path d="M54.2092 44.7765L55.0942 47.3865C55.1472 47.5303 55.1439 47.6889 55.0849 47.8303C55.0259 47.9718 54.9156 48.0857 54.7761 48.1493C54.6367 48.2129 54.4783 48.2214 54.3328 48.1731C54.1874 48.1248 54.0655 48.0233 53.9917 47.889L52.9792 46.1415C52.9545 46.102 52.9212 46.0687 52.8817 46.044C51.9567 45.419 51.0442 45.4065 50.1442 46.0065C49.8142 46.2265 49.8292 46.4165 50.1892 46.5765L51.1417 47.004C51.3367 47.089 51.3767 47.2215 51.2617 47.4015L50.9242 47.9265C50.7842 48.1465 50.7767 48.3715 50.9017 48.6015C53.2867 52.9965 49.6417 55.3215 45.6742 56.2065C45.6013 56.2235 45.5332 56.2569 45.4751 56.304C45.417 56.3512 45.3706 56.4108 45.3394 56.4782C45.3082 56.5457 45.2931 56.6192 45.2953 56.693C45.2974 56.7669 45.3167 56.8391 45.3517 56.904L46.7767 59.6115C46.8019 59.6578 46.8157 59.7092 46.817 59.7614C46.8183 59.8136 46.8071 59.8651 46.7842 59.9115C46.4392 60.6515 45.9017 61.2515 45.1717 61.7115C44.9417 61.8565 44.7392 61.824 44.5642 61.614L43.3042 60.099C43.0042 59.739 42.8017 59.789 42.6967 60.249C42.1342 62.634 44.7067 63.5565 44.2342 64.9965C44.1542 65.2415 44.0242 65.269 43.8442 65.079C42.4592 63.619 41.8792 61.884 42.1042 59.874C42.2192 58.859 41.7892 58.2915 40.8142 58.1715C40.7032 58.1593 40.6001 58.1081 40.5232 58.0271C40.4464 57.9461 40.4007 57.8405 40.3942 57.729C40.2967 55.989 39.1792 55.0215 37.4992 56.0115C35.5392 57.1615 34.5742 58.9165 34.6042 61.2765C34.6092 61.5165 34.6967 61.724 34.8667 61.899C35.3017 62.339 35.4342 62.889 35.2642 63.549C35.2392 63.649 35.1767 63.719 35.0767 63.759C35.0308 63.7767 34.9807 63.7811 34.9324 63.7716C34.884 63.7622 34.8393 63.7394 34.8033 63.7057C34.7673 63.6721 34.7415 63.629 34.7288 63.5814C34.7162 63.5338 34.7172 63.4836 34.7317 63.4365C35.0067 62.5765 34.7842 62.129 34.0642 62.094C33.9299 62.0846 33.8008 62.0409 33.6902 61.9671C33.5795 61.8933 33.4912 61.7922 33.4342 61.674L31.4692 57.609" stroke="#D59096" stroke-width="1.5"/>
<path d="M58.7399 46.4038C58.2999 47.2238 57.5899 47.9113 56.6099 48.4663C56.2599 48.6663 56.2824 48.8088 56.6774 48.8938C58.3824 49.2588 59.4349 48.6338 59.8349 47.0188" stroke="#D59096" stroke-width="1.5"/>
<path d="M63.4642 78.3764C62.2042 76.8164 61.2517 75.0814 60.6067 73.1714C60.5881 73.114 60.5499 73.0655 60.4988 73.0344C60.4477 73.0033 60.3869 72.9917 60.327 73.0016C60.2672 73.0114 60.212 73.042 60.1713 73.0882C60.1306 73.1343 60.1068 73.193 60.1042 73.2539L60.0817 75.0464C60.0808 75.1671 60.0483 75.2855 59.9874 75.3897C59.9264 75.4939 59.8392 75.5802 59.7345 75.6402C59.6298 75.7002 59.5111 75.7316 59.3904 75.7314C59.2697 75.7312 59.1512 75.6993 59.0467 75.6389C58.1717 75.1339 57.7667 74.3539 57.8317 73.2989C57.8368 73.2079 57.8158 73.1173 57.7713 73.0377C57.7268 72.9581 57.6605 72.8929 57.5802 72.8496C57.5 72.8063 57.4091 72.7868 57.3181 72.7933C57.2272 72.7999 57.14 72.8322 57.0667 72.8864L55.0042 74.4389C54.9404 74.4855 54.8633 74.5111 54.783 74.5124C54.7027 74.5138 54.6229 74.4908 54.5542 74.4464L54.0517 74.1164C53.9882 74.0743 53.916 74.0469 53.8405 74.0362C53.7651 74.0256 53.6882 74.0321 53.6155 74.0551C53.5428 74.0781 53.4762 74.1171 53.4206 74.1693C53.365 74.2214 53.3218 74.2854 53.2942 74.3564C52.6292 76.0514 51.4392 77.1539 49.7242 77.6639C49.4892 77.7339 49.2942 77.8639 49.1392 78.0539C48.4942 78.8489 48.2192 79.7589 48.3142 80.7839C48.3435 81.0602 48.4708 81.3201 48.6742 81.5189C49.2442 82.0689 49.4842 82.7614 49.3942 83.5964" stroke="#D59096" stroke-width="1.5"/>
<path d="M54.2092 44.7765L55.0942 47.3865C55.1472 47.5303 55.1439 47.6888 55.0849 47.8303C55.0259 47.9718 54.9156 48.0857 54.7761 48.1493C54.6367 48.2128 54.4783 48.2213 54.3328 48.1731C54.1874 48.1248 54.0655 48.0233 53.9917 47.889L52.9792 46.1415C52.9545 46.102 52.9212 46.0687 52.8817 46.044C51.9567 45.419 51.0442 45.4065 50.1442 46.0065C49.8142 46.2265 49.8292 46.4165 50.1892 46.5765L51.1417 47.004C51.3367 47.089 51.3767 47.2215 51.2617 47.4015L50.9242 47.9265C50.7842 48.1465 50.7767 48.3715 50.9017 48.6015C53.2867 52.9965 49.6417 55.3215 45.6742 56.2065C45.6013 56.2235 45.5332 56.2569 45.4751 56.304C45.417 56.3511 45.3706 56.4108 45.3394 56.4782C45.3082 56.5457 45.2931 56.6192 45.2953 56.693C45.2974 56.7669 45.3167 56.839 45.3517 56.904L46.7767 59.6115C46.8019 59.6578 46.8157 59.7092 46.817 59.7614C46.8183 59.8136 46.8071 59.8651 46.7842 59.9115C46.4392 60.6515 45.9017 61.2515 45.1717 61.7115C44.9417 61.8565 44.7392 61.824 44.5642 61.614L43.3042 60.099C43.0042 59.739 42.8017 59.789 42.6967 60.249C42.1342 62.634 44.7067 63.5565 44.2342 64.9965C44.1542 65.2415 44.0242 65.269 43.8442 65.079C42.4592 63.619 41.8792 61.884 42.1042 59.874C42.2192 58.859 41.7892 58.2915 40.8142 58.1715C40.7032 58.1592 40.6001 58.1081 40.5232 58.0271C40.4464 57.9461 40.4007 57.8405 40.3942 57.729C40.2967 55.989 39.1792 55.0215 37.4992 56.0115C35.5392 57.1615 34.5742 58.9165 34.6042 61.2765C34.6092 61.5165 34.6967 61.724 34.8667 61.899C35.3017 62.339 35.4342 62.889 35.2642 63.549C35.2392 63.649 35.1767 63.719 35.0767 63.759C35.0308 63.7766 34.9807 63.781 34.9324 63.7716C34.884 63.7622 34.8393 63.7394 34.8033 63.7057C34.7673 63.6721 34.7415 63.629 34.7288 63.5814C34.7162 63.5338 34.7172 63.4835 34.7317 63.4365C35.0067 62.5765 34.7842 62.129 34.0642 62.094C33.9299 62.0846 33.8008 62.0409 33.6902 61.9671C33.5795 61.8933 33.4912 61.7922 33.4342 61.674L31.4692 57.609C35.7492 47.689 43.3292 43.4115 54.2092 44.7765Z" fill="#B22F3F"/>
<path d="M54.2096 44.7765L58.7396 46.404C58.2996 47.224 57.5896 47.9115 56.6096 48.4665C56.2596 48.6665 56.2821 48.809 56.6771 48.894C58.3821 49.259 59.4346 48.634 59.8346 47.019C71.1896 53.9865 73.1171 68.934 63.4646 78.3765C62.2046 76.8165 61.2521 75.0815 60.6071 73.1715C60.5885 73.114 60.5503 73.0655 60.4992 73.0345C60.4481 73.0034 60.3873 72.9918 60.3274 73.0016C60.2676 73.0114 60.2124 73.0421 60.1717 73.0882C60.131 73.1344 60.1072 73.193 60.1046 73.254L60.0821 75.0465C60.0812 75.1672 60.0487 75.2855 59.9877 75.3897C59.9268 75.4939 59.8396 75.5803 59.7349 75.6403C59.6302 75.7002 59.5115 75.7317 59.3908 75.7314C59.2701 75.7312 59.1516 75.6993 59.0471 75.639C58.1721 75.134 57.7671 74.354 57.8321 73.299C57.8372 73.208 57.8162 73.1173 57.7717 73.0378C57.7272 72.9582 57.6609 72.893 57.5806 72.8497C57.5004 72.8064 57.4095 72.7869 57.3185 72.7934C57.2276 72.7999 57.1403 72.8322 57.0671 72.8865L55.0046 74.439C54.9408 74.4855 54.8637 74.5111 54.7834 74.5125C54.703 74.5138 54.6233 74.4908 54.5546 74.4465L54.0521 74.1165C53.9886 74.0743 53.9164 74.0469 53.8409 74.0363C53.7655 74.0257 53.6885 74.0321 53.6159 74.0551C53.5432 74.0782 53.4766 74.1172 53.421 74.1693C53.3654 74.2215 53.3222 74.2854 53.2946 74.3565C52.6296 76.0515 51.4396 77.154 49.7246 77.664C49.4896 77.734 49.2946 77.864 49.1396 78.054C48.4946 78.849 48.2196 79.759 48.3146 80.784C48.3439 81.0602 48.4712 81.3201 48.6746 81.519C49.2446 82.069 49.4846 82.7615 49.3946 83.5965C35.9021 82.8615 27.8246 70.5165 31.4696 57.609L33.4346 61.674C33.4916 61.7922 33.5799 61.8933 33.6905 61.9671C33.8012 62.0409 33.9302 62.0847 34.0646 62.094C34.7846 62.129 35.0071 62.5765 34.7321 63.4365C34.7176 63.4836 34.7166 63.5338 34.7292 63.5814C34.7419 63.629 34.7677 63.6721 34.8036 63.7057C34.8396 63.7394 34.8844 63.7622 34.9327 63.7716C34.9811 63.7811 35.0311 63.7767 35.0771 63.759C35.1771 63.719 35.2396 63.649 35.2646 63.549C35.4346 62.889 35.3021 62.339 34.8671 61.899C34.6971 61.724 34.6096 61.5165 34.6046 61.2765C34.5746 58.9165 35.5396 57.1615 37.4996 56.0115C39.1796 55.0215 40.2971 55.989 40.3946 57.729C40.401 57.8405 40.4467 57.9461 40.5236 58.0271C40.6005 58.1081 40.7036 58.1593 40.8146 58.1715C41.7896 58.2915 42.2196 58.859 42.1046 59.874C41.8796 61.884 42.4596 63.619 43.8446 65.079C44.0246 65.269 44.1546 65.2415 44.2346 64.9965C44.7071 63.5565 42.1346 62.634 42.6971 60.249C42.8021 59.789 43.0046 59.739 43.3046 60.099L44.5646 61.614C44.7396 61.824 44.9421 61.8565 45.1721 61.7115C45.9021 61.2515 46.4396 60.6515 46.7846 59.9115C46.8074 59.8651 46.8187 59.8136 46.8174 59.7614C46.8161 59.7092 46.8023 59.6578 46.7771 59.6115L45.3521 56.904C45.3171 56.8391 45.2977 56.7669 45.2956 56.693C45.2935 56.6192 45.3086 56.5457 45.3398 56.4782C45.371 56.4108 45.4174 56.3512 45.4755 56.304C45.5335 56.2569 45.6017 56.2235 45.6746 56.2065C49.6421 55.3215 53.2871 52.9965 50.9021 48.6015C50.7771 48.3715 50.7846 48.1465 50.9246 47.9265L51.2621 47.4015C51.3771 47.2215 51.3371 47.089 51.1421 47.004L50.1896 46.5765C49.8296 46.4165 49.8146 46.2265 50.1446 46.0065C51.0446 45.4065 51.9571 45.419 52.8821 46.044C52.9215 46.0687 52.9549 46.102 52.9796 46.1415L53.9921 47.889C54.0659 48.0233 54.1877 48.1248 54.3332 48.1731C54.4787 48.2214 54.637 48.2129 54.7765 48.1493C54.916 48.0857 55.0262 47.9718 55.0852 47.8303C55.1442 47.6889 55.1476 47.5303 55.0946 47.3865L54.2096 44.7765Z" fill="#96CDFF"/>
<path d="M58.7394 46.4041L59.8344 47.0191C59.4344 48.6341 58.3819 49.2591 56.6769 48.8941C56.2819 48.8091 56.2594 48.6666 56.6094 48.4666C57.5894 47.9116 58.2994 47.2241 58.7394 46.4041Z" fill="#B22F3F"/>
<path d="M51.3371 57.9088C51.4221 57.6738 51.6121 57.5013 51.9071 57.3913C51.9633 57.3702 52.0246 57.3665 52.083 57.3806C52.1413 57.3947 52.1941 57.426 52.2345 57.4704C52.2749 57.5148 52.301 57.5704 52.3095 57.6298C52.318 57.6892 52.3085 57.7499 52.2821 57.8038C51.9221 58.5438 51.9596 59.2163 52.3946 59.8213C52.4268 59.8621 52.4433 59.913 52.4413 59.9648C52.4392 60.0167 52.4186 60.0661 52.3833 60.1041C52.348 60.1422 52.3002 60.1663 52.2487 60.1722C52.1971 60.1781 52.1451 60.1654 52.1021 60.1363C51.2521 59.6013 50.9971 58.8588 51.3371 57.9088Z" fill="#B22F3F"/>
<path d="M53.3692 63.5864C53.3522 63.6267 53.3257 63.6622 53.2919 63.6899C53.2581 63.7176 53.2181 63.7367 53.1753 63.7455C53.1326 63.7544 53.0883 63.7527 53.0463 63.7407C53.0043 63.7286 52.9658 63.7066 52.9342 63.6764L52.4917 63.2264C52.4456 63.1804 52.411 63.124 52.3908 63.062C52.3707 63 52.3655 62.934 52.3757 62.8696C52.386 62.8052 52.4113 62.7442 52.4498 62.6915C52.4882 62.6388 52.5386 62.5959 52.5967 62.5664L53.4517 62.1464C53.8817 61.9364 54.0067 62.0514 53.8267 62.4914L53.3692 63.5864Z" fill="#B22F3F"/>
<path d="M47.1668 67.9065C47.0163 67.8235 46.8881 67.7053 46.7932 67.562C46.6984 67.4187 46.6395 67.2545 46.6219 67.0836C46.6042 66.9126 46.6281 66.7399 46.6917 66.5802C46.7552 66.4205 46.8565 66.2786 46.9868 66.1665L49.8518 63.6915C49.8989 63.6523 49.9567 63.628 50.0177 63.6218C50.0787 63.6156 50.1402 63.6278 50.1942 63.6569C50.2482 63.6859 50.2923 63.7304 50.3209 63.7847C50.3494 63.839 50.361 63.9006 50.3543 63.9615C50.2293 64.9115 50.1068 65.889 49.9868 66.894C49.8818 67.739 49.5968 68.224 49.1318 68.349C48.6218 68.494 47.9668 68.3465 47.1668 67.9065Z" fill="#B22F3F"/>
<path d="M41.7371 64.164C43.5821 65.354 44.7246 67.044 45.1646 69.234C45.1816 69.3034 45.1732 69.376 45.1409 69.4391C45.1086 69.5021 45.0544 69.5515 44.9879 69.5785C44.9214 69.6054 44.8469 69.6082 44.7777 69.5863C44.7085 69.5645 44.6489 69.5193 44.6096 69.459L41.3171 64.584C41.2781 64.5268 41.2604 64.4583 41.267 64.3899C41.2735 64.3216 41.3039 64.2575 41.353 64.2083C41.4022 64.1592 41.4671 64.128 41.537 64.1199C41.6069 64.1118 41.6775 64.1274 41.7371 64.164Z" fill="#B22F3F"/>
<path d="M52.1096 67.8465C52.2196 68.4515 51.9171 68.819 51.2021 68.949C51.0671 68.974 51.0021 68.9165 51.0071 68.7765L51.0746 66.909C51.0896 66.629 51.2296 66.4515 51.4946 66.3765L51.9221 66.2565C51.9825 66.2395 52.0464 66.2394 52.1069 66.2561C52.1674 66.2728 52.2222 66.3056 52.2654 66.3511C52.3086 66.3967 52.3386 66.4531 52.3521 66.5144C52.3656 66.5757 52.3622 66.6395 52.3421 66.699L52.1546 67.2615C52.0896 67.4515 52.0746 67.6465 52.1096 67.8465Z" fill="#B22F3F"/>
<path d="M57.7344 67.9215C60.1719 67.809 61.9044 69.1665 62.7069 71.4165C62.9019 71.9665 62.7944 72.0365 62.3844 71.6265L61.7994 71.034C61.6194 70.854 61.4094 70.809 61.1694 70.899L60.2844 71.2365C60.0644 71.3215 59.8394 71.339 59.6094 71.289C58.8594 71.119 58.4619 70.6165 58.4169 69.7815C58.4069 69.5615 58.3094 69.389 58.1244 69.264L56.0694 67.839C55.9892 67.7764 55.929 67.6831 55.9009 67.5775C55.8727 67.4719 55.8786 67.3619 55.9173 67.2693C55.9561 67.1766 56.0249 67.1082 56.11 67.0776C56.1952 67.047 56.2904 67.0564 56.3769 67.104L57.5244 67.8615C57.5878 67.9006 57.6605 67.9214 57.7344 67.9215Z" fill="#B22F3F"/>
<path d="M48.2471 70.389C48.2836 70.4235 48.308 70.4689 48.3165 70.5183C48.3251 70.5678 48.3174 70.6188 48.2946 70.6635C48.2718 70.7082 48.2351 70.7444 48.1901 70.7666C48.145 70.7887 48.094 70.7957 48.0446 70.7865L46.4021 70.5165C46.356 70.5084 46.3135 70.4862 46.2806 70.4529C46.2478 70.4195 46.2261 70.3768 46.2187 70.3305C46.2112 70.2843 46.2184 70.2369 46.2392 70.195C46.26 70.153 46.2933 70.1186 46.3346 70.0965C47.0246 69.7565 47.6621 69.854 48.2471 70.389Z" fill="#B22F3F"/>
<path d="M63.4642 78.3764C59.5392 81.9364 54.8492 83.6764 49.3942 83.5964C49.4842 82.7614 49.2442 82.0689 48.6742 81.5189C48.4708 81.3201 48.3435 81.0602 48.3142 80.7839C48.2192 79.7589 48.4942 78.8489 49.1392 78.0539C49.2942 77.8639 49.4892 77.7339 49.7242 77.6639C51.4392 77.1539 52.6292 76.0514 53.2942 74.3564C53.3218 74.2854 53.365 74.2214 53.4206 74.1693C53.4762 74.1171 53.5428 74.0781 53.6155 74.0551C53.6882 74.0321 53.7651 74.0256 53.8405 74.0362C53.916 74.0469 53.9882 74.0743 54.0517 74.1164L54.5542 74.4464C54.6229 74.4908 54.7027 74.5138 54.783 74.5124C54.8633 74.5111 54.9404 74.4855 55.0042 74.4389L57.0667 72.8864C57.14 72.8322 57.2272 72.7999 57.3181 72.7933C57.4091 72.7868 57.5 72.8063 57.5802 72.8496C57.6605 72.8929 57.7268 72.9581 57.7713 73.0377C57.8158 73.1173 57.8368 73.2079 57.8317 73.2989C57.7667 74.3539 58.1717 75.1339 59.0467 75.6389C59.1512 75.6993 59.2697 75.7312 59.3904 75.7314C59.5111 75.7316 59.6298 75.7002 59.7345 75.6402C59.8392 75.5802 59.9264 75.4939 59.9874 75.3897C60.0483 75.2855 60.0808 75.1671 60.0817 75.0464L60.1042 73.2539C60.1068 73.193 60.1306 73.1343 60.1713 73.0882C60.212 73.042 60.2672 73.0114 60.327 73.0016C60.3869 72.9917 60.4477 73.0033 60.4988 73.0344C60.5499 73.0655 60.5881 73.114 60.6067 73.1714C61.2517 75.0814 62.2042 76.8164 63.4642 78.3764Z" fill="#B22F3F"/>
</svg>
