<svg width="100" height="100" viewBox="0 0 100 100" fill="none" xmlns="http://www.w3.org/2000/svg">
<rect width="100" height="100" fill="#E52630"/>
<path d="M77.9638 65.7407C82.485 79.3044 64.6595 85.697 60.4264 86.9064C54.0396 88.4166 50.6479 87.8685 44.7032 87.5112C41.8811 86.7049 35.5112 84.7294 32.6084 83.278C29.7057 81.8267 24.5453 75.8196 22.3279 72.9975L18.6995 58.4838L18.3419 52.4057C18.2002 49.9963 19.8617 47.882 22.255 47.57C25.5494 47.1405 29.4662 46.7111 31.399 46.389C34.3017 45.9052 36.64 42.559 37.4463 40.9464L47.1221 16.7569L54.9837 11.3142L62.8453 11.9189L69.4975 19.7805L68.288 34.899L61.6359 43.9701L56.798 44.5748L55.5885 51.2269L64.6595 56.0648C65.0627 54.049 66.5947 49.7756 69.4975 48.808C82.8017 43.3654 80.9875 59.0886 79.1733 61.5075C77.7219 63.4427 77.7622 65.1359 77.9638 65.7407Z" fill="white"/>
<path d="M65.7243 41.4768C63.5642 44.1705 61.2697 45.6886 58.0252 45.7103C57.9149 45.7102 57.8071 45.7427 57.7153 45.8037C57.6235 45.8646 57.5517 45.9514 57.509 46.053C55.0322 51.9651 59.526 52.5854 63.4992 54.4071C63.5242 54.4186 63.5514 54.4245 63.579 54.4242C63.6066 54.424 63.6339 54.4177 63.659 54.4057C63.6842 54.3938 63.7065 54.3765 63.7246 54.355C63.7427 54.3335 63.756 54.3084 63.7638 54.2813C65.1041 49.4536 69.0426 46.079 74.1306 46.4043C83.9769 47.0333 85.7509 58.1982 78.8238 63.6722C78.7053 63.7647 78.6908 63.8703 78.7804 63.9888C82.1594 68.539 78.8238 74.2342 75.7181 77.8214C75.215 78.0411 74.654 78.3737 74.0351 78.819C68.817 82.5667 58.7582 84.4361 52.8071 81.7599C50.4518 80.7058 47.333 77.5785 50.712 75.3967C51.6981 74.7605 53.3146 74.3151 55.5614 74.0607C55.7147 74.0433 55.7899 73.9566 55.787 73.8004C55.6829 70.0918 61.7555 71.0461 63.625 71.6186C67.0039 72.6423 69.6672 73.8525 73.3064 73.1585C73.3789 73.144 73.4541 73.1536 73.5206 73.1858C73.587 73.2181 73.6411 73.2712 73.6746 73.3371C73.708 73.403 73.719 73.478 73.7057 73.5507C73.6925 73.6234 73.6559 73.6898 73.6014 73.7397C71.1029 76.0213 65.2385 74.2776 62.4365 73.2843C61.3651 72.9025 60.2764 73.0544 59.1963 73.024C59.1165 73.0215 59.0372 73.0385 58.9654 73.0735C58.8937 73.1086 58.8315 73.1607 58.7845 73.2253C58.7375 73.2899 58.7069 73.365 58.6955 73.444C58.6842 73.5231 58.6923 73.6038 58.7192 73.679C58.9534 74.3498 58.7466 74.7576 58.0989 74.9022C56.52 75.2607 54.9296 75.5788 53.3276 75.8564C52.7001 75.9634 52.2923 76.1832 52.1044 76.5157C51.8759 76.9206 51.9395 77.2748 52.2952 77.5785C56.4897 81.1656 62.6924 81.0789 67.6112 79.4263C73.2327 77.5307 80.4894 70.3347 75.64 64.2014C75.5995 64.1498 75.5793 64.0853 75.5833 64.0204C75.5873 63.9555 75.6153 63.8948 75.6617 63.85C77.9997 61.5858 79.9342 60.1935 80.3333 56.7321C81.3353 48.0526 69.9361 45.5411 66.2752 53.3488C65.185 55.6766 64.9233 58.2025 65.4901 60.9265C65.5048 60.9937 65.5034 61.0631 65.486 61.1288C65.4686 61.1945 65.4358 61.2545 65.3904 61.3039C64.4361 62.3709 62.5579 62.1974 61.1222 62.0977C58.3071 61.9111 56.2901 63.9281 54.8284 66.0579C50.9072 71.7618 47.0077 78.472 40.0893 80.6755C39.8724 80.7449 39.6714 80.7752 39.4864 80.7666C39.1856 80.7492 38.989 80.6856 38.8965 80.5757C38.806 80.4695 38.7422 80.3431 38.7104 80.2073C38.6786 80.0714 38.6797 79.9299 38.7137 79.7945C38.7476 79.6592 38.8134 79.5339 38.9056 79.4291C38.9977 79.3243 39.1136 79.243 39.2435 79.192C41.5626 78.2869 43.5362 76.9032 45.1643 75.041C49.7057 69.8446 50.6079 61.8374 58.0902 60.2282C59.4204 59.9419 61.1757 59.9506 63.356 60.2542C63.386 60.2587 63.4166 60.2566 63.4456 60.2478C63.4746 60.2391 63.5013 60.224 63.5237 60.2036C63.5461 60.1833 63.5637 60.1582 63.5753 60.1301C63.5868 60.1021 63.5919 60.0719 63.5903 60.0416L63.4818 57.6256C63.4791 57.554 63.4566 57.4847 63.4167 57.4257C63.3768 57.3666 63.3212 57.3201 63.2563 57.2916C61.1309 56.359 56.3725 54.7151 55.1146 52.8933C53.6832 50.8243 54.6375 47.814 55.4747 45.6452C55.547 45.4544 55.4877 45.3257 55.2968 45.2592C53.8249 44.7329 52.5627 43.8943 51.5101 42.7434C51.4846 42.7145 51.4513 42.6936 51.4142 42.6833C51.3771 42.6729 51.3376 42.6734 51.3004 42.6847C51.2632 42.6961 51.2298 42.7178 51.2039 42.7474C51.1781 42.7769 51.1609 42.8132 51.1544 42.8518C50.4171 47.6145 48.9307 51.8422 46.6954 55.5349C43.503 60.8094 36.8188 64.1233 30.6681 62.5401C30.5069 62.4996 30.3667 62.4013 30.2739 62.2639C30.1811 62.1266 30.1422 61.9597 30.1647 61.7949C30.1872 61.6301 30.2694 61.479 30.3958 61.3701C30.5221 61.2612 30.6839 61.2021 30.8503 61.2041C40.0199 61.3646 44.8086 53.9734 46.7345 46.053C49.0334 36.6231 51.9092 18.9995 65.8675 20.0059C66.0526 20.0203 66.1335 20.1201 66.1104 20.3052C66.0367 20.9471 65.5899 21.4156 64.9002 21.485C57.1446 22.2874 53.8437 31.9776 52.2909 38.3104C52.2544 38.4586 52.2729 38.6157 52.3429 38.7528C53.6731 41.2282 55.6858 42.8547 58.3808 43.6326C58.5399 43.6789 58.6989 43.6774 58.858 43.6283C65.5682 41.5809 68.392 28.9413 68.1664 23.1463C67.8454 14.8485 59.0705 9.41784 51.9786 14.6446C47.8145 17.72 46.0318 23.1332 44.8129 27.9306C41.6031 40.5876 37.7297 50.6812 22.2098 48.7076C21.4869 48.615 21.1919 48.2695 21.325 47.6709C21.3538 47.542 21.4245 47.4263 21.5258 47.3423C21.6271 47.2582 21.7534 47.2105 21.8845 47.2068C29.6488 46.9783 35.0794 43.449 38.1764 36.6188C42.5877 26.8896 41.9284 13.5125 54.9672 10.3678C56.9567 9.88775 59.0127 9.87763 61.1352 10.3374C70.8817 12.4411 72.6298 22.6258 70.6475 30.8411C69.6903 34.7999 68.0493 38.3451 65.7243 41.4768Z" fill="#171716"/>
<path d="M20.5611 57.0878C20.8213 78.381 39.7244 90.0664 59.4561 85.6984C59.8002 85.6204 59.9592 85.7577 59.9332 86.1105C59.8117 87.6373 56.4198 88.4138 55.2486 88.6306C45.1508 90.5218 35.4693 87.594 27.6183 81.1613C19.7499 74.7157 16.3146 64.1407 17.1127 54.2597C17.2732 52.2688 18.5267 51.4056 20.3745 52.3035C20.5076 52.3671 20.5726 52.4726 20.5697 52.6201C20.5437 54.1122 20.5408 55.6015 20.5611 57.0878Z" fill="#171716"/>
</svg>
