<svg width="100" height="100" viewBox="0 0 100 100" fill="none" xmlns="http://www.w3.org/2000/svg">
<rect width="100" height="100" fill="#595C62"/>
<path d="M16.9756 52.4102L20.3506 52.082C20.5537 53.2148 20.9639 54.0469 21.5811 54.5781C22.2061 55.1094 23.0459 55.375 24.1006 55.375C25.2178 55.375 26.0577 55.1406 26.6202 54.6719C27.1905 54.1953 27.4756 53.6406 27.4756 53.0078C27.4756 52.6016 27.3545 52.2578 27.1123 51.9766C26.878 51.6875 26.4639 51.4375 25.8702 51.2266C25.4639 51.0859 24.5381 50.8359 23.0928 50.4766C21.2334 50.0156 19.9287 49.4492 19.1787 48.7773C18.1241 47.832 17.5967 46.6797 17.5967 45.3203C17.5967 44.4453 17.8428 43.6289 18.335 42.8711C18.835 42.1055 19.5498 41.5234 20.4795 41.125C21.417 40.7266 22.5459 40.5273 23.8662 40.5273C26.0225 40.5273 27.6436 41 28.7295 41.9453C29.8233 42.8906 30.3975 44.1523 30.4522 45.7305L26.9834 45.8828C26.835 45 26.5147 44.3672 26.0225 43.9844C25.5381 43.5938 24.8077 43.3984 23.8311 43.3984C22.8233 43.3984 22.0342 43.6055 21.4639 44.0195C21.0967 44.2852 20.9131 44.6406 20.9131 45.0859C20.9131 45.4922 21.085 45.8398 21.4287 46.1289C21.8662 46.4961 22.9287 46.8789 24.6162 47.2773C26.3037 47.6758 27.5498 48.0898 28.3545 48.5195C29.167 48.9414 29.7998 49.5234 30.253 50.2656C30.7139 51 30.9444 51.9102 30.9444 52.9961C30.9444 53.9805 30.6709 54.9023 30.1241 55.7617C29.5772 56.6211 28.8037 57.2617 27.8037 57.6836C26.8037 58.0977 25.5577 58.3047 24.0655 58.3047C21.8936 58.3047 20.2256 57.8047 19.0616 56.8047C17.8975 55.7969 17.2022 54.332 16.9756 52.4102ZM34.2341 58V40.8203H37.7028V47.582H44.4997V40.8203H47.9684V58H44.4997V50.4883H37.7028V58H34.2341ZM51.0472 52.4102L54.4222 52.082C54.6253 53.2148 55.0355 54.0469 55.6527 54.5781C56.2777 55.1094 57.1175 55.375 58.1722 55.375C59.2894 55.375 60.1292 55.1406 60.6917 54.6719C61.262 54.1953 61.5472 53.6406 61.5472 53.0078C61.5472 52.6016 61.4261 52.2578 61.1839 51.9766C60.9495 51.6875 60.5355 51.4375 59.9417 51.2266C59.5355 51.0859 58.6097 50.8359 57.1644 50.4766C55.305 50.0156 54.0003 49.4492 53.2503 48.7773C52.1956 47.832 51.6683 46.6797 51.6683 45.3203C51.6683 44.4453 51.9144 43.6289 52.4066 42.8711C52.9066 42.1055 53.6214 41.5234 54.5511 41.125C55.4886 40.7266 56.6175 40.5273 57.9378 40.5273C60.0941 40.5273 61.7152 41 62.8011 41.9453C63.8948 42.8906 64.4691 44.1523 64.5238 45.7305L61.055 45.8828C60.9066 45 60.5863 44.3672 60.0941 43.9844C59.6097 43.5938 58.8792 43.3984 57.9027 43.3984C56.8948 43.3984 56.1058 43.6055 55.5355 44.0195C55.1683 44.2852 54.9847 44.6406 54.9847 45.0859C54.9847 45.4922 55.1566 45.8398 55.5003 46.1289C55.9378 46.4961 57.0003 46.8789 58.6878 47.2773C60.3753 47.6758 61.6214 48.0898 62.4261 48.5195C63.2386 48.9414 63.8714 49.5234 64.3245 50.2656C64.7855 51 65.0159 51.9102 65.0159 52.9961C65.0159 53.9805 64.7425 54.9023 64.1956 55.7617C63.6488 56.6211 62.8753 57.2617 61.8753 57.6836C60.8753 58.0977 59.6292 58.3047 58.137 58.3047C55.9652 58.3047 54.2972 57.8047 53.1331 56.8047C51.9691 55.7969 51.2738 54.332 51.0472 52.4102ZM83.7861 58H80.0127L78.5127 54.0977H71.6455L70.2275 58H66.5478L73.2392 40.8203H76.9072L83.7861 58ZM77.3994 51.2031L75.0322 44.8281L72.7119 51.2031H77.3994Z" fill="#F8F8F8"/>
</svg>
