<svg width="100" height="100" viewBox="0 0 100 100" fill="none" xmlns="http://www.w3.org/2000/svg">
<rect width="100" height="100" fill="#595C62"/>
<path d="M22.3077 52.4102L25.6827 52.082C25.8858 53.2148 26.2959 54.0469 26.9131 54.5781C27.5381 55.1094 28.378 55.375 29.4327 55.375C30.5498 55.375 31.3897 55.1406 31.9522 54.6719C32.5225 54.1953 32.8077 53.6406 32.8077 53.0078C32.8077 52.6016 32.6866 52.2578 32.4444 51.9766C32.21 51.6875 31.7959 51.4375 31.2022 51.2266C30.7959 51.0859 29.8702 50.8359 28.4248 50.4766C26.5655 50.0156 25.2608 49.4492 24.5108 48.7773C23.4561 47.832 22.9287 46.6797 22.9287 45.3203C22.9287 44.4453 23.1748 43.6289 23.667 42.8711C24.167 42.1055 24.8819 41.5234 25.8116 41.125C26.7491 40.7266 27.878 40.5273 29.1983 40.5273C31.3545 40.5273 32.9756 41 34.0616 41.9453C35.1553 42.8906 35.7295 44.1523 35.7842 45.7305L32.3155 45.8828C32.167 45 31.8467 44.3672 31.3545 43.9844C30.8702 43.5938 30.1397 43.3984 29.1631 43.3984C28.1553 43.3984 27.3662 43.6055 26.7959 44.0195C26.4287 44.2852 26.2452 44.6406 26.2452 45.0859C26.2452 45.4922 26.417 45.8398 26.7608 46.1289C27.1983 46.4961 28.2608 46.8789 29.9483 47.2773C31.6358 47.6758 32.8819 48.0898 33.6866 48.5195C34.4991 48.9414 35.1319 49.5234 35.585 50.2656C36.0459 51 36.2764 51.9102 36.2764 52.9961C36.2764 53.9805 36.003 54.9023 35.4561 55.7617C34.9092 56.6211 34.1358 57.2617 33.1358 57.6836C32.1358 58.0977 30.8897 58.3047 29.3975 58.3047C27.2256 58.3047 25.5577 57.8047 24.3936 56.8047C23.2295 55.7969 22.5342 54.332 22.3077 52.4102ZM39.4489 58V40.8203H42.9177V58H39.4489ZM62.0862 58H58.3128L56.8128 54.0977H49.9456L48.5277 58H44.848L51.5394 40.8203H55.2073L62.0862 58ZM55.6995 51.2031L53.3323 44.8281L51.012 51.2031H55.6995ZM64.2978 58V40.8203H69.8642C71.9736 40.8203 73.3486 40.9062 73.9892 41.0781C74.9736 41.3359 75.7978 41.8984 76.4619 42.7656C77.1259 43.625 77.458 44.7383 77.458 46.1055C77.458 47.1602 77.2666 48.0469 76.8838 48.7656C76.5009 49.4844 76.0127 50.0508 75.4189 50.4648C74.833 50.8711 74.2353 51.1406 73.6259 51.2734C72.7978 51.4375 71.5986 51.5195 70.0283 51.5195H67.7666V58H64.2978ZM67.7666 43.7266V48.6016H69.665C71.0322 48.6016 71.9463 48.5117 72.4072 48.332C72.8681 48.1523 73.2275 47.8711 73.4853 47.4883C73.7509 47.1055 73.8838 46.6602 73.8838 46.1523C73.8838 45.5273 73.7002 45.0117 73.333 44.6055C72.9658 44.1992 72.5009 43.9453 71.9384 43.8438C71.5244 43.7656 70.6923 43.7266 69.4423 43.7266H67.7666Z" fill="#F8F8F8"/>
</svg>
