<svg width="100" height="100" viewBox="0 0 100 100" fill="none" xmlns="http://www.w3.org/2000/svg">
<rect width="100" height="100" fill="#D8F8FF"/>
<path d="M42.4056 27.3576C44.7622 25.7671 46.6152 23.7178 47.9645 21.2095C48.052 21.0422 48.0885 20.8516 48.0695 20.6612C47.6729 17.1497 47.7954 13.6616 48.437 10.1967C48.4507 10.1397 48.4835 10.0891 48.53 10.0533C48.5765 10.0175 48.6339 9.99871 48.6925 10.0001C48.7512 10.0014 48.8076 10.0229 48.8524 10.0608C48.8972 10.0987 48.9276 10.1508 48.9387 10.2084C49.3353 13.0238 50.115 15.7265 51.2777 18.3164C53.5876 23.4611 52.8293 26.4535 48.8162 30.2391C42.4581 36.2472 36.2634 41.4211 39.5183 50.7598C39.5309 50.7843 39.5386 50.8111 39.5409 50.8385C39.5432 50.866 39.5401 50.8937 39.5317 50.92C39.5233 50.9462 39.5098 50.9706 39.492 50.9916C39.4742 51.0127 39.4524 51.03 39.4279 51.0427C39.4034 51.0553 39.3766 51.063 39.3491 51.0653C39.3216 51.0676 39.294 51.0645 39.2677 51.0561C39.2414 51.0477 39.2171 51.0342 39.196 51.0164C39.1749 50.9986 39.1576 50.9768 39.145 50.9523C36.2401 46.6883 34.0119 41.0011 34.8168 35.9672C35.8318 29.6208 40.3757 26.5293 44.7622 22.4345C46.2671 21.0307 46.8951 19.2963 46.6463 17.2314C46.6307 17.1147 46.6813 17.0467 46.7979 17.0272C46.8757 17.0117 46.9263 17.0428 46.9496 17.1206C48.2912 21.5829 45.2988 24.3944 42.3298 27.2643C41.9876 27.5909 42.0129 27.622 42.4056 27.3576Z" fill="#F58345"/>
<path d="M42.3707 53.2154C42.3785 53.4915 42.4816 53.8007 42.6799 54.1429C42.4543 54.2868 42.2268 54.594 41.9974 55.0645C38.8476 49.6125 38.6045 44.5261 41.2683 39.8052C43.9398 35.0746 49.7262 31.6156 52.4619 26.7567C52.4704 26.7418 52.4821 26.7291 52.4963 26.7196C52.5105 26.71 52.5267 26.7039 52.5436 26.7016C52.5606 26.6993 52.5778 26.701 52.594 26.7065C52.6102 26.7121 52.6249 26.7212 52.6369 26.7334C52.6758 26.7761 52.7147 26.817 52.7536 26.8559C52.7847 26.8831 52.7925 26.9161 52.7769 26.955C51.377 30.3149 49.3179 32.9981 46.8038 35.2963C45.6645 36.3423 45.7228 36.4143 46.9788 35.5121C49.8915 33.42 51.9836 30.5735 53.2552 26.9725C54.2585 24.1377 53.4477 21.0811 52.3569 18.4271C52.3406 18.3897 52.3383 18.3476 52.3505 18.3086C52.3628 18.2696 52.3887 18.2364 52.4236 18.2151C52.4584 18.1937 52.4998 18.1857 52.5401 18.1926C52.5804 18.1994 52.6168 18.2205 52.6427 18.2521C61.7365 29.4399 56.8192 35.3779 46.798 42.7043C43.3021 45.2591 41.8263 48.7629 42.3707 53.2154Z" fill="#E9572E"/>
<path d="M57.7873 53.6996C55.0808 50.2387 52.699 46.6435 50.6418 42.9143C57.5132 38.1428 63.6146 32.0998 56.9707 23.706C56.9384 23.6645 56.9219 23.6129 56.9242 23.5603C56.9265 23.5078 56.9474 23.4578 56.9831 23.4192C57.0189 23.3806 57.0672 23.3561 57.1194 23.3498C57.1716 23.3436 57.2244 23.3561 57.2682 23.3852C64.437 28.1275 69.0685 37.6354 64.5653 45.7141C63.1149 48.3118 60.8555 50.9736 57.7873 53.6996Z" fill="#ED1C24"/>
<path d="M49.9361 42.9085C50.0372 42.8774 50.0139 42.9494 49.8661 43.1244C48.8745 43.8127 48.6081 44.3668 49.067 44.7868C47.2159 48.0922 45.0869 51.2109 42.6798 54.143C42.4814 53.8008 42.3784 53.4916 42.3706 53.2155C42.4017 53.0639 42.4931 52.9297 42.6448 52.8131C42.7886 52.7003 42.8586 52.5525 42.8547 52.3698C42.7206 47.7266 45.8588 44.4368 49.3469 41.7303C52.4385 39.3212 57.4899 35.903 58.639 32.0241C58.7012 31.8141 58.7615 31.8141 58.8198 32.0241C59.8348 35.7222 52.5085 40.8086 49.9361 42.9085Z" fill="#ED1C24"/>
<path d="M49.9361 42.9085C50.2705 43.0407 50.5058 43.0427 50.6419 42.9144C52.699 46.6436 55.0808 50.2387 57.7874 53.6997C60.4006 56.8495 64.2737 60.4019 66.3619 63.9659C71.0984 72.033 67.6394 79.2951 61.573 85.1807C58.7031 87.9611 55.2753 89.5671 51.2893 89.9988C51.2692 90.0022 51.2484 89.9989 51.2303 89.9894C51.2122 89.9798 51.1977 89.9646 51.1891 89.946C51.1804 89.9275 51.1782 89.9066 51.1826 89.8866C51.187 89.8666 51.1979 89.8486 51.2135 89.8354L51.4002 89.6488C51.4818 89.5671 51.579 89.5185 51.6918 89.503C56.856 88.7874 60.0914 86.0265 61.398 81.22C62.4188 77.4635 61.153 74.7862 58.9015 71.3097C55.1994 65.5933 52.5143 59.4413 50.846 52.8539C50.6127 51.9284 50.3697 51.9264 50.1169 52.8481C48.6236 58.3253 46.3079 64.695 43.0764 69.6414C41.9856 71.3097 40.6323 72.9662 40.0024 74.7337C38.1416 79.9892 40.2649 86.2423 45.7421 88.3772C47.0837 88.9021 48.4311 89.3746 49.7844 89.7946C49.803 89.7977 49.8195 89.808 49.8305 89.8234C49.8414 89.8387 49.8458 89.8577 49.8427 89.8763C49.8396 89.8948 49.8293 89.9114 49.814 89.9223C49.7987 89.9333 49.7796 89.9377 49.7611 89.9346C42.9072 89.7946 36.345 83.0866 33.7902 77.4985C31.4803 72.4413 32.1219 66.859 35.4526 62.5601C36.2887 61.479 38.4702 58.9805 41.9973 55.0646C42.2267 54.5941 42.4542 54.2869 42.6797 54.143C45.0869 51.2109 47.2159 48.0922 49.0669 44.7868L49.8661 43.1244C50.0138 42.9494 50.0372 42.8774 49.9361 42.9085Z" fill="#0071BC"/>
<path d="M49.866 43.1243L49.0669 44.7867C48.608 44.3667 48.8744 43.8126 49.866 43.1243Z" fill="black"/>
<mask id="mask0_105_1787" style="mask-type:alpha" maskUnits="userSpaceOnUse" x="42" y="71" width="16" height="16">
<ellipse cx="50.1519" cy="79.1549" rx="7.7288" ry="7.72879" fill="#D9D9D9"/>
</mask>
<g mask="url(#mask0_105_1787)">
<ellipse cx="50.1519" cy="79.1549" rx="7.7288" ry="7.72879" fill="#9DC53E"/>
<path fill-rule="evenodd" clip-rule="evenodd" d="M50.0242 73.7607L50.125 69.9647C50.0542 69.993 49.9839 70.022 49.914 70.0519C48.8215 71.163 47.9275 72.4698 47.2893 73.9149L50.0242 73.7607ZM50.0141 74.1422L47.147 74.25C46.5562 75.697 46.219 77.2745 46.1905 78.9272L48.8768 78.8458L49.8885 78.8727L50.0141 74.1422ZM46.7568 73.9449C47.3076 72.6892 48.0513 71.5372 48.9505 70.5267C47.4648 71.3625 46.2168 72.5709 45.3331 74.0252L46.7568 73.9449ZM45.1582 74.3248L46.6196 74.2698C46.032 75.716 45.6974 77.2921 45.671 78.943L43.9022 78.9966C43.9288 77.3016 44.3816 75.7102 45.1582 74.3248ZM44.9235 74.0483L29.748 74.9041L44.7541 74.34C43.9808 75.7251 43.5309 77.3153 43.5063 79.0086L29.7481 79.4255L43.5136 79.5645C43.5772 81.1274 44.0035 82.5969 44.7105 83.891L29.748 83.3285L44.8756 84.1816C45.9041 85.9215 47.4501 87.3192 49.3019 88.1626C49.4264 88.2919 49.5535 88.4185 49.6833 88.5425C48.7587 88.8506 47.7735 89.026 46.7501 89.0459C46.8163 89.0472 46.8827 89.0479 46.9492 89.0479C47.9338 89.0479 48.8848 88.904 49.7823 88.6362L49.8118 88.6638L49.8676 88.7153C47.6144 90.7871 44.6269 92.0726 41.34 92.1368C41.4268 92.1385 41.5137 92.1393 41.6008 92.1393C44.8498 92.1393 47.82 90.9461 50.0972 88.9739L50.4227 99.7136L50.528 89.2831C52.7526 91.0701 55.5783 92.1393 58.6537 92.1393C58.7408 92.1393 58.8278 92.1385 58.9145 92.1368C55.6979 92.074 52.768 90.8415 50.5324 88.8471L50.5347 88.6271C51.4411 88.9008 52.4024 89.0479 53.3981 89.0479C53.4647 89.0479 53.5311 89.0472 53.5973 89.0459C52.5486 89.0255 51.5398 88.8418 50.5954 88.5194C50.6925 88.4261 50.7881 88.3314 50.8822 88.2352C52.8004 87.4033 54.4032 85.9813 55.4619 84.1982L70.9425 83.3285L55.6309 83.902C56.3439 82.6007 56.7729 81.1217 56.8344 79.5483L70.7107 79.4255L56.8416 79.0573C56.825 77.3414 56.3716 75.73 55.5871 74.329L70.9425 74.9041L55.4138 74.0317C54.3551 72.2862 52.7716 70.8943 50.8823 70.0748C50.7881 69.9786 50.6925 69.8838 50.5954 69.7906C51.539 69.4683 52.5469 69.2848 53.5946 69.2641C53.5293 69.2628 53.4638 69.2621 53.3981 69.2621C52.3969 69.2621 51.4303 69.4109 50.5195 69.6875L50.5176 69.476C52.7545 67.4743 55.6894 66.2366 58.9122 66.1731C58.8262 66.1714 58.74 66.1706 58.6537 66.1706C55.5716 66.1706 52.7404 67.2444 50.5137 69.0383L50.4227 58.751L50.1413 69.35L50.1273 69.3622C47.8462 67.3744 44.8641 66.1706 41.6008 66.1706C41.5145 66.1706 41.4283 66.1714 41.3424 66.1731C44.6283 66.2379 47.615 67.5233 49.8676 69.5946C49.8391 69.6208 49.8106 69.6472 49.7823 69.6738C48.8848 69.406 47.9338 69.2621 46.9492 69.2621C46.8836 69.2621 46.8181 69.2628 46.7528 69.2641C47.7752 69.2842 48.7595 69.4595 49.6833 69.7674C49.5535 69.8914 49.4263 70.0181 49.3018 70.1474C47.4786 70.9779 45.9517 72.3456 44.9235 74.0483ZM55.0042 74.0087C54.085 72.5024 52.7743 71.2611 51.2135 70.4261C52.1482 71.4548 52.92 72.6342 53.4883 73.9235L55.0042 74.0087ZM53.1018 74.2359C53.7029 75.7032 54.0431 77.305 54.0648 78.9835L50.6009 78.8916L50.5589 74.1407L53.1018 74.2359ZM52.9558 73.8936L50.5555 73.7587L50.5244 70.2427C51.5283 71.306 52.3546 72.5388 52.9558 73.8936ZM53.6291 74.2556L55.1831 74.3138C55.9711 75.7155 56.4275 77.3286 56.4459 79.0468L54.5843 78.9973C54.5643 77.3213 54.2268 75.7216 53.6291 74.2556ZM49.8689 79.6099L48.8768 79.6187L46.1958 79.5916C46.2469 81.1387 46.5687 82.6172 47.1152 83.9814L49.9492 84.088L49.843 80.5848L49.8689 79.6099ZM45.6763 79.5864C45.7267 81.1278 46.0457 82.6014 46.588 83.9616L45.1145 83.9062C44.4031 82.6095 43.9739 81.1361 43.9094 79.5685L45.6763 79.5864ZM46.7224 84.2857L45.285 84.2047C46.1712 85.6947 47.4376 86.9321 48.9505 87.7831C48.0324 86.7514 47.2764 85.5723 46.7224 84.2857ZM56.4387 79.5518C56.3764 81.13 55.9444 82.6132 55.227 83.9171L53.6608 83.9758C54.2088 82.6063 54.5302 81.1216 54.5788 79.5682L56.4387 79.5518ZM54.0593 79.5728C54.01 81.132 53.6858 82.6219 53.1336 83.9955L50.5805 84.0912L50.6159 80.5848L50.6072 79.6034L54.0593 79.5728ZM52.9906 84.3371L50.5766 84.4727L50.5405 88.0501C51.5566 86.97 52.3898 85.7158 52.9906 84.3371ZM50.0776 88.3261L49.9607 84.4684L47.2547 84.3158C47.895 85.7924 48.8016 87.1267 49.9141 88.2581C49.9683 88.2812 50.0228 88.3039 50.0776 88.3261ZM55.0525 84.2212L53.5229 84.3072C52.9516 85.6274 52.1674 86.834 51.2136 87.8837C52.8018 87.0341 54.1312 85.7636 55.0525 84.2212Z" fill="white"/>
</g>
</svg>
