<svg width="100" height="100" viewBox="0 0 100 100" fill="none" xmlns="http://www.w3.org/2000/svg">
<rect width="100" height="100" fill="#E5B670"/>
<path d="M78.6111 19.6379C77.2717 20.3285 74.9442 20.6321 74.2715 21.7333C72.5809 24.5113 70.8209 27.2714 68.9914 30.0137C68.8842 30.1764 68.7334 30.2578 68.539 30.2578L59.4312 30.234L67.646 17.4592C67.6912 17.3876 67.7214 17.3075 67.7347 17.2236C67.748 17.1396 67.7442 17.0538 67.7234 16.9711L67.0448 14.2328C67.0128 14.1027 67.0103 13.9671 67.0374 13.8358C67.0646 13.7046 67.1208 13.5812 67.2018 13.4745C67.2828 13.3677 67.3867 13.2805 67.5058 13.2191C67.6249 13.1577 67.7562 13.1237 67.8901 13.1196C70.3665 13.0363 73.581 12.5719 75.5752 14.2864C76.4642 15.0563 77.4761 16.8401 78.6111 19.6379Z" fill="#7E3F17"/>
<path d="M71.3609 33.0079C71.5446 33.0072 71.7266 33.0426 71.8966 33.1122C72.0667 33.1817 72.2213 33.2841 72.3518 33.4135C72.4822 33.5428 72.5859 33.6966 72.657 33.866C72.728 34.0354 72.7649 34.2172 72.7657 34.4009V34.7521C72.7694 35.8881 72.3765 36.9788 71.6733 37.7847C70.9701 38.5906 70.0141 39.0457 69.0154 39.0501L24.786 39.2048C24.2908 39.207 23.8 39.0981 23.3417 38.8844C22.8834 38.6708 22.4665 38.3565 22.1149 37.9595C21.7633 37.5626 21.4838 37.0908 21.2925 36.5711C21.1012 36.0513 21.0018 35.4939 21 34.9307V34.5795C20.9992 34.3958 21.0346 34.2137 21.1042 34.0437C21.1738 33.8737 21.2762 33.719 21.4055 33.5886C21.5349 33.4581 21.6887 33.3544 21.8581 33.2834C22.0275 33.2124 22.2093 33.1754 22.393 33.1746L71.3609 33.0079Z" fill="#7E3F17"/>
<path d="M68.932 40.7585H24.5955C24.51 40.7585 24.4407 40.8278 24.4407 40.9133V42.3896C24.4407 42.4751 24.51 42.5444 24.5955 42.5444H68.932C69.0175 42.5444 69.0868 42.4751 69.0868 42.3896V40.9133C69.0868 40.8278 69.0175 40.7585 68.932 40.7585Z" fill="#7E3F17"/>
<path d="M31.5664 86C31.4263 86.0005 31.2881 85.968 31.1628 85.9052C31.0376 85.8424 30.9287 85.7509 30.8448 85.6382C30.761 85.5254 30.7045 85.3945 30.6799 85.2557C30.6553 85.117 30.6633 84.9744 30.7032 84.8392C31.5247 82.1128 32.9593 79.44 31.864 76.4814C28.0264 66.1354 25.8715 55.4342 25.3993 44.3778C25.3985 44.3523 25.4028 44.3269 25.412 44.3031C25.4212 44.2793 25.4351 44.2576 25.4529 44.2393C25.4707 44.221 25.4919 44.2064 25.5155 44.1964C25.539 44.1865 25.5642 44.1814 25.5898 44.1814H68.1583C68.1867 44.1814 68.2148 44.1871 68.2409 44.1983C68.267 44.2095 68.2905 44.2259 68.31 44.2466C68.3296 44.2672 68.3447 44.2916 68.3544 44.3183C68.3641 44.3449 68.3683 44.3733 68.3667 44.4017C67.8468 55.2279 65.7554 65.7346 62.0924 75.9218C60.9912 78.9875 61.4376 81.1901 62.902 83.8927C63.0197 84.1104 63.079 84.355 63.0742 84.6024C63.0694 84.8499 63.0005 85.0917 62.8745 85.3042C62.7485 85.5166 62.5695 85.6925 62.3552 85.8145C62.1409 85.9364 61.8985 86.0004 61.6519 86H31.5664Z" fill="#7E3F17"/>
<path d="M60.6634 56.1346L61.8361 59.5337C63.0664 65.3833 62.2389 70.5663 59.3538 75.0825C53.1391 84.8153 40.7096 85.1784 34.4055 75.2491C32.2387 71.8362 31.191 68.1454 31.2625 64.1769C31.5601 46.7827 52.4069 38.4964 60.6634 56.1346Z" fill="white"/>
<path d="M43.2993 66.9154C43.5096 66.3082 43.8648 65.9073 44.3649 65.7129" stroke="#BF9F8B" stroke-width="1.19056"/>
<path d="M44.3649 65.7127C44.6665 65.6413 44.8113 65.3793 44.7994 64.9269C44.7955 64.661 44.6605 64.538 44.3947 64.5579L44.0137 64.5817" stroke="#A97F62" stroke-width="1.19056"/>
<path d="M44.0135 64.5818L43.7575 62.6948C43.7297 62.5122 43.6305 62.3852 43.4599 62.3138C42.2018 61.8058 41.1105 61.8654 40.1858 62.4924C39.6144 62.8813 39.5608 63.2801 40.0251 63.6889" stroke="#BF9F8B" stroke-width="1.19056"/>
<path d="M40.0253 63.6887C39.8587 63.9745 39.7892 64.1451 39.817 64.2007" stroke="#A97F62" stroke-width="1.19056"/>
<path d="M39.8169 64.2008C39.5113 65.4191 39.5689 66.2406 39.9895 66.6653" stroke="#BF9F8B" stroke-width="1.19056"/>
<path d="M44.0135 64.5817C44.0016 64.9706 44.1187 65.3476 44.3647 65.7127" stroke="#E9DFD6" stroke-width="1.19056"/>
<path d="M43.299 66.9153L42.3883 67.0999C42.1501 67.1515 42.0033 67.0582 41.9477 66.8201L41.7275 65.8736C41.6838 65.6791 41.5668 65.5521 41.3763 65.4926L41.1203 65.4093C40.9417 65.3537 40.8544 65.4192 40.8584 65.6057C40.8782 66.2724 40.5885 66.6256 39.9893 66.6653" stroke="#E9DFD6" stroke-width="1.19056"/>
<path d="M39.8169 64.2007L40.7158 64.7067C41.0491 64.8932 41.1603 64.8039 41.0491 64.4388C40.9301 64.03 40.5888 63.78 40.0252 63.6887" stroke="#E9DFD6" stroke-width="1.19056"/>
<path d="M59.1815 56.3668C59.8718 57.9115 60.3264 59.4387 60.6875 60.9207C61.6876 66.2187 60.5189 71.225 57.1813 75.9396C57.0027 76.1897 56.9313 76.1619 56.967 75.8563C57.102 74.7372 56.9928 73.6498 56.6396 72.5942C56.5722 72.3878 56.5682 72.1795 56.6277 71.9691C57.3956 69.1534 58.0862 65.6829 57.4849 62.9506C57.0504 60.9445 54.5978 59.5218 52.931 58.5931C52.8433 58.5435 52.7691 58.473 52.7151 58.3878C52.6611 58.3027 52.629 58.2055 52.6215 58.105C52.558 57.2795 52.9251 56.6565 53.7227 56.2358C53.7713 56.2099 53.8119 56.1713 53.8402 56.1241C53.8685 56.0769 53.8835 56.023 53.8835 55.9679C53.8835 55.9129 53.8685 55.8589 53.8402 55.8117C53.8119 55.7646 53.7713 55.7259 53.7227 55.7001L53.0382 55.3429C52.8159 55.2238 52.6889 55.0413 52.6572 54.7952C52.3536 52.4915 51.2047 51.2831 48.8057 51.4914C48.714 51.4989 48.6251 51.5257 48.545 51.5698C48.465 51.614 48.3955 51.6745 48.3414 51.7474C47.5675 52.7951 47.6449 53.7495 48.5736 54.6107C48.6162 54.6513 48.6439 54.7051 48.6522 54.7634C48.6605 54.8216 48.6489 54.881 48.6194 54.9319C48.5898 54.9828 48.5439 55.0223 48.4892 55.0439C48.4344 55.0656 48.374 55.0681 48.3176 55.0512L47.7759 54.8786C47.4941 54.7913 47.3552 54.8944 47.3592 55.1881C47.387 56.7636 48.0001 58.0792 49.1986 59.1348C49.2689 59.1965 49.3562 59.2356 49.4495 59.2473C49.5428 59.2589 49.6379 59.2426 49.7225 59.2003L51.0261 58.5515C51.0886 58.516 51.162 58.5049 51.2322 58.5202C51.3024 58.5355 51.3645 58.5762 51.4065 58.6345C51.4486 58.6928 51.4677 58.7645 51.4601 58.836C51.4525 58.9074 51.4188 58.9736 51.3654 59.0217L49.2284 61.1647C49.1854 61.2076 49.152 61.259 49.1304 61.3155C49.1089 61.3719 49.0996 61.4322 49.1034 61.4922L49.145 62.3255C49.1212 62.4605 48.9486 62.518 48.6271 62.4982L48.6212 60.5814C48.6212 60.3353 48.5041 60.248 48.27 60.3194C45.0376 61.2957 45.6269 65.0638 45.2102 67.82C44.3848 67.6176 43.7478 67.316 43.2994 66.9152C43.5097 66.308 43.8649 65.9072 44.3649 65.7127C44.6665 65.6413 44.8114 65.3793 44.7995 64.9269C44.7955 64.661 44.6606 64.538 44.3947 64.5579L44.0137 64.5817L43.7577 62.6946C43.7299 62.5121 43.6307 62.3851 43.4601 62.3136C42.2021 61.8057 41.1107 61.8652 40.186 62.4922C39.6146 62.8811 39.561 63.28 40.0253 63.6887C39.8586 63.9745 39.7892 64.1451 39.817 64.2007C39.5114 65.419 39.5689 66.2405 39.9896 66.6652C40.3428 67.1573 40.7893 67.4132 41.329 67.4331C41.6703 67.441 41.7219 67.566 41.4838 67.8081L41.1266 68.1653C40.948 68.3399 40.7774 68.3339 40.6146 68.1474C39.9757 67.4093 39.1899 67.5462 38.2573 68.5581C35.4893 69.8559 36.3584 72.1656 36.1441 74.5824C36.0528 75.5587 35.779 75.6142 35.3226 74.7491C32.5446 69.4828 31.8838 64.157 33.3403 58.7717C36.8465 45.8124 53.8001 43.0205 59.1815 56.3668Z" fill="#7E3F17"/>
<path d="M46.7043 54.0631C45.74 52.1523 46.4781 50.2533 48.6509 49.8842C48.6996 49.8783 48.7488 49.8897 48.7899 49.9165C48.831 49.9432 48.8614 49.9837 48.8756 50.0306C48.8899 50.0776 48.887 50.128 48.8677 50.1731C48.8484 50.2182 48.8138 50.2551 48.7699 50.2771C47.2579 50.9716 46.742 52.1662 47.2222 53.8607C47.2399 53.9272 47.2325 53.9978 47.2014 54.0592C47.1703 54.1205 47.1177 54.1683 47.0537 54.1933C46.9896 54.2183 46.9186 54.2189 46.8542 54.1949C46.7897 54.1709 46.7364 54.124 46.7043 54.0631Z" fill="#D3BEAC"/>
<path d="M52.6985 50.182C55.3575 51.4916 56.1551 53.4977 55.0916 56.2003C55.0734 56.2658 55.03 56.3214 54.9708 56.3549C54.9116 56.3884 54.8416 56.397 54.7761 56.3788C54.7105 56.3607 54.6549 56.3172 54.6214 56.2581C54.5879 56.1989 54.5793 56.1289 54.5975 56.0633C54.8634 54.5116 54.4189 53.077 53.264 51.7595C52.8275 51.2634 52.5438 50.8229 52.4128 50.4379C52.3017 50.1204 52.3969 50.0351 52.6985 50.182Z" fill="#D3BEAC"/>
<path d="M50.7522 55.2536C50.1212 55.1623 49.8117 54.7793 49.8236 54.1047C49.8249 53.9644 49.8772 53.8295 49.9708 53.725C50.0643 53.6205 50.1927 53.5536 50.3319 53.5369C50.4712 53.5201 50.6118 53.5546 50.7274 53.6339C50.8431 53.7131 50.926 53.8318 50.9606 53.9677L51.1749 54.7773C51.2741 55.1504 51.1332 55.3091 50.7522 55.2536Z" fill="#D3BEAC"/>
<path d="M48.5435 57.6526L48.6983 56.2656C48.7038 56.2182 48.7244 56.174 48.7571 56.1394C48.7899 56.1048 48.8329 56.0818 48.8799 56.0737C48.9268 56.0657 48.9751 56.0731 49.0175 56.0948C49.0599 56.1165 49.0941 56.1513 49.115 56.1941L49.6329 57.2835C49.7321 57.4938 49.6785 57.6526 49.4722 57.7597L49.0376 57.9859C48.9835 58.014 48.9227 58.027 48.8618 58.0235C48.8009 58.02 48.7421 58.0002 48.6915 57.966C48.641 57.9319 48.6005 57.8848 48.5745 57.8296C48.5484 57.7745 48.5377 57.7133 48.5435 57.6526Z" fill="#D3BEAC"/>
<path d="M38.9061 63.9151C38.9034 63.9336 38.8949 63.9508 38.8818 63.9642C38.8688 63.9776 38.8519 63.9866 38.8335 63.9899C38.815 63.9932 38.7961 63.9906 38.7792 63.9825C38.7623 63.9745 38.7484 63.9613 38.7394 63.9449C37.5727 61.8852 40.1919 61.0399 41.4301 60.1946C41.5641 60.1039 41.7224 60.056 41.8842 60.0574C42.046 60.0588 42.2035 60.1093 42.3359 60.2023C42.4683 60.2953 42.5693 60.4264 42.6254 60.5781C42.6816 60.7298 42.6903 60.895 42.6504 61.0518C42.6306 61.1272 42.5056 61.157 42.2754 61.1411C40.43 60.9863 39.3069 61.911 38.9061 63.9151Z" fill="#D3BEAC"/>
<path d="M48.9305 67.5224C48.879 67.4788 48.8274 67.4371 48.7758 67.3974C49.1766 66.6474 49.2024 65.9707 48.8532 65.3675C48.7539 65.1929 48.7301 65.0084 48.7817 64.8139C49 64.0361 48.9484 63.2642 48.627 62.4983C48.9484 62.5181 49.121 62.4606 49.1448 62.3256L49.4008 63.1233C49.4325 63.2248 49.5023 63.31 49.5956 63.3611C49.6888 63.4122 49.7983 63.4251 49.9009 63.3971L50.6688 63.2067C50.7202 63.1935 50.7683 63.1695 50.8097 63.1363C50.8512 63.1032 50.8852 63.0616 50.9094 63.0143C50.9336 62.967 50.9475 62.9151 50.9501 62.8621C50.9527 62.8091 50.9441 62.7561 50.9247 62.7066C50.6827 62.0796 50.6985 61.4863 50.9724 60.9267C51.0137 60.8421 51.0776 60.7706 51.157 60.7199C51.2363 60.6692 51.3281 60.6415 51.4223 60.6396C51.5164 60.6378 51.6093 60.6619 51.6906 60.7094C51.7719 60.7569 51.8385 60.8259 51.8831 60.9089L52.1034 61.3196C52.2225 61.5418 52.2185 61.7621 52.0915 61.9804L48.9305 67.5224Z" fill="#D3BEAC"/>
<path d="M44.0136 64.5818C44.0017 64.9707 44.1188 65.3477 44.3648 65.7129C43.8648 65.9073 43.5096 66.3081 43.2993 66.9153L42.3885 67.0999C42.1504 67.1515 42.0036 67.0582 41.948 66.8201L41.7277 65.8736C41.6841 65.6791 41.567 65.5521 41.3765 65.4926L41.1206 65.4093C40.942 65.3537 40.8547 65.4192 40.8586 65.6057C40.8785 66.2724 40.5888 66.6256 39.9895 66.6653C39.5689 66.2407 39.5113 65.4192 39.8169 64.2008L40.7158 64.7068C41.0491 64.8934 41.1602 64.8041 41.0491 64.439C40.9301 64.0302 40.5888 63.7802 40.0252 63.6889C39.5609 63.2801 39.6145 62.8813 40.186 62.4924C41.1106 61.8654 42.202 61.8058 43.46 62.3138C43.6307 62.3852 43.7299 62.5122 43.7577 62.6948L44.0136 64.5818Z" fill="white"/>
<path d="M40.0253 63.6887C40.5889 63.78 40.9302 64.03 41.0492 64.4388C41.1603 64.8039 41.0492 64.8932 40.7159 64.7067L39.817 64.2007C39.7892 64.1451 39.8587 63.9745 40.0253 63.6887Z" fill="#D3BEAC"/>
<path d="M43.0133 63.8198C43.0971 63.8426 43.1725 63.8894 43.2301 63.9544C43.2877 64.0194 43.3251 64.0997 43.3378 64.1857C43.3504 64.2716 43.3377 64.3593 43.3012 64.4382C43.2647 64.517 43.2061 64.5834 43.1324 64.6294L42.5788 64.9628C42.5208 64.9991 42.4541 65.0192 42.3856 65.0209C42.3172 65.0226 42.2496 65.0058 42.1899 64.9723C42.1302 64.9387 42.0806 64.8898 42.0464 64.8305C42.0122 64.7712 41.9946 64.7038 41.9954 64.6354C42.0073 63.9131 42.3466 63.6412 43.0133 63.8198Z" fill="#D3BEAC"/>
<path d="M46.5615 68.8379C46.1864 67.32 46.5496 66.0937 46.7579 64.5638C46.7778 64.3971 46.8472 64.3733 46.9663 64.4924C47.1865 64.7186 46.6865 67.951 47.0853 69.0046C47.1488 69.1713 47.1568 69.34 47.1091 69.5106L46.8294 70.5583C46.746 70.8718 46.617 70.8917 46.4424 70.6178C46.1686 70.1972 46.1805 69.7666 46.4781 69.3261C46.5774 69.1753 46.6051 69.0126 46.5615 68.8379Z" fill="#535F1B"/>
<path d="M44.0135 64.5817L44.3945 64.5579C44.6604 64.538 44.7953 64.661 44.7993 64.9269C44.8112 65.3793 44.6663 65.6413 44.3647 65.7127C44.1187 65.3476 44.0016 64.9706 44.0135 64.5817Z" fill="#D3BEAC"/>
<path d="M53.3358 69.4034C52.8 69.1415 52.6691 69.0522 52.9429 69.1355C52.8476 67.5481 53.1175 66.2504 53.7525 65.2424C53.9945 64.8574 54.1116 64.8912 54.1037 65.3436C54.0878 66.6691 53.8318 68.0223 53.3358 69.4034Z" fill="#D3BEAC"/>
<path d="M43.2992 66.9152C43.7477 67.316 44.3846 67.6176 45.2101 67.82L43.0135 69.5761C42.9444 69.6302 42.8992 69.7096 42.887 69.7981C42.8748 69.8865 42.8966 69.9775 42.948 70.0523C43.4004 70.7111 43.5116 71.4056 43.2814 72.1358C43.2258 72.3184 43.2655 72.4771 43.4004 72.6121L43.6981 72.9097C43.7449 72.9558 43.8036 72.9879 43.8677 73.0023C43.9318 73.0166 43.9987 73.0128 44.0607 72.9911C44.1227 72.9694 44.1773 72.9307 44.2185 72.8795C44.2596 72.8283 44.2856 72.7666 44.2934 72.7013L44.4779 71.1358C44.4832 71.105 44.499 71.0765 44.5224 71.0552C44.5458 71.034 44.5754 71.0212 44.6063 71.0191C44.6372 71.017 44.6674 71.0257 44.6917 71.0437C44.716 71.0617 44.7331 71.0879 44.7398 71.1179L45.0018 72.1775C45.0533 72.3918 45.1744 72.4434 45.3649 72.3323L45.6268 72.1775C45.7855 72.0823 45.9363 72.0942 46.0792 72.2132C46.4165 72.487 46.5812 72.8442 46.5733 73.2847C46.5707 73.4963 46.6364 73.7031 46.7608 73.8743C46.8851 74.0455 47.0615 74.172 47.2635 74.2348C47.4656 74.2977 47.6825 74.2937 47.8821 74.2233C48.0816 74.1529 48.2531 74.02 48.371 73.8443L48.6389 73.4395C48.9207 73.0109 48.9723 73.0367 48.7937 73.5169L48.5377 74.2015C48.4861 74.3443 48.3849 74.4217 48.2341 74.4336C47.0475 74.5328 46.3669 74.0507 46.1923 72.9871C46.1793 72.9137 46.1477 72.8448 46.1008 72.7869C46.0539 72.7291 45.9931 72.6842 45.9243 72.6567C45.8556 72.6292 45.7811 72.62 45.7082 72.6299C45.6352 72.6398 45.5662 72.6685 45.5077 72.7133C44.8648 73.1934 44.7874 73.7649 45.2756 74.4277C45.364 74.5506 45.4062 74.7003 45.3946 74.8503L45.2637 76.2135C45.2554 76.3145 45.2439 76.4098 45.2316 76.4788C45.2194 76.5478 45.2074 76.5851 45.1982 76.5826C45.1625 76.5985 45.1089 76.5945 45.0375 76.5707C44.8651 76.5184 44.6976 76.5397 44.5719 76.63C44.4461 76.7203 44.3724 76.8721 44.3668 77.0521C44.3613 77.2321 44.4245 77.4255 44.5424 77.5897C44.6604 77.754 44.8235 77.8756 44.9958 77.9279C45.5474 78.0986 45.9939 77.9716 46.3352 77.5469C46.478 77.3644 46.6546 77.2275 46.865 77.1362L48.8294 76.279C48.8793 76.2573 48.9227 76.2231 48.9555 76.1797C48.9883 76.1363 49.0093 76.0852 49.0165 76.0313C49.0237 75.9774 49.0168 75.9225 48.9965 75.8721C48.9763 75.8216 48.9433 75.7772 48.9008 75.7432C48.7262 75.5964 48.5715 75.4377 48.4365 75.267C48.4189 75.2483 48.4085 75.224 48.4074 75.1983C48.4062 75.1726 48.4143 75.1474 48.4301 75.1272C48.446 75.107 48.4686 75.0932 48.4938 75.0882C48.519 75.0833 48.5452 75.0876 48.5675 75.1003L49.9783 75.8147C50.1212 75.8861 50.1232 75.9595 49.9843 76.0349L49.7164 76.1778C49.5497 76.2651 49.4902 76.402 49.5378 76.5885C49.7442 77.3505 49.6092 78.0688 49.133 78.7435C49.0545 78.8613 49.0017 78.9931 48.9782 79.1304C48.8671 79.813 49.1013 80.1205 49.6807 80.0531C50.0299 80.0094 50.0954 80.1245 49.8771 80.3983C48.3056 82.3509 42.1623 80.3686 40.4895 79.4697L40.4538 78.428C40.4498 78.2295 40.3486 78.1303 40.1502 78.1303C38.9596 78.1184 38.1124 77.5827 37.6084 76.5231C37.5682 76.4356 37.5504 76.3396 37.5566 76.244C37.5629 76.1483 37.5929 76.056 37.6441 75.9754C38.5926 74.515 38.6223 73.5586 37.7334 73.1061C37.7056 71.9195 38.1143 70.8718 38.9596 69.963C39.0946 69.8162 39.1561 69.6416 39.1442 69.4392C39.1124 68.8598 38.8168 68.5661 38.2572 68.5582C39.1898 67.5462 39.9756 67.4093 40.6145 68.1474C40.7772 68.334 40.9479 68.3399 41.1265 68.1653L41.4836 67.8081C41.7218 67.566 41.6702 67.441 41.3289 67.4331C40.7891 67.4133 40.3427 67.1573 39.9895 66.6652C40.5887 66.6255 40.8784 66.2723 40.8586 65.6056C40.8546 65.4191 40.9419 65.3536 41.1205 65.4091L41.3765 65.4925C41.567 65.552 41.6841 65.679 41.7277 65.8735L41.948 66.82C42.0035 67.0581 42.1504 67.1513 42.3885 67.0997L43.2992 66.9152Z" fill="#D3BEAC"/>
<path d="M48.7757 67.3975C48.8272 67.4371 48.8788 67.4788 48.9304 67.5225C49.4424 68.5384 49.2896 69.1655 48.4721 69.4036C48.3952 69.4252 48.3134 69.4212 48.2389 69.3924C48.1645 69.3635 48.1014 69.3113 48.0591 69.2436C48.0168 69.1758 47.9977 69.0962 48.0045 69.0166C48.0114 68.9371 48.0438 68.8619 48.097 68.8023C48.4621 68.4015 48.6883 67.9332 48.7757 67.3975Z" fill="#535F1B"/>
<path d="M52.9428 69.1356C52.669 69.0523 52.8 69.1415 53.3357 69.4035C53.4309 70.2924 52.9607 71.0901 51.9249 71.7965C51.8138 71.8719 51.7701 71.8441 51.7939 71.7132L52.0737 70.0999C52.1054 69.9174 52.034 69.7904 51.8594 69.719L50.8058 69.3023C50.4486 69.1594 50.4565 69.0384 50.8296 68.9391C51.4407 68.7804 52.1451 68.8459 52.9428 69.1356Z" fill="#535F1B"/>
<path d="M47.3231 72.7788L47.1802 72.6359C47.1326 72.5883 47.1266 72.5367 47.1624 72.4812L48.2874 70.6536C48.3209 70.6031 48.3696 70.5645 48.4265 70.5434C48.4834 70.5224 48.5455 70.5199 48.6038 70.5365C48.6621 70.5531 48.7137 70.5878 48.751 70.6356C48.7883 70.6834 48.8094 70.7418 48.8113 70.8025V71.0822C48.8113 71.2449 48.7299 71.3402 48.5672 71.368C47.8489 71.487 47.5949 71.9633 47.8053 72.7966C47.8108 72.8146 47.8112 72.8338 47.8065 72.852C47.8017 72.8701 47.792 72.8867 47.7784 72.8996C47.7648 72.9126 47.7479 72.9215 47.7295 72.9254C47.7111 72.9293 47.692 72.928 47.6743 72.9217C47.587 72.8939 47.5017 72.8661 47.4183 72.8383C47.3831 72.8266 47.3505 72.8062 47.3231 72.7788Z" fill="#535F1B"/>
<path d="M48.5793 72.6181L48.7698 72.249C48.869 72.0545 48.99 72.0406 49.1329 72.2073C49.3273 72.4335 49.242 72.6617 48.8769 72.8919C48.8381 72.9175 48.7918 72.9295 48.7454 72.9257C48.699 72.922 48.6552 72.9029 48.621 72.8714C48.5868 72.8399 48.564 72.7978 48.5565 72.7519C48.5489 72.706 48.5569 72.6589 48.5793 72.6181Z" fill="#535F1B"/>
<path d="M55.8003 73.0049C55.8067 73.0159 55.8108 73.0279 55.8125 73.0405C55.8141 73.053 55.8132 73.0657 55.8099 73.0779C55.8066 73.0901 55.8009 73.1015 55.7931 73.1115C55.7853 73.1214 55.7756 73.1297 55.7646 73.1359L55.723 73.1597C55.204 73.4462 54.6872 73.7244 54.2025 73.978C53.7178 74.2317 53.2748 74.4559 52.8994 74.6375C52.5239 74.8192 52.2234 74.9547 52.0152 75.0362C51.8071 75.1177 51.6955 75.1435 51.6869 75.1122L51.675 75.0944C51.6534 75.0703 51.735 74.9896 51.915 74.8568C52.0951 74.724 52.37 74.5418 52.7238 74.3209C53.0777 74.0999 53.5034 73.8446 53.9764 73.5696C54.4493 73.2947 54.96 73.0056 55.4789 72.7192L55.5206 72.6954C55.5318 72.6893 55.5442 72.6855 55.557 72.6843C55.5698 72.683 55.5827 72.6844 55.5949 72.6883C55.6071 72.6922 55.6185 72.6985 55.6282 72.7069C55.6379 72.7153 55.6459 72.7256 55.6515 72.7371L55.8003 73.0049Z" fill="#535F1B"/>
<path d="M37.7334 73.1062C38.6223 73.5586 38.5926 74.515 37.6441 75.9755C37.5929 76.0561 37.5629 76.1484 37.5566 76.244C37.5504 76.3397 37.5682 76.4356 37.6084 76.5231C38.1124 77.5827 38.9597 78.1185 40.1502 78.1304C40.3486 78.1304 40.4498 78.2296 40.4538 78.428L40.4895 79.4698L37.4238 76.916C37.2532 76.7731 37.1857 76.5906 37.2214 76.3683L37.7334 73.1062Z" fill="#7E3F17"/>
</svg>
