<svg width="100" height="100" viewBox="0 0 100 100" fill="none" xmlns="http://www.w3.org/2000/svg">
<rect width="100" height="100" fill="#FFEAE2"/>
<path d="M62.5056 51.6404C63.0371 51.5534 63.3755 51.0218 63.2038 50.5113C59.92 40.7478 49.9578 34.5186 39.4618 36.2382C28.3685 38.0556 20.6737 48.0975 21.5892 59.11C22.2367 51.4791 27.9833 44.9678 35.8853 43.6732C43.2847 42.461 50.3524 46.1867 53.7248 52.4337C53.9135 52.7834 54.2994 52.9849 54.6915 52.9206C57.8319 52.8252 59.5409 52.5275 62.5056 51.6404Z" fill="#FF6129"/>
<path d="M14.2344 73.9306C12.5469 74.6056 11.375 73.4619 11 72.8056C45.5375 54.5806 79.9531 52.3681 92.8438 53.54C53.1875 53.54 16.3438 73.0869 14.2344 73.9306Z" fill="#1F7CD0"/>
<path fill-rule="evenodd" clip-rule="evenodd" d="M17.3281 49.9064L17.6371 51.6782H18.5094V52.5505L20.2812 52.8595L18.5094 53.1685V54.1589H17.6165L17.3281 55.8126L17.0397 54.1589H16.0287V53.1479L14.375 52.8595L16.0287 52.5711V51.6782H17.0191L17.3281 49.9064ZM17.3281 53.2814C17.5611 53.2814 17.75 53.0925 17.75 52.8595C17.75 52.6265 17.5611 52.4376 17.3281 52.4376C17.0951 52.4376 16.9062 52.6265 16.9062 52.8595C16.9062 53.0925 17.0951 53.2814 17.3281 53.2814Z" fill="#1F7CD0"/>
<path fill-rule="evenodd" clip-rule="evenodd" d="M20.4219 40.3439L20.7309 42.1157H21.6031V42.988L23.375 43.297L21.6031 43.606V44.5964H20.7103L20.4219 46.2501L20.1335 44.5964H19.1225V43.5854L17.4688 43.297L19.1225 43.0086V42.1157H20.1129L20.4219 40.3439ZM20.4219 43.7189C20.6549 43.7189 20.8438 43.53 20.8438 43.297C20.8438 43.064 20.6549 42.8751 20.4219 42.8751C20.1889 42.8751 20 43.064 20 43.297C20 43.53 20.1889 43.7189 20.4219 43.7189Z" fill="#1F7CD0"/>
<path fill-rule="evenodd" clip-rule="evenodd" d="M27.4531 33.0314L27.7621 34.8032H28.6344V35.6755L30.4062 35.9845L28.6344 36.2935V37.2839H27.7415L27.4531 38.9376L27.1647 37.2839H26.1537V36.2729L24.5 35.9845L26.1537 35.6961V34.8032H27.1441L27.4531 33.0314ZM27.4531 36.4064C27.6861 36.4064 27.875 36.2175 27.875 35.9845C27.875 35.7515 27.6861 35.5626 27.4531 35.5626C27.2201 35.5626 27.0312 35.7515 27.0312 35.9845C27.0312 36.2175 27.2201 36.4064 27.4531 36.4064Z" fill="#1F7CD0"/>
<path fill-rule="evenodd" clip-rule="evenodd" d="M36.7344 27.4064L37.0434 29.1782H37.9156V30.0505L39.6875 30.3595L37.9156 30.6685V31.6589H37.0228L36.7344 33.3126L36.446 31.6589H35.435V30.6479L33.7812 30.3595L35.435 30.0711V29.1782H36.4254L36.7344 27.4064ZM36.7344 30.7814C36.9674 30.7814 37.1562 30.5925 37.1562 30.3595C37.1562 30.1265 36.9674 29.9376 36.7344 29.9376C36.5014 29.9376 36.3125 30.1265 36.3125 30.3595C36.3125 30.5925 36.5014 30.7814 36.7344 30.7814Z" fill="#1F7CD0"/>
<path fill-rule="evenodd" clip-rule="evenodd" d="M48.2656 26L48.5746 27.7719H49.4469V28.6441L51.2188 28.9531L49.4469 29.2621V30.2525H48.554L48.2656 31.9063L47.9772 30.2525H46.9662V29.2415L45.3125 28.9531L46.9662 28.6647V27.7719H47.9566L48.2656 26ZM48.2656 29.375C48.4986 29.375 48.6875 29.1861 48.6875 28.9531C48.6875 28.7201 48.4986 28.5313 48.2656 28.5313C48.0326 28.5313 47.8438 28.7201 47.8438 28.9531C47.8438 29.1861 48.0326 29.375 48.2656 29.375Z" fill="#1F7CD0"/>
<path fill-rule="evenodd" clip-rule="evenodd" d="M59.7969 29.0939L60.1059 30.8657H60.9781V31.738L62.75 32.047L60.9781 32.356V33.3464H60.0853L59.7969 35.0001L59.5085 33.3464H58.4975V32.3354L56.8438 32.047L58.4975 31.7586V30.8657H59.4879L59.7969 29.0939ZM59.7969 32.4689C60.0299 32.4689 60.2188 32.28 60.2188 32.047C60.2188 31.814 60.0299 31.6251 59.7969 31.6251C59.5639 31.6251 59.375 31.814 59.375 32.047C59.375 32.28 59.5639 32.4689 59.7969 32.4689Z" fill="#1F7CD0"/>
</svg>
