<svg width="100" height="100" viewBox="0 0 100 100" fill="none" xmlns="http://www.w3.org/2000/svg">
<rect width="100" height="100" fill="#DDFFE4"/>
<path d="M90.8118 79H70.3118V76.5H75.8118V41L62.3118 66L49.3118 41V76.5H55.3118V79H38.3118V76.5H44.8118V36H38.3118V34H54.3118L63.8118 53.5L74.3118 34H90.8118V36.5H84.3118V76.5H90.8118V79Z" fill="#23A43F"/>
<path d="M45.8117 20H42.8117C42.8117 21.5 43.3117 23.6 43.3117 24C31.8116 18.5 23.3118 26.5 23.3118 26.5C20.8118 28.5 20.3118 32.5 21.3118 35C22.3118 37.5 27.3118 42.5 34.8118 44C42.3118 45.5 52.8118 51 51.8118 56C48.8118 67 35.3118 67.5 25.3118 66C15.3118 64.5 12.3118 57.5 13.3118 54.5C14.3118 51.5 17.8118 48.5 22.3118 47.5C29.3118 46 32.3118 49 32.8118 51.5C33.2118 53.5 29.3118 55.6667 27.3118 56.5C31.8118 58.5 37.8118 56 38.3118 53.5C38.8118 51 36.8118 47 31.3118 45.5C25.8118 44 6.3118 46.5 9.3118 57.5C12.3118 68.5 26.8117 70.5 39.3118 69C51.8119 67.5 57.3118 60 56.3118 51.5C55.3118 43 38.8117 38.5 35.8117 37.5C32.8117 36.5 23.8118 33.5 26.8117 29.5C34.4117 20.3 42.645 28.3333 45.8117 33.5V20Z" fill="#5E5E78"/>
</svg>
