<svg width="100" height="100" viewBox="0 0 100 100" fill="none" xmlns="http://www.w3.org/2000/svg">
<rect width="100" height="100" fill="#595C62"/>
<path d="M18.9912 52.4102L22.3662 52.082C22.5694 53.2148 22.9795 54.0469 23.5967 54.5781C24.2217 55.1094 25.0616 55.375 26.1162 55.375C27.2334 55.375 28.0733 55.1406 28.6358 54.6719C29.2061 54.1953 29.4912 53.6406 29.4912 53.0078C29.4912 52.6016 29.3702 52.2578 29.128 51.9766C28.8936 51.6875 28.4795 51.4375 27.8858 51.2266C27.4795 51.0859 26.5537 50.8359 25.1084 50.4766C23.2491 50.0156 21.9444 49.4492 21.1944 48.7773C20.1397 47.832 19.6123 46.6797 19.6123 45.3203C19.6123 44.4453 19.8584 43.6289 20.3506 42.8711C20.8506 42.1055 21.5655 41.5234 22.4952 41.125C23.4327 40.7266 24.5616 40.5273 25.8819 40.5273C28.0381 40.5273 29.6592 41 30.7452 41.9453C31.8389 42.8906 32.4131 44.1523 32.4678 45.7305L28.9991 45.8828C28.8506 45 28.5303 44.3672 28.0381 43.9844C27.5537 43.5938 26.8233 43.3984 25.8467 43.3984C24.8389 43.3984 24.0498 43.6055 23.4795 44.0195C23.1123 44.2852 22.9287 44.6406 22.9287 45.0859C22.9287 45.4922 23.1006 45.8398 23.4444 46.1289C23.8819 46.4961 24.9444 46.8789 26.6319 47.2773C28.3194 47.6758 29.5655 48.0898 30.3702 48.5195C31.1827 48.9414 31.8155 49.5234 32.2686 50.2656C32.7295 51 32.96 51.9102 32.96 52.9961C32.96 53.9805 32.6866 54.9023 32.1397 55.7617C31.5928 56.6211 30.8194 57.2617 29.8194 57.6836C28.8194 58.0977 27.5733 58.3047 26.0811 58.3047C23.9092 58.3047 22.2412 57.8047 21.0772 56.8047C19.9131 55.7969 19.2178 54.332 18.9912 52.4102ZM36.1325 58V40.8203H39.6012V58H36.1325ZM43.2308 58V40.8203H48.4222L51.5394 52.5391L54.6214 40.8203H59.8245V58H56.6019V44.4766L53.1917 58H49.8519L46.4534 44.4766V58H43.2308ZM63.583 58V40.8203H68.7744L71.8916 52.5391L74.9736 40.8203H80.1767V58H76.9541V44.4766L73.5439 58H70.2041L66.8056 44.4766V58H63.583Z" fill="#F8F8F8"/>
</svg>
