<svg width="100" height="100" viewBox="0 0 100 100" fill="none" xmlns="http://www.w3.org/2000/svg">
<rect width="100" height="100" fill="white"/>
<path d="M77.005 21.002C81.7825 20.9364 90.7206 22.472 91.3543 28.7607C91.3544 28.7641 91.3533 28.7674 91.3513 28.77C91.3493 28.7727 91.3464 28.7746 91.3432 28.7755C91.34 28.7763 91.3366 28.7761 91.3335 28.7748C91.3304 28.7735 91.3278 28.7712 91.3262 28.7682C89.8618 25.0951 85.2793 23.7189 81.5518 23.3026C65.3424 21.4932 48.4768 28.1345 35.6555 37.6239C35.4168 37.8001 35.4037 37.7845 35.6162 37.577C36.1674 37.0395 36.7724 36.4989 37.4312 35.9551C48.5556 26.7807 62.5224 21.1989 77.005 21.002Z" fill="#028A43"/>
<path d="M89.3293 39.4726C90.0081 31.5169 80.8412 29.2407 74.9087 29.0626C61.2887 28.6557 47.5299 32.2388 35.6593 38.6926C35.4743 38.7926 35.4668 38.7801 35.6368 38.6551C36.643 37.9176 37.6861 37.2126 38.7661 36.5401C50.7155 29.1076 64.7237 24.7951 78.8687 25.0444C85.7612 25.1663 91.4968 28.0051 91.3262 35.8782C91.2718 38.3476 90.2481 40.6801 88.9787 42.8457C88.8937 42.9907 88.8662 42.9801 88.8962 42.8138C89.0862 41.7351 89.2306 40.6213 89.3293 39.4726Z" fill="#028A43"/>
<path d="M19.5662 48.1764C17.2468 46.2395 17.408 42.6527 20.4737 41.5577C21.3249 41.2539 22.1893 41.0983 23.0668 41.0908C25.7018 41.0683 29.6799 41.0664 35.0012 41.0852C35.0637 41.0852 35.0912 41.1158 35.0837 41.177C34.8193 43.6464 33.1712 44.9627 30.8106 45.0545C29.5524 45.1052 28.5624 44.7358 27.1899 44.2858C25.0524 43.5827 22.5212 45.1858 25.7612 46.9014C28.4312 48.3152 33.0174 50.0327 33.0868 53.7189C33.1712 58.1402 28.5793 59.0852 25.1968 59.1058C21.188 59.1308 17.1774 59.1352 13.1649 59.1189C13.0999 59.1177 13.0793 59.0871 13.103 59.0271C13.7593 57.4202 15.1618 55.1046 17.1155 55.1327C19.4955 55.1677 21.8743 55.1458 24.2518 55.0671C26.8956 54.9771 28.3899 52.9802 25.3881 51.4446C23.423 50.4396 21.2687 49.5995 19.5662 48.1764Z" fill="#E6342C"/>
<path d="M37.6168 44.5426C38.3424 41.8294 40.5305 41.1488 43.0243 41.0663C43.0371 41.066 43.0499 41.0686 43.0615 41.074C43.0732 41.0793 43.0835 41.0873 43.0917 41.0972C43.0998 41.1072 43.1056 41.1189 43.1085 41.1314C43.1115 41.1439 43.1115 41.1569 43.1086 41.1694L39.6493 57.0638C39.633 57.1376 39.5893 57.1876 39.518 57.2138L34.5418 59.0869C34.4593 59.1182 34.4274 59.0907 34.4461 59.0044C35.4774 54.1894 36.3455 49.2919 37.6168 44.5426Z" fill="#E6342C"/>
<path d="M61.538 48.2045C61.5954 47.967 61.5617 47.9533 61.4367 48.1633C60.1329 50.332 58.8129 52.4601 57.4767 54.5476C56.1773 56.5801 54.9773 57.8795 53.0498 59.0401C52.9998 59.0701 52.9661 59.057 52.9486 59.0008L49.8342 48.7033C49.7879 48.5508 49.7492 48.5526 49.7179 48.7089C49.2473 51.1014 48.8048 53.2745 48.0473 55.8076C47.8661 56.4164 47.5779 56.8283 47.1829 57.0433C45.7092 57.8408 44.1898 58.5308 42.6248 59.1133C42.6169 59.1162 42.6083 59.1169 42.6 59.1154C42.5918 59.1138 42.584 59.1101 42.5777 59.1045C42.5714 59.0989 42.5666 59.0917 42.564 59.0837C42.5614 59.0757 42.5611 59.0671 42.5629 59.0589L46.2886 41.2164C46.3011 41.1564 46.3373 41.1226 46.3973 41.1151C51.9117 40.3595 53.8429 46.1776 54.6529 50.3101C54.6867 50.4814 54.7073 50.5708 54.7148 50.5783C54.8861 50.7533 55.0329 50.7351 55.1554 50.5239C56.5342 48.1551 58.0129 45.9058 59.5917 43.7758C61.2736 41.507 64.8961 40.9239 67.5342 41.0983C67.593 41.1033 67.6161 41.1345 67.6036 41.192C66.7373 45.2295 65.9048 49.2776 65.1061 53.3364C64.8423 54.6776 64.5655 55.6045 64.2755 56.117C63.2161 57.9883 61.0636 58.8752 58.9804 59.0664C58.9695 59.0676 58.9584 59.0662 58.9481 59.0621C58.9378 59.0581 58.9286 59.0516 58.9213 59.0431C58.914 59.0347 58.9087 59.0246 58.9059 59.0136C58.9032 59.0027 58.903 58.9912 58.9054 58.9802L61.538 48.2045Z" fill="#E6342C"/>
<path fill-rule="evenodd" clip-rule="evenodd" d="M73.5511 57.2702L74.3592 53.192C74.3705 53.1333 74.4061 53.1033 74.4661 53.102C74.9816 53.0968 75.537 53.1051 76.1176 53.1137C80.2988 53.1761 85.7885 53.2581 87.1336 48.4408C87.5911 46.7964 87.3211 44.5708 86.1923 43.2508C84.4448 41.2108 80.7061 41.0477 78.2536 41.0683C76.388 41.0852 74.6311 41.1114 73.0655 41.6327C70.6898 42.4239 70.0092 44.8052 69.5573 47.0795C68.5811 51.9995 67.8186 55.9852 67.2698 59.0364C67.2573 59.1039 67.2842 59.1283 67.3504 59.1096L73.4217 57.4108C73.4545 57.4012 73.4839 57.3829 73.5068 57.3581C73.5296 57.3333 73.5449 57.3029 73.5511 57.2702ZM79.3636 49.862C81.5536 48.9077 82.3505 44.2258 79.2436 44.0945C78.3523 44.057 77.3298 44.0564 76.1761 44.0927C76.0973 44.0952 76.0511 44.1352 76.0373 44.2127L75.0417 49.9802C75.0317 50.0439 75.0586 50.0758 75.1223 50.0758C75.3839 50.0771 75.6914 50.0895 76.0225 50.1029C77.1584 50.1489 78.5724 50.2061 79.3636 49.862Z" fill="#E6342C"/>
<path d="M28.3523 75.1913C20.5748 75.1745 9.84602 71.8538 9.03602 62.5445C8.6479 58.0651 11.4492 53.9251 14.8823 51.2288C14.885 51.2258 14.8888 51.2241 14.8929 51.2239C14.8969 51.2237 14.9009 51.2252 14.9038 51.2279C14.9068 51.2306 14.9086 51.2344 14.9088 51.2385C14.909 51.2425 14.9075 51.2465 14.9048 51.2495C13.0485 53.9288 11.5485 56.9513 11.0967 60.2026C9.82165 69.3938 21.456 71.0382 27.7767 71.1713C40.5079 71.4376 53.3048 68.5857 64.8811 63.3582C66.3073 62.7145 67.6717 62.0313 68.9742 61.3088C69.1605 61.2063 69.1698 61.2213 69.0023 61.3538C57.7298 70.3088 42.6886 75.2232 28.3523 75.1913Z" fill="#C8A642"/>
<path d="M26.5692 79.2039C21.4017 79.1195 13.1836 76.8245 10.9955 71.4001C10.9899 71.3845 10.9898 71.3675 10.9951 71.3519C11.0005 71.3362 11.011 71.3228 11.0249 71.3139C11.0388 71.305 11.0554 71.3011 11.0718 71.3027C11.0883 71.3044 11.1037 71.3117 11.1155 71.3232C14.6536 75.0376 20.0199 76.7682 25.0355 77.0607C40.4799 77.9626 56.2449 73.5957 68.4474 63.9038C68.7612 63.6551 68.773 63.6688 68.483 63.9451C57.5293 74.4207 41.4774 79.4476 26.5692 79.2039Z" fill="#C8A642"/>
</svg>
