<svg width="100" height="100" viewBox="0 0 100 100" fill="none" xmlns="http://www.w3.org/2000/svg">
<rect width="100" height="100" fill="#E3FFEB"/>
<path d="M43.554 59.73C42.419 61.1 40.794 62.305 40.264 63.89C38.219 69.97 45.844 73.245 49.644 75.835" stroke="#47A19C"/>
<path d="M49.644 75.8349C49.7107 75.8283 49.7757 75.8199 49.839 75.8099" stroke="#7FBE9B"/>
<path d="M49.644 75.835C52.0074 74.395 54.2774 72.8883 56.454 71.315C60.644 68.285 60.534 62.16 55.449 60.2" stroke="#79AE56"/>
<path d="M49.889 53.05C59.0155 53.05 66.414 45.6515 66.414 36.525C66.414 27.3985 59.0155 20 49.889 20C40.7625 20 33.364 27.3985 33.364 36.525C33.364 45.6515 40.7625 53.05 49.889 53.05Z" fill="#EDB846"/>
<path d="M43.5541 59.73C42.4191 61.1 40.7941 62.305 40.2641 63.89C38.2191 69.97 45.8441 73.245 49.6441 75.835C49.7108 75.8283 49.7758 75.82 49.8391 75.81C40.0391 80.985 29.4291 82.44 18.9391 78.37C13.7291 76.35 10.0041 72.9867 7.76414 68.28C0.169141 52.31 18.8241 42.29 30.8941 51.31C35.9008 55.05 40.1208 57.8567 43.5541 59.73Z" fill="#4DB1E1"/>
<path d="M49.839 75.81C49.7757 75.82 49.7107 75.8284 49.644 75.835C52.0074 74.395 54.2774 72.8884 56.454 71.315C60.644 68.285 60.534 62.16 55.449 60.2C59.3457 57.9667 63.1224 55.4967 66.779 52.79C69.249 50.9634 71.1074 49.7867 72.354 49.26C78.529 46.645 86.134 47.695 90.674 52.795C96.889 59.775 93.069 69.68 86.694 74.99C80.074 80.5 69.449 81.78 61.289 80.015C57.499 79.1984 53.6824 77.7967 49.839 75.81Z" fill="#B0CB55"/>
<path d="M43.554 59.73C47.4807 61.7 51.4457 61.8566 55.449 60.2C60.534 62.16 60.644 68.285 56.454 71.315C54.2774 72.8883 52.0074 74.395 49.644 75.835C45.844 73.245 38.219 69.97 40.264 63.89C40.794 62.305 42.419 61.1 43.554 59.73Z" fill="#419057"/>
</svg>
