<svg width="100" height="100" viewBox="0 0 100 100" fill="none" xmlns="http://www.w3.org/2000/svg">
<g clip-path="url(#clip0_105_1798)">
<rect width="100" height="100" fill="#55B85B"/>
<rect x="-0.601074" y="100.826" width="145.419" height="71.4015" transform="rotate(-45 -0.601074 100.826)" fill="#213F97"/>
<path d="M85.9977 14.047L83.588 16.4183H16.5329C16.4537 16.4183 16.4142 16.4579 16.4142 16.537V83.5853L14.1321 85.9902C14.1127 86.0231 14.0784 85.9731 14.0291 85.8402C14.0097 85.788 14 85.7312 14 85.67C14 61.8181 14 37.9684 14 14.1209C14 14.105 14.0031 14.0893 14.0092 14.0746C14.0153 14.06 14.0242 14.0466 14.0354 14.0354C14.0466 14.0242 14.06 14.0153 14.0747 14.0092C14.0893 14.0031 14.1051 14 14.1209 14L85.9977 14.047Z" fill="#55B85B"/>
<path d="M85.9977 14.047L85.9999 85.8648C85.9999 85.8987 85.9865 85.9311 85.9625 85.9551C85.9386 85.979 85.9061 85.9924 85.8723 85.9924L14.1321 85.9902L16.4141 83.5853L83.4671 83.5808C83.5462 83.5808 83.5857 83.5413 83.5857 83.4622L83.588 16.4183L85.9977 14.047Z" fill="#213F97"/>
<path d="M83.5882 16.4183L83.5859 83.4622C83.5859 83.5413 83.5464 83.5809 83.4672 83.5809L16.4143 83.5853V16.537C16.4143 16.4579 16.4539 16.4183 16.533 16.4183H83.5882Z" fill="white"/>
<path d="M19.8093 61.3568L18.8755 63.39C18.8727 63.3969 18.8676 63.4027 18.861 63.4062C18.8544 63.4097 18.8468 63.4107 18.8395 63.4091C18.8322 63.4075 18.8257 63.4033 18.8212 63.3973C18.8167 63.3914 18.8145 63.384 18.815 63.3765V18.9307C18.815 18.856 18.8523 18.8187 18.927 18.8187H79.8974C80.0243 18.8187 80.0355 18.8546 79.931 18.9262C78.5604 19.8711 76.2806 21.1206 75.5057 22.1977C74.8205 23.1471 74.7757 24.2779 75.3714 25.5901C75.4046 25.6651 75.4093 25.7495 75.3848 25.8274L74.4912 28.5995C74.4659 28.6787 74.4188 28.7414 74.3502 28.7876L71.9046 30.42C71.8974 30.4254 71.8884 30.4278 71.8795 30.4268C71.8705 30.4258 71.8623 30.4215 71.8564 30.4148C71.8505 30.408 71.8473 30.3993 71.8475 30.3903C71.8477 30.3813 71.8513 30.3727 71.8576 30.3663C72.6593 29.5199 73.8306 28.772 73.8575 27.4979C73.8769 26.4857 73.7313 25.5005 73.4208 24.5421C73.3954 24.466 73.3476 24.4466 73.2774 24.4839C71.2238 25.6035 68.0863 28.7652 70.9461 30.9507C71.0372 31.0209 71.0499 31.103 70.9842 31.197C70.4288 32.0016 69.8652 32.8339 69.2934 33.6937C68.7335 34.5289 67.7078 35.0081 66.8501 35.4739C66.756 35.5231 66.7299 35.4993 66.7717 35.4022C67.6556 33.2989 68.3632 31.1373 68.8947 28.9175C68.8972 28.906 68.8965 28.8941 68.8927 28.883C68.8889 28.8719 68.8821 28.862 68.8732 28.8545C68.8642 28.8469 68.8534 28.8419 68.8418 28.84C68.8302 28.8381 68.8183 28.8393 68.8074 28.8436C65.1772 30.3013 63.9589 33.1653 63.502 36.8353C63.4483 37.2578 63.3296 37.6489 63.1459 38.0087C62.486 39.3014 61.8351 40.5972 61.1931 41.8959C61.1571 41.9679 61.0965 42.0238 61.0229 42.0527L56.6245 43.8082C56.2348 43.9634 56.2087 43.9164 56.5461 43.6671C58.0466 42.5639 59.5053 41.3928 60.9221 40.1538C62.3039 38.9491 63.0743 33.0063 63.3161 31.2508C63.3281 31.1657 63.293 31.1366 63.2109 31.1634C58.6893 32.6346 55.4152 36.542 55.5272 41.4302C55.5481 42.3527 55.5585 43.2723 55.5585 44.1888C55.5585 44.2635 55.5316 44.3277 55.4779 44.3814C53.8595 45.9996 52.2425 47.6178 50.6271 49.236C50.0784 49.7868 49.6194 49.9234 48.8893 49.9302C48.7743 49.9316 48.7639 49.9003 48.8579 49.8361C50.9608 48.403 51.8656 45.6869 52.739 43.2797C53.7751 40.427 54.6918 37.5436 55.4891 34.6297C55.4935 34.6151 55.4934 34.5995 55.4886 34.585C55.4838 34.5705 55.4746 34.5578 55.4624 34.5487C55.4501 34.5397 55.4353 34.5346 55.42 34.5343C55.4048 34.5339 55.3898 34.5383 55.3771 34.5469C52.3896 36.5353 49.585 38.7528 46.9633 41.1995C45.6039 42.4669 44.5021 43.6537 44.1975 45.4697C43.878 47.3655 43.8914 49.2591 44.2378 51.1505C44.2498 51.2162 44.2386 51.2774 44.2042 51.3341L41.1854 56.3096C41.1376 56.3858 41.0704 56.4328 40.9838 56.4507L38.5786 56.9344C38.168 57.0165 38.1441 56.953 38.5069 56.744C40.4755 55.6088 42.023 53.6136 42.1685 51.2759C42.4074 47.4514 43.1569 43.7477 44.417 40.165C44.4247 40.1432 44.4258 40.1195 44.42 40.0971C44.4142 40.0747 44.4019 40.0545 44.3846 40.0391C44.3673 40.0237 44.3458 40.0139 44.3228 40.0108C44.2999 40.0077 44.2765 40.0115 44.2557 40.0217C40.8427 41.6675 38.3031 44.8181 36.3794 48.1343C34.6528 51.1124 35.0424 54.104 36.413 57.2322C36.4196 57.2473 36.4227 57.2637 36.4221 57.2802C36.4215 57.2967 36.4171 57.3129 36.4094 57.3277C36.4017 57.3424 36.3908 57.3554 36.3775 57.3656C36.3642 57.3758 36.3488 57.383 36.3324 57.3867L35.6337 57.53C35.565 57.5449 35.5142 57.5837 35.4814 57.6464L33.3471 61.9166C33.3143 61.9808 33.2628 62.0218 33.1926 62.0397L31.3696 62.4943C31.2696 62.5197 31.2427 62.4868 31.289 62.3958C31.7086 61.5688 31.9751 60.9074 32.0885 60.4118C33.2934 55.1512 34.4184 49.916 35.4635 44.7061C35.4963 44.5434 35.4463 44.512 35.3134 44.6121C31.2823 47.6081 27.5715 52.8008 27.4438 57.9622C27.396 59.867 27.7245 61.7158 28.4292 63.5086C28.4934 63.6729 28.5038 63.8109 28.4605 63.9229C27.8559 65.4933 27.2437 67.0608 26.6241 68.6252C26.5958 68.6969 26.545 68.7446 26.4719 68.7685L24.7698 69.3283C24.6623 69.3627 24.6332 69.3291 24.6825 69.2276C25.9471 66.6361 26.5935 63.9095 26.6219 61.0478C26.66 57.3643 26.9623 53.851 27.6409 50.228C27.6588 50.1324 27.6289 50.1145 27.5513 50.1742C22.2526 54.3033 21.1642 64.1916 22.9043 70.1546C23.126 70.9137 22.2907 73.4037 22.0824 74.2814C22.0665 74.3478 22.0266 74.406 21.9705 74.4449L19.7668 75.9183C19.7545 75.9264 19.74 75.9304 19.7253 75.9297C19.7106 75.929 19.6965 75.9236 19.6851 75.9144C19.6736 75.9052 19.6654 75.8926 19.6615 75.8784C19.6577 75.8642 19.6585 75.8492 19.6638 75.8354C20.5573 73.5918 21.2202 71.1264 20.956 68.67C20.6947 66.2263 20.3588 63.7945 19.9482 61.3747C19.9451 61.3595 19.9374 61.3457 19.9261 61.3352C19.9148 61.3247 19.9005 61.3179 19.8852 61.3159C19.8699 61.314 19.8543 61.3169 19.8407 61.3242C19.8271 61.3315 19.8161 61.3429 19.8093 61.3568Z" fill="#55B85B"/>
<path d="M75.7117 28.7168C75.5967 28.8228 75.5646 28.8019 75.6154 28.6541L76.4798 26.1168C76.5037 26.0481 76.5448 25.9913 76.603 25.9466C78.0654 24.8313 79.9846 24.1236 81.0529 22.6388C81.141 22.5164 81.185 22.5306 81.185 22.6814V24.2557C81.185 24.2997 81.1728 24.3428 81.1499 24.3803C81.127 24.4178 81.0942 24.4483 81.0551 24.4685C78.6029 25.7405 77.4943 27.0596 75.7117 28.7168Z" fill="#213F97"/>
<path d="M60.3129 57.2927C55.1912 60.3604 48.7772 60.338 43.0217 60.029C40.1641 59.8768 36.6951 61.4151 34.2877 62.8392C34.2747 62.8476 34.2592 62.8515 34.2438 62.8501C34.2284 62.8488 34.2139 62.8423 34.2026 62.8318C34.1912 62.8212 34.1838 62.8072 34.1813 62.7919C34.1789 62.7766 34.1816 62.761 34.1891 62.7474L36.2472 58.6452C36.2831 58.5735 36.3398 58.5303 36.4174 58.5153C38.0194 58.1929 39.6169 57.8786 41.21 57.5726C41.5026 57.5159 41.7967 57.4831 42.0923 57.4741C45.1082 57.3875 48.1248 57.3039 51.1421 57.2233C52.7994 57.1785 54.1199 57.0464 55.1038 56.827C59.659 55.8126 64.2096 53.2084 68.0593 50.593C68.0626 50.5913 68.065 50.5883 68.0661 50.5847C68.0671 50.5811 68.0667 50.5773 68.0649 50.574C68.0632 50.5707 68.0602 50.5683 68.0566 50.5673C68.053 50.5662 68.0492 50.5666 68.0459 50.5684C66.1602 51.3566 63.82 51.6231 61.7977 51.8134C58.0532 52.1642 54.3006 52.3553 50.5397 52.3866C49.1736 52.4001 48.1972 52.9599 47.0707 53.6742C45.3747 54.7505 43.7578 55.8574 42.22 56.9949C42.0692 57.1054 42.0416 57.0807 42.1371 56.921L45.0619 52.044C45.095 51.9884 45.1395 51.9405 45.1924 51.9035C45.2453 51.8664 45.3054 51.8411 45.3687 51.8291L50.5487 50.7923C50.6218 50.7774 50.6845 50.7438 50.7368 50.6916L51.3034 50.125C51.3311 50.0973 51.3648 50.0765 51.4018 50.0644C51.4388 50.0523 51.478 50.0493 51.5161 50.0556C56.3512 50.8237 61.7708 50.7834 66.2028 48.4636C68.8275 47.0887 71.4596 45.1085 74.0993 42.523C74.1575 42.4662 74.1471 42.4483 74.0679 42.4692C71.3716 43.1947 68.505 43.4343 65.7325 43.7433C61.0699 44.2583 56.2213 47.12 52.0514 49.4824C52.0457 49.4869 52.0386 49.4889 52.0314 49.488C52.0243 49.4872 52.0178 49.4836 52.0133 49.4779C52.0089 49.4723 52.0068 49.4651 52.0077 49.458C52.0085 49.4508 52.0122 49.4443 52.0178 49.4399C53.2659 48.1799 54.5193 46.9155 55.7779 45.6467C56.0855 45.3361 56.3654 45.1301 56.6177 45.0286C58.5639 44.2404 60.6018 43.244 62.6532 42.8812C64.8233 42.4961 66.9665 42.2811 69.1724 42.2543C71.176 42.2304 72.9467 41.478 74.4845 39.9972C76.2611 38.2879 77.6922 36.5145 78.7776 34.6768C78.8179 34.6082 78.8022 34.591 78.7306 34.6253C76.0835 35.9218 73.0781 36.5376 70.2608 37.3661C67.28 38.2439 64.6553 40.0195 62.4158 42.1356C62.4099 42.1426 62.4018 42.1469 62.393 42.1479C62.3842 42.1488 62.3753 42.1462 62.3681 42.1407C62.3608 42.1351 62.3558 42.1269 62.3538 42.1177C62.3519 42.1085 62.3532 42.0989 62.3576 42.0908L64.1447 38.5036C64.182 38.429 64.2365 38.3708 64.3082 38.329C65.9684 37.3452 67.6211 36.354 69.2664 35.3553C70.1712 34.8067 71.0132 33.1519 71.6134 32.254C72.2383 31.3135 73.6021 30.6283 74.5315 29.9947C74.5931 29.9536 74.6634 29.9296 74.7353 29.9252C77.8034 29.7215 80.7237 28.7362 81.1 25.1804C81.1029 25.155 81.1134 25.1334 81.1313 25.1154C81.1477 25.102 81.1612 25.0871 81.1716 25.0707C81.1724 25.0692 81.1735 25.0683 81.1749 25.0678C81.1763 25.0674 81.1779 25.0676 81.1794 25.0684C81.1809 25.0691 81.1823 25.0704 81.1833 25.072C81.1843 25.0737 81.1849 25.0755 81.1851 25.0774V81.0685C81.1851 81.1432 81.1477 81.1805 81.0731 81.1805H25.4685C25.4608 81.1808 25.4532 81.1789 25.4466 81.1751C25.4399 81.1712 25.4345 81.1656 25.431 81.1587C25.4275 81.1519 25.4259 81.1442 25.4266 81.1366C25.4273 81.1289 25.4302 81.1216 25.4349 81.1156L28.7091 76.9059C28.7718 76.8267 28.7524 76.7849 28.6508 76.7805C27.1616 76.7088 24.239 76.888 23.1103 77.9919C22.0562 79.0234 21.0149 80.0624 19.9862 81.1088C19.9384 81.1566 19.8809 81.1805 19.8138 81.1805H18.9269C18.8523 81.1805 18.8149 81.1432 18.8149 81.0685V77.385C18.8149 77.3238 18.8426 77.2798 18.8978 77.2529C20.0601 76.6595 21.8517 75.5108 23.1327 75.4347C25.3744 75.3004 27.3027 75.9564 29.6474 75.3496C32.0571 74.7226 34.3123 73.7337 36.4129 72.3827C36.501 72.326 36.4928 72.2968 36.3883 72.2954C32.5155 72.2595 29.2891 72.2565 26.7092 72.2864C25.4775 72.3021 24.3465 73.1082 23.3992 74.1248C23.2977 74.2337 23.2656 74.2166 23.3029 74.0733L24.1136 70.869C24.1315 70.7973 24.1756 70.7496 24.2457 70.7257L26.8928 69.8255C26.9507 69.8068 27.0134 69.8092 27.0697 69.8322C30.8097 71.4064 34.3817 72.2439 38.2874 70.7078C41.8019 69.3239 45.1754 67.6983 48.4077 65.8308C48.4095 65.8299 48.4109 65.8283 48.4115 65.8264C48.4121 65.8246 48.412 65.8225 48.4111 65.8207C48.4102 65.8189 48.4086 65.8176 48.4067 65.8169C48.4048 65.8163 48.4028 65.8165 48.401 65.8174C46.9565 66.4466 45.6442 66.7847 43.9757 66.7869C40.3672 66.7959 36.7578 66.7974 33.1478 66.7914C31.5353 66.7869 29.0069 68.379 27.7035 69.2836C27.6921 69.2909 27.6788 69.2945 27.6653 69.2938C27.6518 69.2931 27.6388 69.2882 27.6283 69.2799C27.6177 69.2715 27.6099 69.26 27.6062 69.247C27.6024 69.2341 27.6028 69.2202 27.6072 69.2075L29.4727 64.5074C29.5241 64.3792 29.6053 64.2648 29.7096 64.1738C29.8139 64.0827 29.9384 64.0175 30.0729 63.9835L33.7188 63.0654C33.798 63.046 33.8704 63.0594 33.9361 63.1057C36.1218 64.6328 39.6087 65.2643 42.2155 65.5778C45.0843 65.9226 48.2599 64.8948 50.8129 63.652C54.2677 61.9697 57.4419 59.8596 60.3353 57.3218C60.3392 57.3189 60.3417 57.3145 60.3423 57.3097C60.3429 57.3048 60.3416 57.2999 60.3387 57.2961C60.3357 57.2922 60.3313 57.2897 60.3265 57.2891C60.3216 57.2884 60.3168 57.2898 60.3129 57.2927Z" fill="#213F97"/>
<path d="M70.1443 35.4702C71.9897 31.9474 76.406 30.8814 79.9489 30.008C79.9565 30.0064 79.9644 30.0072 79.9716 30.0102C79.9788 30.0132 79.9848 30.0184 79.989 30.025C79.9931 30.0316 79.9952 30.0393 79.9948 30.0471C79.9944 30.0548 79.9917 30.0623 79.9869 30.0685C78.4238 32.0393 75.4183 35.6628 72.675 35.6269C71.8568 35.6165 71.0424 35.612 70.2317 35.6135C70.1242 35.6135 70.0951 35.5657 70.1443 35.4702Z" fill="white"/>
</g>
<defs>
<clipPath id="clip0_105_1798">
<rect width="100" height="100" fill="white"/>
</clipPath>
</defs>
</svg>
