<svg width="100" height="100" viewBox="0 0 100 100" fill="none" xmlns="http://www.w3.org/2000/svg">
<rect width="100" height="100" fill="#E55900"/>
<path d="M41.851 6.93116C42.0352 6.66819 42.3924 6.58803 42.6779 6.48819C44.1704 5.97069 45.5574 6.14272 46.839 7.00428C47.5337 7.47116 48.3113 8.78882 47.3016 9.416C46.531 9.89413 44.8505 10.7674 44.2613 9.70007C43.7241 8.72788 42.962 7.97788 41.9748 7.45007C41.9302 7.42636 41.8912 7.39346 41.8604 7.35354C41.8295 7.31362 41.8075 7.2676 41.7958 7.21853C41.7841 7.16945 41.783 7.11845 41.7925 7.06891C41.802 7.01936 41.822 6.97241 41.851 6.93116Z" fill="white"/>
<path d="M51.6975 9.30913C50.7609 8.65382 51.8114 7.31366 52.4625 6.92554C53.9053 6.06397 55.4025 5.97632 56.9541 6.66257C57.1359 6.74319 57.2606 6.85616 57.3281 7.00147C57.3569 7.0633 57.363 7.13331 57.3452 7.19916C57.3275 7.26501 57.2871 7.32249 57.2311 7.36147C56.2664 8.03226 55.4423 8.58069 54.8728 9.72116C54.3244 10.8223 52.3584 9.77038 51.6975 9.30913Z" fill="white"/>
<path d="M45.832 46.1206C31.9467 43.0057 24.952 26.4837 30.6839 13.9217C31.1479 12.9045 31.627 12.1029 32.1211 11.517C34.2473 8.99417 37.9922 8.06886 41.0704 9.43292C42.0844 9.88292 43.1531 10.8996 42.8733 12.1287C42.7214 12.7953 42.3122 13.2284 41.7454 13.7909C37.8572 17.6398 36.8812 23.4631 37.5829 28.6774C38.4548 35.1532 41.5668 41.2142 45.8658 46.0629C45.8707 46.0685 45.8737 46.0754 45.8744 46.0828C45.8751 46.0902 45.8735 46.0976 45.8698 46.104C45.866 46.1104 45.8604 46.1154 45.8536 46.1184C45.8468 46.1214 45.8392 46.1221 45.832 46.1206Z" fill="white"/>
<path d="M69.5976 29.1584C69.5994 29.164 69.6013 29.1687 69.6032 29.1725C69.6088 29.1828 69.6107 29.1912 69.6088 29.1978C67.581 37.4862 61.6579 44.1659 53.188 46.1304C53.1803 46.1321 53.1722 46.1312 53.165 46.128C53.1577 46.1248 53.1516 46.1194 53.1476 46.1126C53.1436 46.1058 53.1418 46.0978 53.1425 46.09C53.1432 46.0821 53.1463 46.0746 53.1515 46.0686C58.5782 39.9204 62.4018 31.5026 61.5046 23.1326C61.101 19.3695 59.6441 16.0367 56.8429 13.3522C55.7122 12.2694 55.9372 10.7576 57.2099 9.85904C58.8102 8.72983 61.2473 8.58217 63.0641 9.08983C65.1407 9.67014 66.6899 10.8669 67.7118 12.68C70.4737 17.5779 70.9616 23.7261 69.5962 29.1317C69.5943 29.1411 69.5948 29.15 69.5976 29.1584Z" fill="white"/>
<path d="M50.4739 94.1116L48.8286 94.0849L48.7667 46.9277C48.7667 46.8809 48.7508 46.8405 48.7189 46.8068C42.7311 40.466 37.8346 31.2256 39.4742 22.2199C40.3124 17.6187 43.5256 12.2356 48.7006 11.7209C51.1935 11.4734 53.3258 12.117 55.0977 13.6516C59.4219 17.3979 60.7227 23.3927 59.9141 28.8391C58.9002 35.6735 55.22 41.8554 50.5555 46.8251C50.5227 46.8598 50.5063 46.901 50.5063 46.9488L50.4739 94.1116Z" fill="white"/>
<path d="M53.8391 94.0695L52.1558 94.1117C52.1558 84.0185 52.1544 73.9292 52.1516 63.8436C52.1502 60.56 53.9657 59.2507 57.0524 59.2325C61.2318 59.209 65.4121 59.1996 69.5933 59.2043C70.0096 59.2053 70.4183 59.0417 70.8196 58.7136C70.8665 58.6751 70.8899 58.6859 70.8899 58.7459C70.9002 62.8737 70.9011 65.4631 70.8927 66.514C70.8744 68.7134 69.4822 69.2351 67.5627 69.2337C64.4427 69.2309 61.3227 69.2257 58.2027 69.2182C55.2397 69.2098 53.856 69.612 53.849 72.9026C53.8335 79.9592 53.8574 87.0157 53.8391 94.0695Z" fill="white"/>
<path d="M47.1257 94.0764L45.4425 94.0104C45.4415 86.8422 45.4406 79.6811 45.4396 72.5271C45.4396 69.8833 44.1121 69.2688 41.7398 69.2533C38.4735 69.2318 35.2073 69.2233 31.941 69.228C29.7459 69.2322 28.4043 68.8174 28.3945 66.2651C28.3851 63.7676 28.3851 61.2696 28.3945 58.7711C28.3945 58.7027 28.4226 58.6886 28.4789 58.729C28.9129 59.0449 29.2935 59.2029 29.6207 59.2029C33.6876 59.2029 37.754 59.2038 41.82 59.2057C43.9448 59.2071 46.2075 59.6908 46.9092 61.9408C47.0517 62.3955 47.1234 63.326 47.1243 64.7322C47.1309 74.5104 47.1314 84.2918 47.1257 94.0764Z" fill="white"/>
<path d="M56.3353 93.9696L54.6253 94.0723C54.6197 87.1498 54.6018 80.2273 54.5718 73.3048C54.5662 71.7917 54.9361 70.2223 56.7881 70.2167C60.7837 70.2035 64.7803 70.2012 68.7778 70.2096C69.6258 70.211 70.1953 70.1393 70.8225 69.6696C70.8302 69.6635 70.8396 69.6596 70.8494 69.6586C70.8593 69.6576 70.8692 69.6594 70.8781 69.6638C70.887 69.6683 70.8944 69.6751 70.8995 69.6836C70.9046 69.6921 70.9071 69.7019 70.9068 69.7118C70.8787 71.434 70.8633 73.1627 70.8604 74.8981C70.8576 76.0695 70.3964 76.9034 69.1082 76.9104C65.8148 76.9254 62.5195 76.9306 59.2223 76.9259C58.2084 76.9245 56.8739 76.9202 56.5265 77.9721C56.3845 78.4024 56.3395 79.1941 56.3395 79.7623C56.3414 84.4957 56.34 89.2315 56.3353 93.9696Z" fill="white"/>
<path d="M44.659 93.9907L42.9645 93.905C43.0264 89.1603 42.9335 83.3946 42.9392 79.6639C42.9434 77.629 42.6017 76.9765 40.474 76.9582C37.1731 76.9301 33.8717 76.9156 30.5698 76.9146C29.0665 76.9146 28.4365 76.4154 28.4295 74.8854C28.421 73.1717 28.4056 71.4579 28.3831 69.7442C28.3821 69.6748 28.4112 69.6575 28.4703 69.6921C29.0553 70.0381 29.4734 70.2106 29.7246 70.2096C33.6978 70.2021 37.67 70.2035 41.6412 70.2139C43.4848 70.2181 44.5479 70.55 44.652 72.5257C44.742 74.2062 44.6871 76.182 44.6843 77.5545C44.675 83.0248 44.6665 88.5035 44.659 93.9907Z" fill="white"/>
</svg>
