<svg width="100" height="100" viewBox="0 0 100 100" fill="none" xmlns="http://www.w3.org/2000/svg">
<rect width="100" height="100" fill="white"/>
<path d="M48.4774 52.6347C53.3924 54.8047 60.7574 59.1597 62.1324 64.7947C64.2724 73.5597 40.0924 73.7147 35.8474 73.7297C29.5407 73.753 23.2907 73.0647 17.0974 71.6647C14.0724 70.9797 10.6324 69.3597 9.23241 66.4197C0.527402 48.1697 7.50741 27.0297 24.2924 16.5347C36.8674 8.67468 51.9124 6.84468 66.1024 11.7697C66.1284 11.7775 66.1505 11.7946 66.1646 11.8178C66.1787 11.8409 66.1838 11.8685 66.1788 11.8951C66.1738 11.9217 66.1592 11.9456 66.1377 11.9621C66.1163 11.9787 66.0895 11.9867 66.0624 11.9847C52.5874 11.1247 32.8874 12.8497 23.5874 24.3197C21.2124 27.2497 20.8874 31.2247 22.2074 34.7897C24.3074 40.4447 29.0174 43.1597 34.4274 45.9397C39.0441 48.3097 43.7274 50.5413 48.4774 52.6347Z" fill="#C40001"/>
<path d="M14.9274 74.7897C28.2474 78.9647 42.1474 78.6547 55.4924 75.6747C59.7374 74.7247 66.8174 72.4497 68.0774 67.5697C69.5974 61.6997 60.7524 56.5097 55.9824 54.3697C50.9957 52.1363 45.999 49.9113 40.9924 47.6947C35.7224 45.3647 26.7224 40.4997 25.2174 34.4797C24.0724 29.8847 27.4524 25.5297 31.2524 23.0047C43.8774 14.6097 57.3474 14.3897 71.9674 14.8597C72.8641 14.8897 73.6474 15.103 74.3174 15.4997C75.3341 16.0997 76.3007 16.773 77.2174 17.5197C77.2485 17.5441 77.2706 17.578 77.2805 17.6162C77.2904 17.6544 77.2874 17.6948 77.2721 17.7312C77.2567 17.7676 77.2299 17.7979 77.1956 17.8175C77.1613 17.8371 77.1215 17.8449 77.0824 17.8397C74.7257 17.603 70.5674 17.2913 64.6074 16.9047C53.0074 16.158 42.3757 18.548 32.7124 24.0747C25.2424 28.3447 23.9274 35.5397 30.9174 41.0797C34.2174 43.693 37.8057 45.8197 41.6824 47.4597C49.9624 50.9647 58.9074 54.3847 65.9274 59.4397C68.7124 61.4397 70.3874 65.4647 69.1724 68.7747C67.8124 72.4747 63.1574 74.9647 59.6024 76.0047C50.2274 78.7447 40.0924 80.2347 30.3424 79.1047C25.9024 78.5913 21.5007 77.843 17.1374 76.8597C15.9374 76.5897 15.4874 75.8997 14.7774 75.0097C14.5874 74.773 14.6374 74.6997 14.9274 74.7897Z" fill="#C40001"/>
<path d="M20.3124 79.9546C35.8974 82.9046 53.5174 83.2496 68.2124 75.5896C71.2024 74.0346 74.0974 71.5246 74.4174 67.9896C74.7108 64.7596 73.5141 61.9913 70.8274 59.6846C63.1174 53.0646 53.6424 50.6646 44.4074 47.4796C38.2224 45.3446 24.6924 37.8646 31.7324 29.3346C35.7674 24.4496 42.2624 21.7496 48.3224 20.4646C59.4191 18.118 70.4091 18.5046 81.2924 21.6246C81.5724 21.7046 81.9124 21.6796 82.2075 21.6796C82.3841 21.6763 82.5325 21.7396 82.6525 21.8696L85.4474 24.9246C85.4822 24.964 85.5027 25.0139 85.5058 25.0664C85.5089 25.1188 85.4942 25.1708 85.4643 25.214C85.4344 25.2571 85.3908 25.289 85.3407 25.3046C85.2905 25.3201 85.2365 25.3184 85.1875 25.2996C78.4775 22.5946 72.0874 21.8246 64.4524 21.5946C58.9291 21.428 53.5541 21.7113 48.3274 22.4446C42.4324 23.2696 33.5824 27.1496 31.7424 33.2746C29.0424 42.2496 44.1924 47.0496 50.0924 48.9196C55.7958 50.723 61.1524 52.9446 66.1624 55.5846C72.4674 58.9146 77.5674 63.6146 74.4424 71.5346C74.0758 72.4646 73.0208 73.6663 71.2774 75.1396C66.0574 79.5646 57.0374 82.1396 50.1624 83.1146C42.3924 84.2213 34.6058 84.0996 26.8024 82.7496C25.1824 82.4696 22.9524 82.4746 21.6374 81.4946C21.1174 81.108 20.6291 80.6846 20.1724 80.2246C19.9291 79.9813 19.9758 79.8913 20.3124 79.9546Z" fill="#C40001"/>
<path d="M31.1873 86.6747C41.2273 88.1897 51.9623 87.1897 61.6923 84.4447C69.5923 82.2197 79.0823 76.4497 79.1323 67.3047C79.149 64.1113 77.8856 61.4847 75.3423 59.4247C70.3156 55.3513 64.7189 52.323 58.5523 50.3397C54.2056 48.9363 49.8723 47.4813 45.5523 45.9747C41.1723 44.4497 35.0973 41.5947 35.2023 36.5647C35.5323 21.1647 85.0023 21.2597 90.6323 32.7747C104.327 60.7897 82.2473 88.5147 53.5273 90.5697C45.7506 91.123 38.2839 89.893 31.1273 86.8797C31.1025 86.8707 31.0823 86.8529 31.0706 86.8298C31.059 86.8067 31.0566 86.7799 31.0641 86.7545C31.0715 86.7291 31.0882 86.7069 31.1109 86.6922C31.1337 86.6774 31.1608 86.6712 31.1873 86.6747Z" fill="#C40001"/>
</svg>
