<svg width="100" height="100" viewBox="0 0 100 100" fill="none" xmlns="http://www.w3.org/2000/svg">
<rect width="100" height="100" fill="#243D80"/>
<path d="M54.5589 48.8215L50.8694 48.8167C50.8023 48.8164 50.7358 48.8293 50.6737 48.8548C50.6117 48.8803 50.5552 48.9177 50.5077 48.9651C50.4601 49.0124 50.4224 49.0687 50.3966 49.1306C50.3709 49.1926 50.3576 49.259 50.3576 49.3261V58.0951C50.3576 58.1745 50.318 58.2142 50.2386 58.2142H47.5013C47.3823 58.2142 47.3228 58.1547 47.3228 58.0356V42.8421C47.3228 42.7723 47.3416 42.7037 47.3772 42.6438C47.4128 42.5839 47.4639 42.5348 47.5251 42.5018L50.1982 41.0426C50.3045 40.9839 50.3576 41.0149 50.3576 41.1355V45.6009C50.3576 45.6371 50.3649 45.6728 50.3792 45.706C50.3935 45.7392 50.4145 45.7691 50.4408 45.7939C50.4672 45.8187 50.4983 45.8378 50.5323 45.85C50.5663 45.8623 50.6024 45.8674 50.6385 45.8651C54.09 45.6485 58.1793 45.1272 58.1555 49.9973C58.1428 52.6728 58.1444 55.3491 58.1603 58.0261C58.1619 58.1118 58.1198 58.1547 58.0341 58.1547H55.2968C55.2174 58.1547 55.1778 58.115 55.1778 58.0356V49.4427C55.1778 49.0286 54.9715 48.8215 54.5589 48.8215Z" fill="white"/>
<path d="M79.7357 44.3488H76.9127C76.8931 44.3488 76.8743 44.341 76.8605 44.3272C76.8466 44.3133 76.8389 44.2946 76.8389 44.275V42.6374C76.8389 42.6242 76.8425 42.6113 76.8492 42.6C76.8559 42.5888 76.8655 42.5794 76.877 42.5731L79.7476 41.0092C79.759 41.0029 79.7718 40.9997 79.7849 41C79.7979 41.0003 79.8106 41.004 79.8217 41.0108C79.8328 41.0175 79.842 41.0271 79.8482 41.0386C79.8544 41.05 79.8575 41.0629 79.8571 41.0759L79.8095 44.275C79.8095 44.2946 79.8017 44.3133 79.7879 44.3272C79.774 44.341 79.7553 44.3488 79.7357 44.3488Z" fill="#E91F29"/>
<path d="M43.9693 45.8459L45.7641 45.7602C45.7811 45.7596 45.798 45.7623 45.8138 45.7682C45.8297 45.7742 45.8442 45.7832 45.8564 45.7947C45.8686 45.8063 45.8784 45.8202 45.885 45.8355C45.8916 45.8508 45.895 45.8673 45.895 45.884V48.6928C45.895 48.7721 45.8553 48.8118 45.776 48.8118H44.3811C44.0066 48.8118 43.8194 48.999 43.8194 49.3735L43.8075 58.0973C43.8075 58.1283 43.7952 58.1579 43.7733 58.1798C43.7514 58.2017 43.7218 58.214 43.6908 58.214H40.9249C40.8265 58.214 40.7773 58.164 40.7773 58.064L40.7797 42.742C40.7797 42.6579 40.817 42.5952 40.8916 42.5539L43.6623 41.0496C43.7622 40.994 43.8122 41.0234 43.8122 41.1377V45.6959C43.8122 45.7163 43.8163 45.7364 43.8243 45.755C43.8323 45.7737 43.844 45.7906 43.8587 45.8046C43.8733 45.8186 43.8907 45.8295 43.9098 45.8366C43.9288 45.8437 43.9491 45.8469 43.9693 45.8459Z" fill="white"/>
<path d="M71.9403 42.5709L74.83 41.0118C74.8412 41.0056 74.8538 41.0024 74.8667 41.0026C74.8795 41.0027 74.892 41.0062 74.9031 41.0127C74.9141 41.0192 74.9233 41.0285 74.9297 41.0396C74.9361 41.0507 74.9394 41.0632 74.9395 41.076L74.9133 58.081C74.9133 58.1005 74.9055 58.1193 74.8917 58.1331C74.8779 58.147 74.8591 58.1547 74.8395 58.1547H71.9712C71.9517 58.1547 71.9329 58.147 71.9191 58.1331C71.9052 58.1193 71.8975 58.1005 71.8975 58.081L71.9022 42.6351C71.9023 42.622 71.9058 42.6091 71.9125 42.5978C71.9192 42.5865 71.9288 42.5772 71.9403 42.5709Z" fill="white"/>
<path d="M7.08845 46.0794C7.08431 46.0715 7.07773 46.0653 7.06971 46.0616C7.06169 46.0579 7.05267 46.0569 7.04403 46.0588C7.0354 46.0606 7.02761 46.0653 7.02188 46.072C7.01615 46.0788 7.01277 46.0872 7.01228 46.096L7.02418 58.0713C7.02418 58.1666 6.97657 58.2142 6.88136 58.2142H4.12259C4.04324 58.2142 4.00357 58.1745 4.00357 58.0951C3.99881 53.7027 3.99881 49.311 4.00357 44.9202C4.00357 44.0228 4.16067 43.3444 4.91761 42.9017C5.52459 42.5494 7.65258 42.447 8.34763 42.7969C9.3069 43.2754 9.47114 43.999 9.89721 44.9011C11.4349 48.1558 12.9654 51.412 14.4888 54.6699C14.4948 54.6807 14.5041 54.6894 14.5153 54.6945C14.5266 54.6996 14.5392 54.7009 14.5513 54.6982C14.5634 54.6955 14.5743 54.689 14.5823 54.6796C14.5904 54.6702 14.5951 54.6584 14.5959 54.6461V42.7779C14.5959 42.6747 14.6475 42.6232 14.7507 42.6232H17.5047C17.5856 42.6232 17.6261 42.6636 17.6261 42.7446C17.6308 47.1259 17.6308 51.508 17.6261 55.891C17.6237 57.3192 17.0619 58.088 15.6409 58.1975C14.4174 58.2927 12.8774 58.3403 12.2847 57.0835C10.555 53.4131 8.8229 49.745 7.08845 46.0794Z" fill="white"/>
<path d="M84.8578 47.4431H87.3714C87.4508 47.4431 87.4904 47.4828 87.4904 47.5622V50.359C87.4904 50.3906 87.4779 50.4209 87.4556 50.4432C87.4333 50.4655 87.403 50.478 87.3714 50.478H84.8721C84.7912 50.478 84.7507 50.5177 84.7507 50.597L84.7578 58.0641C84.7578 58.164 84.7071 58.214 84.6055 58.214H81.8491C81.7698 58.214 81.7301 58.1744 81.7301 58.095C81.7063 54.2421 81.7087 50.3947 81.7372 46.5529C81.7499 44.7613 82.4648 43.5585 83.8819 42.9444C85.0863 42.4231 86.9096 42.6206 88.3236 42.623C88.4029 42.6246 88.4426 42.6651 88.4426 42.7444V45.4842C88.4426 45.5134 88.4311 45.5415 88.4106 45.5624C88.3902 45.5833 88.3623 45.5954 88.3331 45.596L85.2268 45.6198C85.1242 45.6213 85.026 45.661 84.9515 45.7311C84.877 45.8012 84.8317 45.8966 84.8245 45.9983L84.7317 47.3075C84.7253 47.3979 84.7674 47.4431 84.8578 47.4431Z" fill="white"/>
<path d="M90.0918 44.0347C91.5248 42.2018 93.8385 42.6112 95.876 42.6208C95.9585 42.6208 95.9998 42.662 95.9998 42.7445V45.47C95.9998 45.543 95.9633 45.5803 95.8903 45.5819L92.7792 45.639C92.6786 45.6408 92.5825 45.6814 92.5111 45.7524C92.4397 45.8234 92.3984 45.9192 92.396 46.0198L92.3603 47.2552C92.3555 47.3806 92.4158 47.4433 92.5412 47.4433H94.9881C95.0197 47.4433 95.05 47.4558 95.0723 47.4781C95.0946 47.5004 95.1072 47.5307 95.1072 47.5623V50.3591C95.1072 50.3907 95.0946 50.421 95.0723 50.4433C95.05 50.4656 95.0197 50.4782 94.9881 50.4782H92.5483C92.4293 50.4782 92.3698 50.5377 92.3698 50.6567V58.0951C92.3698 58.1267 92.3573 58.157 92.3349 58.1793C92.3126 58.2016 92.2824 58.2142 92.2508 58.2142H89.3992C89.3516 58.2142 89.3286 58.1911 89.3302 58.1451C89.3365 54.1732 89.3381 50.2092 89.3349 46.2531C89.3333 45.42 89.5856 44.6805 90.0918 44.0347Z" fill="white"/>
<path d="M34.2931 58.2259L31.5439 58.1759C31.4661 58.1743 31.4272 58.1346 31.4272 58.0569C31.4336 55.3989 31.4368 52.7432 31.4368 50.09C31.4368 45.1223 35.4357 45.6436 38.9633 45.7983C39.0617 45.8031 39.1109 45.8546 39.1109 45.953V48.6856C39.1109 48.7618 39.0736 48.7999 38.999 48.7999L34.8192 48.8379C34.7255 48.8386 34.6359 48.8762 34.5699 48.9427C34.5039 49.0091 34.4669 49.099 34.4669 49.1926L34.4288 58.0926C34.4288 58.183 34.3836 58.2275 34.2931 58.2259Z" fill="white"/>
<path d="M61.1566 57.3548C59.2928 55.8029 59.876 52.3657 59.8736 50.0901C59.8713 47.4861 60.9543 45.8246 63.8511 45.8032C65.3864 45.7937 66.986 45.5866 68.2166 46.1626C69.8495 46.9275 70.5271 48.3469 70.2494 50.421C70.2383 50.4987 70.1939 50.5376 70.1161 50.5376H67.3764C67.297 50.5376 67.2574 50.4979 67.2574 50.4186V49.2665C67.2574 49.1502 67.2113 49.0385 67.1292 48.956C67.0472 48.8735 66.9358 48.8268 66.8194 48.8262L63.4132 48.8071C63.2871 48.8065 63.1659 48.8556 63.0758 48.9439C62.9858 49.0322 62.9342 49.1524 62.9323 49.2784L62.8466 54.5675C62.8454 54.6474 62.86 54.7267 62.8897 54.8009C62.9194 54.875 62.9636 54.9425 63.0196 54.9995C63.0757 55.0564 63.1425 55.1016 63.2162 55.1325C63.2899 55.1633 63.369 55.1792 63.4489 55.1792H66.8836C66.9908 55.1792 67.0936 55.1373 67.1698 55.0624C67.246 54.9875 67.2894 54.8858 67.2907 54.7793L67.3121 53.6035C67.3127 53.5792 67.3228 53.5562 67.3401 53.5393C67.3575 53.5224 67.3807 53.513 67.4049 53.513H70.1161C70.1954 53.513 70.2407 53.5527 70.2518 53.632C70.5898 56.248 69.1592 58.1903 66.5195 58.1617C64.8056 58.1451 62.5753 58.5378 61.1566 57.3548Z" fill="white"/>
<path d="M79.7524 45.7769H76.9008C76.8666 45.7769 76.8389 45.8046 76.8389 45.8387V58.1497C76.8389 58.1839 76.8666 58.2116 76.9008 58.2116H79.7524C79.7865 58.2116 79.8143 58.1839 79.8143 58.1497V45.8387C79.8143 45.8046 79.7865 45.7769 79.7524 45.7769Z" fill="white"/>
<path fill-rule="evenodd" clip-rule="evenodd" d="M29.4227 55.9811C29.6042 55.545 29.6981 55.0775 29.6989 54.6052L29.708 49.4018C29.7097 48.4479 29.3323 47.5324 28.659 46.8568C27.9857 46.1811 27.0715 45.8006 26.1176 45.7989L22.8566 45.7932C22.3843 45.7924 21.9165 45.8846 21.4798 46.0646C21.0431 46.2446 20.6461 46.5088 20.3116 46.8422C19.977 47.1756 19.7114 47.5716 19.5299 48.0077C19.3484 48.4437 19.2545 48.9113 19.2537 49.3836L19.2446 54.5869C19.243 55.5408 19.6203 56.4563 20.2936 57.132C20.967 57.8076 21.8811 58.1882 22.835 58.1898L26.096 58.1955C26.5683 58.1963 27.0362 58.1041 27.4728 57.9241C27.9095 57.7442 28.3065 57.4799 28.641 57.1465C28.9756 56.8131 29.2412 56.4171 29.4227 55.9811ZM22.8359 48.8251L26.1445 48.8366C26.443 48.8377 26.684 49.0804 26.683 49.3789L26.6646 54.6441C26.6636 54.9425 26.4208 55.1835 26.1224 55.1825L22.8138 55.171C22.5154 55.1699 22.2743 54.9272 22.2753 54.6287L22.2937 49.3635C22.2948 49.0651 22.5375 48.8241 22.8359 48.8251Z" fill="white"/>
</svg>
