<svg width="100" height="100" viewBox="0 0 100 100" fill="none" xmlns="http://www.w3.org/2000/svg">
<rect width="100" height="100" fill="#DFFFC7"/>
<path d="M50.8685 41.0411L50.8418 44.786" stroke="#64C44E" stroke-width="0.28125"/>
<path d="M51.092 51.1774L51.0737 59.6163" stroke="#CF1322" stroke-width="0.28125"/>
<path d="M50.8685 41.0412L50.8418 44.7861C50.4959 44.8311 50.2006 45.057 49.9559 45.4639C47.1368 50.1542 44.3192 54.8506 41.5029 59.5531C41.472 59.6047 41.4265 59.6304 41.3665 59.6304L37.0563 59.6065C37.0257 59.6063 36.9955 59.5983 36.9689 59.5831C36.9422 59.568 36.9199 59.5463 36.904 59.5202C36.8882 59.494 36.8794 59.4643 36.8785 59.4339C36.8776 59.4034 36.8846 59.3733 36.8988 59.3464C37.5176 58.1679 38.1827 57.0017 38.8943 55.8476C41.4012 51.7836 43.8846 47.705 46.3446 43.6118C47.4879 41.7078 48.5018 40.7881 50.8685 41.0412Z" fill="#A1CF4B"/>
<path d="M20.243 51.7118C20.215 51.7118 20.1882 51.7007 20.1684 51.6809C20.1486 51.6612 20.1375 51.6343 20.1375 51.6064V48.6195C20.1375 48.5726 20.161 48.5492 20.2079 48.5492H33.9877C34.0056 48.5492 34.0228 48.5563 34.0354 48.5689C34.0481 48.5816 34.0552 48.5988 34.0552 48.6167C34.0646 51.0035 34.0637 53.3984 34.0524 55.8012C34.0398 58.4393 32.8782 59.6192 30.2119 59.6206C26.0916 59.6243 21.9718 59.6206 17.8524 59.6093C17.1314 59.6074 16.2647 59.5278 15.2522 59.3703C10.3135 58.601 10.0575 55.4679 10.0336 51.2689C10.0196 48.8121 9.65533 44.6342 11.7028 42.8103C13.4691 41.2367 16.238 40.9807 18.5021 41.0285C23.656 41.1368 28.8296 41.0623 33.9863 41.0609C34.0351 41.0609 34.0594 41.0848 34.0594 41.1326V44.7804C34.0594 44.8292 34.0351 44.8535 33.9863 44.8535C28.7813 44.8601 23.5796 44.8634 18.3811 44.8634C17.0339 44.862 15.0652 45.094 14.7417 46.7449C14.4113 48.4268 14.5435 50.2845 14.5547 51.9945C14.5594 52.6657 14.6232 53.33 14.746 53.9871C14.9583 55.1192 16.3491 55.8181 17.37 55.8195C23.056 55.8335 26.7558 55.835 28.4696 55.8237C29.1502 55.8195 29.6691 55.6887 29.738 54.9096C29.8196 53.9778 29.8365 53.0435 29.7886 52.107C29.7858 52.0582 29.7961 52.0123 29.8196 51.9692C29.8468 51.9176 29.8515 51.8623 29.8337 51.8032C29.8168 51.7479 29.7793 51.7203 29.7211 51.7203L20.243 51.7118Z" fill="#A1CF4B"/>
<path d="M50.868 41.0412C54.2543 40.6826 54.8815 42.8271 56.3243 45.1052C57.2327 46.541 57.7741 47.4916 58.5194 48.6729C60.3363 51.5543 62.1645 54.4624 63.8731 57.4085C64.1965 57.9654 64.7604 58.6488 65.0487 59.3899C65.0585 59.4153 65.0588 59.4435 65.0496 59.4693C65.0403 59.4951 65.022 59.5168 64.9981 59.5305C64.9006 59.5868 64.7712 59.6154 64.6099 59.6163C63.3677 59.6266 62.1255 59.6276 60.8834 59.6191C60.5023 59.6163 60.3602 59.4926 60.1634 59.1621C58.144 55.7702 56.1021 52.3919 54.0377 49.0273C53.4626 48.0907 52.5049 46.2527 51.6049 45.1333C51.4418 44.9308 51.1872 44.8151 50.8413 44.786L50.868 41.0412Z" fill="#26B951"/>
<path d="M73.5749 51.8566C71.6849 51.8608 69.3984 51.2463 68.6657 49.3999C67.8543 47.351 67.8754 44.471 69.1129 42.6119C69.8652 41.4813 71.8354 41.0411 73.1882 41.0482C78.7729 41.0744 84.3576 41.0744 89.9423 41.0482C89.9995 41.0482 90.0281 41.0768 90.0281 41.134V44.6201C90.0281 44.6885 89.9939 44.7213 89.9254 44.7185C89.564 44.703 89.204 44.7508 88.8721 44.7508C84.0074 44.7518 79.1427 44.7551 74.278 44.7607C72.5526 44.7635 72.703 46.6268 73.0194 47.7743C73.1666 48.3115 73.5041 48.5791 74.0319 48.5772C80.0095 48.5585 83.8884 48.5693 85.6687 48.6096C86.1862 48.6218 86.9338 48.7577 87.9117 49.0174C89.6709 49.4857 90.5554 50.6922 90.6454 52.4501C90.7185 53.883 90.9745 56.4241 90.1321 57.7038C89.107 59.2591 87.1171 59.6191 85.3748 59.6205C79.6645 59.6243 73.957 59.6247 68.2523 59.6219C68.2372 59.6219 68.2227 59.6161 68.212 59.6055C68.2012 59.595 68.195 59.5807 68.1946 59.5657L68.1932 55.9277C68.1932 55.9106 68.2 55.8941 68.2121 55.882C68.2243 55.8698 68.2407 55.863 68.2579 55.863C73.7835 55.863 79.3143 55.8611 84.8502 55.8574C86.4056 55.856 86.3662 54.1713 86.234 53.1138C86.1309 52.2916 85.6406 51.8782 84.7631 51.8735C81.0337 51.8547 77.3043 51.8491 73.5749 51.8566Z" fill="#A1CF4B"/>
<path d="M51.0919 51.1774L51.0736 59.6163L45.6497 59.6149C45.5831 59.6149 45.5653 59.5853 45.5963 59.5263C46.0814 58.6178 46.7564 57.6728 47.191 56.9121C48.233 55.0868 49.3327 53.3374 50.3424 51.4882C50.5111 51.1788 50.7642 51.0607 51.0919 51.1774Z" fill="#F81C2D"/>
<path d="M51.092 51.1774C51.228 51.1849 51.3301 51.2444 51.3986 51.356C51.6864 51.8256 51.9475 52.3099 52.1819 52.8086C52.2634 52.9816 52.4209 53.111 52.5151 53.26C53.8183 55.3188 55.0656 57.4103 56.2572 59.5347C56.2862 59.5863 56.2712 59.6121 56.2122 59.6121L51.0737 59.6163L51.092 51.1774Z" fill="#A60A17"/>
</svg>
