<svg width="100" height="100" viewBox="0 0 100 100" fill="none" xmlns="http://www.w3.org/2000/svg">
<rect width="100" height="100" fill="#29503F"/>
<path d="M21.0245 79.8809C7.05763 66.6059 3.9545 45.2946 13.8507 28.6521C25.8845 8.41526 52.0145 1.97463 72.1632 13.969C91.8095 25.6634 98.357 50.9928 86.8932 70.7215C78.6001 84.994 62.3214 93.1503 45.887 91.3803C36.287 90.3453 27.9995 86.5121 21.0245 79.8809Z" fill="#11933F"/>
<path d="M36.3225 88.0034C8.07378 77.8634 -0.00183296 41.8915 21.5175 20.7734C40.0594 2.57836 70.9838 6.20836 84.9994 27.9921C92.3175 39.3659 93.39 53.9346 87.8644 66.2627C79.0725 85.879 56.4694 95.2352 36.3225 88.0034Z" fill="white"/>
<path d="M54.7724 12.1184L54.2455 17.7022C54.2444 17.7157 54.2405 17.7289 54.2342 17.741C54.2279 17.7531 54.2193 17.7638 54.2088 17.7725C54.1984 17.7812 54.1863 17.7878 54.1733 17.7918C54.1603 17.7958 54.1466 17.7972 54.133 17.7959L52.8393 17.674C52.8257 17.6729 52.8125 17.669 52.8005 17.6627C52.7884 17.6564 52.7777 17.6478 52.769 17.6373C52.7603 17.6269 52.7537 17.6148 52.7497 17.6018C52.7457 17.5888 52.7442 17.5751 52.7455 17.5615L53.2649 11.9797C53.2662 11.9661 53.2648 11.9524 53.2608 11.9394C53.2567 11.9264 53.2502 11.9143 53.2415 11.9039C53.2328 11.8934 53.2221 11.8848 53.21 11.8785C53.1979 11.8722 53.1847 11.8683 53.1712 11.8672L51.178 11.6853C51.151 11.6829 51.126 11.67 51.1084 11.6492C51.0909 11.6285 51.0822 11.6017 51.0843 11.5747L51.1612 10.5922C51.1621 10.5784 51.1658 10.565 51.172 10.5528C51.1782 10.5405 51.1868 10.5296 51.1973 10.5206C51.2077 10.5117 51.2199 10.505 51.233 10.5009C51.2461 10.4967 51.26 10.4953 51.2737 10.4965L56.998 11.0403C57.0251 11.0431 57.0499 11.0566 57.0671 11.0776C57.0843 11.0987 57.0925 11.1257 57.0899 11.1528L56.9924 12.124C56.9896 12.1511 56.9761 12.1759 56.9551 12.1931C56.934 12.2104 56.907 12.2185 56.8799 12.2159L54.8849 12.0247C54.8714 12.0234 54.8577 12.0248 54.8447 12.0288C54.8317 12.0328 54.8196 12.0394 54.8091 12.0481C54.7987 12.0568 54.79 12.0675 54.7837 12.0796C54.7774 12.0917 54.7736 12.1049 54.7724 12.1184Z" fill="#DA231D"/>
<path d="M47.8275 14.6478C48.9206 15.3491 49.6968 16.2622 50.4618 17.3084C50.5056 17.3684 50.4906 17.4022 50.4168 17.4097L48.825 17.5691C48.7993 17.5714 48.7736 17.5677 48.7498 17.5582C48.726 17.5488 48.7049 17.5339 48.6881 17.5147C47.5987 16.2659 46.6856 14.6966 45.1837 15.0266C45.1491 15.0342 45.1184 15.0544 45.0977 15.0835C45.0769 15.1125 45.0675 15.1483 45.0712 15.1841L45.3562 17.8278C45.3578 17.8431 45.3563 17.8585 45.3518 17.8732C45.3474 17.8879 45.3401 17.9016 45.3303 17.9135C45.3205 17.9253 45.3085 17.9351 45.2949 17.9423C45.2814 17.9495 45.2665 17.9539 45.2512 17.9553L44.01 18.0866C43.9112 18.0966 43.8568 18.0528 43.8468 17.9553L43.125 11.2484C43.1187 11.1922 43.1437 11.1603 43.2 11.1528C44.2475 11.0166 45.2918 10.8922 46.3331 10.7797C47.7768 10.6241 49.4175 10.8359 49.4043 12.6378C49.3968 13.6028 48.8768 14.2328 47.8443 14.5278C47.7493 14.5541 47.7437 14.5941 47.8275 14.6478Z" fill="#DA231D"/>
<path d="M59.0646 17.5221L62.4359 18.4953C62.5159 18.5178 62.5428 18.5684 62.5165 18.6471L62.2915 19.309C62.2857 19.3275 62.2859 19.3475 62.2922 19.366C62.2984 19.3845 62.3104 19.4004 62.3263 19.4114C62.3421 19.4224 62.3611 19.4279 62.3802 19.427C62.3992 19.4261 62.4175 19.4189 62.4321 19.4065L68.0046 14.7996C68.0596 14.7534 68.119 14.7471 68.1828 14.7809L69.4146 15.439C69.4407 15.4529 69.4621 15.4742 69.4761 15.5002C69.4901 15.5263 69.4961 15.5558 69.4934 15.5853L68.8953 22.9221C68.8878 23.0209 68.8403 23.0478 68.7528 23.0028L67.519 22.3615C67.4913 22.347 67.4686 22.3245 67.4539 22.2971C67.4391 22.2697 67.4331 22.2385 67.4365 22.2078L67.6034 20.7003C67.6066 20.6731 67.6016 20.6456 67.5889 20.6212C67.5762 20.5968 67.5564 20.5767 67.5321 20.5634L65.0815 19.2696C65.0446 19.2502 65.0024 19.2426 64.9606 19.2476C64.9189 19.2526 64.8793 19.2701 64.8471 19.2978L63.7465 20.254C63.7266 20.2716 63.7016 20.2827 63.6748 20.2857C63.648 20.2887 63.6207 20.2835 63.5965 20.2709C61.7121 19.2678 59.299 18.844 57.2459 18.2178C57.1771 18.1978 57.1528 18.1534 57.1728 18.0846L59.029 11.6346C59.0515 11.5596 59.1003 11.5334 59.1753 11.5559L60.4165 11.9215C60.4815 11.9415 60.5046 11.984 60.4859 12.049L58.9653 17.3421C58.9598 17.3605 58.9581 17.3797 58.9602 17.3987C58.9622 17.4178 58.9681 17.4362 58.9773 17.4529C58.9866 17.4697 58.999 17.4844 59.014 17.4963C59.029 17.5082 59.0462 17.517 59.0646 17.5221Z" fill="#DA231D"/>
<path d="M44.758 12.2122C44.757 12.2015 44.7601 12.1909 44.7667 12.1825C44.7734 12.1741 44.783 12.1686 44.7936 12.1672L46.7361 11.9459C47.0064 11.9151 47.2753 11.971 47.4838 12.1015C47.6923 12.2319 47.8233 12.4262 47.848 12.6415L47.8611 12.7615C47.8856 12.9769 47.8018 13.1957 47.6281 13.3697C47.4544 13.5437 47.2051 13.6588 46.9349 13.6897L44.9924 13.9109C44.987 13.9114 44.9815 13.9109 44.9763 13.9093C44.9711 13.9077 44.9663 13.905 44.9621 13.9015C44.9579 13.8981 44.9544 13.8938 44.9519 13.889C44.9494 13.8841 44.9479 13.8788 44.9474 13.8734L44.758 12.2122Z" fill="white"/>
<path d="M41.9547 15.1768C42.2514 15.9964 42.2103 16.9004 41.8406 17.6898C41.4708 18.4792 40.8025 19.0894 39.9828 19.3861L39.3693 19.6082C38.5496 19.905 37.6457 19.8639 36.8562 19.4941C36.0668 19.1243 35.4566 18.4561 35.1599 17.6364L34.9468 17.0476C34.65 16.2279 34.6911 15.3239 35.0609 14.5345C35.4307 13.7451 36.0989 13.1349 36.9186 12.8382L37.5321 12.6161C38.3518 12.3193 39.2558 12.3604 40.0452 12.7302C40.8346 13.1 41.4448 13.7682 41.7415 14.5879L41.9547 15.1768Z" fill="#DA231D"/>
<path d="M36.4644 16.779C36.8979 18.0524 38.1386 18.7819 39.2355 18.4085C40.3324 18.0351 40.8703 16.7 40.4368 15.4267C40.0033 14.1533 38.7626 13.4237 37.6657 13.7971C36.5687 14.1706 36.0309 15.5056 36.4644 16.779Z" fill="white"/>
<path d="M30.2552 16.1102C32.2896 14.9365 34.3634 17.3496 33.0265 19.1984C32.539 19.8734 31.549 20.4077 30.7915 20.8746C30.7678 20.8897 30.7509 20.9135 30.7446 20.9408C30.7383 20.9682 30.743 20.997 30.7578 21.0209L32.0309 23.0703C32.0709 23.1353 32.059 23.1884 31.9952 23.2296L30.8759 23.9365C30.86 23.9467 30.8407 23.9501 30.8221 23.9459C30.8034 23.9417 30.7871 23.9302 30.7765 23.914L27.1709 18.1427C27.1309 18.0802 27.1421 18.0284 27.2046 17.9871C28.2109 17.3284 29.2277 16.7027 30.2552 16.1102Z" fill="#DA231D"/>
<path d="M66.0018 18.3153L67.8824 16.6765C67.8916 16.6684 67.903 16.6633 67.9151 16.6618C67.9272 16.6603 67.9395 16.6626 67.9503 16.6683C67.9611 16.674 67.9699 16.6829 67.9756 16.6938C67.9812 16.7046 67.9834 16.7169 67.9818 16.729L67.7099 19.2059C67.709 19.2157 67.7056 19.2252 67.7001 19.2334C67.6946 19.2416 67.6871 19.2483 67.6784 19.2529C67.6697 19.2576 67.66 19.26 67.6501 19.2599C67.6402 19.2599 67.6305 19.2575 67.6218 19.2528L66.0149 18.4128C66.0064 18.4084 65.999 18.4019 65.9934 18.394C65.9878 18.3861 65.9842 18.377 65.983 18.3675C65.9817 18.3579 65.9827 18.3481 65.986 18.3391C65.9893 18.33 65.9947 18.3218 66.0018 18.3153Z" fill="white"/>
<path d="M29.0719 18.2946C29.0634 18.2804 29.0609 18.2634 29.0647 18.2473C29.0686 18.2312 29.0785 18.2173 29.0925 18.2084L30.2044 17.5165C30.4863 17.3411 30.807 17.2539 31.096 17.2739C31.385 17.294 31.6186 17.4197 31.7456 17.6234L31.8206 17.7434C31.9475 17.9473 31.9571 18.2126 31.8474 18.4809C31.7377 18.7492 31.5176 18.9985 31.2356 19.174L30.1256 19.8659C30.1185 19.8703 30.1106 19.8734 30.1023 19.8747C30.094 19.8761 30.0855 19.8758 30.0773 19.8739C30.0691 19.872 30.0613 19.8685 30.0545 19.8636C30.0477 19.8586 30.0419 19.8524 30.0375 19.8453L29.0719 18.2946Z" fill="white"/>
<path d="M74.327 24.4203L77.1882 21.0603C77.199 21.0483 77.2141 21.041 77.2302 21.0399C77.2463 21.0389 77.2622 21.0442 77.2745 21.0547L78.2513 21.8928C78.2636 21.9033 78.2713 21.9183 78.2727 21.9344C78.2741 21.9505 78.2691 21.9665 78.2588 21.979L73.7982 27.2103C73.7877 27.2226 73.7727 27.2302 73.7566 27.2316C73.7405 27.233 73.7245 27.2281 73.712 27.2178L72.6207 26.3065C72.6125 26.2999 72.6061 26.2912 72.6021 26.2813C72.5982 26.2715 72.5968 26.2608 72.5982 26.2503L73.2357 21.0622C73.2377 21.0488 73.2353 21.0352 73.2288 21.0233C73.2223 21.0115 73.2122 21.0021 73.1998 20.9965C73.1875 20.991 73.1737 20.9897 73.1606 20.9927C73.1474 20.9958 73.1356 21.003 73.127 21.0134L70.337 24.274C70.3316 24.2803 70.325 24.2853 70.3177 24.289C70.3103 24.2927 70.3023 24.2948 70.2941 24.2953C70.2859 24.2959 70.2777 24.2947 70.2699 24.292C70.2621 24.2894 70.255 24.2851 70.2488 24.2797L69.2813 23.4415C69.2691 23.431 69.2614 23.4161 69.26 23.3999C69.2586 23.3838 69.2636 23.3678 69.2738 23.3553L73.742 18.1109C73.7473 18.1047 73.7539 18.0996 73.7613 18.0959C73.7686 18.0923 73.7766 18.0901 73.7849 18.0896C73.7931 18.0891 73.8013 18.0902 73.8091 18.0929C73.8168 18.0956 73.824 18.0998 73.8301 18.1053L74.8688 19.0147C74.8765 19.0213 74.8823 19.0298 74.8859 19.0393C74.8895 19.0488 74.8908 19.059 74.8895 19.069L74.2182 24.3715C74.2162 24.3849 74.2186 24.3985 74.2251 24.4104C74.2316 24.4222 74.2418 24.4316 74.2541 24.4372C74.2664 24.4427 74.2802 24.444 74.2934 24.441C74.3065 24.4379 74.3183 24.4307 74.327 24.4203Z" fill="#DA231D"/>
<path d="M79.3128 49.4853C79.3128 53.2829 78.5648 57.0432 77.1115 60.5518C75.6583 64.0603 73.5282 67.2482 70.8429 69.9335C68.1576 72.6188 64.9697 74.7489 61.4612 76.2021C57.9526 77.6554 54.1922 78.4034 50.3947 78.4034C42.7251 78.4034 35.3697 75.3567 29.9465 69.9335C24.5233 64.5103 21.4766 57.1548 21.4766 49.4853C21.4766 41.8157 24.5233 34.4603 29.9465 29.0371C35.3697 23.6139 42.7251 20.5671 50.3947 20.5671C54.1922 20.5671 57.9526 21.3151 61.4612 22.7684C64.9697 24.2217 68.1576 26.3518 70.8429 29.0371C73.5282 31.7224 75.6583 34.9103 77.1115 38.4188C78.5648 41.9273 79.3128 45.6877 79.3128 49.4853Z" fill="#29503F"/>
<path d="M29.2481 55.4365C29.4156 55.4665 29.495 55.3971 29.4862 55.2284C29.3644 52.8959 29.4544 50.869 30.6244 48.8084C30.765 48.5609 31.0969 48.1409 31.2844 47.7734C31.3156 47.7134 31.3106 47.6571 31.2694 47.6046C29.9475 45.8946 29.6981 44.0534 31.0631 42.2796C31.1731 42.1346 31.5556 41.7603 32.2106 41.1565C33.7031 39.7784 34.035 38.0084 36.4219 37.7628C36.4919 37.7553 36.5394 37.719 36.5644 37.654C36.7906 37.069 37.0431 36.5259 37.3218 36.0246C38.46 33.9715 40.6125 35.3103 41.9212 36.3509C41.965 36.3859 42.0125 36.3909 42.0637 36.3659L43.7212 35.5371C43.9025 35.4471 43.9912 35.3009 43.9875 35.0984C43.965 33.9659 43.9556 32.7803 43.9594 31.5415C43.9594 31.4153 44.04 31.2834 44.2012 31.1459C44.223 31.1273 44.2384 31.1024 44.2452 31.0748C44.2519 31.0471 44.2497 31.0182 44.2387 30.9921C43.9525 30.3209 43.7662 29.6296 43.68 28.9184C43.66 28.7521 43.6862 28.6321 43.7587 28.5584C43.8325 28.4846 43.9306 28.4534 44.0531 28.4646C44.1394 28.4721 44.2225 28.5159 44.3025 28.5959C44.68 28.9771 45.0337 29.3834 45.3637 29.8146C45.3739 29.8274 45.3866 29.8379 45.4011 29.8454C45.4155 29.8529 45.4314 29.8572 45.4475 29.8581C45.4637 29.859 45.4798 29.8564 45.4948 29.8505C45.5098 29.8447 45.5233 29.8356 45.5343 29.824L48.0618 27.1915C48.1143 27.1378 48.1387 27.0728 48.135 26.9965C48.0562 25.4046 48.0469 24.064 49.515 23.164C51.1293 22.1721 52.4587 23.8821 52.6218 25.309C52.6868 25.884 52.7093 26.4615 52.6893 27.0415C52.6868 27.109 52.7087 27.1671 52.755 27.2159L55.29 29.8671C55.305 29.8828 55.3234 29.895 55.3436 29.9028C55.3639 29.9106 55.3856 29.9138 55.4072 29.9122C55.4287 29.9106 55.4496 29.9042 55.4682 29.8935C55.4869 29.8828 55.5029 29.868 55.515 29.8503C55.8375 29.3965 56.5481 28.4928 57.1143 28.3315C57.1441 28.323 57.1754 28.3223 57.2054 28.3296C57.2353 28.3368 57.2627 28.3517 57.285 28.3728C58.0556 29.0946 56.8837 30.8384 56.8481 31.7253C56.7993 32.9378 56.8012 34.1496 56.8537 35.3609C56.8562 35.4271 56.8881 35.4746 56.9493 35.5034L58.3275 36.169C58.39 36.199 58.4481 36.1915 58.5018 36.1465C59.6681 35.1678 61.8468 33.8515 62.9531 35.749C63.3393 36.4103 63.6262 36.9909 63.8137 37.4909C63.8239 37.5175 63.8413 37.5408 63.8641 37.5583C63.8869 37.5758 63.9142 37.5869 63.9431 37.5903C66.2737 37.8415 66.5981 39.4821 68.0737 40.9034C68.6006 41.4115 69.2156 41.9103 69.57 42.5178C70.5475 44.189 70.3956 45.8078 69.1143 47.374C69.0811 47.4148 69.0625 47.4654 69.0615 47.5178C69.0605 47.5702 69.0771 47.6212 69.1087 47.6628C70.7118 49.789 71.1243 52.5096 70.8693 55.1328C70.8666 55.1607 70.8707 55.1889 70.8812 55.2149C70.8917 55.2409 70.9083 55.2641 70.9297 55.2823C70.951 55.3005 70.9765 55.3133 71.0038 55.3196C71.0312 55.3259 71.0597 55.3255 71.0868 55.3184C73.7718 54.6078 75.3168 52.1646 76.0856 49.6746C76.0905 49.6589 76.1005 49.6451 76.1141 49.6356C76.1277 49.6261 76.144 49.6214 76.1604 49.6222C76.1767 49.6231 76.1922 49.6295 76.2041 49.6404C76.2161 49.6513 76.2239 49.666 76.2262 49.6821C76.9218 53.539 75.1031 57.5346 70.7643 57.7746C70.7076 57.7778 70.6536 57.7998 70.6108 57.8372C70.568 57.8745 70.5389 57.9251 70.5281 57.9809C69.5981 62.9459 67.365 68.4509 62.4543 70.7253C56.2593 73.5959 49.1193 68.524 55.0087 62.1021C55.1337 61.9659 55.2762 61.9428 55.4362 62.0328C55.915 62.304 56.13 62.7209 56.0812 63.2834C56.0737 63.3596 56.1087 63.4015 56.1862 63.409C56.9568 63.4803 57.4856 63.0978 58.1943 63.6471C58.2184 63.666 58.2375 63.6904 58.25 63.7183C58.2625 63.7462 58.2679 63.7768 58.2659 63.8073C58.2639 63.8378 58.2544 63.8673 58.2383 63.8933C58.2223 63.9194 58.2001 63.941 58.1737 63.9565C57.8475 64.1478 57.5412 64.384 57.255 64.6653C56.1656 65.7303 56.3043 67.6315 58.2075 67.4215C59.2375 67.3078 60.1693 66.9184 61.0031 66.2534C64.1212 63.7653 65.5087 59.8559 64.0312 56.044C64.01 55.9878 63.9743 55.9434 63.9243 55.9109C62.8706 55.2303 61.6368 54.4953 61.0387 53.2315C61.0168 53.1865 61.0102 53.1351 61.02 53.0853C61.0375 52.989 61.0075 52.9209 60.93 52.8809C60.8775 52.8534 60.8081 52.854 60.7218 52.8828C58.6006 53.5815 56.9218 53.074 55.6856 51.3603C55.6661 51.332 55.6378 51.311 55.605 51.3007C55.5722 51.2904 55.537 51.2914 55.5048 51.3035C55.4727 51.3156 55.4455 51.3381 55.4276 51.3674C55.4098 51.3967 55.4022 51.4312 55.4062 51.4653C55.7962 55.3653 57.5775 59.7115 60.8193 62.0403C61.1881 62.3053 61.1487 62.3996 60.7012 62.3234C57.5493 61.7815 55.1137 59.4584 53.6137 56.7603C53.6044 56.7438 53.5906 56.7303 53.5739 56.7214C53.5571 56.7125 53.5383 56.7087 53.5196 56.7103C53.5009 56.7118 53.4832 56.7188 53.4686 56.7304C53.454 56.7419 53.4432 56.7575 53.4375 56.7753C52.9275 58.2828 52.2618 60.154 52.3125 61.7665C52.4362 65.7228 52.5175 69.679 52.5562 73.6353C52.5693 74.9965 52.0781 76.8321 50.5706 77.0496C48.7856 77.3065 47.6718 75.7371 47.6718 74.104C47.6731 70.4403 47.695 66.7765 47.7375 63.1128C47.7637 60.8984 47.6025 59.2521 46.9762 57.3321C46.971 57.3162 46.9613 57.302 46.9481 57.2915C46.935 57.281 46.9191 57.2746 46.9024 57.273C46.8857 57.2714 46.8688 57.2747 46.854 57.2826C46.8391 57.2904 46.8269 57.3024 46.8187 57.3171C45.24 60.2096 42.835 62.0115 39.6037 62.7228C39.5891 62.7261 39.5737 62.7244 39.5602 62.7178C39.5467 62.7112 39.5359 62.7002 39.5295 62.6866C39.5232 62.673 39.5217 62.6576 39.5253 62.6431C39.5289 62.6285 39.5374 62.6156 39.5493 62.6065C43.0481 59.9271 45.0525 55.6634 45.3244 51.2684C45.3263 51.2352 45.3181 51.2022 45.3008 51.1739C45.2835 51.1455 45.258 51.1231 45.2276 51.1096C45.1972 51.0962 45.1634 51.0923 45.1308 51.0986C45.0982 51.1048 45.0682 51.1209 45.045 51.1446C44.6212 51.5834 44.1918 52.1478 43.7512 52.4928C42.51 53.4578 41.1069 53.6378 39.5419 53.0328C39.4819 53.009 39.44 53.0278 39.4162 53.089C38.82 54.6509 37.62 55.2565 36.3919 56.0928C36.3406 56.1265 36.305 56.1721 36.285 56.2296C35.55 58.2434 35.4994 60.1534 36.1331 61.9596C37.0331 64.5228 39.2943 67.3146 42.1218 67.6315C44.6512 67.9146 44.0644 64.8209 42.2887 64.2003C42.2352 64.1811 42.1894 64.1449 42.1584 64.0973C42.1273 64.0496 42.1127 63.9932 42.1168 63.9365C42.1208 63.8797 42.1433 63.8259 42.1807 63.7831C42.2182 63.7404 42.2687 63.7111 42.3244 63.6996C42.9056 63.5859 43.4969 63.559 44.0981 63.619C44.1253 63.6219 44.1528 63.6187 44.1787 63.6097C44.2045 63.6007 44.228 63.5861 44.2476 63.5669C44.2671 63.5477 44.2822 63.5245 44.2916 63.4988C44.3011 63.4731 44.3048 63.4457 44.3025 63.4184C44.2562 62.8559 44.4687 62.429 44.94 62.1378C44.995 62.1037 45.0604 62.09 45.1245 62.0993C45.1886 62.1085 45.2474 62.1401 45.2906 62.1884C46.6481 63.6978 47.9643 65.9571 47.4187 68.0271C46.9068 69.9696 45.0093 71.2821 43.0781 71.5821C38.4769 72.2965 34.3294 69.3396 32.2819 65.344C31.0781 62.994 30.2619 60.5865 29.8331 58.1215C29.8231 58.059 29.7862 58.0209 29.7225 58.0071C29.2962 57.9159 28.8787 57.8253 28.47 57.7353C24.8044 56.9271 23.49 53.1846 24.1031 49.8284C24.1058 49.8101 24.1148 49.7933 24.1284 49.7808C24.1421 49.7683 24.1596 49.7609 24.1781 49.7598C24.1965 49.7587 24.2148 49.764 24.2298 49.7748C24.2449 49.7856 24.2557 49.8012 24.2606 49.819C24.9394 52.1159 26.6869 54.9828 29.2481 55.4365Z" fill="#010101"/>
<path d="M48.54 25.2735C48.5182 25.2735 48.4972 25.2648 48.4817 25.2493C48.4662 25.2338 48.4575 25.2128 48.4575 25.191V25.1422C48.455 24.6164 48.6586 24.1111 49.0235 23.7373C49.3885 23.3636 49.8849 23.152 50.4038 23.1491C50.661 23.1476 50.916 23.1975 51.1542 23.296C51.3923 23.3944 51.609 23.5395 51.7919 23.7228C51.9747 23.9062 52.1201 24.1243 52.2197 24.3646C52.3194 24.6049 52.3713 24.8628 52.3725 25.1235V25.1722C52.3725 25.1941 52.3638 25.2151 52.3484 25.2305C52.3329 25.246 52.3119 25.2547 52.29 25.2547L48.54 25.2735Z" fill="white"/>
<path d="M25.787 26.4153L23.8595 28.5791C23.8514 28.5877 23.8462 28.5987 23.8445 28.6104C23.8429 28.6221 23.8448 28.6341 23.8501 28.6447L24.5757 30.0997C24.5811 30.1103 24.583 30.1222 24.5813 30.134C24.5797 30.1457 24.5744 30.1566 24.5664 30.1653L23.5951 31.2678C23.5888 31.2749 23.5808 31.2804 23.5718 31.2837C23.5629 31.287 23.5533 31.288 23.5438 31.2867C23.5344 31.2854 23.5254 31.2818 23.5176 31.2763C23.5099 31.2707 23.5037 31.2633 23.4995 31.2547L20.2482 24.5422C20.2434 24.5318 20.2416 24.5202 20.2433 24.5089C20.245 24.4976 20.2499 24.487 20.2576 24.4784L21.2739 23.3366C21.2814 23.328 21.2913 23.3218 21.3023 23.3188C21.3133 23.3158 21.3249 23.3161 21.3357 23.3197L28.4289 25.6841C28.4381 25.687 28.4464 25.6921 28.4532 25.6991C28.4599 25.706 28.4648 25.7145 28.4674 25.7238C28.47 25.7331 28.4702 25.743 28.4681 25.7524C28.4659 25.7618 28.4615 25.7705 28.4551 25.7778L27.4726 26.9272C27.465 26.9361 27.4548 26.9425 27.4434 26.9455C27.432 26.9486 27.42 26.948 27.4089 26.9441L25.8507 26.4003C25.8398 26.3961 25.8279 26.3953 25.8166 26.398C25.8052 26.4007 25.7949 26.4067 25.787 26.4153Z" fill="#DA231D"/>
<path d="M80.1489 23.9965C80.1655 23.9844 80.1861 23.9791 80.2064 23.9819C80.2267 23.9847 80.2451 23.9953 80.2577 24.0115L82.1552 26.5278C82.6415 27.1736 82.8455 27.9905 82.7225 28.7988C82.5994 29.6072 82.1593 30.3408 81.4989 30.8384L80.8821 31.3034C80.555 31.5499 80.1837 31.731 79.7892 31.8363C79.3948 31.9416 78.9851 31.9691 78.5834 31.9172C78.1817 31.8654 77.7959 31.7351 77.4482 31.5339C77.1004 31.3327 76.7974 31.0645 76.5564 30.7446L74.6608 28.2284C74.6487 28.2119 74.6434 28.1913 74.6462 28.171C74.649 28.1507 74.6597 28.1322 74.6758 28.1196L80.1489 23.9965Z" fill="#DA231D"/>
<path d="M23.2071 27.3921L22.1046 25.1927C22.0992 25.1818 22.0971 25.1694 22.0986 25.1573C22.1002 25.1452 22.1053 25.1338 22.1133 25.1245C22.1214 25.1153 22.1319 25.1087 22.1437 25.1055C22.1555 25.1022 22.168 25.1026 22.1796 25.1065L24.499 25.9258C24.5086 25.9291 24.5172 25.9348 24.5242 25.9422C24.5311 25.9497 24.536 25.9587 24.5386 25.9685C24.5412 25.9783 24.5414 25.9887 24.539 25.9985C24.5367 26.0084 24.532 26.0176 24.5252 26.0252L23.3084 27.4052C23.3017 27.4127 23.2932 27.4185 23.2838 27.422C23.2744 27.4255 23.2643 27.4266 23.2543 27.4253C23.2443 27.424 23.2348 27.4203 23.2266 27.4145C23.2184 27.4088 23.2117 27.401 23.2071 27.3921Z" fill="white"/>
<path d="M50.3009 27.4803L47.029 33.3584C47.0218 33.3708 47.011 33.3808 46.998 33.3869C46.985 33.3931 46.9705 33.3952 46.9563 33.393C46.9421 33.3908 46.9289 33.3843 46.9185 33.3744C46.908 33.3646 46.9008 33.3518 46.8977 33.3378C46.6727 32.2153 46.2471 31.1759 45.6209 30.2196C45.5771 30.1534 45.5827 30.0921 45.6377 30.0359L48.3209 27.2365C48.3634 27.1928 48.3827 27.1403 48.379 27.079L48.3002 25.8603C48.294 25.7728 48.3346 25.729 48.4221 25.729H52.3746C52.4559 25.729 52.4952 25.7696 52.4927 25.8509L52.444 27.1296C52.4415 27.2009 52.4646 27.2615 52.5134 27.3115L55.1852 30.0678C55.2365 30.1203 55.2421 30.1778 55.2021 30.2403C54.5984 31.1765 54.1396 32.1803 53.8259 33.2515C53.8213 33.2677 53.812 33.2822 53.7991 33.293C53.7863 33.3039 53.7705 33.3107 53.7538 33.3125C53.737 33.3143 53.7201 33.3111 53.7052 33.3032C53.6904 33.2954 53.6782 33.2832 53.6702 33.2684L50.449 27.4803C50.4002 27.3915 50.3509 27.3915 50.3009 27.4803Z" fill="white"/>
<path d="M80.0591 25.9784C80.0733 25.9678 80.0895 25.9601 80.1068 25.9557C80.1241 25.9514 80.142 25.9505 80.1596 25.9531C80.1772 25.9557 80.1941 25.9618 80.2094 25.971C80.2246 25.9801 80.2379 25.9922 80.2484 26.0066L81.0697 27.0997C81.3347 27.4531 81.4399 27.9038 81.3622 28.3528C81.2845 28.8017 81.0303 29.2122 80.6553 29.4941L79.7947 30.1409C79.6088 30.2806 79.3988 30.3844 79.1767 30.4464C78.9547 30.5084 78.7248 30.5275 78.5004 30.5024C78.276 30.4773 78.0613 30.4086 77.8687 30.3003C77.6761 30.192 77.5093 30.0461 77.3778 29.8709L76.5566 28.7778C76.5459 28.7636 76.5382 28.7473 76.5339 28.7301C76.5295 28.7128 76.5286 28.6949 76.5313 28.6773C76.5339 28.6597 76.5399 28.6428 76.5491 28.6275C76.5583 28.6123 76.5704 28.599 76.5847 28.5884L80.0591 25.9784Z" fill="white"/>
<path d="M46.832 34.174L50.3232 27.9322C50.3283 27.9232 50.3356 27.9157 50.3445 27.9105C50.3534 27.9053 50.3635 27.9026 50.3738 27.9026C50.3841 27.9026 50.3943 27.9053 50.4032 27.9105C50.412 27.9157 50.4194 27.9232 50.4245 27.9322L53.9157 34.174C53.9206 34.1829 53.9231 34.1928 53.923 34.2029C53.9228 34.213 53.9201 34.2229 53.915 34.2316C53.9099 34.2403 53.9026 34.2475 53.8938 34.2525C53.8851 34.2576 53.8752 34.2602 53.8651 34.2603H46.8826C46.8725 34.2602 46.8626 34.2576 46.8538 34.2525C46.8451 34.2475 46.8378 34.2403 46.8327 34.2316C46.8276 34.2229 46.8248 34.213 46.8247 34.2029C46.8246 34.1928 46.8271 34.1829 46.832 34.174Z" fill="white"/>
<path d="M17.3382 28.3522C18.7982 29.1797 20.1326 29.969 21.3413 30.7203C21.8876 31.0603 22.2457 31.3897 22.4157 31.7084C23.3701 33.5065 21.2569 36.2234 19.1701 34.954C19.1426 34.9373 19.1222 34.9111 19.1125 34.8804C19.1029 34.8498 19.1047 34.8166 19.1176 34.7872L19.6051 33.709C19.6129 33.6916 19.6244 33.676 19.6387 33.6634C19.653 33.6507 19.6698 33.6412 19.6881 33.6355C19.7064 33.6299 19.7256 33.6281 19.7446 33.6305C19.7636 33.6328 19.7818 33.6391 19.7982 33.649C21.0263 34.384 21.9263 32.7922 20.8388 32.1565C19.4376 31.3353 18.0388 30.5097 16.6426 29.6797C16.6201 29.6664 16.6037 29.6447 16.597 29.6195C16.5904 29.5942 16.5939 29.5673 16.6069 29.5447L17.2876 28.3653C17.3001 28.344 17.3169 28.3397 17.3382 28.3522Z" fill="#DA231D"/>
<path d="M55.0276 30.9823C54.1712 32.4477 53.7634 33.8029 54.1165 34.0093C54.4697 34.2156 55.4502 33.195 56.3065 31.7296C57.1628 30.2642 57.5706 28.909 57.2175 28.7026C56.8643 28.4963 55.8839 29.5169 55.0276 30.9823Z" fill="white"/>
<path d="M46.5845 34.144C46.5773 34.1619 46.5657 34.1776 46.5507 34.1897C46.5356 34.2018 46.5178 34.2098 46.4988 34.213C46.4797 34.2162 46.4602 34.2145 46.4421 34.208C46.4239 34.2015 46.4078 34.1904 46.3951 34.1758C45.0701 32.6271 44.2295 30.8446 43.8733 28.8283C43.8681 28.7997 43.8722 28.7703 43.8849 28.7442C43.8976 28.7181 43.9183 28.6967 43.944 28.6831C43.9697 28.6695 43.999 28.6645 44.0278 28.6687C44.0565 28.6729 44.0832 28.6861 44.1039 28.7065C45.122 29.719 47.1583 32.674 46.5845 34.144Z" fill="white"/>
<path d="M48.5684 33.7165L50.3665 29.3515C50.3709 29.3415 50.3781 29.3329 50.3872 29.3269C50.3964 29.3209 50.4071 29.3177 50.4181 29.3177C50.429 29.3177 50.4397 29.3209 50.4489 29.3269C50.458 29.3329 50.4652 29.3415 50.4696 29.3515L52.2827 33.709C52.2865 33.7177 52.2881 33.7271 52.2872 33.7365C52.2864 33.7459 52.2832 33.7549 52.278 33.7627C52.2728 33.7706 52.2657 33.777 52.2573 33.7813C52.249 33.7857 52.2397 33.7879 52.2302 33.7878L48.6209 33.7934C48.6117 33.7934 48.6026 33.7912 48.5945 33.7869C48.5864 33.7826 48.5794 33.7764 48.5743 33.7689C48.5691 33.7613 48.5658 33.7526 48.5648 33.7434C48.5638 33.7343 48.565 33.7251 48.5684 33.7165Z" fill="#010101"/>
<path d="M48.9227 33.471L50.3495 30.0022C50.3544 29.99 50.3628 29.9796 50.3737 29.9722C50.3845 29.9649 50.3974 29.9609 50.4105 29.9609C50.4236 29.9609 50.4364 29.9649 50.4473 29.9722C50.4581 29.9796 50.4665 29.99 50.4714 30.0022L51.9227 33.4597C51.927 33.4697 51.9288 33.4806 51.9279 33.4914C51.927 33.5023 51.9234 33.5127 51.9175 33.5218C51.9115 33.5309 51.9034 33.5384 51.8938 33.5436C51.8843 33.5488 51.8736 33.5516 51.8627 33.5516L48.9827 33.561C48.972 33.5608 48.9616 33.5581 48.9522 33.553C48.9429 33.5479 48.9349 33.5406 48.929 33.5317C48.9231 33.5229 48.9194 33.5127 48.9183 33.5021C48.9172 33.4915 48.9187 33.4808 48.9227 33.471Z" fill="white"/>
<path d="M44.1902 31.4552C44.191 31.4297 44.2005 31.4052 44.2171 31.3858C44.2337 31.3663 44.2564 31.3531 44.2815 31.3483C44.3066 31.3435 44.3326 31.3474 44.3552 31.3593C44.3778 31.3713 44.3956 31.3905 44.4058 31.414C44.8658 32.5202 45.4977 33.5165 46.3014 34.4027C46.3097 34.4119 46.315 34.4234 46.3167 34.4356C46.3184 34.4479 46.3164 34.4603 46.311 34.4714C46.3056 34.4825 46.2969 34.4917 46.2862 34.4979C46.2754 34.504 46.2631 34.5068 46.2508 34.5059C45.542 34.4471 44.8827 34.5877 44.2727 34.9277C44.2039 34.9652 44.1702 34.9452 44.1714 34.8677L44.1902 31.4552Z" fill="white"/>
<path d="M54.4106 34.3127C55.2656 33.5627 55.9293 32.8671 56.5181 31.8884C56.5236 31.8785 56.5322 31.8709 56.5425 31.8667C56.5529 31.8626 56.5644 31.862 56.5754 31.8652C56.5863 31.8684 56.596 31.8752 56.6029 31.8845C56.6098 31.8938 56.6136 31.905 56.6137 31.9165V34.6859C56.6137 34.7584 56.5818 34.7777 56.5181 34.744C55.8756 34.3927 55.1887 34.2821 54.4574 34.4121C54.4449 34.415 54.4318 34.4135 54.4203 34.4079C54.4088 34.4022 54.3995 34.3929 54.394 34.3813C54.3886 34.3697 54.3872 34.3566 54.3902 34.3441C54.3932 34.3316 54.4004 34.3206 54.4106 34.3127Z" fill="white"/>
<path d="M52.8657 34.5238L47.4169 34.5142C47.39 34.5142 47.3681 34.536 47.3681 34.5629L47.368 34.6042C47.368 34.6311 47.3897 34.6529 47.4167 34.653L52.8654 34.6625C52.8923 34.6626 52.9142 34.6408 52.9142 34.6138L52.9143 34.5726C52.9144 34.5457 52.8926 34.5238 52.8657 34.5238Z" fill="white"/>
<path d="M45.3059 36.6153C44.9046 36.3178 44.5909 35.9715 44.3646 35.5765C44.3346 35.524 44.3234 35.4684 44.3309 35.4097C44.3659 35.1397 44.5021 34.9772 44.7396 34.9222C46.7984 34.444 48.3977 34.9522 50.3009 35.6534C50.3621 35.6759 50.4221 35.6734 50.4809 35.6459C51.9334 34.9559 53.4621 34.6072 55.0671 34.5997C56.4227 34.5922 57.1034 35.374 55.7065 36.2853C53.1227 37.9672 51.6696 40.3072 52.294 43.4965C52.7402 45.7803 53.8559 49.519 51.1802 51.0472C50.7277 51.3047 50.2702 51.374 49.8077 51.2553C47.314 50.614 47.5296 46.4065 47.7321 44.5522C48.0621 41.5297 47.944 38.5765 45.3059 36.6153Z" fill="white"/>
<path d="M49.4251 34.9015C50.0776 34.8465 50.7301 34.8309 51.3826 34.8546C51.3971 34.855 51.4109 34.8603 51.422 34.8696C51.433 34.8789 51.4406 34.8917 51.4434 34.9058C51.4462 34.92 51.4442 34.9347 51.4376 34.9475C51.431 34.9604 51.4202 34.9706 51.407 34.9765L50.4433 35.3909C50.392 35.4134 50.3408 35.4146 50.2895 35.3946L49.4026 35.059C49.1801 34.974 49.1876 34.9215 49.4251 34.9015Z" fill="white"/>
<path d="M84.0977 41.6422C82.1027 41.8484 80.8352 40.0765 80.8089 38.2878C80.777 35.9834 83.1227 34.6278 85.1627 34.8284C87.6789 35.0759 89.3477 39.064 87.0002 40.6203C86.9912 40.6262 86.9812 40.6302 86.9706 40.6322C86.9601 40.6341 86.9493 40.634 86.9388 40.6317C86.9283 40.6294 86.9184 40.6251 86.9096 40.619C86.9008 40.6128 86.8934 40.605 86.8877 40.5959L86.1977 39.5009C86.1577 39.4397 86.1652 39.3847 86.2202 39.3359C86.8852 38.7397 87.0027 38.0284 86.5727 37.2022C85.6352 35.3965 81.8814 36.6528 82.0764 38.5709C82.1864 39.6509 82.8408 40.1884 84.0395 40.1834C84.0908 40.1834 84.117 40.209 84.1183 40.2603L84.1558 41.5765C84.1558 41.6165 84.1364 41.6384 84.0977 41.6422Z" fill="#DA231D"/>
<path d="M58.7288 36.4409C58.6638 36.3921 58.6607 36.3403 58.7194 36.2853C59.3407 35.7028 60.1026 35.2865 61.0051 35.0365C62.5876 34.5959 63.3676 36.8065 63.7051 37.9503C64.6538 41.1734 66.1651 44.3178 68.2501 46.9559C68.7282 47.5615 69.2476 48.1859 69.5963 48.8346C70.6969 50.8896 70.7457 52.9184 70.6613 55.2546C70.6603 55.282 70.6499 55.3082 70.6318 55.3287C70.6137 55.3492 70.589 55.3628 70.5619 55.3671C67.7494 55.804 65.4132 53.7884 63.3488 52.2846C62.7657 51.859 61.0051 51.1821 60.9394 52.4834C60.9378 52.5141 60.9271 52.5438 60.9088 52.5687C60.8905 52.5937 60.8654 52.6129 60.8363 52.624C58.7251 53.3978 57.0369 52.8978 55.7719 51.124C55.7456 51.0872 55.727 51.0454 55.7173 51.0011C55.7076 50.9569 55.7069 50.9112 55.7153 50.8667C55.7237 50.8222 55.741 50.7799 55.7662 50.7422C55.7914 50.7046 55.824 50.6725 55.8619 50.6478C58.6163 48.844 59.3082 45.8196 58.3463 42.7015C58.3376 42.6732 58.336 42.6432 58.3416 42.6141C58.3471 42.585 58.3597 42.5578 58.3782 42.5346C59.6944 40.8603 60.8626 38.0459 58.7288 36.4409Z" fill="white"/>
<path d="M46.5208 36.8534C46.1814 36.604 45.5776 35.8859 45.9301 35.4509C45.9701 35.4021 46.0214 35.3734 46.0839 35.3646C47.582 35.1602 49.2939 36.0677 50.2633 37.0896C50.3295 37.1596 50.3976 37.1615 50.4676 37.0952C51.2683 36.3434 53.6383 34.5677 54.5251 35.2484C55.4476 35.9552 53.1826 37.8565 52.6258 38.1884C51.9414 38.5952 51.5176 39.6696 51.1558 40.4309C50.6645 41.4659 50.6495 42.1615 50.807 43.4009C50.8726 43.9277 51.9451 49.8996 49.9501 48.679C48.3958 47.7284 50.0926 43.8096 49.9858 42.3827C49.8264 40.2077 48.2195 38.1077 46.5208 36.8534Z" fill="#010101"/>
<path d="M39.4221 52.6484C39.1521 50.2784 35.1546 53.7997 34.4983 54.2366C33.2208 55.0853 31.7408 55.5441 30.0583 55.6128C29.8333 55.6228 29.7177 55.5153 29.7114 55.2903C29.6289 52.4347 29.7808 50.0478 31.6239 47.7359C33.2233 45.7297 34.4739 43.7291 35.4977 41.3703C36.0489 40.1009 36.5327 38.4753 37.0633 37.0259C38.0702 34.2791 40.0783 35.0384 41.7264 36.5084C41.7739 36.5497 41.7746 36.5922 41.7283 36.6359C39.6714 38.5503 40.8658 40.3972 42.1764 42.2666C42.2127 42.3191 42.2208 42.3753 42.2008 42.4353C41.1714 45.5722 41.7564 49.0353 44.7977 50.8203C44.8104 50.8276 44.8215 50.8374 44.8302 50.8492C44.8389 50.861 44.845 50.8745 44.8482 50.8888C44.8514 50.9031 44.8515 50.9179 44.8487 50.9323C44.8458 50.9466 44.8399 50.9602 44.8314 50.9722C43.5039 52.8134 41.7789 53.8053 39.5214 52.7853C39.4946 52.7734 39.4713 52.7545 39.4539 52.7305C39.4365 52.7065 39.4255 52.6782 39.4221 52.6484Z" fill="white"/>
<path d="M50.4566 37.4797C51.2835 36.5835 52.9316 35.2653 54.2366 35.3853C54.2841 35.3898 54.3299 35.4055 54.3701 35.4312C54.4104 35.4569 54.4439 35.4918 54.4679 35.5331C54.4919 35.5743 54.5058 35.6207 54.5083 35.6684C54.5107 35.7161 54.5018 35.7637 54.4822 35.8072C54.0685 36.731 53.411 37.4516 52.5097 37.9691C51.6753 38.4491 50.9872 40.146 50.6797 41.0253C50.3291 42.0285 50.496 42.8216 50.6366 43.881C50.8216 45.261 50.9097 46.6516 50.901 48.0528C50.9001 48.1808 50.8499 48.3035 50.7608 48.3953C50.6718 48.4872 50.5507 48.5411 50.4228 48.546C49.0766 48.6003 49.6503 45.2197 49.8116 44.6647C50.1697 43.4291 50.4022 42.636 50.0553 41.3666C49.4553 39.1803 48.1485 37.8828 46.4066 36.4578C46.1778 36.2703 46.066 36.0103 46.071 35.6778C46.0722 35.6078 46.1078 35.5716 46.1778 35.5691C47.8053 35.5016 49.2303 36.3303 50.3085 37.4816C50.3585 37.5341 50.4078 37.5335 50.4566 37.4797Z" fill="white"/>
<path d="M48.8215 76.2246C48.2265 75.6996 47.9352 74.9771 47.9477 74.0571C48.0152 68.9784 48.0102 64.7128 47.9327 61.2603C47.9077 60.1253 47.7034 58.9028 47.3196 57.5928C46.8634 56.0403 46.414 54.4846 45.9715 52.9259C45.549 51.4346 45.3296 50.4321 45.3134 49.9184C45.2196 46.8771 43.4121 43.4646 41.5784 40.999C41.2821 40.6003 41.0765 40.1446 40.9615 39.6321C40.4702 37.4609 42.244 36.2871 44.0177 35.7078C44.0777 35.6878 44.1265 35.7034 44.164 35.7546C44.7734 36.6153 45.6677 37.099 46.2284 37.8246C47.5952 39.5984 47.8559 41.7303 47.5765 43.9765C47.299 46.1984 46.8921 50.5878 49.7534 51.4934C50.1059 51.6046 50.4584 51.5959 50.8109 51.4671C52.6427 50.7978 53.2746 48.6659 53.1846 46.8809C53.1584 46.3784 52.9765 45.4196 52.639 44.0046C51.9215 40.9984 52.7802 38.6434 55.2152 36.9396C55.7902 36.5371 56.2552 36.1528 56.6102 35.7865C56.649 35.7465 56.6959 35.7334 56.7509 35.7471C58.6015 36.2271 60.0996 37.5396 59.5821 39.5721C59.0515 41.6478 57.529 42.9771 56.704 44.8784C56.1715 46.1084 55.8827 47.3121 55.8752 48.6603C55.864 50.9009 54.5402 52.2096 53.9252 54.199C53.3302 56.1203 52.7809 58.054 52.2771 60.0003C52.1571 60.459 52.1015 60.9309 52.1102 61.4159C52.179 65.4909 52.2302 69.564 52.264 73.6353C52.2733 74.7696 51.9734 76.084 50.914 76.6259C50.2227 76.9796 49.5252 76.8459 48.8215 76.2246Z" fill="white"/>
<path d="M15.2534 44.8372C15.8571 43.9447 17.1921 43.3522 18.1409 42.9116C18.155 42.905 18.1674 42.895 18.1767 42.8825C18.186 42.87 18.1921 42.8553 18.1943 42.8399C18.1966 42.8244 18.1949 42.8086 18.1895 42.794C18.1841 42.7793 18.1751 42.7662 18.1634 42.7559L12.8252 38.0084C12.7815 37.9697 12.7696 37.9222 12.7896 37.8659L13.2565 36.5272C13.2659 36.5004 13.2832 36.4769 13.3062 36.4596C13.3292 36.4423 13.3568 36.4319 13.3859 36.4297L20.7171 35.8916C20.7356 35.8901 20.7541 35.8934 20.771 35.9009C20.7878 35.9085 20.8025 35.9202 20.8137 35.935C20.8249 35.9497 20.8323 35.967 20.835 35.9853C20.8378 36.0036 20.8359 36.0223 20.8296 36.0397L20.374 37.3409C20.354 37.3997 20.3127 37.4309 20.2502 37.4347L18.7071 37.5378C18.6534 37.5416 18.6177 37.5691 18.6002 37.6203L17.6965 40.2659C17.6871 40.2943 17.6861 40.3247 17.6938 40.3534C17.7015 40.3821 17.7174 40.4077 17.7396 40.4272L18.8927 41.4172C18.9135 41.4352 18.9281 41.4593 18.9345 41.4858C18.9409 41.5124 18.9388 41.5402 18.9283 41.5653C18.5659 42.4691 18.3684 43.4103 18.3359 44.3891C18.3347 44.4218 18.3252 44.4535 18.3085 44.4811C18.2917 44.5087 18.2682 44.5312 18.2402 44.5466C17.504 44.9603 16.7771 45.3809 16.0596 45.8084C15.3415 46.2359 15.0059 46.6634 15.0977 47.4866C15.1052 47.5578 15.1446 47.5972 15.2159 47.6047L17.8502 47.8934C17.9115 47.8997 17.9384 47.9334 17.9309 47.9947L17.7977 49.2922C17.7902 49.3634 17.7502 49.3953 17.6777 49.3878L10.9615 48.6678C10.9027 48.6616 10.8746 48.6291 10.8771 48.5703C10.9721 46.7278 11.1509 45.2234 11.4134 44.0572C11.8577 42.0772 15.109 42.4109 15.1352 44.8016C15.135 44.8152 15.1393 44.8285 15.1473 44.8394C15.1553 44.8503 15.1668 44.8584 15.18 44.8623C15.1931 44.8663 15.2074 44.866 15.2206 44.8615C15.2338 44.857 15.2452 44.8485 15.2534 44.8372Z" fill="#DA231D"/>
<path d="M16.6103 39.4652L14.7503 37.8584C14.7405 37.8501 14.7334 37.8392 14.7299 37.8269C14.7265 37.8146 14.7268 37.8015 14.7308 37.7894C14.7349 37.7772 14.7425 37.7666 14.7526 37.7588C14.7628 37.7511 14.7751 37.7466 14.7878 37.7459L17.2422 37.609C17.2526 37.6084 17.263 37.6104 17.2725 37.6148C17.282 37.6192 17.2902 37.6259 17.2965 37.6342C17.3028 37.6425 17.307 37.6523 17.3086 37.6626C17.3103 37.6729 17.3093 37.6835 17.3059 37.6934L16.7116 39.4371C16.7082 39.4469 16.7025 39.4557 16.695 39.4628C16.6875 39.4699 16.6783 39.475 16.6683 39.4778C16.6584 39.4806 16.6479 39.4809 16.6378 39.4787C16.6277 39.4765 16.6182 39.4719 16.6103 39.4652Z" fill="white"/>
<path d="M68.7939 47.2278C66.5439 44.7697 64.9033 41.1397 63.9583 37.9559C63.9536 37.9398 63.9528 37.9228 63.9561 37.9063C63.9595 37.8899 63.9668 37.8745 63.9774 37.8617C63.988 37.8489 64.0015 37.8389 64.0169 37.8328C64.0322 37.8267 64.0488 37.8245 64.0652 37.8266C65.8689 38.0178 66.4033 39.3434 67.4646 40.5997C68.2127 41.4866 69.3021 42.1034 69.7277 43.2716C70.2321 44.6572 69.9358 46.0278 68.9833 47.2203C68.9233 47.2966 68.8602 47.2991 68.7939 47.2278Z" fill="white"/>
<path d="M34.1497 39.1709C34.6497 38.4634 35.3804 38.0828 36.3416 38.029C36.4004 38.0253 36.4216 38.0515 36.4054 38.1078C35.4204 41.514 33.831 44.6053 31.6372 47.3815C31.5572 47.4828 31.4772 47.4828 31.3972 47.3815C30.1472 45.809 30.0322 44.2515 31.0522 42.709C31.211 42.469 31.6266 42.0209 32.2991 41.3647C32.9379 40.7409 33.5547 40.0097 34.1497 39.1709Z" fill="white"/>
<path d="M63.7316 42.3266C62.7772 42.5478 61.4816 42.5984 61.266 41.3122C61.2572 41.2559 61.2798 41.2216 61.3335 41.2091C62.5054 40.9316 63.0154 41.3797 63.7579 42.2478C63.7929 42.2878 63.7841 42.3141 63.7316 42.3266Z" fill="#010101"/>
<path d="M36.5943 42.4146C36.5343 42.3946 36.5312 42.3677 36.585 42.334C36.9543 42.1052 37.1625 41.7209 37.4906 41.5259C37.9631 41.2434 38.4806 41.1715 39.0431 41.3103C39.0981 41.324 39.1218 41.3596 39.1143 41.4171C38.9156 42.7353 37.5637 42.7277 36.5943 42.4146Z" fill="#010101"/>
<path d="M88.1704 44.1509L86.826 44.3084C86.8137 44.3097 86.8017 44.3136 86.7909 44.3196C86.78 44.3257 86.7705 44.3338 86.7628 44.3436C86.7551 44.3534 86.7495 44.3646 86.7462 44.3765C86.7428 44.3885 86.742 44.401 86.7435 44.4134L87.1598 47.9627C87.1624 47.987 87.1555 48.0114 87.1404 48.0307C87.1254 48.05 87.1034 48.0626 87.0791 48.0659L86.0985 48.1858C86.0862 48.1874 86.0737 48.1865 86.0617 48.1832C86.0497 48.1799 86.0385 48.1742 86.0288 48.1666C86.019 48.1589 86.0108 48.1494 86.0048 48.1385C85.9987 48.1276 85.9949 48.1157 85.9935 48.1033L85.566 44.5634C85.5627 44.5391 85.5501 44.5171 85.5309 44.5021C85.5116 44.487 85.4872 44.4801 85.4629 44.4827L83.7679 44.674C83.7556 44.6754 83.7436 44.6792 83.7328 44.6853C83.7219 44.6913 83.7124 44.6994 83.7047 44.7092C83.697 44.719 83.6913 44.7302 83.688 44.7422C83.6847 44.7541 83.6838 44.7667 83.6854 44.779L84.1391 48.7427C84.1424 48.7671 84.1359 48.7917 84.1212 48.8113C84.1065 48.8309 84.0847 48.844 84.0604 48.8477L83.0835 48.9827C83.0711 48.9846 83.0583 48.9839 83.0461 48.9807C83.0339 48.9775 83.0225 48.9719 83.0126 48.9642C83.0026 48.9565 82.9943 48.9469 82.9881 48.9359C82.9819 48.9249 82.978 48.9128 82.9766 48.9002L82.3279 43.4196C82.3263 43.4073 82.3272 43.3948 82.3305 43.3828C82.3338 43.3708 82.3395 43.3596 82.3472 43.3498C82.3549 43.3401 82.3644 43.3319 82.3753 43.3259C82.3861 43.3198 82.398 43.316 82.4104 43.3146L89.166 42.5121C89.1783 42.5105 89.1909 42.5114 89.2028 42.5147C89.2148 42.5181 89.226 42.5237 89.2358 42.5314C89.2455 42.5391 89.2537 42.5486 89.2597 42.5595C89.2658 42.5703 89.2696 42.5823 89.271 42.5946L89.9029 47.9215C89.9045 47.9338 89.9036 47.9463 89.9003 47.9583C89.8969 47.9703 89.8913 47.9815 89.8836 47.9912C89.8759 48.001 89.8664 48.0092 89.8555 48.0152C89.8447 48.0213 89.8327 48.0251 89.8204 48.0265L88.8398 48.1371C88.8155 48.1398 88.7911 48.1328 88.7718 48.1178C88.7525 48.1027 88.7399 48.0807 88.7366 48.0565L88.2735 44.2315C88.2702 44.2072 88.2576 44.1852 88.2384 44.1702C88.2191 44.1551 88.1947 44.1482 88.1704 44.1509Z" fill="#DA231D"/>
<path d="M45.0412 50.6891C42.0543 49.0616 41.4637 45.6866 42.3543 42.6978C42.3589 42.6826 42.3679 42.669 42.3802 42.6589C42.3925 42.6488 42.4075 42.6425 42.4234 42.6409C42.4392 42.6393 42.4552 42.6424 42.4692 42.6499C42.4833 42.6573 42.4949 42.6688 42.5024 42.6828C43.3699 44.2591 44.1212 45.9053 44.7562 47.6216C44.9637 48.1803 45.0856 49.1866 45.1218 50.6403C45.1231 50.7028 45.0962 50.7191 45.0412 50.6891Z" fill="white"/>
<path d="M58.0447 43.0203C58.0797 42.9703 58.1172 42.9678 58.1572 43.0128C58.2272 43.0878 58.2772 43.1947 58.3072 43.3334C58.8866 45.9828 58.3222 48.6266 56.0141 50.2541C56.0047 50.2613 55.9933 50.2654 55.9814 50.2655C55.9696 50.2657 55.958 50.262 55.9485 50.255C55.9389 50.248 55.9319 50.2381 55.9286 50.2268C55.9252 50.2154 55.9256 50.2033 55.9297 50.1922C56.0122 49.9322 56.0509 49.6528 56.0459 49.3541C56.0059 47.0691 56.6722 44.9578 58.0447 43.0203Z" fill="white"/>
<path d="M12.332 47.3028C12.3109 47.3005 12.2905 47.294 12.272 47.2838C12.2534 47.2736 12.237 47.2598 12.2238 47.2433C12.2106 47.2267 12.2007 47.2078 12.1948 47.1874C12.1889 47.1671 12.1871 47.1457 12.1895 47.1247L12.3676 45.3866C12.3831 45.2365 12.4204 45.0903 12.4775 44.9561C12.5346 44.8219 12.6104 44.7025 12.7004 44.6046C12.7904 44.5067 12.893 44.4323 13.0022 44.3857C13.1115 44.3391 13.2252 44.3211 13.337 44.3328L13.4082 44.3403C13.6336 44.364 13.8373 44.5069 13.9744 44.7376C14.1115 44.9682 14.1709 45.2677 14.1395 45.5703L13.9613 47.3084C13.9592 47.3297 13.9529 47.3503 13.9428 47.369C13.9327 47.3878 13.919 47.4044 13.9024 47.4178C13.8858 47.4312 13.8668 47.4412 13.8463 47.4473C13.8259 47.4533 13.8044 47.4552 13.7832 47.4528L12.332 47.3028Z" fill="white"/>
<path d="M87.5492 56.164L82.6573 54.2365C82.6086 54.2165 82.5873 54.1809 82.5936 54.1296L82.738 52.8359C82.7442 52.7821 82.7742 52.7509 82.828 52.7421L88.018 51.9434C88.0234 51.9432 88.0287 51.9421 88.0337 51.9399C88.0386 51.9377 88.0431 51.9345 88.0469 51.9306C88.0506 51.9267 88.0535 51.9221 88.0555 51.917C88.0575 51.912 88.0584 51.9066 88.0583 51.9012C88.0582 51.8958 88.057 51.8904 88.0548 51.8855C88.0526 51.8805 88.0494 51.876 88.0455 51.8723C88.0416 51.8685 88.037 51.8656 88.0319 51.8637C88.0269 51.8617 88.0215 51.8607 88.0161 51.8609L83.0136 51.2927C83.0003 51.2913 82.9873 51.2873 82.9756 51.2809C82.9638 51.2745 82.9535 51.2658 82.9451 51.2553C82.9367 51.2448 82.9305 51.2328 82.9268 51.2199C82.9231 51.207 82.922 51.1936 82.9236 51.1802L83.0548 49.9671C83.0611 49.9134 83.0911 49.8896 83.1448 49.8959L89.9098 50.6515C89.9364 50.6543 89.9608 50.6677 89.9777 50.6888C89.9946 50.7098 90.0025 50.7369 89.9998 50.764L89.7805 52.8115C89.7766 52.8425 89.7631 52.8714 89.7418 52.894C89.7205 52.9166 89.6927 52.9317 89.6623 52.9371L85.108 53.6946C84.9542 53.7196 84.9492 53.7615 85.093 53.8202L89.3511 55.5584C89.4173 55.5859 89.4467 55.6352 89.4392 55.7065L89.2255 57.7409C89.218 57.8171 89.1761 57.8509 89.0998 57.8421L82.3855 57.0827C82.2992 57.0727 82.2611 57.0252 82.2711 56.9402L82.4098 55.8077C82.4198 55.724 82.4667 55.6871 82.5505 55.6971L87.5267 56.2521C87.5378 56.2529 87.549 56.2497 87.5582 56.2432C87.5674 56.2366 87.574 56.227 87.5767 56.2163C87.5795 56.2056 87.5782 56.1944 87.5731 56.1847C87.5681 56.1751 87.5596 56.1678 87.5492 56.164Z" fill="#DA231D"/>
<path d="M66.934 57.0377C65.2765 56.4771 61.6315 54.7802 61.174 52.9071C60.8159 51.439 62.644 51.9846 63.2759 52.489C65.1321 53.9683 66.8759 55.294 69.2346 55.6183C72.604 56.0796 74.9702 53.3796 76.0146 50.5127C76.0195 50.4984 76.0293 50.4863 76.0421 50.4783C76.055 50.4703 76.0702 50.4671 76.0853 50.4691C76.1003 50.4711 76.1141 50.4782 76.1245 50.4892C76.1348 50.5002 76.1411 50.5145 76.1421 50.5296C76.5921 56.3721 72.0021 58.7552 66.934 57.0377Z" fill="white"/>
<path d="M24.3396 50.689C26.3421 56.0459 31.0596 57.3453 35.5427 53.8296C36.1552 53.3484 36.7833 52.8859 37.4271 52.4421C37.8696 52.1384 38.9889 51.799 39.1708 52.5903C39.5552 54.2853 35.6721 56.2765 34.5564 56.7884C32.7627 57.6121 30.9121 57.899 29.0046 57.649C25.5396 57.1971 23.9158 53.9065 24.2327 50.7021C24.2336 50.6898 24.2388 50.6782 24.2473 50.6694C24.2558 50.6605 24.2671 50.6549 24.2795 50.6534C24.2919 50.6518 24.3046 50.6545 24.3155 50.661C24.3264 50.6675 24.3349 50.6773 24.3396 50.689Z" fill="white"/>
<path d="M15.9487 52.4459C14.6962 52.3991 12.9787 52.7253 11.1318 52.9559C11.0643 52.9647 11.0262 52.9353 11.0175 52.8678L10.8562 51.5609C10.853 51.5353 10.8601 51.5095 10.8759 51.4891C10.8917 51.4687 10.915 51.4555 10.9406 51.4522C12.0431 51.3059 13.145 51.1791 14.2462 51.0716C16.0293 50.8991 17.355 50.6459 18.0112 52.4778C18.6262 54.1897 18.4556 56.5222 16.2093 56.8297C14.6906 57.0372 13.1675 57.2141 11.64 57.3603C11.57 57.3666 11.5306 57.3347 11.5218 57.2647L11.3756 56.0028C11.3656 55.9116 11.4062 55.8616 11.4975 55.8528C13.7337 55.6341 15.2712 55.4534 16.11 55.3109C17.4525 55.0841 17.3868 52.5003 15.9487 52.4459Z" fill="#DA231D"/>
<path d="M60.2421 62.0178C57.2252 61.2003 55.0371 59.0028 53.6346 56.3234C53.6034 56.2659 53.5946 56.2053 53.6084 56.1416C53.9096 54.7066 54.4277 53.3553 55.1627 52.0878C55.169 52.0777 55.1783 52.0698 55.1893 52.0651C55.2002 52.0604 55.2124 52.0592 55.224 52.0617C55.2357 52.0641 55.2463 52.0701 55.2545 52.0788C55.2626 52.0875 55.2679 52.0985 55.2696 52.1103C55.7283 56.0291 57.399 59.3078 60.2815 61.9466C60.2892 61.9526 60.2944 61.9612 60.2964 61.9708C60.2983 61.9804 60.2968 61.9904 60.292 61.9989C60.2873 62.0075 60.2797 62.0141 60.2705 62.0175C60.2614 62.021 60.2513 62.0211 60.2421 62.0178Z" fill="white"/>
<path d="M45.4668 52.3146C45.466 52.3057 45.4689 52.2968 45.4747 52.2899C45.4805 52.2831 45.4888 52.2788 45.4977 52.2781C45.5067 52.2773 45.5155 52.2802 45.5224 52.286C45.5293 52.2918 45.5335 52.3001 45.5343 52.309L46.8149 56.764C46.8312 56.8228 46.8255 56.879 46.798 56.9328C45.4293 59.6078 43.3112 61.399 40.4437 62.3065C40.4305 62.311 40.4162 62.3108 40.403 62.306C40.3899 62.3013 40.3788 62.2922 40.3716 62.2804C40.3645 62.2686 40.3618 62.2548 40.364 62.2415C40.3662 62.2281 40.3732 62.2159 40.3837 62.2071C43.2687 59.5309 44.963 56.2334 45.4668 52.3146Z" fill="white"/>
<path d="M54.6861 69.9378C51.9693 67.7028 53.1674 64.4178 55.1755 62.2522C55.2193 62.2034 55.2718 62.1916 55.333 62.2166C55.8936 62.4434 55.8524 63.0528 55.8749 63.5291C55.8763 63.5572 55.8837 63.5848 55.8966 63.6098C55.9095 63.6348 55.9276 63.6567 55.9497 63.674C55.9718 63.6913 55.9974 63.7036 56.0246 63.7099C56.0518 63.7163 56.0801 63.7167 56.1074 63.7109C56.6786 63.5934 57.2505 63.5822 57.823 63.6772C57.8409 63.6795 57.8576 63.6876 57.8705 63.7003C57.8834 63.7129 57.8917 63.7295 57.8943 63.7474C57.8968 63.7653 57.8935 63.7835 57.8846 63.7993C57.8758 63.815 57.8621 63.8275 57.8455 63.8347C56.7505 64.3616 55.5936 66.1484 56.6718 67.2228C57.7086 68.2541 59.7205 67.4759 60.6918 66.7916C64.1586 64.3466 65.6305 60.4559 64.4324 56.3553C64.4281 56.3396 64.4285 56.323 64.4336 56.3075C64.4387 56.2921 64.4483 56.2785 64.4612 56.2685C64.474 56.2584 64.4895 56.2524 64.5057 56.2512C64.522 56.25 64.5382 56.2536 64.5524 56.2616C66.2961 57.2691 68.1793 57.7984 70.2018 57.8497C70.273 57.8509 70.3024 57.8872 70.2899 57.9584C69.4274 63.0022 67.093 68.4209 62.098 70.5528C59.7205 71.5672 56.7805 71.6609 54.6861 69.9378Z" fill="white"/>
<path d="M41.8653 71.4115C34.6503 71.4753 31.0935 64.1721 30.0847 58.1177C30.0722 58.044 30.1035 58.0059 30.1785 58.0034C32.1935 57.9321 34.0722 57.399 35.8147 56.404C35.8872 56.3615 35.9135 56.3815 35.8935 56.464C34.861 60.7415 36.0441 64.1902 39.4428 66.8102C40.3972 67.5471 42.3735 68.3459 43.4872 67.5659C44.841 66.6152 43.7385 64.6427 42.6191 64.0896C42.5867 64.0734 42.5608 64.0467 42.5456 64.0138C42.5305 63.9809 42.527 63.9438 42.5357 63.9087C42.5444 63.8735 42.5649 63.8424 42.5937 63.8204C42.6225 63.7984 42.6579 63.7869 42.6941 63.7878L44.4303 63.8421C44.448 63.8429 44.4656 63.8395 44.4817 63.8324C44.4979 63.8252 44.5122 63.8144 44.5234 63.8007C44.5347 63.7871 44.5427 63.7711 44.5467 63.7538C44.5507 63.7366 44.5507 63.7187 44.5466 63.7015C44.4241 63.1615 44.5591 62.7215 44.9516 62.3815C44.9846 62.3532 45.0274 62.3389 45.0709 62.3417C45.1143 62.3445 45.1549 62.3642 45.1841 62.3965C47.5222 64.9971 48.4991 68.8165 44.7228 70.7871C43.9441 71.1934 42.9916 71.4015 41.8653 71.4115Z" fill="white"/>
<path d="M84.1933 60.606L82.5827 60.0191C82.5618 60.0118 82.5389 60.0131 82.5189 60.0225C82.4989 60.032 82.4834 60.0489 82.4758 60.0697L81.1052 63.8535C81.0975 63.8742 81.0821 63.8912 81.0621 63.9006C81.0421 63.9101 81.0192 63.9113 80.9983 63.9041L80.0402 63.5572C80.0194 63.5496 80.0025 63.5341 79.993 63.5141C79.9835 63.4941 79.9823 63.4712 79.9895 63.4503L81.8683 58.236C81.8759 58.2152 81.8914 58.1983 81.9114 58.1888C81.9313 58.1793 81.9543 58.1781 81.9752 58.1853L88.3989 60.5047C88.4197 60.5123 88.4366 60.5278 88.4461 60.5478C88.4555 60.5678 88.4568 60.5907 88.4495 60.6116L86.6326 65.6872C86.6289 65.6977 86.6231 65.7074 86.6155 65.7156C86.608 65.7238 86.599 65.7305 86.5888 65.7352C86.5787 65.7399 86.5678 65.7426 86.5566 65.743C86.5455 65.7435 86.5344 65.7417 86.5239 65.7378L85.5602 65.3778C85.5497 65.3741 85.54 65.3683 85.5318 65.3607C85.5235 65.3532 85.5169 65.3441 85.5121 65.334C85.5074 65.3239 85.5048 65.313 85.5043 65.3018C85.5039 65.2907 85.5056 65.2795 85.5095 65.2691L86.8239 61.6391C86.8312 61.6182 86.8299 61.5953 86.8204 61.5753C86.811 61.5553 86.794 61.5398 86.7733 61.5322L85.4833 61.0616C85.4624 61.0543 85.4395 61.0556 85.4195 61.065C85.3995 61.0745 85.384 61.0914 85.3764 61.1122L84.1501 64.4928C84.1464 64.5036 84.1405 64.5134 84.1329 64.5218C84.1252 64.5302 84.116 64.537 84.1056 64.5417C84.0953 64.5464 84.0841 64.549 84.0728 64.5493C84.0614 64.5496 84.0501 64.5476 84.0395 64.5435L83.087 64.1816C83.0662 64.1736 83.0493 64.1577 83.0402 64.1373C83.031 64.1169 83.0303 64.0937 83.0383 64.0728L84.2439 60.7128C84.2512 60.6919 84.2499 60.669 84.2404 60.649C84.231 60.629 84.214 60.6136 84.1933 60.606Z" fill="#DA231D"/>
<path d="M14.3192 62.6516L14.9773 64.6241C14.9827 64.64 14.9816 64.6574 14.9742 64.6725C14.9669 64.6876 14.9538 64.6992 14.938 64.7047L13.9386 65.0478C13.9306 65.0504 13.9222 65.0515 13.9138 65.0508C13.9054 65.0501 13.8972 65.0478 13.8897 65.044C13.8822 65.0402 13.8755 65.0349 13.8701 65.0285C13.8646 65.022 13.8605 65.0146 13.858 65.0066L12.0092 59.4772C12.0038 59.4613 12.005 59.4439 12.0123 59.4288C12.0197 59.4137 12.0327 59.4021 12.0486 59.3966L13.0592 59.0628C13.0751 59.0574 13.0925 59.0585 13.1076 59.0659C13.1227 59.0733 13.1343 59.0863 13.1398 59.1022L13.7886 61.0859C13.7941 61.1018 13.8057 61.1148 13.8208 61.1222C13.8359 61.1296 13.8533 61.1307 13.8692 61.1253L19.2692 59.3234C19.2851 59.3181 19.3025 59.3192 19.3176 59.3265C19.3327 59.3339 19.3443 59.347 19.3498 59.3628L19.798 60.6716C19.8034 60.6875 19.8022 60.7049 19.7949 60.72C19.7875 60.7351 19.7745 60.7467 19.7586 60.7522L14.3586 62.5709C14.3427 62.5765 14.3297 62.5881 14.3223 62.6032C14.315 62.6183 14.3138 62.6357 14.3192 62.6516Z" fill="#DA231D"/>
<path d="M21.3751 67.5359L22.9388 67.324C22.9568 67.3218 22.975 67.3252 22.9911 67.3335C23.0071 67.3419 23.0203 67.3549 23.0288 67.3709L23.7151 68.6027C23.7223 68.6158 23.7261 68.6303 23.7263 68.6452C23.7265 68.6601 23.723 68.6748 23.7162 68.6879C23.7093 68.7011 23.6992 68.7124 23.687 68.7208C23.6747 68.7291 23.6605 68.7343 23.6457 68.7359L16.2976 69.5571C16.2801 69.559 16.2624 69.5558 16.2468 69.5478C16.2311 69.5398 16.2181 69.5274 16.2094 69.5121L15.4988 68.2109C15.4901 68.1954 15.4862 68.1777 15.4876 68.16C15.4889 68.1424 15.4954 68.1255 15.5063 68.1115L20.0457 62.2559C20.0548 62.2445 20.0666 62.2354 20.0801 62.2296C20.0935 62.2238 20.1081 62.2213 20.1227 62.2224C20.1373 62.2235 20.1514 62.2282 20.1638 62.236C20.1762 62.2438 20.1865 62.2544 20.1938 62.2671L20.9063 63.5346C20.915 63.5501 20.9189 63.5678 20.9176 63.5854C20.9162 63.6031 20.9097 63.62 20.8988 63.634L19.8976 64.879C19.8867 64.893 19.8801 64.9099 19.8788 64.9275C19.8775 64.9452 19.8814 64.9629 19.8901 64.9784L21.2851 67.489C21.2936 67.505 21.3068 67.518 21.3228 67.5263C21.3389 67.5347 21.3571 67.538 21.3751 67.5359Z" fill="#DA231D"/>
<path d="M79.2978 69.5758L83.014 71.9046C83.0217 71.9092 83.0284 71.9153 83.0337 71.9226C83.039 71.9298 83.0429 71.938 83.045 71.9467C83.0471 71.9555 83.0474 71.9645 83.0459 71.9734C83.0445 71.9823 83.0413 71.9907 83.0365 71.9983L82.3503 73.0802C82.3407 73.0949 82.3257 73.1053 82.3085 73.1092C82.2914 73.113 82.2734 73.1101 82.2584 73.1008L76.4515 69.4408C76.4368 69.4312 76.4264 69.4163 76.4225 69.3991C76.4187 69.3819 76.4217 69.364 76.4309 69.349L77.1715 68.1583C77.1773 68.149 77.1853 68.1412 77.1948 68.1357C77.2042 68.1301 77.2149 68.127 77.2259 68.1265L82.4384 68.0065C82.4531 68.0063 82.4674 68.0014 82.4791 67.9924C82.4908 67.9833 82.4992 67.9707 82.503 67.9565C82.5068 67.9422 82.5059 67.9271 82.5003 67.9135C82.4947 67.8998 82.4848 67.8883 82.4721 67.8808L78.859 65.6008C78.8443 65.5912 78.8339 65.5763 78.83 65.5591C78.8262 65.5419 78.8292 65.524 78.8384 65.509L79.5134 64.4271C79.518 64.4194 79.5241 64.4127 79.5313 64.4074C79.5386 64.4021 79.5468 64.3982 79.5555 64.3962C79.5643 64.3941 79.5733 64.3937 79.5822 64.3952C79.5911 64.3966 79.5995 64.3998 79.6071 64.4046L85.4234 68.0702C85.4381 68.0798 85.4485 68.0948 85.4524 68.112C85.4562 68.1291 85.4532 68.1471 85.444 68.1621L84.7109 69.3227C84.7049 69.3317 84.6968 69.3391 84.6874 69.3443C84.6779 69.3496 84.6673 69.3524 84.6565 69.3527L79.3315 69.4521C79.3173 69.4528 79.3037 69.458 79.2926 69.4669C79.2815 69.4758 79.2736 69.488 79.2698 69.5017C79.2661 69.5155 79.2668 69.53 79.2718 69.5433C79.2768 69.5566 79.2859 69.568 79.2978 69.5758Z" fill="#DA231D"/>
<path d="M19.9407 67.7009L17.4695 68.0534C17.4579 68.0552 17.446 68.0534 17.4355 68.0484C17.4249 68.0433 17.4161 68.0352 17.4102 68.0251C17.4043 68.015 17.4016 68.0033 17.4025 67.9916C17.4034 67.9799 17.4078 67.9688 17.4151 67.9596L18.9976 66.0283C19.0035 66.021 19.0112 66.0152 19.0198 66.0115C19.0285 66.0077 19.038 66.0062 19.0474 66.0069C19.0568 66.0076 19.0659 66.0107 19.0739 66.0157C19.0819 66.0207 19.0885 66.0277 19.0932 66.0359L19.982 67.6146C19.9866 67.6228 19.9893 67.6319 19.9896 67.6413C19.9899 67.6507 19.988 67.6601 19.9839 67.6685C19.9799 67.677 19.9738 67.6844 19.9663 67.69C19.9588 67.6956 19.95 67.6994 19.9407 67.7009Z" fill="white"/>
<path d="M22.0443 72.1803C21.3749 70.6428 22.8449 69.319 24.283 69.7578C24.618 69.8603 24.973 70.1034 25.348 70.4872C26.2918 71.4534 27.1912 72.4422 28.0462 73.4534C28.0799 73.4947 28.0774 73.5328 28.0387 73.5678L22.9668 78.094C22.9143 78.1415 22.8637 78.139 22.8149 78.0865C21.9449 77.1378 21.1049 76.1834 20.2949 75.2234C19.1043 73.8134 19.9612 71.779 21.9618 72.2797C21.9749 72.2831 21.9887 72.2827 22.0017 72.2786C22.0146 72.2744 22.026 72.2667 22.0347 72.2563C22.0434 72.2458 22.0489 72.2331 22.0506 72.2197C22.0523 72.2062 22.0501 72.1925 22.0443 72.1803Z" fill="#DA231D"/>
<path d="M24.9582 74.2878C24.9402 74.3035 24.9193 74.3156 24.8967 74.3233C24.874 74.331 24.8501 74.3342 24.8262 74.3326C24.8024 74.331 24.7791 74.3248 24.7576 74.3142C24.7362 74.3036 24.717 74.2889 24.7013 74.2709L23.5669 72.9809C23.4555 72.8542 23.3613 72.7145 23.2896 72.57C23.2178 72.4254 23.1701 72.2788 23.149 72.1384C23.128 71.9981 23.134 71.8668 23.1668 71.752C23.1995 71.6373 23.2584 71.5413 23.34 71.4696L23.4957 71.3346C23.6603 71.1899 23.9074 71.1527 24.1827 71.2311C24.458 71.3095 24.7389 71.4971 24.9638 71.7528L26.0982 73.0446C26.1295 73.0808 26.1452 73.1279 26.1421 73.1756C26.1389 73.2233 26.1171 73.2679 26.0813 73.2996L24.9582 74.2878Z" fill="white"/>
<path d="M76.8153 79.0783L76.0616 78.3808C76.0543 78.3741 76.0483 78.366 76.0442 78.357C76.04 78.3479 76.0377 78.3381 76.0373 78.3282C76.037 78.3182 76.0386 78.3083 76.0421 78.299C76.0457 78.2897 76.051 78.2812 76.0578 78.274L77.4866 76.7721C77.4934 76.7649 77.4988 76.7564 77.5023 76.747C77.5058 76.7377 77.5075 76.7278 77.5071 76.7179C77.5068 76.7079 77.5044 76.6981 77.5003 76.6891C77.4961 76.6801 77.4902 76.6719 77.4828 76.6652L73.4047 72.7427C73.3907 72.7289 73.3827 72.7102 73.3823 72.6906C73.382 72.671 73.3893 72.652 73.4028 72.6377L74.3347 71.6327C74.3414 71.6254 74.3496 71.6195 74.3586 71.6153C74.3676 71.6111 74.3774 71.6088 74.3874 71.6084C74.3973 71.6081 74.4072 71.6097 74.4165 71.6133C74.4259 71.6168 74.4344 71.6221 74.4416 71.629L78.5253 75.574C78.5324 75.5809 78.5409 75.5864 78.5501 75.5901C78.5593 75.5938 78.5692 75.5956 78.5792 75.5954C78.5891 75.5952 78.5989 75.5931 78.608 75.5891C78.6171 75.5851 78.6254 75.5793 78.6322 75.5721L80.0778 74.0721C80.0848 74.065 80.0931 74.0594 80.1023 74.0555C80.1115 74.0517 80.1213 74.0497 80.1313 74.0497C80.1412 74.0497 80.1511 74.0517 80.1602 74.0555C80.1694 74.0594 80.1777 74.065 80.1847 74.0721L80.9141 74.8015C80.9281 74.8152 80.9361 74.834 80.9365 74.8536C80.9368 74.8732 80.9295 74.8922 80.916 74.9065L76.9203 79.0765C76.9066 79.0905 76.8879 79.0985 76.8682 79.0988C76.8486 79.0992 76.8296 79.0918 76.8153 79.0783Z" fill="#DA231D"/>
<path d="M22.8525 76.1609C22.8379 76.1739 22.8209 76.1839 22.8024 76.1903C22.7839 76.1966 22.7643 76.1993 22.7448 76.1981C22.7253 76.1969 22.7062 76.1918 22.6886 76.1831C22.6711 76.1745 22.6554 76.1625 22.6425 76.1478L21.5644 74.9253C21.4665 74.8142 21.3844 74.6913 21.3225 74.5635C21.2607 74.4357 21.2205 74.3056 21.2041 74.1806C21.1878 74.0556 21.1956 73.9381 21.2272 73.8349C21.2587 73.7317 21.3134 73.6447 21.3882 73.579L21.4688 73.5059C21.5434 73.44 21.6367 73.3967 21.7431 73.3783C21.8496 73.36 21.9673 73.3671 22.0893 73.3991C22.2114 73.4312 22.3355 73.4876 22.4546 73.5651C22.5736 73.6426 22.6853 73.7397 22.7832 73.8509L23.8613 75.0753C23.887 75.1047 23.9 75.143 23.8975 75.182C23.8951 75.221 23.8773 75.2574 23.8481 75.2834L22.8525 76.1609Z" fill="white"/>
<path d="M71.6009 78.3377C72.186 78.3377 72.6603 77.8634 72.6603 77.2784C72.6603 76.6933 72.186 76.219 71.6009 76.219C71.0158 76.219 70.5415 76.6933 70.5415 77.2784C70.5415 77.8634 71.0158 78.3377 71.6009 78.3377Z" fill="#DA231D"/>
<path d="M29.1019 78.7484C29.6673 78.7484 30.1256 78.2901 30.1256 77.7247C30.1256 77.1593 29.6673 76.7009 29.1019 76.7009C28.5365 76.7009 28.0781 77.1593 28.0781 77.7247C28.0781 78.2901 28.5365 78.7484 29.1019 78.7484Z" fill="#DA231D"/>
<path d="M33.226 77.2374L32.4452 76.7322C32.4113 76.7103 32.366 76.72 32.3441 76.7539L29.8652 80.5857C29.8432 80.6196 29.8529 80.6649 29.8868 80.6868L30.6677 81.192C30.7016 81.2139 30.7469 81.2042 30.7688 81.1703L33.2477 77.3385C33.2696 77.3046 33.2599 77.2593 33.226 77.2374Z" fill="#DA231D"/>
<path d="M67.4552 81.6134L67.6015 82.6521C67.6032 82.6659 67.6007 82.6799 67.5943 82.6923C67.588 82.7046 67.5781 82.7148 67.5659 82.7215L66.7034 83.2165C66.6934 83.2221 66.6822 83.2252 66.6707 83.2255C66.6592 83.2257 66.6479 83.2231 66.6377 83.2179C66.6275 83.2127 66.6187 83.2051 66.6122 83.1957C66.6056 83.1863 66.6015 83.1754 66.6002 83.164L66.0659 78.1915C66.0644 78.1782 66.0668 78.1647 66.0728 78.1527C66.0787 78.1408 66.0881 78.1308 66.0996 78.124L67.0202 77.6102C67.032 77.6039 67.0453 77.601 67.0586 77.602C67.0719 77.603 67.0846 77.6078 67.0952 77.6159L71.1509 80.5502C71.1602 80.557 71.1678 80.566 71.1728 80.5764C71.1778 80.5868 71.1802 80.5983 71.1796 80.6099C71.1791 80.6214 71.1756 80.6327 71.1696 80.6426C71.1636 80.6524 71.1552 80.6607 71.1452 80.6665L70.2584 81.1821C70.2464 81.1889 70.2328 81.192 70.2191 81.191C70.2054 81.19 70.1923 81.1849 70.1815 81.1765L69.3377 80.5334C69.3269 80.5249 69.3138 80.5199 69.3001 80.5189C69.2865 80.5179 69.2728 80.521 69.2609 80.5277L67.4909 81.544C67.4787 81.5506 67.4687 81.5608 67.4624 81.5732C67.456 81.5856 67.4535 81.5996 67.4552 81.6134Z" fill="#DA231D"/>
<path d="M36.9189 79.2396L37.6652 79.6259C37.6833 79.6351 37.697 79.6511 37.7034 79.6705C37.7097 79.6898 37.7081 79.7108 37.6989 79.729L35.6683 83.7996C35.6638 83.8089 35.6574 83.817 35.6496 83.8238C35.6418 83.8305 35.6327 83.8356 35.623 83.8387C35.6132 83.8419 35.6028 83.843 35.5926 83.8421C35.5823 83.8412 35.5724 83.8382 35.5633 83.8334L34.6989 83.389C34.6879 83.3834 34.6784 83.3751 34.6712 83.365C34.664 83.3549 34.6594 83.3432 34.6577 83.3309L34.1664 79.9315C34.1641 79.9154 34.1567 79.9004 34.1454 79.8888C34.134 79.8771 34.1192 79.8694 34.1031 79.8666C34.0871 79.8639 34.0706 79.8664 34.056 79.8737C34.0414 79.8809 34.0295 79.8927 34.0221 79.9071L32.7808 82.354C32.7763 82.3632 32.7699 82.3714 32.7621 82.3781C32.7543 82.3849 32.7452 82.3899 32.7355 82.3931C32.7257 82.3962 32.7153 82.3974 32.7051 82.3965C32.6948 82.3955 32.6849 82.3926 32.6758 82.3878L31.9258 82.0053C31.9167 82.0009 31.9085 81.9947 31.9018 81.9871C31.895 81.9795 31.8898 81.9707 31.8865 81.9611C31.8832 81.9515 31.8818 81.9414 31.8825 81.9312C31.8831 81.9211 31.8857 81.9112 31.8902 81.9021L33.9452 77.824C33.9499 77.815 33.9564 77.8069 33.9643 77.8004C33.9721 77.7939 33.9812 77.789 33.991 77.786C34.0008 77.7831 34.011 77.7821 34.0212 77.7831C34.0314 77.7842 34.0412 77.7872 34.0502 77.7921L34.8696 78.2234C34.8803 78.2292 34.8894 78.2376 34.8963 78.2477C34.9031 78.2578 34.9075 78.2694 34.9089 78.2815L35.4039 81.7465C35.4063 81.7626 35.4136 81.7776 35.425 81.7893C35.4364 81.8009 35.4512 81.8086 35.4672 81.8114C35.4833 81.8141 35.4998 81.8116 35.5144 81.8043C35.5289 81.7971 35.5408 81.7854 35.5483 81.7709L36.8139 79.2734C36.8185 79.2642 36.8249 79.256 36.8327 79.2492C36.8405 79.2425 36.8495 79.2375 36.8593 79.2343C36.8691 79.2312 36.8794 79.23 36.8897 79.2309C36.8999 79.2318 36.9099 79.2348 36.9189 79.2396Z" fill="#DA231D"/>
<path d="M67.3349 80.5934L67.138 79.0184C67.1368 79.0068 67.139 78.995 67.1443 78.9846C67.1496 78.9742 67.1579 78.9656 67.168 78.9599C67.1782 78.9541 67.1898 78.9514 67.2015 78.9521C67.2131 78.9529 67.2243 78.957 67.2337 78.964L68.5012 79.9184C68.509 79.9243 68.5152 79.9321 68.5194 79.941C68.5235 79.9499 68.5253 79.9597 68.5248 79.9695C68.5242 79.9794 68.5213 79.9889 68.5162 79.9973C68.5111 80.0057 68.504 80.0127 68.4955 80.0177L67.4249 80.6384C67.4163 80.6434 67.4065 80.6463 67.3965 80.6466C67.3866 80.6469 67.3766 80.6448 67.3677 80.6403C67.3587 80.6358 67.3511 80.6292 67.3453 80.621C67.3396 80.6128 67.336 80.6033 67.3349 80.5934Z" fill="white"/>
<path d="M63.8804 79.2426L63.0563 79.6043C63.0098 79.6247 62.9887 79.6789 63.0091 79.7254L64.8299 83.8733C64.8503 83.9198 64.9045 83.9409 64.951 83.9205L65.7751 83.5588C65.8215 83.5384 65.8427 83.4842 65.8223 83.4377L64.0014 79.2898C63.9811 79.2433 63.9269 79.2222 63.8804 79.2426Z" fill="#DA231D"/>
<path d="M38.4901 80.0759C38.4946 80.0617 38.5019 80.0486 38.5115 80.0372C38.5211 80.0258 38.5328 80.0164 38.5461 80.0096C38.5594 80.0028 38.5738 79.9987 38.5887 79.9975C38.6035 79.9964 38.6185 79.9982 38.6326 80.0028L40.7345 80.6778C41.0019 80.7636 41.2497 80.9012 41.4638 81.0828C41.678 81.2644 41.8543 81.4865 41.9826 81.7364C42.1109 81.9862 42.1888 82.259 42.2117 82.539C42.2347 82.8191 42.2023 83.1009 42.1164 83.3684L41.9814 83.7866C41.808 84.3268 41.4273 84.776 40.9231 85.0355C40.4188 85.295 39.8324 85.3435 39.2926 85.1703L37.1889 84.4953C37.1748 84.4907 37.1619 84.4833 37.1507 84.4736C37.1395 84.4639 37.1303 84.4521 37.1237 84.4389C37.1171 84.4256 37.1131 84.4112 37.1121 84.3964C37.1111 84.3817 37.1129 84.3669 37.1176 84.3528L38.4901 80.0759Z" fill="#DA231D"/>
<path d="M60.225 83.2466C58.8356 83.2841 58.1925 81.7934 59.4037 80.9778C60.3506 80.3403 61.9125 79.9503 62.5987 81.1766C62.6387 81.2478 62.6206 81.2978 62.5443 81.3266L61.7493 81.6228C61.7224 81.6328 61.6933 81.635 61.6653 81.629C61.6374 81.623 61.6119 81.6091 61.5918 81.5891L61.3237 81.3228C61.2731 81.271 61.2048 81.2401 61.1325 81.2366C60.6287 81.2091 60.1943 81.3728 59.8293 81.7278C59.7834 81.772 59.752 81.829 59.7391 81.8914C59.7263 81.9538 59.7327 82.0187 59.7575 82.0774C59.7823 82.1361 59.8243 82.1859 59.8779 82.2202C59.9316 82.2545 59.9944 82.2718 60.0581 82.2697C60.7743 82.2472 61.5018 82.2259 62.2406 82.2059C62.9943 82.1853 63.645 83.1509 63.4162 83.8672C62.9475 85.3334 60.0993 85.9897 59.2818 84.4016C59.2456 84.3303 59.2643 84.2797 59.3381 84.2497L60.075 83.9403C60.1237 83.9203 60.1656 83.9303 60.2006 83.9703C60.7318 84.5903 61.3606 84.6403 62.0868 84.1203C62.3581 83.9266 62.4375 83.6816 62.325 83.3853C62.3044 83.3298 62.2637 83.2836 62.2106 83.2559C61.7531 83.0253 60.7593 83.2334 60.225 83.2466Z" fill="#DA231D"/>
<path d="M39.2422 81.2122C39.2486 81.1925 39.2588 81.1742 39.2722 81.1584C39.2857 81.1427 39.3021 81.1297 39.3206 81.1203C39.339 81.1109 39.3592 81.1052 39.3798 81.1036C39.4005 81.102 39.4212 81.1045 39.4409 81.1109L40.3016 81.3903C40.4546 81.4399 40.5963 81.5196 40.7185 81.6248C40.8406 81.73 40.9409 81.8586 41.0135 82.0034C41.0861 82.1481 41.1297 82.306 41.1417 82.4682C41.1537 82.6304 41.1339 82.7935 41.0834 82.9484L40.8866 83.5541C40.8363 83.709 40.7564 83.8527 40.6513 83.9768C40.5462 84.1009 40.4181 84.2031 40.2743 84.2775C40.1304 84.3518 39.9737 84.3969 39.813 84.4102C39.6523 84.4234 39.4908 84.4046 39.3378 84.3547L38.4772 84.0753C38.4575 84.0689 38.4392 84.0587 38.4235 84.0453C38.4077 84.0318 38.3947 84.0154 38.3853 83.9969C38.3759 83.9785 38.3702 83.9583 38.3686 83.9377C38.367 83.917 38.3695 83.8962 38.3759 83.8766L39.2422 81.2122Z" fill="white"/>
<path d="M55.1028 82.7346L55.2528 83.554C55.2579 83.5805 55.273 83.6039 55.2951 83.6193C55.3172 83.6347 55.3444 83.6409 55.371 83.6365L57.7897 83.2371C57.8163 83.2327 57.8435 83.2389 57.8656 83.2543C57.8876 83.2697 57.9028 83.2932 57.9078 83.3196L58.0147 83.9084C58.0171 83.9218 58.0169 83.9356 58.0139 83.9489C58.011 83.9622 58.0054 83.9748 57.9976 83.986C57.9897 83.9972 57.9797 84.0066 57.9682 84.0139C57.9567 84.0212 57.9438 84.0261 57.9303 84.0284L55.4928 84.4221C55.466 84.4267 55.4421 84.4417 55.4263 84.4638C55.4105 84.486 55.4041 84.5134 55.4085 84.5402L55.5772 85.5978C55.5792 85.6114 55.584 85.6244 55.5912 85.6362C55.5984 85.648 55.6078 85.6582 55.619 85.6662C55.6302 85.6742 55.6429 85.68 55.6563 85.683C55.6697 85.6861 55.6836 85.6864 55.6972 85.684L58.4122 85.2284C58.4385 85.2239 58.4655 85.2299 58.4875 85.2449C58.5095 85.2599 58.5249 85.2829 58.5303 85.309L58.6485 85.9015C58.6512 85.9151 58.6511 85.929 58.6483 85.9426C58.6455 85.9561 58.64 85.969 58.6321 85.9803C58.6242 85.9917 58.6141 86.0014 58.6025 86.0088C58.5908 86.0162 58.5777 86.0211 58.5641 86.0234L54.7635 86.6403C54.7366 86.6446 54.7092 86.6382 54.687 86.6224C54.6649 86.6066 54.6499 86.5827 54.6453 86.5559L53.9178 82.1196C53.9135 82.0928 53.9199 82.0653 53.9357 82.0432C53.9515 82.0211 53.9754 82.0061 54.0022 82.0015L57.6978 81.3921C57.7117 81.3897 57.7259 81.3902 57.7395 81.3935C57.7532 81.3968 57.766 81.4028 57.7772 81.4113C57.7885 81.4197 57.7979 81.4303 57.8048 81.4425C57.8118 81.4547 57.8162 81.4682 57.8178 81.4821L57.8872 82.0746C57.8899 82.1009 57.8825 82.1271 57.8665 82.148C57.8504 82.169 57.827 82.183 57.801 82.1871L55.1872 82.6146C55.1738 82.6169 55.1609 82.6218 55.1493 82.6291C55.1378 82.6363 55.1278 82.6458 55.12 82.657C55.1121 82.6682 55.1066 82.6808 55.1036 82.6941C55.1007 82.7074 55.1004 82.7212 55.1028 82.7346Z" fill="#DA231D"/>
<path d="M47.8763 84.6549C47.8412 84.9413 47.7499 85.218 47.6078 85.4692C47.4657 85.7203 47.2755 85.941 47.0481 86.1187C46.8207 86.2964 46.5606 86.4275 46.2825 86.5046C46.0044 86.5818 45.7138 86.6034 45.4274 86.5682L44.7202 86.4814C44.4338 86.4462 44.1571 86.3549 43.9059 86.2128C43.6548 86.0707 43.434 85.8805 43.2564 85.6531C43.0787 85.4257 42.9476 85.1656 42.8704 84.8875C42.7933 84.6094 42.7717 84.3188 42.8069 84.0324L42.8585 83.6118C42.8937 83.3254 42.985 83.0487 43.1271 82.7975C43.2692 82.5464 43.4593 82.3256 43.6867 82.148C43.9142 81.9703 44.1743 81.8392 44.4524 81.762C44.7305 81.6849 45.0211 81.6633 45.3075 81.6985L46.0147 81.7853C46.3011 81.8205 46.5778 81.9118 46.829 82.0539C47.0801 82.196 47.3009 82.3861 47.4785 82.6135C47.6562 82.841 47.7873 83.1011 47.8644 83.3792C47.9416 83.6573 47.9632 83.9479 47.928 84.2343L47.8763 84.6549Z" fill="#DA231D"/>
<path d="M49.8621 86.8371L48.9546 86.9009C48.9469 86.9014 48.9392 86.9003 48.932 86.8977C48.9247 86.8951 48.918 86.8911 48.9124 86.8858C48.9068 86.8805 48.9023 86.8741 48.8992 86.8671C48.8962 86.86 48.8946 86.8523 48.8946 86.8446L48.8384 82.2228C48.8384 82.2078 48.8443 82.1935 48.8549 82.183C48.8654 82.1724 48.8797 82.1665 48.8946 82.1665H49.8584C49.8673 82.1667 49.876 82.169 49.8838 82.1733C49.8916 82.1775 49.8983 82.1835 49.9034 82.1909L51.9753 85.0896C51.9822 85.099 51.9919 85.1059 52.003 85.1095C52.0141 85.113 52.0261 85.1131 52.0372 85.1096C52.0483 85.1061 52.058 85.0992 52.0651 85.0899C52.0721 85.0806 52.0761 85.0694 52.0765 85.0578L52.0615 82.1759C52.0615 82.161 52.0674 82.1467 52.078 82.1361C52.0885 82.1256 52.1028 82.1196 52.1178 82.1196H52.9784C52.993 82.1196 53.007 82.1253 53.0175 82.1354C53.028 82.1456 53.0341 82.1594 53.0346 82.174L53.1303 86.749C53.1305 86.7565 53.1292 86.7641 53.1265 86.7711C53.1238 86.7781 53.1197 86.7846 53.1145 86.79C53.1092 86.7954 53.1029 86.7997 53.096 86.8027C53.089 86.8056 53.0815 86.8071 53.074 86.8071H52.0521C52.0434 86.8071 52.0348 86.8051 52.027 86.8012C52.0192 86.7973 52.0124 86.7916 52.0071 86.7846L49.9521 83.9478C49.9453 83.9375 49.9354 83.9297 49.9237 83.9256C49.9121 83.9216 49.8994 83.9215 49.8877 83.9253C49.876 83.9291 49.8658 83.9367 49.8588 83.9469C49.8519 83.957 49.8484 83.9692 49.849 83.9815L49.9146 86.779C49.9151 86.7936 49.91 86.8079 49.9002 86.8187C49.8904 86.8296 49.8767 86.8362 49.8621 86.8371Z" fill="#DA231D"/>
<path d="M45.7356 82.5879L45.4912 82.5492C44.7752 82.4358 44.1029 82.9243 43.9895 83.6402L43.9044 84.1773C43.791 84.8932 44.2795 85.5655 44.9955 85.6789L45.2399 85.7176C45.9559 85.831 46.6282 85.3426 46.7416 84.6266L46.8266 84.0896C46.94 83.3736 46.4516 82.7013 45.7356 82.5879Z" fill="white"/>
</svg>
