<svg width="100" height="100" viewBox="0 0 100 100" fill="none" xmlns="http://www.w3.org/2000/svg">
<rect width="100" height="100" fill="white"/>
<path d="M47.3243 14.175C47.4841 14.2268 47.6234 14.3283 47.7222 14.4647C47.821 14.6012 47.8742 14.7656 47.8741 14.9344V53.188C47.8741 53.4702 47.7515 53.6825 47.5062 53.8249C46.731 54.2679 45.8331 53.9633 45.1606 53.366C40.596 49.3209 36.1038 45.3206 31.6842 41.3651C31.49 41.1908 31.3347 40.9778 31.2284 40.7399C31.1221 40.5021 31.0671 40.2447 31.0672 39.9846C31.0593 35.9553 31.0579 31.8534 31.0632 27.679C31.0659 27.1727 31.406 26.6203 32.0837 26.0217C36.3188 22.2851 40.5327 18.5234 44.7255 14.7367C45.4929 14.0458 46.3591 13.8585 47.3243 14.175Z" fill="#535456"/>
<path d="M67.9722 26.172C68.7039 26.8325 68.9255 27.1173 68.9294 28.1814C68.9426 32.2661 68.9439 36.3574 68.9334 40.4553C68.9334 40.5898 68.8872 40.7071 68.7949 40.8073C68.3071 41.34 67.7981 41.8463 67.2681 42.3262C63.6317 45.6198 59.9821 48.8989 56.3193 52.1635C54.8557 53.4688 54.2743 54.256 52.5813 54.0028C52.4099 53.9765 52.3242 53.8776 52.3242 53.7062V14.7366C52.3241 14.626 52.3562 14.5177 52.4166 14.4249C52.477 14.3322 52.5631 14.2591 52.6644 14.2145C54.0053 13.637 54.6342 14.3213 55.5638 15.1322C59.7302 18.7792 63.8664 22.4591 67.9722 26.172Z" fill="#BED748"/>
<path d="M10 60.5135V45.9217L19.418 37.7457C19.4977 37.676 19.6003 37.638 19.7066 37.6387C19.8129 37.6394 19.9156 37.6789 19.9956 37.7496L47.241 62.1194C47.3469 62.2153 47.4315 62.3321 47.4894 62.4622C47.5473 62.5923 47.5772 62.7329 47.5773 62.8749V85.0336C47.5773 85.0861 47.5564 85.1364 47.5193 85.1735C47.4822 85.2106 47.4319 85.2314 47.3795 85.2314H37.7953C37.4189 85.2315 37.0561 85.0903 36.7787 84.8358L10 60.5135Z" fill="#535456"/>
<path d="M80.7564 37.8248L89.5059 45.4194C89.6611 45.5535 89.7856 45.7197 89.8709 45.9067C89.9562 46.0938 90.0004 46.2972 90.0004 46.5032V60.0745C90.0003 60.2414 89.9651 60.4066 89.8969 60.5592C89.8288 60.7119 89.7292 60.8486 89.6048 60.9605L62.9764 85.0851C62.872 85.1793 62.7353 85.2315 62.5927 85.2314H52.7198C52.6149 85.2314 52.5143 85.1897 52.4401 85.1156C52.3659 85.0414 52.3242 84.9408 52.3242 84.8359V62.9936C52.3243 62.8542 52.3538 62.7159 52.4111 62.5879C52.4683 62.4598 52.5519 62.3447 52.6565 62.25L79.9059 37.8327C80.023 37.728 80.174 37.6695 80.3306 37.668C80.4872 37.6665 80.6386 37.7223 80.7564 37.8248Z" fill="#BED748"/>
</svg>
