<svg width="100" height="100" viewBox="0 0 100 100" fill="none" xmlns="http://www.w3.org/2000/svg">
<rect width="100" height="100" fill="white"/>
<g clip-path="url(#clip0_105_1808)">
<path d="M55.1214 38.1397C53.7192 36.7331 52.3157 35.3055 50.9046 33.8964C50.3688 33.3612 49.9515 33.2529 49.3903 33.8077C47.9354 35.2462 46.4873 36.6885 45.0463 38.1346C45.0335 38.1477 45.0181 38.158 45.0012 38.1651C44.9842 38.1722 44.966 38.1758 44.9475 38.1758L37.9397 38.1752C37.9347 38.1752 37.9297 38.1738 37.9255 38.171C37.9213 38.1683 37.9181 38.1644 37.9161 38.1598C37.9141 38.1551 37.9136 38.1501 37.9145 38.1451C37.9154 38.1402 37.9178 38.1357 37.9213 38.1321L50.0319 26.0259C50.0518 26.0065 50.0714 26.0065 50.0908 26.0259L62.197 38.1232C62.2012 38.1275 62.2041 38.1329 62.2053 38.1388C62.2065 38.1447 62.2059 38.1508 62.2036 38.1564C62.2013 38.162 62.1974 38.1667 62.1924 38.1701C62.1874 38.1734 62.1815 38.1752 62.1754 38.1752L55.21 38.1764C55.1768 38.1764 55.1449 38.1632 55.1214 38.1397Z" fill="#F5333F"/>
<path d="M52.6755 69.6999H47.4663V43.3754C47.4663 43.3696 47.4686 43.3639 47.4726 43.3598C47.4767 43.3556 47.4821 43.3533 47.4878 43.3533H52.614C52.6222 43.3533 52.6303 43.3549 52.6378 43.358C52.6453 43.3611 52.6522 43.3657 52.6579 43.3715C52.6637 43.3772 52.6683 43.3841 52.6714 43.3916C52.6745 43.3991 52.6761 43.4072 52.6761 43.4153L52.6755 69.6999Z" fill="black"/>
<path d="M36.5056 69.6999H19.3277C15.2528 69.382 12.2578 66.2223 12 62.1595V61.8624H17.0869C17.1106 61.8624 17.1228 61.8742 17.1237 61.8979C17.1743 63.295 18.1617 64.3989 19.5493 64.5756C19.7615 64.6029 20.0452 64.601 20.2384 64.601C25.2126 64.6026 30.1866 64.6022 35.1604 64.5997C35.8359 64.5993 36.2573 64.5853 36.4245 64.5579C38.3663 64.24 39.3283 62.0094 38.2428 60.3545C37.6956 59.5206 36.8645 59.1043 35.7494 59.1055C30.6578 59.1131 25.5662 59.1192 20.4746 59.1239C19.8903 59.1247 19.4687 59.1133 19.2099 59.0897C15.1565 58.7186 12.1982 55.5019 12 51.4561V51.0286C12.164 47.0874 15.0501 43.9549 18.9375 43.4584C19.2504 43.4183 19.672 43.3984 20.2023 43.3989C25.2736 43.4027 30.3453 43.4022 35.4175 43.3976C35.9778 43.3972 36.3996 43.4111 36.6829 43.4394C40.7318 43.8384 43.7769 47.1254 43.8231 51.2237C43.8231 51.244 43.8132 51.2541 43.7933 51.2541H38.7425C38.7201 51.2541 38.7087 51.2431 38.7083 51.2212C38.669 49.9805 37.8476 48.9108 36.6569 48.6087C36.415 48.547 35.9953 48.5162 35.3979 48.5162C30.4182 48.5141 25.4385 48.5141 20.4588 48.5162C19.8529 48.5162 19.433 48.5451 19.1991 48.603C16.465 49.2768 16.458 53.1896 19.1712 53.9078C19.3853 53.9643 19.6874 53.9926 20.0775 53.9926C25.1733 53.9922 30.2693 53.993 35.3656 53.9952C35.9609 53.9952 36.3831 54.0059 36.6322 54.0275C41.0573 54.4062 44.3209 58.4184 43.7655 62.8485C43.2974 66.5852 40.2346 69.4105 36.5056 69.6999Z" fill="black"/>
<path d="M87.9999 50.3884V51.256H82.9471C82.9405 51.2561 82.9342 51.2535 82.9294 51.2489C82.9247 51.2442 82.922 51.238 82.9218 51.2313C82.8863 49.6714 81.6545 48.5162 80.099 48.5156C74.8757 48.5143 69.6524 48.5143 64.4291 48.5156C64.2195 48.5156 63.9427 48.5194 63.7584 48.5416C62.3397 48.7151 61.341 49.8925 61.3397 51.3175C61.3372 54.7235 61.3363 58.1296 61.3372 61.5357C61.3378 62.2444 61.4094 62.7929 61.7659 63.3318C62.3199 64.1691 63.1215 64.5886 64.1707 64.5903C69.3176 64.5983 74.4643 64.6016 79.6107 64.6004C80.1968 64.6004 80.6021 64.5734 80.8267 64.5193C81.7862 64.2894 82.5684 63.5212 82.823 62.5718C82.8838 62.3447 82.9148 62.0031 82.9161 61.5471C82.9182 60.7656 82.9188 59.9737 82.918 59.1714C82.918 59.1587 82.9129 59.1464 82.9039 59.1374C82.8949 59.1284 82.8826 59.1233 82.8699 59.1233H66.939C66.9311 59.1233 66.9235 59.1201 66.9179 59.1144C66.9124 59.1087 66.9092 59.101 66.9092 59.0929L66.9099 54.025C66.9099 54.0166 66.9132 54.0085 66.9191 54.0026C66.9251 53.9967 66.9331 53.9933 66.9415 53.9933L87.9999 53.9939V62.6434C87.5382 66.4865 84.6008 69.3871 80.7279 69.7H63.5336C59.631 69.3713 56.5897 66.4028 56.2433 62.5072C56.2205 62.2484 56.2086 61.8262 56.2078 61.2405C56.2048 57.9911 56.2023 54.7417 56.2002 51.4923C56.197 47.38 59.0616 43.9448 63.1637 43.4553C63.4605 43.4198 63.8819 43.4021 64.4278 43.4021C69.7098 43.4004 74.9916 43.4002 80.2732 43.4014C84.2448 43.4027 87.5268 46.4965 87.9999 50.3884Z" fill="black"/>
</g>
<defs>
<clipPath id="clip0_105_1808">
<rect width="76" height="43.7" fill="white" transform="translate(12 26)"/>
</clipPath>
</defs>
</svg>
