<svg width="100" height="100" viewBox="0 0 100 100" fill="none" xmlns="http://www.w3.org/2000/svg">
<rect width="100" height="100" fill="#DFFFC7"/>
<path d="M69.2657 44.8051L69.9027 46.1959C69.917 46.2273 69.9076 46.2393 69.8746 46.2318C69.8713 46.2307 69.0253 44.8657 68.9287 44.7208" stroke="#AE6620" stroke-width="0.224686"/>
<path d="M68.9286 44.7208C66.508 40.9243 63.7324 37.4012 60.6017 34.1515C57.9984 31.45 55.0295 29.1489 51.6952 27.248C50.1538 26.3695 47.7418 25.2843 45.969 25.4876C45.04 25.5944 44.4693 26.3605 44.9198 27.2559C47.8991 33.1682 50.2306 39.2819 51.9142 45.597" stroke="#BDE29F" stroke-width="0.224686"/>
<path d="M51.9146 45.597L51.1709 45.8386" stroke="#AE6620" stroke-width="0.224686"/>
<path d="M68.9284 44.7209C63.2989 43.5772 57.393 43.8109 51.9141 45.5972" stroke="#F08380" stroke-width="0.224686"/>
<path d="M69.2658 44.8051L69.9028 46.1959C69.917 46.2274 69.9077 46.2393 69.8747 46.2319C69.8713 46.2307 69.0254 44.8658 68.9288 44.7208C66.5081 40.9244 63.7325 37.4013 60.6019 34.1516C57.9985 31.4501 55.0297 29.149 51.6953 27.2481C50.154 26.3696 47.742 25.2844 45.9692 25.4877C45.0401 25.5944 44.4694 26.3606 44.9199 27.256C47.8993 33.1682 50.2308 39.2819 51.9144 45.5971L51.1707 45.8387C49.0601 39.7339 46.3407 33.9134 43.0123 28.3772C42.5045 27.5346 41.8945 26.9358 40.9452 27.6267C38.0029 29.7623 35.9785 32.7462 35.2168 36.303C33.5729 43.9835 31.9237 51.6633 30.2692 59.3423C29.8098 61.4746 29.2222 63.5922 28.7077 65.7144C28.6987 65.7511 28.7051 65.7848 28.7268 65.8155C30.7658 68.6623 30.8478 72.7594 29.8109 75.9713C29.3346 77.4464 27.8932 79.8079 26.0744 79.1192C23.2265 78.0429 23.4163 71.4124 23.8095 69.1206C24.0387 67.7883 24.4611 66.4469 25.3239 65.3953C25.3449 65.3691 25.355 65.3388 25.3542 65.3044L24.879 40.2574C24.879 40.2521 24.8778 40.2468 24.8755 40.242C24.8731 40.2372 24.8697 40.233 24.8654 40.2298C24.8612 40.2265 24.8563 40.2243 24.851 40.2232C24.8458 40.2222 24.8404 40.2224 24.8352 40.2237L18.2766 41.7954C18.2302 41.8067 18.1942 41.7921 18.1688 41.7516L17.8385 41.2292C17.804 41.1753 17.8164 41.1367 17.8756 41.1135L24.8127 38.3982C24.8502 38.3832 24.8693 38.3555 24.87 38.315L24.906 34.6425C24.906 34.6327 24.9036 34.623 24.8991 34.6142C24.8946 34.6054 24.8881 34.5979 24.88 34.5922C24.872 34.5865 24.8627 34.5827 24.853 34.5813C24.8432 34.5799 24.8333 34.5809 24.824 34.5841L11.3821 39.3756C11.3639 39.3818 11.3441 39.3814 11.3263 39.3747C11.3084 39.3679 11.2936 39.3551 11.2844 39.3385L11.0125 38.8397C10.9885 38.7962 10.999 38.7644 11.044 38.7442L24.8408 32.4136C24.8542 32.4073 24.8655 32.3974 24.8733 32.385C24.8811 32.3727 24.885 32.3584 24.8846 32.344C24.8521 31.0015 24.9419 29.6466 24.8891 28.3086C24.8588 27.5368 24.8442 27.0695 24.3948 26.4842C23.4519 25.2551 22.4902 24.0074 21.5098 22.7409C21.4642 22.6825 21.4784 22.6529 21.5525 22.6522L38.713 22.5409C38.7318 22.5409 38.7505 22.5364 38.7675 22.5279C38.7844 22.5193 38.7992 22.5068 38.8107 22.4915C39.6675 21.3441 40.537 20.2091 41.4193 19.0864C42.0417 18.2932 42.9449 17.8585 43.9403 18.0416C44.2743 18.1038 44.7915 18.3408 45.4917 18.7527C50.4708 21.6856 55.448 24.6204 60.4233 27.5571C61.1018 27.9581 60.4727 29.0815 60.1503 29.532C59.8762 29.914 60.0144 30.2634 60.3031 30.615C63.8516 34.9395 66.8208 39.6336 69.2108 44.6972C69.2332 44.7452 69.2516 44.7811 69.2658 44.8051Z" fill="#7AC53F"/>
<path d="M68.9286 44.7208C63.2991 43.5771 57.3932 43.8108 51.9142 45.597C50.2306 39.2819 47.8991 33.1682 44.9198 27.2559C44.4693 26.3605 45.04 25.5944 45.969 25.4876C47.7418 25.2843 50.1538 26.3695 51.6952 27.248C55.0295 29.1489 57.9984 31.45 60.6017 34.1515C63.7324 37.4012 66.508 40.9243 68.9286 44.7208Z" fill="#DFFFC7"/>
<path d="M27.6203 27.847C27.6091 27.4234 28.0854 27.0898 28.4595 27.0291C28.4797 27.0261 28.7273 27.0265 29.2021 27.0302C31.2475 27.0459 33.2824 27.0628 35.3068 27.0808C35.354 27.0815 35.3649 27.1014 35.3394 27.1403C34.7193 28.111 34.1111 29.0902 33.515 30.0781C32.8847 31.1229 32.5791 31.2858 31.431 31.3689C30.5682 31.4318 29.705 31.4801 28.8415 31.5138C28.0326 31.5453 27.6551 31.2611 27.654 30.4533C27.6525 29.5845 27.6413 28.7157 27.6203 27.847Z" fill="#DFFFC7"/>
<path d="M27.8744 35.311C27.861 34.7571 28.18 34.4201 28.7035 34.31C29.6113 34.1197 30.5137 33.9501 31.411 33.8011C31.4724 33.7913 31.4885 33.8134 31.4593 33.8673C31.2672 34.2257 30.6853 35.2963 30.9571 35.6603C31.4548 36.3265 32.7647 35.8918 32.5097 37.305C31.1646 44.7826 29.8262 52.2504 28.4946 59.7085C28.4922 59.7194 28.486 59.729 28.4771 59.7357C28.4682 59.7424 28.4572 59.7456 28.4461 59.7448C28.435 59.7439 28.4246 59.7391 28.4168 59.7312C28.409 59.7233 28.4043 59.7129 28.4036 59.7018C28.2343 51.5674 28.0579 43.4371 27.8744 35.311Z" fill="#DFFFC7"/>
<path d="M68.9289 44.7209C69.0255 44.8658 69.8714 46.2308 69.8748 46.2319C69.9078 46.2394 69.9171 46.2274 69.9029 46.196L69.2659 44.8052C77.2018 46.6824 83.7234 51.8277 87.7711 58.8559C87.7793 58.8694 87.7834 58.884 87.7834 58.8997C87.7834 58.9252 87.7827 58.942 87.7812 58.9503C87.7792 58.9599 87.7745 58.9689 87.7678 58.9761C87.7611 58.9833 87.7525 58.9885 87.743 58.9912C87.7335 58.9938 87.7234 58.9938 87.7139 58.9912C87.7044 58.9885 87.6958 58.9833 87.6891 58.9761C85.295 56.4462 82.9538 54.1083 80.1138 52.0704C74.9269 48.3462 68.6761 46.2892 62.3276 45.8735C49.1239 45.0096 37.6346 52.6467 30.8783 63.5271C30.8725 63.5368 30.8635 63.5441 30.8528 63.5477C30.8421 63.5513 30.8305 63.551 30.8201 63.5468C30.8096 63.5426 30.8011 63.5348 30.7959 63.5248C30.7907 63.5148 30.7892 63.5033 30.7918 63.4923C30.8052 63.4317 30.8322 63.3676 30.8726 63.3002C35.5428 55.4441 42.5754 49.0776 51.1708 45.8387L51.9145 45.5972C57.3935 43.8109 63.2994 43.5772 68.9289 44.7209Z" fill="#E10600"/>
<path d="M52.5982 51.494C52.4245 51.5255 52.2803 51.5596 52.1657 51.5963C43.8546 54.2105 36.5669 59.904 30.9407 66.4795C30.9228 66.5012 30.9119 66.4982 30.9082 66.4705C30.9067 66.4608 30.9055 66.451 30.9048 66.4413C30.9048 66.4345 30.9067 66.4282 30.9104 66.4222C37.2275 57.1382 47.9731 48.8012 59.7231 48.772C69.6441 48.7472 78.945 52.977 85.7844 60.0287C86.4532 60.7185 87.0711 61.4371 87.6381 62.1846C87.6808 62.2415 87.6767 62.2449 87.6257 62.1947C82.804 57.5134 76.8745 53.9128 70.4226 51.9704C65.1571 50.3852 59.3759 49.9066 53.9756 51.1211C53.9344 51.13 53.9179 51.1555 53.9262 51.1974L54.7687 55.6496C54.7777 55.696 54.8054 55.7155 54.8519 55.708C57.4485 55.2886 59.8399 55.1178 62.0261 55.1957C65.5814 55.3223 68.6525 55.5275 71.2394 55.8114C78.3788 56.5933 85.0845 60.8432 89.958 66.0324C89.9631 66.0373 89.9664 66.044 89.9671 66.0511C89.9679 66.0582 89.9661 66.0654 89.962 66.0713C89.958 66.0773 89.952 66.0816 89.9451 66.0835C89.9382 66.0854 89.9308 66.0848 89.9243 66.0818C86.7528 64.7134 83.2354 64.1023 79.8089 63.7945C75.8889 63.4432 71.9617 63.323 68.0275 63.4339C64.3954 63.535 60.7656 63.6878 57.5402 64.0012C56.6872 64.0843 55.9738 63.8881 55.4001 63.4125C54.8799 62.98 54.5789 62.2093 54.1261 61.6521C52.6454 59.8265 50.1413 58.4593 47.7462 58.7817C45.87 59.0345 44.1849 60.3748 42.9952 61.8363C42.4379 62.5205 41.1505 62.589 40.3371 62.916C37.0084 64.2562 33.8167 66.6896 31.1463 69.0061C31.1366 69.0143 31.1269 69.0162 31.1171 69.0117C31.1141 69.0095 31.1115 69.0076 31.1093 69.0061C31.1083 69.0051 31.1075 69.004 31.1069 69.0027C31.1064 69.0015 31.1061 69.0001 31.1061 68.9988C31.1061 68.9974 31.1064 68.9961 31.1069 68.9948C31.1075 68.9936 31.1083 68.9924 31.1093 68.9915C37.3072 62.2464 44.7252 57.683 53.7857 55.8934C53.8187 55.8866 53.8307 55.8672 53.8217 55.835L52.6735 51.5412C52.663 51.5023 52.6379 51.4865 52.5982 51.494Z" fill="#289F00"/>
<path d="M45.8594 63.5215C43.5957 64.3899 43.9485 70.6621 44.1496 72.3764C44.2237 73.0089 44.3754 73.8886 44.0462 74.0807C43.9818 74.1189 43.8684 74.1488 43.7058 74.1705C39.0518 74.7952 34.8427 76.5043 31.0785 79.2979C31.0725 79.3159 31.0616 79.3237 31.0459 79.3215C31.0256 79.3185 31.0234 79.3102 31.0391 79.2968C34.2409 76.5841 37.8651 74.6731 41.9117 73.5639C42.5105 73.3999 42.8812 73.4718 42.7857 72.6112C42.5498 70.5059 42.5936 68.0321 43.0722 65.7639C43.6103 63.2081 45.0596 61.3196 47.8187 61.0938C48.7654 61.0159 49.5945 61.2174 50.306 61.6982C52.0361 62.8677 52.4461 64.5079 52.9112 66.5233C53.1052 67.3622 53.4186 68.5575 53.8515 70.1093C54.3481 71.8866 55.2996 72.6045 57.0825 72.9482C59.1272 73.3448 61.2842 73.3179 63.3355 73.0067C64.9477 72.7618 66.8845 72.172 68.4663 71.8338C72.2627 71.0227 76.185 70.5456 80.2331 70.4026C81.9931 70.3404 83.6809 70.4232 85.2964 70.6508C85.8738 70.7328 86.6569 70.9283 87.0725 71.2069C87.8926 71.7552 87.2321 73.2212 86.8377 73.9661C86.7621 74.1091 86.7209 74.2608 86.7142 74.4211C86.6737 75.4554 86.5426 76.3867 86.321 77.215C85.6244 79.8192 82.9327 80.7842 80.5128 80.9437C77.1953 81.1617 75.1821 78.698 74.6361 75.7029C74.6323 75.6831 74.6216 75.6654 74.6059 75.653C74.5902 75.6406 74.5706 75.6344 74.5508 75.6355C71.0314 75.8557 67.5286 76.0339 64.0422 76.1703C60.7887 76.2983 57.5139 76.113 54.3548 75.2704C54.3488 75.2687 54.3424 75.2685 54.3364 75.27C54.3303 75.2715 54.3247 75.2746 54.3201 75.2789C54.3156 75.2832 54.3123 75.2886 54.3105 75.2946C54.3087 75.3006 54.3085 75.307 54.3099 75.3131C54.7986 77.6577 53.5651 79.6529 51.426 80.5651C49.7645 81.274 46.2863 81.2088 45.0348 79.6742C44.5843 79.1204 44.4495 78.2868 45.2876 78.0239C45.6052 77.9236 45.7655 77.873 45.7684 77.8722C49.3365 76.2792 48.7332 68.6511 47.9535 65.7302C47.7311 64.8955 47.0222 63.0755 45.8594 63.5215Z" fill="#7AC53F"/>
<path d="M27.6945 76.6443C26.9507 78.3148 25.7296 78.0216 24.9477 76.6296C23.4434 73.9525 23.4097 70.1497 24.7016 67.3861C25.042 66.6569 25.9846 65.2234 26.9844 65.7975C27.5405 66.1166 28.0214 67.2389 28.1629 67.8613C28.7819 70.5867 28.8527 74.0413 27.6945 76.6443Z" fill="#DFFFC7"/>
<path d="M31.8711 73.0954C34.658 70.1437 37.9927 67.9107 41.8753 66.3963C41.9644 66.3611 42.0052 66.3911 41.9977 66.4862L41.8753 68.1377C41.8723 68.1751 41.8528 68.1983 41.8168 68.2073C37.9017 69.2229 34.2202 71.2642 31.1993 73.9143C31.0892 74.0102 31.0802 74.0016 31.1723 73.8885C31.376 73.6369 31.609 73.3725 31.8711 73.0954Z" fill="#E10600"/>
</svg>
