<svg width="100" height="100" viewBox="0 0 100 100" fill="none" xmlns="http://www.w3.org/2000/svg">
<rect width="100" height="100" fill="#161E41"/>
<path d="M53.4434 91.2315L46.046 91.2308C46.0361 91.2308 46.0266 91.2268 46.0197 91.2199C46.0127 91.2129 46.0088 91.2034 46.0088 91.1936L46.0132 4.48824C46.0133 4.48288 46.0149 4.47767 46.0179 4.47323C46.0209 4.46879 46.0251 4.46532 46.0301 4.46324C46.035 4.46115 46.0405 4.46055 46.0457 4.46149C46.051 4.46244 46.0559 4.46489 46.0598 4.46856L53.4529 11.6584C53.4699 11.6749 53.4784 11.6948 53.4784 11.7181C53.5003 32.3202 53.5056 52.9218 53.4945 73.523C53.4945 73.5264 53.4962 73.5375 53.4996 73.5565C53.502 73.5706 53.4983 73.5827 53.4886 73.5929C53.4859 73.5957 53.4837 73.599 53.4821 73.6026C53.4806 73.6063 53.4799 73.6101 53.4799 73.6141V91.1943C53.4799 91.2042 53.476 91.2136 53.4692 91.2206C53.4624 91.2276 53.4531 91.2315 53.4434 91.2315Z" fill="#F2E10F"/>
<path d="M62.7912 81.1559C62.7912 81.1597 62.7922 81.1635 62.7941 81.1669C62.796 81.1702 62.7988 81.173 62.802 81.1749C62.8052 81.1768 62.8088 81.1777 62.8125 81.1775C62.8161 81.1774 62.8196 81.1762 62.8225 81.1741C68.3027 77.2236 72.0047 71.9001 73.0293 65.1373C73.9402 59.1179 72.4223 53.1211 68.9775 48.1379C68.7797 47.8517 68.7948 47.8403 69.0227 48.1036C74.0022 53.8607 76.7823 60.9201 75.6717 68.6222C75.1995 71.9001 74.1027 75.2312 72.4718 78.1782C68.8266 84.7675 62.6476 88.8682 55.495 90.7629C55.4915 90.7638 55.4879 90.7639 55.4844 90.7632C55.4809 90.7625 55.4777 90.7609 55.4749 90.7588C55.472 90.7566 55.4698 90.7538 55.4682 90.7506C55.4666 90.7474 55.4658 90.7439 55.4658 90.7403V17.5168C55.4658 17.4415 55.4928 17.43 55.5467 17.4825L62.762 24.5579C62.7785 24.5739 62.7868 24.5936 62.7868 24.6169L62.7912 81.1559Z" fill="#213997"/>
<path d="M36.6729 30.151L43.9071 22.8483C43.9368 22.8182 43.9516 22.8257 43.9516 22.8709V90.7396C43.9516 90.7439 43.9507 90.7481 43.9488 90.752C43.9469 90.7558 43.9442 90.7592 43.9408 90.7618C43.9374 90.7644 43.9335 90.7662 43.9293 90.767C43.9251 90.7679 43.9207 90.7677 43.9166 90.7666C40.1104 89.7412 36.439 88.0731 33.3003 85.6304C27.7115 81.2798 24.4373 74.7123 23.6364 67.7433C22.7969 60.4369 25.6222 53.7121 30.2818 48.2305C30.3306 48.1722 30.4028 48.0534 30.4844 47.9994C30.5373 47.9645 30.5461 47.9732 30.5106 48.0257C27.1562 52.9134 25.5435 58.6537 26.2992 64.5777C27.1868 71.5372 30.9566 77.1398 36.5781 81.1508C36.5956 81.1629 36.6044 81.1583 36.6044 81.1369L36.6313 30.2523C36.6314 30.2145 36.6463 30.1781 36.6729 30.151Z" fill="#213997"/>
<path d="M37.5622 90.1151C33.5563 88.4302 29.8688 86.0931 26.7993 83.0127C22.0137 78.2103 19.4164 71.9373 18.8502 65.2015C18.5368 61.4703 18.73 57.7093 19.7619 54.0349C21.1552 49.0751 23.5958 44.6888 27.0836 40.876C29.0898 38.6825 31.483 36.76 34.1881 35.5233C34.2415 35.4986 34.268 35.5156 34.2675 35.5744L34.2238 42.5295C34.2233 42.5567 34.2126 42.5786 34.1917 42.5951C33.5694 43.0877 32.9548 43.5898 32.348 44.1014C25.2719 50.0633 21.2587 58.2828 22.1806 67.6566C22.7439 73.3824 24.6517 78.7744 28.5418 83.0463C31.0457 85.7951 34.3062 88.0899 37.5301 90.0335C37.5636 90.0534 37.5826 90.0735 37.587 90.094C37.5923 90.1178 37.584 90.1248 37.5622 90.1151Z" fill="#F2E10F"/>
<path d="M65.25 42.6183C65.2112 42.5882 65.1917 42.5483 65.1917 42.4988L65.14 35.5363C65.1401 35.5305 65.1416 35.5248 65.1444 35.5197C65.1473 35.5147 65.1514 35.5104 65.1563 35.5072C65.1612 35.5041 65.1668 35.5023 65.1726 35.5019C65.1784 35.5015 65.1843 35.5026 65.1896 35.505C68.4463 37.0055 71.2432 39.4432 73.5023 42.2051C77.6715 47.3027 80.3205 53.6464 80.6492 60.2364C80.7915 63.0819 80.6006 65.9 80.0764 68.6906C78.1947 78.7152 71.2709 86.2417 61.9831 90.0428C61.78 90.1259 61.7722 90.1106 61.9598 89.9969C64.4936 88.46 66.9866 86.7161 69.2071 84.7048C72.3781 81.8321 74.6103 78.3414 75.9036 74.2327C76.693 71.7239 77.166 69.147 77.3224 66.5022C77.7181 59.789 75.4721 53.4059 71.2381 48.293C69.4622 46.1491 67.4355 44.3316 65.25 42.6183Z" fill="#F2E10F"/>
</svg>
