<svg width="100" height="100" viewBox="0 0 100 100" fill="none" xmlns="http://www.w3.org/2000/svg">
<rect width="100" height="100" fill="white"/>
<path d="M66.0352 17.7853C78.3927 21.3078 87.7027 31.2228 91.1752 43.4953C94.5402 55.3903 91.9627 67.9303 84.7427 77.8678C84.7371 77.8779 84.728 77.8856 84.7171 77.8895C84.7062 77.8934 84.6942 77.8931 84.6835 77.8889C84.6728 77.8846 84.664 77.8765 84.6588 77.8662C84.6536 77.8559 84.6523 77.844 84.6552 77.8328C87.6102 55.0928 75.9602 35.2978 55.3502 25.8528C55.3342 25.8459 55.3202 25.8349 55.3096 25.821C55.299 25.8072 55.2921 25.7908 55.2896 25.7735C55.2871 25.7563 55.2891 25.7386 55.2953 25.7223C55.3015 25.706 55.3118 25.6915 55.3252 25.6803C58.6768 22.8703 62.1702 20.2512 65.8052 17.8228C65.8768 17.7745 65.9535 17.762 66.0352 17.7853Z" fill="#1E3D91"/>
<path d="M41.9549 40.5478C41.9392 40.5425 41.925 40.5335 41.9134 40.5216C41.9019 40.5097 41.8933 40.4952 41.8884 40.4793C41.8836 40.4635 41.8825 40.4467 41.8854 40.4303C41.8882 40.414 41.8949 40.3986 41.9049 40.3853C45.0132 36.0953 48.5124 32.1528 52.4024 28.5578C52.4724 28.4928 52.5524 28.4787 52.6424 28.5153C66.0749 34.2028 76.9224 44.6303 81.0324 58.8078C83.2007 66.2895 83.5316 73.937 82.0249 81.7503C81.9832 81.9703 81.9124 82.1287 81.8124 82.2253C77.639 86.212 72.8332 89.2428 67.3949 91.3178C67.3781 91.3241 67.3599 91.3257 67.3422 91.3225C67.3246 91.3192 67.3081 91.3113 67.2946 91.2996C67.281 91.2878 67.2709 91.2726 67.2652 91.2556C67.2596 91.2386 67.2586 91.2204 67.2624 91.2028C69.7799 80.4503 70.2724 66.4578 63.4974 56.9628C58.1449 49.4653 50.6499 43.6553 41.9549 40.5478Z" fill="#007BC4"/>
<path d="M48.8024 68.0378C45.2649 62.1728 39.3974 59.1153 32.7624 57.9428C32.659 57.9245 32.6207 57.8645 32.6474 57.7628C33.9524 52.5712 36.0907 47.752 39.0624 43.3053C39.1124 43.2303 39.1799 43.2078 39.2649 43.2378C47.7515 46.1745 54.7999 51.1328 60.4099 58.1128C67.3874 66.7928 66.9799 81.1503 64.5824 91.2578C64.5749 91.2894 64.5587 91.3184 64.5353 91.3418C64.512 91.3651 64.4824 91.3819 64.4499 91.3903C62.5782 91.8487 60.6857 92.2145 58.7724 92.4878C56.8074 92.7678 54.7149 92.6828 52.6649 92.7053C52.5765 92.7053 52.5357 92.6612 52.5424 92.5728C53.0574 84.6378 53.0474 75.0753 48.8024 68.0378Z" fill="#E25A10"/>
<path d="M49.6874 92.6878C30.9998 93.0078 31.1698 75.2678 31.0898 62.0553C31.0897 62.0433 31.0922 62.0313 31.0972 62.0203C31.1022 62.0093 31.1095 61.9994 31.1188 61.9914C31.128 61.9833 31.1389 61.9773 31.1507 61.9737C31.1625 61.97 31.175 61.9689 31.1873 61.9703C38.1298 62.9903 46.3949 65.7778 48.5324 73.3703C49.2857 76.0437 49.6999 78.832 49.7749 81.7353C49.8699 85.3453 49.8807 88.957 49.8074 92.5703C49.8057 92.647 49.7657 92.6862 49.6874 92.6878Z" fill="#DC0E16"/>
<path d="M50.0477 25.3728C50.066 24.9812 49.761 24.7995 49.1327 24.8278C48.7294 24.8462 48.5219 24.8553 48.5102 24.8553C39.0202 24.8387 29.5302 24.8412 20.0402 24.8628C19.6052 24.8645 19.1385 25.0578 18.6402 25.4428C25.2477 17.7053 34.1302 10.5903 43.7077 7.26531C44.2077 7.09198 44.7344 7.00448 45.2877 7.00281C54.2677 6.99781 63.6419 6.99948 73.4102 7.00781C73.7635 7.00781 73.7969 7.11115 73.5102 7.31781C65.4627 13.1153 57.5677 18.9078 50.0477 25.3728Z" fill="url(#paint0_linear_105_1813)"/>
<path d="M50.0477 25.3728C46.976 28.0762 44.1719 30.7387 41.6352 33.3603C38.8469 36.2403 36.3235 39.2778 34.0652 42.4728C32.7485 42.3928 31.4577 42.3537 30.1927 42.3553C27.2427 42.3603 24.8952 42.3078 21.9002 42.3153C17.4735 42.3253 13.0585 42.3778 8.6552 42.4728C9.4052 40.1778 10.401 37.8728 11.6427 35.5578C13.5977 31.9111 15.9302 28.5395 18.6402 25.4428C19.1385 25.0578 19.6052 24.8645 20.0402 24.8628C29.5302 24.8412 39.0202 24.8387 48.5102 24.8553C48.5219 24.8553 48.7294 24.8462 49.1327 24.8278C49.761 24.7995 50.066 24.9812 50.0477 25.3728Z" fill="url(#paint1_linear_105_1813)"/>
<path d="M34.0652 42.4728C31.1652 46.7578 28.9853 51.0903 28.2903 56.1878C28.1036 57.5595 27.9619 58.9353 27.8652 60.3153L27.8302 59.8803C27.83 59.8641 27.824 59.8484 27.8132 59.8363C27.8025 59.8241 27.7877 59.8162 27.7715 59.8141C27.7554 59.812 27.7391 59.8157 27.7255 59.8247C27.712 59.8336 27.7021 59.8472 27.6977 59.8628C27.6594 59.9745 27.6169 60.0045 27.5702 59.9528C27.5202 59.8978 27.4585 59.8712 27.3852 59.8728C21.5602 59.8903 15.7052 59.7628 9.8877 59.9053C9.1427 59.9237 8.41603 59.8853 7.7077 59.7903C6.51436 53.977 6.8302 48.2045 8.6552 42.4728C13.0585 42.3778 17.4735 42.3253 21.9002 42.3153C24.8952 42.3078 27.2427 42.3603 30.1927 42.3553C31.4577 42.3537 32.7485 42.3928 34.0652 42.4728Z" fill="url(#paint2_linear_105_1813)"/>
<path d="M27.8652 60.3153C27.7202 62.8787 27.7369 65.4387 27.9152 67.9953C27.8519 68.0653 27.7927 68.0562 27.7377 67.9678C27.7027 67.9112 27.6835 67.9162 27.6802 67.9828C27.6735 68.1845 27.581 68.2887 27.4027 68.2953C25.2794 68.3737 22.9744 68.3337 20.4877 68.1753C19.9777 68.1428 19.4952 68.2803 18.9627 68.2828C16.276 68.2928 13.5885 68.2895 10.9002 68.2728C10.7669 68.2712 10.6777 68.2312 10.6327 68.1528C10.6311 68.1504 10.6286 68.1486 10.6258 68.1478C10.623 68.147 10.6199 68.1472 10.6173 68.1484C10.6146 68.1496 10.6124 68.1517 10.6111 68.1543C10.6098 68.157 10.6095 68.16 10.6102 68.1628C10.6969 68.4095 10.6602 68.5653 10.5002 68.6303C9.1902 65.7637 8.25936 62.817 7.7077 59.7903C8.41603 59.8853 9.1427 59.9237 9.8877 59.9053C15.7052 59.7628 21.5602 59.8903 27.3852 59.8728C27.4585 59.8712 27.5202 59.8978 27.5702 59.9528C27.6169 60.0045 27.6594 59.9745 27.6977 59.8628C27.7021 59.8472 27.712 59.8336 27.7255 59.8247C27.7391 59.8157 27.7554 59.812 27.7715 59.8141C27.7877 59.8162 27.8025 59.8241 27.8132 59.8363C27.824 59.8484 27.83 59.8641 27.8302 59.8803L27.8652 60.3153Z" fill="url(#paint3_linear_105_1813)"/>
<path d="M27.9152 67.9953C28.4677 75.6878 30.9777 87.3353 37.1927 92.6153C37.1982 92.6205 37.2019 92.6272 37.2032 92.6347C37.2045 92.6421 37.2034 92.6497 37.2 92.6565C37.1967 92.6632 37.1912 92.6687 37.1845 92.6721C37.1778 92.6755 37.1701 92.6766 37.1627 92.6753C25.7727 89.7128 15.2552 79.1003 10.5002 68.6303C10.6602 68.5653 10.6969 68.4095 10.6102 68.1628C10.6095 68.16 10.6098 68.157 10.6111 68.1543C10.6124 68.1517 10.6146 68.1496 10.6173 68.1484C10.6199 68.1472 10.623 68.147 10.6258 68.1478C10.6286 68.1486 10.6311 68.1504 10.6327 68.1528C10.6777 68.2312 10.7669 68.2712 10.9002 68.2728C13.5885 68.2895 16.276 68.2928 18.9627 68.2828C19.4952 68.2803 19.9777 68.1428 20.4877 68.1753C22.9744 68.3337 25.2794 68.3737 27.4027 68.2953C27.581 68.2887 27.6735 68.1845 27.6802 67.9828C27.6835 67.9162 27.7027 67.9112 27.7377 67.9678C27.7927 68.0562 27.8519 68.0653 27.9152 67.9953Z" fill="url(#paint4_linear_105_1813)"/>
<defs>
<linearGradient id="paint0_linear_105_1813" x1="40.3514" y1="7" x2="40.3514" y2="92.6758" gradientUnits="userSpaceOnUse">
<stop stop-color="#FBC900"/>
<stop offset="1" stop-color="#BF7E00"/>
</linearGradient>
<linearGradient id="paint1_linear_105_1813" x1="40.3514" y1="7" x2="40.3514" y2="92.6758" gradientUnits="userSpaceOnUse">
<stop stop-color="#FBC900"/>
<stop offset="1" stop-color="#BF7E00"/>
</linearGradient>
<linearGradient id="paint2_linear_105_1813" x1="40.3514" y1="7" x2="40.3514" y2="92.6758" gradientUnits="userSpaceOnUse">
<stop stop-color="#FBC900"/>
<stop offset="1" stop-color="#BF7E00"/>
</linearGradient>
<linearGradient id="paint3_linear_105_1813" x1="40.3514" y1="7" x2="40.3514" y2="92.6758" gradientUnits="userSpaceOnUse">
<stop stop-color="#FBC900"/>
<stop offset="1" stop-color="#BF7E00"/>
</linearGradient>
<linearGradient id="paint4_linear_105_1813" x1="40.3514" y1="7" x2="40.3514" y2="92.6758" gradientUnits="userSpaceOnUse">
<stop stop-color="#FBC900"/>
<stop offset="1" stop-color="#BF7E00"/>
</linearGradient>
</defs>
</svg>
