<svg width="100" height="100" viewBox="0 0 100 100" fill="none" xmlns="http://www.w3.org/2000/svg">
<rect width="100" height="100" fill="#595C62"/>
<path d="M16.9873 52.4102L20.3623 52.082C20.5655 53.2148 20.9756 54.0469 21.5928 54.5781C22.2178 55.1094 23.0577 55.375 24.1123 55.375C25.2295 55.375 26.0694 55.1406 26.6319 54.6719C27.2022 54.1953 27.4873 53.6406 27.4873 53.0078C27.4873 52.6016 27.3662 52.2578 27.1241 51.9766C26.8897 51.6875 26.4756 51.4375 25.8819 51.2266C25.4756 51.0859 24.5498 50.8359 23.1045 50.4766C21.2452 50.0156 19.9405 49.4492 19.1905 48.7773C18.1358 47.832 17.6084 46.6797 17.6084 45.3203C17.6084 44.4453 17.8545 43.6289 18.3467 42.8711C18.8467 42.1055 19.5616 41.5234 20.4912 41.125C21.4287 40.7266 22.5577 40.5273 23.878 40.5273C26.0342 40.5273 27.6553 41 28.7412 41.9453C29.835 42.8906 30.4092 44.1523 30.4639 45.7305L26.9952 45.8828C26.8467 45 26.5264 44.3672 26.0342 43.9844C25.5498 43.5938 24.8194 43.3984 23.8428 43.3984C22.835 43.3984 22.0459 43.6055 21.4756 44.0195C21.1084 44.2852 20.9248 44.6406 20.9248 45.0859C20.9248 45.4922 21.0967 45.8398 21.4405 46.1289C21.878 46.4961 22.9405 46.8789 24.628 47.2773C26.3155 47.6758 27.5616 48.0898 28.3662 48.5195C29.1787 48.9414 29.8116 49.5234 30.2647 50.2656C30.7256 51 30.9561 51.9102 30.9561 52.9961C30.9561 53.9805 30.6827 54.9023 30.1358 55.7617C29.5889 56.6211 28.8155 57.2617 27.8155 57.6836C26.8155 58.0977 25.5694 58.3047 24.0772 58.3047C21.9053 58.3047 20.2373 57.8047 19.0733 56.8047C17.9092 55.7969 17.2139 54.332 16.9873 52.4102ZM34.1872 58V40.8203H39.3786L42.4958 52.5391L45.5778 40.8203H50.7809V58H47.5583V44.4766L44.1481 58H40.8083L37.4098 44.4766V58H34.1872ZM54.5863 58V40.8203H60.1527C62.262 40.8203 63.637 40.9062 64.2777 41.0781C65.262 41.3359 66.0863 41.8984 66.7503 42.7656C67.4144 43.625 67.7464 44.7383 67.7464 46.1055C67.7464 47.1602 67.555 48.0469 67.1722 48.7656C66.7894 49.4844 66.3011 50.0508 65.7073 50.4648C65.1214 50.8711 64.5238 51.1406 63.9144 51.2734C63.0863 51.4375 61.887 51.5195 60.3167 51.5195H58.055V58H54.5863ZM58.055 43.7266V48.6016H59.9534C61.3206 48.6016 62.2347 48.5117 62.6956 48.332C63.1566 48.1523 63.5159 47.8711 63.7738 47.4883C64.0394 47.1055 64.1722 46.6602 64.1722 46.1523C64.1722 45.5273 63.9886 45.0117 63.6214 44.6055C63.2542 44.1992 62.7894 43.9453 62.2269 43.8438C61.8128 43.7656 60.9808 43.7266 59.7308 43.7266H58.055ZM71.0478 58V40.9609H74.5166V55.1055H83.1416V58H71.0478Z" fill="#F8F8F8"/>
</svg>
