<svg width="100" height="100" viewBox="0 0 100 100" fill="none" xmlns="http://www.w3.org/2000/svg">
<rect width="100" height="100" fill="#016426"/>
<path d="M53.8352 7H56.2952C55.5685 8.05333 54.7219 9.05333 53.7552 10C46.5752 16.97 45.1852 28.91 47.9752 38.02C53.0452 54.53 73.5152 69.11 67.0052 87.25C66.9665 87.3617 66.9029 87.4631 66.8193 87.5466C66.7357 87.6301 66.6342 87.6935 66.5225 87.732C66.4107 87.7706 66.2917 87.7832 66.1744 87.769C66.0571 87.7548 65.9445 87.7141 65.8452 87.65C63.8719 86.3767 62.2619 84.75 61.0152 82.77C60.8206 82.4711 60.726 82.1174 60.7452 81.76C61.4752 69.4 52.4452 57.94 45.9452 48.31C37.5752 35.88 36.1052 20.61 47.2452 9.26C48.3719 8.10667 50.5685 7.35333 53.8352 7Z" fill="#FAA61A"/>
<path d="M52.2155 14.45C55.4822 8.56999 60.4855 6.22332 67.2255 7.40999C67.2848 7.42151 67.3393 7.45066 67.3817 7.49363C67.4242 7.5366 67.4527 7.59139 67.4635 7.65082C67.4743 7.71025 67.4669 7.77156 67.4423 7.82672C67.4177 7.88189 67.377 7.92833 67.3255 7.95999C56.6855 14.44 54.5455 27.81 58.6155 38.81C62.6155 49.59 86.6655 78.3 76.4355 88.32C74.1555 90.54 71.3455 90.35 68.7555 88.96C68.4422 88.7933 68.3455 88.5433 68.4655 88.21C78.1655 60.19 35.1255 45.19 52.2155 14.45Z" fill="#F36F21"/>
<path d="M74.2352 10.66C76.8085 13.72 78.0552 17.42 77.9752 21.76C77.9685 22.0867 77.8018 22.25 77.4752 22.25H59.7252C59.1985 22.25 59.0052 21.9967 59.1452 21.49C60.3252 17.25 67.9752 3.24 74.2352 10.66Z" fill="#F36F21"/>
<path d="M45.2653 9.06002C39.1253 16.75 35.9753 24.67 38.0953 34.19C41.7553 50.62 55.7653 60.59 59.0653 77.57C59.0816 77.6527 59.0793 77.7379 59.0587 77.8196C59.0381 77.9013 58.9996 77.9773 58.946 78.0424C58.8925 78.1074 58.8252 78.1598 58.749 78.1957C58.6728 78.2316 58.5896 78.2501 58.5053 78.25H52.0353C51.7287 78.25 51.5453 78.1034 51.4853 77.81C48.2153 62.02 36.9853 52.44 32.0653 39.21C27.6953 27.44 30.6853 11.31 45.0053 8.63002C45.4853 8.53669 45.572 8.68002 45.2653 9.06002Z" fill="#FFDD00"/>
<path d="M38.7955 91.6901C31.5255 90.7701 23.3355 87.3501 21.0455 80.2801C20.9121 79.8534 21.0721 79.6334 21.5255 79.6201L29.3655 79.4601C29.5286 79.4573 29.6881 79.51 29.8186 79.6097C29.9491 79.7093 30.043 79.8503 30.0855 80.0101C31.4255 85.0234 34.4121 88.6234 39.0455 90.8101C40.8188 91.6367 40.7355 91.9301 38.7955 91.6901Z" fill="#FFDD00"/>
<path d="M53.1856 91.5C44.8456 92.81 34.5356 89.22 31.9156 80.38C31.7689 79.88 31.9556 79.6267 32.4756 79.62L43.2156 79.45C43.3865 79.4464 43.5539 79.5004 43.6915 79.6036C43.8291 79.7068 43.929 79.8533 43.9756 80.02C45.3689 85.1667 48.4589 88.8333 53.2456 91.02C53.7589 91.2533 53.7389 91.4133 53.1856 91.5Z" fill="#FAA61A"/>
<path d="M66.6855 92H63.2255C55.2055 91.18 48.2455 88.47 45.6455 80.19C45.5322 79.83 45.6622 79.6466 46.0355 79.64L56.4855 79.47C56.6958 79.467 56.9028 79.527 57.0806 79.6426C57.2584 79.7582 57.3993 79.9242 57.4855 80.12C59.8922 85.6266 63.9755 89.24 69.7355 90.96C69.8061 90.9828 69.867 91.0287 69.9083 91.0903C69.9496 91.152 69.9689 91.2257 69.9631 91.2997C69.9573 91.3737 69.9268 91.4435 69.8764 91.498C69.8261 91.5525 69.7588 91.5884 69.6855 91.6L66.6855 92Z" fill="#F36F21"/>
</svg>
