<svg width="100" height="100" viewBox="0 0 100 100" fill="none" xmlns="http://www.w3.org/2000/svg">
<rect width="100" height="100" fill="white"/>
<path d="M38.3031 47.4318C28.9258 38.7963 15.2233 35.5703 3.0538 39.7008C3.04466 39.7031 3.03485 39.7024 3.026 39.6987C3.01715 39.695 3.00981 39.6886 3.0052 39.6805C3.00058 39.6725 2.99897 39.6632 3.00064 39.6543C3.00231 39.6455 3.00716 39.6375 3.01437 39.6318C7.30747 36.2185 13.7373 34.3356 19.0137 34.0522C24.0831 33.7811 29.1673 34.5969 34.1579 35.7749C38.5224 36.8026 42.5666 38.434 46.3225 40.9207C46.49 41.0341 46.4942 41.1532 46.3348 41.278L38.5052 47.4392C38.4362 47.4934 38.3688 47.491 38.3031 47.4318Z" fill="#737143"/>
<path d="M9.39718 58.7931C11.1346 59.5695 13.6952 60.2201 15.5534 59.5916C16.3864 59.3082 16.9138 58.6847 16.5491 57.8221C16.2139 57.036 14.5775 56.5653 13.8184 56.3854C10.6196 55.6288 6.54086 54.956 4.94389 51.8581C3.47753 49.0092 4.56436 45.4259 7.07565 43.5455C11.2381 40.4255 18.2939 41.7908 22.3209 44.7432C22.3964 44.7991 22.4071 44.8656 22.3529 44.9428L19.3117 49.2039C19.29 49.2338 19.2574 49.2539 19.221 49.2598C19.1845 49.2658 19.1472 49.2573 19.117 49.2359C17.4642 48.0448 15.6331 47.326 13.6237 47.0795C12.7365 46.9711 11.1371 47.0968 10.8069 48.1195C10.3164 49.6327 12.4038 50.17 13.4389 50.4312C16.9089 51.2987 22.3677 52.2229 22.9197 56.6712C23.5383 61.6741 20.0683 64.5329 15.514 65.0036C11.4304 65.425 6.49404 64.3481 3.41345 61.4104C3.3843 61.383 3.3668 61.3453 3.36451 61.3051C3.36223 61.2648 3.37532 61.2249 3.40113 61.1935L6.66655 57.2455C6.72241 57.1765 6.78731 57.1666 6.86125 57.2159C7.69916 57.7655 8.55434 58.4161 9.39718 58.7931Z" fill="#0B3343"/>
<path d="M96.9671 55.2738C96.9351 61.3906 93.0215 64.6067 87.1364 64.8285C80.2876 65.0898 76.2114 61.6099 76.2188 54.601C76.222 50.5133 76.2278 46.4452 76.236 42.3969C76.2367 42.349 76.2562 42.3033 76.2903 42.2696C76.3244 42.2359 76.3704 42.217 76.4184 42.217H82.2518C82.4719 42.217 82.582 42.3279 82.582 42.5497C82.5689 46.4436 82.5845 50.3991 82.6288 54.4162C82.6535 56.6465 83.2252 58.7241 85.6897 59.1751C87.7328 59.5497 89.7216 58.761 90.3919 56.7057C90.548 56.2325 90.6285 55.4438 90.6334 54.3398C90.6564 50.3358 90.6589 46.3409 90.6408 42.3551C90.6408 42.263 90.6868 42.217 90.7788 42.217H96.8045C96.8561 42.217 96.9056 42.2376 96.9421 42.2741C96.9786 42.3106 96.9991 42.3601 96.9991 42.4117C97.0024 46.7574 96.9918 51.0448 96.9671 55.2738Z" fill="#737143"/>
<path fill-rule="evenodd" clip-rule="evenodd" d="M58.8544 64.582L58.9381 58.0413C58.9398 57.9657 58.9776 57.9279 59.0515 57.9279H61.479C61.5464 57.9279 61.5981 57.9558 61.6343 58.0117L66.021 64.5943C66.0414 64.6253 66.0692 64.6508 66.1019 64.6685C66.1346 64.6861 66.1712 64.6953 66.2083 64.6954L73.2592 64.7249C73.2727 64.7251 73.286 64.7215 73.2976 64.7146C73.3093 64.7076 73.3188 64.6977 73.3251 64.6857C73.3315 64.6738 73.3344 64.6603 73.3337 64.6468C73.3329 64.6333 73.3284 64.6202 73.3208 64.6091L68.1331 57.0259C68.0608 56.9191 68.0838 56.8386 68.2021 56.7844C71.3172 55.3369 72.7926 52.8684 72.6283 49.3787C72.4065 44.642 68.3549 42.2021 63.9657 42.1898C60.2197 42.1767 56.4597 42.1947 52.6858 42.244C52.5806 42.2457 52.5281 42.2991 52.5281 42.4042L52.5034 64.5845C52.5034 64.6732 52.5478 64.7175 52.6365 64.7175L58.7336 64.7003C58.8141 64.7003 58.8544 64.6608 58.8544 64.582ZM58.9767 47.6845C58.9443 47.7168 58.9261 47.7607 58.9261 47.8064L58.9064 52.8142C58.9064 52.86 58.9246 52.9039 58.9569 52.9362C58.9893 52.9686 59.0332 52.9868 59.0789 52.9868L63.2636 53.0015C63.6638 53.0031 64.0603 52.939 64.4305 52.8129C64.8007 52.6869 65.1373 52.5014 65.4211 52.2671C65.7049 52.0327 65.9303 51.7541 66.0845 51.4471C66.2386 51.1401 66.3185 50.8108 66.3195 50.4779V50.1921C66.3216 49.5204 66.003 48.8752 65.4336 48.3983C64.8643 47.9214 64.0908 47.6518 63.2833 47.6487L59.0986 47.6339C59.0529 47.6339 59.009 47.6521 58.9767 47.6845Z" fill="#0B3343"/>
<path d="M36.8418 58.7832L46.4138 50.9561C46.4254 50.9468 46.4394 50.941 46.4542 50.9393C46.469 50.9376 46.4839 50.9401 46.4973 50.9466C46.5107 50.953 46.522 50.9631 46.5299 50.9757C46.5378 50.9883 46.542 51.0028 46.542 51.0177L46.5346 64.9962C46.5346 65.0171 46.5263 65.0371 46.5115 65.0519C46.4967 65.0667 46.4766 65.075 46.4557 65.075H27.6814C27.6605 65.075 27.6404 65.0667 27.6256 65.0519C27.6108 65.0371 27.6025 65.0171 27.6025 64.9962L27.6149 50.9536C27.6149 50.9385 27.6193 50.9238 27.6275 50.9111C27.6358 50.8984 27.6474 50.8884 27.6612 50.8821C27.6749 50.8759 27.6902 50.8738 27.7051 50.876C27.7201 50.8781 27.7341 50.8846 27.7455 50.8945L36.7408 58.7808C36.7547 58.793 36.7724 58.7999 36.7909 58.8003C36.8093 58.8008 36.8274 58.7947 36.8418 58.7832Z" fill="#527182"/>
</svg>
