<svg width="100" height="100" viewBox="0 0 100 100" fill="none" xmlns="http://www.w3.org/2000/svg">
<rect width="100" height="100" fill="#D7332D"/>
<path d="M63.3853 37.9216C63.394 37.9577 63.414 37.9901 63.4424 38.0139C63.4709 38.0377 63.5063 38.0517 63.5434 38.0538C63.5804 38.0559 63.6172 38.046 63.6482 38.0256C63.6792 38.0051 63.7027 37.9752 63.7154 37.9403C64.7153 35.3578 66.4578 33.5253 68.9428 32.4428C69.8766 32.0341 71.5453 32.0191 72.6028 32.0153C78.6103 31.9978 84.5778 31.9953 90.5053 32.0078C90.5284 32.0083 90.551 32.0147 90.5709 32.0264C90.5909 32.0381 90.6074 32.0547 90.6191 32.0746C90.6308 32.0946 90.6371 32.1172 90.6376 32.1403C90.638 32.1634 90.6325 32.1862 90.6216 32.2066L85.7203 41.1953C85.6931 41.2463 85.6526 41.2889 85.6031 41.3186C85.5535 41.3484 85.4968 41.3641 85.4391 41.3641L72.7003 41.4466C72.484 41.4489 72.2724 41.5085 72.0872 41.6192C71.902 41.7299 71.7499 41.8878 71.6466 42.0766C67.8341 49.1116 64.0091 56.2303 60.1716 63.4328C58.4091 66.7366 56.1441 67.8428 52.4316 67.8203C50.1466 67.8078 47.8641 67.8078 45.5841 67.8203C40.9379 67.8503 38.0654 66.8903 36.3854 62.3228C36.3709 62.2813 36.344 62.2455 36.3082 62.2202C36.2724 62.1948 36.2295 62.1813 36.1854 62.1813C36.1412 62.1813 36.0978 62.1948 36.0611 62.2202C36.0245 62.2455 35.9963 62.2813 35.9804 62.3228C35.0004 64.8853 33.3191 66.6003 30.9366 67.4678C29.9641 67.8228 28.4767 68.0041 26.4742 68.0116C20.7017 68.0341 14.9342 68.0703 9.17168 68.1203C9.00168 68.1228 8.95793 68.0503 9.04043 67.9028L14.0542 58.6891C14.1242 58.5591 14.2317 58.4941 14.3767 58.4941L27.1792 58.4191C27.3752 58.418 27.5672 58.3641 27.7349 58.2631C27.9026 58.1621 28.0397 58.0178 28.1317 57.8453C31.8066 50.9828 35.5079 44.1041 39.2354 37.2091C40.9191 34.1003 42.8054 32.1841 46.3829 32.1878C49.4829 32.1928 52.5804 32.1928 55.6754 32.1878C59.5829 32.1841 62.3578 33.9766 63.3853 37.9216Z" fill="white"/>
<path d="M24.8201 60.4816C26.3951 60.5416 28.8739 60.7366 29.7739 59.0904C33.8314 51.6604 37.8914 44.2291 41.9539 36.7966C42.8351 35.1916 44.6839 34.0516 46.6339 34.0591C50.1439 34.0716 53.6464 34.0729 57.1414 34.0629C57.9964 34.0591 59.3276 34.8541 60.0064 35.5029C62.2289 37.6329 62.5151 40.1479 60.8651 43.0479C58.5751 47.0729 55.7651 52.1816 52.4351 58.3741C52.4043 58.4311 52.3586 58.4789 52.3026 58.5125C52.2465 58.5461 52.1823 58.5644 52.1164 58.5654L47.1626 58.6366C47.0804 58.6371 46.9994 58.6163 46.9277 58.5763C46.8559 58.5362 46.7958 58.4783 46.7534 58.4082C46.711 58.3381 46.6877 58.2583 46.6858 58.1767C46.6839 58.0951 46.7035 58.0145 46.7426 57.9429C49.2751 53.2554 51.8364 48.5529 54.4264 43.8354C55.7651 41.3979 55.3339 39.1329 52.1876 39.1329C50.0276 39.1329 46.7651 38.4504 45.5276 40.7416C41.8826 47.4791 38.2364 54.2154 34.5889 60.9504C32.6276 64.5654 30.7264 65.9266 26.6914 65.9341C22.0089 65.9441 17.2964 65.9454 12.5539 65.9379C12.5342 65.9376 12.5148 65.9323 12.4977 65.9225C12.4806 65.9127 12.4664 65.8987 12.4565 65.8819C12.4466 65.8652 12.4414 65.8463 12.4414 65.8272C12.4414 65.808 12.4466 65.7893 12.4564 65.7729L15.3327 60.6091C15.3612 60.5589 15.4021 60.5169 15.4514 60.4873C15.5007 60.4578 15.5567 60.4416 15.6139 60.4404C19.0114 60.3629 22.0802 60.3766 24.8201 60.4816Z" fill="#D7332D"/>
<path d="M45.2315 56.248C42.194 61.7117 49.4128 61.093 51.9628 60.7667C52.8803 60.6467 53.584 60.1405 54.074 59.248C58.034 52.0455 61.9977 44.8455 65.9652 37.648C67.3115 35.2105 69.8615 34.0555 72.6965 34.0592C77.4615 34.0667 82.2077 34.0692 86.9352 34.0667C87.2252 34.0642 87.299 34.1905 87.1565 34.4455L84.479 39.2305C84.4115 39.348 84.3115 39.4067 84.179 39.4067C80.624 39.4167 77.074 39.4167 73.529 39.4067C71.3802 39.3992 70.409 40.0705 69.4265 41.863C66.0865 47.9755 62.7415 54.0867 59.3915 60.1967C57.2428 64.1192 56.5378 65.9755 52.034 65.9492C49.599 65.9367 47.1703 65.9355 44.7478 65.9455C43.1053 65.953 41.8953 65.7855 41.1178 65.443C38.1815 64.153 37.0715 60.463 38.6315 57.5717C41.544 52.1917 44.4603 46.8417 47.3803 41.5217C47.4188 41.4504 47.4761 41.3907 47.5461 41.3492C47.616 41.3076 47.6961 41.2856 47.7778 41.2855H52.6453C52.7174 41.2859 52.7884 41.3047 52.8512 41.3402C52.914 41.3757 52.9666 41.4266 53.004 41.4881C53.0413 41.5495 53.062 41.6194 53.0642 41.691C53.0664 41.7626 53.05 41.8334 53.0165 41.8967C50.464 46.7192 47.869 51.503 45.2315 56.248Z" fill="#D7332D"/>
</svg>
