<svg width="100" height="100" viewBox="0 0 100 100" fill="none" xmlns="http://www.w3.org/2000/svg">
<rect width="100" height="100" fill="#595C62"/>
<path d="M16.1397 52.4102L19.5147 52.082C19.7178 53.2148 20.128 54.0469 20.7452 54.5781C21.3702 55.1094 22.21 55.375 23.2647 55.375C24.3819 55.375 25.2217 55.1406 25.7842 54.6719C26.3545 54.1953 26.6397 53.6406 26.6397 53.0078C26.6397 52.6016 26.5186 52.2578 26.2764 51.9766C26.042 51.6875 25.628 51.4375 25.0342 51.2266C24.628 51.0859 23.7022 50.8359 22.2569 50.4766C20.3975 50.0156 19.0928 49.4492 18.3428 48.7773C17.2881 47.832 16.7608 46.6797 16.7608 45.3203C16.7608 44.4453 17.0069 43.6289 17.4991 42.8711C17.9991 42.1055 18.7139 41.5234 19.6436 41.125C20.5811 40.7266 21.71 40.5273 23.0303 40.5273C25.1866 40.5273 26.8077 41 27.8936 41.9453C28.9873 42.8906 29.5616 44.1523 29.6162 45.7305L26.1475 45.8828C25.9991 45 25.6787 44.3672 25.1866 43.9844C24.7022 43.5938 23.9717 43.3984 22.9952 43.3984C21.9873 43.3984 21.1983 43.6055 20.628 44.0195C20.2608 44.2852 20.0772 44.6406 20.0772 45.0859C20.0772 45.4922 20.2491 45.8398 20.5928 46.1289C21.0303 46.4961 22.0928 46.8789 23.7803 47.2773C25.4678 47.6758 26.7139 48.0898 27.5186 48.5195C28.3311 48.9414 28.9639 49.5234 29.417 50.2656C29.878 51 30.1084 51.9102 30.1084 52.9961C30.1084 53.9805 29.835 54.9023 29.2881 55.7617C28.7412 56.6211 27.9678 57.2617 26.9678 57.6836C25.9678 58.0977 24.7217 58.3047 23.2295 58.3047C21.0577 58.3047 19.3897 57.8047 18.2256 56.8047C17.0616 55.7969 16.3662 54.332 16.1397 52.4102ZM33.4216 58V40.8203H36.7966L43.8278 52.293V40.8203H47.0505V58H43.57L36.6442 46.7969V58H33.4216ZM59.0823 51.6836V48.7891H66.5589V55.6328C65.8323 56.3359 64.7777 56.957 63.3948 57.4961C62.0198 58.0273 60.6253 58.293 59.2113 58.293C57.4144 58.293 55.848 57.918 54.512 57.168C53.1761 56.4102 52.1722 55.332 51.5003 53.9336C50.8284 52.5273 50.4925 51 50.4925 49.3516C50.4925 47.5625 50.8675 45.9727 51.6175 44.582C52.3675 43.1914 53.4652 42.125 54.9105 41.3828C56.012 40.8125 57.3831 40.5273 59.0238 40.5273C61.1566 40.5273 62.8206 40.9766 64.0159 41.875C65.2191 42.7656 65.9925 44 66.3363 45.5781L62.8909 46.2227C62.6488 45.3789 62.1917 44.7148 61.5198 44.2305C60.8558 43.7383 60.0238 43.4922 59.0238 43.4922C57.5081 43.4922 56.3011 43.9727 55.4027 44.9336C54.512 45.8945 54.0667 47.3203 54.0667 49.2109C54.0667 51.25 54.5198 52.7812 55.4261 53.8047C56.3323 54.8203 57.5198 55.3281 58.9886 55.3281C59.7152 55.3281 60.4417 55.1875 61.1683 54.9062C61.9027 54.6172 62.5316 54.2695 63.055 53.8633V51.6836H59.0823ZM70.1416 58V40.8203H77.4423C79.2783 40.8203 80.6103 40.9766 81.4384 41.2891C82.2744 41.5938 82.9423 42.1406 83.4423 42.9297C83.9423 43.7188 84.1923 44.6211 84.1923 45.6367C84.1923 46.9258 83.8134 47.9922 83.0556 48.8359C82.2978 49.6719 81.165 50.1992 79.6572 50.418C80.4072 50.8555 81.0244 51.3359 81.5088 51.8594C82.0009 52.3828 82.6611 53.3125 83.4892 54.6484L85.5869 58H81.4384L78.9306 54.2617C78.04 52.9258 77.4306 52.0859 77.1025 51.7422C76.7744 51.3906 76.4267 51.1523 76.0595 51.0273C75.6923 50.8945 75.1103 50.8281 74.3134 50.8281H73.6103V58H70.1416ZM73.6103 48.0859H76.1767C77.8408 48.0859 78.8798 48.0156 79.2939 47.875C79.708 47.7344 80.0322 47.4922 80.2666 47.1484C80.5009 46.8047 80.6181 46.375 80.6181 45.8594C80.6181 45.2812 80.4619 44.8164 80.1494 44.4648C79.8447 44.1055 79.4111 43.8789 78.8486 43.7852C78.5673 43.7461 77.7236 43.7266 76.3173 43.7266H73.6103V48.0859Z" fill="#F8F8F8"/>
</svg>
