<svg width="100" height="100" viewBox="0 0 100 100" fill="none" xmlns="http://www.w3.org/2000/svg">
<g clip-path="url(#clip0_105_1819)">
<rect width="100" height="100" fill="#E3807C"/>
<rect x="-93" y="50" width="287" height="61" fill="#6BAC8C"/>
<path d="M51.4852 67.9827V88.8986C51.4852 90.1447 50.475 91.1548 49.2289 91.1548C47.9828 91.1548 46.9727 90.1446 46.9727 88.8986V68.4027C46.9727 67.9366 47.1282 67.4746 47.1255 67.0085C47.1215 66.3456 46.706 65.4995 45.1681 64.987C42.4604 64.0846 38.8516 68.5963 36.1445 68.5963C33.4375 68.5963 31.6328 64.987 32.5353 64.0846C32.9173 63.7027 32.9793 62.6301 32.9084 61.4819C32.8102 59.8928 31.302 58.8491 29.7138 58.9615C27.4064 59.1247 24.5472 59.1551 22.6094 58.6706C20.789 58.2155 19.8294 56.302 19.3687 54.4223C18.9743 52.813 20.3431 51.4519 22 51.4519H39.4136C40.2093 51.4519 41.1253 51.1265 41.1124 50.3309C41.1007 49.613 40.5789 48.7062 38.8516 47.8425C37.9345 47.384 37.1752 47.0347 36.5563 46.7715C35.2894 46.2327 34.1057 45.1008 33.7719 43.7652C33.4142 42.3342 32.9642 40.5342 32.5353 38.8192C31.6327 35.2098 19.0001 25.2841 24.4142 24.3817C29.8283 23.4793 33.4379 24.3817 39.754 28.8934C46.0702 33.4052 41.5587 32.5028 45.1681 32.079C48.7775 31.6553 46.0707 26.1864 45.1681 24.3817C44.5697 23.1852 39.386 22.3193 35.5737 21.8866C34.2976 21.7418 33.1942 20.8382 33.0786 19.5591C32.9879 18.5559 33.0337 17.5672 33.4379 17.163C34.3403 16.2608 42.4614 16.2607 46.0707 17.163C49.6801 18.0654 53.2898 21.6747 51.4852 18.9677C49.6805 16.2607 46.9734 15.3584 47.8758 14.456C48.7781 13.5537 48.7781 10.8466 50.5828 9.04193C52.3875 7.23725 59.6063 8.13959 61.4109 9.04193C63.2156 9.94427 60.5086 12.6513 63.2156 12.6513C65.9227 12.6513 66.825 15.3583 66.825 18.0653C66.825 19.4511 65.5934 19.9255 64.3123 20.0086C63.0992 20.0873 61.7859 20.5273 61.5762 21.7247C61.4207 22.6125 61.5339 23.6023 62.3133 24.3817C62.5927 24.6611 62.8991 24.8549 63.2182 24.9814C64.7239 25.5782 66.5821 26.8458 67.7274 27.991C68.6297 28.8934 78.5555 27.991 76.7508 28.8934C74.9461 29.7957 75.8485 33.4051 73.1414 33.4051C70.4344 33.4051 57.8016 34.3074 59.6063 35.2097C61.4109 36.1121 61.4109 43.3308 63.2156 43.3308C65.0203 43.3308 63.2156 41.5262 66.825 39.7215C67.6609 39.3035 68.769 39.1779 69.9874 39.2397C71.4236 39.3125 71.6188 43.7254 71.3367 45.1355C70.6871 48.3835 75.8345 49.9266 79.2827 50.4221C79.9774 50.522 80.6769 50.8102 80.9325 51.4638C81.2672 52.3199 81.3384 53.5939 80.3602 55.0613C79.5855 56.2233 77.9101 56.3981 76.1984 56.1711C75.3316 56.0562 74.0438 57.7963 74.0438 58.6706C74.0438 59.8142 72.534 62.1656 71.3083 63.8413C70.7703 64.5768 69.9039 64.987 68.9925 64.987H54.4852C52.8283 64.987 51.4852 66.3259 51.4852 67.9827Z" fill="white"/>
</g>
<defs>
<clipPath id="clip0_105_1819">
<rect width="100" height="100" fill="white"/>
</clipPath>
</defs>
</svg>
