<svg width="100" height="100" viewBox="0 0 100 100" fill="none" xmlns="http://www.w3.org/2000/svg">
<rect width="100" height="100" fill="#D6E7FF"/>
<path d="M34.0088 32.3954C29.7902 28.3178 25.5917 24.2295 21.3116 20.2159C20.6932 19.637 20.1123 19.0513 19.5689 18.459C19.5444 18.4322 19.5311 18.3969 19.5318 18.3606C19.5324 18.3242 19.547 18.2895 19.5725 18.2636C21.571 16.2461 24.0695 14.4632 26.4329 12.8982C26.5213 12.8398 26.6145 12.7904 26.7124 12.7501C26.7535 12.7335 26.7898 12.7407 26.8214 12.7715L39.553 25.0754C39.5602 25.0824 39.5693 25.0871 39.5791 25.0889C39.589 25.0908 39.5992 25.0897 39.6084 25.0857C39.6177 25.0818 39.6256 25.0753 39.6311 25.0669C39.6366 25.0585 39.6395 25.0487 39.6395 25.0386C39.6434 19.3515 39.6466 13.6667 39.6489 7.98424C39.6489 7.756 39.6596 7.52854 39.6809 7.30188C39.6849 7.26476 39.7046 7.24344 39.7402 7.23791C39.9787 7.2 40.4494 7.11194 41.1523 6.97373C43.321 6.54725 45.5055 6.23489 47.7058 6.03666C48.0723 6.00349 48.4395 5.99283 48.8076 6.00468C48.8518 6.00547 48.8739 6.02797 48.8739 6.0722C48.8937 17.0129 48.8909 27.9529 48.8656 38.8921C48.8621 40.4025 48.5244 42.0326 46.8624 42.5384C45.3199 43.0076 44.0381 42.266 43.0146 41.1583C41.7707 39.8125 40.3281 38.4067 38.687 36.9409C37.0486 35.4767 35.2538 33.6002 34.0088 32.3954Z" fill="#013D8C"/>
<path d="M60.5228 25.0138C60.5228 25.1583 60.5745 25.1804 60.678 25.0801L73.3835 12.7561C73.4159 12.7253 73.451 12.7221 73.4889 12.7466C74.567 13.4372 75.6403 14.0888 76.6437 14.8802C78.0037 15.9511 79.4691 17.0007 80.6348 18.279C80.6568 18.3033 80.669 18.3349 80.669 18.3675C80.669 18.4002 80.6568 18.4315 80.6348 18.4555C80.3221 18.7951 79.9983 19.1173 79.6634 19.4221C78.2529 20.7063 76.8676 22.017 75.5076 23.354C69.8757 28.8888 64.1573 34.3359 58.4852 39.8291C57.2567 41.0185 56.2367 42.6628 54.2927 42.6605C52.9658 42.6581 51.4613 41.4616 51.459 40.0589C51.44 28.7486 51.4289 17.4607 51.4258 6.1954C51.4258 6.11722 51.4649 6.07891 51.5431 6.08049C54.1706 6.13262 56.4665 6.47854 59.3405 7.0685C59.6746 7.13721 60.0821 7.16801 60.4541 7.21895C60.4999 7.22448 60.5228 7.25054 60.5228 7.29714V25.0138Z" fill="#013D8C"/>
<path d="M24.3185 39.5176C24.2379 39.3754 24.1372 39.2463 24.0164 39.1302C20.0667 35.3511 16.125 31.5614 12.1911 27.761C12.1749 27.7451 12.1642 27.7246 12.1603 27.7022C12.1565 27.6799 12.1598 27.657 12.1698 27.6366C12.4454 27.0869 12.7617 26.553 13.1187 26.0349C14.4514 24.1051 15.937 22.0272 17.592 20.3628C17.6236 20.3304 17.654 20.3316 17.6832 20.3663C18.0662 20.8173 18.3146 21.0961 18.4284 21.2027C20.0632 22.7222 22.2363 24.8041 24.9476 27.4482C26.2329 28.7028 28.3321 30.6279 29.9895 32.2568C33.7567 35.9585 37.5682 39.6147 41.4238 43.2256C42.0268 43.7906 42.6357 44.5938 42.6843 45.4918C42.7637 46.9407 42.0742 48.117 40.6491 48.5554C40.3877 48.6359 39.9849 48.6762 39.4407 48.6762C28.3452 48.6786 17.25 48.6786 6.15526 48.6762C6.11577 48.6762 6.09524 48.6564 6.09366 48.617C6.00718 45.5961 6.577 42.5681 7.3032 39.6526C7.31346 39.6131 7.33874 39.593 7.37902 39.5922C13.0093 39.5409 18.6392 39.5436 24.2687 39.6005C24.3327 39.6013 24.3493 39.5736 24.3185 39.5176Z" fill="#013D8C"/>
<path d="M76.1179 39.4631C77.0277 39.4465 77.9529 39.4461 78.8936 39.4619C82.5613 39.5247 86.2337 39.5022 89.9026 39.495C90.6829 39.4927 91.4628 39.4761 92.2423 39.4453C92.4848 39.435 92.7 39.4729 92.888 39.559C92.9229 39.5752 92.9535 39.5993 92.9774 39.6293C93.0013 39.6594 93.0177 39.6945 93.0254 39.732C93.2923 41.0627 93.5609 42.3943 93.831 43.7267C93.9123 44.1318 93.9542 44.5385 93.9565 44.9469C93.9629 46.1702 93.9632 47.3932 93.9577 48.6158C93.9577 48.6318 93.9512 48.6472 93.9397 48.6585C93.9281 48.6698 93.9125 48.6762 93.8961 48.6762C84.6652 48.6778 75.426 48.6778 66.1786 48.6762C64.8553 48.675 63.0262 48.7638 61.447 48.7236C60.5033 48.6991 59.8197 48.6015 59.3964 48.4309C56.9441 47.4465 57.1538 44.858 58.8052 43.2575C64.3459 37.8863 69.9766 32.6157 75.458 27.1852C75.819 26.8283 76.2944 26.3943 76.8844 25.8833C79.0476 24.0103 80.571 22.2239 82.4914 20.3995C82.5806 20.3158 82.6667 20.3189 82.7496 20.409C83.5078 21.239 84.2427 22.1125 84.9543 23.0294C86.0359 24.4226 87.0511 26.0539 88.083 27.5904C88.0927 27.6053 88.097 27.6232 88.095 27.6409C88.0931 27.6586 88.0851 27.6751 88.0723 27.6875L76.0717 39.3505C75.9919 39.4271 76.0073 39.4646 76.1179 39.4631Z" fill="#013D8C"/>
<path d="M62.1295 59.9246C60.5721 58.4161 59.3685 57.2311 58.5187 56.3694C57.5721 55.4099 57.1753 53.9669 57.9572 52.7136C58.8291 51.3157 60.3644 51.1605 61.9234 51.1711C63.5144 51.1818 65.1978 51.2517 66.6905 51.2517C75.7247 51.2549 84.7988 51.2552 93.9128 51.2529C93.9251 51.2529 93.9369 51.2578 93.9455 51.2664C93.9542 51.2751 93.959 51.2868 93.959 51.2991C93.9626 52.8818 94.1059 54.66 93.8358 56.2154C93.6005 57.5723 93.3545 58.9453 93.0978 60.3345C93.0859 60.3977 93.048 60.4293 92.9841 60.4293L76.0469 60.4305C75.964 60.4305 75.9522 60.4597 76.0114 60.5181L88.1376 72.3292C88.1684 72.3584 88.1728 72.3912 88.1507 72.4275C87.3534 73.7496 86.6058 75.061 85.6415 76.2907C84.7471 77.4315 83.8752 78.8152 82.7723 79.7499C82.7423 79.7752 82.7123 79.7756 82.6822 79.7511C82.1002 79.2788 81.7223 78.9518 81.5485 78.7702C79.7873 76.9308 77.9669 75.153 76.0872 73.4369C75.4151 72.824 74.8394 72.2834 74.36 71.815C70.2919 67.8425 66.215 63.879 62.1295 59.9246Z" fill="#013D8C"/>
<path d="M33.0458 64.7663C29.5535 68.1769 26.0729 71.61 22.5213 74.9591C20.9019 76.4873 19.2836 78.2288 17.5445 79.7333C17.5137 79.7593 17.4849 79.757 17.4581 79.7262C16.4902 78.5865 15.4809 77.4777 14.5971 76.2741C13.6565 74.9934 12.8545 73.7448 12.0323 72.4061C12.011 72.3714 12.0149 72.3398 12.0442 72.3114L24.3161 60.4813C24.3222 60.4757 24.3264 60.4683 24.3282 60.4602C24.33 60.4521 24.3292 60.4436 24.326 60.4359C24.3228 60.4281 24.3174 60.4214 24.3103 60.4166C24.3033 60.4118 24.295 60.4092 24.2865 60.4091C19.7492 60.4257 15.208 60.4355 10.6628 60.4387C9.80634 60.4399 8.42265 60.5027 7.29367 60.415C7.27184 60.4132 7.25117 60.4046 7.23474 60.3903C7.21831 60.376 7.20698 60.3568 7.20245 60.3356C6.59709 57.4071 5.99646 54.3258 6.00002 51.3156C6.00002 51.2745 6.02055 51.254 6.06162 51.254C17.1445 51.2532 28.2266 51.2532 39.308 51.254C39.8671 51.254 40.3011 51.3065 40.6099 51.4116C41.5529 51.7338 42.4817 52.5749 42.6499 53.615C42.8549 54.8814 42.3253 55.8789 41.457 56.7117C39.9122 58.1926 38.4372 59.7848 36.8119 61.1744C35.4045 62.3768 34.5646 63.2842 33.0458 64.7663Z" fill="#013D8C"/>
<path d="M39.5957 74.9022L26.7161 87.404C26.6946 87.4247 26.6666 87.4375 26.6369 87.44C26.6071 87.4426 26.5773 87.4349 26.5526 87.4182C24.417 85.9879 22.3798 84.4309 20.4409 82.7471C20.0571 82.4146 19.7293 82.0939 19.4577 81.7851C19.4452 81.771 19.4382 81.7528 19.438 81.7341C19.4378 81.7154 19.4443 81.6973 19.4565 81.6832C20.4374 80.5353 21.686 79.539 22.7783 78.487C26.3093 75.0839 29.8298 71.6693 33.3395 68.2433C36.3154 65.3385 39.3635 62.5142 42.3204 59.5858C43.1959 58.7186 44.3391 57.278 45.7121 57.3764C46.1031 57.4048 46.6184 57.3302 46.9608 57.5387C47.6941 57.9876 48.3741 58.4141 48.6939 59.2564C48.951 59.934 48.8444 61.0121 48.861 61.8496C48.8712 62.363 48.8768 62.7674 48.8776 63.0627C48.8933 73.4056 48.8886 83.7485 48.8633 94.0914C48.8633 94.1332 48.8424 94.1554 48.8005 94.1577C48.427 94.1814 48.1115 94.1838 47.854 94.1648C45.8788 94.0203 43.9881 93.7782 42.1818 93.4386C41.4213 93.2949 40.752 93.1934 40.1738 93.1342C39.617 93.0773 39.6348 92.5845 39.6396 92.0858C39.6727 88.0508 39.683 84.0158 39.6704 79.9809C39.6644 78.3603 39.6869 76.9576 39.6372 74.92C39.6364 74.8813 39.6226 74.8754 39.5957 74.9022Z" fill="#013D8C"/>
<path d="M73.5566 87.3187L60.639 74.9106C60.5719 74.8466 60.5383 74.8612 60.5383 74.9544L60.5324 92.7409C60.5324 92.7602 60.5282 92.7792 60.52 92.7966C60.5118 92.814 60.4999 92.8294 60.485 92.8416C60.2426 93.0375 59.9662 93.1603 59.6558 93.2101C56.9417 93.646 54.2253 94.1388 51.4686 94.1791C51.4585 94.1791 51.4489 94.1751 51.4418 94.168C51.4347 94.1609 51.4307 94.1512 51.4307 94.1412C51.4307 82.6958 51.4307 71.2832 51.4307 59.9033C51.4307 58.9615 52.3571 58.0197 53.1058 57.5932C53.6093 57.3053 54.153 57.3326 54.7193 57.3586C55.6078 57.3989 56.4998 58.1512 57.1135 58.7494C64.4205 65.8764 71.7145 73.0175 79.1174 80.0449C79.6789 80.5772 80.2488 81.1 80.8269 81.6134C80.8569 81.6403 80.8608 81.6703 80.8387 81.7034C80.6239 82.0193 80.4166 82.265 80.2168 82.4403C78.1547 84.2386 75.9875 85.8699 73.7153 87.3341C73.6585 87.3705 73.6056 87.3653 73.5566 87.3187Z" fill="#013D8C"/>
</svg>
