<svg width="100" height="100" viewBox="0 0 100 100" fill="none" xmlns="http://www.w3.org/2000/svg">
<rect width="100" height="100" fill="#C7E3FF"/>
<g clip-path="url(#clip0_105_1823)">
<path d="M11.0001 79.6441C10.9993 79.5984 10.9993 79.5847 11.0001 79.6031L49.4371 13.035C49.4404 13.0293 49.4451 13.0245 49.4508 13.0212C49.4565 13.0179 49.463 13.0161 49.4696 13.0161C49.4762 13.0161 49.4827 13.0179 49.4884 13.0212C49.4941 13.0245 49.4988 13.0293 49.5021 13.035L57.8957 27.5745C57.9051 27.5908 57.9188 27.5965 57.9368 27.5916C59.9737 27.0761 62.0399 26.739 64.1353 26.5801C64.1413 26.5795 64.1475 26.5807 64.1529 26.5835C64.1584 26.5863 64.1629 26.5905 64.1661 26.5958C64.1692 26.601 64.1708 26.607 64.1707 26.6131C64.1705 26.6193 64.1687 26.6252 64.1653 26.6303L60.5891 32.1732C60.5756 32.194 60.575 32.2153 60.5872 32.2369L87.9305 79.6031C87.946 79.6305 87.938 79.6441 87.9066 79.6441H48.7527C48.7307 79.6441 48.7105 79.6505 48.6921 79.6631C43.8121 83.0782 38.0156 85.1325 32.091 85.8475C31.4407 85.9259 30.771 85.9833 30.082 86.0197C30.0762 86.0199 30.0704 86.0186 30.0653 86.0157C30.0602 86.0129 30.0559 86.0088 30.053 86.0037C30.0501 85.9987 30.0486 85.9929 30.0488 85.9871C30.0489 85.9813 30.0507 85.9756 30.0538 85.9707L34.2445 79.6846C34.2625 79.6576 34.2554 79.6441 34.2231 79.6441H11.0001Z" fill="#004990"/>
<path d="M36.647 69.212C36.6485 69.216 36.6511 69.2195 36.6544 69.2221C36.6578 69.2248 36.6618 69.2264 36.666 69.2269C36.6703 69.2274 36.6746 69.2268 36.6785 69.225C36.6823 69.2232 36.6857 69.2204 36.6881 69.2169L58.4473 35.4914C58.4592 35.4734 58.4706 35.4739 58.4816 35.4926L81.9503 76.1389C81.9529 76.1433 81.9543 76.1484 81.9543 76.1535C81.9544 76.1586 81.953 76.1636 81.9505 76.168C81.9479 76.1725 81.9442 76.1762 81.9398 76.1787C81.9353 76.1812 81.9303 76.1825 81.9252 76.1824H52.785C52.767 76.1824 52.7641 76.1759 52.7764 76.1628C58.3548 70.3032 61.4427 62.3316 60.7498 54.2044C60.5165 51.4686 59.9463 48.8021 59.0392 46.2047C58.7565 45.3956 58.4724 44.5915 58.1869 43.7926C58.1812 43.7763 58.1735 43.7754 58.1637 43.7901L36.59 76.161C36.5802 76.1753 36.5667 76.1824 36.5496 76.1824H17.0058C17.0028 76.1824 16.9998 76.1816 16.9972 76.1801C16.9947 76.1786 16.9925 76.1764 16.991 76.1738C16.9895 76.1712 16.9888 76.1682 16.9888 76.1652C16.9888 76.1623 16.9896 76.1593 16.9911 76.1567L49.4452 19.93C49.4477 19.9255 49.4514 19.9218 49.4558 19.9192C49.4602 19.9166 49.4652 19.9153 49.4704 19.9153C49.4755 19.9153 49.4805 19.9166 49.4849 19.9192C49.4893 19.9218 49.493 19.9255 49.4955 19.93L54.487 28.5743C54.4901 28.5797 54.492 28.5857 54.4926 28.5919C54.4931 28.5981 54.4923 28.6044 54.4901 28.6103C54.4879 28.6161 54.4845 28.6214 54.48 28.6258C54.4756 28.6302 54.4702 28.6335 54.4643 28.6355C48.3185 30.7364 42.7695 34.5644 39.0407 39.9223C38.1491 41.204 37.3387 42.6026 36.6096 44.1179C33.9429 49.6623 33.1819 55.478 34.3268 61.5652C34.6732 63.4056 35.1041 65.0245 35.6196 66.4219C35.9639 67.3552 36.3064 68.2852 36.647 69.212Z" fill="#7AC142"/>
</g>
<defs>
<clipPath id="clip0_105_1823">
<rect width="77.9327" height="73.0312" fill="white" transform="translate(11 13)"/>
</clipPath>
</defs>
</svg>
