<svg width="100" height="100" viewBox="0 0 100 100" fill="none" xmlns="http://www.w3.org/2000/svg">
<rect width="100" height="100" fill="white"/>
<path d="M59.5698 15.9117C50.8696 15.8926 43.3836 18.6651 37.1117 24.2293C32.4852 28.3339 29.5969 33.5509 28.4469 39.8803C28.4307 39.9718 28.3761 40.0175 28.2833 40.0175H26.4632C26.3865 40.0175 26.3533 39.9791 26.3637 39.9025C28.343 26.3856 39.9933 16.8384 52.944 14.5959C61.1532 13.1746 68.8899 14.2958 76.154 17.9596C84.6574 22.2478 91.0111 30.1607 92.5901 39.6282C92.5946 39.6518 92.5923 39.6725 92.5835 39.6902C92.5732 39.7182 92.5643 39.7174 92.557 39.6879C91.5065 35.1432 88.2887 31.2863 84.5313 28.6612C77.8835 24.0192 69.4022 22.093 61.4761 24.1187C53.6385 26.1246 47.1122 31.8768 45.2899 39.8958C45.2708 39.9813 45.2169 40.0241 45.1285 40.0241L43.273 40.0152C43.1846 40.0152 43.1492 39.971 43.1669 39.8826C45.301 29.9373 53.8132 23.254 63.6058 21.7657C64.2892 21.6617 64.9991 21.6595 65.7156 21.6131C65.7407 21.6116 65.7613 21.6072 65.7775 21.5998C65.838 21.5718 65.8306 21.5578 65.7554 21.5578C65.2379 21.5622 64.7116 21.4826 64.2273 21.5091C53.4836 22.1062 43.3106 28.9708 41.0659 39.9202C41.0526 39.9865 41.0128 40.0197 40.9465 40.0197L39.007 40.0285C38.9377 40.0285 38.9097 39.9946 38.9229 39.9268C41.2539 28.1592 51.7476 20.6223 63.3426 19.647C63.3692 19.6441 63.3957 19.6367 63.4223 19.6249C63.4857 19.5939 63.482 19.5792 63.4112 19.5807C51.166 19.7554 39.2348 27.2945 36.8485 39.9224C36.8338 40.002 36.7859 40.041 36.7048 40.0396L34.8581 40.0086C34.7653 40.0071 34.7269 39.9607 34.7431 39.8693C37.0586 27.049 48.7045 18.7447 61.1554 17.8291C61.1628 17.8291 61.1672 17.8254 61.1687 17.8181C61.1687 17.8137 61.1687 17.81 61.1687 17.807C61.1676 17.7845 61.1575 17.7634 61.1405 17.7481C61.1236 17.7328 61.1011 17.7246 61.078 17.7252C58.6085 17.8181 56.2989 18.1115 54.1493 18.6054C43.5163 21.0491 34.6702 28.9156 32.6488 39.887C32.6326 39.9695 32.5825 40.0108 32.4984 40.0108L30.6474 40.0329C30.5766 40.0344 30.5457 40.0005 30.5545 39.9312C30.6194 39.4196 30.7093 38.9132 30.8243 38.4119C33.9138 24.979 46.336 16.7057 59.5698 15.925C59.5715 15.925 59.5732 15.9243 59.5745 15.9231C59.5757 15.9218 59.5764 15.9201 59.5764 15.9184C59.5764 15.9166 59.5757 15.9149 59.5745 15.9137C59.5732 15.9124 59.5715 15.9117 59.5698 15.9117Z" fill="#2F416F"/>
<path d="M90.5447 50.5378C90.5403 52.0417 91.0998 56.5023 88.5521 56.0866C86.833 55.8064 85.7449 55.6605 85.2879 55.6487C84.3966 55.6266 83.1338 56.509 82.1055 55.8256C81.4494 55.3877 80.7343 55.1577 79.9603 55.1356C78.9364 55.1069 78.0761 55.6929 77.0543 55.8322C75.1038 56.0976 73.1731 55.202 71.698 54.0298C71.6715 54.009 71.6388 53.9977 71.6051 53.9977C71.5714 53.9977 71.5387 54.009 71.5122 54.0298C70.0106 55.2064 66.4633 56.6019 64.756 55.5735C64.041 55.143 63.4704 54.9019 63.0443 54.8503C61.4314 54.6572 59.9482 54.9594 58.5947 55.7571C58.5259 55.7968 58.4687 55.854 58.4288 55.9231C58.3888 55.9921 58.3675 56.0706 58.3669 56.1507C58.3536 57.6781 57.9408 59.0581 57.1285 60.2907C56.5756 61.1267 55.4344 61.7216 54.4613 60.9763C53.5701 60.2951 52.3958 59.0257 51.2192 59.0124C47.8386 58.9741 44.4586 58.9652 41.0794 58.9859C38.085 59.0036 35.9309 56.9269 34.1241 54.7972C34.0517 54.7123 33.9554 54.6511 33.8477 54.6215C33.7401 54.5919 33.626 54.5954 33.5204 54.6314C33.0043 54.8068 32.447 54.9484 31.8485 55.056C30.6697 55.2705 29.8868 54.0918 28.7147 53.9967C26.8438 53.8441 25.4372 55.7261 23.3186 54.8658C22.0816 54.3616 20.9301 53.7025 19.8642 52.8887C19.8023 52.8415 19.7433 52.8437 19.6873 52.8953C18.4105 54.0335 16.9287 54.7449 15.2421 55.0295C13.5215 55.3192 12.3406 54.7663 10.8854 54.1758C10.5551 54.0416 10.2698 53.9753 10.0295 53.9768C8.72249 53.9768 7.73393 55.9583 6.48442 54.6867C5.3676 53.5521 5.59317 49.6267 5.64625 48.1051C5.67942 47.11 5.88288 46.5239 6.46452 45.7875C6.61785 45.5943 6.66798 45.3599 6.6149 45.0842C6.60341 45.0214 6.57051 44.965 6.52201 44.925C6.0974 44.5667 5.72808 44.2504 5.51356 43.7285C4.38789 40.9906 5.06241 37.848 8.03691 36.6826C10.1135 35.8687 12.4998 36.0766 14.687 36.0943C15.5561 36.1031 16.6 34.4202 17.3917 35.9351C17.6526 36.4364 18.1657 37.6122 18.9309 39.4625C19.1255 39.9313 19.5634 40.2277 20.0477 39.98C22.675 38.6309 23.6658 41.2162 26.0034 41.1764C26.0752 41.1749 26.1441 41.1509 26.2002 41.1078C27.4387 40.1702 28.4162 40.2763 30.0284 40.6479C31.2934 40.9383 32.5753 41.1101 33.8742 41.1631C35.7806 41.2383 37.0146 41.4462 38.6334 41.9637C40.4181 42.5321 41.7981 42.5542 43.4988 41.9593C43.8512 41.8354 44.5979 41.7617 45.7391 41.7381C47.5525 41.7005 49.7043 41.9903 51.3962 41.8974C52.6236 41.8288 53.7714 40.3228 54.3994 39.3718C55.085 38.3302 56.0249 38.0626 56.9405 39.0622C57.9578 40.1694 58.6043 40.8837 58.88 41.2052C60.5563 43.1491 62.3521 40.4488 63.9798 39.8628C67.3413 38.6508 69.5749 42.291 72.4057 41.9018C72.9969 41.8192 74.3791 41.5244 76.5523 41.0172C78.0444 40.6678 79.7981 40.6412 81.8136 40.9376C82.3731 41.0194 83.1338 41.3865 83.8283 41.1012C84.8765 40.6707 85.8938 40.6265 86.8802 40.9685C87.5635 41.2052 88.3177 41.8155 89.158 41.9128C90.2859 42.0426 91.3489 41.8001 92.3471 41.1853C92.4083 41.1468 92.4816 41.1326 92.5527 41.1454C95.0341 41.5767 95.3349 45.1815 94.7377 47.0016C94.1406 48.8283 92.4599 49.9429 90.6553 50.3985C90.5815 50.4177 90.5447 50.4641 90.5447 50.5378Z" fill="#F52C3F"/>
<path d="M15.4985 39.0445C17.2324 36.6604 17.4845 41.0702 17.3806 41.8266C17.2921 42.4635 16.6087 42.532 16.2151 42.1318C14.6648 40.5549 13.9195 38.9184 11.3519 39.7809C10.6199 40.0264 10.8831 41.3599 11.1551 41.9946C11.2863 42.3028 11.7861 42.7606 12.6545 43.368C15.1779 45.135 18.9264 47.2913 17.8428 50.969C17.2678 52.9218 15.3592 54.2266 13.3335 53.4592C11.98 52.9439 9.25982 51.9244 8.06118 53.1386C6.14157 55.0847 6.55512 49.9451 6.60156 49.3944C6.69445 48.2997 7.55252 48.3041 8.13415 49.0273C8.45114 49.421 8.75486 49.8257 9.04531 50.2415C10.6509 52.5348 15.2111 50.2481 12.2631 47.9768C11.0821 47.0672 9.88495 46.1789 8.67156 45.3119C5.3233 42.9191 5.13974 38.8233 9.77732 37.8148C11.7426 37.3873 13.5937 37.806 15.3305 39.071C15.3953 39.1182 15.4514 39.1093 15.4985 39.0445Z" fill="#F0F3FA"/>
<path d="M53.2717 44.8275H52.5861C52.4932 44.8275 52.4468 44.7818 52.4468 44.6904V43.6178C52.4468 43.5441 52.4829 43.5006 52.5551 43.4873C54.3177 43.1689 54.9215 41.5965 55.2842 40.17C55.3048 40.0889 55.3564 40.0506 55.439 40.055L55.9742 40.0816C56.0685 40.086 56.1142 40.1354 56.1113 40.2297L56.0339 42.9676C56.0309 43.0605 56.0766 43.1069 56.171 43.1069L59.3622 43.1047C59.4183 43.1047 59.4536 43.132 59.4684 43.1866C59.8842 44.7015 58.3427 44.7501 57.2193 44.7789C57.1352 44.7803 57.0939 44.8231 57.0954 44.9071C57.1264 46.9358 57.1293 48.9587 57.1043 50.9756C57.1013 51.2321 57.2053 51.4452 57.4161 51.6147C58.8005 52.7293 61.0762 50.4028 61.7684 49.4142C61.7867 49.3877 61.7963 49.3561 61.7959 49.3236C61.7955 49.2912 61.7851 49.2595 61.7662 49.2329C60.3434 47.2514 60.3795 45.3354 61.8745 43.4851C63.2368 41.8021 65.4948 40.8158 67.4144 42.2422C68.8298 43.2949 70.8865 45.1371 71.4881 46.7051C73.0582 50.8053 67.4476 55.9029 64.0595 51.8889C63.6084 51.3515 63.27 51.0176 62.9007 50.5554C62.8505 50.492 62.8012 50.4927 62.7525 50.5576C61.1926 52.576 59.0865 53.4075 56.4342 53.0522C54.1519 52.7448 53.3668 51.4245 53.3845 49.2838C53.3948 47.83 53.3933 46.3808 53.38 44.9359C53.38 44.8636 53.3439 44.8275 53.2717 44.8275Z" fill="#F0F3FA"/>
<path d="M27.9139 45.3628C31.0122 48.9765 26.8302 55.1842 22.5907 53.0258C21.5247 52.4817 20.5981 51.1814 19.7599 50.226C19.0522 49.4195 18.5981 48.7723 18.3976 48.2842C17.4113 45.8692 18.663 43.4056 20.8148 42.2158C23.2542 40.8668 24.831 42.3264 26.4764 43.9275C27.3182 44.7473 27.7974 45.2257 27.9139 45.3628Z" fill="#F0F3FA"/>
<path d="M78.2912 44.2969C77.1744 44.3854 76.8891 43.169 78.0324 42.8705C79.293 42.5402 80.5757 42.4001 81.8805 42.4503C81.9439 42.4517 81.9756 42.4842 81.9756 42.5476L81.969 50.5821C81.969 50.6004 81.973 50.6185 81.9808 50.6351C81.9885 50.6517 81.9998 50.6664 82.0137 50.678C82.0277 50.6896 82.044 50.698 82.0615 50.7024C82.079 50.7069 82.0973 50.7073 82.1149 50.7037C82.7784 50.571 83.1566 50.8895 83.1742 51.5596C83.2096 52.9329 82.2454 53.0103 81.1463 53.143C80.2418 53.2536 80.2042 52.3911 80.0715 51.7608C80.0552 51.6797 80.0118 51.6606 79.941 51.7033C77.8069 53.0125 74.6156 54.1227 72.7026 51.7299C72.0259 50.885 72.3488 45.7543 72.3444 44.4384C72.3444 44.3677 72.3105 44.322 72.2427 44.3013C71.9006 44.1952 71.6352 43.9784 71.4465 43.6511C71.4083 43.5857 71.3853 43.5124 71.3794 43.4368C71.3736 43.3612 71.3849 43.2852 71.4125 43.2144C71.4401 43.1436 71.4834 43.0799 71.539 43.028C71.5947 42.9762 71.6613 42.9374 71.734 42.9147C73.1184 42.4886 74.5397 42.3441 75.9978 42.4812C76.0195 42.4835 76.0396 42.4938 76.0539 42.5102C76.0683 42.5266 76.0759 42.5479 76.0752 42.5697C76.0339 44.9228 76.0384 47.2795 76.0885 49.64C76.1084 50.4826 76.2787 50.8851 77.1921 50.8187C78.1828 50.7479 78.4305 50.3919 78.4349 49.4033C78.4394 47.7417 78.4371 46.0816 78.4283 44.423C78.4283 44.3315 78.3826 44.2895 78.2912 44.2969Z" fill="#F0F3FA"/>
<path d="M87.097 43.7792C88.7136 41.7667 93.9527 41.5831 93.1765 45.6214C93.0069 46.5045 92.4798 47.0169 91.5952 47.1584C91.5043 47.1731 91.4111 47.1582 91.3294 47.116C91.2477 47.0738 91.182 47.0064 91.1419 46.924C90.8831 46.3866 90.6465 45.6546 90.275 45.2631C89.5142 44.4559 87.9418 44.6638 87.9175 46.0593C87.8865 47.8757 87.8769 49.6928 87.8887 51.5107C87.8887 51.5844 87.9248 51.6301 87.9971 51.6478C88.8109 51.8402 88.8662 52.9946 87.9639 53.0919C86.8803 53.2084 85.7435 53.2069 84.5537 53.0875C83.7509 53.0057 83.8858 51.9619 84.3237 51.6191C84.3768 51.5778 84.4033 51.524 84.4033 51.4576V44.6041C84.4036 44.5685 84.3905 44.5341 84.3669 44.5075C84.3432 44.481 84.3105 44.4642 84.2751 44.4603L83.7001 44.3984C83.6234 44.3896 83.5585 44.3571 83.5055 44.3011C82.6408 43.3789 83.7952 42.8194 84.5228 42.596C85.2393 42.3749 86.1283 42.4412 86.9046 42.408C86.9245 42.4071 86.9444 42.4103 86.963 42.4174C86.9816 42.4244 86.9986 42.4352 87.0129 42.4491C87.0272 42.463 87.0385 42.4797 87.0461 42.4981C87.0537 42.5165 87.0575 42.5363 87.0572 42.5562L87.055 43.7659C87.055 43.8101 87.069 43.8146 87.097 43.7792Z" fill="#F0F3FA"/>
<path d="M33.1599 44.1089C35.3065 42.7304 37.552 42.7267 39.8962 44.0979C40.2987 44.3323 40.5154 45.1152 40.5088 45.6349C40.4793 47.8243 40.4985 50.0115 40.5663 52.1965C40.626 54.0962 42.0856 54.2201 43.5607 54.2378C46.2249 54.2717 48.8905 54.2857 51.5576 54.2798C53.4352 54.2731 54.7179 54.9543 55.4455 56.7125C55.8988 57.8116 55.7728 59.2159 54.2136 59.1407C52.3626 59.0545 53.329 56.6107 50.6641 56.6129C47.9779 56.6129 45.2923 56.6159 42.6075 56.6218C40.6194 56.6262 38.2176 55.4939 37.3795 53.519C36.6077 51.7011 36.9637 48.6625 36.9814 46.3735C36.9925 44.7901 33.5292 44.4053 33.485 46.1148C33.4407 47.772 33.4201 49.4291 33.423 51.0863C33.423 51.1586 33.4533 51.2146 33.5137 51.2544C34.2811 51.7542 34.2878 53.0303 33.1931 53.1209C32.0195 53.2168 30.8444 53.2131 29.6679 53.1099C28.5488 53.0104 29.0332 51.7188 29.6789 51.3185C29.7095 51.2989 29.7346 51.272 29.752 51.2403C29.7694 51.2086 29.7785 51.1732 29.7784 51.1372V44.9383C29.7785 44.9045 29.7698 44.8711 29.7532 44.8413C29.7365 44.8115 29.7125 44.7863 29.6834 44.768C29.0287 44.3633 28.5732 43.5406 29.6391 43.2774C30.5827 43.0444 31.5388 43.015 32.5075 43.1889C32.8245 43.245 32.9424 43.4845 32.8613 43.9077C32.8038 44.207 32.9033 44.2741 33.1599 44.1089Z" fill="#F0F3FA"/>
<path d="M44.5093 46.2895C43.7618 46.6831 42.2292 46.8025 42.2049 45.5774C42.143 42.4237 47.3113 43.0164 49.1978 43.5427C50.35 43.8656 51.2235 44.4605 51.1859 45.7366C51.1328 47.5427 51.1727 49.3392 51.3053 51.1261C51.354 51.7837 51.6526 52.035 52.201 51.8802C52.2758 51.8592 52.3553 51.8608 52.4293 51.8848C52.5032 51.9089 52.5683 51.9543 52.6163 52.0153C52.6642 52.0763 52.6928 52.1501 52.6984 52.2273C52.704 52.3044 52.6864 52.3815 52.6477 52.4486C51.8427 53.864 49.5074 52.8489 48.5896 52.1368C48.535 52.094 48.482 52.0955 48.4304 52.1412C47.1278 53.2624 43.45 53.6583 42.1297 52.4419C41.3955 51.7674 41.2429 50.6418 41.5547 49.7019C41.9587 48.4811 42.8647 47.8346 44.2727 47.7623C45.7522 47.6871 48.1252 47.6363 47.59 45.323C47.4639 44.7746 46.6855 44.7502 46.2608 44.852C45.593 45.0112 45.0069 46.0285 44.5093 46.2895Z" fill="#F0F3FA"/>
<path d="M68.1136 49.4673C66.8088 51.4223 64.4027 47.634 63.9073 46.7427C63.2704 45.606 63.7503 44.1243 65.1214 44.0314C66.267 43.954 67.7797 46.5304 68.3259 47.415C68.7682 48.1316 68.5515 48.8127 68.1136 49.4673Z" fill="#F52C3F"/>
<path d="M23.1858 49.2086C21.9164 48.1095 20.0565 46.4929 21.7616 45.1593C23.0951 44.1177 24.2672 45.5552 25.1961 46.5791C26.251 47.738 27.1798 48.4877 25.8418 49.8433C24.9838 50.7081 23.8913 49.8212 23.1858 49.2086Z" fill="#F52C3F"/>
<path d="M45.412 51.4025C43.99 50.9536 44.3748 49.6156 45.5049 49.1445C46.1507 48.8747 46.8112 48.63 47.4865 48.4103C47.5499 48.3897 47.5874 48.4125 47.5992 48.4789C47.8337 49.8279 47.3626 52.0173 45.412 51.4025Z" fill="#F52C3F"/>
<path d="M37.6695 76.8661C37.6872 76.8867 37.71 76.8978 37.7381 76.8993C49.7865 77.1049 60.864 68.6237 63.1574 56.7655C63.1707 56.6947 63.2134 56.6593 63.2857 56.6593L65.2207 56.6571C65.3166 56.6571 65.3564 56.705 65.3402 56.8009C63.1043 69.5725 51.799 78.2174 39.2176 78.9228C39.1881 78.9243 39.1623 78.9295 39.1402 78.9383C39.0606 78.9722 39.0657 78.9855 39.1556 78.9781C40.2216 78.8985 41.4313 78.9051 42.3513 78.8255C54.7867 77.7507 65.1279 69.1965 67.5605 56.7765C67.5753 56.6984 67.6225 56.6593 67.7021 56.6593H69.635C69.7057 56.6593 69.7345 56.6932 69.7212 56.761C67.2841 70.5876 55.6935 79.9224 41.9378 80.9309C41.926 80.9324 41.9061 80.9442 41.878 80.9663C41.8544 80.9855 41.8574 80.995 41.8869 80.995C56.4985 80.8623 69.29 71.4434 71.9128 56.7389C71.9246 56.6755 71.9622 56.6446 72.0256 56.646L73.9607 56.6659C73.979 56.6664 73.997 56.6707 74.0135 56.6786C74.0299 56.6865 74.0445 56.6979 74.0563 56.7119C74.068 56.726 74.0766 56.7423 74.0815 56.76C74.0863 56.7776 74.0874 56.7961 74.0845 56.8141C71.674 71.6513 59.086 81.7779 44.4169 82.9655C44.3977 82.9685 44.3889 82.9803 44.3903 83.0009C44.3903 83.0068 44.3896 83.0127 44.3881 83.0186C44.3867 83.026 44.3896 83.0296 44.397 83.0296C59.9949 82.7068 73.6754 72.5226 76.2629 56.7544C76.2747 56.6807 76.3182 56.6446 76.3934 56.646L78.3241 56.6659C78.3963 56.6659 78.4265 56.7021 78.4147 56.7743C74.9935 79.1285 50.6158 90.5798 30.4842 82.4414C19.9021 78.1643 12.0135 69.1854 9.92585 57.8712C9.92143 57.8476 9.93101 57.8322 9.9546 57.8248C9.98114 57.8159 9.99736 57.8218 10.0033 57.8425C11.569 63.1126 15.3176 67.3941 19.9109 70.2912C29.6527 76.4326 42.3801 76.74 51.4407 69.0903C55.2416 65.8807 57.7045 61.7768 58.8294 56.7787C58.8471 56.6991 58.8972 56.6593 58.9798 56.6593H60.8972C60.9857 56.6593 61.021 56.7028 61.0034 56.7898C58.7454 68.1504 49.0611 75.8731 37.7027 76.7931C37.6466 76.7975 37.6356 76.8219 37.6695 76.8661Z" fill="#2F416F"/>
</svg>
