<svg width="100" height="100" viewBox="0 0 100 100" fill="none" xmlns="http://www.w3.org/2000/svg">
<rect width="100" height="100" fill="#FFDFE0"/>
<path d="M35.7822 46.7576C32.4151 45.1404 29.0448 43.5301 25.6713 41.9268C24.9794 41.5981 24.1317 41.4209 23.4039 41.671C22.6875 41.9167 22.3249 42.4987 22.5964 43.266C22.9376 44.2306 23.8828 44.6756 24.8079 45.1186C26.5888 45.9725 28.3703 46.8261 30.1521 47.6795C30.6645 47.925 31.0355 48.1188 31.265 48.2608C33.3364 49.5403 34.7711 51.7486 34.9747 54.1719C35.0602 55.1895 34.9663 56.2457 34.6932 57.3405C34.2214 59.2312 33.1811 60.7558 31.5723 61.9142C30.1464 62.9405 28.6218 63.6072 26.9163 63.8825C24.6568 64.2466 22.3907 64.1347 20.1178 63.5469C19.5405 63.3978 19.053 63.235 18.6555 63.0586C16.9369 62.2961 15.2154 61.5397 13.491 60.7893C13.4679 60.7793 13.4564 60.7615 13.4564 60.7359V52.3626C13.4564 52.3245 13.4738 52.3136 13.5086 52.3299C16.4601 53.7489 19.4232 55.1682 22.3978 56.5876C23.2808 57.0086 25.0423 57.1331 25.7141 56.2024C26.1684 55.5727 25.8749 54.6709 25.3967 54.1197C24.9891 53.6501 24.5035 53.2808 23.94 53.0118C21.9881 52.0804 20.0368 51.1474 18.0861 50.2127C14.8905 48.6812 13.0555 45.2324 13.5249 41.7313C13.8372 39.403 14.91 37.2657 16.9285 35.973C19.1657 34.5408 21.7838 34.2102 24.3761 34.3403C27.2255 34.4842 30.2539 35.6914 32.8091 36.9552C34.7908 37.9356 36.7859 38.8973 38.7943 39.8404C38.8157 39.8504 38.8339 39.8465 38.849 39.8284C41.1931 37.0702 44.3189 35.5023 47.9306 35.1246C50.509 34.855 53.1987 35.0473 55.6434 35.8869C60.1568 37.4372 63.0966 41.2085 63.9123 45.8432C64.2634 47.8395 64.3183 49.8522 64.077 51.8812C64.0755 51.8932 64.0779 51.9053 64.0836 51.9157C64.0894 51.9262 64.0983 51.9346 64.109 51.9397C67.219 53.4324 70.3335 54.9254 73.4526 56.4185C74.0019 56.6812 74.5511 56.8383 75.1004 56.8899C76.4716 57.0187 77.9535 56.2256 77.1346 54.6143C76.7658 53.8885 76.0644 53.3706 75.3455 53.0231C72.9143 51.8475 70.9492 50.9042 69.4501 50.1932C66.6385 48.8603 64.8424 45.8683 64.8694 42.7752C64.8845 41.0633 65.3387 39.4945 66.2319 38.0688C67.4793 36.0779 69.9221 34.8676 72.2046 34.5238C74.3394 34.202 76.4383 34.2347 78.5298 34.7865C81.2974 35.5174 83.8759 36.7233 86.3896 38.0336C86.4085 38.0433 86.4179 38.0588 86.4179 38.0801V46.3453C86.4179 46.3495 86.4168 46.3536 86.4148 46.3572C86.4128 46.3608 86.4099 46.3639 86.4064 46.366C86.4029 46.3682 86.3989 46.3695 86.3947 46.3697C86.3906 46.37 86.3864 46.3691 86.3827 46.3673C83.2556 44.8675 80.1247 43.3665 76.9901 41.8646C76.6499 41.7016 76.2224 41.6015 75.7075 41.5642C74.8616 41.5032 73.7474 41.9324 73.9359 43.0014C74.1207 44.0459 75.2003 44.641 76.0594 45.0501C77.7738 45.8663 79.4871 46.6843 81.1994 47.5042C81.8265 47.8046 82.2026 47.9889 82.3274 48.0572C84.806 49.4178 86.4079 51.9849 86.4167 54.8437C86.4242 57.4316 85.5067 59.8793 83.4819 61.5384C81.7675 62.9417 79.7823 63.7474 77.5293 63.9931C75.3319 64.2332 73.1665 64.0388 71.0332 63.4099C70.6553 63.2985 70.3128 63.174 70.0057 63.0366C68.5297 62.3768 67.0508 61.7234 65.5689 61.0765C64.0977 60.4349 62.6555 59.7122 61.2113 59.0127C61.1916 59.0031 61.1749 59.0067 61.161 59.0234C57.6562 63.3043 52.2253 64.4336 46.9515 63.6437C41.151 62.7739 37.0115 58.7092 35.9626 52.9401C35.5922 50.9048 35.5407 48.8599 35.808 46.8053C35.8109 46.7831 35.8024 46.7672 35.7822 46.7576ZM44.7211 50.4459C44.8481 52.8163 45.4885 55.7285 48.1945 56.4575C51.1356 57.25 53.6003 56.0861 54.6096 53.1859C54.9892 52.0968 55.1293 50.9914 55.157 49.8413C55.2286 46.9279 54.8333 43.0724 51.3757 42.3321C49.5042 41.9318 47.6295 42.2687 46.3324 43.7687C44.7833 45.5592 44.6011 48.1961 44.7211 50.4459Z" fill="#962123"/>
</svg>
