<svg width="100" height="100" viewBox="0 0 100 100" fill="none" xmlns="http://www.w3.org/2000/svg">
<rect width="100" height="100" fill="#EADAC4"/>
<path d="M26.7179 51.2187L22.0229 57.3537C-0.919533 44.6562 15.1905 10.7037 40.7354 20.8737C41.6354 21.2337 41.9304 21.8712 41.6204 22.7862C41.5879 22.8831 41.5258 22.9674 41.4425 23.0279C41.3593 23.0883 41.259 23.1218 41.1554 23.1237C38.9279 23.1612 36.5054 22.9437 34.4504 23.4387C21.4379 26.5512 16.8029 41.8437 26.7179 51.2187Z" fill="#254535"/>
<path d="M60.6025 41.0863L60.4375 43.6588C57.6675 44.2688 55.7475 44.9988 54.6775 45.8488C52.495 47.5663 50.35 49.6288 47.815 50.4988C36.4075 54.4288 26.455 41.2363 34.5025 31.6138C38.3575 27.0088 45.6925 25.8838 50.53 29.5738C50.7016 29.7027 50.8293 29.8814 50.8955 30.0855C50.9618 30.2896 50.9635 30.5092 50.9003 30.7143C50.8371 30.9194 50.7122 31.1 50.5426 31.2315C50.3729 31.3629 50.1669 31.4388 49.9525 31.4488C38.02 32.1163 40.2325 49.2613 52.03 46.7563C52.695 46.6163 53.5975 46.0213 54.7375 44.9713C56.4775 43.3713 58.4325 42.0763 60.6025 41.0863Z" fill="#254535"/>
<path d="M60.4377 43.6588L60.6027 41.0863C82.7952 32.0563 100.593 59.6413 82.4502 75.1963C76.0752 80.6713 68.4852 81.5438 59.6802 77.8138C59.416 77.7035 59.2012 77.4991 59.0773 77.2401C58.9534 76.9811 58.9292 76.6857 59.0093 76.411C59.0894 76.1362 59.2681 75.9015 59.5111 75.752C59.7541 75.6025 60.0441 75.5488 60.3252 75.6013C70.7577 77.4088 80.3727 68.9638 79.3902 58.2013C78.5202 48.6763 69.8052 42.2713 60.4377 43.6588Z" fill="#886F4D"/>
<path d="M22.0225 57.3538L26.7175 51.2188C33.1299 57.0163 42.6849 56.8213 48.9549 51.0688C50.2699 49.8588 51.3574 49.0788 52.2174 48.7288C67.6074 42.4588 76.4199 65.0263 61.6224 70.7638C58.3724 72.0238 54.9074 71.7863 51.2274 70.0513C50.3174 69.6213 49.9299 68.9663 50.0649 68.0863C50.0847 67.9601 50.142 67.8431 50.229 67.7507C50.3161 67.6582 50.4289 67.5948 50.5524 67.5688C51.7449 67.3063 52.9374 67.3363 53.9724 66.8863C60.7749 63.9313 60.5124 54.8863 53.5824 52.2988C48.1074 50.2588 45.0624 55.5463 40.6749 57.6163C34.5349 60.5063 28.3175 60.4188 22.0225 57.3538Z" fill="#886F4D"/>
</svg>
