<svg width="100" height="100" viewBox="0 0 100 100" fill="none" xmlns="http://www.w3.org/2000/svg">
<rect width="100" height="100" fill="#595C62"/>
<path d="M16.1397 52.4102L19.5147 52.082C19.7178 53.2148 20.128 54.0469 20.7452 54.5781C21.3702 55.1094 22.21 55.375 23.2647 55.375C24.3819 55.375 25.2217 55.1406 25.7842 54.6719C26.3545 54.1953 26.6397 53.6406 26.6397 53.0078C26.6397 52.6016 26.5186 52.2578 26.2764 51.9766C26.042 51.6875 25.628 51.4375 25.0342 51.2266C24.628 51.0859 23.7022 50.8359 22.2569 50.4766C20.3975 50.0156 19.0928 49.4492 18.3428 48.7773C17.2881 47.832 16.7608 46.6797 16.7608 45.3203C16.7608 44.4453 17.0069 43.6289 17.4991 42.8711C17.9991 42.1055 18.7139 41.5234 19.6436 41.125C20.5811 40.7266 21.71 40.5273 23.0303 40.5273C25.1866 40.5273 26.8077 41 27.8936 41.9453C28.9873 42.8906 29.5616 44.1523 29.6162 45.7305L26.1475 45.8828C25.9991 45 25.6787 44.3672 25.1866 43.9844C24.7022 43.5938 23.9717 43.3984 22.9952 43.3984C21.9873 43.3984 21.1983 43.6055 20.628 44.0195C20.2608 44.2852 20.0772 44.6406 20.0772 45.0859C20.0772 45.4922 20.2491 45.8398 20.5928 46.1289C21.0303 46.4961 22.0928 46.8789 23.7803 47.2773C25.4678 47.6758 26.7139 48.0898 27.5186 48.5195C28.3311 48.9414 28.9639 49.5234 29.417 50.2656C29.878 51 30.1084 51.9102 30.1084 52.9961C30.1084 53.9805 29.835 54.9023 29.2881 55.7617C28.7412 56.6211 27.9678 57.2617 26.9678 57.6836C25.9678 58.0977 24.7217 58.3047 23.2295 58.3047C21.0577 58.3047 19.3897 57.8047 18.2256 56.8047C17.0616 55.7969 16.3662 54.332 16.1397 52.4102ZM47.2145 55.8203C48.0661 56.4297 48.9919 56.9141 49.9919 57.2734L48.7145 59.7227C48.1911 59.5664 47.6794 59.3516 47.1794 59.0781C47.07 59.0234 46.3005 58.5156 44.8708 57.5547C43.7458 58.0469 42.4997 58.293 41.1325 58.293C38.4919 58.293 36.4216 57.5156 34.9216 55.9609C33.4294 54.4062 32.6833 52.2227 32.6833 49.4102C32.6833 46.6055 33.4333 44.4258 34.9333 42.8711C36.4333 41.3086 38.4684 40.5273 41.0387 40.5273C43.5856 40.5273 45.6052 41.3086 47.0973 42.8711C48.5895 44.4258 49.3356 46.6055 49.3356 49.4102C49.3356 50.8945 49.1286 52.1992 48.7145 53.3242C48.402 54.1836 47.902 55.0156 47.2145 55.8203ZM44.4255 53.8633C44.8708 53.3398 45.2028 52.707 45.4216 51.9648C45.6481 51.2227 45.7614 50.3711 45.7614 49.4102C45.7614 47.4258 45.3239 45.9453 44.4489 44.9688C43.5739 43.9844 42.4294 43.4922 41.0153 43.4922C39.6012 43.4922 38.4528 43.9844 37.57 44.9688C36.695 45.9531 36.2575 47.4336 36.2575 49.4102C36.2575 51.418 36.695 52.9219 37.57 53.9219C38.4528 54.9141 39.5661 55.4102 40.9098 55.4102C41.4098 55.4102 41.8825 55.3281 42.3278 55.1641C41.6247 54.7031 40.9098 54.3438 40.1833 54.0859L41.1559 52.1055C42.2966 52.4961 43.3864 53.082 44.4255 53.8633ZM52.4378 40.8203H59.305C60.6644 40.8203 61.6761 40.8789 62.3402 40.9961C63.012 41.1055 63.6097 41.3398 64.1331 41.6992C64.6644 42.0586 65.1058 42.5391 65.4573 43.1406C65.8089 43.7344 65.9847 44.4023 65.9847 45.1445C65.9847 45.9492 65.7659 46.6875 65.3284 47.3594C64.8988 48.0312 64.3128 48.5352 63.5706 48.8711C64.6175 49.1758 65.4222 49.6953 65.9847 50.4297C66.5472 51.1641 66.8284 52.0273 66.8284 53.0195C66.8284 53.8008 66.6448 54.5625 66.2777 55.3047C65.9183 56.0391 65.4222 56.6289 64.7894 57.0742C64.1644 57.5117 63.3909 57.7812 62.4691 57.8828C61.8909 57.9453 60.4964 57.9844 58.2855 58H52.4378V40.8203ZM55.9066 43.6797V47.6523H58.18C59.5316 47.6523 60.3714 47.6328 60.6995 47.5938C61.2933 47.5234 61.7581 47.3203 62.0941 46.9844C62.4378 46.6406 62.6097 46.1914 62.6097 45.6367C62.6097 45.1055 62.4613 44.6758 62.1644 44.3477C61.8753 44.0117 61.4417 43.8086 60.8636 43.7383C60.5198 43.6992 59.5316 43.6797 57.8988 43.6797H55.9066ZM55.9066 50.5117V55.1055H59.1175C60.3675 55.1055 61.1605 55.0703 61.4964 55C62.012 54.9062 62.43 54.6797 62.7503 54.3203C63.0784 53.9531 63.2425 53.4648 63.2425 52.8555C63.2425 52.3398 63.1175 51.9023 62.8675 51.543C62.6175 51.1836 62.2542 50.9219 61.7777 50.7578C61.3089 50.5938 60.2855 50.5117 58.7073 50.5117H55.9066ZM70.1416 40.8203H77.0088C78.3681 40.8203 79.3798 40.8789 80.0439 40.9961C80.7158 41.1055 81.3134 41.3398 81.8369 41.6992C82.3681 42.0586 82.8095 42.5391 83.1611 43.1406C83.5127 43.7344 83.6884 44.4023 83.6884 45.1445C83.6884 45.9492 83.4697 46.6875 83.0322 47.3594C82.6025 48.0312 82.0166 48.5352 81.2744 48.8711C82.3213 49.1758 83.1259 49.6953 83.6884 50.4297C84.2509 51.1641 84.5322 52.0273 84.5322 53.0195C84.5322 53.8008 84.3486 54.5625 83.9814 55.3047C83.622 56.0391 83.1259 56.6289 82.4931 57.0742C81.8681 57.5117 81.0947 57.7812 80.1728 57.8828C79.5947 57.9453 78.2002 57.9844 75.9892 58H70.1416V40.8203ZM73.6103 43.6797V47.6523H75.8838C77.2353 47.6523 78.0752 47.6328 78.4033 47.5938C78.997 47.5234 79.4619 47.3203 79.7978 46.9844C80.1416 46.6406 80.3134 46.1914 80.3134 45.6367C80.3134 45.1055 80.165 44.6758 79.8681 44.3477C79.5791 44.0117 79.1455 43.8086 78.5673 43.7383C78.2236 43.6992 77.2353 43.6797 75.6025 43.6797H73.6103ZM73.6103 50.5117V55.1055H76.8213C78.0713 55.1055 78.8642 55.0703 79.2002 55C79.7158 54.9062 80.1338 54.6797 80.4541 54.3203C80.7822 53.9531 80.9463 53.4648 80.9463 52.8555C80.9463 52.3398 80.8213 51.9023 80.5713 51.543C80.3213 51.1836 79.958 50.9219 79.4814 50.7578C79.0127 50.5938 77.9892 50.5117 76.4111 50.5117H73.6103Z" fill="#F8F8F8"/>
</svg>
