<svg width="100" height="100" viewBox="0 0 100 100" fill="none" xmlns="http://www.w3.org/2000/svg">
<rect width="100" height="100" fill="#595C62"/>
<path d="M20.9717 52.4102L24.3467 52.082C24.5498 53.2148 24.96 54.0469 25.5772 54.5781C26.2022 55.1094 27.042 55.375 28.0967 55.375C29.2139 55.375 30.0537 55.1406 30.6162 54.6719C31.1866 54.1953 31.4717 53.6406 31.4717 53.0078C31.4717 52.6016 31.3506 52.2578 31.1084 51.9766C30.8741 51.6875 30.46 51.4375 29.8662 51.2266C29.46 51.0859 28.5342 50.8359 27.0889 50.4766C25.2295 50.0156 23.9248 49.4492 23.1748 48.7773C22.1202 47.832 21.5928 46.6797 21.5928 45.3203C21.5928 44.4453 21.8389 43.6289 22.3311 42.8711C22.8311 42.1055 23.5459 41.5234 24.4756 41.125C25.4131 40.7266 26.542 40.5273 27.8623 40.5273C30.0186 40.5273 31.6397 41 32.7256 41.9453C33.8194 42.8906 34.3936 44.1523 34.4483 45.7305L30.9795 45.8828C30.8311 45 30.5108 44.3672 30.0186 43.9844C29.5342 43.5938 28.8037 43.3984 27.8272 43.3984C26.8194 43.3984 26.0303 43.6055 25.46 44.0195C25.0928 44.2852 24.9092 44.6406 24.9092 45.0859C24.9092 45.4922 25.0811 45.8398 25.4248 46.1289C25.8623 46.4961 26.9248 46.8789 28.6123 47.2773C30.2998 47.6758 31.5459 48.0898 32.3506 48.5195C33.1631 48.9414 33.7959 49.5234 34.2491 50.2656C34.71 51 34.9405 51.9102 34.9405 52.9961C34.9405 53.9805 34.667 54.9023 34.1202 55.7617C33.5733 56.6211 32.7998 57.2617 31.7998 57.6836C30.7998 58.0977 29.5537 58.3047 28.0616 58.3047C25.8897 58.3047 24.2217 57.8047 23.0577 56.8047C21.8936 55.7969 21.1983 54.332 20.9717 52.4102ZM52.0466 55.8203C52.8981 56.4297 53.8239 56.9141 54.8239 57.2734L53.5466 59.7227C53.0231 59.5664 52.5114 59.3516 52.0114 59.0781C51.902 59.0234 51.1325 58.5156 49.7028 57.5547C48.5778 58.0469 47.3317 58.293 45.9645 58.293C43.3239 58.293 41.2536 57.5156 39.7536 55.9609C38.2614 54.4062 37.5153 52.2227 37.5153 49.4102C37.5153 46.6055 38.2653 44.4258 39.7653 42.8711C41.2653 41.3086 43.3005 40.5273 45.8708 40.5273C48.4177 40.5273 50.4372 41.3086 51.9294 42.8711C53.4216 44.4258 54.1677 46.6055 54.1677 49.4102C54.1677 50.8945 53.9606 52.1992 53.5466 53.3242C53.2341 54.1836 52.7341 55.0156 52.0466 55.8203ZM49.2575 53.8633C49.7028 53.3398 50.0348 52.707 50.2536 51.9648C50.4802 51.2227 50.5934 50.3711 50.5934 49.4102C50.5934 47.4258 50.1559 45.9453 49.2809 44.9688C48.4059 43.9844 47.2614 43.4922 45.8473 43.4922C44.4333 43.4922 43.2848 43.9844 42.402 44.9688C41.527 45.9531 41.0895 47.4336 41.0895 49.4102C41.0895 51.418 41.527 52.9219 42.402 53.9219C43.2848 54.9141 44.3981 55.4102 45.7419 55.4102C46.2419 55.4102 46.7145 55.3281 47.1598 55.1641C46.4567 54.7031 45.7419 54.3438 45.0153 54.0859L45.988 52.1055C47.1286 52.4961 48.2184 53.082 49.2575 53.8633ZM57.2698 40.8203H64.137C65.4964 40.8203 66.5081 40.8789 67.1722 40.9961C67.8441 41.1055 68.4417 41.3398 68.9652 41.6992C69.4964 42.0586 69.9378 42.5391 70.2894 43.1406C70.6409 43.7344 70.8167 44.4023 70.8167 45.1445C70.8167 45.9492 70.598 46.6875 70.1605 47.3594C69.7308 48.0312 69.1448 48.5352 68.4027 48.8711C69.4495 49.1758 70.2542 49.6953 70.8167 50.4297C71.3792 51.1641 71.6605 52.0273 71.6605 53.0195C71.6605 53.8008 71.4769 54.5625 71.1097 55.3047C70.7503 56.0391 70.2542 56.6289 69.6214 57.0742C68.9964 57.5117 68.223 57.7812 67.3011 57.8828C66.723 57.9453 65.3284 57.9844 63.1175 58H57.2698V40.8203ZM60.7386 43.6797V47.6523H63.012C64.3636 47.6523 65.2034 47.6328 65.5316 47.5938C66.1253 47.5234 66.5902 47.3203 66.9261 46.9844C67.2698 46.6406 67.4417 46.1914 67.4417 45.6367C67.4417 45.1055 67.2933 44.6758 66.9964 44.3477C66.7073 44.0117 66.2738 43.8086 65.6956 43.7383C65.3519 43.6992 64.3636 43.6797 62.7308 43.6797H60.7386ZM60.7386 50.5117V55.1055H63.9495C65.1995 55.1055 65.9925 55.0703 66.3284 55C66.8441 54.9062 67.262 54.6797 67.5823 54.3203C67.9105 53.9531 68.0745 53.4648 68.0745 52.8555C68.0745 52.3398 67.9495 51.9023 67.6995 51.543C67.4495 51.1836 67.0863 50.9219 66.6097 50.7578C66.1409 50.5938 65.1175 50.5117 63.5394 50.5117H60.7386ZM74.8564 58V40.8203H78.3252V58H74.8564Z" fill="#F8F8F8"/>
</svg>
