<svg width="100" height="100" viewBox="0 0 100 100" fill="none" xmlns="http://www.w3.org/2000/svg">
<rect width="100" height="100" fill="#E41E26"/>
<path d="M11.0906 53.2439C11.0881 53.2292 11.081 53.2157 11.0704 53.2052C11.0597 53.1947 11.0461 53.1878 11.0312 53.1854C11.0163 53.1829 11.0009 53.1851 10.9871 53.1915C10.9732 53.1979 10.9616 53.2084 10.9537 53.2214L8.0775 58.0026C8.05125 58.0451 8.01313 58.0664 7.96313 58.0664H6.14625C6.07125 58.0664 6.02813 58.0295 6.01688 57.9558C5.34563 53.6295 4.6775 49.3045 4.0125 44.9808C3.92438 44.4108 3.68438 44.0864 3.1125 44.0377C3.08154 44.0344 3.05289 44.0199 3.0321 43.9971C3.01131 43.9742 2.99987 43.9446 3 43.9139V42.1289C3 42.0664 3.03125 42.0352 3.09375 42.0352H10.9688C11.0312 42.0352 11.0625 42.0664 11.0625 42.1289V43.9027C11.0625 43.9727 11.0287 44.0133 10.9612 44.0245C10.2512 44.1508 9.96188 44.597 10.0931 45.3633C10.2956 46.562 10.5994 47.7364 11.0044 48.8864C11.0087 48.8979 11.0163 48.9078 11.0262 48.915C11.0362 48.9221 11.0481 48.9262 11.0603 48.9266C11.0726 48.927 11.0847 48.9237 11.0951 48.9172C11.1055 48.9108 11.1137 48.9013 11.1188 48.8901L14.0212 42.127C14.0475 42.0658 14.0937 42.0352 14.16 42.0352H15.9844C16.0469 42.0352 16.0781 42.0664 16.0781 42.1289V48.8808C16.0781 48.9895 16.1163 49.0052 16.1925 48.9277C16.6894 48.4233 20.7769 44.4877 18.1913 44.0302C18.1263 44.0177 18.0938 43.9783 18.0938 43.912V42.1289C18.0938 42.0664 18.125 42.0352 18.1875 42.0352H23.0156C23.0781 42.0352 23.1094 42.0664 23.1094 42.1289V43.9045C23.1094 43.972 23.0763 44.0058 23.01 44.0058H22.1981C22.1688 44.0057 22.1401 44.0138 22.1153 44.029C22.0904 44.0443 22.0704 44.0661 22.0575 44.092L15.1125 57.982C15.0837 58.0408 15.0362 58.0701 14.97 58.0701L12.1425 58.0645C12.0825 58.0645 12.0463 58.0351 12.0337 57.9764L11.0906 53.2439Z" fill="white"/>
<path d="M26.1994 44.0189C26.1394 44.0102 26.1094 43.9758 26.1094 43.9158V42.1289C26.1094 42.0664 26.1406 42.0352 26.2031 42.0352H34.0763C34.0912 42.0352 34.1055 42.0411 34.116 42.0516C34.1266 42.0622 34.1325 42.0765 34.1325 42.0914L34.1287 43.8333C34.1287 43.9745 34.0581 44.047 33.9169 44.0508C32.895 44.0752 32.2406 44.452 32.0212 45.4833C31.3737 48.5183 30.7775 51.5601 30.2325 54.6089C30.0975 55.3589 30.1744 55.9476 31.0162 56.0658C31.0887 56.077 31.125 56.1189 31.125 56.1914V57.9726C31.125 58.0351 31.0937 58.0664 31.0312 58.0664H23.2031C23.1406 58.0664 23.1094 58.0351 23.1094 57.9726V56.1895C23.1094 56.1195 23.1438 56.082 23.2125 56.077C24.0938 56.0039 24.75 56.062 25.095 55.057C26.1187 52.0758 26.625 48.8245 27.1612 45.7233C27.3037 44.8908 27.1406 44.152 26.1994 44.0189Z" fill="white"/>
<path d="M37.1006 45.5152C37.215 44.7464 37.0912 44.1595 36.2625 44.0227C36.2075 44.0139 36.18 43.982 36.18 43.927V42.1327C36.18 42.0677 36.2125 42.0352 36.2775 42.0352H44.1094C44.1719 42.0352 44.2031 42.0664 44.2031 42.1289V43.732C44.2031 43.932 44.1037 44.0352 43.905 44.0414C42.8944 44.0752 42.2419 44.3583 42.1369 45.4214C41.8631 48.2101 41.5606 50.9914 41.2294 53.7651C41.1188 54.6914 41.1469 56.2533 42.5194 56.047C44.0062 55.822 44.625 53.6226 45.1331 52.1676C45.1436 52.1381 45.1631 52.1124 45.189 52.0943C45.2148 52.0762 45.2457 52.0664 45.2775 52.0664H47.0981C47.1644 52.0664 47.1869 52.0976 47.1656 52.1601L45.2269 57.9708C45.2056 58.0345 45.1612 58.0664 45.0937 58.0664H33.2813C33.1875 58.0664 33.1406 58.0195 33.1406 57.9258V57.1795C33.1406 57.1546 33.1501 57.1306 33.1672 57.1125C33.1843 57.0944 33.2076 57.0835 33.2325 57.082C34.0331 57.0408 34.9912 56.9133 35.1844 56.0133C35.9344 52.5345 36.5731 49.0351 37.1006 45.5152Z" fill="white"/>
<path d="M61.2167 44.0039H59.3211C59.3038 44.0041 59.2872 44.0105 59.2742 44.0218C59.2611 44.0331 59.2525 44.0487 59.2499 44.0658L57.253 56.0508C57.2511 56.0623 57.252 56.0741 57.2556 56.0851C57.2592 56.0962 57.2653 56.1063 57.2736 56.1145L58.2449 57.0839C58.258 57.0975 58.2654 57.1156 58.2655 57.1345V57.9933C58.2655 58.0127 58.2578 58.0313 58.2441 58.045C58.2304 58.0587 58.2117 58.0664 58.1924 58.0664H50.3042C50.2945 58.0664 50.2848 58.0644 50.2758 58.0606C50.2668 58.0569 50.2587 58.0513 50.2518 58.0443C50.245 58.0373 50.2397 58.029 50.2361 58.0199C50.2326 58.0109 50.2309 58.0012 50.2311 57.9914L50.2592 57.1158C50.2599 57.1027 50.2642 57.0901 50.2714 57.0792C50.2787 57.0683 50.2887 57.0596 50.3005 57.0539L52.2036 56.1089C52.214 56.1036 52.2231 56.096 52.2299 56.0865C52.2368 56.077 52.2412 56.0661 52.243 56.0545L54.2286 44.0883C54.2302 44.0779 54.2296 44.0674 54.2268 44.0573C54.2239 44.0472 54.219 44.0378 54.2122 44.0298C54.2055 44.0218 54.1971 44.0154 54.1876 44.0109C54.1781 44.0064 54.1678 44.004 54.1574 44.0039H52.2861C52.2724 44.0039 52.259 44.0078 52.2474 44.0151C52.2358 44.0224 52.2265 44.0328 52.2205 44.0452L50.248 47.9939C50.242 48.0062 50.2327 48.0166 50.2211 48.0239C50.2095 48.0312 50.1961 48.0351 50.1824 48.0352H49.3124C49.3019 48.035 49.2916 48.0326 49.2821 48.0281C49.2726 48.0237 49.2642 48.0172 49.2575 48.0092C49.2507 48.0012 49.2458 47.9919 49.2429 47.9818C49.2401 47.9717 49.2395 47.9611 49.2411 47.9508L50.2124 42.097C50.215 42.08 50.2236 42.0644 50.2367 42.0531C50.2497 42.0417 50.2663 42.0354 50.2836 42.0352H64.1867C64.1972 42.0353 64.2075 42.0377 64.217 42.0422C64.2264 42.0466 64.2348 42.0531 64.2416 42.0611C64.2484 42.0691 64.2533 42.0784 64.2561 42.0885C64.259 42.0986 64.2596 42.1092 64.258 42.1195L63.2849 47.9733C63.2822 47.9903 63.2736 48.0059 63.2605 48.0172C63.2475 48.0286 63.2309 48.0349 63.2136 48.0352H62.3361C62.32 48.0348 62.3044 48.029 62.2918 48.0188C62.2793 48.0087 62.2705 47.9946 62.2667 47.9789L61.2861 44.0602C61.2824 44.0444 61.2736 44.0304 61.261 44.0202C61.2485 44.01 61.2329 44.0043 61.2167 44.0039Z" fill="white"/>
<path d="M82.4025 56.0939L84.3431 57.0689C84.3528 57.0738 84.3609 57.0813 84.3666 57.0906C84.3722 57.0999 84.3751 57.1105 84.375 57.1214V58.0083C84.375 58.0237 84.3689 58.0385 84.358 58.0494C84.3471 58.0603 84.3323 58.0664 84.3169 58.0664H79.4175C79.4021 58.0664 79.3873 58.0603 79.3764 58.0494C79.3655 58.0385 79.3594 58.0237 79.3594 58.0083V57.1176C79.3593 57.1068 79.3622 57.0961 79.3678 57.0868C79.3734 57.0776 79.3816 57.07 79.3913 57.0651L81.345 56.0883C81.3532 56.0843 81.3603 56.0786 81.3658 56.0714C81.3714 56.0643 81.3751 56.0559 81.3769 56.047L83.3625 45.067C83.3642 45.058 83.3637 45.0487 83.3611 45.0399C83.3585 45.0311 83.3538 45.0231 83.3475 45.0164L82.3763 44.0433C82.3709 44.0379 82.3666 44.0314 82.3637 44.0243C82.3608 44.0173 82.3593 44.0097 82.3594 44.002V42.0933C82.3594 42.0779 82.3655 42.0631 82.3764 42.0522C82.3873 42.0413 82.4021 42.0352 82.4175 42.0352H89.3531C89.3649 42.0351 89.3765 42.0387 89.3862 42.0454C89.3959 42.0521 89.4033 42.0616 89.4075 42.0727L92.3381 49.8595C92.3424 49.8719 92.3507 49.8824 92.3617 49.8894C92.3728 49.8965 92.3858 49.8996 92.3988 49.8983C92.4118 49.897 92.424 49.8913 92.4334 49.8823C92.4428 49.8732 92.4489 49.8612 92.4506 49.8483L93.4181 44.0583C93.4198 44.0493 93.4193 44.04 93.4167 44.0312C93.4141 44.0224 93.4095 44.0143 93.4031 44.0077L92.46 43.0664C92.4546 43.061 92.4504 43.0545 92.4475 43.0475C92.4446 43.0404 92.4431 43.0328 92.4431 43.0252L92.4281 42.0952C92.4279 42.0874 92.4292 42.0796 92.432 42.0723C92.4348 42.0651 92.439 42.0584 92.4445 42.0528C92.4499 42.0472 92.4564 42.0428 92.4636 42.0398C92.4707 42.0367 92.4785 42.0352 92.4863 42.0352H96.3638C96.3792 42.0352 96.3939 42.0413 96.4049 42.0522C96.4158 42.0631 96.4219 42.0779 96.4219 42.0933V43.0158C96.4219 43.0234 96.4204 43.031 96.4176 43.0381C96.4147 43.0452 96.4104 43.0516 96.405 43.057L95.4338 44.0095C95.4249 44.0181 95.419 44.0293 95.4169 44.0414L93.42 58.0158C93.4182 58.0298 93.4112 58.0428 93.4005 58.0521C93.3898 58.0614 93.3761 58.0665 93.3619 58.0664H89.4356C89.4246 58.0663 89.4138 58.0631 89.4045 58.0572C89.3952 58.0512 89.3878 58.0427 89.3831 58.0326L84.4463 47.1989C84.4411 47.1881 84.4327 47.1792 84.4222 47.1734C84.4118 47.1676 84.3998 47.1651 84.3879 47.1664C84.376 47.1676 84.3648 47.1725 84.3558 47.1803C84.3468 47.1881 84.3404 47.1986 84.3375 47.2102L82.3706 56.0283C82.3677 56.0412 82.3692 56.0548 82.375 56.0667C82.3808 56.0786 82.3905 56.0882 82.4025 56.0939Z" fill="white"/>
<path fill-rule="evenodd" clip-rule="evenodd" d="M65.7284 54.0802C66.1877 55.8258 67.5996 57.442 69.3715 57.8377C73.6878 58.7995 77.7865 56.572 79.459 52.5483C80.6853 49.5989 81.0209 45.0933 77.9402 43.1264C73.0952 40.0346 67.7384 43.807 65.9328 48.4027C65.134 50.4314 65.179 52.0027 65.7284 54.0802ZM70.2415 54.3933C70.0521 55.1733 70.2378 55.8708 71.1153 56.0283C72.1709 56.2195 72.994 55.3083 73.2396 54.3783C73.7446 52.4695 74.4596 49.607 75.3846 45.7908C76.0071 43.2183 72.9528 43.7264 72.4484 45.5845C72.0321 47.1283 71.2965 50.0645 70.2415 54.3933Z" fill="white"/>
</svg>
