<svg width="100" height="100" viewBox="0 0 100 100" fill="none" xmlns="http://www.w3.org/2000/svg">
<rect width="100" height="100" fill="#E4F4FF"/>
<path d="M61.8122 66.1662L58.471 68.7031C53.8547 71.8568 48.961 74.6655 43.7898 77.1293C43.741 77.2305 43.6735 77.238 43.5873 77.1518C43.5123 77.073 43.5198 77.0037 43.6098 76.9437C47.461 74.4274 51.0441 71.4687 54.3591 68.0674L57.4753 64.6699C60.7153 60.8899 66.5878 52.4918 65.2828 47.2437C63.7416 41.0506 56.5585 47.6825 54.9441 49.8368C54.1116 50.9506 53.9185 50.8493 54.3647 49.5331C57.7903 39.4981 66.7734 30.4025 75.6553 25.0812C78.1584 23.5794 84.599 20.84 85.1615 26.0094C85.8421 32.2137 83.1421 39.0593 80.1609 44.51C75.5746 52.8949 69.4584 60.1137 61.8122 66.1662Z" fill="#00A735"/>
<path d="M57.4754 64.6699L54.3592 68.0674C41.3711 65.7836 29.6543 60.8336 19.9512 51.9799C17.1912 49.4636 15.2075 46.4805 14 43.0305V42.4343C14.8044 39.6218 18.2862 38.8849 20.8006 38.8905C32.0955 38.8905 44.9542 42.693 53.448 50.4668C53.4841 50.4995 53.5071 50.5443 53.5129 50.5927C53.5187 50.6411 53.5068 50.69 53.4794 50.7303C53.4521 50.7707 53.4111 50.7998 53.364 50.8124C53.3168 50.8249 53.2668 50.82 53.223 50.7986C50.5567 49.5649 47.748 49.0418 44.7967 49.2293C40.803 49.4824 41.8436 53.7574 43.5424 55.7936C46.9961 59.9336 52.4805 62.8249 57.4754 64.6699Z" fill="#0066AB"/>
<path d="M61.8119 66.1661C66.3794 67.5011 70.705 68.3168 74.7888 68.613C76.2588 68.7218 76.2588 68.8268 74.7888 68.928C69.7338 69.273 64.2944 69.198 58.4707 68.703L61.8119 66.1661Z" fill="#0066AB"/>
</svg>
