<svg width="100" height="100" viewBox="0 0 100 100" fill="none" xmlns="http://www.w3.org/2000/svg">
<rect width="100" height="100" fill="#FFE0BB"/>
<path d="M19.6598 60.236C21.0004 60.6466 22.4892 60.3935 23.4848 59.3829C25.2792 57.566 24.0023 54.6335 22.3448 53.2254C18.8179 50.2329 12.0848 49.4323 10.7292 44.3791C9.67167 40.4454 12.5985 36.9729 16.3635 36.2266C20.7792 35.3529 25.4273 37.0573 28.3167 40.4473C28.3325 40.4658 28.3444 40.4874 28.3516 40.5107C28.3588 40.5341 28.3612 40.5587 28.3585 40.583C28.3559 40.6074 28.3484 40.631 28.3363 40.6525C28.3243 40.674 28.308 40.6928 28.2885 40.7079L24.2798 43.7285C24.2657 43.7393 24.2492 43.7465 24.2318 43.7495C24.2143 43.7526 24.1963 43.7514 24.1794 43.7461C24.1625 43.7407 24.1472 43.7314 24.1346 43.7189C24.122 43.7064 24.1127 43.691 24.1073 43.6741C23.5985 42.1004 22.6873 40.7816 21.3735 39.7179C19.3954 38.1148 15.1598 38.0679 14.826 41.4016C14.6404 43.2616 16.2473 44.5179 17.7623 45.266C20.0704 46.406 22.4123 47.3754 24.5948 48.8998C27.381 50.8479 28.7742 54.0279 27.981 57.3485C27.1504 60.8266 24.471 63.5323 20.8598 63.7685C16.4498 64.0554 12.2873 61.3929 10.0448 57.6579C10.0032 57.5882 9.98992 57.5052 10.0077 57.426C10.0255 57.3468 10.073 57.2775 10.1404 57.2323L14.3085 54.431C14.5048 54.2985 14.6548 54.3391 14.7585 54.5529C15.651 56.3885 17.6254 59.6116 19.6598 60.236Z" fill="#D53127"/>
<path d="M37.521 36.4703C51.3791 37.3178 65.2091 37.046 79.0541 36.3203C79.1003 36.3177 79.1458 36.3319 79.1821 36.3602C79.2183 36.3885 79.2429 36.429 79.251 36.4741C79.5035 37.9028 80.106 39.1591 81.0585 40.2428C81.1173 40.3103 81.1016 40.3416 81.0116 40.3366C72.531 39.8716 64.056 39.296 55.566 39.1328C54.856 39.1203 54.1166 39.1916 53.3479 39.3466C53.2569 39.3652 53.1752 39.4148 53.1164 39.4873C53.0577 39.5597 53.0255 39.6504 53.0254 39.7441L53.0216 55.196C53.0211 55.2767 52.9889 55.3539 52.932 55.4108C52.8751 55.4678 52.7981 55.4997 52.7179 55.4997H48.4298C48.3676 55.4997 48.308 55.475 48.264 55.4311C48.2201 55.3871 48.1954 55.3275 48.1954 55.2653V39.8416C48.1955 39.7499 48.1605 39.6616 48.0974 39.5947C48.0344 39.5277 47.948 39.4873 47.856 39.4816C46.5835 39.4066 45.3098 39.4066 44.0348 39.4816C40.8348 39.6691 37.6385 39.9153 34.446 40.2203C34.0498 40.2578 33.6785 40.2735 33.3323 40.2672C33.2951 40.2662 33.2589 40.2557 33.227 40.2367C33.195 40.2177 33.1685 40.1909 33.1499 40.1588C33.1313 40.1266 33.1212 40.0902 33.1206 40.0531C33.1201 40.0159 33.129 39.9793 33.1467 39.9466C33.7192 38.8878 34.0466 37.7578 34.1291 36.5566C34.1315 36.5184 34.1414 36.481 34.1583 36.4467C34.1751 36.4123 34.1986 36.3816 34.2274 36.3564C34.2561 36.3311 34.2896 36.3118 34.3258 36.2995C34.362 36.2872 34.4003 36.2822 34.4385 36.2847C35.446 36.3435 36.4735 36.4053 37.521 36.4703Z" fill="#D53127"/>
<path d="M78.201 50.5234C80.0123 51.4059 81.921 51.9628 83.9273 52.1941C83.9443 52.1961 83.9604 52.203 83.9738 52.2137C83.9871 52.2245 83.9972 52.2388 84.0029 52.255C84.0085 52.2712 84.0095 52.2886 84.0058 52.3054C84.002 52.3221 83.9937 52.3375 83.9816 52.3497C83.0929 53.2672 82.196 54.1928 81.291 55.1266C81.0698 55.3534 80.9104 55.4059 80.5879 55.3159C78.4954 54.7334 76.6835 53.6947 75.1523 52.1997C75.121 52.1692 75.0837 52.1454 75.0427 52.13C75.0018 52.1146 74.9581 52.1078 74.9144 52.1101C74.8708 52.1124 74.828 52.1237 74.7889 52.1433C74.7498 52.1629 74.7152 52.1904 74.6873 52.2241C73.3873 53.7928 71.8248 55.0334 69.9998 55.9459C69.946 55.9722 69.8973 55.9653 69.8535 55.9253C68.8373 54.9928 67.761 54.1341 66.6248 53.3491C66.6104 53.3396 66.5991 53.3261 66.5923 53.3103C66.5855 53.2945 66.5834 53.2771 66.5864 53.2601C66.5894 53.2432 66.5973 53.2275 66.6091 53.215C66.6209 53.2024 66.6362 53.1937 66.6529 53.1897C68.6854 52.6772 70.5454 51.8028 72.2329 50.5666C72.2439 50.5587 72.253 50.5485 72.2595 50.5366C72.2661 50.5248 72.2698 50.5116 72.2705 50.4981C72.2713 50.4846 72.2689 50.471 72.2637 50.4586C72.2585 50.4461 72.2505 50.4349 72.2404 50.4259C70.6654 49.0047 69.0904 48.2116 66.9191 47.1166C66.8454 47.0803 66.841 47.0366 66.906 46.9853C68.0298 46.0966 68.9854 45.0528 69.7729 43.8541C69.7905 43.8272 69.8134 43.8042 69.8402 43.7865C69.8671 43.7687 69.8973 43.7567 69.9291 43.7511C69.9609 43.7455 69.9935 43.7464 70.025 43.7538C70.0565 43.7612 70.0862 43.7749 70.1123 43.7941C71.7935 45.0228 73.3079 46.4297 74.6554 48.0147C74.7504 48.1272 74.8498 48.1316 74.9535 48.0278C76.5154 46.4528 78.0491 44.8666 79.9523 43.6928C79.9991 43.664 80.0553 43.6544 80.109 43.6659C80.1628 43.6774 80.2101 43.7092 80.241 43.7547C81.086 45.0022 82.0716 46.1272 83.1979 47.1297C83.2092 47.1396 83.2178 47.1523 83.2227 47.1666C83.2276 47.1808 83.2286 47.1961 83.2258 47.2109C83.223 47.2257 83.2163 47.2395 83.2065 47.2509C83.1966 47.2623 83.184 47.2709 83.1698 47.2759C81.1054 48.0278 79.176 48.6616 78.1279 50.2591C78.1138 50.281 78.1044 50.3056 78.1004 50.3314C78.0965 50.3571 78.098 50.3834 78.1049 50.4084C78.1118 50.4334 78.124 50.4566 78.1406 50.4764C78.1571 50.4963 78.1777 50.5123 78.201 50.5234Z" fill="#D53127"/>
<path d="M47.1661 43.8297H42.8949C42.7665 43.8297 42.6624 43.9338 42.6624 44.0622V55.4547C42.6624 55.5831 42.7665 55.6872 42.8949 55.6872H47.1661C47.2945 55.6872 47.3986 55.5831 47.3986 55.4547V44.0622C47.3986 43.9338 47.2945 43.8297 47.1661 43.8297Z" fill="#D53127"/>
<path fill-rule="evenodd" clip-rule="evenodd" d="M34.7554 44.0979C34.1123 44.4092 33.5873 44.8929 33.0754 45.4235C32.9992 45.501 32.9611 45.4854 32.9611 45.3767V43.9217C32.9611 43.8595 32.9364 43.7999 32.8924 43.7559C32.8485 43.712 32.7888 43.6873 32.7267 43.6873H29.1229C29.0593 43.6873 28.9982 43.7126 28.9532 43.7576C28.9082 43.8026 28.8829 43.8636 28.8829 43.9273V55.4998C28.8829 55.5495 28.9027 55.5972 28.9379 55.6324C28.973 55.6675 29.0207 55.6873 29.0704 55.6873H32.7736C32.8233 55.6873 32.871 55.6675 32.9061 55.6324C32.9413 55.5972 32.9611 55.5495 32.9611 55.4998V51.3785C32.9611 51.3649 32.9653 51.3516 32.9732 51.3406C32.9811 51.3295 32.9922 51.321 33.0052 51.3164C33.0182 51.3117 33.0323 51.311 33.0459 51.3144C33.0594 51.3178 33.0717 51.3251 33.0811 51.3354C46.1179 66.3279 72.0642 68.8892 88.4067 58.2148C88.7542 57.9873 89.0935 57.736 89.4248 57.461C89.486 57.4098 89.4804 57.3673 89.4079 57.3335C87.5529 56.471 85.7692 55.481 84.0567 54.3635C84.0144 54.3358 83.9649 54.3212 83.9142 54.3215C83.8635 54.3218 83.8139 54.3371 83.7717 54.3654C83.3948 54.6147 83.005 54.9053 82.6279 55.1865C82.2733 55.4509 81.93 55.7069 81.6192 55.9123C68.3029 64.6929 52.2436 62.021 39.0604 54.5642C38.7548 54.3917 37.5736 53.5723 37.2417 52.9442C37.1767 52.8204 37.2142 52.7554 37.3542 52.7492C39.5423 52.6367 41.5092 51.2604 41.9929 49.0854C42.9248 44.9023 38.1173 42.4685 34.7554 44.0979ZM38.6141 48.0936C38.6141 49.0846 37.8108 49.8879 36.8198 49.8879C35.8288 49.8879 35.0254 49.0846 35.0254 48.0936C35.0254 47.1026 35.8288 46.2992 36.8198 46.2992C37.8108 46.2992 38.6141 47.1026 38.6141 48.0936Z" fill="#D53127"/>
<path fill-rule="evenodd" clip-rule="evenodd" d="M59.0718 53.3952C59.1089 53.3507 59.1599 53.3199 59.2166 53.3079C59.6093 53.2204 60.0325 53.2093 60.44 53.1987C60.801 53.1893 61.1496 53.1802 61.4534 53.1185C62.5222 52.8997 63.451 52.4954 64.2397 51.9054C66.8403 49.9591 66.3678 46.3685 63.9378 44.5385C61.8434 42.9597 58.911 42.5622 56.6741 44.0529C52.9541 46.5335 52.7928 52.2279 56.5541 54.7966C59.5634 56.8497 63.6228 56.5029 65.8897 53.4972C66.3397 52.8997 66.2534 52.4279 65.6309 52.0816C65.5439 52.0333 65.4445 52.0118 65.3454 52.0198C65.2463 52.0278 65.1519 52.065 65.0741 52.1266C63.2534 53.561 61.581 54.4816 59.2016 53.8104C59.1457 53.7949 59.0967 53.7612 59.0622 53.7146C59.0278 53.668 59.0101 53.6111 59.0118 53.5532C59.0135 53.4953 59.0347 53.4396 59.0718 53.3952ZM61.6596 47.1905C62.2317 47.978 61.9947 49.1256 61.1301 49.7537C60.2655 50.3819 59.1008 50.2527 58.5287 49.4652C57.9565 48.6777 58.1936 47.5301 59.0582 46.9019C59.9227 46.2738 61.0874 46.403 61.6596 47.1905Z" fill="#D53127"/>
</svg>
