<svg width="100" height="100" viewBox="0 0 100 100" fill="none" xmlns="http://www.w3.org/2000/svg">
<rect width="100" height="100" fill="#EFFFE8"/>
<g clip-path="url(#clip0_105_1837)">
<path d="M50.0408 71.0742C50.0323 75.6195 50.0204 80.1649 50.005 84.7106C50.0001 86.2175 50.0226 87.7217 49.9978 89.2292C49.9975 89.2479 49.9822 89.2681 49.9521 89.2898" stroke="#765E30" stroke-width="0.110117"/>
<path d="M48.9987 10H50.1136C50.317 10.065 50.5244 10.1017 50.7358 10.1101C50.9244 10.1175 51.0659 10.1312 51.1603 10.1514C54.3482 10.827 56.7751 12.863 57.857 15.9507C58.3575 17.3789 58.4148 18.9134 58.1434 20.4507C57.6566 23.2085 55.7472 25.5083 53.2321 26.7075C52.9179 26.8573 52.4224 27.0342 51.7456 27.2383C51.6189 27.2768 51.4901 27.2724 51.3646 27.2999C50.4873 27.4919 49.6287 27.5433 48.7889 27.4541C48.1794 27.3897 47.4758 27.2757 46.8795 27.0747C43.6112 25.9736 41.4606 23.3445 40.9045 19.954C40.8653 19.7147 40.846 19.437 40.8467 19.121C40.8478 18.6266 40.823 18.1151 40.8919 17.6427C41.4568 13.766 44.2108 10.9288 48.0087 10.1465C48.0946 10.1288 48.2216 10.1184 48.3897 10.1151C48.5979 10.1114 48.8008 10.073 48.9987 10Z" fill="#005138"/>
<path d="M50.0474 35.8025C50.0316 38.598 50.0244 41.4115 50.0259 44.2429C50.0259 44.3582 50.0075 44.4659 49.9708 44.5661C49.8646 44.3999 49.8139 44.2088 49.7192 44.0563C49.4241 43.5813 49.2228 43.2785 49.1152 43.1478C48.3356 42.2038 47.4108 41.4315 46.3408 40.831C41.876 38.3262 37.4096 35.8236 32.9418 33.3232C32.7678 33.2252 32.3637 32.9829 32.0658 32.8271C31.6006 32.5843 31.2432 32.1879 30.9867 31.7381C30.7461 31.3169 30.6293 30.7145 30.5858 30.2377C30.5385 29.7196 30.484 29.2087 30.4834 28.6851C30.4801 26.3198 30.4801 23.9544 30.4834 21.5891C30.4834 21.5421 30.4935 21.5398 30.5137 21.582C30.5662 21.6928 30.6014 21.8196 30.6194 21.9624C30.6426 22.1458 30.7406 22.312 30.8116 22.4668C31.1419 23.1891 31.5659 23.765 32.2519 24.1631C32.6003 24.365 33.06 24.6228 33.6311 24.9367C38.2839 27.4914 42.9369 30.0459 47.5901 32.6003C47.7788 32.7042 48.0245 32.9042 48.3273 33.2004C49.0376 33.8953 49.57 34.7066 49.9246 35.6345C49.9461 35.6913 50.0061 35.7518 50.0474 35.8025Z" fill="#005138"/>
<path d="M49.9707 44.5663C50.0074 44.4661 50.0258 44.3583 50.0258 44.2431C50.0243 41.4116 50.0315 38.5981 50.0472 35.8026C50.5246 34.5285 51.5239 33.0238 52.7655 32.4468C52.9351 32.3681 53.0788 32.2618 53.2263 32.182C54.3513 31.5715 55.4734 30.9553 56.5926 30.3331C56.7324 30.2555 56.9196 30.1866 57.0358 30.1123C57.3926 29.8844 57.7747 29.6895 58.1447 29.4863C61.1648 27.8268 64.1852 26.1677 67.2057 24.509C67.4468 24.3769 67.694 24.2271 67.939 24.0834C68.2342 23.9105 68.6036 23.5257 68.7583 23.3214C68.904 23.1291 69.0597 22.8576 69.2252 22.5071C69.3557 22.2312 69.4278 21.9119 69.533 21.6107C69.5344 21.6063 69.5373 21.6026 69.5412 21.6003C69.5451 21.5979 69.5498 21.597 69.5543 21.5978C69.5589 21.5986 69.5631 21.601 69.5661 21.6046C69.5692 21.6082 69.5709 21.6127 69.571 21.6173C69.5746 23.9125 69.5726 26.2112 69.5649 28.5134C69.5631 29.0677 69.5257 29.6652 69.4526 30.3061C69.3909 30.8501 69.2962 31.4078 68.9934 31.861C68.7882 32.1689 68.541 32.44 68.2518 32.6742C68.1136 32.7865 67.9319 32.8603 67.7552 32.9599C63.0796 35.5796 58.4038 38.1987 53.7279 40.8173C53.0474 41.1978 52.3118 41.728 51.7265 42.2912C51.1688 42.8281 50.7834 43.3214 50.3638 44.0102C50.2476 44.2001 50.164 44.4281 50.0478 44.6395C50.045 44.6445 50.041 44.6486 50.0361 44.6516C50.0313 44.6545 50.0257 44.6561 50.02 44.6562C50.0143 44.6563 50.0087 44.6549 50.0037 44.6522C49.9988 44.6495 49.9946 44.6455 49.9916 44.6406C49.9799 44.6208 49.9729 44.596 49.9707 44.5663Z" fill="#EB6A27"/>
<path d="M50.0402 50.8952C50.0318 55.323 50.023 59.7515 50.0138 64.1808C50.0138 64.2215 49.9934 64.237 49.9643 64.2606C49.5436 63.2523 49.0448 62.3633 48.4678 61.5936C47.4035 60.1747 45.8899 59.2443 44.3285 58.4355C43.8836 58.2049 43.5593 58.0326 43.3556 57.9185C36.4567 54.0577 29.5581 50.197 22.6596 46.3363C21.76 45.8326 20.8675 44.7264 20.6836 43.6946C20.655 43.5339 20.6032 43.3643 20.5773 43.2178C20.4797 42.6617 20.4169 42.1431 20.389 41.6619C20.3698 41.3282 20.3191 40.9979 20.318 40.7022C20.3081 37.0999 20.3059 33.4978 20.3114 29.8959C20.3119 29.7191 20.3329 29.4125 20.307 29.1675C20.3065 29.1619 20.308 29.1563 20.3113 29.1518C20.3147 29.1473 20.3195 29.1442 20.325 29.1431C20.3305 29.142 20.3362 29.143 20.341 29.1459C20.3458 29.1488 20.3494 29.1533 20.351 29.1586C20.4738 29.5655 20.5801 30.0137 20.7304 30.3804C21.025 31.0989 21.406 31.7761 21.951 32.3361C22.4724 32.8723 22.9586 33.1862 23.687 33.5864C30.9883 37.5964 38.2941 41.5986 45.5959 45.6085C45.7526 45.6944 45.8798 45.7632 45.9775 45.8149C47.8924 46.828 49.2265 48.9164 49.9863 50.8715C49.9886 50.8776 49.9926 50.8829 49.9979 50.8868C50.0031 50.8907 50.0094 50.893 50.016 50.8935L50.0402 50.8952Z" fill="#005138"/>
<path d="M49.9641 64.2607C49.9933 64.2371 50.0137 64.2217 50.0137 64.1809C50.0228 59.7516 50.0317 55.3231 50.0401 50.8953C50.2157 50.5402 50.3594 50.1195 50.5092 49.8145C51.2839 48.2343 52.5188 46.6778 54.0704 45.825C61.1135 41.956 68.1632 38.0997 75.2035 34.2263C76.0899 33.7391 77.0259 33.3074 77.7934 32.6385C78.8302 31.7344 79.3494 30.5099 79.683 29.2044C79.6847 29.1989 79.6884 29.1941 79.6933 29.1909C79.6982 29.1877 79.704 29.1864 79.7098 29.1871C79.7156 29.1878 79.721 29.1906 79.7249 29.1948C79.7289 29.1991 79.7312 29.2047 79.7315 29.2105C79.7315 33.0077 79.7315 36.8066 79.7315 40.6071C79.7315 40.9473 79.6781 41.3305 79.6616 41.6174C79.6098 42.5341 79.4881 43.6914 79.0713 44.5195C78.7272 45.2034 78.1375 45.9461 77.44 46.3045C77.2748 46.3893 77.1008 46.5033 76.9643 46.5793C72.9358 48.8293 68.909 51.0827 64.8839 53.3393C64.8773 53.343 64.7596 53.4039 64.5309 53.5221C64.3696 53.6058 64.2105 53.7159 64.0723 53.793C62.6903 54.5616 61.3108 55.3343 59.9336 56.111C59.7937 56.1897 59.492 56.3285 59.2872 56.4568C59.1668 56.5324 59.0836 56.583 59.0378 56.6087C57.8435 57.2782 56.6532 57.9565 55.438 58.5875C53.8391 59.4184 52.374 60.4221 51.367 61.8971C51.0249 62.3981 50.6824 62.99 50.3396 63.6727C50.2515 63.8489 50.1799 64.1066 50.0373 64.3153C50.0208 64.3391 49.9964 64.3209 49.9641 64.2607Z" fill="#EB6A27"/>
<path d="M50.0407 71.0743C50.0323 75.6195 50.0204 80.165 50.005 84.7106C50 86.2175 50.0226 87.7217 49.9978 89.2292C49.9974 89.248 49.9822 89.2682 49.9521 89.2898C49.8952 89.1478 49.8295 89.0118 49.755 88.8818C48.6841 87.0153 47.5207 85.1593 45.9394 83.6744C44.4628 82.2869 42.849 81.2904 41.0706 80.2866C32.1636 75.258 23.2557 70.2308 14.3469 65.205C14.0424 65.0332 13.7164 64.8394 13.3542 64.6511C12.9544 64.4436 12.6125 64.1556 12.2629 63.828C11.4266 63.0445 10.8259 62.0926 10.5258 60.9848C10.2186 59.8511 10.1498 58.7467 10.0457 57.5844C10.0083 57.1692 10.0198 56.731 10 56.301V41.2837C10.0143 41.268 10.027 41.2595 10.038 41.2584C10.0574 41.2566 10.0674 41.2654 10.0677 41.2848C10.0848 41.8591 10.3298 42.4956 10.5214 43.0379C11.1645 44.8589 12.2956 46.2535 13.9147 47.2218C13.944 47.2394 14.265 47.4174 14.8776 47.7559C24.1678 52.8895 33.459 58.0221 42.751 63.1535C44.0262 63.8577 45.3107 64.4612 46.4146 65.5199C47.3737 66.4405 48.191 67.4718 48.8663 68.6137C49.0491 68.9226 49.2182 69.2782 49.3889 69.6152C49.6157 70.0639 49.7776 70.527 49.9549 70.9939C49.9743 71.0445 50.0029 71.0713 50.0407 71.0743Z" fill="#005138"/>
<path d="M90 41.5656V57.4913C89.9655 58.489 89.8516 59.4763 89.6581 60.4534C89.357 61.9764 88.5768 63.1976 87.3793 64.182C87.1884 64.3387 86.9483 64.4986 86.6591 64.6616C77.138 70.0309 67.6188 75.4031 58.1014 80.7783C55.7449 82.1091 53.6251 83.817 52.062 86.0463C51.3683 87.0351 50.6954 88.1416 50.0435 89.3658C50.0325 89.3863 50.0184 89.3887 50.0012 89.3729C49.981 89.3542 49.9646 89.3265 49.9521 89.2898C49.9822 89.2681 49.9975 89.2479 49.9978 89.2292C50.0226 87.7217 50.0001 86.2175 50.005 84.7106C50.0204 80.1649 50.0323 75.6195 50.0408 71.0742C50.2533 70.6932 50.3579 70.2423 50.5495 69.853C50.7466 69.4528 50.952 69.0233 51.1656 68.6572C52.1071 67.0401 53.3801 65.548 54.9157 64.4876C54.9726 64.4479 55.0678 64.3973 55.2014 64.3356C55.338 64.2723 55.4657 64.1738 55.5764 64.1126C64.8695 58.9812 74.1614 53.847 83.4519 48.71C84.6574 48.0434 85.5533 47.543 86.1399 47.2086C86.5103 46.9975 86.8145 46.7942 87.0528 46.5985C87.9122 45.8927 88.6379 45.0228 89.1131 44.0124C89.381 43.4428 89.6196 42.7999 89.8288 42.0837C89.9037 41.8279 89.9408 41.6267 89.94 41.4803C89.9399 41.4772 89.9408 41.4741 89.9425 41.4715C89.9442 41.4689 89.9467 41.4669 89.9497 41.4658C89.9526 41.4647 89.9558 41.4645 89.9588 41.4654C89.9618 41.4662 89.9645 41.4679 89.9665 41.4704C89.9811 41.4876 89.9923 41.5194 90 41.5656Z" fill="#EB6A27"/>
</g>
<defs>
<clipPath id="clip0_105_1837">
<rect width="80" height="79.3944" fill="white" transform="translate(10 10)"/>
</clipPath>
</defs>
</svg>
