<svg width="100" height="100" viewBox="0 0 100 100" fill="none" xmlns="http://www.w3.org/2000/svg">
<rect width="100" height="100" fill="#D6EBFF"/>
<path d="M38.1359 12.5562C38.1311 12.5874 38.1345 12.6193 38.1458 12.6487C38.157 12.6782 38.1759 12.7044 38.2004 12.7246C38.2249 12.7449 38.2544 12.7587 38.2859 12.7646C38.3175 12.7704 38.3501 12.7683 38.3806 12.7583C45.55 10.3921 52.762 8.81664 60.0166 8.03186C60.5626 7.97512 61.0448 7.98222 61.5909 8.15241C66.5218 9.67234 71.0674 11.9972 75.2277 15.1268C75.2428 15.1382 75.254 15.1541 75.2594 15.1722C75.2649 15.1903 75.2645 15.2097 75.2581 15.2275C75.2518 15.2454 75.2399 15.2607 75.2242 15.2713C75.2085 15.2819 75.1899 15.2872 75.1709 15.2864C51.3863 15.024 27.786 22.3459 9.57874 37.9294C9.56706 37.9391 9.55256 37.9448 9.53738 37.9457C9.52219 37.9466 9.50713 37.9426 9.49441 37.9342C9.48169 37.9259 9.47199 37.9136 9.46675 37.8994C9.46151 37.8851 9.46099 37.8695 9.46528 37.8549C13.6315 23.5586 24.2438 12.2406 38.6536 8.07441C38.7576 8.04368 38.8014 8.08268 38.7848 8.19142L38.1359 12.5562Z" fill="#0C4C87"/>
<path d="M37.3985 29.9622C37.3996 29.987 37.4066 30.0111 37.419 30.0327C37.4313 30.0542 37.4485 30.0725 37.4693 30.086C37.4901 30.0995 37.5139 30.1079 37.5386 30.1104C37.5632 30.1129 37.5882 30.1095 37.6113 30.1005C52.2669 24.5124 67.452 22.2065 83.1666 23.1828C83.2895 23.1898 83.3865 23.243 83.4574 23.3423C85.651 26.4318 87.4534 29.7364 88.8646 33.2561C88.9355 33.4334 88.8764 33.5126 88.6873 33.4937C60.0486 30.6429 29.4738 39.0073 9.68165 60.8986C9.66948 60.9111 9.65423 60.9201 9.63745 60.9248C9.62066 60.9295 9.60293 60.9297 9.58604 60.9254C9.56915 60.9211 9.55369 60.9124 9.54122 60.9002C9.52875 60.8881 9.51971 60.8728 9.515 60.856C8.11326 55.5233 7.68423 50.0818 8.22791 44.5315C8.32955 43.5033 8.64512 42.7516 9.17461 42.2765C17.4101 34.8683 26.7259 29.2318 37.1219 25.3669C37.2165 25.3315 37.265 25.3634 37.2673 25.4627L37.3985 29.9622Z" fill="#0C4C87"/>
<path d="M41.1498 48.7154C57.0109 42.0944 73.5493 39.3973 90.765 40.6241C91.0486 40.6454 91.2164 40.7943 91.2684 41.0709C91.8074 43.9145 92.0485 46.7842 91.9918 49.6799C91.9913 49.7055 91.9858 49.7308 91.9756 49.7542C91.9654 49.7777 91.9506 49.799 91.9322 49.8167C91.9137 49.8345 91.892 49.8485 91.8681 49.8579C91.8443 49.8672 91.8188 49.8718 91.7932 49.8713C87.5833 49.8052 84.1652 49.83 81.539 49.9458C57.8253 50.9989 34.5937 59.771 17.787 76.8578C17.6996 76.9476 17.6157 76.9429 17.5353 76.8436C14.7294 73.2483 12.5405 69.3078 10.9686 65.0222C10.9493 64.97 10.9451 64.9133 10.9564 64.8582C10.9676 64.8032 10.9939 64.7519 11.0324 64.7102C19.1663 55.8932 28.7776 49.1811 39.8662 44.574C39.8891 44.5647 39.9139 44.5605 39.9386 44.5619C39.9633 44.5633 39.9875 44.5702 40.0092 44.5821C40.0309 44.594 40.0497 44.6106 40.0643 44.6306C40.0788 44.6507 40.0886 44.6738 40.0931 44.6981L40.8626 48.563C40.8685 48.5936 40.8812 48.6224 40.8998 48.6475C40.9184 48.6725 40.9423 48.6931 40.9698 48.7077C40.9973 48.7223 41.0278 48.7306 41.0589 48.7319C41.09 48.7333 41.1211 48.7276 41.1498 48.7154Z" fill="#0C4C87"/>
<path d="M30.2859 87.1086C26.882 85.24 23.978 82.8147 20.7089 80.0455C20.684 80.0248 20.6636 79.9992 20.6491 79.9703C20.6346 79.9414 20.6262 79.9097 20.6246 79.8774C20.6229 79.8451 20.628 79.8128 20.6394 79.7825C20.6509 79.7522 20.6685 79.7247 20.6912 79.7016C28.2341 71.9861 36.9483 65.9631 46.8337 61.6326C46.9283 61.59 47.0016 61.6137 47.0536 61.7035L49.337 65.6499C49.4197 65.7941 49.5391 65.8354 49.6951 65.774C62.9419 60.5381 76.7017 57.9958 90.9743 58.1471C91.1776 58.1495 91.2474 58.2464 91.1835 58.4379L88.9923 65.2953C88.9521 65.4182 88.867 65.4832 88.737 65.4903C67.64 66.4228 46.8585 73.4682 30.6085 87.0766C30.5639 87.1141 30.5092 87.1372 30.4515 87.1429C30.3939 87.1486 30.3361 87.1366 30.2859 87.1086Z" fill="#0C4C87"/>
<path d="M64.6899 82.7366L69.8808 86.7929C69.9706 86.8615 69.9671 86.9265 69.8702 86.9879C69.0381 87.4985 68.1942 87.9429 67.3385 88.3211C56.2026 93.2237 45.0265 93.408 33.8102 88.8742C33.6329 88.8033 33.62 88.7088 33.7712 88.5906C40.8438 83.0805 48.5557 78.6897 56.907 75.4182C56.9573 75.3982 57.0126 75.3939 57.0657 75.4059C57.1189 75.4179 57.1673 75.4457 57.2049 75.4856L59.889 78.2832C60.0048 78.4061 60.1407 78.438 60.2967 78.3789C68.3999 75.3343 76.7524 73.2979 85.3543 72.2696C85.4914 72.2531 85.5233 72.3016 85.4501 72.415C83.9869 74.6748 82.3263 76.7774 80.4683 78.7228C80.3738 78.8198 80.2603 78.8777 80.1279 78.8966C74.911 79.6648 69.7863 80.8302 64.7537 82.3927C64.5126 82.4683 64.4913 82.583 64.6899 82.7366Z" fill="#0C4C87"/>
</svg>
