<svg width="100" height="100" viewBox="0 0 100 100" fill="none" xmlns="http://www.w3.org/2000/svg">
<rect width="100" height="100" fill="#595C62"/>
<path d="M16.9756 52.4102L20.3506 52.082C20.5537 53.2148 20.9639 54.0469 21.5811 54.5781C22.2061 55.1094 23.0459 55.375 24.1006 55.375C25.2178 55.375 26.0577 55.1406 26.6202 54.6719C27.1905 54.1953 27.4756 53.6406 27.4756 53.0078C27.4756 52.6016 27.3545 52.2578 27.1123 51.9766C26.878 51.6875 26.4639 51.4375 25.8702 51.2266C25.4639 51.0859 24.5381 50.8359 23.0928 50.4766C21.2334 50.0156 19.9287 49.4492 19.1787 48.7773C18.1241 47.832 17.5967 46.6797 17.5967 45.3203C17.5967 44.4453 17.8428 43.6289 18.335 42.8711C18.835 42.1055 19.5498 41.5234 20.4795 41.125C21.417 40.7266 22.5459 40.5273 23.8662 40.5273C26.0225 40.5273 27.6436 41 28.7295 41.9453C29.8233 42.8906 30.3975 44.1523 30.4522 45.7305L26.9834 45.8828C26.835 45 26.5147 44.3672 26.0225 43.9844C25.5381 43.5938 24.8077 43.3984 23.8311 43.3984C22.8233 43.3984 22.0342 43.6055 21.4639 44.0195C21.0967 44.2852 20.9131 44.6406 20.9131 45.0859C20.9131 45.4922 21.085 45.8398 21.4287 46.1289C21.8662 46.4961 22.9287 46.8789 24.6162 47.2773C26.3037 47.6758 27.5498 48.0898 28.3545 48.5195C29.167 48.9414 29.7998 49.5234 30.253 50.2656C30.7139 51 30.9444 51.9102 30.9444 52.9961C30.9444 53.9805 30.6709 54.9023 30.1241 55.7617C29.5772 56.6211 28.8037 57.2617 27.8037 57.6836C26.8037 58.0977 25.5577 58.3047 24.0655 58.3047C21.8936 58.3047 20.2256 57.8047 19.0616 56.8047C17.8975 55.7969 17.2022 54.332 16.9756 52.4102ZM33.3434 52.4102L36.7184 52.082C36.9216 53.2148 37.3317 54.0469 37.9489 54.5781C38.5739 55.1094 39.4137 55.375 40.4684 55.375C41.5856 55.375 42.4255 55.1406 42.988 54.6719C43.5583 54.1953 43.8434 53.6406 43.8434 53.0078C43.8434 52.6016 43.7223 52.2578 43.4802 51.9766C43.2458 51.6875 42.8317 51.4375 42.238 51.2266C41.8317 51.0859 40.9059 50.8359 39.4606 50.4766C37.6012 50.0156 36.2966 49.4492 35.5466 48.7773C34.4919 47.832 33.9645 46.6797 33.9645 45.3203C33.9645 44.4453 34.2106 43.6289 34.7028 42.8711C35.2028 42.1055 35.9177 41.5234 36.8473 41.125C37.7848 40.7266 38.9137 40.5273 40.2341 40.5273C42.3903 40.5273 44.0114 41 45.0973 41.9453C46.1911 42.8906 46.7653 44.1523 46.82 45.7305L43.3512 45.8828C43.2028 45 42.8825 44.3672 42.3903 43.9844C41.9059 43.5938 41.1755 43.3984 40.1989 43.3984C39.1911 43.3984 38.402 43.6055 37.8317 44.0195C37.4645 44.2852 37.2809 44.6406 37.2809 45.0859C37.2809 45.4922 37.4528 45.8398 37.7966 46.1289C38.2341 46.4961 39.2966 46.8789 40.9841 47.2773C42.6716 47.6758 43.9177 48.0898 44.7223 48.5195C45.5348 48.9414 46.1677 49.5234 46.6208 50.2656C47.0817 51 47.3122 51.9102 47.3122 52.9961C47.3122 53.9805 47.0387 54.9023 46.4919 55.7617C45.945 56.6211 45.1716 57.2617 44.1716 57.6836C43.1716 58.0977 41.9255 58.3047 40.4333 58.3047C38.2614 58.3047 36.5934 57.8047 35.4294 56.8047C34.2653 55.7969 33.57 54.332 33.3434 52.4102ZM58.5823 51.6836V48.7891H66.0589V55.6328C65.3323 56.3359 64.2777 56.957 62.8948 57.4961C61.5198 58.0273 60.1253 58.293 58.7113 58.293C56.9144 58.293 55.348 57.918 54.012 57.168C52.6761 56.4102 51.6722 55.332 51.0003 53.9336C50.3284 52.5273 49.9925 51 49.9925 49.3516C49.9925 47.5625 50.3675 45.9727 51.1175 44.582C51.8675 43.1914 52.9652 42.125 54.4105 41.3828C55.512 40.8125 56.8831 40.5273 58.5238 40.5273C60.6566 40.5273 62.3206 40.9766 63.5159 41.875C64.7191 42.7656 65.4925 44 65.8363 45.5781L62.3909 46.2227C62.1488 45.3789 61.6917 44.7148 61.0198 44.2305C60.3558 43.7383 59.5238 43.4922 58.5238 43.4922C57.0081 43.4922 55.8011 43.9727 54.9027 44.9336C54.012 45.8945 53.5667 47.3203 53.5667 49.2109C53.5667 51.25 54.0198 52.7812 54.9261 53.8047C55.8323 54.8203 57.0198 55.3281 58.4886 55.3281C59.2152 55.3281 59.9417 55.1875 60.6683 54.9062C61.4027 54.6172 62.0316 54.2695 62.555 53.8633V51.6836H58.5823ZM68.7509 52.4102L72.1259 52.082C72.3291 53.2148 72.7392 54.0469 73.3564 54.5781C73.9814 55.1094 74.8213 55.375 75.8759 55.375C76.9931 55.375 77.833 55.1406 78.3955 54.6719C78.9658 54.1953 79.2509 53.6406 79.2509 53.0078C79.2509 52.6016 79.1298 52.2578 78.8877 51.9766C78.6533 51.6875 78.2392 51.4375 77.6455 51.2266C77.2392 51.0859 76.3134 50.8359 74.8681 50.4766C73.0088 50.0156 71.7041 49.4492 70.9541 48.7773C69.8994 47.832 69.372 46.6797 69.372 45.3203C69.372 44.4453 69.6181 43.6289 70.1103 42.8711C70.6103 42.1055 71.3252 41.5234 72.2548 41.125C73.1923 40.7266 74.3213 40.5273 75.6416 40.5273C77.7978 40.5273 79.4189 41 80.5048 41.9453C81.5986 42.8906 82.1728 44.1523 82.2275 45.7305L78.7588 45.8828C78.6103 45 78.29 44.3672 77.7978 43.9844C77.3134 43.5938 76.583 43.3984 75.6064 43.3984C74.5986 43.3984 73.8095 43.6055 73.2392 44.0195C72.872 44.2852 72.6884 44.6406 72.6884 45.0859C72.6884 45.4922 72.8603 45.8398 73.2041 46.1289C73.6416 46.4961 74.7041 46.8789 76.3916 47.2773C78.0791 47.6758 79.3252 48.0898 80.1298 48.5195C80.9423 48.9414 81.5752 49.5234 82.0283 50.2656C82.4892 51 82.7197 51.9102 82.7197 52.9961C82.7197 53.9805 82.4463 54.9023 81.8994 55.7617C81.3525 56.6211 80.5791 57.2617 79.5791 57.6836C78.5791 58.0977 77.333 58.3047 75.8408 58.3047C73.6689 58.3047 72.0009 57.8047 70.8369 56.8047C69.6728 55.7969 68.9775 54.332 68.7509 52.4102Z" fill="#F8F8F8"/>
</svg>
