<svg width="100" height="100" viewBox="0 0 100 100" fill="none" xmlns="http://www.w3.org/2000/svg">
<g clip-path="url(#clip0_105_1843)">
<rect width="100" height="100" fill="#8C734B"/>
<path d="M39.5 13.7112L43.8807 48.9242L71.8776 27.1224L50.0758 55.1193L85.2888 59.5L50.0758 63.8807L71.8776 91.8776L43.8807 70.0758L39.5 105.289L35.1193 70.0758L7.12242 91.8776L28.9242 63.8807L-6.28882 59.5L28.9242 55.1193L7.12242 27.1224L35.1193 48.9242L39.5 13.7112Z" fill="white"/>
<path d="M59.558 11L48.7728 50.2169L87.9778 39.3885L52.621 59.4928L88 79.558L48.7831 68.7728L59.6115 107.978L39.5072 72.621L19.442 108L30.2272 68.7831L-8.97784 79.6115L26.379 59.5072L-9 39.442L30.2169 50.2272L19.3885 11.0222L39.4928 46.379L59.558 11Z" fill="white"/>
<circle cx="39.6507" cy="59.3493" r="30.8773" stroke="white" stroke-width="0.602484"/>
</g>
<defs>
<clipPath id="clip0_105_1843">
<rect width="100" height="100" fill="white"/>
</clipPath>
</defs>
</svg>
