<svg width="100" height="100" viewBox="0 0 100 100" fill="none" xmlns="http://www.w3.org/2000/svg">
<rect width="100" height="100" fill="#EFFFE8"/>
<path d="M42.6575 6.04709C46.055 9.61459 47.2525 14.6196 48.145 19.2846C48.1459 19.2958 48.143 19.307 48.1368 19.3163C48.1305 19.3256 48.1213 19.3326 48.1106 19.3361C48.0999 19.3395 48.0884 19.3393 48.0779 19.3354C48.0673 19.3315 48.0584 19.3242 48.0525 19.3146C45.8675 14.7946 43.9725 10.5946 40.1925 6.97209C40.1109 6.89376 40.1242 6.83626 40.2325 6.79959L42.4951 6.00959C42.5233 5.99919 42.5539 5.9972 42.5828 6.00387C42.6117 6.01055 42.6377 6.02559 42.6575 6.04709Z" fill="#65AD49"/>
<path d="M58.6799 7.82459C55.3749 11.3521 53.6074 15.3271 51.6224 19.4846C51.6211 19.4884 51.6191 19.4918 51.6164 19.4948C51.6137 19.4978 51.6105 19.5002 51.6069 19.502C51.6033 19.5037 51.5994 19.5047 51.5954 19.505C51.5914 19.5052 51.5874 19.5047 51.5837 19.5033C51.5799 19.502 51.5764 19.5 51.5734 19.4973C51.5704 19.4947 51.568 19.4914 51.5663 19.4878C51.5645 19.4842 51.5635 19.4803 51.5633 19.4763C51.5631 19.4724 51.5636 19.4684 51.5649 19.4646C52.4199 14.8446 53.6499 9.61959 57.0799 6.07959C57.1449 6.01292 57.2224 5.99459 57.3124 6.02459L59.4924 6.77959C59.5791 6.80959 59.5949 6.86125 59.5399 6.93459C59.2874 7.28209 58.8999 7.58709 58.6799 7.82459Z" fill="#65AD49"/>
<path d="M36.6523 8.38958C42.2673 12.7921 46.1798 18.1571 48.1723 25.0946C48.1757 25.1019 48.1759 25.1102 48.1731 25.1177C48.1703 25.1252 48.1646 25.1313 48.1573 25.1346C48.1501 25.1379 48.1417 25.1382 48.1342 25.1354C48.1267 25.1326 48.1207 25.1269 48.1173 25.1196C44.2348 18.9321 39.7748 13.5996 33.2298 10.0871C33.2163 10.08 33.2049 10.0693 33.1971 10.0561C33.1893 10.0429 33.1853 10.0279 33.1856 10.0126C33.1858 9.99725 33.1903 9.98232 33.1986 9.96943C33.2069 9.95654 33.2185 9.94621 33.2323 9.93958L36.4523 8.36958C36.524 8.33458 36.5907 8.34125 36.6523 8.38958Z" fill="#65AD49"/>
<path d="M51.5749 25.1146C53.4624 18.2846 57.5174 12.6946 63.1024 8.40212C63.1757 8.34546 63.254 8.33712 63.3374 8.37712L66.5199 9.93212C66.5344 9.93897 66.5467 9.94974 66.5553 9.96326C66.564 9.97677 66.5687 9.99251 66.5689 10.0088C66.5692 10.025 66.565 10.0411 66.5568 10.0554C66.5486 10.0697 66.5367 10.0815 66.5224 10.0896C59.8299 13.7196 55.6699 18.8546 51.6249 25.1371C51.6215 25.1432 51.616 25.1478 51.6095 25.15C51.6029 25.1522 51.5958 25.1518 51.5895 25.149C51.5832 25.1461 51.5781 25.141 51.5754 25.1347C51.5727 25.1283 51.5725 25.1211 51.5749 25.1146Z" fill="#65AD49"/>
<path d="M29.4151 12.2446C38.0376 15.9321 44.8276 22.7021 48.3726 31.4396C48.3773 31.4498 48.378 31.4613 48.3747 31.472C48.3713 31.4827 48.364 31.4918 48.3543 31.4974C48.3446 31.503 48.3332 31.5048 48.3222 31.5025C48.3112 31.5001 48.3016 31.4937 48.2951 31.4846C42.4217 23.8112 35.0192 18.1237 26.0876 14.4221C26.0359 14.4004 26.0326 14.3746 26.0776 14.3446L29.1626 12.2696C29.2426 12.2162 29.3267 12.2079 29.4151 12.2446Z" fill="#65AD49"/>
<path d="M51.3351 31.5521C54.7851 22.7996 61.7101 15.9271 70.3326 12.2496C70.4192 12.213 70.5026 12.2205 70.5826 12.2721L73.5976 14.2896C73.6909 14.3513 73.6859 14.4038 73.5826 14.4471C64.6476 18.1771 57.2492 23.888 51.3876 31.5796C51.3833 31.5854 51.3771 31.5894 51.3702 31.591C51.3632 31.5926 51.3559 31.5916 51.3496 31.5883C51.3432 31.585 51.3383 31.5795 51.3356 31.5729C51.333 31.5663 51.3328 31.5589 51.3351 31.5521Z" fill="#65AD49"/>
<path d="M22.8699 16.9871C34.1749 20.9446 44.7899 27.2621 49.6924 38.7446C49.7021 38.7608 49.7051 38.7802 49.7007 38.7986C49.6963 38.817 49.6849 38.833 49.6689 38.8431C49.653 38.8532 49.6336 38.8567 49.6151 38.8528C49.5966 38.8488 49.5804 38.8378 49.5699 38.8221C41.8249 29.6771 31.0924 23.3646 19.6649 19.9971C19.5415 19.9604 19.5265 19.8988 19.6199 19.8121L22.6149 17.0396C22.6899 16.9713 22.7749 16.9538 22.8699 16.9871Z" fill="#65AD49"/>
<path d="M50.4624 37.8096C55.3649 27.0046 66.1074 20.7021 76.9049 16.9896C76.9933 16.9579 77.0716 16.9738 77.1399 17.0371L80.1349 19.8146C80.2383 19.9113 80.2216 19.9796 80.0849 20.0196C68.7499 23.3021 57.8199 29.6996 50.1949 38.8196C50.0316 39.0163 49.9916 38.9938 50.0749 38.7521C50.1666 38.4921 50.2958 38.1779 50.4624 37.8096Z" fill="#65AD49"/>
<path d="M49.9774 44.5246C56.8324 32.9146 70.4899 26.2971 82.9049 23.0321C83.0049 23.0055 83.0841 23.0355 83.1424 23.1221L85.6974 26.9996C85.7558 27.0896 85.7324 27.1446 85.6274 27.1646C72.0224 29.5846 59.7699 36.1846 49.9799 45.8821C49.9166 45.9454 49.8524 45.9454 49.7874 45.8821C39.6774 36.1071 27.9999 29.7071 14.1199 27.1421C14.0283 27.1255 14.0083 27.078 14.0599 26.9996L16.5899 23.1496C16.6433 23.0663 16.7182 23.0371 16.8149 23.0621C29.6774 26.3071 42.5924 32.9721 49.8249 44.5271C49.8332 44.5399 49.8446 44.5504 49.8581 44.5575C49.8716 44.5647 49.8866 44.5683 49.9019 44.5681C49.9171 44.5678 49.932 44.5637 49.9452 44.5561C49.9585 44.5485 49.9695 44.5377 49.9774 44.5246Z" fill="#65AD49"/>
<path d="M49.7751 52.6546C49.8235 52.7412 49.8726 52.7421 49.9226 52.6571C57.9251 38.8871 72.8051 33.0571 87.5576 29.8946C87.6826 29.8679 87.7668 29.9146 87.8101 30.0346L89.5926 35.0521C89.6003 35.0741 89.6029 35.0976 89.6002 35.1208C89.5975 35.144 89.5896 35.1662 89.5771 35.186C89.5646 35.2057 89.5478 35.2223 89.528 35.2346C89.5082 35.2469 89.4858 35.2546 89.4626 35.2571C74.5901 36.8396 60.5251 43.2246 49.9926 53.9396C49.9276 54.0062 49.8626 54.0062 49.7976 53.9396C39.1501 43.2546 25.2451 36.8421 10.2751 35.2421C10.1551 35.2287 10.1151 35.1654 10.1551 35.0521L11.9576 29.9946C11.9926 29.8996 12.0593 29.8629 12.1576 29.8846C26.5301 32.9621 42.2351 38.9571 49.7751 52.6546Z" fill="#65AD49"/>
<path d="M49.9426 60.3721C59.5601 46.2871 74.8651 40.9946 91.1226 39.1271C91.1526 39.1244 91.1826 39.1319 91.2076 39.1482C91.2326 39.1646 91.2511 39.1889 91.2601 39.2171C91.8418 40.9605 92.1667 42.753 92.2351 44.5946C92.2384 44.6846 92.1951 44.7296 92.1051 44.7296C76.1501 44.6821 61.0201 50.2821 49.9851 61.9871C49.9234 62.0521 49.8618 62.053 49.8001 61.9896C38.6176 50.2696 23.7576 44.7346 7.64758 44.7146C7.56758 44.7146 7.52841 44.6738 7.53008 44.5921C7.57675 42.7655 7.89425 40.9905 8.48258 39.2671C8.51258 39.1788 8.57342 39.1396 8.66508 39.1496C24.7001 40.8471 40.3776 46.3871 49.7626 60.3721C49.8226 60.4621 49.8826 60.4621 49.9426 60.3721Z" fill="#65AD49"/>
<path d="M49.96 68.0571C58.7425 53.2646 76.6725 48.9471 92.665 48.3871C92.7217 48.3838 92.75 48.4104 92.75 48.4671V52.8946C92.7501 52.9413 92.7322 52.9863 92.7001 53.0202C92.668 53.0542 92.6241 53.0745 92.5775 53.0771C88.3542 53.3171 84.1875 53.7204 80.0775 54.2871C68.03 55.9521 58.5925 60.9971 49.9675 69.5146C49.9058 69.5746 49.845 69.5746 49.785 69.5146C42.6975 62.5146 34.7825 57.5171 24.9775 55.3046C19.1475 53.9896 13.1725 53.4471 7.2175 53.0696C7.15847 53.0658 7.10312 53.0396 7.06271 52.9964C7.0223 52.9532 6.99988 52.8962 7 52.8371V48.4671C7 48.3921 7.0375 48.3563 7.1125 48.3596C23.105 49.0721 40.9925 53.1771 49.7775 68.0571C49.8375 68.1621 49.8983 68.1621 49.96 68.0571Z" fill="#65AD49"/>
<path d="M49.93 75.3646C59.1075 60.9871 76.355 57.4996 92.155 56.9296C92.23 56.9262 92.2625 56.9621 92.2525 57.0371L91.67 61.0721C91.6433 61.2487 91.5417 61.3404 91.365 61.3471C76.1925 61.8521 60.82 65.3521 49.99 76.7771C49.935 76.8354 49.8792 76.8354 49.8225 76.7771C38.64 65.2771 23.6525 61.9321 8.3125 61.3271C8.25826 61.3248 8.20657 61.3038 8.16638 61.2677C8.1262 61.2316 8.10006 61.1827 8.0925 61.1296L7.495 57.0196C7.49269 57.0036 7.49402 56.9873 7.49887 56.9719C7.50372 56.9565 7.51198 56.9424 7.52302 56.9307C7.53407 56.9189 7.54762 56.9098 7.56268 56.9039C7.57774 56.8981 7.59391 56.8958 7.61 56.8971C23.3875 57.8246 40.615 60.6721 49.77 75.3646C49.8233 75.4479 49.8767 75.4479 49.93 75.3646Z" fill="#65AD49"/>
<path d="M49.8226 83.2395C49.8268 83.2486 49.8335 83.2562 49.8419 83.2615C49.8503 83.2669 49.8601 83.2697 49.8701 83.2697C49.88 83.2697 49.8898 83.2669 49.8982 83.2615C49.9066 83.2562 49.9133 83.2486 49.9176 83.2395C57.2776 69.0045 76.6226 65.662 90.8451 64.9645C90.9617 64.9579 91.0051 65.0121 90.9751 65.1271L89.8251 69.487C89.7984 69.587 89.7334 69.6395 89.6301 69.6445C75.5476 70.1545 59.7301 73.7246 49.9851 84.8295C49.9217 84.9012 49.8584 84.9012 49.7951 84.8295C39.8926 73.6971 24.3801 70.217 10.1376 69.6395C10.0854 69.6374 10.0354 69.6185 9.99481 69.5856C9.95428 69.5527 9.92543 69.5076 9.91256 69.457L8.77507 65.1196C8.74173 64.9979 8.7884 64.9404 8.91506 64.9471C23.2601 65.7396 42.5126 69.007 49.8226 83.2395Z" fill="#65AD49"/>
<path d="M49.8249 91.6196C49.8296 91.6273 49.8362 91.6338 49.8441 91.6382C49.852 91.6427 49.8609 91.645 49.8699 91.645C49.879 91.645 49.8879 91.6427 49.8958 91.6382C49.9037 91.6338 49.9103 91.6273 49.9149 91.6196C57.6999 78.3721 74.2349 74.9671 88.2824 73.3246C88.3841 73.3129 88.4141 73.3537 88.3724 73.4471C87.5741 75.2387 86.6024 76.9296 85.4574 78.5196C85.4091 78.5879 85.3424 78.6271 85.2574 78.6371C73.8574 79.9921 55.7949 82.5396 49.9624 94.2271C49.955 94.2424 49.9433 94.2554 49.9289 94.2646C49.9145 94.2738 49.8978 94.2787 49.8807 94.279C49.8636 94.2793 49.8468 94.2748 49.8321 94.2661C49.8174 94.2573 49.8054 94.2447 49.7974 94.2296C43.8574 82.5346 25.9824 79.9771 14.4899 78.6521C14.4514 78.6474 14.4143 78.6349 14.3812 78.6156C14.348 78.5962 14.3195 78.5703 14.2974 78.5396C13.1574 76.9412 12.1833 75.2487 11.3749 73.4621C11.3316 73.3671 11.3624 73.3254 11.4674 73.3371C25.4249 74.9471 42.0349 78.3446 49.8249 91.6196Z" fill="#65AD49"/>
</svg>
