<svg width="100" height="100" viewBox="0 0 100 100" fill="none" xmlns="http://www.w3.org/2000/svg">
<rect width="100" height="100" fill="#E31E24"/>
<circle cx="50.2812" cy="49.7188" r="18.5625" stroke="white" stroke-width="0.5625"/>
<circle cx="50.2812" cy="49.7188" r="24.1875" stroke="white" stroke-width="0.5625"/>
<circle cx="50.2812" cy="49.7188" r="29.8125" stroke="white" stroke-width="0.5625"/>
<circle cx="50" cy="50" r="35.7188" stroke="white" stroke-width="0.5625"/>
<circle cx="50" cy="50" r="41.3438" stroke="white" stroke-width="0.5625"/>
<path d="M43.9454 54.8654C45.3797 62.701 57.1979 60.9347 55.9435 55.411C55.3585 52.8347 47.4385 51.3891 45.0422 50.6691C39.5579 49.021 37.1279 42.0403 41.2285 37.8385C44.3279 34.6547 49.8235 34.3172 54.0591 35.3016C58.2966 36.2841 60.6329 38.9578 61.0679 43.3228C61.0866 43.5253 60.9966 43.6322 60.7979 43.6435L55.471 43.9247C55.3811 43.9288 55.2929 43.9 55.2234 43.844C55.1538 43.7879 55.1078 43.7085 55.0941 43.621C54.7341 41.4122 53.4066 40.1447 51.1116 39.8185C49.2947 39.5597 46.0829 39.7285 45.0929 41.5622C43.8497 43.846 46.8816 45.2297 48.5297 45.6122C54.9704 47.0972 62.581 48.6779 61.8104 56.8172C61.1522 63.7866 54.1266 65.7216 48.1191 65.0297C42.4997 64.3772 38.7929 61.1429 38.191 55.3603C38.1685 55.1691 38.2547 55.0641 38.4497 55.0454L43.5347 54.556C43.7672 54.5372 43.9041 54.6404 43.9454 54.8654Z" fill="white"/>
</svg>
