<svg width="100" height="100" viewBox="0 0 100 100" fill="none" xmlns="http://www.w3.org/2000/svg">
<rect width="100" height="100" fill="#FFF3D3"/>
<path d="M70.2224 62.3491C68.7411 63.5678 66.6749 62.3922 66.8286 60.5697C66.8561 60.2372 67.0818 59.6572 67.5055 58.8297C69.458 55.0197 70.7355 51.156 71.338 47.2385C72.9261 36.911 68.1261 27.2247 59.788 21.2003C59.7272 21.1565 59.6824 21.0939 59.6605 21.0222C59.573 20.741 59.6605 20.6516 59.923 20.7541C71.3849 25.2466 77.2986 37.3835 75.2324 49.2803C74.5011 53.4866 73.1024 57.4666 71.0361 61.2203C70.7274 61.7803 70.4561 62.1566 70.2224 62.3491Z" fill="#356D24"/>
<path d="M39.4084 20.8273L39.4909 20.9473C39.5173 20.9857 39.5276 21.033 39.5195 21.0789C39.5115 21.1248 39.4857 21.1657 39.4478 21.1929C32.1166 26.3791 27.3166 34.5973 27.4609 43.7698C27.5453 49.0798 29.2591 54.2473 31.5972 58.9629C31.9872 59.7504 32.1997 60.3304 32.2347 60.7029C32.4616 63.2042 29.3547 63.671 28.1791 61.5523C26.2453 58.0673 24.8847 54.4648 24.0972 50.7448C21.4928 38.4279 27.1459 25.4398 39.2566 20.7804C39.3203 20.7566 39.3709 20.7723 39.4084 20.8273Z" fill="#356D24"/>
<path d="M41.3248 76.8279C34.5261 72.9654 31.9986 63.0073 34.3029 55.9648C35.1192 53.4722 36.3304 50.811 37.9367 47.981C41.3005 42.0522 44.5836 36.0785 47.923 30.1366C48.9336 28.3422 50.1486 28.151 51.2361 30.0185C55.1848 36.7935 58.7767 43.2204 62.0117 49.2991C62.723 50.6341 63.423 52.1585 64.1117 53.8722C65.9105 58.3423 66.0692 62.881 64.588 67.4885C62.6305 73.5804 57.9223 78.0354 51.4292 78.8079C47.7805 79.2416 44.4123 78.5816 41.3248 76.8279Z" fill="#FD671B"/>
<path d="M66.1686 76.406C65.4186 75.8172 65.533 74.5535 65.9642 73.7922C66.088 73.5735 66.4011 73.2228 66.9036 72.7403C71.6605 68.1822 75.8849 62.246 77.6642 55.9103C80.0474 47.4316 79.2299 38.5066 74.2405 31.1322C74.2135 31.0919 74.2018 31.0432 74.2077 30.995C74.2135 30.9468 74.2365 30.9024 74.2724 30.8697L74.398 30.7553C74.4592 30.6991 74.5205 30.6991 74.5817 30.7553C79.1492 35.0472 81.763 40.5784 82.2017 46.8091C82.993 58.0853 78.1649 67.9197 70.1305 75.5622C69.0092 76.6291 67.6049 77.5347 66.1686 76.406Z" fill="#356D24"/>
<path d="M24.7367 30.8735C24.8867 31.0104 24.8267 31.2579 24.718 31.421C19.6892 38.9191 19.0498 48.026 21.5867 56.5104C23.578 63.1742 27.8436 68.4842 32.6192 73.2973C35.1148 75.8135 31.9611 78.3898 29.3773 76.0217C21.973 69.2323 17.188 60.491 16.8017 50.2966C16.5186 42.8529 19.0048 35.9623 24.4836 30.8754C24.5181 30.8433 24.5634 30.8253 24.6103 30.825C24.6572 30.8246 24.7023 30.8419 24.7367 30.8735Z" fill="#356D24"/>
<path d="M76.1042 78.9279C74.4055 79.2354 73.1773 77.3566 73.8486 75.8641C73.9936 75.5429 74.2711 75.2066 74.6811 74.8554C77.4336 72.4966 79.813 70.1341 81.7911 67.0666C86.9961 58.9947 86.6473 47.8141 82.9967 39.191C82.9505 39.081 82.9355 38.9985 82.9517 38.9435C82.962 38.9062 82.982 38.8723 83.0097 38.8452C83.0373 38.8181 83.0717 38.7989 83.1092 38.7893C83.1467 38.7798 83.186 38.7804 83.2233 38.791C83.2605 38.8016 83.2942 38.8219 83.3211 38.8497C87.9748 43.6553 90.0786 51.0991 89.6492 57.5885C89.113 65.7072 83.9623 73.3816 77.5461 78.176C76.9661 78.6085 76.4855 78.8591 76.1042 78.9279Z" fill="#356D24"/>
<path d="M16.076 38.9435C16.1112 38.9674 16.137 39.0028 16.149 39.0439C16.1609 39.0849 16.1584 39.129 16.1417 39.1685C13.8617 44.4985 12.9879 50.0641 13.5204 55.8654C14.2329 63.6148 18.1404 69.8192 24.0917 74.6567C24.9373 75.3448 25.3573 75.7817 25.421 76.796C25.5092 78.2117 24.2323 79.2092 22.9217 78.9504C22.4879 78.8642 21.9942 78.6123 21.4404 78.1948C14.4992 72.9504 9.27915 64.6367 9.3879 55.7154C9.45915 49.7716 11.5348 43.3816 15.7029 38.9998C15.8217 38.876 15.946 38.8573 16.076 38.9435Z" fill="#356D24"/>
<path d="M45.8716 69.6092C43.676 67.8035 43.0385 64.1004 43.9066 61.4848C44.2741 60.3798 44.7754 59.2298 45.4104 58.0348C46.6641 55.676 47.9041 53.3604 49.1304 51.0879C49.1761 51.0029 49.244 50.9318 49.3269 50.8823C49.4097 50.8328 49.5045 50.8066 49.601 50.8066C49.6975 50.8066 49.7923 50.8328 49.8751 50.8823C49.958 50.9318 50.0259 51.0029 50.0716 51.0879C51.4354 53.6316 52.7735 56.206 54.086 58.811C55.6929 61.9985 56.2254 65.0398 54.326 68.1954C52.5635 71.1242 48.4854 71.7617 45.8716 69.6092Z" fill="#FFF3D3"/>
</svg>
