<svg width="100" height="100" viewBox="0 0 100 100" fill="none" xmlns="http://www.w3.org/2000/svg">
<rect width="100" height="100" fill="#D6E7FF"/>
<path d="M38.7187 79.0842C37.2041 80.5444 35.3789 81.2782 33.2431 81.2857C30.6306 81.2942 28.9077 80.382 26.7935 78.6507C17.5145 71.0552 12.2276 59.4706 13.0918 47.3455C15.0653 19.717 45.4302 4.11504 69.2582 18.3882C69.3126 18.4201 69.3529 18.4595 69.3792 18.5064C69.4224 18.5796 69.4074 18.5956 69.3342 18.5543C62.2483 14.7284 53.8167 14.0302 46.0073 15.5814C40.1094 16.7554 33.9103 19.7564 30.6757 25.0039C27.6352 29.9362 28.0575 36.2507 30.9516 41.1492C34.7211 47.5285 40.6387 51.1151 46.0974 56.1796C47.9536 57.9025 49.3668 59.7512 50.3371 61.7256C51.9165 64.9378 50.019 68.972 46.6295 69.9207C43.5299 70.7878 39.2339 69.1381 36.5454 67.4123C36.5263 67.4008 36.5043 67.3947 36.482 67.3946C36.4597 67.3945 36.4378 67.4005 36.4189 67.4118C36.3999 67.4232 36.3846 67.4395 36.3746 67.459C36.3647 67.4785 36.3604 67.5003 36.3624 67.5221C36.3643 67.5484 36.3943 67.5944 36.4525 67.6601C39.0734 70.54 42.1392 75.7876 38.7187 79.0842Z" fill="#0C4DA2"/>
<path d="M72.1552 20.342C82.9881 28.8299 88.6073 41.4814 86.5972 55.2169C82.7516 81.5053 53.4931 95.0437 30.7265 81.4885C30.6702 81.4547 30.6364 81.4049 30.6251 81.3393C30.612 81.2736 30.6354 81.2567 30.6955 81.2886C36.6778 84.405 43.0064 85.3481 49.7207 84.8386C58.9377 84.1404 70.1564 79.2363 71.3331 68.6145C72.5718 57.4268 61.7107 50.5352 54.4643 44.1615C52.0039 41.9966 48.6228 38.1595 49.1126 34.7897C49.6447 31.1412 52.8062 29.1902 56.4716 29.7279C58.919 30.0864 61.1552 30.9178 63.1803 32.2222C63.2115 32.2433 63.2493 32.2523 63.2867 32.2475C63.3241 32.2427 63.3584 32.2244 63.3833 32.1961C63.4082 32.1677 63.4218 32.1313 63.4218 32.0936C63.4217 32.056 63.4079 32.0196 63.3829 31.9914C60.8746 29.0973 57.6287 23.8779 61.4433 20.5194C64.5344 17.7942 68.9514 17.8336 72.1552 20.342Z" fill="#8CC63F"/>
</svg>
