<svg width="100" height="100" viewBox="0 0 100 100" fill="none" xmlns="http://www.w3.org/2000/svg">
<rect width="100" height="100" fill="#595C62"/>
<path d="M18.3116 52.4102L21.6866 52.082C21.8897 53.2148 22.2998 54.0469 22.917 54.5781C23.542 55.1094 24.3819 55.375 25.4366 55.375C26.5537 55.375 27.3936 55.1406 27.9561 54.6719C28.5264 54.1953 28.8116 53.6406 28.8116 53.0078C28.8116 52.6016 28.6905 52.2578 28.4483 51.9766C28.2139 51.6875 27.7998 51.4375 27.2061 51.2266C26.7998 51.0859 25.8741 50.8359 24.4287 50.4766C22.5694 50.0156 21.2647 49.4492 20.5147 48.7773C19.46 47.832 18.9327 46.6797 18.9327 45.3203C18.9327 44.4453 19.1787 43.6289 19.6709 42.8711C20.1709 42.1055 20.8858 41.5234 21.8155 41.125C22.753 40.7266 23.8819 40.5273 25.2022 40.5273C27.3584 40.5273 28.9795 41 30.0655 41.9453C31.1592 42.8906 31.7334 44.1523 31.7881 45.7305L28.3194 45.8828C28.1709 45 27.8506 44.3672 27.3584 43.9844C26.8741 43.5938 26.1436 43.3984 25.167 43.3984C24.1592 43.3984 23.3702 43.6055 22.7998 44.0195C22.4327 44.2852 22.2491 44.6406 22.2491 45.0859C22.2491 45.4922 22.4209 45.8398 22.7647 46.1289C23.2022 46.4961 24.2647 46.8789 25.9522 47.2773C27.6397 47.6758 28.8858 48.0898 29.6905 48.5195C30.503 48.9414 31.1358 49.5234 31.5889 50.2656C32.0498 51 32.2803 51.9102 32.2803 52.9961C32.2803 53.9805 32.0069 54.9023 31.46 55.7617C30.9131 56.6211 30.1397 57.2617 29.1397 57.6836C28.1397 58.0977 26.8936 58.3047 25.4014 58.3047C23.2295 58.3047 21.5616 57.8047 20.3975 56.8047C19.2334 55.7969 18.5381 54.332 18.3116 52.4102ZM39.4255 58V43.7266H34.3278V40.8203H47.9802V43.7266H42.8942V58H39.4255ZM50.5667 40.8203H54.0355V50.125C54.0355 51.6016 54.0784 52.5586 54.1644 52.9961C54.3128 53.6992 54.6644 54.2656 55.2191 54.6953C55.7816 55.1172 56.5472 55.3281 57.5159 55.3281C58.5003 55.3281 59.2425 55.1289 59.7425 54.7305C60.2425 54.3242 60.5433 53.8281 60.6448 53.2422C60.7464 52.6562 60.7972 51.6836 60.7972 50.3242V40.8203H64.2659V49.8438C64.2659 51.9062 64.1722 53.3633 63.9847 54.2148C63.7972 55.0664 63.4495 55.7852 62.9417 56.3711C62.4417 56.957 61.7698 57.4258 60.9261 57.7773C60.0823 58.1211 58.9808 58.293 57.6214 58.293C55.9808 58.293 54.7347 58.1055 53.8831 57.7305C53.0394 57.3477 52.3714 56.8555 51.8792 56.2539C51.387 55.6445 51.0628 55.0078 50.9066 54.3438C50.68 53.3594 50.5667 51.9062 50.5667 49.9844V40.8203ZM68.2939 58V40.8203H73.8603C75.9697 40.8203 77.3447 40.9062 77.9853 41.0781C78.9697 41.3359 79.7939 41.8984 80.458 42.7656C81.122 43.625 81.4541 44.7383 81.4541 46.1055C81.4541 47.1602 81.2627 48.0469 80.8798 48.7656C80.497 49.4844 80.0088 50.0508 79.415 50.4648C78.8291 50.8711 78.2314 51.1406 77.622 51.2734C76.7939 51.4375 75.5947 51.5195 74.0244 51.5195H71.7627V58H68.2939ZM71.7627 43.7266V48.6016H73.6611C75.0283 48.6016 75.9423 48.5117 76.4033 48.332C76.8642 48.1523 77.2236 47.8711 77.4814 47.4883C77.747 47.1055 77.8798 46.6602 77.8798 46.1523C77.8798 45.5273 77.6963 45.0117 77.3291 44.6055C76.9619 44.1992 76.497 43.9453 75.9345 43.8438C75.5205 43.7656 74.6884 43.7266 73.4384 43.7266H71.7627Z" fill="#F8F8F8"/>
</svg>
