<svg width="512" height="512" viewBox="0 0 512 512" fill="none" xmlns="http://www.w3.org/2000/svg">
<rect width="512" height="512" fill="white"/>
<path d="M423.046 208.04C423.046 207.976 423.02 207.914 422.975 207.869C422.929 207.823 422.868 207.798 422.803 207.798H393.407C393.343 207.798 393.281 207.823 393.236 207.869C393.19 207.914 393.165 207.976 393.165 208.04V235.097C393.165 235.161 393.19 235.223 393.236 235.268C393.281 235.313 393.343 235.339 393.407 235.339H422.803C422.868 235.339 422.929 235.313 422.975 235.268C423.02 235.223 423.046 235.161 423.046 235.097V208.04Z" stroke="#9697C9" stroke-width="0.637526"/>
<path d="M304.954 235.294C307 235.071 309.155 235.929 310.251 237.701C310.292 237.768 310.347 237.825 310.412 237.869C310.477 237.913 310.551 237.943 310.628 237.956C310.706 237.97 310.785 237.966 310.862 237.946C310.938 237.927 311.009 237.891 311.071 237.841L313.146 236.165C313.301 236.037 313.316 235.895 313.19 235.737C310.455 232.28 306.936 231.147 302.633 232.339C301.498 232.654 300.515 233.309 299.684 234.306C296.828 237.739 298.438 242.17 302.279 244.054C304.051 244.925 305.84 245.777 307.644 246.61C309.518 247.477 310.178 248.779 309.623 250.515C309.385 251.261 308.937 251.832 308.278 252.227C305.668 253.792 302.244 252.354 300.43 250.184C300.171 249.871 299.901 249.553 299.621 249.227C299.546 249.142 299.464 249.135 299.375 249.205L297.15 250.936C297.073 250.995 297.022 251.082 297.007 251.178C296.991 251.274 297.013 251.372 297.067 251.452C299.526 255.082 302.979 256.63 307.427 256.097C309.229 255.882 310.749 255.121 311.985 253.814C314.061 251.625 314.379 247.324 311.998 245.23C309.362 242.906 305.891 241.934 303.433 240.423C300.851 238.842 302.27 235.588 304.954 235.294Z" stroke="#9697C9" stroke-width="0.637526"/>
<path d="M341.656 245.457C342.937 241.007 348.803 239.811 351.445 243.78C351.477 243.827 351.525 243.861 351.581 243.874C351.636 243.888 351.695 243.88 351.745 243.853C352.682 243.35 353.511 242.707 354.231 241.925C354.305 241.842 354.308 241.757 354.238 241.67C351.758 238.599 348.783 237.392 345.315 238.049C343.109 238.465 341.298 239.469 339.88 241.061C335.711 245.743 337.63 253.566 343.667 255.641C347.515 256.964 351.547 256.043 354.024 252.686C354.079 252.612 354.118 252.527 354.14 252.438C354.161 252.348 354.165 252.255 354.15 252.164C354.135 252.073 354.102 251.986 354.053 251.908C354.004 251.83 353.94 251.763 353.865 251.711L351.78 250.264C351.733 250.23 351.675 250.217 351.619 250.226C351.563 250.235 351.513 250.265 351.48 250.311C347.547 255.702 339.925 251.459 341.656 245.457Z" stroke="#9697C9" stroke-width="0.637526"/>
<path d="M375.571 247.625C375.644 246.421 375.477 245.215 375.078 244.074C374.679 242.933 374.056 241.881 373.244 240.977C372.433 240.073 371.45 239.335 370.35 238.806C369.25 238.276 368.056 237.965 366.835 237.89C365.614 237.816 364.39 237.979 363.234 238.37C362.078 238.762 361.012 239.375 360.097 240.173C359.181 240.971 358.435 241.94 357.899 243.023C357.364 244.107 357.051 245.284 356.977 246.488C356.903 247.692 357.071 248.898 357.47 250.039C357.869 251.18 358.492 252.232 359.304 253.136C360.115 254.04 361.099 254.778 362.198 255.308C363.298 255.837 364.492 256.148 365.713 256.223C366.934 256.298 368.158 256.135 369.314 255.743C370.47 255.351 371.536 254.739 372.451 253.94C373.367 253.142 374.113 252.173 374.649 251.09C375.184 250.006 375.497 248.829 375.571 247.625Z" stroke="#9697C9" stroke-width="0.637526"/>
<path d="M383.382 240.162L383.363 238.53C383.362 238.501 383.357 238.473 383.345 238.447C383.334 238.421 383.318 238.397 383.298 238.377C383.278 238.358 383.254 238.342 383.228 238.331C383.202 238.321 383.174 238.316 383.146 238.316L380.127 238.342C380.053 238.342 379.982 238.372 379.929 238.425C379.876 238.478 379.847 238.55 379.847 238.625L379.841 255.606C379.841 255.67 379.866 255.732 379.912 255.777C379.957 255.823 380.019 255.848 380.083 255.848L383.341 255.845C383.378 255.845 383.414 255.838 383.449 255.823C383.483 255.809 383.514 255.787 383.54 255.761C383.566 255.734 383.587 255.702 383.601 255.668C383.615 255.633 383.622 255.596 383.621 255.558C383.596 252.866 383.589 250.149 383.602 247.407C383.608 246.007 383.766 244.972 384.074 244.303C385.17 241.921 387.217 241.692 389.62 241.666C389.76 241.664 389.842 241.595 389.866 241.459C390.046 240.401 390.014 239.352 389.77 238.313C389.747 238.211 389.683 238.155 389.579 238.144C387.203 237.883 385.21 238.584 383.599 240.248C383.581 240.265 383.559 240.277 383.535 240.282C383.51 240.287 383.485 240.285 383.462 240.275C383.439 240.266 383.42 240.251 383.405 240.231C383.391 240.21 383.383 240.187 383.382 240.162Z" stroke="#9697C9" stroke-width="0.637526"/>
<path d="M329.753 248.449C329.772 254.162 321.781 254.318 321.864 248.459C321.909 245.186 321.916 241.889 321.886 238.568C321.886 238.533 321.879 238.498 321.865 238.466C321.851 238.433 321.831 238.404 321.806 238.379C321.78 238.355 321.751 238.335 321.718 238.322C321.685 238.309 321.651 238.303 321.615 238.303L318.479 238.319C318.383 238.32 318.292 238.358 318.225 238.426C318.158 238.493 318.119 238.584 318.119 238.679C318.095 241.965 318.103 245.166 318.141 248.284C318.275 258.972 333.438 258.851 333.473 248.293C333.484 245.212 333.482 242.046 333.467 238.794C333.466 238.673 333.417 238.557 333.331 238.472C333.245 238.386 333.129 238.338 333.008 238.338L329.903 238.335C329.769 238.335 329.702 238.401 329.702 238.533C329.724 241.856 329.741 245.162 329.753 248.449Z" stroke="#9697C9" stroke-width="0.637526"/>
<path d="M90.815 285.238L92.1283 288.55C92.1702 288.654 92.241 288.744 92.3322 288.809C92.4233 288.873 92.5308 288.91 92.6415 288.913L95.8993 289.038C96.2733 289.052 96.387 288.888 96.2404 288.543C92.7913 280.528 89.4241 272.809 86.1388 265.388C85.939 264.934 85.6192 264.795 85.1793 264.971C84.6438 265.184 84.4812 265.717 84.2581 266.233C81.1321 273.439 77.9211 280.85 74.625 288.464C74.4805 288.795 74.5889 288.962 74.9502 288.964L78.2558 288.996C78.305 288.996 78.3532 288.982 78.3946 288.955C78.4359 288.928 78.4686 288.889 78.4885 288.843L79.9261 285.451C79.9743 285.338 80.0547 285.241 80.1574 285.173C80.26 285.105 80.3802 285.069 80.503 285.069L90.5186 285.04C90.6631 285.038 90.7619 285.104 90.815 285.238Z" stroke="#9697C9" stroke-width="0.637526"/>
<path d="M181.159 274.461C183.169 276.99 185.168 279.584 187.155 282.245C188.191 283.628 188.975 283.236 189.877 282.054C191.734 279.62 193.647 277.122 195.615 274.56C195.637 274.53 195.668 274.508 195.703 274.497C195.739 274.486 195.777 274.487 195.812 274.499C195.847 274.511 195.877 274.534 195.899 274.564C195.92 274.595 195.931 274.631 195.93 274.668L195.882 288.623C195.882 288.704 195.914 288.78 195.97 288.838C196.026 288.895 196.102 288.928 196.182 288.929L199.15 289C199.213 289.001 199.276 288.99 199.335 288.967C199.395 288.944 199.448 288.909 199.494 288.865C199.539 288.821 199.576 288.768 199.6 288.709C199.625 288.651 199.638 288.588 199.638 288.525C199.627 280.598 199.616 272.952 199.606 265.586C199.606 265.255 199.472 265.047 199.204 264.962C198.633 264.783 198.041 265.449 197.728 265.864C194.779 269.757 191.768 273.762 188.698 277.878C188.534 278.099 188.369 278.1 188.203 277.881L178.663 265.169C178.566 265.038 178.429 264.941 178.274 264.892C178.118 264.843 177.951 264.845 177.796 264.896C177.642 264.948 177.507 265.047 177.412 265.179C177.317 265.312 177.266 265.471 177.267 265.634L177.273 288.694C177.273 288.76 177.3 288.824 177.347 288.872C177.394 288.919 177.458 288.945 177.525 288.945H180.684C180.933 288.945 181.057 288.821 181.057 288.572L181.006 274.515C181.006 274.349 181.057 274.331 181.159 274.461Z" stroke="#9697C9" stroke-width="0.637526"/>
<path d="M153.318 274.604C153.37 274.602 153.421 274.61 153.469 274.629C153.518 274.647 153.562 274.675 153.599 274.71C153.636 274.746 153.666 274.789 153.686 274.836C153.706 274.884 153.717 274.935 153.716 274.987C153.712 277.598 153.702 280.203 153.685 282.8C153.665 285.557 154.36 288.018 157.207 288.948C159.1 289.571 161.025 289.595 162.98 289.019C163.088 288.987 163.145 288.913 163.152 288.799L163.289 286.118C163.291 286.077 163.284 286.036 163.269 285.998C163.254 285.96 163.23 285.926 163.2 285.898C163.171 285.87 163.135 285.85 163.096 285.838C163.058 285.825 163.017 285.822 162.977 285.828C160.85 286.121 157.682 286.446 157.577 283.357C157.481 280.516 157.456 277.694 157.5 274.891C157.501 274.857 157.508 274.823 157.521 274.792C157.535 274.76 157.555 274.732 157.579 274.708C157.604 274.685 157.633 274.666 157.665 274.654C157.697 274.641 157.731 274.635 157.765 274.636L162.355 274.716C162.399 274.717 162.442 274.709 162.483 274.693C162.524 274.677 162.561 274.653 162.592 274.622C162.624 274.591 162.649 274.555 162.666 274.515C162.683 274.474 162.692 274.431 162.693 274.387L162.715 271.796C162.716 271.751 162.707 271.707 162.69 271.666C162.674 271.624 162.649 271.587 162.617 271.555C162.586 271.523 162.549 271.498 162.507 271.481C162.466 271.464 162.422 271.455 162.377 271.455L157.682 271.487C157.637 271.487 157.593 271.469 157.561 271.438C157.529 271.407 157.511 271.365 157.51 271.321L157.468 267.142C157.468 267.103 157.46 267.065 157.445 267.029C157.429 266.993 157.407 266.96 157.379 266.933C157.351 266.906 157.319 266.885 157.282 266.87C157.246 266.855 157.208 266.848 157.169 266.849L153.876 266.896C153.851 266.896 153.827 266.901 153.804 266.911C153.782 266.92 153.761 266.934 153.744 266.952C153.727 266.969 153.713 266.99 153.704 267.013C153.695 267.036 153.691 267.06 153.691 267.085L153.755 271.037C153.756 271.137 153.719 271.234 153.651 271.306C153.582 271.379 153.488 271.422 153.388 271.426L151.055 271.506C150.991 271.507 150.931 271.534 150.886 271.579C150.842 271.624 150.817 271.685 150.816 271.748L150.777 274.464C150.777 274.496 150.783 274.529 150.796 274.559C150.808 274.589 150.826 274.616 150.85 274.638C150.873 274.661 150.901 274.679 150.931 274.691C150.961 274.702 150.994 274.707 151.026 274.706L153.318 274.604Z" stroke="#9697C9" stroke-width="0.637526"/>
<path d="M384.125 274.649L388.718 274.69C388.865 274.693 388.952 274.621 388.98 274.477C389.156 273.546 389.174 272.61 389.034 271.669C389.026 271.612 388.997 271.559 388.953 271.522C388.909 271.484 388.853 271.464 388.795 271.465L384.233 271.48C384.146 271.481 384.062 271.447 384 271.386C383.938 271.324 383.903 271.24 383.902 271.152L383.876 267.152C383.876 267.113 383.868 267.074 383.853 267.038C383.838 267.003 383.816 266.97 383.788 266.943C383.761 266.916 383.728 266.894 383.692 266.88C383.656 266.865 383.618 266.858 383.58 266.858L380.37 266.881C380.187 266.883 380.096 266.975 380.096 267.158L380.121 271.06C380.122 271.164 380.081 271.264 380.008 271.339C379.934 271.414 379.834 271.456 379.729 271.458L377.428 271.493C377.36 271.495 377.296 271.523 377.249 271.571C377.202 271.619 377.176 271.684 377.176 271.751L377.198 274.404C377.198 274.443 377.206 274.482 377.221 274.518C377.237 274.555 377.259 274.588 377.287 274.615C377.315 274.643 377.349 274.665 377.386 274.679C377.422 274.694 377.461 274.701 377.501 274.7L379.707 274.639C379.763 274.638 379.818 274.648 379.87 274.669C379.922 274.689 379.969 274.72 380.008 274.76C380.048 274.799 380.079 274.846 380.1 274.897C380.121 274.949 380.132 275.004 380.131 275.06C380.082 277.972 380.084 280.923 380.137 283.915C380.226 288.939 385.336 290.163 389.33 289.035C389.475 288.994 389.55 288.9 389.557 288.751L389.694 286.093C389.695 286.063 389.691 286.032 389.68 286.004C389.67 285.976 389.654 285.95 389.633 285.929C389.612 285.907 389.586 285.89 389.558 285.879C389.531 285.867 389.501 285.862 389.47 285.863C387.501 285.908 384.746 286.485 384.058 284.196C383.962 283.881 383.899 282.841 383.867 281.075C383.828 279.001 383.842 276.928 383.908 274.856C383.91 274.8 383.933 274.747 383.974 274.708C384.015 274.669 384.069 274.648 384.125 274.649Z" stroke="#9697C9" stroke-width="0.637526"/>
<path d="M111.244 273.431C109.275 271.423 106.447 270.763 103.731 271.245C101.239 271.688 99.3004 273.46 99.2462 276.074C99.192 278.802 100.942 279.864 103.349 281.008C104.677 281.642 105.788 282.134 106.683 282.484C108.012 283.007 108.602 284.371 107.518 285.442C106.262 286.679 103.623 286.077 102.246 285.238C101.865 285.007 101.342 284.582 100.674 283.963C100.595 283.89 100.49 283.85 100.381 283.852C99.9093 283.861 99.7594 284.234 99.5012 284.47C98.7522 285.165 98.0126 286.042 98.8382 286.826C100.4 288.305 102.228 289.155 104.321 289.376C106.51 289.603 108.337 289.172 109.804 288.082C112.354 286.185 112.516 281.945 109.695 280.176C108.261 279.277 106.49 278.452 104.382 277.7C103.296 277.313 102.859 276.582 103.071 275.506C103.25 274.601 103.741 274.569 104.528 274.442C106.343 274.151 107.875 274.613 109.125 275.828C109.194 275.896 109.288 275.932 109.385 275.931C109.482 275.93 109.575 275.891 109.644 275.822L111.244 274.2C111.345 274.097 111.401 273.96 111.401 273.816C111.401 273.673 111.345 273.535 111.244 273.431Z" stroke="#9697C9" stroke-width="0.637526"/>
<path d="M120.387 277.553C118.771 276.864 118.876 274.709 120.629 274.432C122.289 274.169 123.768 274.519 125.066 275.484C125.541 275.838 125.981 275.953 126.373 275.452C126.784 274.923 127.25 274.445 127.642 273.938C127.681 273.888 127.7 273.826 127.697 273.762C127.695 273.699 127.669 273.638 127.626 273.591C126.191 272.041 124.417 271.219 122.303 271.123C120.052 271.021 117.645 271.55 116.316 273.418C114.78 275.58 115.465 278.566 117.693 280.001C118.934 280.798 120.6 281.575 122.691 282.331C123.272 282.538 124.193 283.246 124.352 283.934C124.543 284.746 124.221 285.349 123.386 285.742C121.117 286.806 118.509 285.627 116.88 283.848C116.81 283.772 116.734 283.762 116.651 283.82C115.832 284.39 114.123 285.847 114.949 286.65C117.675 289.311 120.785 290.068 124.279 288.923C126.52 288.187 128.107 286.526 128.056 284.142C127.97 280.055 123.75 278.984 120.387 277.553Z" stroke="#9697C9" stroke-width="0.637526"/>
<path d="M135.608 281.448L147.966 281.438C148.044 281.438 148.12 281.411 148.18 281.36C148.24 281.309 148.279 281.238 148.291 281.161C150.156 270.026 135.585 267.384 131.856 276.915C130.342 280.782 131.633 285.292 135.024 287.676C138.757 290.3 143.774 289.831 147.338 286.956C147.458 286.86 147.537 286.721 147.558 286.569C147.579 286.416 147.54 286.261 147.45 286.137L146.315 284.575C146.265 284.506 146.202 284.448 146.13 284.404C146.058 284.359 145.978 284.33 145.894 284.316C145.811 284.303 145.726 284.306 145.643 284.326C145.561 284.346 145.484 284.382 145.416 284.431C141.881 287.01 136.672 286.746 135.177 282.037C135.156 281.97 135.15 281.898 135.162 281.828C135.173 281.758 135.201 281.691 135.243 281.634C135.285 281.576 135.34 281.529 135.403 281.497C135.466 281.465 135.537 281.448 135.608 281.448Z" stroke="#9697C9" stroke-width="0.637526"/>
<path d="M215.343 287.498L215.633 288.818C215.644 288.865 215.67 288.907 215.707 288.937C215.744 288.967 215.79 288.984 215.837 288.983L218.677 288.98C218.78 288.98 218.878 288.94 218.951 288.869C219.024 288.797 219.067 288.7 219.069 288.598C219.165 284.724 219.131 281.041 218.967 277.549C218.773 273.39 216.051 271.238 212.034 271.085C209.148 270.977 206.72 272.075 204.751 274.381C204.66 274.487 204.612 274.623 204.617 274.761C204.622 274.9 204.679 275.032 204.776 275.13L206.424 276.797C206.466 276.84 206.517 276.873 206.573 276.895C206.63 276.916 206.69 276.925 206.75 276.921C206.811 276.916 206.869 276.899 206.922 276.87C206.976 276.841 207.022 276.801 207.058 276.753C208.572 274.741 211.926 273.479 214.081 275.219C215.047 275.997 215.464 277.702 215.298 278.965C215.288 279.04 215.251 279.109 215.194 279.16C215.137 279.21 215.065 279.238 214.989 279.239C211.193 279.258 203.338 278.608 203.871 284.82C204.276 289.56 210.157 290.176 213.689 288.585C213.971 288.458 214.447 288.072 215.117 287.428C215.234 287.317 215.309 287.341 215.343 287.498Z" stroke="#9697C9" stroke-width="0.637526"/>
<path d="M227.816 272.844L227.721 271.719C227.714 271.649 227.682 271.583 227.63 271.536C227.578 271.489 227.51 271.463 227.44 271.464L224.425 271.502C224.378 271.502 224.333 271.521 224.299 271.554C224.266 271.588 224.247 271.633 224.246 271.681L224.236 288.645C224.236 288.726 224.268 288.803 224.324 288.861C224.38 288.918 224.456 288.951 224.536 288.951L227.823 288.977C227.846 288.977 227.869 288.972 227.89 288.963C227.912 288.955 227.931 288.942 227.948 288.925C227.964 288.909 227.977 288.89 227.985 288.868C227.994 288.847 227.998 288.824 227.998 288.802C227.968 285.442 227.935 282.113 227.899 278.815C227.884 277.376 228.365 276.238 229.343 275.401C231.045 273.947 234.246 274.145 235.342 276.347C235.589 276.845 235.721 277.607 235.741 278.633C235.796 281.736 235.799 284.972 235.75 288.343C235.746 288.765 235.955 288.975 236.378 288.97L239.276 288.948C239.342 288.947 239.405 288.921 239.452 288.874C239.498 288.828 239.524 288.765 239.524 288.7C239.537 285.228 239.464 281.747 239.55 278.295C239.626 275.299 238.463 272.471 235.39 271.521C232.612 270.663 230.145 271.127 227.988 272.914C227.884 272.999 227.827 272.976 227.816 272.844Z" stroke="#9697C9" stroke-width="0.637526"/>
<path d="M254.905 287.419L255.227 288.78C255.239 288.834 255.27 288.883 255.314 288.917C255.358 288.952 255.413 288.971 255.469 288.971L258.21 288.98C258.327 288.98 258.439 288.934 258.521 288.852C258.604 288.769 258.65 288.657 258.65 288.541C258.661 285.092 258.644 281.77 258.599 278.576C258.545 274.467 256.9 271.758 252.6 271.184C249.268 270.738 246.453 271.847 244.156 274.512C244.111 274.562 244.087 274.628 244.088 274.695C244.089 274.763 244.116 274.828 244.162 274.878L245.903 276.737C245.954 276.791 246.016 276.833 246.086 276.861C246.155 276.888 246.23 276.899 246.304 276.894C246.379 276.889 246.451 276.867 246.516 276.831C246.581 276.794 246.637 276.743 246.68 276.683C249.125 273.259 255.386 273.399 254.834 279.045C254.822 279.164 254.756 279.224 254.637 279.226C251.545 279.277 247.162 278.777 244.777 281.027C242.384 283.287 243.295 287.53 246.308 288.776C248.609 289.731 250.93 289.665 253.269 288.579C253.881 288.295 254.226 287.82 254.72 287.361C254.813 287.274 254.875 287.293 254.905 287.419Z" stroke="#9697C9" stroke-width="0.637526"/>
<path d="M277.463 273.657C275.687 271.809 273.35 270.979 270.454 271.168C261.487 271.751 260.053 284.76 267.999 287.983C271.174 289.27 274.55 288.792 277.059 286.443C277.087 286.415 277.123 286.397 277.163 286.39C277.202 286.384 277.242 286.389 277.278 286.405C277.314 286.422 277.345 286.449 277.365 286.483C277.386 286.517 277.395 286.556 277.393 286.596C277.31 288.037 277.126 289.621 276.208 290.711C274.289 292.997 270.629 292.694 268.232 291.393C267.459 290.975 266.713 290.542 265.994 290.096C265.93 290.056 265.854 290.041 265.779 290.055C265.705 290.068 265.638 290.109 265.593 290.169L264.05 292.216C263.996 292.287 263.97 292.376 263.977 292.465C263.985 292.554 264.026 292.637 264.091 292.697C266.391 294.839 269.172 295.86 272.437 295.76C278.113 295.586 280.95 292.647 280.948 286.944C280.943 281.941 280.969 276.917 281.024 271.872C281.024 271.819 281.014 271.767 280.994 271.718C280.974 271.669 280.945 271.624 280.908 271.586C280.87 271.549 280.826 271.519 280.777 271.498C280.728 271.478 280.675 271.468 280.622 271.468H277.922C277.867 271.467 277.813 271.479 277.762 271.501C277.711 271.523 277.665 271.555 277.628 271.595C277.59 271.636 277.561 271.683 277.543 271.735C277.524 271.787 277.517 271.843 277.521 271.898L277.648 273.571C277.663 273.773 277.602 273.802 277.463 273.657Z" stroke="#9697C9" stroke-width="0.637526"/>
<path d="M289.407 281.454L302.075 281.435C302.131 281.435 302.184 281.416 302.227 281.381C302.269 281.346 302.298 281.298 302.308 281.244C303.452 275.21 299.547 270.67 293.504 271.136C286.762 271.659 283.399 279.178 286.526 284.801C288.477 288.304 292.541 289.946 296.427 289.245C297.778 288.999 300.893 287.976 301.632 286.577C301.658 286.528 301.67 286.473 301.667 286.418C301.663 286.363 301.645 286.31 301.613 286.264L300.408 284.559C300.208 284.274 299.959 284.219 299.659 284.393C298.684 284.954 297.699 285.592 296.653 285.837C293.223 286.644 290.153 285.314 289.168 281.77C289.158 281.733 289.156 281.694 289.164 281.656C289.171 281.619 289.187 281.583 289.21 281.553C289.233 281.522 289.263 281.497 289.297 281.48C289.331 281.463 289.369 281.454 289.407 281.454Z" stroke="#9697C9" stroke-width="0.637526"/>
<path d="M310.408 272.768L310.299 271.655C310.294 271.597 310.267 271.543 310.224 271.503C310.181 271.463 310.125 271.442 310.067 271.442L307.147 271.477C307.011 271.477 306.943 271.546 306.943 271.684L306.936 288.776C306.936 288.821 306.954 288.864 306.986 288.896C307.017 288.927 307.06 288.945 307.105 288.945L310.283 288.952C310.337 288.952 310.39 288.942 310.44 288.921C310.49 288.901 310.535 288.871 310.573 288.833C310.611 288.795 310.641 288.75 310.661 288.7C310.681 288.65 310.692 288.597 310.691 288.544C310.67 285.273 310.67 282.136 310.691 279.134C310.704 277.489 310.86 276.284 312.087 275.315C313.863 273.909 316.671 274.276 317.707 276.443C317.986 277.026 318.123 277.884 318.118 279.019C318.106 282.228 318.115 285.445 318.147 288.671C318.148 288.745 318.177 288.815 318.229 288.867C318.281 288.92 318.351 288.95 318.425 288.952L321.459 288.996C321.814 289.003 321.989 288.828 321.985 288.473C321.951 285.058 321.922 281.707 321.899 278.42C321.864 273.38 329.329 272.966 329.425 278.416C329.487 281.865 329.476 285.294 329.393 288.703C329.393 288.735 329.399 288.767 329.41 288.797C329.422 288.826 329.44 288.853 329.462 288.876C329.484 288.899 329.511 288.917 329.54 288.93C329.569 288.942 329.601 288.948 329.632 288.948L332.88 288.964C332.918 288.964 332.955 288.957 332.99 288.943C333.024 288.928 333.056 288.907 333.082 288.881C333.109 288.855 333.129 288.823 333.143 288.789C333.157 288.755 333.165 288.718 333.164 288.681C333.139 285.797 333.136 282.962 333.158 280.176C333.177 277.834 333.039 276.196 332.743 275.261C331.114 270.1 324.353 269.944 321.045 273.469C321.011 273.504 320.97 273.532 320.925 273.55C320.88 273.568 320.831 273.575 320.783 273.572C320.734 273.569 320.687 273.556 320.645 273.532C320.603 273.509 320.566 273.477 320.538 273.437C318.208 270.275 313.366 270.517 310.608 272.851C310.489 272.951 310.422 272.923 310.408 272.768Z" stroke="#9697C9" stroke-width="0.637526"/>
<path d="M341.372 281.442L353.807 281.445C353.894 281.445 353.978 281.414 354.044 281.358C354.111 281.302 354.156 281.224 354.171 281.139C355.041 276.016 352.414 271.63 347.206 271.152C336.454 270.164 333.288 285.197 343.17 288.764C346.6 290.003 349.954 289.425 353.233 287.03C353.306 286.977 353.367 286.91 353.413 286.834C353.459 286.758 353.49 286.673 353.503 286.585C353.517 286.496 353.512 286.406 353.491 286.319C353.469 286.233 353.43 286.151 353.377 286.08L352.143 284.428C352.097 284.367 352.039 284.315 351.972 284.277C351.905 284.239 351.831 284.215 351.754 284.207C351.677 284.198 351.6 284.206 351.526 284.23C351.453 284.253 351.385 284.292 351.327 284.342C348.576 286.759 343.677 286.832 341.64 283.322C341.332 282.791 341.188 282.217 341.21 281.601C341.212 281.495 341.266 281.442 341.372 281.442Z" stroke="#9697C9" stroke-width="0.637526"/>
<path d="M362.283 272.851L362.025 271.655C361.997 271.53 361.92 271.468 361.792 271.47L359.035 271.474C358.693 271.476 358.522 271.648 358.522 271.99L358.506 288.582C358.506 288.682 358.545 288.778 358.616 288.85C358.686 288.921 358.782 288.963 358.882 288.964L361.936 288.996C361.987 288.996 362.038 288.987 362.085 288.968C362.133 288.948 362.176 288.92 362.213 288.884C362.249 288.848 362.278 288.806 362.298 288.759C362.318 288.712 362.328 288.661 362.328 288.61C362.351 285.493 362.351 282.432 362.328 279.427C362.319 278.237 362.393 277.412 362.548 276.953C363.855 273.087 370.121 273.903 370.134 278.26C370.143 281.745 370.158 285.217 370.179 288.674C370.179 288.71 370.186 288.745 370.2 288.778C370.213 288.811 370.234 288.841 370.259 288.866C370.285 288.891 370.315 288.911 370.348 288.924C370.381 288.938 370.417 288.945 370.453 288.945L373.354 288.977C373.504 288.979 373.648 288.921 373.756 288.816C373.863 288.712 373.925 288.569 373.927 288.419C374 284.428 373.977 280.777 373.861 277.466C373.672 272.076 368.872 270.007 364.189 271.668C363.498 271.914 363 272.43 362.439 272.905C362.359 272.973 362.306 272.955 362.283 272.851Z" stroke="#9697C9" stroke-width="0.637526"/>
<path d="M366.205 252.797C366.925 252.805 367.639 252.664 368.307 252.383C368.975 252.102 369.584 251.687 370.099 251.16C370.613 250.634 371.024 250.006 371.307 249.314C371.589 248.622 371.739 247.879 371.747 247.127C371.763 245.608 371.2 244.145 370.184 243.06C369.167 241.975 367.779 241.357 366.325 241.342C365.605 241.334 364.89 241.475 364.222 241.756C363.554 242.037 362.945 242.452 362.43 242.979C361.916 243.505 361.505 244.132 361.222 244.824C360.94 245.516 360.79 246.26 360.782 247.012C360.766 248.531 361.329 249.994 362.345 251.079C363.362 252.164 364.751 252.782 366.205 252.797Z" stroke="#9697C9" stroke-width="0.637526"/>
<path d="M81.5869 281.594C81.5775 281.617 81.5738 281.642 81.5761 281.666C81.5785 281.691 81.5868 281.714 81.6003 281.735C81.6138 281.755 81.6322 281.772 81.6537 281.784C81.6753 281.795 81.6994 281.801 81.7239 281.802L89.0842 281.789C89.109 281.789 89.1335 281.783 89.1554 281.772C89.1774 281.76 89.1962 281.744 89.2101 281.723C89.224 281.703 89.2326 281.679 89.2351 281.654C89.2376 281.63 89.2339 281.605 89.2244 281.582L85.5268 272.417C85.5155 272.39 85.4963 272.366 85.4716 272.35C85.4469 272.333 85.4179 272.324 85.3881 272.324C85.3584 272.324 85.3293 272.333 85.3046 272.35C85.2799 272.366 85.2607 272.39 85.2494 272.417L81.5869 281.594Z" stroke="#9697C9" stroke-width="0.637526"/>
<path d="M135.349 278.535L144.746 278.42C144.757 278.42 144.766 278.416 144.773 278.409C144.781 278.402 144.785 278.392 144.785 278.382V278.359C144.778 277.824 144.651 277.295 144.409 276.803C144.168 276.311 143.817 275.866 143.378 275.493C142.938 275.12 142.418 274.826 141.847 274.628C141.276 274.43 140.666 274.332 140.051 274.34H139.943C138.701 274.355 137.515 274.799 136.647 275.575C135.778 276.35 135.298 277.393 135.311 278.474V278.496C135.311 278.507 135.315 278.516 135.322 278.523C135.329 278.531 135.339 278.535 135.349 278.535Z" stroke="#9697C9" stroke-width="0.637526"/>
<path d="M212.366 286.242C214.193 285.594 215.181 284.285 215.33 282.315C215.333 282.285 215.329 282.254 215.319 282.225C215.31 282.197 215.294 282.17 215.273 282.147C215.253 282.125 215.228 282.106 215.2 282.094C215.172 282.081 215.141 282.074 215.11 282.073C214.33 282.054 212.974 282.054 211.04 282.073C209.73 282.086 208.257 282.076 207.725 283.466C207.544 283.942 207.553 284.432 207.753 284.935C208.426 286.634 210.89 286.768 212.366 286.242Z" stroke="#9697C9" stroke-width="0.637526"/>
<path d="M249.243 286.414C252.02 287.02 254.57 285.292 254.901 282.458C254.907 282.413 254.903 282.367 254.89 282.324C254.877 282.28 254.855 282.24 254.826 282.205C254.796 282.17 254.76 282.141 254.72 282.121C254.679 282.1 254.634 282.088 254.589 282.086C252.891 281.975 251.164 281.988 249.409 282.124C246.349 282.363 246.579 285.834 249.243 286.414Z" stroke="#9697C9" stroke-width="0.637526"/>
<path d="M277.279 279.319C277.279 278.045 276.773 276.824 275.873 275.924C274.972 275.024 273.751 274.518 272.478 274.518H271.534C270.261 274.518 269.04 275.024 268.14 275.924C267.24 276.824 266.734 278.045 266.734 279.319V280.473C266.734 281.746 267.24 282.967 268.14 283.867C269.04 284.767 270.261 285.273 271.534 285.273H272.478C273.751 285.273 274.972 284.767 275.873 283.867C276.773 282.967 277.279 281.746 277.279 280.473V279.319Z" stroke="#9697C9" stroke-width="0.637526"/>
<path d="M289.43 278.544L298.852 278.41C298.863 278.41 298.872 278.406 298.879 278.399C298.887 278.392 298.891 278.382 298.891 278.372V278.359C298.875 277.275 298.366 276.243 297.476 275.489C296.586 274.735 295.388 274.322 294.144 274.339H294.023C293.407 274.348 292.799 274.462 292.233 274.676C291.667 274.889 291.154 275.197 290.724 275.583C290.294 275.969 289.955 276.424 289.726 276.924C289.497 277.423 289.384 277.956 289.391 278.493V278.506C289.391 278.516 289.396 278.526 289.403 278.533C289.41 278.54 289.42 278.544 289.43 278.544Z" stroke="#9697C9" stroke-width="0.637526"/>
<path d="M346.998 274.41C344.176 273.955 342.24 275.188 341.191 278.107C341.175 278.151 341.17 278.198 341.176 278.245C341.183 278.291 341.2 278.335 341.227 278.373C341.255 278.411 341.291 278.442 341.332 278.464C341.374 278.485 341.421 278.496 341.468 278.496L350.355 278.461C350.636 278.459 350.753 278.32 350.709 278.044C350.377 276.026 349.045 274.741 346.998 274.41Z" stroke="#9697C9" stroke-width="0.637526"/>
<path d="M422.803 207.798H393.407C393.273 207.798 393.165 207.906 393.165 208.04V235.097C393.165 235.23 393.273 235.339 393.407 235.339H422.803C422.937 235.339 423.046 235.23 423.046 235.097V208.04C423.046 207.906 422.937 207.798 422.803 207.798Z" fill="#2C2E92"/>
<path d="M310.251 237.701C309.155 235.929 307 235.071 304.954 235.294C302.27 235.588 300.851 238.842 303.433 240.423C305.891 241.934 309.362 242.906 311.998 245.23C314.379 247.324 314.061 251.625 311.985 253.814C310.749 255.121 309.229 255.882 307.427 256.097C302.979 256.63 299.526 255.082 297.067 251.452C297.013 251.372 296.991 251.274 297.007 251.178C297.022 251.082 297.073 250.995 297.15 250.936L299.375 249.205C299.464 249.135 299.546 249.142 299.621 249.227C299.901 249.553 300.171 249.871 300.43 250.184C302.244 252.354 305.668 253.792 308.278 252.227C308.937 251.832 309.385 251.261 309.623 250.515C310.178 248.779 309.518 247.477 307.644 246.61C305.84 245.777 304.051 244.925 302.279 244.054C298.438 242.17 296.828 237.739 299.684 234.306C300.515 233.309 301.498 232.654 302.633 232.339C306.936 231.147 310.455 232.28 313.19 235.737C313.316 235.895 313.301 236.037 313.146 236.165L311.071 237.841C311.009 237.891 310.938 237.927 310.862 237.946C310.785 237.966 310.706 237.97 310.628 237.956C310.551 237.943 310.477 237.913 310.412 237.869C310.347 237.825 310.292 237.768 310.251 237.701Z" fill="#2C2E92"/>
<path d="M351.445 243.78C348.803 239.811 342.937 241.007 341.656 245.457C339.925 251.459 347.547 255.702 351.48 250.311C351.513 250.265 351.563 250.235 351.619 250.226C351.675 250.217 351.733 250.23 351.78 250.264L353.865 251.711C353.94 251.763 354.004 251.83 354.053 251.908C354.102 251.986 354.135 252.073 354.15 252.164C354.165 252.255 354.161 252.348 354.14 252.438C354.118 252.527 354.079 252.612 354.024 252.686C351.547 256.043 347.515 256.964 343.667 255.641C337.63 253.566 335.711 245.743 339.88 241.061C341.298 239.469 343.109 238.465 345.315 238.049C348.783 237.392 351.758 238.599 354.238 241.67C354.308 241.757 354.305 241.842 354.231 241.925C353.511 242.707 352.682 243.35 351.745 243.853C351.695 243.88 351.636 243.888 351.581 243.874C351.525 243.861 351.477 243.827 351.445 243.78Z" fill="#2C2E92"/>
<path d="M375.571 247.625C375.497 248.829 375.184 250.006 374.649 251.09C374.113 252.173 373.367 253.142 372.451 253.94C371.536 254.739 370.47 255.351 369.314 255.743C368.158 256.135 366.934 256.298 365.713 256.223C364.492 256.148 363.298 255.837 362.198 255.308C361.099 254.778 360.115 254.04 359.304 253.136C358.492 252.232 357.869 251.18 357.47 250.039C357.071 248.898 356.903 247.692 356.977 246.488C357.051 245.284 357.364 244.107 357.899 243.023C358.435 241.94 359.181 240.971 360.097 240.173C361.012 239.375 362.078 238.762 363.234 238.37C364.39 237.979 365.614 237.816 366.835 237.89C368.056 237.965 369.25 238.276 370.35 238.806C371.45 239.335 372.433 240.073 373.244 240.977C374.056 241.881 374.679 242.933 375.078 244.074C375.477 245.215 375.644 246.421 375.571 247.625ZM366.204 252.797C366.924 252.805 367.639 252.664 368.307 252.383C368.975 252.102 369.584 251.687 370.099 251.16C370.613 250.634 371.024 250.006 371.307 249.314C371.589 248.622 371.739 247.879 371.747 247.127C371.763 245.608 371.2 244.145 370.183 243.06C369.167 241.975 367.778 241.357 366.324 241.342C365.604 241.334 364.89 241.475 364.222 241.756C363.554 242.036 362.945 242.452 362.43 242.979C361.916 243.505 361.505 244.132 361.222 244.824C360.939 245.516 360.79 246.26 360.782 247.012C360.766 248.531 361.328 249.994 362.345 251.079C363.362 252.164 364.75 252.782 366.204 252.797Z" fill="#2C2E92"/>
<path d="M383.599 240.248C385.21 238.584 387.203 237.883 389.579 238.144C389.683 238.155 389.747 238.211 389.77 238.313C390.014 239.352 390.046 240.401 389.866 241.459C389.842 241.595 389.76 241.664 389.62 241.666C387.217 241.692 385.17 241.921 384.074 244.303C383.766 244.972 383.608 246.007 383.602 247.407C383.589 250.149 383.596 252.866 383.621 255.558C383.622 255.596 383.615 255.633 383.601 255.668C383.587 255.702 383.566 255.734 383.54 255.761C383.514 255.787 383.483 255.809 383.449 255.823C383.414 255.838 383.378 255.845 383.341 255.845L380.083 255.848C380.019 255.848 379.957 255.823 379.912 255.777C379.866 255.732 379.841 255.67 379.841 255.606L379.847 238.625C379.847 238.55 379.876 238.478 379.929 238.425C379.982 238.372 380.053 238.342 380.127 238.342L383.146 238.316C383.174 238.316 383.202 238.321 383.228 238.331C383.254 238.342 383.278 238.358 383.298 238.377C383.318 238.397 383.334 238.421 383.345 238.447C383.357 238.473 383.362 238.501 383.363 238.53L383.382 240.162C383.383 240.187 383.391 240.21 383.405 240.231C383.42 240.251 383.439 240.266 383.462 240.275C383.485 240.285 383.51 240.287 383.535 240.282C383.559 240.277 383.581 240.265 383.599 240.248Z" fill="#2C2E92"/>
<path d="M321.864 248.46C321.781 254.318 329.772 254.162 329.753 248.45C329.741 245.162 329.724 241.857 329.702 238.533C329.702 238.401 329.769 238.336 329.903 238.336L333.008 238.339C333.129 238.339 333.245 238.387 333.331 238.472C333.417 238.558 333.466 238.673 333.467 238.795C333.482 242.046 333.484 245.212 333.473 248.294C333.438 258.851 318.275 258.972 318.141 248.284C318.103 245.167 318.095 241.965 318.119 238.68C318.119 238.585 318.158 238.493 318.225 238.426C318.292 238.359 318.383 238.321 318.479 238.32L321.615 238.304C321.651 238.303 321.685 238.31 321.718 238.323C321.751 238.336 321.78 238.355 321.806 238.38C321.831 238.404 321.851 238.434 321.865 238.466C321.879 238.498 321.886 238.533 321.886 238.568C321.916 241.89 321.909 245.187 321.864 248.46Z" fill="#2C2E92"/>
<path d="M360.782 247.012C360.749 250.175 363.177 252.766 366.205 252.797C369.232 252.829 371.714 250.29 371.747 247.127C371.78 243.963 369.352 241.373 366.325 241.342C363.297 241.31 360.815 243.849 360.782 247.012Z" fill="white"/>
<path d="M90.5186 285.04L80.5031 285.069C80.3803 285.069 80.26 285.105 80.1574 285.173C80.0548 285.241 79.9744 285.338 79.9261 285.451L78.4885 288.843C78.4686 288.889 78.436 288.928 78.3946 288.955C78.3533 288.982 78.305 288.996 78.2558 288.996L74.9502 288.964C74.589 288.962 74.4806 288.795 74.6251 288.464C77.9211 280.85 81.1321 273.439 84.2581 266.233C84.4813 265.717 84.6438 265.184 85.1793 264.971C85.6192 264.795 85.9391 264.934 86.1388 265.388C89.4242 272.809 92.7914 280.528 96.2404 288.543C96.3871 288.888 96.2734 289.052 95.8993 289.038L92.6416 288.913C92.5308 288.91 92.4233 288.873 92.3322 288.809C92.2411 288.744 92.1703 288.654 92.1284 288.55L90.8151 285.238C90.7619 285.104 90.6631 285.038 90.5186 285.04ZM81.5869 281.594C81.5775 281.617 81.5738 281.642 81.5761 281.666C81.5785 281.691 81.5868 281.714 81.6003 281.734C81.6139 281.755 81.6322 281.772 81.6538 281.783C81.6753 281.795 81.6994 281.801 81.724 281.802L89.0842 281.789C89.109 281.789 89.1335 281.783 89.1555 281.772C89.1774 281.76 89.1962 281.744 89.2101 281.723C89.224 281.702 89.2326 281.679 89.2351 281.654C89.2376 281.629 89.2339 281.605 89.2244 281.582L85.5268 272.417C85.5155 272.39 85.4963 272.366 85.4716 272.35C85.4469 272.333 85.4179 272.324 85.3881 272.324C85.3584 272.324 85.3293 272.333 85.3046 272.35C85.2799 272.366 85.2607 272.39 85.2495 272.417L81.5869 281.594Z" fill="#2C2E92"/>
<path d="M181.159 274.461C181.057 274.331 181.006 274.349 181.006 274.515L181.057 288.572C181.057 288.821 180.933 288.945 180.684 288.945H177.525C177.458 288.945 177.394 288.919 177.347 288.872C177.3 288.824 177.273 288.76 177.273 288.694L177.267 265.634C177.266 265.471 177.317 265.312 177.412 265.179C177.507 265.047 177.642 264.948 177.796 264.896C177.951 264.845 178.118 264.843 178.274 264.892C178.429 264.941 178.566 265.038 178.663 265.169L188.204 277.881C188.369 278.1 188.534 278.099 188.698 277.878C191.768 273.762 194.779 269.757 197.728 265.864C198.041 265.449 198.633 264.783 199.204 264.962C199.472 265.047 199.606 265.255 199.606 265.586C199.616 272.952 199.627 280.598 199.638 288.525C199.638 288.588 199.625 288.651 199.6 288.709C199.576 288.768 199.539 288.821 199.494 288.865C199.449 288.909 199.395 288.944 199.336 288.967C199.276 288.99 199.213 289.001 199.15 289L196.182 288.929C196.102 288.928 196.026 288.895 195.97 288.838C195.914 288.78 195.883 288.704 195.883 288.623L195.93 274.668C195.931 274.631 195.92 274.595 195.899 274.564C195.877 274.534 195.847 274.511 195.812 274.499C195.777 274.487 195.739 274.486 195.704 274.497C195.668 274.508 195.637 274.53 195.615 274.56C193.647 277.122 191.734 279.62 189.877 282.054C188.975 283.236 188.191 283.628 187.155 282.245C185.168 279.584 183.169 276.99 181.159 274.461Z" fill="#2C2E92"/>
<path d="M153.318 274.604L151.026 274.706C150.994 274.707 150.961 274.702 150.931 274.691C150.901 274.679 150.873 274.661 150.85 274.638C150.827 274.616 150.808 274.589 150.796 274.559C150.783 274.529 150.777 274.496 150.778 274.464L150.816 271.748C150.817 271.685 150.842 271.624 150.887 271.579C150.931 271.534 150.992 271.507 151.055 271.506L153.388 271.426C153.488 271.422 153.582 271.379 153.651 271.306C153.719 271.234 153.757 271.137 153.755 271.037L153.691 267.085C153.691 267.06 153.695 267.036 153.704 267.013C153.713 266.99 153.727 266.969 153.744 266.952C153.761 266.934 153.782 266.92 153.804 266.911C153.827 266.901 153.851 266.896 153.876 266.896L157.169 266.849C157.208 266.848 157.246 266.855 157.283 266.87C157.319 266.885 157.352 266.906 157.379 266.933C157.407 266.96 157.429 266.993 157.445 267.029C157.46 267.065 157.468 267.103 157.468 267.142L157.51 271.321C157.511 271.365 157.529 271.407 157.561 271.438C157.594 271.469 157.637 271.487 157.682 271.487L162.377 271.455C162.422 271.455 162.466 271.464 162.507 271.481C162.549 271.498 162.586 271.523 162.617 271.555C162.649 271.587 162.674 271.624 162.69 271.666C162.707 271.707 162.716 271.751 162.715 271.796L162.693 274.387C162.693 274.431 162.683 274.474 162.666 274.515C162.649 274.555 162.624 274.591 162.593 274.622C162.561 274.653 162.524 274.677 162.483 274.693C162.442 274.709 162.399 274.717 162.355 274.716L157.765 274.636C157.731 274.635 157.697 274.641 157.665 274.654C157.633 274.666 157.604 274.685 157.579 274.708C157.555 274.732 157.535 274.76 157.521 274.792C157.508 274.823 157.501 274.857 157.5 274.891C157.456 277.694 157.481 280.516 157.577 283.357C157.682 286.446 160.851 286.121 162.977 285.828C163.017 285.822 163.058 285.825 163.096 285.838C163.135 285.85 163.171 285.87 163.201 285.898C163.23 285.926 163.254 285.96 163.269 285.998C163.285 286.036 163.291 286.077 163.289 286.118L163.152 288.799C163.146 288.913 163.088 288.987 162.98 289.019C161.025 289.595 159.101 289.571 157.207 288.948C154.361 288.018 153.666 285.557 153.685 282.8C153.702 280.203 153.712 277.598 153.717 274.987C153.717 274.935 153.706 274.884 153.686 274.836C153.666 274.789 153.636 274.746 153.599 274.71C153.562 274.675 153.518 274.647 153.469 274.629C153.421 274.61 153.37 274.602 153.318 274.604Z" fill="#2C2E92"/>
<path d="M383.908 274.856C383.842 276.928 383.828 279.001 383.867 281.075C383.898 282.841 383.962 283.881 384.058 284.196C384.746 286.485 387.5 285.908 389.47 285.863C389.5 285.862 389.53 285.867 389.558 285.879C389.586 285.89 389.612 285.907 389.633 285.929C389.654 285.95 389.67 285.976 389.68 286.004C389.691 286.032 389.695 286.063 389.693 286.093L389.556 288.751C389.55 288.9 389.475 288.994 389.33 289.035C385.336 290.163 380.226 288.939 380.137 283.915C380.084 280.923 380.082 277.972 380.131 275.06C380.131 275.004 380.121 274.949 380.1 274.897C380.079 274.846 380.048 274.799 380.008 274.76C379.969 274.72 379.921 274.689 379.87 274.669C379.818 274.648 379.762 274.638 379.707 274.639L377.501 274.7C377.461 274.701 377.422 274.694 377.385 274.679C377.349 274.665 377.315 274.643 377.287 274.615C377.259 274.588 377.236 274.555 377.221 274.518C377.206 274.482 377.198 274.443 377.198 274.404L377.176 271.751C377.176 271.684 377.202 271.619 377.249 271.571C377.296 271.523 377.36 271.495 377.427 271.493L379.729 271.458C379.834 271.456 379.934 271.414 380.008 271.339C380.081 271.264 380.122 271.164 380.121 271.06L380.096 267.158C380.096 266.975 380.187 266.883 380.37 266.881L383.58 266.858C383.618 266.858 383.656 266.865 383.692 266.88C383.728 266.894 383.76 266.916 383.788 266.943C383.815 266.97 383.837 267.003 383.853 267.038C383.868 267.074 383.876 267.113 383.876 267.152L383.902 271.152C383.902 271.24 383.938 271.324 384 271.386C384.062 271.447 384.146 271.481 384.233 271.48L388.795 271.465C388.853 271.464 388.909 271.484 388.953 271.522C388.997 271.559 389.026 271.612 389.034 271.669C389.174 272.61 389.156 273.546 388.979 274.477C388.952 274.621 388.865 274.693 388.718 274.69L384.125 274.649C384.069 274.648 384.014 274.669 383.974 274.708C383.933 274.747 383.91 274.8 383.908 274.856Z" fill="#2C2E92"/>
<path d="M103.731 271.245C106.447 270.763 109.275 271.423 111.245 273.431C111.345 273.535 111.401 273.673 111.401 273.816C111.401 273.96 111.345 274.097 111.245 274.2L109.644 275.822C109.575 275.891 109.482 275.93 109.385 275.931C109.288 275.932 109.194 275.896 109.125 275.828C107.875 274.613 106.343 274.151 104.528 274.442C103.741 274.569 103.25 274.601 103.071 275.506C102.859 276.582 103.296 277.313 104.382 277.7C106.49 278.452 108.261 279.277 109.695 280.176C112.516 281.945 112.354 286.185 109.804 288.082C108.337 289.172 106.51 289.603 104.321 289.376C102.228 289.155 100.4 288.305 98.8383 286.826C98.0127 286.042 98.7522 285.165 99.5013 284.47C99.7595 284.234 99.9093 283.861 100.381 283.852C100.49 283.85 100.595 283.89 100.674 283.963C101.342 284.582 101.865 285.007 102.246 285.238C103.623 286.077 106.262 286.679 107.518 285.442C108.602 284.371 108.012 283.007 106.683 282.484C105.788 282.134 104.677 281.642 103.349 281.008C100.942 279.864 99.1921 278.802 99.2463 276.074C99.3005 273.46 101.239 271.688 103.731 271.245Z" fill="#2C2E92"/>
<path d="M120.629 274.432C118.876 274.709 118.771 276.864 120.387 277.553C123.75 278.984 127.97 280.055 128.056 284.142C128.107 286.526 126.52 288.187 124.279 288.923C120.785 290.068 117.675 289.311 114.949 286.65C114.123 285.847 115.832 284.39 116.651 283.82C116.734 283.762 116.81 283.772 116.88 283.848C118.509 285.627 121.117 286.806 123.386 285.742C124.221 285.349 124.543 284.746 124.352 283.934C124.193 283.246 123.271 282.538 122.691 282.331C120.6 281.575 118.934 280.798 117.693 280.001C115.465 278.566 114.78 275.58 116.316 273.418C117.645 271.55 120.052 271.021 122.302 271.123C124.417 271.219 126.191 272.041 127.626 273.591C127.669 273.638 127.694 273.699 127.697 273.762C127.7 273.826 127.681 273.888 127.642 273.938C127.25 274.445 126.784 274.923 126.373 275.452C125.981 275.953 125.541 275.838 125.066 275.484C123.768 274.519 122.289 274.169 120.629 274.432Z" fill="#2C2E92"/>
<path d="M135.607 281.448C135.536 281.448 135.466 281.465 135.403 281.497C135.34 281.529 135.285 281.576 135.243 281.634C135.201 281.691 135.173 281.758 135.162 281.828C135.15 281.898 135.156 281.97 135.177 282.037C136.672 286.746 141.881 287.01 145.416 284.431C145.484 284.382 145.561 284.346 145.643 284.326C145.725 284.306 145.811 284.303 145.894 284.316C145.978 284.33 146.058 284.359 146.13 284.404C146.202 284.448 146.265 284.506 146.315 284.575L147.45 286.137C147.54 286.261 147.578 286.416 147.558 286.569C147.537 286.721 147.458 286.86 147.338 286.956C143.774 289.831 138.757 290.3 135.024 287.676C131.633 285.292 130.342 280.782 131.856 276.915C135.585 267.384 150.156 270.026 148.291 281.161C148.279 281.238 148.239 281.309 148.18 281.36C148.12 281.411 148.044 281.438 147.966 281.438L135.607 281.448ZM135.349 278.534L144.746 278.42C144.757 278.42 144.766 278.415 144.773 278.408C144.781 278.401 144.785 278.391 144.785 278.381V278.359C144.778 277.823 144.651 277.295 144.409 276.803C144.168 276.311 143.817 275.866 143.378 275.492C142.938 275.119 142.418 274.825 141.847 274.627C141.276 274.43 140.666 274.332 140.051 274.339H139.943C138.701 274.355 137.515 274.799 136.647 275.574C135.778 276.35 135.298 277.393 135.311 278.474V278.496C135.311 278.506 135.315 278.516 135.322 278.523C135.329 278.53 135.339 278.534 135.349 278.534Z" fill="#2C2E92"/>
<path d="M215.117 287.428C214.447 288.072 213.971 288.458 213.689 288.585C210.157 290.176 204.275 289.56 203.871 284.82C203.338 278.608 211.193 279.258 214.989 279.239C215.065 279.238 215.137 279.21 215.194 279.16C215.251 279.109 215.288 279.04 215.298 278.965C215.464 277.702 215.046 275.997 214.081 275.219C211.926 273.479 208.572 274.741 207.058 276.753C207.022 276.801 206.976 276.841 206.922 276.87C206.869 276.899 206.81 276.916 206.75 276.921C206.69 276.925 206.63 276.916 206.573 276.895C206.517 276.873 206.466 276.84 206.424 276.797L204.776 275.13C204.678 275.032 204.622 274.9 204.617 274.761C204.612 274.623 204.66 274.487 204.75 274.381C206.72 272.075 209.148 270.977 212.034 271.085C216.051 271.238 218.773 273.39 218.967 277.549C219.131 281.041 219.165 284.724 219.069 288.598C219.067 288.7 219.024 288.797 218.951 288.869C218.878 288.94 218.78 288.98 218.677 288.98L215.837 288.983C215.79 288.984 215.744 288.967 215.707 288.937C215.67 288.907 215.644 288.865 215.633 288.818L215.343 287.498C215.309 287.341 215.233 287.317 215.117 287.428ZM212.366 286.242C214.193 285.594 215.181 284.285 215.33 282.315C215.333 282.285 215.329 282.254 215.319 282.225C215.309 282.196 215.294 282.17 215.273 282.147C215.253 282.124 215.228 282.106 215.199 282.093C215.171 282.08 215.141 282.073 215.11 282.073C214.33 282.054 212.973 282.054 211.04 282.073C209.73 282.085 208.257 282.076 207.724 283.466C207.544 283.942 207.553 284.432 207.753 284.935C208.426 286.634 210.89 286.768 212.366 286.242Z" fill="#2C2E92"/>
<path d="M227.988 272.914C230.145 271.127 232.613 270.663 235.39 271.521C238.463 272.471 239.626 275.299 239.55 278.295C239.464 281.747 239.537 285.228 239.524 288.7C239.524 288.765 239.498 288.828 239.452 288.874C239.405 288.921 239.342 288.947 239.276 288.948L236.378 288.97C235.955 288.975 235.746 288.765 235.75 288.343C235.799 284.972 235.796 281.736 235.741 278.633C235.722 277.607 235.589 276.845 235.342 276.347C234.246 274.145 231.045 273.947 229.343 275.401C228.366 276.238 227.884 277.376 227.899 278.815C227.935 282.113 227.968 285.442 227.998 288.802C227.998 288.824 227.994 288.847 227.986 288.868C227.977 288.89 227.964 288.909 227.948 288.925C227.931 288.942 227.912 288.955 227.89 288.963C227.869 288.972 227.846 288.977 227.823 288.977L224.536 288.951C224.456 288.951 224.38 288.918 224.324 288.861C224.268 288.803 224.237 288.726 224.237 288.645L224.246 271.681C224.247 271.633 224.266 271.588 224.3 271.554C224.333 271.521 224.378 271.502 224.425 271.502L227.44 271.464C227.51 271.463 227.578 271.489 227.63 271.536C227.682 271.583 227.714 271.649 227.721 271.719L227.816 272.844C227.827 272.976 227.884 272.999 227.988 272.914Z" fill="#2C2E92"/>
<path d="M254.72 287.361C254.226 287.82 253.881 288.295 253.269 288.579C250.93 289.665 248.609 289.731 246.308 288.776C243.295 287.53 242.384 283.287 244.778 281.027C247.162 278.777 251.545 279.277 254.637 279.226C254.756 279.224 254.822 279.164 254.835 279.045C255.386 273.399 249.125 273.259 246.681 276.683C246.637 276.743 246.581 276.794 246.516 276.831C246.451 276.867 246.379 276.889 246.305 276.894C246.23 276.899 246.155 276.888 246.086 276.861C246.016 276.833 245.954 276.791 245.903 276.737L244.162 274.878C244.116 274.828 244.089 274.763 244.088 274.695C244.087 274.628 244.111 274.562 244.156 274.512C246.453 271.847 249.268 270.738 252.6 271.184C256.9 271.758 258.545 274.467 258.599 278.576C258.644 281.77 258.661 285.092 258.65 288.541C258.65 288.657 258.604 288.769 258.521 288.852C258.439 288.934 258.327 288.98 258.21 288.98L255.469 288.971C255.413 288.971 255.358 288.952 255.314 288.917C255.27 288.883 255.24 288.834 255.227 288.78L254.905 287.419C254.875 287.293 254.813 287.274 254.72 287.361ZM249.243 286.414C252.02 287.02 254.57 285.292 254.901 282.459C254.907 282.413 254.903 282.367 254.89 282.324C254.877 282.28 254.855 282.24 254.826 282.205C254.796 282.17 254.76 282.141 254.72 282.121C254.679 282.1 254.635 282.088 254.589 282.086C252.891 281.975 251.164 281.988 249.409 282.124C246.349 282.363 246.579 285.834 249.243 286.414Z" fill="#2C2E92"/>
<path d="M277.648 273.571L277.521 271.898C277.517 271.843 277.524 271.787 277.543 271.735C277.561 271.683 277.59 271.636 277.628 271.595C277.666 271.555 277.711 271.523 277.762 271.501C277.813 271.479 277.867 271.467 277.923 271.468H280.622C280.676 271.468 280.728 271.478 280.777 271.498C280.826 271.519 280.87 271.549 280.908 271.586C280.945 271.624 280.974 271.669 280.994 271.718C281.014 271.767 281.025 271.819 281.024 271.872C280.969 276.917 280.943 281.941 280.948 286.944C280.95 292.647 278.113 295.586 272.437 295.76C269.173 295.86 266.391 294.839 264.091 292.697C264.026 292.637 263.985 292.554 263.978 292.465C263.97 292.376 263.996 292.287 264.05 292.216L265.593 290.169C265.639 290.109 265.705 290.068 265.779 290.055C265.854 290.041 265.93 290.056 265.994 290.096C266.713 290.542 267.459 290.975 268.232 291.393C270.629 292.694 274.289 292.997 276.208 290.711C277.126 289.621 277.311 288.037 277.393 286.596C277.396 286.556 277.386 286.517 277.365 286.483C277.345 286.449 277.314 286.422 277.278 286.405C277.242 286.389 277.202 286.384 277.163 286.39C277.124 286.397 277.087 286.415 277.059 286.443C274.55 288.792 271.174 289.27 267.999 287.983C260.053 284.76 261.487 271.751 270.454 271.168C273.35 270.979 275.687 271.809 277.464 273.657C277.602 273.802 277.663 273.773 277.648 273.571ZM277.279 279.319C277.279 278.046 276.773 276.824 275.873 275.924C274.972 275.024 273.751 274.518 272.478 274.518H271.535C270.261 274.518 269.04 275.024 268.14 275.924C267.24 276.824 266.734 278.046 266.734 279.319V280.473C266.734 281.746 267.24 282.967 268.14 283.867C269.04 284.767 270.261 285.273 271.535 285.273H272.478C273.751 285.273 274.972 284.767 275.873 283.867C276.773 282.967 277.279 281.746 277.279 280.473V279.319Z" fill="#2C2E92"/>
<path d="M289.408 281.454C289.369 281.454 289.331 281.463 289.297 281.48C289.263 281.497 289.233 281.522 289.21 281.553C289.187 281.583 289.171 281.619 289.164 281.656C289.157 281.694 289.158 281.733 289.168 281.77C290.153 285.314 293.223 286.644 296.653 285.837C297.699 285.592 298.684 284.954 299.659 284.393C299.959 284.219 300.208 284.274 300.408 284.559L301.613 286.264C301.645 286.31 301.663 286.363 301.667 286.418C301.67 286.473 301.658 286.528 301.632 286.577C300.893 287.976 297.778 288.999 296.427 289.245C292.541 289.946 288.477 288.304 286.526 284.801C283.399 279.178 286.762 271.659 293.504 271.136C299.547 270.67 303.452 275.21 302.308 281.244C302.298 281.298 302.269 281.346 302.227 281.381C302.184 281.416 302.131 281.435 302.075 281.435L289.408 281.454ZM289.43 278.544L298.853 278.41C298.863 278.41 298.872 278.406 298.88 278.399C298.887 278.392 298.891 278.382 298.891 278.372V278.359C298.875 277.275 298.367 276.243 297.476 275.489C296.586 274.735 295.388 274.322 294.144 274.339H294.023C293.407 274.348 292.799 274.462 292.233 274.676C291.667 274.889 291.154 275.197 290.724 275.583C290.294 275.969 289.955 276.424 289.726 276.924C289.497 277.423 289.384 277.956 289.392 278.493V278.506C289.392 278.516 289.396 278.526 289.403 278.533C289.41 278.54 289.42 278.544 289.43 278.544Z" fill="#2C2E92"/>
<path d="M310.608 272.851C313.366 270.517 318.208 270.275 320.538 273.437C320.566 273.477 320.603 273.509 320.645 273.532C320.687 273.556 320.734 273.569 320.783 273.572C320.831 273.575 320.88 273.568 320.925 273.55C320.97 273.532 321.011 273.504 321.045 273.469C324.353 269.944 331.114 270.1 332.743 275.261C333.039 276.196 333.177 277.834 333.158 280.176C333.136 282.962 333.139 285.797 333.164 288.681C333.165 288.718 333.157 288.755 333.143 288.789C333.129 288.823 333.109 288.855 333.082 288.881C333.056 288.907 333.024 288.928 332.99 288.943C332.955 288.957 332.918 288.964 332.88 288.964L329.632 288.948C329.601 288.948 329.569 288.942 329.54 288.93C329.511 288.917 329.484 288.899 329.462 288.876C329.44 288.853 329.422 288.826 329.41 288.797C329.399 288.767 329.393 288.735 329.393 288.703C329.476 285.294 329.487 281.865 329.425 278.416C329.329 272.966 321.864 273.38 321.899 278.42C321.922 281.707 321.951 285.058 321.985 288.473C321.989 288.828 321.814 289.003 321.459 288.996L318.425 288.952C318.351 288.95 318.281 288.92 318.229 288.867C318.177 288.815 318.148 288.745 318.147 288.671C318.115 285.445 318.106 282.228 318.118 279.019C318.123 277.884 317.986 277.026 317.707 276.443C316.671 274.276 313.863 273.909 312.087 275.315C310.86 276.284 310.704 277.489 310.691 279.134C310.67 282.136 310.67 285.273 310.691 288.544C310.692 288.597 310.681 288.65 310.661 288.7C310.641 288.75 310.611 288.795 310.573 288.833C310.535 288.871 310.49 288.901 310.44 288.921C310.39 288.942 310.337 288.952 310.283 288.952L307.105 288.945C307.06 288.945 307.017 288.927 306.986 288.896C306.954 288.864 306.936 288.821 306.936 288.776L306.943 271.684C306.943 271.546 307.011 271.477 307.147 271.477L310.067 271.442C310.125 271.442 310.181 271.463 310.224 271.503C310.267 271.543 310.294 271.597 310.299 271.655L310.408 272.768C310.422 272.923 310.489 272.951 310.608 272.851Z" fill="#2C2E92"/>
<path d="M341.21 281.601C341.189 282.217 341.332 282.791 341.64 283.322C343.677 286.832 348.576 286.759 351.327 284.342C351.385 284.292 351.453 284.253 351.527 284.23C351.6 284.206 351.678 284.198 351.754 284.207C351.831 284.215 351.905 284.239 351.972 284.277C352.039 284.315 352.097 284.367 352.143 284.428L353.377 286.08C353.43 286.151 353.469 286.233 353.491 286.319C353.512 286.406 353.517 286.496 353.503 286.585C353.49 286.673 353.459 286.758 353.413 286.834C353.367 286.91 353.306 286.977 353.233 287.03C349.954 289.425 346.6 290.003 343.17 288.764C333.289 285.197 336.454 270.164 347.206 271.152C352.414 271.63 355.041 276.016 354.171 281.139C354.156 281.224 354.111 281.302 354.045 281.358C353.978 281.414 353.894 281.445 353.807 281.445L341.372 281.442C341.266 281.442 341.212 281.495 341.21 281.601ZM346.999 274.41C344.176 273.955 342.24 275.188 341.191 278.107C341.175 278.151 341.17 278.198 341.176 278.244C341.183 278.291 341.2 278.335 341.227 278.373C341.255 278.411 341.291 278.442 341.333 278.464C341.374 278.485 341.421 278.496 341.468 278.496L350.355 278.461C350.636 278.459 350.754 278.32 350.709 278.044C350.377 276.026 349.045 274.741 346.999 274.41Z" fill="#2C2E92"/>
<path d="M362.439 272.905C363 272.43 363.498 271.914 364.189 271.668C368.872 270.007 373.673 272.076 373.861 277.466C373.978 280.777 374 284.428 373.928 288.419C373.925 288.569 373.863 288.712 373.756 288.816C373.648 288.921 373.504 288.979 373.354 288.977L370.453 288.945C370.417 288.945 370.381 288.938 370.348 288.924C370.315 288.911 370.285 288.891 370.259 288.866C370.234 288.841 370.214 288.811 370.2 288.778C370.186 288.745 370.179 288.71 370.179 288.674C370.158 285.217 370.143 281.745 370.134 278.26C370.122 273.903 363.855 273.087 362.548 276.953C362.393 277.412 362.319 278.237 362.328 279.427C362.351 282.432 362.351 285.493 362.328 288.61C362.328 288.661 362.318 288.712 362.298 288.759C362.278 288.806 362.249 288.848 362.213 288.884C362.176 288.92 362.133 288.948 362.086 288.968C362.038 288.987 361.987 288.996 361.936 288.996L358.882 288.964C358.782 288.963 358.686 288.921 358.616 288.85C358.545 288.778 358.506 288.682 358.506 288.582L358.522 271.99C358.522 271.648 358.693 271.476 359.035 271.474L361.792 271.47C361.92 271.468 361.997 271.53 362.025 271.655L362.283 272.851C362.307 272.955 362.359 272.973 362.439 272.905Z" fill="#2C2E92"/>
<path d="M81.5869 281.594L85.2495 272.417C85.2608 272.39 85.28 272.366 85.3047 272.35C85.3294 272.333 85.3584 272.324 85.3882 272.324C85.4179 272.324 85.447 272.333 85.4717 272.35C85.4964 272.366 85.5156 272.39 85.5268 272.417L89.2245 281.582C89.234 281.605 89.2376 281.63 89.2351 281.654C89.2326 281.679 89.2241 281.703 89.2102 281.723C89.1963 281.744 89.1775 281.76 89.1555 281.772C89.1335 281.783 89.109 281.789 89.0842 281.789L81.724 281.802C81.6995 281.801 81.6754 281.795 81.6538 281.784C81.6322 281.772 81.6139 281.755 81.6004 281.735C81.5868 281.714 81.5785 281.691 81.5762 281.666C81.5738 281.642 81.5775 281.617 81.5869 281.594Z" fill="white"/>
<path d="M346.999 274.41C349.045 274.741 350.377 276.026 350.709 278.044C350.754 278.32 350.636 278.459 350.355 278.461L341.468 278.496C341.421 278.496 341.374 278.485 341.333 278.464C341.291 278.442 341.255 278.411 341.227 278.373C341.2 278.335 341.183 278.291 341.176 278.245C341.17 278.198 341.175 278.151 341.191 278.107C342.241 275.188 344.176 273.955 346.999 274.41Z" fill="white"/>
<path d="M135.349 278.535C135.339 278.535 135.33 278.531 135.322 278.523C135.315 278.516 135.311 278.507 135.311 278.496V278.474C135.298 277.393 135.778 276.35 136.647 275.575C137.515 274.799 138.701 274.355 139.943 274.34H140.051C140.666 274.332 141.276 274.43 141.847 274.628C142.418 274.826 142.938 275.12 143.378 275.493C143.817 275.866 144.168 276.311 144.409 276.803C144.651 277.295 144.778 277.824 144.785 278.359V278.382C144.785 278.392 144.781 278.402 144.774 278.409C144.766 278.416 144.757 278.42 144.747 278.42L135.349 278.535Z" fill="white"/>
<path d="M289.43 278.544C289.42 278.544 289.41 278.54 289.403 278.533C289.396 278.526 289.392 278.516 289.392 278.506V278.493C289.384 277.956 289.497 277.423 289.726 276.924C289.955 276.424 290.294 275.969 290.724 275.583C291.154 275.197 291.667 274.889 292.233 274.676C292.799 274.462 293.407 274.348 294.023 274.339H294.144C295.388 274.322 296.586 274.735 297.476 275.489C298.367 276.243 298.875 277.275 298.891 278.359V278.372C298.891 278.382 298.887 278.392 298.88 278.399C298.872 278.406 298.863 278.41 298.852 278.41L289.43 278.544Z" fill="white"/>
<path d="M272.478 274.518H271.535C268.883 274.518 266.734 276.667 266.734 279.319V280.473C266.734 283.124 268.883 285.273 271.535 285.273H272.478C275.129 285.273 277.279 283.124 277.279 280.473V279.319C277.279 276.667 275.129 274.518 272.478 274.518Z" fill="white"/>
<path d="M212.366 286.242C210.89 286.768 208.426 286.634 207.753 284.935C207.553 284.432 207.544 283.942 207.724 283.466C208.257 282.076 209.73 282.086 211.04 282.073C212.973 282.054 214.33 282.054 215.11 282.073C215.141 282.074 215.171 282.081 215.199 282.094C215.228 282.106 215.253 282.125 215.273 282.147C215.294 282.17 215.309 282.197 215.319 282.225C215.329 282.254 215.333 282.285 215.33 282.315C215.181 284.285 214.193 285.594 212.366 286.242Z" fill="white"/>
<path d="M254.901 282.458C254.57 285.292 252.02 287.02 249.243 286.414C246.579 285.834 246.349 282.363 249.409 282.124C251.165 281.988 252.891 281.975 254.589 282.086C254.635 282.088 254.679 282.1 254.72 282.121C254.76 282.141 254.796 282.17 254.826 282.205C254.855 282.24 254.877 282.28 254.89 282.324C254.903 282.367 254.907 282.413 254.901 282.458Z" fill="white"/>
</svg>
