<svg width="100" height="100" viewBox="0 0 100 100" fill="none" xmlns="http://www.w3.org/2000/svg">
<rect width="100" height="100" fill="#595C62"/>
<path d="M22.1397 52.4102L25.5147 52.082C25.7178 53.2148 26.128 54.0469 26.7452 54.5781C27.3702 55.1094 28.21 55.375 29.2647 55.375C30.3819 55.375 31.2217 55.1406 31.7842 54.6719C32.3545 54.1953 32.6397 53.6406 32.6397 53.0078C32.6397 52.6016 32.5186 52.2578 32.2764 51.9766C32.042 51.6875 31.628 51.4375 31.0342 51.2266C30.628 51.0859 29.7022 50.8359 28.2569 50.4766C26.3975 50.0156 25.0928 49.4492 24.3428 48.7773C23.2881 47.832 22.7608 46.6797 22.7608 45.3203C22.7608 44.4453 23.0069 43.6289 23.4991 42.8711C23.9991 42.1055 24.7139 41.5234 25.6436 41.125C26.5811 40.7266 27.71 40.5273 29.0303 40.5273C31.1866 40.5273 32.8077 41 33.8936 41.9453C34.9873 42.8906 35.5616 44.1523 35.6162 45.7305L32.1475 45.8828C31.9991 45 31.6787 44.3672 31.1866 43.9844C30.7022 43.5938 29.9717 43.3984 28.9952 43.3984C27.9873 43.3984 27.1983 43.6055 26.628 44.0195C26.2608 44.2852 26.0772 44.6406 26.0772 45.0859C26.0772 45.4922 26.2491 45.8398 26.5928 46.1289C27.0303 46.4961 28.0928 46.8789 29.7803 47.2773C31.4678 47.6758 32.7139 48.0898 33.5186 48.5195C34.3311 48.9414 34.9639 49.5234 35.417 50.2656C35.878 51 36.1084 51.9102 36.1084 52.9961C36.1084 53.9805 35.835 54.9023 35.2881 55.7617C34.7412 56.6211 33.9678 57.2617 32.9678 57.6836C31.9678 58.0977 30.7217 58.3047 29.2295 58.3047C27.0577 58.3047 25.3897 57.8047 24.2256 56.8047C23.0616 55.7969 22.3662 54.332 22.1397 52.4102ZM39.363 40.8203H42.8317V50.125C42.8317 51.6016 42.8747 52.5586 42.9606 52.9961C43.1091 53.6992 43.4606 54.2656 44.0153 54.6953C44.5778 55.1172 45.3434 55.3281 46.3122 55.3281C47.2966 55.3281 48.0387 55.1289 48.5387 54.7305C49.0387 54.3242 49.3395 53.8281 49.4411 53.2422C49.5427 52.6562 49.5934 51.6836 49.5934 50.3242V40.8203H53.0622V49.8438C53.0622 51.9062 52.9684 53.3633 52.7809 54.2148C52.5934 55.0664 52.2458 55.7852 51.738 56.3711C51.238 56.957 50.5661 57.4258 49.7223 57.7773C48.8786 58.1211 47.777 58.293 46.4177 58.293C44.777 58.293 43.5309 58.1055 42.6794 57.7305C41.8356 57.3477 41.1677 56.8555 40.6755 56.2539C40.1833 55.6445 39.8591 55.0078 39.7028 54.3438C39.4762 53.3594 39.363 51.9062 39.363 49.9844V40.8203ZM57.0784 40.8203H63.4183C64.848 40.8203 65.9378 40.9297 66.6878 41.1484C67.6956 41.4453 68.5589 41.9727 69.2777 42.7305C69.9964 43.4883 70.5433 44.418 70.9183 45.5195C71.2933 46.6133 71.4808 47.9648 71.4808 49.5742C71.4808 50.9883 71.305 52.207 70.9534 53.2305C70.5238 54.4805 69.9105 55.4922 69.1136 56.2656C68.512 56.8516 67.6995 57.3086 66.6761 57.6367C65.9105 57.8789 64.887 58 63.6058 58H57.0784V40.8203ZM60.5472 43.7266V55.1055H63.137C64.1058 55.1055 64.805 55.0508 65.2347 54.9414C65.7972 54.8008 66.262 54.5625 66.6292 54.2266C67.0042 53.8906 67.3089 53.3398 67.5433 52.5742C67.7777 51.8008 67.8948 50.75 67.8948 49.4219C67.8948 48.0938 67.7777 47.0742 67.5433 46.3633C67.3089 45.6523 66.9808 45.0977 66.5589 44.6992C66.137 44.3008 65.6019 44.0312 64.9534 43.8906C64.4691 43.7812 63.5198 43.7266 62.1058 43.7266H60.5472ZM74.6884 58V40.8203H78.1572V58H74.6884Z" fill="#F8F8F8"/>
</svg>
