<svg width="100" height="100" viewBox="0 0 100 100" fill="none" xmlns="http://www.w3.org/2000/svg">
<rect width="100" height="100" fill="#FDA043"/>
<path d="M38.6851 75.5945C32.3479 66.6423 38.8919 60.0283 43.8452 53.1121C45.2927 51.0888 45.7667 49.6477 44.2811 47.5798C42.7858 45.495 41.2832 43.4176 39.7731 41.3476C35.2716 35.1759 34.4953 29.9871 39.0987 23.6054C42.5812 18.7741 46.0435 13.9268 49.4857 9.06363C49.5451 8.97879 49.6034 8.97879 49.6607 9.06363C52.6235 13.4241 55.6256 17.7592 58.667 22.0688C62.0901 26.9172 64.282 30.6934 62.0933 36.3529C61.6606 37.4664 60.6277 39.1769 58.9947 41.4844C57.6394 43.3974 56.2958 45.3211 54.9639 47.2553C53.4369 49.4759 54.0891 51.5692 55.5652 53.6243C59.6214 59.268 65.0328 64.5935 62.2301 72.1364C61.7953 73.3029 60.7242 75.1258 59.0169 77.6051C55.9523 82.0504 52.8812 86.4926 49.8038 90.9316C49.7381 91.0228 49.6734 91.0228 49.6098 90.9316C45.9555 85.8267 42.3139 80.7143 38.6851 75.5945ZM49.403 19.107C47.1485 22.2862 44.947 25.3615 42.7986 28.3329C41.4592 30.1812 40.5526 32.23 41.9523 34.3933C43.2355 36.3742 45.1559 39.0412 47.7137 42.3943C49.1644 44.2935 50.6373 43.0592 51.6808 41.6753C53.0785 39.8216 54.4401 37.9457 55.7656 36.0475C57.8812 33.0158 58.4538 31.6573 56.0806 28.3329C53.8791 25.2491 51.6766 22.1738 49.473 19.107C49.4688 19.1017 49.4635 19.0975 49.4574 19.0945C49.4514 19.0916 49.4447 19.0901 49.438 19.0901C49.4312 19.0901 49.4246 19.0916 49.4185 19.0945C49.4125 19.0975 49.4071 19.1017 49.403 19.107ZM49.6129 56.5575C47.3669 57.3433 45.4709 60.6868 44.2047 62.4556C41.7615 65.8692 40.1103 67.8607 42.7508 71.5288C45.0117 74.6677 47.2747 77.7843 49.5398 80.8786C49.5949 80.9529 49.6479 80.9518 49.6988 80.8755C51.9618 77.5139 54.2874 74.1947 56.6755 70.9179C58.0498 69.0282 58.0731 67.1173 56.7455 65.1852C55.0127 62.6656 53.2174 60.1895 51.3595 57.7568C51.0201 57.3136 50.5387 56.9223 49.9152 56.5829C49.8176 56.5299 49.7169 56.5214 49.6129 56.5575Z" fill="#77787B"/>
</svg>
