<svg width="100" height="100" viewBox="0 0 100 100" fill="none" xmlns="http://www.w3.org/2000/svg">
<rect width="100" height="100" fill="#595C62"/>
<path d="M20.3155 52.4102L23.6905 52.082C23.8936 53.2148 24.3037 54.0469 24.9209 54.5781C25.5459 55.1094 26.3858 55.375 27.4405 55.375C28.5577 55.375 29.3975 55.1406 29.96 54.6719C30.5303 54.1953 30.8155 53.6406 30.8155 53.0078C30.8155 52.6016 30.6944 52.2578 30.4522 51.9766C30.2178 51.6875 29.8037 51.4375 29.21 51.2266C28.8037 51.0859 27.878 50.8359 26.4327 50.4766C24.5733 50.0156 23.2686 49.4492 22.5186 48.7773C21.4639 47.832 20.9366 46.6797 20.9366 45.3203C20.9366 44.4453 21.1827 43.6289 21.6748 42.8711C22.1748 42.1055 22.8897 41.5234 23.8194 41.125C24.7569 40.7266 25.8858 40.5273 27.2061 40.5273C29.3623 40.5273 30.9834 41 32.0694 41.9453C33.1631 42.8906 33.7373 44.1523 33.792 45.7305L30.3233 45.8828C30.1748 45 29.8545 44.3672 29.3623 43.9844C28.878 43.5938 28.1475 43.3984 27.1709 43.3984C26.1631 43.3984 25.3741 43.6055 24.8037 44.0195C24.4366 44.2852 24.253 44.6406 24.253 45.0859C24.253 45.4922 24.4248 45.8398 24.7686 46.1289C25.2061 46.4961 26.2686 46.8789 27.9561 47.2773C29.6436 47.6758 30.8897 48.0898 31.6944 48.5195C32.5069 48.9414 33.1397 49.5234 33.5928 50.2656C34.0537 51 34.2842 51.9102 34.2842 52.9961C34.2842 53.9805 34.0108 54.9023 33.4639 55.7617C32.917 56.6211 32.1436 57.2617 31.1436 57.6836C30.1436 58.0977 28.8975 58.3047 27.4053 58.3047C25.2334 58.3047 23.5655 57.8047 22.4014 56.8047C21.2373 55.7969 20.542 54.332 20.3155 52.4102ZM37.5387 40.8203H41.0075V50.125C41.0075 51.6016 41.0505 52.5586 41.1364 52.9961C41.2848 53.6992 41.6364 54.2656 42.1911 54.6953C42.7536 55.1172 43.5192 55.3281 44.488 55.3281C45.4723 55.3281 46.2145 55.1289 46.7145 54.7305C47.2145 54.3242 47.5153 53.8281 47.6169 53.2422C47.7184 52.6562 47.7692 51.6836 47.7692 50.3242V40.8203H51.238V49.8438C51.238 51.9062 51.1442 53.3633 50.9567 54.2148C50.7692 55.0664 50.4216 55.7852 49.9137 56.3711C49.4137 56.957 48.7419 57.4258 47.8981 57.7773C47.0544 58.1211 45.9528 58.293 44.5934 58.293C42.9528 58.293 41.7067 58.1055 40.8552 57.7305C40.0114 57.3477 39.3434 56.8555 38.8512 56.2539C38.3591 55.6445 38.0348 55.0078 37.8786 54.3438C37.652 53.3594 37.5387 51.9062 37.5387 49.9844V40.8203ZM55.2191 58V40.8203H60.4105L63.5277 52.5391L66.6097 40.8203H71.8128V58H68.5902V44.4766L65.18 58H61.8402L58.4417 44.4766V58H55.2191ZM75.5127 58V40.8203H78.9814V58H75.5127Z" fill="#F8F8F8"/>
</svg>
