<svg width="100" height="100" viewBox="0 0 100 100" fill="none" xmlns="http://www.w3.org/2000/svg">
<rect width="100" height="100" fill="white"/>
<path d="M48.4824 63.3228L49.1633 60.1881" stroke="#CC757C" stroke-width="0.387955"/>
<path d="M44.9346 57.8836L45.4816 55.2184" stroke="#CC757C" stroke-width="0.387955"/>
<path d="M72.2374 24.4983C83.6006 26.7484 92.3412 36.5016 93.1637 48.1422C94.8028 71.3594 67.3007 84.7457 49.864 69.3207C49.8576 69.3155 49.8563 69.3097 49.8601 69.3032C49.917 69.2075 49.928 69.2088 49.8931 69.3071C49.8892 69.32 49.8925 69.3297 49.9028 69.3362C54.3462 72.1747 59.2584 73.3735 64.6393 72.9325C77.5873 71.8695 86.3706 60.7294 84.7392 47.8842C83.362 37.035 74.3595 28.5039 63.3358 28.18C55.8463 27.9608 48.8534 31.5765 44.454 37.6267C44.4501 37.6319 44.4456 37.6319 44.4404 37.6267C44.4288 37.615 44.4171 37.6034 44.4055 37.5918C44.3939 37.5801 44.3919 37.5678 44.3997 37.5549C50.0173 27.6756 60.9848 22.2695 72.2374 24.4983Z" fill="#D4D4D6"/>
<path d="M61.2813 61.3539C61.2088 61.3513 61.0763 61.3597 60.8836 61.3791C60.828 61.3856 60.8222 61.372 60.8661 61.3384C60.892 61.319 60.9211 61.3067 60.9534 61.3015C67.9735 60.1784 72.9684 54.2039 72.4039 47.0267C71.8996 40.6022 66.67 35.6403 60.3599 35.07C56.7131 34.7402 53.623 35.8478 50.6978 37.9816C50.6907 37.9865 50.6819 37.9887 50.6733 37.9879C50.6646 37.987 50.6565 37.983 50.6504 37.9768C50.6444 37.9705 50.6408 37.9622 50.6402 37.9535C50.6397 37.9448 50.6422 37.9362 50.6474 37.9292C54.1914 33.6307 59.4753 31.5047 64.9571 32.5948C72.5048 34.0923 77.554 41.3413 76.4581 48.9685C75.3834 56.454 68.8619 61.7011 61.2813 61.3539Z" fill="#D4D4D6"/>
<path d="M48.4829 63.3228L49.1638 60.1881C57.9781 68.9152 71.5876 66.537 77.6416 56.0176C81.1313 49.9539 81.0343 42.6642 77.2789 36.7673C77.2743 36.7608 77.2724 36.7531 77.2736 36.7455C77.2747 36.7378 77.2788 36.731 77.2851 36.7261C77.2914 36.7213 77.2994 36.7188 77.3076 36.7193C77.3157 36.7197 77.3235 36.723 77.3293 36.7285C80.7821 40.3733 82.7529 44.9202 82.8325 49.9073C83.0109 61.0707 73.6243 70.1489 62.4144 69.6794C56.9727 69.4518 52.3288 67.333 48.4829 63.3228Z" fill="#D4D4D6"/>
<path d="M26.35 40.8369C27.1531 41.9737 26.6255 43.5235 25.3666 44.0492C24.2745 44.5051 22.5423 43.6322 21.4812 43.2403C18.9634 42.3112 13.8133 42.2336 14.304 46.4157C14.4075 47.3003 14.9241 47.9314 15.8539 48.309C19.6074 49.8356 24.1465 51.2438 24.6042 56.0428C24.9961 60.1746 23.0233 63.8155 18.9052 64.9794C14.4877 66.2286 10.5713 65.4411 7.15596 62.6167C5.34809 61.1192 5.84467 59.839 7.38098 58.4016C9.01427 56.8731 10.7833 59.7129 12.0772 60.516C14.9034 62.2676 20.3406 61.3423 19.8925 56.9856C19.7315 55.4085 18.4222 54.33 16.9576 53.8315C13.0762 52.5125 9.47787 50.7337 9.52443 45.9968C9.56128 42.1327 12.0287 39.9214 15.5591 38.9961C18.7869 38.1523 22.1524 38.5538 25.1881 39.9582C25.7235 40.2052 26.1108 40.4981 26.35 40.8369Z" fill="#C41522"/>
<path d="M39.3503 42.7885C37.9938 49.5428 36.6553 56.2996 35.335 63.0591C35.0324 64.6051 34.6173 65.5905 32.9239 65.5711C31.1218 65.5498 30.4526 64.351 30.7804 62.7565C32.1395 56.1251 33.5051 49.482 34.8772 42.8273C34.8806 42.8114 34.8804 42.7951 34.8767 42.7793C34.873 42.7635 34.8658 42.7487 34.8556 42.736C34.8454 42.7232 34.8325 42.7128 34.8178 42.7054C34.8031 42.6981 34.787 42.694 34.7705 42.6934C33.4553 42.6701 32.1266 42.6637 30.7843 42.674C30.2101 42.6779 29.7749 42.5984 29.4788 42.4354C28.0608 41.6556 28.088 39.5277 29.5254 38.7887C29.8344 38.6283 30.3045 38.5488 30.9356 38.5501C35.2018 38.5501 39.468 38.5507 43.7342 38.552C44.3989 38.552 44.8948 38.6399 45.222 38.8158C47.1637 39.8614 46.2986 42.6042 44.0911 42.6857C42.5497 42.7413 41.0088 42.7445 39.4687 42.6954C39.4027 42.6941 39.3633 42.7251 39.3503 42.7885Z" fill="#C41522"/>
<path fill-rule="evenodd" clip-rule="evenodd" d="M48.4826 63.3228L49.1634 60.1882L50.2342 55.2844C50.2471 55.2223 50.2852 55.1913 50.3486 55.1913C50.9926 55.1926 52.2793 55.1687 54.2088 55.1195C58.4743 55.009 62.5207 53.1119 63.7253 48.7357C64.4527 46.0918 64.4411 41.7312 61.9679 39.8593C60.7322 38.9244 58.9903 38.5422 57.4133 38.5403C55.2472 38.5403 53.0824 38.5448 50.9189 38.5539C49.369 38.5616 48.8434 39.2367 48.5291 40.7361C47.5243 45.5403 46.5085 50.3677 45.4817 55.2185L44.9347 57.8837C44.6153 59.4123 44.2959 60.9272 43.9765 62.4286C43.8446 63.0467 43.7915 63.4903 43.8174 63.7593C43.9338 65.0066 44.9444 65.5924 46.1548 65.5439C47.4545 65.4922 48.2304 64.7518 48.4826 63.3228ZM59.384 45.4497C59.3568 43.9231 58.2318 42.736 56.6838 42.7244C55.4126 42.7153 54.1401 42.7153 52.8663 42.7244C52.8056 42.7244 52.7687 42.7541 52.7558 42.8136L51.043 50.8384C51.039 50.857 51.0391 50.8762 51.0433 50.8947C51.0476 50.9132 51.0558 50.9305 51.0675 50.9455C51.0791 50.9605 51.0939 50.9727 51.1108 50.9813C51.1276 50.99 51.1462 50.9948 51.1652 50.9956C51.1998 50.997 51.2347 50.9984 51.2698 50.9998C52.8812 51.0655 54.9937 51.1517 56.3909 50.6619C58.4839 49.9287 59.4208 47.5854 59.384 45.4497Z" fill="#C41522"/>
<path d="M45.4818 55.2185L44.9348 57.8838C43.7127 54.9482 43.2142 51.895 43.4392 48.7241C43.4389 48.7154 43.4422 48.7069 43.4482 48.7005C43.4542 48.6942 43.4625 48.6905 43.4712 48.6902C43.48 48.6899 43.4884 48.6932 43.4948 48.6992C43.5012 48.7052 43.5049 48.7135 43.5052 48.7222C43.8103 51.0499 44.4692 53.2154 45.4818 55.2185Z" fill="#D4D4D6"/>
</svg>
