<svg width="100" height="100" viewBox="0 0 100 100" fill="none" xmlns="http://www.w3.org/2000/svg">
<rect width="100" height="100" fill="#094E9F"/>
<path fill-rule="evenodd" clip-rule="evenodd" d="M42.5532 31.2406C40.2957 23.6281 44.5257 16.7506 49.7833 11.4631C49.9533 11.2881 50.1208 11.2881 50.2858 11.4631C59.6533 21.3781 59.6908 29.1406 52.4683 40.2556C52.2983 40.5156 52.3233 40.7581 52.5433 40.9831L54.8233 43.3231C55.0283 43.5331 55.2308 43.5256 55.4308 43.3006C61.7458 36.1381 64.6858 26.5906 61.2433 17.5756C59.6531 13.4158 56.0059 9.02683 52.6517 4.99036C51.8452 4.01989 51.0557 3.06979 50.3158 2.14815C50.1558 1.95315 49.9908 1.95065 49.8208 2.14065C49.458 2.5586 49.0948 2.97503 48.7324 3.39066C42.499 10.5377 36.4748 17.445 36.6732 27.7081C36.6932 28.8231 37.2607 30.9806 38.3757 34.1806C46.8408 44.2407 53.7308 52.1332 59.0458 57.8582C62.6758 61.7657 64.3258 63.9482 65.1733 69.1307C65.1806 69.1791 65.2046 69.2234 65.2411 69.256C65.2776 69.2887 65.3244 69.3075 65.3733 69.3092C65.4223 69.311 65.4703 69.2957 65.5091 69.2658C65.5479 69.2359 65.575 69.1934 65.5858 69.1457C66.3058 66.0757 66.4408 62.9857 65.9908 59.8757C65.9558 59.6257 65.8583 59.4082 65.6983 59.2232C58.9283 51.3832 52.1233 43.5882 45.2832 35.8382C44.0457 34.4432 43.2882 32.8832 42.5532 31.2406Z" fill="url(#paint0_linear_105_1862)"/>
<path fill-rule="evenodd" clip-rule="evenodd" d="M55.2659 57.5882C55.2659 57.5881 55.2659 57.5881 55.2659 57.5881C49.4859 51.0731 43.8034 44.6256 38.2184 38.2456C36.1784 35.9206 35.2934 33.7606 35.1959 30.8431C35.1921 30.805 35.1751 30.7695 35.148 30.7425C35.1208 30.7155 35.0851 30.6988 35.047 30.6953C35.0089 30.6917 34.9707 30.7016 34.9391 30.7231C34.9074 30.7446 34.8842 30.7764 34.8734 30.8131C34.2884 33.2431 33.2609 38.2306 34.8359 40.2556C37.6759 43.9156 43.4409 50.6331 52.1309 60.4081C52.6197 60.2006 53.0516 59.9862 53.4266 59.765C53.0516 59.9862 52.6197 60.2006 52.1309 60.4081C57.0284 65.7331 60.2834 70.5781 57.4559 77.7331C56.2909 80.6781 53.9259 83.9731 50.3609 87.6181C50.2109 87.7731 50.0484 87.7831 49.8734 87.6481C46.6384 85.0481 44.0584 81.9456 42.1334 78.3406C38.5784 71.6656 42.9434 63.7456 46.5134 58.1581C46.6684 57.9231 46.6509 57.6981 46.4609 57.4831L44.2484 55.0006C44.0634 54.7906 43.8784 54.7931 43.6934 55.0081C36.1709 63.9031 32.1809 76.3231 40.3334 86.3206C43.4084 90.0856 46.5934 93.7481 49.8884 97.3081C50.0484 97.4781 50.2059 97.4756 50.3609 97.3006C58.5584 88.3081 69.7934 74.5831 59.4509 62.3431C58.0009 60.6282 56.6059 59.0432 55.2659 57.5882Z" fill="url(#paint1_linear_105_1862)"/>
<defs>
<linearGradient id="paint0_linear_105_1862" x1="51.4594" y1="2" x2="51.4594" y2="69.3094" gradientUnits="userSpaceOnUse">
<stop stop-color="#DA5C1A"/>
<stop offset="1" stop-color="#E69C20"/>
</linearGradient>
<linearGradient id="paint1_linear_105_1862" x1="48.8029" y1="30.6946" x2="48.8029" y2="97.4338" gradientUnits="userSpaceOnUse">
<stop stop-color="#A7DEFF"/>
<stop offset="0.583943" stop-color="#3990C4"/>
</linearGradient>
</defs>
</svg>
