<svg width="100" height="100" viewBox="0 0 100 100" fill="none" xmlns="http://www.w3.org/2000/svg">
<rect width="100" height="100" fill="#D1FFE8"/>
<path d="M49.3679 56.496V63.3866C49.2742 63.1171 49.0656 62.1561 48.9812 60.4686C48.8758 58.3593 48.3132 54.703 46.907 52.3475L46.8591 52.2673C45.4381 49.8879 42.6989 45.3013 43.6375 40.8866C46.3038 26.5896 54.0287 21.3612 57.6297 22.746C64.6609 26.0507 63.0789 41.7304 61.0398 45.9843C59.2117 50.3085 56.9617 50.6952 53.657 51.4686C51.0132 52.0874 50.1648 54.5858 50.0711 55.7577C50.0711 53.0155 50.1414 49.9921 50.2117 49.2186C50.282 48.4452 50.6336 46.0897 50.9148 44.4725C51.1961 42.8554 52.2507 38.7421 52.7078 37.5468C53.0734 36.5905 54.3601 32.9999 54.9578 31.3241C47.5398 38.7421 48.9109 51.7499 48.9109 52.3475C48.9109 52.9452 49.3679 55.5819 49.3679 56.496Z" fill="url(#paint0_linear_105_1873)"/>
<path d="M53.9034 70.7694C53.7065 70.9381 53.1651 71.4256 52.919 71.6483C53.0597 69.7498 57.9815 61.8397 58.7198 60.9959C59.3104 60.3209 60.2081 59.0037 60.5831 58.4295C55.7579 61.8143 53.1886 67.8247 52.0301 70.5348L52.005 70.5936C51.0769 72.7642 50.7511 77.1092 50.669 78.9959C50.6104 76.3358 50.4651 70.7483 50.3526 69.6795C50.212 68.3436 49.6847 63.9139 50.3526 61.8397C53.4496 51.2437 62.6488 48.2629 65.7511 47.8826C69.0558 47.3942 71.7276 49.2537 71.7276 52.3826C71.8683 62.6131 66.2433 66.8613 63.5362 68.4139C61.1456 69.785 58.544 69.4686 56.6456 69.6795C54.7472 69.8905 54.1495 70.5584 53.9034 70.7694Z" fill="url(#paint1_linear_105_1873)"/>
<path d="M47.8564 62.4725C47.9407 65.0319 48.8993 70.1717 49.3681 72.4217C48.1025 70.6991 48.454 68.7655 45.4306 62.8592C43.0118 58.1342 37.8368 54.4217 35.5517 53.1561C36.4657 53.9178 39.2782 56.1444 41.9149 59.4842C44.8118 62.7186 46.1923 65.5194 46.5204 66.5155C46.4149 66.4686 46.1267 66.2764 45.8173 65.8826C45.2196 65.1444 44.2704 63.492 41.0009 64.0545C37.7313 64.617 35.5868 64.7225 30.7353 61.453C21.2782 54.5975 23.0361 47.953 24.372 45.8436C25.7079 43.7342 31.6493 41.7655 39.911 47.4256C48.1728 53.0858 47.7509 59.2733 47.8564 62.4725Z" fill="url(#paint2_linear_105_1873)"/>
<circle cx="49.707" cy="49.707" r="37.4766" stroke="#36AA6F" stroke-width="2.46094"/>
<defs>
<linearGradient id="paint0_linear_105_1873" x1="53.1088" y1="22.5312" x2="49.4383" y2="58.2852" gradientUnits="userSpaceOnUse">
<stop stop-color="#DAAB45"/>
<stop offset="1" stop-color="#98713A"/>
</linearGradient>
<linearGradient id="paint1_linear_105_1873" x1="66.4893" y1="47.7734" x2="50.0011" y2="76.6367" gradientUnits="userSpaceOnUse">
<stop stop-color="#34A269"/>
<stop offset="1" stop-color="#2B7547"/>
</linearGradient>
<linearGradient id="paint2_linear_105_1873" x1="27.3954" y1="43.6953" x2="47.8563" y2="67.9882" gradientUnits="userSpaceOnUse">
<stop stop-color="#6FA8D0"/>
<stop offset="0.940206" stop-color="#3875A4"/>
</linearGradient>
</defs>
</svg>
