<svg width="100" height="100" viewBox="0 0 100 100" fill="none" xmlns="http://www.w3.org/2000/svg">
<rect width="100" height="100" fill="#00A651"/>
<path d="M50.3335 57.9954C50.3335 58.0173 50.3422 58.0383 50.3576 58.0537C50.3731 58.0692 50.3941 58.0779 50.416 58.0779C50.4379 58.0779 50.4588 58.0692 50.4743 58.0537C50.4898 58.0383 50.4985 58.0173 50.4985 57.9954C52.466 46.1179 59.5385 30.3029 73.881 30.0004C74.111 29.9954 74.3876 30.0387 74.711 30.1304C74.7943 30.1554 74.8301 30.2112 74.8185 30.2979C74.6368 31.5829 74.5385 32.4862 74.5235 33.0079C74.3835 37.6462 73.7268 42.1946 72.5535 46.6529C72.5251 46.7579 72.5643 46.7971 72.671 46.7704C77.381 45.5504 82.201 44.9254 87.1309 44.8954C88.0609 44.8887 88.9193 44.7187 89.7059 44.3854C89.728 44.3761 89.7521 44.3728 89.7758 44.3759C89.7996 44.3789 89.8222 44.3882 89.8414 44.4029C89.8606 44.4175 89.8757 44.437 89.8853 44.4594C89.8948 44.4817 89.8985 44.5062 89.8959 44.5304C89.4984 47.9879 89.0084 51.1779 87.0359 54.2704C80.866 63.9554 67.541 67.9429 56.836 68.9629C43.411 70.2429 25.8635 67.7204 16.0935 57.2229C12.5985 53.4679 11.4435 49.5304 11.001 44.4854C10.9927 44.3837 11.0368 44.3504 11.1335 44.3854C11.9968 44.7021 12.766 44.8621 13.441 44.8654C18.4593 44.8871 23.3793 45.5237 28.201 46.7754C28.2179 46.78 28.2357 46.78 28.2526 46.7754C28.2695 46.7707 28.2849 46.7617 28.2973 46.749C28.3097 46.7363 28.3186 46.7206 28.3232 46.7033C28.3278 46.686 28.3279 46.6677 28.3235 46.6504C26.8585 41.1604 26.5635 36.0354 26.0935 30.2504C26.0835 30.1404 26.1343 30.0821 26.246 30.0754C40.7185 29.1529 48.5985 46.4154 50.3335 57.9954ZM47.9485 58.4254C46.301 48.4904 40.731 34.5179 29.016 32.5904C28.9923 32.5868 28.9681 32.5883 28.9451 32.595C28.9221 32.6016 28.9009 32.6132 28.8828 32.6289C28.8647 32.6446 28.8503 32.664 28.8405 32.6859C28.8306 32.7077 28.8257 32.7314 28.826 32.7554C28.931 37.7737 29.6968 42.6854 31.1235 47.4904C31.1403 47.548 31.1715 47.6008 31.2142 47.6439C31.257 47.6871 31.3099 47.7194 31.3685 47.7379C37.581 49.6804 43.826 53.2329 47.8585 58.4654C47.865 58.4751 47.8748 58.4823 47.8861 58.4855C47.8974 58.4888 47.9095 58.4879 47.9203 58.4832C47.931 58.4784 47.9397 58.47 47.9449 58.4594C47.95 58.4489 47.9513 58.4368 47.9485 58.4254ZM69.7085 47.5379C71.1635 42.8454 72.0235 37.6479 72.0235 32.7129C72.0235 32.7002 72.0209 32.6876 72.0158 32.676C72.0106 32.6643 72.0031 32.6539 71.9937 32.6454C71.9842 32.6369 71.9731 32.6305 71.961 32.6266C71.9489 32.6228 71.9361 32.6215 71.9235 32.6229C60.366 34.0554 54.5185 48.6779 52.9285 58.4304C52.9085 58.5571 52.9385 58.5704 53.0185 58.4704C57.2535 53.2079 63.0885 49.7179 69.4735 47.7729C69.5288 47.7559 69.5792 47.7256 69.6202 47.6846C69.6611 47.6436 69.6914 47.5933 69.7085 47.5379ZM40.2435 65.9754C34.8785 61.8304 31.3535 56.0279 29.251 49.6854C29.2276 49.6137 29.1801 49.5679 29.1085 49.5479C24.1818 48.1496 19.1568 47.3921 14.0335 47.2754C14.0146 47.2753 13.9959 47.2791 13.9786 47.2866C13.9614 47.2942 13.946 47.3052 13.9337 47.319C13.9213 47.3328 13.9122 47.3491 13.907 47.3666C13.9018 47.3841 13.9006 47.4024 13.9035 47.4204C15.586 58.9154 30.371 64.5154 40.216 66.0354C40.2238 66.0366 40.2319 66.0352 40.239 66.0315C40.2461 66.0277 40.2518 66.0218 40.255 66.0148C40.2582 66.0077 40.2588 66 40.2567 65.9928C40.2546 65.9856 40.25 65.9795 40.2435 65.9754ZM71.6035 49.7154C69.6985 55.4254 65.841 62.5454 60.641 65.9054C60.6267 65.9132 60.6157 65.926 60.61 65.9412C60.6044 65.9565 60.6045 65.9734 60.6103 65.9886C60.6161 66.0038 60.6272 66.0164 60.6415 66.0241C60.6559 66.0318 60.6726 66.034 60.6885 66.0304C70.221 64.5729 85.556 58.8254 86.9459 47.4029C86.9576 47.3146 86.9184 47.2712 86.8284 47.2729C81.7185 47.3996 76.7051 48.1554 71.7885 49.5404C71.6968 49.5671 71.6351 49.6254 71.6035 49.7154ZM48.671 66.5629C47.501 58.4679 39.3285 53.2354 32.326 50.6354C32.276 50.6171 32.2601 50.6329 32.2785 50.6829C34.9535 57.9104 40.2535 65.3779 48.456 66.7729C48.4846 66.7779 48.514 66.7761 48.5418 66.7674C48.5696 66.7588 48.595 66.7436 48.616 66.7231C48.6369 66.7027 48.6528 66.6775 48.6624 66.6497C48.6719 66.6218 48.6749 66.5921 48.671 66.5629ZM68.5235 50.6404C61.336 53.3654 53.6785 58.2779 52.1785 66.4804C52.1418 66.6837 52.226 66.7712 52.431 66.7429C60.511 65.6429 65.8935 57.7429 68.5935 50.7079C68.597 50.6985 68.5978 50.6884 68.5955 50.6787C68.5933 50.6689 68.5882 50.66 68.5809 50.6529C68.5736 50.6459 68.5643 50.6409 68.5541 50.6387C68.5439 50.6365 68.5333 50.6371 68.5235 50.6404Z" fill="white"/>
</svg>
