<svg width="100" height="100" viewBox="0 0 100 100" fill="none" xmlns="http://www.w3.org/2000/svg">
<rect width="100" height="100" fill="#BE1F2B"/>
<path d="M36.1462 68.1291L55.5713 36.166C55.605 36.1085 55.6556 36.0797 55.7231 36.0797H57.27C57.35 36.0797 57.3731 36.0435 57.3394 35.971C51.63 23.7179 68.0344 13.8329 76.1944 24.6235C76.1994 24.6303 76.2064 24.6354 76.2144 24.6379C76.2225 24.6405 76.2311 24.6404 76.2391 24.6377C76.247 24.6349 76.2539 24.6297 76.2587 24.6228C76.2635 24.6158 76.266 24.6076 76.2657 24.5991L76.2582 20.1441C76.2569 20.0491 76.3038 20.0016 76.3988 20.0016H78.1407C78.1584 20.0016 78.176 20.0051 78.1923 20.0119C78.2087 20.0187 78.2236 20.0286 78.2361 20.0412C78.2487 20.0537 78.2586 20.0686 78.2654 20.085C78.2722 20.1013 78.2757 20.1189 78.2757 20.1366C78.2769 25.7516 78.2769 31.3622 78.2757 36.9685C78.2757 37.9847 78.4069 39.4679 79.4269 39.9197C79.7082 40.0435 80.2669 40.1066 81.1032 40.1091C82.8007 40.1116 84.4976 40.1122 86.1938 40.111C86.2563 40.111 86.2876 40.1422 86.2876 40.2047L86.2988 41.9897C86.2988 42.056 86.2663 42.0885 86.2013 42.0872C84.5288 42.076 82.8619 42.0735 81.2007 42.0797C80.0494 42.0847 79.2369 41.9966 78.7632 41.8154C77.3326 41.2716 76.5919 39.8916 76.3519 38.356C76.3406 38.2833 76.3089 38.2154 76.2605 38.16C76.212 38.1047 76.1489 38.0642 76.0783 38.0434C76.0078 38.0226 75.9328 38.0222 75.862 38.0424C75.7913 38.0625 75.7278 38.1024 75.6788 38.1572C71.3363 43.0416 63.7688 43.5629 59.2481 38.656C59.0956 38.4897 58.94 38.3279 58.7813 38.1704C58.7313 38.1204 58.6706 38.0954 58.5994 38.0954H56.8069C56.7556 38.0954 56.7169 38.1172 56.6906 38.161L37.2618 70.1522C37.2206 70.221 37.1593 70.2547 37.0781 70.2535L34.1999 70.246C34.1299 70.246 34.0931 70.281 34.0893 70.351C34.0181 71.551 33.9581 73.111 34.5656 74.1441C35.6981 76.0622 38.0568 76.3678 40.1025 76.2272C42.1912 76.0828 43.8731 75.6516 44.1506 73.3416C44.1581 73.2816 44.1919 73.2516 44.2519 73.2516H48.0375C48.0925 73.2516 48.1187 73.2791 48.1162 73.3341C48.0362 76.2403 46.7044 78.2335 44.1206 79.3135C39.0731 81.4247 31.5562 80.2285 30.2268 73.8666C30.0112 72.8335 30.0993 71.5322 30.0843 70.3716C30.0831 70.2816 30.0368 70.236 29.9456 70.2347L16.0799 70.2047C16.0224 70.2047 15.9937 70.176 15.9937 70.1185L16.0162 68.3335C16.0162 68.2685 16.0493 68.236 16.1155 68.236H29.8968C29.9893 68.236 30.0356 68.1891 30.0356 68.0954L30.0524 56.1385C30.0526 56.1098 30.0422 56.0821 30.0232 56.0606C30.0041 56.0391 29.9778 56.0255 29.9493 56.0222C19.8524 54.8091 12.7761 45.5635 14.1768 35.5791C16.3143 20.341 35.4225 14.5998 45.645 26.176C52.0087 33.3816 51.5512 44.4366 44.5556 51.136C41.6931 53.876 38.2268 55.5147 34.1568 56.0522C34.1006 56.0597 34.0724 56.0916 34.0724 56.1479V68.1235C34.0724 68.206 34.1137 68.2466 34.1962 68.2453L36.0112 68.206C36.07 68.2047 36.115 68.1791 36.1462 68.1291Z" fill="white"/>
<path d="M22.6216 25.0979C33.866 16.9472 49.4397 25.9641 48.0391 39.7472C47.2891 47.1179 41.5291 53.0297 34.1978 53.9879C34.1266 53.9966 34.0903 53.9654 34.0891 53.8941L34.0666 52.1222C34.0653 52.0522 34.0991 52.011 34.1678 51.9985C39.1641 51.081 42.7253 48.3972 44.8516 43.9472C47.8122 37.7504 45.5079 30.1866 39.8603 26.401C36.3785 24.0685 31.8409 23.3747 27.7403 24.7135C19.1284 27.5241 15.3109 37.711 20.1184 45.4491C22.3347 49.0141 25.6141 51.2029 29.9566 52.0154C30.0128 52.0266 30.0409 52.0604 30.0409 52.1166V53.9354C30.0409 53.9916 30.0128 54.0154 29.9566 54.0066C24.7128 53.1841 20.7865 50.5685 18.1778 46.1597C14.0078 39.1191 16.0328 29.8754 22.6216 25.0979Z" fill="#BE1F2B"/>
<path d="M59.6831 36.0104C54.8456 28.5404 62.4225 19.5254 70.5637 22.6679C75.8287 24.7004 77.895 31.2929 74.7675 36.001C74.7325 36.0535 74.6837 36.0797 74.6212 36.0797H59.8106C59.7556 36.0797 59.7131 36.0566 59.6831 36.0104Z" fill="#BE1F2B"/>
<path d="M31.2075 25.0772C36.8457 24.706 42.1951 28.0491 44.2369 33.3647C47.2595 41.2304 42.3357 49.4766 34.1757 50.956C34.1082 50.9685 34.0744 50.941 34.0744 50.8735L34.0707 50.0541C34.0707 50.0288 34.0794 50.0043 34.0955 49.9848C34.1116 49.9653 34.134 49.952 34.1588 49.9472C43.6669 48.1529 47.6176 36.3197 40.4907 29.4835C32.4863 21.8035 19.3294 27.8916 20.0681 38.986C20.4338 44.4741 24.5138 48.8541 29.9194 49.9435C30.0007 49.9597 30.0413 50.0091 30.0413 50.0916V50.8847C30.0413 50.966 30.0019 50.9985 29.9232 50.9822C25.8307 50.1472 22.785 48.0247 20.7863 44.6147C15.8944 36.271 21.6225 25.7091 31.2075 25.0772Z" fill="#BE1F2B"/>
<path d="M39.5341 29.9616C46.3366 36.2148 42.9241 46.9848 34.1941 48.9273C34.1793 48.9303 34.164 48.9301 34.1494 48.9267C34.1347 48.9232 34.121 48.9165 34.1093 48.9072C34.0976 48.8978 34.0882 48.886 34.0818 48.8726C34.0754 48.8592 34.0721 48.8446 34.0722 48.8298V48.0404C34.0722 47.9766 34.1035 47.9366 34.166 47.9204C36.8897 47.2454 38.9754 45.8104 40.4229 43.6154C45.0972 36.5298 39.3485 27.121 30.9166 28.1242C23.4616 29.011 19.6084 37.4166 23.7259 43.6604C25.1697 45.8479 27.2353 47.2548 29.9228 47.881C30.0016 47.8998 30.041 47.9498 30.041 48.031V48.8223C30.041 48.8973 30.0047 48.9266 29.9322 48.9104C24.7834 47.7498 21.0091 43.4616 21.0259 38.1329C21.0541 28.6079 32.3978 23.401 39.5341 29.9616Z" fill="#BE1F2B"/>
<path d="M30.3486 29.2415C36.1067 28.079 41.4036 32.714 41.0699 38.6559C40.8486 42.5803 38.0455 45.9103 34.1811 46.8478C34.1086 46.8653 34.0724 46.8371 34.0724 46.7634V45.9646C34.0724 45.8884 34.1086 45.8403 34.1811 45.8203C41.6436 43.6771 42.1461 33.359 34.9086 30.5934C30.8736 29.0503 26.3192 31.0322 24.6805 34.9978C22.8148 39.5128 25.2823 44.4834 29.9342 45.8315C30.0055 45.8528 30.0411 45.9003 30.0411 45.974V46.7596C30.0411 46.8346 30.0048 46.8628 29.9323 46.844C20.5367 44.4928 20.9305 31.1428 30.3486 29.2415Z" fill="#BE1F2B"/>
<path d="M26.8048 33.4641C31.903 27.7623 41.1242 33.0741 38.698 40.3491C37.993 42.4629 36.4911 43.9429 34.1924 44.7891C34.1788 44.7939 34.1643 44.7954 34.1501 44.7934C34.1359 44.7915 34.1223 44.7862 34.1106 44.7779C34.0988 44.7696 34.0892 44.7587 34.0826 44.746C34.0759 44.7332 34.0724 44.7191 34.0724 44.7048V43.8648C34.0724 43.8376 34.0804 43.811 34.0954 43.7883C34.1104 43.7657 34.1317 43.7479 34.1567 43.7373C37.198 42.4754 38.9061 39.2148 37.7324 36.0535C35.9961 31.3735 29.7055 30.6723 27.0148 34.8291C24.8905 38.1123 26.4017 42.2541 29.9436 43.7241C30.0086 43.7504 30.0411 43.7985 30.0411 43.8685V44.6973C30.0411 44.7785 30.003 44.8054 29.9267 44.7779C25.1867 43.0866 23.3717 37.306 26.8048 33.4641Z" fill="#BE1F2B"/>
<path d="M32.0697 42.0854C34.2785 42.0854 36.0691 40.2948 36.0691 38.086C36.0691 35.8773 34.2785 34.0867 32.0697 34.0867C29.8609 34.0867 28.0703 35.8773 28.0703 38.086C28.0703 40.2948 29.8609 42.0854 32.0697 42.0854Z" fill="#BE1F2B"/>
<path d="M61.6914 38.191C61.6064 38.1272 61.6171 38.0954 61.7233 38.0954H72.7446C72.7555 38.0951 72.7663 38.0983 72.7753 38.1045C72.7844 38.1106 72.7912 38.1195 72.7948 38.1296C72.7984 38.1398 72.7986 38.1507 72.7953 38.1608C72.792 38.1708 72.7854 38.1795 72.7765 38.1854C69.4165 40.6791 65.0964 40.7222 61.6914 38.191Z" fill="#BE1F2B"/>
<path d="M82.277 62.1947C82.277 66.9855 80.3739 71.5801 76.9862 74.9677C73.5986 78.3553 69.004 80.2585 64.2132 80.2585C59.4224 80.2585 54.8278 78.3553 51.4402 74.9677C48.0526 71.5801 46.1494 66.9855 46.1494 62.1947C46.1494 57.4039 48.0526 52.8093 51.4402 49.4217C54.8278 46.0341 59.4224 44.131 64.2132 44.131C69.004 44.131 73.5986 46.0341 76.9862 49.4217C80.3739 52.8093 82.277 57.4039 82.277 62.1947Z" fill="white"/>
<path d="M80.2704 62.1929C80.2704 66.4516 78.5786 70.5359 75.5672 73.5472C72.5558 76.5586 68.4715 78.2504 64.2128 78.2504C62.1041 78.2504 60.0161 77.835 58.0679 77.0281C56.1197 76.2211 54.3495 75.0383 52.8584 73.5472C51.3673 72.0562 50.1846 70.286 49.3776 68.3378C48.5706 66.3896 48.1553 64.3016 48.1553 62.1929C48.1553 57.9342 49.8471 53.8499 52.8584 50.8385C55.8698 47.8271 59.9541 46.1354 64.2128 46.1354C68.4715 46.1354 72.5558 47.8271 75.5672 50.8385C78.5786 53.8499 80.2704 57.9342 80.2704 62.1929Z" fill="#BE1F2B"/>
<path d="M78.2606 62.1947C78.2606 65.9203 76.7806 69.4934 74.1462 72.1278C71.5117 74.7622 67.9387 76.2422 64.2131 76.2422C60.4874 76.2422 56.9144 74.7622 54.28 72.1278C51.6455 69.4934 50.1655 65.9203 50.1655 62.1947C50.1655 58.4691 51.6455 54.8961 54.28 52.2616C56.9144 49.6272 60.4874 48.1472 64.2131 48.1472C67.9387 48.1472 71.5117 49.6272 74.1462 52.2616C76.7806 54.8961 78.2606 58.4691 78.2606 62.1947Z" fill="white"/>
<path d="M77.2573 62.1948C77.2573 65.6543 75.883 68.9722 73.4367 71.4185C70.9904 73.8648 67.6725 75.2391 64.2129 75.2391C60.7533 75.2391 57.4354 73.8648 54.9891 71.4185C52.5428 68.9722 51.1685 65.6543 51.1685 62.1948C51.1685 58.7352 52.5428 55.4173 54.9891 52.971C57.4354 50.5247 60.7533 49.1504 64.2129 49.1504C67.6725 49.1504 70.9904 50.5247 73.4367 52.971C75.883 55.4173 77.2573 58.7352 77.2573 62.1948Z" fill="#BE1F2B"/>
<path d="M76.2508 62.1947C76.2508 65.3873 74.9826 68.4491 72.7251 70.7065C70.4677 72.964 67.4059 74.2322 64.2133 74.2322C61.0208 74.2322 57.959 72.964 55.7015 70.7065C53.444 68.4491 52.1758 65.3873 52.1758 62.1947C52.1758 59.0022 53.444 55.9404 55.7015 53.6829C57.959 51.4255 61.0208 50.1572 64.2133 50.1572C67.4059 50.1572 70.4677 51.4255 72.7251 53.6829C74.9826 55.9404 76.2508 59.0022 76.2508 62.1947Z" fill="white"/>
<path d="M75.2457 62.1929C75.2457 65.1189 74.0834 67.9251 72.0144 69.994C69.9454 72.063 67.1392 73.2254 64.2132 73.2254C61.2872 73.2254 58.481 72.063 56.412 69.994C54.343 67.9251 53.1807 65.1189 53.1807 62.1929C53.1807 59.2669 54.343 56.4607 56.412 54.3917C58.481 52.3228 61.2872 51.1604 64.2132 51.1604C67.1392 51.1604 69.9454 52.3228 72.0144 54.3917C74.0834 56.4607 75.2457 59.2669 75.2457 62.1929Z" fill="#BE1F2B"/>
<path d="M74.2365 62.1946C74.2365 64.8531 73.1804 67.4027 71.3006 69.2825C69.4208 71.1623 66.8712 72.2184 64.2127 72.2184C61.5543 72.2184 59.0047 71.1623 57.1249 69.2825C55.245 67.4027 54.189 64.8531 54.189 62.1946C54.189 59.5362 55.245 56.9866 57.1249 55.1068C59.0047 53.227 61.5543 52.1709 64.2127 52.1709C66.8712 52.1709 69.4208 53.227 71.3006 55.1068C73.1804 56.9866 74.2365 59.5362 74.2365 62.1946Z" fill="white"/>
<path d="M73.2353 62.1947C73.2353 63.3798 73.0019 64.5532 72.5484 65.6481C72.0949 66.743 71.4301 67.7379 70.5921 68.5759C69.7541 69.4138 68.7593 70.0786 67.6644 70.5321C66.5695 70.9856 65.396 71.219 64.2109 71.219C63.0258 71.219 61.8523 70.9856 60.7574 70.5321C59.6625 70.0786 58.6677 69.4138 57.8297 68.5759C56.9917 67.7379 56.327 66.743 55.8735 65.6481C55.4199 64.5532 55.1865 63.3798 55.1865 62.1947C55.1865 59.8012 56.1373 57.5059 57.8297 55.8135C59.5221 54.1211 61.8175 53.1703 64.2109 53.1703C65.396 53.1703 66.5695 53.4037 67.6644 53.8572C68.7593 54.3107 69.7541 54.9755 70.5921 55.8135C71.4301 56.6515 72.0949 57.6463 72.5484 58.7412C73.0019 59.8361 73.2353 61.0096 73.2353 62.1947Z" fill="#BE1F2B"/>
<path d="M72.2286 62.1947C72.2286 64.3206 71.3841 66.3594 69.8808 67.8626C68.3776 69.3658 66.3388 70.2103 64.2129 70.2103C62.087 70.2103 60.0482 69.3658 58.545 67.8626C57.0418 66.3594 56.1973 64.3206 56.1973 62.1947C56.1973 60.0688 57.0418 58.03 58.545 56.5268C60.0482 55.0236 62.087 54.1791 64.2129 54.1791C66.3388 54.1791 68.3776 55.0236 69.8808 56.5268C71.3841 58.03 72.2286 60.0688 72.2286 62.1947Z" fill="white"/>
<path d="M71.2274 62.1947C71.2274 64.0555 70.4881 65.8401 69.1723 67.156C67.8565 68.4718 66.0719 69.211 64.2111 69.211C62.3503 69.211 60.5656 68.4718 59.2498 67.156C57.934 65.8401 57.1948 64.0555 57.1948 62.1947C57.1948 60.3339 57.934 58.5493 59.2498 57.2335C60.5656 55.9177 62.3503 55.1785 64.2111 55.1785C66.0719 55.1785 67.8565 55.9177 69.1723 57.2335C70.4881 58.5493 71.2274 60.3339 71.2274 62.1947Z" fill="#BE1F2B"/>
<path d="M70.2206 62.1966C70.2206 63.7899 69.5877 65.3179 68.461 66.4445C67.3344 67.5712 65.8064 68.2041 64.2131 68.2041C63.4242 68.2041 62.643 68.0487 61.9141 67.7468C61.1852 67.4449 60.523 67.0024 59.9651 66.4445C59.4073 65.8867 58.9648 65.2244 58.6629 64.4956C58.361 63.7667 58.2056 62.9855 58.2056 62.1966C58.2056 61.4077 58.361 60.6265 58.6629 59.8976C58.9648 59.1687 59.4073 58.5065 59.9651 57.9486C60.523 57.3908 61.1852 56.9483 61.9141 56.6464C62.643 56.3445 63.4242 56.1891 64.2131 56.1891C65.8064 56.1891 67.3344 56.822 68.461 57.9486C69.5877 59.0753 70.2206 60.6033 70.2206 62.1966Z" fill="white"/>
<path d="M64.2113 66.1922C66.4201 66.1922 68.2107 64.4016 68.2107 62.1929C68.2107 59.9841 66.4201 58.1935 64.2113 58.1935C62.0025 58.1935 60.2119 59.9841 60.2119 62.1929C60.2119 64.4016 62.0025 66.1922 64.2113 66.1922Z" fill="#BE1F2B"/>
</svg>
