<svg width="100" height="100" viewBox="0 0 100 100" fill="none" xmlns="http://www.w3.org/2000/svg">
<rect width="100" height="100" fill="white"/>
<path d="M89 23.5984L66.5197 40.118V57.1486C66.5197 59.406 64.6897 61.2359 62.4324 61.2359H38.4192L11.8516 80.9914H74.3537C82.4427 80.9914 89 74.4341 89 66.3451V23.5984Z" fill="#010101"/>
<path d="M89 23.5984L66.5197 40.118V57.1486C66.5197 59.406 64.6897 61.2359 62.4324 61.2359H38.4192L11.8516 80.9914H74.3537C82.4427 80.9914 89 74.4341 89 66.3451V23.5984Z" fill="url(#paint0_linear_105_1878)" fill-opacity="0.2"/>
<path d="M11 76.2229L34.6725 58.8517V39.2666C34.6725 37.5735 36.0449 36.2011 37.738 36.2011H65.1572L88.1484 19.0002L25.5493 19.4148C17.4984 19.4681 11 26.0097 11 34.0607V76.2229Z" fill="#3B9A36"/>
<path d="M11 76.2229L34.6725 58.8517V39.2666C34.6725 37.5735 36.0449 36.2011 37.738 36.2011H65.1572L88.1484 19.0002L25.5493 19.4148C17.4984 19.4681 11 26.0097 11 34.0607V76.2229Z" fill="url(#paint1_linear_105_1878)"/>
<defs>
<linearGradient id="paint0_linear_105_1878" x1="90.0219" y1="41.6508" x2="55.4498" y2="84.2272" gradientUnits="userSpaceOnUse">
<stop/>
<stop offset="0.524772"/>
<stop offset="0.524872" stop-color="white"/>
<stop offset="0.665919" stop-color="white"/>
<stop offset="0.75" stop-color="#BFBFBF" stop-opacity="0.748322"/>
<stop offset="1" stop-opacity="0"/>
</linearGradient>
<linearGradient id="paint1_linear_105_1878" x1="11" y1="52.5504" x2="41.4847" y2="15.7644" gradientUnits="userSpaceOnUse">
<stop offset="0.591469" stop-color="#3B9A36"/>
<stop offset="0.600315" stop-color="white" stop-opacity="0.71"/>
<stop offset="0.862177" stop-color="#3B9A36"/>
</linearGradient>
</defs>
</svg>
