<svg width="100" height="100" viewBox="0 0 100 100" fill="none" xmlns="http://www.w3.org/2000/svg">
<rect width="100" height="100" fill="white"/>
<path fill-rule="evenodd" clip-rule="evenodd" d="M81.699 81.699C90.2347 73.1632 95.03 61.5863 95.03 49.515C95.03 37.4437 90.2347 25.8668 81.699 17.331C73.1632 8.79532 61.5863 4 49.515 4C37.4437 4 25.8668 8.79532 17.331 17.331C8.79532 25.8668 4 37.4437 4 49.515C4 61.5863 8.79532 73.1632 17.331 81.699C25.8668 90.2347 37.4437 95.03 49.515 95.03C61.5863 95.03 73.1632 90.2347 81.699 81.699ZM89.064 65.8967C91.2153 60.7031 92.3225 55.1366 92.3225 49.515C92.3225 43.8934 91.2153 38.3269 89.064 33.1333C86.9127 27.9396 83.7595 23.2206 79.7845 19.2455C75.8094 15.2705 71.0904 12.1173 65.8967 9.96602C60.7031 7.81474 55.1366 6.70749 49.515 6.70749C38.1618 6.70749 27.2735 11.2176 19.2455 19.2455C11.2176 27.2735 6.70752 38.1617 6.70752 49.515C6.70752 60.8682 11.2176 71.7565 19.2455 79.7845C27.2735 87.8124 38.1618 92.3225 49.515 92.3225C55.1366 92.3225 60.7031 91.2152 65.8967 89.064C71.0904 86.9127 75.8094 83.7595 79.7845 79.7845C83.7595 75.8094 86.9127 71.0904 89.064 65.8967Z" fill="#223670"/>
<path d="M52.3 20.0575C55.6367 20.5458 58.8467 21.47 61.93 22.83C62.0133 22.8666 62.0375 22.9275 62.0025 23.0125L61.09 25.215C61.0771 25.2451 61.0531 25.2691 61.0232 25.2818C60.9932 25.2944 60.9598 25.2946 60.93 25.2825C57.4283 23.8375 54.02 23.0008 50.705 22.7725C46.6075 22.49 41.9975 23.91 38.02 25.2925C37.945 25.3175 37.895 25.2933 37.87 25.22L37.085 22.955C37.0567 22.87 37.0842 22.8133 37.1675 22.785C40.285 21.68 43.4175 20.5075 46.71 20.085C46.7883 20.075 46.8275 20.0308 46.8275 19.9525V14.83C46.8275 14.7968 46.8407 14.765 46.8641 14.7416C46.8876 14.7181 46.9194 14.705 46.9525 14.705H52.0775C52.1107 14.705 52.1424 14.7181 52.1659 14.7416C52.1893 14.765 52.2025 14.7968 52.2025 14.83V19.945C52.2025 20.01 52.235 20.0475 52.3 20.0575Z" fill="#223670"/>
<path d="M47.5851 28.1725C42.7934 28.5375 38.5726 30.265 34.9226 33.355C34.9074 33.3674 34.8898 33.3763 34.8708 33.381C34.8519 33.3858 34.8322 33.3862 34.8132 33.3824C34.7943 33.3786 34.7765 33.3705 34.7612 33.3588C34.7459 33.3471 34.7336 33.3321 34.7251 33.315L33.4926 30.8475C33.4559 30.7725 33.4684 30.7058 33.5301 30.6475C38.9926 25.625 46.9501 24.835 54.0826 25.6875C58.3426 26.1975 62.3626 27.6625 65.4801 30.6975C65.5401 30.7541 65.5517 30.82 65.5151 30.895L64.3326 33.2575C64.2992 33.3241 64.2551 33.3325 64.2001 33.2825C60.8801 30.32 56.2001 28.5075 51.7226 28.2125C51.5359 28.1991 51.5176 28.2491 51.6676 28.3625L67.5451 40.2975C67.6267 40.3575 67.6384 40.43 67.5801 40.515L66.2701 42.4225C66.2084 42.5125 66.1334 42.5266 66.0451 42.465L49.6251 30.8525C49.5943 30.8312 49.558 30.8198 49.5209 30.8198C49.4838 30.8198 49.4477 30.8312 49.4176 30.8525L32.9576 42.495C32.8909 42.5433 32.8342 42.5333 32.7876 42.465L31.4576 40.51C31.4042 40.4316 31.4151 40.3641 31.4901 40.3075L47.5951 28.1925C47.6151 28.1775 47.6117 28.1708 47.5851 28.1725Z" fill="#223670"/>
<path d="M49.475 39.1375L32.91 50.565C32.9018 50.5706 32.8926 50.5746 32.8828 50.5766C32.8731 50.5787 32.8631 50.5788 32.8533 50.5769C32.8435 50.5751 32.8342 50.5713 32.8259 50.5658C32.8176 50.5603 32.8105 50.5532 32.805 50.5449L31.4225 48.485C31.4168 48.4768 31.4129 48.4675 31.4108 48.4578C31.4087 48.4481 31.4086 48.438 31.4105 48.4283C31.4124 48.4185 31.4162 48.4092 31.4216 48.4009C31.4271 48.3926 31.4342 48.3855 31.4425 48.38L49.4575 35.8675C49.47 35.8589 49.4848 35.8542 49.5 35.8542C49.5152 35.8542 49.53 35.8589 49.5425 35.8675L67.595 48.375C67.6031 48.3807 67.6099 48.3879 67.6152 48.3963C67.6204 48.4047 67.624 48.414 67.6256 48.4238C67.6272 48.4336 67.6269 48.4436 67.6247 48.4532C67.6224 48.4628 67.6183 48.4719 67.6125 48.48L66.23 50.5325C66.2245 50.5407 66.2173 50.5478 66.209 50.5533C66.2007 50.5588 66.1914 50.5626 66.1817 50.5644C66.1719 50.5663 66.1619 50.5662 66.1521 50.5641C66.1424 50.5621 66.1332 50.5581 66.125 50.5525L49.56 39.1375C49.5475 39.1289 49.5327 39.1242 49.5175 39.1242C49.5023 39.1242 49.4875 39.1289 49.475 39.1375Z" fill="#223670"/>
<path d="M65.3576 57.7699L49.5901 73.5349C49.5803 73.5449 49.5686 73.5528 49.5557 73.5582C49.5429 73.5637 49.529 73.5664 49.5151 73.5664C49.5011 73.5664 49.4873 73.5637 49.4744 73.5582C49.4615 73.5528 49.4498 73.5449 49.4401 73.5349L33.6826 57.7799C33.6653 57.7629 33.6427 57.7523 33.6185 57.75C33.5944 57.7477 33.5702 57.7539 33.5501 57.7674L30.2651 59.9474C30.2418 59.9626 30.2135 59.968 30.1864 59.9623C30.1592 59.9567 30.1354 59.9406 30.1201 59.9174L28.7476 57.8624C28.7324 57.8392 28.727 57.8109 28.7326 57.7837C28.7383 57.7566 28.7544 57.7327 28.7776 57.7174L49.4551 43.9324C49.4722 43.9212 49.4921 43.9153 49.5126 43.9153C49.533 43.9153 49.553 43.9212 49.5701 43.9324L70.2576 57.7149C70.2807 57.7302 70.2968 57.7541 70.3025 57.7812C70.3081 57.8084 70.3027 57.8367 70.2876 57.8599L68.9101 59.9199C68.8948 59.9431 68.8709 59.9592 68.8437 59.9648C68.8166 59.9705 68.7883 59.9651 68.7651 59.9499L65.4901 57.7574C65.4699 57.7439 65.4457 57.7377 65.4216 57.74C65.3974 57.7423 65.3748 57.7529 65.3576 57.7699Z" fill="#223670"/>
<path d="M14.06 61.7224C11.3975 59.6099 11.3975 55.6949 13.88 53.5049C15.27 52.2799 17.0125 52.0224 18.8725 52.3974C22.4892 53.1274 25.085 55.2308 26.66 58.7074C26.7 58.7974 26.6708 58.8358 26.5725 58.8224C25.0892 58.6208 23.6967 58.8783 22.395 59.5949C22.3233 59.6356 22.265 59.6974 22.2275 59.7724C20.6825 62.9274 16.86 63.9399 14.06 61.7224Z" fill="#35C7F4"/>
<path d="M76.6151 59.6075C75.3301 58.8741 73.9467 58.6133 72.4651 58.825C72.3584 58.84 72.3276 58.7991 72.3726 58.7025C73.9292 55.2708 76.4651 53.1808 79.9801 52.4325C88.3876 50.64 89.4676 62.685 81.6326 62.875C79.5292 62.9266 77.9126 61.895 76.7826 59.78C76.7426 59.7066 76.6867 59.6491 76.6151 59.6075Z" fill="#35C7F4"/>
<path d="M48.0375 83.75C48.0423 83.7727 48.0547 83.7932 48.0727 83.808C48.0907 83.8227 48.1132 83.831 48.1365 83.8312C48.1598 83.8315 48.1824 83.8239 48.2008 83.8096C48.2192 83.7952 48.2321 83.7751 48.2375 83.7525C50.1475 74.1525 57.85 67.1575 66.8775 64C69.7875 62.9825 73.255 62.2425 75.955 63.995C79.7625 66.47 79.9025 71.735 76.5525 74.6775C72.7125 78.0475 67.29 75.815 65.8225 71.28C65.7975 71.1983 65.7425 71.1658 65.6575 71.1825C59.26 72.375 53.7625 76.1825 49.93 81.3175C49.275 82.1975 48.7183 83.1358 48.26 84.1325C48.2487 84.1566 48.231 84.1771 48.2088 84.1918C48.1867 84.2065 48.1609 84.2149 48.1343 84.2159C48.1077 84.2169 48.0813 84.2106 48.0581 84.1977C48.0348 84.1847 48.0156 84.1656 48.0025 84.1425C47.79 83.76 47.645 83.335 47.4225 82.9875C43.4575 76.8191 37.8766 72.9191 30.68 71.2875C30.59 71.2675 30.5308 71.3008 30.5025 71.3875C29.3475 74.98 25.7325 77.185 22.0775 75.9925C17.9925 74.6575 16.2025 70.1125 18.2625 66.35C20.63 62.03 25.3525 62.575 29.5525 64.065C38.2325 67.145 46.375 74.285 48.0375 83.75Z" fill="#35C7F4"/>
<path d="M36.0925 80.0475C36.19 83.37 32.7475 85.5225 29.845 83.62C27.2325 81.9075 27.6825 77.8075 30.5975 76.63C31.1192 76.4183 31.8333 76.3083 32.74 76.3C38.7333 76.2417 43.5883 78.5942 47.305 83.3575C47.43 83.5175 47.4167 83.53 47.265 83.395C44.1783 80.6333 40.5417 79.42 36.355 79.755C36.175 79.7683 36.0875 79.8658 36.0925 80.0475Z" fill="#35C7F4"/>
<path d="M51.0078 81.2925C54.5778 77.7875 58.9953 76.135 64.2603 76.335C66.6403 76.425 68.4628 78.1325 68.3303 80.5125C68.0253 85.915 59.9028 85.2425 60.3628 80.0425C60.3778 79.8625 60.2953 79.7659 60.1153 79.7525C55.7336 79.4142 51.9786 80.7442 48.8503 83.7425C48.7036 83.8825 48.6894 83.87 48.8078 83.705C49.4353 82.8275 50.1628 82.1225 51.0078 81.2925Z" fill="#35C7F4"/>
</svg>
