<svg width="100" height="100" viewBox="0 0 100 100" fill="none" xmlns="http://www.w3.org/2000/svg">
<rect width="100" height="100" fill="white"/>
<path d="M17.1859 39.5213L13.2242 39.3117C13.2037 39.3103 13.1842 39.3018 13.1692 39.2877C13.1541 39.2736 13.1445 39.2547 13.1418 39.2342C13.139 39.2138 13.1435 39.193 13.1543 39.1755C13.1652 39.1579 13.1817 39.1447 13.2012 39.1379C13.4193 39.0664 13.6562 39.0297 13.9118 39.028C21.6118 38.9854 29.3119 38.9914 37.0119 39.0459C37.1023 39.0476 37.1389 39.0919 37.1218 39.1788L36.5008 42.3609C36.4837 42.4495 36.4292 42.493 36.3372 42.4913C32.7743 42.389 30.5583 42.5117 28.3756 42.4734C27.4197 42.4563 26.854 42.4674 26.6785 42.5066C24.1149 43.0893 24.2887 47.3935 27.5935 47.3551C30.1204 47.3228 32.6414 47.3287 35.1564 47.373C35.2501 47.3747 35.2893 47.4216 35.2739 47.5136L34.7755 50.5347C34.7602 50.6233 34.7074 50.6676 34.6171 50.6676C31.8431 50.6624 29.0733 50.6607 26.3079 50.6624C25.4252 50.6642 24.7684 50.78 24.3373 51.0101C22.9775 51.7385 22.5635 53.4714 23.5143 54.7084C24.1788 55.5698 25.0197 55.7742 26.1596 55.7742C46.1825 55.7776 66.2241 55.7776 86.2845 55.7742C86.3224 55.7741 86.3599 55.7657 86.3942 55.7495C86.4286 55.7334 86.4589 55.71 86.4831 55.6809C86.5072 55.6519 86.5246 55.6179 86.534 55.5815C86.5434 55.545 86.5446 55.507 86.5375 55.4701L86.3074 54.2611C86.3041 54.24 86.3077 54.2184 86.3179 54.1996C86.3281 54.1808 86.3441 54.1658 86.3637 54.1571C86.3832 54.1484 86.405 54.1463 86.4258 54.1513C86.4466 54.1562 86.4652 54.1679 86.4787 54.1845L89.9931 58.6649C90.0714 58.7638 90.0476 58.814 89.9215 58.8157C67.5395 58.9512 45.155 58.7902 22.7782 58.8157C18.3446 58.8209 15.1062 58.734 13.0632 58.555C11.4752 58.417 9.89221 58.3506 8.31437 58.3557C8.28968 58.3557 8.26535 58.3494 8.24377 58.3374C8.22218 58.3254 8.20407 58.3082 8.1912 58.2873C8.17834 58.2665 8.17115 58.2427 8.17034 58.2184C8.16953 58.1941 8.17512 58.1701 8.18658 58.1487C8.20191 58.118 8.23685 58.089 8.29137 58.0618C8.32715 58.0447 8.3706 58.0371 8.42172 58.0388C11.2767 58.1333 14.106 57.9621 16.9686 58.0439C18.0643 58.0745 19.1607 58.0848 20.2581 58.0745C20.2969 58.0738 20.3344 58.06 20.3645 58.0355C20.3946 58.0109 20.4156 57.977 20.4242 57.9391C20.4532 57.8079 20.4302 57.7048 20.3552 57.6298C20.3024 57.5753 20.2163 57.548 20.097 57.548C16.8476 57.5242 14.808 57.439 13.9782 57.2924C12.046 56.9516 10.0975 56.7915 8.13291 56.8119C8.09766 56.8119 8.06385 56.7982 8.03893 56.7737C8.014 56.7493 8 56.7161 8 56.6816L8.00255 56.61C8.00255 56.5976 8.005 56.5853 8.00975 56.5738C8.01451 56.5623 8.02147 56.5519 8.03025 56.5431C8.03904 56.5344 8.04946 56.5274 8.06093 56.5226C8.07241 56.5179 8.0847 56.5154 8.09712 56.5154L19.2894 56.4592C19.3814 56.4575 19.4223 56.4115 19.4121 56.3212C19.3712 55.9813 19.1335 55.7793 18.7782 55.7819C16.8102 55.7921 15.0952 55.7742 12.9891 55.4829C11.4351 55.2665 9.87006 55.1549 8.29393 55.148C8.2394 55.1463 8.1968 55.1361 8.16613 55.1174C8.11331 55.085 8.0886 55.0441 8.09201 54.9947C8.09399 54.9513 8.11263 54.9103 8.14405 54.8803C8.17547 54.8503 8.21726 54.8336 8.2607 54.8337C11.7163 54.7911 15.1787 54.8073 18.6478 54.8822C18.687 54.8822 18.7237 54.8754 18.7578 54.8618C18.8157 54.8396 18.8498 54.8243 18.86 54.8158C18.9151 54.7651 18.9535 54.6988 18.97 54.6257C18.9865 54.5527 18.9803 54.4763 18.9522 54.4069C18.9242 54.3374 18.8756 54.2782 18.813 54.2371C18.7504 54.196 18.6767 54.1749 18.6018 54.1768C17.0445 54.2075 15.5024 54.187 13.9757 54.1155C13.237 54.0822 12.5444 53.6733 11.8338 53.6119C10.8183 53.525 9.73715 53.4773 8.59041 53.4688C8.55478 53.468 8.52026 53.4562 8.49154 53.4351C8.46282 53.414 8.44128 53.3846 8.42984 53.3508C8.4184 53.3171 8.41762 53.2806 8.4276 53.2464C8.43757 53.2122 8.45783 53.1819 8.48562 53.1596C8.59467 53.0761 8.72672 53.0573 8.88178 53.1033C9.04025 53.151 9.16123 53.174 9.24472 53.1723C11.7751 53.1417 14.3054 53.1212 16.8357 53.111C17.2753 53.111 17.9603 53.1723 18.5635 53.0931C18.7509 53.0675 18.8787 53.0002 18.9469 52.8912C19.0253 52.7685 19.0329 52.633 18.9699 52.4848C18.9341 52.3996 18.8702 52.3587 18.7782 52.3621C16.7301 52.4439 15.0014 52.4115 13.5923 52.265C13.4406 52.2497 13.3069 52.1576 13.191 51.989C13.1348 51.9055 13.0564 51.862 12.9559 51.8586L9.05303 51.7001C9.01912 51.6985 8.98664 51.686 8.96038 51.6644C8.93412 51.6429 8.91546 51.6135 8.90716 51.5806C8.89886 51.5477 8.90135 51.513 8.91427 51.4816C8.92718 51.4502 8.94984 51.4238 8.97891 51.4062C9.07262 51.3517 9.17571 51.3457 9.28817 51.3883C9.35803 51.4139 9.4313 51.4267 9.50798 51.4267L19.1284 51.3551C19.2442 51.3534 19.3218 51.2989 19.3609 51.1915L19.5271 50.7391C19.5663 50.6352 19.5296 50.5841 19.4172 50.5858C17.1935 50.6318 15.3797 50.5542 13.9757 50.3532C12.2428 50.1061 10.8191 49.9851 9.70478 49.9902C9.61618 49.9902 9.58551 49.9477 9.61277 49.8625C9.64173 49.7704 9.71756 49.7236 9.84024 49.7219C12.6483 49.6759 16.0059 49.6742 19.913 49.7168C20.0033 49.7185 20.0749 49.6827 20.1277 49.6094L20.6287 48.9014C20.6414 48.8839 20.649 48.8633 20.6507 48.8417C20.6524 48.8202 20.6481 48.7986 20.6384 48.7793C20.6286 48.76 20.6137 48.7438 20.5953 48.7324C20.5769 48.721 20.5557 48.715 20.5341 48.7149C17.4653 48.645 14.3974 48.5402 11.3303 48.4005C11.1105 48.3903 10.7041 48.4976 10.4025 48.3213C10.3746 48.3048 10.3528 48.2796 10.3405 48.2496C10.3282 48.2196 10.3261 48.1863 10.3345 48.155C10.3429 48.1237 10.3614 48.096 10.3871 48.0761C10.4127 48.0563 10.4442 48.0454 10.4767 48.0452H21.0964C21.2089 48.0452 21.2446 47.9924 21.2037 47.8868L21.0018 47.3756C20.9903 47.3484 20.9711 47.3252 20.9466 47.3089C20.9221 47.2925 20.8933 47.2837 20.8638 47.2836C18.969 47.2853 17.0768 47.2546 15.1872 47.1915C14.7867 47.1796 14.5576 47.0246 14.4996 46.7264C14.4826 46.6395 14.4289 46.5918 14.3386 46.5832C13.0675 46.4657 11.7998 46.4222 10.5354 46.4529C10.4775 46.4546 10.4341 46.4444 10.4051 46.4222C10.3676 46.3933 10.3412 46.3515 10.3259 46.297C10.3208 46.2784 10.32 46.259 10.3236 46.2401C10.3273 46.2212 10.3352 46.2034 10.3468 46.1881C10.3584 46.1728 10.3734 46.1603 10.3906 46.1517C10.4078 46.1431 10.4268 46.1386 10.446 46.1385C13.4108 46.1147 16.3978 46.1291 19.4069 46.182C19.7835 46.1871 20.1098 46.1436 20.3859 46.0516C20.4423 46.0328 20.4903 45.9946 20.5211 45.9437C20.552 45.8928 20.5637 45.8325 20.5541 45.7738C20.5446 45.715 20.5144 45.6616 20.4691 45.6231C20.4237 45.5845 20.3661 45.5634 20.3066 45.5634L15.0108 45.5328C14.9681 45.532 14.926 45.5225 14.8873 45.5049C14.8486 45.4873 14.8141 45.462 14.7859 45.4305C14.2645 44.8376 11.4428 44.8887 10.5815 44.835C10.4946 44.8299 10.4588 44.7847 10.4741 44.6996C10.4792 44.6655 10.4894 44.6391 10.5048 44.6203C10.5201 44.6033 10.5465 44.5948 10.584 44.5948C13.8402 44.6339 17.0964 44.6271 20.3526 44.5743C20.448 44.5726 20.4992 44.524 20.506 44.4286L20.529 44.0861C20.5358 43.972 20.4821 43.914 20.368 43.9123L15.3814 43.8484C15.3075 43.8467 15.2355 43.8133 15.1781 43.7539C15.1206 43.6946 15.0813 43.6131 15.067 43.5238C15.0636 43.4966 15.0619 43.4659 15.0619 43.4318C15.0615 43.3938 15.047 43.3573 15.0211 43.329C14.9952 43.3008 14.9597 43.2828 14.9214 43.2785C13.6519 43.1285 12.3791 43.0766 11.1029 43.1226C11.0245 43.126 10.9631 43.1064 10.9188 43.0638C10.8507 42.9956 10.8643 42.9539 10.9597 42.9385C11.3482 42.8789 11.7359 42.8533 12.1227 42.8619C14.8302 42.9317 17.5377 42.9547 20.2453 42.9309C20.759 42.9283 21.0606 42.7545 20.9814 42.2076C20.9729 42.1479 20.9379 42.1172 20.8766 42.1155L16.0255 41.9903C15.8943 41.9869 15.8287 41.9196 15.8287 41.7884V41.5865C15.8287 41.5395 15.8102 41.4943 15.7772 41.4609C15.7442 41.4274 15.6993 41.4082 15.6523 41.4076C14.4085 41.3973 13.1689 41.3684 11.9335 41.3207C11.7529 41.3138 11.6711 41.261 11.6882 41.1622C11.6918 41.1409 11.703 41.1215 11.7198 41.1075C11.7366 41.0935 11.758 41.0857 11.7802 41.0855C15.0415 41.1486 18.0958 41.1682 20.943 41.1443C21.6621 41.1375 22.1341 40.8206 22.359 40.1935C22.3829 40.1271 22.3599 40.093 22.29 40.0913L17.4696 39.92C17.3691 39.9166 17.3154 39.8655 17.3086 39.7667L17.2958 39.6287C17.2907 39.5605 17.254 39.5247 17.1859 39.5213Z" fill="#0977CF"/>
<path d="M79.7745 45.0907C79.8222 44.9425 79.8103 44.6298 79.7387 44.1527C79.7251 44.0641 79.7625 44.0198 79.8512 44.0198H86.6907C86.7998 44.0198 86.8458 44.0735 86.8287 44.1808L86.5374 45.9469C86.5254 46.0253 86.4794 46.0645 86.3993 46.0645C85.1589 46.0645 83.9159 46.067 82.6703 46.0722C81.7417 46.0756 81.3745 46.5484 81.5687 47.4907C81.584 47.5691 81.6215 47.6347 81.6812 47.6875C82.0978 48.0581 82.5016 48.2447 83.115 48.2498C87.0537 48.2804 86.3457 53.8881 82.8569 53.9648C81.3694 53.9971 79.8912 54.0261 78.4224 54.0517C78.3202 54.0534 78.2767 54.0039 78.2921 53.9034L78.5298 52.2625C78.5417 52.1756 78.592 52.1322 78.6806 52.1322C79.5777 52.1373 82.4991 52.3545 83.1534 51.9635C83.9483 51.4855 83.5751 50.2766 82.6371 50.1002C81.3617 49.8625 80.1374 49.8472 79.7004 48.2881C79.3988 47.2163 79.4235 46.1505 79.7745 45.0907Z" fill="black"/>
<path d="M71.517 44.6715L71.2767 44.1936C71.2171 44.0777 71.2529 44.0198 71.3841 44.0198H78.2722C78.3795 44.0198 78.4247 44.0735 78.4077 44.1808L78.1367 46.0006C78.1231 46.0841 78.0737 46.1258 77.9885 46.1258C77.0249 46.1284 72.8205 45.5661 73.0991 47.276C73.2933 48.4773 75.0058 48.2038 75.6882 48.4389C78.1802 49.3028 77.6613 52.5846 75.7955 53.6606C74.6122 54.343 71.4301 54.0772 69.9988 54.1002C69.9034 54.1002 69.8625 54.0534 69.8761 53.9596L70.1112 52.2651C70.1155 52.2318 70.1318 52.2011 70.1571 52.1786C70.1824 52.1561 70.2151 52.1433 70.2493 52.1424C71.1208 52.1296 74.1291 52.3494 74.7221 51.9993C75.2716 51.6772 75.2358 50.7392 74.7502 50.3354C74.3642 50.0185 73.3496 49.9852 72.9534 49.8881C70.74 49.3463 70.763 46.5936 71.5221 44.8453C71.5341 44.8173 71.5399 44.7872 71.539 44.7571C71.5381 44.7271 71.5306 44.6978 71.517 44.6715Z" fill="black"/>
<path d="M55.5802 46.2791L54.0492 53.9544C54.0271 54.0584 53.9632 54.1095 53.8575 54.1078L52.4109 54.0745C52.295 54.0728 52.2473 54.0149 52.2678 53.9007C52.7875 51.0228 53.3038 48.1466 53.8167 45.272C53.8908 44.8605 53.7962 44.651 53.6633 44.2778C53.6292 44.1773 53.665 44.1279 53.7707 44.1296C55.2156 44.133 56.6554 44.1492 58.0901 44.1781C60.7687 44.2292 61.3642 47.5263 59.4805 49.1033C59.4175 49.1561 59.4081 49.2166 59.4524 49.2848C59.7668 49.7781 60.0377 50.1921 59.9329 50.8158C59.754 51.8858 59.5401 52.9474 59.2914 54.0004C59.2834 54.0331 59.2647 54.0622 59.2383 54.083C59.2119 54.1038 59.1793 54.1153 59.1457 54.1154H57.5559C57.4639 54.1154 57.4273 54.0703 57.446 53.98C57.7715 52.4805 57.9546 51.4607 57.9955 50.9206C58.0952 49.5711 56.8684 49.8675 56.0352 49.8139C55.9278 49.8071 55.881 49.75 55.8946 49.6426L56.0505 48.4695C56.0567 48.4229 56.0798 48.3801 56.1155 48.3491C56.1512 48.3181 56.1971 48.3009 56.2448 48.3008C57.0933 48.3008 58.3994 48.4874 58.5476 47.2324C58.7214 45.7858 56.5694 46.1232 55.7591 46.1308C55.6586 46.1308 55.599 46.1802 55.5802 46.2791Z" fill="black"/>
<path d="M63.5498 52.1986H68.0968C68.2126 52.1986 68.2646 52.2566 68.2527 52.3724L68.1044 53.9596C68.0942 54.0636 68.0371 54.1155 67.9332 54.1155H61.1933C61.1688 54.1155 61.1447 54.1102 61.1226 54.0999C61.1004 54.0897 61.0808 54.0747 61.0652 54.0562C61.0496 54.0376 61.0383 54.0159 61.0322 53.9926C61.026 53.9693 61.0252 53.9449 61.0297 53.9213C61.5 51.2972 61.9788 48.6562 62.4661 45.998C62.5922 45.3113 62.6084 44.7235 62.5147 44.2345C62.5028 44.1714 62.5292 44.1399 62.5939 44.1399L69.5996 44.1476C69.7053 44.1476 69.7496 44.1995 69.7325 44.3035L69.4923 45.9214C69.4769 46.0168 69.4207 46.0645 69.3236 46.0645H64.7664C64.6437 46.0645 64.5713 46.125 64.5492 46.2459L64.199 48.1578C64.182 48.2583 64.2237 48.3086 64.3243 48.3086L68.8252 48.2856C68.9359 48.2838 68.9836 48.3384 68.9683 48.4491L68.769 49.8907C68.757 49.981 68.7051 50.0261 68.613 50.0261H63.8795C63.7892 50.0261 63.7373 50.0704 63.7236 50.159L63.4297 52.0606C63.4161 52.1526 63.4561 52.1986 63.5498 52.1986Z" fill="black"/>
<path d="M39.7444 46.6856L41.3521 44.3239C41.3758 44.2892 41.4075 44.2608 41.4445 44.2412C41.4814 44.2216 41.5226 44.2114 41.5642 44.2115L43.3661 44.2089C43.3878 44.209 43.4091 44.2149 43.4277 44.2261C43.4463 44.2373 43.4615 44.2533 43.4717 44.2724C43.4819 44.2915 43.4868 44.3131 43.4857 44.3348C43.4847 44.3564 43.4778 44.3774 43.4658 44.3955L40.5112 49.014C40.4879 49.0492 40.4724 49.0891 40.4658 49.131C40.4592 49.1729 40.4616 49.2158 40.4729 49.2568L41.6946 53.8804C41.6996 53.9006 41.7 53.9218 41.6956 53.9422C41.6913 53.9626 41.6824 53.9818 41.6696 53.9982C41.6569 54.0147 41.6405 54.0281 41.6218 54.0373C41.6031 54.0466 41.5825 54.0515 41.5617 54.0516H39.8467C39.8056 54.0516 39.7657 54.0387 39.7326 54.0148C39.6996 53.9909 39.6751 53.9573 39.6626 53.9187L38.9725 51.8485C38.9619 51.8179 38.9431 51.7908 38.9182 51.77C38.8933 51.7493 38.8632 51.7357 38.8312 51.7307C38.7992 51.7257 38.7664 51.7295 38.7364 51.7417C38.7064 51.7539 38.6802 51.774 38.6607 51.7999L37.048 53.9852C37.0178 54.0257 36.9787 54.0586 36.9339 54.0812C36.889 54.1038 36.8397 54.1156 36.7898 54.1155H35.1208C34.9811 54.1155 34.9487 54.0567 35.0237 53.9392L37.9655 49.3181C38.0201 49.2312 38.0337 49.1384 38.0064 49.0395L36.9099 45.0421C36.854 44.8401 36.7333 44.662 36.5662 44.5351C36.3991 44.4081 36.1948 44.3393 35.9847 44.3392H34.2953C34.1964 44.3392 34.1871 44.3103 34.2671 44.2523C34.3472 44.1927 34.4478 44.1646 34.5687 44.168C35.9131 44.2038 37.2601 44.2183 38.6096 44.2115C38.6897 44.2115 38.7425 44.2498 38.7681 44.3265L39.5348 46.6549C39.5843 46.8048 39.6541 46.8151 39.7444 46.6856Z" fill="black"/>
<path d="M47.979 48.2421C48.9784 48.4593 50.3535 48.0146 50.0314 46.7954C49.7937 45.8958 48.0327 46.0977 47.2966 46.1462C47.1978 46.1531 47.1382 46.205 47.1177 46.3021L45.5637 54.0005C45.545 54.0942 45.4879 54.1385 45.3925 54.1334L43.8794 54.0491C43.8027 54.0439 43.7712 54.0039 43.7848 53.9289L45.349 45.2312C45.3627 45.1563 45.3703 45.0804 45.372 45.0038C45.3754 44.7618 45.3218 44.5326 45.211 44.3162C45.2012 44.2963 45.1968 44.2742 45.1982 44.2521C45.1995 44.23 45.2066 44.2086 45.2187 44.19C45.2308 44.1715 45.2476 44.1564 45.2673 44.1462C45.287 44.1361 45.309 44.1313 45.3311 44.1322C46.6346 44.2004 47.9313 44.2251 49.2212 44.2063C52.9733 44.1526 52.7867 49.1264 49.257 49.7398C48.9349 49.7961 48.3548 49.8003 47.5164 49.7526C47.4278 49.7458 47.3912 49.6989 47.4065 49.612L47.6238 48.4772C47.6613 48.2779 47.7797 48.1995 47.979 48.2421Z" fill="black"/>
<path d="M9.20406 60.2421L91.0029 60.2855C91.0966 60.2855 91.1716 60.3222 91.2278 60.3954L91.9767 61.359C91.9896 61.3752 91.9975 61.3946 91.9997 61.4152C92.0018 61.4357 91.9979 61.4565 91.9886 61.4752C91.9793 61.4938 91.9648 61.5096 91.9469 61.5207C91.9289 61.5318 91.9083 61.5378 91.8872 61.5379C70.8778 61.5413 49.87 61.4936 28.864 61.3948C23.6525 61.3718 19.3407 61.4842 16.2123 61.2005C14.3653 61.0318 12.5148 60.9092 10.6609 60.8325C10.2392 60.8146 9.6309 60.8785 9.12739 60.7124C9.07149 60.6956 9.02359 60.6591 8.99264 60.6096C8.96169 60.5602 8.9498 60.5011 8.95919 60.4435C8.96858 60.3859 8.99861 60.3337 9.04367 60.2967C9.08873 60.2596 9.14574 60.2402 9.20406 60.2421Z" fill="#0977CF"/>
</svg>
