<svg width="100" height="100" viewBox="0 0 100 100" fill="none" xmlns="http://www.w3.org/2000/svg">
<rect width="100" height="100" fill="white"/>
<path d="M80.5345 21.5686C85.3272 27.3259 85.0421 35.508 80.3394 41.1425C80.2939 41.1993 80.2692 41.2689 80.2692 41.3398C80.2707 50.1709 80.2707 58.9998 80.2692 67.8264C80.2692 69.0147 79.8308 70.2388 78.9538 71.4987C76.3624 75.2214 71.072 77.3262 66.7705 78.2272C62.7438 79.0721 59.04 79.5142 55.6593 79.5537C47.8104 79.6435 41.6651 79.7269 34.7063 80.5074C31.9789 80.8143 29.2939 81.3332 26.6513 82.064C23.5271 82.9278 21.315 84.3989 19.7233 87.4244C19.722 87.4262 19.7203 87.4275 19.7183 87.4283C19.7163 87.4291 19.7141 87.4293 19.712 87.4288C19.7098 87.4283 19.7079 87.4273 19.7064 87.4257C19.7049 87.4241 19.7039 87.4222 19.7035 87.42C19.7035 72.0921 19.6999 56.7591 19.6926 41.421C19.6926 41.1031 19.5808 41.0899 19.4273 40.897C12.451 32.1624 16.6144 19.2008 27.4867 16.4691C30.7344 15.6535 34.0084 15.9524 37.3087 17.3658C37.3832 17.3979 37.449 17.3855 37.506 17.3285C44.4714 10.1527 55.5014 10.3018 62.4799 17.3088C62.5355 17.3643 62.599 17.3767 62.6707 17.346C69.0309 14.6516 76.1014 16.2433 80.5345 21.5686Z" fill="#E30613"/>
<path d="M57.7156 39.5093C57.7261 39.531 57.7427 39.5491 57.7635 39.5615C57.7842 39.5738 57.8081 39.5797 57.8322 39.5786C57.8562 39.5774 57.8794 39.5692 57.8989 39.5549C57.9183 39.5406 57.9331 39.5209 57.9414 39.4983C60.4167 33.0219 66.0797 25.4515 74.1303 28.0276C75.7088 28.5318 74.9722 30.6497 73.0166 30.1762C65.7552 28.4222 61.2213 35.7931 59.1736 41.4671C59.0713 41.7492 59.0143 42.1139 59.0026 42.5611C58.9456 44.6132 58.9814 46.658 59.11 48.6955C59.1103 48.7037 59.1089 48.712 59.106 48.7197C59.103 48.7274 59.0985 48.7344 59.0928 48.7403C59.0871 48.7463 59.0802 48.751 59.0726 48.7542C59.065 48.7574 59.0569 48.7591 59.0486 48.7591L55.6964 48.7635C55.6189 48.7649 55.5817 48.7269 55.5846 48.6495C55.665 46.6748 55.7205 44.7053 55.7512 42.7409C55.7571 42.4413 55.6884 42.1606 55.5451 41.899C53.968 39.0065 52.304 36.1622 50.553 33.3661C50.5004 33.2828 50.523 33.2412 50.6209 33.2412H54.4094C54.503 33.2412 54.5709 33.2828 54.6133 33.3661L57.7156 39.5093Z" fill="white"/>
<path d="M66.3234 40.7216C64.598 39.1299 64.7295 36.146 66.2817 34.5631C67.8405 32.9736 70.4451 32.6885 72.5981 33.1183C74.7686 33.5502 74.2468 34.5762 73.8083 36.2118C73.7912 36.2755 73.754 36.332 73.7023 36.3729C73.6505 36.4138 73.587 36.4369 73.5211 36.4389C73.4551 36.4409 73.3903 36.4216 73.3362 36.3838C73.2821 36.346 73.2416 36.2919 73.2207 36.2293C72.658 34.5148 71.4456 33.9024 69.5835 34.3921C68.5224 34.6727 67.9063 35.7163 68.0576 36.7906C68.3075 38.5861 70.6973 39.2724 72.1245 39.9367C75.1391 41.342 75.6565 45.2686 73.3282 47.5049C71.2322 49.5175 67.3604 49.4013 64.8501 48.3862C64.6498 48.3044 64.5753 48.159 64.6265 47.95C64.8282 47.1475 64.8961 46.3232 65.1022 45.5229C65.1201 45.4524 65.1602 45.3896 65.2166 45.3437C65.2731 45.2979 65.3428 45.2714 65.4157 45.2682C65.4886 45.265 65.5607 45.2853 65.6214 45.326C65.6822 45.3667 65.7285 45.4258 65.7534 45.4945C66.338 47.13 67.4459 47.882 69.0771 47.7504C71.0283 47.5948 72.5367 45.7444 71.3484 43.8764C70.3947 42.3724 67.6915 41.9844 66.3234 40.7216Z" fill="white"/>
<path d="M40.2001 43.5278L38.4286 48.6362C38.4008 48.7136 38.346 48.7523 38.2642 48.7523H36.2603C36.1872 48.7523 36.166 48.7187 36.1967 48.6515C38.1743 44.502 39.9604 40.5293 41.555 36.7335C42.3092 34.9423 42.7696 32.5811 45.3786 33.2476C45.4517 33.2666 45.5006 33.3119 45.5255 33.3835C47.2838 38.5138 49.1488 43.6053 51.1206 48.6581C51.1454 48.7209 51.1235 48.7523 51.0548 48.7523H47.4482C47.3752 48.7523 47.3277 48.7165 47.3057 48.6449L45.7623 43.5081C45.7514 43.4712 45.7288 43.4389 45.698 43.416C45.6671 43.3931 45.6297 43.3808 45.5913 43.3809H40.4084C40.3628 43.381 40.3183 43.3951 40.281 43.4214C40.2437 43.4477 40.2154 43.4849 40.2001 43.5278Z" fill="white"/>
<path d="M29.6547 34.6224L25.5549 34.9227C25.5066 34.9271 25.4759 34.9059 25.4628 34.8592C25.0396 33.4473 25.9276 33.2192 27.0786 33.2456C30.5149 33.3259 33.9467 33.3164 37.3742 33.217C37.4692 33.2141 37.5167 33.2602 37.5167 33.3552V34.8022C37.5167 34.8928 37.4722 34.9344 37.383 34.9271L33.3358 34.6312C33.1399 34.6165 33.0427 34.7072 33.0442 34.903L33.156 48.7087C33.1575 48.7408 33.1414 48.7569 33.1078 48.7569L29.8191 48.7591C29.7344 48.7591 29.6934 48.7167 29.6964 48.6319C29.8601 44.0074 29.8959 39.3821 29.8038 34.7561C29.8032 34.7374 29.7989 34.719 29.791 34.702C29.7832 34.685 29.7719 34.6698 29.758 34.6573C29.744 34.6447 29.7277 34.6352 29.7099 34.6292C29.6922 34.6232 29.6734 34.6209 29.6547 34.6224Z" fill="white"/>
<path d="M40.8273 41.9735L43.1513 36.4355C43.1586 36.4168 43.1715 36.4009 43.1882 36.39C43.2049 36.379 43.2246 36.3735 43.2446 36.3742C43.2646 36.3749 43.2839 36.3818 43.2997 36.394C43.3156 36.4062 43.3273 36.4229 43.3333 36.442L45.2407 41.9603C45.2455 41.9747 45.2469 41.9901 45.2447 42.0051C45.2425 42.0201 45.2367 42.0343 45.228 42.0467C45.2192 42.0591 45.2077 42.0693 45.1943 42.0764C45.1808 42.0834 45.1659 42.0873 45.1508 42.0875L40.9172 42.1072C40.9012 42.1074 40.8855 42.1036 40.8713 42.0961C40.8572 42.0887 40.8451 42.0778 40.8362 42.0646C40.8273 42.0513 40.8218 42.0361 40.8203 42.0202C40.8187 42.0043 40.8211 41.9882 40.8273 41.9735Z" fill="#E30613"/>
<path d="M69.4584 57.4803C68.1671 56.6516 68.0903 54.6653 68.9936 53.5712C70.0986 52.2339 72.2779 52.0848 73.8586 52.7052C73.971 52.7495 74.0635 52.8329 74.1191 52.9401C74.1748 53.0473 74.1897 53.1711 74.1612 53.2884L73.8783 54.457C73.8684 54.497 73.8457 54.5328 73.8138 54.5591C73.7819 54.5854 73.7424 54.6007 73.7014 54.6027C73.6603 54.6046 73.6199 54.5932 73.5862 54.5701C73.5524 54.547 73.5272 54.5134 73.5144 54.4745C72.4379 51.3284 68.1824 54.6061 71.322 56.0531C72.8347 56.7502 74.4549 57.351 74.4615 59.1378C74.4725 62.6698 70.8155 62.9723 68.2723 62.1085C68.2164 62.0896 68.1689 62.0514 68.1384 62.0009C68.1079 61.9503 68.0963 61.8906 68.1057 61.8323C68.1758 61.3514 68.2862 60.8435 68.4367 60.3085C68.4718 60.1828 68.5398 60.1185 68.6406 60.1156C68.672 60.1148 68.7028 60.1237 68.7287 60.141C68.7546 60.1583 68.7744 60.1831 68.7853 60.2121C69.9517 63.3034 74.0603 60.9399 72.0806 58.9405C71.5171 58.3704 70.1994 57.9561 69.4584 57.4803Z" fill="white"/>
<path d="M29.7889 56.9433C29.7686 56.9485 29.7507 56.9606 29.7381 56.9774C29.7256 56.9942 29.7191 57.0149 29.7199 57.0358C29.7207 57.0568 29.7286 57.0769 29.7423 57.0928C29.7561 57.1087 29.7749 57.1193 29.7955 57.1231C30.8172 57.259 31.8213 57.737 32.0471 58.8332C32.9066 62.9703 27.6404 62.4222 25.3317 62.3257C25.3169 62.3251 25.3023 62.3216 25.2888 62.3153C25.2753 62.309 25.2631 62.3001 25.2531 62.2891C25.2431 62.2781 25.2354 62.2651 25.2305 62.2511C25.2255 62.2371 25.2234 62.2222 25.2243 62.2073C25.3866 58.8894 25.4085 56.0473 25.2901 53.681C25.2579 53.0262 25.5466 52.671 26.1561 52.6155C27.6404 52.4839 31.6876 51.9556 31.7314 54.4023C31.7563 55.8215 31.1088 56.6685 29.7889 56.9433Z" fill="white"/>
<path d="M35.2697 59.0941L34.1888 62.238C34.1669 62.3038 34.1209 62.3359 34.0507 62.3345L32.9282 62.3169C32.7966 62.314 32.7594 62.2541 32.8164 62.1371C34.7896 58.0096 36.0597 55.1689 36.6268 53.6152C36.9601 52.7061 37.5769 52.3546 38.4772 52.5607C38.5561 52.5797 38.6095 52.6272 38.6373 52.7032L42.1035 62.2029C42.1298 62.2775 42.1042 62.3155 42.0267 62.3169L39.9286 62.3564C39.8952 62.357 39.8626 62.3468 39.8357 62.3274C39.8088 62.308 39.7891 62.2805 39.7795 62.249L38.8083 59.0458C38.7994 59.0173 38.7816 58.9923 38.7576 58.9746C38.7335 58.9568 38.7044 58.9472 38.6745 58.9472H35.4758C35.4304 58.947 35.3861 58.9611 35.3491 58.9875C35.3121 59.0138 35.2844 59.0511 35.2697 59.0941Z" fill="white"/>
<path d="M45.5478 57.7984L45.6684 62.1657C45.6698 62.2563 45.6253 62.3031 45.5347 62.306L43.6338 62.3586C43.514 62.3616 43.457 62.3038 43.4628 62.1854C43.6221 59.0386 43.6433 56.1336 43.5264 53.4706C43.4738 52.2889 44.7432 52.5673 45.4996 52.5235C45.5216 52.5219 45.5437 52.525 45.5644 52.5325C45.5851 52.54 45.6041 52.5518 45.62 52.5671C45.6359 52.5824 45.6484 52.6009 45.6568 52.6213C45.6651 52.6417 45.6691 52.6637 45.6684 52.6857L45.55 56.6978C45.5492 56.7314 45.5584 56.7645 45.5763 56.7929C45.5942 56.8214 45.6201 56.8439 45.6507 56.8577C45.6814 56.8715 45.7154 56.8759 45.7486 56.8705C45.7817 56.8651 45.8126 56.85 45.8372 56.8272C47.0211 55.709 48.1107 54.4915 49.1061 53.1746C49.652 52.4511 50.3032 52.3788 51.1319 52.5717C51.1948 52.5863 51.2043 52.617 51.1604 52.6638L47.4991 56.4347C47.472 56.4622 47.4559 56.4986 47.4535 56.5376C47.451 56.5766 47.4625 56.6155 47.4859 56.6474L51.5682 62.2402C51.6106 62.2987 51.5952 62.328 51.5222 62.328L49.1697 62.3521C49.0805 62.3535 49.0118 62.3177 48.9636 62.2446L45.9117 57.6822C45.6574 57.3022 45.5361 57.3409 45.5478 57.7984Z" fill="white"/>
<path d="M55.124 61.4926L57.9961 61.2711C58.0823 61.2638 58.1255 61.304 58.1255 61.3917V62.1744C58.1255 62.2431 58.0911 62.2782 58.0224 62.2796L52.8571 62.3169C52.8015 62.3169 52.7745 62.2891 52.7759 62.2336C52.8651 59.9476 52.8761 57.0069 52.8088 53.4113C52.7957 52.7624 53.324 52.5936 53.9006 52.5957C55.2424 52.6001 56.5835 52.5775 57.9238 52.5278C57.9424 52.5272 57.9609 52.5303 57.9783 52.537C57.9957 52.5436 58.0116 52.5537 58.025 52.5665C58.0385 52.5794 58.0493 52.5948 58.0567 52.6118C58.0642 52.6289 58.0682 52.6473 58.0684 52.6659L58.0728 53.4332C58.0728 53.5224 58.0283 53.5648 57.9391 53.5604L55.0714 53.4376C54.9837 53.4332 54.9391 53.4749 54.9377 53.5626L54.8741 56.5947C54.8735 56.6194 54.8779 56.644 54.8872 56.667C54.8965 56.6899 54.9105 56.7106 54.9282 56.7279C54.9459 56.7452 54.967 56.7587 54.9901 56.7674C55.0132 56.7762 55.0379 56.7801 55.0626 56.7789L57.6124 56.6627C57.6987 56.6597 57.7418 56.7014 57.7418 56.7876V57.5221C57.7418 57.6317 57.687 57.6843 57.5773 57.68L55.0319 57.5638C55.0116 57.5629 54.9913 57.5661 54.9723 57.5732C54.9533 57.5803 54.936 57.5912 54.9214 57.6052C54.9068 57.6191 54.8953 57.6359 54.8875 57.6544C54.8798 57.6729 54.8759 57.6928 54.8763 57.7128L54.9289 61.315C54.9291 61.3398 54.9344 61.3642 54.9446 61.3868C54.9547 61.4094 54.9693 61.4297 54.9877 61.4464C55.006 61.4631 55.0276 61.4758 55.051 61.4837C55.0745 61.4917 55.0993 61.4947 55.124 61.4926Z" fill="white"/>
<path d="M61.941 57.9802L62.0769 62.1765C62.0798 62.2511 62.044 62.2898 61.9695 62.2927L60.0621 62.3629C59.9641 62.3658 59.9166 62.319 59.9196 62.2226C60.019 58.5919 60.0387 55.7279 59.9788 53.6305C59.9598 52.9494 60.2601 52.5978 60.8798 52.5759C62.4496 52.5189 66.2776 51.9599 66.5604 54.3452C66.7621 56.0494 66.051 57.0587 64.4272 57.3729C64.4085 57.3765 64.3911 57.3848 64.3765 57.397C64.3619 57.4092 64.3507 57.425 64.3437 57.4429C64.3367 57.4607 64.3343 57.4801 64.3366 57.4993C64.3389 57.5185 64.346 57.5368 64.357 57.5527L67.6237 62.2116C67.6325 62.2244 67.6376 62.2394 67.6385 62.2549C67.6394 62.2704 67.6361 62.2858 67.6289 62.2995C67.6217 62.3133 67.6108 62.3248 67.5976 62.3329C67.5843 62.3409 67.5691 62.3452 67.5536 62.3453H65.2581C65.1894 62.3453 65.1375 62.3146 65.1024 62.2532C64.2635 60.7317 63.3456 59.2621 62.3488 57.8443C62.0594 57.4321 61.9234 57.4774 61.941 57.9802Z" fill="white"/>
<path d="M27.3203 53.5823C27.3206 53.544 27.3284 53.5061 27.3433 53.4708C27.3582 53.4356 27.38 53.4036 27.4072 53.3767C27.4345 53.3498 27.4668 53.3286 27.5023 53.3142C27.5378 53.2998 27.5758 53.2926 27.6141 53.2929H28.1052C28.5395 53.2947 28.9553 53.4594 29.2612 53.7509C29.5671 54.0425 29.738 54.4368 29.7364 54.8473V55.2551C29.7355 55.4584 29.6923 55.6595 29.6092 55.847C29.5262 56.0344 29.4048 56.2046 29.2521 56.3477C29.0994 56.4908 28.9184 56.6041 28.7193 56.6811C28.5203 56.7581 28.3071 56.7972 28.092 56.7963H27.6009C27.5626 56.7961 27.5248 56.7882 27.4895 56.7733C27.4542 56.7584 27.4223 56.7367 27.3954 56.7094C27.3685 56.6821 27.3473 56.6498 27.3329 56.6143C27.3185 56.5788 27.3112 56.5408 27.3115 56.5026L27.3203 53.5823Z" fill="#E30613"/>
<path d="M62.0286 53.6394C62.0306 53.5899 62.0423 53.5412 62.0631 53.4962C62.0839 53.4512 62.1134 53.4108 62.1498 53.3772C62.1863 53.3436 62.229 53.3175 62.2755 53.3004C62.3221 53.2833 62.3715 53.2756 62.4211 53.2777L62.8135 53.2952C63.2785 53.3142 63.7172 53.5095 64.0333 53.8384C64.3494 54.1673 64.5171 54.6027 64.4995 55.0491L64.4841 55.4788C64.4752 55.7002 64.4209 55.9175 64.3244 56.1184C64.2278 56.3193 64.091 56.4998 63.9216 56.6497C63.7522 56.7995 63.5536 56.9158 63.3371 56.9917C63.1206 57.0677 62.8906 57.1019 62.66 57.0925L62.2698 57.0771C62.2203 57.0751 62.1716 57.0634 62.1266 57.0426C62.0816 57.0218 62.0411 56.9924 62.0075 56.9559C61.9739 56.9195 61.9479 56.8767 61.9308 56.8302C61.9137 56.7837 61.906 56.7342 61.908 56.6847L62.0286 53.6394Z" fill="#E30613"/>
<path d="M35.739 57.9233L37.0873 54.7092C37.0964 54.6875 37.1118 54.669 37.1316 54.6563C37.1514 54.6435 37.1746 54.637 37.1981 54.6377C37.2217 54.6385 37.2444 54.6463 37.2634 54.6602C37.2824 54.6742 37.2967 54.6936 37.3044 54.7158L38.4467 58.0088C38.4531 58.0267 38.4551 58.046 38.4524 58.0649C38.4497 58.0837 38.4424 58.1017 38.4311 58.117C38.4199 58.1324 38.405 58.1448 38.3878 58.1531C38.3706 58.1613 38.3517 58.1653 38.3326 58.1645L35.8442 58.0856C35.8251 58.0853 35.8063 58.0804 35.7896 58.0711C35.7728 58.0619 35.7586 58.0486 35.7482 58.0326C35.7378 58.0165 35.7315 57.9982 35.7299 57.9791C35.7283 57.96 35.7314 57.9409 35.739 57.9233Z" fill="#E30613"/>
<path d="M27.3115 57.8027C27.3115 57.7316 27.3396 57.6633 27.3897 57.6128C27.4398 57.5623 27.5079 57.5337 27.579 57.5331L28.1995 57.5309C28.4363 57.5303 28.6709 57.5765 28.89 57.6668C29.109 57.757 29.308 57.8897 29.4758 58.057C29.6436 58.2244 29.7768 58.4233 29.8678 58.6422C29.9587 58.8612 30.0057 59.0959 30.006 59.3331V59.7759C30.0066 60.2541 29.8176 60.7129 29.4805 61.0517C29.1434 61.3904 28.6858 61.5813 28.2082 61.5825L27.5878 61.5847C27.5522 61.585 27.5169 61.5782 27.4839 61.5648C27.4509 61.5514 27.4209 61.5315 27.3957 61.5065C27.3704 61.4814 27.3503 61.4516 27.3366 61.4187C27.323 61.3858 27.3159 61.3506 27.3159 61.315L27.3115 57.8027Z" fill="#E30613"/>
<path d="M25.1715 76.5281C25.189 75.1265 25.1919 73.7336 25.1802 72.3494C25.1794 72.2959 25.1962 72.2436 25.2278 72.2005C25.2595 72.1573 25.3044 72.1257 25.3556 72.1104C28.1152 71.2846 30.9083 70.6978 33.7351 70.3499C40.7508 69.4861 47.1176 69.348 54.892 69.3107C56.3711 69.3034 58.3999 69.1624 60.9781 68.8876C65.9528 68.357 70.5218 67.2301 74.7159 64.7768C74.805 64.7256 74.8481 64.7512 74.8452 64.8535C74.8248 66.0608 74.8028 67.2498 74.7794 68.4206C74.7707 68.7473 75.025 69.1222 74.5909 69.3765C68.8577 72.7375 61.3202 73.7504 54.7955 73.8468C47.6482 73.9521 40.6281 74.0376 33.5158 74.8948C30.6978 75.2339 27.9464 75.831 25.2614 76.686C25.2117 76.7021 25.1729 76.6875 25.1452 76.6422C25.1189 76.5983 25.1276 76.5603 25.1715 76.5281Z" fill="white"/>
</svg>
