<svg width="100" height="100" viewBox="0 0 100 100" fill="none" xmlns="http://www.w3.org/2000/svg">
<rect width="100" height="100" fill="#F2FBFF"/>
<path d="M48.0027 13H48.819C49.7279 13.0308 50.6363 13.0521 51.5441 13.0638C52.362 13.0749 52.999 13.4473 53.3371 14.1847C55.7039 19.3504 58.0701 24.5161 60.4358 29.6817C60.6726 30.1991 60.1815 30.6129 59.7159 30.6966C58.7991 30.8614 57.8814 31.0222 56.963 31.179C56.1394 31.3201 55.2927 31.2978 54.8965 30.4359C52.3825 24.9561 49.8698 19.4758 47.3585 13.995C47.0755 13.3779 47.4278 13.0997 48.0027 13Z" fill="#13499F"/>
<path d="M27.3528 19.2307C35.0511 23.8746 42.7286 28.5553 50.4118 33.2248C51.0902 33.6378 51.7201 34.2461 51.1955 35.096C50.7772 35.7736 50.3568 36.45 49.9342 37.125C49.6679 37.5507 49.4936 37.8024 49.4112 37.88C48.9018 38.3559 48.146 38.2635 47.5688 37.9326C38.8335 32.9195 30.0977 27.9072 21.3614 22.8956C20.4462 22.3702 19.6529 21.5913 20.907 20.7845C21.9339 20.1244 22.9631 19.468 23.9948 18.8153C24.6509 18.3999 25.374 18.384 26.0916 18.5913C26.3493 18.6662 26.7697 18.8793 27.3528 19.2307Z" fill="#1E99D5"/>
<path d="M67.3359 33.4487C66.9107 33.1676 66.4884 32.8829 66.069 32.5949C65.6122 32.2823 65.3682 31.7872 65.5779 31.2515C66.8535 28.0008 68.1294 24.7502 69.4055 21.4995C69.4148 21.4758 69.4324 21.4563 69.455 21.4445C69.641 21.3467 69.8172 21.3549 69.9835 21.4692C70.4072 21.761 70.9979 22.2064 71.7558 22.8054C72.1138 23.0876 72.3346 23.3826 72.2039 23.8466C71.2828 27.1164 70.362 30.3859 69.4414 33.6552C69.3099 34.1224 69.0268 34.4349 68.5246 34.1862C68.3221 34.0852 67.9258 33.8394 67.3359 33.4487Z" fill="#1E99D5"/>
<path d="M74.1122 43.0636C73.6123 43.1824 73.248 42.6721 73.1356 42.2576C72.882 41.3274 72.6389 40.3947 72.4061 39.4592C72.2984 39.0263 72.2434 38.2857 72.8358 38.1956C76.2029 37.6843 79.5697 37.1719 82.9362 36.6585C83.3962 36.5883 83.6577 36.8689 83.7757 37.2755C83.9102 37.7422 84.1193 38.5527 84.4031 39.7072C84.4789 40.0133 84.5307 40.5849 84.1273 40.6806C80.7895 41.4763 77.4511 42.2706 74.1122 43.0636Z" fill="#13499F"/>
<path d="M12.0005 53.7588V53.416C12.0855 52.843 12.3369 52.3718 12.7547 52.0024C13.3399 51.4858 13.8876 51.3694 14.7733 51.1773C25.9088 48.7706 37.0446 46.3643 48.1806 43.9581C48.8862 43.8059 49.6579 44.4811 49.823 45.115C50.3662 47.1974 50.7268 48.5976 50.9049 49.3157C51.0555 49.92 50.8594 50.6519 50.3292 51.0234C50.2049 51.1111 49.9657 51.2078 49.6117 51.3136C38.802 54.5536 27.9921 57.7929 17.1818 61.0313C16.8178 61.1403 16.5366 61.2152 16.3383 61.2561C15.4008 61.4491 14.2727 61.1684 13.7592 60.3098C13.6604 60.144 13.5477 59.8211 13.4212 59.3411C12.9317 57.4819 12.4581 55.6212 12.0005 53.7588Z" fill="#13499F"/>
<path d="M74.1083 52.0254C73.8941 51.7395 73.851 51.4116 73.9791 51.0416C74.1056 50.677 74.4123 49.8864 74.8992 48.6698C75.1989 47.9212 75.5481 47.6836 76.2872 48.0926C79.9901 50.1421 83.6937 52.1899 87.3977 54.2362C87.9709 54.5527 88.0913 54.9346 87.9422 55.5493C87.7583 56.3046 87.5654 57.0582 87.3634 57.8103C87.2582 58.1986 86.9552 58.5207 86.5279 58.3102C82.5427 56.3527 78.5657 54.3787 74.597 52.3882C74.3647 52.2718 74.2018 52.1509 74.1083 52.0254Z" fill="#1E99D5"/>
<path d="M49.4267 87.4635H48.969C47.4968 87.2833 46.024 87.1061 44.5507 86.9317C43.7064 86.8321 43.2001 86.2828 43.2719 85.389C43.3022 85.0088 43.4489 84.6683 43.598 84.2976C47.2977 75.084 50.9978 65.8704 54.6981 56.6569C54.974 55.9702 55.1629 55.5641 55.265 55.4387C55.7242 54.8726 56.3994 54.8471 57.0636 55.0958C57.9719 55.436 58.88 55.7756 59.7878 56.1147C60.5324 56.393 61.053 56.6624 61.0881 57.4669C61.0966 57.6699 61.0368 57.955 60.9087 58.3223C57.7622 67.3525 54.6168 76.383 51.4724 85.4138C51.1025 86.4757 50.5644 87.2068 49.4267 87.4635Z" fill="#1E99D5"/>
<path d="M77.7018 78.9583C77.099 79.4143 76.4724 79.3744 76.1407 78.6306C73.1617 71.956 70.1834 65.2814 67.2059 58.6068C66.8703 57.8542 66.7953 57.1055 67.7074 56.7691C68.4945 56.4789 69.2796 56.1866 70.0625 55.8921C70.7027 55.6514 71.3046 55.9631 71.5765 56.5698C74.3206 62.7086 77.0637 68.848 79.8057 74.9879C80.2817 76.0539 80.591 76.7802 79.5753 77.5439C78.9487 78.0154 78.3242 78.4868 77.7018 78.9583Z" fill="#13499F"/>
</svg>
