<svg width="100" height="100" viewBox="0 0 100 100" fill="none" xmlns="http://www.w3.org/2000/svg">
<rect width="100" height="100" fill="#008000"/>
<g clip-path="url(#clip0_105_1896)">
<path d="M72.135 34H86.02C87.2217 34.1717 87.8817 34.9117 88 36.22V39.1375L87.93 44.0125C87.9293 44.0591 87.9104 44.1036 87.8771 44.1364C87.8439 44.1691 87.7991 44.1875 87.7525 44.1875H82.6C82.4883 44.1875 82.4333 44.1325 82.435 44.0225L82.4475 41.435C82.4475 41.382 82.4267 41.3311 82.3897 41.2936C82.3526 41.2561 82.3024 41.235 82.25 41.235L77.2275 41.2575C77.1883 41.2576 77.1495 41.2674 77.1147 41.2861C77.0798 41.3049 77.0499 41.3319 77.0275 41.365C75.6458 43.49 75.6767 45.58 77.12 47.635C77.1446 47.6705 77.1772 47.6995 77.2151 47.7195C77.253 47.7396 77.295 47.75 77.3375 47.75C79.5075 47.75 81.6725 47.7517 83.8325 47.755C86.11 47.755 87.6875 48.2675 88 50.7075V51.8875C87.9283 55.4458 87.895 59.0042 87.9 62.5625C87.9025 64.0525 87.5275 65.7175 86.0775 66.3375C85.6442 66.5225 84.7775 66.6167 83.4775 66.62C79.0208 66.63 74.5642 66.6733 70.1075 66.75H65.05C63.3175 66.57 62.675 65.385 62 63.875C59.495 58.295 56.9933 52.7092 54.495 47.1175C54.4617 47.0442 54.42 47.0383 54.37 47.1C52.9783 48.8267 51.5875 50.5708 50.1975 52.3325C49.3575 53.4 48.4375 52.4025 47.8625 51.6375C46.7175 50.1158 45.58 48.5933 44.45 47.07C44.444 47.0622 44.4362 47.056 44.4271 47.0521C44.4181 47.0482 44.4082 47.0467 44.3985 47.0477C44.3887 47.0487 44.3793 47.0522 44.3713 47.0579C44.3632 47.0635 44.3568 47.0711 44.3525 47.08C41.6925 53.11 39.16 59.255 36.2575 65.1225C35.7175 66.215 34.8525 66.68 33.6025 66.6825C30.0242 66.6925 26.4458 66.6917 22.8675 66.68C20.1825 66.6725 20.285 63.3625 20.2575 61.5575C20.1692 55.4308 20.0967 49.3283 20.04 43.25C20.0393 43.1994 20.019 43.1511 19.9835 43.1155C19.9479 43.0799 19.9 43.06 19.85 43.06L13 43.0525V34.2125L35.115 34.115C35.1326 34.1147 35.1501 34.1179 35.1665 34.1245C35.1828 34.1312 35.1977 34.1411 35.2103 34.1536C35.2229 34.1662 35.2329 34.1812 35.2397 34.1978C35.2465 34.2143 35.25 34.2321 35.25 34.25V43.1275C35.25 43.2542 35.1867 43.3175 35.06 43.3175L28.38 43.305C28.363 43.3047 28.3462 43.3077 28.3304 43.314C28.3147 43.3202 28.3003 43.3296 28.2882 43.3414C28.2761 43.3533 28.2665 43.3675 28.2599 43.3831C28.2534 43.3988 28.25 43.4155 28.25 43.4325V58.7525C28.25 58.8392 28.2925 58.8825 28.3775 58.8825L31.8775 58.88C31.9218 58.88 31.9651 58.867 32.002 58.8426C32.0389 58.8181 32.0678 58.7833 32.085 58.7425C35.085 51.5875 38.0892 44.4133 41.0975 37.22C42.17 34.655 44.6325 32.385 46.835 35.7925C47.6783 37.0975 48.5042 38.4025 49.3125 39.7075C49.3205 39.72 49.3315 39.7304 49.3444 39.7376C49.3574 39.7448 49.372 39.7488 49.3868 39.749C49.4017 39.7493 49.4164 39.7458 49.4296 39.739C49.4428 39.7322 49.4541 39.7222 49.4625 39.71C50.3242 38.4317 51.1917 37.175 52.065 35.94C53.6525 33.695 56.1025 33.28 57.43 36.075C61.0317 43.675 64.6325 51.2767 68.2325 58.88C68.2708 58.96 68.3342 59 68.4225 59H81.25C81.3403 59.0001 81.429 58.9763 81.5071 58.9311C81.5853 58.8859 81.6501 58.8208 81.695 58.7425C82.8067 56.8275 82.7592 54.9567 81.5525 53.13C81.5263 53.0908 81.4909 53.0586 81.4494 53.0364C81.408 53.0142 81.3618 53.0025 81.315 53.0025C78.5967 52.9992 75.89 52.9983 73.195 53C71.38 53.0025 69.575 52.5425 69.5175 50.3475C69.4125 46.2992 69.335 42.2492 69.285 38.1975C69.2625 36.4575 70.5975 34.6375 72.135 34Z" fill="white"/>
</g>
<defs>
<clipPath id="clip0_105_1896">
<rect width="75" height="32.75" fill="white" transform="translate(13 34)"/>
</clipPath>
</defs>
</svg>
