<svg width="100" height="100" viewBox="0 0 100 100" fill="none" xmlns="http://www.w3.org/2000/svg">
<rect width="100" height="100" fill="white"/>
<mask id="mask0_105_1898" style="mask-type:alpha" maskUnits="userSpaceOnUse" x="18" y="17" width="63" height="66">
<ellipse cx="49.625" cy="49.625" rx="31.125" ry="32.625" fill="#2C479E"/>
</mask>
<g mask="url(#mask0_105_1898)">
<path d="M80.625 49.625C80.625 67.5799 66.7404 82.125 49.625 82.125C32.5097 82.125 18.625 67.5799 18.625 49.625C18.625 31.6701 32.5097 17.125 49.625 17.125C66.7404 17.125 80.625 31.6701 80.625 49.625Z" fill="#2C479E" stroke="#2C479E" stroke-width="0.25"/>
<path fill-rule="evenodd" clip-rule="evenodd" d="M58.4897 38.875C34.2897 34.275 38.6564 22.2083 43.8647 16.75L35.3648 18.5C23.4648 32.5 38.4064 43.3333 47.3648 47L58.4897 38.875ZM56.4897 55.125C32.4897 48.625 20.1147 35.375 32.4897 20L23.275 23.7851C12.3647 41.875 29.4198 58.7121 38.3647 63.5L56.4897 55.125ZM18.6147 31.875C17.2397 42.75 16.9897 57.625 38.2397 68.125L28.2334 77.75C19.2885 72.9621 6.36476 55.75 13.1437 38.0351L18.6147 31.875Z" fill="url(#paint0_linear_105_1898)"/>
</g>
<mask id="mask1_105_1898" style="mask-type:alpha" maskUnits="userSpaceOnUse" x="4" y="20" width="92" height="45">
<path fill-rule="evenodd" clip-rule="evenodd" d="M51.8086 58.375V59.9264C51.1291 59.9595 50.4618 59.9842 49.8086 60C34.3086 60.375 11.9336 57.5 7.30855 52.875C3.60855 49.175 14.2669 45.9167 20.0586 44.75C17.0586 44 0.808555 48.75 4.55856 55C8.30856 61.25 32.4336 64.5 49.8086 64.125C67.1836 63.75 96.1353 56.75 95.4336 49.5C94.8336 43.3 84.1836 41.8333 78.8086 41.875C84.6419 42.8333 95.5586 45.7 92.5586 49.5C91.0548 51.4048 86.375 53.4101 80.3086 55.1532V55L76.6836 55.625C78.7836 47.625 76.892 38.375 75.6836 34.75C77.1836 30.15 78.7253 23 79.3086 20C64.5086 42.4 40.6419 52 30.5586 54C37.0586 56.6 51.267 57.3333 57.5586 57.375V58.375H51.8086ZM74.5586 37.5C73.2669 40.75 70.4337 47 69.6836 48.5C68.9676 49.9317 69.3086 51.875 70.1836 51.5C70.1997 51.4931 70.2167 51.4859 70.2346 51.4783C71.1865 51.0751 74.5586 49.6468 74.5586 37.5Z" fill="#FF8010"/>
</mask>
<g mask="url(#mask1_105_1898)">
<path fill-rule="evenodd" clip-rule="evenodd" d="M51.8086 58.375V59.9264C51.1291 59.9595 50.4618 59.9842 49.8086 60C34.3086 60.375 11.9336 57.5 7.30855 52.875C3.60855 49.175 14.2669 45.9167 20.0586 44.75C17.0586 44 0.808555 48.75 4.55856 55C8.30856 61.25 32.4336 64.5 49.8086 64.125C67.1836 63.75 96.1353 56.75 95.4336 49.5C94.8336 43.3 84.1836 41.8333 78.8086 41.875C84.6419 42.8333 95.5586 45.7 92.5586 49.5C91.0548 51.4048 86.375 53.4101 80.3086 55.1532V55L76.6836 55.625C78.7836 47.625 76.892 38.375 75.6836 34.75C77.1836 30.15 78.7253 23 79.3086 20C64.5086 42.4 40.6419 52 30.5586 54C37.0586 56.6 51.267 57.3333 57.5586 57.375V58.375H51.8086ZM74.5586 37.5C73.2669 40.75 70.4337 47 69.6836 48.5C68.9676 49.9317 69.3086 51.875 70.1836 51.5C70.1997 51.4931 70.2167 51.4859 70.2346 51.4783C71.1865 51.0751 74.5586 49.6468 74.5586 37.5Z" fill="url(#paint1_linear_105_1898)"/>
<path d="M-26.5 27.5L23.125 30.75C21.666 44.013 15.625 47.875 20.75 61.875L-26.5 71.5V27.5Z" fill="#2D479E"/>
<path d="M77.625 33.5L126.5 33.25L124.75 64.25L79.25 59.625C82.5 49.125 78.875 45.125 77.625 33.5Z" fill="#2D479E"/>
</g>
<defs>
<linearGradient id="paint0_linear_105_1898" x1="24.7449" y1="31.875" x2="51.125" y2="60" gradientUnits="userSpaceOnUse">
<stop stop-color="#EEF0F7"/>
<stop offset="0.629599" stop-color="#576DB2"/>
<stop offset="0.873231" stop-color="#2C479E"/>
</linearGradient>
<linearGradient id="paint1_linear_105_1898" x1="25" y1="53.375" x2="69.25" y2="78.625" gradientUnits="userSpaceOnUse">
<stop stop-color="#FF8010"/>
<stop offset="0.485492" stop-color="#F9C495"/>
<stop offset="0.553154" stop-color="white"/>
<stop offset="0.64406" stop-color="#FF7801"/>
<stop offset="0.748037" stop-color="#FF7D0B"/>
<stop offset="0.834108" stop-color="white"/>
<stop offset="0.920952" stop-color="#FF8010"/>
</linearGradient>
</defs>
</svg>
