<svg width="100" height="100" viewBox="0 0 100 100" fill="none" xmlns="http://www.w3.org/2000/svg">
<rect width="100" height="100" fill="#14394F"/>
<g clip-path="url(#clip0_105_1899)">
<path d="M60.2807 42.7541C57.9885 42.771 55.1844 38.5522 54.0285 36.8C52.5041 34.4863 51.4869 32.18 50.9769 29.8813C50.8138 29.15 51.0266 28.3625 51.6154 27.5188C54.3125 23.6431 58.461 22.2763 62.7135 20.7997C66.1897 19.5931 74.6469 17.0647 77.5241 18.5778C81.5572 20.6956 80.0047 24.875 78.095 27.7606C75.5938 31.5463 72.725 35.0338 69.4888 38.2231C67.0138 40.6616 63.8722 42.7231 60.2807 42.7541Z" fill="#D62116"/>
<path d="M29.0195 35.2615C26.5876 32.8109 24.3733 30.1728 22.3764 27.3471C21.9039 26.6749 21.0264 25.2293 20.9673 24.4081C20.6748 20.3103 23.6983 18.5637 27.4501 18.8956C31.667 19.2706 35.957 20.0918 40.3201 21.3593C44.252 22.504 48.0433 24.1746 50.2173 27.6987C50.5661 28.2584 50.7095 28.9756 50.5689 29.6674C49.6436 34.1984 46.6258 38.8699 43.2564 41.8681C41.7095 43.2434 39.1108 42.5993 37.4823 41.8428C34.1889 40.3128 31.8658 38.1303 29.0195 35.2615Z" fill="#0587D1"/>
<path d="M58.4776 42.5768C61.352 44.4331 60.9132 53.4106 60.4998 56.375C59.4789 63.7015 58.0811 70.9437 55.5695 77.6656C55.1757 78.7175 54.4867 79.7187 53.5586 80.3656C50.057 82.7928 47.4695 79.2265 46.3136 76.1525C43.7729 69.3818 42.0048 62.42 41.0092 55.2668C40.4917 51.5487 40.5423 47.0965 42.1454 43.7047C43.4054 41.0356 48.7942 40.7206 51.2495 40.7853C53.9157 40.8556 56.3401 41.1931 58.4776 42.5768Z" fill="#81B21C"/>
</g>
<defs>
<clipPath id="clip0_105_1899">
<rect width="60.75" height="65.5312" fill="white" transform="translate(20 17)"/>
</clipPath>
</defs>
</svg>
