<svg width="100" height="100" viewBox="0 0 100 100" fill="none" xmlns="http://www.w3.org/2000/svg">
<rect width="100" height="100" fill="#D6E7FF"/>
<path d="M21.6813 70.7089C26.3413 72.5789 31.7813 70.2739 33.5463 65.5239C34.0429 64.1805 34.2896 61.9222 34.2863 58.7488C34.2796 49.1022 34.2729 39.4505 34.2663 29.7938C34.2613 22.7738 37.2063 18.0238 44.7513 17.0038C44.8174 16.9953 44.8846 17.001 44.9484 17.0205C45.0122 17.0399 45.0711 17.0727 45.1213 17.1167C45.1714 17.1607 45.2116 17.2148 45.2392 17.2755C45.2668 17.3363 45.2811 17.4022 45.2813 17.4688C45.2713 31.1155 45.273 44.8322 45.2863 58.6189C45.2896 62.2989 45.0596 65.0705 44.5963 66.9339C40.8663 81.9589 22.2663 87.6039 11.0763 76.6389C1.92124 67.6789 3.26624 52.4439 14.0663 45.4739C19.4163 42.0189 24.7113 41.9888 31.4713 42.2388C31.6746 42.2455 31.7763 42.3522 31.7763 42.5588V52.8188C31.7763 52.9121 31.7396 53.0017 31.6741 53.0681C31.6086 53.1346 31.5196 53.1725 31.4263 53.1739C28.3063 53.2089 24.3713 52.7738 21.7313 53.7789C14.1363 56.6789 13.9813 67.6139 21.6813 70.7089Z" fill="#153075"/>
<path d="M54.2664 17.0789C59.4264 17.1139 63.7064 21.0089 64.6964 25.6589C65.4064 29.0039 65.0714 35.0739 64.9714 39.3739C64.9701 39.4565 64.9363 39.5354 64.8774 39.5934C64.8184 39.6514 64.7391 39.6839 64.6564 39.6839H54.2764C54.2101 39.6839 54.1465 39.6575 54.0996 39.6106C54.0527 39.5638 54.0264 39.5002 54.0264 39.4339V17.3139C54.0264 17.1572 54.1064 17.0789 54.2664 17.0789Z" fill="#257925"/>
<path d="M65.6515 65.4789C68.2715 72.4139 77.6565 73.5089 81.7615 67.2539C85.8565 61.0189 81.2965 53.2089 73.8965 53.1939C65.3065 53.1772 56.7348 53.1756 48.1815 53.1889C47.9015 53.1889 47.7598 53.0489 47.7565 52.7689L47.6315 42.9689C47.6248 42.4456 47.8815 42.1839 48.4015 42.1839C56.8782 42.1806 65.5032 42.1806 74.2765 42.1839C92.3215 42.1889 101.262 64.6189 87.7265 77.0439C76.5965 87.2589 58.9765 82.0189 54.8015 67.6139C53.7865 64.1089 53.9815 59.7739 54.0365 55.9289C54.0398 55.7656 54.1231 55.6839 54.2865 55.6839H64.6465C64.8365 55.6839 64.9298 55.7789 64.9265 55.9689C64.8565 59.0139 64.6565 62.8439 65.6515 65.4789Z" fill="#257925"/>
</svg>
