<svg width="100" height="100" viewBox="0 0 100 100" fill="none" xmlns="http://www.w3.org/2000/svg">
<rect width="100" height="100" fill="#07427A"/>
<path d="M56.718 37.3216L49.8126 3.53601L42.8809 37.4494L26.3514 26.5301L37.2707 43.0596L3.35742 49.9912L37.143 56.8967L26.3514 73.2329L42.8415 62.3397L49.8126 96.4463L56.7575 62.4675L73.0543 73.2329L62.2888 56.9362L96.2677 49.9912L62.1611 43.0201L73.0543 26.5301L56.718 37.3216Z" fill="#CBC0AE"/>
<path d="M96.625 49.9912H49.8125L62.3197 56.9595L96.625 49.9912Z" fill="#918B7F"/>
<path d="M73.1406 26.4063L49.8125 49.9912L62.141 43.0229L73.1406 26.4063Z" fill="#918B7F"/>
<path d="M26.4062 26.5849L49.8125 49.8125L42.8442 37.3556L26.4062 26.5849Z" fill="#918B7F"/>
<path d="M26.4062 73.2188L49.8125 49.9912L37.1267 56.9595L26.4062 73.2188Z" fill="#918B7F"/>
<path d="M73.0401 73.2188L49.8628 49.9912L56.7808 62.4984L73.0401 73.2188Z" fill="#918B7F"/>
<path d="M3 49.9912H49.8125L37.3053 43.0229L3 49.9912Z" fill="#918B7F"/>
<path d="M49.8125 96.625L49.8125 49.8125L42.8442 62.3197L49.8125 96.625Z" fill="#918B7F"/>
<path d="M49.8125 3L49.8125 49.8125L56.7808 37.3053L49.8125 3Z" fill="#918B7F"/>
</svg>
