<svg width="100" height="100" viewBox="0 0 100 100" fill="none" xmlns="http://www.w3.org/2000/svg">
<rect width="100" height="100" fill="#323337"/>
<mask id="mask0_105_1913" style="mask-type:alpha" maskUnits="userSpaceOnUse" x="8" y="8" width="84" height="84">
<circle cx="50" cy="50" r="42" fill="#D9D9D9"/>
</mask>
<g mask="url(#mask0_105_1913)">
<path d="M72.5253 27.0056C41.1778 37.5173 23.0169 30.4469 17.8549 25.5977C14.7264 27.8659 8.65713 33.81 9.40797 39.4413C10.3465 46.4804 14.8046 45.0726 43.1957 42.0223C65.9085 39.5821 82.0672 32.324 86.8381 28.648L83.3186 24.4246L72.5253 27.0056Z" fill="#807C7B"/>
<path d="M9.87695 37.5643C17.1497 27.7231 38.1702 7.95277 63.8434 10.581C49.2959 3.85475 19.0747 0.210118 9.87695 37.5643Z" fill="#DC691D"/>
<path d="M98.101 34.7487C69.7099 52.8157 28.0204 56.9207 10.3467 56.3352C6.20145 60.4023 1.14893 69.1933 14.1009 71.8213C27.0528 74.4492 75.8104 62.2794 98.5702 55.866L98.101 34.7487Z" fill="#807C7B"/>
<path d="M12.2235 70.6481C9.97099 66.8939 8.3911 54.3017 7.53076 48.3576C25.8324 25.1285 64.3129 14.1006 73.933 14.1006L88.7151 28.4134C41.9755 37.6112 18.2458 60.4023 12.2235 70.6481Z" fill="#DC691D"/>
<path d="M88.4804 67.3632C77.781 66.0492 43.0391 78.8603 27.7095 84.9609C35.2179 96.2235 54.6927 84.0224 66.4246 82.6145C74.4961 80.362 84.4916 71.5084 88.4804 67.3632Z" fill="#807C7B"/>
<path d="M69.4749 70.4135C58.7363 73.7482 40.5881 85.0015 34.7487 91.0615L20.2012 80.2682C20.9051 72.9945 31.6984 68.0671 41.0839 62.4358C48.5922 57.9308 78.7822 44.2906 92.9386 38.0336V57.5084C89.028 60.1676 79.1966 67.3945 69.4749 70.4135Z" fill="#DC691D"/>
<path d="M46.9497 91.7653C59.9329 85.0391 86.2748 70.8827 87.7765 68.067C84.257 78.9385 71.1642 98.8983 46.9497 91.7653Z" fill="#DC691D"/>
<path d="M25.8325 20.905C30.2124 22.391 44.1811 22.4536 65.0169 10.8156C60.4024 8.70389 46.1051 7.76534 25.8325 20.905Z" fill="#807C7B"/>
</g>
</svg>
