<svg width="100" height="100" viewBox="0 0 100 100" fill="none" xmlns="http://www.w3.org/2000/svg">
<rect width="100" height="100" fill="#595C62"/>
<path d="M24.8936 58V43.7266H19.7959V40.8203H33.4483V43.7266H28.3623V58H24.8936ZM36.0583 58V40.8203H48.7966V43.7266H39.527V47.5352H48.152V50.4297H39.527V55.1055H49.1247V58H36.0583ZM50.68 58L56.5511 49.0352L51.2308 40.8203H55.2855L58.7308 46.3398L62.1058 40.8203H66.1253L60.7816 49.1641L66.6527 58H62.4691L58.6605 52.0586L54.8402 58H50.68ZM72.6611 58V43.7266H67.5634V40.8203H81.2158V43.7266H76.1298V58H72.6611Z" fill="#F8F8F8"/>
</svg>
