<svg width="100" height="100" viewBox="0 0 100 100" fill="none" xmlns="http://www.w3.org/2000/svg">
<rect width="100" height="100" fill="#1E1C4F"/>
<path d="M50.3581 33.56C54.6549 33.56 58.1381 30.0768 58.1381 25.78C58.1381 21.4832 54.6549 18 50.3581 18C46.0613 18 42.5781 21.4832 42.5781 25.78C42.5781 30.0768 46.0613 33.56 50.3581 33.56Z" fill="#ED2236"/>
<path d="M50.068 54.39L31.943 81.85C31.9273 81.8743 31.9059 81.8943 31.8806 81.9083C31.8553 81.9223 31.8269 81.9297 31.798 81.93H20.173C20.1417 81.9297 20.1111 81.921 20.0843 81.9047C20.0575 81.8885 20.0356 81.8654 20.0208 81.8379C20.006 81.8103 19.9989 81.7792 20.0001 81.748C20.0014 81.7167 20.011 81.6863 20.028 81.6601L50.068 36.05C50.084 36.0263 50.1057 36.0069 50.1309 35.9935C50.1562 35.98 50.1844 35.973 50.213 35.973C50.2417 35.973 50.2698 35.98 50.2951 35.9935C50.3204 36.0069 50.342 36.0263 50.358 36.05L80.408 81.6601C80.425 81.6863 80.4346 81.7167 80.4359 81.748C80.4372 81.7792 80.43 81.8103 80.4152 81.8379C80.4004 81.8654 80.3785 81.8885 80.3517 81.9047C80.325 81.921 80.2943 81.9297 80.263 81.93H68.628C68.5991 81.9297 68.5708 81.9223 68.5455 81.9083C68.5201 81.8943 68.4987 81.8743 68.483 81.85L50.358 54.39C50.342 54.3663 50.3204 54.3469 50.2951 54.3335C50.2698 54.32 50.2417 54.313 50.213 54.313C50.1844 54.313 50.1562 54.32 50.1309 54.3335C50.1057 54.3469 50.084 54.3663 50.068 54.39Z" fill="#ED2236"/>
</svg>
