<svg width="100" height="100" viewBox="0 0 100 100" fill="none" xmlns="http://www.w3.org/2000/svg">
<rect width="100" height="100" fill="#22523C"/>
<path d="M65.0285 35.3631C64.9698 43.1819 64.9523 51.0075 64.976 58.84C64.9835 61.6413 63.6129 63.5482 60.7329 64.1275L57.5323 64.1332C57.481 64.1332 57.4554 64.1069 57.4554 64.0544L57.4779 62.0819C57.4779 62.0319 57.5029 62.0069 57.5529 62.0069C59.426 62.035 61.8073 62.3369 62.6229 60.4506C62.8129 60.0119 62.9079 59.2431 62.9079 58.1444C62.9092 48.2344 62.9085 38.3256 62.906 28.4181C62.9048 27.2356 62.8773 26.525 62.8235 26.2863C62.3942 24.3963 60.8229 24.115 59.111 24.1131C49.1898 24.1106 39.2691 24.1119 29.3491 24.1169C26.8085 24.1188 25.781 24.9813 25.781 27.5538C25.781 31.9038 25.7829 36.2525 25.7866 40.6C25.7866 40.6713 25.751 40.7069 25.6798 40.7069L23.741 40.705C23.7107 40.705 23.6816 40.6932 23.6601 40.6721C23.6387 40.651 23.6266 40.6223 23.6266 40.5925C23.6254 36.7588 23.626 32.9163 23.6285 29.065C23.6285 27.5406 23.4073 26.0819 24.1404 24.6625C25.1191 22.7688 26.726 22 28.8035 22C39.4848 22.005 50.1654 22.0056 60.8454 22.0019C61.5667 22.0019 62.3104 22.3038 63.0767 22.9075C64.3692 23.925 65.026 25.2681 65.0473 26.9369C65.081 29.7394 65.0748 32.5481 65.0285 35.3631Z" fill="#EDDDBD"/>
<path d="M60.9805 40.4612L52.5242 35.4249C52.5129 35.4186 52.5041 35.4086 52.4991 35.3966C52.4941 35.3846 52.4933 35.3713 52.4967 35.3588C52.5002 35.3463 52.5077 35.3353 52.5181 35.3276C52.5285 35.3199 52.5413 35.3159 52.5542 35.3162H61.0274C61.0428 35.3162 61.0576 35.3223 61.0685 35.3332C61.0794 35.3441 61.0855 35.3589 61.0855 35.3743L61.0686 40.4124C61.0684 40.4226 61.0656 40.4326 61.0603 40.4414C61.055 40.4501 61.0476 40.4573 61.0386 40.4623C61.0297 40.4672 61.0196 40.4697 61.0094 40.4695C60.9992 40.4693 60.9892 40.4665 60.9805 40.4612Z" fill="#02A75B"/>
<path d="M60.7329 64.1275C63.6129 63.5481 64.9835 61.6412 64.976 58.84C64.9523 51.0075 64.9698 43.1818 65.0285 35.3631L77.3248 35.3612C77.3948 35.3612 77.446 35.3925 77.4785 35.455L88.3311 56.4812C88.3811 56.5775 88.3598 56.5981 88.2673 56.5431L79.7979 51.4712C79.7142 51.4212 79.6467 51.4381 79.5954 51.5218C78.1254 53.9306 76.6323 56.3212 75.116 58.6937C72.8717 62.2075 69.8192 64.1406 65.4992 64.1181C63.3129 64.1056 61.7242 64.1087 60.7329 64.1275Z" fill="#02A75B"/>
<path d="M31.3536 71.0538L31.3742 72.7207C31.3755 72.7832 31.3448 72.8144 31.2823 72.8144C26.3861 72.8194 21.4905 72.8194 16.5955 72.8144C13.8392 72.8125 12.0092 70.2494 12.0073 67.6957C12.0011 61.3807 11.9986 55.0669 11.9998 48.7544C12.0011 47.2369 12.0973 46.1663 12.2886 45.5425C13.1511 42.7319 15.4292 42.1525 18.1348 42.1563C24.5748 42.1638 31.0142 42.1681 37.453 42.1694C40.8242 42.1713 42.7273 44.3538 42.7461 47.5994C42.7561 49.3756 42.7567 51.1519 42.748 52.9281C42.748 52.9931 42.7161 53.0275 42.6523 53.0313L40.7342 53.1363C40.7152 53.1373 40.6962 53.1344 40.6784 53.1278C40.6605 53.1212 40.6442 53.1109 40.6305 53.0977C40.6168 53.0846 40.606 53.0687 40.5986 53.0511C40.5913 53.0336 40.5877 53.0147 40.588 52.9956C40.608 51.3506 40.6048 49.7119 40.5786 48.0794C40.5336 45.2013 39.6317 44.3294 36.8042 44.3238C30.9105 44.31 25.0155 44.31 19.1192 44.3238C15.2717 44.3313 14.1655 44.5675 14.1617 48.5819C14.1567 54.9594 14.1561 61.3332 14.1598 67.7032C14.1617 70.3319 16.0217 70.7032 18.2811 70.705C22.5573 70.7075 26.8342 70.7082 31.1117 70.7069C31.1725 70.707 31.2315 70.7263 31.2802 70.7621C31.3288 70.7979 31.3644 70.8482 31.3817 70.9057C31.3855 70.9194 31.3823 70.9394 31.3723 70.9657C31.3598 70.9932 31.3536 71.0225 31.3536 71.0538Z" fill="#EDDDBD"/>
<path d="M55.4134 74.1687C55.4126 74.6094 55.3251 75.0457 55.1557 75.4526C54.9863 75.8595 54.7385 76.2291 54.4263 76.5402C54.1141 76.8513 53.7436 77.0979 53.3361 77.2658C52.9286 77.4338 52.4921 77.5198 52.0513 77.5191L36.7176 77.4923C35.8274 77.4907 34.9744 77.1356 34.3461 76.5051C33.7178 75.8746 33.3656 75.0203 33.3672 74.1302L33.394 58.7852C33.3947 58.3445 33.4823 57.9082 33.6517 57.5013C33.8211 57.0944 34.0689 56.7248 34.3811 56.4137C34.6933 56.1026 35.0637 55.856 35.4712 55.6881C35.8787 55.5201 36.3153 55.4341 36.7561 55.4348L52.0898 55.4616C52.9799 55.4631 53.833 55.8182 54.4613 56.4488C55.0896 57.0793 55.4417 57.9336 55.4402 58.8237L55.4134 74.1687ZM53.5914 58.8992C53.5917 58.7034 53.5535 58.5095 53.4789 58.3286C53.4043 58.1476 53.2948 57.9831 53.1566 57.8444C53.0184 57.7057 52.8543 57.5957 52.6736 57.5204C52.4929 57.4452 52.2991 57.4063 52.1033 57.406L36.7584 57.3792C36.363 57.3785 35.9836 57.5349 35.7036 57.814C35.4235 58.093 35.2658 58.4719 35.2651 58.8672L35.2385 74.1222C35.2382 74.3179 35.2764 74.5118 35.351 74.6928C35.4256 74.8738 35.5351 75.0383 35.6733 75.177C35.8114 75.3156 35.9756 75.4257 36.1563 75.501C36.337 75.5762 36.5308 75.6151 36.7265 75.6154L52.0715 75.6422C52.4669 75.6429 52.8463 75.4865 53.1263 75.2074C53.4063 74.9284 53.5641 74.5495 53.5647 74.1542L53.5914 58.8992Z" fill="#EDDDBD"/>
</svg>
