<svg width="100" height="100" viewBox="0 0 100 100" fill="none" xmlns="http://www.w3.org/2000/svg">
<rect width="100" height="100" fill="#08558F"/>
<path d="M50.23 31.4401C56.3433 39.9734 59.8933 49.7134 60.88 60.6601L60.96 81.8501C60.96 82.1634 60.8033 82.3201 60.49 82.3201H40.02C39.89 82.3201 39.7654 82.2695 39.6735 82.1795C39.5816 82.0895 39.53 81.9674 39.53 81.8401C39.45 74.2501 40.78 62.6201 38.65 55.7801C36.03 47.3501 26.74 41.9101 18.57 39.5801C18.19 39.4668 18 39.2134 18 38.8201V18.8201C18 18.3934 18.2133 18.1734 18.64 18.1601C31.32 17.7934 41.85 22.2201 50.23 31.4401Z" fill="#2EABDF"/>
<path d="M60.88 60.6601C59.8933 49.7134 56.3433 39.9734 50.23 31.4401C58.1566 22.7001 68.4766 18.22 81.19 18C81.3274 17.9987 81.4637 18.0244 81.5911 18.0756C81.7184 18.1267 81.8342 18.2024 81.9319 18.2982C82.0295 18.394 82.107 18.5079 82.1599 18.6336C82.2128 18.7592 82.24 18.8939 82.24 19.03L82.27 38.8901C82.27 39.1901 82.1266 39.3867 81.84 39.4801C71.48 42.8001 61.86 48.9801 60.88 60.6601Z" fill="#D6DF27"/>
</svg>
