<svg width="100" height="100" viewBox="0 0 100 100" fill="none" xmlns="http://www.w3.org/2000/svg">
<rect width="100" height="100" fill="#E2FEFF"/>
<path d="M36.4338 24.1C34.5261 22.7647 36.4732 19.9603 38.633 21.4009C40.9397 22.9416 42.7303 24.2199 44.005 25.2358C44.9237 25.9682 45.2066 26.9614 45.2241 28.1959C45.2431 29.6738 45.2278 31.1509 45.1781 32.6273C45.1751 32.7121 45.132 32.7508 45.0487 32.7435L41.7312 32.4475C41.6729 32.4424 41.6187 32.4149 41.5803 32.3707C41.5418 32.3266 41.522 32.2692 41.5251 32.2107L41.7224 28.2376C41.7285 28.1172 41.7042 27.9973 41.6517 27.8888C41.5992 27.7804 41.5202 27.6869 41.4221 27.6171C39.7893 26.4579 38.1265 25.2855 36.4338 24.1Z" fill="#33BCC3"/>
<path d="M40.2686 40.5516L60.4016 43.6345C60.501 43.6491 60.5448 43.7061 60.5331 43.8055L59.1781 54.8083C59.172 54.8563 59.1495 54.9008 59.1143 54.934C59.0791 54.9672 59.0334 54.9871 58.9851 54.9903L55.8101 55.1745C55.7966 55.1753 55.7831 55.1728 55.7707 55.1671C55.7584 55.1614 55.7478 55.1527 55.7397 55.1418C55.7316 55.1309 55.7264 55.1181 55.7245 55.1047C55.7227 55.0912 55.7242 55.0775 55.729 55.0648C56.6324 52.6514 56.4774 50.3207 55.2642 48.0724C55.2494 48.0463 55.2458 48.0154 55.254 47.9862C55.2622 47.9571 55.2816 47.9321 55.308 47.9168C56.8385 47.0353 57.6783 45.7044 57.8274 43.9239C57.8332 43.8494 57.7981 43.8121 57.7221 43.8121C55.0047 43.8092 52.2902 43.8077 49.5786 43.8077C47.7792 43.8063 46.495 43.9166 45.7261 44.1388C43.8053 44.6936 42.1893 45.8951 41.1018 47.5988C39.4558 50.1803 39.3484 52.9825 40.7795 56.0055C40.7852 56.0178 40.7878 56.0313 40.7872 56.0448C40.7865 56.0584 40.7826 56.0716 40.7756 56.0832C40.7687 56.0949 40.7591 56.1047 40.7475 56.1118C40.7359 56.1189 40.7228 56.123 40.7093 56.1239L37.7317 56.2883C37.7125 56.2895 37.6933 56.2868 37.6753 56.2803C37.6572 56.2738 37.6407 56.2636 37.6267 56.2505C37.6127 56.2373 37.6016 56.2214 37.594 56.2038C37.5864 56.1862 37.5825 56.1672 37.5826 56.148L37.5431 40.3916C37.5431 40.3272 37.5131 40.2841 37.4532 40.2622C36.2472 39.8083 35.289 39.6746 35.7539 38.0059C36.1588 36.5515 36.6295 35.1204 37.166 33.7127C37.5562 32.6887 38.0496 32.5462 39.0823 32.6273C46.0418 33.1682 52.9984 33.7427 59.9521 34.3508C62.6644 34.5876 62.364 38.4774 62.3267 40.4683C62.2916 42.343 61.0966 42.5645 59.4763 42.4C54.2285 41.8679 48.9778 41.3541 43.7242 40.8586C42.8888 40.7818 41.4329 40.5626 40.2773 40.4661C40.2661 40.4644 40.2548 40.4672 40.246 40.474C40.2372 40.4808 40.2316 40.4909 40.2304 40.5023C40.2292 40.5136 40.2326 40.5252 40.2398 40.5344C40.2469 40.5437 40.2573 40.5499 40.2686 40.5516Z" fill="#EC4445"/>
<path d="M12.7816 49.6819C12.748 50.768 12.7633 51.8519 12.8276 52.9336C12.9175 54.4728 13.5863 55.1416 15.1014 55.0911C18.1909 54.9881 20.6335 56.9111 20.855 60.1058C20.8594 60.1715 20.8287 60.2052 20.7629 60.2066C18.9693 60.2578 16.8899 60.2702 14.5248 60.2439C10.7972 60.2022 7.79549 58.014 7.06972 54.2821C6.90893 53.4518 6.89066 51.9191 7.01491 49.684C7.0158 49.6688 7.01358 49.6536 7.00836 49.6392C7.00314 49.6249 6.99505 49.6118 6.98457 49.6007C6.9741 49.5896 6.96146 49.5808 6.94745 49.5747C6.93343 49.5687 6.91834 49.5656 6.90308 49.5656H4.10963C4.03654 49.5656 4 49.5291 4 49.456V43.9195C4 43.8465 4.03654 43.8099 4.10963 43.8099H6.85923C6.93816 43.8099 6.97763 43.7704 6.97763 43.6915L6.8987 34.4955C6.8984 34.4806 6.90108 34.4658 6.90657 34.452C6.91206 34.4382 6.92025 34.4256 6.93066 34.415C6.94108 34.4044 6.9535 34.3959 6.96722 34.3902C6.98093 34.3844 6.99565 34.3815 7.01052 34.3815H12.5426C12.6552 34.3815 12.7114 34.4377 12.7114 34.5503L12.7246 43.6016C12.7246 43.7127 12.7801 43.769 12.8912 43.7704L18.4167 43.8253C18.4811 43.8253 18.5117 43.8574 18.5088 43.9217C18.3926 47.0638 15.9982 49.3902 12.8978 49.5613C12.8218 49.5656 12.7831 49.6058 12.7816 49.6819Z" fill="#231F20"/>
<path d="M84.5254 54.6153V59.6803C84.5254 59.7059 84.5152 59.7304 84.4971 59.7485C84.479 59.7666 84.4545 59.7768 84.4289 59.7768L78.8289 59.8228C78.7986 59.8228 78.7696 59.8111 78.7482 59.7901C78.7269 59.7691 78.7148 59.7407 78.7148 59.711V34.434C78.7148 34.3522 78.7558 34.3156 78.8376 34.3244C81.71 34.6562 83.5117 36.0639 84.2425 38.5475C84.4399 39.2169 84.5364 40.2146 84.532 41.5404C84.5203 44.3894 84.5195 47.2319 84.5298 50.0677C84.5302 50.0782 84.5337 50.0884 84.5399 50.0969C84.5461 50.1054 84.5547 50.1118 84.5647 50.1154C84.5746 50.1189 84.5853 50.1194 84.5955 50.1168C84.6057 50.1141 84.6149 50.1085 84.6219 50.1006L88.6936 45.0662C88.7506 44.9961 88.8237 44.961 88.9129 44.961H95.64C95.7657 44.961 95.7876 45.0085 95.7058 45.1035L89.6014 52.291C89.5833 52.3123 89.5735 52.3395 89.5739 52.3677C89.5743 52.3959 89.5848 52.4231 89.6036 52.4445L95.9842 59.6409C96.0529 59.7183 96.0361 59.7571 95.9338 59.7571L89.233 59.7878C89.1843 59.7877 89.1361 59.7769 89.0918 59.7561C89.0474 59.7352 89.0081 59.7049 88.9765 59.6672L84.6679 54.5648C84.5729 54.4508 84.5254 54.4676 84.5254 54.6153Z" fill="#231F20"/>
<path d="M76.281 52.9752C76.1889 61.6844 63.3706 62.8443 61.1495 55.238C60.9594 54.5861 60.86 53.4152 60.8513 51.7254C60.8381 49.122 60.8374 46.52 60.8491 43.9195C60.8496 43.8902 60.8615 43.8624 60.882 43.8419C60.9025 43.8214 60.93 43.8099 60.9587 43.8099H66.5434C66.618 43.8099 66.6552 43.8471 66.6552 43.9217C66.6538 46.9388 66.6582 49.9515 66.6684 52.9598C66.675 55.431 69.771 55.9967 70.4376 53.5672C70.8213 52.1639 70.2293 50.0655 70.6174 48.4802C71.3132 45.6312 73.1557 44.0584 76.1451 43.7616C76.1638 43.7598 76.1827 43.7619 76.2006 43.7678C76.2185 43.7736 76.235 43.7832 76.249 43.7957C76.263 43.8083 76.2743 43.8237 76.2821 43.8408C76.2898 43.858 76.294 43.8765 76.2942 43.8954C76.3176 46.9183 76.3132 49.9449 76.281 52.9752Z" fill="#231F20"/>
<path d="M25.7027 53.9092C27.0643 56.023 29.0575 55.4244 31.1756 55.5998C33.7366 55.8125 35.4206 57.5227 35.6574 60.121C35.6647 60.2014 35.6281 60.2424 35.5477 60.2438C33.2425 60.2658 30.9497 60.2716 28.6694 60.2614C22.429 60.2329 18.4384 53.6856 21.3941 48.0746C24.1569 42.8341 31.5461 42.3539 35.2057 46.9958C36.6514 48.8288 37.1878 51.0361 36.8151 53.6176C36.8019 53.7053 36.7508 53.7492 36.6616 53.7492L25.7685 53.7886C25.6734 53.7886 25.6515 53.8288 25.7027 53.9092ZM31.7018 50.2628C30.4476 47.8882 26.9108 47.9803 25.6369 50.2716C25.5931 50.3491 25.6157 50.3878 25.7049 50.3878H31.6273C31.7223 50.3878 31.7471 50.3462 31.7018 50.2628Z" fill="#231F20"/>
<path d="M48.0507 55.5691C50.01 55.5691 51.5984 53.9807 51.5984 52.0214C51.5984 50.062 50.01 48.4736 48.0507 48.4736C46.0913 48.4736 44.5029 50.062 44.5029 52.0214C44.5029 53.9807 46.0913 55.5691 48.0507 55.5691Z" fill="#EC4445"/>
<path d="M47.8135 61.3006C47.7285 61.2927 47.6471 61.263 47.5772 61.2146C47.5072 61.1662 47.4512 61.1007 47.4144 61.0243C47.3048 60.8007 47.3245 60.6026 47.4736 60.4301C47.5292 60.3643 47.6001 60.3285 47.6863 60.3227C50.9687 60.0771 53.4662 59.0005 55.2356 56.1259C55.2736 56.0645 55.3277 56.0317 55.3979 56.0273L58.9281 55.7773C58.9895 55.7729 59.0165 55.8007 59.0092 55.8606C58.2198 63.1987 57.5467 69.1898 56.9898 73.8339C56.81 75.338 56.2157 77.5899 54.5055 78.0131C53.5297 78.2565 52.6812 77.7653 52.622 76.7106C52.6206 76.6763 52.627 76.6419 52.6406 76.6101C52.6543 76.5782 52.6749 76.5497 52.7009 76.5264C53.2118 76.077 53.7907 75.645 54.2051 75.1582C58.0905 70.6194 56.3955 63.6994 50.7187 61.7172C49.8483 61.4124 48.7848 61.3883 47.8135 61.3006Z" fill="#33BCC3"/>
<path d="M39.5033 70.2182C38.3039 70.6414 37.5737 69.5254 37.5628 68.4729C37.5262 64.7161 37.5328 60.9477 37.5825 57.1675C37.584 57.0827 37.6271 57.0374 37.7119 57.0316L41.1653 56.7838C41.2457 56.778 41.3108 56.8072 41.3605 56.8715C41.8867 57.5512 42.4933 58.1491 43.1804 58.6651C43.2535 58.7192 43.2564 58.7784 43.1891 58.8427C42.0767 59.8981 41.6711 61.0529 41.9722 62.3071C42.5664 64.7848 45.316 66.061 47.7477 66.0631C49.1707 66.0675 50.4578 66.6793 51.166 67.9269C53.0627 71.2619 48.8374 74.8404 45.8269 72.3977C44.2921 71.1523 44.1057 69.1373 45.1801 67.484C45.2149 67.43 45.2372 67.369 45.2452 67.3052C45.2532 67.2415 45.2467 67.1768 45.2263 67.116C45.2058 67.0551 45.1719 66.9996 45.1271 66.9536C45.0823 66.9076 45.0277 66.8723 44.9674 66.8503C43.7848 66.4205 42.7506 65.7584 41.8648 64.8638C41.8212 64.8201 41.7685 64.7867 41.7104 64.766C41.6523 64.7453 41.5903 64.7378 41.529 64.7441C41.4676 64.7504 41.4085 64.7704 41.3558 64.8024C41.3031 64.8345 41.2583 64.8779 41.2245 64.9295C40.2203 66.4629 39.7211 68.1023 39.7269 69.8477C39.7284 70.0421 39.6538 70.1656 39.5033 70.2182Z" fill="#33BCC3"/>
</svg>
