<svg width="100" height="100" viewBox="0 0 100 100" fill="none" xmlns="http://www.w3.org/2000/svg">
<rect width="100" height="100" fill="#3D5C74"/>
<path d="M53.3407 67.7255L59.4832 73.8155C59.5263 73.8584 59.5774 73.8922 59.6337 73.915C59.69 73.9379 59.7503 73.9493 59.811 73.9486C59.8718 73.9479 59.9318 73.9351 59.9875 73.9109C60.0432 73.8868 60.0936 73.8518 60.1357 73.808L66.5857 67.088C66.6705 67.0018 66.7858 66.9527 66.9067 66.9513C67.0275 66.9499 67.144 66.9963 67.2307 67.0805L71.9408 71.6405C71.9846 71.6826 72.0195 71.733 72.0437 71.7887C72.0678 71.8445 72.0806 71.9045 72.0813 71.9652C72.082 72.0259 72.0706 72.0862 72.0477 72.1425C72.0249 72.1988 71.9911 72.25 71.9483 72.293L50.6932 93.2705C50.6075 93.3557 50.4915 93.4035 50.3707 93.4035C50.2498 93.4035 50.1339 93.3557 50.0482 93.2705L38.5206 81.773C38.4354 81.6873 38.3876 81.5714 38.3876 81.4505C38.3876 81.3297 38.4354 81.2137 38.5206 81.128L42.9981 76.658C43.0839 76.5728 43.1998 76.525 43.3206 76.525C43.4415 76.525 43.5574 76.5728 43.6431 76.658L50.2957 83.3255C50.3814 83.4107 50.4973 83.4585 50.6182 83.4585C50.739 83.4585 50.855 83.4107 50.9407 83.3255L57.0232 77.258C57.1084 77.1723 57.1562 77.0564 57.1562 76.9355C57.1562 76.8147 57.1084 76.6987 57.0232 76.613L33.5481 53.153C33.4627 53.0701 33.3484 53.0237 33.2294 53.0237C33.1103 53.0237 32.996 53.0701 32.9106 53.153L26.7006 59.1455C26.6568 59.1876 26.6218 59.238 26.5977 59.2937C26.5735 59.3495 26.5607 59.4095 26.56 59.4702C26.5593 59.5309 26.5707 59.5912 26.5936 59.6475C26.6164 59.7038 26.6502 59.7549 26.6931 59.798L33.3906 66.488C33.4758 66.5737 33.5236 66.6897 33.5236 66.8105C33.5236 66.9314 33.4758 67.0473 33.3906 67.133L28.8831 71.648C28.7974 71.7332 28.6814 71.781 28.5606 71.781C28.4397 71.781 28.3238 71.7332 28.2381 71.648L7.133 50.543C7.04781 50.4573 7 50.3414 7 50.2205C7 50.0997 7.04781 49.9837 7.133 49.898L18.668 38.3555C18.7538 38.2703 18.8697 38.2225 18.9905 38.2225C19.1114 38.2225 19.2273 38.2703 19.313 38.3555L23.8281 42.863C23.9133 42.9487 23.9611 43.0647 23.9611 43.1855C23.9611 43.3064 23.9133 43.4223 23.8281 43.508L17.168 50.1755C17.0829 50.2612 17.035 50.3772 17.035 50.498C17.035 50.6189 17.0829 50.7348 17.168 50.8205L23.2656 56.933C23.3513 57.0182 23.4672 57.066 23.5881 57.066C23.7089 57.066 23.8249 57.0182 23.9106 56.933L47.4532 33.3905C47.5383 33.3048 47.5862 33.1889 47.5862 33.068C47.5862 32.9472 47.5383 32.8312 47.4532 32.7455L41.3481 26.633C41.2624 26.5478 41.1465 26.5 41.0256 26.5C40.9048 26.5 40.7888 26.5478 40.7031 26.633L34.0206 33.3155C33.9339 33.3997 33.8174 33.4462 33.6966 33.4448C33.5757 33.4434 33.4603 33.3942 33.3756 33.308L28.8756 28.733C28.7904 28.6473 28.7426 28.5314 28.7426 28.4105C28.7426 28.2897 28.7904 28.1737 28.8756 28.088L50.0707 7.133C50.1564 7.04781 50.2723 7 50.3932 7C50.514 7 50.63 7.04781 50.7157 7.133L62.2657 18.683C62.3509 18.7687 62.3987 18.8847 62.3987 19.0055C62.3987 19.1264 62.3509 19.2423 62.2657 19.328L57.7507 23.828C57.665 23.9132 57.549 23.961 57.4282 23.961C57.3074 23.961 57.1914 23.9132 57.1057 23.828L50.4382 17.168C50.3525 17.0828 50.2365 17.035 50.1157 17.035C49.9948 17.035 49.8789 17.0828 49.7932 17.168L43.7856 23.183C43.7005 23.2687 43.6526 23.3847 43.6526 23.5055C43.6526 23.6264 43.7005 23.7423 43.7856 23.828L67.2307 47.2655C67.3165 47.3507 67.4324 47.3985 67.5532 47.3985C67.6741 47.3985 67.79 47.3507 67.8757 47.2655L73.9658 41.2205C74.0509 41.1348 74.0988 41.0189 74.0988 40.898C74.0988 40.7772 74.0509 40.6612 73.9658 40.5755L67.4032 33.9605C67.318 33.8748 67.2702 33.7589 67.2702 33.638C67.2702 33.5172 67.318 33.4012 67.4032 33.3155L71.9108 28.808C71.9965 28.7228 72.1124 28.675 72.2333 28.675C72.3541 28.675 72.47 28.7228 72.5558 28.808L93.6758 49.8905C93.761 49.9762 93.8088 50.0922 93.8088 50.213C93.8088 50.3339 93.761 50.4498 93.6758 50.5355L82.1333 62.0855C82.0476 62.1707 81.9316 62.2185 81.8108 62.2185C81.6899 62.2185 81.574 62.1707 81.4883 62.0855L76.9733 57.5705C76.8881 57.4848 76.8403 57.3689 76.8403 57.248C76.8403 57.1272 76.8881 57.0112 76.9733 56.9255L83.5508 50.3555C83.636 50.2698 83.6838 50.1539 83.6838 50.033C83.6838 49.9122 83.636 49.7962 83.5508 49.7105L77.4608 43.628C77.3751 43.5428 77.2591 43.495 77.1383 43.495C77.0174 43.495 76.9015 43.5428 76.8158 43.628L53.3332 67.0805C53.249 67.1672 53.2025 67.2837 53.2039 67.4046C53.2053 67.5254 53.2545 67.6408 53.3407 67.7255Z" fill="white"/>
</svg>
