<svg width="100" height="100" viewBox="0 0 100 100" fill="none" xmlns="http://www.w3.org/2000/svg">
<rect width="100" height="100" fill="white"/>
<path d="M15 15.441L24.9967 20.3232V35.4345L15 29.1575V15.441Z" fill="#D9D9D9"/>
<path d="M84.7441 15.441L64.7507 27.8788V40.4328L84.7441 27.8788V15.441Z" fill="#266A7E"/>
<path d="M84.7441 40.5491L64.7507 52.9868V65.1921L84.7441 52.6381V40.5491Z" fill="#266A7E"/>
<path d="M84.7441 67.7495L64.7507 80.1873V92.6251L84.7441 80.1873V67.7495Z" fill="#266A7E"/>
<path d="M44.7572 67.7495L64.7506 80.1873V92.6251L39.5264 77.165L44.7572 67.7495Z" fill="#ABABAB"/>
<path d="M53.4759 56.8228L24.9969 74.1426V87.7428L63.5889 63.0998L53.4759 56.8228Z" fill="#266A7E"/>
<path d="M45.2226 42.9901L64.7511 52.9868V65.4246L37.7832 51.5919L45.2226 42.9901Z" fill="#ABABAB"/>
<path d="M51.6153 32.6447L24.9961 46.4773V60.1937L62.8906 38.8054L51.6153 32.6447Z" fill="#266A7E"/>
<path d="M46.8497 18.2308L64.7508 27.9951V40.4328L39.0615 26.7164L46.8497 18.2308Z" fill="#ABABAB"/>
<path d="M44.7575 13L24.9966 20.3232V35.4345L64.751 13H44.7575Z" fill="#266A7E"/>
<path d="M15 40.4329L24.9967 46.5936V60.1938L15 54.033V40.4329Z" fill="#D9D9D9"/>
<path d="M15 67.7495L24.9967 74.1428V87.7429L15 81.5822V67.7495Z" fill="#D9D9D9"/>
</svg>
