<svg width="100" height="100" viewBox="0 0 100 100" fill="none" xmlns="http://www.w3.org/2000/svg">
<rect width="100" height="100" fill="#E9FFD7"/>
<path d="M54.1461 14.0196C54.2009 14.0055 54.2593 14.0041 54.3212 14.0154C54.334 14.0179 54.346 14.0239 54.3558 14.0325C54.3656 14.0412 54.3729 14.0524 54.377 14.0648C54.3811 14.0773 54.3818 14.0906 54.379 14.1034C54.3763 14.1162 54.3701 14.1281 54.3613 14.1377C54.0336 14.4949 53.7263 14.8788 53.4395 15.2895C50.6931 19.2192 47.8159 24.9188 47.7146 29.6754C47.7146 29.6887 47.7123 29.7015 47.708 29.7131C47.7036 29.7247 47.6973 29.7348 47.6893 29.7429C47.6851 29.7471 47.6802 29.7513 47.6745 29.7556C47.6647 29.7626 47.6591 29.7598 47.6577 29.7471C47.4741 25.1698 45.2762 20.0651 42.7955 16.2619C42.3259 15.5419 41.7437 14.8395 41.049 14.1546C40.9815 14.0871 40.9955 14.0498 41.0912 14.0428C42.4306 13.9458 43.9831 14.0808 45.0927 14.0555C48.0669 13.9894 51.0418 13.9823 54.0174 14.0344C54.061 14.0358 54.1039 14.0309 54.1461 14.0196Z" fill="#4F792D"/>
<path d="M28.8821 15.1545C35.9064 18.3607 44.694 24.596 45.6601 33.0167C45.7093 33.4428 45.6271 33.4695 45.4133 33.0968C41.84 26.8489 34.0164 23.1828 27.0533 22.455C26.6103 22.4086 26.1632 22.3643 25.7117 22.3221C25.6231 22.3151 25.5971 22.2701 25.6337 22.1871L28.7007 15.222C28.7373 15.139 28.7978 15.1165 28.8821 15.1545Z" fill="#BFA301"/>
<path d="M50.0772 31.6709C51.539 24.0033 57.4431 18.0337 64.7015 15.4455C64.7507 15.4273 64.7915 15.4392 64.8238 15.4814L69.9686 22.1977C69.9771 22.2089 69.9821 22.2224 69.9832 22.2364C69.9843 22.2505 69.9813 22.2645 69.9747 22.2769C69.968 22.2894 69.958 22.2996 69.9457 22.3065C69.9334 22.3134 69.9194 22.3166 69.9053 22.3158C61.5754 21.858 54.1799 26.0241 50.0539 33.2845C50.0047 33.3703 49.9794 33.364 49.978 33.2655C49.9682 32.599 50.0012 32.0674 50.0772 31.6709Z" fill="#BFA301"/>
<path d="M31.5146 24.7458C37.4567 26.1718 42.3146 31.422 45.4428 36.4571C45.4437 36.4588 45.4439 36.4607 45.4436 36.4626C45.4432 36.4645 45.4422 36.4662 45.4407 36.4674C45.4392 36.4687 45.4374 36.4693 45.4354 36.4694C45.4335 36.4694 45.4316 36.4688 45.4301 36.4676C41.2915 32.4282 35.1195 29.5573 29.2744 30.4665C27.421 30.7547 25.313 31.294 22.9505 32.0843C22.8732 32.1111 22.8057 32.0956 22.748 32.0379L17.2615 26.5493C17.2495 26.5376 17.2403 26.5232 17.2347 26.5073C17.2291 26.4914 17.2273 26.4744 17.2293 26.4576C17.2314 26.4409 17.2372 26.4249 17.2465 26.4108C17.2557 26.3967 17.2681 26.3849 17.2826 26.3764C20.0206 24.7247 24.2435 24.4969 27.3296 24.3999C28.9482 24.3493 30.3432 24.4646 31.5146 24.7458Z" fill="#4F792D"/>
<path d="M50.0645 36.4824C52.5789 31.3419 60.0355 26.1528 65.5642 24.7395C66.5134 24.4962 67.6068 24.3816 68.8443 24.3957C72.5821 24.44 76.9148 24.6699 80.3594 26.3806C80.4353 26.4186 80.443 26.4671 80.3826 26.5262L74.8729 32.0358C74.8195 32.0907 74.7583 32.0998 74.6894 32.0633C71.77 30.5129 66.3763 29.667 63.2376 30.7449C58.6729 32.3129 54.3156 34.257 50.1658 36.5773C50.0308 36.6533 49.997 36.6216 50.0645 36.4824Z" fill="#4F792D"/>
<path d="M34.3517 34.451C38.9438 34.0144 43.1563 37.0941 45.2867 40.9226C45.35 41.0351 45.3233 41.0625 45.2066 41.0048C42.9271 39.8686 40.4942 39.1746 37.9081 38.9229C35.3474 38.674 31.7298 41.201 29.9621 42.8716C29.9296 42.9021 29.8878 42.9208 29.8434 42.9246C29.799 42.9285 29.7547 42.9172 29.7174 42.8927L23.6382 38.9419C23.6138 38.9261 23.5936 38.9046 23.5793 38.8793C23.5651 38.8539 23.5572 38.8255 23.5563 38.7964C23.5555 38.7674 23.5618 38.7385 23.5746 38.7124C23.5873 38.6863 23.6063 38.6637 23.6298 38.6466C26.9527 36.2152 30.5267 34.8166 34.3517 34.451Z" fill="#BFA301"/>
<path d="M58.9597 35.3286C63.9294 35.6829 67.8001 36.7693 71.0169 40.8256C71.0633 40.8833 71.0535 40.929 70.9874 40.9627L64.8681 43.9622C64.8425 43.9751 64.8133 43.9793 64.7849 43.9744C64.7565 43.9695 64.7302 43.9556 64.7099 43.9348C63.5455 42.7761 62.3607 41.625 61.1556 40.4818C59.3267 38.7479 57.5506 37.8767 55.089 38.6572C54.5631 38.8245 54.0027 39.1465 53.4078 39.6233C51.5291 41.1308 49.7783 42.7732 48.1555 44.5507C46.8673 45.9584 46.4462 47.5222 46.892 49.242C47.2548 50.6447 48.5014 52.1213 49.4042 53.3595C49.4134 53.3723 49.4197 53.3868 49.4229 53.4022C49.426 53.4175 49.4259 53.4334 49.4225 53.4487C49.4191 53.464 49.4126 53.4785 49.4032 53.4911C49.3939 53.5037 49.382 53.5142 49.3684 53.5219L44.8016 56.1186C44.7383 56.1551 44.6841 56.1446 44.6391 56.0869C42.6985 53.5936 41.7198 50.2925 43.0782 47.3731C43.3496 46.7895 43.8284 46.1293 44.5147 45.3924C46.8828 42.8457 49.2144 40.5542 51.5094 38.5179C53.5998 36.6617 56.1458 35.1282 58.9597 35.3286Z" fill="#4F792D"/>
<path d="M58.9239 41.161C58.9467 41.1611 58.9692 41.1667 58.9894 41.1773C59.0096 41.188 59.027 41.2034 59.0399 41.2222C67.2116 52.9489 75.3665 64.6721 83.5045 76.3918C84.0318 77.1533 83.9116 78.4758 83.8209 79.3618C83.8096 79.4701 83.7731 79.4792 83.7112 79.3892L57.1794 41.2623C57.1401 41.206 57.1548 41.1772 57.2237 41.1758L58.9239 41.161Z" fill="#BFA301"/>
<path d="M34.6112 43.302C35.0809 42.6115 35.5611 41.9253 36.0519 41.2432C36.0856 41.1954 36.132 41.1715 36.1911 41.1715H38.0853C38.202 41.1715 38.2266 41.2193 38.1591 41.3149L16.1773 72.5463C16.1155 72.6363 16.0782 72.6272 16.0655 72.5189C15.9833 71.749 15.8968 70.9285 16.3566 70.2471C22.4288 61.257 28.5137 52.2753 34.6112 43.302Z" fill="#BFA301"/>
<path d="M40.4289 41.1715H42.6564C42.6678 41.1718 42.6789 41.1751 42.6885 41.1812C42.6982 41.1873 42.706 41.1958 42.7112 41.206C42.7164 41.2162 42.7188 41.2275 42.718 41.2389C42.7173 41.2503 42.7135 41.2613 42.707 41.2707L20.4341 72.732C20.4282 72.7405 20.4203 72.7475 20.4111 72.7523C20.4019 72.757 20.3917 72.7595 20.3813 72.7594H18.4175C18.4059 72.7595 18.3945 72.7564 18.3846 72.7505C18.3746 72.7446 18.3665 72.7361 18.361 72.7258C18.3556 72.7156 18.3531 72.7041 18.3537 72.6925C18.3544 72.681 18.3582 72.6698 18.3648 72.6603L40.3761 41.1989C40.382 41.1904 40.3899 41.1834 40.3991 41.1786C40.4083 41.1739 40.4185 41.1714 40.4289 41.1715Z" fill="#BFA301"/>
<path d="M53.4247 41.1715H55.1565C55.1677 41.1713 55.1788 41.1739 55.1887 41.1791C55.1987 41.1842 55.2072 41.1918 55.2135 41.201L81.4963 79.4567C81.5033 79.4669 81.5073 79.4788 81.5079 79.4912C81.5086 79.5035 81.5058 79.5158 81.4999 79.5267C81.494 79.5376 81.4853 79.5467 81.4746 79.5529C81.4639 79.5592 81.4517 79.5624 81.4394 79.5621H79.6844C79.6732 79.5623 79.6621 79.5597 79.6522 79.5546C79.6422 79.5494 79.6337 79.5419 79.6274 79.5326L53.3678 41.277C53.3608 41.2668 53.3568 41.2548 53.3562 41.2425C53.3555 41.2301 53.3583 41.2178 53.3642 41.2069C53.3701 41.1961 53.3788 41.187 53.3895 41.1807C53.4002 41.1745 53.4124 41.1713 53.4247 41.1715Z" fill="#BFA301"/>
<path d="M43.5316 70.5341C41.9243 69.5891 40.1313 68.1779 39.2876 66.4862C38.7117 65.3303 39.007 64.3346 39.7791 63.1745C41.6311 60.388 44.9829 57.9601 47.7799 56.0785C49.9934 54.5893 52.1217 52.9862 54.165 51.2692C54.2185 51.2242 54.2536 51.1679 54.2705 51.1004C54.6185 49.6639 52.4691 46.078 51.6401 44.8377C51.5304 44.6746 51.5564 44.6492 51.7181 44.7617C53.4141 45.9367 56.73 48.6114 57.232 50.706C57.7657 52.9356 56.0845 54.4944 54.338 55.6967C50.5601 58.2976 46.7864 60.9554 43.5084 64.265C41.7956 65.9926 42.6563 68.5618 43.6245 70.4476C43.6315 70.4604 43.6341 70.4751 43.6318 70.4895C43.6295 70.5039 43.6225 70.5171 43.6118 70.5271C43.6011 70.537 43.5875 70.5431 43.5729 70.5444C43.5584 70.5456 43.5439 70.542 43.5316 70.5341Z" fill="#BFA301"/>
<path d="M31.7488 45.8185L16.171 68.0808C16.1621 68.094 16.1492 68.1039 16.1342 68.1092C16.1193 68.1144 16.103 68.1147 16.0878 68.11C16.0727 68.1052 16.0594 68.0957 16.0501 68.0829C16.0408 68.07 16.0358 68.0545 16.036 68.0386V63.7904C16.0358 63.7753 16.0403 63.7606 16.0487 63.7482L28.4349 45.7299C28.4416 45.7203 28.4504 45.7125 28.4607 45.707C28.4709 45.7015 28.4824 45.6985 28.494 45.6982L31.6876 45.7025C31.7011 45.7024 31.7144 45.706 31.7261 45.7129C31.7377 45.7199 31.7472 45.7299 31.7535 45.7419C31.7598 45.7538 31.7627 45.7673 31.7619 45.7808C31.761 45.7943 31.7565 45.8074 31.7488 45.8185Z" fill="#BFA301"/>
<path d="M66.8509 45.7067C66.8693 45.7074 66.8871 45.7121 66.9032 45.7205C66.9193 45.7289 66.9331 45.7408 66.9437 45.7552L83.7786 69.7135C83.8267 69.7822 83.8525 69.864 83.8525 69.9476V74.1832C83.8525 74.2746 83.8257 74.2824 83.7723 74.2064L64.1192 45.8185C64.1109 45.8065 64.106 45.7925 64.1051 45.778C64.1043 45.7634 64.1075 45.7489 64.1144 45.7359C64.1214 45.7229 64.1318 45.7119 64.1445 45.7042C64.1572 45.6964 64.1718 45.6922 64.1867 45.6919L66.8509 45.7067Z" fill="#BFA301"/>
<path d="M48.6428 61.6642C48.6325 61.6573 48.6241 61.648 48.6183 61.6371C48.6125 61.6263 48.6094 61.6142 48.6094 61.602C48.6094 61.5898 48.6125 61.578 48.6183 61.5674C48.6241 61.5569 48.6325 61.5481 48.6428 61.5418L54.1714 58.0592C54.2235 58.0269 54.2699 58.0325 54.3107 58.0761C56.6521 60.6031 56.3631 62.799 55.9307 66.4166C55.5847 69.2966 55.1059 72.1478 54.4942 74.9701C54.4913 74.983 54.4915 74.9964 54.4946 75.0092C54.4978 75.0221 54.5038 75.0341 54.5123 75.0444C54.5208 75.0547 54.5315 75.0631 54.5437 75.0688C54.5559 75.0746 54.5693 75.0776 54.5828 75.0777L70.15 75.0798C70.2259 75.0798 70.2646 75.1178 70.266 75.1937L70.3124 77.1491C70.3138 77.2461 70.266 77.2946 70.169 77.2946H16.1415C16.0712 77.2946 16.036 77.2595 16.036 77.1892V75.1874C16.036 75.1171 16.0705 75.0819 16.1394 75.0819L42.3906 75.0756C42.4595 75.0756 42.5185 75.051 42.5678 75.0017C44.6223 72.9402 46.4842 70.7183 48.1534 68.3361C48.9128 67.2505 49.4162 66.3807 49.6637 65.7268C50.1847 64.3431 49.978 62.5628 48.6428 61.6642Z" fill="#4F792D"/>
<path d="M72.4112 79.6022H18.4069C18.3499 79.6022 18.3036 79.6484 18.3036 79.7055V81.7263C18.3036 81.7834 18.3499 81.8297 18.4069 81.8297H72.4112C72.4683 81.8297 72.5146 81.7834 72.5146 81.7263V79.7055C72.5146 79.6484 72.4683 79.6022 72.4112 79.6022Z" fill="#4F792D"/>
<path d="M76.9928 84.0973H20.626C20.5957 84.0973 20.5712 84.1218 20.5712 84.1521V86.3079C20.5712 86.3382 20.5957 86.3628 20.626 86.3628H76.9928C77.0231 86.3628 77.0476 86.3382 77.0476 86.3079V84.1521C77.0476 84.1218 77.0231 84.0973 76.9928 84.0973Z" fill="#4F792D"/>
</svg>
