<svg width="100" height="100" viewBox="0 0 100 100" fill="none" xmlns="http://www.w3.org/2000/svg">
<rect width="100" height="100" fill="#595C62"/>
<path d="M21.0537 58V43.7266H15.9561V40.8203H29.6084V43.7266H24.5225V58H21.0537ZM32.2653 58V40.8203H35.7341V48.4492L42.7419 40.8203H47.4059L40.9372 47.5117L47.7575 58H43.2692L38.5466 49.9375L35.7341 52.8086V58H32.2653ZM57.9144 51.6836V48.7891H65.3909V55.6328C64.6644 56.3359 63.6097 56.957 62.2269 57.4961C60.8519 58.0273 59.4573 58.293 58.0433 58.293C56.2464 58.293 54.68 57.918 53.3441 57.168C52.0081 56.4102 51.0042 55.332 50.3323 53.9336C49.6605 52.5273 49.3245 51 49.3245 49.3516C49.3245 47.5625 49.6995 45.9727 50.4495 44.582C51.1995 43.1914 52.2972 42.125 53.7425 41.3828C54.8441 40.8125 56.2152 40.5273 57.8558 40.5273C59.9886 40.5273 61.6527 40.9766 62.848 41.875C64.0511 42.7656 64.8245 44 65.1683 45.5781L61.723 46.2227C61.4808 45.3789 61.0238 44.7148 60.3519 44.2305C59.6878 43.7383 58.8558 43.4922 57.8558 43.4922C56.3402 43.4922 55.1331 43.9727 54.2347 44.9336C53.3441 45.8945 52.8988 47.3203 52.8988 49.2109C52.8988 51.25 53.3519 52.7812 54.2581 53.8047C55.1644 54.8203 56.3519 55.3281 57.8206 55.3281C58.5472 55.3281 59.2738 55.1875 60.0003 54.9062C60.7347 54.6172 61.3636 54.2695 61.887 53.8633V51.6836H57.9144ZM84.4541 58H80.6806L79.1806 54.0977H72.3134L70.8955 58H67.2158L73.9072 40.8203H77.5752L84.4541 58ZM78.0673 51.2031L75.7002 44.8281L73.3798 51.2031H78.0673Z" fill="#F8F8F8"/>
</svg>
