<svg width="100" height="100" viewBox="0 0 100 100" fill="none" xmlns="http://www.w3.org/2000/svg">
<rect width="100" height="100" fill="#F6FFDB"/>
<path d="M54.8007 9.28181C55.3033 9.14689 55.7186 9.288 56.0466 9.70515C56.0731 9.73839 56.0855 9.78064 56.0814 9.82293C56.0772 9.86522 56.0567 9.90422 56.0243 9.93167L55.8795 10.0561C55.8126 10.1142 55.7477 10.1118 55.6845 10.0486L55.5341 9.89825C55.5137 9.87785 55.4891 9.86202 55.4619 9.85178C55.4347 9.84154 55.4055 9.83713 55.3763 9.83883C54.9134 9.86483 54.477 9.76951 54.0673 9.5529C54.0054 9.52071 53.9961 9.47677 54.0395 9.42107L54.2901 9.09985C54.331 9.04786 54.3842 9.0163 54.4498 9.00516C54.5996 8.9804 54.6782 9.04477 54.6856 9.19826C54.6893 9.27377 54.7277 9.30162 54.8007 9.28181Z" fill="#E57920"/>
<path d="M59.4091 10.5258C59.4212 10.5358 59.4308 10.5484 59.4372 10.5628C59.4435 10.5772 59.4464 10.5928 59.4457 10.6086C59.445 10.6244 59.4407 10.6399 59.433 10.6539C59.4254 10.6679 59.4147 10.68 59.4017 10.6892C59.3076 10.7561 59.195 10.7827 59.0637 10.7691C59.0167 10.7641 58.9713 10.7418 58.9366 10.7067C58.9019 10.6715 58.8804 10.626 58.8764 10.5792C58.8724 10.5324 58.8862 10.4878 58.9151 10.4541C58.944 10.4205 58.9858 10.4004 59.0322 10.3977C59.1733 10.3928 59.2989 10.4355 59.4091 10.5258Z" fill="#E57920"/>
<path d="M60.8999 11.5228L60.2315 11.2034C60.2193 11.1982 60.2094 11.1888 60.2035 11.177C60.1975 11.1653 60.196 11.1517 60.199 11.1386C60.2021 11.1256 60.2095 11.1138 60.2202 11.1054C60.2308 11.0969 60.244 11.0922 60.2575 11.092C60.541 11.0933 60.7823 11.1991 60.9816 11.4095C60.9938 11.4213 61.0014 11.4371 61.0029 11.454C61.0044 11.4709 60.9997 11.4878 60.9898 11.5015C60.9799 11.5153 60.9653 11.525 60.9488 11.5289C60.9323 11.5328 60.915 11.5306 60.8999 11.5228Z" fill="#E57920"/>
<path d="M58.8894 13.6469L57.4931 12.3119C57.4696 12.2897 57.4727 12.2729 57.5024 12.2618C58.3769 11.9276 58.7631 12.9377 58.9581 13.6061C58.9866 13.7051 58.9637 13.7187 58.8894 13.6469Z" fill="#E57920"/>
<path d="M66.3501 18.5598C66.2696 18.5561 66.2009 18.5852 66.1439 18.6471C66.1145 18.6791 66.0775 18.703 66.0363 18.7167C65.995 18.7304 65.951 18.7334 65.9083 18.7255C65.8656 18.7175 65.8256 18.6988 65.7922 18.6711C65.7587 18.6434 65.7328 18.6077 65.7169 18.5673C65.4867 17.9731 65.5944 17.1376 64.8257 17.0447C64.1684 16.9668 63.7748 16.7272 63.3886 16.1442C62.813 15.2728 62.1872 14.4533 61.5114 13.6859C61.4931 13.6654 61.4798 13.641 61.4725 13.6145C61.4652 13.5881 61.4641 13.5603 61.4693 13.5333C61.4745 13.5063 61.4859 13.4809 61.5025 13.4591C61.5192 13.4373 61.5406 13.4196 61.5652 13.4074C62.1284 13.1313 62.6855 13.1536 63.2363 13.4742C64.2266 14.0511 65.2249 14.6112 66.2312 15.1546C66.2583 15.1696 66.2815 15.1907 66.2989 15.2162C66.3163 15.2417 66.3274 15.2708 66.3315 15.3013C66.3575 15.5104 66.4862 15.5891 66.7177 15.5371C66.7617 15.5263 66.809 15.5337 66.8495 15.5575L68.6598 16.5991C68.7168 16.6313 68.7601 16.6765 68.7898 16.7347C69.0683 17.2787 69.5325 17.2137 69.928 17.4514C76.5714 21.4433 80.8605 28.1462 83.4933 35.1776C85.1495 39.6022 84.5517 43.5181 84.262 47.9501C84.1376 49.8681 84.4495 51.7602 83.8981 53.6002C83.6289 54.497 82.2066 58.0118 81.0907 58.6691C79.0631 59.8648 75.929 57.1688 75.8083 55.0967C75.7947 54.8529 75.8615 54.463 76.0088 53.927C76.2044 53.2189 76.3022 52.4942 76.3022 51.7527C76.3022 51.697 76.3275 51.6791 76.3783 51.6989C76.6902 51.8177 76.9341 51.7218 77.1098 51.4111C77.7467 50.2822 77.6873 49.261 77.0114 48.1897C75.0396 45.0703 77.7411 42.625 76.9075 39.8399C76.6791 39.0786 76.7849 38.323 76.5361 37.584C75.4462 34.3328 74.1558 29.7151 71.8181 26.7945C71.5087 26.4083 71.2568 26.079 71.0625 25.8067C70.1564 24.5348 70.329 22.9232 68.7712 22.0876C67.6758 21.4997 66.8712 20.6258 66.3575 19.4659C66.3538 19.4562 66.3536 19.4454 66.3569 19.4354C66.3601 19.4254 66.3667 19.4168 66.3754 19.4113C66.384 19.4057 66.3943 19.4035 66.4043 19.405C66.4142 19.4065 66.4233 19.4116 66.4299 19.4195L67.997 21.2447C68.0169 21.2675 68.0432 21.2837 68.0725 21.2914C68.1018 21.299 68.1327 21.2976 68.1611 21.2873C68.1896 21.2771 68.2143 21.2585 68.2321 21.234C68.2499 21.2095 68.2598 21.1802 68.2606 21.15C68.2699 20.7322 68.2384 19.828 67.6238 19.841C66.8625 19.8577 66.7437 19.2357 66.4763 18.649C66.4516 18.5933 66.4095 18.5635 66.3501 18.5598ZM61.931 13.8066C62.2603 14.0294 62.6242 14.1569 63.0228 14.1891C63.0531 14.1913 63.0824 14.2009 63.1083 14.2171C63.1342 14.2332 63.1558 14.2555 63.1713 14.2819C63.2221 14.3661 63.2945 14.4001 63.3886 14.384C63.4542 14.3729 63.4727 14.3376 63.4443 14.2782C63.2301 13.814 62.8612 13.6209 62.3376 13.6989C62.3064 13.7039 62.2743 13.6995 62.2456 13.6863C62.2168 13.6731 62.1926 13.6516 62.1761 13.6246C62.0857 13.4761 61.9923 13.4656 61.8957 13.5931C61.8835 13.609 61.8747 13.6274 61.8699 13.6469C61.865 13.6665 61.8642 13.6868 61.8675 13.7068C61.8708 13.7268 61.8782 13.7459 61.8891 13.7631C61.9 13.7802 61.9142 13.795 61.931 13.8066ZM72.1485 19.3877C72.1599 19.3547 72.1371 19.3113 72.085 19.2671C72.0328 19.2229 71.9557 19.1815 71.8706 19.152C71.8284 19.1374 71.7855 19.1261 71.7444 19.1189C71.7033 19.1117 71.6647 19.1086 71.6309 19.1098C71.5971 19.1111 71.5687 19.1166 71.5473 19.1261C71.5259 19.1357 71.512 19.149 71.5063 19.1654C71.4949 19.1984 71.5178 19.2418 71.5699 19.286C71.622 19.3302 71.6991 19.3716 71.7843 19.4011C71.8265 19.4157 71.8693 19.4269 71.9105 19.4342C71.9516 19.4414 71.9902 19.4445 72.024 19.4432C72.0578 19.442 72.0862 19.4364 72.1076 19.4269C72.1289 19.4174 72.1428 19.4041 72.1485 19.3877Z" fill="#E57920"/>
<path d="M62.094 16.0998C62.0951 16.1339 62.0864 16.1675 62.0689 16.1968C62.0515 16.2261 62.026 16.2498 61.9955 16.265C61.9651 16.2802 61.9308 16.2864 61.897 16.2828C61.8631 16.2792 61.8309 16.266 61.8043 16.2446L59.1269 14.0834C59.1105 14.0701 59.097 14.0534 59.0873 14.0346C59.0777 14.0157 59.072 13.9951 59.0708 13.9739C59.0696 13.9528 59.0728 13.9316 59.0802 13.9118C59.0876 13.8919 59.0991 13.8739 59.1139 13.8587L59.4481 13.5189C59.4639 13.5025 59.483 13.4895 59.5042 13.481C59.5254 13.4724 59.5481 13.4685 59.5709 13.4694C59.5937 13.4702 59.6161 13.4759 59.6365 13.4861C59.657 13.4962 59.675 13.5106 59.6895 13.5282L60.5417 14.5699C60.5555 14.5865 60.5731 14.5997 60.5932 14.6081C60.6132 14.6165 60.6351 14.6199 60.6569 14.6181L61.459 14.5513C61.4856 14.5491 61.5124 14.5541 61.5368 14.5658C61.5613 14.5776 61.5824 14.5956 61.5982 14.6181C61.9089 15.0637 62.0742 15.5576 62.094 16.0998Z" fill="#E57920"/>
<path d="M29.8408 22.9678C29.8732 22.9599 29.9021 22.9417 29.9231 22.9158C29.9441 22.89 29.9561 22.8579 29.9571 22.8246C29.9582 22.7913 29.9483 22.7586 29.929 22.7315C29.9096 22.7043 29.8819 22.6843 29.8501 22.6744L28.6098 22.2938C28.5815 22.2853 28.5516 22.2832 28.5225 22.2879C28.4933 22.2925 28.4656 22.3036 28.4414 22.3204C28.4173 22.3373 28.3973 22.3593 28.3831 22.3849C28.3688 22.4105 28.3606 22.4391 28.3592 22.4683C28.3072 23.4115 27.3992 23.185 26.7939 23.1534C26.7358 23.151 26.685 23.1695 26.6417 23.2091C26.5464 23.2958 26.5426 23.3985 26.6305 23.5174C26.658 23.5539 26.6736 23.598 26.6751 23.6437C26.6766 23.6894 26.6641 23.7344 26.6392 23.7728C26.6142 23.8111 26.5781 23.8408 26.5357 23.8579C26.4933 23.875 26.4467 23.8786 26.4022 23.8683L24.9725 23.5434C24.9384 23.536 24.903 23.5382 24.8699 23.5497C24.8369 23.5611 24.8075 23.5814 24.7849 23.6083C24.3115 24.1839 23.9457 24.754 23.0953 24.8208C22.0722 24.9006 21.0436 25.1012 20.0057 25.3667C19.9681 25.3762 19.9289 25.3771 19.8909 25.3693C19.853 25.3615 19.8173 25.3452 19.7865 25.3216C19.7558 25.298 19.7308 25.2678 19.7135 25.2331C19.6961 25.1985 19.6868 25.1603 19.6863 25.1216C19.6808 24.3975 20.1041 23.963 20.7242 23.5564C21.6105 22.9746 22.4931 22.3885 23.372 21.798C23.399 21.7798 23.4295 21.7672 23.4617 21.7608C23.4939 21.7544 23.5271 21.7544 23.5595 21.7609C23.8145 21.8116 23.9785 21.7157 24.0515 21.4731C24.0719 21.406 24.1155 21.3492 24.1741 21.3134C24.8648 20.8789 25.6428 20.2124 26.469 20.1084C26.5279 20.1012 26.5824 20.0736 26.6231 20.0304C27.1517 19.4746 27.635 19.0983 28.0732 18.9015C29.0424 18.4652 30.0618 17.8655 30.9345 17.4997C36.7275 15.0729 43.278 14.6682 49.461 15.3273C54.3034 15.8435 57.716 18.2498 61.7006 20.6079C63.3327 21.5752 65.3045 22.1638 66.6154 23.5805C67.7183 24.7713 68.7005 26.0561 69.562 27.4351C70.5907 29.0857 68.9586 30.7512 67.5178 31.3231C65.5218 32.1159 64.2945 31.9544 62.7478 30.4597C62.2502 29.9788 61.7489 29.7523 61.138 29.4868C61.1274 29.4819 61.1184 29.474 61.1123 29.464C61.1061 29.454 61.103 29.4425 61.1034 29.4308C61.1038 29.4191 61.1077 29.4077 61.1145 29.3982C61.1213 29.3887 61.1308 29.3814 61.1417 29.3772L61.5019 29.2491C61.5338 29.2376 61.5605 29.2151 61.5769 29.1857C61.5933 29.1563 61.5983 29.1221 61.5911 29.0894C61.3794 28.0608 60.1707 27.4258 59.2256 27.2308C58.9991 27.1838 58.6444 27.1869 58.1617 27.2401C54.8437 27.6022 53.763 24.1914 50.8684 23.4951C50.4153 23.3862 50.0551 23.2717 49.7878 23.1516C48.4546 22.5556 47.0379 22.6131 45.6138 22.3718C43.0849 21.9429 40.8661 21.6291 38.5118 21.798C38.2531 21.8178 37.5723 21.9193 36.4694 22.1025C35.1635 22.3204 33.8483 22.3284 32.5238 22.1267C31.705 22.0023 31.0756 22.563 30.4331 22.9418C29.5215 23.4784 28.491 23.6566 27.4605 23.716C27.3937 23.7197 27.3466 23.7006 27.3194 23.6585C27.2897 23.6152 27.3002 23.5873 27.3509 23.5749L29.8408 22.9678ZM29.5586 18.7047C29.5041 18.873 29.5413 18.8966 29.67 18.7753L30.0525 18.415C30.0676 18.4017 30.0776 18.3834 30.0805 18.3634C30.0834 18.3434 30.0791 18.323 30.0684 18.3058C30.0578 18.2887 30.0413 18.2759 30.0221 18.2697C30.0029 18.2635 29.9821 18.2644 29.9634 18.2721C29.7628 18.3451 29.6279 18.4893 29.5586 18.7047ZM21.3704 23.9073C20.7057 23.7773 20.4532 24.4847 20.0261 24.8171C20.0001 24.8388 19.9826 24.869 19.9768 24.9024C19.971 24.9358 19.9772 24.9702 19.9944 24.9994C20.0115 25.0286 20.0385 25.0508 20.0705 25.0619C20.1025 25.0731 20.1375 25.0725 20.1691 25.0603C20.5602 24.892 20.84 24.6128 21.0083 24.2229C21.0244 24.1846 21.0523 24.1586 21.0919 24.1449L21.3797 24.0447C21.3951 24.0401 21.4084 24.0305 21.4176 24.0173C21.4267 24.0042 21.4311 23.9883 21.4301 23.9723C21.429 23.9563 21.4225 23.9411 21.4116 23.9293C21.4008 23.9175 21.3862 23.9097 21.3704 23.9073Z" fill="#DD9140"/>
<path d="M16.5316 33.7684C18.0077 32.3684 19.6287 31.0464 20.9915 29.5462C21.7639 28.6921 22.4175 27.8138 23.396 27.086C24.796 26.0444 26.5562 25.3035 28.2142 24.7966C29.6513 24.3566 30.7858 24.377 31.4951 25.8085C32.213 27.2593 32.2823 28.7317 31.703 30.2257C31.5805 30.5451 31.2834 30.9721 30.977 31.1355C30.0833 31.6109 29.3035 32.2279 28.6376 32.9867C28.5794 33.0511 28.5447 33.0405 28.5336 32.9551L28.502 32.723C28.4979 32.6942 28.4881 32.6664 28.4731 32.6413C28.4581 32.6161 28.4383 32.594 28.4147 32.5764C28.2476 32.4526 28.0496 32.4359 27.8206 32.5262C26.714 32.9626 25.9564 33.8074 25.7522 34.9883C25.6234 35.7359 25.3418 36.4056 24.9074 36.9972C23.7116 38.6275 21.3313 39.1121 20.3045 40.941C19.8608 41.7319 19.1979 42.3688 18.8414 43.1672C16.9587 47.3968 15.2616 50.4475 14.9664 54.3837C14.9119 55.0955 14.8222 55.6513 14.6972 56.0511C14.1773 57.7073 13.4754 58.5298 14.1513 60.2919C14.4651 61.1107 14.3927 62.26 14.0974 62.9953C13.9749 63.3023 13.921 63.2905 13.9359 62.96L14.0269 60.8916C14.0288 60.849 14.0166 60.8069 13.9921 60.772C13.9676 60.7371 13.9323 60.7112 13.8916 60.6985C13.8509 60.6858 13.8071 60.6869 13.7671 60.7017C13.727 60.7164 13.693 60.7441 13.6704 60.7802L13.041 61.7884C13.0318 61.8033 13.0258 61.8198 13.0231 61.837C13.0204 61.8542 13.0211 61.8718 13.0253 61.8887C13.0294 61.9056 13.0369 61.9215 13.0472 61.9356C13.0576 61.9496 13.0706 61.9614 13.0855 61.9704L13.4791 62.2025C13.5609 62.2506 13.6243 62.3247 13.6592 62.4132C13.6942 62.5016 13.6988 62.5993 13.6722 62.6908L13.3659 63.7324C13.3595 63.7544 13.3579 63.7775 13.361 63.8001C13.3642 63.8228 13.372 63.8445 13.3841 63.864C13.3962 63.8834 13.4122 63.9001 13.4311 63.9129C13.4501 63.9257 13.4715 63.9345 13.494 63.9385L13.8171 63.9979C13.8379 64.002 13.8576 64.0108 13.8744 64.0237C13.8913 64.0366 13.905 64.0532 13.9143 64.0723C13.9237 64.0914 13.9285 64.1124 13.9284 64.1336C13.9282 64.1549 13.9232 64.1758 13.9136 64.1947L13.2675 65.4833C13.2386 65.5414 13.2284 65.6071 13.2384 65.6715C13.2483 65.736 13.278 65.796 13.3232 65.8435C14.3388 66.8944 13.8022 67.7393 13.7131 68.9536C13.6747 69.471 13.6351 70.0175 13.5943 70.5931C13.5794 70.8047 13.4686 70.8877 13.2619 70.8419C12.4041 70.6525 12.2685 69.9766 11.9956 69.0928C11.7295 68.2338 11.459 67.379 11.1842 66.5287C11.1632 66.4631 11.165 66.3981 11.1898 66.3337L11.2678 66.135C11.295 66.062 11.2801 65.9989 11.2232 65.9456C10.7479 65.5075 10.2948 63.7751 10.4397 63.155C10.4466 63.1264 10.4474 63.0967 10.442 63.0678C10.4365 63.039 10.425 63.0117 10.4081 62.9879C10.2688 62.7892 10.137 62.6815 10.0683 62.4438C7.94606 55.1636 9.23278 48.2992 11.7654 41.1155C12.7655 38.2809 14.3543 35.8318 16.5316 33.7684ZM9.8028 59.2781L9.60784 59.3914C9.60269 59.3943 9.59816 59.3981 9.59452 59.4028C9.59088 59.4075 9.58821 59.4128 9.58665 59.4185C9.5851 59.4242 9.58469 59.4302 9.58546 59.436C9.58623 59.4419 9.58816 59.4475 9.59113 59.4526L9.60041 59.4675C9.68283 59.6096 9.77243 59.7397 9.84965 59.8294C9.92688 59.9192 9.98546 59.9613 10.0126 59.9465L10.0832 59.9057C10.0966 59.8982 10.1019 59.8769 10.0986 59.8429C10.0953 59.8089 10.0836 59.7629 10.0641 59.7075C10.0446 59.6522 10.0178 59.5885 9.98502 59.5203C9.95229 59.452 9.91434 59.3804 9.87335 59.3097L9.86407 59.2948C9.86118 59.2897 9.85729 59.2851 9.85263 59.2815C9.84797 59.2779 9.84263 59.2752 9.83693 59.2736C9.83123 59.2721 9.82528 59.2717 9.81942 59.2724C9.81355 59.2732 9.80791 59.2751 9.8028 59.2781ZM12.5656 69.0241C12.2203 69.8931 13.1134 69.8429 13.0744 70.5132C13.0694 70.5838 13.1016 70.6129 13.1709 70.6005C13.2514 70.5869 13.3102 70.5491 13.3473 70.4872C13.3857 70.4266 13.3888 70.3455 13.3566 70.244C13.2576 69.9345 13.0936 69.6641 12.8646 69.4326C12.815 69.3831 12.7903 69.3231 12.7903 69.2525V69.0668C12.7896 69.0401 12.7798 69.0144 12.7625 68.994C12.7452 68.9736 12.7215 68.9598 12.6952 68.9548C12.6689 68.9498 12.6417 68.954 12.6182 68.9666C12.5946 68.9792 12.576 68.9995 12.5656 69.0241Z" fill="#FFB30D"/>
<path d="M17.4652 24.8389L16.9261 25.2466C16.8844 25.2781 16.8762 25.3375 16.9077 25.3792L16.9211 25.397C16.9527 25.4387 17.0121 25.447 17.0538 25.4154L17.5928 25.0077C17.6346 24.9762 17.6428 24.9168 17.6112 24.8751L17.5978 24.8573C17.5663 24.8156 17.5069 24.8074 17.4652 24.8389Z" fill="#DD9140"/>
<path d="M18.8971 27.4481L18.8469 27.2383C18.839 27.2042 18.838 27.169 18.844 27.1345C18.8499 27.1001 18.8627 27.0672 18.8816 27.0378C18.9004 27.0084 18.925 26.983 18.9538 26.9632C18.9826 26.9435 19.0151 26.9297 19.0493 26.9226L20.2005 26.685C20.2744 26.6699 20.3415 26.631 20.3914 26.5744C20.4413 26.5178 20.4714 26.4465 20.4771 26.3712L20.5161 25.8903C20.5223 25.8148 20.5626 25.769 20.6368 25.7529C21.2471 25.6229 21.8115 25.6966 22.3302 25.9738C22.3564 25.9877 22.3784 26.0084 22.3937 26.0338C22.4091 26.0592 22.4173 26.0883 22.4175 26.1181C22.4177 26.1479 22.4098 26.1773 22.3948 26.2032C22.3798 26.2291 22.3581 26.2506 22.332 26.2654C20.7649 27.1417 19.0858 27.7767 17.2947 28.1704C17.1623 28.2001 17.0088 28.2793 16.8342 28.408C16.7748 28.4526 16.7519 28.4377 16.7655 28.3635C16.9753 27.2216 18.0207 27.6523 18.7782 27.6059C18.7972 27.6047 18.8156 27.5995 18.8323 27.5906C18.849 27.5816 18.8635 27.5692 18.8748 27.5542C18.8861 27.5391 18.894 27.5218 18.8978 27.5035C18.9017 27.4852 18.9014 27.4663 18.8971 27.4481Z" fill="#DD9140"/>
<path d="M16.0695 25.8495C16.1264 25.8074 16.1617 25.8217 16.1753 25.8922C16.1852 25.9529 16.1864 26.0166 16.179 26.0835C16.1728 26.1466 16.1524 26.193 16.1178 26.2227C16.062 26.271 15.9909 26.284 15.9042 26.2617C15.8776 26.2545 15.8535 26.2399 15.8347 26.2196C15.816 26.1993 15.8034 26.1741 15.7984 26.1469C15.7933 26.1198 15.7961 26.0917 15.8062 26.066C15.8164 26.0404 15.8337 26.0181 15.856 26.0018L16.0695 25.8495Z" fill="#DD9140"/>
<path d="M13.8246 28.5325C13.8674 28.5331 13.9089 28.5471 13.9434 28.5724C13.9779 28.5977 14.0037 28.6331 14.0172 28.6737C14.0306 28.7143 14.0311 28.7581 14.0186 28.799C14.006 28.8399 13.9811 28.8759 13.9471 28.902L13.7132 29.0802C13.6624 29.1186 13.6234 29.1663 13.5962 29.2232C13.3709 29.6775 13.0466 30.0457 12.6233 30.328C12.5156 30.3998 12.4797 30.3731 12.5156 30.2481C12.5663 30.0748 12.5335 29.9121 12.4172 29.7598C12.4091 29.7493 12.4035 29.7372 12.4008 29.7242C12.3981 29.7112 12.3983 29.6977 12.4015 29.6848C12.4047 29.6718 12.4108 29.6596 12.4193 29.6492C12.4278 29.6387 12.4385 29.6302 12.4506 29.6243C13.0986 29.3253 12.8981 28.5269 13.8246 28.5325Z" fill="#DD9140"/>
<path d="M90.166 39.8715C90.1673 39.8626 90.1706 39.854 90.1757 39.8466C90.1807 39.8391 90.1875 39.8329 90.1952 39.8286C90.203 39.8243 90.2117 39.8218 90.2204 39.8216C90.2292 39.8213 90.2379 39.8231 90.2458 39.827L90.7118 40.0479C90.7381 40.0605 90.7584 40.0828 90.7685 40.1098C90.7785 40.1369 90.7776 40.1667 90.7657 40.1927L90.6617 40.4323C90.6357 40.4904 90.6394 40.5468 90.6729 40.6012C90.8864 40.9447 91.0108 41.7858 90.5336 41.9845C90.3925 42.0427 90.2724 42.013 90.1734 41.8954C90.1528 41.8713 90.1399 41.8416 90.1366 41.8101C90.1333 41.7786 90.1396 41.7468 90.1548 41.719C90.3721 41.3253 90.0713 40.4731 90.166 39.8715Z" fill="#548045"/>
<path d="M87.732 46.5614L88.0848 46.7025C88.0984 46.7078 88.1105 46.7161 88.1205 46.7267C88.1305 46.7373 88.1381 46.7501 88.1427 46.764C88.1473 46.778 88.1488 46.7928 88.1472 46.8075C88.1455 46.8222 88.1407 46.8365 88.1331 46.8492C87.8806 47.2725 87.3421 47.8184 87.3384 48.3996C87.3379 48.4262 87.3443 48.4525 87.357 48.4759C87.3697 48.4994 87.3882 48.5191 87.4108 48.5332C88.3132 49.1125 86.8686 49.9889 86.41 50.1635C86.373 50.1778 86.3326 50.181 86.2938 50.1727C86.2549 50.1645 86.2194 50.1451 86.1914 50.1169C86.1634 50.0887 86.1443 50.053 86.1363 50.0141C86.1283 49.9752 86.1318 49.9349 86.1464 49.8979C86.6068 48.7041 86.9132 47.4823 87.5203 46.3664C87.8867 45.693 88.2401 45.0141 88.5805 44.3296C88.6325 44.2244 88.6666 44.2299 88.6827 44.3463L88.7996 45.1781C88.8025 45.1987 88.8005 45.2197 88.7937 45.2394C88.787 45.2591 88.7756 45.2769 88.7606 45.2914L87.6856 46.3237C87.6681 46.3401 87.6552 46.3607 87.6478 46.3835C87.6405 46.4064 87.6391 46.4307 87.6437 46.4544C87.6484 46.4781 87.6589 46.5002 87.6743 46.5189C87.6897 46.5376 87.7096 46.5522 87.732 46.5614Z" fill="#548045"/>
<path d="M90.6868 45.41C90.7027 45.564 90.7793 45.6823 90.8578 45.6741C90.9364 45.666 90.9871 45.5346 90.9712 45.3806C90.9553 45.2265 90.8787 45.1083 90.8002 45.1164C90.7216 45.1245 90.6709 45.2559 90.6868 45.41Z" fill="#548045"/>
<path d="M90.6414 46.6542C90.6481 46.6312 90.6634 46.6116 90.6842 46.5996C90.705 46.5876 90.7296 46.5841 90.7529 46.5899C90.7762 46.5956 90.7964 46.6102 90.8092 46.6305C90.822 46.6508 90.8264 46.6753 90.8215 46.6988L90.7176 47.2985C90.7149 47.3101 90.7085 47.3204 90.6994 47.328C90.6902 47.3355 90.6788 47.3399 90.667 47.3403C90.6551 47.3407 90.6435 47.3372 90.6338 47.3303C90.6242 47.3234 90.6171 47.3136 90.6136 47.3022C90.5604 47.0794 90.5696 46.8634 90.6414 46.6542Z" fill="#548045"/>
<path d="M83.3019 58.1234C83.8379 58.0194 84.2686 57.752 84.5942 57.3213C84.6313 57.2717 84.6338 57.2198 84.6016 57.1653C84.0743 56.3019 84.778 55.9268 85.3239 55.459C85.3377 55.4473 85.3487 55.4326 85.356 55.416C85.3633 55.3995 85.3668 55.3815 85.3661 55.3634C85.3653 55.3453 85.3605 55.3276 85.3519 55.3117C85.3433 55.2957 85.3312 55.282 85.3165 55.2714L85.1122 55.1247C85.0783 55.1 85.0507 55.0677 85.0316 55.0304C85.0126 54.9931 85.0025 54.9518 85.0023 54.9098C85.0022 54.8679 85.0118 54.8265 85.0306 54.789C85.0494 54.7515 85.0767 54.719 85.1104 54.694C85.5226 54.3858 86.4565 53.9624 86.3321 53.3831C86.1743 52.6478 86.2857 52.0723 86.7777 51.4465C87.4635 50.5764 88.0644 49.6715 88.5806 48.732C88.595 48.706 88.6155 48.6839 88.6404 48.6676C88.6652 48.6513 88.6936 48.6413 88.7232 48.6383C88.7528 48.6354 88.7826 48.6397 88.8102 48.6508C88.8377 48.662 88.8622 48.6796 88.8814 48.7023C89.4663 49.3948 89.4941 49.8108 89.3122 50.7447C89.1599 51.5301 88.939 53.8436 88.4116 54.3226C88.3634 54.366 88.3566 54.4148 88.3912 54.4693C88.494 54.6253 88.5317 54.772 88.5045 54.9094C88.3318 55.7802 88.2835 56.7921 87.7414 57.5181C87.7227 57.5425 87.7095 57.5709 87.7028 57.6014C87.6961 57.6318 87.6959 57.6636 87.7024 57.6945C87.7525 57.9247 87.8286 58.0695 87.7674 58.3128C86.8891 61.8034 85.8289 64.8578 83.8236 67.9307C79.9709 73.8332 74.2763 80.057 67.3711 81.9472C64.9592 82.6063 62.4563 83.1968 60.1057 84.0397C59.2051 84.3628 58.3213 84.7564 57.393 84.8641C55.3041 85.1036 53.0426 84.7917 51.0838 84.3479C50.1443 84.1344 49.6002 83.245 49.4573 82.3427C49.1992 80.7403 50.4172 78.0852 51.9434 77.4186C52.1885 77.3109 52.5871 77.2422 53.1392 77.2125C54.0242 77.1655 54.8839 76.9804 55.7182 76.6573C55.8147 76.6202 55.8376 76.6468 55.7869 76.7372L55.6309 77.0175C55.5926 77.0869 55.6031 77.1481 55.6625 77.2014C56.4479 77.9106 58.1004 77.387 58.7855 76.8653C58.7967 76.8554 59.1129 76.5168 59.7343 75.8496C62.0627 73.3468 65.2618 74.9101 67.9188 73.1258C68.565 72.6913 69.3299 72.4741 69.9408 72.0006C72.7166 69.8561 76.9054 66.9837 79.1595 63.3761C79.4974 62.8352 79.7995 62.4279 80.0656 62.1543C81.0887 61.0979 82.4719 60.4591 82.7263 58.8401C82.9219 57.5874 83.4213 56.5699 84.2247 55.7876C84.2965 55.717 84.3355 55.7319 84.3417 55.8322C84.3491 55.9869 84.3101 56.1261 84.2247 56.2499C83.8014 56.8577 83.4628 57.4426 83.2091 58.0045C83.2028 58.0187 83.2004 58.0343 83.2023 58.0497C83.2042 58.0651 83.2103 58.0796 83.2198 58.0918C83.2293 58.104 83.242 58.1134 83.2565 58.119C83.2709 58.1245 83.2866 58.1261 83.3019 58.1234ZM88.5379 49.2463C88.4451 49.6635 88.4735 50.0682 88.6233 50.4606C88.6273 50.471 88.6289 50.4821 88.6279 50.493C88.6269 50.504 88.6234 50.5145 88.6177 50.5237L88.4469 50.8227C88.4353 50.843 88.4308 50.8667 88.4341 50.8898C88.4374 50.913 88.4482 50.9345 88.465 50.9508C88.4818 50.9672 88.5035 50.9775 88.5268 50.9802C88.5501 50.9829 88.5736 50.9778 88.5936 50.9656C89.1098 50.65 88.9854 50.1023 88.8127 49.5991C88.804 49.5739 88.8031 49.5468 88.8101 49.5212C88.8171 49.4957 88.8316 49.473 88.8517 49.4561C88.952 49.3719 88.9804 49.2643 88.9371 49.133C88.9234 49.0916 88.8961 49.0595 88.8593 49.0416C88.8226 49.0237 88.7784 49.0209 88.7333 49.0337C88.6883 49.0465 88.6449 49.0741 88.6097 49.1125C88.5744 49.1508 88.5492 49.1978 88.5379 49.2463ZM86.3618 60.7117L86.3729 61.4284C86.3734 61.4359 86.3768 61.443 86.3823 61.4482C86.3878 61.4534 86.3951 61.4562 86.4027 61.4562H86.4175C86.4595 61.4556 86.5009 61.4455 86.5395 61.4266C86.578 61.4077 86.6128 61.3803 86.6419 61.346C86.6711 61.3116 86.694 61.2711 86.7093 61.2266C86.7246 61.1821 86.7321 61.1346 86.7313 61.0867V61.0384C86.7297 60.9421 86.6945 60.8502 86.6336 60.783C86.5727 60.7158 86.491 60.6788 86.4064 60.6801H86.3915C86.3875 60.6801 86.3834 60.6809 86.3797 60.6825C86.376 60.6841 86.3726 60.6865 86.3698 60.6894C86.367 60.6924 86.3649 60.6959 86.3635 60.6997C86.3621 60.7035 86.3615 60.7076 86.3618 60.7117Z" fill="#548045"/>
<path d="M24.3243 69.1097C24.1683 70.8067 25.7001 71.7704 27.0964 72.1714C30.056 73.0237 30.1025 75.7011 31.9053 77.6154C32.2235 77.9533 32.9395 78.5326 34.0536 79.3533C34.6874 79.8199 35.4078 80.2637 36.2148 80.6846C39.6331 82.4652 42.5927 84.3238 46.5476 84.8845C47.1789 84.9736 47.8386 85.1482 48.5269 85.4081C49.3661 85.7237 50.0958 86.3532 51.1857 86.4015C51.3677 86.4089 51.8176 86.3433 52.5356 86.2046C53.6484 85.9905 54.7531 86.1056 55.8498 86.55C55.867 86.5565 55.8812 86.569 55.8896 86.5853C55.8981 86.6016 55.9002 86.6204 55.8956 86.6382C55.891 86.6559 55.88 86.6714 55.8647 86.6815C55.8494 86.6916 55.8308 86.6957 55.8127 86.693L53.2467 86.3643C53.2011 86.3593 53.1551 86.3695 53.1159 86.3933C53.0767 86.4172 53.0465 86.4533 53.03 86.4961C53.0134 86.5389 53.0115 86.586 53.0245 86.63C53.0375 86.674 53.0647 86.7124 53.1019 86.7394L54.2066 87.5118C54.2203 87.5213 54.236 87.5274 54.2525 87.5297C54.269 87.532 54.2858 87.5304 54.3015 87.5249C54.3173 87.5195 54.3315 87.5104 54.3431 87.4985C54.3547 87.4865 54.3633 87.472 54.3682 87.4561C54.4511 87.1838 54.6256 86.9925 54.8918 86.8824C54.9611 86.8551 55.0304 86.8533 55.0997 86.8768L56.2732 87.2908C56.2962 87.2988 56.3208 87.301 56.3449 87.2972C56.369 87.2933 56.3917 87.2837 56.4112 87.269C56.4306 87.2543 56.4461 87.2351 56.4564 87.213C56.4667 87.1909 56.4713 87.1666 56.47 87.1423C56.4564 86.8848 56.6006 86.7784 56.9026 86.8229C57.0883 86.8502 57.3897 87.0334 57.8068 87.3725C58.4103 87.8646 59.3368 86.6595 60.3097 86.9473C61.4238 87.2766 62.536 87.4629 63.6463 87.5062C63.6909 87.5081 63.7343 87.5219 63.7717 87.5463C63.8091 87.5707 63.8393 87.6047 63.8591 87.6448C63.8788 87.6849 63.8874 87.7295 63.884 87.7741C63.8805 87.8186 63.8651 87.8614 63.8394 87.898L63.236 88.7502C63.2085 88.7908 63.1674 88.8194 63.1208 88.8301L59.023 89.8253C58.9537 89.8426 58.8893 89.8315 58.8299 89.7919C58.6207 89.6507 58.4431 89.691 58.297 89.9125C58.283 89.9337 58.2649 89.9518 58.2439 89.9658C58.2228 89.9798 58.1992 89.9895 58.1745 89.9942C57.1514 90.1799 56.4106 90.4956 55.3522 90.3619C55.3215 90.3578 55.2903 90.3607 55.2607 90.3704C55.2312 90.38 55.2041 90.3961 55.1814 90.4176C54.695 90.8818 54.2271 90.7518 53.735 90.8483C46.4436 92.2762 38.9795 90.4714 32.3157 87.354C29.5064 86.0412 26.9757 84.3572 25.0818 82.0715C23.1564 79.7506 21.3071 77.3332 19.2164 75.1552C17.835 73.7162 17.4841 72.8139 16.8528 71.0889C16.3713 69.7731 16.0544 68.557 15.9021 67.4404C15.8477 67.0394 15.9752 66.6427 16.2846 66.2503C17.7254 64.414 22.0108 64.1837 23.1861 66.5214C23.6231 67.3903 24.1801 68.1751 24.8572 68.8757C24.9178 68.9388 24.9042 68.971 24.8163 68.9723L24.4654 68.9778C24.4299 68.9782 24.3959 68.9919 24.3698 69.0162C24.3437 69.0406 24.3275 69.0739 24.3243 69.1097ZM63.2991 88.1616C63.3176 88.1728 63.3511 88.1703 63.3993 88.1542C63.4443 88.1386 63.4821 88.1074 63.506 88.0662C63.5299 88.0251 63.5382 87.9767 63.5294 87.9299C63.5206 87.8832 63.4954 87.8411 63.4582 87.8114C63.4211 87.7817 63.3745 87.7663 63.3269 87.768C62.8974 87.7866 62.5199 87.9654 62.1943 88.3046C62.1002 88.4036 61.9963 88.4142 61.8824 88.3362C61.8415 88.3089 61.7982 88.3028 61.7524 88.3176L61.6819 88.3417C61.671 88.3453 61.6616 88.3521 61.6548 88.3611C61.6479 88.3701 61.6439 88.3811 61.6434 88.3926C61.6428 88.4041 61.6456 88.4156 61.6514 88.4257C61.6573 88.4359 61.6659 88.4441 61.6763 88.4494C62.1578 88.6859 62.5527 88.6135 62.8609 88.2322C62.9126 88.1689 62.9858 88.1267 63.0666 88.1137C63.1473 88.1007 63.2301 88.1177 63.2991 88.1616ZM51.9653 90.5095C51.9554 90.4908 51.9368 90.4769 51.9104 90.4686C51.884 90.4604 51.8504 90.458 51.8115 90.4615C51.7726 90.465 51.7292 90.4745 51.6838 90.4892C51.6384 90.504 51.5918 90.5239 51.5467 90.5476C51.4557 90.5956 51.3763 90.6567 51.326 90.7175C51.2758 90.7782 51.2588 90.8336 51.2788 90.8715C51.2887 90.8903 51.3073 90.9042 51.3337 90.9124C51.3601 90.9207 51.3937 90.9231 51.4326 90.9195C51.4715 90.916 51.5149 90.9066 51.5603 90.8918C51.6057 90.877 51.6523 90.8572 51.6974 90.8334C51.7884 90.7854 51.8678 90.7243 51.918 90.6636C51.9683 90.6029 51.9853 90.5474 51.9653 90.5095Z" fill="#799443"/>
<path d="M14.8624 70.6415C14.6341 70.4428 14.0436 70.3202 14.1792 69.8988C14.3277 69.4439 14.4447 69.0131 14.7715 68.6789C14.7971 68.6525 14.8294 68.6335 14.865 68.6241C14.9006 68.6147 14.9381 68.6152 14.9734 68.6255C15.0087 68.6359 15.0406 68.6556 15.0655 68.6827C15.0905 68.7097 15.1076 68.7431 15.1149 68.7791C15.4764 70.5604 15.6225 72.2946 15.5531 73.9817C15.5439 74.2379 15.5866 74.3512 15.6998 74.5759C15.7493 74.6737 15.7271 74.6935 15.633 74.6353C14.5616 73.9743 15.2913 73.2149 15.4046 72.3404C15.4071 72.3231 15.4053 72.3054 15.3994 72.289C15.3935 72.2725 15.3837 72.2576 15.3708 72.2456C15.3579 72.2336 15.3423 72.2249 15.3253 72.22C15.3082 72.2152 15.2902 72.2144 15.2728 72.2178L15.0462 72.2605C15.0188 72.2658 14.9906 72.2647 14.9637 72.2572C14.9368 72.2497 14.912 72.236 14.8913 72.2173C14.8706 72.1985 14.8545 72.1753 14.8443 72.1493C14.8342 72.1232 14.8302 72.0952 14.8327 72.0674L14.9404 70.8345C14.9438 70.7983 14.9385 70.7619 14.925 70.7283C14.9114 70.6947 14.8899 70.6649 14.8624 70.6415Z" fill="#FFB30D"/>
<path d="M12.3891 72.7617C12.3873 72.7563 12.3876 72.7504 12.39 72.7452C12.3925 72.74 12.3968 72.7359 12.4021 72.7338L12.417 72.7264C12.4378 72.7183 12.4601 72.7143 12.4825 72.7148C12.5048 72.7152 12.5268 72.7201 12.5472 72.7291C12.5676 72.738 12.586 72.751 12.6012 72.7671C12.6165 72.7832 12.6283 72.8022 12.636 72.823L12.8496 73.3763C12.8575 73.3968 12.8613 73.4188 12.8606 73.4409C12.86 73.4629 12.855 73.4847 12.8458 73.5049C12.8367 73.5251 12.8236 73.5433 12.8073 73.5585C12.7911 73.5737 12.772 73.5856 12.7512 73.5935L12.7363 73.5991C12.7335 73.6003 12.7305 73.6009 12.7275 73.6009C12.7244 73.6009 12.7214 73.6002 12.7187 73.599C12.7159 73.5978 12.7134 73.596 12.7113 73.5938C12.7092 73.5916 12.7076 73.5889 12.7066 73.5861L12.3891 72.7617Z" fill="#E57920"/>
<path d="M13.0519 74.6785C13.1072 74.7885 13.2219 74.8425 13.308 74.7992C13.3941 74.7558 13.4191 74.6316 13.3638 74.5217C13.3085 74.4117 13.1939 74.3577 13.1077 74.4011C13.0216 74.4444 12.9966 74.5686 13.0519 74.6785Z" fill="#FFB30D"/>
<path d="M15.7315 78.98C15.4047 78.4917 14.701 77.9773 14.8867 77.3182C14.9016 77.2655 14.9338 77.2192 14.9783 77.1869C15.0227 77.1546 15.0766 77.1382 15.1313 77.1403C15.1859 77.1425 15.2381 77.1631 15.2793 77.1987C15.3206 77.2344 15.3484 77.283 15.3583 77.3368L15.401 77.5596C15.4146 77.6326 15.4505 77.6933 15.5087 77.7415C15.8231 77.999 16.0527 78.3345 16.1975 78.7479C16.22 78.8085 16.2193 78.8752 16.1955 78.9353C16.1718 78.9954 16.1266 79.0446 16.0688 79.0734C16.011 79.1022 15.9445 79.1086 15.8822 79.0913C15.82 79.0741 15.7663 79.0344 15.7315 78.98Z" fill="#FFB30D"/>
<path d="M70.7059 86.6834C70.6056 86.6624 70.5611 86.6005 70.5722 86.4978C70.5995 86.249 70.7294 86.1425 70.9621 86.1784C71.0253 86.1896 71.0797 86.1722 71.1255 86.1264C71.5179 85.7377 71.9852 85.4834 72.5274 85.3633C72.5843 85.3509 72.6078 85.3732 72.5979 85.4301L72.5088 85.937C72.5044 85.9627 72.4922 85.9864 72.474 86.005C72.4557 86.0235 72.4323 86.0361 72.4067 86.041L72.1412 86.0949C72.0929 86.1048 72.0545 86.1295 72.0261 86.1691C71.7104 86.6271 71.2704 86.7986 70.7059 86.6834Z" fill="#799443"/>
<path d="M61.7137 86.3753C61.5899 86.3073 61.5218 86.2379 61.5094 86.1674C61.5 86.1187 61.5012 86.0686 61.5129 86.0205C61.5246 85.9724 61.5465 85.9273 61.5772 85.8884C61.6078 85.8495 61.6465 85.8176 61.6905 85.7949C61.7346 85.7723 61.783 85.7593 61.8325 85.757C63.0969 85.6939 64.3502 85.4841 65.5961 85.6104C66.4781 85.6995 67.1298 85.8072 67.8056 85.6178C67.8762 85.598 67.8966 85.6215 67.8669 85.6883C67.3971 86.7671 66.2998 86.0783 65.6035 85.7756C65.5755 85.7631 65.5446 85.7587 65.5142 85.7628C65.4838 85.7669 65.4551 85.7794 65.4314 85.7989C65.4077 85.8183 65.3899 85.844 65.38 85.873C65.37 85.902 65.3684 85.9332 65.3751 85.9631L65.4346 86.2342C65.4378 86.2488 65.4376 86.264 65.434 86.2785C65.4304 86.293 65.4236 86.3065 65.4141 86.3178C65.4045 86.3292 65.3925 86.3381 65.379 86.3439C65.3655 86.3497 65.3508 86.3522 65.3362 86.3512C64.703 86.3141 63.5091 85.7886 63.3086 86.8432C63.3027 86.8755 63.2848 86.9043 63.2582 86.9239C63.2317 86.9435 63.1987 86.9525 63.1656 86.9491C62.603 86.8841 62.1853 86.6371 61.7137 86.3753Z" fill="#799443"/>
<path d="M67.4655 88.3158C67.5224 88.2081 67.5985 88.1202 67.6938 88.0521C67.7368 88.0246 67.7901 88.0128 67.8431 88.0191C67.896 88.0255 67.9448 88.0495 67.9795 88.0863C68.0142 88.1232 68.0324 88.1701 68.0304 88.2178C68.0284 88.2656 68.0063 88.3105 67.9686 88.3436C67.8251 88.4562 67.6827 88.4996 67.5416 88.4736C67.445 88.4562 67.4197 88.4036 67.4655 88.3158Z" fill="#799443"/>
<path d="M65.8356 88.9023C65.8108 88.9097 65.7886 88.898 65.7687 88.867C65.7645 88.861 65.7617 88.8541 65.7605 88.8469C65.7592 88.8396 65.7596 88.8322 65.7616 88.8251C65.7635 88.818 65.767 88.8115 65.7718 88.8059C65.7765 88.8003 65.7825 88.7958 65.7892 88.7928L66.4762 88.4883C66.4977 88.4791 66.5219 88.4784 66.544 88.4863C66.566 88.4942 66.5842 88.5102 66.595 88.531L66.673 88.6795C66.6965 88.7241 66.6835 88.7488 66.634 88.7538C66.3666 88.7847 66.1005 88.8342 65.8356 88.9023Z" fill="#799443"/>
</svg>
