<svg width="100" height="100" viewBox="0 0 100 100" fill="none" xmlns="http://www.w3.org/2000/svg">
<rect width="100" height="100" fill="#D51100"/>
<path d="M35.432 38.9636C21.3845 38.9636 10 49.9417 10 63.4965C10 77.0513 21.3845 88.045 35.432 88.045C49.4796 88.045 60.8641 77.0513 60.8641 63.4965C60.8641 49.9417 49.4796 38.9636 35.432 38.9636ZM34.1068 46.8202C43.1871 46.8202 50.5459 53.826 50.5459 62.4706C50.5459 71.1153 43.1871 78.1211 34.1068 78.1211C25.0265 78.1211 17.6677 71.1153 17.6677 62.4706C17.6677 53.826 25.0265 46.8202 34.1068 46.8202Z" fill="#202020"/>
<path d="M52.4558 12.0012C51.6461 11.9769 50.9928 12.3142 50.2786 12.8059C49.4039 13.4081 48.6465 14.3841 48.1961 15.3459C45.8941 20.2619 43.718 24.9992 41.5224 29.7186C40.9827 30.8787 40.361 32.176 39.4241 33.0475C38.8372 33.5935 38.255 34.0861 37.4836 33.8679C36.6856 33.6421 36.4196 33.2613 36.1426 32.4795C35.7901 31.4848 35.8117 29.5375 35.7008 28.4881C35.4842 26.437 35.7543 24.3292 35.2275 22.3349C34.9801 21.3982 34.1407 19.3146 32.8452 19.2427C30.8638 19.1327 29.434 22.1574 28.5855 23.8495C26.6021 27.8049 25.9544 32.2315 25.9982 38.6477C26.0027 39.3316 26.0531 40.6987 26.0531 40.6987C26.0531 40.6987 28.8732 39.7506 30.3052 39.4681C31.133 39.3048 31.9744 39.1732 32.8294 39.0895C33.6845 39.0058 34.5546 38.9633 35.4326 38.9633C36.3105 38.9633 37.1807 39.0058 38.0357 39.0895C38.8907 39.1732 39.7321 39.3048 40.56 39.4681C42.2156 39.7948 43.819 40.2675 45.3403 40.888C46.8617 41.5085 48.2944 42.2626 49.6473 43.1441C51.0003 44.0256 52.2674 45.032 53.418 46.1417C54.5685 47.2514 55.612 48.4652 56.526 49.7703C57.44 51.0754 58.2175 52.4835 58.8609 53.9511C59.5043 55.4188 60.0052 56.9605 60.3439 58.5579C60.5133 59.3566 60.6515 60.1626 60.7384 60.9875C60.8252 61.8125 60.8646 62.6489 60.8646 63.4961C60.8646 64.3432 60.8252 65.1794 60.7384 66.0046C60.6515 66.8297 60.5133 67.6511 60.3439 68.45C60.0052 70.0478 59.5043 71.5884 58.8609 73.0568C58.603 73.6453 58.3435 74.1808 58.0405 74.7449C58.0871 74.7543 58.2938 74.7987 58.3403 74.808C61.2249 75.3889 64.0007 75.6646 66.9385 75.5022C71.5012 75.25 76.2646 74.9443 80.2858 72.7729C81.6416 72.0407 83.429 70.9527 83.4727 69.4124C83.5124 68.0116 82.0993 66.9681 80.9011 66.2414C79.695 65.5098 77.9115 65.4155 76.5151 65.2159C74.4374 64.9189 72.6526 65.1861 70.4412 64.9319C68.6404 64.7249 65.9672 64.3656 65.582 62.5023C65.215 60.7267 67.4077 59.1929 68.7058 57.9271C71.3248 55.3732 74.6222 53.6307 77.4933 51.364C80.8062 48.7485 83.9867 46.3775 86.9906 43.4125C87.9456 42.47 88.8673 41.7422 89.578 40.6043C90.084 39.794 90.6919 38.5263 90.6035 37.5751C90.5446 36.9424 90.1984 36.4648 89.6726 36.1079C88.8189 35.5284 87.8962 35.5959 86.8644 35.6031C85.7984 35.6105 84.9042 35.8653 83.8983 36.2184C81.1287 37.1906 78.5181 38.5838 75.8838 39.8786C73.9371 40.8353 72.2184 42.3388 70.1254 42.9077C68.8682 43.2494 67.0486 44.0937 66.2285 43.0812C65.4304 42.0958 66.6863 40.5754 67.1751 39.4053C68.1791 37.002 69.8064 34.8958 71.1824 32.6847C72.7245 30.2064 74.5346 27.903 75.947 25.3486C76.641 24.0936 77.5139 22.8487 77.7613 21.436C77.9391 20.4213 77.9694 19.2731 77.4931 18.3595C77.2198 17.8352 76.7118 17.3598 76.1363 17.2236C75.0954 16.9772 73.9431 17.4366 72.9653 17.8704C71.5284 18.508 69.588 19.9065 68.5004 21.0415C64.8035 24.9002 61.8161 28.2938 58.3084 31.8802C57.1079 33.1078 55.4954 35.2982 53.9225 34.6096C52.8335 34.1329 53.0591 32.3335 53.1968 31.1703C53.6148 27.638 54.3682 24.0109 54.7744 20.4108C54.966 18.7132 55.3299 16.8651 55.1846 15.2992C55.1045 14.4353 55.0082 13.6088 54.5062 12.9011C54.1494 12.3981 53.4276 12.1276 52.8181 12.0334C52.6919 12.018 52.5657 12.0088 52.4496 12.0054L52.4558 12.0012ZM34.1094 46.8205C32.9743 46.8205 31.8665 46.9276 30.7963 47.1361C29.7261 47.3445 28.6717 47.6236 27.6883 48.0196C27.6662 48.0284 27.6554 48.0655 27.6334 48.0745C27.6442 48.1036 27.6616 48.1485 27.6725 48.1773C29.5073 53.0024 31.7001 57.918 35.056 61.8715C38.4321 65.8488 42.7828 69.0147 47.4426 71.4385C47.4675 71.4514 47.5262 71.4825 47.5512 71.4953C47.6181 71.4052 47.6756 71.3186 47.7405 71.2271C48.3313 70.3945 48.8392 69.4971 49.2551 68.5609C49.6709 67.6247 49.9985 66.6452 50.2174 65.6264C50.4364 64.6075 50.5487 63.5516 50.5487 62.4711C50.5487 61.3905 50.4364 60.3346 50.2174 59.3157C49.9985 58.2969 49.6709 57.3175 49.2551 56.3813C48.8392 55.4451 48.3313 54.5476 47.7405 53.715C47.1497 52.8824 46.4805 52.1196 45.7368 51.4116C44.9931 50.7036 44.1818 50.0493 43.3072 49.4869C42.4327 48.9244 41.4982 48.4471 40.5148 48.0512C39.5314 47.6552 38.4928 47.3446 37.4225 47.1361C36.3523 46.9277 35.2444 46.8205 34.1094 46.8205Z" fill="white"/>
<path d="M58.0395 74.7452C58.3425 74.1811 58.602 73.6434 58.8598 73.0548C59.5032 71.5864 60.0042 70.0458 60.3428 68.448C60.5122 67.6491 60.6505 66.8277 60.7373 66.0026C60.8241 65.1775 60.8635 64.3413 60.8635 63.4941C60.8635 62.6469 60.8241 61.8106 60.7373 60.9856C60.6505 60.1606 60.5122 59.3546 60.3428 58.556C60.0041 56.9585 59.5032 55.4168 58.8598 53.9492C58.2164 52.4815 57.4389 51.0734 56.5249 49.7684C55.6109 48.4633 54.5674 47.2494 53.4169 46.1397C52.2664 45.03 50.9993 44.0237 49.6463 43.1422C48.2933 42.2606 46.8606 41.5066 45.3392 40.8861C43.8179 40.2655 42.2146 39.7928 40.5589 39.4662C39.731 39.3028 38.8896 39.1712 38.0346 39.0875C37.1796 39.0038 36.3094 38.9613 35.4315 38.9613C34.5536 38.9613 33.6834 39.0038 32.8283 39.0875C31.9733 39.1712 31.1319 39.3028 30.3041 39.4662C28.8721 39.7487 27.3854 40.177 26.0522 40.6809C26.2138 42.6827 26.7754 45.7643 27.6358 48.0745C27.6579 48.0655 27.6788 48.0578 27.7009 48.0489C28.6843 47.6529 29.7229 47.3423 30.7931 47.1338C31.8634 46.9254 32.9712 46.8183 34.1062 46.8183C35.2413 46.8183 36.3491 46.9254 37.4193 47.1338C38.4896 47.3423 39.5282 47.6529 40.5116 48.0489C41.495 48.4448 42.4295 48.9221 43.304 49.4846C44.1786 50.0471 44.9899 50.7013 45.7336 51.4094C46.4773 52.1174 47.1465 52.8801 47.7373 53.7127C48.3281 54.5454 48.836 55.4428 49.2519 56.379C49.6678 57.3152 49.9953 58.2946 50.2142 59.3134C50.4332 60.3323 50.5455 61.3882 50.5455 62.4688C50.5455 63.5493 50.4332 64.6053 50.2142 65.6241C49.9953 66.643 49.6677 67.6224 49.2519 68.5586C48.836 69.4948 48.3281 70.3923 47.7373 71.2248C47.6724 71.3163 47.6089 71.401 47.5421 71.4911C51.0076 73.0868 54.7847 74.0804 58.0395 74.7452Z" fill="#D51100"/>
</svg>
