<svg width="100" height="100" viewBox="0 0 100 100" fill="none" xmlns="http://www.w3.org/2000/svg">
<rect width="100" height="100" fill="#DBEFFF"/>
<path d="M93.7215 35.9003L76.989 87.3966C76.9853 87.4079 76.9781 87.4178 76.9684 87.4247C76.9588 87.4317 76.9472 87.4354 76.9352 87.4354H22.7877C22.7758 87.4354 22.7642 87.4317 22.7546 87.4247C22.7449 87.4178 22.7377 87.4079 22.734 87.3966L6.00273 35.9003C5.99911 35.8891 5.99909 35.8771 6.00268 35.8659C6.00626 35.8547 6.01328 35.8449 6.02273 35.8378L49.829 4.01034C49.8385 4.00361 49.8499 4 49.8615 4C49.8731 4 49.8845 4.00361 49.894 4.01034L93.7015 35.8378C93.711 35.8449 93.718 35.8547 93.7216 35.8659C93.7252 35.8771 93.7251 35.8891 93.7215 35.9003ZM86.3153 38.3028C86.318 38.2945 86.318 38.2856 86.3153 38.2773C86.3126 38.269 86.3073 38.2617 86.3003 38.2566L49.8865 11.7978C49.8795 11.7929 49.8713 11.7903 49.8627 11.7903C49.8542 11.7903 49.8459 11.7929 49.839 11.7978L13.4227 38.2553C13.4157 38.2605 13.4104 38.2677 13.4077 38.276C13.405 38.2843 13.405 38.2933 13.4077 38.3016L27.3227 81.1254C27.3254 81.1336 27.3305 81.1408 27.3375 81.146C27.3444 81.1512 27.3528 81.154 27.3615 81.1541H72.3615C72.3702 81.154 72.3786 81.1512 72.3855 81.146C72.3925 81.1408 72.3976 81.1336 72.4003 81.1254L86.3153 38.3028Z" fill="#3884BE"/>
<path d="M64.5615 38.7604C61.6515 34.9966 57.8903 32.6129 53.1715 31.6429C53.1517 31.6388 53.1312 31.6392 53.1115 31.644C53.0918 31.6488 53.0735 31.658 53.0578 31.6708C53.0421 31.6836 53.0295 31.6997 53.0208 31.718C53.0122 31.7363 53.0077 31.7564 53.0078 31.7766V46.5029C53.0078 46.5479 53.0303 46.5704 53.0752 46.5704L74.2003 46.5316C74.2268 46.5317 74.2525 46.5412 74.2723 46.5585C74.2921 46.5758 74.3047 46.5996 74.3078 46.6254C74.5586 48.667 74.5598 50.7091 74.3115 52.7516C74.3023 52.8308 74.2578 52.8704 74.1778 52.8704L53.0752 52.8316C53.0573 52.8316 53.0402 52.8387 53.0275 52.8514C53.0149 52.864 53.0078 52.8812 53.0078 52.8991V67.6866C53.0077 67.6979 53.0102 67.7091 53.015 67.7193C53.0198 67.7296 53.0268 67.7386 53.0356 67.7458C53.0443 67.7529 53.0545 67.7581 53.0655 67.7608C53.0765 67.7636 53.0879 67.7638 53.099 67.7616C57.8323 66.8316 61.6569 64.4579 64.5728 60.6404C64.5978 60.6079 64.6307 60.5916 64.6715 60.5916H71.8815C71.9332 60.5916 71.9473 60.6145 71.924 60.6604C65.7678 72.9566 50.8202 77.9029 38.5802 71.6141C31.1902 67.8166 26.084 60.3716 25.3352 52.0066C24.0827 38.0154 34.5852 25.7704 48.6965 25.0916C58.4903 24.6204 67.5653 30.0029 71.9228 38.7441C71.9444 38.7883 71.9307 38.8104 71.8815 38.8104H64.6628C64.6211 38.8104 64.5873 38.7937 64.5615 38.7604ZM35.2727 38.6154C26.954 49.6054 33.229 65.3129 46.6715 67.7591C46.6782 67.7604 46.685 67.7602 46.6916 67.7585C46.6982 67.7569 46.7043 67.7538 46.7095 67.7495C46.7148 67.7452 46.719 67.7398 46.722 67.7337C46.7249 67.7276 46.7264 67.7209 46.7265 67.7141V31.7191C46.7265 31.6533 46.6944 31.6266 46.6303 31.6391C42.0615 32.5254 38.0652 34.9279 35.2727 38.6154Z" fill="#DFAA00"/>
</svg>
