<svg width="100" height="100" viewBox="0 0 100 100" fill="none" xmlns="http://www.w3.org/2000/svg">
<rect width="100" height="100" fill="#595C62"/>
<path d="M20.8975 58V43.7266H15.7998V40.8203H29.4522V43.7266H24.3662V58H20.8975ZM32.0153 58V40.8203H37.2067L40.3239 52.5391L43.4059 40.8203H48.6091V58H45.3864V44.4766L41.9762 58H38.6364L35.238 44.4766V58H32.0153ZM52.4261 40.8203H59.2933C60.6527 40.8203 61.6644 40.8789 62.3284 40.9961C63.0003 41.1055 63.598 41.3398 64.1214 41.6992C64.6527 42.0586 65.0941 42.5391 65.4456 43.1406C65.7972 43.7344 65.973 44.4023 65.973 45.1445C65.973 45.9492 65.7542 46.6875 65.3167 47.3594C64.887 48.0312 64.3011 48.5352 63.5589 48.8711C64.6058 49.1758 65.4105 49.6953 65.973 50.4297C66.5355 51.1641 66.8167 52.0273 66.8167 53.0195C66.8167 53.8008 66.6331 54.5625 66.2659 55.3047C65.9066 56.0391 65.4105 56.6289 64.7777 57.0742C64.1527 57.5117 63.3792 57.7812 62.4573 57.8828C61.8792 57.9453 60.4847 57.9844 58.2738 58H52.4261V40.8203ZM55.8948 43.6797V47.6523H58.1683C59.5198 47.6523 60.3597 47.6328 60.6878 47.5938C61.2816 47.5234 61.7464 47.3203 62.0823 46.9844C62.4261 46.6406 62.598 46.1914 62.598 45.6367C62.598 45.1055 62.4495 44.6758 62.1527 44.3477C61.8636 44.0117 61.43 43.8086 60.8519 43.7383C60.5081 43.6992 59.5198 43.6797 57.887 43.6797H55.8948ZM55.8948 50.5117V55.1055H59.1058C60.3558 55.1055 61.1488 55.0703 61.4847 55C62.0003 54.9062 62.4183 54.6797 62.7386 54.3203C63.0667 53.9531 63.2308 53.4648 63.2308 52.8555C63.2308 52.3398 63.1058 51.9023 62.8558 51.543C62.6058 51.1836 62.2425 50.9219 61.7659 50.7578C61.2972 50.5938 60.2738 50.5117 58.6956 50.5117H55.8948ZM70.1533 58V40.8203H73.5283L80.5595 52.293V40.8203H83.7822V58H80.3017L73.3759 46.7969V58H70.1533Z" fill="#F8F8F8"/>
</svg>
