<svg width="100" height="100" viewBox="0 0 100 100" fill="none" xmlns="http://www.w3.org/2000/svg">
<rect width="100" height="100" fill="white"/>
<path d="M74.2483 21.4257L79.9857 21.4201C80.0105 21.4197 80.035 21.4248 80.0575 21.435C80.0801 21.4452 80.1001 21.4602 80.1162 21.479C80.1323 21.4978 80.1441 21.5199 80.1507 21.5437C80.1573 21.5675 80.1586 21.5925 80.1545 21.6169L76.1383 44.4826C76.1317 44.5214 76.1118 44.5566 76.082 44.5823C76.0523 44.608 76.0144 44.6224 75.9751 44.6232H69.7876C69.7628 44.6229 69.7383 44.6171 69.716 44.6062C69.6937 44.5953 69.674 44.5797 69.6584 44.5603C69.6428 44.541 69.6317 44.5184 69.6259 44.4943C69.62 44.4702 69.6195 44.445 69.6245 44.4207L74.0795 21.5607C74.0874 21.522 74.1086 21.4873 74.1394 21.4626C74.1703 21.438 74.2088 21.4249 74.2483 21.4257Z" fill="#ED3338"/>
<path d="M63.2626 44.1732C63.6526 44.4732 63.602 44.6232 63.1108 44.6232H25.2489C25.208 44.6231 25.1675 44.614 25.1305 44.5966C25.0935 44.5793 25.0608 44.554 25.035 44.5228C25.0091 44.4915 24.9907 44.455 24.981 44.416C24.9713 44.3769 24.9706 44.3363 24.9789 44.297L29.3833 22.3988C29.4283 22.1701 29.5652 22.0463 29.7939 22.0276C31.6952 21.8645 33.8552 21.6113 35.4696 22.8432C44.642 29.8257 53.9064 36.9357 63.2626 44.1732Z" fill="#ED3338"/>
<path d="M78.2982 47.5651L77.6513 51.7895C77.6446 51.8307 77.6233 51.8681 77.5913 51.895C77.5593 51.9218 77.5187 51.9362 77.4769 51.9357H21.362C21.3364 51.9354 21.3112 51.9294 21.2882 51.9183C21.2652 51.9071 21.245 51.891 21.2289 51.8712C21.2128 51.8513 21.2012 51.8281 21.1951 51.8033C21.1889 51.7785 21.1883 51.7527 21.1932 51.7276L22.0032 47.4357C22.0112 47.3955 22.033 47.3594 22.0649 47.3337C22.0967 47.308 22.1367 47.2943 22.1776 47.2951L78.1238 47.3626C78.1493 47.3622 78.1745 47.3675 78.1977 47.378C78.2209 47.3884 78.2416 47.4038 78.2582 47.4232C78.2748 47.4425 78.287 47.4652 78.2939 47.4897C78.3008 47.5142 78.3023 47.5399 78.2982 47.5651Z" fill="#ED3338"/>
<path d="M29.7095 54.855L25.2827 77.6925C25.2737 77.7352 25.2504 77.7736 25.2166 77.8012C25.1828 77.8288 25.1407 77.8441 25.097 77.8444L19.3595 77.94C19.3313 77.9405 19.3033 77.9347 19.2776 77.923C19.2519 77.9114 19.2291 77.8942 19.2108 77.8727C19.1925 77.8512 19.1792 77.8259 19.1719 77.7986C19.1645 77.7714 19.1633 77.7428 19.1683 77.715L23.2802 54.8156C23.288 54.7719 23.3108 54.7323 23.3447 54.7035C23.3785 54.6748 23.4214 54.6587 23.4658 54.6581L29.5239 54.6244C29.5522 54.6246 29.5802 54.6311 29.6057 54.6435C29.6312 54.6558 29.6536 54.6736 29.6714 54.6957C29.6891 54.7178 29.7018 54.7435 29.7084 54.7711C29.715 54.7986 29.7154 54.8273 29.7095 54.855Z" fill="#ED3338"/>
<path d="M74.3383 54.9506L69.8889 77.0963C69.8799 77.139 69.8566 77.1773 69.8228 77.2049C69.7891 77.2326 69.7469 77.2478 69.7033 77.2482H64.967C64.9244 77.2486 64.8828 77.2347 64.8489 77.2088L35.9139 54.9619C35.8824 54.9378 35.8592 54.9045 35.8474 54.8666C35.8357 54.8287 35.836 54.7881 35.8484 54.7504C35.8607 54.7127 35.8845 54.6798 35.9164 54.6562C35.9483 54.6326 35.9868 54.6195 36.0264 54.6188L74.1526 54.72C74.181 54.7202 74.2089 54.7268 74.2344 54.7391C74.2599 54.7514 74.2823 54.7693 74.3001 54.7914C74.3179 54.8134 74.3305 54.8392 74.3371 54.8667C74.3437 54.8943 74.3441 54.9229 74.3383 54.9506Z" fill="#ED3338"/>
</svg>
