<svg width="100" height="100" viewBox="0 0 100 100" fill="none" xmlns="http://www.w3.org/2000/svg">
<rect width="100" height="100" fill="#C00000"/>
<path d="M23.9087 44.2504C24.2082 44.7912 24.4656 45.3442 24.6808 45.9093C25.4919 48.0317 25.4505 51.2419 24.5862 53.343C23.5989 55.7421 21.6278 57.6056 18.8256 56.8193C16.378 56.1335 15.1838 53.7096 14.8716 51.3543C14.5181 48.6809 14.8492 45.9614 16.469 43.7337C17.0319 43.0858 17.6278 42.5608 18.4673 42.2995C20.7446 41.5908 22.5584 42.2412 23.9087 44.2504ZM20.5258 45.6717C19.8507 45.1396 19.224 45.8502 19.1436 46.4863C18.8961 48.4263 18.8953 50.4107 19.1413 52.4397C19.2701 53.5062 20.3485 54.0584 20.8995 52.7684C20.9649 52.6155 21.0114 52.3727 21.039 52.04C21.1762 50.4036 21.1785 48.7684 21.0461 47.1343C20.9953 46.5017 20.9645 46.0169 20.5258 45.6717Z" fill="white"/>
<path d="M94.0874 45.0427C94.9175 46.8446 95.0676 48.3214 94.9766 50.2629C94.934 51.1749 94.815 51.951 94.6195 52.5911C94.1028 54.2783 93.002 56.0886 91.2887 56.7259C88.2902 57.8409 85.8142 55.482 85.0551 52.7708C84.6831 51.4433 84.5432 50.097 84.6354 48.7317C84.6874 47.9561 84.9014 47.0669 85.0528 46.2404C85.6629 44.5531 86.61 42.8517 88.4297 42.2534C91.0014 41.408 92.9287 42.7642 94.0874 45.0427ZM88.9015 46.6826C88.6768 48.2142 88.6386 49.7636 88.7868 51.3306C88.8282 51.8166 88.8991 52.8299 89.2278 53.2012C90.0626 54.1447 90.7105 52.9162 90.8158 52.221C91.0345 50.7808 90.9033 49.1125 90.8973 47.6475C90.895 47.0492 90.7283 45.622 89.9325 45.5038C89.1415 45.3867 89.0363 46.1281 88.9015 46.6826Z" fill="white"/>
<path d="M5.59001 42.3231C8.20074 42.3664 10.8154 42.3546 13.434 42.2876L14.1056 42.3337C14.145 42.3369 14.1647 42.3581 14.1647 42.3976L14.1624 48.28C14.1624 48.3194 14.1431 48.3391 14.1044 48.3391H12.4195C12.3801 48.3391 12.3604 48.3194 12.3604 48.28V45.8265C12.3604 45.7871 12.3407 45.7674 12.3013 45.7674H11.4736C11.4145 45.7674 11.3849 45.7969 11.3849 45.8561V53.1467C11.3849 53.1987 11.4109 53.224 11.463 53.2224L12.1405 53.2011C12.1823 53.1995 12.2031 53.2196 12.2031 53.2614L12.2173 56.6726C12.2173 56.7136 12.1968 56.7341 12.1558 56.7341H7.03963C7.00022 56.7341 6.98051 56.7144 6.98051 56.675V53.2992C6.98051 53.2362 7.01165 53.2054 7.07392 53.207L7.67103 53.22C7.72069 53.2208 7.74552 53.1964 7.74552 53.1467L7.75616 45.83C7.75616 45.7883 7.73527 45.7674 7.69349 45.7674H6.87291C6.82562 45.7674 6.80197 45.791 6.80197 45.8383L6.80433 48.2622C6.80433 48.3095 6.78029 48.334 6.73221 48.3355L5.06385 48.3769C5.02128 48.3785 5 48.3576 5 48.3143V42.3987C5 42.3601 5.01931 42.34 5.05794 42.3384L5.59001 42.3231Z" fill="white"/>
<path d="M25.7295 42.3243L33.9483 42.2924L34.8185 42.3326C34.8579 42.3341 34.8776 42.3546 34.8776 42.394L34.9178 48.3072C34.9178 48.3482 34.8977 48.3687 34.8575 48.3687H33.1703C33.1546 48.3687 33.1395 48.3625 33.1285 48.3514C33.1174 48.3403 33.1111 48.3252 33.1111 48.3096V45.8419C33.1111 45.7922 33.0863 45.7674 33.0366 45.7674H32.313C32.2539 45.7674 32.2243 45.797 32.2243 45.8561V53.1621C32.2243 53.2047 32.2456 53.2252 32.2882 53.2236L32.8593 53.1988C32.9184 53.1956 32.948 53.2236 32.948 53.2827L32.9704 56.6714C32.9704 56.7132 32.9495 56.7341 32.9078 56.7341H27.7608C27.7214 56.7341 27.7017 56.7144 27.7017 56.675V53.2508C27.7017 53.2145 27.7198 53.1972 27.7561 53.1988L28.4525 53.2236C28.4864 53.2244 28.5033 53.2078 28.5033 53.1739V45.8431C28.5033 45.7926 28.4781 45.7674 28.4277 45.7674H27.7005C27.6603 45.7674 27.6398 45.7875 27.639 45.8277L27.6225 48.2646C27.6217 48.3135 27.5968 48.3383 27.548 48.3391L25.785 48.3498C25.7472 48.3498 25.7283 48.3312 25.7283 48.2942L25.7295 42.3243Z" fill="white"/>
<path d="M38.6225 42.3089L42.2666 42.303L43.1085 42.3408C43.1692 42.3432 43.1995 42.3747 43.1995 42.4354L43.222 45.6775C43.2228 45.7374 43.1932 45.7674 43.1333 45.7674H42.5657C42.5529 45.7674 42.5402 45.7704 42.5286 45.7762C42.5171 45.782 42.5071 45.7905 42.4994 45.8009C42.4917 45.8114 42.4866 45.8235 42.4843 45.8364C42.4821 45.8492 42.4828 45.8625 42.4865 45.875C42.7053 46.5903 42.801 47.3648 42.9855 48.053C43.235 48.9906 43.384 50.0063 43.6193 50.8765C43.8262 51.6403 44.026 52.3344 44.1123 53.1302C44.1149 53.1537 44.1261 53.1753 44.1435 53.1911C44.161 53.2068 44.1836 53.2154 44.2069 53.2153L44.7875 53.2165C44.8269 53.2173 44.8466 53.237 44.8466 53.2756V56.675C44.8466 56.7144 44.8269 56.7341 44.7875 56.7341H40.0874C40.048 56.7341 40.0283 56.7144 40.0283 56.675V53.6303C40.0283 53.5712 40.0579 53.5416 40.117 53.5416H40.6562C40.6757 53.5415 40.6949 53.5371 40.7124 53.5286C40.73 53.5202 40.7454 53.5079 40.7577 53.4927C40.7699 53.4776 40.7786 53.4599 40.7831 53.4409C40.7877 53.422 40.7879 53.4023 40.7839 53.3832L40.454 51.8544C40.4502 51.8381 40.4412 51.8237 40.4283 51.8134C40.4154 51.8031 40.3994 51.7975 40.383 51.7976H38.2275C38.1999 51.7976 38.185 51.8118 38.1826 51.8402C38.14 52.3659 38.0352 52.8795 37.8681 53.3808C37.8318 53.488 37.8705 53.5416 37.984 53.5416H38.4912C38.5503 53.5416 38.5799 53.5712 38.5799 53.6303V56.675C38.5799 56.6907 38.5737 56.7057 38.5626 56.7168C38.5515 56.7279 38.5365 56.7341 38.5208 56.7341H34.9275C34.877 56.7341 34.8518 56.7089 34.8518 56.6584L34.8624 53.2626C34.8624 53.2545 34.8641 53.2464 34.8673 53.239C34.8706 53.2315 34.8753 53.2247 34.8813 53.2191C34.8872 53.2135 34.8943 53.2091 34.902 53.2062C34.9098 53.2033 34.918 53.202 34.9263 53.2023L35.4596 53.2224C35.5155 53.224 35.5494 53.1976 35.5612 53.1432L37.2272 45.8241C37.2359 45.7863 37.2205 45.7674 37.1811 45.7674H36.5698C36.5304 45.7674 36.5107 45.7477 36.5107 45.7083V42.3988C36.5107 42.357 36.5316 42.3357 36.5734 42.3349L38.6225 42.3089ZM39.3922 46.3929C39.0225 47.5414 38.7679 48.7139 38.6284 49.9105C38.626 49.9357 38.6378 49.9483 38.6638 49.9483L40.0047 49.9294C40.0151 49.9292 40.0255 49.9268 40.0349 49.9222C40.0443 49.9177 40.0526 49.9111 40.0593 49.903C40.0659 49.8949 40.0707 49.8855 40.0733 49.8753C40.076 49.8652 40.0763 49.8546 40.0744 49.8443C39.9184 49.004 39.7426 48.1653 39.5471 47.3282C39.4785 47.0337 39.4868 46.7062 39.449 46.3988C39.4479 46.3924 39.4448 46.3865 39.4401 46.382C39.4354 46.3776 39.4293 46.3748 39.4228 46.3741C39.4164 46.3735 39.4099 46.3749 39.4043 46.3783C39.3988 46.3817 39.3945 46.3868 39.3922 46.3929Z" fill="white"/>
<path d="M46.1765 53.1822V45.8076C46.1765 45.797 46.1723 45.7868 46.1647 45.7792C46.1572 45.7717 46.147 45.7674 46.1363 45.7674H45.4186C45.4079 45.7674 45.3977 45.7632 45.3902 45.7557C45.3826 45.7481 45.3784 45.7379 45.3784 45.7272V42.3787C45.3784 42.368 45.3826 42.3578 45.3902 42.3503C45.3977 42.3427 45.4079 42.3385 45.4186 42.3385H50.7701C50.7808 42.3385 50.791 42.3427 50.7985 42.3503C50.8061 42.3578 50.8103 42.368 50.8103 42.3787L50.7949 45.7261C50.7949 45.7367 50.7907 45.7469 50.7832 45.7545C50.7756 45.762 50.7654 45.7663 50.7547 45.7663L50.0287 45.7686C50.0181 45.7686 50.0078 45.7729 50.0003 45.7804C49.9928 45.7879 49.9885 45.7982 49.9885 45.8088V53.1763C49.9885 53.187 49.9928 53.1972 50.0003 53.2048C50.0078 53.2123 50.0181 53.2165 50.0287 53.2165H51.9596C51.9702 53.2165 51.9805 53.2123 51.988 53.2048C51.9956 53.1972 51.9998 53.187 51.9998 53.1763V51.0102C51.9998 50.9995 52.004 50.9893 52.0116 50.9818C52.0191 50.9742 52.0293 50.97 52.04 50.97H54.2653C54.2759 50.97 54.2861 50.9742 54.2937 50.9818C54.3012 50.9893 54.3055 50.9995 54.3055 51.0102V56.6951C54.3055 56.7058 54.3012 56.716 54.2937 56.7236C54.2861 56.7311 54.2759 56.7353 54.2653 56.7353L45.4209 56.733C45.4157 56.733 45.4104 56.7319 45.4056 56.7299C45.4007 56.7279 45.3963 56.7249 45.3925 56.7212C45.3888 56.7175 45.3858 56.713 45.3838 56.7081C45.3818 56.7033 45.3807 56.698 45.3807 56.6928L45.3772 53.2437C45.3772 53.2383 45.3783 53.233 45.3804 53.2281C45.3825 53.2231 45.3855 53.2186 45.3894 53.2149C45.3932 53.2111 45.3978 53.2082 45.4028 53.2062C45.4078 53.2043 45.4132 53.2034 45.4186 53.2035L46.1351 53.2224C46.1405 53.2226 46.1458 53.2217 46.1509 53.2197C46.1559 53.2178 46.1604 53.2148 46.1643 53.2111C46.1682 53.2073 46.1712 53.2029 46.1733 53.1979C46.1754 53.1929 46.1765 53.1876 46.1765 53.1822Z" fill="white"/>
<path d="M54.8746 42.3278L59.7922 42.3018L60.1185 42.3443C60.1651 42.3506 60.1883 42.377 60.1883 42.4235V45.6751C60.1883 45.7366 60.1576 45.7674 60.0961 45.7674H59.4197C59.3606 45.7674 59.3311 45.7969 59.3311 45.856V53.162C59.3311 53.2046 59.3524 53.2251 59.3949 53.2235L60.1185 53.1975C60.1276 53.1972 60.1366 53.1987 60.1451 53.202C60.1535 53.2052 60.1612 53.2101 60.1677 53.2164C60.1742 53.2227 60.1794 53.2302 60.183 53.2386C60.1865 53.2469 60.1883 53.2559 60.1883 53.2649V56.6749C60.1883 56.7143 60.1686 56.7341 60.1292 56.7341H54.9278C54.8892 56.7341 54.8699 56.7147 54.8699 56.6761L54.864 53.2507C54.864 53.2168 54.8805 53.2003 54.9136 53.2011L55.6314 53.2223C55.6936 53.2247 55.7248 53.1948 55.7248 53.1325V45.8454C55.7248 45.825 55.7167 45.8055 55.7023 45.791C55.6878 45.7766 55.6683 45.7685 55.6479 45.7685L55.0118 45.7674C54.9117 45.7666 54.862 45.7161 54.8628 45.616L54.8746 42.3278Z" fill="white"/>
<path d="M61.3944 42.342L65.4559 42.3539C65.8177 43.2832 66.2812 44.1322 66.6123 45.032C66.7412 45.382 66.9623 45.6906 67.0782 46.0358C67.2768 46.6294 67.6161 47.191 67.8514 47.7775C68.0324 48.2304 68.4036 48.9197 68.5183 49.5866C68.5193 49.5927 68.5219 49.5984 68.5259 49.6031C68.53 49.6078 68.5353 49.6113 68.5412 49.6131C68.5471 49.615 68.5534 49.6151 68.5594 49.6136C68.5654 49.612 68.5708 49.6088 68.5751 49.6043C68.583 49.5956 68.5912 49.5874 68.5999 49.5795C68.6086 49.5708 68.6129 49.5602 68.6129 49.5476V45.8561C68.6129 45.797 68.5833 45.7674 68.5242 45.7674H67.9626C67.9391 45.7674 67.9165 45.7581 67.8999 45.7415C67.8833 45.7248 67.8739 45.7023 67.8739 45.6788V42.3976C67.8739 42.3582 67.8936 42.3385 67.933 42.3385H71.6576C71.6732 42.3385 71.6883 42.3447 71.6994 42.3558C71.7105 42.3669 71.7167 42.3819 71.7167 42.3976V45.7083C71.7167 45.7477 71.697 45.7674 71.6576 45.7674H70.9777C70.9383 45.7674 70.9186 45.7871 70.9186 45.8266V56.9115C70.9186 56.9272 70.9123 56.9422 70.9013 56.9533C70.8902 56.9644 70.8751 56.9706 70.8595 56.9706H67.9318C67.8909 56.9706 67.8605 56.9529 67.8408 56.9174C67.6295 56.5351 67.4364 56.1465 67.2614 55.7516C66.1973 53.3419 65.0492 50.9475 64.069 48.5047C64.0658 48.4972 64.0601 48.491 64.0529 48.487C64.0457 48.4831 64.0374 48.4817 64.0295 48.4831C64.0215 48.4845 64.0144 48.4886 64.0093 48.4947C64.0042 48.5008 64.0015 48.5085 64.0016 48.5165V53.1408C64.0016 53.1514 64.0037 53.1618 64.0077 53.1714C64.0118 53.1811 64.0177 53.1899 64.0252 53.1973C64.0327 53.2047 64.0415 53.2105 64.0513 53.2144C64.061 53.2183 64.0715 53.2202 64.082 53.2201L64.7808 53.2059C64.8099 53.2051 64.8245 53.2193 64.8245 53.2484L64.8564 56.6762C64.8564 56.7148 64.8371 56.7341 64.7985 56.7341H61.0657C61.0208 56.7341 60.9983 56.7113 60.9983 56.6656L61.0231 53.2473C61.0231 53.2134 61.0401 53.1972 61.074 53.1988L61.7704 53.2236C61.8059 53.2244 61.8236 53.2071 61.8236 53.1716L61.813 45.8254C61.813 45.81 61.8067 45.7953 61.7956 45.7844C61.7846 45.7735 61.7695 45.7674 61.7538 45.7674H61.1083C61.0468 45.7674 61.016 45.7367 61.016 45.6752V42.3964C61.016 42.3594 61.0349 42.3409 61.0728 42.3409L61.3944 42.342Z" fill="white"/>
<path d="M73.1316 42.3478L78.8567 42.4069C80.7557 42.6646 82.1745 44.2112 82.7787 45.9328C83.3546 47.5775 83.4409 49.5154 83.2422 51.2287C83.1264 51.8258 83.0897 52.4407 82.8934 52.994C82.6073 53.7957 82.0374 55.094 81.4947 55.4581C81.1009 55.7218 80.7663 56.0907 80.3513 56.261C79.2032 56.7339 77.8127 56.7659 76.6468 56.7328L72.8135 56.7375C72.7891 56.7375 72.7656 56.7278 72.7483 56.7105C72.731 56.6932 72.7213 56.6697 72.7213 56.6453V53.2459C72.7213 53.2057 72.741 53.1868 72.7804 53.1891L73.3657 53.2246C73.4091 53.2278 73.4307 53.2073 73.4307 53.1631V45.8559C73.4307 45.8324 73.4214 45.8098 73.4048 45.7932C73.3881 45.7766 73.3656 45.7672 73.3421 45.7672H72.7603C72.7264 45.7672 72.7095 45.7507 72.7095 45.7176L72.726 42.4211C72.7264 42.4058 72.7316 42.391 72.7406 42.3788C72.7497 42.3665 72.7624 42.3573 72.7769 42.3525C72.8801 42.3194 72.9984 42.3178 73.1316 42.3478ZM77.0725 45.8299L77.0607 53.2104C77.0607 53.2253 77.0665 53.2395 77.0769 53.2501C77.0873 53.2607 77.1014 53.2669 77.1162 53.2672L77.4651 53.2683C77.9376 53.2692 78.3913 52.9835 78.7263 52.4742C79.0614 51.9648 79.2503 51.2736 79.2517 50.5524L79.2564 48.4974C79.257 48.1402 79.2116 47.7865 79.1226 47.4563C79.0337 47.1261 78.903 46.8261 78.7379 46.5732C78.5729 46.3203 78.3768 46.1196 78.1608 45.9826C77.9449 45.8455 77.7133 45.7747 77.4792 45.7743L77.1304 45.7732C77.1229 45.773 77.1154 45.7743 77.1084 45.7771C77.1013 45.7799 77.0949 45.7841 77.0895 45.7894C77.0841 45.7946 77.0799 45.8009 77.0769 45.8079C77.074 45.8149 77.0725 45.8224 77.0725 45.8299Z" fill="white"/>
</svg>
