<svg width="100" height="100" viewBox="0 0 100 100" fill="none" xmlns="http://www.w3.org/2000/svg">
<rect width="100" height="100" fill="#3A5B8F"/>
<path d="M49.8236 50.1294C49.8236 52.7686 48.6841 55.2997 46.6558 57.1659C44.6275 59.0322 41.8765 60.0806 39.008 60.0806C36.1395 60.0806 33.3885 59.0322 31.3602 57.1659C29.3319 55.2997 28.1924 52.7686 28.1924 50.1294C28.1924 47.4901 29.3319 44.959 31.3602 43.0928C33.3885 41.2265 36.1395 40.1781 39.008 40.1781C41.8765 40.1781 44.6275 41.2265 46.6558 43.0928C48.6841 44.959 49.8236 47.4901 49.8236 50.1294ZM39.0086 57.6475C40.5005 57.6475 41.9312 56.8554 42.9861 55.4455C44.041 54.0355 44.6336 52.1233 44.6336 50.1294C44.6336 48.1354 44.041 46.2232 42.9861 44.8132C41.9312 43.4033 40.5005 42.6112 39.0086 42.6112C38.2699 42.6112 37.5385 42.8057 36.856 43.1835C36.1736 43.5613 35.5535 44.1151 35.0312 44.8132C34.5088 45.5114 34.0945 46.3401 33.8118 47.2523C33.5291 48.1644 33.3836 49.1421 33.3836 50.1294C33.3836 52.1233 33.9763 54.0355 35.0312 55.4455C36.0861 56.8554 37.5168 57.6475 39.0086 57.6475Z" fill="white"/>
<path d="M93.6732 50.3682C93.6732 53.0081 92.5343 55.5399 90.507 57.4065C88.4798 59.2732 85.7302 60.3219 82.8632 60.3219C79.9962 60.3219 77.2467 59.2732 75.2194 57.4065C73.1921 55.5399 72.0532 53.0081 72.0532 50.3682C72.0532 47.7283 73.1921 45.1965 75.2194 43.3298C77.2467 41.4631 79.9962 40.4144 82.8632 40.4144C85.7302 40.4144 88.4798 41.4631 90.507 43.3298C92.5343 45.1965 93.6732 47.7283 93.6732 50.3682ZM82.8626 57.8838C83.6022 57.8838 84.3345 57.6895 85.0178 57.3119C85.7011 56.9342 86.322 56.3808 86.8449 55.6831C87.3679 54.9854 87.7827 54.1571 88.0658 53.2454C88.3488 52.3338 88.4945 51.3568 88.4945 50.3701C88.4945 49.3833 88.3488 48.4063 88.0658 47.4947C87.7827 46.5831 87.3679 45.7547 86.8449 45.057C86.322 44.3593 85.7011 43.8059 85.0178 43.4283C84.3345 43.0507 83.6022 42.8563 82.8626 42.8563C81.3689 42.8563 79.9364 43.6479 78.8803 45.057C77.8241 46.4661 77.2307 48.3773 77.2307 50.3701C77.2307 52.3628 77.8241 54.274 78.8803 55.6831C79.9364 57.0922 81.3689 57.8838 82.8626 57.8838Z" fill="white"/>
<path d="M14.3568 43.0719C12.8656 42.7862 11.2731 43.0281 10.2825 44.2212C9.8256 44.7719 9.51247 45.5156 9.30372 46.2106C9.2131 46.5125 9.19185 46.8656 9.12247 47.2031C9.1124 47.2519 9.08583 47.2956 9.04723 47.3271C9.00863 47.3585 8.96037 47.3756 8.9106 47.3756C8.29726 47.374 7.6656 47.3754 7.0156 47.38C6.83935 47.3812 6.8056 47.32 6.80747 47.1494C6.82706 45.1423 6.81435 43.1356 6.76935 41.1294C6.76185 40.7987 7.46372 40.8287 7.65622 40.8444C8.15372 40.8852 8.50914 40.9058 8.72247 40.9062C14.4912 40.9171 20.26 40.9223 26.0287 40.9219C26.2181 40.9219 26.5406 40.8919 26.7918 40.9269C26.8368 40.9331 26.8593 40.959 26.8593 41.0044L26.8587 47.5806C26.8587 47.5993 26.855 47.6177 26.8479 47.635C26.8407 47.6522 26.8302 47.6678 26.8169 47.6809C26.8037 47.6941 26.7879 47.7045 26.7707 47.7115C26.7534 47.7185 26.7349 47.722 26.7162 47.7219L24.8937 47.7112C24.8533 47.7109 24.8146 47.6947 24.786 47.666C24.7575 47.6373 24.7414 47.5986 24.7412 47.5581C24.7343 45.8331 23.9268 43.9625 22.1881 43.3631C21.266 43.0452 20.3021 42.9529 19.2962 43.0862C19.2829 43.0879 19.2707 43.0944 19.2619 43.1046C19.253 43.1147 19.2481 43.1277 19.2481 43.1412C19.2506 47.0179 19.251 50.9 19.2493 54.7875C19.2489 55.3879 19.2698 55.7567 19.3118 55.8937C19.4493 56.3456 19.8868 56.7206 20.3918 56.72C21.2637 56.7187 22.185 56.6669 23.0506 56.74C23.0881 56.7433 23.1068 56.764 23.1068 56.8019L23.1081 58.8687C23.1081 58.895 23.095 58.9081 23.0687 58.9081L10.7387 58.9019C10.7296 58.9019 10.7206 58.9001 10.7123 58.8966C10.7039 58.8931 10.6963 58.888 10.6899 58.8815C10.6835 58.8751 10.6784 58.8674 10.675 58.859C10.6716 58.8506 10.6699 58.8416 10.67 58.8325L10.6925 56.7631C10.6928 56.7271 10.7073 56.6927 10.7328 56.6674C10.7583 56.642 10.7927 56.6277 10.8287 56.6275C11.5225 56.625 12.1977 56.6242 12.8543 56.625C13.4231 56.6262 13.8225 56.53 14.2056 56.1562C14.3912 55.975 14.4212 55.7494 14.4212 55.4694C14.4221 51.3644 14.4223 47.2581 14.4218 43.1506C14.4219 43.132 14.4154 43.1139 14.4035 43.0995C14.3917 43.0851 14.3752 43.0754 14.3568 43.0719Z" fill="white"/>
<path d="M63.1539 43.3763C63.1457 43.4469 63.1257 43.5382 63.1257 43.61C63.1249 47.5371 63.1249 51.464 63.1257 55.3907C63.1257 55.6694 63.1276 55.9644 63.2101 56.2175C63.378 56.7321 63.7518 56.9859 64.3314 56.9788C65.191 56.9684 66.0445 56.9654 66.892 56.97C66.9083 56.9702 66.9239 56.9768 66.9353 56.9884C66.9468 57 66.9532 57.0156 66.9532 57.0319V59.1094C66.9532 59.1307 66.9428 59.1413 66.922 59.1413L54.5495 59.1407C54.5377 59.1407 54.5263 59.136 54.5179 59.1277C54.5095 59.1194 54.5047 59.1081 54.5045 59.0963L54.4882 56.95C54.4882 56.9426 54.4896 56.9352 54.4924 56.9282C54.4952 56.9213 54.4994 56.915 54.5046 56.9096C54.5099 56.9043 54.5162 56.9 54.5232 56.8971C54.5301 56.8942 54.5376 56.8926 54.5451 56.8925C55.2126 56.8909 55.882 56.8857 56.5532 56.8769C57.0532 56.8707 57.3882 56.8325 57.5582 56.7625C57.9895 56.5844 58.2657 56.185 58.2657 55.7057C58.2662 51.6536 58.2657 47.6019 58.2645 43.5507C58.2645 43.2969 58.142 43.305 57.9245 43.2738C57.1057 43.1544 56.2239 43.1907 55.4701 43.4875C53.7814 44.1519 53.1964 45.9344 52.9814 47.5819C52.978 47.6052 52.9649 47.6169 52.942 47.6169L50.7426 47.615C50.6922 47.615 50.667 47.5898 50.667 47.5394L50.6845 41.2525C50.6845 41.1875 50.7172 41.155 50.7826 41.155C57.283 41.1559 63.7722 41.1596 70.2501 41.1663C70.388 41.1663 70.5268 41.169 70.6664 41.1744C70.6771 41.1747 70.6873 41.1793 70.6947 41.1871C70.7022 41.1949 70.7064 41.2054 70.7064 41.2163L70.7107 47.8907C70.7107 47.9282 70.6949 47.9469 70.6632 47.9469L68.7139 47.9513C68.6945 47.9513 68.6758 47.9437 68.6619 47.9302C68.648 47.9166 68.64 47.8982 68.6395 47.8788C68.6082 46.3475 68.0076 44.7388 66.6582 43.8938C65.6732 43.2763 64.3357 43.1894 63.207 43.3238C63.1935 43.3252 63.1809 43.3312 63.1713 43.3408C63.1616 43.3503 63.1555 43.3628 63.1539 43.3763Z" fill="white"/>
</svg>
