<svg width="100" height="100" viewBox="0 0 100 100" fill="none" xmlns="http://www.w3.org/2000/svg">
<g clip-path="url(#clip0_105_1870)">
<rect width="100" height="100" fill="#FACE9D"/>
<g clip-path="url(#clip1_105_1870)">
<path d="M48.1504 0H52.2536C78.9618 2.10838 99.2123 21.7971 100.5 48.6631V52.7536C98.5936 79.4365 78.5262 99.7628 51.6854 101H47.9043C21.215 99.2578 0.869813 79.1651 -0.5 52.3496V48.2464C1.47581 21.5824 21.3539 1.32562 48.1504 0Z" fill="#FACE9D"/>
<path d="M37.0845 22.1631C39.256 25.0963 40.165 28.362 39.8115 31.9601C39.8066 32.0009 39.8139 32.0423 39.8324 32.079C39.8509 32.1156 39.8799 32.146 39.9157 32.1662C39.9515 32.1865 39.9924 32.1957 40.0334 32.1927C40.0744 32.1897 40.1136 32.1747 40.146 32.1495C46.4038 27.4783 52.9057 27.1479 59.6517 31.1585C59.8957 31.3015 60.022 31.2321 60.0304 30.9501C60.1356 27.5161 61.1793 24.4588 63.1614 21.7781" stroke="#AF7583" stroke-width="1.2625"/>
<path d="M81.0512 41.6372C76.6956 44.1075 72.241 44.3369 67.6876 42.3253C67.6474 42.3068 67.6025 42.3009 67.5589 42.3083C67.5152 42.3156 67.4748 42.3359 67.4428 42.3666C67.4108 42.3972 67.3888 42.4367 67.3795 42.48C67.3703 42.5233 67.3743 42.5683 67.3909 42.6093C68.4683 45.349 69.1963 48.1791 69.5751 51.0996C69.5867 51.196 69.6231 51.2875 69.6807 51.3651C69.7383 51.4426 69.8151 51.5034 69.9033 51.5415C71.4688 52.2401 72.7818 53.2648 73.8423 54.6157C73.8607 54.6386 73.8714 54.6667 73.8728 54.6961C73.8743 54.7255 73.8663 54.7545 73.8502 54.7791C73.834 54.8036 73.8105 54.8224 73.783 54.8328C73.7555 54.8431 73.7254 54.8445 73.6971 54.8366L70.3957 54.0097C70.1221 53.9424 69.9285 54.0371 69.8149 54.2938C69.1079 55.8908 71.0964 56.4463 72.1758 56.5978C72.2363 56.606 72.293 56.6322 72.3384 56.6731C72.3838 56.714 72.4157 56.7677 72.4301 56.8271C72.4444 56.8864 72.4405 56.9488 72.4187 57.0059C72.397 57.063 72.3585 57.1122 72.3084 57.147C71.6308 57.6268 70.8796 57.8309 70.0548 57.7593C69.9673 57.7514 69.8794 57.7651 69.799 57.7993C69.7185 57.8334 69.6481 57.887 69.594 57.955C69.1774 58.479 69.07 59.5016 68.887 59.8993C67.6876 62.4832 65.979 64.6947 63.7612 66.5337C63.534 66.7189 63.5677 66.803 63.8622 66.7862C69.0385 66.4516 72.0937 66.2244 76.0454 70.1381" stroke="#AF7583" stroke-width="1.2625"/>
<path d="M56.3629 82.9399C54.2419 78.2687 55.738 74.3486 58.3703 70.2518C58.5344 69.9909 58.4755 69.9193 58.1936 70.0372C52.6891 72.3055 47.2119 72.2655 41.7621 69.9172C41.5223 69.812 41.4802 69.8646 41.6359 70.075C44.5523 73.913 45.7643 78.2055 43.9778 82.8137" stroke="#7A908F" stroke-width="1.2625"/>
<path d="M24.756 69.5953C28.1227 66.7 31.9754 65.7952 36.3142 66.8809C36.3649 66.8953 36.419 66.8917 36.4673 66.8706C36.5156 66.8495 36.5551 66.8122 36.5789 66.7652C36.6028 66.7183 36.6096 66.6644 36.5982 66.613C36.5867 66.5615 36.5577 66.5157 36.5162 66.4832C33.7892 64.2149 31.8408 61.408 30.6708 58.0624C30.5951 57.8477 30.4457 57.7594 30.2227 57.7972C29.1201 57.9824 28.0974 57.7509 27.1548 57.1029C27.1024 57.0661 27.0627 57.0139 27.0412 56.9536C27.0197 56.8932 27.0174 56.8277 27.0347 56.7661C27.0521 56.7044 27.0881 56.6496 27.1379 56.6093C27.1876 56.569 27.2487 56.5452 27.3126 56.541C28.2931 56.4905 29.1727 56.1518 29.9512 55.5247C30.106 55.4016 30.2139 55.2291 30.2569 55.036C30.2999 54.843 30.2755 54.641 30.1876 54.4638C30.0997 54.2866 29.9538 54.1448 29.7741 54.0622C29.5944 53.9796 29.3917 53.9611 29.2 54.0097L25.968 54.824C25.9257 54.8338 25.8814 54.8301 25.8413 54.8134C25.8012 54.7968 25.7673 54.768 25.7444 54.7312C25.7214 54.6943 25.7106 54.6512 25.7133 54.6079C25.7161 54.5645 25.7323 54.5231 25.7597 54.4895C26.9254 53.1176 28.3457 52.0886 30.0207 51.4027C30.2227 51.3185 30.3384 51.167 30.3678 50.9482C30.7592 47.9771 31.6177 45.1491 32.9433 42.4642C33.1159 42.1107 33.0233 42.016 32.6656 42.1801C28.4278 44.0949 24.1942 44.1159 19.9648 42.2432" stroke="#AF7583" stroke-width="1.2625"/>
<path d="M37.0845 22.1631C39.256 25.0964 40.165 28.362 39.8115 31.9601C39.8066 32.001 39.8139 32.0423 39.8324 32.079C39.851 32.1156 39.88 32.146 39.9157 32.1663C39.9515 32.1865 39.9924 32.1957 40.0334 32.1927C40.0744 32.1898 40.1136 32.1747 40.1461 32.1495C46.4039 27.4783 52.9057 27.1479 59.6517 31.1585C59.8958 31.3015 60.022 31.2321 60.0304 30.9501C60.1356 27.5161 61.1793 24.4588 63.1614 21.7781C77.4845 6.76065 98.2084 29.6687 81.0511 41.6372C76.6954 44.1075 72.2409 44.3369 67.6875 42.3253C67.6473 42.3068 67.6024 42.3009 67.5588 42.3083C67.5151 42.3156 67.4747 42.3359 67.4427 42.3666C67.4107 42.3972 67.3887 42.4367 67.3794 42.48C67.3702 42.5233 67.3741 42.5683 67.3908 42.6093C68.4681 45.349 69.1962 48.1791 69.5749 51.0996C69.5866 51.196 69.623 51.2875 69.6806 51.3651C69.7382 51.4426 69.8149 51.5034 69.9032 51.5415C71.4687 52.2401 72.7817 53.2648 73.8422 54.6157C73.8606 54.6386 73.8713 54.6667 73.8727 54.6961C73.8741 54.7255 73.8662 54.7545 73.8501 54.7791C73.8339 54.8036 73.8104 54.8224 73.7829 54.8328C73.7554 54.8431 73.7253 54.8445 73.697 54.8366L70.3956 54.0097C70.122 53.9424 69.9284 54.0371 69.8148 54.2938C69.1078 55.8908 71.0962 56.4463 72.1757 56.5978C72.2362 56.606 72.2929 56.6322 72.3383 56.6731C72.3837 56.714 72.4156 56.7677 72.43 56.8271C72.4443 56.8864 72.4403 56.9488 72.4186 57.0059C72.3969 57.063 72.3584 57.1122 72.3083 57.147C71.6307 57.6268 70.8795 57.8309 70.0547 57.7593C69.9672 57.7514 69.8793 57.7651 69.7989 57.7993C69.7184 57.8334 69.648 57.887 69.5939 57.955C69.1772 58.479 69.0699 59.5016 68.8869 59.8993C67.6875 62.4832 65.9789 64.6947 63.7611 66.5337C63.5339 66.7189 63.5675 66.803 63.8621 66.7862C69.0384 66.4516 72.0936 66.2244 76.0453 70.1381C77.6297 74.134 75.9821 78.4517 70.9195 76.5958C70.6922 76.5117 70.5849 76.5916 70.5976 76.8357C70.7869 81.1661 66.4881 83.0156 63.0478 80.7621C62.85 80.6316 62.7069 80.6779 62.6186 80.901C61.3266 84.1161 59.2414 84.7958 56.3629 82.9399C54.2419 78.2686 55.7379 74.3486 58.3703 70.2518C58.5344 69.9909 58.4755 69.9193 58.1935 70.0371C52.689 72.3054 47.2119 72.2655 41.7621 69.9172C41.5222 69.812 41.4801 69.8646 41.6358 70.075C44.5522 73.913 45.7642 78.2055 43.9777 82.8137C40.872 84.9136 38.7657 84.2508 37.6589 80.8252C37.5832 80.5937 37.4506 80.5538 37.2612 80.7053C33.9093 83.2934 29.6042 81.2166 29.6357 76.9809C29.6357 76.741 29.52 76.6505 29.2886 76.7095C24.1249 78.1108 21.8019 73.7489 24.7562 69.5953C28.1229 66.6999 31.9756 65.7951 36.3144 66.8809C36.3651 66.8953 36.4192 66.8916 36.4675 66.8705C36.5158 66.8494 36.5552 66.8122 36.5791 66.7652C36.603 66.7182 36.6098 66.6644 36.5983 66.613C36.5869 66.5615 36.5579 66.5157 36.5164 66.4832C33.7894 64.2149 31.8409 61.408 30.671 58.0623C30.5952 57.8477 30.4459 57.7593 30.2228 57.7972C29.1202 57.9824 28.0976 57.7509 27.1549 57.1028C27.1025 57.066 27.0628 57.0139 27.0413 56.9535C27.0198 56.8932 27.0176 56.8277 27.0349 56.766C27.0522 56.7044 27.0882 56.6496 27.138 56.6093C27.1878 56.569 27.2488 56.5451 27.3127 56.541C28.2933 56.4905 29.1728 56.1517 29.9514 55.5247C30.1062 55.4016 30.2141 55.2291 30.2571 55.036C30.3001 54.843 30.2756 54.641 30.1878 54.4638C30.0999 54.2866 29.9539 54.1448 29.7742 54.0622C29.5945 53.9796 29.3919 53.961 29.2002 54.0097L25.9682 54.824C25.9259 54.8338 25.8816 54.8301 25.8415 54.8134C25.8014 54.7968 25.7675 54.768 25.7445 54.7311C25.7216 54.6943 25.7107 54.6512 25.7135 54.6078C25.7162 54.5645 25.7324 54.5231 25.7599 54.4895C26.9256 53.1175 28.3459 52.0886 30.0208 51.4026C30.2228 51.3185 30.3385 51.167 30.368 50.9481C30.7594 47.9771 31.6179 45.1491 32.9435 42.4641C33.116 42.1106 33.0235 42.016 32.6658 42.1801C28.428 44.0949 24.1944 44.1159 19.965 42.2432C6.40575 34.624 13.2232 14.9353 28.3038 17.1258C31.6999 17.6181 34.6268 19.2973 37.0845 22.1631Z" fill="#B0B6AF"/>
<path d="M67.8766 79.9678C66.4788 80.7901 64.2877 79.9594 62.8313 78.0324C62.9285 78.0157 62.7329 78.0518 62.8313 78.0324C62.5392 80.6098 60.7301 82.5439 59.0036 82.3619C57.2645 82.1786 56.0773 79.9177 56.3519 77.3119C56.4283 76.5875 56.6095 75.9127 56.8689 75.3199C57.0359 74.7923 57.2573 74.3079 57.5186 73.8808C58.2959 72.1967 60.1865 70.3937 62.7239 69.1206C65.4024 67.7767 68.1234 67.3636 69.9471 67.8648C70.7787 68.013 71.6602 68.3476 72.5024 68.8699C74.9138 70.3653 76.0896 72.8337 75.1287 74.3831C74.2313 75.8301 71.7428 76.3256 69.4594 75.1187C69.7098 74.9311 69.2333 75.3145 69.4594 75.1187C70.1263 77.1064 69.1376 79.2259 67.8766 79.9678Z" fill="#F8F9F4"/>
<path d="M76.6419 36.9397C80.7701 34.8544 82.7934 30.5445 81.1611 27.3132C79.5289 24.0818 74.8591 23.1528 70.731 25.2381C66.6029 27.3233 64.5796 31.6333 66.2118 34.8646C67.8441 38.0959 72.5138 39.025 76.6419 36.9397Z" fill="#F8F9F4"/>
<path d="M23.8507 36.6066C27.8861 38.6627 32.4602 37.7729 34.0671 34.619C35.6741 31.4652 33.7054 27.2416 29.67 25.1855C25.6346 23.1294 21.0606 24.0192 19.4536 27.1731C17.8467 30.3269 19.8153 34.5504 23.8507 36.6066Z" fill="#F8F9F4"/>
<path d="M45.5962 45.0932C45.9592 45.9047 45.92 46.8562 45.4872 47.7384C45.0545 48.6207 44.2636 49.3613 43.2886 49.7974C42.3136 50.2336 41.2343 50.3295 40.2881 50.0641C39.342 49.7987 38.6066 49.1937 38.2436 48.3822C37.8806 47.5707 37.9198 46.6192 38.3526 45.737C38.7853 44.8547 39.5762 44.1141 40.5512 43.678C41.5262 43.2418 42.6055 43.1459 43.5517 43.4113C44.4978 43.6767 45.2332 44.2817 45.5962 45.0932Z" fill="#F2F2F2"/>
<path d="M61.4639 49.6383C60.8543 50.2807 59.9623 50.6052 58.9842 50.5404C58.0061 50.4755 57.0221 50.0267 56.2485 49.2926C55.4749 48.5585 54.9752 47.5993 54.8593 46.6259C54.7434 45.6526 55.0208 44.7449 55.6304 44.1025C56.24 43.4601 57.132 43.1356 58.1101 43.2004C59.0881 43.2652 60.0722 43.7141 60.8458 44.4481C61.6193 45.1822 62.1191 46.1415 62.235 47.1148C62.3509 48.0881 62.0735 48.9959 61.4639 49.6383Z" fill="#F2F2F2"/>
<path d="M44.0514 45.588C44.2554 46.0616 44.2238 46.6136 43.9635 47.1227C43.7033 47.6318 43.2358 48.0562 42.6638 48.3025C42.3805 48.4245 42.0802 48.4991 41.7799 48.522C41.4796 48.545 41.1852 48.5158 40.9135 48.4363C40.6418 48.3567 40.3981 48.2283 40.1965 48.0583C39.9948 47.8883 39.839 47.6802 39.738 47.4457C39.534 46.9721 39.5656 46.42 39.8259 45.911C40.0861 45.4019 40.5537 44.9775 41.1257 44.7312C41.4089 44.6092 41.7092 44.5346 42.0095 44.5116C42.3099 44.4887 42.6043 44.5178 42.876 44.5974C43.1476 44.677 43.3913 44.8054 43.593 44.9754C43.7947 45.1453 43.9504 45.3535 44.0514 45.588Z" fill="black"/>
<path d="M60.2612 48.2873C59.9159 48.6748 59.4016 48.8832 58.8313 48.8666C58.261 48.85 57.6815 48.6098 57.2202 48.1989C56.9918 47.9954 56.7994 47.7561 56.6538 47.4947C56.5082 47.2332 56.4124 46.9548 56.3717 46.6752C56.3311 46.3957 56.3465 46.1205 56.4171 45.8653C56.4876 45.6102 56.6119 45.3801 56.7828 45.1882C57.1281 44.8007 57.6424 44.5924 58.2127 44.609C58.783 44.6255 59.3625 44.8657 59.8238 45.2767C60.0522 45.4802 60.2446 45.7195 60.3902 45.9809C60.5358 46.2423 60.6316 46.5208 60.6723 46.8003C60.7129 47.0799 60.6975 47.3551 60.6269 47.6102C60.5564 47.8654 60.4321 48.0954 60.2612 48.2873Z" fill="black"/>
<path d="M42.171 47.3079C42.7099 47.117 43.0204 46.6053 42.8645 46.1649C42.7085 45.7246 42.1452 45.5223 41.6062 45.7131C41.0673 45.904 40.7568 46.4157 40.9127 46.8561C41.0687 47.2964 41.632 47.4987 42.171 47.3079Z" fill="#F2F2F2"/>
<path d="M57.9833 47.1911C58.2987 47.5591 58.8011 47.6458 59.1055 47.3849C59.4099 47.124 59.401 46.6142 59.0857 46.2463C58.7703 45.8784 58.2679 45.7916 57.9635 46.0525C57.6591 46.3134 57.6679 46.8232 57.9833 47.1911Z" fill="#F2F2F2"/>
<path fill-rule="evenodd" clip-rule="evenodd" d="M60.0305 30.9501C60.1357 27.5161 61.1793 24.4588 63.1615 21.778C54.4839 18.1883 45.7916 18.3167 37.0845 22.1631C39.256 25.0963 40.165 28.362 39.8115 31.9601C39.8066 32.0009 39.8139 32.0423 39.8325 32.0789C39.851 32.1156 39.88 32.146 39.9158 32.1662C39.9515 32.1865 39.9925 32.1957 40.0335 32.1927C40.0744 32.1897 40.1136 32.1747 40.1461 32.1495C46.4039 27.4782 52.9058 27.1479 59.6517 31.1584C59.8958 31.3015 60.0221 31.2321 60.0305 30.9501ZM76.0451 70.1381C82.2313 61.5531 83.8999 52.0528 81.0509 41.6372C76.6953 44.1075 72.2407 44.3368 67.6873 42.3252C67.6471 42.3068 67.6022 42.3009 67.5586 42.3082C67.5149 42.3156 67.4745 42.3359 67.4425 42.3665C67.4105 42.3971 67.3885 42.4366 67.3793 42.4799C67.37 42.5232 67.374 42.5683 67.3906 42.6093C68.468 45.3489 69.196 48.179 69.5748 51.0996C69.5864 51.196 69.6228 51.2875 69.6804 51.365C69.738 51.4426 69.8148 51.5034 69.903 51.5415C71.4685 52.2401 72.7815 53.2648 73.842 54.6157C73.8604 54.6386 73.8711 54.6667 73.8726 54.6961C73.874 54.7254 73.866 54.7545 73.8499 54.779C73.8338 54.8036 73.8102 54.8224 73.7827 54.8327C73.7552 54.8431 73.7252 54.8444 73.6968 54.8366L70.3954 54.0097C70.1218 53.9423 69.9283 54.037 69.8146 54.2937C69.1076 55.8908 71.0961 56.4463 72.1755 56.5978C72.2361 56.6059 72.2927 56.6322 72.3381 56.6731C72.3835 56.714 72.4155 56.7676 72.4298 56.827C72.4441 56.8864 72.4402 56.9487 72.4184 57.0058C72.3967 57.0629 72.3583 57.1121 72.3081 57.147C71.6305 57.6267 70.8793 57.8308 70.0545 57.7593C69.967 57.7514 69.8791 57.7651 69.7987 57.7992C69.7183 57.8334 69.6478 57.8869 69.5937 57.955C69.3228 58.2957 69.1827 58.8472 69.0675 59.3007C69.0055 59.5446 68.9507 59.7601 68.8867 59.8992C67.6873 62.4832 65.9787 64.6946 63.761 66.5337C63.5337 66.7188 63.5674 66.803 63.8619 66.7862L63.9713 66.7791C69.0814 66.4486 72.1214 66.252 76.0451 70.1381ZM24.7562 69.5953C19.0076 61.2923 17.4105 52.1749 19.965 42.2433C24.1943 44.116 28.4279 44.0949 32.6657 42.1802C33.0234 42.016 33.116 42.1107 32.9435 42.4642C31.6178 45.1491 30.7593 47.9771 30.368 50.9482C30.3385 51.1671 30.2228 51.3186 30.0208 51.4027C28.3459 52.0887 26.9255 53.1176 25.7598 54.4895C25.7324 54.5232 25.7162 54.5646 25.7134 54.6079C25.7107 54.6512 25.7215 54.6944 25.7445 54.7312C25.7674 54.7681 25.8013 54.7968 25.8414 54.8135C25.8815 54.8301 25.9258 54.8339 25.9682 54.8241L29.2002 54.0098C29.3919 53.9611 29.5945 53.9796 29.7742 54.0623C29.9539 54.1449 30.0999 54.2866 30.1877 54.4638C30.2756 54.641 30.3001 54.843 30.257 55.0361C30.214 55.2292 30.1061 55.4016 29.9513 55.5248C29.1728 56.1518 28.2933 56.4906 27.3127 56.5411C27.2488 56.5452 27.1877 56.5691 27.138 56.6094C27.0882 56.6497 27.0522 56.7045 27.0349 56.7661C27.0175 56.8278 27.0198 56.8933 27.0413 56.9536C27.0628 57.0139 27.1025 57.0661 27.1549 57.1029C28.0976 57.751 29.1202 57.9824 30.2228 57.7973C30.4458 57.7594 30.5952 57.8478 30.671 58.0624C31.8409 61.408 33.7893 64.215 36.5163 66.4833C36.5579 66.5157 36.5868 66.5616 36.5983 66.613C36.6097 66.6645 36.6029 66.7183 36.5791 66.7653C36.5552 66.8123 36.5157 66.8495 36.4674 66.8706C36.4192 66.8917 36.365 66.8954 36.3143 66.881C31.9755 65.7952 28.1228 66.7 24.7562 69.5953ZM53.3385 57.1174C53.3653 58.3966 51.9431 59.4639 50.162 59.5012C48.3809 59.5385 46.9153 58.5317 46.8885 57.2525C46.8617 55.9733 48.2839 54.9061 50.065 54.8688C51.8461 54.8315 53.3117 55.8382 53.3385 57.1174Z" fill="#E84D6C"/>
<path d="M56.3629 82.9399C52.2262 84.0762 48.0978 84.0341 43.9778 82.8137C45.7643 78.2055 44.5523 73.913 41.6359 70.075C41.4802 69.8646 41.5223 69.812 41.7621 69.9172C47.2119 72.2655 52.6891 72.3055 58.1936 70.0372C58.4755 69.9193 58.5344 69.9909 58.3703 70.2518C55.738 74.3486 54.2419 78.2687 56.3629 82.9399Z" fill="#6E8080"/>
<path d="M32.6454 79.9678C34.0432 80.7901 36.2343 79.9594 37.6907 78.0324C37.5934 78.0157 37.7891 78.0518 37.6907 78.0324C37.9828 80.6098 39.7919 82.5439 41.5184 82.3619C43.2574 82.1786 44.4446 79.9177 44.17 77.3119C44.0937 76.5875 43.9124 75.9127 43.6531 75.3199C43.4861 74.7923 43.2647 74.3079 43.0034 73.8808C42.226 72.1967 40.3355 70.3937 37.7981 69.1206C35.1196 67.7767 32.3986 67.3636 30.5749 67.8648C29.7433 68.013 28.8618 68.3476 28.0196 68.8699C25.6082 70.3653 24.4323 72.8337 25.3932 74.3831C26.2906 75.8301 28.7792 76.3256 31.0625 75.1187C30.8122 74.9311 31.2887 75.3145 31.0625 75.1187C30.3957 77.1064 31.3844 79.2259 32.6454 79.9678Z" fill="#F8F9F4"/>
</g>
</g>
<defs>
<clipPath id="clip0_105_1870">
<rect width="100" height="100" fill="white"/>
</clipPath>
<clipPath id="clip1_105_1870">
<rect width="101" height="101" fill="white" transform="translate(-0.5)"/>
</clipPath>
</defs>
</svg>
