<svg width="100" height="100" viewBox="0 0 100 100" fill="none" xmlns="http://www.w3.org/2000/svg">
<rect width="100" height="100" fill="#595C62"/>
<path d="M23.0577 58V43.7266H17.96V40.8203H31.6123V43.7266H26.5264V58H23.0577ZM34.2223 58V40.8203H39.7887C41.8981 40.8203 43.2731 40.9062 43.9137 41.0781C44.8981 41.3359 45.7223 41.8984 46.3864 42.7656C47.0505 43.625 47.3825 44.7383 47.3825 46.1055C47.3825 47.1602 47.1911 48.0469 46.8083 48.7656C46.4255 49.4844 45.9372 50.0508 45.3434 50.4648C44.7575 50.8711 44.1598 51.1406 43.5505 51.2734C42.7223 51.4375 41.5231 51.5195 39.9528 51.5195H37.6911V58H34.2223ZM37.6911 43.7266V48.6016H39.5895C40.9567 48.6016 41.8708 48.5117 42.3317 48.332C42.7927 48.1523 43.152 47.8711 43.4098 47.4883C43.6755 47.1055 43.8083 46.6602 43.8083 46.1523C43.8083 45.5273 43.6247 45.0117 43.2575 44.6055C42.8903 44.1992 42.4255 43.9453 41.863 43.8438C41.4489 43.7656 40.6169 43.7266 39.3669 43.7266H37.6911ZM50.5902 58V40.8203H63.3284V43.7266H54.0589V47.5352H62.6839V50.4297H54.0589V55.1055H63.6566V58H50.5902ZM66.9931 58V40.8203H70.3681L77.3994 52.293V40.8203H80.622V58H77.1416L70.2158 46.7969V58H66.9931Z" fill="#F8F8F8"/>
</svg>
