<svg width="100" height="100" viewBox="0 0 100 100" fill="none" xmlns="http://www.w3.org/2000/svg">
<rect width="100" height="100" fill="#595C62"/>
<path d="M23.7256 58V43.7266H18.628V40.8203H32.2803V43.7266H27.1944V58H23.7256ZM34.8903 58V40.8203H40.4567C42.5661 40.8203 43.9411 40.9062 44.5817 41.0781C45.5661 41.3359 46.3903 41.8984 47.0544 42.7656C47.7184 43.625 48.0505 44.7383 48.0505 46.1055C48.0505 47.1602 47.8591 48.0469 47.4762 48.7656C47.0934 49.4844 46.6052 50.0508 46.0114 50.4648C45.4255 50.8711 44.8278 51.1406 44.2184 51.2734C43.3903 51.4375 42.1911 51.5195 40.6208 51.5195H38.3591V58H34.8903ZM38.3591 43.7266V48.6016H40.2575C41.6247 48.6016 42.5387 48.5117 42.9997 48.332C43.4606 48.1523 43.82 47.8711 44.0778 47.4883C44.3434 47.1055 44.4762 46.6602 44.4762 46.1523C44.4762 45.5273 44.2927 45.0117 43.9255 44.6055C43.5583 44.1992 43.0934 43.9453 42.5309 43.8438C42.1169 43.7656 41.2848 43.7266 40.0348 43.7266H38.3591ZM51.2816 58V40.8203H63.0589V43.7266H54.7503V47.793H61.9222V50.6992H54.7503V58H51.2816ZM77.2822 51.6836L80.6455 52.75C80.1298 54.625 79.2705 56.0195 78.0673 56.9336C76.872 57.8398 75.3525 58.293 73.5088 58.293C71.2275 58.293 69.3525 57.5156 67.8838 55.9609C66.415 54.3984 65.6806 52.2656 65.6806 49.5625C65.6806 46.7031 66.4189 44.4844 67.8955 42.9062C69.372 41.3203 71.3134 40.5273 73.7197 40.5273C75.8213 40.5273 77.5283 41.1484 78.8408 42.3906C79.622 43.125 80.208 44.1797 80.5986 45.5547L77.165 46.375C76.9619 45.4844 76.5361 44.7812 75.8877 44.2656C75.247 43.75 74.4658 43.4922 73.5439 43.4922C72.2705 43.4922 71.2353 43.9492 70.4384 44.8633C69.6494 45.7773 69.2548 47.2578 69.2548 49.3047C69.2548 51.4766 69.6455 53.0234 70.4267 53.9453C71.208 54.8672 72.2236 55.3281 73.4736 55.3281C74.3955 55.3281 75.1884 55.0352 75.8525 54.4492C76.5166 53.8633 76.9931 52.9414 77.2822 51.6836Z" fill="#F8F8F8"/>
</svg>
