<svg width="100" height="100" viewBox="0 0 100 100" fill="none" xmlns="http://www.w3.org/2000/svg">
<rect width="100" height="100" fill="#1E2B46"/>
<path d="M23.6873 17.3917C23.6721 17.3812 23.6595 17.3672 23.6507 17.3509C23.6418 17.3347 23.6369 17.3165 23.6363 17.298C23.6357 17.2795 23.6395 17.2611 23.6473 17.2442C23.6551 17.2274 23.6668 17.2127 23.6813 17.2012C39.2918 4.77073 61.5352 4.87723 76.8711 17.8717C76.9121 17.9077 76.9111 17.9422 76.8681 17.9752C74.1636 20.0722 70.3911 21.6187 66.9411 21.1252C66.1751 21.0152 65.1496 20.7912 63.8647 20.4532C62.0067 19.9632 60.1492 19.4697 58.2922 18.9727C54.0157 17.8267 49.2322 17.2327 44.8297 17.8882C44.1537 17.9892 43.1762 18.1982 41.8972 18.5152C39.2553 19.1702 37.4503 19.6112 36.4823 19.8382C31.9328 20.9062 27.5423 20.0662 23.6873 17.3917Z" fill="#4BC0D5"/>
<path d="M27.7621 21.7837C31.6111 23.2732 36.8311 22.3822 40.842 21.3157C42.2685 20.9362 43.731 20.4232 45.12 20.2267C48.957 19.6837 52.6365 19.9117 56.4015 20.7892C60.0104 21.6307 63.6329 22.6312 67.3244 23.0242C71.1284 23.4277 75.6194 21.5812 78.6614 19.5532C78.7044 19.5252 78.7444 19.5292 78.7814 19.5652C81.0514 21.7462 83.0588 24.1462 84.8038 26.7652C84.8153 26.7822 84.8203 26.8027 84.8178 26.8229C84.8153 26.8431 84.8055 26.8615 84.7903 26.8747C82.5143 28.8367 80.1219 30.6507 77.6129 32.3167C73.3394 35.1562 67.9124 35.3197 62.8799 36.2947C59.1315 37.0207 55.3425 37.9312 51.552 38.3752C46.764 38.9347 41.7555 37.6867 37.5496 35.4037C33.8371 33.3892 30.3976 31.3237 26.2426 29.7382C22.6981 28.3852 19.0651 27.0667 15.3467 26.2777C15.3396 26.2761 15.3331 26.2729 15.3276 26.2683C15.3221 26.2637 15.3178 26.2579 15.3152 26.2513C15.3125 26.2448 15.3115 26.2378 15.3123 26.2308C15.3131 26.2239 15.3156 26.2174 15.3197 26.2117C17.1631 23.5252 19.4176 20.8372 21.9046 18.7102C21.9225 18.6944 21.9453 18.6852 21.9692 18.6841C21.9932 18.683 22.017 18.6901 22.0366 18.7042C23.8596 19.9852 25.7681 21.0117 27.7621 21.7837Z" fill="#2477B9"/>
<path d="M82.8811 47.1697C81.2161 48.8752 79.3066 50.4802 77.1751 51.5752C74.1202 53.1452 71.0967 54.4332 68.1047 55.4392C64.0727 56.7967 59.8652 57.2827 55.6937 56.2492C50.6823 55.0087 45.7533 53.0332 40.9383 51.1822C34.7688 48.8122 27.9544 48.9937 21.4159 48.8767C21.0669 48.8697 20.2959 48.7912 19.1029 48.6412C15.0274 48.1282 12.1924 46.0477 8.91796 43.4812C8.79696 43.3862 8.69646 43.3162 8.61646 43.2712C8.59124 43.2561 8.57115 43.2339 8.55883 43.2074C8.54651 43.1809 8.54255 43.1513 8.54746 43.1227C9.39845 37.9357 11.1549 33.0807 13.8169 28.5577C13.8545 28.4936 13.9105 28.4424 13.9777 28.4108C14.0449 28.3792 14.1201 28.3687 14.1934 28.3807C18.8614 29.1367 23.3749 30.7432 27.5914 32.8462C31.8438 34.9672 36.1083 37.2982 40.5828 38.9092C44.5683 40.3462 48.5433 40.7632 52.8783 40.3582C56.9417 39.9787 60.4817 39.5887 64.0937 38.8042C66.4297 38.2972 68.7662 37.7902 71.1032 37.2832C77.0431 35.9947 81.6196 32.8027 85.7986 28.5277C85.8071 28.519 85.8175 28.5124 85.8291 28.5085C85.8406 28.5045 85.8529 28.5033 85.8651 28.5049C85.8773 28.5065 85.8889 28.5108 85.8993 28.5177C85.9096 28.5245 85.9183 28.5335 85.9246 28.5442C87.6666 31.5022 89.0291 34.6262 90.0121 37.9162C90.0271 37.9672 90.0206 38.0157 89.9926 38.0617C87.9541 41.3092 85.5586 44.4262 82.8811 47.1697Z" fill="#243F7A"/>
<path d="M59.8955 67.2771C56.306 67.1106 52.442 66.9771 49.0536 67.2486C48.2576 67.3116 47.3231 67.4966 46.2501 67.8036C41.6471 69.1176 38.3696 69.9956 36.4176 70.4376C33.9726 70.9911 32.1531 71.2656 29.7906 71.0676C25.8577 70.7376 22.0677 69.8231 18.4207 68.3241C16.3222 67.4616 14.7607 66.4371 12.9322 64.8411C11.9282 63.9641 10.9162 63.0966 9.89624 62.2386C9.86024 62.2086 9.83574 62.1716 9.82274 62.1276C8.23675 56.8956 7.68575 51.5516 8.16975 46.0956C8.17076 46.0865 8.17445 46.0779 8.18037 46.0708C8.18628 46.0638 8.19415 46.0586 8.20298 46.0561C8.21181 46.0535 8.22121 46.0536 8.22998 46.0564C8.23875 46.0592 8.2465 46.0645 8.25225 46.0716C11.0647 49.9041 15.3877 51.5856 20.1022 51.3306C27.8062 50.9136 35.2881 51.3336 42.4476 54.2391C49.1526 56.9601 56.267 60.2511 63.677 58.8111C65.289 58.4981 67.3545 57.9686 69.8735 57.2226C76.5034 55.2591 83.0959 52.1211 87.0919 46.4211C88.3519 44.6251 89.5619 42.7981 90.7219 40.9401C90.726 40.9338 90.7319 40.9288 90.7389 40.9257C90.7459 40.9227 90.7536 40.9218 90.761 40.923C90.7685 40.9243 90.7755 40.9277 90.7811 40.9329C90.7866 40.9381 90.7905 40.9448 90.7924 40.9521C91.8424 45.8271 92.0314 50.7336 91.3594 55.6716C91.3234 55.9336 91.2374 56.1756 91.1014 56.3976C88.5224 60.5796 85.0634 63.7966 80.7244 66.0486C79.3609 66.7566 77.6344 67.1346 76.2034 67.3611C71.8065 68.0601 67.338 68.1246 62.798 67.5546C61.601 67.4046 60.6335 67.3121 59.8955 67.2771Z" fill="#4BC0D5"/>
<path d="M72.1251 69.8377C74.7951 70.0357 77.3046 69.7822 79.7886 68.7622C83.9346 67.0597 87.3095 64.0897 90.227 60.7627C90.2345 60.755 90.2443 60.7498 90.255 60.7482C90.2657 60.7465 90.2766 60.7483 90.2861 60.7534C90.2956 60.7585 90.3032 60.7666 90.3077 60.7764C90.3122 60.7862 90.3134 60.7972 90.311 60.8077C88.657 66.8087 85.8381 72.1722 81.8541 76.8982C80.5536 78.4417 77.2146 78.9052 75.3021 78.9277C72.1691 78.9667 69.0351 79.0007 65.9001 79.0297C64.0732 79.0477 61.6012 79.1737 59.6212 79.6732C59.0322 79.8222 58.1822 80.1337 57.0712 80.6077C53.9182 81.9532 51.8107 82.9717 48.9907 83.7352C44.4007 84.9772 40.1708 85.9882 35.4533 85.7422C32.2903 85.5772 29.2988 84.7837 26.4788 83.3617C23.8508 82.0387 21.8408 81.0877 19.9914 79.1992C16.2634 75.3872 13.3514 71.0217 11.2554 66.1027C11.2505 66.0927 11.2492 66.0814 11.2518 66.0705C11.2543 66.0597 11.2606 66.0501 11.2694 66.0434C11.2783 66.0366 11.2892 66.0332 11.3003 66.0336C11.3115 66.0341 11.3221 66.0383 11.3304 66.0457C17.1579 70.8172 24.4853 73.6432 32.1023 72.7867C36.8533 72.2537 41.5693 71.2982 46.2502 69.9202C50.5222 68.6617 54.9097 68.6122 59.3587 68.9377C63.6127 69.2482 67.8711 69.5212 72.1251 69.8377Z" fill="#2477B9"/>
<path d="M78.8959 80.0512C65.4905 92.8252 45.3651 95.5342 29.0766 86.2162C29.0663 86.2118 29.0581 86.2035 29.0539 86.1931C29.0497 86.1827 29.0498 86.171 29.0541 86.1607C29.0585 86.1504 29.0668 86.1422 29.0772 86.1379C29.0876 86.1337 29.0993 86.1338 29.1096 86.1382C33.6276 87.4642 38.2821 87.7282 42.9216 86.9182C46.7095 86.2572 50.4135 85.2692 54.0335 83.9542C55.8365 83.2982 57.6375 82.6377 59.4365 81.9727C61.172 81.3322 63.2255 81.1927 65.714 81.0727C70.0909 80.8612 74.5459 80.7592 78.8704 80.0017C78.8767 80 78.8833 80.0005 78.8893 80.0032C78.8952 80.0058 78.9001 80.0104 78.9031 80.0162C78.906 80.022 78.907 80.0286 78.9057 80.0349C78.9043 80.0413 78.9009 80.047 78.8959 80.0512Z" fill="#243F7A"/>
</svg>
