<svg width="100" height="100" viewBox="0 0 100 100" fill="none" xmlns="http://www.w3.org/2000/svg">
<rect width="100" height="100" fill="#595C62"/>
<path d="M14.0378 58V43.7266H8.94016V40.8203H22.5925V43.7266H17.5066V58H14.0378ZM25.2142 58V40.8203H32.515C34.3509 40.8203 35.683 40.9766 36.5111 41.2891C37.347 41.5938 38.015 42.1406 38.515 42.9297C39.015 43.7188 39.265 44.6211 39.265 45.6367C39.265 46.9258 38.8861 47.9922 38.1283 48.8359C37.3705 49.6719 36.2377 50.1992 34.7298 50.418C35.4798 50.8555 36.097 51.3359 36.5814 51.8594C37.0736 52.3828 37.7337 53.3125 38.5619 54.6484L40.6595 58H36.5111L34.0033 54.2617C33.1127 52.9258 32.5033 52.0859 32.1752 51.7422C31.847 51.3906 31.4994 51.1523 31.1322 51.0273C30.765 50.8945 30.183 50.8281 29.3861 50.8281H28.683V58H25.2142ZM28.683 48.0859H31.2494C32.9134 48.0859 33.9525 48.0156 34.3666 47.875C34.7806 47.7344 35.1048 47.4922 35.3392 47.1484C35.5736 46.8047 35.6908 46.375 35.6908 45.8594C35.6908 45.2812 35.5345 44.8164 35.222 44.4648C34.9173 44.1055 34.4837 43.8789 33.9212 43.7852C33.64 43.7461 32.7962 43.7266 31.39 43.7266H28.683V48.0859ZM58.3984 58H54.625L53.125 54.0977H46.2578L44.8398 58H41.1602L47.8516 40.8203H51.5195L58.3984 58ZM52.0117 51.2031L49.6445 44.8281L47.3242 51.2031H52.0117ZM60.5983 40.8203H66.9381C68.3678 40.8203 69.4577 40.9297 70.2077 41.1484C71.2155 41.4453 72.0788 41.9727 72.7975 42.7305C73.5163 43.4883 74.0631 44.418 74.4381 45.5195C74.8131 46.6133 75.0006 47.9648 75.0006 49.5742C75.0006 50.9883 74.8248 52.207 74.4733 53.2305C74.0436 54.4805 73.4303 55.4922 72.6334 56.2656C72.0319 56.8516 71.2194 57.3086 70.1959 57.6367C69.4303 57.8789 68.4069 58 67.1256 58H60.5983V40.8203ZM64.067 43.7266V55.1055H66.6569C67.6256 55.1055 68.3248 55.0508 68.7545 54.9414C69.317 54.8008 69.7819 54.5625 70.1491 54.2266C70.5241 53.8906 70.8288 53.3398 71.0631 52.5742C71.2975 51.8008 71.4147 50.75 71.4147 49.4219C71.4147 48.0938 71.2975 47.0742 71.0631 46.3633C70.8288 45.6523 70.5006 45.0977 70.0788 44.6992C69.6569 44.3008 69.1217 44.0312 68.4733 43.8906C67.9889 43.7812 67.0397 43.7266 65.6256 43.7266H64.067ZM78.3138 58V40.8203H91.052V43.7266H81.7825V47.5352H90.4075V50.4297H81.7825V55.1055H91.3802V58H78.3138Z" fill="#F8F8F8"/>
</svg>
