<svg width="100" height="100" viewBox="0 0 100 100" fill="none" xmlns="http://www.w3.org/2000/svg">
<rect width="100" height="100" fill="#FFE4D2"/>
<path d="M61.02 29.6011C61.1912 19.9501 56.341 11.954 50.274 4.60876C44.7656 10.9449 40.7824 18.358 39.3023 26.6226C39.255 26.8851 39.2841 27.1553 39.3861 27.4005C39.4882 27.6458 39.6587 27.8557 39.8772 28.0048C44.4112 31.1484 48.1174 35.0667 50.996 39.7596C51.0243 39.8052 51.0633 39.8432 51.1096 39.8703C51.1559 39.8974 51.2081 39.9129 51.2617 39.9153C51.3153 39.9177 51.3687 39.907 51.4172 39.8841C51.4658 39.8613 51.508 39.8269 51.5403 39.7841C53.9703 36.4896 56.8428 33.6457 60.1576 31.2524C60.4199 31.0626 60.6344 30.8146 60.784 30.528C60.9337 30.2413 61.0145 29.924 61.02 29.6011Z" fill="#E57128" fill-opacity="0.5"/>
<path d="M49.9555 41.5028C45.9373 34.3043 39.2157 29.0419 31.9255 25.403C29.789 31.6534 28.6252 38.1981 29.3632 44.7748C29.3764 44.8925 29.4194 45.0045 29.488 45.0999C29.5566 45.1953 29.6485 45.2709 29.7546 45.3191C35.4873 47.9204 40.4086 51.6063 44.5185 56.3767C44.7549 56.6539 44.8976 56.6132 44.9466 56.2544C45.6519 51.1741 47.3195 46.4404 49.9494 42.0532C50.0554 41.8738 50.0574 41.6903 49.9555 41.5028Z" fill="#E57128"/>
<path d="M46.6174 58.774C47.3636 44.6095 56.2133 34.0473 68.6653 28.1271C68.7097 28.1058 68.7582 28.0943 68.8076 28.0933C68.857 28.0924 68.9061 28.1021 68.9517 28.1217C68.9974 28.1414 69.0385 28.1705 69.0724 28.2073C69.1064 28.2441 69.1323 28.2876 69.1485 28.3351C71.2116 34.4836 71.9312 40.7912 71.3074 47.2577C71.287 47.4575 71.1892 47.6043 71.0138 47.6981C61.9684 52.5541 55.5895 57.1778 50.8497 66.4984C50.8236 66.5465 50.7844 66.5862 50.7367 66.6127C50.6889 66.6393 50.6346 66.6517 50.58 66.6485C50.5254 66.6453 50.4729 66.6266 50.4286 66.5946C50.3843 66.5626 50.35 66.5186 50.3298 66.4678C49.4043 63.9766 48.2198 61.6118 46.7765 59.3734C46.6582 59.1899 46.6052 58.9901 46.6174 58.774Z" fill="#E57128"/>
<path d="M25.2413 45.16C36.672 49.4167 45.8153 57.398 49.4665 69.2323C49.5221 69.4155 49.52 69.61 49.4604 69.7889C47.2056 76.5409 46.6267 83.4498 47.7235 90.5157C47.7311 90.5594 47.7266 90.6043 47.7102 90.6455C47.6938 90.6867 47.6663 90.7227 47.6305 90.7497C47.5947 90.7767 47.552 90.7936 47.507 90.7987C47.462 90.8039 47.4163 90.7969 47.3748 90.7787C29.1249 82.5711 20.5137 65.734 25.3086 46.0102C25.3494 45.8389 25.3372 45.6717 25.2719 45.5086C25.2352 45.4067 25.225 45.2905 25.2413 45.16Z" fill="#E57128"/>
<path d="M50.3532 94.2157C45.1853 74.0393 54.5549 55.4775 74.1564 48.2729C74.2031 48.2568 74.2525 48.2505 74.3016 48.2542C74.3507 48.258 74.3984 48.2719 74.4415 48.2949C74.4847 48.3179 74.5224 48.3496 74.5523 48.3879C74.5822 48.4263 74.6036 48.4704 74.6151 48.5176C79.7341 68.7918 70.4196 87.158 50.6407 94.3686C50.4898 94.4257 50.394 94.3748 50.3532 94.2157Z" fill="#E57128"/>
</svg>
