<svg width="100" height="100" viewBox="0 0 100 100" fill="none" xmlns="http://www.w3.org/2000/svg">
<rect width="100" height="100" fill="#1C3F72"/>
<path d="M19.0952 31.4397L51.4741 40.2563C51.6845 40.3137 51.7036 40.4105 51.5314 40.5468L40.1036 49.679C39.8334 49.8943 39.8334 50.1107 40.1036 50.3283L51.5852 59.5251C51.7 59.6183 51.6857 59.6853 51.5422 59.7259L35.4945 64.084L19.6655 68.3847C19.5531 68.4158 19.4802 68.4875 19.4467 68.5999C19.3941 68.7792 19.3068 68.8653 19.1849 68.8581C18.8166 67.5119 19.1645 66.4107 20.2287 65.5546C26.642 60.4062 33.0721 55.2662 39.5189 50.1346C39.6194 50.0533 39.6206 49.9732 39.5225 49.8943C33.3961 44.973 27.2637 40.0817 21.1254 35.2203C20.5371 34.7564 20.0158 34.2339 19.5615 33.6528C19.033 32.9809 18.8776 32.2432 19.0952 31.4397Z" fill="#C7352A"/>
<path fill-rule="evenodd" clip-rule="evenodd" d="M52.2237 40.3818L59.2863 42.2792C65.5442 43.946 71.7639 45.6258 77.9453 47.3188C79.6383 47.7815 82.0559 48.585 81.6793 50.3928C81.414 51.6772 79.5968 52.1839 78.4118 52.5143L78.3148 52.5413C72.1955 54.2415 66.0703 55.919 59.9391 57.5737L52.2919 59.6792C52.134 59.7223 52.1197 59.7952 52.2488 59.898C58.3537 64.781 64.4562 69.6329 70.5563 74.4536C71.7567 75.403 72.9249 76.387 74.0607 77.4057C76.1698 79.3031 74.6059 81.4194 72.1525 80.928C59.8734 78.4602 47.6134 75.9661 35.3725 73.4457C35.2338 72.5586 35.2111 71.8735 35.3044 71.3904C35.7826 68.925 35.846 66.4896 35.4945 64.0839L51.5422 59.7259C51.6857 59.6852 51.7 59.6183 51.5853 59.525L40.1036 50.3282C39.8334 50.1106 39.8334 49.8942 40.1036 49.679L51.5314 40.5468C51.7036 40.4105 51.6845 40.3136 51.4741 40.2562L19.0952 31.4397C19.5687 30.3277 20.567 29.6151 22.0903 29.3019C38.5087 25.935 54.9294 22.5705 71.3526 19.2084C72.3462 19.0039 73.3003 18.8102 74.1504 19.3518C75.8004 20.41 74.9001 22.0563 73.7164 23.0069C66.5474 28.7555 59.3676 34.4718 52.1771 40.1558C52.1583 40.1706 52.144 40.1904 52.1359 40.2129C52.1277 40.2354 52.1259 40.2597 52.1308 40.2832C52.1356 40.3066 52.1469 40.3282 52.1633 40.3456C52.1797 40.3631 52.2006 40.3756 52.2237 40.3818ZM35.3043 71.3904C35.7825 68.925 35.8459 66.4895 35.4944 64.0839L19.6655 68.3846C19.5531 68.4157 19.4801 68.4874 19.4467 68.5998C19.3941 68.7791 19.3068 68.8652 19.1848 68.858C19.675 69.7859 20.3816 70.3466 21.3047 70.5403C25.9796 71.5135 30.6689 72.482 35.3725 73.4457C35.2338 72.5585 35.211 71.8734 35.3043 71.3904ZM59.6731 57.2274C59.6719 57.2293 59.6709 57.2314 59.6701 57.2336C59.6722 57.2277 59.6759 57.2225 59.6809 57.2186C59.6788 57.2202 59.677 57.2221 59.6754 57.2241C59.6745 57.2251 59.6738 57.2262 59.6731 57.2274Z" fill="url(#paint0_linear_105_1890)"/>
<defs>
<linearGradient id="paint0_linear_105_1890" x1="14.4682" y1="49.8476" x2="81.543" y2="51.2823" gradientUnits="userSpaceOnUse">
<stop stop-color="#F4852F"/>
<stop offset="1" stop-color="#F4C92F"/>
</linearGradient>
</defs>
</svg>
