<svg width="100" height="100" viewBox="0 0 100 100" fill="none" xmlns="http://www.w3.org/2000/svg">
<rect width="100" height="100" fill="white"/>
<path d="M17.8066 28H23.3993L23.4004 36.526C23.4004 36.5412 23.4064 36.5558 23.4172 36.5666C23.428 36.5773 23.4426 36.5834 23.4578 36.5834H33.1705C33.2073 36.5834 33.2257 36.6018 33.2257 36.6386V42.1308C33.2257 42.1458 33.2199 42.1601 33.2096 42.1706C33.1992 42.1812 33.1852 42.1871 33.1705 42.1871L23.4711 42.1849C23.4262 42.1849 23.4037 42.2037 23.4037 42.2412L23.3993 71.3309C23.3993 71.3455 23.3936 71.3596 23.3834 71.3699C23.3733 71.3803 23.3595 71.3861 23.3452 71.3861H17.8805C17.8437 71.3861 17.8253 71.3677 17.8253 71.3309L17.8209 42.3141C17.8209 42.228 17.7779 42.1849 17.6918 42.1849L8 42.1827V36.5856L17.7646 36.5845C17.8014 36.5845 17.8198 36.5657 17.8198 36.5282L17.8066 28Z" fill="#2D419A"/>
<path d="M57.5224 28H63.1261L63.1217 32.9325C63.1217 32.9745 63.1007 32.9955 63.0588 32.9955H57.5952C57.5415 32.9955 57.5146 32.9686 57.5146 32.9149L57.5224 28Z" fill="#C53D31"/>
<path d="M42.4705 41.2919C42.4707 41.2949 42.4718 41.2978 42.4738 41.3001C42.4757 41.3024 42.4784 41.3041 42.4813 41.3048C42.4842 41.3056 42.4873 41.3053 42.4902 41.3042C42.493 41.3031 42.4953 41.3011 42.497 41.2985C44.6552 36.8241 49.2312 34.6095 54.0323 34.4782C54.0374 34.478 54.0424 34.4789 54.047 34.4808C54.0517 34.4827 54.056 34.4855 54.0596 34.4891C54.0632 34.4927 54.0661 34.497 54.068 34.5018C54.07 34.5065 54.071 34.5116 54.071 34.5168L54.0577 40.093C54.0577 40.129 54.0397 40.1482 54.0036 40.1504C47.8159 40.4716 43.3073 44.3278 42.5643 50.5862C42.5032 51.0992 42.4727 51.8341 42.4727 52.7908C42.4705 58.9701 42.4697 65.1494 42.4705 71.3287C42.4705 71.367 42.4517 71.3861 42.4142 71.3861H36.9506C36.9283 71.3861 36.907 71.3774 36.8913 71.3619C36.8755 71.3464 36.8667 71.3253 36.8667 71.3033L36.87 36.6066C36.87 36.5895 36.8766 36.5731 36.8884 36.561C36.9001 36.5488 36.9161 36.5418 36.9329 36.5415C38.7401 36.5073 40.5584 36.6033 42.3667 36.5117C42.38 36.5109 42.3934 36.5129 42.406 36.5175C42.4185 36.5221 42.43 36.5292 42.4398 36.5384C42.4495 36.5476 42.4572 36.5587 42.4625 36.571C42.4678 36.5833 42.4705 36.5966 42.4705 36.6099V41.2919Z" fill="#2D419A"/>
<path d="M63.0427 36.5845H57.6134C57.5731 36.5845 57.5405 36.6171 57.5405 36.6573V71.3132C57.5405 71.3534 57.5731 71.3861 57.6134 71.3861H63.0427C63.083 71.3861 63.1156 71.3534 63.1156 71.3132V36.6573C63.1156 36.6171 63.083 36.5845 63.0427 36.5845Z" fill="#2D419A"/>
<path fill-rule="evenodd" clip-rule="evenodd" d="M92.7846 54.7758V52.7092C92.5594 44.0938 88.8512 35.8074 78.6449 36.5426C74.2732 36.8584 70.7736 39.2838 69.0426 43.3177C66.3511 49.5927 66.2231 56.8734 68.5017 63.3956C69.896 67.3854 72.4815 70.1906 76.7163 71.1035C80.9765 72.0232 85.9289 71.257 88.807 67.7375C91.7899 64.09 92.7162 59.5141 92.7846 54.7758ZM72.4978 58.2024C72.9107 61.861 74.3293 66.1157 78.5542 66.8642C81.8507 67.4482 84.9319 65.9379 86.2566 62.8325C86.8255 61.4989 87.2068 60.0722 87.4003 58.5524C87.8397 55.0991 87.7739 51.6956 87.2027 48.3417C86.5668 44.6026 84.5764 41.2068 80.3371 41.0047C74.3095 40.7166 72.7352 46.3513 72.372 51.0685C72.1887 53.4509 72.2307 55.8289 72.4978 58.2024Z" fill="#2D419A"/>
</svg>
