<svg width="100" height="100" viewBox="0 0 100 100" fill="none" xmlns="http://www.w3.org/2000/svg">
<rect width="100" height="100" fill="white"/>
<path d="M72.8121 29.7334C69.9072 20.0433 62.5892 13.6922 53.3461 10.0439C53.3404 10.0422 53.3356 10.0383 53.3328 10.0331C53.3299 10.0278 53.3293 10.0217 53.331 10.016C53.3327 10.0103 53.3366 10.0055 53.3419 10.0027C53.3471 9.99986 53.3533 9.99924 53.359 10.0009C70.3928 13.0261 79.9152 29.3638 73.8305 45.7101C73.8288 45.7136 73.826 45.7162 73.8226 45.7174C73.8191 45.7187 73.8152 45.7186 73.8114 45.7172C73.8076 45.7158 73.804 45.7131 73.8013 45.7095C73.7985 45.7059 73.7967 45.7016 73.7961 45.6972C74.3461 40.416 74.2946 34.6622 72.8121 29.7334Z" fill="#133057"/>
<path d="M26.9616 45.9292C20.2409 29.6044 30.0169 13.2238 46.9819 10.1642C47.0908 10.1441 47.0937 10.1542 46.9905 10.1943C31.4564 16.1286 24.3877 29.5528 27.1378 45.8776C27.1408 45.9003 27.1354 45.9237 27.1228 45.9433C27.1101 45.9628 27.091 45.9772 27.0692 45.9836C27.0473 45.99 27.0243 45.9879 27.0044 45.9779C26.9846 45.9679 26.9693 45.9505 26.9616 45.9292Z" fill="#133057"/>
<path d="M71.076 50.5315C59.4738 64.046 40.6395 64.957 29.4584 50.4241C29.4513 50.4133 29.4482 50.4005 29.4495 50.3877C29.4508 50.3749 29.4565 50.363 29.4656 50.3539C29.4747 50.3448 29.4866 50.3392 29.4994 50.3379C29.5121 50.3365 29.525 50.3397 29.5357 50.3467C42.281 61.3173 58.3179 60.8016 71.1147 50.278C71.1304 50.2654 71.1496 50.258 71.1696 50.2566C71.1897 50.2552 71.2097 50.26 71.2269 50.2702C71.2442 50.2805 71.2579 50.2958 71.2663 50.3141C71.2746 50.3323 71.2772 50.3527 71.2737 50.3725C71.2565 50.4699 71.1906 50.5229 71.076 50.5315Z" fill="#133057"/>
<path d="M22.179 89.6868C22.1733 89.704 22.1675 89.7226 22.1618 89.7427C22.1475 89.7856 22.1246 89.8114 22.093 89.82C22.0759 89.8257 22.0572 89.8272 22.0372 89.8243C21.9942 89.8157 21.9885 89.7928 22.02 89.7556C36.0372 72.6874 56.397 60.7757 77.7022 55.3313C77.7652 55.3169 77.8139 55.3212 77.8483 55.3442C77.9256 55.3957 77.9099 55.4387 77.801 55.4731C76.3916 55.9243 74.9262 56.3196 73.5941 56.8696C54.7426 64.6217 37.0471 75.6438 22.2349 89.6009C22.2091 89.6238 22.1905 89.6524 22.179 89.6868Z" fill="#E5AE2F"/>
</svg>
