<svg width="100" height="100" viewBox="0 0 100 100" fill="none" xmlns="http://www.w3.org/2000/svg">
<rect width="100" height="100" fill="white"/>
<path d="M80.2484 43.5305C78.4672 38.6743 64.7122 37.0618 60.3978 36.653C56.8503 36.3168 53.2953 36.1168 49.7328 36.053C37.7478 35.8393 25.7722 36.0886 13.8116 36.8911C10.7216 37.0993 7.70286 37.4443 4.67286 37.8474C4.62536 37.8536 4.62286 37.843 4.66536 37.8155C4.67036 37.813 4.67661 37.8105 4.68411 37.808C8.20911 37.078 12.1085 36.4524 16.3822 35.9311C26.9066 34.6449 37.3878 33.8986 47.7172 34.0111C58.7335 34.1311 69.6766 35.0768 80.5466 36.848C84.2159 37.4443 87.9734 38.2824 91.4291 39.3287C93.6659 40.0055 97.2941 41.2562 98.3722 43.5793C98.5047 43.863 98.4134 44.0055 98.0984 44.0068L80.4191 44.0087C80.3366 44.0087 80.2934 43.9674 80.2897 43.8849L80.2803 43.688C80.2778 43.6343 80.2672 43.5818 80.2484 43.5305Z" fill="#E3010F"/>
<path d="M7.55095 41.9874L2.0572 42.023C2.04778 42.0232 2.03847 42.021 2.03013 42.0166C2.02178 42.0122 2.01467 42.0058 2.00945 41.998C2.00422 41.9901 2.00105 41.9811 2.00022 41.9717C1.99939 41.9623 2.00093 41.9529 2.0047 41.9443L2.83157 40.0392C2.83602 40.0291 2.84337 40.0204 2.85271 40.0144C2.86206 40.0084 2.87297 40.0053 2.88407 40.0055L17.0609 40.0261C17.0708 40.0261 17.0805 40.0287 17.0891 40.0336C17.0976 40.0386 17.1047 40.0457 17.1097 40.0542C17.1146 40.0628 17.1172 40.0725 17.1172 40.0824C17.1172 40.0922 17.1146 40.1019 17.1097 40.1105L16.0634 41.9724C16.0583 41.9812 16.0509 41.9885 16.042 41.9935C16.0331 41.9984 16.023 42.0008 16.0128 42.0005L13.3109 41.9855C13.2994 41.9856 13.2882 41.9893 13.2788 41.996C13.2694 42.0027 13.2623 42.0121 13.2584 42.023L9.03032 53.9986C9.02647 54.0095 9.01937 54.019 9.00998 54.0257C9.00059 54.0324 8.98936 54.036 8.97782 54.0361L3.36782 54.0661C3.35887 54.0661 3.35007 54.0638 3.34214 54.0597C3.33422 54.0555 3.32741 54.0495 3.32227 54.0422C3.31714 54.0348 3.31383 54.0264 3.31262 54.0175C3.31141 54.0086 3.31234 53.9996 3.31532 53.9911L7.60345 42.0624C7.60643 42.0539 7.60736 42.0449 7.60615 42.036C7.60494 42.0272 7.60163 42.0187 7.5965 42.0114C7.59136 42.004 7.58455 41.998 7.57663 41.9939C7.5687 41.9897 7.5599 41.9875 7.55095 41.9874Z" fill="black"/>
<path d="M45.1992 48.1767C45.1979 48.1668 45.1934 48.1577 45.1865 48.1506C45.1795 48.1436 45.1703 48.139 45.1603 48.1376C45.1503 48.1361 45.14 48.1378 45.1308 48.1425C45.1216 48.1472 45.1141 48.1546 45.1092 48.1636L42.2274 53.9349C42.1924 54.0049 42.1355 54.0399 42.0567 54.0399L38.2392 54.0361C38.178 54.0361 38.1499 54.0061 38.1549 53.9461C38.2761 52.6374 38.3936 51.3324 38.5074 50.0311C38.5436 49.6074 38.643 49.1998 38.8055 48.8086C40.0092 45.9036 41.2099 42.9986 42.4074 40.0936C42.4274 40.0461 42.4624 40.0223 42.5124 40.0223H47.0536C47.1399 40.0223 47.1967 40.063 47.2242 40.1442L49.1367 45.8836C49.1408 45.8946 49.1481 45.9042 49.1576 45.9111C49.1672 45.9181 49.1785 45.922 49.1901 45.9224C49.2017 45.9228 49.213 45.9197 49.2226 45.9134C49.2321 45.9072 49.2395 45.8981 49.2436 45.8873L51.4467 40.0973C51.4667 40.0473 51.5036 40.0223 51.5574 40.0223H56.093C56.1667 40.0223 56.1911 40.0573 56.1661 40.1273L51.0811 53.9892C51.0574 54.0542 51.0111 54.0867 50.9424 54.0867L46.3055 54.0792C46.2687 54.0793 46.2331 54.0664 46.2049 54.0427C46.1768 54.019 46.1579 53.9861 46.1517 53.9499L45.1992 48.1767Z" fill="black"/>
<path d="M59.5483 42.2762C59.3101 42.7468 59.2951 43.2024 59.7058 43.6018C61.052 44.9143 64.832 47.5262 64.127 49.8775C63.5551 51.7843 62.012 53.2168 60.1258 53.7831C58.5601 54.2537 56.2276 54.0475 54.467 54.0343C53.8995 54.0293 53.4601 53.9431 53.1489 53.7756C51.2533 52.7556 52.7476 50.7175 53.4414 49.4725C53.4701 49.4225 53.5133 49.3975 53.5708 49.3975H56.2858C56.377 49.3975 56.3883 49.4275 56.3195 49.4875C55.9633 49.8012 55.752 50.1193 55.6858 50.4418C55.2114 52.7725 59.5145 52.42 59.7901 50.4512C59.9964 48.9887 56.6401 47.0556 55.7045 45.9962C55.262 45.4956 55.1589 45.2049 55.3783 44.5262C55.9764 42.6737 56.342 40.0674 58.8601 40.0449C60.6276 40.0299 62.3933 40.0299 64.157 40.0449C65.2158 40.0537 66.1133 40.3662 66.8495 40.9824C67.5658 41.5806 67.1401 42.8931 66.7876 43.9318C66.7714 43.9806 66.7376 44.0049 66.6864 44.0049L62.4245 44.0106C62.4172 44.0106 62.41 44.0089 62.4035 44.0056C62.397 44.0024 62.3914 43.9976 62.387 43.9918C62.3826 43.986 62.3797 43.9792 62.3784 43.9721C62.3771 43.9649 62.3775 43.9576 62.3795 43.9506C62.5801 43.2137 63.0583 42.4018 61.9089 42.1243C61.1676 41.9456 60.4276 41.9581 59.6889 42.1618C59.6588 42.1701 59.6308 42.1845 59.6065 42.2042C59.5823 42.2239 59.5625 42.2484 59.5483 42.2762Z" fill="black"/>
<path fill-rule="evenodd" clip-rule="evenodd" d="M17.9984 40.118L16.4891 42.9493C16.4566 43.0105 16.4053 43.0405 16.3353 43.0393L15.1653 43.0149C15.0841 43.0136 15.0291 43.0511 15.0003 43.1274L11.1041 53.8393C11.0453 54.0005 11.1016 54.0799 11.2728 54.0774L15.9922 54.0286C16.0584 54.0274 16.1034 53.9961 16.1272 53.9349L18.3059 48.1074C18.3259 48.0549 18.364 48.0286 18.4203 48.0286L20.4547 48.0586C20.5297 48.0599 20.5903 48.0905 20.6365 48.1505C20.8865 48.4718 20.9409 48.8418 20.7997 49.2605C20.3147 50.6918 19.7259 52.2505 19.0334 53.9368C19.0047 54.008 19.0284 54.0436 19.1047 54.0436L23.4303 54.0361C23.4915 54.0349 23.534 54.0055 23.5578 53.948C24.159 52.4505 24.6428 50.9161 25.009 49.3449C25.4185 47.594 24.9246 47.3874 23.6569 46.857C23.5602 46.8166 23.459 46.7743 23.3534 46.7293C23.2522 46.6855 23.2565 46.6599 23.3665 46.6524C25.1609 46.5324 26.7622 46.0036 27.634 44.4099C28.7309 42.4074 27.5647 40.868 25.579 40.358C23.775 39.8951 21.6529 39.9487 19.6743 39.9987C19.1522 40.0119 18.6402 40.0249 18.1466 40.028C18.0791 40.028 18.0297 40.058 17.9984 40.118ZM22.6653 45.0549C23.0328 44.4924 23.4547 42.5405 22.686 42.2142C22.161 41.9892 21.5528 41.948 20.8616 42.0905C20.8141 42.1005 20.786 42.1286 20.7772 42.1749L20.0891 45.8799C20.0791 45.9361 20.1016 45.9693 20.1566 45.9793C21.2891 46.1918 22.1253 45.8836 22.6653 45.0549Z" fill="black"/>
<path fill-rule="evenodd" clip-rule="evenodd" d="M30.1277 52.0692H33.0452C33.054 52.0694 33.0626 52.0714 33.0705 52.0752C33.0784 52.079 33.0853 52.0845 33.0909 52.0913C33.0964 52.0981 33.1004 52.106 33.1026 52.1145C33.1047 52.123 33.105 52.1319 33.1033 52.1405L32.7433 53.9705C32.7417 53.9791 32.7419 53.988 32.7441 53.9965C32.7462 54.005 32.7502 54.0129 32.7558 54.0197C32.7613 54.0265 32.7683 54.032 32.7762 54.0358C32.7841 54.0396 32.7927 54.0416 32.8015 54.0417L37.0765 54.0399C37.0909 54.04 37.1049 54.035 37.1159 54.0257C37.1269 54.0164 37.1342 54.0035 37.1365 53.9892L39.1239 40.0917C39.1253 40.0831 39.1248 40.0743 39.1224 40.0659C39.12 40.0575 39.1158 40.0497 39.1101 40.0431C39.1044 40.0365 39.0973 40.0312 39.0893 40.0276C39.0813 40.024 39.0727 40.0222 39.064 40.0223H32.1471C32.1365 40.0222 32.126 40.025 32.1168 40.0302C32.1075 40.0355 32.0999 40.0431 32.0946 40.0523L24.1521 53.948C24.1468 53.9571 24.144 53.9675 24.144 53.9781C24.1441 53.9887 24.1469 53.9991 24.1522 54.0082C24.1575 54.0174 24.1652 54.0249 24.1744 54.0302C24.1836 54.0354 24.194 54.0381 24.2046 54.038H28.8377C28.8478 54.0379 28.8578 54.0354 28.8666 54.0304C28.8755 54.0255 28.8829 54.0184 28.8883 54.0099L30.0771 52.0974C30.0825 52.0888 30.0899 52.0817 30.0988 52.0768C30.1076 52.0719 30.1176 52.0693 30.1277 52.0692ZM35.0323 43.2097C35.0238 43.2129 35.0167 43.2189 35.0121 43.2267L31.159 49.9617C31.1228 50.023 31.1403 50.0536 31.2115 50.0536H34.0128C34.042 50.0535 34.0703 50.043 34.0923 50.0241C34.1144 50.0051 34.1287 49.979 34.1328 49.9505L35.0853 43.2511C35.0863 43.2421 35.0842 43.233 35.0794 43.2254C35.0745 43.2178 35.0672 43.2121 35.0586 43.2092C35.05 43.2063 35.0407 43.2065 35.0323 43.2097Z" fill="black"/>
<path d="M64.2829 55.21C64.281 55.2004 64.2761 55.1916 64.2688 55.1851C64.2615 55.1785 64.2523 55.1745 64.2426 55.1736C64.2328 55.1728 64.2231 55.1751 64.2148 55.1803C64.2065 55.1855 64.2001 55.1933 64.1966 55.2025L62.3591 60.0062C62.3379 60.0587 62.2991 60.085 62.2429 60.085H57.3229C57.2629 60.085 57.2429 60.0562 57.2629 59.9987L59.1997 54.5706C59.2197 54.5168 59.2572 54.4812 59.3122 54.4637C62.491 53.4737 64.4722 51.3543 65.256 48.1056C65.266 48.0606 65.2947 48.0381 65.3422 48.0381H67.1685C67.231 48.0381 67.2547 48.0687 67.2397 48.13L66.2947 51.9231C66.271 52.0206 66.2979 52.0381 66.3754 51.9756L71.2372 48.0868C71.2772 48.0543 71.3235 48.0381 71.376 48.0381H75.1766C75.1856 48.0384 75.1943 48.0414 75.2016 48.0467C75.2088 48.0521 75.2144 48.0594 75.2174 48.0679C75.2204 48.0764 75.2208 48.0856 75.2186 48.0943C75.2163 48.103 75.2115 48.1109 75.2047 48.1168L69.3379 53.0106C69.2891 53.0506 69.2697 53.1018 69.2797 53.1643L70.2566 59.9519C70.2691 60.0406 70.2304 60.085 70.1404 60.085H65.3441C65.2891 60.085 65.256 60.0575 65.2447 60.0025L64.2829 55.21Z" fill="black"/>
<path d="M91.3164 53.8918C91.3204 53.9053 91.3285 53.9172 91.3395 53.9259C91.3506 53.9345 91.3641 53.9395 91.3781 53.9401C91.3921 53.9407 91.406 53.9369 91.4178 53.9293C91.4296 53.9217 91.4387 53.9105 91.4439 53.8975L93.7576 48.1281C93.7814 48.0681 93.8251 48.0381 93.8889 48.0381H98.2782C98.3645 48.0381 98.3907 48.0775 98.357 48.1562L93.3882 59.9744C93.357 60.0481 93.302 60.085 93.2232 60.085H88.4026C88.3464 60.085 88.3139 60.0568 88.3051 60.0006L87.3882 54.2781C87.3862 54.2633 87.3795 54.2496 87.369 54.239C87.3586 54.2283 87.345 54.2213 87.3303 54.219C87.3156 54.2167 87.3005 54.2192 87.2873 54.2261C87.2741 54.233 87.2635 54.244 87.257 54.2575L84.3714 60.0175C84.3501 60.0625 84.3145 60.085 84.2645 60.085H80.4732C80.4305 60.085 80.389 60.0702 80.3559 60.0432C80.3228 60.0162 80.3 59.9786 80.2914 59.9367C80.2828 59.8948 80.2889 59.8512 80.3087 59.8133C80.3285 59.7754 80.3608 59.7456 80.4001 59.7287C82.8732 58.6844 84.1014 55.2606 84.707 52.7987C85.0426 51.4393 85.6614 49.3337 85.067 48.1168C85.0407 48.0643 85.057 48.0381 85.1157 48.0381H89.4714C89.5276 48.0381 89.5639 48.065 89.5801 48.1187L91.3164 53.8918Z" fill="black"/>
<path fill-rule="evenodd" clip-rule="evenodd" d="M70.4421 56.7512C70.0446 57.9906 70.4608 60.0606 72.1277 60.0812C72.9177 60.0912 74.3189 60.0925 76.3314 60.085C77.7077 60.0787 78.7021 59.98 79.3146 59.7887C80.9096 59.2887 82.0346 58.22 82.6896 56.5825C83.2358 55.2162 83.7414 53.475 84.2064 51.3587C84.5571 49.7537 84.0414 48.0587 82.1102 48.0475C80.2289 48.0362 78.3477 48.0337 76.4664 48.04C76.4061 48.0399 76.3473 48.0626 76.3014 48.1037C75.1064 49.1612 73.9108 50.2156 72.7146 51.2668C72.5058 51.4518 72.3502 51.6737 72.2477 51.9325C71.3164 54.2937 70.7146 55.9 70.4421 56.7512ZM74.4244 56.9893C73.7326 58.3431 75.7557 58.1631 76.3388 57.8499C76.5913 57.7137 76.8194 57.4631 77.0232 57.0981C78.1269 55.1193 79.1894 53.1187 80.2107 51.0962C80.5032 50.5168 80.2163 50.1756 79.6313 50.0912C78.5532 49.9356 77.7957 50.3631 77.2988 51.3418C76.3426 53.2281 75.3844 55.1106 74.4244 56.9893Z" fill="black"/>
<path d="M63.1505 66.1149C51.128 66.1524 39.0267 65.5881 27.0792 64.2306C23.093 63.7787 4.34111 61.5418 4.00173 56.2131C3.99798 56.1381 4.03361 56.1005 4.10861 56.1005L31.9317 56.0968C32.0092 56.0968 32.0705 56.1274 32.1155 56.1887C32.9717 57.3537 34.1036 58.3118 35.5111 59.0631C40.9336 61.9581 47.3367 63.0662 53.3911 63.6212C56.9586 63.9474 60.5336 64.1131 64.1161 64.1181C64.1304 64.1182 64.1444 64.1219 64.1569 64.1289C64.1694 64.1359 64.1799 64.146 64.1874 64.1582C64.1949 64.1704 64.1991 64.1843 64.1998 64.1986C64.2004 64.2129 64.1974 64.2271 64.1911 64.2399L63.3005 66.0231C63.2692 66.0843 63.2192 66.1149 63.1505 66.1149Z" fill="#E3010F"/>
<path d="M75.259 64.4425L74.9252 65.4512C74.922 65.461 74.9211 65.4715 74.9227 65.4817C74.9242 65.492 74.9282 65.5017 74.9342 65.5101C74.9402 65.5185 74.9482 65.5254 74.9574 65.5301C74.9666 65.5349 74.9768 65.5374 74.9871 65.5375L77.044 65.5562C77.0557 65.5563 77.0672 65.5596 77.0772 65.5657C77.0873 65.5718 77.0955 65.5804 77.1011 65.5908C77.1066 65.6011 77.1093 65.6128 77.1088 65.6245C77.1083 65.6362 77.1047 65.6476 77.0984 65.6575L76.8096 66.1018C76.8037 66.1109 76.7957 66.1184 76.7862 66.1237C76.7767 66.1289 76.7661 66.1317 76.7552 66.1318H72.3921C72.3817 66.1316 72.3715 66.1288 72.3623 66.1239C72.3532 66.1189 72.3454 66.1118 72.3395 66.1032C72.3336 66.0946 72.3299 66.0847 72.3286 66.0743C72.3273 66.064 72.3285 66.0535 72.3321 66.0437L73.789 62.1437C73.7935 62.1313 73.8016 62.1206 73.8123 62.1129C73.823 62.1052 73.8358 62.1009 73.849 62.1006H78.2065C78.2172 62.1009 78.2277 62.1039 78.237 62.1092C78.2463 62.1145 78.2542 62.122 78.2599 62.1311C78.2657 62.1402 78.2691 62.1505 78.2699 62.1612C78.2707 62.1719 78.2689 62.1826 78.2646 62.1925L77.9365 62.9143C77.9314 62.926 77.923 62.936 77.9123 62.943C77.9017 62.9499 77.8892 62.9537 77.8765 62.9537L76.1027 62.9387C76.09 62.9387 76.0775 62.9425 76.0669 62.9495C76.0562 62.9565 76.0478 62.9664 76.0427 62.9781L75.7071 63.7431C75.7028 63.7531 75.701 63.764 75.7019 63.7748C75.7028 63.7857 75.7064 63.7961 75.7123 63.8052C75.7183 63.8143 75.7264 63.8218 75.736 63.827C75.7455 63.8322 75.7562 63.8349 75.7671 63.835H77.0252C77.037 63.8351 77.0485 63.8384 77.0585 63.8445C77.0685 63.8505 77.0768 63.8592 77.0823 63.8695C77.0879 63.8799 77.0905 63.8915 77.0901 63.9032C77.0896 63.915 77.086 63.9264 77.0796 63.9362L76.8077 64.3675C76.8019 64.3766 76.7938 64.3841 76.7843 64.3893C76.7748 64.3945 76.7642 64.3973 76.7534 64.3975H75.3209C75.3071 64.3976 75.2938 64.4019 75.2827 64.41C75.2716 64.4181 75.2633 64.4294 75.259 64.4425Z" fill="#E3010F"/>
<path d="M82.9842 64.2961L84.0605 62.1342C84.0656 62.1242 84.0734 62.1157 84.083 62.1098C84.0926 62.1038 84.1036 62.1006 84.1149 62.1005H86.2524C86.2625 62.1004 86.2724 62.1028 86.2814 62.1075C86.2904 62.1121 86.2981 62.1189 86.3038 62.1273C86.3095 62.1356 86.3131 62.1452 86.3143 62.1552C86.3155 62.1653 86.3142 62.1754 86.3105 62.1849L84.8311 66.0924C84.8266 66.104 84.8186 66.1141 84.8082 66.1211C84.7978 66.1281 84.7855 66.1318 84.773 66.1317H82.1799C82.1666 66.132 82.1535 66.1279 82.1427 66.1201C82.1319 66.1123 82.1239 66.1013 82.1199 66.0886L81.4299 64.0111C81.4255 63.9992 81.4176 63.9889 81.4072 63.9816C81.3968 63.9744 81.3844 63.9705 81.3717 63.9705C81.3591 63.9705 81.3467 63.9744 81.3363 63.9816C81.3259 63.9889 81.318 63.9992 81.3136 64.0111L80.6161 66.0886C80.6121 66.1013 80.6041 66.1123 80.5933 66.1201C80.5825 66.1279 80.5694 66.132 80.5561 66.1317H78.4205C78.4101 66.1318 78.3998 66.1292 78.3906 66.1242C78.3815 66.1192 78.3737 66.112 78.3681 66.1032C78.3625 66.0944 78.3592 66.0843 78.3585 66.0739C78.3579 66.0635 78.3598 66.0531 78.3642 66.0436L80.2149 62.1361C80.2199 62.1254 80.2278 62.1164 80.2378 62.1101C80.2478 62.1038 80.2593 62.1004 80.2711 62.1005H82.0842C82.0973 62.1001 82.1102 62.1039 82.1209 62.1114C82.1317 62.1188 82.1399 62.1294 82.1442 62.1417L82.8717 64.2886C82.8759 64.2998 82.8832 64.3095 82.8928 64.3166C82.9023 64.3237 82.9137 64.3279 82.9256 64.3287C82.9374 64.3294 82.9493 64.3268 82.9597 64.321C82.9701 64.3153 82.9786 64.3066 82.9842 64.2961Z" fill="#E3010F"/>
<path d="M90.7446 62.7419L89.1621 66.1C89.1576 66.1095 89.1504 66.1176 89.1414 66.1232C89.1325 66.1288 89.1221 66.1318 89.1115 66.1319H86.4434C86.4339 66.1318 86.4245 66.1294 86.4162 66.1248C86.4079 66.1202 86.4009 66.1136 86.3958 66.1055C86.3908 66.0975 86.3878 66.0883 86.3873 66.0788C86.3868 66.0693 86.3886 66.0598 86.3928 66.0512L87.9284 62.7737C87.9325 62.7652 87.9344 62.7557 87.9339 62.7462C87.9333 62.7367 87.9304 62.7275 87.9253 62.7194C87.9203 62.7114 87.9133 62.7047 87.9049 62.7001C87.8966 62.6955 87.8873 62.6931 87.8778 62.6931L86.8971 62.6837C86.8871 62.6836 86.8774 62.6808 86.8688 62.6756C86.8602 62.6705 86.8532 62.6631 86.8484 62.6543C86.8436 62.6456 86.8413 62.6356 86.8416 62.6257C86.8419 62.6157 86.8449 62.6059 86.8503 62.5975L87.1371 62.1269C87.1423 62.1186 87.1495 62.1119 87.1581 62.1073C87.1666 62.1027 87.1762 62.1004 87.1859 62.1006H92.2596C92.2696 62.1007 92.2794 62.1035 92.288 62.1087C92.2965 62.1138 92.3036 62.1212 92.3084 62.13C92.3131 62.1388 92.3155 62.1487 92.3151 62.1587C92.3148 62.1687 92.3118 62.1784 92.3065 62.1868L91.9803 62.6837C91.9753 62.6917 91.9683 62.6982 91.9602 62.7028C91.952 62.7074 91.9428 62.7099 91.9334 62.71H90.7953C90.7847 62.71 90.7743 62.713 90.7654 62.7186C90.7564 62.7243 90.7492 62.7323 90.7446 62.7419Z" fill="#E3010F"/>
<path fill-rule="evenodd" clip-rule="evenodd" d="M67.071 66.0624L67.7816 64.4949C67.8104 64.4299 67.861 64.3974 67.9335 64.3974H68.871C68.941 64.3973 69.0102 64.4122 69.074 64.4411C69.1378 64.47 69.1947 64.5121 69.241 64.5648C69.2873 64.6175 69.3219 64.6795 69.3425 64.7466C69.3631 64.8137 69.3692 64.8845 69.3604 64.9542C69.3129 65.3217 69.2129 65.6786 69.0604 66.0249C69.0279 66.0961 69.0504 66.1317 69.1279 66.1317H70.8604C70.9229 66.1317 70.966 66.103 70.9897 66.0455C71.0017 66.017 71.0161 65.9835 71.0323 65.9459C71.2629 65.4105 71.8539 64.0386 70.7554 64.163C70.7441 64.1642 70.7366 64.1592 70.7329 64.148C70.7279 64.133 70.7222 64.118 70.716 64.103C70.7122 64.0905 70.7172 64.083 70.731 64.0805C71.4272 63.998 71.9366 63.6511 72.2591 63.0399C72.2866 62.9874 72.2922 62.933 72.276 62.8767C72.1522 62.453 71.8666 62.2224 71.4191 62.1849C70.0916 62.0711 68.5335 62.053 66.7447 62.1305C66.686 62.133 66.6454 62.1617 66.6229 62.2167L65.1097 66.008C65.0772 66.0905 65.1054 66.1317 65.1941 66.1317H66.9622C66.9853 66.1317 67.0078 66.1252 67.0271 66.1129C67.0464 66.1006 67.0616 66.083 67.071 66.0624ZM69.7673 63.1542C69.7562 63.1185 69.737 63.0858 69.7111 63.0586C69.4336 62.7723 69.0917 62.6592 68.6854 62.7192C68.6304 62.7267 68.5942 62.7567 68.5767 62.8092L68.2598 63.7092C68.2398 63.7667 68.2598 63.8011 68.3198 63.8123C68.6573 63.8798 69.9567 63.7486 69.7673 63.1542Z" fill="#E3010F"/>
</svg>
