<svg width="100" height="100" viewBox="0 0 100 100" fill="none" xmlns="http://www.w3.org/2000/svg">
<rect width="100" height="100" fill="#FFE9D5"/>
<path fill-rule="evenodd" clip-rule="evenodd" d="M68.4379 52.5353C67.2535 52.2335 66.0904 51.9372 65.0539 51.2095C62.0449 49.1044 60.9403 46.1216 61.7398 42.2611C62.3909 39.3267 62.7237 37.3295 62.7384 36.2695C62.9395 21.4243 49.7341 11.1426 35.5027 16.3866C32.4678 17.6213 29.859 19.4977 27.6757 22.0156C17.8623 34.6014 24.4343 51.4828 39.8709 54.5791C44.8641 55.5777 50.4206 57.0226 49.9741 63.5665C49.9384 64.0804 49.8905 64.5994 49.8426 65.1166C49.7181 66.4634 49.5944 67.7975 49.6952 68.9947C50.7608 82.1384 66.694 89.1286 76.4905 79.07C84.5128 70.3336 81.4221 57.3573 70.4709 53.1398C69.7991 52.8821 69.1151 52.7078 68.4379 52.5353ZM69.5785 65.606C69.3625 65.3915 69.1476 65.1772 68.9337 64.963C68.5393 64.5679 68.1478 64.1733 67.7572 63.7792C68.3598 64.3871 68.964 64.9962 69.5785 65.606ZM51.7532 47.9284C51.7546 47.9299 51.7559 47.931 51.7573 47.9325L51.7532 47.9284ZM36.4416 32.1673C36.707 32.4698 36.969 32.7749 37.23 33.0787L37.2275 33.0756C36.9671 32.7728 36.7059 32.4687 36.4416 32.1673Z" fill="url(#paint0_linear_105_1905)"/>
<path d="M72.7131 47.4215C76.6045 47.4215 79.7591 44.2669 79.7591 40.3755C79.7591 36.4841 76.6045 33.3295 72.7131 33.3295C68.8216 33.3295 65.667 36.4841 65.667 40.3755C65.667 44.2669 68.8216 47.4215 72.7131 47.4215Z" fill="#A3195B"/>
<path d="M32.2604 84.0073C39.5842 84.0073 45.5213 78.0703 45.5213 70.7465C45.5213 63.4228 39.5842 57.4857 32.2604 57.4857C24.9366 57.4857 18.9995 63.4228 18.9995 70.7465C18.9995 78.0703 24.9366 84.0073 32.2604 84.0073Z" fill="#A3195B"/>
<defs>
<linearGradient id="paint0_linear_105_1905" x1="71.5084" y1="20.3643" x2="33.0147" y2="64.9949" gradientUnits="userSpaceOnUse">
<stop offset="0.171758" stop-color="#EE492C"/>
<stop offset="1" stop-color="#ED6723"/>
</linearGradient>
</defs>
</svg>
