<svg width="100" height="100" viewBox="0 0 100 100" fill="none" xmlns="http://www.w3.org/2000/svg">
<rect width="100" height="100" fill="#595C62"/>
<path d="M22.8897 58V43.7266H17.792V40.8203H31.4444V43.7266H26.3584V58H22.8897ZM34.0661 58V40.8203H41.3669C43.2028 40.8203 44.5348 40.9766 45.363 41.2891C46.1989 41.5938 46.8669 42.1406 47.3669 42.9297C47.8669 43.7188 48.1169 44.6211 48.1169 45.6367C48.1169 46.9258 47.738 47.9922 46.9802 48.8359C46.2223 49.6719 45.0895 50.1992 43.5817 50.418C44.3317 50.8555 44.9489 51.3359 45.4333 51.8594C45.9255 52.3828 46.5856 53.3125 47.4137 54.6484L49.5114 58H45.363L42.8552 54.2617C41.9645 52.9258 41.3552 52.0859 41.027 51.7422C40.6989 51.3906 40.3512 51.1523 39.9841 51.0273C39.6169 50.8945 39.0348 50.8281 38.238 50.8281H37.5348V58H34.0661ZM37.5348 48.0859H40.1012C41.7653 48.0859 42.8044 48.0156 43.2184 47.875C43.6325 47.7344 43.9567 47.4922 44.1911 47.1484C44.4255 46.8047 44.5427 46.375 44.5427 45.8594C44.5427 45.2812 44.3864 44.8164 44.0739 44.4648C43.7692 44.1055 43.3356 43.8789 42.7731 43.7852C42.4919 43.7461 41.6481 43.7266 40.2419 43.7266H37.5348V48.0859ZM51.7581 58V40.8203H57.3245C59.4339 40.8203 60.8089 40.9062 61.4495 41.0781C62.4339 41.3359 63.2581 41.8984 63.9222 42.7656C64.5863 43.625 64.9183 44.7383 64.9183 46.1055C64.9183 47.1602 64.7269 48.0469 64.3441 48.7656C63.9613 49.4844 63.473 50.0508 62.8792 50.4648C62.2933 50.8711 61.6956 51.1406 61.0863 51.2734C60.2581 51.4375 59.0589 51.5195 57.4886 51.5195H55.2269V58H51.7581ZM55.2269 43.7266V48.6016H57.1253C58.4925 48.6016 59.4066 48.5117 59.8675 48.332C60.3284 48.1523 60.6878 47.8711 60.9456 47.4883C61.2113 47.1055 61.3441 46.6602 61.3441 46.1523C61.3441 45.5273 61.1605 45.0117 60.7933 44.6055C60.4261 44.1992 59.9613 43.9453 59.3988 43.8438C58.9847 43.7656 58.1527 43.7266 56.9027 43.7266H55.2269ZM68.1728 58V40.8203H71.6416V48.4492L78.6494 40.8203H83.3134L76.8447 47.5117L83.665 58H79.1767L74.4541 49.9375L71.6416 52.8086V58H68.1728Z" fill="#F8F8F8"/>
</svg>
