<svg width="100" height="100" viewBox="0 0 100 100" fill="none" xmlns="http://www.w3.org/2000/svg">
<rect width="100" height="100" fill="#2A1770"/>
<path fill-rule="evenodd" clip-rule="evenodd" d="M13 33.1331L13.0035 45.5576L28.8892 45.607C29.0302 45.607 29.1007 45.6763 29.1007 45.8149C29.1172 55.5289 29.116 65.2441 29.0972 74.9604C29.0937 77.8048 31.0675 80.1276 33.6017 81.0722C34.49 81.4035 35.8634 81.5692 37.7221 81.5692L77.7906 81.5621C79.6657 81.5621 81.0145 81.4082 81.8369 81.1004C84.0927 80.2509 86.2956 77.826 86.2956 75.3094C86.2933 68.0227 86.2945 60.7348 86.2992 53.4458C86.2992 51.7751 86.1382 50.5709 85.8163 49.833C84.7589 47.4081 82.3797 45.5329 79.5988 45.5118C76.2386 45.4883 72.8067 45.5247 69.3032 45.6211C68.8967 45.6328 68.6922 45.4354 68.6899 45.0289L68.6159 30.821C68.6159 30.6753 68.6899 30.6024 68.8379 30.6024L85.8797 30.6483C86.1406 30.6483 86.2733 30.5178 86.278 30.257L86.4225 19.3869C86.4235 19.3373 86.4145 19.2879 86.3962 19.2418C86.3778 19.1956 86.3504 19.1536 86.3156 19.1182C86.2808 19.0827 86.2393 19.0546 86.1936 19.0354C86.1478 19.0162 86.0986 19.0063 86.0489 19.0063C77.538 18.9969 69.0494 18.998 60.5831 19.0098C58.1441 19.0121 56.464 19.1813 55.5428 19.5173C50.6684 21.2882 50.8878 26.2796 51.0762 30.5663C51.1075 31.2794 51.138 31.9731 51.144 32.6291C51.1445 32.691 51.1328 32.7523 51.1096 32.8096C51.0865 32.8669 51.0523 32.919 51.009 32.9629C50.9658 33.0068 50.9143 33.0416 50.8577 33.0654C50.801 33.0892 50.7402 33.1014 50.6788 33.1014H44.0559C44.0059 33.1014 43.9564 33.0915 43.9103 33.0722C43.8641 33.0529 43.8221 33.0246 43.7868 32.9889C43.7514 32.9532 43.7234 32.9109 43.7042 32.8643C43.6851 32.8176 43.6753 32.7677 43.6753 32.7172L43.6929 19.2459C43.6929 19.0838 43.6118 19.0027 43.4497 19.0027H29.284C29.1665 19.0027 29.1078 19.0615 29.1078 19.179V32.8406C29.1078 32.9144 29.0784 32.9853 29.0262 33.0375C28.974 33.0897 28.9032 33.1191 28.8293 33.1191L13 33.1331ZM68.4587 57.991C68.3372 57.8675 68.1717 57.7972 67.9985 57.7953C65.3197 57.7554 62.6151 57.7471 59.8847 57.7706C57.9438 57.7871 56.5879 57.6672 55.8172 57.4111C50.6765 55.7096 50.9419 51.1612 51.193 46.8583C51.2114 46.5441 51.2296 46.2311 51.2457 45.9207C51.2476 45.8811 51.2414 45.8415 51.2276 45.8044C51.2138 45.7673 51.1925 45.7333 51.1652 45.7046C51.1378 45.676 51.1049 45.6531 51.0685 45.6376C51.032 45.622 50.9928 45.614 50.9531 45.614H43.8227C43.7052 45.614 43.6465 45.6728 43.6465 45.7903V69.4937C43.6465 69.5404 43.6651 69.5853 43.6981 69.6183C43.7312 69.6513 43.776 69.6699 43.8227 69.6699H68.3968C68.5048 69.6699 68.5601 69.6147 68.5624 69.5043L68.647 58.4544C68.648 58.2811 68.5803 58.1146 68.4587 57.991Z" fill="#FFDE43"/>
</svg>
