<svg width="100" height="100" viewBox="0 0 100 100" fill="none" xmlns="http://www.w3.org/2000/svg">
<rect width="100" height="100" fill="#595C62"/>
<path d="M21.7217 58V43.7266H16.6241V40.8203H30.2764V43.7266H25.1905V58H21.7217ZM32.8981 58V40.8203H40.1989C42.0348 40.8203 43.3669 40.9766 44.195 41.2891C45.0309 41.5938 45.6989 42.1406 46.1989 42.9297C46.6989 43.7188 46.9489 44.6211 46.9489 45.6367C46.9489 46.9258 46.57 47.9922 45.8122 48.8359C45.0544 49.6719 43.9216 50.1992 42.4137 50.418C43.1637 50.8555 43.7809 51.3359 44.2653 51.8594C44.7575 52.3828 45.4177 53.3125 46.2458 54.6484L48.3434 58H44.195L41.6872 54.2617C40.7966 52.9258 40.1872 52.0859 39.8591 51.7422C39.5309 51.3906 39.1833 51.1523 38.8161 51.0273C38.4489 50.8945 37.8669 50.8281 37.07 50.8281H36.3669V58H32.8981ZM36.3669 48.0859H38.9333C40.5973 48.0859 41.6364 48.0156 42.0505 47.875C42.4645 47.7344 42.7887 47.4922 43.0231 47.1484C43.2575 46.8047 43.3747 46.375 43.3747 45.8594C43.3747 45.2812 43.2184 44.8164 42.9059 44.4648C42.6012 44.1055 42.1677 43.8789 41.6052 43.7852C41.3239 43.7461 40.4802 43.7266 39.0739 43.7266H36.3669V48.0859ZM50.5667 40.8203H54.0355V50.125C54.0355 51.6016 54.0784 52.5586 54.1644 52.9961C54.3128 53.6992 54.6644 54.2656 55.2191 54.6953C55.7816 55.1172 56.5472 55.3281 57.5159 55.3281C58.5003 55.3281 59.2425 55.1289 59.7425 54.7305C60.2425 54.3242 60.5433 53.8281 60.6448 53.2422C60.7464 52.6562 60.7972 51.6836 60.7972 50.3242V40.8203H64.2659V49.8438C64.2659 51.9062 64.1722 53.3633 63.9847 54.2148C63.7972 55.0664 63.4495 55.7852 62.9417 56.3711C62.4417 56.957 61.7698 57.4258 60.9261 57.7773C60.0823 58.1211 58.9808 58.293 57.6214 58.293C55.9808 58.293 54.7347 58.1055 53.8831 57.7305C53.0394 57.3477 52.3714 56.8555 51.8792 56.2539C51.387 55.6445 51.0628 55.0078 50.9066 54.3438C50.68 53.3594 50.5667 51.9062 50.5667 49.9844V40.8203ZM68.3056 40.8203H75.1728C76.5322 40.8203 77.5439 40.8789 78.208 40.9961C78.8798 41.1055 79.4775 41.3398 80.0009 41.6992C80.5322 42.0586 80.9736 42.5391 81.3252 43.1406C81.6767 43.7344 81.8525 44.4023 81.8525 45.1445C81.8525 45.9492 81.6338 46.6875 81.1963 47.3594C80.7666 48.0312 80.1806 48.5352 79.4384 48.8711C80.4853 49.1758 81.29 49.6953 81.8525 50.4297C82.415 51.1641 82.6963 52.0273 82.6963 53.0195C82.6963 53.8008 82.5127 54.5625 82.1455 55.3047C81.7861 56.0391 81.29 56.6289 80.6572 57.0742C80.0322 57.5117 79.2588 57.7812 78.3369 57.8828C77.7588 57.9453 76.3642 57.9844 74.1533 58H68.3056V40.8203ZM71.7744 43.6797V47.6523H74.0478C75.3994 47.6523 76.2392 47.6328 76.5673 47.5938C77.1611 47.5234 77.6259 47.3203 77.9619 46.9844C78.3056 46.6406 78.4775 46.1914 78.4775 45.6367C78.4775 45.1055 78.3291 44.6758 78.0322 44.3477C77.7431 44.0117 77.3095 43.8086 76.7314 43.7383C76.3877 43.6992 75.3994 43.6797 73.7666 43.6797H71.7744ZM71.7744 50.5117V55.1055H74.9853C76.2353 55.1055 77.0283 55.0703 77.3642 55C77.8798 54.9062 78.2978 54.6797 78.6181 54.3203C78.9463 53.9531 79.1103 53.4648 79.1103 52.8555C79.1103 52.3398 78.9853 51.9023 78.7353 51.543C78.4853 51.1836 78.122 50.9219 77.6455 50.7578C77.1767 50.5938 76.1533 50.5117 74.5752 50.5117H71.7744Z" fill="#F8F8F8"/>
</svg>
