<svg width="100" height="100" viewBox="0 0 100 100" fill="none" xmlns="http://www.w3.org/2000/svg">
<rect width="100" height="100" fill="#595C62"/>
<path d="M24.8936 58V43.7266H19.7959V40.8203H33.4483V43.7266H28.3623V58H24.8936ZM39.9255 58V43.7266H34.8278V40.8203H48.4802V43.7266H43.3942V58H39.9255ZM51.0902 58V40.8203H63.8284V43.7266H54.5589V47.5352H63.1839V50.4297H54.5589V55.1055H64.1566V58H51.0902ZM66.5791 52.4102L69.9541 52.082C70.1572 53.2148 70.5673 54.0469 71.1845 54.5781C71.8095 55.1094 72.6494 55.375 73.7041 55.375C74.8213 55.375 75.6611 55.1406 76.2236 54.6719C76.7939 54.1953 77.0791 53.6406 77.0791 53.0078C77.0791 52.6016 76.958 52.2578 76.7158 51.9766C76.4814 51.6875 76.0673 51.4375 75.4736 51.2266C75.0673 51.0859 74.1416 50.8359 72.6963 50.4766C70.8369 50.0156 69.5322 49.4492 68.7822 48.7773C67.7275 47.832 67.2002 46.6797 67.2002 45.3203C67.2002 44.4453 67.4463 43.6289 67.9384 42.8711C68.4384 42.1055 69.1533 41.5234 70.083 41.125C71.0205 40.7266 72.1494 40.5273 73.4697 40.5273C75.6259 40.5273 77.247 41 78.333 41.9453C79.4267 42.8906 80.0009 44.1523 80.0556 45.7305L76.5869 45.8828C76.4384 45 76.1181 44.3672 75.6259 43.9844C75.1416 43.5938 74.4111 43.3984 73.4345 43.3984C72.4267 43.3984 71.6377 43.6055 71.0673 44.0195C70.7002 44.2852 70.5166 44.6406 70.5166 45.0859C70.5166 45.4922 70.6884 45.8398 71.0322 46.1289C71.4697 46.4961 72.5322 46.8789 74.2197 47.2773C75.9072 47.6758 77.1533 48.0898 77.958 48.5195C78.7705 48.9414 79.4033 49.5234 79.8564 50.2656C80.3173 51 80.5478 51.9102 80.5478 52.9961C80.5478 53.9805 80.2744 54.9023 79.7275 55.7617C79.1806 56.6211 78.4072 57.2617 77.4072 57.6836C76.4072 58.0977 75.1611 58.3047 73.6689 58.3047C71.497 58.3047 69.8291 57.8047 68.665 56.8047C67.5009 55.7969 66.8056 54.332 66.5791 52.4102Z" fill="#F8F8F8"/>
</svg>
