<svg width="100" height="100" viewBox="0 0 100 100" fill="none" xmlns="http://www.w3.org/2000/svg">
<rect width="100" height="100" fill="white"/>
<path d="M6 46.9878V31.0002C8.09876 30.9827 9.95963 32.4871 10.4572 34.4971C10.6653 35.3352 10.6158 36.4773 10.5969 37.4274C10.5966 37.4376 10.5984 37.4478 10.6022 37.4573C10.606 37.4668 10.6118 37.4754 10.6191 37.4826C10.6264 37.4898 10.6351 37.4954 10.6447 37.499C10.6543 37.5026 10.6645 37.5043 10.6747 37.5037C11.4509 37.4674 12.2955 37.4375 13.0085 37.6201C15.0374 38.1403 16.3948 39.9677 16.448 42.0366C16.4481 42.0426 16.4471 42.0485 16.445 42.0541C16.4429 42.0596 16.4396 42.0647 16.4355 42.0689C16.4313 42.0732 16.4264 42.0766 16.4209 42.0789C16.4154 42.0813 16.4095 42.0825 16.4036 42.0825H10.6384C10.6151 42.0825 10.6032 42.0943 10.6027 42.1181C10.5988 44.4358 10.5984 45.9696 10.6013 46.7194C10.6093 48.7614 11.942 50.5364 13.8996 51.1424C14.2292 51.245 14.6162 51.3017 14.9836 51.3577C15.8922 51.4945 16.584 52.1296 16.8335 52.9793C16.899 53.2014 16.9315 53.5176 16.931 53.9279C16.9305 54.5865 16.9303 55.2446 16.9303 55.9022C16.9303 55.9279 16.9174 55.9408 16.8917 55.9408C15.9998 55.9408 15.0163 55.9793 14.2052 55.8833C9.60535 55.3363 6.21242 51.6262 6 46.9878Z" fill="#262F69"/>
<path d="M18.5588 37.4623C21.1959 37.5096 23.1484 39.6345 23.1535 42.2425C23.1569 44.114 23.1554 45.9868 23.1491 47.8608C23.1482 48.2342 23.1777 48.5383 23.2379 48.773C23.7551 50.7874 25.9375 51.8575 27.8697 50.9976C29.0649 50.4658 29.8288 49.3303 29.8273 47.9786C29.8239 44.4843 29.8234 40.9913 29.8259 37.4994C29.8259 37.4897 29.8297 37.4805 29.8365 37.4737C29.8433 37.4668 29.8526 37.463 29.8622 37.463H34.4439C34.4535 37.463 34.4628 37.4668 34.4696 37.4737C34.4764 37.4805 34.4802 37.4897 34.4802 37.4994C34.4822 40.8278 34.4817 44.1606 34.4788 47.4978C34.4783 48.1433 34.4582 48.627 34.4184 48.9491C33.9615 52.609 30.9629 55.5931 27.2492 55.9037C22.9338 56.2645 19.1553 53.3023 18.5791 48.9898C18.534 48.6532 18.5117 48.1692 18.5122 47.5378C18.5132 44.1919 18.5132 40.8484 18.5122 37.5074C18.5122 37.5014 18.5134 37.4955 18.5158 37.49C18.5181 37.4844 18.5216 37.4794 18.5259 37.4752C18.5302 37.471 18.5354 37.4677 18.541 37.4655C18.5467 37.4633 18.5527 37.4622 18.5588 37.4623Z" fill="#262F69"/>
<path d="M54.394 37.5008C54.3744 38.8815 53.7146 40.3518 52.555 41.1483C52.5501 41.1517 52.546 41.156 52.5428 41.1609C52.5396 41.1659 52.5374 41.1715 52.5364 41.1773C52.5353 41.1831 52.5355 41.1891 52.5368 41.1949C52.5382 41.2007 52.5406 41.2061 52.5441 41.2109C55.0706 44.6533 54.9768 49.2553 52.2495 52.5602C52.0535 52.7973 51.852 53.0296 51.6449 53.2571C51.6265 53.277 51.6275 53.2959 51.6478 53.3138C56.3495 57.531 53.8819 65.2837 47.6577 66.0315C47.3623 66.0669 46.8785 66.0853 46.2063 66.0868C43.765 66.0902 41.324 66.0904 38.8836 66.0875C38.8414 66.0875 38.8208 66.0664 38.8218 66.0242C38.8814 64.0128 40.1916 62.2567 42.2016 61.8522C42.4926 61.7935 42.9756 61.7639 43.6507 61.7634C44.4573 61.7625 45.2638 61.7603 46.0703 61.7569C46.7648 61.754 47.2469 61.7176 47.5165 61.6478C50.7109 60.8184 50.3755 56.1924 47.1062 55.8214C46.9282 55.8011 46.6848 55.8113 46.3759 55.852C40.2404 56.6566 35.0382 51.4362 35.9817 45.2702C36.6103 41.1651 39.9705 37.9897 44.0719 37.5226C44.4017 37.4848 44.8855 37.4656 45.5233 37.4651C48.4685 37.4617 51.4134 37.4615 54.3577 37.4644C54.3819 37.4644 54.394 37.4765 54.394 37.5008ZM49.771 46.7011C49.771 46.0905 49.6507 45.4858 49.417 44.9216C49.1833 44.3575 48.8408 43.8449 48.409 43.4131C47.9772 42.9813 47.4646 42.6388 46.9004 42.4051C46.3363 42.1714 45.7316 42.0511 45.121 42.0511C43.8877 42.0511 42.705 42.541 41.8329 43.4131C40.9609 44.2851 40.471 45.4679 40.471 46.7011C40.471 47.3118 40.5912 47.9164 40.8249 48.4806C41.0586 49.0448 41.4011 49.5574 41.8329 49.9892C42.2647 50.421 42.7773 50.7635 43.3415 50.9972C43.9056 51.2308 44.5103 51.3511 45.121 51.3511C45.7316 51.3511 46.3363 51.2308 46.9004 50.9972C47.4646 50.7635 47.9772 50.421 48.409 49.9892C48.8408 49.5574 49.1833 49.0448 49.417 48.4806C49.6507 47.9164 49.771 47.3118 49.771 46.7011Z" fill="#262F69"/>
<path d="M70.2862 53.4179C65.7933 58.2338 57.6005 55.7771 56.5726 49.1841C56.5173 48.8276 56.4894 48.3441 56.4889 47.7335C56.486 44.3231 56.4856 40.9229 56.4875 37.5329C56.4875 37.4761 56.5159 37.4492 56.5726 37.4521C57.9626 37.5268 59.1023 38.0714 59.9917 39.086C60.8276 40.0383 61.12 41.2211 61.1222 42.4869C61.1261 44.3139 61.1261 46.1406 61.1222 47.967C61.1217 48.2876 61.1503 48.5567 61.2081 48.7745C62.2062 52.5457 67.8004 51.8881 67.7997 47.9597C67.7987 44.4722 67.7985 40.9857 67.799 37.5001C67.799 37.4903 67.8029 37.4809 67.8098 37.4739C67.8168 37.4669 67.8262 37.463 67.8361 37.463H72.4177C72.4277 37.463 72.4373 37.467 72.4444 37.4741C72.4515 37.4812 72.4555 37.4908 72.4555 37.5009C72.454 40.92 72.4538 44.3447 72.4548 47.7749C72.4553 49.9869 71.7324 51.8679 70.2862 53.4179Z" fill="#262F69"/>
<path d="M93.2966 49.9602V51.2522C92.8688 52.3514 92.0672 52.6489 90.9701 52.6489C86.7765 52.6479 82.5829 52.6484 78.3892 52.6504C77.7835 52.6509 77.3591 52.6135 77.1162 52.5383C75.2516 51.9651 75.2327 49.2814 77.0798 48.6711C77.3082 48.5959 77.7115 48.5581 78.2896 48.5576C82.6127 48.5566 86.9358 48.5564 91.2589 48.5569C92.2507 48.5569 92.9299 49.0246 93.2966 49.9602Z" fill="#9ACB3D"/>
<path d="M58.0141 62.9209C55.6665 62.9202 55.1878 59.6036 57.3994 58.938C57.6317 58.8682 58.0357 58.833 58.6113 58.8325C62.9165 58.8315 67.2217 58.8315 71.5269 58.8325C73.937 58.8325 74.4906 62.1316 72.2063 62.8285C71.9939 62.893 71.6952 62.9253 71.3101 62.9253C66.8783 62.9243 62.4463 62.9228 58.0141 62.9209Z" fill="#307EC1"/>
<path d="M52.7563 73H37.3696C35.3938 71.9255 36.1423 69.1109 38.3771 69.1095C42.8375 69.1075 47.2979 69.1071 51.7582 69.108C54.017 69.1088 54.7751 71.9313 52.7563 73Z" fill="#EC2227"/>
</svg>
