<svg width="100" height="100" viewBox="0 0 100 100" fill="none" xmlns="http://www.w3.org/2000/svg">
<rect width="100" height="100" fill="#015FAD"/>
<path d="M47.535 1H53.27C80.885 3.255 101.22 25.85 99.515 53.645C97.125 92.555 51.73 113.26 20.795 89.88C9.14166 81.0733 2.54333 69.0617 1 53.845V46.98C3.065 21.67 22.255 3.01 47.535 1Z" fill="#015FAD"/>
<path d="M73.8544 39.2651C86.4294 45.3151 89.7244 57.6401 88.1644 70.6501C88.1444 70.8134 88.0744 70.8384 87.9544 70.7251C80.9544 64.0251 72.8944 59.5901 63.1544 58.1801C62.9649 58.1526 62.7715 58.1857 62.6018 58.2746C62.4321 58.3634 62.2948 58.5036 62.2094 58.6751C56.2044 70.6951 54.2444 84.3651 55.2394 97.7051C55.2436 97.7588 55.2367 97.8128 55.2192 97.8636C55.2018 97.9145 55.1741 97.9611 55.1379 98.0006C55.1017 98.0401 55.0578 98.0715 55.0091 98.0929C54.9603 98.1143 54.9076 98.1253 54.8544 98.1251H45.1295C44.7495 98.1251 44.5661 97.9367 44.5795 97.5601C45.0495 83.9951 43.2245 70.5251 37.5795 58.2251C37.5061 58.0684 37.3861 58.0034 37.2195 58.0301C27.8045 59.4351 20.0645 64.3651 13.3395 70.8301C13.3081 70.8595 13.2695 70.8799 13.2275 70.8893C13.1856 70.8987 13.1419 70.8966 13.101 70.8833C13.0602 70.87 13.0236 70.846 12.9952 70.8138C12.9668 70.7816 12.9475 70.7423 12.9395 70.7001C10.4245 56.6801 14.2845 47.4301 25.6945 39.3251C25.8645 39.2051 25.8895 39.0584 25.7695 38.8851L16.0345 24.5951C16.0158 24.5691 16.0041 24.5388 16.0003 24.507C15.9964 24.4752 16.0006 24.4428 16.0125 24.4127C16.0243 24.3826 16.0435 24.3556 16.0682 24.3342C16.093 24.3129 16.1226 24.2977 16.1545 24.2901C23.3045 22.5734 30.4578 22.5751 37.6145 24.2951C37.7811 24.3351 37.8845 24.2717 37.9245 24.1051C39.7745 16.2617 43.6995 9.66841 49.6994 4.32508C49.8128 4.22175 49.9311 4.21841 50.0544 4.31508C56.2444 9.09508 60.0444 16.3901 61.8544 24.0901C61.8978 24.2701 62.0094 24.3367 62.1894 24.2901C69.1628 22.3934 76.1444 22.3584 83.1344 24.1851C83.184 24.1982 83.2297 24.223 83.2679 24.2572C83.306 24.2914 83.3353 24.334 83.3535 24.3816C83.3716 24.4291 83.378 24.4801 83.3721 24.5304C83.3661 24.5806 83.3481 24.6285 83.3194 24.6701L73.7494 38.8801C73.7285 38.9116 73.7146 38.9472 73.7086 38.9845C73.7025 39.0218 73.7046 39.0599 73.7145 39.0964C73.7245 39.1329 73.7421 39.1668 73.7662 39.1959C73.7904 39.225 73.8204 39.2486 73.8544 39.2651Z" fill="white"/>
<path d="M43.8247 27.455C43.7889 27.4307 43.7618 27.3961 43.7474 27.3565C43.733 27.3168 43.732 27.2742 43.7447 27.235C45.118 23.155 47.0763 19.3834 49.6197 15.92C49.6523 15.8766 49.6946 15.8413 49.7432 15.817C49.7917 15.7927 49.8453 15.78 49.8997 15.78C49.954 15.78 50.0076 15.7927 50.0562 15.817C50.1048 15.8413 50.1471 15.8766 50.1797 15.92C52.7663 19.3234 54.728 23.06 56.0647 27.13C56.118 27.2934 56.073 27.4234 55.9297 27.52L50.0997 31.44C49.9997 31.5067 49.8997 31.5067 49.7997 31.44L43.8247 27.455Z" fill="#015FAD"/>
<path d="M49.7996 38.77C49.8233 38.7961 49.8521 38.8169 49.8843 38.8313C49.9165 38.8458 49.9515 38.8534 49.987 38.8539C50.0225 38.8544 50.0579 38.8476 50.091 38.8341C50.1241 38.8205 50.1543 38.8004 50.1796 38.775C56.0246 32.88 63.5846 29.27 71.9446 29.375C72.0102 29.3757 72.0741 29.3952 72.1288 29.4313C72.1835 29.4674 72.2267 29.5186 72.2535 29.5789C72.2802 29.6393 72.2894 29.7062 72.2798 29.7719C72.2703 29.8376 72.2425 29.8994 72.1996 29.95C66.9796 36.03 62.7563 42.7334 59.5296 50.06C59.4429 50.2534 59.2963 50.3284 59.0896 50.285C52.9796 49.0384 46.8729 49.055 40.7696 50.335C40.6129 50.3684 40.5029 50.31 40.4396 50.16C37.1796 42.45 32.7596 36.245 27.7546 29.64C27.6379 29.4834 27.6779 29.4034 27.8746 29.4C36.6179 29.3167 43.9263 32.44 49.7996 38.77Z" fill="#015FAD"/>
<path d="M20.0048 56.62C20.3798 50.78 24.2748 47.025 28.6898 43.78C28.8398 43.67 28.9648 43.6933 29.0648 43.85L33.9198 51.48C34.0431 51.6766 33.9931 51.805 33.7698 51.865C29.1198 53.0916 24.6231 54.74 20.2798 56.81C20.2491 56.8238 20.2154 56.8296 20.1819 56.8265C20.1484 56.8235 20.1162 56.8119 20.0886 56.7928C20.0609 56.7736 20.0386 56.7477 20.0239 56.7174C20.0093 56.6871 20.0027 56.6536 20.0048 56.62Z" fill="#015FAD"/>
<path d="M70.3744 43.7501C74.9444 47.0001 78.4794 50.61 79.2144 56.44C79.2213 56.5004 79.2119 56.5615 79.1871 56.617C79.1624 56.6725 79.1232 56.7204 79.0737 56.7556C79.0242 56.7908 78.9661 56.8121 78.9056 56.8173C78.845 56.8225 78.7842 56.8114 78.7294 56.785C74.4561 54.6617 69.9961 53.0434 65.3494 51.93C65.1361 51.8767 65.0878 51.7567 65.2044 51.57L70.0644 43.8101C70.1478 43.6801 70.2511 43.6601 70.3744 43.7501Z" fill="#015FAD"/>
<path d="M55.4495 56.405C55.7862 56.4817 55.9045 56.6867 55.8045 57.02L50.0795 75.61C50.0699 75.6389 50.0514 75.6639 50.0267 75.6817C50.002 75.6995 49.9724 75.709 49.942 75.709C49.9116 75.709 49.882 75.6995 49.8573 75.6817C49.8326 75.6639 49.8142 75.6389 49.8045 75.61L43.9845 56.77C43.9718 56.728 43.9678 56.6838 43.9728 56.6402C43.9779 56.5965 43.9919 56.5544 44.0139 56.5164C44.036 56.4784 44.0656 56.4454 44.101 56.4193C44.1363 56.3933 44.1767 56.3748 44.2195 56.365C47.9662 55.5384 51.7095 55.5517 55.4495 56.405Z" fill="#015FAD"/>
</svg>
