<svg width="100" height="100" viewBox="0 0 100 100" fill="none" xmlns="http://www.w3.org/2000/svg">
<rect width="100" height="100" fill="white"/>
<path d="M26.5555 31.3025C20.4755 41.9892 14.3255 52.6508 8.10548 63.2875C8.05548 63.3742 8.00548 63.5142 7.95548 63.7075C7.86548 64.0408 7.66714 64.1292 7.36048 63.9725C7.3181 63.9513 7.28047 63.9217 7.24994 63.8856C7.21941 63.8495 7.19663 63.8076 7.18303 63.7625C7.16943 63.7175 7.16528 63.6703 7.17087 63.6238C7.17645 63.5774 7.19163 63.5327 7.21548 63.4925L26.5355 30.1325C26.6355 29.9558 26.7355 29.9558 26.8355 30.1325L46.2055 63.6575C46.2247 63.6915 46.2343 63.7301 46.2332 63.7692C46.2321 63.8083 46.2204 63.8463 46.1993 63.8792C46.1782 63.9121 46.1486 63.9387 46.1135 63.956C46.0785 63.9733 46.0394 63.9807 46.0005 63.9775C45.7571 63.9542 45.5738 63.8358 45.4505 63.6225C39.2038 52.8358 32.9855 42.0625 26.7955 31.3025C26.783 31.2818 26.7654 31.2647 26.7444 31.2528C26.7234 31.2409 26.6996 31.2346 26.6755 31.2346C26.6513 31.2346 26.6276 31.2409 26.6065 31.2528C26.5855 31.2647 26.5679 31.2818 26.5555 31.3025Z" fill="#707070"/>
<path d="M92.355 66.7225H7.135C7.06044 66.7225 7 66.783 7 66.8575V70.7075C7 70.7821 7.06044 70.8425 7.135 70.8425H92.355C92.4296 70.8425 92.49 70.7821 92.49 70.7075V66.8575C92.49 66.783 92.4296 66.7225 92.355 66.7225Z" fill="#869478"/>
</svg>
