<svg width="100" height="100" viewBox="0 0 100 100" fill="none" xmlns="http://www.w3.org/2000/svg">
<rect width="100" height="100" fill="#D6DFFF"/>
<path d="M87.0797 49.5398C87.0797 59.4959 83.1246 69.0443 76.0845 76.0844C69.0444 83.1245 59.496 87.0795 49.5398 87.0795C44.61 87.0795 39.7285 86.1086 35.174 84.222C30.6194 82.3354 26.4811 79.5703 22.9952 76.0844C15.9551 69.0443 12 59.4959 12 49.5398C12 39.5836 15.9551 30.0352 22.9952 22.9951C30.0353 15.9551 39.5837 12 49.5398 12C59.496 12 69.0444 15.9551 76.0845 22.9951C83.1246 30.0352 87.0797 39.5836 87.0797 49.5398ZM82.3682 49.5383C82.3682 45.2274 81.5191 40.9587 79.8694 36.976C78.2197 32.9933 75.8017 29.3745 72.7534 26.3262C69.7052 23.278 66.0864 20.86 62.1036 19.2103C58.1209 17.5606 53.8522 16.7115 49.5413 16.7115C40.8351 16.7115 32.4855 20.17 26.3293 26.3262C20.173 32.4825 16.7145 40.8321 16.7145 49.5383C16.7145 58.2445 20.173 66.5941 26.3293 72.7503C32.4855 78.9065 40.8351 82.365 49.5413 82.365C58.2476 82.365 66.5972 78.9065 72.7534 72.7503C78.9096 66.5941 82.3682 58.2445 82.3682 49.5383Z" fill="#233E99"/>
<path d="M57.6759 58.6464L57.6804 58.7296C57.6819 58.7541 57.6719 58.7724 57.6504 58.7844C56.5259 59.4279 55.3254 59.8661 54.0489 60.0991C53.6049 60.1801 53.0544 60.2524 52.3974 60.3159C49.9021 60.5574 47.6439 61.8564 46.7739 64.3201C45.9204 66.7404 46.6389 69.5379 48.2559 71.4346C48.6946 71.9491 49.3134 72.4741 49.8579 72.8611C51.2919 73.8796 52.9256 74.6444 54.7591 75.1554C51.2116 77.9514 46.8099 78.9631 42.3886 78.2889C35.1488 77.1849 28.8503 72.3286 24.8063 66.4126C20.4443 60.0316 18.6885 52.1821 19.9845 44.6296C20.8755 39.4374 23.1083 34.3224 26.5553 30.2971C28.5121 28.0119 31.4401 25.8744 34.4753 25.5219C37.4558 25.1754 40.1146 26.7264 40.1978 29.9724C40.2698 32.7931 39.3773 35.5434 38.7068 38.2494C37.6951 42.3361 38.7001 46.4694 41.8711 49.2924C44.2306 51.3924 47.0971 52.5046 50.0446 53.4916C53.0191 54.4876 55.7439 56.1406 57.6759 58.6464Z" fill="#FCB034"/>
<path d="M54.7592 75.1553C52.9257 74.6443 51.292 73.8796 49.858 72.8611C49.3135 72.4741 48.6947 71.9491 48.256 71.4346C46.639 69.5378 45.9205 66.7403 46.774 64.3201C47.644 61.8563 49.9022 60.5573 52.3975 60.3158C53.0545 60.2523 53.605 60.1801 54.049 60.0991C55.3255 59.8661 56.526 59.4278 57.6505 58.7843C57.672 58.7723 57.682 58.7541 57.6805 58.7296L57.676 58.6463C57.7 58.7128 57.7348 58.7328 57.7803 58.7063C59.7858 57.5213 61.5145 55.7806 62.356 53.5726C63.389 50.8621 63.8538 48.0063 63.7503 45.0053C63.7373 44.6238 63.7838 44.2313 63.8898 43.8278C64.7208 40.6591 68.005 41.6446 69.967 42.8326C70.7965 43.3351 71.5705 43.9926 72.289 44.8051C77.0388 50.1803 77.9808 57.8078 75.133 64.3043C74.0898 66.6841 72.4608 69.0961 70.4733 70.8286C66.3093 74.4586 60.361 76.6493 54.8402 75.1576C54.8272 75.1541 54.814 75.1538 54.8005 75.1568C54.705 75.1778 54.6912 75.1773 54.7592 75.1553Z" fill="#F47B20"/>
</svg>
