<svg width="100" height="100" viewBox="0 0 100 100" fill="none" xmlns="http://www.w3.org/2000/svg">
<rect width="100" height="100" fill="#C7D2FF"/>
<path d="M62.375 66C52.25 66.75 48.0789 67.3089 39.125 66C41.6018 67.9098 43.5077 69.0806 45.8732 69.8533C49.0165 70.8801 52.464 70.7552 55.5844 69.6607C57.9152 68.8431 59.8361 67.7283 62.375 66Z" fill="#30368D"/>
<path d="M76.625 57.375C47.4608 65.2015 38.6481 61.2969 24.125 56.625C29.75 60.75 42.125 64.5 50.375 64.5C55.625 64.5 70.9832 61.1826 76.625 57.375Z" fill="#30368D"/>
<path d="M74.5159 44.5874C69.2643 51.8031 32.8083 52.9123 26.4518 44.7711C25.7313 43.8483 26.0485 42.5829 26.8065 41.6907C32.1218 35.4344 37.995 31.2794 48.4558 30.186C49.9797 30.0267 51.5189 30.0541 53.0386 30.2497C63.2179 31.5598 68.3399 35.0907 74.0997 41.8897C74.7615 42.6709 75.1183 43.7596 74.5159 44.5874Z" fill="#30368D"/>
<path fill-rule="evenodd" clip-rule="evenodd" d="M50.375 57.75C72.1212 57.75 89.75 52.2095 89.75 45.375C89.75 38.5405 72.1212 33 50.375 33C28.6288 33 11 38.5405 11 45.375C11 52.2095 28.6288 57.75 50.375 57.75ZM50.75 54.75C69.8038 54.75 85.25 50.049 85.25 44.25C85.25 38.451 69.8038 33.75 50.75 33.75C31.6962 33.75 16.25 38.451 16.25 44.25C16.25 50.049 31.6962 54.75 50.75 54.75Z" fill="#30368D"/>
</svg>
