<svg width="100" height="100" viewBox="0 0 100 100" fill="none" xmlns="http://www.w3.org/2000/svg">
<rect width="100" height="100" fill="#595C62"/>
<path d="M15.8272 40.8203H19.2959V50.125C19.2959 51.6016 19.3389 52.5586 19.4248 52.9961C19.5733 53.6992 19.9248 54.2656 20.4795 54.6953C21.042 55.1172 21.8077 55.3281 22.7764 55.3281C23.7608 55.3281 24.503 55.1289 25.003 54.7305C25.503 54.3242 25.8037 53.8281 25.9053 53.2422C26.0069 52.6562 26.0577 51.6836 26.0577 50.3242V40.8203H29.5264V49.8438C29.5264 51.9062 29.4327 53.3633 29.2452 54.2148C29.0577 55.0664 28.71 55.7852 28.2022 56.3711C27.7022 56.957 27.0303 57.4258 26.1866 57.7773C25.3428 58.1211 24.2412 58.293 22.8819 58.293C21.2412 58.293 19.9952 58.1055 19.1436 57.7305C18.2998 57.3477 17.6319 56.8555 17.1397 56.2539C16.6475 55.6445 16.3233 55.0078 16.167 54.3438C15.9405 53.3594 15.8272 51.9062 15.8272 49.9844V40.8203ZM41.5466 51.6836V48.7891H49.0231V55.6328C48.2966 56.3359 47.2419 56.957 45.8591 57.4961C44.4841 58.0273 43.0895 58.293 41.6755 58.293C39.8786 58.293 38.3122 57.918 36.9762 57.168C35.6403 56.4102 34.6364 55.332 33.9645 53.9336C33.2927 52.5273 32.9567 51 32.9567 49.3516C32.9567 47.5625 33.3317 45.9727 34.0817 44.582C34.8317 43.1914 35.9294 42.125 37.3747 41.3828C38.4762 40.8125 39.8473 40.5273 41.488 40.5273C43.6208 40.5273 45.2848 40.9766 46.4802 41.875C47.6833 42.7656 48.4567 44 48.8005 45.5781L45.3552 46.2227C45.113 45.3789 44.6559 44.7148 43.9841 44.2305C43.32 43.7383 42.488 43.4922 41.488 43.4922C39.9723 43.4922 38.7653 43.9727 37.8669 44.9336C36.9762 45.8945 36.5309 47.3203 36.5309 49.2109C36.5309 51.25 36.9841 52.7812 37.8903 53.8047C38.7966 54.8203 39.9841 55.3281 41.4528 55.3281C42.1794 55.3281 42.9059 55.1875 43.6325 54.9062C44.3669 54.6172 44.9958 54.2695 45.5192 53.8633V51.6836H41.5466ZM68.0863 58H64.3128L62.8128 54.0977H55.9456L54.5277 58H50.848L57.5394 40.8203H61.2073L68.0863 58ZM61.6995 51.2031L59.3323 44.8281L57.012 51.2031H61.6995ZM70.3095 58V40.8203H77.6103C79.4463 40.8203 80.7783 40.9766 81.6064 41.2891C82.4423 41.5938 83.1103 42.1406 83.6103 42.9297C84.1103 43.7188 84.3603 44.6211 84.3603 45.6367C84.3603 46.9258 83.9814 47.9922 83.2236 48.8359C82.4658 49.6719 81.333 50.1992 79.8252 50.418C80.5752 50.8555 81.1923 51.3359 81.6767 51.8594C82.1689 52.3828 82.8291 53.3125 83.6572 54.6484L85.7548 58H81.6064L79.0986 54.2617C78.208 52.9258 77.5986 52.0859 77.2705 51.7422C76.9423 51.3906 76.5947 51.1523 76.2275 51.0273C75.8603 50.8945 75.2783 50.8281 74.4814 50.8281H73.7783V58H70.3095ZM73.7783 48.0859H76.3447C78.0088 48.0859 79.0478 48.0156 79.4619 47.875C79.8759 47.7344 80.2002 47.4922 80.4345 47.1484C80.6689 46.8047 80.7861 46.375 80.7861 45.8594C80.7861 45.2812 80.6298 44.8164 80.3173 44.4648C80.0127 44.1055 79.5791 43.8789 79.0166 43.7852C78.7353 43.7461 77.8916 43.7266 76.4853 43.7266H73.7783V48.0859Z" fill="#F8F8F8"/>
</svg>
