<svg width="100" height="100" viewBox="0 0 100 100" fill="none" xmlns="http://www.w3.org/2000/svg">
<rect width="100" height="100" fill="white"/>
<path d="M65.9255 18L82.498 18.0013C82.5372 18.0013 82.5568 18.0208 82.5568 18.06C82.5743 32.6058 82.5697 47.1483 82.543 61.6875C82.528 69.7525 79.5118 76.69 71.9268 80.2413C69.818 81.2275 67.2568 81.9988 64.8743 82.0188C62.2384 82.0404 59.6022 82.0425 56.9655 82.025C56.9263 82.025 56.9067 82.0054 56.9067 81.9663V78.5313C56.9067 78.4863 56.9276 78.4558 56.9692 78.44C61.933 76.555 65.8518 73.0863 65.8593 67.3725C65.8801 50.9292 65.8838 34.49 65.8705 18.055C65.8705 18.0478 65.8719 18.0406 65.8747 18.034C65.8775 18.0273 65.8815 18.0212 65.8866 18.0161C65.8917 18.011 65.8978 18.007 65.9045 18.0042C65.9111 18.0014 65.9183 18 65.9255 18Z" fill="#E70D2F"/>
<path d="M34.2769 25.0851C34.3407 36.5438 34.2582 48.9888 34.3019 60.9551C34.3061 62.0734 34.3727 62.8689 34.5019 63.3414C35.2457 66.0639 37.7494 67.0414 40.3682 66.7476C42.3857 66.5214 43.9557 65.4014 44.4969 63.4139C44.6253 62.9414 44.6911 62.1393 44.6944 61.0076C44.7269 46.7393 44.7328 32.4697 44.7119 18.1988C44.7119 18.1505 44.7361 18.1263 44.7844 18.1263H60.9695C60.9844 18.1263 60.9987 18.1323 61.0092 18.1428C61.0198 18.1534 61.0257 18.1677 61.0257 18.1826C61.0432 32.3459 61.0378 46.5147 61.0095 60.6889C61.0078 61.7697 60.972 62.6018 60.902 63.1851C60.232 68.8001 56.6632 73.5301 51.5494 75.8314C49.2094 76.8847 46.7348 77.5534 44.1257 77.8376C32.9432 79.0551 19.9744 76.0176 18.0544 62.8039C18.0156 62.5389 18.0019 62.1164 18.0019 61.8226C17.9994 47.4034 17.9994 32.9843 18.0019 18.5651C18.0019 18.5226 18.0231 18.5013 18.0656 18.5013H34.1919C34.2419 18.5013 34.2686 18.5263 34.2719 18.5763C34.3061 19.1347 34.2894 19.8076 34.2219 20.5951C34.0994 22.0126 34.2707 23.8526 34.2769 25.0851Z" fill="#00237D"/>
</svg>
