<svg width="100" height="100" viewBox="0 0 100 100" fill="none" xmlns="http://www.w3.org/2000/svg">
<rect width="100" height="100" fill="#595C62"/>
<path d="M13.8467 40.8203H17.3155V50.125C17.3155 51.6016 17.3584 52.5586 17.4444 52.9961C17.5928 53.6992 17.9444 54.2656 18.4991 54.6953C19.0616 55.1172 19.8272 55.3281 20.7959 55.3281C21.7803 55.3281 22.5225 55.1289 23.0225 54.7305C23.5225 54.3242 23.8233 53.8281 23.9248 53.2422C24.0264 52.6562 24.0772 51.6836 24.0772 50.3242V40.8203H27.5459V49.8438C27.5459 51.9062 27.4522 53.3633 27.2647 54.2148C27.0772 55.0664 26.7295 55.7852 26.2217 56.3711C25.7217 56.957 25.0498 57.4258 24.2061 57.7773C23.3623 58.1211 22.2608 58.293 20.9014 58.293C19.2608 58.293 18.0147 58.1055 17.1631 57.7305C16.3194 57.3477 15.6514 56.8555 15.1592 56.2539C14.667 55.6445 14.3428 55.0078 14.1866 54.3438C13.96 53.3594 13.8467 51.9062 13.8467 49.9844V40.8203ZM31.527 58V40.8203H36.7184L39.8356 52.5391L42.9177 40.8203H48.1208V58H44.8981V44.4766L41.488 58H38.1481L34.7497 44.4766V58H31.527ZM51.973 58V40.8203H55.4417V48.4492L62.4495 40.8203H67.1136L60.6448 47.5117L67.4652 58H62.9769L58.2542 49.9375L55.4417 52.8086V58H51.973ZM69.583 58V40.8203H74.7744L77.8916 52.5391L80.9736 40.8203H86.1767V58H82.9541V44.4766L79.5439 58H76.2041L72.8056 44.4766V58H69.583Z" fill="#F8F8F8"/>
</svg>
