<svg width="100" height="100" viewBox="0 0 100 100" fill="none" xmlns="http://www.w3.org/2000/svg">
<rect width="100" height="100" fill="#595C62"/>
<path d="M16.9952 40.8203H20.4639V50.125C20.4639 51.6016 20.5069 52.5586 20.5928 52.9961C20.7412 53.6992 21.0928 54.2656 21.6475 54.6953C22.21 55.1172 22.9756 55.3281 23.9444 55.3281C24.9287 55.3281 25.6709 55.1289 26.1709 54.7305C26.6709 54.3242 26.9717 53.8281 27.0733 53.2422C27.1748 52.6562 27.2256 51.6836 27.2256 50.3242V40.8203H30.6944V49.8438C30.6944 51.9062 30.6006 53.3633 30.4131 54.2148C30.2256 55.0664 29.878 55.7852 29.3702 56.3711C28.8702 56.957 28.1983 57.4258 27.3545 57.7773C26.5108 58.1211 25.4092 58.293 24.0498 58.293C22.4092 58.293 21.1631 58.1055 20.3116 57.7305C19.4678 57.3477 18.7998 56.8555 18.3077 56.2539C17.8155 55.6445 17.4912 55.0078 17.335 54.3438C17.1084 53.3594 16.9952 51.9062 16.9952 49.9844V40.8203ZM34.7575 58V40.8203H38.1325L45.1637 52.293V40.8203H48.3864V58H44.9059L37.9802 46.7969V58H34.7575ZM52.4378 40.8203H59.305C60.6644 40.8203 61.6761 40.8789 62.3402 40.9961C63.012 41.1055 63.6097 41.3398 64.1331 41.6992C64.6644 42.0586 65.1058 42.5391 65.4573 43.1406C65.8089 43.7344 65.9847 44.4023 65.9847 45.1445C65.9847 45.9492 65.7659 46.6875 65.3284 47.3594C64.8988 48.0312 64.3128 48.5352 63.5706 48.8711C64.6175 49.1758 65.4222 49.6953 65.9847 50.4297C66.5472 51.1641 66.8284 52.0273 66.8284 53.0195C66.8284 53.8008 66.6448 54.5625 66.2777 55.3047C65.9183 56.0391 65.4222 56.6289 64.7894 57.0742C64.1644 57.5117 63.3909 57.7812 62.4691 57.8828C61.8909 57.9453 60.4964 57.9844 58.2855 58H52.4378V40.8203ZM55.9066 43.6797V47.6523H58.18C59.5316 47.6523 60.3714 47.6328 60.6995 47.5938C61.2933 47.5234 61.7581 47.3203 62.0941 46.9844C62.4378 46.6406 62.6097 46.1914 62.6097 45.6367C62.6097 45.1055 62.4613 44.6758 62.1644 44.3477C61.8753 44.0117 61.4417 43.8086 60.8636 43.7383C60.5198 43.6992 59.5316 43.6797 57.8988 43.6797H55.9066ZM55.9066 50.5117V55.1055H59.1175C60.3675 55.1055 61.1605 55.0703 61.4964 55C62.012 54.9062 62.43 54.6797 62.7503 54.3203C63.0784 53.9531 63.2425 53.4648 63.2425 52.8555C63.2425 52.3398 63.1175 51.9023 62.8675 51.543C62.6175 51.1836 62.2542 50.9219 61.7777 50.7578C61.3089 50.5938 60.2855 50.5117 58.7073 50.5117H55.9066ZM70.165 58V40.8203H73.54L80.5713 52.293V40.8203H83.7939V58H80.3134L73.3877 46.7969V58H70.165Z" fill="#F8F8F8"/>
</svg>
