<svg width="100" height="100" viewBox="0 0 100 100" fill="none" xmlns="http://www.w3.org/2000/svg">
<rect width="100" height="100" fill="#DFA73A"/>
<path fill-rule="evenodd" clip-rule="evenodd" d="M82.9788 20H16.6013L3.08877 50.2975C2.96877 50.5658 2.97043 50.8333 3.09377 51.1L16.6838 80.5H82.5638C82.8271 80.4733 83.0513 80.2558 83.2363 79.8475C87.5913 70.2692 91.9371 60.7358 96.2738 51.2475C96.3327 51.1185 96.3639 50.9785 96.3652 50.8368C96.3664 50.6951 96.3379 50.5548 96.2813 50.425L82.9788 20ZM81.1163 23.18L18.4638 23.1825C18.3946 23.1827 18.3268 23.2028 18.2688 23.2405C18.2107 23.2782 18.1647 23.3318 18.1363 23.395L6.04131 50.5325C6.02011 50.5792 6.00914 50.6299 6.00914 50.6812C6.00914 50.7326 6.02011 50.7833 6.04131 50.83L18.1488 77.08C18.1775 77.1427 18.2237 77.1958 18.2817 77.233C18.3398 77.2703 18.4073 77.29 18.4763 77.29H81.1013C81.1703 77.29 81.2378 77.2703 81.2959 77.233C81.3539 77.1958 81.4001 77.1427 81.4288 77.08L93.3538 50.9475C93.375 50.9013 93.3862 50.8511 93.3867 50.8003C93.3871 50.7494 93.3767 50.6991 93.3563 50.6525L81.4463 23.395C81.4181 23.331 81.3719 23.2765 81.3133 23.2384C81.2547 23.2002 81.1863 23.1799 81.1163 23.18Z" fill="white"/>
<path d="M25.3638 42.265C23.4121 46.785 21.4763 51.3125 19.5563 55.8475C18.7813 57.6775 19.0088 60.445 21.5313 60.4625C26.0529 60.4941 30.5738 60.4975 35.0938 60.4725C36.1338 60.465 36.9438 60.2525 37.4038 59.24C38.2163 57.4525 37.1938 55.4125 36.4288 53.67C34.5188 49.3116 32.6196 44.9475 30.7313 40.5775C30.5313 40.1175 30.4113 39.445 30.4113 38.945C30.4113 36.53 30.4038 34.115 30.3888 31.7C30.3871 31.6033 30.4346 31.5541 30.5313 31.5525L33.8663 31.52C33.9513 31.5193 34.0345 31.543 34.106 31.5883C34.1774 31.6335 34.234 31.6984 34.2688 31.775L43.6463 52.3025C43.7001 52.4202 43.7296 52.5476 43.733 52.6769C43.7364 52.8062 43.7137 52.9348 43.6663 53.055L37.3463 69.3025C37.3176 69.376 37.2675 69.4392 37.2024 69.4838C37.1372 69.5284 37.0602 69.5523 36.9813 69.5525L19.6013 69.5575C19.5674 69.5574 19.5344 69.5473 19.5067 69.5286C19.479 69.5098 19.458 69.4833 19.4463 69.4525C17.3429 63.9741 15.2288 58.4908 13.1038 53.0025C12.9538 52.615 13.1563 52.26 13.3213 51.8925C16.3463 45.1558 19.3546 38.4291 22.3463 31.7125C22.3671 31.6668 22.4005 31.628 22.4425 31.6005C22.4846 31.5731 22.5336 31.5581 22.5838 31.5575L26.2638 31.5175C26.3554 31.5175 26.4013 31.5625 26.4013 31.6525C26.4096 33.8391 26.4129 36.0175 26.4113 38.1875C26.4113 39.0225 26.3188 39.7191 26.1338 40.2775C25.9521 40.8291 25.6954 41.4916 25.3638 42.265Z" fill="white"/>
<path d="M47.4663 68.9475C47.008 68.5325 46.7788 68.0075 46.7788 67.3725C46.7755 56.5425 46.7738 45.71 46.7738 34.875C46.7738 33.84 46.9313 32.4425 46.0263 31.705C46.012 31.6927 46.0019 31.6763 45.9972 31.6581C45.9925 31.6399 45.9935 31.6206 46 31.603C46.0065 31.5853 46.0183 31.57 46.0337 31.5592C46.0491 31.5484 46.0675 31.5426 46.0863 31.5425L53.6638 31.5375C53.6784 31.5372 53.6928 31.5411 53.7052 31.5489C53.7176 31.5566 53.7274 31.5679 53.7335 31.5811C53.7397 31.5944 53.7418 31.6092 53.7396 31.6236C53.7374 31.6381 53.731 31.6516 53.7213 31.6625C53.2713 32.1808 53.0471 32.8142 53.0488 33.5625C53.0771 44.7275 53.083 55.8933 53.0663 67.06C53.0613 69.6425 50.8888 69.7875 48.9413 69.5275C48.2913 69.4425 47.7996 69.2492 47.4663 68.9475Z" fill="white"/>
<path d="M80.1537 66.1275C79.6854 67.1825 79.2521 68.2192 78.8537 69.2375C78.8175 69.3303 78.754 69.41 78.6715 69.4662C78.589 69.5224 78.4913 69.5525 78.3912 69.5525L64.2687 69.56C64.2054 69.56 64.1437 69.5414 64.0915 69.5066C64.0394 69.4719 63.9993 69.4226 63.9762 69.365L56.1862 50.1075C56.127 49.9623 56.0983 49.8064 56.1017 49.6494C56.1052 49.4925 56.1407 49.3378 56.2062 49.195L64.2062 31.7475C64.2331 31.6886 64.2764 31.6386 64.3309 31.6036C64.3855 31.5685 64.4489 31.55 64.5137 31.55L78.3587 31.535C78.4235 31.535 78.487 31.5535 78.5415 31.5886C78.5961 31.6236 78.6394 31.6736 78.6662 31.7325C81.1429 37.1959 83.6462 42.6734 86.1762 48.165C86.6637 49.22 86.7387 50.3975 85.0912 50.1925C83.2287 49.9625 81.4262 48.925 80.8587 47.0625C80.6821 46.4809 80.5037 45.9017 80.3237 45.325C78.2662 38.7175 70.7862 35.015 65.2287 40.5175C61.2037 44.505 60.5987 51.1325 62.9987 56.055C66.9237 64.105 76.1912 63.54 79.8887 55.6825C80.1987 55.0242 80.4912 54.575 80.7662 54.335C82.2562 53.04 85.6237 53.64 84.4637 56.3125C83.0404 59.5892 81.6037 62.8609 80.1537 66.1275Z" fill="white"/>
</svg>
