<svg width="100" height="100" viewBox="0 0 100 100" fill="none" xmlns="http://www.w3.org/2000/svg">
<rect width="100" height="100" fill="#F8C102"/>
<path d="M67.7818 31.1732C67.6581 26.5462 65.4881 23.7078 61.2718 22.6578C59.5568 22.2308 57.7485 22.1701 55.8468 22.4758C51.5103 23.1758 48.5353 25.6677 47.6323 30.0147C47.4037 31.1207 47.287 33.6804 47.2823 37.6937C47.2753 47.7854 47.2683 57.8759 47.2613 67.9652C47.2613 68.0889 47.1995 68.1507 47.0758 68.1507L36.8454 68.1542C36.724 68.1542 36.6634 68.0935 36.6634 67.9722C36.5537 53.2979 36.5584 42.1842 36.6774 34.6312C36.7077 32.6689 36.9609 30.1046 37.4369 26.9382C38.5779 19.3468 44.6119 14.4188 51.9688 13.3933C55.3125 12.9266 58.6422 12.8753 61.9578 13.2393C69.5983 14.0793 75.2893 17.2713 77.6413 25.1567C77.968 26.2534 78.2188 28.2146 78.3938 31.0402C78.6061 34.4539 78.7088 37.8676 78.7018 41.2812C78.6855 50.1806 78.6715 59.0799 78.6598 67.9792C78.6598 68.0982 78.6003 68.1577 78.4813 68.1577L68.1738 68.1542C68.0548 68.1542 67.9953 68.0947 67.9953 67.9757C67.9976 57.2424 67.9953 46.5126 67.9883 35.7862C67.9883 34.3232 67.8238 32.7132 67.7818 31.1732Z" fill="#161B17"/>
<path d="M51.8954 70.1631C52.1777 68.7701 52.3235 67.3958 52.3329 66.0401C52.3842 57.5491 52.3935 46.0342 52.3609 31.4952C52.3609 31.3412 52.4367 31.2642 52.5884 31.2642L62.8013 31.2677C62.932 31.2677 62.9973 31.333 62.9973 31.4637C63.0113 41.6557 63.0148 51.8395 63.0078 62.0151C63.0078 66.5511 62.8573 72.2631 61.3453 76.1516C59.0774 82.0036 54.2439 84.9296 48.1259 85.9446C44.1009 86.612 40.0782 86.6003 36.0579 85.9096C33.4166 85.4546 31.2162 84.7266 29.4569 83.7256C21.2214 79.0426 21.0394 70.1876 21.0184 61.8436C20.9951 51.7076 20.9939 41.5717 21.0149 31.4357C21.0149 31.3883 21.0337 31.3429 21.0672 31.3094C21.1007 31.276 21.1461 31.2572 21.1934 31.2572L31.4939 31.2537C31.5487 31.2537 31.6012 31.2754 31.6399 31.3141C31.6786 31.3529 31.7004 31.4054 31.7004 31.4602C31.6421 43.1992 31.6596 54.9276 31.7529 66.6456C31.7902 71.562 33.8167 74.7936 37.8324 76.3406C41.6369 77.8036 47.8844 77.3906 50.4709 73.7716C51.1149 72.8733 51.5897 71.6705 51.8954 70.1631Z" fill="#161B17"/>
</svg>
