<svg width="100" height="100" viewBox="0 0 100 100" fill="none" xmlns="http://www.w3.org/2000/svg">
<rect width="100" height="100" fill="#FFF9F0"/>
<path d="M65.4789 15.8654C66.0009 14.4874 72.0307 14.5034 68.5268 17.7813C67.5899 18.658 66.4614 18.9189 65.6955 17.5592C65.3535 16.9488 65.2813 16.3842 65.4789 15.8654Z" fill="#14487E"/>
<path d="M58.1336 17.0831C59.1344 16.4445 61.0949 15.7647 61.5851 17.4517C61.6063 17.5203 61.6018 17.5867 61.5714 17.6508C61.1086 18.6488 60.3973 19.6262 59.3441 19.6194C58.2932 19.6125 56.9846 17.8156 58.1336 17.0831Z" fill="#14487E"/>
<path d="M54.7664 18.4314C55.3934 18.2482 56.4443 19.7178 56.7361 20.1687C56.7802 20.2389 56.7984 20.3144 56.7908 20.3953L56.629 22.2426C56.6214 22.3219 56.5902 22.3898 56.5355 22.4463C54.9648 24.0486 50.9365 24.7032 50.7838 21.4803C50.7177 20.0405 53.6745 18.7518 54.7664 18.4314Z" fill="#14487E"/>
<path d="M47.3279 25.3006C48.4883 25.5043 49.4161 26.9167 49.5985 27.9536C49.7649 28.9012 48.7299 30.1075 48.1189 30.7645C46.1151 32.9207 40.2129 30.5173 42.7069 27.6125C43.9972 26.1109 45.1485 24.9161 47.3279 25.3006Z" fill="#14487E"/>
<path d="M35.7127 26.1773C35.8252 26.2078 35.9171 26.2688 35.9886 26.3604C36.3602 26.8205 37.1216 29.185 35.8176 28.9813C35.7401 28.9691 35.6778 28.9951 35.6307 29.0592C34.541 30.547 31.8737 30.4623 31.8099 28.274C31.7324 25.7058 33.8913 25.676 35.7127 26.1773Z" fill="#14487E"/>
<path d="M24.5537 33.9692C25.1692 34.1546 25.5476 34.3721 26.2201 34.2073C28.069 33.7517 30.164 32.8796 31.1944 34.5849C31.2309 34.6475 31.2324 34.7108 31.199 34.7749C30.6131 35.8462 31.3107 37.9269 31.525 39.0989C31.6937 40.0122 30.8388 41.1681 29.8335 40.7767C29.7997 40.7631 29.7621 40.7617 29.7272 40.773C29.6923 40.7843 29.6621 40.8074 29.642 40.8385C28.9831 41.8434 27.5766 42.8666 26.3432 42.4866C26.2688 42.4637 26.2118 42.4179 26.1723 42.3493C25.7277 41.5344 25.062 40.0236 24.116 39.8062C23.4617 39.6551 22.3515 39.8611 22.0893 38.8356C21.6904 37.2837 22.6798 36.4184 24.0248 35.9789C24.1145 35.95 24.1654 35.8881 24.1775 35.7935L24.4009 34.0676C24.4031 34.0504 24.4091 34.0339 24.4183 34.0192C24.4276 34.0045 24.4399 33.9921 24.4545 33.9827C24.469 33.9733 24.4854 33.9672 24.5026 33.9649C24.5197 33.9626 24.5372 33.964 24.5537 33.9692Z" fill="#14487E"/>
<path d="M40.6006 34.8276C42.1964 33.9944 44.6995 34.0127 45.4062 36.0888C45.8599 37.4188 46.6897 39.3141 45.9282 40.2457C45.4297 40.8561 45.0414 41.5314 44.7633 42.2715C44.7314 42.3554 44.6721 42.4065 44.5855 42.4248L41.7632 43.0085C41.7361 43.0143 41.708 43.0142 41.6809 43.0083C41.6538 43.0024 41.6282 42.9908 41.6059 42.9742C40.8096 42.3836 39.9767 41.8617 39.1074 41.4085C38.1203 40.8912 37.6393 39.9687 37.368 38.9455C37.0169 37.6088 39.8141 35.2396 40.6006 34.8276Z" fill="#14487E"/>
<path d="M28.1851 71.9713C26.1539 71.0648 23.815 69.7441 22.8461 67.6244C22.479 66.8256 22.9395 66.0565 23.4228 65.427C24.9594 63.4172 25.9556 60.7139 28.518 59.471C29.9063 58.798 30.8341 57.7931 31.6708 56.5159C32.0128 55.994 32.626 55.1928 33.1959 54.9708C35.927 53.9041 36.5904 50.8002 39.5084 50.1387C42.3466 49.4932 43.3246 47.0783 45.3627 45.4416C45.9942 44.9335 46.8422 44.8648 47.5922 44.5077C47.8597 44.3795 48.2161 44.1392 48.6614 43.7867C50.0817 42.6651 51.853 41.7678 53.6813 41.6533C55.3386 41.5503 56.3554 41.3352 57.6275 40.2547C59.2574 38.8653 60.7461 38.3938 63.0053 38.0962C65.1968 37.8093 67.3967 37.6506 69.605 37.6201C70.254 37.6109 70.8839 37.691 71.4949 37.8604C72.7989 38.2221 74.6089 38.6089 75.8742 39.3781C75.9426 39.4193 75.9775 39.4803 75.979 39.5612C76.0018 41.1955 75.1698 43.045 74.4083 44.5512C74.3921 44.5824 74.3834 44.6172 74.383 44.6526C74.3826 44.6879 74.3905 44.723 74.4061 44.7549C74.6523 45.2768 74.2442 46.2771 74.1963 46.8288C74.192 46.8698 74.1962 46.9113 74.2088 46.9507C74.2214 46.9901 74.2419 47.0266 74.2693 47.0577C74.6553 47.5048 74.7868 48.016 74.6637 48.5913C74.6557 48.6283 74.6368 48.662 74.6095 48.6878C74.5822 48.7135 74.5478 48.7302 74.5109 48.7355C73.9835 48.8195 73.599 48.8355 73.3574 48.7836C71.6225 48.4151 69.8261 48.1083 68.0434 48.4517C65.4377 48.9507 62.5493 49.3398 60.1215 50.4317C56.015 52.2812 52.0346 54.3695 48.1804 56.6967C46.9471 57.4406 45.7024 58.592 44.1658 59.2764C42.8094 59.8807 41.4074 60.9634 40.5274 61.8287C38.3207 63.9941 36.3624 66.0977 33.7294 68.0914C32.9193 68.7048 32.2544 69.2763 31.7346 69.8059C30.841 70.7146 29.7103 72.6534 28.1851 71.9713Z" fill="#E37027"/>
<path d="M31.6913 82.4023C30.385 82.1826 27.0362 80.404 28.2832 78.5385C29.7353 76.3639 31.9147 74.4617 33.5743 72.3879C36.237 69.062 39.1551 66.6974 42.643 64.0765C45.064 62.259 46.9585 59.9563 49.7921 58.6424C55.0598 56.2008 58.7035 54.5245 60.7233 53.6134C63.2287 52.485 66.2994 51.9379 69.0351 51.2054C69.684 51.0299 70.3322 50.9185 70.9797 50.8712C72.5777 50.7499 74.1553 50.5416 75.6508 50.8437C76.6538 51.0429 76.7724 52.3911 76.9616 53.1511C77.2352 54.2498 77.8484 55.2272 77.9373 56.3808C78.0786 58.1724 77.9806 59.6656 77.6432 60.8604C77.5353 61.245 77.2086 61.4586 76.6629 61.5014C74.558 61.6616 72.6454 62.0484 70.9249 62.6619C70.1157 62.948 69.3428 63.5432 68.5016 63.843C66.5578 64.5389 64.9141 65.1531 63.5706 65.6857C58.7741 67.5855 54.999 69.9295 49.8218 72.9373C47.4258 74.329 45.4151 75.565 43.3862 77.4741C41.7995 78.9665 40.2402 80.4361 38.861 82.1208C38.2363 82.883 37.8465 83.8535 37.2606 84.6753C37.2181 84.7348 37.1626 84.7783 37.0942 84.8058C35.1063 85.5886 33.4604 83.8398 31.8896 82.4962C31.8331 82.4468 31.7644 82.4143 31.6913 82.4023Z" fill="#E37027"/>
</svg>
