<svg width="100" height="100" viewBox="0 0 100 100" fill="none" xmlns="http://www.w3.org/2000/svg">
<rect width="100" height="100" fill="#FFD800"/>
<path d="M59.3551 28.2878H86.8446C86.8843 28.2878 86.9223 28.3035 86.9503 28.3315C86.9783 28.3596 86.9941 28.3976 86.9941 28.4372L86.9823 44.4339C86.9823 44.5336 86.9335 44.5834 86.8358 44.5834L59.4547 44.5863C59.3933 44.5863 59.3344 44.6107 59.291 44.6541C59.2476 44.6975 59.2232 44.7564 59.2232 44.8178C59.1998 49.1469 59.1998 53.4819 59.2232 57.8227C59.2613 64.6123 68.7849 64.3749 68.7644 57.8959C68.7566 55.7626 68.7537 53.6528 68.7556 51.5664C68.7556 51.5244 68.7723 51.4842 68.802 51.4545C68.8316 51.4248 68.8719 51.4082 68.9139 51.4082L86.786 51.4257C86.842 51.4257 86.8956 51.448 86.9352 51.4875C86.9748 51.5271 86.997 51.5808 86.997 51.6367C86.9931 55.8349 86.9941 60.0214 86.9999 64.1962C87.0038 66.9663 86.8602 68.9062 86.5692 70.0158C85.189 75.2846 79.8645 78.9944 74.3672 78.9944C57.8694 79.0022 41.3726 79.0051 24.8767 79.0032C22.1222 79.0032 19.1068 77.6347 17.0732 75.7036C14.8149 73.5625 13.4982 70.9448 13.1231 67.8503C13.0625 67.3463 13.0401 65.3957 13.0557 61.9984C13.1104 50.8768 13.0918 39.7571 13 28.6394C12.9996 28.598 13.0075 28.5569 13.0233 28.5185C13.039 28.4801 13.0622 28.4452 13.0917 28.4158C13.1211 28.3864 13.1561 28.363 13.1947 28.3471C13.2333 28.3311 13.2747 28.3229 13.3165 28.3229L31.1681 28.3405C31.2814 28.3425 31.3381 28.4001 31.3381 28.5134C31.3713 38.1972 31.3674 47.8712 31.3264 57.5355C31.3205 58.5611 31.4426 59.366 31.6927 59.9501C33.2868 63.6892 38.9306 63.8826 40.4983 59.9823C40.7328 59.3982 40.85 58.4801 40.85 57.2278C40.8461 53.0609 40.848 48.9232 40.8558 44.8149C40.8558 44.7841 40.8498 44.7536 40.838 44.7252C40.8262 44.6967 40.8089 44.6709 40.7872 44.6491C40.7654 44.6274 40.7396 44.6101 40.7111 44.5983C40.6827 44.5865 40.6522 44.5805 40.6214 44.5805L35.1739 44.6361C35.1116 44.6369 35.0498 44.6253 34.992 44.6019C34.9342 44.5785 34.8817 44.5438 34.8375 44.4999C34.7933 44.4559 34.7583 44.4037 34.7346 44.346C34.7108 44.2884 34.6988 44.2267 34.6992 44.1644L34.7519 28.4548C34.7519 28.3513 34.8027 28.2995 34.9043 28.2995L40.5569 28.2878C40.6323 28.2878 40.7046 28.2578 40.7579 28.2045C40.8112 28.1512 40.8412 28.0789 40.8412 28.0035L40.85 21.2784C40.85 21.2046 40.8793 21.1337 40.9315 21.0815C40.9837 21.0293 41.0545 21 41.1284 21L58.9478 21.0205C59.0146 21.0205 59.0787 21.0471 59.126 21.0943C59.1732 21.1416 59.1998 21.2057 59.1998 21.2725L59.1968 28.1266C59.1968 28.234 59.2496 28.2878 59.3551 28.2878Z" fill="black"/>
</svg>
