<svg width="100" height="100" viewBox="0 0 100 100" fill="none" xmlns="http://www.w3.org/2000/svg">
<rect width="100" height="100" fill="#595C62"/>
<path d="M18.9991 40.8203H22.4678V50.125C22.4678 51.6016 22.5108 52.5586 22.5967 52.9961C22.7452 53.6992 23.0967 54.2656 23.6514 54.6953C24.2139 55.1172 24.9795 55.3281 25.9483 55.3281C26.9327 55.3281 27.6748 55.1289 28.1748 54.7305C28.6748 54.3242 28.9756 53.8281 29.0772 53.2422C29.1787 52.6562 29.2295 51.6836 29.2295 50.3242V40.8203H32.6983V49.8438C32.6983 51.9062 32.6045 53.3633 32.417 54.2148C32.2295 55.0664 31.8819 55.7852 31.3741 56.3711C30.8741 56.957 30.2022 57.4258 29.3584 57.7773C28.5147 58.1211 27.4131 58.293 26.0537 58.293C24.4131 58.293 23.167 58.1055 22.3155 57.7305C21.4717 57.3477 20.8037 56.8555 20.3116 56.2539C19.8194 55.6445 19.4952 55.0078 19.3389 54.3438C19.1123 53.3594 18.9991 51.9062 18.9991 49.9844V40.8203ZM36.7614 58V40.8203H40.1364L47.1677 52.293V40.8203H50.3903V58H46.9098L39.9841 46.7969V58H36.7614ZM58.2972 58V43.7266H53.1995V40.8203H66.8519V43.7266H61.7659V58H58.2972ZM67.7158 58L73.5869 49.0352L68.2666 40.8203H72.3213L75.7666 46.3398L79.1416 40.8203H83.1611L77.8173 49.1641L83.6884 58H79.5048L75.6963 52.0586L71.8759 58H67.7158Z" fill="#F8F8F8"/>
</svg>
