<svg width="100" height="100" viewBox="0 0 100 100" fill="none" xmlns="http://www.w3.org/2000/svg">
<rect width="100" height="100" fill="#0168B3"/>
<g clip-path="url(#clip0_132_9)">
<path fill-rule="evenodd" clip-rule="evenodd" d="M43.4734 83.4173C44.0188 83.4173 44.9566 83.2405 45.6944 82.0591C45.2727 81.1213 44.9722 79.2268 44.9288 78.5374C44.7116 75.009 46.0712 71.6902 47.5599 71.5993C48.65 71.5336 49.523 72.5657 49.6231 74.2379C49.8908 78.6338 48.4274 80.4693 47.695 82.0511C47.8187 82.6652 48.8588 83.7098 49.8416 83.7098C50.2044 83.7098 50.6434 83.528 50.7532 83.3811C50.6796 83.1282 50.6059 82.7999 50.6059 82.3255C50.6059 79.7782 52.2445 77.6308 53.6638 77.6308C54.7918 77.6308 55.4467 79.1229 55.4467 80.1073C55.4467 81.2699 54.4639 82.2182 53.0089 83.1282C53.2643 83.3811 53.7353 83.5655 54.1373 83.5655C56.2127 83.5655 57.2995 81.0535 58.1043 78.76C58.2495 78.3219 58.505 77.7036 59.0134 77.7036C59.888 77.7036 60.2525 83.4539 61.7046 83.4539C62.3246 83.4539 62.8339 82.179 62.8339 81.1992C62.8339 80.471 62.5793 80.3982 62.5793 79.3417C62.5793 78.1792 63.1984 77.1972 64.0364 77.1972C64.5457 77.1972 64.7292 77.7036 64.7292 78.3219C64.7292 80.6512 63.0536 84.9818 60.5817 84.9818C58.7226 84.9818 58.8678 81.78 58.2133 81.78C57.4826 81.78 56.4632 85.0193 52.8636 85.0193C52.2782 85.0193 51.6615 84.7284 51.1535 84.1446C50.2806 84.7284 49.5503 84.9818 48.7131 84.9818C47.3684 84.9818 46.7854 83.5991 46.2399 83.5991C45.5837 83.5991 44.8581 85.0193 42.6724 85.0193C40.9256 85.0193 40.634 82.6917 40.0173 82.6917C39.4702 82.6917 38.6338 85.0193 37.7247 85.0193C36.1935 85.0193 35.869 80.9799 34.5204 80.9799C33.4652 80.9799 30.1304 85.0824 29.2255 84.9889C28.861 84.9506 28.7086 84.6779 28.7465 84.3142C28.7978 83.8113 29.2305 82.464 29.4073 81.8259C29.7015 80.7193 29.9717 79.5063 30.1224 79.1195C30.2722 78.7297 30.6767 78.4507 31.0004 78.481C31.1641 78.497 31.2134 78.8017 31.2639 79.0526C31.4474 79.9525 31.7046 80.87 31.9937 80.87C32.5047 80.87 34.1933 77.6308 35.1753 77.6308C36.3778 77.6308 36.5226 82.7266 38.1582 82.7266C38.7054 82.7266 39.1074 82.0725 39.4702 81.2699C39.5076 79.9209 39.8704 77.9974 40.9623 77.9974C41.7279 77.9974 42.0924 79.7054 41.5439 81.1992C41.5439 82.9808 42.7077 83.4173 43.4734 83.4173ZM73.5332 78.0327C74.1898 78.0327 73.8977 82.1445 74.809 82.1445C75.3553 82.1445 76.0818 77.0137 79.502 77.0137C80.6658 77.0137 81.4289 77.6665 81.4289 78.5037C81.4289 79.0892 80.9941 79.5981 80.3766 79.5981C79.0664 79.5981 79.393 78.6144 78.8483 78.6144C77.3908 78.6144 76.3347 81.4155 75.2471 83.8555C74.809 84.8366 74.5526 85.0193 74.1898 85.0193C73.2769 85.0193 73.0614 82.5073 72.696 81.4155C71.9321 83.052 70.4775 85.0193 68.0737 85.0193C66.6915 85.0193 65.313 84.2911 65.313 82.0725C65.313 79.5981 66.9108 77.8134 68.5481 77.8134C69.7864 77.8134 70.6227 79.0892 70.6227 79.9975C70.6227 82.437 67.4179 82.5073 67.4179 83.0175C67.4179 83.491 68.2564 83.6736 68.7282 83.6736C70.7683 83.6736 72.1358 80.9222 72.5866 79.0517C72.6649 78.7272 72.9507 78.0327 73.5332 78.0327ZM48.4446 75.2194C48.3815 74.203 48.1357 73.7442 47.5893 73.7804C46.8645 73.8246 46.5291 76.1054 46.6772 78.5012C46.7715 80.0648 47.0047 80.3056 47.2211 80.2909C47.6222 80.2673 48.5839 77.4734 48.4446 75.2194ZM41.2194 74.8309C40.5249 74.8309 40.1706 74.3364 40.1268 73.7374C40.0573 72.8262 40.7076 72.1018 41.3987 72.1018C42.0179 72.1018 42.475 72.5 42.5259 73.0825C42.5996 73.921 42.0179 74.8309 41.2194 74.8309ZM53.8464 80.5055C53.8464 79.8881 53.5173 79.3792 53.12 79.3792C52.7891 79.3792 52.0269 79.7412 52.0269 80.9062C52.0269 81.8191 52.3518 82.2518 52.5 82.437C53.5535 82.1091 53.8464 81.2337 53.8464 80.5055ZM67.0198 82.0725C68.0388 81.8907 68.6929 81.2699 68.8764 80.7244C69.0582 80.1772 68.8389 79.2719 68.0737 79.2719C66.6915 79.2719 66.8005 81.5254 67.0198 82.0725ZM26.1697 76.688C26.0649 76.3571 25.7627 75.6134 25.6794 75.0645C25.4976 73.849 26.1331 73.048 26.7169 72.8645C27.3722 72.6818 27.6277 73.0101 27.8807 73.7753C28.209 74.9391 28.2452 76.4666 28.1353 78.6502C27.9914 81.6348 26.4985 85.2373 22.7874 85.1628C19.5835 85.0929 18.1659 83.0175 18.0186 79.8519C17.9491 78.3598 18.0548 76.8689 18.6739 74.7581C19.0014 73.6289 19.2939 73.2273 20.3116 73.0101C21.1118 72.8645 21.0398 73.7 20.858 74.6862C20.4585 76.8689 20.2742 77.9229 20.4215 80.3982C20.5642 83.0175 21.768 84.0373 23.0782 84.0373C25.043 84.0748 25.9159 82.437 26.2813 80.0699C26.5704 78.1792 26.3532 77.2692 26.1697 76.688Z" fill="white"/>
<path fill-rule="evenodd" clip-rule="evenodd" d="M73.0707 27.2591C73.6313 27.4532 73.5732 28.2844 73.5732 29.3459C73.5732 31.1987 73.38 33.5503 72.8771 33.5937C72.1237 33.6518 69.3449 31.1798 69.0927 29.3459C69.847 29.423 72.1817 29.0559 73.0707 27.2591ZM67.9723 27.7625C67.9723 27.5302 68.1655 27.087 68.8036 27.087C70.5621 27.087 72.1817 25.9085 72.1817 24.8461C72.1817 24.538 72.1236 24.4029 71.9885 24.2286C72.7798 24.325 73.09 24.865 73.09 25.5225C73.09 26.9321 71.2532 28.5349 69.2468 28.5349C68.4946 28.5349 67.9723 28.3034 67.9723 27.7625ZM68.8225 26.3529C68.5523 26.3529 68.1655 26.3529 67.9525 25.9287C67.7783 25.5806 67.8364 25.0204 67.5081 24.7691C67.8364 24.865 68.1844 24.865 68.4555 24.865C69.3259 24.865 70.1572 24.2669 70.7944 24.2669C71.2153 24.2669 71.3505 24.538 71.3505 24.8074C71.3505 25.6584 69.6349 26.3529 68.8225 26.3529Z" fill="white"/>
<path d="M25.6259 41.491C26.2816 41.491 26.1465 37.4744 27.2089 37.4744C27.4602 37.4744 27.5372 37.7256 27.5372 38.0346C27.5372 38.942 27.0927 40.2746 27.0927 41.0078C27.0927 41.3753 27.1891 41.491 27.3629 41.491C27.8272 41.491 28.6378 37.0686 29.43 37.0686C29.6813 37.0686 29.7962 37.3195 29.7962 37.5716C29.7962 38.498 28.6185 41.1623 28.6185 41.9153C28.6185 42.0306 28.6576 42.1274 28.7536 42.1274C29.2368 42.1274 30.2023 40.0427 30.5108 39.0001C30.6847 38.4588 30.9166 38.1688 31.1287 38.1688C31.3219 38.1688 31.4962 38.3818 31.4962 38.8259C31.4962 39.8684 30.5298 42.3206 29.6813 43.9629C29.0246 45.2366 28.001 47.0705 28.001 48.0941C28.001 48.6152 28.0966 49.1556 28.8508 49.8126C27.6142 49.7356 27.1121 49.6198 26.6495 48.6543C24.5833 52.7669 30.4536 52.3616 28.4446 56.0104C28.0772 55.355 25.181 54.6786 25.181 50.8552C25.181 47.5536 28.0772 45.623 28.0772 44.2513C28.0772 43.9823 27.9821 43.75 27.73 43.537C27.0927 42.9961 27.0729 42.5534 26.5725 42.5534C26.2042 42.5534 25.7601 43.4019 26.2236 44.1553C26.3784 44.4066 26.5136 44.5606 26.5136 44.7925C26.5136 45.333 25.6633 46.7805 25.0657 46.7805C24.4671 46.7805 24.0042 45.2955 24.0042 42.8998C24.0042 40.7759 24.4865 38.6331 25.0846 38.6331C25.2589 38.6331 25.3169 38.7488 25.3169 38.9033C25.3169 39.1542 25.2399 39.6563 25.2399 40.5048C25.2399 41.4131 25.452 41.491 25.6259 41.491Z" fill="white"/>
<path d="M30.5492 47.148C31.3615 47.148 32.0362 46.5486 32.0362 45.2182V43.2475C32.0362 42.495 32.0943 41.6456 32.5973 41.0462C32.5392 41.2975 32.5392 41.5686 32.5392 41.8186C32.5392 43.4794 33.4656 44.6188 33.4656 46.2216C33.4656 46.8189 33.2917 47.148 32.8292 47.148C32.3843 47.148 32.423 46.7418 32.3262 46.7418C32.2492 46.7418 32.133 46.9931 32.133 47.2642C32.133 47.6691 32.423 48.3063 33.2337 48.3063C33.9298 48.3063 34.4892 47.6691 34.4892 46.9548C34.4892 45.2182 33.1377 43.2862 33.1377 41.4334C33.1377 40.6211 33.3498 40.0811 33.5237 39.656C33.5237 43.4992 36.7873 46.2986 36.7873 47.9006C36.7873 48.2676 36.5171 48.5576 36.1122 48.5576C35.6669 48.5576 35.4548 48.2095 35.4548 47.9385C35.4548 47.8033 35.435 47.7655 35.3777 47.7655C35.2624 47.7655 34.9143 48.1514 34.9143 48.6544C34.9143 49.2908 35.435 50.064 36.4014 50.064C37.5012 50.064 38.1001 49.1359 38.1001 48.3063C38.1001 46.2797 34.1411 43.2092 34.1411 39.927C34.1411 39.3668 34.2371 38.4594 34.6433 37.764C32.0943 39.4047 31.3034 41.5875 31.3034 43.4992C31.3034 45.1601 31.2453 45.9884 30.396 45.9884C29.9511 45.9884 29.8357 45.5844 29.6808 45.5844C29.5647 45.5844 29.5066 45.9316 29.5066 46.0276C29.5066 46.7418 30.0289 47.148 30.5492 47.148Z" fill="white"/>
<path fill-rule="evenodd" clip-rule="evenodd" d="M59.8062 25.4068C60.0512 25.2422 61.1388 25.5032 62.5471 24.8078C62.7201 24.7115 62.8944 24.6727 63.0484 24.6727C63.7256 24.6727 63.5505 25.4451 64.1705 25.4451C64.6529 25.4451 65.272 25.0389 65.6391 25.0389C66.2148 25.0389 67.0453 26.8547 67.0453 27.7041C67.0453 28.6894 65.562 29.2875 63.8027 29.2875C61.2369 29.2875 59.6892 27.0483 59.6892 25.6C59.6892 25.4838 59.7481 25.4451 59.8062 25.4068ZM64.0156 27.8589C64.8659 27.8589 65.5039 27.4726 65.5039 27.2406C65.5039 27.1645 65.3882 27.1055 65.1361 27.1055C64.8848 27.1055 64.3827 27.0866 63.4352 26.9325C62.6233 26.7966 62.005 26.4885 61.7727 26.4885C61.6956 26.4885 61.6569 26.5264 61.6569 26.5845C61.6569 27.0866 62.585 27.8589 64.0156 27.8589Z" fill="white"/>
<path d="M30.9555 54.4269C30.3187 54.5818 29.2947 55.5848 29.2947 57.17C29.2947 59.0619 31.3226 61.9779 34.6633 61.9779C37.482 61.9779 38.1774 60.0283 38.1774 58.7138C38.1774 55.7978 36.3822 53.751 34.0458 53.751C32.7713 53.751 31.6315 54.6791 31.6315 56.0487C31.6315 57.324 32.5971 59.2349 34.8952 59.2349C35.9769 59.2349 36.6133 58.4625 36.6133 57.5753C36.6133 56.7057 35.822 55.5095 34.6633 55.5095C34.3152 55.5095 34.0647 55.7397 34.0647 56.1068C34.0647 56.5702 34.7024 57.034 35.4937 57.034C35.6869 57.034 35.8409 56.9961 35.9188 56.957C35.9571 57.0151 35.9769 57.1119 35.9769 57.1889C35.9769 57.6334 35.5509 57.9044 34.8952 57.9044C33.9107 57.9044 32.9637 57.17 32.9637 56.0099C32.9637 55.3163 33.5626 54.8142 34.4313 54.8142C36.1499 54.8142 37.1735 56.3387 37.1735 57.8653C37.1735 59.2349 36.4209 60.0283 34.8762 60.0283C31.786 60.0283 30.28 57.247 30.9555 54.4269Z" fill="white"/>
<path fill-rule="evenodd" clip-rule="evenodd" d="M52.9987 65.7404C53.9243 65.7404 53.8767 65.6633 54.1667 65.6633C54.4559 65.6633 54.4756 65.8376 54.4756 65.9533C54.4756 66.3784 53.5286 66.9008 51.8496 66.9008C50.8639 66.9008 50.2658 66.3785 50.0915 65.7993C49.1268 66.4168 47.6592 66.977 46.2104 66.977C42.2523 66.977 41.248 65.2572 40.0122 64.6991C39.0648 64.2739 37.6169 65.1048 35.5898 62.845C35.8601 62.9031 36.2271 62.9229 36.5175 62.9229C38.2924 62.9229 39.239 62.0545 39.239 60.663C39.239 60.4892 39.2201 60.2985 39.1999 60.1256C39.7412 60.3377 40.9778 61.2632 41.2669 62.9031C41.3061 63.0971 42.0974 63.2701 42.5987 63.2701C43.2948 63.2701 44.1834 62.9801 44.3176 61.8424C46.6355 61.6492 48.2004 60.2788 48.5287 58.5392C49.3583 58.8102 50.3037 59.5637 50.536 59.9505C50.8639 59.8347 51.2503 59.7766 51.6943 59.7766C52.3118 59.7766 53.008 59.8928 53.8376 60.1445C53.8767 59.8928 53.9154 59.5834 54.3018 59.5834C54.881 59.5834 54.7261 60.2207 54.9193 60.586C55.0161 60.7792 55.5001 60.8954 55.5001 61.2813C55.5001 61.6492 55.1895 61.7843 54.9971 61.7843C54.9193 61.7843 54.8229 61.7654 54.7644 61.7464C54.3788 61.8816 54.3599 64.6608 52.7369 64.6608C51.5403 64.6608 50.4396 63.6763 49.9564 62.4418C49.8205 62.0743 49.5322 61.8424 49.2611 61.8424C48.953 61.8424 48.7788 61.9005 48.4126 62.3067C47.37 63.4444 45.6313 64.4288 43.488 64.4288C42.831 64.4288 42.3104 64.3708 42.1744 64.3708C42.0974 64.3708 42.0974 64.3897 42.0974 64.4086C42.0974 64.5446 42.7536 65.0669 44.1834 65.0669C47.5813 65.0669 48.4126 63.1544 48.953 63.1544C49.03 63.1544 49.2611 63.1544 49.3962 63.4633C50.1879 65.3153 51.917 65.7404 52.9987 65.7404ZM51.5016 61.8815C51.5016 62.3067 51.8496 62.6539 52.2739 62.6539C52.699 62.6539 53.0463 62.3067 53.0463 61.8815C53.0463 61.4564 52.699 61.1084 52.2739 61.1084C51.8496 61.1084 51.5016 61.4564 51.5016 61.8815Z" fill="white"/>
<path fill-rule="evenodd" clip-rule="evenodd" d="M64.7117 53.4417C64.3064 53.4417 62.0626 56.4351 60.6184 56.4351C60.2704 56.4351 59.9812 55.7777 59.9812 55.2785C59.9812 55.0074 60.1533 54.8142 60.7733 54.6791C64.0934 53.9248 63.3589 51.434 66.1958 51.434C67.7594 51.434 69.4994 52.4963 69.4994 54.8912C69.4994 57.4402 65.8709 60.6058 65.33 60.6058C64.8847 60.6058 64.4023 59.9694 64.4023 59.5443C64.4023 59.41 64.4604 59.2353 64.8468 59.0809C66.6979 58.346 67.7594 56.6481 67.7594 55.7777C67.7594 55.5849 67.6635 55.3942 67.4114 55.3942C67.0843 55.3942 65.6781 58.5981 64.1123 58.5981C63.0298 58.5981 61.9283 57.6145 61.9283 57.1502C61.9283 56.3779 65.0589 54.9493 65.0589 53.8668C65.0589 53.461 64.8666 53.4417 64.7117 53.4417ZM66.7943 52.245C66.5241 52.245 66.2349 52.458 66.2349 52.9803C66.2349 53.5578 66.679 53.9248 66.9303 54.041C67.065 54.118 67.2783 54.1959 67.4888 54.1959C68.0499 54.1959 68.4939 54.041 68.4939 53.5768C68.4939 52.9803 67.6248 52.245 66.7943 52.245Z" fill="white"/>
<path fill-rule="evenodd" clip-rule="evenodd" d="M31.4967 29.1137C31.921 29.1137 32.2682 29.4618 32.2682 29.8861C32.2682 30.3112 31.921 30.6593 31.4967 30.6593C31.0716 30.6593 30.7235 30.3112 30.7235 29.8861C30.7235 29.4618 31.0716 29.1137 31.4967 29.1137ZM30.4912 27.3758C30.9167 27.3758 31.2648 27.7239 31.2648 28.1482C31.2648 28.5724 30.9167 28.9205 30.4912 28.9205C30.0669 28.9205 29.7196 28.5724 29.7196 28.1482C29.7196 27.7239 30.0669 27.3758 30.4912 27.3758ZM28.8892 34.3278C28.8892 34.9061 29.0824 35.4853 29.6228 36.0068C29.4688 36.1225 29.2175 36.1996 28.8703 36.1996C28.193 36.1996 27.6539 35.7555 27.6539 35.0602C27.6539 34.0959 28.5794 33.5546 29.0243 33.4385C28.9473 33.6708 28.8892 33.9217 28.8892 34.3278ZM26.243 34.5383C26.4753 34.5383 26.7262 34.5193 26.9383 34.481C26.437 35.1183 25.876 35.4083 25.3945 35.4083C24.7572 35.4083 24.2749 34.9061 24.2749 33.9987C24.2749 33.9027 24.2749 33.8067 24.2938 33.7095C24.7572 34.3468 25.5296 34.5383 26.243 34.5383ZM25.4328 36.5859C25.9538 36.5859 26.533 36.4706 27.2856 36.2968C26.3019 37.1462 25.4715 37.5902 24.8532 37.5902C24.0619 37.5902 23.6174 36.8949 23.6174 35.4272C24.1979 36.3157 24.7374 36.5859 25.4328 36.5859ZM25.7598 25.5613C25.7598 24.8458 26.3019 24.2477 27.0545 24.2477C28.3673 24.2477 28.7924 25.6581 28.7924 26.5845C28.7924 27.0096 28.7154 27.3952 28.6194 27.7041C27.2856 27.7041 25.7598 27.0867 25.7598 25.5613ZM25.9151 29.3267C26.7628 28.7862 27.5179 28.7084 28.1552 28.7084C28.3092 28.7084 28.4633 28.7147 28.5794 28.7273C28.9284 28.7665 29.2045 28.7724 29.2945 28.8624C29.4515 29.0194 29.3568 29.3178 29.6031 29.6541C29.8497 29.9917 30.1452 29.9441 30.1452 30.3112C30.1452 30.6012 29.6031 32.3189 28.2132 33.015C27.5566 33.3425 27.0347 33.4776 26.5911 33.4776C25.8377 33.4776 25.3166 33.1501 24.8532 33.1501C24.7762 33.1501 24.6802 33.1884 24.5249 33.1884C24.3519 33.1884 24.1587 32.9952 24.1587 32.8223C24.1587 32.744 24.1806 32.6686 24.2168 32.6093C24.4862 32.1648 24.2395 30.3949 25.9151 29.3267ZM28.3673 29.4429C28.2701 29.3848 28.2132 29.3658 28.0773 29.3658C27.789 29.3658 27.5756 29.4037 27.5756 29.7699C27.5756 30.3499 28.116 31.3735 28.7924 31.3735C29.1013 31.3735 29.2567 31.0254 29.2567 30.7552C29.2567 30.6201 28.8875 30.3962 28.7541 30.2144C28.5411 29.9248 28.5411 29.5388 28.3673 29.4429ZM27.6917 32.2418C27.6917 32.2031 27.6539 32.1838 27.5958 32.145C27.0154 31.8757 26.3979 31.3344 26.2822 30.389C26.2632 30.2531 26.2241 30.195 26.147 30.195C25.9341 30.195 25.6449 30.6782 25.6449 31.0646C25.6449 31.7788 26.3402 32.5701 26.9766 32.5701C27.3247 32.5701 27.6917 32.3769 27.6917 32.2418ZM32.7703 34.3278C32.7703 35.1574 32.3263 35.9676 31.3805 35.9676C30.396 35.9676 29.7579 35.0993 29.7579 34.0568C29.7579 33.1884 30.202 32.3382 30.6271 31.8369C31.5926 32.1261 32.7703 33.0344 32.7703 34.3278ZM26.4951 28.1292C26.4951 28.1292 25.9341 28.5535 25.2396 28.5535C24.41 28.5535 23.7525 27.936 23.7525 27.0677C23.7525 26.4683 24.0619 25.8513 24.7762 25.5419C24.7572 25.6581 24.7572 25.7541 24.7572 25.8703C24.7572 26.9709 25.3747 27.8009 26.4951 28.1292Z" fill="white"/>
<path fill-rule="evenodd" clip-rule="evenodd" d="M61.3474 33.7289C61.7927 33.7289 62.1597 34.0955 62.1597 34.5387C62.1597 34.9836 61.7927 35.3506 61.3474 35.3506C60.9084 35.3506 60.5405 34.9836 60.5405 34.5387C60.5405 34.0955 60.9084 33.7289 61.3474 33.7289ZM61.5035 36.0653C62.0057 36.0653 62.4118 36.4702 62.4118 36.9715C62.4118 37.4749 62.0057 37.8798 61.5035 37.8798C61.0048 37.8798 60.5986 37.4749 60.5986 36.9715C60.5986 36.4702 61.0048 36.0653 61.5035 36.0653ZM59.1498 37.2808C59.8831 37.2808 60.4833 37.8798 60.4833 38.6134C60.4833 39.3466 59.8831 39.946 59.1498 39.946C58.4145 39.946 57.8164 39.3466 57.8164 38.6134C57.8164 37.8798 58.4145 37.2808 59.1498 37.2808ZM59.3039 35.1187C59.729 35.1187 60.0762 35.4668 60.0762 35.891C60.0762 36.3161 59.729 36.6634 59.3039 36.6634C58.8779 36.6634 58.5307 36.3161 58.5307 35.891C58.5307 35.4668 58.8779 35.1187 59.3039 35.1187ZM56.7709 36.6634C57.1973 36.6634 57.5454 37.0106 57.5454 37.4357C57.5454 37.8608 57.1973 38.2072 56.7709 38.2072C56.3504 38.2072 56.0024 37.8608 56.0024 37.4357C56.0024 37.0106 56.3504 36.6634 56.7709 36.6634ZM59.226 31.682C59.9033 31.682 60.4635 32.2414 60.4635 32.9186C60.4635 33.5942 59.9033 34.1531 59.226 34.1531C58.5496 34.1531 57.9894 33.5942 57.9894 32.9186C57.9894 32.2414 58.5496 31.682 59.226 31.682ZM60.1735 29.8086C60.5796 29.8086 60.9084 30.1373 60.9084 30.5426C60.9084 30.948 60.5796 31.2763 60.1735 31.2763C59.7673 31.2763 59.439 30.948 59.439 30.5426C59.439 30.1373 59.7673 29.8086 60.1735 29.8086ZM56.675 31.6631C57.0811 31.6631 57.4094 31.9914 57.4094 32.3967C57.4094 32.8025 57.0811 33.1308 56.675 33.1308C56.273 33.1308 55.9451 32.8025 55.9451 32.3967C55.9451 31.9914 56.273 31.6631 56.675 31.6631ZM57.0222 33.7289C57.6796 33.7289 58.2024 34.2504 58.2024 34.9057C58.2024 35.5627 57.6796 36.0842 57.0222 36.0842C56.3702 36.0842 55.8479 35.5627 55.8479 34.9057C55.8479 34.2504 56.3702 33.7289 57.0222 33.7289ZM54.5145 35.0416C55.113 35.0416 55.616 35.5438 55.616 36.1423C55.616 36.7412 55.113 37.2417 54.5145 37.2417C53.9151 37.2417 53.4138 36.7412 53.4138 36.1423C53.4138 35.5438 53.9151 35.0416 54.5145 35.0416ZM54.8419 32.6476C55.2679 32.6476 55.616 32.9957 55.616 33.4199C55.616 33.8442 55.2679 34.1923 54.8419 34.1923C54.4185 34.1923 54.0704 33.8442 54.0704 33.4199C54.0704 32.9957 54.4185 32.6476 54.8419 32.6476ZM60.8494 39.3664C60.8494 38.9804 61.1975 38.6521 61.5797 38.6521C62.0057 38.6521 62.334 38.9804 62.334 39.3664C62.334 39.8109 62.0057 40.1198 61.5797 40.1198C61.1975 40.1198 60.8494 39.8109 60.8494 39.3664Z" fill="white"/>
<path fill-rule="evenodd" clip-rule="evenodd" d="M63.5705 61.3399C63.5705 63.1729 60.8692 65.431 57.2545 65.431C56.1382 65.431 55.5393 64.6616 55.5393 63.8893C55.5393 62.7895 56.1382 61.7852 56.5975 61.2439C56.8096 60.9918 57.0226 60.799 57.2158 60.799C57.3706 60.799 57.8349 61.1269 58.8783 61.1269C60.8309 61.1269 62.0052 60.2603 62.5073 59.8735C62.953 59.8735 63.5705 60.2986 63.5705 61.3399ZM59.4196 60.2986C58.3758 60.2986 57.5255 59.9311 57.5255 59.5641V58.6752C57.5255 58.4041 58.2789 57.7686 59.6894 57.7686C60.8498 57.7686 61.6958 58.0956 61.6958 58.6558V59.1003C61.6958 59.3133 61.6596 59.5279 61.5026 59.6605C61.0051 60.0864 60.2509 60.2986 59.4196 60.2986ZM59.053 62.1712H58.8013C58.8211 62.3446 58.8392 62.4603 58.8392 62.6156C58.8392 63.0769 58.723 63.5601 58.5689 64.0223C59.5353 64.005 60.1928 63.734 60.676 63.4061C61.3679 62.9616 61.5607 62.4027 61.5607 61.9784C61.5607 61.6291 61.445 61.5722 61.3477 61.5722C61.237 61.5722 60.5787 62.1712 59.053 62.1712Z" fill="white"/>
<path d="M63.1843 43.6342C63.1843 44.1166 63.3392 44.6768 63.8224 44.6768C64.2277 44.6768 64.5758 44.0594 64.5758 43.3834C64.5758 42.611 64.4407 42.0117 64.4407 41.7027C64.4407 41.5685 64.4988 41.5104 64.5758 41.5104C64.8658 41.5293 65.1369 42.3206 65.4462 42.3206C65.7943 42.3206 66.312 41.6834 66.5241 41.6834C66.5822 41.6834 66.6012 41.7604 66.6012 41.7798C66.6012 42.0698 66.1571 42.7078 66.1571 42.9579C66.1571 43.17 67.2776 43.2091 67.2776 43.4023C67.2776 43.6923 66.1032 43.6923 65.543 43.9436C65.0017 44.1747 64.673 44.4647 64.673 44.8506C64.673 45.237 65.059 45.3132 65.6011 45.3132C66.8912 45.3132 67.7986 44.6187 68.0882 44.6187C68.1459 44.6187 68.1842 44.6579 68.1842 44.7155C68.1842 44.9087 67.528 45.5451 67.528 45.8351C67.528 46.1634 68.7263 46.5486 68.7073 46.7418C68.688 46.7998 68.6101 46.8188 68.475 46.8188C68.262 46.8188 67.9337 46.7615 67.682 46.7615C67.528 46.7615 67.3929 46.7809 67.334 46.8579C67.2005 47.0128 67.3727 48.0352 67.1041 48.0352C66.8524 48.0352 66.195 45.7581 64.7117 45.7581C64.4988 45.7581 64.3447 45.9315 64.3447 46.2215C64.3447 46.993 65.0981 47.8811 65.8132 48.3062C66.1369 48.5184 66.679 48.7313 66.679 48.8475C66.679 49.0777 65.4462 48.8665 65.4462 49.252C65.4462 49.6001 65.6011 50.122 65.6011 50.4301C65.6011 50.5273 65.5813 50.6422 65.4652 50.6422C65.2341 50.6422 64.673 49.5807 64.402 49.5807C64.1705 49.5807 63.6683 50.2171 63.4545 50.2171C63.3973 50.2171 63.3594 50.1595 63.3594 50.1031C63.3594 49.6582 64.0737 48.6543 64.0737 47.669C64.0737 47.206 64.0156 46.2013 63.4545 46.2013C62.9911 46.2013 62.4692 46.9349 62.2369 47.669C62.1017 48.0933 62.199 49.7352 61.8896 49.7352C61.5996 49.7352 61.6766 48.6345 61.2898 48.6345C61.0049 48.6345 60.3866 49.1556 60.1736 49.1556C60.1353 49.1556 60.0966 49.1358 60.0966 49.098C60.0966 48.8665 60.6568 48.1135 60.6568 47.9582C60.6568 47.669 59.381 47.6311 59.381 47.3988C59.381 47.2641 59.8832 47.1669 60.3474 47.0898C61.3294 46.916 62.779 46.2013 62.779 45.1987C62.779 44.0783 61.6956 43.5955 60.9855 43.1313C60.6176 42.9002 60.2123 42.7078 60.2123 42.553C60.2123 42.3981 60.6766 42.3981 60.8698 42.3981C61.1589 42.3981 61.4456 42.3787 61.4456 42.1476C61.4456 41.9725 61.4056 41.6266 61.4056 41.3563C61.4056 41.1623 61.4258 41.0074 61.5036 41.0074C61.7928 41.0074 62.199 41.9536 62.3922 41.9536C62.7011 41.9536 63.1262 41.1812 63.4171 41.1812C63.5126 41.1812 63.5513 41.2402 63.5513 41.4136C63.5513 42.1278 63.1843 42.9381 63.1843 43.6342ZM53.9733 37.9769C54.1863 39.6176 56.3893 38.7872 56.3893 40.7763C56.3893 41.0663 56.3123 41.4914 56.3123 41.8568C56.3123 42.2827 56.3506 42.6498 56.6751 42.6498C57.0034 42.6498 57.0812 42.4178 57.0812 42.1085C57.0812 41.7987 57.0034 41.4136 57.0034 41.2014C57.0034 40.5251 57.4866 40.371 57.7766 40.371C58.5119 40.371 59.0721 41.1244 60.1736 41.1244C59.9223 42.3598 57.3704 42.0306 57.3704 43.3834C57.3704 44.0594 58.0476 44.2126 58.4917 44.2126C58.8979 44.2126 59.0338 44.1545 59.0338 43.8085C59.0338 43.6145 58.9942 43.4023 58.9942 43.2672C58.9942 43.1894 59.0527 43.1123 59.15 43.1123C59.5751 43.1123 61.6577 44.6958 61.6577 45.179C61.6577 45.6222 59.4581 46.0666 58.8208 46.0666C58.6276 46.0666 58.5889 45.9315 58.5889 45.8545C58.5889 45.7194 58.9168 45.3132 58.9168 45.0821C58.9168 44.9087 58.6276 44.793 57.8536 44.793C57.4866 44.793 57.2164 44.8309 57.2164 45.1217C57.2164 45.6424 58.0666 46.2796 58.0666 46.7615C58.0666 47.1479 57.8347 47.3798 57.2164 47.3798C56.694 47.3798 55.9061 46.9737 55.9061 46.2985C55.9061 45.7581 56.4629 45.2181 56.4629 44.8898C56.4629 44.793 56.3893 44.6377 56.1574 44.6377C55.4418 44.6377 55.2491 46.5296 52.7178 46.7418C53.1239 46.3756 53.4712 45.9702 53.4712 45.1411C53.4712 44.7349 53.3752 44.4058 53.3752 43.9625C53.3752 43.3834 53.645 43.093 54.0314 43.093C54.7457 43.093 55.0929 44.0968 55.558 44.0968C55.8101 44.0968 56.0803 43.8662 56.0803 43.5181C56.0803 42.0508 53.2591 42.263 53.2591 40.1968C53.2591 39.6365 53.4514 38.9425 53.9733 37.9769Z" fill="white"/>
<path fill-rule="evenodd" clip-rule="evenodd" d="M56.637 47.9586C58.6657 48.345 59.7672 49.8707 59.7672 51.2993C59.7672 52.2846 59.1489 53.1904 58.0663 53.1904C57.081 53.1904 56.3701 52.5157 56.3701 51.4335C56.3701 50.6229 57.0031 49.7735 57.0031 48.9431C57.0031 48.6152 56.9072 48.2869 56.637 47.9586ZM54.5333 48.9814C55.4227 49.0975 55.6356 49.4065 55.6356 49.6586C55.6356 50.0829 55.2488 50.2167 54.8805 50.2167C54.6107 50.2167 54.3014 50.1599 53.9731 50.1599C53.548 50.1599 53.1237 50.2558 52.7756 50.662C53.0269 50.7007 53.3939 50.8741 53.3939 51.261C53.3939 52.3805 50.2843 51.4533 50.2843 54.3314C50.2843 55.8559 51.8682 57.5176 54.2627 57.5176C55.4997 57.5176 56.2922 57.1115 56.2922 56.6476C56.2922 56.281 55.6356 56.5315 55.6356 56.2225C55.6356 56.0874 55.8671 55.8353 55.8671 55.6232C55.8671 55.5289 55.7901 55.3546 55.6356 55.3546C55.2867 55.3546 54.6305 55.9132 53.2971 55.9132C52.2545 55.9132 51.2309 55.3159 51.2309 54.5044C51.2309 54.3314 51.3079 54.2334 51.4241 54.2334C51.5398 54.2334 51.6943 54.3116 51.829 54.3116C51.946 54.3116 51.965 54.2334 51.965 54.0212C51.965 53.8091 51.965 53.2101 52.3316 53.2101C52.6986 53.2101 53.3939 54.5625 56.0612 54.5625C56.9459 54.5625 58.6657 54.3887 59.3038 53.8091C59.284 55.9334 57.6223 58.7324 54.1473 58.7324C50.5364 58.7324 48.6045 55.8353 48.6045 53.171C48.6045 50.2167 51.0179 47.5343 54.3212 47.5343C55.1701 47.5343 55.8861 47.8226 55.8861 48.1901C55.8861 48.693 54.6305 48.3837 54.5333 48.9814ZM55.945 52.6908C55.945 53.1904 55.5771 53.6163 55.035 53.6163C54.5333 53.6163 54.1865 53.2101 54.1865 52.7476C54.1865 52.4197 54.3212 52.1103 54.3212 51.8203C54.3212 51.6271 54.2627 51.4335 54.0703 51.242C55.1891 51.242 55.945 51.9563 55.945 52.6908ZM62.8368 51.9946C62.8368 52.7476 62.2955 53.384 61.5034 53.384C60.7727 53.384 60.2895 52.8637 60.2895 52.2265C60.2895 51.6654 60.6566 51.1641 60.6566 50.6229C60.6566 50.4297 60.5985 50.2167 60.4634 50.0067C61.9096 50.1026 62.8368 50.971 62.8368 51.9946ZM57.6412 50.5269C57.6412 50.7971 57.8344 51.0101 58.1055 51.0101C58.4144 51.0101 58.6084 50.739 58.6084 50.4297C58.6084 50.0256 58.2406 49.4646 57.8925 49.4646C57.7376 49.4646 57.7961 49.6965 57.7565 49.9477C57.7376 50.1397 57.6412 50.372 57.6412 50.5269Z" fill="white"/>
<path fill-rule="evenodd" clip-rule="evenodd" d="M42.0398 26.9322C43.3143 26.9322 43.8926 28.0328 43.8926 29.2686C43.8926 29.8086 43.7394 30.6008 43.4882 30.6008C43.2373 30.6008 43.2752 30.1567 43.2373 29.7505C43.1982 29.2303 43.1022 29.1141 42.9279 29.1141C42.5992 29.1141 42.3879 29.8856 42.3879 30.6008C42.3879 31.0444 42.465 31.5474 42.8122 31.5474C43.005 31.5474 43.1792 31.4501 43.2945 31.3344C43.2175 32.2225 42.5601 32.9957 41.6337 32.9957C39.9345 32.9957 39.2973 31.0061 39.1041 29.8478C38.0804 30.9291 37.1351 31.7212 35.4351 31.7212C33.8525 31.7212 33.137 30.5629 33.137 29.4622C33.137 29.1335 33.2531 28.2841 33.6593 28.2841C34.1417 28.2841 33.7174 29.8667 34.6627 29.8667C34.8951 29.8667 35.3193 29.6735 35.5512 29.0371C35.6864 28.6503 35.7642 28.2458 35.7642 27.8977C35.7642 27.3758 35.6481 27.0484 35.2629 27.0484C34.9338 27.0484 34.5276 27.2988 34.3925 27.4335C34.8568 26.0432 35.9764 25.329 37.2113 25.329C38.7379 25.329 39.5485 26.6813 39.5485 28.1869C39.5485 28.399 39.5283 28.6309 39.4905 28.8431C40.1466 27.7618 41.0549 26.9322 42.0398 26.9322ZM40.552 29.2105C40.552 28.8822 40.4749 28.8052 40.3979 28.8052C40.2047 28.8052 39.9926 29.0371 39.6836 29.5586C39.7224 30.2539 39.8385 30.5629 40.0317 30.5629C40.243 30.5629 40.552 29.8856 40.552 29.2105ZM37.9066 30.0018C38.1187 30.0018 38.3898 29.7699 38.8919 29.2105C38.9311 28.9592 38.9311 28.7273 38.9311 28.4382C38.9311 28.0518 38.7762 27.6267 38.5447 27.6267C37.9647 27.6267 37.6755 29.1722 37.6755 29.5784C37.6755 29.8086 37.7904 30.0018 37.9066 30.0018ZM41.0549 31.7212C41.5373 31.7212 42.0777 29.8667 42.0777 28.7084C42.0777 28.4571 42.0398 28.1869 41.9237 28.1869C41.5175 28.1869 40.842 30.0986 40.842 31.1412C40.842 31.5474 40.9392 31.7212 41.0549 31.7212ZM36.3244 30.6588C36.981 30.6588 37.7324 27.1064 37.7324 26.5071C37.7324 26.3522 37.6755 26.236 37.5404 26.236C36.9419 26.236 36.1115 29.6154 36.1115 30.3688C36.1115 30.5048 36.1506 30.6588 36.3244 30.6588Z" fill="white"/>
<path d="M38.428 32.1256C37.5975 32.1256 37.5596 33.1307 37.5596 35.1569C36.9422 33.8252 35.9186 32.3967 34.7211 32.3967C33.9104 32.3967 33.6015 32.9379 33.6015 33.8824C33.6015 34.0765 33.6204 34.3665 33.6592 34.5386C33.7555 34.2116 34.0653 34.0765 34.4509 34.0765C35.2813 34.0765 36.2856 34.7129 36.9422 35.582C36.1888 35.4469 35.4543 35.3118 34.8368 35.3118C34.4509 35.3118 34.1028 35.351 33.8136 35.4861C33.2534 35.7361 32.5 36.5665 32.5 37.8221C32.5 38.0153 32.5198 38.2274 32.5589 38.4593C33.234 36.9525 35.03 36.2774 36.1888 36.2774C36.4207 36.2774 36.5941 36.2963 36.7292 36.3153C36.1307 36.8557 35.9956 37.8031 35.9564 38.4395C35.9375 38.7485 35.8217 38.7683 35.6092 38.7683C35.6092 39.4047 36.1117 40.3521 36.1117 40.8345C36.1117 41.0074 36.0145 41.1623 35.9186 41.2015C35.9186 42.0509 36.7679 42.6692 36.7679 43.2092C36.7679 43.3443 36.7292 43.4605 36.6711 43.5185C36.7292 43.8666 37.6632 44.4508 37.7844 44.7434C37.9326 45.0994 38.0997 45.16 38.1969 45.16C38.5252 45.16 39.0454 44.7728 39.0454 44.426C39.0454 44.3098 38.9495 44.1747 38.8733 44.1166C38.5058 43.8464 38.3118 43.2673 38.1577 42.8813C38.0218 42.8813 37.8471 42.8241 37.7865 42.5972C37.6809 42.1969 37.6754 41.4523 37.5205 41.0074C37.2692 40.9502 37.1535 40.8534 37.1535 40.3332C37.1535 40.081 37.3084 39.0966 37.3084 38.7485C37.1922 38.7485 37.0381 38.6715 37.0381 38.4395C37.0381 37.8221 37.6564 37.3389 37.8294 36.5476C38.9309 37.3578 39.2003 38.1883 39.2003 38.9223C39.2003 39.3079 39.1422 39.6757 39.0652 40.0238C39.8767 39.6176 41.0935 39.0195 41.0935 37.8031C41.0935 37.0876 40.7652 36.2963 38.5828 35.9874C39.2584 35.7361 40.1086 35.6018 40.8233 35.6018C42.0586 35.6018 42.7733 35.9874 42.9274 36.8557C43.1787 36.4706 43.3723 36.0253 43.3723 35.6212C43.3723 34.6737 42.5793 34.0563 41.5754 34.0563C40.3982 34.0563 39.3552 34.6737 38.2348 35.428C38.7382 34.3854 39.0846 33.7671 39.7024 33.7671C39.7997 33.7671 39.8965 33.7873 39.9929 33.8063C39.7605 32.9569 38.8922 32.1256 38.428 32.1256Z" fill="white"/>
<path d="M70.9646 46.0469C71.931 46.0469 72.7034 47.3024 72.7034 48.7701C72.7034 50.3329 71.9689 52.0325 70.6599 53.19C70.6397 50.5846 67.4497 51.415 67.4497 49.5222C67.4497 48.712 68.0301 48.1707 68.7263 48.1707C69.3454 48.1707 69.8278 48.345 70.1759 48.6931C69.8278 48.3648 69.6535 47.9005 69.6535 47.4573C69.6535 46.7224 70.1178 46.0469 70.9646 46.0469Z" fill="white"/>
<path d="M56.6367 26.2945C56.4818 26.0432 55.906 25.9094 55.6358 25.9094C54.7848 25.9094 54.2052 26.5075 54.0894 27.0487C54.0124 26.8547 53.9535 26.6236 53.9535 26.3913C53.9535 25.5419 54.5335 24.4998 55.9452 24.4998C57.178 24.4998 57.6604 25.1559 57.8355 25.1559C58.0274 25.1559 58.2214 24.9619 58.3763 24.9619C58.5889 24.9619 58.5889 25.291 58.5889 25.523C58.5889 26.2945 58.2416 27.627 57.3712 28.1102C57.2163 27.7811 56.9069 27.4149 56.4082 27.1838C56.2731 27.1258 56.215 27.0096 56.215 26.8934C56.215 26.6813 56.4082 26.4106 56.6367 26.2945ZM53.722 27.7041C54.2246 28.1873 54.6678 28.3994 55.209 28.3994C55.4229 28.3994 55.6741 28.3422 55.8101 28.3422C55.9831 28.3422 56.0992 28.4183 56.0992 28.5534C56.0992 28.7664 55.906 29.1137 55.6741 29.3077C55.906 29.4037 56.1573 29.4428 56.4284 29.4428C57.5252 29.4428 58.7816 28.7466 58.7816 27.0096C59.014 27.3177 59.1499 27.9562 59.1499 28.2453C59.1499 30.3498 57.6031 31.1605 56.1771 31.1605C55.2486 31.1605 54.7848 30.8516 54.6678 30.8516C54.3024 30.8516 54.3214 31.5856 54.0701 31.5667C53.6252 31.4896 53.2207 30.5043 53.2207 29.4617C53.2207 28.8434 53.3748 28.1873 53.722 27.7041Z" fill="white"/>
<path fill-rule="evenodd" clip-rule="evenodd" d="M43.1787 21.6607C42.1361 21.6607 39.9348 20.6182 39.1805 20.6182C38.9684 20.6182 38.9112 20.6762 38.9112 20.8694C38.9112 21.6035 40.3393 23.9197 40.3393 24.9421C40.3393 25.2131 40.2429 25.4261 39.9735 25.4261C39.1035 25.4261 37.1733 23.109 36.4977 23.109C35.8794 23.109 36.1496 25.0591 35.5705 25.0591C35.1079 25.0591 34.7017 23.9386 34.1988 23.9386C33.6975 23.9386 33.3692 27.8004 32.5779 27.8004C31.651 27.8004 32.0168 24.2286 31.3993 24.2286C30.917 24.2286 30.2604 25.4455 29.5453 25.4455C29.1602 25.4455 29.044 25.1361 29.044 24.692C29.044 24.1318 29.2178 23.3603 29.2178 22.8573C29.2178 22.5871 29.198 22.279 28.9468 22.279C28.2317 22.279 25.6263 24.1899 24.6216 24.1899C24.4103 24.1899 24.2554 24.0935 24.2554 23.8806C24.2554 22.9344 27.5561 20.0971 27.5561 19.4405C27.5561 18.8415 23.7722 19.3828 23.7722 18.8024C23.7722 18.1462 26.4567 17.0077 26.4567 16.5826C26.4567 16.1394 23.869 15.984 23.869 15.4819C23.869 15.1528 24.4856 15.0189 25.6263 15.0189C26.5716 15.0189 29.0251 15.2689 29.0251 15.83C29.0251 16.4664 26.9572 17.1045 26.9572 17.7219C26.9572 18.456 29.8546 18.03 29.8546 18.6681C29.8546 19.3247 27.7501 20.7924 27.7501 21.2554C27.7501 21.3324 27.8465 21.3716 27.9236 21.3716C28.4248 21.3716 29.7385 20.406 30.3374 20.406C30.5689 20.406 30.6459 20.5601 30.6459 20.8311C30.6459 21.3716 30.3185 22.279 30.3185 22.8384C30.3185 22.9731 30.3568 23.1284 30.5108 23.1284C30.9359 23.1284 31.6123 21.2937 32.2104 21.2937C32.7517 21.2937 32.2685 24.0548 32.8287 24.0548C33.3111 24.0548 33.4083 21.5446 33.9104 21.5446C34.3919 21.5446 34.6247 22.9542 35.1273 22.9542C35.3386 22.9542 35.3583 22.6839 35.3583 22.2399V21.5837C35.3583 21.1586 35.3773 20.8694 35.5894 20.8694C36.1698 20.8694 37.8097 22.7993 38.1577 22.7993C38.2348 22.7993 38.2541 22.7222 38.2541 22.6642C38.2541 22.1439 37.1535 20.3871 37.1535 19.4598C37.1535 19.1505 37.2692 18.9383 37.5786 18.9383C38.2541 18.9383 39.6835 19.7309 40.3393 19.7309C40.5522 19.7309 40.6874 19.6535 40.6874 19.4405C40.6874 18.6492 38.332 17.0464 38.332 16.3894C38.332 15.7521 40.9584 15.0959 42.7531 15.0959C42.9855 15.0959 43.4497 15.0959 43.4497 15.346C43.4497 15.8283 41.2206 16.2412 40.6836 16.8069C40.6137 16.8814 40.5687 16.9635 40.572 17.0464C40.6057 17.9539 43.7397 20.0579 43.7397 21.2167C43.7397 21.4675 43.5267 21.6607 43.1787 21.6607ZM43.1787 16.9887C43.6816 16.9887 43.9317 17.0077 43.9317 17.586C43.9317 18.0502 43.8348 18.4943 43.5074 18.4943C42.9472 18.4943 41.7308 17.7409 41.7308 17.3936C41.7308 17.1626 42.5418 16.9887 43.1787 16.9887ZM36.2469 16.2934C36.2469 16.8915 37.9646 17.3936 37.9646 17.8571C37.9646 17.9922 37.8488 18.03 37.7326 18.03C37.4052 18.03 36.8062 17.7598 36.3626 17.7598C36.0537 17.7598 35.8217 17.9151 35.8217 18.243C35.8217 18.7835 36.4017 19.6147 36.4017 20.0192C36.4017 20.1547 36.3049 20.2511 36.1888 20.2511C35.7254 20.2511 35.2241 18.7645 34.5468 18.7645C33.7172 18.7645 33.9685 20.9082 33.3881 20.9082C32.8287 20.9082 33.5043 18.7262 32.4806 18.7262C31.8623 18.7262 31.2062 19.7115 30.8198 19.7115C30.723 19.7115 30.627 19.6728 30.627 19.5566C30.627 19.1707 31.6704 18.3011 31.6704 17.8179C31.6704 17.5671 31.4191 17.5098 31.1481 17.5098C30.6649 17.5098 29.9893 17.7022 29.5642 17.7022C29.3715 17.7022 29.2178 17.6441 29.2178 17.5098C29.2178 17.1045 31.1679 16.9104 31.1679 16.2353C31.1679 15.5981 30.2604 15.694 30.2604 15.4621C30.2604 15.2887 30.9742 15.1528 31.7466 15.1528C33.0211 15.1528 32.7711 16.2353 33.7753 16.2353C34.74 16.2353 34.5666 15.1919 35.8217 15.1919C36.613 15.1919 37.1922 15.3081 37.1922 15.4238C37.1922 15.694 36.2469 15.694 36.2469 16.2934ZM26.1074 20.0971C26.1074 20.483 24.6405 21.7756 24.1203 21.7756C23.9271 21.7756 23.869 21.5446 23.869 21.3324C23.869 20.9473 24.0424 20.406 24.2554 20.2322C24.5054 19.9999 25.085 19.8858 25.5291 19.8858C25.7984 19.8858 26.1074 19.9418 26.1074 20.0971ZM40.3982 21.9697C40.9391 21.9697 43.3916 23.9008 43.7397 24.3827C43.8159 24.4997 43.8538 24.6537 43.8538 24.807C43.8538 25.3874 43.5655 26.0625 43.1787 26.0625C42.7153 26.0625 40.301 22.761 40.301 22.0858C40.301 22.0278 40.3393 21.9697 40.3982 21.9697Z" fill="white"/>
<path fill-rule="evenodd" clip-rule="evenodd" d="M68.165 20.5024C68.165 19.1311 64.885 18.7839 64.885 18.475C64.885 18.2245 66.7171 17.7986 67.6629 17.7796C66.215 15.9268 64.1509 16.1196 64.1509 15.7917C64.1509 15.5977 65.6965 15.2113 67.1233 15.2113C68.3204 15.2113 69.4408 15.4815 69.4408 16.389C69.4408 16.892 69.0355 17.4135 69.0355 18.1858C69.0355 18.6109 69.2468 18.9771 69.8087 18.9771C70.408 18.9771 70.5431 18.3399 70.5431 17.6635C70.5431 17.1041 70.4459 16.679 70.4459 16.4088C70.4459 15.5977 71.0027 15.0573 71.7953 15.0573C72.4523 15.0573 72.6064 15.3464 73.5728 15.3464C73.0508 15.6558 72.8585 16.2168 72.8585 16.4858C72.8585 17.2973 73.3808 17.8575 73.3808 19.518C73.3808 22.5678 70.5229 23.6491 67.0265 23.6491C66.0643 23.6491 65.0399 23.5721 64.0347 23.418C63.8807 23.3991 63.8416 23.3599 63.8416 23.264C63.8416 23.0118 65.2141 22.8767 65.2141 21.6422C65.2141 21.159 65.0592 20.6956 65.0592 20.5218C65.0592 20.4254 65.1362 20.3677 65.2141 20.3677C65.5041 20.3677 66.0845 21.4869 67.1625 21.4869C67.4499 21.4869 68.165 21.3901 68.165 20.5024ZM71.3121 16.2358C71.3121 16.5051 71.5242 16.7173 71.7953 16.7173C72.0655 16.7173 72.2785 16.5051 72.2785 16.2358C72.2785 15.9647 72.0655 15.7526 71.7953 15.7526C71.5242 15.7526 71.3121 15.9647 71.3121 16.2358ZM71.427 18.5528C71.427 20.2705 70.1757 21.5842 67.9133 21.9503C68.165 21.9693 68.3974 21.9693 68.6293 21.9693C71.273 21.9693 72.2394 20.7727 72.2394 19.7692C72.2394 19.209 71.9304 18.7069 71.427 18.5528Z" fill="white"/>
<path fill-rule="evenodd" clip-rule="evenodd" d="M70.0989 43.4407C70.4078 42.4751 70.7951 41.7991 71.4281 40.7566C70.7951 40.4291 69.1131 39.7334 69.1131 38.5936C69.1131 37.2623 70.7749 36.2197 71.1187 36.2197C71.2728 36.2197 71.3119 36.3548 71.3119 36.6057C71.3119 37.3001 70.9836 38.4206 70.9836 39.0187C70.9836 39.5591 71.3317 40.0815 71.6411 40.0815C71.9689 40.0815 72.8772 38.9227 72.8772 37.7833C72.8772 35.7357 71.0796 35.1182 70.524 35.1182C70.0017 35.1182 69.055 35.9676 66.8331 35.9676C62.683 35.9676 61.7356 31.8566 61.7356 30.0598C61.7356 29.9828 61.7545 29.963 61.7735 29.963C61.8707 29.963 62.2769 30.466 63.5905 30.466C64.2665 30.466 64.8848 30.2922 65.8714 30.2922C68.1851 30.2922 69.2095 31.8954 70.6397 33.9405C71.5051 34.481 73.5738 35.3501 73.5738 37.8023C73.5738 39.9653 71.2728 41.1627 70.7168 43.479C71.6019 43.3834 72.1243 41.7991 73.0317 41.7991C73.4955 41.7991 73.7085 42.1662 73.7085 42.7462C73.7085 43.5947 73.2258 44.87 72.2972 45.6617C72.317 45.5839 72.317 45.4875 72.317 45.3717C72.317 44.8313 72.1049 44.0598 71.4858 44.0598C70.524 44.0598 70.2138 45.1015 69.6734 45.9698C69.1131 44.0017 68.3589 42.2243 67.0082 41.143C65.6399 40.0423 63.2811 40.6404 63.2811 38.6327C63.2811 38.0914 63.6292 37.3199 63.6292 36.702C63.6292 36.4899 63.5905 36.2967 63.4743 36.1418C65.3301 36.838 64.6726 38.0725 65.8133 39.347C66.5242 40.1585 68.494 40.9308 69.6355 44.2711C69.6536 44.1743 69.6734 43.9238 69.6734 43.75C69.6734 40.8917 65.8903 38.0914 65.562 36.9331C67.7599 37.184 68.1459 37.7253 69.1902 40.6215C69.4023 41.2208 70.0989 42.7074 70.0989 43.4407ZM69.5963 34.0756C69.5963 33.6707 68.571 33.6324 68.475 32.493C68.4553 32.3188 68.398 32.0107 68.185 32.0107C67.837 32.0107 68.1072 33.0722 67.7208 33.0722C66.8331 33.0722 66.544 31.3343 66.2148 31.3343C66.137 31.3343 66.0452 31.3924 66.0452 31.6247C66.0452 31.8369 66.0843 31.9728 66.0843 32.222C66.0843 32.4741 66.0263 32.6471 65.7943 32.6471C65.272 32.6471 64.8086 31.4315 64.3637 31.4315C64.2665 31.4315 64.1705 31.4896 64.1705 31.5856C64.1705 31.8175 64.5569 32.2418 64.5569 32.4547C64.5569 32.9182 63.3013 32.6669 63.3013 33.0533C63.3013 33.2271 63.4743 33.2843 63.7063 33.2843C64.1124 33.2843 64.7505 33.1113 65.0788 33.1113C65.272 33.1113 65.562 33.1501 65.562 33.4005C65.562 33.6707 64.8667 34.0175 64.8667 34.2688C64.8667 34.385 64.9828 34.4418 65.0788 34.4418C65.6011 34.4418 66.5242 33.5356 67.1812 33.5356C67.2965 33.5356 67.5857 33.5933 67.5857 33.7675C67.5857 34.0175 66.9303 34.4612 66.9303 34.8282C66.9303 34.925 66.9884 35.0412 67.1042 35.0412C67.4497 35.0412 67.914 34.1337 68.571 34.1337C68.8231 34.1337 69.1902 34.2309 69.3834 34.2309C69.5382 34.2309 69.5963 34.1337 69.5963 34.0756Z" fill="white"/>
<path fill-rule="evenodd" clip-rule="evenodd" d="M53.4716 23.7648C53.3941 23.7648 53.3752 23.7648 53.3752 23.668C53.3752 23.2825 54.3407 21.931 54.3407 21.5261C54.3407 21.1207 53.0271 21.3518 53.0271 21.0243C53.0271 20.6186 54.3407 20.1935 54.3407 19.6531C54.3407 19.1118 53.0852 19.0347 53.0852 18.6105C53.0852 18.3786 54.2629 18.0503 54.2629 17.7022C54.2629 17.3549 53.0662 16.0034 53.0662 15.5594C53.0662 15.077 54.8614 16.4088 55.3261 16.4088C55.5584 16.4088 55.5584 15.7332 55.5584 15.5202C55.5584 15.1924 55.6552 15 55.7516 15C55.9835 15 56.4478 15.7715 56.7525 15.7526C57.2546 15.7526 58.2029 15.1153 59.4963 15.1153C62.2183 15.1153 64.1898 16.7568 64.1898 19.5562C64.1898 22.4516 61.9868 24.0931 59.6516 24.0931C58.0089 24.0931 57.0227 23.0695 56.6561 23.0695C56.4086 23.0695 56.0424 23.958 55.8101 23.958C55.7133 23.958 55.6741 23.9391 55.6363 23.7067C55.5773 23.2635 55.5192 22.5093 55.2095 22.5093C54.9384 22.5093 53.8378 23.7648 53.4716 23.7648ZM54.9973 20.1741C54.9973 20.2124 55.0352 20.2314 55.1324 20.2314C55.2684 20.2314 55.7133 20.2512 55.9452 20.2512C56.0424 20.2512 56.0795 20.3286 56.0795 20.4056L56.1195 21.178C56.1195 21.2748 56.1573 21.3518 56.2154 21.3518C56.3897 21.3518 56.7335 20.5605 56.9457 20.5605C57.1195 20.5605 57.7189 20.8316 57.8738 20.8316C57.9121 20.8316 57.9318 20.8114 57.9318 20.7726C57.9318 20.5992 57.5257 20.0584 57.5257 19.9241C57.5257 19.7499 58.6272 19.7692 58.6272 19.576C58.6272 19.4211 57.5446 19.209 57.5446 19.0347C57.5446 18.8799 58.0278 18.3596 58.0278 18.2245C58.0278 18.1854 57.9899 18.1664 57.9508 18.1664C57.7568 18.1664 57.2938 18.4564 57.0433 18.4564C56.8295 18.4564 56.5976 17.4332 56.4633 17.4332C56.2735 17.4332 56.2356 18.5145 55.9835 18.5145C55.6935 18.5145 55.3261 18.4367 55.1131 18.4367C55.0542 18.4367 55.0163 18.4564 55.0163 18.4947C55.0163 18.7267 55.7714 19.132 55.7714 19.3441C55.7714 19.4788 54.9973 20.0192 54.9973 20.1741ZM62.5281 19.5369C62.5281 17.336 61.387 16.0224 59.4774 16.0224C58.2989 16.0224 57.5446 16.5047 57.5446 16.95C57.5446 17.2198 57.777 17.259 57.9706 17.259C58.357 17.259 59.2842 16.8919 59.4585 16.8919C59.5936 16.8919 59.6706 16.9298 59.6706 17.0271C59.6706 17.2392 59.2644 17.7022 59.2644 17.9732C59.2644 18.3394 61.387 18.0696 61.387 18.4564C61.387 18.8218 59.8255 19.1699 59.8255 19.4018C59.8255 19.6531 61.081 20.4835 61.081 20.9086C61.081 20.9856 61.0431 21.0635 60.9089 21.0635C60.5027 21.0635 59.7287 20.8505 59.2072 20.8505C59.0914 20.8505 59.0333 20.9086 59.0333 20.9856C59.0333 21.2748 59.3612 21.8531 59.3612 22.2012C59.3612 22.3173 59.3036 22.3552 59.2265 22.3552C58.9172 22.3552 57.9899 21.6999 57.5648 21.6999C57.4095 21.6999 57.2938 21.8152 57.2938 21.989C57.2938 22.3371 58.1827 23.0127 59.5355 23.0127C60.5789 23.0127 62.5281 22.3173 62.5281 19.5369Z" fill="white"/>
<path d="M46.4618 56.4157C46.4618 56.59 46.4037 56.784 46.2488 56.9759C46.0375 56.59 45.4382 56.3959 45.1671 56.3968C43.1792 56.3968 43.9318 59.2741 41.8075 59.2741C40.9198 59.2741 40.842 59.1579 40.5136 59.1579C40.3785 59.1579 40.3015 59.216 40.3015 59.3321C40.3015 59.8351 41.0162 61.0696 43.005 61.0696C44.9941 61.0696 46.9063 59.8541 46.9063 58.346C46.9063 58.0955 46.8482 57.827 46.732 57.5564C46.8091 57.4402 47.0031 57.3632 47.1769 57.3632C47.4854 57.3632 47.6593 57.7113 47.9488 57.7113C48.2586 57.7113 48.4897 57.4793 48.4897 57.17C48.4897 56.9191 48.3546 56.7449 48.1227 56.6279C48.2776 56.513 48.3929 56.3189 48.3929 56.1068C48.3929 55.7785 48.1618 55.4712 47.7746 55.4712C47.6008 55.4712 47.4854 55.5293 47.3503 55.6627C47.312 55.3163 47.1193 54.988 46.7518 54.988C46.4618 54.988 46.2488 55.2002 46.2488 55.5293C46.2488 55.8357 46.4618 56.0878 46.4618 56.4157Z" fill="white"/>
<path fill-rule="evenodd" clip-rule="evenodd" d="M34.47 51.9563C34.47 51.415 35.2242 51.048 35.8993 51.048C36.8451 51.048 37.5404 51.319 38.1768 52.2846C38.7573 53.1529 38.8532 54.6012 39.1613 54.8723C39.3166 55.0074 39.5675 55.0465 39.7417 55.0465C39.9349 55.0465 40.1088 55.0263 40.243 55.0263C41.6337 55.0263 42.5795 56.5904 42.5795 57.2857C42.5795 57.9238 42.0209 58.1532 41.3256 58.1532C40.4943 58.1532 39.5486 57.6725 39.0654 57.1304C38.6992 56.7444 38.506 55.9712 38.3511 55.0263C38.197 54.0402 37.4243 53.2101 35.8796 52.8254C34.6438 52.5157 34.47 52.2846 34.47 51.9563ZM41.6526 56.8404C41.6526 56.3383 40.7843 55.7393 40.3011 55.7393C40.0898 55.7393 39.8188 55.8942 39.8188 56.1842C39.8188 56.5323 40.6884 57.1506 41.2675 57.1506C41.5558 57.1506 41.6526 56.9764 41.6526 56.8404Z" fill="white"/>
<path fill-rule="evenodd" clip-rule="evenodd" d="M45.5737 50.4684C45.5737 49.6001 43.7769 49.5811 43.7769 48.2675C43.7769 47.9383 43.9898 47.3794 44.4149 46.78C44.5892 47.7843 44.9941 48.3058 45.8637 48.6345C47.5818 49.2709 47.8137 50.2365 47.8137 51.2609C47.8137 52.9992 46.5969 55.1614 43.4692 55.1614C40.9581 55.1614 39.1621 52.9214 39.1621 51.0294C39.1621 50.5075 39.2972 49.9284 39.6255 49.9284C39.9155 49.9284 40.0127 50.1594 40.243 50.3913C41.113 51.2609 42.0587 51.492 43.4305 51.492C44.6662 51.492 45.5737 50.9907 45.5737 50.4684ZM45.6507 51.859C44.9882 52.1621 44.7239 52.1103 44.7239 52.7871C44.7239 53.0375 44.6662 53.3646 44.6662 53.5388C44.6662 53.7699 44.7049 53.9059 44.9743 53.9059C45.6705 53.9059 46.7711 52.7282 46.7711 51.7239C46.7711 51.4529 46.6163 51.3388 46.442 51.3388C46.2871 51.3388 46.115 51.6469 45.6507 51.859ZM39.4904 42.1089C39.4904 40.8723 42.4258 40.2161 42.4258 38.6903C42.4258 38.4395 42.3298 37.9963 42.1556 37.6671C43.1792 38.2273 43.9317 39.1744 43.9317 39.9459C43.9317 41.2784 42.5419 41.8959 42.5419 42.7272C42.5419 43.6923 44.0286 43.8468 44.0286 45.0442C44.0286 46.0275 42.6181 47.1673 42.6181 48.4417C42.6181 49.4262 43.3143 50.2365 44.3758 50.3716C44.0286 50.4494 43.7196 50.5075 43.3913 50.5075C41.4404 50.5075 39.4323 48.9056 39.4323 46.993C39.4323 46.0468 39.8385 45.2181 40.456 44.6187C40.9972 45.0821 41.5377 45.3911 41.8849 45.3911C42.1939 45.3911 42.3298 45.237 42.3298 45.0051C42.3298 44.29 39.4904 43.6346 39.4904 42.1089Z" fill="white"/>
<path fill-rule="evenodd" clip-rule="evenodd" d="M29.3734 50.2458C29.4512 50.2344 29.5645 50.2171 29.5645 50.2171C29.5064 50.0829 29.479 49.9486 29.4685 49.832C29.4007 49.1097 29.8452 48.5398 30.5161 48.4291C31.2603 48.3054 31.8049 48.8092 31.9787 49.3875C32.1336 49.2516 32.3668 49.1565 32.6177 49.1253C33.268 49.0458 33.8917 49.5618 33.9688 50.2563C34.0268 50.9322 33.5567 51.4916 32.8593 51.6234C32.7885 51.6372 32.6938 51.6465 32.6938 51.6465C32.7519 51.7816 32.7894 51.8986 32.81 52.091C32.887 52.8061 32.403 53.3663 31.6921 53.4589C30.9917 53.5507 30.4728 53.1533 30.3187 52.5359C30.1638 52.6318 29.9311 52.7013 29.6806 52.7291C28.9861 52.8061 28.3712 52.3065 28.29 51.6465C28.1982 50.8969 28.8094 50.3295 29.3734 50.2458ZM31.0843 50.2415C30.6807 50.2883 30.3924 50.6536 30.4399 51.0568C30.4858 51.4596 30.8511 51.7488 31.2539 51.7021C31.6576 51.6545 31.9459 51.2908 31.8983 50.8872C31.8525 50.4831 31.488 50.1936 31.0843 50.2415Z" fill="white"/>
</g>
<defs>
<clipPath id="clip0_132_9">
<rect width="63.4297" height="70.1641" fill="white" transform="translate(18 15)"/>
</clipPath>
</defs>
</svg>
