<svg width="100" height="100" viewBox="0 0 100 100" fill="none" xmlns="http://www.w3.org/2000/svg">
<rect width="100" height="100" fill="#126632"/>
<path d="M21.4396 15.0405C27.3453 15.4156 34.5334 21.3729 37.0209 26.5776C37.3351 27.234 37.5148 27.9225 37.5601 28.643C37.568 28.7603 37.5312 28.7759 37.4499 28.6899C32.5969 23.4805 26.8764 19.4481 21.3834 15.1882C21.369 15.1776 21.3584 15.1625 21.3534 15.1453C21.3484 15.1281 21.3491 15.1097 21.3555 15.093C21.3619 15.0763 21.3735 15.0621 21.3887 15.0526C21.4039 15.0431 21.4218 15.0389 21.4396 15.0405Z" fill="white"/>
<path d="M62.702 28.6595C62.8262 23.9729 66.7438 19.9944 70.4949 17.7296C72.8566 16.3042 75.5035 15.4008 78.4356 15.0195C78.9827 14.9491 79.028 15.0695 78.5716 15.3805C72.9027 19.2395 67.5175 23.7268 62.7911 28.697C62.7301 28.7627 62.7004 28.7502 62.702 28.6595Z" fill="white"/>
<path d="M39.9982 68.5387C43.1562 72.9228 50.07 73.5558 54.8949 72.196C59.0868 71.0144 61.7501 67.4321 62.4628 63.2051C62.6082 62.3439 62.6816 61.0583 62.6832 59.3484C62.6879 50.4832 62.6894 41.6196 62.6879 32.7576C62.6879 32.6826 62.7113 32.6161 62.7582 32.5583C67.766 26.3314 73.5646 20.9595 80.1541 16.4425C80.2322 16.3878 80.2713 16.4081 80.2713 16.5035V60.1151C80.2713 60.2248 80.2368 60.3314 80.1728 60.4198C79.146 61.8562 78.0738 63.2699 76.9562 64.661C72.1532 70.6425 67.623 75.88 63.3654 80.3735C62.5074 81.2785 61.2882 82.3632 59.7081 83.6276C57.4433 85.4422 55.1137 86.7301 52.7192 87.4913C47.9201 89.0199 43.107 85.7587 39.5457 82.6523C31.9966 76.0667 26.9982 69.1483 20.0633 60.2885C20.0211 60.2338 20 60.1721 20 60.1033V16.5058C20 16.4089 20.0375 16.3902 20.1125 16.4495C26.1565 21.1877 32.4491 26.5635 37.5131 32.5138C37.563 32.5712 37.5905 32.6453 37.5905 32.7224C37.578 41.5079 37.5803 50.2847 37.5975 59.053C37.6045 62.8393 37.9585 65.7066 39.9982 68.5387Z" fill="white"/>
<path d="M42.3359 90.314C28.6958 88.0938 20.8208 76.0011 20.026 62.9706C20.0182 62.844 20.0518 62.8323 20.1268 62.9354C27.0359 72.4 33.0659 82.8868 42.3734 90.2296C42.4687 90.3062 42.4562 90.3343 42.3359 90.314Z" fill="white"/>
<path d="M80.2434 62.9846C80.3395 76.7395 71.2289 87.5756 57.8327 90.3632C57.8252 90.3641 57.8177 90.3627 57.8111 90.3591C57.8046 90.3555 57.7993 90.3498 57.7962 90.343C57.7931 90.3362 57.7922 90.3286 57.7937 90.3212C57.7952 90.3139 57.799 90.3072 57.8045 90.3022C67.4801 82.8937 73.7961 73.1314 80.1566 62.9612C80.2129 62.8705 80.2418 62.8783 80.2434 62.9846Z" fill="white"/>
</svg>
