<svg width="100" height="100" viewBox="0 0 100 100" fill="none" xmlns="http://www.w3.org/2000/svg">
<rect width="100" height="100" fill="#FFCBCD"/>
<path d="M32.3531 22.8814L30.7463 37.3255C30.7384 37.3992 30.7026 37.4665 30.6463 37.5133L15.6146 49.8386C15.6029 49.8477 15.5887 49.8531 15.5739 49.854C15.5591 49.8549 15.5444 49.8513 15.5317 49.8436C15.519 49.8359 15.5089 49.8246 15.5028 49.8111C15.4967 49.7975 15.4949 49.7825 15.4975 49.7679L19.406 31.13C19.4218 31.056 19.4623 30.9904 19.5206 30.9447L32.3994 21.0625C32.4496 21.0246 32.51 21.0029 32.5723 21.0003C32.6347 20.9977 32.696 21.0143 32.7481 21.0478L48.9892 31.5689C49.0461 31.6046 49.0746 31.6566 49.0746 31.7249V50.3848C49.0746 50.5148 49.0226 50.5408 48.9185 50.4628L31.4631 37.5255C31.3965 37.4767 31.3656 37.4109 31.3705 37.328C31.6127 33.5893 31.889 29.8629 32.1995 26.1486C32.2905 25.0661 32.3442 23.977 32.3604 22.8814C32.3611 22.8802 32.3615 22.8791 32.3613 22.8782C32.3611 22.8774 32.3605 22.8769 32.3595 22.8769C32.3585 22.8769 32.3573 22.8774 32.3561 22.8782C32.3549 22.8791 32.3538 22.8802 32.3531 22.8814Z" fill="#991A1E"/>
<path d="M67.2711 23.1324L68.3293 37.3157C68.3324 37.3528 68.3259 37.39 68.3105 37.4238C68.2952 37.4575 68.2714 37.4866 68.2415 37.5083L50.7179 50.4968C50.7065 50.505 50.6931 50.51 50.6792 50.5113C50.6652 50.5125 50.6512 50.51 50.6388 50.5039C50.6264 50.4978 50.6161 50.4885 50.6089 50.4769C50.6018 50.4653 50.5981 50.4519 50.5984 50.4383V31.7297C50.5984 31.663 50.6268 31.611 50.6837 31.5736L66.8152 21.1282C66.9019 21.0711 67.0044 21.0426 67.1084 21.0465C67.2124 21.0504 67.3127 21.0867 67.3955 21.1501L80.1646 30.947C80.2196 30.9894 80.2577 31.0509 80.2718 31.1201L84.1852 49.7629C84.1889 49.7784 84.1876 49.7946 84.1816 49.8092C84.1755 49.8239 84.165 49.8363 84.1515 49.8447C84.138 49.853 84.1222 49.8569 84.1064 49.8558C84.0906 49.8547 84.0755 49.8487 84.0633 49.8385L69.1364 37.5936C69.0175 37.4967 68.9413 37.3575 68.9242 37.206L67.3467 23.1251C67.3439 23.1168 67.3383 23.1097 67.3309 23.1049C67.3235 23.1001 67.3148 23.098 67.306 23.0989C67.2973 23.0997 67.2891 23.1035 67.2827 23.1096C67.2764 23.1157 67.2723 23.1237 67.2711 23.1324Z" fill="#991A1E"/>
<path d="M31.1582 39.3566L49.0427 53.001C49.0527 53.0083 49.0607 53.0179 49.0662 53.0289C49.0717 53.0399 49.0745 53.0521 49.0744 53.0644V78.8318C49.0744 78.8467 49.07 78.8613 49.0619 78.8738C49.0538 78.8864 49.0422 78.8963 49.0286 78.9025C49.015 78.9087 48.9999 78.9108 48.9851 78.9086C48.9703 78.9064 48.9565 78.9001 48.9452 78.8903L28.9345 61.3008C28.9256 61.2925 28.9188 61.2822 28.9145 61.2708C28.9103 61.2593 28.9088 61.2471 28.9102 61.235L31.0314 39.4102C31.0327 39.3962 31.0378 39.3827 31.0461 39.3713C31.0544 39.3599 31.0657 39.3509 31.0787 39.3454C31.0918 39.3399 31.106 39.338 31.12 39.34C31.134 39.342 31.1472 39.3477 31.1582 39.3566Z" fill="#991A1E"/>
<path d="M70.7554 61.3008L50.7325 78.8976C50.7209 78.908 50.7064 78.9148 50.691 78.9172C50.6756 78.9195 50.6598 78.9173 50.6456 78.9109C50.6313 78.9044 50.6193 78.8939 50.6109 78.8808C50.6026 78.8676 50.5982 78.8522 50.5984 78.8366V53.0693C50.5985 53.057 50.6014 53.0449 50.6069 53.0339C50.6124 53.0229 50.6203 53.0133 50.6301 53.0059L68.5195 39.3639C68.5309 39.3551 68.5444 39.3496 68.5587 39.3478C68.573 39.346 68.5875 39.3481 68.6006 39.3538C68.6138 39.3595 68.6253 39.3687 68.6337 39.3803C68.6422 39.392 68.6474 39.4057 68.6487 39.42L70.7822 61.2325C70.7834 61.2452 70.7817 61.258 70.777 61.2699C70.7723 61.2818 70.7649 61.2923 70.7554 61.3008Z" fill="#991A1E"/>
<path d="M69.4093 39.4103L84.8214 52.7012C84.8349 52.7125 84.8443 52.7279 84.8482 52.7451L89.693 77.8443C89.6968 77.8615 89.6949 77.8794 89.6876 77.8953C89.6803 77.9112 89.6679 77.9243 89.6525 77.9326C89.637 77.9409 89.6193 77.9439 89.6019 77.9412C89.5846 77.9384 89.5687 77.9301 89.5565 77.9175L72.028 61.2935C72.0144 61.2806 72.0058 61.2634 72.0036 61.2448L69.2776 39.481C69.2758 39.465 69.2788 39.4489 69.2863 39.4346C69.2938 39.4204 69.3053 39.4087 69.3195 39.4011C69.3337 39.3934 69.3498 39.3903 69.3658 39.3919C69.3818 39.3936 69.397 39.4 69.4093 39.4103Z" fill="#991A1E"/>
<path d="M30.4024 39.4882L27.691 61.2471C27.688 61.2659 27.6785 61.2832 27.6642 61.2958L10.1405 77.91C10.1279 77.9223 10.1116 77.9302 10.0941 77.9326C10.0766 77.935 10.0588 77.9317 10.0433 77.9233C10.0278 77.9148 10.0154 77.9017 10.0079 77.8857C10.0004 77.8697 9.99815 77.8518 10.0016 77.8344L14.8342 52.7474C14.8372 52.7285 14.8467 52.7113 14.861 52.6986L30.2658 39.415C30.2785 39.404 30.2942 39.3972 30.3109 39.3953C30.3276 39.3934 30.3445 39.3967 30.3593 39.4046C30.3741 39.4125 30.3861 39.4248 30.3938 39.4397C30.4015 39.4546 30.4045 39.4715 30.4024 39.4882Z" fill="#991A1E"/>
<path d="M28.0398 62.5394L47.3799 78.8683C47.3914 78.8779 47.3996 78.8908 47.4036 78.9053C47.4075 78.9197 47.4069 78.935 47.4018 78.9491C47.3968 78.9632 47.3875 78.9754 47.3753 78.984C47.3631 78.9927 47.3486 78.9974 47.3336 78.9976L10.7575 78.9927C10.7429 78.9925 10.7286 78.9879 10.7166 78.9796C10.7046 78.9712 10.6954 78.9594 10.6902 78.9458C10.6849 78.9322 10.6839 78.9172 10.6872 78.903C10.6905 78.8888 10.698 78.8758 10.7087 78.8659L27.9422 62.5419C27.9553 62.5295 27.9725 62.5224 27.9905 62.522C28.0085 62.5215 28.0261 62.5278 28.0398 62.5394Z" fill="#991A1E"/>
<path d="M71.7477 62.5517L88.9519 78.8489C88.9642 78.8602 88.9728 78.8749 88.9765 78.8912C88.9803 78.9074 88.979 78.9244 88.973 78.9399C88.9669 78.9555 88.9563 78.9688 88.9426 78.9782C88.9288 78.9877 88.9125 78.9927 88.8959 78.9927L52.3685 79.0001C52.3515 79.0001 52.3349 78.9949 52.3209 78.9852C52.307 78.9755 52.2963 78.9617 52.2905 78.9457C52.2846 78.9297 52.2838 78.9123 52.2882 78.8959C52.2925 78.8794 52.3019 78.8647 52.3149 78.8538L71.638 62.5492C71.6534 62.5362 71.6731 62.5292 71.6933 62.5297C71.7135 62.5301 71.7328 62.5379 71.7477 62.5517Z" fill="#991A1E"/>
</svg>
