<svg width="100" height="100" viewBox="0 0 100 100" fill="none" xmlns="http://www.w3.org/2000/svg">
<rect width="100" height="100" fill="#E0C37D"/>
<path d="M89.2365 55.7932C89.4365 65.0932 90.0665 73.1432 82.1065 77.8532C74.2532 82.4932 66.3732 87.0932 58.4665 91.6532C52.2365 95.2632 47.8965 95.7532 41.7865 92.2532C33.7532 87.6532 25.7499 83.0032 17.7765 78.3032C11.0165 74.3232 10.3165 70.2332 10.1365 62.2032C9.9232 52.1965 9.95987 42.8899 10.2465 34.2832C10.4132 29.4299 12.6165 25.7399 16.8565 23.2132C25.6432 17.9665 34.4632 12.7699 43.3165 7.62319C48.8965 4.38319 53.8965 6.46319 59.5665 9.75319C67.0999 14.1265 74.6399 18.4999 82.1865 22.8732C88.9065 26.7732 88.9865 32.3232 89.2365 40.3232C89.3965 45.4832 89.1265 50.8532 89.2365 55.7932Z" fill="#C3A127"/>
<path d="M57.7566 10.2732C65.2699 14.4798 72.7166 18.7932 80.0966 23.2132C85.5266 26.4832 87.2466 28.8132 87.6366 35.5132C88.2233 45.7932 88.2066 56.0598 87.5866 66.3132C87.3066 70.8632 85.6566 74.2132 81.9366 76.4732C76.5899 79.7132 68.3633 84.4865 57.2566 90.7932C52.6666 93.4032 48.1766 94.4532 43.7366 91.8732C35.0166 86.8198 26.3166 81.7432 17.6366 76.6432C13.1466 74.0132 11.8766 70.7732 11.5966 65.4032C10.9233 52.1232 10.9599 41.1665 11.7066 32.5332C11.9933 29.2732 13.8833 26.5898 17.3766 24.4832C30.0966 16.8165 38.8066 11.6565 43.5066 9.00317C48.6266 6.10317 52.5566 7.35317 57.7566 10.2732Z" fill="white"/>
<path d="M78.8967 24.9832C73.51 25.7032 68.1833 25.8432 62.9167 25.4032C52.2067 25.2232 42.4267 25.5332 32.8367 30.5832L42.9367 11.8532C47.0367 9.32649 51.1567 9.11649 55.2967 11.2232C59.1433 13.1765 67.01 17.7632 78.8967 24.9832Z" fill="#E0C37D"/>
<path d="M42.9366 11.8533L32.8366 30.5833L21.5166 50.6533C19.3632 46.0999 16.7332 41.8533 13.6266 37.9133C13.2532 34.6599 13.8632 31.8066 15.4566 29.3533C16.4766 27.7866 18.5966 26.0299 21.8166 24.0833C28.6899 19.9166 35.7299 15.8399 42.9366 11.8533Z" fill="#C3A127"/>
<path d="M78.8965 24.9832C83.2698 27.0098 85.5432 30.6965 85.7165 36.0432C85.9298 42.7965 85.9098 51.9098 85.6565 63.3832L77.7265 50.4732L62.9165 25.4032C68.1832 25.8432 73.5098 25.7032 78.8965 24.9832Z" fill="#C3A127"/>
<path d="M62.9166 25.4032L77.7266 50.4732L67.3466 68.9732C58.8366 75.3832 46.4266 75.7732 36.1266 75.0532L21.5166 50.6532L32.8366 30.5832C42.4266 25.5332 52.2066 25.2232 62.9166 25.4032Z" fill="white"/>
<path d="M53.1767 59.7532C54.5367 56.4265 55.8934 53.0299 57.2467 49.5632C57.8934 47.9099 57.4534 46.9932 55.9267 46.8132C55.7861 46.8052 55.6545 46.7418 55.5607 46.6367C55.467 46.5317 55.4187 46.3937 55.4267 46.2532C55.4347 46.1126 55.4981 45.981 55.6031 45.8872C55.7082 45.7934 55.8461 45.7452 55.9867 45.7532L61.5267 45.7732C61.6146 45.7736 61.6998 45.8038 61.7684 45.8587C61.837 45.9137 61.8851 45.9902 61.9048 46.0759C61.9244 46.1615 61.9146 46.2513 61.8768 46.3307C61.8391 46.4101 61.7756 46.4744 61.6967 46.5132L60.5867 47.0732C60.3483 47.1957 60.1635 47.3983 60.0667 47.6432L52.5967 66.3232C52.5692 66.387 52.5234 66.4417 52.4652 66.4802C52.4071 66.5187 52.3392 66.5393 52.2704 66.5393C52.2016 66.5393 52.135 66.5187 52.0791 66.4802C52.0232 66.4417 51.9806 66.387 51.9567 66.3232C49.37 59.7098 46.56 53.1132 43.5267 46.5332C41.4967 42.1232 37.4867 37.4232 32.9067 41.9832C32.8557 42.0349 32.7886 42.0677 32.7165 42.0762C32.6443 42.0848 32.5714 42.0685 32.5097 42.0301C32.4481 41.9917 32.4013 41.9335 32.3771 41.865C32.353 41.7965 32.3528 41.7218 32.3767 41.6532C33.7367 37.5732 36.62 36.4599 41.0267 38.3132C45.8467 40.3532 50.8367 54.9132 52.6967 59.7432C52.7154 59.791 52.7479 59.8322 52.79 59.8616C52.8322 59.891 52.882 59.9072 52.9334 59.9083C52.9847 59.9093 53.0352 59.8952 53.0785 59.8676C53.1218 59.84 53.156 59.8002 53.1767 59.7532Z" fill="#C3A127"/>
<path d="M63.0266 40.4433C63.0266 41.2336 62.7127 41.9916 62.1538 42.5504C61.595 43.1093 60.837 43.4233 60.0466 43.4233C59.6553 43.4233 59.2678 43.3462 58.9062 43.1964C58.5447 43.0467 58.2162 42.8272 57.9395 42.5504C57.6627 42.2737 57.4432 41.9452 57.2935 41.5837C57.1437 41.2221 57.0667 40.8346 57.0667 40.4433C57.0667 40.0519 57.1437 39.6644 57.2935 39.3029C57.4432 38.9413 57.6627 38.6128 57.9395 38.3361C58.2162 38.0594 58.5447 37.8399 58.9062 37.6901C59.2678 37.5403 59.6553 37.4633 60.0466 37.4633C60.837 37.4633 61.595 37.7772 62.1538 38.3361C62.7127 38.8949 63.0266 39.6529 63.0266 40.4433Z" fill="#C3A127"/>
<path d="M13.6265 37.9132C16.7332 41.8532 19.3632 46.0999 21.5165 50.6532L36.1265 75.0532L19.0765 75.1032C15.4699 72.7899 13.6199 69.2665 13.5265 64.5332C13.3265 53.8399 13.3599 44.9665 13.6265 37.9132Z" fill="#E0C37D"/>
<path d="M58.6166 40.8632C57.6233 40.7632 57.3999 40.2999 57.9466 39.4732C58.074 39.2821 58.253 39.1306 58.4627 39.0366C58.6724 38.9426 58.9042 38.91 59.1308 38.9425C59.3575 38.9751 59.5696 39.0714 59.7424 39.2203C59.9152 39.3692 60.0416 39.5645 60.1066 39.7832L60.7066 41.7132C60.8133 42.0599 60.6866 42.2032 60.3266 42.1432C59.7533 42.0432 59.3566 41.7399 59.1366 41.2332C59.0916 41.1302 59.0195 41.0413 58.9279 40.9762C58.8363 40.911 58.7287 40.872 58.6166 40.8632Z" fill="white"/>
<path d="M77.7267 50.4733L85.6567 63.3833C86.03 67.5366 84.8467 70.9366 82.1067 73.5833C81.2934 74.3766 78.4734 76.2033 73.6467 79.0633C68.42 82.1699 62.91 85.2533 57.1167 88.3133C60.07 81.6399 63.48 75.1933 67.3467 68.9733L77.7267 50.4733Z" fill="#E0C37D"/>
<path d="M67.3467 68.9733C63.48 75.1933 60.07 81.6399 57.1167 88.3133C54.65 90.3466 51.8467 91.2066 48.7067 90.8933C46.8133 90.6999 44.24 89.6899 40.9867 87.8633C33.6733 83.7433 26.37 79.4899 19.0767 75.1033L36.1267 75.0533C46.4267 75.7733 58.8367 75.3833 67.3467 68.9733Z" fill="#C3A127"/>
</svg>
