<svg width="100" height="100" viewBox="0 0 100 100" fill="none" xmlns="http://www.w3.org/2000/svg">
<rect width="100" height="100" fill="#CF2228"/>
<path d="M51.3154 25.2164C49.3106 23.6359 47.2234 25.9684 46.392 27.6488C43.0017 34.476 45.6255 43.3713 49.7646 49.2702C49.8865 49.4465 50.0103 49.4465 50.1361 49.2702C54.1986 43.4595 58.1786 30.6452 51.3154 25.2164Z" stroke="white" stroke-width="2"/>
<path d="M54.5995 56.5556C54.6229 56.5163 54.6317 56.4699 54.6241 56.4247C54.6166 56.3796 54.5932 56.3385 54.5582 56.3089L50.0417 52.3547C50.0053 52.3237 49.9587 52.3072 49.9108 52.3083C49.863 52.3094 49.8172 52.328 49.7822 52.3606L45.3542 56.3382C45.3215 56.3683 45.3002 56.4086 45.2938 56.4525C45.2874 56.4963 45.2962 56.541 45.3188 56.5791L49.8353 63.847C49.8528 63.8749 49.8771 63.8979 49.906 63.9139C49.9349 63.9299 49.9674 63.9383 50.0004 63.9383C50.0334 63.9383 50.0659 63.9299 50.0948 63.9139C50.1237 63.8979 50.148 63.8749 50.1655 63.847L54.5995 56.5556Z" stroke="white" stroke-width="2"/>
<path d="M51.4922 72.5015C57.4651 75.2982 54.5583 83.3592 48.6266 81.8022C44.004 80.5978 43.9922 74.2465 48.4321 72.5544C48.6483 72.4721 48.7033 72.3311 48.5972 72.1313C46.1836 67.5877 43.4753 63.2301 40.4721 59.0586C40.4087 58.9686 40.318 58.9016 40.2137 58.8677C40.1094 58.8337 39.9973 58.8348 39.8943 58.8706C32.4591 61.3265 22.5534 60.9975 17.0994 55.4981C15.1006 53.477 14.0039 50.2455 16.2386 48.1774C18.6973 45.9036 23.1784 45.4512 26.3094 45.792C32.866 46.5088 39.4698 50.128 43.9509 54.9693C44.0294 55.0519 44.1366 55.1015 44.2505 55.1081C44.3645 55.1147 44.4766 55.0776 44.5641 55.0046L48.6031 51.6145C48.9686 51.309 48.9922 50.9799 48.6738 50.6274C46.1345 47.8151 44.1475 44.5444 42.7127 40.8155C40.1478 34.1411 40.4545 23.9825 46.6219 19.247C52.0406 15.0813 57.0052 22.2904 57.9722 27.1082C59.7882 36.1681 57.1172 43.9647 50.9734 50.8096C50.9383 50.8488 50.9114 50.8945 50.8942 50.944C50.877 50.9935 50.8698 51.0458 50.8731 51.0978C50.8764 51.1498 50.8901 51.2005 50.9134 51.2469C50.9367 51.2932 50.9691 51.3343 51.0087 51.3677L55.3012 55.0633C55.5095 55.2435 55.7061 55.2337 55.8908 55.034C61.339 49.2095 67.9152 46.0799 75.6196 45.6451C78.5855 45.4747 83.5796 46.7438 84.7294 49.9282C85.2797 51.4519 84.9907 52.9129 83.8626 54.3113C78.4263 61.0268 67.6243 61.4264 59.8826 58.9117C59.6703 58.8412 59.4993 58.896 59.3696 59.0762C56.3861 63.2203 53.7112 67.5525 51.3448 72.0726C51.2426 72.2684 51.2917 72.4114 51.4922 72.5015ZM51.3153 25.2164C49.3106 23.6359 47.2233 25.9684 46.392 27.6488C43.0016 34.476 45.6255 43.3713 49.7646 49.2702C49.8865 49.4465 50.0103 49.4465 50.1361 49.2702C54.1986 43.4594 58.1786 30.6452 51.3153 25.2164ZM38.9214 57.0727C35.1164 53.2772 30.8632 51.1014 26.1619 50.5452C23.945 50.2866 19.8707 49.9165 19.0098 52.5428C18.5558 53.9235 20.1065 55.4805 21.1325 56.1796C26.3801 59.7754 33.0311 59.6344 38.7976 57.6015C39.116 57.4879 39.1573 57.3116 38.9214 57.0727ZM61.1974 57.6603C67.4062 59.6638 74.3578 59.84 79.5878 55.4981C81.9286 53.5475 81.0088 51.2208 78.3437 50.6333C72.2352 49.2878 64.9592 52.7367 61.0559 57.1315C60.8319 57.3821 60.879 57.5584 61.1974 57.6603ZM54.5995 56.5557C54.623 56.5163 54.6317 56.4699 54.6242 56.4248C54.6166 56.3796 54.5933 56.3386 54.5583 56.3089L50.0417 52.3548C50.0053 52.3238 49.9588 52.3072 49.9109 52.3083C49.863 52.3094 49.8172 52.328 49.7823 52.3606L45.3542 56.3383C45.3216 56.3684 45.3003 56.4087 45.2939 56.4525C45.2874 56.4963 45.2962 56.541 45.3188 56.5792L49.8354 63.847C49.8528 63.875 49.8772 63.898 49.9061 63.914C49.9349 63.9299 49.9674 63.9383 50.0005 63.9383C50.0335 63.9383 50.066 63.9299 50.0949 63.914C50.1238 63.898 50.1481 63.875 50.1656 63.847L54.5995 56.5557Z" fill="white"/>
</svg>
