<svg width="100" height="100" viewBox="0 0 100 100" fill="none" xmlns="http://www.w3.org/2000/svg">
<rect width="100" height="100" fill="#FFC7C9"/>
<path d="M15.113 48.378C15.0792 48.0465 14.9749 47.7703 15.0056 47.4358C15.4025 43.1106 17.0362 39.3869 19.9067 36.2648C24.2646 31.5293 29.396 28.3407 35.0981 25.3761C39.1941 23.2462 43.3986 21.3475 47.7115 19.6801C52.7937 17.719 57.1977 16.2029 62.3167 15.3896C71.6096 13.9165 81.0466 16.3993 83.6675 26.6466C84.5739 30.1943 85.0179 33.8075 84.9994 37.4862C84.9769 41.9301 84.5401 46.954 83.689 52.5579C82.7959 58.4227 81.1847 64.4624 79.3464 69.9436C76.2744 79.1198 70.0781 85.6229 59.705 83.7141C56.9921 83.2148 54.3262 82.3637 51.7073 81.1607C46.6251 78.8252 41.8375 76.4467 37.2709 73.4668C30.4977 69.0444 23.4943 63.8578 18.6208 57.3209C16.6362 54.6571 15.4669 51.6761 15.113 48.378Z" fill="#D32129"/>
<path d="M75.597 53.8564C75.597 53.8962 75.5812 53.9345 75.553 53.9627C75.5248 53.9909 75.4865 54.0067 75.4467 54.0067H70.0852C69.3705 54.0067 68.6852 53.8079 68.1798 53.4539C67.6745 53.1 67.3906 52.6199 67.3906 52.1193V52.1009C67.3906 51.6003 67.6745 51.1203 68.1798 50.7663C68.6852 50.4124 69.3705 50.2135 70.0852 50.2135H75.4467C75.4865 50.2135 75.5248 50.2293 75.553 50.2575C75.5812 50.2857 75.597 50.324 75.597 50.3639V53.8564Z" fill="#D32129"/>
<ellipse cx="52.7485" cy="49.6793" rx="12.5828" ry="12.5828" fill="#FFC7C9"/>
</svg>
