<svg width="100" height="100" viewBox="0 0 100 100" fill="none" xmlns="http://www.w3.org/2000/svg">
<rect width="100" height="100" fill="#282828"/>
<path d="M46.8512 13.1713C47.1106 13.1862 47.2926 13.4356 47.3974 13.9194L28.7982 39.08C28.7488 39.1502 28.6844 39.2088 28.6094 39.2515C28.5344 39.2941 28.4507 39.3199 28.3642 39.3269L12.1068 40.8531C12.0678 40.8572 12.0285 40.8484 11.995 40.8281C11.9614 40.8078 11.9354 40.777 11.921 40.7405C11.9066 40.7041 11.9045 40.6639 11.9151 40.6261C11.9257 40.5883 11.9483 40.5551 11.9796 40.5314C23.2718 31.5685 34.5316 22.5956 45.7589 13.6127C45.9983 13.4231 46.3624 13.276 46.8512 13.1713Z" fill="white"/>
<path d="M71.1596 38.8629L52.9494 14.226C52.6452 13.812 52.73 13.5003 53.2038 13.2908C53.5929 13.1212 54.0642 13.2609 54.6178 13.7098C65.7804 22.6877 76.9628 31.6307 88.1652 40.5387C88.193 40.5627 88.2128 40.595 88.2217 40.6309C88.2306 40.6667 88.2282 40.7043 88.2148 40.7379C88.2013 40.7714 88.1776 40.7993 88.1471 40.8174C88.1166 40.8354 88.081 40.8426 88.0455 40.838L71.7207 39.1846C71.61 39.1729 71.5029 39.1383 71.4062 39.0829C71.3096 39.0275 71.2256 38.9526 71.1596 38.8629Z" fill="white"/>
<path d="M50.0164 76.4279C50.0213 76.4429 50.0308 76.4559 50.0436 76.4651C50.0563 76.4744 50.0717 76.4793 50.0875 76.4793C50.1032 76.4793 50.1186 76.4744 50.1313 76.4651C50.1441 76.4559 50.1536 76.4429 50.1585 76.4279L55.3433 40.2096C55.5079 39.0574 56.1687 38.5387 57.3259 38.6534L69.8276 39.8654C69.8705 39.8692 69.9118 39.8834 69.9478 39.907C69.9838 39.9305 70.0135 39.9625 70.0342 40.0002C70.055 40.038 70.0661 40.0802 70.0666 40.1233C70.067 40.1663 70.0569 40.2088 70.0371 40.247L50.3605 79.5402C50.171 79.9193 49.9815 79.9193 49.7919 79.5402L30.0555 40.4789C29.9308 40.2345 30.0081 40.0998 30.2875 40.0749L43.4625 38.8928C43.8111 38.8606 44.1587 38.9639 44.4332 39.1812C44.7077 39.3985 44.8879 39.7132 44.9364 40.0599L50.0164 76.4279Z" fill="white"/>
<path d="M50.3904 81.4855L71.1742 40.4266C71.2989 40.1722 71.5034 40.06 71.7877 40.0899L88.2172 41.7508C88.2491 41.7551 88.2794 41.7676 88.3051 41.787C88.3307 41.8064 88.3507 41.832 88.3629 41.8611C88.3752 41.8902 88.3792 41.9217 88.3746 41.9523C88.3701 41.9829 88.357 42.0115 88.3369 42.0351L50.5999 88.0094C50.5353 88.0878 50.4542 88.1509 50.3623 88.1942C50.2705 88.2376 50.1702 88.26 50.0687 88.26C49.9671 88.26 49.8669 88.2376 49.775 88.1942C49.6832 88.1509 49.6021 88.0878 49.5375 88.0094L11.9276 42.1923C11.7081 41.9179 11.773 41.7658 12.1221 41.7359L28.3347 40.247C28.5641 40.2271 28.7312 40.3194 28.836 40.5239L49.7245 81.4855C49.7559 81.5468 49.8036 81.5982 49.8624 81.6341C49.9211 81.67 49.9886 81.689 50.0575 81.689C50.1263 81.689 50.1938 81.67 50.2526 81.6341C50.3113 81.5982 50.359 81.5468 50.3904 81.4855Z" fill="white"/>
</svg>
