<svg width="100" height="100" viewBox="0 0 100 100" fill="none" xmlns="http://www.w3.org/2000/svg">
<g clip-path="url(#clip0_132_19)">
<rect width="100" height="100" fill="#203760"/>
<path d="M101.148 50C101.148 56.5661 99.8142 63.0679 97.2224 69.1342C94.6306 75.2004 90.8316 80.7124 86.0425 85.3553C81.2534 89.9983 75.5679 93.6812 69.3107 96.194C63.0534 98.7067 56.3469 100 49.5741 100C35.8958 100 22.7777 94.7322 13.1057 85.3553C3.43369 75.9785 -2 63.2608 -2 50C-2 36.7392 3.43369 24.0215 13.1057 14.6447C22.7777 5.26784 35.8958 0 49.5741 0C56.3469 0 63.0534 1.29329 69.3107 3.80602C75.5679 6.31876 81.2534 10.0017 86.0425 14.6447C90.8316 19.2876 94.6306 24.7995 97.2224 30.8658C99.8142 36.9321 101.148 43.4339 101.148 50Z" fill="#203760"/>
<path d="M92.8099 50.1509C92.7711 61.261 88.1787 71.9001 80.043 79.7278C71.9073 87.5555 60.8947 91.9306 49.4279 91.8906C37.961 91.8505 26.9793 87.3987 18.8984 79.5144C10.8176 71.63 6.29961 60.9591 6.33838 49.8491C6.37717 38.739 10.9696 28.0998 19.1053 20.2721C27.241 12.4444 38.2535 8.06938 49.7204 8.1094C61.1872 8.14944 72.169 12.6013 80.2498 20.4856C88.3306 28.3699 92.8486 39.0408 92.8099 50.1509Z" fill="white"/>
<path d="M75.0559 38.1893C77.1611 36.1795 78.8211 33.9662 80.0359 31.5494C80.2076 31.2059 80.1027 31.0342 79.7211 31.0342H19.8661C19.7307 31.0332 19.5978 31.0706 19.4828 31.1421C19.3679 31.2136 19.2756 31.3163 19.2166 31.4382C19.1577 31.5601 19.1345 31.6962 19.1499 31.8307C19.1652 31.9652 19.2184 32.0926 19.3032 32.1981L24.1114 38.237" stroke="#497DA3" stroke-width="1.90803"/>
<path d="M72.4322 41.9957L69.6465 45.497" stroke="#497DA3" stroke-width="1.90803"/>
<path d="M69.6464 45.4972L66.4219 49.8284" stroke="#B9E1F2" stroke-width="1.90803"/>
<path d="M66.4221 49.8284C65.5253 50.6297 64.8702 51.5647 64.4568 52.6332" stroke="#497DA3" stroke-width="1.90803"/>
<path d="M64.4566 52.6332C62.9747 53.6444 62.008 54.8847 61.5564 56.3538" stroke="#B9E1F2" stroke-width="1.90803"/>
<path d="M61.5565 56.3538C60.7933 56.8308 60.0746 57.7721 59.4004 59.1776" stroke="#497DA3" stroke-width="1.90803"/>
<path d="M59.4003 59.1776C57.9884 60.0998 56.9199 61.4418 56.1948 63.2036" stroke="#B9E1F2" stroke-width="1.90803"/>
<path d="M56.1948 63.2036C55.4444 63.5979 54.9832 64.2944 54.8115 65.2929" stroke="#497DA3" stroke-width="1.90803"/>
<path d="M54.8115 65.2928C53.3168 66.1705 52.1211 67.6588 51.2244 69.7576" stroke="#B9E1F2" stroke-width="1.90803"/>
<path d="M51.2243 69.7577C50.1876 70.8198 49.0746 70.8294 47.8853 69.7863" stroke="#497DA3" stroke-width="1.90803"/>
<path d="M47.8854 69.7864C47.5419 67.9547 46.4448 66.4537 44.594 65.2834" stroke="#B9E1F2" stroke-width="1.90803"/>
<path d="M44.594 65.2834C44.3777 64.3103 43.8848 63.6075 43.1152 63.175" stroke="#497DA3" stroke-width="1.90803"/>
<path d="M43.1154 63.175L40.177 59.0728" stroke="#B9E1F2" stroke-width="1.90803"/>
<path d="M40.177 59.0728C39.2357 57.6354 38.3167 56.7195 37.4199 56.3252" stroke="#497DA3" stroke-width="1.90803"/>
<path d="M37.4199 56.3251C37.1846 54.9004 36.3514 53.6156 34.9204 52.4708" stroke="#B9E1F2" stroke-width="1.90803"/>
<path d="M34.9203 52.471L32.7261 49.8856" stroke="#497DA3" stroke-width="1.90803"/>
<path d="M32.7259 49.8856C31.791 47.9331 30.6589 46.4798 29.3296 45.5258" stroke="#B9E1F2" stroke-width="1.90803"/>
<path d="M29.3298 45.5257L26.7158 42.0149" stroke="#497DA3" stroke-width="1.90803"/>
<path d="M29.33 45.5258L15.2391 45.5448C14.6731 45.5448 14.565 45.7674 14.9148 46.2126L17.4715 49.4563C17.6878 49.7298 17.9708 49.8665 18.3206 49.8665L32.7263 49.8856" stroke="#909BB0" stroke-width="1.90803"/>
<path d="M34.9205 52.4708L20.7438 52.5567C20.2413 52.563 20.1396 52.7698 20.4385 53.1768L22.4992 56.0007C22.7091 56.2869 22.9953 56.4268 23.3578 56.4205L37.42 56.3251" stroke="#909BB0" stroke-width="1.90803"/>
<path d="M40.177 59.0728L25.5424 59.1872C25.0781 59.1936 24.9891 59.378 25.2753 59.7406L27.6222 62.7839C27.7141 62.8997 27.8314 62.9934 27.9652 63.0578C28.099 63.1222 28.2459 63.1558 28.3949 63.1559L43.1154 63.175" stroke="#909BB0" stroke-width="1.90803"/>
<path d="M44.594 65.2834L30.2838 65.3407C29.7495 65.3407 29.6478 65.5506 29.9785 65.9703L32.7165 69.4239C32.9518 69.7228 33.2571 69.8691 33.6324 69.8627L47.8854 69.7864" stroke="#909BB0" stroke-width="1.90803"/>
<path d="M51.2244 69.7576L65.7159 69.9484C65.8544 69.9515 65.9915 69.922 66.1159 69.8623C66.2402 69.8026 66.3484 69.7144 66.4314 69.605L69.3221 65.9034C69.5955 65.5536 69.5097 65.3755 69.0645 65.3692L54.8115 65.2928" stroke="#909BB0" stroke-width="1.90803"/>
<path d="M56.1948 63.2037L70.9344 63.1274C71.0561 63.1275 71.1768 63.0992 71.2876 63.0446C71.3983 62.9901 71.4961 62.9107 71.5736 62.8125L74.0636 59.6834C74.3498 59.3145 74.2607 59.1332 73.7964 59.1396L59.4003 59.1777" stroke="#909BB0" stroke-width="1.90803"/>
<path d="M61.5564 56.3538L76.3532 56.411C76.4796 56.4109 76.6034 56.3804 76.7133 56.3221C76.8232 56.2638 76.9159 56.1796 76.9828 56.0771L78.929 53.1387C79.1644 52.7889 79.0721 52.614 78.6524 52.614L64.4566 52.6331" stroke="#909BB0" stroke-width="1.90803"/>
<path d="M66.4219 49.8284L81.0565 49.8189C81.3999 49.8189 81.6766 49.6821 81.8865 49.4087L84.5291 46.0314C84.7644 45.7262 84.6881 45.5735 84.3001 45.5735L69.6464 45.4972" stroke="#909BB0" stroke-width="1.90803"/>
<path d="M75.0558 38.1893C77.161 36.1795 78.821 33.9662 80.0358 31.5493C80.2075 31.2059 80.1026 31.0342 79.7209 31.0342H19.8659C19.7306 31.0332 19.5977 31.0706 19.4827 31.1421C19.3678 31.2136 19.2755 31.3163 19.2165 31.4382C19.1576 31.56 19.1344 31.6961 19.1497 31.8306C19.1651 31.9652 19.2182 32.0926 19.3031 32.1981L24.1113 38.237L10.965 38.1893C10.5834 38.1829 10.4498 37.9985 10.5643 37.636C15.8209 21.3127 31.7339 10.7518 48.0667 10.3034C66.546 9.78822 81.9152 20.0725 88.6982 37.5024C88.7258 37.5755 88.7354 37.6542 88.7262 37.7317C88.7169 37.8093 88.6891 37.8835 88.6451 37.9481C88.6012 38.0126 88.5423 38.0657 88.4735 38.1027C88.4047 38.1397 88.328 38.1596 88.2498 38.1607L75.0558 38.1893Z" fill="#203760"/>
<path d="M75.0559 38.1893C73.8857 39.3087 73.0111 40.5775 72.4324 41.9958L69.6466 45.4971L66.4221 49.8283C65.5253 50.6297 64.8702 51.5646 64.4568 52.6331C62.9749 53.6444 62.0082 54.8846 61.5566 56.3538C60.7934 56.8308 60.0747 57.7721 59.4005 59.1777C57.9886 60.0999 56.9201 61.4419 56.195 63.2036C55.4445 63.598 54.9834 64.2944 54.8117 65.2929C53.3171 66.1706 52.1214 67.6589 51.2246 69.7577C50.1879 70.8199 49.0749 70.8294 47.8855 69.7863C47.5421 67.9546 46.445 66.4536 44.5942 65.2834C44.3779 64.3103 43.885 63.6075 43.1155 63.175L40.1771 59.0727C39.2358 57.6354 38.3167 56.7195 37.42 56.3252C37.1846 54.9005 36.3515 53.6158 34.9205 52.4709L32.7262 49.8856C31.7913 47.933 30.6592 46.4797 29.3299 45.5257L26.7159 42.0149C26.258 40.7365 25.3898 39.4772 24.1114 38.237L19.3032 32.1981C19.2184 32.0926 19.1652 31.9652 19.1499 31.8307C19.1345 31.6962 19.1577 31.5601 19.2166 31.4382C19.2756 31.3163 19.3679 31.2136 19.4828 31.1421C19.5978 31.0706 19.7307 31.0332 19.8661 31.0342H79.7211C80.1027 31.0342 80.2076 31.2059 80.0359 31.5494C78.8211 33.9662 77.1611 36.1795 75.0559 38.1893Z" fill="#72C3E5"/>
<path d="M26.716 42.015L29.33 45.5258L15.2391 45.5449C14.6731 45.5449 14.565 45.7675 14.9148 46.2127L17.4715 49.4563C17.6878 49.7298 17.9708 49.8666 18.3206 49.8666L32.7263 49.8856L34.9205 52.471L20.7438 52.5569C20.2414 52.5632 20.1396 52.7699 20.4385 53.177L22.4992 56.0009C22.7091 56.2871 22.9953 56.427 23.3578 56.4206L37.42 56.3252C38.3168 56.7196 39.2358 57.6354 40.1771 59.0728L25.5425 59.1873C25.0782 59.1937 24.9892 59.3781 25.2754 59.7406L27.6223 62.7839C27.7143 62.8998 27.8315 62.9934 27.9653 63.0578C28.0991 63.1223 28.246 63.1558 28.395 63.156L43.1155 63.1751C43.8851 63.6076 44.378 64.3104 44.5942 65.2835L30.284 65.3407C29.7497 65.3407 29.648 65.5506 29.9787 65.9704L32.7167 69.4239C32.952 69.7228 33.2573 69.8691 33.6326 69.8627L47.8856 69.7864C49.0749 70.8295 50.1879 70.8199 51.2246 69.7578L65.7162 69.9486C65.8547 69.9517 65.9918 69.9221 66.1161 69.8624C66.2405 69.8027 66.3486 69.7146 66.4317 69.6052L69.3223 65.9036C69.5958 65.5538 69.51 65.3757 69.0647 65.3693L54.8117 65.293C54.9835 64.2945 55.4446 63.598 56.1951 63.2037L70.9346 63.1274C71.0563 63.1275 71.1771 63.0992 71.2878 63.0447C71.3985 62.9901 71.4963 62.9108 71.5738 62.8126L74.0638 59.6834C74.35 59.3145 74.261 59.1332 73.7967 59.1396L59.4006 59.1778C60.0747 57.7722 60.7934 56.8309 61.5566 56.3539L76.3534 56.4111C76.4799 56.4111 76.6036 56.3805 76.7136 56.3222C76.8235 56.2639 76.9161 56.1797 76.9831 56.0772L78.9293 53.1388C79.1646 52.789 79.0724 52.6141 78.6526 52.6141L64.4569 52.6332C64.8703 51.5647 65.5254 50.6298 66.4221 49.8284L81.0567 49.8189C81.4002 49.8189 81.6768 49.6821 81.8867 49.4086L84.5294 46.0314C84.7647 45.7261 84.6884 45.5735 84.3004 45.5735L69.6467 45.4972L72.4324 41.9959C77.1326 41.9959 81.7532 41.9864 86.2943 41.9673C87.2388 41.9578 88.1451 41.4235 88.708 40.7748C89.3758 40.0306 89.7796 40.1515 89.9195 41.1373C91.9802 55.3331 88.7525 67.077 80.2363 76.3691C72.8904 84.3733 62.8159 89.172 51.9497 89.6872C51.3073 89.719 51.1833 89.4805 51.5776 88.9717L65.1533 71.3224C65.1801 71.2851 65.1965 71.2411 65.2006 71.1952C65.2047 71.1494 65.1964 71.1036 65.1766 71.063C65.1568 71.0224 65.1263 70.9886 65.0884 70.9653C65.0506 70.942 65.007 70.9302 64.9625 70.9312L34.7106 70.9122C34.6362 70.9117 34.5631 70.932 34.4996 70.9707C34.4361 71.0095 34.3846 71.0652 34.3509 71.1315C34.3172 71.1979 34.3027 71.2723 34.3089 71.3464C34.3152 71.4206 34.342 71.4916 34.3863 71.5513L47.7902 89.1529C47.8387 89.2162 47.8678 89.2922 47.8738 89.3717C47.8798 89.4512 47.8625 89.5307 47.8241 89.6006C47.7856 89.6704 47.7276 89.7275 47.6572 89.7649C47.5868 89.8023 47.5071 89.8184 47.4277 89.8112C21.8982 87.6361 3.66693 65.9608 9.69631 40.5077C9.80443 40.0306 10.0143 39.9798 10.326 40.355C11.2704 41.4998 11.7761 42.0436 13.3884 42.015C17.7132 41.9514 22.1558 41.9514 26.716 42.015Z" fill="#203760"/>
<path d="M29.33 45.5256C30.6592 46.4797 31.7913 47.9329 32.7263 49.8855L18.3206 49.8664C17.9708 49.8664 17.6878 49.7297 17.4715 49.4562L14.9148 46.2125C14.565 45.7673 14.6731 45.5447 15.2391 45.5447L29.33 45.5256Z" fill="white"/>
<path d="M69.6467 45.4971L84.3004 45.5734C84.6884 45.5734 84.7647 45.726 84.5293 46.0313L81.8867 49.4085C81.6768 49.682 81.4002 49.8188 81.0567 49.8188L66.4221 49.8283L69.6467 45.4971Z" fill="white"/>
<path d="M34.9205 52.4708C36.3515 53.6156 37.1847 54.9004 37.42 56.3251L23.3578 56.4205C22.9953 56.4268 22.7091 56.2869 22.4992 56.0007L20.4385 53.1768C20.1396 52.7698 20.2413 52.563 20.7438 52.5567L34.9205 52.4708Z" fill="white"/>
<path d="M61.5564 56.3538C62.008 54.8846 62.9747 53.6443 64.4566 52.6331L78.6524 52.614C79.0721 52.614 79.1644 52.7889 78.929 53.1387L76.9828 56.0771C76.9159 56.1796 76.8232 56.2638 76.7133 56.3221C76.6034 56.3804 76.4796 56.4109 76.3532 56.411L61.5564 56.3538Z" fill="white"/>
<path d="M40.177 59.0726L43.1154 63.1749L28.3949 63.1558C28.2459 63.1556 28.099 63.1221 27.9652 63.0577C27.8314 62.9932 27.7141 62.8996 27.6222 62.7838L25.2753 59.7404C24.9891 59.3779 25.0781 59.1935 25.5424 59.1871L40.177 59.0726Z" fill="white"/>
<path d="M59.4006 59.1777L73.7967 59.1396C74.261 59.1332 74.35 59.3145 74.0638 59.6834L71.5738 62.8125C71.4963 62.9107 71.3985 62.9901 71.2878 63.0446C71.1771 63.0992 71.0563 63.1275 70.9346 63.1274L56.1951 63.2037C56.9201 61.4419 57.9886 60.0999 59.4006 59.1777Z" fill="white"/>
<path d="M44.594 65.2833C46.4448 66.4536 47.5419 67.9546 47.8854 69.7863L33.6324 69.8626C33.2571 69.869 32.9518 69.7227 32.7165 69.4238L29.9785 65.9702C29.6478 65.5505 29.7495 65.3406 30.2838 65.3406L44.594 65.2833Z" fill="white"/>
<path d="M54.8117 65.2927L69.0647 65.369C69.5099 65.3754 69.5958 65.5535 69.3223 65.9033L66.4316 69.6049C66.3486 69.7143 66.2405 69.8025 66.1161 69.8622C65.9917 69.9219 65.8547 69.9514 65.7161 69.9483L51.2246 69.7575C52.1214 67.6587 53.3171 66.1704 54.8117 65.2927Z" fill="white"/>
<path d="M48.9336 71.5283C49.3155 72.0226 50.0615 72.0226 50.4434 71.5283L80.9371 32.0659C81.4217 31.4388 80.9747 30.5285 80.1822 30.5285H19.1948C18.4023 30.5285 17.9553 31.4388 18.4399 32.0659L48.9336 71.5283Z" fill="#72C3E5"/>
</g>
<defs>
<clipPath id="clip0_132_19">
<rect width="100" height="100" fill="white"/>
</clipPath>
</defs>
</svg>
