<svg width="100" height="100" viewBox="0 0 100 100" fill="none" xmlns="http://www.w3.org/2000/svg">
<rect width="100" height="100" fill="#F68D28"/>
<path d="M11.7746 49.9959L14.6246 42.4259C14.6559 42.3448 14.7104 42.2752 14.7809 42.2261C14.8514 42.177 14.9346 42.1508 15.0196 42.1509H17.9246C18.158 42.1509 18.2313 42.2592 18.1446 42.4759L12.3946 56.8559C12.3489 56.9698 12.2805 57.0732 12.1937 57.16C12.107 57.2468 12.0035 57.3151 11.8896 57.3609C11.4696 57.5309 11.163 57.3842 10.9696 56.9209C9.11629 52.5075 7.1413 47.7192 5.04463 42.5559C4.93463 42.2825 5.02797 42.1459 5.32463 42.1459L8.22963 42.1509C8.31227 42.1512 8.39278 42.1762 8.4606 42.2226C8.52841 42.269 8.58036 42.3346 8.60963 42.4109L11.4896 49.9959C11.5016 50.0248 11.5219 50.0497 11.5479 50.0672C11.5739 50.0848 11.6044 50.0942 11.6353 50.0942C11.6663 50.0942 11.6961 50.0848 11.721 50.0672C11.7459 50.0497 11.7646 50.0248 11.7746 49.9959Z" fill="white"/>
<path d="M23.2144 51.5909V54.1709C23.2144 54.2279 23.237 54.2826 23.2773 54.3229C23.3176 54.3632 23.3723 54.3859 23.4294 54.3859L27.8594 54.4009C27.9155 54.4009 27.9695 54.4228 28.0096 54.4621C28.0498 54.5013 28.073 54.5547 28.0744 54.6109L28.1244 57.0609C28.125 57.0895 28.1199 57.118 28.1094 57.1447C28.0989 57.1714 28.0832 57.1957 28.0632 57.2161C28.0431 57.2366 28.0192 57.2529 27.9928 57.264C27.9664 57.2752 27.938 57.2809 27.9094 57.2809L20.4294 57.2759C20.4011 57.2759 20.3732 57.2703 20.3471 57.2595C20.321 57.2487 20.2973 57.2329 20.2773 57.2129C20.2574 57.1929 20.2415 57.1692 20.2307 57.1432C20.2199 57.1171 20.2144 57.0891 20.2144 57.0609V42.3659C20.2144 42.3376 20.2199 42.3097 20.2307 42.2836C20.2415 42.2575 20.2574 42.2338 20.2773 42.2139C20.2973 42.1939 20.321 42.178 20.3471 42.1672C20.3732 42.1564 20.4011 42.1509 20.4294 42.1509H27.8844C27.9414 42.1509 27.9961 42.1735 28.0364 42.2139C28.0767 42.2542 28.0994 42.3089 28.0994 42.3659L28.0944 45.0509C28.0944 45.0791 28.0888 45.1071 28.078 45.1332C28.0672 45.1592 28.0513 45.1829 28.0314 45.2029C28.0114 45.2229 27.9877 45.2387 27.9616 45.2495C27.9355 45.2603 27.9076 45.2659 27.8794 45.2659L23.4344 45.2409C23.3773 45.2409 23.3226 45.2635 23.2823 45.3038C23.242 45.3442 23.2194 45.3989 23.2194 45.4559L23.2144 47.9459C23.2144 47.9741 23.2199 48.0021 23.2307 48.0282C23.2415 48.0542 23.2574 48.0779 23.2773 48.0979C23.2973 48.1179 23.321 48.1337 23.3471 48.1445C23.3732 48.1553 23.4011 48.1609 23.4294 48.1609L26.9844 48.1509C27.0414 48.1509 27.0961 48.1735 27.1364 48.2139C27.1767 48.2542 27.1994 48.3089 27.1994 48.3659V51.1759C27.1994 51.2329 27.1767 51.2876 27.1364 51.3279C27.0961 51.3682 27.0414 51.3909 26.9844 51.3909L23.4294 51.3759C23.3723 51.3759 23.3176 51.3985 23.2773 51.4388C23.237 51.4792 23.2144 51.5339 23.2144 51.5909Z" fill="white"/>
<path d="M34.0247 49.4958L34.0747 57.0558C34.078 57.2425 33.9864 57.3358 33.7997 57.3358L31.3547 57.3508C31.1547 57.3508 31.0547 57.2508 31.0547 57.0508L31.0597 42.7258C31.0584 42.5823 31.1015 42.4419 31.1832 42.3239C31.2649 42.2059 31.3811 42.116 31.5159 42.0667C31.6507 42.0174 31.7974 42.011 31.936 42.0485C32.0745 42.0859 32.1981 42.1653 32.2897 42.2758L39.3047 50.5908C39.3256 50.6171 39.3544 50.6361 39.3867 50.6452C39.4191 50.6542 39.4535 50.6528 39.4851 50.6412C39.5166 50.6296 39.5437 50.6083 39.5625 50.5804C39.5813 50.5525 39.5908 50.5194 39.5897 50.4858L39.5647 42.4708C39.5647 42.2575 39.6714 42.1508 39.8847 42.1508H42.1397C42.3497 42.1508 42.4547 42.2558 42.4547 42.4658V56.8808C42.4558 57.0142 42.4161 57.1447 42.3411 57.2549C42.266 57.3651 42.1591 57.4498 42.0347 57.4976C41.9102 57.5454 41.7741 57.5541 41.6445 57.5226C41.515 57.491 41.3982 57.4206 41.3097 57.3208L34.2497 49.4058C34.2318 49.3867 34.2086 49.3734 34.183 49.3677C34.1574 49.362 34.1307 49.3641 34.1064 49.3739C34.0821 49.3836 34.0613 49.4004 34.0467 49.4222C34.0321 49.444 34.0244 49.4696 34.0247 49.4958Z" fill="white"/>
<path d="M48.3895 45.1259L45.1245 45.1509C45.0984 45.1515 45.0725 45.147 45.0483 45.1375C45.0241 45.128 45.002 45.1137 44.9833 45.0956C44.9647 45.0774 44.9499 45.0557 44.9398 45.0317C44.9297 45.0077 44.9244 44.9819 44.9245 44.9559L44.8795 42.3509C44.8788 42.3249 44.8833 42.299 44.8928 42.2747C44.9023 42.2505 44.9166 42.2284 44.9348 42.2098C44.9529 42.1911 44.9747 42.1763 44.9987 42.1662C45.0227 42.1561 45.0484 42.1509 45.0745 42.1509H55.2744C55.3262 42.1509 55.3758 42.1714 55.4123 42.208C55.4489 42.2446 55.4694 42.2942 55.4694 42.3459V44.9509C55.4694 45.0026 55.4489 45.0522 55.4123 45.0888C55.3758 45.1253 55.3262 45.1459 55.2744 45.1459L51.8445 45.1259C51.8188 45.1259 51.7935 45.1309 51.7698 45.1407C51.7462 45.1505 51.7247 45.1649 51.7066 45.183C51.6885 45.2011 51.6741 45.2226 51.6643 45.2463C51.6545 45.2699 51.6495 45.2953 51.6495 45.3209L51.6694 57.1609C51.6694 57.2126 51.6489 57.2622 51.6123 57.2988C51.5758 57.3353 51.5262 57.3559 51.4744 57.3559L48.7695 57.3659C48.7438 57.3659 48.7185 57.3608 48.6948 57.351C48.6712 57.3412 48.6497 57.3269 48.6316 57.3088C48.6135 57.2907 48.5991 57.2692 48.5893 57.2455C48.5795 57.2218 48.5745 57.1965 48.5745 57.1709L48.5845 45.3209C48.5845 45.2953 48.5794 45.2699 48.5696 45.2463C48.5598 45.2226 48.5454 45.2011 48.5273 45.183C48.5092 45.1649 48.4877 45.1505 48.4641 45.1407C48.4404 45.1309 48.4151 45.1259 48.3895 45.1259Z" fill="white"/>
<path d="M61.1543 48.1609L64.6343 48.1509C64.698 48.1509 64.759 48.1762 64.804 48.2212C64.8491 48.2662 64.8743 48.3272 64.8743 48.3909L64.8643 51.1559C64.8643 51.2195 64.839 51.2806 64.794 51.3256C64.749 51.3706 64.688 51.3959 64.6243 51.3959L61.1493 51.3709C61.117 51.3702 61.0848 51.3761 61.0548 51.3881C61.0247 51.4002 60.9975 51.4182 60.9746 51.4411C60.9517 51.464 60.9337 51.4913 60.9216 51.5213C60.9095 51.5514 60.9037 51.5835 60.9043 51.6159L60.9293 54.1559C60.9293 54.1874 60.9355 54.2186 60.9476 54.2477C60.9597 54.2768 60.9773 54.3033 60.9996 54.3256C61.0219 54.3479 61.0484 54.3655 61.0775 54.3776C61.1066 54.3897 61.1378 54.3959 61.1693 54.3959H65.5243C65.588 54.3959 65.649 54.4212 65.694 54.4662C65.7391 54.5112 65.7643 54.5722 65.7643 54.6359L65.7893 57.0359C65.7893 57.0995 65.764 57.1606 65.719 57.2056C65.674 57.2506 65.613 57.2759 65.5493 57.2759H58.1843C58.1207 57.2759 58.0596 57.2506 58.0146 57.2056C57.9696 57.1606 57.9443 57.0995 57.9443 57.0359V42.3909C57.9443 42.3272 57.9696 42.2662 58.0146 42.2212C58.0596 42.1762 58.1207 42.1509 58.1843 42.1509H65.5293C65.593 42.1509 65.654 42.1762 65.699 42.2212C65.744 42.2662 65.7693 42.3272 65.7693 42.3909L65.7843 45.0159C65.7843 45.0795 65.759 45.1406 65.714 45.1856C65.669 45.2306 65.608 45.2559 65.5443 45.2559L61.1743 45.2409C61.1107 45.2409 61.0496 45.2662 61.0046 45.3112C60.9596 45.3562 60.9343 45.4172 60.9343 45.4809L60.9093 47.9159C60.9087 47.9482 60.9145 47.9804 60.9266 48.0104C60.9387 48.0405 60.9567 48.0677 60.9796 48.0906C61.0025 48.1135 61.0297 48.1315 61.0598 48.1436C61.0898 48.1557 61.122 48.1616 61.1543 48.1609Z" fill="white"/>
<path d="M77.2647 50.5159L77.1947 42.4059C77.1947 42.2359 77.2797 42.1509 77.4497 42.1509H79.7747C79.988 42.1509 80.0947 42.2576 80.0947 42.4709V56.7909C80.0937 56.9175 80.0546 57.0408 79.9824 57.1448C79.9103 57.2488 79.8085 57.3287 79.6903 57.3741C79.5721 57.4194 79.443 57.4281 79.3199 57.399C79.1967 57.3699 79.0851 57.3043 78.9997 57.2109L71.8597 49.3409C71.8432 49.3243 71.8223 49.3129 71.7994 49.3081C71.7765 49.3033 71.7528 49.3052 71.731 49.3137C71.7092 49.3222 71.6904 49.3369 71.6768 49.3559C71.6633 49.3749 71.6556 49.3975 71.6547 49.4209L71.7047 57.0509C71.7047 57.2342 71.613 57.3275 71.4297 57.3309L68.9297 57.3509C68.7764 57.3509 68.6997 57.2759 68.6997 57.1259V42.7009C68.7005 42.5572 68.7453 42.4172 68.8278 42.2997C68.9104 42.1821 69.027 42.0926 69.1618 42.0431C69.2967 41.9937 69.4435 41.9866 69.5825 42.0228C69.7215 42.059 69.8461 42.1369 69.9397 42.2459L77.0047 50.6159C77.0236 50.6396 77.0493 50.6565 77.0784 50.6643C77.1075 50.6721 77.1385 50.6704 77.1671 50.6595C77.1957 50.6485 77.2204 50.6287 77.2379 50.603C77.2554 50.5773 77.2648 50.5468 77.2647 50.5159Z" fill="white"/>
<path d="M89.1097 47.1409L91.9947 42.2309C92.0087 42.2077 92.0285 42.1885 92.0522 42.1754C92.0759 42.1622 92.1026 42.1555 92.1297 42.1559L95.5897 42.1459C95.6181 42.1449 95.6463 42.1517 95.6711 42.1656C95.6958 42.1795 95.7163 42.2 95.7303 42.2248C95.7442 42.2496 95.751 42.2777 95.7501 42.3061C95.7491 42.3345 95.7403 42.3621 95.7247 42.3859L90.5547 50.5409C90.5383 50.5662 90.5296 50.5957 90.5297 50.6259L90.5547 57.1959C90.5547 57.237 90.5384 57.2764 90.5093 57.3055C90.4803 57.3345 90.4408 57.3509 90.3997 57.3509L87.5847 57.3359C87.5436 57.3359 87.5042 57.3195 87.4751 57.2905C87.446 57.2614 87.4297 57.222 87.4297 57.1809L87.4747 50.6809C87.4748 50.6507 87.4661 50.6212 87.4497 50.5959L82.3447 42.3809C82.3294 42.3575 82.3206 42.3303 82.3195 42.3024C82.3183 42.2744 82.3247 42.2467 82.338 42.222C82.3514 42.1974 82.3711 42.1769 82.3952 42.1626C82.4192 42.1483 82.4467 42.1408 82.4747 42.1409L85.8447 42.1659C85.8718 42.1655 85.8985 42.1722 85.9222 42.1854C85.9459 42.1985 85.9657 42.2177 85.9797 42.2409L88.8397 47.1409C88.8532 47.1648 88.8728 47.1847 88.8965 47.1986C88.9203 47.2124 88.9472 47.2197 88.9747 47.2197C89.0022 47.2197 89.0292 47.2124 89.0529 47.1986C89.0766 47.1847 89.0962 47.1648 89.1097 47.1409Z" fill="white"/>
</svg>
