<svg width="100" height="100" viewBox="0 0 100 100" fill="none" xmlns="http://www.w3.org/2000/svg">
<g clip-path="url(#clip0_132_21)">
<rect width="100" height="100" fill="url(#paint0_linear_132_21)"/>
<path d="M80.5555 -10.2181C56.5556 -1.21813 15.3844 46.3304 70.0557 99.2819C127.742 155.154 135.556 -24.2182 80.5555 -10.2181Z" fill="url(#paint1_linear_132_21)"/>
<path fill-rule="evenodd" clip-rule="evenodd" d="M66.1404 35.2313L64.4454 35.2488C61.0054 35.4521 57.5896 35.8563 54.1979 36.4613C52.5696 36.7513 51.3671 37.1196 50.5904 37.5663C47.3554 39.4288 46.6554 43.1813 47.8829 46.6238C47.9213 46.7304 47.8863 46.8004 47.7779 46.8338C46.2313 47.3204 44.6463 47.5521 43.0229 47.5288C42.9847 47.5281 42.9482 47.5126 42.9211 47.4856C42.8941 47.4585 42.8786 47.422 42.8779 47.3837C42.8196 42.7187 43.3546 37.8896 44.4829 32.8962C44.7379 31.7679 45.0488 30.8538 45.4154 30.1537C45.4538 30.0787 45.4529 30.0038 45.4129 29.9288C45.3154 29.7563 45.3154 29.6888 45.3754 29.4913C47.7871 21.6496 51.5438 14.5196 56.6454 8.10125C56.6571 8.08792 56.6579 8.07375 56.6479 8.05875C56.6379 8.04542 56.6246 8.02792 56.6079 8.00625C56.6013 7.99792 56.5946 7.99792 56.5879 8.00625L53.2629 11.8438C49.2079 17.0504 46.1029 22.7846 43.9479 29.0463C43.9079 29.1629 43.8463 29.1754 43.7629 29.0837L42.9304 28.1763C42.8621 28.1013 42.8688 28.0329 42.9504 27.9713C44.1221 27.0879 44.9071 25.8513 45.3054 24.2613C46.7979 18.3313 41.7354 13.8288 37.5429 10.7238C37.4029 10.4938 37.2079 10.3646 36.9579 10.3363C36.8663 10.3263 36.8079 10.3646 36.7829 10.4512L36.5704 11.1763C35.5254 14.7096 34.9654 18.2504 34.8904 21.7987C34.8571 23.4221 35.0246 24.6263 35.3929 25.4113C35.9446 26.5863 36.9029 27.4613 38.2679 28.0363L40.1904 28.5063C40.2268 28.5149 40.2612 28.5309 40.2917 28.5532C40.3222 28.5755 40.3481 28.6037 40.3679 28.6363C41.0579 29.7929 41.9246 30.7979 42.9679 31.6513C43.0329 31.7029 43.0529 31.7679 43.0279 31.8463C40.5279 40.0713 39.6971 48.4729 40.5354 57.0513C40.5375 57.0732 40.5338 57.0953 40.5245 57.1153C40.5153 57.1353 40.501 57.1526 40.483 57.1653C40.4649 57.178 40.4439 57.1857 40.4219 57.1876C40.4 57.1895 40.3779 57.1856 40.3579 57.1763L38.3704 56.2512C38.2771 56.2079 38.2521 56.1388 38.2954 56.0438C39.4754 53.5238 38.7504 50.9012 37.3604 48.6562C35.9221 46.2912 34.1538 44.4221 32.0554 43.0487C30.0771 41.7521 27.8721 40.7979 25.4404 40.1863L21.9754 39.3488L20.1179 39.0237C20.0346 39.0087 19.9954 39.0438 20.0004 39.1288C20.2354 42.7804 20.7221 46.3812 21.4604 49.9312C22.0221 52.0996 22.9471 54.0579 24.2354 55.8062C26.8121 58.6479 30.0688 59.8087 34.0054 59.2887C34.9788 59.0404 35.8604 58.6221 36.6504 58.0337C36.7088 57.9904 36.7704 57.9854 36.8354 58.0187L40.8079 60.0812C40.8257 60.0905 40.8409 60.1041 40.8523 60.1206C40.8636 60.1372 40.8707 60.1563 40.8729 60.1763C41.3796 63.9279 42.2121 67.6046 43.3704 71.2062C43.3888 71.2629 43.3779 71.2696 43.3379 71.2262C40.9504 68.6937 37.2754 67.4837 33.8754 66.8162C30.7788 66.2479 27.5871 65.9921 24.3004 66.0487C24.2071 66.0504 24.1713 66.0971 24.1929 66.1887C25.6054 72.4712 28.6579 81.5413 35.1904 84.2788C38.2904 85.2313 43.0004 85.1263 44.6279 81.7262C44.6663 81.6462 44.7288 81.6179 44.8154 81.6413L48.3679 82.6238C48.4531 82.6479 48.5256 82.7034 48.5704 82.7788C50.6838 86.3271 53.1238 89.5979 55.8904 92.5913C55.9638 92.6713 56.0463 92.7129 56.1379 92.7163C56.7181 92.8181 57.2837 92.7256 57.8151 92.6386C58.1057 92.5911 58.386 92.5452 58.6529 92.5338C59.6229 92.4921 60.5754 92.3746 61.5104 92.1813C61.9821 92.0546 62.3813 91.8529 62.7079 91.5763C62.7679 91.5246 62.7721 91.4696 62.7204 91.4113L59.3154 87.4938C59.2504 87.4171 59.2629 87.3563 59.3529 87.3113C60.6996 86.6279 61.8171 85.6954 62.7054 84.5138C63.4754 83.4904 64.2821 82.2471 65.1254 80.7838L65.6929 79.3363C65.7246 79.2546 65.7838 79.2204 65.8704 79.2337C68.3404 79.6121 70.6013 79.3621 72.6529 78.4837C77.7804 76.0362 80.2179 71.0837 80.3804 65.6087C80.6379 56.9837 77.7179 48.9137 72.5729 41.9487C69.8613 44.5554 67.2188 47.2746 64.6454 50.1063C61.5304 53.6912 58.5629 57.7863 57.0979 62.2238C55.0179 68.5213 56.6704 75.0963 62.8129 78.2488C62.8929 78.2904 62.9079 78.3479 62.8579 78.4212C61.3163 80.7696 59.3379 82.6546 56.9229 84.0763C56.8429 84.1229 56.7746 84.1096 56.7179 84.0363C49.2504 74.1113 43.9379 62.4512 42.9629 50.1337C42.9622 50.1224 42.9638 50.111 42.9675 50.1002C42.9712 50.0895 42.9769 50.0796 42.9844 50.0712C42.9918 50.0628 43.0009 50.0561 43.0109 50.0513C43.021 50.0466 43.0319 50.044 43.0429 50.0438C45.0446 49.9688 46.9638 49.5346 48.8004 48.7413C48.8771 48.7079 48.9429 48.7221 48.9979 48.7837C50.7779 50.7162 53.6154 51.7113 56.2104 51.1213C60.4854 50.1488 62.9729 43.9562 64.4054 40.2812L66.2479 35.3863C66.2879 35.2813 66.2521 35.2296 66.1404 35.2313ZM37.6555 12.5488L40.0105 14.5888C41.7205 15.9954 42.9671 17.4987 43.7504 19.0987C44.9029 21.4512 44.7079 25.1137 41.5904 25.7237C41.5104 25.7404 41.4521 25.7121 41.4154 25.6387C40.5971 23.9821 39.9255 22.2738 39.4005 20.5138C38.6888 18.3854 38.1172 16.2804 37.6855 14.1988C37.6422 13.9921 37.6163 13.9946 37.608 14.2063C37.4613 17.9863 37.8813 21.6988 38.868 25.3438C38.893 25.4338 38.8613 25.4629 38.773 25.4313C36.6705 24.6738 36.2055 23.1613 36.2105 20.9688C36.2172 18.1371 36.6472 15.3454 37.5005 12.5938C37.5049 12.5782 37.5131 12.564 37.5245 12.5526C37.5359 12.5411 37.55 12.5327 37.5655 12.5282C37.581 12.5237 37.5974 12.5232 37.6132 12.5268C37.6289 12.5304 37.6435 12.538 37.6555 12.5488ZM63.8279 37.0213C59.7229 40.5613 55.6054 43.6238 50.6229 45.8488C50.5546 45.8788 50.5063 45.8597 50.4779 45.7913C49.1754 42.6388 49.9604 38.3813 53.8604 37.8163C57.3188 37.318 60.7063 36.9205 64.0229 36.6238C64.2596 36.6022 64.3271 36.6988 64.2254 36.9138C62.9788 39.5455 61.7029 42.0613 60.3979 44.4613C58.6529 47.6688 55.1654 50.0788 51.6404 47.5888C51.5521 47.5272 51.5546 47.4688 51.6479 47.4138C56.2963 44.6438 60.3771 41.2005 63.8904 37.0838C63.8963 37.0752 63.899 37.0647 63.898 37.0543C63.897 37.0439 63.8924 37.0341 63.885 37.0267C63.8776 37.0194 63.8679 37.0148 63.8574 37.0138C63.847 37.0128 63.8366 37.0155 63.8279 37.0213ZM24.323 43.6713C26.678 48.673 30.0421 52.8621 34.4155 56.2388C34.4688 56.2805 34.4688 56.323 34.4155 56.3663C32.7771 57.693 31.0155 57.9646 29.1305 57.1813C23.4705 54.8288 21.9505 46.0413 21.503 40.7488C21.4946 40.6488 21.538 40.6138 21.633 40.6438C24.7113 41.6138 27.573 42.9905 30.218 44.7738C33.098 46.7138 37.9455 50.5688 36.053 54.6838C36.0418 54.7087 36.0253 54.7307 36.0046 54.7485C35.9839 54.7663 35.9594 54.7793 35.933 54.7867C35.9066 54.794 35.8788 54.7956 35.8516 54.7912C35.8244 54.7868 35.7984 54.7766 35.7755 54.7613C31.3121 51.7363 27.5246 48.023 24.413 43.6213C24.4094 43.6156 24.4047 43.6105 24.3991 43.6065C24.3936 43.6024 24.3873 43.5994 24.3805 43.5977C24.367 43.5941 24.3527 43.5959 24.3408 43.6025C24.3288 43.6091 24.3202 43.6201 24.3169 43.633C24.3136 43.6459 24.3158 43.6597 24.323 43.6713ZM70.838 53.3339C70.048 60.3389 68.613 67.1389 65.6855 73.5989C65.6505 73.6755 65.5938 73.698 65.5155 73.6664C59.988 71.4314 61.5105 64.7664 63.2905 60.6514C65.5855 55.3447 68.568 50.4789 72.238 46.0539C72.2518 46.0371 72.2696 46.0242 72.2899 46.0164C72.3101 46.0087 72.3321 46.0063 72.3535 46.0096C72.3749 46.0129 72.3951 46.0217 72.4121 46.0351C72.4292 46.0486 72.4424 46.0662 72.4505 46.0863C72.8105 46.9813 73.1705 47.9039 73.403 48.8464C74.4613 53.148 75.0438 57.518 75.1505 61.9564C75.2005 64.008 75.0938 65.9039 74.8305 67.6439C74.263 71.3964 71.573 74.1788 67.6705 74.1114C67.5738 74.1097 67.538 74.0622 67.563 73.9689C69.3997 67.2022 70.5063 60.3247 70.883 53.3363L70.883 53.3335L70.8829 53.3324L70.8825 53.3301L70.8818 53.3276L70.8799 53.3237L70.8773 53.3201C70.8753 53.3179 70.8729 53.3161 70.8703 53.3148L70.8663 53.3133L70.8617 53.3126L70.8584 53.3127L70.853 53.3138L70.8499 53.3152L70.8455 53.3183L70.8427 53.3213L70.8402 53.3253C70.8389 53.328 70.8382 53.3309 70.838 53.3339ZM34.328 69.3888C31.538 68.4038 28.6421 67.7421 25.6405 67.4038C25.5438 67.3938 25.5113 67.4355 25.543 67.5288C27.2255 72.4913 30.6605 78.4588 35.1755 81.2288C37.063 82.3188 40.7728 82.7063 42.0953 80.7913C42.1553 80.7046 42.137 80.6413 42.0403 80.6013C39.7286 79.6629 37.5663 78.4446 35.553 76.9463C33.6846 75.5113 32.1521 73.7421 30.9555 71.6388C30.9509 71.6291 30.9497 71.6181 30.9521 71.6077C30.9546 71.5972 30.9605 71.5879 30.9689 71.5813C30.9773 71.5746 30.9877 71.571 30.9984 71.571C31.0092 71.571 31.0196 71.5746 31.028 71.5813L33.7105 74.0713C36.3738 76.198 39.3046 77.8371 42.5029 78.9888C42.5813 79.0171 42.6313 78.9896 42.653 78.9063C44.153 72.9163 38.7405 70.8513 34.328 69.3888ZM45.6703 77.2138L47.0854 80.1413C47.1337 80.2413 47.1079 80.2797 47.0079 80.2563L45.4153 79.8913C45.3303 79.8713 45.2928 79.818 45.3028 79.7313L45.6254 77.2213C45.632 77.1663 45.647 77.1638 45.6703 77.2138Z" fill="white"/>
</g>
<defs>
<linearGradient id="paint0_linear_132_21" x1="45.5" y1="50" x2="0" y2="50" gradientUnits="userSpaceOnUse">
<stop stop-color="#00A0D5"/>
<stop offset="0.752656" stop-color="#00669B"/>
<stop offset="1" stop-color="#005D92"/>
</linearGradient>
<linearGradient id="paint1_linear_132_21" x1="43.0557" y1="38.7819" x2="110.556" y2="38.7819" gradientUnits="userSpaceOnUse">
<stop stop-color="#32A143"/>
<stop offset="0.257559" stop-color="#3AA443"/>
<stop offset="1" stop-color="#63B341"/>
</linearGradient>
<clipPath id="clip0_132_21">
<rect width="100" height="100" fill="white"/>
</clipPath>
</defs>
</svg>
