<svg width="100" height="100" viewBox="0 0 100 100" fill="none" xmlns="http://www.w3.org/2000/svg">
<rect width="100" height="100" fill="#FFF0D9"/>
<path d="M19.4625 44.5874C16.4791 48.2774 14.2508 52.3824 12.7775 56.9024C10.5425 45.8974 13.0075 34.1674 21.7175 26.8074C29.5825 20.1674 41.3825 16.4474 51.6475 15.2974C55.3325 14.8874 59.6725 15.0224 63.6975 15.0174C64.4075 15.0174 65.0692 15.1891 65.6825 15.5324C72.7159 19.4624 79.7109 23.4541 86.6676 27.5074C86.9009 27.6441 86.8826 27.7124 86.6126 27.7124C76.7192 27.7424 66.8442 27.7591 56.9875 27.7624C42.3675 27.7674 28.7525 33.3024 19.4625 44.5874Z" fill="#F9A01B"/>
<path d="M87.3427 63.6273C85.6327 60.9373 83.8361 58.614 81.9527 56.6573C77.1627 51.6673 72.0477 51.2073 65.5727 53.3873C60.2594 55.1707 55.2044 57.4723 50.4077 60.2923C50.3131 60.3479 50.2043 60.3755 50.0938 60.372C49.9833 60.3684 49.8755 60.3339 49.7827 60.2723L35.3127 50.7673C35.1227 50.6407 35.1277 50.5223 35.3277 50.4123C45.2527 44.8673 57.0927 42.4223 68.7327 42.8673C79.7227 43.2923 86.7277 53.4373 87.3427 63.6273Z" fill="#F9A01B"/>
<path d="M19.4623 44.5874C23.3624 54.9874 30.6174 66.2574 41.5324 70.2024C43.7891 71.0157 46.4407 71.5124 49.4874 71.6924C60.9824 72.3624 77.4824 69.4124 81.9524 56.6574C83.8358 58.6141 85.6324 60.9374 87.3424 63.6274C87.1024 65.6274 86.4191 67.6424 85.2924 69.6724C79.6574 79.8024 69.8824 83.0374 59.0124 84.1024C43.4274 85.6324 28.9424 80.7574 18.7573 68.8224C15.814 65.3757 13.8207 61.4024 12.7773 56.9024C14.2507 52.3824 16.479 48.2774 19.4623 44.5874Z" fill="#7C4200"/>
</svg>
