<svg width="100" height="100" viewBox="0 0 100 100" fill="none" xmlns="http://www.w3.org/2000/svg">
<rect width="100" height="100" fill="#92DDFF"/>
<path d="M57.9377 46.285C57.3394 46.9967 56.8344 47.4459 56.4227 47.6325C52.5052 49.405 47.7577 48.12 46.3502 43.7875C46.0819 42.9575 45.9435 41.5392 45.9352 39.5325C45.9219 36.0475 45.9185 30.62 45.9252 23.25C45.9302 18.1675 49.9427 14.96 54.8802 15.7025C60.7702 16.59 61.0602 21.69 60.7677 26.5875C60.7627 26.6692 60.7185 26.7109 60.6352 26.7125L56.7127 26.7275C56.6044 26.7275 56.551 26.6734 56.5527 26.565C56.5627 25.9117 56.5602 24.63 56.5452 22.72C56.5327 21.265 55.6577 20.175 54.2202 19.88C52.1377 19.45 50.3652 20.8725 50.3727 23.065C50.3927 29.02 50.4035 34.9775 50.4052 40.9375C50.4052 42.6075 51.0877 43.8925 52.7852 44.2675C54.2377 44.5875 55.9452 43.9325 56.4602 42.4725C56.5952 42.0909 56.6652 41.39 56.6702 40.37C56.6785 38.8267 56.681 37.2709 56.6777 35.7025C56.6777 35.5809 56.6177 35.5209 56.4977 35.5225L53.5502 35.5325C53.4369 35.5342 53.3802 35.4784 53.3802 35.365L53.3902 31.735C53.3902 31.63 53.4419 31.5775 53.5452 31.5775H60.8827C61.0044 31.5775 61.0652 31.6384 61.0652 31.76L61.0677 47.69C61.0677 47.78 61.0235 47.825 60.9352 47.825L58.8177 47.8275C58.7194 47.8275 58.6527 47.7817 58.6177 47.69L58.1002 46.3125C58.0619 46.2109 58.0077 46.2017 57.9377 46.285Z" fill="#050708"/>
<path d="M74.9648 22.5051C74.7273 18.7626 69.2348 18.6276 69.2248 22.4426C69.2198 24.2742 69.764 25.8442 70.8573 27.1526C73.8473 30.7301 78.4073 33.4951 79.3498 38.5051C80.0148 42.0426 79.0423 45.6776 75.7548 47.5126C73.6648 48.6776 70.6648 48.6501 68.4848 47.7026C66.3898 46.7909 65.0965 45.1634 64.6048 42.8201C64.3173 41.4551 64.4398 39.6476 64.4348 38.1001C64.4348 38.0151 64.4773 37.9726 64.5623 37.9726L68.7498 37.9751C68.7863 37.9751 68.8213 37.9896 68.847 38.0153C68.8728 38.0411 68.8873 38.0761 68.8873 38.1126C68.8598 40.6926 68.3898 44.5301 72.0648 44.4951C74.7473 44.4676 75.3548 42.2326 74.9623 40.0001C74.6457 38.2084 73.8456 36.6651 72.5623 35.3701C69.8398 32.6251 67.0698 30.4276 65.4973 26.8151C63.7823 22.8776 64.9998 17.5176 69.4148 16.0626C73.0023 14.8776 77.0273 16.0226 78.6798 19.6651C79.5123 21.5076 79.4398 23.9601 79.3248 26.0251C79.3198 26.1184 79.2706 26.1651 79.1773 26.1651L75.1348 26.1526C75.1173 26.1526 75.1 26.149 75.0839 26.1421C75.0678 26.1351 75.0532 26.1249 75.0411 26.112C75.0289 26.0992 75.0195 26.084 75.0132 26.0673C75.007 26.0507 75.0041 26.0329 75.0048 26.0151C75.0515 24.8267 75.0381 23.6567 74.9648 22.5051Z" fill="#050708"/>
<path d="M28.2498 36.3125L28.2623 36.0775C28.2623 36.0725 28.2632 36.0682 28.2648 36.065C29.3098 32.9267 30.334 29.7825 31.3373 26.6325C31.3532 26.5831 31.384 26.54 31.4254 26.5094C31.4667 26.4789 31.5164 26.4624 31.5673 26.4625L33.6573 26.46C33.7456 26.46 33.8006 26.5033 33.8223 26.59L36.2123 36.0625C36.3023 36.4208 36.3731 36.4175 36.4248 36.0525L39.2073 16.3575C39.2223 16.2508 39.284 16.1975 39.3923 16.1975L43.4223 16.1925C43.534 16.1925 43.5823 16.2483 43.5673 16.36L39.6523 47.6925C39.6475 47.7297 39.6291 47.7639 39.6006 47.7887C39.5721 47.8135 39.5354 47.8273 39.4973 47.8275L36.4973 47.83C36.4173 47.83 36.3665 47.7917 36.3448 47.715L32.5298 34.565C32.4698 34.355 32.4073 34.3542 32.3423 34.5625L28.2298 47.695C28.2015 47.785 28.1406 47.83 28.0473 47.83H25.0773C24.9906 47.83 24.9423 47.7867 24.9323 47.7L20.9898 16.33C20.9781 16.2417 21.0173 16.1967 21.1073 16.195H25.4273C25.499 16.195 25.539 16.2308 25.5473 16.3025L28.0373 36.32C28.042 36.3453 28.0556 36.3681 28.0757 36.3842C28.0958 36.4003 28.121 36.4087 28.1468 36.4078C28.1725 36.4069 28.1971 36.3968 28.216 36.3793C28.2349 36.3618 28.2469 36.3381 28.2498 36.3125Z" fill="#050708"/>
<path d="M41.0801 65.8725L36.6226 65.8825L36.6351 52.23C36.6351 52.13 36.6851 52.08 36.7851 52.08H40.9376C41.0226 52.08 41.0651 52.1225 41.0651 52.2075L41.0801 65.8725Z" fill="#050708"/>
<path d="M52.3752 79.9549C54.6177 80.6349 56.6277 79.5749 56.6177 77.1249C56.5877 68.8733 56.5702 60.5874 56.5652 52.2674C56.5652 52.1358 56.631 52.0699 56.7627 52.0699L60.8977 52.0874C60.996 52.0891 61.046 52.1391 61.0477 52.2374C61.0927 64.5891 61.0977 72.8416 61.0627 76.9949C61.0327 80.7449 58.8027 83.4449 55.2152 84.1474C51.3702 84.8999 47.4477 83.1875 46.2652 79.3624C46.0418 78.6425 45.9285 77.6383 45.9252 76.3499C45.9052 68.3016 45.9052 60.2524 45.9252 52.2024C45.9252 52.1158 45.9685 52.0724 46.0552 52.0724L50.1927 52.0774C50.2506 52.0781 50.3059 52.1016 50.3466 52.1428C50.3873 52.1839 50.4102 52.2395 50.4102 52.2974C50.3935 60.6658 50.3943 69.0033 50.4127 77.3099C50.416 78.6766 51.0702 79.5583 52.3752 79.9549Z" fill="#050708"/>
<path d="M28.005 65.8826H23.4575V52.3426C23.4575 52.1542 23.5517 52.0601 23.74 52.0601L27.8125 52.0551C27.8649 52.0551 27.9151 52.0759 27.9522 52.1129C27.9892 52.1499 28.01 52.2002 28.01 52.2526L28.005 65.8826Z" fill="#050708"/>
<path d="M76.6176 67.5499C79.8026 69.2324 79.2601 72.4199 79.2626 75.7549C79.2651 79.2074 78.9601 82.1949 75.4676 83.3399C74.6676 83.6016 73.0492 83.7333 70.6126 83.7349C68.6809 83.7366 66.7484 83.7374 64.8151 83.7374C64.7859 83.7374 64.7579 83.7259 64.7373 83.7052C64.7167 83.6846 64.7051 83.6566 64.7051 83.6274V52.2149C64.7051 52.1959 64.7089 52.1771 64.7163 52.1595C64.7237 52.1419 64.7346 52.1259 64.7483 52.1124C64.762 52.099 64.7782 52.0883 64.7961 52.081C64.814 52.0737 64.8332 52.0699 64.8526 52.0699C66.7192 52.0749 68.5976 52.0774 70.4876 52.0774C72.9542 52.0774 74.5742 52.2016 75.3476 52.4499C79.8426 53.8949 79.1426 59.0124 79.0401 63.2449C78.9951 65.1233 78.1876 66.5216 76.6176 67.4399C76.5509 67.4783 76.5509 67.5149 76.6176 67.5499ZM69.2626 56.2774L69.2276 65.6724C69.2276 65.7036 69.24 65.7335 69.262 65.7555C69.284 65.7776 69.3139 65.7899 69.3451 65.7899L72.5251 65.8024C73.0787 65.8044 73.6104 65.5813 74.0033 65.1824C74.3962 64.7834 74.6181 64.2412 74.6201 63.6749L74.6401 58.3149C74.6411 58.0346 74.5881 57.7567 74.4841 57.4973C74.3801 57.2379 74.2272 57.002 74.034 56.803C73.8409 56.6041 73.6113 56.446 73.3584 56.3378C73.1055 56.2296 72.8342 56.1734 72.5601 56.1724L69.3801 56.1599C69.3646 56.1599 69.3494 56.163 69.3351 56.1689C69.3209 56.1748 69.3079 56.1835 69.297 56.1944C69.2861 56.2053 69.2774 56.2182 69.2715 56.2325C69.2656 56.2467 69.2626 56.262 69.2626 56.2774ZM69.2151 69.6699L69.2651 79.5549C69.2651 79.567 69.2675 79.5789 69.2722 79.59C69.2768 79.6011 69.2837 79.6111 69.2923 79.6195C69.3009 79.6279 69.3112 79.6345 69.3224 79.6388C69.3336 79.6432 69.3455 79.6453 69.3576 79.6449L72.7051 79.6274C72.9773 79.6259 73.2465 79.5689 73.4973 79.4599C73.7482 79.3508 73.9757 79.1918 74.167 78.9919C74.3583 78.7921 74.5096 78.5552 74.6122 78.2949C74.7148 78.0346 74.7668 77.756 74.7651 77.4749L74.7351 71.6899C74.7317 71.1224 74.5101 70.5795 74.1191 70.1805C73.7281 69.7815 73.1997 69.5592 72.6501 69.5624L69.3026 69.5799C69.2791 69.5806 69.2569 69.5904 69.2405 69.6072C69.2242 69.624 69.2151 69.6465 69.2151 69.6699Z" fill="#050708"/>
<path d="M23.4575 65.8826H28.005H36.6225L41.08 65.8726L41.0825 70.0101L36.195 69.9776L28.005 69.9801L23.46 69.9726L23.4575 65.8826Z" fill="#1F9FD9"/>
<path d="M23.46 69.9725L28.005 69.98L28.0075 83.595C28.0075 83.6884 27.9608 83.735 27.8675 83.735H23.605C23.5083 83.735 23.46 83.6875 23.46 83.5925V69.9725Z" fill="#050708"/>
<path d="M41.0823 70.0101L41.0798 83.6001C41.0798 83.6917 41.034 83.7376 40.9423 83.7376L36.7573 83.7326C36.6673 83.7326 36.6223 83.6867 36.6223 83.5951C36.5973 77.1434 36.5957 72.6751 36.6173 70.1901C36.619 70.0134 36.4782 69.9426 36.1948 69.9776L41.0823 70.0101Z" fill="#050708"/>
</svg>
