<svg width="100" height="100" viewBox="0 0 100 100" fill="none" xmlns="http://www.w3.org/2000/svg">
<rect width="100" height="100" fill="#A4CEE7"/>
<path d="M65.7393 49.9252C70.0674 52.4787 73.5921 55.8382 76.3132 60.0037C84.5949 72.6925 78.0731 86.9267 65.2143 92.5465C58.0121 95.6965 50.847 95.5708 42.7575 94.3877C35.1117 93.2711 26.4751 89.0711 23.68 81.4549C19.1176 69.0323 24.486 58.828 34.0987 51.0787C34.2383 50.966 34.3479 50.8204 34.4176 50.6551C34.4873 50.4897 34.5149 50.3096 34.4981 50.1309C34.4812 49.9523 34.4204 49.7805 34.321 49.6311C34.2217 49.4817 34.0869 49.3591 33.9286 49.2745C20.7518 42.1833 14.718 25.2797 25.7208 13.286C28.6885 10.0571 32.7874 7.59726 38.0177 5.90641C48.9515 2.37189 59.6956 3.75217 70.2498 10.0473C71.9727 11.0751 74.5238 14.1438 75.4629 16.2881C79.3918 25.2748 78.5069 33.5737 72.8083 41.185C70.9523 43.6548 67.9502 46.265 65.5766 48.7495C65.4971 48.8317 65.4374 48.9309 65.402 49.0396C65.3665 49.1483 65.3562 49.2637 65.3719 49.3769C65.3876 49.4902 65.4288 49.5984 65.4924 49.6934C65.5561 49.7884 65.6405 49.8676 65.7393 49.9252Z" fill="#212057"/>
<path d="M70.5683 26.4552C70.657 34.7665 65.9542 39.3806 59.7503 44.9633C59.6783 45.0352 59.5823 45.0819 59.4767 45.0964C58.9443 45.1704 58.7249 45.0102 58.8186 44.6158C58.8433 44.4975 58.9172 44.3866 59.0404 44.2831C64.5566 39.4619 69.3926 34.5446 69.156 26.6326C68.838 15.6446 57.9461 11.3115 48.57 11.7995C48.4566 11.8044 48.3703 11.7576 48.3112 11.659C48.2767 11.5949 48.2397 11.5308 48.2003 11.4668C48.1961 11.4613 48.1936 11.4547 48.193 11.4479C48.1924 11.4411 48.1937 11.4342 48.1968 11.428C48.1998 11.4219 48.2046 11.4167 48.2104 11.4131C48.2162 11.4095 48.223 11.4076 48.2298 11.4076C55.7179 10.471 61.9144 12.2703 66.8193 16.8055C69.2743 19.0731 70.5239 22.2897 70.5683 26.4552Z" fill="#A4CEE7"/>
<path d="M71.1519 24.6512C70.3237 17.8558 65.8649 13.5818 59.5131 11.6889C59.4684 11.6767 59.43 11.6481 59.4053 11.6089C59.3807 11.5697 59.3716 11.5227 59.38 11.4771C59.3884 11.4316 59.4135 11.3908 59.4505 11.363C59.4875 11.3351 59.5336 11.3221 59.5797 11.3265C62.2564 11.5533 64.6596 12.517 66.7892 14.2178C74.9082 20.7174 74.1688 32.7703 67.5582 39.9872C65.6505 42.0724 63.654 44.0788 61.5687 46.0062C61.3272 46.2281 61.0413 46.3193 60.711 46.2798C60.6496 46.2734 60.5914 46.2493 60.5434 46.2103C60.4955 46.1714 60.46 46.1193 60.4412 46.0605C60.4223 46.0017 60.4211 45.9387 60.4375 45.8791C60.4539 45.8196 60.4873 45.7661 60.5335 45.7252C67.085 39.8615 72.298 34.0865 71.1519 24.6512Z" fill="#A4CEE7"/>
<path d="M41.8185 13.8406C47.5048 11.9181 54.2115 12.3839 59.7499 14.5727C70.0502 18.6396 70.6344 30.8181 63.7798 38.2643C62.0397 40.1523 60.2625 41.9985 58.4485 43.8027C58.1182 44.133 57.8002 44.2488 57.4946 44.1502C57.4004 44.1215 57.3162 44.0674 57.251 43.9937C57.1858 43.92 57.1421 43.8296 57.1246 43.7322C57.1071 43.6348 57.1165 43.5341 57.1517 43.441C57.1869 43.3478 57.2467 43.2658 57.3245 43.2037C64.1347 37.9094 69.9837 29.8199 65.4287 20.9836C61.177 12.7463 48.222 12.2804 40.9533 14.9498C40.7118 15.0385 40.6428 14.967 40.7463 14.7353C40.9336 14.3163 41.291 14.0181 41.8185 13.8406Z" fill="#A4CEE7"/>
<path d="M72.1586 33.7685C74.9438 25.896 73.4255 19.2065 67.6037 13.7002C67.4656 13.5671 67.4928 13.5054 67.685 13.5153C71.3378 13.7076 74.0886 20.2294 74.584 23.4829C76.1368 33.7759 70.2139 41.2517 62.8713 47.0932C62.6741 47.251 62.4498 47.3422 62.1984 47.3668C62.1216 47.3722 62.0451 47.3535 61.9794 47.3133C61.9138 47.2732 61.8623 47.2135 61.8322 47.1427C61.8021 47.0719 61.7948 46.9934 61.8114 46.9183C61.828 46.8431 61.8676 46.7751 61.9248 46.7235C66.0287 43.0855 70.2213 39.2404 72.1586 33.7685Z" fill="#A4CEE7"/>
<path d="M52.031 15.3046C46.9806 14.6022 41.7158 15.9331 37.7598 19.2384C37.5232 19.4405 37.4246 19.3863 37.464 19.0758C37.602 18.1046 38.0161 17.4441 38.7063 17.0941C46.8105 12.9976 54.4933 13.286 61.7546 17.9592C67.5813 21.7156 66.9159 31.1212 63.3296 35.7501C61.2937 38.3727 58.9694 40.7142 56.3567 42.7748C56.1348 42.9473 55.9007 42.9375 55.6542 42.7452C55.6097 42.7092 55.5736 42.6639 55.5486 42.6125C55.5236 42.5612 55.5102 42.5051 55.5095 42.4484C55.5088 42.3918 55.5208 42.3359 55.5445 42.2849C55.5683 42.2339 55.6032 42.189 55.6468 42.1536C61.7028 37.2364 67.7144 29.7976 63.4109 21.7156C61.3035 17.7596 56.4528 15.9257 52.031 15.3046Z" fill="#A4CEE7"/>
<path d="M74.1984 34.6631C76.7027 28.087 76.0643 21.7328 72.2833 15.6004C72.0565 15.2307 72.1502 15.1074 72.5643 15.2307C73.6685 15.5511 74.4572 16.2733 74.9305 17.3972C80.5206 30.7515 74.265 39.2846 64.8076 48.1357C64.5808 48.3477 64.3787 48.4512 64.2012 48.4463C64.1085 48.4427 64.0189 48.412 63.9435 48.3579C63.8681 48.3039 63.8103 48.2288 63.7772 48.1422C63.7441 48.0555 63.7372 47.961 63.7574 47.8705C63.7776 47.7799 63.8239 47.6973 63.8907 47.6329C67.7431 43.9431 72.1354 40.0684 74.1984 34.6631Z" fill="#A4CEE7"/>
<path d="M62.5892 27.6385C62.8184 20.0518 55.986 16.8796 49.0575 16.887C43.9356 16.887 40.0339 18.9673 37.3522 23.1279C37.155 23.4286 37.0317 23.404 36.9824 23.054C36.4279 19.0314 43.8888 16.5099 46.7061 16.118C52.6068 15.2972 61.6353 17.3085 63.3508 23.8895C65.5987 32.541 60.467 36.9702 54.5663 41.8653C54.5085 41.914 54.438 41.945 54.3631 41.9546C54.2882 41.9642 54.2119 41.9521 54.143 41.9196C54.0741 41.8871 54.0155 41.8356 53.974 41.771C53.9324 41.7064 53.9096 41.6314 53.9082 41.5547L53.9008 41.3107C53.9008 41.079 53.9945 40.8991 54.1818 40.7709C58.5741 37.717 62.4265 33.0586 62.5892 27.6385Z" fill="#A4CEE7"/>
<path d="M39.5192 21.7525C44.9541 15.4377 59.7429 16.3325 61.695 25.9747C62.9372 32.0751 57.5689 37.4656 53.0879 40.7191C52.8414 40.8966 52.6393 40.9484 52.4816 40.8744C52.399 40.835 52.3277 40.7752 52.2746 40.7007C52.2215 40.6261 52.1882 40.5393 52.1778 40.4484C52.1675 40.3574 52.1804 40.2653 52.2154 40.1808C52.2505 40.0962 52.3064 40.0219 52.378 39.9649C56.2009 36.9702 59.839 33.6427 60.3936 28.474C60.6696 25.8663 59.9622 23.6825 58.2714 21.9226C52.733 16.155 39.8372 17.8631 38.7724 27.0099C38.7329 27.3156 38.6097 27.355 38.4027 27.1283C36.9977 25.5606 38.3731 23.0835 39.5192 21.7525Z" fill="#A4CEE7"/>
<path d="M39.763 27.572C40.044 16.3917 60.2455 16.51 59.4987 28.3041C59.3508 30.6851 58.6286 32.6347 57.3321 34.153C55.5328 36.258 53.4796 38.0844 51.1726 39.6323C51.1297 39.6621 51.0802 39.6809 51.0283 39.6871C50.9763 39.6933 50.9235 39.6867 50.8742 39.6678C50.8249 39.649 50.7806 39.6184 50.745 39.5788C50.7094 39.5391 50.6836 39.4915 50.6698 39.44C50.5613 39.0259 50.6919 38.6956 51.0617 38.4492C55.7201 35.2992 61.0589 29.1766 56.8589 23.5864C54.4631 20.4143 49.4127 19.3051 45.8782 20.8653C41.4021 22.847 39.9602 26.3544 41.5525 31.3875C41.5637 31.431 41.5608 31.4773 41.5442 31.5194C41.5275 31.5615 41.498 31.597 41.4603 31.6205C41.4225 31.644 41.3785 31.6542 41.3351 31.6495C41.2916 31.6448 41.2511 31.6255 41.2197 31.5946C40.2042 30.5692 39.7187 29.2284 39.763 27.572Z" fill="#A4CEE7"/>
<path d="M57.3755 28.7478C56.7913 32.5115 53.0719 36.0091 49.9737 38.1165C49.7716 38.2545 49.5645 38.257 49.3526 38.1239C45.6849 35.8094 41.5219 32.0383 41.6254 27.7421C41.8694 18.3291 58.8765 19.1573 57.3755 28.7478Z" fill="#A4CEE7"/>
<path d="M23.1116 75.1547C21.9876 64.2998 28.0658 57.4304 35.438 50.9307C35.6056 50.7779 35.8398 50.8026 36.1405 51.0047C36.1871 51.036 36.2262 51.0774 36.2548 51.1258C36.2834 51.1742 36.3008 51.2284 36.3058 51.2844C36.3107 51.3404 36.3031 51.3968 36.2835 51.4495C36.2638 51.5021 36.2326 51.5498 36.1922 51.5888C30.3728 57.2307 25.3964 61.6452 24.2725 70.622C23.6119 75.8917 25.214 80.8041 29.0788 85.359C29.3598 85.6942 29.2982 85.778 28.894 85.6104C24.8123 83.9541 23.5404 79.2512 23.1116 75.1547Z" fill="#A4CEE7"/>
<path d="M34.8387 87.1339C35.4968 87.5406 36.7317 87.9917 37.6116 88.5536C37.9764 88.7853 37.9444 88.8667 37.5155 88.7976C35.9873 88.5462 34.962 88.2751 34.4394 87.9843C22.1574 81.2332 22.6676 66.2078 31.7627 57.0387C33.3106 55.4761 34.9004 53.9479 36.5321 52.4542C36.6997 52.3014 36.8845 52.1782 37.0866 52.0845C37.4563 51.9268 37.6831 51.9514 37.7669 52.1584C37.8458 52.3458 37.8137 52.5109 37.6708 52.6539C33.2711 57.0535 28.8641 60.7655 27.2743 67.1025C25.0461 75.9511 27.5676 82.6283 34.8387 87.1339Z" fill="#A4CEE7"/>
<path d="M30.2458 79.6284C33.6324 86.1724 40.5166 88.5682 47.9775 89.1376C48.3325 89.1622 48.3768 89.2929 48.1106 89.5295C47.9036 89.7119 47.6571 89.8006 47.3712 89.7957C41.7317 89.6823 36.8391 88.0038 32.6933 84.7601C25.8609 79.414 25.7944 68.6847 30.4085 61.941C32.5578 58.8058 35.2838 55.9146 38.5867 53.2674C38.7099 53.1639 38.8356 53.1072 38.9638 53.0973C39.1314 53.0875 39.2768 53.1121 39.4 53.1713C39.4502 53.1958 39.4936 53.2321 39.5268 53.277C39.5599 53.3219 39.5818 53.3741 39.5905 53.4292C39.5992 53.4843 39.5945 53.5407 39.5768 53.5936C39.5591 53.6466 39.5289 53.6945 39.4888 53.7332C38.069 55.0544 36.6173 56.4199 35.1335 57.8297C29.2919 63.3903 26.3563 72.1305 30.2458 79.6284Z" fill="#A4CEE7"/>
<path d="M38.6975 85.0337C42.2123 86.6259 45.9045 87.395 49.7743 87.3407C51.3567 87.321 52.9637 87.2988 54.5954 87.2742C54.9109 87.2692 54.97 87.39 54.7729 87.6365C54.4968 87.9816 54.1246 88.1714 53.6563 88.2059C43.3633 88.9231 29.632 85.921 29.4249 72.8403C29.2918 64.2407 34.3939 59.5896 40.1985 54.31C40.2922 54.2213 40.3932 54.167 40.5017 54.1473C40.6644 54.1128 40.7827 54.1227 40.8566 54.1769C40.9067 54.2126 40.9484 54.2588 40.9788 54.3122C41.0092 54.3657 41.0274 54.4252 41.0324 54.4865C41.0373 54.5478 41.0288 54.6094 41.0073 54.6671C40.9859 54.7247 40.9522 54.777 40.9084 54.8202C38.1725 57.497 34.8376 60.5878 33.0482 63.5678C28.6707 70.8291 30.4232 81.2847 38.6975 85.0337Z" fill="#A4CEE7"/>
<path d="M39.3348 83.0592C44.8757 85.943 50.7271 86.5888 56.8891 84.9965C56.9648 84.9782 57.0442 84.9815 57.1181 85.0062C57.192 85.031 57.2574 85.076 57.3069 85.1363C57.3563 85.1965 57.3877 85.2695 57.3975 85.3468C57.4073 85.4241 57.3951 85.5026 57.3623 85.5733C57.2046 85.9036 56.8423 86.1205 56.2754 86.224C48.5186 87.6659 37.0943 86.4606 33.0866 78.6595C30.8313 74.2673 31.3267 68.862 33.6263 64.5437C35.3862 61.2531 39.0686 58.0736 42.0486 55.3598C42.0853 55.3251 42.1293 55.299 42.1775 55.2833C42.2257 55.2677 42.2769 55.2628 42.3276 55.2692C42.3783 55.2755 42.4272 55.2929 42.471 55.32C42.5147 55.3472 42.5523 55.3835 42.5809 55.4264C42.7535 55.6778 42.6919 55.9317 42.3961 56.188C40.1581 58.0957 38.1295 60.2031 36.3105 62.5102C31.3563 68.7732 31.5485 79.0071 39.3348 83.0592Z" fill="#A4CEE7"/>
<path d="M53.8125 83.9245C55.6758 83.6361 57.5097 82.9337 59.3435 82.1794C59.3996 82.154 59.4626 82.1483 59.5224 82.1632C59.5822 82.1781 59.6351 82.2128 59.6728 82.2615C59.7104 82.3103 59.7305 82.3703 59.7298 82.4319C59.7291 82.4935 59.7076 82.553 59.6688 82.6009C59.2153 83.222 58.4758 83.6903 57.4505 84.0058C48.3258 86.8231 32.9973 84.3977 33.892 71.3762C34.3135 65.2019 37.9737 61.697 42.0554 57.5487C42.7012 56.8931 43.4529 56.5431 44.3107 56.4987C44.3869 56.494 44.4626 56.5145 44.526 56.5572C44.5895 56.5998 44.6371 56.6621 44.6615 56.7345C44.6859 56.8069 44.6858 56.8854 44.6611 56.9577C44.6365 57.03 44.5887 57.0922 44.5251 57.1346C39.6818 60.4769 35.3783 65.372 35.1934 71.7385C34.8976 81.9132 45.5603 85.2185 53.8125 83.9245Z" fill="#A4CEE7"/>
<path d="M43.9489 81.2554C49.4134 83.4441 55.8909 82.8526 60.5124 78.7709C60.7293 78.5737 60.8624 78.6205 60.9117 78.9113C61.0596 79.7789 60.7884 80.4025 60.0983 80.7821C53.8377 84.1835 47.6018 84.3635 41.3905 81.3219C35.6746 78.5268 34.6764 71.4208 37.3384 66.2595C38.906 63.2204 42.337 59.7081 45.1321 57.6081C45.4377 57.3764 45.7014 57.4011 45.9232 57.6821C46.0613 57.8595 46.049 58.0247 45.8863 58.1775C41.4127 62.4366 37.5602 65.7345 37.257 71.1768C37.0056 75.8722 39.5715 79.5029 43.9489 81.2554Z" fill="#A4CEE7"/>
<path d="M38.4023 69.5204C39.3488 65.069 43.3935 61.527 46.721 58.7468C46.8234 58.6595 46.95 58.6051 47.0844 58.5906C47.2188 58.5761 47.355 58.6021 47.4752 58.6654C47.7858 58.833 47.7907 59.0475 47.49 59.3087C43.0164 63.139 37.8478 68.0637 39.8073 74.4894C41.9664 81.588 52.9249 82.1426 58.064 78.3641C59.2372 77.5063 60.164 76.1088 60.8443 74.1714C60.9675 73.8214 61.1056 73.8141 61.2584 74.1493C61.5443 74.7556 61.6108 75.32 61.458 75.8426C58.8478 84.9229 35.3411 83.9838 38.4023 69.5204Z" fill="#A4CEE7"/>
<path d="M58.2197 74.4673C59.4274 71.6771 59.3461 69.3232 57.9757 67.4056C57.9339 67.3344 57.9195 67.2505 57.9351 67.1694C57.9506 67.0884 57.9951 67.0158 58.0603 66.9651C58.1254 66.9144 58.2068 66.8892 58.2891 66.894C58.3715 66.8989 58.4493 66.9335 58.5081 66.9915C59.7897 68.5049 60.3764 70.1465 60.2679 71.9162C59.4545 84.7085 35.7999 81.5511 40.9242 68.4408C42.2922 64.9433 45.4939 61.9338 48.7179 59.819C48.9101 59.6957 49.0802 59.7204 49.2281 59.8929C49.4351 60.1394 49.413 60.3588 49.1616 60.551C45.7232 63.1612 41.9003 66.5109 41.8633 70.8366C41.8189 76.0324 44.3922 78.8176 49.583 79.1923C53.8471 79.5028 56.726 77.9278 58.2197 74.4673Z" fill="#A4CEE7"/>
<path d="M57.4206 67.9823C59.491 72.2415 57.1544 76.7373 52.7399 77.913C49.0427 78.9038 44.022 77.7873 42.8536 73.4911C41.4043 68.182 45.7892 64.1964 49.5751 61.4309C49.7674 61.2879 49.972 61.2682 50.1889 61.3717C53.6593 63.0034 56.0699 65.207 57.4206 67.9823Z" fill="#A4CEE7"/>
</svg>
