<svg width="100" height="100" viewBox="0 0 100 100" fill="none" xmlns="http://www.w3.org/2000/svg">
<g clip-path="url(#clip0_132_30)">
<rect width="100" height="100" fill="#F36B21"/>
<path d="M54.1656 24.8138C54.1669 24.8142 54.1684 24.8146 54.17 24.815C54.1725 24.8159 54.1748 24.8153 54.1769 24.8132C57.0152 21.9761 59.8525 19.1388 62.6888 16.3013C62.6903 16.2999 62.6923 16.299 62.6945 16.2988C62.6966 16.2986 62.6987 16.2991 62.7005 16.3002C62.7022 16.3013 62.7035 16.3029 62.7041 16.3048C62.7047 16.3067 62.7046 16.3088 62.7038 16.3107C62.0367 17.9336 61.3621 19.5559 60.68 21.1775C60.2388 22.2271 59.7331 23.143 59.1631 23.925C58.075 25.4194 56.3863 26.3988 54.615 27.1344C53.0675 27.7769 51.5184 28.4159 49.9675 29.0513C49.9479 29.0592 49.9286 29.0592 49.9094 29.0513C48.3777 28.4196 46.8492 27.7842 45.3238 27.1451C44.4925 26.7967 43.7273 26.4115 43.0281 25.9894C41.1544 24.8594 40.0763 23.2407 39.2356 21.2538C38.5448 19.6205 37.8606 17.9823 37.1831 16.3394C37.1652 16.2953 37.1731 16.29 37.2069 16.3238C40.0298 19.1471 42.8606 21.978 45.6994 24.8163C45.7081 24.825 45.7165 24.8313 45.7244 24.835C45.7536 24.8492 45.7563 24.8436 45.7325 24.8182C44.3169 23.3007 43.38 21.63 43.1406 19.5313C43.0573 18.7996 43.0156 18.0653 43.0156 17.3282C43.0152 15.6848 43.0134 14.0619 43.01 12.4594C43.01 12.3898 43.0234 12.3871 43.05 12.4513L47.7206 23.7038C47.7211 23.7042 47.7215 23.7044 47.7219 23.7044C47.7281 23.7044 47.7336 23.7036 47.7381 23.7019C47.7419 23.7007 47.7429 23.6984 47.7413 23.695C47.0581 21.9344 46.7644 20.1663 47.1519 18.3119C47.3365 17.4269 47.6529 16.4515 48.1013 15.3857C48.7125 13.9315 49.3209 12.4792 49.9263 11.0288C49.9275 11.0258 49.9296 11.0233 49.9323 11.0215C49.9349 11.0197 49.9381 11.0188 49.9413 11.0188C49.9445 11.0188 49.9476 11.0197 49.9503 11.0215C49.953 11.0233 49.955 11.0258 49.9563 11.0288C50.6129 12.6125 51.2667 14.1967 51.9175 15.7813C52.2038 16.4782 52.4725 17.3 52.6444 17.9794C53.1294 19.8944 52.8819 21.645 52.2169 23.4988C52.2127 23.5105 52.2167 23.5163 52.2288 23.5163C52.2367 23.5163 52.2419 23.5132 52.2444 23.5069C53.7781 19.8086 55.3036 16.1296 56.8206 12.47C56.8481 12.4034 56.8619 12.4061 56.8619 12.4782C56.8627 14.1961 56.8615 15.9117 56.8581 17.625C56.8569 18.3419 56.7975 19.1032 56.7069 19.7682C56.5102 21.2057 55.9696 22.5096 55.085 23.68C54.7921 24.0675 54.485 24.4432 54.1638 24.8069C54.1609 24.8103 54.1615 24.8125 54.1656 24.8138Z" fill="white"/>
<path d="M64.9387 67.0956L60.4275 75.2006C60.4171 75.2197 60.4008 75.2293 60.3787 75.2293L59.0956 75.2324C59.0861 75.2324 59.0769 75.2299 59.0688 75.2252C59.0608 75.2204 59.0543 75.2137 59.05 75.2056L50.0569 59.0499C50.041 59.0208 50.025 59.0208 50.0087 59.0499L41.0206 75.1981C41.0085 75.2193 40.9904 75.2299 40.9662 75.2299L39.6875 75.2312C39.6778 75.2312 39.6683 75.2286 39.66 75.2238C39.6516 75.219 39.6447 75.212 39.64 75.2037L35.0806 67.0118C35.0793 67.0088 35.0769 67.0064 35.074 67.005C35.0711 67.0036 35.0677 67.0033 35.0646 67.0041C35.0614 67.0049 35.0586 67.0069 35.0568 67.0095C35.0549 67.0122 35.054 67.0154 35.0544 67.0187L35.0519 78.8524C35.0519 78.8576 35.0498 78.8625 35.0462 78.8661C35.0425 78.8698 35.0376 78.8718 35.0325 78.8718L25.875 78.8724C25.8541 78.8724 25.8437 78.8618 25.8437 78.8406C25.8433 69.4068 25.8429 59.9735 25.8425 50.5406C25.8425 50.4556 25.8216 50.3758 25.78 50.3012C23.1825 45.6391 20.5875 40.9774 17.995 36.3162C17.9825 36.2937 17.9875 36.2762 18.01 36.2637L19.2962 35.5481C19.3001 35.5459 19.3043 35.5446 19.3087 35.5441C19.3131 35.5436 19.3175 35.544 19.3217 35.5452C19.3259 35.5465 19.3297 35.5485 19.3331 35.5512C19.3365 35.554 19.3392 35.5574 19.3412 35.5612L40.3175 73.2449C40.3186 73.247 40.3202 73.2486 40.3222 73.2498C40.3241 73.2509 40.3264 73.2515 40.3287 73.2515C40.3311 73.2515 40.3334 73.2509 40.3355 73.2498C40.3376 73.2486 40.3393 73.247 40.3406 73.2449L43.3512 67.8356C43.3629 67.8147 43.3629 67.7937 43.3512 67.7724L25.8581 36.4156C25.8483 36.3984 25.8431 36.3788 25.8431 36.3587V24.5349C25.8431 24.5166 25.8525 24.5074 25.8712 24.5074H35.0262C35.0437 24.5074 35.0525 24.5162 35.0525 24.5337L35.0519 49.7862C35.0519 49.8129 35.0652 49.8262 35.0919 49.8262L44.8875 49.8249C44.8904 49.8249 44.8932 49.8241 44.8957 49.8226C44.8982 49.8211 44.9003 49.819 44.9017 49.8165C44.9031 49.814 44.9039 49.8111 44.9039 49.8082C44.904 49.8053 44.9032 49.8025 44.9019 49.7999C43.5375 47.4756 42.5206 44.9937 41.99 42.3124C41.7421 41.0583 41.7816 39.8356 42.1087 38.6443C42.5871 36.9035 43.5171 35.4779 44.8987 34.3674C47.5062 32.2712 51.1887 31.9843 54.0925 33.6262C56.8175 35.1674 58.4787 38.1824 58.2394 41.3412C58.2127 41.692 58.151 42.1037 58.0544 42.5762C57.5368 45.1124 56.4925 47.5324 55.2 49.7662C55.1966 49.7723 55.1948 49.7792 55.1949 49.7862C55.1949 49.7932 55.1968 49.8 55.2002 49.806C55.2037 49.812 55.2087 49.817 55.2147 49.8204C55.2207 49.8239 55.2275 49.8256 55.2344 49.8256H64.955C64.9758 49.8256 64.9862 49.8154 64.9862 49.7949V24.5418C64.9862 24.5189 64.9977 24.5074 65.0206 24.5074H74.1525C74.1659 24.5074 74.1788 24.5128 74.1883 24.5225C74.1978 24.5321 74.2031 24.5451 74.2031 24.5587V47.1668C74.2031 47.2406 74.2212 47.2452 74.2575 47.1806L80.645 35.7049C80.6591 35.6795 80.6787 35.6739 80.7037 35.6881L81.9818 36.3987C82.0035 36.4108 82.0083 36.4279 81.9962 36.4499C79.4216 41.0799 76.845 45.7081 74.2662 50.3343C74.225 50.4085 74.2044 50.4881 74.2044 50.5731C74.2039 59.996 74.2035 69.4183 74.2031 78.8399C74.2031 78.8616 74.1923 78.8724 74.1706 78.8724H65.015C64.9958 78.8724 64.9862 78.8627 64.9862 78.8431V67.1074C64.9862 67.0429 64.9704 67.0389 64.9387 67.0956ZM45.5362 35.8543C44.0456 37.2118 43.1269 39.3618 43.4106 41.4037C43.7469 43.8206 44.6837 46.2143 45.8675 48.3537C46.3079 49.1495 46.7496 49.9454 47.1925 50.7412C51.3654 58.2329 55.5396 65.7258 59.715 73.2199C59.7308 73.2483 59.7466 73.2483 59.7625 73.2199L62.7475 67.8587C62.7575 67.8404 62.7575 67.822 62.7475 67.8037C59.8504 62.5983 56.9523 57.3935 54.0531 52.1893C53.9285 51.966 53.7214 51.6043 53.4319 51.1043C51.8462 48.3662 50.3394 45.3524 49.5287 42.2574C49.4433 41.9316 49.3816 41.6445 49.3437 41.3962C49.06 39.5387 49.9987 37.7399 51.61 36.8574C52.7012 36.2595 53.8804 36.1458 55.1475 36.5162C55.1504 36.5171 55.1536 36.5171 55.1565 36.516C55.1594 36.5149 55.1619 36.5129 55.1635 36.5103C55.1652 36.5076 55.166 36.5044 55.1658 36.5012C55.1656 36.498 55.1645 36.4949 55.1625 36.4924C52.675 33.6087 48.3694 33.2737 45.5362 35.8543ZM56.6794 40.3206C56.2494 37.7968 53.0756 36.9662 51.4581 38.9643C50.8894 39.6668 50.71 40.4968 50.92 41.4543C51.1637 42.5643 51.5485 43.7316 52.0744 44.9562C52.6977 46.4079 53.3148 47.6939 53.9256 48.8143C53.9373 48.8356 53.9491 48.8358 53.9612 48.8149C55.225 46.6212 56.2444 44.1818 56.6531 41.6731C56.7369 41.1593 56.7456 40.7085 56.6794 40.3206ZM36.9131 52.9999C36.9095 52.9999 36.906 53.0009 36.9028 53.0026C36.8997 53.0044 36.8971 53.007 36.8953 53.0101C36.8934 53.0132 36.8924 53.0167 36.8924 53.0203C36.8923 53.0239 36.8932 53.0274 36.895 53.0306L44.2344 66.1849C44.2361 66.1882 44.2387 66.1909 44.2419 66.1928C44.2451 66.1947 44.2488 66.1957 44.2525 66.1957C44.2562 66.1957 44.2598 66.1947 44.263 66.1928C44.2662 66.1909 44.2688 66.1882 44.2706 66.1849L49.1437 57.4293C49.1454 57.4263 49.1463 57.4228 49.1463 57.4193C49.1463 57.4158 49.1454 57.4124 49.1437 57.4093L46.695 53.0106C46.6932 53.0074 46.6907 53.0048 46.6876 53.0029C46.6846 53.0011 46.6811 53 46.6775 52.9999H36.9131ZM63.6637 66.2131C64.0819 65.4599 64.5006 64.7074 64.9225 63.9543C64.9637 63.8802 64.9844 63.8008 64.9844 63.7162C64.9873 60.1562 64.9875 56.5947 64.985 53.0318C64.985 53.0106 64.9741 52.9999 64.9525 52.9999H56.3262C56.2916 52.9999 56.2827 53.0149 56.2994 53.0449L63.6293 66.2131C63.631 66.2161 63.6334 66.2187 63.6363 66.2205C63.6393 66.2222 63.6427 66.2232 63.6462 66.2232C63.6497 66.2232 63.6532 66.2222 63.6563 66.2205C63.6594 66.2187 63.6619 66.2161 63.6637 66.2131Z" fill="white"/>
</g>
<defs>
<clipPath id="clip0_132_30">
<rect width="100" height="100" fill="white"/>
</clipPath>
</defs>
</svg>
