<svg width="100" height="100" viewBox="0 0 100 100" fill="none" xmlns="http://www.w3.org/2000/svg">
<rect width="100" height="100" fill="url(#paint0_radial_132_31)"/>
<rect x="46.1494" y="28" width="7" height="5" fill="#F5F7F6"/>
<mask id="mask0_132_31" style="mask-type:alpha" maskUnits="userSpaceOnUse" x="38" y="15" width="23" height="20">
<path fill-rule="evenodd" clip-rule="evenodd" d="M43.7481 17.2068C45.3958 15.4414 48.456 15 49.7801 15V34.7143H47.4261V32.5075H48.8973V31.1834H46.6905V30.4478H48.8973C48.8973 29.8295 48.0955 29.2433 47.2555 28.6293C46.2966 27.9283 45.288 27.1911 45.3664 26.3284C45.5135 24.71 44.925 23.0917 43.7481 22.7974C43.5644 22.7515 43.3199 22.7092 43.038 22.6604L43.038 22.6604C41.5129 22.3964 38.8931 21.9429 38.8931 19.7079C39.3639 15.9416 42.3259 16.4712 43.7481 17.2068ZM41.5414 17.9424C42.9538 16.8831 43.7973 18.3838 44.0425 19.2665C44.3965 18.3816 44.7726 18.4392 45.0209 18.6891C45.1818 18.8511 45.2194 19.0912 45.2194 19.3195V22.9445C44.9252 22.6013 44.0131 21.797 42.7184 21.3262C41.1001 20.7377 39.776 19.2665 41.5414 17.9424ZM55.8121 17.2068C54.1643 15.4414 51.1042 15 49.7801 15V34.7143H52.134V32.5075H50.6628V31.1834H52.8696V30.4478H50.6628C50.6628 29.8295 51.4647 29.2433 52.3046 28.6293C53.2636 27.9283 54.2721 27.1911 54.1937 26.3284C54.0466 24.71 54.6351 23.0917 55.8121 22.7974C55.9957 22.7515 56.2402 22.7092 56.5221 22.6604C58.0472 22.3964 60.6671 21.9429 60.6671 19.7079C60.1963 15.9416 57.2342 16.4712 55.8121 17.2068ZM58.0188 17.9424C56.6064 16.8831 55.7629 18.3838 55.5177 19.2665C55.1637 18.3816 54.7876 18.4392 54.5394 18.6891C54.3784 18.8511 54.3408 19.0912 54.3408 19.3195V22.9445C54.635 22.6013 55.5471 21.797 56.8418 21.3262C58.4601 20.7377 59.7842 19.2665 58.0188 17.9424Z" fill="black"/>
</mask>
<g mask="url(#mask0_132_31)">
<path fill-rule="evenodd" clip-rule="evenodd" d="M43.7481 17.2068C45.3958 15.4414 48.456 15 49.7801 15V34.7143H47.4261V32.5075H48.8973V31.1834H46.6905V30.4478H48.8973C48.8973 29.8295 48.0955 29.2433 47.2555 28.6293C46.2966 27.9283 45.288 27.1911 45.3664 26.3284C45.5135 24.71 44.925 23.0917 43.7481 22.7974C43.5644 22.7515 43.3199 22.7092 43.038 22.6604L43.038 22.6604C41.5129 22.3964 38.8931 21.9429 38.8931 19.7079C39.3639 15.9416 42.3259 16.4712 43.7481 17.2068ZM41.5414 17.9424C42.9538 16.8831 43.7973 18.3838 44.0425 19.2665C44.3965 18.3816 44.7726 18.4392 45.0209 18.6891C45.1818 18.8511 45.2194 19.0912 45.2194 19.3195V22.9445C44.9252 22.6013 44.0131 21.797 42.7184 21.3262C41.1001 20.7377 39.776 19.2665 41.5414 17.9424ZM55.8121 17.2068C54.1643 15.4414 51.1042 15 49.7801 15V34.7143H52.134V32.5075H50.6628V31.1834H52.8696V30.4478H50.6628C50.6628 29.8295 51.4647 29.2433 52.3046 28.6293C53.2636 27.9283 54.2721 27.1911 54.1937 26.3284C54.0466 24.71 54.6351 23.0917 55.8121 22.7974C55.9957 22.7515 56.2402 22.7092 56.5221 22.6604C58.0472 22.3964 60.6671 21.9429 60.6671 19.7079C60.1963 15.9416 57.2342 16.4712 55.8121 17.2068ZM58.0188 17.9424C56.6064 16.8831 55.7629 18.3838 55.5177 19.2665C55.1637 18.3816 54.7876 18.4392 54.5394 18.6891C54.3784 18.8511 54.3408 19.0912 54.3408 19.3195V22.9445C54.635 22.6013 55.5471 21.797 56.8418 21.3262C58.4601 20.7377 59.7842 19.2665 58.0188 17.9424Z" fill="black"/>
<path fill-rule="evenodd" clip-rule="evenodd" d="M49.6329 17.354C51.6642 17.354 53.3109 16.9587 53.3109 16.4712C53.3109 15.9837 51.6642 15.5885 49.6329 15.5885C47.6016 15.5885 45.9548 15.9837 45.9548 16.4712C45.9548 16.9587 47.6016 17.354 49.6329 17.354ZM48.0141 17.9424C46.7194 18.0601 46.0034 17.403 45.8072 17.0597C45.2187 16.7654 44.6303 17.9424 45.0716 17.9424C45.4247 17.9424 45.7092 18.727 45.8072 19.1194V26.3283C46.6311 28.0938 48.3083 28.5352 49.0439 28.5352V27.0639C48.22 26.9462 48.0141 25.7398 48.0141 25.1514V17.9424ZM53.6052 17.0597C53.9975 17.1578 54.6644 17.4717 54.1937 17.9424C53.8199 18.3162 53.6835 18.4526 53.6338 18.6154C53.6052 18.709 53.6052 18.8113 53.6052 18.9723V25.4456C53.3109 26.5245 52.4282 28.6529 51.2512 28.5352V27.3582C51.6926 27.113 52.5753 26.3284 52.5753 25.1514V17.7953C52.8696 17.6972 53.4875 17.4128 53.6052 17.0597ZM39.7757 19.4137C39.4815 19.4137 38.9605 17.498 40.9527 17.6577C40.4884 18.0848 39.7757 18.8252 39.7757 19.4137ZM58.0188 21.3262C60.2256 21.4734 59.7843 19.7079 59.0487 19.7079C59.1478 20.0357 58.4257 20.8611 58.0651 21.2733L58.0188 21.3262ZM40.9736 21.2291C40.9119 21.5168 38.9296 21.6244 39.5036 19.71C39.8238 20.2536 40.3982 21.1056 40.9736 21.2291Z" fill="#F5F7F6"/>
</g>
<mask id="mask1_132_31" style="mask-type:alpha" maskUnits="userSpaceOnUse" x="22" y="22" width="27" height="62">
<path d="M26.0937 43.2474C17.5018 33.2431 26.6822 23.9745 31.6843 22.3561C27.4178 35.8913 32.567 36.1856 33.5969 35.4499C34.6267 34.7143 32.567 32.8018 31.8314 32.2133C31.0958 31.6248 30.2131 27.6525 35.2152 27.7996C39.2169 27.9173 39.6289 31.9681 39.3346 33.9787C43.8071 30.8009 41.7866 24.7101 40.2174 22.0619C52.8698 31.1834 48.1619 39.2751 44.9252 42.5118C41.6886 45.7485 37.5692 52.3689 43.1598 64.1386C47.6323 73.5544 47.3773 81.3028 46.6907 84.0001C43.8954 79.2922 39.6289 74.4372 37.5692 71.4947C35.9214 69.1408 33.1555 62.177 31.9785 58.9894C31.6843 58.9404 30.831 60.49 29.7717 67.0811C28.3594 77.203 25.8485 81.3028 24.7697 82.0875C21.8272 78.7037 21.3859 67.8167 22.71 64.1386C24.034 60.4606 30.6545 49.1323 26.0937 43.2474Z" fill="#F5F7F6"/>
</mask>
<g mask="url(#mask1_132_31)">
<path d="M26.0937 43.2474C17.5018 33.2431 26.6822 23.9745 31.6843 22.3561C27.4178 35.8913 32.567 36.1856 33.5969 35.4499C34.6267 34.7143 32.567 32.8018 31.8314 32.2133C31.0958 31.6248 30.2131 27.6525 35.2152 27.7996C39.2169 27.9173 39.6289 31.9681 39.3346 33.9787C43.8071 30.8009 41.7866 24.7101 40.2174 22.0619C52.8698 31.1834 48.1619 39.2751 44.9252 42.5118C41.6886 45.7485 37.5692 52.3689 43.1598 64.1386C47.6323 73.5544 47.3773 81.3028 46.6907 84.0001C43.8954 79.2922 39.6289 74.4372 37.5692 71.4947C35.9214 69.1408 33.1555 62.177 31.9785 58.9894C31.6843 58.9404 30.831 60.49 29.7717 67.0811C28.3594 77.203 25.8485 81.3028 24.7697 82.0875C21.8272 78.7037 21.3859 67.8167 22.71 64.1386C24.034 60.4606 30.6545 49.1323 26.0937 43.2474Z" fill="#F5F7F6"/>
<path d="M25.0295 73.4073C26.2065 61.0491 29.7374 57.371 31.3557 57.0768C30.0317 61.7847 29.7373 66.4926 29.4431 70.612C29.2077 73.9075 26.4026 83.2644 25.0295 87.5309C24.8333 87.0896 24.5587 83.6469 25.0295 73.4073Z" fill="black"/>
<path d="M43.1594 38.6866C48.6911 33.9787 43.6008 25.2986 40.217 22.0619C53.7521 26.5344 51.9867 57.273 49.3385 72.3775L46.5432 84.8828C46.8865 83.3135 46.3372 77.7621 41.3939 68.1109C35.2148 56.047 34.3321 53.1045 34.9206 50.1621C35.509 47.2197 36.2447 44.5715 43.1594 38.6866Z" fill="black"/>
<path d="M27.2707 34.8614C26.0937 31.2128 29.8208 24.6609 31.6843 21.9147C27.8592 33.3902 30.066 36.6268 31.9786 37.6567C30.8997 38.1961 28.3005 38.0539 27.2707 34.8614Z" fill="black"/>
<path d="M38.3052 34.1259C40.664 28.7031 35.6605 27.2781 33.3033 28.241C31.9092 28.8105 31.6847 31.0363 34.9214 30.4478C37.5108 29.977 38.2562 32.7037 38.3052 34.1259Z" fill="black"/>
</g>
<mask id="mask2_132_31" style="mask-type:alpha" maskUnits="userSpaceOnUse" x="50" y="22" width="28" height="62">
<path d="M73.0986 43.2474C81.6905 33.2431 72.5102 23.9745 67.5081 22.3561C71.7746 35.8913 66.6253 36.1856 65.5955 35.4499C64.5656 34.7143 66.6253 32.8018 67.361 32.2133C68.0966 31.6248 68.9793 27.6525 63.9772 27.7996C59.9755 27.9173 59.5635 31.9681 59.8578 33.9787C55.3853 30.8009 57.4057 24.7101 58.975 22.0619C46.3226 31.1834 51.0305 39.2751 54.2671 42.5118C57.5038 45.7485 61.6232 52.3689 56.0326 64.1386C51.5601 73.5544 51.8151 81.3028 52.5017 84.0001C55.297 79.2922 59.5635 74.4372 61.6232 71.4947C63.271 69.1408 65.3748 62.9126 66.5518 59.725C66.846 59.676 66.9637 59.9015 68.023 66.4926C69.6413 73.5544 73.3439 81.3028 74.4227 82.0875C77.3652 78.7037 77.8065 67.8167 76.4824 64.1386C75.1583 60.4606 68.5379 49.1323 73.0986 43.2474Z" fill="#F5F7F6"/>
</mask>
<g mask="url(#mask2_132_31)">
<path d="M73.0986 43.2474C81.6905 33.2431 72.5102 23.9745 67.5081 22.3561C71.7746 35.8913 66.6253 36.1856 65.5955 35.4499C64.5656 34.7143 66.6253 32.8018 67.361 32.2133C68.0966 31.6248 68.9793 27.6525 63.9772 27.7996C59.9755 27.9173 59.5635 31.9681 59.8578 33.9787C55.3853 30.8009 57.4057 24.7101 58.975 22.0619C46.3226 31.1834 51.0305 39.2751 54.2671 42.5118C57.5038 45.7485 61.6232 52.3689 56.0326 64.1386C51.5601 73.5544 51.8151 81.3028 52.5017 84.0001C55.297 79.2922 59.5635 74.4372 61.6232 71.4947C63.271 69.1408 65.3748 62.9126 66.5518 59.725C66.846 59.676 66.9637 59.9015 68.023 66.4926C69.6413 73.5544 73.3439 81.3028 74.4227 82.0875C77.3652 78.7037 77.8065 67.8167 76.4824 64.1386C75.1583 60.4606 68.5379 49.1323 73.0986 43.2474Z" fill="#F5F7F6"/>
<path d="M67.2878 64.1386C64.4924 58.548 68.9062 57.4691 70.5245 57.0768C73.9377 61.667 74.5949 77.2324 74.4969 84.4414C74.0065 84.1962 72.7314 83.3821 71.5544 82.0874C70.0832 80.4691 68.9062 70.0235 67.2878 64.1386Z" fill="black"/>
<path d="M56.0867 38.6865C50.555 33.9786 56.1062 25.6908 59.3429 21.9147C45.8077 26.3872 47.2594 57.2729 49.9076 72.3774L52.7029 84.8827C52.3596 83.3134 52.9089 77.762 57.8522 68.1108C64.0313 56.0469 64.914 53.1044 64.3255 50.162C63.737 47.2196 63.0014 44.5714 56.0867 38.6865Z" fill="black"/>
<path d="M72.1427 34.8614C73.3197 31.2128 69.2003 24.1215 67.2877 21.9147C70.9657 31.7718 69.3474 36.6268 67.4348 37.6567C68.5137 38.1961 71.1128 38.0539 72.1427 34.8614Z" fill="black"/>
<path d="M60.9047 34.1259C58.546 28.7031 63.5495 27.2781 65.9067 28.241C67.3008 28.8105 67.5252 31.0363 64.2885 30.4478C61.6992 29.977 60.9538 32.7037 60.9047 34.1259Z" fill="black"/>
</g>
<defs>
<radialGradient id="paint0_radial_132_31" cx="0" cy="0" r="1" gradientUnits="userSpaceOnUse" gradientTransform="translate(50 50) rotate(90) scale(50)">
<stop stop-color="#1F3679"/>
<stop offset="1" stop-color="#1F3679"/>
</radialGradient>
</defs>
</svg>
