<svg width="100" height="100" viewBox="0 0 100 100" fill="none" xmlns="http://www.w3.org/2000/svg">
<rect width="100" height="100" fill="#FFF0F0"/>
<path d="M45.8482 67.9689C45.664 67.6864 45.5869 67.4006 45.6169 67.1114L50.8495 55.1177C50.8512 55.1127 50.8512 55.1072 50.8494 55.1022C50.8477 55.0972 50.8443 55.0929 50.8399 55.09C50.8354 55.0871 50.8301 55.0858 50.8248 55.0863C50.8195 55.0868 50.8146 55.089 50.8107 55.0927L45.357 60.7289C45.2178 59.8114 45.1724 58.9181 45.2207 58.0489L47.2045 55.0714L48.1482 53.9689C48.1749 53.9373 48.2086 53.9177 48.2495 53.9102C48.8478 53.7994 49.414 53.5023 49.9482 53.0189C50.9882 52.0764 51.6657 50.8952 52.5995 49.9552C52.9361 49.616 53.1945 49.4148 53.3745 49.3514C54.0245 49.1202 54.577 48.9502 55.0795 48.3677C55.2236 48.201 55.3895 47.9756 55.577 47.6914C55.9011 47.1998 56.2253 46.7085 56.5495 46.2177C56.7428 45.9252 56.9924 45.7039 57.2982 45.5539C57.597 45.4089 57.9245 45.5002 58.2457 45.5389C58.4732 45.5673 58.7141 45.5648 58.9682 45.5314C60.1816 45.3731 61.3741 45.4706 62.5457 45.8239C62.907 45.9339 63.3045 45.9739 63.517 45.6564C63.707 45.3727 63.5207 44.9227 63.2107 44.8477C62.4257 44.6568 61.6453 44.4473 60.8695 44.2189C60.7353 44.1798 60.6141 44.1268 60.5057 44.0602C60.4819 44.0456 60.4628 44.0246 60.4503 43.9996C60.4379 43.9746 60.4328 43.9466 60.4356 43.9188C60.4383 43.8911 60.4488 43.8646 60.4658 43.8425C60.4829 43.8205 60.5058 43.8036 60.532 43.7939C60.6886 43.7348 60.8591 43.7081 61.0432 43.7139C61.8566 43.7364 62.6686 43.7739 63.4795 43.8264C64.0857 43.8652 64.737 43.4902 64.492 42.8239C64.407 42.5923 64.2157 42.4743 63.9182 42.4702C62.7691 42.4543 61.8103 42.3735 61.042 42.2277C60.8678 42.1943 60.7686 42.0998 60.7445 41.9439C60.7413 41.924 60.7445 41.9035 60.7537 41.8855C60.7629 41.8676 60.7777 41.853 60.7957 41.8439C60.9657 41.7598 61.142 41.696 61.3245 41.6527C62.1111 41.4643 62.8941 41.2664 63.6732 41.0589C64.0157 40.9673 64.2491 40.8685 64.3732 40.7627C64.6207 40.5502 64.8007 39.9527 64.4557 39.7164C64.2257 39.5589 63.772 39.6589 63.522 39.7264C62.602 39.9789 61.6716 40.181 60.7307 40.3327C60.5632 40.3593 60.4153 40.361 60.287 40.3377C60.2658 40.3338 60.246 40.3245 60.2295 40.3107C60.213 40.2968 60.2004 40.2789 60.193 40.2587C60.1855 40.2385 60.1835 40.2168 60.187 40.1955C60.1906 40.1743 60.1996 40.1544 60.2132 40.1377C60.6807 39.5714 61.417 39.1227 62.0457 38.7452C62.4132 38.5239 62.957 37.9414 62.652 37.4939C62.4495 37.1952 62.052 37.3039 61.7957 37.4602C60.8516 38.0335 59.9357 38.6493 59.0482 39.3077C58.5415 39.6827 57.8995 39.8131 57.122 39.6989C57.1026 39.6962 57.0838 39.6896 57.0669 39.6795C57.05 39.6694 57.0351 39.656 57.0232 39.6402C56.2632 38.6327 57.5657 37.1427 56.417 36.4414C56.3347 36.3913 56.2365 36.3744 56.1422 36.3941C56.0479 36.4138 55.9647 36.4688 55.9095 36.5477C55.757 36.7652 55.707 37.0702 55.6957 37.3814C55.664 38.1948 55.422 38.9277 54.9695 39.5802C54.4095 40.3889 54.187 41.0914 54.3107 42.0952C54.3457 42.3764 54.2482 42.5964 53.982 42.6814C52.5532 43.1352 51.1232 43.4202 50.5145 44.8014C50.3882 45.0877 50.1895 45.7227 49.8895 45.8189C48.3953 46.2973 47.054 47.0493 45.8657 48.0752C45.8365 48.1002 45.8028 48.1114 45.7644 48.1089C43.6603 47.9448 41.7157 48.4114 39.9307 49.5089C39.897 49.5286 39.8593 49.5398 39.8207 49.5414C39.5232 49.5539 39.3207 49.5989 39.0394 49.4564C38.4536 49.1606 37.8694 48.8602 37.2869 48.5552L43.8819 45.4439C43.8872 45.4414 43.8914 45.4372 43.8939 45.4319C43.8963 45.4266 43.8968 45.4206 43.8954 45.415C43.8939 45.4094 43.8905 45.4044 43.8857 45.4011C43.881 45.3977 43.8753 45.396 43.8694 45.3964L37.6444 45.9177C37.4194 45.1318 37.5974 44.4343 38.1782 43.8252L43.2482 42.4752C43.4299 42.4268 43.4269 42.3939 43.2394 42.3764L38.3444 41.9114L38.7094 39.7789L43.3682 39.3989C43.4565 39.3914 43.4578 39.3756 43.3719 39.3514L38.7257 38.0427C38.5807 37.666 38.3615 37.3285 38.0682 37.0302C37.6674 36.6218 37.2865 36.1843 36.9257 35.7177L43.8994 36.4052C44.0094 36.416 44.0149 36.3973 43.9157 36.3489L31.3657 30.2052C31.3309 30.1882 31.3019 30.1614 31.2823 30.1281C31.2628 30.0947 31.2535 30.0563 31.2557 30.0177C31.2707 29.7439 31.4357 29.7027 31.6732 29.7702C36.0999 31.0252 40.5399 32.2877 44.9932 33.5577C44.9969 33.5595 45.0009 33.5605 45.005 33.5608C45.0091 33.5611 45.0132 33.5605 45.0171 33.5592C45.021 33.5578 45.0246 33.5557 45.0277 33.553C45.0308 33.5503 45.0333 33.547 45.0351 33.5433C45.0369 33.5396 45.0379 33.5356 45.0382 33.5315C45.0384 33.5274 45.0379 33.5233 45.0366 33.5194C45.0352 33.5155 45.0331 33.5119 45.0304 33.5088C45.0277 33.5057 45.0244 33.5032 45.0207 33.5014C41.3024 30.7698 37.5736 28.0377 33.8344 25.3052C33.6819 25.1935 33.6461 25.0581 33.7269 24.8989C33.7556 24.8424 33.8054 24.7994 33.8655 24.7793C33.9256 24.7592 33.9913 24.7635 34.0482 24.7914L46.6032 30.9589C46.6074 30.961 46.6121 30.9615 46.6166 30.9604C46.6211 30.9594 46.6251 30.9568 46.6279 30.9531C46.6307 30.9494 46.6322 30.9448 46.632 30.9402C46.6318 30.9356 46.63 30.9311 46.627 30.9277L37.0269 20.7577C36.9956 20.7249 36.9738 20.6841 36.9639 20.6396C36.954 20.5951 36.9563 20.5486 36.9707 20.5052C37.0469 20.2739 37.2619 20.2952 37.4319 20.4202C41.1578 23.171 44.8819 25.9218 48.6045 28.6727C48.6091 28.6764 48.6149 28.6782 48.6207 28.6779C48.6266 28.6776 48.6321 28.6752 48.6365 28.671C48.6408 28.6669 48.6436 28.6612 48.6443 28.6551C48.6451 28.6491 48.6438 28.6429 48.6407 28.6377C46.1132 24.7602 43.5807 20.8785 41.0432 16.9927C40.9532 16.8543 40.9549 16.731 41.0482 16.6227C41.0712 16.596 41.0996 16.5744 41.1315 16.5594C41.1634 16.5444 41.1981 16.5363 41.2334 16.5356C41.2687 16.5349 41.3037 16.5416 41.3361 16.5553C41.3686 16.569 41.3979 16.5894 41.4219 16.6152L50.9207 26.7089C51.0299 26.8256 51.0536 26.8102 50.992 26.6627L45.6244 13.8739C45.6048 13.8276 45.6002 13.7763 45.6112 13.7272C45.6222 13.6782 45.6482 13.6337 45.6857 13.6002C45.8532 13.4489 46.0107 13.5402 46.1194 13.7064C48.6295 17.5689 51.1324 21.4281 53.6282 25.2839C53.7115 25.4123 53.7365 25.4018 53.7032 25.2527C52.7157 20.7868 51.7211 16.2827 50.7195 11.7402C50.6711 11.5193 50.7574 11.4039 50.9782 11.3939C51.0211 11.392 51.0635 11.4032 51.0997 11.426C51.1359 11.4488 51.1641 11.4821 51.1807 11.5214L56.592 24.4602C56.5941 24.4643 56.5976 24.4676 56.6018 24.4695C56.606 24.4715 56.6108 24.472 56.6153 24.471C56.6198 24.47 56.6239 24.4676 56.6269 24.464C56.6299 24.4605 56.6317 24.4561 56.632 24.4514L56.087 10.4364C56.0851 10.3953 56.0954 10.3544 56.1168 10.3191C56.1381 10.2837 56.1695 10.2554 56.207 10.2377C56.4532 10.1189 56.5657 10.2689 56.6145 10.4914C57.612 15.0223 58.6103 19.5606 59.6095 24.1064C59.6105 24.1095 59.6125 24.1121 59.6152 24.114C59.6179 24.1158 59.6211 24.1167 59.6243 24.1166C59.6275 24.1164 59.6306 24.1152 59.6332 24.1132C59.6357 24.1111 59.6374 24.1083 59.6382 24.1052C60.2941 19.4877 60.949 14.8668 61.6032 10.2427C61.6532 9.88768 62.1382 9.94393 62.1257 10.2702C62.1224 10.351 62.1211 10.3952 62.122 10.4027C62.2936 14.9852 62.4661 19.5623 62.6395 24.1339C62.6402 24.1424 62.6438 24.1504 62.6496 24.1566C62.6555 24.1628 62.6633 24.1668 62.6717 24.168C62.6802 24.1691 62.6887 24.1674 62.6961 24.163C62.7034 24.1586 62.709 24.1519 62.712 24.1439L67.0932 10.9252C67.1097 10.8756 67.1428 10.8333 67.1869 10.8051C67.231 10.7769 67.2835 10.7646 67.3357 10.7702C67.5424 10.7935 67.6286 10.921 67.5945 11.1527C66.9253 15.7427 66.2628 20.2981 65.607 24.8189C65.5853 24.9706 65.6111 24.9789 65.6845 24.8439C67.8953 20.7889 70.1132 16.7277 72.3382 12.6602C72.4407 12.4727 72.7357 12.4502 72.7957 12.6814C72.8166 12.7648 72.8082 12.8627 72.7707 12.9752C71.3149 17.3535 69.8591 21.7248 68.4032 26.0889C68.4011 26.0943 68.401 26.1001 68.403 26.1054C68.405 26.1107 68.4089 26.1151 68.414 26.1178C68.4191 26.1205 68.4251 26.1213 68.4309 26.1202C68.4367 26.119 68.442 26.1159 68.4457 26.1114C71.3749 22.4814 74.3045 18.8689 77.2345 15.2739C77.3403 15.1439 77.4574 15.1302 77.5857 15.2327C77.6294 15.2673 77.6595 15.3162 77.6705 15.3707C77.6814 15.4252 77.6727 15.4817 77.6457 15.5302L70.9857 27.6877C70.9057 27.8335 70.9286 27.8523 71.0545 27.7439L81.5482 18.6889C81.5723 18.6679 81.6003 18.6519 81.6306 18.6418C81.661 18.6317 81.693 18.6276 81.7249 18.63C81.7569 18.6323 81.7881 18.6409 81.8168 18.6553C81.8454 18.6697 81.871 18.6896 81.892 18.7139C81.9912 18.8298 81.9874 18.9539 81.8807 19.0864C78.9816 22.6698 76.0707 26.2635 73.1482 29.8677C73.142 29.8736 73.1383 29.8818 73.1379 29.8904C73.1375 29.8989 73.1404 29.9074 73.1459 29.9139C73.1515 29.9205 73.1594 29.9246 73.168 29.9256C73.1765 29.9265 73.1851 29.9241 73.192 29.9189L85.2232 22.8314C85.2566 22.8119 85.295 22.8026 85.3337 22.8048C85.3724 22.8071 85.4096 22.8207 85.4407 22.8439C85.6045 22.9664 85.6032 23.1627 85.4507 23.2939C81.9349 26.3264 78.4216 29.3498 74.9107 32.3639C74.9052 32.3687 74.9015 32.3754 74.9002 32.3827C74.8989 32.3901 74.9002 32.3976 74.9038 32.4039C74.9075 32.4102 74.9132 32.415 74.9199 32.4173C74.9267 32.4196 74.9341 32.4193 74.9407 32.4164C79.3074 30.8064 83.6512 29.206 87.972 27.6152C88.122 27.5602 88.2645 27.5727 88.337 27.7189C88.3663 27.7787 88.3719 27.8474 88.3527 27.9112C88.3334 27.9749 88.2908 28.0291 88.2333 28.0627L76.292 35.0802C76.1537 35.161 76.1632 35.1877 76.3207 35.1602L89.9745 32.7689C90.0302 32.7591 90.0876 32.7692 90.1367 32.7975C90.1859 32.8259 90.2236 32.8706 90.2432 32.9239C90.3024 33.0848 90.2528 33.1943 90.0945 33.2527C85.7562 34.856 81.4216 36.451 77.0907 38.0377C76.9391 38.0927 76.9441 38.121 77.1057 38.1227L90.9783 38.2089C91.0356 38.2092 91.0908 38.2307 91.1332 38.2693C91.1757 38.3078 91.2024 38.3606 91.2083 38.4177C91.227 38.5989 91.1358 38.6927 90.9595 38.7239C86.3695 39.5264 81.7787 40.3235 77.187 41.1152C77.1832 41.1153 77.1794 41.117 77.1766 41.1198C77.1738 41.1226 77.1721 41.1264 77.1719 41.1302C77.1718 41.134 77.1731 41.1376 77.1757 41.1402C77.1783 41.1427 77.1819 41.1441 77.1857 41.1439C81.7624 42.0056 86.3428 42.8673 90.927 43.7289C91.3083 43.8014 91.2558 44.2452 90.8245 44.2427C86.202 44.2143 81.5866 44.1777 76.9782 44.1327C76.9704 44.1319 76.9627 44.1341 76.9564 44.1388C76.9501 44.1436 76.9459 44.1504 76.9445 44.1581C76.9431 44.1658 76.9446 44.1738 76.9488 44.1804C76.9529 44.187 76.9594 44.1919 76.967 44.1939L90.0133 49.1827C90.0446 49.1947 90.0732 49.2131 90.0971 49.2368C90.1209 49.2604 90.1397 49.2888 90.152 49.3201C90.1643 49.3513 90.17 49.3848 90.1688 49.4184C90.1675 49.452 90.1592 49.485 90.1445 49.5152C90.087 49.6343 89.9912 49.6814 89.857 49.6564C85.3037 48.8039 80.7574 47.9468 76.2182 47.0852C76.0691 47.0568 76.0595 47.0818 76.1895 47.1602C80.087 49.5193 84.0174 51.9018 87.9808 54.3077C88.137 54.4027 88.2483 54.5539 88.1395 54.7252C88.1098 54.7727 88.0645 54.8085 88.0114 54.8263C87.9583 54.8441 87.9006 54.8428 87.8483 54.8227L74.9295 49.8577C74.757 49.791 74.7399 49.8193 74.8782 49.9427L85.2183 59.0952C85.2461 59.1199 85.2684 59.1503 85.2835 59.1844C85.2986 59.2185 85.3062 59.2554 85.3057 59.2927C85.3045 59.5677 85.067 59.6027 84.872 59.4839C80.9037 57.0748 76.9416 54.6652 72.9857 52.2552C72.9808 52.2525 72.9751 52.2515 72.9695 52.2525C72.964 52.2534 72.9589 52.2562 72.9551 52.2604C72.9513 52.2646 72.9491 52.27 72.9488 52.2756C72.9484 52.2812 72.95 52.2868 72.9532 52.2914C75.8474 55.9589 78.7224 59.6098 81.5782 63.2439C81.6849 63.3789 81.6874 63.5002 81.5857 63.6077C81.5389 63.6564 81.4752 63.6852 81.4078 63.688C81.3404 63.6908 81.2747 63.6674 81.2245 63.6227L70.7795 54.3502C70.7751 54.3464 70.7696 54.3443 70.7638 54.3441C70.758 54.344 70.7524 54.3458 70.7478 54.3493C70.7433 54.3529 70.7401 54.3579 70.7388 54.3635C70.7375 54.3691 70.7382 54.375 70.7407 54.3802C72.9032 58.4518 75.0641 62.531 77.2232 66.6177C77.432 67.0127 77.0757 67.2889 76.8345 66.9827C73.9578 63.3202 71.1091 59.6881 68.2882 56.0864C68.1899 55.9614 68.1649 55.9748 68.2132 56.1264C69.6157 60.5198 71.0095 64.8973 72.3945 69.2589C72.447 69.4277 72.4432 69.6064 72.2595 69.6702C72.2019 69.6907 72.1388 69.6898 72.0818 69.6675C72.0249 69.6452 71.9779 69.6031 71.9495 69.5489L65.472 57.2802C65.3978 57.1393 65.3711 57.1477 65.392 57.3052C65.9803 61.8468 66.5707 66.4302 67.1632 71.0552C67.1841 71.2218 67.1141 71.3198 66.9532 71.3489C66.894 71.3596 66.8329 71.3484 66.7814 71.3174C66.7299 71.2863 66.6914 71.2375 66.6732 71.1802L62.4845 57.9427C62.437 57.7918 62.4091 57.7956 62.4007 57.9539L61.692 71.8239C61.6901 71.859 61.6807 71.8932 61.6645 71.9244C61.6484 71.9555 61.6258 71.9829 61.5982 72.0046C61.5707 72.0264 61.5388 72.042 61.5048 72.0505C61.4707 72.059 61.4353 72.0602 61.4007 72.0539C61.2565 72.0273 61.1745 71.9348 61.1545 71.7764C60.5853 67.2123 60.0095 62.6418 59.427 58.0652C59.407 57.9085 59.3791 57.9068 59.3432 58.0602C58.3016 62.5285 57.2378 67.036 56.152 71.5827C56.1195 71.721 56.0315 71.7848 55.8882 71.7739C55.8258 71.7688 55.7678 71.7397 55.7265 71.6928C55.6852 71.6459 55.6639 71.5849 55.667 71.5227L56.397 57.6452C56.4053 57.486 56.3778 57.4798 56.3145 57.6264C54.502 61.8139 52.667 66.0368 50.8095 70.2952C50.632 70.7002 50.2107 70.4814 50.2982 70.1127C51.369 65.6152 52.4399 61.1148 53.5107 56.6114C53.5357 56.5056 53.5178 56.4981 53.457 56.5889L45.8482 67.9689Z" fill="#ED302C"/>
<path d="M36.926 35.7177C37.2868 36.1844 37.6677 36.6219 38.0685 37.0302C38.3618 37.3285 38.581 37.666 38.726 38.0427C38.861 38.6119 38.8556 39.1906 38.7098 39.779L38.3448 41.9115C38.3323 42.2665 38.3456 42.6269 38.3848 42.9927C38.4039 43.1677 38.3352 43.4452 38.1785 43.8252C37.5977 44.4344 37.4198 45.1319 37.6448 45.9177C37.7531 46.1619 37.8952 46.3423 38.071 46.459C38.0847 46.468 38.0962 46.4799 38.1048 46.4939C38.1134 46.5078 38.1189 46.5234 38.121 46.5397C38.123 46.556 38.1215 46.5725 38.1165 46.5881C38.1116 46.6037 38.1033 46.6181 38.0923 46.6302C37.7248 47.0352 37.2927 47.361 36.796 47.6077C36.591 47.709 36.4835 47.8864 36.5623 48.1002C36.646 48.3264 37.0685 48.4465 37.2873 48.5552C37.8698 48.8602 38.4539 49.1606 39.0398 49.4565C39.321 49.599 39.5235 49.554 39.821 49.5415C39.8596 49.5398 39.8974 49.5287 39.931 49.509C41.716 48.4115 43.6606 47.9448 45.7648 48.109C45.8031 48.1115 45.8369 48.1002 45.866 48.0752C47.0544 47.0494 48.3956 46.2973 49.8898 45.8189C50.1898 45.7227 50.3885 45.0877 50.5148 44.8015C51.1235 43.4202 52.5535 43.1352 53.9823 42.6815C54.2485 42.5965 54.346 42.3765 54.311 42.0952C54.1873 41.0915 54.4098 40.389 54.9698 39.5802C55.4223 38.9277 55.6644 38.1948 55.696 37.3814C55.7073 37.0702 55.7573 36.7652 55.9098 36.5477C55.965 36.4688 56.0482 36.4139 56.1425 36.3941C56.2368 36.3744 56.335 36.3913 56.4173 36.4415C57.566 37.1427 56.2635 38.6327 57.0235 39.6402C57.0354 39.6561 57.0503 39.6694 57.0672 39.6795C57.0842 39.6896 57.1029 39.6962 57.1223 39.699C57.8998 39.8131 58.5419 39.6827 59.0485 39.3077C59.936 38.6494 60.8519 38.0335 61.796 37.4602C62.0523 37.3039 62.4498 37.1952 62.6523 37.494C62.9573 37.9415 62.4135 38.5239 62.046 38.7452C61.4173 39.1227 60.681 39.5715 60.2135 40.1377C60.1999 40.1544 60.1909 40.1743 60.1874 40.1955C60.1838 40.2168 60.1859 40.2386 60.1933 40.2588C60.2008 40.279 60.2133 40.2969 60.2298 40.3107C60.2463 40.3245 60.2661 40.3339 60.2873 40.3377C60.4156 40.361 60.5635 40.3594 60.731 40.3327C61.6719 40.181 62.6023 39.979 63.5223 39.7265C63.7723 39.659 64.226 39.559 64.456 39.7165C64.801 39.9527 64.621 40.5502 64.3735 40.7627C64.2494 40.8685 64.016 40.9673 63.6735 41.059C62.8944 41.2665 62.1115 41.4644 61.3248 41.6527C61.1423 41.696 60.966 41.7598 60.796 41.844C60.778 41.853 60.7633 41.8676 60.754 41.8856C60.7448 41.9035 60.7416 41.924 60.7448 41.9439C60.769 42.0998 60.8681 42.1944 61.0423 42.2277C61.8106 42.3735 62.7694 42.4544 63.9185 42.4702C64.216 42.4744 64.4073 42.5923 64.4923 42.824C64.7373 43.4902 64.086 43.8652 63.4798 43.8265C62.669 43.774 61.8569 43.7365 61.0435 43.714C60.8594 43.7081 60.689 43.7348 60.5323 43.794C60.5061 43.8036 60.4832 43.8205 60.4662 43.8426C60.4491 43.8647 60.4386 43.8911 60.4359 43.9189C60.4331 43.9466 60.4383 43.9746 60.4507 43.9996C60.4631 44.0246 60.4823 44.0456 60.506 44.0602C60.6144 44.1269 60.7356 44.1798 60.8698 44.219C61.6456 44.4473 62.426 44.6569 63.211 44.8477C63.521 44.9227 63.7073 45.3727 63.5173 45.6565C63.3048 45.974 62.9073 45.934 62.546 45.824C61.3744 45.4706 60.1819 45.3731 58.9685 45.5315C58.7144 45.5648 58.4735 45.5673 58.246 45.539C57.9248 45.5002 57.5973 45.4089 57.2985 45.554C56.9927 45.7039 56.7431 45.9252 56.5498 46.2177C56.2256 46.7085 55.9015 47.1998 55.5773 47.6915C55.3898 47.9756 55.2239 48.201 55.0798 48.3677C54.5773 48.9502 54.0248 49.1202 53.3748 49.3515C53.1948 49.4148 52.9364 49.616 52.5998 49.9552C51.666 50.8952 50.9885 52.0765 49.9485 53.0189C49.4144 53.5023 48.8481 53.7994 48.2498 53.9102C48.2089 53.9177 48.1752 53.9373 48.1485 53.969L47.2048 55.0715C46.6631 55.5281 46.0744 55.8323 45.4385 55.9839C45.3952 55.9948 45.3689 56.0219 45.3598 56.0652C45.2181 56.701 45.1719 57.3623 45.221 58.049C45.1727 58.9181 45.2181 59.8115 45.3573 60.729C45.5006 62.279 45.5323 63.9815 45.4523 65.8365C45.4356 66.2181 45.4906 66.6431 45.6173 67.1115C45.5873 67.4006 45.6644 67.6865 45.8485 67.969C45.9819 68.184 46.1285 68.3935 46.2885 68.5977C47.5273 70.1752 46.596 72.074 47.0235 73.804C47.2435 74.6965 47.6002 75.4694 48.0935 76.1227C49.136 77.5052 49.781 78.6852 50.1473 80.3615C50.436 81.684 50.6173 82.9802 51.3048 84.1927C52.221 85.8127 53.5823 86.8915 55.481 86.879C56.0544 86.8748 56.831 86.7056 57.811 86.3715C59.5269 85.7865 61.2048 85.0773 62.8448 84.244C62.8618 84.2353 62.8804 84.2301 62.8996 84.2288C62.9187 84.2275 62.9379 84.2301 62.956 84.2365C63.0885 84.2831 63.1202 84.359 63.051 84.464C63.0294 84.4956 62.9948 84.526 62.9473 84.5552C52.941 90.6015 40.6935 91.4452 29.9635 86.944C18.456 82.1177 10.3547 72.0639 8.00473 59.7964C7.99742 59.7579 7.9986 59.7183 8.00817 59.6803C8.01774 59.6423 8.03547 59.6068 8.06013 59.5765C8.08479 59.5461 8.11577 59.5215 8.15089 59.5044C8.18602 59.4874 8.22445 59.4783 8.26348 59.4777C8.39348 59.4752 8.46848 59.5764 8.50098 59.7014C9.15931 62.2848 10.0689 64.7648 11.2297 67.1415C11.2367 67.1561 11.2468 67.169 11.2592 67.1795C11.2715 67.19 11.286 67.1977 11.3016 67.2022C11.3172 67.2067 11.3335 67.2078 11.3496 67.2055C11.3656 67.2033 11.381 67.1976 11.3947 67.189C12.0614 66.7748 12.7693 66.4698 13.5185 66.274C14.226 66.089 15.1872 66.0515 15.8885 65.934C16.7747 65.7865 17.1335 64.6189 17.461 63.9039C17.9852 62.7623 18.7414 61.8173 19.7297 61.0689C20.1947 60.7177 20.431 60.4152 20.5922 59.9002C21.0585 58.4077 21.3747 56.6514 22.361 55.1152C23.4697 53.3852 25.1635 52.669 27.141 52.4827C27.5318 52.446 27.8335 52.3815 28.046 52.2889C28.6735 52.0152 29.3848 51.5427 29.5535 50.8352C29.6968 50.2335 29.6014 49.6919 29.2673 49.2102C28.8698 48.6377 28.526 48.2494 28.236 48.0452C27.3948 47.4527 26.426 46.9402 25.9497 45.989C25.8347 45.7598 25.7077 45.2952 25.5685 44.5952C25.3172 43.334 25.1422 42.1765 23.9797 41.4027C23.0797 40.8052 24.7672 40.2352 24.2447 39.459C23.981 39.0665 23.6372 38.6215 24.0597 38.244C24.2406 38.0823 24.4381 37.9819 24.6522 37.9427C26.1322 37.6777 26.861 36.5052 27.5972 35.4252C27.9135 34.9627 28.406 34.849 28.9885 34.884C31.831 35.0552 34.5623 33.7327 36.926 35.7177ZM32.7773 74.764C32.7979 74.7428 32.8099 74.7147 32.8109 74.6852C32.8118 74.6558 32.8016 74.6272 32.7823 74.6052C31.3285 72.9377 33.246 70.6339 31.1323 68.9039C29.4773 67.5502 27.8948 66.3889 27.2347 64.2389C27.2189 64.1889 27.1985 64.1869 27.1735 64.2327C26.0827 66.211 24.7064 67.7785 23.0447 68.9352C21.6622 69.8977 20.4756 70.8206 19.4847 71.704C18.5814 72.5098 18.0293 72.9806 17.8285 73.1165C17.1727 73.559 16.461 73.8969 15.6935 74.1302C15.6851 74.1326 15.6775 74.137 15.6712 74.1431C15.665 74.1492 15.6604 74.1567 15.6578 74.165C15.6552 74.1733 15.6547 74.1821 15.6563 74.1907C15.658 74.1992 15.6617 74.2072 15.6672 74.214C17.8464 76.9465 20.3414 79.3256 23.1522 81.3515C23.2581 81.4281 23.3439 81.4881 23.4097 81.5315C23.4464 81.5556 23.4843 81.5585 23.5235 81.5402C27.2135 79.8327 30.0298 77.5615 32.7773 74.764Z" fill="black"/>
<path d="M32.0986 35.3089C33.7849 34.9114 35.3011 35.1339 36.6511 36.2801C36.6549 36.2827 36.6581 36.2861 36.6606 36.29C36.6631 36.2938 36.6648 36.2981 36.6656 36.3027C36.6664 36.3072 36.6663 36.3118 36.6653 36.3163C36.6644 36.3208 36.6625 36.3251 36.6599 36.3289C36.6572 36.3326 36.6539 36.3359 36.65 36.3383C36.6462 36.3408 36.6418 36.3425 36.6373 36.3433C36.6328 36.3441 36.6281 36.3441 36.6236 36.3431C36.6192 36.3421 36.6149 36.3402 36.6111 36.3376C35.3574 35.6226 33.7211 35.6401 32.2649 35.9076C31.1286 36.1176 30.1761 36.0326 29.1086 35.7064C29.0603 35.6922 29.0249 35.6697 29.0024 35.6389C28.9977 35.6329 28.995 35.6256 28.9947 35.6181C28.9943 35.6105 28.9964 35.603 29.0005 35.5967C29.0047 35.5903 29.0107 35.5854 29.0177 35.5827C29.0248 35.58 29.0325 35.5795 29.0399 35.5814C30.1649 35.8114 31.0249 35.5626 32.0986 35.3089Z" fill="white"/>
<path d="M56.0584 38.2577C56.0284 38.551 55.9154 38.8214 55.7196 39.0689C55.6679 39.1339 55.6517 39.126 55.6709 39.0452C55.7092 38.8827 55.7479 38.7227 55.7871 38.5652C55.9146 38.0527 55.7784 36.8252 56.2721 36.7639C56.313 36.7589 56.3279 36.776 56.3171 36.8152C56.1996 37.2543 56.1134 37.7352 56.0584 38.2577Z" fill="white"/>
<path d="M26.0944 39.6815C26.2728 40.104 26.2415 40.5048 26.0007 40.884C25.9765 40.9223 25.9803 40.9577 26.0119 40.9902C26.6136 41.6011 26.8707 42.3202 26.7832 43.1477C26.7282 43.6711 26.7019 43.9665 26.7044 44.034C26.7578 45.1956 27.2674 46.1381 28.2332 46.8615C28.2367 46.8635 28.2392 46.8668 28.2403 46.8706C28.2413 46.8745 28.2408 46.8786 28.2388 46.8821C28.2368 46.8856 28.2335 46.8881 28.2297 46.8892C28.2258 46.8902 28.2217 46.8897 28.2182 46.8877C27.0669 46.369 26.4194 45.444 26.2994 44.2065C26.2557 43.7577 26.2594 43.264 26.1469 42.8602C25.9378 42.1061 25.5353 41.4644 24.9394 40.9352C24.9061 40.9052 24.9019 40.8719 24.9269 40.8352C25.3253 40.2494 25.3036 39.6869 24.8619 39.1477C24.8261 39.1036 24.8369 39.0827 24.8944 39.0852C25.8832 39.1315 26.4607 38.7715 27.0032 38.0027C27.4807 37.3261 28.179 36.979 29.0982 36.9615C29.1094 36.961 29.1203 36.9647 29.1288 36.9718C29.1372 36.979 29.1427 36.9891 29.1441 37.0003C29.1455 37.0115 29.1427 37.0229 29.1363 37.0323C29.1299 37.0418 29.1204 37.0486 29.1095 37.0515C28.6486 37.1623 28.2811 37.4002 28.0069 37.7652C27.9561 37.8336 27.8499 38.0561 27.6882 38.4327C27.4115 39.0794 26.8965 39.4661 26.1432 39.5927C26.1335 39.5942 26.1243 39.5979 26.1163 39.6035C26.1082 39.6091 26.1016 39.6165 26.0969 39.6251C26.0922 39.6336 26.0895 39.6432 26.0891 39.653C26.0887 39.6628 26.0905 39.6725 26.0944 39.6815Z" fill="white"/>
<path d="M59.4586 39.3277C60.2386 38.7093 61.0082 38.1735 61.7674 37.7202C61.9557 37.6068 62.1645 37.5814 62.3936 37.6439C62.4148 37.6498 62.4333 37.663 62.4457 37.6811C62.4582 37.6993 62.4639 37.7212 62.4618 37.7431C62.4597 37.765 62.45 37.7855 62.4343 37.801C62.4187 37.8164 62.398 37.8259 62.3761 37.8277C62.1474 37.8464 61.9211 37.9264 61.7124 38.0589C61.0949 38.4548 60.4774 38.8498 59.8599 39.2439C59.7107 39.3398 59.5924 39.3985 59.5049 39.4202C59.3449 39.4618 59.3294 39.431 59.4586 39.3277Z" fill="white"/>
<path d="M64.186 39.9814C64.2142 39.9894 64.2384 40.0078 64.2538 40.0329C64.2692 40.058 64.2745 40.0879 64.2688 40.1166C64.2631 40.1453 64.2467 40.1707 64.223 40.1876C64.1993 40.2045 64.17 40.2116 64.141 40.2076C63.981 40.1876 63.8048 40.1601 63.6335 40.2089C62.9219 40.4114 62.2048 40.5893 61.4823 40.7426C61.3131 40.7785 61.1452 40.786 60.9785 40.7651C60.896 40.7543 60.8939 40.7351 60.9723 40.7076C61.8956 40.3835 62.8369 40.1289 63.796 39.9439C63.8952 39.9247 64.0252 39.9372 64.186 39.9814Z" fill="white"/>
<path d="M55.1907 43.0564C54.954 43.4764 54.6065 43.7472 54.1482 43.8689C53.0057 44.1714 52.0619 44.7314 51.1944 45.5939C51.1932 45.5946 51.1918 45.5949 51.1904 45.5949C51.189 45.5949 51.1876 45.5944 51.1864 45.5937C51.1853 45.5929 51.1843 45.5918 51.1838 45.5905C51.1832 45.5892 51.183 45.5878 51.1832 45.5864C51.7682 44.0689 53.1619 43.7176 54.5419 43.1789C55.4982 42.8064 54.6932 41.2901 55.2757 40.5164C55.3007 40.483 55.3111 40.4872 55.3069 40.5289C55.2553 41.0464 55.2744 41.6376 55.3644 42.3026C55.3969 42.5434 55.339 42.7947 55.1907 43.0564Z" fill="white"/>
<path d="M61.8421 42.6615C62.2584 42.7415 62.9471 42.6977 63.4934 42.7427C63.8534 42.774 64.1159 42.7665 64.2121 43.1127C64.2151 43.1229 64.2151 43.1338 64.2123 43.144C64.2095 43.1542 64.2039 43.1635 64.1961 43.1708C64.1883 43.178 64.1787 43.183 64.1683 43.1851C64.1579 43.1872 64.1471 43.1864 64.1371 43.1827C63.9384 43.114 63.7596 43.0152 63.5459 43.0227C62.8525 43.0469 62.2713 42.9798 61.8021 42.8215C61.0288 42.5606 61.0421 42.5073 61.8421 42.6615Z" fill="white"/>
<path d="M62.281 44.869C62.591 44.9327 63.2847 45.064 63.2485 45.4527C63.2443 45.5002 63.2214 45.5123 63.1797 45.489C62.446 45.089 61.6585 45.074 60.9485 44.5852C60.9426 44.5814 60.9384 44.5755 60.9366 44.5688C60.9347 44.5621 60.9354 44.5549 60.9385 44.5486C60.9415 44.5423 60.9468 44.5374 60.9532 44.5347C60.9596 44.532 60.9669 44.5317 60.9735 44.534C61.3985 44.6648 61.8343 44.7765 62.281 44.869Z" fill="white"/>
<path d="M44.2447 49.9864C43.1897 49.9064 42.391 49.7552 41.361 50.3714C41.3534 50.3757 41.3446 50.3775 41.3358 50.3765C41.3271 50.3754 41.319 50.3716 41.3127 50.3656C41.3064 50.3596 41.3024 50.3518 41.3012 50.3434C41.3 50.3349 41.3017 50.3263 41.306 50.3189C42.026 49.0227 44.5785 49.3627 45.8035 49.4677C46.046 49.4889 46.261 49.4664 46.4935 49.4177C46.5269 49.4103 46.5573 49.3934 46.581 49.3689C47.6935 48.2164 48.4873 47.3027 50.0123 46.7677C50.0177 46.7652 50.024 46.765 50.0296 46.7671C50.0352 46.7692 50.0398 46.7734 50.0423 46.7789C50.0447 46.7844 50.045 46.7906 50.0428 46.7962C50.0407 46.8019 50.0365 46.8064 50.031 46.8089C48.9993 47.4464 48.1648 48.2789 47.5273 49.3064C47.1085 49.9789 46.7698 50.4202 45.9735 50.2714C45.716 50.2239 45.5118 50.1956 45.361 50.1864C44.971 50.1627 44.5835 50.0114 44.2447 49.9864Z" fill="white"/>
<path d="M30.4982 49.634C31.1082 50.684 31.1145 52.0027 29.8607 52.6115C29.7707 52.6556 29.7611 52.6419 29.8319 52.5702C30.6682 51.7265 30.6232 50.749 30.4395 49.654C30.4379 49.6465 30.4391 49.6387 30.4428 49.632C30.4466 49.6254 30.4527 49.6203 30.4599 49.6179C30.4672 49.6154 30.4751 49.6157 30.4821 49.6187C30.4892 49.6216 30.4949 49.6271 30.4982 49.634Z" fill="white"/>
<path d="M32.2884 52.9827C34.9084 59.3514 39.1909 64.6714 44.8684 68.5414C44.8792 68.5489 44.873 68.5585 44.8496 68.5702C44.8396 68.5743 44.83 68.5743 44.8209 68.5702C43.465 67.9385 42.1321 67.1331 40.8221 66.1539C36.438 62.8789 33.5942 58.5977 32.2909 53.3102C32.2659 53.2102 32.2796 53.0889 32.2759 52.9852C32.2755 52.9835 32.2759 52.9818 32.2768 52.9804C32.2778 52.979 32.2792 52.978 32.2809 52.9777C32.2825 52.9773 32.2842 52.9777 32.2857 52.9786C32.2871 52.9795 32.288 52.981 32.2884 52.9827Z" fill="white"/>
<path d="M15.6072 67.7652C14.3122 67.8027 13.3434 68.1902 12.1997 68.8502C12.1901 68.8555 12.1797 68.8589 12.1689 68.8602C12.1581 68.8614 12.1472 68.8605 12.1368 68.8575C12.1264 68.8544 12.1168 68.8493 12.1085 68.8425C12.1001 68.8357 12.0933 68.8273 12.0884 68.8177L11.8422 68.3477C11.8188 68.3027 11.828 68.2661 11.8697 68.2377C12.6072 67.7452 13.4013 67.3986 14.2522 67.1977C15.2109 66.9727 16.6384 67.3127 17.4297 66.6427C17.598 66.4994 17.7538 66.2473 17.8972 65.8865C18.3647 64.714 18.9559 63.3802 19.8009 62.5327C20.5547 61.7765 21.2122 61.184 21.6822 60.3077C22.1409 59.4527 22.3722 58.3252 22.6559 57.6665C23.2184 56.3552 24.2259 55.1602 25.6247 54.8152C25.6356 54.812 25.6473 54.8127 25.6577 54.8174C25.668 54.822 25.6764 54.8302 25.6813 54.8405C25.6861 54.8508 25.6871 54.8625 25.684 54.8734C25.681 54.8844 25.6741 54.8939 25.6647 54.9002C24.3347 55.9127 23.4559 57.1265 23.0022 58.7265C22.6597 59.9352 22.3709 60.8665 21.4972 61.749C20.7547 62.499 20.0509 63.0552 19.4372 64.0477C19.103 64.5886 18.7634 65.3311 18.4184 66.2752C18.1276 67.0711 17.6055 67.5502 16.8522 67.7127C16.7897 67.7261 16.3747 67.7436 15.6072 67.7652Z" fill="white"/>
<path d="M32.5286 57.5702C32.1394 56.5627 31.8481 55.7548 31.6548 55.1464C31.654 55.1439 31.6519 55.1398 31.6486 55.1339C31.6419 55.1223 31.6419 55.1073 31.6486 55.0889C31.6602 55.0573 31.6723 55.0573 31.6848 55.0889C32.8856 58.1556 34.2381 61.1539 35.7423 64.0839C37.6748 67.8477 39.9911 71.6452 42.8123 74.8152C42.8215 74.8252 42.8265 74.836 42.8273 74.8477C42.8273 74.8509 42.8264 74.8541 42.8247 74.8569C42.823 74.8597 42.8206 74.8619 42.8178 74.8633C42.8149 74.8646 42.8118 74.865 42.8088 74.8645C42.8059 74.8639 42.8031 74.8624 42.8011 74.8602C40.5786 72.6427 38.7161 70.0527 37.1186 67.2639C35.3802 64.2306 33.8502 60.9993 32.5286 57.5702Z" fill="white"/>
<path d="M44.2908 56.7752L44.842 63.584C44.8421 63.593 44.8389 63.6018 44.8331 63.6088C44.8273 63.6158 44.8192 63.6205 44.8103 63.6221C44.8013 63.6238 44.7921 63.6222 44.7842 63.6178C44.7763 63.6133 44.7702 63.6062 44.767 63.5977C44.122 61.429 43.972 58.9315 44.182 56.774C44.2212 56.3715 44.2575 56.3719 44.2908 56.7752Z" fill="white"/>
<path d="M33.1561 67.474C34.2648 68.7077 34.5773 70.8502 34.3598 72.4127C34.2932 72.8936 34.2707 73.1994 34.2923 73.3302C34.5311 74.7365 36.6148 74.924 37.6973 74.934C37.7123 74.934 37.7194 74.9415 37.7186 74.9565C37.7169 74.9715 37.7107 74.9798 37.6998 74.9815C36.4086 75.159 33.4373 75.1977 33.6398 73.0865C33.7961 71.4627 34.1223 69.7102 32.9886 68.3552C32.8002 68.1302 32.4736 67.8636 32.0086 67.5552C30.4298 66.5077 28.9661 65.2477 28.6011 63.2777C28.5961 63.2502 28.6007 63.2165 28.6148 63.1765C28.6282 63.1365 28.6402 63.1365 28.6511 63.1765C29.1648 65.0715 30.8798 66.0615 32.5736 66.959C32.7244 67.039 32.9186 67.2107 33.1561 67.474Z" fill="white"/>
<path d="M32.7196 76.6026C33.2638 76.2551 33.2871 76.2868 32.7896 76.6976C32.0671 77.2951 31.0096 78.1401 30.5533 78.8214C30.1621 79.4051 31.2946 80.7214 30.3883 80.9114C29.8933 81.0155 29.3979 81.1226 28.9021 81.2326C27.8321 81.4714 28.2496 82.5864 28.5758 83.2164C28.5975 83.2572 28.5854 83.2814 28.5396 83.2889C28.0704 83.3614 27.6579 83.5568 27.3021 83.8751C27.2496 83.9226 27.1925 83.928 27.1308 83.8914L24.8333 82.5276C24.8205 82.5202 24.8098 82.5095 24.8024 82.4967C24.7949 82.4839 24.7908 82.4694 24.7905 82.4546C24.7903 82.4398 24.7939 82.4251 24.8009 82.4121C24.808 82.399 24.8183 82.388 24.8308 82.3801C26.085 81.5901 27.2921 80.7255 28.4521 79.7864C30.1896 78.3789 31.2271 77.5551 32.7196 76.6026Z" fill="white"/>
<path d="M47.3896 77.7164C48.1133 79.1201 48.7296 80.7626 48.9533 82.3339C49.1671 83.8276 50.2946 85.4839 51.3421 86.5739C51.3508 86.5824 51.3562 86.5936 51.3575 86.6057C51.3589 86.6178 51.356 86.6299 51.3493 86.6401C51.3427 86.6502 51.3327 86.6578 51.3212 86.6615C51.3096 86.6651 51.2971 86.6646 51.2858 86.6601C49.7208 86.0485 48.7046 84.9655 48.2371 83.4114C48.1471 83.1122 48.09 82.693 48.0658 82.1539C47.9992 80.6489 47.7667 79.1722 47.3683 77.7239C47.3673 77.7211 47.3675 77.718 47.3688 77.7153C47.3701 77.7126 47.3724 77.7105 47.3752 77.7095C47.378 77.7085 47.3811 77.7087 47.3838 77.71C47.3865 77.7113 47.3886 77.7136 47.3896 77.7164Z" fill="white"/>
</svg>
