<svg width="100" height="100" viewBox="0 0 100 100" fill="none" xmlns="http://www.w3.org/2000/svg">
<rect width="100" height="100" fill="#FDFFFB"/>
<path d="M80.7198 24.4C80.6997 24.411 80.674 24.3652 80.6428 24.2625C80.6841 23.5736 80.768 22.8559 80.3403 22.2399C80.3852 22.1638 80.3509 22.1042 80.2372 22.0611C80.1859 22.0419 80.1235 22.0359 80.0502 22.0432C73.1037 22.7243 66.1577 23.4095 59.2121 24.0989C59.1718 24.1025 59.1204 24.1232 59.0581 24.1607C59.0865 24.0269 59.1837 23.9563 59.3496 23.949C59.9207 23.9224 60.3327 23.8963 60.5857 23.8706C65.6237 23.3605 70.6686 22.9012 75.7025 22.3609C76.9427 22.227 78.2861 22.1092 79.7326 22.0075C79.9342 21.9928 80.1139 21.9997 80.2716 22.0281C80.3192 22.0373 80.355 22.0625 80.3788 22.1037C80.7895 22.8114 80.9032 23.5768 80.7198 24.4Z" fill="#CFA9B4"/>
<path d="M80.3406 22.2399C80.2334 22.954 80.1866 23.6654 80.2004 24.3739C80.2041 24.5674 80.106 24.6723 79.9061 24.6888C78.3597 24.8098 76.8115 24.9345 75.2614 25.0628C74.0294 25.1659 73.9441 25.8356 73.5798 26.9878C69.0322 41.3777 64.486 55.7679 59.9412 70.1587C59.6785 70.9878 59.2977 71.7688 60.0457 72.4522C62.0504 74.2864 64.0597 76.1161 66.0737 77.9412C66.103 77.9678 66.1365 77.987 66.174 77.9989L66.2813 78.0333C66.2052 77.9921 66.2089 78.0049 66.2923 78.0718C66.0613 78.1351 65.8665 78.1419 65.7079 78.0924C65.3532 77.9925 65.0089 77.9655 64.6753 78.0113L64.1005 77.9976C63.8952 77.9087 63.6688 77.8573 63.4213 77.8436C60.9142 77.7024 58.4108 77.5136 55.911 77.2771C55.3308 77.2221 54.7505 77.1813 54.1703 77.1547C53.4507 77.1217 52.8709 77.0855 52.4309 77.0461C50.4198 76.8637 48.3898 76.6996 46.3411 76.5538C46.318 76.5524 46.296 76.5441 46.2777 76.53C46.2595 76.516 46.2458 76.4967 46.2386 76.4748C46.2313 76.453 46.2308 76.4294 46.2371 76.4072C46.2433 76.385 46.2561 76.3652 46.2737 76.3503C47.4617 75.331 48.6593 74.302 49.8666 73.2634C50.1837 72.9903 50.4124 72.7584 50.5527 72.5677C51.1866 71.7014 51.2031 70.3732 50.8511 69.4079C50.7035 69.0009 50.3185 68.3794 49.6961 67.5434C47.5593 64.6724 45.4262 61.8111 43.2968 58.9593L42.7386 58.2718C42.7147 58.2984 42.6881 58.2778 42.6588 58.2099C42.745 58.165 42.7312 58.0917 42.6176 57.9899C42.5525 57.9322 42.5048 57.8827 42.4746 57.8414C41.5771 56.6259 40.6747 55.4132 39.7672 54.2032C39.7305 54.1537 39.6728 54.1413 39.5939 54.1661C39.5939 54.0469 39.5284 53.9044 39.3973 53.7384C39.0297 53.2709 38.6699 52.808 38.3179 52.3497C38.3099 52.3392 38.2991 52.3311 38.2867 52.3263C38.2743 52.3216 38.2608 52.3204 38.2477 52.3228C38.2345 52.3252 38.2222 52.3311 38.2121 52.34C38.2019 52.3489 38.1943 52.3603 38.1901 52.3731C36.3668 58.0922 34.5372 63.8131 32.7011 69.5358C32.4371 70.3594 32.1882 70.9919 32.8578 71.7152C34.1384 73.0957 35.4062 74.4565 36.6611 75.7976L31.0346 75.3617C31.0135 75.3608 30.9956 75.3667 30.981 75.3796C30.9654 75.3933 30.9571 75.4048 30.9562 75.4139L30.5726 75.3947C30.552 75.3617 30.5011 75.3328 30.4571 75.3287C28.8511 75.1756 27.2387 75.0597 25.6198 74.9808C25.4723 75.0157 25.3155 75.0102 25.1496 74.9643C24.6344 74.8149 24.1266 74.7704 23.6261 74.8309L22.9853 74.7814C22.9248 74.7769 22.9152 74.7526 22.9565 74.7086L23.2548 74.3854L25.0918 72.3834L25.6803 71.7413L25.8302 71.6561C26.3426 71.0584 26.5855 70.381 26.559 69.6238L26.5603 68.9281C26.6593 68.2617 26.5933 67.6182 26.3623 66.9976L25.998 65.7491C25.657 64.441 25.1826 62.7947 24.5748 60.8101C24.5253 60.6478 24.469 60.5232 24.4057 60.4361C24.3544 60.3673 24.3493 60.3394 24.3906 60.3522L23.4377 57.2062C23.4029 56.7644 23.2709 56.3862 23.0417 56.0718C23.006 55.9994 23.0092 55.9091 23.0513 55.8009C23.0648 55.7643 23.0662 55.7243 23.0555 55.6868C21.4238 50.1722 19.7834 44.6598 18.1343 39.1497C17.995 38.6859 17.8273 38.3307 17.6311 38.0841C17.5449 37.8659 17.4239 37.7449 17.2681 37.7211C16.4339 37.5937 15.3999 37.6065 14.1661 37.7596C13.9525 37.7788 13.7848 37.7385 13.6629 37.6386C13.6244 37.6074 13.6056 37.5671 13.6065 37.5176L13.6326 36.0243L14.1812 35.9789L25.8728 35.6159L25.8646 37.4296C25.8643 37.4705 25.8483 37.5097 25.8199 37.5391C25.7914 37.5685 25.7528 37.5859 25.712 37.5877C25.173 37.6124 24.6518 37.6225 24.1486 37.6179C23.6298 37.6124 23.2548 37.6619 23.0238 37.7664C22.0778 38.1941 22.148 39.1043 22.4202 40.0173C24.5111 47.0271 26.597 54.0304 28.6778 61.0273C28.6817 61.04 28.6896 61.051 28.7002 61.0589C28.7109 61.0667 28.7237 61.071 28.737 61.071C28.7502 61.071 28.7631 61.0667 28.7737 61.0589C28.7843 61.051 28.7922 61.04 28.7961 61.0273L29.8755 57.3148L34.3758 41.5573L34.5669 40.7983C35.2251 38.5919 35.7297 36.8402 36.0808 35.5431C36.1028 35.4633 36.0781 35.4354 36.0066 35.4592C36.0671 35.428 36.0964 35.3904 36.0946 35.3464C36.4548 34.548 36.6239 33.7799 36.6019 33.0419C36.4984 32.5488 36.1858 32.3054 35.6642 32.3118C34.3103 32.3265 32.9596 32.4085 31.6121 32.5579C31.5983 32.5534 31.585 32.5488 31.5722 32.5442C31.5025 32.4479 31.4764 32.3361 31.4938 32.2087C31.5571 31.7513 31.5685 31.2361 31.5282 30.6632C31.498 30.4432 31.828 30.3327 32.5182 30.3318L33.4271 30.2521L34.0417 30.2177L37.8326 29.9798C37.8417 29.9798 37.8468 29.9748 37.8477 29.9647C37.8514 29.9124 37.8559 29.9056 37.8614 29.9441C37.9119 29.9083 37.9829 29.895 38.0746 29.9042C38.114 29.9399 38.1694 29.9546 38.2409 29.9482C40.1054 29.796 43.3926 29.5545 48.1024 29.2236C48.7377 29.1796 49.7428 29.0448 50.5871 29.0737C50.5953 29.1039 50.6141 29.1319 50.6434 29.1576C50.6709 29.1805 50.6838 29.2103 50.6819 29.2469L50.5926 31.4882C50.5919 31.5048 50.585 31.5204 50.5733 31.5322C50.5616 31.5439 50.5459 31.5508 50.5293 31.5514C48.8857 31.6248 47.2421 31.6977 45.5986 31.7701C44.8176 31.8044 44.5577 32.2224 44.3281 32.9498C43.053 36.996 41.7729 41.0412 40.4877 45.0856C40.3804 45.4252 40.3488 45.7112 40.5537 45.9848C44.9253 51.8579 49.2923 57.731 53.6547 63.6041C53.6632 63.6157 53.6749 63.6247 53.6883 63.63C53.7017 63.6353 53.7163 63.6368 53.7305 63.6342C53.7446 63.6316 53.7578 63.6251 53.7685 63.6154C53.7792 63.6057 53.7869 63.5932 53.7908 63.5793C53.9191 63.1182 54.0507 62.6516 54.1854 62.1796C54.2175 62.0686 54.1955 61.9701 54.1194 61.8839C54.1543 61.8839 54.1689 61.8711 54.1634 61.8454L54.1964 61.8592C54.2166 61.8674 54.2317 61.8619 54.2418 61.8427C54.2565 61.8179 54.2624 61.7799 54.2597 61.7286C54.3458 61.7221 54.3711 61.7125 54.3353 61.6997C54.6305 60.6794 54.9128 59.6473 55.1823 58.6032L55.3459 57.9886C55.3093 57.9831 55.2987 57.9478 55.3143 57.8827C55.3473 57.8799 55.3734 57.8758 55.3927 57.8703C55.4138 57.8639 55.4289 57.8456 55.438 57.8153C57.3805 51.0558 59.3215 44.2963 61.2612 37.5368C61.274 37.4928 61.2754 37.4044 61.2653 37.2714C61.3707 37.1193 61.4129 36.9607 61.3918 36.7957C61.4578 36.7544 61.4995 36.7036 61.5169 36.6431C62.2933 34.0663 63.1839 30.9089 64.1885 27.1707C64.1638 27.1469 64.1386 27.123 64.1129 27.0992C64.101 27.068 64.1088 27.0295 64.1363 26.9837C64.1679 26.3361 63.7018 26.1381 63.116 26.1601C61.785 26.2096 60.4572 26.3228 59.1327 26.4997C59.1238 26.5009 59.1156 26.5048 59.109 26.511C59.1023 26.5171 59.0976 26.5252 59.0955 26.5341C59.0919 26.5469 59.0905 26.5611 59.0914 26.5767C59.0218 26.4933 58.9874 26.4342 58.9883 26.3993C59.0057 25.655 59.0291 24.9088 59.0584 24.1608C59.1208 24.1232 59.1721 24.1026 59.2124 24.0989C66.158 23.4096 73.104 22.7244 80.0505 22.0433C80.1238 22.036 80.1862 22.0419 80.2375 22.0612C80.3512 22.1043 80.3856 22.1639 80.3406 22.2399Z" fill="#BD2031"/>
<path d="M80.3404 22.24C80.768 22.856 80.6841 23.5737 80.6429 24.2626L80.6264 25.5015C80.6254 25.5547 80.5989 25.5831 80.5466 25.5867C79.0259 25.7096 77.5051 25.8352 75.9844 25.9635C74.5984 26.0804 74.5489 27.1611 74.1969 28.2707C73.4076 30.7549 72.6129 33.2473 71.8126 35.748C71.8074 35.7642 71.8057 35.7812 71.8076 35.7981C71.8094 35.815 71.8148 35.8312 71.8234 35.8459C71.8319 35.8605 71.8435 35.8732 71.8573 35.8831C71.871 35.893 71.8868 35.8999 71.9034 35.9034C72.0849 35.9409 72.1747 35.9254 72.1729 35.8566C72.314 35.9299 72.435 35.9212 72.5359 35.8305C72.5029 35.8644 72.5029 35.8933 72.5359 35.9171C72.5468 35.9252 72.5597 35.93 72.5733 35.9308C72.5868 35.9317 72.6003 35.9286 72.6123 35.922C72.6242 35.9154 72.6341 35.9055 72.6408 35.8934C72.6475 35.8813 72.6507 35.8676 72.65 35.8539C72.5904 34.8868 72.8315 34.0599 73.3732 33.3734C73.8682 32.7477 74.9462 31.8636 75.7176 31.1844C75.8414 31.0757 75.9115 30.8626 75.9802 30.787C76.2048 30.5441 76.3157 30.5881 76.313 30.919C76.3061 31.634 76.1975 32.129 75.8689 32.8247C75.549 33.5031 75.2859 34.2016 75.0796 34.9202L75.0095 34.8515C74.8967 34.3767 74.9678 33.8624 75.2226 33.3087C75.5114 32.6831 75.7822 32.2349 75.9142 31.7385C75.9298 31.6817 75.9097 31.6624 75.8537 31.6807C75.7346 31.7211 75.6924 31.7871 75.7272 31.8787L74.3839 33.1534C73.326 34.0306 73.0006 35.1233 73.4076 36.4314C73.4223 36.4781 73.4117 36.5175 73.376 36.5496C73.3375 36.5844 73.2907 36.6101 73.2357 36.6266C73.1606 36.6349 73.1546 36.6271 73.2179 36.6032C72.7201 36.3988 72.2187 36.3058 71.7136 36.3241C71.6632 36.3269 71.6302 36.3521 71.6146 36.3997C68.8665 45.0027 66.1394 53.612 63.4334 62.2277C63.3857 62.3781 63.3738 62.4794 63.3976 62.5316C63.7597 63.3264 64.0054 64.1605 64.1346 65.0341L64.1456 66.0392C64.0585 66.9568 63.9518 67.8726 63.8253 68.7865C63.6685 69.9167 64.6021 70.1257 64.862 71.1542C64.8674 71.1764 64.879 71.1966 64.8956 71.2124C64.9121 71.2282 64.9329 71.2391 64.9555 71.2436C65.0628 71.2665 65.1723 71.2638 65.2841 71.2354C65.8974 71.2674 66.3938 71.2665 66.7733 71.2326C66.8026 71.2299 66.853 71.1946 66.9245 71.1267C66.9878 71.0048 67.0533 70.9521 67.1211 70.9686C67.3915 71.184 67.6413 71.2711 67.8705 71.2299C67.8687 71.2519 67.8847 71.2491 67.9186 71.2216C67.9351 71.2077 67.9457 71.1881 67.9485 71.1668C67.9513 71.1454 67.946 71.1238 67.9338 71.1061C67.4113 70.3737 66.8869 69.6362 66.3608 68.8937C66.1747 68.6316 66.0825 68.4116 66.0844 68.2337C66.1082 65.9998 66.1165 63.7654 66.1091 61.5306C66.1082 61.163 66.1811 60.9229 66.3278 60.8101C66.8457 60.4104 67.3035 59.953 67.7014 59.4379C67.7472 59.3792 67.7972 59.3329 67.8513 59.299C67.9347 59.2467 67.9961 59.2174 68.0355 59.211C69.3225 59.002 70.2997 58.3186 70.967 57.1609C71.7223 55.8509 72.1852 54.4778 72.3557 53.0414C72.4199 52.4969 72.4529 52.2191 72.4547 52.2081C72.6032 51.0779 72.3997 49.63 73.7871 49.2711C75.8221 48.7431 77.4831 48.0597 78.8691 46.4166C79.0974 46.1457 79.2747 46.132 79.5979 46.0756C80.1657 45.9752 80.5287 45.7979 80.9715 45.4954C81.1997 45.34 81.4527 45.2575 81.692 45.1241L82.3369 45.0746L83.2457 45.0787C84.9159 44.8092 85.6813 43.8183 85.542 42.106C85.4911 41.4886 85.1694 41.0252 84.5644 40.7874C84.0574 40.5894 83.3053 40.3222 82.308 39.9857C80.4284 39.3519 80.1204 37.563 79.2376 36.144C79.1799 36.0514 79.0699 35.9552 78.9076 35.8552C78.8004 35.7755 78.7069 35.6646 78.6271 35.5225C78.8352 35.4574 79.0795 35.5349 79.36 35.7549L79.701 36.0917C79.9742 36.6051 80.2363 37.1225 80.4875 37.6441C81.0141 38.7345 81.6796 39.1772 82.8676 39.5925C83.628 39.8579 84.9796 40.1947 85.6245 40.8547C85.8472 41.0839 85.9884 41.3905 86.048 41.7746C86.4371 44.2895 84.9136 45.8886 82.3685 45.2877C82.3265 45.277 82.2821 45.2804 82.242 45.2974C81.6901 45.5302 81.312 45.7392 81.1076 45.9244C80.5769 46.4056 80.0324 46.4194 79.4411 46.6476C79.3962 46.6641 79.36 46.6921 79.3325 46.7315C78.2242 48.3306 75.9651 49.3247 74.08 49.7716C73.453 49.9201 73.2137 50.3381 73.1766 50.9789C73.1216 51.9139 73.0474 52.7269 72.9539 53.4181C72.7568 54.8683 72.27 56.2479 71.4936 57.5569C70.7676 58.7792 69.9357 59.4255 68.6309 59.7967C68.1221 59.9425 67.6643 60.663 67.2751 61.037C66.9053 61.3945 66.8228 61.5856 66.8283 62.0806C66.8383 62.9954 66.8255 64.4722 66.7898 66.5109C66.7788 67.1021 66.8296 67.7209 66.8489 68.3094C66.8543 68.467 66.9075 68.619 67.0015 68.7452C67.7312 69.7242 68.4659 70.7147 69.2056 71.7166C69.2753 71.8101 69.3028 71.9197 69.2881 72.0452L65.016 72.0425C64.0865 72.0081 64.0343 71.9284 63.993 71.0841C63.9559 70.3471 62.7926 69.7339 63.0003 68.9996C63.5104 67.1887 63.652 65.3284 63.1336 63.5024C63.1288 63.4867 63.1192 63.4729 63.1061 63.463C63.0929 63.4531 63.0771 63.4476 63.0608 63.4473C63.0445 63.447 63.0286 63.4519 63.0155 63.4613C63.0024 63.4707 62.9927 63.4841 62.9879 63.4996C62.2701 65.7766 61.5363 68.0614 60.7865 70.354C60.6591 70.7445 60.7214 71.0543 60.9735 71.2835C62.9691 73.0939 65.0155 74.9612 67.1129 76.8852C67.1245 76.896 67.1316 76.9107 67.1329 76.9265C67.1342 76.9423 67.1295 76.958 67.1198 76.9705L66.281 78.0334L66.1738 77.999C66.1362 77.9871 66.1027 77.9678 66.0734 77.9412C64.0595 76.1162 62.0501 74.2865 60.0454 72.4522C59.2974 71.7689 59.6783 70.9879 59.9409 70.1587C64.4857 55.768 69.0319 41.3777 73.5795 26.9879C73.9439 25.8356 74.0291 25.166 75.2611 25.0629C76.8112 24.9345 78.3594 24.8099 79.9059 24.6889C80.1057 24.6724 80.2038 24.5674 80.2001 24.374C80.1864 23.6654 80.2331 22.9541 80.3404 22.24Z" fill="#342D37"/>
<path d="M34.3277 29.8327C34.3708 29.7538 34.3763 29.6938 34.3442 29.6526C32.8564 27.7496 31.8609 25.9703 32.0507 23.4527C32.0543 23.4004 32.0314 23.3665 31.9819 23.3509L31.8101 23.2973C31.8926 23.2469 31.9439 23.2235 31.9641 23.2272C32.0104 23.2358 32.052 23.2612 32.0809 23.2984C32.1098 23.3357 32.124 23.3823 32.1208 23.4293C31.9586 25.9208 32.9417 27.7276 34.4556 29.6526C34.4662 29.6662 34.4731 29.6823 34.4759 29.6993C34.4787 29.7164 34.4771 29.7338 34.4714 29.7501C34.4656 29.7664 34.4559 29.781 34.443 29.7925C34.4302 29.8041 34.4146 29.8122 34.3978 29.8162L34.3277 29.8327Z" fill="#A49C9F"/>
<path d="M31.8096 23.2973L31.9815 23.351C32.031 23.3666 32.0539 23.4005 32.0502 23.4527C31.8605 25.9703 32.856 27.7496 34.3437 29.6526C34.3758 29.6938 34.3703 29.7539 34.3272 29.8327L34.2269 29.8891C33.8446 29.8396 33.4752 29.8662 33.1186 29.9688L32.4765 30.0252L31.217 30.0898C31.1908 30.0914 31.166 30.1025 31.1473 30.1209C31.1286 30.1394 31.1172 30.164 31.1152 30.1902L31.0836 30.6027C31.0821 30.6216 31.0759 30.6398 31.0655 30.6556C31.0552 30.6715 31.041 30.6845 31.0242 30.6934C31.0075 30.7023 30.9888 30.7068 30.9699 30.7066C30.951 30.7064 30.9324 30.7014 30.9159 30.6921C30.1225 30.248 29.4845 29.643 29.1009 28.807C28.473 27.4366 28.6082 26.0707 29.5065 24.7095C29.6138 24.5234 29.7664 24.3676 29.9644 24.242C30.5272 23.8469 31.1249 23.5361 31.7574 23.3097C31.751 23.2776 31.7684 23.2735 31.8096 23.2973Z" fill="#0B8C4C"/>
<path d="M31.7578 23.3097C31.1253 23.5361 30.5277 23.8469 29.9648 24.2419C30.4745 23.7204 31.0722 23.4096 31.7578 23.3097Z" fill="#A49C9F"/>
<path d="M59.0583 24.1609C59.0289 24.9089 59.0056 25.6551 58.9882 26.3994C58.9872 26.4342 59.0216 26.4933 59.0913 26.5768L60.1459 27.2808C60.1881 27.3083 60.2344 27.3202 60.2848 27.3165L63.9024 27.036C63.951 27.0323 63.9987 27.0236 64.0454 27.0099L64.1362 26.9838C64.1087 27.0296 64.1009 27.0681 64.1128 27.0993C63.0329 27.2102 61.9494 27.3014 60.8623 27.3729C60.0002 27.4293 59.7073 27.0869 59.0418 26.6551C59.0042 26.6304 58.9817 26.596 58.9744 26.552C58.8442 25.7408 58.8722 24.9437 59.0583 24.1609Z" fill="#A49C9F"/>
<path d="M80.6426 24.2626C80.6738 24.3652 80.6995 24.4111 80.7196 24.4001L80.6481 25.6114C80.6454 25.6591 80.6206 25.6852 80.5739 25.6898C79.0733 25.8365 77.5727 25.9543 76.0721 26.0432C75.3746 26.0844 74.9176 26.4342 74.7013 27.0923C73.7892 29.8588 72.8922 32.629 72.0104 35.4028C71.9545 35.5779 72.0086 35.7292 72.1726 35.8566C72.1745 35.9253 72.0846 35.9409 71.9031 35.9033C71.8865 35.8999 71.8708 35.893 71.857 35.8831C71.8433 35.8732 71.8317 35.8605 71.8232 35.8459C71.8146 35.8312 71.8092 35.8149 71.8074 35.798C71.8055 35.7812 71.8072 35.7641 71.8124 35.7479C72.6126 33.2473 73.4074 30.7549 74.1966 28.2707C74.5486 27.1611 74.5981 26.0803 75.9841 25.9634C77.5049 25.8351 79.0256 25.7095 80.5464 25.5867C80.5986 25.583 80.6252 25.5546 80.6261 25.5014L80.6426 24.2626Z" fill="#A49C9F"/>
<path d="M24.1344 24.3286C23.3589 24.5926 22.7085 24.7136 22.1255 25.3255C21.0502 26.4502 21.2166 28.1992 22.1227 29.3872C22.4115 29.7667 22.7314 30.0064 23.0825 30.1064C23.4556 30.2127 23.7214 30.3089 23.88 30.3951C22.5747 30.2145 21.751 29.4647 21.4091 28.1456C20.899 26.1766 22.0925 24.5294 24.1344 24.3286Z" fill="#A49C9F"/>
<path d="M24.1344 24.3286L24.5263 24.3093C24.4429 25.0472 24.5409 25.7306 24.8205 26.3595C25.1725 27.1515 26.2753 28.3188 27.0082 28.7643C28.4015 29.6104 29.76 30.4973 31.0837 31.425C31.1359 31.6321 31.1157 31.8196 31.0232 31.9873C30.8627 32.5364 30.9141 32.8224 31.1771 32.8453L31.6955 33.0186C31.9449 33.1497 32.2946 33.2665 32.7446 33.3692C33.5119 33.5438 33.8983 34.0718 34.2296 34.8597C34.5019 35.6875 34.561 36.5225 34.407 37.365C34.4006 37.4044 34.3736 37.4438 34.3259 37.4832C34.2379 37.9168 34.0651 38.2605 33.8075 38.5145L33.7278 38.0937L33.6686 37.4915C33.4679 36.3475 32.9385 35.3639 32.0805 34.5407L31.503 33.9522C30.0428 32.5891 28.3543 31.611 26.4375 31.018C26.3688 30.996 26.2922 31.0019 26.2079 31.0358L26.0072 30.9258L24.1509 30.4556L23.88 30.3951C23.7215 30.3089 23.4556 30.2127 23.0825 30.1063C22.7315 30.0064 22.4115 29.7667 22.1228 29.3872C21.2167 28.1992 21.0503 26.4502 22.1255 25.3255C22.7085 24.7136 23.3589 24.5926 24.1344 24.3286Z" fill="#0B8C4C"/>
<path d="M24.5263 24.3093C24.4924 25.5441 24.8595 26.5726 25.6277 27.3948C26.0677 27.8651 26.5884 28.3014 27.1897 28.7038C28.385 29.505 29.5877 30.2947 30.7977 31.073C30.86 31.1133 30.9123 31.1665 30.9544 31.2325C31.0003 31.3058 31.0433 31.37 31.0837 31.425C29.76 30.4973 28.4015 29.6104 27.0082 28.7643C26.2753 28.3188 25.1726 27.1515 24.8206 26.3595C24.541 25.7306 24.4429 25.0472 24.5263 24.3093Z" fill="#A49C9F"/>
<path d="M29.5069 24.7095C28.6086 26.0707 28.4734 27.4366 29.1013 28.807C29.4849 29.643 30.1229 30.248 30.9163 30.6921C30.9328 30.7014 30.9514 30.7064 30.9703 30.7066C30.9893 30.7068 31.008 30.7023 31.0247 30.6934C31.0414 30.6845 31.0556 30.6715 31.066 30.6557C31.0764 30.6398 31.0826 30.6216 31.0841 30.6027L31.1157 30.1902C31.1176 30.164 31.129 30.1394 31.1477 30.1209C31.1664 30.1025 31.1912 30.0914 31.2174 30.0898L32.4769 30.0252C32.0837 30.116 31.7014 30.1398 31.3302 30.0967C31.3091 30.0944 31.2878 30.0966 31.2676 30.103C31.2474 30.1095 31.2287 30.1201 31.2129 30.1343C31.1971 30.1484 31.1844 30.1657 31.1757 30.1851C31.167 30.2044 31.1625 30.2254 31.1624 30.2466L31.1611 30.7182C31.1611 30.7732 31.1345 30.7938 31.0813 30.7801C30.4584 30.6206 30.1367 30.2837 29.6774 29.808C28.3822 28.4632 28.2502 26.134 29.5069 24.7095Z" fill="#A49C9F"/>
<path d="M23.975 30.7264C22.4185 30.4679 21.231 30.2135 20.4124 29.9633C18.0694 29.2469 16.3548 28.0438 15.7951 25.544C15.7907 25.5249 15.7824 25.5069 15.7707 25.4912C15.759 25.4754 15.7441 25.4623 15.7271 25.4526C15.71 25.4429 15.6911 25.4368 15.6716 25.4348C15.652 25.4328 15.6323 25.4349 15.6136 25.4409C14.2166 25.9057 13.1675 27.0098 13.0768 28.5127C13.019 29.4458 13.2963 30.3483 13.9086 31.22C13.1561 30.3455 12.871 29.3106 13.0534 28.1153C13.2761 26.6537 14.2758 25.8342 15.5971 25.3295C15.6178 25.3217 15.6398 25.3181 15.6618 25.319C15.6839 25.3198 15.7056 25.325 15.7257 25.3344C15.7458 25.3437 15.7639 25.357 15.7788 25.3734C15.7938 25.3898 15.8054 25.409 15.813 25.4299C16.0619 26.1202 16.2901 26.8778 16.7013 27.4512C17.738 28.899 19.3825 29.6677 21.1012 30.0444C22.0592 30.2543 23.0171 30.4817 23.975 30.7264Z" fill="#A49C9F"/>
<path d="M23.975 30.7264C24.0823 30.7347 24.1762 30.7626 24.2569 30.8103C24.6703 30.9505 25.3578 31.1627 26.3194 31.4469C28.3095 32.0354 30.0553 33.0745 31.5568 34.564C32.4569 35.4569 33.0908 36.5207 33.4584 37.7554L33.5959 38.4182C33.5501 38.4833 33.5391 38.5726 33.5629 38.6863C33.5672 38.7079 33.564 38.7303 33.554 38.7499C33.5439 38.7695 33.5275 38.7852 33.5074 38.7942C33.4873 38.8033 33.4647 38.8053 33.4434 38.8C33.422 38.7946 33.4031 38.7822 33.3897 38.7647L32.2237 37.2095C30.0952 35.1278 27.3699 34.4375 24.5608 34.069C22.534 33.8041 20.5146 33.4989 18.5025 33.1533C17.0698 32.9067 15.6407 32.3714 14.2153 31.5473L13.9087 31.22C13.2963 30.3483 13.0191 29.4458 13.0768 28.5127C13.1676 27.0098 14.2167 25.9057 15.6137 25.4409C15.6324 25.4349 15.6521 25.4328 15.6716 25.4348C15.6911 25.4368 15.71 25.4429 15.7271 25.4526C15.7442 25.4623 15.759 25.4754 15.7707 25.4912C15.7825 25.5069 15.7908 25.5249 15.7952 25.544C16.3548 28.0438 18.0694 29.2469 20.4124 29.9633C21.231 30.2135 22.4185 30.4679 23.975 30.7264Z" fill="#0B8C4C"/>
<path d="M64.136 26.9837L64.0452 27.0098C63.9985 27.0236 63.9508 27.0323 63.9022 27.0359L60.2846 27.3164C60.2342 27.3201 60.1879 27.3082 60.1457 27.2807L59.0911 26.5767C59.0902 26.5611 59.0916 26.5469 59.0952 26.5341C59.0973 26.5252 59.102 26.5171 59.1086 26.511C59.1153 26.5048 59.1235 26.5009 59.1323 26.4997C60.4569 26.3228 61.7847 26.2096 63.1157 26.1601C63.7015 26.1381 64.1676 26.3361 64.136 26.9837Z" fill="#342D37"/>
<path d="M64.1884 27.1707C63.1837 30.9088 62.2932 34.0663 61.5168 36.643C61.4994 36.7035 61.4576 36.7544 61.3916 36.7957L59.6977 36.9744C59.6922 36.957 59.6867 36.9391 59.6812 36.9208L61.2349 36.6967C61.3632 36.6783 61.4457 36.6064 61.4824 36.4808L64.1884 27.1707Z" fill="#CFA9B4"/>
<path d="M45.3576 39.5828L45.3988 39.6241L44.3167 39.8234C44.3013 39.8264 44.2854 39.8252 44.2706 39.8201C44.2557 39.8149 44.2425 39.806 44.2321 39.794C44.2217 39.7821 44.2145 39.7677 44.2113 39.7521C44.208 39.7365 44.2088 39.7204 44.2136 39.7052C44.8754 37.661 45.524 35.6439 46.1592 33.6538C46.4218 32.8302 46.6927 32.4919 47.559 32.4369C49.0229 32.3462 50.4767 32.2939 51.9205 32.2802C51.9755 32.2799 52.0283 32.2585 52.0679 32.2203C52.1076 32.1822 52.1311 32.1303 52.1336 32.0753L52.234 29.9028C52.2359 29.863 52.2264 29.8234 52.2064 29.7888C52.1864 29.7542 52.1568 29.726 52.1212 29.7076C51.6858 29.483 51.2302 29.2625 50.7545 29.0462C50.7059 29.0233 50.65 29.0324 50.5867 29.0737C49.7425 29.0448 48.7373 29.1796 48.1021 29.2236C43.3923 29.5545 40.1051 29.796 38.2406 29.9482C38.1691 29.9546 38.1136 29.9399 38.0742 29.9042L50.7655 28.9403C50.8109 28.9367 50.8564 28.9489 50.8947 28.9747C51.4392 29.3377 51.8448 29.4312 52.2752 29.6718C52.2969 29.6843 52.315 29.7022 52.3275 29.7237C52.3401 29.7452 52.3467 29.7695 52.3467 29.7942C52.3449 30.6146 52.2793 31.4304 52.1501 32.2417C52.1418 32.2912 52.113 32.3191 52.0635 32.3256C50.7352 32.5057 49.4922 32.4534 47.7322 32.4988C46.8852 32.5208 46.4906 32.8027 46.2445 33.6222C45.6477 35.6077 45.0216 37.5675 44.3662 39.5017C44.3555 39.5335 44.3534 39.5676 44.36 39.6006C44.3667 39.6335 44.3819 39.664 44.4042 39.6891C44.4264 39.7141 44.4549 39.7327 44.4866 39.743C44.5183 39.7534 44.5522 39.755 44.5848 39.7478L45.3576 39.5828Z" fill="#CFA9B4"/>
<path d="M45.3992 39.6241C47.756 39.1538 50.0756 38.7345 52.4791 38.2573C54.878 37.7816 57.2842 37.354 59.6978 36.9745L61.3918 36.7957C61.4129 36.9607 61.3707 37.1193 61.2653 37.2715C61.181 37.3072 61.1223 37.3498 61.0893 37.3993C60.9582 37.3819 60.8267 37.3948 60.6947 37.4378C60.3354 37.4452 59.8404 37.4993 59.2097 37.6001C56.7778 37.9924 55.1635 38.2674 54.367 38.4251C50.9285 39.1071 47.486 39.7854 44.0393 40.4601C43.9963 40.4683 43.9683 40.4935 43.9555 40.5357L42.2931 45.7167C42.2765 45.7682 42.2723 45.8227 42.2809 45.8758C42.2895 45.9289 42.3107 45.979 42.3426 46.022L51.661 58.5867C51.6912 58.628 51.7315 58.6431 51.782 58.6321C52.7344 58.4277 53.6616 58.2013 54.5636 57.9528C54.7295 57.9079 54.9903 57.9198 55.346 57.9886L55.1823 58.6032C54.2299 58.749 53.3233 58.9685 52.4626 59.2618L52.3045 59.2948C52.2394 59.3168 52.2545 59.3929 52.3498 59.5231C52.9338 60.3151 53.5236 61.102 54.1195 61.884C54.1955 61.9701 54.2175 62.0687 54.1855 62.1796C54.0507 62.6517 53.9192 63.1183 53.7908 63.5793C53.7869 63.5932 53.7792 63.6057 53.7685 63.6154C53.7579 63.6251 53.7447 63.6316 53.7305 63.6342C53.7163 63.6368 53.7017 63.6353 53.6883 63.63C53.6749 63.6247 53.6633 63.6157 53.6547 63.6041C49.2923 57.731 44.9253 51.8579 40.5537 45.9848C40.3489 45.7112 40.3805 45.4252 40.4877 45.0856C41.7729 41.0413 43.053 36.996 44.3281 32.9498C44.5577 32.2225 44.8176 31.8045 45.5986 31.7701C47.2422 31.6977 48.8858 31.6248 50.5293 31.5515C50.5459 31.5508 50.5616 31.5439 50.5733 31.5322C50.585 31.5205 50.5919 31.5048 50.5926 31.4882L50.682 29.247C50.6838 29.2103 50.671 29.1805 50.6435 29.1576C50.6141 29.1319 50.5953 29.104 50.5871 29.0737C50.6503 29.0325 50.7063 29.0233 50.7548 29.0462C51.2306 29.2625 51.6862 29.483 52.1216 29.7076C52.1572 29.726 52.1868 29.7542 52.2068 29.7888C52.2268 29.8235 52.2363 29.863 52.2343 29.9028L52.134 32.0753C52.1315 32.1303 52.108 32.1822 52.0683 32.2204C52.0287 32.2585 51.9759 32.2799 51.9208 32.2802C50.4771 32.294 49.0233 32.3462 47.5593 32.437C46.6931 32.492 46.4222 32.8302 46.1596 33.6538C45.5243 35.6439 44.8758 37.661 44.214 39.7052C44.2092 39.7204 44.2084 39.7366 44.2117 39.7521C44.2149 39.7677 44.2221 39.7822 44.2325 39.7941C44.2428 39.806 44.2561 39.815 44.2709 39.8201C44.2858 39.8253 44.3017 39.8264 44.3171 39.8235L45.3992 39.6241Z" fill="#342D37"/>
<path d="M34.2269 29.889C33.8859 29.9926 33.5165 30.0192 33.1187 29.9688C33.4752 29.8661 33.8447 29.8395 34.2269 29.889Z" fill="#A49C9F"/>
<path d="M37.8612 29.9441C37.8557 29.9056 37.8512 29.9124 37.8475 29.9647C37.8466 29.9748 37.8415 29.9798 37.8324 29.9798L34.0415 30.2177L37.8612 29.9441Z" fill="#CFA9B4"/>
<path d="M75.9336 34.5146L75.3437 34.791C75.3267 34.7984 75.3128 34.8117 75.3046 34.8284C75.2965 34.8452 75.2946 34.8643 75.2992 34.8823C75.3038 34.9003 75.3147 34.9161 75.3299 34.9268C75.3451 34.9376 75.3637 34.9425 75.3822 34.9408C75.4464 34.9363 75.5106 34.9514 75.5747 34.9862C75.3804 35.0834 75.2154 35.0614 75.0797 34.9202C75.286 34.2016 75.5491 33.5031 75.869 32.8247C76.1976 32.129 76.3062 31.634 76.3131 30.919C76.3159 30.5881 76.2049 30.5441 75.9804 30.787C75.9116 30.8626 75.8415 31.0757 75.7177 31.1843C74.9464 31.8636 73.8684 32.7477 73.3734 33.3733C72.8316 34.0599 72.5905 34.8868 72.6501 35.8538C72.6508 35.8676 72.6476 35.8813 72.6409 35.8934C72.6342 35.9054 72.6243 35.9154 72.6124 35.922C72.6004 35.9286 72.5869 35.9317 72.5734 35.9308C72.5598 35.9299 72.5469 35.9252 72.536 35.9171C72.503 35.8933 72.503 35.8644 72.536 35.8305C72.4727 34.6214 72.9072 33.6053 73.8395 32.7821C74.417 32.2724 74.989 31.7577 75.5555 31.238C75.759 31.051 75.8731 30.809 76.0353 30.6027C76.0593 30.5718 76.092 30.5489 76.1293 30.5369C76.1665 30.5249 76.2064 30.5245 76.2439 30.5356C76.2814 30.5468 76.3146 30.569 76.3392 30.5994C76.3638 30.6298 76.3787 30.6669 76.3819 30.7058C76.507 32.1798 75.7191 33.0928 75.2873 34.472C75.2806 34.4934 75.2796 34.5163 75.2846 34.5382C75.2896 34.5602 75.3004 34.5804 75.3158 34.5968C75.3312 34.6132 75.3507 34.6251 75.3723 34.6315C75.3939 34.6378 75.4168 34.6383 75.4386 34.6328L75.9336 34.5146Z" fill="#CFA9B4"/>
<path d="M31.5281 30.6632C31.5684 31.2361 31.557 31.7513 31.4937 32.2087C31.4763 32.3361 31.5024 32.448 31.5721 32.5442C31.5299 32.5552 31.4969 32.5561 31.4731 32.547C31.4511 32.5378 31.4387 32.5135 31.436 32.4741C31.3975 31.9158 31.4282 31.3122 31.5281 30.6632Z" fill="#CFA9B4"/>
<path d="M24.2568 30.8103C25.1671 30.9148 25.9467 31.2256 26.901 31.5514C28.375 32.0533 29.5547 32.7243 30.6946 33.7143C30.7037 33.7226 30.9182 33.8912 31.3381 34.2203C31.73 34.5283 32.093 35.0563 32.3143 35.3244C32.8946 36.0266 33.2759 36.8369 33.4583 37.7554C33.0907 36.5207 32.4569 35.4569 31.5567 34.5641C30.0552 33.0745 28.3094 32.0354 26.3193 31.4469C25.3578 31.1628 24.6703 30.9506 24.2568 30.8103Z" fill="#A49C9F"/>
<path d="M31.5031 33.9522C30.4315 33.075 29.2853 32.3279 28.0643 31.711C27.4881 31.4209 26.8405 31.2614 26.208 31.0359C26.2923 31.0019 26.3689 30.996 26.4376 31.018C28.3544 31.6111 30.0429 32.5892 31.5031 33.9522Z" fill="#A49C9F"/>
<path d="M14.2153 31.5474C15.6407 32.3714 17.0698 32.9068 18.5026 33.1534C20.5147 33.4989 22.5341 33.8042 24.5608 34.0691C27.3699 34.4376 30.0952 35.1279 32.2237 37.2096C32.187 37.2554 32.1783 37.2674 32.1976 37.2454C30.8418 36.0037 29.3128 35.2145 27.5377 34.7456C27.0482 34.6164 26.5312 34.4527 26.0348 34.3812C23.9632 34.0852 21.8929 33.7804 19.824 33.4669C18.2358 33.2249 16.9557 32.888 15.5587 32.3407C15.0509 32.1418 14.6031 31.8774 14.2153 31.5474Z" fill="#A49C9F"/>
<path d="M75.0097 34.8514C74.842 34.6067 74.8085 34.3207 74.9093 33.9934C75.0257 33.6148 75.2984 32.9099 75.7274 31.8787C75.6926 31.787 75.7348 31.721 75.8539 31.6807C75.9099 31.6623 75.93 31.6816 75.9144 31.7384C75.7824 32.2348 75.5116 32.683 75.2228 33.3087C74.968 33.8623 74.897 34.3766 75.0097 34.8514Z" fill="#A49C9F"/>
<path d="M31.0233 31.9873C30.9417 32.3366 30.993 32.6226 31.1773 32.8453C30.9142 32.8224 30.8629 32.5364 31.0233 31.9873Z" fill="#A49C9F"/>
<path d="M36.6017 33.0419C36.5742 33.0446 36.5467 33.0474 36.5192 33.0501C36.3954 32.9841 36.2075 32.9869 35.9554 33.0584C35.3165 33.0621 34.6822 33.0772 34.0524 33.1038C33.804 33.1139 33.5565 33.0809 33.3099 33.0048C32.8305 32.8554 32.3442 32.7279 31.8511 32.6225L31.6118 32.5579C32.9593 32.4085 34.31 32.3264 35.6639 32.3118C36.1855 32.3054 36.4981 32.5487 36.6017 33.0419Z" fill="#342D37"/>
<path d="M35.9554 33.0584C34.5021 33.2042 33.1766 33.2179 31.8511 32.6226C32.3442 32.728 32.8305 32.8554 33.3099 33.0048C33.5565 33.0809 33.804 33.1139 34.0524 33.1038C34.6822 33.0772 35.3165 33.0621 35.9554 33.0584Z" fill="#A49C9F"/>
<path d="M31.6958 33.0186C32.2 33.1258 32.6835 33.2748 33.1464 33.4654C33.4443 33.5873 33.6735 33.7542 33.8339 33.9659C34.0338 34.2308 34.1786 34.5251 34.2684 34.8487C34.2556 34.8523 34.2428 34.856 34.2299 34.8597C33.8985 34.0718 33.5122 33.5438 32.7449 33.3692C32.2948 33.2665 31.9451 33.1496 31.6958 33.0186Z" fill="#A49C9F"/>
<path d="M36.6016 33.042C36.6236 33.7799 36.4545 34.5481 36.0942 35.3465C36.1181 35.0962 36.1942 34.8066 36.3225 34.4775C36.4829 34.0659 36.5484 33.5902 36.5191 33.0502C36.5466 33.0475 36.5741 33.0447 36.6016 33.042Z" fill="#CFA9B4"/>
<path d="M79.0464 34.6383C79.1353 34.2973 79.2425 33.9563 79.3681 33.6153C79.4387 33.4265 79.4199 33.3353 79.3118 33.3417C79.3035 33.0639 79.3736 33.0314 79.5221 33.244C79.5431 33.2743 79.5562 33.3092 79.56 33.3455C79.5639 33.3819 79.5584 33.4184 79.5441 33.4517L79.0464 34.6383Z" fill="#A49C9F"/>
<path d="M74.384 33.1533C73.6048 33.9527 73.2665 34.8877 73.3692 35.9583C73.3885 36.1577 73.4985 36.3887 73.4916 36.6252C73.4907 36.682 73.4618 36.7109 73.405 36.7118C73.3527 36.7127 73.2963 36.6843 73.2358 36.6266C73.2908 36.6101 73.3376 36.5844 73.3761 36.5496C73.4118 36.5175 73.4224 36.4781 73.4077 36.4313C73.0007 35.1232 73.3261 34.0306 74.384 33.1533Z" fill="#CFA9B4"/>
<path d="M79.3121 33.3417C79.4203 33.3353 79.4391 33.4265 79.3685 33.6154C79.2429 33.9564 79.1357 34.2974 79.0468 34.6384L78.9931 35.3327C78.6246 35.1554 78.6824 34.5462 78.7278 34.2176C78.7301 34.1988 78.7274 34.1796 78.72 34.1622C78.7125 34.1447 78.7006 34.1295 78.6853 34.1182C78.6701 34.1069 78.6521 34.0998 78.6332 34.0977C78.6143 34.0956 78.5952 34.0986 78.5779 34.1062C78.2616 34.2483 78.0916 34.4949 78.0678 34.846C78.065 34.8827 78.0549 34.9186 78.038 34.9513C78.0211 34.984 77.9978 35.013 77.9694 35.0365C77.941 35.06 77.9082 35.0775 77.8729 35.088C77.8376 35.0985 77.8005 35.1018 77.7639 35.0976L76.3985 34.9367L75.5749 34.9862C75.5107 34.9514 75.4465 34.9363 75.3824 34.9409C75.3638 34.9426 75.3453 34.9376 75.3301 34.9269C75.3149 34.9162 75.304 34.9004 75.2993 34.8823C75.2947 34.8643 75.2966 34.8452 75.3048 34.8285C75.313 34.8117 75.3268 34.7984 75.3439 34.791L75.9338 34.5146L77.1231 34.5174C77.2991 34.6095 77.6333 34.6411 77.625 34.3414C77.8271 34.1145 77.9743 33.9261 78.2836 33.8299C78.6686 33.7098 79.0115 33.5471 79.3121 33.3417Z" fill="#342D37"/>
<path d="M36.0063 35.4592C36.0778 35.4353 36.1025 35.4633 36.0805 35.543C35.7294 36.8401 35.2248 38.5919 34.5666 40.7983C32.7269 41.077 30.9435 41.3515 29.2165 41.6219C28.2183 41.7773 27.4689 42.2365 26.8185 42.9873C26.6434 43.1899 26.4624 43.3934 26.2754 43.5978C26.7026 42.8745 27.2668 42.3232 27.968 41.9437C28.3136 41.7567 28.8104 41.6077 29.4585 41.4968C31.0535 41.2264 32.6811 40.9752 34.3411 40.7433C34.3996 40.7351 34.4543 40.71 34.4988 40.6712C34.5432 40.6324 34.5754 40.5815 34.5914 40.5247L35.8193 36.2044C35.8232 36.1907 35.8223 36.1761 35.8167 36.163C35.8111 36.15 35.8012 36.1392 35.7886 36.1326C35.776 36.126 35.7615 36.1239 35.7475 36.1267C35.7336 36.1295 35.721 36.1371 35.712 36.148L35.5855 36.2979C35.9008 35.4867 35.976 34.6841 35.811 33.8903C35.7743 33.7161 35.6675 33.63 35.4906 33.6318L34.0304 33.6455C34.4135 33.5777 34.8792 33.5525 35.4274 33.5699C35.717 33.5791 35.8765 33.7244 35.9059 34.0058C35.9545 34.4825 35.9879 34.9669 36.0063 35.4592Z" fill="#A49C9F"/>
<path d="M35.5854 36.2979C35.6349 36.2786 35.6312 36.3121 35.5744 36.3982L34.9103 37.7169L34.572 38.1912C34.4859 38.1518 34.4666 38.0712 34.5143 37.9492C34.8608 37.0582 34.9451 36.1764 34.7673 35.3037C34.6564 34.7638 34.4244 34.272 34.0715 33.8284L34.0303 33.6455L35.4905 33.6317C35.6674 33.6299 35.7742 33.7161 35.8109 33.8902C35.9759 34.6841 35.9007 35.4866 35.5854 36.2979Z" fill="#0B8C4C"/>
<path d="M34.5723 38.1912C34.5081 38.2829 34.4453 38.3265 34.3839 38.3219C34.3737 38.3212 34.3637 38.3181 34.3549 38.3127C34.3462 38.3074 34.3388 38.3 34.3334 38.2911C34.328 38.2822 34.3248 38.2722 34.324 38.2617C34.3233 38.2513 34.3249 38.2408 34.3289 38.2311C34.7744 37.1834 34.8954 36.1957 34.6919 35.268C34.6452 35.0544 34.4384 34.5745 34.0718 33.8284C34.4247 34.272 34.6566 34.7638 34.7675 35.3037C34.9454 36.1764 34.861 37.0582 34.5145 37.9492C34.4669 38.0712 34.4861 38.1518 34.5723 38.1912Z" fill="#A49C9F"/>
<path d="M78.9931 35.3326L79.3602 35.7547C79.0797 35.5347 78.8354 35.4573 78.6273 35.5224C78.5961 35.5435 78.5622 35.532 78.5256 35.488C78.4935 35.4495 78.499 35.4174 78.5421 35.3917L78.6713 35.3147C78.7245 35.2827 78.7387 35.2377 78.7139 35.18C78.603 34.9206 78.5668 34.6479 78.6053 34.3619C78.6077 34.3444 78.6047 34.3266 78.5968 34.3108C78.5889 34.295 78.5764 34.2819 78.561 34.2733C78.5455 34.2647 78.5279 34.261 78.5103 34.2625C78.4927 34.2641 78.476 34.2709 78.4623 34.2821C78.2597 34.4508 78.1479 34.6639 78.1268 34.9215C78.124 34.9607 78.1129 34.9988 78.0943 35.0335C78.0758 35.0682 78.0502 35.0986 78.0191 35.1228C77.988 35.147 77.9522 35.1645 77.9139 35.1741C77.8756 35.1837 77.8357 35.1853 77.7968 35.1786L76.3984 34.9366L77.7638 35.0975C77.8004 35.1017 77.8375 35.0984 77.8728 35.0879C77.9081 35.0774 77.9409 35.0599 77.9693 35.0364C77.9977 35.0129 78.021 34.9839 78.0379 34.9512C78.0548 34.9184 78.065 34.8826 78.0677 34.8459C78.0915 34.4948 78.2616 34.2482 78.5778 34.1061C78.5952 34.0984 78.6143 34.0955 78.6331 34.0976C78.652 34.0997 78.67 34.1068 78.6852 34.1181C78.7005 34.1294 78.7124 34.1446 78.7199 34.1621C78.7274 34.1795 78.73 34.1987 78.7277 34.2175C78.6823 34.5461 78.6246 35.1552 78.9931 35.3326Z" fill="#A49C9F"/>
<path d="M77.6249 34.3413C77.6332 34.6411 77.299 34.6094 77.123 34.5173C77.3256 34.5191 77.4929 34.4605 77.6249 34.3413Z" fill="#A49C9F"/>
<path d="M32.0806 34.5406C32.9386 35.3638 33.4679 36.3474 33.6687 37.4914C33.6595 37.4996 33.6499 37.5084 33.6398 37.5175C33.4592 36.7897 33.1755 36.1155 32.7887 35.4949C32.6044 35.1993 32.2772 34.9078 32.0806 34.5406Z" fill="#CFA9B4"/>
<path d="M34.23 34.8598C34.2428 34.8561 34.2556 34.8524 34.2685 34.8488C34.6425 35.7544 34.6805 36.6477 34.3826 37.5286C34.3789 37.558 34.3601 37.5428 34.3262 37.4833C34.3739 37.4438 34.4009 37.4044 34.4074 37.365C34.5614 36.5226 34.5022 35.6875 34.23 34.8598Z" fill="#CFA9B4"/>
<path d="M28.0315 35.9749L25.8728 35.616L14.1812 35.979C20.112 35.6875 23.9042 35.5312 25.5579 35.5101C26.1409 35.5028 26.9654 35.6577 28.0315 35.9749Z" fill="#CFA9B4"/>
<path d="M25.8725 35.616L28.0312 35.9748L28.4877 36.0257C28.4235 36.6371 28.4029 37.2444 28.4258 37.8476C28.4267 37.8907 28.4057 37.9581 28.3626 38.0497C28.3837 38.0855 28.353 38.0887 28.2705 38.0593C27.5087 38.0034 26.8675 37.9911 26.3468 38.0222C24.9017 38.1102 24.8027 39.3697 25.1107 40.4752C25.415 41.5679 25.7263 42.6807 26.0443 43.8137C26.0487 43.8286 26.0575 43.8417 26.0695 43.8514C26.0816 43.8611 26.0963 43.8669 26.1118 43.8679C26.1272 43.869 26.1426 43.8653 26.1559 43.8573C26.1691 43.8493 26.1796 43.8375 26.186 43.8233C26.2125 43.7601 26.2002 43.7303 26.1488 43.734C26.2084 43.6991 26.2506 43.6538 26.2753 43.5978C26.4623 43.3934 26.6434 43.1899 26.8185 42.9873C27.4688 42.2366 28.2182 41.7773 29.2165 41.622C30.9435 41.3516 32.7268 41.077 34.5666 40.7983L34.3755 41.5573C32.7099 41.8406 31.0782 42.117 29.4805 42.3865C28.958 42.4745 28.4093 42.6463 28.0243 42.9213C27.39 43.3751 26.8693 44.0062 26.4623 44.8147C26.4028 44.933 26.4018 45.0961 26.4596 45.3042C27.5156 49.0809 28.5711 52.8576 29.6262 56.6342C29.6876 56.8533 29.7706 57.0802 29.8751 57.3148L28.7957 61.0273C28.7918 61.04 28.784 61.051 28.7733 61.0589C28.7627 61.0667 28.7498 61.071 28.7366 61.071C28.7234 61.071 28.7105 61.0667 28.6998 61.0589C28.6892 61.051 28.6814 61.04 28.6775 61.0273C26.5966 54.0304 24.5108 47.0271 22.4198 40.0173C22.1476 39.1043 22.0775 38.1941 23.0235 37.7665C23.2545 37.662 23.6294 37.6125 24.1482 37.618C24.6515 37.6226 25.1726 37.6125 25.7116 37.5877C25.7524 37.586 25.7911 37.5686 25.8195 37.5391C25.8479 37.5097 25.8639 37.4705 25.8642 37.4296L25.8725 35.616Z" fill="#342D37"/>
<path d="M78.9077 35.8552C79.07 35.9551 79.18 36.0514 79.2377 36.144C80.1205 37.563 80.4285 39.3519 82.3081 39.9857C83.3054 40.3221 84.0575 40.5894 84.5645 40.7874C85.1695 41.0252 85.4912 41.4886 85.5421 42.106C85.6814 43.8183 84.916 44.8092 83.2458 45.0787C84.0772 44.8844 84.68 44.5223 85.054 43.9925C85.6012 43.217 85.8006 41.4749 84.6992 40.9317C83.756 40.4656 82.7357 40.2662 81.7375 39.785C80.6718 39.2721 80.2085 38.4114 79.785 37.3636C79.5526 36.7861 79.235 36.3598 78.9077 35.8552Z" fill="#A49C9F"/>
<path d="M13.6322 36.0243L13.606 37.5175C13.6051 37.567 13.6239 37.6074 13.6624 37.6385C13.7843 37.7385 13.9521 37.7788 14.1657 37.7595C15.2895 37.941 16.1993 38.0598 16.895 38.1157C16.9977 38.1239 17.2429 38.1134 17.6307 38.084C17.8268 38.3306 17.9946 38.6858 18.1339 39.1497C19.783 44.6598 21.4234 50.1721 23.055 55.6868C23.0658 55.7243 23.0643 55.7643 23.0509 55.8009C23.0087 55.9091 23.0055 55.9994 23.0413 56.0718L22.5917 58.83C22.5527 59.0704 22.4245 59.287 22.2328 59.4364C21.4518 60.0442 20.9155 60.5117 20.371 61.5704C20.3704 61.5719 20.3693 61.5731 20.368 61.574C20.3667 61.5749 20.3651 61.5754 20.3635 61.5754C20.3619 61.5754 20.3603 61.5749 20.359 61.574C20.3576 61.5731 20.3566 61.5719 20.3559 61.5704L20.338 61.5374C20.6772 60.7482 21.1928 60.107 21.8849 59.6138C22.0499 59.4965 22.1645 59.4025 22.2287 59.3319C22.4555 59.083 22.5037 58.7434 22.6178 58.4959C22.637 58.4547 22.6444 58.4116 22.6398 58.3667C22.593 57.9377 22.7457 57.4825 22.7842 57.1842C22.8309 56.8331 22.8832 56.4829 22.9409 56.1337C22.9757 55.9247 22.9634 55.7207 22.9038 55.5218C21.2639 49.9714 19.6125 44.4246 17.9497 38.8815C17.8947 38.6982 17.8268 38.5213 17.7462 38.3508C17.7386 38.3352 17.7273 38.3217 17.7134 38.3116C17.6994 38.3015 17.6833 38.2951 17.6664 38.293L13.6377 37.7884C13.5946 37.7829 13.574 37.7591 13.5758 37.7169L13.6322 36.0243Z" fill="#CFA9B4"/>
<path d="M28.4879 36.0256C28.5778 36.6811 28.5915 37.3342 28.5292 37.985C28.5246 38.0336 28.498 38.057 28.4494 38.0551L28.3628 38.0496C28.4059 37.958 28.427 37.8906 28.426 37.8475C28.4031 37.2443 28.4238 36.6371 28.4879 36.0256Z" fill="#CFA9B4"/>
<path d="M79.7014 36.0917C79.9681 36.4886 80.2078 36.9034 80.4205 37.336C80.69 37.8833 80.9068 38.2504 81.0708 38.4374C82.197 39.7134 83.7136 39.5361 85.2385 40.4573C85.9507 40.8863 86.1377 41.3084 86.1625 42.1087C86.1886 42.9144 86.19 43.5277 85.7802 44.2124C85.0528 45.4279 83.8882 45.6232 82.5173 45.4362C81.7006 45.3248 81.0791 46.1869 80.3737 46.4454C80.1171 46.5398 79.854 46.6091 79.5845 46.6531C79.5396 46.6595 79.5029 46.681 79.4745 46.7177C78.0802 48.5506 76.2639 49.2339 74.0322 49.8486C73.386 50.0273 73.2554 50.5856 73.2334 51.2387C73.1825 52.7938 72.9707 54.3764 72.44 55.8312C71.8295 57.5073 70.6497 59.4268 68.799 59.8393C68.2847 59.9548 67.688 60.7606 67.303 61.1318C67.006 61.4151 66.9139 61.6956 66.9097 62.1314C66.8932 64.1197 66.8969 66.1075 66.9207 68.0948C66.9235 68.2836 66.973 68.4573 67.0692 68.6159C67.7815 69.7902 68.6876 70.8022 69.3765 71.9132C69.3994 71.9508 69.3921 71.9815 69.3545 72.0053L69.2885 72.0452C69.3032 71.9196 69.2757 71.8101 69.206 71.7166C68.4662 70.7146 67.7315 69.7242 67.0019 68.7452C66.9079 68.619 66.8546 68.4669 66.8492 68.3093C66.83 67.7208 66.7791 67.1021 66.7901 66.5108C66.8259 64.4721 66.8387 62.9954 66.8286 62.0806C66.8231 61.5856 66.9056 61.3944 67.2755 61.0369C67.6646 60.6629 68.1225 59.9424 68.6312 59.7967C69.9361 59.4254 70.768 58.7792 71.494 57.5568C72.2704 56.2478 72.7572 54.8682 72.9542 53.4181C73.0477 52.7269 73.122 51.9138 73.177 50.9788C73.2141 50.3381 73.4534 49.9201 74.0804 49.7716C75.9655 49.3247 78.2246 48.3306 79.3329 46.7314C79.3604 46.692 79.3966 46.6641 79.4415 46.6476C80.0327 46.4193 80.5772 46.4056 81.108 45.9243C81.3124 45.7391 81.6905 45.5301 82.2423 45.2973C82.2824 45.2803 82.3269 45.277 82.3688 45.2877C84.914 45.8886 86.4375 44.2894 86.0483 41.7746C85.9888 41.3905 85.8476 41.0838 85.6248 40.8547C84.98 40.1947 83.6283 39.8578 82.868 39.5924C81.68 39.1772 81.0145 38.7344 80.4878 37.6441C80.2367 37.1225 79.9745 36.605 79.7014 36.0917Z" fill="#A49C9F"/>
<path d="M73.2179 36.6032L72.0684 36.3969C71.9741 36.3802 71.8769 36.3985 71.795 36.4483C71.713 36.4982 71.6518 36.5762 71.6229 36.6678C68.9719 45.0681 66.292 53.4872 63.5833 61.9252C63.3427 62.6759 63.6892 62.812 63.8803 63.4363C64.0425 63.9643 64.1273 64.4969 64.1347 65.034C64.0054 64.1605 63.7597 63.3263 63.3977 62.5315C63.3738 62.4793 63.3857 62.378 63.4334 62.2277C66.1394 53.6119 68.8665 45.0026 71.6146 36.3997C71.6302 36.352 71.6632 36.3268 71.7136 36.324C72.2187 36.3057 72.7201 36.3987 73.2179 36.6032Z" fill="#A49C9F"/>
<path d="M35.5748 36.3983C35.4409 36.8915 35.2196 37.331 34.9106 37.7169L35.5748 36.3983Z" fill="#A49C9F"/>
<path d="M59.6813 36.9208C59.6868 36.9391 59.6923 36.957 59.6978 36.9744C57.2842 37.3539 54.8779 37.7815 52.479 38.2573C50.0755 38.7344 47.7559 39.1538 45.3992 39.624L45.3579 39.5828C47.8343 39.0575 50.2763 38.6065 52.8035 38.0964C55.0842 37.6353 57.3768 37.2434 59.6813 36.9208Z" fill="#A49C9F"/>
<path d="M32.2236 37.2096L33.3896 38.7647C33.403 38.7822 33.4219 38.7947 33.4433 38.8C33.4647 38.8054 33.4872 38.8034 33.5073 38.7943C33.5274 38.7852 33.5438 38.7696 33.5539 38.75C33.564 38.7304 33.5671 38.708 33.5628 38.6863C33.539 38.5727 33.55 38.4833 33.5958 38.4182C33.6948 38.5942 33.6852 38.7276 33.5669 38.8183C33.4679 38.8935 33.3818 38.8807 33.3084 38.7798L32.1974 37.2453C32.1782 37.2673 32.1869 37.2554 32.2236 37.2096Z" fill="#CFA9B4"/>
<path d="M61.265 37.2714C61.275 37.4043 61.2737 37.4927 61.2608 37.5367C59.3212 44.2962 57.3801 51.0557 55.4377 57.8152C55.4285 57.8455 55.4134 57.8638 55.3923 57.8702C55.3731 57.8757 55.347 57.8799 55.314 57.8826C57.2545 51.1405 59.1915 44.4026 61.1247 37.6687C61.1513 37.5743 61.1394 37.4845 61.089 37.3992C61.122 37.3497 61.1806 37.3071 61.265 37.2714Z" fill="#CFA9B4"/>
<path d="M60.6945 37.4377C59.1353 37.7127 57.4825 37.9272 56.0209 38.2077C52.3496 38.9117 48.6812 39.6309 45.0154 40.3651C44.4833 40.471 44.1423 40.2716 43.9264 40.9412C43.4351 42.4702 42.9208 44.085 42.3837 45.7854C42.3739 45.8174 42.3716 45.8512 42.3771 45.8839C42.3826 45.9166 42.3957 45.9474 42.4153 45.9737C45.4485 50.0382 48.4873 54.127 51.5315 58.2401C51.5783 58.3034 51.6571 58.3822 51.768 58.4766C51.7834 58.4899 51.8017 58.4996 51.8215 58.5048C51.8412 58.51 51.862 58.5107 51.8822 58.5069C52.6237 58.373 53.3557 58.197 54.078 57.9789C54.5015 57.851 54.8893 57.8812 55.3141 57.8826C55.2986 57.9477 55.3091 57.983 55.3458 57.9885C54.9901 57.9197 54.7293 57.9078 54.5634 57.9527C53.6614 58.2012 52.7342 58.4276 51.7818 58.632C51.7314 58.643 51.691 58.6279 51.6608 58.5866L42.3424 46.0219C42.3105 45.9789 42.2893 45.9288 42.2807 45.8757C42.2721 45.8226 42.2763 45.7681 42.2929 45.7166L43.9553 40.5356C43.9681 40.4935 43.9961 40.4682 44.0392 40.46C47.4858 39.7853 50.9284 39.107 54.3668 38.425C55.1634 38.2673 56.7776 37.9923 59.2095 37.6C59.8402 37.4992 60.3352 37.4451 60.6945 37.4377Z" fill="#A49C9F"/>
<path d="M33.64 37.5176C33.6501 37.5084 33.6597 37.4997 33.6689 37.4915L33.728 38.0937C33.6501 37.915 33.6207 37.7229 33.64 37.5176Z" fill="#A49C9F"/>
<path d="M34.3261 37.4832C34.36 37.5427 34.3788 37.5579 34.3824 37.5285L33.8984 38.6134C33.8925 38.6264 33.8822 38.6368 33.8694 38.6428C33.8566 38.6488 33.842 38.6501 33.828 38.6464C33.814 38.6427 33.8015 38.6342 33.7925 38.6225C33.7836 38.6107 33.7787 38.5964 33.7788 38.5818C33.7788 38.5671 33.7884 38.5447 33.8077 38.5144C34.0653 38.2605 34.2381 37.9167 34.3261 37.4832Z" fill="#A49C9F"/>
<path d="M17.631 38.0841C17.2433 38.1134 16.9981 38.124 16.8954 38.1157C16.1996 38.0598 15.2898 37.9411 14.166 37.7596C15.3998 37.6065 16.4338 37.5937 17.268 37.7211C17.4238 37.7449 17.5448 37.8659 17.631 38.0841Z" fill="#342D37"/>
<path d="M28.2709 38.0594C27.6531 38.0639 27.0343 38.0749 26.4147 38.0923C25.7382 38.1102 25.283 38.4636 25.1084 39.0906C25.0433 39.3225 25.0543 39.6369 25.1414 40.0339C25.4164 41.2814 25.7524 42.5148 26.1493 43.734C26.2006 43.7303 26.213 43.7601 26.1864 43.8234C26.1801 43.8375 26.1696 43.8493 26.1563 43.8573C26.1431 43.8653 26.1277 43.869 26.1123 43.8679C26.0968 43.8669 26.0821 43.8611 26.07 43.8514C26.0579 43.8417 26.0491 43.8286 26.0448 43.8137C25.7267 42.6807 25.4155 41.5679 25.1112 40.4752C24.8032 39.3697 24.9022 38.1102 26.3473 38.0222C26.868 37.9911 27.5092 38.0034 28.2709 38.0594Z" fill="#A49C9F"/>
<path d="M34.3755 41.5574L29.8751 57.3149C29.7706 57.0802 29.6877 56.8533 29.6262 56.6342C28.5712 52.8576 27.5156 49.0809 26.4596 45.3042C26.4019 45.0962 26.4028 44.933 26.4624 44.8147C26.8694 44.0062 27.39 43.3751 28.0244 42.9214C28.4094 42.6464 28.958 42.4745 29.4805 42.3865C31.0782 42.117 32.7099 41.8406 34.3755 41.5574ZM29.8187 56.9546C29.8407 57.0344 29.8632 57.0344 29.8861 56.9546L34.1981 41.8351C34.2033 41.8165 34.2037 41.7968 34.1992 41.7779C34.1948 41.7591 34.1856 41.7417 34.1725 41.7274C34.1594 41.7131 34.1429 41.7023 34.1246 41.6962C34.1062 41.69 34.0865 41.6886 34.0675 41.6921C32.7649 41.9387 31.4435 42.1692 30.1034 42.3837C29.2802 42.5148 28.6949 42.6707 28.3475 42.8512C27.506 43.2885 27.1293 43.8811 26.6109 44.6621C26.5064 44.8189 26.4729 44.9642 26.5105 45.098C27.5454 48.8132 28.6482 52.7655 29.8187 56.9546Z" fill="#CFA9B4"/>
<path d="M78.1251 46.1869C78.0632 46.1044 77.9793 46.0563 77.868 46.0618C77.0659 46.0993 76.2693 46.0489 75.4782 45.9105C74.2389 45.6923 73.49 44.9847 73.2315 43.7875C73.2305 43.782 73.2182 43.6899 73.1943 43.5111C73.1678 43.3122 73.0958 43.2109 72.9785 43.2073C72.9638 43.0817 72.9863 42.9795 73.0458 42.9006C73.0554 42.8881 73.0685 42.8788 73.0834 42.8739C73.0983 42.8689 73.1144 42.8686 73.1295 42.8729C73.1447 42.8772 73.1581 42.8859 73.1682 42.898C73.1783 42.91 73.1845 42.9249 73.1861 42.9405C73.4198 45.2546 74.5886 45.9476 76.8023 45.9435C77.2891 45.9426 77.774 45.9783 78.2571 46.0508C78.313 46.059 78.3222 46.0842 78.2846 46.1264C78.2525 46.1631 78.1993 46.1832 78.1251 46.1869Z" fill="#A49C9F"/>
<path d="M72.9786 43.2074C73.096 43.2111 73.1679 43.3124 73.1945 43.5113C73.2183 43.69 73.2307 43.7821 73.2316 43.7876C73.4901 44.9848 74.2391 45.6925 75.4784 45.9106C76.2695 46.0491 77.066 46.0995 77.8681 46.0619C77.9795 46.0564 78.0634 46.1045 78.1253 46.187L77.9451 46.2544C77.4483 46.2975 76.9556 46.3438 76.467 46.3933C74.7868 46.5624 72.5826 45.846 72.9498 43.6928C72.9718 43.5635 72.9571 43.4627 72.9058 43.3903C72.9058 43.3389 72.9301 43.278 72.9786 43.2074Z" fill="#342D37"/>
<path d="M72.9057 43.3901C72.957 43.4626 72.9717 43.5634 72.9497 43.6926C72.5825 45.8459 74.7867 46.5623 76.4669 46.3931C76.9555 46.3436 77.4482 46.2973 77.945 46.2543C75.976 46.8084 72.1384 46.5609 72.9057 43.3901Z" fill="#A49C9F"/>
<path d="M82.3368 45.0745L81.6919 45.124C81.9531 45.0085 82.1681 44.992 82.3368 45.0745Z" fill="#A49C9F"/>
<path d="M81.6921 45.1241C81.4529 45.2575 81.1999 45.34 80.9716 45.4954C80.5289 45.7979 80.1659 45.9753 79.598 46.0756C79.2749 46.132 79.0975 46.1458 78.8692 46.4166C77.4832 48.0598 75.8223 48.7431 73.7873 49.2711C72.3999 49.63 72.6034 51.0779 72.4549 52.2081C72.4531 52.2191 72.4201 52.4969 72.3559 53.0414C72.1854 54.4778 71.7225 55.851 70.9671 57.1609C70.2998 58.3186 69.3226 59.002 68.0356 59.211C67.9962 59.2174 67.9348 59.2468 67.8514 59.299C67.7973 59.3329 67.7473 59.3792 67.7015 59.4379C67.3037 59.9531 66.8458 60.4105 66.3279 60.8102C66.1812 60.9229 66.1084 61.1631 66.1093 61.5306C66.1166 63.7655 66.1083 65.9999 66.0845 68.2338C66.0827 68.4116 66.1748 68.6316 66.3609 68.8938C66.8871 69.6363 67.4114 70.3737 67.9339 71.1062C67.9462 71.1238 67.9514 71.1455 67.9486 71.1668C67.9458 71.1882 67.9352 71.2077 67.9188 71.2217C67.8848 71.2492 67.8688 71.2519 67.8706 71.2299C67.3683 70.4581 66.8444 69.7206 66.299 69.0175C66.0254 68.6655 65.9539 68.1705 65.9511 67.6769C65.9356 64.684 65.9356 62.6581 65.9511 61.5994C65.9621 60.8693 66.8215 60.2175 67.3206 59.728C67.4609 59.5905 67.6864 59.2193 67.9504 59.1656C68.9816 58.9539 69.8011 58.4777 70.4089 57.737C71.2082 56.7635 71.7381 55.6553 71.9984 54.4123C72.2459 53.2344 72.4196 52.045 72.5195 50.8441C72.5534 50.4408 72.6336 50.1401 72.7601 49.9421C73.0503 49.4884 73.4641 49.2711 74.0306 49.1378C75.6064 48.7674 77.0084 48.0543 78.2368 46.9983C78.5049 46.7686 78.7043 46.4125 78.993 46.1416C79.0267 46.1098 79.0701 46.0912 79.1154 46.0894C80.236 46.0399 80.7819 45.3538 81.6921 45.1241Z" fill="#A49C9F"/>
<path d="M39.5937 54.166L36.7295 63.2067C36.671 63.3902 36.6807 63.5893 36.757 63.7677C37.286 65.0033 37.8107 66.2674 38.3314 67.5599C38.4341 67.8147 38.4978 68.0787 38.5225 68.3519C38.5555 68.7232 38.6023 68.95 38.814 69.2058C39.3329 69.8364 39.761 70.3938 40.0983 70.8778L40.189 71.0978L41.5558 71.1638C41.5721 71.1646 41.5883 71.1607 41.6024 71.1524C41.6166 71.1441 41.6281 71.1318 41.6355 71.117L41.7029 70.9768C41.7085 70.9651 41.7168 70.9549 41.7272 70.9471C41.7375 70.9393 41.7496 70.9341 41.7624 70.9318C41.7753 70.9295 41.7885 70.9303 41.8011 70.934C41.8137 70.9378 41.8253 70.9444 41.8349 70.9534C41.9935 71.1056 42.1681 71.1876 42.3588 71.1995C42.4816 71.2417 42.5898 71.2577 42.6833 71.2477C42.741 71.2577 42.7736 71.2596 42.7809 71.2532C42.8051 71.2318 42.8203 71.2021 42.8233 71.1701C42.8264 71.1382 42.8171 71.1064 42.7974 71.0813C42.2254 70.3498 41.5764 69.643 41.2024 68.7905C40.7129 67.6795 40.2372 66.5626 39.7752 65.4397C39.5263 64.8333 39.2128 64.2187 39.2609 63.593C39.3407 62.5517 39.398 61.509 39.4328 60.4649C39.452 59.8984 39.7188 59.5194 40.233 59.3278C40.5264 59.2178 40.9004 59.0752 41.355 58.9002C41.386 58.8881 41.4127 58.8673 41.4321 58.8404C41.4515 58.8134 41.4627 58.7815 41.4643 58.7483C41.4659 58.7152 41.4578 58.6822 41.4411 58.6536C41.4244 58.6249 41.3998 58.6016 41.3702 58.5867L39.991 57.8937C39.9806 57.889 39.9724 57.8806 39.9679 57.8701C39.9634 57.8596 39.963 57.8478 39.9668 57.8371C39.9706 57.8263 39.9784 57.8174 39.9885 57.8121C39.9985 57.8068 40.0103 57.8055 40.0213 57.8084L42.4358 58.3295C42.4468 58.3323 42.4537 58.3282 42.4564 58.3172C42.4601 58.3007 42.4637 58.2842 42.4674 58.2677C42.5508 58.3062 42.6411 58.3075 42.7383 58.2718L43.2965 58.9593L42.51 58.9813C42.4358 59.0097 42.3886 59.034 42.3684 59.0542C41.7249 59.7155 40.9343 59.732 40.2715 60.2325C40.234 60.2609 40.2078 60.2981 40.1932 60.3439C40.1565 60.4631 40.134 60.5836 40.1258 60.7055C40.0754 61.4618 40.0305 62.218 39.991 62.9743C39.9535 63.703 39.9832 64.1884 40.0804 64.4304C40.5708 65.6487 41.0727 66.8623 41.586 68.0714C41.751 68.4619 41.9559 68.8222 42.2007 69.1522C42.8992 70.0963 43.6265 71.0231 44.3828 71.9324C44.3947 71.9022 44.4094 71.9044 44.4268 71.9393C44.38 71.9979 44.3145 72.0401 44.2302 72.0658C42.6352 71.9723 41.0058 71.9833 39.4259 71.7633C38.8058 71.6767 39.2747 70.8874 39.0052 70.5368C38.5404 69.9332 37.7814 69.1164 37.7072 68.3409C37.6769 68.0274 37.6288 67.7776 37.5628 67.5915C37.2016 66.5823 36.8052 65.5859 36.3734 64.6023C36.369 64.5912 36.3612 64.5819 36.3513 64.5754C36.3413 64.5689 36.3295 64.5657 36.3177 64.5661C36.3058 64.5666 36.2943 64.5707 36.2849 64.5779C36.2754 64.5851 36.2684 64.5951 36.2648 64.6064C36.2455 64.6623 36.2533 64.7237 36.2882 64.7907C36.2506 64.8539 36.2268 64.8773 36.2167 64.8608C35.773 66.2284 35.3367 67.597 34.9077 68.9665C34.7821 69.368 34.7266 69.665 34.7413 69.8575C34.7812 70.4062 35.0685 70.6042 35.4095 70.9823C36.504 72.1969 37.5894 73.4009 38.6655 74.5944C38.6781 74.6086 38.6873 74.6255 38.6924 74.6438C38.6975 74.6621 38.6984 74.6814 38.6949 74.7001C38.6915 74.7187 38.6838 74.7364 38.6725 74.7517C38.6613 74.767 38.6466 74.7795 38.6298 74.7883L36.6608 75.7975C35.4059 74.4564 34.1381 73.0957 32.8575 71.7152C32.1879 70.9919 32.4368 70.3594 32.7008 69.5358C34.5369 63.813 36.3665 58.0921 38.1898 52.373C38.194 52.3602 38.2017 52.3488 38.2118 52.3399C38.222 52.3311 38.2343 52.3251 38.2474 52.3227C38.2606 52.3203 38.274 52.3216 38.2864 52.3263C38.2988 52.331 38.3096 52.3391 38.3177 52.3497C38.6697 52.808 39.0295 53.2709 39.397 53.7384C39.5281 53.9043 39.5937 54.0469 39.5937 54.166Z" fill="#342D37"/>
<path d="M39.5938 54.1661C39.6726 54.1413 39.7304 54.1537 39.7671 54.2032C40.6746 55.4132 41.577 56.6259 42.4744 57.8414C42.5047 57.8827 42.5523 57.9322 42.6174 57.9899C42.7311 58.0917 42.7448 58.165 42.6587 58.2099L39.7753 54.3874C39.7047 54.293 39.6516 54.3022 39.6158 54.4149L36.8259 63.2452C36.7753 63.4049 36.7831 63.5779 36.8479 63.7333C37.3998 65.0524 37.9438 66.3806 38.4801 67.7181C38.6162 68.0577 38.5309 68.5431 38.6698 68.7892C38.8706 69.143 39.3294 69.743 40.0462 70.5891C40.1021 70.6541 40.1195 70.7504 40.0984 70.8778C39.7611 70.3938 39.333 69.8365 38.8142 69.2058C38.6024 68.9501 38.5557 68.7232 38.5227 68.3519C38.4979 68.0788 38.4342 67.8148 38.3316 67.5599C37.8109 66.2674 37.2861 65.0034 36.7572 63.7677C36.6809 63.5894 36.6711 63.3902 36.7297 63.2067L39.5938 54.1661Z" fill="#A49C9F"/>
<path d="M23.0415 56.0718C23.2707 56.3862 23.4027 56.7643 23.4375 57.2062C23.2643 58.1095 23.2093 59.248 22.5204 59.8695C21.9017 60.4292 21.254 60.975 20.902 61.6653C20.1912 63.0595 20.6724 64.693 21.8989 65.6968C21.9493 65.738 21.9773 65.7266 21.9828 65.6624C22.0337 65.1097 22.0928 64.6339 22.3224 64.1142C22.7803 63.0802 23.3757 62.0187 23.6163 60.9145C23.6374 60.8164 23.6232 60.8109 23.5737 60.898C23.2363 61.5003 22.8454 62.0879 22.4008 62.6608C21.8618 63.3552 21.5978 63.8598 21.6789 64.682C21.6805 64.6976 21.6766 64.7132 21.668 64.7262C21.6593 64.7392 21.6464 64.7488 21.6315 64.7533C21.6166 64.7579 21.6005 64.7571 21.5861 64.7511C21.5717 64.7451 21.5597 64.7343 21.5524 64.7205C21.1867 64.0541 21.2087 63.4056 21.6184 62.7749C22.321 61.6942 23.2065 60.7578 23.5819 59.5079C23.5887 59.4856 23.6018 59.4657 23.6196 59.4506C23.6374 59.4354 23.6591 59.4257 23.6822 59.4225C23.7054 59.4193 23.7289 59.4228 23.7501 59.4326C23.7713 59.4424 23.7893 59.458 23.8019 59.4777C24.1365 60.002 24.2492 60.5346 24.1402 61.0754C24.0668 61.4182 23.9953 61.6735 23.9257 61.8413C23.295 63.3629 22.8545 64.4739 22.6043 65.1743C22.5465 65.3356 22.5158 65.5533 22.5122 65.8274C22.5213 66.2665 22.4668 66.5053 22.3485 66.5438C22.0369 66.3302 21.7779 66.1459 21.5717 65.991C20.0518 64.847 19.6329 63.3872 20.3149 61.6117C20.3002 61.5512 20.308 61.5264 20.3383 61.5374L20.3562 61.5704C20.3568 61.5719 20.3579 61.5731 20.3592 61.574C20.3605 61.5749 20.3621 61.5754 20.3637 61.5754C20.3653 61.5754 20.3669 61.5749 20.3682 61.574C20.3696 61.5731 20.3706 61.5719 20.3713 61.5704C20.9158 60.5117 21.452 60.0442 22.233 59.4364C22.4248 59.287 22.553 59.0704 22.5919 58.83L23.0415 56.0718Z" fill="#342D37"/>
<path d="M23.4377 57.2062L24.3906 60.3522C24.3218 60.3668 24.2888 60.393 24.2915 60.4306C24.3099 60.69 24.2709 60.9288 24.1747 61.1469C24.1637 61.0965 24.1522 61.0727 24.1403 61.0754C24.2494 60.5346 24.1366 60.002 23.8021 59.4777C23.7894 59.458 23.7715 59.4424 23.7503 59.4326C23.7291 59.4229 23.7055 59.4194 23.6824 59.4225C23.6593 59.4257 23.6375 59.4354 23.6197 59.4506C23.602 59.4657 23.5889 59.4856 23.5821 59.5079C23.2067 60.7578 22.3212 61.6942 21.6186 62.7749C21.2088 63.4056 21.1868 64.0541 21.5526 64.7206C21.5599 64.7343 21.5718 64.7451 21.5862 64.7511C21.6006 64.7571 21.6167 64.7579 21.6316 64.7533C21.6466 64.7488 21.6595 64.7392 21.6681 64.7262C21.6768 64.7132 21.6806 64.6976 21.6791 64.6821C21.5979 63.8598 21.8619 63.3552 22.4009 62.6608C22.8455 62.0879 23.2365 61.5003 23.5738 60.8981C23.6233 60.811 23.6375 60.8165 23.6164 60.9146C23.3758 62.0187 22.7804 63.0802 22.3226 64.1142C22.0929 64.6339 22.0338 65.1097 21.9829 65.6624C21.9774 65.7266 21.9495 65.7381 21.8991 65.6968C20.6726 64.6931 20.1913 63.0596 20.9022 61.6653C21.2542 60.9751 21.9018 60.4292 22.5206 59.8696C23.2094 59.2481 23.2644 58.1096 23.4377 57.2062Z" fill="white"/>
<path d="M42.4674 58.2677C42.4637 58.2842 42.46 58.3007 42.4564 58.3172C42.4536 58.3282 42.4467 58.3323 42.4357 58.3295L40.0212 57.8084C40.0102 57.8055 39.9985 57.8068 39.9884 57.8121C39.9783 57.8174 39.9706 57.8263 39.9668 57.8371C39.963 57.8478 39.9633 57.8596 39.9678 57.8701C39.9723 57.8806 39.9806 57.889 39.991 57.8937L41.3701 58.5867C41.3997 58.6016 41.4244 58.6249 41.4411 58.6536C41.4578 58.6823 41.4658 58.7152 41.4642 58.7483C41.4626 58.7815 41.4514 58.8135 41.4321 58.8404C41.4127 58.8673 41.3859 58.8881 41.355 58.9002C40.9003 59.0752 40.5263 59.2178 40.233 59.3278C39.7187 59.5194 39.452 59.8984 39.4327 60.4649C39.3979 61.509 39.3406 62.5517 39.2609 63.593C39.2127 64.2187 39.5262 64.8333 39.7751 65.4397C40.2371 66.5626 40.7129 67.6795 41.2024 68.7905C41.5764 69.643 42.2254 70.3498 42.7974 71.0813C42.8171 71.1064 42.8263 71.1382 42.8233 71.1701C42.8202 71.2021 42.805 71.2318 42.7809 71.2532C42.7735 71.2596 42.741 71.2577 42.6832 71.2477C42.6603 71.1202 42.6333 71.0341 42.6021 70.9892C42.1195 70.3044 41.3949 69.5825 40.9837 68.5774C40.4392 67.2455 39.8892 65.9163 39.3337 64.5899C39.0601 63.9368 39.2265 63.3029 39.2306 62.7543C39.2361 62.0595 39.2576 61.3655 39.2952 60.6725C39.375 59.2082 40.2509 59.3429 41.2766 58.8135C41.2987 58.8022 41.317 58.7847 41.3294 58.7632C41.3417 58.7416 41.3475 58.717 41.346 58.6922C41.3446 58.6674 41.3359 58.6436 41.3212 58.6236C41.3064 58.6036 41.2861 58.5884 41.2629 58.5798C40.7275 58.3836 40.2183 58.1306 39.7352 57.8208C39.7142 57.8081 39.6986 57.7881 39.6913 57.7646C39.684 57.7411 39.6856 57.7157 39.6958 57.6934C39.706 57.671 39.724 57.6531 39.7465 57.6431C39.769 57.6332 39.7943 57.6318 39.8177 57.6393C40.629 57.8804 41.4544 58.0596 42.2941 58.1769C42.3317 58.1824 42.3661 58.1962 42.3972 58.2182L42.4674 58.2677Z" fill="#A49C9F"/>
<path d="M55.1821 58.6031C54.9126 59.6472 54.6303 60.6794 54.3351 61.6997C54.3709 61.7125 54.3457 61.7221 54.2595 61.7285L55.0474 58.8465C55.0536 58.8238 55.0537 58.7999 55.0479 58.7771C55.0421 58.7544 55.0305 58.7335 55.0142 58.7167C54.9979 58.6999 54.9776 58.6877 54.9552 58.6812C54.9328 58.6748 54.9091 58.6745 54.8865 58.6801L52.4624 59.2618C53.3232 58.9684 54.2297 58.7489 55.1821 58.6031Z" fill="#A49C9F"/>
<path d="M42.5098 58.9813C42.519 59.0418 42.5089 59.0611 42.4796 59.0391C42.1652 59.3654 41.9328 59.5552 41.7824 59.6083C41.3246 59.7719 40.3387 60.0291 40.2548 60.5887C40.0458 61.9857 40.0069 63.2049 40.1379 64.2462C40.2094 64.8113 40.6673 65.624 40.8612 66.1217C41.1169 66.7817 41.3869 67.4362 41.6711 68.0852C41.8388 68.4693 42.0538 68.8346 42.3159 69.1811C42.9888 70.073 43.5718 70.8182 44.0649 71.4168C44.2144 71.5983 44.3202 71.7702 44.3826 71.9324C43.6263 71.0231 42.8989 70.0964 42.2004 69.1522C41.9557 68.8222 41.7508 68.462 41.5858 68.0715C41.0725 66.8624 40.5706 65.6487 40.0802 64.4304C39.983 64.1884 39.9532 63.7031 39.9908 62.9743C40.0302 62.2181 40.0752 61.4618 40.1256 60.7056C40.1338 60.5837 40.1563 60.4631 40.1929 60.3439C40.2076 60.2981 40.2337 60.261 40.2713 60.2326C40.9341 59.7321 41.7247 59.7156 42.3682 59.0542C42.3884 59.034 42.4356 59.0097 42.5098 58.9813Z" fill="#A49C9F"/>
<path d="M42.5102 58.9812L43.2967 58.9592C45.4261 61.811 47.5592 64.6724 49.696 67.5434C50.3184 68.3794 50.7034 69.0009 50.851 69.4079C51.203 70.3731 51.1865 71.7014 50.5526 72.5676C50.4123 72.7583 50.1836 72.9902 49.8665 73.2634C48.6592 74.3019 47.4616 75.3309 46.2736 76.3502C46.256 76.3651 46.2432 76.3849 46.237 76.4071C46.2307 76.4293 46.2313 76.4529 46.2385 76.4748C46.2457 76.4966 46.2594 76.5159 46.2776 76.5299C46.2959 76.544 46.318 76.5523 46.341 76.5537C48.3897 76.6995 50.4197 76.8636 52.4308 77.046C52.8708 77.0854 53.4506 77.1216 54.1702 77.1546C54.7505 77.1812 55.3307 77.222 55.911 77.277C58.4107 77.5135 60.9141 77.7023 63.4212 77.8435C63.6687 77.8572 63.8951 77.9086 64.1005 77.9975C58.4905 77.5832 52.8846 77.1647 47.2828 76.7421C46.8483 76.71 46.4698 76.6591 46.1471 76.5895C45.9968 76.5565 45.9803 76.49 46.0976 76.3901C47.2214 75.4395 48.2903 74.5196 49.3041 73.6305C50.0374 72.9879 50.4903 72.5007 50.6626 72.1689C51.2882 70.9699 50.9458 69.3872 50.1635 68.3271C47.9098 65.2732 45.6287 62.2386 43.3861 59.1779C43.3739 59.1618 43.3586 59.1484 43.3411 59.1384C43.3236 59.1285 43.3043 59.1223 43.2844 59.1201L42.48 59.039C42.5093 59.061 42.5194 59.0417 42.5102 58.9812Z" fill="#CFA9B4"/>
<path d="M52.3043 59.2948C52.8964 60.1115 53.4973 60.9081 54.1069 61.6846C54.1289 61.713 54.1477 61.7666 54.1633 61.8454C54.1688 61.8711 54.1541 61.8839 54.1193 61.8839C53.5234 61.102 52.9335 60.3151 52.3496 59.5231C52.2543 59.3929 52.2392 59.3168 52.3043 59.2948Z" fill="#A49C9F"/>
<path d="M21.709 61.9252C21.3652 62.3474 21.2759 62.7722 21.038 63.226C21.0197 63.2608 21.0105 63.2585 21.0105 63.2191C21.0013 62.34 21.2667 61.6282 21.8066 61.0837C22.2549 60.63 22.6774 60.1758 23.0744 59.7211C23.0826 59.7128 23.0935 59.7076 23.1052 59.7066C23.1169 59.7056 23.1286 59.7087 23.1381 59.7155C23.1477 59.7223 23.1546 59.7322 23.1575 59.7436C23.1604 59.7549 23.1592 59.7669 23.1541 59.7775C22.7279 60.5475 22.2461 61.2634 21.709 61.9252Z" fill="#342D37"/>
<path d="M24.4053 60.436C24.4685 60.5231 24.5249 60.6478 24.5744 60.81C25.1821 62.7946 25.6565 64.4409 25.9975 65.749C25.5254 67.311 25.0291 68.8222 24.5084 70.2824C24.3599 70.6963 24.3241 70.9617 24.5153 71.3329C24.7389 71.7683 24.931 72.1185 25.0914 72.3834L23.2544 74.3854C23.6696 73.8162 24.1417 73.301 24.6706 72.8399C24.7981 72.7299 24.8925 72.5576 24.9539 72.3229C24.9591 72.3017 24.9598 72.2798 24.956 72.2587C24.9522 72.2376 24.944 72.2178 24.9319 72.2005C24.5166 71.6024 24.1523 71.0882 24.4053 70.3622C24.9342 68.8405 25.4361 67.3106 25.9109 65.7724C25.9243 65.7293 25.9248 65.6834 25.9123 65.6404L24.4053 60.436Z" fill="#CFA9B4"/>
<path d="M24.1402 61.0754C24.1521 61.0727 24.1636 61.0965 24.1746 61.1469C24.1031 61.5365 23.9899 61.916 23.835 62.2854C23.4765 63.1425 23.1277 64.0046 22.7886 64.8718C22.6717 65.1729 22.6428 65.5125 22.5122 65.8274C22.5159 65.5533 22.5466 65.3356 22.6043 65.1743C22.8546 64.474 23.295 63.363 23.9257 61.8413C23.9954 61.6735 24.0669 61.4182 24.1402 61.0754Z" fill="#A49C9F"/>
<path d="M20.315 61.6117C19.633 63.3873 20.0519 64.8471 21.5717 65.9911C21.778 66.146 22.0369 66.3302 22.3486 66.5438C20.7729 65.827 19.952 64.683 19.886 63.1118C19.8667 62.6471 20.0097 62.147 20.315 61.6117Z" fill="#CFA9B4"/>
<path d="M65.0163 72.0424C64.3852 72.0589 63.6138 72.052 63.9246 71.1101C63.9383 71.068 63.9351 71.0267 63.9149 70.9864C63.6839 70.5427 63.4039 70.1353 63.0748 69.764C62.8713 69.533 62.9139 69.0518 62.9951 68.7094C63.3594 67.1749 63.5244 65.3736 63.1436 63.8226C63.1393 63.8046 63.1292 63.7884 63.1148 63.7767C63.1005 63.765 63.0826 63.7584 63.064 63.7579C63.0455 63.7574 63.0273 63.7631 63.0123 63.7741C62.9974 63.7851 62.9865 63.8007 62.9813 63.8185C62.3167 65.9644 61.6407 68.0966 60.9532 70.215C60.7919 70.7128 60.8748 71.1078 61.2021 71.4003C63.2013 73.1841 65.1891 74.984 67.1654 76.7999C67.1855 76.8183 67.1989 76.843 67.2034 76.8699C67.2078 76.8968 67.2032 76.9244 67.1902 76.9484C66.9537 77.3856 66.6544 77.7601 66.2923 78.0718C66.2089 78.0048 66.2052 77.992 66.2813 78.0333L67.1201 76.9704C67.1298 76.9579 67.1345 76.9422 67.1332 76.9264C67.1319 76.9106 67.1248 76.8959 67.1132 76.8851C65.0159 74.9611 62.9694 73.0938 60.9738 71.2834C60.7217 71.0542 60.6594 70.7444 60.7868 70.3539C61.5367 68.0613 62.2705 65.7765 62.9882 63.4995C62.993 63.484 63.0027 63.4706 63.0158 63.4612C63.029 63.4518 63.0448 63.4468 63.0611 63.4472C63.0774 63.4475 63.0933 63.453 63.1064 63.4629C63.1195 63.4728 63.1291 63.4866 63.1339 63.5023C63.6523 65.3283 63.5107 67.1886 63.0006 68.9995C62.7929 69.7338 63.9562 70.347 63.9933 71.084C64.0346 71.9283 64.0868 72.008 65.0163 72.0424Z" fill="#A49C9F"/>
<path d="M44.23 72.0658L43.8478 72.103C42.382 72.0397 40.9145 71.9641 39.445 71.8761C39.2727 71.866 39.1297 71.7597 39.016 71.5571C39.0061 71.5391 39.0009 71.5192 39.0009 71.4993L38.9872 70.6757C38.9863 70.6499 38.9771 70.6253 38.961 70.6056C38.4592 69.9923 37.8005 69.2746 37.6782 68.4702C37.5984 67.9441 37.4545 67.4353 37.2464 66.944C36.9522 66.2501 36.6744 65.5493 36.4132 64.8416C36.3893 64.7783 36.3476 64.7614 36.288 64.7907C36.2532 64.7238 36.2454 64.6624 36.2647 64.6065C36.2683 64.5951 36.2753 64.5852 36.2847 64.578C36.2942 64.5708 36.3057 64.5667 36.3175 64.5662C36.3294 64.5658 36.3412 64.569 36.3511 64.5755C36.3611 64.5819 36.3689 64.5913 36.3733 64.6023C36.805 65.5859 37.2015 66.5823 37.5627 67.5916C37.6287 67.7777 37.6768 68.0275 37.707 68.341C37.7813 69.1165 38.5403 69.9332 39.005 70.5368C39.2745 70.8875 38.8057 71.6767 39.4258 71.7633C41.0057 71.9833 42.635 71.9723 44.23 72.0658Z" fill="#A49C9F"/>
<path d="M36.2168 64.8608C36.2525 65.0048 36.2544 65.1216 36.2223 65.2115C35.6109 66.9403 35.1645 68.3423 34.8831 69.4176C34.7414 69.9621 34.9504 70.3787 35.3423 70.8022C36.006 71.5181 36.6609 72.2405 37.3072 72.9692C37.6757 73.3858 38.348 74.0582 38.7977 74.677C38.8307 74.7219 38.8224 74.7576 38.7729 74.7842L36.8053 75.8402C36.7379 75.8761 36.6615 75.8919 36.5853 75.8856L30.9561 75.414C30.957 75.4048 30.9652 75.3933 30.9808 75.3796C30.9955 75.3668 31.0133 75.3608 31.0344 75.3617L36.6609 75.7976L38.6299 74.7883C38.6468 74.7795 38.6614 74.767 38.6727 74.7517C38.684 74.7365 38.6916 74.7188 38.6951 74.7001C38.6985 74.6814 38.6976 74.6622 38.6926 74.6439C38.6875 74.6256 38.6783 74.6087 38.6657 74.5945C37.5895 73.401 36.5042 72.1969 35.4097 70.9823C35.0687 70.6042 34.7813 70.4062 34.7414 69.8576C34.7268 69.6651 34.7822 69.3681 34.9078 68.9666C35.3368 67.5971 35.7731 66.2285 36.2168 64.8608Z" fill="#CFA9B4"/>
<path d="M25.9976 65.7491L26.3619 66.9976C25.9705 68.1893 25.5896 69.3457 25.2193 70.4668C25.0708 70.9123 25.4462 71.3921 25.6799 71.7414L25.0914 72.3835C24.931 72.1186 24.739 71.7684 24.5153 71.333C24.3242 70.9618 24.3599 70.6964 24.5084 70.2825C25.0291 68.8223 25.5255 67.3111 25.9976 65.7491Z" fill="#342D37"/>
<path d="M64.1456 66.0392C64.1374 66.9714 64.0494 67.8973 63.8816 68.8167C63.7565 69.4987 64.3711 70.2247 64.7877 70.7032C64.8172 70.7372 64.8355 70.7799 64.84 70.8256C64.8666 71.1216 65.0146 71.2582 65.2841 71.2353C65.1723 71.2637 65.0627 71.2665 64.9555 71.2436C64.9329 71.239 64.9121 71.2282 64.8955 71.2124C64.879 71.1965 64.8673 71.1763 64.862 71.1542C64.6021 70.1257 63.6685 69.9167 63.8252 68.7864C63.9517 67.8725 64.0585 66.9568 64.1456 66.0392Z" fill="#CFA9B4"/>
<path d="M26.362 66.9976C26.593 67.6181 26.659 68.2616 26.56 68.9281L26.4706 67.6218C26.4683 67.5948 26.4569 67.5693 26.4381 67.5497C26.4193 67.5301 26.3944 67.5176 26.3675 67.5142C26.3406 67.5108 26.3133 67.5168 26.2903 67.5311C26.2672 67.5455 26.2498 67.5673 26.241 67.5929C25.932 68.5288 25.625 69.4978 25.3197 70.4997C25.2005 70.8884 25.3481 71.2752 25.7625 71.6602C25.7423 71.6089 25.7647 71.6075 25.8298 71.6561L25.68 71.7413C25.4462 71.3921 25.0708 70.9122 25.2193 70.4667C25.5897 69.3456 25.9705 68.1892 26.362 66.9976Z" fill="#A49C9F"/>
<path d="M26.5587 69.6238C26.5852 70.3809 26.3423 71.0584 25.8299 71.656C25.7648 71.6075 25.7424 71.6088 25.7625 71.6602C26.1796 71.0405 26.445 70.3617 26.5587 69.6238Z" fill="#CFA9B4"/>
<path d="M42.3587 71.1995C42.168 71.1876 41.9934 71.1055 41.8348 70.9534C41.8252 70.9444 41.8137 70.9378 41.8011 70.934C41.7885 70.9303 41.7752 70.9295 41.7624 70.9318C41.7495 70.934 41.7374 70.9393 41.7271 70.9471C41.7168 70.9549 41.7084 70.9651 41.7028 70.9768L41.6355 71.117C41.628 71.1318 41.6165 71.1441 41.6023 71.1524C41.5882 71.1607 41.572 71.1646 41.5557 71.1638L40.189 71.0978L41.4952 71.095C41.552 71.095 41.585 71.0671 41.5942 71.0111L41.6341 70.7691C41.6358 70.7598 41.6398 70.7511 41.6458 70.7438C41.6518 70.7364 41.6595 70.7307 41.6683 70.7272C41.6771 70.7236 41.6866 70.7223 41.696 70.7234C41.7054 70.7245 41.7144 70.7279 41.7221 70.7334L42.3587 71.1995Z" fill="#A49C9F"/>
<path d="M67.121 70.9686C67.0531 70.9521 66.9876 71.0048 66.9244 71.1267L66.9161 70.9177C66.9143 70.8618 66.9399 70.8425 66.9931 70.86C67.0389 70.8755 67.0816 70.9118 67.121 70.9686Z" fill="#A49C9F"/>
<path d="M44.4265 71.9393C44.5292 72.0292 44.5448 72.0869 44.4733 72.1126C44.2679 72.1877 44.0594 72.1845 43.8477 72.103L44.2299 72.0658C44.3142 72.0402 44.3798 71.998 44.4265 71.9393Z" fill="#CFA9B4"/>
<path d="M25.1495 74.9643L23.626 74.831C24.1265 74.7705 24.6343 74.8149 25.1495 74.9643Z" fill="#CFA9B4"/>
<path d="M30.5724 75.3947L25.6196 74.9808C27.2385 75.0597 28.8509 75.1756 30.4569 75.3287C30.5009 75.3328 30.5517 75.3617 30.5724 75.3947Z" fill="#CFA9B4"/>
<path d="M65.7079 78.0924L64.6753 78.0112C65.009 77.9654 65.3532 77.9925 65.7079 78.0924Z" fill="#CFA9B4"/>
</svg>
