<svg width="100" height="100" viewBox="0 0 100 100" fill="none" xmlns="http://www.w3.org/2000/svg">
<rect width="100" height="100" fill="#FDFFFB"/>
<path d="M84.5119 22.045C84.4825 22.0666 84.4655 22.0842 84.465 22.1244C84.456 22.9398 84.4369 23.7548 84.4077 24.5695C84.407 24.5881 84.3974 24.5982 84.3789 24.5999C82.8461 24.7484 81.3114 24.8749 79.7748 24.9794C79.4479 25.0016 78.855 25.0774 78.6173 25.3125C78.4351 25.493 78.2964 25.7338 78.2012 26.0349C74.1628 38.82 70.1313 51.6073 66.1067 64.3969C65.5082 66.2992 64.9123 68.202 64.319 70.1054C64.2045 70.4728 64.226 70.8063 64.3834 71.1057C64.4549 71.2411 64.6196 71.4261 64.8774 71.6605C66.8234 73.4315 68.7676 75.2037 70.7102 76.9771C70.716 76.9823 70.7189 76.9886 70.7189 76.9962C70.7193 77.001 70.721 77.006 70.7241 77.0111L50.9942 75.5019C50.9602 75.4995 50.9561 75.4871 50.9818 75.4648C52.1832 74.4297 53.3819 73.3933 54.5778 72.3556C54.9291 72.0506 55.172 71.8088 55.3064 71.6301C55.8722 70.8783 56.031 69.9923 55.7828 68.972C55.6323 68.3526 55.3892 67.8168 55.0537 67.3648C51.6186 62.7393 48.1842 58.1131 44.7505 53.4863L43.3661 51.7022C43.364 51.6995 43.3612 51.6974 43.3581 51.6961C43.3549 51.6949 43.3514 51.6946 43.3481 51.6951C43.3447 51.6957 43.3416 51.6972 43.339 51.6995C43.3365 51.7017 43.3346 51.7046 43.3336 51.7079C41.5144 57.432 39.695 63.159 37.8752 68.889C37.7246 69.3639 37.5385 69.9084 37.8071 70.3921C37.8466 70.4629 37.9831 70.6243 38.2165 70.8762C39.4045 72.1577 40.5908 73.4404 41.7754 74.7243C41.7857 74.736 41.7848 74.7505 41.7728 74.7677L28.4459 73.7297C28.415 73.7273 28.41 73.7147 28.431 73.6921C29.3127 72.7251 30.1992 71.7524 31.0906 70.7741C31.3102 70.5332 31.4673 70.3274 31.5619 70.1569C32.0177 69.3355 32.013 68.4595 31.9744 67.5489C31.9499 66.9772 31.8559 66.4157 31.6923 65.8643C30.3348 61.2832 28.9734 56.694 27.608 52.0966L27.0233 50.1259L24.6556 42.1461L23.7419 39.0699C23.6305 38.6471 23.4801 38.2344 23.2907 37.8319C23.286 37.8221 23.2785 37.8141 23.2691 37.8087C23.2381 37.7915 23.2359 37.7875 23.2624 37.7968C23.1836 37.6428 23.0724 37.5285 22.9287 37.4539C22.8445 37.4103 22.7265 37.3883 22.5745 37.3879C21.0493 37.3841 20.037 37.3831 19.5375 37.3848C19.489 37.3852 19.4151 37.3926 19.3158 37.407L19.2704 37.3946C19.2535 37.3905 19.2456 37.3797 19.2467 37.3621L19.3276 35.7751C19.3283 35.7551 19.3386 35.7448 19.3586 35.7441L31.2886 35.312L31.2664 37.2528C31.2661 37.281 31.252 37.2953 31.2241 37.2956C30.484 37.3056 29.7424 37.3137 28.9992 37.3199C28.1943 37.3271 27.6766 38.0608 27.6942 38.792C27.7014 39.074 27.7859 39.3153 27.8731 39.6087C29.9311 46.5363 31.9876 53.4606 34.0425 60.3817C34.0436 60.385 34.0458 60.3879 34.0486 60.3899C34.0515 60.392 34.0549 60.393 34.0584 60.393C34.0619 60.3929 34.0653 60.3917 34.0681 60.3896C34.0709 60.3875 34.073 60.3846 34.074 60.3812L35.1532 56.6419L38.183 46.0056C38.5625 44.6763 38.942 43.3422 39.3215 42.0033C39.3236 41.9964 39.3193 41.9882 39.3086 41.9785C39.3227 41.9803 39.3337 41.967 39.3416 41.9388C39.4901 41.4222 39.6362 40.9079 39.7799 40.3961L41.0406 35.9163L41.7542 33.429C41.7893 33.1921 41.7905 32.9756 41.7578 32.7793C41.5784 32.3049 41.2314 32.0794 40.7168 32.1028C39.3909 32.1629 38.0653 32.2262 36.7398 32.2925L36.8393 30.3821C36.8376 30.3433 36.8419 30.3139 36.8522 30.294C36.8614 30.2764 36.885 30.2661 36.9228 30.263C43.1282 29.7962 49.3354 29.3303 55.5446 28.8652L55.4291 31.3546C55.4287 31.3614 55.4259 31.3678 55.4211 31.3726C55.4163 31.3773 55.41 31.3801 55.4033 31.3804C53.9644 31.4395 52.5229 31.4971 51.0788 31.5531C50.5436 31.5737 50.1378 31.5794 49.7876 31.8522C49.6158 31.9862 49.5073 32.1249 49.4623 32.2683C48.2014 36.2692 46.9405 40.2699 45.6797 44.2705C45.5729 44.6093 45.3161 45.1037 45.5606 45.4332C49.8701 51.244 54.1806 57.0546 58.4919 62.865C58.5046 62.8821 58.5143 62.8804 58.5208 62.8598C58.6878 62.3215 58.8403 61.7852 58.9781 61.2511C58.9826 61.2342 58.9745 61.2053 58.9539 61.1644C58.9738 61.1679 58.9862 61.1618 58.991 61.1464C59.2179 60.376 59.4462 59.587 59.6758 58.7791C59.6995 58.7324 59.7103 58.6846 59.7083 58.6358L61.5073 52.373L61.5372 52.2627C61.9906 50.7055 62.3295 49.5201 62.554 48.7064C62.5585 48.6899 62.553 48.6753 62.5375 48.6626C62.5757 48.6698 62.5994 48.6256 62.6087 48.5301C64.6186 41.5183 66.6262 34.5109 68.6317 27.508C68.6887 27.3097 68.7097 27.121 68.6946 26.9419C68.7415 26.3463 68.231 26.0189 67.6845 26.0612C65.8224 26.2059 64.4584 26.3183 63.5925 26.3984L63.7327 24.0678C63.7333 24.0589 63.737 24.0504 63.7433 24.044C63.7495 24.0376 63.7578 24.0336 63.7668 24.0327C70.6882 23.3518 77.5929 22.6742 84.4809 22.0001C84.4971 21.9984 84.5074 22.0134 84.5119 22.045Z" fill="#BD2031"/>
<path d="M84.5118 22.0449C84.6128 22.3045 84.7141 22.5648 84.8155 22.8261C84.8488 22.9131 84.8646 23.0031 84.8629 23.0963C84.8481 23.8941 84.833 24.6865 84.8175 25.4733C84.8172 25.4887 84.8112 25.5034 84.8007 25.5145C84.7902 25.5257 84.776 25.5325 84.7608 25.5336C83.1854 25.6632 81.614 25.7992 80.0465 25.9415C79.3071 26.009 79.0693 26.5566 78.8569 27.1986C78.6159 27.9263 78.3813 28.6587 78.1531 29.3957C78.1404 29.408 78.1335 29.4276 78.1325 29.4545L77.8334 30.4197L77.5843 31.1885L76.4649 34.7149C76.4319 34.7726 76.4312 34.8015 76.4629 34.8015C76.4577 34.8029 76.4524 34.8046 76.4469 34.8066C76.4397 34.8097 76.4349 34.8151 76.4324 34.8226L76.3082 35.2372L76.2736 35.314L71.3015 50.99L71.2411 51.1803L69.0219 58.1799L68.9951 58.2645L66.7387 65.3811C66.7164 65.4351 66.7074 65.485 66.7119 65.5307L65.8956 68.0547L65.7611 68.495C65.5909 68.9763 65.4706 69.3539 65.4001 69.6278C65.3252 69.9197 65.4141 70.1615 65.6667 70.3533C65.7258 70.4152 65.7551 70.4267 65.7544 70.3879C65.7564 70.4205 65.7631 70.4418 65.7745 70.4518C66.7232 71.3156 67.3653 71.9033 67.7008 72.2147C67.7528 72.2628 67.8033 72.294 67.8524 72.308C67.8604 72.2919 67.8531 72.2995 67.8308 72.3307L68.5403 72.984L68.6579 73.0918L71.3288 75.5374L71.6763 75.839L70.7915 76.9904C70.7809 77.0042 70.7669 77.0111 70.7497 77.0111H70.724C70.7209 77.0059 70.7191 77.0009 70.7188 76.9961C70.7188 76.9885 70.7159 76.9822 70.71 76.977C68.7675 75.2036 66.8233 73.4314 64.8773 71.6604C64.6195 71.426 64.4548 71.2411 64.3833 71.1056C64.2259 70.8062 64.2044 70.4728 64.3189 70.1053C64.9122 68.202 65.5081 66.2991 66.1065 64.3968C70.1312 51.6073 74.1627 38.8199 78.201 26.0348C78.2963 25.7337 78.435 25.4929 78.6171 25.3124C78.8549 25.0773 79.4478 25.0015 79.7747 24.9793C81.3113 24.8748 82.846 24.7483 84.3787 24.5998C84.3973 24.5981 84.4069 24.588 84.4076 24.5694C84.4368 23.7547 84.4559 22.9397 84.4648 22.1243C84.4654 22.0841 84.4824 22.0666 84.5118 22.0449Z" fill="#342D37"/>
<path d="M68.6949 26.9419L64.8231 27.2446C64.8048 27.246 64.7883 27.2415 64.7736 27.2312L63.5928 26.3985C64.4587 26.3184 65.8227 26.206 67.6848 26.0613C68.2313 26.019 68.7418 26.3464 68.6949 26.9419Z" fill="#342D37"/>
<path d="M55.5448 28.8652C55.5393 28.8707 55.5443 28.8716 55.5597 28.8678C55.567 28.8658 55.574 28.8664 55.5809 28.8699L57.0318 29.5809C57.0521 29.5909 57.0617 29.6072 57.0607 29.6299L56.9679 32.0508C56.9676 32.0585 56.9644 32.0658 56.9589 32.0713C56.9533 32.0767 56.9458 32.0799 56.938 32.0802C55.5493 32.1286 54.1626 32.1768 52.7779 32.2245C52.4294 32.2366 52.1845 32.2665 52.0432 32.3142C51.6632 32.4426 51.3667 32.6943 51.2414 33.0856C51.1472 33.3792 51.054 33.6722 50.9619 33.9648L47.8419 43.7436C47.8085 43.8288 47.7635 43.9663 47.7068 44.1561C47.6775 44.2534 47.6085 44.468 47.4995 44.8001C47.4856 44.8424 47.4459 44.8759 47.451 44.9393C47.4524 44.9575 47.4502 44.9754 47.4443 44.993L47.3273 45.324C47.3181 45.3502 47.3154 45.3782 47.3194 45.4056C47.3234 45.433 47.3341 45.459 47.3505 45.4812L48.045 46.429L48.1383 46.5507L49.6522 48.5972C49.6725 48.645 49.7053 48.6895 49.7507 48.7307L50.6799 49.9832L50.8015 50.1523L51.9782 51.7451C51.993 51.7915 52.016 51.8221 52.0473 51.8368L52.5521 52.5113C52.5741 52.5639 52.6073 52.6099 52.6516 52.6495L53.884 54.3129C53.9029 54.3569 53.9343 54.3998 53.9783 54.4418C53.9955 54.4576 54.0101 54.4799 54.0221 54.5088L54.1614 54.6857L54.6388 55.3348C54.6495 55.3727 54.6749 55.406 54.7151 55.4349L54.8961 55.6834L54.9817 55.7958L55.2003 56.0928L55.3509 56.3022L55.6897 56.7549L55.7835 56.8864L56.9591 58.4698L57.0844 58.6261L57.6228 59.3634L57.7872 59.5924L58.9541 61.1645C58.9747 61.2054 58.9828 61.2343 58.9783 61.2511C58.8405 61.7853 58.688 62.3216 58.521 62.8599C58.5144 62.8805 58.5048 62.8822 58.4921 62.865C54.1808 57.0546 49.8703 51.244 45.5607 45.4333C45.3163 45.1038 45.5731 44.6093 45.6798 44.2706C46.9407 40.27 48.2016 36.2693 49.4625 32.2684C49.5075 32.125 49.616 31.9863 49.7878 31.8523C50.1379 31.5795 50.5437 31.5738 51.079 31.5532C52.523 31.4972 53.9646 31.4396 55.4035 31.3805C55.4102 31.3802 55.4165 31.3774 55.4213 31.3726C55.4261 31.3679 55.4289 31.3615 55.4293 31.3547L55.5448 28.8652Z" fill="#342D37"/>
<path d="M78.1533 29.3958C78.4564 29.6917 78.7601 30.0264 78.9092 30.4255C79.0082 30.6915 79.1216 30.9495 79.2495 31.1994C79.3567 31.4082 79.5207 31.3773 79.6527 31.2175C80.0441 30.7436 79.8811 30.3285 79.8265 29.7871C79.8247 29.7703 79.8302 29.7562 79.843 29.7448C80.0539 29.5571 80.2993 29.7469 80.4586 29.8985C80.5339 29.97 80.5963 30.0649 80.6458 30.1831C80.8293 30.6209 80.8226 31.0648 80.7855 31.484C80.7687 31.6786 80.8465 31.784 81.0191 31.8001C81.0373 31.8018 81.0516 31.7953 81.0619 31.7805C81.306 31.4326 81.3573 31.0554 81.2161 30.6487C81.191 30.5755 81.1884 30.4817 81.2083 30.3672C81.2118 30.3486 81.2228 30.3376 81.2413 30.3342C81.4373 30.3002 81.5902 30.3723 81.7002 30.5508C81.8525 30.7976 81.9532 31.049 82.0024 31.3051C82.0586 31.599 82.0132 31.9615 81.9895 32.2822C81.9826 32.3706 82.0101 32.4371 82.072 32.4818C82.0791 32.487 82.0874 32.4904 82.0962 32.4917C82.1049 32.4929 82.1138 32.492 82.122 32.489C82.4149 32.3845 82.6466 32.2049 82.8171 31.9502C82.847 31.9055 82.8542 31.8096 82.8387 31.6624C82.8367 31.6432 82.8434 31.6279 82.8588 31.6165L82.9738 31.532C82.9893 31.5203 83.0049 31.52 83.0208 31.531C83.3972 31.7934 83.4394 32.491 83.3776 32.9231C83.3717 32.9637 83.3428 33.0263 83.2909 33.1108C83.1858 33.2825 83.1899 33.5017 83.2208 33.6888C83.3523 34.4798 83.4379 35.26 82.8093 35.8622C82.8048 35.8665 82.8013 35.8718 82.7994 35.8778C82.7974 35.8837 82.797 35.89 82.7981 35.8962C82.7992 35.9024 82.8019 35.9083 82.8058 35.9132C82.8098 35.9182 82.8149 35.9221 82.8207 35.9246C83.1937 36.0796 83.524 36.2969 83.8117 36.5763C83.908 36.6702 83.9886 36.7836 84.0535 36.9167C84.1639 37.1425 84.4465 37.6989 84.4047 37.9371C84.4019 37.9532 84.3925 37.9632 84.3763 37.967C84.1539 38.0168 83.9851 37.9483 83.87 37.7613C83.8658 37.7544 83.8601 37.7485 83.8535 37.744C83.8468 37.7395 83.8393 37.7364 83.8313 37.735C82.9372 37.5741 82.0839 37.4584 81.2712 37.3879C81.1616 37.3783 81.0332 37.3811 80.8861 37.3962C80.8776 37.397 80.8695 37.4001 80.8627 37.4053C80.856 37.4105 80.8508 37.4176 80.8479 37.4256C80.7546 37.6741 81.2207 38.1552 81.347 38.3444C81.6313 38.7679 81.8123 39.2356 81.89 39.7474C81.9374 40.0568 82.0395 40.4544 82.0364 40.8174C82.0337 41.136 82.018 41.454 81.9895 41.7713C81.9833 41.8404 81.9075 41.9822 81.8673 42.0775C81.6559 42.5829 81.0861 42.867 80.5566 42.7953C80.5418 42.7932 80.5337 42.7998 80.5323 42.8149C80.4698 43.5918 80.5922 44.3276 80.8995 45.0223C81.3434 46.0257 82.0668 46.9053 82.3608 47.9644C82.4262 48.2006 82.4479 48.428 82.4438 48.6982C82.4341 49.3142 82.4436 50.0216 82.4721 50.8205C82.4861 51.2062 82.4329 51.5589 82.3443 51.9832C82.2019 52.6635 82.0605 53.344 81.9199 54.0246C81.8938 54.15 81.8513 54.2686 81.7925 54.3804C81.3909 55.1445 80.9938 55.9391 80.4813 56.6383C80.2407 56.9666 80.0016 57.296 79.7641 57.6267C79.3268 58.2347 78.7241 58.674 78.1641 59.1566C77.8836 59.3979 77.6125 59.6086 77.3509 59.7888C76.7573 60.1982 76.1499 60.5864 75.5287 60.9536C75.4153 61.0206 75.2934 61.072 75.1631 61.1077C74.8703 61.1875 74.5791 61.267 74.2897 61.3465C74.2547 61.356 74.2223 61.373 74.1945 61.3962C74.1667 61.4194 74.1443 61.4484 74.1288 61.481C73.8383 62.0919 73.5449 62.7093 73.2486 63.3332C73.2048 63.4255 73.1409 63.5172 73.0584 63.593C72.1055 64.4701 71.3486 65.1977 70.5875 66.1567C70.4823 66.2894 70.3946 66.4312 70.3245 66.5821C70.2121 66.8251 70.1059 67.0708 70.0059 67.3189C69.9528 67.452 69.8661 67.5071 69.7336 67.5303C69.547 67.5633 69.3814 67.6006 69.2371 67.6422C69.2206 67.647 69.2118 67.6581 69.2108 67.6752C69.1809 68.2751 69.1761 68.6508 69.1963 68.8024C69.2799 69.4325 69.3294 70.0878 69.4186 70.6911C69.4994 71.2373 69.5757 71.7841 69.6475 72.3313C69.6496 72.3485 69.6592 72.3581 69.6764 72.3602C70.0951 72.4076 70.5115 72.4709 70.9257 72.55C71.1444 72.5917 71.3233 72.6273 71.5172 72.7572C71.7327 72.9016 71.9542 73.036 72.1818 73.1605C72.2567 73.2014 72.3176 73.2971 72.3643 73.4477C72.3656 73.4516 72.3676 73.4553 72.3702 73.4585C72.3729 73.4617 72.3762 73.4643 72.3799 73.4663C72.3836 73.4682 72.3876 73.4693 72.3918 73.4697C72.3959 73.47 72.4001 73.4696 72.404 73.4683C72.6386 73.3935 72.8856 73.2914 73.1089 73.2693C73.2997 73.2503 73.4884 73.2636 73.675 73.309C73.6919 73.3131 73.7065 73.3213 73.7189 73.3337C73.8313 73.4461 73.9122 73.5513 74.0515 73.6451C74.2663 73.7899 74.4029 73.9922 74.4614 74.252C74.4652 74.2696 74.4762 74.2782 74.4944 74.2778C74.7766 74.2723 75.0556 74.2972 75.3312 74.3526C75.6855 74.4237 76.5352 74.8852 76.6358 75.2606C76.6388 75.2722 76.6385 75.2844 76.6348 75.2958C76.6312 75.3073 76.6244 75.3174 76.6152 75.3251C76.6061 75.3329 76.5949 75.3378 76.583 75.3395C76.5711 75.3411 76.559 75.3393 76.5481 75.3343C76.3151 75.2266 76.1573 75.1972 75.8974 75.2812C75.4722 75.4187 75.059 75.473 74.6578 75.4442C73.97 75.3943 73.282 75.3503 72.5938 75.3122C72.5776 75.3111 72.5725 75.3182 72.5783 75.3333C72.6412 75.5007 72.6472 75.6791 72.5964 75.8685C72.5111 76.1872 72.426 76.5069 72.3411 76.8276C72.3373 76.842 72.3282 76.8475 72.3138 76.8441C72.139 76.8033 72.1148 76.4945 72.0761 76.348C72.0441 76.226 71.9969 76.1279 71.9343 76.0536C71.8532 75.9577 71.7672 75.8862 71.6765 75.8391L71.329 75.5375C71.8791 75.8149 72.2318 76.098 72.2349 76.7049C72.2352 76.7135 72.2386 76.7216 72.2445 76.7279C72.2503 76.7342 72.2583 76.7382 72.2668 76.7391C72.2754 76.7399 72.284 76.7377 72.291 76.7327C72.298 76.7278 72.303 76.7204 72.305 76.7121C72.3714 76.4096 72.4448 76.1017 72.5252 75.7886C72.5733 75.6019 72.5524 75.4325 72.4623 75.2802C72.4582 75.2733 72.4561 75.2654 72.4561 75.2573C72.4562 75.2493 72.4583 75.2414 72.4624 75.2345C72.4666 75.2276 72.4724 75.222 72.4795 75.2181C72.4865 75.2143 72.4945 75.2124 72.5025 75.2126C73.278 75.2338 74.0489 75.3343 74.8254 75.3663C75.1272 75.3787 75.4368 75.3379 75.7541 75.2441C76.0511 75.1564 76.231 75.1276 76.4971 75.2276C76.5028 75.2299 76.5092 75.2303 76.5152 75.2285C76.5211 75.2267 76.5263 75.223 76.5299 75.2179C76.5334 75.2128 76.5351 75.2066 76.5347 75.2004C76.5342 75.1942 76.5317 75.1883 76.5275 75.1838C76.3346 74.9646 76.1702 74.812 75.8969 74.6831C75.8188 74.6463 75.7293 74.5966 75.6282 74.5341C75.3534 74.3639 74.8465 74.3572 74.514 74.3448C74.3552 74.339 74.1419 74.3461 73.8741 74.366C72.7072 74.4531 71.6162 74.3876 70.5101 74.002C70.4545 73.9824 70.3721 73.9442 70.2632 73.8875C70.0023 73.7508 69.7682 73.6957 69.714 73.3456C69.5325 72.1797 69.3948 71.0113 69.2371 69.8419C69.1376 69.1035 69.1138 68.4409 69.119 67.7253C69.119 67.7174 69.1172 67.7096 69.1137 67.7026C69.1101 67.6956 69.105 67.6895 69.0988 67.6848C69.0925 67.6801 69.0852 67.677 69.0775 67.6757C69.0698 67.6744 69.062 67.6749 69.0545 67.6773C68.7225 67.7784 68.3899 67.7576 68.0568 67.6149C68.0008 67.5912 67.9001 67.579 67.7546 67.5783C67.7371 67.5783 67.7296 67.5871 67.732 67.6046C67.8712 68.6106 68.1388 69.6006 68.4105 70.636C68.4518 70.7934 68.4519 70.9173 68.411 71.0077C68.3193 71.2119 68.1457 71.3503 67.8903 71.4228C67.7727 71.4563 67.7108 71.6497 67.8784 71.6899C68.0472 71.7301 68.2199 71.7396 68.3966 71.7183C68.4173 71.7157 68.4383 71.7203 68.4561 71.7313C68.4739 71.7422 68.4875 71.7589 68.4946 71.7786C68.6451 72.1998 68.6307 72.6464 68.658 73.0919L68.5405 72.9841L68.5286 72.4066C68.5283 72.3877 68.5186 72.3774 68.4997 72.3757L67.9135 72.3262L68.2512 72.303L68.4884 72.2999C68.5093 72.2995 68.5181 72.289 68.5147 72.2684L68.444 71.8353C68.4413 71.8188 68.4315 71.8105 68.4146 71.8105C68.1481 71.8095 67.9233 71.8729 67.6959 71.6538C67.6845 71.6431 67.6787 71.6299 67.6783 71.6141C67.6737 71.4527 67.7593 71.4022 67.9083 71.3424C68.0427 71.2884 68.1561 71.2056 68.2486 71.0938C68.3827 70.9319 68.3373 70.6463 68.2904 70.4653C68.0391 69.5007 67.8346 68.5886 67.6768 67.7289C67.6515 67.5902 67.5685 67.5077 67.4741 67.4148C67.2755 67.2213 67.0826 67.0319 66.8956 66.8466C66.8612 66.8123 66.8429 66.7707 66.8404 66.7218L66.7827 65.5132C66.7826 65.5091 66.7812 65.5052 66.7786 65.502C66.7761 65.4988 66.7726 65.4964 66.7687 65.4953C66.7647 65.4941 66.7604 65.4943 66.7565 65.4956C66.7525 65.497 66.7491 65.4995 66.7466 65.5029C66.7404 65.5118 66.7289 65.5211 66.7121 65.5308C66.7076 65.485 66.7165 65.4352 66.7389 65.3812C66.7633 65.3874 66.7782 65.3848 66.7837 65.3735C66.7882 65.3644 66.7956 65.3573 66.8048 65.3534C66.8139 65.3495 66.8243 65.349 66.8343 65.3519C66.8442 65.3549 66.8532 65.3611 66.8599 65.3697C66.8665 65.3783 66.8704 65.3887 66.8709 65.3993L66.9199 66.6765C66.9222 66.7344 66.9467 66.7892 66.9884 66.8296C67.1593 66.9953 67.3318 67.1667 67.5061 67.3437C67.6598 67.4994 67.8021 67.5273 68.0058 67.5546C68.3301 67.5984 68.5987 67.7397 68.9205 67.6536C69.2285 67.5707 69.5361 67.4901 69.8434 67.4118C69.8603 67.4076 69.8721 67.3975 69.879 67.3813C70.0041 67.0891 70.1361 66.7994 70.275 66.512C70.3445 66.3676 70.4314 66.2313 70.5359 66.1031C70.7291 65.8663 70.9249 65.6315 71.1232 65.3988C71.5105 64.9445 71.9776 64.5289 72.4149 64.0958C72.5763 63.9354 72.7938 63.7591 72.9697 63.5755C73.0577 63.4837 73.1342 63.3725 73.1991 63.2419C73.5037 62.6273 73.795 62.0123 74.0731 61.397C74.0844 61.372 74.1011 61.3498 74.1221 61.3321C74.143 61.3143 74.1677 61.3015 74.1943 61.2944C74.5157 61.2088 74.8426 61.1173 75.175 61.0201C75.3086 60.9809 75.4632 60.918 75.5638 60.8535C76.1736 60.4623 76.7798 60.0655 77.3824 59.6629C77.5969 59.5199 77.8052 59.3596 78.0073 59.1819C78.3772 58.8567 78.7488 58.5332 79.1221 58.2115C79.2761 58.0784 79.4112 57.9383 79.5274 57.7912C80.0124 57.1776 80.4615 56.5384 80.8747 55.8736C80.9314 55.7813 80.9763 55.6576 81.0423 55.5581C81.2862 55.1883 81.4811 54.7789 81.693 54.3902C81.7652 54.2575 81.8193 54.1031 81.8554 53.9271C81.9823 53.3084 82.109 52.6895 82.2355 52.0704C82.3123 51.696 82.3927 51.2593 82.384 50.9494C82.3647 50.254 82.3532 49.5582 82.3494 48.8621C82.3484 48.7379 82.3283 48.6177 82.3107 48.496C82.3081 48.4787 82.2995 48.4627 82.2865 48.4507C82.0833 48.2633 81.9216 48.0461 81.8013 47.7989C81.8009 47.7982 81.8003 47.7977 81.7995 47.7974C81.7987 47.7971 81.7979 47.7971 81.7971 47.7973C81.7964 47.7976 81.7957 47.798 81.7952 47.7987C81.7948 47.7994 81.7946 47.8002 81.7946 47.801C81.8281 48.0789 81.8647 48.4063 81.8235 48.6863C81.8215 48.7 81.8155 48.7127 81.8063 48.723C81.7971 48.7333 81.7852 48.7407 81.7718 48.7443C81.7585 48.7478 81.7444 48.7474 81.7314 48.7431C81.7183 48.7387 81.7067 48.7306 81.6982 48.7198C81.4213 48.3671 81.2336 47.9861 80.9897 47.619C80.9801 47.6049 80.9739 47.6063 80.9711 47.6231C80.9137 47.9744 80.9512 48.314 81.0835 48.642C81.1148 48.719 81.1289 48.7702 81.1258 48.7956C81.1141 48.9008 81.0588 48.9264 80.9598 48.8725C80.7384 48.7528 80.5387 48.6023 80.3606 48.4208C80.3578 48.4178 80.3541 48.4158 80.3501 48.415C80.3461 48.4142 80.342 48.4147 80.3382 48.4163C80.3344 48.4179 80.3313 48.4206 80.3291 48.4241C80.3269 48.4276 80.3259 48.4316 80.3261 48.4357L80.3632 49.65C80.3639 49.672 80.3533 49.6837 80.3313 49.6851C80.1358 49.6959 79.4923 48.9874 79.3562 48.8255C79.3543 48.8234 79.3518 48.822 79.349 48.8215C79.3462 48.821 79.3433 48.8214 79.3408 48.8227C79.3382 48.824 79.3362 48.8261 79.335 48.8286C79.3338 48.8312 79.3334 48.8341 79.334 48.8369L79.8821 50.9865C79.8955 51.0384 79.8797 51.0498 79.8347 51.0205L78.7735 50.3275C78.7697 50.3249 78.7652 50.3232 78.7606 50.3225C78.7559 50.3218 78.7512 50.3222 78.7466 50.3236C78.7421 50.325 78.7379 50.3273 78.7344 50.3305C78.7308 50.3337 78.728 50.3376 78.7261 50.342C78.5884 50.6617 78.6591 51.0401 78.6318 51.3975C78.6312 51.4055 78.6285 51.4133 78.6239 51.4199C78.6194 51.4265 78.6131 51.4318 78.6057 51.4353C78.5984 51.4387 78.5902 51.4401 78.5821 51.4393C78.574 51.4386 78.5662 51.4357 78.5596 51.431C78.4296 51.3382 78.3086 51.2271 78.1966 51.0979C77.9838 50.8535 77.7657 50.6127 77.5422 50.3755C77.5288 50.3614 77.5206 50.364 77.5175 50.3832C77.4666 50.6985 77.4407 51.0159 77.4396 51.3356C77.4391 51.5011 77.5113 51.6604 77.5087 51.8425C77.5086 51.8471 77.5073 51.8516 77.505 51.8556C77.5027 51.8596 77.4994 51.8629 77.4954 51.8653C77.4915 51.8676 77.4869 51.869 77.4823 51.8691C77.4777 51.8693 77.4731 51.8683 77.469 51.8662L76.6327 51.4155C76.6293 51.4136 76.6254 51.4127 76.6215 51.4129C76.6175 51.4131 76.6138 51.4144 76.6106 51.4167C76.6074 51.419 76.6049 51.4221 76.6034 51.4257C76.602 51.4293 76.6016 51.4333 76.6023 51.4372L76.8363 52.7314C76.8375 52.7376 76.8369 52.7439 76.8346 52.7498C76.8323 52.7556 76.8284 52.7607 76.8233 52.7644C76.8182 52.768 76.8122 52.7702 76.8059 52.7706C76.7996 52.7709 76.7934 52.7695 76.7879 52.7665L76.5821 52.6515C76.5677 52.6436 76.5583 52.6473 76.5538 52.6628C76.4331 53.0753 76.3223 53.4997 76.1464 53.8766C76.0014 54.1884 75.8396 54.4914 75.6612 54.7856C75.5344 54.995 75.3436 55.1739 75.1848 55.3714C75.017 55.579 74.895 55.723 74.8187 55.8035C74.5506 56.0854 74.2713 56.3557 73.9808 56.6146C73.8842 56.7008 73.7134 56.804 73.4683 56.9239C72.6237 57.3388 71.8126 57.636 71.0351 57.8155C70.3582 57.9715 69.6783 58.1212 68.9952 58.2646L69.0221 58.18C69.7965 58.0102 70.5676 57.8321 71.3351 57.6458C71.7081 57.5554 72.0364 57.4554 72.32 57.3457C72.7586 57.1766 73.1886 56.9867 73.6101 56.776C73.7056 56.7282 73.794 56.6696 73.8751 56.6001C74.4952 56.069 75.0519 55.4788 75.5452 54.8295C75.6612 54.6774 75.7391 54.4819 75.8396 54.3092C76.116 53.8348 76.2898 53.3507 76.4275 52.8072C76.4481 52.7247 76.4627 52.652 76.4713 52.5891C76.4724 52.5807 76.471 52.5722 76.4675 52.5645C76.4639 52.5569 76.4583 52.5504 76.4512 52.5458C76.1236 52.3299 75.8546 52.0583 75.6442 51.7311C75.5344 51.5604 75.4029 51.4165 75.2843 51.2526C75.2794 51.2457 75.2726 51.2403 75.2648 51.237C75.257 51.2337 75.2484 51.2326 75.24 51.2338C75.2316 51.235 75.2237 51.2385 75.2171 51.2439C75.2106 51.2493 75.2056 51.2564 75.2028 51.2644C75.1547 51.4026 75.1439 51.5508 75.1704 51.7089C75.2233 52.0238 75.2945 52.3485 75.3838 52.6829C75.3864 52.6926 75.3862 52.7027 75.3835 52.7123C75.3807 52.7218 75.3754 52.7305 75.3681 52.7372C75.3608 52.7439 75.3519 52.7486 75.3422 52.7505C75.3325 52.7525 75.3225 52.7518 75.3132 52.7484C74.9641 52.6247 74.679 52.4437 74.3876 52.1859C74.1685 51.9925 73.9437 51.8316 73.7761 51.5898C73.6496 51.4069 73.5271 51.2199 73.4085 51.0288C73.393 51.0037 73.3844 51.0058 73.3827 51.035C73.3564 51.4975 73.4807 52.025 73.5766 52.4777C73.5896 52.5389 73.5913 52.5968 73.5817 52.6515C73.5811 52.6554 73.5795 52.6591 73.577 52.6622C73.5745 52.6652 73.5712 52.6676 73.5674 52.669C73.5636 52.6704 73.5596 52.6708 73.5556 52.6702C73.5516 52.6696 73.5478 52.6679 73.5446 52.6654C73.0998 52.2955 72.7155 51.8715 72.3917 51.3933C72.1509 51.0386 72.0343 50.5632 71.9003 50.1517C71.8991 50.148 71.8969 50.1448 71.8938 50.1425C71.8906 50.1401 71.8869 50.1389 71.883 50.1389C71.8791 50.1389 71.8754 50.1401 71.8722 50.1425C71.8691 50.1448 71.8668 50.148 71.8657 50.1517L71.4496 51.4645C71.4476 51.4705 71.4439 51.4758 71.439 51.4796C71.434 51.4835 71.428 51.4859 71.4218 51.4864C71.4155 51.4869 71.4092 51.4855 71.4037 51.4824C71.3982 51.4794 71.3937 51.4747 71.3908 51.4691L71.2413 51.1804L71.3016 50.9901L71.3924 51.2485C71.3943 51.2541 71.398 51.2589 71.4029 51.2623C71.4078 51.2656 71.4136 51.2674 71.4195 51.2672C71.4254 51.267 71.4311 51.2649 71.4358 51.2613C71.4405 51.2577 71.4439 51.2526 71.4455 51.2469L71.8198 49.996C71.8229 49.9862 71.8288 49.9776 71.837 49.9713C71.8451 49.965 71.8549 49.9614 71.8651 49.9609C71.8754 49.9604 71.8855 49.963 71.8942 49.9685C71.9029 49.9739 71.9097 49.9819 71.9137 49.9914C72.0326 50.2808 72.1354 50.5763 72.222 50.8777C72.2605 51.0118 72.3105 51.1276 72.3721 51.2253C72.6718 51.701 73.0331 52.1209 73.4559 52.4849C73.4591 52.4876 73.4632 52.4893 73.4674 52.4897C73.4716 52.4901 73.4758 52.4893 73.4795 52.4872C73.4832 52.4852 73.4861 52.4821 73.4878 52.4784C73.4896 52.4746 73.4902 52.4704 73.4894 52.4664C73.431 52.1205 73.3684 51.7787 73.3017 51.4408C73.2619 51.2387 73.2591 51.0463 73.2935 50.8638C73.2958 50.8518 73.3016 50.8407 73.3102 50.832C73.3188 50.8233 73.3297 50.8173 73.3417 50.8149C73.3537 50.8124 73.3661 50.8135 73.3774 50.8181C73.3888 50.8227 73.3985 50.8305 73.4054 50.8406C73.5511 51.0572 73.6818 51.2732 73.7973 51.4887C73.9066 51.6934 74.1463 51.8682 74.2871 51.9951C74.5796 52.2594 74.9059 52.4815 75.2658 52.6613C75.2687 52.6626 75.2719 52.6631 75.2751 52.6627C75.2783 52.6623 75.2813 52.661 75.2838 52.659C75.2863 52.6569 75.2882 52.6542 75.2892 52.6511C75.2902 52.6481 75.2903 52.6448 75.2895 52.6417C75.2132 52.3581 75.094 52.057 75.0879 51.7667C75.0855 51.6402 75.0882 51.5137 75.0961 51.3872C75.1018 51.2985 75.1513 51.2278 75.1719 51.1428C75.1747 51.1314 75.1806 51.1211 75.189 51.1129C75.1974 51.1048 75.2079 51.0992 75.2193 51.0968C75.2307 51.0943 75.2425 51.0952 75.2533 51.0992C75.2642 51.1032 75.2737 51.1103 75.2807 51.1195C75.4808 51.3808 75.6817 51.6463 75.8835 51.9162C75.9979 52.0698 76.1145 52.1946 76.2331 52.2905C76.3809 52.4098 76.5357 52.5217 76.6976 52.6262C76.7162 52.6382 76.7236 52.6334 76.7198 52.6118L76.4991 51.349C76.4979 51.342 76.4986 51.3349 76.5011 51.3282C76.5036 51.3216 76.5079 51.3158 76.5134 51.3114C76.519 51.307 76.5256 51.3042 76.5326 51.3033C76.5396 51.3024 76.5468 51.3034 76.5533 51.3062C76.8173 51.4214 77.0701 51.5578 77.3118 51.7156C77.4053 51.7765 77.437 51.7531 77.4071 51.6455C77.3066 51.282 77.3736 50.8994 77.4273 50.4219C77.4352 50.3535 77.4501 50.2897 77.4721 50.2306C77.4736 50.2268 77.4761 50.2234 77.4792 50.2207C77.4824 50.218 77.4862 50.2162 77.4902 50.2154C77.4943 50.2146 77.4985 50.2148 77.5024 50.216C77.5064 50.2172 77.51 50.2194 77.5128 50.2224L78.5188 51.2784C78.5343 51.2949 78.5429 51.2918 78.5446 51.2691C78.557 51.1027 78.557 50.9356 78.5446 50.7679C78.5353 50.6476 78.5833 50.4705 78.6885 50.2368C78.695 50.2224 78.7058 50.2181 78.721 50.2239C78.8237 50.2648 78.9013 50.3031 78.9535 50.3389C79.2313 50.5286 79.5087 50.717 79.7857 50.904C79.789 50.9062 79.7929 50.9074 79.7969 50.9073C79.8009 50.9073 79.8047 50.906 79.808 50.9038C79.8112 50.9015 79.8137 50.8982 79.815 50.8945C79.8164 50.8908 79.8166 50.8867 79.8156 50.8829C79.7202 50.5003 79.5583 50.1192 79.4717 49.7635C79.3823 49.3977 79.2923 49.0313 79.2015 48.6641C79.2005 48.6601 79.2007 48.6558 79.2021 48.6519C79.2034 48.6479 79.2058 48.6444 79.2091 48.6418C79.2123 48.6392 79.2162 48.6375 79.2203 48.637C79.2245 48.6365 79.2287 48.6371 79.2325 48.6389C79.285 48.6631 79.3397 48.6946 79.3815 48.7394C79.6011 48.9749 79.8268 49.2047 80.0585 49.4288C80.1142 49.4824 80.1786 49.5278 80.2518 49.5649C80.255 49.5665 80.2586 49.5672 80.2622 49.567C80.2657 49.5668 80.2691 49.5656 80.2721 49.5637C80.275 49.5618 80.2774 49.5591 80.2789 49.556C80.2804 49.5528 80.281 49.5493 80.2807 49.5459C80.2587 49.275 80.2396 49.0038 80.2235 48.7322C80.2149 48.5878 80.2218 48.4641 80.2441 48.361C80.2627 48.2781 80.3038 48.2649 80.3673 48.3213C80.5777 48.5084 80.735 48.6564 80.9866 48.7879C80.991 48.7903 80.9961 48.7913 81.0011 48.7908C81.0062 48.7903 81.0109 48.7882 81.0147 48.7849C81.0186 48.7816 81.0213 48.7772 81.0225 48.7723C81.0237 48.7674 81.0235 48.7622 81.0217 48.7575C80.8684 48.3243 80.8237 47.8778 80.8876 47.4179C80.8885 47.4117 80.8912 47.406 80.8953 47.4014C80.8995 47.3968 80.9049 47.3935 80.9109 47.392C80.9169 47.3904 80.9232 47.3907 80.9291 47.3927C80.935 47.3948 80.9401 47.3985 80.9438 47.4034C81.2217 47.7768 81.4239 48.2238 81.691 48.5718C81.6947 48.5769 81.6999 48.5806 81.7059 48.5824C81.7119 48.5842 81.7183 48.584 81.7242 48.5819C81.73 48.5797 81.7351 48.5757 81.7385 48.5705C81.7419 48.5652 81.7435 48.559 81.743 48.5528L81.6966 47.5215C81.6963 47.5145 81.6982 47.5076 81.702 47.5017C81.7058 47.4958 81.7113 47.4912 81.7178 47.4885C81.7242 47.4859 81.7314 47.4853 81.7382 47.4869C81.7451 47.4884 81.7512 47.4921 81.7559 47.4973C81.8343 47.5849 81.8929 47.6812 81.9318 47.786C82.0204 48.0258 82.121 48.2094 82.3046 48.3903C82.3082 48.3941 82.3129 48.3966 82.318 48.3975C82.3232 48.3984 82.3285 48.3976 82.3332 48.3954C82.3379 48.3931 82.3417 48.3894 82.3442 48.3848C82.3466 48.3802 82.3475 48.3749 82.3468 48.3697C82.2894 47.9015 82.1401 47.4602 81.8988 47.0456C81.5677 46.476 81.2559 45.8963 80.9634 45.3064C80.6999 44.7743 80.5437 44.3107 80.4565 43.7595C80.406 43.4403 80.4339 43.0614 80.4199 42.7113C80.4195 42.7029 80.4171 42.6948 80.413 42.6876C80.4089 42.6804 80.4031 42.6742 80.3962 42.6695C80.0951 42.4658 79.812 42.3271 79.5774 42.0079C79.222 41.5239 78.9356 41.0023 78.7184 40.443C78.5874 40.1044 78.5558 39.707 78.6235 39.2509C78.6369 39.4876 78.6065 39.7278 78.6493 39.9444C78.6881 40.14 78.7462 40.3301 78.8236 40.5147C78.8287 40.5264 78.8404 40.5712 78.8586 40.6493C78.8741 40.7153 78.9483 40.7823 78.9447 40.8411C78.9437 40.8593 78.9509 40.8736 78.9664 40.8839C79.0046 40.9086 79.0245 40.9442 79.0262 40.9906C79.0269 41.0071 79.0302 41.0195 79.036 41.0277C79.0449 41.0401 79.0566 41.0509 79.0711 41.0602C79.0848 41.0692 79.0946 41.0812 79.1005 41.0963C79.1551 41.2314 79.2235 41.3584 79.3057 41.4774C79.3236 41.5035 79.3464 41.5478 79.3743 41.6104C79.3925 41.651 79.4183 41.6943 79.4516 41.7403C79.531 41.8496 79.5975 41.9394 79.6511 42.0095C79.7199 42.0992 79.7967 42.1793 79.8816 42.2498C80.0459 42.3859 80.2211 42.5069 80.4071 42.6128C80.488 42.6587 80.6643 42.7711 80.7535 42.7613C81.2176 42.7094 81.5552 42.5005 81.7662 42.1348C81.9452 41.8239 81.973 41.3639 81.9648 40.9973C81.9496 40.3445 81.8386 39.7036 81.6317 39.0745C81.4785 38.6089 81.1851 38.3068 80.9418 37.9C80.7443 37.5705 80.5865 37.2162 80.9304 36.912C80.9882 36.8611 81.0628 36.8316 81.1542 36.8233C81.1693 36.822 81.1805 36.8144 81.1877 36.8006C81.1939 36.7893 81.2039 36.7816 81.2176 36.7774C81.2496 36.7678 81.2659 36.7628 81.2666 36.7625C81.6997 36.5538 82.1143 36.3154 82.5103 36.0473C82.5152 36.0442 82.5189 36.0394 82.5207 36.0339C82.5224 36.0284 82.5222 36.0224 82.52 36.0169C82.5179 36.0115 82.5139 36.0069 82.5087 36.004C82.5035 36.0011 82.4975 36 82.4917 36.0009C82.0847 36.0607 81.6849 36.1645 81.2924 36.3123C81.1418 36.3691 81.0057 36.484 80.8948 36.6099C80.7769 36.7439 80.6339 36.8685 80.4658 36.9837C80.2555 37.1281 80.0447 37.3161 79.8337 37.5478C79.8219 37.5609 79.8139 37.5772 79.8105 37.5947C79.7844 37.7374 79.7149 37.8542 79.6022 37.9453C79.5888 37.9563 79.5747 37.957 79.5599 37.9474C79.5372 37.9323 79.5313 37.9012 79.5423 37.8541C79.5544 37.8668 79.5681 37.8704 79.5836 37.8649C79.5943 37.8611 79.6032 37.8518 79.6104 37.837C79.7589 37.5345 79.9385 37.3032 80.1492 37.143C80.5363 36.8484 80.829 36.603 81.0273 36.4067C81.099 36.3361 81.1774 36.3072 81.2661 36.2737C81.2741 36.2706 81.2813 36.2657 81.2871 36.2593C81.2929 36.253 81.2971 36.2453 81.2993 36.237C81.3015 36.2286 81.3017 36.2199 81.2999 36.2115C81.2981 36.2031 81.2942 36.1952 81.2888 36.1886C80.9918 35.8266 81.1511 35.3523 80.885 34.9779C80.4896 34.4231 78.8024 34.5407 78.2378 34.6866C78.2342 34.6877 78.2311 34.69 78.2291 34.6932C78.227 34.6963 78.2262 34.7001 78.2267 34.7038C78.2272 34.7075 78.229 34.7108 78.2318 34.7131C78.2346 34.7155 78.2382 34.7167 78.2419 34.7165L78.9133 34.7C78.9174 34.6998 78.9215 34.7009 78.9249 34.7032C78.9283 34.7054 78.931 34.7087 78.9325 34.7126C78.934 34.7165 78.9343 34.7208 78.9334 34.7249C78.9324 34.729 78.9303 34.7327 78.9272 34.7356C78.4601 35.147 77.8686 35.4126 77.4273 35.8473C77.4241 35.8503 77.4217 35.854 77.4201 35.8582C77.4185 35.8623 77.4178 35.8666 77.418 35.871C77.4183 35.8754 77.4195 35.8797 77.4215 35.8836C77.4235 35.8875 77.4264 35.8909 77.4298 35.8937L77.6263 36.0432C77.6422 36.0555 77.6553 36.0711 77.6647 36.0887C77.6741 36.1064 77.6797 36.1259 77.6809 36.1458L77.7031 36.5011C77.7034 36.5065 77.7051 36.5117 77.708 36.5162C77.7109 36.5208 77.715 36.5245 77.7197 36.527C77.7245 36.5296 77.7298 36.5308 77.7352 36.5307C77.7406 36.5306 77.7459 36.5291 77.7506 36.5263C77.8929 36.4428 77.9341 36.334 78.1053 36.2819C78.1129 36.2795 78.1211 36.2802 78.1282 36.2839C78.1354 36.2875 78.1408 36.2939 78.1435 36.3015L78.3373 36.8749C78.3449 36.8976 78.3578 36.901 78.376 36.8852L78.41 36.8563C78.4107 36.9251 78.3853 36.9675 78.3337 36.9837C78.3294 36.9851 78.3249 36.9856 78.3204 36.9852C78.3159 36.9848 78.3115 36.9836 78.3075 36.9815C78.3035 36.9794 78.3 36.9766 78.2972 36.9732C78.2943 36.9697 78.2922 36.9658 78.2909 36.9615L78.1146 36.401C78.1119 36.3927 78.1067 36.3855 78.0996 36.3803C78.0926 36.3751 78.0841 36.3723 78.0754 36.3722C78.0262 36.3715 77.9803 36.3943 77.9377 36.4407C77.8697 36.515 77.7923 36.5707 77.7057 36.6078C77.6734 36.6212 77.6555 36.6105 77.6521 36.5758L77.6093 36.1463C77.6085 36.1384 77.6059 36.1307 77.6018 36.1238C77.5977 36.1168 77.5922 36.1108 77.5856 36.1061L77.3654 35.953C77.3482 35.9409 77.3348 35.9442 77.3252 35.9628C77.2777 36.0538 77.2253 36.1413 77.1679 36.2252C77.1036 36.3187 77.0567 36.4101 77.0271 36.4995C76.9601 36.704 76.9168 36.8544 76.8972 36.9507C76.8205 37.3285 76.8544 37.6956 76.9988 38.0521C77.0851 38.2642 77.238 38.4615 77.4577 38.644C77.2322 38.5491 77.0765 38.401 76.9905 38.1995C76.7784 37.7032 76.743 37.2135 76.8843 36.7305C77.0081 36.3093 77.239 35.8442 77.5953 35.5946C77.98 35.3251 78.3653 35.0626 78.7514 34.8072C78.7737 34.7925 78.7715 34.7839 78.7447 34.7815C78.4576 34.7564 78.1691 34.7634 77.8789 34.8026C77.7311 34.8225 77.5565 34.8708 77.3551 34.9475C77.0038 35.0812 76.6433 35.2034 76.2738 35.3141L76.3083 35.2373L77.4463 34.8387C77.4508 34.8371 77.4545 34.8339 77.457 34.8298C77.4594 34.8257 77.4603 34.8209 77.4596 34.8163C77.4588 34.8117 77.4565 34.8075 77.4529 34.8045C77.4494 34.8015 77.4448 34.7999 77.4401 34.8L76.463 34.8016C76.4314 34.8016 76.4321 34.7727 76.4651 34.7149C76.5019 34.7308 76.5311 34.7387 76.5528 34.7387C77.0215 34.7438 77.5108 34.7722 77.9712 34.684C78.1156 34.6562 78.3043 34.619 78.5374 34.5726C79.1371 34.453 80.7561 34.3762 81.0469 35.1388C81.0607 35.1742 81.0846 35.3009 81.1186 35.5188C81.1468 35.7006 81.1968 35.8761 81.2687 36.0453C81.2982 36.115 81.347 36.1669 81.4151 36.201C81.4303 36.2086 81.4479 36.2099 81.4641 36.2046C81.7996 36.097 82.1404 36.0086 82.4866 35.9395C82.6804 35.9009 82.7959 35.805 82.912 35.6621C83.1639 35.3507 83.2731 34.9872 83.2394 34.5716C83.2029 34.1254 83.1705 33.8138 83.1419 33.6368C83.1058 33.4137 83.1383 33.2153 83.2394 33.0417C83.4255 32.7215 83.2992 32.1244 83.162 31.8006C83.1256 31.7147 83.0713 31.6569 82.9991 31.6274C82.9915 31.6243 82.9833 31.623 82.9751 31.6238C82.967 31.6246 82.9592 31.6274 82.9523 31.6319C82.9455 31.6365 82.9399 31.6426 82.936 31.6498C82.9321 31.657 82.9301 31.6651 82.93 31.6733C82.929 31.8682 82.8944 32.0105 82.747 32.1543C82.5775 32.32 82.4422 32.4278 82.3412 32.4776C82.236 32.5297 81.9281 32.5947 81.9209 32.4024C81.9173 32.307 81.8982 32.1672 81.9178 32.1033C81.9876 31.875 82.0036 31.6772 81.9658 31.5098C81.9428 31.4088 81.9214 31.307 81.9018 31.2046C81.856 30.9658 81.7291 30.7761 81.6229 30.5626C81.5765 30.4693 81.394 30.3399 81.295 30.4193C81.2699 30.4392 81.2602 30.4738 81.2661 30.5229C81.2852 30.6853 81.3666 30.8364 81.3723 30.9839C81.3826 31.2386 81.2516 32.1394 80.7829 31.8037C80.7451 31.7766 80.7278 31.7391 80.7309 31.6913C80.7587 31.2482 80.7257 30.8105 80.6319 30.378C80.5683 30.0848 80.401 29.8755 80.1302 29.75C79.9765 29.6783 79.8909 29.7928 79.9229 29.9382C80.0286 30.4208 80.0214 30.9086 79.6826 31.3025C79.5439 31.4634 79.315 31.4696 79.2062 31.2566C79.0412 30.9342 78.9105 30.6511 78.8143 30.4074C78.7641 30.2806 78.7057 30.1723 78.639 30.0826C78.4798 29.8681 78.311 29.6587 78.1326 29.4545C78.1337 29.4277 78.1405 29.4081 78.1533 29.3958ZM71.9369 73.5585C71.8599 73.519 71.788 73.5145 71.7214 73.5451C71.5292 73.6335 71.335 73.6314 71.1387 73.5389C71.0186 73.4827 70.9273 73.3904 70.7741 73.3636C70.4582 73.3079 70.1379 73.2758 69.813 73.2672C69.7938 73.2668 69.785 73.2763 69.7867 73.2955C69.8223 73.6843 70.0915 73.7782 70.4545 73.7885C70.9268 73.8019 71.392 73.7453 71.8503 73.6188C71.8592 73.6164 71.8752 73.6144 71.8982 73.6127C71.9209 73.6109 71.9365 73.6029 71.9451 73.5884C71.953 73.5754 71.9503 73.5654 71.9369 73.5585ZM74.0613 74.2613C74.0666 74.2606 74.0716 74.2584 74.0756 74.2548C74.0795 74.2512 74.0823 74.2465 74.0836 74.2413C74.0848 74.2361 74.0844 74.2306 74.0825 74.2256C74.0805 74.2206 74.0771 74.2163 74.0726 74.2134L73.9757 74.1489C73.9588 74.1376 73.9406 74.1343 73.921 74.1391C73.5618 74.2261 73.1974 74.2546 72.8279 74.2247C72.7749 74.2202 72.6912 74.2398 72.5768 74.2835C72.551 74.2935 72.5515 74.3019 72.5783 74.3088C72.646 74.3266 72.727 74.3364 72.8212 74.3381C73.2268 74.3471 73.6402 74.3215 74.0613 74.2613Z" fill="#FF8017"/>
<path d="M78.1329 29.4545C78.3113 29.6587 78.48 29.868 78.6392 30.0825C78.7059 30.1722 78.7643 30.2805 78.8145 30.4073C78.9108 30.6511 79.0414 30.9341 79.2064 31.2566C79.3152 31.4695 79.5441 31.4633 79.6828 31.3025C80.0216 30.9085 80.0288 30.4207 79.9231 29.9381C79.8911 29.7927 79.9767 29.6782 80.1304 29.7499C80.4013 29.8754 80.5685 30.0847 80.6321 30.378C80.7259 30.8104 80.7589 31.2482 80.7311 31.6912C80.728 31.739 80.7454 31.7765 80.7832 31.8037C81.2519 32.1393 81.3828 31.2385 81.3725 30.9838C81.3669 30.8363 81.2854 30.6853 81.2663 30.5228C81.2605 30.4737 81.2701 30.4391 81.2952 30.4192C81.3942 30.3398 81.5767 30.4692 81.6231 30.5625C81.7293 30.776 81.8562 30.9658 81.9021 31.2045C81.9217 31.3069 81.943 31.4087 81.966 31.5097C82.0038 31.6772 81.9878 31.875 81.9181 32.1032C81.8985 32.1672 81.9175 32.3069 81.9212 32.4023C81.9284 32.5946 82.2362 32.5297 82.3414 32.4776C82.4425 32.4277 82.5777 32.32 82.7472 32.1543C82.8947 32.0104 82.9292 31.8681 82.9302 31.6732C82.9303 31.665 82.9324 31.657 82.9363 31.6498C82.9402 31.6426 82.9458 31.6364 82.9526 31.6319C82.9594 31.6274 82.9672 31.6246 82.9754 31.6238C82.9835 31.623 82.9918 31.6242 82.9993 31.6273C83.0715 31.6569 83.1258 31.7146 83.1623 31.8006C83.2994 32.1244 83.4258 32.7215 83.2396 33.0417C83.1385 33.2153 83.1061 33.4136 83.1422 33.6367C83.1707 33.8137 83.2032 34.1253 83.2396 34.5715C83.2733 34.9871 83.1642 35.3506 82.9122 35.6621C82.7962 35.8049 82.6807 35.9008 82.4868 35.9395C82.1406 36.0086 81.7998 36.0969 81.4643 36.2045C81.4481 36.2098 81.4305 36.2085 81.4153 36.2009C81.3473 36.1669 81.2985 36.115 81.2689 36.0452C81.197 35.8761 81.147 35.7006 81.1188 35.5187C81.0848 35.3008 81.0609 35.1741 81.0472 35.1387C80.7564 34.3761 79.1373 34.4529 78.5376 34.5726C78.3046 34.619 78.1158 34.6561 77.9715 34.6839C77.511 34.7721 77.0217 34.7437 76.553 34.7386C76.5313 34.7386 76.5021 34.7307 76.4653 34.7149L77.5848 31.1885C77.6528 31.1421 77.7033 31.06 77.7363 30.942C77.7924 30.7413 77.8249 30.5672 77.8338 30.4197L78.1329 29.4545Z" fill="#EE1D42"/>
<path d="M36.8395 30.3821L36.74 32.2924L37.5557 32.5534C30.6304 31.4241 23.4178 31.4819 16.5059 32.6178C16.361 32.6415 16.1743 32.7003 16.0037 32.7204C16.0028 32.7206 16.002 32.7204 16.0013 32.7199C16.0006 32.7194 16.0002 32.7187 16 32.7178C15.9999 32.717 16.0001 32.7162 16.0006 32.7155C16.0011 32.7148 16.0018 32.7144 16.0026 32.7142C21.2754 31.2973 26.7436 30.3893 32.2092 30.2671C33.7475 30.2327 35.2909 30.271 36.8395 30.3821Z" fill="#0B8C4C"/>
<path d="M77.834 30.4197C77.8251 30.5671 77.7926 30.7413 77.7366 30.942C77.7036 31.0599 77.653 31.1421 77.585 31.1885L77.834 30.4197Z" fill="#FF8017"/>
<path d="M41.7583 32.7792L39.439 32.903C39.207 32.9195 39.0116 32.9334 38.7785 32.8658C38.3694 32.7476 37.9619 32.6434 37.556 32.5534L36.7402 32.2925C38.0657 32.2261 39.3914 32.1629 40.7172 32.1027C41.2318 32.0793 41.5789 32.3048 41.7583 32.7792Z" fill="#342D37"/>
<path d="M41.7582 32.7792C41.7909 32.9755 41.7897 33.192 41.7546 33.4289L39.439 32.9029L41.7582 32.7792Z" fill="#0B8C4C"/>
<path d="M50.9618 33.9646C52.0777 34.4582 53.0752 35.1313 53.9545 35.9838C54.1831 36.2055 54.4072 36.424 54.6269 36.6391L54.879 36.9475C55.9412 38.2197 56.7855 39.6226 57.4118 41.156L57.4824 41.3339L57.6015 41.6531C57.6122 41.682 57.605 41.6876 57.5799 41.6701C57.3626 41.5192 57.1554 41.403 56.958 41.3215C56.6531 41.1954 56.2659 41.057 55.7963 40.9065C54.5045 40.4916 53.218 40.1294 51.9369 39.82C51.7049 39.764 51.6873 39.8034 51.8843 39.9381C53.0584 40.7399 54.2304 41.6902 55.1755 42.7782C55.7365 43.4232 56.3187 44.2529 56.3058 45.1258L56.3011 45.2171L56.2527 45.3506C56.2444 45.3737 56.231 45.3769 56.2125 45.3604L56.0959 45.2563C56.0705 45.2081 56.0462 45.1801 56.0232 45.1722C54.0128 43.1092 51.2743 42.2445 48.5224 43.3902C48.422 43.4322 48.1952 43.5499 47.8418 43.7434L50.9618 33.9646Z" fill="#0B8C4C"/>
<path d="M78.588 35.3795C78.8884 35.2805 79.201 35.2333 79.5259 35.2377C80.0781 35.2449 80.4984 35.6714 80.7459 36.1153C80.7487 36.1207 80.7534 36.1248 80.759 36.127C80.7646 36.1292 80.7708 36.1293 80.7766 36.1274C80.7823 36.1254 80.7872 36.1215 80.7905 36.1163C80.7937 36.111 80.7951 36.1049 80.7943 36.0988C80.7854 36.0356 80.762 35.9739 80.7242 35.9137C80.4719 35.5129 80.1262 35.2654 79.6873 35.1712C79.3294 35.0939 78.9154 35.1908 78.5575 35.2975C78.4606 35.3269 78.4379 35.3795 78.4539 35.4744C78.4896 35.6875 78.5605 35.8792 78.6663 36.0493C79.0123 36.6057 79.5692 36.5175 80.1121 36.3969C80.1764 36.3824 80.2026 36.3549 80.1905 36.3144C80.1893 36.3101 80.1873 36.3062 80.1846 36.3028C80.1819 36.2994 80.1786 36.2965 80.1748 36.2944C80.171 36.2923 80.1668 36.291 80.1625 36.2905C80.1582 36.29 80.1539 36.2904 80.1498 36.2917C79.8999 36.3645 79.6601 36.4041 79.4305 36.4103C78.9154 36.4247 78.606 35.8967 78.5436 35.4507C78.5416 35.4354 78.5449 35.42 78.553 35.407C78.5611 35.394 78.5735 35.3843 78.588 35.3795Z" stroke="#F8C193" stroke-width="0.103125"/>
<path d="M78.588 35.3795C78.5735 35.3843 78.5611 35.394 78.553 35.407C78.5449 35.42 78.5416 35.4354 78.5436 35.4507C78.606 35.8967 78.9154 36.4247 79.4305 36.4103C79.6601 36.4041 79.8999 36.3645 80.1498 36.2917C80.1539 36.2904 80.1582 36.29 80.1625 36.2905C80.1668 36.291 80.171 36.2923 80.1748 36.2944C80.1786 36.2965 80.1819 36.2994 80.1846 36.3028C80.1873 36.3062 80.1893 36.3101 80.1905 36.3144C80.2026 36.3549 80.1764 36.3824 80.1121 36.3969C79.5692 36.5175 79.0123 36.6057 78.6663 36.0493C78.5605 35.8792 78.4896 35.6875 78.4539 35.4744C78.4379 35.3795 78.4606 35.3269 78.5575 35.2975C78.9154 35.1908 79.3294 35.0939 79.6873 35.1712C80.1262 35.2654 80.4719 35.5129 80.7242 35.9137C80.762 35.9739 80.7854 36.0356 80.7943 36.0988C80.7951 36.1049 80.7937 36.111 80.7905 36.1163C80.7872 36.1215 80.7823 36.1254 80.7766 36.1274C80.7708 36.1293 80.7646 36.1292 80.759 36.127C80.7534 36.1248 80.7487 36.1207 80.7459 36.1153C80.4984 35.6714 80.0781 35.2449 79.5259 35.2377C79.201 35.2333 78.8884 35.2805 78.588 35.3795Z" fill="#FF8017"/>
<path d="M41.041 35.9163L39.7803 40.396C38.7734 40.2482 37.8396 40.1711 36.9789 40.1645C34.9363 40.1491 32.8559 40.3376 30.7377 40.7302C30.7247 40.7147 30.7175 40.7049 30.7161 40.7008C30.5624 40.2182 30.3861 39.5592 30.3809 39.1302C30.3748 38.5728 30.7336 37.9839 31.2951 37.7978C31.3983 37.7638 31.5375 37.7461 31.7128 37.7447C32.3841 37.7395 33.0586 37.734 33.7361 37.7282C33.7571 37.7282 33.7676 37.7177 33.7676 37.6967V35.8178C33.7676 35.8023 33.76 35.7932 33.7449 35.7905L32.8271 35.6167C32.8219 35.6157 32.8176 35.6131 32.8142 35.609C32.8049 35.5966 32.8008 35.5944 32.8018 35.6023C35.5772 35.119 38.3236 35.2236 41.041 35.9163Z" fill="#0B8C4C"/>
<path d="M31.2887 35.312L32.8015 35.6023C32.8005 35.5944 32.8046 35.5966 32.8139 35.609C32.8174 35.6131 32.8217 35.6157 32.8268 35.6167L33.7446 35.7905C33.7597 35.7933 33.7673 35.8024 33.7673 35.8178V37.6968C33.7673 37.7177 33.7568 37.7282 33.7359 37.7282C33.0583 37.7341 32.3839 37.7396 31.7125 37.7447C31.5372 37.7461 31.398 37.7638 31.2949 37.7978C30.7334 37.984 30.3745 38.5728 30.3807 39.1302C30.3858 39.5592 30.5622 40.2182 30.7158 40.7008C30.7172 40.7049 30.7244 40.7147 30.7375 40.7302C30.7416 40.7175 30.7378 40.7171 30.7262 40.7292C30.722 40.7329 30.7208 40.7376 30.7225 40.7431L31.8909 44.8707C31.8813 44.882 31.8793 44.8978 31.8848 44.9181C32.1536 45.8792 32.4212 46.8407 32.6876 47.8025C32.6938 47.8249 32.7051 47.8333 32.7216 47.8278C32.7103 47.8463 32.7058 47.8599 32.7082 47.8685C33.1572 49.492 33.9722 52.4165 35.1533 56.6419L34.0741 60.3812C34.0731 60.3845 34.0711 60.3875 34.0683 60.3896C34.0655 60.3917 34.0621 60.3929 34.0586 60.393C34.0551 60.393 34.0516 60.392 34.0488 60.3899C34.0459 60.3879 34.0438 60.385 34.0427 60.3817C31.9877 53.4606 29.9312 46.5363 27.8732 39.6087C27.7861 39.3153 27.7015 39.074 27.6943 38.792C27.6767 38.0608 28.1944 37.3271 28.9993 37.3199C29.7425 37.3137 30.4842 37.3056 31.2242 37.2956C31.2521 37.2953 31.2662 37.281 31.2665 37.2528L31.2887 35.312Z" fill="#342D37"/>
<path d="M79.8909 35.7593C79.9004 35.8135 79.8992 35.869 79.8873 35.9227C79.8754 35.9763 79.8531 36.0272 79.8215 36.0722C79.79 36.1172 79.7499 36.1556 79.7035 36.1852C79.6572 36.2147 79.6054 36.2348 79.5513 36.2444L79.468 36.2591C79.4138 36.2686 79.3584 36.2674 79.3047 36.2555C79.251 36.2436 79.2002 36.2212 79.1551 36.1897C79.1101 36.1582 79.0717 36.1181 79.0422 36.0717C79.0126 36.0253 78.9925 35.9736 78.983 35.9194L78.9683 35.8362C78.9587 35.782 78.9599 35.7265 78.9718 35.6728C78.9837 35.6192 79.0061 35.5683 79.0376 35.5233C79.0692 35.4783 79.1093 35.4399 79.1556 35.4103C79.202 35.3808 79.2538 35.3607 79.3079 35.3511L79.3912 35.3364C79.4453 35.3269 79.5008 35.3281 79.5545 35.34C79.6082 35.3519 79.659 35.3743 79.704 35.4058C79.7491 35.4373 79.7875 35.4774 79.817 35.5238C79.8465 35.5702 79.8667 35.6219 79.8762 35.6761L79.8909 35.7593Z" fill="#342D37"/>
<path d="M78.4101 36.8564C78.4146 36.8292 78.4244 36.8093 78.4395 36.7966C78.6252 36.727 78.7278 36.9843 78.7505 37.1307C78.7649 37.224 78.801 37.29 78.8299 37.3751C78.8325 37.3831 78.8372 37.3903 78.8436 37.396C78.8499 37.4017 78.8576 37.4057 78.866 37.4076C78.9082 37.4162 78.9345 37.3883 78.9448 37.3241L79.1052 37.1498C79.1079 37.1468 79.1111 37.1445 79.1147 37.1428C79.1183 37.1411 79.1222 37.1402 79.1262 37.1401C79.1302 37.14 79.1342 37.1408 79.138 37.1422C79.1417 37.1437 79.1451 37.1459 79.148 37.1488C79.3321 37.3272 79.4233 37.6499 79.5425 37.8541C79.5315 37.9012 79.5373 37.9323 79.56 37.9475C79.5748 37.9571 79.5889 37.9564 79.6023 37.9454C79.715 37.8543 79.7845 37.7374 79.8106 37.5948C79.814 37.5772 79.822 37.561 79.8338 37.5478C80.0448 37.3162 80.2556 37.1281 80.4659 36.9838C80.634 36.8686 80.777 36.744 80.8949 36.6099C81.0058 36.4841 81.1419 36.3691 81.2925 36.3124C81.685 36.1646 82.0848 36.0608 82.4918 36.001C82.4977 36.0001 82.5036 36.0011 82.5088 36.0041C82.514 36.007 82.518 36.0116 82.5201 36.017C82.5223 36.0225 82.5225 36.0284 82.5208 36.034C82.519 36.0395 82.5153 36.0442 82.5104 36.0474C82.1144 36.3155 81.6998 36.5539 81.2667 36.7626C81.266 36.7629 81.2497 36.7679 81.2177 36.7775C81.204 36.7816 81.194 36.7894 81.1878 36.8007C81.1806 36.8145 81.1694 36.822 81.1543 36.8234C81.0629 36.8316 80.9883 36.8612 80.9305 36.9121C80.5866 37.2163 80.7444 37.5705 80.9419 37.9C81.1852 38.3068 81.4786 38.609 81.6318 39.0746C81.8387 39.7037 81.9497 40.3446 81.9649 40.9974C81.9731 41.364 81.9453 41.8239 81.7663 42.1348C81.5553 42.5006 81.2177 42.7094 80.7537 42.7613C80.6645 42.7711 80.4881 42.6587 80.4072 42.6128C80.2212 42.507 80.0461 42.386 79.8817 42.2498C79.7968 42.1794 79.72 42.0993 79.6512 42.0096C79.5976 41.9394 79.5311 41.8497 79.4517 41.7404C79.4184 41.6943 79.3926 41.651 79.3744 41.6105C79.3465 41.5479 79.3237 41.5036 79.3058 41.4774C79.2236 41.3585 79.1552 41.2315 79.1006 41.0964C79.0947 41.0813 79.0849 41.0692 79.0712 41.0603C79.0567 41.051 79.045 41.0402 79.0361 41.0278C79.0303 41.0196 79.027 41.0072 79.0263 40.9907C79.0246 40.9443 79.0047 40.9087 78.9665 40.8839C78.951 40.8736 78.9438 40.8594 78.9448 40.8411C78.9485 40.7824 78.8742 40.7153 78.8587 40.6493C78.8405 40.5713 78.8288 40.5264 78.8237 40.5148C78.7463 40.3302 78.6882 40.1401 78.6494 39.9445C78.6066 39.7279 78.637 39.4876 78.6236 39.251L78.8216 38.5012C78.8231 38.4956 78.8229 38.4897 78.8211 38.4841C78.8193 38.4786 78.816 38.4737 78.8115 38.47C78.807 38.4663 78.8015 38.464 78.7957 38.4633C78.7899 38.4626 78.784 38.4636 78.7788 38.4662C78.3103 38.6931 77.8699 38.7523 77.4578 38.6441C77.2381 38.4615 77.0852 38.2642 76.9989 38.0521C76.8545 37.6957 76.8206 37.3285 76.8973 36.9508C76.9169 36.8545 76.9602 36.7041 77.0272 36.4996C77.0568 36.4102 77.1037 36.3188 77.168 36.2253C77.2254 36.1414 77.2778 36.0539 77.3253 35.9628C77.3349 35.9443 77.3483 35.941 77.3655 35.953L77.5857 36.1062C77.5923 36.1109 77.5978 36.1169 77.6019 36.1238C77.606 36.1308 77.6086 36.1385 77.6094 36.1464L77.6522 36.5759C77.6556 36.6106 77.6735 36.6213 77.7058 36.6079C77.7924 36.5707 77.8698 36.5151 77.9378 36.4408C77.9805 36.3944 78.0263 36.3715 78.0755 36.3722C78.0842 36.3723 78.0927 36.3752 78.0997 36.3804C78.1068 36.3855 78.112 36.3928 78.1147 36.4011L78.291 36.9616C78.2923 36.9658 78.2944 36.9698 78.2973 36.9732C78.3001 36.9767 78.3037 36.9795 78.3076 36.9816C78.3116 36.9836 78.316 36.9849 78.3205 36.9853C78.325 36.9856 78.3295 36.9851 78.3338 36.9838C78.3854 36.9676 78.4108 36.9251 78.4101 36.8564Z" fill="#EE1D42"/>
<path d="M54.627 36.6392C55.8779 37.4889 56.9746 38.5593 57.9651 39.7247C58.3095 40.1294 58.7272 40.694 59.1217 41.1689C59.1842 41.2446 59.2812 41.4125 59.4125 41.6727C59.9418 42.7232 60.4771 43.7708 61.0181 44.8154C61.3265 45.4105 61.6102 46.0899 61.8694 46.8537C61.9835 47.1892 62.0911 47.4652 62.1922 47.6818C62.3225 47.9616 62.4614 48.2443 62.6088 48.53C62.5995 48.6256 62.5758 48.6697 62.5377 48.6625C62.2175 47.8391 61.8735 47.1455 61.2213 46.5588C61.0197 46.3773 60.7722 46.2246 60.535 46.0689C60.0194 45.7301 59.6868 45.511 59.1397 45.4089C58.9926 45.3814 58.8654 45.3493 58.7581 45.3125C58.5849 45.2534 58.4579 45.2185 58.3771 45.2078C57.6848 45.1174 56.9928 45.1205 56.3012 45.2171L56.3058 45.1258C56.6054 45.1243 56.922 45.0634 57.1953 45.066C57.5469 45.0698 57.8979 45.0868 58.2482 45.1171C58.4077 45.1308 58.6153 45.1745 58.8711 45.248C59.1502 45.3285 59.4298 45.4081 59.71 45.4868C59.9188 45.545 60.0493 45.6177 60.2034 45.7513C60.2079 45.7551 60.2136 45.7574 60.2195 45.7578C60.2254 45.7581 60.2312 45.7566 60.2362 45.7533C60.2411 45.75 60.2449 45.7453 60.2469 45.7397C60.2489 45.7341 60.249 45.7281 60.2473 45.7224C59.9369 44.7866 59.5146 43.8626 59.118 42.9602C59.0881 42.8916 59.0479 42.8127 58.9958 42.756C58.5283 42.25 58.0239 41.776 57.4825 41.3339L57.4118 41.156C57.9765 41.6428 58.5524 42.1301 59.0603 42.6746C59.1315 42.7514 59.1722 42.8267 59.2114 42.919C59.5991 43.8326 59.973 44.752 60.3329 45.677C60.391 45.8266 60.4477 45.9177 60.503 45.9503C60.9884 46.2367 61.406 46.5935 61.756 47.0208C61.7597 47.0257 61.7651 47.0292 61.7711 47.0307C61.7771 47.0322 61.7834 47.0316 61.7891 47.029C61.7947 47.0264 61.7993 47.022 61.8021 47.0165C61.8049 47.011 61.8057 47.0046 61.8044 46.9986C61.7876 46.8996 61.7617 46.7985 61.7266 46.6954C61.5142 46.071 61.277 45.5471 60.9434 44.8995C60.427 43.8988 59.9171 42.8949 59.4135 41.8877C59.2402 41.5417 59.0557 41.2473 58.836 40.9647C58.3374 40.3228 57.7702 39.5798 57.1659 38.9662C56.61 38.4014 56.1205 37.9306 55.6974 37.5539C55.5094 37.3865 55.2366 37.1843 54.8791 36.9475L54.627 36.6392Z" fill="#FF8017"/>
<path d="M78.9453 37.3239C78.9349 37.3882 78.9086 37.416 78.8664 37.4074C78.858 37.4055 78.8503 37.4015 78.844 37.3958C78.8376 37.3901 78.8329 37.3829 78.8303 37.3749C78.8014 37.2898 78.7653 37.2238 78.7509 37.1305C78.7282 36.9841 78.6256 36.7268 78.4399 36.7964C78.4441 36.7328 78.468 36.6891 78.5116 36.6654C78.5191 36.6613 78.5276 36.6593 78.5361 36.6597C78.5447 36.6602 78.553 36.6631 78.5601 36.668C78.7504 36.7995 78.8102 37.0821 78.8782 37.2888C78.8837 37.3053 78.8949 37.3151 78.9117 37.3182L78.9453 37.3239Z" fill="#FF8017"/>
<path d="M23.2625 37.7968C23.0109 37.7985 22.7677 37.7999 22.5329 37.8009C22.2899 37.802 22.0475 37.7857 21.8059 37.752C20.9767 37.6375 20.1468 37.5225 19.3159 37.407C19.4153 37.3926 19.4892 37.3852 19.5376 37.3848C20.0371 37.3831 21.0494 37.3842 22.5747 37.3879C22.7266 37.3883 22.8447 37.4103 22.9289 37.4539C23.0726 37.5285 23.1838 37.6428 23.2625 37.7968Z" fill="#342D37"/>
<path d="M23.7423 39.0698L24.656 42.146C22.4309 42.7858 20.2527 43.5302 18.1214 44.3792C18.1179 44.3805 18.114 44.3805 18.1104 44.3794C18.1068 44.3782 18.1036 44.3759 18.1014 44.3729C18.0992 44.3698 18.0981 44.3661 18.0981 44.3623C18.0982 44.3585 18.0995 44.3549 18.1018 44.3519C18.1362 44.311 18.1886 44.2452 18.2591 44.1544C19.8338 42.1314 21.6615 40.4366 23.7423 39.0698Z" fill="#0B8C4C"/>
<path d="M39.3093 41.9785C39.3199 41.9881 39.3242 41.9964 39.3222 42.0033C38.9427 43.3422 38.5632 44.6763 38.1837 46.0055C36.2295 46.1654 34.3985 46.8326 32.7222 47.8278C32.7057 47.8333 32.6943 47.8248 32.6882 47.8025C32.4217 46.8407 32.1541 45.8792 31.8853 44.9181C31.8798 44.8978 31.8819 44.882 31.8915 44.8707C32.2952 44.4731 32.6768 44.2452 33.245 43.9106C35.0451 42.8494 37.2014 41.9863 39.3093 41.9785Z" fill="#0B8C4C"/>
<path d="M56.0237 45.1724C56.0467 45.1803 56.0709 45.2083 56.0964 45.2564C55.3265 45.3626 54.9099 45.5374 54.1205 45.8308C53.9359 45.8992 53.7728 45.9805 53.6312 46.0747C53.6279 46.0768 53.6255 46.0799 53.624 46.0834C53.6226 46.087 53.6224 46.0909 53.6232 46.0947C53.6241 46.0985 53.6262 46.102 53.629 46.1047C53.6319 46.1073 53.6355 46.1091 53.6394 46.1098C53.6917 46.1173 53.7542 46.1204 53.8271 46.1191C54.3737 46.1087 54.9202 46.0613 55.391 46.0943C56.1428 46.1469 56.7528 46.3382 57.4324 46.5006C57.5484 46.5285 57.7056 46.596 57.7995 46.6713C57.9552 46.7961 58.0745 46.8646 58.1573 46.877C58.8218 46.976 59.4584 47.1658 60.0672 47.4463C60.2126 47.5133 60.3786 47.5695 60.5173 47.686C60.5218 47.6896 60.5248 47.6946 60.5257 47.7002C60.5267 47.7058 60.5256 47.7115 60.5226 47.7164C60.5196 47.7212 60.515 47.7248 60.5095 47.7264C60.5041 47.728 60.4983 47.7276 60.4931 47.7252C59.9873 47.5056 59.4443 47.2472 58.9421 47.1219C58.7118 47.0645 58.4459 47.0104 58.1444 46.9595C57.9289 46.9231 57.7527 46.9138 57.6159 46.9317C56.9411 47.019 56.2755 47.1512 55.6189 47.3282C55.5117 47.3571 55.3441 47.4344 55.2343 47.5174C54.8764 47.7886 54.466 48.0624 54.1875 48.3734C53.8713 48.726 53.6293 49.1282 53.4615 49.5799C53.401 49.7422 53.3641 49.8938 53.3507 50.0347C53.3452 50.0904 53.3646 50.1012 53.4089 50.0672C53.7166 49.8321 54.0298 49.6038 54.3484 49.3824C54.9331 48.9766 55.4874 48.7209 56.1634 48.74C56.514 48.7503 56.7218 48.7642 57.0106 48.8993C57.2034 48.9895 57.3803 48.9797 57.6128 48.9385C58.1728 48.8391 58.7362 48.8132 59.303 48.8606C59.5402 48.8802 59.7939 48.987 60.0641 48.9947C60.0706 48.9947 60.0739 48.9981 60.0739 49.005C60.0739 49.0098 60.0739 49.0148 60.0739 49.02C60.0739 49.0206 60.0734 49.021 60.0724 49.021C59.633 49.0225 59.1489 48.9292 58.7761 48.9266C58.2976 48.9235 57.8229 48.9648 57.3519 49.0504C57.169 49.0837 56.974 49.1427 56.7667 49.2272C56.3769 49.3871 55.9742 49.5196 55.6272 49.7552C55.4089 49.9041 55.1956 50.0598 54.9873 50.2224C54.6944 50.4508 54.5021 50.7855 54.3298 51.1051C54.2384 51.275 54.1765 51.4479 54.1442 51.6239C54.0576 52.0972 54.067 52.5719 54.1726 53.048C54.2021 53.1824 54.2498 53.29 54.3154 53.3708C54.3515 53.4148 54.385 53.4129 54.416 53.3651C54.5423 53.1723 54.6341 52.9753 54.8037 52.8232C55.1564 52.5066 55.4962 52.2168 55.9056 51.959C56.4738 51.6017 56.9874 51.2933 57.6221 51.1062C57.915 51.0201 58.2826 50.9814 58.6075 50.9118C58.6167 50.91 58.6262 50.9115 58.6343 50.916C58.6425 50.9205 58.6487 50.9278 58.6518 50.9365C58.6656 50.9754 58.6463 51.0003 58.5941 51.0113C58.2543 51.0825 57.8547 51.0959 57.4772 51.2346C56.9128 51.4422 56.4107 51.7124 55.9711 52.0451C55.8872 52.1087 55.8176 52.1869 55.7623 52.2797C55.538 52.6572 55.2946 53.0805 55.2234 53.5193C55.1014 54.2731 55.021 55.032 54.9821 55.7958L54.8965 55.6834C54.9154 55.6916 54.9257 55.6861 54.9275 55.6669C54.9419 55.516 54.9505 55.3257 54.9532 55.0961C54.9536 55.072 54.9452 55.0682 54.928 55.0847C54.8259 55.1813 54.7551 55.298 54.7155 55.4348C54.6753 55.406 54.6499 55.3726 54.6392 55.3348C54.6595 55.3321 54.6739 55.3238 54.6825 55.3101C54.9201 54.9416 55.0397 54.5375 55.0414 54.0978C55.0414 54.0935 55.0403 54.0893 55.0382 54.0855C55.0362 54.0817 55.0331 54.0785 55.0295 54.0762C55.0258 54.074 55.0216 54.0727 55.0173 54.0725C55.013 54.0723 55.0087 54.0732 55.0048 54.0751C54.7181 54.2199 54.4366 54.3806 54.1602 54.5573C54.1324 54.5751 54.1195 54.594 54.1215 54.614C54.1239 54.636 54.1373 54.6599 54.1618 54.6856L54.0225 54.5088C54.3701 54.3445 54.7028 54.1587 55.0208 53.9514C55.024 53.9493 55.0264 53.9462 55.0276 53.9426C55.0289 53.939 55.0289 53.935 55.0277 53.9315C55.0266 53.9279 55.0242 53.9248 55.0211 53.9229C55.0179 53.9209 55.0142 53.92 55.0105 53.9205C54.6722 53.9504 54.2968 54.152 54.0236 54.3319C53.9734 54.3649 53.9584 54.4015 53.9787 54.4418C53.9347 54.3998 53.9033 54.3568 53.8843 54.3128C54.0813 54.1994 54.281 54.0896 54.4835 53.9834C54.631 53.906 54.9971 53.8978 55.0873 53.7745C55.1662 53.6663 55.1672 53.3347 55.2018 53.1883C55.274 52.8861 55.5034 52.5814 55.6529 52.2973C55.6615 52.2808 55.6634 52.2667 55.6586 52.255C55.6571 52.2512 55.6547 52.2478 55.6517 52.245C55.6487 52.2423 55.6451 52.2402 55.6412 52.2391C55.6373 52.2379 55.6332 52.2376 55.6291 52.2382C55.6251 52.2388 55.6213 52.2403 55.6179 52.2426C55.2463 52.5011 54.9276 52.8083 54.6619 53.164C54.5402 53.3273 54.4481 53.4483 54.3855 53.527C54.3806 53.5331 54.3736 53.5371 54.366 53.5382C54.3583 53.5394 54.3506 53.5376 54.3443 53.5332C53.9359 53.2512 53.9653 52.2586 54.0334 51.8353C54.0343 51.8296 54.0338 51.8237 54.0318 51.8183C54.0299 51.8129 54.0266 51.808 54.0223 51.8042C54.0179 51.8004 54.0127 51.7977 54.0071 51.7965C54.0014 51.7952 53.9956 51.7955 53.99 51.7971C53.5234 51.9379 53.0578 52.3004 52.6706 52.5901C52.6558 52.6011 52.6496 52.6209 52.652 52.6494C52.6077 52.6099 52.5745 52.5638 52.5525 52.5113C52.5772 52.5202 52.5984 52.5188 52.6159 52.5071C52.8851 52.327 53.1542 52.1464 53.4234 51.9652C53.6054 51.8425 53.8013 51.7853 54.0029 51.6945C54.0119 51.6905 54.0199 51.6844 54.0262 51.6767C54.0326 51.669 54.0371 51.66 54.0395 51.6502L54.1169 51.3356C54.1227 51.3129 54.114 51.3019 54.0906 51.3026C53.6812 51.315 53.3405 51.3487 53.0686 51.4037C52.7293 51.4721 52.389 51.6165 52.0477 51.8368C52.0164 51.822 51.9934 51.7914 51.9786 51.745C52.4327 51.5219 52.7823 51.3819 53.0274 51.3248C53.1927 51.2863 53.5562 51.2449 54.1179 51.2005C54.1351 51.1992 54.1495 51.1921 54.1612 51.1794C54.2932 51.033 54.3833 50.9085 54.4314 50.8061C54.5134 50.6303 54.5825 50.475 54.7295 50.34C55.0797 50.0189 55.4644 49.7477 55.8834 49.5263C56.2129 49.3525 56.6378 49.2051 57.0199 49.0499C57.078 49.0261 57.0778 49.0033 57.0193 48.9813C56.4793 48.7768 55.929 48.7621 55.3683 48.9375C55.0708 49.0303 54.6578 49.2556 54.4211 49.4288C54.0612 49.6925 53.7032 49.9541 53.3471 50.2136C53.3387 50.2197 53.329 50.2234 53.3187 50.2245C53.3085 50.2255 53.2981 50.2238 53.2888 50.2196C53.2794 50.2154 53.2713 50.2087 53.2653 50.2003C53.2594 50.1919 53.2557 50.1821 53.2548 50.1719C53.2441 50.0605 53.2615 49.9424 53.3068 49.8176C53.4127 49.5261 53.5244 49.2348 53.642 48.9436C53.6432 48.9405 53.6436 48.937 53.643 48.9336C53.6425 48.9303 53.6411 48.9271 53.6389 48.9245C53.6368 48.9218 53.634 48.9198 53.6308 48.9185C53.6277 48.9173 53.6242 48.9169 53.6209 48.9173C53.4751 48.9414 53.3503 48.9725 53.2465 49.0107C52.425 49.3115 51.6055 49.6519 50.788 50.0321C50.7829 50.0344 50.7783 50.0378 50.7745 50.0419C50.7707 50.0461 50.7678 50.051 50.766 50.0563C50.7642 50.0616 50.7634 50.0672 50.7638 50.0728C50.7643 50.0784 50.7658 50.0839 50.7684 50.0888L50.8019 50.1523L50.6803 49.9831C51.267 49.7257 51.8548 49.4699 52.4437 49.2159C52.784 49.0689 53.0985 48.9668 53.4399 48.8751C53.8183 48.773 53.9565 48.56 54.1525 48.2475C54.1549 48.2438 54.1563 48.2394 54.1565 48.2349C54.1567 48.2305 54.1558 48.226 54.1539 48.222C54.1519 48.2179 54.149 48.2145 54.1453 48.2119C54.1416 48.2094 54.1373 48.2078 54.1329 48.2073C53.8775 48.1805 53.6205 48.146 53.362 48.1037C53.2249 48.0815 53.0707 48.0748 52.9505 48.0867C52.0073 48.1791 51.3628 48.2656 51.017 48.346C50.6065 48.4416 50.1985 48.5452 49.7929 48.657C49.7544 48.6676 49.7404 48.6922 49.7511 48.7307C49.7057 48.6894 49.6729 48.6449 49.6526 48.5971C49.9132 48.5325 50.1751 48.4675 50.4384 48.4022C51.2239 48.207 52.0198 48.0777 52.8263 48.0145C52.9951 48.0011 53.1719 48.0068 53.3569 48.0315C53.6291 48.0676 53.9416 48.1413 54.2149 48.1073C54.2946 48.0977 54.374 48.0635 54.4531 48.0047C54.6717 47.8418 54.8884 47.6749 55.1033 47.504C55.3791 47.2844 55.7751 47.1941 56.1108 47.1101C56.2793 47.0678 56.5211 47.0264 56.8363 46.9858C57.155 46.9446 57.4793 46.8968 57.8093 46.8425C57.8156 46.8415 57.8215 46.8386 57.8262 46.8342C57.8308 46.8297 57.834 46.824 57.8353 46.8177C57.8366 46.8114 57.8359 46.8049 57.8334 46.799C57.8308 46.7931 57.8266 46.7881 57.8211 46.7847C57.6314 46.6641 57.4277 46.58 57.1952 46.5187C56.7311 46.3966 56.2612 46.3016 55.7855 46.2335C55.0033 46.1216 54.2159 46.184 53.4363 46.2021C53.4252 46.2023 53.4143 46.199 53.4052 46.1926C53.3961 46.1861 53.3893 46.177 53.3858 46.1665C53.3823 46.1559 53.3822 46.1445 53.3857 46.134C53.3891 46.1234 53.3958 46.1142 53.4048 46.1077C53.7245 45.8788 54.1282 45.7499 54.467 45.6127C54.578 45.568 54.5743 45.5373 54.4557 45.5204C54.0201 45.4585 53.5825 45.4059 53.1429 45.3626C52.8115 45.33 52.502 45.3229 52.2142 45.3415C51.4968 45.3882 50.7882 45.4989 50.0883 45.6735C49.3847 45.8489 48.7498 46.1084 48.1836 46.4521C48.1485 46.4735 48.1336 46.5063 48.1387 46.5506L48.0454 46.4289C48.6281 46.1134 49.2458 45.7839 49.896 45.6302C50.4688 45.4946 51.2815 45.3209 51.9147 45.2868C52.7548 45.2421 53.6332 45.304 54.55 45.4725C54.8609 45.5292 55.0698 45.3559 55.3575 45.2966C55.5771 45.2513 55.7992 45.2098 56.0237 45.1724Z" fill="#FF8017"/>
<path d="M27.0238 50.126L27.6085 52.0967C26.515 53.283 25.5322 54.5461 24.6601 55.886C24.6488 55.9036 24.643 55.9018 24.6426 55.8809C24.6251 54.7341 25.0479 53.5095 25.5604 52.4958C25.976 51.6735 26.4638 50.8836 27.0238 50.126Z" fill="#0B8C4C"/>
<path d="M44.7506 53.4862C44.7485 53.4862 44.7463 53.486 44.7439 53.4857C44.7397 53.485 44.737 53.4867 44.7356 53.4909C43.186 58.3834 41.6369 63.2762 40.0883 68.1692C39.9886 68.484 39.9403 68.7126 39.9434 68.8549C39.9521 69.2293 40.0785 69.4329 40.3425 69.7253C41.5226 71.0329 42.703 72.344 43.8838 73.6585C43.8867 73.6617 43.8889 73.6655 43.8901 73.6697C43.8914 73.6739 43.8916 73.6783 43.8909 73.6826C43.8901 73.6869 43.8884 73.6909 43.8858 73.6944C43.8833 73.6979 43.8799 73.7008 43.8761 73.7028L41.8522 74.7671C41.8388 74.7743 41.8246 74.7765 41.8094 74.7738L41.7728 74.7676C41.7849 74.7504 41.7857 74.736 41.7754 74.7243C40.5908 73.4404 39.4046 72.1577 38.2166 70.8762C37.9832 70.6242 37.8467 70.4628 37.8072 70.392C37.5385 69.9084 37.7247 69.3639 37.8752 68.889C39.695 63.159 41.5145 57.4319 43.3336 51.7078C43.3346 51.7046 43.3365 51.7017 43.3391 51.6994C43.3417 51.6972 43.3448 51.6957 43.3481 51.6951C43.3515 51.6945 43.3549 51.6949 43.3581 51.6961C43.3613 51.6974 43.364 51.6994 43.3661 51.7022L44.7506 53.4862Z" fill="#342D37"/>
<path d="M61.5372 52.2626L61.5073 52.3729C61.0158 52.7277 60.5807 53.0635 60.2023 53.3805C59.9115 53.6238 59.5949 53.9017 59.3855 54.2395C58.9957 54.8685 58.6423 55.5174 58.3254 56.186C58.1485 56.5593 58.0377 56.9506 57.9113 57.3508C57.8869 57.4281 57.8459 57.4382 57.7881 57.3812C57.7118 57.3066 57.662 57.194 57.6386 57.0434C57.5255 56.3181 57.4868 55.5872 57.5226 54.8505C57.5228 54.8462 57.522 54.842 57.5204 54.838C57.5187 54.8341 57.5163 54.8305 57.5131 54.8276C57.51 54.8247 57.5063 54.8226 57.5022 54.8213C57.4981 54.8199 57.4938 54.8195 57.4896 54.8201C57.0348 54.8789 56.8115 55.0995 56.4748 55.3862C56.4678 55.3921 56.4592 55.3959 56.4501 55.3971C56.441 55.3984 56.4317 55.397 56.4234 55.3932C56.4151 55.3895 56.408 55.3834 56.4031 55.3758C56.3981 55.3681 56.3955 55.3592 56.3954 55.3501L56.3934 55.2068C56.393 55.181 56.3832 55.1767 56.364 55.1939L55.6911 55.7956C55.6333 55.8125 55.6024 55.8548 55.5983 55.9225C55.5969 55.9465 55.6063 55.9522 55.6266 55.9395L55.7029 55.8915C55.7122 55.8857 55.7148 55.8776 55.7107 55.8673C55.7058 55.8546 55.7016 55.847 55.6978 55.8446L56.4532 55.4682C56.46 55.4647 56.4679 55.4634 56.4755 55.4646C56.4831 55.4657 56.4902 55.4693 56.4957 55.4747C56.5012 55.4802 56.5048 55.4872 56.5061 55.4948C56.5073 55.5025 56.5061 55.5103 56.5027 55.5172C56.3887 55.7451 56.1794 55.8766 56.0608 56.0767C55.9061 56.3376 55.8136 56.6074 55.7834 56.8862L55.6895 56.7547C55.7586 56.5378 55.8339 56.3303 55.9154 56.1323C55.9891 55.9529 56.1226 55.8513 56.2552 55.7126C56.2583 55.7092 56.2602 55.7047 56.2605 55.7001C56.2609 55.6954 56.2597 55.6907 56.2571 55.6869C56.2545 55.683 56.2507 55.6802 56.2463 55.6789C56.2419 55.6776 56.2372 55.6778 56.233 55.6796C55.8971 55.814 55.6031 56.0215 55.3508 56.302L55.2002 56.0926C55.5319 55.6303 55.8282 55.1509 56.0891 54.6546C56.1393 54.559 56.2015 54.476 56.2758 54.4055C56.8517 53.862 57.4148 53.466 57.9454 52.9473C58.0289 52.8655 58.1186 52.8007 58.2145 52.7529C58.5012 52.6099 58.7919 52.4767 59.0865 52.3533C59.115 52.3416 59.138 52.3379 59.1556 52.342C59.1636 52.3439 59.1708 52.3484 59.1761 52.3547C59.1814 52.361 59.1845 52.3689 59.185 52.3771C59.1856 52.3854 59.1834 52.3936 59.179 52.4005C59.1745 52.4075 59.1679 52.4128 59.1602 52.4157C58.7358 52.5714 58.2589 52.7571 57.9181 53.0649C57.3313 53.5944 56.6295 54.3663 56.5047 55.1805C56.5039 55.1869 56.5051 55.1933 56.5082 55.1989C56.5113 55.2045 56.5161 55.209 56.522 55.2117C56.5278 55.2143 56.5343 55.215 56.5406 55.2137C56.5469 55.2123 56.5526 55.209 56.5568 55.2042C56.7692 54.9591 57.041 54.8067 57.372 54.7469C57.4318 54.736 57.4906 54.702 57.5685 54.7262C57.5867 54.7321 57.5961 54.7444 57.5968 54.7634C57.6159 55.297 57.6164 55.8297 57.6412 56.3633C57.6539 56.6359 57.703 56.9029 57.7886 57.1641C57.8227 57.2676 57.8555 57.2672 57.8871 57.1631C58.0036 56.7789 58.1269 56.3917 58.3043 56.0246C58.5693 55.477 58.8481 54.9595 59.1406 54.472C59.3371 54.1446 59.55 53.8667 59.8542 53.6001C60.3796 53.1391 60.9205 52.5972 61.5372 52.2626Z" fill="#FF8017"/>
<path d="M55.6911 55.7957L55.6978 55.8446C55.7016 55.847 55.7059 55.8546 55.7107 55.8673C55.7148 55.8776 55.7122 55.8857 55.7029 55.8916L55.6266 55.9395C55.6064 55.9522 55.5969 55.9466 55.5983 55.9225C55.6024 55.8548 55.6333 55.8125 55.6911 55.7957Z" fill="#BD2031"/>
<path d="M59.7087 58.6357C59.7107 58.6845 59.6999 58.7323 59.6762 58.7791C59.6074 58.6519 59.5387 58.5168 59.4699 58.3738C59.3859 58.198 59.3915 58.0438 59.3792 57.8551C59.373 57.7623 59.3075 57.7318 59.3003 57.6457C59.2693 57.2697 59.2929 56.8984 59.3709 56.532C59.4184 56.3072 59.5339 56.104 59.6365 55.8952C59.6616 55.844 59.6915 55.8129 59.7262 55.8019C59.7338 55.7995 59.742 55.7994 59.7497 55.8017C59.7574 55.8039 59.7643 55.8083 59.7695 55.8144C59.7746 55.8204 59.7779 55.8278 59.7788 55.8357C59.7797 55.8436 59.7783 55.8515 59.7747 55.8586C59.6519 56.0989 59.5096 56.3108 59.4581 56.5696C59.4017 56.8546 59.3759 57.1253 59.3807 57.3817C59.3886 57.8173 59.4979 58.2353 59.7087 58.6357Z" fill="#FF8017"/>
<path d="M57.0848 58.626L56.9595 58.4698C56.965 58.0789 56.9956 57.7065 57.0513 57.3524C57.0525 57.3447 57.0563 57.3376 57.0621 57.3325C57.068 57.3273 57.0754 57.3243 57.0832 57.324C57.1258 57.3227 57.1477 57.3417 57.1487 57.3813C57.1518 57.4923 57.1398 57.6004 57.1126 57.7056C57.0755 57.8476 57.0557 57.9476 57.0533 58.0057C57.0447 58.2071 57.0552 58.4139 57.0848 58.626Z" fill="#FF8017"/>
<path d="M57.7875 59.5923L57.623 59.3634C57.6863 58.9832 57.8032 58.6386 57.9737 58.3296C58.0407 58.2075 58.1308 58.0974 58.2439 57.9991C58.2498 57.9942 58.2572 57.9915 58.2649 57.9915C58.2726 57.9914 58.28 57.9941 58.2859 57.999C58.2919 58.0039 58.2959 58.0107 58.2973 58.0182C58.2988 58.0258 58.2976 58.0336 58.2939 58.0403C58.1825 58.2321 58.019 58.4012 57.9355 58.5889C57.7915 58.9114 57.7422 59.2458 57.7875 59.5923Z" fill="#FF8017"/>
<path d="M72.3646 75.1306C72.0042 74.8083 71.4613 74.6851 70.9879 74.5495C70.9833 74.5481 70.9783 74.5481 70.9737 74.5495C70.9691 74.5508 70.9649 74.5534 70.9616 74.557C70.9584 74.5607 70.9563 74.5651 70.9555 74.5699C70.9546 74.5746 70.9552 74.5795 70.957 74.584C70.9697 74.6167 70.9991 74.6395 71.0452 74.6526C71.5025 74.782 71.9609 74.8934 72.327 75.1945C72.3337 75.2 72.342 75.2031 72.3506 75.2033C72.3591 75.2036 72.3675 75.2011 72.3744 75.196C72.3978 75.1789 72.3946 75.157 72.3646 75.1306Z" stroke="#F8C193" stroke-width="0.103125"/>
<path d="M65.8959 68.0547L65.7546 70.3879C65.7553 70.4267 65.7261 70.4152 65.667 70.3533C65.7265 69.7432 65.7579 69.1238 65.7613 68.495L65.8959 68.0547Z" fill="#FF8017"/>
<path d="M68.2518 72.3029L67.914 72.3261C67.8845 72.3096 67.857 72.3112 67.8315 72.3307C67.8539 72.2995 67.8611 72.2919 67.8532 72.3081L68.2518 72.3029Z" fill="#BD2031"/>
<path d="M70.9879 74.5495C71.4613 74.6851 72.0042 74.8083 72.3646 75.1306C72.3946 75.157 72.3978 75.1789 72.3744 75.196C72.3675 75.2011 72.3591 75.2036 72.3506 75.2033C72.342 75.2031 72.3337 75.2 72.327 75.1945C71.9609 74.8934 71.5025 74.782 71.0452 74.6526C70.9991 74.6395 70.9697 74.6167 70.957 74.584C70.9552 74.5795 70.9546 74.5746 70.9555 74.5699C70.9563 74.5651 70.9584 74.5607 70.9616 74.557C70.9649 74.5534 70.9691 74.5508 70.9737 74.5495C70.9783 74.5481 70.9833 74.5481 70.9879 74.5495Z" fill="#FF8017"/>
</svg>
