<svg width="100" height="100" viewBox="0 0 100 100" fill="none" xmlns="http://www.w3.org/2000/svg">
<rect width="100" height="100" fill="#D7D7D7"/>
<path d="M79.5964 33.9162C79.579 33.9526 79.56 33.9779 79.5394 33.992C79.144 34.2614 78.5395 34.6595 77.726 35.1863L77.7333 35.0836C77.7355 35.0565 77.7235 35.0388 77.6975 35.0307C76.5154 34.6616 75.2861 34.247 74.1521 33.9252C69.6336 32.6424 65.0333 31.7753 60.3512 31.324C58.5574 31.1508 57.3696 31.0413 56.7879 30.9957C53.2317 30.7149 49.4301 30.6788 45.3829 30.8874C43.4093 30.9889 41.5869 31.119 39.9158 31.2776C34.9687 31.7463 30.0844 32.6861 25.2628 34.0971C22.8905 34.7917 20.6899 35.5911 18.6609 36.4954C16.552 37.435 14.6365 38.472 12.9144 39.6065C10.4118 41.2546 7.90674 43.5356 6.59027 46.193C5.396 48.6043 5.29553 51.0455 6.28885 53.5166C6.92509 55.0995 8.04767 56.6172 9.26312 57.7878C9.91593 58.4167 10.6793 59.0921 11.5531 59.8138L11.1189 61.6533C11.0749 61.5659 11.0358 61.5102 11.0016 61.4863C6.653 58.4892 3.03434 53.5622 4.23187 48.0218C4.93572 44.7657 7.12875 41.9772 9.67615 39.89C10.9364 38.8571 12.1991 37.952 13.5865 37.1496C16.0434 35.7294 18.6731 34.5218 21.4755 33.5268C23.7581 32.7165 25.9292 32.0607 27.9886 31.5595C33.8956 30.1208 40.082 29.3021 46.0151 29.074C51.9612 28.8451 57.8975 29.1489 63.7825 29.9652C64.3131 30.0391 64.8497 30.1211 65.3922 30.2112C69.6366 30.9159 73.5395 31.8218 77.6079 33.1782C78.2661 33.3973 78.9365 33.6621 79.5964 33.9162Z" fill="#17AEE3"/>
<path d="M92.899 33.012C92.4232 33.3612 91.8978 33.6298 91.3226 33.8177C89.3634 34.458 87.5435 35.3378 85.779 36.3814C83.7049 37.6088 81.7307 38.9008 79.8565 40.2575C77.0134 42.3164 74.1333 44.5203 71.2163 46.8692C68.0099 49.451 64.8032 52.0327 61.5962 54.614C60.3693 55.6014 59.0985 56.5463 57.8586 57.5247C57.1053 58.12 55.8366 59.0503 54.0526 60.3157C52.6139 61.3367 51.1388 62.3005 49.6274 63.2069C48.1475 64.0938 46.6444 64.7955 45.1183 65.3119C43.7117 65.7888 42.2959 65.8523 40.8708 65.5026C39.3474 65.1287 38.2558 64.226 37.6904 62.745C36.8945 60.3434 37.5022 57.6209 38.2859 55.2584C38.691 54.1005 39.1464 53.017 39.6521 52.008C39.7379 51.8358 39.777 51.6617 39.7694 51.4858C39.7688 51.4729 39.7642 51.4606 39.7561 51.4508C39.748 51.4409 39.7369 51.434 39.7246 51.4312C39.2757 51.3294 38.5767 51.8312 38.145 52.1285C37.3537 52.6738 36.5846 53.2487 35.8379 53.8531C34.1315 55.2342 32.4338 56.6254 30.7447 58.0266C28.8048 59.6368 26.7988 61.1591 24.7269 62.5935C23.4219 63.4972 22.06 64.3018 20.6415 65.0073C17.8081 66.415 14.1724 67.3258 11.8001 64.5169C11.7322 64.4365 11.6228 64.2608 11.4718 63.9898C11.1487 63.2289 11.0308 62.4501 11.1183 61.6534L11.5525 59.8139C11.8658 59.0264 12.0776 58.5243 12.1879 58.3076C13.0721 56.5719 14.2107 54.8462 15.6037 53.1305C17.214 51.1482 18.7493 49.4106 20.2097 47.9176C21.1699 46.9357 22.4755 45.5606 24.1265 43.7922C26.3717 41.3879 29.2422 38.4199 32.7382 34.8882C33.4827 34.1362 34.5418 33.7151 35.5633 33.4943C35.8982 33.4226 36.2819 33.3868 36.6444 33.3428C36.9757 33.3026 37.2483 33.2838 37.4623 33.2866C38.3739 33.2988 40.417 33.4861 40.5156 34.766C40.5677 35.4405 40.0235 36.0555 39.551 36.5541C34.6496 40.9717 29.8826 45.5304 25.2499 50.2304C23.7624 51.7397 22.3156 53.2867 20.9095 54.8714C20.1345 55.7447 19.4165 56.662 18.7556 57.6233C18.4973 57.9997 17.8668 58.9039 18.2114 59.3601C18.5755 59.8416 19.712 59.3259 20.2138 59.0522C20.91 58.6791 21.4784 58.3421 21.9188 58.0412C23.9514 56.6523 26.0939 55.0572 28.203 53.4059C31.2628 51.0097 34.3742 48.6826 37.5372 46.4244C37.9934 46.0985 38.4418 45.7925 38.8822 45.5063C40.5995 44.3926 41.9819 43.5576 43.731 42.7031C45.0833 42.0424 47.6535 41.0208 48.9301 42.299C49.5508 42.9214 49.7186 43.71 49.4335 44.6647C49.1207 45.6863 48.6865 46.8124 48.1309 48.0431C47.3955 49.6702 46.6607 51.2976 45.9265 52.9252C45.3578 54.1847 44.7705 55.5191 44.4096 56.8543C44.2923 57.2885 43.9029 58.4722 44.5513 58.6685C44.7708 58.7353 45.0282 58.7177 45.3236 58.6156C45.5485 58.5384 45.7263 58.4733 45.8572 58.42C46.6072 58.0898 47.2918 57.7279 47.9109 57.3341C49.3713 56.4054 50.7983 55.4284 52.1919 54.403C54.4583 52.7352 56.6983 51.0325 58.9119 49.2952C61.386 47.3522 63.8862 45.4403 66.3708 43.512C70.0813 40.6314 73.8661 37.8562 77.7254 35.1863C78.5389 34.6595 79.1434 34.2614 79.5388 33.992C79.5594 33.9779 79.5784 33.9527 79.5958 33.9163C79.6121 33.9081 79.6281 33.9038 79.6438 33.9032C79.6688 33.9022 79.6919 33.8948 79.7131 33.8813C81.9257 32.4426 84.17 31.1432 86.6148 30.1371C87.7852 29.6549 89.0033 29.3964 90.2693 29.3616C90.8211 29.3464 91.4041 29.4249 92.0183 29.597C93.7006 30.0679 94.5274 31.7681 92.899 33.012Z" fill="#223670"/>
<path d="M77.7255 35.1861C73.8663 37.856 70.0814 40.6312 66.371 43.5118C63.8863 45.4401 61.3862 47.3521 58.9121 49.295C56.6984 51.0324 54.4584 52.735 52.1921 54.4028C50.7985 55.4282 49.3715 56.4052 47.9111 57.3339C47.292 57.7277 46.6074 58.0896 45.8574 58.4198C46.4879 56.8948 46.9721 55.7739 47.3099 55.057C48.3983 52.7488 49.2523 50.8474 49.8719 49.3528C50.1337 48.7212 50.3629 47.9763 50.5595 47.1182C50.7518 46.2751 50.2776 45.4588 49.5811 45.0042C49.4595 44.9249 49.4103 44.8117 49.4337 44.6645C49.7188 43.7098 49.551 42.9212 48.9302 42.2988C47.6537 41.0206 45.0835 42.0422 43.7311 42.7029C41.9821 43.5574 40.5996 44.3924 38.8824 45.5061C38.4419 45.7923 37.9936 46.0983 37.5374 46.4242C34.3744 48.6824 31.263 51.0095 28.2032 53.4057C26.0941 55.057 23.9515 56.6521 21.919 58.041C21.4785 58.3419 20.9102 58.6789 20.2139 59.052C20.1776 59.0547 20.1545 59.0433 20.1447 59.0178C20.1344 58.9901 20.1387 58.9651 20.1577 58.9428C20.6938 58.3148 21.2477 57.707 21.7887 57.0846C22.7744 55.949 23.8245 54.8843 24.8542 53.7967C25.243 53.3861 25.6218 52.9967 25.9906 52.6285C29.6674 48.9583 33.4158 45.3627 37.236 41.8418C37.9993 41.1379 39.1064 40.1962 39.9854 39.3017C40.8489 38.4227 41.2334 37.1111 39.6351 36.6688C39.5884 36.6557 39.5604 36.6175 39.5512 36.5539C40.0237 36.0553 40.5679 35.4403 40.5157 34.7658C40.4172 33.486 38.374 33.2986 37.4624 33.2864C37.2485 33.2836 36.9758 33.3024 36.6445 33.3426C36.282 33.3866 35.8983 33.4224 35.5635 33.4941C34.5419 33.7149 33.4829 34.136 32.7383 34.888C29.2424 38.4197 26.3718 41.3878 24.1267 43.792C22.4757 45.5604 21.1701 46.9355 20.2099 47.9174C18.7495 49.4104 17.2141 51.148 15.6039 53.1303C14.2108 54.846 13.0722 56.5717 12.188 58.3074C12.0778 58.5241 11.866 59.0262 11.5526 59.8137C10.6788 59.0919 9.91545 58.4166 9.26265 57.7877C8.0472 56.617 6.92462 55.0993 6.28838 53.5165C5.29505 51.0454 5.39553 48.6042 6.5898 46.1928C7.90626 43.5354 10.4113 41.2544 12.9139 39.6064C14.6361 38.4719 16.5516 37.4348 18.6604 36.4953C20.6894 35.591 22.8901 34.7916 25.2623 34.0969C30.0839 32.686 34.9683 31.7461 39.9153 31.2774C41.5865 31.1189 43.4088 30.9888 45.3824 30.8872C49.4296 30.6787 53.2313 30.7148 56.7875 30.9956C57.3691 31.0412 58.5569 31.1506 60.3507 31.3239C65.0328 31.7752 69.6331 32.6423 74.1517 33.925C75.2857 34.2468 76.515 34.6615 77.697 35.0305C77.7231 35.0387 77.735 35.0563 77.7328 35.0835L77.7255 35.1861Z" fill="white"/>
<path d="M92.8992 33.012C93.1376 33.1266 93.3527 33.2626 93.5444 33.4201C93.7594 33.5966 93.9115 33.7948 94.0006 34.0148C94.3354 34.84 93.7814 35.5162 93.177 36.0424C93.0608 36.1429 92.8033 36.286 92.4047 36.4718C91.4157 36.932 90.3428 37.209 89.3555 37.6546C88.2731 38.1434 87.2178 38.6862 86.1898 39.2831C85.4751 39.66 84.7174 40.1089 83.9169 40.6297C81.7575 42.0347 79.7266 43.453 77.8242 44.8846C77.6506 45.015 77.4673 45.1779 77.3582 45.2602C74.9257 47.0855 72.9281 48.6361 71.3656 49.9118C70.942 50.2572 70.5961 50.5361 70.3278 50.7485C69.6701 51.2687 69.322 51.5446 69.2834 51.5761C65.8538 54.3785 62.3937 57.1432 58.9032 59.8701C56.6515 61.6291 54.3349 63.2973 51.9534 64.8744C50.6386 65.745 49.2779 66.536 47.8713 67.2475C46.7221 67.8291 45.6112 68.2601 44.5385 68.5403C43.7179 68.7549 42.8802 68.7975 42.0254 68.6682C39.9382 68.3513 38.4067 67.5261 37.7876 65.3339C37.6453 64.8288 37.5589 64.1632 37.5285 63.3372C37.5247 63.2335 37.5787 63.036 37.6906 62.7449C38.256 64.226 39.3476 65.1286 40.871 65.5025C42.2961 65.8523 43.7119 65.7887 45.1186 65.3119C46.6447 64.7954 48.1477 64.0937 49.6276 63.2068C51.1391 62.3004 52.6141 61.3367 54.0528 60.3157C55.8369 59.0502 57.1055 58.1199 57.8588 57.5247C59.0987 56.5463 60.3696 55.6013 61.5964 54.614C64.8034 52.0326 68.0101 49.451 71.2166 46.8691C74.1335 44.5202 77.0136 42.3163 79.8567 40.2574C81.7309 38.9008 83.7051 37.6087 85.7792 36.3813C87.5437 35.3378 89.3636 34.458 91.3229 33.8176C91.898 33.6297 92.4234 33.3612 92.8992 33.012Z" fill="#60C7F1"/>
<path d="M39.5516 36.5541C39.5608 36.6176 39.5888 36.6559 39.6355 36.6689C41.2338 37.1113 40.8493 38.4229 39.9858 39.3019C39.1068 40.1964 37.9997 41.1381 37.2364 41.8419C33.4162 45.3629 29.6677 48.9584 25.991 52.6287C25.6222 52.9969 25.2434 53.3863 24.8546 53.7969C23.8248 54.8844 22.7748 55.9492 21.789 57.0848C21.2481 57.7072 20.6942 58.3149 20.1581 58.943C20.1391 58.9653 20.1348 58.9903 20.1451 59.018C20.1549 59.0435 20.1779 59.0549 20.2143 59.0522C19.7125 59.3259 18.5761 59.8416 18.2119 59.3601C17.8673 58.9039 18.4979 57.9996 18.7561 57.6233C19.4171 56.662 20.135 55.7447 20.91 54.8714C22.3161 53.2866 23.7629 51.7396 25.2505 50.2304C29.8831 45.5304 34.6501 40.9716 39.5516 36.5541Z" fill="#60C7F1"/>
<path d="M86.1899 39.2831C86.1867 39.3037 86.1883 39.3219 86.1948 39.3377C86.2002 39.3503 86.2098 39.3607 86.2219 39.3671C86.2341 39.3735 86.2481 39.3755 86.2616 39.3727C86.4954 39.3238 86.664 39.3108 86.8783 39.4476C87.7967 40.038 88.6648 40.694 89.4827 41.4158C89.7016 41.6092 89.893 41.8256 90.057 42.0651C90.0744 42.0912 90.0997 42.1075 90.1328 42.114C90.1402 42.1153 90.1479 42.1144 90.1549 42.1114C90.1618 42.1084 90.1677 42.1034 90.1718 42.097C90.1759 42.0907 90.178 42.0832 90.1779 42.0757C90.1778 42.0681 90.1754 42.0607 90.1711 42.0545C90.1363 42.0062 90.1184 41.9481 90.1173 41.8802C90.1882 41.9893 90.2737 42.1352 90.3715 42.224C91.6244 43.3661 92.6243 44.6519 93.371 46.0813C94.1884 47.6454 94.5096 49.307 94.3347 51.0661C94.1319 53.1158 93.1323 55.0082 91.802 56.622C90.9162 57.6963 89.9772 58.6163 88.985 59.382C87.9759 60.1608 87.0437 60.8139 86.1883 61.3413C83.9035 62.7501 81.4359 63.9424 78.7856 64.9184C76.8489 65.6309 75.0013 66.2308 73.2427 66.7179C72.0756 67.0411 70.7814 67.3482 69.3601 67.6393C68.9577 67.7216 68.4266 67.8666 67.9532 67.9456C67.2869 68.0564 66.9325 68.1159 66.8901 68.124C63.7203 68.7415 60.83 69.0714 57.538 69.3452C56.9992 69.3897 56.4578 69.4258 55.9136 69.4535C54.2408 69.5393 52.7875 69.5888 51.5536 69.6018C49.6433 69.6222 47.3614 69.6067 45.1603 69.5081C39.7369 69.2659 34.3529 68.5191 29.0083 67.2678C27.411 66.8942 25.9197 66.495 24.5342 66.0703L24.4862 65.9351C24.4753 65.9041 24.4832 65.8797 24.5098 65.8617C25.7529 65.0259 26.7446 64.3283 27.4849 63.7689C30.139 61.7649 32.9951 59.2949 35.7617 57.0684C36.4509 56.5137 37.3454 55.8628 38.1176 55.2339C38.1486 55.2089 38.1763 55.1999 38.2007 55.207C38.2268 55.2146 38.2553 55.2317 38.2863 55.2583C37.5026 57.6208 36.8949 60.3433 37.6908 62.7449C37.5789 63.036 37.5249 63.2334 37.5287 63.3372C37.5591 64.1632 37.6454 64.8288 37.7877 65.3339C38.4068 67.5261 39.9384 68.3513 42.0255 68.6682C42.8803 68.7975 43.7181 68.7548 44.5387 68.5403C45.6113 68.2601 46.7222 67.8291 47.8714 67.2475C49.278 66.536 50.6388 65.745 51.9536 64.8744C54.3351 63.2972 56.6517 61.6291 58.9033 59.87C62.3938 57.1431 65.8539 54.3785 69.2836 51.5761C69.3221 51.5446 69.6702 51.2687 70.3279 50.7484C70.5962 50.5361 70.9422 50.2572 71.3658 49.9118C72.9283 48.636 74.9258 47.0855 77.3583 45.2601C77.4675 45.1779 77.6508 45.0149 77.8243 44.8846C79.7268 43.453 81.7577 42.0347 83.917 40.6297C84.7176 40.1089 85.4752 39.66 86.1899 39.2831Z" fill="white"/>
<path d="M22.7639 67.2938C22.6694 67.2476 22.6369 67.1692 22.6662 67.0584C22.673 67.0328 22.6897 67.0108 22.7126 66.9973C23.1808 66.7198 23.6481 66.4406 24.1146 66.1598C24.2493 66.0789 24.3892 66.049 24.5342 66.0702C25.9196 66.4949 27.411 66.8941 29.0082 67.2677C34.3528 68.519 39.7368 69.2658 45.1602 69.508C47.3614 69.6066 49.6432 69.6221 51.5535 69.6017C52.7875 69.5887 54.2408 69.5392 55.9135 69.4534C56.4577 69.4257 56.9992 69.3896 57.5379 69.3451C60.8299 69.0714 63.7203 68.7414 66.8901 68.1239C66.9324 68.1158 67.2868 68.0563 67.9532 67.9455C68.4265 67.8665 68.9576 67.7215 69.3601 67.6392C70.7814 67.3481 72.0756 67.041 73.2427 66.7179C75.0012 66.2307 76.8488 65.6308 78.7855 64.9183C81.4358 63.9424 83.9034 62.75 86.1882 61.3412C87.0436 60.8138 87.9758 60.1608 88.9849 59.382C89.9771 58.6162 90.9162 57.6962 91.8019 56.6219C93.1323 55.0081 94.1318 53.1157 94.3347 51.0661C94.5096 49.307 94.1883 47.6453 93.3709 46.0812C92.6242 44.6518 91.6244 43.366 90.3714 42.2239C90.2737 42.1351 90.1881 41.9893 90.1173 41.8801C89.7963 40.8854 90.6859 40.1286 91.4891 40.9147C93.4329 42.8186 95.063 45.0385 95.7017 47.7073C96.1188 49.4511 96.0981 51.1899 95.6397 52.9234C94.9481 55.5417 93.2023 57.9246 91.2105 59.7266C87.7067 62.8947 83.3614 65.0625 78.9428 66.7073C77.371 67.2927 75.4574 67.8947 73.2019 68.5133C71.47 68.988 69.4972 69.4298 67.2835 69.8388C66.748 69.9376 66.2131 70.0299 65.6787 70.1157C58.909 71.203 52.0961 71.587 45.24 71.2677C44.1603 71.2177 42.6869 71.1104 40.8198 70.9459C40.2164 70.8926 39.676 70.8391 39.1986 70.7854C33.6175 70.1614 28.095 69.0836 22.7639 67.2938Z" fill="#17AEE3"/>
<path d="M49.4337 44.6647C49.4103 44.8119 49.4595 44.9251 49.5811 45.0044C50.2776 45.459 50.7518 46.2752 50.5595 47.1184C50.3629 47.9765 50.1337 48.7213 49.8719 49.353C49.2523 50.8476 48.3982 52.749 47.3099 55.0571C46.9721 55.774 46.4879 56.895 45.8574 58.42C45.7265 58.4732 45.5486 58.5384 45.3238 58.6155C45.0283 58.7176 44.7709 58.7352 44.5515 58.6684C43.903 58.4721 44.2924 57.2884 44.4097 56.8542C44.7706 55.519 45.358 54.1846 45.9266 52.9252C46.6609 51.2975 47.3957 49.6701 48.131 48.043C48.6866 46.8124 49.1208 45.6862 49.4337 44.6647Z" fill="#60C7F1"/>
<path d="M38.2864 55.2582C38.2554 55.2316 38.2269 55.2145 38.2009 55.2069C38.1764 55.1998 38.1487 55.2088 38.1178 55.2338C37.3455 55.8627 36.451 56.5136 35.7618 57.0684C32.9953 59.2948 30.1391 61.7648 27.485 63.7688C26.7448 64.3282 25.7531 65.0258 24.5099 65.8617C24.4833 65.8796 24.4754 65.904 24.4863 65.935L24.5344 66.0702C24.3894 66.049 24.2495 66.0789 24.1148 66.1598C23.6483 66.4406 23.181 66.7198 22.7128 66.9973C22.6899 67.0108 22.6732 67.0328 22.6664 67.0584C22.6371 67.1692 22.6696 67.2477 22.7641 67.2938C22.5154 67.2428 22.3416 67.2444 22.2428 67.2987C21.1832 67.8787 20.3088 68.3086 19.6196 68.5883C19.2584 68.7349 18.6673 68.9185 17.8461 69.139C16.1077 69.6066 14.2723 69.4412 12.8116 68.3195C11.742 67.4975 11.2483 66.3708 11.3192 65.025C11.3387 64.6563 11.3898 64.3111 11.4723 63.9896C11.6233 64.2606 11.7327 64.4363 11.8006 64.5167C14.1729 67.3256 17.8086 66.4148 20.642 65.0071C22.0606 64.3016 23.4224 63.497 24.7274 62.5933C26.7994 61.159 28.8053 59.6367 30.7452 58.0264C32.4343 56.6252 34.132 55.2341 35.8384 53.853C36.5852 53.2485 37.3542 52.6736 38.1455 52.1284C38.5772 51.831 39.2762 51.3292 39.7251 51.431C39.7374 51.4339 39.7485 51.4408 39.7566 51.4506C39.7647 51.4605 39.7693 51.4728 39.7699 51.4856C39.7775 51.6616 39.7384 51.8356 39.6526 52.0078C39.1469 53.0169 38.6916 54.1003 38.2864 55.2582Z" fill="#60C7F1"/>
</svg>
