<svg width="100" height="100" viewBox="0 0 100 100" fill="none" xmlns="http://www.w3.org/2000/svg">
<rect width="100" height="100" fill="#72A60E"/>
<path d="M45.1738 11.5089C48.6788 12.9739 48.7988 16.6989 48.4488 19.9089C48.4222 20.1522 48.3272 20.1838 48.1638 20.0038C45.5438 17.1405 42.6105 14.6389 39.3638 12.4989C39.2105 12.3955 39.2088 12.2905 39.3588 12.1839C41.1822 10.8772 43.1205 10.6522 45.1738 11.5089Z" fill="#FFFFFE"/>
<path d="M60.8437 11.8638C61.3137 12.0605 61.3354 12.2988 60.9087 12.5788C57.672 14.6988 54.7537 17.1872 52.1537 20.0438C52.1381 20.0616 52.1176 20.0745 52.0948 20.0807C52.072 20.0869 52.0478 20.0862 52.0254 20.0787C52.003 20.0712 51.9832 20.0573 51.9687 20.0386C51.9542 20.02 51.9455 19.9974 51.9437 19.9738C51.6987 17.6938 51.6237 14.5238 53.3637 12.7988C55.297 10.8755 57.7904 10.5638 60.8437 11.8638Z" fill="#FFFFFE"/>
<path d="M31.0584 15.4339C31.7751 15.0772 32.0568 15.2922 31.9034 16.0789C31.1768 19.7622 30.9034 23.4672 31.0834 27.1939C31.0934 27.3772 31.0268 27.4122 30.8834 27.2989C29.0384 25.8789 26.8034 23.7339 26.8184 21.2739C26.8284 18.7772 28.2418 16.8305 31.0584 15.4339Z" fill="#FFFFFE"/>
<path d="M73.5385 20.5589C74.0085 23.3139 71.5285 25.7689 69.5435 27.2839C69.3868 27.4039 69.3135 27.3639 69.3235 27.1639C69.5001 23.3105 69.1801 19.4972 68.3635 15.7239C68.3201 15.5239 68.4001 15.4422 68.6035 15.4789C71.4001 15.9889 73.0451 17.6822 73.5385 20.5589Z" fill="#FFFFFE"/>
<path d="M37.0837 16.9839C43.6237 21.5589 45.3637 28.8139 40.5487 35.4789C40.4488 35.6189 40.3404 35.6255 40.2237 35.4989C35.9487 30.7139 35.6337 23.1639 36.8487 17.0789C36.8787 16.9289 36.9571 16.8972 37.0837 16.9839Z" fill="#FFFFFE"/>
<path d="M63.5488 17.1039C64.6688 22.4889 64.4988 31.3389 60.0588 35.4689C59.8754 35.6389 59.7221 35.6156 59.5988 35.3989C55.2988 27.9989 56.5271 21.8672 63.2838 17.0039C63.4271 16.9006 63.5154 16.9339 63.5488 17.1039Z" fill="#FFFFFE"/>
<path d="M16.1889 31.0089C16.6589 27.9239 19.3789 25.6789 22.4789 26.0239C24.6089 26.2589 26.7539 28.4339 28.1189 30.0739C28.2522 30.2372 28.2155 30.3139 28.0089 30.3039C24.1055 30.1306 20.2372 30.4339 16.4039 31.2139C16.3752 31.22 16.3456 31.219 16.3174 31.211C16.2893 31.203 16.2635 31.1883 16.2423 31.1681C16.2211 31.1479 16.2052 31.1228 16.1959 31.0951C16.1866 31.0674 16.1842 31.0378 16.1889 31.0089Z" fill="#FFFFFE"/>
<path d="M72.3236 30.0988C74.3286 27.3588 77.3186 24.8688 80.8386 26.4938C82.7086 27.3572 83.8202 28.8622 84.1735 31.0088C84.2002 31.1788 84.1302 31.2472 83.9635 31.2138C80.1536 30.4438 76.3069 30.1338 72.4235 30.2838C72.2635 30.2905 72.2302 30.2288 72.3236 30.0988Z" fill="#FFFFFE"/>
<path d="M50.0435 46.2639C45.3285 40.3589 45.1235 32.5239 49.9735 26.4639C50.004 26.4254 50.043 26.3946 50.0875 26.3739C50.132 26.3532 50.1807 26.3432 50.2298 26.3446C50.2788 26.3461 50.3269 26.359 50.37 26.3823C50.4132 26.4056 50.4504 26.4387 50.4785 26.4789C55.1485 33.0622 55.1418 39.6539 50.4585 46.2539C50.4351 46.2866 50.4043 46.3134 50.3688 46.3322C50.3332 46.351 50.2937 46.3613 50.2535 46.3623C50.2133 46.3632 50.1734 46.3549 50.1369 46.3378C50.1005 46.3207 50.0685 46.2954 50.0435 46.2639Z" fill="#FFFFFE"/>
<path d="M17.7133 36.2689C23.2083 34.9939 31.8783 35.3139 36.1983 39.5789C36.3216 39.6989 36.3133 39.8106 36.1733 39.9139C29.2683 44.9089 22.6283 42.8239 17.6383 36.4939C17.5483 36.3772 17.5733 36.3022 17.7133 36.2689Z" fill="#FFFFFE"/>
<path d="M82.7088 36.4289C78.2238 43.0089 70.8588 44.6389 64.2288 39.9939C64.1889 39.9664 64.1559 39.9302 64.1322 39.8879C64.1086 39.8456 64.0951 39.7984 64.0927 39.75C64.0903 39.7017 64.099 39.6534 64.1183 39.609C64.1376 39.5645 64.1668 39.5252 64.2038 39.4939C69.0888 35.3489 76.5888 34.9889 82.6188 36.2139C82.7588 36.2405 82.7888 36.3122 82.7088 36.4289Z" fill="#FFFFFE"/>
<path d="M13.5941 46.3588C11.4991 44.5788 10.8841 41.1438 12.7291 38.5788C12.8758 38.3721 13.0191 38.3755 13.1591 38.5888C15.2658 41.8455 17.7691 44.7621 20.6691 47.3388C20.8391 47.4921 20.8108 47.5805 20.5841 47.6038C18.2591 47.8588 15.4191 47.9088 13.5941 46.3588Z" fill="#FFFFFE"/>
<path d="M87.7538 38.6989C88.6938 40.5455 88.9405 42.2072 88.4938 43.6839C87.2588 47.7589 83.3738 48.0489 79.7588 47.5989C79.5522 47.5722 79.5272 47.4905 79.6839 47.3539C82.5772 44.8072 85.0722 41.9122 87.1688 38.6689C87.3822 38.3422 87.5772 38.3522 87.7538 38.6989Z" fill="#FFFFFE"/>
<path d="M43.0035 47.2288C46.7585 48.7638 48.8685 50.5788 48.8785 54.7638C48.9052 66.3105 48.9135 77.8555 48.9035 89.3988C48.9035 89.5988 48.8035 89.6971 48.6035 89.6938L46.7435 89.6588C46.5235 89.6555 46.4135 89.5438 46.4135 89.3238C46.4169 78.0005 46.4219 66.6821 46.4285 55.3688C46.4285 51.8638 45.4085 51.2188 42.1635 52.3138C36.6002 54.1838 31.4435 53.3271 26.6935 49.7438C26.6693 49.7255 26.6496 49.7019 26.6359 49.6748C26.6222 49.6477 26.6148 49.6179 26.6143 49.5875C26.6138 49.5572 26.6202 49.5271 26.6331 49.4996C26.646 49.4721 26.6649 49.4479 26.6885 49.4288C31.6285 45.5355 37.0669 44.8021 43.0035 47.2288Z" fill="#FFFFFE"/>
<path d="M56.5888 47.4339C61.9688 44.7589 68.5188 45.3989 73.3588 49.3289C73.3946 49.3582 73.4233 49.3952 73.4427 49.4373C73.462 49.4793 73.4716 49.5251 73.4706 49.5714C73.4697 49.6176 73.4582 49.663 73.4371 49.7042C73.416 49.7453 73.3858 49.7812 73.3488 49.8089C68.6421 53.3523 63.5405 54.1923 58.0438 52.3289C55.3838 51.4289 53.7438 51.5289 53.7488 54.7489C53.7622 66.2789 53.7638 77.8056 53.7538 89.3289C53.7538 89.5689 53.6355 89.6889 53.3988 89.6889H51.6238C51.5778 89.6889 51.5323 89.6799 51.4899 89.6623C51.4474 89.6447 51.4088 89.6189 51.3763 89.5864C51.3438 89.5539 51.318 89.5153 51.3005 89.4729C51.2829 89.4304 51.2738 89.3849 51.2738 89.3389C51.2471 77.4722 51.2538 65.6089 51.2938 53.7489C51.3038 50.6289 53.8488 48.7989 56.5888 47.4339Z" fill="#FFFFFE"/>
<path d="M62.7339 84.9839C75.2139 80.5639 83.9239 69.6139 86.2089 56.6989C86.2356 56.5322 86.1656 56.4489 85.9989 56.4489L82.3739 56.4239C82.1806 56.4205 82.0639 56.5139 82.0239 56.7039C80.1139 66.0405 75.1622 73.2489 67.1689 78.3289C67.0995 78.371 67.0166 78.3846 66.9381 78.3668C66.8596 78.3491 66.7917 78.3013 66.7489 78.2339L65.5689 76.3739C65.4589 76.2039 65.4889 76.0639 65.6589 75.9539C73.7022 70.7972 78.3439 63.4422 79.5839 53.8889C79.6072 53.6989 79.7139 53.6039 79.9039 53.6039L89.1189 53.5939C89.2689 53.5939 89.3389 53.6689 89.3289 53.8189C88.0489 70.8939 76.1739 84.5189 59.8589 88.8589C59.7056 88.8989 59.6289 88.8405 59.6289 88.6839V71.8239C59.6289 71.7445 59.6509 71.6668 59.6925 71.5996C59.734 71.5325 59.7934 71.4785 59.8639 71.4439C65.8206 68.4939 69.8472 63.8522 71.9439 57.5189C72.0106 57.3189 72.1472 57.2189 72.3539 57.2189L74.6139 57.1989C74.8606 57.1955 74.9489 57.3122 74.8789 57.5489C72.8822 64.3489 68.8372 69.5372 62.7439 73.1139C62.6694 73.1563 62.6074 73.2181 62.5644 73.2927C62.5214 73.3674 62.4988 73.4523 62.4989 73.5389L62.4889 84.8089C62.4889 84.9822 62.5706 85.0405 62.7339 84.9839Z" fill="#FFFFFE"/>
<path d="M37.8885 85.0488L37.8835 73.4138C37.8835 73.2272 37.8035 73.0888 37.6435 72.9988C31.5368 69.4755 27.4785 64.3255 25.4685 57.5488C25.4085 57.3422 25.4851 57.2372 25.6985 57.2338L27.5785 57.1888C27.7785 57.1855 27.9101 57.2788 27.9735 57.4688C30.0701 63.8488 34.1051 68.5538 40.0785 71.5838C40.1508 71.6201 40.2115 71.6758 40.2539 71.7447C40.2963 71.8136 40.3187 71.8929 40.3185 71.9738L40.3385 88.4488C40.3386 88.4764 40.3324 88.5036 40.3203 88.5283C40.3083 88.5531 40.2907 88.5747 40.269 88.5916C40.2472 88.6085 40.2219 88.6202 40.195 88.6258C40.168 88.6314 40.1401 88.6307 40.1135 88.6238C24.0385 84.2938 12.5835 70.8238 11.0035 54.2438C10.9768 53.9638 11.1035 53.8238 11.3835 53.8238L20.1285 53.8188C20.2785 53.8188 20.3635 53.8938 20.3835 54.0438C21.6601 63.5738 26.3118 70.9272 34.3385 76.1038C34.5051 76.2105 34.5385 76.3472 34.4385 76.5138L33.5535 78.0588C33.5319 78.0957 33.5031 78.1279 33.4689 78.1534C33.4347 78.179 33.3956 78.1975 33.3542 78.2077C33.3127 78.218 33.2696 78.2198 33.2274 78.2131C33.1852 78.2064 33.1448 78.1914 33.1085 78.1688C25.0985 73.0822 20.1585 65.8538 18.2885 56.4838C18.2551 56.3238 18.1551 56.2422 17.9885 56.2388L14.1435 56.2288C14.0755 56.229 14.0085 56.2442 13.9471 56.2734C13.8857 56.3026 13.8316 56.345 13.7886 56.3976C13.7455 56.4501 13.7147 56.5116 13.6983 56.5775C13.6818 56.6435 13.6802 56.7122 13.6935 56.7788C16.5135 70.6022 24.4468 80.1155 37.4935 85.3188C37.7568 85.4255 37.8885 85.3355 37.8885 85.0488Z" fill="#FFFFFE"/>
</svg>
