<svg width="100" height="100" viewBox="0 0 100 100" fill="none" xmlns="http://www.w3.org/2000/svg">
<rect width="100" height="100" fill="#FFFADD"/>
<path d="M49.4373 14.4163C47.3272 13.5004 45.1319 12.8895 42.8515 12.5837C42.5401 12.5415 42.0483 12.3107 41.3761 11.8913C39.7166 10.8555 41.4255 8.96242 42.5053 8.46512C44.5715 7.50898 47.5113 8.13817 49.3412 9.34433C51.6518 10.8665 52.6959 13.8283 52.8497 16.5126C52.8571 16.6463 52.8058 16.6756 52.6959 16.6005C51.5254 15.8202 50.7396 14.985 49.4373 14.4163Z" fill="#5FBA46"/>
<path d="M52.7945 23.5325C54.6766 20.263 54.4238 16.5511 54.1601 12.9518C54.0639 11.6248 54.6381 9.96528 56.2976 10.4269C58.6028 11.0643 59.3391 13.7404 59.4793 15.9082C59.7403 19.8811 56.3306 22.5132 52.9374 23.7056C52.7341 23.7752 52.6865 23.7175 52.7945 23.5325Z" fill="#ED1E24"/>
<path d="M37.2741 19.7327C39.527 15.1828 43.1043 14.6717 47.6322 15.4438C47.6677 15.4505 47.7002 15.4681 47.7252 15.4942C47.7501 15.5202 47.7663 15.5535 47.7715 15.5892C47.7766 15.6249 47.7705 15.6614 47.7539 15.6934C47.7373 15.7255 47.7111 15.7515 47.6789 15.768C46.2191 16.5098 44.9571 17.5072 43.8929 18.76C42.7774 20.0761 41.8817 22.0433 40.8871 23.6863C40.3211 24.6287 38.8127 26.3432 37.6944 24.9255C36.4691 23.3759 36.3289 21.6449 37.2741 19.7327Z" fill="#274EA4"/>
<path d="M51.6902 31.6706C49.1378 33.5609 46.3023 31.0496 45.0797 28.9533C43.2141 25.7524 44.184 21.7246 46.643 19.0759C46.6621 19.0558 46.6868 19.0418 46.7139 19.0357C46.741 19.0295 46.7693 19.0316 46.7952 19.0416C46.8211 19.0517 46.8435 19.0691 46.8594 19.0919C46.8754 19.1146 46.8842 19.1416 46.8848 19.1694C46.9343 23.5544 49.3109 25.9475 51.5693 29.316C52.0364 30.0111 52.476 31.0881 51.6902 31.6706Z" fill="#363539"/>
<path d="M75.1426 43.5235C75.7526 43.4612 76.3231 43.2725 76.8543 42.9575C79.1 41.6222 80.9005 39.6275 82.256 36.9734C82.3842 36.7206 82.4428 36.7362 82.4318 37.0201C82.3411 39.034 81.4866 40.9628 80.253 42.6388C77.7885 45.9852 74.0601 48.1997 70.1641 49.524C70.1107 49.542 70.0626 49.573 70.0242 49.6141C69.9857 49.6552 69.958 49.7052 69.9435 49.7596C69.9291 49.8141 69.9284 49.8713 69.9415 49.926C69.9546 49.9808 69.981 50.0315 70.0185 50.0735C70.5213 50.6423 73.0215 53.497 70.7438 53.6041C68.87 53.6893 66.8643 53.8981 65.7598 55.5549C65.2158 56.3681 65.246 57.5111 65.1499 58.4975C65.0867 59.1541 64.2432 60.1048 63.5755 60.646C60.3747 63.2397 62.1853 67.2538 64.0426 69.9848C65.9412 72.7791 67.51 75.9195 67.6364 79.2248C67.7298 81.6563 66.2242 83.5878 63.7102 83.3708C62.4683 83.2645 61.3665 82.7828 60.4049 81.9256C60.3712 81.8945 60.3445 81.8567 60.3265 81.8145C60.3085 81.7724 60.2996 81.7269 60.3005 81.681C60.3939 78.0598 60.3005 71.757 55.6682 70.8366C55.0555 70.7157 54.6846 71.0069 54.4181 71.5097C53.037 74.1272 52.0094 76.883 51.3353 79.777C51.0862 80.8486 51.0276 81.8834 51.1595 82.8817C51.1779 83.0231 51.1593 83.1669 51.1053 83.2989C51.0514 83.4309 50.964 83.5466 50.8518 83.6345C49.5632 84.6429 47.1096 86.0386 45.4227 85.6265C44.3456 85.3655 43.0048 84.4863 42.9774 83.2197C42.8803 78.9299 43.4857 74.7454 44.7935 70.6662C44.8056 70.6295 44.8058 70.5897 44.794 70.5523C44.7822 70.5149 44.759 70.4818 44.7275 70.4574L43.6835 69.6469C43.6115 69.5913 43.5258 69.5563 43.4355 69.5458C43.3452 69.5353 43.2537 69.5496 43.1709 69.5871C43.0881 69.6247 43.0171 69.6842 42.9656 69.7591C42.9141 69.834 42.8839 69.9216 42.8785 70.0123C42.829 70.886 42.8702 71.6892 43.0021 72.4219C43.156 73.2663 43.2265 74.1171 43.2136 74.9743C43.1669 78.5434 37.9824 77.1366 36.158 76.4855C36.1006 76.4652 36.052 76.4256 36.0205 76.3735C35.9889 76.3214 35.9764 76.26 35.9849 76.1997C36.2633 74.2417 36.2725 72.279 36.0124 70.3118C35.9684 69.9693 35.7789 69.8411 35.4437 69.9271C31.0998 71.0564 24.0359 72.7406 24.4041 78.6093C24.4316 79.0563 24.2301 79.3841 23.7997 79.5929C22.5852 80.1772 21.3681 80.1131 20.1482 79.4006C18.5519 78.4692 18.2414 77.3839 18.137 75.4936C17.9914 72.8011 18.2414 71.202 20.0328 69.3172C21.0274 68.2704 20.7059 65.5119 20.6895 64.1216C20.6711 62.7149 21.0714 61.0874 21.8901 59.2393C23.5194 55.5658 26.3384 51.7193 29.8552 49.8647C32.7181 48.3563 35.8668 47.9937 39.0594 48.7135C40.0723 48.9407 41.2244 49.2639 42.5158 49.6834C42.9096 49.8116 43.221 49.6404 43.4499 49.1696C44.4665 47.0787 45.9832 44.1554 48.2334 43.6031C50.2528 43.1086 53.0525 44.4137 54.7285 45.5594C54.7595 45.5806 54.7948 45.5948 54.8319 45.6009C54.869 45.607 54.907 45.6049 54.9434 45.5947C54.9798 45.5845 55.0135 45.5665 55.0424 45.5419C55.0712 45.5172 55.0945 45.4867 55.1104 45.4522C56.2589 42.9272 58.1767 41.0672 61.0643 40.8336C62.57 40.7127 64.5372 41.287 66.2214 41.5507C67.5759 41.7623 68.9662 41.3941 69.2794 39.9242C69.6036 38.4131 69.3344 37.0814 68.4716 35.9293C68.4387 35.8872 67.9395 35.4064 66.9742 34.4869C63.7376 31.4069 62.4655 25.0848 65.5483 21.513C65.6105 21.4398 65.6866 21.4196 65.7763 21.4526C67.1318 21.9508 68.1731 22.82 68.9002 24.06C69.0981 24.3952 69.1613 24.735 69.0898 25.0793C68.903 25.9805 67.8095 25.8953 67.3836 26.6427C65.9082 29.2171 70.7411 32.3383 72.9666 33.6653C74.3532 34.4914 75.2653 35.6793 75.7031 37.2289C76.2499 39.1631 75.7169 41.4271 75.008 43.3504C75.0004 43.371 74.9982 43.3931 75.0015 43.4148C75.0049 43.4365 75.0137 43.457 75.0272 43.4743C75.0407 43.4916 75.0584 43.5052 75.0785 43.5138C75.0987 43.5224 75.1208 43.5257 75.1426 43.5235Z" fill="#D0AE53"/>
<path d="M34.084 65.99C31.7239 66.3389 28.6302 66.6851 27.0201 64.4074C25.8195 62.7122 25.9651 60.3246 26.8498 58.4893C27.8187 56.4817 29.2942 54.9615 31.276 53.9284C34.1005 52.4557 37.7629 52.7305 39.4719 55.7225C39.5214 55.8086 39.5095 55.8855 39.4362 55.9533L39.0405 56.3077C38.9306 56.4066 38.84 56.3911 38.7685 56.261C38.0762 54.9789 37.0587 54.1885 35.716 53.8899C32.1415 53.0959 28.6769 55.7198 27.3526 58.9069C26.6025 60.7093 26.7234 63.0227 28.1851 64.4074C29.7484 65.8856 32.3311 65.7262 34.3121 65.2125C34.5264 65.1548 34.6885 64.9707 34.6418 64.7619C34.6373 64.7405 34.6285 64.7203 34.616 64.7024C34.6034 64.6845 34.5872 64.6694 34.5685 64.6578C34.5498 64.6463 34.5288 64.6386 34.507 64.6352C34.4851 64.6319 34.4627 64.6329 34.4412 64.6382C31.8915 65.2784 28.6769 65.391 27.6878 62.6573C27.294 61.5711 27.3746 60.3613 27.9296 59.0278C29.144 56.0962 32.3531 53.6701 35.6913 54.4614C36.8288 54.7307 37.6842 55.4029 38.2575 56.4781C38.3143 56.5843 38.2932 56.6722 38.1943 56.7418L37.741 57.0578C37.7238 57.0695 37.7043 57.0775 37.6839 57.0813C37.6634 57.085 37.6424 57.0844 37.6222 57.0794C37.602 57.0745 37.583 57.0654 37.5666 57.0527C37.5501 57.04 37.5365 57.0239 37.5267 57.0056C36.8581 55.7656 35.9102 55.1171 34.683 55.0604C32.8879 54.9761 31.2953 55.6474 29.905 57.0743C28.3829 58.6349 27.3691 61.6791 29.155 63.3716C30.4875 64.6355 32.9768 64.4596 34.5978 63.9211C34.7407 63.8735 34.8332 63.8103 34.8753 63.7315C34.9156 63.6583 34.9248 63.5722 34.9028 63.4733C34.8808 63.378 34.8231 63.3432 34.7297 63.3689C24.8056 66.1136 28.9461 54.1647 35.3012 55.761C35.8672 55.9039 37.153 56.7501 36.9579 57.4452C36.9385 57.5141 36.899 57.5758 36.8446 57.6223C36.7902 57.6689 36.7232 57.6983 36.652 57.7068C36.5809 57.7153 36.5089 57.7026 36.445 57.6702C36.3811 57.6378 36.3282 57.5873 36.293 57.5249C35.5649 56.2226 34.1335 56.0055 32.7789 56.4286C30.8227 57.0413 29.1275 59.1075 29.5643 61.245C30.0974 63.8579 33.2955 63.3139 34.9715 62.5336C35.0575 62.4944 35.133 62.435 35.1917 62.3605C35.2505 62.286 35.2908 62.1984 35.3094 62.105C35.4761 61.2753 35.6794 60.4363 35.9194 59.5883C35.9945 59.3264 36.1666 59.2696 36.4359 59.4179C36.4698 59.4368 36.4965 59.4662 36.5119 59.5015C36.5273 59.5368 36.5305 59.576 36.5211 59.613L34.7159 66.7676C34.7043 66.8146 34.6808 66.8579 34.6476 66.8934C34.6145 66.929 34.5728 66.9556 34.5264 66.9709C32.4685 67.6358 30.2237 67.8034 28.2455 66.9489C24.7864 65.4597 24.3083 61.9621 25.5694 58.6898C27.0916 54.7307 31.2376 51.582 35.6721 51.9254C37.9058 52.0985 39.6752 53.0767 40.5544 55.1318C40.5851 55.2047 40.5876 55.2865 40.5614 55.3611C40.5352 55.4358 40.4821 55.498 40.4125 55.5357C40.343 55.5734 40.2619 55.5839 40.185 55.5651C40.1081 55.5463 40.041 55.4996 39.9967 55.434C34.9989 47.9086 23.289 56.3764 26.0118 63.553C27.2592 66.8445 30.82 67.1989 33.8587 66.5807C34.1115 66.5294 34.2379 66.3765 34.2379 66.1219C34.2379 66.0175 34.1866 65.9735 34.084 65.99Z" fill="white"/>
<path d="M40.7603 66.8445C44.0884 66.5624 46.1399 64.8086 46.9147 61.583C47.5869 58.786 48.2628 55.989 48.9424 53.192C49.0193 52.877 49.1585 52.6343 49.36 52.4639C49.4069 52.4236 49.4653 52.3992 49.527 52.3943C49.5886 52.3895 49.6502 52.4043 49.7028 52.4367C49.7554 52.4692 49.7964 52.5175 49.8197 52.5748C49.843 52.632 49.8475 52.6952 49.8326 52.7552C49.0395 55.9771 48.2106 59.2036 47.3461 62.4347C46.3844 66.0312 43.2742 67.633 39.7547 67.5753C39.6848 67.5735 39.6178 67.5463 39.5661 67.4989C39.5145 67.4515 39.4817 67.3871 39.4739 67.3177C39.4662 67.2484 39.484 67.1788 39.524 67.1221C39.5641 67.0653 39.6236 67.0252 39.6915 67.0093C40.0138 66.9324 40.3701 66.8775 40.7603 66.8445Z" fill="white"/>
<path d="M40.6585 63.2039C41.5514 63.2094 42.7081 63.116 42.9884 62.0334C43.7943 58.9122 44.6213 55.7956 45.4694 52.6836C45.5335 52.4473 45.6745 52.3722 45.8925 52.4583C45.9459 52.4787 45.9901 52.5178 46.0169 52.5684C46.0436 52.6189 46.0512 52.6774 46.0381 52.7331C45.3622 55.5594 44.6515 58.3774 43.906 61.1872C43.4307 62.9813 42.5845 64.204 40.5953 63.7754C40.5243 63.7614 40.4611 63.7213 40.4183 63.663C40.3755 63.6047 40.3561 63.5325 40.3641 63.4606C40.372 63.3886 40.4067 63.3224 40.4612 63.2748C40.5157 63.2273 40.5861 63.202 40.6585 63.2039Z" fill="white"/>
<path d="M44.5654 60.7532C45.2358 58.1669 45.8851 55.5751 46.5134 52.9777C46.5628 52.7781 46.6242 52.6407 46.6974 52.5656C46.8275 52.4301 46.9978 52.4017 47.2085 52.4804C47.2461 52.4953 47.2772 52.5228 47.2963 52.558C47.3155 52.5932 47.3213 52.6339 47.3129 52.6728C46.8092 54.9001 46.2661 57.1073 45.6836 59.2943C44.7467 62.8111 44.2934 65.3141 40.249 65.0531C40.2089 65.051 40.1712 65.0336 40.1436 65.0044C40.1159 64.9753 40.1006 64.9366 40.1006 64.8965C40.097 64.5247 40.282 64.3525 40.6556 64.38C43.2878 64.586 43.9582 63.0996 44.5654 60.7532Z" fill="white"/>
<path d="M48.5219 52.7414C47.9284 55.1849 47.3304 57.5862 46.7278 59.9454C46.1856 62.0702 45.6645 63.476 45.1644 64.1629C44.0214 65.7381 42.2749 66.447 39.9249 66.2895C39.8535 66.284 39.8132 66.2455 39.804 66.1741C39.76 65.8279 39.9066 65.6566 40.2436 65.6603C42.2273 65.6878 43.7009 65.0558 44.6644 63.7645C45.1076 63.171 45.5591 61.9411 46.0189 60.0746C46.5959 57.73 47.1756 55.3891 47.7581 53.0519C47.8332 52.7533 47.9815 52.5583 48.2032 52.4667C48.2435 52.4503 48.2875 52.4453 48.3305 52.4523C48.3735 52.4594 48.4136 52.4781 48.4466 52.5065C48.4796 52.535 48.504 52.5719 48.5173 52.6134C48.5306 52.6548 48.5322 52.6991 48.5219 52.7414Z" fill="white"/>
<path d="M53.3604 62.0912C53.2981 62.4685 53.397 62.7991 53.6571 63.083C53.7157 63.1453 53.7881 63.1765 53.8742 63.1765L59.8281 63.16C59.8639 63.1601 59.8985 63.1722 59.9264 63.1941C59.9543 63.216 59.9739 63.2466 59.9819 63.2809C60.0405 63.5556 59.9425 63.6994 59.6879 63.7122C57.8086 63.8038 55.9293 63.8414 54.05 63.8249C52.3383 63.8111 52.418 62.7176 52.7504 61.418C53.441 58.7071 54.1599 56.01 54.9072 53.3266C54.9159 53.2963 54.9173 53.2645 54.9113 53.2336C54.9054 53.2027 54.8922 53.1737 54.873 53.1488C54.8537 53.1239 54.8289 53.1039 54.8005 53.0904C54.7721 53.0769 54.7409 53.0703 54.7094 53.0711L54.572 53.0738C54.4713 53.0756 54.4072 53.1251 54.3797 53.2222C53.6159 55.9184 52.897 58.6256 52.2229 61.3439C51.8025 63.0363 51.7668 64.3194 53.9126 64.3689C55.7901 64.4147 57.6621 64.4128 59.5286 64.3634C59.5547 64.3628 59.5805 64.3682 59.6042 64.379C59.628 64.3898 59.6489 64.4059 59.6656 64.426C59.6822 64.446 59.6941 64.4696 59.7004 64.4949C59.7066 64.5203 59.7071 64.5467 59.7017 64.5722L59.6357 64.9019C59.6174 64.9843 59.5661 65.0283 59.4819 65.0338C57.5348 65.1272 55.5895 65.1171 53.6461 65.0036C51.9729 64.9046 50.8162 64.1958 51.264 62.3522C51.9729 59.4215 52.7523 56.4725 53.6022 53.5052C53.6241 53.4271 53.6199 53.344 53.5901 53.2686C53.5603 53.1932 53.5067 53.1296 53.4373 53.0875C53.3421 53.0308 53.2496 53.0555 53.1598 53.1617C53.1159 53.213 53.0801 53.2909 53.0527 53.3953C52.3511 55.9853 51.6606 58.5771 50.981 61.1708C50.7228 62.1516 50.5112 63.3523 50.9068 64.27C51.2897 65.1547 52.0123 65.5998 53.0746 65.6053C55.0455 65.6126 57.0558 65.6245 59.1055 65.641C59.1659 65.6418 59.2247 65.6609 59.2738 65.6958C59.3229 65.7306 59.36 65.7796 59.3802 65.8361C59.437 66.0009 59.404 66.1181 59.2813 66.1877C59.2172 66.2225 59.1192 66.2409 58.9873 66.2427C57.4743 66.2555 55.9623 66.2583 54.4512 66.2509C52.2669 66.2372 50.2639 66.1355 49.948 63.7617C49.8765 63.2287 49.9764 62.4493 50.2474 61.4235C50.9618 58.7145 51.6716 56.0072 52.3768 53.3019C52.3988 53.2176 52.3951 53.1517 52.3658 53.104C52.3182 53.0253 52.2394 53.006 52.1295 53.0463C52.062 53.0692 52.0013 53.1086 51.9528 53.1609C51.9043 53.2132 51.8697 53.2768 51.852 53.3458C51.1706 55.9102 50.4828 58.4956 49.7886 61.1021C48.805 64.7947 49.7694 66.9296 53.8494 66.9076C55.4742 66.8966 57.1446 66.8929 58.8609 66.8966C58.8902 66.8967 58.9192 66.9031 58.9458 66.9153C58.9725 66.9275 58.9962 66.9453 59.0154 66.9674C59.0347 66.9895 59.049 67.0154 59.0574 67.0435C59.0658 67.0716 59.0682 67.1011 59.0642 67.1301L59.034 67.3692C59.0261 67.4218 58.9996 67.4699 58.9593 67.5047C58.919 67.5395 58.8675 67.5587 58.8142 67.5587C57.3654 67.5661 55.9165 67.5642 54.4676 67.5533C50.4645 67.523 47.5796 66.2757 48.8709 61.5692C49.6732 58.6495 50.4489 55.7389 51.1981 52.8375C51.2238 52.7356 51.2831 52.6451 51.3667 52.5805C51.4503 52.5158 51.5534 52.4805 51.6597 52.4803L62.2239 52.5051C62.3228 52.5069 62.3823 52.5554 62.4025 52.6507C62.4611 52.9493 62.3576 53.0976 62.092 53.0958C59.2035 53.0885 57.1089 53.1013 55.8084 53.1343C55.7095 53.1361 55.6408 53.1828 55.6024 53.2744L55.5035 53.5052C55.4577 53.6077 55.4916 53.659 55.6051 53.659L61.9629 53.6865C61.9907 53.6864 62.0182 53.6921 62.0436 53.7032C62.0691 53.7143 62.092 53.7305 62.1109 53.751C62.1297 53.7714 62.1441 53.7955 62.1532 53.8217C62.1622 53.848 62.1657 53.8759 62.1635 53.9036C62.1616 53.9255 62.1616 53.9503 62.1635 53.9777C62.1657 54.0142 62.1604 54.0508 62.1479 54.0852C62.1354 54.1196 62.116 54.1511 62.0908 54.1778C62.0656 54.2046 62.0352 54.2259 62.0014 54.2407C61.9676 54.2554 61.9311 54.2632 61.8942 54.2635L55.3853 54.3047C55.3378 54.3047 55.2919 54.3216 55.2557 54.3522C55.2195 54.3829 55.1953 54.4255 55.1875 54.4723L55.1573 54.6591C55.1537 54.6822 55.1552 54.7057 55.1615 54.7281C55.1679 54.7505 55.179 54.7713 55.1941 54.7891C55.2093 54.8068 55.228 54.8211 55.2492 54.8309C55.2703 54.8407 55.2933 54.8458 55.3166 54.846L61.6716 54.8597C61.6918 54.8597 61.7118 54.8638 61.7304 54.8717C61.7489 54.8797 61.7657 54.8914 61.7796 54.906C61.7935 54.9207 61.8042 54.938 61.8112 54.957C61.8181 54.976 61.8211 54.9961 61.82 55.0163L61.809 55.2553C61.8017 55.3872 61.733 55.4532 61.603 55.4532L55.1161 55.4614C54.9823 55.4632 54.9082 55.5292 54.8935 55.6592L54.8688 55.879C54.8578 55.9908 54.9082 56.0466 55.0199 56.0466H61.3557C61.4035 56.0464 61.4498 56.0628 61.4865 56.093C61.5231 56.1231 61.5478 56.1651 61.5562 56.2115C61.5782 56.3324 61.5572 56.434 61.4931 56.5165C61.4399 56.5861 61.3447 56.6227 61.2073 56.6264C59.0771 56.7015 56.9459 56.7198 54.8138 56.6813C54.7094 56.6795 54.6435 56.7289 54.616 56.8297L54.3962 57.621C54.3885 57.648 54.3873 57.6765 54.3925 57.7042C54.3978 57.7319 54.4094 57.7579 54.4264 57.7803C54.4435 57.8027 54.4655 57.8208 54.4908 57.8332C54.5161 57.8456 54.5439 57.852 54.572 57.8518L59.3665 57.8545C59.502 57.8545 59.5487 57.9195 59.5066 58.0496L59.4214 58.2996C59.3939 58.3839 59.3353 58.4269 59.2456 58.4287L54.3797 58.4754C54.2662 58.4773 54.2011 58.5341 54.1846 58.6458L54.1599 58.8134C54.1568 58.8351 54.1584 58.8572 54.1647 58.8783C54.171 58.8993 54.1818 58.9189 54.1963 58.9355C54.2109 58.9522 54.2289 58.9656 54.2492 58.9748C54.2694 58.9841 54.2915 58.989 54.3138 58.9892L59.0945 58.9782C59.2062 58.9782 59.2447 59.0314 59.2099 59.1376L59.0917 59.4893C59.0588 59.5882 58.9901 59.6386 58.8857 59.6404C57.2738 59.6624 55.6619 59.667 54.05 59.6541C53.8174 59.6523 53.7606 59.7988 53.8797 60.0937C53.909 60.1633 53.9612 60.1981 54.0363 60.1981L58.8609 60.2091C58.8817 60.2095 58.9022 60.2144 58.9208 60.2236C58.9394 60.2328 58.9558 60.246 58.9687 60.2623C58.9816 60.2787 58.9907 60.2976 58.9953 60.3179C59 60.3381 59 60.3592 58.9956 60.3795C58.9296 60.6817 58.7483 60.8319 58.4515 60.8301C56.1619 60.8081 54.6517 60.8117 53.9209 60.8411C53.6223 60.852 53.4776 60.9913 53.4868 61.2587C53.4904 61.3393 53.5317 61.3796 53.6104 61.3796L58.3993 61.3961C58.4391 61.3965 58.4782 61.4065 58.5133 61.4253C58.5483 61.4441 58.5782 61.471 58.6004 61.5038C58.6226 61.5366 58.6364 61.5741 58.6407 61.6133C58.6449 61.6525 58.6394 61.692 58.6246 61.7285L58.5862 61.8247C58.5422 61.9346 58.4616 61.9895 58.3444 61.9895L53.4483 62.017C53.3989 62.017 53.3695 62.0417 53.3604 62.0912Z" fill="white"/>
<path d="M38.8051 59.3449L38.7891 59.3409C38.62 59.2978 38.448 59.3999 38.4049 59.569L36.6024 66.6403C36.5593 66.8094 36.6614 66.9814 36.8305 67.0245L36.8465 67.0286C37.0156 67.0717 37.1876 66.9696 37.2307 66.8005L39.0332 59.7292C39.0763 59.5601 38.9742 59.388 38.8051 59.3449Z" fill="white"/>
<path d="M40.0439 59.3506L40.0332 59.3479C39.8714 59.307 39.707 59.405 39.6661 59.5668L37.8733 66.6519C37.8323 66.8137 37.9303 66.9781 38.0921 67.019L38.1028 67.0217C38.2646 67.0627 38.429 66.9647 38.4699 66.8029L40.2627 59.7178C40.3037 59.556 40.2057 59.3916 40.0439 59.3506Z" fill="white"/>
<path d="M37.5559 59.3621L37.476 59.3419C37.3245 59.3035 37.1706 59.3953 37.1322 59.5468L35.33 66.6692C35.2917 66.8207 35.3834 66.9746 35.5349 67.013L35.6148 67.0332C35.7663 67.0715 35.9203 66.9798 35.9586 66.8283L37.7608 59.7059C37.7992 59.5544 37.7074 59.4004 37.5559 59.3621Z" fill="white"/>
</svg>
