<svg width="100" height="100" viewBox="0 0 100 100" fill="none" xmlns="http://www.w3.org/2000/svg">
<rect width="100" height="100" fill="#E6E8FF"/>
<path d="M60.7132 30.2346L59.2102 32.8686C59.2712 32.8436 59.2637 32.8571 59.1877 32.9091C59.1757 32.9181 59.1662 32.9291 59.1592 32.9421C56.0672 38.4301 52.9732 43.9176 49.8772 49.4046C49.5832 49.9266 49.4147 50.3411 49.3717 50.6481C49.1917 51.9456 50.3512 53.3781 50.9557 54.4611C52.8677 57.8801 54.7477 61.3136 56.5957 64.7616C56.6414 64.8471 56.7187 64.9113 56.811 64.9404C56.9032 64.9696 57.0031 64.9614 57.0892 64.9176C57.3247 64.7976 57.5707 64.5186 57.7177 64.2621C63.7987 53.6961 69.8927 43.1256 75.9997 32.5506L77.6497 29.6751L82.4347 21.3801C82.4539 21.3477 82.4813 21.3208 82.5142 21.3021C82.547 21.2835 82.5842 21.2736 82.6222 21.2736L86.4832 21.2751C86.4976 21.275 86.5117 21.2788 86.5243 21.286C86.5368 21.2931 86.5472 21.3034 86.5545 21.3159C86.5618 21.3283 86.5657 21.3425 86.5658 21.3569C86.5659 21.3713 86.5622 21.3855 86.5551 21.3981L81.5407 30.2901C80.9507 31.3281 80.3727 32.3586 79.8067 33.3816C79.7737 33.4416 79.7517 33.5216 79.7407 33.6216C79.6877 33.6116 79.6386 33.6471 79.5936 33.7281C73.9087 43.8381 68.2097 53.9531 62.4967 64.0731C57.4477 66.3411 52.2432 68.2136 46.8832 69.6906C45.6592 67.5296 44.4427 65.3701 43.2337 63.2121C43.1057 62.9851 42.9082 62.8506 42.6412 62.8086C42.1387 62.7306 41.9752 63.1161 41.7802 63.4941C40.9952 65.0031 39.5602 67.6036 37.4752 71.2956C34.8512 71.5146 32.4177 71.6331 30.1747 71.6511C29.3207 71.6581 28.3147 71.6216 27.1567 71.5416C23.8887 65.9236 20.6442 60.3236 17.4232 54.7416C17.3832 54.6706 17.3527 54.5061 17.3317 54.2481C17.1267 52.6401 17.1892 51.0616 17.5192 49.5126C18.4982 47.6446 19.6647 45.7231 21.0187 43.7481C22.0282 42.2721 23.7292 43.2636 24.5092 44.3286L25.6432 46.3566C28.9932 52.3486 32.3462 58.3241 35.7022 64.2831C36.2197 65.2011 37.0057 64.0386 37.2562 63.5886C38.1982 61.8986 39.1337 60.2051 40.0627 58.5081C40.4812 57.7416 40.1272 57.0141 39.5692 56.3451C38.4517 55.0026 37.4107 53.6961 37.6027 51.8721C37.6697 51.2351 38.0117 50.3316 38.6287 49.1616C39.6087 47.3026 40.7172 45.5221 41.9542 43.8201C42.1472 43.5531 42.3557 43.3741 42.5797 43.2831C42.8707 43.1641 43.1567 43.1241 43.4377 43.1631C44.9107 43.3671 45.4942 44.5491 46.0852 45.7671C46.2592 46.1286 46.8067 46.9731 47.2252 46.2111C49.0742 42.8411 51.4012 38.7246 54.2062 33.8616L55.7287 31.1826L61.3867 21.3456C61.4147 21.2976 61.4562 21.2736 61.5112 21.2736H65.7007C65.7967 21.2736 65.8212 21.3156 65.7742 21.3996L60.7132 30.2346Z" fill="#2E3892"/>
<path d="M59.2109 32.8686L60.7139 30.2346C64.7659 29.6016 68.7989 29.4006 72.8129 29.6316C72.8768 29.6346 72.9384 29.6542 72.9914 29.6886C73.1654 29.8026 73.2074 29.9441 73.1174 30.1131C72.7919 30.7281 72.5219 31.3041 72.0809 31.8531C72.0479 31.8941 72.0054 31.9141 71.9534 31.9131C67.7154 31.8371 63.4679 32.1556 59.2109 32.8686Z" fill="#C31D2D"/>
<path d="M77.6499 29.6751L75.9999 32.5506L74.3769 32.2401C74.3209 32.2291 74.2964 32.1956 74.3034 32.1396L74.4189 31.1001L74.5584 30.4356C74.6394 29.9676 74.8284 29.6801 75.1254 29.5731C75.2234 29.5381 75.5219 29.5296 76.0209 29.5476C76.5559 29.5666 77.0989 29.6091 77.6499 29.6751Z" fill="#C31D2D"/>
<path d="M81.5412 30.2902C85.3451 31.1317 88.4546 32.9347 90.2501 36.5047C92.2661 40.5127 90.4511 44.6647 87.8651 47.8342C85.6226 50.5822 83.0201 53.0902 80.2481 55.6117C80.0701 55.7737 79.9336 55.8587 79.8386 55.8667C79.0301 55.9312 78.5156 55.3972 78.2441 54.7387C78.0161 54.1837 78.2996 53.9017 78.7151 53.5357C80.0171 52.3912 81.2546 51.0667 82.3211 49.7722C83.6516 48.1567 85.1996 45.9637 85.5341 43.8532C85.6301 43.2462 85.6186 42.5192 85.4996 41.6722C85.0226 38.2927 83.8961 35.6617 80.7206 34.1197C80.3896 33.9587 80.0632 33.7927 79.7412 33.6217C79.7522 33.5217 79.7741 33.4417 79.8071 33.3817C80.3731 32.3587 80.9512 31.3282 81.5412 30.2902Z" fill="#C31D2D"/>
<path d="M74.5584 30.4357L74.4189 31.1002C74.4049 30.8392 74.4514 30.6177 74.5584 30.4357Z" fill="#D9514E"/>
<path d="M55.7295 31.1825L54.207 33.8615C51.957 34.3565 49.7515 34.951 47.5905 35.645C47.2785 35.647 46.9801 35.737 46.6951 35.915C44.6791 36.589 42.1376 37.54 39.0706 38.768C38.5096 38.993 38.1241 38.838 37.9141 38.303L37.9201 37.5845C37.9191 37.5465 37.9316 37.521 37.9576 37.508C40.3806 36.319 42.9311 35.217 45.6091 34.202C45.8961 34.178 46.1331 34.094 46.3201 33.95C49.34 32.829 52.4765 31.9065 55.7295 31.1825Z" fill="#C31D2D"/>
<path d="M46.3199 33.9501C46.1329 34.0941 45.8959 34.1781 45.6089 34.2021L46.3199 33.9501Z" fill="#D9514E"/>
<path d="M47.5903 35.6451L46.6948 35.9151C46.9798 35.7371 47.2783 35.6471 47.5903 35.6451Z" fill="#D9514E"/>
<path d="M37.9202 37.5846L37.9142 38.3031C37.8372 38.0641 37.8392 37.8246 37.9202 37.5846Z" fill="#D9514E"/>
<path d="M25.6433 46.3565L24.5093 44.3285C27.7803 42.1735 31.1818 40.2925 34.7138 38.6855C35.2673 38.4335 37.0508 37.7735 37.1993 38.744C37.2623 39.152 36.9953 39.5285 36.6053 39.716C32.7603 41.561 29.1063 43.7745 25.6433 46.3565Z" fill="#C31D2D"/>
<path d="M17.52 49.5126C17.19 51.0616 17.1275 52.6401 17.3325 54.2481C15.8335 56.0481 14.5825 58.0056 13.5795 60.1206C13.5575 60.1676 13.5215 60.1986 13.4715 60.2136L8.48697 61.7031C8.47397 61.7066 8.46024 61.7066 8.44728 61.7028C8.43432 61.6991 8.42263 61.6919 8.4135 61.682C8.40436 61.6721 8.39813 61.6599 8.39548 61.6467C8.39283 61.6334 8.39386 61.6197 8.39846 61.6071C10.203 56.7786 13.6575 52.7991 17.52 49.5126Z" fill="#C31D2D"/>
<path d="M60.7063 66.9891C56.4713 68.6961 52.1923 70.1611 47.8693 71.3841L43.4083 72.5406C43.3643 72.5516 43.3423 72.5341 43.3423 72.4881V70.7271C43.3423 70.6711 43.3698 70.6356 43.4248 70.6206L46.8838 69.6906C52.2438 68.2136 57.4483 66.3411 62.4973 64.0731C64.3853 63.2071 66.2368 62.2716 68.0518 61.2666C70.4328 59.9486 72.6368 58.4886 74.6638 56.8866C75.1338 56.5146 75.6618 56.0466 76.2478 55.4826C76.2818 55.4486 76.3173 55.4471 76.3543 55.4781L78.0793 56.9091C78.1283 56.9501 78.1283 56.9906 78.0793 57.0306C75.6063 59.0726 72.9718 60.8726 70.1758 62.4306C67.3278 64.0176 64.4983 65.3926 61.6873 66.5556C61.1883 66.7626 60.8613 66.9071 60.7063 66.9891Z" fill="#C31D2D"/>
<path d="M27.1576 71.5415C28.3156 71.6215 29.3216 71.658 30.1756 71.651C32.4186 71.633 34.8521 71.5145 37.4761 71.2955L41.1961 71.1905C41.2691 71.1885 41.3056 71.2245 41.3056 71.2985L41.3026 72.7115C41.3026 72.7575 41.2801 72.7835 41.2351 72.7895L36.2251 73.52L28.6951 74.2115C25.1401 74.3495 20.6731 74.3585 16.9186 73.556C11.6851 72.4385 8.1736 69.1655 8.0806 63.503C8.0796 63.454 8.10309 63.4225 8.15109 63.4085L12.7246 62.063C12.7816 62.046 12.8326 62.057 12.8776 62.096C13.0986 62.284 13.2136 62.5255 13.2226 62.8205C13.3171 65.789 15.0361 68.3405 17.5891 69.74C18.2821 70.12 19.2246 70.44 20.4166 70.7C22.6116 71.179 24.8586 71.4595 27.1576 71.5415Z" fill="#C31D2D"/>
<path d="M60.7066 66.989C58.6816 70.34 56.6706 73.647 54.6736 76.91C54.5036 77.188 54.3096 77.396 54.0916 77.534C52.4401 78.5765 51.5236 77.4785 50.6551 76.094C49.6931 74.562 48.7646 72.992 47.8696 71.384C52.1926 70.161 56.4716 68.696 60.7066 66.989Z" fill="#2E3892"/>
<path d="M36.2248 73.5201C35.7018 74.4841 35.1818 75.4176 34.6648 76.3206C34.4238 76.7416 34.1748 77.0566 33.9178 77.2656C32.6068 78.3351 31.1188 78.2691 30.1843 76.7721C29.8573 76.2481 29.3608 75.3946 28.6948 74.2116L36.2248 73.5201Z" fill="#2E3892"/>
</svg>
