<svg width="100" height="100" viewBox="0 0 100 100" fill="none" xmlns="http://www.w3.org/2000/svg">
<rect width="100" height="100" fill="#E2F6FF"/>
<g clip-path="url(#clip0_132_41)">
<path d="M49.3363 25H52.3438C56.6694 25.03 60.9569 25.4256 65.2644 26.0388C71.9887 26.9963 78.6063 28.7175 84.8631 31.3781C85.3713 31.5944 85.7087 31.7319 85.84 32.2356C86.9037 36.3081 87.58 40.5004 87.8688 44.8125C87.9167 45.5229 87.9604 46.234 88 46.9456V54.0919C87.7946 58.8673 87.105 63.5667 85.9313 68.19C85.7969 68.7194 85.7125 69.04 85.2381 69.2463C83.0115 70.2158 80.7383 71.0613 78.4187 71.7825C73.1617 73.4179 67.7954 74.5342 62.32 75.1312C61.2575 75.2471 59.9867 75.37 58.5075 75.5H42.3762C38.7525 75.2054 35.0856 74.7054 31.3756 74C26.0627 72.99 20.9517 71.4435 16.0425 69.3606C15.4762 69.1206 15.3194 68.9781 15.155 68.3375C13.7262 62.7719 13.0456 57.125 13 51.3213V48.4525C13.0637 45.3021 13.3556 42.021 13.8756 38.6094C14.2277 36.2998 14.6767 34.159 15.2225 32.1869C15.3058 31.8844 15.5087 31.6638 15.8312 31.525C21.7575 28.9688 28.0287 27.2681 34.3906 26.2356C39.1452 25.464 44.1271 25.0521 49.3363 25ZM66.9975 40.6862C67.0183 40.73 67.0058 40.7894 66.96 40.8644C65.9071 42.5919 64.8525 44.3185 63.7962 46.0444C63.6744 46.2437 63.5438 46.5394 63.5694 46.7344C64.076 50.5973 64.4871 53.811 64.8025 56.3756C64.8413 56.6919 65.025 56.655 65.3063 56.6569C65.8354 56.6594 66.3531 56.6594 66.8594 56.6569C66.9096 56.6567 66.9586 56.6414 67 56.613C67.0415 56.5846 67.0735 56.5443 67.0919 56.4975L73.2425 40.7794C73.2624 40.7285 73.2972 40.6849 73.3423 40.6541C73.3875 40.6233 73.4409 40.6069 73.4956 40.6069C74.7481 40.6056 76.0048 40.6098 77.2656 40.6194C77.4494 40.6206 77.4644 40.8538 77.4856 41.0219C78.1256 46.0565 78.7717 51.1215 79.4238 56.2169C79.4298 56.2644 79.4529 56.3081 79.4888 56.3398C79.5247 56.3715 79.5709 56.3892 79.6188 56.3894C80.4775 56.3919 81.3494 56.395 82.2344 56.3988C82.4285 56.3996 82.5535 56.3181 82.6094 56.1544C83.5606 53.3481 83.7971 50.4523 83.3187 47.4669C81.7881 37.9113 72.6369 32.8263 64.0625 30.7663C60.5104 29.9129 56.8958 29.4246 53.2188 29.3012C51.925 29.2575 50.6225 29.2706 49.3288 29.2781C44.8058 29.306 40.3579 29.8898 35.985 31.0294C30.2362 32.5275 24.4062 35.4131 20.7419 40.2581C20.6777 40.3427 20.6413 40.4152 20.6325 40.4756C20.6196 40.5615 20.6565 40.6044 20.7431 40.6044C22.0881 40.6056 23.4133 40.6117 24.7188 40.6225C24.9244 40.6244 24.9444 40.8194 24.9706 40.9987C25.4085 43.9992 25.8488 46.9992 26.2913 49.9988C26.3046 50.0883 26.3271 50.1433 26.3588 50.1637C26.43 50.2096 26.4823 50.1933 26.5156 50.115C27.8219 47.0413 29.1142 43.9823 30.3925 40.9381C30.49 40.706 30.656 40.5908 30.8906 40.5925C31.8202 40.5983 32.7433 40.6044 33.66 40.6106C33.7028 40.6109 33.7442 40.6263 33.7767 40.6541C33.8093 40.6819 33.8311 40.7203 33.8381 40.7625C34.3381 43.7892 34.8392 46.8258 35.3412 49.8725C35.3594 49.9819 35.3687 50.1381 35.4412 50.2225C35.4975 50.2879 35.5419 50.2806 35.5744 50.2006C36.8335 47.0869 38.0848 43.9869 39.3281 40.9006C39.411 40.6952 39.5723 40.5933 39.8119 40.595C40.9894 40.6021 42.181 40.6069 43.3869 40.6094C43.4007 40.6094 43.4144 40.6124 43.427 40.6182C43.4396 40.624 43.4508 40.6324 43.4599 40.6429C43.469 40.6534 43.4757 40.6657 43.4796 40.679C43.4835 40.6923 43.4845 40.7063 43.4825 40.72C43.4792 40.7425 43.4692 40.7754 43.4525 40.8188C42.8983 42.26 42.3383 43.7075 41.7725 45.1612C41.7664 45.177 41.7639 45.1939 41.7653 45.2108C41.7667 45.2276 41.7718 45.244 41.7803 45.2586C41.7888 45.2731 41.8005 45.2856 41.8146 45.2951C41.8286 45.3045 41.8445 45.3107 41.8612 45.3131C41.8754 45.3152 41.9008 45.3162 41.9375 45.3162C44.4375 45.3233 46.9538 45.3288 49.4863 45.3325C49.4988 45.3326 49.5113 45.3352 49.5228 45.3402C49.5343 45.3453 49.5447 45.3526 49.5533 45.3618C49.5619 45.371 49.5686 45.3818 49.5728 45.3936C49.5771 45.4055 49.5789 45.4181 49.5781 45.4306C49.5769 45.4552 49.5719 45.4881 49.5631 45.5294C48.8806 48.8281 48.1946 52.126 47.505 55.4231C47.4329 55.769 47.3673 56.0994 47.3081 56.4144C47.3025 56.444 47.3035 56.4745 47.311 56.5037C47.3186 56.5328 47.3324 56.56 47.3516 56.5832C47.3708 56.6064 47.3949 56.6251 47.4222 56.638C47.4495 56.6508 47.4792 56.6575 47.5094 56.6575C48.576 56.6604 49.6094 56.6575 50.6094 56.6488C50.8787 56.6469 50.9037 56.3975 50.9519 56.2025C52.2052 51.0783 53.4575 45.9535 54.7088 40.8281C54.7463 40.674 54.8458 40.5973 55.0075 40.5981C56.1454 40.606 57.2683 40.6092 58.3763 40.6075C58.5662 40.6071 58.6402 40.6996 58.5981 40.885C58.3031 42.1938 58.0058 43.5185 57.7062 44.8594C57.6842 44.9577 57.6696 45.056 57.6625 45.1544C57.6602 45.1873 57.6707 45.2197 57.6918 45.2449C57.713 45.2701 57.743 45.2861 57.7756 45.2894C58.2437 45.3388 58.7281 45.2887 59.2025 45.3169C59.5675 45.3381 59.7919 45.2812 59.9931 44.9906C60.9348 43.6302 61.8721 42.2669 62.805 40.9006C62.965 40.6663 63.2519 40.5938 63.5506 40.5969C64.6531 40.6094 65.7554 40.6102 66.8575 40.5994C66.9225 40.5985 66.9692 40.6275 66.9975 40.6862ZM75.44 59.2844C75.413 59.2715 75.3896 59.2522 75.3717 59.2282C75.3539 59.2043 75.3421 59.1764 75.3375 59.1469C75.2146 58.3865 75.0902 57.6206 74.9644 56.8494C74.925 56.6106 74.9244 56.4438 74.6562 56.4431C73.5417 56.4394 72.426 56.4373 71.3094 56.4369C70.9313 56.4369 70.8925 56.5681 70.765 56.8706C70.4767 57.5577 70.1925 58.2471 69.9125 58.9388C69.8225 59.1619 69.695 59.33 69.4531 59.3294C66.771 59.3227 64.0887 59.3196 61.4062 59.32C61.1113 59.32 60.9319 59.3506 60.8937 59.0156C60.6063 56.5106 60.1848 53.125 59.6294 48.8587C59.6069 48.6887 59.4844 48.6256 59.3169 48.6225C58.5419 48.6067 57.7669 48.6069 56.9919 48.6231C56.7056 48.6287 56.6781 48.7969 56.615 49.0475C55.7729 52.3862 54.9331 55.7256 54.0956 59.0656C54.0531 59.2348 53.9588 59.3194 53.8125 59.3194C50.1587 59.321 46.505 59.3213 42.8512 59.32C42.7575 59.32 42.6783 59.3017 42.6138 59.265C42.6039 59.2593 42.5957 59.2512 42.59 59.2414C42.5843 59.2316 42.5812 59.2206 42.5812 59.2094C42.5804 59.0835 42.5979 58.9406 42.6338 58.7806C43.1346 56.566 43.8533 53.3263 44.79 49.0613C44.8106 48.9675 44.8569 48.7825 44.8169 48.6975C44.7931 48.6467 44.75 48.6206 44.6875 48.6194C44.0037 48.6077 42.699 48.6015 40.7731 48.6006C40.5398 48.6006 40.3856 48.6965 40.3106 48.8881C38.9815 52.2785 37.65 55.6681 36.3162 59.0569C36.2467 59.2331 36.11 59.3217 35.9062 59.3225C34.8713 59.3275 33.8365 59.3262 32.8019 59.3187C32.5112 59.3169 32.3044 59.3425 32.2638 59.0156C31.9346 56.3652 31.5435 53.3652 31.0906 50.0156C31.0823 49.9523 31.0756 49.916 31.0706 49.9069C31.0198 49.8148 30.9733 49.8169 30.9312 49.9131C29.6062 52.946 28.2904 55.9685 26.9838 58.9806C26.8833 59.2123 26.7119 59.3281 26.4694 59.3281C25.4465 59.3277 24.425 59.324 23.405 59.3169C23.3559 59.3165 23.3086 59.2983 23.2719 59.2656C23.2352 59.233 23.2117 59.1881 23.2056 59.1394L21.2619 43.7188C21.2563 43.675 21.2354 43.6347 21.2031 43.6053C21.1707 43.5759 21.129 43.5594 21.0856 43.5588C20.4894 43.5475 19.8802 43.546 19.2581 43.5544C18.8169 43.5606 18.7725 43.7038 18.6275 44.0788C18.1131 45.4088 17.765 46.7181 17.6038 48.1038C17.3633 50.1721 17.4556 52.2252 17.8806 54.2631C18.3869 56.6944 19.5494 59.0256 21.0919 60.9688C24.37 65.0975 29.29 67.7106 34.2706 69.2562C36.0556 69.81 37.8306 70.2465 39.5956 70.5656C44.2415 71.406 48.9229 71.7008 53.64 71.45C55.1754 71.3683 56.7067 71.2388 58.2337 71.0612C61.6646 70.6621 65.0077 69.8883 68.2631 68.74C73.24 66.9838 77.9538 64.0856 80.8962 59.6131C80.9388 59.5481 80.97 59.4569 80.9481 59.3881C80.9352 59.346 80.9067 59.325 80.8625 59.325C79.1558 59.3217 77.4519 59.3198 75.7506 59.3194C75.6525 59.3194 75.5219 59.3237 75.44 59.2844ZM74.1619 50.5063C74.1135 50.1417 74.0542 49.7692 73.9837 49.3888C73.9562 49.2396 73.9135 49.2352 73.8556 49.3756L72.27 53.2231C72.2592 53.2494 72.2679 53.2627 72.2962 53.2631C72.9162 53.2656 73.5363 53.2644 74.1562 53.2594C74.26 53.2585 74.3488 53.2492 74.4225 53.2313C74.4335 53.2286 74.4436 53.223 74.4517 53.2151C74.4598 53.2072 74.4657 53.1972 74.4688 53.1863C74.4867 53.1254 74.4904 53.0529 74.48 52.9688C74.3771 52.1475 74.271 51.3267 74.1619 50.5063Z" fill="#019FE3"/>
<path d="M50.1176 43.215C50.0333 43.5825 49.9214 43.5463 49.5964 43.5475C48.6035 43.553 47.6122 43.5532 46.6226 43.5482C46.5973 43.548 46.5722 43.5422 46.5494 43.5311C46.5265 43.5201 46.5064 43.5041 46.4906 43.4843C46.4747 43.4646 46.4634 43.4415 46.4576 43.4169C46.4518 43.3922 46.4516 43.3666 46.457 43.3419L47.0089 40.785C47.0199 40.7347 47.0477 40.6897 47.0877 40.6574C47.1277 40.6251 47.1775 40.6075 47.2289 40.6075H50.5158C50.534 40.6076 50.552 40.6116 50.5685 40.6194C50.585 40.6273 50.5996 40.6386 50.6112 40.6527C50.6228 40.6668 50.6311 40.6833 50.6356 40.701C50.64 40.7187 50.6405 40.7371 50.637 40.755C50.4758 41.5909 50.3026 42.4109 50.1176 43.215Z" fill="#019FE3"/>
</g>
<defs>
<clipPath id="clip0_132_41">
<rect width="75" height="50.5" fill="white" transform="translate(13 25)"/>
</clipPath>
</defs>
</svg>
