<svg width="100" height="100" viewBox="0 0 100 100" fill="none" xmlns="http://www.w3.org/2000/svg">
<rect width="100" height="100" fill="#55237D"/>
<path d="M81.9626 26.3973C82.9753 31.5778 82.1446 35.9235 79.4707 39.4343" stroke="#7F6695" stroke-width="1.25536"/>
<path d="M81.963 26.3973C82.9756 31.5778 82.145 35.9234 79.471 39.4343C73.8407 37.6579 67.6644 40.1373 62.147 41.9701C60.2452 42.6041 56.6674 43.464 54.9287 42.6543C54.7699 42.5814 54.6354 42.4643 54.5414 42.317C54.4473 42.1697 54.3977 41.9985 54.3983 41.8237C54.399 41.649 54.4499 41.4781 54.5451 41.3316C54.6403 41.185 54.7756 41.0689 54.935 40.9972L57.7721 39.6979C58.0106 39.5891 58.1445 39.4071 58.1738 39.1518C58.6006 35.6305 58.4562 31.1363 56.0334 28.4749C54.2591 26.5333 51.9723 25.891 49.1728 26.548C41.9168 28.2553 44.4338 34.394 46.3985 38.9824C48.6581 44.2612 35.6777 40.6959 33.9704 40.1247C23.9819 36.7729 16.9999 30.2199 13.0246 20.4657C13.0018 20.4087 12.9947 20.3464 13.0039 20.2857C13.0132 20.2249 13.0386 20.1679 13.0773 20.1208C13.116 20.0737 13.1666 20.0383 13.2237 20.0183C13.2807 19.9984 13.3421 19.9946 13.4012 20.0075C32.9347 24.1377 52.5435 20.8988 72.1021 22.9764C76.069 23.3949 79.356 24.5352 81.963 26.3973Z" fill="white"/>
<path d="M81.9624 26.3973C84.6949 28.544 86.1951 31.0234 86.4629 33.8354C86.7516 36.8357 86.6826 40.5139 85.7348 43.5707C82.2072 54.8879 74.3361 65.4706 65.0589 72.6136C55.8404 79.7106 45.4459 83.506 33.8757 83.9998C33.8024 84.0022 33.7296 83.987 33.6635 83.9555C33.5973 83.9239 33.5396 83.877 33.4954 83.8186C33.4511 83.7602 33.4215 83.692 33.409 83.6197C33.3966 83.5475 33.4016 83.4734 33.4237 83.4035C36.5872 73.62 42.0983 65.73 49.9569 59.7336C59.2026 52.6721 71.8065 48.8307 79.4705 39.4343C82.1444 35.9235 82.975 31.5778 81.9624 26.3973Z" fill="#A7A9AC"/>
</svg>
