<svg width="100" height="100" viewBox="0 0 100 100" fill="none" xmlns="http://www.w3.org/2000/svg">
<rect width="100" height="100" fill="#595C62"/>
<path d="M20.1045 58L25.9756 49.0352L20.6553 40.8203H24.71L28.1553 46.3398L31.5303 40.8203H35.5498L30.2061 49.1641L36.0772 58H31.8936L28.085 52.0586L24.2647 58H20.1045ZM38.2302 40.8203H45.0973C46.4567 40.8203 47.4684 40.8789 48.1325 40.9961C48.8044 41.1055 49.402 41.3398 49.9255 41.6992C50.4567 42.0586 50.8981 42.5391 51.2497 43.1406C51.6012 43.7344 51.777 44.4023 51.777 45.1445C51.777 45.9492 51.5583 46.6875 51.1208 47.3594C50.6911 48.0312 50.1052 48.5352 49.363 48.8711C50.4098 49.1758 51.2145 49.6953 51.777 50.4297C52.3395 51.1641 52.6208 52.0273 52.6208 53.0195C52.6208 53.8008 52.4372 54.5625 52.07 55.3047C51.7106 56.0391 51.2145 56.6289 50.5817 57.0742C49.9567 57.5117 49.1833 57.7812 48.2614 57.8828C47.6833 57.9453 46.2887 57.9844 44.0778 58H38.2302V40.8203ZM41.6989 43.6797V47.6523H43.9723C45.3239 47.6523 46.1637 47.6328 46.4919 47.5938C47.0856 47.5234 47.5505 47.3203 47.8864 46.9844C48.2302 46.6406 48.402 46.1914 48.402 45.6367C48.402 45.1055 48.2536 44.6758 47.9567 44.3477C47.6677 44.0117 47.2341 43.8086 46.6559 43.7383C46.3122 43.6992 45.3239 43.6797 43.6911 43.6797H41.6989ZM41.6989 50.5117V55.1055H44.9098C46.1598 55.1055 46.9528 55.0703 47.2887 55C47.8044 54.9062 48.2223 54.6797 48.5427 54.3203C48.8708 53.9531 49.0348 53.4648 49.0348 52.8555C49.0348 52.3398 48.9098 51.9023 48.6598 51.543C48.4098 51.1836 48.0466 50.9219 47.57 50.7578C47.1012 50.5938 46.0778 50.5117 44.4997 50.5117H41.6989ZM55.8167 58V40.8203H59.2855V58H55.8167ZM70.9541 51.6836V48.7891H78.4306V55.6328C77.7041 56.3359 76.6494 56.957 75.2666 57.4961C73.8916 58.0273 72.497 58.293 71.083 58.293C69.2861 58.293 67.7197 57.918 66.3838 57.168C65.0478 56.4102 64.0439 55.332 63.372 53.9336C62.7002 52.5273 62.3642 51 62.3642 49.3516C62.3642 47.5625 62.7392 45.9727 63.4892 44.582C64.2392 43.1914 65.3369 42.125 66.7822 41.3828C67.8838 40.8125 69.2548 40.5273 70.8955 40.5273C73.0283 40.5273 74.6923 40.9766 75.8877 41.875C77.0908 42.7656 77.8642 44 78.208 45.5781L74.7627 46.2227C74.5205 45.3789 74.0634 44.7148 73.3916 44.2305C72.7275 43.7383 71.8955 43.4922 70.8955 43.4922C69.3798 43.4922 68.1728 43.9727 67.2744 44.9336C66.3838 45.8945 65.9384 47.3203 65.9384 49.2109C65.9384 51.25 66.3916 52.7812 67.2978 53.8047C68.2041 54.8203 69.3916 55.3281 70.8603 55.3281C71.5869 55.3281 72.3134 55.1875 73.04 54.9062C73.7744 54.6172 74.4033 54.2695 74.9267 53.8633V51.6836H70.9541Z" fill="#F8F8F8"/>
</svg>
