<svg width="100" height="100" viewBox="0 0 100 100" fill="none" xmlns="http://www.w3.org/2000/svg">
<rect width="100" height="100" fill="#595C62"/>
<path d="M21.2725 58L27.1436 49.0352L21.8233 40.8203H25.878L29.3233 46.3398L32.6983 40.8203H36.7178L31.3741 49.1641L37.2452 58H33.0616L29.253 52.0586L25.4327 58H21.2725ZM39.3981 40.8203H46.2653C47.6247 40.8203 48.6364 40.8789 49.3005 40.9961C49.9723 41.1055 50.57 41.3398 51.0934 41.6992C51.6247 42.0586 52.0661 42.5391 52.4177 43.1406C52.7692 43.7344 52.945 44.4023 52.945 45.1445C52.945 45.9492 52.7262 46.6875 52.2887 47.3594C51.8591 48.0312 51.2731 48.5352 50.5309 48.8711C51.5778 49.1758 52.3825 49.6953 52.945 50.4297C53.5075 51.1641 53.7887 52.0273 53.7887 53.0195C53.7887 53.8008 53.6052 54.5625 53.238 55.3047C52.8786 56.0391 52.3825 56.6289 51.7497 57.0742C51.1247 57.5117 50.3512 57.7812 49.4294 57.8828C48.8512 57.9453 47.4567 57.9844 45.2458 58H39.3981V40.8203ZM42.8669 43.6797V47.6523H45.1403C46.4919 47.6523 47.3317 47.6328 47.6598 47.5938C48.2536 47.5234 48.7184 47.3203 49.0544 46.9844C49.3981 46.6406 49.57 46.1914 49.57 45.6367C49.57 45.1055 49.4216 44.6758 49.1247 44.3477C48.8356 44.0117 48.402 43.8086 47.8239 43.7383C47.4802 43.6992 46.4919 43.6797 44.8591 43.6797H42.8669ZM42.8669 50.5117V55.1055H46.0778C47.3278 55.1055 48.1208 55.0703 48.4567 55C48.9723 54.9062 49.3903 54.6797 49.7106 54.3203C50.0387 53.9531 50.2028 53.4648 50.2028 52.8555C50.2028 52.3398 50.0778 51.9023 49.8278 51.543C49.5778 51.1836 49.2145 50.9219 48.738 50.7578C48.2692 50.5938 47.2458 50.5117 45.6677 50.5117H42.8669ZM57.1253 58V40.8203H60.5003L67.5316 52.293V40.8203H70.7542V58H67.2738L60.348 46.7969V58H57.1253ZM74.6884 58V40.8203H78.1572V58H74.6884Z" fill="#F8F8F8"/>
</svg>
