<svg width="100" height="100" viewBox="0 0 100 100" fill="none" xmlns="http://www.w3.org/2000/svg">
<rect width="100" height="100" fill="#595C62"/>
<path d="M16.1084 58L21.9795 49.0352L16.6592 40.8203H20.7139L24.1592 46.3398L27.5342 40.8203H31.5537L26.21 49.1641L32.0811 58H27.8975L24.0889 52.0586L20.2686 58H16.1084ZM34.2341 40.8203H41.1012C42.4606 40.8203 43.4723 40.8789 44.1364 40.9961C44.8083 41.1055 45.4059 41.3398 45.9294 41.6992C46.4606 42.0586 46.902 42.5391 47.2536 43.1406C47.6052 43.7344 47.7809 44.4023 47.7809 45.1445C47.7809 45.9492 47.5622 46.6875 47.1247 47.3594C46.695 48.0312 46.1091 48.5352 45.3669 48.8711C46.4137 49.1758 47.2184 49.6953 47.7809 50.4297C48.3434 51.1641 48.6247 52.0273 48.6247 53.0195C48.6247 53.8008 48.4411 54.5625 48.0739 55.3047C47.7145 56.0391 47.2184 56.6289 46.5856 57.0742C45.9606 57.5117 45.1872 57.7812 44.2653 57.8828C43.6872 57.9453 42.2927 57.9844 40.0817 58H34.2341V40.8203ZM37.7028 43.6797V47.6523H39.9762C41.3278 47.6523 42.1677 47.6328 42.4958 47.5938C43.0895 47.5234 43.5544 47.3203 43.8903 46.9844C44.2341 46.6406 44.4059 46.1914 44.4059 45.6367C44.4059 45.1055 44.2575 44.6758 43.9606 44.3477C43.6716 44.0117 43.238 43.8086 42.6598 43.7383C42.3161 43.6992 41.3278 43.6797 39.695 43.6797H37.7028ZM37.7028 50.5117V55.1055H40.9137C42.1637 55.1055 42.9567 55.0703 43.2927 55C43.8083 54.9062 44.2262 54.6797 44.5466 54.3203C44.8747 53.9531 45.0387 53.4648 45.0387 52.8555C45.0387 52.3398 44.9137 51.9023 44.6637 51.543C44.4137 51.1836 44.0505 50.9219 43.5739 50.7578C43.1052 50.5938 42.0817 50.5117 40.5036 50.5117H37.7028ZM51.0472 52.4102L54.4222 52.082C54.6253 53.2148 55.0355 54.0469 55.6527 54.5781C56.2777 55.1094 57.1175 55.375 58.1722 55.375C59.2894 55.375 60.1292 55.1406 60.6917 54.6719C61.262 54.1953 61.5472 53.6406 61.5472 53.0078C61.5472 52.6016 61.4261 52.2578 61.1839 51.9766C60.9495 51.6875 60.5355 51.4375 59.9417 51.2266C59.5355 51.0859 58.6097 50.8359 57.1644 50.4766C55.305 50.0156 54.0003 49.4492 53.2503 48.7773C52.1956 47.832 51.6683 46.6797 51.6683 45.3203C51.6683 44.4453 51.9144 43.6289 52.4066 42.8711C52.9066 42.1055 53.6214 41.5234 54.5511 41.125C55.4886 40.7266 56.6175 40.5273 57.9378 40.5273C60.0941 40.5273 61.7152 41 62.8011 41.9453C63.8948 42.8906 64.4691 44.1523 64.5238 45.7305L61.055 45.8828C60.9066 45 60.5863 44.3672 60.0941 43.9844C59.6097 43.5938 58.8792 43.3984 57.9027 43.3984C56.8948 43.3984 56.1058 43.6055 55.5355 44.0195C55.1683 44.2852 54.9847 44.6406 54.9847 45.0859C54.9847 45.4922 55.1566 45.8398 55.5003 46.1289C55.9378 46.4961 57.0003 46.8789 58.6878 47.2773C60.3753 47.6758 61.6214 48.0898 62.4261 48.5195C63.2386 48.9414 63.8714 49.5234 64.3245 50.2656C64.7855 51 65.0159 51.9102 65.0159 52.9961C65.0159 53.9805 64.7425 54.9023 64.1956 55.7617C63.6488 56.6211 62.8753 57.2617 61.8753 57.6836C60.8753 58.0977 59.6292 58.3047 58.137 58.3047C55.9652 58.3047 54.2972 57.8047 53.1331 56.8047C51.9691 55.7969 51.2738 54.332 51.0472 52.4102ZM68.3408 58V40.8203H71.8095V48.4492L78.8173 40.8203H83.4814L77.0127 47.5117L83.833 58H79.3447L74.622 49.9375L71.8095 52.8086V58H68.3408Z" fill="#F8F8F8"/>
</svg>
