<svg width="100" height="100" viewBox="0 0 100 100" fill="none" xmlns="http://www.w3.org/2000/svg">
<rect width="100" height="100" fill="#595C62"/>
<path d="M15.4405 58L21.3116 49.0352L15.9912 40.8203H20.0459L23.4912 46.3398L26.8662 40.8203H30.8858L25.542 49.1641L31.4131 58H27.2295L23.4209 52.0586L19.6006 58H15.4405ZM44.5466 51.6836L47.9098 52.75C47.3942 54.625 46.5348 56.0195 45.3317 56.9336C44.1364 57.8398 42.6169 58.293 40.7731 58.293C38.4919 58.293 36.6169 57.5156 35.1481 55.9609C33.6794 54.3984 32.945 52.2656 32.945 49.5625C32.945 46.7031 33.6833 44.4844 35.1598 42.9062C36.6364 41.3203 38.5778 40.5273 40.9841 40.5273C43.0856 40.5273 44.7927 41.1484 46.1052 42.3906C46.8864 43.125 47.4723 44.1797 47.863 45.5547L44.4294 46.375C44.2262 45.4844 43.8005 44.7812 43.152 44.2656C42.5114 43.75 41.7302 43.4922 40.8083 43.4922C39.5348 43.4922 38.4997 43.9492 37.7028 44.8633C36.9137 45.7773 36.5192 47.2578 36.5192 49.3047C36.5192 51.4766 36.9098 53.0234 37.6911 53.9453C38.4723 54.8672 39.488 55.3281 40.738 55.3281C41.6598 55.3281 42.4528 55.0352 43.1169 54.4492C43.7809 53.8633 44.2575 52.9414 44.5466 51.6836ZM51.2581 58V40.8203H63.9964V43.7266H54.7269V47.5352H63.3519V50.4297H54.7269V55.1055H64.3245V58H51.2581ZM75.6181 51.6836V48.7891H83.0947V55.6328C82.3681 56.3359 81.3134 56.957 79.9306 57.4961C78.5556 58.0273 77.1611 58.293 75.747 58.293C73.9502 58.293 72.3838 57.918 71.0478 57.168C69.7119 56.4102 68.708 55.332 68.0361 53.9336C67.3642 52.5273 67.0283 51 67.0283 49.3516C67.0283 47.5625 67.4033 45.9727 68.1533 44.582C68.9033 43.1914 70.0009 42.125 71.4463 41.3828C72.5478 40.8125 73.9189 40.5273 75.5595 40.5273C77.6923 40.5273 79.3564 40.9766 80.5517 41.875C81.7548 42.7656 82.5283 44 82.872 45.5781L79.4267 46.2227C79.1845 45.3789 78.7275 44.7148 78.0556 44.2305C77.3916 43.7383 76.5595 43.4922 75.5595 43.4922C74.0439 43.4922 72.8369 43.9727 71.9384 44.9336C71.0478 45.8945 70.6025 47.3203 70.6025 49.2109C70.6025 51.25 71.0556 52.7812 71.9619 53.8047C72.8681 54.8203 74.0556 55.3281 75.5244 55.3281C76.2509 55.3281 76.9775 55.1875 77.7041 54.9062C78.4384 54.6172 79.0673 54.2695 79.5908 53.8633V51.6836H75.6181Z" fill="#F8F8F8"/>
</svg>
