<svg width="100" height="100" viewBox="0 0 100 100" fill="none" xmlns="http://www.w3.org/2000/svg">
<rect width="100" height="100" fill="#595C62"/>
<path d="M21.2725 58L27.1436 49.0352L21.8233 40.8203H25.878L29.3233 46.3398L32.6983 40.8203H36.7178L31.3741 49.1641L37.2452 58H33.0616L29.253 52.0586L25.4327 58H21.2725ZM50.3786 51.6836L53.7419 52.75C53.2262 54.625 52.3669 56.0195 51.1637 56.9336C49.9684 57.8398 48.4489 58.293 46.6052 58.293C44.3239 58.293 42.4489 57.5156 40.9802 55.9609C39.5114 54.3984 38.777 52.2656 38.777 49.5625C38.777 46.7031 39.5153 44.4844 40.9919 42.9062C42.4684 41.3203 44.4098 40.5273 46.8161 40.5273C48.9177 40.5273 50.6247 41.1484 51.9372 42.3906C52.7184 43.125 53.3044 44.1797 53.695 45.5547L50.2614 46.375C50.0583 45.4844 49.6325 44.7812 48.9841 44.2656C48.3434 43.75 47.5622 43.4922 46.6403 43.4922C45.3669 43.4922 44.3317 43.9492 43.5348 44.8633C42.7458 45.7773 42.3512 47.2578 42.3512 49.3047C42.3512 51.4766 42.7419 53.0234 43.5231 53.9453C44.3044 54.8672 45.32 55.3281 46.57 55.3281C47.4919 55.3281 48.2848 55.0352 48.9489 54.4492C49.613 53.8633 50.0895 52.9414 50.3786 51.6836ZM56.9847 58V40.8203H60.4534V58H56.9847ZM64.1181 40.8203H70.458C71.8877 40.8203 72.9775 40.9297 73.7275 41.1484C74.7353 41.4453 75.5986 41.9727 76.3173 42.7305C77.0361 43.4883 77.583 44.418 77.958 45.5195C78.333 46.6133 78.5205 47.9648 78.5205 49.5742C78.5205 50.9883 78.3447 52.207 77.9931 53.2305C77.5634 54.4805 76.9502 55.4922 76.1533 56.2656C75.5517 56.8516 74.7392 57.3086 73.7158 57.6367C72.9502 57.8789 71.9267 58 70.6455 58H64.1181V40.8203ZM67.5869 43.7266V55.1055H70.1767C71.1455 55.1055 71.8447 55.0508 72.2744 54.9414C72.8369 54.8008 73.3017 54.5625 73.6689 54.2266C74.0439 53.8906 74.3486 53.3398 74.583 52.5742C74.8173 51.8008 74.9345 50.75 74.9345 49.4219C74.9345 48.0938 74.8173 47.0742 74.583 46.3633C74.3486 45.6523 74.0205 45.0977 73.5986 44.6992C73.1767 44.3008 72.6416 44.0312 71.9931 43.8906C71.5088 43.7812 70.5595 43.7266 69.1455 43.7266H67.5869Z" fill="#F8F8F8"/>
</svg>
