<svg width="100" height="100" viewBox="0 0 100 100" fill="none" xmlns="http://www.w3.org/2000/svg">
<rect width="100" height="100" fill="#595C62"/>
<path d="M22.1084 58L27.9795 49.0352L22.6592 40.8203H26.7139L30.1592 46.3398L33.5342 40.8203H37.5537L32.21 49.1641L38.0811 58H33.8975L30.0889 52.0586L26.2686 58H22.1084ZM40.2106 40.8203H46.5505C47.9802 40.8203 49.07 40.9297 49.82 41.1484C50.8278 41.4453 51.6911 41.9727 52.4098 42.7305C53.1286 43.4883 53.6755 44.418 54.0505 45.5195C54.4255 46.6133 54.613 47.9648 54.613 49.5742C54.613 50.9883 54.4372 52.207 54.0856 53.2305C53.6559 54.4805 53.0427 55.4922 52.2458 56.2656C51.6442 56.8516 50.8317 57.3086 49.8083 57.6367C49.0427 57.8789 48.0192 58 46.738 58H40.2106V40.8203ZM43.6794 43.7266V55.1055H46.2692C47.238 55.1055 47.9372 55.0508 48.3669 54.9414C48.9294 54.8008 49.3942 54.5625 49.7614 54.2266C50.1364 53.8906 50.4411 53.3398 50.6755 52.5742C50.9098 51.8008 51.027 50.75 51.027 49.4219C51.027 48.0938 50.9098 47.0742 50.6755 46.3633C50.4411 45.6523 50.113 45.0977 49.6911 44.6992C49.2692 44.3008 48.7341 44.0312 48.0856 43.8906C47.6012 43.7812 46.652 43.7266 45.238 43.7266H43.6794ZM57.8206 58V40.8203H61.2894V58H57.8206ZM64.9892 58V40.8203H76.7666V43.7266H68.458V47.793H75.6298V50.6992H68.458V58H64.9892Z" fill="#F8F8F8"/>
</svg>
