<svg width="100" height="100" viewBox="0 0 100 100" fill="none" xmlns="http://www.w3.org/2000/svg">
<rect width="100" height="100" fill="#595C62"/>
<path d="M16.1084 58L21.9795 49.0352L16.6592 40.8203H20.7139L24.1592 46.3398L27.5342 40.8203H31.5537L26.21 49.1641L32.0811 58H27.8975L24.0889 52.0586L20.2686 58H16.1084ZM34.2223 58V40.8203H46.9606V43.7266H37.6911V47.5352H46.3161V50.4297H37.6911V55.1055H47.2887V58H34.2223ZM49.7113 52.4102L53.0863 52.082C53.2894 53.2148 53.6995 54.0469 54.3167 54.5781C54.9417 55.1094 55.7816 55.375 56.8363 55.375C57.9534 55.375 58.7933 55.1406 59.3558 54.6719C59.9261 54.1953 60.2113 53.6406 60.2113 53.0078C60.2113 52.6016 60.0902 52.2578 59.848 51.9766C59.6136 51.6875 59.1995 51.4375 58.6058 51.2266C58.1995 51.0859 57.2738 50.8359 55.8284 50.4766C53.9691 50.0156 52.6644 49.4492 51.9144 48.7773C50.8597 47.832 50.3323 46.6797 50.3323 45.3203C50.3323 44.4453 50.5784 43.6289 51.0706 42.8711C51.5706 42.1055 52.2855 41.5234 53.2152 41.125C54.1527 40.7266 55.2816 40.5273 56.6019 40.5273C58.7581 40.5273 60.3792 41 61.4652 41.9453C62.5589 42.8906 63.1331 44.1523 63.1878 45.7305L59.7191 45.8828C59.5706 45 59.2503 44.3672 58.7581 43.9844C58.2738 43.5938 57.5433 43.3984 56.5667 43.3984C55.5589 43.3984 54.7698 43.6055 54.1995 44.0195C53.8323 44.2852 53.6488 44.6406 53.6488 45.0859C53.6488 45.4922 53.8206 45.8398 54.1644 46.1289C54.6019 46.4961 55.6644 46.8789 57.3519 47.2773C59.0394 47.6758 60.2855 48.0898 61.0902 48.5195C61.9027 48.9414 62.5355 49.5234 62.9886 50.2656C63.4495 51 63.68 51.9102 63.68 52.9961C63.68 53.9805 63.4066 54.9023 62.8597 55.7617C62.3128 56.6211 61.5394 57.2617 60.5394 57.6836C59.5394 58.0977 58.2933 58.3047 56.8011 58.3047C54.6292 58.3047 52.9613 57.8047 51.7972 56.8047C50.6331 55.7969 49.9378 54.332 49.7113 52.4102ZM74.9502 51.6836V48.7891H82.4267V55.6328C81.7002 56.3359 80.6455 56.957 79.2627 57.4961C77.8877 58.0273 76.4931 58.293 75.0791 58.293C73.2822 58.293 71.7158 57.918 70.3798 57.168C69.0439 56.4102 68.04 55.332 67.3681 53.9336C66.6963 52.5273 66.3603 51 66.3603 49.3516C66.3603 47.5625 66.7353 45.9727 67.4853 44.582C68.2353 43.1914 69.333 42.125 70.7783 41.3828C71.8798 40.8125 73.2509 40.5273 74.8916 40.5273C77.0244 40.5273 78.6884 40.9766 79.8838 41.875C81.0869 42.7656 81.8603 44 82.2041 45.5781L78.7588 46.2227C78.5166 45.3789 78.0595 44.7148 77.3877 44.2305C76.7236 43.7383 75.8916 43.4922 74.8916 43.4922C73.3759 43.4922 72.1689 43.9727 71.2705 44.9336C70.3798 45.8945 69.9345 47.3203 69.9345 49.2109C69.9345 51.25 70.3877 52.7812 71.2939 53.8047C72.2002 54.8203 73.3877 55.3281 74.8564 55.3281C75.583 55.3281 76.3095 55.1875 77.0361 54.9062C77.7705 54.6172 78.3994 54.2695 78.9228 53.8633V51.6836H74.9502Z" fill="#F8F8F8"/>
</svg>
