<svg width="100" height="100" viewBox="0 0 100 100" fill="none" xmlns="http://www.w3.org/2000/svg">
<rect width="100" height="100" fill="#595C62"/>
<path d="M18.1123 58L23.9834 49.0352L18.6631 40.8203H22.7178L26.1631 46.3398L29.5381 40.8203H33.5577L28.2139 49.1641L34.085 58H29.9014L26.0928 52.0586L22.2725 58H18.1123ZM36.2497 58V40.8203H48.027V43.7266H39.7184V47.793H46.8903V50.6992H39.7184V58H36.2497ZM51.2581 58V40.8203H63.9964V43.7266H54.7269V47.5352H63.3519V50.4297H54.7269V55.1055H64.3245V58H51.2581ZM66.747 52.4102L70.122 52.082C70.3252 53.2148 70.7353 54.0469 71.3525 54.5781C71.9775 55.1094 72.8173 55.375 73.872 55.375C74.9892 55.375 75.8291 55.1406 76.3916 54.6719C76.9619 54.1953 77.247 53.6406 77.247 53.0078C77.247 52.6016 77.1259 52.2578 76.8838 51.9766C76.6494 51.6875 76.2353 51.4375 75.6416 51.2266C75.2353 51.0859 74.3095 50.8359 72.8642 50.4766C71.0048 50.0156 69.7002 49.4492 68.9502 48.7773C67.8955 47.832 67.3681 46.6797 67.3681 45.3203C67.3681 44.4453 67.6142 43.6289 68.1064 42.8711C68.6064 42.1055 69.3213 41.5234 70.2509 41.125C71.1884 40.7266 72.3173 40.5273 73.6377 40.5273C75.7939 40.5273 77.415 41 78.5009 41.9453C79.5947 42.8906 80.1689 44.1523 80.2236 45.7305L76.7548 45.8828C76.6064 45 76.2861 44.3672 75.7939 43.9844C75.3095 43.5938 74.5791 43.3984 73.6025 43.3984C72.5947 43.3984 71.8056 43.6055 71.2353 44.0195C70.8681 44.2852 70.6845 44.6406 70.6845 45.0859C70.6845 45.4922 70.8564 45.8398 71.2002 46.1289C71.6377 46.4961 72.7002 46.8789 74.3877 47.2773C76.0752 47.6758 77.3213 48.0898 78.1259 48.5195C78.9384 48.9414 79.5713 49.5234 80.0244 50.2656C80.4853 51 80.7158 51.9102 80.7158 52.9961C80.7158 53.9805 80.4423 54.9023 79.8955 55.7617C79.3486 56.6211 78.5752 57.2617 77.5752 57.6836C76.5752 58.0977 75.3291 58.3047 73.8369 58.3047C71.665 58.3047 69.997 57.8047 68.833 56.8047C67.6689 55.7969 66.9736 54.332 66.747 52.4102Z" fill="#F8F8F8"/>
</svg>
