<svg width="100" height="100" viewBox="0 0 100 100" fill="none" xmlns="http://www.w3.org/2000/svg">
<rect width="100" height="100" fill="#595C62"/>
<path d="M22.1084 58L27.9795 49.0352L22.6592 40.8203H26.7139L30.1592 46.3398L33.5342 40.8203H37.5537L32.21 49.1641L38.0811 58H33.8975L30.0889 52.0586L26.2686 58H22.1084ZM40.2692 58V40.8203H43.738V48.4492L50.7458 40.8203H55.4098L48.9411 47.5117L55.7614 58H51.2731L46.5505 49.9375L43.738 52.8086V58H40.2692ZM57.8206 58V40.8203H61.2894V58H57.8206ZM68.833 58V43.7266H63.7353V40.8203H77.3877V43.7266H72.3017V58H68.833Z" fill="#F8F8F8"/>
</svg>
