<svg width="100" height="100" viewBox="0 0 100 100" fill="none" xmlns="http://www.w3.org/2000/svg">
<rect width="100" height="100" fill="#595C62"/>
<path d="M21.4405 58L27.3116 49.0352L21.9912 40.8203H26.0459L29.4912 46.3398L32.8662 40.8203H36.8858L31.542 49.1641L37.4131 58H33.2295L29.4209 52.0586L25.6006 58H21.4405ZM39.6012 58V40.8203H43.07V48.4492L50.0778 40.8203H54.7419L48.2731 47.5117L55.0934 58H50.6052L45.8825 49.9375L43.07 52.8086V58H39.6012ZM57.1527 58V40.8203H60.6214V58H57.1527ZM68.6806 58L62.54 40.8203H66.3017L70.6494 53.5352L74.8564 40.8203H78.5361L72.3838 58H68.6806Z" fill="#F8F8F8"/>
</svg>
