<svg width="100" height="100" viewBox="0 0 100 100" fill="none" xmlns="http://www.w3.org/2000/svg">
<rect width="100" height="100" fill="#595C62"/>
<path d="M15.2842 58L21.1553 49.0352L15.835 40.8203H19.8897L23.335 46.3398L26.71 40.8203H30.7295L25.3858 49.1641L31.2569 58H27.0733L23.2647 52.0586L19.4444 58H15.2842ZM33.3512 58V40.8203H38.5427L41.6598 52.5391L44.7419 40.8203H49.945V58H46.7223V44.4766L43.3122 58H39.9723L36.5739 44.4766V58H33.3512ZM59.9495 40.8203H63.4066V51.6953C63.4066 53.1172 63.2816 54.2109 63.0316 54.9766C62.6956 55.9766 62.0863 56.7812 61.2034 57.3906C60.3206 57.9922 59.1566 58.293 57.7113 58.293C56.0159 58.293 54.7113 57.8203 53.7972 56.875C52.8831 55.9219 52.4222 54.5273 52.4144 52.6914L55.6839 52.3164C55.723 53.3008 55.8675 53.9961 56.1175 54.4023C56.4925 55.0195 57.0628 55.3281 57.8284 55.3281C58.6019 55.3281 59.1488 55.1094 59.4691 54.6719C59.7894 54.2266 59.9495 53.3086 59.9495 51.918V40.8203ZM67.4228 58V40.8203H72.6142L75.7314 52.5391L78.8134 40.8203H84.0166V58H80.7939V44.4766L77.3838 58H74.0439L70.6455 44.4766V58H67.4228Z" fill="#F8F8F8"/>
</svg>
