<svg width="100" height="100" viewBox="0 0 100 100" fill="none" xmlns="http://www.w3.org/2000/svg">
<rect width="100" height="100" fill="#595C62"/>
<path d="M17.2881 58L23.1592 49.0352L17.8389 40.8203H21.8936L25.3389 46.3398L28.7139 40.8203H32.7334L27.3897 49.1641L33.2608 58H29.0772L25.2686 52.0586L21.4483 58H17.2881ZM35.3552 58V40.8203H40.5466L43.6637 52.5391L46.7458 40.8203H51.9489V58H48.7262V44.4766L45.3161 58H41.9762L38.5778 44.4766V58H35.3552ZM55.848 58V40.9609H59.3167V55.1055H67.9417V58H55.848ZM70.8095 58V40.8203H82.5869V43.7266H74.2783V47.793H81.4502V50.6992H74.2783V58H70.8095Z" fill="#F8F8F8"/>
</svg>
