<svg width="100" height="100" viewBox="0 0 100 100" fill="none" xmlns="http://www.w3.org/2000/svg">
<rect width="100" height="100" fill="#595C62"/>
<path d="M17.2764 58L23.1475 49.0352L17.8272 40.8203H21.8819L25.3272 46.3398L28.7022 40.8203H32.7217L27.378 49.1641L33.2491 58H29.0655L25.2569 52.0586L21.4366 58H17.2764ZM35.3903 58V40.8203H40.9567C43.0661 40.8203 44.4411 40.9062 45.0817 41.0781C46.0661 41.3359 46.8903 41.8984 47.5544 42.7656C48.2184 43.625 48.5505 44.7383 48.5505 46.1055C48.5505 47.1602 48.3591 48.0469 47.9762 48.7656C47.5934 49.4844 47.1052 50.0508 46.5114 50.4648C45.9255 50.8711 45.3278 51.1406 44.7184 51.2734C43.8903 51.4375 42.6911 51.5195 41.1208 51.5195H38.8591V58H35.3903ZM38.8591 43.7266V48.6016H40.7575C42.1247 48.6016 43.0387 48.5117 43.4997 48.332C43.9606 48.1523 44.32 47.8711 44.5778 47.4883C44.8434 47.1055 44.9762 46.6602 44.9762 46.1523C44.9762 45.5273 44.7927 45.0117 44.4255 44.6055C44.0583 44.1992 43.5934 43.9453 43.0309 43.8438C42.6169 43.7656 41.7848 43.7266 40.5348 43.7266H38.8591ZM51.7464 40.8203H58.0863C59.5159 40.8203 60.6058 40.9297 61.3558 41.1484C62.3636 41.4453 63.2269 41.9727 63.9456 42.7305C64.6644 43.4883 65.2113 44.418 65.5863 45.5195C65.9613 46.6133 66.1488 47.9648 66.1488 49.5742C66.1488 50.9883 65.973 52.207 65.6214 53.2305C65.1917 54.4805 64.5784 55.4922 63.7816 56.2656C63.18 56.8516 62.3675 57.3086 61.3441 57.6367C60.5784 57.8789 59.555 58 58.2738 58H51.7464V40.8203ZM55.2152 43.7266V55.1055H57.805C58.7738 55.1055 59.473 55.0508 59.9027 54.9414C60.4652 54.8008 60.93 54.5625 61.2972 54.2266C61.6722 53.8906 61.9769 53.3398 62.2113 52.5742C62.4456 51.8008 62.5628 50.75 62.5628 49.4219C62.5628 48.0938 62.4456 47.0742 62.2113 46.3633C61.9769 45.6523 61.6488 45.0977 61.2269 44.6992C60.805 44.3008 60.2698 44.0312 59.6214 43.8906C59.137 43.7812 58.1878 43.7266 56.7738 43.7266H55.2152ZM73.8447 58L67.7041 40.8203H71.4658L75.8134 53.5352L80.0205 40.8203H83.7002L77.5478 58H73.8447Z" fill="#F8F8F8"/>
</svg>
