<svg width="100" height="100" viewBox="0 0 100 100" fill="none" xmlns="http://www.w3.org/2000/svg">
<rect width="100" height="100" fill="#595C62"/>
<path d="M17.4444 58L23.3155 49.0352L17.9952 40.8203H22.0498L25.4952 46.3398L28.8702 40.8203H32.8897L27.5459 49.1641L33.417 58H29.2334L25.4248 52.0586L21.6045 58H17.4444ZM35.5583 58V40.8203H41.1247C43.2341 40.8203 44.6091 40.9062 45.2497 41.0781C46.2341 41.3359 47.0583 41.8984 47.7223 42.7656C48.3864 43.625 48.7184 44.7383 48.7184 46.1055C48.7184 47.1602 48.527 48.0469 48.1442 48.7656C47.7614 49.4844 47.2731 50.0508 46.6794 50.4648C46.0934 50.8711 45.4958 51.1406 44.8864 51.2734C44.0583 51.4375 42.8591 51.5195 41.2887 51.5195H39.027V58H35.5583ZM39.027 43.7266V48.6016H40.9255C42.2927 48.6016 43.2067 48.5117 43.6677 48.332C44.1286 48.1523 44.488 47.8711 44.7458 47.4883C45.0114 47.1055 45.1442 46.6602 45.1442 46.1523C45.1442 45.5273 44.9606 45.0117 44.5934 44.6055C44.2262 44.1992 43.7614 43.9453 43.1989 43.8438C42.7848 43.7656 41.9528 43.7266 40.7028 43.7266H39.027ZM55.7933 58V43.7266H50.6956V40.8203H64.348V43.7266H59.262V58H55.7933ZM66.9463 40.8203H73.2861C74.7158 40.8203 75.8056 40.9297 76.5556 41.1484C77.5634 41.4453 78.4267 41.9727 79.1455 42.7305C79.8642 43.4883 80.4111 44.418 80.7861 45.5195C81.1611 46.6133 81.3486 47.9648 81.3486 49.5742C81.3486 50.9883 81.1728 52.207 80.8213 53.2305C80.3916 54.4805 79.7783 55.4922 78.9814 56.2656C78.3798 56.8516 77.5673 57.3086 76.5439 57.6367C75.7783 57.8789 74.7548 58 73.4736 58H66.9463V40.8203ZM70.415 43.7266V55.1055H73.0048C73.9736 55.1055 74.6728 55.0508 75.1025 54.9414C75.665 54.8008 76.1298 54.5625 76.497 54.2266C76.872 53.8906 77.1767 53.3398 77.4111 52.5742C77.6455 51.8008 77.7627 50.75 77.7627 49.4219C77.7627 48.0938 77.6455 47.0742 77.4111 46.3633C77.1767 45.6523 76.8486 45.0977 76.4267 44.6992C76.0048 44.3008 75.4697 44.0312 74.8213 43.8906C74.3369 43.7812 73.3877 43.7266 71.9736 43.7266H70.415Z" fill="#F8F8F8"/>
</svg>
