<svg width="100" height="100" viewBox="0 0 100 100" fill="none" xmlns="http://www.w3.org/2000/svg">
<rect width="100" height="100" fill="#595C62"/>
<path d="M21.4405 58L27.3116 49.0352L21.9912 40.8203H26.0459L29.4912 46.3398L32.8662 40.8203H36.8858L31.542 49.1641L37.4131 58H33.2295L29.4209 52.0586L25.6006 58H21.4405ZM38.6755 52.4102L42.0505 52.082C42.2536 53.2148 42.6637 54.0469 43.2809 54.5781C43.9059 55.1094 44.7458 55.375 45.8005 55.375C46.9177 55.375 47.7575 55.1406 48.32 54.6719C48.8903 54.1953 49.1755 53.6406 49.1755 53.0078C49.1755 52.6016 49.0544 52.2578 48.8122 51.9766C48.5778 51.6875 48.1637 51.4375 47.57 51.2266C47.1637 51.0859 46.238 50.8359 44.7927 50.4766C42.9333 50.0156 41.6286 49.4492 40.8786 48.7773C39.8239 47.832 39.2966 46.6797 39.2966 45.3203C39.2966 44.4453 39.5427 43.6289 40.0348 42.8711C40.5348 42.1055 41.2497 41.5234 42.1794 41.125C43.1169 40.7266 44.2458 40.5273 45.5661 40.5273C47.7223 40.5273 49.3434 41 50.4294 41.9453C51.5231 42.8906 52.0973 44.1523 52.152 45.7305L48.6833 45.8828C48.5348 45 48.2145 44.3672 47.7223 43.9844C47.238 43.5938 46.5075 43.3984 45.5309 43.3984C44.5231 43.3984 43.7341 43.6055 43.1637 44.0195C42.7966 44.2852 42.613 44.6406 42.613 45.0859C42.613 45.4922 42.7848 45.8398 43.1286 46.1289C43.5661 46.4961 44.6286 46.8789 46.3161 47.2773C48.0036 47.6758 49.2497 48.0898 50.0544 48.5195C50.8669 48.9414 51.4997 49.5234 51.9528 50.2656C52.4137 51 52.6442 51.9102 52.6442 52.9961C52.6442 53.9805 52.3708 54.9023 51.8239 55.7617C51.277 56.6211 50.5036 57.2617 49.5036 57.6836C48.5036 58.0977 47.2575 58.3047 45.7653 58.3047C43.5934 58.3047 41.9255 57.8047 40.7614 56.8047C39.5973 55.7969 38.902 54.332 38.6755 52.4102ZM55.9339 58V40.8203H63.2347C65.0706 40.8203 66.4027 40.9766 67.2308 41.2891C68.0667 41.5938 68.7347 42.1406 69.2347 42.9297C69.7347 43.7188 69.9847 44.6211 69.9847 45.6367C69.9847 46.9258 69.6058 47.9922 68.848 48.8359C68.0902 49.6719 66.9573 50.1992 65.4495 50.418C66.1995 50.8555 66.8167 51.3359 67.3011 51.8594C67.7933 52.3828 68.4534 53.3125 69.2816 54.6484L71.3792 58H67.2308L64.723 54.2617C63.8323 52.9258 63.223 52.0859 62.8948 51.7422C62.5667 51.3906 62.2191 51.1523 61.8519 51.0273C61.4847 50.8945 60.9027 50.8281 60.1058 50.8281H59.4027V58H55.9339ZM59.4027 48.0859H61.9691C63.6331 48.0859 64.6722 48.0156 65.0863 47.875C65.5003 47.7344 65.8245 47.4922 66.0589 47.1484C66.2933 46.8047 66.4105 46.375 66.4105 45.8594C66.4105 45.2812 66.2542 44.8164 65.9417 44.4648C65.637 44.1055 65.2034 43.8789 64.6409 43.7852C64.3597 43.7461 63.5159 43.7266 62.1097 43.7266H59.4027V48.0859ZM73.5205 58V40.8203H76.9892V58H73.5205Z" fill="#F8F8F8"/>
</svg>
