<svg width="100" height="100" viewBox="0 0 100 100" fill="none" xmlns="http://www.w3.org/2000/svg">
<rect width="100" height="100" fill="#595C62"/>
<path d="M22.1084 58L27.9795 49.0352L22.6592 40.8203H26.7139L30.1592 46.3398L33.5342 40.8203H37.5537L32.21 49.1641L38.0811 58H33.8975L30.0889 52.0586L26.2686 58H22.1084ZM39.3434 52.4102L42.7184 52.082C42.9216 53.2148 43.3317 54.0469 43.9489 54.5781C44.5739 55.1094 45.4137 55.375 46.4684 55.375C47.5856 55.375 48.4255 55.1406 48.988 54.6719C49.5583 54.1953 49.8434 53.6406 49.8434 53.0078C49.8434 52.6016 49.7223 52.2578 49.4802 51.9766C49.2458 51.6875 48.8317 51.4375 48.238 51.2266C47.8317 51.0859 46.9059 50.8359 45.4606 50.4766C43.6012 50.0156 42.2966 49.4492 41.5466 48.7773C40.4919 47.832 39.9645 46.6797 39.9645 45.3203C39.9645 44.4453 40.2106 43.6289 40.7028 42.8711C41.2028 42.1055 41.9177 41.5234 42.8473 41.125C43.7848 40.7266 44.9137 40.5273 46.2341 40.5273C48.3903 40.5273 50.0114 41 51.0973 41.9453C52.1911 42.8906 52.7653 44.1523 52.82 45.7305L49.3512 45.8828C49.2028 45 48.8825 44.3672 48.3903 43.9844C47.9059 43.5938 47.1755 43.3984 46.1989 43.3984C45.1911 43.3984 44.402 43.6055 43.8317 44.0195C43.4645 44.2852 43.2809 44.6406 43.2809 45.0859C43.2809 45.4922 43.4528 45.8398 43.7966 46.1289C44.2341 46.4961 45.2966 46.8789 46.9841 47.2773C48.6716 47.6758 49.9177 48.0898 50.7223 48.5195C51.5348 48.9414 52.1677 49.5234 52.6208 50.2656C53.0817 51 53.3122 51.9102 53.3122 52.9961C53.3122 53.9805 53.0387 54.9023 52.4919 55.7617C51.945 56.6211 51.1716 57.2617 50.1716 57.6836C49.1716 58.0977 47.9255 58.3047 46.4333 58.3047C44.2614 58.3047 42.5934 57.8047 41.4294 56.8047C40.2653 55.7969 39.57 54.332 39.3434 52.4102ZM55.7113 52.4102L59.0863 52.082C59.2894 53.2148 59.6995 54.0469 60.3167 54.5781C60.9417 55.1094 61.7816 55.375 62.8363 55.375C63.9534 55.375 64.7933 55.1406 65.3558 54.6719C65.9261 54.1953 66.2113 53.6406 66.2113 53.0078C66.2113 52.6016 66.0902 52.2578 65.848 51.9766C65.6136 51.6875 65.1995 51.4375 64.6058 51.2266C64.1995 51.0859 63.2738 50.8359 61.8284 50.4766C59.9691 50.0156 58.6644 49.4492 57.9144 48.7773C56.8597 47.832 56.3323 46.6797 56.3323 45.3203C56.3323 44.4453 56.5784 43.6289 57.0706 42.8711C57.5706 42.1055 58.2855 41.5234 59.2152 41.125C60.1527 40.7266 61.2816 40.5273 62.6019 40.5273C64.7581 40.5273 66.3792 41 67.4652 41.9453C68.5589 42.8906 69.1331 44.1523 69.1878 45.7305L65.7191 45.8828C65.5706 45 65.2503 44.3672 64.7581 43.9844C64.2738 43.5938 63.5433 43.3984 62.5667 43.3984C61.5589 43.3984 60.7698 43.6055 60.1995 44.0195C59.8323 44.2852 59.6488 44.6406 59.6488 45.0859C59.6488 45.4922 59.8206 45.8398 60.1644 46.1289C60.6019 46.4961 61.6644 46.8789 63.3519 47.2773C65.0394 47.6758 66.2855 48.0898 67.0902 48.5195C67.9027 48.9414 68.5355 49.5234 68.9886 50.2656C69.4495 51 69.68 51.9102 69.68 52.9961C69.68 53.9805 69.4066 54.9023 68.8597 55.7617C68.3128 56.6211 67.5394 57.2617 66.5394 57.6836C65.5394 58.0977 64.2933 58.3047 62.8011 58.3047C60.6292 58.3047 58.9613 57.8047 57.7972 56.8047C56.6331 55.7969 55.9378 54.332 55.7113 52.4102ZM72.8525 58V40.8203H76.3213V58H72.8525Z" fill="#F8F8F8"/>
</svg>
