<svg width="100" height="100" viewBox="0 0 100 100" fill="none" xmlns="http://www.w3.org/2000/svg">
<rect width="100" height="100" fill="#595C62"/>
<path d="M17.2764 58L23.1475 49.0352L17.8272 40.8203H21.8819L25.3272 46.3398L28.7022 40.8203H32.7217L27.378 49.1641L33.2491 58H29.0655L25.2569 52.0586L21.4366 58H17.2764ZM34.5114 52.4102L37.8864 52.082C38.0895 53.2148 38.4997 54.0469 39.1169 54.5781C39.7419 55.1094 40.5817 55.375 41.6364 55.375C42.7536 55.375 43.5934 55.1406 44.1559 54.6719C44.7262 54.1953 45.0114 53.6406 45.0114 53.0078C45.0114 52.6016 44.8903 52.2578 44.6481 51.9766C44.4137 51.6875 43.9997 51.4375 43.4059 51.2266C42.9997 51.0859 42.0739 50.8359 40.6286 50.4766C38.7692 50.0156 37.4645 49.4492 36.7145 48.7773C35.6598 47.832 35.1325 46.6797 35.1325 45.3203C35.1325 44.4453 35.3786 43.6289 35.8708 42.8711C36.3708 42.1055 37.0856 41.5234 38.0153 41.125C38.9528 40.7266 40.0817 40.5273 41.402 40.5273C43.5583 40.5273 45.1794 41 46.2653 41.9453C47.3591 42.8906 47.9333 44.1523 47.988 45.7305L44.5192 45.8828C44.3708 45 44.0505 44.3672 43.5583 43.9844C43.0739 43.5938 42.3434 43.3984 41.3669 43.3984C40.3591 43.3984 39.57 43.6055 38.9997 44.0195C38.6325 44.2852 38.4489 44.6406 38.4489 45.0859C38.4489 45.4922 38.6208 45.8398 38.9645 46.1289C39.402 46.4961 40.4645 46.8789 42.152 47.2773C43.8395 47.6758 45.0856 48.0898 45.8903 48.5195C46.7028 48.9414 47.3356 49.5234 47.7887 50.2656C48.2497 51 48.4802 51.9102 48.4802 52.9961C48.4802 53.9805 48.2067 54.9023 47.6598 55.7617C47.113 56.6211 46.3395 57.2617 45.3395 57.6836C44.3395 58.0977 43.0934 58.3047 41.6012 58.3047C39.4294 58.3047 37.7614 57.8047 36.5973 56.8047C35.4333 55.7969 34.738 54.332 34.5114 52.4102ZM50.8792 52.4102L54.2542 52.082C54.4573 53.2148 54.8675 54.0469 55.4847 54.5781C56.1097 55.1094 56.9495 55.375 58.0042 55.375C59.1214 55.375 59.9613 55.1406 60.5238 54.6719C61.0941 54.1953 61.3792 53.6406 61.3792 53.0078C61.3792 52.6016 61.2581 52.2578 61.0159 51.9766C60.7816 51.6875 60.3675 51.4375 59.7738 51.2266C59.3675 51.0859 58.4417 50.8359 56.9964 50.4766C55.137 50.0156 53.8323 49.4492 53.0823 48.7773C52.0277 47.832 51.5003 46.6797 51.5003 45.3203C51.5003 44.4453 51.7464 43.6289 52.2386 42.8711C52.7386 42.1055 53.4534 41.5234 54.3831 41.125C55.3206 40.7266 56.4495 40.5273 57.7698 40.5273C59.9261 40.5273 61.5472 41 62.6331 41.9453C63.7269 42.8906 64.3011 44.1523 64.3558 45.7305L60.887 45.8828C60.7386 45 60.4183 44.3672 59.9261 43.9844C59.4417 43.5938 58.7113 43.3984 57.7347 43.3984C56.7269 43.3984 55.9378 43.6055 55.3675 44.0195C55.0003 44.2852 54.8167 44.6406 54.8167 45.0859C54.8167 45.4922 54.9886 45.8398 55.3323 46.1289C55.7698 46.4961 56.8323 46.8789 58.5198 47.2773C60.2073 47.6758 61.4534 48.0898 62.2581 48.5195C63.0706 48.9414 63.7034 49.5234 64.1566 50.2656C64.6175 51 64.848 51.9102 64.848 52.9961C64.848 53.9805 64.5745 54.9023 64.0277 55.7617C63.4808 56.6211 62.7073 57.2617 61.7073 57.6836C60.7073 58.0977 59.4613 58.3047 57.9691 58.3047C55.7972 58.3047 54.1292 57.8047 52.9652 56.8047C51.8011 55.7969 51.1058 54.332 50.8792 52.4102ZM68.1728 58V40.8203H71.6416V48.4492L78.6494 40.8203H83.3134L76.8447 47.5117L83.665 58H79.1767L74.4541 49.9375L71.6416 52.8086V58H68.1728Z" fill="#F8F8F8"/>
</svg>
