<svg width="100" height="100" viewBox="0 0 100 100" fill="none" xmlns="http://www.w3.org/2000/svg">
<rect width="100" height="100" fill="#004B5B"/>
<path d="M92 50C92 61.1391 87.575 71.822 79.6985 79.6985C71.822 87.575 61.1391 92 50 92C38.8609 92 28.178 87.575 20.3015 79.6985C12.425 71.822 8 61.1391 8 50C8 38.8609 12.425 28.178 20.3015 20.3015C28.178 12.425 38.8609 8 50 8C61.1391 8 71.822 12.425 79.6985 20.3015C87.575 28.178 92 38.8609 92 50Z" fill="#FFFF0A"/>
<path d="M89.5307 49.9999C89.5307 55.1911 88.5082 60.3315 86.5216 65.1275C84.535 69.9235 81.6233 74.2813 77.9525 77.952C74.2818 81.6228 69.924 84.5345 65.128 86.5211C60.332 88.5077 55.1916 89.5302 50.0004 89.5302C39.5164 89.5302 29.4617 85.3654 22.0483 77.952C14.635 70.5387 10.4702 60.484 10.4702 49.9999C10.4702 39.5159 14.635 29.4612 22.0483 22.0479C29.4617 14.6345 39.5164 10.4697 50.0004 10.4697C55.1916 10.4697 60.332 11.4922 65.128 13.4788C69.924 15.4654 74.2818 18.3771 77.9525 22.0479C81.6233 25.7186 84.535 30.0764 86.5216 34.8724C88.5082 39.6684 89.5307 44.8088 89.5307 49.9999Z" fill="#004B5B"/>
<path d="M50.044 20.372L72.2351 32.7001C72.2456 32.706 72.2575 32.7092 72.2696 32.7093L79.5729 32.707C79.5918 32.707 79.61 32.7145 79.6234 32.7279C79.6368 32.7413 79.6444 32.7595 79.6444 32.7785L79.6421 35.1122C79.6421 35.1312 79.6345 35.1493 79.6211 35.1628C79.6077 35.1762 79.5896 35.1837 79.5706 35.1837H20.4274C20.4085 35.1837 20.3903 35.1762 20.3769 35.1628C20.3635 35.1493 20.356 35.1312 20.356 35.1122L20.3583 32.7785C20.3583 32.7595 20.3658 32.7413 20.3792 32.7279C20.3926 32.7145 20.4108 32.707 20.4298 32.707L27.7514 32.7093C27.7636 32.7092 27.7755 32.706 27.786 32.7001L49.9748 20.372C49.9854 20.3661 49.9973 20.363 50.0094 20.363C50.0215 20.363 50.0334 20.3661 50.044 20.372Z" fill="#FFFF0A"/>
<path d="M72.3528 57.4163H79.5131C79.6007 57.4163 79.6445 57.4609 79.6445 57.55V72.0943C79.6445 72.1757 79.6045 72.2165 79.5246 72.2165C68.1696 72.3226 60.2507 72.3487 55.7677 72.2949C44.3113 72.1565 35.8297 72.3572 20.4737 72.2142C20.3968 72.2142 20.3584 72.175 20.3584 72.0966V57.55C20.3584 57.4624 20.4014 57.4186 20.4875 57.4186L27.6478 57.414C27.7201 57.414 27.7562 57.3786 27.7562 57.3079L27.7585 52.6013C27.7585 52.5198 27.7178 52.479 27.6363 52.479H20.476C20.3976 52.479 20.3584 52.4391 20.3584 52.3591V37.7457C20.3584 37.6765 20.3922 37.642 20.4599 37.642L79.5546 37.6396C79.6161 37.6396 79.6468 37.6696 79.6468 37.7296L79.6422 52.403C79.6422 52.4521 79.6176 52.4767 79.5684 52.4767L72.3666 52.479C72.2867 52.479 72.2467 52.519 72.2467 52.599L72.2444 57.3079C72.2444 57.3367 72.2558 57.3642 72.2762 57.3845C72.2965 57.4049 72.3241 57.4163 72.3528 57.4163Z" fill="#FFFF0A"/>
<path d="M27.6799 40.1255H22.9018C22.8598 40.1255 22.8257 40.1596 22.8257 40.2016V49.9239C22.8257 49.9659 22.8598 50 22.9018 50H27.6799C27.7219 50 27.756 49.9659 27.756 49.9239V40.2016C27.756 40.1596 27.7219 40.1255 27.6799 40.1255Z" fill="#004B5B"/>
<path d="M36.9315 40.1279H62.6854C62.7 40.1277 62.7143 40.1316 62.7266 40.1393C62.739 40.1469 62.7489 40.1579 62.7552 40.171C62.7615 40.1841 62.764 40.1988 62.7622 40.2132C62.7605 40.2276 62.7546 40.2413 62.7454 40.2525L54.9671 49.9748C54.9598 49.9836 54.9506 49.9906 54.9403 49.9954C54.9299 50.0002 54.9186 50.0026 54.9071 50.0024L45.0972 50.0047C45.0862 50.0046 45.0753 50.002 45.0653 49.9972C45.0554 49.9925 45.0466 49.9856 45.0396 49.9771L36.8739 40.2525C36.8647 40.2414 36.8589 40.228 36.8571 40.2138C36.8552 40.1995 36.8575 40.1851 36.8635 40.1721C36.8695 40.159 36.8791 40.148 36.8911 40.1402C36.9032 40.1324 36.9172 40.1281 36.9315 40.1279Z" fill="#004B5B"/>
<path d="M77.1104 40.1255H72.3092C72.2735 40.1255 72.2446 40.1544 72.2446 40.1901V49.9354C72.2446 49.9711 72.2735 50 72.3092 50H77.1104C77.146 50 77.175 49.9711 77.175 49.9354V40.1901C77.175 40.1544 77.146 40.1255 77.1104 40.1255Z" fill="#004B5B"/>
<path d="M54.8704 52.479H45.1297C45.0864 52.479 45.0513 52.5141 45.0513 52.5574V57.3402C45.0513 57.3835 45.0864 57.4186 45.1297 57.4186H54.8704C54.9137 57.4186 54.9488 57.3835 54.9488 57.3402V52.5574C54.9488 52.5141 54.9137 52.479 54.8704 52.479Z" fill="#004B5B"/>
<path d="M27.6776 59.8838H22.9041C22.8608 59.8838 22.8257 59.9189 22.8257 59.9622V69.6937C22.8257 69.737 22.8608 69.7721 22.9041 69.7721H27.6776C27.7209 69.7721 27.756 69.737 27.756 69.6937V59.9622C27.756 59.9189 27.7209 59.8838 27.6776 59.8838Z" fill="#004B5B"/>
<path d="M54.8543 59.8838H45.1458C45.0936 59.8838 45.0513 59.9261 45.0513 59.9783V69.6776C45.0513 69.7298 45.0936 69.7721 45.1458 69.7721H54.8543C54.9065 69.7721 54.9488 69.7298 54.9488 69.6776V59.9783C54.9488 59.9261 54.9065 59.8838 54.8543 59.8838Z" fill="#004B5B"/>
<path d="M77.0989 59.8838H72.3207C72.2787 59.8838 72.2446 59.9179 72.2446 59.9599V69.696C72.2446 69.738 72.2787 69.7721 72.3207 69.7721H77.0989C77.1409 69.7721 77.175 69.738 77.175 69.696V59.9599C77.175 59.9179 77.1409 59.8838 77.0989 59.8838Z" fill="#004B5B"/>
</svg>
