<svg width="100" height="100" viewBox="0 0 100 100" fill="none" xmlns="http://www.w3.org/2000/svg">
<rect width="100" height="100" fill="#BDA93F"/>
<path fill-rule="evenodd" clip-rule="evenodd" d="M60.6152 39.4386C62.4638 37.6152 64.6003 36.4157 67.0244 35.8401C68.0883 35.5863 70.0145 35.4594 72.8029 35.4594C75.136 35.4574 77.4594 35.4506 79.7732 35.439C79.8302 35.439 79.8849 35.4614 79.9253 35.5012C79.9656 35.541 79.9883 35.5949 79.9883 35.6512L79.9825 41.2873C79.9821 41.3182 79.9757 41.3488 79.9636 41.3772C79.9516 41.4056 79.9341 41.4313 79.9123 41.4529C79.8904 41.4745 79.8646 41.4915 79.8362 41.503C79.8079 41.5145 79.7775 41.5202 79.747 41.5198C77.474 41.4947 75.1864 41.4908 72.8843 41.5082C70.0726 41.5276 68.1493 41.6923 67.1145 42.0024C63.6352 43.043 61.2343 46.1095 61.2314 49.9115C61.2256 60.2458 61.2304 70.5714 61.2459 80.8883C61.2479 82.049 61.0444 83.1788 60.6355 84.2775C59.6938 86.7976 58.4439 88.9835 55.8773 90.0037C55.232 90.2614 54.3891 90.3942 53.3485 90.4019C51.5134 90.4155 49.6812 90.4116 47.8519 90.3903L47.5105 90.3866H47.5104C45.1915 90.3618 43.7013 90.3459 41.9572 89.4253C38.8703 87.7917 37.7715 84.3879 37.7715 81.0772C37.7735 70.6421 37.7735 60.2071 37.7715 49.772C37.7715 48.9 37.6592 48.151 37.4344 47.5251C36.4868 44.8771 34.5044 42.4006 31.7402 41.6216C31.0387 41.4239 29.7239 41.328 27.7958 41.3338C25.2631 41.3416 22.7304 41.329 20.1977 41.296C20.1556 41.2953 20.1153 41.2782 20.0855 41.2484C20.0557 41.2186 20.0386 41.1783 20.0378 41.1362L20.0001 35.6279C19.9981 35.5194 20.0514 35.4652 20.1599 35.4652C24.5297 35.4284 28.2667 35.4361 31.371 35.4884C34.6846 35.5427 37.32 36.8691 39.2772 39.4677C39.3237 39.5297 39.3663 39.5278 39.4051 39.4619L40.7771 37.1482C40.8245 37.0686 40.8517 36.9785 40.8563 36.8858C40.8609 36.7931 40.8426 36.7005 40.8032 36.6162C40.0039 34.9332 38.7366 33.9828 36.9141 33.3316C34.9937 32.6437 33.0995 32.2794 31.2315 32.2387C27.6175 32.1612 23.9677 32.1544 20.282 32.2184C20.1192 32.2223 20.0378 32.1418 20.0378 31.9771V26.6113C20.0378 26.4931 20.0979 26.4331 20.2181 26.4311C23.3534 26.3846 26.4829 26.3778 29.6067 26.4108C31.4941 26.4302 33.0501 26.5794 34.2748 26.8584C37.6524 27.6238 40.7354 29.0617 43.5239 31.172C43.7177 31.3192 43.8707 31.2853 43.9831 31.0702C44.4792 30.1226 45.0867 29.2468 45.8056 28.4426C45.8364 28.408 45.8596 28.3674 45.8738 28.3234C45.8879 28.2793 45.8926 28.2328 45.8877 28.1868C45.8828 28.1408 45.8683 28.0963 45.8451 28.0563C45.822 28.0162 45.7907 27.9815 45.7533 27.9542C42.9299 25.9021 39.8973 24.4119 36.6554 23.4837C36.466 23.4298 36.2836 23.3773 36.1071 23.3264L36.1068 23.3263C34.6554 22.9081 33.602 22.6046 32.3244 22.6175C28.2996 22.6563 24.2884 22.665 20.2907 22.6437C20.1221 22.6437 20.0378 22.5584 20.0378 22.3879L20.0349 17.3157C20.0349 17.213 20.0853 17.1597 20.1861 17.1558C25.7185 16.931 30.2423 16.9495 33.7574 17.2111C39.9816 17.6703 45.3415 20.0073 49.8372 24.222C49.9186 24.2995 50 24.2986 50.0814 24.2191C53.7729 20.5625 58.6532 18.4522 63.6876 17.4523C64.9588 17.2004 66.54 17.0696 68.4313 17.0599C72.2196 17.0386 75.9974 17.0367 79.7645 17.0541C79.8264 17.0549 79.8855 17.08 79.9291 17.1241C79.9726 17.1681 79.997 17.2276 79.997 17.2895L79.9534 22.3705C79.953 22.3922 79.9483 22.4137 79.9397 22.4336C79.931 22.4536 79.9185 22.4717 79.9028 22.4868C79.8872 22.5019 79.8687 22.5138 79.8484 22.5217C79.8282 22.5297 79.8066 22.5336 79.7848 22.5332C73.735 22.3801 69.6153 22.4005 67.4256 22.5943C62.5801 23.0187 57.4091 24.5766 54.2176 28.2362C54.1516 28.3123 54.1122 28.4078 54.1054 28.508C54.0985 28.6082 54.1247 28.7078 54.1798 28.7914L56.0866 31.6835C56.0962 31.6976 56.1087 31.7093 56.1233 31.718C56.1379 31.7266 56.1543 31.732 56.1712 31.7336C56.1881 31.7353 56.2051 31.7332 56.2211 31.7276C56.2372 31.7219 56.2517 31.7129 56.2639 31.701C58.8295 29.1838 61.7594 27.5366 65.0537 26.7596C66.0788 26.5193 67.4478 26.4011 69.1608 26.405C72.6799 26.4127 76.1757 26.4069 79.6482 26.3875C79.6945 26.3871 79.7404 26.396 79.7832 26.4135C79.8261 26.431 79.865 26.4569 79.8977 26.4897C79.9305 26.5224 79.9564 26.5613 79.9739 26.6042C79.9914 26.647 80.0003 26.6929 79.9999 26.7392L79.9592 32.0353C79.9592 32.1341 79.9098 32.1835 79.811 32.1835C76.5671 32.1874 73.331 32.1835 70.1026 32.1719C67.4033 32.1602 65.5817 32.2969 64.638 32.5817C62.5278 33.2212 60.8264 34.5689 59.5339 36.6249C59.5014 36.6773 59.4816 36.7362 59.476 36.7968C59.4705 36.8574 59.4794 36.918 59.5019 36.9738L60.4611 39.4067C60.496 39.4958 60.5474 39.5065 60.6152 39.4386ZM47.3839 36.0929L49.7499 32.9827C49.7696 32.9568 49.7947 32.9356 49.8235 32.9205C49.8523 32.9054 49.8841 32.8969 49.9166 32.8955C49.9491 32.8941 49.9814 32.8999 50.0114 32.9125C50.0414 32.925 50.0682 32.9441 50.09 32.9682L52.4851 35.6278C52.5193 35.6656 52.5395 35.7139 52.5421 35.7648C52.5448 35.8156 52.5298 35.8658 52.4997 35.9069L50.2092 38.988C50.19 39.0138 50.1654 39.0351 50.1371 39.0504C50.1088 39.0657 50.0774 39.0746 50.0453 39.0766C50.0132 39.0785 49.9811 39.0734 49.9511 39.0616C49.9212 39.0498 49.8942 39.0317 49.872 39.0084L47.3984 36.3778C47.3627 36.3397 47.3417 36.2902 47.339 36.238C47.3364 36.1859 47.3523 36.1345 47.3839 36.0929ZM52.468 79.8157C51.0631 80.7981 49.4741 80.8882 47.701 80.086C47.2321 79.8748 46.9976 79.5618 46.9976 79.1471C47.0092 69.3845 47.0121 59.6228 47.0063 49.862C47.0034 47.3012 46.6488 44.7026 44.8321 42.7464C44.8031 42.7146 44.7663 42.6909 44.7253 42.6777C44.6843 42.6644 44.6405 42.6621 44.5981 42.6708C44.5558 42.6796 44.5162 42.6992 44.4834 42.7277C44.4505 42.7562 44.4255 42.7927 44.4106 42.8336C43.8332 44.4633 43.5435 46.1763 43.5415 47.9727C43.526 58.3864 43.5144 68.8012 43.5066 79.2169C43.5066 79.2363 43.4737 79.7527 43.4078 80.7662C43.3012 82.4055 43.9359 83.5711 45.3117 84.2629C45.8427 84.5284 46.5751 84.6679 47.5092 84.6815C47.7902 84.6854 48.1265 84.697 48.5011 84.7099C50.9089 84.793 54.8992 84.9307 55.9531 83.4316C56.2883 82.9568 56.4588 82.4491 56.4647 81.9085C56.5577 74.8316 56.5577 64.3132 56.4647 50.3533C56.4443 47.3536 56.0664 45.0834 54.7817 42.6505C54.7616 42.6118 54.7308 42.5796 54.693 42.5577C54.6552 42.5358 54.6119 42.5252 54.5683 42.527C54.5247 42.5288 54.4825 42.543 54.4467 42.568C54.4108 42.593 54.3829 42.6276 54.366 42.6679C53.1133 45.6299 52.8691 48.0715 52.8575 51.6351C52.8245 60.5413 52.8206 69.4484 52.8458 78.3565C52.8487 78.8506 52.8487 79.5511 52.468 79.8157Z" fill="white"/>
</svg>
