<svg width="100" height="100" viewBox="0 0 100 100" fill="none" xmlns="http://www.w3.org/2000/svg">
<g clip-path="url(#clip0_139_2414)">
<rect width="100" height="100" fill="#26A298"/>
<g clip-path="url(#clip1_139_2414)">
<path d="M48.8912 -10H54.38C54.668 -9.9056 54.8664 -9.8544 54.9752 -9.8464C68.6168 -8.8792 81.5216 -3.6448 91.5896 5.5472C102.065 15.1104 108.44 26.964 110.715 41.108C111.061 43.256 111.154 45.6368 111.33 47.9168C111.419 49.096 111.429 50.2464 111.358 51.368C111.285 52.5392 111.207 53.7096 111.126 54.8792C110.226 67.7168 104.746 80.2976 96.14 89.804C85.1752 101.914 71.3552 108.59 54.68 109.83C54.192 109.866 53.7024 109.923 53.2112 110H50.06C49.5976 109.917 48.676 109.821 47.2952 109.712C32.884 108.574 20.5016 103.085 10.148 93.2432C-0.733601 82.8992 -7.48 68.5496 -8.2864 53.4224C-8.3024 53.1424 -8.3736 52.732 -8.5 52.1912V47.78C-8.388 47.4216 -8.3144 46.9408 -8.2792 46.3376C-7.3264 29.6312 0.8648 13.7744 14.0768 3.2552C23.9264 -4.5832 35.2408 -8.9616 48.02 -9.88C48.3096 -9.9008 48.6 -9.9408 48.8912 -10ZM69.0848 62.7944C69.0688 62.8936 69.0768 62.972 69.1088 63.0296C69.1376 63.0824 69.1624 62.9552 69.26 62.96C70.148 63.0048 71.0816 63.1776 71.984 63.1664C72.003 63.1661 72.0218 63.162 72.0392 63.1544C72.0565 63.1468 72.0722 63.1359 72.0852 63.1222C72.0982 63.1085 72.1082 63.0925 72.1148 63.0749C72.1213 63.0573 72.1242 63.0387 72.1232 63.02L72.0488 61.6952L72.0728 57.1736C72.0731 57.1528 72.079 57.1325 72.09 57.1148C72.1009 57.097 72.1164 57.0826 72.1348 57.073C72.1533 57.0634 72.174 57.059 72.1948 57.0602C72.2156 57.0615 72.2356 57.0683 72.2528 57.08C74.2048 58.448 76.2504 58.9088 78.3896 58.4624C85.7792 56.9144 87.152 46.988 80.2712 43.6736C77.6584 42.416 74.9784 42.6104 72.2312 44.2568C72.132 44.316 72.0824 44.288 72.0824 44.1728V42.9848C72.084 42.9048 72.0448 42.8648 71.9648 42.8648L69.14 42.8696C69.1075 42.8696 69.0764 42.8822 69.0535 42.9047C69.0305 42.9272 69.0176 42.9578 69.0176 42.9896C68.968 49.564 68.9568 56.1208 68.984 62.66C68.9856 62.7368 69.0192 62.7816 69.0848 62.7944Z" fill="#26A298"/>
<path d="M27.6944 55.1408C29.8544 56.048 32.8904 55.4576 33.7304 58.4456C33.7576 58.54 33.7216 58.588 33.6224 58.5896C31.5824 58.6232 29.2424 58.7984 27.3896 58.2536C24.3304 57.3512 22.4328 55.412 21.6968 52.436C21.4728 51.5368 21.3672 49.9464 21.38 47.6648C21.3992 43.94 21.2936 40.1912 21.404 36.4736C21.4424 35.2 21.1592 34.0512 20.5544 33.0272C20.4392 32.832 20.492 32.7592 20.7128 32.8088C23.8784 33.5336 24.3656 35.4512 24.3848 38.492C24.4056 41.8264 24.408 45.1632 24.392 48.5024C24.3776 51.4856 24.6872 53.876 27.6944 55.1408Z" fill="#FEFEFE"/>
<path d="M7.84172 51.4448C8.65292 55.7072 13.6617 57.116 16.4481 53.7008C16.4713 53.6717 16.5008 53.6481 16.5344 53.6319C16.5681 53.6157 16.605 53.6073 16.6425 53.6072L19.9401 53.5976C20.0553 53.5976 20.0905 53.6512 20.0457 53.7584C18.7473 56.8928 15.9801 58.5008 12.6393 58.6016C7.27292 58.7672 3.40172 53.3864 5.15852 48.1832C5.71532 46.532 6.69772 45.2336 8.10572 44.288C13.6713 40.556 20.7825 44.5376 20.4801 51.2096C20.4769 51.2864 20.4361 51.3248 20.3577 51.3248L7.94012 51.3224C7.92529 51.3224 7.91067 51.3258 7.89729 51.3323C7.88391 51.3387 7.8721 51.3481 7.8627 51.3598C7.85331 51.3715 7.84656 51.3852 7.84293 51.3999C7.8393 51.4146 7.83889 51.4299 7.84172 51.4448Z" fill="#FEFEFE"/>
<path d="M38.1678 46.1336C34.4166 47.2736 33.6462 52.3856 36.8454 54.6848C38.5758 55.9256 40.8318 55.568 42.855 55.568C42.9446 55.568 42.9894 55.6128 42.9894 55.7024L42.987 58.46C42.987 58.4959 42.9729 58.5303 42.9477 58.5559C42.9226 58.5815 42.8884 58.5962 42.8526 58.5968C41.7694 58.6128 40.6918 58.6184 39.6198 58.6136C35.1918 58.5992 31.5702 54.9536 31.7454 50.4992C31.8798 47.0672 34.011 44.2568 37.2942 43.2296C38.9238 42.7184 41.0526 42.8528 42.8742 42.872C42.951 42.8736 42.9894 42.912 42.9894 42.9872L42.9822 45.7952C42.9822 45.8768 42.9414 45.9176 42.8598 45.9176C41.3574 45.9176 39.4398 45.7472 38.1678 46.1336Z" fill="#FEFEFE"/>
<path d="M58.9089 50.7584C58.9089 51.7928 58.7051 52.8171 58.3093 53.7727C57.9134 54.7284 57.3332 55.5967 56.6018 56.3281C55.8704 57.0596 55.0021 57.6398 54.0464 58.0356C53.0907 58.4315 52.0665 58.6352 51.0321 58.6352C49.9977 58.6352 48.9734 58.4315 48.0178 58.0356C47.0621 57.6398 46.1938 57.0596 45.4623 56.3281C44.7309 55.5967 44.1507 54.7284 43.7549 53.7727C43.359 52.8171 43.1553 51.7928 43.1553 50.7584C43.1553 48.6693 43.9851 46.6658 45.4623 45.1887C46.9395 43.7115 48.943 42.8816 51.0321 42.8816C53.1211 42.8816 55.1246 43.7115 56.6018 45.1887C58.079 46.6658 58.9089 48.6693 58.9089 50.7584Z" fill="#FEFEFE"/>
<path d="M62.9986 44.24C62.9979 44.262 63.0034 44.2838 63.0145 44.3029C63.0256 44.3219 63.0419 44.3375 63.0614 44.3477C63.0809 44.358 63.1029 44.3626 63.1249 44.3609C63.1469 44.3593 63.168 44.3515 63.1858 44.3384C64.5202 43.396 66.013 42.9088 67.6642 42.8768C67.7362 42.8768 67.7721 42.9128 67.7721 42.9848L67.7577 45.7976C67.7578 45.8277 67.746 45.8567 67.7249 45.8782C67.7038 45.8997 67.6751 45.9122 67.6449 45.9128C65.6817 45.9752 63.8889 47.276 63.2721 49.1048C63.1009 49.612 63.0178 50.5368 63.0226 51.8792C63.029 54.0808 63.0273 56.2808 63.0177 58.4792C63.0171 58.5112 63.0039 58.5418 62.9811 58.5642C62.9582 58.5866 62.9274 58.5992 62.8954 58.5992H60.037C59.957 58.5992 59.917 58.5592 59.917 58.4792L59.9146 42.9752C59.9146 42.9032 59.9513 42.8672 60.0249 42.8672L62.8858 42.8768C62.905 42.8771 62.924 42.8812 62.9416 42.8888C62.9592 42.8965 62.9752 42.9075 62.9886 42.9214C63.0019 42.9352 63.0125 42.9515 63.0195 42.9694C63.0266 42.9873 63.0301 43.0064 63.0298 43.0256L62.9986 44.24Z" fill="#FEFEFE"/>
<path d="M72.1345 63.2L69.0845 63.0344C69.0189 63.0216 68.9853 62.9768 68.9837 62.9C68.9565 56.3608 68.9677 49.564 69.0173 42.9896C69.0173 42.9578 69.0302 42.9273 69.0531 42.9048C69.0761 42.8823 69.1072 42.8696 69.1397 42.8696L71.9645 42.8648C72.0445 42.8648 72.0837 42.9048 72.0821 42.9848V44.1728C72.0821 44.288 72.1317 44.316 72.2309 44.2568C74.9781 42.6104 77.6581 42.416 80.2709 43.6736C87.1517 46.988 85.7789 56.9144 78.3893 58.4624C76.2501 58.9088 74.2045 58.448 72.2525 57.08C72.2353 57.0683 72.2152 57.0615 72.1945 57.0602C72.1737 57.059 72.153 57.0634 72.1345 57.073C72.1161 57.0826 72.1006 57.0971 72.0896 57.1148C72.0787 57.1325 72.0728 57.1528 72.0725 57.1736L72.1345 63.2Z" fill="#FEFEFE"/>
<path d="M89.78 45.9033C87.5144 45.8937 87.5336 49.1913 89.6576 49.2105C91.76 49.2273 93.6128 49.1121 95.012 50.9073C96.7856 53.1825 96.1376 57.0441 93.3512 58.2321C92.8136 58.4609 92.0168 58.5793 90.9608 58.5873C89.3304 58.6017 87.7 58.6065 86.0696 58.6017C85.9736 58.6017 85.9256 58.5529 85.9256 58.4553L85.9232 55.7073C85.9232 55.6209 85.9664 55.5777 86.0528 55.5777C87.6208 55.5745 89.1848 55.5745 90.7448 55.5777C92.1488 55.5801 93.0752 55.3425 92.9384 53.7177C92.78 51.8337 91.0592 52.2945 89.7968 52.2561C88.2488 52.2081 86.9984 51.7905 86.0552 50.5713C84.3248 48.3225 84.9104 44.5305 87.6272 43.2993C88.1776 43.0497 88.992 42.9145 90.0704 42.8937C91.728 42.8601 93.3864 42.8553 95.0456 42.8793C95.1128 42.8793 95.1464 42.9129 95.1464 42.9801L95.156 45.7617C95.156 45.8529 95.1104 45.8993 95.0192 45.9009C93.264 45.9105 91.5176 45.9113 89.78 45.9033Z" fill="#FEFEFE"/>
<path d="M51.027 55.5344C53.6793 55.5344 55.8294 53.3843 55.8294 50.732C55.8294 48.0797 53.6793 45.9296 51.027 45.9296C48.3747 45.9296 46.2246 48.0797 46.2246 50.732C46.2246 53.3843 48.3747 55.5344 51.027 55.5344Z" fill="#26A298"/>
<path d="M76.8756 55.5585C79.5292 55.5585 81.6804 53.4073 81.6804 50.7537C81.6804 48.1 79.5292 45.9489 76.8756 45.9489C74.222 45.9489 72.0708 48.1 72.0708 50.7537C72.0708 53.4073 74.222 55.5585 76.8756 55.5585Z" fill="#26A298"/>
<path d="M12.783 45.9849C14.7462 46.0809 16.2582 47.1393 17.0454 48.9225C17.0918 49.0265 17.0582 49.0785 16.9446 49.0785L8.41262 49.0953C8.14062 49.0953 8.07263 48.9785 8.20863 48.7449C9.33023 46.8105 10.855 45.8905 12.783 45.9849Z" fill="#26A298"/>
</g>
</g>
<defs>
<clipPath id="clip0_139_2414">
<rect width="100" height="100" fill="white"/>
</clipPath>
<clipPath id="clip1_139_2414">
<rect width="120" height="120" fill="white" transform="translate(-8.5 -10)"/>
</clipPath>
</defs>
</svg>
