<svg width="100" height="100" viewBox="0 0 100 100" fill="none" xmlns="http://www.w3.org/2000/svg">
<rect width="100" height="100" fill="#1FCCDC"/>
<path d="M89.7571 34.6073C89.0488 36.8307 88.6596 39.1007 88.5896 41.4173C88.5546 42.5923 88.6746 44.0632 88.9496 45.8298C89.263 47.8348 89.5271 49.2898 89.7421 50.1948C90.5746 53.7098 91.0021 55.8373 90.9371 58.8598C90.8746 61.6873 90.1896 64.2048 88.8271 66.6148C86.2021 71.2523 82.0746 74.7673 76.8696 76.1973C72.2071 77.4773 68.0721 75.5348 63.7696 74.1373C60.9897 73.2373 58.9047 72.9473 56.1847 73.3348C54.2447 73.6123 52.7722 74.5598 51.1272 75.5223C50.8447 75.6873 50.4347 75.6998 50.1672 75.5198C47.0038 73.3848 43.643 72.7407 40.0847 73.5873C39.6547 73.689 38.3138 74.134 36.0622 74.9223C32.1847 76.2798 28.8197 77.7248 24.6297 76.8023C19.7522 75.7298 16.0772 72.7198 13.2447 68.6923C9.78719 63.7773 9.53969 58.3423 10.8022 52.7573C11.2505 50.7807 11.623 48.7898 11.9197 46.7848C12.383 43.6548 12.2789 40.5615 11.6072 37.5048C11.2897 36.0573 10.5447 34.5348 10.0147 33.0498C9.99898 33.0061 9.9958 32.9587 10.0055 32.9128C10.0152 32.867 10.0374 32.8244 10.0697 32.7898L18.9822 23.3248C19.0411 23.2632 19.117 23.2211 19.1998 23.2041C19.2825 23.1871 19.368 23.1961 19.4447 23.2298C22.3097 24.4898 25.2538 25.4123 28.2772 25.9973C29.3847 26.2098 30.5297 26.2098 31.6822 26.2773C34.7605 26.4573 37.8013 26.2407 40.8047 25.6273C42.4822 25.2848 44.2472 24.5823 45.9447 23.9973C47.4047 23.4948 48.7447 22.7298 50.1397 22.0523C50.2134 22.0167 50.2945 21.9988 50.3765 22.0001C50.4586 22.0014 50.5393 22.0218 50.6122 22.0598C51.9355 22.7615 53.3105 23.3848 54.7372 23.9298C56.2597 24.5123 57.9972 24.8548 59.6497 25.2648C60.7397 25.5365 61.7738 25.7073 62.7522 25.7773C64.0555 25.8723 65.1772 25.9215 66.1171 25.9248C71.2138 25.9432 76.0896 24.8015 80.7446 22.4998C81.0846 22.3298 81.3946 22.4123 81.6721 22.6898C84.5088 25.5465 87.3371 28.4098 90.1571 31.2798C90.3738 31.4998 90.543 31.7465 90.6646 32.0198C90.6984 32.0968 90.702 32.1826 90.6746 32.2598C90.3846 33.0573 89.9896 33.8698 89.7571 34.6073Z" fill="#EAA575"/>
<path d="M49.2045 73.9923C45.7828 72.1307 42.2103 71.8382 38.487 73.1148C35.557 74.1198 32.217 75.5773 29.5245 75.9748C26.6928 76.3932 23.9912 76.0257 21.4195 74.8723C16.1995 72.5323 11.8145 66.8323 11.067 61.1323C10.947 60.224 10.9312 58.9165 11.0195 57.2098C11.0795 56.0632 11.2428 54.769 11.5095 53.3273C11.8562 51.449 12.202 49.5698 12.547 47.6898C13.4603 42.7332 12.9012 37.9648 10.8695 33.3848C10.8345 33.3048 10.8295 33.2232 10.8545 33.1398C10.992 32.6723 11.3445 32.4498 11.6095 32.1523C13.9628 29.5407 16.3628 26.9723 18.8095 24.4473C19.157 24.0873 19.2995 24.0198 19.7945 24.2348C22.9245 25.5982 25.9295 26.4948 28.8095 26.9248C32.1111 27.4165 35.6311 27.3407 39.3695 26.6973C43.2695 26.0257 46.7728 24.8207 49.8795 23.0823C49.9978 23.0157 50.117 22.9807 50.237 22.9773C50.4253 22.9723 50.5503 22.9857 50.612 23.0173C53.8086 24.719 57.1861 25.8632 60.7445 26.4498C61.6295 26.5973 62.972 26.6198 64.0845 26.7873C64.6295 26.869 65.0745 26.914 65.4195 26.9223C70.8428 27.0473 75.9494 25.9165 80.7394 23.5298C80.8475 23.476 80.97 23.4579 81.089 23.4781C81.2081 23.4983 81.3177 23.5558 81.4019 23.6423L89.4994 31.9698C89.5838 32.0564 89.6407 32.1659 89.6629 32.2847C89.6852 32.4035 89.6718 32.5262 89.6244 32.6373C87.7728 36.9673 87.2353 41.4857 88.0119 46.1923C88.4169 48.6498 89.6019 52.6073 89.9994 55.9398C90.1594 57.2748 90.2119 58.3665 90.1569 59.2148C89.7444 65.6498 85.2569 71.4723 79.5894 74.2348C77.0011 75.4965 74.3386 75.954 71.602 75.6073C70.6736 75.4907 69.1378 75.0715 66.9945 74.3498C65.1528 73.7315 63.632 73.239 62.432 72.8723C58.1686 71.5707 54.3028 72.2157 50.8345 74.8073C50.7622 74.861 50.6738 74.8883 50.5841 74.8846C50.4944 74.881 50.409 74.8466 50.342 74.7873C50.0053 74.4873 49.6261 74.2223 49.2045 73.9923Z" fill="white"/>
<path d="M50.002 32.5998C49.9104 32.5881 49.8262 32.6048 49.7495 32.6498C49.6795 32.6915 49.6037 32.7123 49.522 32.7123C43.4204 32.724 37.3187 32.7215 31.2171 32.7048C31.1987 32.7048 30.8454 32.6765 30.1571 32.6198C29.7721 32.5881 29.3996 32.6248 29.0396 32.7298" stroke="#58AEB8" stroke-width="0.5"/>
<path d="M28.8594 34.3448C28.6561 34.7398 28.5777 35.2098 28.6244 35.7548C28.7027 36.6448 28.7419 37.1082 28.7419 37.1448C28.7419 41.2182 28.7411 45.3423 28.7394 49.5173" stroke="#58AEB8" stroke-width="0.5"/>
<path d="M71.5493 48.8273L66.1493 48.5998C66.1235 48.5984 66.0987 48.5895 66.078 48.5742C66.0572 48.559 66.0413 48.538 66.0323 48.5138C66.0233 48.4897 66.0215 48.4634 66.0272 48.4383C66.0329 48.4131 66.0458 48.3902 66.0643 48.3722L71.5893 43.1198" stroke="#614889" stroke-width="0.5"/>
<path d="M71.8945 42.1423L71.897 33.7723" stroke="#614889" stroke-width="0.5"/>
<path d="M71.2417 32.7123H50.7192" stroke="#614889" stroke-width="0.5"/>
<path d="M29.0195 56.0448L34.8945 50.8498C34.9147 50.8316 34.9288 50.8076 34.9351 50.7812C34.9415 50.7547 34.9396 50.727 34.9299 50.7016C34.9202 50.6762 34.903 50.6543 34.8806 50.6388C34.8583 50.6233 34.8317 50.615 34.8045 50.6148L29.297 50.5948" stroke="#614889" stroke-width="0.5"/>
<path d="M28.8194 57.3873L28.7944 65.8448" stroke="#614889" stroke-width="0.5"/>
<path d="M29.707 66.7249L50.1745 66.7349" stroke="#614889" stroke-width="0.5"/>
<path d="M50.9219 66.6223C50.9469 66.5456 51.0127 66.4756 51.1194 66.4123C51.1894 66.369 51.2777 66.3456 51.3844 66.3423C53.1569 66.2823 54.9769 66.1573 56.6994 66.1498C61.4594 66.1315 66.2202 66.119 70.9819 66.1123C71.0685 66.1123 71.1327 66.074 71.1744 65.9973L71.2419 65.8723" stroke="#58AEB8" stroke-width="0.5"/>
<path d="M71.9971 65.2174C72.1004 64.524 72.1404 63.8324 72.1171 63.1424C72.0771 61.889 72.0571 61.2549 72.0571 61.2399C72.0904 57.5099 72.0771 53.7757 72.0171 50.0374" stroke="#58AEB8" stroke-width="0.5"/>
<path d="M50.0021 32.5999C49.9105 32.5882 49.8263 32.6049 49.7496 32.6499C49.6796 32.6915 49.6038 32.7124 49.5221 32.7124C43.4205 32.724 37.3188 32.7215 31.2172 32.7049C31.1988 32.7049 30.8455 32.6765 30.1572 32.6199C29.7722 32.5882 29.3997 32.6249 29.0397 32.7299C29.053 32.6682 29.0088 32.6524 28.9072 32.6824C28.8338 32.704 28.7913 32.7532 28.7797 32.8299C28.688 33.3782 28.7147 33.8832 28.8597 34.3449C28.6563 34.7399 28.578 35.2099 28.6247 35.7549C28.703 36.6449 28.7422 37.1082 28.7422 37.1449C28.7422 41.2182 28.7413 45.3424 28.7397 49.5174C28.5697 49.6907 28.2588 49.7782 27.8072 49.7799C23.1622 49.7999 18.5163 49.7965 13.8697 49.7699C13.7897 49.7699 13.7222 49.7674 13.6672 49.7624C13.599 49.7571 13.5328 49.7371 13.4732 49.7036C13.4135 49.6701 13.3619 49.6241 13.3219 49.5686C13.2819 49.5132 13.2545 49.4496 13.2416 49.3825C13.2287 49.3154 13.2306 49.2462 13.2472 49.1799C14.5722 43.8832 14.203 38.7024 12.1397 33.6374C11.9672 33.2149 12.1797 32.7774 12.4997 32.4349C14.6713 30.1299 16.8363 27.8199 18.9947 25.5049C19.313 25.1615 19.7055 25.0999 20.1722 25.3199C29.4097 29.6674 39.9646 28.8924 48.9596 24.3449C49.263 24.1915 49.5663 24.169 49.8696 24.2774C49.9062 24.2907 49.9379 24.3151 49.9602 24.3473C49.9826 24.3795 49.9946 24.4179 49.9946 24.4574L50.0021 32.5999Z" fill="#1FCCDC"/>
<path d="M71.5497 48.8273L66.1497 48.5998C66.124 48.5984 66.0992 48.5895 66.0784 48.5743C66.0577 48.559 66.0418 48.538 66.0328 48.5139C66.0237 48.4897 66.022 48.4635 66.0276 48.4383C66.0333 48.4132 66.0462 48.3902 66.0647 48.3723L71.5897 43.1198C71.9764 42.8115 72.078 42.4856 71.8947 42.1423L71.8972 33.7723L71.9747 32.8523C71.983 32.7506 71.9364 32.7006 71.8347 32.7023L71.2422 32.7123H50.7197L50.7322 25.0598C50.7323 25.0145 50.7434 24.97 50.7647 24.93C50.7859 24.89 50.8166 24.8558 50.8541 24.8304C50.8915 24.805 50.9346 24.7892 50.9796 24.7843C51.0246 24.7794 51.0702 24.7856 51.1122 24.8023C54.8822 26.2973 58.8222 27.4573 62.9022 27.8673C69.0522 28.4848 74.8997 27.4898 80.4247 24.6898C80.5014 24.6498 80.5805 24.644 80.6622 24.6723C80.8455 24.7323 81.008 24.8331 81.1497 24.9748C83.468 27.3065 85.7689 29.6573 88.0522 32.0273C88.0973 32.0739 88.1284 32.1322 88.1421 32.1953C88.1558 32.2585 88.1515 32.3241 88.1297 32.3848C86.748 36.2031 86.2422 40.1423 86.6122 44.2023C86.7247 45.4573 87.1472 46.9998 87.3147 48.3823C87.3204 48.4291 87.3161 48.4766 87.3022 48.5217C87.2884 48.5667 87.2653 48.6083 87.2343 48.6437C87.2034 48.6791 87.1654 48.7075 87.1228 48.7271C87.0803 48.7467 87.034 48.757 86.9872 48.7573L71.5497 48.8273Z" fill="#30007F"/>
<path d="M50.002 32.5998C50.0654 32.6831 50.3045 32.7206 50.7195 32.7123H71.242C70.7354 33.419 70.2129 34.0523 69.6745 34.6123C69.4595 34.8373 68.9295 35.5698 68.4945 35.5698C56.3445 35.5581 44.1829 35.5556 32.0096 35.5623C31.8079 35.5623 31.6371 35.4881 31.4971 35.3398L29.0396 32.7298C29.3996 32.6248 29.7721 32.5881 30.1571 32.6198C30.8454 32.6765 31.1987 32.7048 31.2171 32.7048C37.3187 32.7215 43.4204 32.724 49.522 32.7123C49.6037 32.7123 49.6795 32.6915 49.7495 32.6498C49.8262 32.6048 49.9104 32.5881 50.002 32.5998Z" fill="#918F93"/>
<path d="M71.8968 33.7723L71.8943 42.1423C71.066 41.6423 70.3418 41.049 69.7218 40.3623C69.6653 40.2977 69.6335 40.2153 69.6319 40.1298L69.5894 36.4648C69.5893 36.401 69.6066 36.3388 69.6394 36.2848C70.231 35.3432 70.9835 34.5057 71.8968 33.7723Z" fill="#918F93"/>
<path d="M28.8594 34.3448C29.6994 35.1123 31.1044 36.3523 31.1094 37.4748C31.1244 40.4615 31.1261 43.4665 31.1144 46.4898C31.1143 46.6705 31.0486 46.8447 30.9294 46.9798L28.7394 49.5173C28.7411 45.3423 28.7419 41.2182 28.7419 37.1448C28.7419 37.1082 28.7027 36.6448 28.6244 35.7548C28.5777 35.2098 28.6561 34.7398 28.8594 34.3448Z" fill="#918F93"/>
<path d="M29.0195 56.0449L34.8945 50.8499C34.9147 50.8316 34.9288 50.8077 34.9351 50.7812C34.9415 50.7547 34.9396 50.727 34.9299 50.7016C34.9202 50.6762 34.903 50.6543 34.8806 50.6388C34.8583 50.6234 34.8317 50.615 34.8045 50.6149L29.297 50.5949C30.1587 49.5982 30.9487 48.669 31.667 47.8074C31.8754 47.5574 32.2345 47.4299 32.7445 47.4249C34.7662 47.4032 36.7387 47.4032 38.662 47.4249C38.8517 47.4265 39.0349 47.3559 39.1745 47.2274C42.1712 44.4874 45.1803 41.754 48.202 39.0274C48.6345 38.6399 49.462 38.3874 50.012 38.7049C51.107 39.3399 50.3345 40.8324 49.5745 41.5274C43.7595 46.849 37.882 52.1899 31.942 57.5499C31.8371 57.6441 31.7033 57.6998 31.5627 57.7075C31.4222 57.7152 31.2834 57.6746 31.1695 57.5924L29.0195 56.0449Z" fill="#918F93"/>
<path d="M71.5895 43.1198L66.0645 48.3723C66.046 48.3902 66.0331 48.4132 66.0274 48.4383C66.0218 48.4635 66.0235 48.4897 66.0326 48.5139C66.0416 48.538 66.0575 48.559 66.0782 48.5743C66.099 48.5895 66.1238 48.5984 66.1495 48.5998L71.5495 48.8273C71.0128 49.8806 70.312 50.8406 69.447 51.7073C69.2945 51.8623 69.137 51.9673 68.9045 51.9698C66.7695 51.9831 64.6637 52.0215 62.587 52.0848C62.2836 52.0945 61.9938 52.2114 61.7695 52.4148C58.9395 54.9948 56.062 57.5856 53.137 60.1873C52.697 60.5773 52.3479 60.8056 52.0895 60.8723C50.6895 61.2348 50.2695 59.8398 50.722 58.8373C50.8354 58.589 51.0945 58.279 51.4995 57.9073C57.3762 52.499 63.3029 47.0831 69.2795 41.6598C69.3422 41.6025 69.4235 41.5695 69.5087 41.5667C69.5939 41.564 69.6775 41.5916 69.7445 41.6448L71.5895 43.1198Z" fill="#918F93"/>
<path d="M50.9219 66.6223C50.9469 66.5457 51.0127 66.4757 51.1194 66.4123C51.1894 66.369 51.2777 66.3457 51.3844 66.3423C53.1569 66.2823 54.9769 66.1573 56.6994 66.1498C61.4594 66.1315 66.2202 66.119 70.9819 66.1123C71.0685 66.1123 71.1327 66.074 71.1744 65.9973L71.2419 65.8723C71.5602 66.004 71.8435 65.994 72.0919 65.8423C72.1669 65.7973 72.2052 65.7307 72.2069 65.6423C72.2135 65.4023 72.1435 65.2607 71.9969 65.2173C72.1002 64.524 72.1402 63.8323 72.1169 63.1423C72.0769 61.889 72.0569 61.2548 72.0569 61.2398C72.0902 57.5098 72.0769 53.7757 72.0169 50.0373L87.7444 50.0123C87.7879 50.0122 87.8303 50.0262 87.8654 50.0523C87.9006 50.0784 87.9265 50.1152 87.9394 50.1573C88.7527 52.849 89.1818 55.6107 89.2268 58.4423C89.3093 63.5673 86.0518 68.5348 82.0668 71.5123C79.2152 73.6423 76.0444 74.6257 72.5544 74.4623C70.0719 74.3448 67.0219 73.2273 64.5619 72.3623C60.9444 71.0923 57.5469 70.5073 53.8919 71.9198C53.0419 72.2498 52.2085 72.6123 51.3919 73.0073C51.3562 73.0244 51.3168 73.0323 51.2773 73.0303C51.2377 73.0283 51.1993 73.0165 51.1656 72.9959C51.1318 72.9753 51.1037 72.9465 51.0838 72.9123C51.064 72.878 51.053 72.8394 51.0519 72.7998L50.9219 66.6223Z" fill="#1FCCDC"/>
<path d="M72.0169 50.0374C72.0769 53.7757 72.0903 57.5099 72.0569 61.2399C72.0569 61.2549 72.0769 61.889 72.1169 63.1424C72.1403 63.8324 72.1003 64.524 71.9969 65.2174C71.4794 64.7599 69.7369 63.3049 69.7344 62.4449C69.7144 58.5615 69.6919 55.8324 69.6669 54.2574C69.6519 53.3224 69.6894 52.7299 70.3269 51.9824C70.8386 51.384 71.4019 50.7357 72.0169 50.0374Z" fill="#918F93"/>
<path d="M29.2969 50.5948L34.8044 50.6148C34.8316 50.6149 34.8581 50.6233 34.8805 50.6388C34.9029 50.6542 34.9201 50.6761 34.9298 50.7015C34.9395 50.7269 34.9413 50.7547 34.935 50.7811C34.9287 50.8076 34.9146 50.8315 34.8944 50.8498L29.0194 56.0448C28.7194 56.2898 28.6527 56.7373 28.8194 57.3873L28.7944 65.8448L28.7394 66.5948C28.7311 66.6981 28.7786 66.749 28.8819 66.7473L29.7069 66.7248L50.1744 66.7348C50.2019 68.9423 50.4269 71.1948 50.0219 72.7298C50.0002 72.8148 49.9494 72.8398 49.8694 72.8048C47.9561 71.9681 46.2686 71.4656 44.8069 71.2973C41.1419 70.8748 37.0994 72.7498 33.6044 73.9323C31.5777 74.619 30.0636 75.0048 29.0619 75.0898C23.5144 75.5648 19.0044 72.5948 15.6994 68.5048C14.0469 66.4623 13.0594 64.4098 12.5419 61.9123C12.2444 60.4873 12.1244 58.2923 12.3594 56.7823C12.5861 55.3356 12.9078 53.5781 13.3244 51.5098C13.4669 50.8023 13.7919 50.6223 14.5119 50.6223C19.3619 50.629 24.2094 50.6115 29.0544 50.5698C29.3944 50.5665 29.4752 50.5748 29.2969 50.5948Z" fill="#30007F"/>
<path d="M28.8194 57.3873C29.7511 57.859 30.5378 58.4482 31.1794 59.1548C31.2244 59.2032 31.2469 59.2607 31.2469 59.3273L31.2794 62.8348C31.2794 62.9298 31.2528 63.0165 31.1994 63.0948C30.5511 64.0265 29.7494 64.9432 28.7944 65.8448L28.8194 57.3873Z" fill="#918F93"/>
<path d="M71.242 65.8723L71.1745 65.9973C71.1328 66.074 71.0687 66.1123 70.982 66.1123C66.2203 66.119 61.4595 66.1315 56.6995 66.1498C54.977 66.1573 53.157 66.2823 51.3845 66.3423C51.2778 66.3456 51.1895 66.369 51.1195 66.4123C51.0128 66.4756 50.947 66.5456 50.922 66.6223C50.6887 66.4373 50.4395 66.4748 50.1745 66.7348L29.707 66.7248C30.227 66.1681 30.9345 65.3531 31.8295 64.2798C32.0529 64.0115 32.3579 63.874 32.7445 63.8673C44.7929 63.6806 56.8162 63.5473 68.8145 63.4673C68.9227 63.4665 69.0298 63.4891 69.1286 63.5335C69.2274 63.578 69.3156 63.6432 69.387 63.7248L71.242 65.8723Z" fill="#918F93"/>
</svg>
