<svg width="100" height="100" viewBox="0 0 100 100" fill="none" xmlns="http://www.w3.org/2000/svg">
<rect width="100" height="100" fill="#FFF9D6"/>
<path d="M73.4836 24.3623C80.2977 26.9989 86.9806 30.5112 91.7136 36.2512C91.9902 36.5868 91.9109 36.7415 91.4756 36.715C90.496 36.654 89.4554 36.5777 88.4484 36.5777C62.1278 36.5696 35.8753 36.5706 9.69099 36.5807C9.63221 36.581 9.57465 36.5639 9.52551 36.5317C9.47637 36.4994 9.43784 36.4533 9.41472 36.3993C9.3916 36.3452 9.38493 36.2856 9.39553 36.2278C9.40613 36.1699 9.43355 36.1165 9.47434 36.0742C14.6966 30.6221 20.8434 26.7273 27.9149 24.3898C29.2087 23.9595 30.4232 23.9992 31.7628 24.0023C44.8336 24.0206 57.9044 24.0379 70.9753 24.0541C71.8724 24.0541 72.6261 24.0267 73.4836 24.3623Z" fill="#E9C500"/>
<path d="M5.75178 42.0277C6.03558 41.3686 6.58486 39.739 7.42709 39.7451C14.2361 39.7858 21.0563 39.7868 27.8877 39.7482C27.9711 39.7482 28.051 39.7813 28.11 39.8402C28.1689 39.8992 28.202 39.9791 28.202 40.0625L28.2173 59.9342C28.2173 60.0217 28.1746 60.0654 28.0891 60.0654L7.04259 60.0684C6.9652 60.0683 6.88887 60.0497 6.8199 60.0142C6.75092 59.9786 6.69129 59.9272 6.64589 59.864C6.28377 59.3574 5.96133 58.7695 5.67855 58.1002C3.41633 52.7213 3.44074 47.3638 5.75178 42.0277Z" fill="#E9C500"/>
<path d="M95.1071 58.5732C94.8426 59.1611 94.569 59.6179 94.2862 59.9434C94.2529 59.9825 94.2111 60.014 94.1637 60.0356C94.1163 60.0572 94.0644 60.0684 94.0116 60.0685H73.0841C72.9878 60.0685 72.8954 60.0302 72.8273 59.9621C72.7592 59.894 72.7209 59.8016 72.7209 59.7053L72.7026 39.9069C72.7026 39.8862 72.7068 39.8657 72.7148 39.8466C72.7228 39.8275 72.7345 39.8102 72.7493 39.7957C72.7641 39.7812 72.7816 39.7699 72.8008 39.7622C72.8201 39.7546 72.8406 39.7508 72.8613 39.7513L93.4257 39.7848C93.6362 39.785 93.8424 39.8443 94.0205 39.956C94.1986 40.0678 94.3415 40.2273 94.4327 40.4165C95.3726 42.3634 96.2911 44.6063 96.6756 46.6722C97.4141 50.6636 96.8912 54.6306 95.1071 58.5732Z" fill="#E9C500"/>
<path d="M23.2639 74.1513C17.9481 71.707 12.8124 68.2557 9.13222 63.6631C9.11205 63.6379 9.09942 63.6076 9.0958 63.5755C9.09219 63.5434 9.09772 63.511 9.11177 63.4819C9.12581 63.4529 9.1478 63.4284 9.17518 63.4113C9.20256 63.3943 9.23422 63.3853 9.26649 63.3855C35.3511 63.4058 61.4134 63.419 87.4533 63.4251C88.9526 63.4251 90.4336 63.3783 91.8963 63.2847C91.9341 63.2823 91.9718 63.2899 92.0057 63.3068C92.0395 63.3237 92.0684 63.3494 92.0894 63.3811C92.1104 63.4129 92.1227 63.4498 92.1253 63.488C92.1278 63.5262 92.1204 63.5645 92.1038 63.5991C91.5301 64.777 89.8701 66.2783 88.8753 67.145C85.0771 70.4447 80.6127 73.1209 75.482 75.1736C73.8525 75.8266 72.9554 76.2081 71.1488 76.202C57.307 76.1592 43.4662 76.1643 29.6264 76.2172C27.5666 76.2264 25.7265 75.2804 23.2639 74.1513Z" fill="#E9C500"/>
</svg>
