<svg width="100" height="100" viewBox="0 0 100 100" fill="none" xmlns="http://www.w3.org/2000/svg">
<rect width="100" height="100" fill="#1B3A84"/>
<path fill-rule="evenodd" clip-rule="evenodd" d="M42.553 76.867C48.249 61.1073 54.0329 45.3803 59.9047 29.6859C59.9607 29.535 59.9895 29.5397 59.991 29.6999C60.0035 42.7702 60.005 55.8406 59.9957 68.9109C59.9941 70.7946 59.8775 72.1532 59.6457 72.9869C59.246 74.4257 58.5312 75.723 57.5015 76.8786C57.4927 76.8891 57.487 76.9018 57.4852 76.9153C57.4833 76.9288 57.4852 76.9426 57.4909 76.9551C57.4965 76.9675 57.5055 76.9781 57.5169 76.9856C57.5283 76.9932 57.5415 76.9973 57.5552 76.9976L67.2961 77C67.3085 77.0004 67.3206 76.9972 67.3312 76.9907C67.3417 76.9842 67.3501 76.9748 67.3553 76.9636C67.3605 76.9525 67.3623 76.94 67.3605 76.9278C67.3587 76.9156 67.3534 76.9042 67.3451 76.895C66.3419 75.7004 65.6427 74.3728 65.2476 72.9123C65.0221 72.0755 64.9093 70.7658 64.9093 68.9832C64.9093 63.3728 64.9101 57.7553 64.9116 52.1308C64.9132 52.0469 64.956 52.0049 65.04 52.0049C66.0657 52.0078 67.0457 52.0202 67.9895 52.0321C72.9773 52.095 76.9521 52.1451 81.2997 50.7286C88.2782 48.4585 90.2077 42.3526 89.8554 35.6168C89.4984 28.7783 85.2054 23.4564 78.3203 22.2944C77.233 22.1125 76.4367 22.0199 75.9311 22.0168C70.6302 21.9981 65.3308 21.995 60.033 22.0075C59.9537 22.0075 59.8992 22.044 59.8697 22.1171L42.5297 65.5908C42.4877 65.6966 42.4418 65.6982 42.392 65.5955L21.2163 22.1008C21.1836 22.0339 21.13 22.0005 21.0553 22.0005L18.9461 22.0028C18.8621 22.0028 18.8155 22.044 18.8062 22.1265C17.1029 37.4709 15.4029 52.8215 13.7059 68.1783C13.4648 70.3575 13.1786 71.881 12.8473 72.749C12.25 74.3153 11.3089 75.6872 10.0242 76.8647C10.0129 76.8753 10.0051 76.8891 10.0018 76.9042C9.99847 76.9193 9.9998 76.9351 10.0056 76.9495C10.0114 76.9638 10.0214 76.9761 10.0343 76.9847C10.0472 76.9933 10.0623 76.9978 10.0778 76.9976L18.4842 77C18.5079 77.0001 18.5312 76.9941 18.5519 76.9826C18.5726 76.9711 18.5901 76.9545 18.6026 76.9342C18.6152 76.9139 18.6225 76.8907 18.6238 76.8667C18.6251 76.8427 18.6204 76.8187 18.6102 76.797C17.6956 74.9087 17.309 72.9449 17.4506 70.9058C18.2859 58.82 19.1063 46.7389 19.9121 34.6625C19.9131 34.6533 19.9169 34.6447 19.923 34.6379C19.9292 34.631 19.9373 34.6262 19.9463 34.6241C19.9552 34.6221 19.9646 34.6229 19.9731 34.6264C19.9817 34.6299 19.9888 34.636 19.9937 34.6438L42.427 76.8763C42.4336 76.8878 42.4433 76.8972 42.4549 76.9034C42.4666 76.9096 42.4798 76.9124 42.493 76.9114C42.5061 76.9104 42.5188 76.9057 42.5294 76.8979C42.54 76.89 42.5482 76.8793 42.553 76.867ZM84.8417 35.6168C84.5477 31.5828 82.6695 27.2664 78.8618 25.3976C77.6812 24.8174 76.6072 24.5242 75.6397 24.518C72.0964 24.4978 68.5508 24.4946 65.0028 24.5086C64.9422 24.5086 64.9119 24.539 64.9119 24.5996V49.3848C64.9119 49.4641 64.9515 49.5038 65.0308 49.5038C67.4387 49.5224 69.8473 49.5185 72.2566 49.4921C74.3331 49.4703 76.1304 49.0612 77.6486 48.2648C82.8608 45.5351 85.2585 41.319 84.8417 35.6168Z" fill="white"/>
</svg>
