<svg width="100" height="100" viewBox="0 0 100 100" fill="none" xmlns="http://www.w3.org/2000/svg">
<rect width="100" height="100" fill="#EC1C24"/>
<path d="M49.0869 38.7604C49.0839 38.7982 49.0947 38.8027 49.1192 38.7737C49.4615 38.3658 49.8577 38.0116 50.308 37.7113C50.8229 37.3679 51.3889 37.1574 52.0058 37.0798C52.53 37.0138 53.0568 36.9887 53.5861 37.0047C54.7054 37.0381 55.4059 37.0609 55.6876 37.0732C56.2868 37.0988 56.8011 37.1075 57.2306 37.0993C57.2499 37.099 57.2587 37.1084 57.2568 37.1277C57.2234 37.4499 57.1725 37.6987 57.1042 37.8739C57.0593 37.9893 57.024 38.0829 56.9984 38.1545C56.9543 38.2774 56.9177 38.3706 56.8887 38.4341C56.6203 39.0191 56.4124 39.5308 56.2651 39.9693C56.2016 40.1593 56.1561 40.4023 56.1286 40.6982C56.1268 40.7182 56.1158 40.7282 56.0958 40.7282C55.5694 40.729 55.0462 40.7648 54.5261 40.8357C54.2154 40.878 53.9499 40.9027 53.7298 40.9098C52.7904 40.9393 51.5013 40.8234 50.7167 41.5401C50.5712 41.6734 50.435 41.8412 50.308 42.0435C50.1696 42.2647 50.0771 42.4626 50.0307 42.6371C49.9684 42.8715 49.8804 43.112 49.8403 43.3403C49.7245 44.0019 49.6664 44.6693 49.666 45.3427C49.6645 48.6689 49.6628 51.9951 49.661 55.3213C49.661 55.3413 49.6511 55.3513 49.6315 55.3513L44.9385 55.3508C44.9269 55.3508 44.9159 55.3462 44.9077 55.338C44.8996 55.3299 44.895 55.3189 44.895 55.3073V37.1294C44.895 37.1119 44.9039 37.1032 44.9217 37.1032C45.7008 37.096 46.2944 37.0982 47.2516 37.0748C47.6833 37.0648 48.1143 37.0821 48.5445 37.1266C48.621 37.1348 48.6967 37.1474 48.7717 37.1645C49.1559 37.253 49.1364 37.6539 49.1264 37.9708C49.1179 38.2407 49.1047 38.5038 49.0869 38.7604Z" fill="white"/>
<path d="M81.1929 49.6593C81.1898 49.6573 81.186 49.6565 81.1822 49.6572C81.1785 49.658 81.1751 49.6601 81.1728 49.6632C80.0573 51.2703 78.9431 52.8675 77.8301 54.4548C77.6002 54.7839 77.2505 55.1804 76.8969 55.368C76.6303 55.5095 76.3514 55.5848 76.06 55.5941C75.4942 55.6127 74.7544 55.6045 73.8404 55.5696C73.4469 55.5544 72.7371 55.5473 71.7111 55.5484C71.688 55.5488 71.6816 55.5384 71.6916 55.5173C71.7294 55.4393 71.7645 55.3519 71.813 55.2789C72.4233 54.3576 73.0584 53.4536 73.7185 52.5671C74.9951 50.8521 76.2582 49.127 77.5077 47.3919C77.8608 46.9015 78.1913 46.3966 78.4995 45.8773C78.5099 45.8595 78.5091 45.8424 78.4972 45.8261C76.7079 43.3218 74.9216 40.8177 73.1382 38.3138C73.136 38.3108 73.0439 38.1924 72.862 37.9585C72.6686 37.7102 72.5276 37.4362 72.4388 37.1366C72.4376 37.1326 72.4374 37.1283 72.4382 37.1241C72.439 37.1199 72.4407 37.116 72.4433 37.1126C72.4459 37.1092 72.4493 37.1064 72.4531 37.1045C72.457 37.1026 72.4613 37.1016 72.4656 37.1016C73.1761 37.101 73.8282 37.0999 74.5955 37.0709C75.3929 37.0409 76.1904 37.0347 76.9882 37.0525C77.1335 37.0559 77.2755 37.0988 77.4175 37.1294C77.6477 37.1795 77.8498 37.2836 78.0239 37.4418C78.1943 37.5958 78.3924 37.8525 78.6181 38.2119C79.2005 39.1403 79.8377 40.0298 80.5297 40.8802C80.8066 41.2203 81.0251 41.5941 81.1851 42.0017C81.1933 42.0225 81.2061 42.0258 81.2235 42.0117C81.4592 41.8198 81.6745 41.5928 81.8694 41.3307C82.3556 40.6764 82.7999 39.9988 83.2599 39.3924C83.5119 39.0605 83.7618 38.727 84.0094 38.3917C84.3394 37.9452 84.5996 37.5227 84.79 37.1244C84.7975 37.1088 84.8099 37.101 84.8274 37.101H90.06C90.1156 37.101 90.1325 37.1266 90.1106 37.1778C89.9484 37.5576 89.7587 37.9114 89.5415 38.2392C88.8767 39.2426 88.1674 40.2135 87.4139 41.152C87.0631 41.5885 86.5385 42.3189 85.8402 43.3431C85.2661 44.1856 84.6408 44.9942 84.0461 45.8199C84.0368 45.8326 84.0368 45.8452 84.0461 45.8578L91.0506 55.5145C91.0528 55.5176 91.0541 55.5214 91.0544 55.5252C91.0547 55.5291 91.0539 55.533 91.0521 55.5364C91.0503 55.5399 91.0476 55.5428 91.0443 55.5448C91.041 55.5468 91.0372 55.5479 91.0333 55.5479H85.5757C85.5564 55.5479 85.5414 55.5401 85.5306 55.5245C84.3279 53.8239 83.1039 52.1339 81.9346 50.4105C81.7124 50.0836 81.4975 49.8687 81.1929 49.6593Z" fill="white"/>
<path d="M16.286 51.3489C16.3873 51.344 16.5004 51.3424 16.6251 51.3439C19.1424 51.3721 21.4347 51.3611 23.502 51.311C23.786 51.3043 23.9431 51.4268 23.972 51.7153C23.9987 51.984 24.0372 52.4397 24.0873 53.0823C24.1675 54.1095 24.2096 54.9215 24.2137 55.5185C24.2137 55.5381 24.2038 55.548 24.1842 55.548H9.03931C9.03343 55.5479 9.02763 55.5466 9.02234 55.544C9.01704 55.5415 9.01238 55.5378 9.0087 55.5333C9.00502 55.5288 9.00241 55.5235 9.00106 55.5178C8.99971 55.5122 8.99965 55.5063 9.00089 55.5006C9.07588 55.1439 9.19857 54.8174 9.36896 54.5212C9.5078 54.2799 9.64905 54.0397 9.79271 53.8006C9.97053 53.5036 10.112 53.2636 10.217 53.0806C11.7064 50.488 13.1952 47.8952 14.6834 45.3022C15.341 44.1568 16.0493 43.0141 16.639 41.9183C16.7556 41.7011 16.8675 41.4405 16.9748 41.1365C16.9804 41.1213 16.975 41.1136 16.9586 41.1136H9.22084C9.20117 41.1136 9.19114 41.1038 9.19077 41.0841L9.19022 37.1295C9.19022 37.1105 9.19968 37.1011 9.21862 37.1011H24.1129C24.2035 37.1011 24.2291 37.1419 24.1897 37.2236C24.0466 37.5226 23.9096 37.8333 23.7615 38.1095C22.8175 39.8687 21.8475 41.6135 20.8515 43.3438C19.3343 45.9787 17.8034 48.6321 16.2587 51.3038C16.2401 51.3353 16.2492 51.3503 16.286 51.3489Z" fill="white"/>
<path d="M34.1195 48.279C34.1891 48.1944 34.2709 48.1086 34.326 48.0134C34.7518 47.2765 35.1869 46.4233 35.6313 45.4536C36.0147 44.6169 36.3216 43.9335 36.5517 43.4034C36.7596 42.9256 36.9092 42.5857 37.0005 42.3838C37.7949 40.6316 38.5897 38.8794 39.3849 37.1272C39.3927 37.1098 39.4061 37.1011 39.425 37.1011H44.1319C44.1524 37.1011 44.1585 37.1104 44.1503 37.1289L32.9585 61.9783C32.9521 61.9917 32.9416 61.9984 32.9267 61.9984L28.0265 62C28.0233 62 28.0201 61.9992 28.0173 61.9977C28.0144 61.9962 28.012 61.994 28.0103 61.9913C28.0085 61.9886 28.0075 61.9855 28.0074 61.9824C28.0072 61.9792 28.0079 61.9761 28.0093 61.9733C29.2362 59.4037 30.4185 56.8118 31.5563 54.1976C31.6076 54.08 31.6087 53.9402 31.5597 53.7783C31.4943 53.5638 31.3382 53.1411 31.0914 52.5104C30.9184 52.069 30.5696 51.2225 30.0451 49.9707C28.8427 47.103 27.6373 44.2364 26.429 41.3709C26.1157 40.6281 25.7524 39.7342 25.3393 38.6892C25.082 38.0399 24.8917 37.5232 24.7685 37.1389C24.7603 37.1137 24.7696 37.1011 24.7963 37.1011H29.5016C29.5093 37.1011 29.517 37.1032 29.5236 37.1072C29.5303 37.1113 29.5358 37.117 29.5395 37.1239C29.7741 37.5738 29.9742 38.0076 30.1397 38.4252C30.6457 39.703 31.1279 40.8736 31.5864 41.9372C32.6336 44.3684 33.3169 46.0186 33.6361 46.888C33.8171 47.3803 34.0153 47.8475 34.0899 48.2712C34.094 48.2954 34.1039 48.298 34.1195 48.279Z" fill="white"/>
<path d="M60.3103 47.7867C60.6594 49.3687 61.6912 50.7664 63.2543 51.2926C63.719 51.4496 64.2152 51.5328 64.7427 51.5421C65.7082 51.5599 66.7768 51.4858 67.6421 51.0242C67.7884 50.9462 67.9742 50.8282 68.1995 50.67C68.586 50.3991 68.9685 50.1288 69.3472 49.8593C69.3821 49.8344 69.4188 49.8311 69.4574 49.8493L72.9956 51.5265C73.0115 51.5343 73.0154 51.546 73.0073 51.5615C72.5109 52.4996 71.8724 53.2501 71.0917 53.8128C70.2658 54.4087 69.3483 54.8376 68.3393 55.0997C67.8018 55.2396 67.2967 55.343 66.8241 55.4098C66.4715 55.46 65.9839 55.4993 65.3613 55.5279C64.9192 55.5483 64.5483 55.5496 64.2488 55.5318C62.171 55.4104 60.371 54.6564 58.8486 53.2699C57.4698 52.0137 56.5588 50.3705 56.1429 48.5351C56.0454 48.1047 56.0009 47.7472 55.9541 47.2828C55.8918 46.6592 55.9005 45.9897 55.9803 45.2743C56.0471 44.6733 56.1327 44.1758 56.237 43.782C57.0611 40.6615 59.426 38.4246 62.5326 37.6423C63.5416 37.388 64.5777 37.2714 65.6409 37.2926C66.7917 37.3152 67.9064 37.5729 68.9852 38.0655C69.3175 38.2173 69.6445 38.3927 69.9664 38.5917C71.5411 39.5654 72.6947 40.8861 73.4271 42.5536C73.9104 43.6546 74.1545 44.8208 74.1593 46.0522C74.1623 46.8759 74.1636 47.4339 74.1632 47.7261C74.1632 47.7339 74.1601 47.7414 74.1544 47.7469C74.1488 47.7525 74.1412 47.7556 74.1332 47.7556L60.337 47.7539C60.3143 47.7539 60.3054 47.7648 60.3103 47.7867ZM67.0385 41.4945C66.7493 41.385 66.4782 41.2987 66.225 41.2356C65.9603 41.1695 65.6795 41.1346 65.3825 41.1309C64.1318 41.116 63.0061 41.4657 62.0053 42.18C61.4184 42.5981 60.8459 43.3432 60.6973 44.0949C60.6928 44.1172 60.7019 44.1283 60.7245 44.1283H69.5532C69.5744 44.1283 69.5823 44.1181 69.5771 44.0977C69.2542 42.8515 68.2112 41.9388 67.0385 41.4945Z" fill="white"/>
</svg>
