<svg width="40" height="40" viewBox="0 0 40 40" fill="none" xmlns="http://www.w3.org/2000/svg">
<g clip-path="url(#clip0_729_10007)">
<rect width="40" height="40" fill="#CA3232"/>
<path fill-rule="evenodd" clip-rule="evenodd" d="M44.5474 16.3113C44.157 18.0801 43.4406 19.7482 43.1398 20.1346C43.2044 19.9806 43.274 19.8206 43.346 19.6554C44.1017 17.92 45.1062 15.6132 43.0179 13.6518C43.2145 15.3652 43.0154 17.1083 42.134 18.6978C42.9827 16.0647 43.5409 13.0442 41.444 11.4618C41.6016 13.1099 41.6094 15.7925 41.0686 16.6175C41.4781 14.0401 41.8796 11.0539 39.8091 9.36724C40.217 11.9289 40.3526 13.7378 39.7493 15.3975C40.1721 12.694 40.5742 9.41224 37.7697 7.33714C38.2882 8.94684 38.7046 11.6215 38.248 13.8728C38.2508 13.702 38.2545 13.5259 38.2583 13.3454L38.2583 13.344C38.3207 10.3716 38.4081 6.20656 35.0785 5.10574C35.59 5.86327 37.3499 8.56237 36.5245 12.5694C36.6658 9.29579 36.3563 5.31696 32.0436 2.99105C32.0436 2.99105 37.2435 9.57084 33.4799 15.3329C32.4039 16.9803 31.5768 18.1556 30.9422 19.0573C29.3574 21.3093 28.9726 21.8561 28.9067 23.7932C28.8563 25.2753 28 24.5 26.5 26.5C26.5 25 24.8287 24.7147 24.9214 24.1575C24.9722 23.8522 25.5 23.5 26.5 23.5C26.5 23.5 25.6517 23.1678 25 22.5C24.4714 21.9583 24.1714 21.0933 23.7671 20.8218C24.9031 21.2746 26.3676 19.7858 26.4806 18.7911C25.1661 19.4694 24.5298 19.3518 24.2283 19.2961C24.189 19.2888 24.1554 19.2826 24.1267 19.2794C25.0442 18.8439 25.5902 18.3935 25.9049 16.8906C25.3744 17.4421 24.3196 17.898 23.9127 17.9957C24.5142 17.4523 24.3123 16.062 23.4803 15.4278C23.6838 16.1706 22.9112 17.2702 21.8576 17.0426C21.7208 17.0131 21.5525 16.9678 21.3594 16.9159C20.0642 16.5676 17.6511 15.9188 16.135 17.6879C15.6442 18.2079 15.0354 16.9153 15.7119 16.3445C14.8158 16.3147 14.3738 18.0276 14.3375 18.3473C14.3106 18.5842 14.1462 19.0812 13.7037 19.1749C13.2613 19.2686 12.9408 19.0283 12.8358 18.8964C12.9178 19.2835 13.1732 19.4975 13.3352 19.5804C11.5383 18.8141 9.59053 19.8385 9.16205 21.1058C8.72856 22.3879 8.90784 23.3438 9.0766 23.7588C9.8992 21.5853 12.2317 21.9582 13.8569 22.5387C14.133 22.642 14.3421 22.7017 14.5511 22.7614C14.3453 22.9899 13.9974 23.2023 13.2789 23.1926C11.8773 23.1774 11.1757 22.7019 11.1757 22.7019C11.1152 23.2347 11.751 24.9621 13.2357 24.8789C14.1302 24.8501 14.5199 24.9872 14.9145 25.1259C15.1731 25.2168 15.4338 25.3085 15.8399 25.3546C16.1263 25.3872 16.3251 25.5177 16.4156 25.6719C16.7579 26.1426 15.9814 29.1771 14.8568 28.9414C15.2948 29.1465 16.3018 29.5251 16.8257 29.3981C16.3484 30.0711 14.8814 31.1799 12.9221 31.1628C13.3974 31.3931 14.7241 31.9322 16.2287 32.2468C15.3595 32.5885 13.2268 33.111 11.6491 32.467C12.1095 32.965 12.9817 33.6724 14.0847 34.1518C13.5505 34.1345 12.9796 33.9992 12.3786 33.6951C10.622 32.814 9.9583 32.8953 7.18666 33.2348C6.09994 33.3679 4.68908 33.5407 2.7613 33.7108C-4.09627 34.2928 -7.42442 26.595 -7.42442 26.595C-7.42111 31.4949 -4.05157 33.6755 -1.11527 35.0813C-5.03463 33.9083 -6.57681 31.0792 -7.00129 30.2697C-7.60129 33.761 -3.85192 35.6614 -1.21389 36.9985C-1.06708 37.0729 -0.923714 37.1456 -0.784731 37.2167C-2.98338 36.5515 -5.14097 34.9168 -6.31245 33.6971C-5.81496 37.1502 -2.71302 38.339 -0.154017 39.2614C-1.91431 38.984 -3.44278 38.0071 -5.49185 36.4552C-4.98837 39.0779 -2.19054 40.153 0.294699 41.0014C-0.688065 41.0864 -3.0246 39.7948 -4.42278 38.8877C-4.02359 41.4841 -1.09941 42.4247 1.62129 42.9257C-0.196117 42.9482 -1.86 42.2884 -3.24065 41.3118C-2.50376 44.0803 0.00358659 44.2895 1.88989 44.4468C2.06935 44.4618 2.24332 44.4763 2.40948 44.4925C1.92671 44.5742 0.140125 44.4011 -1.62411 43.9193C-0.881533 45.7655 0.425667 45.8175 2.38877 45.8956C2.67883 45.9071 2.98325 45.9192 3.30225 45.9377C3.30225 45.9377 1.87149 46.1132 -0.344984 45.6653C0.799025 47.5806 3.27331 47.3724 4.73007 47.2406C3.99914 47.5 2.66873 47.4973 0.98673 47.2027C2.03827 49.006 3.99869 48.6915 5.25857 48.4894C5.45215 48.4583 5.62961 48.4298 5.78426 48.4122C5.34473 48.6157 3.93574 48.7781 2.58385 48.6406C3.43711 49.9818 4.69665 49.7686 6.68868 49.4314C6.95309 49.3866 7.23063 49.3397 7.52161 49.2939C7.39103 49.3719 5.46815 49.9594 3.92038 49.9389C5.0533 51.1584 6.42522 50.7848 7.89661 50.3842C8.14378 50.3169 8.3938 50.2488 8.64592 50.1874C8.4065 50.3304 6.64021 50.8834 5.70521 50.999C6.91998 51.9417 8.20203 51.4175 9.45871 50.9038C9.62558 50.8355 9.79215 50.7675 9.95791 50.7031L38.75 45.375L44.9554 29.7989C45.0907 29.6835 45.2296 29.5692 45.3688 29.4546C46.4169 28.5917 47.4862 27.7113 47.2321 26.1948C46.6871 26.9632 45.3628 28.2563 45.1234 28.3993C45.3042 28.1984 45.4904 28.0036 45.6744 27.8112C46.719 26.7185 47.6889 25.704 47.1449 24.1207C46.4292 25.4932 45.0003 26.9077 44.8697 26.9857C45.0377 26.7691 45.2007 26.5631 45.3567 26.366L45.3575 26.365C46.6263 24.7622 47.4301 23.7468 46.6354 22.3284C46.0938 23.5969 45.2916 24.7257 44.917 25.038C45.006 24.9101 45.115 24.7676 45.2342 24.6118C46.0095 23.5983 47.2158 22.0213 46.1265 20.2405C45.5886 21.8611 44.9602 23.0338 44.3852 23.5544C45.2137 22.3213 46.5483 20.2544 45.4042 18.3391C44.7348 20.4812 43.915 21.6796 43.915 21.6796C44.0418 21.4189 44.1665 21.1709 44.286 20.9335C45.2155 19.0861 45.8233 17.878 44.5474 16.3113ZM19.1469 19.9456C19.0476 20.1661 18.7263 20.5962 18.2358 20.5527C17.9449 20.5268 17.677 20.4248 17.4337 20.3322C17.1643 20.2296 16.925 20.1385 16.718 20.175L16.8927 19.9814C17.0894 19.7839 17.4134 19.7317 17.6447 19.7219C17.612 19.7645 17.5893 19.8148 17.5803 19.8705C17.5495 20.0615 17.6916 20.2432 17.8976 20.2764C18.1036 20.3096 18.2956 20.1817 18.3264 19.9907C18.3372 19.9234 18.3266 19.8572 18.2993 19.7983C18.3887 19.8199 18.4753 19.8436 18.5574 19.8661C18.8081 19.9347 19.0182 19.9922 19.1469 19.9456Z" fill="#F3F3F3"/>
</g>
<defs>
<clipPath id="clip0_729_10007">
<rect width="40" height="40" fill="white"/>
</clipPath>
</defs>
</svg>
